# parsimony mesh: cplx_CPLX0-7826 (source /Users/eranagmon/code/v2e-cplx/workspace/studies/ecoli-3d/viz/3d/structures/cplx_CPLX0-7826.pdb)
# atoms: 2962  voxel: 4 Å  verts: 1247  tris: 2528
v 38.2733 -22.5269 -23.5570
v 39.3695 -22.5269 -23.5570
v 37.9497 -20.3268 -23.9371
v 39.8984 -20.3268 -23.9371
v 38.4364 -17.3859 -23.9486
v 41.4136 -15.9437 -23.6866
v 43.2279 -14.5015 -23.4246
v 42.8886 -14.2749 -23.4246
v 43.2279 -14.2749 -23.4246
v -37.0171 29.4549 -23.4800
v -36.5675 29.4549 -23.4800
v -37.0171 29.7872 -23.4800
v -36.5675 29.7872 -23.4800
v -21.6126 37.1702 -23.7613
v -20.2378 37.1702 -23.7613
v -21.6659 39.6732 -23.9941
v -19.5297 39.6732 -23.9941
v -21.1650 42.0812 -23.8204
v -19.6916 42.0812 -23.8204
v 34.7393 -34.4455 -19.5380
v 35.4250 -34.4455 -19.5380
v 19.0454 -30.4906 -19.6388
v 21.1653 -31.0715 -20.5122
v 25.1653 -31.9113 -21.1002
v 29.1653 -31.9899 -20.6561
v 33.3097 -32.4872 -20.4842
v 36.1252 -32.3268 -20.2663
v 46.4672 -30.6005 -19.6825
v 47.6571 -30.6005 -19.6825
v 18.3318 -28.3268 -19.6858
v 21.2941 -27.9795 -20.3752
v 25.0989 -27.9795 -20.8124
v 29.4609 -27.9450 -20.4571
v 32.7873 -27.9450 -20.6847
v 36.8022 -28.3268 -20.5169
v 46.3626 -28.3268 -19.7173
v 47.6716 -28.3268 -19.7173
v 18.1738 -26.1580 -19.5318
v 20.0467 -26.1580 -19.5318
v 26.3880 -25.9642 -19.4765
v 29.5522 -24.7314 -19.4768
v 32.7873 -24.6299 -20.3900
v 37.3005 -24.3273 -21.5093
v 39.8047 -23.3275 -21.3843
v 46.7931 -25.9981 -19.5301
v 47.3486 -25.9981 -19.5301
v 30.7798 -22.1405 -19.4771
v 33.1653 -21.2187 -20.2755
v 35.8116 -19.9522 -21.6416
v 41.7408 -20.3775 -21.4787
v 44.3227 -19.0779 -20.2084
v 37.6422 -17.0012 -21.3843
v 41.2998 -15.9299 -22.0232
v 44.2720 -16.0316 -21.4787
v 42.3208 -13.8443 -21.3843
v 43.6806 -13.8443 -21.3843
v -33.4924 25.5407 -19.6070
v -30.8347 25.5029 -19.6415
v -26.8347 25.3356 -19.7418
v -23.8135 25.3177 -19.7407
v -37.8293 28.6707 -21.3843
v -35.0299 27.6716 -21.0939
v -30.8347 27.6732 -20.4708
v -26.8347 27.6732 -20.7585
v -22.6220 27.6074 -20.1730
v -20.5445 28.8969 -19.5624
v -13.4461 29.2328 -19.7646
v -11.7371 29.2328 -19.7646
v -41.1804 32.8446 -19.5263
v -38.8918 31.4844 -20.5880
v -34.9069 31.5340 -21.0287
v -30.8076 31.9548 -20.1030
v -27.0379 31.9548 -20.3847
v -22.8347 31.6732 -20.4478
v -20.4807 31.6732 -19.6290
v -13.4461 30.6226 -19.7646
v -11.7371 30.6226 -19.7646
v -41.1804 33.8245 -19.5263
v -40.3084 33.8245 -19.5263
v -33.2463 33.9077 -19.4765
v -30.4884 35.7417 -19.4332
v -27.0379 36.0147 -19.9136
v -22.9015 35.7714 -21.5991
v -19.1120 35.9512 -20.9353
v -16.3623 37.3988 -19.6715
v -28.8540 37.6828 -19.3900
v -26.8347 38.0240 -19.8121
v -23.3216 39.5480 -21.3231
v -17.5297 39.6732 -22.5124
v -15.6099 39.6732 -20.5124
v -21.3598 42.1454 -21.3843
v -18.5141 43.3214 -21.8078
v -15.4322 43.6732 -21.0196
v -17.3366 46.0361 -20.3476
v -16.1255 46.0361 -20.3476
v 26.5458 -34.6762 -16.6298
v 29.1653 -34.6396 -16.5364
v 33.3097 -34.5567 -17.1587
v 35.8620 -34.5634 -17.3843
v 19.0454 -30.4906 -18.6236
v 20.9286 -31.2332 -17.3279
v 25.1936 -33.5050 -17.7316
v 29.1653 -33.9899 -18.5364
v 32.0726 -33.9275 -18.3416
v 37.9348 -32.4981 -17.5200
v 41.1653 -31.9452 -16.8163
v 45.1464 -31.4019 -17.5942
v 47.6355 -30.7664 -17.3843
v 18.3110 -28.4383 -17.3279
v 21.0754 -28.1303 -17.5907
v 23.7213 -26.4146 -19.2245
v 30.9913 -26.3572 -19.3438
v 31.2019 -26.3572 -19.3438
v 38.8022 -28.3268 -18.9126
v 41.1653 -28.3268 -18.0947
v 44.3626 -28.3268 -18.5664
v 48.0098 -28.3268 -17.3843
v 18.1873 -26.0701 -17.3843
v 21.2941 -25.6478 -17.6884
v 25.0925 -24.4175 -17.7045
v 29.5522 -24.7314 -19.0975
v 31.2019 -26.1653 -19.3438
v 38.9943 -26.1277 -19.1959
v 41.1543 -24.6074 -18.3192
v 45.3419 -24.5296 -18.0903
v 48.0287 -24.5296 -17.4424
v 26.4638 -21.8344 -16.1846
v 29.3340 -21.1848 -17.4645
v 32.8326 -19.1056 -17.7642
v 35.1966 -18.3691 -19.3508
v 42.4803 -21.7446 -18.5712
v 45.4597 -20.3775 -18.4188
v 49.3293 -19.9364 -16.5086
v 51.1681 -18.3427 -15.3874
v 33.9442 -17.4995 -16.6841
v 36.7841 -16.6345 -17.7642
v 39.6141 -14.8320 -17.3843
v 46.5016 -16.3268 -18.5767
v 49.0271 -16.7243 -16.3401
v 51.1681 -18.3226 -15.3874
v 41.6141 -13.3150 -17.3843
v 45.1399 -12.8928 -17.2739
v 47.6017 -13.2859 -15.8670
v -33.8205 25.2130 -17.3843
v -30.8347 24.7383 -17.3843
v -26.8347 24.6776 -17.3843
v -22.6220 25.2274 -17.1769
v -18.8347 25.1820 -16.0324
v -14.8347 25.1862 -15.8344
v -12.7964 25.6301 -15.4414
v -38.2982 28.3335 -17.3843
v -35.8205 26.3335 -17.3843
v -21.1469 26.2302 -18.3721
v -19.0606 27.6074 -17.8067
v -14.8016 27.8089 -17.6483
v -11.8145 27.8089 -17.0185
v -41.1804 32.8446 -18.2882
v -39.3240 32.2153 -17.7669
v -35.9130 33.2808 -18.8340
v -29.4561 33.4759 -19.1089
v -28.5067 33.4759 -19.1089
v -18.4807 31.6732 -18.1551
v -14.8016 31.8428 -18.2217
v -11.4178 31.8428 -17.6050
v -41.1804 33.8245 -18.2882
v -39.1781 33.9298 -17.2277
v -34.3986 35.3047 -17.1530
v -30.4884 35.7417 -18.6238
v -28.5067 34.9091 -19.1089
v -17.9863 34.7322 -18.5721
v -14.9513 35.9086 -18.4154
v -10.8150 35.8529 -16.6894
v -8.6331 37.3060 -15.6954
v -32.8843 37.7097 -15.4720
v -30.4463 38.0104 -17.0369
v -26.7733 39.8633 -17.3846
v -23.8713 40.7980 -18.7181
v -13.6099 39.6732 -18.8217
v -10.6061 39.7808 -16.7209
v -8.6331 38.5193 -15.6954
v -25.3989 42.1385 -16.0514
v -22.6566 42.4114 -17.3846
v -19.4193 44.2470 -17.3843
v -13.4322 43.6732 -18.7520
v -11.5595 43.6732 -16.7520
v -17.4193 46.0317 -17.3843
v -14.8092 46.3701 -17.4262
v -12.1822 46.3566 -16.1209
v 42.6635 -42.4331 -11.6163
v 43.2725 -42.4331 -11.6163
v 41.8291 -40.3268 -12.0465
v 43.8130 -40.3268 -12.0465
v 26.5458 -34.6762 -14.7416
v 29.1235 -34.8871 -13.3987
v 33.3981 -34.7955 -13.3181
v 37.0212 -35.0498 -13.4276
v 40.7974 -36.6763 -12.9452
v 45.2191 -36.2502 -12.7639
v 47.5173 -34.8658 -11.9456
v 22.1041 -30.8445 -14.8676
v 25.2789 -32.1737 -13.4712
v 27.7624 -33.5028 -12.0749
v 34.8867 -34.0004 -11.9407
v 37.0212 -33.9730 -13.4276
v 41.1653 -33.9452 -14.8473
v 45.8934 -32.2675 -13.4918
v 47.4088 -31.9880 -13.2994
v 18.8528 -27.1793 -15.1408
v 20.9832 -28.4466 -13.6708
v 24.0121 -29.7139 -12.2009
v 46.8643 -29.7332 -11.9866
v 47.5031 -28.3706 -13.3457
v 18.8528 -26.1534 -15.1408
v 21.5103 -24.5121 -13.2695
v 23.7971 -22.8708 -14.0649
v 47.0039 -22.7651 -11.5294
v 47.9860 -24.1898 -13.0713
v 23.1583 -22.3153 -11.3982
v 25.1444 -21.6783 -12.9926
v 29.1868 -19.3505 -13.6821
v 31.2775 -18.4356 -15.2140
v 47.0039 -22.1895 -11.5294
v 49.3293 -20.8619 -13.0713
v 51.3589 -18.5987 -13.3843
v 30.5344 -17.5748 -12.5473
v 32.7922 -16.2038 -13.6919
v 37.1653 -14.8314 -14.8102
v 39.2796 -14.4936 -15.1666
v 50.3196 -15.6500 -13.3843
v 51.3589 -17.6500 -13.3843
v 34.3070 -13.6277 -12.1697
v 37.1653 -13.1357 -12.8102
v 40.7483 -12.1702 -13.5673
v 45.1653 -10.9779 -14.3797
v 48.2732 -12.1023 -13.4303
v 42.2171 -9.9835 -11.9680
v 45.1653 -9.9492 -12.3797
v 47.4727 -10.1667 -12.1277
v -17.8559 17.1301 -12.2853
v -16.2531 17.1301 -12.2853
v -18.3014 19.6732 -12.6499
v -14.8857 20.0147 -12.4428
v -12.7288 21.5758 -11.4610
v -33.4915 25.1921 -14.7547
v -30.8097 24.7060 -13.4065
v -26.8347 24.2831 -13.3843
v -22.8347 24.5582 -13.3843
v -18.9954 23.2510 -13.4561
v -14.8347 23.1862 -14.0317
v -12.3613 24.0473 -13.0303
v -37.6422 29.0052 -14.7930
v -34.7778 27.7000 -13.4405
v -32.1264 26.3947 -12.0880
v -11.8077 27.6732 -13.3843
v -38.2846 31.7526 -13.4295
v -36.0640 30.4722 -12.1264
v -11.5310 31.6732 -13.3843
v -38.0415 34.7098 -13.3843
v -35.2115 36.7098 -13.3843
v -10.2740 35.8529 -13.5030
v -8.6331 37.3060 -14.9155
v -33.2115 37.7720 -13.3843
v -30.5399 39.6618 -13.1185
v -28.0656 40.8557 -14.2747
v -9.3695 39.7227 -13.6853
v -8.5155 39.7227 -13.6853
v -29.0100 41.8483 -11.6080
v -26.5546 43.3267 -12.9316
v -22.8347 44.4297 -14.0745
v -19.7790 44.8832 -14.7670
v -9.5595 43.6732 -14.2616
v -8.4768 43.6732 -12.2616
v -25.0435 45.8358 -11.5885
v -22.8347 46.2699 -12.0745
v -18.6013 46.6928 -13.4139
v -14.9146 48.3230 -13.1980
v -11.0199 47.3937 -12.9451
v -8.7943 45.7641 -11.4831
v -13.6346 49.8283 -11.7404
v -12.5242 49.8283 -11.7404
v 42.6635 -42.4331 -11.1375
v 43.2725 -42.4331 -11.1375
v 34.1768 -38.8708 -7.9611
v 37.1653 -39.3178 -8.7786
v 40.9411 -40.4012 -9.9020
v 44.4054 -40.3497 -9.6362
v 30.0585 -35.2115 -9.3843
v 33.1984 -36.2500 -9.5617
v 36.9908 -36.6763 -10.7665
v 39.2187 -38.2426 -11.3332
v 46.6350 -37.6360 -9.3843
v 48.1396 -35.6360 -9.3843
v 26.4355 -31.1471 -9.3843
v 28.9881 -32.2799 -9.0349
v 33.3200 -32.5620 -9.8656
v 35.5412 -34.0004 -11.1622
v 46.8643 -30.6702 -11.0082
v 48.5743 -32.1328 -9.5586
v 22.2956 -27.2616 -9.3843
v 24.4355 -29.2616 -9.3843
v 30.2276 -29.6695 -8.5691
v 31.7533 -29.6695 -8.5691
v 46.8643 -29.7332 -11.0082
v 48.5662 -28.3706 -9.5586
v 11.0173 -22.5841 -7.5038
v 11.4806 -22.5841 -7.5038
v 21.6561 -24.3268 -9.3843
v 47.0039 -22.7651 -11.1227
v 48.0962 -24.1898 -9.6273
v 11.0173 -22.1575 -7.5038
v 11.4806 -22.1575 -7.5038
v 21.9478 -20.7199 -9.4536
v 25.1653 -19.8855 -10.1734
v 27.8678 -19.0832 -10.3209
v 47.0039 -22.1895 -11.1227
v 48.7685 -20.4315 -9.7365
v 51.4206 -18.6735 -11.0169
v 21.9889 -17.7928 -8.1665
v 25.1653 -17.8339 -8.1734
v 29.3762 -16.5559 -9.1787
v 31.6403 -14.9082 -10.7031
v 50.5203 -15.9448 -9.4525
v 51.3268 -15.9448 -9.4525
v 30.8847 -13.8449 -8.0364
v 33.0503 -13.1114 -9.3756
v 37.1653 -12.0826 -9.3843
v 40.9963 -11.5862 -9.3962
v 45.1653 -11.1587 -8.2768
v 49.2037 -12.1490 -9.2212
v 51.2329 -13.7426 -7.8881
v 42.2171 -9.9835 -10.7375
v 45.1653 -9.9492 -10.2768
v 47.4727 -10.1667 -10.5543
v -17.8559 17.1301 -10.4616
v -16.2531 17.1301 -10.4616
v -25.6998 20.9958 -8.0076
v -22.8347 20.3745 -8.4951
v -19.1459 19.3563 -9.3519
v -14.8857 19.2330 -9.2307
v -12.1654 21.3076 -9.3843
v -29.4597 25.0808 -10.3706
v -27.1514 23.8518 -9.1891
v -22.8347 22.8489 -10.4951
v -20.4359 22.2912 -10.9087
v -10.7782 23.6732 -9.3843
v -33.7125 28.4067 -9.3843
v -30.7546 27.4955 -9.2369
v -28.0903 27.6732 -8.1632
v -10.0518 27.4115 -9.1740
v -8.4788 28.5704 -7.7005
v -37.7622 32.7099 -9.3843
v -35.7125 30.7099 -9.3843
v -29.3828 30.2332 -8.1032
v -28.0739 30.2332 -8.1032
v -10.3498 31.8581 -9.1740
v -8.4788 30.6480 -7.7005
v -37.9716 35.8853 -9.5855
v -35.9542 37.3601 -11.0530
v -10.9676 35.6732 -9.3843
v -37.7553 39.6732 -8.5620
v -34.5366 39.5755 -9.5028
v -31.6938 40.5267 -9.3843
v -10.1047 39.6250 -9.2149
v -8.3979 40.9262 -10.4353
v -37.4041 42.0750 -7.9526
v -35.7856 42.0750 -7.9526
v -29.6938 42.5463 -9.3843
v -27.7966 44.5463 -9.3843
v -17.1089 45.3502 -7.7673
v -16.5683 45.3502 -7.7673
v -9.4212 42.0818 -7.7687
v -8.3367 43.5183 -9.2149
v -25.7966 46.2591 -9.3843
v -22.8347 47.0938 -9.3843
v -18.5992 46.9115 -9.2141
v -15.1014 47.7831 -9.4191
v -11.0484 48.1653 -9.5963
v -8.5398 46.3368 -9.3843
v -13.6346 49.8283 -11.0709
v -12.5242 49.8283 -11.0709
v 26.2139 -43.0803 -4.3422
v 29.1653 -43.3658 -4.8199
v 31.5429 -42.9587 -4.3405
v 10.9144 -38.7473 -3.6594
v 11.8478 -38.7473 -3.6594
v 18.3015 -39.2804 -3.6935
v 21.1653 -39.6622 -4.1189
v 24.9945 -40.4229 -4.8033
v 29.1653 -40.3268 -5.8547
v 32.8598 -39.9528 -5.5172
v 37.1624 -39.1445 -5.0205
v 40.8126 -39.5917 -5.0205
v 45.4872 -39.3644 -5.6167
v 48.4022 -38.7254 -4.4384
v 10.4102 -36.3268 -4.0842
v 13.1748 -36.5033 -4.1890
v 17.0470 -36.5033 -3.9208
v 21.1653 -36.3268 -4.5142
v 25.1653 -36.3268 -5.4026
v 29.1216 -36.3246 -6.3725
v 31.5101 -37.6565 -6.6939
v 38.4938 -38.2421 -3.4446
v 39.2441 -38.2421 -3.4446
v 47.0352 -38.2001 -7.1051
v 49.5906 -36.8953 -5.6306
v 51.4803 -35.5905 -4.1562
v 10.4094 -33.3779 -4.0424
v 13.0235 -32.1575 -4.2918
v 17.2966 -32.4030 -4.0031
v 21.1653 -33.5121 -3.7796
v 25.4976 -32.3457 -5.3596
v 28.8217 -32.2954 -6.0702
v 32.5290 -31.3334 -5.3843
v 50.6626 -32.3268 -6.8697
v 51.9041 -32.3268 -4.8697
v 13.5289 -28.3268 -4.1838
v 17.2966 -28.4585 -4.5266
v 21.2513 -27.3886 -5.4869
v 24.6638 -28.9893 -5.3843
v 29.6186 -29.4039 -5.3843
v 32.5290 -29.4039 -5.3843
v 50.8323 -28.3268 -7.1208
v 51.8555 -28.3268 -5.1208
v 10.8501 -23.4266 -5.3843
v 12.6835 -24.3933 -5.3520
v 17.1653 -24.3268 -5.7689
v 20.1386 -24.3268 -6.8173
v 49.9148 -24.4485 -5.6483
v 51.4155 -25.8630 -4.4909
v 10.8501 -21.9217 -5.3843
v 13.1673 -20.7234 -5.1360
v 17.1653 -20.3268 -5.4971
v 19.6487 -20.3268 -6.8695
v 26.7252 -18.6216 -4.2689
v 28.0911 -18.6216 -4.2689
v 46.8856 -18.7560 -3.9162
v 47.7751 -20.1843 -5.3034
v 14.8540 -18.0904 -3.5717
v 17.3671 -16.5850 -4.2559
v 20.9145 -16.3544 -5.3502
v 25.3013 -17.4860 -5.5150
v 29.4879 -16.7267 -5.4446
v 33.1653 -15.4649 -4.0572
v 35.5525 -14.9213 -3.7122
v 42.7659 -14.6960 -4.0021
v 45.3975 -16.1483 -4.3795
v 48.9296 -16.0073 -6.3596
v 51.2329 -14.4610 -7.3022
v 18.8350 -13.9009 -3.7421
v 19.8401 -13.9009 -3.7421
v 30.8847 -13.8449 -6.6203
v 33.1653 -13.3319 -6.0572
v 36.9976 -13.2526 -5.1810
v 41.3256 -13.4878 -5.3549
v 45.1653 -13.1587 -6.2294
v 49.1653 -13.0600 -6.7044
v 51.2329 -13.7426 -7.3022
v -29.4271 13.4790 -4.3433
v -28.5589 13.4790 -4.3433
v -41.9007 17.3274 -3.6022
v -40.1635 17.3274 -3.6022
v -33.7066 16.8900 -4.5009
v -30.7901 15.6033 -4.9952
v -28.3705 15.6732 -4.5605
v -49.0851 21.0857 -3.8077
v -46.8347 20.7312 -3.7615
v -43.0743 19.6721 -3.6146
v -38.8320 19.5379 -4.0523
v -34.9579 19.5379 -5.0089
v -30.8347 19.6732 -5.8562
v -27.0957 19.8553 -5.4162
v -22.8347 19.9477 -5.3843
v -18.8347 19.4117 -5.3843
v -14.8347 19.4523 -5.3843
v -10.7628 20.7142 -5.4106
v -8.4850 21.3523 -4.0949
v -49.1674 23.6732 -3.8799
v -46.8347 23.6732 -4.3072
v -42.8347 23.6732 -4.0680
v -38.8650 23.8140 -4.0748
v -34.9674 23.8140 -4.9721
v -30.8347 23.6732 -5.9767
v -28.3097 23.6732 -6.5986
v -9.3411 23.6732 -6.7899
v -8.1075 23.6732 -4.7899
v -49.0280 25.9428 -3.6217
v -46.6836 27.4349 -3.9793
v -42.8347 27.6732 -4.1978
v -38.8650 27.6720 -3.8038
v -34.3423 28.1324 -4.8123
v -31.3553 27.6902 -5.4184
v -27.7083 27.6693 -5.4830
v -8.9631 25.9037 -7.2144
v -7.7871 27.4115 -5.6824
v -45.9893 31.6732 -4.1954
v -42.8347 31.6732 -4.7462
v -38.9391 31.6231 -5.6462
v -34.6522 30.1402 -4.9985
v -30.7636 30.4755 -5.1001
v -27.6005 30.4130 -5.3843
v -9.1675 33.3147 -7.0790
v -7.9010 31.8581 -5.6011
v -46.3566 35.6732 -4.5474
v -42.8347 35.6732 -5.6480
v -39.9588 35.6732 -6.4848
v -9.9951 35.6419 -5.6011
v -8.4046 34.2876 -4.4123
v -45.7393 38.3684 -4.1177
v -42.7329 39.6903 -4.4908
v -39.7553 39.6732 -6.2173
v -33.4615 41.1455 -5.3843
v -31.0168 40.9906 -5.3341
v -27.9929 41.2392 -3.9674
v -11.3054 39.6732 -5.3843
v -41.3317 42.8519 -3.6869
v -38.7764 43.2311 -5.1658
v -35.4615 42.7365 -5.3843
v -29.8049 42.6622 -6.6341
v -26.9506 43.6927 -5.3016
v -23.7168 44.7231 -3.9691
v -17.8771 44.9009 -5.3843
v -15.0749 44.5050 -5.3656
v -11.0146 43.4188 -5.5289
v -8.4819 44.7484 -7.0380
v -25.9084 46.2918 -6.6358
v -22.5640 46.3731 -5.3352
v -19.8771 46.0840 -5.3843
v -13.9017 46.2752 -6.6865
v -10.8347 46.7202 -6.6012
v -8.4819 46.4672 -7.0380
v 15.0667 -46.3617 0.5593
v 17.1653 -46.4168 0.4650
v 19.2839 -46.4120 0.4712
v 10.7604 -42.8438 -0.1007
v 13.5061 -44.2370 -0.5980
v 17.1653 -44.3268 -1.1682
v 20.8364 -44.0319 -0.4124
v 24.9945 -43.1048 -1.3692
v 29.1653 -44.0563 -1.3843
v 32.9918 -43.3676 -1.1658
v 37.1653 -43.0463 0.0225
v 41.1653 -42.9653 -0.2118
v 45.1653 -42.7045 0.0617
v 47.2226 -42.3881 0.4920
v 10.3150 -40.1791 -1.4141
v 13.1748 -40.1791 -2.7674
v 17.0470 -40.4990 -2.8941
v 21.1653 -41.6622 -2.5610
v 23.5473 -41.8203 -2.6925
v 34.2095 -41.0349 -2.3535
v 37.1624 -39.9516 -2.1490
v 40.8126 -40.3024 -2.3365
v 45.1653 -41.0953 -1.9383
v 48.4944 -40.1660 -1.0585
v 9.4428 -36.3268 -1.3843
v 14.5145 -37.9543 -3.0564
v 15.6348 -37.9543 -3.0564
v 38.4938 -38.2421 -3.2012
v 39.2441 -38.2421 -3.2012
v 50.6876 -36.6850 -1.1747
v 51.4803 -35.5905 -2.3684
v 9.9318 -32.1575 -1.5996
v 11.5957 -30.7113 -3.0766
v 18.7175 -31.1205 -2.8684
v 21.1653 -31.5121 -2.4631
v 24.3164 -31.1134 -2.6719
v 30.0407 -30.8722 -2.8335
v 32.3955 -30.8722 -2.8335
v 50.8779 -34.0858 0.2983
v 52.0321 -32.5822 -1.1747
v 10.3939 -29.5942 -0.4099
v 11.9375 -28.2872 -1.5996
v 18.7175 -29.8797 -2.8684
v 21.1653 -29.2595 -2.4631
v 24.3164 -29.3509 -2.6719
v 30.0407 -29.7536 -2.8335
v 32.3955 -29.7536 -2.8335
v 52.4788 -28.3268 -1.3843
v 10.8930 -23.5359 -3.0391
v 12.1604 -24.6523 -1.5772
v 46.7959 -23.0144 -0.0447
v 49.0512 -23.7078 -1.3805
v 51.6316 -25.5374 -1.3843
v 10.8930 -21.9560 -3.0391
v 13.4106 -20.3326 -1.5391
v 15.5754 -18.7093 -0.0392
v 26.7994 -18.6021 -1.3843
v 29.3208 -18.9400 -1.6209
v 32.4612 -18.9818 -0.4452
v 42.5851 -18.7151 0.1217
v 45.5074 -20.0689 -1.2948
v 47.6418 -21.4227 -2.7114
v 14.8540 -18.0904 -2.7058
v 16.7484 -16.5850 -1.3772
v 22.4224 -14.8027 -1.3843
v 24.7994 -16.8027 -1.3843
v 30.7578 -17.9164 -3.1119
v 33.5428 -17.6289 -1.6209
v 36.9976 -15.5296 -1.0312
v 41.3422 -15.8901 -1.0037
v 44.2189 -17.3626 -2.5449
v 18.8366 -13.9000 -1.3843
v 20.4224 -13.9000 -1.3843
v 38.2192 -13.9405 -2.1292
v 40.0992 -13.9405 -2.1292
v -45.1758 13.4735 0.3091
v -42.8347 13.2954 0.0628
v -40.4105 13.3691 0.1852
v -29.4271 13.4790 -2.7746
v -28.5589 13.4790 -2.7746
v -49.2199 17.1109 -0.2552
v -46.6394 15.7358 -0.8236
v -43.0743 15.8657 -2.1594
v -38.9537 16.1334 -1.0233
v -34.9579 16.7986 -1.0927
v -30.7901 14.6977 -1.4185
v -27.1919 15.2833 -1.1600
v -22.8347 16.2005 0.0268
v -18.8347 16.5559 -0.5763
v -14.8347 16.7032 -0.8004
v -12.3164 17.1170 -0.3073
v -49.4555 19.7207 -1.5068
v -46.8347 18.7312 -2.9534
v -44.5673 18.3380 -3.2722
v -37.4968 18.1144 -2.2317
v -36.3733 18.1144 -2.2317
v -25.8249 18.7147 -2.2120
v -22.8347 19.2463 -1.9732
v -18.8347 18.8870 -2.5763
v -14.8347 18.4295 -2.8004
v -10.9237 19.3091 -1.5381
v -8.5435 21.3835 -1.3843
v -49.6803 23.6732 -1.3843
v -37.5519 25.2411 -2.9276
v -36.3892 25.2411 -2.9276
v -7.7946 23.6732 -1.3843
v -49.2739 27.4349 -1.2085
v -47.9162 28.6094 -2.4246
v -37.5519 26.3378 -2.9276
v -34.7922 27.9004 -3.0508
v -30.8347 29.0107 -2.9668
v -27.9500 29.0000 -3.0380
v -6.9640 27.6732 -1.3843
v -49.0887 29.9417 0.2421
v -47.4951 31.4343 -1.2085
v -33.1952 30.0240 -3.1739
v -30.8347 30.2561 -2.9668
v -27.9500 30.0996 -3.0380
v -6.9779 31.6732 -1.3843
v -46.6972 35.6732 -1.3843
v -13.4004 36.7700 -0.1611
v -10.9478 36.2369 -1.4504
v -8.0997 34.5552 -1.3843
v -45.6828 38.4641 -1.3843
v -43.4352 40.4641 -1.3843
v -33.3317 41.2908 -1.3843
v -30.8347 40.3562 -1.3843
v -26.7296 40.6666 -1.5000
v -24.2848 41.2417 -0.2439
v -14.1802 39.6732 -0.8099
v -12.3060 39.6732 -2.8099
v -41.4352 42.9639 -1.3843
v -38.8347 44.5135 -1.3843
v -35.3317 43.2227 -1.3843
v -25.3262 42.0565 -2.9106
v -22.6675 43.4827 -1.7334
v -19.1042 44.0915 -1.6875
v -15.1717 42.3997 -1.6586
v -12.6079 42.0892 -3.1749
v -21.0502 45.7411 -3.2230
v -20.6171 45.7411 -3.2230
v 15.0667 -46.3617 0.8312
v 17.1653 -46.4168 1.0403
v 19.2839 -46.4120 0.9664
v 10.7081 -42.9483 2.6157
v 13.5061 -44.9519 2.3450
v 17.1653 -45.5616 3.0403
v 21.0750 -44.1311 2.5148
v 24.9297 -42.9268 2.6842
v 29.1653 -43.8968 2.6157
v 33.1653 -43.8224 2.6157
v 37.1653 -43.4917 2.6157
v 41.1653 -43.7951 2.6157
v 45.0857 -43.0417 2.2693
v 47.2226 -42.3881 0.7051
v 9.4182 -40.3268 2.6157
v 22.8662 -42.1013 4.0632
v 23.4392 -42.1013 4.0632
v 46.5334 -40.3268 3.6455
v 47.8989 -40.3268 1.6455
v 6.9876 -35.1243 4.1980
v 8.2162 -36.4053 2.7651
v 47.0232 -36.3268 4.4279
v 48.6404 -36.3268 2.4279
v 6.9522 -32.3268 4.2055
v 8.1904 -32.3268 2.2055
v 47.0191 -34.0052 4.4149
v 49.4013 -32.7122 3.0133
v 51.6248 -31.4191 1.6117
v 7.0588 -29.8916 4.4865
v 9.1025 -29.1254 2.9382
v 12.1564 -27.1515 2.6157
v 42.6855 -26.6486 4.1798
v 45.1653 -27.1601 3.7259
v 49.2209 -28.4004 3.5815
v 51.7885 -28.3268 1.8859
v 13.7520 -24.3268 2.6157
v 42.6855 -25.6204 4.1798
v 45.0816 -24.3174 2.6892
v 49.1653 -25.4009 1.5760
v 51.5368 -25.7380 1.3133
v 14.7609 -21.6101 2.6157
v 16.2493 -19.6101 2.6157
v 26.8045 -18.6316 2.6157
v 29.1653 -19.3936 2.6157
v 33.5428 -19.2736 2.2346
v 37.1653 -19.3523 3.1339
v 41.2172 -19.6863 2.6114
v 44.0397 -21.4222 2.6157
v 18.3678 -16.2415 2.4880
v 21.3661 -15.1490 2.4880
v 24.8045 -16.9611 2.6157
v 35.1278 -18.3129 0.6472
v 37.1653 -17.3844 1.1339
v 39.9184 -17.0843 1.2751
v 19.0573 -14.1837 1.0695
v 20.1666 -14.1837 1.0695
v -45.1758 13.4735 1.7978
v -43.1294 13.2811 2.9250
v -40.1949 13.3329 2.6157
v -17.1482 13.5872 4.3435
v -16.7220 13.5872 4.3435
v -49.2199 17.1109 1.6412
v -46.8843 15.4205 3.0528
v -44.6591 13.7300 4.4645
v -38.1949 15.4682 2.6157
v -34.8347 16.4641 2.6157
v -30.8347 15.2814 2.6157
v -26.8347 14.9480 2.6157
v -22.8347 15.7170 2.6157
v -18.6228 15.1359 2.8524
v -14.9502 15.6932 2.8870
v -12.3164 17.1170 1.4304
v -49.8351 19.5407 2.8310
v -48.5928 18.1190 4.3078
v -24.9188 21.4887 4.5436
v -24.7591 21.4887 4.5436
v -13.1784 18.5109 4.0971
v -11.1215 20.0594 2.3867
v -8.7962 21.6079 0.6763
v -50.7769 23.6732 2.6157
v -24.9188 21.7868 4.5436
v -24.7591 21.7868 4.5436
v -10.2280 23.6732 3.4743
v -8.5218 23.6732 1.4743
v -53.1466 28.8624 4.3513
v -51.3715 27.5867 2.8571
v -9.6007 26.2731 4.3666
v -8.0908 27.6331 2.8663
v -53.1466 30.3024 4.3513
v -50.5871 30.4139 2.8571
v -47.2600 32.1272 2.6157
v -13.8907 32.4721 3.6111
v -10.8347 31.9345 3.3874
v -7.9881 31.4029 2.6359
v -45.3107 35.7445 2.7140
v -44.1940 37.1254 4.1129
v -14.5588 35.5313 2.4129
v -10.8347 34.4170 1.3874
v -8.2847 34.2348 1.3159
v -45.0610 38.0325 1.4462
v -42.6662 39.6422 2.8480
v -39.7661 41.2519 4.2498
v -33.8162 41.3860 2.6157
v -30.8347 39.9641 2.6157
v -26.8347 39.2732 2.6157
v -22.9048 40.3833 2.5671
v -18.8347 40.1296 3.2043
v -16.2623 39.3457 2.3353
v -41.1384 42.2155 1.5832
v -38.5935 42.6455 2.7962
v -35.8162 42.4819 2.6157
v -21.6181 42.2422 1.2013
v -18.8347 42.2261 1.2043
v -16.7298 41.8414 0.8150
v 15.1322 -46.3514 8.5026
v 15.3962 -46.3514 8.5026
v 10.9605 -42.6385 5.1741
v 13.4307 -44.2559 6.8384
v 16.9038 -45.5920 6.9479
v 21.3859 -44.0205 6.3438
v 24.9297 -43.8047 6.3438
v 29.1653 -44.8314 6.6157
v 33.1653 -43.8795 6.6157
v 36.8137 -42.7380 6.3711
v 41.1653 -43.1566 5.2809
v 43.6993 -43.0147 5.2438
v 9.7134 -40.4670 6.5508
v 11.7293 -41.8938 7.8408
v 22.8662 -42.1013 4.8292
v 23.4392 -42.1013 4.8292
v 37.6912 -40.3268 7.4586
v 41.1653 -40.3268 6.5922
v 44.5334 -40.3268 5.7493
v 6.8749 -35.7912 6.6157
v 7.5040 -37.7912 6.6157
v 38.4524 -37.6331 8.1474
v 41.1653 -37.4332 7.9270
v 44.8954 -36.4282 6.7457
v 6.5068 -32.3268 6.6157
v 42.2787 -30.7320 8.3281
v 45.2953 -32.3686 6.6100
v 47.9247 -31.3386 4.8918
v 6.7972 -29.4136 6.6157
v 9.0706 -27.4955 6.5568
v 11.6845 -26.8257 5.1841
v 41.7065 -28.1199 6.8432
v 45.1653 -29.1601 5.6071
v 47.9247 -29.7827 4.8918
v 10.3409 -25.4007 7.8508
v 12.5178 -24.1711 6.5568
v 34.8555 -22.7270 8.3143
v 37.1653 -23.3721 7.6425
v 41.0596 -24.4704 6.1908
v 43.3672 -22.9538 4.7620
v 14.4665 -22.0905 6.6157
v 17.3864 -20.2238 6.4564
v 21.1653 -19.1560 7.7272
v 25.3053 -18.7754 6.8643
v 29.1653 -19.4620 6.6157
v 33.3794 -20.9010 6.8349
v 37.1653 -21.3523 5.6425
v 41.1653 -21.7349 4.9783
v 43.3672 -22.0657 4.7620
v 18.8672 -17.5180 5.0169
v 21.1653 -17.3206 5.7272
v 24.0654 -17.7940 5.6966
v -44.9145 13.5633 7.6630
v -43.1294 13.4188 6.4441
v -38.9774 13.2832 6.6224
v -34.8347 13.4013 8.0707
v -30.8347 13.5306 8.0716
v -28.1583 13.5097 7.9615
v -17.1482 13.5872 4.7536
v -16.7220 13.5872 4.7536
v -45.8675 15.3073 6.4441
v -44.6591 13.7300 4.9963
v -37.7391 14.8003 5.2936
v -34.8347 14.9699 6.0707
v -30.8347 14.4134 6.0716
v -26.8289 14.6347 6.6232
v -22.8902 16.7602 6.2493
v -18.6228 16.0297 5.2295
v -16.0079 15.6732 5.3410
v -50.3710 20.3326 6.6157
v -48.0658 18.3326 6.6157
v -24.9188 21.4887 4.7251
v -23.0739 20.4513 6.2209
v -18.7121 19.9281 7.2948
v -14.9256 19.9712 6.4797
v -12.5932 21.1776 4.8479
v -52.0392 23.6732 6.6157
v -24.9188 21.7868 4.7251
v -23.0676 22.0669 6.4604
v -19.9636 22.3469 8.1957
v -14.3035 23.6732 6.8787
v -12.2280 23.6732 4.8787
v -53.1989 28.3457 6.6157
v -52.5029 26.3457 6.6157
v -17.4245 29.0183 8.0363
v -14.9069 27.6803 6.7915
v -10.8943 27.6331 4.7793
v -8.6990 28.9398 4.6826
v -53.1989 30.3829 6.6157
v -50.4584 32.0431 6.9956
v -47.8405 32.6767 5.9155
v -18.1899 31.6732 7.3425
v -15.0683 31.3525 5.2495
v -10.8347 29.9345 4.7314
v -8.6990 29.8893 4.6826
v -48.8742 33.6962 8.5822
v -46.5102 35.4108 6.8097
v -44.1940 37.1254 5.0373
v -25.6043 37.1537 8.0138
v -22.8347 36.3682 7.4367
v -19.1650 35.3409 6.5889
v -16.5656 35.6732 4.8098
v -45.1798 37.8794 7.7040
v -42.8503 38.4866 6.4687
v -38.5935 40.1477 6.2364
v -35.1532 40.5330 6.2364
v -30.8347 39.3882 6.6157
v -26.8965 38.2465 6.6546
v -22.8347 38.3844 5.4367
v -18.8347 38.1296 4.9208
v -16.7533 37.7940 4.6593
v -37.0994 41.7013 4.6503
v -36.6989 41.7013 4.6503
v 15.1248 -46.3598 10.6157
v 16.9038 -46.6366 10.3443
v 21.1653 -46.9512 11.2991
v 25.1653 -46.6163 11.9408
v 29.1653 -46.4619 11.8884
v 31.6670 -46.4811 11.9094
v 13.8753 -44.3268 10.6157
v 18.0629 -46.1224 8.8300
v 21.1653 -45.8690 9.2991
v 25.1653 -45.8317 9.9408
v 29.1653 -45.9520 9.8884
v 33.2784 -44.2496 10.4233
v 35.2461 -42.4182 8.9372
v 7.1191 -38.3699 11.8359
v 8.8114 -39.4265 10.5479
v 11.9158 -41.6691 10.6157
v 34.2577 -40.3268 11.2275
v 35.6912 -40.3268 9.2275
v 7.0374 -36.7508 10.6119
v 7.4709 -36.7508 10.6119
v 34.2308 -37.2750 11.7765
v 36.9570 -36.1207 10.4626
v 41.1653 -35.4332 9.2957
v 43.5715 -35.1624 8.9895
v 6.7198 -32.3268 9.5094
v 8.0848 -32.3268 11.5094
v 38.1282 -33.1224 11.8153
v 40.7590 -31.9272 10.4024
v 43.5715 -33.3987 8.9895
v 6.6155 -28.2335 10.3492
v 7.7656 -28.2335 10.3492
v 38.1600 -27.6000 11.5436
v 39.6388 -28.6907 10.3725
v 6.4500 -25.6376 11.6634
v 9.0706 -24.9671 10.4443
v 13.0109 -23.3495 10.6368
v 15.9622 -22.9417 11.9841
v 30.2718 -23.1974 11.8794
v 33.3794 -23.6333 10.5739
v 36.9621 -25.3070 10.3725
v 39.4337 -25.9870 8.8770
v 14.2413 -22.0165 9.3175
v 17.2434 -21.7175 10.6368
v 21.1653 -20.7318 10.6157
v 25.1653 -20.1642 10.6157
v 29.0292 -21.0701 10.5739
v 32.1889 -21.6941 9.2127
v -44.9145 13.5633 9.9373
v -43.2338 13.1268 11.0087
v -38.8347 12.1442 10.6157
v -34.8347 12.4332 10.6157
v -30.8347 12.9272 10.6157
v -26.8289 13.1662 10.5727
v -24.6371 13.4074 11.8774
v -45.5275 15.2754 11.0087
v -44.8331 13.6769 12.6040
v -25.3926 15.6468 10.7232
v -24.4488 15.6468 10.7232
v -52.8515 21.6507 12.3787
v -51.1340 20.6415 10.8735
v -47.6408 18.4005 10.6157
v -25.3350 19.6732 12.1476
v -23.8101 19.6732 10.1476
v -17.2970 21.4314 8.7194
v -16.6728 21.4314 8.7194
v -52.8515 21.7138 12.3787
v -51.8790 23.2976 10.8735
v -25.0430 21.8469 12.3715
v -22.7595 22.9424 10.8692
v -19.0127 23.9773 10.2125
v -16.3035 23.6732 9.0108
v -53.0084 28.7140 8.8456
v -51.4427 27.4977 10.3537
v -21.3952 28.6231 12.1331
v -19.0765 27.4874 10.5860
v -16.2884 26.3517 9.0388
v -53.0996 31.6241 10.4613
v -51.7403 31.6241 10.4613
v -21.9160 31.6732 11.3305
v -20.1899 31.6732 9.3305
v -53.1908 34.0046 12.0771
v -50.4584 34.0427 10.6925
v -46.6418 35.6387 10.4757
v -42.8347 36.5863 11.4196
v -38.8347 37.3057 12.0205
v -34.8347 37.5583 12.3539
v -30.8347 36.9587 11.6589
v -26.8965 36.2921 10.4005
v -22.9634 34.4690 10.2771
v -20.7186 33.7861 8.7181
v -45.1798 37.8794 9.0491
v -42.8347 38.0060 9.4196
v -38.8347 38.0823 10.0205
v -34.8347 38.4625 10.3539
v -30.8347 38.4155 9.6589
v -28.2709 37.9184 8.9237
v 15.1444 -46.3462 12.6459
v 17.3952 -46.7453 14.2339
v 21.1653 -47.5242 14.6157
v 25.4142 -46.8933 14.3687
v 29.1653 -46.4619 13.0771
v 31.6670 -46.4811 12.9760
v 14.4772 -44.3268 13.2280
v 16.3330 -44.3268 15.2280
v 26.9135 -46.1004 15.5373
v 29.1653 -45.5705 15.0771
v 32.3461 -44.2577 14.4319
v 7.1191 -38.3699 12.6668
v 9.1653 -39.0262 13.1152
v 13.3463 -40.1638 14.6496
v 15.6725 -41.1114 16.0685
v 33.2850 -40.3268 14.6157
v 7.1191 -38.0198 12.6668
v 9.0859 -36.5426 13.3360
v 12.7311 -36.3268 15.4778
v 34.1854 -36.9083 14.6157
v 35.5897 -34.9083 14.6157
v 10.0294 -32.3760 14.5364
v 11.9943 -33.7421 15.8169
v 37.5897 -32.6862 14.6157
v 39.4411 -30.6862 14.6157
v 6.4500 -26.9226 13.7448
v 8.2604 -28.2843 14.8932
v 30.3653 -26.7125 16.0185
v 33.1653 -26.8026 15.8867
v 36.9621 -27.9391 14.7908
v 39.4411 -30.1556 14.6157
v 6.4500 -25.6376 13.7448
v 8.9170 -24.9478 14.8932
v 12.9856 -23.3302 14.5526
v 15.9622 -22.9417 13.1771
v 22.6287 -22.8808 16.1262
v 25.1653 -23.5854 15.4903
v 28.9852 -24.6575 14.4783
v 33.1653 -25.6597 13.8867
v 35.4934 -25.9001 13.5742
v 14.1992 -21.7586 15.8438
v 17.2434 -21.5962 14.5526
v 21.2433 -21.7068 14.7220
v 25.1653 -21.8541 13.4903
v 27.6052 -22.0805 12.9380
v -42.0242 12.9996 14.6157
v -38.8347 11.7338 14.6157
v -34.8347 11.8504 14.6157
v -30.7720 12.9782 14.7899
v -26.8347 13.1620 13.5944
v -24.6371 13.4074 12.9636
v -45.3595 16.3436 12.9424
v -43.7642 15.2754 14.4117
v -29.3969 14.0308 16.2394
v -26.7019 15.5975 14.6015
v -24.6371 14.4976 12.9636
v -52.8515 21.6507 12.6372
v -50.8347 21.0586 13.0705
v -46.7496 19.5950 13.8338
v -44.1491 19.6732 15.6996
v -36.9130 21.3495 16.3837
v -36.6743 21.3495 16.3837
v -25.6003 19.8940 14.5065
v -24.6971 21.3746 15.7671
v -52.8515 21.7138 12.6372
v -50.4588 23.2976 13.0183
v -46.7465 23.5009 15.2766
v -44.6241 22.0528 16.4009
v -36.9130 21.8197 16.3837
v -36.6743 21.8197 16.3837
v -25.0430 21.8469 13.1004
v -23.1521 23.3350 14.5065
v -20.7464 25.6201 14.6157
v -49.2690 27.8132 14.2545
v -48.0209 26.5732 15.3471
v -21.5525 27.9263 14.6157
v -20.7464 25.9263 14.6157
v -53.1908 33.2578 13.5444
v -51.3216 31.8240 14.7730
v -32.8636 33.6485 16.5977
v -30.8347 33.1826 16.0693
v -26.8347 32.7356 15.7601
v -23.5376 31.7008 14.7575
v -53.1908 34.0046 13.5444
v -50.9114 34.2036 14.7730
v -46.7348 35.7996 14.6752
v -42.8347 36.5863 13.6405
v -38.9483 36.9235 14.5761
v -34.4521 35.5255 15.0049
v -30.8347 34.9587 14.0693
v -26.8347 34.3364 13.7601
v -24.3826 34.0728 13.5187
v -45.3349 38.0521 16.0482
v -42.8347 38.1883 15.6405
v -40.3574 37.9811 15.8830
v 18.8817 -46.5327 17.7151
v 21.1653 -46.8998 17.8863
v 24.2468 -46.8849 17.2104
v 18.3330 -44.3268 18.0501
v 21.1653 -44.3268 18.8820
v 25.4142 -44.5910 17.6828
v 29.1653 -43.5705 17.3845
v 31.5737 -42.8782 16.9715
v 15.0907 -38.4448 16.6743
v 17.0696 -39.9976 17.6988
v 21.1653 -40.3268 18.5340
v 25.1653 -40.3268 18.3910
v 29.4963 -39.9476 19.3628
v 32.2542 -39.9476 18.4292
v 14.7311 -36.3268 16.8937
v 17.1653 -36.3268 18.0619
v 21.1653 -36.3268 18.2728
v 25.1976 -36.4030 19.1388
v 28.3836 -37.7871 20.1691
v 34.2200 -37.4472 18.6157
v 35.4728 -35.4472 18.6157
v 10.7127 -31.0755 17.2616
v 13.2627 -32.3760 17.9701
v 16.8112 -32.2307 19.5571
v 21.1101 -32.2307 19.1643
v 24.0721 -32.3268 19.3333
v 35.1404 -30.4341 20.5875
v 36.7036 -31.8889 18.6894
v 39.4590 -30.6771 16.7912
v 10.0155 -28.3268 17.5090
v 13.5610 -28.0574 19.7100
v 15.2418 -29.2111 20.5818
v 21.9546 -28.3268 19.5774
v 25.0584 -28.2529 19.2232
v 29.0853 -27.3112 18.4539
v 33.5503 -28.7343 18.9988
v 37.1653 -29.3872 17.7262
v 39.4590 -30.1587 16.7912
v 10.0848 -25.3685 17.1608
v 13.3453 -24.4690 18.8258
v 15.3499 -23.5695 20.4908
v 21.6830 -24.2592 18.6242
v 25.1653 -25.5854 17.4239
v 27.6987 -26.1176 17.0126
v 14.1992 -21.7586 17.8241
v 16.8761 -21.5100 18.9407
v 19.9541 -21.7320 18.6157
v -41.0889 13.4113 17.2580
v -38.8347 12.8876 17.7951
v -34.8347 12.8185 17.5397
v -32.0636 13.3193 16.9174
v -41.4978 15.6732 17.6221
v -38.8347 15.6732 18.4552
v -34.8347 15.6732 18.1560
v -30.7720 15.4877 17.5728
v -28.1102 16.6974 17.2677
v -42.1491 19.6732 17.8446
v -38.4817 19.8789 17.7071
v -35.1385 19.8789 17.4572
v -30.7596 19.8263 19.3401
v -26.8000 19.3662 18.6069
v -24.4208 21.0981 18.6157
v -45.3543 24.7194 16.9392
v -43.1083 23.5009 17.8153
v -38.4817 23.3611 17.9036
v -35.0402 23.3864 18.4746
v -32.0428 22.2863 19.8630
v -22.7856 24.0700 18.2196
v -20.8232 25.6679 16.6221
v -49.0801 29.2399 16.9608
v -46.7465 27.8132 17.4482
v -42.9009 27.6537 19.2833
v -38.9099 27.6537 19.0493
v -35.6023 27.6732 19.1050
v -24.8544 29.6145 20.5773
v -22.9346 27.6710 18.5997
v -20.8232 25.7275 16.6221
v -49.6146 31.6732 17.0601
v -46.8347 31.6732 18.4237
v -44.1420 31.6732 19.9793
v -38.0516 31.6732 19.1543
v -34.4086 31.8630 18.3081
v -30.8347 31.8068 18.6157
v -26.4465 30.7799 18.9927
v -23.8979 30.3858 17.9107
v -49.6292 33.9643 16.8632
v -46.7348 35.4479 18.0932
v -44.3072 35.6732 20.2770
v -38.4572 35.6175 18.5376
v -35.5303 34.2470 17.1521
v -45.3349 38.0521 17.7316
v -43.0331 38.2200 18.8852
v -40.2399 38.0725 18.6157
v 31.0503 -38.3615 20.6482
v 31.6103 -38.3615 20.6482
v 26.3892 -35.0272 22.6157
v 29.6486 -36.1271 22.5863
v 33.0323 -36.5269 21.4849
v 35.3056 -35.3269 20.7899
v 17.9085 -30.8333 21.0784
v 21.0203 -31.0760 22.3640
v 24.4375 -32.5219 22.4361
v 30.9136 -34.2427 24.5243
v 33.4685 -32.3384 22.6571
v 35.3056 -33.1008 20.7899
v 15.1582 -26.5444 20.6193
v 16.8112 -28.0574 21.0505
v 20.9600 -28.8777 22.2250
v 25.0584 -28.9936 22.4361
v 29.1653 -28.3189 22.6157
v 32.6201 -29.4495 22.6157
v 15.1582 -26.2362 20.6193
v 16.8761 -24.6725 20.9064
v 19.7148 -24.3268 20.9764
v 18.0166 -22.0015 20.8382
v 19.4203 -22.0015 20.8382
v -29.3761 21.2617 20.9983
v -26.8347 21.0134 21.2130
v -24.4205 21.2050 21.0295
v -33.7600 24.9621 22.6157
v -30.7596 23.1867 22.4452
v -26.8923 23.7556 22.8768
v -24.3765 23.6732 21.1552
v -41.6117 28.9740 21.1972
v -38.7913 28.9514 22.6973
v -35.4462 27.6266 22.7647
v -25.6105 28.0380 22.3990
v -24.6380 26.9479 20.9212
v -42.1420 31.6732 21.3053
v -38.8678 30.9124 22.5447
v -34.7060 30.3950 22.7647
v -30.8347 31.0378 22.6157
v -27.2324 30.3041 22.6157
v -42.3072 35.6732 21.0292
v -40.2208 35.6732 21.0292
v -41.8320 37.8976 20.8291
v -40.5190 37.8976 20.8291
v 26.7432 -34.4670 24.7615
v 28.2469 -34.4670 24.7615
v 22.3006 -31.3186 25.4200
v 25.3120 -32.5219 25.5159
v 29.4143 -32.6763 25.3399
v 31.7966 -31.5760 25.1267
v 22.3006 -29.6121 25.4200
v 25.1653 -29.2526 25.6316
v 29.1653 -29.3777 25.4116
v 31.7966 -29.7789 25.1267
v -33.4970 25.4452 24.8258
v -30.8347 25.1053 25.0512
v -28.2641 25.1439 24.9863
v -37.2893 28.9288 24.9606
v -34.8321 27.6266 25.3625
v -30.8347 27.6732 25.9196
v -27.7897 27.6732 25.2447
v -37.2893 29.8980 24.9606
v -34.8347 30.2722 25.3916
v -30.8347 30.4135 25.4841
v -28.0120 30.0865 25.0839
f 3 2 1
f 3 4 2
f 5 4 3
f 5 6 4
f 8 7 6
f 8 9 7
f 12 11 10
f 12 13 11
f 16 15 14
f 16 17 15
f 18 17 16
f 18 19 17
f 27 20 26
f 27 21 20
f 31 22 30
f 31 23 22
f 32 23 31
f 32 24 23
f 32 25 24
f 32 33 25
f 34 25 33
f 34 26 25
f 35 26 34
f 35 27 26
f 37 28 36
f 37 29 28
f 39 30 38
f 39 31 30
f 40 33 32
f 40 41 33
f 42 35 34
f 42 43 35
f 44 1 2
f 44 43 1
f 45 37 36
f 45 46 37
f 47 42 41
f 47 48 42
f 49 1 43
f 49 3 1
f 48 43 42
f 48 49 43
f 50 44 2
f 50 2 4
f 52 3 49
f 52 5 3
f 50 4 6
f 50 6 53
f 53 6 5
f 53 5 52
f 7 53 6
f 7 54 53
f 53 51 50
f 53 54 51
f 53 8 6
f 53 55 8
f 56 54 7
f 56 7 9
f 56 9 8
f 56 8 55
f 11 61 10
f 11 62 61
f 63 57 62
f 63 58 57
f 64 58 63
f 64 59 58
f 64 60 59
f 64 65 60
f 61 12 10
f 61 70 12
f 62 11 13
f 62 13 71
f 71 13 12
f 71 12 70
f 71 63 62
f 71 72 63
f 73 63 72
f 73 64 63
f 74 64 73
f 74 65 64
f 74 66 65
f 74 75 66
f 76 68 67
f 76 77 68
f 79 69 78
f 79 70 69
f 80 72 71
f 80 81 72
f 83 73 82
f 83 74 73
f 15 83 14
f 15 84 83
f 83 75 74
f 83 84 75
f 86 82 81
f 86 87 82
f 88 14 83
f 88 16 14
f 87 83 82
f 87 88 83
f 89 84 15
f 89 15 17
f 89 85 84
f 89 90 85
f 91 16 88
f 91 18 16
f 89 17 19
f 89 19 92
f 19 18 91
f 19 91 92
f 93 89 92
f 93 90 89
f 94 93 92
f 94 95 93
f 99 20 21
f 99 98 20
f 23 100 22
f 23 101 100
f 102 23 24
f 102 101 23
f 25 102 24
f 25 103 102
f 103 96 102
f 103 97 96
f 104 20 98
f 104 26 20
f 104 25 26
f 104 103 25
f 104 97 103
f 104 98 97
f 99 21 27
f 99 27 105
f 108 28 29
f 108 107 28
f 100 30 22
f 100 109 30
f 110 109 100
f 110 100 101
f 111 32 31
f 111 31 110
f 113 34 33
f 113 33 112
f 114 105 27
f 114 27 35
f 114 106 105
f 114 115 106
f 116 28 107
f 116 36 28
f 115 107 106
f 115 116 107
f 117 108 29
f 117 29 37
f 109 38 30
f 109 118 38
f 110 31 39
f 110 39 119
f 39 38 118
f 39 118 119
f 111 40 32
f 111 120 40
f 119 111 110
f 119 120 111
f 112 33 41
f 112 41 121
f 121 41 40
f 121 40 120
f 113 42 34
f 113 122 42
f 122 41 42
f 122 121 41
f 122 112 121
f 122 113 112
f 123 114 35
f 123 35 43
f 44 123 43
f 44 124 123
f 123 115 114
f 123 124 115
f 116 45 36
f 116 125 45
f 124 116 115
f 124 125 116
f 117 37 46
f 117 46 126
f 126 46 45
f 126 45 125
f 121 47 41
f 121 128 47
f 127 121 120
f 127 128 121
f 129 48 47
f 129 47 128
f 130 49 48
f 130 48 129
f 131 124 44
f 131 44 50
f 51 131 50
f 51 132 131
f 131 125 124
f 131 132 125
f 132 126 125
f 132 133 126
f 130 52 49
f 130 136 52
f 135 130 129
f 135 136 130
f 137 53 52
f 137 52 136
f 138 132 51
f 138 51 54
f 138 133 132
f 138 139 133
f 140 133 139
f 140 134 133
f 137 55 53
f 137 141 55
f 138 54 56
f 138 56 142
f 56 55 141
f 56 141 142
f 143 138 142
f 143 139 138
f 145 57 58
f 145 144 57
f 146 58 59
f 146 145 58
f 60 146 59
f 60 147 146
f 152 57 144
f 152 62 57
f 62 151 61
f 62 152 151
f 153 147 60
f 153 60 65
f 66 153 65
f 66 154 153
f 153 148 147
f 153 154 148
f 155 148 154
f 155 149 148
f 156 67 68
f 156 155 67
f 155 150 149
f 155 156 150
f 151 70 61
f 151 158 70
f 158 69 70
f 158 157 69
f 159 71 70
f 159 70 158
f 161 73 72
f 161 72 160
f 162 154 66
f 162 66 75
f 163 67 155
f 163 76 67
f 162 155 154
f 162 163 155
f 164 156 68
f 164 68 77
f 164 77 76
f 164 76 163
f 157 78 69
f 157 165 78
f 158 70 79
f 158 79 166
f 79 78 165
f 79 165 166
f 165 157 158
f 165 158 166
f 159 80 71
f 159 167 80
f 166 159 158
f 166 167 159
f 160 72 81
f 160 81 168
f 168 81 80
f 168 80 167
f 161 82 73
f 161 169 82
f 169 81 82
f 169 168 81
f 169 160 168
f 169 161 160
f 170 162 75
f 170 75 84
f 85 170 84
f 85 171 170
f 170 163 162
f 170 171 163
f 171 164 163
f 171 172 164
f 168 86 81
f 168 175 86
f 174 168 167
f 174 175 168
f 176 87 86
f 176 86 175
f 177 88 87
f 177 87 176
f 178 171 85
f 178 85 90
f 178 172 171
f 178 179 172
f 179 173 172
f 179 180 173
f 177 91 88
f 177 182 91
f 181 177 176
f 181 182 177
f 183 92 91
f 183 91 182
f 184 178 90
f 184 90 93
f 185 178 184
f 185 179 178
f 183 94 92
f 183 186 94
f 184 93 95
f 184 95 187
f 95 94 186
f 95 186 187
f 188 184 187
f 188 185 184
f 192 189 191
f 192 190 189
f 97 193 96
f 97 194 193
f 195 97 98
f 195 194 97
f 99 195 98
f 99 196 195
f 197 192 191
f 197 198 192
f 193 102 96
f 193 201 102
f 102 200 101
f 102 201 200
f 202 201 193
f 202 193 194
f 204 196 99
f 204 99 105
f 203 195 196
f 203 196 204
f 205 105 106
f 205 204 105
f 205 196 204
f 205 197 196
f 107 205 106
f 107 206 205
f 205 198 197
f 205 206 198
f 108 206 107
f 108 207 206
f 206 199 198
f 206 207 199
f 200 110 101
f 200 209 110
f 110 208 109
f 110 209 208
f 210 209 200
f 210 200 201
f 212 207 108
f 212 108 117
f 211 206 207
f 211 207 212
f 208 118 109
f 208 213 118
f 119 118 213
f 119 213 214
f 213 208 209
f 213 209 214
f 215 120 119
f 215 119 214
f 212 117 126
f 212 126 217
f 215 127 120
f 215 219 127
f 218 215 214
f 218 219 215
f 220 128 127
f 220 127 219
f 221 129 128
f 221 128 220
f 217 126 133
f 217 133 223
f 222 216 217
f 222 217 223
f 134 223 133
f 134 224 223
f 221 135 129
f 221 226 135
f 225 221 220
f 225 226 221
f 227 136 135
f 227 135 226
f 137 136 227
f 137 227 228
f 224 134 140
f 224 140 230
f 140 139 229
f 140 229 230
f 231 227 226
f 231 232 227
f 228 141 137
f 228 233 141
f 232 228 227
f 232 233 228
f 234 142 141
f 234 141 233
f 229 139 143
f 229 143 235
f 143 142 234
f 143 234 235
f 236 234 233
f 236 237 234
f 238 234 237
f 238 235 234
f 241 240 239
f 241 242 240
f 145 244 144
f 145 245 244
f 146 245 145
f 146 246 245
f 247 146 147
f 247 246 146
f 148 247 147
f 148 248 247
f 249 148 149
f 249 248 148
f 249 241 248
f 249 242 241
f 150 249 149
f 150 250 249
f 249 243 242
f 249 250 243
f 244 152 144
f 244 252 152
f 152 251 151
f 152 252 251
f 253 252 244
f 253 244 245
f 254 250 150
f 254 150 156
f 251 158 151
f 251 255 158
f 256 255 251
f 256 251 252
f 257 254 156
f 257 156 164
f 255 166 158
f 255 258 166
f 167 166 258
f 167 258 259
f 257 164 172
f 257 172 260
f 173 260 172
f 173 261 260
f 259 174 167
f 259 262 174
f 263 175 174
f 263 174 262
f 264 176 175
f 264 175 263
f 261 173 180
f 261 180 266
f 180 179 265
f 180 265 266
f 265 260 261
f 265 261 266
f 264 181 176
f 264 268 181
f 267 264 263
f 267 268 264
f 269 182 181
f 269 181 268
f 270 183 182
f 270 182 269
f 271 265 179
f 271 179 185
f 271 266 265
f 271 272 266
f 273 269 268
f 273 274 269
f 270 186 183
f 270 275 186
f 274 270 269
f 274 275 270
f 276 187 186
f 276 186 275
f 271 185 188
f 271 188 277
f 188 187 276
f 188 276 277
f 278 271 277
f 278 272 271
f 280 276 279
f 280 277 276
f 190 281 189
f 190 282 281
f 281 191 189
f 281 285 191
f 282 190 192
f 282 192 286
f 286 285 281
f 286 281 282
f 195 287 194
f 195 288 287
f 289 283 288
f 289 284 283
f 290 191 285
f 290 197 191
f 197 289 196
f 197 290 289
f 290 284 289
f 290 285 284
f 291 286 192
f 291 192 198
f 199 291 198
f 199 292 291
f 287 202 194
f 287 294 202
f 202 293 201
f 202 294 293
f 288 195 203
f 288 203 295
f 296 196 289
f 296 204 196
f 296 203 204
f 296 295 203
f 296 288 295
f 296 289 288
f 298 292 199
f 298 199 207
f 207 206 297
f 207 297 298
f 293 210 201
f 293 300 210
f 210 299 209
f 210 300 299
f 302 301 294
f 302 294 295
f 297 206 211
f 297 211 303
f 212 303 211
f 212 304 303
f 304 297 303
f 304 298 297
f 299 214 209
f 299 307 214
f 304 212 217
f 304 217 309
f 217 216 308
f 217 308 309
f 310 306 305
f 310 311 306
f 307 218 214
f 307 312 218
f 313 219 218
f 313 218 312
f 314 220 219
f 314 219 313
f 308 216 222
f 308 222 315
f 316 222 223
f 316 315 222
f 315 309 308
f 315 316 309
f 317 223 224
f 317 316 223
f 318 313 312
f 318 319 313
f 314 225 220
f 314 320 225
f 319 314 313
f 319 320 314
f 321 226 225
f 321 225 320
f 317 224 230
f 317 230 323
f 323 230 229
f 323 229 322
f 322 316 317
f 322 317 323
f 321 231 226
f 321 325 231
f 324 321 320
f 324 325 321
f 326 232 231
f 326 231 325
f 327 233 232
f 327 232 326
f 329 322 229
f 329 229 235
f 330 322 329
f 330 323 322
f 327 236 233
f 327 331 236
f 237 236 331
f 237 331 332
f 331 327 328
f 331 328 332
f 333 329 235
f 333 235 238
f 333 238 237
f 333 237 332
f 333 332 328
f 333 328 329
f 240 334 239
f 240 335 334
f 334 241 239
f 334 338 241
f 335 240 242
f 335 242 339
f 338 334 335
f 338 335 339
f 243 339 242
f 243 340 339
f 246 341 245
f 246 342 341
f 343 246 247
f 343 342 246
f 343 336 342
f 343 337 336
f 344 241 338
f 344 248 241
f 344 247 248
f 344 343 247
f 344 337 343
f 344 338 337
f 345 340 243
f 345 243 250
f 341 253 245
f 341 347 253
f 253 346 252
f 253 347 346
f 348 347 341
f 348 341 342
f 349 345 250
f 349 250 254
f 346 256 252
f 346 352 256
f 256 351 255
f 256 352 351
f 353 347 348
f 353 348 354
f 355 349 254
f 355 254 257
f 356 349 355
f 356 350 349
f 351 258 255
f 351 357 258
f 358 259 258
f 358 258 357
f 359 355 257
f 359 257 260
f 358 262 259
f 358 361 262
f 360 358 357
f 360 361 358
f 362 263 262
f 362 262 361
f 363 359 260
f 363 260 265
f 364 265 266
f 364 363 265
f 366 360 365
f 366 361 360
f 362 267 263
f 362 367 267
f 368 268 267
f 368 267 367
f 364 266 272
f 364 272 372
f 371 363 364
f 371 364 372
f 368 273 268
f 368 373 273
f 374 274 273
f 374 273 373
f 375 275 274
f 375 274 374
f 376 276 275
f 376 275 375
f 375 369 370
f 375 370 376
f 372 272 278
f 372 278 378
f 278 277 377
f 278 377 378
f 379 276 376
f 379 279 276
f 377 277 280
f 377 280 380
f 280 279 379
f 280 379 380
f 379 376 377
f 379 377 380
f 389 381 388
f 389 382 381
f 389 383 382
f 389 390 383
f 391 283 284
f 391 390 283
f 392 284 285
f 392 391 284
f 286 392 285
f 286 393 392
f 395 385 384
f 395 396 385
f 398 386 397
f 398 387 386
f 399 387 398
f 399 388 387
f 399 389 388
f 399 400 389
f 401 283 390
f 401 288 283
f 401 287 288
f 401 400 287
f 401 389 400
f 401 390 389
f 403 402 391
f 403 391 392
f 404 393 286
f 404 286 291
f 292 404 291
f 292 405 404
f 404 394 393
f 404 405 394
f 407 396 395
f 407 408 396
f 409 396 408
f 409 397 396
f 410 397 409
f 410 398 397
f 410 399 398
f 410 411 399
f 412 287 400
f 412 294 287
f 412 293 294
f 412 411 293
f 411 400 399
f 411 412 400
f 413 295 294
f 413 294 412
f 414 405 292
f 414 292 298
f 414 406 405
f 414 415 406
f 416 409 408
f 416 417 409
f 419 293 411
f 419 300 293
f 419 299 300
f 419 418 299
f 412 294 301
f 412 301 420
f 413 302 295
f 413 421 302
f 302 420 301
f 302 421 420
f 422 414 298
f 422 298 304
f 423 414 422
f 423 415 414
f 306 424 305
f 306 425 424
f 426 416 425
f 426 417 416
f 427 299 418
f 427 307 299
f 426 418 417
f 426 427 418
f 422 304 309
f 422 309 428
f 429 422 428
f 429 423 422
f 430 305 424
f 430 310 305
f 425 306 311
f 425 311 431
f 311 310 430
f 311 430 431
f 431 426 425
f 431 432 426
f 427 312 307
f 427 433 312
f 433 426 432
f 433 427 426
f 428 309 316
f 428 316 437
f 438 432 431
f 438 439 432
f 433 318 312
f 433 440 318
f 439 433 432
f 439 440 433
f 441 319 318
f 441 318 440
f 442 320 319
f 442 319 441
f 441 434 435
f 441 435 442
f 447 437 316
f 447 316 322
f 447 446 436
f 447 436 437
f 448 322 323
f 448 447 322
f 449 440 439
f 449 450 440
f 451 320 442
f 451 324 320
f 452 325 324
f 452 324 451
f 451 442 443
f 451 443 452
f 326 325 452
f 326 452 453
f 452 443 444
f 452 444 453
f 454 327 326
f 454 326 453
f 328 327 454
f 328 454 455
f 455 454 445
f 455 445 446
f 456 329 328
f 456 328 455
f 455 446 447
f 455 447 456
f 448 323 330
f 448 330 457
f 330 329 456
f 330 456 457
f 456 447 448
f 456 448 457
f 464 458 463
f 464 459 458
f 467 461 460
f 467 468 461
f 470 462 469
f 470 463 462
f 470 464 463
f 470 471 464
f 472 336 337
f 472 471 336
f 473 337 338
f 473 472 337
f 339 473 338
f 339 474 473
f 340 474 339
f 340 475 474
f 478 465 477
f 478 466 465
f 479 466 478
f 479 467 466
f 479 468 467
f 479 480 468
f 481 468 480
f 481 469 468
f 481 470 469
f 481 482 470
f 483 336 471
f 483 342 336
f 483 470 482
f 483 471 470
f 484 475 340
f 484 340 345
f 484 476 475
f 484 485 476
f 486 478 477
f 486 487 478
f 487 479 478
f 487 488 479
f 488 480 479
f 488 489 480
f 491 346 347
f 491 490 346
f 491 481 490
f 491 482 481
f 483 348 342
f 483 492 348
f 492 482 491
f 492 483 482
f 493 484 345
f 493 345 349
f 350 493 349
f 350 494 493
f 493 485 484
f 493 494 485
f 495 488 487
f 495 496 488
f 496 489 488
f 496 497 489
f 498 346 490
f 498 352 346
f 352 497 351
f 352 498 497
f 498 489 497
f 498 490 489
f 491 347 353
f 491 353 499
f 498 490 491
f 498 491 499
f 492 354 348
f 492 500 354
f 500 353 354
f 500 499 353
f 494 350 356
f 494 356 502
f 356 355 501
f 356 501 502
f 504 495 503
f 504 496 495
f 505 351 497
f 505 357 351
f 505 496 504
f 505 497 496
f 501 355 359
f 501 359 506
f 507 501 506
f 507 502 501
f 508 504 503
f 508 509 504
f 505 360 357
f 505 510 360
f 510 504 509
f 510 505 504
f 362 361 511
f 362 511 512
f 506 359 363
f 506 363 514
f 510 365 360
f 510 516 365
f 515 510 509
f 515 516 510
f 511 361 366
f 511 366 517
f 517 366 365
f 517 365 516
f 518 362 512
f 518 367 362
f 368 367 518
f 368 518 519
f 518 512 513
f 518 513 519
f 370 369 521
f 370 521 522
f 514 363 371
f 514 371 523
f 524 371 372
f 524 523 371
f 525 368 519
f 525 373 368
f 374 373 525
f 374 525 526
f 525 519 520
f 525 520 526
f 527 521 369
f 527 369 375
f 527 375 374
f 527 374 526
f 528 370 522
f 528 376 370
f 377 376 528
f 377 528 529
f 528 522 523
f 528 523 529
f 524 372 378
f 524 378 530
f 378 377 529
f 378 529 530
f 529 523 524
f 529 524 530
f 536 531 535
f 536 532 531
f 536 533 532
f 536 537 533
f 539 381 382
f 539 538 381
f 383 539 382
f 383 540 539
f 546 384 385
f 546 545 384
f 546 534 545
f 546 535 534
f 547 535 546
f 547 536 535
f 548 386 387
f 548 547 386
f 548 536 547
f 548 537 536
f 549 381 538
f 549 388 381
f 549 387 388
f 549 548 387
f 549 537 548
f 549 538 537
f 550 540 383
f 550 383 390
f 391 550 390
f 391 551 550
f 550 541 540
f 550 551 541
f 552 541 551
f 552 542 541
f 553 392 393
f 553 552 392
f 553 542 552
f 553 543 542
f 394 553 393
f 394 554 553
f 553 544 543
f 553 554 544
f 555 384 545
f 555 395 384
f 556 546 385
f 556 385 396
f 557 386 547
f 557 397 386
f 397 556 396
f 397 557 556
f 557 546 556
f 557 547 546
f 558 551 391
f 558 391 402
f 559 392 552
f 559 403 392
f 403 558 402
f 403 559 558
f 559 551 558
f 559 552 551
f 560 554 394
f 560 394 405
f 406 560 405
f 406 561 560
f 555 407 395
f 555 562 407
f 563 408 407
f 563 407 562
f 410 409 564
f 410 564 565
f 566 411 410
f 566 410 565
f 413 412 567
f 413 567 568
f 561 406 415
f 561 415 570
f 569 560 561
f 569 561 570
f 563 416 408
f 563 572 416
f 571 563 562
f 571 572 563
f 573 564 409
f 573 409 417
f 418 573 417
f 418 574 573
f 573 565 564
f 573 574 565
f 566 419 411
f 566 575 419
f 419 574 418
f 419 575 574
f 574 566 565
f 574 575 566
f 567 412 420
f 567 420 576
f 568 421 413
f 568 577 421
f 421 576 420
f 421 577 576
f 576 568 567
f 576 577 568
f 578 570 415
f 578 415 423
f 580 416 572
f 580 425 416
f 425 579 424
f 425 580 579
f 578 423 429
f 578 429 583
f 429 428 582
f 429 582 583
f 584 424 579
f 584 430 424
f 431 430 584
f 431 584 585
f 584 579 580
f 584 580 585
f 435 434 587
f 435 587 588
f 592 582 428
f 592 428 437
f 592 437 436
f 592 436 591
f 592 591 581
f 592 581 582
f 585 438 431
f 585 593 438
f 594 439 438
f 594 438 593
f 593 585 586
f 593 586 594
f 596 587 434
f 596 434 441
f 596 441 440
f 596 440 595
f 597 435 588
f 597 442 435
f 443 442 597
f 443 597 598
f 597 588 589
f 597 589 598
f 444 443 598
f 444 598 599
f 601 591 436
f 601 436 446
f 601 446 445
f 601 445 600
f 601 600 590
f 601 590 591
f 594 449 439
f 594 602 449
f 595 440 450
f 595 450 603
f 450 449 602
f 450 602 603
f 604 444 599
f 604 453 444
f 605 600 445
f 605 445 454
f 605 454 453
f 605 453 604
f 605 604 599
f 605 599 600
f 459 609 458
f 459 610 609
f 613 606 612
f 613 607 606
f 461 613 460
f 461 614 613
f 613 608 607
f 613 614 608
f 609 463 458
f 609 616 463
f 616 462 463
f 616 615 462
f 610 459 464
f 610 464 617
f 616 609 610
f 616 610 617
f 623 465 466
f 623 622 465
f 623 611 622
f 623 612 611
f 624 460 613
f 624 467 460
f 624 466 467
f 624 623 466
f 624 612 623
f 624 613 612
f 625 614 461
f 625 461 468
f 626 462 615
f 626 469 462
f 626 468 469
f 626 625 468
f 625 615 614
f 625 626 615
f 627 617 464
f 627 464 471
f 472 627 471
f 472 628 627
f 627 618 617
f 627 628 618
f 629 472 473
f 629 628 472
f 628 619 618
f 628 629 619
f 630 473 474
f 630 629 473
f 629 620 619
f 629 630 620
f 475 630 474
f 475 631 630
f 630 621 620
f 630 631 621
f 476 631 475
f 476 632 631
f 633 465 622
f 633 477 465
f 635 481 480
f 635 480 634
f 636 632 476
f 636 476 485
f 633 486 477
f 633 637 486
f 638 487 486
f 638 486 637
f 634 480 489
f 634 489 639
f 635 490 481
f 635 640 490
f 490 639 489
f 490 640 639
f 639 635 634
f 639 640 635
f 641 491 490
f 641 490 640
f 492 491 641
f 492 641 642
f 643 636 485
f 643 485 494
f 638 495 487
f 638 645 495
f 644 638 637
f 644 645 638
f 646 640 490
f 646 490 498
f 499 646 498
f 499 647 646
f 646 641 640
f 646 647 641
f 642 500 492
f 642 648 500
f 648 499 500
f 648 647 499
f 648 641 647
f 648 642 641
f 643 494 502
f 643 502 649
f 650 495 645
f 650 503 495
f 649 502 507
f 649 507 653
f 507 506 652
f 507 652 653
f 650 508 503
f 650 654 508
f 655 509 508
f 655 508 654
f 512 511 656
f 512 656 657
f 513 512 657
f 513 657 658
f 652 506 514
f 652 514 661
f 661 660 651
f 661 651 652
f 655 515 509
f 655 662 515
f 663 516 515
f 663 515 662
f 656 511 517
f 656 517 664
f 664 517 516
f 664 516 663
f 665 513 658
f 665 519 513
f 520 519 665
f 520 665 666
f 665 658 659
f 665 659 666
f 668 522 521
f 668 521 667
f 669 661 514
f 669 514 523
f 669 523 522
f 669 522 668
f 669 668 660
f 669 660 661
f 670 520 666
f 670 526 520
f 671 667 521
f 671 521 527
f 527 526 670
f 527 670 671
f 670 666 667
f 670 667 671
f 532 672 531
f 532 673 672
f 674 532 533
f 674 673 532
f 676 531 672
f 676 535 531
f 676 534 535
f 676 675 534
f 677 676 672
f 677 672 673
f 674 533 537
f 674 537 678
f 677 673 674
f 677 674 678
f 679 537 538
f 679 678 537
f 680 538 539
f 680 679 538
f 540 680 539
f 540 681 680
f 541 681 540
f 541 682 681
f 683 541 542
f 683 682 541
f 684 542 543
f 684 683 542
f 685 543 544
f 685 684 543
f 686 534 675
f 686 545 534
f 687 678 679
f 687 679 688
f 690 685 544
f 690 544 554
f 689 684 685
f 689 685 690
f 686 555 545
f 686 692 555
f 694 690 554
f 694 554 560
f 694 693 689
f 694 689 690
f 696 555 692
f 696 562 555
f 696 691 695
f 696 692 691
f 694 560 569
f 694 569 698
f 697 693 694
f 697 694 698
f 699 569 570
f 699 698 569
f 696 571 562
f 696 701 571
f 700 696 695
f 700 701 696
f 702 572 571
f 702 571 701
f 699 570 578
f 699 578 706
f 705 698 699
f 705 699 706
f 702 580 572
f 702 707 580
f 708 703 704
f 708 704 709
f 710 582 581
f 710 581 709
f 710 709 704
f 710 704 705
f 711 706 578
f 711 578 583
f 583 582 710
f 583 710 711
f 710 705 706
f 710 706 711
f 707 585 580
f 707 712 585
f 586 585 712
f 586 712 713
f 715 588 587
f 715 587 714
f 589 588 715
f 589 715 716
f 719 709 581
f 719 581 591
f 719 591 590
f 719 590 718
f 720 586 713
f 720 594 586
f 722 714 587
f 722 587 596
f 722 596 595
f 722 595 721
f 723 589 716
f 723 598 589
f 599 598 723
f 599 723 724
f 723 716 717
f 723 717 724
f 725 718 590
f 725 590 600
f 725 600 599
f 725 599 724
f 725 724 717
f 725 717 718
f 726 594 720
f 726 602 594
f 727 721 595
f 727 595 603
f 727 603 602
f 727 602 726
f 726 720 721
f 726 721 727
f 607 728 606
f 607 729 728
f 730 607 608
f 730 729 607
f 728 612 606
f 728 734 612
f 612 733 611
f 612 734 733
f 735 734 728
f 735 728 729
f 736 730 608
f 736 608 614
f 615 736 614
f 615 737 736
f 738 615 616
f 738 737 615
f 617 738 616
f 617 739 738
f 618 739 617
f 618 740 739
f 741 618 619
f 741 740 618
f 742 619 620
f 742 741 619
f 741 732 731
f 741 742 732
f 743 620 621
f 743 742 620
f 744 611 733
f 744 622 611
f 745 744 733
f 745 733 734
f 743 621 631
f 743 631 749
f 748 742 743
f 748 743 749
f 750 631 632
f 750 749 631
f 751 622 744
f 751 633 622
f 752 746 747
f 752 747 753
f 750 632 636
f 750 636 755
f 754 749 750
f 754 750 755
f 751 637 633
f 751 757 637
f 755 636 643
f 755 643 759
f 758 754 755
f 758 755 759
f 757 644 637
f 757 761 644
f 761 756 760
f 761 757 756
f 762 645 644
f 762 644 761
f 765 759 643
f 765 643 649
f 762 650 645
f 762 766 650
f 769 652 651
f 769 651 768
f 769 768 763
f 769 763 764
f 770 765 649
f 770 649 653
f 653 652 769
f 653 769 770
f 770 769 764
f 770 764 765
f 771 650 766
f 771 654 650
f 655 654 771
f 655 771 772
f 771 766 767
f 771 767 772
f 775 657 656
f 775 656 774
f 776 658 657
f 776 657 775
f 659 658 776
f 659 776 777
f 779 768 651
f 779 651 660
f 780 655 772
f 780 662 655
f 663 662 780
f 663 780 781
f 780 772 773
f 780 773 781
f 774 656 664
f 774 664 782
f 664 663 781
f 664 781 782
f 783 659 777
f 783 666 659
f 667 666 783
f 667 783 784
f 783 777 778
f 783 778 784
f 785 779 660
f 785 660 668
f 785 668 667
f 785 667 784
f 785 784 778
f 785 778 779
f 676 788 675
f 676 789 788
f 677 789 676
f 677 790 789
f 790 786 789
f 790 787 786
f 791 677 678
f 791 790 677
f 680 792 679
f 680 793 792
f 794 680 681
f 794 793 680
f 795 681 682
f 795 794 681
f 796 682 683
f 796 795 682
f 797 683 684
f 797 796 683
f 788 686 675
f 788 798 686
f 799 798 788
f 799 788 789
f 791 678 687
f 791 687 800
f 801 679 792
f 801 688 679
f 688 800 687
f 688 801 800
f 800 792 791
f 800 801 792
f 803 802 795
f 803 795 796
f 797 684 689
f 797 689 804
f 803 796 797
f 803 797 804
f 806 686 798
f 806 692 686
f 806 691 692
f 806 805 691
f 807 802 803
f 807 803 808
f 804 689 693
f 804 693 809
f 808 803 804
f 808 804 809
f 810 691 805
f 810 695 691
f 809 693 697
f 809 697 812
f 813 697 698
f 813 812 697
f 810 700 695
f 810 814 700
f 815 701 700
f 815 700 814
f 816 702 701
f 816 701 815
f 818 704 703
f 818 703 817
f 818 817 811
f 818 811 812
f 813 698 705
f 813 705 819
f 819 705 704
f 819 704 818
f 818 812 813
f 818 813 819
f 816 707 702
f 816 821 707
f 820 816 815
f 820 821 816
f 824 817 703
f 824 703 708
f 825 708 709
f 825 824 708
f 826 707 821
f 826 712 707
f 827 713 712
f 827 712 826
f 830 715 714
f 830 714 829
f 831 716 715
f 831 715 830
f 832 717 716
f 832 716 831
f 832 831 822
f 832 822 823
f 833 718 717
f 833 717 832
f 832 823 824
f 832 824 833
f 825 709 719
f 825 719 834
f 719 718 833
f 719 833 834
f 833 824 825
f 833 825 834
f 835 713 827
f 835 720 713
f 721 720 835
f 721 835 836
f 835 827 828
f 835 828 836
f 837 829 714
f 837 714 722
f 722 721 836
f 722 836 837
f 837 836 828
f 837 828 829
f 730 839 729
f 730 840 839
f 732 844 731
f 732 845 844
f 839 735 729
f 839 847 735
f 735 846 734
f 735 847 846
f 847 838 846
f 847 839 838
f 848 840 730
f 848 730 736
f 737 848 736
f 737 849 848
f 848 841 840
f 848 849 841
f 738 849 737
f 738 850 849
f 850 841 849
f 850 842 841
f 739 850 738
f 739 851 850
f 850 843 842
f 850 851 843
f 852 739 740
f 852 851 739
f 844 741 731
f 844 853 741
f 853 740 741
f 853 852 740
f 854 845 732
f 854 732 742
f 854 853 844
f 854 844 845
f 846 745 734
f 846 856 745
f 745 855 744
f 745 856 855
f 747 746 857
f 747 857 858
f 859 858 852
f 859 852 853
f 854 742 748
f 854 748 860
f 859 853 854
f 859 854 860
f 861 748 749
f 861 860 748
f 855 751 744
f 855 862 751
f 857 746 752
f 857 752 863
f 864 747 858
f 864 753 747
f 753 863 752
f 753 864 863
f 864 857 863
f 864 858 857
f 865 864 858
f 865 858 859
f 861 749 754
f 861 754 867
f 866 860 861
f 866 861 867
f 869 751 862
f 869 757 751
f 869 756 757
f 869 868 756
f 867 754 758
f 867 758 872
f 871 866 867
f 871 867 872
f 873 758 759
f 873 872 758
f 874 756 868
f 874 760 756
f 875 761 760
f 875 760 874
f 876 762 761
f 876 761 875
f 878 877 870
f 878 870 871
f 879 764 763
f 879 763 878
f 879 878 871
f 879 871 872
f 880 873 759
f 880 759 765
f 880 765 764
f 880 764 879
f 879 872 873
f 879 873 880
f 876 766 762
f 876 882 766
f 881 876 875
f 881 882 876
f 883 767 766
f 883 766 882
f 887 878 763
f 887 763 768
f 887 886 877
f 887 877 878
f 889 767 883
f 889 772 767
f 888 883 882
f 888 889 883
f 773 772 889
f 773 889 890
f 892 775 774
f 892 774 891
f 776 775 892
f 776 892 893
f 894 777 776
f 894 776 893
f 894 893 884
f 894 884 885
f 778 777 894
f 778 894 895
f 894 885 886
f 894 886 895
f 896 887 768
f 896 768 779
f 896 779 778
f 896 778 895
f 895 886 887
f 895 887 896
f 897 773 890
f 897 781 773
f 898 891 774
f 898 774 782
f 782 781 897
f 782 897 898
f 897 890 891
f 897 891 898
f 787 899 786
f 787 900 899
f 905 786 899
f 905 789 786
f 906 900 787
f 906 787 790
f 791 906 790
f 791 907 906
f 906 901 900
f 906 907 901
f 792 907 791
f 792 908 907
f 908 901 907
f 908 902 901
f 793 908 792
f 793 909 908
f 908 903 902
f 908 909 903
f 794 909 793
f 794 910 909
f 909 904 903
f 909 910 904
f 911 794 795
f 911 910 794
f 905 799 789
f 905 914 799
f 799 913 798
f 799 914 913
f 911 795 802
f 911 802 916
f 915 910 911
f 915 911 916
f 913 806 798
f 913 918 806
f 918 805 806
f 918 917 805
f 918 912 917
f 918 913 912
f 916 802 807
f 916 807 920
f 919 915 916
f 919 916 920
f 921 807 808
f 921 920 807
f 922 808 809
f 922 921 808
f 923 805 917
f 923 810 805
f 923 917 918
f 923 918 924
f 925 920 921
f 925 921 926
f 927 922 809
f 927 809 812
f 927 812 811
f 927 811 926
f 927 926 921
f 927 921 922
f 923 814 810
f 923 928 814
f 929 815 814
f 929 814 928
f 929 928 923
f 929 923 924
f 931 926 811
f 931 811 817
f 929 820 815
f 929 933 820
f 932 929 928
f 932 933 929
f 934 821 820
f 934 820 933
f 938 823 822
f 938 822 937
f 939 931 817
f 939 817 824
f 939 824 823
f 939 823 938
f 939 938 930
f 939 930 931
f 940 821 934
f 940 826 821
f 827 826 940
f 827 940 941
f 940 934 935
f 940 935 941
f 828 827 941
f 828 941 942
f 943 829 828
f 943 828 942
f 830 829 943
f 830 943 944
f 945 937 822
f 945 822 831
f 945 831 830
f 945 830 944
f 945 944 936
f 945 936 937
f 947 838 839
f 947 946 838
f 840 947 839
f 840 948 947
f 841 948 840
f 841 949 948
f 950 841 842
f 950 949 841
f 843 950 842
f 843 951 950
f 953 838 946
f 953 846 838
f 954 953 946
f 954 946 947
f 951 843 851
f 951 851 955
f 956 851 852
f 956 955 851
f 955 952 951
f 955 956 952
f 959 846 953
f 959 856 846
f 959 855 856
f 959 958 855
f 961 956 852
f 961 852 858
f 960 955 956
f 960 956 961
f 963 859 860
f 963 962 859
f 958 862 855
f 958 965 862
f 965 957 964
f 965 958 957
f 961 858 864
f 961 864 967
f 966 960 961
f 966 961 967
f 962 865 859
f 962 968 865
f 865 967 864
f 865 968 967
f 963 860 866
f 963 866 969
f 969 968 962
f 969 962 963
f 965 869 862
f 965 971 869
f 869 970 868
f 869 971 970
f 974 969 866
f 974 866 871
f 974 871 870
f 974 870 973
f 974 973 968
f 974 968 969
f 970 874 868
f 970 975 874
f 976 875 874
f 976 874 975
f 976 975 970
f 976 970 971
f 978 973 870
f 978 870 877
f 978 977 972
f 978 972 973
f 976 881 875
f 976 980 881
f 979 976 975
f 979 980 976
f 981 882 881
f 981 881 980
f 987 885 884
f 987 884 986
f 988 978 877
f 988 877 886
f 988 886 885
f 988 885 987
f 988 987 977
f 988 977 978
f 989 882 981
f 989 888 882
f 990 889 888
f 990 888 989
f 989 981 982
f 989 982 990
f 991 890 889
f 991 889 990
f 991 990 982
f 991 982 983
f 891 890 991
f 891 991 992
f 992 991 983
f 992 983 984
f 892 891 992
f 892 992 993
f 992 984 985
f 992 985 993
f 994 986 884
f 994 884 893
f 994 893 892
f 994 892 993
f 994 993 985
f 994 985 986
f 900 995 899
f 900 996 995
f 901 996 900
f 901 997 996
f 902 997 901
f 902 998 997
f 999 902 903
f 999 998 902
f 1000 903 904
f 1000 999 903
f 995 905 899
f 995 1001 905
f 1002 1001 995
f 1002 995 996
f 1003 998 999
f 1003 999 1004
f 1005 1000 904
f 1005 904 910
f 1004 999 1000
f 1004 1000 1005
f 1007 912 913
f 1007 1006 912
f 1001 914 905
f 1001 1008 914
f 914 1007 913
f 914 1008 1007
f 1009 1008 1001
f 1009 1001 1002
f 1005 910 915
f 1005 915 1010
f 1011 912 1006
f 1011 917 912
f 918 917 1011
f 918 1011 1012
f 1011 1006 1007
f 1011 1007 1012
f 1013 1012 1007
f 1013 1007 1008
f 1010 915 919
f 1010 919 1014
f 1015 919 920
f 1015 1014 919
f 1012 924 918
f 1012 1016 924
f 1017 1016 1012
f 1017 1012 1013
f 1015 920 925
f 1015 925 1018
f 1019 925 926
f 1019 1018 925
f 1021 924 1016
f 1021 929 924
f 929 1020 928
f 929 1021 1020
f 1019 926 931
f 1019 931 1025
f 1025 931 930
f 1025 930 1024
f 1020 932 928
f 1020 1026 932
f 1027 933 932
f 1027 932 1026
f 1027 1026 1020
f 1027 1020 1021
f 1028 934 933
f 1028 933 1027
f 1029 935 934
f 1029 934 1028
f 1033 937 936
f 1033 936 1032
f 1033 1032 1022
f 1033 1022 1023
f 1034 1024 930
f 1034 930 938
f 1034 938 937
f 1034 937 1033
f 1034 1033 1023
f 1034 1023 1024
f 1029 941 935
f 1029 1036 941
f 1035 1029 1028
f 1035 1036 1029
f 942 941 1036
f 942 1036 1037
f 1038 943 942
f 1038 942 1037
f 1038 1037 1030
f 1038 1030 1031
f 1039 1032 936
f 1039 936 944
f 1039 944 943
f 1039 943 1038
f 1039 1038 1031
f 1039 1031 1032
f 948 1040 947
f 948 1041 1040
f 1042 948 949
f 1042 1041 948
f 950 1042 949
f 950 1043 1042
f 1044 950 951
f 1044 1043 950
f 952 1044 951
f 952 1045 1044
f 1040 954 947
f 1040 1047 954
f 954 1046 953
f 954 1047 1046
f 1048 1043 1044
f 1048 1044 1049
f 1050 1045 952
f 1050 952 956
f 1050 956 955
f 1050 955 1049
f 1050 1049 1044
f 1050 1044 1045
f 1052 957 958
f 1052 1051 957
f 1046 959 953
f 1046 1053 959
f 959 1052 958
f 959 1053 1052
f 1054 1053 1046
f 1054 1046 1047
f 1049 955 960
f 1049 960 1057
f 1051 964 957
f 1051 1059 964
f 965 964 1059
f 965 1059 1060
f 1059 1051 1052
f 1059 1052 1060
f 1061 1060 1052
f 1061 1052 1053
f 1062 1061 1053
f 1062 1053 1054
f 1063 1055 1056
f 1063 1056 1064
f 1065 1057 960
f 1065 960 966
f 1066 966 967
f 1066 1065 966
f 1065 1058 1057
f 1065 1066 1058
f 1067 967 968
f 1067 1066 967
f 1060 971 965
f 1060 1068 971
f 1069 1068 1060
f 1069 1060 1061
f 1067 968 973
f 1067 973 1071
f 1071 973 972
f 1071 972 1070
f 1068 976 971
f 1068 1073 976
f 976 1072 975
f 976 1073 1072
f 1077 1070 972
f 1077 972 977
f 1072 979 975
f 1072 1078 979
f 1079 980 979
f 1079 979 1078
f 1079 1078 1072
f 1079 1072 1073
f 1080 981 980
f 1080 980 1079
f 1081 982 981
f 1081 981 1080
f 983 982 1081
f 983 1081 1082
f 984 983 1082
f 984 1082 1083
f 1084 985 984
f 1084 984 1083
f 1084 1083 1074
f 1084 1074 1075
f 1085 986 985
f 1085 985 1084
f 1085 1084 1075
f 1085 1075 1076
f 1086 1077 977
f 1086 977 987
f 1086 987 986
f 1086 986 1085
f 1086 1085 1076
f 1086 1076 1077
f 1087 1081 1080
f 1087 1088 1081
f 1089 1081 1088
f 1089 1082 1081
f 997 1090 996
f 997 1091 1090
f 1092 997 998
f 1092 1091 997
f 1090 1002 996
f 1090 1093 1002
f 1094 1093 1090
f 1094 1090 1091
f 1092 998 1003
f 1092 1003 1095
f 1094 1091 1092
f 1094 1092 1095
f 1096 1003 1004
f 1096 1095 1003
f 1097 1004 1005
f 1097 1096 1004
f 1093 1009 1002
f 1093 1099 1009
f 1009 1098 1008
f 1009 1099 1098
f 1100 1099 1093
f 1100 1093 1094
f 1101 1100 1094
f 1101 1094 1095
f 1101 1095 1096
f 1101 1096 1102
f 1097 1005 1010
f 1097 1010 1103
f 1102 1096 1097
f 1102 1097 1103
f 1098 1013 1008
f 1098 1104 1013
f 1105 1104 1098
f 1105 1098 1099
f 1106 1105 1099
f 1106 1099 1100
f 1106 1100 1101
f 1106 1101 1107
f 1108 1107 1101
f 1108 1101 1102
f 1109 1103 1010
f 1109 1010 1014
f 1110 1014 1015
f 1110 1109 1014
f 1104 1017 1013
f 1104 1112 1017
f 1017 1111 1016
f 1017 1112 1111
f 1113 1112 1104
f 1113 1104 1105
f 1114 1113 1105
f 1114 1105 1106
f 1115 1114 1106
f 1115 1106 1107
f 1117 1110 1015
f 1117 1015 1018
f 1118 1018 1019
f 1118 1117 1018
f 1111 1021 1016
f 1111 1119 1021
f 1120 1119 1111
f 1120 1111 1112
f 1121 1120 1112
f 1121 1112 1113
f 1122 1114 1115
f 1122 1115 1123
f 1125 1023 1022
f 1125 1022 1124
f 1126 1024 1023
f 1126 1023 1125
f 1126 1125 1116
f 1126 1116 1117
f 1118 1019 1025
f 1118 1025 1127
f 1127 1025 1024
f 1127 1024 1126
f 1126 1117 1118
f 1126 1118 1127
f 1128 1021 1119
f 1128 1027 1021
f 1028 1027 1128
f 1028 1128 1129
f 1128 1119 1120
f 1128 1120 1129
f 1132 1031 1030
f 1132 1030 1131
f 1132 1131 1122
f 1132 1122 1123
f 1133 1124 1022
f 1133 1022 1032
f 1133 1032 1031
f 1133 1031 1132
f 1133 1132 1123
f 1133 1123 1124
f 1134 1028 1129
f 1134 1035 1028
f 1135 1036 1035
f 1135 1035 1134
f 1134 1129 1130
f 1134 1130 1135
f 1136 1131 1030
f 1136 1030 1037
f 1136 1037 1036
f 1136 1036 1135
f 1041 1137 1040
f 1041 1138 1137
f 1139 1041 1042
f 1139 1138 1041
f 1140 1042 1043
f 1140 1139 1042
f 1141 1040 1137
f 1141 1047 1040
f 1142 1141 1137
f 1142 1137 1138
f 1143 1142 1138
f 1143 1138 1139
f 1140 1043 1048
f 1140 1048 1144
f 1143 1139 1140
f 1143 1140 1144
f 1145 1048 1049
f 1145 1144 1048
f 1141 1054 1047
f 1141 1146 1054
f 1147 1146 1141
f 1147 1141 1142
f 1148 1056 1055
f 1148 1055 1147
f 1147 1142 1143
f 1147 1143 1148
f 1149 1148 1143
f 1149 1143 1144
f 1145 1049 1057
f 1145 1057 1150
f 1149 1144 1145
f 1149 1145 1150
f 1058 1150 1057
f 1058 1151 1150
f 1146 1062 1054
f 1146 1153 1062
f 1062 1152 1061
f 1062 1153 1152
f 1147 1055 1063
f 1147 1063 1154
f 1154 1153 1146
f 1154 1146 1147
f 1148 1064 1056
f 1148 1155 1064
f 1064 1154 1063
f 1064 1155 1154
f 1156 1155 1148
f 1156 1148 1149
f 1157 1151 1058
f 1157 1058 1066
f 1158 1066 1067
f 1158 1157 1066
f 1152 1069 1061
f 1152 1160 1069
f 1069 1159 1068
f 1069 1160 1159
f 1161 1160 1152
f 1161 1152 1153
f 1162 1161 1153
f 1162 1153 1154
f 1163 1162 1154
f 1163 1154 1155
f 1166 1158 1067
f 1166 1067 1071
f 1166 1071 1070
f 1166 1070 1165
f 1166 1165 1157
f 1166 1157 1158
f 1159 1073 1068
f 1159 1167 1073
f 1168 1167 1159
f 1168 1159 1160
f 1169 1168 1160
f 1169 1160 1161
f 1170 1162 1163
f 1170 1163 1171
f 1172 1075 1074
f 1172 1074 1171
f 1076 1075 1172
f 1076 1172 1173
f 1174 1165 1070
f 1174 1070 1077
f 1174 1077 1076
f 1174 1076 1173
f 1174 1173 1164
f 1174 1164 1165
f 1175 1073 1167
f 1175 1079 1073
f 1080 1079 1175
f 1080 1175 1176
f 1175 1167 1168
f 1175 1168 1176
f 1176 1168 1169
f 1176 1169 1177
f 1179 1171 1074
f 1179 1074 1083
f 1179 1083 1082
f 1179 1082 1178
f 1179 1178 1170
f 1179 1170 1171
f 1176 1087 1080
f 1176 1180 1087
f 1088 1087 1180
f 1088 1180 1181
f 1180 1176 1177
f 1180 1177 1181
f 1178 1082 1089
f 1178 1089 1182
f 1182 1089 1088
f 1182 1088 1181
f 1184 1102 1103
f 1184 1183 1102
f 1183 1108 1102
f 1183 1186 1108
f 1108 1185 1107
f 1108 1186 1185
f 1184 1103 1109
f 1184 1109 1187
f 1187 1186 1183
f 1187 1183 1184
f 1188 1109 1110
f 1188 1187 1109
f 1114 1189 1113
f 1114 1190 1189
f 1185 1115 1107
f 1185 1191 1115
f 1192 1186 1187
f 1192 1187 1193
f 1194 1188 1110
f 1194 1110 1117
f 1194 1117 1116
f 1194 1116 1193
f 1193 1187 1188
f 1193 1188 1194
f 1189 1121 1113
f 1189 1196 1121
f 1121 1195 1120
f 1121 1196 1195
f 1190 1114 1122
f 1190 1122 1197
f 1197 1196 1189
f 1197 1189 1190
f 1198 1115 1191
f 1198 1123 1115
f 1198 1190 1197
f 1198 1191 1190
f 1199 1124 1123
f 1199 1123 1198
f 1200 1193 1116
f 1200 1116 1125
f 1125 1124 1199
f 1125 1199 1200
f 1201 1120 1195
f 1201 1129 1120
f 1130 1129 1201
f 1130 1201 1202
f 1201 1195 1196
f 1201 1196 1202
f 1203 1197 1122
f 1203 1122 1131
f 1203 1202 1196
f 1203 1196 1197
f 1204 1130 1202
f 1204 1135 1130
f 1203 1131 1136
f 1203 1136 1205
f 1136 1135 1204
f 1136 1204 1205
f 1204 1202 1203
f 1204 1203 1205
f 1150 1206 1149
f 1150 1207 1206
f 1151 1207 1150
f 1151 1208 1207
f 1206 1156 1149
f 1206 1210 1156
f 1156 1209 1155
f 1156 1210 1209
f 1211 1210 1206
f 1211 1206 1207
f 1212 1208 1151
f 1212 1151 1157
f 1212 1211 1207
f 1212 1207 1208
f 1162 1213 1161
f 1162 1214 1213
f 1209 1163 1155
f 1209 1215 1163
f 1217 1212 1157
f 1217 1157 1165
f 1217 1165 1164
f 1217 1164 1216
f 1217 1216 1211
f 1217 1211 1212
f 1213 1169 1161
f 1213 1218 1169
f 1214 1162 1170
f 1214 1170 1219
f 1219 1218 1213
f 1219 1213 1214
f 1220 1163 1215
f 1220 1171 1163
f 1220 1214 1219
f 1220 1215 1214
f 1221 1172 1171
f 1221 1171 1220
f 1222 1216 1164
f 1222 1164 1173
f 1222 1173 1172
f 1222 1172 1221
f 1223 1169 1218
f 1223 1177 1169
f 1224 1219 1170
f 1224 1170 1178
f 1224 1223 1218
f 1224 1218 1219
f 1225 1177 1223
f 1225 1181 1177
f 1224 1178 1182
f 1224 1182 1226
f 1182 1181 1225
f 1182 1225 1226
f 1225 1223 1224
f 1225 1224 1226
f 1228 1185 1186
f 1228 1227 1185
f 1227 1191 1185
f 1227 1230 1191
f 1191 1229 1190
f 1191 1230 1229
f 1228 1186 1192
f 1228 1192 1231
f 1231 1230 1227
f 1231 1227 1228
f 1232 1192 1193
f 1232 1231 1192
f 1233 1190 1229
f 1233 1197 1190
f 1198 1197 1233
f 1198 1233 1234
f 1234 1233 1229
f 1234 1229 1230
f 1235 1199 1198
f 1235 1198 1234
f 1235 1234 1230
f 1235 1230 1231
f 1232 1193 1200
f 1232 1200 1236
f 1236 1200 1199
f 1236 1199 1235
f 1235 1231 1232
f 1235 1232 1236
f 1238 1209 1210
f 1238 1237 1209
f 1239 1210 1211
f 1239 1238 1210
f 1237 1215 1209
f 1237 1241 1215
f 1215 1240 1214
f 1215 1241 1240
f 1242 1241 1237
f 1242 1237 1238
f 1243 1239 1211
f 1243 1211 1216
f 1242 1238 1239
f 1242 1239 1243
f 1244 1214 1240
f 1244 1219 1214
f 1220 1219 1244
f 1220 1244 1245
f 1245 1244 1240
f 1245 1240 1241
f 1246 1221 1220
f 1246 1220 1245
f 1245 1241 1242
f 1245 1242 1246
f 1243 1216 1222
f 1243 1222 1247
f 1247 1222 1221
f 1247 1221 1246
f 1247 1246 1242
f 1247 1242 1243
