# parsimony mesh: cplx_CPLX0-8585 (source /Users/eranagmon/code/v2e-cplx/workspace/studies/ecoli-3d/viz/3d/structures/cplx_CPLX0-8585.pdb)
# atoms: 2252  voxel: 4 Å  verts: 1109  tris: 2256
v 18.6679 -28.4028 -25.4649
v 20.9298 -29.1694 -25.5972
v 23.5369 -28.9432 -25.4099
v 18.6679 -26.4932 -25.4649
v 20.7495 -25.3680 -25.5657
v 24.8940 -25.6437 -25.4806
v 27.7370 -24.2861 -25.3231
v 21.9626 -23.5689 -25.2252
v 24.9298 -23.4152 -25.3523
v 27.7370 -23.4383 -25.3231
v -33.7124 23.8191 -25.3968
v -32.7426 23.8191 -25.3968
v -37.2150 27.9037 -25.3516
v -35.0555 26.4701 -25.7557
v -31.2737 26.6799 -25.6526
v -28.7828 28.2533 -25.1798
v -37.2150 28.6774 -25.3516
v -35.0702 29.3949 -25.7059
v -30.8947 30.5654 -25.5148
v -27.2978 30.5515 -25.2122
v -25.0259 32.0393 -25.1639
v -29.4444 32.3677 -25.1671
v -27.0702 32.3933 -25.1894
v -25.0259 32.3699 -25.1639
v 18.6972 -28.2785 -23.1179
v 20.9298 -29.5961 -23.1179
v 24.8940 -28.9752 -22.9163
v 27.0429 -28.0817 -21.4486
v 18.6972 -26.7792 -23.1179
v 19.6429 -24.7792 -23.1179
v 26.2035 -26.9527 -24.1152
v 27.4974 -25.6437 -22.9163
v 21.6429 -22.9198 -23.1179
v 24.9298 -22.7222 -23.1179
v 27.5545 -23.4826 -23.1179
v -33.7124 23.8191 -23.8535
v -32.7426 23.8191 -23.8535
v -37.2150 27.9037 -24.3620
v -35.1748 26.1556 -22.7744
v -31.2737 25.4098 -22.7593
v -28.6911 27.6165 -23.1179
v -37.2150 28.6774 -24.3620
v -35.1325 30.3699 -23.2681
v -32.1110 32.0624 -24.8408
v -27.0470 30.5515 -23.4470
v -25.0259 32.0393 -24.9998
v -33.6279 33.0019 -22.1741
v -30.8947 32.8464 -23.3516
v -27.3503 32.4672 -23.4470
v -25.0259 32.3699 -24.9998
v 29.6785 -36.1180 -17.2343
v 31.0490 -36.1180 -17.2343
v 14.8971 -31.6981 -17.1594
v 15.1181 -31.6981 -17.1594
v 29.6785 -35.5283 -17.2343
v 31.0490 -35.5283 -17.2343
v 14.7369 -29.6802 -17.7706
v 16.9998 -29.5441 -18.8863
v 20.9298 -29.5830 -19.1179
v 24.9298 -29.8019 -19.1179
v 27.3184 -28.6950 -19.1179
v 14.7053 -27.5116 -17.9466
v 17.3009 -27.2920 -19.2151
v 20.1180 -25.3215 -19.1179
v 27.4415 -25.6802 -19.1179
v 21.9842 -21.5387 -19.2017
v 24.8866 -21.3469 -19.2017
v 27.0530 -23.4404 -19.1179
v 22.4362 -19.3190 -17.9243
v 23.5245 -19.3190 -17.9243
v -25.5158 16.1724 -17.3327
v -24.8365 16.1724 -17.3327
v -25.5317 18.3198 -17.3233
v -24.8429 18.3198 -17.3233
v -41.3600 24.0894 -17.5745
v -39.0702 24.0215 -18.1872
v -35.0702 23.9733 -18.7651
v -32.0555 24.0251 -18.3450
v -25.2398 20.4185 -17.1770
v -25.0009 20.4185 -17.1770
v -41.3600 25.1410 -17.5745
v -38.9113 26.4125 -18.2714
v -35.2103 25.9724 -20.3337
v -30.8613 24.8951 -19.4541
v -28.7572 26.9732 -19.1179
v -37.4720 28.4078 -17.6146
v -35.7136 29.9726 -19.0159
v -28.4940 30.3198 -19.1179
v -33.7626 34.3291 -19.0360
v -31.0260 34.6625 -19.0360
v -28.8069 32.7366 -19.1179
v -33.3854 36.5709 -17.6480
v -32.3298 36.5709 -17.6480
v 22.1432 -36.4519 -13.5896
v 24.9298 -36.3229 -14.2637
v 28.5790 -36.5335 -15.3515
v 32.6013 -36.7039 -14.9008
v 35.2178 -36.0496 -13.4228
v 14.8971 -31.6981 -17.0533
v 16.6869 -32.0923 -15.5973
v 20.8578 -33.7640 -14.4541
v 24.9298 -33.6802 -15.4624
v 28.5790 -33.9891 -15.8876
v 32.5657 -33.6607 -14.6171
v 35.2178 -34.4598 -13.4228
v 14.7369 -29.6802 -16.8961
v 17.2476 -30.1122 -15.4617
v 20.1431 -29.7376 -15.0940
v 24.9298 -31.1304 -16.3166
v 28.9111 -30.1160 -14.8979
v 31.4157 -31.6003 -13.1448
v 14.7053 -27.5116 -16.8868
v 17.7586 -25.9796 -14.8602
v 19.5118 -25.7805 -14.5995
v 28.7439 -25.6802 -15.1179
v 18.8635 -23.5561 -13.2253
v 21.1828 -21.8462 -14.6553
v 24.6653 -20.4258 -14.9727
v 28.1923 -21.9013 -15.1633
v 22.4362 -19.3190 -16.0853
v 24.6653 -19.1492 -14.9727
v 27.9111 -18.9794 -13.8602
v -25.5158 16.1724 -15.9752
v -24.8365 16.1724 -15.9752
v -34.0752 19.6204 -13.4025
v -31.0702 18.9044 -13.8144
v -26.7112 17.7603 -14.8686
v -23.5854 18.0459 -14.7496
v -20.5969 19.7032 -13.5240
v -41.3600 24.0894 -16.7389
v -38.8590 23.4695 -15.2905
v -35.2732 21.8309 -14.8887
v -30.8613 22.5430 -15.8643
v -26.7720 21.9790 -15.9615
v -23.3042 22.1375 -14.8776
v -20.5969 21.1898 -13.5240
v -41.3600 25.1410 -16.7389
v -38.7617 26.3817 -15.4352
v -36.4619 27.6225 -14.1315
v -29.3888 24.7288 -16.7664
v -27.0764 26.3831 -15.1655
v -24.2743 25.3707 -13.5645
v -37.4720 28.4078 -16.7981
v -34.9066 30.1895 -15.1323
v -32.8709 31.9712 -13.4664
v -26.5870 30.2156 -14.8290
v -24.9400 31.4795 -13.3031
v -33.5174 34.3198 -15.8030
v -31.2144 34.7804 -14.9014
v -27.2018 34.2670 -14.8345
v -24.9400 33.1395 -13.3031
v -33.3854 36.5709 -16.3496
v -31.0048 36.6340 -15.0244
v -28.1512 36.6971 -13.6992
v 22.6845 -40.1027 -9.6780
v 24.9298 -40.7673 -10.1447
v 28.9298 -40.9561 -10.4062
v 31.9126 -40.3545 -10.0267
v 21.7435 -37.7432 -11.0539
v 24.9298 -38.3229 -12.1447
v 28.9298 -38.4184 -12.4062
v 33.1195 -38.3374 -11.2632
v 35.3646 -36.3275 -11.1179
v 17.9012 -33.0964 -11.1179
v 19.6309 -35.0964 -11.1179
v 26.9178 -31.6952 -9.1352
v 28.9298 -31.7772 -9.9497
v 32.8214 -32.3782 -11.3729
v 35.3646 -34.4670 -11.1179
v 17.6046 -29.3797 -11.4098
v 19.0942 -27.8461 -12.9377
v 26.9178 -31.6014 -9.1352
v 29.5974 -30.3914 -11.1051
v 31.4320 -30.2160 -11.4276
v 17.9174 -25.6790 -11.4098
v 19.0942 -27.0116 -12.9377
v 30.3363 -25.6802 -12.5384
v 31.8176 -25.6802 -10.5384
v 14.7919 -20.0197 -9.3035
v 17.1714 -21.7879 -10.7542
v 20.9298 -20.9291 -12.2621
v 23.1396 -20.1363 -12.8898
v 30.4040 -21.6802 -12.2306
v 31.5597 -21.6802 -10.2306
v 14.7919 -19.3760 -9.3035
v 16.9298 -18.9925 -9.5724
v 20.8997 -17.7126 -10.4090
v 25.0328 -17.3342 -11.3170
v 29.1186 -18.3194 -10.9883
v 31.1042 -19.4376 -9.5685
v 42.4076 -16.0079 -9.2149
v 43.0126 -16.0079 -9.2149
v 22.2129 -15.2357 -9.7442
v 24.2594 -15.2357 -9.7442
v 42.4076 -15.5946 -9.2149
v 43.0126 -15.5946 -9.2149
v -30.1242 15.0947 -10.3744
v -27.0702 14.6580 -11.0198
v -23.0702 15.4282 -10.3005
v -20.9070 16.1216 -9.4154
v -37.1358 20.2579 -9.6986
v -35.2732 19.3594 -11.0663
v -31.3026 17.0839 -11.4718
v -27.0702 16.4805 -13.0198
v -23.0702 16.9089 -12.3005
v -20.1646 18.3498 -10.8964
v -37.6141 22.1081 -11.0663
v -36.7418 20.6336 -12.3653
v -25.6950 24.0351 -9.5149
v -22.9926 23.2981 -10.9561
v -20.0606 21.2562 -11.1179
v -13.7487 24.0070 -9.3486
v -12.8065 24.0070 -9.3486
v -37.9385 26.3014 -11.1890
v -36.4619 27.6225 -12.5698
v -25.4884 26.2990 -11.2346
v -24.2627 26.2990 -11.2346
v -13.7487 25.1456 -9.3486
v -12.8065 25.1456 -9.3486
v -37.9177 30.3198 -10.4005
v -35.1052 30.5106 -12.4174
v -32.8709 31.9712 -12.9070
v -25.2818 28.8128 -12.9544
v -23.9367 30.2156 -11.4198
v -38.2110 34.3198 -10.1910
v -35.0702 34.3198 -11.7718
v -32.3778 34.3198 -12.6986
v -26.0818 35.6991 -11.1179
v -24.2677 33.6991 -11.1179
v -13.4466 36.1839 -9.2344
v -12.9566 36.1839 -9.2344
v -38.0676 36.9428 -9.6238
v -35.0702 37.6540 -10.2363
v -31.1800 38.4198 -11.1639
v -27.8593 38.1462 -10.9819
v -13.4515 38.3198 -9.2512
v -12.9401 38.3198 -9.2512
v -30.0137 40.8981 -9.5580
v -28.3699 40.8981 -9.5580
v -13.2023 40.3678 -9.1791
v -13.0103 40.3678 -9.1791
v 26.0546 -44.2419 -6.0474
v 28.9298 -44.4348 -6.2805
v 32.9298 -44.0346 -5.6088
v 34.9548 -43.7082 -5.1519
v 22.2794 -40.6064 -7.1179
v 24.8047 -42.6373 -7.2756
v 28.9298 -42.9561 -8.2805
v 33.1195 -41.6848 -7.4702
v 35.0950 -41.6802 -5.5928
v 17.9402 -36.4212 -6.1880
v 20.2423 -37.7248 -7.3599
v 34.5792 -38.8405 -8.3838
v 35.8438 -37.5764 -7.0774
v 14.5378 -32.5414 -5.6460
v 16.7531 -33.9851 -7.2503
v 19.3179 -35.4288 -8.8546
v 26.9178 -31.6952 -9.0892
v 28.9298 -31.7772 -8.6610
v 32.9298 -32.4680 -8.0154
v 36.9272 -34.0050 -7.1659
v 40.9298 -33.1761 -6.4974
v 43.5175 -32.6279 -5.9717
v 13.7462 -29.6802 -6.1505
v 15.7789 -29.6802 -8.1505
v 26.9178 -31.6014 -9.0892
v 28.9298 -31.4847 -8.6610
v 32.8408 -29.9711 -7.4840
v 36.9298 -29.6802 -6.7397
v 40.9298 -29.6802 -7.4023
v 43.9526 -29.6802 -6.1736
v 13.1386 -25.6802 -6.1652
v 15.7140 -25.6802 -8.1652
v 33.8176 -25.6802 -7.5093
v 36.8629 -25.7315 -5.8227
v 40.9298 -27.0487 -6.0227
v 43.7058 -27.4193 -5.6716
v 14.0592 -21.4839 -7.0466
v 15.4792 -22.6864 -8.3324
v 33.5597 -21.6802 -7.7141
v 36.8629 -21.6221 -6.0940
v 39.8191 -20.2501 -5.9496
v 14.7431 -19.3699 -7.1179
v 17.3274 -17.4644 -6.7241
v 19.5463 -16.4009 -7.7949
v 26.9260 -15.6890 -9.1133
v 28.9298 -16.5048 -8.4897
v 32.6345 -17.9346 -7.3450
v 36.9298 -17.6802 -6.9446
v 41.1986 -16.9635 -7.4851
v 43.0126 -16.0079 -8.7506
v 18.9258 -15.6744 -5.1282
v 20.9927 -14.1217 -6.6621
v 25.5595 -13.4951 -7.3213
v 28.5868 -13.3248 -6.6047
v 32.9298 -13.6802 -6.5096
v 36.8827 -13.6885 -6.1770
v 41.1321 -15.3110 -7.4637
v 43.0126 -15.5946 -8.7506
v 22.4390 -11.2727 -5.5293
v 24.1930 -11.2727 -5.5293
v 29.6914 -11.3955 -5.7668
v 32.9298 -10.9646 -5.9906
v 35.5180 -11.0108 -5.6326
v -29.7739 11.5365 -6.2830
v -27.0702 11.1823 -6.7210
v -23.0702 11.5147 -6.1503
v -20.7725 11.9798 -5.5221
v -33.6736 15.6598 -6.0105
v -31.2824 14.0439 -7.4801
v -27.0702 12.6580 -8.7210
v -23.0702 13.4282 -8.1503
v -20.4771 14.6009 -6.9604
v -37.8240 19.7815 -7.1179
v -35.0322 17.7856 -7.2534
v -32.7908 16.8138 -8.6771
v -18.5321 18.4905 -7.2555
v -15.0702 19.9038 -5.8607
v -12.8943 20.1474 -5.2122
v -41.2930 23.7055 -5.3592
v -39.5890 22.3512 -6.8627
v -25.6950 24.0351 -8.5556
v -22.7407 23.5342 -7.1805
v -19.2749 22.4742 -7.2964
v -15.0773 22.5321 -7.7887
v -12.2008 22.5321 -6.7745
v -41.7791 26.3198 -5.7964
v -39.9196 26.3198 -7.7964
v -25.6950 24.5606 -8.5556
v -22.7194 25.8040 -7.1657
v -19.4395 25.9563 -6.0162
v -15.0773 26.4153 -7.4501
v -11.7759 26.4153 -6.9464
v -42.1190 30.3198 -5.8987
v -39.9177 30.3198 -7.8987
v -21.7510 30.3198 -8.1103
v -19.0735 29.9873 -5.9389
v -15.0702 28.5032 -5.4374
v -12.1862 28.4518 -5.4988
v -41.7463 32.8783 -5.4955
v -39.8812 34.2549 -6.9445
v -26.0047 36.0058 -8.4674
v -22.9063 34.5314 -7.7473
v -19.0735 34.2723 -6.1708
v -14.8960 35.6098 -7.1510
v -12.8513 35.9917 -7.1179
v -38.1913 37.3063 -7.1179
v -35.0937 39.4026 -7.2719
v -32.6803 40.1424 -8.7079
v -26.2459 38.3198 -8.2908
v -23.0702 38.3198 -6.8332
v -19.0702 38.3198 -6.5025
v -14.6162 38.9608 -7.1148
v -12.8592 38.4173 -7.2398
v -33.7955 42.3198 -6.0026
v -31.2363 42.2668 -7.4738
v -27.0653 42.5766 -6.9318
v -23.4441 42.6810 -6.2635
v -19.0477 42.1628 -5.9754
v -14.6857 40.5463 -7.0866
v -13.0103 40.3678 -8.6544
v -33.3313 44.5521 -5.3742
v -31.0702 44.5095 -5.3702
v -28.4272 44.3404 -5.1980
v -22.3600 44.9225 -5.7904
v -20.3660 44.9225 -5.7904
v 25.4753 -44.7029 -3.1179
v 28.9298 -45.6406 -3.1179
v 33.1043 -44.4471 -3.4246
v 34.9548 -43.7082 -4.9624
v 22.3078 -40.4926 -4.3119
v 23.6562 -41.7676 -3.0343
v 34.6300 -41.6802 -2.0441
v 35.0950 -41.6802 -4.0441
v 46.5546 -39.7507 -1.2331
v 47.0319 -39.7507 -1.2331
v 17.5143 -36.8638 -3.1179
v 20.9566 -38.8000 -3.0343
v 23.4132 -39.3018 -1.6452
v 34.9059 -39.6569 -1.1749
v 36.8790 -37.8399 -2.8934
v 40.9298 -36.6726 -2.5367
v 45.1047 -37.8685 -2.0414
v 47.2495 -37.6802 -1.4739
v 14.3412 -32.7391 -3.1179
v 15.5143 -34.7391 -3.1179
v 38.6329 -35.3937 -4.6119
v 40.9298 -35.1761 -4.5367
v 44.8824 -33.8488 -3.6264
v 47.2061 -33.6802 -1.4552
v 10.7808 -27.9957 -2.1311
v 12.1472 -29.4695 -3.3258
v 45.9526 -29.6802 -3.9785
v 47.2585 -29.6802 -1.9785
v 10.2925 -25.6802 -2.8096
v 11.1386 -25.6802 -4.8096
v 38.0872 -24.4062 -3.1179
v 40.9298 -25.6960 -3.1179
v 44.9954 -26.7429 -3.3521
v 47.3239 -27.0649 -2.1750
v 10.3030 -21.6802 -2.1491
v 11.9450 -21.6802 -4.1491
v 38.0872 -22.9243 -3.1179
v 41.0634 -20.9757 -3.1960
v 43.1124 -20.1805 -1.9148
v 10.8039 -17.6802 -1.2324
v 13.2633 -18.0145 -3.0041
v 16.2591 -16.9040 -4.1090
v 42.2919 -17.6802 -4.0181
v 43.1611 -17.6802 -2.0181
v 10.8970 -15.6521 -1.1380
v 12.9298 -15.2794 -1.3763
v 17.3274 -14.6627 -2.9125
v 19.7320 -12.7881 -3.1179
v 26.8597 -11.7545 -5.0456
v 28.9414 -11.7531 -3.1289
v 31.1936 -11.7516 -1.2121
v 37.5437 -12.5661 -3.1179
v 41.1157 -13.6042 -2.9081
v 43.3168 -13.6802 -1.8032
v 21.7320 -10.8812 -3.1179
v 25.2877 -10.6925 -3.4745
v 28.9414 -11.2474 -3.1289
v 32.6881 -11.0542 -2.7744
v 35.5437 -11.1112 -3.1179
v 42.3748 -11.4489 -1.6282
v 43.3199 -11.4489 -1.6282
v -30.1755 11.1146 -3.1179
v -27.0702 9.7746 -3.1179
v -23.0702 10.5848 -3.1179
v -20.7702 11.9249 -3.1179
v -34.0538 15.6396 -3.1179
v -32.1755 13.6396 -3.1179
v -20.1275 14.3198 -3.1179
v -10.2549 15.9964 -1.5717
v -8.5126 15.9964 -1.5717
v -38.3383 18.9488 -3.1179
v -36.0538 16.9488 -3.1179
v -18.4274 17.5287 -3.1179
v -15.0702 18.4605 -3.1179
v -11.5746 18.2743 -2.8443
v -8.4558 18.3198 -1.7075
v -41.5245 23.4854 -3.1179
v -40.3383 21.4854 -3.1179
v -21.1877 24.2500 -5.0663
v -21.0191 24.2500 -5.0663
v -10.1812 22.3198 -3.9899
v -8.5526 22.3198 -1.9899
v -42.8991 26.3198 -3.1179
v -21.1877 24.3806 -5.0663
v -21.0191 24.3806 -5.0663
v -9.6502 26.3198 -4.5969
v -8.5463 26.3198 -2.5969
v -45.5485 31.2841 -1.9006
v -44.1755 30.0984 -3.1875
v -17.7424 31.0989 -4.0845
v -15.2625 30.4236 -2.8979
v -10.9398 28.9581 -3.4029
v -8.8003 28.6564 -2.2595
v -45.4333 34.3198 -1.7088
v -43.0759 34.2549 -3.6037
v -40.2343 35.5449 -4.4729
v -17.7424 32.9073 -4.0845
v -15.2625 33.5096 -2.8979
v -12.5287 35.3665 -3.1179
v -45.0760 36.3387 -1.1230
v -42.8403 37.9312 -1.5934
v -38.9686 38.3352 -3.7922
v -36.4428 39.6788 -4.7877
v -13.5024 39.8156 -4.8561
v -12.2932 38.4173 -3.3608
v -41.3538 40.4457 -1.2169
v -39.0702 41.0892 -1.9445
v -35.7258 42.4598 -3.3198
v -25.9290 43.9747 -3.1179
v -23.4441 43.9341 -2.8136
v -19.0477 43.2159 -2.8136
v -14.7571 42.1579 -3.1473
v -12.3703 42.3198 -2.1620
v -33.8603 44.8190 -3.1179
v -31.0702 45.2103 -3.1179
v -27.9290 44.7111 -3.1179
v -22.3600 44.9225 -3.9441
v -20.3660 44.9225 -3.9441
v -13.3451 44.4230 -1.4384
v -12.7099 44.4230 -1.4384
v 30.4515 -52.1307 2.4272
v 31.2748 -52.1307 2.4272
v 26.7225 -47.7216 2.8355
v 29.0429 -49.3051 2.2010
v 31.4269 -49.6802 2.0658
v 22.5928 -44.6905 2.0589
v 24.9608 -45.9196 1.1138
v 28.9298 -46.8859 0.3720
v 32.2371 -45.7636 0.9020
v 22.5928 -42.8786 2.0589
v 23.5678 -41.5993 0.7882
v 34.4320 -41.7838 0.4970
v 35.7158 -40.5196 1.5735
v 46.5546 -39.7507 -0.9591
v 47.0319 -39.7507 -0.9591
v 14.2913 -36.8833 2.2062
v 16.7911 -37.6878 0.8766
v 20.9298 -38.1647 0.8821
v 23.5254 -38.5575 0.8821
v 34.9059 -39.6569 -1.0932
v 37.0014 -38.6321 0.4970
v 40.9298 -37.4043 0.8821
v 45.1047 -38.4838 0.5774
v 47.5126 -37.6705 0.5774
v 10.9125 -31.7158 2.8583
v 13.0808 -33.3066 1.1989
v 15.3653 -34.8975 -0.4604
v 48.1625 -33.6802 0.8821
v 6.8260 -27.7610 2.8356
v 9.5133 -29.2117 1.5136
v 11.8703 -30.6624 0.1917
v 46.0265 -28.2307 2.3340
v 47.6308 -29.6105 0.9532
v 6.3520 -25.6802 2.2249
v 8.2925 -25.6802 0.2249
v 38.5844 -23.8959 -0.2884
v 40.9298 -24.3275 0.1328
v 44.6937 -25.6962 1.0271
v 47.3239 -27.0649 -0.3327
v 6.2632 -22.4248 2.0523
v 8.0907 -21.3270 0.7842
v 38.5844 -23.4358 -0.2884
v 40.9298 -22.8721 0.1328
v 44.5700 -21.3213 1.2812
v 46.9671 -19.7955 2.8422
v 9.7821 -17.6802 0.8821
v 38.4949 -16.1303 2.5004
v 40.9298 -16.5748 1.7704
v 44.4174 -18.0132 0.9785
v 46.9671 -19.6036 2.8422
v 10.8055 -15.5689 0.8821
v 12.9298 -14.8526 0.8821
v 16.9298 -13.5625 0.8821
v 20.6661 -12.6845 0.8442
v 24.9298 -12.7056 1.9083
v 29.2868 -12.7330 0.9410
v 32.0248 -12.6276 0.8821
v 37.2178 -13.5807 1.0531
v 40.9968 -13.5807 -0.2009
v 43.3168 -13.6802 -0.6853
v 21.8235 -11.0223 -0.5145
v 24.9298 -10.7512 -0.0917
v 28.1914 -11.0994 -0.3531
v 34.0248 -11.6067 0.8821
v 35.1160 -11.6067 0.8821
v 42.3748 -11.4489 -0.7739
v 43.3199 -11.4489 -0.7739
v -25.6299 3.5265 2.2963
v -24.4419 3.5265 2.2963
v -33.2286 8.1642 2.5318
v -31.0702 7.9809 2.2278
v -27.0060 6.5421 1.5828
v -24.1858 6.3198 1.6494
v -33.2670 10.3198 2.4320
v -31.1322 10.2256 0.6088
v -27.0702 8.9121 -0.3027
v -23.1397 9.8538 0.6475
v -20.8733 12.0273 0.8821
v -41.1368 16.2543 2.8045
v -39.0702 16.0933 2.0784
v -34.3789 15.0197 1.3269
v -32.6395 14.4878 1.0463
v -19.1150 14.6275 0.9608
v -16.7259 16.1660 2.3466
v -10.2549 15.9964 -0.4113
v -8.5126 15.9964 -0.4113
v -41.4743 18.3198 2.3973
v -39.1210 18.0165 0.2979
v -34.9813 16.6359 0.6742
v -32.7720 16.7909 2.1269
v -18.0740 16.9805 -0.3200
v -15.2636 17.2312 0.9608
v -11.3810 17.1126 0.9061
v -8.0927 18.1976 0.9061
v -42.0533 22.4208 0.9409
v -40.4882 21.1549 -0.3533
v -7.0182 22.3198 0.8821
v -46.3662 27.8796 2.1102
v -44.0362 26.4557 0.8190
v -13.2207 28.2429 2.7226
v -11.0702 27.8289 2.1972
v -7.9096 26.3733 0.8299
v -49.4334 30.9988 2.3429
v -47.2907 29.8081 0.8932
v -44.8473 28.6174 -0.5565
v -13.6390 29.9926 1.0550
v -11.4999 29.8979 0.9931
v -8.8003 28.6564 -0.5382
v -49.4334 32.9240 2.3429
v -47.3838 34.2823 0.9586
v -14.0574 32.6837 -0.6125
v -10.9664 34.4369 1.1247
v -9.0523 36.1901 2.8620
v -45.6035 37.1368 0.8821
v -43.7259 39.1368 0.8821
v -33.0974 40.2978 2.8570
v -33.0138 40.2978 2.8570
v -14.3829 39.5029 2.1891
v -11.1785 37.9253 1.1922
v -9.0523 36.3477 2.8620
v -41.7259 40.5173 0.8821
v -39.0702 41.5101 0.8821
v -34.8133 42.3150 1.1144
v -31.4363 42.2487 2.0045
v -26.9430 42.8794 0.9258
v -23.0702 42.6755 0.8821
v -19.0702 42.3522 0.8821
v -15.1973 41.9631 0.6317
v -12.3703 42.3198 -0.4935
v -33.8625 44.7531 -0.6282
v -31.0702 45.0206 -0.1961
v -28.1915 44.8209 -0.3785
v -13.3451 44.4230 -0.9256
v -12.7099 44.4230 -0.9256
v 30.4515 -52.1307 3.5068
v 31.2748 -52.1307 3.5068
v 26.0199 -48.1921 4.8821
v 29.0765 -49.3548 4.8331
v 31.4269 -49.6802 3.8085
v 22.4211 -44.9467 4.8821
v 24.0199 -46.9467 4.8821
v 30.3681 -46.9700 6.1594
v 32.0185 -45.6541 4.8485
v 18.4005 -40.1131 5.6297
v 21.2574 -41.4959 4.4885
v 23.2405 -40.2120 3.3474
v 34.0523 -42.8472 4.8821
v 35.9125 -40.8472 4.8821
v 6.7320 -35.8334 6.7257
v 7.4912 -35.8334 6.7257
v 14.2913 -36.8833 3.7649
v 16.8819 -38.2680 4.6973
v 20.9298 -38.8206 3.2917
v 23.2405 -38.5617 3.3474
v 37.9125 -38.3391 4.8821
v 41.0651 -36.4324 5.0565
v 44.9298 -36.4494 4.0855
v 47.4750 -36.3306 3.5293
v 6.6335 -33.6802 6.5744
v 9.2018 -33.4311 5.3436
v 12.9467 -34.3898 5.0118
v 15.3634 -35.3611 6.4316
v 42.4886 -35.4434 6.5061
v 44.9757 -33.9381 5.8799
v 47.8862 -33.6802 3.9114
v 6.3177 -29.3287 5.1298
v 8.2458 -30.4277 3.9616
v 46.1830 -29.6164 4.8878
v 47.4920 -29.6164 4.8878
v 5.4002 -25.6802 4.8821
v 45.5756 -25.6802 4.0716
v 47.3532 -25.6802 6.0716
v 6.0174 -21.8481 4.8821
v 7.1465 -19.8481 4.8821
v 38.8808 -19.7244 6.8301
v 38.9782 -19.7244 6.8301
v 46.0275 -22.4622 3.8487
v 47.1754 -21.3494 5.0621
v 9.4233 -17.7029 4.6195
v 12.9298 -16.2932 5.9710
v 14.9842 -15.7931 6.7717
v 26.3477 -15.9404 6.5480
v 27.1845 -15.9404 6.5480
v 38.5742 -17.5503 5.2509
v 40.5588 -18.3044 5.2509
v 44.9009 -17.1884 4.9968
v 48.3828 -17.7097 5.2521
v 51.0220 -15.8159 6.7644
v 10.7969 -15.5599 3.1110
v 12.9298 -15.2534 3.9710
v 16.5624 -14.5373 5.2159
v 20.9298 -14.1227 4.8821
v 24.9806 -14.8027 5.0816
v 28.6826 -14.7335 5.0816
v 33.2475 -13.2260 4.5004
v 36.2143 -13.6676 4.5004
v 46.2150 -15.2354 6.4065
v 48.9298 -15.2238 6.4371
v 51.0220 -15.5164 6.7644
v 34.7927 -11.6714 2.9126
v 34.9476 -11.6714 2.9126
v -25.6299 3.5265 3.6441
v -24.4419 3.5265 3.6441
v -33.2286 8.1642 3.4978
v -31.2026 7.6261 4.8515
v -26.8137 6.4862 5.1518
v -24.1858 6.3198 4.2866
v -33.3562 10.4359 4.8515
v -32.6242 9.1800 6.1644
v -25.3308 8.5511 6.6594
v -22.8121 10.3337 5.3770
v -20.9099 12.1163 4.0946
v -41.1368 16.2543 3.0858
v -39.0145 15.9005 4.6043
v -34.5412 14.5839 4.2188
v -32.7720 15.5694 3.3344
v -21.1048 12.3523 6.7613
v -19.2277 14.2591 5.0225
v -16.7259 16.1660 3.2837
v -49.1086 20.2763 6.8429
v -47.0702 20.2803 6.8428
v -42.9191 19.1730 5.2022
v -40.4297 18.3198 5.9521
v -33.5177 16.7909 3.3344
v -32.7720 16.7909 3.3344
v -17.5456 16.8888 5.9503
v -15.2636 17.7806 4.7231
v -11.1523 19.3170 4.9709
v -8.2602 19.4495 3.6967
v -49.1086 20.5956 6.8429
v -47.2685 22.0853 6.3716
v -43.2263 21.4931 5.3441
v -40.9756 20.3908 6.7719
v -9.9612 22.3198 6.0887
v -7.5358 22.3198 4.0887
v -49.5161 27.3486 5.5627
v -47.5501 26.2808 4.4898
v -44.5203 25.2130 3.4170
v -13.2207 28.2429 2.9934
v -10.3778 26.5301 4.6339
v -8.1242 26.2702 4.8703
v -49.6907 29.9272 4.4905
v -49.0329 28.3322 2.8960
v -13.2207 28.4034 2.9934
v -10.8718 29.9700 3.5771
v -8.3932 30.3198 5.6675
v -49.5114 33.1120 4.8821
v -48.0689 35.1120 4.8821
v -17.1841 36.1911 6.5930
v -16.9258 36.1911 6.5930
v -9.4063 33.5234 3.4139
v -8.4635 34.6420 4.8012
v -46.0689 37.4749 4.8821
v -43.0246 39.2846 4.6946
v -40.5328 39.7209 5.9029
v -33.1987 40.2290 4.8821
v -31.4363 39.9074 4.8309
v -28.5580 39.7537 6.1301
v -17.1841 37.0925 6.5930
v -15.8041 38.3204 5.6154
v -10.7100 38.6737 5.2563
v -7.3545 38.1284 5.4301
v -4.8867 39.9092 6.6878
v -41.6609 40.4573 3.2362
v -39.1478 40.9502 4.6946
v -35.1987 41.0047 4.8821
v -30.3471 40.8679 3.4634
v -27.1628 40.9474 4.8309
v -23.0702 41.7001 4.8821
v -19.0702 41.4156 4.8821
v -16.9629 40.4087 4.8821
v -9.1365 40.3453 6.8391
v -7.0702 40.4923 6.7041
v -4.8867 40.5244 6.6878
v 25.9239 -48.3213 7.7243
v 27.7015 -48.3213 7.7243
v 18.6908 -44.0952 10.4054
v 21.1251 -44.7618 8.9961
v 24.7263 -46.5601 8.9875
v 29.0094 -45.6980 8.9726
v 31.5230 -44.3034 7.5541
v 18.3061 -41.5400 8.9961
v 19.9219 -42.7798 7.7387
v 30.3174 -42.8958 10.2208
v 32.9495 -41.6463 9.0499
v 35.4540 -40.3968 7.8791
v 6.5332 -36.1972 8.8821
v 8.8667 -36.3978 8.8683
v 11.2385 -36.1870 10.1924
v 17.9097 -37.6431 8.9554
v 20.1296 -36.2851 10.3375
v 34.3760 -39.2589 10.5457
v 36.8879 -37.6086 8.9800
v 39.8220 -35.9583 7.4143
v 6.4942 -33.5221 8.8629
v 9.0808 -33.6149 8.8546
v 12.7150 -34.5541 8.8683
v 16.7900 -34.5276 8.9554
v 20.1296 -35.1023 10.3375
v 38.3217 -34.5334 10.0809
v 40.7650 -33.6550 8.7886
v 43.6730 -32.7767 7.4963
v 6.2426 -29.6802 7.9201
v 9.1742 -29.8117 9.9304
v 11.1069 -28.5661 10.5786
v 41.1006 -29.6802 10.0802
v 44.9757 -29.6733 8.1751
v 47.3242 -28.3354 7.4397
v 5.9781 -25.6802 7.9153
v 9.2107 -25.7063 9.9265
v 11.1069 -27.0570 10.5786
v 41.7126 -26.9390 10.5320
v 44.6650 -25.6355 9.5477
v 47.3532 -25.6802 7.4768
v 6.3800 -22.4928 7.5104
v 8.1123 -21.3677 8.8591
v 14.5969 -20.1935 10.5725
v 16.9298 -20.1910 10.4662
v 19.1405 -19.8480 10.6372
v 38.5952 -19.9349 8.8821
v 39.1367 -19.9349 8.8821
v 45.5280 -21.6802 9.2450
v 47.2089 -21.6802 7.2450
v 9.5568 -18.8069 8.8821
v 13.1301 -18.2493 9.0964
v 16.5624 -17.3479 8.5808
v 20.6562 -17.7941 9.7229
v 24.9806 -16.8762 8.6385
v 28.0098 -16.5329 8.8821
v 38.5968 -17.9399 8.5459
v 40.4010 -17.8204 8.5188
v 44.8249 -17.0435 8.5389
v 48.6510 -17.3616 7.3911
v 51.0220 -15.8159 7.0316
v 17.6508 -14.9090 7.6012
v 20.9298 -14.9796 7.6169
v 23.6811 -15.5172 7.1427
v 30.0098 -15.1045 8.8821
v 32.9298 -13.8458 8.8821
v 37.1289 -13.5077 8.4342
v 41.1668 -13.4430 9.0448
v 44.8547 -14.9268 8.6908
v 48.9298 -15.2238 7.3319
v 51.0220 -15.5164 7.0316
v 38.1033 -11.0336 9.8799
v 39.9914 -11.0336 9.8799
v -29.9576 7.6154 7.8973
v -27.9975 7.6154 7.8973
v -37.1332 12.1765 10.7389
v -34.7988 11.1785 9.1962
v -31.2026 9.1362 9.0913
v -26.8266 9.4833 9.0913
v -24.0442 11.4345 8.8821
v -45.2753 16.2304 10.7130
v -44.9268 16.2304 10.7130
v -37.4612 14.4816 9.1962
v -35.9511 13.2562 8.0722
v -22.0442 13.2479 8.8821
v -20.3081 15.2479 8.8821
v -49.1086 20.2763 7.4137
v -47.0808 18.9601 9.0634
v -44.5258 18.7143 9.1807
v -38.1666 18.0042 9.1184
v -36.2736 19.1271 10.6092
v -18.2718 18.2612 9.0442
v -15.0702 19.5631 7.8560
v -12.5404 20.0753 7.2438
v -49.1086 20.5956 7.4137
v -48.0896 22.0853 8.8011
v -42.4972 20.9085 8.8821
v -39.4134 20.9688 9.1184
v -36.2736 20.6165 10.6092
v -21.4030 23.9702 10.3062
v -18.8815 22.5101 10.0762
v -15.0702 22.3198 9.1841
v -11.9612 22.3198 7.7596
v -49.5161 27.3486 7.4134
v -47.0115 26.0357 8.8929
v -44.5166 27.3895 10.3724
v -21.4030 24.9412 10.3062
v -19.0702 25.1352 10.1721
v -15.0702 25.5820 10.2103
v -11.2162 26.5009 8.9294
v -8.4141 27.4649 7.5018
v -49.5735 30.3198 7.5114
v -46.8989 30.2858 9.4797
v -44.5166 28.9299 10.3724
v -10.5269 30.3198 9.6022
v -8.3932 30.3198 7.6022
v -49.2953 32.7719 7.1899
v -47.6845 34.1911 8.6668
v -41.5270 35.1989 10.3351
v -39.0702 34.9629 9.8576
v -36.1659 35.6315 10.0631
v -17.4748 35.4661 8.8821
v -16.7888 35.4661 8.8821
v -9.8702 34.3198 9.7251
v -8.3253 34.3198 7.7251
v -46.0522 37.1067 8.8821
v -42.9443 37.3900 8.9539
v -39.1478 38.3605 7.9648
v -34.6901 38.3851 8.7245
v -31.0702 38.2047 8.8821
v -27.1628 39.0402 9.0648
v -24.7783 39.8045 10.5200
v -17.4748 37.1950 8.8821
v -15.7141 38.2680 8.2783
v -10.6613 38.9108 8.6406
v -7.0222 38.4734 7.5335
v -4.8867 39.9092 7.1223
v -37.8662 40.8093 7.3859
v -35.8810 40.8093 7.3859
v -25.8913 40.7042 7.8533
v -23.2951 41.1612 9.0648
v -18.9318 42.5923 8.9739
v -15.3968 41.9816 8.5032
v -11.0663 41.4736 8.8582
v -7.0702 40.4923 7.1088
v -4.8867 40.5244 7.1223
v -17.5062 44.6535 10.3683
v -15.0702 44.5885 10.4652
v -13.0472 44.3443 10.8401
v 18.6908 -44.0952 11.1585
v 20.9298 -44.5233 11.4750
v 24.9298 -44.7713 11.5452
v 27.6507 -44.4259 11.2521
v 18.5472 -41.6802 11.2572
v 20.9298 -41.6802 11.7688
v 24.9298 -41.6802 12.3446
v 28.9624 -41.6096 11.9623
v 31.7094 -40.2291 11.4147
v 6.5989 -36.2163 11.3978
v 8.9298 -36.4623 11.7362
v 11.2385 -36.1870 11.5052
v 18.6587 -38.9517 11.1058
v 21.2497 -37.6431 11.1436
v 25.2061 -37.5640 13.1480
v 28.7203 -37.5640 13.7300
v 32.9976 -37.8274 11.8056
v 35.6550 -36.5922 11.2392
v 6.5989 -34.7500 11.3978
v 9.1742 -33.5221 11.7369
v 12.7150 -33.4658 12.1612
v 16.9298 -32.4787 12.3291
v 21.0933 -33.6595 12.5908
v 24.0569 -34.8833 13.5928
v 29.7871 -33.6802 14.0022
v 32.9298 -33.6802 12.3347
v 36.9649 -33.3921 11.1722
v 39.0414 -31.8667 10.9221
v 10.6704 -31.2328 11.1680
v 12.6361 -29.8117 12.5111
v 16.9298 -29.6802 13.8294
v 20.0131 -29.6802 14.0077
v 30.4221 -31.1902 14.3926
v 32.9014 -29.7862 13.3028
v 36.9298 -29.6802 11.3181
v 39.1006 -29.6802 10.9251
v 10.7313 -24.3903 10.9735
v 12.6361 -25.7063 11.7937
v 17.1781 -25.5905 13.8154
v 21.0855 -25.7020 14.3387
v 24.9298 -24.6476 14.1812
v 28.9298 -24.3632 14.0594
v 32.9014 -25.5686 13.1695
v 36.9298 -25.6802 11.5886
v 40.5995 -25.6355 11.2488
v 43.1552 -24.2723 11.0736
v 10.2693 -21.6802 11.1505
v 13.1301 -21.5882 11.2299
v 17.1781 -22.2359 12.6152
v 20.6989 -21.5533 12.8763
v 24.9298 -21.6802 12.9562
v 28.9298 -21.6802 12.9673
v 32.9298 -21.6802 12.5367
v 37.0916 -21.4574 11.6453
v 40.6663 -21.4574 11.9301
v 43.5280 -21.6802 11.8903
v 10.2476 -19.1447 11.1486
v 11.9303 -19.1447 11.1486
v 21.8071 -19.2033 11.4181
v 24.9298 -18.9801 11.6571
v 29.2410 -17.8062 11.7961
v 32.9872 -17.7230 13.5686
v 37.0916 -18.6359 12.9531
v 40.6663 -18.7726 13.1738
v 43.7282 -17.8597 13.1738
v 30.7818 -15.5071 11.1949
v 32.9872 -14.8403 12.6698
v 36.8339 -13.2230 12.9399
v 41.1668 -13.1613 12.9399
v 43.4986 -14.6831 12.8821
v 38.1033 -11.0336 11.6451
v 39.9914 -11.0336 11.6451
v -37.1332 12.1765 10.9553
v -35.0702 11.2480 11.4419
v -31.0702 10.6952 11.6069
v -27.0702 11.6008 11.1591
v -25.0010 12.2415 10.9583
v -45.2753 16.2304 11.1311
v -44.9268 16.2304 11.1311
v -37.1285 14.3198 10.9440
v -35.0702 14.3198 11.4759
v -31.0702 14.3198 12.0132
v -27.0702 14.3198 12.2915
v -23.4286 14.6428 11.5896
v -20.9120 16.1915 10.9809
v -46.0862 18.3198 11.5922
v -44.5581 18.3198 11.5922
v -37.0849 16.4604 10.8915
v -34.9922 18.0042 11.0049
v -30.7431 18.6239 12.9027
v -27.3415 18.6239 13.8822
v -23.0702 18.3198 12.6584
v -20.2157 18.3198 11.2875
v -46.0965 22.3198 11.6803
v -43.1873 22.4648 12.7476
v -39.0267 23.0718 12.8813
v -35.1775 22.0086 12.6278
v -31.8584 20.7340 13.7081
v -26.1891 21.1530 14.3724
v -23.1442 22.5616 12.8482
v -20.0890 21.3036 11.3239
v -45.2890 24.7229 11.2485
v -43.1802 26.2604 12.7859
v -39.0267 26.4067 13.7121
v -35.2769 26.6469 13.9176
v -32.5637 28.1983 14.6658
v -22.2163 26.2927 12.9575
v -19.0702 27.1352 11.6230
v -15.0702 27.5820 11.0617
v -12.9779 28.2036 10.9261
v -45.4513 31.5965 11.1235
v -43.1380 30.2858 11.5260
v -38.6942 30.6685 13.3472
v -35.0741 30.6685 14.2582
v -31.1663 30.1744 14.3251
v -27.0702 31.0646 13.8542
v -22.9274 30.2611 13.4057
v -19.0702 30.3198 11.8107
v -15.0702 30.3198 11.5936
v -12.5269 30.3198 11.3887
v -45.8683 34.3198 11.3645
v -42.9443 34.0472 11.3023
v -38.6942 32.8668 12.5165
v -34.9547 34.0028 12.9704
v -31.0702 34.3198 12.7618
v -27.0702 34.3198 12.4102
v -22.7176 34.6749 13.2104
v -19.1264 34.4442 12.3406
v -15.5037 34.1921 12.5700
v -11.8321 34.3723 12.8610
v -45.7532 36.8993 11.2839
v -44.1937 36.8993 11.2839
v -33.4993 36.5496 11.1590
v -31.0702 36.7037 11.2958
v -27.0702 37.1449 11.4382
v -22.9638 38.4041 13.0841
v -19.1264 38.1922 13.3104
v -16.4005 38.1563 13.0338
v -11.2907 38.3198 12.8821
v -22.1117 40.9342 12.1527
v -18.9318 42.2884 12.5213
v -15.0802 42.0869 13.3812
v -12.4917 42.0869 12.5043
v -17.5062 44.6535 11.4242
v -15.0702 44.5885 11.3164
v -13.0472 44.3443 10.9191
v 26.7236 -36.1532 14.9971
v 27.2473 -36.1532 14.9971
v 22.0569 -32.2166 15.7153
v 25.2061 -33.6021 15.6885
v 27.7871 -33.6802 15.2653
v 22.0131 -29.6802 15.6836
v 24.9298 -29.6802 16.3792
v 29.0252 -29.7862 15.6599
v 31.5490 -28.5235 15.2508
v 18.6769 -24.1973 15.0813
v 21.0855 -25.7020 15.0994
v 24.9298 -26.6476 15.4574
v 28.9298 -26.3632 15.5573
v 31.5490 -26.8275 15.2508
v 18.6769 -23.2586 15.0813
v 19.5906 -23.2586 15.0813
v 34.3588 -16.4182 15.1101
v 36.9298 -16.5501 15.1767
v 40.9298 -16.7211 15.3035
v 43.1237 -16.6461 15.2792
v 34.3588 -15.4442 15.1101
v 36.9298 -15.3516 15.1767
v 40.9298 -15.3281 15.3035
v 43.1237 -15.4129 15.2792
v -29.1917 20.1600 14.9313
v -28.8558 20.1600 14.9313
v -41.8437 23.8959 15.4054
v -40.3311 23.8959 15.4054
v -34.0815 23.4007 16.1718
v -30.7431 22.1683 15.9194
v -27.3415 22.4197 15.2296
v -24.8854 23.8197 15.0222
v -41.8437 25.1313 15.4054
v -40.3311 25.1313 15.4054
v -34.0815 25.5316 16.1718
v -31.1663 26.6469 16.0107
v -27.0702 26.3198 15.6286
v -24.2532 26.3198 15.1852
v -37.1102 32.2342 14.9179
v -36.4101 32.2342 14.9179
v -29.8971 28.7441 15.0836
v -27.0702 29.0646 15.2312
v -24.1656 28.8886 15.1461
v -37.1102 32.3740 14.9179
v -36.4101 32.3740 14.9179
v -21.1492 36.2450 14.9113
v -20.7570 36.2450 14.9113
v -14.1681 35.7407 15.5842
v -12.6067 35.7407 15.5842
v -21.1492 37.0037 14.9113
v -20.7570 37.0037 14.9113
v -14.4062 38.3198 15.6739
v -12.5560 38.3198 15.6739
v -13.7536 40.5983 15.2358
v -12.8480 40.5983 15.2358
f 4 2 1
f 4 5 2
f 5 3 2
f 5 6 3
f 8 6 5
f 8 9 6
f 9 7 6
f 9 10 7
f 14 12 11
f 14 15 12
f 18 13 17
f 18 14 13
f 18 15 14
f 18 19 15
f 19 16 15
f 19 20 16
f 22 20 19
f 22 23 20
f 23 21 20
f 23 24 21
f 2 25 1
f 2 26 25
f 3 26 2
f 3 27 26
f 29 1 25
f 29 4 1
f 30 5 4
f 30 4 29
f 31 27 3
f 31 3 6
f 7 31 6
f 7 32 31
f 31 28 27
f 31 32 28
f 30 8 5
f 30 33 8
f 34 9 8
f 34 8 33
f 35 32 7
f 35 7 10
f 35 10 9
f 35 9 34
f 12 36 11
f 12 37 36
f 36 14 11
f 36 39 14
f 14 38 13
f 14 39 38
f 40 37 12
f 40 12 15
f 40 39 36
f 40 36 37
f 41 15 16
f 41 40 15
f 38 17 13
f 38 42 17
f 18 17 42
f 18 42 43
f 43 42 38
f 43 38 39
f 44 19 18
f 44 18 43
f 45 41 16
f 45 16 20
f 46 20 21
f 46 45 20
f 44 22 19
f 44 48 22
f 47 44 43
f 47 48 44
f 49 23 22
f 49 22 48
f 46 21 24
f 46 24 50
f 50 24 23
f 50 23 49
f 49 45 46
f 49 46 50
f 55 52 51
f 55 56 52
f 57 54 53
f 57 58 54
f 59 25 26
f 59 58 25
f 27 59 26
f 27 60 59
f 28 60 27
f 28 61 60
f 63 25 58
f 63 29 25
f 62 58 57
f 62 63 58
f 64 30 29
f 64 29 63
f 65 61 28
f 65 28 32
f 64 33 30
f 64 66 33
f 34 33 66
f 34 66 67
f 68 65 32
f 68 32 35
f 68 35 34
f 68 34 67
f 70 66 69
f 70 67 66
f 74 71 73
f 74 72 71
f 79 74 73
f 79 80 74
f 81 76 75
f 81 82 76
f 82 77 76
f 82 83 77
f 40 83 39
f 40 84 83
f 83 78 77
f 83 84 78
f 85 40 41
f 85 84 40
f 83 43 39
f 83 87 43
f 86 83 82
f 86 87 83
f 88 85 41
f 88 41 45
f 87 47 43
f 87 89 47
f 90 48 47
f 90 47 89
f 88 45 49
f 88 49 91
f 91 49 48
f 91 48 90
f 93 89 92
f 93 90 89
f 52 96 51
f 52 97 96
f 54 99 53
f 54 100 99
f 102 94 101
f 102 95 94
f 96 55 51
f 96 103 55
f 103 95 102
f 103 96 95
f 97 52 56
f 97 56 104
f 56 55 103
f 56 103 104
f 105 97 104
f 105 98 97
f 106 53 99
f 106 57 53
f 107 100 54
f 107 54 58
f 107 106 99
f 107 99 100
f 108 58 59
f 108 107 58
f 108 100 107
f 108 101 100
f 109 59 60
f 109 108 59
f 109 101 108
f 109 102 101
f 61 109 60
f 61 110 109
f 109 103 102
f 109 110 103
f 111 103 110
f 111 104 103
f 112 57 106
f 112 62 57
f 63 62 112
f 63 112 113
f 112 106 107
f 112 107 113
f 64 63 113
f 64 113 114
f 113 107 108
f 113 108 114
f 115 110 61
f 115 61 65
f 117 64 114
f 117 66 64
f 116 114 113
f 116 117 114
f 115 65 68
f 115 68 119
f 119 68 67
f 119 67 118
f 120 66 117
f 120 69 66
f 118 67 70
f 118 70 121
f 70 69 120
f 70 120 121
f 120 117 118
f 120 118 121
f 122 118 121
f 122 119 118
f 72 123 71
f 72 124 123
f 123 73 71
f 123 127 73
f 124 72 74
f 124 74 128
f 127 123 124
f 127 124 128
f 76 130 75
f 76 131 130
f 77 131 76
f 77 132 131
f 78 132 77
f 78 133 132
f 133 125 132
f 133 126 125
f 127 79 73
f 127 134 79
f 134 126 133
f 134 127 126
f 128 74 80
f 128 80 135
f 80 79 134
f 80 134 135
f 135 129 128
f 135 136 129
f 130 81 75
f 130 137 81
f 82 81 137
f 82 137 138
f 137 130 131
f 137 131 138
f 140 133 78
f 140 78 84
f 85 140 84
f 85 141 140
f 140 134 133
f 140 141 134
f 142 134 141
f 142 135 134
f 143 82 138
f 143 86 82
f 87 86 143
f 87 143 144
f 143 138 139
f 143 139 144
f 141 85 88
f 141 88 146
f 144 89 87
f 144 148 89
f 148 144 145
f 148 145 149
f 146 88 91
f 146 91 150
f 91 90 149
f 91 149 150
f 151 146 150
f 151 147 146
f 148 92 89
f 148 152 92
f 149 90 93
f 149 93 153
f 93 92 152
f 93 152 153
f 152 148 149
f 152 149 153
f 154 149 153
f 154 150 149
f 160 94 95
f 160 159 94
f 160 155 159
f 160 156 155
f 161 95 96
f 161 160 95
f 160 157 156
f 160 161 157
f 97 161 96
f 97 162 161
f 161 158 157
f 161 162 158
f 98 162 97
f 98 163 162
f 165 94 159
f 165 101 94
f 101 164 100
f 101 165 164
f 169 163 98
f 169 98 105
f 105 104 168
f 105 168 169
f 170 100 164
f 170 107 100
f 171 108 107
f 171 107 170
f 172 166 167
f 172 167 173
f 168 104 111
f 168 111 174
f 111 110 173
f 111 173 174
f 174 173 167
f 174 167 168
f 171 114 108
f 171 176 114
f 176 113 114
f 176 175 113
f 175 171 170
f 175 176 171
f 177 173 110
f 177 110 115
f 177 174 173
f 177 178 174
f 175 116 113
f 175 180 116
f 181 117 116
f 181 116 180
f 182 118 117
f 182 117 181
f 177 115 119
f 177 119 183
f 183 178 177
f 183 184 178
f 186 179 185
f 186 180 179
f 186 181 180
f 186 187 181
f 182 121 118
f 182 188 121
f 187 182 181
f 187 188 182
f 183 119 122
f 183 122 189
f 122 121 188
f 122 188 189
f 190 183 189
f 190 184 183
f 193 188 187
f 193 194 188
f 195 192 191
f 195 196 192
f 203 125 126
f 203 202 125
f 204 126 127
f 204 203 126
f 204 197 203
f 204 198 197
f 128 204 127
f 128 205 204
f 205 198 204
f 205 199 198
f 129 205 128
f 129 206 205
f 205 200 199
f 205 206 200
f 208 125 202
f 208 132 125
f 132 207 131
f 132 208 207
f 208 201 207
f 208 202 201
f 211 206 129
f 211 129 136
f 136 135 210
f 136 210 211
f 214 131 207
f 214 138 131
f 139 138 214
f 139 214 215
f 210 135 142
f 210 142 217
f 142 141 216
f 142 216 217
f 217 216 209
f 217 209 210
f 218 213 212
f 218 219 213
f 221 139 215
f 221 144 139
f 220 215 214
f 220 221 215
f 145 144 221
f 145 221 222
f 223 216 141
f 223 141 146
f 147 223 146
f 147 224 223
f 223 217 216
f 223 224 217
f 226 220 225
f 226 221 220
f 227 145 222
f 227 149 145
f 226 222 221
f 226 227 222
f 229 224 147
f 229 147 151
f 151 150 228
f 151 228 229
f 232 226 225
f 232 233 226
f 227 153 149
f 227 234 153
f 233 227 226
f 233 234 227
f 228 150 154
f 228 154 235
f 154 153 234
f 154 234 235
f 236 231 230
f 236 237 231
f 238 235 234
f 238 239 235
f 240 237 236
f 240 241 237
f 156 246 155
f 156 247 246
f 248 156 157
f 248 247 156
f 248 242 247
f 248 243 242
f 158 248 157
f 158 249 248
f 248 244 243
f 248 249 244
f 250 244 249
f 250 245 244
f 252 155 246
f 252 159 155
f 253 249 158
f 253 158 162
f 163 253 162
f 163 254 253
f 253 250 249
f 253 254 250
f 257 159 252
f 257 165 159
f 257 164 165
f 257 256 164
f 257 251 256
f 257 252 251
f 259 167 166
f 259 166 258
f 260 168 167
f 260 167 259
f 261 254 163
f 261 163 169
f 169 168 260
f 169 260 261
f 265 164 256
f 265 170 164
f 265 255 264
f 265 256 255
f 258 166 172
f 258 172 266
f 267 172 173
f 267 266 172
f 266 259 258
f 266 267 259
f 174 267 173
f 174 268 267
f 267 260 259
f 267 268 260
f 269 260 268
f 269 261 260
f 269 262 261
f 269 270 262
f 270 263 262
f 270 271 263
f 273 170 265
f 273 175 170
f 273 264 272
f 273 265 264
f 268 174 178
f 268 178 274
f 274 269 268
f 274 275 269
f 276 269 275
f 276 270 269
f 277 270 276
f 277 271 270
f 273 180 175
f 273 279 180
f 279 179 180
f 279 278 179
f 279 272 278
f 279 273 272
f 280 274 178
f 280 178 184
f 281 274 280
f 281 275 274
f 283 179 278
f 283 185 179
f 186 185 283
f 186 283 284
f 285 187 186
f 285 186 284
f 189 188 286
f 189 286 287
f 280 184 190
f 280 190 288
f 190 189 287
f 190 287 288
f 289 280 288
f 289 281 280
f 289 282 281
f 289 290 282
f 291 191 192
f 291 290 191
f 285 193 187
f 285 293 193
f 292 285 284
f 292 293 285
f 286 188 194
f 286 194 294
f 294 194 193
f 294 193 293
f 295 286 294
f 295 287 286
f 296 287 295
f 296 288 287
f 296 289 288
f 296 297 289
f 298 191 290
f 298 195 191
f 298 289 297
f 298 290 289
f 291 192 196
f 291 196 299
f 299 196 195
f 299 195 298
f 298 290 291
f 298 291 299
f 300 294 293
f 300 301 294
f 302 296 295
f 302 303 296
f 304 296 303
f 304 297 296
f 311 197 198
f 311 310 197
f 311 305 310
f 311 306 305
f 312 198 199
f 312 311 198
f 312 306 311
f 312 307 306
f 200 312 199
f 200 313 312
f 312 308 307
f 312 313 308
f 315 201 202
f 315 314 201
f 316 197 310
f 316 203 197
f 316 202 203
f 316 315 202
f 316 309 315
f 316 310 309
f 317 313 200
f 317 200 206
f 321 201 314
f 321 207 201
f 210 209 322
f 210 322 323
f 317 206 211
f 317 211 324
f 211 210 323
f 211 323 324
f 324 318 317
f 324 325 318
f 213 325 212
f 213 326 325
f 326 318 325
f 326 319 318
f 328 207 321
f 328 214 207
f 328 320 327
f 328 321 320
f 329 322 209
f 329 209 216
f 217 329 216
f 217 330 329
f 329 323 322
f 329 330 323
f 325 218 212
f 325 332 218
f 332 324 331
f 332 325 324
f 333 326 213
f 333 213 219
f 219 218 332
f 219 332 333
f 328 220 214
f 328 335 220
f 335 327 334
f 335 328 327
f 336 330 217
f 336 217 224
f 336 331 330
f 336 337 331
f 338 331 337
f 338 332 331
f 339 332 338
f 339 333 332
f 335 225 220
f 335 341 225
f 340 335 334
f 340 341 335
f 336 224 229
f 336 229 343
f 229 228 342
f 229 342 343
f 344 336 343
f 344 337 336
f 346 230 231
f 346 345 230
f 341 232 225
f 341 347 232
f 233 232 347
f 233 347 348
f 349 234 233
f 349 233 348
f 342 228 235
f 342 235 350
f 351 342 350
f 351 343 342
f 352 343 351
f 352 344 343
f 353 230 345
f 353 236 230
f 352 345 344
f 352 353 345
f 354 346 231
f 354 231 237
f 349 238 234
f 349 356 238
f 355 349 348
f 355 356 349
f 350 235 239
f 350 239 357
f 239 238 356
f 239 356 357
f 358 350 357
f 358 351 350
f 359 351 358
f 359 352 351
f 353 240 236
f 353 360 240
f 360 352 359
f 360 353 352
f 361 354 237
f 361 237 241
f 361 241 240
f 361 240 360
f 361 360 353
f 361 353 354
f 363 355 362
f 363 356 355
f 364 356 363
f 364 357 356
f 366 358 365
f 366 359 358
f 368 242 243
f 368 367 242
f 244 368 243
f 244 369 368
f 370 244 245
f 370 369 244
f 372 242 367
f 372 247 242
f 247 371 246
f 247 372 371
f 370 245 250
f 370 250 374
f 374 373 369
f 374 369 370
f 371 252 246
f 371 378 252
f 378 251 252
f 378 377 251
f 379 378 371
f 379 371 372
f 381 374 250
f 381 250 254
f 380 373 374
f 380 374 381
f 384 375 383
f 384 376 375
f 386 251 377
f 386 256 251
f 386 255 256
f 386 385 255
f 387 381 254
f 387 254 261
f 262 387 261
f 262 388 387
f 387 382 381
f 387 388 382
f 263 388 262
f 263 389 388
f 389 382 388
f 389 383 382
f 390 383 389
f 390 384 383
f 385 264 255
f 385 392 264
f 393 389 263
f 393 263 271
f 393 390 389
f 393 394 390
f 392 272 264
f 392 396 272
f 396 391 395
f 396 392 391
f 276 275 397
f 276 397 398
f 393 271 277
f 393 277 399
f 277 276 398
f 277 398 399
f 400 393 399
f 400 394 393
f 402 272 396
f 402 278 272
f 402 395 401
f 402 396 395
f 403 397 275
f 403 275 281
f 282 403 281
f 282 404 403
f 402 283 278
f 402 407 283
f 407 401 406
f 407 402 401
f 408 284 283
f 408 283 407
f 409 404 282
f 409 282 290
f 409 405 404
f 409 410 405
f 412 406 411
f 412 407 406
f 408 292 284
f 408 413 292
f 412 408 407
f 412 413 408
f 414 293 292
f 414 292 413
f 295 294 415
f 295 415 416
f 409 290 298
f 409 298 419
f 419 298 297
f 419 297 418
f 419 410 409
f 419 420 410
f 414 300 293
f 414 421 300
f 415 294 301
f 415 301 422
f 301 300 421
f 301 421 422
f 416 302 295
f 416 423 302
f 423 415 422
f 423 416 415
f 424 303 302
f 424 302 423
f 423 416 417
f 423 417 424
f 418 297 304
f 418 304 425
f 425 304 303
f 425 303 424
f 426 420 419
f 426 427 420
f 429 305 306
f 429 428 305
f 307 429 306
f 307 430 429
f 308 430 307
f 308 431 430
f 433 305 428
f 433 310 305
f 433 309 310
f 433 432 309
f 434 431 308
f 434 308 313
f 438 309 432
f 438 315 309
f 438 314 315
f 438 437 314
f 439 434 313
f 439 313 317
f 318 439 317
f 318 440 439
f 319 440 318
f 319 441 440
f 442 435 441
f 442 436 435
f 444 314 437
f 444 321 314
f 444 320 321
f 444 443 320
f 446 324 323
f 446 323 445
f 447 441 319
f 447 319 326
f 447 442 441
f 447 448 442
f 449 320 443
f 449 327 320
f 450 445 323
f 450 323 330
f 446 331 324
f 446 451 331
f 331 450 330
f 331 451 450
f 450 446 445
f 450 451 446
f 452 447 326
f 452 326 333
f 453 447 452
f 453 448 447
f 449 334 327
f 449 455 334
f 338 337 456
f 338 456 457
f 452 333 339
f 452 339 458
f 339 338 457
f 339 457 458
f 459 452 458
f 459 453 452
f 455 340 334
f 455 461 340
f 461 454 460
f 461 455 454
f 462 341 340
f 462 340 461
f 463 456 337
f 463 337 344
f 345 463 344
f 345 464 463
f 464 456 463
f 464 457 456
f 465 345 346
f 465 464 345
f 466 461 460
f 466 467 461
f 462 347 341
f 462 468 347
f 467 462 461
f 467 468 462
f 469 348 347
f 469 347 468
f 471 465 346
f 471 346 354
f 354 353 470
f 354 470 471
f 472 468 467
f 472 473 468
f 469 355 348
f 469 474 355
f 473 469 468
f 473 474 469
f 358 357 475
f 358 475 476
f 470 353 360
f 470 360 478
f 478 360 359
f 478 359 477
f 479 470 478
f 479 471 470
f 474 362 355
f 474 480 362
f 481 363 362
f 481 362 480
f 475 357 364
f 475 364 482
f 364 363 481
f 364 481 482
f 476 365 358
f 476 483 365
f 484 477 359
f 484 359 366
f 366 365 483
f 366 483 484
f 484 483 476
f 484 476 477
f 485 479 478
f 485 486 479
f 491 487 490
f 491 488 487
f 494 367 368
f 494 493 367
f 494 489 493
f 494 490 489
f 495 368 369
f 495 494 368
f 494 491 490
f 494 495 491
f 497 367 493
f 497 372 367
f 497 492 496
f 497 493 492
f 498 495 369
f 498 369 373
f 376 500 375
f 376 501 500
f 504 377 378
f 504 503 377
f 497 379 372
f 497 505 379
f 379 504 378
f 379 505 504
f 506 498 373
f 506 373 380
f 507 380 381
f 507 506 380
f 506 499 498
f 506 507 499
f 382 507 381
f 382 508 507
f 500 383 375
f 500 509 383
f 383 508 382
f 383 509 508
f 501 376 384
f 501 384 510
f 510 509 500
f 510 500 501
f 513 377 503
f 513 386 377
f 513 385 386
f 513 512 385
f 513 502 512
f 513 503 502
f 510 384 390
f 510 390 514
f 517 385 512
f 517 392 385
f 517 391 392
f 517 516 391
f 517 511 516
f 517 512 511
f 519 514 390
f 519 390 394
f 521 391 516
f 521 395 391
f 521 515 520
f 521 516 515
f 398 397 522
f 398 522 523
f 524 399 398
f 524 398 523
f 525 519 394
f 525 394 400
f 525 400 399
f 525 399 524
f 525 524 518
f 525 518 519
f 521 401 395
f 521 527 401
f 526 521 520
f 526 527 521
f 528 522 397
f 528 397 403
f 529 403 404
f 529 528 403
f 528 523 522
f 528 529 523
f 405 529 404
f 405 530 529
f 529 524 523
f 529 530 524
f 527 406 401
f 527 532 406
f 535 530 405
f 535 405 410
f 536 530 535
f 536 531 530
f 537 406 532
f 537 411 406
f 538 412 411
f 538 411 537
f 539 413 412
f 539 412 538
f 414 413 539
f 414 539 540
f 417 416 542
f 417 542 543
f 545 419 418
f 545 418 544
f 545 544 533
f 545 533 534
f 546 535 410
f 546 410 420
f 546 545 534
f 546 534 535
f 547 414 540
f 547 421 414
f 548 422 421
f 548 421 547
f 547 540 541
f 547 541 548
f 549 542 416
f 549 416 423
f 549 423 422
f 549 422 548
f 549 548 541
f 549 541 542
f 550 417 543
f 550 424 417
f 551 544 418
f 551 418 425
f 425 424 550
f 425 550 551
f 545 426 419
f 545 552 426
f 546 420 427
f 546 427 553
f 427 426 552
f 427 552 553
f 552 545 546
f 552 546 553
f 559 554 558
f 559 555 554
f 560 557 556
f 560 561 557
f 562 428 429
f 562 561 428
f 562 557 561
f 562 558 557
f 430 562 429
f 430 563 562
f 562 559 558
f 562 563 559
f 564 430 431
f 564 563 430
f 561 433 428
f 561 568 433
f 568 432 433
f 568 567 432
f 568 560 567
f 568 561 560
f 564 431 434
f 564 434 569
f 436 571 435
f 436 572 571
f 573 566 565
f 573 574 566
f 575 432 567
f 575 438 432
f 438 574 437
f 438 575 574
f 575 566 574
f 575 567 566
f 576 575 567
f 576 567 568
f 577 569 434
f 577 434 439
f 440 577 439
f 440 578 577
f 577 570 569
f 577 578 570
f 579 435 571
f 579 441 435
f 441 578 440
f 441 579 578
f 572 436 442
f 572 442 580
f 579 571 572
f 579 572 580
f 582 437 574
f 582 444 437
f 582 443 444
f 582 581 443
f 582 573 581
f 582 574 573
f 583 580 442
f 583 442 448
f 585 443 581
f 585 449 443
f 588 583 448
f 588 448 453
f 591 449 585
f 591 455 449
f 591 454 455
f 591 590 454
f 591 584 590
f 591 585 584
f 458 457 592
f 458 592 593
f 593 592 586
f 593 586 587
f 594 588 453
f 594 453 459
f 594 459 458
f 594 458 593
f 594 593 587
f 594 587 588
f 596 454 590
f 596 460 454
f 595 590 589
f 595 596 590
f 597 592 457
f 597 457 464
f 465 597 464
f 465 598 597
f 597 593 592
f 597 598 593
f 596 466 460
f 596 600 466
f 601 467 466
f 601 466 600
f 605 598 465
f 605 465 471
f 605 599 598
f 605 606 599
f 601 472 467
f 601 607 472
f 608 473 472
f 608 472 607
f 609 474 473
f 609 473 608
f 610 609 602
f 610 602 603
f 612 476 475
f 612 475 611
f 477 476 612
f 477 612 613
f 614 478 477
f 614 477 613
f 615 605 471
f 615 471 479
f 615 614 604
f 615 604 605
f 616 474 609
f 616 480 474
f 481 480 616
f 481 616 617
f 616 609 610
f 616 610 617
f 618 611 475
f 618 475 482
f 618 482 481
f 618 481 617
f 618 617 610
f 618 610 611
f 619 478 614
f 619 485 478
f 615 479 486
f 615 486 620
f 486 485 619
f 486 619 620
f 619 614 615
f 619 615 620
f 488 621 487
f 488 622 621
f 621 490 487
f 621 624 490
f 624 489 490
f 624 623 489
f 625 622 488
f 625 488 491
f 625 624 621
f 625 621 622
f 627 489 623
f 627 493 489
f 627 492 493
f 627 626 492
f 629 625 491
f 629 491 495
f 628 624 625
f 628 625 629
f 626 496 492
f 626 631 496
f 632 497 496
f 632 496 631
f 633 629 495
f 633 495 498
f 499 633 498
f 499 634 633
f 638 502 503
f 638 637 502
f 639 503 504
f 639 638 503
f 639 630 638
f 639 631 630
f 632 505 497
f 632 640 505
f 640 504 505
f 640 639 504
f 639 632 631
f 639 640 632
f 641 634 499
f 641 499 507
f 508 641 507
f 508 642 641
f 643 508 509
f 643 642 508
f 644 509 510
f 644 643 509
f 645 636 635
f 645 646 636
f 647 502 637
f 647 512 502
f 647 511 512
f 647 646 511
f 648 647 637
f 648 637 638
f 649 642 643
f 649 643 650
f 644 510 514
f 644 514 651
f 651 650 643
f 651 643 644
f 653 511 646
f 653 516 511
f 653 515 516
f 653 652 515
f 653 645 652
f 653 646 645
f 651 514 519
f 651 519 655
f 655 519 518
f 655 518 654
f 654 650 651
f 654 651 655
f 656 515 652
f 656 520 515
f 657 654 518
f 657 518 524
f 658 654 657
f 658 655 654
f 656 526 520
f 656 659 526
f 660 527 526
f 660 526 659
f 663 657 524
f 663 524 530
f 531 663 530
f 531 664 663
f 663 658 657
f 663 664 658
f 660 532 527
f 660 665 532
f 671 534 533
f 671 533 670
f 671 670 661
f 671 661 662
f 672 535 534
f 672 534 671
f 664 531 536
f 664 536 673
f 536 535 672
f 536 672 673
f 675 532 665
f 675 537 532
f 538 537 675
f 538 675 676
f 675 665 666
f 675 666 676
f 539 538 676
f 539 676 677
f 676 666 667
f 676 667 677
f 678 540 539
f 678 539 677
f 541 540 678
f 541 678 679
f 680 542 541
f 680 541 679
f 679 668 669
f 679 669 680
f 681 543 542
f 681 542 680
f 682 670 533
f 682 533 544
f 683 673 672
f 683 684 673
f 684 674 673
f 684 685 674
f 686 543 681
f 686 550 543
f 687 682 544
f 687 544 551
f 551 550 686
f 551 686 687
f 687 686 681
f 687 681 682
f 555 688 554
f 555 689 688
f 557 690 556
f 557 691 690
f 688 558 554
f 688 692 558
f 692 557 558
f 692 691 557
f 693 689 555
f 693 555 559
f 693 692 688
f 693 688 689
f 690 560 556
f 690 694 560
f 695 694 690
f 695 690 691
f 693 559 563
f 693 563 697
f 696 692 693
f 696 693 697
f 698 563 564
f 698 697 563
f 566 699 565
f 566 700 699
f 701 560 694
f 701 567 560
f 701 566 567
f 701 700 566
f 702 568 567
f 702 567 701
f 698 564 569
f 698 569 704
f 703 697 698
f 703 698 704
f 705 569 570
f 705 704 569
f 699 573 565
f 699 708 573
f 709 708 699
f 709 699 700
f 710 701 567
f 710 567 575
f 702 576 568
f 702 711 576
f 576 710 575
f 576 711 710
f 710 702 701
f 710 711 702
f 705 570 578
f 705 578 713
f 712 704 705
f 712 705 713
f 579 713 578
f 579 714 713
f 715 579 580
f 715 714 579
f 716 707 706
f 716 717 707
f 718 573 708
f 718 581 573
f 718 707 717
f 718 708 707
f 719 718 708
f 719 708 709
f 715 580 583
f 715 583 721
f 720 714 715
f 720 715 721
f 724 581 718
f 724 585 581
f 724 584 585
f 724 723 584
f 724 717 723
f 724 718 717
f 587 586 725
f 587 725 726
f 721 583 588
f 721 588 727
f 727 588 587
f 727 587 726
f 727 726 720
f 727 720 721
f 729 584 723
f 729 590 584
f 729 589 590
f 729 728 589
f 729 722 728
f 729 723 722
f 730 725 586
f 730 586 592
f 593 730 592
f 593 731 730
f 731 725 730
f 731 726 725
f 732 726 731
f 732 727 726
f 733 589 728
f 733 595 589
f 734 596 595
f 734 595 733
f 737 731 593
f 737 593 598
f 599 737 598
f 599 738 737
f 737 732 731
f 737 738 732
f 734 600 596
f 734 739 600
f 601 600 739
f 601 739 740
f 603 602 742
f 603 742 743
f 745 735 736
f 745 736 746
f 747 605 604
f 747 604 746
f 738 599 606
f 738 606 748
f 606 605 747
f 606 747 748
f 750 601 740
f 750 607 601
f 608 607 750
f 608 750 751
f 750 740 741
f 750 741 751
f 752 742 602
f 752 602 609
f 752 609 608
f 752 608 751
f 753 603 743
f 753 610 603
f 611 610 753
f 611 753 754
f 753 743 744
f 753 744 754
f 755 612 611
f 755 611 754
f 613 612 755
f 613 755 756
f 757 746 604
f 757 604 614
f 757 614 613
f 757 613 756
f 758 748 747
f 758 759 748
f 759 749 748
f 759 760 749
f 762 623 624
f 762 761 623
f 761 627 623
f 761 765 627
f 765 626 627
f 765 764 626
f 762 624 628
f 762 628 766
f 765 761 762
f 765 762 766
f 767 628 629
f 767 766 628
f 769 626 764
f 769 631 626
f 769 630 631
f 769 768 630
f 769 763 768
f 769 764 763
f 767 629 633
f 767 633 771
f 770 766 767
f 770 767 771
f 772 633 634
f 772 771 633
f 636 773 635
f 636 774 773
f 776 630 768
f 776 638 630
f 772 634 641
f 772 641 779
f 778 771 772
f 778 772 779
f 780 641 642
f 780 779 641
f 781 635 773
f 781 645 635
f 782 774 636
f 782 636 646
f 783 646 647
f 783 782 646
f 782 775 774
f 782 783 775
f 776 648 638
f 776 784 648
f 648 783 647
f 648 784 783
f 785 784 776
f 785 776 777
f 780 642 649
f 780 649 787
f 786 779 780
f 786 780 787
f 788 649 650
f 788 787 649
f 789 645 781
f 789 652 645
f 790 789 781
f 790 781 782
f 788 650 654
f 788 654 793
f 792 787 788
f 792 788 793
f 794 654 655
f 794 793 654
f 795 652 789
f 795 656 652
f 796 795 789
f 796 789 790
f 797 796 790
f 797 790 791
f 798 792 793
f 798 793 799
f 794 655 658
f 794 658 800
f 799 793 794
f 799 794 800
f 801 656 795
f 801 659 656
f 660 659 801
f 660 801 802
f 802 801 795
f 802 795 796
f 807 662 661
f 807 661 806
f 809 800 658
f 809 658 664
f 808 799 800
f 808 800 809
f 810 660 802
f 810 665 660
f 666 665 810
f 666 810 811
f 667 666 811
f 667 811 812
f 812 811 803
f 812 803 804
f 812 804 805
f 812 805 813
f 815 669 668
f 815 668 814
f 816 806 661
f 816 661 670
f 817 662 807
f 817 671 662
f 818 672 671
f 818 671 817
f 809 664 673
f 809 673 819
f 818 808 809
f 818 809 819
f 674 819 673
f 674 820 819
f 821 667 812
f 821 677 667
f 678 677 821
f 678 821 822
f 821 812 813
f 821 813 822
f 823 814 668
f 823 668 679
f 823 679 678
f 823 678 822
f 823 822 813
f 823 813 814
f 824 669 815
f 824 680 669
f 681 680 824
f 681 824 825
f 826 816 670
f 826 670 682
f 682 681 825
f 682 825 826
f 827 816 826
f 827 817 816
f 818 683 672
f 818 828 683
f 827 818 817
f 827 828 818
f 829 684 683
f 829 683 828
f 829 828 818
f 829 818 819
f 820 674 685
f 820 685 830
f 685 684 829
f 685 829 830
f 829 819 820
f 829 820 830
f 831 827 826
f 831 832 827
f 692 833 691
f 692 834 833
f 833 695 691
f 833 837 695
f 695 836 694
f 695 837 836
f 834 692 696
f 834 696 838
f 837 833 834
f 837 834 838
f 839 696 697
f 839 838 696
f 843 694 836
f 843 701 694
f 843 700 701
f 843 842 700
f 843 835 842
f 843 836 835
f 839 697 703
f 839 703 844
f 845 703 704
f 845 844 703
f 707 846 706
f 707 847 846
f 848 707 708
f 848 847 707
f 848 840 847
f 848 841 840
f 849 700 842
f 849 709 700
f 845 704 712
f 845 712 851
f 852 712 713
f 852 851 712
f 853 713 714
f 853 852 713
f 846 716 706
f 846 854 716
f 717 716 854
f 717 854 855
f 855 854 846
f 855 846 847
f 856 848 708
f 856 708 718
f 857 709 849
f 857 719 709
f 719 856 718
f 719 857 856
f 858 857 849
f 858 849 850
f 861 860 851
f 861 851 852
f 853 714 720
f 853 720 862
f 861 852 853
f 861 853 862
f 864 717 855
f 864 723 717
f 723 863 722
f 723 864 863
f 867 866 859
f 867 859 860
f 868 867 860
f 868 860 861
f 869 862 720
f 869 720 726
f 868 861 862
f 868 862 869
f 870 726 727
f 870 869 726
f 871 722 863
f 871 728 722
f 872 871 863
f 872 863 864
f 872 864 865
f 872 865 873
f 870 727 732
f 870 732 875
f 874 869 870
f 874 870 875
f 871 733 728
f 871 876 733
f 734 733 876
f 734 876 877
f 876 871 872
f 876 872 877
f 882 736 735
f 882 735 881
f 884 875 732
f 884 732 738
f 883 874 875
f 883 875 884
f 885 734 877
f 885 739 734
f 886 740 739
f 886 739 885
f 741 740 886
f 741 886 887
f 887 886 878
f 887 878 879
f 887 879 880
f 887 880 888
f 889 743 742
f 889 742 888
f 744 743 889
f 744 889 890
f 892 881 735
f 892 735 745
f 893 736 882
f 893 746 736
f 893 745 746
f 893 892 745
f 747 746 893
f 747 893 894
f 884 738 748
f 884 748 895
f 894 883 884
f 894 884 895
f 749 895 748
f 749 896 895
f 897 741 887
f 897 751 741
f 898 888 742
f 898 742 752
f 752 751 897
f 752 897 898
f 898 897 887
f 898 887 888
f 899 744 890
f 899 754 744
f 755 754 899
f 755 899 900
f 899 890 891
f 899 891 900
f 901 756 755
f 901 755 900
f 893 746 757
f 893 757 902
f 757 756 901
f 757 901 902
f 894 758 747
f 894 903 758
f 902 894 893
f 902 903 894
f 904 759 758
f 904 758 903
f 904 903 894
f 904 894 895
f 896 749 760
f 896 760 905
f 905 760 759
f 905 759 904
f 904 895 896
f 904 896 905
f 906 902 901
f 906 907 902
f 908 902 907
f 908 903 902
f 910 763 764
f 910 909 763
f 911 764 765
f 911 910 764
f 912 765 766
f 912 911 765
f 913 763 909
f 913 768 763
f 914 913 909
f 914 909 910
f 915 914 910
f 915 910 911
f 912 766 770
f 912 770 916
f 915 911 912
f 915 912 916
f 917 770 771
f 917 916 770
f 774 918 773
f 774 919 918
f 775 919 774
f 775 920 919
f 921 768 913
f 921 776 768
f 777 776 921
f 777 921 922
f 921 913 914
f 921 914 922
f 922 914 915
f 922 915 923
f 923 915 916
f 923 916 924
f 917 771 778
f 917 778 925
f 924 916 917
f 924 917 925
f 926 778 779
f 926 925 778
f 927 773 918
f 927 781 773
f 782 781 927
f 782 927 928
f 927 918 919
f 927 919 928
f 920 775 783
f 920 783 929
f 928 919 920
f 928 920 929
f 784 929 783
f 784 930 929
f 922 785 777
f 922 931 785
f 785 930 784
f 785 931 930
f 932 931 922
f 932 922 923
f 933 924 925
f 933 925 934
f 926 779 786
f 926 786 935
f 934 925 926
f 934 926 935
f 936 786 787
f 936 935 786
f 937 782 928
f 937 790 782
f 791 790 937
f 791 937 938
f 937 928 929
f 937 929 938
f 938 929 930
f 938 930 939
f 940 939 930
f 940 930 931
f 941 933 934
f 941 934 942
f 943 942 934
f 943 934 935
f 936 787 792
f 936 792 944
f 943 935 936
f 943 936 944
f 946 791 938
f 946 797 791
f 797 945 796
f 797 946 945
f 946 938 939
f 946 939 947
f 947 939 940
f 947 940 948
f 952 951 942
f 952 942 943
f 944 792 798
f 944 798 953
f 952 943 944
f 952 944 953
f 954 798 799
f 954 953 798
f 955 796 945
f 955 802 796
f 956 955 945
f 956 945 946
f 957 804 803
f 957 803 956
f 957 956 946
f 957 946 947
f 805 804 957
f 805 957 958
f 958 948 949
f 958 949 959
f 959 949 950
f 959 950 960
f 961 960 950
f 961 950 951
f 961 951 952
f 961 952 962
f 807 806 962
f 807 962 963
f 962 952 953
f 962 953 963
f 954 799 808
f 954 808 964
f 963 953 954
f 963 954 964
f 955 810 802
f 955 965 810
f 966 956 803
f 966 803 811
f 966 811 810
f 966 810 965
f 966 965 955
f 966 955 956
f 967 805 958
f 967 813 805
f 814 813 967
f 814 967 968
f 967 958 959
f 967 959 968
f 815 814 968
f 815 968 969
f 968 959 960
f 968 960 969
f 969 960 961
f 969 961 970
f 971 962 806
f 971 806 816
f 971 970 961
f 971 961 962
f 972 807 963
f 972 817 807
f 972 816 817
f 972 971 816
f 973 964 808
f 973 808 818
f 972 963 964
f 972 964 973
f 974 815 969
f 974 824 815
f 825 824 974
f 825 974 975
f 974 969 970
f 974 970 975
f 976 826 825
f 976 825 975
f 978 973 818
f 978 818 828
f 978 828 827
f 978 827 977
f 976 831 826
f 976 979 831
f 980 977 827
f 980 827 832
f 832 831 979
f 832 979 980
f 979 976 977
f 979 977 980
f 982 835 836
f 982 981 835
f 983 836 837
f 983 982 836
f 838 983 837
f 838 984 983
f 839 984 838
f 839 985 984
f 841 986 840
f 841 987 986
f 988 835 981
f 988 842 835
f 989 988 981
f 989 981 982
f 990 989 982
f 990 982 983
f 990 983 984
f 990 984 991
f 985 839 844
f 985 844 992
f 991 984 985
f 991 985 992
f 993 844 845
f 993 992 844
f 994 840 986
f 994 847 840
f 995 987 841
f 995 841 848
f 995 994 986
f 995 986 987
f 996 842 988
f 996 849 842
f 850 849 996
f 850 996 997
f 996 988 989
f 996 989 997
f 997 989 990
f 997 990 998
f 998 990 991
f 998 991 999
f 1000 999 991
f 1000 991 992
f 993 845 851
f 993 851 1001
f 1000 992 993
f 1000 993 1001
f 1002 847 994
f 1002 855 847
f 995 848 856
f 995 856 1003
f 1002 994 995
f 1002 995 1003
f 857 1003 856
f 857 1004 1003
f 997 858 850
f 997 1005 858
f 858 1004 857
f 858 1005 1004
f 1006 1005 997
f 1006 997 998
f 1007 999 1000
f 1007 1000 1008
f 1009 1001 851
f 1009 851 860
f 1009 860 859
f 1009 859 1008
f 1009 1008 1000
f 1009 1000 1001
f 1010 855 1002
f 1010 864 855
f 865 864 1010
f 865 1010 1011
f 1010 1002 1003
f 1010 1003 1011
f 1013 1012 1004
f 1013 1004 1005
f 1015 1008 859
f 1015 859 866
f 1016 866 867
f 1016 1015 866
f 868 1016 867
f 868 1017 1016
f 1018 868 869
f 1018 1017 868
f 1020 865 1011
f 1020 873 865
f 873 1019 872
f 873 1020 1019
f 1020 1011 1012
f 1020 1012 1021
f 1021 1012 1013
f 1021 1013 1022
f 1022 1013 1014
f 1022 1014 1023
f 1026 1025 1015
f 1026 1015 1016
f 1026 1016 1017
f 1026 1017 1027
f 1018 869 874
f 1018 874 1028
f 1027 1017 1018
f 1027 1018 1028
f 1019 877 872
f 1019 1029 877
f 1030 1029 1019
f 1030 1019 1020
f 879 878 1030
f 879 1030 1031
f 1031 1030 1020
f 1031 1020 1021
f 880 879 1031
f 880 1031 1032
f 1032 1022 1023
f 1032 1023 1033
f 1033 1023 1024
f 1033 1024 1034
f 1035 1034 1024
f 1035 1024 1025
f 1036 1035 1025
f 1036 1025 1026
f 882 881 1036
f 882 1036 1037
f 1037 1036 1026
f 1037 1026 1027
f 1028 874 883
f 1028 883 1038
f 1037 1027 1028
f 1037 1028 1038
f 1029 885 877
f 1029 1039 885
f 1040 1030 878
f 1040 878 886
f 1040 886 885
f 1040 885 1039
f 1040 1039 1029
f 1040 1029 1030
f 1041 880 1032
f 1041 888 880
f 889 888 1041
f 889 1041 1042
f 1041 1032 1033
f 1041 1033 1042
f 1043 890 889
f 1043 889 1042
f 1042 1033 1034
f 1042 1034 1043
f 891 890 1043
f 891 1043 1044
f 1043 1034 1035
f 1043 1035 1044
f 1036 881 892
f 1036 892 1045
f 1046 882 1037
f 1046 893 882
f 1046 892 893
f 1046 1045 892
f 1047 1038 883
f 1047 883 894
f 1048 891 1044
f 1048 900 891
f 901 900 1048
f 901 1048 1049
f 1048 1044 1045
f 1048 1045 1049
f 1049 1045 1046
f 1049 1046 1050
f 1047 894 903
f 1047 903 1051
f 1049 906 901
f 1049 1052 906
f 1053 907 906
f 1053 906 1052
f 1052 1049 1050
f 1052 1050 1053
f 1051 903 908
f 1051 908 1054
f 1054 908 907
f 1054 907 1053
f 1053 1050 1051
f 1053 1051 1054
f 924 1055 923
f 924 1056 1055
f 1055 932 923
f 1055 1058 932
f 932 1057 931
f 932 1058 1057
f 1056 924 933
f 1056 933 1059
f 1059 1058 1055
f 1059 1055 1056
f 1057 940 931
f 1057 1060 940
f 1061 1060 1057
f 1061 1057 1058
f 1059 933 941
f 1059 941 1062
f 1061 1058 1059
f 1061 1059 1062
f 1063 941 942
f 1063 1062 941
f 1065 940 1060
f 1065 948 940
f 948 1064 947
f 948 1065 1064
f 949 948 1065
f 949 1065 1066
f 1066 1065 1060
f 1066 1060 1061
f 1067 950 949
f 1067 949 1066
f 1066 1061 1062
f 1066 1062 1067
f 1068 1063 942
f 1068 942 951
f 1068 951 950
f 1068 950 1067
f 1067 1062 1063
f 1067 1063 1068
f 1069 947 1064
f 1069 957 947
f 1070 1065 948
f 1070 948 958
f 958 957 1069
f 958 1069 1070
f 1070 1069 1064
f 1070 1064 1065
f 971 1071 970
f 971 1072 1071
f 972 1072 971
f 972 1073 1072
f 973 1073 972
f 973 1074 1073
f 1075 970 1071
f 1075 975 970
f 976 975 1075
f 976 1075 1076
f 1076 1075 1071
f 1076 1071 1072
f 1077 977 976
f 1077 976 1076
f 1077 1076 1072
f 1077 1072 1073
f 1074 973 978
f 1074 978 1078
f 978 977 1077
f 978 1077 1078
f 1078 1077 1073
f 1078 1073 1074
f 999 1079 998
f 999 1080 1079
f 1004 1081 1003
f 1004 1082 1081
f 1079 1006 998
f 1079 1084 1006
f 1006 1083 1005
f 1006 1084 1083
f 1080 999 1007
f 1080 1007 1085
f 1084 1079 1080
f 1084 1080 1085
f 1086 1007 1008
f 1086 1085 1007
f 1081 1011 1003
f 1081 1087 1011
f 1082 1004 1012
f 1082 1012 1088
f 1012 1011 1087
f 1012 1087 1088
f 1087 1081 1082
f 1087 1082 1088
f 1083 1013 1005
f 1083 1089 1013
f 1014 1013 1089
f 1014 1089 1090
f 1090 1089 1083
f 1090 1083 1084
f 1091 1090 1084
f 1091 1084 1085
f 1086 1008 1015
f 1086 1015 1092
f 1091 1085 1086
f 1091 1086 1092
f 1022 1093 1021
f 1022 1094 1093
f 1095 1014 1090
f 1095 1023 1014
f 1024 1023 1095
f 1024 1095 1096
f 1095 1090 1091
f 1095 1091 1096
f 1097 1092 1015
f 1097 1015 1025
f 1097 1025 1024
f 1097 1024 1096
f 1097 1096 1091
f 1097 1091 1092
f 1098 1021 1093
f 1098 1031 1021
f 1099 1094 1022
f 1099 1022 1032
f 1032 1031 1098
f 1032 1098 1099
f 1098 1093 1094
f 1098 1094 1099
f 1101 1035 1036
f 1101 1100 1035
f 1038 1102 1037
f 1038 1103 1102
f 1104 1035 1100
f 1104 1044 1035
f 1101 1036 1045
f 1101 1045 1105
f 1045 1044 1104
f 1045 1104 1105
f 1104 1100 1101
f 1104 1101 1105
f 1102 1046 1037
f 1102 1106 1046
f 1103 1038 1047
f 1103 1047 1107
f 1107 1106 1102
f 1107 1102 1103
f 1108 1046 1106
f 1108 1050 1046
f 1109 1107 1047
f 1109 1047 1051
f 1109 1051 1050
f 1109 1050 1108
f 1108 1106 1107
f 1108 1107 1109
