# parsimony mesh: cplx_CPLX0-3541 (source /Users/eranagmon/code/v2e-cplx/workspace/studies/ecoli-3d/viz/3d/structures/cplx_CPLX0-3541.pdb)
# atoms: 6638  voxel: 8 Å  verts: 592  tris: 1196
v 104.9373 -69.4051 -32.2298
v 106.5371 -69.4051 -32.2298
v 104.9373 -68.5783 -32.2298
v 106.5371 -68.5783 -32.2298
v -77.7902 98.8303 -32.0461
v -77.4676 98.8303 -32.0461
v -63.0502 98.2034 -32.4481
v -61.1617 98.2034 -32.4481
v -77.7902 99.1026 -32.0461
v -77.4676 99.1026 -32.0461
v -63.0502 99.6782 -32.4481
v -61.1617 99.6782 -32.4481
v 81.1947 -85.4253 -25.4462
v 86.2950 -86.0795 -26.0793
v 94.2950 -85.8232 -25.1127
v 98.5669 -85.0837 -24.1573
v 73.0149 -78.5559 -24.8852
v 78.4348 -81.1341 -26.0711
v 86.2950 -81.0014 -27.8280
v 94.2950 -81.0014 -27.0302
v 100.1504 -81.0014 -25.1196
v 72.7520 -73.0014 -25.1273
v 78.2950 -73.0014 -26.7375
v 86.2950 -73.0014 -27.9801
v 94.2950 -73.0014 -28.8312
v 102.7171 -72.8776 -28.2925
v 107.1930 -70.8156 -27.9850
v 73.5178 -68.4708 -24.6079
v 78.2950 -67.4798 -25.2257
v 86.2950 -66.6632 -26.2314
v 94.2950 -66.8428 -26.9137
v 102.2804 -67.3592 -28.3496
v 107.1930 -67.8928 -27.9850
v -86.8919 82.4476 -25.0771
v -81.7050 81.7316 -25.8131
v -73.7050 81.5336 -26.0773
v -67.1709 82.1836 -25.4293
v -94.2783 89.8112 -24.5071
v -89.6171 87.0861 -25.5781
v -81.7050 86.9986 -27.6875
v -73.7050 86.9986 -27.9908
v -64.9845 86.3596 -25.8605
v -61.0445 88.6003 -24.5732
v -94.2783 93.3824 -24.5071
v -90.3772 95.6289 -25.4007
v -80.9561 95.6976 -29.1622
v -74.3626 95.6976 -29.6430
v -65.7121 95.3215 -29.1211
v -60.1067 95.3215 -27.5379
v -88.1587 99.8718 -24.7813
v -80.9561 100.2967 -27.6628
v -74.3626 100.3324 -28.1122
v -65.7121 100.6923 -28.1122
v -60.2025 100.4161 -27.9850
v 74.2573 -85.0393 -16.0445
v 78.4348 -85.9385 -19.2207
v 86.2950 -87.6634 -19.9850
v 94.2950 -87.3983 -19.9850
v 99.4971 -85.8793 -19.9850
v 72.1090 -81.1341 -19.2207
v 75.8614 -83.8892 -21.3778
v 103.7779 -80.8131 -20.3236
v 107.9787 -78.0208 -17.8826
v 70.0220 -73.0014 -19.9850
v 105.8303 -76.3500 -23.2160
v 110.2811 -73.5714 -20.0635
v 114.7776 -70.7928 -16.9110
v 72.7262 -67.0575 -19.9850
v 78.1191 -63.3474 -19.5490
v 86.2950 -62.6632 -21.1053
v 94.2950 -62.8428 -21.4714
v 102.0610 -63.8194 -19.8419
v 110.0682 -67.5198 -19.7406
v 114.7776 -68.5765 -16.9110
v 80.6684 -60.8390 -16.5916
v 86.2950 -60.7161 -17.1053
v 94.2950 -60.4497 -17.4714
v 99.2383 -60.4837 -17.0798
v -93.8999 82.5870 -16.3211
v -89.6171 81.6232 -19.3866
v -81.7050 79.4171 -19.9850
v -73.7050 79.1241 -19.9850
v -65.8574 81.2950 -19.9850
v -94.9165 87.0861 -19.3866
v -92.2252 84.4778 -21.6544
v -61.8574 83.2541 -19.9850
v -58.1087 86.9855 -19.5473
v -53.3191 89.3027 -16.5889
v -95.5810 95.6289 -20.5982
v -93.4921 98.7158 -23.6737
v -55.8045 95.4457 -19.5473
v -53.3191 93.0772 -16.5889
v -95.0073 100.5117 -18.3403
v -90.3772 101.3675 -20.5982
v -81.7050 103.5739 -19.9850
v -73.3575 104.9574 -19.2137
v -66.4706 104.1236 -19.2137
v -58.8247 100.7052 -19.9850
v -70.4592 107.0209 -16.0329
v -69.6476 107.0209 -16.0329
v 137.0462 -133.9445 -8.4172
v 138.6125 -133.9445 -8.4172
v 137.0462 -132.4913 -8.4172
v 138.6125 -132.4913 -8.4172
v 63.7139 -93.9003 -8.9979
v 70.2950 -94.8598 -9.4021
v 75.3344 -94.5804 -8.8615
v 97.0244 -93.4545 -8.7403
v 99.7737 -93.4545 -8.7403
v 57.6781 -87.5998 -8.8323
v 61.5463 -89.7605 -9.7811
v 71.0724 -88.2241 -12.9986
v 78.1186 -89.7399 -11.7109
v 86.2950 -89.0192 -11.9850
v 94.3326 -90.5529 -11.6382
v 102.3665 -89.1057 -11.6725
v 107.2358 -86.7884 -9.2714
v 57.5080 -81.0014 -9.0360
v 62.2950 -81.0014 -11.6428
v 68.5226 -81.0014 -14.5918
v 104.9593 -83.3541 -14.6048
v 108.6758 -80.8131 -11.9568
v 57.8626 -76.0964 -8.5389
v 62.2828 -73.2584 -10.8151
v 67.5650 -73.0014 -15.1072
v 111.4835 -73.2763 -12.4183
v 114.7776 -70.7928 -15.3739
v 64.8723 -65.0014 -10.0513
v 70.3063 -64.5647 -13.8636
v 75.3351 -61.6069 -15.0275
v 104.2027 -63.6966 -11.9850
v 109.6672 -67.7026 -12.4183
v 114.7776 -68.5765 -15.3739
v 65.7517 -60.5355 -8.9198
v 70.2950 -60.4238 -9.9680
v 78.1191 -60.1179 -12.2105
v 86.2950 -59.8951 -11.9850
v 94.2950 -59.8593 -11.9850
v 100.2027 -60.0894 -11.9850
v -38.0137 34.4811 -8.1558
v -33.7050 33.2378 -8.7918
v -28.8921 33.1684 -8.8899
v -38.0137 35.3686 -8.1558
v -33.7050 35.8316 -8.7918
v -28.8921 35.7392 -8.8899
v -103.8642 73.5918 -9.4927
v -97.7050 72.4576 -10.3452
v -91.2915 73.0174 -9.6243
v -70.9706 74.3248 -9.1506
v -67.5033 74.3248 -9.1506
v -110.0857 81.1355 -8.4973
v -106.2005 78.6807 -9.9043
v -97.0219 79.5516 -13.7805
v -89.0569 77.3269 -12.1686
v -81.7050 77.6986 -11.9850
v -73.6644 76.9095 -11.8843
v -64.6394 78.4499 -12.5276
v -60.0530 80.6910 -10.5713
v -110.0857 84.3471 -8.4973
v -106.0104 87.0077 -9.8550
v -98.7894 86.9986 -13.9383
v -61.7756 83.0708 -15.9047
v -56.9728 86.1868 -12.1735
v -53.3191 89.3027 -13.7758
v -103.4826 94.9986 -10.0095
v -99.6200 94.9986 -14.0095
v -55.5326 95.4457 -11.4595
v -53.3191 93.0772 -13.7758
v -102.2327 101.5517 -9.2588
v -97.6864 101.7839 -11.9493
v -89.9843 104.3892 -12.0414
v -81.4667 105.7155 -12.0414
v -75.0977 106.2233 -11.9850
v -65.0371 103.9800 -11.9850
v -59.8489 99.9800 -11.9850
v -87.5038 107.6359 -9.4123
v -83.9745 107.6359 -9.4123
v -71.0977 107.1761 -11.9850
v -69.0371 107.1761 -11.9850
v 137.2540 -141.2235 -0.5721
v 138.4684 -141.2235 -0.5721
v 128.6303 -134.9799 -1.7744
v 135.2513 -136.5120 -3.2224
v 138.5404 -137.2781 -3.9464
v 121.6854 -126.1582 -0.7424
v 126.0962 -128.8955 -1.6791
v 133.7132 -130.4971 -4.0144
v 138.6125 -132.4913 -7.3207
v 120.0590 -121.0014 -0.9152
v 126.3553 -121.6506 -0.8952
v 130.3608 -124.7500 -0.2617
v 113.3535 -111.3107 -0.6132
v 118.1952 -113.0289 -0.5405
v 123.7288 -114.7471 -0.4678
v 65.7516 -101.3623 -0.7541
v 70.2950 -101.3225 -0.8564
v 74.3660 -101.0686 -0.3777
v 105.0512 -102.2912 -0.9494
v 110.5301 -104.9753 -0.9453
v 115.9287 -105.0014 -0.4620
v 56.9871 -94.1222 -2.6131
v 62.0661 -96.6779 -4.3503
v 70.2950 -98.8598 -4.8564
v 76.1870 -97.1488 -3.4206
v 89.4591 -93.1078 -0.5148
v 93.8830 -93.2811 -3.6834
v 102.3286 -95.4813 -4.1195
v 110.6551 -97.7811 -1.6577
v 114.3011 -100.9675 0.0072
v 49.4927 -86.2886 -0.9006
v 54.6659 -89.6109 -4.4235
v 58.3805 -92.9331 -7.9464
v 80.6068 -91.5711 -3.9850
v 86.5935 -91.3485 -3.5029
v 93.8830 -91.7537 -3.6834
v 103.3405 -89.6583 -3.0519
v 107.7322 -88.8105 -3.8184
v 49.6017 -81.0014 -0.7689
v 53.5080 -81.0014 -4.7689
v 104.7604 -81.0014 -1.2183
v 108.0082 -81.0014 -5.2183
v 50.1729 -76.8464 -0.1146
v 55.0695 -73.8047 -3.2923
v 59.6081 -70.7631 -6.4699
v 104.9217 -73.0014 -1.8804
v 107.5178 -73.0014 -5.8804
v 57.6098 -67.9273 -1.1365
v 61.4138 -65.1569 -3.8759
v 82.2408 -61.0655 -0.0322
v 86.2950 -61.3037 -1.1250
v 94.2950 -62.2826 -2.0743
v 102.7765 -65.3110 -4.0085
v 106.5819 -68.2512 -6.7191
v 65.2088 -60.0097 -3.9850
v 70.2950 -58.7792 -3.9850
v 79.0625 -59.4135 -3.2133
v 86.2950 -60.1804 -5.1250
v 94.2950 -60.4111 -6.0743
v 99.8954 -60.3032 -6.6312
v -30.7153 26.5450 -1.1492
v -29.3687 26.5450 -1.1492
v -46.0884 34.7163 -0.5748
v -41.0902 33.6348 -3.5389
v -32.6712 30.8235 -2.9265
v -29.1304 30.4271 -3.9070
v -46.0884 36.5023 -0.5748
v -41.3428 38.6021 -3.3459
v -34.2471 38.2206 -3.7242
v -28.8921 35.7392 -6.6648
v -47.3305 49.2806 -0.4115
v -42.0499 46.5711 -0.5976
v -37.2231 43.8616 -0.7837
v -54.6276 57.3485 -0.6278
v -49.8803 54.8085 -1.3115
v -44.7760 54.9986 -1.1610
v -102.5999 66.2595 -1.2931
v -97.7050 65.8829 -2.3568
v -92.7828 66.2501 -1.8393
v -62.4560 65.9290 -1.0617
v -57.4585 63.1568 -1.3424
v -50.3203 62.4117 -1.3812
v -45.4103 59.3538 -1.1265
v -110.7660 73.9443 -2.1879
v -105.8987 71.1014 -4.4072
v -97.7050 68.4576 -6.3568
v -89.3705 71.0618 -4.6330
v -81.7050 74.3110 -2.3208
v -73.6644 74.0877 -3.7885
v -64.9797 71.7517 -4.3623
v -57.4252 70.8094 -2.3635
v -53.3972 68.0166 -0.5278
v -117.9528 82.4593 -0.2936
v -113.0925 79.1307 -3.9074
v -109.1975 75.8021 -7.5213
v -85.9582 75.2870 -7.4268
v -81.7050 76.0131 -6.3208
v -76.3040 76.0629 -6.3242
v -61.9824 79.1520 -3.8535
v -59.9792 79.1520 -3.8535
v -117.9528 83.6747 -0.2936
v -112.9635 86.6776 -3.4792
v -108.8807 89.6804 -6.6647
v -62.3740 86.9986 -0.5984
v -58.6067 86.9986 -4.5984
v -110.3856 94.9986 -1.1126
v -107.4826 94.9986 -5.1126
v -62.9149 94.9986 -2.2297
v -59.7748 94.9986 -6.2297
v -109.8095 99.1968 -0.1421
v -104.7560 103.0409 -3.8981
v -97.7050 105.3454 -7.1643
v -89.3259 105.8755 -3.6686
v -81.4667 105.5933 -3.2634
v -73.5666 104.9448 -4.2940
v -65.6939 102.5021 -4.6929
v -61.6106 99.2420 -7.5525
v -101.9459 107.2509 -2.3208
v -97.7050 108.0293 -3.1643
v -89.3259 107.8782 -3.6686
v -83.9745 107.6359 -5.4491
v -70.8077 107.2129 -7.1666
v -68.8718 107.2129 -7.1666
v 137.2540 -141.2235 0.1991
v 138.4684 -141.2235 0.1991
v 128.9671 -134.6216 4.0150
v 133.8389 -137.1888 2.3796
v 138.4684 -140.6117 0.1991
v 121.6854 -126.1582 0.6494
v 126.7431 -129.4529 3.0703
v 131.1205 -129.6492 3.3008
v 120.0590 -121.0014 1.5179
v 126.3553 -121.6506 1.3031
v 130.3608 -124.7500 0.1579
v 113.4359 -111.1717 4.0150
v 117.7519 -112.7040 2.8877
v 123.7288 -114.7471 1.3845
v 65.0196 -101.8871 4.0150
v 70.2950 -102.7504 4.0150
v 75.6722 -101.8646 4.0150
v 105.0512 -102.2912 0.9838
v 111.0556 -105.5601 3.1685
v 115.7613 -105.6980 3.2179
v 49.8828 -93.5388 7.1630
v 54.3103 -94.7493 4.3038
v 61.0196 -98.7832 4.0150
v 79.8226 -97.2179 3.6416
v 86.5935 -94.2911 3.6416
v 91.1338 -93.3429 4.0150
v 104.2447 -97.0014 1.3795
v 110.6551 -97.7811 1.1095
v 114.3011 -100.9675 0.0198
v 49.6877 -88.7510 4.6581
v 51.2684 -88.7510 4.6581
v 81.6714 -92.3348 0.7259
v 84.1258 -92.3348 0.7259
v 95.1338 -89.8958 4.0150
v 101.9038 -88.0115 2.6652
v 108.2285 -90.8325 0.8655
v 49.3763 -81.2617 4.4979
v 50.8831 -84.1018 7.4864
v 101.5413 -81.0014 4.0150
v 49.7484 -76.2861 4.0150
v 52.9576 -72.2861 4.0150
v 79.9093 -71.1383 6.6168
v 83.7375 -71.1383 6.6168
v 102.1052 -73.0014 4.0150
v 56.9517 -65.1569 4.3048
v 60.0567 -62.5939 1.8312
v 79.7399 -64.2399 3.9761
v 86.3605 -65.6060 3.9761
v 94.2950 -65.2428 4.0150
v 100.2918 -67.5351 4.0150
v 57.8394 -60.2208 7.1646
v 62.5520 -59.0766 4.3048
v 70.2950 -56.9608 4.0150
v 76.8904 -58.7815 4.0150
v -30.7153 26.5450 0.4236
v -29.3687 26.5450 0.4236
v -46.0884 34.7163 0.3087
v -41.7050 33.6820 1.1555
v -33.6599 30.6056 0.8328
v -29.3687 27.6858 0.4236
v -46.0884 36.5023 0.3087
v -41.8852 39.1008 1.3384
v -36.5182 38.9986 1.4490
v -47.3305 49.2806 1.3369
v -42.0499 46.5711 1.0185
v -37.2231 43.8616 0.7000
v -54.6276 57.3485 2.1044
v -49.8803 54.8085 2.3175
v -44.7760 54.9986 1.3261
v -103.8698 65.5003 4.0150
v -97.7050 63.7824 4.0150
v -89.9517 65.4161 4.5740
v -85.3878 66.6517 7.6133
v -62.4560 65.9290 0.7622
v -57.4585 63.1568 1.8885
v -50.3203 62.4117 1.6959
v -45.4103 59.3538 0.4412
v -112.2943 72.7363 4.0150
v -107.8698 68.7363 4.0150
v -87.4495 69.1062 2.2800
v -82.3147 70.7058 4.5740
v -73.2281 73.9492 4.2254
v -65.3556 71.5065 2.0299
v -57.4252 70.8094 1.1911
v -53.3972 68.0166 0.3010
v -117.9528 82.4593 0.8125
v -115.7893 79.4750 3.6935
v -70.2436 75.7344 7.0323
v -65.3542 79.3403 3.9872
v -59.9053 77.6129 0.9421
v -117.9528 83.6747 0.8125
v -115.4260 86.6043 3.6935
v -64.9906 86.9986 4.0150
v -112.4047 94.9986 4.0150
v -87.6269 97.0321 6.3271
v -81.7050 97.3795 6.6716
v -77.4967 98.8063 7.9117
v -65.7696 94.9986 4.0150
v -110.2695 100.5277 4.0150
v -107.3744 104.5277 4.0150
v -93.7919 106.8202 7.9293
v -89.3874 104.1650 4.4616
v -81.7050 101.8765 2.6716
v -74.3800 100.8558 4.7530
v -67.9578 100.3256 4.0150
v -103.3744 108.0485 4.0150
v -96.9571 108.5117 4.7636
v -91.1479 108.1205 2.5960
v 130.1891 -133.1833 8.1011
v 130.4463 -133.1833 8.1011
v 130.1891 -132.7477 8.1011
v 130.4463 -132.7477 8.1011
v 114.0911 -109.5859 8.1189
v 114.5605 -109.5859 8.1189
v 65.1948 -101.7614 12.0150
v 70.2950 -103.5148 12.0150
v 78.5542 -102.8077 11.8404
v 83.2589 -101.6739 14.3906
v 114.0911 -108.8291 8.1189
v 114.5605 -108.8291 8.1189
v 49.8828 -93.5388 9.2969
v 54.4920 -94.3703 11.9842
v 61.1948 -98.3094 12.0150
v 81.3937 -100.0289 9.0573
v 86.0733 -97.5702 11.8404
v 90.8957 -93.4417 12.0150
v 49.8828 -91.2134 9.2969
v 52.4963 -88.7286 11.9842
v 88.6668 -87.0571 15.1700
v 93.9593 -88.2624 13.3671
v 98.3916 -85.1665 12.0150
v 49.6883 -78.7685 8.9189
v 52.3197 -81.2617 11.7573
v 87.5259 -81.0014 14.0722
v 94.9445 -81.7626 13.4392
v 98.9393 -81.7626 11.7935
v 49.6883 -76.2027 8.9189
v 52.6254 -73.3222 11.7573
v 79.5585 -71.8704 12.0150
v 85.9842 -73.5808 11.5872
v 94.2950 -73.0014 10.6606
v 99.4786 -73.0014 9.3023
v 55.6775 -65.0014 12.0150
v 76.2345 -65.0014 12.0150
v 89.0708 -68.2728 8.9049
v 94.2950 -67.9616 9.2466
v 98.9280 -68.3437 8.7673
v 57.7900 -60.1962 12.0150
v 62.2950 -58.3554 12.0150
v 70.2950 -57.8992 12.0150
v 74.9711 -59.7400 12.0150
v -103.8563 65.7063 12.0150
v -97.7050 63.2386 12.0150
v -89.7050 63.3333 12.0150
v -83.8627 65.8010 12.0150
v -111.8029 73.0973 12.0150
v -107.8563 69.0973 12.0150
v -79.8627 68.7068 12.0150
v -75.2961 72.7068 12.0150
v -113.5259 78.9986 12.0150
v -78.7860 82.1655 15.1297
v -72.9455 79.5137 13.3499
v -69.0977 81.5249 12.0150
v -113.6636 86.9986 12.0150
v -79.9712 86.9986 13.8159
v -72.9687 86.2198 13.2940
v -68.5872 86.2198 11.8533
v -113.0476 94.9986 12.0150
v -87.6869 96.8113 12.0150
v -82.0693 93.9334 11.5869
v -74.3800 95.6832 9.3185
v -68.5596 94.9986 9.1795
v -110.8120 101.5548 12.0150
v -107.4632 105.5548 12.0150
v -93.7919 106.8202 8.4335
v -91.9834 103.6915 11.4661
v -72.1634 99.3376 8.5039
v -69.2310 99.3376 8.5039
v -103.4632 107.9488 12.0150
v -96.9571 107.8515 11.4661
v -93.5263 107.1531 13.7668
v 64.1329 -101.7697 20.0150
v 70.5258 -102.3685 20.2361
v 78.2950 -102.4464 18.5720
v 83.2589 -101.6739 17.7225
v 56.9825 -95.2979 20.0150
v 60.1329 -99.2979 20.0150
v 73.3462 -99.8770 23.0502
v 78.2950 -99.6594 22.5720
v 86.1400 -96.7880 19.6697
v 90.4242 -93.2396 16.2836
v 54.9387 -89.0014 20.0150
v 81.6200 -85.5785 22.5301
v 86.1773 -88.9844 19.4069
v 94.2342 -88.7192 16.1665
v 98.3276 -85.0481 16.0493
v 54.8447 -81.0014 20.0150
v 80.3896 -81.0014 21.2967
v 83.5259 -81.0014 17.2967
v 98.0442 -84.9367 16.0493
v 98.3276 -84.9367 16.0493
v 55.1990 -73.0014 20.0150
v 79.2825 -73.2145 19.5313
v 82.8977 -76.0232 16.5421
v 56.8129 -65.4493 19.3360
v 62.2950 -63.7947 20.9199
v 70.2950 -63.5959 20.8595
v 75.6339 -65.2903 19.2876
v 58.0773 -60.7083 16.2166
v 62.2950 -60.1191 16.9199
v 70.2950 -60.2951 16.8595
v 74.3484 -60.9430 16.1361
v -103.8571 65.9964 20.0150
v -97.7050 64.4937 20.0150
v -89.7050 64.2360 20.0150
v -83.5204 65.7387 20.0150
v -110.2570 73.2037 20.0150
v -107.8571 69.2037 20.0150
v -79.5655 70.5079 20.3475
v -76.6213 72.8475 17.9024
v -111.5308 78.9986 20.0150
v -86.9677 81.8193 22.4438
v -81.2523 79.3257 20.1731
v -73.2163 79.8984 16.9660
v -69.6866 82.9646 16.0296
v -111.2863 87.4115 20.4368
v -109.0139 90.3534 23.3846
v -87.4860 86.9986 21.6223
v -83.9712 86.9986 17.6223
v -69.8113 83.0340 16.0296
v -69.6866 83.0340 16.0296
v -111.0286 94.9986 18.9105
v -108.1434 94.9986 22.9105
v -87.9598 95.2286 19.8435
v -84.9789 92.7153 17.0625
v -110.5327 100.5663 17.8395
v -105.1891 102.6332 19.6468
v -97.7050 103.5526 20.2670
v -91.9854 102.4209 19.3532
v -102.0643 107.1180 16.1208
v -97.7050 107.2040 16.2670
v -93.5263 107.1531 16.2453
v 63.7219 -101.8326 24.9086
v 68.0129 -101.8326 24.9086
v 57.5501 -95.5743 25.8254
v 61.5512 -97.7452 26.3929
v 70.5258 -97.1268 25.9136
v 78.2950 -95.6594 25.6997
v 83.6878 -95.0032 25.2496
v 56.6282 -89.0014 26.3111
v 62.2950 -89.0014 27.5214
v 70.2950 -89.0014 27.1624
v 78.6900 -88.5477 26.3054
v 83.6878 -90.9118 25.2496
v 56.7549 -81.0014 25.2992
v 62.2950 -81.0014 26.5531
v 70.2950 -81.0014 26.9886
v 76.3896 -81.0014 25.7347
v 57.4626 -73.0014 24.7954
v 62.2950 -73.0014 26.4752
v 70.2950 -73.0014 26.6201
v 75.4767 -73.0014 24.9403
v 57.7611 -68.4146 24.5944
v 62.2950 -67.7947 25.1414
v 70.2950 -67.5959 25.0908
v 75.0694 -68.1495 24.5269
v -103.6975 66.1268 24.7026
v -97.7050 66.1531 24.6549
v -89.7050 66.4845 24.4618
v -84.9314 66.5686 24.4451
v -110.0352 73.1784 25.1277
v -106.1005 70.7064 25.8631
v -97.7050 70.9986 26.4521
v -89.7050 70.9986 26.2175
v -83.6350 70.9986 25.2560
v -110.5196 78.9986 25.4622
v -105.7050 78.9986 26.7448
v -97.7050 78.9986 27.1431
v -89.6626 79.0910 26.2262
v -83.7186 76.4860 25.2396
v -110.4610 85.0201 24.8319
v -106.0903 87.4115 25.6451
v -97.7050 86.9986 27.2504
v -91.4860 86.9986 25.8254
v -104.1434 94.9986 25.4042
v -97.7050 94.9986 26.4668
v -91.9830 94.9986 25.0777
v -102.9806 99.3668 24.3975
v -97.7050 99.5526 24.5624
v -92.9637 99.3691 24.3624
f 3 2 1
f 3 4 2
f 9 6 5
f 9 10 6
f 11 8 7
f 11 12 8
f 19 13 18
f 19 14 13
f 20 14 19
f 20 15 14
f 20 16 15
f 20 21 16
f 23 17 22
f 23 18 17
f 23 19 18
f 23 24 19
f 24 20 19
f 24 25 20
f 25 21 20
f 25 26 21
f 27 1 2
f 27 26 1
f 28 23 22
f 28 29 23
f 29 24 23
f 29 30 24
f 31 24 30
f 31 25 24
f 32 1 26
f 32 3 1
f 32 25 31
f 32 26 25
f 33 27 2
f 33 2 4
f 33 4 3
f 33 3 32
f 40 34 39
f 40 35 34
f 40 36 35
f 40 41 36
f 41 37 36
f 41 42 37
f 45 38 44
f 45 39 38
f 45 40 39
f 45 46 40
f 47 5 6
f 47 46 5
f 46 41 40
f 46 47 41
f 48 41 47
f 48 42 41
f 8 48 7
f 8 49 48
f 48 43 42
f 48 49 43
f 46 9 5
f 46 51 9
f 50 46 45
f 50 51 46
f 47 6 10
f 47 10 52
f 52 10 9
f 52 9 51
f 53 7 48
f 53 11 7
f 52 48 47
f 52 53 48
f 54 49 8
f 54 8 12
f 54 12 11
f 54 11 53
f 57 13 14
f 57 56 13
f 15 57 14
f 15 58 57
f 16 58 15
f 16 59 58
f 61 13 56
f 61 18 13
f 61 17 18
f 61 60 17
f 61 55 60
f 61 56 55
f 59 16 21
f 59 21 62
f 64 17 60
f 64 22 17
f 65 62 21
f 65 21 26
f 27 65 26
f 27 66 65
f 65 63 62
f 65 66 63
f 64 28 22
f 64 68 28
f 29 28 68
f 29 68 69
f 70 30 29
f 70 29 69
f 71 31 30
f 71 30 70
f 72 32 31
f 72 31 71
f 73 66 27
f 73 27 33
f 33 32 72
f 33 72 73
f 73 67 66
f 73 74 67
f 75 70 69
f 75 76 70
f 77 70 76
f 77 71 70
f 78 71 77
f 78 72 71
f 81 34 35
f 81 80 34
f 82 35 36
f 82 81 35
f 37 82 36
f 37 83 82
f 85 34 80
f 85 39 34
f 85 38 39
f 85 84 38
f 85 79 84
f 85 80 79
f 86 83 37
f 86 37 42
f 43 86 42
f 43 87 86
f 89 38 84
f 89 44 38
f 90 45 44
f 90 44 89
f 91 87 43
f 91 43 49
f 91 88 87
f 91 92 88
f 90 50 45
f 90 94 50
f 93 90 89
f 93 94 90
f 95 51 50
f 95 50 94
f 52 51 95
f 52 95 96
f 53 52 96
f 53 96 97
f 98 91 49
f 98 49 54
f 98 54 53
f 98 53 97
f 100 96 99
f 100 97 96
f 103 102 101
f 103 104 102
f 112 105 111
f 112 106 105
f 113 55 56
f 113 112 55
f 112 107 106
f 112 113 107
f 114 56 57
f 114 113 56
f 58 114 57
f 58 115 114
f 59 115 58
f 59 116 115
f 115 109 108
f 115 116 109
f 119 110 118
f 119 111 110
f 120 55 112
f 120 60 55
f 119 112 111
f 119 120 112
f 121 116 59
f 121 59 62
f 63 121 62
f 63 122 121
f 121 117 116
f 121 122 117
f 123 119 118
f 123 124 119
f 120 64 60
f 120 125 64
f 125 119 124
f 125 120 119
f 126 122 63
f 126 63 66
f 67 126 66
f 67 127 126
f 125 68 64
f 125 129 68
f 128 125 124
f 128 129 125
f 130 69 68
f 130 68 129
f 73 72 131
f 73 131 132
f 127 67 74
f 127 74 133
f 133 74 73
f 133 73 132
f 133 132 126
f 133 126 127
f 135 128 134
f 135 129 128
f 130 75 69
f 130 136 75
f 135 130 129
f 135 136 130
f 137 76 75
f 137 75 136
f 138 77 76
f 138 76 137
f 131 72 78
f 131 78 139
f 78 77 138
f 78 138 139
f 144 140 143
f 144 141 140
f 145 141 144
f 145 142 141
f 153 146 152
f 153 147 146
f 154 79 80
f 154 153 79
f 153 148 147
f 153 154 148
f 81 154 80
f 81 155 154
f 82 155 81
f 82 156 155
f 157 82 83
f 157 156 82
f 156 150 149
f 156 157 150
f 159 152 151
f 159 160 152
f 161 79 153
f 161 84 79
f 161 152 160
f 161 153 152
f 162 157 83
f 162 83 86
f 87 162 86
f 87 163 162
f 162 158 157
f 162 163 158
f 88 163 87
f 88 164 163
f 166 84 161
f 166 89 84
f 165 161 160
f 165 166 161
f 164 88 92
f 164 92 168
f 92 91 167
f 92 167 168
f 167 163 164
f 167 164 168
f 166 93 89
f 166 170 93
f 169 166 165
f 169 170 166
f 171 94 93
f 171 93 170
f 95 94 171
f 95 171 172
f 173 96 95
f 173 95 172
f 175 167 91
f 175 91 98
f 175 98 97
f 175 97 174
f 176 172 171
f 176 177 172
f 173 99 96
f 173 178 99
f 174 97 100
f 174 100 179
f 179 100 99
f 179 99 178
f 184 101 102
f 184 183 101
f 184 180 183
f 184 181 180
f 187 101 183
f 187 103 101
f 187 182 186
f 187 183 182
f 188 184 102
f 188 102 104
f 188 104 103
f 188 103 187
f 188 187 183
f 188 183 184
f 190 185 189
f 190 186 185
f 191 186 190
f 191 187 186
f 194 189 193
f 194 190 189
f 200 192 199
f 200 193 192
f 203 105 106
f 203 202 105
f 203 195 202
f 203 196 195
f 107 203 106
f 107 204 203
f 203 197 196
f 203 204 197
f 207 108 109
f 207 206 108
f 208 198 207
f 208 199 198
f 209 199 208
f 209 200 199
f 212 105 202
f 212 111 105
f 212 110 111
f 212 211 110
f 212 201 211
f 212 202 201
f 213 204 107
f 213 107 113
f 114 213 113
f 114 214 213
f 215 108 206
f 215 115 108
f 115 214 114
f 115 215 214
f 215 205 214
f 215 206 205
f 216 207 109
f 216 109 116
f 215 206 207
f 215 207 216
f 117 216 116
f 117 217 216
f 217 207 216
f 217 208 207
f 219 110 211
f 219 118 110
f 219 210 218
f 219 211 210
f 221 217 117
f 221 117 122
f 220 216 217
f 220 217 221
f 219 123 118
f 219 223 123
f 222 219 218
f 222 223 219
f 224 124 123
f 224 123 223
f 226 221 122
f 226 122 126
f 225 220 221
f 225 221 226
f 224 128 124
f 224 228 128
f 227 224 223
f 227 228 224
f 226 126 132
f 226 132 233
f 233 132 131
f 233 131 232
f 233 232 225
f 233 225 226
f 234 128 228
f 234 134 128
f 235 135 134
f 235 134 234
f 236 136 135
f 236 135 235
f 237 137 136
f 237 136 236
f 237 236 229
f 237 229 230
f 238 138 137
f 238 137 237
f 237 230 231
f 237 231 238
f 239 232 131
f 239 131 139
f 239 139 138
f 239 138 238
f 239 238 231
f 239 231 232
f 244 140 141
f 244 243 140
f 245 141 142
f 245 244 141
f 245 240 244
f 245 241 240
f 243 143 140
f 243 247 143
f 246 243 242
f 246 247 243
f 248 144 143
f 248 143 247
f 249 245 142
f 249 142 145
f 249 145 144
f 249 144 248
f 249 248 244
f 249 244 245
f 252 247 251
f 252 248 247
f 255 250 254
f 255 251 250
f 261 253 260
f 261 254 253
f 262 254 261
f 262 255 254
f 265 146 147
f 265 264 146
f 265 256 264
f 265 257 256
f 148 265 147
f 148 266 265
f 265 258 257
f 265 266 258
f 269 149 150
f 269 268 149
f 270 259 269
f 270 260 259
f 271 260 270
f 271 261 260
f 274 146 264
f 274 152 146
f 274 151 152
f 274 273 151
f 274 263 273
f 274 264 263
f 275 266 148
f 275 148 154
f 155 275 154
f 155 276 275
f 275 267 266
f 275 276 267
f 277 149 268
f 277 156 149
f 277 155 156
f 277 276 155
f 277 267 276
f 277 268 267
f 278 269 150
f 278 150 157
f 158 278 157
f 158 279 278
f 279 269 278
f 279 270 269
f 273 159 151
f 273 281 159
f 281 272 280
f 281 273 272
f 282 160 159
f 282 159 281
f 284 279 158
f 284 158 163
f 284 283 278
f 284 278 279
f 282 165 160
f 282 286 165
f 285 282 281
f 285 286 282
f 288 284 163
f 288 163 167
f 287 283 284
f 287 284 288
f 286 169 165
f 286 290 169
f 289 286 285
f 289 290 286
f 291 170 169
f 291 169 290
f 171 170 291
f 171 291 292
f 173 172 293
f 173 293 294
f 288 167 175
f 288 175 296
f 296 175 174
f 296 174 295
f 296 295 287
f 296 287 288
f 297 291 290
f 297 298 291
f 292 176 171
f 292 299 176
f 298 292 291
f 298 299 292
f 293 172 177
f 293 177 300
f 300 177 176
f 300 176 299
f 300 299 292
f 300 292 293
f 301 173 294
f 301 178 173
f 302 295 174
f 302 174 179
f 179 178 301
f 179 301 302
f 302 301 294
f 302 294 295
f 181 303 180
f 181 304 303
f 306 180 303
f 306 183 180
f 306 182 183
f 306 305 182
f 307 304 181
f 307 181 184
f 307 184 183
f 307 183 306
f 307 306 303
f 307 303 304
f 309 182 305
f 309 186 182
f 186 308 185
f 186 309 308
f 306 183 187
f 306 187 310
f 308 189 185
f 308 311 189
f 312 311 308
f 312 308 309
f 310 187 191
f 310 191 313
f 313 191 190
f 313 190 312
f 313 312 309
f 313 309 310
f 311 193 189
f 311 315 193
f 315 192 193
f 315 314 192
f 312 190 194
f 312 194 316
f 316 194 193
f 316 193 315
f 316 315 311
f 316 311 312
f 318 195 196
f 318 317 195
f 197 318 196
f 197 319 318
f 321 192 314
f 321 199 192
f 199 320 198
f 199 321 320
f 322 315 193
f 322 193 200
f 325 195 317
f 325 202 195
f 325 201 202
f 325 324 201
f 326 319 197
f 326 197 204
f 328 205 206
f 328 327 205
f 329 198 320
f 329 207 198
f 330 329 320
f 330 320 321
f 331 322 200
f 331 200 209
f 209 208 330
f 209 330 331
f 331 330 321
f 331 321 322
f 324 211 201
f 324 333 211
f 333 210 211
f 333 332 210
f 333 323 332
f 333 324 323
f 334 326 204
f 334 204 213
f 335 205 327
f 335 214 205
f 335 213 214
f 335 334 213
f 334 327 326
f 334 335 327
f 328 206 215
f 328 215 336
f 329 216 207
f 329 337 216
f 216 336 215
f 216 337 336
f 338 330 208
f 338 208 217
f 338 217 216
f 338 216 337
f 338 337 329
f 338 329 330
f 339 210 332
f 339 218 210
f 340 339 332
f 340 332 333
f 337 216 220
f 337 220 341
f 339 222 218
f 339 342 222
f 343 223 222
f 343 222 342
f 346 341 220
f 346 220 225
f 343 227 223
f 343 347 227
f 348 228 227
f 348 227 347
f 350 230 229
f 350 229 349
f 349 344 345
f 349 345 350
f 351 231 230
f 351 230 350
f 352 346 225
f 352 225 232
f 352 232 231
f 352 231 351
f 348 234 228
f 348 354 234
f 353 348 347
f 353 354 348
f 355 235 234
f 355 234 354
f 356 349 229
f 356 229 236
f 356 236 235
f 356 235 355
f 241 357 240
f 241 358 357
f 360 242 243
f 360 359 242
f 361 240 357
f 361 244 240
f 361 243 244
f 361 360 243
f 362 358 241
f 362 241 245
f 362 245 244
f 362 244 361
f 362 361 357
f 362 357 358
f 359 246 242
f 359 363 246
f 364 247 246
f 364 246 363
f 363 359 360
f 363 360 364
f 361 244 248
f 361 248 365
f 365 364 360
f 365 360 361
f 364 251 247
f 364 367 251
f 367 250 251
f 367 366 250
f 365 248 252
f 365 252 368
f 368 252 251
f 368 251 367
f 368 367 364
f 368 364 365
f 366 254 250
f 366 370 254
f 370 253 254
f 370 369 253
f 371 367 251
f 371 251 255
f 371 370 366
f 371 366 367
f 373 256 257
f 373 372 256
f 258 373 257
f 258 374 373
f 377 253 369
f 377 260 253
f 260 376 259
f 260 377 376
f 378 377 369
f 378 369 370
f 379 371 255
f 379 255 262
f 379 262 261
f 379 261 378
f 379 378 370
f 379 370 371
f 381 256 372
f 381 264 256
f 381 263 264
f 381 380 263
f 382 374 258
f 382 258 266
f 267 382 266
f 267 383 382
f 382 375 374
f 382 383 375
f 384 267 268
f 384 383 267
f 385 259 376
f 385 269 259
f 385 268 269
f 385 384 268
f 386 385 376
f 386 376 377
f 387 378 261
f 387 261 271
f 271 270 386
f 271 386 387
f 387 386 377
f 387 377 378
f 389 263 380
f 389 273 263
f 389 272 273
f 389 388 272
f 390 384 385
f 390 385 391
f 392 386 270
f 392 270 279
f 392 279 278
f 392 278 391
f 392 391 385
f 392 385 386
f 388 280 272
f 388 393 280
f 394 281 280
f 394 280 393
f 393 388 389
f 393 389 394
f 391 278 283
f 391 283 395
f 394 285 281
f 394 396 285
f 400 395 283
f 400 283 287
f 396 289 285
f 396 401 289
f 402 290 289
f 402 289 401
f 405 293 292
f 405 292 404
f 405 404 397
f 405 397 398
f 294 293 405
f 294 405 406
f 405 398 399
f 405 399 406
f 407 400 287
f 407 287 295
f 407 295 294
f 407 294 406
f 402 297 290
f 402 408 297
f 409 298 297
f 409 297 408
f 410 404 292
f 410 292 299
f 410 299 298
f 410 298 409
f 410 409 403
f 410 403 404
f 412 305 306
f 412 411 305
f 413 305 411
f 413 309 305
f 412 306 310
f 412 310 414
f 310 309 413
f 310 413 414
f 413 411 412
f 413 412 414
f 416 314 315
f 416 415 314
f 318 417 317
f 318 418 417
f 319 418 318
f 319 419 418
f 421 314 415
f 421 321 314
f 416 315 322
f 416 322 422
f 322 321 421
f 322 421 422
f 421 415 416
f 421 416 422
f 424 323 324
f 424 423 323
f 417 325 317
f 417 425 325
f 425 324 325
f 425 424 324
f 426 419 319
f 426 319 326
f 327 426 326
f 327 427 426
f 426 420 419
f 426 427 420
f 428 327 328
f 428 427 327
f 429 323 423
f 429 332 323
f 333 332 429
f 333 429 430
f 430 429 423
f 430 423 424
f 428 328 336
f 428 336 432
f 433 336 337
f 433 432 336
f 430 340 333
f 430 435 340
f 340 434 339
f 340 435 434
f 437 436 431
f 437 431 432
f 433 337 341
f 433 341 438
f 434 342 339
f 434 439 342
f 343 342 439
f 343 439 440
f 439 434 435
f 439 435 440
f 345 344 441
f 345 441 442
f 443 442 436
f 443 436 437
f 444 438 341
f 444 341 346
f 443 437 438
f 443 438 444
f 445 343 440
f 445 347 343
f 446 441 344
f 446 344 349
f 447 345 442
f 447 350 345
f 351 350 447
f 351 447 448
f 447 442 443
f 447 443 448
f 449 444 346
f 449 346 352
f 449 352 351
f 449 351 448
f 449 448 443
f 449 443 444
f 445 353 347
f 445 450 353
f 451 354 353
f 451 353 450
f 452 355 354
f 452 354 451
f 446 349 356
f 446 356 453
f 453 356 355
f 453 355 452
f 373 454 372
f 373 455 454
f 374 455 373
f 374 456 455
f 375 456 374
f 375 457 456
f 454 381 372
f 454 459 381
f 459 380 381
f 459 458 380
f 460 457 375
f 460 375 383
f 461 383 384
f 461 460 383
f 462 380 458
f 462 389 380
f 461 384 390
f 461 390 464
f 465 390 391
f 465 464 390
f 466 389 462
f 466 394 389
f 468 467 463
f 468 463 464
f 465 391 395
f 465 395 469
f 466 396 394
f 466 470 396
f 398 397 471
f 398 471 472
f 399 398 472
f 399 472 473
f 473 472 467
f 473 467 468
f 474 469 395
f 474 395 400
f 474 473 468
f 474 468 469
f 470 401 396
f 470 475 401
f 402 401 475
f 402 475 476
f 478 471 397
f 478 397 404
f 478 404 403
f 478 403 477
f 479 399 473
f 479 406 399
f 480 474 400
f 480 400 407
f 407 406 479
f 407 479 480
f 479 473 474
f 479 474 480
f 476 408 402
f 476 481 408
f 482 477 403
f 482 403 409
f 409 408 481
f 409 481 482
f 483 477 482
f 483 478 477
f 485 417 418
f 485 484 417
f 486 418 419
f 486 485 418
f 420 486 419
f 420 487 486
f 484 425 417
f 484 489 425
f 425 488 424
f 425 489 488
f 490 485 486
f 490 486 491
f 487 420 427
f 487 427 492
f 491 486 487
f 491 487 492
f 493 427 428
f 493 492 427
f 494 424 488
f 494 430 424
f 493 428 432
f 493 432 497
f 497 432 431
f 497 431 496
f 496 492 493
f 496 493 497
f 498 432 433
f 498 497 432
f 499 430 494
f 499 435 430
f 501 496 431
f 501 431 436
f 501 500 495
f 501 495 496
f 502 432 497
f 502 437 432
f 503 498 433
f 503 433 438
f 503 438 437
f 503 437 502
f 502 497 498
f 502 498 503
f 499 440 435
f 499 504 440
f 506 501 436
f 506 436 442
f 506 442 441
f 506 441 505
f 506 505 500
f 506 500 501
f 504 445 440
f 504 507 445
f 510 505 441
f 510 441 446
f 511 445 507
f 511 450 445
f 451 450 511
f 451 511 512
f 511 507 508
f 511 508 512
f 513 452 451
f 513 451 512
f 512 508 509
f 512 509 513
f 514 510 446
f 514 446 453
f 514 453 452
f 514 452 513
f 514 513 509
f 514 509 510
f 516 454 455
f 516 515 454
f 517 455 456
f 517 516 455
f 457 517 456
f 457 518 517
f 515 459 454
f 515 520 459
f 459 519 458
f 459 520 519
f 518 457 460
f 518 460 521
f 522 460 461
f 522 521 460
f 523 458 519
f 523 462 458
f 522 461 464
f 522 464 526
f 526 464 463
f 526 463 525
f 525 521 522
f 525 522 526
f 527 464 465
f 527 526 464
f 523 466 462
f 523 528 466
f 531 525 463
f 531 463 467
f 531 530 524
f 531 524 525
f 532 464 526
f 532 468 464
f 533 527 465
f 533 465 469
f 533 469 468
f 533 468 532
f 532 526 527
f 532 527 533
f 534 466 528
f 534 470 466
f 534 528 529
f 534 529 535
f 537 531 467
f 537 467 472
f 537 472 471
f 537 471 536
f 537 536 530
f 537 530 531
f 538 470 534
f 538 475 470
f 476 475 538
f 476 538 539
f 538 534 535
f 538 535 539
f 541 536 471
f 541 471 478
f 542 476 539
f 542 481 476
f 482 481 542
f 482 542 543
f 542 539 540
f 542 540 543
f 544 541 478
f 544 478 483
f 483 482 543
f 483 543 544
f 544 543 540
f 544 540 541
f 546 484 485
f 546 545 484
f 545 489 484
f 545 548 489
f 489 547 488
f 489 548 547
f 546 485 490
f 546 490 549
f 548 545 546
f 548 546 549
f 550 490 491
f 550 549 490
f 551 491 492
f 551 550 491
f 552 488 547
f 552 494 488
f 553 552 547
f 553 547 548
f 553 548 549
f 553 549 554
f 554 549 550
f 554 550 555
f 556 551 492
f 556 492 496
f 556 496 495
f 556 495 555
f 556 555 550
f 556 550 551
f 557 494 552
f 557 499 494
f 558 557 552
f 558 552 553
f 559 558 553
f 559 553 554
f 560 555 495
f 560 495 500
f 560 559 554
f 560 554 555
f 561 499 557
f 561 504 499
f 561 557 558
f 561 558 562
f 563 562 558
f 563 558 559
f 564 560 500
f 564 500 505
f 564 563 559
f 564 559 560
f 565 504 561
f 565 507 504
f 508 507 565
f 508 565 566
f 565 561 562
f 565 562 566
f 567 509 508
f 567 508 566
f 566 562 563
f 566 563 567
f 568 564 505
f 568 505 510
f 568 510 509
f 568 509 567
f 568 567 563
f 568 563 564
f 570 515 516
f 570 569 515
f 571 516 517
f 571 570 516
f 572 517 518
f 572 571 517
f 569 520 515
f 569 574 520
f 520 573 519
f 520 574 573
f 575 574 569
f 575 569 570
f 575 570 571
f 575 571 576
f 577 572 518
f 577 518 521
f 576 571 572
f 576 572 577
f 573 523 519
f 573 578 523
f 579 578 573
f 579 573 574
f 579 574 575
f 579 575 580
f 580 575 576
f 580 576 581
f 582 577 521
f 582 521 525
f 582 525 524
f 582 524 581
f 582 581 576
f 582 576 577
f 583 523 578
f 583 528 523
f 529 528 583
f 529 583 584
f 583 578 579
f 583 579 584
f 585 584 579
f 585 579 580
f 586 581 524
f 586 524 530
f 586 585 580
f 586 580 581
f 587 529 584
f 587 535 529
f 587 584 585
f 587 585 588
f 589 586 530
f 589 530 536
f 589 588 585
f 589 585 586
f 590 535 587
f 590 539 535
f 540 539 590
f 540 590 591
f 590 587 588
f 590 588 591
f 592 589 536
f 592 536 541
f 592 541 540
f 592 540 591
f 592 591 588
f 592 588 589
