# parsimony mesh: cplx_CPLX0-11758 (source /Users/eranagmon/code/v2e-cplx/workspace/studies/ecoli-3d/viz/3d/structures/cplx_CPLX0-11758.pdb)
# atoms: 2492  voxel: 4 Å  verts: 1514  tris: 3096
v 57.1585 -40.5467 -31.0803
v 58.1503 -40.5467 -31.0803
v 57.1585 -39.0132 -31.0803
v 58.1503 -39.0132 -31.0803
v -19.0850 38.8732 -30.8502
v -18.1754 38.8732 -30.8502
v -19.0850 40.2179 -30.8502
v -18.1754 40.2179 -30.8502
v 53.3305 -44.3675 -26.7386
v 54.1897 -44.3675 -26.7386
v 53.3305 -43.4902 -26.7386
v 55.5336 -42.1578 -27.7935
v 58.6116 -41.1585 -28.5846
v 56.1324 -37.8577 -28.8826
v 59.5919 -37.9344 -28.8276
v 62.2897 -36.8556 -27.2406
v 56.5849 -34.1245 -27.5653
v 59.4474 -34.0114 -27.7628
v 62.2897 -35.2693 -27.2406
v 44.8228 -28.9207 -27.3426
v 47.5525 -29.1472 -27.3529
v 50.2316 -28.6919 -26.8510
v 57.2811 -32.0065 -26.7288
v 58.0440 -32.0065 -26.7288
v 44.8228 -27.5507 -27.3426
v 47.8426 -26.1802 -27.2888
v 50.2443 -26.1245 -26.8963
v 49.3693 -24.0306 -26.7338
v 49.7958 -24.0306 -26.7338
v -22.5779 35.6875 -26.7363
v -21.9388 35.6875 -26.7363
v -22.7014 37.8755 -27.0971
v -20.5119 37.4981 -28.2596
v -17.6417 38.3094 -28.5846
v -23.1313 41.8755 -27.2470
v -20.4300 41.6809 -29.0141
v -17.2376 41.6809 -28.4842
v -34.7195 47.6192 -26.9261
v -32.4475 47.4005 -27.1089
v -29.6346 47.4985 -26.9421
v -23.1512 44.2890 -26.9362
v -20.4475 44.5155 -27.2228
v -17.5053 44.3154 -27.0839
v -34.7195 48.4120 -26.9261
v -32.4475 49.2102 -27.1089
v -28.6662 50.0766 -26.9618
v -26.0665 51.0347 -26.9815
v -27.6978 52.2820 -26.9815
v -26.0665 52.2820 -26.9815
v 53.4727 -48.1759 -22.6693
v 53.6533 -48.1759 -22.6693
v 52.9803 -45.8703 -24.2354
v 55.2549 -45.7863 -24.3638
v 59.5525 -44.4495 -23.2125
v 61.6172 -44.1439 -22.6148
v 52.8377 -42.1439 -24.5902
v 55.3941 -42.2856 -25.9928
v 59.6411 -42.2984 -25.1411
v 63.1913 -41.8189 -23.0979
v 65.6479 -40.2819 -22.6530
v 49.3373 -36.2962 -22.7023
v 51.7620 -37.8275 -23.3925
v 54.0729 -38.1245 -25.5062
v 61.0335 -39.5222 -26.0083
v 63.5948 -38.1631 -25.1934
v 66.6113 -38.1245 -23.2778
v 40.8232 -32.7593 -23.2490
v 43.5525 -33.0267 -23.5818
v 47.8234 -34.0654 -23.4936
v 51.5525 -34.1245 -23.7965
v 54.5849 -34.1245 -25.1591
v 60.7107 -32.6027 -26.0363
v 63.5948 -34.0114 -25.7199
v 67.3072 -34.1245 -23.9150
v 40.8754 -30.1245 -23.2473
v 43.5146 -30.2022 -25.1139
v 47.5525 -31.1472 -25.6325
v 51.8732 -29.8427 -24.3906
v 55.7897 -31.2561 -24.3126
v 59.4474 -31.7495 -24.6556
v 63.5525 -31.5362 -23.8618
v 66.5758 -31.6489 -23.5025
v 41.3790 -27.8815 -22.8038
v 43.5684 -26.3827 -24.2228
v 46.7027 -24.8840 -25.6418
v 51.4443 -26.1245 -24.5846
v 44.9806 -23.8541 -22.9751
v 47.8426 -23.7789 -24.4189
v 49.9633 -23.8952 -24.5846
v -26.5181 31.7643 -22.7837
v -24.4475 31.4089 -23.1663
v -21.9168 31.3646 -23.1611
v -26.5181 32.1093 -22.7837
v -24.2128 33.8984 -24.3058
v -20.5945 34.0570 -24.7796
v -16.4475 34.9156 -23.7819
v -13.5998 35.3780 -23.0342
v -23.8061 37.8755 -24.5846
v -19.2721 36.1230 -26.3981
v -16.3662 37.6240 -25.5101
v -12.3389 38.1189 -23.2696
v -10.3186 39.6146 -22.6639
v -31.4117 43.5299 -22.7444
v -28.4475 42.9455 -23.3183
v -25.0382 41.7389 -24.6756
v -15.1391 41.8755 -25.6911
v -12.4475 41.8755 -24.0157
v -10.0799 41.8755 -22.9093
v -35.4397 46.7474 -24.5846
v -32.6260 45.1468 -24.2805
v -28.3597 46.0493 -25.3721
v -24.2608 45.9472 -24.8276
v -20.4475 45.7273 -24.5846
v -16.2822 44.8422 -24.7021
v -12.3630 45.8468 -23.4679
v -9.8915 45.8755 -23.0419
v -35.5674 49.7974 -24.5417
v -32.4475 51.2102 -25.9823
v -28.6662 50.0766 -26.3860
v -25.4725 49.7710 -24.7851
v -10.9733 48.1135 -22.8407
v -10.0674 48.1135 -22.8407
v -34.9911 52.3254 -23.1797
v -32.4475 52.7970 -23.9823
v -28.7977 52.6736 -24.9457
v -26.0367 52.2890 -24.5846
v 53.3698 -48.2159 -20.5846
v 53.8112 -48.2159 -20.5846
v 52.2208 -46.1245 -20.5846
v 55.8112 -46.9909 -20.5846
v 59.5676 -44.8292 -20.9435
v 61.6172 -44.1439 -22.5160
v 49.2395 -40.8867 -18.9489
v 50.8428 -42.1818 -20.4032
v 60.9111 -43.0387 -19.8494
v 63.1913 -42.2232 -20.9435
v 66.1377 -40.5622 -20.5846
v 48.5211 -37.8275 -20.4032
v 50.5684 -38.9629 -21.6156
v 68.4105 -38.2358 -20.9719
v 70.2073 -36.9767 -19.8968
v 37.1388 -32.6665 -19.3096
v 39.5149 -33.1677 -20.6196
v 43.5525 -34.3202 -20.5846
v 46.4979 -35.4227 -20.5846
v 57.3368 -32.4469 -19.1570
v 57.9526 -32.4469 -19.1570
v 69.3072 -34.1245 -22.1607
v 70.1532 -34.1245 -20.1607
v 37.1134 -30.1245 -19.3581
v 38.8754 -30.1245 -21.3581
v 53.5147 -28.3268 -22.4698
v 55.5964 -30.1265 -20.8134
v 59.3926 -31.5666 -20.5280
v 63.5525 -30.6546 -20.5846
v 67.7665 -31.2658 -20.6582
v 69.6986 -31.9217 -19.3739
v 37.3807 -27.6461 -18.8909
v 39.6945 -26.4304 -20.4732
v 42.3140 -25.2148 -22.0556
v 48.8938 -24.2670 -18.8504
v 51.6858 -26.0022 -20.6601
v 53.8559 -27.7373 -19.8031
v 40.6767 -23.5475 -19.3889
v 43.6094 -23.5797 -20.6672
v 47.5573 -23.7988 -20.3441
v 49.8568 -23.9127 -21.5171
v -26.6635 31.5267 -20.5846
v -24.4475 30.7838 -20.5846
v -21.4250 31.1326 -20.5846
v -27.0139 33.6158 -20.6848
v -25.8478 34.7759 -22.0850
v -19.4250 33.1701 -20.5846
v -16.4213 35.0127 -20.2261
v -13.5998 35.3780 -21.3204
v -30.6836 39.6386 -18.9951
v -28.4411 38.1334 -19.8839
v -25.5523 37.8755 -21.9008
v -15.0705 35.9415 -18.6537
v -12.3389 37.0354 -20.2261
v -8.7702 39.3236 -20.3015
v -6.3421 39.7552 -18.7795
v -38.7692 43.7349 -19.2741
v -36.4475 43.3237 -20.0274
v -32.3810 42.0719 -20.7403
v -28.4475 40.9455 -21.5834
v -25.8536 40.3145 -22.1725
v -8.0799 41.8755 -20.8897
v -6.2955 41.8755 -18.8898
v -39.2932 45.8755 -19.8558
v -36.6781 45.5268 -21.9420
v -34.0784 43.9611 -22.4854
v -22.7036 47.6053 -21.9819
v -20.5950 46.8440 -20.6230
v -16.4475 46.1140 -20.5846
v -13.2709 47.2008 -20.5846
v -8.3410 45.5898 -20.3118
v -6.3502 44.0659 -18.7966
v -39.3351 49.8755 -19.8065
v -37.6434 49.8755 -21.8065
v -23.8737 49.6495 -20.6230
v -22.0266 48.1654 -19.3153
v -11.2709 48.0947 -20.5846
v -10.0853 48.0947 -20.5846
v -38.8251 52.6957 -19.2084
v -36.3737 53.2724 -20.5589
v -32.4475 53.8782 -20.5846
v -28.4475 53.0696 -20.5846
v -26.0382 52.1978 -20.5846
v 53.3887 -48.1950 -18.4405
v 53.7966 -48.1950 -18.4405
v 52.1936 -46.1227 -16.8982
v 55.2989 -46.8421 -16.8982
v 58.6701 -45.0237 -16.5846
v 48.5591 -41.6190 -16.5846
v 49.9767 -43.6190 -16.5846
v 57.2988 -40.4216 -14.8478
v 59.6309 -41.7301 -16.5894
v 63.5525 -40.6298 -18.1470
v 66.2373 -40.5507 -18.2547
v 45.0761 -36.9395 -15.7108
v 46.4433 -38.2135 -16.8603
v 57.2988 -39.8382 -14.8478
v 59.5525 -39.4312 -15.5919
v 63.5525 -38.9414 -16.1470
v 67.5544 -38.0809 -16.7146
v 70.2073 -36.9767 -17.8413
v 36.6792 -33.1029 -16.5846
v 39.5525 -33.7844 -16.5846
v 43.6666 -34.9674 -16.8603
v 45.6950 -35.9539 -18.3775
v 57.3715 -32.3784 -16.5846
v 57.8633 -32.3784 -16.5846
v 68.6351 -34.1245 -15.7350
v 70.1532 -34.1245 -17.7350
v 36.0283 -30.1245 -16.5846
v 45.1724 -29.3677 -15.1654
v 47.5525 -29.6208 -15.4688
v 51.5525 -29.4488 -15.8468
v 55.1897 -30.3328 -16.8355
v 59.4424 -30.2708 -16.6123
v 63.7105 -29.3389 -16.6123
v 67.6272 -31.0709 -16.7509
v 69.6986 -31.9217 -18.1952
v 36.9016 -27.2430 -16.5846
v 39.4270 -25.0593 -16.2250
v 43.7245 -25.7645 -15.6842
v 47.5573 -25.8100 -17.6027
v 51.5525 -26.9410 -17.8468
v 53.8559 -27.7373 -18.3360
v 60.2879 -27.1500 -15.2975
v 62.4824 -27.1500 -15.2975
v 40.6767 -23.5475 -17.3186
v 43.5525 -23.6462 -17.5236
v 46.2271 -24.0637 -18.4358
v -26.6648 31.5217 -17.8904
v -24.5226 31.2126 -16.5681
v -21.3680 31.3123 -16.5846
v -27.7340 33.6941 -16.5681
v -25.9060 32.2398 -15.2238
v -19.3680 33.3079 -16.5846
v -17.6807 35.3079 -16.5846
v -31.1275 38.7415 -16.5846
v -29.8927 36.7415 -16.5846
v -18.6376 39.7531 -14.7133
v -16.7673 38.0638 -15.7826
v -12.6727 38.6893 -16.7212
v -8.4475 39.3813 -18.1134
v -6.3421 39.7552 -18.3953
v -39.2878 43.6363 -16.5846
v -36.4667 43.3271 -16.4113
v -33.1118 41.9185 -16.4113
v -18.6376 39.9442 -14.7133
v -18.2160 39.9442 -14.7133
v -11.4895 40.5167 -15.4790
v -8.5136 41.8602 -16.5077
v -6.2955 41.8755 -18.3177
v -42.5511 47.2934 -14.8880
v -41.2033 45.9263 -16.3666
v -35.1462 44.3019 -14.9624
v -32.3259 45.9642 -14.8872
v -28.4475 47.0270 -15.2192
v -24.4475 46.8157 -15.7212
v -20.6110 47.2761 -16.7313
v -16.4475 47.2355 -18.0165
v -12.3792 47.4675 -17.1074
v -8.7845 45.6553 -17.1011
v -6.3502 44.0659 -18.4180
v -42.5511 48.3922 -14.8880
v -41.3138 49.7855 -16.3666
v -31.1794 49.8755 -15.3569
v -28.4475 49.8755 -16.5780
v -24.6200 49.6495 -17.6995
v -20.3828 49.1426 -16.4899
v -16.4475 49.8755 -16.2117
v -12.6336 49.0416 -16.7933
v -10.3447 47.9297 -18.4510
v -39.4260 52.8373 -16.5846
v -36.4475 54.2627 -16.5846
v -32.4993 53.2461 -16.6660
v -28.4475 52.3768 -17.9434
v -26.0684 52.1603 -18.2607
v -18.6363 52.0385 -14.7370
v -16.4475 52.0669 -14.7798
v -14.3516 51.9678 -14.6926
v 52.3316 -44.7883 -13.9567
v 55.5525 -44.9656 -13.8653
v 58.3507 -44.5822 -14.2535
v 48.5410 -41.3549 -13.6891
v 51.2200 -42.4627 -13.2982
v 55.8003 -41.9027 -13.6369
v 58.3507 -43.0882 -14.2535
v 45.0761 -36.9395 -13.9655
v 47.3456 -38.2135 -13.2825
v 51.5525 -38.1245 -12.3811
v 55.8574 -38.5379 -12.5578
v 59.5525 -38.8315 -12.5846
v 63.5525 -37.8037 -12.5846
v 66.2658 -36.7169 -12.5846
v 36.7354 -32.8941 -12.5846
v 39.5525 -33.3552 -12.5846
v 43.6666 -34.2867 -12.6131
v 47.2521 -33.9178 -12.0208
v 51.5525 -34.1245 -12.9372
v 55.9664 -33.2742 -12.9154
v 57.5668 -32.1406 -14.5657
v 67.1869 -34.1245 -12.5846
v 35.3626 -30.1245 -12.5846
v 45.2455 -29.1375 -12.5846
v 47.2521 -30.9860 -12.7856
v 51.5525 -31.4488 -14.0037
v 56.0977 -30.8447 -13.0734
v 57.6148 -30.1245 -14.2721
v 64.4668 -28.7701 -12.5846
v 66.4736 -30.7701 -12.5846
v 36.1797 -26.9335 -12.5846
v 39.7220 -24.8117 -12.8248
v 44.0145 -25.9640 -12.4886
v 45.5788 -25.0701 -10.6591
v 57.3892 -27.9877 -11.5202
v 59.1937 -27.3939 -12.7460
v 62.4668 -27.3138 -12.5846
v 41.1683 -23.8930 -11.6515
v 43.5525 -23.9125 -11.4406
v 45.5788 -24.0733 -10.6591
v -23.2394 31.6042 -14.2957
v -21.8408 31.6042 -14.2957
v -27.7183 34.9064 -14.0343
v -24.5226 33.6941 -13.9561
v -20.4835 33.9164 -14.0250
v -18.1354 35.2769 -14.1491
v -31.1181 38.6004 -13.4156
v -28.8100 37.5104 -13.1063
v -24.4475 37.8755 -12.9728
v -19.8347 38.6546 -13.0592
v -17.2437 38.5516 -13.3795
v -14.0805 39.6697 -12.5846
v -39.2463 43.6972 -14.0548
v -37.8129 43.6972 -14.0548
v -31.6008 41.8755 -13.3059
v -28.4475 41.8755 -12.6042
v -24.4475 41.8755 -12.7563
v -20.3652 41.0478 -12.7503
v -18.2160 39.9442 -14.4733
v -11.9810 41.8602 -12.4703
v -9.8910 43.1833 -13.7275
v -42.7267 47.1344 -12.5846
v -40.5268 45.1256 -12.6667
v -36.4667 44.5707 -12.6667
v -32.3522 45.8061 -13.2120
v -28.4475 45.0270 -14.0393
v -23.6636 45.9236 -12.6032
v -21.8758 46.0395 -12.3685
v -11.6253 45.8970 -12.4703
v -9.8910 44.5780 -13.7275
v -42.7640 49.7855 -12.5688
v -42.0412 51.0588 -13.8917
v -32.2656 49.8755 -12.5846
v -22.6183 48.1052 -11.0085
v -20.2492 49.7191 -12.5756
v -16.4475 50.9387 -11.8870
v -13.7406 49.8515 -12.6917
v -42.6028 52.0137 -11.2250
v -40.6038 52.4791 -12.5688
v -36.1388 54.5017 -12.3832
v -33.6760 53.9811 -12.3832
v -18.6363 52.0385 -14.1427
v -16.4475 52.0669 -13.8870
v -14.3516 51.9678 -14.0964
v -34.5996 55.9529 -10.9156
v -34.3147 55.9529 -10.9156
v 16.9695 -44.7938 -7.2255
v 19.5525 -45.4170 -7.5390
v 22.4732 -45.1786 -7.2163
v 16.7968 -42.1245 -7.1697
v 19.5525 -42.1245 -7.7489
v 22.4320 -42.1245 -7.1638
v 13.3222 -36.6917 -6.7806
v 15.6978 -38.0648 -6.9633
v 19.5525 -38.1245 -7.0366
v 21.7613 -38.1245 -6.7103
v 57.1151 -37.0963 -8.5846
v 59.5525 -38.0077 -8.5846
v 63.5525 -37.3872 -8.5846
v 65.9613 -36.4758 -8.5846
v 13.3222 -35.7994 -6.7806
v 15.5525 -35.3652 -6.9535
v 19.5205 -34.1121 -7.0584
v 21.8143 -34.1245 -6.9550
v 37.2137 -32.3882 -10.0450
v 39.5525 -32.5232 -9.6495
v 43.4340 -32.7101 -8.5603
v 45.9703 -32.6555 -8.5846
v 56.3575 -34.1245 -8.5846
v 65.5067 -32.4448 -6.6454
v 66.1418 -33.9167 -8.2211
v 20.8325 -31.7601 -7.0516
v 21.8751 -31.7601 -7.0516
v 36.6361 -29.7867 -8.6608
v 39.5525 -30.8205 -7.6495
v 43.9942 -29.6955 -7.9958
v 45.9703 -30.2555 -8.5846
v 56.8484 -30.2016 -8.8420
v 58.5836 -28.9196 -7.6803
v 65.0075 -30.2454 -8.4014
v 65.9125 -30.2454 -8.4014
v 36.6611 -27.4125 -8.5846
v 38.9164 -25.4125 -8.5846
v 45.4736 -27.7772 -8.5846
v 45.8255 -25.7772 -8.5846
v 57.3892 -27.9877 -10.3469
v 59.7712 -27.8625 -8.8420
v 63.3259 -27.3859 -8.7283
v 65.8356 -27.1934 -7.4908
v 40.9164 -23.3281 -8.5846
v 43.5525 -22.7993 -8.5846
v 45.8255 -23.5957 -8.5846
v -59.0180 31.4045 -6.9944
v -57.2182 31.4045 -6.9944
v -59.6369 33.8755 -7.2840
v -56.5294 33.8755 -7.2840
v -62.8083 39.1931 -6.7438
v -60.6567 37.8661 -7.1408
v -57.0663 37.8755 -7.1604
v -19.1430 39.4827 -8.5846
v -16.7618 39.4992 -8.8183
v -14.2494 39.7720 -10.3075
v -62.8083 40.9886 -6.7438
v -60.7508 42.1434 -7.0014
v -57.5736 41.8755 -6.9862
v -20.3081 41.8755 -8.5846
v -15.6380 40.4706 -7.6408
v -12.5377 41.9630 -8.6862
v -10.2578 43.4554 -7.0648
v -59.6196 44.4580 -6.8750
v -57.7958 44.4580 -6.8750
v -42.7162 47.4694 -9.8730
v -40.0741 47.0673 -8.5576
v -36.4475 45.8182 -8.5846
v -33.4162 46.5239 -8.5846
v -22.6183 47.4008 -9.4651
v -21.6006 45.9907 -8.3129
v -11.6364 45.6972 -8.4727
v -10.2578 44.2450 -7.0648
v -42.7655 49.8755 -9.8763
v -40.7304 49.8755 -7.8763
v -32.5034 49.8755 -8.5846
v -22.6183 48.1052 -9.4651
v -20.6686 48.5784 -8.3129
v -16.2116 50.4167 -8.6315
v -13.5139 49.8515 -8.6315
v -42.6028 52.0137 -10.3518
v -40.2472 52.5352 -8.8449
v -37.1531 54.5964 -8.5846
v -32.8837 53.8755 -8.5846
v -14.7210 52.1054 -7.3295
v -13.9552 52.1054 -7.3295
v -35.1531 56.2434 -8.5846
v -33.7965 56.2434 -8.5846
v 29.5393 -60.1305 -2.5956
v 29.5811 -60.1305 -2.5956
v 17.5028 -56.1501 -2.6132
v 17.6578 -56.1501 -2.6132
v 25.2231 -56.2889 -2.7375
v 27.9446 -57.8231 -2.9661
v 31.1696 -58.1524 -3.2081
v 34.3874 -56.8377 -3.1409
v 17.3525 -54.1245 -2.7375
v 19.2157 -54.0765 -3.4146
v 23.7548 -54.0765 -3.7963
v 27.5525 -54.1245 -3.8590
v 31.5525 -54.1245 -3.8935
v 34.5167 -54.1245 -3.2491
v 17.1090 -50.1245 -2.9867
v 19.5525 -50.1245 -4.6589
v 23.5525 -50.1245 -5.5354
v 27.5525 -50.1245 -4.9309
v 31.5525 -50.1245 -4.0678
v 34.0143 -50.1245 -3.0002
v 13.4904 -44.2200 -2.6560
v 15.7405 -45.8402 -4.1340
v 19.5525 -47.4170 -5.6428
v 23.7049 -46.3569 -5.9265
v 27.5525 -46.1245 -5.2657
v 31.6793 -46.2203 -3.7523
v 33.7176 -47.6175 -2.8089
v 13.3711 -42.1245 -3.0338
v 14.7968 -42.1245 -5.0338
v 24.4320 -42.1245 -5.6525
v 27.7123 -41.9564 -3.8503
v 30.4305 -43.1776 -3.2702
v 13.3475 -38.1655 -4.5864
v 14.4181 -38.1655 -4.5864
v 24.0294 -37.8268 -4.5378
v 26.4855 -38.9617 -3.1733
v 57.2315 -36.3094 -4.5846
v 59.6181 -36.5491 -4.2785
v 63.5525 -36.5248 -5.2125
v 65.7989 -36.1970 -5.9319
v 13.3222 -35.7994 -6.0608
v 15.6460 -35.3261 -4.6703
v 19.5205 -33.2467 -4.3686
v 22.4718 -33.8500 -4.3686
v 36.9830 -32.3909 -3.1934
v 39.5525 -32.4147 -3.3720
v 43.4340 -32.4835 -4.4492
v 45.9691 -32.4828 -4.5846
v 53.4255 -32.4242 -2.7315
v 55.4129 -33.9043 -4.2727
v 60.9952 -35.9822 -2.7412
v 64.3900 -34.2810 -4.5745
v 65.8692 -34.0449 -4.8279
v 20.8325 -31.7601 -5.5579
v 21.8751 -31.7601 -5.5579
v 36.9420 -29.7867 -4.5499
v 39.5525 -30.8205 -5.3720
v 43.7491 -29.9037 -6.0924
v 46.1268 -29.7648 -4.9293
v 53.4255 -31.9095 -2.7315
v 55.6697 -31.0199 -4.2727
v 59.7712 -28.8279 -4.3992
v 64.3900 -30.3098 -4.7143
v 65.8876 -30.6082 -4.8904
v 37.2166 -27.8986 -4.5846
v 38.9639 -25.8986 -4.5846
v 45.4765 -28.0492 -6.4924
v 46.2834 -26.4793 -4.9293
v 61.2503 -27.9311 -5.6090
v 63.5525 -27.2811 -5.4571
v 65.8356 -27.1934 -6.0569
v 40.9639 -23.2199 -4.5846
v 43.5525 -22.4456 -4.5846
v 46.1649 -23.3502 -4.5846
v -50.6782 19.7236 -2.7440
v -48.4475 19.3978 -3.1410
v -45.1317 19.3904 -3.1670
v -62.5583 23.7081 -2.6772
v -60.4475 23.5059 -2.8701
v -56.4475 23.2780 -3.7076
v -52.1859 21.9928 -3.7039
v -48.4475 21.8755 -3.8214
v -44.0581 21.4880 -3.4578
v -42.0663 22.5630 -3.0472
v -62.5583 24.0775 -2.6772
v -60.3419 25.5967 -3.0866
v -56.4475 25.8755 -4.9670
v -52.4475 25.8755 -5.4742
v -48.4475 25.8755 -4.3286
v -44.4077 25.9934 -3.4052
v -42.0663 24.7386 -3.0472
v -62.7151 31.6398 -2.8619
v -60.3114 30.1888 -4.2846
v -56.1099 29.9929 -5.9530
v -52.4475 29.8755 -5.8053
v -48.4475 29.8755 -4.8981
v -45.4796 29.8755 -3.5459
v -63.0488 33.8755 -3.4623
v -61.6369 33.8755 -5.4623
v -54.5294 33.8755 -6.5312
v -52.4475 33.8755 -5.6204
v -48.1475 34.1769 -3.9281
v -45.8899 33.0445 -3.3716
v -63.2495 37.8661 -4.7204
v -62.1295 36.5265 -6.1443
v -55.0663 37.8755 -5.9560
v -52.4154 38.0123 -4.0253
v -49.2808 36.7701 -3.1572
v -18.5324 39.8186 -6.4639
v -18.3047 39.8186 -6.4639
v -63.0494 41.0896 -4.5846
v -61.5065 43.0896 -4.5846
v -55.5736 41.8755 -5.0267
v -53.8453 41.8755 -3.0267
v -22.8738 43.6629 -3.0051
v -20.2123 42.1007 -4.7345
v -16.7618 41.1773 -4.9122
v -12.4475 42.5613 -4.5846
v -10.2092 43.4313 -4.5846
v -59.5065 44.4612 -4.5846
v -56.4565 44.3602 -4.2376
v -54.3648 43.9023 -2.6729
v -42.6607 47.7399 -2.7872
v -40.0741 47.3936 -4.3062
v -36.4475 45.8376 -4.5846
v -33.2158 46.3383 -4.5846
v -22.8420 45.8755 -3.5553
v -21.8073 45.8755 -5.5553
v -11.6242 46.4272 -4.5846
v -10.2092 44.4272 -4.5846
v -42.6607 47.9669 -2.7872
v -40.3876 49.5303 -4.3062
v -31.8270 49.8755 -4.5846
v -22.5472 48.0133 -3.4584
v -20.6686 48.2968 -4.7089
v -16.2116 49.9481 -4.7855
v -13.4935 49.6094 -4.7855
v -38.8393 52.4721 -4.5846
v -37.3194 54.4721 -4.5846
v -32.2623 53.8755 -4.5846
v -14.7210 52.1054 -6.2528
v -13.9552 52.1054 -6.2528
v -35.3194 56.2993 -4.5846
v -33.6511 56.2993 -4.5846
v 29.2991 -60.1761 -0.5846
v 29.7814 -60.1761 -0.5846
v 9.3581 -56.3664 1.2620
v 10.3205 -56.3664 1.2620
v 17.1429 -56.2133 -0.5846
v 19.2157 -56.7244 -0.5852
v 23.7548 -57.3491 -0.5852
v 27.2991 -58.9942 -0.5846
v 31.7814 -59.3120 -0.5846
v 35.6534 -57.1861 -0.4647
v 37.7005 -56.3106 0.9486
v 9.3191 -54.1245 1.2362
v 10.6247 -54.1245 1.2362
v 16.2165 -54.1245 -0.5846
v 20.3245 -55.3778 -1.9189
v 22.5564 -55.3778 -1.9189
v 36.5167 -54.1245 -0.9942
v 37.6834 -54.1245 1.0058
v 9.2791 -50.1245 1.2167
v 11.5495 -50.3314 0.9864
v 14.9868 -50.3314 -0.4546
v 35.6142 -50.5003 -0.2322
v 37.5790 -52.0843 1.3360
v 9.3046 -47.6233 1.2360
v 11.7439 -45.9216 -0.2327
v 14.5115 -46.8867 -1.7013
v 32.5869 -45.5674 -0.5846
v 33.7916 -47.5674 -0.5846
v 12.2441 -42.1245 -0.5846
v 29.1522 -40.5110 -1.7614
v 30.5397 -41.9564 -0.4907
v 12.9569 -39.2484 -0.5846
v 15.0058 -37.2484 -0.5846
v 25.4023 -36.2951 -2.4147
v 27.8298 -37.9429 -0.7547
v 29.8187 -39.5907 0.9052
v 56.5050 -36.3273 -0.5846
v 59.6181 -36.5466 -0.6530
v 61.6924 -36.5575 0.6347
v 17.0058 -35.7309 -0.5846
v 19.7543 -33.5352 -0.6619
v 23.8624 -33.8500 -1.7131
v 27.7254 -34.3495 -0.4099
v 31.5525 -33.1912 0.0492
v 35.6108 -32.6748 -0.5035
v 39.5195 -32.5188 -0.6748
v 43.5525 -32.2839 -1.9966
v 45.7170 -32.2164 -2.3170
v 52.9812 -33.2876 -0.5846
v 54.5050 -35.2876 -0.5846
v 60.9952 -35.9822 -2.0320
v 63.2364 -35.2094 -0.6530
v 66.1838 -33.0873 -0.5846
v 21.2222 -31.9764 0.6199
v 23.5525 -31.4028 0.3774
v 27.5525 -30.5832 0.0063
v 31.2392 -29.7799 -0.1107
v 34.8301 -30.1245 -1.5246
v 40.8308 -31.7682 0.5985
v 43.8909 -30.3107 0.1902
v 45.9771 -30.1245 -1.5034
v 52.5536 -30.3955 -0.6584
v 55.5525 -29.1474 -1.9854
v 59.6198 -28.6956 -0.8315
v 63.5525 -30.1804 -0.5846
v 66.1838 -31.6506 -0.5846
v 32.3637 -27.2398 0.6935
v 35.7163 -26.8561 -0.6178
v 38.5617 -25.2025 -0.5846
v 45.4498 -28.0016 1.2560
v 47.3261 -26.1119 -0.0158
v 51.4106 -25.7830 0.8416
v 55.3637 -25.9905 0.2166
v 58.3314 -27.2345 0.3373
v 40.5617 -23.2099 -0.5846
v 43.5525 -22.5879 -0.5846
v 47.4398 -23.6096 -0.2064
v 51.5525 -24.0422 1.2904
v 53.9045 -24.0436 1.2851
v -55.4724 19.3646 0.8298
v -52.1859 19.2486 -0.5359
v -48.4475 18.5707 -0.5846
v -44.0581 19.1036 -0.9267
v -42.2848 19.7947 0.1786
v -67.0829 23.2196 1.2139
v -64.1140 23.2120 -0.3055
v -60.4475 22.4666 -0.5846
v -56.6624 21.1355 -0.5359
v -53.3449 20.7376 -1.8368
v -42.4651 19.8963 -2.4881
v -41.6528 21.4880 -0.9267
v -67.5893 25.8755 1.1063
v -64.1140 25.5967 -0.6221
v -61.6049 26.7442 -1.5684
v -43.0479 27.4052 -1.5184
v -41.7143 25.9934 -0.3449
v -67.4536 29.8755 0.8410
v -64.2081 30.1341 -0.8344
v -61.6049 28.9731 -1.5684
v -43.8473 29.5228 -0.3449
v -42.3873 27.9544 1.1483
v -66.8537 33.8755 0.8520
v -65.0488 33.8755 -1.1480
v -46.6141 35.7112 -2.2940
v -45.7546 34.1769 -0.8103
v -66.5346 36.1945 1.2195
v -65.0306 37.6669 -0.3022
v -51.0606 39.4368 -1.4035
v -48.4843 37.9080 -0.5154
v -46.2268 36.3793 0.3726
v -18.5331 39.8083 1.3049
v -18.2463 39.8083 1.3049
v -63.2759 40.4989 -0.5846
v -60.8195 42.4989 -0.5846
v -51.8453 41.8755 -1.2533
v -48.7918 41.9104 0.3052
v -45.6420 43.2669 0.4566
v -23.4552 43.3158 -0.5846
v -20.0989 41.4255 -0.2509
v -16.7268 41.2909 -0.2509
v -12.4739 43.1898 -0.6918
v -10.3194 43.7033 -2.0965
v -58.8195 44.2240 -0.5846
v -56.4475 44.8331 -0.5846
v -52.6418 45.6149 -0.4958
v -48.4475 45.8755 -0.8002
v -44.1513 46.0629 -0.8171
v -40.4475 46.0654 -0.5846
v -36.4475 45.4192 -0.5846
v -33.2326 46.5103 -0.5846
v -24.4283 45.8755 -0.5846
v -14.5466 47.6594 1.1468
v -12.5990 45.9505 -0.4749
v -10.3194 44.2416 -2.0965
v -50.9187 48.1292 0.9991
v -48.4475 48.7847 0.4735
v -44.2856 49.7338 -0.5216
v -41.3038 50.6335 -1.6190
v -31.1512 49.9764 -0.8255
v -29.6240 51.3769 0.3472
v -23.7993 49.5582 -0.5140
v -20.4254 50.2574 -0.5140
v -16.1070 48.7087 -0.3458
v -14.0398 48.0987 -1.5199
v -43.2438 52.1369 1.0477
v -39.9049 53.4595 -0.1596
v -36.4811 54.9631 -0.2754
v -32.2240 54.4193 -0.4907
v -29.7544 53.8755 0.5293
v -23.4031 52.2807 0.8663
v -21.7440 52.2807 0.8663
v -38.5061 55.9229 1.2997
v -36.4811 55.9752 -0.2754
v -32.4571 55.9726 -0.2742
v -30.3469 55.9177 1.3021
v 29.2278 -60.1872 2.1389
v 31.1075 -60.3360 3.3726
v 35.5525 -60.5372 4.5849
v 38.6221 -60.3146 5.1172
v 9.3581 -56.3664 2.0521
v 10.3205 -56.3664 2.0521
v 16.3571 -57.0406 3.4154
v 19.5525 -58.5845 3.4154
v 23.5525 -58.9410 3.4154
v 27.7577 -59.4328 3.4495
v 31.1075 -59.8014 3.3726
v 35.5525 -58.9167 2.5849
v 38.6807 -57.8361 3.6365
v 9.2560 -54.0919 3.3974
v 11.6007 -54.3662 3.1500
v 14.3852 -54.4472 3.1149
v 37.1905 -52.8047 4.2388
v 38.0548 -54.1326 3.1094
v 8.9409 -50.1245 3.4154
v 12.8808 -51.8027 1.5813
v 13.8676 -51.8027 1.5813
v 35.9912 -50.5003 3.1094
v 37.5790 -52.0843 1.5721
v 9.0029 -46.2237 3.3753
v 9.9974 -44.9566 2.0152
v 32.5113 -45.4516 3.4154
v 33.8723 -47.4516 3.4154
v 9.1522 -43.5968 4.6819
v 10.7143 -42.2078 3.3753
v 32.0793 -42.1766 3.5033
v 34.0286 -40.8780 4.8953
v 12.6710 -39.2370 3.4154
v 15.8216 -37.3813 3.3315
v 17.9023 -36.7358 4.6089
v 29.1740 -36.9240 2.7003
v 31.0954 -37.9543 3.7978
v 34.0286 -38.9846 4.8953
v 52.7665 -36.9490 4.1406
v 55.3032 -37.0801 3.0505
v 59.5525 -37.1740 3.4154
v 61.7097 -36.5978 3.4154
v 17.3344 -35.9181 1.9422
v 19.5623 -34.0367 3.6429
v 21.5691 -32.1554 5.3437
v 29.1740 -35.8328 2.7003
v 31.2443 -35.3113 3.7864
v 35.5525 -34.0446 3.4154
v 39.5195 -32.8062 3.4410
v 43.5525 -32.2592 4.9455
v 47.5525 -32.4593 5.1011
v 51.5088 -34.3062 3.2365
v 53.8038 -36.0423 1.4740
v 61.2721 -33.1089 5.0455
v 62.9906 -34.1650 3.3482
v 66.0070 -32.5544 1.6510
v 21.2222 -31.9764 2.6770
v 23.3980 -30.3100 3.7441
v 27.5067 -29.0065 3.4528
v 30.5482 -28.8376 3.4154
v 40.8308 -31.7682 2.1248
v 43.9890 -30.6104 3.7688
v 47.8120 -30.5214 5.0556
v 50.3991 -30.1245 2.9676
v 60.6628 -30.0693 3.5934
v 63.5525 -31.2915 2.3147
v 66.0070 -31.7725 1.6510
v 25.2269 -27.9005 4.8111
v 26.1428 -27.9005 4.8111
v 32.5482 -26.9834 3.4154
v 35.2847 -25.0198 3.3131
v 39.4939 -24.4435 3.5150
v 43.9890 -26.2086 3.4554
v 48.3093 -26.3744 3.2267
v 50.8797 -26.0925 3.1750
v 55.3637 -25.3121 3.1692
v 58.6507 -27.1945 3.4154
v 36.4395 -23.9018 4.5782
v 39.4939 -23.5913 3.5150
v 43.5525 -23.1535 2.4755
v 47.5525 -23.7647 1.7207
v 51.5525 -24.0422 1.6301
v 53.9045 -24.0436 1.6717
v -59.4569 19.2981 4.3690
v -56.3678 19.3313 3.4780
v -52.7247 19.1162 3.7184
v -48.4475 18.2124 3.4154
v -44.4475 18.1752 3.4154
v -40.7499 19.0325 3.4816
v -37.8019 19.2746 4.8591
v -67.1316 23.1606 3.4154
v -64.4475 22.2467 3.4154
v -60.6531 20.8825 3.1876
v -56.3678 20.1073 3.4780
v -54.2428 20.1091 5.2537
v -40.0212 21.8311 3.4816
v -37.8019 20.4682 4.8591
v -68.4331 25.8755 3.4154
v -54.4749 27.8294 5.3885
v -54.4168 27.8294 5.3885
v -42.8861 27.1536 4.2888
v -41.6827 25.8424 3.1394
v -68.7494 29.8755 3.4154
v -54.4749 27.9229 5.3885
v -54.4168 27.9229 5.3885
v -43.6167 29.5228 3.1394
v -42.3873 27.9544 1.6221
v -67.6219 33.8755 3.4154
v -46.4653 35.8609 5.3794
v -45.6211 34.2668 3.7938
v -66.6216 36.2052 3.4154
v -65.2642 38.2052 3.4154
v -47.0766 37.4754 3.7787
v -45.7282 37.4754 3.7787
v -23.3701 39.6947 5.1175
v -20.0989 39.6527 3.6367
v -18.1066 39.7326 3.4154
v -63.2642 40.3048 3.4154
v -60.2012 42.4077 3.4708
v -57.5665 43.5235 4.8410
v -47.6879 40.6003 2.1781
v -44.1025 41.6264 3.4047
v -41.3409 42.6526 4.6313
v -24.2458 41.9554 3.6367
v -21.1998 40.6753 2.4508
v -16.2266 41.9462 3.1683
v -13.8248 43.3267 1.6702
v -58.7036 44.1417 2.1744
v -56.0533 45.7346 3.7022
v -53.5853 47.3274 2.5633
v -46.5408 47.7348 5.3053
v -44.6479 46.0603 3.6349
v -40.1835 44.6381 3.3449
v -36.4475 45.6322 3.4154
v -32.4234 46.5565 3.3727
v -28.4475 46.6613 4.5330
v -26.0109 45.9721 3.5522
v -15.4273 46.1458 3.1683
v -13.8248 44.9927 1.6702
v -54.5401 47.9594 5.2300
v -52.3302 48.3985 3.7041
v -48.1035 48.9233 3.7493
v -45.5048 50.0507 3.7493
v -34.5568 51.6957 5.0501
v -31.8589 50.1255 3.3882
v -28.9517 49.7903 3.3568
v -24.8575 49.9178 3.6650
v -20.4254 50.9969 3.5781
v -17.1075 48.9924 3.4154
v -43.3645 52.4863 3.4154
v -40.0827 54.3261 3.0684
v -36.3489 53.8115 3.2769
v -32.2551 53.8367 2.2592
v -29.7544 53.8755 1.7441
v -23.4031 52.2807 2.3532
v -21.7440 52.2807 2.3532
v -38.5061 55.9229 1.5037
v -38.1409 55.9229 1.5037
v -30.7935 55.9177 1.4806
v -30.3469 55.9177 1.4806
v 25.3991 -60.1363 9.3822
v 25.8570 -60.1363 9.3822
v 32.0465 -60.4402 7.4154
v 35.2522 -60.4912 7.2896
v 38.6221 -60.3146 5.8724
v 5.4548 -56.2357 9.2763
v 6.1890 -56.2357 9.2763
v 16.0125 -57.3253 7.4154
v 19.5525 -58.9579 7.4154
v 23.8605 -59.4514 7.7955
v 27.3352 -59.5850 7.7955
v 30.0465 -59.9240 7.4154
v 36.3533 -58.1245 8.3371
v 38.8517 -58.1245 6.3371
v 5.4548 -55.8304 9.2763
v 7.7978 -54.3708 8.2129
v 11.5525 -54.8766 7.4154
v 14.0125 -55.7249 7.4154
v 36.8090 -54.1326 7.4786
v 38.2151 -55.4714 6.1873
v 8.7158 -50.1245 7.4154
v 35.4651 -50.1245 7.4154
v 9.0815 -45.7967 7.7863
v 11.5525 -44.4420 9.2082
v 13.8648 -44.4276 9.1877
v 32.9963 -44.7964 6.0788
v 34.1723 -46.1276 7.4134
v 9.1522 -43.5968 6.7003
v 11.6159 -42.2078 7.4554
v 14.0847 -42.1245 9.0018
v 32.9963 -43.5446 6.0788
v 34.0483 -42.1766 7.4134
v 12.9916 -39.6240 6.4250
v 15.3909 -39.0183 7.6211
v 18.7553 -37.1172 7.4154
v 28.5949 -36.9841 8.0962
v 31.2443 -37.5499 7.0239
v 33.9156 -39.2615 7.4154
v 52.6725 -37.2343 7.4154
v 55.7014 -37.3494 7.6273
v 59.5525 -36.6944 6.2651
v 61.6222 -36.3226 5.5285
v 20.7553 -35.1299 7.4154
v 23.1624 -33.5227 7.3959
v 27.3779 -34.3184 7.5231
v 31.2443 -34.4579 5.8588
v 35.5525 -33.5565 6.0964
v 39.5525 -32.7739 5.8447
v 43.5525 -32.2592 5.5599
v 47.6904 -32.6711 7.0161
v 50.6725 -34.8072 7.4154
v 57.1341 -35.8661 9.1019
v 59.7817 -34.4875 7.3152
v 61.6222 -35.7755 5.5285
v 24.3208 -30.1245 6.1149
v 27.5067 -30.2395 6.0937
v 31.8623 -30.2395 5.8796
v 35.5525 -30.1245 7.0507
v 39.5525 -30.1245 7.6459
v 43.7379 -30.5214 6.2377
v 47.8837 -30.2118 7.0038
v 49.7928 -28.3042 8.5910
v 59.6602 -30.1245 7.4154
v 25.2269 -27.9005 5.7139
v 26.1428 -27.9005 5.7139
v 33.4022 -27.4878 5.4641
v 35.2847 -26.1424 6.6544
v 39.6824 -25.8991 7.3319
v 42.5282 -27.0822 6.5933
v 49.3184 -28.0662 5.9243
v 51.2967 -27.2559 7.3208
v 55.9142 -25.4808 7.7977
v 58.1750 -26.3144 7.7977
v 36.4395 -23.9018 6.2081
v 38.4356 -23.9018 6.2081
v 57.4887 -24.1113 9.3859
v 57.5714 -24.1113 9.3859
v -59.3823 19.3552 7.4154
v -56.1369 19.1247 7.1629
v -52.7247 19.0533 7.1629
v -48.4475 18.1458 7.4154
v -44.0698 18.5455 7.7942
v -40.4475 18.8824 6.8857
v -37.8019 19.2746 6.0778
v -70.9693 23.1635 8.7178
v -68.2135 23.1243 7.3969
v -64.4475 22.1681 7.4154
v -61.3823 20.5731 7.4154
v -54.5965 20.1091 5.6613
v -54.2428 20.1091 5.6613
v -42.4846 19.9078 9.3800
v -40.5409 21.5213 7.7289
v -37.8019 20.4682 6.0778
v -70.9693 24.5305 8.7178
v -69.0924 25.8685 7.3969
v -54.4749 27.8294 5.4598
v -54.4168 27.8294 5.4598
v -43.1658 27.0233 7.4154
v -41.5876 25.0233 7.4154
v -68.5515 29.8755 7.4154
v -54.4749 27.9229 5.4598
v -54.4168 27.9229 5.4598
v -43.3540 30.0327 7.6506
v -42.3566 31.4708 9.1408
v -67.3388 33.9487 7.1791
v -64.4475 35.0405 7.8300
v -61.7740 35.3070 8.3621
v -46.4653 35.8609 5.4366
v -44.4317 33.9835 7.2887
v -42.3566 32.1060 9.1408
v -66.5925 35.9962 5.6882
v -64.3032 37.5479 6.4164
v -61.7411 37.8755 8.4620
v -47.0702 37.6401 7.1217
v -45.5462 37.6401 7.1217
v -23.4755 39.5314 7.4154
v -20.6761 39.5262 7.1063
v -18.1942 39.7522 5.5668
v -62.8737 40.1224 6.5309
v -60.6865 40.7614 7.6847
v -56.3189 42.7508 7.1990
v -52.4475 42.5755 7.8999
v -48.7841 41.4979 7.8194
v -44.1168 41.5418 6.1936
v -41.3409 42.6526 5.7126
v -26.6223 43.6516 8.5723
v -25.5643 42.1412 7.3095
v -19.4952 40.8905 8.2335
v -17.8100 42.0845 7.1063
v -54.8562 45.8755 5.7048
v -52.4475 45.8755 6.2786
v -48.1035 46.1911 6.0394
v -44.7712 46.1911 5.9831
v -40.1835 45.6119 6.2064
v -36.4475 46.6572 6.2153
v -32.4475 46.6518 6.4808
v -28.3498 45.7327 7.4944
v -26.2715 44.7031 5.9056
v -18.5946 47.6130 9.2880
v -17.6305 46.1180 7.7389
v -54.5401 47.9594 5.4953
v -52.4475 48.3390 5.7940
v -49.2074 48.4097 5.8404
v -43.6719 49.8755 6.0415
v -40.3126 49.8709 7.9046
v -36.2752 50.1151 7.2820
v -32.4475 49.1869 6.4808
v -28.6254 48.9088 7.6161
v -24.4750 50.7797 7.2523
v -20.0971 50.1007 7.5491
v -17.8950 48.6127 6.6213
v -42.8739 52.4285 5.8762
v -40.3126 52.8121 7.2919
v -37.1890 52.6315 7.4154
v -23.1600 52.2564 8.4769
v -21.5997 52.2564 8.4769
v 13.4675 -60.1717 13.3564
v 13.6692 -60.1717 13.3564
v 20.9872 -60.5345 12.3198
v 23.8605 -60.5805 11.1580
v 26.1890 -60.3869 11.4154
v 32.7112 -60.1853 9.5707
v 33.7187 -60.1853 9.5707
v 5.4548 -56.2357 9.5782
v 6.1890 -56.2357 9.5782
v 12.9282 -58.1245 12.5739
v 15.1329 -57.9640 11.5211
v 19.6133 -58.9317 11.1580
v 24.0546 -58.1226 11.4515
v 27.1262 -58.3040 12.2017
v 31.4477 -59.1932 11.1086
v 35.4197 -57.7667 11.1178
v 37.7824 -56.3835 12.6650
v 5.4548 -55.8304 9.5782
v 7.5969 -54.4390 9.7640
v 11.4360 -54.3841 11.1511
v 13.9300 -55.7205 9.6858
v 25.3767 -55.9885 13.2500
v 25.7091 -55.9885 13.2500
v 36.6794 -54.1882 11.3651
v 37.7824 -55.5640 12.6650
v 9.0540 -50.1245 9.9632
v 10.6970 -50.1245 11.9632
v 35.4665 -50.1245 11.4154
v 9.4356 -46.9114 9.6114
v 11.7594 -46.5386 11.1330
v 14.3189 -45.0519 11.4154
v 34.6667 -46.1245 11.4154
v 15.2220 -42.1245 11.4154
v 28.7337 -41.2790 12.5435
v 31.5525 -41.8371 11.7686
v 33.9034 -42.4018 11.0211
v 13.2184 -36.6739 12.7598
v 15.4879 -38.0887 11.3783
v 18.8064 -36.8367 9.9968
v 25.2236 -36.2716 13.1868
v 27.3310 -37.9612 11.5318
v 31.5525 -39.7611 9.7686
v 33.5605 -40.1137 9.4249
v 52.6549 -37.1856 11.4154
v 54.8862 -37.1856 11.4154
v 13.2184 -35.6520 12.7598
v 15.5525 -35.4763 12.3597
v 19.9048 -35.7939 11.3642
v 23.7551 -35.8229 11.6783
v 25.9282 -35.7810 10.5202
v 48.6908 -32.9780 11.4154
v 50.6549 -34.9780 11.4154
v 56.8862 -35.3481 11.4154
v 58.2848 -33.3481 11.4154
v 48.6766 -29.8323 11.1778
v 49.7928 -28.3042 9.6860
v 57.1559 -28.7791 12.8874
v 58.3383 -30.1172 11.4986
v 49.2830 -26.1245 12.5730
v 51.1420 -25.9939 11.5204
v 55.9890 -25.9939 11.1616
v 57.8166 -26.1245 10.0347
v 49.5041 -24.0897 13.3549
v 49.8245 -24.0897 13.3549
v 57.4887 -24.1113 9.4359
v 57.5714 -24.1113 9.4359
v -54.8438 15.6729 12.8886
v -53.9979 15.6729 12.8886
v -66.4910 19.8177 13.3620
v -64.4475 19.5777 12.9184
v -60.1897 19.3956 11.4499
v -56.2853 17.6646 11.4993
v -52.3043 18.0433 11.7268
v -48.7320 18.9362 11.7052
v -44.7293 19.0316 11.4154
v -70.9693 23.1635 9.9839
v -67.6090 22.1211 11.8685
v -65.2795 22.0831 11.9352
v -61.3512 20.4083 10.1395
v -50.6107 20.0594 13.2317
v -50.2550 20.0594 13.2317
v -42.7293 20.1719 11.4154
v -41.4754 22.1719 11.4154
v -70.9693 24.5305 9.9839
v -68.1172 25.6977 11.6374
v -66.3887 24.1982 13.2909
v -42.9666 27.4612 10.4805
v -41.6358 26.0269 11.6545
v -67.1279 29.5344 11.2566
v -65.5296 30.6403 12.4841
v -42.8840 29.8278 11.5102
v -42.3737 29.8278 11.5102
v -66.9086 32.6641 9.8175
v -64.2968 33.3575 11.2566
v -61.7284 35.1365 11.4154
v -50.7385 35.5526 13.0903
v -48.4475 35.1382 12.5901
v -44.3320 33.6607 11.2566
v -42.3566 32.1060 9.8732
v -62.9951 38.9034 12.2331
v -61.7112 37.6923 11.1060
v -50.9895 37.8755 12.2314
v -48.7841 37.9754 10.4030
v -45.8627 36.7086 9.9734
v -23.1494 39.5002 11.4154
v -22.0820 39.5002 11.4154
v -62.9951 41.1112 12.2331
v -60.6865 41.1525 11.1060
v -56.4475 41.7112 11.4154
v -52.3065 40.8308 11.0633
v -50.3418 39.9128 9.4952
v -30.5058 43.8185 13.3019
v -28.1524 43.4259 11.7473
v -25.1494 41.3563 11.4154
v -20.2268 42.0845 11.2832
v -18.2186 43.5571 9.8617
v -30.5058 44.0550 13.3019
v -29.1956 45.5832 11.7473
v -19.3483 46.1180 11.2832
v -18.2186 44.9464 9.8617
v -38.8893 51.2011 9.7930
v -37.9935 51.2011 9.7930
v -28.0572 49.9290 11.3264
v -24.3866 51.3638 11.3744
v -20.7679 50.0080 11.4552
v -38.8893 52.2803 9.7930
v -37.9935 52.2803 9.7930
v -27.3916 52.5167 12.6005
v -24.3866 52.3866 11.3744
v -21.5997 52.2564 10.1484
v 13.4675 -60.1717 13.7858
v 13.6692 -60.1717 13.7858
v 20.9872 -60.5345 13.9309
v 23.5525 -60.6856 14.0870
v 26.0966 -60.4626 13.7954
v 12.9282 -58.1245 14.5606
v 15.2225 -58.0484 14.8670
v 19.5154 -57.9481 15.4527
v 24.3343 -57.8262 15.0358
v 26.8153 -57.9346 14.6400
v 31.5657 -57.1179 15.2839
v 35.5525 -56.5878 14.6257
v 37.7824 -56.3835 14.5816
v 12.3294 -54.3719 15.7093
v 15.5525 -55.6440 16.9521
v 18.0437 -55.7381 16.9746
v 25.3767 -55.9885 13.6343
v 25.7091 -55.9885 13.6343
v 32.7253 -54.1245 16.4110
v 35.6057 -54.1882 14.9116
v 37.7824 -55.5640 14.5816
v 12.5847 -50.0240 15.4272
v 15.5525 -48.8319 16.5908
v 19.5525 -48.7283 16.8503
v 21.9333 -48.4856 17.1144
v 33.1288 -50.1245 16.9928
v 34.4870 -50.1245 14.9928
v 13.2307 -47.7245 14.1017
v 15.5782 -46.2845 14.8049
v 19.9016 -45.8364 16.6125
v 21.9333 -46.9777 17.1144
v 33.4458 -48.0220 17.3053
v 34.4959 -46.4630 15.7493
v 16.6898 -42.1245 14.3906
v 19.1534 -42.1245 16.3906
v 28.0035 -41.9548 15.4154
v 31.5525 -43.1685 15.4154
v 34.3637 -43.3381 15.4154
v 13.2184 -36.6739 13.7386
v 15.6366 -38.0541 14.1785
v 19.6841 -38.2782 15.7844
v 23.7551 -37.4735 15.2152
v 26.0035 -39.1186 15.4154
v 52.7430 -36.8840 14.6108
v 54.4159 -36.8840 14.6108
v 13.2184 -35.6520 13.7386
v 15.5525 -35.4763 13.9555
v 19.5525 -35.7290 13.9628
v 22.5569 -35.9890 13.7484
v 48.2042 -33.1284 15.4154
v 51.4668 -35.2129 15.7327
v 55.8063 -34.3072 15.7522
v 57.7901 -32.6811 14.2269
v 45.0125 -29.1657 16.9788
v 46.6873 -30.3492 15.5534
v 56.6403 -30.1172 15.5023
v 57.7901 -31.4458 14.2269
v 45.0125 -27.2783 16.9788
v 48.0395 -26.1453 15.2351
v 51.3157 -25.4851 15.0610
v 54.6791 -27.1594 15.4154
v 49.5041 -24.0897 13.4914
v 49.8245 -24.0897 13.4914
v -54.8438 15.6729 13.7283
v -53.9979 15.6729 13.7283
v -66.4910 19.8177 13.5101
v -64.4475 19.5777 13.9338
v -60.4475 19.3628 14.1627
v -56.1626 18.2481 15.1052
v -52.3043 18.3656 15.1487
v -48.8122 19.6339 15.3945
v -45.4528 19.5015 14.2200
v -66.4792 22.2713 15.0853
v -65.2795 22.2055 15.1024
v -60.4475 20.8672 16.1627
v -57.4815 20.5529 16.4821
v -50.6107 20.0594 13.9023
v -48.4874 21.0972 15.6665
v -44.2507 21.6933 15.3784
v -41.8641 22.9052 14.5882
v -66.4856 25.4011 15.1075
v -65.2795 25.6181 15.3183
v -60.4475 27.5481 17.1282
v -58.3344 27.7573 17.3100
v -46.4779 24.0337 17.3763
v -44.7280 25.5704 16.5726
v -41.9675 25.8755 14.3911
v -66.5038 27.9736 13.5546
v -64.2968 29.5344 14.8175
v -60.4475 29.8755 16.6023
v -56.7796 30.2005 16.9719
v -54.2366 31.7505 17.2912
v -43.4372 29.6611 15.0923
v -42.3909 28.1849 13.5436
v -62.8630 32.7921 14.5572
v -60.4250 34.0613 15.7315
v -56.4475 32.6128 16.9400
v -52.5223 33.7671 16.2193
v -48.4475 34.1851 15.4154
v -44.1463 33.7573 15.9904
v -41.9916 34.7392 16.7571
v -62.9951 38.9034 13.7820
v -60.4250 37.5998 15.3013
v -57.4332 38.9629 16.8205
v -52.4132 37.8755 15.4154
v -43.2293 36.3010 16.7571
v -41.9916 36.3010 16.7571
v -22.9353 39.6532 13.7281
v -22.2458 39.6532 13.7281
v -62.9951 41.1112 13.7820
v -60.4475 41.2857 14.2442
v -56.2389 40.7611 15.4585
v -53.6241 40.4991 15.4154
v -30.5915 43.7496 15.4154
v -28.4475 43.2924 15.4154
v -24.3402 41.6623 15.2030
v -21.8243 42.0281 15.2030
v -30.9853 45.5832 15.4144
v -29.8898 46.7217 14.0804
v -20.8559 45.8755 15.4154
v -34.6152 51.3587 17.1912
v -32.2649 50.2022 16.9691
v -28.6407 50.3329 15.5966
v -24.3469 50.9348 15.6338
v -21.4836 48.8912 15.4154
v -34.6152 52.0572 17.1912
v -33.3779 52.0572 17.1912
v -27.3916 52.5167 14.4461
v -25.6131 52.5167 14.4461
v 20.7103 -56.5651 18.4111
v 23.5214 -56.8012 19.6128
v 27.3806 -56.8108 19.4577
v 30.2411 -56.5812 18.1526
v 13.0801 -53.2035 17.9708
v 15.5525 -53.6440 18.3641
v 19.4472 -54.2927 18.8152
v 22.6502 -54.1245 20.6330
v 28.5993 -55.5062 20.8192
v 30.7408 -54.1535 19.4577
v 13.0801 -51.2903 17.9708
v 15.5525 -50.8319 18.3641
v 19.5525 -50.7283 18.4184
v 23.5006 -50.0874 19.3375
v 27.5525 -49.1413 20.5743
v 31.0636 -49.9991 19.6126
v 21.4677 -44.3110 17.4408
v 23.3810 -45.8364 17.9498
v 27.5525 -46.1245 18.8539
v 31.8885 -46.4630 18.3629
v 34.3996 -45.3553 17.9418
v 21.1534 -42.1245 17.5793
v 23.5525 -42.1245 17.8661
v 27.2045 -42.4961 17.6794
v 31.5525 -43.4559 17.8533
v 34.3996 -43.2804 17.9418
v 21.1051 -39.7140 17.6084
v 23.5525 -39.7004 17.6106
v 25.6392 -39.9695 17.4826
v 45.3502 -32.6328 20.5528
v 47.3010 -33.2917 19.2979
v 51.5525 -34.8994 19.4154
v 54.6173 -33.8216 19.4154
v 44.8777 -30.3492 19.2979
v 45.8001 -31.8324 17.8862
v 55.1960 -30.1245 19.4154
v 44.8607 -27.1321 19.4154
v 47.5525 -26.4425 19.4154
v 51.5525 -26.9802 19.4154
v 54.1312 -27.6698 19.4154
v -54.8148 19.6316 18.6587
v -52.4475 19.6107 18.5143
v -50.0361 19.7663 17.6373
v -66.4673 23.8063 17.4492
v -64.4475 23.3073 17.8457
v -60.4475 22.8672 18.3676
v -56.0285 21.7106 19.7352
v -52.4475 20.8266 20.5143
v -48.9557 22.0407 19.1485
v -66.4673 23.9373 17.4492
v -64.4475 24.6831 17.8457
v -60.4475 25.5481 18.3676
v -56.4549 25.8951 19.5237
v -53.3645 26.6996 20.9024
v -47.3667 25.5704 19.3162
v -46.2483 26.7003 17.9167
v -55.6677 29.0839 18.2357
v -52.4672 29.8737 19.3429
v -48.6116 29.5483 19.9352
v -45.4193 29.8755 18.2891
v -58.6879 35.3304 17.5985
v -56.4475 34.6128 17.7652
v -52.7226 33.5772 17.7411
v -48.4475 32.9225 18.1891
v -44.2525 33.7344 17.9465
v -41.9916 34.7392 17.8141
v -58.6879 36.2962 17.5985
v -56.2389 37.7279 17.7671
v -53.8712 37.8755 17.7177
v -43.2293 36.3010 17.8141
v -41.9916 36.3010 17.8141
v -54.7665 40.0481 17.5352
v -54.2513 40.0481 17.5352
v -30.9337 43.5692 19.4154
v -28.4475 43.2197 19.4154
v -24.4475 43.0116 19.4154
v -22.0840 43.3611 19.4154
v -32.2501 45.8755 19.4154
v -22.9059 47.1088 20.8390
v -21.8448 45.8155 19.4696
v -34.6152 51.3587 17.7879
v -32.4556 50.3015 18.7179
v -28.4319 51.4287 19.4158
v -24.5042 49.9812 19.4609
v -21.9276 48.3423 18.1723
v -34.6152 52.0572 17.7879
v -33.3779 52.0572 17.7879
v -27.0882 51.9921 20.7494
v -26.1025 51.9921 20.7494
v 24.8341 -56.2781 21.5300
v 25.9326 -56.2781 21.5300
v 24.6502 -54.1245 21.7577
v 27.3806 -54.1535 22.0056
v 29.9692 -52.8395 21.9426
v 25.0679 -51.6892 21.7572
v 27.5525 -51.1413 22.0672
v 29.9692 -51.2488 21.9426
v 45.1495 -33.2530 23.4154
v 47.5525 -34.1384 23.4154
v 51.3525 -33.5052 23.3465
v 53.9947 -33.2452 21.9672
v 45.0006 -30.0744 23.4828
v 47.5525 -28.8600 24.8422
v 51.3525 -29.9630 24.1992
v 54.0387 -30.1245 22.0526
v 45.1701 -27.6475 22.1944
v 47.5525 -27.4112 22.8422
v 51.5525 -27.5401 22.4813
v 53.7586 -27.8193 21.7132
v -54.5755 22.8683 21.4529
v -52.4475 22.8266 21.6622
v -49.6756 23.4842 21.7070
v -54.5755 24.0329 21.4529
v -52.1977 25.5700 21.6793
v -49.5737 25.8755 21.7171
v -50.6978 27.9969 21.5261
v -50.0544 27.9969 21.5261
v -31.4559 43.3016 23.4154
v -28.4240 43.2215 23.3713
v -24.4475 43.4269 22.0832
v -22.2527 43.6020 21.7126
v -32.7535 45.8755 23.4154
v -27.4241 45.8755 24.5585
v -24.3225 45.8155 22.5082
v -22.2527 44.4422 21.7126
v -31.7451 48.9138 23.4154
v -28.4385 49.9010 23.3559
v -25.5325 49.8755 22.3261
v -27.0882 51.9921 21.6987
v -26.1025 51.9921 21.6987
v 44.9960 -33.2031 27.4154
v 47.5525 -33.5399 27.4154
v 49.8263 -32.4613 27.4154
v 44.7971 -30.0744 27.2833
v 47.8940 -29.1683 27.2833
v 49.8263 -30.9919 27.4154
v 45.0355 -27.5968 28.5286
v 46.7883 -27.5968 28.5286
v -31.2775 43.4078 26.6185
v -29.7417 43.4078 26.6185
v -32.0993 45.5485 27.7373
v -29.1730 45.5485 27.7373
v -31.8898 48.8315 27.4154
v -29.3837 48.8315 27.4154
v 45.0254 -32.6609 31.4154
v 47.3880 -32.5780 31.0458
v 49.5842 -32.1651 29.4661
v 44.5207 -30.1245 31.4154
v 48.2105 -30.1799 31.0458
v 49.5842 -31.5501 29.4661
v 45.0478 -27.6283 31.4154
v 46.5806 -27.6283 31.4154
v -31.6913 46.6638 30.4892
v -29.6878 46.6638 30.4892
v -31.6913 48.7730 30.4892
v -29.6878 48.7730 30.4892
v 45.2566 -32.3980 33.6819
v 45.9449 -32.3980 33.6819
v 45.2136 -30.1245 33.6819
v 45.9480 -30.1245 33.6819
v 45.3965 -27.9906 33.5042
v 45.6875 -27.9906 33.5042
f 3 2 1
f 3 4 2
f 7 6 5
f 7 8 6
f 11 10 9
f 11 12 10
f 13 1 2
f 13 12 1
f 14 1 12
f 14 3 1
f 13 2 4
f 13 4 15
f 4 3 14
f 4 14 15
f 17 15 14
f 17 18 15
f 18 16 15
f 18 19 16
f 24 17 23
f 24 18 17
f 25 21 20
f 25 26 21
f 26 22 21
f 26 27 22
f 28 27 26
f 28 29 27
f 32 31 30
f 32 33 31
f 34 5 6
f 34 33 5
f 36 5 33
f 36 7 5
f 36 32 35
f 36 33 32
f 34 6 8
f 34 8 37
f 8 7 36
f 8 36 37
f 42 35 41
f 42 36 35
f 43 36 42
f 43 37 36
f 44 39 38
f 44 45 39
f 45 40 39
f 45 46 40
f 48 47 46
f 48 49 47
f 10 52 9
f 10 53 52
f 52 51 50
f 52 53 51
f 56 9 52
f 56 11 9
f 57 53 10
f 57 10 12
f 57 12 11
f 57 11 56
f 13 57 12
f 13 58 57
f 57 54 53
f 57 58 54
f 58 55 54
f 58 59 55
f 63 12 57
f 63 14 12
f 63 56 62
f 63 57 56
f 64 58 13
f 64 13 15
f 16 64 15
f 16 65 64
f 64 59 58
f 64 65 59
f 65 60 59
f 65 66 60
f 70 61 69
f 70 62 61
f 63 17 14
f 63 71 17
f 71 62 70
f 71 63 62
f 73 65 16
f 73 16 19
f 19 18 72
f 19 72 73
f 74 65 73
f 74 66 65
f 75 68 67
f 75 76 68
f 77 20 21
f 77 76 20
f 77 68 76
f 77 69 68
f 22 77 21
f 22 78 77
f 77 70 69
f 77 78 70
f 71 23 17
f 71 79 23
f 78 71 70
f 78 79 71
f 72 18 24
f 72 24 80
f 80 24 23
f 80 23 79
f 81 72 80
f 81 73 72
f 82 73 81
f 82 74 73
f 76 25 20
f 76 84 25
f 83 76 75
f 83 84 76
f 85 26 25
f 85 25 84
f 86 78 22
f 86 22 27
f 85 28 26
f 85 88 28
f 87 85 84
f 87 88 85
f 89 86 27
f 89 27 29
f 89 29 28
f 89 28 88
f 93 91 90
f 93 94 91
f 95 30 31
f 95 94 30
f 94 92 91
f 94 95 92
f 98 30 94
f 98 32 30
f 99 95 31
f 99 31 33
f 34 99 33
f 34 100 99
f 99 96 95
f 99 100 96
f 100 97 96
f 100 101 97
f 98 35 32
f 98 105 35
f 100 34 37
f 100 37 106
f 106 101 100
f 106 107 101
f 107 102 101
f 107 108 102
f 39 109 38
f 39 110 109
f 111 39 40
f 111 110 39
f 111 103 110
f 111 104 103
f 105 41 35
f 105 112 41
f 112 104 111
f 112 105 104
f 113 42 41
f 113 41 112
f 106 37 43
f 106 43 114
f 43 42 113
f 43 113 114
f 114 107 106
f 114 115 107
f 115 108 107
f 115 116 108
f 109 44 38
f 109 117 44
f 118 45 44
f 118 44 117
f 119 111 40
f 119 40 46
f 119 46 45
f 119 45 118
f 47 119 46
f 47 120 119
f 120 111 119
f 120 112 111
f 121 116 115
f 121 122 116
f 123 118 117
f 123 124 118
f 119 48 46
f 119 125 48
f 125 118 124
f 125 119 118
f 126 120 47
f 126 47 49
f 126 49 48
f 126 48 125
f 51 127 50
f 51 128 127
f 129 50 127
f 129 52 50
f 130 128 51
f 130 51 53
f 54 130 53
f 54 131 130
f 132 54 55
f 132 131 54
f 129 56 52
f 129 134 56
f 132 55 59
f 132 59 136
f 135 131 132
f 135 132 136
f 60 136 59
f 60 137 136
f 139 56 134
f 139 62 56
f 139 61 62
f 139 138 61
f 139 133 138
f 139 134 133
f 137 60 66
f 137 66 140
f 144 67 68
f 144 143 67
f 145 61 138
f 145 69 61
f 145 68 69
f 145 144 68
f 148 140 66
f 148 66 74
f 148 141 140
f 148 149 141
f 151 67 143
f 151 75 67
f 151 142 150
f 151 143 142
f 79 78 152
f 79 152 153
f 154 80 79
f 154 79 153
f 154 153 146
f 154 146 147
f 81 80 154
f 81 154 155
f 148 74 82
f 148 82 156
f 82 81 155
f 82 155 156
f 157 148 156
f 157 149 148
f 151 83 75
f 151 159 83
f 158 151 150
f 158 159 151
f 160 84 83
f 160 83 159
f 152 78 86
f 152 86 162
f 163 152 162
f 163 153 152
f 160 87 84
f 160 165 87
f 164 160 159
f 164 165 160
f 166 88 87
f 166 87 165
f 167 162 86
f 167 86 89
f 167 89 88
f 167 88 166
f 167 166 161
f 167 161 162
f 169 90 91
f 169 168 90
f 92 169 91
f 92 170 169
f 168 93 90
f 168 171 93
f 172 94 93
f 172 93 171
f 173 170 92
f 173 92 95
f 96 173 95
f 96 174 173
f 175 96 97
f 175 174 96
f 172 98 94
f 172 178 98
f 178 171 177
f 178 172 171
f 180 175 97
f 180 97 101
f 179 174 175
f 179 175 180
f 102 180 101
f 102 181 180
f 186 103 104
f 186 185 103
f 186 176 185
f 186 177 176
f 187 98 178
f 187 105 98
f 187 104 105
f 187 186 104
f 187 177 186
f 187 178 177
f 188 181 102
f 188 102 108
f 188 182 181
f 188 189 182
f 190 184 183
f 190 191 184
f 192 103 185
f 192 110 103
f 192 109 110
f 192 191 109
f 192 184 191
f 192 185 184
f 113 112 193
f 113 193 194
f 195 114 113
f 195 113 194
f 115 114 195
f 115 195 196
f 197 188 108
f 197 108 116
f 198 188 197
f 198 189 188
f 200 109 191
f 200 117 109
f 200 190 199
f 200 191 190
f 193 112 120
f 193 120 201
f 202 193 201
f 202 194 193
f 196 121 115
f 196 203 121
f 204 197 116
f 204 116 122
f 204 122 121
f 204 121 203
f 200 123 117
f 200 206 123
f 205 200 199
f 205 206 200
f 207 124 123
f 207 123 206
f 208 125 124
f 208 124 207
f 209 201 120
f 209 120 126
f 126 125 208
f 126 208 209
f 128 210 127
f 128 211 210
f 210 129 127
f 210 212 129
f 211 128 130
f 211 130 213
f 213 212 210
f 213 210 211
f 214 130 131
f 214 213 130
f 216 129 212
f 216 134 129
f 216 133 134
f 216 215 133
f 214 131 135
f 214 135 218
f 219 135 136
f 219 218 135
f 137 219 136
f 137 220 219
f 222 133 215
f 222 138 133
f 224 223 217
f 224 217 218
f 225 224 218
f 225 218 219
f 220 137 140
f 220 140 226
f 225 219 220
f 225 220 226
f 227 140 141
f 227 226 140
f 229 142 143
f 229 228 142
f 144 229 143
f 144 230 229
f 231 138 222
f 231 145 138
f 231 144 145
f 231 230 144
f 231 221 230
f 231 222 221
f 233 147 146
f 233 146 232
f 235 227 141
f 235 141 149
f 234 226 227
f 234 227 235
f 236 142 228
f 236 150 142
f 240 232 146
f 240 146 153
f 241 147 233
f 241 154 147
f 155 154 241
f 155 241 242
f 243 156 155
f 243 155 242
f 235 149 157
f 235 157 244
f 244 157 156
f 244 156 243
f 244 243 234
f 244 234 235
f 236 158 150
f 236 245 158
f 246 159 158
f 246 158 245
f 248 247 237
f 248 237 238
f 249 162 161
f 249 161 248
f 249 248 238
f 249 238 239
f 250 240 153
f 250 153 163
f 163 162 249
f 163 249 250
f 250 249 239
f 250 239 240
f 251 242 241
f 251 252 242
f 246 164 159
f 246 253 164
f 254 165 164
f 254 164 253
f 253 246 247
f 253 247 254
f 255 248 161
f 255 161 166
f 255 166 165
f 255 165 254
f 255 254 247
f 255 247 248
f 169 256 168
f 169 257 256
f 170 257 169
f 170 258 257
f 256 171 168
f 256 259 171
f 260 259 256
f 260 256 257
f 258 170 173
f 258 173 261
f 262 173 174
f 262 261 173
f 259 177 171
f 259 264 177
f 264 176 177
f 264 263 176
f 262 174 179
f 262 179 266
f 267 179 180
f 267 266 179
f 268 180 181
f 268 267 180
f 182 268 181
f 182 269 268
f 271 183 184
f 271 270 183
f 272 176 263
f 272 185 176
f 272 184 185
f 272 271 184
f 274 273 265
f 274 265 266
f 275 267 268
f 275 268 276
f 277 269 182
f 277 182 189
f 277 276 268
f 277 268 269
f 270 190 183
f 270 279 190
f 280 271 272
f 280 272 281
f 285 195 194
f 285 194 284
f 196 195 285
f 196 285 286
f 288 277 189
f 288 189 198
f 288 198 197
f 288 197 287
f 288 287 276
f 288 276 277
f 279 199 190
f 279 290 199
f 290 278 289
f 290 279 278
f 291 281 282
f 291 282 292
f 292 282 283
f 292 283 293
f 284 194 202
f 284 202 294
f 202 201 293
f 202 293 294
f 294 293 283
f 294 283 284
f 294 285 284
f 294 295 285
f 286 203 196
f 286 296 203
f 296 285 295
f 296 286 285
f 297 287 197
f 297 197 204
f 297 204 203
f 297 203 296
f 297 296 286
f 297 286 287
f 298 199 290
f 298 205 199
f 299 206 205
f 299 205 298
f 300 207 206
f 300 206 299
f 301 208 207
f 301 207 300
f 301 300 291
f 301 291 292
f 302 293 201
f 302 201 209
f 302 209 208
f 302 208 301
f 302 301 292
f 302 292 293
f 303 295 294
f 303 304 295
f 305 295 304
f 305 296 295
f 213 306 212
f 213 307 306
f 214 307 213
f 214 308 307
f 306 216 212
f 306 310 216
f 216 309 215
f 216 310 309
f 311 310 306
f 311 306 307
f 312 308 214
f 312 214 218
f 312 218 217
f 312 217 311
f 312 311 307
f 312 307 308
f 314 215 309
f 314 222 215
f 222 313 221
f 222 314 313
f 315 314 309
f 315 309 310
f 311 217 223
f 311 223 316
f 315 310 311
f 315 311 316
f 317 223 224
f 317 316 223
f 318 224 225
f 318 317 224
f 319 225 226
f 319 318 225
f 321 228 229
f 321 320 228
f 313 230 221
f 313 322 230
f 322 229 230
f 322 321 229
f 323 322 313
f 323 313 314
f 324 323 314
f 324 314 315
f 324 315 316
f 324 316 325
f 326 233 232
f 326 232 325
f 319 226 234
f 319 234 327
f 320 236 228
f 320 328 236
f 330 238 237
f 330 237 329
f 331 239 238
f 331 238 330
f 330 323 324
f 330 324 331
f 332 325 232
f 332 232 240
f 240 239 331
f 240 331 332
f 331 324 325
f 331 325 332
f 333 233 326
f 333 241 233
f 332 326 325
f 332 333 326
f 335 327 234
f 335 234 243
f 335 243 242
f 335 242 334
f 336 236 328
f 336 245 236
f 246 245 336
f 246 336 337
f 338 329 237
f 338 237 247
f 247 246 337
f 247 337 338
f 333 251 241
f 333 341 251
f 340 333 332
f 340 341 333
f 334 242 252
f 334 252 342
f 342 252 251
f 342 251 341
f 343 338 337
f 343 344 338
f 344 339 338
f 344 345 339
f 258 346 257
f 258 347 346
f 346 260 257
f 346 349 260
f 260 348 259
f 260 349 348
f 350 347 258
f 350 258 261
f 349 346 347
f 349 347 350
f 351 261 262
f 351 350 261
f 348 264 259
f 348 353 264
f 264 352 263
f 264 353 352
f 354 353 348
f 354 348 349
f 354 349 350
f 354 350 355
f 351 262 266
f 351 266 356
f 356 266 265
f 356 265 355
f 355 350 351
f 355 351 356
f 357 266 267
f 357 356 266
f 359 270 271
f 359 358 270
f 360 263 352
f 360 272 263
f 361 360 352
f 361 352 353
f 361 353 354
f 361 354 362
f 355 265 273
f 355 273 363
f 363 362 354
f 363 354 355
f 356 274 266
f 356 364 274
f 364 273 274
f 364 363 273
f 364 355 363
f 364 356 355
f 357 267 275
f 357 275 365
f 366 275 276
f 366 365 275
f 358 279 270
f 358 368 279
f 368 278 279
f 368 367 278
f 359 271 280
f 359 280 369
f 369 368 358
f 369 358 359
f 360 281 272
f 360 370 281
f 370 280 281
f 370 369 280
f 371 282 281
f 371 281 370
f 371 370 360
f 371 360 361
f 283 282 371
f 283 371 372
f 371 361 362
f 371 362 372
f 373 284 283
f 373 283 372
f 373 372 362
f 373 362 363
f 375 366 276
f 375 276 287
f 375 287 286
f 375 286 374
f 374 365 366
f 374 366 375
f 367 289 278
f 367 376 289
f 377 290 289
f 377 289 376
f 378 370 281
f 378 281 291
f 380 284 373
f 380 294 284
f 379 373 372
f 379 380 373
f 382 374 286
f 382 286 296
f 377 298 290
f 377 384 298
f 383 377 376
f 383 384 377
f 385 299 298
f 385 298 384
f 378 291 300
f 378 300 386
f 386 300 299
f 386 299 385
f 380 303 294
f 380 387 303
f 304 303 387
f 304 387 388
f 387 380 381
f 387 381 388
f 382 296 305
f 382 305 389
f 389 305 304
f 389 304 388
f 389 388 381
f 389 381 382
f 390 386 385
f 390 391 386
f 396 392 395
f 396 393 392
f 396 394 393
f 396 397 394
f 400 395 399
f 400 396 395
f 401 396 400
f 401 397 396
f 317 402 316
f 317 403 402
f 318 403 317
f 318 404 403
f 405 318 319
f 405 404 318
f 407 398 406
f 407 399 398
f 407 400 399
f 407 408 400
f 409 400 408
f 409 401 400
f 321 410 320
f 321 411 410
f 322 411 321
f 322 412 411
f 413 322 323
f 413 412 322
f 402 325 316
f 402 414 325
f 405 319 327
f 405 327 416
f 417 409 408
f 417 418 409
f 410 328 320
f 410 419 328
f 420 419 410
f 420 410 411
f 420 411 412
f 420 412 421
f 413 323 330
f 413 330 422
f 422 330 329
f 422 329 421
f 423 325 414
f 423 332 325
f 416 327 335
f 416 335 426
f 335 334 425
f 335 425 426
f 426 425 415
f 426 415 416
f 419 336 328
f 419 427 336
f 428 337 336
f 428 336 427
f 429 421 329
f 429 329 338
f 339 429 338
f 339 430 429
f 423 340 332
f 423 431 340
f 341 340 431
f 341 431 432
f 431 423 424
f 431 424 432
f 433 425 334
f 433 334 342
f 342 341 432
f 342 432 433
f 434 425 433
f 434 426 425
f 428 343 337
f 428 435 343
f 344 343 435
f 344 435 436
f 437 430 339
f 437 339 345
f 345 344 436
f 345 436 437
f 440 439 438
f 440 441 439
f 444 440 443
f 444 441 440
f 356 445 355
f 356 446 445
f 447 356 357
f 447 446 356
f 449 442 448
f 449 443 442
f 450 443 449
f 450 444 443
f 445 363 355
f 445 451 363
f 447 357 365
f 447 365 453
f 452 446 447
f 452 447 453
f 455 450 449
f 455 456 450
f 368 457 367
f 368 458 457
f 459 368 369
f 459 458 368
f 460 369 370
f 460 459 369
f 451 373 363
f 451 462 373
f 373 461 372
f 373 462 461
f 453 365 374
f 453 374 463
f 463 454 453
f 463 464 454
f 457 376 367
f 457 465 376
f 466 465 457
f 466 457 458
f 460 370 378
f 460 378 467
f 461 379 372
f 461 468 379
f 469 380 379
f 469 379 468
f 469 468 461
f 469 461 462
f 470 381 380
f 470 380 469
f 471 463 374
f 471 374 382
f 471 382 381
f 471 381 470
f 465 383 376
f 465 472 383
f 384 383 472
f 384 472 473
f 472 465 466
f 472 466 473
f 474 385 384
f 474 384 473
f 475 467 378
f 475 378 386
f 476 471 470
f 476 477 471
f 474 390 385
f 474 478 390
f 475 386 391
f 475 391 479
f 479 391 390
f 479 390 478
f 486 480 485
f 486 481 480
f 488 483 482
f 488 489 483
f 491 484 490
f 491 485 484
f 492 485 491
f 492 486 485
f 492 487 486
f 492 493 487
f 494 489 488
f 494 495 489
f 495 490 489
f 495 496 490
f 497 490 496
f 497 491 490
f 498 491 497
f 498 492 491
f 499 492 498
f 499 493 492
f 502 392 393
f 502 501 392
f 502 494 501
f 502 495 494
f 394 502 393
f 394 503 502
f 502 496 495
f 502 503 496
f 503 497 496
f 503 504 497
f 504 498 497
f 504 505 498
f 506 498 505
f 506 499 498
f 508 392 501
f 508 395 392
f 508 500 507
f 508 501 500
f 509 503 394
f 509 394 397
f 509 504 503
f 509 510 504
f 511 504 510
f 511 505 504
f 508 399 395
f 508 513 399
f 513 398 399
f 513 512 398
f 512 508 507
f 512 513 508
f 509 397 401
f 509 401 514
f 515 509 514
f 515 510 509
f 403 516 402
f 403 517 516
f 518 403 404
f 518 517 403
f 519 404 405
f 519 518 404
f 520 398 512
f 520 406 398
f 407 406 520
f 407 520 521
f 520 512 513
f 520 513 521
f 408 407 521
f 408 521 522
f 523 514 401
f 523 401 409
f 527 412 413
f 527 526 412
f 516 414 402
f 516 529 414
f 530 517 518
f 530 518 531
f 519 405 416
f 519 416 532
f 532 416 415
f 532 415 531
f 531 518 519
f 531 519 532
f 533 408 522
f 533 417 408
f 534 523 409
f 534 409 418
f 418 417 533
f 418 533 534
f 533 522 523
f 533 523 534
f 420 535 419
f 420 536 535
f 536 524 535
f 536 525 524
f 537 412 526
f 537 421 412
f 537 420 421
f 537 536 420
f 536 526 525
f 536 537 526
f 527 413 422
f 527 422 538
f 422 421 537
f 422 537 538
f 540 414 529
f 540 423 414
f 540 528 539
f 540 529 528
f 424 423 540
f 424 540 541
f 542 531 415
f 542 415 425
f 543 425 426
f 543 542 425
f 543 531 542
f 543 532 531
f 544 419 535
f 544 427 419
f 545 428 427
f 545 427 544
f 546 537 421
f 546 421 429
f 430 546 429
f 430 547 546
f 546 538 537
f 546 547 538
f 548 424 541
f 548 432 424
f 433 432 548
f 433 548 549
f 548 541 542
f 548 542 549
f 550 543 426
f 550 426 434
f 434 433 549
f 434 549 550
f 550 549 542
f 550 542 543
f 551 428 545
f 551 435 428
f 436 435 551
f 436 551 552
f 547 430 437
f 547 437 553
f 437 436 552
f 437 552 553
f 561 554 560
f 561 555 554
f 561 556 555
f 561 562 556
f 564 558 557
f 564 565 558
f 565 559 558
f 565 566 559
f 567 559 566
f 567 560 559
f 568 560 567
f 568 561 560
f 569 561 568
f 569 562 561
f 570 562 569
f 570 563 562
f 573 438 439
f 573 572 438
f 572 566 565
f 572 573 566
f 573 567 566
f 573 574 567
f 575 567 574
f 575 568 567
f 576 568 575
f 576 569 568
f 578 438 572
f 578 440 438
f 578 571 577
f 578 572 571
f 579 573 439
f 579 439 441
f 579 574 573
f 579 580 574
f 580 575 574
f 580 581 575
f 582 575 581
f 582 576 575
f 584 440 578
f 584 443 440
f 584 442 443
f 584 583 442
f 584 577 583
f 584 578 577
f 585 579 441
f 585 441 444
f 585 580 579
f 585 586 580
f 587 580 586
f 587 581 580
f 589 445 446
f 589 588 445
f 590 442 583
f 590 448 442
f 591 449 448
f 591 448 590
f 592 585 444
f 592 444 450
f 592 586 585
f 592 593 586
f 588 451 445
f 588 595 451
f 589 446 452
f 589 452 596
f 596 595 588
f 596 588 589
f 597 452 453
f 597 596 452
f 454 597 453
f 454 598 597
f 591 455 449
f 591 599 455
f 600 592 450
f 600 450 456
f 456 455 599
f 456 599 600
f 601 592 600
f 601 593 592
f 604 458 459
f 604 603 458
f 460 604 459
f 460 605 604
f 607 451 595
f 607 462 451
f 607 594 606
f 607 595 594
f 598 454 464
f 598 464 609
f 464 463 608
f 464 608 609
f 603 466 458
f 603 611 466
f 610 603 602
f 610 611 603
f 605 460 467
f 605 467 612
f 607 469 462
f 607 614 469
f 613 607 606
f 613 614 607
f 615 470 469
f 615 469 614
f 608 463 471
f 608 471 616
f 617 466 611
f 617 473 466
f 474 473 617
f 474 617 618
f 619 612 467
f 619 467 475
f 620 470 615
f 620 476 470
f 621 616 471
f 621 471 477
f 477 476 620
f 477 620 621
f 620 615 616
f 620 616 621
f 622 474 618
f 622 478 474
f 623 619 475
f 623 475 479
f 623 479 478
f 623 478 622
f 625 480 481
f 625 624 480
f 483 628 482
f 483 629 628
f 631 480 624
f 631 485 480
f 631 484 485
f 631 630 484
f 632 625 481
f 632 481 486
f 487 632 486
f 487 633 632
f 635 627 626
f 635 636 627
f 628 488 482
f 628 637 488
f 638 629 483
f 638 483 489
f 639 484 630
f 639 490 484
f 639 489 490
f 639 638 489
f 639 629 638
f 639 630 629
f 640 633 487
f 640 487 493
f 640 634 633
f 640 641 634
f 642 636 635
f 642 643 636
f 637 494 488
f 637 644 494
f 645 640 493
f 645 493 499
f 646 640 645
f 646 641 640
f 647 643 642
f 647 648 643
f 649 494 644
f 649 501 494
f 649 500 501
f 649 648 500
f 649 643 648
f 649 644 643
f 651 645 499
f 651 499 506
f 506 505 650
f 506 650 651
f 652 500 648
f 652 507 500
f 650 505 511
f 650 511 654
f 511 510 653
f 511 653 654
f 655 507 652
f 655 512 507
f 513 512 655
f 513 655 656
f 653 510 515
f 653 515 658
f 515 514 657
f 515 657 658
f 659 653 658
f 659 654 653
f 661 516 517
f 661 660 516
f 656 521 513
f 656 663 521
f 522 521 663
f 522 663 664
f 657 514 523
f 657 523 665
f 523 522 664
f 523 664 665
f 666 657 665
f 666 658 657
f 669 524 525
f 669 668 524
f 670 525 526
f 670 669 525
f 671 526 527
f 671 670 526
f 660 529 516
f 660 673 529
f 673 528 529
f 673 672 528
f 661 517 530
f 661 530 674
f 675 530 531
f 675 674 530
f 674 662 661
f 674 675 662
f 676 531 532
f 676 675 531
f 677 665 664
f 677 678 665
f 678 666 665
f 678 679 666
f 679 667 666
f 679 680 667
f 681 524 668
f 681 535 524
f 681 667 680
f 681 668 667
f 682 669 670
f 682 670 683
f 671 527 538
f 671 538 684
f 684 683 670
f 684 670 671
f 672 539 528
f 672 685 539
f 686 540 539
f 686 539 685
f 541 540 686
f 541 686 687
f 688 542 541
f 688 541 687
f 689 676 532
f 689 532 543
f 689 543 542
f 689 542 688
f 681 544 535
f 681 691 544
f 690 681 680
f 690 691 681
f 692 545 544
f 692 544 691
f 684 538 547
f 684 547 694
f 693 683 684
f 693 684 694
f 696 685 695
f 696 686 685
f 697 686 696
f 697 687 686
f 692 551 545
f 692 698 551
f 699 552 551
f 699 551 698
f 694 547 553
f 694 553 700
f 553 552 699
f 553 699 700
f 700 695 694
f 700 701 695
f 702 695 701
f 702 696 695
f 705 554 555
f 705 704 554
f 556 705 555
f 556 706 705
f 710 557 558
f 710 709 557
f 711 558 559
f 711 710 558
f 712 554 704
f 712 560 554
f 712 559 560
f 712 711 559
f 712 703 711
f 712 704 703
f 713 706 556
f 713 556 562
f 563 713 562
f 563 714 713
f 713 707 706
f 713 714 707
f 709 564 557
f 709 716 564
f 716 708 715
f 716 709 708
f 717 565 564
f 717 564 716
f 714 563 570
f 714 570 719
f 570 569 718
f 570 718 719
f 720 716 715
f 720 721 716
f 722 565 717
f 722 572 565
f 722 571 572
f 722 721 571
f 722 716 721
f 722 717 716
f 718 569 576
f 718 576 723
f 724 718 723
f 724 719 718
f 726 571 721
f 726 577 571
f 725 721 720
f 725 726 721
f 723 576 582
f 723 582 728
f 582 581 727
f 582 727 728
f 730 577 726
f 730 583 577
f 729 726 725
f 729 730 726
f 727 581 587
f 727 587 732
f 587 586 731
f 587 731 732
f 733 727 732
f 733 728 727
f 736 583 730
f 736 590 583
f 737 591 590
f 737 590 736
f 731 586 593
f 731 593 738
f 739 731 738
f 739 732 731
f 742 594 595
f 742 741 594
f 743 595 596
f 743 742 595
f 743 734 742
f 743 735 734
f 597 743 596
f 597 744 743
f 745 597 598
f 745 744 597
f 737 599 591
f 737 746 599
f 600 599 746
f 600 746 747
f 738 593 601
f 738 601 748
f 601 600 747
f 601 747 748
f 749 738 748
f 749 739 738
f 749 740 739
f 749 750 740
f 751 602 603
f 751 750 602
f 752 603 604
f 752 751 603
f 753 604 605
f 753 752 604
f 754 594 741
f 754 606 594
f 745 598 609
f 745 609 757
f 757 609 608
f 757 608 756
f 757 756 744
f 757 744 745
f 758 749 748
f 758 759 749
f 750 610 602
f 750 760 610
f 759 750 749
f 759 760 750
f 761 611 610
f 761 610 760
f 753 605 612
f 753 612 762
f 754 613 606
f 754 764 613
f 765 614 613
f 765 613 764
f 615 614 765
f 615 765 766
f 767 756 608
f 767 608 616
f 767 616 615
f 767 615 766
f 767 766 755
f 767 755 756
f 761 617 611
f 761 769 617
f 768 761 760
f 768 769 761
f 618 617 769
f 618 769 770
f 762 612 619
f 762 619 771
f 771 763 762
f 771 772 763
f 774 764 773
f 774 765 764
f 776 618 770
f 776 622 618
f 775 770 769
f 775 776 770
f 771 619 623
f 771 623 777
f 623 622 776
f 623 776 777
f 777 776 770
f 777 770 771
f 778 771 777
f 778 772 771
f 625 779 624
f 625 780 779
f 627 783 626
f 627 784 783
f 629 785 628
f 629 786 785
f 630 786 629
f 630 787 786
f 779 631 624
f 779 788 631
f 631 787 630
f 631 788 787
f 780 625 632
f 780 632 789
f 789 788 779
f 789 779 780
f 790 632 633
f 790 789 632
f 789 781 780
f 789 790 781
f 634 790 633
f 634 791 790
f 790 782 781
f 790 791 782
f 783 635 626
f 783 792 635
f 784 627 636
f 784 636 793
f 792 783 784
f 792 784 793
f 794 628 785
f 794 637 628
f 796 791 634
f 796 634 641
f 792 642 635
f 792 797 642
f 798 793 636
f 798 636 643
f 799 637 794
f 799 644 637
f 799 643 644
f 799 798 643
f 798 794 793
f 798 799 794
f 801 796 641
f 801 641 646
f 646 645 800
f 646 800 801
f 801 800 795
f 801 795 796
f 797 647 642
f 797 802 647
f 803 648 647
f 803 647 802
f 805 800 645
f 805 645 651
f 805 651 650
f 805 650 804
f 803 652 648
f 803 807 652
f 806 803 802
f 806 807 803
f 808 804 650
f 808 650 654
f 810 652 807
f 810 655 652
f 656 655 810
f 656 810 811
f 808 654 659
f 808 659 814
f 659 658 813
f 659 813 814
f 815 808 814
f 815 809 808
f 818 660 661
f 818 817 660
f 662 818 661
f 662 819 818
f 820 656 811
f 820 663 656
f 664 663 820
f 664 820 821
f 820 811 812
f 820 812 821
f 823 813 658
f 823 658 666
f 667 823 666
f 667 824 823
f 824 813 823
f 824 814 813
f 825 667 668
f 825 824 667
f 826 668 669
f 826 825 668
f 830 660 817
f 830 673 660
f 830 672 673
f 830 829 672
f 830 816 829
f 830 817 816
f 832 819 662
f 832 662 675
f 833 675 676
f 833 832 675
f 834 664 821
f 834 677 664
f 678 677 834
f 678 834 835
f 834 821 822
f 834 822 835
f 836 679 678
f 836 678 835
f 837 680 679
f 837 679 836
f 838 826 669
f 838 669 682
f 683 838 682
f 683 839 838
f 838 827 826
f 838 839 827
f 839 828 827
f 839 840 828
f 841 672 829
f 841 685 672
f 841 828 840
f 841 829 828
f 688 687 842
f 688 842 843
f 843 842 831
f 843 831 832
f 833 676 689
f 833 689 844
f 844 689 688
f 844 688 843
f 843 832 833
f 843 833 844
f 845 836 835
f 845 846 836
f 837 690 680
f 837 847 690
f 848 691 690
f 848 690 847
f 692 691 848
f 692 848 849
f 839 683 693
f 839 693 850
f 851 693 694
f 851 850 693
f 841 695 685
f 841 852 695
f 695 851 694
f 695 852 851
f 851 841 840
f 851 852 841
f 854 842 687
f 854 687 697
f 697 696 853
f 697 853 854
f 849 698 692
f 849 856 698
f 855 849 848
f 855 856 849
f 857 699 698
f 857 698 856
f 857 856 849
f 857 849 850
f 700 699 857
f 700 857 858
f 858 857 850
f 858 850 851
f 701 700 858
f 701 858 859
f 859 858 851
f 859 851 852
f 853 696 702
f 853 702 860
f 702 701 859
f 702 859 860
f 860 859 852
f 860 852 853
f 863 703 704
f 863 862 703
f 864 704 705
f 864 863 704
f 865 705 706
f 865 864 705
f 707 865 706
f 707 866 865
f 869 708 709
f 869 868 708
f 870 709 710
f 870 869 709
f 871 703 862
f 871 711 703
f 711 870 710
f 711 871 870
f 871 861 870
f 871 862 861
f 872 871 862
f 872 862 863
f 873 866 707
f 873 707 714
f 874 866 873
f 874 867 866
f 868 715 708
f 868 875 715
f 873 714 719
f 873 719 879
f 880 715 875
f 880 720 715
f 881 876 877
f 881 877 882
f 884 879 719
f 884 719 724
f 724 723 883
f 724 883 884
f 884 883 878
f 884 878 879
f 885 720 880
f 885 725 720
f 883 723 728
f 883 728 887
f 885 729 725
f 885 888 729
f 889 730 729
f 889 729 888
f 887 728 733
f 887 733 891
f 733 732 890
f 733 890 891
f 891 890 886
f 891 886 887
f 894 734 735
f 894 893 734
f 895 730 889
f 895 736 730
f 737 736 895
f 737 895 896
f 898 890 732
f 898 732 739
f 740 898 739
f 740 899 898
f 898 891 890
f 898 899 891
f 902 734 893
f 902 742 734
f 902 741 742
f 902 901 741
f 902 892 901
f 902 893 892
f 903 894 735
f 903 735 743
f 904 743 744
f 904 903 743
f 905 737 896
f 905 746 737
f 747 746 905
f 747 905 906
f 905 896 897
f 905 897 906
f 907 748 747
f 907 747 906
f 909 899 740
f 909 740 750
f 910 750 751
f 910 909 750
f 909 900 899
f 909 910 900
f 752 910 751
f 752 911 910
f 753 911 752
f 753 912 911
f 914 741 901
f 914 754 741
f 916 904 744
f 916 744 756
f 916 756 755
f 916 755 915
f 915 903 904
f 915 904 916
f 907 758 748
f 907 918 758
f 917 907 906
f 917 918 907
f 919 759 758
f 919 758 918
f 920 760 759
f 920 759 919
f 920 919 908
f 920 908 909
f 922 912 753
f 922 753 762
f 763 922 762
f 763 923 922
f 923 912 922
f 923 913 912
f 914 764 754
f 914 924 764
f 923 914 913
f 923 924 914
f 926 915 755
f 926 755 766
f 926 766 765
f 926 765 925
f 920 768 760
f 920 927 768
f 928 769 768
f 928 768 927
f 930 771 770
f 930 770 929
f 930 929 921
f 930 921 922
f 931 923 763
f 931 763 772
f 931 930 922
f 931 922 923
f 924 773 764
f 924 932 773
f 925 765 774
f 925 774 933
f 774 773 932
f 774 932 933
f 932 924 925
f 932 925 933
f 928 775 769
f 928 934 775
f 935 929 770
f 935 770 776
f 935 776 775
f 935 775 934
f 935 934 928
f 935 928 929
f 936 771 930
f 936 777 771
f 931 772 778
f 931 778 937
f 778 777 936
f 778 936 937
f 936 930 931
f 936 931 937
f 781 940 780
f 781 941 940
f 942 781 782
f 942 941 781
f 946 785 786
f 946 945 785
f 787 946 786
f 787 947 946
f 948 787 788
f 948 947 787
f 948 938 947
f 948 939 938
f 940 789 780
f 940 949 789
f 949 788 789
f 949 948 788
f 951 942 782
f 951 782 791
f 950 941 942
f 950 942 951
f 952 944 943
f 952 953 944
f 954 792 793
f 954 953 792
f 955 785 945
f 955 794 785
f 955 793 794
f 955 954 793
f 957 951 791
f 957 791 796
f 957 796 795
f 957 795 956
f 957 956 950
f 957 950 951
f 958 792 953
f 958 797 792
f 959 956 795
f 959 795 800
f 958 802 797
f 958 960 802
f 959 800 805
f 959 805 964
f 805 804 963
f 805 963 964
f 960 806 802
f 960 965 806
f 807 806 965
f 807 965 966
f 965 960 961
f 965 961 966
f 967 966 961
f 967 961 962
f 968 963 804
f 968 804 808
f 809 968 808
f 809 969 968
f 969 963 968
f 969 964 963
f 970 807 966
f 970 810 807
f 811 810 970
f 811 970 971
f 970 966 967
f 970 967 971
f 812 811 971
f 812 971 972
f 975 969 809
f 975 809 815
f 815 814 974
f 815 974 975
f 977 816 817
f 977 976 816
f 978 817 818
f 978 977 817
f 979 818 819
f 979 978 818
f 980 812 972
f 980 821 812
f 822 821 980
f 822 980 981
f 974 814 824
f 974 824 983
f 983 982 973
f 983 973 974
f 825 983 824
f 825 984 983
f 826 984 825
f 826 985 984
f 827 985 826
f 827 986 985
f 828 986 827
f 828 987 986
f 988 816 976
f 988 829 816
f 988 828 829
f 988 987 828
f 989 977 978
f 989 978 990
f 991 979 819
f 991 819 832
f 991 832 831
f 991 831 990
f 991 990 978
f 991 978 979
f 992 822 981
f 992 835 822
f 992 981 982
f 992 982 993
f 837 836 993
f 837 993 994
f 993 982 983
f 993 983 994
f 994 983 984
f 994 984 995
f 995 984 985
f 995 985 996
f 997 996 985
f 997 985 986
f 840 839 997
f 840 997 998
f 997 986 987
f 997 987 998
f 1000 990 831
f 1000 831 842
f 992 845 835
f 992 1001 845
f 1002 993 836
f 1002 836 846
f 846 845 1001
f 846 1001 1002
f 1002 1001 992
f 1002 992 993
f 1003 837 994
f 1003 847 837
f 848 847 1003
f 848 1003 1004
f 1003 994 995
f 1003 995 1004
f 1005 1004 995
f 1005 995 996
f 1006 997 839
f 1006 839 850
f 1006 850 849
f 1006 849 1005
f 1006 1005 996
f 1006 996 997
f 1007 840 998
f 1007 851 840
f 852 851 1007
f 852 1007 1008
f 1007 998 999
f 1007 999 1008
f 853 852 1008
f 853 1008 1009
f 1000 842 854
f 1000 854 1010
f 854 853 1009
f 854 1009 1010
f 1004 855 848
f 1004 1011 855
f 1012 1005 849
f 1012 849 856
f 1012 856 855
f 1012 855 1011
f 1012 1011 1004
f 1012 1004 1005
f 1014 1009 1013
f 1014 1010 1009
f 1016 861 862
f 1016 1015 861
f 1018 863 864
f 1018 1017 863
f 865 1018 864
f 865 1019 1018
f 1020 865 866
f 1020 1019 865
f 867 1020 866
f 867 1021 1020
f 1024 868 869
f 1024 1023 868
f 1025 861 1015
f 1025 870 861
f 1025 869 870
f 1025 1024 869
f 1026 1016 862
f 1026 862 871
f 1017 872 863
f 1017 1027 872
f 872 1026 871
f 872 1027 1026
f 1027 1016 1026
f 1027 1017 1016
f 1028 1019 1020
f 1028 1020 1029
f 1021 867 874
f 1021 874 1030
f 1030 874 873
f 1030 873 1029
f 1030 1029 1020
f 1030 1020 1021
f 1023 875 868
f 1023 1032 875
f 1031 1023 1022
f 1031 1032 1023
f 877 876 1033
f 877 1033 1034
f 1036 1029 873
f 1036 873 879
f 1036 879 878
f 1036 878 1035
f 1037 875 1032
f 1037 880 875
f 1033 876 881
f 1033 881 1038
f 1034 882 877
f 1034 1039 882
f 882 1038 881
f 882 1039 1038
f 1038 1034 1033
f 1038 1039 1034
f 1040 1035 878
f 1040 878 883
f 1042 880 1037
f 1042 885 880
f 1046 1040 883
f 1046 883 887
f 887 886 1045
f 887 1045 1046
f 1047 1040 1046
f 1047 1041 1040
f 1048 885 1042
f 1048 888 885
f 889 888 1048
f 889 1048 1049
f 1048 1042 1043
f 1048 1043 1049
f 1049 1043 1044
f 1049 1044 1050
f 1045 886 890
f 1045 890 1051
f 891 1051 890
f 891 1052 1051
f 1052 1045 1051
f 1052 1046 1045
f 1054 892 893
f 1054 1053 892
f 1055 893 894
f 1055 1054 893
f 1049 895 889
f 1049 1056 895
f 896 895 1056
f 896 1056 1057
f 1056 1049 1050
f 1056 1050 1057
f 897 896 1057
f 897 1057 1058
f 1061 1052 891
f 1061 891 899
f 1061 1060 1051
f 1061 1051 1052
f 900 1061 899
f 900 1062 1061
f 1064 892 1053
f 1064 901 892
f 1055 894 903
f 1055 903 1066
f 1065 1054 1055
f 1065 1055 1066
f 1067 897 1058
f 1067 906 897
f 1067 1058 1059
f 1067 1059 1068
f 1068 1059 1060
f 1068 1060 1069
f 1070 909 908
f 1070 908 1069
f 1069 1060 1061
f 1069 1061 1070
f 1062 900 910
f 1062 910 1071
f 1070 1061 1062
f 1070 1062 1071
f 911 1071 910
f 911 1072 1071
f 912 1072 911
f 912 1073 1072
f 913 1073 912
f 913 1074 1073
f 1075 901 1064
f 1075 914 901
f 1075 913 914
f 1075 1074 913
f 1075 1063 1074
f 1075 1064 1063
f 1066 903 915
f 1066 915 1077
f 1067 917 906
f 1067 1078 917
f 1079 918 917
f 1079 917 1078
f 1078 1067 1068
f 1078 1068 1079
f 1080 1069 908
f 1080 908 919
f 1080 919 918
f 1080 918 1079
f 1080 1079 1068
f 1080 1068 1069
f 1070 920 909
f 1070 1081 920
f 1081 1070 1071
f 1081 1071 1082
f 1082 1071 1072
f 1082 1072 1083
f 1084 922 921
f 1084 921 1083
f 1084 1083 1072
f 1084 1072 1073
f 923 922 1084
f 923 1084 1085
f 1085 1084 1073
f 1085 1073 1074
f 924 923 1085
f 924 1085 1086
f 925 924 1086
f 925 1086 1087
f 1088 1077 915
f 1088 915 926
f 1088 926 925
f 1088 925 1087
f 1088 1087 1076
f 1088 1076 1077
f 1081 927 920
f 1081 1089 927
f 928 927 1089
f 928 1089 1090
f 1089 1081 1082
f 1089 1082 1090
f 1091 1083 921
f 1091 921 929
f 1091 929 928
f 1091 928 1090
f 1093 1086 1092
f 1093 1087 1086
f 1098 938 939
f 1098 1097 938
f 1100 940 941
f 1100 1099 940
f 944 1101 943
f 944 1102 1101
f 1103 1095 1094
f 1103 1104 1095
f 1105 945 946
f 1105 1104 945
f 1106 938 1097
f 1106 947 938
f 947 1105 946
f 947 1106 1105
f 1106 1096 1105
f 1106 1097 1096
f 1107 1098 939
f 1107 939 948
f 1099 949 940
f 1099 1108 949
f 1108 948 949
f 1108 1107 948
f 1100 941 950
f 1100 950 1109
f 1108 1099 1100
f 1108 1100 1109
f 1101 952 943
f 1101 1111 952
f 1112 1102 944
f 1112 944 953
f 1112 953 952
f 1112 952 1111
f 1111 1101 1102
f 1111 1102 1112
f 954 1112 953
f 954 1113 1112
f 1114 945 1104
f 1114 955 945
f 1114 954 955
f 1114 1113 954
f 1114 1103 1113
f 1114 1104 1103
f 1115 1106 1107
f 1115 1107 1116
f 1117 1109 950
f 1117 950 956
f 1117 1110 1109
f 1117 1118 1110
f 1119 953 1112
f 1119 958 953
f 1119 1112 1113
f 1119 1113 1120
f 1121 1117 956
f 1121 956 959
f 1122 958 1119
f 1122 960 958
f 961 960 1122
f 961 1122 1123
f 1122 1119 1120
f 1122 1120 1123
f 962 961 1123
f 962 1123 1124
f 1125 1121 959
f 1125 959 964
f 1126 962 1124
f 1126 967 962
f 1129 1125 964
f 1129 964 969
f 1131 967 1126
f 1131 971 967
f 1132 972 971
f 1132 971 1131
f 1135 974 973
f 1135 973 1134
f 1135 1134 1127
f 1135 1127 1128
f 1136 1129 969
f 1136 969 975
f 975 974 1135
f 975 1135 1136
f 1136 1135 1128
f 1136 1128 1129
f 1138 976 977
f 1138 1137 976
f 1140 1130 1139
f 1140 1131 1130
f 1132 980 972
f 1132 1141 980
f 1140 1132 1131
f 1140 1141 1132
f 1142 981 980
f 1142 980 1141
f 1143 1134 973
f 1143 973 982
f 1143 982 981
f 1143 981 1142
f 1143 1142 1133
f 1143 1133 1134
f 1145 976 1137
f 1145 988 976
f 988 1144 987
f 988 1145 1144
f 1138 977 989
f 1138 989 1146
f 1147 989 990
f 1147 1146 989
f 1148 987 1144
f 1148 998 987
f 999 998 1148
f 999 1148 1149
f 1147 990 1000
f 1147 1000 1151
f 1149 1008 999
f 1149 1153 1008
f 1152 1149 1148
f 1152 1153 1149
f 1009 1008 1153
f 1009 1153 1154
f 1155 1151 1000
f 1155 1000 1010
f 1155 1154 1150
f 1155 1150 1151
f 1157 1152 1156
f 1157 1153 1152
f 1158 1009 1154
f 1158 1013 1009
f 1155 1010 1014
f 1155 1014 1159
f 1014 1013 1158
f 1014 1158 1159
f 1158 1154 1155
f 1158 1155 1159
f 1165 1015 1016
f 1165 1164 1015
f 1017 1165 1016
f 1017 1166 1165
f 1165 1161 1160
f 1165 1166 1161
f 1018 1166 1017
f 1018 1167 1166
f 1168 1018 1019
f 1168 1167 1018
f 1023 1169 1022
f 1023 1170 1169
f 1024 1170 1023
f 1024 1171 1170
f 1171 1162 1170
f 1171 1163 1162
f 1172 1015 1164
f 1172 1025 1015
f 1172 1024 1025
f 1172 1171 1024
f 1172 1163 1171
f 1172 1164 1163
f 1173 1166 1167
f 1173 1167 1174
f 1168 1019 1028
f 1168 1028 1175
f 1176 1028 1029
f 1176 1175 1028
f 1169 1031 1022
f 1169 1177 1031
f 1032 1031 1177
f 1032 1177 1178
f 1178 1177 1169
f 1178 1169 1170
f 1179 1178 1170
f 1179 1170 1171
f 1176 1029 1036
f 1176 1036 1181
f 1036 1035 1180
f 1036 1180 1181
f 1182 1032 1178
f 1182 1037 1032
f 1180 1035 1040
f 1180 1040 1184
f 1041 1184 1040
f 1041 1185 1184
f 1185 1180 1184
f 1185 1181 1180
f 1186 1037 1182
f 1186 1042 1037
f 1043 1042 1186
f 1043 1186 1187
f 1186 1182 1183
f 1186 1183 1187
f 1044 1043 1187
f 1044 1187 1188
f 1192 1185 1041
f 1192 1041 1047
f 1047 1046 1191
f 1047 1191 1192
f 1192 1191 1184
f 1192 1184 1185
f 1194 1044 1188
f 1194 1050 1044
f 1195 1189 1190
f 1195 1190 1196
f 1197 1191 1046
f 1197 1046 1052
f 1197 1052 1051
f 1197 1051 1196
f 1197 1196 1190
f 1197 1190 1191
f 1199 1053 1054
f 1199 1198 1053
f 1201 1050 1194
f 1201 1057 1050
f 1201 1193 1200
f 1201 1194 1193
f 1202 1058 1057
f 1202 1057 1201
f 1059 1058 1202
f 1059 1202 1203
f 1196 1051 1060
f 1196 1060 1204
f 1204 1060 1059
f 1204 1059 1203
f 1204 1203 1195
f 1204 1195 1196
f 1207 1053 1198
f 1207 1064 1053
f 1207 1063 1064
f 1207 1206 1063
f 1199 1054 1065
f 1199 1065 1208
f 1209 1065 1066
f 1209 1208 1065
f 1211 1063 1206
f 1211 1074 1063
f 1211 1205 1210
f 1211 1206 1205
f 1209 1066 1077
f 1209 1077 1213
f 1213 1077 1076
f 1213 1076 1212
f 1212 1208 1209
f 1212 1209 1213
f 1215 1082 1083
f 1215 1214 1082
f 1211 1085 1074
f 1211 1216 1085
f 1086 1085 1216
f 1086 1216 1217
f 1218 1212 1076
f 1218 1076 1087
f 1214 1090 1082
f 1214 1219 1090
f 1215 1083 1091
f 1215 1091 1220
f 1091 1090 1219
f 1091 1219 1220
f 1219 1214 1215
f 1219 1215 1220
f 1217 1092 1086
f 1217 1222 1092
f 1221 1217 1216
f 1221 1222 1217
f 1223 1218 1087
f 1223 1087 1093
f 1223 1093 1092
f 1223 1092 1222
f 1223 1222 1217
f 1223 1217 1218
f 1095 1224 1094
f 1095 1225 1224
f 1227 1096 1097
f 1227 1226 1096
f 1228 1097 1098
f 1228 1227 1097
f 1229 1094 1224
f 1229 1103 1094
f 1230 1225 1095
f 1230 1095 1104
f 1229 1224 1225
f 1229 1225 1230
f 1226 1105 1096
f 1226 1231 1105
f 1105 1230 1104
f 1105 1231 1230
f 1232 1231 1226
f 1232 1226 1227
f 1228 1098 1107
f 1228 1107 1233
f 1107 1106 1232
f 1107 1232 1233
f 1232 1227 1228
f 1232 1228 1233
f 1234 1107 1108
f 1234 1233 1107
f 1109 1234 1108
f 1109 1235 1234
f 1110 1235 1109
f 1110 1236 1235
f 1237 1103 1229
f 1237 1113 1103
f 1238 1237 1229
f 1238 1229 1230
f 1239 1238 1230
f 1239 1230 1231
f 1232 1106 1115
f 1232 1115 1240
f 1233 1116 1107
f 1233 1241 1116
f 1116 1240 1115
f 1116 1241 1240
f 1240 1233 1232
f 1240 1241 1233
f 1242 1234 1235
f 1242 1235 1243
f 1236 1110 1118
f 1236 1118 1244
f 1118 1117 1243
f 1118 1243 1244
f 1244 1243 1235
f 1244 1235 1236
f 1237 1120 1113
f 1237 1245 1120
f 1243 1117 1121
f 1243 1121 1250
f 1250 1249 1242
f 1250 1242 1243
f 1251 1120 1245
f 1251 1123 1120
f 1124 1123 1251
f 1124 1251 1252
f 1251 1245 1246
f 1251 1246 1252
f 1252 1246 1247
f 1252 1247 1253
f 1254 1253 1247
f 1254 1247 1248
f 1250 1121 1125
f 1250 1125 1256
f 1255 1249 1250
f 1255 1250 1256
f 1257 1124 1252
f 1257 1126 1124
f 1257 1252 1253
f 1257 1253 1258
f 1260 1128 1127
f 1260 1127 1259
f 1261 1256 1125
f 1261 1125 1129
f 1261 1129 1128
f 1261 1128 1260
f 1263 1126 1257
f 1263 1131 1126
f 1263 1130 1131
f 1263 1262 1130
f 1264 1263 1257
f 1264 1257 1258
f 1266 1259 1127
f 1266 1127 1134
f 1266 1134 1133
f 1266 1133 1265
f 1268 1137 1138
f 1268 1267 1137
f 1262 1139 1130
f 1262 1269 1139
f 1270 1140 1139
f 1270 1139 1269
f 1270 1269 1262
f 1270 1262 1263
f 1271 1141 1140
f 1271 1140 1270
f 1271 1270 1263
f 1271 1263 1264
f 1272 1265 1133
f 1272 1133 1142
f 1272 1142 1141
f 1272 1141 1271
f 1272 1271 1264
f 1272 1264 1265
f 1267 1145 1137
f 1267 1274 1145
f 1145 1273 1144
f 1145 1274 1273
f 1268 1138 1146
f 1268 1146 1275
f 1274 1267 1268
f 1274 1268 1275
f 1276 1146 1147
f 1276 1275 1146
f 1278 1144 1273
f 1278 1148 1144
f 1280 1276 1147
f 1280 1147 1151
f 1280 1151 1150
f 1280 1150 1279
f 1279 1275 1276
f 1279 1276 1280
f 1282 1148 1278
f 1282 1152 1148
f 1281 1278 1277
f 1281 1282 1278
f 1284 1279 1150
f 1284 1150 1154
f 1284 1154 1153
f 1284 1153 1283
f 1285 1152 1282
f 1285 1156 1152
f 1283 1153 1157
f 1283 1157 1286
f 1157 1156 1285
f 1157 1285 1286
f 1285 1282 1283
f 1285 1283 1286
f 1161 1287 1160
f 1161 1288 1287
f 1290 1162 1163
f 1290 1289 1162
f 1291 1163 1164
f 1291 1290 1163
f 1287 1165 1160
f 1287 1292 1165
f 1165 1291 1164
f 1165 1292 1291
f 1288 1161 1166
f 1288 1166 1293
f 1292 1287 1288
f 1292 1288 1293
f 1295 1167 1168
f 1295 1294 1167
f 1296 1162 1289
f 1296 1170 1162
f 1171 1170 1296
f 1171 1296 1297
f 1297 1296 1289
f 1297 1289 1290
f 1298 1297 1290
f 1298 1290 1291
f 1299 1298 1291
f 1299 1291 1292
f 1293 1166 1173
f 1293 1173 1300
f 1294 1174 1167
f 1294 1301 1174
f 1174 1300 1173
f 1174 1301 1300
f 1300 1294 1293
f 1300 1301 1294
f 1295 1168 1175
f 1295 1175 1302
f 1301 1294 1295
f 1301 1295 1302
f 1303 1175 1176
f 1303 1302 1175
f 1297 1179 1171
f 1297 1305 1179
f 1179 1304 1178
f 1179 1305 1304
f 1304 1297 1296
f 1304 1305 1297
f 1308 1301 1302
f 1308 1302 1309
f 1303 1176 1181
f 1303 1181 1310
f 1309 1302 1303
f 1309 1303 1310
f 1311 1178 1304
f 1311 1182 1178
f 1183 1182 1311
f 1183 1311 1312
f 1311 1304 1305
f 1311 1305 1312
f 1312 1305 1306
f 1312 1306 1313
f 1313 1306 1307
f 1313 1307 1314
f 1317 1310 1181
f 1317 1181 1185
f 1317 1185 1184
f 1317 1184 1316
f 1316 1309 1310
f 1316 1310 1317
f 1318 1183 1312
f 1318 1187 1183
f 1188 1187 1318
f 1188 1318 1319
f 1318 1312 1313
f 1318 1313 1319
f 1320 1319 1313
f 1320 1313 1314
f 1320 1314 1315
f 1320 1315 1321
f 1322 1190 1189
f 1322 1189 1321
f 1316 1184 1191
f 1316 1191 1323
f 1323 1191 1190
f 1323 1190 1322
f 1326 1188 1319
f 1326 1194 1188
f 1194 1325 1193
f 1194 1326 1325
f 1328 1321 1189
f 1328 1189 1195
f 1329 1324 1323
f 1329 1330 1324
f 1199 1331 1198
f 1199 1332 1331
f 1325 1200 1193
f 1325 1333 1200
f 1334 1201 1200
f 1334 1200 1333
f 1334 1333 1325
f 1334 1325 1326
f 1202 1201 1334
f 1202 1334 1335
f 1334 1326 1327
f 1334 1327 1335
f 1336 1328 1195
f 1336 1195 1203
f 1336 1203 1202
f 1336 1202 1335
f 1338 1205 1206
f 1338 1337 1205
f 1331 1207 1198
f 1331 1339 1207
f 1339 1206 1207
f 1339 1338 1206
f 1332 1199 1208
f 1332 1208 1340
f 1340 1339 1331
f 1340 1331 1332
f 1337 1210 1205
f 1337 1341 1210
f 1342 1211 1210
f 1342 1210 1341
f 1343 1340 1208
f 1343 1208 1212
f 1342 1216 1211
f 1342 1346 1216
f 1345 1342 1341
f 1345 1346 1342
f 1348 1343 1212
f 1348 1212 1218
f 1348 1218 1217
f 1348 1217 1347
f 1350 1344 1349
f 1350 1345 1344
f 1346 1221 1216
f 1346 1351 1221
f 1352 1347 1217
f 1352 1217 1222
f 1352 1222 1221
f 1352 1221 1351
f 1351 1346 1347
f 1351 1347 1352
f 1232 1353 1231
f 1232 1354 1353
f 1355 1232 1233
f 1355 1354 1232
f 1356 1233 1234
f 1356 1355 1233
f 1238 1357 1237
f 1238 1358 1357
f 1353 1239 1231
f 1353 1359 1239
f 1239 1358 1238
f 1239 1359 1358
f 1360 1359 1353
f 1360 1353 1354
f 1356 1234 1242
f 1356 1242 1362
f 1361 1355 1356
f 1361 1356 1362
f 1363 1237 1357
f 1363 1245 1237
f 1246 1245 1363
f 1246 1363 1364
f 1363 1357 1358
f 1363 1358 1364
f 1247 1246 1364
f 1247 1364 1365
f 1365 1364 1358
f 1365 1358 1359
f 1248 1247 1365
f 1248 1365 1366
f 1365 1359 1360
f 1365 1360 1366
f 1362 1242 1249
f 1362 1249 1368
f 1370 1248 1366
f 1370 1254 1248
f 1254 1369 1253
f 1254 1370 1369
f 1371 1370 1366
f 1371 1366 1367
f 1368 1249 1255
f 1368 1255 1372
f 1371 1367 1368
f 1371 1368 1372
f 1373 1255 1256
f 1373 1372 1255
f 1369 1258 1253
f 1369 1374 1258
f 1375 1374 1369
f 1375 1369 1370
f 1376 1375 1370
f 1376 1370 1371
f 1377 1260 1259
f 1377 1259 1376
f 1377 1376 1371
f 1377 1371 1372
f 1373 1256 1261
f 1373 1261 1378
f 1261 1260 1377
f 1261 1377 1378
f 1377 1372 1373
f 1377 1373 1378
f 1379 1258 1374
f 1379 1264 1258
f 1265 1264 1379
f 1265 1379 1380
f 1380 1379 1374
f 1380 1374 1375
f 1381 1376 1259
f 1381 1259 1266
f 1266 1265 1380
f 1266 1380 1381
f 1381 1380 1375
f 1381 1375 1376
f 1384 1273 1274
f 1384 1383 1273
f 1385 1274 1275
f 1385 1384 1274
f 1387 1273 1383
f 1387 1278 1273
f 1387 1277 1278
f 1387 1386 1277
f 1387 1382 1386
f 1387 1383 1382
f 1388 1385 1275
f 1388 1275 1279
f 1389 1277 1386
f 1389 1281 1277
f 1390 1282 1281
f 1390 1281 1389
f 1391 1283 1282
f 1391 1282 1390
f 1388 1279 1284
f 1388 1284 1392
f 1284 1283 1391
f 1284 1391 1392
f 1293 1393 1292
f 1293 1394 1393
f 1395 1293 1294
f 1395 1394 1293
f 1297 1396 1296
f 1297 1397 1396
f 1298 1397 1297
f 1298 1398 1397
f 1393 1299 1292
f 1393 1399 1299
f 1299 1398 1298
f 1299 1399 1398
f 1400 1399 1393
f 1400 1393 1394
f 1395 1294 1301
f 1395 1301 1401
f 1400 1394 1395
f 1400 1395 1401
f 1396 1304 1296
f 1396 1402 1304
f 1305 1304 1402
f 1305 1402 1403
f 1402 1396 1397
f 1402 1397 1403
f 1306 1305 1403
f 1306 1403 1404
f 1403 1397 1398
f 1403 1398 1404
f 1307 1306 1404
f 1307 1404 1405
f 1405 1404 1398
f 1405 1398 1399
f 1401 1301 1308
f 1401 1308 1407
f 1408 1308 1309
f 1408 1407 1308
f 1409 1307 1405
f 1409 1314 1307
f 1315 1314 1409
f 1315 1409 1410
f 1409 1405 1406
f 1409 1406 1410
f 1412 1408 1309
f 1412 1309 1316
f 1411 1407 1408
f 1411 1408 1412
f 1320 1413 1319
f 1320 1414 1413
f 1415 1315 1410
f 1415 1321 1315
f 1415 1320 1321
f 1415 1414 1320
f 1416 1322 1321
f 1416 1321 1415
f 1416 1415 1410
f 1416 1410 1411
f 1412 1316 1323
f 1412 1323 1417
f 1323 1322 1416
f 1323 1416 1417
f 1416 1411 1412
f 1416 1412 1417
f 1324 1417 1323
f 1324 1418 1417
f 1419 1319 1413
f 1419 1326 1319
f 1327 1326 1419
f 1327 1419 1420
f 1419 1413 1414
f 1419 1414 1420
f 1421 1415 1321
f 1421 1321 1328
f 1421 1420 1414
f 1421 1414 1415
f 1417 1329 1323
f 1417 1422 1329
f 1418 1324 1330
f 1418 1330 1423
f 1330 1329 1422
f 1330 1422 1423
f 1422 1417 1418
f 1422 1418 1423
f 1424 1327 1420
f 1424 1335 1327
f 1421 1328 1336
f 1421 1336 1425
f 1336 1335 1424
f 1336 1424 1425
f 1424 1420 1421
f 1424 1421 1425
f 1427 1337 1338
f 1427 1426 1337
f 1428 1338 1339
f 1428 1427 1338
f 1340 1428 1339
f 1340 1429 1428
f 1426 1341 1337
f 1426 1430 1341
f 1429 1340 1343
f 1429 1343 1432
f 1430 1345 1341
f 1430 1434 1345
f 1345 1433 1344
f 1345 1434 1433
f 1435 1346 1345
f 1435 1345 1434
f 1347 1346 1435
f 1347 1435 1436
f 1437 1432 1343
f 1437 1343 1348
f 1437 1348 1347
f 1437 1347 1436
f 1437 1436 1431
f 1437 1431 1432
f 1433 1349 1344
f 1433 1438 1349
f 1439 1434 1345
f 1439 1345 1350
f 1350 1349 1438
f 1350 1438 1439
f 1439 1438 1433
f 1439 1433 1434
f 1441 1435 1440
f 1441 1436 1435
f 1443 1354 1355
f 1443 1442 1354
f 1442 1360 1354
f 1442 1444 1360
f 1443 1355 1361
f 1443 1361 1445
f 1444 1442 1443
f 1444 1443 1445
f 1446 1361 1362
f 1446 1445 1361
f 1447 1360 1444
f 1447 1366 1360
f 1367 1366 1447
f 1367 1447 1448
f 1447 1444 1445
f 1447 1445 1448
f 1446 1362 1368
f 1446 1368 1449
f 1449 1368 1367
f 1449 1367 1448
f 1448 1445 1446
f 1448 1446 1449
f 1451 1382 1383
f 1451 1450 1382
f 1384 1451 1383
f 1384 1452 1451
f 1453 1384 1385
f 1453 1452 1384
f 1454 1382 1450
f 1454 1386 1382
f 1453 1385 1388
f 1453 1388 1457
f 1457 1456 1452
f 1457 1452 1453
f 1458 1386 1454
f 1458 1389 1386
f 1390 1389 1458
f 1390 1458 1459
f 1459 1458 1454
f 1459 1454 1455
f 1460 1391 1390
f 1460 1390 1459
f 1459 1455 1456
f 1459 1456 1460
f 1461 1457 1388
f 1461 1388 1392
f 1461 1392 1391
f 1461 1391 1460
f 1460 1456 1457
f 1460 1457 1461
f 1400 1462 1399
f 1400 1463 1462
f 1464 1400 1401
f 1464 1463 1400
f 1465 1399 1462
f 1465 1405 1399
f 1406 1405 1465
f 1406 1465 1466
f 1465 1462 1463
f 1465 1463 1466
f 1464 1401 1407
f 1464 1407 1467
f 1466 1463 1464
f 1466 1464 1467
f 1468 1406 1466
f 1468 1410 1406
f 1467 1407 1411
f 1467 1411 1469
f 1411 1410 1468
f 1411 1468 1469
f 1468 1466 1467
f 1468 1467 1469
f 1471 1426 1427
f 1471 1470 1426
f 1472 1427 1428
f 1472 1471 1427
f 1473 1428 1429
f 1473 1472 1428
f 1470 1430 1426
f 1470 1474 1430
f 1475 1471 1472
f 1475 1472 1476
f 1477 1473 1429
f 1477 1429 1432
f 1477 1432 1431
f 1477 1431 1476
f 1477 1476 1472
f 1477 1472 1473
f 1478 1430 1474
f 1478 1434 1430
f 1435 1434 1478
f 1435 1478 1479
f 1480 1476 1431
f 1480 1431 1436
f 1480 1479 1475
f 1480 1475 1476
f 1481 1435 1479
f 1481 1440 1435
f 1480 1436 1441
f 1480 1441 1482
f 1441 1440 1481
f 1441 1481 1482
f 1481 1479 1480
f 1481 1480 1482
f 1484 1450 1451
f 1484 1483 1450
f 1485 1451 1452
f 1485 1484 1451
f 1486 1450 1483
f 1486 1454 1450
f 1455 1454 1486
f 1455 1486 1487
f 1485 1452 1456
f 1485 1456 1488
f 1488 1456 1455
f 1488 1455 1487
f 1490 1486 1489
f 1490 1487 1486
f 1492 1470 1471
f 1492 1491 1470
f 1491 1474 1470
f 1491 1493 1474
f 1492 1471 1475
f 1492 1475 1494
f 1494 1493 1491
f 1494 1491 1492
f 1495 1474 1493
f 1495 1478 1474
f 1496 1494 1475
f 1496 1475 1479
f 1496 1479 1478
f 1496 1478 1495
f 1498 1483 1484
f 1498 1497 1483
f 1499 1484 1485
f 1499 1498 1484
f 1497 1486 1483
f 1497 1500 1486
f 1502 1499 1485
f 1502 1485 1488
f 1502 1488 1487
f 1502 1487 1501
f 1501 1498 1499
f 1501 1499 1502
f 1500 1489 1486
f 1500 1503 1489
f 1501 1487 1490
f 1501 1490 1504
f 1504 1490 1489
f 1504 1489 1503
f 1506 1493 1494
f 1506 1505 1493
f 1505 1495 1493
f 1505 1507 1495
f 1506 1494 1496
f 1506 1496 1508
f 1508 1496 1495
f 1508 1495 1507
f 1507 1505 1506
f 1507 1506 1508
f 1510 1497 1498
f 1510 1509 1497
f 1509 1500 1497
f 1509 1511 1500
f 1512 1510 1498
f 1512 1498 1501
f 1512 1511 1509
f 1512 1509 1510
f 1513 1500 1511
f 1513 1503 1500
f 1512 1501 1504
f 1512 1504 1514
f 1514 1504 1503
f 1514 1503 1513
f 1514 1513 1511
f 1514 1511 1512
