# parsimony mesh: cplx_CPLX0-7534 (source /Users/eranagmon/code/v2e-cplx/workspace/studies/ecoli-3d/viz/3d/structures/cplx_CPLX0-7534.pdb)
# atoms: 8349  voxel: 16 Å  verts: 220  tris: 408
v 23.7398 28.0472 -90.2541
v 32.6679 26.0244 -91.8307
v 48.6679 26.2073 -91.2372
v 56.9683 28.2910 -89.4627
v 23.0611 37.4267 -90.9965
v 32.6679 37.4267 -94.1316
v 49.2903 36.7826 -91.8269
v 56.9683 31.0198 -89.4627
v 23.4536 46.8995 -90.4766
v 32.6679 47.9641 -91.4038
v 44.3719 47.3371 -90.7971
v 36.0858 12.3422 -76.0311
v 44.2105 12.3422 -76.0311
v 20.8479 24.8896 -81.1029
v 31.5186 17.5029 -81.2598
v 49.1934 18.2336 -81.2598
v 58.0139 25.8030 -81.1029
v 17.5569 37.4267 -81.1029
v 55.1980 42.4841 -81.1029
v 58.0139 34.4841 -81.1029
v 21.3770 48.1413 -81.1029
v 32.6679 50.5523 -81.1029
v 47.1980 47.8377 -81.1029
v 19.3458 11.8237 -61.8920
v 31.5186 10.7685 -66.3764
v 44.8951 11.3061 -65.1029
v 7.2497 24.1093 -61.1475
v 14.5909 19.0997 -66.8531
v 25.4191 14.0900 -72.5587
v 52.8951 18.6357 -65.1029
v 57.7973 26.6357 -65.1029
v 6.6887 37.4267 -62.3309
v 11.1638 37.4267 -70.3309
v 56.3374 45.2434 -72.7595
v 58.1147 38.9167 -66.4968
v 7.4471 46.8396 -60.0290
v 16.3637 48.5306 -65.2586
v 32.6679 50.3235 -65.1029
v 50.0696 47.5214 -66.4968
v 57.5733 46.1490 -62.0928
v 19.3458 11.8237 -55.2686
v 32.6679 10.9173 -53.6737
v 42.7615 11.6837 -54.3649
v 7.2497 24.1093 -54.5892
v 15.0746 19.8363 -53.2628
v 32.6679 21.4267 -48.1789
v 48.3241 23.0114 -52.2845
v 56.6795 29.4013 -57.0844
v 7.0256 38.8364 -49.1947
v 16.6679 35.4133 -45.6785
v 33.4694 37.6063 -43.8116
v 48.6679 37.4267 -49.5247
v 57.3557 37.4267 -56.5997
v 7.6787 46.5602 -49.1029
v 16.6679 49.0979 -49.1029
v 33.4694 48.3356 -48.2074
v 48.6679 47.0669 -53.4941
v 57.5733 46.1490 -56.4505
v 7.9203 43.9108 -33.1029
v 16.1393 42.7936 -33.1615
v 28.6703 43.0594 -38.5339
v 7.9203 46.0591 -33.1029
v 16.1393 46.9946 -33.1615
v 28.6703 47.1967 -38.5339
v 7.7693 43.7227 -24.4259
v 10.4535 43.7227 -24.4259
v 7.7693 46.1715 -24.4259
v 10.4535 46.1715 -24.4259
v 23.8024 -68.3127 6.0289
v 32.6679 -70.8155 4.8846
v 48.6679 -69.9136 5.4523
v 56.7746 -67.1102 6.7859
v 23.3149 -58.5733 5.5190
v 32.6679 -58.5733 3.5079
v 47.9658 -60.0454 5.2215
v 56.7746 -66.3601 6.7859
v 23.7293 -49.5766 5.9278
v 32.6679 -49.0716 5.5204
v 42.1644 -49.5677 6.0307
v -72.2203 28.2074 6.0680
v -63.3321 26.0635 4.8902
v -52.4226 26.1617 5.0503
v -73.4119 37.4267 5.1779
v -63.3321 37.4267 3.2926
v -52.2742 37.4267 5.0117
v -73.2170 47.6198 5.4339
v -63.3321 47.6821 5.2994
v -54.1644 46.2408 6.2300
v 24.1696 -82.8656 22.2324
v 32.6679 -84.0656 19.4226
v 48.6679 -84.1769 18.6750
v 57.2121 -83.0140 21.2356
v 21.8040 -74.0170 16.0982
v 32.6679 -78.8155 11.4226
v 48.6679 -77.9136 10.6750
v 57.7607 -73.2955 15.5002
v 18.8532 -58.5733 14.8971
v 51.3584 -56.9156 14.8971
v 57.6257 -64.9156 14.8971
v 22.0594 -48.7886 14.8971
v 32.6679 -46.9800 14.8971
v 43.3584 -48.7647 14.8971
v -71.3477 13.4187 22.8810
v -63.3321 12.5919 20.6368
v -51.9580 12.3216 19.8994
v -74.8583 22.2951 16.4874
v -63.3321 18.0635 12.6368
v -46.8570 20.5812 14.5313
v -37.8781 25.6673 19.8299
v -87.5156 41.9098 22.5679
v -82.3799 36.9166 16.2996
v -45.4836 37.4763 14.6567
v -37.8781 32.1760 19.8299
v -87.5156 45.6251 22.5679
v -78.8631 48.2302 16.2996
v -63.3321 50.7121 14.8971
v -53.2036 47.3565 14.8971
v 7.7935 -83.5940 37.4297
v 17.9689 -84.6032 31.6167
v 32.6679 -87.3637 30.8971
v 49.4699 -85.2525 30.7886
v 57.2121 -83.0140 25.3830
v 6.5755 -74.5733 35.2407
v 13.7371 -74.5733 27.2407
v 55.3379 -81.0428 36.0496
v 58.3587 -75.2550 30.7886
v 6.7525 -62.1111 35.4892
v 12.1144 -57.4960 30.4524
v 53.4255 -53.9096 26.5332
v 58.6117 -58.9751 31.4788
v 19.5331 -48.6388 30.8971
v 32.6679 -47.0625 30.8971
v 48.3224 -48.9012 31.4788
v 57.6337 -49.8882 37.1999
v -88.3644 12.5141 37.3556
v -77.7415 11.8309 31.5722
v -63.3321 10.5206 30.8971
v -51.7180 11.8308 30.8971
v -90.1132 21.4267 33.9589
v -83.0737 21.4267 25.9589
v -43.7180 18.4392 30.8971
v -38.1595 26.4392 30.8971
v -89.6392 36.9166 29.4714
v -86.9720 31.2432 23.1876
v -42.9951 42.8427 25.5151
v -37.5474 37.4763 30.8679
v -88.2091 46.3244 30.8971
v -79.3321 49.3895 30.8971
v -63.3321 51.0284 30.8971
v -47.9299 48.4208 30.8679
v -37.9211 47.0346 36.1818
v 7.7935 -83.5940 39.9495
v 16.6679 -84.8915 41.1732
v 33.8828 -85.5354 46.4865
v 44.1429 -84.7233 46.8971
v 6.5755 -74.5733 42.9435
v 16.6679 -74.5733 48.0025
v 28.9365 -74.5733 51.9561
v 50.4926 -75.2550 46.2709
v 57.7714 -70.3761 40.5200
v 6.7525 -62.1111 43.2398
v 14.6707 -58.7148 48.7832
v 32.2679 -59.5770 53.3829
v 47.7126 -58.5307 48.5396
v 58.2199 -58.5733 40.7936
v 17.6721 -48.8152 46.8971
v 33.1880 -48.7493 47.0224
v 48.6679 -49.5376 41.7330
v 57.6337 -49.8882 39.8027
v -88.3644 12.5141 40.0617
v -79.3321 11.4380 42.2680
v -63.3321 11.3554 45.1059
v -53.8874 12.4040 43.8454
v -90.1132 21.4267 43.2510
v -79.3321 21.4267 48.2612
v -63.2109 20.1075 52.2742
v -48.8010 21.5487 46.7864
v -39.2226 29.2027 39.0608
v -90.2382 36.4553 48.0815
v -79.3321 31.6629 52.8902
v -62.6092 37.2558 53.2959
v -48.3616 37.6612 48.9939
v -38.1918 37.4267 40.4326
v -88.9578 47.1108 46.8971
v -79.3321 49.7140 46.8971
v -62.5858 48.4832 47.7655
v -47.3321 47.8501 43.3954
v -37.9211 47.0346 40.7807
v 40.0261 -83.1128 55.2237
v 41.2979 -83.1128 55.2237
v 8.2031 -67.0237 67.8165
v 9.5556 -67.0237 67.8165
v 36.9365 -74.5733 55.6315
v 41.9463 -74.5733 55.6315
v 7.6496 -58.5733 65.0120
v 14.6474 -57.1784 61.9368
v 32.2679 -59.5770 56.6930
v 41.7425 -63.8356 55.5496
v 7.7750 -49.9529 66.1310
v 15.2001 -49.6892 61.9837
v 28.2014 -49.4255 57.8364
v -57.7968 24.5615 55.5810
v -54.3813 24.5615 55.5810
v -89.4323 40.5183 62.8971
v -79.8807 39.4603 62.8606
v -62.6092 37.2558 56.5420
v -54.3813 32.4843 55.5810
v -89.4323 46.9355 62.8971
v -79.8807 47.6328 62.8606
v -67.4215 47.0918 57.5030
v 8.2031 -67.0237 71.3498
v 9.5556 -67.0237 71.3498
v 7.6496 -58.5733 71.7527
v 10.8976 -58.5733 71.7527
v 7.7750 -49.9529 71.5852
v 10.7531 -49.9529 71.5852
v -88.9507 43.1678 71.7008
v -85.5798 43.1678 71.7008
v -88.9507 46.1913 71.7008
v -85.5798 46.1913 71.7008
f 6 1 5
f 6 2 1
f 6 3 2
f 6 7 3
f 8 3 7
f 8 4 3
f 9 6 5
f 9 10 6
f 11 6 10
f 11 7 6
f 15 1 2
f 15 14 1
f 16 2 3
f 16 15 2
f 15 13 12
f 15 16 13
f 17 3 4
f 17 16 3
f 18 1 14
f 18 5 1
f 20 8 7
f 20 7 19
f 18 9 5
f 18 21 9
f 22 10 9
f 22 9 21
f 19 7 11
f 19 11 23
f 11 10 22
f 11 22 23
f 26 12 13
f 26 25 12
f 29 12 25
f 29 15 12
f 29 14 15
f 29 28 14
f 29 24 28
f 29 25 24
f 30 26 13
f 30 13 16
f 17 30 16
f 17 31 30
f 33 14 28
f 33 18 14
f 33 27 32
f 33 28 27
f 20 19 34
f 20 34 35
f 33 21 18
f 33 37 21
f 36 33 32
f 36 37 33
f 38 22 21
f 38 21 37
f 34 19 23
f 34 23 39
f 23 22 38
f 23 38 39
f 40 34 39
f 40 35 34
f 42 24 25
f 42 41 24
f 43 25 26
f 43 42 25
f 45 24 41
f 45 28 24
f 45 27 28
f 45 44 27
f 46 45 41
f 46 41 42
f 43 26 30
f 43 30 47
f 46 42 43
f 46 43 47
f 48 30 31
f 48 47 30
f 44 32 27
f 44 49 32
f 50 49 44
f 50 44 45
f 50 45 46
f 50 46 51
f 51 46 47
f 51 47 52
f 52 47 48
f 52 48 53
f 49 36 32
f 49 54 36
f 55 37 36
f 55 36 54
f 38 37 55
f 38 55 56
f 57 39 38
f 57 38 56
f 56 51 52
f 56 52 57
f 40 39 57
f 40 57 58
f 57 52 53
f 57 53 58
f 50 59 49
f 50 60 59
f 61 50 51
f 61 60 50
f 59 54 49
f 59 62 54
f 63 55 54
f 63 54 62
f 64 61 51
f 64 51 56
f 64 56 55
f 64 55 63
f 63 60 61
f 63 61 64
f 66 59 60
f 66 65 59
f 67 59 65
f 67 62 59
f 66 60 63
f 66 63 68
f 68 63 62
f 68 62 67
f 67 65 66
f 67 66 68
f 74 69 73
f 74 70 69
f 75 70 74
f 75 71 70
f 76 71 75
f 76 72 71
f 77 74 73
f 77 78 74
f 79 74 78
f 79 75 74
f 84 80 83
f 84 81 80
f 84 82 81
f 84 85 82
f 86 84 83
f 86 87 84
f 88 84 87
f 88 85 84
f 94 69 70
f 94 93 69
f 94 89 93
f 94 90 89
f 95 70 71
f 95 94 70
f 94 91 90
f 94 95 91
f 96 71 72
f 96 95 71
f 95 92 91
f 95 96 92
f 97 69 93
f 97 73 69
f 76 75 98
f 76 98 99
f 97 77 73
f 97 100 77
f 101 78 77
f 101 77 100
f 98 75 79
f 98 79 102
f 79 78 101
f 79 101 102
f 107 80 81
f 107 106 80
f 107 103 106
f 107 104 103
f 82 107 81
f 82 108 107
f 107 105 104
f 107 108 105
f 111 80 106
f 111 83 80
f 112 108 82
f 112 82 85
f 112 109 108
f 112 113 109
f 115 83 111
f 115 86 83
f 114 111 110
f 114 115 111
f 116 87 86
f 116 86 115
f 117 112 85
f 117 85 88
f 88 87 116
f 88 116 117
f 120 89 90
f 120 119 89
f 121 90 91
f 121 120 90
f 122 91 92
f 122 121 91
f 124 89 119
f 124 93 89
f 124 118 123
f 124 119 118
f 125 121 122
f 125 122 126
f 124 97 93
f 124 128 97
f 127 124 123
f 127 128 124
f 99 98 129
f 99 129 130
f 131 97 128
f 131 100 97
f 132 101 100
f 132 100 131
f 129 98 102
f 129 102 133
f 102 101 132
f 102 132 133
f 134 129 133
f 134 130 129
f 137 103 104
f 137 136 103
f 138 104 105
f 138 137 104
f 140 103 136
f 140 106 103
f 140 135 139
f 140 136 135
f 141 138 105
f 141 105 108
f 109 141 108
f 109 142 141
f 144 106 140
f 144 111 106
f 144 110 111
f 144 143 110
f 144 139 143
f 144 140 139
f 142 109 113
f 142 113 146
f 113 112 145
f 113 145 146
f 147 110 143
f 147 114 110
f 148 115 114
f 148 114 147
f 149 116 115
f 149 115 148
f 145 112 117
f 145 117 150
f 117 116 149
f 117 149 150
f 151 145 150
f 151 146 145
f 153 118 119
f 153 152 118
f 120 153 119
f 120 154 153
f 155 120 121
f 155 154 120
f 152 123 118
f 152 156 123
f 156 152 153
f 156 153 157
f 158 157 153
f 158 153 154
f 155 121 125
f 155 125 159
f 160 125 126
f 160 159 125
f 156 127 123
f 156 161 127
f 128 127 161
f 128 161 162
f 161 156 157
f 161 157 162
f 162 157 158
f 162 158 163
f 164 159 160
f 164 160 165
f 166 128 162
f 166 131 128
f 167 132 131
f 167 131 166
f 168 133 132
f 168 132 167
f 167 163 164
f 167 164 168
f 134 133 168
f 134 168 169
f 168 164 165
f 168 165 169
f 171 135 136
f 171 170 135
f 137 171 136
f 137 172 171
f 173 137 138
f 173 172 137
f 174 135 170
f 174 139 135
f 174 170 171
f 174 171 175
f 175 171 172
f 175 172 176
f 173 138 141
f 173 141 177
f 176 172 173
f 176 173 177
f 178 141 142
f 178 177 141
f 179 139 174
f 179 143 139
f 180 179 174
f 180 174 175
f 180 175 176
f 180 176 181
f 178 142 146
f 178 146 183
f 182 177 178
f 182 178 183
f 179 147 143
f 179 184 147
f 185 148 147
f 185 147 184
f 149 148 185
f 149 185 186
f 187 150 149
f 187 149 186
f 186 181 182
f 186 182 187
f 183 146 151
f 183 151 188
f 151 150 187
f 151 187 188
f 187 182 183
f 187 183 188
f 155 189 154
f 155 190 189
f 189 158 154
f 189 193 158
f 194 190 155
f 194 155 159
f 194 193 189
f 194 189 190
f 195 192 191
f 195 196 192
f 193 163 158
f 193 197 163
f 197 162 163
f 197 196 162
f 198 194 159
f 198 159 164
f 198 164 163
f 198 163 197
f 198 197 193
f 198 193 194
f 200 162 196
f 200 166 162
f 199 196 195
f 199 200 196
f 201 197 163
f 201 163 167
f 201 167 166
f 201 166 200
f 201 200 196
f 201 196 197
f 203 176 177
f 203 202 176
f 180 204 179
f 180 205 204
f 202 181 176
f 202 206 181
f 206 180 181
f 206 205 180
f 207 203 177
f 207 177 182
f 207 182 181
f 207 181 206
f 207 206 202
f 207 202 203
f 204 184 179
f 204 208 184
f 209 185 184
f 209 184 208
f 210 206 181
f 210 181 186
f 210 186 185
f 210 185 209
f 210 209 205
f 210 205 206
f 192 211 191
f 192 212 211
f 213 191 211
f 213 195 191
f 214 212 192
f 214 192 196
f 213 199 195
f 213 215 199
f 216 214 196
f 216 196 200
f 216 200 199
f 216 199 215
f 218 204 205
f 218 217 204
f 217 208 204
f 217 219 208
f 218 205 209
f 218 209 220
f 220 209 208
f 220 208 219
