# parsimony mesh: eg10667_monomer (source /Users/eranagmon/code/v2e-cplx/workspace/studies/ecoli-3d/viz/3d/structures/eg10667_monomer.pdb)
# atoms: 1444  voxel: 16 Å  verts: 60  tris: 118
v 25.8501 -9.0965 -25.6521
v 31.1506 -9.0965 -25.6521
v -2.8566 7.2386 -25.2186
v 5.7098 4.2754 -26.8851
v 20.9164 -1.0975 -26.3495
v 31.1506 -6.0894 -25.6521
v -2.8566 8.7699 -25.2186
v 5.7098 10.5193 -26.8851
v 15.9827 10.6883 -27.0470
v -20.3909 -9.3311 -10.1307
v -10.2902 -9.5017 -10.5065
v 5.7098 -9.4709 -12.4595
v 21.6888 -9.1933 -16.9124
v 31.1506 -9.0965 -21.0901
v -20.0969 0.1486 -9.9733
v -9.0301 1.2026 -16.7054
v 5.7098 -3.7246 -20.4595
v 23.3423 -1.8663 -17.7910
v 30.4823 0.5868 -14.9858
v -18.5984 8.3623 -8.9192
v -9.0301 10.0876 -15.2028
v 5.7098 14.6565 -16.6283
v 21.4735 11.6386 -15.1803
v 29.8141 8.3060 -8.8816
v -20.3909 -9.3311 -5.4998
v -10.5288 -10.4147 -0.3512
v 5.5541 -10.3901 -0.7527
v 17.5275 -9.2901 -6.1689
v -20.0969 0.1486 -5.5497
v -10.5288 0.4513 2.2539
v 5.5541 0.4513 2.4262
v 22.4004 1.2172 -5.9237
v 29.8141 7.2629 -8.5125
v -18.5984 8.3623 -7.6521
v -10.2902 10.1063 -5.3719
v 5.7098 12.2858 -4.6547
v 21.7098 10.6064 -7.0921
v 29.8141 8.3060 -8.5125
v -19.5672 -9.1685 20.4861
v -10.5288 -11.2038 15.2403
v 0.5919 -11.0540 15.3717
v -20.1438 0.1486 19.2958
v -10.5288 0.4513 11.9772
v 0.6009 0.4513 15.2379
v -19.4847 9.0024 20.8227
v -10.2902 9.5561 19.2927
v -1.3145 9.1715 20.4820
v -19.5672 -9.1685 25.4816
v -10.2902 -10.4880 26.6463
v -0.8545 -10.0497 25.6280
v -19.8244 1.6055 31.0376
v -11.7041 1.6055 33.8109
v -0.4817 0.1486 26.8383
v -19.2502 8.8486 31.3717
v -11.7041 9.3223 31.1912
v -1.3145 9.1715 25.7376
v -18.3757 7.9100 39.4572
v -17.9800 7.9100 39.4572
v -18.3757 8.2282 39.4572
v -17.9800 8.2282 39.4572
f 6 1 5
f 6 2 1
f 8 3 7
f 8 4 3
f 9 4 8
f 9 5 4
f 14 1 2
f 14 13 1
f 15 11 10
f 15 16 11
f 17 3 4
f 17 16 3
f 16 12 11
f 16 17 12
f 18 1 13
f 18 5 1
f 5 17 4
f 5 18 17
f 17 13 12
f 17 18 13
f 14 2 6
f 14 6 19
f 6 5 18
f 6 18 19
f 18 13 14
f 18 14 19
f 21 3 16
f 21 7 3
f 20 16 15
f 20 21 16
f 22 8 7
f 22 7 21
f 23 18 5
f 23 5 9
f 9 8 22
f 9 22 23
f 23 19 18
f 23 24 19
f 11 25 10
f 11 26 25
f 27 11 12
f 27 26 11
f 28 12 13
f 28 27 12
f 25 15 10
f 25 29 15
f 29 25 26
f 29 26 30
f 28 13 18
f 28 18 32
f 31 27 28
f 31 28 32
f 19 32 18
f 19 33 32
f 34 15 29
f 34 20 15
f 35 21 20
f 35 20 34
f 35 34 29
f 35 29 30
f 36 22 21
f 36 21 35
f 35 30 31
f 35 31 36
f 23 22 36
f 23 36 37
f 36 31 32
f 36 32 37
f 33 19 24
f 33 24 38
f 24 23 37
f 24 37 38
f 37 32 33
f 37 33 38
f 41 26 27
f 41 40 26
f 43 26 40
f 43 30 26
f 42 40 39
f 42 43 40
f 41 27 31
f 41 31 44
f 44 31 30
f 44 30 43
f 46 42 45
f 46 43 42
f 46 44 43
f 46 47 44
f 49 39 40
f 49 48 39
f 50 40 41
f 50 49 40
f 48 42 39
f 48 51 42
f 52 51 48
f 52 48 49
f 50 41 44
f 50 44 53
f 53 52 49
f 53 49 50
f 51 45 42
f 51 54 45
f 55 46 45
f 55 45 54
f 53 44 47
f 53 47 56
f 56 47 46
f 56 46 55
f 55 52 53
f 55 53 56
f 58 51 52
f 58 57 51
f 57 54 51
f 57 59 54
f 58 52 55
f 58 55 60
f 60 55 54
f 60 54 59
