# parsimony mesh: eg10570_monomer (source /Users/eranagmon/code/v2e-molecules/workspace/studies/ecoli-3d/viz/3d/structures/eg10570_monomer.pdb)
# atoms: 2052  voxel: 8 Å  verts: 180  tris: 364
v -2.9305 -10.4121 -24.9523
v -2.2854 -10.4121 -24.9523
v -11.0684 -3.0336 -25.2366
v -6.0139 -5.9382 -25.6208
v -0.8793 -6.2951 -25.5063
v -11.0684 -1.7262 -25.2366
v -6.6391 -0.6912 -25.7195
v -0.6464 -0.7256 -25.5997
v -4.3017 -10.8214 -20.8155
v 0.7731 -11.1423 -20.6433
v 9.3609 -11.4279 -18.0784
v 14.4158 -11.0952 -17.4531
v -18.8307 -2.5099 -16.9864
v -14.0967 -4.0807 -20.1180
v -8.3017 -8.3661 -20.8155
v 3.1207 -6.2951 -23.1053
v 9.3609 -6.2951 -20.6770
v 17.1938 -5.8480 -18.2326
v 21.6171 -2.8833 -17.0816
v -18.8307 -1.8708 -16.9864
v -13.7020 0.8682 -19.6671
v -6.6391 3.3088 -21.8705
v 1.7565 1.8466 -22.7196
v 9.3609 1.7049 -21.4257
v 18.1466 2.4621 -18.6839
v 21.6171 0.3003 -17.0816
v -11.0023 5.8593 -17.0145
v -6.6391 7.4672 -17.8705
v 1.3854 10.2221 -18.3710
v 8.7283 9.6889 -18.4802
v 16.0038 7.0115 -18.2052
v 4.0684 13.8116 -16.9080
v 5.6399 13.8116 -16.9080
v -19.4825 -10.8647 -9.5874
v -14.6391 -11.1672 -10.7897
v -6.9943 -12.3488 -13.1317
v 1.3609 -13.9338 -12.8155
v 9.3609 -12.4390 -12.8155
v 17.1938 -11.1798 -12.6559
v 22.0899 -10.9331 -9.8828
v -27.1583 -2.9497 -9.3543
v -21.8232 -5.3965 -12.1375
v -14.6391 -7.9732 -14.7897
v -9.8978 -9.6512 -16.0092
v 19.7491 -8.2167 -15.2161
v 22.6090 -5.8480 -12.6559
v -27.1583 -1.4249 -9.3543
v -21.9459 1.0189 -12.3764
v -16.3356 3.4626 -15.3985
v 20.7079 5.2486 -12.8155
v 22.3743 1.2486 -12.8155
v -19.7278 6.5163 -10.0652
v -14.0570 7.0680 -12.7653
v -6.5940 11.0984 -13.4511
v -1.2649 13.2336 -16.5415
v 10.9733 12.3449 -14.4740
v 16.1184 9.6889 -12.2106
v -3.8973 15.0775 -11.2081
v 1.3854 15.2254 -13.4511
v 8.7283 14.7899 -12.2106
v 13.4940 14.3517 -9.1407
v -2.6585 -18.2981 -0.8988
v -2.6244 -18.2981 -0.8988
v -19.7524 -11.2169 -4.8155
v -14.6391 -12.9390 -4.8155
v -5.8507 -16.2197 -4.0655
v 0.5697 -16.1234 -4.0655
v 9.3609 -12.6470 -4.8155
v 17.3609 -12.3618 -4.8155
v 22.4793 -11.6116 -4.8155
v -27.3001 -3.3174 -4.8155
v -23.7524 -7.3174 -4.8155
v 20.6980 -3.2169 -1.3537
v 22.9126 -6.0482 -4.3384
v -27.3001 -0.9424 -4.8155
v -24.3692 3.0576 -4.8155
v 20.2497 2.1826 -4.3384
v 22.4559 -0.1656 -6.6871
v -20.3692 7.3935 -4.8155
v -14.1779 11.0394 -4.2209
v -6.9252 12.4050 -4.0835
v -1.3765 12.4656 -1.6758
v 18.1045 9.7049 -4.8155
v -11.2037 13.9742 -1.1579
v -6.9252 14.5258 -4.0835
v 1.3184 15.5988 -4.5317
v 9.3609 16.8762 -4.8155
v 14.9964 15.5383 -4.8155
v -2.9155 -18.3348 3.1845
v -2.5144 -18.3348 3.1845
v -20.5390 -11.7971 3.1845
v -14.6391 -14.3345 3.1845
v -6.9155 -16.8325 3.1845
v 1.4856 -15.8008 3.1845
v 9.3609 -13.2602 3.1845
v 17.3609 -13.2245 3.1845
v 22.5732 -11.7651 3.1845
v -27.0013 -3.0036 -0.0758
v -24.0326 -5.9202 2.8283
v 20.7750 -3.0779 3.1845
v 22.5732 -7.0779 3.1845
v -27.0013 -1.3617 -0.0758
v -23.7558 1.4649 2.8283
v 20.6869 1.1009 2.9291
v 21.6210 3.3649 5.4256
v -20.0971 9.7689 3.4334
v -16.5370 12.4782 0.9327
v -4.5927 12.5843 3.1845
v -1.4454 12.5843 3.1845
v 20.1723 9.4533 2.9291
v 21.6210 6.6189 5.4256
v -18.9974 14.0121 6.2660
v -14.1779 14.2391 3.4334
v -8.5927 14.1422 3.1845
v 2.5546 14.6881 3.1845
v 9.3609 16.7271 3.1845
v 16.1318 15.7439 3.1845
v -19.0447 -18.5732 14.4729
v -17.9115 -18.5732 14.4729
v -2.9883 -18.3450 7.2771
v -2.4876 -18.3450 7.2771
v -19.7880 -13.7836 12.1039
v -16.3031 -13.9556 12.8741
v -6.0486 -15.4145 10.4401
v 0.6518 -14.6976 10.4401
v 9.3609 -12.3759 11.1845
v 16.7131 -11.5115 10.8500
v 22.2150 -11.1378 7.9604
v -20.8234 -7.0205 11.9148
v -18.4706 -10.1708 15.0683
v 18.9035 -5.5683 10.8500
v 22.2150 -7.7504 7.9604
v -20.2002 2.3481 11.7946
v -18.3956 5.4436 14.8680
v 19.0225 1.1009 10.8390
v 21.6210 3.3649 7.9420
v -19.5480 9.7049 9.2246
v -15.2930 10.1355 12.9270
v -6.5486 13.2696 10.8078
v 0.8230 12.8424 10.7516
v 9.3609 11.7106 14.0024
v 17.0771 9.5675 11.4061
v 21.6210 6.6189 7.9420
v -18.9974 14.0121 7.5545
v -14.6391 14.1707 8.6000
v -6.5486 14.1980 10.8078
v 0.8230 14.3321 10.7516
v 9.3609 14.8321 10.0024
v 15.0079 14.6259 9.5369
v -19.0447 -18.5732 15.7996
v -17.9115 -18.5732 15.7996
v -19.0447 -15.9290 15.7996
v -15.5244 -13.6641 15.7984
v -6.6391 -11.4341 16.0185
v 1.3609 -10.9106 16.0758
v 9.3609 -10.7516 15.9061
v 13.6145 -10.4977 15.4575
v -19.2647 -4.8375 15.9634
v -15.3380 -7.0205 17.3775
v -6.6391 -6.2951 18.7102
v 1.3609 -6.2951 18.6127
v 9.3609 -6.2951 18.2972
v 14.3778 -6.2951 16.2376
v -19.2647 0.1103 15.9634
v -15.2930 2.3481 17.9991
v -6.6871 1.8655 21.5271
v 1.1314 1.8655 20.9478
v 9.3609 1.7049 18.3512
v 14.5266 1.7049 16.1412
v -13.0623 7.7558 16.8333
v -6.9432 10.5854 19.8636
v 1.1340 10.1581 19.4840
v 9.3609 7.7106 15.9601
v 13.8129 7.1827 15.3290
v -4.5007 14.3774 17.5605
v -1.3772 14.3774 17.5605
v -4.0525 4.6393 23.8748
v -1.6882 4.6393 23.8748
v -4.0525 8.0816 23.8748
v -1.6882 8.0816 23.8748
f 5 1 4
f 5 2 1
f 7 3 6
f 7 4 3
f 8 4 7
f 8 5 4
f 2 9 1
f 2 10 9
f 9 4 1
f 9 15 4
f 15 3 4
f 15 14 3
f 16 10 2
f 16 2 5
f 16 11 10
f 16 17 11
f 17 12 11
f 17 18 12
f 14 6 3
f 14 21 6
f 20 14 13
f 20 21 14
f 22 7 6
f 22 6 21
f 16 5 8
f 16 8 23
f 8 7 22
f 8 22 23
f 24 16 23
f 24 17 16
f 24 18 17
f 24 25 18
f 25 19 18
f 25 26 19
f 27 22 21
f 27 28 22
f 29 22 28
f 29 23 22
f 30 23 29
f 30 24 23
f 31 24 30
f 31 25 24
f 33 29 32
f 33 30 29
f 37 9 10
f 37 36 9
f 11 37 10
f 11 38 37
f 12 38 11
f 12 39 38
f 43 13 14
f 43 42 13
f 43 34 42
f 43 35 34
f 44 9 36
f 44 15 9
f 44 14 15
f 44 43 14
f 44 35 43
f 44 36 35
f 45 39 12
f 45 12 18
f 19 45 18
f 19 46 45
f 45 40 39
f 45 46 40
f 48 13 42
f 48 20 13
f 47 42 41
f 47 48 42
f 49 21 20
f 49 20 48
f 51 46 19
f 51 19 26
f 26 25 50
f 26 50 51
f 49 27 21
f 49 53 27
f 52 49 48
f 52 53 49
f 54 28 27
f 54 27 53
f 55 29 28
f 55 28 54
f 50 25 31
f 50 31 57
f 31 30 56
f 31 56 57
f 55 32 29
f 55 59 32
f 58 55 54
f 58 59 55
f 56 30 33
f 56 33 60
f 33 32 59
f 33 59 60
f 61 56 60
f 61 57 56
f 65 34 35
f 65 64 34
f 36 65 35
f 36 66 65
f 37 66 36
f 37 67 66
f 66 63 62
f 66 67 63
f 68 37 38
f 68 67 37
f 39 68 38
f 39 69 68
f 40 69 39
f 40 70 69
f 72 34 64
f 72 42 34
f 72 41 42
f 72 71 41
f 74 70 40
f 74 40 46
f 71 47 41
f 71 75 47
f 76 48 47
f 76 47 75
f 78 74 46
f 78 46 51
f 78 51 50
f 78 50 77
f 78 77 73
f 78 73 74
f 76 52 48
f 76 79 52
f 80 53 52
f 80 52 79
f 54 53 80
f 54 80 81
f 83 77 50
f 83 50 57
f 81 58 54
f 81 85 58
f 84 81 80
f 84 85 81
f 86 59 58
f 86 58 85
f 85 81 82
f 85 82 86
f 60 59 86
f 60 86 87
f 83 57 61
f 83 61 88
f 61 60 87
f 61 87 88
f 90 62 63
f 90 89 62
f 92 64 65
f 92 91 64
f 93 62 89
f 93 66 62
f 66 92 65
f 66 93 92
f 94 90 63
f 94 63 67
f 68 94 67
f 68 95 94
f 96 68 69
f 96 95 68
f 97 69 70
f 97 96 69
f 91 72 64
f 91 99 72
f 72 98 71
f 72 99 98
f 101 97 70
f 101 70 74
f 101 74 73
f 101 73 100
f 102 71 98
f 102 75 71
f 76 75 102
f 76 102 103
f 102 98 99
f 102 99 103
f 104 100 73
f 104 73 77
f 103 79 76
f 103 106 79
f 107 80 79
f 107 79 106
f 82 81 108
f 82 108 109
f 110 104 77
f 110 77 83
f 111 104 110
f 111 105 104
f 107 84 80
f 107 113 84
f 112 107 106
f 112 113 107
f 114 108 81
f 114 81 85
f 114 85 84
f 114 84 113
f 115 82 109
f 115 86 82
f 87 86 115
f 87 115 116
f 117 110 83
f 117 83 88
f 88 87 116
f 88 116 117
f 121 89 90
f 121 120 89
f 92 122 91
f 92 123 122
f 123 118 122
f 123 119 118
f 120 93 89
f 120 124 93
f 124 92 93
f 124 123 92
f 121 90 94
f 121 94 125
f 124 120 121
f 124 121 125
f 95 125 94
f 95 126 125
f 127 95 96
f 127 126 95
f 128 96 97
f 128 127 96
f 129 91 122
f 129 99 91
f 130 129 122
f 130 122 123
f 132 128 97
f 132 97 101
f 132 101 100
f 132 100 131
f 131 127 128
f 131 128 132
f 129 103 99
f 129 133 103
f 135 131 100
f 135 100 104
f 136 104 105
f 136 135 104
f 133 106 103
f 133 137 106
f 137 133 134
f 137 134 138
f 109 108 139
f 109 139 140
f 136 105 111
f 136 111 143
f 143 111 110
f 143 110 142
f 143 142 135
f 143 135 136
f 137 112 106
f 137 144 112
f 145 113 112
f 145 112 144
f 145 144 137
f 145 137 138
f 139 108 114
f 139 114 146
f 114 113 145
f 114 145 146
f 145 138 139
f 145 139 146
f 140 115 109
f 140 147 115
f 147 139 146
f 147 140 139
f 148 116 115
f 148 115 147
f 148 147 140
f 148 140 141
f 149 142 110
f 149 110 117
f 149 117 116
f 149 116 148
f 149 148 141
f 149 141 142
f 119 150 118
f 119 151 150
f 152 118 150
f 152 122 118
f 153 151 119
f 153 119 123
f 123 122 152
f 123 152 153
f 152 150 151
f 152 151 153
f 154 123 124
f 154 153 123
f 125 154 124
f 125 155 154
f 126 155 125
f 126 156 155
f 157 126 127
f 157 156 126
f 153 130 123
f 153 159 130
f 130 158 129
f 130 159 158
f 159 153 154
f 159 154 160
f 160 154 155
f 160 155 161
f 162 161 155
f 162 155 156
f 163 157 127
f 163 127 131
f 162 156 157
f 162 157 163
f 164 129 158
f 164 133 129
f 134 133 164
f 134 164 165
f 164 158 159
f 164 159 165
f 165 159 160
f 165 160 166
f 167 166 160
f 167 160 161
f 168 167 161
f 168 161 162
f 169 163 131
f 169 131 135
f 168 162 163
f 168 163 169
f 170 134 165
f 170 138 134
f 139 138 170
f 139 170 171
f 170 165 166
f 170 166 171
f 141 140 172
f 141 172 173
f 173 172 167
f 173 167 168
f 174 169 135
f 174 135 142
f 174 142 141
f 174 141 173
f 174 173 168
f 174 168 169
f 175 139 171
f 175 146 139
f 176 172 140
f 176 140 147
f 176 147 146
f 176 146 175
f 176 175 171
f 176 171 172
f 178 166 167
f 178 177 166
f 179 166 177
f 179 171 166
f 180 178 167
f 180 167 172
f 180 172 171
f 180 171 179
f 179 177 178
f 179 178 180
