# parsimony mesh: eg10893_monomer (source /Users/eranagmon/code/v2e-molecules/workspace/studies/ecoli-3d/viz/3d/structures/eg10893_monomer.pdb)
# atoms: 2562  voxel: 16 Å  verts: 89  tris: 170
v 41.6933 -18.1007 -28.2059
v 52.1405 -18.3690 -28.4289
v 60.8332 -17.2277 -27.7085
v -4.9906 -3.9976 -28.2012
v -2.3698 -3.9976 -28.2012
v 41.5197 -8.2546 -28.2146
v 51.4660 -8.5119 -28.3913
v 60.8332 -14.0167 -27.7085
v -4.9906 2.0018 -28.2012
v -2.3698 2.0018 -28.2012
v 43.0933 0.3144 -27.4228
v 45.6830 0.3144 -27.4228
v 40.0691 -18.6093 -19.0137
v 52.1405 -20.5427 -19.0137
v 61.5730 -18.1881 -19.0137
v -19.9505 -0.4030 -11.2158
v -10.9381 -3.2804 -17.5350
v 3.4343 -4.7647 -18.9656
v 20.1405 -4.7130 -14.6522
v 33.8551 -8.6480 -18.7725
v 56.3497 -3.3500 -23.4011
v 61.5612 -8.5119 -18.4461
v -20.1435 7.7454 -11.5351
v -10.9381 7.4992 -19.8948
v 4.8136 8.8005 -19.3603
v 20.1405 4.7765 -14.6522
v 37.1122 1.5095 -18.7725
v 51.4660 0.9114 -18.4461
v 60.5984 0.2696 -12.7344
v -20.1471 16.1355 -11.5068
v -11.8595 18.4437 -13.9635
v 1.3303 18.9530 -14.4537
v -36.5935 -17.2148 4.3677
v -34.1911 -17.2148 4.3677
v 41.1591 -17.5481 -9.0674
v 52.1405 -18.4284 -8.6314
v 61.3577 -17.8595 -9.7836
v -36.8624 -8.2546 4.1387
v -27.0708 -6.9694 -0.9121
v -11.8595 -3.8825 -3.0137
v 3.0591 -3.0726 -3.7206
v 20.1405 -4.7130 -8.0548
v 35.9517 -8.6480 -7.9644
v 52.1405 -8.2546 -7.7668
v 61.3969 -8.2546 -9.7359
v -36.4628 0.4040 4.4747
v -27.3171 6.5405 -1.7206
v 7.2735 9.2576 -3.7206
v 20.1405 4.7765 -8.0548
v 36.1405 1.5238 -8.6618
v 52.1405 0.7762 -10.1491
v 60.5984 0.2696 -10.5400
v -21.1132 17.1439 -3.0137
v -11.8595 21.3276 -3.0137
v 1.4084 19.9291 -3.0137
v -37.8046 -18.1463 12.9863
v -31.7605 -18.1463 12.9863
v -40.2718 -8.2546 12.9863
v -23.7605 -13.0186 12.9863
v -11.8595 -5.7673 12.9863
v -3.1918 -1.0034 12.9863
v -38.3333 6.5405 14.0704
v -26.5906 12.9508 14.7834
v -11.8595 11.1521 18.7018
v -2.2249 6.2193 13.2862
v -36.6929 16.3928 20.1264
v -26.5906 16.8063 14.7834
v -11.8595 18.6293 10.7018
v -2.0254 18.1161 8.1528
v -37.7191 -17.8167 22.5039
v -32.0626 -17.8167 22.5039
v -38.9897 -7.0204 28.2969
v -27.1814 -9.3983 28.2969
v -13.3436 -2.6779 27.4067
v -3.8336 -0.3303 21.0203
v -39.3116 7.7454 28.9863
v -23.5454 11.7734 28.9863
v -13.3436 3.0418 27.4067
v -3.8336 -0.1313 21.0203
v -36.7936 16.4887 28.9863
v -31.5454 16.4887 28.9863
v -36.5306 -0.8642 37.8470
v -27.8595 -0.8812 37.7532
v -19.6663 -0.4804 37.1482
v -36.6718 7.7454 38.1739
v -28.3613 6.7164 38.0335
v -19.6663 0.6971 37.1482
v -36.2715 16.0891 37.7091
v -34.0292 16.0891 37.7091
f 7 1 6
f 7 2 1
f 8 2 7
f 8 3 2
f 9 5 4
f 9 10 5
f 12 6 11
f 12 7 6
f 14 1 2
f 14 13 1
f 3 14 2
f 3 15 14
f 18 4 5
f 18 17 4
f 13 6 1
f 13 20 6
f 8 7 21
f 8 21 22
f 17 9 4
f 17 24 9
f 24 16 23
f 24 17 16
f 18 5 10
f 18 10 25
f 10 9 24
f 10 24 25
f 26 18 25
f 26 19 18
f 27 6 20
f 27 11 6
f 27 19 26
f 27 20 19
f 21 7 12
f 21 12 28
f 12 11 27
f 12 27 28
f 29 21 28
f 29 22 21
f 31 23 30
f 31 24 23
f 32 24 31
f 32 25 24
f 14 35 13
f 14 36 35
f 37 14 15
f 37 36 14
f 38 34 33
f 38 39 34
f 40 16 17
f 40 39 16
f 41 17 18
f 41 40 17
f 42 18 19
f 42 41 18
f 35 20 13
f 35 43 20
f 43 19 20
f 43 42 19
f 44 43 35
f 44 35 36
f 44 36 37
f 44 37 45
f 47 16 39
f 47 23 16
f 46 39 38
f 46 47 39
f 26 25 48
f 26 48 49
f 49 48 41
f 49 41 42
f 50 27 26
f 50 26 49
f 50 49 42
f 50 42 43
f 51 28 27
f 51 27 50
f 50 43 44
f 50 44 51
f 29 28 51
f 29 51 52
f 52 51 44
f 52 44 45
f 53 23 47
f 53 30 23
f 54 31 30
f 54 30 53
f 48 25 32
f 48 32 55
f 55 32 31
f 55 31 54
f 34 56 33
f 34 57 56
f 58 33 56
f 58 38 33
f 59 57 34
f 59 34 39
f 60 39 40
f 60 59 39
f 61 40 41
f 61 60 40
f 58 46 38
f 58 62 46
f 63 47 46
f 63 46 62
f 65 61 41
f 65 41 48
f 63 53 47
f 63 67 53
f 66 63 62
f 66 67 63
f 68 54 53
f 68 53 67
f 67 63 64
f 67 64 68
f 69 65 48
f 69 48 55
f 69 55 54
f 69 54 68
f 68 64 65
f 68 65 69
f 71 56 57
f 71 70 56
f 70 58 56
f 70 72 58
f 71 57 59
f 71 59 73
f 72 70 71
f 72 71 73
f 74 59 60
f 74 73 59
f 75 60 61
f 75 74 60
f 72 62 58
f 72 76 62
f 64 63 77
f 64 77 78
f 79 75 61
f 79 61 65
f 79 65 64
f 79 64 78
f 79 78 74
f 79 74 75
f 76 66 62
f 76 80 66
f 77 63 67
f 77 67 81
f 81 67 66
f 81 66 80
f 83 72 73
f 83 82 72
f 84 73 74
f 84 83 73
f 82 76 72
f 82 85 76
f 86 85 82
f 86 82 83
f 87 84 74
f 87 74 78
f 87 78 77
f 87 77 86
f 87 86 83
f 87 83 84
f 88 76 85
f 88 80 76
f 86 77 81
f 86 81 89
f 89 81 80
f 89 80 88
f 89 88 85
f 89 85 86
