# parsimony mesh: eg10666_monomer (source /Users/eranagmon/code/v2e-abund/workspace/studies/ecoli-3d/viz/3d/structures/eg10666_monomer.pdb)
# atoms: 1106  voxel: 8 Å  verts: 121  tris: 240
v -6.5112 -0.7610 -23.8316
v -1.7956 -1.0429 -23.8773
v 2.7423 -0.6072 -23.3968
v -6.5112 1.0685 -23.8316
v -1.7956 1.5367 -23.8773
v 2.7423 1.0028 -23.3968
v -6.8984 -2.2815 -19.0881
v -1.7956 -4.3016 -19.0881
v 5.7271 -2.3212 -18.6470
v 10.8785 -1.1975 -15.6863
v -6.8984 2.5316 -19.0881
v -1.9390 5.8136 -18.4743
v 5.5552 4.1071 -18.2091
v 10.8785 1.8782 -15.6863
v 0.6321 8.1700 -15.3985
v 3.0348 8.1700 -15.3985
v -7.3214 -8.4428 -9.3921
v -1.7956 -9.4041 -10.2846
v 6.2044 -9.8909 -9.8608
v 12.0518 -9.0919 -8.8271
v -15.6581 -1.9590 -8.3553
v -9.6026 -4.7755 -11.5404
v -1.7956 -7.2253 -14.2846
v 6.2044 -6.4294 -13.8608
v 14.1318 -3.6992 -10.8155
v 18.4329 -0.8676 -7.4706
v -16.1613 4.0335 -8.6701
v -9.4485 4.6110 -12.9577
v -4.7013 7.6626 -14.7614
v 8.3682 7.2115 -14.5959
v 13.9876 3.9710 -11.0332
v 18.4329 0.7305 -7.4706
v -15.0873 8.7399 -7.9302
v -9.7956 9.0654 -9.4747
v -1.9390 9.3758 -11.6921
v 5.9027 9.8554 -11.5927
v 11.7634 9.5023 -9.2625
v 1.9182 -16.0049 0.6961
v 2.4389 -16.0049 0.6961
v -14.5024 -8.4933 -0.7702
v -9.9111 -9.6126 -3.2974
v -1.1673 -13.3608 -2.4175
v 5.5451 -13.6698 -2.4175
v 13.5131 -10.0153 -3.0881
v -15.9769 -4.3620 -3.2974
v -12.6548 -7.2923 -6.1035
v 17.5131 -6.5812 -3.0881
v 19.1556 -2.5812 -3.0881
v -22.1733 7.5058 0.1300
v -19.5279 4.5169 -2.7572
v 16.5678 5.9223 -3.0881
v 19.1556 1.9223 -3.0881
v -22.1733 8.3339 0.1300
v -17.7706 9.1749 -2.7572
v -9.7956 10.7678 -3.0881
v -1.8951 13.3185 -3.0116
v 6.2044 14.2086 -4.8843
v 12.7241 12.1148 -3.0016
v 0.7052 16.4824 -0.2939
v 6.2044 16.9027 -0.8843
v 11.2528 16.7435 -0.2772
v -6.2511 -16.2613 7.7553
v -1.4713 -16.1331 4.4377
v 2.4389 -16.0049 1.1201
v -14.7795 -8.9597 4.9119
v -9.2689 -13.0053 5.0179
v -1.4713 -15.0016 4.4377
v 6.0150 -12.2679 4.6545
v 12.7686 -9.5727 2.8556
v -16.6498 -3.9665 4.9119
v 9.5912 -7.2508 8.1889
v 15.4207 -4.9012 5.8306
v 19.2442 -2.5517 3.4722
v -22.1733 7.5058 2.9915
v -19.5024 4.5169 5.3597
v 15.9300 4.3263 5.6481
v 19.2442 1.8549 3.4722
v -22.1733 8.3339 2.9915
v -18.0062 8.8470 5.3597
v -9.7956 10.0068 4.9119
v -1.8951 12.8300 4.7410
v 4.2376 14.4520 7.2937
v 12.5093 12.0335 4.9119
v 0.7052 16.4824 1.9604
v 6.6243 16.9688 4.7410
v 11.2535 16.8660 4.9119
v -6.1416 -16.1890 12.9119
v -5.0889 -16.1890 12.9119
v -14.5053 -9.1054 12.9119
v -10.1416 -13.1054 12.9119
v -1.0889 -14.1684 12.9119
v 4.8988 -10.1684 12.9119
v -15.8209 -3.9665 12.9119
v 0.6908 -0.8318 16.1194
v 6.6673 -4.0413 13.1487
v 12.7394 -1.9174 10.1779
v -15.8586 3.6981 12.3941
v -9.7956 4.9241 13.4672
v -1.9038 3.4814 13.7637
v 6.2044 4.0335 11.7613
v 12.1673 4.0335 9.8991
v -15.4798 8.1934 9.3823
v -9.7956 8.3045 9.4672
v -1.7956 8.9985 9.5710
v 6.6243 11.8846 9.4364
v 10.5289 12.0335 9.1110
v 9.5709 16.4335 9.1271
v 10.5549 16.4335 9.1271
v -5.8015 -15.9684 16.9140
v -5.7881 -15.9684 16.9140
v -14.1368 -8.6876 17.3261
v -8.9992 -11.5991 17.7232
v -2.5911 -11.9301 17.8199
v 3.7434 -9.2391 17.4873
v -14.2964 -3.9665 17.4764
v -9.7956 -3.9665 18.4649
v -1.9038 -3.6857 18.0479
v 3.7434 -6.1651 17.4873
v -14.1222 0.8078 17.2505
v -9.7956 0.9241 17.4524
v -4.6425 0.4467 17.2941
f 4 2 1
f 4 5 2
f 6 2 5
f 6 3 2
f 2 7 1
f 2 8 7
f 3 8 2
f 3 9 8
f 11 1 7
f 11 4 1
f 5 4 11
f 5 11 12
f 9 3 6
f 9 6 13
f 6 5 12
f 6 12 13
f 14 9 13
f 14 10 9
f 16 12 15
f 16 13 12
f 23 7 8
f 23 22 7
f 23 17 22
f 23 18 17
f 24 8 9
f 24 23 8
f 24 18 23
f 24 19 18
f 10 24 9
f 10 25 24
f 24 20 19
f 24 25 20
f 28 7 22
f 28 11 7
f 28 21 27
f 28 22 21
f 29 12 11
f 29 11 28
f 31 25 10
f 31 10 14
f 14 13 30
f 14 30 31
f 32 25 31
f 32 26 25
f 34 27 33
f 34 28 27
f 29 15 12
f 29 35 15
f 34 29 28
f 34 35 29
f 30 13 16
f 30 16 36
f 16 15 35
f 16 35 36
f 37 30 36
f 37 31 30
f 42 17 18
f 42 41 17
f 19 42 18
f 19 43 42
f 43 38 42
f 43 39 38
f 44 19 20
f 44 43 19
f 46 17 41
f 46 22 17
f 46 21 22
f 46 45 21
f 46 40 45
f 46 41 40
f 47 44 20
f 47 20 25
f 26 47 25
f 26 48 47
f 50 21 45
f 50 27 21
f 52 48 26
f 52 26 32
f 32 31 51
f 32 51 52
f 54 27 50
f 54 33 27
f 53 50 49
f 53 54 50
f 55 34 33
f 55 33 54
f 56 35 34
f 56 34 55
f 57 36 35
f 57 35 56
f 51 31 37
f 51 37 58
f 37 36 57
f 37 57 58
f 59 57 56
f 59 60 57
f 61 57 60
f 61 58 57
f 64 38 39
f 64 63 38
f 66 40 41
f 66 65 40
f 67 38 63
f 67 42 38
f 42 66 41
f 42 67 66
f 67 62 66
f 67 63 62
f 64 39 43
f 64 43 68
f 67 63 64
f 67 64 68
f 69 43 44
f 69 68 43
f 70 40 65
f 70 45 40
f 69 44 47
f 69 47 72
f 71 68 69
f 71 69 72
f 73 47 48
f 73 72 47
f 70 50 45
f 70 75 50
f 75 49 50
f 75 74 49
f 77 73 48
f 77 48 52
f 77 52 51
f 77 51 76
f 76 72 73
f 76 73 77
f 74 53 49
f 74 78 53
f 79 54 53
f 79 53 78
f 79 78 74
f 79 74 75
f 80 55 54
f 80 54 79
f 81 56 55
f 81 55 80
f 83 76 51
f 83 51 58
f 84 56 81
f 84 59 56
f 60 59 84
f 60 84 85
f 84 81 82
f 84 82 85
f 83 58 61
f 83 61 86
f 61 60 85
f 61 85 86
f 88 62 63
f 88 87 62
f 90 62 87
f 90 66 62
f 90 65 66
f 90 89 65
f 91 88 63
f 91 63 67
f 68 91 67
f 68 92 91
f 93 65 89
f 93 70 65
f 92 68 71
f 92 71 95
f 96 71 72
f 96 95 71
f 97 70 93
f 97 75 70
f 100 99 94
f 100 94 95
f 96 72 76
f 96 76 101
f 100 95 96
f 100 96 101
f 102 75 97
f 102 79 75
f 80 79 102
f 80 102 103
f 102 97 98
f 102 98 103
f 104 81 80
f 104 80 103
f 104 103 98
f 104 98 99
f 82 81 104
f 82 104 105
f 104 99 100
f 104 100 105
f 101 76 83
f 101 83 106
f 106 105 100
f 106 100 101
f 107 82 105
f 107 85 82
f 108 106 83
f 108 83 86
f 86 85 107
f 86 107 108
f 107 105 106
f 107 106 108
f 110 87 88
f 110 109 87
f 109 90 87
f 109 112 90
f 90 111 89
f 90 112 111
f 110 88 91
f 110 91 113
f 113 112 109
f 113 109 110
f 114 91 92
f 114 113 91
f 111 93 89
f 111 115 93
f 116 115 111
f 116 111 112
f 117 116 112
f 117 112 113
f 118 114 92
f 118 92 95
f 118 95 94
f 118 94 117
f 117 113 114
f 117 114 118
f 119 93 115
f 119 97 93
f 98 97 119
f 98 119 120
f 119 115 116
f 119 116 120
f 121 117 94
f 121 94 99
f 121 99 98
f 121 98 120
f 121 120 116
f 121 116 117
