# parsimony mesh: eg10230_monomer (source /Users/eranagmon/code/v2e-abund/workspace/studies/ecoli-3d/viz/3d/structures/eg10230_monomer.pdb)
# atoms: 1226  voxel: 8 Å  verts: 166  tris: 332
v 27.2323 0.8120 -25.8640
v 29.2565 0.8120 -25.8640
v 27.2323 2.1616 -25.8640
v 29.2565 2.1616 -25.8640
v -3.2168 -6.3322 -17.5148
v 0.8557 -6.3830 -17.5460
v 8.8557 -6.8996 -17.8760
v 16.8557 -7.5326 -18.0900
v 24.8557 -8.7731 -18.7220
v 31.2328 -8.6750 -18.7975
v -3.2168 -6.0310 -17.5148
v 0.8557 -5.8449 -17.5460
v 8.7913 -2.8672 -18.3332
v 16.8557 -2.2624 -20.3154
v 24.6817 -2.0177 -22.9029
v 30.8415 -2.0177 -21.4558
v 10.7050 5.7376 -18.5459
v 16.8557 5.7376 -20.3192
v 24.2292 4.7344 -21.2922
v 29.5551 2.2328 -21.4434
v 11.4287 10.1088 -18.0072
v 16.8557 10.1347 -18.0937
v 21.2262 9.8960 -17.7467
v 11.7096 -14.8850 -10.3532
v 14.7662 -14.8850 -10.3532
v -11.9932 -6.8776 -10.0110
v -6.3878 -6.9470 -12.9839
v 0.8557 -7.6275 -13.4434
v 8.9680 -10.6940 -13.1893
v 17.2020 -11.6373 -13.1893
v 24.8557 -10.7100 -13.4434
v 31.7103 -8.5603 -13.4434
v -19.9045 0.7569 -10.2599
v -14.8536 -2.0508 -11.2036
v -6.3878 -2.9236 -14.8405
v 0.8557 -1.8449 -15.7806
v 6.0818 -0.6037 -16.3482
v 26.7428 -0.4938 -11.9136
v 31.4585 -2.8012 -14.1255
v -19.9045 3.2107 -10.2599
v -15.1443 4.5533 -11.2179
v -7.6715 6.3064 -11.8499
v 0.8557 5.7376 -13.9508
v 6.7050 5.7376 -16.1048
v 19.0600 7.7836 -11.6962
v 23.9845 4.8787 -14.4716
v 29.3875 1.9738 -17.2470
v -5.3563 10.4819 -10.3600
v 0.8557 11.0886 -11.6136
v 8.7995 10.9156 -13.8296
v 16.5783 10.3764 -13.9951
v 21.2262 9.8960 -17.0296
v -3.5950 -23.9966 -1.5372
v -2.8946 -23.9966 -1.5372
v -3.5950 -21.8515 -1.5372
v -2.8946 -21.8515 -1.5372
v 11.7096 -14.8850 -8.6487
v 14.7662 -14.8850 -8.6487
v -13.6747 -8.1662 -5.4434
v -7.1443 -9.0598 -5.4434
v 0.4658 -7.6992 -5.3633
v 8.9680 -10.1843 -7.2516
v 17.2020 -10.6211 -7.6021
v 24.8557 -8.1993 -8.5855
v 30.2847 -6.9137 -9.1821
v -20.5713 -0.8432 -5.4434
v -17.6747 -4.8432 -5.4434
v 3.2241 -2.2624 -2.4963
v 8.8557 -2.2624 -4.8646
v 16.8557 -2.2624 -6.8415
v 24.3879 -2.8012 -8.5105
v 30.2847 -5.8271 -9.1821
v -20.5715 5.8215 -4.9541
v -15.1443 8.5533 -7.5978
v -10.6896 9.3522 -9.1315
v 4.6633 2.3245 -1.6474
v 8.3661 5.2897 -3.7078
v 16.5783 5.3652 -8.1389
v 21.4095 2.4503 -9.0325
v -19.6202 10.5828 -1.9612
v -15.1443 11.1164 -3.5978
v -7.6715 11.4315 -6.0562
v 0.8557 12.0808 -5.4434
v 8.3661 10.8351 -5.6558
v 13.7267 10.2727 -8.4642
v -11.9994 -23.0864 5.3127
v -6.6147 -25.0086 2.6103
v -2.1484 -25.0771 2.5566
v -19.7059 -15.1144 4.3474
v -14.8574 -17.9736 3.3637
v -6.6147 -18.8159 0.5101
v -1.8132 -18.8159 2.3775
v -20.3290 -10.2624 3.0327
v -15.8593 -10.6163 -0.5835
v -5.5173 -9.7541 2.5377
v -2.3571 -9.3745 2.8020
v -21.3099 -2.9386 1.8631
v -19.0026 -6.0561 -1.2660
v -3.3480 -6.0897 6.0126
v 1.1013 -2.2495 2.7135
v 5.1498 1.5908 4.7477
v -23.1999 5.7376 2.5566
v 4.6633 2.3245 -0.5857
v 5.9534 5.2897 2.2712
v -21.2564 11.3053 2.5566
v -15.1443 12.8507 2.5566
v -6.3567 14.8254 3.3433
v 0.0676 14.1708 3.3433
v 6.0072 10.4648 2.5566
v -3.1650 17.7452 6.5345
v -3.1244 17.7452 6.5345
v -11.9994 -23.0864 7.3636
v -7.1443 -24.3944 7.9412
v -2.0662 -24.2810 7.5958
v -19.7059 -15.1144 7.2775
v -14.4149 -17.5561 9.9872
v -7.6990 -17.7036 11.6183
v -1.6677 -18.2624 8.2785
v -20.3290 -10.2624 8.2536
v -14.5559 -10.3456 12.3131
v -7.0418 -9.7428 10.8507
v -2.2536 -11.7511 7.8133
v -20.9944 -2.2624 9.2513
v -14.9966 -2.1810 13.1113
v -6.9558 -2.7749 10.9549
v 0.8557 -0.2430 7.9307
v 5.1498 1.5908 6.9236
v -22.5676 5.3152 10.9873
v -17.5648 2.3669 13.9411
v -5.2302 3.4788 13.3551
v 0.8557 4.9298 11.9307
v 6.1573 6.4467 9.9768
v -22.3368 12.5781 10.5566
v -15.1443 14.1664 10.5566
v -6.3567 15.5980 9.9900
v -0.3064 16.5953 10.4274
v 6.4439 13.3771 10.9682
v -3.1650 17.7452 6.9455
v -0.3064 18.0444 10.4274
v 5.6273 18.3436 13.9092
v -11.4970 -14.6644 14.7195
v -10.7355 -14.6644 14.7195
v -11.4970 -13.0678 14.7195
v -10.7355 -13.0678 14.7195
v -12.2315 0.5399 14.7481
v -10.5636 0.5399 14.7481
v -20.8025 8.0152 18.5566
v -15.4748 5.9226 17.9688
v -7.5959 5.9823 15.6672
v 0.8557 8.9298 14.9544
v 5.7130 9.5861 14.7271
v -20.8025 11.7983 18.5566
v -15.6886 12.0164 18.5363
v -7.1443 12.2625 15.8012
v 0.7758 14.3990 17.4885
v 6.4545 13.9415 17.8589
v 2.7359 19.0473 18.5566
v 6.2112 19.0473 18.5566
v -19.4388 9.4784 22.7173
v -18.7180 9.4784 22.7173
v -19.4388 9.9430 22.7173
v -18.7180 9.9430 22.7173
v 4.3733 16.7442 24.9140
v 5.8914 16.7442 24.9140
v 4.3733 18.8779 24.9140
v 5.8914 18.8779 24.9140
f 3 2 1
f 3 4 2
f 11 6 5
f 11 12 6
f 12 7 6
f 12 13 7
f 13 8 7
f 13 14 8
f 14 9 8
f 14 15 9
f 2 15 1
f 2 16 15
f 16 9 15
f 16 10 9
f 17 14 13
f 17 18 14
f 15 3 1
f 15 19 3
f 19 14 18
f 19 15 14
f 20 16 2
f 20 2 4
f 20 4 3
f 20 3 19
f 21 18 17
f 21 22 18
f 23 18 22
f 23 19 18
f 28 5 6
f 28 27 5
f 7 28 6
f 7 29 28
f 8 29 7
f 8 30 29
f 30 24 29
f 30 25 24
f 31 8 9
f 31 30 8
f 10 31 9
f 10 32 31
f 35 5 27
f 35 11 5
f 35 26 34
f 35 27 26
f 36 12 11
f 36 11 35
f 37 13 12
f 37 12 36
f 39 32 10
f 39 10 16
f 41 33 40
f 41 34 33
f 42 34 41
f 42 35 34
f 43 35 42
f 43 36 35
f 37 17 13
f 37 44 17
f 43 37 36
f 43 44 37
f 47 39 16
f 47 16 20
f 47 20 19
f 47 19 46
f 47 46 38
f 47 38 39
f 48 43 42
f 48 49 43
f 44 21 17
f 44 50 21
f 49 44 43
f 49 50 44
f 51 22 21
f 51 21 50
f 46 19 23
f 46 23 52
f 52 23 22
f 52 22 51
f 52 51 45
f 52 45 46
f 55 54 53
f 55 56 54
f 25 57 24
f 25 58 57
f 60 26 27
f 60 59 26
f 61 27 28
f 61 60 27
f 62 24 57
f 62 29 24
f 62 28 29
f 62 61 28
f 63 58 25
f 63 25 30
f 63 62 57
f 63 57 58
f 64 30 31
f 64 63 30
f 65 31 32
f 65 64 31
f 67 26 59
f 67 34 26
f 67 33 34
f 67 66 33
f 69 68 61
f 69 61 62
f 70 69 62
f 70 62 63
f 70 63 64
f 70 64 71
f 72 65 32
f 72 32 39
f 72 39 38
f 72 38 71
f 72 71 64
f 72 64 65
f 66 40 33
f 66 73 40
f 74 41 40
f 74 40 73
f 75 42 41
f 75 41 74
f 76 68 69
f 76 69 77
f 78 77 69
f 78 69 70
f 79 71 38
f 79 38 46
f 79 46 45
f 79 45 78
f 79 78 70
f 79 70 71
f 80 74 73
f 80 81 74
f 75 48 42
f 75 82 48
f 81 75 74
f 81 82 75
f 83 49 48
f 83 48 82
f 84 50 49
f 84 49 83
f 85 78 45
f 85 45 51
f 85 51 50
f 85 50 84
f 85 84 77
f 85 77 78
f 88 53 54
f 88 87 53
f 87 55 53
f 87 91 55
f 91 86 90
f 91 87 86
f 88 54 56
f 88 56 92
f 56 55 91
f 56 91 92
f 94 89 93
f 94 90 89
f 60 94 59
f 60 95 94
f 94 91 90
f 94 95 91
f 96 60 61
f 96 95 60
f 95 92 91
f 95 96 92
f 98 59 94
f 98 67 59
f 98 66 67
f 98 97 66
f 98 93 97
f 98 94 93
f 100 96 61
f 100 61 68
f 99 95 96
f 99 96 100
f 102 66 97
f 102 73 66
f 103 100 68
f 103 68 76
f 104 76 77
f 104 103 76
f 103 101 100
f 103 104 101
f 102 80 73
f 102 105 80
f 106 81 80
f 106 80 105
f 82 81 106
f 82 106 107
f 83 82 107
f 83 107 108
f 109 104 77
f 109 77 84
f 109 84 83
f 109 83 108
f 111 107 110
f 111 108 107
f 113 86 87
f 113 112 86
f 114 87 88
f 114 113 87
f 112 90 86
f 112 116 90
f 90 115 89
f 90 116 115
f 117 116 112
f 117 112 113
f 114 88 92
f 114 92 118
f 118 117 113
f 118 113 114
f 119 89 115
f 119 93 89
f 120 119 115
f 120 115 116
f 122 118 92
f 122 92 96
f 122 96 95
f 122 95 121
f 122 121 117
f 122 117 118
f 119 97 93
f 119 123 97
f 123 119 120
f 123 120 124
f 121 95 99
f 121 99 125
f 125 124 120
f 125 120 121
f 126 99 100
f 126 125 99
f 101 126 100
f 101 127 126
f 123 102 97
f 123 128 102
f 129 128 123
f 129 123 124
f 130 125 126
f 130 126 131
f 127 101 104
f 127 104 132
f 131 126 127
f 131 127 132
f 128 105 102
f 128 133 105
f 134 106 105
f 134 105 133
f 107 106 134
f 107 134 135
f 132 104 109
f 132 109 137
f 137 109 108
f 137 108 136
f 135 110 107
f 135 138 110
f 136 108 111
f 136 111 139
f 111 110 138
f 111 138 139
f 138 135 136
f 138 136 139
f 140 136 139
f 140 137 136
f 117 141 116
f 117 142 141
f 141 120 116
f 141 143 120
f 144 142 117
f 144 117 121
f 144 121 120
f 144 120 143
f 143 141 142
f 143 142 144
f 146 124 125
f 146 145 124
f 145 129 124
f 145 148 129
f 129 147 128
f 129 148 147
f 146 125 130
f 146 130 149
f 149 148 145
f 149 145 146
f 150 130 131
f 150 149 130
f 151 131 132
f 151 150 131
f 147 133 128
f 147 152 133
f 134 133 152
f 134 152 153
f 154 135 134
f 154 134 153
f 153 148 149
f 153 149 154
f 136 135 154
f 136 154 155
f 154 149 150
f 154 150 155
f 151 132 137
f 151 137 156
f 155 150 151
f 155 151 156
f 155 139 136
f 155 157 139
f 156 137 140
f 156 140 158
f 140 139 157
f 140 157 158
f 160 147 148
f 160 159 147
f 161 147 159
f 161 152 147
f 160 148 153
f 160 153 162
f 162 153 152
f 162 152 161
f 161 159 160
f 161 160 162
f 156 163 155
f 156 164 163
f 163 157 155
f 163 165 157
f 164 156 158
f 164 158 166
f 158 157 165
f 158 165 166
f 165 163 164
f 165 164 166
