# parsimony mesh: eg11037_monomer (source /Users/eranagmon/code/v2e-molecules/workspace/studies/ecoli-3d/viz/3d/structures/eg11037_monomer.pdb)
# atoms: 3044  voxel: 16 Å  verts: 68  tris: 132
v -23.5266 -15.7441 -21.1922
v -14.8321 -15.9216 -21.1702
v 1.1679 -16.4536 -21.8085
v 10.9835 -16.4534 -22.0433
v -23.5266 -13.1661 -21.1922
v -14.5766 -7.4812 -21.6962
v 1.1679 -6.9538 -24.7764
v 16.6573 -5.7174 -23.3017
v 25.6923 0.4401 -20.7691
v -8.7049 9.0462 -21.2528
v -0.0478 9.1329 -22.7016
v 17.1679 5.0317 -22.7010
v 25.6923 3.5490 -20.7691
v -7.0883 17.2543 -20.4037
v -6.1916 17.2543 -20.4037
v -24.7161 -16.7276 -12.2127
v -14.8321 -19.0261 -12.2127
v 1.1679 -19.6648 -12.2127
v 12.7548 -17.3663 -12.2127
v -25.5001 -7.4812 -11.9990
v -19.7396 -2.4994 -17.1899
v 20.7548 -9.4011 -12.2127
v 26.7982 -1.4011 -12.2127
v -24.7667 2.8636 -6.5232
v -15.4568 8.5366 -11.9990
v 4.4750 14.5240 -17.0114
v 17.2249 12.5024 -11.8919
v 26.7982 5.2581 -12.2127
v -7.9323 17.7709 -12.2127
v -0.0478 18.1178 -11.8919
v 11.9296 17.8658 -6.3447
v -24.9356 -16.8729 3.7873
v -14.8321 -20.1745 3.7873
v 0.8478 -18.6254 3.7133
v 12.1348 -16.6709 -1.6694
v -27.5686 -6.9538 3.7873
v 5.9677 -11.8741 8.9973
v 17.4008 -6.7425 3.7994
v 26.8173 -1.6109 -1.3985
v -25.4650 3.9469 3.7873
v -16.5210 11.9469 3.7873
v 20.8887 9.3140 3.8758
v 26.8173 4.1592 -1.3985
v -8.5210 18.0111 3.7873
v 1.1679 19.8578 3.7873
v 13.6947 18.8929 3.7873
v -23.8193 -15.9378 13.2144
v -14.8321 -17.0700 14.2838
v -4.6989 -16.7915 13.6889
v -24.7544 -6.9538 14.3404
v -14.4255 -6.7194 21.3707
v 0.8478 -8.5613 19.3282
v 11.8449 -1.2563 19.7873
v -24.4080 3.0965 13.7643
v -13.6806 10.0176 20.6406
v -6.7261 16.9388 27.5168
v 15.4715 9.0462 19.7873
v -7.8733 17.5747 16.8501
v -0.3685 19.3093 21.2250
v 12.7945 19.4787 19.7873
v -8.8212 -1.2297 29.4463
v 1.1679 -1.2730 29.7504
v 9.9050 0.2299 28.7458
v -8.8212 6.2721 29.4463
v -0.3685 10.5817 30.5580
v 10.8918 9.0462 30.0065
v 3.9406 18.6470 29.7878
v 10.7293 18.6470 29.7878
f 5 2 1
f 5 6 2
f 6 3 2
f 6 7 3
f 7 4 3
f 7 8 4
f 10 7 6
f 10 11 7
f 12 7 11
f 12 8 7
f 12 9 8
f 12 13 9
f 15 10 14
f 15 11 10
f 17 1 2
f 17 16 1
f 18 2 3
f 18 17 2
f 4 18 3
f 4 19 18
f 16 5 1
f 16 20 5
f 21 6 5
f 21 5 20
f 22 19 4
f 22 4 8
f 9 22 8
f 9 23 22
f 21 10 6
f 21 25 10
f 24 21 20
f 24 25 21
f 12 11 26
f 12 26 27
f 28 23 9
f 28 9 13
f 28 13 12
f 28 12 27
f 29 10 25
f 29 14 10
f 26 11 15
f 26 15 30
f 15 14 29
f 15 29 30
f 31 26 30
f 31 27 26
f 17 32 16
f 17 33 32
f 34 17 18
f 34 33 17
f 35 18 19
f 35 34 18
f 32 20 16
f 32 36 20
f 35 19 22
f 35 22 38
f 37 34 35
f 37 35 38
f 39 22 23
f 39 38 22
f 36 24 20
f 36 40 24
f 41 25 24
f 41 24 40
f 43 39 23
f 43 23 28
f 43 28 27
f 43 27 42
f 42 38 39
f 42 39 43
f 41 29 25
f 41 44 29
f 30 29 44
f 30 44 45
f 42 27 31
f 42 31 46
f 31 30 45
f 31 45 46
f 33 47 32
f 33 48 47
f 49 33 34
f 49 48 33
f 47 36 32
f 47 50 36
f 50 47 48
f 50 48 51
f 49 34 37
f 49 37 52
f 51 48 49
f 51 49 52
f 53 37 38
f 53 52 37
f 54 36 50
f 54 40 36
f 41 40 54
f 41 54 55
f 54 50 51
f 54 51 55
f 53 38 42
f 53 42 57
f 58 41 55
f 58 44 41
f 45 44 58
f 45 58 59
f 58 55 56
f 58 56 59
f 57 42 46
f 57 46 60
f 60 46 45
f 60 45 59
f 52 61 51
f 52 62 61
f 53 62 52
f 53 63 62
f 61 55 51
f 61 64 55
f 56 55 64
f 56 64 65
f 64 61 62
f 64 62 65
f 63 53 57
f 63 57 66
f 66 65 62
f 66 62 63
f 67 56 65
f 67 59 56
f 68 66 57
f 68 57 60
f 60 59 67
f 60 67 68
f 67 65 66
f 67 66 68
