# parsimony mesh: eg11036_monomer (source /Users/eranagmon/code/v2e-molecules/workspace/studies/ecoli-3d/viz/3d/structures/eg11036_monomer.pdb)
# atoms: 3042  voxel: 4 Å  verts: 1125  tris: 2276
v 0.4542 -0.2980 -28.4263
v 3.2824 -0.2118 -28.4074
v 5.5355 0.4274 -28.1490
v -2.7901 4.3358 -28.0968
v -0.8145 2.8486 -28.5054
v 3.2824 2.6177 -28.7111
v 5.8204 2.6177 -28.1761
v 12.3416 3.7324 -28.4518
v 15.2824 3.8954 -28.3781
v 17.3295 4.5400 -28.0846
v -2.7901 4.7128 -28.0968
v -0.7176 5.2544 -28.3362
v 3.2645 6.6700 -28.4501
v 7.1610 6.4964 -28.4078
v 11.1179 6.4964 -28.5191
v 15.0516 6.2597 -28.3819
v 17.3295 4.6876 -28.0846
v 4.5859 8.8413 -28.3130
v 7.2824 8.9693 -28.4455
v 11.2824 8.9540 -28.3342
v 13.5644 8.8208 -28.1647
v -3.5509 -7.9656 -24.5115
v -2.0542 -7.9656 -24.5115
v -14.7440 -3.4179 -24.0728
v -14.4062 -3.4179 -24.0728
v -7.7451 -4.1457 -24.3221
v -4.8175 -5.4403 -24.9939
v -0.7196 -5.4442 -25.4430
v 3.2824 -4.0855 -24.9522
v 7.2824 -3.6388 -24.3155
v 10.0464 -3.5566 -24.2216
v -15.1932 -1.3823 -24.2333
v -14.2087 -1.3823 -24.2333
v -7.7451 -2.6792 -24.3221
v -4.6282 -1.3604 -25.0751
v -0.8145 -1.5317 -27.1242
v 3.2824 -2.2118 -26.9522
v 7.0342 -1.0965 -26.2387
v 11.3408 -1.6768 -25.1794
v 15.2824 -0.7146 -25.2774
v 19.2824 -0.1231 -24.7855
v 21.6175 0.2488 -24.4766
v -15.3253 1.1028 -24.2705
v -14.3504 1.1028 -24.2705
v -3.4196 2.8486 -26.0074
v -2.2125 1.6691 -27.3135
v 7.8204 2.6177 -27.3256
v 11.1179 2.4865 -27.3206
v 15.2824 1.8954 -27.2774
v 18.9107 2.9711 -26.2778
v 21.5652 2.6177 -24.4191
v -3.4204 6.2748 -25.8831
v -0.7176 7.2544 -26.8216
v 1.9192 8.0382 -27.3548
v 8.4134 5.0822 -27.7902
v 9.6749 5.0822 -27.7902
v 16.2311 7.3543 -27.3223
v 19.0782 6.0887 -25.7184
v 21.3244 4.8232 -24.1145
v -3.2366 9.0306 -24.4396
v -0.7176 9.1354 -24.8216
v 3.2645 9.0864 -26.0322
v 7.2824 9.4942 -26.0483
v 11.3359 10.7385 -25.8919
v 15.0076 10.3432 -25.8883
v 18.1603 9.1989 -24.6556
v 12.7048 12.9618 -24.4543
v 13.7842 12.9618 -24.4543
v -11.2678 -7.6213 -20.3837
v -8.7176 -7.8650 -20.8306
v -4.8175 -8.3651 -22.0729
v -0.7196 -8.6418 -22.0588
v 3.2824 -8.9036 -21.0358
v 7.2824 -8.5173 -20.6605
v 11.2824 -8.0154 -20.4509
v 13.9750 -7.8758 -20.4014
v -15.1778 -4.1171 -22.0483
v -12.8370 -5.2055 -22.1035
v -8.9341 -5.4403 -22.9392
v -6.2175 -6.8124 -23.4226
v 0.6124 -6.8188 -23.3992
v 3.2824 -6.0855 -23.0358
v 7.2824 -5.6388 -22.6605
v 11.3408 -5.0869 -22.5020
v 15.2980 -5.4649 -21.2325
v 17.8120 -4.1866 -20.7830
v -16.3551 -1.3823 -22.0483
v -12.1556 -1.2644 -22.3134
v -8.9709 -1.2658 -22.3236
v -5.9020 -0.0125 -23.4904
v 12.7130 -3.2065 -23.6009
v 15.2824 -2.7146 -23.2638
v 19.2001 -1.6766 -22.0891
v 21.6291 0.2140 -22.0483
v -19.4594 3.9480 -20.6812
v -16.6363 2.7791 -21.4624
v -13.7486 1.9025 -22.0483
v -7.5299 1.6154 -20.8237
v -5.0964 2.8163 -22.1135
v 22.0019 2.6177 -22.0483
v -19.3286 6.6177 -20.5617
v -16.4620 6.3087 -20.7841
v -13.7591 7.4360 -20.5901
v -4.3902 6.6177 -22.0483
v 20.8270 7.4899 -23.3514
v 21.7418 6.3410 -22.0302
v -22.8639 12.4102 -20.2386
v -20.3613 10.8932 -20.2933
v -16.7176 10.6177 -20.8370
v -13.8766 10.6177 -20.6736
v -3.5919 10.4654 -21.6516
v -0.7176 11.1354 -22.2587
v 3.6663 11.3473 -21.8133
v 6.9096 11.4326 -21.8271
v 10.0382 11.7039 -23.0129
v 16.4509 11.8656 -23.3253
v 19.4092 10.5664 -22.4674
v 21.5524 10.6177 -20.6145
v -22.8639 13.7073 -20.2386
v -21.0529 14.8714 -20.5309
v -16.5423 14.5284 -20.5918
v -14.5549 13.1355 -20.3402
v -2.7250 12.6210 -20.0538
v -0.7176 12.8196 -20.2587
v 2.5889 12.8836 -20.3233
v 7.9944 12.7362 -20.3462
v 11.3359 13.1709 -21.8271
v 15.1835 13.5269 -22.0145
v 19.2824 13.2287 -20.5949
v 21.3739 12.7205 -20.1667
v -19.7886 18.6177 -20.5200
v -16.5423 18.4558 -20.7871
v -14.3642 19.6812 -20.6508
v -18.9200 20.7255 -20.2295
v -16.7176 20.9701 -20.6361
v -14.3642 20.9798 -20.6508
v -7.7446 -11.7056 -16.4104
v -4.7176 -11.8412 -16.6326
v -0.7176 -12.2355 -17.0847
v 3.2824 -12.5699 -17.6106
v 7.2824 -12.3114 -17.4308
v 10.4460 -11.8866 -16.7736
v -11.3351 -8.2198 -18.0483
v -8.9338 -9.8950 -17.8656
v -4.7176 -10.1733 -18.6326
v -0.7176 -10.5192 -19.0847
v 3.2824 -10.9036 -19.6106
v 7.2824 -10.5173 -19.4308
v 11.5805 -10.1456 -18.0835
v 14.4583 -8.5734 -18.0483
v 20.7858 -7.5174 -16.1657
v 23.2824 -8.3611 -16.6399
v 27.2824 -8.6474 -16.7863
v 29.7345 -7.8991 -16.3608
v -16.0881 -4.6619 -18.0483
v -13.3351 -6.6619 -18.0483
v 16.4583 -6.7338 -18.0483
v 19.2989 -5.6166 -17.6034
v 23.2824 -5.3823 -17.3446
v 27.2824 -5.3823 -17.5062
v 30.0017 -5.3823 -16.5426
v -23.1190 0.3657 -16.4674
v -20.7176 -0.0909 -16.5628
v -17.9912 -1.3980 -17.8085
v -11.1261 0.1475 -19.2969
v -10.1966 0.1475 -19.2969
v 20.4786 -2.2184 -19.0411
v 22.9587 -1.0839 -18.3449
v 27.2824 -1.3823 -17.5051
v 30.2783 -1.3823 -16.8790
v -23.2025 2.6177 -16.8642
v -20.7626 2.6158 -18.4612
v -16.6523 2.8968 -19.4662
v -12.5627 2.9545 -18.9858
v -8.8050 2.8163 -18.6866
v -5.5849 4.2821 -19.4519
v 23.7191 2.6177 -18.5945
v 27.2824 2.6177 -17.9020
v 30.3270 2.6177 -17.3558
v -22.9627 5.2342 -16.7171
v -21.3497 6.5876 -18.0496
v -14.9582 4.7693 -19.9505
v -12.5425 6.3087 -19.1524
v -8.7176 6.6177 -17.9377
v -5.5661 6.6177 -18.9842
v 23.8251 6.6177 -18.6498
v 27.0641 6.4497 -17.1189
v 29.8543 5.0044 -17.0306
v -22.8639 12.4102 -19.4004
v -21.5143 10.8932 -18.0596
v -15.0631 12.1887 -16.9183
v -12.8236 10.5956 -18.2464
v -8.7176 9.3169 -17.0762
v -5.2933 10.5461 -17.9549
v 5.2556 12.6094 -20.0268
v 5.3278 12.6094 -20.0268
v 13.2254 12.5758 -16.0984
v 13.3375 12.5758 -16.0984
v 20.5701 11.8903 -17.1217
v 22.7958 10.4077 -18.0659
v 25.5852 8.9251 -16.3435
v -22.8639 13.7073 -19.4004
v -21.9231 14.8714 -18.0596
v -15.7993 14.5284 -18.1703
v -14.5549 13.1355 -19.5850
v -3.2392 13.4000 -18.0483
v -1.0204 15.0031 -17.9247
v 3.6663 14.3772 -18.9097
v 6.8168 14.2253 -18.2024
v 11.6482 13.2224 -17.6784
v 14.9155 13.6194 -17.6784
v 19.2550 13.4056 -18.2923
v 21.3739 12.7205 -19.7883
v -19.8349 18.4497 -18.2942
v -16.7796 18.3428 -18.4119
v -14.3642 19.6812 -19.6991
v 0.1111 17.2285 -16.5090
v 3.2824 17.5053 -16.6412
v 5.6392 17.1904 -16.3781
v -18.9200 20.7255 -19.7914
v -16.7176 20.9701 -19.5937
v -14.3642 20.9798 -19.6991
v 13.2362 -19.4104 -12.0674
v 13.3150 -19.4104 -12.0674
v -3.2759 -15.5723 -12.3127
v -1.6294 -15.5723 -12.3127
v 8.4086 -15.7038 -12.3322
v 11.6547 -17.1752 -12.3059
v 13.6958 -17.3823 -12.1574
v -8.1182 -12.2449 -14.0483
v -4.6526 -13.8455 -13.8070
v -0.4647 -14.4216 -13.8070
v 3.2824 -14.3283 -14.0483
v 7.1581 -14.3756 -13.8186
v 11.5805 -13.2849 -14.5838
v 15.1936 -13.5059 -13.0451
v 18.1791 -12.2550 -12.4344
v -19.3098 -7.8314 -12.5803
v -18.1398 -7.8314 -12.5803
v -10.9907 -8.2599 -15.7363
v -9.7432 -9.5089 -14.2611
v 13.1126 -11.1437 -15.8638
v 15.4076 -9.6391 -15.1231
v 19.4824 -9.2671 -14.0362
v 23.2824 -10.0714 -14.0483
v 27.2824 -10.6246 -14.0483
v 31.1537 -8.8437 -14.0800
v 33.9994 -7.9775 -12.7677
v -22.9024 -3.7811 -12.2172
v -20.6729 -5.2216 -13.1701
v -17.0488 -5.4795 -14.2320
v -12.4814 -6.3028 -14.2611
v -9.8927 -6.7221 -13.0697
v 16.8244 -7.0467 -15.6380
v 18.1191 -7.0467 -15.6380
v 32.0017 -5.3823 -15.0368
v 34.0577 -5.3823 -13.0368
v -23.4599 -1.1335 -13.7497
v -20.7176 -2.0909 -15.0515
v -18.6244 -2.7417 -15.8836
v 32.0464 -1.2998 -14.0075
v 33.5992 -2.5781 -12.6469
v -23.8674 2.6177 -14.0483
v 28.7000 3.8239 -12.6969
v 30.4853 2.5414 -14.0374
v -23.0144 6.5876 -13.7052
v -22.2899 7.9009 -14.8098
v 16.6849 8.1646 -12.7530
v 19.2824 8.2630 -12.6022
v 21.3009 8.5978 -12.0821
v 27.8964 6.4497 -14.0374
v 29.8543 5.0044 -15.3635
v -22.7315 8.6529 -12.1432
v -21.7627 10.2388 -13.7052
v -15.0631 12.1887 -15.5076
v -12.7176 11.5846 -15.1007
v -8.5006 11.0332 -14.0146
v -4.7304 11.2639 -13.9880
v -2.2258 12.0538 -12.6145
v 12.7841 12.2238 -14.0483
v 15.0112 11.0217 -14.0519
v 19.2550 10.5813 -14.4730
v 22.8935 9.8680 -13.6686
v 25.9867 9.7262 -14.0483
v -19.8798 14.5794 -14.1778
v -16.7651 14.4868 -14.2193
v -12.5985 14.4989 -13.0697
v -8.5006 14.8448 -12.6373
v -4.9864 14.9935 -13.7008
v -2.0519 14.8416 -13.9880
v 8.4939 15.7782 -14.0483
v 10.7841 13.7782 -14.0483
v 16.0042 13.1161 -15.3509
v 17.9034 13.1161 -15.3509
v -19.1517 17.0043 -15.5975
v -18.4671 17.0043 -15.5975
v -11.1857 16.8638 -12.3474
v -8.7176 16.8363 -12.3267
v -6.5672 16.6631 -12.1204
v -0.2543 17.7338 -14.0483
v 3.2630 19.4542 -14.0644
v 6.4885 18.5613 -14.0644
v 4.5834 20.9627 -12.7419
v 5.6772 20.9627 -12.7419
v 12.7514 -19.5671 -10.0483
v 14.9020 -19.5445 -9.6691
v 17.3124 -19.4064 -8.0830
v -10.8924 -15.7600 -8.1827
v -8.7176 -16.3326 -8.5696
v -4.6417 -15.9219 -9.9747
v -0.6342 -15.7027 -10.2929
v 2.3044 -15.8330 -9.2453
v 7.8994 -16.2542 -10.0483
v 10.7514 -18.2542 -10.0483
v 15.6958 -17.3823 -10.7565
v 17.7863 -17.3823 -8.7565
v -19.0989 -12.6414 -8.5108
v -16.7176 -12.3694 -8.4318
v -12.4224 -13.0166 -8.6160
v -8.8219 -13.4784 -10.5231
v -4.6417 -14.5578 -9.9747
v -0.6342 -14.7750 -10.2929
v 3.4956 -14.9707 -10.3665
v 5.8994 -14.9219 -10.0483
v 16.4677 -14.9217 -11.6245
v 19.3850 -13.3694 -10.2017
v 23.2824 -12.3092 -9.5629
v 25.7891 -12.1834 -9.3372
v -23.2726 -7.5386 -8.3375
v -20.5377 -9.0183 -9.7575
v -16.7709 -9.2518 -10.2850
v -12.7176 -9.3823 -9.5948
v -9.7293 -9.3823 -11.1458
v 20.8457 -11.0168 -11.4456
v 23.2824 -11.0926 -11.5629
v 27.1864 -10.7597 -10.4216
v 31.0454 -8.7292 -10.1075
v 33.9994 -7.9775 -11.4802
v -26.9239 -4.2285 -8.3187
v -24.4208 -5.3381 -9.6614
v -21.9765 -6.4478 -11.0042
v -15.4731 -6.8146 -11.2648
v -12.7176 -6.4614 -10.9859
v -9.8927 -6.7221 -11.4153
v 31.8221 -5.3823 -9.2709
v 34.0577 -5.3823 -11.2709
v -26.9365 -1.3823 -8.3683
v -25.3444 -1.3823 -10.3683
v 31.6035 -1.2998 -10.1672
v 33.5992 -2.5781 -11.5798
v -26.9504 2.6177 -8.3823
v -25.3824 2.6177 -10.3823
v 28.1912 3.1447 -10.0483
v 29.8478 1.1447 -10.0483
v -26.9424 5.1655 -8.3373
v -24.7065 6.5464 -9.8217
v -11.5463 7.7741 -8.5854
v -8.7176 7.5737 -9.1381
v -6.4102 8.0693 -8.9643
v 16.6849 8.1646 -11.2247
v 19.6608 8.3243 -9.9542
v 22.8935 8.1678 -9.9945
v 26.3913 6.5893 -9.9945
v -23.0271 8.9268 -10.0483
v -21.5143 10.9268 -10.0483
v -12.3138 10.6177 -8.9198
v -8.5006 10.4738 -10.8951
v -4.9332 9.9341 -10.1979
v -2.0850 11.9430 -10.0483
v 12.2411 11.5188 -10.0483
v 15.3239 9.4746 -9.9542
v 18.5796 8.8444 -8.5581
v 23.9676 9.7882 -11.2920
v 25.9187 9.7882 -11.2920
v -22.8031 16.3295 -8.1267
v -20.5820 14.7750 -9.8054
v -16.5894 14.8950 -10.1099
v -12.9348 14.2141 -10.1382
v -8.5006 14.8448 -11.2003
v -4.8389 16.2799 -10.0383
v -1.9381 14.7852 -9.7922
v 9.2076 16.4017 -11.5635
v 10.1247 14.8881 -10.1574
v -22.8031 16.7479 -8.1267
v -20.7176 17.1790 -8.6840
v -17.8373 17.2360 -8.8176
v -11.1857 16.8638 -11.6032
v -8.7176 16.8363 -11.5195
v -4.8389 16.6907 -10.0383
v -0.5611 18.4400 -9.6638
v 1.9168 20.1616 -11.0394
v 8.2157 18.3198 -10.1574
v 9.4081 16.7879 -8.8968
v 1.1397 20.7620 -8.3727
v 3.2630 21.3301 -9.8430
v 6.0051 21.3999 -10.0483
v 12.6206 -19.6006 -7.6926
v 15.6435 -19.5454 -6.2349
v 17.3330 -19.4224 -6.0483
v -19.1687 -15.6170 -5.2886
v -18.2957 -15.6170 -5.2886
v -10.8924 -15.7600 -7.6829
v -8.7176 -16.3326 -7.4939
v -6.0075 -16.2716 -7.6745
v 0.3609 -15.8330 -7.1962
v 2.3044 -15.8330 -7.1962
v 7.9773 -16.5356 -6.0483
v 11.2853 -18.2715 -6.2349
v 14.5510 -18.6601 -5.0260
v 18.3149 -17.3823 -6.0483
v -19.6553 -13.7378 -6.3925
v -16.8645 -14.1812 -6.3925
v -12.4224 -13.8235 -6.2291
v -8.7917 -13.3800 -5.6091
v -4.6915 -13.0968 -7.2577
v -1.0714 -13.2900 -6.1467
v 3.4956 -14.5162 -5.9370
v 5.9773 -14.5813 -6.0483
v 20.2644 -14.3320 -6.0483
v 23.2824 -13.4318 -6.0483
v 25.8387 -12.4822 -6.0483
v -23.2726 -7.5386 -7.6847
v -21.4850 -9.0761 -6.2301
v -7.5078 -10.4715 -4.7222
v -4.7176 -10.4300 -5.3405
v -2.5036 -11.0233 -5.0973
v 27.8387 -10.0386 -6.0483
v 29.7092 -8.0386 -6.0483
v -27.0928 -4.3221 -6.0483
v -24.6506 -6.1041 -6.2301
v -22.2183 -6.6656 -5.0180
v 28.0740 -4.0261 -4.6768
v 29.8926 -5.3686 -6.0254
v -27.6812 -1.3823 -6.0483
v 27.3800 -1.3823 -5.3914
v 29.7247 -1.3823 -7.3914
v -28.1532 2.6177 -6.0483
v 27.2844 2.3155 -6.3457
v 29.4242 0.7808 -7.8773
v -27.8227 6.5464 -6.0467
v -25.7830 7.8322 -7.3790
v -11.5463 7.7741 -6.9851
v -8.9184 7.1986 -5.8104
v -5.9366 7.4765 -6.0483
v 8.9224 8.3746 -4.2835
v 10.0295 8.3746 -4.2835
v 20.8111 8.1152 -6.0483
v 23.2824 6.7861 -6.0483
v 25.7809 5.2886 -6.0483
v -27.4298 9.1045 -4.7124
v -24.5718 10.3829 -6.1120
v -21.9596 11.6613 -7.5117
v -12.4657 10.4323 -5.8104
v -10.3857 8.9754 -4.3185
v -3.9366 9.7499 -6.0483
v -1.5129 11.7499 -6.0483
v 8.9224 9.1510 -4.2835
v 11.2654 10.3934 -5.5579
v 15.4846 11.3377 -5.7186
v 18.8111 9.7541 -6.0483
v -23.5707 14.8448 -6.1263
v -21.9596 13.6628 -7.5117
v -15.1706 15.3418 -7.3022
v -14.1636 14.2521 -6.0007
v -3.1105 16.2302 -7.5310
v -1.5498 14.7852 -6.1379
v 11.7909 14.6177 -6.2577
v 14.1213 14.6177 -4.2577
v -23.5322 18.2958 -5.9115
v -20.7176 19.1790 -6.7630
v -16.6767 18.4414 -5.9324
v -14.3761 16.9803 -4.6356
v -3.1105 16.7183 -7.5310
v -1.2438 18.2781 -6.1379
v 8.5178 19.4545 -7.2795
v 11.0606 18.2109 -5.7449
v 13.3973 16.9673 -4.2103
v -23.2964 21.1259 -4.4870
v -20.7176 21.8366 -4.7630
v -18.1828 21.7347 -4.5626
v 0.8697 21.2163 -6.0483
v 3.2824 22.2092 -6.0483
v 7.2237 21.8322 -5.9870
v 10.0464 21.3180 -4.6128
v 17.2176 -19.4117 -4.0102
v 17.3199 -19.4117 -4.0102
v -19.1687 -15.6170 -3.2452
v -16.9998 -15.6898 -1.9567
v -13.9921 -15.7626 -0.6681
v 4.9339 -15.6186 -0.5046
v 7.2204 -16.2291 -1.9221
v 11.2824 -17.0213 -2.0483
v 15.6435 -17.7085 -2.4255
v 18.0417 -17.1023 -2.4255
v -19.9965 -13.6277 -1.9665
v -16.9998 -14.9278 -1.9567
v -12.7367 -13.3881 -2.0911
v -10.1745 -12.0451 -3.5140
v 0.1398 -12.3120 -2.0483
v 3.4733 -14.1036 -1.9221
v 5.8457 -14.6782 -3.1713
v 20.2035 -14.5772 -2.0483
v 23.4109 -12.7374 -2.1474
v 25.5174 -12.0477 -3.5468
v -21.4210 -9.3823 -2.0483
v -11.4813 -10.5209 -0.8474
v -8.9029 -9.1629 -2.2649
v -4.7176 -8.4300 -2.9544
v -1.9291 -9.5669 -1.7927
v 21.2409 -7.4545 -0.0952
v 23.4109 -9.0256 -0.6791
v 27.0234 -9.3117 -2.8270
v 29.5799 -7.9314 -3.6750
v -27.0116 -3.7892 -3.3876
v -24.7176 -4.1499 -2.6263
v -22.2476 -5.3523 -1.7071
v -7.4674 -5.3823 -0.7987
v -5.0990 -5.7026 -0.7931
v -2.5465 -7.2495 -0.2890
v 21.2409 -7.2935 -0.0952
v 23.2512 -5.7290 -0.9045
v 26.9574 -5.3686 -3.0523
v 29.5799 -6.6928 -3.6750
v -27.8534 -1.5046 -2.0519
v -24.7176 -2.9831 -0.6263
v -22.6768 -3.3130 -0.1463
v -6.8035 -3.0844 -0.0815
v -6.6867 -3.0844 -0.0815
v 24.3088 -1.3823 -1.9465
v 25.3800 -1.3823 -3.9465
v -29.4791 2.6177 -2.0483
v 24.1522 2.6177 -1.8017
v 25.4392 2.6177 -3.8017
v -31.3500 7.4310 -0.9559
v -29.9947 6.3057 -2.1929
v -7.7190 7.6445 -3.1930
v -5.9837 7.6445 -3.1930
v 8.9224 8.3746 -3.6732
v 10.0295 8.3746 -3.6732
v 20.0811 7.3596 -2.0483
v 23.1259 5.3763 -2.2568
v 25.4862 4.8929 -3.7292
v -31.3500 9.3491 -0.9559
v -28.7449 10.0160 -2.1929
v -25.9815 11.8170 -2.0483
v -11.5029 11.6421 -3.5142
v -8.9184 10.4323 -2.6898
v -4.5394 10.6336 -1.8500
v -1.6166 11.6415 -2.0483
v 8.9224 9.1510 -3.6732
v 10.0295 9.1510 -3.6732
v 16.7903 12.3198 -2.0483
v 18.0811 10.3198 -2.0483
v -24.7761 14.6177 -2.0483
v -12.0504 14.6177 -2.7530
v -9.0117 14.5120 -0.8872
v -5.7617 13.1082 -0.5070
v -0.5426 14.6177 -2.0483
v 15.1290 14.6177 -2.0483
v -23.7005 18.6316 -2.0267
v -21.4238 19.9741 -0.6789
v -16.2326 19.7262 -2.0483
v -12.9127 17.5535 -1.7325
v -10.5411 16.6994 -0.1887
v -0.1493 18.6177 -2.0483
v 12.7131 19.6340 -3.1991
v 13.6530 18.4275 -1.9388
v -23.2964 21.1259 -3.3456
v -20.3413 21.6157 -2.0267
v -18.2326 21.4841 -2.0483
v 0.8226 22.6100 -1.7918
v 3.0834 23.5693 -1.7918
v 7.5717 23.5972 -1.7080
v 11.0340 22.4686 -1.6734
v 13.4484 20.9527 -0.5324
v 1.1904 24.6789 -0.2875
v 1.6174 24.6789 -0.2875
v 9.0979 24.6450 -0.1478
v 9.3550 24.6450 -0.1478
v -15.7039 -15.7626 0.7838
v -13.9921 -15.7626 0.7838
v 4.4369 -15.7870 1.9517
v 7.2824 -16.7517 1.9517
v 11.2824 -16.8591 1.9517
v 15.1972 -15.9120 1.8115
v 17.8431 -15.5823 0.3847
v -20.3141 -12.4238 1.9517
v -16.9094 -14.3254 2.0509
v -13.5477 -13.4922 2.0509
v 0.5641 -12.0641 1.9517
v 2.4369 -14.0641 1.9517
v 16.4737 -14.7430 3.0513
v 19.1544 -13.4435 1.7280
v 22.1632 -12.1440 0.4046
v -26.7306 -7.4098 3.8211
v -24.7176 -8.3314 3.0330
v -22.2489 -9.7251 1.6951
v -11.7994 -10.1089 1.9517
v -9.9646 -8.1089 1.9517
v -1.2981 -9.3823 1.9517
v 20.8533 -8.8544 1.6043
v 21.7809 -8.8544 1.6043
v -26.7306 -7.0273 3.8211
v -25.0565 -5.5693 2.4455
v -22.5046 -5.3823 0.1669
v -7.7667 -5.0255 1.8873
v -5.0990 -4.9229 1.8873
v -2.5798 -7.2540 1.9517
v 21.2118 -5.5249 1.9466
v 21.6478 -5.5249 1.9466
v -28.2859 -0.9718 1.9517
v -25.0565 -3.0123 1.5804
v -22.6768 -3.3130 -0.0004
v -6.8035 -3.0844 0.5111
v -6.6867 -3.0844 0.5111
v 21.1827 -2.8584 3.7559
v 22.1464 -1.4679 2.2342
v -29.7173 2.6177 1.9517
v 21.1649 4.1664 3.7897
v 22.0211 2.7469 2.2545
v -31.3500 7.4310 0.8289
v -29.8997 6.3057 2.0780
v 16.5702 7.9805 3.2149
v 19.3856 6.4540 2.1690
v 21.6882 4.9276 1.1230
v -31.3500 9.3491 0.8289
v -28.6179 10.8729 1.9038
v -26.4265 12.3966 0.3120
v -6.7539 12.5641 3.9013
v -4.5441 11.5942 2.3215
v -1.8528 11.3785 1.9517
v 16.1017 10.8063 1.9096
v 17.6064 9.5987 0.5482
v -27.1231 12.9357 2.9787
v -24.7551 14.4317 1.7962
v -21.6097 15.9276 3.2803
v -7.9527 14.5120 2.3215
v -5.7617 13.1082 1.2346
v 0.2294 14.4762 1.7664
v 1.8843 15.7152 2.9762
v 12.4537 15.8029 3.1462
v 14.3311 14.5288 1.8684
v -23.0836 17.3075 0.6136
v -20.1834 18.3753 1.6282
v -17.0505 19.3823 1.5664
v -12.7176 18.4777 1.9517
v -10.2343 17.1410 1.9517
v 0.9015 18.6177 0.5106
v 2.3409 18.6177 2.5106
v 11.7000 18.6177 2.5593
v 13.6596 18.6177 0.5593
v -18.7571 20.6558 -0.0239
v -18.6057 20.6558 -0.0239
v 1.0134 22.6177 0.2924
v 3.1879 22.5929 1.5122
v 7.5717 23.0126 1.5795
v 10.6781 22.1390 1.4494
v 13.4484 20.9527 0.2340
v 1.1904 24.6789 0.0187
v 1.6174 24.6789 0.0187
v 9.0979 24.6450 -0.0020
v 9.3550 24.6450 -0.0020
v 1.0801 -15.4222 7.7155
v 2.9258 -15.5539 6.0019
v 7.2824 -16.2157 4.6961
v 11.2824 -16.2009 4.6945
v 13.8071 -15.6659 4.2863
v -19.8962 -11.6954 4.5584
v -16.5198 -12.1354 5.9157
v -14.0138 -12.0889 5.9517
v -6.9003 -11.5935 7.8797
v -4.7176 -12.2736 7.1726
v -0.4289 -13.5179 6.0168
v 2.9258 -14.5948 6.0019
v 7.4175 -13.2610 6.6403
v 11.2824 -13.3823 6.2447
v 14.9456 -13.2349 6.0749
v 17.9455 -12.1612 5.9517
v -26.7306 -7.4098 4.0610
v -24.9038 -8.4958 5.6173
v -21.0248 -10.4932 5.9157
v -17.7214 -10.7387 7.2250
v -12.0138 -10.1439 5.9517
v -8.5167 -9.2233 6.2275
v -4.7176 -9.3823 5.6581
v -2.1233 -9.3823 4.2444
v 8.8409 -11.0147 7.4402
v 11.2824 -10.9744 7.5019
v 13.4175 -11.2061 7.8635
v 19.4746 -9.1055 5.6874
v 21.3985 -7.5877 4.1779
v -27.0531 -5.7202 5.3846
v -26.4885 -5.7202 5.3846
v -7.4665 -6.1210 4.5754
v -3.8669 -5.1235 5.9236
v -1.5693 -5.2057 6.1620
v 1.4063 -3.6461 7.7983
v 9.2646 -3.4040 7.9268
v 11.2824 -3.5642 7.8573
v 15.2824 -4.2917 7.6783
v 19.2840 -5.3985 5.9330
v 21.3985 -6.4230 4.1779
v -30.7429 0.5573 7.5838
v -28.9754 -1.3703 5.8127
v -26.6158 -3.2979 4.0415
v -2.7326 -3.2836 7.9054
v -0.7176 -3.1524 7.8019
v 1.4063 -3.1745 7.7983
v 9.2646 -3.3629 7.9268
v 11.2824 -3.1815 7.8573
v 15.5826 -1.6333 7.6966
v 19.6226 -1.4679 5.4540
v 21.3539 -0.1917 4.1131
v -30.7429 0.6721 7.5838
v -29.8329 2.2503 6.1310
v 16.2508 2.6177 7.3461
v 19.6119 2.7469 5.1641
v 21.3539 1.4997 4.1131
v -27.9554 6.8449 6.1108
v -26.4750 8.3298 7.5502
v 0.7422 8.3849 7.7475
v 1.5252 8.3849 7.7475
v 15.4278 6.6353 5.9037
v 18.4982 5.3138 4.5383
v -27.5680 10.6177 5.4799
v -26.4239 10.6177 7.4799
v -11.1450 12.1901 7.3577
v -8.3394 11.8075 5.9953
v -4.7176 10.1367 5.9517
v -0.5179 10.0917 5.9567
v 2.4453 10.6177 6.9592
v 14.2349 10.6177 5.9517
v -27.1231 12.9357 5.0574
v -24.9892 14.4317 6.0643
v -21.6097 15.9276 4.4045
v -11.3851 14.6177 7.2068
v -9.3939 14.6177 5.2068
v 0.8887 13.0485 4.1660
v 3.5706 14.1945 5.7409
v 6.2102 15.3405 7.3159
v 11.8316 15.0833 5.9517
v 13.6463 13.0833 5.9517
v -23.4097 17.5078 7.0712
v -20.4528 17.6704 5.8234
v -16.7176 17.9735 5.9517
v -12.5951 17.5534 6.1122
v -10.2497 17.2337 4.8858
v 4.3409 18.6177 4.9201
v 7.4391 18.5348 6.4071
v 9.7530 18.5348 5.6324
v 4.7584 20.9285 4.5453
v 7.2824 20.8816 4.4978
v 9.3346 20.6588 4.0862
v -11.0218 -15.6292 11.5488
v -8.7176 -15.6264 11.4635
v -4.7176 -15.5433 11.4282
v -0.6376 -15.4703 9.8040
v 1.3481 -15.4222 8.1062
v -15.2513 -11.6672 9.9517
v -12.7278 -12.9055 10.0069
v -8.4272 -13.1090 9.4691
v -4.7176 -14.2736 9.4282
v -0.6376 -14.8889 9.8040
v 2.9218 -13.8271 9.6444
v 7.4175 -12.2532 9.8480
v 11.2824 -12.3576 10.4031
v 15.0828 -11.8317 9.6985
v 17.6500 -11.7267 8.6705
v -23.6346 -7.9981 9.9517
v -20.7176 -8.8539 9.9517
v -17.2513 -10.2381 9.9517
v -11.7672 -10.5675 8.4650
v -9.5669 -10.5675 8.4650
v 8.8409 -11.0147 8.4455
v 11.2824 -10.9744 8.4031
v 15.0828 -11.0674 9.6985
v 18.8510 -9.4511 10.0274
v 21.7769 -7.9734 11.3842
v -27.3756 -4.4130 8.7702
v -25.1175 -5.6008 10.0428
v -2.7326 -3.4112 7.9728
v -0.7176 -3.6018 8.0670
v 1.4063 -3.6461 8.0844
v 9.2646 -3.4040 7.9813
v 11.2824 -3.5642 8.0772
v 15.2824 -4.2917 8.2529
v 19.1724 -5.4102 9.7999
v 21.7769 -6.4464 11.3842
v -30.7429 0.5573 8.0219
v -28.4680 -0.8623 9.7294
v -25.4947 -2.2819 11.4369
v -2.7326 -3.2836 7.9728
v -0.7176 -3.1524 8.0670
v 1.4063 -3.1745 8.0844
v 9.2646 -3.3629 7.9813
v 11.2824 -3.1815 8.0772
v 15.3972 -1.5145 9.4858
v 18.2929 -2.5616 10.8822
v -30.7429 0.6721 8.0219
v -28.4411 2.1730 9.8176
v -26.4387 3.6740 11.6133
v 13.0953 4.1107 11.0828
v 14.2947 2.7135 9.8304
v -27.3218 5.6631 8.9466
v -25.9293 6.8449 10.1487
v -7.4350 7.6182 11.2447
v -4.7176 7.5793 10.7632
v -0.6984 8.3088 9.6551
v 3.0760 8.0882 9.7989
v 7.2824 7.7713 11.3568
v 11.5702 6.8363 10.6858
v 13.4984 6.6177 8.5217
v -25.0162 10.6177 9.9517
v -11.2658 12.0502 9.9517
v -8.7480 10.0422 9.9275
v -4.7176 9.0559 8.7632
v -0.6984 8.8042 9.6551
v 3.3803 9.8689 9.5433
v 7.2824 10.6177 9.7485
v 11.2824 10.6177 9.4942
v 13.4659 10.6177 8.2694
v -23.9927 14.7795 10.2696
v -22.4053 16.2207 11.8149
v -12.4482 14.6177 9.9517
v 5.2569 12.6738 7.9710
v 7.4391 14.2514 8.3567
v 11.0190 14.2790 8.4220
v 13.3634 12.7199 8.0797
v -23.4097 17.5078 9.1482
v -20.9302 17.9348 10.2696
v -16.7176 18.0149 9.9517
v -13.9000 17.0362 9.9517
v 8.8768 17.1463 8.1045
v 9.5100 17.1463 8.1045
v 0.7336 -19.4903 15.7843
v 1.4525 -19.4903 15.7843
v -11.4081 -15.9704 13.9517
v -8.7176 -16.5687 13.9517
v -4.7176 -16.5632 13.9517
v -0.8109 -17.1041 14.1473
v 2.9844 -17.1093 15.2234
v 7.2824 -16.1577 15.0619
v 11.2824 -16.0049 15.2531
v 13.2905 -15.3901 15.9350
v -15.0921 -11.6698 12.4943
v -13.3084 -13.1548 13.8773
v 0.3113 -14.7515 12.5102
v 3.2824 -14.0900 13.1668
v 7.2824 -14.1226 13.0619
v 11.2824 -14.3576 13.2531
v 14.3481 -13.3150 14.3417
v -23.1161 -8.1393 13.9517
v -20.7176 -8.8895 13.9517
v -16.5423 -10.0274 13.8773
v -14.1149 -10.7904 15.1610
v 16.6085 -10.8404 13.9517
v 19.4647 -8.9034 14.1120
v 21.7769 -7.9734 12.8856
v -23.1027 -5.5790 13.5774
v -21.7466 -4.3768 14.6612
v 20.9395 -5.4546 13.8776
v 22.6372 -5.2906 14.0364
v 25.4847 -3.6902 15.6309
v -26.8936 0.3847 12.0389
v -24.3839 -1.1221 12.7059
v -21.7464 -1.3823 14.8291
v 16.3450 0.1051 12.5896
v 19.4887 -1.2899 13.2499
v 22.9267 -1.5762 15.0746
v 25.4847 -3.0387 15.6309
v -26.8936 1.0073 12.0389
v -24.7842 2.2582 13.8921
v -22.3937 0.8424 15.7454
v -6.8524 4.4051 15.6274
v -6.4502 4.4051 15.6274
v 4.5881 4.2219 15.1540
v 5.8656 4.2219 15.1540
v 13.0953 4.1107 12.5295
v 15.1200 2.7135 13.1496
v 19.1110 2.2551 15.1676
v 21.3562 0.6800 15.8929
v -23.9222 6.6848 14.1005
v -21.4955 8.0629 15.5331
v -7.9832 6.4180 14.1571
v -4.9571 5.5923 14.1571
v -0.7704 7.3159 13.9160
v 3.2742 6.4745 13.8564
v 7.2323 5.9959 13.8731
v 11.5702 5.8180 13.8984
v 15.2824 5.0090 14.9706
v 17.6634 4.9287 15.3990
v -23.3099 10.6177 12.8253
v -20.3844 10.2383 14.5507
v -16.7176 11.4616 15.1480
v -12.4997 11.5286 14.2086
v -10.1985 9.4383 13.9517
v 0.5278 8.8706 12.5588
v 1.9602 8.8706 12.5588
v -22.9663 13.5541 12.2017
v -20.9302 14.7795 12.5744
v -16.7176 14.6177 13.5572
v -13.7807 14.6177 12.9664
v -19.7387 17.2171 12.2392
v -16.7176 17.2783 12.3609
v -14.4982 16.8990 12.2097
v -0.0936 -19.7408 17.9517
v 1.7216 -19.7408 17.9517
v -11.7000 -16.6326 17.9517
v -8.7176 -17.4971 17.9517
v -4.3974 -16.4584 18.2165
v -2.1694 -17.3668 18.2165
v 3.7216 -17.9340 17.9517
v 7.2824 -16.8986 17.9517
v 11.2824 -16.4715 17.9517
v 13.4404 -15.5069 17.9517
v -13.0236 -13.3823 17.9517
v -2.8506 -15.2897 19.7264
v -2.6359 -15.2897 19.7264
v 14.9454 -13.3823 17.9517
v -23.0032 -8.1609 16.3561
v -20.7176 -8.3780 16.7293
v -16.6586 -8.7424 17.9311
v -14.0412 -10.6706 17.9517
v 16.7874 -10.5058 17.9517
v 18.0988 -8.5058 17.9517
v -23.0032 -7.0435 16.3561
v -20.5350 -5.5790 16.8805
v -17.2438 -5.3823 18.8093
v 20.1291 -5.6307 18.1651
v 23.2824 -4.4237 16.9617
v 25.4847 -3.6902 16.2761
v -19.7464 -1.3823 16.5611
v -17.2102 -1.3823 18.5611
v 12.8170 0.1251 19.2243
v 14.3106 0.1251 19.2243
v 20.2263 -1.3823 18.8353
v 22.9267 -1.5762 16.8532
v 25.4847 -3.0387 16.2761
v -23.5229 3.5053 17.9517
v -20.8383 2.5428 17.9305
v -16.6317 2.8913 18.9993
v -14.4874 4.4070 19.7402
v -6.8524 4.4051 16.1186
v -6.4502 4.4051 16.1186
v 4.1124 3.7855 17.9517
v 6.3996 3.7855 17.9517
v 12.0618 2.6177 18.5165
v 15.4993 2.2806 18.2170
v 18.9408 2.0346 17.5408
v 21.3562 0.6800 16.1075
v -23.5229 5.7951 17.9517
v -20.3892 6.7360 17.7953
v -16.7176 6.6177 17.9502
v -13.6309 6.6177 19.1848
v -8.1083 6.7836 17.6518
v -4.9571 5.8152 17.6518
v -0.7176 5.9941 17.9517
v 2.1124 5.2046 17.9517
v 8.3996 5.3391 17.9517
v 10.9852 5.3212 17.6400
v 15.2824 5.0090 16.3289
v 17.6634 4.9287 16.3075
v -18.8289 8.6521 15.9829
v -16.7176 9.4616 16.3668
v -12.3863 9.3639 17.8651
v -10.3549 8.7323 17.9517
v -0.0034 -19.7523 20.5101
v 1.6980 -19.7523 20.5101
v -11.4110 -16.5122 21.2024
v -9.0662 -16.6830 22.3021
v -5.2108 -16.1608 21.9517
v -0.6844 -17.3657 21.8867
v 3.1318 -17.8924 21.8867
v 7.3609 -16.1874 22.0273
v 11.2824 -15.8489 20.9415
v 13.4850 -15.5406 20.4787
v -14.8977 -11.6639 23.1303
v -12.9147 -13.4786 22.1663
v -10.6319 -15.2933 23.8690
v -3.2108 -14.9114 21.9517
v -2.2118 -14.9114 21.9517
v 8.7466 -14.9229 23.4111
v 11.2824 -14.6625 22.9415
v 15.2358 -13.2716 21.8073
v 17.5918 -11.6613 23.1359
v -15.3279 -9.5681 21.8588
v -14.4183 -11.0253 20.4636
v 16.9866 -10.4827 20.4693
v 17.7193 -9.2425 21.8623
v -15.2998 -5.4177 21.6818
v -14.1183 -4.1079 22.8352
v 18.7463 -5.3823 21.9517
v -15.2102 -1.3823 20.4813
v -12.7580 -1.1097 22.6520
v -10.4609 0.4054 23.7461
v 12.5572 0.0696 21.9517
v 15.4993 -0.0442 21.8350
v 18.3638 -1.2058 21.8350
v -23.3793 4.2431 20.2434
v -21.9495 4.2431 20.2434
v -15.2411 1.7403 20.4411
v -12.9795 2.8913 21.6863
v -10.4750 2.6177 23.7529
v 3.7341 3.2593 21.9517
v 7.4263 2.9342 21.6981
v 10.4050 2.4210 21.6981
v 16.9772 0.7225 20.4239
v 17.5516 0.7225 20.4239
v -23.3793 5.4090 20.2434
v -21.9495 5.4090 20.2434
v -11.6309 6.6177 20.9971
v -9.1472 6.6142 21.9820
v -4.7176 6.4572 21.9517
v -0.7176 5.7001 21.9517
v 1.7341 4.8553 21.9517
v 8.8555 4.8207 20.1958
v 9.4537 4.8207 20.1958
v -10.8322 8.6807 20.0717
v -10.3102 8.6807 20.0717
v -7.9653 -15.9868 24.4781
v -5.9089 -15.9868 24.4781
v 0.3409 -16.2583 25.9517
v 3.2824 -16.9764 25.9517
v 6.7531 -16.1004 25.9517
v -14.8977 -11.6639 24.1882
v -12.7176 -12.5267 24.5438
v -9.0662 -13.7289 25.0479
v -4.6324 -13.4611 25.3798
v -1.7564 -13.4611 26.2154
v 8.7531 -14.8758 25.9517
v 11.2824 -13.7555 25.9517
v 15.3121 -12.2534 25.9339
v 17.5918 -11.6613 24.5887
v -15.0543 -9.3823 24.3031
v -12.7176 -9.3823 25.4299
v -8.9191 -9.5290 26.9017
v -4.7176 -10.9289 27.3421
v -2.5269 -11.1999 27.7245
v 16.3272 -9.3823 26.9018
v 17.7400 -9.3823 24.9018
v -14.9864 -6.7746 24.1837
v -12.7580 -5.4177 24.9756
v -9.5261 -5.3823 27.0575
v 16.0329 -5.3823 26.8127
v 17.9157 -5.3823 24.8127
v -11.4516 -2.2612 24.4768
v -8.6270 -1.4553 25.7542
v -5.5328 -0.6494 27.0316
v 4.9818 0.2517 27.2942
v 7.2824 -0.4491 26.6252
v 11.3815 -0.8343 25.6849
v 15.0767 -2.0239 25.8627
v 17.8262 -2.4214 24.4700
v -8.4750 2.6177 24.5259
v -5.0912 2.6177 26.5259
v 3.6183 2.3592 25.9572
v 7.2824 1.0487 24.6252
v 10.1142 0.9565 24.1738
v -7.9841 5.0008 24.3041
v -4.5274 5.3299 25.7631
v -0.7176 5.3352 25.9517
v 1.4277 4.7322 25.9517
v 0.4851 -16.4148 29.9517
v 3.2824 -17.5109 29.9517
v 7.5805 -16.3437 29.9003
v 9.4109 -15.5232 31.1993
v -0.0410 -13.1371 30.2169
v 1.9877 -11.6403 31.7270
v 9.1125 -15.1664 28.5327
v 10.9595 -13.8972 29.9003
v 13.9482 -11.6878 29.9517
v -7.7200 -8.2935 28.6089
v -4.7176 -8.9289 29.2911
v -1.1212 -9.7825 30.4037
v 1.9877 -11.0317 31.7270
v 14.5184 -9.3823 29.9517
v -7.5261 -5.3823 28.4778
v -4.7176 -5.3823 29.5093
v -0.9163 -5.3143 30.8043
v 1.7952 -3.9356 31.3307
v 9.1578 -3.6208 31.7826
v 11.2824 -4.0259 31.6280
v 13.9328 -5.3541 30.1942
v -6.7931 -3.3161 27.9959
v -4.4067 -1.7426 28.1772
v -0.7176 -1.3823 29.1044
v 3.3885 -1.3573 29.8877
v 7.6076 -2.3861 30.2502
v 11.2824 -3.0187 29.6280
v 13.6061 -3.1744 29.0226
v -3.0912 2.6177 28.2345
v -0.7176 2.6177 28.6510
v 2.1013 2.6177 28.3682
v -3.0672 5.0057 28.2438
v -0.7176 4.9677 28.2176
v 1.3416 4.6964 28.0141
v 0.7286 -16.5981 33.9517
v 3.0946 -16.8697 34.1025
v 7.2824 -16.1314 32.8225
v 9.4109 -15.5232 32.1948
v 0.7286 -14.4391 33.9517
v 3.1452 -13.4201 33.8141
v 7.4542 -13.3131 34.3325
v 11.2907 -13.0251 33.8286
v 13.4541 -11.4498 32.7957
v 0.2845 -8.3651 33.0612
v 3.3056 -9.5720 32.8430
v 7.4542 -9.5405 33.9192
v 11.6153 -9.5405 34.2505
v 13.4736 -9.3823 32.6478
v 0.2845 -6.6023 33.0612
v 3.1901 -5.3143 32.9425
v 7.6076 -5.1254 32.4188
v 11.2824 -6.0259 32.1922
v 13.3657 -6.6685 32.0358
v 4.4618 -2.9662 32.2579
v 6.4911 -2.9662 32.2579
v 1.0922 -16.1558 36.0657
v 1.6360 -16.1558 36.0657
v 1.0922 -15.2000 36.0657
v 1.6360 -15.2000 36.0657
v 8.9021 -11.9337 36.3640
v 10.5038 -11.9337 36.3640
v 8.9021 -10.9793 36.3640
v 10.5038 -10.9793 36.3640
f 6 1 5
f 6 2 1
f 6 3 2
f 6 7 3
f 12 4 11
f 12 5 4
f 12 6 5
f 12 13 6
f 13 7 6
f 13 14 7
f 16 8 15
f 16 9 8
f 17 9 16
f 17 10 9
f 18 14 13
f 18 19 14
f 19 15 14
f 19 20 15
f 21 15 20
f 21 16 15
f 27 23 22
f 27 28 23
f 33 24 32
f 33 25 24
f 34 27 26
f 34 35 27
f 35 28 27
f 35 36 28
f 37 1 2
f 37 36 1
f 36 29 28
f 36 37 29
f 3 37 2
f 3 38 37
f 38 29 37
f 38 30 29
f 38 31 30
f 38 39 31
f 44 32 43
f 44 33 32
f 46 1 36
f 46 5 1
f 46 4 5
f 46 45 4
f 46 35 45
f 46 36 35
f 47 38 3
f 47 3 7
f 48 38 47
f 48 39 38
f 49 8 9
f 49 48 8
f 48 40 39
f 48 49 40
f 10 49 9
f 10 50 49
f 49 41 40
f 49 50 41
f 51 41 50
f 51 42 41
f 45 11 4
f 45 52 11
f 53 12 11
f 53 11 52
f 54 13 12
f 54 12 53
f 55 47 7
f 55 7 14
f 56 8 48
f 56 15 8
f 56 14 15
f 56 55 14
f 56 47 55
f 56 48 47
f 50 10 17
f 50 17 58
f 17 16 57
f 17 57 58
f 59 50 58
f 59 51 50
f 60 53 52
f 60 61 53
f 54 18 13
f 54 62 18
f 61 54 53
f 61 62 54
f 63 19 18
f 63 18 62
f 20 19 63
f 20 63 64
f 57 16 21
f 57 21 65
f 21 20 64
f 21 64 65
f 66 57 65
f 66 58 57
f 68 64 67
f 68 65 64
f 23 71 22
f 23 72 71
f 25 77 24
f 25 78 77
f 79 69 78
f 79 70 69
f 80 22 71
f 80 27 22
f 80 26 27
f 80 79 26
f 80 70 79
f 80 71 70
f 81 72 23
f 81 23 28
f 29 81 28
f 29 82 81
f 81 73 72
f 81 82 73
f 30 82 29
f 30 83 82
f 82 74 73
f 82 83 74
f 31 83 30
f 31 84 83
f 83 75 74
f 83 84 75
f 84 76 75
f 84 85 76
f 87 24 77
f 87 32 24
f 88 78 25
f 88 25 33
f 79 34 26
f 79 89 34
f 88 79 78
f 88 89 79
f 90 35 34
f 90 34 89
f 91 84 31
f 91 31 39
f 40 91 39
f 40 92 91
f 91 85 84
f 91 92 85
f 41 92 40
f 41 93 92
f 92 86 85
f 92 93 86
f 94 41 42
f 94 93 41
f 87 43 32
f 87 96 43
f 88 33 44
f 88 44 97
f 97 44 43
f 97 43 96
f 90 45 35
f 90 99 45
f 98 90 89
f 98 99 90
f 94 42 51
f 94 51 100
f 102 95 101
f 102 96 95
f 99 52 45
f 99 104 52
f 100 51 59
f 100 59 106
f 59 58 105
f 59 105 106
f 109 101 108
f 109 102 101
f 109 103 102
f 109 110 103
f 104 60 52
f 104 111 60
f 112 61 60
f 112 60 111
f 113 62 61
f 113 61 112
f 63 62 113
f 63 113 114
f 115 64 63
f 115 63 114
f 105 58 66
f 105 66 117
f 66 65 116
f 66 116 117
f 118 105 117
f 118 106 105
f 120 107 119
f 120 108 107
f 121 108 120
f 121 109 108
f 122 109 121
f 122 110 109
f 123 112 111
f 123 124 112
f 125 112 124
f 125 113 112
f 115 67 64
f 115 127 67
f 126 115 114
f 126 127 115
f 116 65 68
f 116 68 128
f 128 68 67
f 128 67 127
f 129 116 128
f 129 117 116
f 129 118 117
f 129 130 118
f 131 121 120
f 131 132 121
f 134 132 131
f 134 135 132
f 135 133 132
f 135 136 133
f 70 143 69
f 70 144 143
f 145 70 71
f 145 144 70
f 145 137 144
f 145 138 137
f 72 145 71
f 72 146 145
f 145 139 138
f 145 146 139
f 73 146 72
f 73 147 146
f 146 140 139
f 146 147 140
f 148 73 74
f 148 147 73
f 147 141 140
f 147 148 141
f 75 148 74
f 75 149 148
f 148 142 141
f 148 149 142
f 150 75 76
f 150 149 75
f 156 69 143
f 156 78 69
f 156 77 78
f 156 155 77
f 157 150 76
f 157 76 85
f 86 157 85
f 86 158 157
f 159 151 158
f 159 152 151
f 160 152 159
f 160 153 152
f 160 154 153
f 160 161 154
f 155 87 77
f 155 164 87
f 166 89 88
f 166 88 165
f 167 158 86
f 167 86 93
f 94 167 93
f 94 168 167
f 167 159 158
f 167 168 159
f 169 159 168
f 169 160 159
f 169 161 160
f 169 170 161
f 171 163 162
f 171 172 163
f 173 87 164
f 173 96 87
f 173 95 96
f 173 172 95
f 172 164 163
f 172 173 164
f 165 88 97
f 165 97 174
f 97 96 173
f 97 173 174
f 166 98 89
f 166 175 98
f 175 165 174
f 175 166 165
f 176 99 98
f 176 98 175
f 177 168 94
f 177 94 100
f 177 169 168
f 177 178 169
f 179 169 178
f 179 170 169
f 181 95 172
f 181 101 95
f 180 172 171
f 180 181 172
f 182 173 96
f 182 96 102
f 103 182 102
f 103 183 182
f 182 174 173
f 182 183 174
f 183 175 174
f 183 184 175
f 176 104 99
f 176 185 104
f 184 176 175
f 184 185 176
f 177 100 106
f 177 106 186
f 187 177 186
f 187 178 177
f 188 178 187
f 188 179 178
f 181 108 101
f 181 190 108
f 190 107 108
f 190 189 107
f 192 183 103
f 192 103 110
f 193 183 192
f 193 184 183
f 185 111 104
f 185 194 111
f 193 185 184
f 193 194 185
f 114 113 195
f 114 195 196
f 186 106 118
f 186 118 200
f 201 186 200
f 201 187 186
f 189 119 107
f 189 202 119
f 120 119 202
f 120 202 203
f 203 202 189
f 203 189 190
f 205 192 110
f 205 110 122
f 205 122 121
f 205 121 204
f 205 204 191
f 205 191 192
f 194 123 111
f 194 206 123
f 124 123 206
f 124 206 207
f 195 113 125
f 195 125 208
f 125 124 207
f 125 207 208
f 196 126 114
f 196 209 126
f 208 196 195
f 208 209 196
f 210 127 126
f 210 126 209
f 211 128 127
f 211 127 210
f 210 197 198
f 210 198 211
f 129 128 211
f 129 211 212
f 213 200 118
f 213 118 130
f 213 130 129
f 213 129 212
f 213 212 199
f 213 199 200
f 214 120 203
f 214 131 120
f 215 204 121
f 215 121 132
f 216 132 133
f 216 215 132
f 218 207 217
f 218 208 207
f 219 208 218
f 219 209 208
f 220 131 214
f 220 134 131
f 221 135 134
f 221 134 220
f 220 214 215
f 220 215 221
f 216 133 136
f 216 136 222
f 222 136 135
f 222 135 221
f 221 215 216
f 221 216 222
f 229 223 228
f 229 224 223
f 138 230 137
f 138 231 230
f 139 231 138
f 139 232 231
f 232 225 231
f 232 226 225
f 233 139 140
f 233 232 139
f 141 233 140
f 141 234 233
f 142 234 141
f 142 235 234
f 235 227 234
f 235 228 227
f 236 228 235
f 236 229 228
f 241 137 230
f 241 144 137
f 144 240 143
f 144 241 240
f 242 235 142
f 242 142 149
f 150 242 149
f 150 243 242
f 242 236 235
f 242 243 236
f 243 237 236
f 243 244 237
f 245 151 152
f 245 244 151
f 153 245 152
f 153 246 245
f 154 246 153
f 154 247 246
f 251 238 250
f 251 239 238
f 240 156 143
f 240 252 156
f 156 251 155
f 156 252 251
f 253 252 240
f 253 240 241
f 254 243 150
f 254 150 157
f 255 151 244
f 255 158 151
f 255 157 158
f 255 254 157
f 255 243 254
f 255 244 243
f 256 247 154
f 256 154 161
f 256 248 247
f 256 257 248
f 259 162 163
f 259 258 162
f 259 249 258
f 259 250 249
f 260 155 251
f 260 164 155
f 260 163 164
f 260 259 163
f 260 250 259
f 260 251 250
f 256 161 170
f 256 170 261
f 262 256 261
f 262 257 256
f 263 162 258
f 263 171 162
f 265 261 170
f 265 170 179
f 263 180 171
f 263 266 180
f 267 181 180
f 267 180 266
f 272 265 179
f 272 179 188
f 272 188 187
f 272 187 271
f 272 271 264
f 272 264 265
f 267 190 181
f 267 274 190
f 273 267 266
f 273 274 267
f 276 192 191
f 276 191 275
f 193 192 276
f 193 276 277
f 194 193 277
f 194 277 278
f 198 197 280
f 198 280 281
f 282 281 268
f 282 268 269
f 283 200 199
f 283 199 282
f 282 269 270
f 282 270 283
f 271 187 201
f 271 201 284
f 201 200 283
f 201 283 284
f 285 190 274
f 285 203 190
f 275 191 204
f 275 204 286
f 287 275 286
f 287 276 275
f 287 277 276
f 287 288 277
f 278 206 194
f 278 289 206
f 290 207 206
f 290 206 289
f 289 278 279
f 289 279 290
f 292 280 197
f 292 197 210
f 210 209 291
f 210 291 292
f 293 198 281
f 293 211 198
f 294 282 199
f 294 199 212
f 294 212 211
f 294 211 293
f 294 293 281
f 294 281 282
f 295 203 285
f 295 214 203
f 296 286 204
f 296 204 215
f 296 215 214
f 296 214 295
f 296 295 285
f 296 285 286
f 297 288 287
f 297 298 288
f 299 288 298
f 299 289 288
f 290 217 207
f 290 300 217
f 218 217 300
f 218 300 301
f 291 209 219
f 291 219 302
f 219 218 301
f 219 301 302
f 304 301 303
f 304 302 301
f 224 305 223
f 224 306 305
f 311 225 226
f 311 310 225
f 314 223 305
f 314 228 223
f 314 227 228
f 314 313 227
f 315 306 224
f 315 224 229
f 316 306 315
f 316 307 306
f 320 308 319
f 320 309 308
f 321 225 310
f 321 231 225
f 231 320 230
f 231 321 320
f 321 309 320
f 321 310 309
f 322 311 226
f 322 226 232
f 321 310 311
f 321 311 322
f 323 232 233
f 323 322 232
f 322 312 311
f 322 323 312
f 324 227 313
f 324 234 227
f 324 233 234
f 324 323 233
f 325 315 229
f 325 229 236
f 237 325 236
f 237 326 325
f 325 316 315
f 325 326 316
f 331 238 239
f 331 330 238
f 331 317 330
f 331 318 317
f 332 318 331
f 332 319 318
f 333 230 320
f 333 241 230
f 333 319 332
f 333 320 319
f 334 326 237
f 334 237 244
f 245 334 244
f 245 335 334
f 334 327 326
f 334 335 327
f 246 335 245
f 246 336 335
f 335 328 327
f 335 336 328
f 247 336 246
f 247 337 336
f 338 247 248
f 338 337 247
f 341 238 330
f 341 250 238
f 341 249 250
f 341 340 249
f 341 329 340
f 341 330 329
f 342 331 239
f 342 239 251
f 252 342 251
f 252 343 342
f 342 332 331
f 342 343 332
f 333 253 241
f 333 344 253
f 253 343 252
f 253 344 343
f 343 333 332
f 343 344 333
f 346 338 248
f 346 248 257
f 345 337 338
f 345 338 346
f 348 249 340
f 348 258 249
f 348 339 347
f 348 340 339
f 346 257 262
f 346 262 350
f 350 262 261
f 350 261 349
f 350 349 345
f 350 345 346
f 352 258 348
f 352 263 258
f 352 347 351
f 352 348 347
f 354 349 261
f 354 261 265
f 354 265 264
f 354 264 353
f 352 266 263
f 352 356 266
f 355 352 351
f 355 356 352
f 269 268 360
f 269 360 361
f 270 269 361
f 270 361 362
f 363 353 264
f 363 264 271
f 356 273 266
f 356 364 273
f 365 274 273
f 365 273 364
f 367 366 357
f 367 357 358
f 278 277 367
f 278 367 368
f 367 358 359
f 367 359 368
f 279 278 368
f 279 368 369
f 371 360 268
f 371 268 281
f 281 280 370
f 281 370 371
f 372 360 371
f 372 361 360
f 373 270 362
f 373 283 270
f 374 363 271
f 374 271 284
f 284 283 373
f 284 373 374
f 374 373 362
f 374 362 363
f 365 285 274
f 365 376 285
f 377 286 285
f 377 285 376
f 287 286 377
f 287 377 378
f 367 277 288
f 367 288 379
f 378 366 367
f 378 367 379
f 289 379 288
f 289 380 379
f 381 279 369
f 381 290 279
f 370 280 292
f 370 292 383
f 292 291 382
f 292 382 383
f 385 375 384
f 385 376 375
f 386 376 385
f 386 377 376
f 387 287 378
f 387 297 287
f 298 297 387
f 298 387 388
f 387 378 379
f 387 379 388
f 380 289 299
f 380 299 389
f 299 298 388
f 299 388 389
f 388 379 380
f 388 380 389
f 381 300 290
f 381 390 300
f 389 381 380
f 389 390 381
f 391 301 300
f 391 300 390
f 382 291 302
f 382 302 392
f 393 382 392
f 393 383 382
f 391 303 301
f 391 395 303
f 394 391 390
f 394 395 391
f 392 302 304
f 392 304 396
f 396 304 303
f 396 303 395
f 306 397 305
f 306 398 397
f 307 398 306
f 307 399 398
f 403 308 309
f 403 402 308
f 404 309 310
f 404 403 309
f 312 405 311
f 312 406 405
f 397 314 305
f 397 408 314
f 314 407 313
f 314 408 407
f 409 408 397
f 409 397 398
f 410 399 307
f 410 307 316
f 412 317 318
f 412 411 317
f 411 401 400
f 411 412 401
f 413 308 402
f 413 319 308
f 413 318 319
f 413 412 318
f 414 413 402
f 414 402 403
f 404 310 321
f 404 321 415
f 414 403 404
f 414 404 415
f 405 322 311
f 405 416 322
f 322 415 321
f 322 416 415
f 406 312 323
f 406 323 417
f 417 416 405
f 417 405 406
f 418 313 407
f 418 324 313
f 324 417 323
f 324 418 417
f 419 410 316
f 419 316 326
f 327 419 326
f 327 420 419
f 328 420 327
f 328 421 420
f 423 317 411
f 423 330 317
f 423 329 330
f 423 422 329
f 424 414 415
f 424 415 425
f 426 425 415
f 426 415 416
f 427 421 328
f 427 328 336
f 337 427 336
f 337 428 427
f 430 329 422
f 430 340 329
f 430 339 340
f 430 429 339
f 431 430 422
f 431 422 423
f 428 337 345
f 428 345 433
f 434 339 429
f 434 347 339
f 436 433 345
f 436 345 349
f 436 435 432
f 436 432 433
f 434 351 347
f 434 437 351
f 436 349 354
f 436 354 439
f 439 354 353
f 439 353 438
f 439 438 435
f 439 435 436
f 437 355 351
f 437 440 355
f 441 356 355
f 441 355 440
f 358 357 442
f 358 442 443
f 359 358 443
f 359 443 444
f 362 361 447
f 362 447 448
f 449 438 353
f 449 353 363
f 363 362 448
f 363 448 449
f 441 364 356
f 441 451 364
f 450 441 440
f 450 451 441
f 452 365 364
f 452 364 451
f 442 357 366
f 442 366 453
f 454 442 453
f 454 443 442
f 455 359 444
f 455 368 359
f 369 368 455
f 369 455 456
f 457 445 446
f 457 446 458
f 459 371 370
f 459 370 458
f 447 361 372
f 447 372 460
f 372 371 459
f 372 459 460
f 462 365 452
f 462 376 365
f 462 375 376
f 462 461 375
f 461 452 451
f 461 462 452
f 464 453 366
f 464 366 378
f 378 377 463
f 378 463 464
f 456 381 369
f 456 466 381
f 381 465 380
f 381 466 465
f 467 458 370
f 467 370 383
f 467 459 458
f 467 468 459
f 461 384 375
f 461 469 384
f 470 385 384
f 470 384 469
f 463 377 386
f 463 386 471
f 386 385 470
f 386 470 471
f 472 463 471
f 472 464 463
f 473 380 465
f 473 389 380
f 390 389 473
f 390 473 474
f 473 465 466
f 473 466 474
f 467 383 393
f 467 393 476
f 393 392 475
f 393 475 476
f 477 467 476
f 477 468 467
f 478 470 469
f 478 479 470
f 480 470 479
f 480 471 470
f 474 394 390
f 474 481 394
f 482 395 394
f 482 394 481
f 475 392 396
f 475 396 483
f 396 395 482
f 396 482 483
f 484 475 483
f 484 476 475
f 399 485 398
f 399 486 485
f 401 487 400
f 401 488 487
f 492 407 408
f 492 491 407
f 485 409 398
f 485 493 409
f 409 492 408
f 409 493 492
f 486 399 410
f 486 410 494
f 493 485 486
f 493 486 494
f 487 411 400
f 487 495 411
f 496 488 401
f 496 401 412
f 496 495 487
f 496 487 488
f 497 412 413
f 497 496 412
f 496 489 488
f 496 497 489
f 498 413 414
f 498 497 413
f 417 499 416
f 417 500 499
f 501 407 491
f 501 418 407
f 501 417 418
f 501 500 417
f 501 490 500
f 501 491 490
f 494 410 419
f 494 419 502
f 420 502 419
f 420 503 502
f 504 420 421
f 504 503 420
f 505 411 495
f 505 423 411
f 498 414 424
f 498 424 507
f 506 497 498
f 506 498 507
f 508 424 425
f 508 507 424
f 499 426 416
f 499 509 426
f 426 508 425
f 426 509 508
f 504 421 427
f 504 427 512
f 511 503 504
f 511 504 512
f 513 427 428
f 513 512 427
f 515 429 430
f 515 514 429
f 505 431 423
f 505 516 431
f 431 515 430
f 431 516 515
f 517 507 508
f 517 508 518
f 519 518 508
f 519 508 509
f 521 520 510
f 521 510 511
f 521 511 512
f 521 512 522
f 523 513 428
f 523 428 433
f 523 433 432
f 523 432 522
f 522 512 513
f 522 513 523
f 514 434 429
f 514 524 434
f 525 524 514
f 525 514 515
f 526 525 515
f 526 515 516
f 528 527 517
f 528 517 518
f 530 522 432
f 530 432 435
f 529 521 522
f 529 522 530
f 524 437 434
f 524 531 437
f 533 530 435
f 533 435 438
f 533 532 529
f 533 529 530
f 535 437 531
f 535 440 437
f 444 443 536
f 444 536 537
f 446 445 538
f 446 538 539
f 448 447 540
f 448 540 541
f 533 438 449
f 533 449 542
f 542 449 448
f 542 448 541
f 542 541 532
f 542 532 533
f 535 450 440
f 535 544 450
f 543 535 534
f 543 544 535
f 545 451 450
f 545 450 544
f 536 443 454
f 536 454 547
f 454 453 546
f 454 546 547
f 537 455 444
f 537 548 455
f 547 537 536
f 547 548 537
f 549 456 455
f 549 455 548
f 538 445 457
f 538 457 550
f 551 446 539
f 551 458 446
f 551 457 458
f 551 550 457
f 550 539 538
f 550 551 539
f 540 447 460
f 540 460 553
f 553 460 459
f 553 459 552
f 545 461 451
f 545 554 461
f 546 453 464
f 546 464 555
f 556 546 555
f 556 547 546
f 557 547 556
f 557 548 547
f 558 456 549
f 558 466 456
f 552 459 468
f 552 468 559
f 554 469 461
f 554 560 469
f 555 464 472
f 555 472 563
f 472 471 562
f 472 562 563
f 564 555 563
f 564 556 555
f 558 474 466
f 558 565 474
f 559 468 477
f 559 477 567
f 477 476 566
f 477 566 567
f 560 478 469
f 560 568 478
f 479 478 568
f 479 568 569
f 568 560 561
f 568 561 569
f 562 471 480
f 562 480 570
f 480 479 569
f 480 569 570
f 565 481 474
f 565 571 481
f 482 481 571
f 482 571 572
f 483 482 572
f 483 572 573
f 566 476 484
f 566 484 574
f 484 483 573
f 484 573 574
f 575 566 574
f 575 567 566
f 576 572 571
f 576 577 572
f 579 573 578
f 579 574 573
f 489 580 488
f 489 581 580
f 583 490 491
f 583 582 490
f 584 491 492
f 584 583 491
f 585 492 493
f 585 584 492
f 586 493 494
f 586 585 493
f 580 496 488
f 580 588 496
f 588 495 496
f 588 587 495
f 589 581 489
f 589 489 497
f 589 588 580
f 589 580 581
f 591 490 582
f 591 500 490
f 591 499 500
f 591 590 499
f 586 494 502
f 586 502 593
f 592 585 586
f 592 586 593
f 594 502 503
f 594 593 502
f 587 505 495
f 587 597 505
f 589 497 506
f 589 506 598
f 599 506 507
f 599 598 506
f 590 509 499
f 590 600 509
f 594 503 511
f 594 511 602
f 602 511 510
f 602 510 601
f 601 593 594
f 601 594 602
f 603 596 595
f 603 604 596
f 605 505 597
f 605 516 505
f 605 596 604
f 605 597 596
f 599 507 517
f 599 517 606
f 600 519 509
f 600 608 519
f 608 518 519
f 608 607 518
f 601 510 520
f 601 520 609
f 610 520 521
f 610 609 520
f 609 602 601
f 609 610 602
f 612 524 525
f 612 611 524
f 605 526 516
f 605 613 526
f 613 525 526
f 613 612 525
f 612 605 604
f 612 613 605
f 614 606 517
f 614 517 527
f 607 528 518
f 607 615 528
f 528 614 527
f 528 615 614
f 615 606 614
f 615 607 606
f 617 610 521
f 617 521 529
f 616 609 610
f 616 610 617
f 611 531 524
f 611 618 531
f 617 529 532
f 617 532 620
f 622 531 618
f 622 535 531
f 535 621 534
f 535 622 621
f 625 620 532
f 625 532 541
f 625 541 540
f 625 540 624
f 625 624 619
f 625 619 620
f 621 543 534
f 621 626 543
f 544 543 626
f 544 626 627
f 626 621 622
f 626 622 627
f 628 545 544
f 628 544 627
f 631 549 548
f 631 548 630
f 633 624 540
f 633 540 553
f 633 553 552
f 633 552 632
f 633 632 623
f 633 623 624
f 628 554 545
f 628 635 554
f 634 628 627
f 634 635 628
f 630 548 557
f 630 557 638
f 557 556 637
f 557 637 638
f 638 637 629
f 638 629 630
f 639 549 631
f 639 558 549
f 642 632 552
f 642 552 559
f 643 554 635
f 643 560 554
f 561 560 643
f 561 643 644
f 643 635 636
f 643 636 644
f 646 563 562
f 646 562 645
f 647 637 556
f 647 556 564
f 564 563 646
f 564 646 647
f 648 558 639
f 648 565 558
f 648 639 640
f 648 640 649
f 651 642 559
f 651 559 567
f 651 650 641
f 651 641 642
f 652 561 644
f 652 569 561
f 653 645 562
f 653 562 570
f 570 569 652
f 570 652 653
f 652 644 645
f 652 645 653
f 648 571 565
f 648 654 571
f 655 654 648
f 655 648 649
f 573 572 655
f 573 655 656
f 651 567 575
f 651 575 658
f 658 575 574
f 658 574 657
f 658 657 650
f 658 650 651
f 654 576 571
f 654 659 576
f 660 655 572
f 660 572 577
f 577 576 659
f 577 659 660
f 660 659 654
f 660 654 655
f 661 573 656
f 661 578 573
f 662 657 574
f 662 574 579
f 579 578 661
f 579 661 662
f 662 661 656
f 662 656 657
f 665 582 583
f 665 664 582
f 666 583 584
f 666 665 583
f 667 584 585
f 667 666 584
f 588 668 587
f 588 669 668
f 589 669 588
f 589 670 669
f 664 591 582
f 664 674 591
f 591 673 590
f 591 674 673
f 674 663 673
f 674 664 663
f 674 664 665
f 674 665 675
f 676 675 665
f 676 665 666
f 667 585 592
f 667 592 677
f 676 666 667
f 676 667 677
f 678 592 593
f 678 677 592
f 596 679 595
f 596 680 679
f 668 597 587
f 668 681 597
f 597 680 596
f 597 681 680
f 682 681 668
f 682 668 669
f 670 589 598
f 670 598 683
f 599 683 598
f 599 684 683
f 685 671 684
f 685 672 671
f 686 590 673
f 686 600 590
f 686 672 685
f 686 673 672
f 687 675 676
f 687 676 688
f 689 688 676
f 689 676 677
f 690 678 593
f 690 593 601
f 691 601 602
f 691 690 601
f 679 603 595
f 679 692 603
f 693 604 603
f 693 603 692
f 693 692 679
f 693 679 680
f 694 684 599
f 694 599 606
f 607 694 606
f 607 695 694
f 694 685 684
f 694 695 685
f 686 608 600
f 686 696 608
f 608 695 607
f 608 696 695
f 695 686 685
f 695 696 686
f 691 602 610
f 691 610 702
f 702 610 609
f 702 609 701
f 701 690 691
f 701 691 702
f 705 604 693
f 705 612 604
f 705 611 612
f 705 704 611
f 705 692 704
f 705 693 692
f 706 695 696
f 706 696 707
f 707 696 697
f 707 697 708
f 709 698 699
f 709 699 710
f 710 699 700
f 710 700 711
f 701 609 616
f 701 616 712
f 711 700 701
f 711 701 712
f 713 616 617
f 713 712 616
f 715 611 704
f 715 618 611
f 715 703 714
f 715 704 703
f 716 711 712
f 716 712 717
f 713 617 620
f 713 620 718
f 718 620 619
f 718 619 717
f 717 712 713
f 717 713 718
f 715 622 618
f 715 719 622
f 724 717 619
f 724 619 624
f 724 624 623
f 724 623 723
f 724 723 716
f 724 716 717
f 719 627 622
f 719 725 627
f 725 719 720
f 725 720 726
f 729 630 629
f 729 629 728
f 631 630 729
f 631 729 730
f 731 730 721
f 731 721 722
f 732 723 623
f 732 623 632
f 725 634 627
f 725 733 634
f 734 635 634
f 734 634 733
f 733 725 726
f 733 726 734
f 735 636 635
f 735 635 734
f 737 728 629
f 737 629 637
f 737 736 727
f 737 727 728
f 738 631 730
f 738 639 631
f 640 639 738
f 640 738 739
f 738 730 731
f 738 731 739
f 742 732 632
f 742 632 642
f 742 642 641
f 742 641 741
f 744 636 735
f 744 644 636
f 743 735 734
f 743 744 735
f 745 645 644
f 745 644 744
f 646 645 745
f 646 745 746
f 737 637 647
f 737 647 747
f 747 647 646
f 747 646 746
f 747 746 736
f 747 736 737
f 748 640 739
f 748 649 640
f 748 739 740
f 748 740 749
f 750 741 641
f 750 641 650
f 751 649 748
f 751 655 649
f 656 655 751
f 656 751 752
f 752 751 748
f 752 748 749
f 753 750 650
f 753 650 657
f 753 657 656
f 753 656 752
f 752 749 750
f 752 750 753
f 758 663 664
f 758 757 663
f 670 759 669
f 670 760 759
f 761 754 760
f 761 755 754
f 762 671 672
f 762 761 671
f 762 755 761
f 762 756 755
f 763 663 757
f 763 673 663
f 763 672 673
f 763 762 672
f 762 757 756
f 762 763 757
f 758 664 674
f 758 674 764
f 763 757 758
f 763 758 764
f 675 764 674
f 675 765 764
f 768 677 678
f 768 767 677
f 681 769 680
f 681 770 769
f 759 682 669
f 759 771 682
f 682 770 681
f 682 771 770
f 772 760 670
f 772 670 683
f 773 671 761
f 773 684 671
f 773 683 684
f 773 772 683
f 773 760 772
f 773 761 760
f 765 675 687
f 765 687 774
f 688 774 687
f 688 775 774
f 774 766 765
f 774 775 766
f 767 689 677
f 767 776 689
f 689 775 688
f 689 776 775
f 776 766 775
f 776 767 766
f 768 678 690
f 768 690 777
f 776 767 768
f 776 768 777
f 780 680 769
f 780 693 680
f 693 779 692
f 693 780 779
f 696 695 781
f 696 781 782
f 697 696 782
f 697 782 783
f 699 698 784
f 699 784 785
f 786 700 699
f 786 699 785
f 787 777 690
f 787 690 701
f 787 701 700
f 787 700 786
f 787 778 777
f 787 788 778
f 779 704 692
f 779 790 704
f 704 789 703
f 704 790 789
f 791 790 779
f 791 779 780
f 781 695 706
f 781 706 792
f 793 706 707
f 793 792 706
f 793 781 792
f 793 782 781
f 783 708 697
f 783 794 708
f 708 793 707
f 708 794 793
f 794 782 793
f 794 783 782
f 784 698 709
f 784 709 795
f 710 795 709
f 710 796 795
f 795 785 784
f 795 796 785
f 711 796 710
f 711 797 796
f 796 786 785
f 796 797 786
f 798 786 797
f 798 787 786
f 789 714 703
f 789 799 714
f 715 714 799
f 715 799 800
f 799 789 790
f 799 790 800
f 797 711 716
f 797 716 803
f 804 715 800
f 804 719 715
f 720 719 804
f 720 804 805
f 804 800 801
f 804 801 805
f 722 721 808
f 722 808 809
f 812 803 716
f 812 716 723
f 812 811 802
f 812 802 803
f 813 720 805
f 813 726 720
f 815 728 727
f 815 727 814
f 816 729 728
f 816 728 815
f 816 815 806
f 816 806 807
f 817 808 721
f 817 721 730
f 730 729 816
f 730 816 817
f 816 807 808
f 816 808 817
f 818 722 809
f 818 731 722
f 817 809 808
f 817 818 809
f 818 809 810
f 818 810 819
f 820 819 810
f 820 810 811
f 812 723 732
f 812 732 821
f 820 811 812
f 820 812 821
f 813 734 726
f 813 822 734
f 814 727 736
f 814 736 824
f 825 731 818
f 825 739 731
f 740 739 825
f 740 825 826
f 825 818 819
f 825 819 826
f 827 826 819
f 827 819 820
f 828 821 732
f 828 732 742
f 828 742 741
f 828 741 827
f 828 827 820
f 828 820 821
f 822 743 734
f 822 829 743
f 830 744 743
f 830 743 829
f 829 822 823
f 829 823 830
f 831 745 744
f 831 744 830
f 832 824 736
f 832 736 746
f 832 746 745
f 832 745 831
f 833 740 826
f 833 749 740
f 834 827 741
f 834 741 750
f 750 749 833
f 750 833 834
f 834 833 826
f 834 826 827
f 838 754 755
f 838 837 754
f 839 755 756
f 839 838 755
f 840 756 757
f 840 839 756
f 841 835 840
f 841 836 835
f 846 754 837
f 846 760 754
f 760 845 759
f 760 846 845
f 847 840 757
f 847 757 763
f 764 847 763
f 764 848 847
f 847 841 840
f 847 848 841
f 849 764 765
f 849 848 764
f 848 842 841
f 848 849 842
f 766 849 765
f 766 850 849
f 850 842 849
f 850 843 842
f 851 766 767
f 851 850 766
f 850 844 843
f 850 851 844
f 770 852 769
f 770 853 852
f 845 771 759
f 845 854 771
f 771 853 770
f 771 854 853
f 855 854 845
f 855 845 846
f 856 851 767
f 856 767 776
f 777 856 776
f 777 857 856
f 778 857 777
f 778 858 857
f 859 769 852
f 859 780 769
f 858 778 788
f 858 788 862
f 788 787 861
f 788 861 862
f 861 857 858
f 861 858 862
f 859 791 780
f 859 865 791
f 791 864 790
f 791 865 864
f 866 865 859
f 866 859 860
f 861 787 798
f 861 798 868
f 798 797 867
f 798 867 868
f 869 861 868
f 869 862 861
f 869 863 862
f 869 870 863
f 864 800 790
f 864 871 800
f 801 800 871
f 801 871 872
f 871 864 865
f 871 865 872
f 873 872 865
f 873 865 866
f 867 797 803
f 867 803 879
f 879 803 802
f 879 802 878
f 880 867 879
f 880 868 867
f 881 868 880
f 881 869 868
f 882 801 872
f 882 805 801
f 885 807 806
f 885 806 884
f 885 884 874
f 885 874 875
f 886 808 807
f 886 807 885
f 810 809 887
f 810 887 888
f 888 887 876
f 888 876 877
f 878 802 811
f 878 811 889
f 889 811 810
f 889 810 888
f 890 878 889
f 890 879 878
f 891 879 890
f 891 880 879
f 892 805 882
f 892 813 805
f 892 882 883
f 892 883 893
f 896 884 806
f 896 806 815
f 896 815 814
f 896 814 895
f 897 808 886
f 897 817 808
f 898 887 809
f 898 809 818
f 898 818 817
f 898 817 897
f 898 897 886
f 898 886 887
f 899 813 892
f 899 822 813
f 823 822 899
f 823 899 900
f 900 899 892
f 900 892 893
f 901 900 893
f 901 893 894
f 902 895 814
f 902 814 824
f 902 901 894
f 902 894 895
f 903 823 900
f 903 830 823
f 831 830 903
f 831 903 904
f 903 900 901
f 903 901 904
f 905 902 824
f 905 824 832
f 905 832 831
f 905 831 904
f 905 904 901
f 905 901 902
f 907 835 836
f 907 906 835
f 838 908 837
f 838 909 908
f 839 909 838
f 839 910 909
f 911 835 906
f 911 840 835
f 911 839 840
f 911 910 839
f 912 907 836
f 912 836 841
f 842 912 841
f 842 913 912
f 843 913 842
f 843 914 913
f 844 914 843
f 844 915 914
f 916 837 908
f 916 846 837
f 918 917 910
f 918 910 911
f 919 915 844
f 919 844 851
f 853 920 852
f 853 921 920
f 854 921 853
f 854 922 921
f 916 855 846
f 916 923 855
f 855 922 854
f 855 923 922
f 919 851 856
f 919 856 924
f 925 856 857
f 925 924 856
f 926 852 920
f 926 859 852
f 860 859 926
f 860 926 927
f 926 920 921
f 926 921 927
f 928 927 921
f 928 921 922
f 929 925 857
f 929 857 861
f 930 861 862
f 930 929 861
f 863 930 862
f 863 931 930
f 932 860 927
f 932 866 860
f 932 927 928
f 932 928 933
f 936 929 930
f 936 930 937
f 931 863 870
f 931 870 938
f 938 870 869
f 938 869 937
f 938 937 930
f 938 930 931
f 932 873 866
f 932 940 873
f 873 939 872
f 873 940 939
f 940 932 933
f 940 933 941
f 875 874 943
f 875 943 944
f 877 876 945
f 877 945 946
f 947 934 935
f 947 935 948
f 937 869 881
f 937 881 950
f 950 881 880
f 950 880 949
f 950 949 936
f 950 936 937
f 939 882 872
f 939 951 882
f 883 882 951
f 883 951 952
f 952 940 941
f 952 941 953
f 953 941 942
f 953 942 954
f 943 874 884
f 943 884 955
f 944 885 875
f 944 956 885
f 956 943 955
f 956 944 943
f 957 886 885
f 957 885 956
f 958 945 876
f 958 876 887
f 958 887 886
f 958 886 957
f 959 877 946
f 959 888 877
f 889 888 959
f 889 959 960
f 961 890 889
f 961 889 960
f 961 960 947
f 961 947 948
f 962 949 880
f 962 880 891
f 891 890 961
f 891 961 962
f 962 961 948
f 962 948 949
f 963 883 952
f 963 893 883
f 894 893 963
f 894 963 964
f 963 952 953
f 963 953 964
f 895 894 964
f 895 964 965
f 964 953 954
f 964 954 965
f 955 884 896
f 955 896 966
f 896 895 965
f 896 965 966
f 907 967 906
f 907 968 967
f 909 969 908
f 909 970 969
f 971 909 910
f 971 970 909
f 967 911 906
f 967 972 911
f 968 907 912
f 968 912 973
f 972 967 968
f 972 968 973
f 974 912 913
f 974 973 912
f 975 913 914
f 975 974 913
f 976 914 915
f 976 975 914
f 969 916 908
f 969 978 916
f 979 978 969
f 979 969 970
f 971 910 917
f 971 917 980
f 972 918 911
f 972 981 918
f 918 980 917
f 918 981 980
f 982 974 975
f 982 975 983
f 976 915 919
f 976 919 984
f 983 975 976
f 983 976 984
f 987 916 978
f 987 923 916
f 987 922 923
f 987 986 922
f 987 977 986
f 987 978 977
f 988 984 919
f 988 919 924
f 925 988 924
f 925 989 988
f 988 985 984
f 988 989 985
f 990 922 986
f 990 928 922
f 992 989 925
f 992 925 929
f 993 928 990
f 993 933 928
f 993 990 991
f 993 991 994
f 935 934 996
f 935 996 997
f 992 929 936
f 992 936 998
f 1000 939 940
f 1000 999 939
f 1001 933 993
f 1001 941 933
f 942 941 1001
f 942 1001 1002
f 1001 993 994
f 1001 994 1002
f 1002 994 995
f 1002 995 1003
f 946 945 1004
f 946 1004 1005
f 1006 996 934
f 1006 934 947
f 1007 935 997
f 1007 948 935
f 1008 998 936
f 1008 936 949
f 1008 949 948
f 1008 948 1007
f 1008 1007 997
f 1008 997 998
f 999 951 939
f 999 1009 951
f 1000 940 952
f 1000 952 1010
f 1010 952 951
f 1010 951 1009
f 1009 999 1000
f 1009 1000 1010
f 1011 942 1002
f 1011 954 942
f 1011 1002 1003
f 1011 1003 1012
f 1013 956 955
f 1013 955 1012
f 957 956 1013
f 957 1013 1014
f 1004 945 958
f 1004 958 1015
f 1015 958 957
f 1015 957 1014
f 1016 946 1005
f 1016 959 946
f 1017 1006 947
f 1017 947 960
f 1017 960 959
f 1017 959 1016
f 1017 1016 1005
f 1017 1005 1006
f 1018 954 1011
f 1018 965 954
f 1019 1012 955
f 1019 955 966
f 966 965 1018
f 966 1018 1019
f 1019 1018 1011
f 1019 1011 1012
f 971 1020 970
f 971 1021 1020
f 973 1022 972
f 973 1023 1022
f 974 1023 973
f 974 1024 1023
f 1026 977 978
f 1026 1025 977
f 1020 979 970
f 1020 1027 979
f 979 1026 978
f 979 1027 1026
f 1021 971 980
f 1021 980 1028
f 1027 1020 1021
f 1027 1021 1028
f 1022 981 972
f 1022 1029 981
f 981 1028 980
f 981 1029 1028
f 1024 974 982
f 1024 982 1030
f 1031 982 983
f 1031 1030 982
f 1032 983 984
f 1032 1031 983
f 985 1032 984
f 985 1033 1032
f 1034 977 1025
f 1034 986 977
f 1035 1034 1025
f 1035 1025 1026
f 1036 1035 1026
f 1036 1026 1027
f 1037 1036 1027
f 1037 1027 1028
f 1038 1037 1028
f 1038 1028 1029
f 1040 1033 985
f 1040 985 989
f 1039 1032 1033
f 1039 1033 1040
f 1041 986 1034
f 1041 990 986
f 991 990 1041
f 991 1041 1042
f 1041 1034 1035
f 1041 1035 1042
f 1043 1042 1035
f 1043 1035 1036
f 1045 1040 989
f 1045 989 992
f 1044 1039 1040
f 1044 1040 1045
f 1046 991 1042
f 1046 994 991
f 995 994 1046
f 995 1046 1047
f 1046 1042 1043
f 1046 1043 1047
f 1052 997 996
f 1052 996 1051
f 1053 1045 992
f 1053 992 998
f 1053 998 997
f 1053 997 1052
f 1053 1052 1044
f 1053 1044 1045
f 1054 995 1047
f 1054 1003 995
f 1054 1047 1048
f 1054 1048 1055
f 1057 1005 1004
f 1057 1004 1056
f 1057 1056 1049
f 1057 1049 1050
f 1058 1051 996
f 1058 996 1006
f 1058 1006 1005
f 1058 1005 1057
f 1058 1057 1050
f 1058 1050 1051
f 1059 1003 1054
f 1059 1012 1003
f 1013 1012 1059
f 1013 1059 1060
f 1059 1054 1055
f 1059 1055 1060
f 1014 1013 1060
f 1014 1060 1061
f 1062 1056 1004
f 1062 1004 1015
f 1062 1015 1014
f 1062 1014 1061
f 1023 1063 1022
f 1023 1064 1063
f 1024 1064 1023
f 1024 1065 1064
f 1063 1029 1022
f 1063 1067 1029
f 1069 1065 1024
f 1069 1024 1030
f 1031 1069 1030
f 1031 1070 1069
f 1069 1066 1065
f 1069 1070 1066
f 1071 1031 1032
f 1071 1070 1031
f 1037 1072 1036
f 1037 1073 1072
f 1067 1038 1029
f 1067 1074 1038
f 1038 1073 1037
f 1038 1074 1073
f 1075 1074 1067
f 1075 1067 1068
f 1071 1032 1039
f 1071 1039 1076
f 1072 1043 1036
f 1072 1077 1043
f 1078 1077 1072
f 1078 1072 1073
f 1079 1078 1073
f 1079 1073 1074
f 1076 1039 1044
f 1076 1044 1083
f 1084 1043 1077
f 1084 1047 1043
f 1048 1047 1084
f 1048 1084 1085
f 1084 1077 1078
f 1084 1078 1085
f 1085 1078 1079
f 1085 1079 1086
f 1086 1079 1080
f 1086 1080 1087
f 1088 1050 1049
f 1088 1049 1087
f 1089 1051 1050
f 1089 1050 1088
f 1089 1088 1081
f 1089 1081 1082
f 1090 1083 1044
f 1090 1044 1052
f 1090 1052 1051
f 1090 1051 1089
f 1089 1082 1083
f 1089 1083 1090
f 1091 1048 1085
f 1091 1055 1048
f 1091 1085 1086
f 1091 1086 1092
f 1093 1087 1049
f 1093 1049 1056
f 1093 1092 1086
f 1093 1086 1087
f 1094 1055 1091
f 1094 1060 1055
f 1061 1060 1094
f 1061 1094 1095
f 1095 1094 1091
f 1095 1091 1092
f 1093 1056 1062
f 1093 1062 1096
f 1096 1062 1061
f 1096 1061 1095
f 1096 1095 1092
f 1096 1092 1093
f 1064 1097 1063
f 1064 1098 1097
f 1099 1064 1065
f 1099 1098 1064
f 1066 1099 1065
f 1066 1100 1099
f 1101 1063 1097
f 1101 1067 1063
f 1068 1067 1101
f 1068 1101 1102
f 1102 1098 1099
f 1102 1099 1103
f 1100 1066 1070
f 1100 1070 1104
f 1103 1099 1100
f 1103 1100 1104
f 1105 1070 1071
f 1105 1104 1070
f 1107 1068 1102
f 1107 1075 1068
f 1075 1106 1074
f 1075 1107 1106
f 1107 1102 1103
f 1107 1103 1108
f 1110 1105 1071
f 1110 1071 1076
f 1109 1104 1105
f 1109 1105 1110
f 1106 1079 1074
f 1106 1111 1079
f 1080 1079 1111
f 1080 1111 1112
f 1112 1111 1106
f 1112 1106 1107
f 1112 1107 1108
f 1112 1108 1113
f 1114 1082 1081
f 1114 1081 1113
f 1114 1113 1108
f 1114 1108 1109
f 1115 1110 1076
f 1115 1076 1083
f 1083 1082 1114
f 1083 1114 1115
f 1115 1114 1109
f 1115 1109 1110
f 1116 1080 1112
f 1116 1087 1080
f 1117 1113 1081
f 1117 1081 1088
f 1088 1087 1116
f 1088 1116 1117
f 1116 1112 1113
f 1116 1113 1117
f 1119 1097 1098
f 1119 1118 1097
f 1120 1097 1118
f 1120 1101 1097
f 1121 1119 1098
f 1121 1098 1102
f 1121 1102 1101
f 1121 1101 1120
f 1120 1118 1119
f 1120 1119 1121
f 1104 1122 1103
f 1104 1123 1122
f 1124 1103 1122
f 1124 1108 1103
f 1125 1123 1104
f 1125 1104 1109
f 1109 1108 1124
f 1109 1124 1125
f 1124 1122 1123
f 1124 1123 1125
