# parsimony mesh: eg11545_monomer (source /Users/eranagmon/code/v2e-flagella/workspace/studies/ecoli-3d/viz/3d/structures/eg11545_monomer.pdb)
# atoms: 2401  voxel: 16 Å  verts: 82  tris: 164
v 24.3188 0.7412 -42.0216
v 32.7418 0.2604 -42.7045
v 41.7668 0.3642 -42.6349
v 23.9366 9.1371 -42.5950
v 32.7418 9.1371 -45.0815
v 43.1733 9.1371 -44.0622
v 24.0912 17.6467 -42.4890
v 32.7418 18.5596 -43.9528
v 42.9587 18.5243 -43.8319
v 7.8345 0.2441 -26.4674
v 18.0880 -0.6958 -32.5107
v 34.2918 -0.6237 -32.0534
v 41.7668 0.3642 -36.3718
v 7.8677 9.1371 -26.3937
v 15.9366 9.1371 -34.3937
v 40.1105 9.1371 -26.2650
v 43.1733 9.1371 -34.2650
v 8.4836 17.3505 -25.7747
v 17.9514 19.3783 -32.0951
v 33.8867 20.0825 -32.4496
v 42.9587 18.5243 -37.0321
v 8.4839 -15.0178 -9.7718
v 9.0334 -15.0178 -9.7718
v 5.9251 -5.7987 -16.0934
v 15.3168 -7.8848 -16.0934
v 31.6916 -1.4705 -17.5758
v 3.3758 9.1371 -17.5758
v 36.1027 9.1371 -17.5758
v 6.7033 18.6386 -17.5758
v 16.7418 21.2777 -17.5758
v 29.1529 19.7763 -17.5758
v -12.3836 -16.1690 4.7057
v 2.9353 -15.5934 -1.3178
v 9.0334 -15.0178 -7.3413
v -12.3515 -6.8629 2.8159
v 2.2522 -10.0409 -1.5371
v 15.2860 -7.4261 -2.2580
v 28.7582 -0.5739 -7.8414
v -8.9239 2.4303 3.3317
v 0.4139 8.2980 -2.0258
v 16.4198 8.9543 -0.5050
v 28.7340 9.1371 -7.8816
v 6.2820 18.9257 -7.3834
v 16.7418 18.8585 -7.5381
v 26.0483 17.6437 -9.0512
v -41.0056 -16.9028 20.9081
v -31.2582 -17.4880 17.5717
v -16.1016 -16.2461 14.0113
v -2.6133 -16.1690 10.5523
v -41.0056 -12.1242 20.9081
v -31.2315 -6.8197 17.5554
v -15.5521 -9.4314 14.5083
v 0.8527 -8.2339 14.7246
v 10.8718 -3.6117 8.2302
v -25.8803 2.0881 20.7796
v -14.6577 2.9072 15.0375
v -0.3121 3.7538 13.9078
v 10.8718 3.4991 8.2302
v -57.4195 -16.6793 36.3971
v -46.7066 -17.7686 30.8080
v -32.0818 -17.5548 29.5203
v -19.8195 -16.3231 23.5844
v -57.4195 -12.8805 36.3971
v -46.7066 -9.8766 30.8080
v -31.9222 -6.3655 29.0412
v -14.7950 -7.2588 24.4757
v -6.3480 -2.1894 23.2761
v -25.8803 2.0881 23.8313
v -15.2582 2.3799 24.1184
v -6.3480 1.8432 23.2761
v -57.1037 -16.3172 46.4242
v -47.2582 -17.6348 46.4242
v -37.6116 -16.1805 46.4242
v -57.1037 -13.2638 46.4242
v -47.2582 -9.0455 46.4242
v -37.6116 -10.6446 46.4242
v -55.5576 -14.9855 54.5273
v -47.2582 -15.5326 55.3211
v -38.3568 -15.6332 55.5169
v -55.5576 -14.7132 54.5273
v -47.2582 -13.2244 55.3211
v -38.3568 -12.8280 55.5169
f 5 1 4
f 5 2 1
f 5 3 2
f 5 6 3
f 7 5 4
f 7 8 5
f 9 5 8
f 9 6 5
f 12 1 2
f 12 11 1
f 13 2 3
f 13 12 2
f 15 1 11
f 15 4 1
f 15 10 14
f 15 11 10
f 13 3 6
f 13 6 17
f 17 16 12
f 17 12 13
f 15 7 4
f 15 19 7
f 18 15 14
f 18 19 15
f 20 8 7
f 20 7 19
f 21 17 6
f 21 6 9
f 21 9 8
f 21 8 20
f 20 16 17
f 20 17 21
f 25 10 11
f 25 24 10
f 24 23 22
f 24 25 23
f 26 11 12
f 26 25 11
f 27 10 24
f 27 14 10
f 26 12 16
f 26 16 28
f 27 18 14
f 27 29 18
f 30 19 18
f 30 18 29
f 31 28 16
f 31 16 20
f 31 20 19
f 31 19 30
f 34 22 23
f 34 33 22
f 36 22 33
f 36 24 22
f 36 32 35
f 36 33 32
f 37 34 23
f 37 23 25
f 36 33 34
f 36 34 37
f 38 25 26
f 38 37 25
f 40 24 36
f 40 27 24
f 39 36 35
f 39 40 36
f 42 38 26
f 42 26 28
f 41 37 38
f 41 38 42
f 43 27 40
f 43 29 27
f 44 30 29
f 44 29 43
f 43 40 41
f 43 41 44
f 42 28 31
f 42 31 45
f 45 31 30
f 45 30 44
f 44 41 42
f 44 42 45
f 49 32 33
f 49 48 32
f 50 47 46
f 50 51 47
f 52 32 48
f 52 35 32
f 52 47 51
f 52 48 47
f 49 33 36
f 49 36 53
f 52 48 49
f 52 49 53
f 54 36 37
f 54 53 36
f 56 35 52
f 56 39 35
f 55 52 51
f 55 56 52
f 57 40 39
f 57 39 56
f 58 54 37
f 58 37 41
f 58 41 40
f 58 40 57
f 57 53 54
f 57 54 58
f 61 46 47
f 61 60 46
f 62 47 48
f 62 61 47
f 60 50 46
f 60 64 50
f 63 60 59
f 63 64 60
f 65 51 50
f 65 50 64
f 62 48 52
f 62 52 66
f 65 61 62
f 65 62 66
f 67 52 53
f 67 66 52
f 68 51 65
f 68 55 51
f 69 56 55
f 69 55 68
f 68 65 66
f 68 66 69
f 67 53 57
f 67 57 70
f 70 57 56
f 70 56 69
f 69 66 67
f 69 67 70
f 72 59 60
f 72 71 59
f 73 60 61
f 73 72 60
f 74 59 71
f 74 63 59
f 75 64 63
f 75 63 74
f 76 73 61
f 76 61 65
f 76 65 64
f 76 64 75
f 72 77 71
f 72 78 77
f 79 72 73
f 79 78 72
f 80 71 77
f 80 74 71
f 75 74 80
f 75 80 81
f 80 77 78
f 80 78 81
f 82 79 73
f 82 73 76
f 82 76 75
f 82 75 81
f 81 78 79
f 81 79 82
