# parsimony mesh: eg11277_monomer (source /Users/eranagmon/code/v2e-molecules/workspace/studies/ecoli-3d/viz/3d/structures/eg11277_monomer.pdb)
# atoms: 148  voxel: 2.5 Å  verts: 452  tris: 908
v 14.1805 4.6123 -29.8734
v 14.6208 4.6123 -29.8734
v 13.9279 6.0799 -30.1130
v 15.5599 6.0417 -30.2535
v 17.4239 6.8496 -30.1418
v 14.0357 8.0907 -30.1472
v 15.7185 8.4385 -30.3143
v 17.4239 8.0472 -30.1418
v 13.9672 1.8112 -27.8620
v 15.7185 1.5386 -28.0694
v 17.2887 1.7935 -27.7672
v 13.5059 3.6993 -28.6391
v 15.5599 3.6993 -28.9341
v 17.2156 3.5799 -27.6735
v 13.1113 6.0799 -28.5549
v 16.2875 5.1830 -29.0008
v 17.3647 6.0417 -28.3224
v 13.8705 8.7864 -28.7469
v 15.8562 9.5288 -28.7469
v 17.4567 8.2580 -28.5549
v 14.1782 10.0898 -28.0417
v 15.1147 10.0898 -28.0417
v 11.5913 2.0850 -25.2560
v 13.1678 1.6944 -26.0755
v 15.7941 1.5195 -25.9541
v 17.2887 1.7935 -26.7202
v 11.3480 3.5799 -25.7434
v 12.2312 3.5799 -26.9934
v 16.5117 3.5799 -25.5917
v 17.2156 3.5799 -26.8417
v 11.5183 5.3336 -25.6051
v 13.0908 6.2809 -26.1264
v 15.7775 6.2688 -25.7998
v 17.1222 6.0799 -27.1663
v 14.0456 8.5799 -26.6018
v 15.8562 8.6419 -26.6513
v 17.1641 7.8499 -27.1530
v 14.1782 10.0898 -27.0246
v 15.1147 10.0898 -27.0246
v 11.6729 2.1387 -23.5549
v 13.2185 1.6365 -23.5549
v 15.2261 1.8277 -23.5549
v 10.9618 3.5799 -23.5549
v 15.9963 3.5799 -23.5549
v 11.2574 5.5615 -23.5549
v 13.2694 6.8541 -23.7087
v 15.8154 6.2359 -23.5860
v 17.1663 6.9102 -22.5273
v 14.1366 7.7440 -22.9779
v 15.7185 7.9488 -22.9765
v 17.1663 7.7409 -22.5273
v 11.4207 1.8361 -21.0549
v 13.2185 1.5504 -21.0549
v 14.8237 2.0441 -21.0549
v 9.3748 4.3566 -20.0146
v 10.2315 3.5459 -20.9307
v 15.7559 3.5799 -21.0549
v 9.3748 4.9472 -20.0146
v 10.6698 5.6481 -20.9307
v 12.3741 7.0146 -21.0549
v 16.6995 6.0781 -20.8382
v 17.1663 6.9102 -21.5271
v 13.6241 8.1803 -21.0549
v 15.9537 8.2569 -20.8382
v 17.1663 7.7409 -21.5271
v 8.8841 1.9442 -17.9461
v 10.5405 1.4273 -18.6896
v 13.2072 1.6545 -18.7977
v 14.4746 2.3229 -19.7930
v 8.6615 3.5459 -18.6896
v 9.5884 2.6900 -19.6127
v 13.5304 3.5799 -18.2051
v 15.0213 3.5799 -19.4551
v 8.8980 5.2175 -18.5549
v 10.7185 5.8060 -18.5549
v 12.8306 6.0555 -18.5058
v 15.6232 6.0799 -19.1063
v 13.6745 8.0497 -19.3280
v 15.2771 8.0497 -19.3280
v 9.0312 -2.7532 -14.8986
v 10.1791 -2.7532 -14.8986
v 6.8368 -0.6776 -15.1075
v 8.2061 -1.4746 -15.3230
v 10.8949 -1.4959 -15.1913
v 11.9949 -0.7131 -14.8879
v 6.6731 1.0799 -15.4636
v 8.1179 1.0984 -16.6122
v 10.7185 0.4379 -16.4676
v 12.3602 1.0477 -15.8547
v 6.5200 3.5799 -15.7678
v 7.2800 3.5799 -17.0178
v 12.5970 3.5799 -16.0549
v 6.6327 5.5031 -15.5131
v 8.0683 5.8786 -16.2298
v 10.7185 5.8979 -16.0549
v 12.1273 5.0919 -16.0549
v 6.8183 -2.7621 -12.7446
v 8.2061 -2.8460 -13.5687
v 10.3235 -2.8211 -13.5549
v 6.4497 -1.4746 -13.5687
v 7.3645 -2.3442 -14.4113
v 11.5602 -1.4959 -13.6604
v 11.9949 -0.7131 -14.5641
v 5.8072 1.0799 -13.5549
v 11.3638 1.0799 -13.2385
v 12.1598 1.0799 -14.4885
v 4.4352 4.6199 -12.3529
v 5.2666 3.7039 -13.3337
v 9.0807 4.2787 -12.6246
v 10.5771 3.4992 -13.2446
v 12.2852 3.5799 -14.4897
v 4.4352 4.8704 -12.3529
v 5.7670 5.4524 -13.3337
v 8.2358 5.8331 -13.4967
v 10.7185 5.5906 -14.2403
v 12.1622 5.1691 -14.5658
v 6.2495 -3.1042 -11.0549
v 8.2185 -3.4579 -11.0549
v 9.9498 -3.0238 -11.0549
v 4.0499 -0.9798 -10.4133
v 5.0436 -1.6560 -11.1699
v 9.3142 -0.4049 -10.0117
v 10.2612 -1.3110 -10.9290
v 3.7531 1.0799 -10.7479
v 4.8526 1.0799 -11.9979
v 9.3142 0.0473 -10.0117
v 10.1604 0.9603 -10.9290
v 3.8039 3.7039 -11.1943
v 4.7301 2.9532 -12.1205
v 8.6810 4.0074 -11.0549
v 9.8239 2.7574 -11.0549
v 4.0391 5.3481 -11.0549
v 5.7185 5.7335 -11.0549
v 7.4310 5.2153 -11.0549
v 6.9110 -5.1990 -7.3998
v 7.0287 -5.1990 -7.3998
v 4.1724 -2.8804 -8.0809
v 5.7022 -3.8520 -8.5737
v 8.2122 -3.9236 -8.2612
v 9.6808 -3.0235 -9.1226
v 1.7958 -0.4153 -7.4982
v 3.2778 -1.5309 -8.6229
v 4.4934 -2.6465 -9.7476
v 9.0392 -1.3110 -8.3955
v 9.6808 -2.0716 -9.1226
v 1.3836 1.0799 -7.8979
v 2.5031 1.0799 -9.1479
v 6.3562 2.0359 -7.5506
v 8.3139 1.0416 -8.5555
v 9.7613 1.7139 -9.5604
v 1.3614 2.7915 -7.9023
v 2.6942 3.6068 -8.6633
v 6.1260 3.5799 -7.8857
v 8.0712 3.5026 -9.1228
v 9.7613 2.6177 -9.5604
v 3.9020 5.5019 -8.5549
v 5.6619 5.4816 -8.6221
v 7.1396 5.0200 -9.5003
v 6.9110 -5.1990 -7.1684
v 7.0287 -5.1990 -7.1684
v 1.5707 -3.2197 -5.3257
v 3.2909 -3.3658 -6.1174
v 5.9340 -4.2609 -6.2230
v 7.5625 -3.8949 -6.2230
v 1.2622 -1.3173 -6.1174
v 2.5057 -2.0820 -6.9924
v 7.9358 -1.4201 -6.0549
v -0.8272 1.6726 -5.3420
v 0.1365 0.9355 -6.1271
v 4.4423 2.3020 -4.9447
v 5.6012 1.6799 -5.8888
v 7.2385 0.2883 -6.0549
v -0.8272 2.9415 -5.3420
v 0.6042 3.3597 -6.1271
v 3.5140 3.7155 -6.0567
v 4.8760 3.5799 -6.6826
v 4.2524 5.0755 -7.1686
v 4.7907 5.0755 -7.1686
v 4.1407 -5.3277 -2.6680
v 5.0184 -5.3277 -2.6680
v -0.6851 -2.6918 -2.3328
v 0.7299 -3.3290 -3.3216
v 3.2718 -4.5558 -3.5228
v 5.7985 -4.5012 -3.5228
v 7.2886 -3.4093 -3.5549
v -3.0668 -0.4091 -2.3357
v -1.6237 -1.3135 -2.7368
v -0.0349 -1.4201 -4.0717
v 4.4411 -0.1839 -2.3244
v 5.7185 -0.5775 -2.9248
v 7.2335 -1.4878 -3.7891
v -3.0668 -0.1320 -2.3357
v -1.3725 0.8778 -3.4334
v 0.2799 1.0286 -3.5735
v 3.6084 1.2610 -3.3269
v 5.7185 0.4878 -4.1748
v 6.9834 -0.0983 -4.7785
v -0.8272 2.9415 -4.2460
v 0.7185 3.2709 -4.0291
v 2.7756 2.9729 -4.3294
v -0.7042 -5.2676 0.0884
v 0.0395 -5.2676 0.0884
v 4.1407 -5.3277 -1.5802
v 5.0184 -5.3277 -1.5802
v -3.1887 -2.7608 -0.1110
v -1.5280 -3.5597 -0.8446
v 0.8111 -4.3962 -0.8689
v 3.2718 -4.6643 -0.8700
v 5.6291 -4.0432 -0.8952
v 7.2259 -3.2811 -1.8769
v -3.2542 -1.3135 -0.9886
v -2.3518 -2.0758 -1.7777
v 4.2161 -0.6954 -1.0549
v 5.5313 -1.9080 -1.0481
v 7.2259 -2.3662 -1.8769
v -3.1919 0.0062 -1.0549
v -1.7815 1.0106 -1.0549
v 0.7185 1.3878 -1.0549
v 2.9661 0.3834 -1.0549
v -0.7042 -5.2676 0.7115
v 0.7106 -5.2830 1.3863
v 2.5563 -5.2983 2.0611
v -8.2029 -2.9364 2.5028
v -6.7815 -3.2290 2.1881
v -4.1258 -3.4562 1.4048
v -1.6351 -4.5959 1.5050
v 0.7106 -5.0234 1.3863
v 3.3212 -4.7721 1.3147
v 4.7658 -3.5515 1.4451
v -8.2029 -2.3230 2.5028
v -6.7815 -2.0580 2.1881
v -4.0327 -1.1921 1.6029
v -3.0023 -0.1833 2.6612
v 1.5074 -0.5150 2.2991
v 3.2830 -1.0673 1.4575
v 4.7658 -2.2830 1.4451
v -3.2101 0.0268 0.9945
v -2.0140 0.5410 1.6748
v 0.6919 0.6316 1.4575
v 2.4927 0.1778 0.6325
v 1.3237 -5.3293 3.9451
v 2.5358 -5.3293 3.9451
v -8.2030 -2.9379 3.9451
v -6.7815 -3.8245 3.9451
v -4.2815 -4.6454 3.9451
v -1.7815 -4.6327 3.9451
v 0.0737 -4.7941 3.9451
v 3.8032 -4.0941 4.0372
v 4.7603 -3.3768 3.2652
v -8.2030 -2.3201 3.9451
v -6.7815 -1.5318 3.9451
v -4.0466 -0.5474 3.9474
v -3.0023 -0.1833 3.1156
v 1.0190 -0.7387 3.9451
v 3.3494 -1.9033 4.0372
v 4.7603 -2.3008 3.2652
v -3.0567 -0.1624 4.7823
v -2.0140 -0.0254 3.9474
v -0.2310 0.0050 3.9451
v -6.3007 -5.7888 6.9980
v -4.2815 -5.7796 6.7614
v -2.5250 -5.3641 7.1473
v 1.6956 -5.2542 5.3365
v 2.1371 -5.2542 5.3365
v -8.0888 -2.7609 5.5184
v -7.0338 -3.9005 6.2582
v -4.2815 -4.9809 5.5114
v -1.7276 -4.7078 6.3664
v 0.8425 -4.0126 6.4127
v 2.5711 -3.9201 5.7715
v -8.0888 -2.5505 5.5184
v -6.7907 -1.4860 6.4075
v -4.7233 -0.4216 5.6300
v 1.2160 -1.4181 6.5714
v 2.6033 -2.2500 5.8223
v -5.8147 0.0257 7.2967
v -4.0466 0.0080 6.4561
v -1.7815 0.1936 6.4451
v 0.0122 0.1178 6.4451
v -8.5279 -5.6344 9.4252
v -6.9930 -6.0101 8.7332
v -4.3364 -5.8479 8.8903
v -2.5250 -5.3641 8.0205
v -8.5554 -3.9201 9.2208
v -7.7849 -3.9201 7.9708
v -3.5396 -4.7956 9.6871
v -1.7276 -4.4294 8.8903
v 0.0543 -3.2751 8.9451
v -8.2336 -2.3320 9.6659
v -6.7907 -1.2635 9.0619
v -4.2815 -0.2466 9.9755
v -2.9392 -0.2473 9.9729
v 0.8414 -1.4201 8.9451
v -5.8147 0.0257 8.4579
v -4.2815 0.0467 8.7255
v -1.9761 0.2710 9.0618
v 0.2556 0.3112 8.9451
v -10.8147 -5.5922 12.3373
v -9.3293 -5.9559 11.4804
v -6.7689 -5.8928 11.4003
v -5.2063 -5.4871 10.5371
v -10.9595 -3.9201 12.2038
v -9.8054 -3.9201 10.9538
v -5.9272 -4.9204 12.2038
v -4.1745 -4.0247 11.5275
v -1.7815 -3.1956 10.9059
v -0.2713 -2.9119 10.4866
v -10.8646 -1.4201 12.3504
v -9.1527 -1.4672 11.1042
v -6.7815 -0.5601 10.4576
v -4.1514 -1.0544 11.3775
v -1.9761 -1.2164 11.0040
v -0.0716 -1.4201 10.7140
v -10.7875 1.0799 12.3973
v -9.0639 1.3154 12.1417
v -7.0082 1.3154 11.6531
v -5.0703 1.0799 11.7866
v -1.2726 0.1080 10.5955
v -0.1785 0.1080 10.5955
v -10.8464 3.5799 12.1379
v -9.0639 3.3496 11.8853
v -7.0505 3.2931 12.1817
v -5.2878 2.5568 12.2751
v -10.7667 5.1666 12.1868
v -9.2815 5.3892 11.8588
v -7.7750 5.2390 12.0884
v -13.0555 -7.7009 15.1491
v -11.7815 -7.9613 14.7808
v -10.1245 -8.0276 14.6887
v -13.0555 -7.4642 15.1491
v -11.8759 -6.5282 14.0855
v -9.2873 -6.7143 13.8912
v -7.6728 -5.5338 13.9451
v -11.9381 -3.9201 13.9451
v -6.4555 -4.0203 14.0864
v -4.8093 -3.2537 13.3472
v -11.6142 -1.4201 13.9451
v -5.8830 -2.0612 15.0138
v -4.8284 -1.3048 14.0864
v -11.5552 1.0799 13.9451
v -8.0855 2.3057 12.8254
v -7.1004 1.9841 13.7885
v -5.1155 0.9294 13.9291
v -11.3774 3.5799 13.9451
v -8.0855 2.3627 12.8254
v -7.1543 3.0523 13.5152
v -5.2878 2.5568 13.0850
v -10.7964 5.2428 13.9451
v -9.2815 5.8889 13.9451
v -7.6737 5.4760 13.9451
v -13.0555 -7.7009 15.2480
v -11.7815 -7.9613 15.6626
v -10.1245 -8.0276 15.7657
v -13.0555 -7.4642 15.2480
v -11.8077 -6.4248 16.3401
v -9.4294 -6.1420 16.3506
v -7.9909 -5.2319 15.2688
v -20.5603 -2.7191 17.6660
v -19.2815 -2.9995 17.4919
v -17.6203 -3.0603 17.4533
v -13.4573 -3.0799 17.2380
v -12.4025 -3.9160 16.4209
v -8.7344 -4.6304 16.9355
v -7.6042 -3.8463 16.2394
v -20.6484 -1.4201 17.5901
v -19.0420 -1.1748 17.4660
v -17.6203 -1.8445 17.4533
v -13.4587 -1.4201 17.1966
v -12.5311 -1.4201 15.9466
v -6.5440 -1.3048 16.2417
v -5.4532 -0.3945 15.2728
v -20.6585 -0.0290 17.5843
v -19.7158 -0.0290 17.5843
v -13.1753 0.0536 17.4875
v -12.4052 0.9641 16.5706
v -8.5008 1.7353 16.9943
v -7.0494 0.8656 16.1335
v -5.4532 -0.0042 15.2728
v -11.2159 3.5296 16.2934
v -9.3130 3.5296 16.5112
v -7.7485 3.5799 15.4673
v -10.6495 5.0438 15.3590
v -9.2815 5.3296 15.4908
v -7.8109 5.2822 15.4256
v -10.6783 -5.3854 17.9001
v -10.4010 -5.3854 17.9001
v -20.6279 -2.8305 18.9451
v -19.2815 -3.6119 18.9451
v -16.7848 -3.5250 18.8993
v -14.2870 -3.3811 18.8993
v -11.6196 -4.4851 18.8181
v -9.3729 -3.9284 18.8149
v -7.8417 -2.9638 18.0630
v -20.8981 -1.4201 18.9451
v -18.0491 -0.1779 17.7168
v -16.7848 -1.1748 18.3081
v -14.7087 -1.4201 18.4451
v -8.7535 -1.4201 19.3515
v -7.7835 -1.4201 18.1015
v -20.8017 0.1294 18.9451
v -19.0420 0.1390 18.7081
v -16.7815 0.0376 19.4561
v -14.1178 0.2727 19.0909
v -11.7911 1.2893 18.8674
v -9.4241 0.8769 18.7590
v -7.8907 0.0687 17.8690
v -10.9641 2.6628 17.9823
v -10.1674 2.6628 17.9823
v -20.6311 -2.8349 20.3315
v -19.0510 -3.1811 21.2769
v -16.7815 -3.7568 21.4451
v -14.2815 -3.7644 21.4451
v -11.7815 -4.1379 21.4451
v -9.2195 -3.8441 21.3900
v -7.6684 -3.3667 22.1867
v -20.7812 -1.4201 20.4700
v -19.0510 -1.5809 21.6639
v -17.8410 -0.8548 22.2766
v -11.0044 -0.2724 22.3421
v -9.3461 -1.2632 21.4310
v -7.6684 -2.2541 22.1867
v -20.7648 0.0881 20.4253
v -19.2815 0.1105 20.6789
v -16.9172 0.1799 21.4440
v -14.2815 0.5390 21.4451
v -11.8152 0.2299 21.4833
v -10.3474 0.0185 20.6754
v -18.0640 -2.7053 22.7255
v -16.7815 -2.9808 23.0537
v -14.2815 -3.1829 23.2370
v -11.6597 -3.4746 23.8600
v -9.2815 -4.5674 23.9451
v -6.8136 -3.6228 24.1604
v -5.5004 -2.7644 25.1373
v -18.0640 -2.5214 22.7255
v -16.9172 -1.5809 23.2538
v -14.2815 -1.4201 23.6358
v -11.7082 -1.3451 23.7051
v -9.2815 -1.1999 23.9451
v -6.8136 -2.0549 24.1604
v -5.5004 -2.6217 25.1373
v -16.1743 0.1362 23.1482
v -14.2815 0.1532 23.0939
v -12.6711 -0.0454 22.7737
v -10.7453 -3.0024 25.4356
v -9.2815 -3.5171 25.8448
v -6.7815 -3.3385 25.7162
v -5.5004 -2.7644 25.2640
v -10.7453 -2.4178 25.4356
v -9.2815 -2.0603 25.8448
v -6.7815 -2.2132 25.7162
v -5.5004 -2.6217 25.2640
f 3 2 1
f 3 4 2
f 6 4 3
f 6 7 4
f 7 5 4
f 7 8 5
f 2 12 1
f 2 13 12
f 13 9 12
f 13 10 9
f 14 10 13
f 14 11 10
f 15 1 12
f 15 3 1
f 16 13 2
f 16 2 4
f 5 16 4
f 5 17 16
f 16 14 13
f 16 17 14
f 15 6 3
f 15 18 6
f 7 6 18
f 7 18 19
f 20 17 5
f 20 5 8
f 20 8 7
f 20 7 19
f 21 19 18
f 21 22 19
f 25 9 10
f 25 24 9
f 26 10 11
f 26 25 10
f 28 9 24
f 28 12 9
f 28 23 27
f 28 24 23
f 30 26 11
f 30 11 14
f 29 25 26
f 29 26 30
f 28 15 12
f 28 32 15
f 31 28 27
f 31 32 28
f 34 30 14
f 34 14 17
f 34 33 29
f 34 29 30
f 35 15 32
f 35 18 15
f 35 32 33
f 35 33 36
f 37 34 17
f 37 17 20
f 20 19 36
f 20 36 37
f 37 36 33
f 37 33 34
f 35 21 18
f 35 38 21
f 39 36 19
f 39 19 22
f 22 21 38
f 22 38 39
f 39 38 35
f 39 35 36
f 41 23 24
f 41 40 23
f 42 24 25
f 42 41 24
f 43 23 40
f 43 27 23
f 42 25 29
f 42 29 44
f 43 31 27
f 43 45 31
f 46 32 31
f 46 31 45
f 47 44 29
f 47 29 33
f 33 32 46
f 33 46 47
f 49 47 46
f 49 50 47
f 50 48 47
f 50 51 48
f 53 40 41
f 53 52 40
f 54 41 42
f 54 53 41
f 52 43 40
f 52 56 43
f 57 54 42
f 57 42 44
f 59 43 56
f 59 45 43
f 58 56 55
f 58 59 56
f 60 46 45
f 60 45 59
f 57 44 47
f 57 47 61
f 48 61 47
f 48 62 61
f 60 49 46
f 60 63 49
f 50 49 63
f 50 63 64
f 62 48 51
f 62 51 65
f 65 51 50
f 65 50 64
f 65 64 61
f 65 61 62
f 68 52 53
f 68 67 52
f 69 53 54
f 69 68 53
f 71 52 67
f 71 56 52
f 71 55 56
f 71 70 55
f 71 66 70
f 71 67 66
f 69 54 57
f 69 57 73
f 72 68 69
f 72 69 73
f 74 55 70
f 74 58 55
f 75 59 58
f 75 58 74
f 60 59 75
f 60 75 76
f 77 73 57
f 77 57 61
f 77 76 72
f 77 72 73
f 78 60 76
f 78 63 60
f 77 61 64
f 77 64 79
f 79 64 63
f 79 63 78
f 78 76 77
f 78 77 79
f 84 80 83
f 84 81 80
f 87 82 86
f 87 83 82
f 88 66 67
f 88 87 66
f 88 83 87
f 88 84 83
f 89 67 68
f 89 88 67
f 88 85 84
f 88 89 85
f 91 66 87
f 91 70 66
f 91 86 90
f 91 87 86
f 92 89 68
f 92 68 72
f 91 74 70
f 91 94 74
f 93 91 90
f 93 94 91
f 95 75 74
f 95 74 94
f 96 92 72
f 96 72 76
f 96 76 75
f 96 75 95
f 99 80 81
f 99 98 80
f 101 80 98
f 101 83 80
f 101 82 83
f 101 100 82
f 101 97 100
f 101 98 97
f 99 81 84
f 99 84 102
f 103 84 85
f 103 102 84
f 104 82 100
f 104 86 82
f 106 103 85
f 106 85 89
f 105 102 103
f 105 103 106
f 104 90 86
f 104 108 90
f 111 106 89
f 111 89 92
f 111 110 105
f 111 105 106
f 108 93 90
f 108 113 93
f 112 108 107
f 112 113 108
f 114 94 93
f 114 93 113
f 115 95 94
f 115 94 114
f 115 114 109
f 115 109 110
f 111 92 96
f 111 96 116
f 116 96 95
f 116 95 115
f 115 110 111
f 115 111 116
f 118 97 98
f 118 117 97
f 119 98 99
f 119 118 98
f 121 97 117
f 121 100 97
f 123 119 99
f 123 99 102
f 125 100 121
f 125 104 100
f 125 120 124
f 125 121 120
f 123 102 105
f 123 105 127
f 127 126 122
f 127 122 123
f 129 104 125
f 129 108 104
f 129 107 108
f 129 128 107
f 129 124 128
f 129 125 124
f 131 127 105
f 131 105 110
f 131 110 109
f 131 109 130
f 132 107 128
f 132 112 107
f 133 113 112
f 133 112 132
f 134 130 109
f 134 109 114
f 134 114 113
f 134 113 133
f 139 117 118
f 139 138 117
f 139 135 138
f 139 136 135
f 140 118 119
f 140 139 118
f 143 117 138
f 143 121 117
f 143 120 121
f 143 142 120
f 143 137 142
f 143 138 137
f 145 140 119
f 145 119 123
f 145 123 122
f 145 122 144
f 144 139 140
f 144 140 145
f 147 120 142
f 147 124 120
f 147 141 146
f 147 142 141
f 144 122 126
f 144 126 149
f 150 126 127
f 150 149 126
f 152 124 147
f 152 128 124
f 151 147 146
f 151 152 147
f 154 153 148
f 154 148 149
f 150 127 131
f 150 131 155
f 155 131 130
f 155 130 154
f 155 154 149
f 155 149 150
f 156 128 152
f 156 132 128
f 157 133 132
f 157 132 156
f 158 154 130
f 158 130 134
f 158 134 133
f 158 133 157
f 158 157 153
f 158 153 154
f 136 159 135
f 136 160 159
f 163 135 159
f 163 138 135
f 163 137 138
f 163 162 137
f 164 160 136
f 164 136 139
f 163 159 160
f 163 160 164
f 166 137 162
f 166 142 137
f 166 141 142
f 166 165 141
f 166 161 165
f 166 162 161
f 167 164 139
f 167 139 144
f 169 141 165
f 169 146 141
f 172 167 144
f 172 144 149
f 172 149 148
f 172 148 171
f 169 151 146
f 169 174 151
f 174 168 173
f 174 169 168
f 175 152 151
f 175 151 174
f 176 171 148
f 176 148 153
f 176 175 170
f 176 170 171
f 177 152 175
f 177 156 152
f 178 176 153
f 178 153 157
f 178 157 156
f 178 156 177
f 177 175 176
f 177 176 178
f 183 161 162
f 183 182 161
f 184 162 163
f 184 183 162
f 184 179 183
f 184 180 179
f 185 163 164
f 185 184 163
f 188 161 182
f 188 165 161
f 188 181 187
f 188 182 181
f 185 164 167
f 185 167 191
f 192 187 186
f 192 193 187
f 188 169 165
f 188 194 169
f 194 168 169
f 194 193 168
f 193 188 187
f 193 194 188
f 196 171 170
f 196 170 195
f 196 195 189
f 196 189 190
f 197 191 167
f 197 167 172
f 172 171 196
f 172 196 197
f 197 196 190
f 197 190 191
f 198 168 193
f 198 173 168
f 199 174 173
f 199 173 198
f 198 193 194
f 198 194 199
f 200 195 170
f 200 170 175
f 200 175 174
f 200 174 199
f 200 199 194
f 200 194 195
f 180 203 179
f 180 204 203
f 207 181 182
f 207 206 181
f 207 201 206
f 207 202 201
f 208 179 203
f 208 183 179
f 183 207 182
f 183 208 207
f 204 180 184
f 204 184 209
f 208 203 204
f 208 204 209
f 210 184 185
f 210 209 184
f 212 181 206
f 212 187 181
f 212 186 187
f 212 211 186
f 212 205 211
f 212 206 205
f 190 189 213
f 190 213 214
f 215 210 185
f 215 185 191
f 215 191 190
f 215 190 214
f 214 209 210
f 214 210 215
f 216 186 211
f 216 192 186
f 217 193 192
f 217 192 216
f 218 194 193
f 218 193 217
f 219 213 189
f 219 189 195
f 195 194 218
f 195 218 219
f 202 220 201
f 202 221 220
f 226 201 220
f 226 206 201
f 226 205 206
f 226 225 205
f 227 221 202
f 227 202 207
f 227 226 220
f 227 220 221
f 228 207 208
f 228 227 207
f 227 222 221
f 227 228 222
f 229 208 209
f 229 228 208
f 231 223 230
f 231 224 223
f 232 205 225
f 232 211 205
f 231 225 224
f 231 232 225
f 236 229 209
f 236 209 214
f 236 214 213
f 236 213 235
f 237 211 232
f 237 216 211
f 217 216 237
f 217 237 238
f 237 232 233
f 237 233 238
f 239 218 217
f 239 217 238
f 240 235 213
f 240 213 219
f 240 219 218
f 240 218 239
f 240 239 234
f 240 234 235
f 222 241 221
f 222 242 241
f 244 223 224
f 244 243 223
f 245 224 225
f 245 244 224
f 226 245 225
f 226 246 245
f 241 227 221
f 241 247 227
f 247 226 227
f 247 246 226
f 248 242 222
f 248 222 228
f 249 228 229
f 249 248 228
f 243 230 223
f 243 250 230
f 251 231 230
f 251 230 250
f 252 232 231
f 252 231 251
f 233 232 252
f 233 252 253
f 255 235 234
f 255 234 254
f 249 229 236
f 249 236 256
f 256 236 235
f 256 235 255
f 256 255 248
f 256 248 249
f 258 233 253
f 258 238 233
f 257 253 252
f 257 258 253
f 259 254 234
f 259 234 239
f 259 239 238
f 259 238 258
f 264 241 242
f 264 263 241
f 244 265 243
f 244 266 265
f 267 244 245
f 267 266 244
f 267 260 266
f 267 261 260
f 246 267 245
f 246 268 267
f 267 262 261
f 267 268 262
f 263 247 241
f 263 269 247
f 247 268 246
f 247 269 268
f 270 264 242
f 270 242 248
f 270 269 263
f 270 263 264
f 271 243 265
f 271 250 243
f 251 250 271
f 251 271 272
f 271 265 266
f 271 266 272
f 273 252 251
f 273 251 272
f 270 248 255
f 270 255 275
f 275 255 254
f 275 254 274
f 275 274 269
f 275 269 270
f 273 257 252
f 273 277 257
f 276 273 272
f 276 277 273
f 278 258 257
f 278 257 277
f 279 274 254
f 279 254 259
f 259 258 278
f 259 278 279
f 282 260 261
f 282 281 260
f 283 261 262
f 283 282 261
f 285 260 281
f 285 266 260
f 285 280 284
f 285 281 280
f 283 262 268
f 283 268 287
f 286 282 283
f 286 283 287
f 288 268 269
f 288 287 268
f 285 272 266
f 285 290 272
f 289 285 284
f 289 290 285
f 288 269 274
f 288 274 293
f 290 276 272
f 290 294 276
f 295 277 276
f 295 276 294
f 294 290 291
f 294 291 295
f 296 278 277
f 296 277 295
f 295 291 292
f 295 292 296
f 293 274 279
f 293 279 297
f 297 279 278
f 297 278 296
f 300 280 281
f 300 299 280
f 301 281 282
f 301 300 281
f 303 280 299
f 303 284 280
f 303 298 302
f 303 299 298
f 301 282 286
f 301 286 305
f 304 300 301
f 304 301 305
f 306 286 287
f 306 305 286
f 307 287 288
f 307 306 287
f 303 289 284
f 303 309 289
f 308 303 302
f 308 309 303
f 310 290 289
f 310 289 309
f 291 290 310
f 291 310 311
f 292 291 311
f 292 311 312
f 311 305 306
f 311 306 312
f 307 288 293
f 307 293 313
f 312 306 307
f 312 307 313
f 315 308 314
f 315 309 308
f 315 310 309
f 315 316 310
f 317 310 316
f 317 311 310
f 318 292 312
f 318 296 292
f 319 313 293
f 319 293 297
f 297 296 318
f 297 318 319
f 318 312 313
f 318 313 319
f 320 315 314
f 320 321 315
f 323 316 322
f 323 317 316
f 325 320 324
f 325 321 320
f 326 321 325
f 326 322 321
f 330 328 327
f 330 331 328
f 332 298 299
f 332 331 298
f 331 329 328
f 331 332 329
f 333 299 300
f 333 332 299
f 334 298 331
f 334 302 298
f 333 300 304
f 333 304 335
f 336 304 305
f 336 335 304
f 337 302 334
f 337 308 302
f 336 305 311
f 336 311 339
f 338 335 336
f 338 336 339
f 340 308 337
f 340 314 308
f 316 315 341
f 316 341 342
f 339 311 317
f 339 317 343
f 344 314 340
f 344 320 314
f 345 341 315
f 345 315 321
f 342 322 316
f 342 346 322
f 322 345 321
f 322 346 345
f 346 341 345
f 346 342 341
f 347 343 317
f 347 317 323
f 347 323 322
f 347 322 346
f 347 346 342
f 347 342 343
f 344 324 320
f 344 348 324
f 349 325 324
f 349 324 348
f 346 322 326
f 346 326 350
f 326 325 349
f 326 349 350
f 328 351 327
f 328 352 351
f 329 352 328
f 329 353 352
f 351 330 327
f 351 354 330
f 331 330 354
f 331 354 355
f 354 351 352
f 354 352 355
f 353 329 332
f 353 332 356
f 355 352 353
f 355 353 356
f 357 332 333
f 357 356 332
f 355 334 331
f 355 362 334
f 357 333 335
f 357 335 364
f 363 356 357
f 363 357 364
f 365 359 358
f 365 366 359
f 367 359 366
f 367 360 359
f 369 334 362
f 369 337 334
f 369 361 368
f 369 362 361
f 364 335 338
f 364 338 370
f 371 338 339
f 371 370 338
f 373 365 372
f 373 366 365
f 369 340 337
f 369 375 340
f 374 369 368
f 374 375 369
f 378 371 339
f 378 339 343
f 343 342 377
f 343 377 378
f 378 377 370
f 378 370 371
f 379 340 375
f 379 344 340
f 381 377 342
f 381 342 346
f 381 380 376
f 381 376 377
f 382 344 379
f 382 348 344
f 349 348 382
f 349 382 383
f 382 379 380
f 382 380 383
f 381 346 350
f 381 350 384
f 384 350 349
f 384 349 383
f 383 380 381
f 383 381 384
f 356 385 355
f 356 386 385
f 359 387 358
f 359 388 387
f 360 388 359
f 360 389 388
f 385 362 355
f 385 391 362
f 391 361 362
f 391 390 361
f 386 356 363
f 386 363 392
f 391 385 386
f 391 386 392
f 393 363 364
f 393 392 363
f 394 358 387
f 394 365 358
f 396 389 360
f 396 360 367
f 367 366 395
f 367 395 396
f 397 361 390
f 397 368 361
f 397 389 396
f 397 390 389
f 393 364 370
f 393 370 399
f 398 392 393
f 398 393 399
f 394 372 365
f 394 400 372
f 395 366 373
f 395 373 401
f 373 372 400
f 373 400 401
f 402 395 401
f 402 396 395
f 397 374 368
f 397 403 374
f 402 397 396
f 402 403 397
f 404 375 374
f 404 374 403
f 406 399 370
f 406 370 377
f 406 377 376
f 406 376 405
f 406 405 398
f 406 398 399
f 407 375 404
f 407 379 375
f 408 405 376
f 408 376 380
f 408 380 379
f 408 379 407
f 408 407 404
f 408 404 405
f 388 409 387
f 388 410 409
f 389 410 388
f 389 411 410
f 412 389 390
f 412 411 389
f 413 390 391
f 413 412 390
f 392 413 391
f 392 414 413
f 409 394 387
f 409 416 394
f 417 416 409
f 417 409 410
f 414 392 398
f 414 398 420
f 421 414 420
f 421 415 414
f 422 394 416
f 422 400 394
f 423 401 400
f 423 400 422
f 423 422 416
f 423 416 417
f 402 401 423
f 402 423 424
f 423 417 418
f 423 418 424
f 425 403 402
f 425 402 424
f 426 404 403
f 426 403 425
f 427 420 398
f 427 398 405
f 427 405 404
f 427 404 426
f 427 426 419
f 427 419 420
f 411 428 410
f 411 429 428
f 412 429 411
f 412 430 429
f 413 430 412
f 413 431 430
f 414 431 413
f 414 432 431
f 415 432 414
f 415 433 432
f 428 417 410
f 428 435 417
f 418 417 435
f 418 435 436
f 435 428 429
f 435 429 436
f 437 436 429
f 437 429 430
f 438 437 430
f 438 430 431
f 439 420 419
f 439 419 438
f 440 433 415
f 440 415 421
f 421 420 439
f 421 439 440
f 440 434 433
f 440 441 434
f 442 418 436
f 442 424 418
f 425 424 442
f 425 442 443
f 442 436 437
f 442 437 443
f 444 438 419
f 444 419 426
f 444 426 425
f 444 425 443
f 444 443 437
f 444 437 438
f 432 445 431
f 432 446 445
f 433 446 432
f 433 447 446
f 434 447 433
f 434 448 447
f 449 431 445
f 449 438 431
f 439 438 449
f 439 449 450
f 450 449 445
f 450 445 446
f 440 439 450
f 440 450 451
f 450 446 447
f 450 447 451
f 448 434 441
f 448 441 452
f 441 440 451
f 441 451 452
f 451 447 448
f 451 448 452
