# parsimony mesh: eg11837_monomer (source /Users/eranagmon/code/v2e-abund/workspace/studies/ecoli-3d/viz/3d/structures/eg11837_monomer.pdb)
# atoms: 4732  voxel: 16 Å  verts: 103  tris: 200
v 17.8055 -10.1614 -38.0101
v 18.8600 -10.1614 -38.0101
v 17.1268 -1.8192 -38.5014
v 21.9621 -1.8192 -38.5014
v 16.5287 14.1808 -39.4564
v 27.3533 13.2371 -40.2640
v 35.7577 17.9412 -39.6097
v 17.0080 23.4656 -39.2834
v 26.3745 24.3831 -40.3362
v 35.7577 23.8325 -39.6097
v -16.5402 -11.8906 -23.3211
v -5.6255 -14.3056 -23.6658
v 11.6331 -13.2161 -28.6738
v 25.0658 -12.0430 -28.7673
v 35.3320 -11.7747 -22.8340
v -18.0589 -1.8192 -24.0564
v -4.5102 -0.9287 -24.1851
v 8.2104 -0.9287 -28.6738
v 29.9621 -1.8192 -32.1612
v 35.1973 -1.8192 -24.1612
v -16.6220 7.2653 -23.1990
v -9.1001 7.2653 -23.1990
v 14.1320 15.4240 -28.4478
v 29.3594 13.3847 -29.1264
v 35.1359 12.2160 -30.0525
v 17.0080 23.4656 -32.9682
v 26.3745 24.3831 -33.1019
v 35.7577 23.8325 -36.2792
v -0.5516 -28.2207 -10.2320
v 10.3745 -27.9660 -9.8036
v 19.1474 -26.2800 -6.6177
v -30.4539 -10.8178 -7.7511
v -21.7743 -12.6499 -13.3176
v -5.7811 -20.7971 -14.8061
v 10.3745 -21.8086 -17.8036
v 25.5166 -16.8346 -12.8994
v 35.3320 -11.7747 -19.1810
v -31.8422 -1.8192 -9.9070
v -26.0589 -1.8192 -17.9070
v 1.5666 4.9983 -20.6175
v 3.0980 4.9983 -20.6175
v 31.5794 -1.8192 -10.8218
v 35.1973 -1.8192 -18.8218
v -31.7527 9.8071 -9.2364
v -21.8234 11.1083 -14.2087
v -4.5102 9.7307 -14.6374
v 9.2086 11.4581 -14.6374
v 27.2316 10.8460 -14.4826
v 34.5140 6.4908 -20.3595
v -0.5516 -28.2207 -2.6672
v 10.3745 -27.9660 -2.9180
v 19.1474 -26.2800 -5.0016
v -31.5011 -11.8249 2.3327
v -21.6255 -14.2073 2.3327
v -5.7811 -19.9407 2.5328
v 10.3745 -21.2090 5.0820
v 21.8677 -17.1155 1.1321
v -34.2304 -1.8192 2.3327
v 26.4985 -1.8192 2.3327
v -32.6556 14.7566 2.1339
v -21.6255 19.5268 -2.7915
v -5.6255 17.8048 -0.8525
v 9.1665 16.2010 3.6850
v 22.7117 9.7084 2.3327
v -31.0366 23.3607 7.3346
v -21.6255 24.4264 5.2085
v -5.6255 23.8133 7.1475
v 3.0278 22.5432 9.9199
v -31.2978 -11.4948 13.0879
v -21.4531 -12.8596 18.3858
v -5.6255 -17.7257 18.3327
v 10.5468 -15.0057 18.4568
v 20.5791 -11.3131 13.2063
v -31.9586 -1.3179 18.3858
v -26.6715 -6.3170 23.7545
v 14.8732 -1.8192 22.4463
v 21.2937 -1.8192 14.4463
v -31.8019 13.6497 18.0518
v -21.6255 19.2513 23.7314
v -5.6255 19.4114 22.4532
v 9.5567 13.5000 17.2188
v 20.0622 8.1577 12.9440
v -31.0366 23.3607 12.5312
v -21.6255 24.4264 15.7314
v -5.6255 23.8133 14.4532
v 3.0278 22.5432 10.8270
v -16.0049 -11.6823 31.0925
v -4.4784 -13.4312 35.5886
v 4.6109 -12.9368 34.3327
v -30.3297 4.3497 27.2467
v -21.4531 -1.3179 32.0781
v -6.9046 -1.8192 40.8290
v 6.9958 -1.8192 34.3327
v -30.3297 7.9623 27.2467
v -21.6255 11.2513 29.9446
v -4.5958 10.4421 35.0738
v 4.7594 7.7731 34.3327
v 1.6196 -9.8517 42.3577
v 2.4025 -9.8517 42.3577
v 1.0954 -1.8192 42.4374
v 2.4972 -1.8192 42.4374
v 1.4239 6.3089 42.4473
v 2.5100 6.3089 42.4473
f 3 2 1
f 3 4 2
f 5 4 3
f 5 6 4
f 9 5 8
f 9 6 5
f 9 7 6
f 9 10 7
f 14 1 2
f 14 13 1
f 17 11 16
f 17 12 11
f 13 3 1
f 13 18 3
f 18 12 17
f 18 13 12
f 14 2 4
f 14 4 19
f 19 15 14
f 19 20 15
f 22 16 21
f 22 17 16
f 23 3 18
f 23 5 3
f 19 4 6
f 19 6 24
f 25 6 7
f 25 24 6
f 25 19 24
f 25 20 19
f 26 5 23
f 26 8 5
f 27 9 8
f 27 8 26
f 27 26 23
f 27 23 24
f 28 25 7
f 28 7 10
f 28 10 9
f 28 9 27
f 28 27 24
f 28 24 25
f 34 11 12
f 34 33 11
f 35 12 13
f 35 34 12
f 35 29 34
f 35 30 29
f 14 35 13
f 14 36 35
f 35 31 30
f 35 36 31
f 37 14 15
f 37 36 14
f 39 11 33
f 39 16 11
f 39 32 38
f 39 33 32
f 41 18 17
f 41 17 40
f 43 37 15
f 43 15 20
f 42 36 37
f 42 37 43
f 39 21 16
f 39 45 21
f 44 39 38
f 44 45 39
f 40 17 22
f 40 22 46
f 46 22 21
f 46 21 45
f 41 23 18
f 41 47 23
f 46 41 40
f 46 47 41
f 48 24 23
f 48 23 47
f 49 43 20
f 49 20 25
f 49 25 24
f 49 24 48
f 49 48 42
f 49 42 43
f 30 50 29
f 30 51 50
f 31 51 30
f 31 52 51
f 54 32 33
f 54 53 32
f 50 34 29
f 50 55 34
f 55 33 34
f 55 54 33
f 56 55 50
f 56 50 51
f 57 52 31
f 57 31 36
f 56 51 52
f 56 52 57
f 58 32 53
f 58 38 32
f 59 57 36
f 59 36 42
f 58 44 38
f 58 60 44
f 61 45 44
f 61 44 60
f 62 46 45
f 62 45 61
f 47 46 62
f 47 62 63
f 64 59 42
f 64 42 48
f 64 48 47
f 64 47 63
f 65 61 60
f 65 66 61
f 66 62 61
f 66 67 62
f 68 62 67
f 68 63 62
f 54 69 53
f 54 70 69
f 71 54 55
f 71 70 54
f 56 71 55
f 56 72 71
f 73 56 57
f 73 72 56
f 69 58 53
f 69 74 58
f 75 74 69
f 75 69 70
f 73 57 59
f 73 59 77
f 76 72 73
f 76 73 77
f 78 58 74
f 78 60 58
f 82 77 59
f 82 59 64
f 82 64 63
f 82 63 81
f 82 81 76
f 82 76 77
f 83 60 78
f 83 65 60
f 66 65 83
f 66 83 84
f 84 83 78
f 84 78 79
f 67 66 84
f 67 84 85
f 84 79 80
f 84 80 85
f 86 81 63
f 86 63 68
f 86 68 67
f 86 67 85
f 86 85 80
f 86 80 81
f 71 87 70
f 71 88 87
f 89 71 72
f 89 88 71
f 87 75 70
f 87 91 75
f 75 90 74
f 75 91 90
f 92 91 87
f 92 87 88
f 89 72 76
f 89 76 93
f 94 74 90
f 94 78 74
f 79 78 94
f 79 94 95
f 95 94 90
f 95 90 91
f 80 79 95
f 80 95 96
f 96 95 91
f 96 91 92
f 97 93 76
f 97 76 81
f 97 81 80
f 97 80 96
f 89 98 88
f 89 99 98
f 98 92 88
f 98 100 92
f 99 89 93
f 99 93 101
f 102 92 100
f 102 96 92
f 103 101 93
f 103 93 97
f 97 96 102
f 97 102 103
