# parsimony mesh: eg11355_monomer (source /Users/eranagmon/code/v2e-flagella/workspace/studies/ecoli-3d/viz/3d/structures/eg11355_monomer.pdb)
# atoms: 1936  voxel: 8 Å  verts: 221  tris: 444
v -5.3632 0.8069 -30.1699
v -4.0824 0.8069 -30.1699
v -5.3632 3.1547 -30.1699
v -4.0824 3.1547 -30.1699
v -20.5737 1.1422 -21.8357
v -16.5463 0.3514 -22.8470
v -8.2364 -0.5027 -25.8166
v -2.5815 -0.1231 -25.8004
v 9.2783 -0.3818 -23.8051
v 13.9402 -0.3818 -23.8051
v 25.0301 0.2384 -24.0129
v 28.8117 0.2384 -24.0129
v -20.5737 1.2918 -21.8357
v -16.1769 4.4651 -24.0048
v -8.2364 5.5829 -28.3529
v -2.2837 5.5829 -26.1696
v 9.2783 2.8676 -23.8051
v 16.5207 5.2900 -22.8537
v 22.7996 5.1175 -23.5065
v 29.0061 5.2251 -23.8567
v -13.2640 9.5309 -24.0790
v -8.5463 9.7111 -24.9708
v -3.3951 9.5673 -23.7491
v 19.1012 9.3816 -21.9022
v 23.7966 12.5190 -22.5253
v 28.3850 13.2251 -22.6303
v 26.6919 18.3257 -22.3776
v 27.9835 18.3257 -22.3776
v 10.6698 -7.6496 -14.6561
v 15.4537 -8.4824 -15.6809
v 21.1576 -8.1768 -15.4521
v -20.7191 0.8178 -17.8004
v -16.5463 -0.8377 -17.8004
v -8.5463 -3.4332 -17.8004
v -0.0527 -1.6941 -17.9808
v 7.3074 -2.6758 -17.7119
v 16.1456 -2.9390 -19.9160
v 23.0939 -2.6964 -18.4689
v 29.2026 -0.6572 -17.8004
v -20.7191 1.7946 -17.8004
v -16.1769 5.6801 -18.0815
v -8.5463 7.7145 -16.1296
v -0.2260 5.4413 -17.9360
v 7.2606 5.2691 -17.6600
v 16.5207 5.2900 -20.6857
v 19.6968 2.3791 -21.4857
v 30.1682 5.2251 -17.8004
v -13.2640 9.5309 -20.9355
v -8.5463 9.7111 -20.1296
v -3.3951 9.5673 -20.4376
v 10.5763 9.4291 -14.5524
v 16.0422 9.8575 -17.4516
v 23.7966 13.6528 -17.7404
v 28.5441 13.1428 -17.7404
v 26.6919 18.3257 -20.3671
v 27.9835 18.3257 -20.3671
v -21.1275 -7.2212 -6.7484
v -19.7005 -7.2212 -6.7484
v -5.7295 -9.3147 -8.4140
v -0.5463 -9.6132 -8.9049
v 7.7834 -8.7831 -9.9159
v 15.4537 -10.2689 -9.8004
v 21.6652 -8.6921 -9.8004
v -21.4524 -2.2510 -9.5692
v -16.8388 -3.5869 -9.5692
v -8.4562 -4.8854 -10.5686
v -0.5463 -5.3894 -12.9049
v 5.3364 -4.9699 -12.6595
v 25.6652 -4.8499 -9.8004
v 29.1248 -0.8499 -9.8004
v -21.4794 4.8407 -9.7016
v -16.5463 6.7439 -11.6804
v -8.7498 6.7029 -9.8032
v -0.5463 4.6093 -9.8004
v 7.7272 6.6871 -10.0190
v 13.0475 8.2802 -7.4980
v 25.7742 8.2097 -7.2279
v 29.1360 5.4159 -9.8569
v -21.1724 9.6756 -6.9691
v -16.5463 10.4052 -7.6804
v -11.5521 10.3481 -7.1384
v 10.5763 9.4291 -12.8313
v 15.6100 9.9260 -10.0190
v 23.2460 10.5213 -9.8569
v 28.0293 10.4213 -12.5612
v 2.4924 -15.1693 1.7653
v 7.4537 -15.6971 0.9027
v 12.5847 -15.6101 0.9047
v -21.9720 -7.8825 -1.8004
v -16.8388 -7.7373 -1.0924
v -8.4562 -9.4922 -1.0924
v -0.3231 -13.3627 -1.2610
v 7.4537 -12.6291 -3.0973
v 15.3323 -12.2437 -1.7774
v 21.2252 -8.6902 -1.8004
v -22.7014 -2.7749 -1.8004
v -14.3672 -5.2095 -3.2871
v -11.0628 -5.2095 -3.2871
v 24.4845 -2.7211 -2.0269
v 28.7079 -0.0186 -4.8446
v -22.1910 5.2251 -1.8004
v -6.2188 7.0356 -4.1696
v -0.0307 6.4850 -1.6220
v 7.0610 7.2317 -1.8965
v 15.8237 8.2988 -1.8421
v 22.9587 5.5969 -1.9507
v 28.7079 2.8764 -4.8446
v -21.4616 10.1841 -1.8004
v -16.5463 11.7652 -1.8004
v -8.6752 12.9459 -1.2830
v -1.8477 13.2251 0.9757
v 9.4659 9.6973 0.7060
v 15.8237 9.5966 -1.8421
v 20.4409 9.4959 -4.3902
v -5.7983 17.8227 1.6036
v -3.1408 17.8227 1.6036
v -20.9907 -15.1013 9.7615
v -16.5463 -15.3081 9.4591
v -8.5463 -16.2447 8.3931
v -0.3231 -17.1733 5.8839
v 8.0539 -16.7294 6.7675
v 12.5847 -15.6101 4.4795
v -29.0164 -7.4611 9.2760
v -24.0950 -10.3000 6.8521
v -16.5463 -11.6432 5.4591
v -8.5463 -12.2667 4.3931
v -2.8409 -13.9701 3.0067
v 11.1207 -14.4859 9.8128
v 15.3323 -12.7725 6.7675
v 20.8282 -8.4886 6.1996
v -29.0523 -2.7749 9.2907
v -25.7210 -2.7749 5.2907
v 21.3726 -2.7749 6.1996
v -28.7509 1.4809 9.9113
v -24.3236 4.5786 6.8266
v 2.9797 8.5783 2.6359
v 7.1319 8.1432 5.5750
v 15.7414 6.2205 5.9883
v 19.9981 2.6071 6.1996
v -21.0830 9.9900 6.1996
v -16.5463 12.0735 6.1996
v -10.4233 15.3086 6.1996
v 2.1523 13.2251 4.2492
v 6.6625 11.7132 6.0771
v 13.2664 9.6973 3.1809
v -6.4233 17.9619 6.1996
v -0.5030 17.8568 6.7775
v 3.5847 17.2956 9.8295
v -20.9907 -15.1013 11.7499
v -16.1059 -15.2594 14.3298
v -8.5463 -17.0889 14.1996
v -0.6740 -17.5541 14.3311
v 5.7873 -16.8027 11.7521
v -29.0164 -7.4611 12.6659
v -24.7105 -10.8662 14.8746
v -18.4790 -14.2713 17.0832
v 2.1324 -10.7749 17.1599
v 8.0700 -10.6834 14.8398
v 14.7612 -8.7964 14.0168
v 20.1692 -7.6605 11.2283
v -29.0218 -3.1489 14.8794
v -28.4302 -6.0649 17.9992
v 2.7779 -2.7749 17.1928
v 7.5931 -3.4885 16.3739
v 14.7612 -3.4885 14.6119
v 20.0176 -2.7749 10.9903
v -28.7881 1.5394 14.1996
v -23.8191 5.3285 13.5210
v -19.0259 7.6451 15.7354
v 2.7681 2.6214 17.1292
v 7.4677 5.1648 14.1475
v 15.4537 2.1501 10.9435
v 19.4901 1.3087 10.2252
v -20.6677 9.4168 10.4020
v -16.4340 11.1453 13.5210
v -10.1914 15.4816 14.1996
v 5.6206 13.2251 14.1996
v -6.1914 17.9909 14.1996
v -0.5463 18.0682 14.1996
v 3.5996 17.3024 14.1996
v -13.6041 -15.1176 22.1996
v -8.8524 -15.6666 21.8610
v -3.4259 -15.8040 18.9686
v -23.0071 -9.2416 22.1996
v -17.6041 -13.2416 22.1996
v -6.3899 -12.6068 24.3020
v -2.1512 -10.2740 21.8610
v 10.3527 -6.8808 18.2587
v 11.6329 -6.8808 18.2587
v -28.6641 -0.7315 18.3739
v -24.8535 -2.9690 21.7534
v -18.5673 0.1269 25.1330
v -6.4039 -0.4937 25.4282
v -1.6348 -3.0062 22.5367
v 10.3527 -6.6308 18.2587
v 11.6329 -6.6308 18.2587
v -28.6641 1.3884 18.3739
v -24.5463 2.1626 19.5304
v -16.1299 4.5754 22.1431
v -8.8609 4.5935 23.9024
v -0.1576 5.2629 20.4373
v 4.8043 7.9547 18.7113
v -13.6925 10.4410 19.1533
v -8.3119 13.1546 20.8701
v -0.5463 13.2251 21.2363
v 4.5143 13.2251 18.6134
v -5.4890 17.8612 20.3743
v -0.5463 17.7267 19.8607
v 3.5173 17.2577 18.2396
v -13.3574 -15.1354 26.6186
v -11.7232 -15.1354 26.6186
v -21.2767 -7.9008 26.9585
v -16.2329 -10.6504 27.7289
v -8.8524 -10.2740 27.4584
v -4.1260 -7.2734 26.5078
v -21.2767 -5.2064 26.9585
v -16.1589 -2.6338 27.6127
v -8.8609 -3.0062 27.3422
v -4.1260 -5.8270 26.5078
v -13.2339 1.5058 26.4249
v -11.7373 1.5058 26.4249
f 3 2 1
f 3 4 2
f 8 1 2
f 8 7 1
f 13 6 5
f 13 14 6
f 15 1 7
f 15 3 1
f 14 7 6
f 14 15 7
f 8 2 4
f 8 4 16
f 4 3 15
f 4 15 16
f 17 10 9
f 17 18 10
f 20 11 19
f 20 12 11
f 21 15 14
f 21 22 15
f 22 16 15
f 22 23 16
f 24 19 18
f 24 25 19
f 25 20 19
f 25 26 20
f 27 26 25
f 27 28 26
f 33 5 6
f 33 32 5
f 34 6 7
f 34 33 6
f 8 34 7
f 8 35 34
f 37 9 10
f 37 36 9
f 37 29 36
f 37 30 29
f 37 31 30
f 37 38 31
f 39 11 12
f 39 38 11
f 32 13 5
f 32 40 13
f 41 14 13
f 41 13 40
f 43 35 8
f 43 8 16
f 36 17 9
f 36 44 17
f 44 35 43
f 44 36 35
f 45 37 10
f 45 10 18
f 45 18 17
f 45 17 44
f 46 11 38
f 46 19 11
f 46 18 19
f 46 45 18
f 46 37 45
f 46 38 37
f 47 39 12
f 47 12 20
f 48 14 41
f 48 21 14
f 49 22 21
f 49 21 48
f 48 41 42
f 48 42 49
f 50 43 16
f 50 16 23
f 23 22 49
f 23 49 50
f 50 49 42
f 50 42 43
f 45 24 18
f 45 52 24
f 51 45 44
f 51 52 45
f 53 25 24
f 53 24 52
f 47 20 26
f 47 26 54
f 55 25 53
f 55 27 25
f 56 54 26
f 56 26 28
f 28 27 55
f 28 55 56
f 55 53 54
f 55 54 56
f 62 29 30
f 62 61 29
f 31 62 30
f 31 63 62
f 33 64 32
f 33 65 64
f 64 58 57
f 64 65 58
f 66 33 34
f 66 65 33
f 67 34 35
f 67 66 34
f 67 59 66
f 67 60 59
f 68 29 61
f 68 36 29
f 68 35 36
f 68 67 35
f 68 60 67
f 68 61 60
f 69 63 31
f 69 31 38
f 39 69 38
f 39 70 69
f 71 32 64
f 71 40 32
f 72 41 40
f 72 40 71
f 42 41 72
f 42 72 73
f 74 43 42
f 74 42 73
f 44 43 74
f 44 74 75
f 78 70 39
f 78 39 47
f 79 72 71
f 79 80 72
f 81 72 80
f 81 73 72
f 75 51 44
f 75 82 51
f 83 52 51
f 83 51 82
f 82 75 76
f 82 76 83
f 84 53 52
f 84 52 83
f 85 78 47
f 85 47 54
f 85 54 53
f 85 53 84
f 85 84 77
f 85 77 78
f 58 89 57
f 58 90 89
f 92 59 60
f 92 91 59
f 93 60 61
f 93 92 60
f 93 86 92
f 93 87 86
f 62 93 61
f 62 94 93
f 93 88 87
f 93 94 88
f 95 62 63
f 95 94 62
f 96 57 89
f 96 64 57
f 97 90 58
f 97 58 65
f 98 59 91
f 98 66 59
f 98 65 66
f 98 97 65
f 98 90 97
f 98 91 90
f 95 63 69
f 95 69 99
f 100 69 70
f 100 99 69
f 101 64 96
f 101 71 64
f 74 73 102
f 74 102 103
f 104 75 74
f 104 74 103
f 76 75 104
f 76 104 105
f 107 100 70
f 107 70 78
f 107 78 77
f 107 77 106
f 107 106 99
f 107 99 100
f 101 79 71
f 101 108 79
f 109 80 79
f 109 79 108
f 102 73 81
f 102 81 110
f 81 80 109
f 81 109 110
f 111 102 110
f 111 103 102
f 113 76 105
f 113 83 76
f 112 105 104
f 112 113 105
f 114 106 77
f 114 77 84
f 114 84 83
f 114 83 113
f 114 113 105
f 114 105 106
f 115 111 110
f 115 116 111
f 121 86 87
f 121 120 86
f 122 87 88
f 122 121 87
f 125 89 90
f 125 124 89
f 125 117 124
f 125 118 117
f 91 125 90
f 91 126 125
f 125 119 118
f 125 126 119
f 127 86 120
f 127 92 86
f 127 91 92
f 127 126 91
f 127 119 126
f 127 120 119
f 129 122 88
f 129 88 94
f 128 121 122
f 128 122 129
f 130 94 95
f 130 129 94
f 132 89 124
f 132 96 89
f 132 123 131
f 132 124 123
f 133 130 95
f 133 95 99
f 132 101 96
f 132 135 101
f 134 132 131
f 134 135 132
f 104 103 136
f 104 136 137
f 139 133 99
f 139 99 106
f 139 106 105
f 139 105 138
f 140 101 135
f 140 108 101
f 109 108 140
f 109 140 141
f 142 110 109
f 142 109 141
f 136 103 111
f 136 111 143
f 137 112 104
f 137 144 112
f 144 136 143
f 144 137 136
f 145 138 105
f 145 105 113
f 145 113 112
f 145 112 144
f 145 144 137
f 145 137 138
f 142 115 110
f 142 146 115
f 143 111 116
f 143 116 147
f 116 115 146
f 116 146 147
f 148 143 147
f 148 144 143
f 118 149 117
f 118 150 149
f 151 118 119
f 151 150 118
f 152 119 120
f 152 151 119
f 153 120 121
f 153 152 120
f 149 124 117
f 149 155 124
f 155 123 124
f 155 154 123
f 156 155 149
f 156 149 150
f 153 121 128
f 153 128 158
f 157 152 153
f 157 153 158
f 159 128 129
f 159 158 128
f 160 129 130
f 160 159 129
f 154 131 123
f 154 161 131
f 162 161 154
f 162 154 155
f 164 163 157
f 164 157 158
f 160 130 133
f 160 133 166
f 165 159 160
f 165 160 166
f 167 131 161
f 167 134 131
f 168 135 134
f 168 134 167
f 170 163 164
f 170 164 171
f 172 138 137
f 172 137 171
f 172 171 164
f 172 164 165
f 173 166 133
f 173 133 139
f 139 138 172
f 139 172 173
f 172 165 166
f 172 166 173
f 174 135 168
f 174 140 135
f 141 140 174
f 141 174 175
f 174 168 169
f 174 169 175
f 142 141 175
f 142 175 176
f 177 171 137
f 177 137 144
f 176 146 142
f 176 178 146
f 147 146 178
f 147 178 179
f 177 144 148
f 177 148 180
f 148 147 179
f 148 179 180
f 151 181 150
f 151 182 181
f 183 151 152
f 183 182 151
f 181 156 150
f 181 185 156
f 156 184 155
f 156 185 184
f 183 152 157
f 183 157 187
f 186 182 183
f 186 183 187
f 189 158 159
f 189 188 158
f 184 162 155
f 184 191 162
f 162 190 161
f 162 191 190
f 187 157 163
f 187 163 194
f 188 164 158
f 188 195 164
f 196 189 159
f 196 159 165
f 196 165 164
f 196 164 195
f 195 188 189
f 195 189 196
f 190 167 161
f 190 197 167
f 198 168 167
f 198 167 197
f 198 197 190
f 198 190 191
f 169 168 198
f 169 198 199
f 198 191 192
f 198 192 199
f 194 163 170
f 194 170 201
f 201 200 193
f 201 193 194
f 202 170 171
f 202 201 170
f 203 169 199
f 203 175 169
f 176 175 203
f 176 203 204
f 203 199 200
f 203 200 204
f 204 200 201
f 204 201 205
f 202 171 177
f 202 177 206
f 205 201 202
f 205 202 206
f 207 176 204
f 207 178 176
f 179 178 207
f 179 207 208
f 207 204 205
f 207 205 208
f 206 177 180
f 206 180 209
f 209 180 179
f 209 179 208
f 209 208 205
f 209 205 206
f 211 181 182
f 211 210 181
f 210 185 181
f 210 213 185
f 185 212 184
f 185 213 212
f 211 182 186
f 211 186 214
f 213 210 211
f 213 211 214
f 215 186 187
f 215 214 186
f 216 184 212
f 216 191 184
f 192 191 216
f 192 216 217
f 217 216 212
f 217 212 213
f 217 213 214
f 217 214 218
f 215 187 194
f 215 194 219
f 219 194 193
f 219 193 218
f 218 214 215
f 218 215 219
f 220 192 217
f 220 199 192
f 221 218 193
f 221 193 200
f 200 199 220
f 200 220 221
f 221 220 217
f 221 217 218
