# parsimony mesh: eg11096_monomer (source /Users/eranagmon/code/v2e-flagella/workspace/studies/ecoli-3d/viz/3d/structures/eg11096_monomer.pdb)
# atoms: 833  voxel: 4 Å  verts: 571  tris: 1156
v 25.6809 -37.4035 -38.4156
v 27.2663 -37.4035 -38.4156
v 25.6809 -36.1190 -38.4156
v 27.2663 -36.1190 -38.4156
v 30.1019 -45.2516 -34.1685
v 31.4093 -45.2516 -34.1685
v 22.4557 -40.9054 -33.8820
v 22.8115 -40.9054 -33.8820
v 29.5447 -42.8355 -34.4633
v 31.7812 -42.8355 -34.4633
v 22.4557 -39.5608 -33.8820
v 24.0056 -38.6246 -34.9929
v 28.4579 -38.8935 -35.6665
v 31.4789 -38.8355 -34.5866
v 24.9011 -35.7648 -35.8261
v 28.5748 -35.6898 -35.7302
v 31.0062 -36.3535 -34.3329
v 30.1019 -45.2516 -33.1123
v 31.4093 -45.2516 -33.1123
v 22.1823 -41.0966 -31.8261
v 23.3556 -41.0966 -31.8261
v 29.5447 -42.8355 -32.3276
v 31.7812 -42.8355 -32.3276
v 22.0437 -38.4706 -32.2194
v 24.1514 -38.7709 -32.6785
v 28.4048 -40.2118 -31.4556
v 31.4043 -39.1374 -31.4556
v 22.1883 -35.5037 -31.1483
v 23.8759 -34.4808 -32.1215
v 28.4579 -34.3545 -31.7872
v 31.0311 -36.2676 -31.8261
v 22.2140 -30.1667 -30.0337
v 24.1387 -31.2342 -30.9631
v 28.4579 -30.5397 -30.9811
v 30.5973 -29.0091 -30.0637
v 22.1427 -26.8355 -30.1546
v 24.5377 -26.8355 -31.1989
v 28.3459 -27.1427 -30.8041
v 30.5973 -28.6809 -30.0637
v 22.1802 -22.8355 -30.2099
v 24.7399 -22.7182 -30.3173
v 26.8846 -23.9734 -30.1330
v 22.2640 -20.3800 -30.1075
v 23.5414 -20.3800 -30.1075
v 22.1458 -41.1137 -29.5590
v 23.3545 -41.1137 -29.5590
v 21.9817 -38.8355 -29.0643
v 24.6278 -38.9811 -28.4178
v 28.5377 -38.3950 -28.2300
v 30.7271 -38.0054 -29.0295
v 22.1883 -35.5037 -29.0775
v 24.2093 -34.8352 -27.4527
v 28.6511 -35.3634 -27.4287
v 30.7271 -36.5603 -29.0295
v 22.2140 -30.1667 -29.0154
v 23.5161 -31.2342 -27.7396
v 29.1224 -30.5397 -28.1723
v 30.5973 -29.0091 -29.7365
v 22.1427 -26.8355 -28.8030
v 23.6432 -26.8355 -26.8030
v 28.7618 -27.1427 -28.1723
v 30.5973 -28.6809 -29.7365
v 22.1647 -22.7042 -27.8940
v 24.6328 -22.6283 -28.1144
v 27.6664 -22.7182 -28.1041
v 22.1359 -18.9622 -27.6885
v 24.7399 -18.9622 -28.7501
v 28.6908 -18.9318 -27.2223
v 30.9154 -17.6628 -26.3840
v 22.2867 -16.3294 -26.2635
v 24.5258 -14.9318 -26.8030
v 28.9047 -14.4756 -26.8753
v 30.9154 -15.5690 -26.3840
v 25.8973 -10.8355 -26.3878
v 28.9047 -11.1459 -26.4062
v 30.7225 -10.0195 -26.0439
v 26.3704 -8.5033 -26.0235
v 28.5377 -8.3241 -26.1376
v 30.7225 -8.4858 -26.0439
v 25.8793 -34.1666 -25.5576
v 27.5641 -34.1666 -25.5576
v 25.7595 -30.8355 -25.5519
v 27.3682 -30.8355 -25.5519
v 25.6432 -26.8355 -25.2543
v 27.0576 -26.8355 -25.2543
v 22.3927 -21.2833 -25.6228
v 24.4496 -22.7042 -24.7635
v 27.6883 -22.8355 -24.6503
v 22.2407 -18.8355 -25.3600
v 24.5377 -18.8355 -23.9324
v 28.6908 -18.9318 -24.2721
v 30.9154 -17.6628 -25.1395
v 22.2867 -16.3294 -25.4079
v 24.5258 -14.9318 -24.2969
v 28.9047 -14.4756 -24.1358
v 30.9154 -15.5690 -25.1395
v 25.9127 -10.9605 -23.5484
v 28.9047 -12.2568 -23.5484
v 31.4646 -10.4558 -23.8261
v 25.9301 -7.0362 -23.8340
v 28.5377 -6.3241 -24.8853
v 32.4890 -6.9188 -23.6086
v 34.6774 -5.3518 -21.9921
v 25.8801 -3.5333 -22.5060
v 28.1596 -2.4542 -22.9332
v 32.5377 -2.8355 -22.9692
v 34.7690 -2.8355 -22.0952
v 29.2408 0.0533 -22.2590
v 32.5377 -0.0624 -22.2954
v 34.7064 -0.6935 -22.0190
v 26.3499 -9.7105 -21.6275
v 28.5377 -10.2240 -20.9673
v 31.5888 -9.8119 -20.8796
v 25.9036 -6.8355 -21.0504
v 28.5377 -6.8355 -19.7236
v 32.7683 -6.7453 -20.5996
v 34.6774 -5.3518 -21.5511
v 18.5015 -1.1527 -17.8380
v 20.5377 -1.0944 -17.8630
v 25.1130 -2.3343 -19.7533
v 27.6962 -2.5387 -19.9562
v 32.4616 -2.7385 -19.3018
v 34.7690 -2.8355 -21.2877
v 14.2881 2.7978 -17.9900
v 16.9160 1.3445 -18.2370
v 20.5377 1.1645 -18.6038
v 24.5377 1.1645 -19.9742
v 28.1596 1.2978 -21.3519
v 32.3482 1.0133 -20.0353
v 34.7064 -0.6935 -21.3832
v 14.2881 3.4222 -17.9900
v 16.9103 4.9192 -18.2650
v 20.5377 5.1645 -18.7005
v 24.5377 5.1645 -19.3691
v 28.3709 5.0456 -19.2184
v 30.9523 3.6330 -18.6875
v 18.4920 7.1881 -17.8847
v 20.5377 7.3044 -17.9597
v 24.5377 7.6273 -18.2204
v 26.9263 7.6186 -18.2323
v 14.0240 -5.1451 -14.2010
v 15.3031 -5.1451 -14.2010
v 9.8087 -1.4376 -14.3326
v 12.6295 -2.7968 -14.6888
v 16.9023 -2.7658 -15.6251
v 20.5377 -2.1140 -15.8261
v 24.5377 -2.4278 -15.8261
v 28.5699 -2.1059 -15.9685
v 31.0775 -1.3404 -17.3967
v 9.8336 1.1645 -14.3218
v 12.7880 1.3445 -16.1565
v 15.8348 0.1311 -17.0492
v 29.9247 -0.1389 -14.7301
v 31.3933 1.1825 -15.9685
v 10.3278 4.2233 -13.9805
v 12.5394 5.1561 -15.3240
v 15.8253 6.0889 -16.6675
v 28.8709 5.8898 -15.8261
v 31.2023 3.8898 -15.8261
v 13.4574 7.3094 -14.0008
v 16.9103 7.3500 -15.5309
v 20.5377 7.7375 -15.8261
v 24.5377 7.9924 -15.8261
v 26.8709 7.5427 -15.8261
v 14.0240 -5.1451 -13.0225
v 15.3031 -5.1451 -13.0225
v 5.5337 -1.3241 -10.3345
v 8.5003 -1.7968 -11.7311
v 12.6295 -3.6480 -11.7439
v 16.5969 -3.5445 -11.7439
v 20.5377 -2.0316 -11.8261
v 24.2988 -1.7324 -11.8382
v 27.2580 -1.6767 -13.1796
v 4.7868 1.1645 -10.6449
v 7.8336 1.1645 -12.6449
v 24.9959 1.1645 -10.8813
v 28.5699 1.1825 -12.8555
v 31.0092 2.5277 -13.4680
v -1.8512 6.7936 -10.3773
v 0.5377 5.9072 -10.2898
v 4.1394 4.7812 -10.6998
v 8.8118 5.3998 -13.0049
v 12.5219 6.9220 -12.0904
v 16.5377 6.9412 -10.5009
v 20.5377 6.5083 -10.4793
v 24.3432 5.0919 -11.3508
v 28.1711 5.0636 -13.1814
v 31.0092 3.6630 -13.4680
v -1.8512 7.7383 -10.3773
v 0.5377 7.6618 -10.2898
v 4.5377 7.8481 -10.4808
v 8.5377 8.1845 -11.3622
v 12.5219 7.5058 -12.0904
v 16.5377 7.3788 -12.5009
v 20.5377 7.5976 -12.4793
v 24.5377 7.5297 -13.1918
v 26.5934 7.2147 -13.7229
v 9.6321 -5.0043 -6.4448
v 10.8927 -5.0043 -6.4448
v 2.0979 -1.3551 -6.8923
v 4.3353 -2.0617 -8.0658
v 8.3944 -3.6568 -7.7973
v 12.4640 -2.8782 -7.7344
v 16.5377 -1.5642 -9.1043
v 20.5377 -1.0121 -9.5023
v 22.8062 -1.0066 -9.5546
v -1.5273 3.1470 -5.8386
v 0.6738 1.5540 -7.2720
v 2.7868 1.1645 -9.6241
v 13.7949 1.1645 -6.4993
v 16.5377 1.1645 -7.9948
v 20.5377 1.1645 -8.9101
v 22.9959 1.1645 -9.4146
v -5.7679 6.6677 -5.9665
v -3.0226 5.3973 -7.2359
v 0.5377 3.9072 -8.8338
v 2.5405 3.1924 -9.8238
v 13.4419 5.4382 -7.6460
v 16.5377 4.9412 -8.7165
v 20.5377 4.5083 -9.2338
v 22.8801 3.7102 -9.5490
v -5.7679 7.2527 -5.9665
v -3.2956 7.6510 -7.5103
v 0.5377 8.2169 -7.8261
v 4.7606 9.6662 -7.7060
v 8.3477 9.8805 -7.7060
v 11.5339 7.9428 -7.8261
v 6.2426 11.3114 -6.2927
v 6.8877 11.3114 -6.2927
v 9.6321 -5.0043 -5.6031
v 10.8927 -5.0043 -5.6031
v -5.5326 -1.0170 -1.9017
v -4.9399 -1.0170 -1.9017
v 2.0979 -1.3551 -5.2827
v 4.4949 -2.1181 -3.9001
v 8.4550 -2.9778 -4.0162
v 11.4271 -2.8355 -5.1113
v -9.4719 3.1548 -1.8685
v -7.3941 1.5471 -1.8851
v -3.5058 1.2943 -3.0014
v 0.6738 0.4490 -3.9001
v 3.1330 -0.2226 -2.6161
v 9.2052 1.1645 -3.0341
v 11.7949 1.1645 -5.0341
v -9.6507 5.1645 -2.2744
v -7.5118 5.0070 -3.4583
v -4.4302 3.9283 -3.8261
v 9.1501 5.1645 -3.2365
v 11.3815 5.1645 -5.2365
v -13.7476 10.9166 -2.0327
v -11.3735 9.2457 -2.2071
v -7.0816 8.7471 -3.4952
v -3.4623 9.3423 -4.1642
v 0.5377 9.7197 -4.6147
v 3.5759 10.4226 -5.2096
v 8.7547 9.0646 -3.9499
v 10.8173 7.6646 -5.3658
v -13.7476 11.6748 -2.0327
v -13.0431 11.6748 -2.0327
v -5.7287 11.3693 -1.9424
v -3.4623 12.1557 -2.1642
v 0.5377 12.3823 -2.6147
v 4.7606 11.5604 -3.8562
v 6.8088 11.2792 -3.8261
v -5.5326 -1.0170 -1.3178
v -4.9399 -1.0170 -1.3178
v 5.7997 -1.4180 -1.2691
v 7.2780 -1.4180 -1.2691
v -9.4719 3.1548 -1.7819
v -6.9794 1.7676 -0.6867
v -4.2260 0.7166 -0.5608
v 0.5377 0.3809 0.1739
v 4.6536 1.1489 0.0130
v 7.2052 1.1645 -1.0675
v -10.2115 5.0699 -0.1996
v -7.7028 3.5099 -0.3712
v -5.3546 3.3463 -1.6271
v 2.3200 7.0047 2.0407
v 4.7196 5.4686 1.3172
v 7.1501 5.1645 -0.7971
v -14.1028 10.2659 0.1739
v -11.5279 9.1126 -0.3743
v -8.3954 10.2414 -1.1053
v -1.7736 10.8046 1.6121
v 0.8071 9.3486 1.3951
v 4.5377 9.1645 0.3160
v 7.0464 9.1645 -1.1318
v -14.1028 12.0324 0.1739
v -11.6108 12.1651 0.2064
v -7.2222 11.9340 0.2064
v -3.2491 12.2978 0.2368
v 0.5377 12.3823 -0.6997
v 4.5377 11.5492 -1.2721
v 6.5492 11.1705 -1.8178
v -25.5505 2.8733 6.1255
v -25.1750 2.8733 6.1255
v -13.6415 3.0790 6.0535
v -11.4623 2.8117 5.6051
v -7.4749 2.1541 4.1911
v -3.6500 1.6497 3.9647
v 0.5377 1.7621 3.1195
v 3.5075 2.5204 3.1167
v -25.5505 3.2485 6.1255
v -25.1750 3.2485 6.1255
v -17.5166 7.0636 6.1186
v -15.1698 5.5040 5.4440
v -11.6608 5.0699 3.4944
v -8.8166 3.6735 2.8692
v -2.4418 4.1954 5.1586
v 0.5566 5.6001 4.1377
v 3.5075 4.3381 3.1167
v -17.9353 9.1645 5.6011
v -15.4035 8.9944 3.4912
v -13.1264 7.5476 2.4665
v -2.2241 10.2730 4.1739
v -0.4339 8.2730 4.1739
v -18.0387 12.0829 5.4655
v -15.2610 13.2805 4.3566
v -11.4623 14.0326 3.7191
v -7.4623 13.9728 3.6469
v -4.2338 13.1048 4.3604
v -13.8243 15.2667 5.9143
v -11.4623 15.4395 5.7191
v -7.4623 15.5897 5.6469
v -5.0657 15.4669 5.8181
v -25.8015 -1.0686 9.5479
v -23.4623 -1.2388 9.3804
v -20.3818 -1.1402 9.7419
v -14.2174 -0.9463 10.0468
v -13.2373 -0.9463 10.0468
v -29.8278 2.5917 9.7324
v -27.0093 1.3992 8.3068
v -23.6899 1.3898 7.3308
v -19.2140 0.8550 8.8351
v -15.2628 1.1971 8.3843
v -11.7273 1.2309 8.4977
v -7.8316 2.6763 7.9768
v -5.1085 2.8213 6.5121
v -29.8608 5.1645 9.6901
v -27.1152 4.8149 8.0329
v -23.6899 4.8149 7.5978
v -19.0949 5.5040 7.2804
v -16.3082 4.3969 6.7217
v -7.0251 5.1645 8.7557
v -3.6500 5.3831 6.7607
v -1.2068 6.8621 6.3762
v -29.6281 7.8142 9.9704
v -27.4725 9.1543 9.7420
v -23.4623 9.1645 9.1652
v -19.9353 9.1645 7.5525
v -6.5199 9.1645 9.0001
v -3.4849 9.0673 6.9562
v -1.2068 7.6692 6.3762
v -26.1460 11.4765 9.9141
v -23.1842 12.9517 9.6443
v -19.4081 13.3156 7.9414
v -16.4910 14.7496 7.0760
v -6.5741 13.1645 9.2567
v -4.6932 13.1645 7.2567
v -21.6655 15.2946 10.0232
v -19.4623 15.3456 9.7374
v -15.2795 15.5170 8.3152
v -11.4623 15.8099 8.1739
v -7.5867 15.5766 8.2418
v -5.0657 15.4669 6.9537
v -30.1480 -5.5204 13.5908
v -27.4623 -5.5642 13.5801
v -25.1503 -5.1222 13.9653
v -30.4975 -2.8355 13.2681
v -27.2658 -2.5754 11.7241
v -23.6751 -3.0506 12.4487
v -19.2140 -1.9251 11.8662
v -15.5154 -1.9034 11.8662
v -11.7273 -1.5853 12.2021
v -8.9155 -1.3292 13.5542
v -30.5662 1.2208 12.1992
v -28.4682 -0.0750 10.8827
v -17.7152 -0.6847 10.3277
v -16.8841 -0.6847 10.3277
v -10.5706 0.4124 10.8875
v -8.5269 1.5132 12.2021
v -30.2489 5.5137 12.4811
v -29.3439 7.0798 14.0191
v -6.9360 5.0771 12.2874
v -5.1386 6.3521 13.6964
v -29.6281 7.8142 11.3525
v -28.5620 9.1543 12.4811
v -6.5199 9.1645 11.3740
v -4.9478 9.1645 13.3740
v -26.4257 12.3549 12.1739
v -24.5505 14.3549 12.1739
v -9.6151 15.0667 13.8233
v -7.5368 13.2787 12.3708
v -5.1001 11.4906 13.5849
v -22.5505 15.5082 12.1739
v -19.4623 15.9228 12.1739
v -15.4623 16.3598 12.1739
v -11.1540 15.8611 12.3636
v -9.0029 15.2844 11.1567
v -13.6132 22.7368 14.0687
v -13.0971 22.7368 14.0687
v -13.6132 23.3553 14.0687
v -13.0971 23.3553 14.0687
v -30.5309 -6.0454 16.1739
v -27.4623 -6.8681 16.1739
v -24.4946 -5.6581 16.1739
v -18.2715 -5.0724 17.3120
v -15.4623 -5.2270 17.1171
v -12.4287 -5.1205 17.6267
v -33.5008 -0.9770 18.0484
v -32.3339 -2.5204 16.4986
v -22.4946 -3.8908 16.1739
v -19.5478 -3.8940 16.0568
v -15.4623 -4.0872 15.1171
v -11.2421 -3.7451 16.2456
v -8.6378 -1.9887 16.1739
v -33.9699 1.1645 17.3920
v -32.5680 1.1645 15.3920
v -6.6261 1.1257 15.9589
v -4.7074 2.4331 17.1489
v -34.1006 4.1122 17.2569
v -31.2795 5.5960 15.9779
v -29.3439 7.0798 14.6988
v -5.8346 3.6854 14.4822
v -4.4385 5.0771 15.9589
v -29.6503 7.2502 17.3655
v -27.7035 9.1309 16.3301
v -25.3164 11.0115 17.9614
v -4.1628 9.1645 16.1739
v -25.8868 13.2958 16.1148
v -25.3466 13.2958 16.1148
v -9.6151 15.0667 14.2574
v -7.4623 14.3358 15.1404
v -4.9424 12.9602 16.4970
v -25.7106 15.9077 16.9350
v -23.8110 16.1174 15.8306
v -19.3168 17.5363 16.3800
v -15.4623 17.9959 15.2636
v -11.1540 17.1648 14.5339
v -7.2305 17.0207 16.5914
v -5.3770 15.5915 18.0457
v -17.8864 19.3959 17.8508
v -14.6698 21.3254 16.3702
v -12.1629 21.7148 15.9689
v -8.4093 20.3045 16.9144
v -13.6132 23.3553 15.1790
v -13.0971 23.3553 15.1790
v -30.2014 -5.7638 18.9466
v -27.4623 -6.1393 19.1177
v -24.4840 -5.6456 18.6596
v -18.2715 -5.0724 18.8495
v -15.4623 -5.2270 19.4531
v -12.4287 -5.1205 19.2039
v -33.5008 -0.9770 18.2149
v -31.5057 -2.5204 18.9844
v -27.4623 -2.8355 20.0121
v -23.2753 -2.9872 19.4547
v -19.7140 -3.0483 20.3418
v -15.4623 -4.1736 21.4531
v -11.4047 -3.1632 20.2873
v -8.9098 -1.8794 18.7039
v -33.9699 1.1645 18.6320
v -31.4623 1.1645 19.1179
v -27.1890 1.3502 20.5559
v -23.4623 0.1503 21.4106
v -21.1566 -0.4972 21.8342
v -13.9490 2.9828 22.0527
v -11.6133 1.4555 21.1827
v -7.5308 1.1257 19.3334
v -4.7074 2.4331 18.9704
v -34.1006 4.1122 18.7438
v -31.1751 5.3331 18.6541
v -27.7057 5.1645 20.3468
v -13.9490 3.2688 22.0527
v -11.4623 4.0772 21.5374
v -7.6542 5.4321 21.1227
v -4.4253 5.1645 19.4056
v -29.6503 7.2502 18.2937
v -27.1303 8.1253 19.8458
v -25.1787 10.3012 20.1739
v -6.4488 7.6734 21.6863
v -4.1703 9.0699 20.2813
v -25.7106 14.1519 18.7939
v -24.7567 12.9570 20.1459
v -4.1380 13.1645 20.1739
v -25.7106 15.9077 18.7939
v -23.3837 16.1778 20.1459
v -20.3182 17.8738 20.1739
v -13.6955 18.1179 21.9468
v -12.9233 18.1179 21.9468
v -6.3843 17.7263 20.1739
v -5.2822 15.7263 20.1739
v -18.3182 19.7396 20.1739
v -15.2023 20.3676 20.4377
v -11.5389 20.6835 20.4377
v -8.3843 20.1344 20.1739
v -18.4899 -1.6749 23.1222
v -15.4623 -2.1736 23.2077
v -13.0474 -1.7803 22.6040
v -29.8297 2.9790 25.7819
v -27.1890 2.3275 24.3387
v -23.4623 1.0444 24.1739
v -19.6789 0.0754 24.3429
v -15.2110 1.3081 24.1964
v -13.0474 0.3162 22.6040
v -29.9431 5.1645 25.5306
v -27.7057 5.1645 23.5306
v -14.0853 3.4850 24.1739
v -11.4831 5.6885 23.9262
v -9.1155 6.9439 22.4276
v -29.7360 7.3594 25.7082
v -27.1303 7.7326 24.2945
v -24.5951 9.7284 24.1739
v -17.5563 11.0979 26.1217
v -17.4056 11.0979 26.1217
v -10.3779 9.1645 24.8466
v -7.6542 9.0699 23.0508
v -4.3557 10.3401 22.7385
v -22.6899 13.0894 24.0279
v -19.1187 13.0894 25.2125
v -15.8283 13.1516 24.9989
v -11.3740 13.1516 24.4345
v -7.4623 13.1645 23.5021
v -4.5161 13.1645 22.7269
v -21.9979 15.5934 22.5972
v -19.1631 17.3565 24.0655
v -15.5687 17.2854 23.8875
v -11.5389 16.9365 22.5614
v -7.6317 16.9577 22.6246
v -5.3074 15.4865 22.3467
v -18.0135 19.5835 24.1739
v -16.6219 19.5835 24.1739
v -10.2566 19.3178 22.3620
v -9.0780 19.3178 22.3620
v -29.8297 2.9790 26.5910
v -27.3415 2.2872 28.0242
v -23.4623 1.3483 28.1739
v -19.1838 1.9589 28.4340
v -16.4729 2.3000 27.2741
v -29.9431 5.1645 26.9662
v -28.4883 5.1645 28.9662
v -17.8493 5.1645 29.8257
v -15.2687 4.9584 27.7462
v -12.8303 6.1543 26.5920
v -29.7360 7.3594 26.8133
v -27.6039 7.8295 28.1575
v -23.3079 9.5969 28.0613
v -18.9994 9.3681 28.2978
v -15.8283 9.5246 27.3627
v -12.3779 9.1645 26.8332
v -21.8716 11.7060 26.6528
v -20.2230 11.7060 26.6528
v -14.7389 11.8096 26.6349
v -12.6485 11.8096 26.6349
v -17.4801 19.1195 26.1857
v -17.4419 19.1195 26.1857
v -17.4801 19.1877 26.1857
v -17.4419 19.1877 26.1857
v -25.9276 2.7401 30.7265
v -23.4623 2.4542 30.9635
v -20.3314 2.6419 30.6741
v -26.3263 5.4510 32.1055
v -23.7951 5.4510 32.6717
v -19.8493 5.1645 30.8817
v -26.1933 7.5763 32.1739
v -23.7951 7.7782 32.0400
v -20.4426 7.6383 30.6174
v -25.5342 6.9752 34.2244
v -25.3502 6.9752 34.2244
v -25.5342 7.2167 34.2244
v -25.3502 7.2167 34.2244
f 3 2 1
f 3 4 2
f 10 5 9
f 10 6 5
f 11 8 7
f 11 12 8
f 13 1 2
f 13 12 1
f 14 9 13
f 14 10 9
f 15 1 12
f 15 3 1
f 16 13 2
f 16 2 4
f 4 3 15
f 4 15 16
f 17 13 16
f 17 14 13
f 6 18 5
f 6 19 18
f 8 20 7
f 8 21 20
f 18 9 5
f 18 22 9
f 19 6 10
f 19 10 23
f 23 22 18
f 23 18 19
f 20 11 7
f 20 24 11
f 25 21 8
f 25 8 12
f 25 12 11
f 25 11 24
f 26 9 22
f 26 13 9
f 13 25 12
f 13 26 25
f 23 10 14
f 23 14 27
f 27 26 22
f 27 22 23
f 25 15 12
f 25 29 15
f 28 25 24
f 28 29 25
f 30 16 15
f 30 15 29
f 31 27 14
f 31 14 17
f 17 16 30
f 17 30 31
f 33 30 29
f 33 34 30
f 37 32 36
f 37 33 32
f 37 34 33
f 37 38 34
f 39 34 38
f 39 35 34
f 40 37 36
f 40 41 37
f 42 37 41
f 42 38 37
f 44 40 43
f 44 41 40
f 46 20 21
f 46 45 20
f 47 20 45
f 47 24 20
f 46 21 25
f 46 25 48
f 47 45 46
f 47 46 48
f 26 48 25
f 26 49 48
f 50 26 27
f 50 49 26
f 47 28 24
f 47 51 28
f 29 28 51
f 29 51 52
f 51 47 48
f 51 48 52
f 53 52 48
f 53 48 49
f 50 27 31
f 50 31 54
f 54 31 30
f 54 30 53
f 54 53 49
f 54 49 50
f 52 33 29
f 52 56 33
f 56 32 33
f 56 55 32
f 57 53 30
f 57 30 34
f 35 57 34
f 35 58 57
f 55 36 32
f 55 59 36
f 60 59 55
f 60 55 56
f 58 35 39
f 58 39 62
f 62 39 38
f 62 38 61
f 62 61 57
f 62 57 58
f 59 40 36
f 59 63 40
f 63 59 60
f 63 60 64
f 61 38 42
f 61 42 65
f 42 41 64
f 42 64 65
f 63 43 40
f 63 66 43
f 64 41 44
f 64 44 67
f 44 43 66
f 44 66 67
f 67 65 64
f 67 68 65
f 70 67 66
f 70 71 67
f 71 68 67
f 71 72 68
f 72 69 68
f 72 73 69
f 74 72 71
f 74 75 72
f 78 74 77
f 78 75 74
f 78 76 75
f 78 79 76
f 53 80 52
f 53 81 80
f 80 56 52
f 80 82 56
f 81 53 57
f 81 57 83
f 83 82 80
f 83 80 81
f 82 60 56
f 82 84 60
f 83 57 61
f 83 61 85
f 85 84 82
f 85 82 83
f 87 60 84
f 87 64 60
f 64 86 63
f 64 87 86
f 85 61 65
f 85 65 88
f 88 87 84
f 88 84 85
f 86 66 63
f 86 89 66
f 90 89 86
f 90 86 87
f 88 65 68
f 88 68 91
f 90 87 88
f 90 88 91
f 92 68 69
f 92 91 68
f 89 70 66
f 89 93 70
f 71 70 93
f 71 93 94
f 93 89 90
f 93 90 94
f 94 90 91
f 94 91 95
f 92 69 73
f 92 73 96
f 96 73 72
f 96 72 95
f 95 91 92
f 95 92 96
f 94 74 71
f 94 97 74
f 98 95 72
f 98 72 75
f 97 94 95
f 97 95 98
f 99 75 76
f 99 98 75
f 97 77 74
f 97 100 77
f 101 78 77
f 101 77 100
f 99 76 79
f 99 79 102
f 79 78 101
f 79 101 102
f 104 101 100
f 104 105 101
f 106 101 105
f 106 102 101
f 106 103 102
f 106 107 103
f 108 106 105
f 108 109 106
f 110 106 109
f 110 107 106
f 112 97 98
f 112 111 97
f 99 112 98
f 99 113 112
f 111 100 97
f 111 114 100
f 115 114 111
f 115 111 112
f 113 99 102
f 113 102 116
f 115 112 113
f 115 113 116
f 103 116 102
f 103 117 116
f 114 104 100
f 114 120 104
f 121 105 104
f 121 104 120
f 121 120 114
f 121 114 115
f 122 121 115
f 122 115 116
f 117 103 107
f 117 107 123
f 122 116 117
f 122 117 123
f 126 118 125
f 126 119 118
f 127 119 126
f 127 120 119
f 121 108 105
f 121 128 108
f 127 121 120
f 127 128 121
f 129 109 108
f 129 108 128
f 130 123 107
f 130 107 110
f 130 110 109
f 130 109 129
f 130 129 122
f 130 122 123
f 131 125 124
f 131 132 125
f 132 126 125
f 132 133 126
f 134 126 133
f 134 127 126
f 135 127 134
f 135 128 127
f 136 128 135
f 136 129 128
f 137 133 132
f 137 138 133
f 139 133 138
f 139 134 133
f 140 134 139
f 140 135 134
f 144 142 141
f 144 145 142
f 146 118 119
f 146 145 118
f 147 119 120
f 147 146 119
f 148 120 121
f 148 147 120
f 149 121 122
f 149 148 121
f 151 143 150
f 151 144 143
f 152 118 145
f 152 125 118
f 152 124 125
f 152 151 124
f 152 144 151
f 152 145 144
f 149 122 129
f 149 129 154
f 153 148 149
f 153 149 154
f 151 131 124
f 151 156 131
f 155 151 150
f 155 156 151
f 157 132 131
f 157 131 156
f 154 129 136
f 154 136 159
f 136 135 158
f 136 158 159
f 157 137 132
f 157 161 137
f 160 157 156
f 160 161 157
f 162 138 137
f 162 137 161
f 163 139 138
f 163 138 162
f 158 135 140
f 158 140 164
f 164 140 139
f 164 139 163
f 142 165 141
f 142 166 165
f 169 141 165
f 169 144 141
f 169 143 144
f 169 168 143
f 170 166 142
f 170 142 145
f 170 169 165
f 170 165 166
f 171 145 146
f 171 170 145
f 172 146 147
f 172 171 146
f 173 147 148
f 173 172 147
f 175 143 168
f 175 150 143
f 175 167 174
f 175 168 167
f 173 148 153
f 173 153 177
f 176 172 173
f 176 173 177
f 178 153 154
f 178 177 153
f 175 155 150
f 175 182 155
f 181 175 174
f 181 182 175
f 183 156 155
f 183 155 182
f 187 186 176
f 187 176 177
f 178 154 159
f 178 159 188
f 188 159 158
f 188 158 187
f 188 187 177
f 188 177 178
f 190 179 189
f 190 180 179
f 191 180 190
f 191 181 180
f 191 182 181
f 191 192 182
f 183 160 156
f 183 193 160
f 192 183 182
f 192 193 183
f 194 161 160
f 194 160 193
f 194 193 183
f 194 183 184
f 195 162 161
f 195 161 194
f 195 194 184
f 195 184 185
f 196 163 162
f 196 162 195
f 195 185 186
f 195 186 196
f 197 187 158
f 197 158 164
f 197 164 163
f 197 163 196
f 197 196 186
f 197 186 187
f 202 167 168
f 202 201 167
f 203 168 169
f 203 202 168
f 202 199 198
f 202 203 199
f 204 169 170
f 204 203 169
f 171 204 170
f 171 205 204
f 206 171 172
f 206 205 171
f 209 167 201
f 209 174 167
f 209 200 208
f 209 201 200
f 210 203 204
f 210 204 211
f 211 204 205
f 211 205 212
f 206 172 176
f 206 176 213
f 212 205 206
f 212 206 213
f 216 179 180
f 216 215 179
f 216 207 215
f 216 208 207
f 217 174 209
f 217 181 174
f 217 180 181
f 217 216 180
f 217 208 216
f 217 209 208
f 184 183 218
f 184 218 219
f 219 218 210
f 219 210 211
f 185 184 219
f 185 219 220
f 220 219 211
f 220 211 212
f 221 213 176
f 221 176 186
f 221 186 185
f 221 185 220
f 221 220 212
f 221 212 213
f 223 179 215
f 223 189 179
f 223 214 222
f 223 215 214
f 224 190 189
f 224 189 223
f 191 190 224
f 191 224 225
f 226 192 191
f 226 191 225
f 227 218 183
f 227 183 193
f 227 193 192
f 227 192 226
f 228 226 225
f 228 229 226
f 199 230 198
f 199 231 230
f 201 234 200
f 201 235 234
f 230 202 198
f 230 236 202
f 202 235 201
f 202 236 235
f 237 231 199
f 237 199 203
f 237 236 230
f 237 230 231
f 240 232 239
f 240 233 232
f 241 200 234
f 241 208 200
f 241 207 208
f 241 240 207
f 242 241 234
f 242 234 235
f 237 203 210
f 237 210 244
f 243 236 237
f 243 237 244
f 246 238 245
f 246 239 238
f 247 207 240
f 247 215 207
f 247 214 215
f 247 246 214
f 249 244 210
f 249 210 218
f 249 248 243
f 249 243 244
f 252 214 246
f 252 222 214
f 252 245 251
f 252 246 245
f 253 223 222
f 253 222 252
f 254 224 223
f 254 223 253
f 255 225 224
f 255 224 254
f 249 218 227
f 249 227 257
f 257 227 226
f 257 226 256
f 257 256 248
f 257 248 249
f 259 250 258
f 259 251 250
f 260 253 252
f 260 261 253
f 262 253 261
f 262 254 253
f 255 228 225
f 255 263 228
f 262 255 254
f 262 263 255
f 256 226 229
f 256 229 264
f 264 229 228
f 264 228 263
f 233 265 232
f 233 266 265
f 268 235 236
f 268 267 235
f 265 239 232
f 265 270 239
f 239 269 238
f 239 270 269
f 271 266 233
f 271 233 240
f 271 240 239
f 271 239 270
f 271 270 265
f 271 265 266
f 272 240 241
f 272 271 240
f 267 242 235
f 267 273 242
f 242 272 241
f 242 273 272
f 268 236 243
f 268 243 274
f 274 273 267
f 274 267 268
f 269 245 238
f 269 275 245
f 276 270 239
f 276 239 246
f 276 275 269
f 276 269 270
f 277 240 271
f 277 247 240
f 277 246 247
f 277 276 246
f 277 270 276
f 277 271 270
f 274 243 248
f 274 248 280
f 280 279 273
f 280 273 274
f 282 245 275
f 282 251 245
f 282 250 251
f 282 281 250
f 283 252 251
f 283 251 282
f 286 285 278
f 286 278 279
f 287 280 248
f 287 248 256
f 286 279 280
f 286 280 287
f 288 250 281
f 288 258 250
f 282 251 259
f 282 259 289
f 259 258 288
f 259 288 289
f 283 260 252
f 283 290 260
f 289 283 282
f 289 290 283
f 291 261 260
f 291 260 290
f 292 262 261
f 292 261 291
f 292 291 284
f 292 284 285
f 293 263 262
f 293 262 292
f 293 292 285
f 293 285 286
f 287 256 264
f 287 264 294
f 294 264 263
f 294 263 293
f 293 286 287
f 293 287 294
f 300 270 271
f 300 299 270
f 272 300 271
f 272 301 300
f 302 272 273
f 302 301 272
f 303 296 295
f 303 304 296
f 307 297 306
f 307 298 297
f 308 270 299
f 308 276 270
f 308 275 276
f 308 307 275
f 308 298 307
f 308 299 298
f 309 300 301
f 309 301 310
f 302 273 279
f 302 279 311
f 311 279 278
f 311 278 310
f 311 310 301
f 311 301 302
f 313 305 312
f 313 306 305
f 314 275 307
f 314 282 275
f 314 281 282
f 314 313 281
f 314 306 313
f 314 307 306
f 316 310 278
f 316 278 285
f 316 285 284
f 316 284 315
f 313 288 281
f 313 318 288
f 317 313 312
f 317 318 313
f 319 289 288
f 319 288 318
f 320 290 289
f 320 289 319
f 321 315 284
f 321 284 291
f 321 291 290
f 321 290 320
f 322 319 318
f 322 323 319
f 324 319 323
f 324 320 319
f 325 320 324
f 325 321 320
f 333 295 296
f 333 332 295
f 333 326 332
f 333 327 326
f 334 327 333
f 334 328 327
f 336 297 298
f 336 335 297
f 335 330 329
f 335 336 330
f 337 298 299
f 337 336 298
f 338 299 300
f 338 337 299
f 340 295 332
f 340 303 295
f 340 331 339
f 340 332 331
f 333 296 304
f 333 304 341
f 341 304 303
f 341 303 340
f 341 334 333
f 341 342 334
f 343 297 335
f 343 306 297
f 343 305 306
f 343 342 305
f 343 334 342
f 343 335 334
f 338 300 309
f 338 309 345
f 344 337 338
f 344 338 345
f 346 309 310
f 346 345 309
f 347 340 339
f 347 348 340
f 349 340 348
f 349 341 340
f 350 305 342
f 350 312 305
f 350 341 349
f 350 342 341
f 351 344 345
f 351 345 352
f 346 310 316
f 346 316 353
f 353 316 315
f 353 315 352
f 352 345 346
f 352 346 353
f 354 349 348
f 354 355 349
f 350 317 312
f 350 356 317
f 355 350 349
f 355 356 350
f 357 318 317
f 357 317 356
f 352 315 321
f 352 321 359
f 359 358 351
f 359 351 352
f 360 356 355
f 360 361 356
f 357 322 318
f 357 362 322
f 361 357 356
f 361 362 357
f 363 323 322
f 363 322 362
f 364 324 323
f 364 323 363
f 359 321 325
f 359 325 365
f 365 325 324
f 365 324 364
f 365 364 358
f 365 358 359
f 369 367 366
f 369 370 367
f 371 326 327
f 371 370 326
f 370 368 367
f 370 371 368
f 328 371 327
f 328 372 371
f 330 373 329
f 330 374 373
f 377 326 370
f 377 332 326
f 377 331 332
f 377 376 331
f 377 369 376
f 377 370 369
f 378 372 328
f 378 328 334
f 379 329 373
f 379 335 329
f 379 334 335
f 379 378 334
f 378 373 372
f 378 379 373
f 380 374 330
f 380 330 336
f 337 380 336
f 337 381 380
f 380 375 374
f 380 381 375
f 382 331 376
f 382 339 331
f 384 381 337
f 384 337 344
f 386 339 382
f 386 347 339
f 348 347 386
f 348 386 387
f 386 382 383
f 386 383 387
f 388 384 344
f 388 344 351
f 388 385 384
f 388 389 385
f 390 348 387
f 390 354 348
f 391 355 354
f 391 354 390
f 388 351 358
f 388 358 393
f 394 388 393
f 394 389 388
f 395 355 391
f 395 360 355
f 396 361 360
f 396 360 395
f 397 362 361
f 397 361 396
f 363 362 397
f 363 397 398
f 399 393 358
f 399 358 364
f 399 364 363
f 399 363 398
f 399 398 392
f 399 392 393
f 402 401 400
f 402 403 401
f 405 366 367
f 405 404 366
f 368 405 367
f 368 406 405
f 404 369 366
f 404 411 369
f 412 406 368
f 412 368 371
f 413 371 372
f 413 412 371
f 414 372 373
f 414 413 372
f 414 407 413
f 414 408 407
f 374 414 373
f 374 415 414
f 414 409 408
f 414 415 409
f 375 415 374
f 375 416 415
f 418 369 411
f 418 376 369
f 418 410 417
f 418 411 410
f 419 416 375
f 419 375 381
f 418 382 376
f 418 422 382
f 421 418 417
f 421 422 418
f 423 383 382
f 423 382 422
f 424 419 381
f 424 381 384
f 385 424 384
f 385 425 424
f 424 420 419
f 424 425 420
f 423 387 383
f 423 427 387
f 426 423 422
f 426 427 423
f 429 425 385
f 429 385 389
f 427 390 387
f 427 430 390
f 431 391 390
f 431 390 430
f 430 427 428
f 430 428 431
f 433 393 392
f 433 392 432
f 429 389 394
f 429 394 434
f 394 393 433
f 394 433 434
f 436 391 431
f 436 395 391
f 435 431 430
f 435 436 431
f 437 396 395
f 437 395 436
f 438 397 396
f 438 396 437
f 432 392 398
f 432 398 439
f 439 398 397
f 439 397 438
f 440 432 439
f 440 433 432
f 441 433 440
f 441 434 433
f 442 438 437
f 442 443 438
f 444 400 401
f 444 443 400
f 444 438 443
f 444 439 438
f 445 439 444
f 445 440 439
f 446 400 443
f 446 402 400
f 447 444 401
f 447 401 403
f 403 402 446
f 403 446 447
f 446 443 444
f 446 444 447
f 405 448 404
f 405 449 448
f 450 405 406
f 450 449 405
f 408 451 407
f 408 452 451
f 409 452 408
f 409 453 452
f 448 411 404
f 448 455 411
f 411 454 410
f 411 455 454
f 456 455 448
f 456 448 449
f 450 406 412
f 450 412 457
f 456 449 450
f 456 450 457
f 451 413 407
f 451 458 413
f 458 412 413
f 458 457 412
f 459 458 451
f 459 451 452
f 460 453 409
f 460 409 415
f 459 452 453
f 459 453 460
f 461 415 416
f 461 460 415
f 462 410 454
f 462 417 410
f 463 462 454
f 463 454 455
f 463 455 456
f 463 456 464
f 465 464 456
f 465 456 457
f 466 465 457
f 466 457 458
f 469 461 416
f 469 416 419
f 468 460 461
f 468 461 469
f 420 469 419
f 420 470 469
f 471 417 462
f 471 421 417
f 472 422 421
f 472 421 471
f 471 462 463
f 471 463 472
f 473 472 463
f 473 463 464
f 475 474 467
f 475 467 468
f 475 468 469
f 475 469 476
f 477 470 420
f 477 420 425
f 476 469 470
f 476 470 477
f 472 426 422
f 472 478 426
f 427 426 478
f 427 478 479
f 478 472 473
f 478 473 479
f 428 427 479
f 428 479 480
f 477 425 429
f 477 429 482
f 481 476 477
f 481 477 482
f 484 428 480
f 484 431 428
f 431 483 430
f 431 484 483
f 482 429 434
f 482 434 485
f 483 435 430
f 483 486 435
f 436 435 486
f 436 486 487
f 487 486 483
f 487 483 484
f 437 436 487
f 437 487 488
f 485 434 441
f 485 441 492
f 441 440 491
f 441 491 492
f 488 442 437
f 488 493 442
f 494 443 442
f 494 442 493
f 495 444 443
f 495 443 494
f 494 489 490
f 494 490 495
f 491 440 445
f 491 445 496
f 445 444 495
f 445 495 496
f 459 497 458
f 459 498 497
f 499 459 460
f 499 498 459
f 502 464 465
f 502 501 464
f 497 466 458
f 497 503 466
f 466 502 465
f 466 503 502
f 504 503 497
f 504 497 498
f 499 460 468
f 499 468 505
f 505 468 467
f 505 467 504
f 505 504 498
f 505 498 499
f 507 464 501
f 507 473 464
f 507 500 506
f 507 501 500
f 508 504 467
f 508 467 474
f 475 508 474
f 475 509 508
f 510 475 476
f 510 509 475
f 512 473 507
f 512 479 473
f 511 507 506
f 511 512 507
f 480 479 512
f 480 512 513
f 510 476 481
f 510 481 517
f 516 509 510
f 516 510 517
f 518 481 482
f 518 517 481
f 513 484 480
f 513 519 484
f 520 514 515
f 520 515 521
f 523 522 516
f 523 516 517
f 518 482 485
f 518 485 524
f 523 517 518
f 523 518 524
f 525 484 519
f 525 487 484
f 488 487 525
f 488 525 526
f 525 519 520
f 525 520 526
f 526 520 521
f 526 521 527
f 528 490 489
f 528 489 527
f 527 521 522
f 527 522 528
f 528 522 523
f 528 523 529
f 530 524 485
f 530 485 492
f 530 492 491
f 530 491 529
f 530 529 523
f 530 523 524
f 526 493 488
f 526 531 493
f 532 527 489
f 532 489 494
f 532 494 493
f 532 493 531
f 533 490 528
f 533 495 490
f 534 529 491
f 534 491 496
f 496 495 533
f 496 533 534
f 534 533 528
f 534 528 529
f 536 500 501
f 536 535 500
f 537 501 502
f 537 536 501
f 503 537 502
f 503 538 537
f 539 503 504
f 539 538 503
f 535 506 500
f 535 540 506
f 541 540 535
f 541 535 536
f 539 504 508
f 539 508 543
f 542 538 539
f 542 539 543
f 544 508 509
f 544 543 508
f 540 511 506
f 540 545 511
f 546 512 511
f 546 511 545
f 545 540 541
f 545 541 546
f 513 512 546
f 513 546 547
f 549 515 514
f 549 514 548
f 549 548 542
f 549 542 543
f 544 509 516
f 544 516 550
f 549 543 544
f 549 544 550
f 551 513 547
f 551 519 513
f 552 548 514
f 552 514 520
f 520 519 551
f 520 551 552
f 552 551 547
f 552 547 548
f 553 515 549
f 553 521 515
f 554 550 516
f 554 516 522
f 554 522 521
f 554 521 553
f 553 549 550
f 553 550 554
f 556 526 527
f 556 555 526
f 555 531 526
f 555 557 531
f 556 527 532
f 556 532 558
f 558 532 531
f 558 531 557
f 557 555 556
f 557 556 558
f 537 559 536
f 537 560 559
f 561 537 538
f 561 560 537
f 559 541 536
f 559 562 541
f 563 562 559
f 563 559 560
f 561 538 542
f 561 542 564
f 564 563 560
f 564 560 561
f 565 541 562
f 565 546 541
f 547 546 565
f 547 565 566
f 567 564 542
f 567 542 548
f 567 548 547
f 567 547 566
f 567 566 563
f 567 563 564
f 563 568 562
f 563 569 568
f 568 565 562
f 568 570 565
f 569 563 566
f 569 566 571
f 571 566 565
f 571 565 570
f 570 568 569
f 570 569 571
