# parsimony mesh: eg11682_monomer (source /Users/eranagmon/code/v2e-cplx/workspace/studies/ecoli-3d/viz/3d/structures/eg11682_monomer.pdb)
# atoms: 1259  voxel: 4 Å  verts: 589  tris: 1196
v 3.2981 -8.6768 -22.1301
v 3.5696 -8.6768 -22.1301
v 3.2981 -7.9836 -22.1301
v 3.5696 -7.9836 -22.1301
v 6.5296 2.8941 -22.2243
v 9.4944 2.6043 -22.4069
v 11.7458 2.8363 -22.3192
v 6.5296 3.6905 -22.2243
v 9.4944 3.9027 -22.4069
v 11.7458 3.7710 -22.3192
v 3.2470 -8.6976 -20.0014
v 3.6630 -8.6976 -20.0014
v 2.6118 -6.6354 -20.2473
v 4.9401 -6.5657 -20.0802
v 8.1221 -5.1478 -18.4158
v 2.0881 -2.6131 -19.0920
v 5.4944 -2.6131 -20.1115
v 9.4710 -2.6767 -19.2928
v 12.0775 -1.3858 -18.7945
v 2.4134 1.3869 -19.1785
v 5.3155 1.4912 -21.1100
v 9.4944 0.6043 -21.3048
v 13.2450 1.7279 -19.7636
v 15.5527 3.2863 -18.0660
v 2.7871 4.2242 -19.1931
v 5.4883 5.2907 -20.0528
v 9.4944 5.9027 -20.5559
v 13.2452 5.2174 -20.1726
v 15.8863 5.3869 -18.3442
v 6.9336 9.3869 -18.4933
v 9.6300 9.5039 -18.6919
v 13.4944 8.5531 -18.6670
v 15.9586 8.0802 -18.3938
v 7.1274 11.7368 -18.4130
v 8.3870 11.7368 -18.4130
v 2.8311 -8.8392 -16.0014
v 5.1842 -9.0119 -15.9727
v 7.8970 -8.9762 -14.6203
v -1.5188 -5.5957 -15.1864
v 0.6791 -6.8027 -16.3124
v 6.3107 -7.8145 -17.2870
v 9.3429 -6.2514 -15.7356
v 11.5670 -4.6882 -14.1842
v -1.5188 -3.5416 -15.1864
v 0.2589 -2.3702 -16.3124
v 10.7887 -4.0525 -16.8509
v 12.4649 -2.6767 -15.7111
v -5.3103 2.9682 -14.3229
v -3.9104 2.9682 -14.3229
v 1.1407 1.3869 -16.0014
v 14.6531 0.6218 -16.0014
v 16.1202 2.6218 -16.0014
v -12.6159 7.2033 -14.1468
v -10.5056 6.5008 -14.9135
v -6.5884 5.1882 -15.5360
v -2.5485 5.7222 -14.9265
v 1.3843 5.7516 -15.6813
v 4.4470 6.8909 -17.3061
v 16.5363 5.3869 -16.0014
v -12.6159 7.8799 -14.1468
v -10.6427 9.2827 -15.0101
v -6.5056 9.3869 -16.3256
v -2.5056 9.3869 -15.7240
v 1.5936 9.4164 -14.8244
v 5.3248 9.4164 -15.9842
v 10.3436 10.5518 -16.0014
v 13.4944 9.1778 -16.0014
v 15.9105 8.0130 -16.0014
v -9.4007 12.1529 -14.4664
v -6.4294 13.4465 -14.6341
v -2.3373 13.6460 -14.7623
v 0.3264 12.4853 -14.6799
v 7.0679 11.7521 -16.0014
v 8.3436 11.7521 -16.0014
v -5.0453 15.8117 -14.1931
v -3.5585 15.8117 -14.1931
v -0.9062 -12.9893 -10.3049
v 1.4944 -12.9160 -10.2423
v 3.5366 -12.6407 -10.0192
v -4.7747 -9.0003 -10.2640
v -2.3459 -10.4454 -10.9539
v 1.4439 -10.3646 -12.4070
v 5.1197 -10.7867 -11.6121
v 7.9202 -9.1407 -12.0014
v -4.7747 -7.9544 -10.2640
v -2.7498 -6.7751 -11.9768
v 0.0770 -8.2624 -13.6895
v 9.9116 -6.2582 -12.2784
v 11.5670 -4.6882 -13.7964
v -2.0874 -2.3702 -12.1109
v -0.0231 -0.8749 -13.5173
v 10.9553 -4.0531 -11.1297
v 13.3450 -2.5606 -12.3954
v 16.0936 -1.0681 -10.9944
v -9.0883 2.9463 -10.9173
v -6.5884 2.2707 -12.1510
v -2.6153 1.3437 -12.1342
v 0.2217 1.3869 -13.2006
v 15.1229 -0.1993 -13.6611
v 17.5154 1.3947 -12.1568
v 19.7108 2.9887 -10.6524
v -12.7880 6.8125 -12.0014
v -10.4552 4.7287 -12.1510
v -7.9769 3.7224 -13.5840
v -1.2437 4.6123 -13.4178
v -0.0184 4.6123 -13.4178
v 15.1968 7.0862 -10.7404
v 17.2611 5.4089 -12.0297
v 19.7108 3.7316 -10.6524
v -12.7880 8.0898 -12.0014
v -11.5396 10.0898 -12.0014
v 2.9930 10.7693 -13.6342
v 4.6261 10.7693 -13.6342
v 10.4007 10.7450 -13.5223
v 14.2240 9.0514 -11.9797
v 15.6600 8.9831 -11.8823
v -9.5396 12.5132 -12.0014
v -7.5180 14.5132 -12.0014
v -0.8918 15.1520 -13.7771
v 1.5936 13.6460 -13.3746
v 5.7734 13.0692 -13.0811
v 9.2382 13.0692 -12.7743
v 13.4712 13.2565 -11.0161
v 15.7351 11.8363 -10.3576
v -5.5180 16.1881 -12.0014
v -2.3373 16.6092 -12.2668
v 1.4942 17.5683 -11.3179
v 5.5175 17.5441 -11.0244
v 9.4944 16.4296 -10.8269
v 12.1225 15.8486 -10.4821
v 2.8273 19.5832 -10.2063
v 4.1996 19.5832 -10.2063
v -0.8979 -25.0001 -7.1422
v -0.1226 -25.0001 -7.1422
v -1.2698 -22.6131 -7.2689
v 0.3971 -22.6131 -7.2689
v -1.1322 -19.8335 -6.5506
v 1.4530 -18.6931 -6.5987
v 4.3420 -17.5528 -6.6467
v -1.4602 -13.4653 -8.0014
v 1.3524 -14.9114 -7.9886
v 5.2726 -14.2049 -7.8739
v 7.8042 -13.1025 -6.4344
v -5.2181 -9.6758 -8.0014
v -3.4602 -11.6758 -8.0014
v 6.2033 -11.6201 -9.1011
v 8.5489 -10.4173 -7.8612
v -5.3756 -6.6179 -7.8983
v -3.9808 -5.2877 -9.1629
v 9.9641 -6.6131 -8.0014
v -17.0125 -1.0096 -6.6484
v -15.4139 -1.0096 -6.6484
v -9.3405 -1.1478 -6.2810
v -6.4056 -2.5339 -7.0223
v -3.7229 -2.6131 -9.0679
v 10.8784 -4.0093 -8.0014
v 13.4944 -2.7075 -8.0014
v 16.2179 -1.3112 -8.0014
v -17.2868 1.3869 -6.7046
v -14.2506 1.5713 -6.6313
v -10.5477 1.6536 -7.5306
v -6.5056 0.3056 -8.9065
v -3.9868 -0.2808 -9.5953
v 17.7504 1.5480 -8.1943
v 19.7108 2.9887 -9.6563
v -17.0402 3.8921 -6.2920
v -14.3335 5.3484 -7.5361
v -11.7549 4.1379 -8.7803
v 15.1968 7.0862 -9.8107
v 17.4039 5.4089 -8.4001
v 19.7108 3.7316 -9.6563
v -13.1382 9.2534 -7.6343
v -11.6558 10.4977 -8.7229
v -0.8061 11.1656 -6.1482
v -0.2661 11.1656 -6.1482
v 15.1968 7.7711 -9.8107
v 16.7900 9.2174 -8.2870
v -12.5708 11.4257 -6.0562
v -10.3957 12.0075 -7.6343
v -6.5917 14.1885 -7.7298
v -2.5672 13.3045 -6.1817
v -0.2661 11.5484 -6.1482
v 14.3540 14.2438 -8.0014
v 16.3464 12.2438 -8.0014
v -5.3158 16.0304 -8.8820
v -2.7992 16.9433 -7.7298
v 0.5117 18.8498 -8.0014
v 6.8608 19.0248 -8.0014
v 9.4944 17.7260 -8.0014
v 12.3540 16.0881 -8.0014
v 2.5117 19.7035 -8.0014
v 4.8608 19.7035 -8.0014
v -0.8979 -25.0001 -5.4946
v -0.1226 -25.0001 -5.4946
v -1.4455 -22.5094 -4.0973
v 1.4295 -22.4056 -4.1318
v 3.9690 -21.0375 -2.7689
v -4.8250 -16.9439 -2.4115
v -2.4260 -18.3887 -3.7544
v 1.4530 -18.6931 -5.2664
v 5.4888 -18.6236 -4.0168
v 8.5710 -17.0277 -2.5979
v -5.4215 -14.6131 -2.9220
v -2.6290 -14.6691 -4.5954
v -0.0756 -16.0397 -5.0972
v 7.0086 -15.7692 -5.2646
v 9.5209 -14.5851 -3.7177
v 11.5884 -13.4010 -2.1708
v -8.9207 -9.4254 -2.3571
v -6.6303 -10.8674 -3.9213
v -4.0445 -12.3094 -5.4855
v 10.6887 -10.6131 -5.0718
v 11.6599 -10.6131 -3.0718
v -9.1479 -6.6131 -2.7216
v -7.3913 -6.6131 -4.7216
v 11.2446 -6.6131 -5.5200
v 11.7379 -6.6131 -3.5200
v -17.1268 -1.0664 -4.0014
v -14.2506 -1.3901 -4.2561
v -10.4770 -2.5591 -4.1826
v -7.6722 -3.8145 -5.2726
v 11.2121 -4.3680 -5.4350
v 13.2109 -2.7285 -3.9093
v 15.8599 -1.0890 -5.0503
v -20.7561 2.9684 -2.4896
v -18.9233 1.5358 -3.8943
v -12.7472 0.3609 -5.7593
v -12.0071 0.3609 -5.7593
v 14.7294 -0.1024 -2.3836
v 15.9306 1.2933 -3.8308
v -20.9873 5.3869 -2.6421
v -18.4264 5.2901 -4.3765
v -15.8952 6.5588 -5.1057
v 16.8686 5.3869 -4.0014
v -20.8973 7.7191 -2.3674
v -18.5056 8.3459 -2.6041
v -15.2172 9.5549 -3.8640
v -0.8061 11.1656 -5.8575
v -0.2661 11.1656 -5.8575
v 15.1082 10.9161 -2.2893
v 16.9140 9.5044 -3.7741
v -13.3529 11.7089 -4.0014
v -10.5056 12.5814 -4.0014
v -6.6474 14.2892 -4.2801
v -2.5672 13.3045 -5.8284
v -0.2661 11.5484 -5.8575
v 11.2274 15.2452 -2.1619
v 13.5604 13.6627 -3.5589
v 16.3897 12.0801 -4.9559
v -5.4755 17.3869 -3.3738
v -2.7992 17.5759 -5.1770
v 1.4144 18.6652 -4.2239
v 5.7644 18.0396 -4.1907
v 9.7342 16.5785 -3.6977
v 12.0125 15.8603 -4.8285
v -4.8958 19.9156 -2.7001
v -2.5056 20.0585 -3.1225
v 1.4144 19.6832 -4.2239
v 4.6111 19.6127 -5.6503
v -1.0531 -21.1070 -1.4173
v 1.7894 -21.1972 -0.0509
v 5.3792 -20.9740 0.2651
v 7.6055 -20.7350 1.7762
v -4.8250 -16.9439 -1.4012
v -2.6197 -18.5044 -0.0759
v 0.6528 -20.0648 1.2494
v 6.9249 -18.5026 0.3358
v 8.0882 -18.5026 0.3358
v -5.4215 -14.6131 -1.0398
v -2.7140 -14.2260 1.1485
v -0.4595 -12.6346 1.9664
v 7.2142 -16.1779 1.5620
v 9.5840 -14.7894 -0.1244
v 11.5884 -13.4010 -1.8109
v -12.5105 -8.6174 1.9911
v -10.3547 -9.6217 0.3941
v -6.6466 -11.7857 0.0078
v -2.5056 -12.3033 1.4859
v -0.4595 -12.5891 1.9664
v 10.5971 -11.4787 0.8557
v 11.6768 -10.3325 -0.2871
v -13.0785 -6.6131 1.9224
v -11.1479 -6.6131 -0.0776
v 11.9381 -6.6131 -0.0014
v -17.2315 -1.7105 -0.0014
v -14.5610 -3.5054 0.3421
v -11.6135 -3.9704 -0.7623
v 12.8384 -2.6131 -0.0014
v -20.8119 2.7708 -0.0014
v -19.2315 0.7708 -0.0014
v 14.5521 0.5516 -0.0014
v 15.7266 2.5516 -0.0014
v -20.9856 5.5276 0.2235
v -20.2587 6.9548 1.7067
v 14.7664 6.4618 1.4761
v 15.9485 5.2319 0.0851
v -20.8973 7.7191 -0.9599
v -18.7574 8.5408 0.2235
v -15.9629 10.5802 -0.0014
v 14.5600 9.5044 0.0851
v 15.9417 8.2494 -1.1906
v -13.9629 12.2978 -0.0014
v -10.4103 14.2577 -0.0537
v -8.0752 14.9571 -1.4219
v 10.5937 14.7268 -0.0014
v 12.8724 12.7268 -0.0014
v -9.0134 15.8833 1.2448
v -6.4855 17.2854 -0.0452
v -2.5056 18.7975 1.3895
v 1.3843 18.4564 0.3116
v 5.4944 16.6957 -0.0014
v 8.5937 15.7940 -0.0014
v -4.8958 19.9156 -1.3353
v -2.5056 20.0585 -0.6105
v -0.0224 19.7537 -0.8130
v 3.3194 -20.6683 2.2867
v 5.4944 -20.7459 2.3717
v 7.6055 -20.7350 2.2080
v -1.4229 -17.3463 3.9986
v 1.7894 -19.3969 3.7715
v 6.2314 -18.5437 3.7123
v 7.5815 -18.3678 3.8539
v -8.9402 -12.9663 5.3728
v -6.5056 -13.0586 5.1937
v -2.4504 -14.0776 3.8195
v -0.4595 -12.6346 2.0877
v 7.1596 -14.8783 4.1279
v 7.7440 -14.8783 4.1279
v -17.2272 -9.2931 5.3476
v -14.1085 -9.4197 4.0080
v -10.3664 -11.1303 4.0231
v -6.5056 -11.9696 3.1937
v -2.5056 -12.3033 2.7299
v -0.4595 -12.5891 2.0877
v 7.1051 -12.0698 5.4225
v 9.2767 -10.4409 3.8088
v 11.5777 -8.8121 2.1952
v -17.2272 -7.6076 5.3476
v -14.2209 -6.2625 3.7768
v -12.0187 -4.9173 4.8727
v 10.6230 -7.5270 4.8618
v 11.7631 -6.3614 3.7165
v -17.0675 -1.6667 3.9986
v -14.5610 -3.5475 3.7230
v -12.0187 -4.0990 4.8727
v 13.2352 -2.6131 3.9986
v -20.6635 2.9839 2.3401
v -18.7109 1.5451 3.8035
v 14.9618 0.4419 3.9986
v 15.7524 2.4419 3.9986
v -20.6635 4.2881 2.3401
v -19.0752 5.5276 3.8035
v 11.4027 7.3291 5.8178
v 13.4576 6.2236 4.2901
v 15.7524 3.9761 3.9986
v -17.5228 8.0962 3.9986
v -15.3546 10.0962 3.9986
v 6.4443 10.6185 5.2229
v 10.0746 9.3063 5.5204
v 12.4195 9.3513 4.2901
v -13.3546 12.2655 3.9986
v -11.2674 14.2655 3.9986
v 5.8735 13.3869 4.7082
v 9.6534 13.0451 3.8050
v 12.1967 11.8741 3.9986
v -9.2674 16.2388 3.9986
v -6.5056 17.0853 3.9986
v -2.5056 17.5719 3.9986
v 1.4944 17.6586 3.9986
v 5.2277 16.3047 3.8317
v 7.8937 15.6722 2.3871
v 3.0810 -20.9183 9.2000
v 3.9884 -20.9183 9.2000
v -1.3285 -17.1882 7.9986
v 1.6463 -19.2705 7.9195
v 5.2806 -18.5167 7.6715
v 7.5575 -16.7582 6.1429
v -9.3846 -13.1483 7.9986
v -6.3417 -13.1857 8.0116
v -3.2144 -14.3576 8.0116
v 6.2726 -14.7925 7.6852
v 7.5575 -16.2455 6.1429
v -17.2272 -9.2931 6.8541
v -14.4621 -9.8582 8.1119
v -11.3846 -11.6595 7.9986
v -4.8991 -12.3437 9.3536
v -3.9230 -12.3437 9.3536
v 6.6584 -11.3432 7.9986
v 8.0491 -9.3432 7.9986
v -17.2272 -7.6076 6.8541
v -14.4621 -6.9684 8.1119
v -11.6756 -5.3113 7.9986
v 10.0491 -7.3668 7.9986
v 12.1541 -5.3668 7.9986
v -16.6082 -0.7626 6.0321
v -14.5056 -1.3397 6.4934
v -11.5485 -2.7047 7.9744
v 13.2163 -2.6131 7.9986
v -16.7773 1.3869 6.1287
v -14.5056 1.3869 6.9983
v -11.5442 1.3869 8.8682
v 10.8773 2.5074 9.5551
v 13.5359 1.1294 7.9518
v 15.7615 2.4180 6.3486
v -16.9027 5.3869 6.3685
v -14.3099 5.4381 8.2145
v -11.7123 4.1389 9.1985
v 10.4247 5.7522 8.1325
v 13.4944 4.6266 6.9284
v 15.7615 3.7643 6.3486
v -16.7754 7.6882 6.3519
v -14.1359 9.4907 8.1206
v -12.4246 11.2932 9.8892
v -4.5989 11.3410 9.9561
v -4.4353 11.3410 9.9561
v 2.6818 10.4334 8.9134
v 5.2644 9.5866 7.7475
v 9.8171 9.0556 7.1546
v 11.5406 10.6609 6.0292
v -12.7591 11.7344 7.2225
v -10.7190 13.4206 8.4947
v -6.4389 13.2835 9.8615
v -4.4353 11.4600 9.9561
v 1.9750 13.3869 8.2838
v 3.8735 13.3869 6.2838
v 11.4132 11.4417 6.0292
v 11.5406 11.4417 6.0292
v -8.7951 17.3637 8.4358
v -7.2656 17.2933 8.6097
v -2.8669 17.6804 8.3295
v 1.1664 15.9539 7.6779
v 3.7166 15.6707 6.1308
v -8.5768 19.4749 9.7714
v -6.5056 19.4928 9.7418
v -4.4411 19.4401 9.8834
v 3.0810 -20.9183 10.5175
v 3.9884 -20.9183 10.5175
v -4.7585 -17.3330 13.3984
v -2.6385 -17.8337 12.0385
v 1.6463 -19.3366 11.9099
v 4.2152 -18.5479 11.9099
v -9.2429 -12.9735 11.2284
v -6.1621 -14.3112 12.3134
v -3.7672 -14.4346 12.0385
v 3.2831 -12.8761 13.7878
v 4.2836 -14.3709 12.2721
v -13.1896 -9.8385 11.9986
v -10.5480 -11.9045 12.3365
v -6.3417 -12.2785 12.3365
v -3.9165 -12.3059 11.9986
v 2.5965 -10.6131 13.3988
v 5.4092 -10.2166 12.2654
v 8.2375 -9.0184 11.9986
v -13.1896 -7.6077 11.9986
v -11.4198 -5.6077 11.9986
v 2.5085 -8.0720 13.4097
v 4.0494 -8.0720 13.4097
v 10.2375 -7.4635 11.9986
v 12.1117 -5.4635 11.9986
v -9.7439 -2.4710 12.2729
v -8.3443 -1.0430 13.7891
v 11.0091 -1.4880 13.1670
v 12.1692 -2.7381 11.8997
v -9.5442 1.3869 11.0644
v -7.6162 1.3869 13.0644
v 7.2886 3.1546 13.7137
v 9.6099 1.4977 12.1070
v 11.7960 -0.1592 10.5004
v -12.8460 6.8056 10.3573
v -10.1369 5.7381 11.6599
v -7.4810 4.6706 12.9625
v 3.0310 6.9345 13.2922
v 5.7709 5.5154 12.6634
v 8.2261 5.3869 10.8594
v -12.8460 8.6265 10.3573
v -11.2372 9.7307 11.8138
v -4.5989 11.3410 10.0652
v -4.4353 11.3410 10.0652
v 1.9523 9.2148 11.9747
v 5.4944 7.7128 10.5433
v 7.7537 7.4416 10.0979
v -9.8782 12.4792 11.9986
v -6.3773 13.1853 11.1700
v -2.6915 12.8386 11.5879
v -0.0976 13.0851 11.8658
v -8.5768 18.7010 10.1019
v -6.6426 17.3326 11.4413
v -2.6945 17.0706 11.6123
v -0.3855 15.5103 10.4439
v -8.5768 19.4749 10.1019
v -6.5056 19.4928 10.1626
v -4.4411 19.4401 10.1140
v -4.8055 -20.9060 17.2105
v -4.0566 -20.9060 17.2105
v -5.0540 -18.6450 15.9258
v -2.6362 -19.1837 15.9258
v 1.1631 -17.4865 15.8552
v 3.7901 -17.1711 14.4262
v -4.9519 -14.4346 15.9541
v -4.3027 -12.9823 14.5912
v 2.2253 -14.3709 15.8552
v 3.7901 -15.5427 14.4262
v -12.8233 -9.5116 14.2853
v -10.5056 -10.1758 14.3721
v -5.7040 -11.2741 15.7705
v -3.2758 -10.9367 15.8717
v 0.7651 -10.4518 15.8672
v 6.7161 -8.9702 14.4104
v 8.2076 -8.9702 14.4104
v -12.8233 -7.9791 14.2853
v -10.4088 -6.6327 14.4537
v -6.1581 -6.2752 16.2799
v -2.3879 -6.2752 16.9845
v 1.3029 -6.6884 15.6182
v 5.4274 -6.6884 15.1948
v 9.5223 -6.4388 14.6499
v 11.6186 -4.9893 14.1436
v -9.0110 -3.7097 14.2591
v -6.8924 -2.4710 15.7549
v -0.9760 -4.5379 17.8638
v 1.4944 -4.1711 17.6874
v 5.3822 -2.7046 17.0210
v 9.6032 -2.7381 14.8761
v 11.6186 -4.1547 14.1436
v -5.4252 1.0713 15.8985
v -3.8967 2.1941 17.1650
v 6.1595 1.6475 16.0718
v 8.3425 0.4879 14.7873
v -8.5614 7.3373 14.0299
v -6.2909 5.7571 14.7456
v -2.5402 5.6719 17.0234
v 1.6163 6.2743 16.2952
v 4.4661 4.1399 15.9986
v -8.9808 9.3869 14.2534
v -6.1414 9.6896 16.2308
v -2.8402 9.6896 16.7654
v 0.1762 9.3869 14.9216
v -9.0834 11.7899 14.3071
v -6.1191 12.9532 15.6903
v -2.6722 12.8335 15.5709
v -0.4664 11.5505 14.0683
v -5.0063 15.9643 14.4068
v -3.6145 15.9643 14.4068
v -4.9016 -21.0071 19.9986
v -3.7357 -21.0071 19.9986
v -5.5667 -18.6131 19.9986
v -1.6342 -18.3077 19.8706
v -0.3911 -16.7707 18.4519
v -5.2755 -14.6131 19.9986
v -1.6527 -14.6131 21.0369
v 0.0665 -14.6131 19.0369
v -4.6105 -12.4801 19.9986
v -2.8787 -11.9455 20.1572
v 0.1427 -11.6777 18.9297
v -4.5931 -4.7166 18.0609
v -3.6427 -4.7166 18.0609
v -4.6101 -2.6131 18.1378
v -2.4065 -2.7946 19.4247
v 1.4902 -2.1224 19.8268
v 3.9741 -1.4322 18.3789
v -4.5574 -0.4725 18.1219
v -2.5335 1.1712 19.7799
v 1.4902 1.4437 20.3697
v 3.9802 1.3869 18.3830
v -1.2300 4.5286 18.7712
v 1.4944 4.3355 18.6772
v 3.6625 3.5100 18.1308
v -4.5652 11.2247 18.0413
v -4.3966 11.2247 18.0413
v -4.5652 11.4497 18.0413
v -4.3966 11.4497 18.0413
v -4.7337 -20.8455 22.2124
v -3.9281 -20.8455 22.2124
v -5.1662 -18.4070 23.7269
v -3.1567 -18.4070 23.7269
v -5.5600 -14.6131 23.9986
v -2.8992 -14.6131 23.9986
v -4.9054 -12.3631 23.9986
v -4.1521 -12.3631 23.9986
v -1.1703 -1.0512 22.3827
v 0.1541 -1.0512 22.3827
v -1.1703 0.1483 22.3827
v 0.1541 0.1483 22.3827
v -4.8530 -16.9363 26.3414
v -3.9274 -16.9363 26.3414
v -5.1583 -14.6131 26.4482
v -3.7520 -14.6131 26.4482
v -5.0285 -12.2876 26.2553
v -4.0790 -12.2876 26.2553
f 3 2 1
f 3 4 2
f 9 5 8
f 9 6 5
f 9 7 6
f 9 10 7
f 2 11 1
f 2 12 11
f 11 3 1
f 11 13 3
f 12 2 4
f 12 4 14
f 4 3 13
f 4 13 14
f 17 13 16
f 17 14 13
f 17 15 14
f 17 18 15
f 20 17 16
f 20 21 17
f 22 5 6
f 22 21 5
f 22 17 21
f 22 18 17
f 7 22 6
f 7 23 22
f 22 19 18
f 22 23 19
f 21 8 5
f 21 26 8
f 25 21 20
f 25 26 21
f 27 9 8
f 27 8 26
f 28 23 7
f 28 7 10
f 10 9 27
f 10 27 28
f 28 24 23
f 28 29 24
f 30 27 26
f 30 31 27
f 32 27 31
f 32 28 27
f 32 29 28
f 32 33 29
f 35 30 34
f 35 31 30
f 12 36 11
f 12 37 36
f 36 13 11
f 36 40 13
f 41 37 12
f 41 12 14
f 15 41 14
f 15 42 41
f 41 38 37
f 41 42 38
f 40 16 13
f 40 45 16
f 45 39 44
f 45 40 39
f 46 42 15
f 46 15 18
f 19 46 18
f 19 47 46
f 46 43 42
f 46 47 43
f 50 16 45
f 50 20 16
f 51 47 19
f 51 19 23
f 24 51 23
f 24 52 51
f 55 49 48
f 55 56 49
f 50 25 20
f 50 57 25
f 58 26 25
f 58 25 57
f 59 52 24
f 59 24 29
f 60 54 53
f 60 61 54
f 62 54 61
f 62 55 54
f 62 56 55
f 62 63 56
f 63 57 56
f 63 64 57
f 58 30 26
f 58 65 30
f 64 58 57
f 64 65 58
f 32 31 66
f 32 66 67
f 68 59 29
f 68 29 33
f 33 32 67
f 33 67 68
f 69 62 61
f 69 70 62
f 70 63 62
f 70 71 63
f 72 63 71
f 72 64 63
f 73 30 65
f 73 34 30
f 66 31 35
f 66 35 74
f 74 35 34
f 74 34 73
f 75 71 70
f 75 76 71
f 82 77 81
f 82 78 77
f 83 36 37
f 83 82 36
f 82 79 78
f 82 83 79
f 38 83 37
f 38 84 83
f 86 80 85
f 86 81 80
f 87 36 82
f 87 40 36
f 87 39 40
f 87 86 39
f 87 81 86
f 87 82 81
f 88 84 38
f 88 38 42
f 43 88 42
f 43 89 88
f 90 39 86
f 90 44 39
f 91 45 44
f 91 44 90
f 89 43 47
f 89 47 93
f 92 88 89
f 92 89 93
f 49 96 48
f 49 97 96
f 91 50 45
f 91 98 50
f 97 91 90
f 97 98 91
f 99 93 47
f 99 47 51
f 52 99 51
f 52 100 99
f 99 94 93
f 99 100 94
f 54 102 53
f 54 103 102
f 104 48 96
f 104 55 48
f 104 54 55
f 104 103 54
f 104 95 103
f 104 96 95
f 105 97 49
f 105 49 56
f 106 50 98
f 106 57 50
f 106 56 57
f 106 105 56
f 105 98 97
f 105 106 98
f 108 100 52
f 108 52 59
f 109 100 108
f 109 101 100
f 110 53 102
f 110 60 53
f 111 61 60
f 111 60 110
f 113 65 64
f 113 64 112
f 67 66 114
f 67 114 115
f 108 59 68
f 108 68 116
f 68 67 115
f 68 115 116
f 116 115 107
f 116 107 108
f 111 69 61
f 111 117 69
f 118 70 69
f 118 69 117
f 112 64 72
f 112 72 120
f 72 71 119
f 72 119 120
f 113 73 65
f 113 121 73
f 121 112 120
f 121 113 112
f 114 66 74
f 114 74 122
f 122 74 73
f 122 73 121
f 123 114 122
f 123 115 114
f 124 115 123
f 124 116 115
f 118 75 70
f 118 125 75
f 119 71 76
f 119 76 126
f 76 75 125
f 76 125 126
f 127 119 126
f 127 120 119
f 128 120 127
f 128 121 120
f 129 121 128
f 129 122 121
f 130 122 129
f 130 123 122
f 131 128 127
f 131 132 128
f 135 134 133
f 135 136 134
f 137 136 135
f 137 138 136
f 78 140 77
f 78 141 140
f 79 141 78
f 79 142 141
f 141 139 138
f 141 142 139
f 145 77 140
f 145 81 77
f 145 80 81
f 145 144 80
f 146 142 79
f 146 79 83
f 84 146 83
f 84 147 146
f 146 143 142
f 146 147 143
f 144 85 80
f 144 148 85
f 149 86 85
f 149 85 148
f 150 147 84
f 150 84 88
f 149 90 86
f 149 155 90
f 154 149 148
f 154 155 149
f 150 88 92
f 150 92 156
f 157 92 93
f 157 156 92
f 94 157 93
f 94 158 157
f 159 152 151
f 159 160 152
f 162 95 96
f 162 161 95
f 162 153 161
f 162 154 153
f 163 90 155
f 163 97 90
f 163 96 97
f 163 162 96
f 162 155 154
f 162 163 155
f 164 158 94
f 164 94 100
f 101 164 100
f 101 165 164
f 166 160 159
f 166 167 160
f 168 95 161
f 168 103 95
f 168 102 103
f 168 167 102
f 168 160 167
f 168 161 160
f 108 107 169
f 108 169 170
f 165 101 109
f 165 109 171
f 109 108 170
f 109 170 171
f 171 170 164
f 171 164 165
f 172 102 167
f 172 110 102
f 173 111 110
f 173 110 172
f 176 169 107
f 176 107 115
f 116 176 115
f 116 177 176
f 177 169 176
f 177 170 169
f 173 117 111
f 173 179 117
f 178 173 172
f 178 179 173
f 180 118 117
f 180 117 179
f 182 181 174
f 182 174 175
f 177 116 124
f 177 124 184
f 124 123 183
f 124 183 184
f 185 118 180
f 185 125 118
f 126 125 185
f 126 185 186
f 186 185 180
f 186 180 181
f 187 127 126
f 187 126 186
f 129 128 188
f 129 188 189
f 183 123 130
f 183 130 190
f 190 130 129
f 190 129 189
f 187 131 127
f 187 191 131
f 188 128 132
f 188 132 192
f 132 131 191
f 132 191 192
f 134 193 133
f 134 194 193
f 193 135 133
f 193 195 135
f 194 134 136
f 194 136 196
f 195 193 194
f 195 194 196
f 195 137 135
f 195 199 137
f 196 136 138
f 196 138 200
f 200 138 137
f 200 137 199
f 139 200 138
f 139 201 200
f 200 197 196
f 200 201 197
f 204 198 203
f 204 199 198
f 205 138 200
f 205 141 138
f 205 140 141
f 205 204 140
f 205 199 204
f 205 200 199
f 206 201 139
f 206 139 142
f 143 206 142
f 143 207 206
f 206 202 201
f 206 207 202
f 211 140 204
f 211 145 140
f 211 144 145
f 211 210 144
f 211 203 210
f 211 204 203
f 212 207 143
f 212 143 147
f 212 208 207
f 212 213 208
f 215 144 210
f 215 148 144
f 215 209 214
f 215 210 209
f 212 147 150
f 212 150 216
f 217 212 216
f 217 213 212
f 152 218 151
f 152 219 218
f 221 148 215
f 221 154 148
f 221 153 154
f 221 220 153
f 221 214 220
f 221 215 214
f 216 150 156
f 216 156 222
f 157 222 156
f 157 223 222
f 222 217 216
f 222 223 217
f 224 157 158
f 224 223 157
f 218 159 151
f 218 226 159
f 227 219 152
f 227 152 160
f 228 153 220
f 228 161 153
f 228 160 161
f 228 227 160
f 228 219 227
f 228 220 219
f 224 158 164
f 224 164 230
f 229 223 224
f 229 224 230
f 226 166 159
f 226 232 166
f 232 225 231
f 232 226 225
f 233 167 166
f 233 166 232
f 234 230 164
f 234 164 170
f 236 231 235
f 236 232 231
f 233 172 167
f 233 237 172
f 236 233 232
f 236 237 233
f 175 174 238
f 175 238 239
f 234 170 177
f 234 177 241
f 237 178 172
f 237 242 178
f 243 179 178
f 243 178 242
f 244 180 179
f 244 179 243
f 245 238 174
f 245 174 181
f 245 181 180
f 245 180 244
f 239 182 175
f 239 246 182
f 182 245 181
f 182 246 245
f 246 238 245
f 246 239 238
f 249 241 177
f 249 177 184
f 249 184 183
f 249 183 248
f 249 248 240
f 249 240 241
f 245 186 181
f 245 251 186
f 251 244 250
f 251 245 244
f 187 186 251
f 187 251 252
f 189 188 253
f 189 253 254
f 255 248 183
f 255 183 190
f 255 190 189
f 255 189 254
f 255 254 247
f 255 247 248
f 256 251 250
f 256 257 251
f 258 187 252
f 258 191 187
f 257 252 251
f 257 258 252
f 259 253 188
f 259 188 192
f 259 192 191
f 259 191 258
f 259 258 252
f 259 252 253
f 196 260 195
f 196 261 260
f 197 261 196
f 197 262 261
f 260 199 195
f 260 265 199
f 265 198 199
f 265 264 198
f 266 265 260
f 266 260 261
f 262 197 201
f 262 201 267
f 202 267 201
f 202 268 267
f 267 263 262
f 267 268 263
f 269 198 264
f 269 203 198
f 270 269 264
f 270 264 265
f 273 268 202
f 273 202 207
f 272 267 268
f 272 268 273
f 274 207 208
f 274 273 207
f 277 203 269
f 277 210 203
f 277 209 210
f 277 276 209
f 278 277 269
f 278 269 270
f 278 270 271
f 278 271 279
f 274 208 213
f 274 213 281
f 280 273 274
f 280 274 281
f 283 209 276
f 283 214 209
f 283 275 282
f 283 276 275
f 281 213 217
f 281 217 284
f 219 285 218
f 219 286 285
f 287 214 283
f 287 220 214
f 287 219 220
f 287 286 219
f 287 282 286
f 287 283 282
f 288 284 217
f 288 217 223
f 290 218 285
f 290 226 218
f 290 225 226
f 290 289 225
f 288 223 229
f 288 229 291
f 292 229 230
f 292 291 229
f 289 231 225
f 289 293 231
f 292 230 234
f 292 234 296
f 297 231 293
f 297 235 231
f 236 235 297
f 236 297 298
f 297 293 294
f 297 294 298
f 299 237 236
f 299 236 298
f 301 296 234
f 301 234 241
f 301 241 240
f 301 240 300
f 301 300 295
f 301 295 296
f 302 237 299
f 302 242 237
f 243 242 302
f 243 302 303
f 304 244 243
f 304 243 303
f 306 300 240
f 306 240 248
f 306 248 247
f 306 247 305
f 304 250 244
f 304 308 250
f 307 304 303
f 307 308 304
f 311 253 252
f 311 252 310
f 312 305 247
f 312 247 254
f 312 254 253
f 312 253 311
f 313 250 308
f 313 256 250
f 257 256 313
f 257 313 314
f 313 308 309
f 313 309 314
f 315 310 252
f 315 252 258
f 315 258 257
f 315 257 314
f 315 314 309
f 315 309 310
f 262 316 261
f 262 317 316
f 263 317 262
f 263 318 317
f 316 266 261
f 316 320 266
f 266 319 265
f 266 320 319
f 321 320 316
f 321 316 317
f 318 263 268
f 318 268 322
f 322 268 267
f 322 267 321
f 321 317 318
f 321 318 322
f 319 270 265
f 319 325 270
f 326 271 270
f 326 270 325
f 321 267 272
f 321 272 327
f 328 272 273
f 328 327 272
f 327 322 321
f 327 328 322
f 331 275 276
f 331 330 275
f 332 276 277
f 332 331 276
f 332 323 331
f 332 324 323
f 278 332 277
f 278 333 332
f 332 325 324
f 332 333 325
f 326 279 271
f 326 334 279
f 334 278 279
f 334 333 278
f 333 326 325
f 333 334 326
f 328 273 280
f 328 280 336
f 335 327 328
f 335 328 336
f 337 280 281
f 337 336 280
f 339 275 330
f 339 282 275
f 338 330 329
f 338 339 330
f 337 281 284
f 337 284 342
f 341 336 337
f 341 337 342
f 344 282 339
f 344 286 282
f 286 343 285
f 286 344 343
f 344 339 340
f 344 340 345
f 342 284 288
f 342 288 346
f 343 290 285
f 343 348 290
f 290 347 289
f 290 348 347
f 346 288 291
f 346 291 349
f 350 291 292
f 350 349 291
f 351 289 347
f 351 293 289
f 294 293 351
f 294 351 352
f 352 351 347
f 352 347 348
f 355 350 292
f 355 292 296
f 355 296 295
f 355 295 354
f 356 294 352
f 356 298 294
f 299 298 356
f 299 356 357
f 360 354 295
f 360 295 300
f 360 359 353
f 360 353 354
f 357 302 299
f 357 361 302
f 362 303 302
f 362 302 361
f 364 363 358
f 364 358 359
f 365 360 300
f 365 300 306
f 306 305 364
f 306 364 365
f 362 307 303
f 362 366 307
f 367 308 307
f 367 307 366
f 309 308 367
f 309 367 368
f 369 310 309
f 369 309 368
f 370 311 310
f 370 310 369
f 371 364 305
f 371 305 312
f 371 312 311
f 371 311 370
f 371 370 363
f 371 363 364
f 375 319 320
f 375 374 319
f 376 320 321
f 376 375 320
f 375 373 372
f 375 376 373
f 377 321 322
f 377 376 321
f 379 323 324
f 379 378 323
f 380 319 374
f 380 325 319
f 380 324 325
f 380 379 324
f 377 322 328
f 377 328 382
f 382 328 327
f 382 327 381
f 381 376 377
f 381 377 382
f 384 329 330
f 384 383 329
f 385 323 378
f 385 331 323
f 385 330 331
f 385 384 330
f 387 386 379
f 387 379 380
f 381 327 335
f 381 335 388
f 389 335 336
f 389 388 335
f 383 338 329
f 383 390 338
f 391 339 338
f 391 338 390
f 390 383 384
f 390 384 391
f 340 339 391
f 340 391 392
f 389 336 341
f 389 341 393
f 394 341 342
f 394 393 341
f 396 343 344
f 396 395 343
f 392 345 340
f 392 397 345
f 345 396 344
f 345 397 396
f 394 342 346
f 394 346 398
f 399 343 395
f 399 348 343
f 400 399 395
f 400 395 396
f 401 400 396
f 401 396 397
f 398 346 349
f 398 349 403
f 404 349 350
f 404 403 349
f 405 348 399
f 405 352 348
f 405 399 400
f 405 400 406
f 407 406 400
f 407 400 401
f 409 354 353
f 409 353 408
f 409 408 402
f 409 402 403
f 410 404 350
f 410 350 355
f 355 354 409
f 355 409 410
f 409 403 404
f 409 404 410
f 405 356 352
f 405 411 356
f 357 356 411
f 357 411 412
f 411 405 406
f 411 406 412
f 418 408 353
f 418 353 359
f 418 359 358
f 418 358 417
f 419 359 360
f 419 418 359
f 420 357 412
f 420 361 357
f 362 361 420
f 362 420 421
f 420 412 413
f 420 413 421
f 423 422 414
f 423 414 415
f 425 417 358
f 425 358 363
f 425 424 416
f 425 416 417
f 426 359 418
f 426 364 359
f 419 360 365
f 419 365 427
f 365 364 426
f 365 426 427
f 426 418 419
f 426 419 427
f 421 366 362
f 421 428 366
f 367 366 428
f 367 428 429
f 428 421 422
f 428 422 429
f 430 368 367
f 430 367 429
f 431 369 368
f 431 368 430
f 432 425 363
f 432 363 370
f 432 370 369
f 432 369 431
f 432 431 424
f 432 424 425
f 433 429 428
f 433 434 429
f 435 429 434
f 435 430 429
f 373 436 372
f 373 437 436
f 436 375 372
f 436 440 375
f 440 374 375
f 440 439 374
f 441 437 373
f 441 373 376
f 441 440 436
f 441 436 437
f 379 442 378
f 379 443 442
f 439 380 374
f 439 444 380
f 444 438 443
f 444 439 438
f 441 376 381
f 441 381 446
f 442 385 378
f 442 448 385
f 385 447 384
f 385 448 447
f 443 379 386
f 443 386 449
f 449 448 442
f 449 442 443
f 444 387 380
f 444 450 387
f 450 386 387
f 450 449 386
f 446 381 388
f 446 388 452
f 452 451 445
f 452 445 446
f 453 388 389
f 453 452 388
f 454 384 447
f 454 391 384
f 392 391 454
f 392 454 455
f 457 456 451
f 457 451 452
f 453 389 393
f 453 393 458
f 459 393 394
f 459 458 393
f 455 397 392
f 455 460 397
f 463 459 394
f 463 394 398
f 460 401 397
f 460 464 401
f 464 460 461
f 464 461 465
f 468 463 398
f 468 398 403
f 468 403 402
f 468 402 467
f 468 467 462
f 468 462 463
f 464 407 401
f 464 470 407
f 407 469 406
f 407 470 469
f 471 470 464
f 471 464 465
f 474 467 402
f 474 402 408
f 474 473 466
f 474 466 467
f 469 412 406
f 469 475 412
f 413 412 475
f 413 475 476
f 476 475 469
f 476 469 470
f 415 414 477
f 415 477 478
f 480 417 416
f 480 416 479
f 480 479 472
f 480 472 473
f 481 474 408
f 481 408 418
f 481 418 417
f 481 417 480
f 480 473 474
f 480 474 481
f 482 413 476
f 482 421 413
f 477 414 422
f 477 422 483
f 422 421 482
f 422 482 483
f 478 423 415
f 478 484 423
f 423 483 422
f 423 484 483
f 484 477 483
f 484 478 477
f 485 479 416
f 485 416 424
f 487 422 483
f 487 429 422
f 429 486 428
f 429 487 486
f 489 485 424
f 489 424 431
f 489 431 430
f 489 430 488
f 489 488 484
f 489 484 485
f 486 433 428
f 486 490 433
f 434 433 490
f 434 490 491
f 491 490 486
f 491 486 487
f 492 488 430
f 492 430 435
f 435 434 491
f 435 491 492
f 492 491 487
f 492 487 488
f 496 438 439
f 496 495 438
f 495 494 493
f 495 496 494
f 497 439 440
f 497 496 439
f 498 440 441
f 498 497 440
f 499 438 495
f 499 443 438
f 500 444 443
f 500 443 499
f 498 441 446
f 498 446 502
f 502 446 445
f 502 445 501
f 501 497 498
f 501 498 502
f 504 447 448
f 504 503 447
f 449 504 448
f 449 505 504
f 500 450 444
f 500 506 450
f 450 505 449
f 450 506 505
f 505 500 499
f 505 506 500
f 507 501 445
f 507 445 451
f 453 508 452
f 453 509 508
f 510 447 503
f 510 454 447
f 455 454 510
f 455 510 511
f 510 503 504
f 510 504 511
f 512 511 504
f 512 504 505
f 512 505 506
f 512 506 513
f 507 451 456
f 507 456 514
f 513 506 507
f 513 507 514
f 508 457 452
f 508 515 457
f 515 456 457
f 515 514 456
f 509 453 458
f 509 458 516
f 515 508 509
f 515 509 516
f 517 458 459
f 517 516 458
f 518 455 511
f 518 460 455
f 461 460 518
f 461 518 519
f 518 511 512
f 518 512 519
f 520 513 514
f 520 514 521
f 521 514 515
f 521 515 522
f 523 522 515
f 523 515 516
f 524 517 459
f 524 459 463
f 524 463 462
f 524 462 523
f 523 516 517
f 523 517 524
f 525 461 519
f 525 465 461
f 528 523 462
f 528 462 467
f 528 467 466
f 528 466 527
f 528 527 522
f 528 522 523
f 530 465 525
f 530 471 465
f 471 529 470
f 471 530 529
f 530 525 526
f 530 526 531
f 533 527 466
f 533 466 473
f 533 473 472
f 533 472 532
f 529 476 470
f 529 534 476
f 535 534 529
f 535 529 530
f 535 530 531
f 535 531 536
f 537 532 472
f 537 472 479
f 537 536 531
f 537 531 532
f 538 476 534
f 538 482 476
f 483 482 538
f 483 538 539
f 538 534 535
f 538 535 539
f 541 537 479
f 541 479 485
f 541 485 484
f 541 484 540
f 541 540 536
f 541 536 537
f 542 483 539
f 542 487 483
f 543 540 484
f 543 484 488
f 488 487 542
f 488 542 543
f 542 539 540
f 542 540 543
f 494 544 493
f 494 545 544
f 546 493 544
f 546 495 493
f 547 545 494
f 547 494 496
f 548 496 497
f 548 547 496
f 549 495 546
f 549 499 495
f 548 497 501
f 548 501 551
f 550 547 548
f 550 548 551
f 552 499 549
f 552 505 499
f 506 505 552
f 506 552 553
f 554 551 501
f 554 501 507
f 554 507 506
f 554 506 553
f 554 553 550
f 554 550 551
f 513 555 512
f 513 556 555
f 555 519 512
f 555 557 519
f 556 513 520
f 556 520 558
f 557 555 556
f 557 556 558
f 559 520 521
f 559 558 520
f 560 521 522
f 560 559 521
f 561 519 557
f 561 525 519
f 526 525 561
f 526 561 562
f 561 557 558
f 561 558 562
f 560 522 527
f 560 527 564
f 563 559 560
f 563 560 564
f 565 526 562
f 565 531 526
f 532 531 565
f 532 565 566
f 565 562 563
f 565 563 566
f 564 527 533
f 564 533 567
f 567 533 532
f 567 532 566
f 567 566 563
f 567 563 564
f 536 568 535
f 536 569 568
f 570 535 568
f 570 539 535
f 571 569 536
f 571 536 540
f 571 540 539
f 571 539 570
f 570 568 569
f 570 569 571
f 573 544 545
f 573 572 544
f 572 546 544
f 572 574 546
f 573 545 547
f 573 547 575
f 574 572 573
f 574 573 575
f 574 549 546
f 574 576 549
f 575 547 550
f 575 550 577
f 578 549 576
f 578 552 549
f 579 577 550
f 579 550 553
f 579 553 552
f 579 552 578
f 559 580 558
f 559 581 580
f 580 562 558
f 580 582 562
f 581 559 563
f 581 563 583
f 563 562 582
f 563 582 583
f 582 580 581
f 582 581 583
f 585 574 575
f 585 584 574
f 584 576 574
f 584 586 576
f 585 575 577
f 585 577 587
f 587 586 584
f 587 584 585
f 588 576 586
f 588 578 576
f 587 577 579
f 587 579 589
f 589 579 578
f 589 578 588
f 589 588 586
f 589 586 587
