# parsimony mesh: eg11388_monomer (source /Users/eranagmon/code/v2e-flagella/workspace/studies/ecoli-3d/viz/3d/structures/eg11388_monomer.pdb)
# atoms: 1046  voxel: 4 Å  verts: 601  tris: 1220
v 22.4878 -1.6307 -33.2213
v 23.8922 -1.6307 -33.2213
v 22.1190 1.0645 -33.3361
v 24.2548 1.0645 -33.3361
v 22.3997 3.3740 -32.9914
v 23.8431 3.3740 -32.9914
v 15.0067 -5.0624 -28.7173
v 15.6456 -5.0624 -28.7173
v 15.0067 -4.6612 -28.7173
v 17.0524 -3.2732 -28.8823
v 21.1300 -2.1221 -30.4872
v 23.8722 -1.7064 -30.6469
v 18.2212 1.0645 -29.5945
v 20.1190 1.0645 -31.5945
v 24.7381 1.0645 -30.6469
v 18.5646 3.6591 -29.5099
v 21.0772 3.7975 -30.7647
v 23.9592 3.5348 -30.6469
v 14.7343 -5.9665 -26.6469
v 16.1298 -5.9665 -26.6469
v -4.9194 -0.9425 -24.6549
v -4.8904 -0.9425 -24.6549
v 14.6363 -3.1709 -26.6140
v 17.1281 -3.3372 -27.1948
v 21.0933 -3.3377 -26.6469
v 23.5786 -1.9291 -26.6469
v -4.9194 -0.8587 -24.6549
v -4.8904 -0.8587 -24.6549
v 14.8103 -0.4561 -25.2587
v 17.1786 1.1331 -26.4025
v 21.0933 2.2597 -25.4169
v 23.7244 1.0259 -26.7233
v 18.5646 3.6591 -27.5462
v 21.0933 3.7487 -27.4169
v 23.4981 3.3822 -28.1075
v -1.2947 9.8384 -25.0134
v -0.4379 9.8384 -25.0134
v -1.4846 13.0645 -25.3196
v -0.2536 13.0645 -25.3196
v -1.2892 15.3738 -25.1773
v -0.5047 15.3738 -25.1773
v 14.5500 -9.1990 -21.8982
v 15.5597 -9.1990 -21.8982
v 14.1591 -7.2841 -22.9977
v 16.4541 -7.2841 -22.9977
v -5.0146 -0.9879 -22.6469
v -4.7067 -0.9879 -22.6469
v 13.7223 -2.9355 -22.6469
v 18.5263 -3.0925 -22.3079
v 21.0933 -2.3758 -23.2722
v 23.5008 -1.9275 -24.0456
v -5.3151 0.7106 -22.8475
v -3.4401 0.6734 -22.9364
v 1.0933 2.0995 -21.5617
v 3.2991 2.6367 -20.9554
v 14.4826 0.4082 -22.6469
v 17.4454 0.7342 -22.3079
v 21.0933 0.2597 -23.2722
v 23.5008 -0.3331 -24.0456
v -5.4435 4.1585 -21.6480
v -3.2073 5.3209 -22.5556
v 1.4900 5.4560 -22.1400
v 3.2991 4.3836 -20.9554
v -2.2741 8.7288 -23.0082
v 0.6282 8.7288 -23.0082
v -1.8030 13.3713 -22.3979
v 0.0727 13.3713 -22.3979
v -1.2892 15.3738 -23.5652
v -0.5047 15.3738 -23.5652
v 10.8531 -9.1960 -17.0492
v 13.1673 -9.3250 -18.4883
v 16.9732 -9.1848 -18.2867
v 19.1185 -8.9624 -16.7133
v 10.8531 -8.5861 -17.0492
v 12.3559 -7.1258 -18.4883
v 18.1905 -7.2170 -18.2867
v 19.1185 -8.7380 -16.7133
v -5.1428 -1.0470 -18.6469
v -3.1565 -1.3533 -18.7308
v 1.0933 -1.6257 -17.6391
v 3.4086 -1.3082 -17.1633
v 13.5563 -2.9355 -18.6469
v 17.8972 -2.9355 -18.6469
v -6.3507 1.0645 -18.6469
v -1.9897 -0.4611 -20.1200
v 1.8185 1.1523 -18.6150
v 3.3539 1.2630 -18.5398
v 14.5704 0.2447 -18.6469
v 16.3755 0.2447 -18.6469
v -6.3624 5.3209 -18.9544
v -4.7410 6.8251 -20.4928
v 2.9366 5.6605 -18.8746
v 3.2047 5.6605 -18.8746
v -5.7698 9.0645 -17.8972
v -4.3249 9.0645 -19.8972
v 2.6603 9.0645 -19.8335
v 3.2417 9.0645 -17.8335
v -5.2418 11.9440 -17.1347
v -3.1518 13.4265 -18.8240
v 1.3690 13.3792 -18.7782
v 3.2742 11.8493 -17.0430
v -2.2221 17.0645 -17.8886
v 0.2493 17.0645 -17.8886
v -1.5603 19.3971 -17.1028
v -0.4885 19.3971 -17.1028
v 6.6555 -13.1325 -13.0647
v 7.5428 -13.1325 -13.0647
v 5.8738 -10.9355 -13.2619
v 9.1979 -10.7900 -14.3902
v 13.0933 -10.3477 -14.6469
v 17.2389 -9.4560 -14.9719
v 19.1185 -8.9624 -16.5220
v 5.6944 -6.9355 -13.1468
v 9.3492 -7.1258 -15.0013
v 11.6960 -5.9194 -15.9042
v 17.9442 -7.2170 -14.9719
v 19.1185 -8.7380 -16.5220
v -9.1534 -1.2866 -12.8732
v -6.6168 -1.4457 -14.3827
v -2.9067 -1.8510 -14.6469
v 0.7925 -1.5920 -14.7408
v 4.9124 -2.8427 -14.5240
v 9.0933 -4.1862 -13.2882
v 13.3117 -3.3525 -14.8547
v 16.0722 -3.3003 -14.9418
v -9.7737 1.0645 -13.6935
v -7.8496 1.0645 -15.6935
v 1.7765 1.1594 -14.7408
v 3.4086 -0.1107 -16.1367
v 14.9274 -0.6740 -16.4718
v 15.5494 -0.6740 -16.4718
v -9.8159 4.2341 -13.8160
v -8.2837 5.3663 -14.9484
v 2.3234 4.8882 -14.6469
v 3.1318 6.8882 -14.6469
v -6.6819 9.0645 -14.6469
v 3.4420 9.0645 -14.6469
v -5.2659 12.3100 -14.6469
v -3.1669 14.2019 -14.4037
v 1.3672 13.8890 -14.4037
v 3.4035 11.9189 -14.6469
v -2.2221 17.0645 -15.4618
v 0.2493 17.0645 -15.4618
v -1.5603 19.3971 -16.1388
v -0.4885 19.3971 -16.1388
v 6.6555 -13.1325 -12.2895
v 9.0721 -13.1699 -10.7669
v 11.8316 -13.2072 -9.2442
v -8.9968 -8.9761 -8.6908
v -6.9067 -9.7778 -9.1089
v -2.9067 -10.3808 -9.5274
v 1.0933 -10.1858 -10.0342
v 4.9470 -10.9959 -11.0922
v 9.0721 -12.3089 -10.7669
v 13.1363 -11.6731 -10.6053
v 15.8532 -9.7711 -10.6469
v -16.9200 -4.9590 -8.6622
v -14.9067 -5.2951 -8.8399
v -10.5608 -6.8091 -9.2650
v -6.9067 -6.9355 -10.0510
v -2.9067 -6.9355 -10.4362
v 1.0933 -6.9355 -11.1494
v 3.6944 -6.9355 -12.1730
v 15.0066 -5.2737 -9.2822
v 15.7723 -6.7384 -10.6281
v -16.9408 -2.9355 -8.6861
v -14.9067 -2.9355 -9.4078
v -10.6547 -2.7462 -11.2708
v -6.9067 -3.5088 -11.5889
v -2.9067 -3.3759 -11.5557
v 1.0408 -2.4847 -10.7236
v 4.8413 -2.7853 -10.7855
v 9.0933 -2.1862 -11.4499
v 13.3492 -3.3525 -10.4213
v 15.2117 -4.8769 -11.9489
v -17.4546 1.0645 -9.0607
v -14.9067 1.0645 -9.9823
v -11.7737 1.0645 -11.5685
v 0.9906 1.0645 -10.6469
v 5.9330 0.1419 -9.4707
v 9.0933 0.1376 -9.4499
v 11.6917 -0.5822 -8.8938
v -17.6050 4.3202 -9.1617
v -14.9067 4.7279 -9.4144
v -11.2321 5.4637 -10.7459
v -8.6457 6.9007 -12.3364
v 2.0694 4.3944 -10.6469
v 3.8754 6.3944 -10.6469
v 10.7602 6.9279 -8.6947
v 11.2105 6.9279 -8.6947
v -9.8334 9.0645 -9.6061
v -7.8188 9.0645 -11.6061
v 4.2111 9.0645 -10.6469
v 10.7602 7.1276 -8.6947
v 11.2105 7.1276 -8.6947
v -9.0674 11.2873 -8.9029
v -6.5930 12.1275 -10.4005
v -2.9067 12.9712 -10.6469
v 1.0933 12.1932 -10.6469
v 3.4291 11.4482 -10.6469
v 10.6015 -13.2072 -8.2553
v 11.8316 -13.2072 -8.2553
v -13.7709 -9.3349 -5.3124
v -10.5608 -9.7944 -6.6462
v -6.9067 -11.1903 -6.6469
v -2.9067 -11.7761 -6.6469
v 1.0933 -11.8391 -6.6469
v 5.0933 -11.3129 -6.6469
v 9.1486 -10.8246 -6.9299
v 13.1363 -10.7747 -8.0826
v 15.1972 -9.3342 -8.4738
v -17.6618 -5.6768 -6.6469
v -15.0252 -7.4022 -6.6462
v -11.6635 -8.0582 -7.9791
v 10.3624 -7.9527 -5.6044
v 13.1709 -6.6132 -7.0391
v 15.1972 -7.9403 -8.4738
v -21.7910 -1.7226 -4.9440
v -19.1301 -3.0078 -6.4251
v 2.8230 -1.1933 -8.4520
v 3.2663 -1.1933 -8.4520
v 13.9455 -2.5523 -6.3114
v 15.1175 -0.9636 -4.7544
v -21.7910 -0.5356 -4.9440
v -19.1636 0.9044 -6.4251
v 2.4057 1.0645 -7.7201
v 4.7971 1.3110 -7.7217
v 9.0933 2.1376 -7.9803
v 13.0524 0.8765 -7.4431
v 15.3204 1.0645 -5.5791
v -17.7036 4.4002 -6.6469
v -14.9067 5.9172 -6.6469
v -12.4412 6.5815 -6.6469
v 2.4468 3.6123 -7.6060
v 5.2308 5.0725 -6.6400
v 9.3232 5.3969 -6.8692
v 12.6876 5.1965 -6.9233
v 15.3718 3.4652 -5.7823
v -10.6169 9.0645 -6.6469
v -5.4948 10.8945 -4.8901
v -4.7638 10.8945 -4.8901
v 4.5318 9.0645 -6.6469
v 10.4382 7.2459 -6.6469
v 11.4847 7.2459 -6.6469
v -9.0823 11.2791 -6.6469
v -6.8596 11.6968 -6.3928
v -3.2210 12.0540 -6.3928
v 1.0933 11.9444 -6.6469
v 3.3256 11.2834 -6.6469
v -13.3582 -13.0165 -0.7411
v -12.7525 -13.0165 -0.7411
v -0.9557 -12.9380 -0.6667
v -0.9018 -12.9380 -0.6667
v -18.1289 -10.0123 -1.6186
v -14.8979 -11.0069 -2.5132
v -11.2142 -11.7178 -2.3034
v -6.9067 -11.6232 -2.6469
v -2.5361 -12.3242 -2.2588
v 0.6963 -11.8778 -2.2588
v 5.0783 -9.9845 -2.2843
v 7.6957 -9.4153 -3.3759
v -21.3844 -5.9464 -1.2613
v -19.3479 -7.2567 -2.7733
v -16.4376 -8.5671 -4.2853
v 6.4017 -8.8441 -0.7093
v 9.0310 -7.0650 -2.4441
v 11.3352 -5.2860 -4.1790
v -25.3336 -1.6610 -1.5989
v -22.9210 -3.0251 -2.7635
v -20.5669 -4.3893 -3.9280
v 10.3662 -4.2970 -1.5123
v 12.8385 -3.3810 -2.7661
v 15.5361 -1.4712 -2.6469
v -25.3336 -0.4144 -1.5989
v -23.0373 0.2780 -2.8181
v -20.0555 2.1906 -2.6469
v 16.4415 1.0645 -2.6469
v -18.0555 4.3703 -2.6469
v -15.1464 6.3454 -2.6867
v -12.5445 6.7916 -4.0465
v 5.7182 6.0676 -2.6469
v 8.4788 6.0676 -2.6469
v 13.6327 5.9984 -2.6469
v 15.9987 3.9984 -2.6469
v -13.9729 7.2530 -1.3799
v -10.7623 8.7322 -2.9436
v -6.7201 10.5529 -3.1154
v -4.7638 10.8945 -4.3902
v 2.3710 10.0271 -1.7343
v 3.6501 8.8421 -2.8993
v 10.4788 7.2884 -2.6469
v 11.6327 7.2884 -2.6469
v -8.9802 11.1278 -4.5073
v -6.7201 11.2545 -3.1154
v -3.2210 11.9391 -2.8929
v 1.0599 11.8299 -2.8993
v 3.1881 11.1992 -4.4009
v -13.6548 -13.2300 1.3531
v -12.4760 -13.2300 1.3531
v -0.9557 -12.9380 -0.6334
v -0.9018 -12.9380 -0.6334
v -18.4732 -10.3594 1.3531
v -15.6548 -12.3594 1.3531
v -10.4760 -11.5443 1.3531
v -6.9067 -10.9754 1.3531
v -2.4647 -11.2229 1.1667
v 0.6963 -10.5551 -0.0349
v 3.7350 -8.9683 -0.5874
v -21.8077 -6.2076 1.3531
v -20.4732 -8.2076 1.3531
v -1.3069 -8.6570 2.9669
v 1.0933 -8.3601 2.1080
v 5.0783 -7.9771 0.9888
v 7.7353 -6.1041 1.3531
v -25.3336 -1.6610 0.5596
v -23.9742 -2.9708 1.6770
v 9.7353 -3.6939 1.3531
v 13.3459 -1.9540 1.6470
v 15.6595 -1.6217 0.5096
v -25.3336 -0.4144 0.5596
v -23.2673 1.2092 1.3491
v -20.7409 2.8327 -0.5281
v 6.2288 2.6842 2.8264
v 7.6842 2.6842 2.8264
v 14.8477 -0.8276 3.1763
v 17.1741 0.8641 1.5789
v 19.3686 2.5559 2.6481
v -21.7167 4.0388 2.1386
v -19.2072 4.6228 1.0244
v -15.1464 6.1142 1.5170
v -11.5783 6.5244 2.9595
v 1.7625 5.9651 2.2323
v 4.7777 4.7828 1.1960
v 9.2492 5.2024 1.5326
v 12.8086 6.6900 1.6394
v 17.1239 5.2179 1.5107
v 19.3686 3.8600 2.6481
v -13.9729 7.2530 0.2929
v -10.5097 7.4659 1.5170
v -7.2302 9.4250 1.3531
v -2.0643 9.7350 2.6347
v 0.7334 8.5477 1.1002
v 3.3267 7.3604 -0.4343
v 10.8142 7.1843 0.2388
v 12.8086 7.2034 1.6394
v 15.5592 7.2224 3.0401
v -5.2302 11.3481 1.3531
v -3.2012 11.5022 1.3221
v -0.2957 11.4159 -0.0319
v -13.6375 -13.3007 5.3531
v -12.3770 -13.3007 5.3531
v -18.1871 -10.1214 5.3531
v -15.6375 -12.1214 5.3531
v -10.3770 -11.5496 5.3531
v -6.9067 -10.6769 5.3531
v -3.7507 -10.0628 5.3531
v -21.9788 -6.1839 5.3531
v -20.1871 -8.1839 5.3531
v -1.7507 -8.1813 5.3531
v 1.0901 -6.4389 5.4456
v 5.0933 -5.8061 4.1286
v 7.3430 -5.2517 3.5664
v -23.1288 -2.9355 5.3531
v 1.9963 -2.9355 6.4052
v 5.0933 -2.9355 5.0886
v 9.1387 -2.4604 5.1421
v 12.1617 -1.2229 5.3531
v -22.3127 0.9177 5.5210
v -20.2495 2.1531 6.9662
v 1.7198 1.0645 5.9072
v 4.9746 1.2364 4.2151
v 8.3249 1.2364 5.3719
v 14.1617 -0.5917 5.3531
v 17.0933 0.8548 5.3531
v 19.4255 2.5111 5.3531
v -21.7167 4.0388 4.2995
v -18.9124 4.1185 5.5210
v -14.9067 4.6479 5.3531
v -11.0711 6.0611 5.3531
v -5.9452 6.7060 6.9815
v -2.9067 6.1441 6.0767
v 0.5742 4.7472 4.7663
v 3.5621 3.2985 3.5099
v 9.9062 5.3084 5.2796
v 11.5427 6.8043 3.8973
v 18.0093 5.9814 5.3531
v 19.4255 3.9814 5.3531
v -9.0711 7.1028 5.3531
v -6.7889 8.4234 5.2086
v -3.2012 8.6668 3.9815
v -0.9042 7.0683 3.3561
v 10.9031 7.1992 6.5640
v 13.2106 8.5441 5.5287
v 15.9902 8.7593 5.6373
v -4.9660 11.1258 3.4357
v -4.7309 11.1258 3.4357
v 14.8785 11.2447 7.1600
v 15.3668 11.2447 7.1600
v -16.9771 -12.9915 11.1214
v -14.7638 -13.2973 9.6141
v -11.1350 -13.5031 9.3547
v -8.2797 -13.3345 10.6891
v -18.2019 -10.9912 9.6141
v -16.0019 -12.3617 8.4547
v -9.9538 -12.1888 8.0224
v -6.6775 -10.9200 9.5892
v -4.2984 -9.6512 8.4893
v -21.6126 -5.9148 8.4484
v -20.1172 -7.1230 9.6103
v -5.0752 -8.7561 11.1559
v -2.9417 -7.5939 9.6348
v -0.4078 -5.3930 9.3531
v -21.5711 -2.9449 9.6103
v -20.1692 -4.2846 11.1151
v 0.1338 -2.9355 9.3531
v 10.9343 -1.0022 7.7590
v 11.4300 -1.0022 7.7590
v -21.2078 -0.2953 9.3531
v -18.9124 1.6428 9.3865
v -16.4372 2.5080 10.7420
v -4.9832 2.6239 11.2613
v -2.9067 2.0341 10.6933
v -0.2977 0.9046 9.2803
v 6.7918 2.0480 10.4337
v 9.1575 0.6634 9.0963
v 12.8953 -0.2287 9.1966
v 17.1135 1.9051 9.1898
v 19.2609 2.8352 7.7476
v -17.5828 3.4398 8.0754
v -15.0250 3.8975 9.3865
v -10.6352 5.6967 9.0240
v -6.7976 5.2389 9.3663
v -2.9067 4.1441 8.6933
v -0.6140 3.5292 7.8985
v 6.7918 3.4089 10.4337
v 8.3504 4.8712 9.2015
v 17.7536 4.9208 9.1898
v 19.2609 3.4916 7.7476
v -9.1209 7.1152 7.4712
v -8.6119 7.1152 7.4712
v 10.5021 8.7453 9.6528
v 13.5241 10.3919 9.8354
v 15.8975 9.3766 9.6321
v 10.9670 11.1773 11.1859
v 13.5241 11.2110 9.8354
v 15.3668 11.2447 8.4848
v -16.9771 -12.9915 11.5781
v -14.6184 -13.2171 13.0881
v -11.2595 -13.4229 13.2654
v -8.2797 -13.3345 11.8736
v -21.3012 -9.5058 14.1404
v -18.8990 -10.9929 12.8593
v -15.7595 -12.4799 14.2448
v -10.0807 -10.9355 14.4912
v -7.5629 -10.9355 12.4912
v -21.3012 -7.7357 14.1404
v -20.3600 -6.6156 13.0255
v -9.2173 -8.6030 15.0168
v -6.5994 -7.3462 13.5624
v -2.9067 -5.8038 11.9229
v -0.9029 -4.9393 11.3580
v -21.0194 -1.6179 11.7760
v -20.1024 -2.9449 13.2068
v -9.1398 -1.1420 15.1629
v -6.8368 -2.6594 14.1700
v -2.9067 -2.9355 12.1541
v -0.7692 -2.9355 11.4904
v -21.0194 -0.5038 11.7760
v -18.9977 0.3131 13.2068
v -16.1405 2.3015 13.3531
v -9.1398 -0.4690 15.1629
v -6.7933 1.0774 13.3231
v -2.9067 0.0341 11.5843
v -0.7271 -0.5354 11.5312
v 6.5380 1.4811 13.3531
v 9.0933 -0.2851 13.3531
v 13.0933 0.3441 13.3531
v 15.8842 2.1103 13.3531
v -14.1405 3.6970 13.3531
v -10.9067 4.4256 13.3531
v -7.7367 3.7931 13.3531
v 6.5380 3.8710 13.3531
v 8.0424 5.8710 13.3531
v 14.7010 6.6557 14.8503
v 15.9129 5.2192 13.4514
v 10.1768 9.1904 13.2780
v 13.4353 9.4295 13.3724
v 15.4047 8.2513 12.1836
v 10.9670 11.1773 11.8945
v 12.1697 11.1773 11.8945
v -13.0929 -12.9772 15.4170
v -12.8281 -12.9772 15.4170
v -21.3012 -9.5058 15.7758
v -18.9067 -10.0216 16.2481
v -14.6184 -11.0622 16.2750
v -12.0807 -10.9355 15.9275
v -21.3012 -7.7357 15.7758
v -19.2539 -6.6156 16.5142
v -14.9067 -6.9355 17.7586
v -10.6931 -7.1360 16.7333
v -8.1236 -5.9363 15.9585
v -18.4545 -2.9355 16.3163
v -14.9067 -2.9355 17.8627
v -10.6465 -2.6594 16.9535
v -8.1236 -3.8086 15.9585
v 6.7297 -1.2437 18.3246
v 9.0933 -1.3821 17.7005
v 11.7394 -1.2227 18.1782
v -17.7250 -0.0629 15.8956
v -14.8600 1.0034 17.4922
v -10.8166 0.8003 17.3513
v -8.6034 2.1977 15.6138
v 6.1601 0.8078 17.1360
v 9.0933 -0.6833 15.7005
v 13.0810 0.2758 17.0482
v 15.4103 2.5055 17.3531
v -13.8367 3.7449 17.3531
v -11.0588 3.7674 17.1096
v -8.6034 3.3288 15.6138
v 6.2184 5.1031 17.5925
v 8.9528 6.6266 17.6946
v 13.2579 6.1094 17.5235
v 15.4103 4.0757 17.3531
v 6.8269 7.1291 19.0854
v 8.9528 7.5351 17.6946
v 12.0343 7.9410 16.3037
v 2.5672 -1.2235 22.9394
v 5.2752 -1.8901 21.5049
v 9.0933 -2.7259 21.3531
v 13.0810 -1.6625 21.4983
v 15.2847 -1.0630 22.9284
v -13.3654 2.0697 19.7191
v -12.4935 2.0697 19.7191
v 2.3900 1.0645 22.5519
v 4.2560 1.0645 20.5519
v 14.4061 0.2046 20.2617
v 15.4631 1.3486 21.4983
v -13.3654 3.6059 19.7191
v -12.4935 3.6059 19.7191
v 2.6816 3.3547 22.6986
v 5.2503 4.7728 21.0920
v 8.9642 5.9919 21.0325
v 13.0933 4.8884 21.3531
v 15.4120 3.5739 21.3531
v 6.8269 7.1291 19.4854
v 7.5448 7.1291 19.4854
v 2.4709 -1.4638 25.3531
v 5.0933 -2.9631 25.3531
v 9.3878 -2.6131 25.5890
v 13.0933 -1.6289 24.3565
v 15.2847 -1.0630 23.6312
v 1.9725 1.0645 25.3531
v 10.8939 1.0645 27.0234
v 13.0933 1.0645 25.6431
v 15.5042 1.0645 23.9728
v 2.5950 3.7934 25.3531
v 5.0933 4.6426 25.3531
v 9.4393 4.1596 25.6535
v 13.0933 3.7757 24.6396
v 15.4498 3.3200 23.9012
v 7.0263 -4.9765 31.0737
v 7.1946 -4.9765 31.0737
v 2.7261 -1.3001 29.3531
v 5.4531 -3.4298 29.5855
v 8.2797 -3.1381 29.5855
v 2.6479 0.8572 29.4415
v 5.0933 2.2569 30.9200
v 8.9649 1.4257 29.7183
v 2.8610 5.0574 29.4790
v 4.3792 5.0610 29.7219
v 8.3367 3.7373 28.6284
v 2.8814 7.2508 30.7910
v 3.4271 7.2508 30.7910
v 7.0263 -4.9765 31.4207
v 7.1946 -4.9765 31.4207
v -1.1169 -1.1221 34.8420
v 1.3819 -1.4482 33.4465
v 5.4531 -2.9673 32.9937
v 7.6170 -2.5666 32.9937
v -1.1661 1.0645 34.8143
v 1.1819 1.0030 33.6606
v 4.9825 2.1519 32.9947
v 7.9017 1.4257 32.9947
v -1.0424 3.1505 35.1457
v 1.1688 4.7595 33.3780
v 4.8345 5.2144 32.8497
v 7.6692 4.0602 34.0891
v 2.8814 7.2508 31.6103
v 3.4271 7.2508 31.6103
v -1.1169 -1.1221 35.5509
v 1.0933 -1.5239 35.8749
v 5.0933 -1.4229 35.7637
v 7.1462 -0.9874 35.4026
v -1.1661 1.0645 35.5779
v 0.9111 1.1980 35.8317
v 4.9825 1.1980 36.3086
v 7.5649 1.0645 36.1740
v -1.0424 3.1505 35.4550
v -0.5437 3.1505 35.4550
v 6.2419 4.0602 36.3982
v 7.6692 4.0602 36.3982
f 4 1 3
f 4 2 1
f 6 3 5
f 6 4 3
f 9 8 7
f 9 10 8
f 12 1 2
f 12 11 1
f 14 1 11
f 14 3 1
f 13 11 10
f 13 14 11
f 15 12 2
f 15 2 4
f 14 5 3
f 14 17 5
f 16 14 13
f 16 17 14
f 15 4 6
f 15 6 18
f 18 6 5
f 18 5 17
f 8 19 7
f 8 20 19
f 19 9 7
f 19 23 9
f 24 20 8
f 24 8 10
f 24 10 9
f 24 9 23
f 25 10 11
f 25 24 10
f 26 11 12
f 26 25 11
f 27 22 21
f 27 28 22
f 30 10 24
f 30 13 10
f 29 24 23
f 29 30 24
f 32 26 12
f 32 12 15
f 33 13 30
f 33 16 13
f 34 17 16
f 34 16 33
f 33 30 31
f 33 31 34
f 35 32 15
f 35 15 18
f 35 18 17
f 35 17 34
f 35 34 31
f 35 31 32
f 39 36 38
f 39 37 36
f 41 38 40
f 41 39 38
f 45 19 20
f 45 44 19
f 44 43 42
f 44 45 43
f 22 46 21
f 22 47 46
f 48 19 44
f 48 23 19
f 49 45 20
f 49 20 24
f 25 49 24
f 25 50 49
f 51 25 26
f 51 50 25
f 46 27 21
f 46 52 27
f 47 22 28
f 47 28 53
f 28 27 52
f 28 52 53
f 48 29 23
f 48 56 29
f 57 30 29
f 57 29 56
f 31 30 57
f 31 57 58
f 58 57 49
f 58 49 50
f 59 51 26
f 59 26 32
f 59 32 31
f 59 31 58
f 59 58 50
f 59 50 51
f 60 53 52
f 60 61 53
f 61 54 53
f 61 62 54
f 63 54 62
f 63 55 54
f 37 64 36
f 37 65 64
f 64 62 61
f 64 65 62
f 66 36 64
f 66 38 36
f 67 65 37
f 67 37 39
f 68 38 66
f 68 40 38
f 69 67 39
f 69 39 41
f 41 40 68
f 41 68 69
f 69 68 66
f 69 66 67
f 43 71 42
f 43 72 71
f 75 42 71
f 75 44 42
f 74 71 70
f 74 75 71
f 76 72 43
f 76 43 45
f 76 73 72
f 76 77 73
f 47 78 46
f 47 79 78
f 75 48 44
f 75 82 48
f 76 45 49
f 76 49 83
f 78 52 46
f 78 84 52
f 85 79 47
f 85 47 53
f 54 85 53
f 54 86 85
f 85 80 79
f 85 86 80
f 55 86 54
f 55 87 86
f 86 81 80
f 86 87 81
f 88 48 82
f 88 56 48
f 83 49 57
f 83 57 89
f 89 57 56
f 89 56 88
f 84 60 52
f 84 90 60
f 91 61 60
f 91 60 90
f 93 87 55
f 93 55 63
f 63 62 92
f 63 92 93
f 92 86 87
f 92 87 93
f 91 64 61
f 91 95 64
f 94 91 90
f 94 95 91
f 96 92 62
f 96 62 65
f 97 92 96
f 97 93 92
f 95 66 64
f 95 99 66
f 98 95 94
f 98 99 95
f 96 65 67
f 96 67 100
f 100 67 66
f 100 66 99
f 101 96 100
f 101 97 96
f 103 99 102
f 103 100 99
f 105 102 104
f 105 103 102
f 108 107 106
f 108 109 107
f 110 70 71
f 110 109 70
f 111 71 72
f 111 110 71
f 73 111 72
f 73 112 111
f 114 70 109
f 114 74 70
f 113 109 108
f 113 114 109
f 115 75 74
f 115 74 114
f 112 73 77
f 112 77 117
f 117 77 76
f 117 76 116
f 117 116 111
f 117 111 112
f 120 78 79
f 120 119 78
f 80 120 79
f 80 121 120
f 81 121 80
f 81 122 121
f 123 113 122
f 123 114 113
f 115 82 75
f 115 124 82
f 123 115 114
f 123 124 115
f 125 116 76
f 125 76 83
f 127 78 119
f 127 84 78
f 127 118 126
f 127 119 118
f 129 122 81
f 129 81 87
f 129 87 86
f 129 86 128
f 129 128 121
f 129 121 122
f 130 82 124
f 130 88 82
f 131 125 83
f 131 83 89
f 131 89 88
f 131 88 130
f 130 124 125
f 130 125 131
f 127 90 84
f 127 133 90
f 132 127 126
f 132 133 127
f 134 128 86
f 134 86 92
f 93 134 92
f 93 135 134
f 133 94 90
f 133 136 94
f 135 93 97
f 135 97 137
f 136 98 94
f 136 138 98
f 139 99 98
f 139 98 138
f 137 97 101
f 137 101 141
f 101 100 140
f 101 140 141
f 139 102 99
f 139 142 102
f 140 100 103
f 140 103 143
f 143 142 139
f 143 139 140
f 142 104 102
f 142 144 104
f 143 103 105
f 143 105 145
f 105 104 144
f 105 144 145
f 145 144 142
f 145 142 143
f 107 146 106
f 107 147 146
f 146 108 106
f 146 153 108
f 154 147 107
f 154 107 109
f 154 153 146
f 154 146 147
f 155 109 110
f 155 154 109
f 154 148 147
f 154 155 148
f 156 110 111
f 156 155 110
f 160 149 159
f 160 150 149
f 161 150 160
f 161 151 150
f 161 152 151
f 161 162 152
f 153 113 108
f 153 163 113
f 163 152 162
f 163 153 152
f 165 156 111
f 165 111 116
f 167 157 166
f 167 158 157
f 168 158 167
f 168 159 158
f 169 118 119
f 169 168 118
f 169 159 168
f 169 160 159
f 170 119 120
f 170 169 119
f 169 161 160
f 169 170 161
f 121 170 120
f 121 171 170
f 170 162 161
f 170 171 162
f 172 113 163
f 172 122 113
f 171 163 162
f 171 172 163
f 123 122 172
f 123 172 173
f 174 124 123
f 174 123 173
f 175 165 116
f 175 116 125
f 175 125 124
f 175 124 174
f 175 174 164
f 175 164 165
f 177 166 176
f 177 167 166
f 178 118 168
f 178 126 118
f 178 167 177
f 178 168 167
f 179 171 121
f 179 121 128
f 180 173 172
f 180 181 173
f 182 173 181
f 182 174 173
f 183 177 176
f 183 184 177
f 178 132 126
f 178 185 132
f 184 178 177
f 184 185 178
f 186 133 132
f 186 132 185
f 187 179 128
f 187 128 134
f 188 134 135
f 188 187 134
f 186 136 133
f 186 192 136
f 191 186 185
f 191 192 186
f 193 188 135
f 193 135 137
f 194 190 189
f 194 195 190
f 192 138 136
f 192 197 138
f 196 192 191
f 196 197 192
f 198 139 138
f 198 138 197
f 140 139 198
f 140 198 199
f 200 193 137
f 200 137 141
f 141 140 199
f 141 199 200
f 148 201 147
f 148 202 201
f 205 149 150
f 205 204 149
f 151 205 150
f 151 206 205
f 207 151 152
f 207 206 151
f 208 152 153
f 208 207 152
f 201 154 147
f 201 209 154
f 154 208 153
f 154 209 208
f 210 202 148
f 210 148 155
f 210 209 201
f 210 201 202
f 211 155 156
f 211 210 155
f 158 212 157
f 158 213 212
f 214 149 204
f 214 159 149
f 214 158 159
f 214 213 158
f 214 203 213
f 214 204 203
f 215 209 210
f 215 210 216
f 217 211 156
f 217 156 165
f 217 165 164
f 217 164 216
f 217 216 210
f 217 210 211
f 212 166 157
f 212 219 166
f 221 172 171
f 221 171 220
f 222 216 164
f 222 164 174
f 225 166 219
f 225 176 166
f 224 219 218
f 224 225 219
f 220 171 179
f 220 179 226
f 221 180 172
f 221 227 180
f 226 221 220
f 226 227 221
f 228 181 180
f 228 180 227
f 222 174 182
f 222 182 229
f 182 181 228
f 182 228 229
f 229 223 222
f 229 230 223
f 231 176 225
f 231 183 176
f 184 183 231
f 184 231 232
f 233 185 184
f 233 184 232
f 234 226 179
f 234 179 187
f 188 234 187
f 188 235 234
f 234 227 226
f 234 235 227
f 235 228 227
f 235 236 228
f 190 236 189
f 190 237 236
f 237 228 236
f 237 229 228
f 238 229 237
f 238 230 229
f 233 191 185
f 233 239 191
f 242 235 188
f 242 188 193
f 243 189 236
f 243 194 189
f 244 237 190
f 244 190 195
f 244 195 194
f 244 194 243
f 239 196 191
f 239 245 196
f 246 197 196
f 246 196 245
f 247 198 197
f 247 197 246
f 246 240 241
f 246 241 247
f 248 199 198
f 248 198 247
f 249 242 193
f 249 193 200
f 200 199 248
f 200 248 249
f 256 203 204
f 256 255 203
f 256 250 255
f 256 251 250
f 257 204 205
f 257 256 204
f 206 257 205
f 206 258 257
f 259 206 207
f 259 258 206
f 258 253 252
f 258 259 253
f 260 207 208
f 260 259 207
f 261 208 209
f 261 260 208
f 264 203 255
f 264 213 203
f 264 212 213
f 264 263 212
f 264 254 263
f 264 255 254
f 261 209 215
f 261 215 266
f 265 260 261
f 265 261 266
f 267 215 216
f 267 266 215
f 270 212 263
f 270 219 212
f 270 218 219
f 270 269 218
f 270 262 269
f 270 263 262
f 267 216 222
f 267 222 272
f 271 266 267
f 271 267 272
f 223 272 222
f 223 273 272
f 275 218 269
f 275 224 218
f 275 268 274
f 275 269 268
f 276 225 224
f 276 224 275
f 277 273 223
f 277 223 230
f 276 231 225
f 276 278 231
f 279 232 231
f 279 231 278
f 280 233 232
f 280 232 279
f 282 236 235
f 282 235 281
f 277 230 238
f 277 238 284
f 238 237 283
f 238 283 284
f 280 239 233
f 280 286 239
f 285 280 279
f 285 286 280
f 288 241 240
f 288 240 287
f 281 235 242
f 281 242 290
f 282 243 236
f 282 291 243
f 283 237 244
f 283 244 292
f 244 243 291
f 244 291 292
f 293 239 286
f 293 245 239
f 294 287 240
f 294 240 246
f 246 245 293
f 246 293 294
f 293 286 287
f 293 287 294
f 295 241 288
f 295 247 241
f 294 288 287
f 294 295 288
f 296 248 247
f 296 247 295
f 297 290 242
f 297 242 249
f 297 249 248
f 297 248 296
f 297 296 289
f 297 289 290
f 299 250 251
f 299 298 250
f 253 300 252
f 253 301 300
f 303 250 298
f 303 255 250
f 303 254 255
f 303 302 254
f 304 299 251
f 304 251 256
f 257 304 256
f 257 305 304
f 300 258 252
f 300 306 258
f 258 305 257
f 258 306 305
f 301 253 259
f 301 259 307
f 306 300 301
f 306 301 307
f 308 259 260
f 308 307 259
f 310 254 302
f 310 263 254
f 310 262 263
f 310 309 262
f 311 306 307
f 311 307 312
f 308 260 265
f 308 265 313
f 312 307 308
f 312 308 313
f 314 265 266
f 314 313 265
f 316 262 309
f 316 269 262
f 316 268 269
f 316 315 268
f 314 266 271
f 314 271 317
f 318 271 272
f 318 317 271
f 319 272 273
f 319 318 272
f 315 274 268
f 315 320 274
f 321 275 274
f 321 274 320
f 320 315 316
f 320 316 321
f 322 276 275
f 322 275 321
f 319 273 277
f 319 277 326
f 325 318 319
f 325 319 326
f 322 278 276
f 322 329 278
f 328 322 321
f 328 329 322
f 330 279 278
f 330 278 329
f 282 281 333
f 282 333 334
f 333 323 324
f 333 324 334
f 326 277 284
f 326 284 336
f 336 284 283
f 336 283 335
f 336 327 326
f 336 337 327
f 330 285 279
f 330 338 285
f 339 286 285
f 339 285 338
f 338 330 331
f 338 331 339
f 340 287 286
f 340 286 339
f 343 333 281
f 343 281 290
f 343 290 289
f 343 289 342
f 343 342 332
f 343 332 333
f 344 282 334
f 344 291 282
f 335 283 292
f 335 292 345
f 292 291 344
f 292 344 345
f 344 334 335
f 344 335 345
f 346 335 345
f 346 336 335
f 347 287 340
f 347 294 287
f 295 294 347
f 295 347 348
f 349 342 289
f 349 289 296
f 349 296 295
f 349 295 348
f 349 348 341
f 349 341 342
f 299 350 298
f 299 351 350
f 350 303 298
f 350 353 303
f 353 302 303
f 353 352 302
f 351 299 304
f 351 304 354
f 305 354 304
f 305 355 354
f 356 305 306
f 356 355 305
f 358 302 352
f 358 310 302
f 310 357 309
f 310 358 357
f 356 306 311
f 356 311 359
f 360 311 312
f 360 359 311
f 361 312 313
f 361 360 312
f 314 361 313
f 314 362 361
f 357 316 309
f 357 363 316
f 364 360 361
f 364 361 365
f 362 314 317
f 362 317 366
f 365 361 362
f 365 362 366
f 367 317 318
f 367 366 317
f 368 316 363
f 368 321 316
f 370 364 365
f 370 365 371
f 324 323 371
f 324 371 372
f 372 371 365
f 372 365 366
f 367 318 325
f 367 325 373
f 374 325 326
f 374 373 325
f 327 374 326
f 327 375 374
f 376 321 368
f 376 328 321
f 329 328 376
f 329 376 377
f 376 368 369
f 376 369 377
f 330 329 377
f 330 377 378
f 331 330 378
f 331 378 379
f 383 371 323
f 383 323 333
f 383 333 332
f 383 332 382
f 383 382 370
f 383 370 371
f 384 324 372
f 384 334 324
f 385 335 334
f 385 334 384
f 375 327 337
f 375 337 387
f 337 336 386
f 337 386 387
f 388 331 379
f 388 339 331
f 340 339 388
f 340 388 389
f 390 389 380
f 390 380 381
f 391 382 332
f 391 332 342
f 391 342 341
f 391 341 390
f 391 390 381
f 391 381 382
f 385 345 335
f 385 393 345
f 392 385 384
f 392 393 385
f 386 336 346
f 386 346 394
f 346 345 393
f 346 393 394
f 395 340 389
f 395 347 340
f 396 390 341
f 396 341 348
f 396 348 347
f 396 347 395
f 395 389 390
f 395 390 396
f 397 394 393
f 397 398 394
f 401 350 351
f 401 400 350
f 404 350 400
f 404 353 350
f 404 352 353
f 404 403 352
f 404 399 403
f 404 400 399
f 405 401 351
f 405 351 354
f 355 405 354
f 355 406 405
f 405 402 401
f 405 406 402
f 407 355 356
f 407 406 355
f 403 358 352
f 403 409 358
f 358 408 357
f 358 409 408
f 407 356 359
f 407 359 411
f 410 406 407
f 410 407 411
f 412 359 360
f 412 411 359
f 408 363 357
f 408 413 363
f 414 413 408
f 414 408 409
f 412 360 364
f 412 364 415
f 367 416 366
f 367 417 416
f 418 363 413
f 418 368 363
f 369 368 418
f 369 418 419
f 423 415 364
f 423 364 370
f 416 372 366
f 416 425 372
f 417 367 373
f 417 373 426
f 426 425 416
f 426 416 417
f 427 373 374
f 427 426 373
f 428 374 375
f 428 427 374
f 429 369 419
f 429 377 369
f 378 377 429
f 378 429 430
f 429 419 420
f 429 420 430
f 431 379 378
f 431 378 430
f 433 381 380
f 433 380 432
f 433 432 421
f 433 421 422
f 434 423 370
f 434 370 382
f 434 382 381
f 434 381 433
f 434 433 422
f 434 422 423
f 436 372 425
f 436 384 372
f 436 424 435
f 436 425 424
f 438 428 375
f 438 375 387
f 438 387 386
f 438 386 437
f 437 427 428
f 437 428 438
f 439 379 431
f 439 388 379
f 440 432 380
f 440 380 389
f 440 389 388
f 440 388 439
f 440 439 431
f 440 431 432
f 436 392 384
f 436 441 392
f 393 392 441
f 393 441 442
f 437 386 394
f 437 394 443
f 442 397 393
f 442 445 397
f 444 442 441
f 444 445 442
f 443 394 398
f 443 398 446
f 446 398 397
f 446 397 445
f 446 445 442
f 446 442 443
f 400 447 399
f 400 448 447
f 449 400 401
f 449 448 400
f 450 401 402
f 450 449 401
f 447 403 399
f 447 452 403
f 453 452 447
f 453 447 448
f 455 450 402
f 455 402 406
f 454 449 450
f 454 450 455
f 452 409 403
f 452 457 409
f 457 451 456
f 457 452 451
f 455 406 410
f 455 410 459
f 458 454 455
f 458 455 459
f 460 410 411
f 460 459 410
f 412 460 411
f 412 461 460
f 457 414 409
f 457 463 414
f 414 462 413
f 414 463 462
f 465 459 460
f 465 460 466
f 461 412 415
f 461 415 467
f 466 460 461
f 466 461 467
f 462 418 413
f 462 468 418
f 419 418 468
f 419 468 469
f 468 462 463
f 468 463 469
f 420 419 469
f 420 469 470
f 471 464 465
f 471 465 472
f 473 422 421
f 473 421 472
f 473 472 465
f 473 465 466
f 474 467 415
f 474 415 423
f 474 423 422
f 474 422 473
f 474 473 466
f 474 466 467
f 476 424 425
f 476 475 424
f 426 476 425
f 426 477 476
f 478 426 427
f 478 477 426
f 479 420 470
f 479 430 420
f 480 431 430
f 480 430 479
f 481 472 421
f 481 421 432
f 481 432 431
f 481 431 480
f 482 424 475
f 482 435 424
f 483 436 435
f 483 435 482
f 478 427 437
f 478 437 485
f 483 441 436
f 483 486 441
f 488 485 437
f 488 437 443
f 488 443 442
f 488 442 487
f 488 487 484
f 488 484 485
f 486 444 441
f 486 489 444
f 490 487 442
f 490 442 445
f 490 445 444
f 490 444 489
f 490 489 486
f 490 486 487
f 449 491 448
f 449 492 491
f 494 451 452
f 494 493 451
f 491 453 448
f 491 495 453
f 453 494 452
f 453 495 494
f 492 449 454
f 492 454 496
f 496 495 491
f 496 491 492
f 493 456 451
f 493 497 456
f 457 456 497
f 457 497 498
f 497 493 494
f 497 494 498
f 499 498 494
f 499 494 495
f 496 454 458
f 496 458 500
f 499 495 496
f 499 496 500
f 501 458 459
f 501 500 458
f 498 463 457
f 498 502 463
f 502 498 499
f 502 499 503
f 503 499 500
f 503 500 504
f 501 459 465
f 501 465 505
f 505 465 464
f 505 464 504
f 504 500 501
f 504 501 505
f 502 469 463
f 502 509 469
f 470 469 509
f 470 509 510
f 509 502 503
f 509 503 510
f 504 464 471
f 504 471 511
f 511 510 503
f 511 503 504
f 512 471 472
f 512 511 471
f 514 475 476
f 514 513 475
f 514 506 513
f 514 507 506
f 477 514 476
f 477 515 514
f 514 508 507
f 514 515 508
f 478 515 477
f 478 516 515
f 517 470 510
f 517 479 470
f 518 480 479
f 518 479 517
f 512 472 481
f 512 481 519
f 519 481 480
f 519 480 518
f 518 511 512
f 518 512 519
f 513 482 475
f 513 520 482
f 483 482 520
f 483 520 521
f 523 516 478
f 523 478 485
f 523 485 484
f 523 484 522
f 525 483 521
f 525 486 483
f 524 521 520
f 524 525 521
f 526 522 484
f 526 484 487
f 526 487 486
f 526 486 525
f 526 525 521
f 526 521 522
f 529 506 507
f 529 528 506
f 508 529 507
f 508 530 529
f 533 510 511
f 533 532 510
f 535 506 528
f 535 513 506
f 535 527 534
f 535 528 527
f 536 530 508
f 536 508 515
f 516 536 515
f 516 537 536
f 536 531 530
f 536 537 531
f 532 517 510
f 532 538 517
f 533 511 518
f 533 518 539
f 539 518 517
f 539 517 538
f 538 532 533
f 538 533 539
f 535 520 513
f 535 541 520
f 540 535 534
f 540 541 535
f 522 521 542
f 522 542 543
f 544 537 516
f 544 516 523
f 523 522 543
f 523 543 544
f 545 520 541
f 545 524 520
f 546 542 521
f 546 521 525
f 546 525 524
f 546 524 545
f 545 541 542
f 545 542 546
f 548 527 528
f 548 547 527
f 529 548 528
f 529 549 548
f 550 529 530
f 550 549 529
f 531 550 530
f 531 551 550
f 552 527 547
f 552 534 527
f 553 549 550
f 553 550 554
f 555 551 531
f 555 531 537
f 555 554 550
f 555 550 551
f 552 540 534
f 552 556 540
f 557 541 540
f 557 540 556
f 542 541 557
f 542 557 558
f 543 542 558
f 543 558 559
f 559 558 553
f 559 553 554
f 560 555 537
f 560 537 544
f 560 544 543
f 560 543 559
f 559 554 555
f 559 555 560
f 548 563 547
f 548 564 563
f 565 548 549
f 565 564 548
f 565 561 564
f 565 562 561
f 566 547 563
f 566 552 547
f 565 549 553
f 565 553 568
f 566 556 552
f 566 569 556
f 557 556 569
f 557 569 570
f 569 566 567
f 569 567 570
f 571 568 553
f 571 553 558
f 571 558 557
f 571 557 570
f 571 570 567
f 571 567 568
f 573 569 572
f 573 570 569
f 562 574 561
f 562 575 574
f 574 564 561
f 574 578 564
f 578 563 564
f 578 577 563
f 575 562 565
f 575 565 579
f 579 578 574
f 579 574 575
f 577 566 563
f 577 581 566
f 581 576 580
f 581 577 576
f 582 567 566
f 582 566 581
f 579 565 568
f 579 568 583
f 583 568 567
f 583 567 582
f 584 581 580
f 584 585 581
f 586 569 570
f 586 585 569
f 587 582 586
f 587 583 582
f 588 569 585
f 588 572 569
f 589 586 570
f 589 570 573
f 573 572 588
f 573 588 589
f 588 585 586
f 588 586 589
f 591 576 577
f 591 590 576
f 592 577 578
f 592 591 577
f 593 578 579
f 593 592 578
f 594 576 590
f 594 580 576
f 595 594 590
f 595 590 591
f 596 582 581
f 596 581 595
f 596 595 591
f 596 591 592
f 593 579 583
f 593 583 597
f 596 592 593
f 596 593 597
f 594 584 580
f 594 598 584
f 599 595 581
f 599 581 585
f 599 585 584
f 599 584 598
f 599 598 594
f 599 594 595
f 600 582 596
f 600 586 582
f 597 583 587
f 597 587 601
f 587 586 600
f 587 600 601
f 600 596 597
f 600 597 601
