# parsimony mesh: eg12204_monomer (source /Users/eranagmon/code/v2e-abund/workspace/studies/ecoli-3d/viz/3d/structures/eg12204_monomer.pdb)
# atoms: 524  voxel: 8 Å  verts: 79  tris: 156
v 0.4612 -5.0449 -14.0779
v 0.8302 -5.0449 -14.0779
v -0.3449 -0.9196 -14.6730
v 2.0859 -0.9196 -14.6730
v -0.5209 4.8249 -14.8330
v 2.3511 4.8249 -14.8330
v -0.3668 -13.3164 -6.6367
v 1.4328 -13.3164 -6.6367
v -16.0806 -5.6481 -6.7138
v -11.3997 -6.2412 -7.0840
v -2.6195 -8.1657 -9.3576
v 3.7982 -8.2017 -9.6260
v 12.6003 -5.8474 -7.0444
v 16.6879 -5.0511 -6.1240
v -16.0806 -3.8959 -6.7138
v -11.0764 -1.1054 -7.3219
v -4.3449 -0.9196 -11.1272
v 6.0859 -0.9196 -12.0932
v 12.4396 -1.5427 -7.7408
v 16.6879 -4.6247 -6.1240
v -8.1942 3.7040 -6.7713
v -2.8520 6.9311 -9.6021
v 4.8508 7.3271 -11.3487
v 9.9281 7.0804 -7.8714
v 0.1503 11.6981 -7.0996
v 4.6003 12.1145 -7.5543
v 9.3051 11.8416 -6.9863
v -0.7799 -13.4026 -2.0203
v 4.2998 -13.4551 -1.6273
v 8.8771 -13.1682 1.3014
v -16.4621 -6.0384 -2.0203
v -11.3997 -8.0175 -2.0203
v -4.7799 -10.8988 -2.0203
v 6.7661 -11.3585 -4.0319
v 12.1101 -8.2048 -2.1950
v 16.6879 -5.0511 -5.6915
v -16.4621 -3.0768 -2.0203
v -13.1724 0.9232 -2.0203
v 15.1711 -1.0877 -2.1427
v 16.7465 -1.0877 -2.1427
v -9.1724 5.0561 -2.0203
v -4.1143 9.0561 -2.0203
v 13.1711 6.7963 -1.5645
v 16.8051 3.9402 1.4061
v -0.1143 12.0545 -2.0203
v 4.6003 12.7789 -2.0203
v 9.5146 11.8048 -2.0203
v -0.2728 -13.1668 3.3499
v 4.6003 -13.2914 3.2950
v 8.8771 -13.1682 2.3631
v -16.1353 -5.6829 4.1355
v -11.7640 -6.7863 6.4732
v -3.1236 -10.7341 6.0018
v 4.6003 -10.5164 7.2950
v 9.6747 -8.1914 5.4098
v -16.1353 -3.4862 4.1355
v -13.4635 -0.8596 6.4732
v 7.3583 0.7161 8.9567
v 12.0238 -1.0840 5.5967
v 16.8051 2.4493 2.2366
v -9.5241 5.4991 5.9797
v -2.9013 9.0892 5.3574
v 4.6551 7.1543 6.4339
v 12.1089 6.7963 3.2104
v 16.8051 3.9402 2.2366
v 0.0976 11.7615 2.2759
v 4.6003 11.7447 2.3147
v 9.1146 11.2850 2.1302
v -9.3402 -5.6623 10.7357
v -3.3997 -6.9837 11.1233
v 4.6003 -6.5164 10.6174
v 8.7046 -5.0392 10.0611
v -9.8027 -0.9196 11.7908
v -3.3997 -0.9196 13.4630
v 4.6551 -1.5382 11.3663
v 8.7046 -4.6172 10.0611
v -8.6632 4.2946 11.6385
v -3.3997 5.0835 12.3194
v 2.0249 4.5369 11.4405
f 3 2 1
f 3 4 2
f 5 4 3
f 5 6 4
f 12 1 2
f 12 11 1
f 11 8 7
f 11 12 8
f 15 10 9
f 15 16 10
f 17 1 11
f 17 3 1
f 17 10 16
f 17 11 10
f 18 12 2
f 18 2 4
f 18 13 12
f 18 19 13
f 20 13 19
f 20 14 13
f 17 5 3
f 17 22 5
f 21 17 16
f 21 22 17
f 18 4 6
f 18 6 23
f 23 6 5
f 23 5 22
f 24 18 23
f 24 19 18
f 25 23 22
f 25 26 23
f 26 24 23
f 26 27 24
f 8 28 7
f 8 29 28
f 32 9 10
f 32 31 9
f 33 7 28
f 33 11 7
f 33 10 11
f 33 32 10
f 34 29 8
f 34 8 12
f 13 34 12
f 13 35 34
f 34 30 29
f 34 35 30
f 36 13 14
f 36 35 13
f 31 15 9
f 31 37 15
f 38 16 15
f 38 15 37
f 36 14 20
f 36 20 40
f 20 19 39
f 20 39 40
f 39 35 36
f 39 36 40
f 38 21 16
f 38 41 21
f 42 22 21
f 42 21 41
f 43 39 19
f 43 19 24
f 44 39 43
f 44 40 39
f 42 25 22
f 42 45 25
f 46 26 25
f 46 25 45
f 47 43 24
f 47 24 27
f 27 26 46
f 27 46 47
f 29 48 28
f 29 49 48
f 30 49 29
f 30 50 49
f 32 51 31
f 32 52 51
f 48 33 28
f 48 53 33
f 33 52 32
f 33 53 52
f 54 53 48
f 54 48 49
f 55 50 30
f 55 30 35
f 54 49 50
f 54 50 55
f 56 31 51
f 56 37 31
f 38 37 56
f 38 56 57
f 56 51 52
f 56 52 57
f 59 55 35
f 59 35 39
f 60 39 40
f 60 59 39
f 61 38 57
f 61 41 38
f 42 41 61
f 42 61 62
f 64 63 58
f 64 58 59
f 60 40 44
f 60 44 65
f 44 43 64
f 44 64 65
f 64 59 60
f 64 60 65
f 66 42 62
f 66 45 42
f 46 45 66
f 46 66 67
f 66 62 63
f 66 63 67
f 68 64 43
f 68 43 47
f 68 47 46
f 68 46 67
f 68 67 63
f 68 63 64
f 53 69 52
f 53 70 69
f 54 70 53
f 54 71 70
f 72 54 55
f 72 71 54
f 69 57 52
f 69 73 57
f 74 73 69
f 74 69 70
f 75 74 70
f 75 70 71
f 76 72 55
f 76 55 59
f 76 59 58
f 76 58 75
f 76 75 71
f 76 71 72
f 73 61 57
f 73 77 61
f 78 62 61
f 78 61 77
f 77 73 74
f 77 74 78
f 79 75 58
f 79 58 63
f 79 63 62
f 79 62 78
f 79 78 74
f 79 74 75
