# parsimony mesh: eg12295_monomer (source /Users/eranagmon/code/v2e-flagella/workspace/studies/ecoli-3d/viz/3d/structures/eg12295_monomer.pdb)
# atoms: 1097  voxel: 16 Å  verts: 45  tris: 86
v 14.9032 -8.5102 -34.0898
v 17.2986 -8.5102 -34.0898
v 14.7236 0.2610 -34.4065
v 18.6287 0.2610 -34.4065
v 15.1665 8.8238 -33.6806
v 17.9778 8.8238 -33.6806
v 14.6704 -8.3915 -24.8426
v 16.9744 -8.3915 -24.8426
v 13.4022 0.2610 -24.8426
v 20.2680 0.2610 -24.8426
v 14.3891 9.3137 -24.8426
v 18.9510 9.3137 -24.8426
v -17.5728 -9.2920 -2.1016
v -8.3427 -10.2867 -4.4413
v 8.8409 -8.7104 -10.4315
v 15.7720 -7.8378 -16.4811
v -18.7399 0.2610 -2.5240
v -8.3427 0.2610 -6.0747
v 8.5639 0.2610 -10.0115
v 17.2966 0.2610 -15.6298
v -18.3089 9.0808 -1.8254
v -8.3427 9.5208 -2.4760
v 7.6824 9.1114 -8.8123
v 17.7283 9.1018 -15.5870
v -17.6930 -9.5809 7.1574
v -8.3427 -12.9279 7.1574
v 4.0401 -11.0861 7.1574
v -20.4343 0.2610 7.1574
v 6.7976 0.2610 7.1574
v -19.0840 10.5861 7.1574
v -8.3427 12.8715 7.1574
v 2.4148 10.5463 7.1574
v -16.9130 -8.6419 15.7275
v -8.3427 -10.3803 18.1331
v 2.5720 -10.3579 18.5549
v -17.9108 1.6208 21.8994
v -9.4802 1.6208 25.4599
v 3.6630 0.2610 19.6080
v -17.8751 10.2183 23.1574
v -9.4802 11.1391 23.0793
v 2.0836 10.4481 17.6940
v -16.6970 7.8608 31.4529
v -15.5719 7.8608 31.4529
v -16.6970 8.5903 31.4529
v -15.5719 8.5903 31.4529
f 3 2 1
f 3 4 2
f 6 3 5
f 6 4 3
f 8 1 2
f 8 7 1
f 9 1 7
f 9 3 1
f 8 2 4
f 8 4 10
f 9 5 3
f 9 11 5
f 10 4 6
f 10 6 12
f 6 5 11
f 6 11 12
f 16 7 8
f 16 15 7
f 18 13 17
f 18 14 13
f 15 9 7
f 15 19 9
f 18 15 14
f 18 19 15
f 16 8 10
f 16 10 20
f 19 15 16
f 19 16 20
f 22 17 21
f 22 18 17
f 19 11 9
f 19 23 11
f 23 18 22
f 23 19 18
f 20 10 12
f 20 12 24
f 24 12 11
f 24 11 23
f 24 23 19
f 24 19 20
f 26 13 14
f 26 25 13
f 27 14 15
f 27 26 14
f 28 13 25
f 28 17 13
f 29 27 15
f 29 15 19
f 28 21 17
f 28 30 21
f 31 22 21
f 31 21 30
f 29 19 23
f 29 23 32
f 32 23 22
f 32 22 31
f 26 33 25
f 26 34 33
f 35 26 27
f 35 34 26
f 33 28 25
f 33 36 28
f 36 33 34
f 36 34 37
f 35 27 29
f 35 29 38
f 38 37 34
f 38 34 35
f 36 30 28
f 36 39 30
f 40 31 30
f 40 30 39
f 41 38 29
f 41 29 32
f 41 32 31
f 41 31 40
f 41 40 37
f 41 37 38
f 37 42 36
f 37 43 42
f 42 39 36
f 42 44 39
f 43 37 40
f 43 40 45
f 45 40 39
f 45 39 44
