# parsimony mesh: g360_monomer (source /Users/eranagmon/code/v2e-flagella/workspace/studies/ecoli-3d/viz/3d/structures/g360_monomer.pdb)
# atoms: 1653  voxel: 8 Å  verts: 287  tris: 576
v -47.1934 7.1983 -47.3457
v -45.7053 7.1983 -47.3457
v -47.1934 8.9615 -47.3457
v -45.7053 8.9615 -47.3457
v -46.9158 -0.1355 -39.2952
v -42.5999 -0.6063 -39.4689
v -38.4097 -0.4635 -39.0986
v -47.1696 4.4446 -42.2383
v -43.4583 3.9342 -41.8636
v -38.4097 0.6701 -39.0986
v -47.0751 8.8233 -42.6529
v -45.8875 8.8233 -42.6529
v -46.7093 -7.8881 -30.8594
v -42.5999 -8.3232 -31.6509
v -38.2403 -8.3335 -31.7771
v 25.1202 -7.7660 -30.7592
v 25.5645 -7.7660 -30.7592
v -46.8126 -3.7195 -34.3724
v -42.5999 -3.6151 -34.6007
v -38.3250 -3.5579 -34.8638
v 16.7047 -1.0542 -31.8835
v 22.0322 -3.7069 -31.9713
v 27.4505 -3.6859 -31.3779
v -46.8669 4.3141 -38.0542
v -43.3667 3.7277 -37.7525
v -38.4097 0.6701 -37.9506
v 16.7210 4.3141 -31.7599
v 21.4001 4.3141 -33.1319
v 30.1418 3.5689 -32.3801
v 34.8296 5.7387 -31.7021
v -46.6400 8.3457 -38.6221
v -46.5446 8.3457 -38.6221
v 17.1901 10.8057 -30.8982
v 21.4001 12.0368 -31.5637
v 29.4001 11.2970 -32.1666
v 34.8296 9.8192 -31.7021
v 16.9857 21.7712 -30.9976
v 21.4001 20.6556 -31.4189
v 25.9579 21.9790 -31.3295
v 16.9857 24.8417 -30.9976
v 21.4001 25.5806 -31.4189
v 25.9579 25.4752 -31.3295
v -39.5053 -16.1183 -23.3932
v -37.9953 -16.1183 -23.3932
v -46.7093 -7.8881 -30.3084
v -41.7497 -10.7774 -26.8508
v -38.0091 -11.2744 -26.2970
v 25.1202 -7.7660 -30.1976
v 25.5645 -7.7660 -30.1976
v -46.7093 -7.3036 -30.3084
v -41.8364 -6.8262 -27.2462
v -38.3148 -6.8980 -26.6529
v 16.2528 -1.0970 -26.6529
v 22.0322 -5.0302 -27.1797
v 29.4337 -3.9452 -27.7199
v 34.4894 -1.1789 -25.2423
v 14.6738 4.3141 -26.6529
v 33.3030 0.4054 -30.5756
v 35.5429 3.5689 -27.4065
v 15.8212 11.3194 -26.6529
v 21.0898 15.4016 -27.3371
v 29.5914 14.8552 -27.3371
v 35.2617 10.6365 -26.6529
v 16.9857 21.7712 -28.8929
v 22.3213 19.5595 -26.9290
v 26.5051 20.0385 -27.1883
v 16.9857 24.8417 -28.8929
v 21.4001 25.5806 -28.2808
v 25.9579 25.4752 -29.2500
v -39.8394 -16.4381 -18.6529
v -35.0371 -16.4041 -18.0177
v -30.4287 -15.8801 -14.9276
v -39.6280 -11.8801 -19.4210
v -35.6207 -12.1751 -18.7637
v -30.4287 -15.0073 -14.9276
v 31.2409 -8.7689 -15.7962
v 37.4001 -8.9291 -15.8390
v 41.7606 -8.2605 -15.0909
v -38.6608 -7.6690 -22.5997
v -38.5794 -7.6690 -22.5997
v 8.0610 -0.3399 -16.0708
v 13.6995 -1.1614 -18.7036
v 21.4001 -4.0456 -18.6529
v 28.9046 -6.1863 -18.5389
v 37.2537 -3.7817 -19.2940
v 42.0592 -3.6859 -15.5967
v 6.7099 4.3141 -17.1984
v 11.3529 4.3141 -21.1984
v 32.9018 7.8504 -15.1182
v 37.1377 4.4523 -17.9624
v 41.9184 1.0543 -15.4732
v 7.1522 10.2699 -16.6289
v 13.0630 11.0511 -19.0385
v 21.0898 13.9015 -18.5578
v 29.9770 12.4630 -18.1396
v 34.4527 9.9055 -20.4515
v 23.5496 18.0980 -21.1610
v 27.0523 18.0980 -21.1610
v -39.3471 -16.2563 -13.6303
v -34.5999 -16.2594 -13.5321
v -30.4287 -15.8801 -14.1811
v 31.9108 -16.0388 -7.5267
v 37.4001 -16.0825 -7.5549
v 41.6115 -15.8618 -6.9817
v -39.3471 -14.6763 -13.6303
v -33.3889 -12.0940 -11.2744
v -29.9369 -12.0002 -11.2227
v 23.5395 -9.4630 -8.8589
v 28.9092 -11.7826 -10.8595
v 37.4001 -12.9291 -11.5549
v 42.1725 -11.2306 -10.0501
v -31.7743 -5.9909 -8.2642
v -29.4451 -5.9909 -8.2642
v 0.7333 -0.0943 -7.3223
v 5.3967 -1.0571 -10.2545
v 13.4001 -3.5631 -10.6529
v 21.0837 -6.2507 -11.1765
v 25.9076 -7.3346 -14.1922
v 43.2553 -3.6859 -10.6529
v 0.2792 4.3141 -8.8855
v 2.7099 4.3141 -12.8855
v 32.0682 7.1434 -10.6529
v 37.4001 4.2534 -10.6529
v 42.4484 1.4241 -10.6529
v 0.5724 9.7898 -8.9603
v 4.8577 12.6965 -11.5059
v 13.4001 14.5987 -12.6751
v 20.9274 13.5925 -10.2315
v 28.0682 10.0943 -10.6529
v 7.8966 16.9742 -8.7182
v 13.4001 17.0382 -8.6751
v 17.9457 16.6196 -7.2838
v 31.9108 -16.0388 -5.7508
v 37.4001 -16.0825 -5.7905
v 41.6115 -15.8618 -6.4050
v -32.2073 -9.3312 -2.6529
v -28.5126 -9.3312 -2.6529
v 23.5884 -9.4275 -2.6529
v 29.3065 -12.7912 -2.9116
v 37.1407 -11.3979 -1.9242
v 42.0952 -11.6859 -5.4186
v -32.2073 -4.6859 -2.6529
v -26.4404 -2.7064 -1.0187
v -22.4694 -0.0671 1.1602
v -0.3577 -1.5734 -2.6529
v 5.4001 -2.6644 -2.6529
v 13.0368 -1.7591 -2.1651
v 20.1513 -4.0863 -2.1651
v 38.9928 -3.6859 -0.6312
v 42.5962 -3.6859 -4.6312
v -23.6775 0.4081 1.1602
v -22.4694 0.4081 1.1602
v -6.6197 8.2023 1.3102
v -3.7027 5.0470 -1.8750
v 15.9110 4.3141 0.9411
v 21.6006 3.6622 0.0153
v 29.4336 5.0823 -2.8598
v 37.3336 2.1781 -2.6743
v 42.2796 1.0539 -5.3552
v -6.6197 8.3430 1.3102
v -1.7867 11.7331 -1.6500
v 2.5632 15.1231 -4.6103
v 16.0978 12.3141 -0.2859
v 20.9274 12.1144 -4.1663
v 26.7892 9.3146 -5.6645
v 1.1875 16.4698 0.7231
v 5.2980 17.1978 -2.2273
v 13.1862 17.2877 -3.1467
v 17.9457 16.6196 -6.1426
v -31.5687 -8.5725 2.9133
v -26.4919 -8.5409 5.3920
v -21.2257 -8.5093 7.8708
v 24.8452 -8.2309 1.6521
v 29.4001 -8.7347 1.8249
v 34.3011 -8.5393 1.6792
v -31.5687 -5.3808 2.9133
v -26.2623 -3.9644 4.3808
v -21.3428 -3.1146 5.2613
v -6.6171 0.3056 9.3104
v -2.8060 -1.0722 6.1251
v 4.8618 -1.2061 4.6745
v 10.1279 0.0824 1.5593
v 24.2346 -3.6859 1.6537
v 29.4001 -3.6859 2.3361
v 34.9928 -3.6859 2.0296
v -24.0868 0.5851 5.3471
v -22.0591 0.5851 5.3471
v -6.6184 4.3374 5.5489
v -5.9044 4.3374 5.5489
v 7.1697 2.9108 6.8927
v 11.4229 5.0721 4.6745
v 24.4010 0.5609 1.4510
v 29.4001 1.0973 1.8584
v 34.6226 1.1115 1.9250
v -6.6197 8.3430 1.7875
v -2.5056 11.6137 4.4918
v 5.4001 13.2739 6.4050
v 11.5724 11.5399 5.0840
v 1.1875 16.4698 1.8628
v 5.4001 16.9237 2.4050
v 10.3770 16.9712 2.2419
v -24.2065 -8.8095 13.3471
v -20.1589 -8.8095 13.3471
v -6.8265 -7.7103 17.3173
v -6.5637 -7.7103 17.3173
v -25.2940 -3.6859 13.3471
v -17.7178 -3.6859 13.3471
v -8.3457 -2.8910 14.1292
v -2.7626 -2.4537 14.0262
v 1.8363 0.1204 10.7352
v -23.6873 0.7227 13.3471
v -20.1587 0.7227 13.3471
v -8.6122 1.8787 13.3471
v -2.5801 4.0239 13.3420
v 4.8618 5.0721 10.9548
v 9.4236 8.2441 9.3702
v -0.8654 9.5509 10.6155
v 5.4001 9.2739 10.3157
v 9.4236 8.3570 9.3702
v -30.8921 -7.9268 25.0461
v -26.2379 -8.7897 21.9665
v -18.2716 -9.1580 21.0115
v -9.9359 -8.4766 21.0115
v -6.2676 -8.0333 21.3471
v -30.8921 -5.1059 25.0461
v -28.1454 -2.9379 21.9665
v -15.1913 -3.6859 17.9305
v -12.7693 -3.6859 17.9305
v -3.9506 -3.6859 21.3471
v -24.9842 0.9638 21.3471
v -17.8013 1.2705 20.5495
v -11.3994 2.3806 20.5495
v -4.2829 2.3515 21.3471
v -32.4365 -8.6821 29.3471
v -26.5999 -11.2486 29.3471
v -18.5999 -12.6801 29.3471
v -10.6789 -9.8913 29.0861
v -6.1931 -8.1247 26.2455
v -33.1396 -2.9379 28.5745
v -30.5674 0.2274 25.3927
v -16.9245 -0.8173 31.3722
v -10.6789 -3.5647 29.9488
v -5.7065 -3.6859 26.5804
v -32.3839 0.7527 30.7261
v -27.3804 0.9876 28.5745
v -19.1946 1.1611 28.9622
v -10.5999 1.4514 26.4255
v -5.8155 1.1028 26.0932
v -31.2217 -15.9608 40.7923
v -26.5999 -16.2787 39.0518
v -21.7570 -16.2014 38.8416
v -39.6553 -8.9649 39.1332
v -34.6557 -11.5357 37.2960
v -26.5999 -14.3749 35.0518
v -18.6377 -12.7927 36.9338
v -13.3982 -10.0681 35.0261
v -39.6553 -5.3393 39.1332
v -37.4469 -3.0779 36.8187
v -24.3374 -1.1357 38.8810
v -18.8881 -3.6432 36.9535
v -13.3982 -6.1507 35.0261
v -33.5412 0.9597 37.3471
v -26.8424 0.8876 36.6674
v -22.2578 0.4092 33.5476
v -32.1253 -16.1996 45.3471
v -26.5999 -17.0229 45.3471
v -21.4391 -16.5091 45.3471
v -39.8275 -9.8928 45.3471
v -36.1253 -13.8928 45.3471
v -23.6323 -8.0339 49.0409
v -20.6223 -11.0947 45.9634
v -39.8275 -5.2550 45.3471
v -35.0826 -2.3993 44.9181
v -26.6515 -4.2925 45.5032
v -20.8517 -6.4690 43.7075
v -32.7377 0.7362 41.9655
v -29.6708 0.7362 41.9655
v -32.0120 -16.0959 49.9800
v -26.5999 -16.4300 50.3883
v -21.8950 -16.2680 50.1025
v -39.1813 -9.3494 50.4094
v -34.6471 -11.8840 50.5488
v -26.4193 -11.0947 50.3647
v -21.8950 -13.3672 50.1025
v -39.1813 -6.7913 50.4094
v -34.5999 -6.8376 50.3746
v -28.9656 -7.4494 49.6548
f 3 2 1
f 3 4 2
f 2 8 1
f 2 9 8
f 9 5 8
f 9 6 5
f 10 6 9
f 10 7 6
f 11 1 8
f 11 3 1
f 12 9 2
f 12 2 4
f 12 4 3
f 12 3 11
f 19 5 6
f 19 18 5
f 18 14 13
f 18 19 14
f 7 19 6
f 7 20 19
f 19 15 14
f 19 20 15
f 23 16 22
f 23 17 16
f 24 5 18
f 24 8 5
f 25 24 18
f 25 18 19
f 26 20 7
f 26 7 10
f 10 9 25
f 10 25 26
f 26 25 19
f 26 19 20
f 28 21 27
f 28 22 21
f 28 23 22
f 28 29 23
f 31 8 24
f 31 11 8
f 32 25 9
f 32 9 12
f 32 12 11
f 32 11 31
f 32 31 24
f 32 24 25
f 33 28 27
f 33 34 28
f 35 28 34
f 35 29 28
f 35 30 29
f 35 36 30
f 41 37 40
f 41 38 37
f 41 39 38
f 41 42 39
f 14 45 13
f 14 46 45
f 15 46 14
f 15 47 46
f 47 43 46
f 47 44 43
f 17 48 16
f 17 49 48
f 50 13 45
f 50 18 13
f 19 18 50
f 19 50 51
f 51 50 45
f 51 45 46
f 52 47 15
f 52 15 20
f 20 19 51
f 20 51 52
f 48 22 16
f 48 54 22
f 54 21 22
f 54 53 21
f 49 17 23
f 49 23 55
f 54 48 49
f 54 49 55
f 53 27 21
f 53 57 27
f 58 55 23
f 58 23 29
f 30 58 29
f 30 59 58
f 58 56 55
f 58 59 56
f 57 33 27
f 57 60 33
f 61 34 33
f 61 33 60
f 62 35 34
f 62 34 61
f 63 59 30
f 63 30 36
f 63 36 35
f 63 35 62
f 38 64 37
f 38 65 64
f 39 65 38
f 39 66 65
f 66 61 65
f 66 62 61
f 64 40 37
f 64 67 40
f 41 40 67
f 41 67 68
f 68 67 64
f 68 64 65
f 69 66 39
f 69 39 42
f 69 42 41
f 69 41 68
f 69 68 65
f 69 65 66
f 44 70 43
f 44 71 70
f 73 43 70
f 73 46 43
f 74 71 44
f 74 44 47
f 75 71 74
f 75 72 71
f 79 46 73
f 79 51 46
f 80 74 47
f 80 47 52
f 52 51 79
f 52 79 80
f 80 79 73
f 80 73 74
f 83 53 54
f 83 82 53
f 84 54 55
f 84 83 54
f 56 84 55
f 56 85 84
f 85 76 84
f 85 77 76
f 86 77 85
f 86 78 77
f 88 53 82
f 88 57 53
f 88 81 87
f 88 82 81
f 90 85 56
f 90 56 59
f 91 85 90
f 91 86 85
f 88 60 57
f 88 93 60
f 92 88 87
f 92 93 88
f 94 61 60
f 94 60 93
f 96 90 59
f 96 59 63
f 96 63 62
f 96 62 95
f 96 95 89
f 96 89 90
f 97 61 94
f 97 65 61
f 98 95 62
f 98 62 66
f 66 65 97
f 66 97 98
f 98 97 94
f 98 94 95
f 71 99 70
f 71 100 99
f 72 100 71
f 72 101 100
f 105 70 99
f 105 73 70
f 74 73 105
f 74 105 106
f 105 99 100
f 105 100 106
f 101 72 75
f 101 75 107
f 75 74 106
f 75 106 107
f 106 100 101
f 106 101 107
f 110 76 77
f 110 109 76
f 110 102 109
f 110 103 102
f 78 110 77
f 78 111 110
f 110 104 103
f 110 111 104
f 112 107 106
f 112 113 107
f 116 81 82
f 116 115 81
f 83 116 82
f 83 117 116
f 118 76 109
f 118 84 76
f 118 83 84
f 118 117 83
f 118 108 117
f 118 109 108
f 119 111 78
f 119 78 86
f 121 81 115
f 121 87 81
f 121 114 120
f 121 115 114
f 123 90 89
f 123 89 122
f 119 86 91
f 119 91 124
f 91 90 123
f 91 123 124
f 121 92 87
f 121 126 92
f 125 121 120
f 125 126 121
f 127 93 92
f 127 92 126
f 94 93 127
f 94 127 128
f 129 122 89
f 129 89 95
f 129 95 94
f 129 94 128
f 130 127 126
f 130 131 127
f 132 127 131
f 132 128 127
f 134 102 103
f 134 133 102
f 135 103 104
f 135 134 103
f 107 136 106
f 107 137 136
f 139 102 133
f 139 109 102
f 139 108 109
f 139 138 108
f 140 139 133
f 140 133 134
f 141 135 104
f 141 104 111
f 141 140 134
f 141 134 135
f 136 112 106
f 136 142 112
f 137 107 113
f 137 113 143
f 113 112 142
f 113 142 143
f 146 114 115
f 146 145 114
f 147 115 116
f 147 146 115
f 148 108 138
f 148 117 108
f 148 116 117
f 148 147 116
f 150 141 111
f 150 111 119
f 149 140 141
f 149 141 150
f 151 144 143
f 151 152 144
f 145 120 114
f 145 154 120
f 155 147 148
f 155 148 156
f 158 123 122
f 158 122 157
f 159 150 119
f 159 119 124
f 159 124 123
f 159 123 158
f 159 158 149
f 159 149 150
f 154 125 120
f 154 161 125
f 160 154 153
f 160 161 154
f 162 126 125
f 162 125 161
f 163 155 156
f 163 156 164
f 165 157 122
f 165 122 129
f 165 129 128
f 165 128 164
f 165 164 156
f 165 156 157
f 162 130 126
f 162 167 130
f 166 162 161
f 166 167 162
f 168 131 130
f 168 130 167
f 169 164 128
f 169 128 132
f 169 132 131
f 169 131 168
f 169 168 163
f 169 163 164
f 137 170 136
f 137 171 170
f 174 138 139
f 174 173 138
f 175 139 140
f 175 174 139
f 170 142 136
f 170 176 142
f 171 137 143
f 171 143 177
f 143 142 176
f 143 176 177
f 176 170 171
f 176 171 177
f 144 177 143
f 144 178 177
f 178 171 177
f 178 172 171
f 181 145 146
f 181 180 145
f 182 146 147
f 182 181 146
f 183 138 173
f 183 148 138
f 184 183 173
f 184 173 174
f 175 140 149
f 175 149 185
f 184 174 175
f 184 175 185
f 177 151 143
f 177 186 151
f 187 178 144
f 187 144 152
f 152 151 186
f 152 186 187
f 180 154 145
f 180 189 154
f 189 153 154
f 189 188 153
f 189 179 188
f 189 180 179
f 182 147 155
f 182 155 191
f 190 181 182
f 190 182 191
f 192 148 183
f 192 156 148
f 157 156 192
f 157 192 193
f 192 183 184
f 192 184 193
f 194 185 149
f 194 149 158
f 194 158 157
f 194 157 193
f 194 193 184
f 194 184 185
f 195 153 188
f 195 160 153
f 196 161 160
f 196 160 195
f 195 188 189
f 195 189 196
f 198 191 155
f 198 155 163
f 199 161 196
f 199 166 161
f 200 167 166
f 200 166 199
f 199 196 197
f 199 197 200
f 201 198 163
f 201 163 168
f 201 168 167
f 201 167 200
f 201 200 197
f 201 197 198
f 172 202 171
f 172 203 202
f 206 171 202
f 206 177 171
f 207 203 172
f 207 172 178
f 209 179 180
f 209 208 179
f 208 205 204
f 208 209 205
f 210 180 181
f 210 209 180
f 206 186 177
f 206 211 186
f 212 207 178
f 212 178 187
f 187 186 211
f 187 211 212
f 213 179 208
f 213 188 179
f 189 188 213
f 189 213 214
f 210 181 190
f 210 190 215
f 214 209 210
f 214 210 215
f 216 190 191
f 216 215 190
f 217 189 214
f 217 196 189
f 197 196 217
f 197 217 218
f 217 214 215
f 217 215 218
f 216 191 198
f 216 198 219
f 219 198 197
f 219 197 218
f 218 215 216
f 218 216 219
f 222 202 203
f 222 221 202
f 224 204 205
f 224 223 204
f 221 206 202
f 221 226 206
f 226 220 225
f 226 221 220
f 227 222 203
f 227 203 207
f 228 204 223
f 228 208 204
f 227 223 222
f 227 228 223
f 229 224 205
f 229 205 209
f 230 206 226
f 230 211 206
f 227 207 212
f 227 212 231
f 231 212 211
f 231 211 230
f 228 213 208
f 228 232 213
f 231 228 227
f 231 232 228
f 233 229 209
f 233 209 214
f 233 214 213
f 233 213 232
f 235 220 221
f 235 234 220
f 236 221 222
f 236 235 221
f 237 222 223
f 237 236 222
f 238 223 224
f 238 237 223
f 234 225 220
f 234 239 225
f 240 226 225
f 240 225 239
f 243 238 224
f 243 224 229
f 242 237 238
f 242 238 243
f 240 230 226
f 240 245 230
f 244 240 239
f 244 245 240
f 246 231 230
f 246 230 245
f 247 232 231
f 247 231 246
f 247 246 241
f 247 241 242
f 248 243 229
f 248 229 233
f 248 233 232
f 248 232 247
f 247 242 243
f 247 243 248
f 254 234 235
f 254 253 234
f 254 249 253
f 254 250 249
f 236 254 235
f 236 255 254
f 254 251 250
f 254 255 251
f 256 236 237
f 256 255 236
f 258 234 253
f 258 239 234
f 258 252 257
f 258 253 252
f 261 256 237
f 261 237 242
f 261 242 241
f 261 241 260
f 260 255 256
f 260 256 261
f 258 244 239
f 258 262 244
f 263 245 244
f 263 244 262
f 264 260 241
f 264 241 246
f 264 246 245
f 264 245 263
f 264 263 259
f 264 259 260
f 266 249 250
f 266 265 249
f 267 250 251
f 267 266 250
f 269 249 265
f 269 253 249
f 269 252 253
f 269 268 252
f 271 267 251
f 271 251 255
f 272 252 268
f 272 257 252
f 273 258 257
f 273 257 272
f 275 271 255
f 275 255 260
f 275 260 259
f 275 259 274
f 275 274 270
f 275 270 271
f 276 258 273
f 276 262 258
f 277 274 259
f 277 259 263
f 277 263 262
f 277 262 276
f 277 276 273
f 277 273 274
f 266 278 265
f 266 279 278
f 280 266 267
f 280 279 266
f 278 269 265
f 278 282 269
f 269 281 268
f 269 282 281
f 283 282 278
f 283 278 279
f 284 280 267
f 284 267 271
f 284 271 270
f 284 270 283
f 284 283 279
f 284 279 280
f 285 268 281
f 285 272 268
f 286 273 272
f 286 272 285
f 286 285 281
f 286 281 282
f 287 283 270
f 287 270 274
f 287 274 273
f 287 273 286
f 287 286 282
f 287 282 283
