# parsimony mesh: g366_monomer (source /Users/eranagmon/code/v2e-molecules/workspace/studies/ecoli-3d/viz/3d/structures/g366_monomer.pdb)
# atoms: 2419  voxel: 8 Å  verts: 322  tris: 692
v -30.7647 -2.7847 -29.7468
v -30.6462 -2.7847 -29.7468
v 17.0148 -2.8307 -29.7796
v 17.7432 -2.8307 -29.7796
v 31.5334 -4.1232 -30.0548
v 33.6949 -4.1232 -30.0548
v -30.7647 -2.6287 -29.7468
v -30.6462 -2.6287 -29.7468
v 17.0148 -2.5578 -29.7796
v 17.7432 -2.5578 -29.7796
v 31.5334 -2.3466 -30.0548
v 33.6949 -2.3466 -30.0548
v 8.9123 -18.8531 -21.8614
v 9.3700 -18.8531 -21.8614
v -23.5759 -11.0826 -22.1719
v -22.3031 -11.0826 -22.1719
v 0.6443 -12.1908 -22.5290
v 5.8476 -14.8243 -22.7016
v 10.5183 -14.7745 -22.3499
v 31.1393 -11.1659 -23.0237
v 33.8404 -11.1659 -23.0237
v -30.7647 -2.7847 -29.6972
v -26.8455 -5.0646 -25.9456
v -22.2264 -6.7745 -23.1319
v 0.6443 -8.4440 -22.5290
v 4.6594 -6.1762 -23.5554
v 13.9181 -6.4482 -25.5244
v 20.7462 -5.4051 -26.1800
v 28.6697 -7.3007 -26.0821
v 34.5150 -6.7837 -25.7099
v -31.7023 0.4244 -26.8823
v -27.8728 -0.4645 -25.6427
v -22.4984 -2.2421 -23.1634
v 6.1905 1.2255 -23.8094
v 14.0855 0.9700 -25.7860
v 20.6724 0.9700 -25.8769
v 28.8281 0.6401 -25.8769
v 34.3888 -1.6526 -25.7391
v -32.9526 9.2255 -24.0018
v -29.2044 9.2255 -24.0018
v 7.4891 6.5459 -22.9544
v 11.1561 6.5459 -22.9544
v 23.6016 5.6603 -22.6131
v 26.1228 5.6603 -22.6131
v -31.7966 13.9456 -22.4277
v -30.0505 13.9456 -22.4277
v 8.7589 -19.0685 -17.7391
v 9.7069 -19.0685 -17.7391
v -23.8211 -11.4535 -17.7391
v -19.2816 -11.7055 -17.2170
v -14.0404 -11.4208 -14.2023
v 0.6443 -12.1908 -19.4271
v 4.2897 -14.8243 -17.1519
v 12.0819 -14.7745 -17.7391
v 31.1393 -11.1659 -21.2500
v 33.8404 -11.1659 -21.2500
v -24.1073 -7.0562 -18.2610
v -19.7341 -7.1416 -17.7389
v -10.7887 -6.4869 -14.0619
v -1.2950 -6.3638 -17.2127
v 1.6183 -6.7152 -17.7005
v 15.6255 -9.0569 -17.7391
v 20.8130 -6.0226 -17.8656
v 28.7838 -7.3967 -19.9677
v 34.4979 -6.7745 -20.3668
v -33.2209 3.4049 -17.7391
v -26.3083 0.9847 -19.2547
v -19.3421 1.0387 -17.6246
v -10.8842 0.9915 -13.9476
v -2.3264 0.6882 -15.8563
v 2.1905 1.2255 -20.2489
v 16.1278 3.6917 -17.7391
v 20.7281 1.5363 -18.2164
v 28.9739 1.0663 -19.9075
v 34.3239 -1.7065 -20.3985
v -35.5835 9.2255 -17.7391
v -26.8977 9.2255 -17.7391
v -16.1859 5.7056 -13.9738
v -14.2313 5.7056 -13.9738
v 0.6224 6.0404 -14.8507
v 4.9937 7.2731 -17.6061
v 12.1278 7.1738 -17.7391
v 23.6016 5.6603 -21.1497
v 26.1228 5.6603 -21.1497
v -33.1121 14.3232 -17.7391
v -29.2953 14.3232 -17.7391
v 15.7108 -27.1967 -6.5121
v 18.1564 -27.1967 -6.5121
v 8.0690 -20.4291 -9.7391
v 12.7253 -22.5443 -9.6106
v 20.9941 -22.7312 -7.9048
v 26.4321 -20.0357 -6.9389
v -23.3518 -11.3718 -12.8245
v -18.7494 -11.7072 -11.8434
v -11.3590 -11.3276 -9.4419
v -2.7494 -11.8669 -8.1646
v 3.7379 -14.5725 -10.2684
v 14.8142 -14.7745 -12.3441
v 21.2506 -14.7745 -9.8944
v 27.9968 -14.7745 -7.2894
v -23.5939 -6.7005 -9.6178
v -18.7494 -6.9849 -9.5095
v -11.8628 -7.6198 -10.3998
v -2.7494 -8.8036 -12.1646
v 1.6381 -10.3199 -13.2879
v 16.1796 -9.1931 -12.9091
v 21.1283 -6.4900 -9.7578
v 27.7307 -9.1202 -6.6064
v -32.2608 3.7353 -9.7391
v -26.3748 1.5653 -9.8266
v -18.8113 1.4819 -11.3901
v -10.8842 0.9915 -12.3312
v -4.7110 2.9967 -12.3467
v 16.5146 3.9081 -13.1124
v 21.1283 1.6567 -9.4830
v 25.3308 4.7387 -5.8536
v -34.5211 9.2255 -9.7391
v -24.4427 9.2255 -12.5836
v -18.8113 8.7136 -11.5945
v -11.5315 8.7041 -9.3594
v -2.3264 7.1037 -9.7037
v 5.2506 8.0888 -9.7391
v 13.6090 7.1105 -10.1631
v 21.2506 6.2655 -7.3549
v 25.3308 5.3016 -5.8536
v -33.1534 16.8716 -9.6004
v -26.3747 17.3484 -9.7683
v -18.7494 15.0964 -7.4310
v -14.1651 13.5511 -6.3722
v -31.7424 22.1273 -6.8412
v -28.5732 22.1273 -6.8412
v 9.0598 -26.9372 1.2538
v 13.1267 -27.1755 -1.5434
v 18.1853 -27.1537 -1.7391
v 0.8905 -19.0892 1.5201
v 5.8595 -22.5449 -1.2798
v 10.3775 -26.0007 -4.0796
v 22.1853 -24.7362 -1.7391
v 26.9920 -20.7362 -1.7391
v -8.6777 -11.2343 -4.4361
v -2.4150 -14.1694 -1.4580
v 2.6592 -17.1045 -3.8133
v 31.3318 -14.8091 -2.4718
v 34.2829 -12.1655 -0.2935
v -24.1440 -4.0009 -1.7391
v -18.7494 -7.0947 -1.7391
v -11.1064 -8.7841 -1.7573
v -5.7206 -8.6656 0.8972
v 24.1095 -3.9306 -1.7391
v 29.9387 -7.8102 -2.4718
v 34.2829 -9.6259 -0.2935
v -31.3597 3.9180 -4.9067
v -27.8182 1.2410 -2.0397
v 23.4132 1.7334 -2.4115
v 25.3308 4.7387 -5.5264
v -31.8902 9.2255 -3.3740
v -29.4485 9.2255 0.6260
v -16.2511 11.6756 0.3277
v -11.1988 10.4927 -2.0990
v -2.5670 10.5256 -1.7147
v 5.2506 10.5196 -3.1651
v 13.1927 10.5246 -1.3044
v 21.1260 7.0380 -2.4115
v 25.3308 5.3016 -5.5264
v -32.4910 16.6174 -1.1465
v -26.8331 17.1366 -1.6475
v -19.0180 17.1394 -2.4412
v -14.1651 13.5511 -5.0056
v 0.2213 14.0092 0.9683
v 5.2506 14.2959 0.8349
v 10.4875 13.8690 1.6522
v -32.2433 23.0987 -1.7391
v -26.2437 23.2417 -2.2218
v -21.7850 22.0882 0.1231
v 9.0598 -26.9372 2.5742
v 13.2506 -26.9591 2.8003
v 17.5911 -26.8579 2.6668
v -6.7855 -18.7846 10.2465
v -2.9196 -18.9369 6.4905
v 5.9361 -22.1633 4.0928
v 12.7641 -22.8324 7.2522
v 20.6250 -22.8333 5.6974
v 26.3909 -20.1289 3.3947
v -15.8713 -12.1301 7.9051
v -9.9711 -14.7879 8.0837
v -2.8772 -14.7745 6.7002
v 5.0298 -15.2095 8.2874
v 9.7730 -18.1661 9.8605
v 23.6590 -16.9682 8.7281
v 29.0304 -14.5668 6.3063
v 34.2829 -12.1655 3.8846
v -23.3447 -3.4950 6.2609
v -18.6225 -7.9593 5.6474
v -10.7494 -8.9532 3.5501
v -2.7014 -7.5850 6.6045
v 3.4046 -6.7745 8.8061
v 24.1292 -4.0758 6.2609
v 29.1021 -7.9263 6.4351
v 34.2829 -9.6259 3.8846
v -23.9788 0.5818 6.7960
v -22.1685 2.8194 9.8195
v 0.2667 1.2255 9.2741
v 2.8371 1.2255 9.2741
v 22.6196 1.2255 6.2609
v -30.8470 13.1573 9.2974
v -27.2155 9.4215 6.8918
v -19.2098 8.6807 6.8858
v -10.3318 11.0946 6.4757
v -2.3187 9.0054 7.9444
v 1.4592 5.3803 10.1892
v 16.0416 12.2615 6.2609
v 19.7410 8.2615 6.2609
v -31.2977 16.1472 6.4446
v -29.6439 16.1472 6.4446
v -17.8894 16.9981 6.4757
v -12.7201 14.1798 9.2856
v -0.9275 14.2412 6.2609
v 5.8512 17.6242 6.8370
v 11.7163 16.8116 6.8370
v -31.7483 22.8212 3.5918
v -26.4167 22.8859 6.2594
v -21.5481 22.1042 6.2609
v 8.9182 21.4210 9.8878
v 9.6388 21.4210 9.8878
v -7.1857 -18.9896 14.2609
v -3.5375 -19.0651 14.8514
v 1.5702 -18.9720 17.9118
v 15.1064 -20.2044 10.9018
v 18.3256 -20.2044 10.9018
v -15.8980 -12.2924 14.2609
v -11.1857 -16.2924 14.2609
v -1.5065 -14.7745 12.5676
v 4.6688 -13.9424 14.3454
v 12.7641 -15.2095 11.9648
v 21.0956 -14.4907 11.6930
v 26.3364 -11.6349 10.9293
v -22.7704 -2.8158 10.2967
v -18.1818 -6.2664 13.6613
v -13.5745 -4.3838 17.0259
v -0.2541 -6.1409 13.9157
v 4.9839 -7.2892 14.9657
v 13.2506 -7.8221 15.9101
v 20.9372 -6.1950 13.8005
v 26.3364 -9.3138 10.9293
v -22.7704 -2.5140 10.2967
v -19.2009 0.5818 11.6439
v -12.4686 1.2255 15.9627
v 0.3088 0.8274 13.5888
v 2.7554 0.8274 13.5888
v 20.8192 1.2255 14.2609
v -30.8470 13.1573 10.3272
v -26.7494 11.5196 11.8953
v -19.2009 8.7016 13.1721
v -10.5606 10.7170 13.9114
v -1.5685 9.8192 12.5979
v 2.2448 8.3760 13.5437
v 17.0684 12.9726 10.4932
v 19.2741 9.8738 13.6003
v -30.8470 13.4157 10.3272
v -26.4167 16.5396 12.2509
v -19.1670 16.9981 13.3521
v -10.6867 15.9202 14.3842
v -2.8373 15.7557 14.0060
v 5.9743 16.4374 13.6183
v 13.3536 16.5767 13.2249
v 17.9049 14.0746 15.8265
v -23.5282 21.5344 11.3984
v -22.1121 21.5344 11.3984
v -7.8441 22.1549 17.5350
v -5.2550 22.1549 17.5350
v 8.9182 21.4210 10.6232
v 9.6388 21.4210 10.6232
v -7.2950 -19.0512 18.6888
v -2.7494 -19.1302 18.8527
v 1.5702 -18.9720 18.6220
v -15.1590 -11.4427 18.6948
v -10.2768 -14.3754 19.3714
v -2.7494 -14.7745 20.2481
v 2.5084 -14.7745 19.1853
v -15.1590 -9.7171 18.6948
v -10.2802 -6.4223 21.6390
v -2.4099 -5.7563 21.8577
v 4.7923 -6.1274 19.1773
v 13.2506 -3.8221 19.3683
v 17.4460 -3.0761 18.7760
v -8.9660 1.2255 22.2609
v -0.2402 -1.7075 22.2609
v 4.6862 -0.9619 22.0377
v 12.9097 1.3845 22.5374
v 17.7898 1.2255 18.8854
v -8.7587 9.2836 22.4941
v -2.3240 11.6804 22.8691
v 5.0652 11.6437 22.4591
v 12.9097 9.2396 22.4009
v 18.1339 9.2255 18.7594
v -8.7507 17.7254 22.4941
v -2.4137 16.5812 23.7170
v 5.0652 14.2099 22.4591
v 13.2506 14.2523 19.1978
v 17.9049 14.0746 18.6081
v -7.6598 22.4268 22.2609
v -4.7161 22.4268 22.2609
v -6.9860 -3.1275 26.4025
v -5.8126 -3.1275 26.4025
v -7.2468 1.2255 26.9690
v -2.9873 0.8772 27.5709
v 5.2506 2.9888 27.6401
v 10.0157 4.1571 26.8606
v -7.1760 6.6557 27.0634
v -2.3441 9.2836 27.6485
v 4.7602 9.2396 27.5268
v 10.0157 6.5823 26.8606
v -6.8686 20.7253 26.5027
v -1.3003 18.8177 28.7248
v 1.5461 17.8639 29.8358
v -6.8686 21.8979 26.5027
v -2.2469 21.6523 29.8212
v 1.3255 21.4067 33.1398
v 1.0389 21.0535 34.3657
v 1.3255 21.0535 34.3657
v 1.0389 21.4067 34.3657
v 1.3255 21.4067 34.3657
f 7 2 1
f 7 8 2
f 9 4 3
f 9 10 4
f 11 6 5
f 11 12 6
f 19 13 18
f 19 14 13
f 2 22 1
f 2 23 22
f 24 15 23
f 24 16 15
f 26 17 25
f 26 18 17
f 26 19 18
f 26 27 19
f 28 3 4
f 28 27 3
f 30 5 6
f 30 29 5
f 30 20 29
f 30 21 20
f 22 7 1
f 22 31 7
f 32 23 2
f 32 2 8
f 8 7 31
f 8 31 32
f 32 31 22
f 32 22 23
f 33 23 32
f 33 24 23
f 35 3 27
f 35 9 3
f 34 27 26
f 34 35 27
f 28 4 10
f 28 10 36
f 36 10 9
f 36 9 35
f 37 5 29
f 37 11 5
f 37 28 36
f 37 29 28
f 38 30 6
f 38 6 12
f 38 12 11
f 38 11 37
f 40 31 39
f 40 32 31
f 42 34 41
f 42 35 34
f 44 36 43
f 44 37 36
f 45 40 39
f 45 46 40
f 14 47 13
f 14 48 47
f 16 49 15
f 16 50 49
f 47 18 13
f 47 53 18
f 18 52 17
f 18 53 52
f 48 14 19
f 48 19 54
f 21 55 20
f 21 56 55
f 57 15 49
f 57 23 15
f 58 50 16
f 58 16 24
f 58 51 50
f 58 59 51
f 52 25 17
f 52 60 25
f 61 26 25
f 61 25 60
f 61 60 52
f 61 52 53
f 62 54 19
f 62 19 27
f 63 27 28
f 63 62 27
f 64 20 55
f 64 29 20
f 64 28 29
f 64 63 28
f 65 56 21
f 65 21 30
f 65 64 55
f 65 55 56
f 67 23 57
f 67 32 23
f 67 31 32
f 67 66 31
f 58 24 33
f 58 33 68
f 33 32 67
f 33 67 68
f 68 67 57
f 68 57 58
f 70 59 69
f 70 60 59
f 71 26 61
f 71 34 26
f 70 61 60
f 70 71 61
f 36 35 72
f 36 72 73
f 74 73 63
f 74 63 64
f 75 65 30
f 75 30 38
f 75 38 37
f 75 37 74
f 75 74 64
f 75 64 65
f 66 39 31
f 66 76 39
f 67 32 40
f 67 40 77
f 78 69 68
f 78 79 69
f 71 41 34
f 71 81 41
f 80 71 70
f 80 81 71
f 72 35 42
f 72 42 82
f 82 42 41
f 82 41 81
f 73 43 36
f 73 83 43
f 74 37 44
f 74 44 84
f 44 43 83
f 44 83 84
f 83 73 74
f 83 74 84
f 76 45 39
f 76 85 45
f 77 40 46
f 77 46 86
f 86 46 45
f 86 45 85
f 48 89 47
f 48 90 89
f 91 87 90
f 91 88 87
f 50 93 49
f 50 94 93
f 51 94 50
f 51 95 94
f 89 53 47
f 89 97 53
f 98 90 48
f 98 48 54
f 98 91 90
f 98 99 91
f 99 92 91
f 99 100 92
f 93 57 49
f 93 101 57
f 58 57 101
f 58 101 102
f 102 101 93
f 102 93 94
f 103 95 51
f 103 51 59
f 59 58 102
f 59 102 103
f 103 102 94
f 103 94 95
f 104 59 60
f 104 103 59
f 104 95 103
f 104 96 95
f 105 53 97
f 105 61 53
f 105 60 61
f 105 104 60
f 105 96 104
f 105 97 96
f 98 54 62
f 98 62 106
f 63 106 62
f 63 107 106
f 106 99 98
f 106 107 99
f 108 99 107
f 108 100 99
f 110 66 67
f 110 109 66
f 111 101 110
f 111 102 101
f 112 59 103
f 112 69 59
f 69 111 68
f 69 112 111
f 111 103 102
f 111 112 103
f 113 70 69
f 113 69 112
f 115 107 63
f 115 63 73
f 73 72 114
f 73 114 115
f 117 66 109
f 117 76 66
f 118 110 67
f 118 67 77
f 111 78 68
f 111 119 78
f 118 111 110
f 118 119 111
f 112 69 79
f 112 79 120
f 79 78 119
f 79 119 120
f 113 80 70
f 113 121 80
f 120 113 112
f 120 121 113
f 122 81 80
f 122 80 121
f 114 72 82
f 114 82 123
f 82 81 122
f 82 122 123
f 124 114 123
f 124 115 114
f 124 116 115
f 124 125 116
f 117 85 76
f 117 126 85
f 118 77 86
f 118 86 127
f 86 85 126
f 86 126 127
f 128 118 127
f 128 119 118
f 129 119 128
f 129 120 119
f 131 126 130
f 131 127 126
f 134 87 88
f 134 133 87
f 137 87 133
f 137 90 87
f 137 89 90
f 137 136 89
f 137 132 136
f 137 133 132
f 138 134 88
f 138 88 91
f 92 138 91
f 92 139 138
f 96 140 95
f 96 141 140
f 142 89 136
f 142 97 89
f 142 96 97
f 142 141 96
f 142 135 141
f 142 136 135
f 139 92 100
f 139 100 143
f 146 101 102
f 146 145 101
f 140 103 95
f 140 147 103
f 147 102 103
f 147 146 102
f 148 147 140
f 148 140 141
f 143 100 108
f 143 108 150
f 108 107 149
f 108 149 150
f 151 143 150
f 151 144 143
f 145 110 101
f 145 153 110
f 110 152 109
f 110 153 152
f 149 107 115
f 149 115 154
f 116 154 115
f 116 155 154
f 152 117 109
f 152 156 117
f 157 156 152
f 157 152 153
f 160 121 120
f 160 120 159
f 161 122 121
f 161 121 160
f 123 122 161
f 123 161 162
f 163 124 123
f 163 123 162
f 155 116 125
f 155 125 164
f 164 125 124
f 164 124 163
f 164 163 154
f 164 154 155
f 156 126 117
f 156 165 126
f 165 156 157
f 165 157 166
f 128 127 166
f 128 166 167
f 159 120 129
f 159 129 168
f 168 129 128
f 168 128 167
f 168 167 158
f 168 158 159
f 169 161 160
f 169 170 161
f 171 161 170
f 171 162 161
f 165 130 126
f 165 172 130
f 166 127 131
f 166 131 173
f 131 130 172
f 131 172 173
f 174 166 173
f 174 167 166
f 176 132 133
f 176 175 132
f 177 133 134
f 177 176 133
f 180 132 175
f 180 136 132
f 180 135 136
f 180 179 135
f 181 180 175
f 181 175 176
f 177 134 138
f 177 138 182
f 181 176 177
f 181 177 182
f 183 138 139
f 183 182 138
f 186 135 179
f 186 141 135
f 186 178 185
f 186 179 178
f 187 186 179
f 187 179 180
f 188 187 180
f 188 180 181
f 183 139 143
f 183 143 190
f 189 182 183
f 189 183 190
f 191 143 144
f 191 190 143
f 146 192 145
f 146 193 192
f 194 146 147
f 194 193 146
f 194 184 193
f 194 185 184
f 186 148 141
f 186 195 148
f 148 194 147
f 148 195 194
f 194 186 185
f 194 195 186
f 196 195 186
f 196 186 187
f 198 150 149
f 198 149 197
f 191 144 151
f 191 151 199
f 199 151 150
f 199 150 198
f 198 190 191
f 198 191 199
f 200 145 192
f 200 153 145
f 202 195 196
f 202 196 203
f 204 197 149
f 204 149 154
f 200 157 153
f 200 206 157
f 206 200 201
f 206 201 207
f 208 159 158
f 208 158 207
f 160 159 208
f 160 208 209
f 210 209 202
f 210 202 203
f 204 154 163
f 204 163 212
f 212 163 162
f 212 162 211
f 214 157 206
f 214 166 157
f 214 165 166
f 214 213 165
f 214 205 213
f 214 206 205
f 215 207 158
f 215 158 167
f 216 207 215
f 216 208 207
f 217 160 209
f 217 169 160
f 170 169 217
f 170 217 218
f 211 162 171
f 211 171 219
f 171 170 218
f 171 218 219
f 220 165 213
f 220 172 165
f 173 172 220
f 173 220 221
f 220 213 214
f 220 214 221
f 215 167 174
f 215 174 222
f 174 173 221
f 174 221 222
f 224 218 223
f 224 219 218
f 226 178 179
f 226 225 178
f 229 181 182
f 229 228 181
f 231 178 225
f 231 185 178
f 185 230 184
f 185 231 230
f 232 226 179
f 232 179 186
f 232 227 226
f 232 233 227
f 228 188 181
f 228 234 188
f 188 233 187
f 188 234 233
f 229 182 189
f 229 189 235
f 234 228 229
f 234 229 235
f 236 189 190
f 236 235 189
f 238 184 230
f 238 193 184
f 193 237 192
f 193 238 237
f 232 186 195
f 232 195 240
f 233 196 187
f 233 241 196
f 240 233 232
f 240 241 233
f 242 241 233
f 242 233 234
f 242 234 235
f 242 235 243
f 236 190 198
f 236 198 244
f 244 198 197
f 244 197 243
f 244 243 235
f 244 235 236
f 245 192 237
f 245 200 192
f 201 200 245
f 201 245 246
f 246 245 237
f 246 237 238
f 246 238 239
f 246 239 247
f 240 195 202
f 240 202 248
f 249 196 241
f 249 203 196
f 250 243 197
f 250 197 204
f 252 205 206
f 252 251 205
f 253 201 246
f 253 207 201
f 207 252 206
f 207 253 252
f 253 246 247
f 253 247 254
f 255 248 202
f 255 202 209
f 209 208 254
f 209 254 255
f 249 210 203
f 249 256 210
f 210 255 209
f 210 256 255
f 256 248 255
f 256 249 248
f 250 204 212
f 250 212 258
f 212 211 257
f 212 257 258
f 259 205 251
f 259 213 205
f 214 213 259
f 214 259 260
f 259 251 252
f 259 252 260
f 261 260 252
f 261 252 253
f 254 208 216
f 254 216 262
f 216 215 261
f 216 261 262
f 261 253 254
f 261 254 262
f 255 217 209
f 255 263 217
f 263 254 262
f 263 255 254
f 264 218 217
f 264 217 263
f 263 255 256
f 263 256 264
f 257 211 219
f 257 219 265
f 266 257 265
f 266 258 257
f 260 221 214
f 260 267 221
f 268 261 215
f 268 215 222
f 222 221 267
f 222 267 268
f 267 260 261
f 267 261 268
f 270 262 269
f 270 263 262
f 271 218 264
f 271 223 218
f 272 265 219
f 272 219 224
f 224 223 271
f 224 271 272
f 272 271 264
f 272 264 265
f 226 273 225
f 226 274 273
f 227 274 226
f 227 275 274
f 273 231 225
f 273 277 231
f 231 276 230
f 231 277 276
f 278 277 273
f 278 273 274
f 279 275 227
f 279 227 233
f 278 274 275
f 278 275 279
f 280 230 276
f 280 238 230
f 239 238 280
f 239 280 281
f 280 276 277
f 280 277 281
f 281 277 278
f 281 278 282
f 279 233 241
f 279 241 283
f 283 241 240
f 283 240 282
f 282 278 279
f 282 279 283
f 242 283 241
f 242 284 283
f 285 242 243
f 285 284 242
f 286 239 281
f 286 247 239
f 287 282 240
f 287 240 248
f 283 249 241
f 283 288 249
f 249 287 248
f 249 288 287
f 288 283 284
f 288 284 289
f 285 243 250
f 285 250 290
f 290 289 284
f 290 284 285
f 291 247 286
f 291 254 247
f 256 255 292
f 256 292 293
f 295 290 250
f 295 250 258
f 294 289 290
f 294 290 295
f 291 262 254
f 291 296 262
f 292 255 263
f 292 263 297
f 296 291 292
f 296 292 297
f 293 264 256
f 293 298 264
f 298 292 297
f 298 293 292
f 299 265 264
f 299 264 298
f 299 298 293
f 299 293 294
f 295 258 266
f 295 266 300
f 266 265 299
f 266 299 300
f 299 294 295
f 299 295 300
f 296 269 262
f 296 301 269
f 297 263 270
f 297 270 302
f 270 269 301
f 270 301 302
f 282 303 281
f 282 304 303
f 303 286 281
f 303 305 286
f 304 282 287
f 304 287 306
f 305 303 304
f 305 304 306
f 307 287 288
f 307 306 287
f 308 288 289
f 308 307 288
f 309 286 305
f 309 291 286
f 292 291 309
f 292 309 310
f 309 305 306
f 309 306 310
f 310 306 307
f 310 307 311
f 312 308 289
f 312 289 294
f 312 294 293
f 312 293 311
f 312 311 307
f 312 307 308
f 310 297 292
f 310 314 297
f 297 313 296
f 297 314 313
f 311 293 298
f 311 298 315
f 315 298 297
f 315 297 314
f 315 314 310
f 315 310 311
f 313 301 296
f 313 316 301
f 317 314 297
f 317 297 302
f 302 301 316
f 302 316 317
f 317 316 313
f 317 313 314
f 317 315 314
f 317 318 315
f 315 319 314
f 315 320 319
f 319 317 314
f 319 321 317
f 320 315 318
f 320 318 322
f 318 317 321
f 318 321 322
f 321 319 320
f 321 320 322
