# parsimony mesh: g6093_monomer (source /Users/eranagmon/code/v2e-molecules/workspace/studies/ecoli-3d/viz/3d/structures/g6093_monomer.pdb)
# atoms: 6395  voxel: 8 Å  verts: 657  tris: 1344
v 37.3127 -2.0966 -53.5667
v 38.3444 -2.0966 -53.5667
v 29.1784 5.8254 -53.7205
v 33.8281 2.3210 -53.6436
v 38.3444 -1.1834 -53.5667
v 29.1784 7.7281 -53.7205
v 30.3435 7.7281 -53.7205
v 36.4785 -11.4919 -46.1877
v 41.6472 -11.6075 -47.4915
v 45.9572 -10.3814 -47.3947
v 5.2865 -2.6808 -45.7165
v 9.6472 -3.4228 -46.1267
v 17.6472 -3.6485 -46.8529
v 25.6472 -3.9208 -47.1181
v 34.2289 -5.3696 -48.9604
v 41.7175 -4.9754 -49.4579
v 45.9572 -7.8542 -47.3947
v 5.2865 -0.1384 -45.7165
v 9.2209 2.4789 -46.4991
v 18.3755 3.1366 -47.0800
v 25.5067 3.3915 -49.2090
v 33.8281 2.3210 -51.7313
v 39.8614 1.8520 -49.1940
v 11.7348 10.4050 -46.3723
v 18.3755 9.7553 -46.4701
v 25.5067 9.8585 -49.1203
v 33.2650 10.3989 -50.7251
v 38.7491 10.4050 -46.8320
v 13.1413 14.8017 -45.8335
v 17.6472 14.9957 -46.0905
v 25.6472 15.1971 -46.9850
v 33.6472 15.3404 -47.3046
v 38.2333 14.9871 -46.3070
v 37.4342 -25.7282 -37.8096
v 37.8309 -25.7282 -37.8096
v 36.1179 -21.5950 -39.3585
v 39.2972 -21.5950 -39.3585
v 4.4088 -10.5221 -39.0399
v 9.6472 -10.7416 -39.6337
v 17.6472 -10.0764 -38.4948
v 21.9418 -9.6350 -37.5213
v 34.9376 -13.9331 -41.9137
v 42.0570 -15.6013 -41.9137
v 46.3583 -11.6802 -41.3907
v 3.5034 -5.4465 -41.5802
v 9.6472 -7.4228 -43.6337
v 17.6472 -7.6485 -42.4948
v 25.0239 -7.7087 -40.6690
v 31.6297 -8.1971 -41.3907
v 45.0906 -2.5209 -44.8362
v 46.7884 -5.3505 -41.8580
v 3.2380 2.4789 -41.7588
v 6.2700 5.1949 -44.6708
v 21.5276 6.2910 -45.2814
v 21.8349 6.2910 -45.2814
v 43.8921 2.4050 -43.3595
v 46.6805 2.4050 -39.3595
v 3.9665 7.6620 -39.3375
v 9.7056 10.6844 -41.5396
v 17.8351 10.1812 -41.8449
v 21.8349 6.6555 -45.2814
v 42.3534 10.5431 -40.8984
v 46.0711 7.9685 -37.9036
v 13.1413 14.8017 -43.7417
v 17.1444 15.6214 -41.2013
v 25.6472 17.0677 -41.3907
v 33.6472 16.4582 -41.3907
v 38.8677 15.0185 -41.3907
v 37.4342 -25.7282 -37.1664
v 37.8309 -25.7282 -37.1664
v 36.1179 -21.5950 -36.3492
v 39.2972 -21.5950 -36.3492
v -11.2983 -10.9295 -30.3752
v -6.3528 -10.9044 -30.6790
v 1.7042 -11.1815 -33.0307
v 9.6472 -12.7468 -33.3907
v 17.6472 -11.1719 -33.3907
v 25.0239 -10.1721 -33.5958
v 33.3069 -12.6947 -33.6461
v 42.0570 -14.4946 -33.4921
v 46.5365 -11.6917 -33.3907
v -11.8282 -5.5950 -30.7017
v -6.3528 -5.5950 -32.7374
v -0.7620 -5.5950 -35.4264
v 27.2751 -8.6834 -36.3992
v 30.7926 -8.6834 -36.3992
v 47.9299 -5.5950 -33.3907
v -11.7895 2.4050 -30.5145
v -6.3528 2.4050 -33.2051
v -1.0937 2.4050 -36.0812
v 47.8127 2.4050 -33.3907
v -11.2466 7.4548 -30.1256
v -6.3528 8.0172 -31.1467
v 2.0391 10.2501 -32.9737
v 9.6472 12.8241 -35.0444
v 14.1426 13.7069 -36.7028
v 44.0217 13.3018 -36.6381
v 46.6357 10.5431 -33.7391
v 5.4449 14.4866 -29.6169
v 9.6472 15.0864 -31.0444
v 17.1444 16.6778 -33.7780
v 26.3295 20.1344 -32.6351
v 33.6472 19.5228 -34.2089
v 41.3206 17.5416 -33.5228
v 46.2653 15.1090 -31.3047
v 29.4510 22.4435 -29.4647
v 33.6472 23.0217 -30.2089
v 38.6195 23.1888 -30.4076
v -2.4866 -17.6621 -21.4304
v -2.1367 -17.6621 -21.4304
v 12.6130 -17.7664 -22.0226
v 14.9759 -17.7664 -22.0226
v -20.0992 -10.6144 -22.3425
v -14.1201 -11.8255 -25.1618
v -5.6331 -14.6607 -24.6145
v 0.9769 -14.8784 -24.6145
v 9.8267 -15.4523 -24.9699
v 17.6444 -14.8384 -24.9699
v 25.6472 -11.9031 -25.3907
v 33.4146 -10.2411 -26.1185
v 41.6472 -10.2242 -28.9535
v 46.1947 -10.3969 -28.9282
v -26.4195 -1.8512 -21.4209
v -22.0015 -4.3964 -21.8817
v -16.3163 -4.8029 -25.1618
v 5.2374 -2.0818 -21.7500
v 6.5645 -2.0818 -21.7500
v 35.9262 -8.7326 -23.9370
v 42.2065 -5.8776 -24.4091
v 46.7360 -5.5950 -27.2540
v -26.4195 -1.3866 -21.4209
v -21.4862 1.2027 -21.5421
v -16.2853 1.6372 -24.7543
v 5.2374 -0.8328 -21.7500
v 6.5645 -0.8328 -21.7500
v 19.5738 4.5187 -22.5691
v 23.2156 4.5187 -22.5691
v 45.0998 2.4050 -21.9252
v 46.7794 2.4050 -25.9252
v -19.0685 6.9203 -21.6633
v -14.0891 8.2377 -24.7543
v -6.0420 11.7884 -24.9298
v 0.1116 12.8382 -27.2892
v 19.5738 7.7387 -22.5691
v 23.2156 7.7387 -22.5691
v 44.7582 10.4050 -22.5960
v 46.5649 10.4050 -26.5960
v -3.1682 14.6575 -21.9559
v 2.3258 15.1582 -24.9298
v 9.6472 17.1182 -25.3907
v 18.2477 20.2067 -24.7789
v 24.1177 21.4597 -27.0377
v 42.7288 18.0274 -25.2955
v 46.2653 15.1090 -27.8986
v 21.3147 22.4534 -21.7044
v 26.3295 22.6703 -24.7789
v 33.6472 23.5171 -25.3907
v 38.6416 23.2218 -25.3907
v -20.1199 -18.1734 -14.1270
v -14.3528 -18.9269 -15.1762
v -5.6331 -19.0733 -17.5773
v 0.9769 -18.7379 -17.6520
v 10.3797 -17.9999 -17.1715
v 17.0921 -17.8668 -17.2056
v 22.2791 -17.9672 -15.2276
v -28.7933 -11.5852 -15.0883
v -22.7762 -13.7665 -17.2743
v -14.3528 -15.3823 -19.1762
v -7.8200 -16.2919 -20.3684
v 3.1966 -16.6837 -20.4929
v 10.3797 -17.0118 -17.1715
v 17.0921 -17.1066 -17.2056
v 25.2263 -14.3681 -17.6929
v 30.7846 -10.1026 -17.3907
v -29.2602 -4.9487 -17.6092
v -22.0015 -4.3964 -20.8995
v -18.3246 -1.6082 -21.3773
v 5.2374 -2.0818 -20.9576
v 6.5645 -2.0818 -20.9576
v 34.7846 -7.2504 -17.3907
v 39.6791 -3.2504 -17.3907
v -35.6391 4.1226 -14.2802
v -30.2220 1.3680 -17.3790
v -21.4862 1.2027 -20.9275
v -14.9683 1.0990 -17.8281
v -9.5499 3.7393 -14.2788
v 5.2374 -0.8328 -20.9576
v 9.3310 2.2078 -18.0878
v 17.2032 3.6101 -17.6870
v 23.3502 3.7789 -17.3907
v 42.5260 2.4050 -17.3907
v -42.8741 13.2777 -14.0473
v -38.3246 10.5287 -15.0854
v -30.3528 10.4050 -17.8558
v -21.9822 9.9142 -19.6718
v -14.4049 10.0740 -17.1762
v -7.8317 10.4986 -17.1236
v 12.0974 7.4974 -15.2179
v 17.2032 8.8265 -17.6870
v 23.3502 8.6126 -17.3907
v 42.6584 10.4050 -17.3907
v -42.8741 15.0989 -14.0473
v -38.3528 16.0692 -14.8419
v -30.4369 18.5200 -16.1289
v -22.3528 18.4050 -17.1972
v -17.3648 18.4050 -14.7332
v -3.8036 15.3431 -17.3907
v 1.6472 17.5464 -17.3907
v 9.6107 20.4403 -17.1988
v 15.9814 21.5262 -19.7376
v 40.2545 18.4050 -17.3907
v -27.8263 23.4435 -14.6440
v -21.7711 26.2281 -14.5320
v -18.0944 26.4050 -13.8773
v 12.2530 22.6580 -14.4042
v 18.2477 22.6389 -17.1988
v 25.6472 22.8121 -17.3907
v 33.6472 23.0905 -17.3907
v 38.0903 22.7861 -17.3907
v -18.7167 30.5800 -13.5991
v -18.1706 30.5800 -13.5991
v -19.6696 -26.6431 -6.3344
v -14.3528 -26.7217 -6.5870
v -9.9024 -26.0491 -6.0421
v -26.7668 -18.2854 -6.9421
v -22.5614 -20.8961 -9.3049
v -14.3528 -22.9269 -10.5870
v -6.7023 -21.4600 -9.1008
v 1.6472 -18.9733 -11.8246
v 8.1465 -18.2334 -12.5339
v 19.2083 -17.9672 -12.4353
v 22.2791 -17.9672 -12.4353
v -29.2228 -13.9891 -9.5215
v -25.4533 -16.9185 -12.2754
v -3.6185 -13.5950 -7.2202
v 1.6472 -13.5950 -9.9370
v 10.7165 -13.7934 -9.8686
v 16.9839 -15.3629 -9.6175
v 25.0716 -13.1028 -10.0014
v 30.2182 -10.0611 -12.9008
v -34.8459 -3.2102 -7.5604
v -33.5775 -5.7641 -9.8925
v -10.6774 -1.8830 -8.0540
v -5.8756 -4.9678 -8.9155
v 1.6472 -5.5950 -10.5640
v 10.2308 -5.9523 -8.5046
v 14.8646 -3.5239 -6.8942
v 27.8642 -7.1716 -7.5674
v 32.7301 -4.5847 -10.2959
v 38.0909 -1.9978 -13.0244
v -36.2501 1.8356 -9.8925
v -34.0246 -1.2107 -12.8937
v -12.5359 1.6056 -10.1886
v -6.6711 1.6056 -12.4460
v 1.6472 2.4050 -11.1072
v 9.5173 2.5110 -11.8087
v 18.1984 2.3525 -9.1240
v 22.3494 4.7899 -11.3538
v 34.9524 2.4050 -7.9808
v 39.0734 2.4050 -11.9808
v -42.8741 13.2777 -12.2344
v -39.9797 10.5287 -9.4969
v -14.0697 10.4050 -9.3907
v -5.1429 11.1114 -9.5235
v 1.6472 9.6446 -8.0463
v 9.5173 9.6706 -9.7823
v 18.3782 9.5511 -8.9685
v 22.3494 8.0147 -11.3538
v 35.4962 10.4050 -7.3601
v 39.5474 10.4050 -11.3601
v -42.8741 15.0989 -12.2344
v -37.9253 18.1811 -9.3411
v -33.1596 21.2633 -11.7811
v -14.0684 18.4050 -9.3907
v -4.4426 15.2414 -9.3907
v 2.0364 19.4839 -9.7130
v 6.9196 21.7548 -12.5945
v 27.9038 21.1554 -7.8212
v 33.4391 18.4552 -9.2112
v 38.6318 18.4050 -12.3435
v -34.7887 22.8264 -6.4478
v -30.4369 24.1578 -9.2249
v -23.5282 28.2799 -9.3907
v -15.7199 26.4050 -9.3907
v 4.9625 22.9006 -7.2612
v 9.6107 23.0749 -9.7130
v 17.6472 23.1399 -9.3907
v 25.4012 22.6508 -10.0490
v 33.6472 22.5952 -13.0618
v 37.8844 22.6080 -13.1884
v -19.5282 31.1618 -9.3907
v -17.2358 31.1618 -9.3907
v -18.8424 -33.7096 2.3337
v -17.7817 -33.7096 2.3337
v -20.7649 -29.4238 -0.7561
v -14.8101 -30.7010 -0.7561
v -8.9362 -27.1914 -1.3907
v -26.9225 -19.2134 -1.3907
v -25.0007 -23.2134 -1.3907
v -6.8544 -21.5950 -1.3907
v -29.2515 -13.5950 -1.3907
v -6.1108 -13.5950 -1.3907
v 13.2865 -10.2469 -3.6796
v 18.3633 -10.7234 -1.1641
v 22.3203 -10.5166 -1.3907
v -34.8459 -3.2102 -4.3884
v -30.5721 -5.3760 -1.1332
v -24.7389 -2.2085 2.1220
v -12.3716 -3.0838 -1.3907
v -8.1927 -7.0838 -1.3907
v 5.4401 -2.0137 2.3885
v 11.2069 -5.7421 -0.6246
v 15.5193 -6.2239 -1.0532
v 26.4014 -4.9409 -1.6072
v 29.9087 -1.8382 -4.4182
v -35.7597 2.4050 -4.0454
v -30.3528 2.4050 -1.6327
v -22.1845 1.8252 0.2883
v -16.4006 1.8252 -1.6418
v -2.4517 6.3216 2.4837
v 2.3230 3.1550 1.6102
v 9.6472 2.4050 0.5563
v 16.4740 2.4050 -2.2891
v 28.2329 2.4050 0.6907
v 30.9524 2.4050 -3.3093
v -36.4216 10.4050 -3.2878
v -30.7384 10.5199 0.1141
v -22.3528 8.5356 0.0735
v -14.1120 10.9634 -1.9143
v -5.9026 11.5607 -1.1012
v 1.6472 9.6446 -2.4739
v 9.6472 9.6676 -2.5011
v 16.1989 8.9465 -2.8859
v 27.8127 10.4050 0.8261
v 31.4962 10.4050 -3.1739
v -35.7115 18.4050 -2.0811
v -33.7062 18.4050 1.9189
v -11.0564 18.4050 -4.2105
v -6.4075 17.7703 -1.9373
v 2.0364 19.6861 -1.0805
v 6.3047 21.8097 1.7929
v 26.1016 18.4552 -1.4989
v 30.6336 15.8220 -4.2377
v -34.7887 22.8264 -2.9903
v -31.0499 24.8381 -0.7505
v -24.9922 29.1303 -1.3907
v -11.9784 26.4050 -3.6264
v -6.2180 26.9672 0.7397
v 1.3605 26.4546 -0.5331
v 9.2417 23.4322 -1.0805
v 17.6472 23.5333 -1.3907
v 22.3658 22.6211 -1.3907
v -20.9922 32.0230 -1.3907
v -14.3686 32.0314 -1.3006
v -6.3528 30.8909 1.6206
v -2.2416 30.4994 2.4742
v -18.8424 -33.7096 2.8182
v -14.1792 -33.7313 6.4109
v -9.7210 -33.7531 10.0036
v -20.4014 -29.2790 5.9347
v -14.1792 -32.1689 6.4109
v -6.6511 -29.9828 6.8881
v -1.0025 -27.3629 9.1060
v -26.6984 -19.0625 2.8281
v -23.3464 -21.6755 5.9406
v -4.3300 -21.5950 4.6892
v 1.6574 -21.5949 8.5325
v 6.6119 -18.9282 9.7081
v -27.4943 -13.5950 3.2374
v -22.8978 -13.5950 7.2374
v -10.5642 -9.7787 10.3517
v -6.6810 -13.2353 7.2854
v 1.6472 -15.5672 9.1408
v 10.0690 -12.7117 9.9938
v 17.5921 -9.6183 6.4502
v 21.6610 -9.6076 2.6210
v -27.5292 -7.5418 3.2280
v -21.8769 -5.5926 5.6534
v -14.3087 -6.1344 6.5486
v -6.0593 -5.2581 7.7521
v 2.3230 -3.0271 7.3352
v 10.3745 -7.2470 7.2114
v 17.5921 -7.9500 6.4502
v 22.7179 -4.8237 5.8163
v -19.4056 -1.2281 2.7455
v -18.0532 -1.2281 2.7455
v -3.1986 3.1550 7.3352
v 0.1068 0.9883 5.1525
v 25.2647 2.4050 6.6093
v -28.0796 13.3123 6.6093
v -22.3528 12.0016 6.6093
v -14.3528 12.4012 6.6093
v -7.2867 9.7119 6.6093
v 20.0169 13.0482 9.1665
v 24.1583 10.3909 6.5436
v -30.0592 18.4050 6.6093
v -3.4614 21.0188 3.9480
v 1.6472 20.9188 4.0580
v 6.3047 21.8097 3.2022
v 18.5953 18.4050 7.5495
v 22.5228 18.4050 3.5495
v -28.3324 24.3588 6.6093
v -25.2326 28.3588 6.6093
v -3.4614 24.6753 3.9480
v 0.6839 26.6378 6.2417
v 9.2417 23.5136 6.1650
v 16.9838 23.0069 5.8271
v 21.6821 22.4226 2.6390
v -21.2326 32.1008 6.6093
v -14.3528 32.7862 6.6093
v -6.3528 31.5242 6.6093
v -1.7977 30.8388 6.6093
v -10.6603 -33.7925 14.6093
v -6.7737 -33.9440 14.7772
v -1.9286 -33.9133 17.5558
v -19.0637 -26.4017 12.2924
v -14.8603 -29.2790 14.8191
v -4.3877 -32.6962 12.2224
v 0.1160 -29.8557 14.7772
v -19.4724 -21.8712 14.8191
v -17.4554 -24.7221 17.6257
v 4.4150 -24.3806 14.6093
v 7.0587 -20.3806 14.6093
v -19.4430 -13.8792 14.2193
v -13.6796 -11.8192 14.2193
v -6.3528 -12.4743 14.6093
v 1.6472 -11.8557 14.6093
v 9.8304 -12.3561 12.9047
v 13.6769 -9.6291 10.6319
v -19.0148 -8.9767 11.2927
v -15.8975 -8.9767 11.2927
v -2.5173 -1.8908 10.8573
v 1.6472 -3.0711 12.6697
v 9.9592 -5.1641 14.5368
v 16.4499 -4.3519 13.3218
v 21.7250 -1.6428 10.6783
v -3.7370 2.5403 13.9581
v 1.6472 -0.2967 16.6697
v 6.3923 -1.4228 18.4417
v 18.5750 2.4050 15.7197
v 22.6789 2.4050 11.7197
v -26.6792 14.0899 11.0175
v -22.3528 13.8711 11.7246
v -14.1284 13.3299 14.4566
v -7.9596 9.3588 14.6093
v 18.1803 10.3909 14.6562
v 22.9451 7.7148 12.0208
v -26.7058 18.4050 11.0382
v -21.8851 18.4995 14.7997
v -16.6454 15.8959 17.0215
v 11.5341 19.8928 16.1489
v 14.5202 17.6977 13.9330
v -26.4970 22.8377 10.7729
v -22.0582 25.6094 13.8284
v -14.3528 28.5523 16.7462
v -6.3528 29.7494 17.5870
v 1.2245 27.8630 15.0467
v 9.1794 23.4019 13.9330
v 13.8749 22.5422 10.8156
v -19.8766 31.3429 11.5505
v -14.3528 31.3787 12.7462
v -6.3528 31.0384 13.5870
v -1.7240 30.8891 12.6716
v -10.5389 -33.7002 19.8984
v -5.6947 -33.8557 22.5828
v -2.0223 -33.8420 22.6093
v -12.8093 -30.1648 22.5828
v -7.9227 -33.2113 25.2318
v 1.1110 -29.5950 22.6093
v -19.6169 -20.5899 22.6093
v -17.2839 -24.5899 22.6093
v 4.7806 -24.3416 22.6093
v 6.5662 -20.3416 22.6093
v -19.6169 -16.4513 22.6093
v -14.3528 -14.6210 22.6093
v -5.9780 -11.4361 22.3626
v 1.0215 -11.0656 22.3626
v 6.5662 -15.3015 22.6093
v -3.0615 -9.4309 24.8648
v -2.0624 -9.4309 24.8648
v 11.7256 -1.7276 18.8246
v 13.8896 -1.7276 18.8246
v -3.3490 5.2972 20.2626
v 1.6472 3.7033 20.9057
v 9.2943 1.7083 19.8536
v 14.5750 2.4050 19.1082
v -11.3537 13.7431 22.6093
v -6.1505 9.9874 22.8013
v 1.7111 10.5169 24.8526
v 9.6472 10.4050 21.6072
v 14.5363 10.4050 19.0431
v -18.9066 21.2292 19.4678
v -15.1807 18.4995 22.3244
v 4.1426 18.4050 25.4274
v 9.1794 17.6977 20.9409
v 13.8380 14.5595 18.7378
v -18.9066 23.0479 19.4678
v -14.3800 24.9635 22.3244
v -6.3528 27.5219 22.6093
v 1.9797 24.7232 22.8576
v 6.2008 23.0674 20.3565
v -4.3017 -34.0754 30.6093
v -1.5972 -34.0754 30.6093
v -12.9581 -29.0636 30.6093
v -8.3016 -33.0636 30.6093
v 1.3044 -29.5950 30.6093
v -18.9480 -19.7945 29.1727
v -17.1651 -22.1147 31.3474
v 4.1416 -21.5637 30.3370
v 5.9552 -18.8762 27.4888
v -18.9480 -16.9297 29.1727
v -15.0808 -15.7137 31.3474
v -5.9780 -11.7586 30.2200
v 1.2700 -13.6662 30.0579
v 5.9552 -16.9945 27.4888
v -3.0615 -9.4309 27.2938
v -2.0624 -9.4309 27.2938
v -10.7280 14.1925 26.9713
v -6.3528 13.3856 27.4150
v -0.9130 13.2582 27.3216
v -11.6682 18.4050 28.3560
v -6.3528 18.4050 29.5947
v 0.1426 18.4050 27.8480
v -11.7315 23.8061 28.5762
v -6.3528 24.1775 28.7890
v -0.4654 23.3673 27.5486
v -4.1743 -34.1021 38.6093
v -0.3932 -34.1021 38.6093
v -18.6108 -25.8215 42.0396
v -14.3538 -27.5171 39.0675
v -8.1743 -31.8277 38.6093
v 2.1728 -29.5950 38.6093
v -19.3474 -21.5950 40.2373
v -17.2640 -21.5950 36.2373
v 1.6365 -21.5950 38.6093
v -26.9602 -10.3158 42.1607
v -22.1937 -13.2275 40.2498
v -15.0808 -13.8068 36.8318
v -6.7268 -12.4621 38.9221
v -0.9296 -15.9140 38.6093
v -26.9602 -8.9054 42.1607
v -22.3528 -8.5395 41.6046
v -14.3528 -8.6934 41.3320
v -9.6429 -9.1106 41.7973
v -74.4561 22.2362 42.5394
v -74.2235 22.2362 42.5394
v -74.4561 22.4810 42.5394
v -74.2235 22.4810 42.5394
v -2.4195 -33.6416 42.6536
v -0.7312 -33.6416 42.6536
v -19.0510 -26.0329 46.6093
v -14.3528 -26.8127 46.6093
v -5.7083 -28.7815 46.0192
v -0.0938 -29.5950 43.7242
v -21.0669 -21.5950 46.6093
v -3.6638 -24.0823 49.3849
v -1.1290 -21.4874 46.6746
v -27.4756 -11.3520 46.6093
v -24.3686 -15.3520 46.6093
v -4.3095 -11.9442 44.9390
v -1.8518 -14.2045 47.2071
v -27.4756 -7.9249 46.6093
v -22.3528 -5.8968 46.6093
v -14.3528 -5.8649 46.6093
v -6.7268 -7.9485 47.2071
v -2.1669 -9.1201 50.2723
v -74.4561 22.2362 44.1503
v -71.4990 21.7287 47.0212
v -62.3528 21.4833 50.0075
v -58.3278 22.3599 50.5241
v -74.4561 22.4810 44.1503
v -71.4990 22.8198 47.0212
v -62.3528 23.0118 50.0075
v -58.3278 22.4606 50.5241
v -19.0258 -25.9523 52.7585
v -14.3528 -26.1664 54.0560
v -8.9971 -25.9996 53.0556
v -26.4491 -17.6901 58.3028
v -22.1658 -21.5294 55.5307
v -14.3528 -25.2893 58.0560
v -6.4799 -22.0813 54.8749
v -1.9795 -18.7490 51.3608
v -36.9315 -10.3862 57.7547
v -29.5125 -13.4682 55.3621
v -25.3058 -16.5501 52.9694
v -5.0624 -13.5950 55.4378
v -1.9334 -13.5950 51.4378
v -51.6476 -2.7934 57.9458
v -46.3528 -4.3224 57.9127
v -39.4008 -6.3100 58.0493
v -30.0866 -7.2587 54.8965
v -21.9457 -3.4718 54.7243
v -14.6981 -3.4830 54.7243
v -6.7545 -7.5898 54.0212
v -2.1669 -9.1201 50.9625
v -58.9221 5.2517 58.0306
v -54.3297 2.5130 57.7709
v -47.1026 1.7350 57.9589
v -41.8700 -1.3784 58.3439
v -19.0076 -1.4029 57.4677
v -17.5950 -1.4029 57.4677
v -59.2733 10.4050 57.7244
v -54.0933 10.0177 57.8083
v -50.2691 7.0929 58.4542
v -68.7745 21.2212 53.0514
v -62.5727 19.1239 55.5298
v -56.7668 19.1779 55.0486
v -68.7745 23.1585 53.0514
v -63.0219 23.7748 55.2745
v -57.6946 23.5521 54.6093
v -26.4491 -17.6901 59.1102
v -22.4973 -19.5777 62.1098
v -14.4207 -21.0118 62.7312
v -9.2961 -20.0802 60.1459
v -42.5190 -9.8196 64.4292
v -39.1000 -10.5924 62.1012
v -29.3981 -12.9805 62.6499
v -25.1111 -13.5950 64.6701
v -12.3216 -13.5950 64.7568
v -9.0624 -13.5950 60.7568
v -51.7028 -2.6544 62.6093
v -45.2893 -5.9403 62.9986
v -40.1388 -6.8621 60.9986
v -29.9494 -7.9083 63.1574
v -22.3987 -5.6947 62.7299
v -14.5632 -5.8279 62.2698
v -9.6889 -8.5129 59.9361
v -58.9221 5.2517 60.1712
v -54.7448 2.5130 62.7464
v -46.8838 1.7350 62.1402
v -41.8700 -1.3784 59.1608
v -19.0076 -1.4029 59.2702
v -17.5950 -1.4029 59.2702
v -59.2733 10.4050 61.1916
v -53.5632 9.4550 62.9975
v -50.2682 6.9800 62.6093
v -60.6827 18.4050 61.0045
v -56.3890 18.4050 61.0045
v -60.8013 23.8790 59.9217
v -57.5002 23.8790 59.9217
v -19.9270 -18.3640 67.2009
v -17.1326 -18.3640 67.2009
v -42.5190 -9.8196 66.7001
v -38.3528 -10.2483 67.0183
v -32.3471 -10.2415 67.0638
v -21.1111 -13.5950 67.7293
v -16.3216 -13.5950 67.7293
v -50.8580 -1.8091 66.7583
v -46.2682 -5.5704 66.7292
v -38.3528 -9.0566 67.0183
v -32.3471 -9.1404 67.0638
v -20.4564 -8.4763 67.5110
v -16.8647 -8.4763 67.5110
v -50.8717 2.4050 66.7415
v -50.0794 2.4050 66.7415
v -50.5395 6.4838 66.6365
v -50.3237 6.4838 66.6365
f 5 1 4
f 5 2 1
f 7 3 6
f 7 4 3
f 16 1 2
f 16 15 1
f 16 8 15
f 16 9 8
f 17 9 16
f 17 10 9
f 18 12 11
f 18 19 12
f 19 13 12
f 19 20 13
f 20 14 13
f 20 21 14
f 22 1 15
f 22 4 1
f 22 3 4
f 22 21 3
f 22 14 21
f 22 15 14
f 23 16 2
f 23 2 5
f 5 4 22
f 5 22 23
f 24 20 19
f 24 25 20
f 26 3 21
f 26 6 3
f 22 4 7
f 22 7 27
f 27 7 6
f 27 6 26
f 28 22 27
f 28 23 22
f 29 25 24
f 29 30 25
f 31 25 30
f 31 26 25
f 31 27 26
f 31 32 27
f 32 28 27
f 32 33 28
f 36 35 34
f 36 37 35
f 43 8 9
f 43 42 8
f 43 36 42
f 43 37 36
f 44 9 10
f 44 43 9
f 46 11 12
f 46 45 11
f 46 38 45
f 46 39 38
f 13 46 12
f 13 47 46
f 47 39 46
f 47 40 39
f 14 47 13
f 14 48 47
f 47 41 40
f 47 48 41
f 49 8 42
f 49 15 8
f 49 14 15
f 49 48 14
f 44 10 17
f 44 17 51
f 17 16 50
f 17 50 51
f 52 11 45
f 52 18 11
f 53 19 18
f 53 18 52
f 55 21 20
f 55 20 54
f 50 16 23
f 50 23 56
f 57 50 56
f 57 51 50
f 53 24 19
f 53 59 24
f 58 53 52
f 58 59 53
f 54 20 25
f 54 25 60
f 61 21 55
f 61 26 21
f 61 25 26
f 61 60 25
f 61 54 60
f 61 55 54
f 56 23 28
f 56 28 62
f 63 56 62
f 63 57 56
f 64 24 59
f 64 29 24
f 30 29 64
f 30 64 65
f 64 59 60
f 64 60 65
f 66 31 30
f 66 30 65
f 67 32 31
f 67 31 66
f 68 62 28
f 68 28 33
f 33 32 67
f 33 67 68
f 35 69 34
f 35 70 69
f 71 34 69
f 71 36 34
f 72 70 35
f 72 35 37
f 71 69 70
f 71 70 72
f 76 38 39
f 76 75 38
f 40 76 39
f 40 77 76
f 41 77 40
f 41 78 77
f 71 42 36
f 71 79 42
f 72 37 43
f 72 43 80
f 80 79 71
f 80 71 72
f 44 80 43
f 44 81 80
f 82 74 73
f 82 83 74
f 84 38 75
f 84 45 38
f 84 74 83
f 84 75 74
f 85 78 41
f 85 41 48
f 86 42 79
f 86 49 42
f 49 85 48
f 49 86 85
f 86 78 85
f 86 79 78
f 87 81 44
f 87 44 51
f 88 83 82
f 88 89 83
f 90 45 84
f 90 52 45
f 89 84 83
f 89 90 84
f 87 51 57
f 87 57 91
f 92 89 88
f 92 93 89
f 90 58 52
f 90 94 58
f 93 90 89
f 93 94 90
f 95 59 58
f 95 58 94
f 96 60 59
f 96 59 95
f 91 57 63
f 91 63 98
f 63 62 97
f 63 97 98
f 99 95 94
f 99 100 95
f 96 65 60
f 96 101 65
f 100 96 95
f 100 101 96
f 66 65 101
f 66 101 102
f 103 67 66
f 103 66 102
f 97 62 68
f 97 68 104
f 68 67 103
f 68 103 104
f 105 97 104
f 105 98 97
f 106 103 102
f 106 107 103
f 108 103 107
f 108 104 103
f 115 73 74
f 115 114 73
f 116 74 75
f 116 115 74
f 116 109 115
f 116 110 109
f 117 75 76
f 117 116 75
f 118 76 77
f 118 117 76
f 117 112 111
f 117 118 112
f 119 77 78
f 119 118 77
f 120 78 79
f 120 119 78
f 121 79 80
f 121 120 79
f 81 121 80
f 81 122 121
f 114 82 73
f 114 125 82
f 125 113 124
f 125 114 113
f 128 120 121
f 128 121 129
f 122 81 87
f 122 87 130
f 130 129 121
f 130 121 122
f 131 124 123
f 131 132 124
f 125 88 82
f 125 133 88
f 134 126 127
f 134 127 135
f 130 87 91
f 130 91 139
f 139 138 129
f 139 129 130
f 141 88 133
f 141 92 88
f 140 133 132
f 140 141 133
f 142 93 92
f 142 92 141
f 143 94 93
f 143 93 142
f 144 136 137
f 144 137 145
f 147 139 91
f 147 91 98
f 146 138 139
f 146 139 147
f 143 99 94
f 143 149 99
f 148 143 142
f 148 149 143
f 150 100 99
f 150 99 149
f 101 100 150
f 101 150 151
f 152 102 101
f 152 101 151
f 147 98 105
f 147 105 154
f 105 104 153
f 105 153 154
f 154 153 146
f 154 146 147
f 152 106 102
f 152 156 106
f 155 152 151
f 155 156 152
f 157 107 106
f 157 106 156
f 153 104 108
f 153 108 158
f 158 108 107
f 158 107 157
f 162 109 110
f 162 161 109
f 164 111 112
f 164 163 111
f 168 113 114
f 168 167 113
f 168 159 167
f 168 160 159
f 169 109 161
f 169 115 109
f 169 114 115
f 169 168 114
f 169 160 168
f 169 161 160
f 170 162 110
f 170 110 116
f 171 111 163
f 171 117 111
f 117 170 116
f 117 171 170
f 170 163 162
f 170 171 163
f 172 164 112
f 172 112 118
f 171 163 164
f 171 164 172
f 173 118 119
f 173 172 118
f 172 165 164
f 172 173 165
f 174 119 120
f 174 173 119
f 176 113 167
f 176 124 113
f 176 123 124
f 176 175 123
f 175 167 166
f 175 176 167
f 177 125 124
f 177 124 176
f 127 126 178
f 127 178 179
f 174 120 128
f 174 128 180
f 181 128 129
f 181 180 128
f 175 131 123
f 175 183 131
f 176 124 132
f 176 132 184
f 184 132 131
f 184 131 183
f 177 133 125
f 177 185 133
f 133 184 132
f 133 185 184
f 184 177 176
f 184 185 177
f 178 126 134
f 178 134 187
f 179 135 127
f 179 188 135
f 135 187 134
f 135 188 187
f 187 179 178
f 187 188 179
f 190 137 136
f 190 136 189
f 181 129 138
f 181 138 191
f 194 182 193
f 194 183 182
f 184 140 132
f 184 195 140
f 195 183 194
f 195 184 183
f 196 141 140
f 196 140 195
f 197 142 141
f 197 141 196
f 196 185 186
f 196 186 197
f 189 136 144
f 189 144 199
f 198 188 189
f 198 189 199
f 190 145 137
f 190 200 145
f 200 144 145
f 200 199 144
f 201 191 138
f 201 138 146
f 203 192 202
f 203 193 192
f 203 194 193
f 203 204 194
f 205 194 204
f 205 195 194
f 206 195 205
f 206 196 195
f 197 148 142
f 197 207 148
f 208 149 148
f 208 148 207
f 150 149 208
f 150 208 209
f 210 151 150
f 210 150 209
f 211 201 146
f 211 146 153
f 212 205 204
f 212 213 205
f 213 206 205
f 213 214 206
f 210 155 151
f 210 216 155
f 215 210 209
f 215 216 210
f 217 156 155
f 217 155 216
f 218 157 156
f 218 156 217
f 211 153 158
f 211 158 219
f 219 158 157
f 219 157 218
f 220 214 213
f 220 221 214
f 227 159 160
f 227 226 159
f 227 222 226
f 227 223 222
f 228 160 161
f 228 227 160
f 227 224 223
f 227 228 224
f 229 161 162
f 229 228 161
f 230 162 163
f 230 229 162
f 165 231 164
f 165 232 231
f 234 159 226
f 234 167 159
f 234 166 167
f 234 233 166
f 234 225 233
f 234 226 225
f 235 228 229
f 235 229 236
f 230 163 171
f 230 171 237
f 236 229 230
f 236 230 237
f 231 172 164
f 231 238 172
f 238 171 172
f 238 237 171
f 232 165 173
f 232 173 239
f 238 231 232
f 238 232 239
f 240 173 174
f 240 239 173
f 242 166 233
f 242 175 166
f 245 244 235
f 245 235 236
f 246 245 236
f 246 236 237
f 240 174 180
f 240 180 249
f 248 239 240
f 248 240 249
f 250 180 181
f 250 249 180
f 252 175 242
f 252 183 175
f 252 182 183
f 252 251 182
f 252 241 251
f 252 242 241
f 186 185 253
f 186 253 254
f 254 253 243
f 254 243 244
f 255 254 244
f 255 244 245
f 256 255 245
f 256 245 246
f 189 188 256
f 189 256 257
f 256 246 247
f 256 247 257
f 258 190 189
f 258 189 257
f 250 181 191
f 250 191 260
f 259 249 250
f 259 250 260
f 262 182 251
f 262 193 182
f 193 261 192
f 193 262 261
f 253 185 196
f 253 196 263
f 264 186 254
f 264 197 186
f 264 254 255
f 264 255 265
f 256 188 198
f 256 198 266
f 266 265 255
f 266 255 256
f 267 198 199
f 267 266 198
f 258 200 190
f 258 268 200
f 268 199 200
f 268 267 199
f 267 258 257
f 267 268 258
f 260 191 201
f 260 201 270
f 270 269 259
f 270 259 260
f 261 202 192
f 261 271 202
f 203 202 271
f 203 271 272
f 271 261 262
f 271 262 272
f 273 204 203
f 273 203 272
f 263 196 206
f 263 206 274
f 264 207 197
f 264 275 207
f 208 207 275
f 208 275 276
f 277 209 208
f 277 208 276
f 270 201 211
f 270 211 280
f 280 279 269
f 280 269 270
f 273 212 204
f 273 282 212
f 281 273 272
f 281 282 273
f 283 213 212
f 283 212 282
f 284 274 206
f 284 206 214
f 277 215 209
f 277 286 215
f 285 277 276
f 285 286 277
f 287 216 215
f 287 215 286
f 288 217 216
f 288 216 287
f 289 218 217
f 289 217 288
f 289 288 278
f 289 278 279
f 290 280 211
f 290 211 219
f 290 219 218
f 290 218 289
f 289 279 280
f 289 280 290
f 283 220 213
f 283 291 220
f 284 214 221
f 284 221 292
f 221 220 291
f 221 291 292
f 296 222 223
f 296 295 222
f 296 293 295
f 296 294 293
f 297 223 224
f 297 296 223
f 299 222 295
f 299 226 222
f 299 225 226
f 299 298 225
f 300 297 224
f 300 224 228
f 301 225 298
f 301 233 225
f 300 228 235
f 300 235 302
f 238 303 237
f 238 304 303
f 305 238 239
f 305 304 238
f 307 233 301
f 307 242 233
f 242 306 241
f 242 307 306
f 310 302 235
f 310 235 244
f 310 244 243
f 310 243 309
f 303 246 237
f 303 312 246
f 247 246 312
f 247 312 313
f 313 312 303
f 313 303 304
f 305 239 248
f 305 248 314
f 315 248 249
f 315 314 248
f 316 241 306
f 316 251 241
f 317 316 306
f 317 306 307
f 317 307 308
f 317 308 318
f 319 309 243
f 319 243 253
f 322 311 321
f 322 312 311
f 323 247 313
f 323 257 247
f 323 312 322
f 323 313 312
f 315 249 259
f 315 259 325
f 324 314 315
f 324 315 325
f 316 262 251
f 316 326 262
f 326 316 317
f 326 317 327
f 328 327 317
f 328 317 318
f 319 253 263
f 319 263 329
f 328 318 319
f 328 319 329
f 331 264 265
f 331 330 264
f 331 320 330
f 331 321 320
f 332 265 266
f 332 331 265
f 332 321 331
f 332 322 321
f 333 257 323
f 333 267 257
f 333 266 267
f 333 332 266
f 333 322 332
f 333 323 322
f 335 325 259
f 335 259 269
f 335 334 324
f 335 324 325
f 326 272 262
f 326 336 272
f 336 326 327
f 336 327 337
f 338 329 263
f 338 263 274
f 330 275 264
f 330 339 275
f 338 330 329
f 338 339 330
f 340 276 275
f 340 275 339
f 343 335 269
f 343 269 279
f 343 279 278
f 343 278 342
f 343 342 334
f 343 334 335
f 336 281 272
f 336 344 281
f 345 282 281
f 345 281 344
f 344 336 337
f 344 337 345
f 346 283 282
f 346 282 345
f 347 338 274
f 347 274 284
f 347 339 338
f 347 348 339
f 340 285 276
f 340 349 285
f 350 286 285
f 350 285 349
f 349 340 341
f 349 341 350
f 351 287 286
f 351 286 350
f 352 342 278
f 352 278 288
f 352 288 287
f 352 287 351
f 353 283 346
f 353 291 283
f 347 284 292
f 347 292 354
f 292 291 353
f 292 353 354
f 355 347 354
f 355 348 347
f 356 348 355
f 356 349 348
f 294 357 293
f 294 358 357
f 357 295 293
f 357 360 295
f 361 358 294
f 361 294 296
f 361 360 357
f 361 357 358
f 297 361 296
f 297 362 361
f 361 359 358
f 361 362 359
f 365 295 360
f 365 299 295
f 299 364 298
f 299 365 364
f 366 362 297
f 366 297 300
f 366 363 362
f 366 367 363
f 369 298 364
f 369 301 298
f 370 369 364
f 370 364 365
f 366 300 302
f 366 302 372
f 373 366 372
f 373 367 366
f 373 368 367
f 373 374 368
f 376 304 305
f 376 375 304
f 377 301 369
f 377 307 301
f 308 307 377
f 308 377 378
f 377 369 370
f 377 370 378
f 372 302 310
f 372 310 380
f 310 309 379
f 310 379 380
f 380 379 371
f 380 371 372
f 382 311 312
f 382 381 311
f 383 304 375
f 383 313 304
f 383 312 313
f 383 382 312
f 382 375 374
f 382 383 375
f 376 305 314
f 376 314 384
f 383 375 376
f 383 376 384
f 385 308 378
f 385 318 308
f 386 379 309
f 386 309 319
f 386 319 318
f 386 318 385
f 386 385 378
f 386 378 379
f 388 311 381
f 388 321 311
f 388 320 321
f 388 387 320
f 387 381 380
f 387 388 381
f 384 314 324
f 384 324 389
f 328 390 327
f 328 391 390
f 392 328 329
f 392 391 328
f 393 320 387
f 393 330 320
f 393 329 330
f 393 392 329
f 389 324 334
f 389 334 395
f 390 337 327
f 390 396 337
f 340 339 397
f 340 397 398
f 341 340 398
f 341 398 399
f 401 395 334
f 401 334 342
f 401 400 394
f 401 394 395
f 402 337 396
f 402 345 337
f 346 345 402
f 346 402 403
f 397 339 348
f 397 348 404
f 349 404 348
f 349 405 404
f 404 398 397
f 404 405 398
f 399 350 341
f 399 406 350
f 405 399 398
f 405 406 399
f 407 351 350
f 407 350 406
f 401 342 352
f 401 352 408
f 408 352 351
f 408 351 407
f 408 407 400
f 408 400 401
f 409 346 403
f 409 353 346
f 410 354 353
f 410 353 409
f 355 354 410
f 355 410 411
f 405 349 356
f 405 356 412
f 356 355 411
f 356 411 412
f 359 413 358
f 359 414 413
f 413 361 358
f 413 417 361
f 361 416 360
f 361 417 416
f 418 414 359
f 418 359 362
f 363 418 362
f 363 419 418
f 418 415 414
f 418 419 415
f 416 365 360
f 416 420 365
f 421 420 416
f 421 416 417
f 422 419 363
f 422 363 367
f 368 422 367
f 368 423 422
f 420 370 365
f 420 424 370
f 426 372 371
f 426 371 425
f 373 372 426
f 373 426 427
f 428 423 368
f 428 368 374
f 428 374 373
f 428 373 427
f 429 374 375
f 429 428 374
f 430 370 424
f 430 378 370
f 431 425 371
f 431 371 379
f 379 378 430
f 379 430 431
f 430 424 425
f 430 425 431
f 381 432 380
f 381 433 432
f 428 382 374
f 428 434 382
f 434 381 382
f 434 433 381
f 429 375 383
f 429 383 435
f 434 428 429
f 434 429 435
f 436 383 384
f 436 435 383
f 432 387 380
f 432 437 387
f 438 437 432
f 438 432 433
f 439 438 433
f 439 433 434
f 436 384 389
f 436 389 441
f 440 435 436
f 440 436 441
f 391 442 390
f 391 443 442
f 392 443 391
f 392 444 443
f 445 387 437
f 445 393 387
f 445 392 393
f 445 444 392
f 447 441 389
f 447 389 395
f 447 395 394
f 447 394 446
f 447 446 440
f 447 440 441
f 448 390 442
f 448 396 390
f 448 442 443
f 448 443 449
f 450 449 443
f 450 443 444
f 452 446 394
f 452 394 400
f 453 396 448
f 453 402 396
f 403 402 453
f 403 453 454
f 453 448 449
f 453 449 454
f 458 406 405
f 458 405 457
f 459 452 400
f 459 400 407
f 459 407 406
f 459 406 458
f 459 458 451
f 459 451 452
f 460 403 454
f 460 409 403
f 410 409 460
f 410 460 461
f 460 454 455
f 460 455 461
f 411 410 461
f 411 461 462
f 462 461 455
f 462 455 456
f 463 457 405
f 463 405 412
f 463 412 411
f 463 411 462
f 463 462 456
f 463 456 457
f 414 464 413
f 414 465 464
f 415 465 414
f 415 466 465
f 464 417 413
f 464 467 417
f 468 467 464
f 468 464 465
f 469 466 415
f 469 415 419
f 467 421 417
f 467 471 421
f 421 470 420
f 421 471 470
f 469 419 422
f 469 422 472
f 423 472 422
f 423 473 472
f 474 420 470
f 474 424 420
f 475 425 424
f 475 424 474
f 476 426 425
f 476 425 475
f 477 427 426
f 477 426 476
f 478 473 423
f 478 423 428
f 478 428 427
f 478 427 477
f 479 477 476
f 479 480 477
f 482 434 435
f 482 481 434
f 438 483 437
f 438 484 483
f 481 439 434
f 481 485 439
f 439 484 438
f 439 485 484
f 482 435 440
f 482 440 486
f 486 485 481
f 486 481 482
f 483 445 437
f 483 488 445
f 445 487 444
f 445 488 487
f 489 488 483
f 489 483 484
f 490 489 484
f 490 484 485
f 491 486 440
f 491 440 446
f 490 485 486
f 490 486 491
f 487 450 444
f 487 493 450
f 450 492 449
f 450 493 492
f 494 489 490
f 494 490 495
f 496 491 446
f 496 446 452
f 496 452 451
f 496 451 495
f 496 495 490
f 496 490 491
f 497 449 492
f 497 454 449
f 455 454 497
f 455 497 498
f 498 497 492
f 498 492 493
f 499 456 455
f 499 455 498
f 457 456 499
f 457 499 500
f 501 495 451
f 501 451 458
f 501 458 457
f 501 457 500
f 501 500 494
f 501 494 495
f 466 502 465
f 466 503 502
f 502 468 465
f 502 505 468
f 468 504 467
f 468 505 504
f 503 466 469
f 503 469 506
f 504 471 467
f 504 508 471
f 471 507 470
f 471 508 507
f 506 469 472
f 506 472 509
f 510 472 473
f 510 509 472
f 507 474 470
f 507 511 474
f 475 474 511
f 475 511 512
f 511 507 508
f 511 508 512
f 513 476 475
f 513 475 512
f 515 510 473
f 515 473 478
f 515 478 477
f 515 477 514
f 515 514 509
f 515 509 510
f 516 476 513
f 516 479 476
f 517 514 477
f 517 477 480
f 480 479 516
f 480 516 517
f 517 516 513
f 517 513 514
f 519 487 488
f 519 518 487
f 520 488 489
f 520 519 488
f 521 487 518
f 521 493 487
f 522 521 518
f 522 518 519
f 520 489 494
f 520 494 523
f 522 519 520
f 522 520 523
f 524 493 521
f 524 498 493
f 499 498 524
f 499 524 525
f 524 521 522
f 524 522 525
f 526 523 494
f 526 494 500
f 526 500 499
f 526 499 525
f 526 525 522
f 526 522 523
f 503 527 502
f 503 528 527
f 527 505 502
f 527 531 505
f 531 504 505
f 531 530 504
f 528 503 506
f 528 506 532
f 530 508 504
f 530 534 508
f 534 529 533
f 534 530 529
f 535 532 506
f 535 506 509
f 534 512 508
f 534 538 512
f 538 533 537
f 538 534 533
f 513 512 538
f 513 538 539
f 540 535 509
f 540 509 514
f 540 514 513
f 540 513 539
f 542 536 541
f 542 537 536
f 543 537 542
f 543 538 537
f 544 538 543
f 544 539 538
f 547 546 545
f 547 548 546
f 528 549 527
f 528 550 549
f 552 529 530
f 552 551 529
f 549 531 527
f 549 553 531
f 553 530 531
f 553 552 530
f 550 528 532
f 550 532 554
f 554 553 549
f 554 549 550
f 555 529 551
f 555 533 529
f 554 532 535
f 554 535 557
f 557 556 553
f 557 553 554
f 559 533 555
f 559 537 533
f 559 536 537
f 559 558 536
f 557 535 540
f 557 540 561
f 540 539 560
f 540 560 561
f 562 536 558
f 562 541 536
f 563 542 541
f 563 541 562
f 564 543 542
f 564 542 563
f 560 539 544
f 560 544 565
f 544 543 564
f 544 564 565
f 566 560 565
f 566 561 560
f 546 567 545
f 546 568 567
f 567 547 545
f 567 571 547
f 572 568 546
f 572 546 548
f 548 547 571
f 548 571 572
f 572 571 567
f 572 567 568
f 573 568 572
f 573 569 568
f 573 570 569
f 573 574 570
f 552 575 551
f 552 576 575
f 577 552 553
f 577 576 552
f 575 555 551
f 575 579 555
f 580 579 575
f 580 575 576
f 577 553 556
f 577 556 581
f 580 576 577
f 580 577 581
f 582 556 557
f 582 581 556
f 585 555 579
f 585 559 555
f 585 558 559
f 585 584 558
f 585 578 584
f 585 579 578
f 582 557 561
f 582 561 587
f 586 581 582
f 586 582 587
f 591 558 584
f 591 562 558
f 591 583 590
f 591 584 583
f 592 563 562
f 592 562 591
f 564 563 592
f 564 592 593
f 594 565 564
f 594 564 593
f 587 561 566
f 587 566 595
f 595 566 565
f 595 565 594
f 595 594 586
f 595 586 587
f 598 588 597
f 598 589 588
f 599 589 598
f 599 590 589
f 600 593 592
f 600 601 593
f 603 596 602
f 603 597 596
f 604 597 603
f 604 598 597
f 569 605 568
f 569 606 605
f 570 606 569
f 570 607 606
f 607 602 606
f 607 603 602
f 608 568 605
f 608 572 568
f 573 572 608
f 573 608 609
f 609 608 605
f 609 605 606
f 610 607 570
f 610 570 574
f 610 574 573
f 610 573 609
f 612 578 579
f 612 611 578
f 613 579 580
f 613 612 579
f 614 580 581
f 614 613 580
f 611 584 578
f 611 617 584
f 617 583 584
f 617 616 583
f 618 617 611
f 618 611 612
f 614 581 586
f 614 586 620
f 619 613 614
f 619 614 620
f 589 621 588
f 589 622 621
f 623 583 616
f 623 590 583
f 623 589 590
f 623 622 589
f 623 615 622
f 623 616 615
f 624 591 590
f 624 590 623
f 625 592 591
f 625 591 624
f 624 617 618
f 624 618 625
f 627 620 586
f 627 586 594
f 627 594 593
f 627 593 626
f 627 626 619
f 627 619 620
f 621 597 588
f 621 629 597
f 597 628 596
f 597 629 628
f 631 623 590
f 631 590 599
f 631 599 598
f 631 598 630
f 631 630 622
f 631 622 623
f 632 592 625
f 632 600 592
f 633 626 593
f 633 593 601
f 601 600 632
f 601 632 633
f 632 625 626
f 632 626 633
f 628 602 596
f 628 634 602
f 635 634 628
f 635 628 629
f 630 598 604
f 630 604 636
f 604 603 635
f 604 635 636
f 637 602 634
f 637 606 602
f 638 635 603
f 638 603 607
f 638 637 634
f 638 634 635
f 639 606 637
f 639 609 606
f 640 638 607
f 640 607 610
f 610 609 639
f 610 639 640
f 640 639 637
f 640 637 638
f 642 612 613
f 642 641 612
f 644 615 616
f 644 643 615
f 645 616 617
f 645 644 616
f 641 618 612
f 641 646 618
f 642 613 619
f 642 619 647
f 647 646 641
f 647 641 642
f 643 622 615
f 643 649 622
f 649 621 622
f 649 648 621
f 623 622 649
f 623 649 650
f 650 649 643
f 650 643 644
f 645 617 624
f 645 624 651
f 624 623 650
f 624 650 651
f 651 650 644
f 651 644 645
f 652 618 646
f 652 625 618
f 653 647 619
f 653 619 626
f 653 626 625
f 653 625 652
f 652 646 647
f 652 647 653
f 654 621 648
f 654 629 621
f 649 622 630
f 649 630 655
f 655 654 648
f 655 648 649
f 656 629 654
f 656 635 629
f 655 630 636
f 655 636 657
f 636 635 656
f 636 656 657
f 656 654 655
f 656 655 657
