# parsimony mesh: g6151_monomer (source /Users/eranagmon/code/v2e-molecules/workspace/studies/ecoli-3d/viz/3d/structures/g6151_monomer.pdb)
# atoms: 1106  voxel: 8 Å  verts: 241  tris: 488
v 2.9997 -12.1449 -28.8653
v 4.2304 -12.1449 -28.8653
v 2.9997 -10.3004 -28.8653
v 4.2304 -10.3004 -28.8653
v 2.0083 -12.6826 -24.4316
v 7.1381 -12.7139 -23.7849
v 15.4996 -13.3272 -21.6012
v 23.4996 -13.8428 -22.8271
v 31.4996 -13.0434 -22.9899
v 36.7100 -12.4240 -21.9527
v 2.0083 -9.3771 -24.4316
v 7.1381 -9.5962 -23.7849
v 15.4996 -9.7502 -21.6012
v 23.4996 -8.1178 -22.8271
v 30.7763 -6.8809 -23.2434
v 39.4259 -7.5921 -22.8240
v 44.3114 -4.9099 -21.6224
v 11.3607 4.1665 -20.5215
v 15.4996 2.8524 -20.8345
v 23.4996 1.0724 -21.6763
v 30.7763 -0.3702 -23.3720
v 39.4996 0.3846 -24.2932
v 44.1797 0.3846 -21.5269
v 11.3607 4.6039 -20.5215
v 15.4996 5.3205 -20.8345
v 23.4996 7.0661 -21.6763
v 31.4996 7.3042 -23.1506
v 39.4996 5.4845 -22.4436
v 43.5947 4.5051 -20.7012
v 18.3214 -27.8310 -12.7355
v 19.8488 -27.8310 -12.7355
v 11.1844 -20.8537 -13.1325
v 15.5927 -23.5584 -13.9229
v 20.9079 -23.6154 -13.7701
v 2.1517 -12.4946 -16.4316
v 8.1105 -15.7636 -16.0521
v 15.4996 -17.3272 -18.0678
v 23.3999 -15.7670 -16.6493
v 31.4996 -13.0434 -18.9565
v 36.7100 -12.4240 -19.5102
v 1.9609 -7.4138 -16.5132
v 7.4996 -6.0776 -17.7289
v 15.4996 -5.7502 -17.5981
v 22.8471 -6.6170 -16.5564
v 30.7763 -6.8809 -17.7121
v 39.4259 -7.5921 -17.6214
v 44.3114 -4.9099 -19.2351
v -4.6162 4.2452 -12.5057
v -0.1607 1.1010 -13.7412
v 8.2163 1.0537 -17.0530
v 15.4996 -1.1476 -17.5981
v 22.9534 -1.9309 -16.4086
v 30.9942 0.0341 -15.5523
v 39.4996 0.3846 -16.1226
v 44.1797 0.3846 -19.4416
v -4.6162 4.5719 -12.5057
v -0.5004 5.2732 -12.9666
v 8.2163 6.4493 -16.0151
v 15.4133 9.6680 -15.9846
v 22.8636 10.0397 -15.9846
v 31.6164 7.0301 -16.1159
v 39.4996 5.4845 -18.9443
v 43.5947 4.5051 -20.3081
v 18.0224 12.6025 -13.0199
v 19.7729 12.6025 -13.0199
v 9.7165 -28.5604 -6.2543
v 15.4117 -28.1957 -9.1018
v 19.8488 -27.8310 -11.9493
v 9.8329 -23.5584 -8.7252
v 15.8028 -24.7175 -8.6118
v 20.9079 -23.6154 -10.3799
v 3.1910 -11.8943 -11.4518
v 7.0326 -14.9827 -8.6437
v 17.7197 -15.6154 -5.9853
v 21.3500 -15.6154 -9.9853
v -5.2824 -3.7606 -4.7051
v 0.2950 -6.7136 -8.0785
v 5.0494 -9.6665 -6.1185
v 16.7448 -7.6154 -7.3724
v 20.5208 -7.6154 -11.3724
v -12.9964 3.4580 -4.7189
v -7.6160 1.1849 -7.3787
v -2.6010 -1.0881 -10.0384
v 16.5248 0.3846 -7.4169
v 22.9534 0.7189 -11.3722
v 29.0275 3.6084 -12.0188
v -12.9964 4.8904 -4.7189
v -7.7698 5.8638 -7.8040
v -0.5004 8.2127 -8.4316
v 7.4996 8.9640 -8.4316
v 14.9861 8.5319 -9.1282
v 22.8636 7.8944 -11.4199
v 29.0275 4.9010 -12.0188
v 18.0224 12.6025 -12.1073
v 19.7729 12.6025 -12.1073
v 3.0855 -35.9843 2.9193
v 4.5459 -35.9843 2.9193
v 3.0016 -31.6154 2.3322
v 7.1312 -31.2769 0.0776
v 12.5436 -29.1077 -0.4316
v 3.2497 -27.3886 2.5693
v 7.6016 -24.5940 -0.7030
v 13.6647 -24.1258 -0.9578
v 10.1523 -15.6154 -3.4142
v 13.7197 -15.6154 -3.4142
v -21.1187 -4.0596 2.7825
v -18.1472 -4.0596 2.7825
v -5.2824 -3.7606 -2.9673
v -1.0288 -5.2362 -0.3530
v 7.6295 -9.1646 -0.6915
v 12.9947 -7.6309 -0.6915
v -21.6126 0.3846 2.3087
v -15.5718 0.0123 0.0620
v -8.1696 -1.4408 -0.3530
v -1.1918 0.9641 2.7241
v 7.4996 3.3906 2.1896
v 12.8187 0.7154 -0.4430
v -21.3651 6.5297 2.6748
v -15.9980 6.8805 -0.1678
v -8.5004 7.3389 -0.4316
v -0.8017 6.8273 0.0767
v 7.4996 6.5475 -1.8104
v 11.9499 5.1215 -3.1172
v 3.0855 -35.9843 4.8203
v 4.5459 -35.9843 4.8203
v 3.0016 -31.6154 4.6963
v 7.3274 -31.4422 4.7024
v 11.8892 -28.6601 3.9545
v 3.2497 -27.3886 3.8204
v 7.4996 -27.0833 4.0470
v 11.8892 -27.1327 3.9545
v -29.7142 -3.8988 11.1992
v -24.0714 -4.6404 8.1469
v -17.4489 -4.6842 7.5684
v 1.7927 -5.0337 7.5684
v 7.4996 -6.2887 7.5684
v 12.3429 -4.8705 7.5684
v -36.7773 3.8001 11.4911
v -32.4287 0.8339 10.7403
v -25.6126 0.3846 6.5913
v -14.0334 -0.3062 7.6804
v -8.5004 1.7978 4.9151
v -0.4240 1.8192 5.9635
v 8.0009 3.2214 7.2353
v 12.3429 -0.6620 7.5684
v -53.0100 11.8352 11.1840
v -51.9585 11.8352 11.1840
v -36.7773 4.4597 11.4911
v -32.5004 4.9948 10.8102
v -24.2192 6.5463 7.8082
v -16.4746 7.0085 7.6804
v -8.5004 5.6303 4.9151
v -0.5939 4.7518 6.7619
v 5.6685 4.9670 9.6799
v -53.0100 12.9495 11.1840
v -51.9585 12.9495 11.1840
v -29.7142 -3.8988 13.7228
v -24.5004 -4.5636 13.9012
v -18.7850 -4.5962 12.5243
v 3.0248 -4.0687 15.5684
v 7.1520 -4.1665 15.0444
v 11.7925 -3.9296 12.0285
v -46.2598 3.3799 18.1702
v -39.8665 2.2523 15.5295
v -32.4287 -1.3347 16.0611
v -25.1381 0.1949 17.3480
v -18.1816 0.3846 13.1770
v -4.9534 4.2058 19.0583
v -0.6911 1.0773 16.0623
v 9.1827 0.8165 15.0444
v 11.7925 -1.5622 12.0285
v -53.0926 11.1542 15.5684
v -49.1963 8.9372 16.6834
v -39.8665 5.8067 15.5295
v -32.5004 5.6659 15.5684
v -25.1381 5.3771 15.4817
v -19.1241 5.1037 12.7573
v -5.1797 8.3846 19.0329
v -0.8246 7.9529 16.5447
v 6.0380 5.7370 15.5684
v -53.1675 15.9235 16.1004
v -51.2218 15.9235 16.1004
v -4.9530 12.5953 19.3645
v -4.1307 12.5953 19.3645
v -52.8226 21.1206 19.1218
v -51.8384 21.1206 19.1218
v 2.9285 -4.1670 20.1245
v 4.2535 -4.1670 20.1245
v -46.2598 3.3799 20.5720
v -40.5004 2.1575 20.9604
v -32.5004 1.6739 20.3026
v -28.2299 2.7351 19.6949
v -4.9534 4.2058 19.8359
v -0.0430 1.0773 20.6248
v 4.9768 0.3846 20.6883
v -52.7804 11.2934 20.3236
v -48.9165 8.6374 20.4478
v -40.5004 6.1059 20.9604
v -32.5004 5.0557 20.3026
v -28.2299 4.5810 19.6949
v -12.8430 12.2546 27.2504
v -7.6199 9.4576 23.5431
v -1.4046 8.7997 22.8374
v 4.7153 5.6055 20.5056
v -52.9521 16.3846 21.5716
v -48.8316 18.0391 24.0558
v -40.5004 20.2708 27.4113
v -36.2331 20.3722 27.5593
v -22.7154 19.2569 26.9186
v -15.9059 16.5080 26.6268
v -8.4770 15.4309 24.4419
v -3.8567 12.9541 23.5684
v -52.8226 21.1206 21.4842
v -48.6837 21.1791 24.4261
v -40.5004 21.0590 27.4113
v -36.2331 20.4308 27.5593
v -22.7154 21.1671 26.9186
v -16.5004 21.1569 26.6299
v -12.0009 20.6318 26.9669
v -12.8430 12.2546 27.6993
v -8.5004 11.9941 27.9645
v -4.0119 11.9939 27.9656
v -45.5290 20.2452 27.7635
v -40.5004 20.2708 27.7516
v -36.2331 20.3722 27.6176
v -22.7154 19.2569 29.6016
v -15.9059 16.5080 29.0611
v -9.0007 15.9137 28.0795
v -4.0119 12.9332 27.9656
v -45.5290 21.2375 27.7635
v -38.8110 24.1579 31.0633
v -36.3165 24.3603 31.5483
v -22.7154 21.1671 29.6016
v -16.5004 21.1569 29.3361
v -12.0009 20.6318 27.8921
v -36.5584 28.4033 35.4790
v -36.4000 28.4033 35.4790
v -36.5584 28.2897 35.5895
v -36.4000 28.2897 35.5895
v -36.5584 28.4033 35.5895
v -36.4000 28.4033 35.5895
f 3 2 1
f 3 4 2
f 2 5 1
f 2 6 5
f 5 3 1
f 5 11 3
f 6 2 4
f 6 4 12
f 4 3 11
f 4 11 12
f 13 6 12
f 13 7 6
f 13 8 7
f 13 14 8
f 14 9 8
f 14 15 9
f 15 10 9
f 15 16 10
f 21 16 15
f 21 22 16
f 22 17 16
f 22 23 17
f 25 18 24
f 25 19 18
f 26 19 25
f 26 20 19
f 27 20 26
f 27 21 20
f 28 21 27
f 28 22 21
f 29 22 28
f 29 23 22
f 34 30 33
f 34 31 30
f 6 35 5
f 6 36 35
f 7 36 6
f 7 37 36
f 37 32 36
f 37 33 32
f 38 7 8
f 38 37 7
f 37 34 33
f 37 38 34
f 39 8 9
f 39 38 8
f 10 39 9
f 10 40 39
f 35 11 5
f 35 41 11
f 12 11 41
f 12 41 42
f 13 12 42
f 13 42 43
f 44 14 13
f 44 13 43
f 45 15 14
f 45 14 44
f 44 38 39
f 44 39 45
f 40 10 16
f 40 16 46
f 45 39 40
f 45 40 46
f 47 16 17
f 47 46 16
f 50 41 49
f 50 42 41
f 51 18 19
f 51 50 18
f 51 42 50
f 51 43 42
f 20 51 19
f 20 52 51
f 52 43 51
f 52 44 43
f 45 21 15
f 45 53 21
f 53 20 21
f 53 52 20
f 54 53 45
f 54 45 46
f 55 47 17
f 55 17 23
f 54 46 47
f 54 47 55
f 57 48 56
f 57 49 48
f 50 24 18
f 50 58 24
f 58 49 57
f 58 50 49
f 59 25 24
f 59 24 58
f 60 26 25
f 60 25 59
f 61 27 26
f 61 26 60
f 62 28 27
f 62 27 61
f 61 53 54
f 61 54 62
f 63 55 23
f 63 23 29
f 29 28 62
f 29 62 63
f 62 54 55
f 62 55 63
f 65 59 64
f 65 60 59
f 68 30 31
f 68 67 30
f 70 30 67
f 70 33 30
f 70 32 33
f 70 69 32
f 69 67 66
f 69 70 67
f 68 31 34
f 68 34 71
f 70 67 68
f 70 68 71
f 73 32 69
f 73 36 32
f 36 72 35
f 36 73 72
f 75 71 34
f 75 34 38
f 74 70 71
f 74 71 75
f 72 41 35
f 72 77 41
f 78 77 72
f 78 72 73
f 80 75 38
f 80 38 44
f 79 74 75
f 79 75 80
f 77 49 41
f 77 83 49
f 83 48 49
f 83 82 48
f 83 76 82
f 83 77 76
f 80 44 52
f 80 52 85
f 84 79 80
f 84 80 85
f 53 85 52
f 53 86 85
f 88 48 82
f 88 56 48
f 88 81 87
f 88 82 81
f 89 57 56
f 89 56 88
f 90 58 57
f 90 57 89
f 91 59 58
f 91 58 90
f 92 91 84
f 92 84 85
f 86 53 61
f 86 61 93
f 93 61 60
f 93 60 92
f 93 92 85
f 93 85 86
f 94 59 91
f 94 64 59
f 95 92 60
f 95 60 65
f 65 64 94
f 65 94 95
f 94 91 92
f 94 92 95
f 98 97 96
f 98 99 97
f 100 66 67
f 100 99 66
f 102 66 99
f 102 69 66
f 101 99 98
f 101 102 99
f 103 100 67
f 103 67 70
f 104 69 102
f 104 73 69
f 103 70 74
f 103 74 105
f 104 102 103
f 104 103 105
f 109 76 77
f 109 108 76
f 104 78 73
f 104 110 78
f 78 109 77
f 78 110 109
f 105 74 79
f 105 79 111
f 111 110 104
f 111 104 105
f 112 107 106
f 112 113 107
f 114 76 108
f 114 82 76
f 114 81 82
f 114 113 81
f 114 108 109
f 114 109 115
f 111 79 84
f 111 84 117
f 119 81 113
f 119 87 81
f 119 112 118
f 119 113 112
f 120 88 87
f 120 87 119
f 121 89 88
f 121 88 120
f 122 90 89
f 122 89 121
f 121 115 116
f 121 116 122
f 123 117 84
f 123 84 91
f 123 91 90
f 123 90 122
f 123 122 116
f 123 116 117
f 97 124 96
f 97 125 124
f 126 96 124
f 126 98 96
f 127 125 97
f 127 97 99
f 126 124 125
f 126 125 127
f 128 99 100
f 128 127 99
f 129 98 126
f 129 101 98
f 130 102 101
f 130 101 129
f 129 126 127
f 129 127 130
f 131 128 100
f 131 100 103
f 131 103 102
f 131 102 130
f 130 127 128
f 130 128 131
f 134 106 107
f 134 133 106
f 110 135 109
f 110 136 135
f 111 136 110
f 111 137 136
f 140 106 133
f 140 112 106
f 140 132 139
f 140 133 132
f 141 134 107
f 141 107 113
f 142 113 114
f 142 141 113
f 135 115 109
f 135 143 115
f 115 142 114
f 115 143 142
f 116 115 143
f 116 143 144
f 137 111 117
f 137 117 145
f 145 117 116
f 145 116 144
f 149 138 148
f 149 139 138
f 140 118 112
f 140 150 118
f 149 140 139
f 149 150 140
f 151 119 118
f 151 118 150
f 152 120 119
f 152 119 151
f 152 151 141
f 152 141 142
f 153 143 115
f 153 115 121
f 121 120 152
f 121 152 153
f 153 152 142
f 153 142 143
f 154 143 153
f 154 144 143
f 155 147 146
f 155 156 147
f 158 132 133
f 158 157 132
f 159 133 134
f 159 158 133
f 161 135 136
f 161 160 135
f 162 136 137
f 162 161 136
f 165 132 157
f 165 139 132
f 165 138 139
f 165 164 138
f 166 165 157
f 166 157 158
f 167 159 134
f 167 134 141
f 167 166 158
f 167 158 159
f 169 135 160
f 169 143 135
f 162 137 145
f 162 145 171
f 171 145 144
f 171 144 170
f 171 170 161
f 171 161 162
f 147 172 146
f 147 173 172
f 174 138 164
f 174 148 138
f 174 163 173
f 174 164 163
f 175 149 148
f 175 148 174
f 176 150 149
f 176 149 175
f 167 141 151
f 167 151 177
f 177 151 150
f 177 150 176
f 176 166 167
f 176 167 177
f 169 153 143
f 169 179 153
f 179 168 178
f 179 169 168
f 170 144 154
f 170 154 180
f 154 153 179
f 154 179 180
f 172 155 146
f 172 181 155
f 182 173 147
f 182 147 156
f 156 155 181
f 156 181 182
f 184 178 183
f 184 179 178
f 186 181 185
f 186 182 181
f 188 160 161
f 188 187 160
f 190 163 164
f 190 189 163
f 191 164 165
f 191 190 164
f 192 165 166
f 192 191 165
f 187 169 160
f 187 194 169
f 194 168 169
f 194 193 168
f 195 188 161
f 195 161 170
f 195 194 187
f 195 187 188
f 197 163 189
f 197 173 163
f 173 196 172
f 173 197 196
f 198 174 173
f 198 173 197
f 198 197 189
f 198 189 190
f 199 175 174
f 199 174 198
f 199 198 190
f 199 190 191
f 192 166 176
f 192 176 200
f 200 176 175
f 200 175 199
f 199 191 192
f 199 192 200
f 193 178 168
f 193 202 178
f 203 202 193
f 203 193 194
f 195 170 180
f 195 180 204
f 204 180 179
f 204 179 203
f 204 203 194
f 204 194 195
f 196 181 172
f 196 205 181
f 197 173 182
f 197 182 206
f 206 205 196
f 206 196 197
f 202 183 178
f 202 211 183
f 211 201 210
f 211 202 201
f 203 179 184
f 203 184 212
f 212 184 183
f 212 183 211
f 205 185 181
f 205 213 185
f 206 182 186
f 206 186 214
f 186 185 213
f 186 213 214
f 213 205 206
f 213 206 214
f 214 207 206
f 214 215 207
f 216 207 215
f 216 208 207
f 218 209 217
f 218 210 209
f 219 210 218
f 219 211 210
f 221 201 202
f 221 220 201
f 222 202 203
f 222 221 202
f 207 223 206
f 207 224 223
f 208 224 207
f 208 225 224
f 220 210 201
f 220 227 210
f 227 209 210
f 227 226 209
f 228 227 220
f 228 220 221
f 222 203 212
f 222 212 229
f 229 212 211
f 229 211 228
f 229 228 221
f 229 221 222
f 223 214 206
f 223 230 214
f 215 214 230
f 215 230 231
f 230 223 224
f 230 224 231
f 225 208 216
f 225 216 232
f 216 215 231
f 216 231 232
f 231 224 225
f 231 225 232
f 226 217 209
f 226 233 217
f 234 218 217
f 234 217 233
f 234 233 226
f 234 226 227
f 228 211 219
f 228 219 235
f 235 219 218
f 235 218 234
f 235 234 227
f 235 227 228
f 236 232 231
f 236 237 232
f 232 238 231
f 232 239 238
f 238 236 231
f 238 240 236
f 239 232 237
f 239 237 241
f 237 236 240
f 237 240 241
f 240 238 239
f 240 239 241
