# parsimony mesh: g6151_monomer (source /Users/eranagmon/code/v2e-flagella/workspace/studies/ecoli-3d/viz/3d/structures/g6151_monomer.pdb)
# atoms: 1106  voxel: 16 Å  verts: 60  tris: 120
v 1.8377 -13.2268 -22.6979
v 11.4996 -14.9056 -23.3743
v 27.4996 -14.7485 -23.3898
v 37.3229 -13.0174 -22.7184
v 1.8377 -8.0623 -22.6979
v 11.1569 -3.0835 -23.4419
v 27.4996 -3.6154 -25.7357
v 38.6061 -3.6154 -23.6726
v 16.2617 5.9981 -21.5250
v 27.4996 6.8401 -22.7775
v 37.8183 6.0451 -22.4660
v 3.1740 -28.1154 -4.8940
v 5.5646 -28.1154 -4.8940
v 2.0149 -18.9822 -11.1090
v 11.6321 -19.1422 -10.2050
v 27.4996 -14.7485 -15.6345
v 37.3229 -13.0174 -18.9511
v -14.0382 2.9663 -5.5079
v -2.9082 -2.5480 -12.0652
v 12.1116 -0.9498 -11.4636
v 27.4996 -3.6154 -11.6340
v 38.6061 -3.6154 -17.9712
v -14.0382 5.6337 -5.5079
v -4.5004 6.6983 -7.8820
v 11.7803 6.1092 -12.4267
v 27.4996 6.8401 -16.4311
v 37.8183 6.0451 -18.6316
v 3.1740 -28.1154 -3.4076
v 5.5646 -28.1154 -3.4076
v 2.8901 -19.6154 -3.1883
v 7.6984 -19.6154 -3.1883
v -33.6528 1.9318 9.6816
v -19.8231 2.0040 4.0363
v -3.1926 -4.1183 2.3487
v 8.9429 -3.2095 2.3487
v -33.6528 5.6617 9.6816
v -19.8231 5.9404 4.0363
v -4.5004 7.6565 3.5684
v 7.6537 6.6696 3.5684
v -33.6528 1.9318 14.1875
v -20.5004 2.4726 13.6613
v -4.5004 2.8196 14.1510
v 5.2392 2.3945 14.8406
v -45.8132 17.4835 26.0782
v -35.2800 12.1023 20.8921
v -20.5004 11.3730 19.8902
v -7.2301 10.7865 19.3762
v 5.2392 5.5956 14.8406
v -45.8132 21.8456 26.0782
v -36.5004 22.1977 25.9205
v -20.5004 21.7716 26.1191
v -10.8697 21.2775 26.3431
v -45.8132 17.4835 28.6203
v -36.5004 16.9328 29.0736
v -20.5004 17.3536 29.1057
v -10.8697 18.0446 28.6631
v -45.8132 21.8456 28.6203
v -36.5004 22.1977 29.0736
v -20.5004 21.7716 29.1057
v -10.8697 21.2775 28.6631
f 5 2 1
f 5 6 2
f 7 2 6
f 7 3 2
f 7 4 3
f 7 8 4
f 9 7 6
f 9 10 7
f 11 7 10
f 11 8 7
f 2 14 1
f 2 15 14
f 14 13 12
f 14 15 13
f 16 2 3
f 16 15 2
f 17 3 4
f 17 16 3
f 19 1 14
f 19 5 1
f 20 6 5
f 20 5 19
f 20 15 16
f 20 16 21
f 17 4 8
f 17 8 22
f 21 16 17
f 21 17 22
f 24 18 23
f 24 19 18
f 20 9 6
f 20 25 9
f 25 19 24
f 25 20 19
f 26 10 9
f 26 9 25
f 26 25 20
f 26 20 21
f 22 8 11
f 22 11 27
f 27 11 10
f 27 10 26
f 26 21 22
f 26 22 27
f 13 28 12
f 13 29 28
f 30 12 28
f 30 14 12
f 31 29 13
f 31 13 15
f 30 28 29
f 30 29 31
f 30 19 14
f 30 34 19
f 34 18 19
f 34 33 18
f 35 31 15
f 35 15 20
f 35 34 30
f 35 30 31
f 37 18 33
f 37 23 18
f 36 33 32
f 36 37 33
f 38 24 23
f 38 23 37
f 39 35 20
f 39 20 25
f 39 25 24
f 39 24 38
f 41 32 33
f 41 40 32
f 42 33 34
f 42 41 33
f 43 34 35
f 43 42 34
f 40 36 32
f 40 45 36
f 46 37 36
f 46 36 45
f 46 45 40
f 46 40 41
f 47 38 37
f 47 37 46
f 47 46 41
f 47 41 42
f 43 35 39
f 43 39 48
f 48 39 38
f 48 38 47
f 48 47 42
f 48 42 43
f 50 44 49
f 50 45 44
f 51 45 50
f 51 46 45
f 52 46 51
f 52 47 46
f 54 44 45
f 54 53 44
f 55 45 46
f 55 54 45
f 56 46 47
f 56 55 46
f 53 49 44
f 53 57 49
f 50 49 57
f 50 57 58
f 58 57 53
f 58 53 54
f 51 50 58
f 51 58 59
f 59 58 54
f 59 54 55
f 56 47 52
f 56 52 60
f 60 52 51
f 60 51 59
f 59 55 56
f 59 56 60
