# parsimony mesh: g6194_monomer (source /Users/eranagmon/code/v2e-molecules/workspace/studies/ecoli-3d/viz/3d/structures/g6194_monomer.pdb)
# atoms: 691  voxel: 4 Å  verts: 444  tris: 900
v 11.9383 9.5713 -23.7998
v 14.0878 9.5094 -23.8836
v 16.4718 9.6631 -23.8219
v 11.9383 10.0440 -23.7998
v 14.4804 11.5595 -23.8458
v 16.4548 11.8328 -23.7900
v 16.0755 13.8391 -23.6748
v 16.1932 13.8391 -23.6748
v 3.3243 -11.3868 -19.7945
v 6.0878 -11.2136 -19.8342
v 8.1760 -10.3428 -19.7611
v -0.5611 -7.2151 -20.2839
v 2.0297 -8.3960 -20.4259
v 6.1411 -8.3799 -20.1122
v 8.1760 -9.8550 -19.7611
v -0.5611 -5.3694 -20.2839
v 1.9821 -4.0886 -20.7036
v 5.1474 -4.1672 -20.4992
v 3.2449 -1.1848 -20.2574
v 6.0242 0.1029 -20.0725
v 8.3556 1.3906 -19.8877
v 6.8775 3.8328 -20.2416
v 9.8485 4.0686 -20.3421
v 13.0992 5.5591 -20.0249
v 7.2585 6.5642 -20.2112
v 10.3304 8.0677 -21.4514
v 14.2946 7.2604 -21.4810
v 17.9182 8.2303 -21.7564
v 20.5517 8.5212 -20.4838
v 11.4516 10.4307 -21.6652
v 14.4804 12.5659 -22.0227
v 17.5646 12.5861 -22.1837
v 20.8804 11.8328 -21.1256
v 16.0755 13.8391 -23.5944
v 17.8099 14.9783 -21.9602
v 20.9973 15.8328 -20.7346
v 19.7109 18.1955 -19.9625
v 20.7076 18.1955 -19.9625
v -0.4707 -14.4702 -16.1418
v 2.0878 -14.6835 -16.9855
v 6.0878 -14.6166 -16.8921
v 8.2828 -14.3810 -16.0172
v -1.2359 -12.1672 -16.8665
v 2.0297 -12.4990 -18.9965
v 6.0878 -13.2136 -18.8921
v 8.6714 -11.8726 -17.4764
v -4.4993 -7.3923 -16.4973
v -2.1732 -8.6370 -17.9771
v 0.6576 -9.8818 -19.4570
v 7.5100 -7.1883 -19.2826
v 9.8100 -8.1197 -17.5286
v 12.1770 -6.3843 -15.7746
v -4.4993 -5.2555 -16.4973
v -1.7754 -3.9791 -17.6475
v 0.5783 -2.7028 -18.7978
v 7.1474 -4.1672 -18.5041
v 9.7628 -4.4484 -16.4020
v 12.1770 -5.9691 -15.7746
v -0.9697 -0.1672 -16.3161
v 1.9821 0.0222 -18.3950
v 6.0242 0.1029 -18.9234
v 9.6175 0.2611 -17.0947
v 12.1161 1.7983 -15.6897
v -0.9115 2.9757 -16.0671
v 1.9768 4.1185 -16.7385
v 4.8775 3.8328 -18.7053
v 11.0223 2.8925 -18.3563
v 13.2379 4.0686 -17.2799
v 3.2361 6.6643 -16.0369
v 5.8025 7.9476 -17.4624
v 8.7224 9.2308 -18.8880
v 15.5042 6.1018 -17.6652
v 18.0878 6.3308 -17.6652
v 20.5933 8.0617 -17.6652
v 6.9946 11.8328 -16.3640
v 10.0686 11.7844 -18.0410
v 14.0878 13.0908 -18.7416
v 16.3776 13.5907 -19.4057
v 21.3583 11.8328 -17.6652
v 7.7048 14.2212 -16.0408
v 10.0878 14.6245 -16.2179
v 13.9503 15.8330 -16.8206
v 17.0224 15.8328 -18.8384
v 21.4835 15.8328 -17.6652
v 15.2693 19.8328 -16.1421
v 18.0358 19.4755 -17.3165
v 20.7185 18.2969 -17.6652
v 15.8923 21.9609 -15.8107
v 16.3607 21.9609 -15.8107
v -0.4264 -14.4087 -13.6652
v 1.7319 -14.5916 -13.7068
v 6.0878 -14.6166 -14.7626
v 8.2828 -14.3810 -15.0590
v -8.1445 -10.7141 -12.7681
v -5.9122 -11.2848 -13.3962
v -2.6475 -12.3332 -13.9882
v 2.8280 -13.4657 -12.4012
v 6.0878 -12.6463 -12.7626
v 8.6196 -11.7714 -13.7015
v -8.2430 -8.1672 -12.6346
v -5.8644 -8.5023 -14.7638
v -3.7853 -10.0590 -15.5369
v 10.7364 -7.8975 -13.7575
v 12.1770 -6.3843 -15.1524
v -8.1210 -5.8531 -11.8548
v -5.7809 -4.2210 -13.3981
v -2.9896 -2.5888 -14.9413
v 11.3451 -4.5176 -13.6529
v 12.5985 -4.5176 -13.6529
v -4.8392 -0.1672 -12.9324
v -2.9697 -0.1672 -14.9324
v 10.8794 -0.8683 -14.8201
v 13.9014 -0.0688 -13.5702
v 16.9252 0.7308 -12.3204
v -4.5367 3.8328 -12.7028
v -2.1118 4.1185 -14.8187
v 0.5695 5.6424 -15.5375
v 14.7669 3.8328 -14.9705
v 18.1903 3.8867 -13.3779
v 20.4101 5.2559 -12.7793
v -3.9926 6.0063 -11.9684
v -1.7283 7.5369 -12.7743
v 1.9768 7.9317 -14.7307
v 4.3465 9.3310 -15.2292
v 15.6317 6.0476 -15.4170
v 18.0878 6.2065 -15.3147
v 20.9031 7.6029 -13.9336
v -0.2724 10.0337 -12.0048
v 2.0878 10.3157 -12.5929
v 5.2943 11.6986 -13.8036
v 21.4379 11.8328 -13.6652
v 7.4019 14.3222 -13.6652
v 10.3075 16.2245 -13.6784
v 14.3011 17.4964 -13.3457
v 18.0878 17.1034 -12.4341
v 20.6786 15.6532 -13.8769
v 11.7873 18.0605 -12.3538
v 14.4725 19.0732 -13.5341
v 17.8516 19.5864 -14.4802
v 20.3090 18.0889 -15.3514
v 15.8923 21.9609 -15.3316
v 16.3607 21.9609 -15.3316
v -4.8926 -14.4010 -8.3561
v -1.7986 -14.2936 -9.9878
v 0.1613 -14.1862 -11.6195
v -8.0976 -10.6910 -9.6652
v -6.1004 -12.7521 -9.6797
v -1.7986 -13.5381 -9.9878
v 1.7319 -12.4397 -10.0377
v 6.0738 -10.5648 -10.0172
v 8.0896 -10.1742 -11.5852
v -8.6941 -8.1672 -9.6652
v 7.3979 -10.0581 -8.9185
v 9.0985 -8.5018 -10.0172
v -9.1216 -4.3787 -9.7448
v -7.0626 -3.1864 -11.1312
v 11.3498 -5.2203 -9.6652
v 12.9471 -3.2203 -9.6652
v -9.1325 -1.1473 -8.4645
v -6.9010 0.0447 -9.7448
v 14.9471 -1.2604 -9.6652
v 17.6444 0.7396 -9.6652
v -5.6498 3.8328 -9.6652
v 19.6444 2.4411 -9.6652
v 20.8698 4.4411 -9.6652
v -4.2767 6.2068 -9.6652
v -1.7283 8.2068 -9.6538
v 2.0878 9.3643 -8.3716
v 4.6254 9.7501 -7.9594
v 22.8093 8.0925 -9.4732
v 24.1672 9.5990 -8.0120
v -0.2724 10.0337 -10.9795
v 2.0878 10.3157 -10.3716
v 5.4689 11.6986 -9.4417
v 22.9600 11.8328 -9.9614
v 24.1603 11.8328 -7.9614
v 7.4110 14.5073 -9.6652
v 10.3075 16.5759 -9.5939
v 14.4813 17.0773 -9.5939
v 18.3700 16.6942 -9.4303
v 21.9244 15.4437 -9.1601
v 24.1051 14.0206 -7.7133
v 11.7873 18.0605 -10.8797
v 13.4102 18.0605 -10.8797
v 19.8914 17.9511 -7.9403
v 20.7579 17.9511 -7.9403
v -4.8926 -14.4010 -7.0841
v -3.5578 -14.4010 -7.0841
v -8.0123 -10.3774 -5.6652
v -6.1004 -12.2678 -5.7165
v -2.0996 -12.7049 -5.7165
v 1.9258 -10.7868 -6.0382
v 4.7312 -10.1911 -7.6202
v -8.6306 -8.1672 -5.6652
v 3.1511 -9.0662 -4.9535
v 6.0738 -9.3071 -6.0382
v 8.9049 -7.9178 -5.6652
v -9.1390 -4.2357 -5.5205
v -7.4667 -2.9480 -4.0908
v 10.9055 -4.0704 -5.6552
v 12.3013 -2.6725 -6.9819
v -9.1325 -1.1473 -6.7575
v -6.9671 0.0447 -5.5205
v 11.6945 -1.7605 -4.3153
v 13.8964 -0.1417 -5.6429
v 17.3259 1.4772 -6.9705
v -5.0778 3.8882 -5.5923
v -3.4586 5.2585 -4.2103
v 15.4915 2.4339 -4.3038
v 18.3920 3.4940 -5.5562
v 20.8082 4.5540 -6.8086
v -4.3177 6.1579 -6.8770
v -1.9235 7.7244 -5.6338
v 2.1396 9.2285 -5.7005
v 4.9457 9.4839 -5.6652
v 19.4580 7.0951 -4.1419
v 21.7902 8.3471 -5.8553
v 24.1672 9.5990 -7.5687
v -0.3883 10.0704 -4.3907
v 0.8408 10.0704 -4.3907
v 6.9517 11.7057 -5.7034
v 10.0878 12.5382 -4.7017
v 14.0878 12.4452 -4.6709
v 18.0878 12.1044 -4.9078
v 21.6985 11.4515 -5.7733
v 24.1603 11.8328 -7.5746
v 7.7171 14.4681 -7.0622
v 10.0878 15.0637 -6.7017
v 14.0878 14.8933 -6.6709
v 18.3700 15.6776 -6.9327
v 22.0899 15.5455 -7.3046
v 24.1051 14.0206 -7.6410
v 19.8914 17.9511 -7.4541
v 20.7579 17.9511 -7.4541
v -8.0308 -10.2961 -3.4641
v -5.9122 -10.6794 -3.2442
v -1.9122 -10.9904 -2.9309
v 0.4844 -10.7108 -3.0464
v -8.1796 -8.1672 -3.2392
v -5.9122 -8.1672 -2.4078
v -1.8704 -8.2028 -1.0288
v 1.9258 -8.4934 -1.6939
v 6.0010 -7.1239 -1.6562
v 8.5510 -7.2772 -2.9836
v -8.1502 -5.6147 -3.2983
v -6.0126 -4.2608 -1.7742
v -3.1758 -5.5736 -0.2502
v 7.2764 -5.6204 -0.3169
v 9.2539 -4.2392 -1.6562
v -5.1077 -0.0754 -1.6492
v -3.3791 1.3192 -0.3052
v 10.7557 -0.3232 -1.7345
v 12.8248 0.9061 -3.1140
v -4.3707 2.5919 -2.9719
v -2.7536 3.8882 -1.6492
v 11.0540 2.9270 -0.4473
v 14.1300 3.1765 -1.7345
v 16.9878 4.6918 -1.6652
v -0.9592 7.7430 -1.7832
v 2.1396 9.0817 -1.7832
v 6.0516 9.4369 -1.5132
v 10.0878 9.0132 -0.3999
v 14.0878 8.5197 -0.9654
v 18.0211 8.0228 -2.2381
v 20.1056 9.7618 -3.6436
v -0.3883 10.0704 -3.1952
v 0.8408 10.0704 -3.1952
v 7.3608 10.2877 -2.7452
v 10.0878 10.5382 -2.3999
v 14.0878 10.4452 -2.9654
v 18.0878 10.1044 -3.5246
v 20.1056 9.8641 -3.6436
v -0.6523 -7.5886 2.3348
v 2.0878 -7.9977 2.3348
v 4.6502 -6.5763 2.3348
v -4.5585 -2.9070 0.8281
v -1.7389 -4.1241 2.0983
v 0.4545 -2.6746 3.3686
v 6.6502 -4.8212 2.3348
v 8.5230 -2.8212 2.3348
v -4.5585 -1.3474 0.8281
v -1.9923 -0.0754 1.1555
v 1.2619 -0.1672 2.9907
v 7.1641 0.7200 3.5693
v 8.6157 -0.4349 2.2755
v -0.8042 3.8328 1.0565
v 2.4071 3.6321 3.0662
v 5.9336 3.6321 3.3165
v 9.8675 4.0893 1.2842
v 14.0878 5.0616 0.7634
v 16.5843 5.0436 0.7035
v -0.3012 6.3498 0.7897
v 2.0878 7.1809 1.3685
v 6.0878 7.6249 1.6361
v 10.0878 7.0132 1.0957
v 14.0878 6.5197 0.7634
v 16.5843 6.2837 0.7035
v -0.4917 -7.6613 6.3348
v 2.0878 -8.5371 6.3348
v 4.4780 -7.0430 6.3348
v -0.4444 -4.0716 6.4797
v 0.4545 -2.6746 5.2430
v 6.4742 -3.8185 6.0330
v 8.1278 -2.2527 4.4985
v -0.0266 -2.0073 7.9096
v 2.2039 -0.4843 6.2072
v 6.0212 -0.4539 5.8349
v 8.1278 -1.9466 4.4985
v 3.9533 2.1650 4.5047
v 4.4975 2.1650 4.5047
v 0.0392 -10.1848 12.1930
v 0.1279 -10.1848 12.1930
v -0.9144 -8.2609 10.6497
v 1.8107 -8.3491 10.4953
v 4.3801 -7.0416 8.7976
v -4.1413 -3.2874 12.0462
v -2.5538 -4.4393 10.5617
v 3.4935 -4.8594 11.4642
v 4.7431 -3.7826 10.2125
v -4.1413 -1.8274 12.0462
v -1.5808 -1.4897 10.5617
v 2.0878 -1.1583 10.3348
v 4.6877 -1.7503 10.3348
v 0.0392 -10.1848 12.4686
v 0.1279 -10.1848 12.4686
v -5.0369 -7.0119 15.0931
v -1.8893 -8.1923 13.7808
v 0.6394 -8.0906 14.0151
v -4.5891 -4.1358 14.2161
v -2.7288 -4.2855 14.2078
v 1.8608 -4.0162 13.9773
v 4.0973 -2.1928 12.3454
v -4.1413 -1.8274 13.3392
v -1.9122 -1.4402 13.5439
v 2.0878 -1.6827 12.7986
v 4.0973 -2.1506 12.3454
v -12.3705 -7.1824 20.0015
v -9.9122 -7.6957 19.2563
v -6.1870 -7.3814 18.0721
v -1.9122 -7.7168 18.3348
v 0.3239 -6.9662 18.3348
v -12.3705 -5.7534 20.0015
v -9.9122 -5.0611 19.2563
v -6.1870 -4.7085 18.0721
v -1.9122 -4.7264 18.3348
v 0.3239 -5.7540 18.3348
v -20.8361 -10.8392 23.3612
v -18.6037 -10.8392 23.3612
v -21.5374 -8.1672 23.3679
v -17.5271 -8.5481 23.2079
v -13.7872 -8.2686 22.3815
v -9.9122 -8.6498 22.3348
v -6.2317 -6.9265 21.9950
v -1.9122 -6.6792 20.5212
v 0.2623 -6.6937 20.4831
v -21.1552 -5.6923 24.0192
v -17.9122 -5.3089 23.6564
v -13.7872 -5.0314 22.3815
v -9.8323 -3.1965 22.2553
v -6.1895 -4.2098 21.9854
v -1.9122 -5.8595 20.5212
v 0.2623 -5.9440 20.4831
v -8.4457 -1.9177 23.5357
v -7.2676 -1.9177 23.5357
v -23.9192 -14.1712 28.2890
v -23.9057 -14.1712 28.2890
v -28.2038 -10.3617 28.1361
v -25.5164 -11.8839 27.6849
v -22.2326 -11.5981 26.6366
v -18.6037 -10.8392 25.2567
v -36.0728 -6.5164 28.1648
v -33.9122 -6.8402 27.9248
v -29.6871 -8.0961 27.7913
v -25.9122 -8.1672 26.3397
v -22.1967 -8.8071 26.1023
v -17.2907 -8.5645 26.7651
v -13.9122 -8.0326 25.7947
v -9.9122 -7.1213 24.8876
v -7.7781 -6.2536 24.3973
v -36.0728 -5.5951 28.1648
v -34.0131 -4.2240 27.8020
v -29.9122 -4.1672 27.4746
v -26.1119 -4.0139 27.3020
v -22.2731 -4.1353 26.0428
v -17.4986 -4.2617 26.6583
v -13.9122 -5.0579 25.7947
v -9.8323 -4.0814 24.9418
v -7.3281 -4.1672 24.5876
v -32.7470 -1.7536 27.9936
v -29.9122 -1.7836 28.0049
v -27.5784 -2.0694 28.2362
v -20.7243 -1.4158 27.7099
v -19.0196 -1.4158 27.7099
v -8.4457 -1.9177 24.6093
v -7.2676 -1.9177 24.6093
v -36.0989 -14.2597 32.2120
v -35.7828 -14.2597 32.2120
v -23.9192 -14.1712 28.3388
v -23.9057 -14.1712 28.3388
v -36.7215 -12.1672 31.5884
v -34.9886 -12.1672 31.5884
v -28.6892 -10.4389 30.3348
v -25.8012 -11.6817 29.8907
v -23.2799 -12.1672 28.6687
v -40.0797 -6.6362 32.1163
v -37.7720 -7.9097 30.4560
v -33.6509 -8.6809 30.2114
v -30.6892 -9.0474 30.3348
v -25.3440 -8.1672 31.3969
v -21.8103 -8.2631 29.4367
v -18.6443 -6.9936 28.7551
v -40.4251 -4.1672 31.5753
v -37.6086 -4.2240 29.9554
v -34.2239 -2.9887 30.5488
v -29.9122 -3.5991 31.0257
v -26.1476 -4.2198 30.2591
v -21.9994 -4.0139 29.4624
v -18.2919 -4.1672 29.0130
v -40.4285 -1.0184 31.5406
v -37.9122 -1.2483 31.5244
v -34.2239 -1.9222 30.5488
v -29.9122 -1.7836 29.0257
v -27.5784 -2.0694 28.5417
v -20.7243 -1.4158 28.8188
v -19.0196 -1.4158 28.8188
v -36.0989 -14.2597 32.5340
v -35.7828 -14.2597 32.5340
v -36.7215 -12.1672 32.9677
v -34.9886 -12.1672 32.9677
v -28.6566 -10.3350 32.7091
v -27.6832 -10.3350 32.7091
v -40.0797 -6.6362 32.6728
v -38.0476 -8.0486 33.4125
v -33.6509 -8.1425 33.2960
v -29.9588 -8.1425 32.7582
v -27.3440 -8.1672 32.7563
v -40.4251 -4.1672 33.0058
v -37.9122 -4.1672 33.6626
v -34.1854 -4.2963 32.9464
v -29.9122 -5.5991 32.5833
v -27.3836 -5.8612 32.5225
v -40.4285 -1.0184 32.8915
v -37.9122 -1.2483 32.7989
v -35.7008 -2.0909 32.3969
f 4 2 1
f 4 5 2
f 5 3 2
f 5 6 3
f 7 6 5
f 7 8 6
f 14 9 13
f 14 10 9
f 15 10 14
f 15 11 10
f 16 13 12
f 16 17 13
f 18 13 17
f 18 14 13
f 19 18 17
f 19 20 18
f 22 21 20
f 22 23 21
f 25 23 22
f 25 26 23
f 27 1 2
f 27 26 1
f 26 24 23
f 26 27 24
f 3 27 2
f 3 28 27
f 30 1 26
f 30 4 1
f 5 4 30
f 5 30 31
f 32 28 3
f 32 3 6
f 33 28 32
f 33 29 28
f 31 7 5
f 31 34 7
f 32 6 8
f 32 8 35
f 8 7 34
f 8 34 35
f 34 31 32
f 34 32 35
f 35 33 32
f 35 36 33
f 37 36 35
f 37 38 36
f 43 40 39
f 43 44 40
f 45 9 10
f 45 44 9
f 45 40 44
f 45 41 40
f 46 10 11
f 46 45 10
f 45 42 41
f 45 46 42
f 49 9 44
f 49 13 9
f 49 12 13
f 49 48 12
f 49 43 48
f 49 44 43
f 46 11 15
f 46 15 51
f 15 14 50
f 15 50 51
f 48 16 12
f 48 54 16
f 53 48 47
f 53 54 48
f 55 17 16
f 55 16 54
f 50 14 18
f 50 18 56
f 57 50 56
f 57 51 50
f 57 52 51
f 57 58 52
f 55 19 17
f 55 60 19
f 59 55 54
f 59 60 55
f 61 56 18
f 61 18 20
f 61 20 19
f 61 19 60
f 21 61 20
f 21 62 61
f 62 56 61
f 62 57 56
f 64 60 59
f 64 65 60
f 61 22 20
f 61 66 22
f 66 60 65
f 66 61 60
f 67 62 21
f 67 21 23
f 24 67 23
f 24 68 67
f 67 63 62
f 67 68 63
f 66 25 22
f 66 70 25
f 69 66 65
f 69 70 66
f 71 26 25
f 71 25 70
f 72 68 24
f 72 24 27
f 28 72 27
f 28 73 72
f 29 73 28
f 29 74 73
f 71 30 26
f 71 76 30
f 75 71 70
f 75 76 71
f 77 31 30
f 77 30 76
f 78 32 31
f 78 31 77
f 79 74 29
f 79 29 33
f 80 76 75
f 80 81 76
f 81 77 76
f 81 82 77
f 78 35 32
f 78 83 35
f 83 77 82
f 83 78 77
f 79 33 36
f 79 36 84
f 83 37 35
f 83 86 37
f 85 83 82
f 85 86 83
f 84 36 38
f 84 38 87
f 87 38 37
f 87 37 86
f 89 85 88
f 89 86 85
f 91 39 40
f 91 90 39
f 92 40 41
f 92 91 40
f 42 92 41
f 42 93 92
f 96 39 90
f 96 43 39
f 97 91 92
f 97 92 98
f 99 93 42
f 99 42 46
f 98 92 93
f 98 93 99
f 101 94 100
f 101 95 94
f 102 43 96
f 102 48 43
f 102 47 48
f 102 101 47
f 102 95 101
f 102 96 95
f 99 46 51
f 99 51 103
f 52 103 51
f 52 104 103
f 101 53 47
f 101 106 53
f 105 101 100
f 105 106 101
f 107 54 53
f 107 53 106
f 104 52 58
f 104 58 109
f 58 57 108
f 58 108 109
f 108 103 104
f 108 104 109
f 107 59 54
f 107 111 59
f 110 107 106
f 110 111 107
f 112 108 57
f 112 57 62
f 63 112 62
f 63 113 112
f 112 109 108
f 112 113 109
f 111 64 59
f 111 116 64
f 115 111 110
f 115 116 111
f 117 65 64
f 117 64 116
f 118 113 63
f 118 63 68
f 118 114 113
f 118 119 114
f 121 116 115
f 121 122 116
f 117 69 65
f 117 123 69
f 122 117 116
f 122 123 117
f 124 70 69
f 124 69 123
f 118 68 72
f 118 72 125
f 73 125 72
f 73 126 125
f 125 119 118
f 125 126 119
f 74 126 73
f 74 127 126
f 126 120 119
f 126 127 120
f 128 123 122
f 128 129 123
f 124 75 70
f 124 130 75
f 129 124 123
f 129 130 124
f 131 127 74
f 131 74 79
f 132 75 130
f 132 80 75
f 81 80 132
f 81 132 133
f 82 81 133
f 82 133 134
f 136 131 79
f 136 79 84
f 134 85 82
f 134 138 85
f 137 134 133
f 137 138 134
f 138 134 135
f 138 135 139
f 140 136 84
f 140 84 87
f 140 87 86
f 140 86 139
f 140 139 135
f 140 135 136
f 141 85 138
f 141 88 85
f 139 86 89
f 139 89 142
f 89 88 141
f 89 141 142
f 141 138 139
f 141 139 142
f 145 90 91
f 145 144 90
f 147 94 95
f 147 146 94
f 148 90 144
f 148 96 90
f 96 147 95
f 96 148 147
f 148 143 147
f 148 144 143
f 145 91 97
f 145 97 149
f 148 144 145
f 148 145 149
f 150 97 98
f 150 149 97
f 151 98 99
f 151 150 98
f 146 100 94
f 146 152 100
f 151 99 103
f 151 103 154
f 153 150 151
f 153 151 154
f 152 105 100
f 152 155 105
f 156 106 105
f 156 105 155
f 157 154 103
f 157 103 108
f 109 157 108
f 109 158 157
f 156 110 106
f 156 160 110
f 159 156 155
f 159 160 156
f 158 109 113
f 158 113 161
f 114 161 113
f 114 162 161
f 163 110 160
f 163 115 110
f 164 162 114
f 164 114 119
f 120 164 119
f 120 165 164
f 163 121 115
f 163 166 121
f 167 122 121
f 167 121 166
f 170 165 120
f 170 120 127
f 167 128 122
f 167 172 128
f 129 128 172
f 129 172 173
f 172 167 168
f 172 168 173
f 174 130 129
f 174 129 173
f 173 168 169
f 173 169 174
f 170 127 131
f 170 131 175
f 175 171 170
f 175 176 171
f 174 132 130
f 174 177 132
f 133 132 177
f 133 177 178
f 135 134 179
f 135 179 180
f 181 175 131
f 181 131 136
f 136 135 180
f 136 180 181
f 182 175 181
f 182 176 175
f 178 137 133
f 178 183 137
f 184 179 134
f 184 134 138
f 184 138 137
f 184 137 183
f 183 178 179
f 183 179 184
f 186 180 185
f 186 181 180
f 188 143 144
f 188 187 143
f 187 147 143
f 187 190 147
f 190 146 147
f 190 189 146
f 188 144 148
f 188 148 191
f 191 190 187
f 191 187 188
f 149 191 148
f 149 192 191
f 193 149 150
f 193 192 149
f 189 152 146
f 189 194 152
f 193 150 153
f 193 153 196
f 195 192 193
f 195 193 196
f 197 153 154
f 197 196 153
f 194 155 152
f 194 198 155
f 197 154 157
f 197 157 200
f 201 157 158
f 201 200 157
f 198 159 155
f 198 202 159
f 203 160 159
f 203 159 202
f 202 198 199
f 202 199 203
f 201 158 161
f 201 161 205
f 204 200 201
f 204 201 205
f 206 161 162
f 206 205 161
f 203 163 160
f 203 207 163
f 206 162 164
f 206 164 210
f 209 205 206
f 209 206 210
f 211 164 165
f 211 210 164
f 212 163 207
f 212 166 163
f 167 166 212
f 167 212 213
f 212 207 208
f 212 208 213
f 168 167 213
f 168 213 214
f 169 168 214
f 169 214 215
f 211 165 170
f 211 170 217
f 216 210 211
f 216 211 217
f 218 170 171
f 218 217 170
f 219 214 213
f 219 220 214
f 221 169 215
f 221 174 169
f 218 171 176
f 218 176 226
f 225 217 218
f 225 218 226
f 227 174 221
f 227 177 174
f 228 178 177
f 228 177 227
f 227 221 222
f 227 222 228
f 229 179 178
f 229 178 228
f 229 228 222
f 229 222 223
f 230 180 179
f 230 179 229
f 229 223 224
f 229 224 230
f 230 224 225
f 230 225 231
f 226 176 182
f 226 182 232
f 182 181 231
f 182 231 232
f 232 231 225
f 232 225 226
f 233 180 230
f 233 185 180
f 231 181 186
f 231 186 234
f 186 185 233
f 186 233 234
f 233 230 231
f 233 231 234
f 236 189 190
f 236 235 189
f 191 236 190
f 191 237 236
f 238 191 192
f 238 237 191
f 235 194 189
f 235 239 194
f 240 239 235
f 240 235 236
f 240 236 237
f 240 237 241
f 238 192 195
f 238 195 242
f 241 237 238
f 241 238 242
f 243 195 196
f 243 242 195
f 244 196 197
f 244 243 196
f 245 194 239
f 245 198 194
f 199 198 245
f 199 245 246
f 245 239 240
f 245 240 246
f 247 246 240
f 247 240 241
f 244 197 200
f 244 200 249
f 248 243 244
f 248 244 249
f 250 199 246
f 250 203 199
f 249 200 204
f 249 204 252
f 253 204 205
f 253 252 204
f 254 203 250
f 254 207 203
f 208 207 254
f 208 254 255
f 254 250 251
f 254 251 255
f 253 205 209
f 253 209 257
f 256 252 253
f 256 253 257
f 258 209 210
f 258 257 209
f 259 208 255
f 259 213 208
f 215 214 260
f 215 260 261
f 258 210 216
f 258 216 264
f 265 216 217
f 265 264 216
f 259 219 213
f 259 266 219
f 267 260 214
f 267 214 220
f 220 219 266
f 220 266 267
f 266 259 260
f 266 260 267
f 268 215 261
f 268 221 215
f 222 221 268
f 222 268 269
f 268 261 262
f 268 262 269
f 270 223 222
f 270 222 269
f 269 262 263
f 269 263 270
f 224 223 270
f 224 270 271
f 270 263 264
f 270 264 271
f 265 217 225
f 265 225 272
f 272 225 224
f 272 224 271
f 271 264 265
f 271 265 272
f 242 273 241
f 242 274 273
f 275 242 243
f 275 274 242
f 273 247 241
f 273 277 247
f 247 276 246
f 247 277 276
f 275 243 248
f 275 248 279
f 280 248 249
f 280 279 248
f 276 250 246
f 276 281 250
f 251 250 281
f 251 281 282
f 282 281 276
f 282 276 277
f 282 277 278
f 282 278 283
f 280 249 252
f 280 252 285
f 286 251 282
f 286 255 251
f 286 282 283
f 286 283 287
f 285 252 256
f 285 256 289
f 289 288 284
f 289 284 285
f 290 256 257
f 290 289 256
f 258 290 257
f 258 291 290
f 292 255 286
f 292 259 255
f 293 260 259
f 293 259 292
f 293 292 286
f 293 286 287
f 261 260 293
f 261 293 294
f 293 287 288
f 293 288 294
f 262 261 294
f 262 294 295
f 294 288 289
f 294 289 295
f 263 262 295
f 263 295 296
f 295 289 290
f 295 290 296
f 297 291 258
f 297 258 264
f 297 264 263
f 297 263 296
f 297 296 290
f 297 290 291
f 274 298 273
f 274 299 298
f 300 274 275
f 300 299 274
f 301 273 298
f 301 277 273
f 278 277 301
f 278 301 302
f 303 300 275
f 303 275 279
f 304 279 280
f 304 303 279
f 302 283 278
f 302 306 283
f 305 302 301
f 305 306 302
f 308 304 280
f 308 280 285
f 308 285 284
f 308 284 307
f 308 307 303
f 308 303 304
f 309 283 306
f 309 287 283
f 310 307 284
f 310 284 288
f 288 287 309
f 288 309 310
f 309 306 307
f 309 307 310
f 314 298 299
f 314 313 298
f 313 312 311
f 313 314 312
f 315 299 300
f 315 314 299
f 317 298 313
f 317 301 298
f 315 300 303
f 315 303 319
f 318 314 315
f 318 315 319
f 317 305 301
f 317 321 305
f 320 317 316
f 320 321 317
f 322 306 305
f 322 305 321
f 323 319 303
f 323 303 307
f 323 307 306
f 323 306 322
f 312 324 311
f 312 325 324
f 324 313 311
f 324 327 313
f 328 325 312
f 328 312 314
f 328 327 324
f 328 324 325
f 327 317 313
f 327 330 317
f 330 316 317
f 330 329 316
f 330 326 329
f 330 327 326
f 328 314 318
f 328 318 331
f 332 318 319
f 332 331 318
f 333 316 329
f 333 320 316
f 334 321 320
f 334 320 333
f 333 329 330
f 333 330 334
f 335 322 321
f 335 321 334
f 334 330 331
f 334 331 335
f 332 319 323
f 332 323 336
f 336 323 322
f 336 322 335
f 335 331 332
f 335 332 336
f 340 326 327
f 340 339 326
f 328 340 327
f 328 341 340
f 342 338 337
f 342 343 338
f 344 326 339
f 344 329 326
f 343 339 338
f 343 344 339
f 345 330 329
f 345 329 344
f 346 341 328
f 346 328 331
f 346 331 330
f 346 330 345
f 349 348 347
f 349 350 348
f 352 337 338
f 352 351 337
f 353 338 339
f 353 352 338
f 354 339 340
f 354 353 339
f 341 354 340
f 341 355 354
f 357 349 356
f 357 350 349
f 358 337 351
f 358 342 337
f 358 350 357
f 358 351 350
f 359 343 342
f 359 342 358
f 360 344 343
f 360 343 359
f 361 345 344
f 361 344 360
f 361 360 353
f 361 353 354
f 355 341 346
f 355 346 362
f 346 345 361
f 346 361 362
f 362 361 354
f 362 354 355
f 364 359 363
f 364 360 359
f 368 366 365
f 368 369 366
f 370 347 348
f 370 369 347
f 374 367 373
f 374 368 367
f 375 347 369
f 375 349 347
f 375 368 374
f 375 369 368
f 370 348 350
f 370 350 376
f 375 369 370
f 375 370 376
f 377 350 351
f 377 376 350
f 378 351 352
f 378 377 351
f 379 352 353
f 379 378 352
f 380 372 371
f 380 381 372
f 382 372 381
f 382 373 372
f 383 373 382
f 383 374 373
f 375 356 349
f 375 384 356
f 384 374 383
f 384 375 374
f 385 357 356
f 385 356 384
f 386 358 357
f 386 357 385
f 386 385 376
f 386 376 377
f 387 359 358
f 387 358 386
f 386 377 378
f 386 378 387
f 379 353 360
f 379 360 388
f 387 378 379
f 387 379 388
f 389 382 381
f 389 390 382
f 391 382 390
f 391 383 382
f 392 385 384
f 392 393 385
f 387 363 359
f 387 394 363
f 388 360 364
f 388 364 395
f 364 363 394
f 364 394 395
f 394 387 388
f 394 388 395
f 366 398 365
f 366 399 398
f 400 397 396
f 400 401 397
f 398 368 365
f 398 403 368
f 403 367 368
f 403 402 367
f 404 399 366
f 404 366 369
f 404 403 398
f 404 398 399
f 407 371 372
f 407 406 371
f 407 400 406
f 407 401 400
f 408 367 402
f 408 373 367
f 408 372 373
f 408 407 372
f 404 369 375
f 404 375 410
f 409 403 404
f 409 404 410
f 411 375 376
f 411 410 375
f 413 371 406
f 413 380 371
f 413 405 412
f 413 406 405
f 414 381 380
f 414 380 413
f 417 384 383
f 417 383 416
f 417 416 409
f 417 409 410
f 411 376 385
f 411 385 418
f 417 410 411
f 417 411 418
f 420 412 419
f 420 413 412
f 414 389 381
f 414 421 389
f 421 413 420
f 421 414 413
f 422 390 389
f 422 389 421
f 421 414 415
f 421 415 422
f 423 416 383
f 423 383 391
f 423 391 390
f 423 390 422
f 423 422 415
f 423 415 416
f 417 392 384
f 417 424 392
f 418 385 393
f 418 393 425
f 393 392 424
f 393 424 425
f 424 417 418
f 424 418 425
f 397 426 396
f 397 427 426
f 428 396 426
f 428 400 396
f 429 427 397
f 429 397 401
f 428 426 427
f 428 427 429
f 431 402 403
f 431 430 402
f 433 400 428
f 433 406 400
f 433 405 406
f 433 432 405
f 434 429 401
f 434 401 407
f 434 433 428
f 434 428 429
f 430 408 402
f 430 435 408
f 408 434 407
f 408 435 434
f 431 403 409
f 431 409 436
f 436 435 430
f 436 430 431
f 437 405 432
f 437 412 405
f 438 437 432
f 438 432 433
f 439 438 433
f 439 433 434
f 415 414 439
f 415 439 440
f 440 439 434
f 440 434 435
f 441 436 409
f 441 409 416
f 441 416 415
f 441 415 440
f 441 440 435
f 441 435 436
f 442 412 437
f 442 419 412
f 443 420 419
f 443 419 442
f 443 442 437
f 443 437 438
f 444 439 414
f 444 414 421
f 444 421 420
f 444 420 443
f 444 443 438
f 444 438 439
