# parsimony mesh: g6194_monomer (source /Users/eranagmon/code/v2e-abund/workspace/studies/ecoli-3d/viz/3d/structures/g6194_monomer.pdb)
# atoms: 691  voxel: 16 Å  verts: 36  tris: 62
v -2.2599 -8.6580 -17.5887
v 4.6052 -8.6580 -17.5887
v -2.0613 1.8328 -17.5078
v 9.1983 0.7242 -18.8124
v 17.8729 5.3185 -18.4538
v -0.4300 10.3341 -16.1985
v 8.0878 13.3301 -18.1566
v 17.8729 13.9945 -18.4538
v -3.4370 -9.4745 -7.6652
v 5.4875 -9.4745 -7.6652
v -4.3412 1.8328 -7.6652
v 13.4875 -2.2396 -7.6652
v 17.7075 5.7604 -7.6652
v -0.8164 10.6729 -7.6652
v 8.0878 14.0935 -7.6652
v 17.7075 13.2533 -7.6652
v -3.9705 -8.5268 8.3348
v 2.9729 -8.5268 8.3348
v -3.5715 1.1016 7.2669
v 7.3445 2.0990 6.2746
v 16.4622 8.9172 0.6610
v -0.6000 10.4516 1.2216
v 8.0878 10.5961 1.2445
v 16.4622 10.2318 0.6610
v -33.9681 -7.8361 30.8213
v -27.3923 -7.8361 30.8213
v -2.9712 -7.3944 17.9061
v 1.2523 -7.3944 17.9061
v -33.9681 -4.7145 30.8213
v -27.3923 -4.7145 30.8213
v -2.9712 -4.7192 17.9061
v 1.2523 -4.7192 17.9061
v -33.9681 -7.8361 33.4285
v -27.3923 -7.8361 33.4285
v -33.9681 -4.7145 33.4285
v -27.3923 -4.7145 33.4285
f 3 2 1
f 3 4 2
f 6 4 3
f 6 7 4
f 7 5 4
f 7 8 5
f 10 1 2
f 10 9 1
f 11 1 9
f 11 3 1
f 12 10 2
f 12 2 4
f 5 12 4
f 5 13 12
f 11 6 3
f 11 14 6
f 15 7 6
f 15 6 14
f 16 13 5
f 16 5 8
f 16 8 7
f 16 7 15
f 18 9 10
f 18 17 9
f 19 9 17
f 19 11 9
f 20 18 10
f 20 10 12
f 21 12 13
f 21 20 12
f 22 11 19
f 22 14 11
f 23 15 14
f 23 14 22
f 22 19 20
f 22 20 23
f 21 13 16
f 21 16 24
f 24 16 15
f 24 15 23
f 23 20 21
f 23 21 24
f 28 17 18
f 28 27 17
f 29 26 25
f 29 30 26
f 31 17 27
f 31 19 17
f 32 28 18
f 32 18 20
f 32 20 19
f 32 19 31
f 31 27 28
f 31 28 32
f 26 33 25
f 26 34 33
f 33 29 25
f 33 35 29
f 34 26 30
f 34 30 36
f 30 29 35
f 30 35 36
