# parsimony mesh: g6359_monomer (source /Users/eranagmon/code/v2e-abund/workspace/studies/ecoli-3d/viz/3d/structures/g6359_monomer.pdb)
# atoms: 2347  voxel: 8 Å  verts: 249  tris: 492
v 19.8886 3.6128 -30.4538
v 23.7585 3.6128 -30.4538
v 12.4489 11.1417 -30.5843
v 17.3058 8.5747 -30.6780
v 23.2761 8.7241 -30.3976
v 12.4489 13.8594 -30.5843
v 17.4316 13.6865 -30.4955
v 21.5640 12.8721 -30.0608
v -2.9931 -4.3845 -22.1719
v -2.2102 -4.3845 -22.1719
v 12.3871 -4.7077 -22.7855
v 17.4316 -5.1638 -23.5854
v 25.4316 -4.5704 -23.3398
v 30.8371 -3.9165 -22.4581
v -4.0300 0.7241 -22.6841
v 0.8465 1.4959 -22.5582
v 9.6049 1.4959 -23.5811
v 17.3058 0.8573 -27.5671
v 26.0278 0.8573 -27.7417
v 31.5444 0.7241 -24.1809
v -5.0900 8.7241 -23.1749
v 1.4316 8.7241 -23.5154
v 9.6420 8.5747 -26.5524
v 14.5553 5.8084 -29.1490
v 26.7305 8.8340 -26.6511
v 30.8432 6.2406 -24.4342
v -4.1390 16.7241 -22.7561
v 1.4316 16.7241 -23.1156
v 9.6420 16.6053 -26.2587
v 17.5544 17.4053 -25.9711
v 22.3100 13.7242 -25.9765
v -2.8246 20.9833 -22.1662
v 1.4316 20.9380 -22.1573
v 9.4316 21.3771 -23.0083
v 14.9695 21.5687 -23.3009
v -11.1397 -11.8354 -14.7833
v -6.5684 -11.8868 -15.6226
v 1.4316 -11.6716 -15.3451
v 6.5349 -11.5485 -14.4133
v 27.8744 -11.9158 -15.1528
v 33.4316 -12.2366 -15.4086
v 37.9613 -11.9170 -14.7096
v -11.1651 -7.2759 -14.8009
v -6.0232 -7.1410 -18.6688
v 0.8465 -7.1410 -18.8840
v 9.4610 -7.5476 -17.3721
v 17.4316 -7.3505 -17.9765
v 25.2973 -8.1939 -17.8823
v 33.7750 -6.5867 -17.5979
v 37.9613 -9.2569 -14.7096
v -12.3434 0.7241 -15.5673
v -8.0300 0.7241 -19.5673
v 3.1231 -0.6562 -20.3310
v 7.0538 -0.6562 -20.3310
v 34.0217 0.7241 -17.9765
v -12.7108 6.5737 -15.8052
v -8.7817 9.0339 -18.2737
v 27.8038 11.5739 -20.4644
v 31.5046 8.8340 -17.8693
v -4.8210 17.0852 -18.0218
v -1.7870 19.9926 -15.3854
v 20.3028 19.2429 -19.7905
v 24.7833 16.4924 -17.4608
v 30.1198 13.7420 -15.1311
v -2.8246 20.9833 -20.7187
v 1.1005 21.3249 -18.0218
v 9.4316 21.9565 -17.9765
v 17.5544 21.3811 -17.4649
v 21.7627 20.9181 -14.4572
v -11.3513 -12.3857 -9.9765
v -6.5684 -13.9537 -9.9765
v 1.4316 -13.5940 -9.9765
v 9.2936 -12.1332 -9.9039
v 17.4316 -11.9460 -7.7827
v 25.2973 -11.9426 -9.8941
v 32.6375 -12.0483 -10.3190
v 37.9613 -11.9170 -13.2140
v -12.8874 -7.2759 -9.9765
v 11.8682 -10.3875 -12.5222
v 17.4316 -9.4626 -11.7827
v 22.5410 -9.7466 -12.5058
v 33.8373 -6.8645 -10.3190
v 37.9613 -9.2569 -13.2140
v -14.6787 0.7241 -9.9765
v 32.0851 0.7241 -9.9765
v -13.1425 7.2448 -9.9765
v -8.8854 11.2448 -9.9765
v 27.8775 10.4749 -7.5666
v 30.7675 8.1746 -10.1306
v -5.1336 17.0852 -10.3530
v -1.7870 19.9926 -13.2706
v 12.2239 19.7248 -8.4613
v 17.4316 18.7077 -9.6168
v 24.8201 16.3885 -10.6227
v 30.1198 13.7420 -12.9000
v -3.7543 21.9259 -7.9373
v 1.1005 22.5528 -10.3530
v 9.5070 21.8656 -10.6674
v 17.4316 20.9119 -13.6168
v 21.7627 20.9181 -13.6788
v -11.0409 -12.1962 -5.2162
v -6.0024 -13.0740 -2.3203
v 1.4316 -13.7388 -1.9765
v 9.4316 -13.0956 -1.9765
v 17.1979 -12.2862 -2.3351
v 25.4316 -11.6293 -5.4193
v 29.4414 -11.2822 -5.9694
v -12.6408 -7.1735 -2.3203
v -8.2917 -9.7720 0.1171
v 19.0944 -7.2759 -0.3097
v 25.4316 -7.2759 -4.2710
v 29.4778 -7.2759 -5.9379
v -14.6903 0.7241 -1.9765
v 20.0382 -1.7121 0.8435
v 24.8933 0.8624 -1.7631
v 29.6078 0.7241 -5.8249
v -12.4541 7.8565 -1.9765
v -9.6381 11.8565 -1.9765
v 20.0241 11.4154 0.8585
v 24.8726 8.2785 -2.4800
v 29.6147 5.1415 -5.8186
v -5.7358 16.7392 -1.6882
v 1.4316 19.4440 0.9413
v 9.5070 18.7818 -1.5307
v 17.3871 14.8074 -1.8755
v 22.5442 13.7016 -4.4748
v -3.7543 21.9259 -4.1626
v 1.4316 22.4728 -3.0587
v 6.8905 21.8539 -3.9001
v -2.9584 -11.5169 4.1717
v 1.4316 -11.8164 5.0607
v 9.4316 -12.2284 5.1598
v 14.3753 -12.0663 4.3040
v -11.5602 -4.4831 6.0235
v -6.0024 -8.9634 6.5124
v 1.4316 -10.8022 9.0607
v 9.4316 -10.6443 9.1598
v 15.2245 -7.8712 6.5918
v -18.7703 4.1113 9.4846
v -15.2966 1.1564 6.5001
v 18.4843 0.8624 5.6720
v 21.8677 3.6213 2.7711
v -18.7703 6.1371 9.4846
v -14.8824 9.4299 5.7548
v -10.5654 12.7227 2.0250
v 12.7477 12.0185 8.9361
v 17.2495 9.0503 5.8536
v 21.8677 6.0821 2.7711
v -12.6385 13.5980 7.3584
v -7.3666 15.0989 5.2244
v 1.4316 17.5206 6.0235
v 9.8213 15.2073 6.1710
v 14.6908 13.5515 3.6028
v -21.0941 -19.7664 17.4928
v -18.1211 -19.7664 17.4928
v -21.9604 -15.2759 16.6433
v -17.3577 -15.2759 16.6433
v -21.0248 -7.2759 16.0234
v -14.0673 -6.8023 14.0234
v -6.5684 -7.2825 14.0235
v 1.4868 -6.7489 14.1500
v 9.4316 -6.6443 11.8397
v 14.2028 -5.6014 10.9008
v -19.4673 1.1564 14.0092
v -16.0665 -1.2220 11.3330
v 4.1902 -0.8959 16.9011
v 9.0551 1.3521 15.9530
v 14.7925 0.7241 12.2772
v -18.7332 5.8265 14.0235
v -16.3136 9.8265 14.0235
v 3.9971 10.2274 16.5242
v 9.4426 8.4563 14.3376
v 14.4750 6.6852 12.1511
v -12.3136 13.5617 14.0235
v -6.5684 15.9711 14.0235
v 1.3709 15.2776 13.9239
v 7.4144 13.7674 11.1909
v -35.1303 -27.6367 25.5460
v -33.9462 -27.6367 25.5460
v -35.6779 -23.2759 25.1278
v -30.9951 -22.9052 23.8119
v -23.5836 -19.8790 21.0748
v -18.1211 -19.7664 18.6180
v -35.4858 -18.9563 25.3067
v -30.5684 -18.5217 23.6170
v -23.7230 -16.6962 20.9283
v -17.3577 -15.2759 18.9759
v -21.0248 -7.2759 19.1250
v -14.6682 -7.2394 19.8690
v -6.3880 -4.8538 22.1878
v -1.2309 -4.2938 22.0235
v -19.5405 0.7241 18.6310
v -14.5684 0.7241 20.0987
v -7.7414 0.7241 23.4912
v 1.9731 1.3521 21.2746
v 6.1375 4.4374 18.1087
v -18.5862 4.7810 18.0402
v -13.9225 7.9582 18.3156
v -6.0872 8.5218 22.3835
v 0.9406 7.9739 21.4644
v 6.1375 4.8941 18.1087
v -10.8253 12.9671 18.1440
v -6.5684 14.0215 19.2113
v -1.3363 14.2111 19.4867
v -43.8747 -28.9740 32.9078
v -38.1055 -28.5174 30.1540
v -34.0970 -27.5542 30.0235
v -43.8747 -25.9573 32.9078
v -37.9747 -23.9427 29.7801
v -31.5875 -23.6265 29.2699
v -26.0731 -19.9915 26.5539
v -35.4858 -18.9563 26.6525
v -30.5684 -18.5217 26.8931
v -26.0731 -18.5900 26.5539
v -3.6011 -3.5465 26.2508
v -2.2103 -3.5465 26.2508
v -3.7414 0.7241 26.4576
v -1.9605 0.7241 26.4576
v -3.0997 5.7203 26.3749
v -2.1159 5.7203 26.3749
v -66.6185 -43.3154 41.9892
v -65.8671 -43.3154 41.9892
v -66.6185 -43.1726 41.9892
v -62.3961 -39.9943 41.9196
v -54.5684 -37.2991 40.4555
v -49.5155 -36.4333 40.1064
v -58.9251 -35.1160 41.8499
v -54.5684 -33.4124 40.4555
v -46.6951 -30.9626 37.8750
v -38.5684 -28.5572 35.2443
v -34.5621 -27.2861 34.0312
v -43.8747 -25.9573 35.6435
v -38.5684 -26.2761 35.2443
v -34.5621 -27.2614 34.0312
v -66.6185 -43.3154 42.2468
v -65.8671 -43.3154 42.2468
v -66.6185 -43.1726 42.2468
v -62.0165 -39.4133 44.4049
v -54.5684 -38.0673 46.0235
v -49.6980 -36.7493 46.0235
v -59.1286 -35.1098 46.0235
v -54.5684 -33.2981 46.0235
v -49.6980 -33.4641 46.0235
v -58.9586 -35.4929 50.0938
v -54.5684 -36.0440 50.1222
v -50.4607 -36.0830 50.0847
v -58.9586 -35.2144 50.0938
v -54.5684 -35.1615 50.1222
v -50.4607 -35.1848 50.0847
f 5 1 4
f 5 2 1
f 7 3 6
f 7 4 3
f 8 4 7
f 8 5 4
f 15 10 9
f 15 16 10
f 18 11 17
f 18 12 11
f 19 1 2
f 19 18 1
f 18 13 12
f 18 19 13
f 20 13 19
f 20 14 13
f 21 16 15
f 21 22 16
f 22 17 16
f 22 23 17
f 24 1 18
f 24 4 1
f 24 3 4
f 24 23 3
f 24 17 23
f 24 18 17
f 25 19 2
f 25 2 5
f 26 19 25
f 26 20 19
f 27 22 21
f 27 28 22
f 23 6 3
f 23 29 6
f 29 22 28
f 29 23 22
f 30 7 6
f 30 6 29
f 31 25 5
f 31 5 8
f 31 8 7
f 31 7 30
f 32 28 27
f 32 33 28
f 34 28 33
f 34 29 28
f 35 29 34
f 35 30 29
f 43 37 36
f 43 44 37
f 45 9 10
f 45 44 9
f 44 38 37
f 44 45 38
f 45 39 38
f 45 46 39
f 47 11 12
f 47 46 11
f 13 47 12
f 13 48 47
f 14 48 13
f 14 49 48
f 49 40 48
f 49 41 40
f 50 41 49
f 50 42 41
f 52 9 44
f 52 15 9
f 52 43 51
f 52 44 43
f 53 45 10
f 53 10 16
f 54 11 46
f 54 17 11
f 54 16 17
f 54 53 16
f 54 45 53
f 54 46 45
f 55 49 14
f 55 14 20
f 52 21 15
f 52 57 21
f 56 52 51
f 56 57 52
f 55 20 26
f 55 26 59
f 26 25 58
f 26 58 59
f 60 21 57
f 60 27 21
f 58 25 31
f 58 31 63
f 31 30 62
f 31 62 63
f 64 58 63
f 64 59 58
f 65 27 60
f 65 32 27
f 33 32 65
f 33 65 66
f 65 60 61
f 65 61 66
f 67 34 33
f 67 33 66
f 62 30 35
f 62 35 68
f 35 34 67
f 35 67 68
f 69 62 68
f 69 63 62
f 71 36 37
f 71 70 36
f 38 71 37
f 38 72 71
f 39 72 38
f 39 73 72
f 76 40 41
f 76 75 40
f 77 41 42
f 77 76 41
f 78 36 70
f 78 43 36
f 79 73 39
f 79 39 46
f 47 79 46
f 47 80 79
f 79 74 73
f 79 80 74
f 81 40 75
f 81 48 40
f 81 47 48
f 81 80 47
f 81 74 80
f 81 75 74
f 77 42 50
f 77 50 83
f 50 49 82
f 50 82 83
f 83 82 76
f 83 76 77
f 78 51 43
f 78 84 51
f 85 82 49
f 85 49 55
f 84 56 51
f 84 86 56
f 87 57 56
f 87 56 86
f 89 85 55
f 89 55 59
f 87 60 57
f 87 90 60
f 91 61 60
f 91 60 90
f 95 89 59
f 95 59 64
f 64 63 94
f 64 94 95
f 95 94 88
f 95 88 89
f 91 66 61
f 91 97 66
f 96 91 90
f 96 97 91
f 98 67 66
f 98 66 97
f 99 68 67
f 99 67 98
f 99 98 92
f 99 92 93
f 100 94 63
f 100 63 69
f 69 68 99
f 69 99 100
f 100 99 93
f 100 93 94
f 71 101 70
f 71 102 101
f 72 102 71
f 72 103 102
f 73 103 72
f 73 104 103
f 74 104 73
f 74 105 104
f 106 74 75
f 106 105 74
f 107 75 76
f 107 106 75
f 101 78 70
f 101 108 78
f 109 108 101
f 109 101 102
f 110 105 106
f 110 106 111
f 112 107 76
f 112 76 82
f 111 106 107
f 111 107 112
f 108 84 78
f 108 113 84
f 114 110 111
f 114 111 115
f 112 82 85
f 112 85 116
f 116 115 111
f 116 111 112
f 113 86 84
f 113 117 86
f 87 86 117
f 87 117 118
f 121 116 85
f 121 85 89
f 121 89 88
f 121 88 120
f 121 120 115
f 121 115 116
f 122 87 118
f 122 90 87
f 125 93 92
f 125 92 124
f 126 120 88
f 126 88 94
f 126 94 93
f 126 93 125
f 126 125 119
f 126 119 120
f 127 90 122
f 127 96 90
f 128 97 96
f 128 96 127
f 127 122 123
f 127 123 128
f 129 124 92
f 129 92 98
f 129 98 97
f 129 97 128
f 129 128 123
f 129 123 124
f 103 130 102
f 103 131 130
f 104 131 103
f 104 132 131
f 133 104 105
f 133 132 104
f 130 109 102
f 130 135 109
f 109 134 108
f 109 135 134
f 136 135 130
f 136 130 131
f 136 131 132
f 136 132 137
f 133 105 110
f 133 110 138
f 137 132 133
f 137 133 138
f 134 113 108
f 134 140 113
f 138 110 114
f 138 114 141
f 142 114 115
f 142 141 114
f 140 117 113
f 140 144 117
f 143 140 139
f 143 144 140
f 145 118 117
f 145 117 144
f 148 142 115
f 148 115 120
f 148 120 119
f 148 119 147
f 148 147 141
f 148 141 142
f 145 122 118
f 145 150 122
f 149 145 144
f 149 150 145
f 151 123 122
f 151 122 150
f 152 124 123
f 152 123 151
f 153 147 119
f 153 119 125
f 153 125 124
f 153 124 152
f 153 152 146
f 153 146 147
f 157 154 156
f 157 155 154
f 158 157 156
f 158 159 157
f 160 134 135
f 160 159 134
f 136 160 135
f 136 161 160
f 162 136 137
f 162 161 136
f 163 137 138
f 163 162 137
f 165 134 159
f 165 140 134
f 165 139 140
f 165 164 139
f 165 158 164
f 165 159 158
f 166 161 162
f 166 162 167
f 163 138 141
f 163 141 168
f 168 167 162
f 168 162 163
f 169 139 164
f 169 143 139
f 170 144 143
f 170 143 169
f 173 168 141
f 173 141 147
f 173 147 146
f 173 146 172
f 173 172 167
f 173 167 168
f 170 149 144
f 170 174 149
f 175 150 149
f 175 149 174
f 151 150 175
f 151 175 176
f 177 172 146
f 177 146 152
f 177 152 151
f 177 151 176
f 177 176 171
f 177 171 172
f 180 179 178
f 180 181 179
f 183 154 155
f 183 182 154
f 184 181 180
f 184 185 181
f 186 154 182
f 186 156 154
f 185 182 181
f 185 186 182
f 187 183 155
f 187 155 157
f 186 182 183
f 186 183 187
f 188 156 186
f 188 158 156
f 189 187 157
f 189 157 159
f 188 186 187
f 188 187 189
f 160 189 159
f 160 190 189
f 191 160 161
f 191 190 160
f 192 158 188
f 192 164 158
f 192 188 189
f 192 189 193
f 193 189 190
f 193 190 194
f 191 161 166
f 191 166 195
f 196 166 167
f 196 195 166
f 197 164 192
f 197 169 164
f 198 170 169
f 198 169 197
f 197 192 193
f 197 193 198
f 198 193 194
f 198 194 199
f 201 196 167
f 201 167 172
f 201 172 171
f 201 171 200
f 201 200 195
f 201 195 196
f 198 174 170
f 198 202 174
f 175 174 202
f 175 202 203
f 202 198 199
f 202 199 203
f 204 200 171
f 204 171 176
f 204 176 175
f 204 175 203
f 204 203 199
f 204 199 200
f 207 178 179
f 207 206 178
f 209 178 206
f 209 180 178
f 208 206 205
f 208 209 206
f 210 207 179
f 210 179 181
f 211 181 182
f 211 210 181
f 212 180 209
f 212 184 180
f 213 185 184
f 213 184 212
f 212 209 210
f 212 210 213
f 214 211 182
f 214 182 186
f 214 186 185
f 214 185 213
f 213 210 211
f 213 211 214
f 191 215 190
f 191 216 215
f 215 194 190
f 215 217 194
f 218 216 191
f 218 191 195
f 217 215 216
f 217 216 218
f 219 194 217
f 219 199 194
f 220 218 195
f 220 195 200
f 220 200 199
f 220 199 219
f 219 217 218
f 219 218 220
f 223 222 221
f 223 224 222
f 227 225 224
f 227 228 225
f 228 226 225
f 228 229 226
f 230 205 206
f 230 229 205
f 231 206 207
f 231 230 206
f 232 205 229
f 232 208 205
f 233 209 208
f 233 208 232
f 232 229 230
f 232 230 233
f 234 231 207
f 234 207 210
f 234 210 209
f 234 209 233
f 233 230 231
f 233 231 234
f 222 235 221
f 222 236 235
f 235 223 221
f 235 237 223
f 236 222 224
f 236 224 238
f 224 223 237
f 224 237 238
f 237 235 236
f 237 236 238
f 225 238 224
f 225 239 238
f 240 225 226
f 240 239 225
f 238 227 224
f 238 241 227
f 242 228 227
f 242 227 241
f 243 240 226
f 243 226 229
f 243 229 228
f 243 228 242
f 239 244 238
f 239 245 244
f 246 239 240
f 246 245 239
f 244 241 238
f 244 247 241
f 248 242 241
f 248 241 247
f 248 247 244
f 248 244 245
f 249 246 240
f 249 240 243
f 249 243 242
f 249 242 248
f 249 248 245
f 249 245 246
