# parsimony mesh: g6414_monomer (source /Users/eranagmon/code/v2e-molecules/workspace/studies/ecoli-3d/viz/3d/structures/g6414_monomer.pdb)
# atoms: 5779  voxel: 16 Å  verts: 122  tris: 240
v -1.4793 -12.3780 -28.9941
v 0.6497 -12.3780 -28.9941
v -2.0112 -3.4067 -29.1570
v 6.5950 -2.7137 -29.6922
v 17.6966 3.0817 -29.5681
v -1.5271 8.5612 -28.8389
v 6.2007 13.3740 -30.8063
v 23.2231 12.7409 -31.5118
v 32.4277 18.1727 -30.0148
v 10.6594 22.8908 -30.8509
v 23.5128 23.0322 -31.4315
v 32.4277 21.5477 -30.0148
v -17.3210 -28.2330 -13.1707
v -8.4872 -29.4247 -14.3600
v 2.1248 -29.2711 -14.2663
v -20.4078 -19.4067 -14.5170
v -7.4825 -18.3895 -21.5992
v 6.7206 -18.5584 -19.7464
v 17.5273 -14.0721 -14.5598
v -22.0549 -3.4067 -15.9021
v -10.0112 -3.4067 -23.9021
v 11.3164 -7.5850 -25.2264
v 22.9453 -2.4485 -20.2047
v 32.6330 2.6880 -15.1831
v -19.9910 12.5933 -15.5610
v -7.5111 13.3740 -24.2440
v -0.0073 19.2279 -27.9490
v 29.2040 13.2626 -20.0725
v 32.5304 13.2626 -20.0725
v -18.1291 22.5561 -14.0209
v -7.4692 28.1710 -16.6115
v 5.4942 28.0518 -20.4562
v 24.2320 23.7161 -19.9514
v 32.4277 21.5477 -24.9619
v -1.4572 37.0771 -12.9633
v 0.3290 37.0771 -12.9633
v -17.3210 -28.2330 -9.0189
v -9.6062 -31.0972 -3.9856
v 7.4800 -32.0265 -4.4113
v 19.1069 -29.7819 0.9382
v -34.4563 -16.2090 -0.2892
v -24.4343 -21.3072 -4.6541
v -15.6856 -26.4054 1.6477
v 12.7914 -24.7387 -9.7285
v 23.6504 -19.7410 -3.9428
v 39.5128 -14.7658 1.5494
v 55.5128 -12.9907 2.2566
v 66.1298 -12.3765 2.7858
v -35.5049 -3.4067 -1.4504
v -30.0549 -3.4067 -9.4504
v 28.8592 -2.8742 -3.7111
v 36.5643 -3.5708 -3.0854
v 55.5128 -9.7088 2.2566
v 66.1298 -10.3617 2.7858
v -34.5417 6.6932 0.7315
v -26.9654 12.2532 -4.5353
v 14.5655 20.0631 3.0148
v 24.4513 14.2078 -3.1252
v 32.6330 8.3525 -9.2652
v -19.3125 24.0096 -4.4355
v -11.0047 32.0096 -4.4355
v 11.1119 28.1650 -3.1654
v 19.3781 22.5461 -7.6519
v -3.0047 37.8996 -4.4355
v 2.7221 37.8996 -4.4355
v -33.0694 -44.2613 18.4234
v -24.4872 -45.2423 18.0471
v -8.4872 -45.4133 17.0911
v 0.6918 -44.4892 17.1488
v -33.0694 -42.1109 18.4234
v -24.4872 -40.8519 18.0471
v -9.4214 -36.0815 12.5822
v 6.1956 -35.6577 11.3381
v 19.1069 -29.7819 5.5275
v -33.9887 -15.0554 11.5645
v -24.4872 -20.2451 11.5645
v -13.8885 -24.5964 11.5645
v 10.7005 -19.4067 14.8224
v 24.0692 -19.8086 7.0897
v 39.5128 -14.7658 5.9113
v 55.5128 -12.9907 6.8248
v 66.1298 -12.3765 6.3139
v -37.0726 -3.4067 11.5645
v 12.9099 -7.1538 16.6120
v 22.7448 -2.4618 10.8540
v 39.5128 -8.2649 5.9113
v 55.5128 -9.7088 6.8248
v 66.1298 -10.3617 6.3139
v -35.5710 7.1988 11.5645
v -26.5350 15.1988 11.5645
v 14.7058 19.8539 11.5645
v 18.3608 11.8539 11.5645
v -18.5350 23.0038 11.5645
v -8.3192 30.8635 11.7296
v 7.3449 28.9350 11.7296
v -2.8738 37.8512 6.5064
v 2.9757 37.8512 6.5064
v -33.0694 -44.2613 20.1716
v -24.4872 -45.2423 20.4986
v -8.4872 -45.4133 20.5444
v 0.6918 -44.4892 20.2327
v -33.0694 -42.1109 20.1716
v -24.4872 -40.8519 20.4986
v -8.4892 -35.7404 21.0528
v 1.5369 -35.4067 20.9461
v -32.5202 -11.4693 19.6012
v -24.4872 -13.3944 21.9512
v -8.4892 -19.3593 23.4651
v 2.7005 -19.4067 22.0810
v -34.0549 -3.4067 20.6377
v -24.4872 -3.4067 24.3928
v -8.4872 -3.4067 26.3757
v 7.5510 -2.4550 22.2360
v 15.9651 3.5129 19.9420
v -34.5444 5.9673 20.9587
v -23.2503 11.8177 21.8346
v -8.4872 12.5933 23.8376
v 9.0356 13.9199 21.7759
v 15.9651 9.4710 19.9420
v -17.0924 21.2150 20.0926
v -8.4872 23.4868 21.0216
v 4.7174 23.8295 20.9791
f 3 2 1
f 3 4 2
f 6 4 3
f 6 7 4
f 7 5 4
f 7 8 5
f 10 8 7
f 10 11 8
f 11 9 8
f 11 12 9
f 16 14 13
f 16 17 14
f 2 17 1
f 2 18 17
f 17 15 14
f 17 18 15
f 21 1 17
f 21 3 1
f 21 16 20
f 21 17 16
f 22 18 2
f 22 2 4
f 5 22 4
f 5 23 22
f 22 19 18
f 22 23 19
f 21 6 3
f 21 26 6
f 25 21 20
f 25 26 21
f 27 7 6
f 27 6 26
f 28 23 5
f 28 5 8
f 9 28 8
f 9 29 28
f 28 24 23
f 28 29 24
f 30 26 25
f 30 31 26
f 27 10 7
f 27 32 10
f 31 27 26
f 31 32 27
f 33 11 10
f 33 10 32
f 34 29 9
f 34 9 12
f 34 12 11
f 34 11 33
f 34 33 28
f 34 28 29
f 36 31 35
f 36 32 31
f 14 37 13
f 14 38 37
f 15 38 14
f 15 39 38
f 37 16 13
f 37 42 16
f 43 42 37
f 43 37 38
f 44 39 15
f 44 15 18
f 19 44 18
f 19 45 44
f 44 40 39
f 44 45 40
f 50 16 42
f 50 20 16
f 50 41 49
f 50 42 41
f 51 45 19
f 51 19 23
f 24 51 23
f 24 52 51
f 51 46 45
f 51 52 46
f 53 46 52
f 53 47 46
f 54 47 53
f 54 48 47
f 50 25 20
f 50 56 25
f 55 50 49
f 55 56 50
f 59 52 24
f 59 24 29
f 59 29 28
f 59 28 58
f 59 58 51
f 59 51 52
f 60 25 56
f 60 30 25
f 61 31 30
f 61 30 60
f 63 58 28
f 63 28 33
f 63 33 32
f 63 32 62
f 63 62 57
f 63 57 58
f 61 35 31
f 61 64 35
f 62 32 36
f 62 36 65
f 70 67 66
f 70 71 67
f 71 68 67
f 71 72 68
f 73 38 39
f 73 72 38
f 72 69 68
f 72 73 69
f 74 39 40
f 74 73 39
f 76 41 42
f 76 75 41
f 72 43 38
f 72 77 43
f 43 76 42
f 43 77 76
f 79 74 40
f 79 40 45
f 78 73 74
f 78 74 79
f 46 79 45
f 46 80 79
f 47 80 46
f 47 81 80
f 48 81 47
f 48 82 81
f 75 49 41
f 75 83 49
f 84 78 79
f 84 79 85
f 86 52 51
f 86 51 85
f 86 85 79
f 86 79 80
f 53 52 86
f 53 86 87
f 86 80 81
f 86 81 87
f 82 48 54
f 82 54 88
f 54 53 87
f 54 87 88
f 88 87 81
f 88 81 82
f 83 55 49
f 83 89 55
f 90 56 55
f 90 55 89
f 85 51 58
f 85 58 92
f 92 58 57
f 92 57 91
f 90 60 56
f 90 93 60
f 61 60 93
f 61 93 94
f 95 91 57
f 95 57 62
f 96 61 94
f 96 64 61
f 97 95 62
f 97 62 65
f 97 96 94
f 97 94 95
f 99 66 67
f 99 98 66
f 100 67 68
f 100 99 67
f 101 68 69
f 101 100 68
f 98 70 66
f 98 102 70
f 103 71 70
f 103 70 102
f 102 98 99
f 102 99 103
f 104 72 71
f 104 71 103
f 103 99 100
f 103 100 104
f 105 101 69
f 105 69 73
f 104 100 101
f 104 101 105
f 107 75 76
f 107 106 75
f 104 77 72
f 104 108 77
f 77 107 76
f 77 108 107
f 105 73 78
f 105 78 109
f 108 104 105
f 108 105 109
f 106 83 75
f 106 110 83
f 111 110 106
f 111 106 107
f 112 111 107
f 112 107 108
f 109 78 84
f 109 84 113
f 112 108 109
f 112 109 113
f 114 84 85
f 114 113 84
f 115 83 110
f 115 89 83
f 90 89 115
f 90 115 116
f 115 110 111
f 115 111 116
f 116 111 112
f 116 112 117
f 117 112 113
f 117 113 118
f 114 85 92
f 114 92 119
f 119 92 91
f 119 91 118
f 118 113 114
f 118 114 119
f 120 90 116
f 120 93 90
f 121 94 93
f 121 93 120
f 120 116 117
f 120 117 121
f 122 118 91
f 122 91 95
f 122 95 94
f 122 94 121
f 122 121 117
f 122 117 118
