# parsimony mesh: g6757_monomer (source /Users/eranagmon/code/v2e-flagella/workspace/studies/ecoli-3d/viz/3d/structures/g6757_monomer.pdb)
# atoms: 616  voxel: 2.5 Å  verts: 1212  tris: 2504
v 8.9865 3.4480 -23.6400
v 10.3956 3.1513 -23.8538
v 12.2327 3.1592 -23.8510
v 8.9865 3.8032 -23.6400
v 10.3956 4.1573 -23.8538
v 12.2327 4.1453 -23.8510
v 1.5831 0.9989 -21.0809
v 2.8956 0.7118 -21.2246
v 4.8641 0.6889 -21.2379
v 1.5831 1.4373 -21.0809
v 2.8032 2.3056 -21.2715
v 5.5767 2.1400 -21.5132
v 8.0502 2.8281 -22.3017
v 10.3956 2.3238 -22.2789
v 12.9979 2.5401 -22.4273
v 14.6353 3.0207 -21.6930
v 3.5749 3.7931 -21.1723
v 5.3956 4.1774 -21.4775
v 8.0502 4.3641 -22.3017
v 10.4131 5.3419 -22.2665
v 12.9979 4.9304 -22.8326
v 14.7668 4.8581 -21.7365
v 11.0922 7.3581 -21.5759
v 12.8956 7.3581 -22.0402
v 14.6056 7.3581 -21.4932
v 11.2069 9.8581 -21.3905
v 12.8956 9.8581 -21.9184
v 14.6405 9.8581 -21.5568
v 11.4111 11.2475 -21.1778
v 12.8956 11.4891 -21.4137
v 14.5307 11.4766 -21.3931
v 14.0128 -9.1282 -18.6321
v 14.6097 -9.1282 -18.6321
v 13.7924 -7.6419 -18.8646
v 15.4241 -7.7709 -18.9605
v 16.8674 -7.0236 -18.8006
v 11.4863 -4.0471 -18.6797
v 12.9427 -4.9850 -18.8595
v 15.3956 -5.1419 -19.1804
v 16.9803 -5.1419 -18.8801
v 5.8894 -1.7074 -19.0153
v 7.2205 -1.7074 -19.0153
v 11.0650 -2.6419 -18.9653
v 12.8956 -2.6419 -19.0376
v 15.3956 -2.6419 -18.7845
v 16.8713 -2.6419 -18.7123
v 1.2825 0.8042 -19.7789
v 2.8956 -0.0400 -19.7789
v 5.3768 -0.2880 -19.9857
v 7.9906 0.0653 -19.2968
v 10.2767 0.0653 -19.1583
v 12.8956 -0.1419 -19.7190
v 15.3956 -0.1419 -19.0803
v 17.1276 -0.1419 -18.6522
v 1.1768 2.3056 -19.9084
v 1.9083 3.1040 -20.8280
v 6.5308 1.1612 -20.9561
v 7.8956 1.5032 -20.3740
v 10.3956 1.5307 -20.2423
v 12.8956 1.3598 -20.6153
v 15.5988 2.3945 -19.6857
v 17.2117 1.7683 -18.6454
v 1.3484 3.8182 -19.1614
v 2.8032 4.0761 -19.9084
v 5.3956 4.8495 -19.7789
v 8.1000 5.5537 -19.5923
v 9.5915 5.7654 -20.3013
v 16.0926 4.6579 -19.7411
v 16.9167 5.3578 -18.8826
v 9.0695 6.1640 -18.6346
v 10.1448 7.1417 -19.5923
v 15.6791 7.2910 -19.7411
v 16.9167 6.4128 -18.8826
v 10.9415 9.8581 -19.7789
v 14.8529 9.8581 -19.7789
v 11.2768 11.3265 -19.7789
v 12.8956 11.6082 -19.7789
v 14.4400 11.3898 -19.7789
v 14.0473 -11.4468 -16.1964
v 14.2809 -11.4468 -16.1964
v 13.7014 -10.0337 -17.1294
v 15.2786 -10.1091 -17.3122
v 17.1708 -9.4234 -16.7613
v 13.2381 -7.6419 -17.2789
v 16.4345 -7.5510 -17.2508
v 17.0191 -7.5510 -17.2508
v 11.4863 -4.0471 -18.0278
v 12.4388 -4.9850 -17.2282
v 16.5925 -6.3531 -16.0735
v 17.1180 -5.3686 -17.0557
v 3.5680 -2.1132 -16.8103
v 5.1919 -2.2766 -17.4978
v 7.9906 -2.1601 -17.3956
v 10.4252 -2.8365 -17.3340
v 11.8689 -3.7539 -16.3611
v 17.6226 -2.6419 -17.2789
v -1.4453 0.4307 -16.6372
v 0.3926 0.2951 -17.3939
v 2.7991 -0.7223 -17.4978
v 4.2228 -1.2649 -18.4770
v 8.8872 -0.6300 -18.3068
v 10.4173 0.1586 -17.2992
v 11.9189 0.9472 -16.2916
v 18.4276 -0.2867 -17.4708
v 19.6298 0.4501 -16.7654
v -1.4453 1.7842 -16.6372
v 0.4529 2.6907 -17.1713
v 1.6525 3.5972 -16.0387
v 11.4706 1.3046 -16.2916
v 11.9189 1.3046 -16.2916
v 16.5623 3.4350 -18.3871
v 17.9853 2.5042 -18.0094
v 19.6016 2.3581 -16.7359
v 1.3484 3.8182 -17.7054
v 2.6497 4.3684 -17.0348
v 5.3956 5.2273 -17.2789
v 7.3687 5.6845 -17.2789
v 16.3048 4.6824 -17.3622
v 17.4761 4.5612 -17.2601
v 19.2694 3.6834 -16.2351
v 8.6187 6.6445 -17.2789
v 9.7880 7.8945 -17.2789
v 15.9367 7.2910 -17.2139
v 16.9167 6.4128 -18.0040
v 10.6081 9.8581 -17.2789
v 15.8001 9.7893 -17.0499
v 16.6860 10.5768 -16.0639
v 11.2157 11.4774 -17.2789
v 12.8956 11.6402 -17.2789
v 15.1500 11.2641 -17.0499
v 16.6860 11.1509 -16.0639
v 14.0473 -11.4468 -15.9461
v 14.2809 -11.4468 -15.9461
v 13.6899 -10.1419 -15.6358
v 15.2268 -10.2108 -15.3850
v 17.1708 -9.4234 -15.4798
v 13.5913 -7.6419 -15.3469
v 15.6138 -7.4038 -15.1539
v 17.1708 -8.0784 -15.4798
v 6.4004 -4.0287 -13.6933
v 7.8956 -4.2160 -13.9414
v 9.7425 -4.1872 -13.9144
v 13.2263 -5.2578 -14.7481
v 15.6138 -5.9575 -14.7481
v 17.8502 -4.8046 -14.7665
v 20.3956 -4.3754 -14.0045
v 21.9756 -4.1813 -13.7669
v -3.4466 -1.4751 -13.7021
v -2.1044 -1.6877 -14.1177
v -0.0458 -1.7031 -14.1408
v 3.1113 -2.2897 -14.7789
v 5.4985 -3.3728 -14.6276
v 7.8956 -3.3655 -15.1914
v 10.5037 -3.5375 -14.7602
v 11.9188 -3.6785 -14.7789
v 18.6469 -2.6419 -15.4196
v 20.4449 -2.5256 -14.1842
v 21.9756 -3.2814 -13.7669
v -3.6069 -0.1419 -13.9902
v -2.2089 -0.2983 -15.2650
v 0.6308 -1.0179 -14.8960
v 1.8613 -1.0413 -14.7789
v 9.0697 1.0034 -13.5965
v 10.3754 0.9753 -14.6596
v 11.9189 0.9472 -15.7227
v 18.9730 -1.2166 -15.6537
v 19.8031 -0.2867 -14.8038
v -3.5989 1.4109 -13.9707
v -2.2089 2.1366 -14.7940
v 0.2177 3.4484 -15.0238
v 1.6525 3.5972 -16.0205
v 9.0697 1.2893 -13.5965
v 10.3754 1.2970 -14.6596
v 11.9189 1.3046 -15.7227
v 16.6177 3.5510 -13.6184
v 16.7046 3.5510 -13.6184
v 19.8786 2.3581 -14.7789
v 0.9615 4.8581 -14.4198
v 2.6497 5.0114 -15.6520
v 5.5220 5.7496 -14.9392
v 7.7697 5.6535 -14.5995
v 9.4385 5.7867 -13.6466
v 16.0491 4.8475 -14.5826
v 17.6810 4.0886 -14.5826
v 19.4308 3.9096 -14.7789
v 1.4465 6.2935 -13.8919
v 3.0002 7.2194 -14.2883
v 5.5220 7.2051 -14.3293
v 7.8926 7.3519 -14.6368
v 9.7116 7.5037 -14.5995
v 16.0505 7.2882 -15.0012
v 17.8956 8.0078 -14.2725
v 19.4264 8.3410 -13.7331
v 3.9033 9.3937 -13.7476
v 5.3956 9.6435 -14.0165
v 7.2661 9.2031 -13.9603
v 10.8462 9.8043 -14.7300
v 11.8649 10.6017 -13.8641
v 16.6200 8.9101 -15.9828
v 17.6698 9.7893 -15.2984
v 19.6572 9.8581 -13.9003
v 11.1822 12.1956 -14.8000
v 12.4539 12.1303 -14.6524
v 15.3956 12.5478 -14.9560
v 17.6698 12.1338 -14.8627
v 19.5279 12.3581 -13.8285
v 11.1750 14.8581 -13.9448
v 12.8956 14.8581 -14.2006
v 15.3956 14.8581 -14.0183
v 17.8956 14.8581 -13.8560
v 19.2368 14.8581 -13.6224
v 11.6290 16.1210 -13.5432
v 12.8956 16.3192 -13.7358
v 15.3956 16.4536 -13.8412
v 17.8956 16.2776 -13.6571
v 19.1587 16.1420 -13.5450
v 11.1779 -9.2682 -11.4298
v 12.2817 -9.2682 -11.4298
v 3.7151 -7.1694 -11.5664
v 5.3956 -7.1348 -11.5579
v 6.8678 -6.6049 -11.1967
v 10.8906 -7.6419 -11.7850
v 13.0273 -7.7854 -11.9992
v 14.6363 -7.0477 -11.6379
v 3.7151 -5.8433 -11.5664
v 5.6138 -4.9360 -12.2149
v 7.7789 -5.2903 -12.1296
v 10.4246 -4.9888 -12.5244
v 12.7302 -5.2578 -13.1889
v 15.4400 -5.6273 -12.3943
v 17.8956 -5.0147 -12.2789
v 20.3956 -5.1376 -12.2789
v 22.2171 -4.4765 -12.2789
v -3.4466 -1.4751 -13.3874
v -2.1044 -1.6877 -12.9344
v 0.4991 -1.7006 -12.3532
v 2.6647 -2.0330 -12.5087
v 5.0978 -3.2136 -12.2789
v 11.4092 -3.7454 -13.4127
v 11.7866 -3.7454 -13.4127
v 21.2592 -1.5937 -12.2789
v 22.2171 -2.8437 -12.2789
v -3.6069 -0.1419 -13.1277
v -2.1589 -0.3015 -11.8173
v 0.4991 -1.3087 -12.3532
v 1.6774 -1.3762 -13.4953
v 9.0697 1.0034 -13.3105
v 10.2937 1.0174 -12.2826
v 11.7410 1.0313 -11.2547
v 20.3679 -0.1419 -12.2789
v -3.7530 2.2731 -12.2721
v -2.5004 2.4218 -12.4272
v -0.7342 3.5101 -13.4720
v 9.0697 1.2893 -13.3105
v 10.4706 1.9001 -12.1154
v 12.7029 2.4810 -11.2885
v 15.5565 3.4736 -12.3336
v 16.7046 3.5510 -13.4591
v 19.7370 2.3581 -12.2789
v -6.1479 5.6392 -11.2500
v -4.6861 4.8268 -11.5559
v -2.1044 4.8581 -12.2222
v 0.3781 5.3113 -12.2800
v 1.8358 5.9156 -11.3474
v 6.4396 5.9144 -12.7836
v 7.8956 5.7218 -12.3955
v 10.5232 4.7130 -11.9097
v 13.0570 4.6268 -11.3299
v 15.4386 4.8581 -12.3503
v 17.6810 4.8041 -13.1041
v 19.5752 4.8041 -12.2742
v -6.1479 6.4099 -11.2500
v -4.6044 6.7386 -11.4028
v -2.1044 6.6127 -11.3551
v 0.5234 6.2679 -12.1003
v 2.5557 7.2194 -12.2200
v 6.4396 6.2698 -12.7836
v 8.1667 7.0637 -11.9399
v 9.7186 7.1578 -12.0693
v 13.9980 6.3907 -11.3237
v 15.2920 6.3995 -12.3194
v 18.3610 7.4739 -12.3122
v 19.4888 7.5515 -12.2163
v 3.8906 9.7556 -12.2789
v 5.3526 10.8831 -12.0613
v 7.4959 9.9651 -12.0613
v 10.7642 9.8043 -12.3720
v 11.8649 10.6017 -13.2673
v 18.9815 8.7476 -11.3281
v 19.9261 9.6918 -12.2084
v 6.1573 11.1230 -11.0830
v 6.6873 11.1230 -11.0830
v 10.7497 12.2088 -12.3720
v 11.8649 11.2759 -13.2673
v 20.2880 12.3581 -12.2789
v 11.0183 15.0114 -12.4783
v 12.8956 15.9849 -11.5937
v 14.1478 16.1051 -11.0330
v 19.7753 14.8581 -12.2789
v 11.6290 16.1210 -13.4445
v 12.8956 16.3192 -12.8437
v 15.1469 16.7685 -12.0314
v 18.0387 17.6276 -12.0892
v 19.3750 17.1285 -12.0892
v 18.9675 18.6438 -11.1294
v 19.1916 18.6438 -11.1294
v 3.7311 -9.1455 -9.2681
v 4.6111 -9.1455 -9.2681
v 10.9893 -9.7458 -9.7789
v 13.0273 -9.8892 -9.8922
v 14.5327 -9.4155 -9.1344
v 3.3950 -7.8584 -9.9724
v 5.4249 -8.3179 -9.9724
v 7.1585 -6.9663 -9.7789
v 10.7972 -7.4622 -9.5760
v 12.8456 -7.6117 -9.7042
v 14.9956 -7.7854 -9.8922
v 1.2408 -4.1424 -8.7259
v 2.8940 -4.9928 -9.5468
v 5.6727 -4.0455 -9.5208
v 7.6745 -4.8401 -9.3053
v 10.3222 -5.6656 -9.5760
v 11.7427 -6.3248 -8.6074
v 16.1678 -5.5910 -9.7789
v 17.8581 -4.5669 -9.6732
v 20.4833 -4.6058 -9.6732
v 22.0816 -4.3896 -9.7789
v -3.6267 -1.7150 -8.8023
v -2.1044 -1.9376 -9.0965
v 0.3091 -2.5805 -9.7024
v 2.8956 -3.0864 -10.0558
v 5.6727 -3.5870 -9.5208
v 6.6958 -3.8289 -8.6739
v 18.4323 -2.6419 -9.2224
v 20.5866 -2.5608 -9.8246
v 22.0816 -3.1452 -9.7789
v -3.7068 -0.1419 -8.9713
v -2.1589 -0.3015 -10.1729
v -0.6227 -1.2412 -10.6789
v 11.3070 1.0313 -10.9517
v 11.7410 1.0313 -10.9517
v 15.8238 0.6756 -8.9097
v 17.8625 -0.1514 -9.3498
v 19.9091 -0.1419 -10.5194
v -4.0795 2.3244 -9.7188
v -3.0285 1.4686 -10.5121
v 6.4735 3.3282 -8.6560
v 6.9994 3.3282 -8.6560
v 11.3633 2.3581 -10.9380
v 12.7029 2.4810 -10.6561
v 15.3078 2.8030 -9.5832
v 17.8956 2.3581 -9.5616
v 19.4600 2.3581 -10.4665
v -6.2996 5.3974 -9.7789
v -5.3626 4.1474 -9.7789
v -1.0303 5.8501 -8.8895
v 0.5516 5.8829 -9.6088
v 1.8358 5.9156 -10.3281
v 6.4735 4.0251 -8.6560
v 6.9994 4.0251 -8.6560
v 11.6078 3.6393 -10.9849
v 13.0570 4.6268 -10.2962
v 15.3718 4.3580 -9.4870
v 17.8956 3.9266 -9.0486
v 19.5403 4.8131 -9.8970
v -6.2996 6.5740 -9.7789
v -4.3555 7.8041 -9.5320
v -2.1916 7.2779 -9.5451
v 0.5516 6.1848 -9.6088
v 2.6222 7.1197 -9.6084
v 9.0673 7.8576 -10.7415
v 9.2772 7.8576 -10.7415
v 13.9980 6.3907 -10.3519
v 14.3063 6.3907 -10.3519
v 18.9878 8.4411 -9.7789
v 19.5988 7.1911 -9.7789
v -3.3563 8.6090 -8.5341
v -3.3529 8.6090 -8.5341
v 3.9992 10.0548 -9.8218
v 4.4907 11.0193 -10.6838
v 8.4932 9.8581 -10.4932
v 9.5211 9.8581 -10.4932
v 18.9878 8.7243 -9.7789
v 19.9500 9.9743 -9.7789
v 4.1309 11.1230 -9.0171
v 5.3526 11.2305 -9.8218
v 7.6706 11.3918 -9.7728
v 10.3711 12.4842 -9.5841
v 12.8956 13.4696 -8.7556
v 14.6628 13.4551 -8.7939
v 20.4732 12.3581 -9.7789
v 11.2276 14.2802 -10.2327
v 13.3195 15.1053 -9.7281
v 14.4053 15.0187 -9.9093
v 19.0014 15.8231 -8.7450
v 19.7581 14.9371 -9.6585
v 13.7611 17.3581 -9.3961
v 15.1469 17.4921 -10.4560
v 18.0321 17.8110 -9.8230
v 19.4225 17.3581 -10.5019
v 13.8937 18.8423 -8.8560
v 15.3956 18.8871 -9.0659
v 17.9186 18.6949 -9.9306
v 19.1916 18.6438 -10.9434
v 3.7311 -9.1455 -8.1979
v 4.6111 -9.1455 -8.1979
v 8.7214 -9.1161 -6.3707
v 10.4501 -9.3851 -7.1617
v 12.8956 -9.8563 -7.7792
v 14.5327 -9.4155 -8.1054
v 3.4708 -7.6039 -7.3303
v 5.4249 -8.1965 -7.3303
v 7.9143 -7.7191 -7.2257
v 10.7490 -7.8956 -7.2879
v 12.4672 -7.2706 -7.2975
v 14.8401 -7.6419 -7.8434
v 1.2408 -4.1424 -7.8570
v 2.3460 -5.0422 -7.1258
v 6.5184 -3.9144 -8.4953
v 7.7349 -4.8822 -8.2880
v 10.3956 -5.9352 -8.0976
v 12.8545 -5.6488 -7.3053
v 15.4690 -5.1046 -7.6770
v 16.9997 -4.2465 -8.1706
v 21.3750 -4.0655 -8.4279
v 21.7949 -4.0655 -8.4279
v -4.0632 -2.1691 -7.2789
v -2.1044 -3.0798 -7.2789
v 0.4027 -3.5543 -7.1258
v 1.8565 -3.7817 -6.1903
v 6.5184 -3.8289 -8.4953
v 6.6958 -3.8289 -8.4953
v 13.9420 -3.6777 -6.2911
v 15.3956 -3.4923 -6.5818
v 17.2763 -2.7007 -7.3139
v 21.3750 -3.6834 -8.4279
v 21.7949 -3.6834 -8.4279
v -5.9079 0.9474 -6.0759
v -5.0399 0.0117 -7.0571
v 15.5905 0.6443 -7.2789
v 17.1684 -0.6057 -7.2789
v -6.4235 2.3581 -6.5392
v -5.0962 2.3581 -7.7892
v 6.2140 3.3290 -7.2789
v 7.0128 3.3290 -7.2789
v 15.2453 2.3581 -7.2789
v -6.3571 4.9459 -7.3418
v -5.4841 4.9459 -7.3418
v -1.0303 5.8501 -8.3685
v 0.6494 5.8707 -7.5535
v 1.9856 5.8912 -6.7384
v 6.2140 4.0314 -7.2789
v 7.0128 4.0314 -7.2789
v 16.3004 3.8385 -7.2789
v 17.9821 4.9973 -7.3557
v 19.3442 5.6163 -8.2403
v -6.0496 7.3639 -7.1041
v -5.2560 7.3639 -7.1041
v -1.5343 7.5286 -7.4327
v 0.6494 6.4682 -7.5535
v 2.7639 7.1197 -7.4546
v 16.5955 8.5744 -6.1539
v 18.1529 7.7363 -7.1971
v 19.3442 6.8982 -8.2403
v -5.9447 8.7860 -6.1868
v -4.3555 9.0502 -7.1236
v -2.8224 9.0273 -7.2789
v 4.0511 9.6159 -7.5125
v 4.7360 10.2878 -6.8349
v 16.5244 9.8581 -6.1599
v 18.0438 9.7674 -6.9495
v 19.5393 10.3470 -7.2789
v 4.1309 11.1230 -8.5016
v 5.4999 11.3131 -7.5125
v 7.8956 11.9410 -7.2789
v 10.4671 13.0595 -7.4642
v 12.7554 13.1815 -7.4642
v 15.5984 12.4351 -7.1964
v 17.8512 12.1663 -6.7502
v 19.6423 12.1663 -7.3492
v 11.3480 13.7191 -6.7543
v 12.8567 14.6591 -7.3487
v 15.5638 14.9809 -7.2953
v 17.8431 15.0929 -7.4385
v 19.4485 14.1565 -8.2295
v 13.7526 17.3120 -7.1774
v 14.7981 16.4479 -6.2764
v 17.6194 17.3581 -7.2789
v 13.8499 18.9259 -7.2789
v 15.3956 19.3122 -7.2789
v 17.0732 18.9944 -7.2789
v 8.5632 -9.2762 -4.7789
v 10.0173 -9.2762 -4.7789
v 3.7792 -6.7460 -4.7789
v 5.3956 -7.1460 -4.7789
v 7.3132 -8.0419 -4.7789
v 11.2673 -8.5413 -4.7789
v 12.2291 -7.2913 -4.7789
v -1.4077 -4.4540 -4.3472
v 0.3956 -4.5702 -4.6984
v 2.4790 -5.0972 -4.9735
v 11.5035 -4.1205 -3.7574
v 12.4903 -5.0291 -4.6660
v -5.8932 -1.4656 -3.7265
v -4.7580 -2.2355 -4.6474
v -2.1864 -3.6772 -5.0199
v 0.3956 -3.7916 -5.9484
v 1.8565 -3.7817 -5.9365
v 11.5035 -3.7110 -3.7574
v 13.1049 -2.8610 -4.6145
v 15.3956 -2.2423 -5.2796
v 16.9811 -1.9066 -5.5873
v -5.9118 0.0117 -4.6474
v -5.6938 -0.7193 -5.3931
v 13.9344 -1.0648 -3.8048
v 15.2156 -0.0713 -4.6960
v 16.9811 -0.7444 -5.5873
v -6.6047 2.3581 -4.7789
v 5.8690 3.1653 -4.7789
v 6.8041 3.1653 -4.7789
v 14.9601 2.3581 -4.7789
v -6.4945 5.0007 -4.7382
v -5.4890 5.9291 -5.5444
v 1.4624 5.8912 -5.6937
v 1.9856 5.8912 -5.6937
v 5.8690 3.7677 -4.7789
v 6.8041 3.7677 -4.7789
v 15.7486 4.7425 -4.6910
v 17.2065 5.4988 -5.4658
v -5.9612 7.6030 -4.5584
v -5.6674 7.6030 -4.5584
v -0.9799 8.4756 -5.7561
v 0.5978 7.5922 -4.8916
v 2.4099 7.4685 -4.8278
v 16.1180 7.5879 -4.6910
v 17.2065 6.9077 -5.4658
v -5.9447 8.7860 -5.2391
v -4.7149 9.8094 -4.5350
v -1.9297 9.9429 -5.1331
v 0.4982 9.6842 -4.1375
v 2.9459 9.5113 -4.6721
v 4.7360 10.2878 -5.5059
v 13.5732 10.5863 -4.0881
v 15.3157 9.7950 -4.8644
v 18.6549 10.9113 -5.9790
v 19.2168 10.9113 -5.9790
v -3.5840 11.2055 -3.8309
v -2.1044 11.3048 -3.8637
v 0.3956 11.5321 -3.8692
v 2.8956 11.6554 -3.9937
v 5.4999 11.6210 -4.7151
v 7.8956 12.1912 -4.7789
v 10.4671 13.0267 -4.7340
v 12.7009 12.4011 -4.8127
v 14.8674 11.4150 -5.7547
v 18.6549 11.2050 -5.9790
v 19.2168 11.2050 -5.9790
v 11.3480 13.7191 -5.5374
v 11.8286 13.7191 -5.5374
v 16.4647 16.0294 -5.9871
v 16.6847 16.0294 -5.9871
v 14.0032 18.1146 -5.8292
v 15.5371 17.3120 -5.6466
v 16.9345 17.3581 -5.7008
v 14.0032 18.7976 -5.8292
v 15.3956 19.0332 -5.5824
v 16.9917 18.9853 -5.6332
v 8.7932 -9.1802 -3.1257
v 9.7914 -9.1802 -3.1257
v 1.3350 -6.9344 -1.2831
v 3.0349 -7.1836 -2.1814
v 5.3956 -7.2018 -2.2789
v 7.9342 -7.8404 -2.2870
v 10.5087 -7.7674 -2.3119
v 11.9965 -7.0317 -3.1647
v -1.7744 -4.6018 -2.2789
v 0.4592 -5.6652 -2.1814
v 2.2945 -5.9008 -2.9498
v 10.9780 -5.0291 -2.3104
v 11.9965 -5.7872 -3.1647
v -5.9300 -1.5845 -2.2789
v -4.6044 -2.6179 -2.2789
v -2.1476 -2.8025 -1.9419
v -0.5960 -1.6390 -1.4927
v 10.8391 -2.7833 -2.1335
v 12.2678 -2.0443 -2.8699
v -5.9170 -0.2436 -2.5205
v -5.5764 0.5219 -1.8483
v -1.1237 -0.1419 -1.8647
v -0.5577 -0.1419 -1.8647
v 10.9946 -0.9954 -1.2032
v 13.0265 -0.1968 -2.0732
v 14.3707 0.6018 -2.9432
v -6.0356 2.3581 -3.2210
v -5.4944 2.3581 -1.9710
v -1.0894 1.5014 -1.6795
v -0.7173 1.5014 -1.6795
v 6.0135 3.1099 -3.4715
v 6.7210 3.1099 -3.4715
v 13.7852 1.5611 -1.2765
v 14.3760 2.3799 -2.1775
v -6.1655 4.8460 -2.2910
v -5.6525 4.0046 -1.4657
v 6.0135 3.6735 -3.4715
v 6.7210 3.6735 -3.4715
v 13.8745 5.4939 -1.4164
v 14.4763 4.7396 -2.2614
v -6.0646 6.9579 -2.2789
v -5.4294 8.2079 -2.2789
v 1.4000 8.3753 -3.2900
v 1.7574 8.3753 -3.2900
v 13.9086 7.3581 -1.3631
v 14.7736 7.3581 -2.6131
v -4.1521 9.7476 -2.3932
v -2.9264 10.5073 -1.6361
v 1.4000 8.7348 -3.2900
v 1.7574 8.7348 -3.2900
v 8.5489 10.7689 -1.4342
v 10.3956 10.5032 -1.7626
v 13.0036 9.7802 -2.1777
v 14.5906 8.9196 -2.7536
v -3.5840 11.2055 -3.3027
v -2.0976 11.4472 -2.3932
v 0.3956 11.9508 -2.2789
v 2.8956 11.8945 -2.2789
v 5.3956 11.8244 -2.2789
v 7.7876 11.6967 -2.2721
v 10.3956 11.8813 -3.0126
v 11.9066 11.7204 -3.2685
v -3.4787 -6.5062 1.3764
v -3.0132 -6.5062 1.3764
v 0.9128 -7.3759 0.2211
v 2.8956 -8.4411 0.2211
v 5.5715 -7.3668 0.4324
v 7.6908 -6.8912 0.4324
v 9.6214 -6.8627 0.2211
v -3.4787 -5.9221 1.3764
v -2.3524 -5.1683 0.7162
v -0.3372 -5.8529 0.2211
v 6.5221 -6.3152 1.4066
v 6.7210 -6.3152 1.4066
v 10.0660 -5.1419 0.2211
v -5.9165 -1.5750 -0.6311
v -4.7386 -2.3388 0.2098
v -2.1947 -2.8100 -0.2358
v -0.5960 -1.6390 -0.8451
v 8.3232 -1.9413 0.6805
v 9.6106 -2.7215 -0.0032
v -5.9165 -1.1447 -0.6311
v -4.7855 -0.0487 0.3963
v -1.8673 0.1844 0.2893
v -0.3503 0.0361 0.0814
v 5.9922 0.3764 1.2494
v 7.6522 -0.3309 0.3749
v 10.2550 -0.1540 -0.9152
v 12.1185 0.6712 -0.9007
v -4.2427 2.1356 0.4426
v -1.9954 1.4238 0.4426
v -0.4181 1.4684 0.2211
v 5.9922 1.1747 1.2494
v 7.9834 2.1481 0.5031
v 10.3956 2.3581 -0.3092
v 12.9294 2.3799 -0.5434
v 14.2144 3.2277 -0.9043
v -6.0114 5.6713 -0.7158
v -5.0205 4.8460 0.1590
v 6.5396 6.0145 1.1452
v 7.9834 5.0520 0.6278
v 10.3956 4.8581 0.1771
v 12.9829 4.7396 -0.3416
v 14.2144 3.8272 -0.9043
v -6.0114 6.4436 -0.7158
v -4.4178 7.2621 0.1579
v -3.1083 8.0806 1.0315
v 6.5396 6.5495 1.1452
v 7.7547 7.3730 0.8045
v 10.3956 7.3581 0.3162
v 12.6586 7.3581 -0.3450
v -3.6297 8.8406 -0.6351
v -2.1840 9.8509 0.2871
v 0.3956 10.8378 1.0891
v 2.8956 10.8240 0.7818
v 4.4685 10.8428 0.7996
v 8.0864 9.9046 0.3017
v 10.3956 9.2532 -0.2801
v 12.4340 8.9741 -0.5814
v -1.2597 11.4110 -0.4574
v 0.3956 11.5268 -0.1609
v 2.8956 11.3471 -0.4682
v 5.3393 11.5020 0.0682
v 7.0602 11.5530 0.2211
v 3.8195 -11.5219 3.7725
v 4.4881 -11.5219 3.7725
v 0.9992 -9.2134 3.3421
v 2.9499 -10.0848 2.9884
v 4.9133 -10.1419 3.2144
v -10.8736 -6.4003 3.9609
v -10.8315 -6.4003 3.9609
v -4.0057 -6.9522 2.7211
v -2.1497 -7.2704 2.6484
v 0.1558 -7.9684 2.5543
v 2.8956 -8.7905 1.6416
v 5.6744 -7.9565 2.3339
v 7.8758 -6.8337 2.6299
v 9.3663 -6.5750 2.0863
v -11.2056 -5.1419 3.7456
v -9.8407 -5.0994 3.6070
v -7.1044 -4.5659 3.5672
v -4.6219 -5.1834 2.6956
v -2.2654 -5.1888 1.7095
v -0.6875 -6.1222 1.7666
v 6.5221 -6.3152 1.5069
v 7.9038 -5.6447 2.6418
v 9.5439 -5.1419 2.2429
v -11.2696 -2.6419 3.6409
v -9.6044 -2.6419 3.0304
v -7.1044 -2.6419 2.9659
v -4.7386 -2.7738 2.2641
v -3.1842 -3.6951 1.6525
v 3.4408 -1.5362 3.7746
v 5.3956 -1.8545 3.2077
v 7.7222 -2.7362 2.5174
v 9.4559 -3.6080 1.8850
v -10.9591 -1.2018 3.8213
v -9.6044 -0.8163 3.4779
v -7.1044 -0.5849 3.3698
v -4.9081 0.0770 2.5860
v -2.1044 0.9725 1.5855
v 0.4427 0.6698 2.4440
v 2.7227 -0.3459 2.9544
v 5.2536 -0.3309 1.8714
v 6.6566 -1.2903 1.4832
v -3.9016 2.2880 2.5818
v -2.5371 2.1567 2.4783
v 0.4427 1.3696 2.4440
v 2.9422 2.3697 2.8415
v 5.2536 2.1481 2.1528
v 7.2087 2.8414 2.1403
v -3.7134 4.8581 1.9974
v -2.7891 4.8581 3.2474
v 3.8066 4.1449 3.5864
v 5.4148 5.0797 2.8634
v 7.2087 4.3479 2.1403
v -3.5393 6.4140 1.6419
v -2.1414 7.3300 2.6768
v -0.6244 8.2460 3.7117
v 6.1432 7.3730 2.8631
v 6.8274 8.2162 2.1245
v -1.4416 9.1946 2.0450
v 0.2836 9.6148 2.8155
v 2.9494 10.6037 2.6525
v 5.5358 9.7443 2.7823
v 7.1954 9.6308 2.8631
v 3.8186 11.6080 3.4402
v 5.3393 12.0191 2.6525
v 7.1965 11.8719 2.7211
v -6.1768 -14.0795 6.3092
v -5.6112 -14.0795 6.3092
v -6.5813 -12.6419 6.0774
v -5.3044 -12.6419 6.0774
v 3.3441 -11.6794 5.2211
v 4.7639 -11.6794 5.2211
v -6.9081 -10.1419 5.9075
v -5.0259 -10.1419 5.9075
v -1.4562 -9.3265 5.7267
v 0.2577 -9.8232 5.0245
v 2.0941 -10.9801 5.2211
v 5.6512 -10.1419 5.2211
v -13.3710 -6.4083 6.4369
v -11.8660 -6.4995 5.4506
v -10.3100 -6.5141 5.2211
v -6.9963 -7.6419 5.6567
v -4.6691 -7.7988 5.0948
v -2.2155 -8.5105 5.0245
v -0.6675 -8.7756 4.0601
v 6.2828 -8.6140 5.2211
v 7.6377 -7.3640 5.2211
v -13.4965 -5.1419 6.1880
v -12.4556 -5.1419 4.9380
v -9.0600 -5.8928 5.2211
v -7.3130 -5.8243 5.0526
v -5.7651 -6.1113 4.1070
v 8.0068 -5.1419 5.2211
v -13.5273 -3.6799 6.1279
v -12.2254 -2.7647 5.2652
v -3.6365 -1.5606 6.2949
v -2.7711 -1.5606 6.2949
v 0.8819 -1.9164 5.6826
v 2.7227 -2.2265 4.9980
v 5.3956 -3.0131 5.2211
v 7.0147 -3.6132 5.2211
v -10.9815 -1.1527 5.2211
v -9.6044 -0.1209 5.2211
v -7.1044 0.2010 5.2211
v -4.7290 -0.1845 5.4192
v -2.0044 -0.3265 5.9892
v 0.2553 -0.4658 5.0606
v 1.7742 -1.3153 4.0160
v -4.1549 1.7554 4.5434
v -2.2101 2.4965 4.9400
v 0.4354 2.3697 4.8211
v 2.1400 3.2107 4.3453
v -1.5391 4.8581 4.5880
v 0.3956 4.8581 5.0403
v 2.9422 4.9302 4.3863
v 4.2900 5.8115 4.0600
v -1.1745 6.5794 4.2187
v 0.2836 7.3909 4.5063
v 2.8956 7.3581 4.8599
v 4.8471 7.3581 4.3765
v 1.0423 8.9796 4.3868
v 2.9494 9.8310 4.8802
v 5.6202 9.6308 5.0952
v 7.0639 10.3126 4.7451
v 3.8186 11.6080 4.6190
v 5.3956 11.9441 5.0375
v 7.0639 11.7229 4.7451
v -6.3945 -14.2081 7.7211
v -5.4456 -14.2081 7.7211
v -8.5079 -11.6594 8.5409
v -7.6745 -12.5524 7.7130
v -4.7525 -12.6419 7.7211
v 3.4030 -11.6452 6.8924
v 4.6275 -11.6452 6.8924
v -8.5292 -10.1419 8.3089
v -8.1581 -10.1419 7.0589
v -4.3243 -10.1419 7.7211
v -1.4562 -9.3265 7.0356
v 0.3956 -9.8149 7.4216
v 2.7001 -10.3695 7.4091
v 4.8835 -10.1419 7.1165
v -13.3710 -6.4083 6.5161
v -12.1248 -6.7172 7.4981
v -9.2927 -7.4881 7.5390
v -8.2463 -7.6419 6.8230
v -3.7674 -8.4590 7.7211
v -2.2155 -8.2236 7.8098
v 0.2573 -7.5699 8.2456
v 2.8956 -7.6419 7.4590
v 5.4468 -7.7493 7.0997
v 7.2501 -6.9876 6.9279
v -13.4965 -5.1419 6.8295
v -12.8761 -5.1419 8.0795
v -8.4848 -6.2138 6.5597
v -8.2854 -6.2138 6.5597
v 0.8039 -5.1419 7.9684
v 2.8956 -5.1419 6.8874
v 5.3956 -5.1419 6.9920
v 7.1115 -5.1419 6.8230
v -13.5273 -3.6799 6.9040
v -12.0093 -2.7036 7.5829
v -10.0900 -1.7272 8.2618
v -3.6365 -1.5606 6.8038
v -2.7711 -1.5606 6.8038
v 0.7670 -2.7066 7.6548
v 2.8956 -3.5769 6.7560
v 5.3956 -3.8005 6.5357
v 6.6623 -3.8812 6.4835
v -14.1441 0.5938 8.5855
v -11.9276 -0.3346 7.5903
v -9.3957 -0.8101 7.5455
v -6.9969 0.2622 7.8203
v -4.4848 -0.2005 7.7618
v -2.1362 -0.2707 7.6417
v -0.1308 -0.3265 7.6762
v -14.1441 1.6577 8.5855
v -12.9360 1.6577 8.5855
v -6.0919 1.2902 8.7198
v -5.3330 1.2902 8.7198
v -1.5010 2.3581 8.3424
v -0.2536 2.3581 8.3424
v -1.0697 3.7448 8.6244
v -0.5819 3.7448 8.6244
v -6.2521 -14.1260 9.2094
v -5.5526 -14.1260 9.2094
v -8.8822 -11.9434 10.2211
v -7.0930 -12.9206 10.1141
v -5.3356 -12.4793 10.1141
v -18.5393 -9.3681 11.2771
v -17.1044 -9.6762 10.9858
v -15.2467 -9.4614 11.0180
v -11.1809 -9.1893 11.2908
v -9.8243 -10.0703 10.3629
v -4.2159 -9.9522 10.3229
v -2.1044 -9.1419 10.8998
v -0.4186 -9.1247 10.9563
v -18.5393 -8.5761 11.2771
v -17.1044 -8.0730 10.9858
v -14.6001 -7.3943 11.1436
v -12.0763 -7.5513 10.4467
v -10.1006 -8.4297 9.6241
v -3.6863 -8.6335 9.5575
v -2.1044 -8.2957 9.6498
v -0.1225 -7.5699 10.1622
v -13.9536 -5.8289 11.2693
v -12.9131 -5.0541 10.3500
v 0.1737 -5.1419 10.2211
v -13.5985 -2.0656 11.1264
v -12.3446 -2.7297 10.4001
v -10.0900 -1.7272 9.6739
v -1.4632 -1.5098 11.4317
v -0.1376 -2.4626 10.4474
v -16.0759 0.8440 10.7223
v -14.7046 -0.1144 10.0910
v -12.1034 -0.2005 10.0944
v -9.5453 -0.3610 10.4962
v -7.4549 0.1545 10.2211
v -3.9223 0.2497 10.2211
v -2.3507 -0.4244 10.7399
v 0.0560 -0.3507 10.4474
v -16.1923 2.3581 10.6192
v -14.6290 2.6137 10.0698
v -12.1034 1.9757 10.3796
v -10.6673 1.2096 11.3186
v -6.2049 1.3411 10.2211
v -5.1723 1.3411 10.2211
v -1.7131 2.5357 10.3418
v -0.1451 2.5357 10.3418
v -16.0834 3.8077 11.0840
v -15.1139 3.8077 11.0840
v -1.0697 3.7448 9.5890
v -0.5819 3.7448 9.5890
v -18.4190 -11.4514 13.7138
v -17.1044 -11.4913 13.6194
v -15.7552 -11.4650 13.7595
v -8.9046 -11.8598 12.0171
v -7.1044 -11.8521 12.1770
v -5.7257 -11.5377 11.8663
v -18.6364 -10.1776 12.8167
v -17.1044 -10.9262 12.3694
v -14.6677 -10.0587 12.9096
v -12.0503 -9.1635 12.8242
v -9.6845 -10.4002 12.7987
v -7.0105 -10.1870 13.2573
v -4.7772 -9.9522 12.0394
v -2.1044 -9.1419 11.9395
v -0.4186 -9.1247 11.9130
v -18.6584 -8.4004 12.7211
v -17.1153 -7.0331 12.5148
v -14.6001 -7.3943 11.8018
v -12.8476 -8.3395 12.0597
v -6.1146 -8.0688 13.5070
v -4.8312 -7.3980 13.2727
v -2.1044 -7.6419 13.1004
v -0.0792 -7.6419 12.3753
v -18.8797 -4.3731 13.3422
v -17.1153 -5.1806 13.0778
v -14.7139 -5.0541 11.9959
v -13.2566 -4.1623 11.5391
v -4.5508 -5.1419 13.4603
v -2.1044 -5.1419 13.0221
v -0.2346 -5.1419 12.2830
v -19.1426 -2.6419 13.1970
v -17.0844 -2.7734 13.2922
v -14.5877 -2.8800 12.7054
v -13.2566 -3.7323 11.5391
v -8.7236 -1.7972 13.6094
v -7.1044 -2.1680 13.6611
v -4.8347 -2.7696 13.0794
v -2.2197 -2.4626 11.8016
v -0.6257 -3.1764 11.7898
v -18.8800 -1.1068 13.5679
v -16.9902 -0.1314 12.6639
v -14.8615 -0.0503 12.6443
v -11.5246 0.8698 13.5587
v -9.6954 -0.0846 12.7507
v -6.9923 -0.1802 12.3669
v -4.6216 -0.3586 12.1023
v -2.2766 -0.4965 11.6209
v -0.4734 0.3434 11.7399
v -16.1923 2.3581 11.9036
v -14.2568 2.3565 12.5928
v -12.2565 1.6671 12.7236
v -10.6673 1.2096 11.8920
v -6.0842 1.2367 11.7107
v -5.4664 1.2367 11.7107
v -1.4234 1.8207 11.7399
v -0.4734 1.8207 11.7399
v -16.0834 3.8077 11.7591
v -15.1139 3.8077 11.7591
v -18.4041 -11.4371 15.2211
v -17.3532 -11.4719 15.0532
v -15.7552 -11.4650 14.1080
v -19.0276 -10.1419 15.2211
v -16.4836 -10.1419 15.9436
v -14.7818 -9.7790 15.2861
v -12.1044 -9.2598 15.2211
v -9.6751 -9.4169 15.2145
v -7.7813 -9.3838 14.3768
v -28.4838 -7.1797 16.3918
v -27.8493 -7.1797 16.3918
v -18.9549 -7.6882 15.3903
v -16.9089 -7.8851 15.5670
v -15.4750 -8.8844 16.4643
v -8.8888 -8.1050 16.0435
v -7.2210 -7.2536 15.0085
v -5.8158 -6.4021 13.9736
v -28.4838 -6.3045 16.3918
v -27.8493 -6.3045 16.3918
v -19.1893 -5.1806 15.3903
v -17.9559 -6.0397 14.6698
v -6.6037 -5.1419 15.2625
v -5.8008 -5.1419 14.0125
v -20.9427 -1.7497 16.1287
v -20.4030 -2.6066 15.2657
v -16.3573 -2.2039 15.2211
v -14.6879 -2.2577 15.3549
v -12.1044 -1.8385 16.0218
v -9.5759 -1.8735 15.2278
v -6.9701 -3.1101 15.0027
v -5.8216 -3.6881 14.0238
v -20.9427 -1.2446 16.1287
v -19.6698 -0.8301 15.2657
v -17.6073 -0.8000 15.2211
v -13.8051 -0.1419 14.5245
v -12.2565 -0.0349 14.6706
v -10.3902 -0.7969 14.3990
v -13.3996 1.1433 14.0693
v -13.1913 1.1433 14.0693
v -18.3560 -11.3927 16.4783
v -18.3524 -11.3927 16.4783
v -11.0377 -11.5076 18.7264
v -9.6044 -11.5288 18.6800
v -8.2897 -11.4588 18.8276
v -28.8713 -8.9497 18.1991
v -27.9779 -8.9497 18.1991
v -19.1325 -10.3161 17.4754
v -17.1072 -10.3706 17.3124
v -14.6268 -9.3300 17.4764
v -11.9644 -10.1749 17.8243
v -9.6751 -10.0870 17.6602
v -8.2617 -10.1419 18.7660
v -31.1802 -7.1488 18.5980
v -29.5109 -7.9975 17.5652
v -27.0802 -7.9469 17.4044
v -25.2507 -7.0475 18.2763
v -21.4165 -6.8969 18.6050
v -20.2332 -7.6949 17.7514
v -15.8620 -8.8844 16.4799
v -15.4750 -8.8844 16.4799
v -8.9150 -7.6114 17.6749
v -8.3115 -7.6114 17.6749
v -31.1802 -6.0085 18.5980
v -29.4320 -5.8305 17.7472
v -27.0513 -5.8641 17.5542
v -25.2507 -6.0644 18.2763
v -21.5351 -5.1419 18.3915
v -20.2541 -5.1419 17.1415
v -11.0458 -4.2008 18.8436
v -9.7065 -5.0772 18.1957
v -7.8537 -5.1419 16.8475
v -21.0714 -2.7455 17.5795
v -20.0816 -2.7324 17.6342
v -16.9812 -1.8256 17.7950
v -14.6044 -1.9973 16.9943
v -11.9220 -2.5230 17.7642
v -9.6044 -2.9399 17.3486
v -7.7138 -3.2207 16.9354
v -20.9427 -1.2446 16.5947
v -19.6044 -0.9034 16.9366
v -16.9812 -0.8895 17.7950
v -14.7292 -0.0915 18.0547
v -12.4351 -0.1419 18.0877
v -13.9790 1.5146 18.4129
v -12.6848 1.5146 18.4129
v -11.0377 -11.5076 19.1419
v -9.6044 -11.5288 19.1700
v -8.2897 -11.4588 19.0655
v -28.7776 -8.9448 20.2211
v -28.0204 -8.9448 20.2211
v -23.6210 -8.9520 21.3828
v -22.1044 -9.0641 21.0724
v -19.7649 -9.5850 20.2051
v -17.1044 -10.1054 20.2211
v -14.6044 -9.6627 20.2211
v -11.9644 -10.2987 20.0736
v -9.5430 -10.0613 20.2787
v -8.2617 -10.1419 19.2275
v -33.5876 -7.0469 21.2244
v -32.0499 -7.4213 20.3231
v -30.0276 -8.4374 20.2211
v -26.7704 -8.5470 20.2211
v -24.4358 -7.8286 20.2443
v -22.1917 -7.6949 19.7330
v -20.7052 -8.5635 19.3612
v -11.1169 -6.5599 21.2561
v -9.6383 -7.6722 20.2373
v -8.2955 -8.7845 19.2186
v -33.5876 -6.0001 21.2244
v -32.0499 -5.6933 20.3231
v -29.6044 -4.8435 20.2211
v -27.3008 -4.4202 20.4156
v -24.4922 -5.1954 19.7001
v -22.7851 -5.1419 19.3267
v -13.8904 -4.3389 21.2154
v -11.9147 -5.1032 20.4024
v -10.6078 -5.8675 19.5894
v -26.5983 -3.8228 21.3787
v -24.6044 -3.4321 21.0314
v -22.0617 -3.0980 20.1748
v -19.6044 -2.6392 20.2211
v -17.0342 -1.9100 20.4442
v -14.8404 -2.4525 21.3209
v -12.5483 -2.6119 20.3177
v -16.1541 -0.8913 19.7597
v -15.5766 -0.0915 20.4442
v -12.0923 -0.1419 20.2211
v -14.3051 1.7002 20.2211
v -12.6185 1.7002 20.2211
v -33.5375 -9.0532 23.3608
v -32.7001 -9.0532 23.3608
v -28.8385 -8.9900 22.7211
v -28.1377 -8.9900 22.7211
v -23.6210 -8.9520 21.6339
v -22.1044 -9.0641 21.7455
v -19.6044 -9.2280 21.9687
v -17.0508 -9.1716 22.7473
v -14.6044 -9.5504 22.7211
v -12.1044 -9.7736 22.7211
v -10.3035 -9.2557 22.7211
v -33.7755 -7.7849 22.6049
v -31.9618 -8.4294 22.6049
v -30.0885 -8.4476 22.7211
v -26.8877 -8.4585 22.7211
v -24.5144 -8.2852 22.5688
v -21.8927 -7.6319 23.1395
v -19.8310 -7.7211 23.3180
v -17.8484 -8.6073 23.5982
v -11.1796 -6.7412 22.7211
v -10.3035 -7.9912 22.7211
v -33.8292 -5.1568 22.6998
v -32.1044 -4.5563 21.9035
v -29.6044 -4.2297 21.6530
v -28.2650 -3.8981 21.5183
v -20.9182 -6.2960 23.8859
v -20.8153 -6.2960 23.8859
v -16.4139 -4.1242 23.4052
v -14.6760 -4.5781 22.6316
v -12.4296 -5.8254 22.7211
v -33.7739 -2.6419 23.3434
v -32.1044 -2.6419 22.6063
v -29.6828 -2.8120 22.9097
v -27.3008 -3.6450 22.4995
v -24.6044 -3.1635 22.7211
v -22.1044 -2.6275 22.7211
v -19.6044 -2.6568 22.7211
v -17.1901 -3.0524 22.6316
v -14.8404 -2.4525 21.6588
v -13.2090 -1.7586 21.5791
v -33.6412 -1.0469 23.5864
v -32.1044 -0.9017 23.4239
v -30.5685 -1.0833 23.6263
v -14.4136 -0.1419 21.7434
v -13.0117 -0.1419 21.7434
v -13.9974 1.4910 21.7261
v -13.0428 1.4910 21.7261
v -33.5375 -9.0532 24.4047
v -32.7001 -9.0532 24.4047
v -28.9526 -9.0100 24.1145
v -28.1342 -9.0100 24.1145
v -16.1817 -9.0309 24.1219
v -14.6044 -9.3196 24.3499
v -12.1044 -9.3673 24.3640
v -10.6389 -9.0945 24.1407
v -33.7058 -7.6419 24.7040
v -31.9618 -7.8541 24.9423
v -29.7096 -7.7170 25.1969
v -27.2223 -8.0074 25.0572
v -24.6044 -7.4380 25.2211
v -22.5935 -6.8284 25.2211
v -19.1487 -6.9407 24.5622
v -17.0508 -7.7211 24.6522
v -14.6044 -7.6419 24.9189
v -11.9571 -7.5705 24.5047
v -10.6389 -8.3562 24.1407
v -33.7085 -4.9818 25.2972
v -32.1044 -5.7361 26.1099
v -30.4665 -6.2010 26.2793
v -23.4907 -4.0333 26.0768
v -22.0138 -5.1647 25.1151
v -19.8310 -5.3344 24.5303
v -17.1901 -5.0313 24.6569
v -14.6044 -5.6644 24.5401
v -12.6922 -6.0230 24.3366
v -33.7093 -2.7800 25.3272
v -32.6530 -2.0388 26.2312
v -29.3639 -2.5320 25.2211
v -27.1044 -3.4938 25.2211
v -24.4362 -3.5720 25.2345
v -22.1044 -3.5069 24.4371
v -19.6044 -3.4870 24.2268
v -18.0806 -3.7165 24.1298
v -33.6412 -1.0469 24.5645
v -31.9336 -0.9831 25.3272
v -30.6139 -1.1397 25.2211
v -28.7999 -6.6050 26.7190
v -27.1044 -6.7582 26.8960
v -24.6044 -6.7348 26.8820
v -23.1094 -6.5739 26.7002
v -33.3866 -4.0417 26.5278
v -32.1044 -4.4861 26.9402
v -29.6217 -5.2774 26.9690
v -27.1044 -5.1419 27.0630
v -24.4362 -4.9767 26.9255
v -23.1094 -5.7000 26.7002
v -33.3866 -3.7055 26.5278
v -31.9336 -2.7800 26.8688
v -29.8336 -2.8838 26.8427
v -27.1044 -3.7506 26.6381
v -25.1573 -3.7170 26.6806
v -30.9864 -1.3642 26.5084
v -30.8197 -1.3642 26.5084
f 4 2 1
f 4 5 2
f 6 2 5
f 6 3 2
f 10 8 7
f 10 11 8
f 11 9 8
f 11 12 9
f 14 1 2
f 14 13 1
f 3 14 2
f 3 15 14
f 17 12 11
f 17 18 12
f 19 1 13
f 19 4 1
f 18 13 12
f 18 19 13
f 20 5 4
f 20 4 19
f 21 15 3
f 21 3 6
f 6 5 20
f 6 20 21
f 21 16 15
f 21 22 16
f 24 20 23
f 24 21 20
f 24 22 21
f 24 25 22
f 26 24 23
f 26 27 24
f 27 25 24
f 27 28 25
f 29 27 26
f 29 30 27
f 31 27 30
f 31 28 27
f 34 33 32
f 34 35 33
f 39 34 38
f 39 35 34
f 39 36 35
f 39 40 36
f 44 37 43
f 44 38 37
f 45 38 44
f 45 39 38
f 46 39 45
f 46 40 39
f 48 7 8
f 48 47 7
f 9 48 8
f 9 49 48
f 49 42 41
f 49 50 42
f 52 43 51
f 52 44 43
f 53 44 52
f 53 45 44
f 53 46 45
f 53 54 46
f 47 10 7
f 47 55 10
f 56 11 10
f 56 10 55
f 57 49 9
f 57 9 12
f 13 57 12
f 13 58 57
f 57 50 49
f 57 58 50
f 14 58 13
f 14 59 58
f 59 50 58
f 59 51 50
f 60 14 15
f 60 59 14
f 59 52 51
f 59 60 52
f 16 60 15
f 16 61 60
f 60 53 52
f 60 61 53
f 62 53 61
f 62 54 53
f 56 17 11
f 56 64 17
f 63 56 55
f 63 64 56
f 65 18 17
f 65 17 64
f 66 19 18
f 66 18 65
f 67 20 19
f 67 19 66
f 68 61 16
f 68 16 22
f 67 23 20
f 67 71 23
f 70 67 66
f 70 71 67
f 72 68 22
f 72 22 25
f 73 68 72
f 73 69 68
f 74 23 71
f 74 26 23
f 75 72 25
f 75 25 28
f 74 29 26
f 74 76 29
f 77 30 29
f 77 29 76
f 75 28 31
f 75 31 78
f 78 31 30
f 78 30 77
f 33 81 32
f 33 82 81
f 81 80 79
f 81 82 80
f 84 32 81
f 84 34 32
f 85 82 33
f 85 33 35
f 36 85 35
f 36 86 85
f 85 83 82
f 85 86 83
f 84 38 34
f 84 88 38
f 38 87 37
f 38 88 87
f 90 86 36
f 90 36 40
f 89 85 86
f 89 86 90
f 42 92 41
f 42 93 92
f 87 43 37
f 87 94 43
f 95 94 87
f 95 87 88
f 96 90 40
f 96 40 46
f 99 47 48
f 99 98 47
f 100 41 92
f 100 49 41
f 100 48 49
f 100 99 48
f 100 91 99
f 100 92 91
f 101 93 42
f 101 42 50
f 102 43 94
f 102 51 43
f 51 101 50
f 51 102 101
f 101 94 93
f 101 102 94
f 96 46 54
f 96 54 104
f 98 55 47
f 98 107 55
f 106 98 97
f 106 107 98
f 109 102 103
f 109 103 110
f 104 54 62
f 104 62 112
f 62 61 111
f 62 111 112
f 112 105 104
f 112 113 105
f 107 63 55
f 107 114 63
f 115 64 63
f 115 63 114
f 114 107 108
f 114 108 115
f 116 65 64
f 116 64 115
f 117 66 65
f 117 65 116
f 111 61 68
f 111 68 118
f 69 118 68
f 69 119 118
f 119 111 118
f 119 112 111
f 120 112 119
f 120 113 112
f 117 70 66
f 117 121 70
f 122 71 70
f 122 70 121
f 124 119 69
f 124 69 73
f 73 72 123
f 73 123 124
f 124 123 118
f 124 118 119
f 122 74 71
f 122 125 74
f 126 123 72
f 126 72 75
f 125 76 74
f 125 128 76
f 129 77 76
f 129 76 128
f 130 126 75
f 130 75 78
f 78 77 129
f 78 129 130
f 131 126 130
f 131 127 126
f 80 132 79
f 80 133 132
f 134 79 132
f 134 81 79
f 135 133 80
f 135 80 82
f 134 132 133
f 134 133 135
f 83 135 82
f 83 136 135
f 137 81 134
f 137 84 81
f 137 134 135
f 137 135 138
f 139 136 83
f 139 83 86
f 139 86 85
f 139 85 138
f 138 135 136
f 138 136 139
f 137 88 84
f 137 143 88
f 138 85 89
f 138 89 144
f 144 143 137
f 144 137 138
f 145 89 90
f 145 144 89
f 152 91 92
f 152 151 91
f 153 92 93
f 153 152 92
f 153 140 152
f 153 141 140
f 94 153 93
f 94 154 153
f 153 142 141
f 153 154 142
f 143 95 88
f 143 155 95
f 95 154 94
f 95 155 154
f 145 90 96
f 145 96 156
f 156 146 145
f 156 157 146
f 158 146 157
f 158 147 146
f 159 149 148
f 159 160 149
f 161 97 98
f 161 160 97
f 160 150 149
f 160 161 150
f 162 91 151
f 162 99 91
f 162 98 99
f 162 161 98
f 103 102 164
f 103 164 165
f 166 156 96
f 166 96 104
f 105 166 104
f 105 167 166
f 166 157 156
f 166 167 157
f 160 106 97
f 160 169 106
f 168 160 159
f 168 169 160
f 170 107 106
f 170 106 169
f 108 107 170
f 108 170 171
f 164 102 109
f 164 109 173
f 173 172 163
f 173 163 164
f 165 110 103
f 165 174 110
f 174 109 110
f 174 173 109
f 174 164 173
f 174 165 164
f 177 167 105
f 177 105 113
f 171 115 108
f 171 179 115
f 178 171 170
f 178 179 171
f 116 115 179
f 116 179 180
f 117 116 180
f 117 180 181
f 119 118 183
f 119 183 184
f 184 183 175
f 184 175 176
f 177 113 120
f 177 120 185
f 120 119 184
f 120 184 185
f 186 179 178
f 186 187 179
f 187 180 179
f 187 188 180
f 181 121 117
f 181 189 121
f 190 122 121
f 190 121 189
f 189 181 182
f 189 182 190
f 191 183 118
f 191 118 123
f 194 188 187
f 194 195 188
f 196 188 195
f 196 189 188
f 197 122 190
f 197 125 122
f 199 191 123
f 199 123 126
f 127 199 126
f 127 200 199
f 199 192 191
f 199 200 192
f 201 192 200
f 201 193 192
f 197 128 125
f 197 202 128
f 203 129 128
f 203 128 202
f 202 197 198
f 202 198 203
f 204 130 129
f 204 129 203
f 200 127 131
f 200 131 205
f 131 130 204
f 131 204 205
f 205 201 200
f 205 206 201
f 207 203 202
f 207 208 203
f 208 204 203
f 208 209 204
f 210 204 209
f 210 205 204
f 210 206 205
f 210 211 206
f 212 208 207
f 212 213 208
f 213 209 208
f 213 214 209
f 215 209 214
f 215 210 209
f 216 210 215
f 216 211 210
f 222 218 217
f 222 223 218
f 225 220 219
f 225 226 220
f 227 140 141
f 227 226 140
f 226 221 220
f 226 227 221
f 142 227 141
f 142 228 227
f 229 222 228
f 229 223 222
f 230 143 144
f 230 229 143
f 229 224 223
f 229 230 224
f 145 230 144
f 145 231 230
f 146 231 145
f 146 232 231
f 147 232 146
f 147 233 232
f 149 234 148
f 149 235 234
f 150 235 149
f 150 236 235
f 238 140 226
f 238 152 140
f 238 151 152
f 238 237 151
f 239 228 142
f 239 142 154
f 229 155 143
f 229 240 155
f 155 239 154
f 155 240 239
f 239 229 228
f 239 240 229
f 233 147 158
f 233 158 242
f 158 157 241
f 158 241 242
f 243 148 234
f 243 159 148
f 243 234 235
f 243 235 244
f 245 236 150
f 245 150 161
f 245 244 235
f 245 235 236
f 246 151 237
f 246 162 151
f 246 161 162
f 246 245 161
f 246 236 245
f 246 237 236
f 248 164 163
f 248 163 247
f 250 241 157
f 250 157 167
f 243 168 159
f 243 251 168
f 252 169 168
f 252 168 251
f 252 251 243
f 252 243 244
f 253 170 169
f 253 169 252
f 247 163 172
f 247 172 254
f 248 173 164
f 248 255 173
f 173 254 172
f 173 255 254
f 254 248 247
f 254 255 248
f 255 248 249
f 255 249 256
f 258 176 175
f 258 175 257
f 250 167 177
f 250 177 259
f 262 251 261
f 262 252 251
f 253 178 170
f 253 263 178
f 262 253 252
f 262 263 253
f 181 180 265
f 181 265 266
f 182 181 266
f 182 266 267
f 267 255 256
f 267 256 268
f 269 257 175
f 269 175 183
f 268 256 257
f 268 257 269
f 258 184 176
f 258 270 184
f 269 258 257
f 269 270 258
f 259 177 185
f 259 185 271
f 185 184 270
f 185 270 271
f 273 260 272
f 273 261 260
f 274 261 273
f 274 262 261
f 263 186 178
f 263 275 186
f 274 263 262
f 274 275 263
f 276 187 186
f 276 186 275
f 275 263 264
f 275 264 276
f 265 180 188
f 265 188 277
f 189 277 188
f 189 278 277
f 277 266 265
f 277 278 266
f 279 182 267
f 279 190 182
f 279 266 278
f 279 267 266
f 281 269 183
f 281 183 191
f 280 268 269
f 280 269 281
f 282 191 192
f 282 281 191
f 281 270 269
f 281 282 270
f 193 282 192
f 193 283 282
f 282 271 270
f 282 283 271
f 276 194 187
f 276 284 194
f 195 194 284
f 195 284 285
f 278 189 196
f 278 196 286
f 286 196 195
f 286 195 285
f 287 190 279
f 287 197 190
f 288 198 197
f 288 197 287
f 290 283 193
f 290 193 201
f 289 282 283
f 289 283 290
f 292 285 291
f 292 286 285
f 294 198 288
f 294 203 198
f 294 202 203
f 294 293 202
f 294 287 293
f 294 288 287
f 295 290 201
f 295 201 206
f 293 207 202
f 293 296 207
f 299 295 206
f 299 206 211
f 300 207 296
f 300 212 207
f 213 212 300
f 213 300 301
f 300 296 297
f 300 297 301
f 214 213 301
f 214 301 302
f 301 297 298
f 301 298 302
f 215 214 302
f 215 302 303
f 299 211 216
f 299 216 304
f 304 216 215
f 304 215 303
f 306 303 305
f 306 304 303
f 218 309 217
f 218 310 309
f 313 219 220
f 313 312 219
f 312 308 307
f 312 313 308
f 314 220 221
f 314 313 220
f 315 217 309
f 315 222 217
f 316 310 218
f 316 218 223
f 224 316 223
f 224 317 316
f 316 311 310
f 316 317 311
f 312 225 219
f 312 319 225
f 320 226 225
f 320 225 319
f 321 314 221
f 321 221 227
f 322 222 315
f 322 228 222
f 322 227 228
f 322 321 227
f 323 322 315
f 323 315 316
f 324 317 224
f 324 224 230
f 231 324 230
f 231 325 324
f 232 325 231
f 232 326 325
f 327 232 233
f 327 326 232
f 331 236 237
f 331 330 236
f 331 318 330
f 331 319 318
f 320 238 226
f 320 332 238
f 238 331 237
f 238 332 331
f 331 320 319
f 331 332 320
f 333 332 320
f 333 320 321
f 334 325 326
f 334 326 335
f 336 327 233
f 336 233 242
f 242 241 335
f 242 335 336
f 337 329 328
f 337 338 329
f 339 236 330
f 339 245 236
f 339 244 245
f 339 338 244
f 339 329 338
f 339 330 329
f 249 248 340
f 249 340 341
f 344 335 241
f 344 241 250
f 344 343 334
f 344 334 335
f 346 244 338
f 346 252 244
f 346 251 252
f 346 345 251
f 346 337 345
f 346 338 337
f 340 248 255
f 340 255 349
f 341 256 249
f 341 350 256
f 349 341 340
f 349 350 341
f 351 257 256
f 351 256 350
f 352 351 342
f 352 342 343
f 344 250 259
f 344 259 353
f 353 352 343
f 353 343 344
f 345 261 251
f 345 355 261
f 355 260 261
f 355 354 260
f 264 263 357
f 264 357 358
f 359 347 348
f 359 348 360
f 361 349 255
f 361 255 267
f 268 361 267
f 268 362 361
f 361 350 349
f 361 362 350
f 363 257 351
f 363 269 257
f 362 351 350
f 362 363 351
f 364 363 351
f 364 351 352
f 353 259 271
f 353 271 365
f 364 352 353
f 364 353 365
f 366 260 354
f 366 272 260
f 273 272 366
f 273 366 367
f 368 274 273
f 368 273 367
f 357 263 275
f 357 275 369
f 369 275 274
f 369 274 368
f 369 368 356
f 369 356 357
f 370 264 358
f 370 276 264
f 369 358 357
f 369 370 358
f 279 278 371
f 279 371 372
f 373 362 268
f 373 268 280
f 374 269 363
f 374 281 269
f 374 280 281
f 374 373 280
f 374 362 373
f 374 363 362
f 376 365 271
f 376 271 283
f 283 282 375
f 283 375 376
f 378 367 377
f 378 368 367
f 370 284 276
f 370 379 284
f 380 285 284
f 380 284 379
f 371 278 286
f 371 286 381
f 372 287 279
f 372 382 287
f 382 371 381
f 382 372 371
f 375 282 289
f 375 289 383
f 384 289 290
f 384 383 289
f 380 291 285
f 380 386 291
f 385 380 379
f 385 386 380
f 381 286 292
f 381 292 387
f 292 291 386
f 292 386 387
f 382 293 287
f 382 388 293
f 387 382 381
f 387 388 382
f 384 290 295
f 384 295 391
f 392 293 388
f 392 296 293
f 297 296 392
f 297 392 393
f 392 388 389
f 392 389 393
f 298 297 393
f 298 393 394
f 393 389 390
f 393 390 394
f 391 295 299
f 391 299 396
f 398 298 394
f 398 302 298
f 397 394 393
f 397 398 394
f 303 302 398
f 303 398 399
f 400 396 299
f 400 299 304
f 400 399 395
f 400 395 396
f 402 397 401
f 402 398 397
f 399 305 303
f 399 403 305
f 402 399 398
f 402 403 399
f 400 304 306
f 400 306 404
f 404 306 305
f 404 305 403
f 404 403 399
f 404 399 400
f 308 405 307
f 308 406 405
f 409 309 310
f 409 408 309
f 311 409 310
f 311 410 409
f 405 312 307
f 405 411 312
f 406 308 313
f 406 313 412
f 411 405 406
f 411 406 412
f 314 412 313
f 314 413 412
f 408 315 309
f 408 414 315
f 414 407 413
f 414 408 407
f 415 316 315
f 415 315 414
f 415 414 408
f 415 408 409
f 416 410 311
f 416 311 317
f 416 415 409
f 416 409 410
f 411 319 312
f 411 418 319
f 418 318 319
f 418 417 318
f 420 413 314
f 420 314 321
f 321 320 419
f 321 419 420
f 322 420 321
f 322 421 420
f 421 413 420
f 421 414 413
f 415 323 316
f 415 422 323
f 323 421 322
f 323 422 421
f 421 415 414
f 421 422 415
f 416 317 324
f 416 324 423
f 422 415 416
f 422 416 423
f 424 324 325
f 424 423 324
f 327 425 326
f 327 426 425
f 428 328 329
f 428 427 328
f 429 318 417
f 429 330 318
f 330 428 329
f 330 429 428
f 430 429 417
f 430 417 418
f 431 419 320
f 431 320 332
f 420 333 321
f 420 432 333
f 333 431 332
f 333 432 431
f 432 419 431
f 432 420 419
f 433 422 423
f 433 423 434
f 424 325 334
f 424 334 435
f 434 423 424
f 434 424 435
f 436 326 425
f 436 335 326
f 437 426 327
f 437 327 336
f 336 335 436
f 336 436 437
f 436 425 426
f 436 426 437
f 427 337 328
f 427 439 337
f 441 435 334
f 441 334 343
f 441 343 342
f 441 342 440
f 443 337 439
f 443 345 337
f 443 438 442
f 443 439 438
f 445 348 347
f 445 347 444
f 446 440 342
f 446 342 351
f 443 355 345
f 443 448 355
f 448 354 355
f 448 447 354
f 448 442 447
f 448 443 442
f 357 356 449
f 357 449 450
f 444 347 359
f 444 359 452
f 445 360 348
f 445 453 360
f 453 359 360
f 453 452 359
f 454 446 351
f 454 351 363
f 364 454 363
f 364 455 454
f 456 364 365
f 456 455 364
f 447 366 354
f 447 457 366
f 458 367 366
f 458 366 457
f 457 447 448
f 457 448 458
f 449 356 368
f 449 368 459
f 450 369 357
f 450 460 369
f 460 449 459
f 460 450 449
f 370 369 460
f 370 460 461
f 460 450 451
f 460 451 461
f 456 365 376
f 456 376 464
f 464 376 375
f 464 375 463
f 464 463 455
f 464 455 456
f 458 377 367
f 458 466 377
f 465 458 457
f 465 466 458
f 459 368 378
f 459 378 467
f 467 378 377
f 467 377 466
f 468 370 461
f 468 379 370
f 463 375 383
f 463 383 471
f 471 470 462
f 471 462 463
f 472 383 384
f 472 471 383
f 473 379 468
f 473 385 379
f 386 385 473
f 386 473 474
f 473 468 469
f 473 469 474
f 387 386 474
f 387 474 475
f 388 387 475
f 388 475 476
f 389 388 476
f 389 476 477
f 390 389 477
f 390 477 478
f 479 478 470
f 479 470 471
f 480 472 384
f 480 384 391
f 481 477 476
f 481 482 477
f 483 390 478
f 483 394 390
f 394 482 393
f 394 483 482
f 484 483 478
f 484 478 479
f 485 480 391
f 485 391 396
f 485 396 395
f 485 395 484
f 485 484 479
f 485 479 480
f 486 393 482
f 486 397 393
f 487 486 482
f 487 482 483
f 488 484 395
f 488 395 399
f 486 401 397
f 486 489 401
f 490 402 401
f 490 401 489
f 491 488 399
f 491 399 403
f 491 403 402
f 491 402 490
f 493 407 408
f 493 492 407
f 495 411 412
f 495 494 411
f 496 407 492
f 496 413 407
f 496 412 413
f 496 495 412
f 497 493 408
f 497 408 414
f 498 414 415
f 498 497 414
f 494 418 411
f 494 501 418
f 498 415 422
f 498 422 503
f 506 427 428
f 506 505 427
f 507 428 429
f 507 506 428
f 507 499 506
f 507 500 499
f 508 418 501
f 508 430 418
f 430 507 429
f 430 508 507
f 508 500 507
f 508 501 500
f 503 422 433
f 503 433 510
f 509 502 503
f 509 503 510
f 511 433 434
f 511 510 433
f 512 434 435
f 512 511 434
f 514 427 505
f 514 439 427
f 514 438 439
f 514 513 438
f 514 504 513
f 514 505 504
f 515 510 511
f 515 511 516
f 512 435 441
f 512 441 517
f 517 441 440
f 517 440 516
f 517 516 511
f 517 511 512
f 518 438 513
f 518 442 438
f 520 445 444
f 520 444 519
f 521 516 440
f 521 440 446
f 522 442 518
f 522 447 442
f 523 448 447
f 523 447 522
f 451 450 524
f 451 524 525
f 526 519 444
f 526 444 452
f 527 445 520
f 527 453 445
f 527 452 453
f 527 526 452
f 521 446 454
f 521 454 528
f 529 454 455
f 529 528 454
f 523 458 448
f 523 531 458
f 531 457 458
f 531 530 457
f 530 523 522
f 530 531 523
f 524 450 460
f 524 460 533
f 460 459 532
f 460 532 533
f 525 461 451
f 525 534 461
f 534 524 533
f 534 525 524
f 536 529 455
f 536 455 463
f 536 463 462
f 536 462 535
f 535 528 529
f 535 529 536
f 530 465 457
f 530 537 465
f 538 466 465
f 538 465 537
f 537 530 531
f 537 531 538
f 532 459 467
f 532 467 539
f 539 467 466
f 539 466 538
f 540 532 539
f 540 533 532
f 541 461 534
f 541 468 461
f 542 469 468
f 542 468 541
f 544 535 462
f 544 462 470
f 472 545 471
f 472 546 545
f 547 539 538
f 547 548 539
f 548 540 539
f 548 549 540
f 550 540 549
f 550 541 540
f 542 474 469
f 542 551 474
f 550 542 541
f 550 551 542
f 475 474 551
f 475 551 552
f 553 476 475
f 553 475 552
f 555 544 470
f 555 470 478
f 555 478 477
f 555 477 554
f 555 554 543
f 555 543 544
f 545 479 471
f 545 556 479
f 557 546 472
f 557 472 480
f 557 480 479
f 557 479 556
f 556 545 546
f 556 546 557
f 558 476 553
f 558 481 476
f 559 554 477
f 559 477 482
f 559 482 481
f 559 481 558
f 559 558 553
f 559 553 554
f 561 483 484
f 561 560 483
f 560 487 483
f 560 563 487
f 487 562 486
f 487 563 562
f 561 484 488
f 561 488 564
f 564 563 560
f 564 560 561
f 562 489 486
f 562 565 489
f 490 489 565
f 490 565 566
f 566 565 562
f 566 562 563
f 564 488 491
f 564 491 567
f 567 491 490
f 567 490 566
f 567 566 563
f 567 563 564
f 493 568 492
f 493 569 568
f 572 494 495
f 572 571 494
f 568 496 492
f 568 573 496
f 496 572 495
f 496 573 572
f 569 493 497
f 569 497 574
f 574 573 568
f 574 568 569
f 575 497 498
f 575 574 497
f 577 499 500
f 577 576 499
f 578 494 571
f 578 501 494
f 578 500 501
f 578 577 500
f 578 570 577
f 578 571 570
f 580 575 498
f 580 498 503
f 580 503 502
f 580 502 579
f 579 574 575
f 579 575 580
f 582 504 505
f 582 581 504
f 576 506 499
f 576 583 506
f 583 505 506
f 583 582 505
f 579 502 509
f 579 509 585
f 586 509 510
f 586 585 509
f 587 504 581
f 587 513 504
f 589 583 584
f 589 584 590
f 586 510 515
f 586 515 592
f 591 585 586
f 591 586 592
f 593 515 516
f 593 592 515
f 594 513 587
f 594 518 513
f 594 587 588
f 594 588 595
f 597 596 589
f 597 589 590
f 520 519 598
f 520 598 599
f 593 516 521
f 593 521 601
f 600 592 593
f 600 593 601
f 594 522 518
f 594 602 522
f 603 602 594
f 603 594 595
f 604 598 519
f 604 519 526
f 605 520 599
f 605 527 520
f 527 604 526
f 527 605 604
f 604 599 598
f 604 605 599
f 607 601 521
f 607 521 528
f 608 522 602
f 608 530 522
f 531 530 608
f 531 608 609
f 534 533 610
f 534 610 611
f 613 607 528
f 613 528 535
f 613 612 606
f 613 606 607
f 609 538 531
f 609 614 538
f 610 533 540
f 610 540 616
f 617 534 611
f 617 541 534
f 617 540 541
f 617 616 540
f 616 611 610
f 616 617 611
f 621 613 535
f 621 535 544
f 621 544 543
f 621 543 620
f 621 620 612
f 621 612 613
f 614 547 538
f 614 622 547
f 548 547 622
f 548 622 623
f 622 614 615
f 622 615 623
f 549 548 623
f 549 623 624
f 625 550 549
f 625 549 624
f 626 551 550
f 626 550 625
f 627 552 551
f 627 551 626
f 628 553 552
f 628 552 627
f 628 627 618
f 628 618 619
f 629 620 543
f 629 543 554
f 629 554 553
f 629 553 628
f 629 628 619
f 629 619 620
f 633 570 571
f 633 632 570
f 634 571 572
f 634 633 571
f 635 572 573
f 635 634 572
f 636 573 574
f 636 635 573
f 637 631 630
f 637 638 631
f 639 570 632
f 639 577 570
f 639 576 577
f 639 638 576
f 640 634 635
f 640 635 641
f 636 574 579
f 636 579 642
f 582 643 581
f 582 644 643
f 645 576 638
f 645 583 576
f 645 582 583
f 645 644 582
f 646 584 583
f 646 583 645
f 642 579 585
f 642 585 648
f 649 581 643
f 649 587 581
f 588 587 649
f 588 649 650
f 649 643 644
f 649 644 650
f 645 583 589
f 645 589 651
f 646 590 584
f 646 652 590
f 651 646 645
f 651 652 646
f 648 585 591
f 648 591 655
f 655 654 647
f 655 647 648
f 656 591 592
f 656 655 591
f 657 588 650
f 657 595 588
f 651 589 596
f 651 596 658
f 657 650 651
f 657 651 658
f 652 597 590
f 652 659 597
f 659 596 597
f 659 658 596
f 660 653 654
f 660 654 661
f 661 654 655
f 661 655 662
f 656 592 600
f 656 600 663
f 662 655 656
f 662 656 663
f 664 600 601
f 664 663 600
f 657 603 595
f 657 666 603
f 603 665 602
f 603 666 665
f 669 668 661
f 669 661 662
f 670 669 662
f 670 662 663
f 671 664 601
f 671 601 607
f 671 607 606
f 671 606 670
f 671 670 663
f 671 663 664
f 665 608 602
f 665 672 608
f 609 608 672
f 609 672 673
f 672 665 666
f 672 666 673
f 676 675 667
f 676 667 668
f 677 676 668
f 677 668 669
f 678 670 606
f 678 606 612
f 678 677 669
f 678 669 670
f 679 609 673
f 679 614 609
f 615 614 679
f 615 679 680
f 679 673 674
f 679 674 680
f 685 619 618
f 685 618 684
f 685 684 676
f 685 676 677
f 686 678 612
f 686 612 620
f 686 620 619
f 686 619 685
f 686 685 677
f 686 677 678
f 687 615 680
f 687 623 615
f 624 623 687
f 624 687 688
f 687 680 681
f 687 681 688
f 689 625 624
f 689 624 688
f 688 681 682
f 688 682 689
f 626 625 689
f 626 689 690
f 689 682 683
f 689 683 690
f 691 684 618
f 691 618 627
f 691 627 626
f 691 626 690
f 696 692 695
f 696 693 692
f 631 699 630
f 631 700 699
f 702 632 633
f 702 701 632
f 702 694 701
f 702 695 694
f 634 702 633
f 634 703 702
f 702 696 695
f 702 703 696
f 705 635 636
f 705 704 635
f 706 698 697
f 706 707 698
f 699 637 630
f 699 709 637
f 710 700 631
f 710 631 638
f 710 638 637
f 710 637 709
f 711 632 701
f 711 639 632
f 711 638 639
f 711 710 638
f 711 700 710
f 711 701 700
f 712 703 634
f 712 634 640
f 704 641 635
f 704 713 641
f 641 712 640
f 641 713 712
f 712 704 703
f 712 713 704
f 705 636 642
f 705 642 714
f 713 704 705
f 713 705 714
f 715 707 706
f 715 716 707
f 716 708 707
f 716 717 708
f 718 708 717
f 718 709 708
f 719 638 710
f 719 645 638
f 719 644 645
f 719 718 644
f 719 709 718
f 719 710 709
f 723 714 642
f 723 642 648
f 723 648 647
f 723 647 722
f 723 722 713
f 723 713 714
f 724 716 715
f 724 725 716
f 725 717 716
f 725 726 717
f 718 650 644
f 718 727 650
f 726 718 717
f 726 727 718
f 728 651 650
f 728 650 727
f 652 651 728
f 652 728 729
f 731 730 720
f 731 720 721
f 732 722 647
f 732 647 654
f 732 654 653
f 732 653 731
f 732 731 721
f 732 721 722
f 734 657 658
f 734 733 657
f 733 728 727
f 733 734 728
f 729 659 652
f 729 735 659
f 735 658 659
f 735 734 658
f 735 728 734
f 735 729 728
f 735 729 730
f 735 730 736
f 731 653 660
f 731 660 737
f 737 736 730
f 737 730 731
f 738 660 661
f 738 737 660
f 739 657 733
f 739 666 657
f 740 739 733
f 740 733 734
f 741 736 737
f 741 737 742
f 738 661 668
f 738 668 743
f 743 668 667
f 743 667 742
f 743 742 737
f 743 737 738
f 744 666 739
f 744 673 666
f 674 673 744
f 674 744 745
f 744 739 740
f 744 740 745
f 747 742 667
f 747 667 675
f 748 675 676
f 748 747 675
f 749 674 745
f 749 680 674
f 681 680 749
f 681 749 750
f 749 745 746
f 749 746 750
f 751 682 681
f 751 681 750
f 683 682 751
f 683 751 752
f 748 676 684
f 748 684 753
f 752 747 748
f 752 748 753
f 755 683 752
f 755 690 683
f 754 752 751
f 754 755 752
f 756 753 684
f 756 684 691
f 691 690 755
f 691 755 756
f 760 757 759
f 760 758 757
f 762 692 693
f 762 761 692
f 764 759 763
f 764 760 759
f 767 692 761
f 767 695 692
f 767 694 695
f 767 766 694
f 768 762 693
f 768 693 696
f 771 697 698
f 771 770 697
f 772 764 763
f 772 773 764
f 774 699 700
f 774 773 699
f 775 694 766
f 775 701 694
f 775 700 701
f 775 774 700
f 775 765 774
f 775 766 765
f 776 768 696
f 776 696 703
f 704 776 703
f 704 777 776
f 779 697 770
f 779 706 697
f 779 769 778
f 779 770 769
f 771 698 707
f 771 707 780
f 708 780 707
f 708 781 780
f 782 699 773
f 782 709 699
f 782 708 709
f 782 781 708
f 782 772 781
f 782 773 772
f 783 777 704
f 783 704 713
f 785 706 779
f 785 715 706
f 784 779 778
f 784 785 779
f 790 721 720
f 790 720 789
f 791 783 713
f 791 713 722
f 791 722 721
f 791 721 790
f 792 715 785
f 792 724 715
f 793 725 724
f 793 724 792
f 726 725 793
f 726 793 794
f 795 727 726
f 795 726 794
f 796 795 786
f 796 786 787
f 798 789 720
f 798 720 730
f 798 730 729
f 798 729 797
f 798 797 788
f 798 788 789
f 799 727 795
f 799 733 727
f 734 733 799
f 734 799 800
f 799 795 796
f 799 796 800
f 801 797 729
f 801 729 735
f 801 800 796
f 801 796 797
f 802 735 736
f 802 801 735
f 800 740 734
f 800 803 740
f 803 800 801
f 803 801 804
f 802 736 741
f 802 741 805
f 804 801 802
f 804 802 805
f 806 741 742
f 806 805 741
f 807 740 803
f 807 745 740
f 746 745 807
f 746 807 808
f 807 803 804
f 807 804 808
f 809 808 804
f 809 804 805
f 806 742 747
f 806 747 810
f 809 805 806
f 809 806 810
f 811 746 808
f 811 750 746
f 751 750 811
f 751 811 812
f 811 808 809
f 811 809 812
f 810 747 752
f 810 752 813
f 812 809 810
f 812 810 813
f 814 752 753
f 814 813 752
f 815 751 812
f 815 754 751
f 816 755 754
f 816 754 815
f 815 812 813
f 815 813 816
f 814 753 756
f 814 756 817
f 817 756 755
f 817 755 816
f 816 813 814
f 816 814 817
f 819 757 758
f 819 818 757
f 818 759 757
f 818 821 759
f 822 819 758
f 822 758 760
f 824 761 762
f 824 823 761
f 821 763 759
f 821 826 763
f 826 820 825
f 826 821 820
f 822 760 764
f 822 764 827
f 829 765 766
f 829 828 765
f 823 767 761
f 823 830 767
f 767 829 766
f 767 830 829
f 831 824 762
f 831 762 768
f 831 830 823
f 831 823 824
f 833 769 770
f 833 832 769
f 771 833 770
f 771 834 833
f 835 763 826
f 835 772 763
f 835 825 834
f 835 826 825
f 836 827 764
f 836 764 773
f 828 774 765
f 828 837 774
f 774 836 773
f 774 837 836
f 838 837 828
f 838 828 829
f 839 838 829
f 839 829 830
f 831 768 776
f 831 776 840
f 839 830 831
f 839 831 840
f 841 776 777
f 841 840 776
f 832 778 769
f 832 842 778
f 843 842 832
f 843 832 833
f 844 834 771
f 844 771 780
f 845 772 835
f 845 781 772
f 845 780 781
f 845 844 780
f 844 835 834
f 844 845 835
f 846 838 839
f 846 839 847
f 848 847 839
f 848 839 840
f 841 777 783
f 841 783 849
f 848 840 841
f 848 841 849
f 842 784 778
f 842 850 784
f 785 784 850
f 785 850 851
f 850 842 843
f 850 843 851
f 787 786 853
f 787 853 854
f 856 789 788
f 856 788 855
f 856 855 846
f 856 846 847
f 790 789 856
f 790 856 857
f 857 856 847
f 857 847 848
f 849 783 791
f 849 791 858
f 858 791 790
f 858 790 857
f 858 857 848
f 858 848 849
f 851 792 785
f 851 860 792
f 861 793 792
f 861 792 860
f 860 851 852
f 860 852 861
f 794 793 861
f 794 861 862
f 863 853 786
f 863 786 795
f 795 794 862
f 795 862 863
f 854 796 787
f 854 864 796
f 864 853 863
f 864 854 853
f 865 855 788
f 865 788 797
f 865 797 796
f 865 796 864
f 867 859 866
f 867 860 859
f 869 862 868
f 869 863 862
f 870 865 864
f 870 871 865
f 872 871 870
f 872 873 871
f 819 874 818
f 819 875 874
f 874 821 818
f 874 877 821
f 877 820 821
f 877 876 820
f 875 819 822
f 875 822 878
f 878 877 874
f 878 874 875
f 876 825 820
f 876 883 825
f 878 822 827
f 878 827 884
f 887 880 879
f 887 888 880
f 888 881 880
f 888 889 881
f 891 825 883
f 891 834 825
f 891 833 834
f 891 890 833
f 891 882 890
f 891 883 882
f 892 884 827
f 892 827 836
f 837 892 836
f 837 893 892
f 892 885 884
f 892 893 885
f 838 893 837
f 838 894 893
f 893 886 885
f 893 894 886
f 896 833 890
f 896 843 833
f 895 890 889
f 895 896 890
f 897 894 838
f 897 838 846
f 899 843 896
f 899 851 843
f 900 852 851
f 900 851 899
f 897 846 855
f 897 855 902
f 905 859 860
f 905 904 859
f 905 898 904
f 905 899 898
f 900 861 852
f 900 906 861
f 905 900 899
f 905 906 900
f 907 862 861
f 907 861 906
f 864 863 908
f 864 908 909
f 902 855 865
f 902 865 910
f 910 909 901
f 910 901 902
f 904 866 859
f 904 912 866
f 912 903 911
f 912 904 903
f 905 860 867
f 905 867 913
f 867 866 912
f 867 912 913
f 914 905 913
f 914 906 905
f 907 868 862
f 907 915 868
f 908 863 869
f 908 869 916
f 869 868 915
f 869 915 916
f 909 870 864
f 909 917 870
f 910 865 871
f 910 871 918
f 920 911 919
f 920 912 911
f 921 870 917
f 921 872 870
f 922 918 871
f 922 871 873
f 873 872 921
f 873 921 922
f 921 917 918
f 921 918 922
f 927 876 877
f 927 926 876
f 928 877 878
f 928 927 877
f 930 879 880
f 930 929 879
f 930 923 929
f 930 924 923
f 881 930 880
f 881 931 930
f 930 925 924
f 930 931 925
f 926 883 876
f 926 933 883
f 933 882 883
f 933 932 882
f 934 933 926
f 934 926 927
f 928 878 884
f 928 884 935
f 934 927 928
f 934 928 935
f 936 884 885
f 936 935 884
f 886 936 885
f 886 937 936
f 938 879 929
f 938 887 879
f 888 887 938
f 888 938 939
f 940 931 881
f 940 881 889
f 940 889 888
f 940 888 939
f 941 882 932
f 941 890 882
f 941 889 890
f 941 940 889
f 941 931 940
f 941 932 931
f 942 934 935
f 942 935 943
f 943 935 936
f 943 936 944
f 945 937 886
f 945 886 894
f 944 936 937
f 944 937 945
f 940 895 889
f 940 948 895
f 948 939 947
f 948 940 939
f 949 896 895
f 949 895 948
f 950 943 944
f 950 944 951
f 952 945 894
f 952 894 897
f 952 951 944
f 952 944 945
f 954 946 953
f 954 947 946
f 955 947 954
f 955 948 947
f 956 896 949
f 956 899 896
f 956 898 899
f 956 955 898
f 956 948 955
f 956 949 948
f 959 950 951
f 959 951 960
f 961 952 897
f 961 897 902
f 961 902 901
f 961 901 960
f 961 960 951
f 961 951 952
f 962 954 953
f 962 963 954
f 964 898 955
f 964 904 898
f 964 903 904
f 964 963 903
f 967 907 906
f 967 906 966
f 967 966 957
f 967 957 958
f 967 958 959
f 967 959 968
f 969 960 901
f 969 901 909
f 969 909 908
f 969 908 968
f 968 959 960
f 968 960 969
f 970 909 910
f 970 969 909
f 971 903 963
f 971 911 903
f 971 963 964
f 971 964 972
f 913 912 972
f 913 972 973
f 966 906 914
f 966 914 974
f 914 913 973
f 914 973 974
f 974 973 965
f 974 965 966
f 975 907 967
f 975 915 907
f 976 968 908
f 976 908 916
f 976 916 915
f 976 915 975
f 976 975 967
f 976 967 968
f 977 909 969
f 977 917 909
f 978 970 910
f 978 910 918
f 978 918 917
f 978 917 977
f 977 969 970
f 977 970 978
f 971 919 911
f 971 979 919
f 980 972 912
f 980 912 920
f 920 919 979
f 920 979 980
f 980 979 971
f 980 971 972
f 982 923 924
f 982 981 923
f 983 924 925
f 983 982 924
f 984 923 981
f 984 929 923
f 983 925 931
f 983 931 986
f 985 982 983
f 985 983 986
f 987 931 932
f 987 986 931
f 988 932 933
f 988 987 932
f 989 933 934
f 989 988 933
f 984 938 929
f 984 992 938
f 993 939 938
f 993 938 992
f 994 993 985
f 994 985 986
f 989 934 942
f 989 942 996
f 995 988 989
f 995 989 996
f 997 942 943
f 997 996 942
f 998 991 990
f 998 999 991
f 1001 939 993
f 1001 947 939
f 1001 946 947
f 1001 1000 946
f 1001 992 1000
f 1001 993 992
f 997 943 950
f 997 950 1003
f 1002 996 997
f 1002 997 1003
f 1005 946 1000
f 1005 953 946
f 955 954 1006
f 955 1006 1007
f 1010 958 957
f 1010 957 1009
f 1011 1003 950
f 1011 950 959
f 1011 959 958
f 1011 958 1010
f 1011 1010 1002
f 1011 1002 1003
f 1005 962 953
f 1005 1013 962
f 1012 1005 1004
f 1012 1013 1005
f 1014 1006 954
f 1014 954 963
f 1014 963 962
f 1014 962 1013
f 1015 955 1007
f 1015 964 955
f 1015 1007 1008
f 1015 1008 1016
f 1017 1009 957
f 1017 957 966
f 1017 966 965
f 1017 965 1016
f 1017 1016 1008
f 1017 1008 1009
f 1018 964 1015
f 1018 972 964
f 1019 1016 965
f 1019 965 973
f 973 972 1018
f 973 1018 1019
f 1019 1018 1015
f 1019 1015 1016
f 1021 981 982
f 1021 1020 981
f 1020 984 981
f 1020 1027 984
f 1021 982 985
f 1021 985 1028
f 1027 1020 1021
f 1027 1021 1028
f 987 1029 986
f 987 1030 1029
f 1031 987 988
f 1031 1030 987
f 1031 1022 1030
f 1031 1023 1022
f 1032 1023 1031
f 1032 1024 1023
f 1035 990 991
f 1035 1034 990
f 1034 1026 1025
f 1034 1035 1026
f 1027 992 984
f 1027 1038 992
f 1039 1028 985
f 1039 985 993
f 1029 994 986
f 1029 1040 994
f 994 1039 993
f 994 1040 1039
f 1039 1029 1028
f 1039 1040 1029
f 1031 988 995
f 1031 995 1041
f 1042 995 996
f 1042 1041 995
f 1042 1031 1041
f 1042 1032 1031
f 1044 990 1034
f 1044 998 990
f 1044 1033 1043
f 1044 1034 1033
f 1045 1035 991
f 1045 991 999
f 1045 999 998
f 1045 998 1044
f 1045 1036 1035
f 1045 1046 1036
f 1048 992 1038
f 1048 1000 992
f 1048 1037 1047
f 1048 1038 1037
f 1051 1042 996
f 1051 996 1002
f 1051 1050 1041
f 1051 1041 1042
f 1048 1005 1000
f 1048 1053 1005
f 1053 1004 1005
f 1053 1052 1004
f 1052 1048 1047
f 1052 1053 1048
f 1055 1007 1006
f 1055 1006 1054
f 1008 1007 1055
f 1008 1055 1056
f 1057 1009 1008
f 1057 1008 1056
f 1057 1056 1049
f 1057 1049 1050
f 1058 1051 1002
f 1058 1002 1010
f 1058 1010 1009
f 1058 1009 1057
f 1057 1050 1051
f 1057 1051 1058
f 1059 1004 1052
f 1059 1012 1004
f 1060 1013 1012
f 1060 1012 1059
f 1059 1052 1053
f 1059 1053 1060
f 1054 1006 1014
f 1054 1014 1061
f 1014 1013 1060
f 1014 1060 1061
f 1060 1053 1054
f 1060 1054 1061
f 1061 1055 1054
f 1061 1062 1055
f 1063 1055 1062
f 1063 1056 1055
f 1064 1063 1062
f 1064 1065 1063
f 1067 1022 1023
f 1067 1066 1022
f 1024 1067 1023
f 1024 1068 1067
f 1026 1069 1025
f 1026 1070 1069
f 1074 1027 1028
f 1074 1073 1027
f 1029 1074 1028
f 1029 1075 1074
f 1076 1022 1066
f 1076 1030 1022
f 1030 1075 1029
f 1030 1076 1075
f 1077 1076 1066
f 1077 1066 1067
f 1068 1024 1032
f 1068 1032 1078
f 1078 1077 1067
f 1078 1067 1068
f 1081 1025 1069
f 1081 1034 1025
f 1081 1033 1034
f 1081 1080 1033
f 1082 1070 1026
f 1082 1026 1035
f 1036 1082 1035
f 1036 1083 1082
f 1084 1071 1083
f 1084 1072 1071
f 1085 1027 1073
f 1085 1038 1027
f 1085 1037 1038
f 1085 1084 1037
f 1085 1072 1084
f 1085 1073 1072
f 1088 1078 1032
f 1088 1032 1042
f 1088 1042 1041
f 1088 1041 1087
f 1088 1087 1077
f 1088 1077 1078
f 1080 1043 1033
f 1080 1090 1043
f 1090 1079 1089
f 1090 1080 1079
f 1091 1044 1043
f 1091 1043 1090
f 1092 1045 1044
f 1092 1044 1091
f 1093 1083 1036
f 1093 1036 1046
f 1046 1045 1092
f 1046 1092 1093
f 1094 1037 1084
f 1094 1047 1037
f 1094 1083 1093
f 1094 1084 1083
f 1097 1087 1041
f 1097 1041 1050
f 1097 1050 1049
f 1097 1049 1096
f 1097 1096 1086
f 1097 1086 1087
f 1099 1092 1098
f 1099 1093 1092
f 1100 1047 1094
f 1100 1052 1047
f 1099 1094 1093
f 1099 1100 1094
f 1101 1053 1052
f 1101 1052 1100
f 1054 1053 1101
f 1054 1101 1102
f 1104 1096 1049
f 1104 1049 1056
f 1104 1103 1095
f 1104 1095 1096
f 1105 1054 1102
f 1105 1061 1054
f 1062 1061 1105
f 1062 1105 1106
f 1106 1105 1102
f 1106 1102 1103
f 1104 1056 1063
f 1104 1063 1107
f 1108 1062 1106
f 1108 1064 1062
f 1107 1063 1065
f 1107 1065 1109
f 1109 1065 1064
f 1109 1064 1108
f 1113 1069 1070
f 1113 1112 1069
f 1115 1071 1072
f 1115 1114 1071
f 1116 1072 1073
f 1116 1115 1072
f 1074 1116 1073
f 1074 1117 1116
f 1075 1117 1074
f 1075 1118 1117
f 1119 1075 1076
f 1119 1118 1075
f 1120 1076 1077
f 1120 1119 1076
f 1122 1079 1080
f 1122 1121 1079
f 1121 1111 1110
f 1121 1122 1111
f 1112 1081 1069
f 1112 1123 1081
f 1081 1122 1080
f 1081 1123 1122
f 1124 1113 1070
f 1124 1070 1082
f 1125 1071 1114
f 1125 1083 1071
f 1125 1082 1083
f 1125 1124 1082
f 1126 1125 1114
f 1126 1114 1115
f 1126 1115 1116
f 1126 1116 1127
f 1128 1127 1116
f 1128 1116 1117
f 1120 1077 1087
f 1120 1087 1130
f 1130 1087 1086
f 1130 1086 1129
f 1121 1089 1079
f 1121 1131 1089
f 1132 1090 1089
f 1132 1089 1131
f 1091 1090 1132
f 1091 1132 1133
f 1134 1092 1091
f 1134 1091 1133
f 1136 1135 1126
f 1136 1126 1127
f 1139 1129 1086
f 1139 1086 1096
f 1139 1096 1095
f 1139 1095 1138
f 1140 1132 1131
f 1140 1141 1132
f 1141 1133 1132
f 1141 1142 1133
f 1134 1098 1092
f 1134 1143 1098
f 1142 1134 1133
f 1142 1143 1134
f 1144 1099 1098
f 1144 1098 1143
f 1145 1100 1099
f 1145 1099 1144
f 1101 1100 1145
f 1101 1145 1146
f 1147 1102 1101
f 1147 1101 1146
f 1148 1138 1095
f 1148 1095 1103
f 1148 1103 1102
f 1148 1102 1147
f 1148 1147 1137
f 1148 1137 1138
f 1149 1103 1104
f 1149 1148 1103
f 1151 1140 1150
f 1151 1141 1140
f 1152 1141 1151
f 1152 1142 1141
f 1153 1103 1148
f 1153 1106 1103
f 1149 1104 1107
f 1149 1107 1154
f 1153 1148 1149
f 1153 1149 1154
f 1153 1108 1106
f 1153 1155 1108
f 1156 1154 1107
f 1156 1107 1109
f 1156 1109 1108
f 1156 1108 1155
f 1155 1153 1154
f 1155 1154 1156
f 1111 1157 1110
f 1111 1158 1157
f 1160 1112 1113
f 1160 1159 1112
f 1118 1161 1117
f 1118 1162 1161
f 1163 1118 1119
f 1163 1162 1118
f 1164 1119 1120
f 1164 1163 1119
f 1165 1110 1157
f 1165 1121 1110
f 1158 1111 1122
f 1158 1122 1166
f 1165 1157 1158
f 1165 1158 1166
f 1159 1123 1112
f 1159 1167 1123
f 1123 1166 1122
f 1123 1167 1166
f 1160 1113 1124
f 1160 1124 1168
f 1168 1167 1159
f 1168 1159 1160
f 1169 1124 1125
f 1169 1168 1124
f 1126 1169 1125
f 1126 1170 1169
f 1161 1128 1117
f 1161 1172 1128
f 1128 1171 1127
f 1128 1172 1171
f 1173 1172 1161
f 1173 1161 1162
f 1173 1162 1163
f 1173 1163 1174
f 1175 1164 1120
f 1175 1120 1130
f 1175 1130 1129
f 1175 1129 1174
f 1175 1174 1163
f 1175 1163 1164
f 1165 1131 1121
f 1165 1176 1131
f 1177 1176 1165
f 1177 1165 1166
f 1178 1177 1166
f 1178 1166 1167
f 1170 1126 1135
f 1170 1135 1180
f 1171 1136 1127
f 1171 1181 1136
f 1181 1135 1136
f 1181 1180 1135
f 1182 1181 1171
f 1182 1171 1172
f 1183 1138 1137
f 1183 1137 1182
f 1183 1182 1172
f 1183 1172 1173
f 1184 1174 1129
f 1184 1129 1139
f 1139 1138 1183
f 1139 1183 1184
f 1184 1183 1173
f 1184 1173 1174
f 1176 1140 1131
f 1176 1185 1140
f 1188 1143 1142
f 1188 1142 1187
f 1144 1143 1188
f 1144 1188 1189
f 1190 1145 1144
f 1190 1144 1189
f 1190 1189 1179
f 1190 1179 1180
f 1191 1146 1145
f 1191 1145 1190
f 1190 1180 1181
f 1190 1181 1191
f 1192 1182 1137
f 1192 1137 1147
f 1192 1147 1146
f 1192 1146 1191
f 1192 1191 1181
f 1192 1181 1182
f 1193 1140 1185
f 1193 1150 1140
f 1151 1150 1193
f 1151 1193 1194
f 1193 1185 1186
f 1193 1186 1194
f 1187 1142 1152
f 1187 1152 1195
f 1152 1151 1194
f 1152 1194 1195
f 1168 1196 1167
f 1168 1197 1196
f 1169 1197 1168
f 1169 1198 1197
f 1199 1169 1170
f 1199 1198 1169
f 1177 1200 1176
f 1177 1201 1200
f 1196 1178 1167
f 1196 1202 1178
f 1178 1201 1177
f 1178 1202 1201
f 1203 1202 1196
f 1203 1196 1197
f 1203 1197 1198
f 1203 1198 1204
f 1205 1199 1170
f 1205 1170 1180
f 1205 1180 1179
f 1205 1179 1204
f 1205 1204 1198
f 1205 1198 1199
f 1200 1185 1176
f 1200 1206 1185
f 1186 1185 1206
f 1186 1206 1207
f 1206 1200 1201
f 1206 1201 1207
f 1208 1207 1201
f 1208 1201 1202
f 1209 1188 1187
f 1209 1187 1208
f 1209 1208 1202
f 1209 1202 1203
f 1210 1204 1179
f 1210 1179 1189
f 1210 1189 1188
f 1210 1188 1209
f 1210 1209 1203
f 1210 1203 1204
f 1211 1186 1207
f 1211 1194 1186
f 1212 1208 1187
f 1212 1187 1195
f 1195 1194 1211
f 1195 1211 1212
f 1212 1211 1207
f 1212 1207 1208
