# parsimony mesh: g6968_monomer (source /Users/eranagmon/code/v2e-molecules/workspace/studies/ecoli-3d/viz/3d/structures/g6968_monomer.pdb)
# atoms: 1971  voxel: 8 Å  verts: 197  tris: 392
v 2.4711 3.0988 -24.7195
v 6.7410 2.8672 -24.9024
v 14.7410 2.9634 -24.9122
v 19.1880 3.2271 -24.7326
v 2.4711 4.4856 -24.7195
v 6.7410 4.8700 -24.9024
v 14.7410 4.6899 -24.9122
v 19.1880 4.2454 -24.7326
v 18.5772 18.9364 -24.6750
v 18.8810 18.9364 -24.6750
v 18.5772 19.5938 -24.6750
v 18.8810 19.5938 -24.6750
v -5.3910 -4.5608 -16.6163
v -1.2590 -5.8312 -17.6367
v 6.7410 -6.6608 -18.3298
v 14.7410 -6.0803 -17.9454
v 22.7410 -5.5978 -17.6595
v 27.4653 -5.0235 -17.1591
v -5.7228 -0.4941 -16.9980
v -0.6209 0.0617 -20.9380
v 6.7410 -1.1328 -22.3298
v 14.7410 -1.0366 -21.9454
v 22.2092 0.1386 -21.3294
v 27.7768 -0.4941 -17.8715
v -5.8930 7.5059 -17.1507
v -0.6209 7.2938 -21.4263
v 6.7410 8.8700 -23.0757
v 14.7410 8.6899 -22.9298
v 22.2092 7.1496 -21.7615
v 27.3658 7.5059 -17.7156
v -5.6180 11.7850 -16.8200
v -1.2590 13.1668 -18.2472
v 6.7410 13.8764 -19.0757
v 16.3851 15.7485 -21.2279
v 21.0867 15.4358 -20.8107
v 26.9173 12.0015 -16.9512
v 18.5772 19.5938 -24.2921
v 18.8810 19.5938 -24.2921
v 1.9928 -12.7259 -9.4191
v 4.9641 -12.7259 -9.4191
v -15.0113 -5.7323 -10.0830
v -8.5382 -6.1894 -12.6774
v -0.9079 -9.6761 -12.2790
v 7.2749 -10.9387 -12.2790
v 14.7410 -9.7041 -12.5690
v 22.7410 -8.0852 -12.5690
v 27.9329 -5.6438 -12.5690
v -15.3916 -0.4941 -10.0496
v -9.7228 -0.4941 -14.0496
v 28.6540 -0.4941 -12.5690
v -14.2811 7.5059 -9.1622
v -9.8930 7.5059 -13.1622
v 25.4497 9.9586 -10.3441
v 27.4236 7.3775 -12.8341
v -13.5306 11.7456 -8.8998
v -8.6744 12.4566 -11.9675
v -1.2590 15.5995 -12.5690
v 6.7410 16.7260 -12.5690
v 14.7410 14.9852 -12.5690
v 22.7662 12.8787 -12.8341
v 26.9173 12.0015 -15.6775
v -21.6888 -13.1750 -0.9617
v -17.2590 -13.6777 -1.6522
v -9.2590 -13.3289 -1.8005
v -0.9079 -13.1966 -4.1233
v 7.2749 -13.2860 -5.1708
v 14.7410 -13.0614 -3.5227
v 19.8054 -12.8856 -2.1709
v -29.6926 -4.9508 -2.3768
v -24.7169 -7.9681 -2.6824
v -17.5104 -8.4370 -5.4286
v -9.2590 -10.5632 -5.8005
v -3.3405 -11.3480 -6.4928
v 10.2974 -12.3461 -8.2387
v 14.7410 -12.1179 -7.5227
v 22.7346 -8.8190 -4.5140
v 27.6059 -5.4975 -6.8570
v -29.6926 -3.6903 -2.3768
v -25.2266 -0.8118 -3.4468
v -19.3916 -0.4941 -6.8104
v 24.6665 -0.4941 -2.8129
v 27.6182 -0.4941 -6.8129
v -22.4131 7.5059 -2.0072
v -18.2811 7.5059 -6.0072
v 23.5357 7.3775 -4.9913
v 27.0458 4.6253 -7.9395
v -21.5184 11.7132 -0.8198
v -16.6220 12.3834 -3.9194
v -9.2590 14.1706 -4.5690
v -1.2590 16.2734 -4.5690
v 6.6306 18.1141 -4.6288
v 14.2683 16.2229 -4.6288
v 20.0010 12.1861 -4.5690
v 9.2237 20.0409 -2.0020
v 11.2865 20.0409 -2.0020
v -21.2733 -20.5042 7.4001
v -17.2590 -20.5385 7.3416
v -13.0477 -20.5432 7.3428
v -21.8927 -16.1026 4.2125
v -17.2590 -17.6777 3.3416
v -9.9322 -17.3292 4.1781
v -1.2590 -15.0881 3.4310
v 7.5225 -13.6915 4.1926
v 14.0425 -13.0373 4.1926
v 20.2049 -12.8995 3.4310
v -29.6926 -4.9508 -0.1494
v -24.4465 -7.8224 3.0907
v -20.4376 -5.3607 6.3307
v 10.7102 -12.4367 7.3670
v 10.9102 -12.4367 7.3670
v 21.6690 -8.4941 3.4310
v -29.6926 -3.6903 -0.1494
v -25.1339 -0.9942 3.0907
v -20.4376 -3.6315 6.3307
v 16.2203 1.1242 5.4789
v 20.4990 -1.1231 3.0598
v -23.9225 7.5059 3.4310
v 10.3142 9.8451 7.0445
v 14.0286 7.3095 4.6980
v 19.7029 7.5059 0.3046
v -22.1101 13.1178 3.4310
v -16.8034 16.6048 4.1050
v -9.4840 17.4549 4.1050
v -1.2590 16.2874 3.4310
v 7.1023 15.5772 3.6326
v 14.2683 14.9209 1.5430
v 19.0456 11.8642 -0.1188
v -13.8330 19.5613 7.2209
v -12.3006 19.5613 7.2209
v 9.2237 20.0409 0.2207
v 11.2865 20.0409 0.2207
v -21.2733 -20.5042 7.4525
v -16.6834 -20.6888 10.6439
v -9.9322 -20.9066 11.5209
v -4.4996 -20.8672 14.2475
v -21.7287 -16.4941 8.1821
v -18.2358 -16.4941 12.1821
v -7.7143 -19.4394 8.9142
v -1.6034 -17.3959 11.5209
v 4.8962 -13.4123 11.4310
v 16.2435 -12.6431 7.6136
v 19.6285 -12.6431 7.6136
v -21.8772 -8.0801 11.0247
v -19.9791 -8.0801 11.0247
v 8.5448 -9.2596 11.3518
v 14.0425 -9.2596 8.4961
v 19.6786 -8.4941 7.8615
v -22.3222 -0.7765 11.1554
v -20.4376 -3.6315 8.3050
v 1.8684 2.5090 14.5327
v 6.8207 -0.2922 12.4771
v 14.0286 -1.1231 8.4509
v 19.1036 -4.2092 7.8224
v -22.4728 6.7220 11.3641
v -19.8563 8.8661 13.9862
v -5.3595 11.4085 15.3469
v -0.9826 8.2475 13.7431
v 7.2849 7.3095 9.0579
v 10.8870 4.5118 7.5382
v -22.1344 13.4479 8.6528
v -16.8447 16.0392 10.9276
v -8.8301 16.2353 11.6080
v -1.2590 13.9527 9.9948
v 4.9808 12.4342 8.2669
v -13.8330 19.5613 7.8691
v -12.3006 19.5613 7.8691
v -13.6331 -20.7594 15.9868
v -9.2590 -20.9729 16.7382
v -4.4996 -20.8672 16.6181
v -14.3531 -16.0147 18.9645
v -9.2590 -18.0102 20.7382
v -1.7372 -16.0626 18.8334
v 2.9787 -12.8107 15.7154
v -21.8834 -5.4662 17.3309
v -18.1468 -8.2774 19.7710
v 0.7778 -8.4941 20.8788
v 4.0188 -8.4941 16.8788
v -21.7351 -0.4941 16.8662
v -17.2772 -0.4307 21.0378
v -9.2590 1.4824 21.9072
v -0.8128 -0.3944 19.5226
v 4.2071 -2.8243 17.0770
v -21.2694 3.5328 15.4446
v -17.2174 6.7220 17.5538
v -8.5193 8.2475 18.2680
v -3.4650 6.0752 16.6348
v -14.5230 13.2971 16.8578
v -10.6928 13.2971 16.8578
v -13.7800 -13.0285 23.6699
v -9.2590 -14.0102 24.1274
v -4.3082 -13.9812 24.1207
v -14.6725 -8.4941 23.8399
v -9.2590 -8.4941 24.9293
v -3.2222 -8.4941 24.5204
v -14.6226 -3.0552 23.7374
v -9.2590 -2.5176 24.2329
v -3.4940 -3.2977 24.1939
f 5 2 1
f 5 6 2
f 7 2 6
f 7 3 2
f 8 3 7
f 8 4 3
f 11 10 9
f 11 12 10
f 19 14 13
f 19 20 14
f 21 1 2
f 21 20 1
f 20 15 14
f 20 21 15
f 3 21 2
f 3 22 21
f 21 16 15
f 21 22 16
f 4 22 3
f 4 23 22
f 22 17 16
f 22 23 17
f 24 17 23
f 24 18 17
f 26 1 20
f 26 5 1
f 25 20 19
f 25 26 20
f 27 6 5
f 27 5 26
f 28 7 6
f 28 6 27
f 29 23 4
f 29 4 8
f 8 7 28
f 8 28 29
f 30 23 29
f 30 24 23
f 32 25 31
f 32 26 25
f 33 26 32
f 33 27 26
f 33 28 27
f 33 34 28
f 10 34 9
f 10 35 34
f 35 28 34
f 35 29 28
f 36 29 35
f 36 30 29
f 37 9 34
f 37 11 9
f 38 35 10
f 38 10 12
f 12 11 37
f 12 37 38
f 38 37 34
f 38 34 35
f 43 13 14
f 43 42 13
f 15 43 14
f 15 44 43
f 44 39 43
f 44 40 39
f 45 15 16
f 45 44 15
f 46 16 17
f 46 45 16
f 18 46 17
f 18 47 46
f 49 13 42
f 49 19 13
f 49 41 48
f 49 42 41
f 50 47 18
f 50 18 24
f 49 25 19
f 49 52 25
f 52 48 51
f 52 49 48
f 54 50 24
f 54 24 30
f 52 31 25
f 52 56 31
f 55 52 51
f 55 56 52
f 57 32 31
f 57 31 56
f 58 33 32
f 58 32 57
f 59 34 33
f 59 33 58
f 35 34 59
f 35 59 60
f 61 54 30
f 61 30 36
f 36 35 60
f 36 60 61
f 61 60 53
f 61 53 54
f 66 39 40
f 66 65 39
f 71 62 70
f 71 63 62
f 72 41 42
f 72 71 41
f 72 63 71
f 72 64 63
f 73 39 65
f 73 43 39
f 73 42 43
f 73 72 42
f 73 64 72
f 73 65 64
f 74 66 40
f 74 40 44
f 45 74 44
f 45 75 74
f 74 67 66
f 74 75 67
f 46 75 45
f 46 76 75
f 75 68 67
f 75 76 68
f 77 46 47
f 77 76 46
f 79 69 78
f 79 70 69
f 80 41 71
f 80 48 41
f 80 70 79
f 80 71 70
f 77 47 50
f 77 50 82
f 81 76 77
f 81 77 82
f 84 48 80
f 84 51 48
f 83 80 79
f 83 84 80
f 86 82 50
f 86 50 54
f 86 54 53
f 86 53 85
f 86 85 81
f 86 81 82
f 84 55 51
f 84 88 55
f 87 84 83
f 87 88 84
f 89 56 55
f 89 55 88
f 90 57 56
f 90 56 89
f 58 57 90
f 58 90 91
f 92 59 58
f 92 58 91
f 93 85 53
f 93 53 60
f 93 60 59
f 93 59 92
f 95 91 94
f 95 92 91
f 100 62 63
f 100 99 62
f 100 96 99
f 100 97 96
f 101 63 64
f 101 100 63
f 100 98 97
f 100 101 98
f 102 64 65
f 102 101 64
f 103 65 66
f 103 102 65
f 67 103 66
f 67 104 103
f 68 104 67
f 68 105 104
f 107 62 99
f 107 70 62
f 70 106 69
f 70 107 106
f 109 103 104
f 109 104 110
f 111 105 68
f 111 68 76
f 106 78 69
f 106 112 78
f 79 78 112
f 79 112 113
f 113 112 106
f 113 106 107
f 114 113 107
f 114 107 108
f 111 76 81
f 111 81 116
f 113 83 79
f 113 117 83
f 120 116 81
f 120 81 85
f 120 119 115
f 120 115 116
f 117 87 83
f 117 121 87
f 122 88 87
f 122 87 121
f 89 88 122
f 89 122 123
f 124 90 89
f 124 89 123
f 91 90 124
f 91 124 125
f 126 125 118
f 126 118 119
f 120 85 93
f 120 93 127
f 127 93 92
f 127 92 126
f 127 126 119
f 127 119 120
f 128 123 122
f 128 129 123
f 130 91 125
f 130 94 91
f 131 126 92
f 131 92 95
f 95 94 130
f 95 130 131
f 131 130 125
f 131 125 126
f 97 132 96
f 97 133 132
f 98 133 97
f 98 134 133
f 136 96 132
f 136 99 96
f 137 136 132
f 137 132 133
f 138 134 98
f 138 98 101
f 102 138 101
f 102 139 138
f 138 135 134
f 138 139 135
f 140 102 103
f 140 139 102
f 105 141 104
f 105 142 141
f 136 107 99
f 136 143 107
f 108 107 143
f 108 143 144
f 144 143 136
f 144 136 137
f 140 103 109
f 140 109 145
f 141 110 104
f 141 146 110
f 146 109 110
f 146 145 109
f 142 105 111
f 142 111 147
f 147 146 141
f 147 141 142
f 149 108 144
f 149 114 108
f 114 148 113
f 114 149 148
f 149 143 148
f 149 144 143
f 152 151 145
f 152 145 146
f 153 147 111
f 153 111 116
f 153 116 115
f 153 115 152
f 153 152 146
f 153 146 147
f 148 117 113
f 148 154 117
f 158 157 150
f 158 150 151
f 159 152 115
f 159 115 119
f 159 119 118
f 159 118 158
f 159 158 151
f 159 151 152
f 160 117 154
f 160 121 117
f 122 121 160
f 122 160 161
f 160 154 155
f 160 155 161
f 163 124 123
f 163 123 162
f 163 162 156
f 163 156 157
f 164 158 118
f 164 118 125
f 164 125 124
f 164 124 163
f 164 163 157
f 164 157 158
f 165 122 161
f 165 128 122
f 166 162 123
f 166 123 129
f 129 128 165
f 129 165 166
f 166 165 161
f 166 161 162
f 134 167 133
f 134 168 167
f 135 168 134
f 135 169 168
f 167 137 133
f 167 170 137
f 171 170 167
f 171 167 168
f 169 135 139
f 169 139 172
f 171 168 169
f 171 169 172
f 173 139 140
f 173 172 139
f 175 137 170
f 175 144 137
f 144 174 143
f 144 175 174
f 177 173 140
f 177 140 145
f 176 172 173
f 176 173 177
f 174 148 143
f 174 178 148
f 179 178 174
f 179 174 175
f 182 177 145
f 182 145 151
f 182 151 150
f 182 150 181
f 182 181 176
f 182 176 177
f 183 148 178
f 183 154 148
f 155 154 183
f 155 183 184
f 183 178 179
f 183 179 184
f 184 179 180
f 184 180 185
f 186 181 150
f 186 150 157
f 186 157 156
f 186 156 185
f 186 185 180
f 186 180 181
f 187 155 184
f 187 161 155
f 188 185 156
f 188 156 162
f 162 161 187
f 162 187 188
f 187 184 185
f 187 185 188
f 171 189 170
f 171 190 189
f 191 171 172
f 191 190 171
f 189 175 170
f 189 192 175
f 193 192 189
f 193 189 190
f 191 172 176
f 191 176 194
f 193 190 191
f 193 191 194
f 195 175 192
f 195 179 175
f 180 179 195
f 180 195 196
f 195 192 193
f 195 193 196
f 197 194 176
f 197 176 181
f 197 181 180
f 197 180 196
f 197 196 193
f 197 193 194
