# parsimony mesh: g6968_monomer (source /Users/eranagmon/code/v2e-molecules/workspace/studies/ecoli-3d/viz/3d/structures/g6968_monomer.pdb)
# atoms: 1971  voxel: 16 Å  verts: 49  tris: 90
v -6.6973 0.2896 -17.9992
v 2.7410 -2.0916 -19.5570
v 18.7410 -1.5053 -19.6705
v 27.9655 1.0713 -18.1504
v -6.6973 5.8074 -17.9992
v 2.7410 8.9780 -19.5570
v 18.7410 11.0685 -19.6705
v 27.9655 8.5947 -18.1504
v -22.5411 -13.8551 -1.7654
v -13.2590 -14.1737 -3.7019
v 2.7410 -13.8911 -5.6805
v 18.7410 -13.5408 -4.1504
v 27.0639 -12.9054 -1.5096
v -23.9034 -4.4941 -2.8471
v -12.5220 -4.8239 -10.5799
v 2.7410 -10.0916 -13.6805
v 22.0147 -4.5078 -7.3688
v 27.5147 -3.7199 -6.5848
v -23.5028 5.9995 -2.4100
v -12.5220 8.8070 -8.0736
v 1.7104 16.7076 -9.9071
v 19.3066 13.8810 -8.5629
v 27.9655 8.5947 -11.6600
v 6.3566 20.5877 -5.4658
v 12.2336 20.5877 -5.4658
v -22.5411 -13.8551 3.1310
v -14.1273 -15.2801 8.0510
v 3.2867 -15.0540 7.6836
v 18.7410 -13.5408 2.1697
v 27.0639 -12.9054 -0.0049
v -23.8227 -4.8237 8.0510
v -20.0396 -10.3767 13.7977
v 7.7171 -4.4941 12.0895
v 20.1242 -3.7043 3.4963
v 27.0639 -8.5111 -0.0049
v -23.5020 6.6378 7.4310
v -13.2590 12.0976 7.4310
v 2.0782 12.4791 7.0900
v 15.5893 11.5059 2.9195
v 6.3566 20.5877 0.9586
v 12.2336 20.5877 0.9586
v -9.3729 -14.8979 18.4366
v -1.6829 -14.8979 18.4366
v -22.0058 0.2899 16.3102
v -14.1273 -4.8237 18.7846
v -0.2829 -4.4941 18.9636
v -22.0058 5.1882 16.3102
v -13.2590 7.1974 17.3688
v -2.2003 6.7456 17.1356
f 5 2 1
f 5 6 2
f 6 3 2
f 6 7 3
f 7 4 3
f 7 8 4
f 14 10 9
f 14 15 10
f 16 1 2
f 16 15 1
f 15 11 10
f 15 16 11
f 3 16 2
f 3 17 16
f 16 12 11
f 16 17 12
f 4 17 3
f 4 18 17
f 17 13 12
f 17 18 13
f 15 5 1
f 15 20 5
f 19 15 14
f 19 20 15
f 21 6 5
f 21 5 20
f 7 6 21
f 7 21 22
f 23 8 7
f 23 7 22
f 23 22 17
f 23 17 18
f 25 21 24
f 25 22 21
f 10 26 9
f 10 27 26
f 28 10 11
f 28 27 10
f 29 11 12
f 29 28 11
f 13 29 12
f 13 30 29
f 26 14 9
f 26 31 14
f 32 31 26
f 32 26 27
f 33 28 29
f 33 29 34
f 35 18 17
f 35 17 34
f 35 34 29
f 35 29 30
f 31 19 14
f 31 36 19
f 37 20 19
f 37 19 36
f 38 21 20
f 38 20 37
f 39 34 17
f 39 17 22
f 39 38 33
f 39 33 34
f 40 21 38
f 40 24 21
f 39 22 25
f 39 25 41
f 40 38 39
f 40 39 41
f 43 27 28
f 43 42 27
f 42 32 27
f 42 45 32
f 32 44 31
f 32 45 44
f 43 28 33
f 43 33 46
f 46 45 42
f 46 42 43
f 44 36 31
f 44 47 36
f 37 36 47
f 37 47 48
f 48 47 44
f 48 44 45
f 49 46 33
f 49 33 38
f 49 38 37
f 49 37 48
f 49 48 45
f 49 45 46
