# parsimony mesh: g7014_monomer (source /Users/eranagmon/code/v2e-cplx/workspace/studies/ecoli-3d/viz/3d/structures/g7014_monomer.pdb)
# atoms: 948  voxel: 8 Å  verts: 136  tris: 268
v 52.4669 -14.7114 -19.6096
v 55.0165 -14.7114 -19.6096
v 44.3019 -7.7106 -19.6136
v 49.9818 -10.2087 -19.8379
v 54.9428 -9.9559 -19.5471
v 44.3019 -4.9254 -19.6136
v 50.2540 -5.0579 -19.5501
v 54.4098 -5.7890 -19.0665
v 52.4669 -14.7114 -18.0184
v 55.0165 -14.7114 -18.0184
v -10.2019 -6.2097 -11.1326
v -8.5698 -6.2097 -11.1326
v 20.9307 -6.8875 -11.4563
v 26.2540 -8.5479 -12.3421
v 34.2540 -9.4399 -13.4907
v 41.8828 -8.9030 -15.3606
v 49.9240 -10.0181 -15.5605
v 54.9428 -9.9559 -17.8809
v -10.7267 -1.9559 -11.5375
v -5.8403 -2.3444 -11.9649
v 2.2540 0.4886 -11.6220
v 6.2920 1.9509 -10.9379
v 20.9307 -5.2919 -11.4563
v 26.2540 -4.3795 -12.3421
v 34.2540 -3.0176 -13.4907
v 41.8396 -1.5340 -14.7220
v 49.6174 -2.6906 -14.7794
v 54.4098 -5.7890 -18.4360
v -10.7056 6.0441 -11.7639
v -5.5366 6.4826 -12.1460
v 2.2540 3.6221 -11.6220
v 6.2920 2.0839 -10.9379
v 44.7106 2.1324 -11.1228
v 46.5205 2.1324 -11.1228
v -10.1737 10.5236 -11.4345
v -8.0637 10.5236 -11.4345
v -26.4068 -6.3037 -3.2665
v -21.7460 -7.0775 -3.9389
v -13.2195 -7.4781 -6.7271
v -5.8403 -7.1986 -7.1986
v 0.7389 -6.6377 -4.7178
v 11.7278 -6.7052 -4.5595
v 18.2600 -7.3075 -7.1036
v 26.1118 -8.3726 -6.7071
v 34.2540 -9.4399 -8.8860
v 42.2540 -8.3238 -9.3174
v 47.3810 -6.9922 -9.8071
v -26.6800 -1.9559 -3.6025
v -21.7460 -1.9559 -5.0834
v -14.7267 -1.9559 -8.4007
v -3.2364 -5.2701 -10.0512
v 2.9450 -3.8848 -7.1986
v 9.3250 -1.6898 -5.9083
v 18.2600 -4.0214 -7.1036
v 26.1118 -4.2718 -6.7071
v 34.2540 -3.0176 -8.8860
v 42.1280 -1.2679 -9.5697
v 47.2991 -1.9559 -10.0002
v -26.3306 3.0321 -3.4834
v -21.7460 4.1150 -4.0643
v -14.6228 6.3080 -6.6973
v -2.7303 9.4416 -10.1185
v 2.3908 7.4401 -7.2390
v 7.5229 3.2410 -6.9198
v 44.7106 2.1324 -10.8063
v 46.5205 2.1324 -10.8063
v -11.2031 11.0077 -6.9198
v -5.5366 11.3555 -7.2390
v -0.1846 10.9451 -4.7851
v -27.8484 -6.6776 1.0802
v -21.7460 -8.5771 1.0802
v -13.7460 -9.4256 1.0802
v -5.7460 -8.3625 1.0802
v 1.5168 -6.7923 1.0802
v 11.7278 -6.7052 -2.0731
v 18.2540 -6.9467 -2.0690
v 23.3503 -6.5277 -2.6321
v -29.4156 -1.9559 1.0802
v 5.5168 -4.7964 1.0802
v 9.3938 -2.2127 -0.2713
v 18.2540 -4.0358 -2.0690
v 23.3503 -5.2508 -2.6321
v -27.2692 5.8369 1.3547
v -21.7460 8.1150 -0.9198
v -16.5944 9.1506 -2.0441
v 4.5636 7.7253 1.0802
v 7.6432 3.7253 1.0802
v -26.1952 10.7492 4.2045
v -21.7460 11.8493 3.0802
v -13.8550 12.6176 0.8056
v -5.5139 15.3371 1.5909
v 0.3303 13.7847 1.5909
v -2.6925 18.3086 4.5980
v -1.3648 18.3086 4.5980
v -28.0534 -6.9792 9.0802
v -21.7460 -9.2225 9.0802
v -13.7460 -9.7050 9.0802
v -5.6230 -7.4205 9.0881
v 0.1195 -6.3892 6.4268
v -30.8598 -1.9559 9.0802
v -3.5185 -1.9559 11.2237
v 2.5733 -1.9438 6.9143
v 6.4524 0.7309 5.2790
v -28.9368 6.0441 9.0802
v -11.2087 8.6922 11.9565
v -5.6870 6.0329 11.4965
v 2.3648 5.6555 7.4900
v 6.4524 2.7297 5.2790
v -26.1304 10.6088 9.0802
v -21.7460 12.3664 9.0802
v -13.8236 12.5195 9.2060
v -5.5139 14.3134 7.8734
v -0.3216 14.0441 7.4144
v -2.6925 18.3086 5.8863
v -1.3648 18.3086 5.8863
v -26.6801 -6.7058 15.2114
v -22.0728 -7.8690 17.5589
v -14.2743 -8.0488 16.7014
v -8.2077 -7.0055 13.7822
v -28.1243 -1.9559 15.7307
v -24.0107 -1.9559 19.7307
v -12.7099 -1.9559 18.3100
v -7.5185 -1.9559 14.3100
v -27.4712 6.0441 14.1714
v -21.6310 5.8738 17.7259
v -14.0130 5.8929 16.6930
v -8.3143 3.3588 14.0179
v -25.8094 10.0918 13.1323
v -21.7460 10.5612 13.8352
v -16.5421 10.6858 14.0347
v -19.6240 -6.7885 21.5182
v -17.2932 -6.7885 21.5182
v -20.0107 -1.9559 21.8760
v -16.7099 -1.9559 21.8760
v -18.8876 3.0936 21.7033
v -16.8173 3.0936 21.7033
f 5 1 4
f 5 2 1
f 7 3 6
f 7 4 3
f 8 4 7
f 8 5 4
f 2 9 1
f 2 10 9
f 9 4 1
f 9 17 4
f 17 3 4
f 17 16 3
f 10 2 5
f 10 5 18
f 18 17 9
f 18 9 10
f 19 12 11
f 19 20 12
f 24 13 23
f 24 14 13
f 24 15 14
f 24 25 15
f 16 6 3
f 16 26 6
f 25 16 15
f 25 26 16
f 27 7 6
f 27 6 26
f 28 18 5
f 28 5 8
f 28 8 7
f 28 7 27
f 28 27 17
f 28 17 18
f 29 20 19
f 29 30 20
f 30 21 20
f 30 31 21
f 32 21 31
f 32 22 21
f 34 26 33
f 34 27 26
f 36 29 35
f 36 30 29
f 40 11 12
f 40 39 11
f 44 13 14
f 44 43 13
f 45 14 15
f 45 44 14
f 46 15 16
f 46 45 15
f 47 16 17
f 47 46 16
f 49 37 48
f 49 38 37
f 50 11 39
f 50 19 11
f 50 38 49
f 50 39 38
f 51 40 12
f 51 12 20
f 21 51 20
f 21 52 51
f 51 41 40
f 51 52 41
f 22 52 21
f 22 53 52
f 43 23 13
f 43 54 23
f 54 42 53
f 54 43 42
f 55 24 23
f 55 23 54
f 56 25 24
f 56 24 55
f 55 44 45
f 55 45 56
f 57 26 25
f 57 25 56
f 56 45 46
f 56 46 57
f 47 17 27
f 47 27 58
f 57 46 47
f 57 47 58
f 59 49 48
f 59 60 49
f 50 29 19
f 50 61 29
f 60 50 49
f 60 61 50
f 31 30 62
f 31 62 63
f 64 53 22
f 64 22 32
f 64 32 31
f 64 31 63
f 57 33 26
f 57 65 33
f 58 27 34
f 58 34 66
f 34 33 65
f 34 65 66
f 65 57 58
f 65 58 66
f 67 29 61
f 67 35 29
f 62 30 36
f 62 36 68
f 36 35 67
f 36 67 68
f 69 62 68
f 69 63 62
f 71 37 38
f 71 70 37
f 72 38 39
f 72 71 38
f 73 39 40
f 73 72 39
f 41 73 40
f 41 74 73
f 76 42 43
f 76 75 42
f 77 43 44
f 77 76 43
f 70 48 37
f 70 78 48
f 79 74 41
f 79 41 52
f 80 42 75
f 80 53 42
f 53 79 52
f 53 80 79
f 81 54 53
f 81 53 80
f 81 80 75
f 81 75 76
f 77 44 55
f 77 55 82
f 82 55 54
f 82 54 81
f 82 81 76
f 82 76 77
f 78 59 48
f 78 83 59
f 84 60 59
f 84 59 83
f 85 61 60
f 85 60 84
f 80 53 64
f 80 64 87
f 64 63 86
f 64 86 87
f 88 84 83
f 88 89 84
f 85 67 61
f 85 90 67
f 89 85 84
f 89 90 85
f 91 68 67
f 91 67 90
f 86 63 69
f 86 69 92
f 69 68 91
f 69 91 92
f 94 91 93
f 94 92 91
f 71 95 70
f 71 96 95
f 72 96 71
f 72 97 96
f 73 97 72
f 73 98 97
f 99 73 74
f 99 98 73
f 95 78 70
f 95 100 78
f 102 99 74
f 102 74 79
f 101 98 99
f 101 99 102
f 103 79 80
f 103 102 79
f 104 78 100
f 104 83 78
f 107 106 101
f 107 101 102
f 103 80 87
f 103 87 108
f 108 87 86
f 108 86 107
f 108 107 102
f 108 102 103
f 104 88 83
f 104 109 88
f 110 89 88
f 110 88 109
f 111 90 89
f 111 89 110
f 112 91 90
f 112 90 111
f 112 111 105
f 112 105 106
f 113 107 86
f 113 86 92
f 113 112 106
f 113 106 107
f 112 93 91
f 112 114 93
f 113 92 94
f 113 94 115
f 94 93 114
f 94 114 115
f 114 112 113
f 114 113 115
f 96 116 95
f 96 117 116
f 118 96 97
f 118 117 96
f 119 97 98
f 119 118 97
f 120 95 116
f 120 100 95
f 121 120 116
f 121 116 117
f 119 98 101
f 119 101 123
f 122 118 119
f 122 119 123
f 124 100 120
f 124 104 100
f 124 120 121
f 124 121 125
f 127 123 101
f 127 101 106
f 127 106 105
f 127 105 126
f 127 126 122
f 127 122 123
f 128 104 124
f 128 109 104
f 110 109 128
f 110 128 129
f 129 128 124
f 129 124 125
f 130 126 105
f 130 105 111
f 130 111 110
f 130 110 129
f 130 129 125
f 130 125 126
f 132 117 118
f 132 131 117
f 131 121 117
f 131 133 121
f 132 118 122
f 132 122 134
f 133 131 132
f 133 132 134
f 135 121 133
f 135 125 121
f 136 134 122
f 136 122 126
f 136 126 125
f 136 125 135
f 135 133 134
f 135 134 136
