# parsimony mesh: g7039_monomer (source /Users/eranagmon/code/v2e-3d/out/ecoli3d/structures/g7039_monomer.pdb)
# atoms: 2042  voxel: 8 Å  verts: 246  tris: 488
v 16.1844 -11.6984 -34.8390
v 17.1335 -11.6984 -34.8390
v 15.8916 -7.4666 -34.9769
v 18.4542 -7.4666 -34.9769
v 16.0385 -2.1484 -34.8218
v 18.5062 -2.1484 -34.8218
v 14.6187 -12.1547 -30.5374
v 17.6800 -12.1547 -30.5374
v 13.0755 -7.4666 -30.5374
v 21.8273 -7.3237 -31.1394
v 26.8102 -4.5617 -28.8741
v 7.9681 3.1636 -27.9901
v 12.8557 0.5076 -30.9260
v 20.9242 0.5243 -32.8435
v 29.1066 1.1964 -28.4599
v 32.5648 4.3051 -26.5560
v 7.9681 6.8132 -27.9901
v 11.9155 9.1013 -29.3013
v 20.5512 8.5334 -29.5482
v 27.7629 7.7504 -27.0650
v 32.5648 4.5618 -26.5560
v 14.1585 13.3001 -27.6998
v 20.5512 13.1228 -27.4182
v 24.5707 12.5525 -26.5493
v 0.4399 -19.5655 -18.6476
v 4.5512 -20.2293 -19.1229
v 12.5512 -20.6597 -19.5795
v 17.1124 -20.1393 -19.2563
v -7.5411 -11.5356 -19.7773
v -2.7156 -14.7080 -20.4377
v 4.5512 -15.4666 -22.1541
v 12.0253 -15.0781 -23.9057
v 19.9599 -14.5837 -21.7723
v 25.1548 -11.6817 -18.9550
v -7.5411 -10.8148 -19.7773
v -3.9674 -7.8755 -21.8465
v 4.5512 -7.4666 -24.8031
v 9.7350 -7.4666 -25.5967
v 22.8074 -9.8951 -24.2883
v 28.6492 -6.9319 -22.1320
v 32.8954 -3.9688 -19.9756
v -1.1886 0.5334 -20.4631
v 5.0013 0.5115 -24.3908
v 9.6728 -2.1697 -25.7254
v 32.1435 -1.0283 -25.3090
v 33.3071 1.1964 -22.6003
v 0.4291 4.9444 -18.6469
v 5.3330 8.5455 -21.9859
v 8.8251 12.1466 -25.3249
v 29.9041 9.8951 -23.9964
v 33.1402 7.7504 -21.8128
v 8.0313 12.6203 -19.9916
v 11.9155 13.7318 -22.6099
v 20.5512 14.8860 -22.5374
v 27.7629 13.3167 -21.8128
v 32.6172 12.6126 -18.6631
v -0.6248 -20.1944 -14.5374
v 4.5512 -22.2102 -14.5374
v 12.5512 -23.0028 -14.5374
v 17.4794 -20.9871 -14.5374
v -8.1236 -11.8509 -14.5374
v -4.6248 -15.8509 -14.5374
v 21.2118 -14.7957 -15.0111
v 25.1548 -11.6817 -17.9937
v -8.4535 -7.8755 -14.9435
v -6.9797 -5.4815 -17.8810
v 23.0812 -10.2582 -12.6603
v 28.2724 -7.1135 -15.3601
v 32.8954 -3.9688 -18.0598
v -8.2236 -2.2216 -12.5477
v -4.9784 0.4804 -14.9435
v 31.3899 -1.6413 -12.7265
v 33.6345 0.8286 -15.0508
v -0.7126 6.2585 -14.5374
v 2.8718 10.2585 -14.5374
v 33.7255 8.5334 -14.5374
v 6.8718 13.0986 -14.5374
v 12.5512 14.7053 -14.5374
v 20.5512 15.4046 -14.5374
v 28.5512 13.8916 -14.5374
v 32.6296 12.6271 -14.5374
v 7.0494 -27.8478 -3.9222
v 9.0727 -27.8478 -3.9222
v -7.9457 -19.8614 -3.6199
v -3.5228 -21.4351 -6.3869
v 4.4501 -25.4601 -6.5683
v 12.0641 -24.8051 -6.5683
v 17.3924 -20.8125 -6.5374
v -15.6016 -11.7250 -3.6329
v -10.7676 -14.4842 -6.2931
v -6.2388 -17.2434 -8.9532
v 20.2281 -15.4666 -6.5374
v -15.6016 -8.9164 -3.6329
v -13.1840 -6.7365 -6.3947
v 23.0253 -7.5416 -6.1951
v 26.0566 -4.9249 -8.6336
v -9.8744 0.4804 -6.5402
v -6.3451 3.1118 -9.2088
v 23.5605 -1.2358 -3.3003
v 28.0376 1.2281 -6.6604
v 33.1103 3.6921 -10.0205
v -8.0737 6.0377 -3.8755
v -3.5866 7.7969 -6.5402
v 4.3196 10.5097 -6.7662
v 12.5512 9.7457 -4.7699
v 20.5512 9.7793 -4.2180
v 27.8316 8.1756 -5.9410
v 32.9994 8.5334 -10.0577
v 6.8319 13.2001 -9.5854
v 12.5512 13.7823 -8.7699
v 20.5512 13.6414 -8.2180
v 28.5512 12.9268 -9.1796
v 32.5897 12.5791 -10.4147
v 7.0494 -27.8478 -1.3098
v 9.0727 -27.8478 -1.3098
v -7.9457 -19.8614 -1.4773
v -3.4076 -21.4801 1.2987
v 4.7796 -23.6139 1.8219
v 12.0641 -22.9306 -0.2946
v 16.9964 -19.9065 -2.1845
v -15.7812 -11.8549 1.4626
v -10.9469 -15.8650 1.2987
v -6.0467 -18.2795 3.8560
v 7.8430 -18.8905 4.9535
v 12.3367 -15.9209 2.8362
v 18.8233 -15.4666 -1.4386
v -15.7812 -7.9936 1.4626
v -15.2312 -3.9936 1.4626
v 14.8604 -9.7126 3.9081
v 19.6204 -7.2142 1.3299
v -12.0689 0.5334 1.4626
v 21.6494 1.0719 0.7299
v 24.6853 4.0975 -2.4252
v -8.2865 6.0958 1.4626
v -3.4488 7.9809 1.4626
v 4.5512 7.6358 1.4626
v 12.5512 7.0344 1.4626
v 20.1306 6.0026 0.7299
v 24.6853 5.2705 -2.4252
v -0.7134 -20.4132 6.9081
v 2.5097 -20.4132 6.9081
v -15.7392 -11.7259 5.9390
v -11.4488 -12.7708 7.7384
v -3.9290 -15.3403 10.1310
v 4.3450 -15.6458 9.2044
v 9.5271 -13.5571 6.1674
v -16.2608 -6.8387 8.5280
v -13.0489 -7.4615 9.1864
v -7.1445 -11.3771 13.3540
v 5.7686 -7.4666 11.0437
v 12.3367 -7.2142 7.0704
v 17.4064 -4.3793 6.0341
v -16.7824 -2.7651 11.1171
v -11.5616 0.2217 8.8359
v -3.4488 2.1970 10.6315
v 4.5476 0.2592 10.6452
v 12.5512 0.5334 8.7958
v 17.6669 0.5334 6.6674
v -7.9409 5.1123 6.5547
v -3.4488 5.3183 6.6315
v 4.5512 5.5823 6.8883
v 12.5512 5.8221 7.3147
v 17.1836 5.3208 6.4976
v -1.8112 -12.4011 13.6562
v 0.8470 -12.4011 13.6562
v -23.5648 -3.7073 20.9891
v -19.4490 -4.3990 17.9785
v -11.6858 -5.8008 17.3984
v -4.0662 -8.2129 14.6637
v 1.7686 -7.4666 14.0442
v -23.6072 0.5334 21.0738
v -20.0059 0.3428 18.5367
v -11.6858 -1.2902 17.3984
v -3.4488 -1.8030 14.8188
v 1.8785 -2.5903 14.0446
v -23.5441 4.5637 21.4177
v -23.2294 4.5637 21.4177
v -23.5590 -3.6554 25.4626
v -20.2403 -3.9108 24.9887
v -14.5104 -3.9552 22.0061
v -31.6451 4.0506 28.9471
v -26.7941 1.0437 25.9533
v -20.0875 0.6838 24.9887
v -14.5104 -1.8825 22.0061
v -31.6451 4.9932 28.9471
v -26.7060 4.8566 25.9533
v -23.2578 4.5926 25.4626
v -23.4798 -3.4776 29.4736
v -23.4345 -3.4776 29.4736
v -32.2090 3.3849 33.4626
v -27.0971 1.1010 32.1582
v -23.4117 0.5334 29.5060
v -39.4908 12.4576 37.4154
v -34.6223 8.7254 34.6797
v -28.3742 7.4542 33.3934
v -23.4136 4.5819 29.5095
v -39.4908 12.5890 37.4154
v -35.4488 12.6475 37.2882
v -31.3673 12.6299 37.2773
v -32.2661 3.4848 38.2778
v -30.7144 3.4848 38.2778
v -40.6176 12.0930 41.4626
v -35.1392 8.8870 41.1517
v -30.9007 9.2393 41.1517
v -40.6176 13.6526 41.4626
v -35.4488 13.8552 41.4626
v -31.3144 12.7359 41.4626
v -40.9652 12.0220 47.5003
v -35.4488 12.0323 47.0697
v -31.3512 12.3767 45.5678
v -48.7278 19.7128 51.6262
v -43.3511 16.8414 49.5633
v -35.4488 13.7410 47.0697
v -31.3512 12.7069 45.5678
v -71.5997 28.3617 53.1671
v -67.4488 28.2073 52.9915
v -59.4488 27.5996 52.9540
v -51.4162 24.7442 51.8334
v -45.4650 24.5334 51.6853
v -71.9562 32.5334 52.8459
v -67.4488 32.5334 52.4713
v -60.0725 32.1379 52.9557
v -51.4488 29.5136 52.8034
v -46.5155 29.1660 52.9293
v -71.9744 37.0836 52.9358
v -67.4488 37.0592 52.9424
v -63.1550 36.6843 53.2958
v -48.7278 19.7128 54.1163
v -45.7370 19.7128 54.1163
v -71.5997 28.3617 53.7220
v -67.4488 28.2073 53.9808
v -59.0791 27.3953 56.9215
v -51.6283 25.0499 56.9282
v -45.4650 24.5334 54.6610
v -71.9562 32.5334 54.5203
v -67.4488 32.5334 55.9115
v -59.6605 32.3231 57.0568
v -51.6968 30.2606 57.2292
v -46.5155 29.1660 54.4069
v -71.9744 37.0836 54.6135
v -67.4488 37.0592 55.3934
v -63.1550 36.6843 54.8862
v -56.1660 27.8817 61.8883
v -54.5288 27.8817 61.8883
v -56.1660 30.1051 61.8883
v -54.5288 30.1051 61.8883
f 3 2 1
f 3 4 2
f 5 4 3
f 5 6 4
f 8 1 2
f 8 7 1
f 7 3 1
f 7 9 3
f 8 2 4
f 8 4 10
f 9 5 3
f 9 13 5
f 10 4 6
f 10 6 14
f 14 6 5
f 14 5 13
f 14 11 10
f 14 15 11
f 18 12 17
f 18 13 12
f 19 13 18
f 19 14 13
f 19 15 14
f 19 20 15
f 21 15 20
f 21 16 15
f 22 19 18
f 22 23 19
f 24 19 23
f 24 20 19
f 31 25 30
f 31 26 25
f 31 27 26
f 31 32 27
f 8 32 7
f 8 33 32
f 32 28 27
f 32 33 28
f 36 29 35
f 36 30 29
f 37 30 36
f 37 31 30
f 38 7 32
f 38 9 7
f 38 31 37
f 38 32 31
f 39 33 8
f 39 8 10
f 11 39 10
f 11 40 39
f 39 34 33
f 39 40 34
f 42 37 36
f 42 43 37
f 44 9 38
f 44 13 9
f 44 12 13
f 44 43 12
f 44 37 43
f 44 38 37
f 45 40 11
f 45 11 15
f 16 45 15
f 16 46 45
f 45 41 40
f 45 46 41
f 43 17 12
f 43 48 17
f 47 43 42
f 47 48 43
f 49 18 17
f 49 17 48
f 46 16 21
f 46 21 51
f 21 20 50
f 21 50 51
f 49 22 18
f 49 53 22
f 52 49 48
f 52 53 49
f 54 23 22
f 54 22 53
f 50 20 24
f 50 24 55
f 24 23 54
f 24 54 55
f 56 50 55
f 56 51 50
f 58 25 26
f 58 57 25
f 27 58 26
f 27 59 58
f 60 27 28
f 60 59 27
f 62 25 57
f 62 30 25
f 62 29 30
f 62 61 29
f 63 60 28
f 63 28 33
f 34 63 33
f 34 64 63
f 61 35 29
f 61 65 35
f 66 36 35
f 66 35 65
f 68 64 34
f 68 34 40
f 67 63 64
f 67 64 68
f 69 40 41
f 69 68 40
f 66 42 36
f 66 71 42
f 70 66 65
f 70 71 66
f 69 41 46
f 69 46 73
f 72 68 69
f 72 69 73
f 71 47 42
f 71 74 47
f 75 48 47
f 75 47 74
f 73 46 51
f 73 51 76
f 75 52 48
f 75 77 52
f 78 53 52
f 78 52 77
f 54 53 78
f 54 78 79
f 55 54 79
f 55 79 80
f 76 51 56
f 76 56 81
f 56 55 80
f 56 80 81
f 86 57 58
f 86 85 57
f 87 58 59
f 87 86 58
f 86 83 82
f 86 87 83
f 88 59 60
f 88 87 59
f 91 57 85
f 91 62 57
f 91 61 62
f 91 90 61
f 91 84 90
f 91 85 84
f 92 88 60
f 92 60 63
f 94 61 90
f 94 65 61
f 94 89 93
f 94 90 89
f 92 63 67
f 92 67 95
f 96 67 68
f 96 95 67
f 94 70 65
f 94 97 70
f 98 71 70
f 98 70 97
f 96 68 72
f 96 72 100
f 99 95 96
f 99 96 100
f 101 72 73
f 101 100 72
f 98 74 71
f 98 103 74
f 102 98 97
f 102 103 98
f 104 75 74
f 104 74 103
f 101 73 76
f 101 76 108
f 107 100 101
f 107 101 108
f 109 75 104
f 109 77 75
f 78 77 109
f 78 109 110
f 109 104 105
f 109 105 110
f 79 78 110
f 79 110 111
f 111 110 105
f 111 105 106
f 112 80 79
f 112 79 111
f 111 106 107
f 111 107 112
f 113 108 76
f 113 76 81
f 113 81 80
f 113 80 112
f 112 107 108
f 112 108 113
f 83 114 82
f 83 115 114
f 85 116 84
f 85 117 116
f 114 86 82
f 114 118 86
f 86 117 85
f 86 118 117
f 115 83 87
f 115 87 119
f 118 114 115
f 118 115 119
f 120 87 88
f 120 119 87
f 122 84 116
f 122 90 84
f 122 89 90
f 122 121 89
f 123 122 116
f 123 116 117
f 124 118 119
f 124 119 125
f 120 88 92
f 120 92 126
f 125 119 120
f 125 120 126
f 121 93 89
f 121 127 93
f 128 94 93
f 128 93 127
f 126 92 95
f 126 95 130
f 129 125 126
f 129 126 130
f 128 97 94
f 128 131 97
f 130 95 99
f 130 99 132
f 133 99 100
f 133 132 99
f 131 102 97
f 131 134 102
f 135 103 102
f 135 102 134
f 136 104 103
f 136 103 135
f 105 104 136
f 105 136 137
f 138 106 105
f 138 105 137
f 133 100 107
f 133 107 139
f 139 107 106
f 139 106 138
f 138 132 133
f 138 133 139
f 118 140 117
f 118 141 140
f 143 121 122
f 143 142 121
f 140 123 117
f 140 144 123
f 123 143 122
f 123 144 143
f 141 118 124
f 141 124 145
f 145 144 140
f 145 140 141
f 146 124 125
f 146 145 124
f 142 127 121
f 142 147 127
f 128 127 147
f 128 147 148
f 148 147 142
f 148 142 143
f 149 148 143
f 149 143 144
f 146 125 129
f 146 129 151
f 150 145 146
f 150 146 151
f 152 129 130
f 152 151 129
f 154 128 148
f 154 131 128
f 153 148 147
f 153 154 148
f 157 156 150
f 157 150 151
f 152 130 132
f 152 132 158
f 157 151 152
f 157 152 158
f 159 131 154
f 159 134 131
f 160 135 134
f 160 134 159
f 159 154 155
f 159 155 160
f 136 135 160
f 136 160 161
f 161 160 155
f 161 155 156
f 137 136 161
f 137 161 162
f 161 156 157
f 161 157 162
f 158 132 138
f 158 138 163
f 163 138 137
f 163 137 162
f 163 162 157
f 163 157 158
f 165 144 145
f 165 164 144
f 168 147 148
f 168 167 147
f 164 149 144
f 164 169 149
f 149 168 148
f 149 169 168
f 165 145 150
f 165 150 170
f 170 169 164
f 170 164 165
f 167 153 147
f 167 172 153
f 172 166 171
f 172 167 166
f 173 154 153
f 173 153 172
f 174 155 154
f 174 154 173
f 174 173 168
f 174 168 169
f 175 170 150
f 175 150 156
f 175 156 155
f 175 155 174
f 174 169 170
f 174 170 175
f 177 171 176
f 177 172 171
f 179 166 167
f 179 178 166
f 180 167 168
f 180 179 167
f 178 171 166
f 178 182 171
f 180 168 173
f 180 173 184
f 184 173 172
f 184 172 183
f 184 183 179
f 184 179 180
f 182 176 171
f 182 186 176
f 186 181 185
f 186 182 181
f 183 172 177
f 183 177 187
f 187 177 176
f 187 176 186
f 189 178 179
f 189 188 178
f 188 182 178
f 188 191 182
f 191 181 182
f 191 190 181
f 189 179 183
f 189 183 192
f 192 191 188
f 192 188 189
f 190 185 181
f 190 194 185
f 195 186 185
f 195 185 194
f 192 183 187
f 192 187 196
f 196 187 186
f 196 186 195
f 196 195 191
f 196 191 192
f 198 193 197
f 198 194 193
f 199 194 198
f 199 195 194
f 201 190 191
f 201 200 190
f 200 194 190
f 200 203 194
f 203 193 194
f 203 202 193
f 201 191 195
f 201 195 204
f 204 203 200
f 204 200 201
f 202 197 193
f 202 205 197
f 206 198 197
f 206 197 205
f 204 195 199
f 204 199 207
f 207 199 198
f 207 198 206
f 209 202 203
f 209 208 202
f 210 203 204
f 210 209 203
f 208 205 202
f 208 212 205
f 213 206 205
f 213 205 212
f 213 212 208
f 213 208 209
f 210 204 207
f 210 207 214
f 214 207 206
f 214 206 213
f 214 213 209
f 214 209 210
f 219 211 218
f 219 212 211
f 221 215 220
f 221 216 215
f 222 216 221
f 222 217 216
f 223 217 222
f 223 218 217
f 224 218 223
f 224 219 218
f 226 220 225
f 226 221 220
f 227 221 226
f 227 222 221
f 229 211 212
f 229 228 211
f 216 230 215
f 216 231 230
f 217 231 216
f 217 232 231
f 228 218 211
f 228 233 218
f 233 217 218
f 233 232 217
f 229 212 219
f 229 219 234
f 234 233 228
f 234 228 229
f 230 220 215
f 230 235 220
f 235 230 231
f 235 231 236
f 237 236 231
f 237 231 232
f 238 223 222
f 238 222 237
f 234 219 224
f 234 224 239
f 239 224 223
f 239 223 238
f 239 238 233
f 239 233 234
f 235 225 220
f 235 240 225
f 226 225 240
f 226 240 241
f 241 240 235
f 241 235 236
f 242 237 222
f 242 222 227
f 242 227 226
f 242 226 241
f 242 241 236
f 242 236 237
f 244 232 233
f 244 243 232
f 245 232 243
f 245 237 232
f 244 233 238
f 244 238 246
f 238 237 245
f 238 245 246
f 245 243 244
f 245 244 246
