# parsimony mesh: g7315_monomer (source /Users/eranagmon/code/v2e-molecules/workspace/studies/ecoli-3d/viz/3d/structures/g7315_monomer.pdb)
# atoms: 526  voxel: 2.5 Å  verts: 1299  tris: 2648
v 26.4102 -12.9290 -30.0019
v 26.5730 -12.9290 -30.0019
v 26.4102 -12.7479 -30.0019
v 26.5730 -12.7479 -30.0019
v 18.1773 3.9617 -30.1978
v 19.2777 3.9617 -30.1978
v 18.1769 5.9383 -30.2205
v 19.2974 5.9383 -30.2205
v 18.7220 7.2784 -30.0704
v 19.1158 7.2784 -30.0704
v 23.6596 -23.1336 -28.0493
v 25.2453 -23.1219 -28.0283
v 27.7453 -22.9300 -27.6690
v 30.2453 -22.9559 -27.6417
v 31.6217 -22.9379 -27.5930
v 23.2061 -21.5617 -28.3802
v 25.2453 -21.5617 -29.0014
v 27.7453 -21.5617 -28.7154
v 30.2453 -21.5617 -28.2743
v 31.6416 -21.5617 -27.6415
v 21.4600 -17.9088 -27.4782
v 22.5654 -18.8699 -28.1333
v 25.3276 -18.8822 -28.5194
v 27.7453 -19.2880 -28.5079
v 30.2453 -19.7555 -28.0941
v 31.5640 -20.2192 -27.5700
v 21.4600 -17.7527 -27.4782
v 22.6980 -16.7763 -27.8852
v 25.3276 -16.6333 -28.0980
v 26.7904 -15.8478 -27.8328
v 23.3240 -14.0617 -27.7608
v 25.4442 -13.8821 -28.9237
v 27.0624 -13.8821 -28.6843
v 18.5279 -10.8938 -27.8401
v 19.7393 -10.8938 -27.8401
v 23.5959 -12.7005 -27.6368
v 25.4442 -12.4219 -28.5667
v 26.9828 -12.4078 -28.7115
v 18.5279 -9.7618 -27.8401
v 19.7393 -9.7618 -27.8401
v 18.4639 1.9794 -28.1823
v 19.4724 1.9794 -28.1823
v 17.6949 3.2524 -28.8940
v 19.9048 3.2524 -28.8940
v 17.8498 6.1271 -28.7066
v 19.6908 6.1271 -28.7066
v 18.7220 7.2784 -29.5367
v 19.1158 7.2784 -29.5367
v 23.6596 -23.1336 -26.9992
v 25.2453 -23.1219 -26.9376
v 27.7453 -22.9300 -26.9351
v 30.4551 -22.9299 -26.1821
v 31.5937 -22.9099 -26.2115
v 18.9039 -20.4019 -25.1027
v 20.2453 -20.6922 -25.5921
v 22.6359 -21.5791 -26.3301
v 25.4509 -21.5823 -25.5620
v 27.7453 -21.5617 -25.7742
v 30.4551 -21.7697 -25.4442
v 31.6152 -21.7697 -26.1719
v 18.6959 -19.0617 -25.4093
v 20.4741 -18.8699 -26.7395
v 21.6121 -19.5755 -27.3277
v 25.9827 -18.8822 -25.9811
v 27.7453 -19.2880 -26.3006
v 30.2453 -19.7555 -26.5390
v 31.5640 -20.2192 -26.9789
v 18.6876 -17.3099 -25.4173
v 20.3529 -16.6979 -26.3401
v 21.8330 -16.0860 -27.2629
v 25.9101 -17.0631 -26.2115
v 26.8097 -15.8131 -26.2115
v 20.4616 -14.0617 -25.8766
v 22.0740 -14.0617 -27.1266
v 27.6981 -14.0617 -26.2115
v 16.3305 -10.5722 -25.2605
v 17.7149 -11.3066 -26.1409
v 20.2196 -11.8438 -26.4410
v 22.6931 -11.8544 -26.4410
v 25.2453 -11.9435 -26.2115
v 27.3837 -12.1294 -26.2115
v 16.3305 -9.9826 -25.2605
v 17.8217 -9.0389 -26.0731
v 20.3281 -8.9692 -26.2771
v 21.7903 -9.8432 -25.6685
v 18.7822 -7.6731 -25.2191
v 19.2501 -7.6731 -25.2191
v 18.3087 1.7228 -26.2115
v 20.2816 1.7814 -26.0526
v 21.6187 2.1309 -25.1134
v 17.4173 3.4383 -26.2115
v 21.1704 3.4383 -26.7347
v 21.6847 3.4383 -25.4847
v 18.1039 5.5136 -26.2115
v 20.4492 5.4370 -26.2889
v 21.6245 4.8358 -25.5072
v 31.4283 -22.8164 -24.9572
v 31.5001 -22.8164 -24.9572
v 18.9039 -20.4019 -24.8223
v 20.2453 -20.6922 -24.3893
v 22.7453 -20.9628 -24.2457
v 24.7547 -20.7627 -24.6309
v 31.4283 -22.7418 -24.9572
v 31.5001 -22.7418 -24.9572
v 18.6959 -19.0617 -24.5441
v 20.4493 -18.8975 -23.2533
v 22.7453 -19.2766 -22.9957
v 24.7130 -18.8978 -23.7632
v 18.6876 -17.3099 -24.5442
v 19.6692 -16.5106 -23.7111
v 23.6667 -15.8773 -22.7091
v 25.0470 -16.4941 -23.7931
v 26.6194 -15.4441 -24.8771
v 18.8905 -13.3439 -23.1925
v 19.2380 -14.1310 -23.9001
v 23.6803 -14.0617 -22.8834
v 25.2453 -14.0617 -23.8314
v 27.0476 -14.0617 -24.6594
v 16.3305 -10.5722 -24.5728
v 17.8668 -11.6830 -23.8826
v 19.0332 -12.7939 -24.8591
v 23.4478 -11.7297 -23.6505
v 25.2453 -12.3830 -24.3340
v 27.1076 -12.3767 -24.6431
v 13.8559 -7.9122 -22.5650
v 15.3123 -8.9474 -23.5689
v 17.2762 -9.1142 -23.7283
v 20.9168 -8.1766 -24.6363
v 22.7514 -9.1158 -23.6975
v 24.3929 -8.3884 -22.7587
v 13.5821 -6.5617 -22.8915
v 15.1746 -6.7145 -23.2144
v 17.8055 -6.8281 -23.8359
v 20.1482 -6.7285 -24.3676
v 22.9574 -6.3652 -23.3055
v 24.3929 -7.0676 -22.7587
v 13.6830 -4.0617 -22.8183
v 15.0281 -3.8466 -23.1558
v 17.7453 -4.1283 -23.2731
v 20.0647 -3.8300 -23.1482
v 22.9574 -4.2407 -23.0803
v 24.2251 -3.5268 -22.7489
v 13.9903 -2.8080 -22.4673
v 14.0500 -2.8080 -22.4673
v 20.7366 -1.5617 -22.7101
v 22.7453 -1.5617 -22.9866
v 24.2627 -1.5617 -22.7379
v 18.4771 1.5637 -23.7115
v 20.3190 0.6542 -23.5749
v 22.5694 1.1539 -23.8966
v 24.3029 0.9383 -22.8637
v 17.5769 3.4383 -23.7115
v 22.6879 3.3686 -23.7345
v 24.2787 2.4888 -22.9166
v 13.8311 7.0913 -22.6385
v 14.1873 7.0913 -22.6385
v 18.0951 5.4256 -23.7115
v 20.2453 5.5844 -23.7115
v 21.6435 4.8472 -23.7115
v 13.4589 8.4383 -23.0334
v 14.6742 8.4383 -23.0334
v 18.4227 9.2955 -22.6608
v 20.2453 9.2405 -22.7548
v 21.9803 9.4841 -22.6533
v 13.5173 10.9383 -22.9443
v 14.6150 10.9383 -22.9443
v 18.3494 10.9383 -22.7632
v 20.2453 10.9383 -23.2215
v 22.7863 10.7771 -23.1251
v 24.4613 11.5029 -22.9563
v 13.9089 12.2430 -22.5196
v 14.1082 12.2430 -22.5196
v 18.7066 12.6942 -22.6644
v 20.1184 13.4919 -23.0474
v 22.7453 13.4383 -23.6020
v 24.5255 13.4383 -23.0219
v 20.8670 15.0784 -22.8156
v 22.7453 15.1408 -22.9164
v 24.2362 14.9016 -22.7139
v 21.4185 -17.9548 -22.4252
v 22.7453 -18.0266 -22.3607
v 24.0995 -17.9552 -22.3634
v 20.7677 -16.3787 -21.4397
v 22.6471 -16.4837 -21.5610
v 24.0995 -17.5440 -22.3634
v 18.8905 -13.3439 -22.0652
v 19.5523 -14.1310 -21.2237
v 22.6399 -14.0617 -21.2115
v 18.5525 -11.5617 -21.8127
v 20.2338 -11.5942 -20.6152
v 22.3592 -11.5942 -21.1342
v 13.7719 -7.9729 -21.2115
v 14.4404 -7.9729 -21.2115
v 18.2563 -9.0617 -21.4954
v 20.0016 -9.1675 -20.3613
v 22.8256 -9.8312 -21.1342
v 24.5722 -8.6413 -21.2115
v 13.2828 -6.5617 -21.2115
v 15.6904 -7.3976 -21.2115
v 17.6954 -7.4714 -20.9699
v 19.0058 -7.7966 -19.9755
v 23.9320 -5.4009 -22.3572
v 24.9172 -6.3652 -21.3989
v 13.6011 -4.1040 -21.4540
v 15.0281 -3.3803 -21.4540
v 17.6379 -3.1063 -21.4465
v 19.1109 -2.8422 -22.4364
v 23.9320 -5.1934 -22.3572
v 24.9725 -4.2407 -21.3989
v 13.9903 -2.8080 -22.4491
v 14.0500 -2.8080 -22.4491
v 18.3996 -2.3014 -20.7698
v 19.5996 -1.5055 -21.4465
v 25.5882 -1.7262 -21.2923
v 27.7453 -1.2269 -20.4833
v 29.1739 -0.8410 -20.1058
v 18.7261 1.8562 -21.2115
v 19.6640 0.6062 -21.2115
v 25.7234 1.1816 -21.2923
v 27.7453 0.4805 -20.4833
v 29.1739 -0.0776 -20.1058
v 15.6816 4.1962 -20.7846
v 17.2822 3.3930 -21.4553
v 23.2304 4.1555 -21.6596
v 24.6685 3.3686 -20.9804
v 13.7031 6.5099 -21.2115
v 15.1020 6.0429 -21.0285
v 17.4504 6.1946 -21.3126
v 20.2453 6.4471 -21.6339
v 22.5364 5.7270 -21.3808
v 24.5057 5.9383 -20.2227
v 12.9870 8.4383 -21.2115
v 15.9609 8.2150 -21.3905
v 17.5789 8.2642 -21.2586
v 20.2453 7.9905 -21.6339
v 22.8153 8.6015 -21.1285
v 24.6407 7.7190 -20.2782
v 8.8153 12.0870 -20.0826
v 10.2453 11.8832 -20.2452
v 12.3707 11.0050 -21.1158
v 15.8650 10.9383 -21.9096
v 17.0994 10.9383 -21.9096
v 23.4752 10.3132 -21.2115
v 24.3828 11.5632 -21.2115
v 8.5173 13.4383 -20.2912
v 10.2453 13.4383 -20.6742
v 12.8460 13.0783 -21.0501
v 15.0631 12.3466 -21.0910
v 17.8221 12.8048 -21.0910
v 19.4873 14.0962 -21.2115
v 23.8197 14.2291 -20.1095
v 24.4498 13.4128 -21.0503
v 8.5380 15.0205 -20.2800
v 10.2453 15.1145 -20.3905
v 11.7832 14.9245 -20.2150
v 20.7373 15.1417 -21.2115
v 22.8900 15.1790 -21.0503
v 24.2362 14.9016 -21.7762
v 21.0766 -15.4233 -19.8489
v 21.6274 -15.4233 -19.8489
v 20.8544 -14.0617 -19.7890
v 21.7049 -14.0617 -19.7890
v 21.0595 -12.4492 -19.8441
v 21.6426 -12.4492 -19.8441
v 13.8369 -7.9261 -19.8416
v 14.2899 -7.9261 -19.8416
v 20.6724 -8.4047 -19.6061
v 22.7453 -8.6536 -19.4172
v 24.3669 -8.3411 -19.5911
v 13.6960 -6.5617 -19.7341
v 15.1721 -6.5776 -19.6391
v 17.7453 -6.2577 -19.5633
v 20.0016 -6.8026 -19.4719
v 22.8820 -6.4243 -18.4277
v 25.3981 -6.3229 -18.8888
v 27.7453 -5.5411 -18.3669
v 29.1570 -5.4496 -17.9436
v 13.7547 -4.9656 -19.7782
v 15.2453 -4.7288 -19.6484
v 17.6379 -4.0530 -19.2619
v 20.2453 -4.0617 -18.7097
v 22.2897 -4.0617 -18.1586
v 26.2945 -4.0617 -19.7406
v 27.7453 -4.0617 -19.2574
v 29.2538 -4.0617 -18.2283
v 18.3996 -2.3014 -19.3265
v 20.2066 -1.5055 -18.9589
v 22.3457 -1.5617 -17.9345
v 26.2936 -2.6692 -19.7752
v 27.7453 -2.4769 -19.6020
v 29.3991 -1.6293 -18.7856
v 18.9432 2.1664 -19.7916
v 20.2066 1.1752 -19.5085
v 22.9268 0.8148 -18.3408
v 25.4774 1.7009 -18.6919
v 27.7453 1.2724 -18.7115
v 29.3627 0.1648 -18.7115
v 13.4896 4.3177 -18.2831
v 15.0071 3.7400 -18.9545
v 17.9641 2.5231 -18.8595
v 20.3937 3.2491 -18.7651
v 22.6557 3.4659 -18.5975
v 25.2480 3.4336 -18.6206
v 27.1822 4.2163 -17.7291
v 11.0609 6.6388 -17.8873
v 12.7964 5.6765 -18.9185
v 15.1905 5.9005 -19.9015
v 16.7351 7.0869 -19.8532
v 21.3260 4.8230 -18.2600
v 21.7626 4.8230 -18.2600
v 25.7557 5.9383 -19.4476
v 27.9074 5.7367 -18.5313
v 29.3341 6.4356 -18.2631
v 11.0609 7.9120 -17.8873
v 12.1754 8.6226 -18.7170
v 16.3660 7.2328 -19.8532
v 17.8401 8.4102 -18.6799
v 19.0367 9.5876 -17.5066
v 23.5088 9.2249 -18.7115
v 25.3826 8.1603 -18.8898
v 27.7453 7.9874 -18.5981
v 29.3341 7.6827 -18.2631
v 8.8153 12.0870 -19.1783
v 10.0026 11.5062 -18.4916
v 11.8896 10.1617 -18.7115
v 18.7225 10.9383 -17.5517
v 20.0201 11.0446 -17.8310
v 22.8376 11.1612 -18.9380
v 24.0459 12.0403 -19.9190
v 8.4453 13.2071 -18.4916
v 9.0074 12.2196 -17.5116
v 13.3364 13.8864 -18.7115
v 15.2453 12.7760 -18.7115
v 17.8072 12.5228 -18.5066
v 20.2659 13.4111 -19.2069
v 22.8900 13.4128 -19.6363
v 24.0459 12.5624 -19.9190
v 8.4428 15.0863 -18.7115
v 10.2453 15.4054 -18.7115
v 12.0864 15.0075 -18.7115
v 21.1129 14.9028 -19.7998
v 22.1531 14.9028 -19.7998
v 23.8064 -5.4995 -17.3078
v 25.2453 -5.5785 -17.1285
v 27.7453 -5.5411 -17.0011
v 29.1570 -5.4496 -17.1379
v 23.5397 -4.0617 -17.1225
v 25.4698 -3.8510 -16.0162
v 27.7453 -4.3950 -15.7511
v 29.3188 -4.0390 -16.2673
v 23.5957 -1.5617 -17.1937
v 25.4698 -1.7835 -15.9703
v 27.7453 -1.3422 -15.6134
v 29.4086 -1.6642 -16.2600
v 23.8811 -0.1009 -17.4027
v 25.2453 0.3375 -17.0712
v 27.7453 0.4803 -16.8634
v 29.3067 0.0895 -17.1257
v 11.0425 4.4982 -15.3664
v 12.8904 4.4079 -16.0090
v 15.0250 3.8981 -15.9755
v 17.6827 3.6812 -16.2104
v 19.6593 3.9563 -17.0430
v 23.4293 4.3176 -17.1959
v 25.2453 4.0562 -16.7107
v 27.1822 4.2163 -16.7261
v 10.5089 5.8586 -16.2045
v 12.8904 4.9276 -16.0090
v 14.0448 4.8830 -14.9848
v 18.4742 5.0536 -15.3763
v 20.3219 5.7716 -16.2536
v 22.6557 5.7691 -16.6886
v 25.2453 5.9383 -15.6764
v 27.9074 5.7367 -16.3233
v 29.3341 6.4356 -16.9872
v 5.7379 9.2555 -15.3218
v 7.3103 9.2555 -15.3218
v 10.2893 8.6226 -16.4023
v 11.5913 9.5787 -17.3628
v 18.8471 9.4438 -16.2115
v 20.0106 8.6920 -16.2131
v 22.8131 8.4992 -16.5483
v 25.2453 8.0053 -16.4272
v 27.7453 7.9874 -16.5903
v 29.3341 7.6827 -16.9872
v 5.5997 10.9383 -15.5532
v 7.9843 10.7024 -15.9238
v 9.8419 10.5850 -16.5696
v 11.5913 9.7917 -17.3628
v 18.6886 11.0275 -16.3533
v 19.8921 11.1012 -16.2883
v 22.0250 10.2821 -16.9620
v 6.0585 12.6181 -15.3901
v 8.1613 13.2648 -16.4472
v 9.7148 13.3250 -16.4431
v 12.7955 14.2448 -16.2128
v 15.2453 13.6991 -16.2115
v 17.7343 13.4336 -16.1457
v 19.2632 13.4383 -15.4879
v 8.7160 14.8868 -17.1848
v 10.2453 14.9792 -16.9431
v 11.9956 14.8778 -17.0470
v 18.4534 14.7835 -15.0103
v 19.2670 14.7835 -15.0103
v 26.4527 -2.8773 -14.9348
v 27.7453 -3.1450 -14.8060
v 29.1898 -3.1905 -14.7808
v 26.4527 -2.7648 -14.9348
v 27.7453 -2.5922 -14.8060
v 29.1898 -2.5659 -14.7808
v 6.2337 4.3227 -12.7259
v 7.7453 4.1078 -13.0598
v 10.2236 4.1683 -13.7815
v 12.2568 4.3445 -13.7115
v 15.7114 4.4597 -14.6573
v 17.8851 4.5680 -13.5764
v 19.0206 4.6764 -12.4955
v 6.2337 5.1689 -12.7259
v 7.7405 5.9767 -13.3347
v 9.3381 5.9383 -14.6047
v 13.5068 5.3639 -13.7115
v 15.0250 5.6373 -13.7790
v 17.8851 5.2115 -13.5764
v 19.2617 5.9075 -13.4819
v 3.8474 9.4984 -12.9655
v 5.0409 9.0087 -13.7639
v 7.9405 8.3836 -14.0062
v 9.0636 8.4383 -14.7785
v 18.3524 8.9494 -13.7115
v 19.3093 7.6994 -13.7115
v 3.8474 9.7958 -12.9655
v 4.6030 10.7528 -13.7639
v 8.9770 9.7117 -14.8932
v 9.0098 9.7117 -14.8932
v 18.3904 11.0275 -13.6852
v 19.0808 11.9203 -14.5011
v 5.9480 12.8899 -13.7115
v 7.7809 13.9800 -13.5766
v 10.2453 14.1540 -14.2090
v 12.7453 14.3548 -14.5184
v 15.2453 14.5182 -14.7512
v 17.8155 13.4533 -13.8722
v 20.0072 13.1324 -13.8489
v 22.3055 14.0012 -13.1968
v 8.6380 14.8846 -12.6533
v 10.2453 15.1685 -12.9590
v 12.7453 15.6363 -13.2684
v 15.2453 15.6155 -13.5012
v 17.8192 15.7773 -13.7609
v 20.1583 15.7454 -14.3191
v 22.3423 15.9383 -13.4208
v 18.8517 17.2681 -12.6117
v 20.2453 17.4787 -12.9820
v 21.8145 17.4957 -13.0053
v 6.1746 4.2512 -11.2115
v 7.7453 3.8343 -11.2115
v 10.4382 4.1939 -10.9929
v 11.7148 4.4201 -11.6805
v 18.6749 4.5661 -11.2115
v 19.2443 4.5661 -11.2115
v 3.2620 6.8809 -10.4806
v 5.4482 6.0249 -11.3001
v 6.9040 6.8356 -12.1195
v 11.3563 5.9383 -10.1870
v 12.5153 6.1051 -10.9452
v 15.2453 6.2417 -11.2115
v 17.4249 5.3666 -11.2115
v 19.7892 5.9383 -11.2115
v 3.0694 8.5744 -11.2730
v 5.2453 7.9134 -11.9694
v 6.9040 7.5117 -12.1195
v 11.4051 7.2876 -10.2098
v 11.6492 7.2876 -10.2098
v 18.2856 8.9284 -11.7333
v 19.5068 8.2324 -11.0246
v 3.4802 10.7528 -10.9939
v 4.5357 11.4624 -11.6821
v 13.8351 12.0204 -10.1087
v 15.2453 11.6237 -10.4871
v 17.7316 10.6900 -11.1242
v 19.1211 9.7765 -10.0666
v 3.6680 13.4383 -10.1951
v 5.3195 13.4917 -11.5592
v 6.9713 14.3607 -12.3128
v 13.8351 12.5175 -10.1087
v 15.1563 13.3859 -10.6514
v 17.9047 13.2335 -11.7706
v 20.2453 13.6044 -11.6243
v 22.3055 14.0012 -11.8328
v 3.6077 14.9809 -10.2190
v 5.4780 15.8639 -10.5471
v 7.5907 15.7847 -11.1541
v 10.2453 15.6917 -11.2115
v 12.7453 16.1594 -11.2115
v 15.1563 15.6278 -11.2309
v 17.9091 15.9380 -11.8789
v 20.2453 15.9383 -11.2698
v 22.3423 15.9383 -11.7097
v 6.4665 17.2042 -9.9953
v 6.5434 17.2042 -9.9953
v 18.8517 17.2681 -12.3624
v 20.2453 17.4787 -12.1070
v 21.8145 17.4957 -12.0879
v -1.2362 4.5208 -7.5109
v -0.8978 4.5208 -7.5109
v 6.3293 4.4711 -9.7498
v 7.7453 4.4148 -9.6991
v 9.7335 4.5408 -9.8234
v 18.6008 4.5374 -9.7879
v 19.3020 4.5374 -9.7879
v -1.2362 4.8297 -7.5109
v 0.1360 5.8774 -7.8151
v 2.5553 6.6660 -8.8562
v 5.3957 5.5736 -8.8345
v 7.7453 5.5884 -8.4491
v 9.9385 6.1587 -8.8786
v 13.3159 6.8158 -9.6244
v 15.2453 6.4514 -9.3257
v 17.7586 5.8223 -9.1325
v 19.6982 5.9383 -9.3082
v -4.0072 9.3628 -7.8495
v -2.2547 9.1749 -7.9247
v 0.3000 8.4729 -8.2097
v 1.6989 8.4383 -9.4745
v 10.8707 7.4971 -8.7115
v 12.7917 8.2275 -8.5710
v 15.2453 8.4383 -8.5536
v 17.7453 8.4383 -8.7581
v 19.5626 8.4383 -9.3303
v -6.0345 12.0852 -7.5010
v -4.8062 11.1265 -7.9664
v -2.2547 10.9383 -8.4163
v 0.4207 10.9916 -7.9598
v 2.1126 10.9916 -8.6771
v 13.6687 11.0876 -8.4952
v 15.2453 10.3737 -9.1894
v 17.7453 9.9408 -9.6642
v 19.1211 9.7765 -9.8174
v -6.0345 12.2453 -7.5010
v -4.7547 12.8343 -7.8017
v -2.2547 13.1364 -7.9531
v -0.2958 12.6481 -7.7029
v 2.8053 13.4383 -8.7115
v 8.7202 14.1756 -7.8642
v 10.2453 13.7904 -8.2200
v 12.9204 13.2607 -8.9200
v 14.2635 14.1842 -9.7700
v 3.4123 15.1284 -8.7115
v 5.4780 16.2941 -8.9373
v 7.6318 15.8980 -8.8927
v 10.2453 15.2116 -9.4700
v 12.7453 15.2114 -9.6493
v 14.2635 15.0180 -9.7700
v 6.4665 17.2042 -9.9212
v 6.5434 17.2042 -9.9212
v -3.7247 1.8745 -5.4590
v -2.2547 1.5472 -5.7603
v -0.2859 1.6474 -5.5291
v -3.8112 3.4383 -5.6836
v -2.1436 3.5878 -6.8797
v 0.2415 3.5448 -6.1583
v 2.7453 4.3429 -5.0864
v 5.2453 4.3279 -5.2436
v 6.8557 4.2156 -5.3305
v -3.6933 4.9686 -5.4268
v -2.1901 5.7325 -6.2917
v 0.1360 5.8774 -6.9721
v 2.7453 5.5160 -6.3364
v 5.2453 5.4006 -6.4936
v 7.8075 6.1217 -6.3483
v 10.1720 7.1212 -6.2776
v 11.6325 7.1036 -5.1892
v -4.0072 9.3628 -6.6971
v -2.4598 8.5127 -6.0935
v -0.4969 7.6626 -7.1566
v 8.7593 7.8401 -5.6994
v 10.1720 7.6704 -6.2776
v 12.4423 8.3758 -6.0981
v -6.0345 12.0852 -7.2677
v -4.9052 10.9225 -6.1491
v -3.4423 9.7598 -5.0304
v 1.3709 11.8604 -7.2909
v 1.5681 11.8604 -7.2909
v 8.3969 11.6999 -5.3422
v 9.7692 11.6999 -5.3422
v 12.9833 10.9383 -6.2115
v -6.0345 12.2453 -7.2677
v -4.7455 13.4523 -6.4830
v -2.0058 14.4464 -6.4036
v 0.4207 13.0799 -6.3591
v 2.5868 13.1662 -6.4006
v 5.2453 13.5847 -5.6410
v 7.7252 13.2318 -6.1638
v 10.4597 12.4747 -6.1899
v 11.9025 12.3058 -6.2115
v -3.6878 14.7964 -5.6984
v -2.6732 14.7964 -5.6984
v 3.6056 14.9826 -7.1770
v 5.2453 15.2261 -6.8910
v 7.0535 15.1111 -6.9854
v -3.7247 1.8745 -4.5189
v -2.2827 1.4905 -3.6959
v -0.1136 1.5514 -3.7115
v 6.1564 2.0722 -2.7447
v 6.6714 2.0722 -2.7447
v -3.8112 3.4383 -4.3909
v -2.7104 3.4383 -3.1409
v 0.9394 3.4167 -3.6843
v 2.8840 4.3640 -3.6843
v 5.2919 3.3520 -3.6314
v 7.1834 3.4047 -3.6314
v -8.9224 7.1048 -2.5515
v -7.2547 6.7979 -2.9648
v -4.2998 5.8903 -3.7877
v -2.9798 5.8926 -3.7182
v 1.0475 4.7965 -2.8329
v 2.1431 4.7965 -2.8329
v 8.2372 5.9383 -3.7115
v 11.2581 7.1036 -4.8078
v 11.6325 7.1036 -4.8078
v -11.3907 8.9933 -2.7857
v -9.7553 8.2713 -2.9547
v -7.2547 8.4383 -3.5439
v -4.7547 8.4383 -3.9502
v -3.1873 8.4383 -4.4911
v 8.4429 8.5794 -3.8931
v 10.3530 8.5794 -4.4439
v 12.0999 8.4383 -4.3999
v -11.3907 10.0613 -2.7857
v -9.7547 10.2648 -3.0105
v -7.2547 10.2038 -3.0406
v -4.4897 10.6511 -3.8497
v -2.7637 10.7867 -3.8101
v -0.4732 11.9630 -2.7335
v 8.3932 11.0515 -3.8315
v 9.9378 11.3357 -3.8877
v 12.0214 10.9383 -4.5090
v -4.1159 13.4383 -4.6137
v -2.0058 13.6880 -4.3465
v 0.3142 12.8957 -3.6247
v 2.9367 13.4534 -3.5096
v 5.4268 13.7970 -3.5096
v 7.6363 12.8487 -3.6739
v 10.2520 12.2831 -3.8843
v 11.5279 12.1962 -4.9533
v -3.6878 14.7964 -4.8307
v -2.6732 14.7964 -4.8307
v 3.8977 14.7383 -2.5417
v 4.7144 14.7383 -2.5417
v -3.7502 -0.5943 -0.2430
v -2.2547 -0.6807 -0.3609
v -0.7984 -0.5211 -0.2124
v -3.9885 0.9383 -0.5938
v -2.2827 1.0034 -1.6179
v -0.3137 1.0034 -1.1121
v 6.1564 2.0722 -2.1674
v 6.6714 2.0722 -2.1674
v -8.9989 3.8745 -0.2016
v -7.6969 3.8745 -0.2016
v -4.4212 3.4383 -0.8052
v -2.7104 3.4383 -2.0552
v 0.7939 3.6425 -1.1121
v 2.8840 4.4349 -1.1121
v 5.2919 3.2179 -1.2850
v 7.2153 3.4255 -1.2850
v -8.9607 6.1975 -1.1578
v -7.5126 5.9753 -0.8588
v -4.9981 5.2134 -1.2995
v -2.8156 5.1498 -2.1916
v 1.0475 4.7965 -1.8793
v 2.1431 4.7965 -1.8793
v 7.9762 5.9383 -1.2115
v -11.4217 8.9227 -1.2115
v -9.7553 7.6580 -1.2530
v -8.3336 7.3254 -0.4474
v 3.4636 9.2563 -0.2570
v 5.2453 8.8516 -0.6235
v 7.2021 8.2782 -1.3137
v -11.4217 10.1061 -1.2115
v -9.7547 10.8008 -1.2115
v -7.2547 10.7094 -1.2115
v -4.7547 10.4707 -1.2115
v -2.2547 11.1302 -1.2115
v 0.3142 11.6772 -1.3235
v 2.8333 11.0506 -0.4109
v 5.0795 11.1228 -0.6384
v 7.6318 11.1173 -1.9031
v 9.0681 12.0699 -2.3648
v 1.1935 12.3411 -2.2315
v 3.0503 13.1624 -1.4347
v 5.2584 13.4957 -1.2558
v 7.7453 12.9392 -1.9482
v 9.0681 12.3701 -2.3648
v 3.8977 14.7383 -2.3046
v 4.7144 14.7383 -2.3046
v -3.7302 -0.5508 1.2885
v -2.2547 -1.0697 1.2885
v -0.4193 -0.8306 1.2885
v -4.5506 0.9383 1.2885
v 0.4701 0.9383 1.2885
v -9.2954 3.5457 1.2885
v -7.0200 3.4108 1.0793
v -5.6545 3.3249 1.0793
v 1.1348 3.1653 1.2885
v 2.7453 3.7178 1.2885
v 5.3480 3.8675 1.2821
v 6.9089 4.2503 0.4445
v -9.1848 6.0494 1.3608
v -7.1820 5.8313 0.3411
v -5.9938 4.7057 0.1066
v 6.1400 5.9383 1.7698
v 6.9526 5.9383 0.5198
v -11.2707 9.2735 1.2885
v -9.5523 7.9387 1.3608
v -8.3336 7.3254 0.5756
v 0.9787 9.0641 2.0317
v 2.6763 9.0269 1.2344
v 5.3584 7.9913 1.1800
v 6.6914 7.3381 0.2743
v -11.2540 10.7988 1.4981
v -9.7547 11.4744 1.1462
v -7.3141 11.5291 1.4651
v -4.7547 10.9232 1.2885
v -2.2547 11.0247 1.2885
v 0.1853 10.4921 1.2344
v 2.8333 11.0506 0.2214
v 4.1357 12.0792 0.0779
v -11.0655 12.2606 2.4711
v -9.7547 12.2984 2.3962
v -8.1871 12.2628 2.4161
v 3.8697 12.3171 0.0779
v 4.1357 12.3171 0.0779
v -11.3302 -0.5835 4.6906
v -10.2326 -0.5835 4.6906
v -3.5599 -0.3479 2.6257
v -2.2547 -0.7007 2.9738
v -0.4305 -0.7941 3.0317
v -11.5243 0.9383 4.5324
v -9.5414 0.7489 4.3065
v -7.2547 1.1833 4.0354
v -4.7128 0.7878 3.4360
v -2.1908 0.8722 4.2404
v -0.0417 0.9383 3.3505
v -11.3720 2.7331 4.7117
v -9.8908 3.3559 3.7691
v -7.2547 2.4518 2.7854
v -5.8656 2.4160 2.5796
v -1.3149 2.7601 4.7946
v 0.4513 3.5804 3.8606
v 2.6411 4.0178 3.7713
v 4.6065 4.0659 3.7885
v -9.7525 5.9383 3.7885
v 1.1975 4.7540 4.5932
v 1.7382 4.7540 4.5932
v 5.2413 5.9383 3.7885
v -11.1893 9.4611 3.2864
v -10.2387 8.5520 3.9872
v -4.0014 9.4203 4.7223
v -2.2547 9.3497 4.4816
v 0.1853 9.1369 3.7828
v 2.7453 8.6667 3.7885
v 4.6301 7.9683 3.7885
v -11.4670 10.7085 3.9872
v -10.8365 9.7220 4.9531
v -6.5204 12.0822 2.7742
v -4.9038 11.0775 3.7483
v -2.2547 10.2014 3.2316
v -0.6880 9.9879 2.9456
v -11.4441 12.6929 3.7885
v -9.7547 13.2203 3.7885
v -7.3141 12.7436 3.6799
v -5.8062 12.4105 4.4409
v -19.0298 -5.6332 7.2405
v -18.1188 -5.6332 7.2405
v -13.8223 -5.8390 7.3267
v -12.9295 -5.8390 7.3267
v -18.9069 -4.0617 7.3107
v -18.2070 -4.0617 7.3107
v -13.8223 -4.5881 7.3267
v -12.9295 -4.5881 7.3267
v -18.8858 -1.5617 7.2224
v -17.4981 -1.5615 7.0594
v -15.3062 -0.7281 7.1616
v -11.7623 -0.8485 6.2885
v -9.8324 -0.8485 6.2885
v -19.2772 0.9383 6.9871
v -17.2547 0.9383 6.4997
v -14.5856 0.9825 7.0820
v -12.8311 0.9825 6.4719
v -8.5824 -0.1970 6.2885
v -7.2547 0.2752 6.2885
v -4.7052 1.2499 6.3610
v -2.9815 1.6615 5.5760
v -19.0376 2.5902 7.2190
v -17.2547 2.7326 7.0942
v -14.5383 3.3827 7.2785
v -12.2251 3.5152 6.0404
v -10.7168 4.3998 5.2021
v -3.8389 2.7783 7.2426
v -2.3313 3.6025 6.2309
v -0.4691 4.4267 5.2192
v 3.4049 4.5225 5.1675
v 4.2225 4.5225 5.1675
v -13.5607 4.7354 7.4890
v -12.0795 5.7166 7.0001
v -10.5230 5.9383 5.6526
v -1.6812 5.2067 6.8859
v 0.3145 5.8137 6.2809
v 2.6411 5.7278 5.5913
v 4.3467 5.9383 5.2515
v -11.1295 7.2856 7.3604
v -9.9101 8.0976 6.2568
v -7.2547 8.6635 6.5044
v -4.8027 8.7543 6.1424
v -2.2547 8.5076 6.2885
v 0.2571 8.2584 6.4210
v 2.7453 7.9194 5.6328
v 4.2366 7.4411 5.1935
v -11.5298 11.3887 5.5013
v -9.9038 10.7085 5.7499
v -7.2547 10.9383 5.8895
v -5.6034 10.9383 5.3474
v -11.5298 12.7888 5.5013
v -9.7547 13.1103 5.8417
v -7.2547 12.8265 5.6736
v -5.8062 12.4105 5.2771
v -13.6871 -7.9607 9.5790
v -12.7715 -7.9607 9.5790
v -19.2135 -5.7696 8.7885
v -17.6316 -5.7696 8.7885
v -14.2758 -6.6280 8.7628
v -12.0171 -6.7849 8.6965
v -10.7905 -6.0642 9.4807
v -19.6843 -4.0617 8.7885
v -17.1157 -4.0617 8.7885
v -14.5415 -3.8775 8.5846
v -12.1595 -3.8775 7.9669
v -10.3486 -4.0617 9.2664
v -6.6718 -3.4617 9.6554
v -5.3830 -3.4617 9.6554
v -19.4269 -1.5617 8.7885
v -16.7387 -2.3129 8.7885
v -14.7181 -1.6458 8.4594
v -12.4154 -1.5780 7.8606
v -9.4456 -1.7003 8.5705
v -7.4049 -1.7116 9.1975
v -5.4230 -1.5617 9.5855
v -19.6404 0.9383 8.7885
v -13.6395 0.1787 7.6368
v -13.3559 0.1787 7.6368
v -8.5471 -0.2596 7.5743
v -7.2547 0.0302 8.0247
v -5.6065 0.9306 8.9060
v -19.1890 2.7320 8.7885
v -17.2547 3.2054 8.7885
v -14.5383 3.9459 8.6157
v -13.0626 4.4865 9.3338
v -4.3725 3.2115 8.7885
v -3.3395 4.4615 8.7885
v -13.5607 4.7354 7.6671
v -12.4003 5.7166 8.6157
v -2.3419 5.9994 8.6628
v -0.5684 6.8734 7.7457
v -11.2057 7.3046 8.7885
v -9.7547 7.3994 8.7885
v -7.2547 7.8578 8.7885
v -4.7547 7.8973 8.7885
v -2.4741 7.5428 8.6628
v -0.5684 7.5999 7.7457
v -13.6871 -7.9607 10.3532
v -12.7715 -7.9607 10.3532
v -18.9030 -5.6594 11.2885
v -17.0377 -5.6440 11.1341
v -14.6780 -6.0646 11.3004
v -12.0648 -6.7632 11.1857
v -10.7905 -6.0642 10.8320
v -6.0703 -5.3554 12.2838
v -5.8391 -5.3554 12.2838
v -19.7050 -4.0617 11.2885
v -16.1633 -4.0617 10.4339
v -14.8678 -4.5895 11.3232
v -12.0503 -4.3007 12.4317
v -10.3486 -4.0617 11.1772
v -6.8087 -4.2017 11.3857
v -4.7777 -4.1062 11.4042
v -3.4193 -3.0841 12.1913
v -19.2092 -1.5178 11.1155
v -17.1058 -1.6094 11.1200
v -15.7966 -2.5635 10.4064
v -11.0807 -2.7017 12.4299
v -9.6083 -2.4055 11.4733
v -8.2105 -2.3865 11.2885
v -4.2520 -1.6946 11.3302
v -3.4193 -2.6166 12.1913
v -18.8679 0.9383 10.5292
v -17.7637 0.9383 11.7792
v -5.4433 0.9383 11.2885
v -18.8842 2.5114 10.5644
v -17.1845 2.6806 11.3541
v -14.7914 3.8656 11.2160
v -13.0626 4.4865 10.3342
v -8.8373 4.1286 12.2008
v -7.2547 3.7695 11.8141
v -5.1135 3.4928 11.0032
v -3.4412 4.6293 10.0961
v -14.2106 5.9383 11.6693
v -12.6556 5.9383 10.4193
v -9.1068 5.9383 11.7284
v -7.2547 5.9383 11.1019
v -4.7547 5.9383 10.7424
v -3.4189 5.9383 10.1190
v -13.9680 7.7780 11.9171
v -12.0906 7.8712 11.1657
v -9.7868 7.5605 11.0931
v -7.2547 7.6327 10.5763
v -4.7547 7.6138 10.5454
v -3.4537 7.2351 10.0882
v -19.2964 -8.5481 14.5340
v -18.0107 -8.5481 14.5340
v -11.5433 -8.0970 14.6853
v -10.2493 -8.0970 14.6853
v -19.2328 -6.4164 13.7358
v -17.2083 -6.5808 13.7358
v -14.5668 -5.7790 13.5635
v -12.3279 -6.6146 13.8911
v -10.2356 -6.5617 14.1980
v -6.0703 -5.3554 12.6391
v -5.8391 -5.3554 12.6391
v -19.6566 -4.0617 13.7885
v -13.6083 -5.2934 12.5802
v -12.0503 -4.3007 12.6901
v -9.8426 -4.1445 13.8052
v -7.1745 -4.0922 13.5389
v -4.8499 -3.9510 13.5655
v -3.4193 -3.0841 12.8253
v -19.5851 -1.5178 13.8011
v -18.0504 -0.6552 12.9762
v -11.0807 -2.7017 12.6836
v -9.7547 -2.4290 12.8224
v -8.2786 -2.4114 12.7720
v -4.2777 -1.6946 13.7106
v -3.4193 -2.6166 12.8253
v -19.0769 0.9383 14.5049
v -17.7637 0.9383 13.2549
v -13.6416 2.0815 14.9394
v -12.2547 2.0407 14.8702
v -9.7547 1.7856 14.5672
v -7.2547 1.5026 14.2255
v -5.5010 0.9079 13.6899
v -18.5811 2.3066 14.7227
v -17.1845 2.8397 13.8490
v -14.6455 3.5053 14.0337
v -12.2547 3.4383 14.5401
v -9.7042 3.3525 13.5437
v -7.2547 2.5195 12.9755
v -5.8995 2.3563 12.7909
v -14.2102 5.9096 13.8922
v -12.2984 5.9096 14.5622
v -10.3568 5.9383 13.3761
v -14.0281 7.8616 13.7885
v -12.2984 8.0214 13.8263
v -10.6416 7.6790 13.0182
v -19.2324 -10.6398 16.8413
v -18.1404 -10.6398 16.8413
v -21.4435 -8.5647 16.7504
v -20.0977 -9.3897 15.9625
v -17.7933 -9.2535 16.1202
v -11.7608 -8.1654 16.2885
v -9.5514 -8.1384 16.2056
v -8.4470 -7.8845 16.9837
v -21.5688 -6.5617 16.7532
v -20.5814 -6.5617 15.5032
v -16.6386 -6.9942 16.2885
v -14.7547 -6.6162 16.2885
v -13.0108 -7.4337 16.2885
v -9.0458 -6.6903 16.2056
v -8.4470 -7.6094 16.9837
v -21.5418 -4.0617 16.8776
v -20.4837 -4.0617 15.6276
v -9.1181 -4.1445 16.4853
v -7.2547 -3.4824 15.8171
v -5.5273 -3.1513 15.3321
v -21.6378 -1.5617 16.5411
v -20.7656 -1.5617 15.2911
v -11.3822 -0.5414 17.4510
v -9.6238 -1.4495 17.1793
v -7.2547 -1.5617 16.2701
v -5.4551 -1.5617 15.4034
v -21.4459 0.0072 16.8310
v -19.7195 0.7639 15.9864
v -17.2547 1.2872 16.9139
v -14.5869 1.5021 16.4769
v -12.2312 0.7683 16.4860
v -9.7547 0.5356 15.9061
v -7.2547 0.2526 15.4915
v -5.7493 0.0542 15.2315
v -18.5811 2.3066 15.1417
v -17.2547 2.8600 15.6639
v -15.3083 2.9655 15.7692
v -13.7392 6.7237 15.1867
v -13.1609 6.7237 15.1867
v -13.7392 7.4964 15.1867
v -13.1609 7.4964 15.1867
v -19.2324 -10.6398 17.9822
v -18.1404 -10.6398 17.9822
v -26.0246 -7.8283 20.0249
v -25.9777 -7.8283 20.0249
v -21.3663 -8.4577 18.7885
v -19.9413 -9.3502 18.8048
v -18.0783 -8.8334 18.8048
v -11.4742 -7.9980 17.7110
v -9.7547 -8.0061 17.7157
v -8.4470 -7.8845 17.6023
v -26.5666 -6.5617 19.6197
v -24.9885 -6.5750 19.4367
v -22.4820 -6.5750 18.7717
v -16.9949 -7.0595 18.7885
v -14.6803 -6.1045 18.9142
v -12.2864 -6.7063 18.2675
v -9.6610 -6.6903 17.9301
v -8.4470 -7.6094 17.6023
v -26.5535 -4.0617 19.6269
v -24.7547 -4.0617 19.1327
v -22.7918 -4.0617 18.2943
v -14.0497 -4.0617 19.4966
v -12.2547 -4.0617 18.6882
v -10.0990 -4.0617 17.9801
v -26.0072 -2.8098 20.0346
v -24.7547 -2.6644 19.8749
v -22.2601 -1.4747 19.0857
v -20.9769 -0.3321 20.0138
v -13.9387 -2.4343 19.5232
v -12.2327 -1.4878 18.6170
v -10.3699 -2.2081 17.7109
v -21.4459 0.0072 18.3472
v -19.9880 0.1999 19.0237
v -17.2211 1.1883 18.6212
v -14.7547 1.4107 17.7700
v -12.5044 0.8865 18.6410
v -16.3653 2.6903 19.3430
v -14.7547 2.9712 19.0200
v -12.7149 2.7302 19.3760
v -31.3655 -10.8613 22.0706
v -29.7547 -11.0939 21.7526
v -27.7115 -10.8049 21.9585
v -24.2873 -11.0104 22.1432
v -22.2547 -11.3056 21.7195
v -19.7547 -10.8928 21.8530
v -18.4080 -10.4600 22.3213
v -31.3655 -9.7985 22.0706
v -29.5355 -9.0038 21.8885
v -27.0151 -8.5331 21.2570
v -25.1933 -8.5331 21.1853
v -22.0307 -8.8767 20.6508
v -19.4034 -8.8205 21.0985
v -18.4469 -8.9345 21.2068
v -28.5561 -7.7730 22.5030
v -27.2579 -7.1045 21.6346
v -25.0834 -7.5242 21.1574
v -22.7147 -7.4172 20.4845
v -18.9351 -7.6074 21.7590
v -17.4933 -6.9717 21.0708
v -14.6803 -5.6056 21.4953
v -13.4892 -5.3306 22.4665
v -26.6209 -4.0114 21.0455
v -25.8265 -3.1446 21.7169
v -16.2575 -2.9539 22.4461
v -14.7014 -4.1064 21.6230
v -13.4892 -5.2589 22.4665
v -26.0072 -2.8098 20.0502
v -24.7446 -1.8802 21.1659
v -22.2547 -0.8062 20.4812
v -19.7803 -0.5143 21.2220
v -17.1564 -1.5426 22.2426
v -14.7651 -1.5852 21.1167
v -13.0831 -0.7676 20.5152
v -23.6626 -0.1229 22.2817
v -22.2547 0.3275 21.7312
v -19.7803 0.2041 21.2220
v -17.2211 0.9092 21.0137
v -14.7547 0.9383 21.6151
v -12.5962 0.9383 20.9110
v -16.3653 2.6903 20.3980
v -14.7547 2.9712 20.8231
v -12.7149 2.7302 20.7252
v -31.3655 -10.8613 23.3390
v -29.9792 -11.1243 24.0188
v -27.3895 -10.9152 23.7885
v -24.1633 -10.8521 23.7885
v -22.4041 -11.1199 24.0092
v -19.7547 -10.8928 23.2571
v -18.4080 -10.4600 22.7121
v -31.3655 -9.7985 23.3390
v -30.4361 -9.0038 24.0188
v -26.4911 -9.0977 23.7304
v -25.4422 -9.0977 23.7304
v -21.6703 -10.2264 24.9897
v -19.8145 -9.2904 23.8509
v -18.4080 -10.0210 22.7121
v -29.0758 -7.2078 23.7885
v -27.4051 -6.6750 23.3899
v -25.8557 -7.6312 22.8584
v -19.2194 -7.2342 23.7885
v -17.2547 -6.6440 23.7885
v -14.7547 -6.0846 23.7885
v -13.4451 -5.4248 23.7885
v -29.1395 -3.5884 24.6236
v -27.3231 -4.1998 23.6894
v -25.8265 -3.1446 22.7552
v -18.8267 -3.0222 24.6267
v -17.1564 -3.0272 23.7914
v -14.7547 -3.9737 23.7885
v -13.4451 -5.1122 23.7885
v -29.1395 -2.3026 24.6236
v -27.0539 -1.5062 24.3966
v -24.8911 -1.1753 23.8059
v -22.2547 -0.9113 24.5085
v -19.5385 -1.5630 23.9231
v -17.9242 -2.3632 22.9600
v -26.0867 -0.2815 25.0003
v -24.7946 -0.2022 23.9088
v -22.2547 0.3275 23.2585
v -20.2504 0.3518 23.2196
v -29.5644 -10.9924 26.2885
v -27.0885 -10.9244 26.2636
v -24.6680 -10.3794 26.0795
v -23.3370 -10.3336 25.0786
v -30.3814 -9.0617 26.2885
v -26.1443 -9.9551 25.4137
v -24.6680 -10.0036 26.0795
v -22.3503 -9.3060 26.1055
v -20.6939 -8.5598 25.4658
v -29.5517 -6.3517 26.0648
v -28.3463 -5.3784 25.0823
v -21.3635 -7.4456 27.1324
v -19.8402 -6.5125 26.2203
v -17.0453 -5.9363 26.2003
v -14.9161 -5.8549 26.1612
v -13.4408 -5.4435 25.2430
v -29.5056 -4.2777 26.0648
v -28.3463 -5.2551 25.0823
v -23.5849 -2.8394 27.5005
v -23.3752 -2.8394 27.5005
v -19.4100 -3.9380 26.2003
v -17.0453 -4.4043 26.2003
v -14.9161 -4.6500 26.1612
v -13.4408 -5.0985 25.2430
v -29.2640 -2.1998 26.2885
v -27.0539 -0.9604 26.1897
v -24.7557 -1.4344 26.3955
v -22.4270 -2.2282 26.5157
v -20.5250 -2.4460 26.2885
v -26.0867 -0.2815 25.2906
v -25.9266 -0.2815 25.2906
v -31.7429 -10.9957 29.4006
v -29.8780 -11.3309 28.6558
v -27.2547 -11.4340 28.7885
v -24.8433 -10.6215 28.9642
v -23.4786 -10.3462 29.9147
v -31.8195 -9.0617 29.4032
v -30.5058 -9.0617 28.1532
v -24.0691 -10.0521 28.2480
v -23.0648 -9.1560 28.9642
v -31.3529 -7.6315 29.8294
v -29.8555 -6.5946 29.0302
v -28.0589 -5.5578 29.8977
v -21.7243 -7.0520 28.7885
v -20.5891 -5.8020 28.7885
v -16.0724 -5.4055 27.5763
v -15.8571 -5.4055 27.5763
v -29.2797 -4.0617 28.2178
v -27.2372 -4.1745 29.2849
v -24.5528 -3.4826 28.7415
v -22.8595 -3.1968 28.7885
v -20.4671 -4.0617 28.7885
v -16.0724 -5.2491 27.5763
v -15.8571 -5.2491 27.5763
v -28.8823 -2.5050 27.7517
v -27.2547 -2.1294 27.9520
v -25.2516 -2.2087 27.8768
v -21.6095 -2.7127 28.7885
v -20.8827 -2.7127 28.7885
v -34.2736 -15.8005 32.0823
v -33.0320 -15.8005 32.0823
v -36.2688 -13.5327 32.2875
v -34.9660 -14.2443 32.0081
v -32.8214 -14.0617 32.0637
v -36.2688 -12.5027 32.2875
v -34.7547 -12.3260 32.2176
v -32.3590 -11.7285 31.7485
v -29.7547 -11.8319 31.2885
v -27.0707 -11.0621 31.4850
v -24.7547 -10.6138 30.6549
v -23.4786 -10.3462 30.1162
v -32.4768 -9.0617 31.2885
v -26.1147 -10.1176 32.4493
v -24.7516 -9.1952 31.8417
v -23.3107 -9.0617 30.4844
v -31.6529 -7.4383 31.2885
v -29.7547 -6.7338 31.2885
v -27.2372 -6.1041 31.1496
v -24.7516 -6.6677 31.5491
v -22.3651 -6.4235 30.5502
v -20.8020 -5.4981 30.2255
v -26.3923 -5.0830 30.2236
v -24.7547 -4.8795 30.2892
v -22.0662 -4.1031 30.2591
v -20.8269 -4.0617 30.2024
v -21.1073 -2.7851 30.0701
v -20.9703 -2.7851 30.0701
v -28.7616 -20.3942 34.9663
v -28.4137 -20.3942 34.9663
v -28.7616 -19.8396 34.9663
v -28.4137 -19.8396 34.9663
v -34.4489 -15.8412 33.7885
v -32.2211 -15.8166 33.9767
v -30.8817 -15.4472 34.9354
v -36.2834 -13.6072 33.7885
v -35.6989 -14.8572 33.7885
v -31.5714 -14.0617 33.2389
v -30.5706 -14.0617 34.4889
v -36.2834 -12.4846 33.7885
v -34.5757 -11.3469 33.8856
v -32.2156 -11.6226 32.9295
v -29.7312 -11.9577 33.6607
v -27.9070 -10.7738 33.7885
v -33.6230 -9.8135 34.7836
v -32.9139 -9.0128 33.8856
v -26.8485 -9.1952 33.6834
v -25.5829 -8.4510 32.7799
v -31.8711 -7.3001 33.7885
v -29.7547 -6.4639 33.7885
v -27.3266 -6.9987 33.6834
v -25.5829 -7.5717 32.7799
v -29.1081 -20.5033 36.2885
v -28.1993 -20.5033 36.2885
v -31.4257 -18.5107 37.0164
v -29.7403 -19.1752 36.0779
v -27.8802 -19.0284 36.0990
v -33.9946 -15.5288 35.3811
v -32.2229 -16.3214 36.1987
v -29.8699 -16.3224 36.0779
v -27.8710 -17.1977 36.8060
v -36.1122 -13.1513 35.1561
v -34.7986 -14.0155 35.7239
v -33.0378 -14.0617 37.0571
v -29.6860 -14.0617 36.2885
v -36.1122 -12.6845 35.1561
v -34.5757 -11.7354 35.6601
v -32.9718 -11.5617 36.9773
v -29.1525 -11.4030 36.1609
v -28.4311 -10.4639 35.2425
v -33.6230 -9.8135 35.2747
v -32.8897 -9.0128 36.1802
v -29.0731 -9.9954 36.9092
v -27.9950 -9.1219 36.1609
v -31.9154 -7.0132 36.2885
v -29.7879 -5.7151 36.0923
v -27.8838 -6.3539 36.0923
v -28.9767 -5.1646 36.7947
v -28.2458 -5.1646 36.7947
v -29.0523 -20.4846 37.9809
v -28.1884 -20.4846 37.9809
v -31.6836 -18.7038 38.7885
v -29.8333 -19.5771 38.8040
v -27.9094 -18.8634 38.8040
v -32.4037 -16.5617 38.7885
v -28.8581 -15.5310 37.9673
v -28.0237 -16.4433 38.7958
v -32.7112 -14.0617 38.7885
v -28.8701 -14.0617 38.1168
v -28.2930 -14.0617 39.3668
v -31.9502 -11.3671 38.8321
v -29.6891 -11.2889 38.7876
v -28.3482 -12.1737 39.5474
v -31.6317 -9.0617 38.5067
v -29.8457 -9.1219 38.5745
v -28.0255 -8.3288 37.9742
v -31.5799 -7.1115 38.3401
v -29.7879 -6.3915 38.3889
v -27.9511 -6.5617 38.0003
v -28.9767 -5.1646 37.7185
v -28.2458 -5.1646 37.7185
v -31.4889 -18.3021 40.4719
v -29.7547 -18.2441 40.3799
v -28.4624 -17.8979 40.0604
v -31.8264 -16.5617 40.7909
v -29.7547 -16.5617 40.9405
v -28.3787 -16.5617 40.1881
v -32.1533 -14.1425 41.3804
v -29.6348 -14.1425 41.7596
v -28.2930 -14.0617 40.5125
v -31.9818 -11.9076 41.2885
v -29.6348 -11.7056 41.3111
v -28.3482 -12.1737 40.4928
v -31.6878 -13.3631 42.8851
v -30.3883 -13.3631 42.8851
v -31.6878 -12.3471 42.8851
v -30.3883 -12.3471 42.8851
f 3 2 1
f 3 4 2
f 7 6 5
f 7 8 6
f 9 8 7
f 9 10 8
f 17 11 16
f 17 12 11
f 18 12 17
f 18 13 12
f 19 13 18
f 19 14 13
f 20 14 19
f 20 15 14
f 23 16 22
f 23 17 16
f 24 17 23
f 24 18 17
f 25 18 24
f 25 19 18
f 26 19 25
f 26 20 19
f 27 22 21
f 27 28 22
f 28 23 22
f 28 29 23
f 31 29 28
f 31 32 29
f 33 1 2
f 33 32 1
f 32 30 29
f 32 33 30
f 37 1 32
f 37 3 1
f 36 32 31
f 36 37 32
f 38 33 2
f 38 2 4
f 38 4 3
f 38 3 37
f 39 35 34
f 39 40 35
f 6 43 5
f 6 44 43
f 44 41 43
f 44 42 41
f 45 5 43
f 45 7 5
f 46 44 6
f 46 6 8
f 47 7 45
f 47 9 7
f 48 46 8
f 48 8 10
f 10 9 47
f 10 47 48
f 47 45 46
f 47 46 48
f 12 49 11
f 12 50 49
f 13 50 12
f 13 51 50
f 14 51 13
f 14 52 51
f 15 52 14
f 15 53 52
f 49 16 11
f 49 56 16
f 57 56 49
f 57 49 50
f 57 50 51
f 57 51 58
f 58 51 52
f 58 52 59
f 60 53 15
f 60 15 20
f 61 55 54
f 61 62 55
f 63 16 56
f 63 22 16
f 63 21 22
f 63 62 21
f 63 55 62
f 63 56 55
f 24 23 64
f 24 64 65
f 64 57 58
f 64 58 65
f 25 24 65
f 25 65 66
f 66 65 58
f 66 58 59
f 67 60 20
f 67 20 26
f 26 25 66
f 26 66 67
f 67 66 59
f 67 59 60
f 62 27 21
f 62 69 27
f 68 62 61
f 68 69 62
f 70 28 27
f 70 27 69
f 71 64 23
f 71 23 29
f 30 71 29
f 30 72 71
f 70 31 28
f 70 74 31
f 73 70 69
f 73 74 70
f 75 72 30
f 75 30 33
f 78 34 35
f 78 77 34
f 74 36 31
f 74 79 36
f 78 74 73
f 78 79 74
f 80 37 36
f 80 36 79
f 81 75 33
f 81 33 38
f 81 38 37
f 81 37 80
f 77 39 34
f 77 83 39
f 82 77 76
f 82 83 77
f 84 78 35
f 84 35 40
f 84 40 39
f 84 39 83
f 85 78 84
f 85 79 78
f 87 83 86
f 87 84 83
f 42 88 41
f 42 89 88
f 91 41 88
f 91 43 41
f 92 89 42
f 92 42 44
f 92 90 89
f 92 93 90
f 94 43 91
f 94 45 43
f 95 92 44
f 95 44 46
f 46 45 94
f 46 94 95
f 96 92 95
f 96 93 92
f 53 97 52
f 53 98 97
f 100 54 55
f 100 99 54
f 101 55 56
f 101 100 55
f 102 56 57
f 102 101 56
f 97 59 52
f 97 103 59
f 104 98 53
f 104 53 60
f 104 60 59
f 104 59 103
f 103 97 98
f 103 98 104
f 105 54 99
f 105 61 54
f 105 99 100
f 105 100 106
f 107 106 100
f 107 100 101
f 102 57 64
f 102 64 108
f 108 107 101
f 108 101 102
f 109 61 105
f 109 68 61
f 110 69 68
f 110 68 109
f 109 105 106
f 109 106 110
f 108 64 71
f 108 71 112
f 113 71 72
f 113 112 71
f 110 73 69
f 110 115 73
f 117 116 111
f 117 111 112
f 113 72 75
f 113 75 118
f 117 112 113
f 117 113 118
f 77 119 76
f 77 120 119
f 121 73 115
f 121 78 73
f 121 77 78
f 121 120 77
f 121 114 120
f 121 115 114
f 80 79 122
f 80 122 123
f 123 122 116
f 123 116 117
f 124 118 75
f 124 75 81
f 124 81 80
f 124 80 123
f 123 117 118
f 123 118 124
f 119 82 76
f 119 126 82
f 127 83 82
f 127 82 126
f 127 126 119
f 127 119 120
f 122 79 85
f 122 85 129
f 85 84 128
f 85 128 129
f 132 125 131
f 132 126 125
f 127 86 83
f 127 133 86
f 128 84 87
f 128 87 134
f 134 87 86
f 134 86 133
f 135 128 134
f 135 129 128
f 135 130 129
f 135 136 130
f 137 132 131
f 137 138 132
f 139 132 138
f 139 133 132
f 139 134 133
f 139 140 134
f 140 135 134
f 140 141 135
f 144 137 143
f 144 138 137
f 145 141 140
f 145 146 141
f 146 142 141
f 146 147 142
f 89 148 88
f 89 149 148
f 90 149 89
f 90 150 149
f 149 146 145
f 149 150 146
f 151 146 150
f 151 147 146
f 152 88 148
f 152 91 88
f 153 150 90
f 153 90 93
f 154 150 153
f 154 151 150
f 157 91 152
f 157 94 91
f 158 95 94
f 158 94 157
f 159 153 93
f 159 93 96
f 96 95 158
f 96 158 159
f 160 156 155
f 160 161 156
f 166 160 165
f 166 161 160
f 168 162 167
f 168 163 162
f 168 164 163
f 168 169 164
f 172 165 171
f 172 166 165
f 173 168 167
f 173 174 168
f 175 168 174
f 175 169 168
f 175 170 169
f 175 176 170
f 177 175 174
f 177 178 175
f 179 175 178
f 179 176 175
f 107 180 106
f 107 181 180
f 182 107 108
f 182 181 107
f 180 110 106
f 180 183 110
f 184 183 180
f 184 180 181
f 185 182 108
f 185 108 112
f 185 112 111
f 185 111 184
f 185 184 181
f 185 181 182
f 187 110 183
f 187 115 110
f 115 186 114
f 115 187 186
f 188 184 111
f 188 111 116
f 189 114 186
f 189 120 114
f 190 189 186
f 190 186 187
f 191 188 116
f 191 116 122
f 193 125 126
f 193 192 125
f 189 127 120
f 189 194 127
f 195 194 189
f 195 189 190
f 196 191 122
f 196 122 129
f 196 195 190
f 196 190 191
f 130 196 129
f 130 197 196
f 198 125 192
f 198 131 125
f 193 126 132
f 193 132 199
f 200 127 194
f 200 133 127
f 133 199 132
f 133 200 199
f 201 200 194
f 201 194 195
f 197 130 136
f 197 136 203
f 136 135 202
f 136 202 203
f 204 131 198
f 204 137 131
f 206 139 138
f 206 138 205
f 207 140 139
f 207 139 206
f 202 135 141
f 202 141 208
f 142 208 141
f 142 209 208
f 208 203 202
f 208 209 203
f 210 137 204
f 210 143 137
f 205 138 144
f 205 144 211
f 144 143 210
f 144 210 211
f 210 204 205
f 210 205 211
f 207 145 140
f 207 213 145
f 212 207 206
f 212 213 207
f 214 209 142
f 214 142 147
f 218 145 213
f 218 149 145
f 218 148 149
f 218 217 148
f 214 147 151
f 214 151 219
f 220 214 219
f 220 215 214
f 221 215 220
f 221 216 215
f 223 148 217
f 223 152 148
f 219 151 154
f 219 154 225
f 154 153 224
f 154 224 225
f 156 226 155
f 156 227 226
f 223 157 152
f 223 228 157
f 228 222 227
f 228 223 222
f 229 158 157
f 229 157 228
f 224 153 159
f 224 159 230
f 159 158 229
f 159 229 230
f 231 224 230
f 231 225 224
f 232 155 226
f 232 160 155
f 233 227 156
f 233 156 161
f 235 162 163
f 235 234 162
f 234 229 228
f 234 235 229
f 164 235 163
f 164 236 235
f 235 230 229
f 235 236 230
f 237 230 236
f 237 231 230
f 232 165 160
f 232 240 165
f 241 233 161
f 241 161 166
f 242 162 234
f 242 167 162
f 242 233 241
f 242 234 233
f 243 236 164
f 243 164 169
f 170 243 169
f 170 244 243
f 246 238 245
f 246 239 238
f 240 171 165
f 240 247 171
f 247 239 246
f 247 240 239
f 241 166 172
f 241 172 248
f 248 172 171
f 248 171 247
f 242 173 167
f 242 249 173
f 248 242 241
f 248 249 242
f 250 174 173
f 250 173 249
f 244 170 176
f 244 176 252
f 253 246 245
f 253 254 246
f 255 246 254
f 255 247 246
f 250 177 174
f 250 256 177
f 178 177 256
f 178 256 257
f 258 252 176
f 258 176 179
f 258 179 178
f 258 178 257
f 258 257 251
f 258 251 252
f 260 183 184
f 260 259 183
f 259 187 183
f 259 261 187
f 260 184 188
f 260 188 262
f 262 261 259
f 262 259 260
f 263 187 261
f 263 190 187
f 264 262 188
f 264 188 191
f 264 191 190
f 264 190 263
f 263 261 262
f 263 262 264
f 266 192 193
f 266 265 192
f 268 195 196
f 268 267 195
f 197 268 196
f 197 269 268
f 265 198 192
f 265 270 198
f 266 193 199
f 266 199 271
f 270 265 266
f 270 266 271
f 272 199 200
f 272 271 199
f 267 201 195
f 267 273 201
f 201 272 200
f 201 273 272
f 274 273 267
f 274 267 268
f 269 197 203
f 269 203 275
f 274 268 269
f 274 269 275
f 278 198 270
f 278 204 198
f 279 205 204
f 279 204 278
f 278 270 271
f 278 271 279
f 206 205 279
f 206 279 280
f 279 271 272
f 279 272 280
f 281 280 272
f 281 272 273
f 281 273 274
f 281 274 282
f 283 275 203
f 283 203 209
f 283 276 275
f 283 284 276
f 285 276 284
f 285 277 276
f 286 206 280
f 286 212 206
f 213 212 286
f 213 286 287
f 286 280 281
f 286 281 287
f 288 287 281
f 288 281 282
f 289 283 209
f 289 209 214
f 215 289 214
f 215 290 289
f 289 284 283
f 289 290 284
f 216 290 215
f 216 291 290
f 290 285 284
f 290 291 285
f 287 218 213
f 287 293 218
f 218 292 217
f 218 293 292
f 294 293 287
f 294 287 288
f 220 219 295
f 220 295 296
f 297 291 216
f 297 216 221
f 221 220 296
f 221 296 297
f 300 217 292
f 300 223 217
f 223 299 222
f 223 300 299
f 301 300 292
f 301 292 293
f 302 301 293
f 302 293 294
f 295 219 225
f 295 225 303
f 302 294 295
f 302 295 303
f 307 222 299
f 307 227 222
f 307 226 227
f 307 306 226
f 307 298 306
f 307 299 298
f 308 228 227
f 308 227 307
f 309 301 302
f 309 302 310
f 303 225 231
f 303 231 311
f 311 304 303
f 311 312 304
f 306 232 226
f 306 315 232
f 315 305 314
f 315 306 305
f 316 307 227
f 316 227 233
f 308 234 228
f 308 317 234
f 234 316 233
f 234 317 316
f 316 308 307
f 316 317 308
f 311 231 237
f 311 237 320
f 237 236 319
f 237 319 320
f 321 311 320
f 321 312 311
f 321 313 312
f 321 322 313
f 239 323 238
f 239 324 323
f 325 232 315
f 325 240 232
f 325 239 240
f 325 324 239
f 326 317 318
f 326 318 327
f 319 236 243
f 319 243 328
f 329 243 244
f 329 328 243
f 323 245 238
f 323 330 245
f 331 330 323
f 331 323 324
f 248 247 332
f 248 332 333
f 249 248 333
f 249 333 334
f 335 250 249
f 335 249 334
f 334 326 327
f 334 327 335
f 335 327 328
f 335 328 336
f 337 329 244
f 337 244 252
f 337 252 251
f 337 251 336
f 336 328 329
f 336 329 337
f 338 245 330
f 338 253 245
f 339 254 253
f 339 253 338
f 332 247 255
f 332 255 340
f 255 254 339
f 255 339 340
f 341 250 335
f 341 256 250
f 342 336 251
f 342 251 257
f 342 257 256
f 342 256 341
f 341 335 336
f 341 336 342
f 275 343 274
f 275 344 343
f 276 344 275
f 276 345 344
f 277 345 276
f 277 346 345
f 343 282 274
f 343 347 282
f 347 343 344
f 347 344 348
f 348 344 345
f 348 345 349
f 346 277 285
f 346 285 350
f 349 345 346
f 349 346 350
f 347 288 282
f 347 351 288
f 351 347 348
f 351 348 352
f 354 350 285
f 354 285 291
f 355 288 351
f 355 294 288
f 356 295 294
f 356 294 355
f 356 355 351
f 356 351 352
f 296 295 356
f 296 356 357
f 357 356 352
f 357 352 353
f 358 354 291
f 358 291 297
f 297 296 357
f 297 357 358
f 358 357 353
f 358 353 354
f 361 298 299
f 361 360 298
f 362 299 300
f 362 361 299
f 363 300 301
f 363 362 300
f 303 364 302
f 303 365 364
f 304 365 303
f 304 366 365
f 368 298 360
f 368 306 298
f 368 305 306
f 368 367 305
f 368 359 367
f 368 360 359
f 369 368 360
f 369 360 361
f 363 301 309
f 363 309 371
f 370 362 363
f 370 363 371
f 364 310 302
f 364 372 310
f 372 309 310
f 372 371 309
f 373 372 364
f 373 364 365
f 374 366 304
f 374 304 312
f 373 365 366
f 373 366 374
f 375 312 313
f 375 374 312
f 378 305 367
f 378 314 305
f 379 315 314
f 379 314 378
f 318 317 380
f 318 380 381
f 382 381 371
f 382 371 372
f 383 320 319
f 383 319 382
f 383 382 372
f 383 372 373
f 384 321 320
f 384 320 383
f 384 383 373
f 384 373 374
f 375 313 322
f 375 322 385
f 385 322 321
f 385 321 384
f 384 374 375
f 384 375 385
f 386 377 376
f 386 387 377
f 379 325 315
f 379 389 325
f 389 324 325
f 389 388 324
f 389 378 388
f 389 379 378
f 380 317 326
f 380 326 390
f 391 318 381
f 391 327 318
f 392 382 319
f 392 319 328
f 392 328 327
f 392 327 391
f 392 391 381
f 392 381 382
f 393 387 386
f 393 394 387
f 388 331 324
f 388 395 331
f 331 394 330
f 331 395 394
f 394 388 387
f 394 395 388
f 397 333 332
f 397 332 396
f 390 326 334
f 390 334 398
f 398 334 333
f 398 333 397
f 399 390 398
f 399 391 390
f 400 330 394
f 400 338 330
f 339 338 400
f 339 400 401
f 400 394 395
f 400 395 401
f 402 396 332
f 402 332 340
f 402 340 339
f 402 339 401
f 401 395 396
f 401 396 402
f 403 399 398
f 403 404 399
f 349 405 348
f 349 406 405
f 407 349 350
f 407 406 349
f 405 352 348
f 405 408 352
f 353 352 408
f 353 408 409
f 409 408 405
f 409 405 406
f 410 407 350
f 410 350 354
f 410 354 353
f 410 353 409
f 410 409 406
f 410 406 407
f 414 359 360
f 414 413 359
f 362 415 361
f 362 416 415
f 418 412 411
f 418 419 412
f 420 359 413
f 420 367 359
f 420 412 419
f 420 413 412
f 414 360 368
f 414 368 421
f 415 369 361
f 415 422 369
f 369 421 368
f 369 422 421
f 416 362 370
f 416 370 423
f 423 422 415
f 423 415 416
f 424 370 371
f 424 423 370
f 423 417 416
f 423 424 417
f 427 376 377
f 427 426 376
f 428 367 420
f 428 378 367
f 427 420 419
f 427 428 420
f 430 424 371
f 430 371 381
f 381 380 429
f 381 429 430
f 432 376 426
f 432 386 376
f 431 426 425
f 431 432 426
f 433 427 377
f 433 377 387
f 434 378 428
f 434 388 378
f 434 387 388
f 434 433 387
f 433 428 427
f 433 434 428
f 435 429 380
f 435 380 390
f 436 390 391
f 436 435 390
f 437 386 432
f 437 393 386
f 438 394 393
f 438 393 437
f 439 395 394
f 439 394 438
f 396 395 439
f 396 439 440
f 441 397 396
f 441 396 440
f 398 397 441
f 398 441 442
f 436 391 399
f 436 399 443
f 442 435 436
f 442 436 443
f 445 439 438
f 445 446 439
f 447 439 446
f 447 440 439
f 448 440 447
f 448 441 440
f 442 403 398
f 442 449 403
f 449 441 448
f 449 442 441
f 443 399 404
f 443 404 450
f 450 404 403
f 450 403 449
f 450 444 443
f 450 451 444
f 452 450 449
f 452 453 450
f 453 451 450
f 453 454 451
f 456 411 412
f 456 455 411
f 457 412 413
f 457 456 412
f 458 413 414
f 458 457 413
f 417 459 416
f 417 460 459
f 455 418 411
f 455 462 418
f 463 419 418
f 463 418 462
f 458 414 421
f 458 421 465
f 464 457 458
f 464 458 465
f 466 421 422
f 466 465 421
f 467 416 459
f 467 423 416
f 467 422 423
f 467 466 422
f 468 460 417
f 468 417 424
f 470 425 426
f 470 469 425
f 470 461 469
f 470 462 461
f 471 419 463
f 471 427 419
f 471 426 427
f 471 470 426
f 470 463 462
f 470 471 463
f 473 472 464
f 473 464 465
f 468 424 430
f 468 430 475
f 430 429 474
f 430 474 475
f 469 431 425
f 469 476 431
f 477 432 431
f 477 431 476
f 474 429 435
f 474 435 480
f 481 474 480
f 481 475 474
f 477 437 432
f 477 483 437
f 482 477 476
f 482 483 477
f 484 438 437
f 484 437 483
f 485 478 479
f 485 479 486
f 487 480 435
f 487 435 442
f 487 486 479
f 487 479 480
f 443 487 442
f 443 488 487
f 444 488 443
f 444 489 488
f 490 483 482
f 490 491 483
f 484 445 438
f 484 492 445
f 491 484 483
f 491 492 484
f 493 446 445
f 493 445 492
f 494 447 446
f 494 446 493
f 495 448 447
f 495 447 494
f 496 449 448
f 496 448 495
f 495 486 487
f 495 487 496
f 496 487 488
f 496 488 497
f 498 489 444
f 498 444 451
f 497 488 489
f 497 489 498
f 500 491 499
f 500 492 491
f 496 452 449
f 496 501 452
f 502 453 452
f 502 452 501
f 501 496 497
f 501 497 502
f 498 451 454
f 498 454 503
f 503 454 453
f 503 453 502
f 503 502 497
f 503 497 498
f 456 506 455
f 456 507 506
f 508 456 457
f 508 507 456
f 510 459 460
f 510 509 459
f 511 505 504
f 511 512 505
f 506 462 455
f 506 514 462
f 514 461 462
f 514 513 461
f 515 514 506
f 515 506 507
f 508 457 464
f 508 464 516
f 515 507 508
f 515 508 516
f 466 517 465
f 466 518 517
f 509 467 459
f 509 519 467
f 467 518 466
f 467 519 518
f 510 460 468
f 510 468 520
f 520 519 509
f 520 509 510
f 524 461 513
f 524 469 461
f 523 513 512
f 523 524 513
f 525 516 464
f 525 464 472
f 517 473 465
f 517 526 473
f 473 525 472
f 473 526 525
f 527 526 517
f 527 517 518
f 528 527 518
f 528 518 519
f 520 468 475
f 520 475 529
f 529 528 519
f 529 519 520
f 532 521 531
f 532 522 521
f 533 522 532
f 533 523 522
f 524 476 469
f 524 534 476
f 534 523 533
f 534 524 523
f 536 479 478
f 536 478 535
f 535 526 527
f 535 527 536
f 537 480 479
f 537 479 536
f 537 536 527
f 537 527 528
f 529 475 481
f 529 481 538
f 481 480 537
f 481 537 538
f 538 537 528
f 538 528 529
f 540 530 539
f 540 531 530
f 540 532 531
f 540 541 532
f 542 532 541
f 542 533 532
f 534 482 476
f 534 543 482
f 546 535 478
f 546 478 485
f 547 485 486
f 547 546 485
f 548 482 543
f 548 490 482
f 549 491 490
f 549 490 548
f 551 493 492
f 551 492 550
f 551 550 544
f 551 544 545
f 552 494 493
f 552 493 551
f 552 551 545
f 552 545 546
f 553 547 486
f 553 486 495
f 553 495 494
f 553 494 552
f 552 546 547
f 552 547 553
f 549 499 491
f 549 554 499
f 550 492 500
f 550 500 555
f 500 499 554
f 500 554 555
f 555 554 549
f 555 549 550
f 559 557 556
f 559 560 557
f 505 560 504
f 505 561 560
f 560 558 557
f 560 561 558
f 560 511 504
f 560 566 511
f 565 560 559
f 565 566 560
f 567 561 505
f 567 505 512
f 567 512 511
f 567 511 566
f 568 512 513
f 568 567 512
f 568 561 567
f 568 562 561
f 514 568 513
f 514 569 568
f 568 563 562
f 568 569 563
f 515 569 514
f 515 570 569
f 569 564 563
f 569 570 564
f 516 570 515
f 516 571 570
f 522 573 521
f 522 574 573
f 575 512 567
f 575 523 512
f 575 522 523
f 575 574 522
f 575 566 574
f 575 567 566
f 571 516 525
f 571 525 577
f 576 570 571
f 576 571 577
f 578 525 526
f 578 577 525
f 577 572 571
f 577 578 572
f 573 531 521
f 573 580 531
f 531 579 530
f 531 580 579
f 581 580 573
f 581 573 574
f 583 534 533
f 583 533 582
f 586 578 526
f 586 526 535
f 579 539 530
f 579 587 539
f 540 539 587
f 540 587 588
f 588 587 579
f 588 579 580
f 541 540 588
f 541 588 589
f 582 533 542
f 582 542 590
f 542 541 589
f 542 589 590
f 583 543 534
f 583 591 543
f 590 583 582
f 590 591 583
f 594 545 544
f 594 544 593
f 594 593 584
f 594 584 585
f 595 586 535
f 595 535 546
f 595 546 545
f 595 545 594
f 596 589 588
f 596 597 589
f 598 543 591
f 598 548 543
f 599 549 548
f 599 548 598
f 598 591 592
f 598 592 599
f 600 593 544
f 600 544 550
f 600 550 549
f 600 549 599
f 600 599 592
f 600 592 593
f 557 601 556
f 557 602 601
f 558 602 557
f 558 603 602
f 606 556 601
f 606 559 556
f 607 606 601
f 607 601 602
f 608 603 558
f 608 558 561
f 562 608 561
f 562 609 608
f 563 609 562
f 563 610 609
f 564 610 563
f 564 611 610
f 611 604 610
f 611 605 604
f 606 565 559
f 606 614 565
f 615 566 565
f 615 565 614
f 615 614 606
f 615 606 607
f 617 616 608
f 617 608 609
f 618 611 564
f 618 564 570
f 572 619 571
f 572 620 619
f 623 612 622
f 623 613 612
f 624 613 623
f 624 614 613
f 625 566 615
f 625 574 566
f 625 614 624
f 625 615 614
f 618 570 576
f 618 576 626
f 619 577 571
f 619 627 577
f 627 576 577
f 627 626 576
f 628 620 572
f 628 572 578
f 628 627 619
f 628 619 620
f 630 621 629
f 630 622 621
f 630 623 622
f 630 631 623
f 631 624 623
f 631 632 624
f 625 581 574
f 625 633 581
f 581 632 580
f 581 633 632
f 632 625 624
f 632 633 625
f 585 584 635
f 585 635 636
f 636 635 626
f 636 626 627
f 637 628 578
f 637 578 586
f 637 636 627
f 637 627 628
f 638 580 632
f 638 588 580
f 638 632 633
f 638 633 639
f 590 589 639
f 590 639 640
f 639 633 634
f 639 634 640
f 591 590 640
f 591 640 641
f 592 591 641
f 592 641 642
f 643 635 584
f 643 584 593
f 643 593 592
f 643 592 642
f 644 585 636
f 644 594 585
f 644 635 643
f 644 636 635
f 637 586 595
f 637 595 645
f 645 595 594
f 645 594 644
f 645 644 636
f 645 636 637
f 638 596 588
f 638 646 596
f 647 639 589
f 647 589 597
f 597 596 646
f 597 646 647
f 647 646 638
f 647 638 639
f 648 642 641
f 648 649 642
f 653 651 650
f 653 654 651
f 603 654 602
f 603 655 654
f 654 652 651
f 654 655 652
f 605 656 604
f 605 657 656
f 661 602 654
f 661 607 602
f 661 653 660
f 661 654 653
f 662 655 603
f 662 603 608
f 664 604 656
f 664 610 604
f 664 609 610
f 664 663 609
f 657 605 611
f 657 611 665
f 665 664 656
f 665 656 657
f 667 612 613
f 667 666 612
f 667 658 666
f 667 659 658
f 668 613 614
f 668 667 613
f 669 607 661
f 669 615 607
f 669 614 615
f 669 668 614
f 669 660 668
f 669 661 660
f 662 608 616
f 662 616 670
f 663 617 609
f 663 671 617
f 617 670 616
f 617 671 670
f 671 662 670
f 671 663 662
f 672 665 611
f 672 611 618
f 674 612 666
f 674 622 612
f 622 673 621
f 622 674 673
f 675 674 666
f 675 666 667
f 678 672 618
f 678 618 626
f 679 621 673
f 679 629 621
f 680 630 629
f 680 629 679
f 681 631 630
f 681 630 680
f 682 632 631
f 682 631 681
f 633 632 682
f 633 682 683
f 634 633 683
f 634 683 684
f 686 685 676
f 686 676 677
f 687 678 626
f 687 626 635
f 687 686 677
f 687 677 678
f 688 635 636
f 688 687 635
f 689 634 684
f 689 640 634
f 641 640 689
f 641 689 690
f 689 684 685
f 689 685 690
f 692 643 642
f 692 642 691
f 691 686 687
f 691 687 692
f 688 636 644
f 688 644 693
f 693 644 643
f 693 643 692
f 692 687 688
f 692 688 693
f 694 641 690
f 694 648 641
f 695 691 642
f 695 642 649
f 649 648 694
f 649 694 695
f 694 690 691
f 694 691 695
f 697 650 651
f 697 696 650
f 652 697 651
f 652 698 697
f 699 650 696
f 699 653 650
f 700 698 652
f 700 652 655
f 659 701 658
f 659 702 701
f 699 660 653
f 699 703 660
f 704 700 655
f 704 655 662
f 705 662 663
f 705 704 662
f 706 663 664
f 706 705 663
f 707 664 665
f 707 706 664
f 708 658 701
f 708 666 658
f 709 702 659
f 709 659 667
f 709 667 666
f 709 666 708
f 710 660 703
f 710 668 660
f 710 667 668
f 710 709 667
f 710 702 709
f 710 703 702
f 707 665 672
f 707 672 712
f 711 706 707
f 711 707 712
f 714 673 674
f 714 713 673
f 709 675 667
f 709 715 675
f 675 714 674
f 675 715 714
f 715 708 714
f 715 709 708
f 718 677 676
f 718 676 717
f 719 712 672
f 719 672 678
f 719 678 677
f 719 677 718
f 719 718 711
f 719 711 712
f 713 679 673
f 713 720 679
f 680 679 720
f 680 720 721
f 681 680 721
f 681 721 722
f 723 682 681
f 723 681 722
f 683 682 723
f 683 723 724
f 725 684 683
f 725 683 724
f 726 717 676
f 726 676 685
f 726 685 684
f 726 684 725
f 725 716 717
f 725 717 726
f 727 685 686
f 727 726 685
f 728 721 720
f 728 729 721
f 730 721 729
f 730 722 721
f 731 685 726
f 731 690 685
f 732 727 686
f 732 686 691
f 732 691 690
f 732 690 731
f 731 726 727
f 731 727 732
f 697 735 696
f 697 736 735
f 698 736 697
f 698 737 736
f 738 734 733
f 738 739 734
f 735 699 696
f 735 741 699
f 742 741 735
f 742 735 736
f 737 698 700
f 737 700 743
f 742 736 737
f 742 737 743
f 744 739 738
f 744 745 739
f 746 701 702
f 746 745 701
f 746 739 745
f 746 740 739
f 747 699 741
f 747 703 699
f 747 702 703
f 747 746 702
f 747 740 746
f 747 741 740
f 743 700 704
f 743 704 749
f 748 742 743
f 748 743 749
f 750 704 705
f 750 749 704
f 751 705 706
f 751 750 705
f 752 701 745
f 752 708 701
f 753 749 750
f 753 750 754
f 751 706 711
f 751 711 755
f 752 714 708
f 752 757 714
f 714 756 713
f 714 757 756
f 761 717 716
f 761 716 760
f 762 755 711
f 762 711 718
f 762 718 717
f 762 717 761
f 756 720 713
f 756 763 720
f 764 763 756
f 764 756 757
f 723 722 765
f 723 765 766
f 767 724 723
f 767 723 766
f 767 766 758
f 767 758 759
f 768 760 716
f 768 716 725
f 768 725 724
f 768 724 767
f 768 767 759
f 768 759 760
f 763 728 720
f 763 769 728
f 770 729 728
f 770 728 769
f 765 722 730
f 765 730 771
f 730 729 770
f 730 770 771
f 772 765 771
f 772 766 765
f 777 774 773
f 777 778 774
f 779 776 775
f 779 780 776
f 781 778 777
f 781 782 778
f 785 733 734
f 785 784 733
f 786 782 781
f 786 787 782
f 787 783 782
f 787 788 783
f 784 738 733
f 784 789 738
f 790 785 734
f 790 734 739
f 740 790 739
f 740 791 790
f 792 740 741
f 792 791 740
f 793 741 742
f 793 792 741
f 794 787 786
f 794 795 787
f 795 788 787
f 795 796 788
f 789 744 738
f 789 797 744
f 796 789 788
f 796 797 789
f 798 745 744
f 798 744 797
f 793 742 748
f 793 748 800
f 799 792 793
f 799 793 800
f 801 748 749
f 801 800 748
f 751 802 750
f 751 803 802
f 804 797 796
f 804 805 797
f 798 752 745
f 798 806 752
f 805 798 797
f 805 806 798
f 801 749 753
f 801 753 808
f 807 800 801
f 807 801 808
f 802 754 750
f 802 809 754
f 809 753 754
f 809 808 753
f 803 751 755
f 803 755 810
f 810 809 802
f 810 802 803
f 806 757 752
f 806 812 757
f 811 806 805
f 811 812 806
f 815 759 758
f 815 758 814
f 816 760 759
f 816 759 815
f 817 761 760
f 817 760 816
f 817 816 808
f 817 808 809
f 818 810 755
f 818 755 762
f 818 762 761
f 818 761 817
f 818 817 809
f 818 809 810
f 812 764 757
f 812 820 764
f 764 819 763
f 764 820 819
f 820 812 813
f 820 813 821
f 822 814 758
f 822 758 766
f 822 821 813
f 822 813 814
f 819 769 763
f 819 823 769
f 770 769 823
f 770 823 824
f 824 823 819
f 824 819 820
f 825 771 770
f 825 770 824
f 824 820 821
f 824 821 825
f 822 766 772
f 822 772 826
f 772 771 825
f 772 825 826
f 826 825 821
f 826 821 822
f 774 829 773
f 774 830 829
f 776 831 775
f 776 832 831
f 831 828 827
f 831 832 828
f 829 777 773
f 829 834 777
f 830 774 778
f 830 778 835
f 836 775 831
f 836 779 775
f 837 832 776
f 837 776 780
f 837 780 779
f 837 779 836
f 837 833 832
f 837 838 833
f 841 777 834
f 841 781 777
f 842 835 778
f 842 778 782
f 783 842 782
f 783 843 842
f 844 836 843
f 844 837 836
f 785 844 784
f 785 845 844
f 844 838 837
f 844 845 838
f 847 839 846
f 847 840 839
f 848 781 841
f 848 786 781
f 849 843 783
f 849 783 788
f 850 784 844
f 850 789 784
f 850 788 789
f 850 849 788
f 849 844 843
f 849 850 844
f 851 845 785
f 851 785 790
f 791 851 790
f 791 852 851
f 851 846 845
f 851 852 846
f 853 791 792
f 853 852 791
f 852 847 846
f 852 853 847
f 848 794 786
f 848 854 794
f 855 795 794
f 855 794 854
f 796 795 855
f 796 855 856
f 853 792 799
f 853 799 858
f 859 799 800
f 859 858 799
f 856 804 796
f 856 860 804
f 861 805 804
f 861 804 860
f 860 856 857
f 860 857 861
f 859 800 807
f 859 807 862
f 863 807 808
f 863 862 807
f 861 811 805
f 861 864 811
f 865 812 811
f 865 811 864
f 813 812 865
f 813 865 866
f 867 814 813
f 867 813 866
f 815 814 867
f 815 867 868
f 863 808 816
f 863 816 869
f 869 816 815
f 869 815 868
f 868 862 863
f 868 863 869
f 828 870 827
f 828 871 870
f 830 872 829
f 830 873 872
f 870 831 827
f 870 874 831
f 875 871 828
f 875 828 832
f 875 874 870
f 875 870 871
f 833 875 832
f 833 876 875
f 879 829 872
f 879 834 829
f 880 873 830
f 880 830 835
f 881 831 874
f 881 836 831
f 881 873 880
f 881 874 873
f 882 881 874
f 882 874 875
f 876 833 838
f 876 838 883
f 882 875 876
f 882 876 883
f 840 884 839
f 840 885 884
f 884 878 877
f 884 885 878
f 887 834 879
f 887 841 834
f 880 835 842
f 880 842 888
f 889 836 881
f 889 843 836
f 889 842 843
f 889 888 842
f 889 880 888
f 889 881 880
f 891 883 838
f 891 838 845
f 890 882 883
f 890 883 891
f 892 839 884
f 892 846 839
f 892 845 846
f 892 891 845
f 893 885 840
f 893 840 847
f 893 886 885
f 893 894 886
f 895 841 887
f 895 848 841
f 896 895 887
f 896 887 888
f 897 893 847
f 897 847 853
f 898 848 895
f 898 854 848
f 855 854 898
f 855 898 899
f 898 895 896
f 898 896 899
f 900 856 855
f 900 855 899
f 901 857 856
f 901 856 900
f 904 897 853
f 904 853 858
f 905 858 859
f 905 904 858
f 907 857 901
f 907 861 857
f 906 901 900
f 906 907 901
f 909 908 902
f 909 902 903
f 909 903 904
f 909 904 910
f 911 905 859
f 911 859 862
f 910 904 905
f 910 905 911
f 907 864 861
f 907 913 864
f 912 907 906
f 912 913 907
f 914 865 864
f 914 864 913
f 915 866 865
f 915 865 914
f 915 914 908
f 915 908 909
f 916 867 866
f 916 866 915
f 915 909 910
f 915 910 916
f 917 911 862
f 917 862 868
f 917 868 867
f 917 867 916
f 917 916 910
f 917 910 911
f 923 872 873
f 923 922 872
f 922 919 918
f 922 923 919
f 924 873 874
f 924 923 873
f 926 920 925
f 926 921 920
f 878 927 877
f 878 928 927
f 929 872 922
f 929 879 872
f 930 924 874
f 930 874 881
f 882 930 881
f 882 931 930
f 930 925 924
f 930 931 925
f 931 926 925
f 931 932 926
f 927 884 877
f 927 933 884
f 928 878 885
f 928 885 934
f 933 927 928
f 933 928 934
f 886 934 885
f 886 935 934
f 936 879 929
f 936 887 879
f 937 888 887
f 937 887 936
f 938 931 882
f 938 882 890
f 939 890 891
f 939 938 890
f 938 932 931
f 938 939 932
f 940 884 933
f 940 892 884
f 940 891 892
f 940 939 891
f 940 932 939
f 940 933 932
f 935 886 894
f 935 894 942
f 942 894 893
f 942 893 941
f 941 934 935
f 941 935 942
f 937 896 888
f 937 944 896
f 943 937 936
f 943 944 937
f 949 941 893
f 949 893 897
f 944 899 896
f 944 951 899
f 950 944 943
f 950 951 944
f 900 899 951
f 900 951 952
f 953 952 945
f 953 945 946
f 953 946 947
f 953 947 954
f 955 903 902
f 955 902 954
f 955 954 947
f 955 947 948
f 956 949 897
f 956 897 904
f 956 904 903
f 956 903 955
f 956 955 948
f 956 948 949
f 957 900 952
f 957 906 900
f 957 952 953
f 957 953 958
f 959 954 902
f 959 902 908
f 959 958 953
f 959 953 954
f 957 912 906
f 957 960 912
f 961 913 912
f 961 912 960
f 962 959 908
f 962 908 914
f 962 914 913
f 962 913 961
f 962 961 958
f 962 958 959
f 967 918 919
f 967 966 918
f 967 963 966
f 967 964 963
f 921 968 920
f 921 969 968
f 972 918 966
f 972 922 918
f 972 965 971
f 972 966 965
f 973 967 919
f 973 919 923
f 974 923 924
f 974 973 923
f 975 920 968
f 975 925 920
f 925 974 924
f 925 975 974
f 976 969 921
f 976 921 926
f 977 969 976
f 977 970 969
f 972 929 922
f 972 979 929
f 979 971 978
f 979 972 971
f 980 976 926
f 980 926 932
f 981 932 933
f 981 980 932
f 982 933 934
f 982 981 933
f 984 929 979
f 984 936 929
f 983 979 978
f 983 984 979
f 987 986 980
f 987 980 981
f 982 934 941
f 982 941 988
f 987 981 982
f 987 982 988
f 984 943 936
f 984 990 943
f 989 984 983
f 989 990 984
f 993 946 945
f 993 945 992
f 994 947 946
f 994 946 993
f 994 993 985
f 994 985 986
f 995 948 947
f 995 947 994
f 994 986 987
f 994 987 995
f 996 988 941
f 996 941 949
f 996 949 948
f 996 948 995
f 996 995 987
f 996 987 988
f 997 943 990
f 997 950 943
f 998 951 950
f 998 950 997
f 997 990 991
f 997 991 998
f 999 992 945
f 999 945 952
f 999 952 951
f 999 951 998
f 999 998 991
f 999 991 992
f 958 1000 957
f 958 1001 1000
f 1000 960 957
f 1000 1002 960
f 1003 1001 958
f 1003 958 961
f 1003 961 960
f 1003 960 1002
f 1002 1000 1001
f 1002 1001 1003
f 964 1004 963
f 964 1005 1004
f 1009 963 1004
f 1009 966 963
f 1009 965 966
f 1009 1008 965
f 1005 964 967
f 1005 967 1010
f 1010 1009 1004
f 1010 1004 1005
f 969 1011 968
f 969 1012 1011
f 970 1012 969
f 970 1013 1012
f 1014 1007 1006
f 1014 1015 1007
f 1008 971 965
f 1008 1016 971
f 1010 967 973
f 1010 973 1017
f 974 1017 973
f 974 1018 1017
f 1011 975 968
f 1011 1019 975
f 1019 974 975
f 1019 1018 974
f 1020 1019 1011
f 1020 1011 1012
f 1013 970 977
f 1013 977 1021
f 1021 977 976
f 1021 976 1020
f 1021 1020 1012
f 1021 1012 1013
f 1022 1015 1014
f 1022 1023 1015
f 1024 971 1016
f 1024 978 971
f 1023 1016 1015
f 1023 1024 1016
f 1026 1025 1018
f 1026 1018 1019
f 1020 976 980
f 1020 980 1027
f 1027 1026 1019
f 1027 1019 1020
f 1028 1023 1022
f 1028 1029 1023
f 1024 983 978
f 1024 1030 983
f 1029 1024 1023
f 1029 1030 1024
f 1032 1025 1026
f 1032 1026 1033
f 1034 1027 980
f 1034 980 986
f 1034 986 985
f 1034 985 1033
f 1034 1033 1026
f 1034 1026 1027
f 1035 983 1030
f 1035 989 983
f 1036 990 989
f 1036 989 1035
f 1035 1030 1031
f 1035 1031 1036
f 991 990 1036
f 991 1036 1037
f 1038 992 991
f 1038 991 1037
f 1039 1033 985
f 1039 985 993
f 993 992 1038
f 993 1038 1039
f 1040 1038 1037
f 1040 1041 1038
f 1042 1038 1041
f 1042 1039 1038
f 1050 1044 1043
f 1050 1051 1044
f 1051 1045 1044
f 1051 1052 1045
f 1053 1006 1007
f 1053 1052 1006
f 1054 1046 1053
f 1054 1047 1046
f 1009 1054 1008
f 1009 1055 1054
f 1054 1048 1047
f 1054 1055 1048
f 1010 1055 1009
f 1010 1056 1055
f 1055 1049 1048
f 1055 1056 1049
f 1058 1006 1052
f 1058 1014 1006
f 1057 1052 1051
f 1057 1058 1052
f 1059 1053 1007
f 1059 1007 1015
f 1059 1058 1052
f 1059 1052 1053
f 1060 1008 1054
f 1060 1016 1008
f 1060 1015 1016
f 1060 1059 1015
f 1060 1053 1059
f 1060 1054 1053
f 1062 1056 1010
f 1062 1010 1017
f 1061 1055 1056
f 1061 1056 1062
f 1018 1062 1017
f 1018 1063 1062
f 1065 1014 1058
f 1065 1022 1014
f 1063 1018 1025
f 1063 1025 1068
f 1069 1063 1068
f 1069 1064 1063
f 1070 1022 1065
f 1070 1028 1022
f 1029 1028 1070
f 1029 1070 1071
f 1070 1065 1066
f 1070 1066 1071
f 1072 1030 1029
f 1072 1029 1071
f 1031 1030 1072
f 1031 1072 1073
f 1068 1025 1032
f 1068 1032 1075
f 1075 1074 1067
f 1075 1067 1068
f 1076 1032 1033
f 1076 1075 1032
f 1077 1072 1071
f 1077 1078 1072
f 1079 1031 1073
f 1079 1036 1031
f 1078 1073 1072
f 1078 1079 1073
f 1080 1037 1036
f 1080 1036 1079
f 1080 1079 1073
f 1080 1073 1074
f 1080 1074 1075
f 1080 1075 1081
f 1076 1033 1039
f 1076 1039 1082
f 1081 1075 1076
f 1081 1076 1082
f 1083 1037 1080
f 1083 1040 1037
f 1041 1040 1083
f 1041 1083 1084
f 1083 1080 1081
f 1083 1081 1084
f 1082 1039 1042
f 1082 1042 1085
f 1042 1041 1084
f 1042 1084 1085
f 1085 1084 1081
f 1085 1081 1082
f 1044 1086 1043
f 1044 1087 1086
f 1045 1087 1044
f 1045 1088 1087
f 1090 1046 1047
f 1090 1089 1046
f 1091 1047 1048
f 1091 1090 1047
f 1092 1048 1049
f 1092 1091 1048
f 1086 1050 1043
f 1086 1093 1050
f 1094 1051 1050
f 1094 1050 1093
f 1093 1086 1087
f 1093 1087 1094
f 1095 1088 1045
f 1095 1045 1052
f 1096 1046 1089
f 1096 1053 1046
f 1097 1090 1091
f 1097 1091 1098
f 1099 1092 1049
f 1099 1049 1056
f 1099 1056 1055
f 1099 1055 1098
f 1099 1098 1091
f 1099 1091 1092
f 1100 1051 1094
f 1100 1057 1051
f 1101 1095 1052
f 1101 1052 1058
f 1101 1058 1057
f 1101 1057 1100
f 1102 1053 1096
f 1102 1059 1053
f 1102 1058 1059
f 1102 1101 1058
f 1102 1095 1101
f 1102 1096 1095
f 1098 1055 1061
f 1098 1061 1103
f 1104 1061 1062
f 1104 1103 1061
f 1063 1104 1062
f 1063 1105 1104
f 1064 1105 1063
f 1064 1106 1105
f 1108 1058 1101
f 1108 1065 1058
f 1109 1066 1065
f 1109 1065 1108
f 1112 1068 1067
f 1112 1067 1111
f 1106 1064 1069
f 1106 1069 1113
f 1069 1068 1112
f 1069 1112 1113
f 1114 1108 1107
f 1114 1115 1108
f 1109 1071 1066
f 1109 1116 1071
f 1115 1109 1108
f 1115 1116 1109
f 1119 1111 1067
f 1119 1067 1074
f 1074 1073 1118
f 1074 1118 1119
f 1119 1118 1110
f 1119 1110 1111
f 1116 1077 1071
f 1116 1121 1077
f 1120 1116 1115
f 1120 1121 1116
f 1122 1078 1077
f 1122 1077 1121
f 1121 1116 1117
f 1121 1117 1122
f 1123 1118 1073
f 1123 1073 1079
f 1123 1079 1078
f 1123 1078 1122
f 1123 1122 1117
f 1123 1117 1118
f 1088 1124 1087
f 1088 1125 1124
f 1127 1089 1090
f 1127 1126 1089
f 1128 1087 1124
f 1128 1094 1087
f 1129 1125 1088
f 1129 1088 1095
f 1130 1089 1126
f 1130 1096 1089
f 1096 1129 1095
f 1096 1130 1129
f 1129 1126 1125
f 1129 1130 1126
f 1127 1090 1097
f 1127 1097 1131
f 1130 1126 1127
f 1130 1127 1131
f 1132 1097 1098
f 1132 1131 1097
f 1128 1100 1094
f 1128 1133 1100
f 1134 1101 1100
f 1134 1100 1133
f 1132 1098 1103
f 1132 1103 1136
f 1135 1131 1132
f 1135 1132 1136
f 1137 1103 1104
f 1137 1136 1103
f 1105 1137 1104
f 1105 1138 1137
f 1139 1105 1106
f 1139 1138 1105
f 1134 1108 1101
f 1134 1141 1108
f 1141 1107 1108
f 1141 1140 1107
f 1140 1134 1133
f 1140 1141 1134
f 1145 1111 1110
f 1145 1110 1144
f 1144 1136 1137
f 1144 1137 1145
f 1112 1111 1145
f 1112 1145 1146
f 1147 1139 1106
f 1147 1106 1113
f 1147 1113 1112
f 1147 1112 1146
f 1147 1146 1138
f 1147 1138 1139
f 1148 1107 1140
f 1148 1114 1107
f 1149 1115 1114
f 1149 1114 1148
f 1117 1116 1150
f 1117 1150 1151
f 1151 1150 1142
f 1151 1142 1143
f 1152 1144 1110
f 1152 1110 1118
f 1152 1118 1117
f 1152 1117 1151
f 1149 1120 1115
f 1149 1153 1120
f 1154 1150 1116
f 1154 1116 1121
f 1154 1121 1120
f 1154 1120 1153
f 1154 1153 1149
f 1154 1149 1150
f 1157 1124 1125
f 1157 1156 1124
f 1158 1125 1126
f 1158 1157 1125
f 1161 1124 1156
f 1161 1128 1124
f 1161 1155 1160
f 1161 1156 1155
f 1162 1158 1126
f 1162 1126 1130
f 1131 1162 1130
f 1131 1163 1162
f 1162 1159 1158
f 1162 1163 1159
f 1161 1133 1128
f 1161 1165 1133
f 1164 1161 1160
f 1164 1165 1161
f 1163 1131 1135
f 1163 1135 1167
f 1168 1135 1136
f 1168 1167 1135
f 1138 1169 1137
f 1138 1170 1169
f 1171 1133 1165
f 1171 1140 1133
f 1171 1165 1166
f 1171 1166 1172
f 1174 1143 1142
f 1174 1142 1173
f 1168 1136 1144
f 1168 1144 1175
f 1176 1137 1169
f 1176 1145 1137
f 1177 1170 1138
f 1177 1138 1146
f 1146 1145 1176
f 1146 1176 1177
f 1176 1169 1170
f 1176 1170 1177
f 1178 1140 1171
f 1178 1148 1140
f 1179 1149 1148
f 1179 1148 1178
f 1178 1171 1172
f 1178 1172 1179
f 1180 1173 1142
f 1180 1142 1150
f 1180 1150 1149
f 1180 1149 1179
f 1179 1172 1173
f 1179 1173 1180
f 1181 1143 1174
f 1181 1151 1143
f 1175 1144 1152
f 1175 1152 1182
f 1152 1151 1181
f 1152 1181 1182
f 1187 1183 1186
f 1187 1184 1183
f 1189 1185 1188
f 1189 1186 1185
f 1189 1187 1186
f 1189 1190 1187
f 1191 1155 1156
f 1191 1190 1155
f 1157 1191 1156
f 1157 1192 1191
f 1193 1157 1158
f 1193 1192 1157
f 1159 1193 1158
f 1159 1194 1193
f 1195 1155 1190
f 1195 1160 1155
f 1196 1192 1193
f 1196 1193 1197
f 1198 1194 1159
f 1198 1159 1163
f 1198 1197 1193
f 1198 1193 1194
f 1195 1164 1160
f 1195 1199 1164
f 1200 1165 1164
f 1200 1164 1199
f 1166 1165 1200
f 1166 1200 1201
f 1198 1163 1167
f 1198 1167 1203
f 1202 1197 1198
f 1202 1198 1203
f 1204 1167 1168
f 1204 1203 1167
f 1205 1166 1201
f 1205 1172 1166
f 1206 1173 1172
f 1206 1172 1205
f 1205 1201 1202
f 1205 1202 1206
f 1174 1173 1206
f 1174 1206 1207
f 1206 1202 1203
f 1206 1203 1207
f 1204 1168 1175
f 1204 1175 1208
f 1207 1203 1204
f 1207 1204 1208
f 1207 1181 1174
f 1207 1209 1181
f 1210 1208 1175
f 1210 1175 1182
f 1182 1181 1209
f 1182 1209 1210
f 1209 1207 1208
f 1209 1208 1210
f 1213 1212 1211
f 1213 1214 1212
f 1184 1215 1183
f 1184 1216 1215
f 1219 1183 1215
f 1219 1186 1183
f 1219 1185 1186
f 1219 1218 1185
f 1220 1216 1184
f 1220 1184 1187
f 1220 1217 1216
f 1220 1221 1217
f 1222 1185 1218
f 1222 1188 1185
f 1189 1188 1222
f 1189 1222 1223
f 1224 1220 1187
f 1224 1187 1190
f 1224 1190 1189
f 1224 1189 1223
f 1191 1224 1190
f 1191 1225 1224
f 1225 1220 1224
f 1225 1221 1220
f 1226 1191 1192
f 1226 1225 1191
f 1224 1195 1190
f 1224 1228 1195
f 1228 1223 1227
f 1228 1224 1223
f 1226 1192 1196
f 1226 1196 1229
f 1230 1196 1197
f 1230 1229 1196
f 1231 1195 1228
f 1231 1199 1195
f 1232 1200 1199
f 1232 1199 1231
f 1233 1201 1200
f 1233 1200 1232
f 1234 1230 1197
f 1234 1197 1202
f 1234 1202 1201
f 1234 1201 1233
f 1234 1233 1229
f 1234 1229 1230
f 1236 1211 1212
f 1236 1235 1211
f 1235 1213 1211
f 1235 1238 1213
f 1236 1212 1214
f 1236 1214 1239
f 1239 1214 1213
f 1239 1213 1238
f 1216 1240 1215
f 1216 1241 1240
f 1217 1241 1216
f 1217 1242 1241
f 1242 1237 1241
f 1242 1238 1237
f 1243 1238 1242
f 1243 1239 1238
f 1240 1219 1215
f 1240 1245 1219
f 1219 1244 1218
f 1219 1245 1244
f 1246 1245 1240
f 1246 1240 1241
f 1247 1242 1217
f 1247 1217 1221
f 1244 1222 1218
f 1244 1248 1222
f 1223 1222 1248
f 1223 1248 1249
f 1248 1244 1245
f 1248 1245 1249
f 1249 1245 1246
f 1249 1246 1250
f 1247 1221 1225
f 1247 1225 1251
f 1252 1225 1226
f 1252 1251 1225
f 1253 1223 1249
f 1253 1227 1223
f 1228 1227 1253
f 1228 1253 1254
f 1253 1249 1250
f 1253 1250 1254
f 1252 1226 1229
f 1252 1229 1256
f 1255 1251 1252
f 1255 1252 1256
f 1254 1231 1228
f 1254 1257 1231
f 1232 1231 1257
f 1232 1257 1258
f 1256 1229 1233
f 1256 1233 1259
f 1259 1233 1232
f 1259 1232 1258
f 1260 1259 1258
f 1260 1261 1259
f 1236 1262 1235
f 1236 1263 1262
f 1262 1238 1235
f 1262 1265 1238
f 1265 1237 1238
f 1265 1264 1237
f 1263 1236 1239
f 1263 1239 1266
f 1265 1262 1263
f 1265 1263 1266
f 1267 1237 1264
f 1267 1241 1237
f 1266 1239 1243
f 1266 1243 1269
f 1243 1242 1268
f 1243 1268 1269
f 1267 1246 1241
f 1267 1270 1246
f 1268 1242 1247
f 1268 1247 1271
f 1272 1268 1271
f 1272 1269 1268
f 1270 1250 1246
f 1270 1273 1250
f 1271 1247 1251
f 1271 1251 1274
f 1275 1271 1274
f 1275 1272 1271
f 1276 1250 1273
f 1276 1254 1250
f 1274 1251 1255
f 1274 1255 1277
f 1276 1273 1274
f 1276 1274 1277
f 1278 1255 1256
f 1278 1277 1255
f 1276 1257 1254
f 1276 1279 1257
f 1280 1258 1257
f 1280 1257 1279
f 1279 1276 1277
f 1279 1277 1280
f 1278 1256 1259
f 1278 1259 1281
f 1280 1277 1278
f 1280 1278 1281
f 1282 1258 1280
f 1282 1260 1258
f 1281 1259 1261
f 1281 1261 1283
f 1261 1260 1282
f 1261 1282 1283
f 1282 1280 1281
f 1282 1281 1283
f 1285 1264 1265
f 1285 1284 1264
f 1266 1285 1265
f 1266 1286 1285
f 1284 1267 1264
f 1284 1287 1267
f 1288 1287 1284
f 1288 1284 1285
f 1286 1266 1269
f 1286 1269 1289
f 1288 1285 1286
f 1288 1286 1289
f 1287 1270 1267
f 1287 1290 1270
f 1291 1290 1287
f 1291 1287 1288
f 1289 1269 1272
f 1289 1272 1292
f 1292 1291 1288
f 1292 1288 1289
f 1293 1270 1290
f 1293 1273 1270
f 1294 1274 1273
f 1294 1273 1293
f 1292 1272 1275
f 1292 1275 1295
f 1275 1274 1294
f 1275 1294 1295
f 1295 1294 1291
f 1295 1291 1292
f 1297 1290 1291
f 1297 1296 1290
f 1296 1293 1290
f 1296 1298 1293
f 1299 1297 1291
f 1299 1291 1294
f 1299 1294 1293
f 1299 1293 1298
f 1298 1296 1297
f 1298 1297 1299
