<?xml version="1.0" encoding="utf-8" standalone="no"?>
<!DOCTYPE svg PUBLIC "-//W3C//DTD SVG 1.1//EN"
  "http://www.w3.org/Graphics/SVG/1.1/DTD/svg11.dtd">
<svg xmlns:xlink="http://www.w3.org/1999/xlink" width="618.80625pt" height="337.074375pt" viewBox="0 0 618.80625 337.074375" xmlns="http://www.w3.org/2000/svg" version="1.1">
 <metadata>
  <rdf:RDF xmlns:dc="http://purl.org/dc/elements/1.1/" xmlns:cc="http://creativecommons.org/ns#" xmlns:rdf="http://www.w3.org/1999/02/22-rdf-syntax-ns#">
   <cc:Work>
    <dc:type rdf:resource="http://purl.org/dc/dcmitype/StillImage"/>
    <dc:date>2026-05-29T06:18:16.634544</dc:date>
    <dc:format>image/svg+xml</dc:format>
    <dc:creator>
     <cc:Agent>
      <dc:title>Matplotlib v3.10.9, https://matplotlib.org/</dc:title>
     </cc:Agent>
    </dc:creator>
   </cc:Work>
  </rdf:RDF>
 </metadata>
 <defs>
  <style type="text/css">*{stroke-linejoin: round; stroke-linecap: butt}</style>
 </defs>
 <g id="figure_1">
  <g id="patch_1">
   <path d="M 0 337.074375 
L 618.80625 337.074375 
L 618.80625 0 
L 0 0 
z
" style="fill: #ffffff"/>
  </g>
  <g id="axes_1">
   <g id="patch_2">
    <path d="M 53.60625 299.518125 
L 611.60625 299.518125 
L 611.60625 22.318125 
L 53.60625 22.318125 
z
" style="fill: #ffffff"/>
   </g>
   <g id="matplotlib.axis_1">
    <g id="xtick_1">
     <g id="line2d_1">
      <path d="M 78.264361 299.518125 
L 78.264361 22.318125 
" clip-path="url(#pe43cf58fc1)" style="fill: none; stroke: #b0b0b0; stroke-opacity: 0.3; stroke-width: 0.8; stroke-linecap: square"/>
     </g>
     <g id="line2d_2">
      <defs>
       <path id="m621cc51399" d="M 0 0 
L 0 3.5 
" style="stroke: #000000; stroke-width: 0.8"/>
      </defs>
      <g>
       <use xlink:href="#m621cc51399" x="78.264361" y="299.518125" style="stroke: #000000; stroke-width: 0.8"/>
      </g>
     </g>
     <g id="text_1">
      <!-- 0 -->
      <g transform="translate(75.083111 314.116563) scale(0.1 -0.1)">
       <defs>
        <path id="DejaVuSans-30" d="M 2034 4250 
Q 1547 4250 1301 3770 
Q 1056 3291 1056 2328 
Q 1056 1369 1301 889 
Q 1547 409 2034 409 
Q 2525 409 2770 889 
Q 3016 1369 3016 2328 
Q 3016 3291 2770 3770 
Q 2525 4250 2034 4250 
z
M 2034 4750 
Q 2819 4750 3233 4129 
Q 3647 3509 3647 2328 
Q 3647 1150 3233 529 
Q 2819 -91 2034 -91 
Q 1250 -91 836 529 
Q 422 1150 422 2328 
Q 422 3509 836 4129 
Q 1250 4750 2034 4750 
z
" transform="scale(0.015625)"/>
       </defs>
       <use xlink:href="#DejaVuSans-30"/>
      </g>
     </g>
    </g>
    <g id="xtick_2">
     <g id="line2d_3">
      <path d="M 162.927403 299.518125 
L 162.927403 22.318125 
" clip-path="url(#pe43cf58fc1)" style="fill: none; stroke: #b0b0b0; stroke-opacity: 0.3; stroke-width: 0.8; stroke-linecap: square"/>
     </g>
     <g id="line2d_4">
      <g>
       <use xlink:href="#m621cc51399" x="162.927403" y="299.518125" style="stroke: #000000; stroke-width: 0.8"/>
      </g>
     </g>
     <g id="text_2">
      <!-- 20 -->
      <g transform="translate(156.564903 314.116563) scale(0.1 -0.1)">
       <defs>
        <path id="DejaVuSans-32" d="M 1228 531 
L 3431 531 
L 3431 0 
L 469 0 
L 469 531 
Q 828 903 1448 1529 
Q 2069 2156 2228 2338 
Q 2531 2678 2651 2914 
Q 2772 3150 2772 3378 
Q 2772 3750 2511 3984 
Q 2250 4219 1831 4219 
Q 1534 4219 1204 4116 
Q 875 4013 500 3803 
L 500 4441 
Q 881 4594 1212 4672 
Q 1544 4750 1819 4750 
Q 2544 4750 2975 4387 
Q 3406 4025 3406 3419 
Q 3406 3131 3298 2873 
Q 3191 2616 2906 2266 
Q 2828 2175 2409 1742 
Q 1991 1309 1228 531 
z
" transform="scale(0.015625)"/>
       </defs>
       <use xlink:href="#DejaVuSans-32"/>
       <use xlink:href="#DejaVuSans-30" transform="translate(63.623047 0)"/>
      </g>
     </g>
    </g>
    <g id="xtick_3">
     <g id="line2d_5">
      <path d="M 247.590445 299.518125 
L 247.590445 22.318125 
" clip-path="url(#pe43cf58fc1)" style="fill: none; stroke: #b0b0b0; stroke-opacity: 0.3; stroke-width: 0.8; stroke-linecap: square"/>
     </g>
     <g id="line2d_6">
      <g>
       <use xlink:href="#m621cc51399" x="247.590445" y="299.518125" style="stroke: #000000; stroke-width: 0.8"/>
      </g>
     </g>
     <g id="text_3">
      <!-- 40 -->
      <g transform="translate(241.227945 314.116563) scale(0.1 -0.1)">
       <defs>
        <path id="DejaVuSans-34" d="M 2419 4116 
L 825 1625 
L 2419 1625 
L 2419 4116 
z
M 2253 4666 
L 3047 4666 
L 3047 1625 
L 3713 1625 
L 3713 1100 
L 3047 1100 
L 3047 0 
L 2419 0 
L 2419 1100 
L 313 1100 
L 313 1709 
L 2253 4666 
z
" transform="scale(0.015625)"/>
       </defs>
       <use xlink:href="#DejaVuSans-34"/>
       <use xlink:href="#DejaVuSans-30" transform="translate(63.623047 0)"/>
      </g>
     </g>
    </g>
    <g id="xtick_4">
     <g id="line2d_7">
      <path d="M 332.253487 299.518125 
L 332.253487 22.318125 
" clip-path="url(#pe43cf58fc1)" style="fill: none; stroke: #b0b0b0; stroke-opacity: 0.3; stroke-width: 0.8; stroke-linecap: square"/>
     </g>
     <g id="line2d_8">
      <g>
       <use xlink:href="#m621cc51399" x="332.253487" y="299.518125" style="stroke: #000000; stroke-width: 0.8"/>
      </g>
     </g>
     <g id="text_4">
      <!-- 60 -->
      <g transform="translate(325.890987 314.116563) scale(0.1 -0.1)">
       <defs>
        <path id="DejaVuSans-36" d="M 2113 2584 
Q 1688 2584 1439 2293 
Q 1191 2003 1191 1497 
Q 1191 994 1439 701 
Q 1688 409 2113 409 
Q 2538 409 2786 701 
Q 3034 994 3034 1497 
Q 3034 2003 2786 2293 
Q 2538 2584 2113 2584 
z
M 3366 4563 
L 3366 3988 
Q 3128 4100 2886 4159 
Q 2644 4219 2406 4219 
Q 1781 4219 1451 3797 
Q 1122 3375 1075 2522 
Q 1259 2794 1537 2939 
Q 1816 3084 2150 3084 
Q 2853 3084 3261 2657 
Q 3669 2231 3669 1497 
Q 3669 778 3244 343 
Q 2819 -91 2113 -91 
Q 1303 -91 875 529 
Q 447 1150 447 2328 
Q 447 3434 972 4092 
Q 1497 4750 2381 4750 
Q 2619 4750 2861 4703 
Q 3103 4656 3366 4563 
z
" transform="scale(0.015625)"/>
       </defs>
       <use xlink:href="#DejaVuSans-36"/>
       <use xlink:href="#DejaVuSans-30" transform="translate(63.623047 0)"/>
      </g>
     </g>
    </g>
    <g id="xtick_5">
     <g id="line2d_9">
      <path d="M 416.916529 299.518125 
L 416.916529 22.318125 
" clip-path="url(#pe43cf58fc1)" style="fill: none; stroke: #b0b0b0; stroke-opacity: 0.3; stroke-width: 0.8; stroke-linecap: square"/>
     </g>
     <g id="line2d_10">
      <g>
       <use xlink:href="#m621cc51399" x="416.916529" y="299.518125" style="stroke: #000000; stroke-width: 0.8"/>
      </g>
     </g>
     <g id="text_5">
      <!-- 80 -->
      <g transform="translate(410.554029 314.116563) scale(0.1 -0.1)">
       <defs>
        <path id="DejaVuSans-38" d="M 2034 2216 
Q 1584 2216 1326 1975 
Q 1069 1734 1069 1313 
Q 1069 891 1326 650 
Q 1584 409 2034 409 
Q 2484 409 2743 651 
Q 3003 894 3003 1313 
Q 3003 1734 2745 1975 
Q 2488 2216 2034 2216 
z
M 1403 2484 
Q 997 2584 770 2862 
Q 544 3141 544 3541 
Q 544 4100 942 4425 
Q 1341 4750 2034 4750 
Q 2731 4750 3128 4425 
Q 3525 4100 3525 3541 
Q 3525 3141 3298 2862 
Q 3072 2584 2669 2484 
Q 3125 2378 3379 2068 
Q 3634 1759 3634 1313 
Q 3634 634 3220 271 
Q 2806 -91 2034 -91 
Q 1263 -91 848 271 
Q 434 634 434 1313 
Q 434 1759 690 2068 
Q 947 2378 1403 2484 
z
M 1172 3481 
Q 1172 3119 1398 2916 
Q 1625 2713 2034 2713 
Q 2441 2713 2670 2916 
Q 2900 3119 2900 3481 
Q 2900 3844 2670 4047 
Q 2441 4250 2034 4250 
Q 1625 4250 1398 4047 
Q 1172 3844 1172 3481 
z
" transform="scale(0.015625)"/>
       </defs>
       <use xlink:href="#DejaVuSans-38"/>
       <use xlink:href="#DejaVuSans-30" transform="translate(63.623047 0)"/>
      </g>
     </g>
    </g>
    <g id="xtick_6">
     <g id="line2d_11">
      <path d="M 501.579572 299.518125 
L 501.579572 22.318125 
" clip-path="url(#pe43cf58fc1)" style="fill: none; stroke: #b0b0b0; stroke-opacity: 0.3; stroke-width: 0.8; stroke-linecap: square"/>
     </g>
     <g id="line2d_12">
      <g>
       <use xlink:href="#m621cc51399" x="501.579572" y="299.518125" style="stroke: #000000; stroke-width: 0.8"/>
      </g>
     </g>
     <g id="text_6">
      <!-- 100 -->
      <g transform="translate(492.035822 314.116563) scale(0.1 -0.1)">
       <defs>
        <path id="DejaVuSans-31" d="M 794 531 
L 1825 531 
L 1825 4091 
L 703 3866 
L 703 4441 
L 1819 4666 
L 2450 4666 
L 2450 531 
L 3481 531 
L 3481 0 
L 794 0 
L 794 531 
z
" transform="scale(0.015625)"/>
       </defs>
       <use xlink:href="#DejaVuSans-31"/>
       <use xlink:href="#DejaVuSans-30" transform="translate(63.623047 0)"/>
       <use xlink:href="#DejaVuSans-30" transform="translate(127.246094 0)"/>
      </g>
     </g>
    </g>
    <g id="xtick_7">
     <g id="line2d_13">
      <path d="M 586.242614 299.518125 
L 586.242614 22.318125 
" clip-path="url(#pe43cf58fc1)" style="fill: none; stroke: #b0b0b0; stroke-opacity: 0.3; stroke-width: 0.8; stroke-linecap: square"/>
     </g>
     <g id="line2d_14">
      <g>
       <use xlink:href="#m621cc51399" x="586.242614" y="299.518125" style="stroke: #000000; stroke-width: 0.8"/>
      </g>
     </g>
     <g id="text_7">
      <!-- 120 -->
      <g transform="translate(576.698864 314.116563) scale(0.1 -0.1)">
       <use xlink:href="#DejaVuSans-31"/>
       <use xlink:href="#DejaVuSans-32" transform="translate(63.623047 0)"/>
       <use xlink:href="#DejaVuSans-30" transform="translate(127.246094 0)"/>
      </g>
     </g>
    </g>
    <g id="text_8">
     <!-- Sim time (min) -->
     <g transform="translate(295.36875 327.794688) scale(0.1 -0.1)">
      <defs>
       <path id="DejaVuSans-53" d="M 3425 4513 
L 3425 3897 
Q 3066 4069 2747 4153 
Q 2428 4238 2131 4238 
Q 1616 4238 1336 4038 
Q 1056 3838 1056 3469 
Q 1056 3159 1242 3001 
Q 1428 2844 1947 2747 
L 2328 2669 
Q 3034 2534 3370 2195 
Q 3706 1856 3706 1288 
Q 3706 609 3251 259 
Q 2797 -91 1919 -91 
Q 1588 -91 1214 -16 
Q 841 59 441 206 
L 441 856 
Q 825 641 1194 531 
Q 1563 422 1919 422 
Q 2459 422 2753 634 
Q 3047 847 3047 1241 
Q 3047 1584 2836 1778 
Q 2625 1972 2144 2069 
L 1759 2144 
Q 1053 2284 737 2584 
Q 422 2884 422 3419 
Q 422 4038 858 4394 
Q 1294 4750 2059 4750 
Q 2388 4750 2728 4690 
Q 3069 4631 3425 4513 
z
" transform="scale(0.015625)"/>
       <path id="DejaVuSans-69" d="M 603 3500 
L 1178 3500 
L 1178 0 
L 603 0 
L 603 3500 
z
M 603 4863 
L 1178 4863 
L 1178 4134 
L 603 4134 
L 603 4863 
z
" transform="scale(0.015625)"/>
       <path id="DejaVuSans-6d" d="M 3328 2828 
Q 3544 3216 3844 3400 
Q 4144 3584 4550 3584 
Q 5097 3584 5394 3201 
Q 5691 2819 5691 2113 
L 5691 0 
L 5113 0 
L 5113 2094 
Q 5113 2597 4934 2840 
Q 4756 3084 4391 3084 
Q 3944 3084 3684 2787 
Q 3425 2491 3425 1978 
L 3425 0 
L 2847 0 
L 2847 2094 
Q 2847 2600 2669 2842 
Q 2491 3084 2119 3084 
Q 1678 3084 1418 2786 
Q 1159 2488 1159 1978 
L 1159 0 
L 581 0 
L 581 3500 
L 1159 3500 
L 1159 2956 
Q 1356 3278 1631 3431 
Q 1906 3584 2284 3584 
Q 2666 3584 2933 3390 
Q 3200 3197 3328 2828 
z
" transform="scale(0.015625)"/>
       <path id="DejaVuSans-20" transform="scale(0.015625)"/>
       <path id="DejaVuSans-74" d="M 1172 4494 
L 1172 3500 
L 2356 3500 
L 2356 3053 
L 1172 3053 
L 1172 1153 
Q 1172 725 1289 603 
Q 1406 481 1766 481 
L 2356 481 
L 2356 0 
L 1766 0 
Q 1100 0 847 248 
Q 594 497 594 1153 
L 594 3053 
L 172 3053 
L 172 3500 
L 594 3500 
L 594 4494 
L 1172 4494 
z
" transform="scale(0.015625)"/>
       <path id="DejaVuSans-65" d="M 3597 1894 
L 3597 1613 
L 953 1613 
Q 991 1019 1311 708 
Q 1631 397 2203 397 
Q 2534 397 2845 478 
Q 3156 559 3463 722 
L 3463 178 
Q 3153 47 2828 -22 
Q 2503 -91 2169 -91 
Q 1331 -91 842 396 
Q 353 884 353 1716 
Q 353 2575 817 3079 
Q 1281 3584 2069 3584 
Q 2775 3584 3186 3129 
Q 3597 2675 3597 1894 
z
M 3022 2063 
Q 3016 2534 2758 2815 
Q 2500 3097 2075 3097 
Q 1594 3097 1305 2825 
Q 1016 2553 972 2059 
L 3022 2063 
z
" transform="scale(0.015625)"/>
       <path id="DejaVuSans-28" d="M 1984 4856 
Q 1566 4138 1362 3434 
Q 1159 2731 1159 2009 
Q 1159 1288 1364 580 
Q 1569 -128 1984 -844 
L 1484 -844 
Q 1016 -109 783 600 
Q 550 1309 550 2009 
Q 550 2706 781 3412 
Q 1013 4119 1484 4856 
L 1984 4856 
z
" transform="scale(0.015625)"/>
       <path id="DejaVuSans-6e" d="M 3513 2113 
L 3513 0 
L 2938 0 
L 2938 2094 
Q 2938 2591 2744 2837 
Q 2550 3084 2163 3084 
Q 1697 3084 1428 2787 
Q 1159 2491 1159 1978 
L 1159 0 
L 581 0 
L 581 3500 
L 1159 3500 
L 1159 2956 
Q 1366 3272 1645 3428 
Q 1925 3584 2291 3584 
Q 2894 3584 3203 3211 
Q 3513 2838 3513 2113 
z
" transform="scale(0.015625)"/>
       <path id="DejaVuSans-29" d="M 513 4856 
L 1013 4856 
Q 1481 4119 1714 3412 
Q 1947 2706 1947 2009 
Q 1947 1309 1714 600 
Q 1481 -109 1013 -844 
L 513 -844 
Q 928 -128 1133 580 
Q 1338 1288 1338 2009 
Q 1338 2731 1133 3434 
Q 928 4138 513 4856 
z
" transform="scale(0.015625)"/>
      </defs>
      <use xlink:href="#DejaVuSans-53"/>
      <use xlink:href="#DejaVuSans-69" transform="translate(63.476562 0)"/>
      <use xlink:href="#DejaVuSans-6d" transform="translate(91.259766 0)"/>
      <use xlink:href="#DejaVuSans-20" transform="translate(188.671875 0)"/>
      <use xlink:href="#DejaVuSans-74" transform="translate(220.458984 0)"/>
      <use xlink:href="#DejaVuSans-69" transform="translate(259.667969 0)"/>
      <use xlink:href="#DejaVuSans-6d" transform="translate(287.451172 0)"/>
      <use xlink:href="#DejaVuSans-65" transform="translate(384.863281 0)"/>
      <use xlink:href="#DejaVuSans-20" transform="translate(446.386719 0)"/>
      <use xlink:href="#DejaVuSans-28" transform="translate(478.173828 0)"/>
      <use xlink:href="#DejaVuSans-6d" transform="translate(517.1875 0)"/>
      <use xlink:href="#DejaVuSans-69" transform="translate(614.599609 0)"/>
      <use xlink:href="#DejaVuSans-6e" transform="translate(642.382812 0)"/>
      <use xlink:href="#DejaVuSans-29" transform="translate(705.761719 0)"/>
     </g>
    </g>
   </g>
   <g id="matplotlib.axis_2">
    <g id="ytick_1">
     <g id="line2d_15">
      <path d="M 53.60625 271.373713 
L 611.60625 271.373713 
" clip-path="url(#pe43cf58fc1)" style="fill: none; stroke: #b0b0b0; stroke-opacity: 0.3; stroke-width: 0.8; stroke-linecap: square"/>
     </g>
     <g id="line2d_16">
      <defs>
       <path id="m6302ea5534" d="M 0 0 
L -3.5 0 
" style="stroke: #000000; stroke-width: 0.8"/>
      </defs>
      <g>
       <use xlink:href="#m6302ea5534" x="53.60625" y="271.373713" style="stroke: #000000; stroke-width: 0.8"/>
      </g>
     </g>
     <g id="text_9">
      <!-- 1200 -->
      <g transform="translate(21.15625 275.172931) scale(0.1 -0.1)">
       <use xlink:href="#DejaVuSans-31"/>
       <use xlink:href="#DejaVuSans-32" transform="translate(63.623047 0)"/>
       <use xlink:href="#DejaVuSans-30" transform="translate(127.246094 0)"/>
       <use xlink:href="#DejaVuSans-30" transform="translate(190.869141 0)"/>
      </g>
     </g>
    </g>
    <g id="ytick_2">
     <g id="line2d_17">
      <path d="M 53.60625 229.758577 
L 611.60625 229.758577 
" clip-path="url(#pe43cf58fc1)" style="fill: none; stroke: #b0b0b0; stroke-opacity: 0.3; stroke-width: 0.8; stroke-linecap: square"/>
     </g>
     <g id="line2d_18">
      <g>
       <use xlink:href="#m6302ea5534" x="53.60625" y="229.758577" style="stroke: #000000; stroke-width: 0.8"/>
      </g>
     </g>
     <g id="text_10">
      <!-- 1400 -->
      <g transform="translate(21.15625 233.557795) scale(0.1 -0.1)">
       <use xlink:href="#DejaVuSans-31"/>
       <use xlink:href="#DejaVuSans-34" transform="translate(63.623047 0)"/>
       <use xlink:href="#DejaVuSans-30" transform="translate(127.246094 0)"/>
       <use xlink:href="#DejaVuSans-30" transform="translate(190.869141 0)"/>
      </g>
     </g>
    </g>
    <g id="ytick_3">
     <g id="line2d_19">
      <path d="M 53.60625 188.143441 
L 611.60625 188.143441 
" clip-path="url(#pe43cf58fc1)" style="fill: none; stroke: #b0b0b0; stroke-opacity: 0.3; stroke-width: 0.8; stroke-linecap: square"/>
     </g>
     <g id="line2d_20">
      <g>
       <use xlink:href="#m6302ea5534" x="53.60625" y="188.143441" style="stroke: #000000; stroke-width: 0.8"/>
      </g>
     </g>
     <g id="text_11">
      <!-- 1600 -->
      <g transform="translate(21.15625 191.942659) scale(0.1 -0.1)">
       <use xlink:href="#DejaVuSans-31"/>
       <use xlink:href="#DejaVuSans-36" transform="translate(63.623047 0)"/>
       <use xlink:href="#DejaVuSans-30" transform="translate(127.246094 0)"/>
       <use xlink:href="#DejaVuSans-30" transform="translate(190.869141 0)"/>
      </g>
     </g>
    </g>
    <g id="ytick_4">
     <g id="line2d_21">
      <path d="M 53.60625 146.528305 
L 611.60625 146.528305 
" clip-path="url(#pe43cf58fc1)" style="fill: none; stroke: #b0b0b0; stroke-opacity: 0.3; stroke-width: 0.8; stroke-linecap: square"/>
     </g>
     <g id="line2d_22">
      <g>
       <use xlink:href="#m6302ea5534" x="53.60625" y="146.528305" style="stroke: #000000; stroke-width: 0.8"/>
      </g>
     </g>
     <g id="text_12">
      <!-- 1800 -->
      <g transform="translate(21.15625 150.327524) scale(0.1 -0.1)">
       <use xlink:href="#DejaVuSans-31"/>
       <use xlink:href="#DejaVuSans-38" transform="translate(63.623047 0)"/>
       <use xlink:href="#DejaVuSans-30" transform="translate(127.246094 0)"/>
       <use xlink:href="#DejaVuSans-30" transform="translate(190.869141 0)"/>
      </g>
     </g>
    </g>
    <g id="ytick_5">
     <g id="line2d_23">
      <path d="M 53.60625 104.913169 
L 611.60625 104.913169 
" clip-path="url(#pe43cf58fc1)" style="fill: none; stroke: #b0b0b0; stroke-opacity: 0.3; stroke-width: 0.8; stroke-linecap: square"/>
     </g>
     <g id="line2d_24">
      <g>
       <use xlink:href="#m6302ea5534" x="53.60625" y="104.913169" style="stroke: #000000; stroke-width: 0.8"/>
      </g>
     </g>
     <g id="text_13">
      <!-- 2000 -->
      <g transform="translate(21.15625 108.712388) scale(0.1 -0.1)">
       <use xlink:href="#DejaVuSans-32"/>
       <use xlink:href="#DejaVuSans-30" transform="translate(63.623047 0)"/>
       <use xlink:href="#DejaVuSans-30" transform="translate(127.246094 0)"/>
       <use xlink:href="#DejaVuSans-30" transform="translate(190.869141 0)"/>
      </g>
     </g>
    </g>
    <g id="ytick_6">
     <g id="line2d_25">
      <path d="M 53.60625 63.298033 
L 611.60625 63.298033 
" clip-path="url(#pe43cf58fc1)" style="fill: none; stroke: #b0b0b0; stroke-opacity: 0.3; stroke-width: 0.8; stroke-linecap: square"/>
     </g>
     <g id="line2d_26">
      <g>
       <use xlink:href="#m6302ea5534" x="53.60625" y="63.298033" style="stroke: #000000; stroke-width: 0.8"/>
      </g>
     </g>
     <g id="text_14">
      <!-- 2200 -->
      <g transform="translate(21.15625 67.097252) scale(0.1 -0.1)">
       <use xlink:href="#DejaVuSans-32"/>
       <use xlink:href="#DejaVuSans-32" transform="translate(63.623047 0)"/>
       <use xlink:href="#DejaVuSans-30" transform="translate(127.246094 0)"/>
       <use xlink:href="#DejaVuSans-30" transform="translate(190.869141 0)"/>
      </g>
     </g>
    </g>
    <g id="text_15">
     <!-- Per-cell cell_mass (fg) -->
     <g transform="translate(14.798437 215.234531) rotate(-90) scale(0.1 -0.1)">
      <defs>
       <path id="DejaVuSans-50" d="M 1259 4147 
L 1259 2394 
L 2053 2394 
Q 2494 2394 2734 2622 
Q 2975 2850 2975 3272 
Q 2975 3691 2734 3919 
Q 2494 4147 2053 4147 
L 1259 4147 
z
M 628 4666 
L 2053 4666 
Q 2838 4666 3239 4311 
Q 3641 3956 3641 3272 
Q 3641 2581 3239 2228 
Q 2838 1875 2053 1875 
L 1259 1875 
L 1259 0 
L 628 0 
L 628 4666 
z
" transform="scale(0.015625)"/>
       <path id="DejaVuSans-72" d="M 2631 2963 
Q 2534 3019 2420 3045 
Q 2306 3072 2169 3072 
Q 1681 3072 1420 2755 
Q 1159 2438 1159 1844 
L 1159 0 
L 581 0 
L 581 3500 
L 1159 3500 
L 1159 2956 
Q 1341 3275 1631 3429 
Q 1922 3584 2338 3584 
Q 2397 3584 2469 3576 
Q 2541 3569 2628 3553 
L 2631 2963 
z
" transform="scale(0.015625)"/>
       <path id="DejaVuSans-2d" d="M 313 2009 
L 1997 2009 
L 1997 1497 
L 313 1497 
L 313 2009 
z
" transform="scale(0.015625)"/>
       <path id="DejaVuSans-63" d="M 3122 3366 
L 3122 2828 
Q 2878 2963 2633 3030 
Q 2388 3097 2138 3097 
Q 1578 3097 1268 2742 
Q 959 2388 959 1747 
Q 959 1106 1268 751 
Q 1578 397 2138 397 
Q 2388 397 2633 464 
Q 2878 531 3122 666 
L 3122 134 
Q 2881 22 2623 -34 
Q 2366 -91 2075 -91 
Q 1284 -91 818 406 
Q 353 903 353 1747 
Q 353 2603 823 3093 
Q 1294 3584 2113 3584 
Q 2378 3584 2631 3529 
Q 2884 3475 3122 3366 
z
" transform="scale(0.015625)"/>
       <path id="DejaVuSans-6c" d="M 603 4863 
L 1178 4863 
L 1178 0 
L 603 0 
L 603 4863 
z
" transform="scale(0.015625)"/>
       <path id="DejaVuSans-5f" d="M 3263 -1063 
L 3263 -1509 
L -63 -1509 
L -63 -1063 
L 3263 -1063 
z
" transform="scale(0.015625)"/>
       <path id="DejaVuSans-61" d="M 2194 1759 
Q 1497 1759 1228 1600 
Q 959 1441 959 1056 
Q 959 750 1161 570 
Q 1363 391 1709 391 
Q 2188 391 2477 730 
Q 2766 1069 2766 1631 
L 2766 1759 
L 2194 1759 
z
M 3341 1997 
L 3341 0 
L 2766 0 
L 2766 531 
Q 2569 213 2275 61 
Q 1981 -91 1556 -91 
Q 1019 -91 701 211 
Q 384 513 384 1019 
Q 384 1609 779 1909 
Q 1175 2209 1959 2209 
L 2766 2209 
L 2766 2266 
Q 2766 2663 2505 2880 
Q 2244 3097 1772 3097 
Q 1472 3097 1187 3025 
Q 903 2953 641 2809 
L 641 3341 
Q 956 3463 1253 3523 
Q 1550 3584 1831 3584 
Q 2591 3584 2966 3190 
Q 3341 2797 3341 1997 
z
" transform="scale(0.015625)"/>
       <path id="DejaVuSans-73" d="M 2834 3397 
L 2834 2853 
Q 2591 2978 2328 3040 
Q 2066 3103 1784 3103 
Q 1356 3103 1142 2972 
Q 928 2841 928 2578 
Q 928 2378 1081 2264 
Q 1234 2150 1697 2047 
L 1894 2003 
Q 2506 1872 2764 1633 
Q 3022 1394 3022 966 
Q 3022 478 2636 193 
Q 2250 -91 1575 -91 
Q 1294 -91 989 -36 
Q 684 19 347 128 
L 347 722 
Q 666 556 975 473 
Q 1284 391 1588 391 
Q 1994 391 2212 530 
Q 2431 669 2431 922 
Q 2431 1156 2273 1281 
Q 2116 1406 1581 1522 
L 1381 1569 
Q 847 1681 609 1914 
Q 372 2147 372 2553 
Q 372 3047 722 3315 
Q 1072 3584 1716 3584 
Q 2034 3584 2315 3537 
Q 2597 3491 2834 3397 
z
" transform="scale(0.015625)"/>
       <path id="DejaVuSans-66" d="M 2375 4863 
L 2375 4384 
L 1825 4384 
Q 1516 4384 1395 4259 
Q 1275 4134 1275 3809 
L 1275 3500 
L 2222 3500 
L 2222 3053 
L 1275 3053 
L 1275 0 
L 697 0 
L 697 3053 
L 147 3053 
L 147 3500 
L 697 3500 
L 697 3744 
Q 697 4328 969 4595 
Q 1241 4863 1831 4863 
L 2375 4863 
z
" transform="scale(0.015625)"/>
       <path id="DejaVuSans-67" d="M 2906 1791 
Q 2906 2416 2648 2759 
Q 2391 3103 1925 3103 
Q 1463 3103 1205 2759 
Q 947 2416 947 1791 
Q 947 1169 1205 825 
Q 1463 481 1925 481 
Q 2391 481 2648 825 
Q 2906 1169 2906 1791 
z
M 3481 434 
Q 3481 -459 3084 -895 
Q 2688 -1331 1869 -1331 
Q 1566 -1331 1297 -1286 
Q 1028 -1241 775 -1147 
L 775 -588 
Q 1028 -725 1275 -790 
Q 1522 -856 1778 -856 
Q 2344 -856 2625 -561 
Q 2906 -266 2906 331 
L 2906 616 
Q 2728 306 2450 153 
Q 2172 0 1784 0 
Q 1141 0 747 490 
Q 353 981 353 1791 
Q 353 2603 747 3093 
Q 1141 3584 1784 3584 
Q 2172 3584 2450 3431 
Q 2728 3278 2906 2969 
L 2906 3500 
L 3481 3500 
L 3481 434 
z
" transform="scale(0.015625)"/>
      </defs>
      <use xlink:href="#DejaVuSans-50"/>
      <use xlink:href="#DejaVuSans-65" transform="translate(56.677734 0)"/>
      <use xlink:href="#DejaVuSans-72" transform="translate(118.201172 0)"/>
      <use xlink:href="#DejaVuSans-2d" transform="translate(152.939453 0)"/>
      <use xlink:href="#DejaVuSans-63" transform="translate(189.023438 0)"/>
      <use xlink:href="#DejaVuSans-65" transform="translate(244.003906 0)"/>
      <use xlink:href="#DejaVuSans-6c" transform="translate(305.527344 0)"/>
      <use xlink:href="#DejaVuSans-6c" transform="translate(333.310547 0)"/>
      <use xlink:href="#DejaVuSans-20" transform="translate(361.09375 0)"/>
      <use xlink:href="#DejaVuSans-63" transform="translate(392.880859 0)"/>
      <use xlink:href="#DejaVuSans-65" transform="translate(447.861328 0)"/>
      <use xlink:href="#DejaVuSans-6c" transform="translate(509.384766 0)"/>
      <use xlink:href="#DejaVuSans-6c" transform="translate(537.167969 0)"/>
      <use xlink:href="#DejaVuSans-5f" transform="translate(564.951172 0)"/>
      <use xlink:href="#DejaVuSans-6d" transform="translate(614.951172 0)"/>
      <use xlink:href="#DejaVuSans-61" transform="translate(712.363281 0)"/>
      <use xlink:href="#DejaVuSans-73" transform="translate(773.642578 0)"/>
      <use xlink:href="#DejaVuSans-73" transform="translate(825.742188 0)"/>
      <use xlink:href="#DejaVuSans-20" transform="translate(877.841797 0)"/>
      <use xlink:href="#DejaVuSans-28" transform="translate(909.628906 0)"/>
      <use xlink:href="#DejaVuSans-66" transform="translate(948.642578 0)"/>
      <use xlink:href="#DejaVuSans-67" transform="translate(983.847656 0)"/>
      <use xlink:href="#DejaVuSans-29" transform="translate(1047.324219 0)"/>
     </g>
    </g>
   </g>
   <g id="line2d_27">
    <path d="M 78.969886 257.913659 
L 80.380937 256.873236 
L 87.436191 251.036262 
L 93.785919 245.336435 
L 102.957748 236.95058 
L 112.129578 228.905344 
L 115.657205 224.747595 
L 129.062186 208.960868 
L 134.000864 203.131296 
L 136.822965 199.700907 
L 154.461099 178.35686 
L 157.988726 174.03322 
L 173.510283 154.358974 
L 178.448961 148.223263 
L 184.798689 139.916217 
L 190.442892 132.387456 
L 201.025772 117.955611 
L 220.074957 90.128027 
L 224.308109 84.430873 
L 226.424685 81.486995 
L 233.479938 71.116254 
L 244.768344 54.297221 
L 249.707021 46.345079 
L 256.762275 34.918125 
L 257.4678 276.477001 
L 258.173325 275.631209 
L 260.289902 273.864776 
L 267.345155 268.22903 
L 277.928035 259.407347 
L 289.216441 249.249995 
L 296.271694 242.658895 
L 349.186096 191.523164 
L 368.23528 171.522768 
L 385.873414 152.157583 
L 390.106566 147.45792 
L 397.16182 139.375379 
L 403.511548 132.318209 
L 416.916529 117.326501 
L 425.382834 107.217133 
L 430.321511 101.287434 
L 433.849138 96.709207 
L 443.020967 85.232304 
L 459.24805 63.798295 
L 465.597779 54.494663 
L 466.303304 286.918125 
L 467.008829 286.222997 
L 469.125405 284.744575 
L 478.297235 278.520688 
L 482.530387 275.547433 
L 491.702217 268.895011 
L 498.051945 263.924718 
L 502.990622 259.723907 
L 531.211636 234.60341 
L 535.444788 230.518158 
L 538.972415 227.284762 
L 542.500042 223.963495 
L 560.843701 206.419714 
L 572.132107 194.603923 
L 582.009462 183.988494 
L 586.242614 179.295826 
L 586.242614 179.295826 
" clip-path="url(#pe43cf58fc1)" style="fill: none; stroke: #1f77b4; stroke-opacity: 0.7; stroke-width: 3; stroke-linecap: square"/>
   </g>
   <g id="line2d_28">
    <path d="M 78.969886 257.913659 
L 80.380937 256.873236 
L 87.436191 251.036262 
L 93.785919 245.336435 
L 102.957748 236.95058 
L 112.129578 228.905344 
L 115.657205 224.747595 
L 129.062186 208.960868 
L 134.000864 203.131296 
L 136.822965 199.700907 
L 154.461099 178.35686 
L 157.988726 174.03322 
L 173.510283 154.358974 
L 178.448961 148.223263 
L 184.798689 139.916217 
L 190.442892 132.387456 
L 201.025772 117.955611 
L 220.074957 90.128027 
L 224.308109 84.430873 
L 226.424685 81.486995 
L 233.479938 71.116254 
L 244.768344 54.297221 
L 249.707021 46.345079 
L 256.762275 34.918125 
L 257.4678 276.477001 
L 258.173325 275.631209 
L 260.289902 273.864776 
L 267.345155 268.22903 
L 277.928035 259.407347 
L 289.216441 249.249995 
L 296.271694 242.658895 
L 349.186096 191.523164 
L 368.23528 171.522768 
L 385.873414 152.157583 
L 390.106566 147.45792 
L 397.16182 139.375379 
L 403.511548 132.318209 
L 416.916529 117.326501 
L 425.382834 107.217133 
L 430.321511 101.287434 
L 433.849138 96.709207 
L 443.020967 85.232304 
L 459.24805 63.798295 
L 465.597779 54.494663 
L 466.303304 286.918125 
L 467.008829 286.222997 
L 469.125405 284.744575 
L 478.297235 278.520688 
L 482.530387 275.547433 
L 491.702217 268.895011 
L 498.051945 263.924718 
L 502.990622 259.723907 
L 531.211636 234.60341 
L 535.444788 230.518158 
L 538.972415 227.284762 
L 542.500042 223.963495 
L 560.843701 206.419714 
L 572.132107 194.603923 
L 582.009462 183.988494 
L 586.242614 179.295826 
L 586.242614 179.295826 
" clip-path="url(#pe43cf58fc1)" style="fill: none; stroke-dasharray: 5.55,2.4; stroke-dashoffset: 0; stroke: #ff7f0e; stroke-width: 1.5"/>
   </g>
   <g id="line2d_29">
    <path d="M 257.044485 299.518125 
L 257.044485 22.318125 
" clip-path="url(#pe43cf58fc1)" style="fill: none; stroke-dasharray: 1,1.65; stroke-dashoffset: 0; stroke: #808080; stroke-opacity: 0.5"/>
   </g>
   <g id="line2d_30">
    <path d="M 287.24097 299.518125 
L 287.24097 22.318125 
" clip-path="url(#pe43cf58fc1)" style="fill: none; stroke-dasharray: 1,1.65; stroke-dashoffset: 0; stroke: #808080; stroke-opacity: 0.5"/>
   </g>
   <g id="patch_3">
    <path d="M 53.60625 299.518125 
L 53.60625 22.318125 
" style="fill: none; stroke: #000000; stroke-width: 0.8; stroke-linejoin: miter; stroke-linecap: square"/>
   </g>
   <g id="patch_4">
    <path d="M 611.60625 299.518125 
L 611.60625 22.318125 
" style="fill: none; stroke: #000000; stroke-width: 0.8; stroke-linejoin: miter; stroke-linecap: square"/>
   </g>
   <g id="patch_5">
    <path d="M 53.60625 299.518125 
L 611.60625 299.518125 
" style="fill: none; stroke: #000000; stroke-width: 0.8; stroke-linejoin: miter; stroke-linecap: square"/>
   </g>
   <g id="patch_6">
    <path d="M 53.60625 22.318125 
L 611.60625 22.318125 
" style="fill: none; stroke: #000000; stroke-width: 0.8; stroke-linejoin: miter; stroke-linecap: square"/>
   </g>
   <g id="text_16">
    <!-- Static-mode env-driver does not perturb baseline (parquet) -->
    <g transform="translate(154.284375 16.318125) scale(0.12 -0.12)">
     <defs>
      <path id="DejaVuSans-6f" d="M 1959 3097 
Q 1497 3097 1228 2736 
Q 959 2375 959 1747 
Q 959 1119 1226 758 
Q 1494 397 1959 397 
Q 2419 397 2687 759 
Q 2956 1122 2956 1747 
Q 2956 2369 2687 2733 
Q 2419 3097 1959 3097 
z
M 1959 3584 
Q 2709 3584 3137 3096 
Q 3566 2609 3566 1747 
Q 3566 888 3137 398 
Q 2709 -91 1959 -91 
Q 1206 -91 779 398 
Q 353 888 353 1747 
Q 353 2609 779 3096 
Q 1206 3584 1959 3584 
z
" transform="scale(0.015625)"/>
      <path id="DejaVuSans-64" d="M 2906 2969 
L 2906 4863 
L 3481 4863 
L 3481 0 
L 2906 0 
L 2906 525 
Q 2725 213 2448 61 
Q 2172 -91 1784 -91 
Q 1150 -91 751 415 
Q 353 922 353 1747 
Q 353 2572 751 3078 
Q 1150 3584 1784 3584 
Q 2172 3584 2448 3432 
Q 2725 3281 2906 2969 
z
M 947 1747 
Q 947 1113 1208 752 
Q 1469 391 1925 391 
Q 2381 391 2643 752 
Q 2906 1113 2906 1747 
Q 2906 2381 2643 2742 
Q 2381 3103 1925 3103 
Q 1469 3103 1208 2742 
Q 947 2381 947 1747 
z
" transform="scale(0.015625)"/>
      <path id="DejaVuSans-76" d="M 191 3500 
L 800 3500 
L 1894 563 
L 2988 3500 
L 3597 3500 
L 2284 0 
L 1503 0 
L 191 3500 
z
" transform="scale(0.015625)"/>
      <path id="DejaVuSans-70" d="M 1159 525 
L 1159 -1331 
L 581 -1331 
L 581 3500 
L 1159 3500 
L 1159 2969 
Q 1341 3281 1617 3432 
Q 1894 3584 2278 3584 
Q 2916 3584 3314 3078 
Q 3713 2572 3713 1747 
Q 3713 922 3314 415 
Q 2916 -91 2278 -91 
Q 1894 -91 1617 61 
Q 1341 213 1159 525 
z
M 3116 1747 
Q 3116 2381 2855 2742 
Q 2594 3103 2138 3103 
Q 1681 3103 1420 2742 
Q 1159 2381 1159 1747 
Q 1159 1113 1420 752 
Q 1681 391 2138 391 
Q 2594 391 2855 752 
Q 3116 1113 3116 1747 
z
" transform="scale(0.015625)"/>
      <path id="DejaVuSans-75" d="M 544 1381 
L 544 3500 
L 1119 3500 
L 1119 1403 
Q 1119 906 1312 657 
Q 1506 409 1894 409 
Q 2359 409 2629 706 
Q 2900 1003 2900 1516 
L 2900 3500 
L 3475 3500 
L 3475 0 
L 2900 0 
L 2900 538 
Q 2691 219 2414 64 
Q 2138 -91 1772 -91 
Q 1169 -91 856 284 
Q 544 659 544 1381 
z
M 1991 3584 
L 1991 3584 
z
" transform="scale(0.015625)"/>
      <path id="DejaVuSans-62" d="M 3116 1747 
Q 3116 2381 2855 2742 
Q 2594 3103 2138 3103 
Q 1681 3103 1420 2742 
Q 1159 2381 1159 1747 
Q 1159 1113 1420 752 
Q 1681 391 2138 391 
Q 2594 391 2855 752 
Q 3116 1113 3116 1747 
z
M 1159 2969 
Q 1341 3281 1617 3432 
Q 1894 3584 2278 3584 
Q 2916 3584 3314 3078 
Q 3713 2572 3713 1747 
Q 3713 922 3314 415 
Q 2916 -91 2278 -91 
Q 1894 -91 1617 61 
Q 1341 213 1159 525 
L 1159 0 
L 581 0 
L 581 4863 
L 1159 4863 
L 1159 2969 
z
" transform="scale(0.015625)"/>
      <path id="DejaVuSans-71" d="M 947 1747 
Q 947 1113 1208 752 
Q 1469 391 1925 391 
Q 2381 391 2643 752 
Q 2906 1113 2906 1747 
Q 2906 2381 2643 2742 
Q 2381 3103 1925 3103 
Q 1469 3103 1208 2742 
Q 947 2381 947 1747 
z
M 2906 525 
Q 2725 213 2448 61 
Q 2172 -91 1784 -91 
Q 1150 -91 751 415 
Q 353 922 353 1747 
Q 353 2572 751 3078 
Q 1150 3584 1784 3584 
Q 2172 3584 2448 3432 
Q 2725 3281 2906 2969 
L 2906 3500 
L 3481 3500 
L 3481 -1331 
L 2906 -1331 
L 2906 525 
z
" transform="scale(0.015625)"/>
     </defs>
     <use xlink:href="#DejaVuSans-53"/>
     <use xlink:href="#DejaVuSans-74" transform="translate(63.476562 0)"/>
     <use xlink:href="#DejaVuSans-61" transform="translate(102.685547 0)"/>
     <use xlink:href="#DejaVuSans-74" transform="translate(163.964844 0)"/>
     <use xlink:href="#DejaVuSans-69" transform="translate(203.173828 0)"/>
     <use xlink:href="#DejaVuSans-63" transform="translate(230.957031 0)"/>
     <use xlink:href="#DejaVuSans-2d" transform="translate(285.9375 0)"/>
     <use xlink:href="#DejaVuSans-6d" transform="translate(322.021484 0)"/>
     <use xlink:href="#DejaVuSans-6f" transform="translate(419.433594 0)"/>
     <use xlink:href="#DejaVuSans-64" transform="translate(480.615234 0)"/>
     <use xlink:href="#DejaVuSans-65" transform="translate(544.091797 0)"/>
     <use xlink:href="#DejaVuSans-20" transform="translate(605.615234 0)"/>
     <use xlink:href="#DejaVuSans-65" transform="translate(637.402344 0)"/>
     <use xlink:href="#DejaVuSans-6e" transform="translate(698.925781 0)"/>
     <use xlink:href="#DejaVuSans-76" transform="translate(762.304688 0)"/>
     <use xlink:href="#DejaVuSans-2d" transform="translate(818.859375 0)"/>
     <use xlink:href="#DejaVuSans-64" transform="translate(854.943359 0)"/>
     <use xlink:href="#DejaVuSans-72" transform="translate(918.419922 0)"/>
     <use xlink:href="#DejaVuSans-69" transform="translate(959.533203 0)"/>
     <use xlink:href="#DejaVuSans-76" transform="translate(987.316406 0)"/>
     <use xlink:href="#DejaVuSans-65" transform="translate(1046.496094 0)"/>
     <use xlink:href="#DejaVuSans-72" transform="translate(1108.019531 0)"/>
     <use xlink:href="#DejaVuSans-20" transform="translate(1149.132812 0)"/>
     <use xlink:href="#DejaVuSans-64" transform="translate(1180.919922 0)"/>
     <use xlink:href="#DejaVuSans-6f" transform="translate(1244.396484 0)"/>
     <use xlink:href="#DejaVuSans-65" transform="translate(1305.578125 0)"/>
     <use xlink:href="#DejaVuSans-73" transform="translate(1367.101562 0)"/>
     <use xlink:href="#DejaVuSans-20" transform="translate(1419.201172 0)"/>
     <use xlink:href="#DejaVuSans-6e" transform="translate(1450.988281 0)"/>
     <use xlink:href="#DejaVuSans-6f" transform="translate(1514.367188 0)"/>
     <use xlink:href="#DejaVuSans-74" transform="translate(1575.548828 0)"/>
     <use xlink:href="#DejaVuSans-20" transform="translate(1614.757812 0)"/>
     <use xlink:href="#DejaVuSans-70" transform="translate(1646.544922 0)"/>
     <use xlink:href="#DejaVuSans-65" transform="translate(1710.021484 0)"/>
     <use xlink:href="#DejaVuSans-72" transform="translate(1771.544922 0)"/>
     <use xlink:href="#DejaVuSans-74" transform="translate(1812.658203 0)"/>
     <use xlink:href="#DejaVuSans-75" transform="translate(1851.867188 0)"/>
     <use xlink:href="#DejaVuSans-72" transform="translate(1915.246094 0)"/>
     <use xlink:href="#DejaVuSans-62" transform="translate(1956.359375 0)"/>
     <use xlink:href="#DejaVuSans-20" transform="translate(2019.835938 0)"/>
     <use xlink:href="#DejaVuSans-62" transform="translate(2051.623047 0)"/>
     <use xlink:href="#DejaVuSans-61" transform="translate(2115.099609 0)"/>
     <use xlink:href="#DejaVuSans-73" transform="translate(2176.378906 0)"/>
     <use xlink:href="#DejaVuSans-65" transform="translate(2228.478516 0)"/>
     <use xlink:href="#DejaVuSans-6c" transform="translate(2290.001953 0)"/>
     <use xlink:href="#DejaVuSans-69" transform="translate(2317.785156 0)"/>
     <use xlink:href="#DejaVuSans-6e" transform="translate(2345.568359 0)"/>
     <use xlink:href="#DejaVuSans-65" transform="translate(2408.947266 0)"/>
     <use xlink:href="#DejaVuSans-20" transform="translate(2470.470703 0)"/>
     <use xlink:href="#DejaVuSans-28" transform="translate(2502.257812 0)"/>
     <use xlink:href="#DejaVuSans-70" transform="translate(2541.271484 0)"/>
     <use xlink:href="#DejaVuSans-61" transform="translate(2604.748047 0)"/>
     <use xlink:href="#DejaVuSans-72" transform="translate(2666.027344 0)"/>
     <use xlink:href="#DejaVuSans-71" transform="translate(2705.390625 0)"/>
     <use xlink:href="#DejaVuSans-75" transform="translate(2768.867188 0)"/>
     <use xlink:href="#DejaVuSans-65" transform="translate(2832.246094 0)"/>
     <use xlink:href="#DejaVuSans-74" transform="translate(2893.769531 0)"/>
     <use xlink:href="#DejaVuSans-29" transform="translate(2932.978516 0)"/>
    </g>
   </g>
   <g id="legend_1">
    <g id="patch_7">
     <path d="M 304.171875 59.9525 
L 604.60625 59.9525 
Q 606.60625 59.9525 606.60625 57.9525 
L 606.60625 29.318125 
Q 606.60625 27.318125 604.60625 27.318125 
L 304.171875 27.318125 
Q 302.171875 27.318125 302.171875 29.318125 
L 302.171875 57.9525 
Q 302.171875 59.9525 304.171875 59.9525 
z
" style="fill: #ffffff; opacity: 0.8; stroke: #cccccc; stroke-linejoin: miter"/>
    </g>
    <g id="line2d_31">
     <path d="M 306.171875 35.416563 
L 316.171875 35.416563 
L 326.171875 35.416563 
" style="fill: none; stroke: #1f77b4; stroke-opacity: 0.7; stroke-width: 3; stroke-linecap: square"/>
    </g>
    <g id="text_17">
     <!-- baseline (reference) -->
     <g transform="translate(334.171875 38.916563) scale(0.1 -0.1)">
      <use xlink:href="#DejaVuSans-62"/>
      <use xlink:href="#DejaVuSans-61" transform="translate(63.476562 0)"/>
      <use xlink:href="#DejaVuSans-73" transform="translate(124.755859 0)"/>
      <use xlink:href="#DejaVuSans-65" transform="translate(176.855469 0)"/>
      <use xlink:href="#DejaVuSans-6c" transform="translate(238.378906 0)"/>
      <use xlink:href="#DejaVuSans-69" transform="translate(266.162109 0)"/>
      <use xlink:href="#DejaVuSans-6e" transform="translate(293.945312 0)"/>
      <use xlink:href="#DejaVuSans-65" transform="translate(357.324219 0)"/>
      <use xlink:href="#DejaVuSans-20" transform="translate(418.847656 0)"/>
      <use xlink:href="#DejaVuSans-28" transform="translate(450.634766 0)"/>
      <use xlink:href="#DejaVuSans-72" transform="translate(489.648438 0)"/>
      <use xlink:href="#DejaVuSans-65" transform="translate(528.511719 0)"/>
      <use xlink:href="#DejaVuSans-66" transform="translate(590.035156 0)"/>
      <use xlink:href="#DejaVuSans-65" transform="translate(625.240234 0)"/>
      <use xlink:href="#DejaVuSans-72" transform="translate(686.763672 0)"/>
      <use xlink:href="#DejaVuSans-65" transform="translate(725.626953 0)"/>
      <use xlink:href="#DejaVuSans-6e" transform="translate(787.150391 0)"/>
      <use xlink:href="#DejaVuSans-63" transform="translate(850.529297 0)"/>
      <use xlink:href="#DejaVuSans-65" transform="translate(905.509766 0)"/>
      <use xlink:href="#DejaVuSans-29" transform="translate(967.033203 0)"/>
     </g>
    </g>
    <g id="line2d_32">
     <path d="M 306.171875 50.094688 
L 316.171875 50.094688 
L 326.171875 50.094688 
" style="fill: none; stroke-dasharray: 5.55,2.4; stroke-dashoffset: 0; stroke: #ff7f0e; stroke-width: 1.5"/>
    </g>
    <g id="text_18">
     <!-- baseline_time_varying_env (env_driver_mode=static) -->
     <g transform="translate(334.171875 53.594688) scale(0.1 -0.1)">
      <defs>
       <path id="DejaVuSans-79" d="M 2059 -325 
Q 1816 -950 1584 -1140 
Q 1353 -1331 966 -1331 
L 506 -1331 
L 506 -850 
L 844 -850 
Q 1081 -850 1212 -737 
Q 1344 -625 1503 -206 
L 1606 56 
L 191 3500 
L 800 3500 
L 1894 763 
L 2988 3500 
L 3597 3500 
L 2059 -325 
z
" transform="scale(0.015625)"/>
       <path id="DejaVuSans-3d" d="M 678 2906 
L 4684 2906 
L 4684 2381 
L 678 2381 
L 678 2906 
z
M 678 1631 
L 4684 1631 
L 4684 1100 
L 678 1100 
L 678 1631 
z
" transform="scale(0.015625)"/>
      </defs>
      <use xlink:href="#DejaVuSans-62"/>
      <use xlink:href="#DejaVuSans-61" transform="translate(63.476562 0)"/>
      <use xlink:href="#DejaVuSans-73" transform="translate(124.755859 0)"/>
      <use xlink:href="#DejaVuSans-65" transform="translate(176.855469 0)"/>
      <use xlink:href="#DejaVuSans-6c" transform="translate(238.378906 0)"/>
      <use xlink:href="#DejaVuSans-69" transform="translate(266.162109 0)"/>
      <use xlink:href="#DejaVuSans-6e" transform="translate(293.945312 0)"/>
      <use xlink:href="#DejaVuSans-65" transform="translate(357.324219 0)"/>
      <use xlink:href="#DejaVuSans-5f" transform="translate(418.847656 0)"/>
      <use xlink:href="#DejaVuSans-74" transform="translate(468.847656 0)"/>
      <use xlink:href="#DejaVuSans-69" transform="translate(508.056641 0)"/>
      <use xlink:href="#DejaVuSans-6d" transform="translate(535.839844 0)"/>
      <use xlink:href="#DejaVuSans-65" transform="translate(633.251953 0)"/>
      <use xlink:href="#DejaVuSans-5f" transform="translate(694.775391 0)"/>
      <use xlink:href="#DejaVuSans-76" transform="translate(744.775391 0)"/>
      <use xlink:href="#DejaVuSans-61" transform="translate(803.955078 0)"/>
      <use xlink:href="#DejaVuSans-72" transform="translate(865.234375 0)"/>
      <use xlink:href="#DejaVuSans-79" transform="translate(906.347656 0)"/>
      <use xlink:href="#DejaVuSans-69" transform="translate(965.527344 0)"/>
      <use xlink:href="#DejaVuSans-6e" transform="translate(993.310547 0)"/>
      <use xlink:href="#DejaVuSans-67" transform="translate(1056.689453 0)"/>
      <use xlink:href="#DejaVuSans-5f" transform="translate(1120.166016 0)"/>
      <use xlink:href="#DejaVuSans-65" transform="translate(1170.166016 0)"/>
      <use xlink:href="#DejaVuSans-6e" transform="translate(1231.689453 0)"/>
      <use xlink:href="#DejaVuSans-76" transform="translate(1295.068359 0)"/>
      <use xlink:href="#DejaVuSans-20" transform="translate(1354.248047 0)"/>
      <use xlink:href="#DejaVuSans-28" transform="translate(1386.035156 0)"/>
      <use xlink:href="#DejaVuSans-65" transform="translate(1425.048828 0)"/>
      <use xlink:href="#DejaVuSans-6e" transform="translate(1486.572266 0)"/>
      <use xlink:href="#DejaVuSans-76" transform="translate(1549.951172 0)"/>
      <use xlink:href="#DejaVuSans-5f" transform="translate(1609.130859 0)"/>
      <use xlink:href="#DejaVuSans-64" transform="translate(1659.130859 0)"/>
      <use xlink:href="#DejaVuSans-72" transform="translate(1722.607422 0)"/>
      <use xlink:href="#DejaVuSans-69" transform="translate(1763.720703 0)"/>
      <use xlink:href="#DejaVuSans-76" transform="translate(1791.503906 0)"/>
      <use xlink:href="#DejaVuSans-65" transform="translate(1850.683594 0)"/>
      <use xlink:href="#DejaVuSans-72" transform="translate(1912.207031 0)"/>
      <use xlink:href="#DejaVuSans-5f" transform="translate(1953.320312 0)"/>
      <use xlink:href="#DejaVuSans-6d" transform="translate(2003.320312 0)"/>
      <use xlink:href="#DejaVuSans-6f" transform="translate(2100.732422 0)"/>
      <use xlink:href="#DejaVuSans-64" transform="translate(2161.914062 0)"/>
      <use xlink:href="#DejaVuSans-65" transform="translate(2225.390625 0)"/>
      <use xlink:href="#DejaVuSans-3d" transform="translate(2286.914062 0)"/>
      <use xlink:href="#DejaVuSans-73" transform="translate(2370.703125 0)"/>
      <use xlink:href="#DejaVuSans-74" transform="translate(2422.802734 0)"/>
      <use xlink:href="#DejaVuSans-61" transform="translate(2462.011719 0)"/>
      <use xlink:href="#DejaVuSans-74" transform="translate(2523.291016 0)"/>
      <use xlink:href="#DejaVuSans-69" transform="translate(2562.5 0)"/>
      <use xlink:href="#DejaVuSans-63" transform="translate(2590.283203 0)"/>
      <use xlink:href="#DejaVuSans-29" transform="translate(2645.263672 0)"/>
     </g>
    </g>
   </g>
  </g>
 </g>
 <defs>
  <clipPath id="pe43cf58fc1">
   <rect x="53.60625" y="22.318125" width="558" height="277.2"/>
  </clipPath>
 </defs>
</svg>
