<svg xmlns="http://www.w3.org/2000/svg" width="760" height="420" viewBox="0 0 760 420" font-family="-apple-system,sans-serif" font-size="13">
<rect width="760" height="420" fill="white"/>
<rect x="0" y="0" width="760" height="42" fill="#0f172a"/>
<text x="380.0" y="27" text-anchor="middle" fill="white" font-weight="600" font-size="15">dnaa-06 — SeqA sequestration: scoreboard</text>
<rect x="30" y="60" width="700" height="44" fill="#f8fafc" rx="3"/>
<text x="42" y="80" fill="#0f172a" font-weight="600">SeqA protein (EG12197) in proteome</text>
<text x="42" y="96" fill="#64748b" font-size="11">"negative modulator of initiation of replication"</text>
<text x="570" y="86" text-anchor="end" fill="#0f172a" font-weight="600" font-size="14" font-family="ui-monospace,monospace">PRESENT (181 aa)</text>
<rect x="620" y="70" width="100" height="24" rx="12" fill="#16a34a"/>
<text x="670" y="86" text-anchor="middle" fill="white" font-weight="700" font-size="11">✓ PASS</text>
<rect x="30" y="110" width="700" height="44" fill="#f8fafc" rx="3"/>
<text x="42" y="130" fill="#0f172a" font-weight="600">Dam methyltransferase (EG10204) in proteome</text>
<text x="42" y="146" fill="#64748b" font-size="11">GATC adenine methylation</text>
<text x="570" y="136" text-anchor="end" fill="#0f172a" font-weight="600" font-size="14" font-family="ui-monospace,monospace">PRESENT (278 aa)</text>
<rect x="620" y="120" width="100" height="24" rx="12" fill="#16a34a"/>
<text x="670" y="136" text-anchor="middle" fill="white" font-weight="700" font-size="11">✓ PASS</text>
<rect x="30" y="160" width="700" height="44" fill="#f8fafc" rx="3"/>
<text x="42" y="180" fill="#0f172a" font-weight="600">HspQ (G6500) in proteome</text>
<text x="42" y="196" fill="#64748b" font-size="11">Hemimethylated DNA-binding helper</text>
<text x="570" y="186" text-anchor="end" fill="#0f172a" font-weight="600" font-size="14" font-family="ui-monospace,monospace">PRESENT (104 aa)</text>
<rect x="620" y="170" width="100" height="24" rx="12" fill="#16a34a"/>
<text x="670" y="186" text-anchor="middle" fill="white" font-weight="700" font-size="11">✓ PASS</text>
<rect x="30" y="210" width="700" height="44" fill="#f8fafc" rx="3"/>
<text x="42" y="230" fill="#0f172a" font-weight="600">DamX (EG11183) in proteome</text>
<text x="42" y="246" fill="#64748b" font-size="11">Cell-division-coupled Dam regulator</text>
<text x="570" y="236" text-anchor="end" fill="#0f172a" font-weight="600" font-size="14" font-family="ui-monospace,monospace">PRESENT (428 aa)</text>
<rect x="620" y="220" width="100" height="24" rx="12" fill="#16a34a"/>
<text x="670" y="236" text-anchor="middle" fill="white" font-weight="700" font-size="11">✓ PASS</text>
<rect x="30" y="260" width="700" height="44" fill="#f8fafc" rx="3"/>
<text x="42" y="280" fill="#0f172a" font-weight="600">SeqASequestration Process exists</text>
<text x="42" y="296" fill="#64748b" font-size="11">Toggles oriC sequestered-until timestamp</text>
<text x="570" y="286" text-anchor="end" fill="#0f172a" font-weight="600" font-size="14" font-family="ui-monospace,monospace">NOT IMPLEMENTED</text>
<rect x="620" y="270" width="100" height="24" rx="12" fill="#dc2626"/>
<text x="670" y="286" text-anchor="middle" fill="white" font-weight="700" font-size="11">✗ FAIL</text>
<rect x="30" y="310" width="700" height="44" fill="#f8fafc" rx="3"/>
<text x="42" y="330" fill="#0f172a" font-weight="600">oriC has sequestered_until attribute</text>
<text x="42" y="346" fill="#64748b" font-size="11">Current oriC unique store: 12 attributes</text>
<text x="570" y="336" text-anchor="end" fill="#0f172a" font-weight="600" font-size="14" font-family="ui-monospace,monospace">MISSING (need +1)</text>
<rect x="620" y="320" width="100" height="24" rx="12" fill="#dc2626"/>
<text x="670" y="336" text-anchor="middle" fill="white" font-weight="700" font-size="11">✗ FAIL</text>
<rect x="30" y="360" width="700" height="44" fill="#f8fafc" rx="3"/>
<text x="42" y="380" fill="#0f172a" font-weight="600">Estimated implementation effort</text>
<text x="42" y="396" fill="#64748b" font-size="11">Simplest of the dnaA upstream chain</text>
<text x="570" y="386" text-anchor="end" fill="#0f172a" font-weight="600" font-size="14" font-family="ui-monospace,monospace">~1 day after dnaa-04</text>
<rect x="620" y="370" width="100" height="24" rx="12" fill="#3b82f6"/>
<text x="670" y="386" text-anchor="middle" fill="white" font-weight="700" font-size="11">◆ INFO</text>
</svg>