<svg xmlns="http://www.w3.org/2000/svg" width="760" height="420" viewBox="0 0 760 420" font-family="-apple-system,sans-serif" font-size="13">
<rect width="760" height="420" fill="white"/>
<rect x="0" y="0" width="760" height="42" fill="#0f172a"/>
<text x="380.0" y="27" text-anchor="middle" fill="white" font-weight="600" font-size="15">dnaa-05 — Extrinsic conversion (RIDA / DDAH / DARS): scoreboard</text>
<rect x="30" y="60" width="700" height="44" fill="#f8fafc" rx="3"/>
<text x="42" y="80" fill="#0f172a" font-weight="600">Existing infrastructure in v2ecoli</text>
<text x="42" y="96" fill="#64748b" font-size="11">grep across codebase</text>
<text x="570" y="86" text-anchor="end" fill="#0f172a" font-weight="600" font-size="14" font-family="ui-monospace,monospace">0 hits</text>
<rect x="620" y="70" width="100" height="24" rx="12" fill="#dc2626"/>
<text x="670" y="86" text-anchor="middle" fill="white" font-weight="700" font-size="11">✗ FAIL</text>
<rect x="30" y="110" width="700" height="44" fill="#f8fafc" rx="3"/>
<text x="42" y="130" fill="#0f172a" font-weight="600">Quantitative target (from dnaa-02 F-04)</text>
<text x="42" y="146" fill="#64748b" font-size="11">Combined extrinsic flux for [0.20, 0.50] ATP frac</text>
<text x="570" y="136" text-anchor="end" fill="#0f172a" font-weight="600" font-size="14" font-family="ui-monospace,monospace">~4.6 / min</text>
<rect x="620" y="120" width="100" height="24" rx="12" fill="#3b82f6"/>
<text x="670" y="136" text-anchor="middle" fill="white" font-weight="700" font-size="11">◆ INFO</text>
<rect x="30" y="160" width="700" height="44" fill="#f8fafc" rx="3"/>
<text x="42" y="180" fill="#0f172a" font-weight="600">Intrinsic baseline (Boesen)</text>
<text x="42" y="196" fill="#64748b" font-size="11">For comparison</text>
<text x="570" y="186" text-anchor="end" fill="#0f172a" font-weight="600" font-size="14" font-family="ui-monospace,monospace">0.046 / min</text>
<rect x="620" y="170" width="100" height="24" rx="12" fill="#3b82f6"/>
<text x="670" y="186" text-anchor="middle" fill="white" font-weight="700" font-size="11">◆ INFO</text>
<rect x="30" y="210" width="700" height="44" fill="#f8fafc" rx="3"/>
<text x="42" y="230" fill="#0f172a" font-weight="600">Implied extrinsic boost</text>
<text x="42" y="246" fill="#64748b" font-size="11">RIDA + DDAH + DARS together</text>
<text x="570" y="236" text-anchor="end" fill="#0f172a" font-weight="600" font-size="14" font-family="ui-monospace,monospace">~100×</text>
<rect x="620" y="220" width="100" height="24" rx="12" fill="#3b82f6"/>
<text x="670" y="236" text-anchor="middle" fill="white" font-weight="700" font-size="11">◆ INFO</text>
<rect x="30" y="260" width="700" height="44" fill="#f8fafc" rx="3"/>
<text x="42" y="280" fill="#0f172a" font-weight="600">Operating window (probe-validated)</text>
<text x="42" y="296" fill="#64748b" font-size="11">Above 50/min → DnaA-ATP collapses to 0</text>
<text x="570" y="286" text-anchor="end" fill="#0f172a" font-weight="600" font-size="14" font-family="ui-monospace,monospace">[1, 50] / min</text>
<rect x="620" y="270" width="100" height="24" rx="12" fill="#3b82f6"/>
<text x="670" y="286" text-anchor="middle" fill="white" font-weight="700" font-size="11">◆ INFO</text>
<rect x="30" y="310" width="700" height="44" fill="#f8fafc" rx="3"/>
<text x="42" y="330" fill="#0f172a" font-weight="600">Recommended: audit MONOMER0-160_RXN reverse rate</text>
<text x="42" y="346" fill="#64748b" font-size="11">May be miscalibrated — would reduce extrinsic burden</text>
<text x="570" y="336" text-anchor="end" fill="#0f172a" font-weight="600" font-size="14" font-family="ui-monospace,monospace">dnaa-05g spawn</text>
<rect x="620" y="320" width="100" height="24" rx="12" fill="#f59e0b"/>
<text x="670" y="336" text-anchor="middle" fill="white" font-weight="700" font-size="11">⚠ PARTIAL</text>
</svg>