<svg xmlns="http://www.w3.org/2000/svg" width="760" height="420" viewBox="0 0 760 420" font-family="-apple-system,sans-serif" font-size="13">
<rect width="760" height="420" fill="white"/>
<rect x="0" y="0" width="760" height="42" fill="#0f172a"/>
<text x="380.0" y="27" text-anchor="middle" fill="white" font-weight="600" font-size="15">dnaa-03 — DnaA-box binding: scoreboard</text>
<rect x="30" y="60" width="700" height="44" fill="#f8fafc" rx="3"/>
<text x="42" y="80" fill="#0f172a" font-weight="600">DNAA_BOX_ARRAY type exists</text>
<text x="42" y="96" fill="#64748b" font-size="11">coordinates, domain_index, DnaA_bound attrs</text>
<text x="570" y="86" text-anchor="end" fill="#0f172a" font-weight="600" font-size="14" font-family="ui-monospace,monospace">ALREADY DEFINED</text>
<rect x="620" y="70" width="100" height="24" rx="12" fill="#16a34a"/>
<text x="670" y="86" text-anchor="middle" fill="white" font-weight="700" font-size="11">✓ PASS</text>
<rect x="30" y="110" width="700" height="44" fill="#f8fafc" rx="3"/>
<text x="42" y="130" fill="#0f172a" font-weight="600">Boxes in runtime initial state</text>
<text x="42" y="146" fill="#64748b" font-size="11">Spec said 322 (307 chrom + 11 oriC + 4 dnaAp)</text>
<text x="570" y="136" text-anchor="end" fill="#0f172a" font-weight="600" font-size="14" font-family="ui-monospace,monospace">456 active</text>
<rect x="620" y="120" width="100" height="24" rx="12" fill="#f59e0b"/>
<text x="670" y="136" text-anchor="middle" fill="white" font-weight="700" font-size="11">⚠ PARTIAL</text>
<rect x="30" y="160" width="700" height="44" fill="#f8fafc" rx="3"/>
<text x="42" y="180" fill="#0f172a" font-weight="600">oriCs in runtime initial state</text>
<text x="42" y="196" fill="#64748b" font-size="11">Mid-cell-cycle init — one per daughter</text>
<text x="570" y="186" text-anchor="end" fill="#0f172a" font-weight="600" font-size="14" font-family="ui-monospace,monospace">2 active</text>
<rect x="620" y="170" width="100" height="24" rx="12" fill="#3b82f6"/>
<text x="670" y="186" text-anchor="middle" fill="white" font-weight="700" font-size="11">◆ INFO</text>
<rect x="30" y="210" width="700" height="44" fill="#f8fafc" rx="3"/>
<text x="42" y="230" fill="#0f172a" font-weight="600">DnaA_bound modified at runtime</text>
<text x="42" y="246" fill="#64748b" font-size="11">No process touches it during sim</text>
<text x="570" y="236" text-anchor="end" fill="#0f172a" font-weight="600" font-size="14" font-family="ui-monospace,monospace">0 / 491 throughout</text>
<rect x="620" y="220" width="100" height="24" rx="12" fill="#dc2626"/>
<text x="670" y="236" text-anchor="middle" fill="white" font-weight="700" font-size="11">✗ FAIL</text>
<rect x="30" y="260" width="700" height="44" fill="#f8fafc" rx="3"/>
<text x="42" y="280" fill="#0f172a" font-weight="600">Simple Hill model (n=2) reproduces 2-step?</text>
<text x="42" y="296" fill="#64748b" font-size="11">oriC fills FIRST, not last</text>
<text x="570" y="286" text-anchor="end" fill="#0f172a" font-weight="600" font-size="14" font-family="ui-monospace,monospace">NO</text>
<rect x="620" y="270" width="100" height="24" rx="12" fill="#dc2626"/>
<text x="670" y="286" text-anchor="middle" fill="white" font-weight="700" font-size="11">✗ FAIL</text>
<rect x="30" y="310" width="700" height="44" fill="#f8fafc" rx="3"/>
<text x="42" y="330" fill="#0f172a" font-weight="600">Required: cooperative Hill (n=5-10) at oriC</text>
<text x="42" y="346" fill="#64748b" font-size="11">DnaA-ATP filament model — Hansen 2018</text>
<text x="570" y="336" text-anchor="end" fill="#0f172a" font-weight="600" font-size="14" font-family="ui-monospace,monospace">NEXT STEP</text>
<rect x="620" y="320" width="100" height="24" rx="12" fill="#3b82f6"/>
<text x="670" y="336" text-anchor="middle" fill="white" font-weight="700" font-size="11">◆ INFO</text>
</svg>