<svg xmlns="http://www.w3.org/2000/svg" width="900" height="460" viewBox="0 0 900 460" font-family="-apple-system,sans-serif" font-size="13">
<rect width="900" height="460" fill="white"/>
<text x="450.0" y="22" text-anchor="middle" font-weight="600" font-size="15">DnaA-box occupancy by affinity class — Hill binding probe (dnaa-03)</text>
<text x="450.0" y="40" text-anchor="middle" fill="#64748b" font-size="11">Calibrated baseline (TE=20×, fc=0.7); Hill model n=2; Kd high/med/low = 5/50/300 DnaA-ATP</text>
<line x1="70" y1="400" x2="830" y2="400" stroke="#e5e7eb"/>
<text x="62" y="404" text-anchor="end" fill="#64748b">0.00</text>
<line x1="70" y1="315.0" x2="830" y2="315.0" stroke="#e5e7eb"/>
<text x="62" y="319.0" text-anchor="end" fill="#64748b">0.25</text>
<line x1="70" y1="230.0" x2="830" y2="230.0" stroke="#e5e7eb"/>
<text x="62" y="234.0" text-anchor="end" fill="#64748b">0.50</text>
<line x1="70" y1="145.0" x2="830" y2="145.0" stroke="#e5e7eb"/>
<text x="62" y="149.0" text-anchor="end" fill="#64748b">0.75</text>
<line x1="70" y1="60.0" x2="830" y2="60.0" stroke="#e5e7eb"/>
<text x="62" y="64.0" text-anchor="end" fill="#64748b">1.00</text>
<text x="20" y="230.0" text-anchor="middle" transform="rotate(-90 20 230.0)" fill="#334155">fraction of boxes bound</text>
<text x="885" y="230.0" text-anchor="middle" transform="rotate(90 885 230.0)" fill="#94a3b8">DnaA-ATP count (gray)</text>
<text x="70.0" y="418" text-anchor="middle" fill="#64748b">0s</text>
<text x="222.0" y="418" text-anchor="middle" fill="#64748b">120s</text>
<text x="374.0" y="418" text-anchor="middle" fill="#64748b">240s</text>
<text x="526.0" y="418" text-anchor="middle" fill="#64748b">360s</text>
<text x="678.0" y="418" text-anchor="middle" fill="#64748b">480s</text>
<text x="830.0" y="418" text-anchor="middle" fill="#64748b">600s</text>
<path d="M 82.7,355.7 L 95.3,355.7 L 108.0,351.6 L 120.7,345.1 L 133.3,341.8 L 146.0,338.2 L 158.7,331.7 L 171.3,327.6 L 184.0,322.7 L 196.7,312.6 L 209.3,302.0 L 222.0,290.2 L 234.7,276.8 L 247.3,269.0 L 260.0,261.3 L 272.7,254.8 L 285.3,245.9 L 298.0,241.8 L 310.7,238.1 L 323.3,231.6 L 336.0,224.7 L 348.7,216.6 L 361.3,210.9 L 374.0,202.3 L 386.7,195.4 L 399.3,186.9 L 412.0,181.6 L 424.7,175.5 L 437.3,169.8 L 450.0,162.1 L 462.7,161.3 L 475.3,161.3 L 488.0,161.3 L 500.7,161.3 L 513.3,161.3 L 526.0,161.3 L 538.7,161.3 L 551.3,160.0 L 564.0,153.1 L 576.7,143.8 L 589.3,134.0 L 602.0,129.5 L 614.7,124.7 L 627.3,120.2 L 640.0,113.3 L 652.7,107.6 L 665.3,98.6 L 678.0,94.6 L 690.7,87.2 L 703.3,81.6 L 716.0,74.2 L 728.7,70.2 L 741.3,64.5 L 754.0,60.8 L 766.7,60.0 L 779.3,60.8 L 792.0,61.2 L 804.7,61.2 L 817.3,60.8 L 830.0,61.2" fill="none" stroke="#cbd5e1" stroke-width="1.5"/>
<text x="838" y="322.66028708133973" text-anchor="start" fill="#94a3b8" font-size="11">200</text>
<text x="838" y="241.32057416267943" text-anchor="start" fill="#94a3b8" font-size="11">400</text>
<text x="838" y="159.98086124401914" text-anchor="start" fill="#94a3b8" font-size="11">600</text>
<text x="838" y="78.64114832535887" text-anchor="start" fill="#94a3b8" font-size="11">800</text>
<path d="M 82.7,60.0 L 95.3,60.0 L 108.0,60.0 L 120.7,60.0 L 133.3,60.0 L 146.0,90.9 L 158.7,60.0 L 171.3,60.0 L 184.0,60.0 L 196.7,60.0 L 209.3,60.0 L 222.0,60.0 L 234.7,60.0 L 247.3,60.0 L 260.0,60.0 L 272.7,60.0 L 285.3,60.0 L 298.0,60.0 L 310.7,60.0 L 323.3,60.0 L 336.0,60.0 L 348.7,60.0 L 361.3,60.0 L 374.0,60.0 L 386.7,60.0 L 399.3,60.0 L 412.0,60.0 L 424.7,60.0 L 437.3,60.0 L 450.0,60.0 L 462.7,60.0 L 475.3,60.0 L 488.0,60.0 L 500.7,60.0 L 513.3,60.0 L 526.0,60.0 L 538.7,60.0 L 551.3,60.0 L 564.0,60.0 L 576.7,60.0 L 589.3,60.0 L 602.0,60.0 L 614.7,60.0 L 627.3,60.0 L 640.0,60.0 L 652.7,60.0 L 665.3,60.0 L 678.0,60.0 L 690.7,60.0 L 703.3,60.0 L 716.0,60.0 L 728.7,60.0 L 741.3,60.0 L 754.0,60.0 L 766.7,60.0 L 779.3,60.0 L 792.0,60.0 L 804.7,60.0 L 817.3,60.0 L 830.0,60.0" fill="none" stroke="#dc2626" stroke-width="2.2"/>
<path d="M 82.7,107.6 L 95.3,107.6 L 108.0,175.6 L 120.7,87.2 L 133.3,80.4 L 146.0,73.6 L 158.7,80.4 L 171.3,94.0 L 184.0,73.6 L 196.7,66.8 L 209.3,66.8 L 222.0,66.8 L 234.7,60.0 L 247.3,73.6 L 260.0,66.8 L 272.7,66.8 L 285.3,60.0 L 298.0,60.0 L 310.7,60.0 L 323.3,60.0 L 336.0,66.8 L 348.7,60.0 L 361.3,60.0 L 374.0,60.0 L 386.7,66.8 L 399.3,60.0 L 412.0,60.0 L 424.7,66.8 L 437.3,60.0 L 450.0,60.0 L 462.7,60.0 L 475.3,60.0 L 488.0,66.8 L 500.7,66.8 L 513.3,60.0 L 526.0,60.0 L 538.7,60.0 L 551.3,60.0 L 564.0,66.8 L 576.7,60.0 L 589.3,60.0 L 602.0,66.8 L 614.7,60.0 L 627.3,60.0 L 640.0,60.0 L 652.7,60.0 L 665.3,60.0 L 678.0,60.0 L 690.7,60.0 L 703.3,60.0 L 716.0,73.6 L 728.7,60.0 L 741.3,60.0 L 754.0,60.0 L 766.7,60.0 L 779.3,60.0 L 792.0,60.0 L 804.7,60.0 L 817.3,60.0 L 830.0,60.0" fill="none" stroke="#f59e0b" stroke-width="2.2"/>
<path d="M 82.7,357.0 L 95.3,363.8 L 108.0,357.0 L 120.7,342.3 L 133.3,350.1 L 146.0,329.4 L 158.7,326.0 L 171.3,299.3 L 184.0,298.4 L 196.7,274.3 L 209.3,265.7 L 222.0,253.7 L 234.7,223.5 L 247.3,220.1 L 260.0,204.6 L 272.7,211.5 L 285.3,190.0 L 298.0,179.6 L 310.7,188.3 L 323.3,181.4 L 336.0,172.8 L 348.7,167.6 L 361.3,149.5 L 374.0,153.0 L 386.7,146.1 L 399.3,145.2 L 412.0,134.0 L 424.7,143.5 L 437.3,130.6 L 450.0,125.4 L 462.7,130.6 L 475.3,133.2 L 488.0,131.4 L 500.7,123.7 L 513.3,138.3 L 526.0,132.3 L 538.7,130.6 L 551.3,132.3 L 564.0,130.6 L 576.7,125.4 L 589.3,121.1 L 602.0,120.3 L 614.7,117.7 L 627.3,115.9 L 640.0,113.4 L 652.7,128.0 L 665.3,114.2 L 678.0,105.6 L 690.7,104.8 L 703.3,104.8 L 716.0,96.2 L 728.7,101.3 L 741.3,95.3 L 754.0,105.6 L 766.7,89.3 L 779.3,99.6 L 792.0,102.2 L 804.7,96.2 L 817.3,94.4 L 830.0,97.9" fill="none" stroke="#3b82f6" stroke-width="2.2"/>
<line x1="70" y1="332.0" x2="830" y2="332.0" stroke="#16a34a" stroke-dasharray="3,3"/>
<text x="75" y="327.0" fill="#16a34a" font-size="11">oriC pass band ≤ 0.20 until chromosomal saturates</text>
<rect x="70" y="41" width="14" height="14" fill="#dc2626"/>
<text x="92" y="53" fill="#334155">high (oriC-like, Kd=5)</text>
<rect x="70" y="59" width="14" height="14" fill="#f59e0b"/>
<text x="92" y="71" fill="#334155">med  (intermediate, Kd=50)</text>
<rect x="70" y="77" width="14" height="14" fill="#3b82f6"/>
<text x="92" y="89" fill="#334155">low  (chromosomal, Kd=300)</text>
<text x="820" y="90" text-anchor="end" fill="#475569" font-size="12">final: high=1.00  med=1.00  low=0.89</text>
</svg>