<svg xmlns="http://www.w3.org/2000/svg" width="720" height="720" viewBox="0 0 720 720" font-family="-apple-system,sans-serif" font-size="13">
<rect width="720" height="720" fill="white"/>
<text x="360.0" y="22" text-anchor="middle" font-weight="600" font-size="15" fill="#0f172a">DnaA-box positions around the 4.6 Mb E. coli chromosome (n=456)</text>
<text x="360.0" y="40" text-anchor="middle" fill="#64748b" font-size="11">Circular layout; ring outside = chromosomal positions, color by domain. oriC at top (12 o'clock).</text>
<circle cx="360" cy="380" r="265" fill="none" stroke="#cbd5e1" stroke-width="2"/>
<text x="360" y="98" text-anchor="middle" fill="#dc2626" font-weight="700" font-size="13">oriC ▲</text>
<text x="360" y="678" text-anchor="middle" fill="#64748b" font-size="13">ter ▼</text>
<line x1="355.8" y1="630.0" x2="355.3" y2="660.0" stroke="#2563eb" stroke-width="1.2" opacity="0.7"/>
<line x1="353.6" y1="629.9" x2="352.9" y2="659.9" stroke="#2563eb" stroke-width="1.2" opacity="0.7"/>
<line x1="350.4" y1="629.8" x2="349.2" y2="659.8" stroke="#2563eb" stroke-width="1.2" opacity="0.7"/>
<line x1="348.9" y1="629.8" x2="347.5" y2="659.7" stroke="#2563eb" stroke-width="1.2" opacity="0.7"/>
<line x1="339.9" y1="629.2" x2="337.5" y2="659.1" stroke="#2563eb" stroke-width="1.2" opacity="0.7"/>
<line x1="336.3" y1="628.9" x2="333.5" y2="658.7" stroke="#2563eb" stroke-width="1.2" opacity="0.7"/>
<line x1="329.2" y1="628.1" x2="325.5" y2="657.9" stroke="#2563eb" stroke-width="1.2" opacity="0.7"/>
<line x1="324.3" y1="627.4" x2="320.0" y2="657.1" stroke="#2563eb" stroke-width="1.2" opacity="0.7"/>
<line x1="324.1" y1="627.4" x2="319.8" y2="657.1" stroke="#2563eb" stroke-width="1.2" opacity="0.7"/>
<line x1="315.4" y1="626.0" x2="310.0" y2="655.5" stroke="#2563eb" stroke-width="1.2" opacity="0.7"/>
<line x1="314.1" y1="625.7" x2="308.6" y2="655.2" stroke="#2563eb" stroke-width="1.2" opacity="0.7"/>
<line x1="313.9" y1="625.7" x2="308.4" y2="655.2" stroke="#2563eb" stroke-width="1.2" opacity="0.7"/>
<line x1="304.3" y1="623.7" x2="297.6" y2="653.0" stroke="#2563eb" stroke-width="1.2" opacity="0.7"/>
<line x1="300.0" y1="622.7" x2="292.8" y2="651.8" stroke="#2563eb" stroke-width="1.2" opacity="0.7"/>
<line x1="282.2" y1="617.6" x2="272.8" y2="646.1" stroke="#2563eb" stroke-width="1.2" opacity="0.7"/>
<line x1="281.5" y1="617.4" x2="272.1" y2="645.8" stroke="#2563eb" stroke-width="1.2" opacity="0.7"/>
<line x1="280.0" y1="616.9" x2="270.4" y2="645.3" stroke="#2563eb" stroke-width="1.2" opacity="0.7"/>
<line x1="279.0" y1="616.5" x2="269.3" y2="644.9" stroke="#2563eb" stroke-width="1.2" opacity="0.7"/>
<line x1="273.6" y1="614.6" x2="263.2" y2="642.7" stroke="#2563eb" stroke-width="1.2" opacity="0.7"/>
<line x1="260.4" y1="609.3" x2="248.5" y2="636.8" stroke="#2563eb" stroke-width="1.2" opacity="0.7"/>
<line x1="254.8" y1="606.8" x2="242.2" y2="634.0" stroke="#2563eb" stroke-width="1.2" opacity="0.7"/>
<line x1="251.8" y1="605.4" x2="238.8" y2="632.4" stroke="#2563eb" stroke-width="1.2" opacity="0.7"/>
<line x1="247.9" y1="603.5" x2="234.5" y2="630.3" stroke="#2563eb" stroke-width="1.2" opacity="0.7"/>
<line x1="246.0" y1="602.5" x2="232.4" y2="629.2" stroke="#2563eb" stroke-width="1.2" opacity="0.7"/>
<line x1="236.6" y1="597.4" x2="221.7" y2="623.5" stroke="#2563eb" stroke-width="1.2" opacity="0.7"/>
<line x1="229.5" y1="593.2" x2="213.8" y2="618.8" stroke="#2563eb" stroke-width="1.2" opacity="0.7"/>
<line x1="223.0" y1="589.1" x2="206.6" y2="614.2" stroke="#2563eb" stroke-width="1.2" opacity="0.7"/>
<line x1="216.1" y1="584.4" x2="198.8" y2="608.9" stroke="#2563eb" stroke-width="1.2" opacity="0.7"/>
<line x1="198.6" y1="570.9" x2="179.2" y2="593.8" stroke="#2563eb" stroke-width="1.2" opacity="0.7"/>
<line x1="198.5" y1="570.8" x2="179.1" y2="593.7" stroke="#2563eb" stroke-width="1.2" opacity="0.7"/>
<line x1="195.0" y1="567.8" x2="175.2" y2="590.4" stroke="#2563eb" stroke-width="1.2" opacity="0.7"/>
<line x1="187.3" y1="560.8" x2="166.6" y2="582.5" stroke="#2563eb" stroke-width="1.2" opacity="0.7"/>
<line x1="186.5" y1="560.0" x2="165.6" y2="581.6" stroke="#2563eb" stroke-width="1.2" opacity="0.7"/>
<line x1="185.8" y1="559.3" x2="164.8" y2="580.8" stroke="#2563eb" stroke-width="1.2" opacity="0.7"/>
<line x1="182.0" y1="555.6" x2="160.7" y2="576.6" stroke="#2563eb" stroke-width="1.2" opacity="0.7"/>
<line x1="179.2" y1="552.7" x2="157.5" y2="573.4" stroke="#2563eb" stroke-width="1.2" opacity="0.7"/>
<line x1="177.8" y1="551.2" x2="155.9" y2="571.7" stroke="#2563eb" stroke-width="1.2" opacity="0.7"/>
<line x1="177.0" y1="550.3" x2="155.0" y2="570.8" stroke="#2563eb" stroke-width="1.2" opacity="0.7"/>
<line x1="168.2" y1="540.4" x2="145.2" y2="559.6" stroke="#2563eb" stroke-width="1.2" opacity="0.7"/>
<line x1="160.8" y1="531.0" x2="136.9" y2="549.2" stroke="#2563eb" stroke-width="1.2" opacity="0.7"/>
<line x1="158.7" y1="528.3" x2="134.6" y2="546.1" stroke="#2563eb" stroke-width="1.2" opacity="0.7"/>
<line x1="157.2" y1="526.2" x2="132.9" y2="543.7" stroke="#2563eb" stroke-width="1.2" opacity="0.7"/>
<line x1="154.5" y1="522.4" x2="129.8" y2="539.4" stroke="#2563eb" stroke-width="1.2" opacity="0.7"/>
<line x1="152.6" y1="519.5" x2="127.7" y2="536.3" stroke="#2563eb" stroke-width="1.2" opacity="0.7"/>
<line x1="151.9" y1="518.6" x2="127.0" y2="535.2" stroke="#2563eb" stroke-width="1.2" opacity="0.7"/>
<line x1="150.4" y1="516.3" x2="125.3" y2="532.6" stroke="#2563eb" stroke-width="1.2" opacity="0.7"/>
<line x1="149.5" y1="514.8" x2="124.2" y2="531.0" stroke="#2563eb" stroke-width="1.2" opacity="0.7"/>
<line x1="145.9" y1="509.1" x2="120.2" y2="524.6" stroke="#2563eb" stroke-width="1.2" opacity="0.7"/>
<line x1="145.8" y1="509.0" x2="120.1" y2="524.4" stroke="#2563eb" stroke-width="1.2" opacity="0.7"/>
<line x1="143.1" y1="504.3" x2="117.1" y2="519.3" stroke="#2563eb" stroke-width="1.2" opacity="0.7"/>
<line x1="140.8" y1="500.3" x2="114.5" y2="514.7" stroke="#2563eb" stroke-width="1.2" opacity="0.7"/>
<line x1="133.8" y1="486.5" x2="106.7" y2="499.3" stroke="#2563eb" stroke-width="1.2" opacity="0.7"/>
<line x1="130.0" y1="478.0" x2="102.4" y2="489.8" stroke="#2563eb" stroke-width="1.2" opacity="0.7"/>
<line x1="129.9" y1="477.7" x2="102.3" y2="489.4" stroke="#2563eb" stroke-width="1.2" opacity="0.7"/>
<line x1="119.7" y1="449.1" x2="90.9" y2="457.3" stroke="#2563eb" stroke-width="1.2" opacity="0.7"/>
<line x1="119.3" y1="447.4" x2="90.4" y2="455.5" stroke="#2563eb" stroke-width="1.2" opacity="0.7"/>
<line x1="118.5" y1="444.8" x2="89.6" y2="452.6" stroke="#2563eb" stroke-width="1.2" opacity="0.7"/>
<line x1="118.2" y1="443.5" x2="89.2" y2="451.1" stroke="#2563eb" stroke-width="1.2" opacity="0.7"/>
<line x1="117.9" y1="442.4" x2="88.9" y2="449.9" stroke="#2563eb" stroke-width="1.2" opacity="0.7"/>
<line x1="117.2" y1="439.7" x2="88.1" y2="446.8" stroke="#2563eb" stroke-width="1.2" opacity="0.7"/>
<line x1="114.5" y1="427.4" x2="85.1" y2="433.1" stroke="#2563eb" stroke-width="1.2" opacity="0.7"/>
<line x1="114.2" y1="425.7" x2="84.7" y2="431.1" stroke="#2563eb" stroke-width="1.2" opacity="0.7"/>
<line x1="114.0" y1="424.3" x2="84.4" y2="429.6" stroke="#2563eb" stroke-width="1.2" opacity="0.7"/>
<line x1="114.0" y1="424.3" x2="84.4" y2="429.6" stroke="#2563eb" stroke-width="1.2" opacity="0.7"/>
<line x1="112.7" y1="416.6" x2="83.0" y2="421.0" stroke="#2563eb" stroke-width="1.2" opacity="0.7"/>
<line x1="112.6" y1="415.9" x2="82.9" y2="420.2" stroke="#2563eb" stroke-width="1.2" opacity="0.7"/>
<line x1="110.3" y1="391.5" x2="80.3" y2="392.9" stroke="#2563eb" stroke-width="1.2" opacity="0.7"/>
<line x1="110.1" y1="388.5" x2="80.2" y2="389.5" stroke="#2563eb" stroke-width="1.2" opacity="0.7"/>
<line x1="110.1" y1="386.5" x2="80.1" y2="387.3" stroke="#2563eb" stroke-width="1.2" opacity="0.7"/>
<line x1="110.0" y1="380.2" x2="80.0" y2="380.2" stroke="#2563eb" stroke-width="1.2" opacity="0.7"/>
<line x1="110.0" y1="379.7" x2="80.0" y2="379.7" stroke="#2563eb" stroke-width="1.2" opacity="0.7"/>
<line x1="110.1" y1="371.4" x2="80.2" y2="370.3" stroke="#2563eb" stroke-width="1.2" opacity="0.7"/>
<line x1="112.0" y1="348.3" x2="82.3" y2="344.5" stroke="#2563eb" stroke-width="1.2" opacity="0.7"/>
<line x1="112.1" y1="347.8" x2="82.3" y2="344.0" stroke="#2563eb" stroke-width="1.2" opacity="0.7"/>
<line x1="112.2" y1="347.0" x2="82.4" y2="343.1" stroke="#2563eb" stroke-width="1.2" opacity="0.7"/>
<line x1="112.6" y1="344.0" x2="82.9" y2="339.6" stroke="#2563eb" stroke-width="1.2" opacity="0.7"/>
<line x1="113.3" y1="339.7" x2="83.7" y2="334.9" stroke="#2563eb" stroke-width="1.2" opacity="0.7"/>
<line x1="606.7" y1="339.7" x2="636.3" y2="334.9" stroke="#2563eb" stroke-width="1.2" opacity="0.7"/>
<line x1="607.3" y1="343.2" x2="637.0" y2="338.8" stroke="#2563eb" stroke-width="1.2" opacity="0.7"/>
<line x1="607.3" y1="343.6" x2="637.0" y2="339.2" stroke="#2563eb" stroke-width="1.2" opacity="0.7"/>
<line x1="607.4" y1="344.3" x2="637.1" y2="340.0" stroke="#2563eb" stroke-width="1.2" opacity="0.7"/>
<line x1="607.7" y1="346.2" x2="637.4" y2="342.2" stroke="#2563eb" stroke-width="1.2" opacity="0.7"/>
<line x1="607.7" y1="346.3" x2="637.4" y2="342.3" stroke="#2563eb" stroke-width="1.2" opacity="0.7"/>
<line x1="608.3" y1="350.6" x2="638.1" y2="347.1" stroke="#2563eb" stroke-width="1.2" opacity="0.7"/>
<line x1="608.3" y1="350.7" x2="638.1" y2="347.2" stroke="#2563eb" stroke-width="1.2" opacity="0.7"/>
<line x1="608.8" y1="355.9" x2="638.7" y2="353.0" stroke="#2563eb" stroke-width="1.2" opacity="0.7"/>
<line x1="610.0" y1="383.5" x2="640.0" y2="383.9" stroke="#2563eb" stroke-width="1.2" opacity="0.7"/>
<line x1="609.7" y1="391.5" x2="639.7" y2="392.9" stroke="#2563eb" stroke-width="1.2" opacity="0.7"/>
<line x1="609.3" y1="399.3" x2="639.2" y2="401.6" stroke="#2563eb" stroke-width="1.2" opacity="0.7"/>
<line x1="608.6" y1="406.5" x2="638.4" y2="409.7" stroke="#2563eb" stroke-width="1.2" opacity="0.7"/>
<line x1="608.4" y1="408.1" x2="638.2" y2="411.4" stroke="#2563eb" stroke-width="1.2" opacity="0.7"/>
<line x1="607.4" y1="416.2" x2="637.1" y2="420.5" stroke="#2563eb" stroke-width="1.2" opacity="0.7"/>
<line x1="605.6" y1="426.7" x2="635.1" y2="432.4" stroke="#2563eb" stroke-width="1.2" opacity="0.7"/>
<line x1="605.0" y1="429.8" x2="634.4" y2="435.8" stroke="#2563eb" stroke-width="1.2" opacity="0.7"/>
<line x1="604.1" y1="433.9" x2="633.4" y2="440.4" stroke="#2563eb" stroke-width="1.2" opacity="0.7"/>
<line x1="601.6" y1="444.3" x2="630.6" y2="452.0" stroke="#2563eb" stroke-width="1.2" opacity="0.7"/>
<line x1="598.2" y1="456.0" x2="626.8" y2="465.1" stroke="#2563eb" stroke-width="1.2" opacity="0.7"/>
<line x1="597.6" y1="457.8" x2="626.1" y2="467.2" stroke="#2563eb" stroke-width="1.2" opacity="0.7"/>
<line x1="597.5" y1="458.0" x2="626.0" y2="467.4" stroke="#2563eb" stroke-width="1.2" opacity="0.7"/>
<line x1="592.9" y1="470.9" x2="620.9" y2="481.8" stroke="#2563eb" stroke-width="1.2" opacity="0.7"/>
<line x1="590.8" y1="476.1" x2="618.5" y2="487.7" stroke="#2563eb" stroke-width="1.2" opacity="0.7"/>
<line x1="589.4" y1="479.5" x2="616.9" y2="491.4" stroke="#2563eb" stroke-width="1.2" opacity="0.7"/>
<line x1="588.2" y1="482.0" x2="615.6" y2="494.3" stroke="#2563eb" stroke-width="1.2" opacity="0.7"/>
<line x1="588.1" y1="482.3" x2="615.5" y2="494.6" stroke="#2563eb" stroke-width="1.2" opacity="0.7"/>
<line x1="587.3" y1="484.1" x2="614.6" y2="496.6" stroke="#2563eb" stroke-width="1.2" opacity="0.7"/>
<line x1="584.1" y1="490.8" x2="611.0" y2="504.1" stroke="#2563eb" stroke-width="1.2" opacity="0.7"/>
<line x1="579.5" y1="499.6" x2="605.9" y2="514.0" stroke="#2563eb" stroke-width="1.2" opacity="0.7"/>
<line x1="577.7" y1="502.9" x2="603.8" y2="517.7" stroke="#2563eb" stroke-width="1.2" opacity="0.7"/>
<line x1="576.8" y1="504.5" x2="602.8" y2="519.4" stroke="#2563eb" stroke-width="1.2" opacity="0.7"/>
<line x1="566.3" y1="521.2" x2="591.0" y2="538.2" stroke="#2563eb" stroke-width="1.2" opacity="0.7"/>
<line x1="564.3" y1="524.1" x2="588.8" y2="541.4" stroke="#2563eb" stroke-width="1.2" opacity="0.7"/>
<line x1="560.8" y1="528.9" x2="584.9" y2="546.8" stroke="#2563eb" stroke-width="1.2" opacity="0.7"/>
<line x1="560.0" y1="530.0" x2="584.0" y2="548.0" stroke="#2563eb" stroke-width="1.2" opacity="0.7"/>
<line x1="554.9" y1="536.5" x2="578.3" y2="555.3" stroke="#2563eb" stroke-width="1.2" opacity="0.7"/>
<line x1="551.3" y1="540.9" x2="574.3" y2="560.2" stroke="#2563eb" stroke-width="1.2" opacity="0.7"/>
<line x1="546.2" y1="546.8" x2="568.6" y2="566.8" stroke="#2563eb" stroke-width="1.2" opacity="0.7"/>
<line x1="543.2" y1="550.1" x2="565.2" y2="570.5" stroke="#2563eb" stroke-width="1.2" opacity="0.7"/>
<line x1="542.7" y1="550.6" x2="564.6" y2="571.1" stroke="#2563eb" stroke-width="1.2" opacity="0.7"/>
<line x1="537.6" y1="555.9" x2="558.9" y2="577.0" stroke="#2563eb" stroke-width="1.2" opacity="0.7"/>
<line x1="535.1" y1="558.5" x2="556.1" y2="579.9" stroke="#2563eb" stroke-width="1.2" opacity="0.7"/>
<line x1="530.4" y1="562.9" x2="550.9" y2="584.8" stroke="#2563eb" stroke-width="1.2" opacity="0.7"/>
<line x1="524.7" y1="568.1" x2="544.4" y2="590.7" stroke="#2563eb" stroke-width="1.2" opacity="0.7"/>
<line x1="524.5" y1="568.2" x2="544.3" y2="590.8" stroke="#2563eb" stroke-width="1.2" opacity="0.7"/>
<line x1="523.3" y1="569.3" x2="542.9" y2="592.0" stroke="#2563eb" stroke-width="1.2" opacity="0.7"/>
<line x1="519.6" y1="572.4" x2="538.8" y2="595.5" stroke="#2563eb" stroke-width="1.2" opacity="0.7"/>
<line x1="511.1" y1="579.1" x2="529.3" y2="603.0" stroke="#2563eb" stroke-width="1.2" opacity="0.7"/>
<line x1="510.5" y1="579.6" x2="528.6" y2="603.5" stroke="#2563eb" stroke-width="1.2" opacity="0.7"/>
<line x1="504.3" y1="584.1" x2="521.6" y2="608.6" stroke="#2563eb" stroke-width="1.2" opacity="0.7"/>
<line x1="499.2" y1="587.7" x2="515.9" y2="612.6" stroke="#2563eb" stroke-width="1.2" opacity="0.7"/>
<line x1="498.4" y1="588.2" x2="515.0" y2="613.2" stroke="#2563eb" stroke-width="1.2" opacity="0.7"/>
<line x1="486.0" y1="595.9" x2="501.1" y2="621.9" stroke="#2563eb" stroke-width="1.2" opacity="0.7"/>
<line x1="484.2" y1="597.0" x2="499.1" y2="623.0" stroke="#2563eb" stroke-width="1.2" opacity="0.7"/>
<line x1="479.7" y1="599.5" x2="494.0" y2="625.8" stroke="#2563eb" stroke-width="1.2" opacity="0.7"/>
<line x1="476.4" y1="601.2" x2="490.4" y2="627.8" stroke="#2563eb" stroke-width="1.2" opacity="0.7"/>
<line x1="468.5" y1="605.2" x2="481.5" y2="632.3" stroke="#2563eb" stroke-width="1.2" opacity="0.7"/>
<line x1="460.8" y1="608.8" x2="472.9" y2="636.2" stroke="#2563eb" stroke-width="1.2" opacity="0.7"/>
<line x1="449.9" y1="613.3" x2="460.7" y2="641.3" stroke="#2563eb" stroke-width="1.2" opacity="0.7"/>
<line x1="438.1" y1="617.5" x2="447.4" y2="646.0" stroke="#2563eb" stroke-width="1.2" opacity="0.7"/>
<line x1="430.3" y1="619.9" x2="438.7" y2="648.7" stroke="#2563eb" stroke-width="1.2" opacity="0.7"/>
<line x1="430.2" y1="620.0" x2="438.6" y2="648.7" stroke="#2563eb" stroke-width="1.2" opacity="0.7"/>
<line x1="427.0" y1="620.9" x2="435.0" y2="649.8" stroke="#2563eb" stroke-width="1.2" opacity="0.7"/>
<line x1="420.5" y1="622.6" x2="427.8" y2="651.7" stroke="#2563eb" stroke-width="1.2" opacity="0.7"/>
<line x1="418.0" y1="623.2" x2="424.9" y2="652.4" stroke="#2563eb" stroke-width="1.2" opacity="0.7"/>
<line x1="417.4" y1="623.3" x2="424.3" y2="652.5" stroke="#2563eb" stroke-width="1.2" opacity="0.7"/>
<line x1="403.9" y1="626.1" x2="409.1" y2="655.7" stroke="#2563eb" stroke-width="1.2" opacity="0.7"/>
<line x1="402.7" y1="626.3" x2="407.9" y2="655.9" stroke="#2563eb" stroke-width="1.2" opacity="0.7"/>
<line x1="401.1" y1="626.6" x2="406.1" y2="656.2" stroke="#2563eb" stroke-width="1.2" opacity="0.7"/>
<line x1="400.0" y1="626.8" x2="404.8" y2="656.4" stroke="#2563eb" stroke-width="1.2" opacity="0.7"/>
<line x1="396.2" y1="627.4" x2="400.6" y2="657.0" stroke="#2563eb" stroke-width="1.2" opacity="0.7"/>
<line x1="394.2" y1="627.6" x2="398.3" y2="657.4" stroke="#2563eb" stroke-width="1.2" opacity="0.7"/>
<line x1="394.1" y1="627.7" x2="398.1" y2="657.4" stroke="#2563eb" stroke-width="1.2" opacity="0.7"/>
<line x1="387.8" y1="628.4" x2="391.2" y2="658.3" stroke="#2563eb" stroke-width="1.2" opacity="0.7"/>
<line x1="386.4" y1="628.6" x2="389.6" y2="658.4" stroke="#2563eb" stroke-width="1.2" opacity="0.7"/>
<line x1="386.1" y1="628.6" x2="389.3" y2="658.5" stroke="#2563eb" stroke-width="1.2" opacity="0.7"/>
<line x1="382.6" y1="629.0" x2="385.3" y2="658.9" stroke="#2563eb" stroke-width="1.2" opacity="0.7"/>
<line x1="380.4" y1="629.2" x2="382.9" y2="659.1" stroke="#2563eb" stroke-width="1.2" opacity="0.7"/>
<line x1="368.9" y1="629.8" x2="370.0" y2="659.8" stroke="#2563eb" stroke-width="1.2" opacity="0.7"/>
<line x1="365.7" y1="629.9" x2="366.4" y2="659.9" stroke="#2563eb" stroke-width="1.2" opacity="0.7"/>
<line x1="115.5" y1="328.0" x2="86.1" y2="321.8" stroke="#16a34a" stroke-width="1.2" opacity="0.7"/>
<line x1="115.6" y1="327.4" x2="86.3" y2="321.1" stroke="#16a34a" stroke-width="1.2" opacity="0.7"/>
<line x1="116.3" y1="324.4" x2="87.0" y2="317.7" stroke="#16a34a" stroke-width="1.2" opacity="0.7"/>
<line x1="117.5" y1="319.1" x2="88.4" y2="311.8" stroke="#16a34a" stroke-width="1.2" opacity="0.7"/>
<line x1="118.3" y1="316.0" x2="89.3" y2="308.3" stroke="#16a34a" stroke-width="1.2" opacity="0.7"/>
<line x1="119.5" y1="311.9" x2="90.6" y2="303.7" stroke="#16a34a" stroke-width="1.2" opacity="0.7"/>
<line x1="119.5" y1="311.8" x2="90.6" y2="303.7" stroke="#16a34a" stroke-width="1.2" opacity="0.7"/>
<line x1="119.5" y1="311.8" x2="90.6" y2="303.7" stroke="#16a34a" stroke-width="1.2" opacity="0.7"/>
<line x1="119.5" y1="311.8" x2="90.6" y2="303.6" stroke="#16a34a" stroke-width="1.2" opacity="0.7"/>
<line x1="120.8" y1="307.3" x2="92.1" y2="298.6" stroke="#16a34a" stroke-width="1.2" opacity="0.7"/>
<line x1="121.9" y1="303.7" x2="93.4" y2="294.5" stroke="#16a34a" stroke-width="1.2" opacity="0.7"/>
<line x1="122.0" y1="303.4" x2="93.5" y2="294.2" stroke="#16a34a" stroke-width="1.2" opacity="0.7"/>
<line x1="123.1" y1="300.3" x2="94.6" y2="290.7" stroke="#16a34a" stroke-width="1.2" opacity="0.7"/>
<line x1="123.3" y1="299.5" x2="94.9" y2="289.8" stroke="#16a34a" stroke-width="1.2" opacity="0.7"/>
<line x1="123.7" y1="298.4" x2="95.3" y2="288.6" stroke="#16a34a" stroke-width="1.2" opacity="0.7"/>
<line x1="124.2" y1="297.0" x2="95.9" y2="287.1" stroke="#16a34a" stroke-width="1.2" opacity="0.7"/>
<line x1="124.7" y1="295.4" x2="96.5" y2="285.3" stroke="#16a34a" stroke-width="1.2" opacity="0.7"/>
<line x1="126.3" y1="291.3" x2="98.2" y2="280.7" stroke="#16a34a" stroke-width="1.2" opacity="0.7"/>
<line x1="127.7" y1="287.6" x2="99.8" y2="276.6" stroke="#16a34a" stroke-width="1.2" opacity="0.7"/>
<line x1="132.4" y1="276.5" x2="105.1" y2="264.0" stroke="#16a34a" stroke-width="1.2" opacity="0.7"/>
<line x1="132.6" y1="276.0" x2="105.4" y2="263.5" stroke="#16a34a" stroke-width="1.2" opacity="0.7"/>
<line x1="136.0" y1="268.9" x2="109.2" y2="255.6" stroke="#16a34a" stroke-width="1.2" opacity="0.7"/>
<line x1="140.4" y1="260.5" x2="114.1" y2="246.2" stroke="#16a34a" stroke-width="1.2" opacity="0.7"/>
<line x1="141.0" y1="259.4" x2="114.7" y2="245.0" stroke="#16a34a" stroke-width="1.2" opacity="0.7"/>
<line x1="143.1" y1="255.7" x2="117.1" y2="240.8" stroke="#16a34a" stroke-width="1.2" opacity="0.7"/>
<line x1="148.6" y1="246.5" x2="123.3" y2="230.5" stroke="#16a34a" stroke-width="1.2" opacity="0.7"/>
<line x1="152.9" y1="240.0" x2="128.0" y2="223.2" stroke="#16a34a" stroke-width="1.2" opacity="0.7"/>
<line x1="159.5" y1="230.7" x2="135.5" y2="212.7" stroke="#16a34a" stroke-width="1.2" opacity="0.7"/>
<line x1="165.7" y1="222.7" x2="142.4" y2="203.8" stroke="#16a34a" stroke-width="1.2" opacity="0.7"/>
<line x1="167.7" y1="220.3" x2="144.6" y2="201.1" stroke="#16a34a" stroke-width="1.2" opacity="0.7"/>
<line x1="172.8" y1="214.3" x2="150.4" y2="194.4" stroke="#16a34a" stroke-width="1.2" opacity="0.7"/>
<line x1="179.1" y1="207.5" x2="157.4" y2="186.8" stroke="#16a34a" stroke-width="1.2" opacity="0.7"/>
<line x1="179.3" y1="207.2" x2="157.7" y2="186.5" stroke="#16a34a" stroke-width="1.2" opacity="0.7"/>
<line x1="180.4" y1="206.0" x2="158.9" y2="185.2" stroke="#16a34a" stroke-width="1.2" opacity="0.7"/>
<line x1="186.9" y1="199.6" x2="166.2" y2="177.9" stroke="#16a34a" stroke-width="1.2" opacity="0.7"/>
<line x1="194.8" y1="192.3" x2="175.0" y2="169.8" stroke="#16a34a" stroke-width="1.2" opacity="0.7"/>
<line x1="197.2" y1="190.3" x2="177.6" y2="167.5" stroke="#16a34a" stroke-width="1.2" opacity="0.7"/>
<line x1="204.3" y1="184.4" x2="185.6" y2="161.0" stroke="#16a34a" stroke-width="1.2" opacity="0.7"/>
<line x1="204.3" y1="184.4" x2="185.6" y2="160.9" stroke="#16a34a" stroke-width="1.2" opacity="0.7"/>
<line x1="211.0" y1="179.2" x2="193.1" y2="155.2" stroke="#16a34a" stroke-width="1.2" opacity="0.7"/>
<line x1="221.5" y1="171.9" x2="204.9" y2="146.9" stroke="#16a34a" stroke-width="1.2" opacity="0.7"/>
<line x1="222.0" y1="171.5" x2="205.4" y2="146.5" stroke="#16a34a" stroke-width="1.2" opacity="0.7"/>
<line x1="227.7" y1="167.9" x2="211.8" y2="142.4" stroke="#16a34a" stroke-width="1.2" opacity="0.7"/>
<line x1="229.0" y1="167.0" x2="213.3" y2="141.5" stroke="#16a34a" stroke-width="1.2" opacity="0.7"/>
<line x1="233.1" y1="164.6" x2="217.9" y2="138.7" stroke="#16a34a" stroke-width="1.2" opacity="0.7"/>
<line x1="234.8" y1="163.6" x2="219.8" y2="137.6" stroke="#16a34a" stroke-width="1.2" opacity="0.7"/>
<line x1="239.1" y1="161.2" x2="224.6" y2="134.9" stroke="#16a34a" stroke-width="1.2" opacity="0.7"/>
<line x1="240.4" y1="160.5" x2="226.0" y2="134.1" stroke="#16a34a" stroke-width="1.2" opacity="0.7"/>
<line x1="242.1" y1="159.6" x2="227.9" y2="133.1" stroke="#16a34a" stroke-width="1.2" opacity="0.7"/>
<line x1="243.4" y1="158.8" x2="229.4" y2="132.3" stroke="#16a34a" stroke-width="1.2" opacity="0.7"/>
<line x1="253.5" y1="153.8" x2="240.8" y2="126.7" stroke="#16a34a" stroke-width="1.2" opacity="0.7"/>
<line x1="253.5" y1="153.8" x2="240.8" y2="126.7" stroke="#16a34a" stroke-width="1.2" opacity="0.7"/>
<line x1="257.2" y1="152.1" x2="244.9" y2="124.8" stroke="#16a34a" stroke-width="1.2" opacity="0.7"/>
<line x1="261.8" y1="150.1" x2="250.1" y2="122.5" stroke="#16a34a" stroke-width="1.2" opacity="0.7"/>
<line x1="263.3" y1="149.5" x2="251.7" y2="121.8" stroke="#16a34a" stroke-width="1.2" opacity="0.7"/>
<line x1="263.4" y1="149.4" x2="251.8" y2="121.8" stroke="#16a34a" stroke-width="1.2" opacity="0.7"/>
<line x1="269.2" y1="147.1" x2="258.3" y2="119.1" stroke="#16a34a" stroke-width="1.2" opacity="0.7"/>
<line x1="271.6" y1="146.2" x2="260.9" y2="118.1" stroke="#16a34a" stroke-width="1.2" opacity="0.7"/>
<line x1="273.5" y1="145.5" x2="263.1" y2="117.3" stroke="#16a34a" stroke-width="1.2" opacity="0.7"/>
<line x1="294.7" y1="138.7" x2="286.8" y2="109.7" stroke="#16a34a" stroke-width="1.2" opacity="0.7"/>
<line x1="294.9" y1="138.6" x2="287.1" y2="109.7" stroke="#16a34a" stroke-width="1.2" opacity="0.7"/>
<line x1="295.2" y1="138.6" x2="287.4" y2="109.6" stroke="#16a34a" stroke-width="1.2" opacity="0.7"/>
<line x1="296.9" y1="138.1" x2="289.3" y2="109.1" stroke="#16a34a" stroke-width="1.2" opacity="0.7"/>
<line x1="303.6" y1="136.5" x2="296.8" y2="107.2" stroke="#16a34a" stroke-width="1.2" opacity="0.7"/>
<line x1="308.3" y1="135.4" x2="302.1" y2="106.0" stroke="#16a34a" stroke-width="1.2" opacity="0.7"/>
<line x1="310.1" y1="135.0" x2="304.1" y2="105.6" stroke="#16a34a" stroke-width="1.2" opacity="0.7"/>
<line x1="310.8" y1="134.9" x2="304.9" y2="105.5" stroke="#16a34a" stroke-width="1.2" opacity="0.7"/>
<line x1="316.9" y1="133.7" x2="311.8" y2="104.2" stroke="#16a34a" stroke-width="1.2" opacity="0.7"/>
<line x1="320.4" y1="133.2" x2="315.6" y2="103.5" stroke="#16a34a" stroke-width="1.2" opacity="0.7"/>
<line x1="341.8" y1="130.7" x2="339.6" y2="100.7" stroke="#16a34a" stroke-width="1.2" opacity="0.7"/>
<line x1="345.5" y1="130.4" x2="343.8" y2="100.5" stroke="#16a34a" stroke-width="1.2" opacity="0.7"/>
<line x1="345.8" y1="130.4" x2="344.1" y2="100.5" stroke="#16a34a" stroke-width="1.2" opacity="0.7"/>
<line x1="356.7" y1="130.0" x2="356.3" y2="100.0" stroke="#16a34a" stroke-width="1.2" opacity="0.7"/>
<line x1="358.5" y1="130.0" x2="358.3" y2="100.0" stroke="#16a34a" stroke-width="1.2" opacity="0.7"/>
<line x1="360.0" y1="130.0" x2="360.0" y2="100.0" stroke="#16a34a" stroke-width="1.2" opacity="0.7"/>
<line x1="360.0" y1="130.0" x2="360.0" y2="100.0" stroke="#16a34a" stroke-width="1.2" opacity="0.7"/>
<line x1="360.0" y1="130.0" x2="360.0" y2="100.0" stroke="#16a34a" stroke-width="1.2" opacity="0.7"/>
<line x1="360.2" y1="130.0" x2="360.2" y2="100.0" stroke="#16a34a" stroke-width="1.2" opacity="0.7"/>
<line x1="360.5" y1="130.0" x2="360.5" y2="100.0" stroke="#16a34a" stroke-width="1.2" opacity="0.7"/>
<line x1="362.2" y1="130.0" x2="362.4" y2="100.0" stroke="#16a34a" stroke-width="1.2" opacity="0.7"/>
<line x1="365.3" y1="130.1" x2="366.0" y2="100.1" stroke="#16a34a" stroke-width="1.2" opacity="0.7"/>
<line x1="368.2" y1="130.1" x2="369.1" y2="100.1" stroke="#16a34a" stroke-width="1.2" opacity="0.7"/>
<line x1="369.7" y1="130.2" x2="370.9" y2="100.2" stroke="#16a34a" stroke-width="1.2" opacity="0.7"/>
<line x1="374.2" y1="130.4" x2="375.9" y2="100.5" stroke="#16a34a" stroke-width="1.2" opacity="0.7"/>
<line x1="374.5" y1="130.4" x2="376.2" y2="100.5" stroke="#16a34a" stroke-width="1.2" opacity="0.7"/>
<line x1="375.2" y1="130.5" x2="377.1" y2="100.5" stroke="#16a34a" stroke-width="1.2" opacity="0.7"/>
<line x1="376.6" y1="130.5" x2="378.5" y2="100.6" stroke="#16a34a" stroke-width="1.2" opacity="0.7"/>
<line x1="384.1" y1="131.2" x2="387.0" y2="101.3" stroke="#16a34a" stroke-width="1.2" opacity="0.7"/>
<line x1="390.6" y1="131.9" x2="394.3" y2="102.1" stroke="#16a34a" stroke-width="1.2" opacity="0.7"/>
<line x1="396.9" y1="132.7" x2="401.3" y2="103.1" stroke="#16a34a" stroke-width="1.2" opacity="0.7"/>
<line x1="400.8" y1="133.3" x2="405.6" y2="103.7" stroke="#16a34a" stroke-width="1.2" opacity="0.7"/>
<line x1="400.8" y1="133.3" x2="405.6" y2="103.7" stroke="#16a34a" stroke-width="1.2" opacity="0.7"/>
<line x1="406.6" y1="134.4" x2="412.2" y2="104.9" stroke="#16a34a" stroke-width="1.2" opacity="0.7"/>
<line x1="412.7" y1="135.6" x2="419.0" y2="106.3" stroke="#16a34a" stroke-width="1.2" opacity="0.7"/>
<line x1="414.2" y1="136.0" x2="420.7" y2="106.7" stroke="#16a34a" stroke-width="1.2" opacity="0.7"/>
<line x1="415.9" y1="136.3" x2="422.6" y2="107.1" stroke="#16a34a" stroke-width="1.2" opacity="0.7"/>
<line x1="420.8" y1="137.5" x2="428.1" y2="108.4" stroke="#16a34a" stroke-width="1.2" opacity="0.7"/>
<line x1="434.1" y1="141.2" x2="443.0" y2="112.6" stroke="#16a34a" stroke-width="1.2" opacity="0.7"/>
<line x1="440.0" y1="143.1" x2="449.6" y2="114.7" stroke="#16a34a" stroke-width="1.2" opacity="0.7"/>
<line x1="442.5" y1="144.0" x2="452.4" y2="115.7" stroke="#16a34a" stroke-width="1.2" opacity="0.7"/>
<line x1="450.0" y1="146.8" x2="460.8" y2="118.8" stroke="#16a34a" stroke-width="1.2" opacity="0.7"/>
<line x1="453.1" y1="148.0" x2="464.3" y2="120.1" stroke="#16a34a" stroke-width="1.2" opacity="0.7"/>
<line x1="462.6" y1="152.0" x2="474.9" y2="124.6" stroke="#16a34a" stroke-width="1.2" opacity="0.7"/>
<line x1="462.9" y1="152.1" x2="475.2" y2="124.8" stroke="#16a34a" stroke-width="1.2" opacity="0.7"/>
<line x1="465.6" y1="153.4" x2="478.2" y2="126.2" stroke="#16a34a" stroke-width="1.2" opacity="0.7"/>
<line x1="469.2" y1="155.1" x2="482.3" y2="128.1" stroke="#16a34a" stroke-width="1.2" opacity="0.7"/>
<line x1="470.5" y1="155.7" x2="483.7" y2="128.8" stroke="#16a34a" stroke-width="1.2" opacity="0.7"/>
<line x1="476.1" y1="158.6" x2="490.0" y2="132.0" stroke="#16a34a" stroke-width="1.2" opacity="0.7"/>
<line x1="485.2" y1="163.6" x2="500.3" y2="137.7" stroke="#16a34a" stroke-width="1.2" opacity="0.7"/>
<line x1="488.0" y1="165.2" x2="503.3" y2="139.5" stroke="#16a34a" stroke-width="1.2" opacity="0.7"/>
<line x1="489.0" y1="165.9" x2="504.5" y2="140.2" stroke="#16a34a" stroke-width="1.2" opacity="0.7"/>
<line x1="489.1" y1="165.9" x2="504.6" y2="140.2" stroke="#16a34a" stroke-width="1.2" opacity="0.7"/>
<line x1="489.3" y1="166.0" x2="504.8" y2="140.4" stroke="#16a34a" stroke-width="1.2" opacity="0.7"/>
<line x1="497.7" y1="171.4" x2="514.3" y2="146.3" stroke="#16a34a" stroke-width="1.2" opacity="0.7"/>
<line x1="507.7" y1="178.3" x2="525.4" y2="154.1" stroke="#16a34a" stroke-width="1.2" opacity="0.7"/>
<line x1="507.7" y1="178.3" x2="525.5" y2="154.1" stroke="#16a34a" stroke-width="1.2" opacity="0.7"/>
<line x1="526.1" y1="193.2" x2="546.0" y2="170.7" stroke="#16a34a" stroke-width="1.2" opacity="0.7"/>
<line x1="526.1" y1="193.2" x2="546.1" y2="170.8" stroke="#16a34a" stroke-width="1.2" opacity="0.7"/>
<line x1="527.4" y1="194.3" x2="547.5" y2="172.0" stroke="#16a34a" stroke-width="1.2" opacity="0.7"/>
<line x1="528.2" y1="195.0" x2="548.4" y2="172.8" stroke="#16a34a" stroke-width="1.2" opacity="0.7"/>
<line x1="536.1" y1="202.6" x2="557.3" y2="181.3" stroke="#16a34a" stroke-width="1.2" opacity="0.7"/>
<line x1="536.5" y1="203.0" x2="557.7" y2="181.7" stroke="#16a34a" stroke-width="1.2" opacity="0.7"/>
<line x1="536.7" y1="203.1" x2="557.9" y2="181.9" stroke="#16a34a" stroke-width="1.2" opacity="0.7"/>
<line x1="538.8" y1="205.2" x2="560.2" y2="184.3" stroke="#16a34a" stroke-width="1.2" opacity="0.7"/>
<line x1="543.4" y1="210.1" x2="565.4" y2="189.7" stroke="#16a34a" stroke-width="1.2" opacity="0.7"/>
<line x1="544.3" y1="211.1" x2="566.4" y2="190.8" stroke="#16a34a" stroke-width="1.2" opacity="0.7"/>
<line x1="544.6" y1="211.4" x2="566.8" y2="191.2" stroke="#16a34a" stroke-width="1.2" opacity="0.7"/>
<line x1="549.4" y1="216.8" x2="572.1" y2="197.2" stroke="#16a34a" stroke-width="1.2" opacity="0.7"/>
<line x1="556.0" y1="224.8" x2="579.5" y2="206.2" stroke="#16a34a" stroke-width="1.2" opacity="0.7"/>
<line x1="556.0" y1="224.8" x2="579.5" y2="206.2" stroke="#16a34a" stroke-width="1.2" opacity="0.7"/>
<line x1="556.8" y1="225.8" x2="580.4" y2="207.4" stroke="#16a34a" stroke-width="1.2" opacity="0.7"/>
<line x1="557.0" y1="226.1" x2="580.6" y2="207.6" stroke="#16a34a" stroke-width="1.2" opacity="0.7"/>
<line x1="561.0" y1="231.4" x2="585.2" y2="213.6" stroke="#16a34a" stroke-width="1.2" opacity="0.7"/>
<line x1="564.0" y1="235.4" x2="588.4" y2="218.1" stroke="#16a34a" stroke-width="1.2" opacity="0.7"/>
<line x1="564.9" y1="236.8" x2="589.5" y2="219.6" stroke="#16a34a" stroke-width="1.2" opacity="0.7"/>
<line x1="567.1" y1="239.9" x2="591.9" y2="223.1" stroke="#16a34a" stroke-width="1.2" opacity="0.7"/>
<line x1="570.0" y1="244.3" x2="595.2" y2="228.0" stroke="#16a34a" stroke-width="1.2" opacity="0.7"/>
<line x1="579.7" y1="260.8" x2="606.1" y2="246.4" stroke="#16a34a" stroke-width="1.2" opacity="0.7"/>
<line x1="581.1" y1="263.2" x2="607.6" y2="249.2" stroke="#16a34a" stroke-width="1.2" opacity="0.7"/>
<line x1="581.6" y1="264.4" x2="608.2" y2="250.5" stroke="#16a34a" stroke-width="1.2" opacity="0.7"/>
<line x1="583.9" y1="268.9" x2="610.8" y2="255.5" stroke="#16a34a" stroke-width="1.2" opacity="0.7"/>
<line x1="585.3" y1="271.7" x2="612.4" y2="258.7" stroke="#16a34a" stroke-width="1.2" opacity="0.7"/>
<line x1="588.9" y1="279.4" x2="616.3" y2="267.4" stroke="#16a34a" stroke-width="1.2" opacity="0.7"/>
<line x1="592.6" y1="288.4" x2="620.5" y2="277.4" stroke="#16a34a" stroke-width="1.2" opacity="0.7"/>
<line x1="596.5" y1="298.9" x2="624.8" y2="289.1" stroke="#16a34a" stroke-width="1.2" opacity="0.7"/>
<line x1="597.9" y1="303.3" x2="626.5" y2="294.0" stroke="#16a34a" stroke-width="1.2" opacity="0.7"/>
<line x1="599.8" y1="309.2" x2="628.5" y2="300.7" stroke="#16a34a" stroke-width="1.2" opacity="0.7"/>
<line x1="603.3" y1="322.6" x2="632.5" y2="315.7" stroke="#16a34a" stroke-width="1.2" opacity="0.7"/>
<line x1="606.6" y1="339.2" x2="636.2" y2="334.3" stroke="#16a34a" stroke-width="1.2" opacity="0.7"/>
<line x1="115.5" y1="328.0" x2="86.1" y2="321.8" stroke="#dc2626" stroke-width="1.2" opacity="0.7"/>
<line x1="115.6" y1="327.4" x2="86.3" y2="321.1" stroke="#dc2626" stroke-width="1.2" opacity="0.7"/>
<line x1="116.3" y1="324.4" x2="87.0" y2="317.7" stroke="#dc2626" stroke-width="1.2" opacity="0.7"/>
<line x1="117.5" y1="319.1" x2="88.4" y2="311.8" stroke="#dc2626" stroke-width="1.2" opacity="0.7"/>
<line x1="118.3" y1="316.0" x2="89.3" y2="308.3" stroke="#dc2626" stroke-width="1.2" opacity="0.7"/>
<line x1="119.5" y1="311.9" x2="90.6" y2="303.7" stroke="#dc2626" stroke-width="1.2" opacity="0.7"/>
<line x1="119.5" y1="311.8" x2="90.6" y2="303.7" stroke="#dc2626" stroke-width="1.2" opacity="0.7"/>
<line x1="119.5" y1="311.8" x2="90.6" y2="303.7" stroke="#dc2626" stroke-width="1.2" opacity="0.7"/>
<line x1="119.5" y1="311.8" x2="90.6" y2="303.6" stroke="#dc2626" stroke-width="1.2" opacity="0.7"/>
<line x1="120.8" y1="307.3" x2="92.1" y2="298.6" stroke="#dc2626" stroke-width="1.2" opacity="0.7"/>
<line x1="121.9" y1="303.7" x2="93.4" y2="294.5" stroke="#dc2626" stroke-width="1.2" opacity="0.7"/>
<line x1="122.0" y1="303.4" x2="93.5" y2="294.2" stroke="#dc2626" stroke-width="1.2" opacity="0.7"/>
<line x1="123.1" y1="300.3" x2="94.6" y2="290.7" stroke="#dc2626" stroke-width="1.2" opacity="0.7"/>
<line x1="123.3" y1="299.5" x2="94.9" y2="289.8" stroke="#dc2626" stroke-width="1.2" opacity="0.7"/>
<line x1="123.7" y1="298.4" x2="95.3" y2="288.6" stroke="#dc2626" stroke-width="1.2" opacity="0.7"/>
<line x1="124.2" y1="297.0" x2="95.9" y2="287.1" stroke="#dc2626" stroke-width="1.2" opacity="0.7"/>
<line x1="124.7" y1="295.4" x2="96.5" y2="285.3" stroke="#dc2626" stroke-width="1.2" opacity="0.7"/>
<line x1="126.3" y1="291.3" x2="98.2" y2="280.7" stroke="#dc2626" stroke-width="1.2" opacity="0.7"/>
<line x1="127.7" y1="287.6" x2="99.8" y2="276.6" stroke="#dc2626" stroke-width="1.2" opacity="0.7"/>
<line x1="132.4" y1="276.5" x2="105.1" y2="264.0" stroke="#dc2626" stroke-width="1.2" opacity="0.7"/>
<line x1="132.6" y1="276.0" x2="105.4" y2="263.5" stroke="#dc2626" stroke-width="1.2" opacity="0.7"/>
<line x1="136.0" y1="268.9" x2="109.2" y2="255.6" stroke="#dc2626" stroke-width="1.2" opacity="0.7"/>
<line x1="140.4" y1="260.5" x2="114.1" y2="246.2" stroke="#dc2626" stroke-width="1.2" opacity="0.7"/>
<line x1="141.0" y1="259.4" x2="114.7" y2="245.0" stroke="#dc2626" stroke-width="1.2" opacity="0.7"/>
<line x1="143.1" y1="255.7" x2="117.1" y2="240.8" stroke="#dc2626" stroke-width="1.2" opacity="0.7"/>
<line x1="148.6" y1="246.5" x2="123.3" y2="230.5" stroke="#dc2626" stroke-width="1.2" opacity="0.7"/>
<line x1="152.9" y1="240.0" x2="128.0" y2="223.2" stroke="#dc2626" stroke-width="1.2" opacity="0.7"/>
<line x1="159.5" y1="230.7" x2="135.5" y2="212.7" stroke="#dc2626" stroke-width="1.2" opacity="0.7"/>
<line x1="165.7" y1="222.7" x2="142.4" y2="203.8" stroke="#dc2626" stroke-width="1.2" opacity="0.7"/>
<line x1="167.7" y1="220.3" x2="144.6" y2="201.1" stroke="#dc2626" stroke-width="1.2" opacity="0.7"/>
<line x1="172.8" y1="214.3" x2="150.4" y2="194.4" stroke="#dc2626" stroke-width="1.2" opacity="0.7"/>
<line x1="179.1" y1="207.5" x2="157.4" y2="186.8" stroke="#dc2626" stroke-width="1.2" opacity="0.7"/>
<line x1="179.3" y1="207.2" x2="157.7" y2="186.5" stroke="#dc2626" stroke-width="1.2" opacity="0.7"/>
<line x1="180.4" y1="206.0" x2="158.9" y2="185.2" stroke="#dc2626" stroke-width="1.2" opacity="0.7"/>
<line x1="186.9" y1="199.6" x2="166.2" y2="177.9" stroke="#dc2626" stroke-width="1.2" opacity="0.7"/>
<line x1="194.8" y1="192.3" x2="175.0" y2="169.8" stroke="#dc2626" stroke-width="1.2" opacity="0.7"/>
<line x1="197.2" y1="190.3" x2="177.6" y2="167.5" stroke="#dc2626" stroke-width="1.2" opacity="0.7"/>
<line x1="204.3" y1="184.4" x2="185.6" y2="161.0" stroke="#dc2626" stroke-width="1.2" opacity="0.7"/>
<line x1="204.3" y1="184.4" x2="185.6" y2="160.9" stroke="#dc2626" stroke-width="1.2" opacity="0.7"/>
<line x1="211.0" y1="179.2" x2="193.1" y2="155.2" stroke="#dc2626" stroke-width="1.2" opacity="0.7"/>
<line x1="221.5" y1="171.9" x2="204.9" y2="146.9" stroke="#dc2626" stroke-width="1.2" opacity="0.7"/>
<line x1="222.0" y1="171.5" x2="205.4" y2="146.5" stroke="#dc2626" stroke-width="1.2" opacity="0.7"/>
<line x1="227.7" y1="167.9" x2="211.8" y2="142.4" stroke="#dc2626" stroke-width="1.2" opacity="0.7"/>
<line x1="229.0" y1="167.0" x2="213.3" y2="141.5" stroke="#dc2626" stroke-width="1.2" opacity="0.7"/>
<line x1="233.1" y1="164.6" x2="217.9" y2="138.7" stroke="#dc2626" stroke-width="1.2" opacity="0.7"/>
<line x1="234.8" y1="163.6" x2="219.8" y2="137.6" stroke="#dc2626" stroke-width="1.2" opacity="0.7"/>
<line x1="239.1" y1="161.2" x2="224.6" y2="134.9" stroke="#dc2626" stroke-width="1.2" opacity="0.7"/>
<line x1="240.4" y1="160.5" x2="226.0" y2="134.1" stroke="#dc2626" stroke-width="1.2" opacity="0.7"/>
<line x1="242.1" y1="159.6" x2="227.9" y2="133.1" stroke="#dc2626" stroke-width="1.2" opacity="0.7"/>
<line x1="243.4" y1="158.8" x2="229.4" y2="132.3" stroke="#dc2626" stroke-width="1.2" opacity="0.7"/>
<line x1="253.5" y1="153.8" x2="240.8" y2="126.7" stroke="#dc2626" stroke-width="1.2" opacity="0.7"/>
<line x1="253.5" y1="153.8" x2="240.8" y2="126.7" stroke="#dc2626" stroke-width="1.2" opacity="0.7"/>
<line x1="257.2" y1="152.1" x2="244.9" y2="124.8" stroke="#dc2626" stroke-width="1.2" opacity="0.7"/>
<line x1="261.8" y1="150.1" x2="250.1" y2="122.5" stroke="#dc2626" stroke-width="1.2" opacity="0.7"/>
<line x1="263.3" y1="149.5" x2="251.7" y2="121.8" stroke="#dc2626" stroke-width="1.2" opacity="0.7"/>
<line x1="263.4" y1="149.4" x2="251.8" y2="121.8" stroke="#dc2626" stroke-width="1.2" opacity="0.7"/>
<line x1="269.2" y1="147.1" x2="258.3" y2="119.1" stroke="#dc2626" stroke-width="1.2" opacity="0.7"/>
<line x1="271.6" y1="146.2" x2="260.9" y2="118.1" stroke="#dc2626" stroke-width="1.2" opacity="0.7"/>
<line x1="273.5" y1="145.5" x2="263.1" y2="117.3" stroke="#dc2626" stroke-width="1.2" opacity="0.7"/>
<line x1="294.7" y1="138.7" x2="286.8" y2="109.7" stroke="#dc2626" stroke-width="1.2" opacity="0.7"/>
<line x1="294.9" y1="138.6" x2="287.1" y2="109.7" stroke="#dc2626" stroke-width="1.2" opacity="0.7"/>
<line x1="295.2" y1="138.6" x2="287.4" y2="109.6" stroke="#dc2626" stroke-width="1.2" opacity="0.7"/>
<line x1="296.9" y1="138.1" x2="289.3" y2="109.1" stroke="#dc2626" stroke-width="1.2" opacity="0.7"/>
<line x1="303.6" y1="136.5" x2="296.8" y2="107.2" stroke="#dc2626" stroke-width="1.2" opacity="0.7"/>
<line x1="308.3" y1="135.4" x2="302.1" y2="106.0" stroke="#dc2626" stroke-width="1.2" opacity="0.7"/>
<line x1="310.1" y1="135.0" x2="304.1" y2="105.6" stroke="#dc2626" stroke-width="1.2" opacity="0.7"/>
<line x1="310.8" y1="134.9" x2="304.9" y2="105.5" stroke="#dc2626" stroke-width="1.2" opacity="0.7"/>
<line x1="316.9" y1="133.7" x2="311.8" y2="104.2" stroke="#dc2626" stroke-width="1.2" opacity="0.7"/>
<line x1="320.4" y1="133.2" x2="315.6" y2="103.5" stroke="#dc2626" stroke-width="1.2" opacity="0.7"/>
<line x1="341.8" y1="130.7" x2="339.6" y2="100.7" stroke="#dc2626" stroke-width="1.2" opacity="0.7"/>
<line x1="345.5" y1="130.4" x2="343.8" y2="100.5" stroke="#dc2626" stroke-width="1.2" opacity="0.7"/>
<line x1="345.8" y1="130.4" x2="344.1" y2="100.5" stroke="#dc2626" stroke-width="1.2" opacity="0.7"/>
<line x1="356.7" y1="130.0" x2="356.3" y2="100.0" stroke="#dc2626" stroke-width="1.2" opacity="0.7"/>
<line x1="358.5" y1="130.0" x2="358.3" y2="100.0" stroke="#dc2626" stroke-width="1.2" opacity="0.7"/>
<line x1="360.0" y1="130.0" x2="360.0" y2="100.0" stroke="#dc2626" stroke-width="1.2" opacity="0.7"/>
<line x1="360.0" y1="130.0" x2="360.0" y2="100.0" stroke="#dc2626" stroke-width="1.2" opacity="0.7"/>
<line x1="360.0" y1="130.0" x2="360.0" y2="100.0" stroke="#dc2626" stroke-width="1.2" opacity="0.7"/>
<line x1="360.2" y1="130.0" x2="360.2" y2="100.0" stroke="#dc2626" stroke-width="1.2" opacity="0.7"/>
<line x1="360.5" y1="130.0" x2="360.5" y2="100.0" stroke="#dc2626" stroke-width="1.2" opacity="0.7"/>
<line x1="362.2" y1="130.0" x2="362.4" y2="100.0" stroke="#dc2626" stroke-width="1.2" opacity="0.7"/>
<line x1="365.3" y1="130.1" x2="366.0" y2="100.1" stroke="#dc2626" stroke-width="1.2" opacity="0.7"/>
<line x1="368.2" y1="130.1" x2="369.1" y2="100.1" stroke="#dc2626" stroke-width="1.2" opacity="0.7"/>
<line x1="369.7" y1="130.2" x2="370.9" y2="100.2" stroke="#dc2626" stroke-width="1.2" opacity="0.7"/>
<line x1="374.2" y1="130.4" x2="375.9" y2="100.5" stroke="#dc2626" stroke-width="1.2" opacity="0.7"/>
<line x1="374.5" y1="130.4" x2="376.2" y2="100.5" stroke="#dc2626" stroke-width="1.2" opacity="0.7"/>
<line x1="375.2" y1="130.5" x2="377.1" y2="100.5" stroke="#dc2626" stroke-width="1.2" opacity="0.7"/>
<line x1="376.6" y1="130.5" x2="378.5" y2="100.6" stroke="#dc2626" stroke-width="1.2" opacity="0.7"/>
<line x1="384.1" y1="131.2" x2="387.0" y2="101.3" stroke="#dc2626" stroke-width="1.2" opacity="0.7"/>
<line x1="390.6" y1="131.9" x2="394.3" y2="102.1" stroke="#dc2626" stroke-width="1.2" opacity="0.7"/>
<line x1="396.9" y1="132.7" x2="401.3" y2="103.1" stroke="#dc2626" stroke-width="1.2" opacity="0.7"/>
<line x1="400.8" y1="133.3" x2="405.6" y2="103.7" stroke="#dc2626" stroke-width="1.2" opacity="0.7"/>
<line x1="400.8" y1="133.3" x2="405.6" y2="103.7" stroke="#dc2626" stroke-width="1.2" opacity="0.7"/>
<line x1="406.6" y1="134.4" x2="412.2" y2="104.9" stroke="#dc2626" stroke-width="1.2" opacity="0.7"/>
<line x1="412.7" y1="135.6" x2="419.0" y2="106.3" stroke="#dc2626" stroke-width="1.2" opacity="0.7"/>
<line x1="414.2" y1="136.0" x2="420.7" y2="106.7" stroke="#dc2626" stroke-width="1.2" opacity="0.7"/>
<line x1="415.9" y1="136.3" x2="422.6" y2="107.1" stroke="#dc2626" stroke-width="1.2" opacity="0.7"/>
<line x1="420.8" y1="137.5" x2="428.1" y2="108.4" stroke="#dc2626" stroke-width="1.2" opacity="0.7"/>
<line x1="434.1" y1="141.2" x2="443.0" y2="112.6" stroke="#dc2626" stroke-width="1.2" opacity="0.7"/>
<line x1="440.0" y1="143.1" x2="449.6" y2="114.7" stroke="#dc2626" stroke-width="1.2" opacity="0.7"/>
<line x1="442.5" y1="144.0" x2="452.4" y2="115.7" stroke="#dc2626" stroke-width="1.2" opacity="0.7"/>
<line x1="450.0" y1="146.8" x2="460.8" y2="118.8" stroke="#dc2626" stroke-width="1.2" opacity="0.7"/>
<line x1="453.1" y1="148.0" x2="464.3" y2="120.1" stroke="#dc2626" stroke-width="1.2" opacity="0.7"/>
<line x1="462.6" y1="152.0" x2="474.9" y2="124.6" stroke="#dc2626" stroke-width="1.2" opacity="0.7"/>
<line x1="462.9" y1="152.1" x2="475.2" y2="124.8" stroke="#dc2626" stroke-width="1.2" opacity="0.7"/>
<line x1="465.6" y1="153.4" x2="478.2" y2="126.2" stroke="#dc2626" stroke-width="1.2" opacity="0.7"/>
<line x1="469.2" y1="155.1" x2="482.3" y2="128.1" stroke="#dc2626" stroke-width="1.2" opacity="0.7"/>
<line x1="470.5" y1="155.7" x2="483.7" y2="128.8" stroke="#dc2626" stroke-width="1.2" opacity="0.7"/>
<line x1="476.1" y1="158.6" x2="490.0" y2="132.0" stroke="#dc2626" stroke-width="1.2" opacity="0.7"/>
<line x1="485.2" y1="163.6" x2="500.3" y2="137.7" stroke="#dc2626" stroke-width="1.2" opacity="0.7"/>
<line x1="488.0" y1="165.2" x2="503.3" y2="139.5" stroke="#dc2626" stroke-width="1.2" opacity="0.7"/>
<line x1="489.0" y1="165.9" x2="504.5" y2="140.2" stroke="#dc2626" stroke-width="1.2" opacity="0.7"/>
<line x1="489.1" y1="165.9" x2="504.6" y2="140.2" stroke="#dc2626" stroke-width="1.2" opacity="0.7"/>
<line x1="489.3" y1="166.0" x2="504.8" y2="140.4" stroke="#dc2626" stroke-width="1.2" opacity="0.7"/>
<line x1="497.7" y1="171.4" x2="514.3" y2="146.3" stroke="#dc2626" stroke-width="1.2" opacity="0.7"/>
<line x1="507.7" y1="178.3" x2="525.4" y2="154.1" stroke="#dc2626" stroke-width="1.2" opacity="0.7"/>
<line x1="507.7" y1="178.3" x2="525.5" y2="154.1" stroke="#dc2626" stroke-width="1.2" opacity="0.7"/>
<line x1="526.1" y1="193.2" x2="546.0" y2="170.7" stroke="#dc2626" stroke-width="1.2" opacity="0.7"/>
<line x1="526.1" y1="193.2" x2="546.1" y2="170.8" stroke="#dc2626" stroke-width="1.2" opacity="0.7"/>
<line x1="527.4" y1="194.3" x2="547.5" y2="172.0" stroke="#dc2626" stroke-width="1.2" opacity="0.7"/>
<line x1="528.2" y1="195.0" x2="548.4" y2="172.8" stroke="#dc2626" stroke-width="1.2" opacity="0.7"/>
<line x1="536.1" y1="202.6" x2="557.3" y2="181.3" stroke="#dc2626" stroke-width="1.2" opacity="0.7"/>
<line x1="536.5" y1="203.0" x2="557.7" y2="181.7" stroke="#dc2626" stroke-width="1.2" opacity="0.7"/>
<line x1="536.7" y1="203.1" x2="557.9" y2="181.9" stroke="#dc2626" stroke-width="1.2" opacity="0.7"/>
<line x1="538.8" y1="205.2" x2="560.2" y2="184.3" stroke="#dc2626" stroke-width="1.2" opacity="0.7"/>
<line x1="543.4" y1="210.1" x2="565.4" y2="189.7" stroke="#dc2626" stroke-width="1.2" opacity="0.7"/>
<line x1="544.3" y1="211.1" x2="566.4" y2="190.8" stroke="#dc2626" stroke-width="1.2" opacity="0.7"/>
<line x1="544.6" y1="211.4" x2="566.8" y2="191.2" stroke="#dc2626" stroke-width="1.2" opacity="0.7"/>
<line x1="549.4" y1="216.8" x2="572.1" y2="197.2" stroke="#dc2626" stroke-width="1.2" opacity="0.7"/>
<line x1="556.0" y1="224.8" x2="579.5" y2="206.2" stroke="#dc2626" stroke-width="1.2" opacity="0.7"/>
<line x1="556.0" y1="224.8" x2="579.5" y2="206.2" stroke="#dc2626" stroke-width="1.2" opacity="0.7"/>
<line x1="556.8" y1="225.8" x2="580.4" y2="207.4" stroke="#dc2626" stroke-width="1.2" opacity="0.7"/>
<line x1="557.0" y1="226.1" x2="580.6" y2="207.6" stroke="#dc2626" stroke-width="1.2" opacity="0.7"/>
<line x1="561.0" y1="231.4" x2="585.2" y2="213.6" stroke="#dc2626" stroke-width="1.2" opacity="0.7"/>
<line x1="564.0" y1="235.4" x2="588.4" y2="218.1" stroke="#dc2626" stroke-width="1.2" opacity="0.7"/>
<line x1="564.9" y1="236.8" x2="589.5" y2="219.6" stroke="#dc2626" stroke-width="1.2" opacity="0.7"/>
<line x1="567.1" y1="239.9" x2="591.9" y2="223.1" stroke="#dc2626" stroke-width="1.2" opacity="0.7"/>
<line x1="570.0" y1="244.3" x2="595.2" y2="228.0" stroke="#dc2626" stroke-width="1.2" opacity="0.7"/>
<line x1="579.7" y1="260.8" x2="606.1" y2="246.4" stroke="#dc2626" stroke-width="1.2" opacity="0.7"/>
<line x1="581.1" y1="263.2" x2="607.6" y2="249.2" stroke="#dc2626" stroke-width="1.2" opacity="0.7"/>
<line x1="581.6" y1="264.4" x2="608.2" y2="250.5" stroke="#dc2626" stroke-width="1.2" opacity="0.7"/>
<line x1="583.9" y1="268.9" x2="610.8" y2="255.5" stroke="#dc2626" stroke-width="1.2" opacity="0.7"/>
<line x1="585.3" y1="271.7" x2="612.4" y2="258.7" stroke="#dc2626" stroke-width="1.2" opacity="0.7"/>
<line x1="588.9" y1="279.4" x2="616.3" y2="267.4" stroke="#dc2626" stroke-width="1.2" opacity="0.7"/>
<line x1="592.6" y1="288.4" x2="620.5" y2="277.4" stroke="#dc2626" stroke-width="1.2" opacity="0.7"/>
<line x1="596.5" y1="298.9" x2="624.8" y2="289.1" stroke="#dc2626" stroke-width="1.2" opacity="0.7"/>
<line x1="597.9" y1="303.3" x2="626.5" y2="294.0" stroke="#dc2626" stroke-width="1.2" opacity="0.7"/>
<line x1="599.8" y1="309.2" x2="628.5" y2="300.7" stroke="#dc2626" stroke-width="1.2" opacity="0.7"/>
<line x1="603.3" y1="322.6" x2="632.5" y2="315.7" stroke="#dc2626" stroke-width="1.2" opacity="0.7"/>
<line x1="606.6" y1="339.2" x2="636.2" y2="334.3" stroke="#dc2626" stroke-width="1.2" opacity="0.7"/>
<text x="40" y="670" fill="#475569" font-weight="600">Domain:</text>
<rect x="120" y="658" width="14" height="14" fill="#2563eb"/>
<text x="142" y="670" fill="#475569">domain 0: 158 boxes</text>
<rect x="280" y="658" width="14" height="14" fill="#16a34a"/>
<text x="302" y="670" fill="#475569">domain 1: 149 boxes</text>
<rect x="440" y="658" width="14" height="14" fill="#dc2626"/>
<text x="462" y="670" fill="#475569">domain 2: 149 boxes</text>
<text x="360" y="370" text-anchor="middle" fill="#0f172a" font-weight="700" font-size="36">456</text>
<text x="360" y="398" text-anchor="middle" fill="#64748b" font-size="13">total DnaA boxes</text>
<text x="360" y="420" text-anchor="middle" fill="#64748b" font-size="11">(spec said 322 = 307 chrom + 11 oriC + 4 dnaAp)</text>
</svg>