<svg xmlns="http://www.w3.org/2000/svg" width="720" height="380" viewBox="0 0 720 380" font-family="-apple-system,sans-serif" font-size="13">
<rect width="720" height="380" fill="white"/>
<text x="360.0" y="22" text-anchor="middle" font-weight="600" font-size="15" fill="#0f172a">Hill-cooperativity prediction for oriC binding</text>
<text x="360.0" y="40" text-anchor="middle" fill="#64748b" font-size="11">Probability that an oriC site is bound, vs free DnaA-ATP. Higher Hill n = sharper threshold.</text>
<rect x="60" y="50.0" width="440" height="216.0" fill="#fef9c3" fill-opacity="0.4"/>
<text x="70" y="63.5" fill="#a16207" font-size="11">desirable: oriC <0.20 until chromosomal saturates</text>
<line x1="60" y1="320" x2="500" y2="320" stroke="#e5e7eb"/>
<text x="52" y="324" text-anchor="end" fill="#64748b">0.00</text>
<line x1="60" y1="252.5" x2="500" y2="252.5" stroke="#e5e7eb"/>
<text x="52" y="256.5" text-anchor="end" fill="#64748b">0.25</text>
<line x1="60" y1="185.0" x2="500" y2="185.0" stroke="#e5e7eb"/>
<text x="52" y="189.0" text-anchor="end" fill="#64748b">0.50</text>
<line x1="60" y1="117.5" x2="500" y2="117.5" stroke="#e5e7eb"/>
<text x="52" y="121.5" text-anchor="end" fill="#64748b">0.75</text>
<line x1="60" y1="50.0" x2="500" y2="50.0" stroke="#e5e7eb"/>
<text x="52" y="54.0" text-anchor="end" fill="#64748b">1.00</text>
<text x="60.0" y="338" text-anchor="middle" fill="#64748b">0</text>
<text x="148.0" y="338" text-anchor="middle" fill="#64748b">200</text>
<text x="236.0" y="338" text-anchor="middle" fill="#64748b">400</text>
<text x="324.0" y="338" text-anchor="middle" fill="#64748b">600</text>
<text x="412.0" y="338" text-anchor="middle" fill="#64748b">800</text>
<text x="500.0" y="338" text-anchor="middle" fill="#64748b">1000</text>
<text x="280.0" y="358" text-anchor="middle" fill="#334155">DnaA-ATP count</text>
<text x="20" y="185.0" text-anchor="middle" transform="rotate(-90 20 185.0)" fill="#334155">oriC binding probability</text>
<path d="M 60.0,320.00 L 64.4,319.33 L 68.8,317.33 L 73.2,314.06 L 77.6,309.62 L 82.0,304.12 L 86.4,297.71 L 90.8,290.53 L 95.2,282.76 L 99.6,274.53 L 104.0,266.00 L 108.4,257.29 L 112.8,248.53 L 117.2,239.81 L 121.6,231.21 L 126.0,222.80 L 130.4,214.63 L 134.8,206.75 L 139.2,199.17 L 143.6,191.92 L 148.0,185.00 L 152.4,178.42 L 156.8,172.17 L 161.2,166.25 L 165.6,160.66 L 170.0,155.37 L 174.4,150.37 L 178.8,145.66 L 183.2,141.22 L 187.6,137.03 L 192.0,133.08 L 196.4,129.35 L 200.8,125.84 L 205.2,122.53 L 209.6,119.41 L 214.0,116.46 L 218.4,113.68 L 222.8,111.05 L 227.2,108.57 L 231.6,106.22 L 236.0,104.00 L 240.4,101.90 L 244.8,99.91 L 249.2,98.02 L 253.6,96.23 L 258.0,94.54 L 262.4,92.93 L 266.8,91.40 L 271.2,89.94 L 275.6,88.56 L 280.0,87.24 L 284.4,85.99 L 288.8,84.79 L 293.2,83.66 L 297.6,82.57 L 302.0,81.53 L 306.4,80.54 L 310.8,79.60 L 315.2,78.69 L 319.6,77.83 L 324.0,77.00 L 328.4,76.21 L 332.8,75.45 L 337.2,74.72 L 341.6,74.02 L 346.0,73.35 L 350.4,72.71 L 354.8,72.09 L 359.2,71.50 L 363.6,70.93 L 368.0,70.38 L 372.4,69.85 L 376.8,69.34 L 381.2,68.85 L 385.6,68.38 L 390.0,67.93 L 394.4,67.49 L 398.8,67.06 L 403.2,66.66 L 407.6,66.26 L 412.0,65.88 L 416.4,65.52 L 420.8,65.16 L 425.2,64.82 L 429.6,64.48 L 434.0,64.16 L 438.4,63.85 L 442.8,63.55 L 447.2,63.26 L 451.6,62.98 L 456.0,62.71 L 460.4,62.44 L 464.8,62.18 L 469.2,61.94 L 473.6,61.69 L 478.0,61.46 L 482.4,61.23 L 486.8,61.01 L 491.2,60.80 L 495.6,60.59 L 500.0,60.38" fill="none" stroke="#3b82f6" stroke-width="2.2"/>
<path d="M 60.0,320.00 L 64.4,320.00 L 68.8,320.00 L 73.2,319.98 L 77.6,319.91 L 82.0,319.74 L 86.4,319.35 L 90.8,318.59 L 95.2,317.26 L 99.6,315.11 L 104.0,311.82 L 108.4,307.06 L 112.8,300.52 L 117.2,291.93 L 121.6,281.15 L 126.0,268.22 L 130.4,253.36 L 134.8,237.02 L 139.2,219.76 L 143.6,202.22 L 148.0,185.00 L 152.4,168.61 L 156.8,153.43 L 161.2,139.66 L 165.6,127.40 L 170.0,116.64 L 174.4,107.29 L 178.8,99.23 L 183.2,92.33 L 187.6,86.44 L 192.0,81.42 L 196.4,77.14 L 200.8,73.51 L 205.2,70.41 L 209.6,67.76 L 214.0,65.51 L 218.4,63.57 L 222.8,61.91 L 227.2,60.48 L 231.6,59.25 L 236.0,58.18 L 240.4,57.26 L 244.8,56.45 L 249.2,55.75 L 253.6,55.14 L 258.0,54.60 L 262.4,54.13 L 266.8,53.72 L 271.2,53.35 L 275.6,53.02 L 280.0,52.74 L 284.4,52.48 L 288.8,52.25 L 293.2,52.05 L 297.6,51.87 L 302.0,51.71 L 306.4,51.56 L 310.8,51.43 L 315.2,51.31 L 319.6,51.20 L 324.0,51.11 L 328.4,51.02 L 332.8,50.94 L 337.2,50.87 L 341.6,50.80 L 346.0,50.74 L 350.4,50.69 L 354.8,50.64 L 359.2,50.59 L 363.6,50.55 L 368.0,50.51 L 372.4,50.48 L 376.8,50.45 L 381.2,50.42 L 385.6,50.39 L 390.0,50.36 L 394.4,50.34 L 398.8,50.32 L 403.2,50.30 L 407.6,50.28 L 412.0,50.26 L 416.4,50.25 L 420.8,50.23 L 425.2,50.22 L 429.6,50.21 L 434.0,50.19 L 438.4,50.18 L 442.8,50.17 L 447.2,50.16 L 451.6,50.15 L 456.0,50.15 L 460.4,50.14 L 464.8,50.13 L 469.2,50.12 L 473.6,50.12 L 478.0,50.11 L 482.4,50.11 L 486.8,50.10 L 491.2,50.10 L 495.6,50.09 L 500.0,50.09" fill="none" stroke="#f59e0b" stroke-width="2.2"/>
<path d="M 60.0,320.00 L 64.4,320.00 L 68.8,320.00 L 73.2,320.00 L 77.6,320.00 L 82.0,320.00 L 86.4,320.00 L 90.8,319.99 L 95.2,319.97 L 99.6,319.91 L 104.0,319.74 L 108.4,319.32 L 112.8,318.38 L 117.2,316.41 L 121.6,312.58 L 126.0,305.61 L 130.4,293.82 L 134.8,275.59 L 139.2,250.20 L 143.6,218.88 L 148.0,185.00 L 152.4,152.70 L 156.8,125.13 L 161.2,103.51 L 165.6,87.54 L 170.0,76.18 L 174.4,68.26 L 178.8,62.79 L 183.2,59.02 L 187.6,56.42 L 192.0,54.60 L 196.4,53.33 L 200.8,52.43 L 205.2,51.79 L 209.6,51.33 L 214.0,51.00 L 218.4,50.75 L 222.8,50.57 L 227.2,50.44 L 231.6,50.34 L 236.0,50.26 L 240.4,50.21 L 244.8,50.16 L 249.2,50.13 L 253.6,50.10 L 258.0,50.08 L 262.4,50.07 L 266.8,50.05 L 271.2,50.04 L 275.6,50.03 L 280.0,50.03 L 284.4,50.02 L 288.8,50.02 L 293.2,50.02 L 297.6,50.01 L 302.0,50.01 L 306.4,50.01 L 310.8,50.01 L 315.2,50.01 L 319.6,50.01 L 324.0,50.00 L 328.4,50.00 L 332.8,50.00 L 337.2,50.00 L 341.6,50.00 L 346.0,50.00 L 350.4,50.00 L 354.8,50.00 L 359.2,50.00 L 363.6,50.00 L 368.0,50.00 L 372.4,50.00 L 376.8,50.00 L 381.2,50.00 L 385.6,50.00 L 390.0,50.00 L 394.4,50.00 L 398.8,50.00 L 403.2,50.00 L 407.6,50.00 L 412.0,50.00 L 416.4,50.00 L 420.8,50.00 L 425.2,50.00 L 429.6,50.00 L 434.0,50.00 L 438.4,50.00 L 442.8,50.00 L 447.2,50.00 L 451.6,50.00 L 456.0,50.00 L 460.4,50.00 L 464.8,50.00 L 469.2,50.00 L 473.6,50.00 L 478.0,50.00 L 482.4,50.00 L 486.8,50.00 L 491.2,50.00 L 495.6,50.00 L 500.0,50.00" fill="none" stroke="#16a34a" stroke-width="2.2"/>
<path d="M 60.0,320.00 L 64.4,320.00 L 68.8,320.00 L 73.2,320.00 L 77.6,320.00 L 82.0,320.00 L 86.4,320.00 L 90.8,320.00 L 95.2,320.00 L 99.6,320.00 L 104.0,320.00 L 108.4,320.00 L 112.8,319.99 L 117.2,319.95 L 121.6,319.78 L 126.0,319.15 L 130.4,316.92 L 134.8,309.93 L 139.2,290.73 L 143.6,248.75 L 148.0,185.00 L 152.4,123.91 L 156.8,84.94 L 161.2,65.55 L 165.6,56.86 L 170.0,53.08 L 174.4,51.41 L 178.8,50.67 L 183.2,50.32 L 187.6,50.16 L 192.0,50.08 L 196.4,50.04 L 200.8,50.02 L 205.2,50.01 L 209.6,50.01 L 214.0,50.00 L 218.4,50.00 L 222.8,50.00 L 227.2,50.00 L 231.6,50.00 L 236.0,50.00 L 240.4,50.00 L 244.8,50.00 L 249.2,50.00 L 253.6,50.00 L 258.0,50.00 L 262.4,50.00 L 266.8,50.00 L 271.2,50.00 L 275.6,50.00 L 280.0,50.00 L 284.4,50.00 L 288.8,50.00 L 293.2,50.00 L 297.6,50.00 L 302.0,50.00 L 306.4,50.00 L 310.8,50.00 L 315.2,50.00 L 319.6,50.00 L 324.0,50.00 L 328.4,50.00 L 332.8,50.00 L 337.2,50.00 L 341.6,50.00 L 346.0,50.00 L 350.4,50.00 L 354.8,50.00 L 359.2,50.00 L 363.6,50.00 L 368.0,50.00 L 372.4,50.00 L 376.8,50.00 L 381.2,50.00 L 385.6,50.00 L 390.0,50.00 L 394.4,50.00 L 398.8,50.00 L 403.2,50.00 L 407.6,50.00 L 412.0,50.00 L 416.4,50.00 L 420.8,50.00 L 425.2,50.00 L 429.6,50.00 L 434.0,50.00 L 438.4,50.00 L 442.8,50.00 L 447.2,50.00 L 451.6,50.00 L 456.0,50.00 L 460.4,50.00 L 464.8,50.00 L 469.2,50.00 L 473.6,50.00 L 478.0,50.00 L 482.4,50.00 L 486.8,50.00 L 491.2,50.00 L 495.6,50.00 L 500.0,50.00" fill="none" stroke="#dc2626" stroke-width="2.2"/>
<text x="520" y="70" fill="#475569" font-weight="600">Hill n:</text>
<rect x="520" y="82" width="14" height="14" fill="#3b82f6"/>
<text x="542" y="94" fill="#475569">n=2 (probe result — FAIL)</text>
<rect x="520" y="104" width="14" height="14" fill="#f59e0b"/>
<text x="542" y="116" fill="#475569">n=5 (target — predicted PASS)</text>
<rect x="520" y="126" width="14" height="14" fill="#16a34a"/>
<text x="542" y="138" fill="#475569">n=10 (target — predicted PASS)</text>
<rect x="520" y="148" width="14" height="14" fill="#dc2626"/>
<text x="542" y="160" fill="#475569">n=20 (over-sharp)</text>
<text x="520" y="192" fill="#64748b" font-size="11">Kd = 200 DnaA-ATP</text>
</svg>