<svg xmlns="http://www.w3.org/2000/svg" width="900" height="770" viewBox="0 0 900 770" font-family="-apple-system,sans-serif" font-size="13"><title>DnaA-box landscape across the chromosome</title><rect width="900" height="770" fill="white"/>
<rect x="0" y="0" width="900" height="44" fill="#0f172a"/><text x="450.0" y="28" text-anchor="middle" fill="white" font-weight="600" font-size="15">DnaA-box landscape across the chromosome</text><text x="450.0" y="60" text-anchor="middle" fill="#64748b" font-size="11">All DnaA boxes plotted at their genomic coordinates (radial ticks outside the backbone). OriC at top (12 o'clock); Ter at bottom.</text>
<text x="450.0" y="70" text-anchor="middle" fill="#0f172a" font-weight="600" font-size="13">t=0  ·  456 DnaA boxes  ·  2 oriC(s)  ·  2 replisome(s)</text>
<circle cx="450.0" cy="360" r="270" fill="none" stroke="#cbd5e1" stroke-width="2"/>
<line x1="445.59283027479876" y1="623.9632111772647" x2="445.39250437819874" y2="635.9615389580496" stroke="#2563eb" stroke-width="1.2"/>
<line x1="443.2715580436835" y1="623.9142437778614" x2="442.96571977294184" y2="635.9103457677643" stroke="#2563eb" stroke-width="1.2"/>
<line x1="439.8412109920809" y1="623.8044711635732" x2="439.37944785535734" y2="635.7955834891902" stroke="#2563eb" stroke-width="1.2"/>
<line x1="438.25802356703673" y1="623.7387457114479" x2="437.7242973655384" y2="635.7268705165137" stroke="#2563eb" stroke-width="1.2"/>
<line x1="428.76550267149213" y1="623.1446296681838" x2="427.800298247469" y2="635.1057491985557" stroke="#2563eb" stroke-width="1.2"/>
<line x1="425.01337508644383" y1="622.8148941278429" x2="423.8776194085549" y2="634.7610256791085" stroke="#2563eb" stroke-width="1.2"/>
<line x1="417.4336435588133" y1="621.9836491618238" x2="415.9533546296684" y2="633.8919968509975" stroke="#2563eb" stroke-width="1.2"/>
<line x1="412.3086516915475" y1="621.2955458148701" x2="410.5954085866178" y2="633.1726160791825" stroke="#2563eb" stroke-width="1.2"/>
<line x1="412.1346379651843" y1="621.2703855356982" x2="410.41348514541994" y2="633.1463121509572" stroke="#2563eb" stroke-width="1.2"/>
<line x1="402.88054010027156" y1="619.7609603053505" x2="400.7387464684657" y2="631.5682766828664" stroke="#2563eb" stroke-width="1.2"/>
<line x1="401.4961610521682" y1="619.5060261483783" x2="399.291441099994" y2="631.3017546096681" stroke="#2563eb" stroke-width="1.2"/>
<line x1="401.37040813181653" y1="619.4824903432483" x2="399.1599721378082" y2="631.2771489952141" stroke="#2563eb" stroke-width="1.2"/>
<line x1="391.1953457699096" y1="617.3674661663349" x2="388.52240694126914" y2="629.0659873557138" stroke="#2563eb" stroke-width="1.2"/>
<line x1="386.63472668807515" y1="616.2827386659216" x2="383.75448699207857" y2="627.931954059827" stroke="#2563eb" stroke-width="1.2"/>
<line x1="367.82652620087276" y1="610.8854722852324" x2="364.09136830091245" y2="622.2893573891066" stroke="#2563eb" stroke-width="1.2"/>
<line x1="367.1096028184257" y1="610.6495203567739" x2="363.34185749199054" y2="622.042680372991" stroke="#2563eb" stroke-width="1.2"/>
<line x1="365.5640182924846" y1="610.1330945578536" x2="361.7260191239612" y2="621.5027806741198" stroke="#2563eb" stroke-width="1.2"/>
<line x1="364.4914579833283" y1="609.7684712732636" x2="360.6047060734796" y2="621.1215836038665" stroke="#2563eb" stroke-width="1.2"/>
<line x1="358.7689206398974" y1="607.7355246200889" x2="354.6220533962563" y2="618.9962302846384" stroke="#2563eb" stroke-width="1.2"/>
<line x1="344.83405495108525" y1="602.1489706812083" x2="340.05378472158907" y2="613.1557420758086" stroke="#2563eb" stroke-width="1.2"/>
<line x1="338.8950385894722" y1="599.4821236542828" x2="333.8448130708119" y2="610.3676747294774" stroke="#2563eb" stroke-width="1.2"/>
<line x1="335.73185228354225" y1="597.9890552471894" x2="330.53784556915775" y2="608.8067395766071" stroke="#2563eb" stroke-width="1.2"/>
<line x1="331.6703542624897" y1="595.9959638206453" x2="326.2917340016937" y2="606.72305308522" stroke="#2563eb" stroke-width="1.2"/>
<line x1="329.6458831803276" y1="594.9699694951605" x2="324.17524150670613" y2="605.6504226540314" stroke="#2563eb" stroke-width="1.2"/>
<line x1="319.64935932695136" y1="589.5750650138768" x2="313.7243302054491" y2="600.0102952417803" stroke="#2563eb" stroke-width="1.2"/>
<line x1="312.20104158672393" y1="585.1831411545194" x2="305.93745256793864" y2="595.4187384797248" stroke="#2563eb" stroke-width="1.2"/>
<line x1="305.3286392873145" y1="580.8306984763216" x2="298.7526683458288" y2="590.8684574979726" stroke="#2563eb" stroke-width="1.2"/>
<line x1="298.0136146837284" y1="575.8613876507186" x2="291.1051426238979" y2="585.6732689075695" stroke="#2563eb" stroke-width="1.2"/>
<line x1="279.5652738481591" y1="561.6135018334512" x2="271.8182408412573" y2="570.7777519167898" stroke="#2563eb" stroke-width="1.2"/>
<line x1="279.4673176049781" y1="561.5306533387877" x2="271.715832041568" y2="570.6911375814598" stroke="#2563eb" stroke-width="1.2"/>
<line x1="275.77530149377316" y1="558.3475596784956" x2="267.8559970162174" y2="567.3633578457" stroke="#2563eb" stroke-width="1.2"/>
<line x1="267.6672455951406" y1="550.920838755588" x2="259.3793931221924" y2="559.5990586990238" stroke="#2563eb" stroke-width="1.2"/>
<line x1="266.7518904973264" y1="550.0424435848374" x2="258.4224309744776" y2="558.6807364750573" stroke="#2563eb" stroke-width="1.2"/>
<line x1="265.9959992388614" y1="549.3106645276354" x2="257.63218102244593" y2="557.9156947334369" stroke="#2563eb" stroke-width="1.2"/>
<line x1="262.05219838234655" y1="545.3958572004542" x2="253.50911649063505" y2="553.8229416186566" stroke="#2563eb" stroke-width="1.2"/>
<line x1="259.0976733718045" y1="542.3521365050099" x2="250.4202948887047" y2="550.6408699825104" stroke="#2563eb" stroke-width="1.2"/>
<line x1="257.58084808159776" y1="540.750850551257" x2="248.83452299439764" y2="548.9667983035869" stroke="#2563eb" stroke-width="1.2"/>
<line x1="256.7497803399935" y1="539.8620376882216" x2="247.96567944635686" y2="548.0375848558681" stroke="#2563eb" stroke-width="1.2"/>
<line x1="247.46570342310804" y1="529.3394777070708" x2="238.2595990332493" y2="537.0367266937559" stroke="#2563eb" stroke-width="1.2"/>
<line x1="239.63545665216006" y1="519.5078647028251" x2="230.07343195453095" y2="526.7582221893172" stroke="#2563eb" stroke-width="1.2"/>
<line x1="237.46762653262235" y1="516.6077591574667" x2="227.807064102287" y2="523.7262936646243" stroke="#2563eb" stroke-width="1.2"/>
<line x1="235.8491572251117" y1="514.3872291959574" x2="226.1150280080713" y2="521.4048305230463" stroke="#2563eb" stroke-width="1.2"/>
<line x1="232.98476251867842" y1="510.3342499263744" x2="223.1204335422547" y2="517.1676249230278" stroke="#2563eb" stroke-width="1.2"/>
<line x1="230.94596493653273" y1="507.34764919201547" x2="220.98896334273877" y2="514.0452696098343" stroke="#2563eb" stroke-width="1.2"/>
<line x1="230.2796404702289" y1="506.35219030854347" x2="220.29235140069386" y2="513.0045625952954" stroke="#2563eb" stroke-width="1.2"/>
<line x1="228.67903178422745" y1="503.92021757916086" x2="218.61898777441962" y2="510.4620456509409" stroke="#2563eb" stroke-width="1.2"/>
<line x1="227.67204754492" y1="502.3596907735181" x2="217.56623152423455" y2="508.83058580867794" stroke="#2563eb" stroke-width="1.2"/>
<line x1="223.91722283369737" y1="496.3179293738427" x2="213.6407329625018" y2="502.51419889083553" stroke="#2563eb" stroke-width="1.2"/>
<line x1="223.83441190731136" y1="496.18049332664464" x2="213.55415790309823" y2="502.3705157505831" stroke="#2563eb" stroke-width="1.2"/>
<line x1="220.97110419523304" y1="491.307901081577" x2="210.5606998404709" y2="497.27644203983044" stroke="#2563eb" stroke-width="1.2"/>
<line x1="218.54577183798858" y1="486.98401578910455" x2="208.02512510335168" y2="492.75601650679107" stroke="#2563eb" stroke-width="1.2"/>
<line x1="211.1634616923596" y1="472.48603455195234" x2="200.30725540564868" y2="477.5990361224956" stroke="#2563eb" stroke-width="1.2"/>
<line x1="207.1453507415247" y1="463.5259355598535" x2="196.10650304795766" y2="468.23165990348326" stroke="#2563eb" stroke-width="1.2"/>
<line x1="206.98937335459988" y1="463.1592716987181" x2="195.94343577980896" y2="467.8483295032053" stroke="#2563eb" stroke-width="1.2"/>
<line x1="196.26964273953104" y1="432.9171159912045" x2="184.736444682237" y2="436.2315303544411" stroke="#2563eb" stroke-width="1.2"/>
<line x1="195.78212856146615" y1="431.19883314536185" x2="184.22677076880552" y2="434.43514374287827" stroke="#2563eb" stroke-width="1.2"/>
<line x1="195.02083434137882" y1="428.42240188734536" x2="183.43087226598692" y2="431.53251106404286" stroke="#2563eb" stroke-width="1.2"/>
<line x1="194.64964698948867" y1="427.0238555844651" x2="183.04281276173813" y2="430.0703944746681" stroke="#2563eb" stroke-width="1.2"/>
<line x1="194.35056707732275" y1="425.8738752944864" x2="182.73013830811016" y2="428.8681423533267" stroke="#2563eb" stroke-width="1.2"/>
<line x1="193.63445157984629" y1="423.02940252956415" x2="181.98147210620292" y2="425.89437537181703" stroke="#2563eb" stroke-width="1.2"/>
<line x1="190.79729598465045" y1="410.0994833419576" x2="179.01535489304362" y2="412.3767325847738" stroke="#2563eb" stroke-width="1.2"/>
<line x1="190.4394462602566" y1="408.2111910485294" x2="178.64123927208647" y2="410.4026088234625" stroke="#2563eb" stroke-width="1.2"/>
<line x1="190.18005367766366" y1="406.7931137354446" x2="178.37005611755748" y2="408.9200734506921" stroke="#2563eb" stroke-width="1.2"/>
<line x1="190.17695050932747" y1="406.7758800384079" x2="178.36681189611505" y2="408.9020564037901" stroke="#2563eb" stroke-width="1.2"/>
<line x1="188.84181132475416" y1="398.6315996027176" x2="176.97098456678842" y2="400.38758140284114" stroke="#2563eb" stroke-width="1.2"/>
<line x1="188.73058842524136" y1="397.8720817407674" x2="176.85470608093414" y2="399.5935400017114" stroke="#2563eb" stroke-width="1.2"/>
<line x1="186.2813515638464" y1="372.185009930584" x2="174.29414027129397" y2="372.7388740183378" stroke="#2563eb" stroke-width="1.2"/>
<line x1="186.15173753209913" y1="368.9495470650574" x2="174.1586346926491" y2="369.35634465892366" stroke="#2563eb" stroke-width="1.2"/>
<line x1="186.08957767447276" y1="366.87669891458563" x2="174.0936493869488" y2="367.18927613797587" stroke="#2563eb" stroke-width="1.2"/>
<line x1="186.00007666643745" y1="360.20119610607946" x2="174.00008015127554" y2="360.2103413836285" stroke="#2563eb" stroke-width="1.2"/>
<line x1="186.0001902986475" y1="359.68301790321885" x2="174.00019894858605" y2="359.6686096260924" stroke="#2563eb" stroke-width="1.2"/>
<line x1="186.15711474662572" y1="350.8933045963546" x2="174.16425632601778" y2="350.47936389618894" stroke="#2563eb" stroke-width="1.2"/>
<line x1="188.1307775096696" y1="326.52597555850434" x2="176.22763103283643" y2="325.00442899298184" stroke="#2563eb" stroke-width="1.2"/>
<line x1="188.19693859534797" y1="326.01239874377694" x2="176.29679944059106" y2="324.467507777585" stroke="#2563eb" stroke-width="1.2"/>
<line x1="188.3085491573151" y1="325.163459473555" x2="176.41348320992034" y2="323.5799803587166" stroke="#2563eb" stroke-width="1.2"/>
<line x1="188.756538622365" y1="321.9493247440717" x2="176.8818358324725" y2="320.2197485960749" stroke="#2563eb" stroke-width="1.2"/>
<line x1="189.44631803162127" y1="317.48201777223034" x2="177.6029688512404" y2="315.54938221642266" stroke="#2563eb" stroke-width="1.2"/>
<line x1="710.5519551159417" y1="317.4714368305219" x2="722.39522580303" y2="315.5383203228184" stroke="#2563eb" stroke-width="1.2"/>
<line x1="711.1314040806283" y1="321.1877622021139" x2="723.0010133570204" y2="319.4235695749373" stroke="#2563eb" stroke-width="1.2"/>
<line x1="711.1846401122916" y1="321.5476428627231" x2="723.0566692083048" y2="319.7998084473923" stroke="#2563eb" stroke-width="1.2"/>
<line x1="711.2973312566037" y1="322.3210313546568" x2="723.1744826773584" y2="320.60835096168665" stroke="#2563eb" stroke-width="1.2"/>
<line x1="711.5795986887642" y1="324.3332991457718" x2="723.4695804473445" y2="322.7120854705796" stroke="#2563eb" stroke-width="1.2"/>
<line x1="711.5900642350799" y1="324.41013777089324" x2="723.4805217003108" y2="322.79241676047934" stroke="#2563eb" stroke-width="1.2"/>
<line x1="712.1722131492874" y1="328.9882175229374" x2="724.0891319288004" y2="327.57859104670734" stroke="#2563eb" stroke-width="1.2"/>
<line x1="712.1805993785682" y1="329.05919668956983" x2="724.0978993503214" y2="327.6527965390958" stroke="#2563eb" stroke-width="1.2"/>
<line x1="712.7662071263887" y1="334.5064637130949" x2="724.7101256321337" y2="333.3476666091447" stroke="#2563eb" stroke-width="1.2"/>
<line x1="713.9743151245465" y1="363.6825201325442" x2="725.9731476302078" y2="363.8499074112962" stroke="#2563eb" stroke-width="1.2"/>
<line x1="713.719736005693" y1="372.16144897154993" x2="725.7069967332245" y2="372.7142421066204" stroke="#2563eb" stroke-width="1.2"/>
<line x1="713.2097972971115" y1="380.41084532334276" x2="725.1738789924349" y2="381.3386110198584" stroke="#2563eb" stroke-width="1.2"/>
<line x1="712.5092859540406" y1="388.0156168573836" x2="724.4415262246788" y2="389.2890539872646" stroke="#2563eb" stroke-width="1.2"/>
<line x1="712.3327991234094" y1="389.6226687534558" x2="724.2570172653825" y2="390.96915369679465" stroke="#2563eb" stroke-width="1.2"/>
<line x1="711.2230786098286" y1="398.1903548242665" x2="723.0968549102753" y2="399.9262800435513" stroke="#2563eb" stroke-width="1.2"/>
<line x1="709.343271019019" y1="409.36666666036575" x2="721.1316015198835" y2="411.6106060540188" stroke="#2563eb" stroke-width="1.2"/>
<line x1="708.7072439532502" y1="412.59811713467957" x2="720.4666641329435" y2="414.9889406408014" stroke="#2563eb" stroke-width="1.2"/>
<line x1="707.7902012336393" y1="416.92286138204696" x2="719.5079376533503" y2="419.51026417214" stroke="#2563eb" stroke-width="1.2"/>
<line x1="705.1288727295206" y1="427.86205345967704" x2="716.7256396717715" y2="430.94669225329875" stroke="#2563eb" stroke-width="1.2"/>
<line x1="701.5209382829455" y1="440.2073413427147" x2="712.9537082048976" y2="443.8531295855654" stroke="#2563eb" stroke-width="1.2"/>
<line x1="700.8815788012563" y1="442.18536012082103" x2="712.2852869285861" y2="445.9210583081311" stroke="#2563eb" stroke-width="1.2"/>
<line x1="700.8070493902223" y1="442.41252317561083" x2="712.2073698170507" y2="446.15854695632044" stroke="#2563eb" stroke-width="1.2"/>
<line x1="695.9472767744926" y1="455.9475744727879" x2="707.1266984460603" y2="460.3088278579146" stroke="#2563eb" stroke-width="1.2"/>
<line x1="693.6946065881923" y1="461.53294401240527" x2="704.7716341603827" y2="466.14807783115094" stroke="#2563eb" stroke-width="1.2"/>
<line x1="692.2036035053266" y1="465.04006116256124" x2="703.2128582101141" y2="469.81460939722314" stroke="#2563eb" stroke-width="1.2"/>
<line x1="691.0119752674848" y1="467.7461265088694" x2="701.9670650523706" y2="472.643677713818" stroke="#2563eb" stroke-width="1.2"/>
<line x1="690.8686831268411" y1="468.0660792697757" x2="701.8172596326066" y2="472.97817378203825" stroke="#2563eb" stroke-width="1.2"/>
<line x1="690.0147561214312" y1="469.94961047666277" x2="700.9245177633145" y2="474.94732004378386" stroke="#2563eb" stroke-width="1.2"/>
<line x1="686.673758023515" y1="476.9680822405268" x2="697.431656115493" y2="482.28481325145987" stroke="#2563eb" stroke-width="1.2"/>
<line x1="681.830338491975" y1="486.2960575580107" x2="692.3680811507011" y2="492.0367874470112" stroke="#2563eb" stroke-width="1.2"/>
<line x1="679.8909381813545" y1="489.79274456646897" x2="690.3405262805069" y2="495.6924147740358" stroke="#2563eb" stroke-width="1.2"/>
<line x1="678.9636350163236" y1="491.4216642723404" x2="689.3710729716109" y2="497.39537628471953" stroke="#2563eb" stroke-width="1.2"/>
<line x1="667.8413975708781" y1="509.13458855800894" x2="677.7432792786453" y2="515.9134334924639" stroke="#2563eb" stroke-width="1.2"/>
<line x1="665.7242792394622" y1="512.1809296417081" x2="675.5299282958015" y2="519.0982446254221" stroke="#2563eb" stroke-width="1.2"/>
<line x1="662.0388648513388" y1="517.2752993720111" x2="671.6769950718542" y2="524.4241766161934" stroke="#2563eb" stroke-width="1.2"/>
<line x1="661.1698073038405" y1="518.4402489371273" x2="670.7684349085604" y2="525.6420784342695" stroke="#2563eb" stroke-width="1.2"/>
<line x1="655.8454897653631" y1="525.2986217221963" x2="665.2021029365161" y2="532.8121954368415" stroke="#2563eb" stroke-width="1.2"/>
<line x1="652.0619923850337" y1="529.9027699403119" x2="661.2466284025353" y2="537.6256231194171" stroke="#2563eb" stroke-width="1.2"/>
<line x1="646.6467961812759" y1="536.1420947747578" x2="655.5852869167884" y2="544.1485536281558" stroke="#2563eb" stroke-width="1.2"/>
<line x1="643.5051824661118" y1="539.5877065913944" x2="652.3008725782079" y2="547.7507841637305" stroke="#2563eb" stroke-width="1.2"/>
<line x1="642.9317010990294" y1="540.2036589834812" x2="651.7013238762579" y2="548.3947343918213" stroke="#2563eb" stroke-width="1.2"/>
<line x1="637.5609126172081" y1="545.78725483251" x2="646.0864086452631" y2="554.2321300521695" stroke="#2563eb" stroke-width="1.2"/>
<line x1="634.8656824789406" y1="548.4693063647115" x2="643.2686680461651" y2="557.0360930176529" stroke="#2563eb" stroke-width="1.2"/>
<line x1="629.978937140899" y1="553.1413528626956" x2="638.1597979200308" y2="561.9205052655454" stroke="#2563eb" stroke-width="1.2"/>
<line x1="623.8864120453884" y1="558.644193738406" x2="631.7903398656333" y2="567.67347527197" stroke="#2563eb" stroke-width="1.2"/>
<line x1="623.7564984721323" y1="558.7578406974272" x2="631.6545211299565" y2="567.7922880018558" stroke="#2563eb" stroke-width="1.2"/>
<line x1="622.4489573865085" y1="559.8933643128411" x2="630.2875463586224" y2="568.9794263270611" stroke="#2563eb" stroke-width="1.2"/>
<line x1="618.5887632297195" y1="563.1596143741998" x2="626.2518888310703" y2="572.3941423002999" stroke="#2563eb" stroke-width="1.2"/>
<line x1="609.5972651062236" y1="570.296726010211" x2="616.8516862474157" y2="579.8556681015842" stroke="#2563eb" stroke-width="1.2"/>
<line x1="608.9759932189554" y1="570.766775322978" x2="616.202174728908" y2="580.3470832922042" stroke="#2563eb" stroke-width="1.2"/>
<line x1="602.4027810614783" y1="575.5676049983557" x2="609.3301802006364" y2="585.366132498281" stroke="#2563eb" stroke-width="1.2"/>
<line x1="596.9892524347953" y1="579.2946868226862" x2="603.6705820909223" y2="589.2626271328082" stroke="#2563eb" stroke-width="1.2"/>
<line x1="596.1867805267652" y1="579.830446479143" x2="602.8316341870727" y2="589.8227395009222" stroke="#2563eb" stroke-width="1.2"/>
<line x1="583.0316123587083" y1="588.0319936176553" x2="589.0785038295587" y2="598.3970842366397" stroke="#2563eb" stroke-width="1.2"/>
<line x1="581.1330083866707" y1="589.1290774028067" x2="587.0935996769739" y2="599.5440354665706" stroke="#2563eb" stroke-width="1.2"/>
<line x1="576.3669744675868" y1="591.791690454831" x2="582.1109278524772" y2="602.3276763845961" stroke="#2563eb" stroke-width="1.2"/>
<line x1="572.9279234283225" y1="593.6337425150753" x2="578.515556311428" y2="604.2534580839424" stroke="#2563eb" stroke-width="1.2"/>
<line x1="564.5847243888674" y1="597.8367947495242" x2="569.7931209519976" y2="608.6475581472298" stroke="#2563eb" stroke-width="1.2"/>
<line x1="556.4421835262309" y1="601.5906901479611" x2="561.2804645956049" y2="612.5720851546866" stroke="#2563eb" stroke-width="1.2"/>
<line x1="544.972679357755" y1="606.3253746076701" x2="549.289619328562" y2="617.5219825443825" stroke="#2563eb" stroke-width="1.2"/>
<line x1="532.427461278861" y1="610.8021403958146" x2="536.1741640642637" y2="622.2022376865334" stroke="#2563eb" stroke-width="1.2"/>
<line x1="524.2466822195177" y1="613.3444891435256" x2="527.621531411314" y2="624.8601477409586" stroke="#2563eb" stroke-width="1.2"/>
<line x1="524.0968042473827" y1="613.3883651636851" x2="527.464840804082" y2="624.9060181256708" stroke="#2563eb" stroke-width="1.2"/>
<line x1="520.738624690152" y1="614.346313079128" x2="523.9540167215226" y2="625.9075091281792" stroke="#2563eb" stroke-width="1.2"/>
<line x1="513.9292077937475" y1="616.142648520046" x2="516.8350808752816" y2="627.7854961800482" stroke="#2563eb" stroke-width="1.2"/>
<line x1="511.20661426002033" y1="616.8068347432074" x2="513.9887330900212" y2="628.4798726860806" stroke="#2563eb" stroke-width="1.2"/>
<line x1="510.6370507604013" y1="616.9419157612874" x2="513.3932803404196" y2="628.6210937504368" stroke="#2563eb" stroke-width="1.2"/>
<line x1="496.3133072589697" y1="619.9059013772796" x2="498.4184575889229" y2="631.7198059853379" stroke="#2563eb" stroke-width="1.2"/>
<line x1="495.1335260118447" y1="620.113369186857" x2="497.185049921474" y2="631.9367041498958" stroke="#2563eb" stroke-width="1.2"/>
<line x1="493.4417848631216" y1="620.4012506266172" x2="495.41641144780897" y2="632.2376711096451" stroke="#2563eb" stroke-width="1.2"/>
<line x1="492.2096934200609" y1="620.6038023156693" x2="494.12831584824545" y2="632.4494296936543" stroke="#2563eb" stroke-width="1.2"/>
<line x1="488.2465771909182" y1="621.2148528188609" x2="489.9850579723236" y2="633.0882552197181" stroke="#2563eb" stroke-width="1.2"/>
<line x1="486.124481722035" y1="621.5167715851401" x2="487.7665036184912" y2="633.4038975662829" stroke="#2563eb" stroke-width="1.2"/>
<line x1="485.9591551538517" y1="621.5395556328359" x2="487.59366220629954" y2="633.4277172525102" stroke="#2563eb" stroke-width="1.2"/>
<line x1="479.3715942003446" y1="622.3610288402801" x2="480.70666666399666" y2="634.286530151202" stroke="#2563eb" stroke-width="1.2"/>
<line x1="477.86707757093745" y1="622.5250959197145" x2="479.133762915071" y2="634.4580548251562" stroke="#2563eb" stroke-width="1.2"/>
<line x1="477.59591709684787" y1="622.5537380415368" x2="478.85027696488646" y2="634.4879988616066" stroke="#2563eb" stroke-width="1.2"/>
<line x1="473.8561474296346" y1="622.9199198041402" x2="474.9405177673452" y2="634.870825249783" stroke="#2563eb" stroke-width="1.2"/>
<line x1="471.56931412907596" y1="623.1173971595213" x2="472.5497374985794" y2="635.0772788485904" stroke="#2563eb" stroke-width="1.2"/>
<line x1="459.41669669136104" y1="623.832003031139" x2="459.84472835915017" y2="635.8243668052817" stroke="#2563eb" stroke-width="1.2"/>
<line x1="455.9989162345292" y1="623.9318340102443" x2="456.27159424518965" y2="635.9287355561644" stroke="#2563eb" stroke-width="1.2"/>
<line x1="191.77537045886706" y1="305.0815085936927" x2="180.03788729790645" y2="302.58521352976965" stroke="#16a34a" stroke-width="1.2"/>
<line x1="191.91092741640193" y1="304.4479468161775" x2="180.17960593532928" y2="301.92285348964003" stroke="#16a34a" stroke-width="1.2"/>
<line x1="192.61487401388513" y1="301.27269015941755" x2="180.91555010542538" y2="298.6032669848457" stroke="#16a34a" stroke-width="1.2"/>
<line x1="193.95613554480897" y1="295.6762915026524" x2="182.317778069573" y2="292.7524865709548" stroke="#16a34a" stroke-width="1.2"/>
<line x1="194.80007489082814" y1="292.4056346706837" x2="183.20007829495668" y2="289.3331635193511" stroke="#16a34a" stroke-width="1.2"/>
<line x1="195.99256114232261" y1="288.05404107968764" x2="184.44676846697362" y2="284.78377021967344" stroke="#16a34a" stroke-width="1.2"/>
<line x1="196.00181527833138" y1="288.0213770755711" x2="184.45644324552825" y2="284.7496214880971" stroke="#16a34a" stroke-width="1.2"/>
<line x1="196.00415382994913" y1="288.0131253049567" x2="184.45888809494681" y2="284.7409946370002" stroke="#16a34a" stroke-width="1.2"/>
<line x1="196.01653312817433" y1="287.9694609504534" x2="184.47183008854591" y2="284.6953455391104" stroke="#16a34a" stroke-width="1.2"/>
<line x1="197.41443458492714" y1="283.21111965949785" x2="185.93327252060564" y2="279.72071600765685" stroke="#16a34a" stroke-width="1.2"/>
<line x1="198.60891709688295" y1="279.3865802933647" x2="187.18204969219582" y2="275.7223339430631" stroke="#16a34a" stroke-width="1.2"/>
<line x1="198.69482972238742" y1="279.1191531217672" x2="187.27186743704138" y2="275.4427509909384" stroke="#16a34a" stroke-width="1.2"/>
<line x1="199.78142556441168" y1="275.8176680803985" x2="188.40785399915768" y2="271.9911984476893" stroke="#16a34a" stroke-width="1.2"/>
<line x1="200.07729675527023" y1="274.94329889510925" x2="188.71717388050976" y2="271.0770852085233" stroke="#16a34a" stroke-width="1.2"/>
<line x1="200.45589282725294" y1="273.8388801410025" x2="189.11297886485536" y2="269.92246560195713" stroke="#16a34a" stroke-width="1.2"/>
<line x1="200.96412660913563" y1="272.3807454696779" x2="189.64431418227815" y2="268.39805208193593" stroke="#16a34a" stroke-width="1.2"/>
<line x1="201.57059397454603" y1="270.67570195159584" x2="190.27834824611628" y2="266.6155065857593" stroke="#16a34a" stroke-width="1.2"/>
<line x1="203.17718337032838" y1="266.32771385839095" x2="191.95796443261602" y2="262.069882670136" stroke="#16a34a" stroke-width="1.2"/>
<line x1="204.67829629157183" y1="262.4640492454491" x2="193.52730975937055" y2="258.030596938424" stroke="#16a34a" stroke-width="1.2"/>
<line x1="209.70651023539352" y1="250.66090005516338" x2="198.78407888245687" y2="245.69094096676173" stroke="#16a34a" stroke-width="1.2"/>
<line x1="209.91801602173808" y1="250.19726338081736" x2="199.00519856818073" y2="245.20622989812725" stroke="#16a34a" stroke-width="1.2"/>
<line x1="213.48796838057893" y1="242.70524777615165" x2="202.73742148878705" y2="237.3736681296131" stroke="#16a34a" stroke-width="1.2"/>
<line x1="218.11309668501272" y1="233.80782880469266" x2="207.57278289796787" y2="228.07182102308778" stroke="#16a34a" stroke-width="1.2"/>
<line x1="218.72856053220755" y1="232.6833817347664" x2="208.21622237458064" y2="226.89626272271036" stroke="#16a34a" stroke-width="1.2"/>
<line x1="220.9565304907434" y1="228.7175218273122" x2="210.54546369486812" y2="222.75013645582638" stroke="#16a34a" stroke-width="1.2"/>
<line x1="226.78495629786076" y1="219.0353084455116" x2="216.6388179477635" y2="212.6278224657621" stroke="#16a34a" stroke-width="1.2"/>
<line x1="231.2988325702373" y1="212.1291125175111" x2="221.35787041433898" y2="205.4077085410343" stroke="#16a34a" stroke-width="1.2"/>
<line x1="238.28518590690405" y1="202.28875279953616" x2="228.66178526630878" y2="195.12005974496964" stroke="#16a34a" stroke-width="1.2"/>
<line x1="244.82815122241476" y1="193.8659803977894" x2="235.50215809616088" y2="186.31443405223436" stroke="#16a34a" stroke-width="1.2"/>
<line x1="246.88489378056155" y1="191.3576161652527" x2="237.6523889524053" y2="183.69205326367324" stroke="#16a34a" stroke-width="1.2"/>
<line x1="252.36230393549192" y1="184.97045651001335" x2="243.37877229619608" y2="177.0145681695594" stroke="#16a34a" stroke-width="1.2"/>
<line x1="258.94494552727815" y1="177.80788666787663" x2="250.26062486942718" y2="169.52642697096195" stroke="#16a34a" stroke-width="1.2"/>
<line x1="259.2223729156688" y1="177.5174062983763" x2="250.55066259365378" y2="169.2227429483025" stroke="#16a34a" stroke-width="1.2"/>
<line x1="260.3867137919227" y1="176.3078616451598" x2="251.7679280551919" y2="167.95821899266707" stroke="#16a34a" stroke-width="1.2"/>
<line x1="267.24746329273336" y1="169.48094497646926" x2="258.94052980603936" y2="160.82098792994512" stroke="#16a34a" stroke-width="1.2"/>
<line x1="275.5989700353771" y1="161.8074654602785" x2="267.6716504915306" y2="152.79871389029117" stroke="#16a34a" stroke-width="1.2"/>
<line x1="278.0413207833722" y1="159.68471690339524" x2="270.22501718261645" y2="150.5794767626405" stroke="#16a34a" stroke-width="1.2"/>
<line x1="285.5490125062975" y1="153.47670176867186" x2="278.0739676202201" y2="144.08927912179328" stroke="#16a34a" stroke-width="1.2"/>
<line x1="285.60325298005034" y1="153.43352263917876" x2="278.13067357005264" y2="144.04413730459595" stroke="#16a34a" stroke-width="1.2"/>
<line x1="292.67246648623995" y1="147.99988868286712" x2="285.52121496288726" y2="138.3635199866338" stroke="#16a34a" stroke-width="1.2"/>
<line x1="303.75549513863405" y1="140.20795101311353" x2="297.10801764493556" y2="130.21740333189143" stroke="#16a34a" stroke-width="1.2"/>
<line x1="304.2649472926146" y1="139.8698239396161" x2="297.6406267150062" y2="129.8639068459623" stroke="#16a34a" stroke-width="1.2"/>
<line x1="310.2926850683858" y1="135.99583451507254" x2="303.9423525714942" y2="125.81382699303037" stroke="#16a34a" stroke-width="1.2"/>
<line x1="311.7096961231035" y1="135.11827140997954" x2="305.4237732196083" y2="124.8963746558877" stroke="#16a34a" stroke-width="1.2"/>
<line x1="316.0203636875726" y1="132.5237219981176" x2="309.9303802188259" y2="122.1838911798502" stroke="#16a34a" stroke-width="1.2"/>
<line x1="317.8314688577287" y1="131.46667775640583" x2="311.8238083512618" y2="121.0787994726061" stroke="#16a34a" stroke-width="1.2"/>
<line x1="322.35917559659043" y1="128.90733472128986" x2="316.55731994188994" y2="118.40312266316667" stroke="#16a34a" stroke-width="1.2"/>
<line x1="323.6631480849031" y1="128.19189002931137" x2="317.92056390694415" y2="117.65515775791641" stroke="#16a34a" stroke-width="1.2"/>
<line x1="325.44634313585203" y1="127.22889663498157" x2="319.7848132783908" y2="116.64839193657164" stroke="#16a34a" stroke-width="1.2"/>
<line x1="326.9060716666992" y1="126.45367738395835" x2="321.31089310609457" y2="115.83793544686556" stroke="#16a34a" stroke-width="1.2"/>
<line x1="337.5779832346704" y1="121.1333213978644" x2="332.467891563519" y2="110.27574509776734" stroke="#16a34a" stroke-width="1.2"/>
<line x1="337.5857435152562" y1="121.12966919480722" x2="332.47600458413143" y2="110.27192688548028" stroke="#16a34a" stroke-width="1.2"/>
<line x1="341.4509285987417" y1="119.3485942323949" x2="336.51687989868446" y2="108.40989397023102" stroke="#16a34a" stroke-width="1.2"/>
<line x1="346.3468559308053" y1="117.1996175361934" x2="341.6353493822055" y2="106.16323651511128" stroke="#16a34a" stroke-width="1.2"/>
<line x1="347.87061189624967" y1="116.55475341351695" x2="343.2283669824428" y2="105.48906038685863" stroke="#16a34a" stroke-width="1.2"/>
<line x1="347.9582762464581" y1="116.51799529861383" x2="343.32001607584255" y2="105.45063144855082" stroke="#16a34a" stroke-width="1.2"/>
<line x1="354.06840623649487" y1="114.04648951886492" x2="349.7078792472446" y2="102.86678449699514" stroke="#16a34a" stroke-width="1.2"/>
<line x1="356.5987354078248" y1="113.07449752489624" x2="352.35322338090776" y2="101.85061104875517" stroke="#16a34a" stroke-width="1.2"/>
<line x1="358.6133372242402" y1="112.3218260187031" x2="354.45939800716025" y2="101.06372720137144" stroke="#16a34a" stroke-width="1.2"/>
<line x1="380.99481358498605" y1="105.17793610476117" x2="377.8582142024854" y2="93.59511501861395" stroke="#16a34a" stroke-width="1.2"/>
<line x1="381.26356063179884" y1="105.10531213267389" x2="378.1391770241533" y2="93.51918995688634" stroke="#16a34a" stroke-width="1.2"/>
<line x1="381.5348000717624" y1="105.03232283525338" x2="378.4227455295698" y2="93.44288296412853" stroke="#16a34a" stroke-width="1.2"/>
<line x1="383.317712111336" y1="104.56023707744062" x2="380.2866990254876" y2="92.94933876277882" stroke="#16a34a" stroke-width="1.2"/>
<line x1="390.4141877868078" y1="102.81226510019148" x2="387.7057417771173" y2="91.12191351383656" stroke="#16a34a" stroke-width="1.2"/>
<line x1="395.4356507168537" y1="101.70030625781456" x2="392.95545302216516" y2="89.95941108771521" stroke="#16a34a" stroke-width="1.2"/>
<line x1="397.27721785240493" y1="101.31813313914475" x2="394.88072775478696" y2="89.55986646365133" stroke="#16a34a" stroke-width="1.2"/>
<line x1="398.08320297224367" y1="101.15516967422597" x2="395.7233485618911" y2="89.38949556850896" stroke="#16a34a" stroke-width="1.2"/>
<line x1="404.5390538675559" y1="99.94365538071749" x2="402.472647225172" y2="88.12291244347738" stroke="#16a34a" stroke-width="1.2"/>
<line x1="408.1618130600257" y1="99.33629690043959" x2="406.26007729002686" y2="87.4879467595505" stroke="#16a34a" stroke-width="1.2"/>
<line x1="430.77546290373755" y1="96.7008978871473" x2="429.90162030845283" y2="84.73275688201764" stroke="#16a34a" stroke-width="1.2"/>
<line x1="434.6837499637137" y1="96.44466902597863" x2="433.9875567802461" y2="84.4648812544322" stroke="#16a34a" stroke-width="1.2"/>
<line x1="435.0283954542276" y1="96.42486639038762" x2="434.34786797487436" y2="84.44417849904161" stroke="#16a34a" stroke-width="1.2"/>
<line x1="446.4811375102185" y1="96.0234525440224" x2="446.32118921522846" y2="84.0245185687507" stroke="#16a34a" stroke-width="1.2"/>
<line x1="448.37757609189663" y1="96.00498538672666" x2="448.30382955061924" y2="84.00521199521422" stroke="#16a34a" stroke-width="1.2"/>
<line x1="449.98034496110955" y1="96.00000073166773" x2="449.9794515502509" y2="84.00000076492536" stroke="#16a34a" stroke-width="1.2"/>
<line x1="450.017868217176" y1="96.00000060468408" x2="450.01868040886586" y2="84.00000063216972" stroke="#16a34a" stroke-width="1.2"/>
<line x1="450.04431317842227" y1="96.00000371904889" x2="450.0463274138051" y2="84.00000388809656" stroke="#16a34a" stroke-width="1.2"/>
<line x1="450.23514570712354" y1="96.0001047225654" x2="450.24583414835644" y2="84.000109482682" stroke="#16a34a" stroke-width="1.2"/>
<line x1="450.5174632384675" y1="96.00050713723552" x2="450.5409842947614" y2="84.00053018892804" stroke="#16a34a" stroke-width="1.2"/>
<line x1="452.2996104706905" y1="96.01001573604523" x2="452.4041382193582" y2="84.01047099677456" stroke="#16a34a" stroke-width="1.2"/>
<line x1="455.6337785541109" y1="96.06011946050434" x2="455.88985939747954" y2="84.06285216325453" stroke="#16a34a" stroke-width="1.2"/>
<line x1="458.6238113711434" y1="96.14089009959322" x2="459.0158027971044" y2="84.14729419502929" stroke="#16a34a" stroke-width="1.2"/>
<line x1="460.24092143732827" y1="96.19870446088694" x2="460.7064178662977" y2="84.20773648183635" stroke="#16a34a" stroke-width="1.2"/>
<line x1="464.9869464569562" y1="96.42573829014276" x2="465.66817129590873" y2="84.44509003060381" stroke="#16a34a" stroke-width="1.2"/>
<line x1="465.2869954238538" y1="96.44297055302985" x2="465.98185885221073" y2="84.46310557816759" stroke="#16a34a" stroke-width="1.2"/>
<line x1="466.09214078797964" y1="96.49090527107066" x2="466.82360173288777" y2="84.51321914702842" stroke="#16a34a" stroke-width="1.2"/>
<line x1="467.48910126319834" y1="96.57993368574672" x2="468.2840604115255" y2="84.60629430782613" stroke="#16a34a" stroke-width="1.2"/>
<line x1="475.48997934240356" y1="97.23344780371333" x2="476.64861476705823" y2="85.28951361297304" stroke="#16a34a" stroke-width="1.2"/>
<line x1="482.3184521013808" y1="97.9856537252764" x2="483.7874726514435" y2="86.07591071278897" stroke="#16a34a" stroke-width="1.2"/>
<line x1="488.98437472588427" y1="98.8942388088079" x2="490.75639175887903" y2="87.02579511829916" stroke="#16a34a" stroke-width="1.2"/>
<line x1="493.0356604025324" y1="99.53132254776216" x2="494.9918267844657" y2="87.69183720902407" stroke="#16a34a" stroke-width="1.2"/>
<line x1="493.0398914067634" y1="99.5320216462415" x2="494.9962501070708" y2="87.69256808470703" stroke="#16a34a" stroke-width="1.2"/>
<line x1="499.2423854918676" y1="100.63310259196473" x2="501.480675741498" y2="88.84369816432675" stroke="#16a34a" stroke-width="1.2"/>
<line x1="505.6575561650271" y1="101.93365883607204" x2="508.18744508161916" y2="90.20337060134806" stroke="#16a34a" stroke-width="1.2"/>
<line x1="507.267930157399" y1="102.28623596034444" x2="509.8710178918263" y2="90.57197395854192" stroke="#16a34a" stroke-width="1.2"/>
<line x1="509.0324757286293" y1="102.68469379116057" x2="511.7157700799307" y2="90.9885435089406" stroke="#16a34a" stroke-width="1.2"/>
<line x1="514.2266574197755" y1="103.93177378541712" x2="517.1460509388563" y2="92.29230895748152" stroke="#16a34a" stroke-width="1.2"/>
<line x1="528.2250321269221" y1="107.85550898593482" x2="531.7807154054185" y2="96.39439575802277" stroke="#16a34a" stroke-width="1.2"/>
<line x1="534.4755960724555" y1="109.8802813287138" x2="538.3153958939307" y2="98.51120320729171" stroke="#16a34a" stroke-width="1.2"/>
<line x1="537.1515314222955" y1="110.8000590474616" x2="541.1129646687635" y2="99.4727890041644" stroke="#16a34a" stroke-width="1.2"/>
<line x1="545.0230266680624" y1="113.69404310321544" x2="549.3422551529743" y2="102.49831778972522" stroke="#16a34a" stroke-width="1.2"/>
<line x1="548.3088800441719" y1="114.9870123759546" x2="552.7774655007252" y2="103.85005839304344" stroke="#16a34a" stroke-width="1.2"/>
<line x1="558.3017634865756" y1="119.23719551039898" x2="563.2245709177836" y2="108.29343166996256" stroke="#16a34a" stroke-width="1.2"/>
<line x1="558.6321333384087" y1="119.38607769635149" x2="563.5699575810636" y2="108.44908122800382" stroke="#16a34a" stroke-width="1.2"/>
<line x1="561.4876707148376" y1="120.69580179491219" x2="566.5552921109665" y2="109.81833824013547" stroke="#16a34a" stroke-width="1.2"/>
<line x1="565.3069684333491" y1="122.51252026536083" x2="570.5481942712286" y2="111.71763482287723" stroke="#16a34a" stroke-width="1.2"/>
<line x1="566.643112819441" y1="123.16591412596209" x2="571.945072493052" y2="112.40072840441492" stroke="#16a34a" stroke-width="1.2"/>
<line x1="572.5973099215374" y1="126.19260148574745" x2="578.1699149179709" y2="115.56499246237235" stroke="#16a34a" stroke-width="1.2"/>
<line x1="582.2517388127668" y1="131.5148197781753" x2="588.2631814860744" y2="121.12912976809235" stroke="#16a34a" stroke-width="1.2"/>
<line x1="585.1221817002604" y1="133.20053789181554" x2="591.2640990502723" y2="122.8914714323526" stroke="#16a34a" stroke-width="1.2"/>
<line x1="586.230698518926" y1="133.86464942197682" x2="592.4230029970591" y2="123.58576985024848" stroke="#16a34a" stroke-width="1.2"/>
<line x1="586.3522040169424" y1="133.93789247261697" x2="592.550031472258" y2="123.66234213046319" stroke="#16a34a" stroke-width="1.2"/>
<line x1="586.5645144861737" y1="134.06608624831102" x2="592.7719924173634" y2="123.79636289596152" stroke="#16a34a" stroke-width="1.2"/>
<line x1="595.4509567405959" y1="139.6820044044397" x2="602.0623638651683" y2="129.667550059187" stroke="#16a34a" stroke-width="1.2"/>
<line x1="605.9611616199878" y1="146.9926854163359" x2="613.0503053299873" y2="137.31053475344206" stroke="#16a34a" stroke-width="1.2"/>
<line x1="606.0078686177601" y1="147.02689153476746" x2="613.0991353731129" y2="137.3462956954387" stroke="#16a34a" stroke-width="1.2"/>
<line x1="625.3997686279026" y1="162.6907980724715" x2="633.3724853837164" y2="153.72219798485654" stroke="#16a34a" stroke-width="1.2"/>
<line x1="625.4203334631759" y1="162.70908128434243" x2="633.3939849842293" y2="153.74131225181256" stroke="#16a34a" stroke-width="1.2"/>
<line x1="626.7564004231057" y1="163.90518897873227" x2="634.7907822605197" y2="154.99178847776557" stroke="#16a34a" stroke-width="1.2"/>
<line x1="627.6139439974685" y1="164.68157563183095" x2="635.6873050882624" y2="155.8034654332778" stroke="#16a34a" stroke-width="1.2"/>
<line x1="636.0082658920585" y1="172.65826674275348" x2="644.4631870689702" y2="164.14273341287867" stroke="#16a34a" stroke-width="1.2"/>
<line x1="636.3978926277741" y1="173.04592643131633" x2="644.8705241108548" y2="164.54801399637614" stroke="#16a34a" stroke-width="1.2"/>
<line x1="636.546639261603" y1="173.19434863955178" x2="645.0260319553123" y2="164.70318266862233" stroke="#16a34a" stroke-width="1.2"/>
<line x1="638.7855884931139" y1="175.45731773568295" x2="647.3667516064372" y2="167.0690139963958" stroke="#16a34a" stroke-width="1.2"/>
<line x1="643.6194000160289" y1="180.53544099897334" x2="652.4202818349394" y2="172.3779610443812" stroke="#16a34a" stroke-width="1.2"/>
<line x1="644.5967404623893" y1="181.59565980219693" x2="653.4420468470435" y2="173.48637161138768" stroke="#16a34a" stroke-width="1.2"/>
<line x1="644.9670188314881" y1="182.00038885446358" x2="653.8291560511011" y2="173.90949743875737" stroke="#16a34a" stroke-width="1.2"/>
<line x1="649.9897421448616" y1="187.66282166394916" x2="659.0801849696279" y2="179.82931355776503" stroke="#16a34a" stroke-width="1.2"/>
<line x1="656.974193461144" y1="196.11686102252935" x2="666.3821113457415" y2="188.66762743264434" stroke="#16a34a" stroke-width="1.2"/>
<line x1="656.9832886181607" y1="196.12834829412628" x2="666.3916199189862" y2="188.67963685295018" stroke="#16a34a" stroke-width="1.2"/>
<line x1="657.8395696066324" y1="197.21574613701173" x2="667.2868227705702" y2="189.81646187051226" stroke="#16a34a" stroke-width="1.2"/>
<line x1="658.032012944388" y1="197.46175345382255" x2="667.4880135327694" y2="190.0736513380872" stroke="#16a34a" stroke-width="1.2"/>
<line x1="662.3057434176794" y1="203.08514629944534" x2="671.9560044821194" y2="195.95265294942016" stroke="#16a34a" stroke-width="1.2"/>
<line x1="665.3780547920126" y1="207.329460883873" x2="675.1679663734676" y2="200.38989092404907" stroke="#16a34a" stroke-width="1.2"/>
<line x1="666.3931229216427" y1="208.7716417062632" x2="676.2291739635356" y2="201.89762542018428" stroke="#16a34a" stroke-width="1.2"/>
<line x1="668.6645303705486" y1="212.07494073745505" x2="678.6038272055735" y2="205.35107440733935" stroke="#16a34a" stroke-width="1.2"/>
<line x1="671.7301610822191" y1="216.7110064713511" x2="681.8088047677744" y2="210.19787040186705" stroke="#16a34a" stroke-width="1.2"/>
<line x1="682.035015311306" y1="234.08037615414347" x2="692.58206146182" y2="228.35675688842272" stroke="#16a34a" stroke-width="1.2"/>
<line x1="683.4315823573908" y1="236.688620321867" x2="694.0421088281813" y2="231.0835576092246" stroke="#16a34a" stroke-width="1.2"/>
<line x1="684.0622944697294" y1="237.89004009678135" x2="694.7014896728989" y2="232.3395873739078" stroke="#16a34a" stroke-width="1.2"/>
<line x1="686.4797910867917" y1="242.64026070433133" x2="697.2288724998277" y2="237.30572709998276" stroke="#16a34a" stroke-width="1.2"/>
<line x1="687.9477403042165" y1="245.64584448251506" x2="698.763546681681" y2="240.4479283226294" stroke="#16a34a" stroke-width="1.2"/>
<line x1="691.6927356726139" y1="253.78972967227702" x2="702.6787691122781" y2="248.96199011192596" stroke="#16a34a" stroke-width="1.2"/>
<line x1="695.6514200887699" y1="263.2974674149083" x2="706.8173937291684" y2="258.9018977519496" stroke="#16a34a" stroke-width="1.2"/>
<line x1="699.7143666440921" y1="274.3335824751616" x2="711.065019673369" y2="270.4396544058508" stroke="#16a34a" stroke-width="1.2"/>
<line x1="701.2531131542028" y1="278.9575843750857" x2="712.6737092066664" y2="275.2738382103168" stroke="#16a34a" stroke-width="1.2"/>
<line x1="703.2037329793188" y1="285.27470571929587" x2="714.7129935692878" y2="281.8781014338093" stroke="#16a34a" stroke-width="1.2"/>
<line x1="706.9437214406713" y1="299.3706010897461" x2="718.6229815061564" y2="296.6147193210982" stroke="#16a34a" stroke-width="1.2"/>
<line x1="710.4554995562477" y1="316.88465759262215" x2="722.2943858997136" y2="314.9248693013777" stroke="#16a34a" stroke-width="1.2"/>
<line x1="191.77537045886706" y1="305.0815085936927" x2="180.03788729790645" y2="302.58521352976965" stroke="#a855f7" stroke-width="1.2"/>
<line x1="191.91092741640193" y1="304.4479468161775" x2="180.17960593532928" y2="301.92285348964003" stroke="#a855f7" stroke-width="1.2"/>
<line x1="192.61487401388513" y1="301.27269015941755" x2="180.91555010542538" y2="298.6032669848457" stroke="#a855f7" stroke-width="1.2"/>
<line x1="193.95613554480897" y1="295.6762915026524" x2="182.317778069573" y2="292.7524865709548" stroke="#a855f7" stroke-width="1.2"/>
<line x1="194.80007489082814" y1="292.4056346706837" x2="183.20007829495668" y2="289.3331635193511" stroke="#a855f7" stroke-width="1.2"/>
<line x1="195.99256114232261" y1="288.05404107968764" x2="184.44676846697362" y2="284.78377021967344" stroke="#a855f7" stroke-width="1.2"/>
<line x1="196.00181527833138" y1="288.0213770755711" x2="184.45644324552825" y2="284.7496214880971" stroke="#a855f7" stroke-width="1.2"/>
<line x1="196.00415382994913" y1="288.0131253049567" x2="184.45888809494681" y2="284.7409946370002" stroke="#a855f7" stroke-width="1.2"/>
<line x1="196.01653312817433" y1="287.9694609504534" x2="184.47183008854591" y2="284.6953455391104" stroke="#a855f7" stroke-width="1.2"/>
<line x1="197.41443458492714" y1="283.21111965949785" x2="185.93327252060564" y2="279.72071600765685" stroke="#a855f7" stroke-width="1.2"/>
<line x1="198.60891709688295" y1="279.3865802933647" x2="187.18204969219582" y2="275.7223339430631" stroke="#a855f7" stroke-width="1.2"/>
<line x1="198.69482972238742" y1="279.1191531217672" x2="187.27186743704138" y2="275.4427509909384" stroke="#a855f7" stroke-width="1.2"/>
<line x1="199.78142556441168" y1="275.8176680803985" x2="188.40785399915768" y2="271.9911984476893" stroke="#a855f7" stroke-width="1.2"/>
<line x1="200.07729675527023" y1="274.94329889510925" x2="188.71717388050976" y2="271.0770852085233" stroke="#a855f7" stroke-width="1.2"/>
<line x1="200.45589282725294" y1="273.8388801410025" x2="189.11297886485536" y2="269.92246560195713" stroke="#a855f7" stroke-width="1.2"/>
<line x1="200.96412660913563" y1="272.3807454696779" x2="189.64431418227815" y2="268.39805208193593" stroke="#a855f7" stroke-width="1.2"/>
<line x1="201.57059397454603" y1="270.67570195159584" x2="190.27834824611628" y2="266.6155065857593" stroke="#a855f7" stroke-width="1.2"/>
<line x1="203.17718337032838" y1="266.32771385839095" x2="191.95796443261602" y2="262.069882670136" stroke="#a855f7" stroke-width="1.2"/>
<line x1="204.67829629157183" y1="262.4640492454491" x2="193.52730975937055" y2="258.030596938424" stroke="#a855f7" stroke-width="1.2"/>
<line x1="209.70651023539352" y1="250.66090005516338" x2="198.78407888245687" y2="245.69094096676173" stroke="#a855f7" stroke-width="1.2"/>
<line x1="209.91801602173808" y1="250.19726338081736" x2="199.00519856818073" y2="245.20622989812725" stroke="#a855f7" stroke-width="1.2"/>
<line x1="213.48796838057893" y1="242.70524777615165" x2="202.73742148878705" y2="237.3736681296131" stroke="#a855f7" stroke-width="1.2"/>
<line x1="218.11309668501272" y1="233.80782880469266" x2="207.57278289796787" y2="228.07182102308778" stroke="#a855f7" stroke-width="1.2"/>
<line x1="218.72856053220755" y1="232.6833817347664" x2="208.21622237458064" y2="226.89626272271036" stroke="#a855f7" stroke-width="1.2"/>
<line x1="220.9565304907434" y1="228.7175218273122" x2="210.54546369486812" y2="222.75013645582638" stroke="#a855f7" stroke-width="1.2"/>
<line x1="226.78495629786076" y1="219.0353084455116" x2="216.6388179477635" y2="212.6278224657621" stroke="#a855f7" stroke-width="1.2"/>
<line x1="231.2988325702373" y1="212.1291125175111" x2="221.35787041433898" y2="205.4077085410343" stroke="#a855f7" stroke-width="1.2"/>
<line x1="238.28518590690405" y1="202.28875279953616" x2="228.66178526630878" y2="195.12005974496964" stroke="#a855f7" stroke-width="1.2"/>
<line x1="244.82815122241476" y1="193.8659803977894" x2="235.50215809616088" y2="186.31443405223436" stroke="#a855f7" stroke-width="1.2"/>
<line x1="246.88489378056155" y1="191.3576161652527" x2="237.6523889524053" y2="183.69205326367324" stroke="#a855f7" stroke-width="1.2"/>
<line x1="252.36230393549192" y1="184.97045651001335" x2="243.37877229619608" y2="177.0145681695594" stroke="#a855f7" stroke-width="1.2"/>
<line x1="258.94494552727815" y1="177.80788666787663" x2="250.26062486942718" y2="169.52642697096195" stroke="#a855f7" stroke-width="1.2"/>
<line x1="259.2223729156688" y1="177.5174062983763" x2="250.55066259365378" y2="169.2227429483025" stroke="#a855f7" stroke-width="1.2"/>
<line x1="260.3867137919227" y1="176.3078616451598" x2="251.7679280551919" y2="167.95821899266707" stroke="#a855f7" stroke-width="1.2"/>
<line x1="267.24746329273336" y1="169.48094497646926" x2="258.94052980603936" y2="160.82098792994512" stroke="#a855f7" stroke-width="1.2"/>
<line x1="275.5989700353771" y1="161.8074654602785" x2="267.6716504915306" y2="152.79871389029117" stroke="#a855f7" stroke-width="1.2"/>
<line x1="278.0413207833722" y1="159.68471690339524" x2="270.22501718261645" y2="150.5794767626405" stroke="#a855f7" stroke-width="1.2"/>
<line x1="285.5490125062975" y1="153.47670176867186" x2="278.0739676202201" y2="144.08927912179328" stroke="#a855f7" stroke-width="1.2"/>
<line x1="285.60325298005034" y1="153.43352263917876" x2="278.13067357005264" y2="144.04413730459595" stroke="#a855f7" stroke-width="1.2"/>
<line x1="292.67246648623995" y1="147.99988868286712" x2="285.52121496288726" y2="138.3635199866338" stroke="#a855f7" stroke-width="1.2"/>
<line x1="303.75549513863405" y1="140.20795101311353" x2="297.10801764493556" y2="130.21740333189143" stroke="#a855f7" stroke-width="1.2"/>
<line x1="304.2649472926146" y1="139.8698239396161" x2="297.6406267150062" y2="129.8639068459623" stroke="#a855f7" stroke-width="1.2"/>
<line x1="310.2926850683858" y1="135.99583451507254" x2="303.9423525714942" y2="125.81382699303037" stroke="#a855f7" stroke-width="1.2"/>
<line x1="311.7096961231035" y1="135.11827140997954" x2="305.4237732196083" y2="124.8963746558877" stroke="#a855f7" stroke-width="1.2"/>
<line x1="316.0203636875726" y1="132.5237219981176" x2="309.9303802188259" y2="122.1838911798502" stroke="#a855f7" stroke-width="1.2"/>
<line x1="317.8314688577287" y1="131.46667775640583" x2="311.8238083512618" y2="121.0787994726061" stroke="#a855f7" stroke-width="1.2"/>
<line x1="322.35917559659043" y1="128.90733472128986" x2="316.55731994188994" y2="118.40312266316667" stroke="#a855f7" stroke-width="1.2"/>
<line x1="323.6631480849031" y1="128.19189002931137" x2="317.92056390694415" y2="117.65515775791641" stroke="#a855f7" stroke-width="1.2"/>
<line x1="325.44634313585203" y1="127.22889663498157" x2="319.7848132783908" y2="116.64839193657164" stroke="#a855f7" stroke-width="1.2"/>
<line x1="326.9060716666992" y1="126.45367738395835" x2="321.31089310609457" y2="115.83793544686556" stroke="#a855f7" stroke-width="1.2"/>
<line x1="337.5779832346704" y1="121.1333213978644" x2="332.467891563519" y2="110.27574509776734" stroke="#a855f7" stroke-width="1.2"/>
<line x1="337.5857435152562" y1="121.12966919480722" x2="332.47600458413143" y2="110.27192688548028" stroke="#a855f7" stroke-width="1.2"/>
<line x1="341.4509285987417" y1="119.3485942323949" x2="336.51687989868446" y2="108.40989397023102" stroke="#a855f7" stroke-width="1.2"/>
<line x1="346.3468559308053" y1="117.1996175361934" x2="341.6353493822055" y2="106.16323651511128" stroke="#a855f7" stroke-width="1.2"/>
<line x1="347.87061189624967" y1="116.55475341351695" x2="343.2283669824428" y2="105.48906038685863" stroke="#a855f7" stroke-width="1.2"/>
<line x1="347.9582762464581" y1="116.51799529861383" x2="343.32001607584255" y2="105.45063144855082" stroke="#a855f7" stroke-width="1.2"/>
<line x1="354.06840623649487" y1="114.04648951886492" x2="349.7078792472446" y2="102.86678449699514" stroke="#a855f7" stroke-width="1.2"/>
<line x1="356.5987354078248" y1="113.07449752489624" x2="352.35322338090776" y2="101.85061104875517" stroke="#a855f7" stroke-width="1.2"/>
<line x1="358.6133372242402" y1="112.3218260187031" x2="354.45939800716025" y2="101.06372720137144" stroke="#a855f7" stroke-width="1.2"/>
<line x1="380.99481358498605" y1="105.17793610476117" x2="377.8582142024854" y2="93.59511501861395" stroke="#a855f7" stroke-width="1.2"/>
<line x1="381.26356063179884" y1="105.10531213267389" x2="378.1391770241533" y2="93.51918995688634" stroke="#a855f7" stroke-width="1.2"/>
<line x1="381.5348000717624" y1="105.03232283525338" x2="378.4227455295698" y2="93.44288296412853" stroke="#a855f7" stroke-width="1.2"/>
<line x1="383.317712111336" y1="104.56023707744062" x2="380.2866990254876" y2="92.94933876277882" stroke="#a855f7" stroke-width="1.2"/>
<line x1="390.4141877868078" y1="102.81226510019148" x2="387.7057417771173" y2="91.12191351383656" stroke="#a855f7" stroke-width="1.2"/>
<line x1="395.4356507168537" y1="101.70030625781456" x2="392.95545302216516" y2="89.95941108771521" stroke="#a855f7" stroke-width="1.2"/>
<line x1="397.27721785240493" y1="101.31813313914475" x2="394.88072775478696" y2="89.55986646365133" stroke="#a855f7" stroke-width="1.2"/>
<line x1="398.08320297224367" y1="101.15516967422597" x2="395.7233485618911" y2="89.38949556850896" stroke="#a855f7" stroke-width="1.2"/>
<line x1="404.5390538675559" y1="99.94365538071749" x2="402.472647225172" y2="88.12291244347738" stroke="#a855f7" stroke-width="1.2"/>
<line x1="408.1618130600257" y1="99.33629690043959" x2="406.26007729002686" y2="87.4879467595505" stroke="#a855f7" stroke-width="1.2"/>
<line x1="430.77546290373755" y1="96.7008978871473" x2="429.90162030845283" y2="84.73275688201764" stroke="#a855f7" stroke-width="1.2"/>
<line x1="434.6837499637137" y1="96.44466902597863" x2="433.9875567802461" y2="84.4648812544322" stroke="#a855f7" stroke-width="1.2"/>
<line x1="435.0283954542276" y1="96.42486639038762" x2="434.34786797487436" y2="84.44417849904161" stroke="#a855f7" stroke-width="1.2"/>
<line x1="446.4811375102185" y1="96.0234525440224" x2="446.32118921522846" y2="84.0245185687507" stroke="#a855f7" stroke-width="1.2"/>
<line x1="448.37757609189663" y1="96.00498538672666" x2="448.30382955061924" y2="84.00521199521422" stroke="#a855f7" stroke-width="1.2"/>
<line x1="449.98034496110955" y1="96.00000073166773" x2="449.9794515502509" y2="84.00000076492536" stroke="#a855f7" stroke-width="1.2"/>
<line x1="450.017868217176" y1="96.00000060468408" x2="450.01868040886586" y2="84.00000063216972" stroke="#a855f7" stroke-width="1.2"/>
<line x1="450.04431317842227" y1="96.00000371904889" x2="450.0463274138051" y2="84.00000388809656" stroke="#a855f7" stroke-width="1.2"/>
<line x1="450.23514570712354" y1="96.0001047225654" x2="450.24583414835644" y2="84.000109482682" stroke="#a855f7" stroke-width="1.2"/>
<line x1="450.5174632384675" y1="96.00050713723552" x2="450.5409842947614" y2="84.00053018892804" stroke="#a855f7" stroke-width="1.2"/>
<line x1="452.2996104706905" y1="96.01001573604523" x2="452.4041382193582" y2="84.01047099677456" stroke="#a855f7" stroke-width="1.2"/>
<line x1="455.6337785541109" y1="96.06011946050434" x2="455.88985939747954" y2="84.06285216325453" stroke="#a855f7" stroke-width="1.2"/>
<line x1="458.6238113711434" y1="96.14089009959322" x2="459.0158027971044" y2="84.14729419502929" stroke="#a855f7" stroke-width="1.2"/>
<line x1="460.24092143732827" y1="96.19870446088694" x2="460.7064178662977" y2="84.20773648183635" stroke="#a855f7" stroke-width="1.2"/>
<line x1="464.9869464569562" y1="96.42573829014276" x2="465.66817129590873" y2="84.44509003060381" stroke="#a855f7" stroke-width="1.2"/>
<line x1="465.2869954238538" y1="96.44297055302985" x2="465.98185885221073" y2="84.46310557816759" stroke="#a855f7" stroke-width="1.2"/>
<line x1="466.09214078797964" y1="96.49090527107066" x2="466.82360173288777" y2="84.51321914702842" stroke="#a855f7" stroke-width="1.2"/>
<line x1="467.48910126319834" y1="96.57993368574672" x2="468.2840604115255" y2="84.60629430782613" stroke="#a855f7" stroke-width="1.2"/>
<line x1="475.48997934240356" y1="97.23344780371333" x2="476.64861476705823" y2="85.28951361297304" stroke="#a855f7" stroke-width="1.2"/>
<line x1="482.3184521013808" y1="97.9856537252764" x2="483.7874726514435" y2="86.07591071278897" stroke="#a855f7" stroke-width="1.2"/>
<line x1="488.98437472588427" y1="98.8942388088079" x2="490.75639175887903" y2="87.02579511829916" stroke="#a855f7" stroke-width="1.2"/>
<line x1="493.0356604025324" y1="99.53132254776216" x2="494.9918267844657" y2="87.69183720902407" stroke="#a855f7" stroke-width="1.2"/>
<line x1="493.0398914067634" y1="99.5320216462415" x2="494.9962501070708" y2="87.69256808470703" stroke="#a855f7" stroke-width="1.2"/>
<line x1="499.2423854918676" y1="100.63310259196473" x2="501.480675741498" y2="88.84369816432675" stroke="#a855f7" stroke-width="1.2"/>
<line x1="505.6575561650271" y1="101.93365883607204" x2="508.18744508161916" y2="90.20337060134806" stroke="#a855f7" stroke-width="1.2"/>
<line x1="507.267930157399" y1="102.28623596034444" x2="509.8710178918263" y2="90.57197395854192" stroke="#a855f7" stroke-width="1.2"/>
<line x1="509.0324757286293" y1="102.68469379116057" x2="511.7157700799307" y2="90.9885435089406" stroke="#a855f7" stroke-width="1.2"/>
<line x1="514.2266574197755" y1="103.93177378541712" x2="517.1460509388563" y2="92.29230895748152" stroke="#a855f7" stroke-width="1.2"/>
<line x1="528.2250321269221" y1="107.85550898593482" x2="531.7807154054185" y2="96.39439575802277" stroke="#a855f7" stroke-width="1.2"/>
<line x1="534.4755960724555" y1="109.8802813287138" x2="538.3153958939307" y2="98.51120320729171" stroke="#a855f7" stroke-width="1.2"/>
<line x1="537.1515314222955" y1="110.8000590474616" x2="541.1129646687635" y2="99.4727890041644" stroke="#a855f7" stroke-width="1.2"/>
<line x1="545.0230266680624" y1="113.69404310321544" x2="549.3422551529743" y2="102.49831778972522" stroke="#a855f7" stroke-width="1.2"/>
<line x1="548.3088800441719" y1="114.9870123759546" x2="552.7774655007252" y2="103.85005839304344" stroke="#a855f7" stroke-width="1.2"/>
<line x1="558.3017634865756" y1="119.23719551039898" x2="563.2245709177836" y2="108.29343166996256" stroke="#a855f7" stroke-width="1.2"/>
<line x1="558.6321333384087" y1="119.38607769635149" x2="563.5699575810636" y2="108.44908122800382" stroke="#a855f7" stroke-width="1.2"/>
<line x1="561.4876707148376" y1="120.69580179491219" x2="566.5552921109665" y2="109.81833824013547" stroke="#a855f7" stroke-width="1.2"/>
<line x1="565.3069684333491" y1="122.51252026536083" x2="570.5481942712286" y2="111.71763482287723" stroke="#a855f7" stroke-width="1.2"/>
<line x1="566.643112819441" y1="123.16591412596209" x2="571.945072493052" y2="112.40072840441492" stroke="#a855f7" stroke-width="1.2"/>
<line x1="572.5973099215374" y1="126.19260148574745" x2="578.1699149179709" y2="115.56499246237235" stroke="#a855f7" stroke-width="1.2"/>
<line x1="582.2517388127668" y1="131.5148197781753" x2="588.2631814860744" y2="121.12912976809235" stroke="#a855f7" stroke-width="1.2"/>
<line x1="585.1221817002604" y1="133.20053789181554" x2="591.2640990502723" y2="122.8914714323526" stroke="#a855f7" stroke-width="1.2"/>
<line x1="586.230698518926" y1="133.86464942197682" x2="592.4230029970591" y2="123.58576985024848" stroke="#a855f7" stroke-width="1.2"/>
<line x1="586.3522040169424" y1="133.93789247261697" x2="592.550031472258" y2="123.66234213046319" stroke="#a855f7" stroke-width="1.2"/>
<line x1="586.5645144861737" y1="134.06608624831102" x2="592.7719924173634" y2="123.79636289596152" stroke="#a855f7" stroke-width="1.2"/>
<line x1="595.4509567405959" y1="139.6820044044397" x2="602.0623638651683" y2="129.667550059187" stroke="#a855f7" stroke-width="1.2"/>
<line x1="605.9611616199878" y1="146.9926854163359" x2="613.0503053299873" y2="137.31053475344206" stroke="#a855f7" stroke-width="1.2"/>
<line x1="606.0078686177601" y1="147.02689153476746" x2="613.0991353731129" y2="137.3462956954387" stroke="#a855f7" stroke-width="1.2"/>
<line x1="625.3997686279026" y1="162.6907980724715" x2="633.3724853837164" y2="153.72219798485654" stroke="#a855f7" stroke-width="1.2"/>
<line x1="625.4203334631759" y1="162.70908128434243" x2="633.3939849842293" y2="153.74131225181256" stroke="#a855f7" stroke-width="1.2"/>
<line x1="626.7564004231057" y1="163.90518897873227" x2="634.7907822605197" y2="154.99178847776557" stroke="#a855f7" stroke-width="1.2"/>
<line x1="627.6139439974685" y1="164.68157563183095" x2="635.6873050882624" y2="155.8034654332778" stroke="#a855f7" stroke-width="1.2"/>
<line x1="636.0082658920585" y1="172.65826674275348" x2="644.4631870689702" y2="164.14273341287867" stroke="#a855f7" stroke-width="1.2"/>
<line x1="636.3978926277741" y1="173.04592643131633" x2="644.8705241108548" y2="164.54801399637614" stroke="#a855f7" stroke-width="1.2"/>
<line x1="636.546639261603" y1="173.19434863955178" x2="645.0260319553123" y2="164.70318266862233" stroke="#a855f7" stroke-width="1.2"/>
<line x1="638.7855884931139" y1="175.45731773568295" x2="647.3667516064372" y2="167.0690139963958" stroke="#a855f7" stroke-width="1.2"/>
<line x1="643.6194000160289" y1="180.53544099897334" x2="652.4202818349394" y2="172.3779610443812" stroke="#a855f7" stroke-width="1.2"/>
<line x1="644.5967404623893" y1="181.59565980219693" x2="653.4420468470435" y2="173.48637161138768" stroke="#a855f7" stroke-width="1.2"/>
<line x1="644.9670188314881" y1="182.00038885446358" x2="653.8291560511011" y2="173.90949743875737" stroke="#a855f7" stroke-width="1.2"/>
<line x1="649.9897421448616" y1="187.66282166394916" x2="659.0801849696279" y2="179.82931355776503" stroke="#a855f7" stroke-width="1.2"/>
<line x1="656.974193461144" y1="196.11686102252935" x2="666.3821113457415" y2="188.66762743264434" stroke="#a855f7" stroke-width="1.2"/>
<line x1="656.9832886181607" y1="196.12834829412628" x2="666.3916199189862" y2="188.67963685295018" stroke="#a855f7" stroke-width="1.2"/>
<line x1="657.8395696066324" y1="197.21574613701173" x2="667.2868227705702" y2="189.81646187051226" stroke="#a855f7" stroke-width="1.2"/>
<line x1="658.032012944388" y1="197.46175345382255" x2="667.4880135327694" y2="190.0736513380872" stroke="#a855f7" stroke-width="1.2"/>
<line x1="662.3057434176794" y1="203.08514629944534" x2="671.9560044821194" y2="195.95265294942016" stroke="#a855f7" stroke-width="1.2"/>
<line x1="665.3780547920126" y1="207.329460883873" x2="675.1679663734676" y2="200.38989092404907" stroke="#a855f7" stroke-width="1.2"/>
<line x1="666.3931229216427" y1="208.7716417062632" x2="676.2291739635356" y2="201.89762542018428" stroke="#a855f7" stroke-width="1.2"/>
<line x1="668.6645303705486" y1="212.07494073745505" x2="678.6038272055735" y2="205.35107440733935" stroke="#a855f7" stroke-width="1.2"/>
<line x1="671.7301610822191" y1="216.7110064713511" x2="681.8088047677744" y2="210.19787040186705" stroke="#a855f7" stroke-width="1.2"/>
<line x1="682.035015311306" y1="234.08037615414347" x2="692.58206146182" y2="228.35675688842272" stroke="#a855f7" stroke-width="1.2"/>
<line x1="683.4315823573908" y1="236.688620321867" x2="694.0421088281813" y2="231.0835576092246" stroke="#a855f7" stroke-width="1.2"/>
<line x1="684.0622944697294" y1="237.89004009678135" x2="694.7014896728989" y2="232.3395873739078" stroke="#a855f7" stroke-width="1.2"/>
<line x1="686.4797910867917" y1="242.64026070433133" x2="697.2288724998277" y2="237.30572709998276" stroke="#a855f7" stroke-width="1.2"/>
<line x1="687.9477403042165" y1="245.64584448251506" x2="698.763546681681" y2="240.4479283226294" stroke="#a855f7" stroke-width="1.2"/>
<line x1="691.6927356726139" y1="253.78972967227702" x2="702.6787691122781" y2="248.96199011192596" stroke="#a855f7" stroke-width="1.2"/>
<line x1="695.6514200887699" y1="263.2974674149083" x2="706.8173937291684" y2="258.9018977519496" stroke="#a855f7" stroke-width="1.2"/>
<line x1="699.7143666440921" y1="274.3335824751616" x2="711.065019673369" y2="270.4396544058508" stroke="#a855f7" stroke-width="1.2"/>
<line x1="701.2531131542028" y1="278.9575843750857" x2="712.6737092066664" y2="275.2738382103168" stroke="#a855f7" stroke-width="1.2"/>
<line x1="703.2037329793188" y1="285.27470571929587" x2="714.7129935692878" y2="281.8781014338093" stroke="#a855f7" stroke-width="1.2"/>
<line x1="706.9437214406713" y1="299.3706010897461" x2="718.6229815061564" y2="296.6147193210982" stroke="#a855f7" stroke-width="1.2"/>
<line x1="710.4554995562477" y1="316.88465759262215" x2="722.2943858997136" y2="314.9248693013777" stroke="#a855f7" stroke-width="1.2"/>
<rect x="442.00000000000006" y="622.0" width="16" height="16" fill="#0f172a"/>
<polygon points="716.4346251035081,308.2668255673903 708.4346251035081,321.8668255673903 724.4346251035081,321.8668255673903" fill="#f59e0b"/>
<polygon points="183.56537489649185,308.2668255673903 175.56537489649185,321.8668255673903 191.56537489649185,321.8668255673903" fill="#f59e0b"/>
<circle cx="450.0" cy="90.0" r="10" fill="#dc2626"/>
<text x="60" y="740" fill="#334155" font-weight="600">Legend:</text>
<line x1="146.0" y1="742.0" x2="146.0" y2="730.0" stroke="#2563eb" stroke-width="1.2"/>
<text x="158" y="740" fill="#334155">DnaA-box (456 total)</text>
<rect x="354" y="730" width="12" height="12" fill="#0f172a"/>
<text x="372" y="740" fill="#334155">Ter</text>
<polygon points="421,730 415,740.2 427,740.2" fill="#f59e0b"/>
<text x="433" y="740" fill="#334155">Replisome (2)</text>
<circle cx="572" cy="736" r="6" fill="#dc2626"/>
<text x="584" y="740" fill="#334155">OriC</text>
</svg>