<?xml version="1.0" encoding="utf-8" standalone="no"?>
<!DOCTYPE svg PUBLIC "-//W3C//DTD SVG 1.1//EN"
  "http://www.w3.org/Graphics/SVG/1.1/DTD/svg11.dtd">
<svg xmlns:xlink="http://www.w3.org/1999/xlink" width="425.933665pt" height="294.85926pt" viewBox="0 0 425.933665 294.85926" xmlns="http://www.w3.org/2000/svg" version="1.1">
 <metadata>
  <rdf:RDF xmlns:dc="http://purl.org/dc/elements/1.1/" xmlns:cc="http://creativecommons.org/ns#" xmlns:rdf="http://www.w3.org/1999/02/22-rdf-syntax-ns#">
   <cc:Work>
    <dc:type rdf:resource="http://purl.org/dc/dcmitype/StillImage"/>
    <dc:date>2026-09-17T10:10:04.138643</dc:date>
    <dc:format>image/svg+xml</dc:format>
    <dc:creator>
     <cc:Agent>
      <dc:title>Matplotlib v3.11.1, https://matplotlib.org/</dc:title>
     </cc:Agent>
    </dc:creator>
   </cc:Work>
  </rdf:RDF>
 </metadata>
 <defs>
  <style type="text/css">*{stroke-linejoin: round; stroke-linecap: butt}</style>
 </defs>
 <g id="figure_1">
  <g id="patch_1">
   <path d="M 0 294.85926 
L 425.933665 294.85926 
L 425.933665 0 
L 0 0 
z
" style="fill: #ffffff"/>
  </g>
  <g id="axes_1">
   <g id="patch_2">
    <path d="M 47.045703 257.889533 
L 418.733665 257.889533 
L 418.733665 19.752246 
L 47.045703 19.752246 
z
" style="fill: #ffffff"/>
   </g>
   <g id="line2d_1">
    <path d="M 187.836598 257.889533 
L 187.836598 19.752246 
" clip-path="url(#p1a1a95a333)" style="fill: none; stroke-dasharray: 1,1.65; stroke-dashoffset: 0; stroke: #555555; stroke-opacity: 0.6"/>
   </g>
   <g id="line2d_2">
    <path d="M 322.995856 257.889533 
L 322.995856 19.752246 
" clip-path="url(#p1a1a95a333)" style="fill: none; stroke-dasharray: 1,1.65; stroke-dashoffset: 0; stroke: #555555; stroke-opacity: 0.6"/>
   </g>
   <g id="matplotlib.axis_1">
    <g id="xtick_1">
     <g id="line2d_3">
      <path d="M 63.94061 257.889533 
L 63.94061 19.752246 
" clip-path="url(#p1a1a95a333)" style="fill: none; stroke: #b0b0b0; stroke-opacity: 0.3; stroke-width: 0.8; stroke-linecap: square"/>
     </g>
     <g id="line2d_4">
      <defs>
       <path id="m262c04bb0e" d="M 0 0 
L 0 3.5 
" style="stroke: #000000; stroke-width: 0.8"/>
      </defs>
      <g>
       <use xlink:href="#m262c04bb0e" x="63.94061" y="257.889533" style="stroke: #000000; stroke-width: 0.8"/>
      </g>
     </g>
     <g id="text_1">
      <text style="font-size: 10px; font-family: 'Arial'; text-anchor: middle" x="63.94061" y="272.169806" transform="rotate(-0 63.94061 272.169806)">0</text>
     </g>
    </g>
    <g id="xtick_2">
     <g id="line2d_5">
      <path d="M 120.256968 257.889533 
L 120.256968 19.752246 
" clip-path="url(#p1a1a95a333)" style="fill: none; stroke: #b0b0b0; stroke-opacity: 0.3; stroke-width: 0.8; stroke-linecap: square"/>
     </g>
     <g id="line2d_6">
      <g>
       <use xlink:href="#m262c04bb0e" x="120.256968" y="257.889533" style="stroke: #000000; stroke-width: 0.8"/>
      </g>
     </g>
     <g id="text_2">
      <text style="font-size: 10px; font-family: 'Arial'; text-anchor: middle" x="120.256968" y="272.169806" transform="rotate(-0 120.256968 272.169806)">20</text>
     </g>
    </g>
    <g id="xtick_3">
     <g id="line2d_7">
      <path d="M 176.573326 257.889533 
L 176.573326 19.752246 
" clip-path="url(#p1a1a95a333)" style="fill: none; stroke: #b0b0b0; stroke-opacity: 0.3; stroke-width: 0.8; stroke-linecap: square"/>
     </g>
     <g id="line2d_8">
      <g>
       <use xlink:href="#m262c04bb0e" x="176.573326" y="257.889533" style="stroke: #000000; stroke-width: 0.8"/>
      </g>
     </g>
     <g id="text_3">
      <text style="font-size: 10px; font-family: 'Arial'; text-anchor: middle" x="176.573326" y="272.169806" transform="rotate(-0 176.573326 272.169806)">40</text>
     </g>
    </g>
    <g id="xtick_4">
     <g id="line2d_9">
      <path d="M 232.889684 257.889533 
L 232.889684 19.752246 
" clip-path="url(#p1a1a95a333)" style="fill: none; stroke: #b0b0b0; stroke-opacity: 0.3; stroke-width: 0.8; stroke-linecap: square"/>
     </g>
     <g id="line2d_10">
      <g>
       <use xlink:href="#m262c04bb0e" x="232.889684" y="257.889533" style="stroke: #000000; stroke-width: 0.8"/>
      </g>
     </g>
     <g id="text_4">
      <text style="font-size: 10px; font-family: 'Arial'; text-anchor: middle" x="232.889684" y="272.169806" transform="rotate(-0 232.889684 272.169806)">60</text>
     </g>
    </g>
    <g id="xtick_5">
     <g id="line2d_11">
      <path d="M 289.206042 257.889533 
L 289.206042 19.752246 
" clip-path="url(#p1a1a95a333)" style="fill: none; stroke: #b0b0b0; stroke-opacity: 0.3; stroke-width: 0.8; stroke-linecap: square"/>
     </g>
     <g id="line2d_12">
      <g>
       <use xlink:href="#m262c04bb0e" x="289.206042" y="257.889533" style="stroke: #000000; stroke-width: 0.8"/>
      </g>
     </g>
     <g id="text_5">
      <text style="font-size: 10px; font-family: 'Arial'; text-anchor: middle" x="289.206042" y="272.169806" transform="rotate(-0 289.206042 272.169806)">80</text>
     </g>
    </g>
    <g id="xtick_6">
     <g id="line2d_13">
      <path d="M 345.5224 257.889533 
L 345.5224 19.752246 
" clip-path="url(#p1a1a95a333)" style="fill: none; stroke: #b0b0b0; stroke-opacity: 0.3; stroke-width: 0.8; stroke-linecap: square"/>
     </g>
     <g id="line2d_14">
      <g>
       <use xlink:href="#m262c04bb0e" x="345.5224" y="257.889533" style="stroke: #000000; stroke-width: 0.8"/>
      </g>
     </g>
     <g id="text_6">
      <text style="font-size: 10px; font-family: 'Arial'; text-anchor: middle" x="345.5224" y="272.169806" transform="rotate(-0 345.5224 272.169806)">100</text>
     </g>
    </g>
    <g id="xtick_7">
     <g id="line2d_15">
      <path d="M 401.838757 257.889533 
L 401.838757 19.752246 
" clip-path="url(#p1a1a95a333)" style="fill: none; stroke: #b0b0b0; stroke-opacity: 0.3; stroke-width: 0.8; stroke-linecap: square"/>
     </g>
     <g id="line2d_16">
      <g>
       <use xlink:href="#m262c04bb0e" x="401.838757" y="257.889533" style="stroke: #000000; stroke-width: 0.8"/>
      </g>
     </g>
     <g id="text_7">
      <text style="font-size: 10px; font-family: 'Arial'; text-anchor: middle" x="401.838757" y="272.169806" transform="rotate(-0 401.838757 272.169806)">120</text>
     </g>
    </g>
    <g id="text_8">
     <text style="font-size: 10px; font-family: 'Arial'; text-anchor: middle" x="232.889684" y="285.554572" transform="rotate(-0 232.889684 285.554572)">time (min)</text>
    </g>
   </g>
   <g id="matplotlib.axis_2">
    <g id="ytick_1">
     <g id="line2d_17">
      <path d="M 47.045703 247.065111 
L 418.733665 247.065111 
" clip-path="url(#p1a1a95a333)" style="fill: none; stroke: #b0b0b0; stroke-opacity: 0.3; stroke-width: 0.8; stroke-linecap: square"/>
     </g>
     <g id="line2d_18">
      <defs>
       <path id="mcada308dd9" d="M 0 0 
L -3.5 0 
" style="stroke: #000000; stroke-width: 0.8"/>
      </defs>
      <g>
       <use xlink:href="#mcada308dd9" x="47.045703" y="247.065111" style="stroke: #000000; stroke-width: 0.8"/>
      </g>
     </g>
     <g id="text_9">
      <text style="font-size: 10px; font-family: 'Arial'; text-anchor: end" x="40.045703" y="250.705248" transform="rotate(-0 40.045703 250.705248)">0.00</text>
     </g>
    </g>
    <g id="ytick_2">
     <g id="line2d_19">
      <path d="M 47.045703 220.004056 
L 418.733665 220.004056 
" clip-path="url(#p1a1a95a333)" style="fill: none; stroke: #b0b0b0; stroke-opacity: 0.3; stroke-width: 0.8; stroke-linecap: square"/>
     </g>
     <g id="line2d_20">
      <g>
       <use xlink:href="#mcada308dd9" x="47.045703" y="220.004056" style="stroke: #000000; stroke-width: 0.8"/>
      </g>
     </g>
     <g id="text_10">
      <text style="font-size: 10px; font-family: 'Arial'; text-anchor: end" x="40.045703" y="223.644192" transform="rotate(-0 40.045703 223.644192)">0.25</text>
     </g>
    </g>
    <g id="ytick_3">
     <g id="line2d_21">
      <path d="M 47.045703 192.943 
L 418.733665 192.943 
" clip-path="url(#p1a1a95a333)" style="fill: none; stroke: #b0b0b0; stroke-opacity: 0.3; stroke-width: 0.8; stroke-linecap: square"/>
     </g>
     <g id="line2d_22">
      <g>
       <use xlink:href="#mcada308dd9" x="47.045703" y="192.943" style="stroke: #000000; stroke-width: 0.8"/>
      </g>
     </g>
     <g id="text_11">
      <text style="font-size: 10px; font-family: 'Arial'; text-anchor: end" x="40.045703" y="196.583137" transform="rotate(-0 40.045703 196.583137)">0.50</text>
     </g>
    </g>
    <g id="ytick_4">
     <g id="line2d_23">
      <path d="M 47.045703 165.881945 
L 418.733665 165.881945 
" clip-path="url(#p1a1a95a333)" style="fill: none; stroke: #b0b0b0; stroke-opacity: 0.3; stroke-width: 0.8; stroke-linecap: square"/>
     </g>
     <g id="line2d_24">
      <g>
       <use xlink:href="#mcada308dd9" x="47.045703" y="165.881945" style="stroke: #000000; stroke-width: 0.8"/>
      </g>
     </g>
     <g id="text_12">
      <text style="font-size: 10px; font-family: 'Arial'; text-anchor: end" x="40.045703" y="169.522082" transform="rotate(-0 40.045703 169.522082)">0.75</text>
     </g>
    </g>
    <g id="ytick_5">
     <g id="line2d_25">
      <path d="M 47.045703 138.82089 
L 418.733665 138.82089 
" clip-path="url(#p1a1a95a333)" style="fill: none; stroke: #b0b0b0; stroke-opacity: 0.3; stroke-width: 0.8; stroke-linecap: square"/>
     </g>
     <g id="line2d_26">
      <g>
       <use xlink:href="#mcada308dd9" x="47.045703" y="138.82089" style="stroke: #000000; stroke-width: 0.8"/>
      </g>
     </g>
     <g id="text_13">
      <text style="font-size: 10px; font-family: 'Arial'; text-anchor: end" x="40.045703" y="142.461026" transform="rotate(-0 40.045703 142.461026)">1.00</text>
     </g>
    </g>
    <g id="ytick_6">
     <g id="line2d_27">
      <path d="M 47.045703 111.759834 
L 418.733665 111.759834 
" clip-path="url(#p1a1a95a333)" style="fill: none; stroke: #b0b0b0; stroke-opacity: 0.3; stroke-width: 0.8; stroke-linecap: square"/>
     </g>
     <g id="line2d_28">
      <g>
       <use xlink:href="#mcada308dd9" x="47.045703" y="111.759834" style="stroke: #000000; stroke-width: 0.8"/>
      </g>
     </g>
     <g id="text_14">
      <text style="font-size: 10px; font-family: 'Arial'; text-anchor: end" x="40.045703" y="115.399971" transform="rotate(-0 40.045703 115.399971)">1.25</text>
     </g>
    </g>
    <g id="ytick_7">
     <g id="line2d_29">
      <path d="M 47.045703 84.698779 
L 418.733665 84.698779 
" clip-path="url(#p1a1a95a333)" style="fill: none; stroke: #b0b0b0; stroke-opacity: 0.3; stroke-width: 0.8; stroke-linecap: square"/>
     </g>
     <g id="line2d_30">
      <g>
       <use xlink:href="#mcada308dd9" x="47.045703" y="84.698779" style="stroke: #000000; stroke-width: 0.8"/>
      </g>
     </g>
     <g id="text_15">
      <text style="font-size: 10px; font-family: 'Arial'; text-anchor: end" x="40.045703" y="88.338916" transform="rotate(-0 40.045703 88.338916)">1.50</text>
     </g>
    </g>
    <g id="ytick_8">
     <g id="line2d_31">
      <path d="M 47.045703 57.637724 
L 418.733665 57.637724 
" clip-path="url(#p1a1a95a333)" style="fill: none; stroke: #b0b0b0; stroke-opacity: 0.3; stroke-width: 0.8; stroke-linecap: square"/>
     </g>
     <g id="line2d_32">
      <g>
       <use xlink:href="#mcada308dd9" x="47.045703" y="57.637724" style="stroke: #000000; stroke-width: 0.8"/>
      </g>
     </g>
     <g id="text_16">
      <text style="font-size: 10px; font-family: 'Arial'; text-anchor: end" x="40.045703" y="61.27786" transform="rotate(-0 40.045703 61.27786)">1.75</text>
     </g>
    </g>
    <g id="ytick_9">
     <g id="line2d_33">
      <path d="M 47.045703 30.576668 
L 418.733665 30.576668 
" clip-path="url(#p1a1a95a333)" style="fill: none; stroke: #b0b0b0; stroke-opacity: 0.3; stroke-width: 0.8; stroke-linecap: square"/>
     </g>
     <g id="line2d_34">
      <g>
       <use xlink:href="#mcada308dd9" x="47.045703" y="30.576668" style="stroke: #000000; stroke-width: 0.8"/>
      </g>
     </g>
     <g id="text_17">
      <text style="font-size: 10px; font-family: 'Arial'; text-anchor: end" x="40.045703" y="34.216805" transform="rotate(-0 40.045703 34.216805)">2.00</text>
     </g>
    </g>
    <g id="text_18">
     <text style="font-size: 10px; font-family: 'Arial'; text-anchor: middle" x="14.480273" y="138.82089" transform="rotate(-90 14.480273 138.82089)">count</text>
    </g>
   </g>
   <g id="line2d_35">
    <path d="M 63.94061 247.065111 
L 69.572246 247.065111 
L 75.203882 247.065111 
L 80.835518 247.065111 
L 86.467154 247.065111 
L 92.098789 247.065111 
L 97.730425 247.065111 
L 103.362061 247.065111 
L 108.993697 247.065111 
L 114.625333 247.065111 
L 120.256968 138.82089 
L 125.888604 138.82089 
L 131.52024 138.82089 
L 137.151876 138.82089 
L 142.783511 138.82089 
L 148.415147 138.82089 
L 154.046783 138.82089 
L 159.678419 138.82089 
L 165.310055 138.82089 
L 170.94169 247.065111 
L 176.573326 247.065111 
L 182.204962 247.065111 
L 187.836598 247.065111 
L 193.468233 247.065111 
L 199.099869 247.065111 
L 204.731505 247.065111 
L 210.363141 247.065111 
L 215.994777 247.065111 
L 221.626412 247.065111 
L 227.258048 247.065111 
L 232.889684 247.065111 
L 238.52132 247.065111 
L 244.152956 247.065111 
L 249.784591 247.065111 
L 255.416227 247.065111 
L 261.047863 247.065111 
L 266.679499 247.065111 
L 272.311134 247.065111 
L 277.94277 247.065111 
L 283.574406 247.065111 
L 289.206042 247.065111 
L 294.837678 247.065111 
L 300.469313 247.065111 
L 306.100949 247.065111 
L 311.732585 247.065111 
L 317.364221 247.065111 
L 322.995856 247.065111 
L 328.627492 247.065111 
L 334.259128 247.065111 
L 339.890764 247.065111 
L 345.5224 247.065111 
L 351.154035 247.065111 
L 356.785671 247.065111 
L 362.417307 247.065111 
L 368.048943 247.065111 
L 373.680579 247.065111 
L 379.312214 30.576668 
L 384.94385 30.576668 
L 390.575486 30.576668 
L 396.207122 30.576668 
L 401.838757 30.576668 
" clip-path="url(#p1a1a95a333)" style="fill: none; stroke: #000000; stroke-width: 1.5; stroke-linecap: square"/>
    <defs>
     <path id="m0c66e94e26" d="M 0 1 
C 0.265203 1 0.51958 0.894634 0.707107 0.707107 
C 0.894634 0.51958 1 0.265203 1 0 
C 1 -0.265203 0.894634 -0.51958 0.707107 -0.707107 
C 0.51958 -0.894634 0.265203 -1 0 -1 
C -0.265203 -1 -0.51958 -0.894634 -0.707107 -0.707107 
C -0.894634 -0.51958 -1 -0.265203 -1 0 
C -1 0.265203 -0.894634 0.51958 -0.707107 0.707107 
C -0.51958 0.894634 -0.265203 1 0 1 
z
" style="stroke: #000000"/>
    </defs>
    <g clip-path="url(#p1a1a95a333)">
     <use xlink:href="#m0c66e94e26" x="63.94061" y="247.065111" style="stroke: #000000"/>
     <use xlink:href="#m0c66e94e26" x="69.572246" y="247.065111" style="stroke: #000000"/>
     <use xlink:href="#m0c66e94e26" x="75.203882" y="247.065111" style="stroke: #000000"/>
     <use xlink:href="#m0c66e94e26" x="80.835518" y="247.065111" style="stroke: #000000"/>
     <use xlink:href="#m0c66e94e26" x="86.467154" y="247.065111" style="stroke: #000000"/>
     <use xlink:href="#m0c66e94e26" x="92.098789" y="247.065111" style="stroke: #000000"/>
     <use xlink:href="#m0c66e94e26" x="97.730425" y="247.065111" style="stroke: #000000"/>
     <use xlink:href="#m0c66e94e26" x="103.362061" y="247.065111" style="stroke: #000000"/>
     <use xlink:href="#m0c66e94e26" x="108.993697" y="247.065111" style="stroke: #000000"/>
     <use xlink:href="#m0c66e94e26" x="114.625333" y="247.065111" style="stroke: #000000"/>
     <use xlink:href="#m0c66e94e26" x="120.256968" y="138.82089" style="stroke: #000000"/>
     <use xlink:href="#m0c66e94e26" x="125.888604" y="138.82089" style="stroke: #000000"/>
     <use xlink:href="#m0c66e94e26" x="131.52024" y="138.82089" style="stroke: #000000"/>
     <use xlink:href="#m0c66e94e26" x="137.151876" y="138.82089" style="stroke: #000000"/>
     <use xlink:href="#m0c66e94e26" x="142.783511" y="138.82089" style="stroke: #000000"/>
     <use xlink:href="#m0c66e94e26" x="148.415147" y="138.82089" style="stroke: #000000"/>
     <use xlink:href="#m0c66e94e26" x="154.046783" y="138.82089" style="stroke: #000000"/>
     <use xlink:href="#m0c66e94e26" x="159.678419" y="138.82089" style="stroke: #000000"/>
     <use xlink:href="#m0c66e94e26" x="165.310055" y="138.82089" style="stroke: #000000"/>
     <use xlink:href="#m0c66e94e26" x="170.94169" y="247.065111" style="stroke: #000000"/>
     <use xlink:href="#m0c66e94e26" x="176.573326" y="247.065111" style="stroke: #000000"/>
     <use xlink:href="#m0c66e94e26" x="182.204962" y="247.065111" style="stroke: #000000"/>
     <use xlink:href="#m0c66e94e26" x="187.836598" y="247.065111" style="stroke: #000000"/>
     <use xlink:href="#m0c66e94e26" x="193.468233" y="247.065111" style="stroke: #000000"/>
     <use xlink:href="#m0c66e94e26" x="199.099869" y="247.065111" style="stroke: #000000"/>
     <use xlink:href="#m0c66e94e26" x="204.731505" y="247.065111" style="stroke: #000000"/>
     <use xlink:href="#m0c66e94e26" x="210.363141" y="247.065111" style="stroke: #000000"/>
     <use xlink:href="#m0c66e94e26" x="215.994777" y="247.065111" style="stroke: #000000"/>
     <use xlink:href="#m0c66e94e26" x="221.626412" y="247.065111" style="stroke: #000000"/>
     <use xlink:href="#m0c66e94e26" x="227.258048" y="247.065111" style="stroke: #000000"/>
     <use xlink:href="#m0c66e94e26" x="232.889684" y="247.065111" style="stroke: #000000"/>
     <use xlink:href="#m0c66e94e26" x="238.52132" y="247.065111" style="stroke: #000000"/>
     <use xlink:href="#m0c66e94e26" x="244.152956" y="247.065111" style="stroke: #000000"/>
     <use xlink:href="#m0c66e94e26" x="249.784591" y="247.065111" style="stroke: #000000"/>
     <use xlink:href="#m0c66e94e26" x="255.416227" y="247.065111" style="stroke: #000000"/>
     <use xlink:href="#m0c66e94e26" x="261.047863" y="247.065111" style="stroke: #000000"/>
     <use xlink:href="#m0c66e94e26" x="266.679499" y="247.065111" style="stroke: #000000"/>
     <use xlink:href="#m0c66e94e26" x="272.311134" y="247.065111" style="stroke: #000000"/>
     <use xlink:href="#m0c66e94e26" x="277.94277" y="247.065111" style="stroke: #000000"/>
     <use xlink:href="#m0c66e94e26" x="283.574406" y="247.065111" style="stroke: #000000"/>
     <use xlink:href="#m0c66e94e26" x="289.206042" y="247.065111" style="stroke: #000000"/>
     <use xlink:href="#m0c66e94e26" x="294.837678" y="247.065111" style="stroke: #000000"/>
     <use xlink:href="#m0c66e94e26" x="300.469313" y="247.065111" style="stroke: #000000"/>
     <use xlink:href="#m0c66e94e26" x="306.100949" y="247.065111" style="stroke: #000000"/>
     <use xlink:href="#m0c66e94e26" x="311.732585" y="247.065111" style="stroke: #000000"/>
     <use xlink:href="#m0c66e94e26" x="317.364221" y="247.065111" style="stroke: #000000"/>
     <use xlink:href="#m0c66e94e26" x="322.995856" y="247.065111" style="stroke: #000000"/>
     <use xlink:href="#m0c66e94e26" x="328.627492" y="247.065111" style="stroke: #000000"/>
     <use xlink:href="#m0c66e94e26" x="334.259128" y="247.065111" style="stroke: #000000"/>
     <use xlink:href="#m0c66e94e26" x="339.890764" y="247.065111" style="stroke: #000000"/>
     <use xlink:href="#m0c66e94e26" x="345.5224" y="247.065111" style="stroke: #000000"/>
     <use xlink:href="#m0c66e94e26" x="351.154035" y="247.065111" style="stroke: #000000"/>
     <use xlink:href="#m0c66e94e26" x="356.785671" y="247.065111" style="stroke: #000000"/>
     <use xlink:href="#m0c66e94e26" x="362.417307" y="247.065111" style="stroke: #000000"/>
     <use xlink:href="#m0c66e94e26" x="368.048943" y="247.065111" style="stroke: #000000"/>
     <use xlink:href="#m0c66e94e26" x="373.680579" y="247.065111" style="stroke: #000000"/>
     <use xlink:href="#m0c66e94e26" x="379.312214" y="30.576668" style="stroke: #000000"/>
     <use xlink:href="#m0c66e94e26" x="384.94385" y="30.576668" style="stroke: #000000"/>
     <use xlink:href="#m0c66e94e26" x="390.575486" y="30.576668" style="stroke: #000000"/>
     <use xlink:href="#m0c66e94e26" x="396.207122" y="30.576668" style="stroke: #000000"/>
     <use xlink:href="#m0c66e94e26" x="401.838757" y="30.576668" style="stroke: #000000"/>
    </g>
   </g>
   <g id="patch_3">
    <path d="M 47.045703 257.889533 
L 47.045703 19.752246 
" style="fill: none; stroke: #000000; stroke-width: 0.8; stroke-linejoin: miter; stroke-linecap: square"/>
   </g>
   <g id="patch_4">
    <path d="M 418.733665 257.889533 
L 418.733665 19.752246 
" style="fill: none; stroke: #000000; stroke-width: 0.8; stroke-linejoin: miter; stroke-linecap: square"/>
   </g>
   <g id="patch_5">
    <path d="M 47.045703 257.889533 
L 418.733665 257.889533 
" style="fill: none; stroke: #000000; stroke-width: 0.8; stroke-linejoin: miter; stroke-linecap: square"/>
   </g>
   <g id="patch_6">
    <path d="M 47.045703 19.752246 
L 418.733665 19.752246 
" style="fill: none; stroke: #000000; stroke-width: 0.8; stroke-linejoin: miter; stroke-linecap: square"/>
   </g>
   <g id="text_19">
    <text style="font-size: 9px; font-family: 'Arial'; text-anchor: middle" x="232.889684" y="13.752246" transform="rotate(-0 232.889684 13.752246)">nascent_flagellum, population total</text>
   </g>
  </g>
 </g>
 <defs>
  <clipPath id="p1a1a95a333">
   <rect x="47.045703" y="19.752246" width="371.687962" height="238.137287"/>
  </clipPath>
 </defs>
</svg>
