# parsimony mesh: cplx_CPLX0-3761 (source /Users/eranagmon/code/v2e-cplx/workspace/studies/ecoli-3d/viz/3d/structures/cplx_CPLX0-3761.pdb)
# atoms: 5688  voxel: 16 Å  verts: 148  tris: 288
v 47.3964 -58.7186 -25.6356
v 55.7273 -59.9104 -27.2855
v 65.8490 -59.9348 -27.4346
v 47.3964 -55.3262 -25.6356
v 54.6627 -50.0594 -28.0812
v 71.4003 -49.3284 -28.1290
v 80.3395 -43.4411 -25.7152
v 59.2864 -39.2947 -27.1110
v 71.7272 -38.8014 -27.1025
v 80.3395 -40.5467 -25.7152
v -33.3952 21.1473 -26.2052
v -31.1683 21.1473 -26.2052
v -34.8013 29.8408 -27.6132
v -25.2100 30.6863 -27.7578
v -15.2611 36.5833 -26.1350
v -35.4354 45.8408 -27.7830
v -24.2727 45.8408 -29.8338
v -14.1475 45.8408 -27.0852
v -34.2407 56.0027 -26.4316
v -24.2727 56.6674 -27.3077
v -14.4508 55.4477 -26.6682
v 47.3964 -58.7186 -23.4604
v 56.4083 -59.8781 -17.6900
v 66.5555 -59.8883 -17.0344
v -0.9248 -42.8702 -9.6692
v 7.7273 -43.0701 -9.7354
v 17.1568 -42.6628 -9.3342
v 46.5699 -49.7533 -17.9083
v 50.0744 -49.7533 -17.9083
v 74.5555 -53.3074 -17.0344
v 80.7739 -45.3074 -17.0344
v -0.9248 -41.5031 -9.6692
v 7.7273 -40.8020 -9.7354
v 17.1568 -41.0057 -9.3342
v 45.7434 -40.5422 -12.3562
v 55.0336 -34.5851 -17.0896
v 70.8862 -32.2930 -16.7075
v 80.7739 -39.9749 -17.0344
v 61.4475 -25.4028 -11.1563
v 64.9922 -25.4028 -11.1563
v -33.3952 21.1473 -21.0317
v -31.1683 21.1473 -21.0317
v -35.9619 28.6889 -16.2328
v -25.2100 26.0206 -16.2328
v -14.2923 34.5053 -17.0344
v -40.6350 45.8408 -17.0344
v -11.6781 45.8408 -17.0344
v -36.8655 57.4340 -17.0344
v -24.2727 59.8132 -17.0344
v -13.6585 56.2200 -17.0344
v 13.3610 -59.1520 5.5979
v 23.7273 -60.3126 4.5229
v 39.7273 -60.0024 4.2036
v 56.4083 -58.9323 -0.5104
v 65.1468 -58.6912 -1.0344
v -0.9248 -42.8702 -5.7946
v 7.1822 -48.0998 -0.0983
v 22.9850 -48.8614 -3.3638
v 40.1370 -49.7719 -3.6192
v 51.5290 -54.8470 -5.4945
v 73.0939 -50.3087 -1.2559
v 80.5105 -45.0750 -6.7369
v -0.9248 -41.5031 -5.7946
v 8.2467 -35.9211 0.2628
v 23.4220 -33.7573 -0.3365
v 38.9499 -33.5256 -1.3132
v 56.3327 -28.7331 -0.7389
v 71.2188 -34.2249 -0.9574
v 80.5105 -40.8593 -6.7369
v 15.4900 -26.0053 6.3202
v 19.0205 -26.0053 6.3202
v 42.8230 -25.1666 4.3667
v 56.3327 -25.2847 -0.7389
v 64.9922 -25.4028 -5.8446
v -82.1507 35.7771 4.5424
v -72.2728 33.0545 1.4580
v -56.2727 32.8816 1.4674
v -40.3390 31.4284 -0.8808
v -24.2727 28.7190 -1.0344
v -14.6079 35.0137 -1.0344
v -82.7221 45.8408 1.6502
v -72.2728 45.8408 -4.2550
v -56.2727 45.8408 -3.8262
v -45.4724 45.8408 -5.9210
v -19.3595 49.8537 3.9582
v -13.9427 45.0485 -1.2388
v -81.6606 55.5089 2.3016
v -72.2728 56.1473 1.2526
v -56.2727 57.6472 1.6720
v -41.1662 59.4864 -1.8973
v -24.5248 58.2247 -1.2388
v -14.6090 55.4061 -6.7085
v 13.8475 -58.9758 14.9656
v 22.5811 -59.9395 15.5991
v 39.7273 -60.0024 10.8596
v 55.7273 -58.7282 8.2781
v 63.9708 -58.3387 7.2460
v 9.2201 -50.1592 14.9656
v 27.1503 -53.7853 21.3548
v 39.7273 -53.1071 18.8596
v 55.8324 -50.3419 16.2277
v 66.1986 -50.1592 9.4411
v 11.8830 -34.3677 13.6208
v 24.1032 -31.2339 13.6208
v 38.3847 -30.9723 14.8360
v 56.2268 -33.4973 15.0344
v 66.7788 -38.2573 9.9859
v 15.4900 -26.0053 7.3909
v 19.0205 -26.0053 7.3909
v 42.8230 -25.1666 9.4163
v 51.2179 -25.1666 9.4163
v -82.1507 35.7771 11.2507
v -73.1009 32.9264 15.9367
v -56.2727 30.9623 14.9656
v -40.5918 33.7302 15.2333
v -24.2727 34.5511 9.9925
v -15.6819 37.2612 7.8888
v -82.7221 45.8408 13.8729
v -78.7972 45.8408 21.8729
v -35.4712 40.9757 20.7450
v -25.4125 45.4147 14.3169
v -15.6819 39.1870 7.8888
v -81.6606 55.5089 11.8904
v -73.4642 56.1979 16.3205
v -56.2727 58.9280 14.9656
v -40.2727 60.5424 14.9656
v -29.9823 57.1505 14.9656
v 15.5871 -58.2552 23.0545
v 16.4836 -58.2552 23.0545
v 14.0376 -50.1592 23.9323
v 22.5811 -49.1349 23.8353
v 39.7273 -45.1071 24.5449
v 50.5691 -45.1303 24.9108
v 13.6145 -39.8400 24.1657
v 23.7273 -40.2403 23.9861
v 39.7273 -39.9133 24.5449
v 50.5691 -39.4040 24.9108
v -68.3196 36.0318 23.9958
v -56.2727 35.9215 24.2798
v -46.1379 37.0906 23.6876
v -70.7972 45.8408 24.3478
v -56.2727 45.8408 25.7141
v -40.5918 46.1217 24.4604
v -31.4654 51.6423 23.6352
v -68.9251 54.6939 23.7783
v -56.2727 55.1215 24.3999
v -40.2727 55.4572 24.2926
v -31.4654 55.1415 23.6352
f 4 2 1
f 4 5 2
f 5 3 2
f 5 6 3
f 8 6 5
f 8 9 6
f 9 7 6
f 9 10 7
f 13 12 11
f 13 14 12
f 16 14 13
f 16 17 14
f 17 15 14
f 17 18 15
f 19 17 16
f 19 20 17
f 21 17 20
f 21 18 17
f 2 22 1
f 2 23 22
f 3 23 2
f 3 24 23
f 22 4 1
f 22 28 4
f 29 5 4
f 29 4 28
f 29 28 22
f 29 22 23
f 30 24 3
f 30 3 6
f 7 30 6
f 7 31 30
f 32 26 25
f 32 33 26
f 33 27 26
f 33 34 27
f 29 8 5
f 29 36 8
f 35 29 28
f 35 36 29
f 37 9 8
f 37 8 36
f 38 10 9
f 38 9 37
f 39 37 36
f 39 40 37
f 12 41 11
f 12 42 41
f 41 13 11
f 41 43 13
f 44 42 12
f 44 12 14
f 43 41 42
f 43 42 44
f 45 14 15
f 45 44 14
f 46 13 43
f 46 16 13
f 47 45 15
f 47 15 18
f 46 19 16
f 46 48 19
f 49 20 19
f 49 19 48
f 47 18 21
f 47 21 50
f 21 20 49
f 21 49 50
f 55 23 24
f 55 54 23
f 26 56 25
f 26 57 56
f 27 57 26
f 27 58 57
f 58 51 57
f 58 52 51
f 59 52 58
f 59 53 52
f 60 23 54
f 60 29 23
f 60 28 29
f 60 59 28
f 60 53 59
f 60 54 53
f 55 24 30
f 55 30 61
f 62 30 31
f 62 61 30
f 56 32 25
f 56 63 32
f 33 32 63
f 33 63 64
f 63 56 57
f 63 57 64
f 58 27 34
f 58 34 65
f 34 33 64
f 34 64 65
f 59 35 28
f 59 66 35
f 66 58 65
f 66 59 58
f 67 36 35
f 67 35 66
f 69 38 37
f 69 37 68
f 69 68 61
f 69 61 62
f 70 65 64
f 70 71 65
f 67 39 36
f 67 73 39
f 72 67 66
f 72 73 67
f 74 68 37
f 74 37 40
f 74 40 39
f 74 39 73
f 74 73 67
f 74 67 68
f 79 43 44
f 79 78 43
f 45 79 44
f 45 80 79
f 81 76 75
f 81 82 76
f 83 76 82
f 83 77 76
f 78 46 43
f 78 84 46
f 84 77 83
f 84 78 77
f 86 80 45
f 86 45 47
f 88 81 87
f 88 82 81
f 88 83 82
f 88 89 83
f 84 48 46
f 84 90 48
f 89 84 83
f 89 90 84
f 91 49 48
f 91 48 90
f 92 86 47
f 92 47 50
f 92 50 49
f 92 49 91
f 92 91 85
f 92 85 86
f 94 51 52
f 94 93 51
f 95 52 53
f 95 94 52
f 96 53 54
f 96 95 53
f 97 54 55
f 97 96 54
f 98 51 93
f 98 57 51
f 99 94 95
f 99 95 100
f 101 100 95
f 101 95 96
f 102 97 55
f 102 55 61
f 102 101 96
f 102 96 97
f 103 57 98
f 103 64 57
f 66 65 104
f 66 104 105
f 107 102 61
f 107 61 68
f 107 68 67
f 107 67 106
f 107 106 101
f 107 101 102
f 103 70 64
f 103 108 70
f 104 65 71
f 104 71 109
f 71 70 108
f 71 108 109
f 108 103 104
f 108 104 109
f 105 72 66
f 105 110 72
f 111 106 67
f 111 67 73
f 111 73 72
f 111 72 110
f 111 110 105
f 111 105 106
f 76 112 75
f 76 113 112
f 114 76 77
f 114 113 76
f 115 77 78
f 115 114 77
f 116 78 79
f 116 115 78
f 80 116 79
f 80 117 116
f 118 75 112
f 118 81 75
f 119 118 112
f 119 112 113
f 120 115 116
f 120 116 121
f 122 117 80
f 122 80 86
f 122 86 85
f 122 85 121
f 122 121 116
f 122 116 117
f 123 81 118
f 123 87 81
f 88 87 123
f 88 123 124
f 124 123 118
f 124 118 119
f 125 89 88
f 125 88 124
f 126 90 89
f 126 89 125
f 127 121 85
f 127 85 91
f 127 91 90
f 127 90 126
f 129 93 94
f 129 128 93
f 130 93 128
f 130 98 93
f 129 94 99
f 129 99 131
f 130 128 129
f 130 129 131
f 132 99 100
f 132 131 99
f 133 100 101
f 133 132 100
f 134 98 130
f 134 103 98
f 135 104 103
f 135 103 134
f 134 130 131
f 134 131 135
f 105 104 135
f 105 135 136
f 135 131 132
f 135 132 136
f 137 133 101
f 137 101 106
f 137 106 105
f 137 105 136
f 136 132 133
f 136 133 137
f 114 138 113
f 114 139 138
f 140 114 115
f 140 139 114
f 138 119 113
f 138 141 119
f 142 141 138
f 142 138 139
f 140 115 120
f 140 120 143
f 142 139 140
f 142 140 143
f 144 120 121
f 144 143 120
f 141 124 119
f 141 145 124
f 125 124 145
f 125 145 146
f 145 141 142
f 145 142 146
f 147 126 125
f 147 125 146
f 146 142 143
f 146 143 147
f 144 121 127
f 144 127 148
f 148 127 126
f 148 126 147
f 147 143 144
f 147 144 148
