# parsimony mesh: cplx_CPLX0-3924 (source /Users/eranagmon/code/v2e-cplx/workspace/studies/ecoli-3d/viz/3d/structures/cplx_CPLX0-3924.pdb)
# atoms: 3134  voxel: 16 Å  verts: 111  tris: 216
v 57.0722 -45.0488 -27.2419
v 65.6905 -46.9379 -28.1155
v 74.3721 -46.3934 -27.8907
v 55.9307 -35.2875 -27.7186
v 65.6549 -35.3698 -28.3222
v 74.3721 -40.7579 -27.8907
v 55.9624 -24.6636 -27.3615
v 60.2979 -24.6636 -27.3615
v -23.8764 35.7978 -27.8048
v -21.2559 35.7978 -27.8048
v -27.2408 44.7125 -28.9031
v -20.5816 44.7125 -28.9031
v -40.1675 63.6465 -28.2055
v -31.7144 59.2729 -28.9328
v -20.9786 60.7125 -28.2458
v -40.1675 70.5764 -28.2055
v -30.3095 70.5249 -28.1166
v -21.7852 69.2651 -26.9285
v 56.5686 -59.4511 -11.2109
v 58.6111 -59.4511 -11.2109
v 55.1823 -50.7443 -17.3137
v 64.6428 -52.9719 -17.3137
v 74.2747 -46.0721 -18.4678
v 53.1192 -35.2875 -18.4678
v 68.9980 -33.1602 -18.4678
v 74.2747 -41.1602 -18.4678
v 55.4130 -24.4736 -18.4678
v 60.9980 -24.4736 -18.4678
v -39.0120 36.5167 -10.8185
v -29.6497 35.0739 -17.0782
v -20.4091 34.8111 -18.4678
v -40.2704 44.7125 -14.5227
v -35.2408 44.7125 -22.5227
v -18.6225 44.7125 -18.4678
v -40.1945 60.2062 -18.9501
v -33.5988 60.6775 -18.9878
v -20.5657 61.2712 -18.6171
v -40.1675 70.5764 -22.3766
v -30.3095 70.5249 -21.5860
v -21.7852 69.2651 -24.0499
v 23.0020 -60.3713 4.4593
v 33.6905 -60.8689 2.1517
v 50.6173 -60.6903 -2.9285
v 59.4877 -60.2725 -2.4678
v 20.7259 -51.2875 3.8103
v 33.6905 -51.2875 -0.7644
v 50.8291 -48.6526 -2.5051
v 64.2220 -49.8502 -3.3961
v 73.7878 -43.8944 -10.3371
v 21.7595 -38.8621 4.3093
v 33.6905 -38.6764 2.6160
v 50.7491 -37.9778 -2.9850
v 65.1721 -36.7034 -7.9143
v 73.7878 -42.9807 -10.3371
v 56.3819 -26.1595 -9.6888
v 59.4931 -26.1595 -9.6888
v -72.3182 34.6987 4.0685
v -62.3095 33.7956 1.9922
v -45.1310 34.2986 -2.8216
v -29.9594 34.4515 -2.1480
v -20.8292 35.0919 -7.2682
v -72.7793 44.7125 3.7557
v -62.3095 44.7125 0.1682
v -45.0647 47.2980 -1.9678
v -29.9594 45.1322 0.7017
v -20.3504 44.7125 -6.9685
v -71.5939 53.9618 4.6272
v -62.3095 54.7180 3.7082
v -45.8393 55.4515 -1.5896
v -30.3095 58.4508 -6.9057
v -21.1777 56.3103 -9.0017
v 22.3365 -61.2241 13.5322
v 33.6905 -62.6564 13.5322
v 49.0614 -61.1232 13.4308
v 59.1662 -60.4372 8.0299
v 17.4631 -51.2875 13.5322
v 51.5986 -50.7986 13.4308
v 59.1662 -55.8060 8.0299
v 20.8171 -38.6239 13.5322
v 33.6905 -37.0913 13.5322
v 44.8620 -41.7549 13.5322
v -73.2264 34.0225 13.5322
v -62.3095 29.4561 13.5322
v -46.3095 29.7536 13.5322
v -35.1985 34.3199 13.5322
v -74.5487 44.7125 13.5322
v -43.5771 48.4415 13.5322
v -35.1985 40.4415 13.5322
v -71.6318 53.9306 13.5322
v -62.3095 55.2791 13.5322
v -51.5771 54.0610 13.5322
v 23.9070 -60.7858 22.5981
v 33.6905 -61.0749 23.1701
v 43.3087 -60.1725 22.6501
v 22.4277 -51.2875 23.7015
v 33.6905 -51.2875 25.2612
v 43.4115 -51.2875 23.0920
v 23.1236 -41.4948 23.3586
v 33.6905 -41.7024 23.6233
v 42.3669 -42.9668 22.4939
v -72.1900 35.1396 23.1121
v -62.3095 32.3730 25.3355
v -46.3095 32.6241 25.0684
v -37.4116 35.4744 22.7559
v -72.0789 44.7125 23.1206
v -62.3095 44.7125 26.2588
v -47.4350 44.0760 24.7770
v -37.4116 38.3183 22.7559
v -70.7882 53.0874 22.0701
v -62.3095 53.2736 22.4555
v -53.5187 53.0857 22.2253
f 5 1 4
f 5 2 1
f 6 2 5
f 6 3 2
f 8 4 7
f 8 5 4
f 12 9 11
f 12 10 9
f 15 11 14
f 15 12 11
f 17 13 16
f 17 14 13
f 17 15 14
f 17 18 15
f 22 1 2
f 22 21 1
f 21 20 19
f 21 22 20
f 23 2 3
f 23 22 2
f 24 1 21
f 24 4 1
f 6 5 25
f 6 25 26
f 24 7 4
f 24 27 7
f 25 5 8
f 25 8 28
f 8 7 27
f 8 27 28
f 31 9 10
f 31 30 9
f 33 9 30
f 33 11 9
f 32 30 29
f 32 33 30
f 34 31 10
f 34 10 12
f 33 14 11
f 33 36 14
f 36 13 14
f 36 35 13
f 35 33 32
f 35 36 33
f 34 12 15
f 34 15 37
f 38 13 35
f 38 16 13
f 17 16 38
f 17 38 39
f 38 35 36
f 38 36 39
f 40 37 15
f 40 15 18
f 40 18 17
f 40 17 39
f 39 36 37
f 39 37 40
f 44 19 20
f 44 43 19
f 46 41 45
f 46 42 41
f 47 19 43
f 47 21 19
f 46 43 42
f 46 47 43
f 48 44 20
f 48 20 22
f 49 22 23
f 49 48 22
f 50 46 45
f 50 51 46
f 52 21 47
f 52 24 21
f 51 47 46
f 51 52 47
f 52 47 48
f 52 48 53
f 54 26 25
f 54 25 53
f 53 48 49
f 53 49 54
f 55 24 52
f 55 27 24
f 56 53 25
f 56 25 28
f 56 28 27
f 56 27 55
f 55 52 53
f 55 53 56
f 60 29 30
f 60 59 29
f 61 30 31
f 61 60 30
f 63 57 62
f 63 58 57
f 64 29 59
f 64 32 29
f 63 59 58
f 63 64 59
f 61 31 34
f 61 34 66
f 66 65 60
f 66 60 61
f 67 63 62
f 67 68 63
f 69 32 64
f 69 35 32
f 68 64 63
f 68 69 64
f 70 36 35
f 70 35 69
f 69 64 65
f 69 65 70
f 71 66 34
f 71 34 37
f 37 36 70
f 37 70 71
f 70 65 66
f 70 66 71
f 73 41 42
f 73 72 41
f 74 42 43
f 74 73 42
f 75 43 44
f 75 74 43
f 76 41 72
f 76 45 41
f 78 75 44
f 78 44 48
f 78 48 47
f 78 47 77
f 78 77 74
f 78 74 75
f 79 45 76
f 79 50 45
f 80 51 50
f 80 50 79
f 81 77 47
f 81 47 52
f 81 52 51
f 81 51 80
f 83 57 58
f 83 82 57
f 84 58 59
f 84 83 58
f 85 59 60
f 85 84 59
f 86 57 82
f 86 62 57
f 85 60 65
f 85 65 88
f 65 64 87
f 65 87 88
f 86 67 62
f 86 89 67
f 90 68 67
f 90 67 89
f 87 64 69
f 87 69 91
f 91 69 68
f 91 68 90
f 73 92 72
f 73 93 92
f 94 73 74
f 94 93 73
f 95 72 92
f 95 76 72
f 96 95 92
f 96 92 93
f 97 94 74
f 97 74 77
f 96 93 94
f 96 94 97
f 98 76 95
f 98 79 76
f 80 79 98
f 80 98 99
f 98 95 96
f 98 96 99
f 97 77 81
f 97 81 100
f 100 81 80
f 100 80 99
f 100 99 96
f 100 96 97
f 83 101 82
f 83 102 101
f 103 83 84
f 103 102 83
f 104 84 85
f 104 103 84
f 101 86 82
f 101 105 86
f 106 105 101
f 106 101 102
f 107 106 102
f 107 102 103
f 108 104 85
f 108 85 88
f 108 88 87
f 108 87 107
f 108 107 103
f 108 103 104
f 109 86 105
f 109 89 86
f 90 89 109
f 90 109 110
f 109 105 106
f 109 106 110
f 111 107 87
f 111 87 91
f 111 91 90
f 111 90 110
f 111 110 106
f 111 106 107
