# parsimony mesh: cplx_CPLX0-7617 (source /Users/eranagmon/code/v2e-cplx/workspace/studies/ecoli-3d/viz/3d/structures/cplx_CPLX0-7617.pdb)
# atoms: 1694  voxel: 8 Å  verts: 262  tris: 536
v 52.8402 -53.4768 -17.1781
v 56.9305 -53.6900 -17.3164
v 61.1051 -53.7578 -17.3606
v 52.8402 -53.4665 -17.1781
v 56.9305 -53.3047 -17.3164
v 61.1051 -53.2545 -17.3606
v -43.3548 33.5667 -17.3323
v -41.5000 33.5667 -17.3323
v -43.3548 34.7751 -17.3323
v -41.5000 34.7751 -17.3323
v 28.6313 -62.3836 -9.4995
v 32.9305 -63.1780 -10.1799
v 40.9305 -63.1495 -11.9228
v 45.7228 -62.3455 -11.8232
v 28.6313 -59.3819 -9.4995
v 32.2586 -57.0179 -10.6543
v 40.9305 -57.4719 -14.4347
v 49.2815 -56.6986 -14.2778
v 56.8404 -54.3154 -13.6853
v 61.1051 -53.7578 -16.6920
v 34.8148 -49.4719 -10.3465
v 40.9305 -49.4719 -12.4713
v 49.6763 -50.2686 -14.6181
v 56.7107 -50.6938 -13.3861
v 61.1051 -53.2545 -16.6920
v 36.5245 -41.4719 -9.6320
v 40.9305 -41.4719 -10.2965
v 48.9305 -41.4719 -10.9076
v 54.0533 -41.4719 -10.2430
v 36.7569 -36.6624 -9.3480
v 40.9305 -36.4821 -9.5124
v 48.9305 -36.7968 -9.7719
v 53.3836 -37.0821 -9.6939
v -59.5571 25.5306 -9.7200
v -55.0695 25.0356 -10.1693
v -47.0695 25.6792 -10.2336
v -42.9440 26.3888 -9.8058
v -59.7738 30.5281 -9.8853
v -55.0695 30.5281 -11.3755
v -46.4407 30.7512 -13.9458
v -39.5554 31.0415 -13.2831
v -34.3404 33.8496 -11.4271
v -59.5210 34.9173 -9.5772
v -54.7196 37.9616 -10.6604
v -46.4407 37.8763 -14.1069
v -38.9278 37.8763 -14.8055
v -33.8195 38.5281 -11.6035
v -52.0204 46.5281 -10.1890
v -47.0695 46.5281 -10.9638
v -39.0695 46.5281 -11.0994
v -34.0663 46.5281 -10.3245
v -51.5873 52.5615 -9.6599
v -47.0695 52.3671 -9.7040
v -39.0695 51.1790 -9.7504
v -34.6694 50.9774 -9.7218
v 28.6744 -62.1983 -5.1752
v 33.0605 -62.8709 -4.4239
v 40.2408 -63.0541 -4.4239
v 46.2898 -62.4273 -5.1752
v 28.6744 -59.1611 -5.1752
v 32.0288 -57.8409 -3.4957
v 37.1143 -61.4138 -1.2563
v 50.2898 -59.3850 -5.1752
v 54.4341 -55.3850 -5.1752
v 28.4769 -47.8452 -1.6418
v 30.5174 -50.0959 -4.6551
v 55.9436 -49.4719 -5.1752
v 27.6657 -41.4719 -1.8987
v 32.5245 -41.4719 -5.8987
v 55.2332 -41.4719 -5.1752
v 27.6977 -36.5855 -1.6733
v 34.0588 -33.9573 -4.3835
v 41.0839 -32.0060 -4.7263
v 48.9591 -32.2578 -4.4348
v 53.6114 -34.0381 -4.4348
v 36.6940 -29.0687 -1.7604
v 38.5195 -29.0687 -1.7604
v 51.8900 -25.4719 -1.2816
v 53.0289 -25.4719 -1.2816
v 52.8288 -21.3481 -1.2178
v 52.9845 -21.3481 -1.2178
v -59.5741 25.6230 -5.1752
v -55.0511 25.2085 -4.7202
v -47.6050 25.4362 -4.7202
v -42.0256 25.9076 -5.1752
v -60.3190 30.5281 -5.1752
v -52.3721 26.9047 -1.7501
v -50.6286 26.9047 -1.7501
v -38.0256 29.2675 -5.1752
v -34.0988 33.2675 -5.1752
v -59.9953 37.9616 -4.7222
v -57.1530 40.2506 -7.0868
v -32.7265 38.5281 -5.1752
v -60.4974 46.5281 -1.9462
v -56.0204 46.5281 -5.9462
v -33.0072 46.5281 -5.1752
v -60.4236 51.3125 -1.6249
v -54.3006 54.6036 -4.9449
v -47.0695 56.3671 -6.8296
v -39.0020 55.3647 -4.6450
v -34.3795 52.2599 -5.1752
v -51.6807 60.0535 -2.9314
v -47.0695 60.0263 -2.8296
v -38.4524 62.3350 -1.4422
v -34.9733 65.6697 -1.2597
v -35.2812 66.7748 -1.2597
v -34.9733 66.7748 -1.2597
v 52.6974 -69.5705 6.7281
v 53.0618 -69.5705 6.7281
v 28.8882 -61.5288 -1.1286
v 33.4764 -61.6847 1.5924
v 40.5700 -61.8564 2.3945
v 48.9639 -63.9292 3.4279
v 53.5626 -65.4719 5.6420
v 28.8882 -60.4809 -1.1286
v 32.9357 -59.0785 0.9005
v 40.5700 -61.1994 2.3945
v 48.4193 -60.6129 2.9101
v 54.6327 -57.5333 2.7366
v 28.1612 -47.8959 2.8248
v 30.1220 -51.8959 2.8248
v 55.6495 -49.4719 2.8248
v 20.4896 -38.1029 5.7110
v 24.3754 -41.0505 2.9565
v 55.5952 -41.4719 2.8248
v 20.4896 -36.9529 5.7110
v 24.9908 -36.2523 2.9565
v 33.5886 -33.1777 2.1296
v 41.0839 -31.5975 2.1296
v 46.9909 -30.3613 2.8248
v 56.1783 -33.4719 2.8248
v 36.6940 -29.0687 -1.0006
v 38.5195 -29.0687 -1.0006
v 50.1766 -25.4719 2.8248
v 54.9431 -25.4719 2.8248
v 51.4184 -18.1976 3.0718
v 53.5444 -18.1976 3.0718
v 51.5741 -9.4719 5.9497
v 53.6621 -9.4719 5.9497
v 52.5564 -5.1579 6.5796
v 53.2888 -5.1579 6.5796
v -35.1623 18.4935 6.7908
v -35.0245 18.4935 6.7908
v -59.2547 26.3187 -0.9492
v -54.5514 26.3211 2.1202
v -47.2421 26.0819 3.1858
v -38.9899 23.9475 3.8848
v -34.5502 22.5281 5.9118
v -59.6147 30.5281 -0.2011
v -54.7395 28.9752 2.1092
v -47.2421 26.8856 3.1858
v -39.5970 27.5295 3.4117
v -33.7249 30.7267 2.9148
v -59.9952 38.7377 2.6685
v -58.0023 36.2108 5.2310
v -32.9971 38.5281 2.8248
v -67.5406 49.9912 5.4723
v -62.0145 48.2513 4.2559
v -58.9017 50.3270 6.6603
v -32.9465 46.5281 2.8248
v -67.5406 51.1132 5.4723
v -62.4957 51.2128 3.3996
v -55.2912 53.8942 2.9815
v -47.0695 56.7102 4.3796
v -39.4174 57.9388 2.6031
v -33.0894 54.8439 2.4017
v -51.6807 60.0535 -0.6973
v -47.0695 60.0263 0.3796
v -39.2139 61.3833 1.6585
v -33.8569 62.8131 2.4017
v -43.0737 74.3206 6.8126
v -38.9142 70.5477 3.6489
v -34.5237 69.8761 3.0210
v -43.0737 74.5403 6.8126
v -38.6720 77.7354 6.0002
v -34.3262 78.5281 5.8031
v -35.7403 83.0123 6.4689
v -34.6061 83.0123 6.4689
v 52.6974 -69.5705 7.1847
v 53.0618 -69.5705 7.1847
v 36.4723 -61.8407 7.1925
v 38.6924 -61.8407 7.1925
v 51.2238 -65.4719 7.9365
v 53.5626 -65.4719 7.9365
v 35.6790 -57.4719 8.0303
v 41.1876 -57.9798 8.5198
v 48.5049 -57.9798 8.8662
v 54.4419 -57.4719 8.4633
v 28.3584 -46.3306 7.1976
v 33.0042 -49.1871 8.2753
v 40.9305 -49.4719 10.2606
v 48.9305 -49.4719 10.0695
v 54.3067 -49.4719 8.1671
v 20.4896 -38.1029 7.1932
v 25.3872 -41.0505 7.3978
v 32.9305 -41.4719 8.0288
v 40.9305 -41.4719 9.2199
v 48.9305 -41.4719 9.8219
v 54.4153 -41.4719 8.1909
v 20.4896 -36.9529 7.1932
v 24.9305 -36.6122 7.2614
v 32.9305 -36.7690 7.1455
v 40.9305 -35.9714 7.6271
v 48.9502 -33.2575 8.2483
v 55.6670 -33.4719 7.9622
v 51.2171 -25.4719 7.4981
v 54.8447 -25.4719 7.4981
v 51.0429 -17.0796 10.3099
v 53.7972 -17.0796 10.3099
v 50.4455 -9.4719 10.8248
v 54.4205 -9.4719 10.8248
v 52.0669 -4.8047 10.8248
v 53.6012 -4.8047 10.8248
v -35.1623 18.4935 6.9864
v -35.0245 18.4935 6.9864
v -51.3973 26.3236 7.0411
v -49.1889 26.3236 7.0411
v -36.8800 22.5281 7.6213
v -34.5502 22.5281 7.6213
v -52.5150 30.5281 8.0654
v -46.7411 29.9311 8.3654
v -39.6623 29.9311 8.5287
v -33.8126 30.5281 8.2695
v -59.5207 41.5441 7.1497
v -55.2292 38.7377 8.4483
v -47.0695 38.5281 10.5708
v -39.0695 38.5281 9.8497
v -34.0902 38.5281 7.8893
v -67.5406 49.9912 7.1722
v -62.0442 47.4924 7.1610
v -55.7688 47.2074 7.8507
v -47.0695 46.5281 9.9116
v -39.0695 46.5281 9.9315
v -34.0057 46.5281 7.8833
v -67.5406 51.1132 7.1722
v -64.5677 51.1132 7.1722
v -53.5683 51.1426 7.2666
v -47.0695 52.7102 7.9292
v -39.5545 55.1050 8.4414
v -32.9844 54.5281 8.0725
v -38.2839 62.5281 7.5590
v -33.6259 62.5281 7.5590
v -43.0737 74.3206 6.8403
v -38.9822 71.6646 9.6658
v -34.5018 71.2164 10.2247
v -43.0737 74.5403 6.8403
v -39.3387 77.7354 10.0341
v -33.9334 78.5281 10.8248
v -36.1451 83.2913 10.8248
v -34.4286 83.2913 10.8248
v 52.2031 -14.1514 15.2476
v 53.4058 -14.1514 15.2476
v 51.8019 -9.4719 15.4454
v 53.6889 -9.4719 15.4454
v 52.1531 -4.8963 15.2294
v 53.4664 -4.8963 15.2294
v -35.4174 74.3418 14.9550
v -34.9369 74.3418 14.9550
v -35.9029 78.5281 15.1754
v -34.6767 78.5281 15.1754
v -35.8328 83.0615 15.1620
v -34.6784 83.0615 15.1620
f 5 1 4
f 5 2 1
f 6 2 5
f 6 3 2
f 9 8 7
f 9 10 8
f 15 12 11
f 15 16 12
f 16 13 12
f 16 17 13
f 17 14 13
f 17 18 14
f 19 1 2
f 19 18 1
f 20 2 3
f 20 19 2
f 21 17 16
f 21 22 17
f 23 1 18
f 23 4 1
f 22 18 17
f 22 23 18
f 24 5 4
f 24 4 23
f 20 3 6
f 20 6 25
f 25 6 5
f 25 5 24
f 25 24 19
f 25 19 20
f 26 22 21
f 26 27 22
f 28 22 27
f 28 23 22
f 29 23 28
f 29 24 23
f 30 27 26
f 30 31 27
f 32 27 31
f 32 28 27
f 33 28 32
f 33 29 28
f 39 34 38
f 39 35 34
f 39 36 35
f 39 40 36
f 41 7 8
f 41 40 7
f 40 37 36
f 40 41 37
f 43 39 38
f 43 44 39
f 40 9 7
f 40 45 9
f 44 40 39
f 44 45 40
f 46 41 8
f 46 8 10
f 46 10 9
f 46 9 45
f 46 42 41
f 46 47 42
f 48 45 44
f 48 49 45
f 50 45 49
f 50 46 45
f 50 47 46
f 50 51 47
f 52 49 48
f 52 53 49
f 54 49 53
f 54 50 49
f 55 50 54
f 55 51 50
f 12 56 11
f 12 57 56
f 58 12 13
f 58 57 12
f 59 13 14
f 59 58 13
f 56 15 11
f 56 60 15
f 16 15 60
f 16 60 61
f 62 61 57
f 62 57 58
f 63 59 14
f 63 14 18
f 64 18 19
f 64 63 18
f 66 16 61
f 66 21 16
f 64 19 24
f 64 24 67
f 69 21 66
f 69 26 21
f 69 65 68
f 69 66 65
f 67 24 29
f 67 29 70
f 69 30 26
f 69 72 30
f 71 69 68
f 71 72 69
f 73 31 30
f 73 30 72
f 74 32 31
f 74 31 73
f 70 29 33
f 70 33 75
f 75 33 32
f 75 32 74
f 76 73 72
f 76 77 73
f 79 74 78
f 79 75 74
f 80 79 78
f 80 81 79
f 83 34 35
f 83 82 34
f 84 35 36
f 84 83 35
f 37 84 36
f 37 85 84
f 86 34 82
f 86 38 34
f 88 87 83
f 88 83 84
f 89 85 37
f 89 37 41
f 42 89 41
f 42 90 89
f 86 43 38
f 86 91 43
f 92 44 43
f 92 43 91
f 93 90 42
f 93 42 47
f 92 48 44
f 92 95 48
f 94 92 91
f 94 95 92
f 93 47 51
f 93 51 96
f 95 52 48
f 95 98 52
f 97 95 94
f 97 98 95
f 99 53 52
f 99 52 98
f 54 53 99
f 54 99 100
f 96 51 55
f 96 55 101
f 101 55 54
f 101 54 100
f 102 99 98
f 102 103 99
f 103 100 99
f 103 104 100
f 106 105 104
f 106 107 105
f 57 110 56
f 57 111 110
f 59 112 58
f 59 113 112
f 114 108 113
f 114 109 108
f 115 56 110
f 115 60 56
f 116 111 57
f 116 57 61
f 61 60 115
f 61 115 116
f 116 115 110
f 116 110 111
f 112 62 58
f 112 117 62
f 62 116 61
f 62 117 116
f 117 111 116
f 117 112 111
f 118 113 59
f 118 59 63
f 118 117 112
f 118 112 113
f 119 63 64
f 119 118 63
f 118 114 113
f 118 119 114
f 121 61 116
f 121 66 61
f 121 65 66
f 121 120 65
f 122 119 64
f 122 64 67
f 120 68 65
f 120 124 68
f 125 122 67
f 125 67 70
f 124 71 68
f 124 127 71
f 127 123 126
f 127 124 123
f 128 72 71
f 128 71 127
f 130 74 73
f 130 73 129
f 125 70 75
f 125 75 131
f 128 76 72
f 128 132 76
f 129 73 77
f 129 77 133
f 77 76 132
f 77 132 133
f 132 128 129
f 132 129 133
f 130 78 74
f 130 134 78
f 131 75 79
f 131 79 135
f 134 80 78
f 134 136 80
f 135 79 81
f 135 81 137
f 137 81 80
f 137 80 136
f 138 137 136
f 138 139 137
f 140 139 138
f 140 141 139
f 83 144 82
f 83 145 144
f 85 146 84
f 85 147 146
f 148 142 147
f 148 143 142
f 144 86 82
f 144 149 86
f 145 83 87
f 145 87 150
f 150 149 144
f 150 144 145
f 146 88 84
f 146 151 88
f 88 150 87
f 88 151 150
f 151 145 150
f 151 146 145
f 152 147 85
f 152 85 89
f 152 151 146
f 152 146 147
f 153 89 90
f 153 152 89
f 152 148 147
f 152 153 148
f 149 91 86
f 149 154 91
f 155 154 149
f 155 149 150
f 156 153 90
f 156 90 93
f 154 94 91
f 154 158 94
f 156 93 96
f 156 96 160
f 158 97 94
f 158 162 97
f 162 157 161
f 162 158 157
f 163 98 97
f 163 97 162
f 162 158 159
f 162 159 163
f 160 96 101
f 160 101 166
f 166 101 100
f 166 100 165
f 167 98 163
f 167 102 98
f 103 102 167
f 103 167 168
f 167 163 164
f 167 164 168
f 165 100 104
f 165 104 169
f 104 103 168
f 104 168 169
f 168 164 165
f 168 165 169
f 170 104 105
f 170 169 104
f 170 165 169
f 170 166 165
f 169 106 104
f 169 172 106
f 170 105 107
f 170 107 173
f 173 107 106
f 173 106 172
f 175 171 174
f 175 172 171
f 175 173 172
f 175 176 173
f 177 176 175
f 177 178 176
f 109 179 108
f 109 180 179
f 112 181 111
f 112 182 181
f 183 108 179
f 183 113 108
f 184 180 109
f 184 109 114
f 184 183 179
f 184 179 180
f 181 116 111
f 181 185 116
f 182 112 117
f 182 117 186
f 185 181 182
f 185 182 186
f 183 118 113
f 183 187 118
f 118 186 117
f 118 187 186
f 188 184 114
f 188 114 119
f 188 187 183
f 188 183 184
f 185 121 116
f 185 190 121
f 121 189 120
f 121 190 189
f 191 190 185
f 191 185 186
f 191 186 187
f 191 187 192
f 193 188 119
f 193 119 122
f 192 187 188
f 192 188 193
f 189 124 120
f 189 195 124
f 195 123 124
f 195 194 123
f 196 195 189
f 196 189 190
f 197 196 190
f 197 190 191
f 198 197 191
f 198 191 192
f 193 122 125
f 193 125 199
f 198 192 193
f 198 193 199
f 194 126 123
f 194 200 126
f 201 127 126
f 201 126 200
f 201 200 194
f 201 194 195
f 202 128 127
f 202 127 201
f 202 201 195
f 202 195 196
f 203 129 128
f 203 128 202
f 202 196 197
f 202 197 203
f 130 129 203
f 130 203 204
f 203 197 198
f 203 198 204
f 205 199 125
f 205 125 131
f 204 198 199
f 204 199 205
f 206 130 204
f 206 134 130
f 207 205 131
f 207 131 135
f 206 204 205
f 206 205 207
f 206 136 134
f 206 208 136
f 207 135 137
f 207 137 209
f 209 208 206
f 209 206 207
f 208 138 136
f 208 210 138
f 209 137 139
f 209 139 211
f 210 140 138
f 210 212 140
f 211 139 141
f 211 141 213
f 213 141 140
f 213 140 212
f 143 214 142
f 143 215 214
f 146 216 145
f 146 217 216
f 218 142 214
f 218 147 142
f 219 215 143
f 219 143 148
f 219 218 214
f 219 214 215
f 216 150 145
f 216 220 150
f 217 146 151
f 217 151 221
f 220 216 217
f 220 217 221
f 218 152 147
f 218 222 152
f 152 221 151
f 152 222 221
f 223 219 148
f 223 148 153
f 223 222 218
f 223 218 219
f 220 155 150
f 220 225 155
f 155 224 154
f 155 225 224
f 226 225 220
f 226 220 221
f 226 221 222
f 226 222 227
f 228 223 153
f 228 153 156
f 227 222 223
f 227 223 228
f 224 158 154
f 224 230 158
f 230 157 158
f 230 229 157
f 159 158 230
f 159 230 231
f 231 230 224
f 231 224 225
f 232 231 225
f 232 225 226
f 232 226 227
f 232 227 233
f 234 228 156
f 234 156 160
f 233 227 228
f 233 228 234
f 229 161 157
f 229 235 161
f 236 230 158
f 236 158 162
f 236 162 161
f 236 161 235
f 236 235 229
f 236 229 230
f 237 159 231
f 237 163 159
f 164 163 237
f 164 237 238
f 237 231 232
f 237 232 238
f 239 165 164
f 239 164 238
f 238 232 233
f 238 233 239
f 240 234 160
f 240 160 166
f 240 239 233
f 240 233 234
f 241 165 239
f 241 169 165
f 242 240 166
f 242 166 170
f 242 241 239
f 242 239 240
f 241 172 169
f 241 244 172
f 244 171 172
f 244 243 171
f 242 170 173
f 242 173 245
f 245 244 241
f 245 241 242
f 243 174 171
f 243 246 174
f 175 174 246
f 175 246 247
f 246 243 244
f 246 244 247
f 245 173 176
f 245 176 248
f 247 177 175
f 247 249 177
f 248 176 178
f 248 178 250
f 250 178 177
f 250 177 249
f 209 251 208
f 209 252 251
f 251 210 208
f 251 253 210
f 252 209 211
f 252 211 254
f 254 253 251
f 254 251 252
f 253 212 210
f 253 255 212
f 256 254 211
f 256 211 213
f 256 213 212
f 256 212 255
f 255 253 254
f 255 254 256
f 245 257 244
f 245 258 257
f 257 247 244
f 257 259 247
f 258 245 248
f 258 248 260
f 260 259 257
f 260 257 258
f 259 249 247
f 259 261 249
f 262 260 248
f 262 248 250
f 250 249 261
f 250 261 262
f 261 259 260
f 261 260 262
