# parsimony mesh: cplx_CPLX0-248 (source /Users/eranagmon/code/v2e-cplx/workspace/studies/ecoli-3d/viz/3d/structures/cplx_CPLX0-248.pdb)
# atoms: 6328  voxel: 8 Å  verts: 561  tris: 1132
v 46.0716 -47.1079 -26.9383
v 49.5522 -47.1079 -26.9383
v 46.0716 -43.3146 -26.9383
v 50.9714 -41.4309 -26.6624
v 55.1506 -39.5472 -26.3864
v 52.3906 -37.4153 -26.3864
v 55.1506 -37.4153 -26.3864
v -41.7506 41.0453 -26.8877
v -36.9792 40.4520 -27.1473
v -28.9792 40.5100 -26.9683
v -24.2310 41.1226 -26.6490
v -41.7506 43.3102 -26.8877
v -37.0492 45.9947 -27.3567
v -28.9951 45.6783 -27.2135
v -24.2310 42.7829 -26.6490
v -34.4292 51.4361 -26.9577
v -31.6723 51.4361 -26.9577
v 62.1747 -62.2362 -18.5895
v 67.0208 -62.6943 -18.8257
v 71.8749 -62.6752 -18.7377
v 44.4241 -54.9054 -19.3624
v 51.0208 -56.0263 -20.2676
v 59.3131 -58.2606 -19.9071
v 67.0208 -57.9785 -19.8631
v 72.3694 -57.9785 -19.0644
v 36.4154 -48.6030 -19.5132
v 42.5812 -50.5221 -22.1044
v 51.7397 -49.8561 -24.6057
v 59.0208 -49.9785 -23.0400
v 67.0208 -49.9785 -21.0301
v 72.4761 -49.9785 -19.3952
v 30.4277 -40.5177 -18.8287
v 34.2576 -42.7020 -19.7898
v 43.2513 -41.1802 -24.2949
v 50.9714 -41.4309 -26.2748
v 58.2987 -42.1197 -24.4954
v 67.2054 -41.7137 -20.2753
v 72.0172 -44.2038 -19.1787
v 30.4277 -35.6955 -18.8287
v 35.0208 -34.9493 -19.2720
v 43.0208 -35.4188 -20.9035
v 50.2334 -34.2017 -23.4358
v 58.4384 -34.4628 -22.6145
v 64.6618 -36.8438 -19.3614
v 53.4095 -28.7833 -20.5343
v 56.3929 -28.7833 -20.5343
v -33.2795 25.9227 -18.5541
v -28.9792 25.5579 -18.9917
v -20.9792 25.0038 -19.1362
v -16.0999 25.1839 -18.7467
v -49.3470 33.5616 -18.7250
v -44.9792 32.7400 -19.5887
v -36.3593 30.0723 -20.0823
v -28.9792 30.0215 -21.1162
v -20.9792 30.0215 -20.6269
v -15.1136 30.0215 -19.0685
v -57.1555 41.7619 -18.5860
v -52.3998 38.6658 -19.3165
v -44.6420 38.2358 -23.1366
v -36.9792 36.4520 -24.3570
v -28.9792 36.5100 -24.4639
v -21.3303 38.2822 -23.2623
v -15.1128 38.0215 -19.4261
v -57.1555 44.4197 -18.5860
v -52.9792 45.5434 -19.2716
v -45.1978 46.4813 -22.3119
v -39.7625 48.6435 -25.2881
v -26.3390 48.1162 -25.0887
v -20.8022 46.0305 -22.1560
v -16.0989 43.9448 -19.2234
v -43.3116 51.3742 -19.9548
v -37.0172 54.0718 -22.5752
v -28.9475 54.1069 -22.4755
v -22.7067 51.4444 -19.7553
v -34.2719 58.9410 -19.8622
v -31.5561 58.9410 -19.8622
v 70.4535 -70.3612 -11.0108
v 71.7984 -70.3612 -11.0108
v 38.4660 -62.3753 -10.9811
v 39.9610 -62.3753 -10.9811
v 54.5240 -62.1603 -11.0481
v 59.3131 -62.8948 -13.9646
v 67.4804 -66.4037 -13.9422
v 74.5033 -65.1145 -13.4725
v 79.1280 -62.2205 -10.6009
v 37.9251 -57.9785 -12.7754
v 42.1926 -57.7150 -14.6300
v 51.5227 -59.5444 -13.9646
v 56.8414 -61.1154 -16.3814
v 76.5201 -58.3598 -13.6963
v 79.1280 -61.2807 -10.6009
v 30.0997 -46.9354 -12.9253
v 34.5984 -50.4359 -15.6021
v 39.0908 -53.9364 -18.2789
v 74.7362 -49.9785 -14.3394
v 22.4183 -38.8718 -11.1532
v 27.5971 -42.3614 -14.7059
v 31.0821 -45.8510 -18.2586
v 69.9702 -38.9991 -14.3394
v 72.5026 -42.9991 -14.3394
v 22.4183 -35.6605 -11.1532
v 26.8834 -33.0113 -14.6266
v 35.0208 -30.9493 -17.7063
v 43.0208 -31.4188 -16.7544
v 51.0482 -30.7371 -13.8943
v 59.0441 -32.2617 -13.9104
v 65.9702 -36.4519 -14.3394
v 28.5905 -25.9785 -12.7559
v 35.0208 -25.9785 -15.1332
v 42.5995 -26.4911 -12.9361
v 51.0482 -29.1414 -13.8943
v 56.3929 -28.7833 -16.2911
v 30.1288 -20.7204 -11.1340
v 35.0208 -19.4060 -11.7662
v 39.6519 -19.8067 -11.4472
v -17.3161 17.8241 -10.7033
v -15.0207 17.8241 -10.7033
v -49.3361 25.5811 -10.9124
v -46.5368 25.5811 -10.9124
v -33.9447 25.9297 -14.3394
v -28.9792 24.7283 -14.3394
v -20.3813 21.3578 -13.7577
v -12.8936 21.8159 -13.5132
v -8.5681 23.7811 -10.9898
v -49.8497 30.5456 -13.8832
v -44.3137 28.3328 -13.8832
v -37.9447 27.2556 -14.3394
v -11.1136 30.0215 -15.7365
v -8.4503 30.0215 -11.7365
v -57.8501 40.4725 -14.3394
v -53.7997 36.4725 -14.3394
v -11.6745 37.6680 -14.2668
v -8.6851 34.7656 -11.5517
v -59.1467 46.6604 -15.1030
v -52.9792 49.5434 -17.9100
v -48.6450 49.6524 -17.8275
v -18.0724 48.8380 -14.3394
v -15.5544 44.8380 -14.3394
v -59.7217 54.0215 -13.2798
v -52.9792 54.0215 -16.0055
v -45.5786 54.0331 -16.1970
v -37.2651 56.6874 -14.1359
v -28.9253 55.2230 -14.4182
v -22.0724 51.5391 -14.3394
v -58.3168 62.0215 -11.8101
v -52.9792 62.0215 -13.8631
v -45.2185 61.5312 -12.4588
v -37.2651 58.7393 -14.1359
v -31.5561 58.9410 -17.1374
v -57.5572 66.7867 -10.9859
v -52.9792 67.5565 -11.7675
v -48.0447 67.3030 -11.5971
v 69.7316 -70.6228 -6.3394
v 72.1725 -70.6228 -6.3394
v 38.1145 -62.3802 -6.3394
v 42.7850 -62.7721 -6.2582
v 51.8484 -62.4629 -6.2184
v 59.2698 -62.9157 -6.2754
v 65.7316 -67.0137 -6.3394
v 76.3564 -65.3237 -6.6247
v 79.1280 -62.2205 -9.4816
v 29.9278 -55.2257 -2.7172
v 34.5521 -57.9268 -5.7660
v 45.2944 -60.5246 -8.8707
v 51.8484 -60.9829 -6.2184
v 56.7691 -61.4412 -3.5662
v 76.7703 -58.3598 -6.6247
v 79.1280 -61.2807 -9.4816
v 21.4710 -48.0086 -3.4507
v 27.3471 -50.1387 -5.7506
v 32.7814 -52.2688 -8.0505
v 73.4496 -49.9785 -6.3394
v 21.0875 -41.7145 -6.2062
v 24.7664 -44.2052 -8.7841
v 60.8587 -39.6393 -3.6451
v 67.5958 -40.7769 -6.3228
v 71.7804 -44.2309 -6.3394
v 21.2788 -33.3877 -6.9857
v 23.3391 -30.3271 -10.0833
v 52.7640 -32.2225 -6.3394
v 58.5235 -36.0332 -6.3228
v 65.3124 -37.0778 -8.9784
v 20.9712 -25.9785 -4.9964
v 24.5905 -25.9785 -8.9964
v 43.8982 -25.0971 -6.3394
v 48.7640 -29.0971 -6.3394
v 20.9809 -17.9785 -3.7416
v 27.2856 -18.0236 -7.6510
v 35.0208 -15.4060 -8.5682
v 39.8087 -17.4754 -6.3326
v 21.8028 -12.5615 -3.0770
v 27.2992 -9.9283 -4.2404
v 34.6120 -10.6146 -4.5910
v 39.1641 -13.7054 -3.6614
v 30.1514 -5.6313 -3.1203
v 31.6728 -5.6313 -3.1203
v -33.5490 17.7940 -2.6444
v -32.2928 17.7940 -2.6444
v -18.2880 17.0863 -6.3394
v -14.0796 17.0863 -6.3394
v -57.0536 25.9720 -2.3891
v -52.3933 25.6965 -5.5692
v -44.3137 24.9480 -7.0870
v -36.4243 22.6945 -6.4482
v -29.3673 21.6861 -5.7224
v -22.2880 20.6199 -6.3394
v -9.9274 21.4773 -5.5624
v -8.5681 23.7811 -7.7112
v -65.7951 33.3183 -2.9097
v -60.2238 30.3996 -3.1595
v -53.7915 30.0215 -6.9368
v -41.2035 26.2491 -10.2521
v -39.2996 26.2491 -10.2521
v -17.5531 32.1456 -3.1302
v -12.2471 29.6960 -4.0040
v -8.4503 30.0215 -7.8270
v -66.2809 38.0215 -3.6048
v -60.7701 37.7381 -6.9998
v -55.0388 34.8825 -8.4195
v -17.5531 34.8273 -3.1302
v -13.5515 37.4631 -6.3740
v -8.6851 34.7656 -9.6178
v -66.1308 46.0215 -4.9367
v -63.5563 46.0215 -8.9367
v -33.1512 49.7609 -2.4872
v -28.9792 48.2544 -3.9310
v -20.8172 47.2772 -6.7240
v -15.8377 44.1628 -6.3394
v -65.9162 54.0215 -4.8302
v -63.7217 54.0215 -8.8302
v -35.5101 54.0089 -5.6281
v -28.9792 51.4562 -7.9310
v -23.3759 50.6220 -9.6470
v -66.1217 62.0215 -3.6139
v -62.3168 62.0215 -7.6139
v -43.7963 62.8820 -6.3394
v -40.0139 58.8820 -6.3394
v -66.3199 70.0215 -3.4351
v -60.5260 69.6806 -7.1634
v -52.9792 71.5565 -8.2289
v -47.5622 69.9904 -6.3036
v -65.8770 75.1290 -3.0758
v -60.9792 76.1595 -3.8260
v -52.9792 76.2232 -4.2289
v -48.1947 75.2140 -3.6130
v 38.8971 -70.0079 5.6062
v 39.0698 -70.0079 5.6062
v 69.8693 -70.4548 -1.3066
v 71.7788 -70.4548 -1.3066
v 29.2971 -63.3330 3.7320
v 35.9655 -65.3918 2.0024
v 42.2502 -66.1282 2.4280
v 49.8731 -63.0615 1.6606
v 62.1024 -62.2711 -2.1320
v 67.6807 -64.9084 0.9474
v 75.0783 -65.0407 1.7494
v 79.1229 -62.5358 4.8055
v 21.9923 -55.9484 3.6296
v 26.9458 -58.2537 1.0141
v 33.0338 -60.5590 -1.6014
v 53.8731 -61.0330 1.6606
v 59.2698 -60.4015 0.9851
v 67.6453 -58.5086 3.2048
v 74.9520 -57.3047 1.5434
v 79.4588 -57.9785 4.2948
v 20.3395 -50.3966 1.2420
v 24.5945 -53.3420 -1.7037
v 68.9232 -49.9785 1.8715
v 74.0991 -51.3952 0.7957
v 79.5027 -53.2841 4.6946
v 14.4751 -39.4408 4.9341
v 17.1148 -42.0559 2.0247
v 60.8587 -39.6393 -0.5084
v 66.4240 -42.7428 1.2762
v 71.0543 -45.8462 -2.2725
v 14.4751 -36.9129 4.9341
v 17.6825 -34.1391 2.0247
v 45.4160 -32.5575 3.9261
v 50.6157 -34.1039 1.4199
v 58.5235 -37.1241 1.9592
v 63.4017 -37.5912 4.8249
v 19.0599 -25.9785 1.6606
v 43.2182 -26.3607 1.4199
v 47.6789 -29.2822 -1.4073
v 14.6014 -14.8738 4.7661
v 17.4177 -17.7156 1.9239
v 37.1850 -16.5437 3.2236
v 39.4671 -18.7176 0.9984
v 14.6014 -13.2686 4.7661
v 19.0900 -11.2843 1.9239
v 27.2992 -7.2936 1.9039
v 34.4289 -10.1614 1.3115
v 39.1641 -13.7054 -2.1097
v 30.1514 -5.6313 -0.6006
v 31.6728 -5.6313 -0.6006
v -50.5676 17.0427 4.6071
v -47.1547 17.0427 4.6071
v -33.5490 17.7940 -1.8357
v -32.2928 17.7940 -1.8357
v -18.3873 16.9720 -0.6797
v -12.7081 17.2452 1.6699
v -8.3680 17.5184 4.0195
v -65.0009 26.0019 5.6257
v -60.2238 25.0230 2.4397
v -53.1322 21.8037 1.8285
v -44.6845 20.8858 1.8285
v -36.5211 20.6574 1.1629
v -29.5400 22.7455 1.1231
v -21.0241 22.3498 -0.0070
v -12.6578 22.0215 1.1012
v -7.9231 22.0215 2.4423
v -65.7831 30.3996 2.4397
v -62.3870 27.9850 0.2924
v -26.7873 27.2508 4.0820
v -20.8713 29.6982 1.4411
v -12.7459 28.6461 0.9744
v -7.5835 30.0215 2.6049
v -67.9814 38.0215 1.6606
v -18.9702 37.7050 1.7667
v -13.2798 37.5013 1.7035
v -7.9152 34.8419 4.2362
v -73.2053 48.7172 5.3415
v -70.1595 46.0389 2.2691
v -33.6314 49.7745 1.6606
v -29.7620 48.5666 1.8308
v -21.0634 45.4852 1.8908
v -16.4766 43.0444 -0.8292
v -73.2053 50.3807 5.3415
v -69.3127 53.4371 2.2691
v -42.3501 55.4465 4.1572
v -37.9613 53.2765 1.5586
v -27.6173 50.6308 4.6109
v -24.2802 50.6308 4.6109
v -67.1724 62.0215 1.6606
v -44.4373 61.6001 1.5586
v -40.4131 58.6526 -1.1761
v -68.7485 70.0215 1.6606
v -50.8115 71.9065 4.2116
v -47.9441 69.5525 1.5912
v -67.5104 75.7540 1.6606
v -60.9792 77.7272 1.6606
v -53.2785 76.3155 1.5912
v -48.1947 75.2140 -1.1218
v 38.8971 -70.0079 5.7637
v 39.0698 -70.0079 5.7637
v 22.7956 -62.1944 12.5465
v 26.7866 -63.5754 9.7922
v 35.7466 -67.4478 8.9225
v 42.3746 -65.6419 8.9238
v 48.6719 -62.6354 6.7506
v 70.8255 -62.2123 5.9125
v 75.0208 -62.5718 5.9602
v 79.1229 -62.5358 5.8081
v 21.8615 -58.3604 9.7922
v 23.9638 -61.2817 7.2132
v 45.6794 -60.5932 12.0839
v 50.9610 -58.2575 9.3850
v 59.0208 -56.4102 7.1389
v 67.6453 -58.5086 6.2594
v 75.1955 -58.6353 6.5608
v 79.4588 -57.9785 6.5970
v 19.0778 -49.9785 9.6606
v 52.9926 -49.9785 10.7258
v 59.0208 -49.9785 8.7584
v 64.9232 -49.9785 7.6933
v 77.9786 -53.2841 6.7616
v 79.5027 -53.2841 6.7616
v 14.4751 -39.4408 7.9335
v 17.1370 -42.0559 10.2243
v 46.0926 -38.9156 11.2185
v 51.2607 -41.7408 9.7001
v 59.0208 -41.9785 8.2801
v 64.1256 -41.9785 7.3992
v 14.4751 -36.9129 7.9335
v 18.0443 -34.1391 10.2243
v 44.2452 -34.7259 8.9954
v 51.0208 -37.2719 6.4139
v 59.0208 -37.0472 6.6606
v 63.4017 -37.5912 6.2142
v 21.0267 -25.6101 10.1121
v 23.7406 -22.6979 13.0798
v 37.2867 -23.8101 11.0984
v 40.0392 -26.2775 8.9233
v 14.6014 -14.8738 6.8086
v 19.6321 -17.2801 9.9442
v 26.1645 -17.3465 12.8108
v 34.5692 -18.4418 9.1535
v 39.0826 -21.8771 5.7651
v 14.6014 -13.2686 6.8086
v 19.7256 -12.0727 9.5494
v 26.3614 -11.2820 9.7893
v 31.8517 -11.9508 7.2085
v -51.0133 17.1533 9.6606
v -47.3831 17.1533 9.6606
v -10.3447 17.5184 6.4171
v -8.3680 17.5184 6.4171
v -65.1806 25.7765 9.6606
v -60.9792 23.1462 9.6606
v -55.0133 19.3912 9.6606
v -43.3831 20.5595 9.6606
v -37.6852 24.5924 9.2427
v -32.1206 25.5891 6.2974
v -11.6823 22.0215 7.0425
v -7.9231 22.0215 7.0425
v -65.6183 30.0215 9.6606
v -35.7347 30.0215 11.3356
v -29.2640 29.9591 7.5511
v -24.1895 32.5842 6.5782
v -11.4860 30.0215 8.2909
v -7.5835 30.0215 8.2909
v -68.0007 38.0215 9.6606
v -34.0368 38.0215 12.3495
v -28.9792 38.0215 10.5557
v -23.0375 38.0215 7.8669
v -10.0830 34.8419 8.0817
v -7.9152 34.8419 8.0817
v -73.2053 48.7172 6.4972
v -69.3684 46.6201 10.0020
v -64.7849 49.8562 13.5068
v -41.9790 49.2836 11.1408
v -36.1178 46.9515 9.3951
v -29.7620 46.7802 8.6836
v -23.1055 46.0215 7.9478
v -73.2053 50.3807 6.4972
v -68.5631 53.4371 8.6185
v -64.0715 54.0215 12.7306
v -43.5893 53.2765 8.9488
v -39.0101 50.1131 5.8075
v -27.6173 50.6308 6.6861
v -24.2802 50.6308 6.6861
v -66.0458 62.1284 9.8089
v -63.9632 59.5330 12.5745
v -50.6747 64.6582 11.7467
v -47.6106 62.0035 9.3123
v -68.0882 70.0215 9.6606
v -58.7810 72.2142 11.9620
v -53.4097 69.3937 9.1877
v -48.6812 66.5732 6.4133
v -67.2349 75.2709 9.6606
v -61.2602 75.5537 9.4415
v -56.1448 74.9092 6.6287
v 22.7956 -62.1944 14.0607
v 27.2054 -63.2664 17.1007
v 35.0208 -64.6192 17.6606
v 40.3034 -63.1713 17.6606
v 22.3431 -57.9785 15.6254
v 24.5903 -57.9785 19.6254
v 44.3034 -59.0286 17.6606
v 47.7451 -55.0286 17.6606
v 21.5256 -49.9539 18.1924
v 23.4725 -52.6041 21.2135
v 50.3066 -49.9785 17.6606
v 21.3791 -42.2406 17.1412
v 23.5495 -39.7487 19.4616
v 38.6812 -38.3889 21.3115
v 43.2639 -39.3138 18.2512
v 49.5823 -43.3398 17.6606
v 21.7475 -33.9785 14.8546
v 24.7879 -33.9785 18.8546
v 37.8586 -33.9785 20.6352
v 40.7549 -33.9785 16.6352
v 22.2458 -28.0312 14.7850
v 26.9612 -25.1217 18.1467
v 34.8821 -25.6778 18.4089
v 39.5945 -29.1434 15.3092
v 22.8620 -14.3530 13.6986
v 26.1645 -17.3465 14.9369
v 31.9534 -20.3399 16.1751
v 22.8620 -13.8755 13.6986
v 23.2551 -13.8755 13.6986
v -50.1028 17.8427 13.9808
v -48.6756 17.8427 13.9808
v -65.2260 25.7145 14.0287
v -60.6516 23.8201 17.0815
v -52.8534 20.2407 17.0527
v -45.2554 22.8492 16.6244
v -40.8226 25.9496 13.9347
v -65.2253 30.0215 14.3841
v -63.0321 30.0215 18.3841
v -41.8352 27.1989 19.2680
v -39.6086 29.9280 17.0251
v -66.4000 37.6548 17.2186
v -64.2624 34.7437 19.5906
v -35.0503 38.5143 17.1516
v -32.6356 41.5096 19.4789
v -66.6942 44.8392 17.6606
v -63.3783 48.8392 17.6606
v -43.6423 48.4156 17.6606
v -36.3269 44.2267 17.1516
v -32.6356 42.5047 19.4789
v -60.9723 54.0215 17.6606
v -49.1988 56.9547 21.5373
v -47.4973 54.1814 18.3867
v -65.3560 64.8663 13.9847
v -60.7084 61.9868 17.0659
v -52.6034 61.8828 18.1756
v -48.2920 59.3248 16.2040
v -65.6596 70.0215 14.1374
v -61.2602 69.7371 14.7339
v -56.0080 66.8809 14.8138
v -65.5096 74.4848 13.9723
v -64.1143 74.4848 13.9723
v 29.9951 -62.8178 22.4655
v 35.0208 -62.7984 22.4975
v 39.4057 -62.2324 21.9716
v 28.5903 -57.9785 23.5541
v 35.0208 -57.9785 25.1024
v 42.4518 -57.2498 22.9645
v 47.0906 -54.0973 21.7692
v 22.8672 -47.2708 22.1867
v 26.6731 -49.9804 25.4502
v 35.0208 -51.3944 28.2656
v 42.9176 -49.4843 27.2999
v 48.3348 -49.9785 23.3946
v 22.8672 -45.0820 22.1867
v 26.7116 -42.4754 25.2789
v 35.6170 -40.8669 25.6869
v 42.9176 -43.4595 26.1826
v 48.7029 -44.1898 23.8640
v 28.7879 -33.9785 23.1972
v 33.8586 -33.9785 23.1972
v 30.1817 -27.5454 22.3323
v 32.4776 -27.5454 22.3323
v -57.7665 24.5716 22.4839
v -52.9792 24.2295 22.9987
v -47.1685 25.0821 22.6215
v -58.9261 30.5098 25.3546
v -52.9792 29.4336 26.9987
v -45.1650 30.4780 25.3472
v -40.3542 32.5322 22.7395
v -65.5857 40.0770 22.4793
v -62.0820 37.6548 25.3518
v -49.9340 40.4457 28.9188
v -45.4885 37.8760 28.0228
v -37.4042 38.5143 23.9410
v -32.6356 41.5096 22.1158
v -65.5857 43.2771 22.4793
v -60.3660 45.6662 24.9416
v -52.7521 45.6417 26.3032
v -45.7097 45.9796 24.2173
v -36.9792 43.3315 23.7020
v -32.6356 42.5047 22.1158
v -57.8799 54.0215 22.2751
v -52.3109 54.1814 22.1939
v -48.8635 51.6214 21.7302
v -57.4536 59.1073 22.0701
v -54.5321 59.1073 22.0701
v 29.8737 -47.3567 30.0215
v 35.0208 -47.3944 30.0043
v 40.1821 -46.4882 29.7581
v 29.8737 -45.2021 30.0215
v 35.0208 -45.2812 30.0043
v 40.1821 -45.8252 29.7581
v -57.4868 33.5020 30.0194
v -52.9792 33.4336 30.0429
v -48.4948 33.7571 29.8115
v -57.8953 38.0215 30.3127
v -52.7521 37.8760 30.2728
v -48.4948 35.1124 29.8115
v -57.6930 42.7219 30.1713
v -55.2673 42.7219 30.1713
f 3 2 1
f 3 4 2
f 6 5 4
f 6 7 5
f 12 9 8
f 12 13 9
f 14 9 13
f 14 10 9
f 15 10 14
f 15 11 10
f 17 13 16
f 17 14 13
f 24 18 23
f 24 19 18
f 24 20 19
f 24 25 20
f 28 1 2
f 28 27 1
f 27 22 21
f 27 28 22
f 29 22 28
f 29 23 22
f 30 23 29
f 30 24 23
f 31 24 30
f 31 25 24
f 34 1 27
f 34 3 1
f 34 26 33
f 34 27 26
f 35 28 2
f 35 2 4
f 35 4 3
f 35 3 34
f 5 35 4
f 5 36 35
f 36 28 35
f 36 29 28
f 37 29 36
f 37 30 29
f 38 30 37
f 38 31 30
f 40 32 39
f 40 33 32
f 41 33 40
f 41 34 33
f 35 6 4
f 35 42 6
f 42 34 41
f 42 35 34
f 36 5 7
f 36 7 43
f 7 6 42
f 7 42 43
f 44 36 43
f 44 37 36
f 45 43 42
f 45 46 43
f 54 47 53
f 54 48 47
f 55 48 54
f 55 49 48
f 55 50 49
f 55 56 50
f 59 51 58
f 59 52 51
f 60 8 9
f 60 59 8
f 60 52 59
f 60 53 52
f 61 9 10
f 61 60 9
f 61 53 60
f 61 54 53
f 11 61 10
f 11 62 61
f 61 55 54
f 61 62 55
f 63 55 62
f 63 56 55
f 65 57 64
f 65 58 57
f 59 12 8
f 59 66 12
f 66 58 65
f 66 59 58
f 67 13 12
f 67 12 66
f 62 11 15
f 62 15 69
f 15 14 68
f 15 68 69
f 70 62 69
f 70 63 62
f 67 16 13
f 67 72 16
f 71 67 66
f 71 72 67
f 68 14 17
f 68 17 73
f 17 16 72
f 17 72 73
f 74 68 73
f 74 69 68
f 75 73 72
f 75 76 73
f 83 18 19
f 83 82 18
f 20 83 19
f 20 84 83
f 83 78 77
f 83 84 78
f 86 80 79
f 86 87 80
f 88 21 22
f 88 87 21
f 89 18 82
f 89 23 18
f 89 22 23
f 89 88 22
f 89 81 88
f 89 82 81
f 90 84 20
f 90 20 25
f 90 85 84
f 90 91 85
f 94 21 87
f 94 27 21
f 94 26 27
f 94 93 26
f 94 86 93
f 94 87 86
f 95 90 25
f 95 25 31
f 98 26 93
f 98 33 26
f 98 32 33
f 98 97 32
f 98 92 97
f 98 93 92
f 95 31 38
f 95 38 100
f 38 37 99
f 38 99 100
f 97 39 32
f 97 102 39
f 102 96 101
f 102 97 96
f 103 40 39
f 103 39 102
f 104 41 40
f 104 40 103
f 42 41 104
f 42 104 105
f 99 37 44
f 99 44 107
f 44 43 106
f 44 106 107
f 108 103 102
f 108 109 103
f 109 104 103
f 109 110 104
f 105 45 42
f 105 111 45
f 111 104 110
f 111 105 104
f 106 43 46
f 106 46 112
f 112 46 45
f 112 45 111
f 112 111 105
f 112 105 106
f 113 109 108
f 113 114 109
f 115 109 114
f 115 110 109
f 121 47 48
f 121 120 47
f 49 121 48
f 49 122 121
f 50 122 49
f 50 123 122
f 123 116 122
f 123 117 116
f 52 125 51
f 52 126 125
f 126 118 125
f 126 119 118
f 127 47 120
f 127 53 47
f 53 126 52
f 53 127 126
f 128 123 50
f 128 50 56
f 128 124 123
f 128 129 124
f 131 51 125
f 131 58 51
f 131 57 58
f 131 130 57
f 132 128 56
f 132 56 63
f 133 128 132
f 133 129 128
f 130 64 57
f 130 134 64
f 135 65 64
f 135 64 134
f 136 66 65
f 136 65 135
f 138 132 63
f 138 63 70
f 70 69 137
f 70 137 138
f 139 135 134
f 139 140 135
f 136 71 66
f 136 141 71
f 140 136 135
f 140 141 136
f 142 72 71
f 142 71 141
f 137 69 74
f 137 74 144
f 74 73 143
f 74 143 144
f 146 139 145
f 146 140 139
f 146 141 140
f 146 147 141
f 142 75 72
f 142 148 75
f 147 142 141
f 147 148 142
f 143 73 76
f 143 76 149
f 149 76 75
f 149 75 148
f 149 148 142
f 149 142 143
f 150 146 145
f 150 151 146
f 152 146 151
f 152 147 146
f 154 77 78
f 154 153 77
f 80 155 79
f 80 156 155
f 158 81 82
f 158 157 81
f 159 77 153
f 159 83 77
f 159 82 83
f 159 158 82
f 160 154 78
f 160 78 84
f 85 160 84
f 85 161 160
f 155 86 79
f 155 163 86
f 164 156 80
f 164 80 87
f 165 81 157
f 165 88 81
f 88 164 87
f 88 165 164
f 164 157 156
f 164 165 157
f 166 165 157
f 166 157 158
f 161 85 91
f 161 91 168
f 91 90 167
f 91 167 168
f 167 160 161
f 167 161 168
f 171 86 163
f 171 93 86
f 171 92 93
f 171 170 92
f 171 162 170
f 171 163 162
f 172 167 90
f 172 90 95
f 174 92 170
f 174 97 92
f 174 96 97
f 174 173 96
f 174 169 173
f 174 170 169
f 177 172 95
f 177 95 100
f 100 99 176
f 100 176 177
f 178 96 173
f 178 101 96
f 179 102 101
f 179 101 178
f 106 105 180
f 106 180 181
f 182 176 99
f 182 99 107
f 182 107 106
f 182 106 181
f 182 181 175
f 182 175 176
f 179 108 102
f 179 184 108
f 183 179 178
f 183 184 179
f 186 180 105
f 186 105 111
f 186 111 110
f 186 110 185
f 184 113 108
f 184 188 113
f 187 184 183
f 187 188 184
f 189 114 113
f 189 113 188
f 185 110 115
f 185 115 190
f 115 114 189
f 115 189 190
f 191 188 187
f 191 192 188
f 192 189 188
f 192 193 189
f 194 189 193
f 194 190 189
f 196 192 195
f 196 193 192
f 200 116 117
f 200 199 116
f 203 118 119
f 203 202 118
f 205 120 121
f 205 204 120
f 205 197 204
f 205 198 197
f 206 116 199
f 206 122 116
f 206 121 122
f 206 205 121
f 207 200 117
f 207 117 123
f 124 207 123
f 124 208 207
f 211 118 202
f 211 125 118
f 211 201 210
f 211 202 201
f 212 203 119
f 212 119 126
f 213 120 204
f 213 127 120
f 127 212 126
f 127 213 212
f 213 203 212
f 213 204 203
f 216 208 124
f 216 124 129
f 215 207 208
f 215 208 216
f 218 209 217
f 218 210 209
f 219 125 211
f 219 131 125
f 219 130 131
f 219 218 130
f 219 210 218
f 219 211 210
f 221 220 214
f 221 214 215
f 222 216 129
f 222 129 133
f 222 133 132
f 222 132 221
f 222 221 215
f 222 215 216
f 224 130 218
f 224 134 130
f 224 217 223
f 224 218 217
f 221 132 138
f 221 138 228
f 228 138 137
f 228 137 227
f 224 139 134
f 224 230 139
f 230 223 229
f 230 224 223
f 143 142 231
f 143 231 232
f 232 231 225
f 232 225 226
f 233 227 137
f 233 137 144
f 233 144 143
f 233 143 232
f 233 232 226
f 233 226 227
f 230 145 139
f 230 235 145
f 235 229 234
f 235 230 229
f 237 231 142
f 237 142 148
f 237 148 147
f 237 147 236
f 235 150 145
f 235 239 150
f 238 235 234
f 238 239 235
f 240 151 150
f 240 150 239
f 236 147 152
f 236 152 241
f 152 151 240
f 152 240 241
f 243 238 242
f 243 239 238
f 243 240 239
f 243 244 240
f 245 240 244
f 245 241 240
f 249 153 154
f 249 248 153
f 252 155 156
f 252 251 155
f 252 246 251
f 252 247 246
f 253 156 157
f 253 252 156
f 248 159 153
f 248 255 159
f 159 254 158
f 159 255 254
f 249 154 160
f 249 160 256
f 255 248 249
f 255 249 256
f 260 155 251
f 260 163 155
f 260 162 163
f 260 259 162
f 260 250 259
f 260 251 250
f 261 253 157
f 261 157 165
f 254 166 158
f 254 262 166
f 166 261 165
f 166 262 261
f 263 262 254
f 263 254 255
f 256 160 167
f 256 167 264
f 264 257 256
f 264 265 257
f 267 162 259
f 267 170 162
f 267 169 170
f 267 266 169
f 267 258 266
f 267 259 258
f 269 264 167
f 269 167 172
f 268 263 264
f 268 264 269
f 270 264 269
f 270 265 264
f 272 169 266
f 272 173 169
f 274 176 175
f 274 175 273
f 275 269 172
f 275 172 177
f 275 177 176
f 275 176 274
f 275 274 268
f 275 268 269
f 277 173 272
f 277 178 173
f 276 272 271
f 276 277 272
f 280 273 175
f 280 175 181
f 280 181 180
f 280 180 279
f 281 273 280
f 281 274 273
f 277 183 178
f 277 282 183
f 284 279 180
f 284 180 186
f 284 186 185
f 284 185 283
f 284 283 278
f 284 278 279
f 282 187 183
f 282 286 187
f 288 283 185
f 288 185 190
f 286 191 187
f 286 290 191
f 289 286 285
f 289 290 286
f 291 192 191
f 291 191 290
f 293 288 190
f 293 190 194
f 293 194 193
f 293 193 292
f 293 292 287
f 293 287 288
f 291 195 192
f 291 294 195
f 292 193 196
f 292 196 295
f 196 195 294
f 196 294 295
f 295 294 291
f 295 291 292
f 198 298 197
f 198 299 298
f 200 300 199
f 200 301 300
f 305 201 202
f 305 304 201
f 306 202 203
f 306 305 202
f 306 296 305
f 306 297 296
f 307 197 298
f 307 204 197
f 204 306 203
f 204 307 306
f 299 198 205
f 299 205 308
f 307 298 299
f 307 299 308
f 300 206 199
f 300 309 206
f 309 205 206
f 309 308 205
f 301 200 207
f 301 207 310
f 310 309 300
f 310 300 301
f 311 301 310
f 311 302 301
f 313 201 304
f 313 210 201
f 313 209 210
f 313 312 209
f 313 303 312
f 313 304 303
f 314 308 309
f 314 309 315
f 310 207 215
f 310 215 316
f 316 215 214
f 316 214 315
f 316 315 309
f 316 309 310
f 316 311 310
f 316 317 311
f 318 209 312
f 318 217 209
f 319 315 214
f 319 214 220
f 320 220 221
f 320 319 220
f 321 316 320
f 321 317 316
f 318 223 217
f 318 323 223
f 325 226 225
f 325 225 324
f 326 227 226
f 326 226 325
f 327 320 221
f 327 221 228
f 327 228 227
f 327 227 326
f 327 326 319
f 327 319 320
f 329 223 323
f 329 229 223
f 328 323 322
f 328 329 323
f 331 324 225
f 331 225 231
f 333 325 332
f 333 326 325
f 334 229 329
f 334 234 229
f 336 331 231
f 336 231 237
f 336 237 236
f 336 236 335
f 336 335 330
f 336 330 331
f 334 238 234
f 334 337 238
f 339 335 236
f 339 236 241
f 337 242 238
f 337 340 242
f 341 243 242
f 341 242 340
f 342 244 243
f 342 243 341
f 343 339 241
f 343 241 245
f 343 245 244
f 343 244 342
f 343 342 338
f 343 338 339
f 247 344 246
f 247 345 344
f 348 246 344
f 348 251 246
f 348 250 251
f 348 347 250
f 345 247 252
f 345 252 349
f 348 344 345
f 348 345 349
f 350 252 253
f 350 349 252
f 256 351 255
f 256 352 351
f 257 352 256
f 257 353 352
f 355 250 347
f 355 259 250
f 355 258 259
f 355 354 258
f 355 346 354
f 355 347 346
f 350 253 261
f 350 261 357
f 356 349 350
f 356 350 357
f 358 261 262
f 358 357 261
f 351 263 255
f 351 359 263
f 263 358 262
f 263 359 358
f 360 264 263
f 360 263 359
f 360 359 351
f 360 351 352
f 353 257 265
f 353 265 361
f 360 352 353
f 360 353 361
f 362 258 354
f 362 266 258
f 363 357 358
f 363 358 364
f 359 263 268
f 359 268 365
f 365 364 358
f 365 358 359
f 366 264 360
f 366 269 264
f 361 265 270
f 361 270 367
f 270 269 366
f 270 366 367
f 366 360 361
f 366 361 367
f 362 272 266
f 362 369 272
f 369 271 272
f 369 368 271
f 372 371 363
f 372 363 364
f 365 268 274
f 365 274 373
f 373 372 364
f 373 364 365
f 368 276 271
f 368 374 276
f 375 277 276
f 375 276 374
f 374 368 369
f 374 369 375
f 377 279 278
f 377 278 376
f 377 376 370
f 377 370 371
f 280 279 377
f 280 377 378
f 377 371 372
f 377 372 378
f 373 274 281
f 373 281 379
f 281 280 378
f 281 378 379
f 379 378 372
f 379 372 373
f 375 282 277
f 375 380 282
f 383 376 278
f 383 278 283
f 380 286 282
f 380 385 286
f 286 384 285
f 286 385 384
f 385 380 381
f 385 381 386
f 388 383 283
f 388 283 288
f 388 288 287
f 388 287 387
f 388 387 382
f 388 382 383
f 384 289 285
f 384 389 289
f 290 289 389
f 290 389 390
f 390 389 384
f 390 384 385
f 391 291 290
f 391 290 390
f 392 387 287
f 392 287 292
f 392 292 291
f 392 291 391
f 392 391 386
f 392 386 387
f 394 296 297
f 394 393 296
f 302 395 301
f 302 396 395
f 398 303 304
f 398 397 303
f 399 296 393
f 399 305 296
f 399 304 305
f 399 398 304
f 400 394 297
f 400 297 306
f 401 306 307
f 401 400 306
f 402 307 308
f 402 401 307
f 403 301 395
f 403 310 301
f 404 396 302
f 404 302 311
f 404 403 395
f 404 395 396
f 405 303 397
f 405 312 303
f 402 308 314
f 402 314 407
f 406 401 402
f 406 402 407
f 408 314 315
f 408 407 314
f 403 316 310
f 403 409 316
f 404 311 317
f 404 317 410
f 409 403 404
f 409 404 410
f 411 312 405
f 411 318 312
f 413 412 406
f 413 406 407
f 408 315 319
f 408 319 414
f 413 407 408
f 413 408 414
f 415 316 409
f 415 320 316
f 410 317 321
f 410 321 416
f 321 320 415
f 321 415 416
f 415 409 410
f 415 410 416
f 411 323 318
f 411 418 323
f 323 417 322
f 323 418 417
f 422 325 324
f 422 324 421
f 422 421 412
f 422 412 413
f 414 319 326
f 414 326 423
f 423 422 413
f 423 413 414
f 417 328 322
f 417 424 328
f 425 329 328
f 425 328 424
f 424 417 418
f 424 418 425
f 425 418 419
f 425 419 426
f 428 421 324
f 428 324 331
f 428 331 330
f 428 330 427
f 428 427 420
f 428 420 421
f 429 325 422
f 429 332 325
f 423 326 333
f 423 333 430
f 333 332 429
f 333 429 430
f 429 422 423
f 429 423 430
f 425 334 329
f 425 431 334
f 432 431 425
f 432 425 426
f 434 427 330
f 434 330 335
f 435 334 431
f 435 337 334
f 438 434 335
f 438 335 339
f 438 339 338
f 438 338 437
f 438 437 433
f 438 433 434
f 439 337 435
f 439 340 337
f 440 341 340
f 440 340 439
f 441 437 338
f 441 338 342
f 441 342 341
f 441 341 440
f 441 440 436
f 441 436 437
f 347 442 346
f 347 443 442
f 444 347 348
f 444 443 347
f 445 348 349
f 445 444 348
f 446 346 442
f 446 354 346
f 447 446 442
f 447 442 443
f 445 349 356
f 445 356 448
f 449 356 357
f 449 448 356
f 446 362 354
f 446 450 362
f 451 450 446
f 451 446 447
f 449 357 363
f 449 363 452
f 453 362 450
f 453 369 362
f 457 452 363
f 457 363 371
f 457 371 370
f 457 370 456
f 458 369 453
f 458 375 369
f 458 453 454
f 458 454 459
f 461 456 370
f 461 370 376
f 461 460 455
f 461 455 456
f 462 375 458
f 462 380 375
f 381 380 462
f 381 462 463
f 462 458 459
f 462 459 463
f 465 461 376
f 465 376 383
f 465 383 382
f 465 382 464
f 465 464 460
f 465 460 461
f 467 381 463
f 467 386 381
f 386 466 385
f 386 467 466
f 468 464 382
f 468 382 387
f 468 387 386
f 468 386 467
f 468 467 463
f 468 463 464
f 466 390 385
f 466 469 390
f 470 467 386
f 470 386 391
f 470 391 390
f 470 390 469
f 470 469 466
f 470 466 467
f 472 393 394
f 472 471 393
f 398 473 397
f 398 474 473
f 471 399 393
f 471 475 399
f 399 474 398
f 399 475 474
f 472 394 400
f 472 400 476
f 475 471 472
f 475 472 476
f 477 400 401
f 477 476 400
f 473 405 397
f 473 478 405
f 479 478 473
f 479 473 474
f 477 401 406
f 477 406 481
f 480 476 477
f 480 477 481
f 478 411 405
f 478 482 411
f 483 482 478
f 483 478 479
f 484 481 406
f 484 406 412
f 486 411 482
f 486 418 411
f 419 418 486
f 419 486 487
f 489 484 412
f 489 412 421
f 489 421 420
f 489 420 488
f 489 485 484
f 489 490 485
f 491 419 487
f 491 426 419
f 488 420 427
f 488 427 493
f 491 432 426
f 491 495 432
f 432 494 431
f 432 495 494
f 497 493 427
f 497 427 434
f 497 434 433
f 497 433 496
f 497 496 492
f 497 492 493
f 494 435 431
f 494 498 435
f 499 498 494
f 499 494 495
f 500 496 433
f 500 433 437
f 500 437 436
f 500 436 499
f 500 499 495
f 500 495 496
f 501 435 498
f 501 439 435
f 502 499 436
f 502 436 440
f 502 440 439
f 502 439 501
f 502 501 498
f 502 498 499
f 444 503 443
f 444 504 503
f 505 444 445
f 505 504 444
f 503 447 443
f 503 506 447
f 507 506 503
f 507 503 504
f 505 445 448
f 505 448 508
f 507 504 505
f 507 505 508
f 509 448 449
f 509 508 448
f 506 451 447
f 506 511 451
f 451 510 450
f 451 511 510
f 512 511 506
f 512 506 507
f 512 507 508
f 512 508 513
f 509 449 452
f 509 452 514
f 513 508 509
f 513 509 514
f 515 450 510
f 515 453 450
f 454 453 515
f 454 515 516
f 516 515 510
f 516 510 511
f 518 456 455
f 518 455 517
f 519 514 452
f 519 452 457
f 519 457 456
f 519 456 518
f 519 518 513
f 519 513 514
f 520 454 516
f 520 459 454
f 521 517 455
f 521 455 460
f 520 516 517
f 520 517 521
f 522 459 520
f 522 463 459
f 523 521 460
f 523 460 464
f 464 463 522
f 464 522 523
f 522 520 521
f 522 521 523
f 475 524 474
f 475 525 524
f 526 475 476
f 526 525 475
f 524 479 474
f 524 527 479
f 528 527 524
f 528 524 525
f 526 476 480
f 526 480 529
f 528 525 526
f 528 526 529
f 530 480 481
f 530 529 480
f 527 483 479
f 527 532 483
f 483 531 482
f 483 532 531
f 530 481 484
f 530 484 535
f 534 529 530
f 534 530 535
f 536 484 485
f 536 535 484
f 531 486 482
f 531 537 486
f 487 486 537
f 487 537 538
f 537 531 532
f 537 532 538
f 540 539 533
f 540 533 534
f 541 489 488
f 541 488 540
f 541 540 534
f 541 534 535
f 536 485 490
f 536 490 542
f 490 489 541
f 490 541 542
f 541 535 536
f 541 536 542
f 543 487 538
f 543 491 487
f 543 538 539
f 543 539 544
f 545 540 488
f 545 488 493
f 545 493 492
f 545 492 544
f 545 544 539
f 545 539 540
f 546 491 543
f 546 495 491
f 547 544 492
f 547 492 496
f 496 495 546
f 496 546 547
f 547 546 543
f 547 543 544
f 512 548 511
f 512 549 548
f 550 512 513
f 550 549 512
f 551 511 548
f 551 516 511
f 517 516 551
f 517 551 552
f 552 551 548
f 552 548 549
f 553 550 513
f 553 513 518
f 553 518 517
f 553 517 552
f 552 549 550
f 552 550 553
f 528 554 527
f 528 555 554
f 556 528 529
f 556 555 528
f 554 532 527
f 554 557 532
f 558 557 554
f 558 554 555
f 556 529 534
f 556 534 559
f 559 534 533
f 559 533 558
f 559 558 555
f 559 555 556
f 560 532 557
f 560 538 532
f 561 558 533
f 561 533 539
f 539 538 560
f 539 560 561
f 561 560 557
f 561 557 558
