# parsimony mesh: cplx_CPLX0-3954 (source /Users/eranagmon/code/v2e-cplx/workspace/studies/ecoli-3d/viz/3d/structures/cplx_CPLX0-3954.pdb)
# atoms: 8812  voxel: 8 Å  verts: 719  tris: 1424
v 20.1749 9.9085 -86.4515
v 23.6543 9.9085 -86.4515
v 14.0639 17.4642 -86.0314
v 17.8739 14.9384 -86.4367
v 26.3615 15.6341 -86.4202
v 31.0080 18.6238 -86.0038
v 14.0639 19.9050 -86.0314
v 18.8856 22.8029 -86.1401
v 26.1681 23.0002 -86.1235
v 31.0080 20.2339 -86.0038
v 21.8610 27.5163 -85.9571
v 23.3320 27.5163 -85.9571
v -2.1080 2.3924 -78.7554
v 2.4224 1.7380 -79.4369
v 10.4224 1.0709 -79.2954
v 18.4224 1.9013 -78.4288
v 22.8621 3.1320 -77.9082
v -2.3194 7.1496 -78.9549
v 2.4224 7.1496 -80.9247
v 10.4224 7.1496 -82.1093
v 17.8739 7.2050 -82.9146
v 25.9249 6.6367 -81.2653
v 34.4224 8.2327 -79.7657
v 39.0167 9.7119 -78.9683
v -2.0363 12.5653 -78.4209
v 2.2403 15.1990 -79.6160
v 11.0073 14.9384 -83.8769
v 14.8416 12.1309 -85.5225
v 28.9876 13.2904 -84.6225
v 33.9738 15.6341 -83.1925
v 39.1448 15.1496 -79.4511
v 3.7833 23.1496 -79.0698
v 11.0073 22.8029 -82.9851
v 16.5277 25.2384 -84.7851
v 28.6653 25.5673 -85.1507
v 33.9738 23.0002 -83.8393
v 39.3667 23.1496 -79.8634
v 4.5405 28.0661 -78.5231
v 10.4224 28.4651 -79.5539
v 18.8856 28.8814 -82.0130
v 26.1681 28.8589 -82.2323
v 34.4224 28.2196 -80.5743
v 39.3126 27.7763 -79.5181
v -2.2099 2.1320 -73.8547
v 2.4224 0.1386 -73.8547
v 10.4224 -1.9435 -73.8547
v 18.4224 -0.7461 -73.8547
v 25.8862 2.5063 -73.2263
v 31.2358 3.1388 -70.1408
v -3.2905 7.1496 -73.8547
v 28.1955 3.3648 -75.4741
v 34.1105 4.0588 -73.2263
v 39.4577 8.1248 -73.8547
v -3.8517 15.1990 -74.1059
v -0.5478 17.8986 -76.9400
v 36.9421 17.9510 -71.4765
v 39.4719 15.2305 -74.0278
v -9.9534 25.0698 -71.5042
v -6.1873 22.7017 -73.0675
v -0.2167 23.1496 -76.6335
v 36.5302 23.1496 -71.9337
v 39.3667 23.1496 -75.9337
v -9.9534 27.6508 -71.5042
v -5.5776 28.8544 -72.5567
v 1.8459 31.1605 -74.0916
v 10.4224 32.4651 -74.9572
v 17.8674 32.4126 -73.2243
v 26.4224 30.9801 -73.8547
v 34.5968 29.0295 -73.7448
v 39.3126 27.7763 -76.3382
v 4.4846 36.8207 -71.0420
v 10.4224 36.5445 -70.9572
v 14.8308 35.3384 -70.1373
v -2.4457 2.2761 -65.8547
v 2.4224 0.5181 -65.8547
v 10.4224 -0.8377 -65.8547
v 18.4224 -0.2917 -65.8547
v 26.4224 1.5520 -65.8547
v 32.3413 2.7640 -65.8547
v -4.1242 7.1496 -65.8547
v 36.3413 3.7792 -65.8547
v 39.5464 7.7792 -65.8547
v -5.6415 15.1496 -65.8547
v 36.9421 17.9510 -68.0447
v 39.4762 15.2305 -65.5687
v -9.9534 25.0698 -69.1907
v -7.2637 22.7017 -66.2563
v 36.4275 23.2326 -65.5687
v 38.6800 20.6213 -62.7114
v -9.9534 27.6508 -69.1907
v -5.3554 29.4904 -66.2563
v 2.0597 33.6314 -65.3221
v 10.4224 33.8846 -63.6809
v 17.8674 32.2179 -66.2482
v 26.4224 30.0231 -65.8547
v 33.0389 28.8706 -65.8547
v 4.4846 36.8207 -67.6337
v 10.4224 36.5445 -67.6809
v 14.8308 35.3384 -69.1773
v -2.4223 2.5845 -60.7923
v 2.4738 1.8346 -58.0173
v 10.4224 1.4117 -57.8547
v 17.9825 2.3918 -57.8794
v 26.4224 2.3429 -59.8642
v 32.1675 2.6463 -60.4928
v -3.3657 7.1255 -58.0173
v -0.1585 4.4427 -55.4590
v 20.3559 4.3207 -55.2292
v 26.4224 4.9264 -55.8642
v 34.6694 5.7125 -57.8376
v 39.0817 9.4548 -57.8547
v -4.4215 15.1496 -57.8547
v 37.5327 17.3341 -55.3937
v 39.1044 14.8603 -57.9781
v -4.0627 23.1496 -57.8547
v 28.1760 25.7711 -55.4735
v 34.9099 23.1962 -58.1003
v 38.6800 20.6213 -60.7270
v -2.8205 28.8123 -57.8547
v 2.4224 31.1602 -57.8547
v 10.4224 31.0024 -57.8547
v 18.4224 29.2649 -57.8547
v 25.8746 27.9908 -58.0260
v 32.2871 27.7377 -60.8069
v 5.1748 2.3341 -51.7536
v 10.0394 1.9978 -49.3940
v 16.3998 2.3215 -49.8547
v -2.4571 9.7761 -52.1772
v 2.3873 6.7695 -49.2987
v 7.1174 3.7630 -46.4202
v 20.3998 4.3411 -49.8547
v 26.8250 8.0216 -49.5381
v 34.4224 9.7771 -52.2964
v 38.5889 10.7883 -53.6380
v -3.1313 14.9568 -49.6482
v -0.4001 12.1616 -46.8439
v 29.1556 15.1496 -47.0429
v 34.6885 14.8603 -51.4752
v 38.5889 12.0007 -53.6380
v -3.7556 23.1496 -49.8547
v 4.9425 26.1502 -46.8236
v 10.4224 25.7324 -47.6980
v 18.4224 25.0538 -48.7543
v 26.1192 22.8416 -50.0993
v 32.1993 20.4377 -51.9666
v -2.4732 27.8675 -49.8547
v 2.3344 28.3605 -49.6360
v 10.4224 28.2674 -51.6980
v 18.4224 27.6186 -52.7543
v 22.8427 27.3456 -53.5653
v 12.4508 2.2499 -45.2911
v 16.4587 2.2499 -45.2911
v 4.9332 9.0963 -45.1473
v 10.0394 6.7177 -43.6623
v 18.8442 6.6002 -43.2018
v 27.2320 9.9092 -41.5067
v 30.5212 10.9179 -38.6336
v -2.4624 17.4949 -44.7464
v 2.3289 14.9568 -43.5747
v 10.6949 14.9438 -39.6099
v 17.8573 14.9438 -39.7176
v 27.2477 13.4977 -41.6833
v 30.5212 11.2951 -38.6336
v -2.6161 23.1496 -44.7359
v 2.3344 23.3500 -43.7690
v 10.6949 21.3078 -41.4641
v 17.8573 20.7650 -42.0324
v 24.0623 19.9122 -44.8176
v -2.0776 27.5181 -45.4712
v -0.3909 27.5181 -45.4712
v 30.0373 10.9179 -37.7613
v 30.5212 10.9179 -37.7613
v 13.5432 17.4733 -37.7228
v 14.8138 17.4733 -37.7228
v 30.0373 11.2951 -37.7613
v 30.5212 11.2951 -37.7613
v 13.5432 19.3030 -37.7228
v 14.8138 19.3030 -37.7228
v 20.6236 -54.1346 -22.3992
v 23.5381 -54.1346 -22.3992
v 14.3500 -45.1978 -21.8910
v 17.7323 -48.0634 -22.1451
v 23.5381 -50.9291 -22.3992
v 14.3500 -44.7068 -21.8910
v 14.8411 -44.7068 -21.8910
v -43.1440 10.3419 -22.2126
v -40.7498 10.3419 -22.2126
v -43.1440 13.3286 -22.2126
v -40.7498 13.3286 -22.2126
v -2.1253 -61.6728 -14.6693
v 2.4224 -62.3427 -15.1960
v 10.4224 -62.8320 -15.1656
v 18.4224 -61.9967 -14.5692
v 26.4224 -60.9605 -14.1309
v 30.9780 -60.9436 -14.0444
v -2.1295 -56.8504 -14.6141
v 2.4224 -56.8504 -16.2813
v 10.4224 -56.8504 -17.5283
v 18.1431 -56.8209 -18.7669
v 26.2918 -56.8209 -18.1047
v 33.9557 -56.9780 -15.2931
v 38.9413 -54.3965 -14.6806
v -1.7658 -52.2335 -14.0527
v 2.4319 -49.2802 -15.1746
v 11.1789 -48.2588 -19.3965
v 17.7323 -48.0634 -21.1638
v 26.2918 -48.4976 -20.4057
v 34.4224 -48.8504 -17.9182
v 39.1442 -48.8504 -15.2674
v 4.7291 -40.8504 -14.6056
v 11.1789 -41.5642 -18.3538
v 17.8736 -41.5642 -20.0995
v 26.4224 -40.8504 -19.3926
v 34.4224 -40.8504 -18.1268
v 39.4375 -40.8504 -15.5219
v 5.4821 -36.5140 -14.1031
v 10.4224 -36.0951 -14.9140
v 18.4224 -35.4020 -16.1228
v 26.4224 -35.3921 -16.2402
v 34.4224 -35.9011 -15.7189
v 39.3323 -36.2686 -15.0198
v -66.2219 2.3197 -14.7026
v -61.5776 1.7498 -15.3501
v -53.5776 1.6999 -15.0280
v -47.7114 2.2531 -14.2731
v -66.4186 7.1496 -14.8663
v -61.5776 7.1496 -16.6846
v -53.5776 7.1496 -17.4741
v -45.4277 6.9565 -17.7221
v -37.8810 8.0443 -17.8475
v -29.5776 9.0975 -15.1710
v -25.3364 10.5361 -14.2883
v -66.0547 12.6879 -14.3556
v -61.7110 15.2726 -15.3073
v -53.5776 15.1496 -18.6237
v -45.7174 15.6570 -21.1473
v -37.8810 15.6570 -20.3809
v -29.5776 15.1496 -16.9881
v -25.1952 15.1496 -14.6172
v -59.4449 23.1496 -14.5620
v -53.5776 23.1496 -17.4400
v -45.5776 23.1496 -19.7554
v -37.5776 23.1496 -19.7257
v -29.5776 23.1496 -18.1383
v -24.6703 23.1496 -15.2900
v -58.5117 27.5099 -14.1561
v -53.5776 28.1665 -15.1170
v -45.5776 28.8089 -16.1270
v -37.5776 28.7975 -16.5590
v -29.5776 28.4548 -16.3211
v -24.6365 27.9094 -15.1855
v 12.7966 -69.2227 -6.9009
v 15.0631 -69.2227 -6.9009
v -2.4108 -62.5786 -9.8547
v 2.4224 -65.0126 -9.8547
v 10.2469 -66.8825 -9.6824
v 18.0068 -65.6073 -9.6824
v 26.4224 -61.7740 -9.8547
v 33.9557 -60.9675 -9.2948
v 38.4976 -60.9340 -6.2548
v -3.2303 -56.8504 -9.8547
v 36.3113 -59.7298 -11.5882
v 39.1983 -56.9780 -9.2948
v -9.6706 -45.1051 -6.0672
v -4.7907 -48.6693 -9.4012
v -0.2284 -46.9002 -12.7352
v 37.1772 -46.1168 -7.3758
v 39.4193 -48.8102 -9.9673
v -9.7777 -40.8504 -6.3844
v -5.5776 -40.8504 -8.8283
v 0.7291 -40.8504 -12.2985
v 36.4901 -40.8504 -7.8961
v 39.4375 -40.8504 -11.8961
v -9.7514 -36.6360 -6.3486
v -5.5776 -35.3781 -7.5085
v 2.3838 -33.1412 -9.8335
v 10.7983 -31.9410 -9.6025
v 18.4224 -33.3418 -9.8547
v 26.4224 -33.9518 -9.8547
v 34.4236 -35.4817 -9.7752
v 39.3323 -36.2686 -12.3889
v 4.6189 -27.6091 -6.7678
v 8.3822 -27.6091 -6.7678
v -50.5165 -5.0711 -6.5217
v -49.2341 -5.0711 -6.5217
v -66.5624 1.5189 -9.8547
v -61.5776 -0.6408 -9.8547
v -53.3410 -2.3161 -9.4549
v -45.8061 -0.4316 -9.9857
v -37.5776 2.3013 -8.4309
v -32.8135 2.9512 -7.0280
v -67.7874 7.1496 -9.8547
v -42.3781 3.5712 -13.4497
v -37.5776 3.8738 -12.4309
v -29.9192 5.3243 -9.7587
v -24.9002 9.4600 -9.8547
v -73.6424 18.9740 -5.9803
v -69.0610 15.8310 -9.5213
v -64.4665 18.0213 -13.0622
v -27.2081 17.6698 -7.8425
v -24.8744 15.0617 -10.2474
v -74.0880 23.1496 -6.9689
v -69.5776 23.1496 -9.5083
v -63.4449 23.1496 -12.3940
v -27.7411 23.1496 -8.2256
v -24.6703 23.1496 -12.2256
v -74.1934 27.9267 -7.2147
v -69.5776 29.4608 -8.0084
v -61.9209 31.1487 -9.7678
v -52.8333 32.6969 -9.6435
v -45.5776 31.6107 -9.8547
v -37.5776 30.5864 -9.8547
v -29.5301 28.9170 -9.7587
v -24.6365 27.9094 -12.3614
v -59.9967 36.6971 -6.8360
v -55.0038 36.6971 -6.8360
v 12.7966 -69.2227 -5.3560
v 15.0631 -69.2227 -5.3560
v -2.7676 -62.5354 -1.8547
v 2.4224 -64.8432 -1.8547
v 10.2469 -66.3099 -2.3555
v 18.0068 -65.7003 -2.3555
v 26.4224 -62.9106 -1.8547
v 35.0766 -61.3120 -1.8155
v 38.4976 -60.9340 -4.4560
v -4.4635 -56.8504 -1.8547
v 38.1795 -60.6462 0.8773
v 39.3601 -57.5279 -1.8155
v -9.6706 -45.1051 -5.6428
v -6.6371 -48.2032 -2.5276
v 37.1772 -46.1168 -4.1273
v 39.4804 -48.8102 -1.6183
v -9.7777 -40.8504 -5.3998
v -7.0882 -40.8504 -1.3998
v 36.0324 -41.0114 -1.6183
v 38.6982 -43.7854 1.2060
v -9.7514 -36.6360 -5.4600
v -5.4833 -34.7250 -2.4179
v 0.6961 -30.3544 -1.8547
v 12.2611 -30.2523 -1.8547
v 18.4224 -33.1984 -1.8547
v 26.4224 -34.6911 -1.8547
v 32.3687 -35.7449 -1.8547
v 4.6961 -27.8025 -1.8547
v 8.2611 -27.8025 -1.8547
v -50.5165 -5.0711 -5.5302
v -49.2341 -5.0711 -5.5302
v -66.8957 1.6390 -1.8547
v -61.5776 -0.3167 -1.8547
v -53.3410 -1.9295 -2.4600
v -46.1715 -1.2980 -2.4600
v -37.5776 1.4135 -1.8547
v -31.9942 2.5798 -1.8547
v -69.0084 7.1496 -1.8547
v -27.9942 4.9374 -1.8547
v -24.6548 8.9374 -1.8547
v -73.6424 18.9740 -5.6595
v -71.1791 15.8442 -2.5376
v -27.2081 17.6698 -3.3708
v -24.8072 15.0617 -1.1643
v -74.0880 23.1496 -4.7952
v -71.5392 23.1496 -0.7952
v -27.9678 22.5599 -1.1643
v -25.5240 19.5001 1.9626
v -74.1934 27.9267 -4.6372
v -69.6356 30.4727 -1.9242
v -62.2291 34.7301 -1.0998
v -52.8333 34.4014 -1.0998
v -45.5776 31.6417 -1.8547
v -37.5776 29.8667 -1.8547
v -31.3425 28.5347 -1.8547
v -59.9967 36.6971 -3.2632
v -55.0038 36.6971 -3.2632
v -2.6011 -61.6152 4.0732
v 1.9887 -62.5826 6.5020
v 10.4224 -63.2405 6.1453
v 18.5267 -62.0860 6.6225
v 26.4224 -62.0971 5.6180
v 32.8461 -61.5178 4.6469
v -3.6159 -57.3330 6.5020
v -0.9670 -60.3215 9.4065
v 21.2630 -60.1728 9.6073
v 26.4224 -60.2200 9.6180
v 35.0766 -59.5598 6.8463
v 39.2368 -55.3593 6.1453
v -4.5299 -48.8504 6.1453
v 37.4310 -46.1576 8.7940
v 39.2394 -48.8347 6.1345
v -3.9704 -40.8504 6.1453
v 28.4727 -38.6070 8.2431
v 34.5565 -41.1962 5.8519
v 38.6982 -43.7854 3.4607
v -2.7983 -35.3670 6.1453
v 2.9235 -32.0183 5.4567
v 9.9175 -31.9728 5.4567
v 18.4224 -34.6351 6.1453
v 26.0526 -36.0352 5.8040
v 31.6821 -36.3918 2.9098
v 5.9242 -28.6945 2.3310
v 6.9143 -28.6945 2.3310
v -66.6664 2.4797 3.3945
v -61.7786 1.6225 6.0948
v -53.5776 1.3494 6.1453
v -46.3762 2.4612 6.0760
v -37.5776 2.2618 4.4276
v -32.2305 2.5883 3.9705
v -67.9426 6.9263 6.0948
v -64.5792 4.1107 8.7278
v -44.2419 4.5579 8.6964
v -37.5776 4.7148 8.4276
v -29.5693 5.7286 6.4404
v -25.0264 9.8643 6.1453
v -69.4202 15.1496 6.1453
v -26.6886 17.4757 7.8987
v -25.1045 14.9453 5.5973
v -68.9573 23.1496 6.1453
v -35.6691 25.2601 8.3882
v -29.3493 22.3801 5.4768
v -25.5240 19.5001 2.5653
v -67.2544 29.5129 6.1453
v -61.5776 32.1568 6.1453
v -53.5776 31.5404 6.1453
v -45.5776 29.6233 6.1453
v -38.0325 28.1158 5.8910
v -32.0099 27.7909 3.0549
v 4.6656 -61.9866 14.1453
v 10.4224 -63.2323 14.1453
v 17.4333 -62.0961 14.1453
v -2.5947 -54.9881 12.5850
v 0.3560 -57.3330 14.8091
v 21.4333 -60.2618 14.1453
v 26.4224 -58.6121 14.1453
v 33.8173 -55.2603 13.6212
v 38.7198 -53.7331 10.6051
v -3.1408 -49.4800 14.8091
v -1.3459 -52.5665 17.9183
v 29.2287 -46.3949 17.1838
v 34.0891 -48.9429 13.8945
v 38.7198 -51.4909 10.6051
v -3.4449 -40.8504 14.1453
v 4.6906 -37.9604 16.8554
v 10.4224 -38.6466 15.9743
v 18.4224 -39.3644 15.3984
v 26.1840 -41.4289 13.9690
v 32.0976 -43.9403 11.8505
v -2.2538 -36.3323 14.1453
v 2.1833 -35.9905 14.1714
v 10.4224 -35.9701 11.9743
v 18.4224 -36.2269 11.3984
v 23.1394 -36.4503 10.7542
v -58.9905 2.1022 14.1453
v -53.5776 1.5130 14.1453
v -48.0427 2.5605 14.1453
v -66.7700 9.4440 12.3697
v -63.2216 6.9263 14.6800
v -44.0427 4.5394 14.1453
v -36.9390 7.8687 14.7978
v -29.5776 9.3561 12.1391
v -25.4110 10.7462 10.3830
v -67.5715 14.7248 14.6800
v -65.1004 11.7750 17.7031
v -34.5480 15.1496 17.0831
v -29.4442 14.9453 12.6381
v -25.4110 12.1424 10.3830
v -68.3795 23.1496 14.1453
v -59.0143 26.1847 16.9940
v -53.5776 25.9704 16.7710
v -45.5776 25.4045 16.0888
v -37.8024 22.6785 13.8630
v -32.0219 19.9268 11.6416
v -66.7815 28.0200 14.1453
v -61.6396 28.4374 14.2545
v -53.5776 28.3929 12.7710
v -45.5776 27.9331 12.0888
v -41.0024 27.5223 10.7511
v 6.1361 -61.2422 18.4404
v 10.4224 -62.1080 19.0046
v 16.9297 -62.1354 18.9959
v 4.3815 -56.8504 19.1716
v 10.7902 -56.4481 22.6767
v 19.1151 -57.1282 22.2338
v 26.4704 -55.1789 22.5412
v 30.8541 -53.8414 22.1453
v -2.4411 -47.2331 19.3307
v 2.5129 -48.7256 21.9413
v 8.3688 -50.2180 24.5519
v 19.6065 -48.8504 24.3607
v 26.5322 -49.4309 22.2889
v 30.8541 -51.7211 22.1453
v -2.5627 -40.8504 19.3100
v 2.8645 -41.3961 21.5884
v 10.4224 -42.6254 22.1453
v 17.6427 -43.6557 21.9217
v 23.8954 -44.2508 19.1060
v -2.0277 -36.5582 18.5128
v -0.6427 -36.5582 18.5128
v -57.7932 2.8640 18.3725
v -53.5776 2.3468 18.7901
v -47.5335 2.3648 18.7779
v -59.3814 7.1496 19.1660
v -52.9547 7.8109 22.5414
v -45.2351 7.2564 22.2314
v -36.5130 10.0188 23.0188
v -33.5633 11.1097 25.6859
v -66.6234 17.1083 19.5117
v -61.7121 15.2451 22.0620
v -55.2061 13.3819 24.6123
v -44.4541 15.1496 24.7950
v -36.5328 13.4459 22.8911
v -33.5633 11.1743 25.6859
v -66.9614 23.1496 19.6023
v -61.3358 22.8056 21.7833
v -53.5776 22.2192 22.1453
v -46.2634 20.9865 22.1413
v -39.9357 20.0969 19.4719
v -66.3769 27.6160 18.7216
v -64.3476 27.6160 18.7216
v 13.7021 -53.5132 26.5128
v 15.9673 -53.5132 26.5128
v 29.1691 -53.5418 26.4091
v 30.6732 -53.5418 26.4091
v 6.3716 -44.8847 26.1603
v 10.7902 -48.0710 26.3806
v 15.6065 -48.8504 26.4282
v 29.1691 -52.4668 26.4091
v 30.6732 -52.4668 26.4091
v 6.3716 -44.8318 26.1603
v 10.4224 -44.8291 26.1639
v 14.4563 -44.8406 26.1550
v -49.8727 10.9184 26.2724
v -48.2700 10.9184 26.2724
v -33.8460 11.1097 26.1619
v -33.5633 11.1097 26.1619
v -58.3239 18.7153 26.3679
v -52.9547 15.6890 26.3850
v -48.4541 15.1496 26.2780
v -33.8460 11.1743 26.1619
v -33.5633 11.1743 26.1619
v -58.3239 19.4266 26.3679
v -53.5776 19.3985 26.3496
v -49.3872 19.2045 26.1951
v 21.6491 10.6714 41.9260
v 22.8992 10.6714 41.9260
v 21.6491 12.2042 41.9260
v 22.8992 12.2042 41.9260
v -1.8791 2.7548 49.7620
v 2.4224 2.1521 49.2332
v 10.4224 1.9320 49.2369
v 15.5550 2.4613 49.7670
v -1.8478 7.1496 49.8108
v 2.4224 7.1496 48.4517
v 10.4224 7.1496 47.4334
v 18.6020 7.4677 46.5767
v 25.9084 8.7037 46.2692
v 34.4224 8.8772 48.7716
v 38.8822 10.1657 49.4404
v -1.6365 11.3473 50.0826
v 2.4703 14.4682 49.0946
v 10.4224 15.1496 46.2790
v 18.7584 14.9824 43.8065
v 25.9084 14.9824 44.3923
v 34.4224 15.1496 46.9190
v 39.2537 15.1496 48.7866
v 5.2264 23.1496 49.5140
v 10.4224 23.1496 47.0531
v 18.4224 23.1496 45.2304
v 26.4224 23.1496 45.6502
v 34.4224 23.1496 46.2370
v 39.9786 23.1496 48.2781
v 6.0813 27.3173 50.0129
v 10.4224 28.1413 49.1159
v 18.4224 29.2084 48.0848
v 26.4224 29.0282 47.9964
v 34.4224 28.5694 48.0895
v 39.8488 28.1284 48.7623
v 12.9841 -5.3443 57.2042
v 15.1582 -5.3443 57.2042
v -2.2323 1.7962 54.1453
v 2.4224 -0.1791 54.1453
v 10.3594 -2.0436 54.3806
v 18.0232 -0.3417 54.1666
v 24.4849 2.1886 56.4622
v -2.6827 7.1496 54.1453
v 20.8883 4.2640 51.1289
v 26.8599 4.5370 53.9355
v 34.4224 5.9180 54.1453
v 39.3910 9.0196 54.1453
v -3.2712 14.4682 54.0778
v -0.1645 16.6806 51.3662
v 37.1612 17.9280 56.8899
v 39.5864 15.2166 54.1921
v -10.0285 25.2022 57.2564
v -6.1108 22.7812 56.0481
v 1.2264 23.1496 52.1904
v 37.1964 23.1496 56.9869
v 39.9786 23.1496 52.9869
v -10.0285 27.7281 57.2564
v -5.5776 29.0092 56.6081
v 2.5732 30.8506 54.4863
v 10.8672 32.3314 54.4509
v 18.4224 31.5816 54.1453
v 26.4224 30.9747 54.1453
v 34.9983 29.1326 54.7718
v 39.8488 28.1284 52.5228
v 4.3985 36.6567 57.3213
v 8.4971 36.6567 57.3213
v 12.9841 -5.3443 58.8119
v 15.1582 -5.3443 58.8119
v -2.6892 1.5517 62.1453
v 2.4224 -0.4757 62.1453
v 10.3594 -1.8185 61.7453
v 18.0638 -1.1587 61.7453
v 26.8599 1.8722 61.8251
v 31.8596 2.6241 64.2783
v -4.0467 7.1496 62.1453
v 29.8182 3.7268 58.9450
v 34.4847 4.5850 61.8251
v 39.6758 8.5110 62.1453
v -5.4050 15.1496 62.1453
v 37.1612 17.9280 60.2234
v 39.5243 15.2166 62.5922
v -10.0285 25.2022 59.2952
v -7.7337 22.7812 62.0353
v 37.1833 23.1827 62.5922
v 38.5877 20.5381 65.5567
v -10.0285 27.7281 59.2952
v -5.7577 29.9222 62.0353
v -0.2403 34.1815 62.1453
v 13.7575 34.5194 62.1453
v 18.4224 32.0014 62.1453
v 26.4224 30.4153 62.1453
v 33.8193 28.9334 62.1453
v 3.7597 36.6119 62.1453
v 9.7575 36.6119 62.1453
v -2.4883 2.4287 67.6048
v 2.1842 1.5148 70.2210
v 10.4224 1.0965 70.1453
v 18.5505 2.3239 70.2945
v 26.4224 2.2736 68.4930
v 31.8596 2.6241 67.6936
v -3.4762 6.9144 70.2210
v -0.6413 4.0910 72.9382
v 21.3025 3.9195 73.0607
v 26.4224 4.4828 72.4930
v 34.4847 5.4122 70.2743
v 39.3993 9.2221 70.1453
v -4.7097 15.1496 70.1453
v 38.2922 18.9938 73.7298
v 39.3031 15.8561 70.6960
v -4.6470 23.1496 70.1453
v 29.2315 25.8595 73.0426
v 35.4753 23.1988 70.7195
v 38.5877 20.5381 68.3964
v -3.2050 29.1877 70.1453
v 2.3066 32.5113 69.6389
v 11.0456 32.8063 69.6389
v 18.4224 30.7650 70.1453
v 26.5078 28.6963 70.2837
v 32.6584 28.1160 67.7093
v 4.8961 35.5922 66.6346
v 8.7944 35.5922 66.6346
v 4.9597 2.2079 78.1453
v 10.4224 1.1752 78.1453
v 16.8080 2.1169 78.1453
v -2.5629 9.4243 76.4416
v 0.6837 6.9144 78.7231
v 20.8080 4.2886 78.1453
v 26.4224 6.4694 78.1453
v 33.8961 9.1495 77.7482
v 38.8852 10.2416 74.8168
v -3.2512 14.6352 78.7231
v -1.1920 11.6256 81.7750
v 29.7731 18.2234 81.5787
v 34.5854 15.9419 78.1977
v 38.8852 13.6604 74.8168
v -4.0234 23.1496 78.1453
v 5.8113 26.6452 81.4984
v 10.4224 26.3036 81.1518
v 18.4224 25.4048 80.5160
v 26.8356 22.9865 78.4481
v 32.9588 20.5261 76.2454
v -2.6703 28.0910 78.1453
v 2.8557 28.4339 78.5572
v 10.4224 28.3363 77.1518
v 18.4224 28.2865 76.5160
v 23.8981 27.9686 75.3175
v 6.2026 2.8932 82.4039
v 10.4224 2.2920 83.0023
v 16.0564 2.2626 83.0294
v 4.5468 7.1496 83.1222
v 10.7485 7.4432 86.6573
v 18.6028 6.1529 85.8757
v 26.4224 8.0112 86.1453
v 31.0806 9.6241 86.1453
v -2.5302 16.9590 83.8597
v 1.9255 15.0816 86.1911
v 8.2993 13.2042 88.5226
v 21.4298 17.1771 89.5139
v 26.8328 16.2581 86.5665
v 31.0806 13.0145 86.1453
v -2.9826 23.1496 84.0835
v 2.7605 23.1214 86.1041
v 10.4224 22.9108 86.1453
v 18.6269 21.1708 86.5665
v 24.4398 20.1136 84.1805
v -2.4983 27.8288 83.0152
v 0.4780 27.8288 83.0152
v 13.6327 10.3056 90.5920
v 18.4224 10.3422 90.5196
v 26.4224 10.0246 90.5539
v 30.8438 9.8821 90.6377
v 5.0430 18.5375 90.4934
v 10.7485 15.5824 90.8301
v 18.6269 14.7661 90.6527
v 26.4224 12.2299 90.5539
v 30.8438 11.8958 90.6377
v 5.0430 19.5975 90.4934
v 10.4224 19.7569 90.6663
v 16.0965 19.5114 90.4920
f 4 2 1
f 4 5 2
f 7 4 3
f 7 8 4
f 8 5 4
f 8 9 5
f 9 6 5
f 9 10 6
f 11 9 8
f 11 12 9
f 19 13 18
f 19 14 13
f 20 14 19
f 20 15 14
f 20 16 15
f 20 21 16
f 2 21 1
f 2 22 21
f 21 17 16
f 21 22 17
f 25 19 18
f 25 26 19
f 26 20 19
f 26 27 20
f 28 1 21
f 28 4 1
f 28 3 4
f 28 27 3
f 28 20 27
f 28 21 20
f 29 22 2
f 29 2 5
f 6 29 5
f 6 30 29
f 29 23 22
f 29 30 23
f 31 23 30
f 31 24 23
f 27 7 3
f 27 33 7
f 32 27 26
f 32 33 27
f 34 8 7
f 34 7 33
f 36 30 6
f 36 6 10
f 10 9 35
f 10 35 36
f 37 30 36
f 37 31 30
f 39 32 38
f 39 33 32
f 34 11 8
f 34 40 11
f 39 34 33
f 39 40 34
f 35 9 12
f 35 12 41
f 41 12 11
f 41 11 40
f 42 35 41
f 42 36 35
f 42 37 36
f 42 43 37
f 45 13 14
f 45 44 13
f 15 45 14
f 15 46 45
f 47 15 16
f 47 46 15
f 17 47 16
f 17 48 47
f 50 13 44
f 50 18 13
f 51 48 17
f 51 17 22
f 23 51 22
f 23 52 51
f 51 49 48
f 51 52 49
f 53 23 24
f 53 52 23
f 50 25 18
f 50 54 25
f 55 26 25
f 55 25 54
f 57 53 24
f 57 24 31
f 55 32 26
f 55 60 32
f 59 55 54
f 59 60 55
f 62 57 31
f 62 31 37
f 62 61 56
f 62 56 57
f 64 58 63
f 64 59 58
f 60 38 32
f 60 65 38
f 64 60 59
f 64 65 60
f 66 39 38
f 66 38 65
f 67 40 39
f 67 39 66
f 68 41 40
f 68 40 67
f 42 41 68
f 42 68 69
f 70 62 37
f 70 37 43
f 70 43 42
f 70 42 69
f 70 69 61
f 70 61 62
f 71 66 65
f 71 72 66
f 73 66 72
f 73 67 66
f 75 44 45
f 75 74 44
f 76 45 46
f 76 75 45
f 47 76 46
f 47 77 76
f 48 77 47
f 48 78 77
f 49 78 48
f 49 79 78
f 74 50 44
f 74 80 50
f 81 79 49
f 81 49 52
f 53 81 52
f 53 82 81
f 80 54 50
f 80 83 54
f 85 82 53
f 85 53 57
f 85 57 56
f 85 56 84
f 83 59 54
f 83 87 59
f 59 86 58
f 59 87 86
f 84 56 61
f 84 61 88
f 89 84 88
f 89 85 84
f 86 63 58
f 86 90 63
f 64 63 90
f 64 90 91
f 90 86 87
f 90 87 91
f 65 64 91
f 65 91 92
f 68 67 94
f 68 94 95
f 96 88 61
f 96 61 69
f 96 69 68
f 96 68 95
f 92 71 65
f 92 97 71
f 72 71 97
f 72 97 98
f 97 92 93
f 97 93 98
f 94 67 73
f 94 73 99
f 99 73 72
f 99 72 98
f 99 98 93
f 99 93 94
f 75 100 74
f 75 101 100
f 102 75 76
f 102 101 75
f 77 102 76
f 77 103 102
f 104 77 78
f 104 103 77
f 105 78 79
f 105 104 78
f 100 80 74
f 100 106 80
f 107 106 100
f 107 100 101
f 108 103 104
f 108 104 109
f 105 79 81
f 105 81 110
f 109 104 105
f 109 105 110
f 82 110 81
f 82 111 110
f 112 80 106
f 112 83 80
f 111 82 85
f 111 85 114
f 115 83 112
f 115 87 83
f 118 114 85
f 118 85 89
f 118 89 88
f 118 88 117
f 118 117 113
f 118 113 114
f 115 91 87
f 115 119 91
f 92 91 119
f 92 119 120
f 93 92 120
f 93 120 121
f 122 94 93
f 122 93 121
f 95 94 122
f 95 122 123
f 124 117 88
f 124 88 96
f 124 96 95
f 124 95 123
f 124 123 116
f 124 116 117
f 102 125 101
f 102 126 125
f 127 102 103
f 127 126 102
f 125 107 101
f 125 129 107
f 107 128 106
f 107 129 128
f 130 129 125
f 130 125 126
f 127 103 108
f 127 108 131
f 109 131 108
f 109 132 131
f 133 109 110
f 133 132 109
f 111 133 110
f 111 134 133
f 128 112 106
f 128 135 112
f 136 135 128
f 136 128 129
f 137 132 133
f 137 133 138
f 139 134 111
f 139 111 114
f 139 114 113
f 139 113 138
f 139 138 133
f 139 133 134
f 140 112 135
f 140 115 112
f 145 138 113
f 145 113 117
f 145 117 116
f 145 116 144
f 145 144 137
f 145 137 138
f 146 115 140
f 146 119 115
f 147 120 119
f 147 119 146
f 148 121 120
f 148 120 147
f 148 147 141
f 148 141 142
f 149 122 121
f 149 121 148
f 148 142 143
f 148 143 149
f 150 144 116
f 150 116 123
f 150 123 122
f 150 122 149
f 150 149 143
f 150 143 144
f 127 151 126
f 127 152 151
f 151 130 126
f 151 154 130
f 130 153 129
f 130 154 153
f 152 127 131
f 152 131 155
f 154 151 152
f 154 152 155
f 132 155 131
f 132 156 155
f 153 136 129
f 153 159 136
f 136 158 135
f 136 159 158
f 160 159 153
f 160 153 154
f 161 160 154
f 161 154 155
f 156 132 137
f 156 137 162
f 161 155 156
f 161 156 162
f 163 156 162
f 163 157 156
f 158 140 135
f 158 164 140
f 165 164 158
f 165 158 159
f 166 142 141
f 166 141 165
f 166 165 159
f 166 159 160
f 167 143 142
f 167 142 166
f 168 162 137
f 168 137 144
f 168 144 143
f 168 143 167
f 168 167 161
f 168 161 162
f 169 140 164
f 169 146 140
f 170 165 141
f 170 141 147
f 170 147 146
f 170 146 169
f 170 169 164
f 170 164 165
f 157 171 156
f 157 172 171
f 174 160 161
f 174 173 160
f 175 156 171
f 175 162 156
f 172 157 163
f 172 163 176
f 163 162 175
f 163 175 176
f 175 171 172
f 175 172 176
f 177 160 173
f 177 166 160
f 178 174 161
f 178 161 167
f 178 167 166
f 178 166 177
f 177 173 174
f 177 174 178
f 183 179 182
f 183 180 179
f 185 181 184
f 185 182 181
f 188 187 186
f 188 189 187
f 197 190 196
f 197 191 190
f 198 191 197
f 198 192 191
f 198 193 192
f 198 199 193
f 180 199 179
f 180 200 199
f 200 193 199
f 200 194 193
f 200 195 194
f 200 201 195
f 203 197 196
f 203 204 197
f 204 198 197
f 204 205 198
f 206 179 199
f 206 182 179
f 206 181 182
f 206 205 181
f 205 199 198
f 205 206 199
f 207 200 180
f 207 180 183
f 183 182 206
f 183 206 207
f 208 200 207
f 208 201 200
f 208 202 201
f 208 209 202
f 205 184 181
f 205 211 184
f 210 205 204
f 210 211 205
f 206 182 185
f 206 185 212
f 212 185 184
f 212 184 211
f 212 207 206
f 212 213 207
f 214 207 213
f 214 208 207
f 214 209 208
f 214 215 209
f 217 210 216
f 217 211 210
f 218 211 217
f 218 212 211
f 218 213 212
f 218 219 213
f 219 214 213
f 219 220 214
f 220 215 214
f 220 221 215
f 227 222 226
f 227 223 222
f 227 224 223
f 227 228 224
f 228 225 224
f 228 229 225
f 230 186 187
f 230 229 186
f 233 227 226
f 233 234 227
f 235 227 234
f 235 228 227
f 236 186 229
f 236 188 186
f 235 229 228
f 235 236 229
f 237 230 187
f 237 187 189
f 189 188 236
f 189 236 237
f 238 230 237
f 238 231 230
f 238 232 231
f 238 239 232
f 240 235 234
f 240 241 235
f 242 235 241
f 242 236 235
f 242 237 236
f 242 243 237
f 244 237 243
f 244 238 237
f 245 238 244
f 245 239 238
f 246 241 240
f 246 247 241
f 248 241 247
f 248 242 241
f 249 242 248
f 249 243 242
f 249 244 243
f 249 250 244
f 250 245 244
f 250 251 245
f 191 254 190
f 191 255 254
f 192 255 191
f 192 256 255
f 257 192 193
f 257 256 192
f 256 253 252
f 256 257 253
f 258 193 194
f 258 257 193
f 195 258 194
f 195 259 258
f 261 190 254
f 261 196 190
f 262 259 195
f 262 195 201
f 202 262 201
f 202 263 262
f 262 260 259
f 262 263 260
f 261 203 196
f 261 265 203
f 266 204 203
f 266 203 265
f 268 263 202
f 268 202 209
f 270 264 269
f 270 265 264
f 266 210 204
f 266 271 210
f 270 266 265
f 270 271 266
f 273 268 209
f 273 209 215
f 273 272 267
f 273 267 268
f 274 270 269
f 274 275 270
f 271 216 210
f 271 276 216
f 275 271 270
f 275 276 271
f 277 217 216
f 277 216 276
f 278 218 217
f 278 217 277
f 279 219 218
f 279 218 278
f 220 219 279
f 220 279 280
f 273 215 221
f 273 221 281
f 281 221 220
f 281 220 280
f 281 280 272
f 281 272 273
f 282 277 276
f 282 283 277
f 287 222 223
f 287 286 222
f 224 287 223
f 224 288 287
f 225 288 224
f 225 289 288
f 288 285 284
f 288 289 285
f 292 222 286
f 292 226 222
f 293 289 225
f 293 225 229
f 230 293 229
f 230 294 293
f 293 290 289
f 293 294 290
f 231 294 230
f 231 295 294
f 294 291 290
f 294 295 291
f 296 231 232
f 296 295 231
f 292 233 226
f 292 298 233
f 299 234 233
f 299 233 298
f 301 296 232
f 301 232 239
f 303 297 302
f 303 298 297
f 299 240 234
f 299 304 240
f 303 299 298
f 303 304 299
f 306 301 239
f 306 239 245
f 306 305 300
f 306 300 301
f 307 303 302
f 307 308 303
f 304 246 240
f 304 309 246
f 308 304 303
f 308 309 304
f 310 247 246
f 310 246 309
f 311 248 247
f 311 247 310
f 312 249 248
f 312 248 311
f 250 249 312
f 250 312 313
f 314 306 245
f 314 245 251
f 314 251 250
f 314 250 313
f 314 313 305
f 314 305 306
f 315 310 309
f 315 316 310
f 253 317 252
f 253 318 317
f 320 254 255
f 320 319 254
f 317 256 252
f 317 321 256
f 321 255 256
f 321 320 255
f 318 253 257
f 318 257 322
f 321 317 318
f 321 318 322
f 323 257 258
f 323 322 257
f 259 323 258
f 259 324 323
f 260 324 259
f 260 325 324
f 319 261 254
f 319 326 261
f 328 325 260
f 328 260 263
f 327 324 325
f 327 325 328
f 326 265 261
f 326 330 265
f 330 264 265
f 330 329 264
f 332 328 263
f 332 263 268
f 332 268 267
f 332 267 331
f 333 264 329
f 333 269 264
f 334 333 329
f 334 329 330
f 331 267 272
f 331 272 335
f 336 331 335
f 336 332 331
f 337 269 333
f 337 274 269
f 275 274 337
f 275 337 338
f 337 333 334
f 337 334 338
f 339 276 275
f 339 275 338
f 278 277 340
f 278 340 341
f 279 278 341
f 279 341 342
f 343 335 272
f 343 272 280
f 343 280 279
f 343 279 342
f 339 282 276
f 339 344 282
f 340 277 283
f 340 283 345
f 345 283 282
f 345 282 344
f 285 346 284
f 285 347 346
f 349 286 287
f 349 348 286
f 346 288 284
f 346 350 288
f 350 287 288
f 350 349 287
f 351 347 285
f 351 285 289
f 350 346 347
f 350 347 351
f 290 351 289
f 290 352 351
f 291 352 290
f 291 353 352
f 348 292 286
f 348 354 292
f 355 353 291
f 355 291 295
f 296 355 295
f 296 356 355
f 354 298 292
f 354 358 298
f 358 297 298
f 358 357 297
f 360 356 296
f 360 296 301
f 360 301 300
f 360 300 359
f 361 297 357
f 361 302 297
f 362 361 357
f 362 357 358
f 359 300 305
f 359 305 363
f 364 359 363
f 364 360 359
f 365 302 361
f 365 307 302
f 308 307 365
f 308 365 366
f 365 361 362
f 365 362 366
f 309 308 366
f 309 366 367
f 369 311 310
f 369 310 368
f 312 311 369
f 312 369 370
f 371 363 305
f 371 305 313
f 371 313 312
f 371 312 370
f 367 315 309
f 367 372 315
f 368 310 316
f 368 316 373
f 316 315 372
f 316 372 373
f 373 372 367
f 373 367 368
f 320 374 319
f 320 375 374
f 376 320 321
f 376 375 320
f 322 376 321
f 322 377 376
f 323 377 322
f 323 378 377
f 379 323 324
f 379 378 323
f 374 326 319
f 374 380 326
f 381 380 374
f 381 374 375
f 382 377 378
f 382 378 383
f 379 324 327
f 379 327 384
f 383 378 379
f 383 379 384
f 385 327 328
f 385 384 327
f 386 326 380
f 386 330 326
f 385 328 332
f 385 332 388
f 386 334 330
f 386 389 334
f 388 332 336
f 388 336 392
f 392 336 335
f 392 335 391
f 392 391 387
f 392 387 388
f 393 334 389
f 393 338 334
f 339 338 393
f 339 393 394
f 396 341 340
f 396 340 395
f 397 342 341
f 397 341 396
f 398 391 335
f 398 335 343
f 398 343 342
f 398 342 397
f 398 397 390
f 398 390 391
f 399 339 394
f 399 344 339
f 400 395 340
f 400 340 345
f 400 345 344
f 400 344 399
f 399 394 395
f 399 395 400
f 349 401 348
f 349 402 401
f 403 349 350
f 403 402 349
f 351 403 350
f 351 404 403
f 405 351 352
f 405 404 351
f 406 352 353
f 406 405 352
f 401 354 348
f 401 407 354
f 408 407 401
f 408 401 402
f 409 404 405
f 409 405 410
f 406 353 355
f 406 355 411
f 410 405 406
f 410 406 411
f 412 355 356
f 412 411 355
f 413 354 407
f 413 358 354
f 412 356 360
f 412 360 415
f 413 362 358
f 413 416 362
f 419 415 360
f 419 360 364
f 419 364 363
f 419 363 418
f 419 418 414
f 419 414 415
f 420 362 416
f 420 366 362
f 367 366 420
f 367 420 421
f 368 367 421
f 368 421 422
f 423 369 368
f 423 368 422
f 370 369 423
f 370 423 424
f 425 418 363
f 425 363 371
f 425 371 370
f 425 370 424
f 425 424 417
f 425 417 418
f 376 426 375
f 376 427 426
f 428 376 377
f 428 427 376
f 426 381 375
f 426 430 381
f 381 429 380
f 381 430 429
f 428 377 382
f 428 382 431
f 383 431 382
f 383 432 431
f 433 383 384
f 433 432 383
f 434 384 385
f 434 433 384
f 429 386 380
f 429 435 386
f 436 435 429
f 436 429 430
f 439 434 385
f 439 385 388
f 439 388 387
f 439 387 438
f 439 438 433
f 439 433 434
f 440 386 435
f 440 389 386
f 445 438 387
f 445 387 391
f 445 391 390
f 445 390 444
f 445 444 437
f 445 437 438
f 446 389 440
f 446 393 389
f 447 394 393
f 447 393 446
f 448 395 394
f 448 394 447
f 448 447 441
f 448 441 442
f 396 395 448
f 396 448 449
f 448 442 443
f 448 443 449
f 450 444 390
f 450 390 397
f 450 397 396
f 450 396 449
f 450 449 443
f 450 443 444
f 403 451 402
f 403 452 451
f 453 403 404
f 453 452 403
f 451 408 402
f 451 455 408
f 408 454 407
f 408 455 454
f 453 404 409
f 453 409 456
f 410 456 409
f 410 457 456
f 458 410 411
f 458 457 410
f 412 458 411
f 412 459 458
f 454 413 407
f 454 460 413
f 461 460 454
f 461 454 455
f 462 457 458
f 462 458 463
f 464 459 412
f 464 412 415
f 464 415 414
f 464 414 463
f 464 463 458
f 464 458 459
f 465 413 460
f 465 416 413
f 470 463 414
f 470 414 418
f 470 418 417
f 470 417 469
f 470 469 462
f 470 462 463
f 471 416 465
f 471 420 416
f 472 421 420
f 472 420 471
f 473 422 421
f 473 421 472
f 473 472 466
f 473 466 467
f 423 422 473
f 423 473 474
f 473 467 468
f 473 468 474
f 475 469 417
f 475 417 424
f 475 424 423
f 475 423 474
f 475 474 468
f 475 468 469
f 427 476 426
f 427 477 476
f 478 427 428
f 478 477 427
f 479 426 476
f 479 430 426
f 480 479 476
f 480 476 477
f 478 428 431
f 478 431 481
f 480 477 478
f 480 478 481
f 432 481 431
f 432 482 481
f 483 432 433
f 483 482 432
f 479 436 430
f 479 485 436
f 436 484 435
f 436 485 484
f 486 485 479
f 486 479 480
f 487 481 482
f 487 482 488
f 489 483 433
f 489 433 438
f 489 438 437
f 489 437 488
f 484 440 435
f 484 490 440
f 491 490 484
f 491 484 485
f 492 442 441
f 492 441 491
f 493 443 442
f 493 442 492
f 494 488 437
f 494 437 444
f 494 444 443
f 494 443 493
f 494 493 487
f 494 487 488
f 495 440 490
f 495 446 440
f 496 491 441
f 496 441 447
f 496 447 446
f 496 446 495
f 496 495 490
f 496 490 491
f 452 497 451
f 452 498 497
f 453 498 452
f 453 499 498
f 500 451 497
f 500 455 451
f 500 497 498
f 500 498 501
f 499 453 456
f 499 456 502
f 501 498 499
f 501 499 502
f 457 502 456
f 457 503 502
f 500 461 455
f 500 506 461
f 461 505 460
f 461 506 505
f 507 506 500
f 507 500 501
f 503 457 462
f 503 462 509
f 508 502 503
f 508 503 509
f 510 503 509
f 510 504 503
f 505 465 460
f 505 511 465
f 512 511 505
f 512 505 506
f 513 467 466
f 513 466 512
f 514 468 467
f 514 467 513
f 515 509 462
f 515 462 469
f 515 469 468
f 515 468 514
f 515 514 508
f 515 508 509
f 516 465 511
f 516 471 465
f 517 512 466
f 517 466 472
f 517 472 471
f 517 471 516
f 517 516 511
f 517 511 512
f 519 480 481
f 519 518 480
f 483 520 482
f 483 521 520
f 518 486 480
f 518 523 486
f 486 522 485
f 486 523 522
f 519 481 487
f 519 487 524
f 524 523 518
f 524 518 519
f 525 482 520
f 525 488 482
f 526 521 483
f 526 483 489
f 489 488 525
f 489 525 526
f 525 520 521
f 525 521 526
f 522 491 485
f 522 527 491
f 492 491 527
f 492 527 528
f 528 527 522
f 528 522 523
f 529 524 487
f 529 487 493
f 529 493 492
f 529 492 528
f 529 528 523
f 529 523 524
f 531 501 502
f 531 530 501
f 504 532 503
f 504 533 532
f 530 507 501
f 530 535 507
f 507 534 506
f 507 535 534
f 531 502 508
f 531 508 536
f 536 535 530
f 536 530 531
f 537 503 532
f 537 509 503
f 533 504 510
f 533 510 538
f 510 509 537
f 510 537 538
f 537 532 533
f 537 533 538
f 534 512 506
f 534 539 512
f 513 512 539
f 513 539 540
f 540 539 534
f 540 534 535
f 541 536 508
f 541 508 514
f 541 514 513
f 541 513 540
f 541 540 535
f 541 535 536
f 544 543 542
f 544 545 543
f 551 546 550
f 551 547 546
f 551 548 547
f 551 552 548
f 552 549 548
f 552 553 549
f 554 542 543
f 554 553 542
f 557 551 550
f 557 558 551
f 558 552 551
f 558 559 552
f 560 542 553
f 560 544 542
f 559 553 552
f 559 560 553
f 561 554 543
f 561 543 545
f 545 544 560
f 545 560 561
f 562 554 561
f 562 555 554
f 562 556 555
f 562 563 556
f 564 559 558
f 564 565 559
f 566 559 565
f 566 560 559
f 566 561 560
f 566 567 561
f 567 562 561
f 567 568 562
f 568 563 562
f 568 569 563
f 570 565 564
f 570 571 565
f 572 565 571
f 572 566 565
f 573 566 572
f 573 567 566
f 574 567 573
f 574 568 567
f 574 569 568
f 574 575 569
f 547 578 546
f 547 579 578
f 548 579 547
f 548 580 579
f 549 580 548
f 549 581 580
f 580 577 576
f 580 581 577
f 583 546 578
f 583 550 546
f 584 581 549
f 584 549 553
f 554 584 553
f 554 585 584
f 584 582 581
f 584 585 582
f 555 585 554
f 555 586 585
f 587 555 556
f 587 586 555
f 583 557 550
f 583 588 557
f 589 558 557
f 589 557 588
f 591 587 556
f 591 556 563
f 589 564 558
f 589 594 564
f 593 589 588
f 593 594 589
f 596 591 563
f 596 563 569
f 596 595 590
f 596 590 591
f 598 592 597
f 598 593 592
f 594 570 564
f 594 599 570
f 598 594 593
f 598 599 594
f 600 571 570
f 600 570 599
f 601 572 571
f 601 571 600
f 602 573 572
f 602 572 601
f 574 573 602
f 574 602 603
f 596 569 575
f 596 575 604
f 604 575 574
f 604 574 603
f 604 603 595
f 604 595 596
f 605 600 599
f 605 606 600
f 577 607 576
f 577 608 607
f 610 578 579
f 610 609 578
f 607 580 576
f 607 611 580
f 611 579 580
f 611 610 579
f 612 608 577
f 612 577 581
f 611 607 608
f 611 608 612
f 582 612 581
f 582 613 612
f 609 583 578
f 609 615 583
f 616 613 582
f 616 582 585
f 586 616 585
f 586 617 616
f 616 614 613
f 616 617 614
f 618 586 587
f 618 617 586
f 615 588 583
f 615 619 588
f 618 587 591
f 618 591 621
f 621 591 590
f 621 590 620
f 619 593 588
f 619 623 593
f 593 622 592
f 593 623 622
f 620 590 595
f 620 595 624
f 625 620 624
f 625 621 620
f 622 597 592
f 622 626 597
f 598 597 626
f 598 626 627
f 626 622 623
f 626 623 627
f 628 599 598
f 628 598 627
f 601 600 629
f 601 629 630
f 602 601 630
f 602 630 631
f 632 624 595
f 632 595 603
f 632 603 602
f 632 602 631
f 628 605 599
f 628 633 605
f 629 600 606
f 629 606 634
f 606 605 633
f 606 633 634
f 610 635 609
f 610 636 635
f 637 610 611
f 637 636 610
f 612 637 611
f 612 638 637
f 639 612 613
f 639 638 612
f 614 639 613
f 614 640 639
f 635 615 609
f 635 641 615
f 642 641 635
f 642 635 636
f 643 638 639
f 643 639 644
f 640 614 617
f 640 617 645
f 644 639 640
f 644 640 645
f 618 645 617
f 618 646 645
f 647 615 641
f 647 619 615
f 646 618 621
f 646 621 649
f 650 619 647
f 650 623 619
f 649 621 625
f 649 625 653
f 653 625 624
f 653 624 652
f 653 652 648
f 653 648 649
f 650 627 623
f 650 654 627
f 628 627 654
f 628 654 655
f 657 630 629
f 657 629 656
f 631 630 657
f 631 657 658
f 659 652 624
f 659 624 632
f 659 632 631
f 659 631 658
f 659 658 651
f 659 651 652
f 660 628 655
f 660 633 628
f 661 656 629
f 661 629 634
f 634 633 660
f 634 660 661
f 660 655 656
f 660 656 661
f 637 662 636
f 637 663 662
f 664 637 638
f 664 663 637
f 662 642 636
f 662 666 642
f 642 665 641
f 642 666 665
f 664 638 643
f 664 643 667
f 668 643 644
f 668 667 643
f 669 644 645
f 669 668 644
f 670 645 646
f 670 669 645
f 665 647 641
f 665 671 647
f 672 671 665
f 672 665 666
f 675 670 646
f 675 646 649
f 675 649 648
f 675 648 674
f 675 674 669
f 675 669 670
f 676 647 671
f 676 650 647
f 681 674 648
f 681 648 652
f 681 652 651
f 681 651 680
f 681 680 673
f 681 673 674
f 682 650 676
f 682 654 650
f 683 655 654
f 683 654 682
f 684 656 655
f 684 655 683
f 684 683 677
f 684 677 678
f 657 656 684
f 657 684 685
f 684 678 679
f 684 679 685
f 686 680 651
f 686 651 658
f 686 658 657
f 686 657 685
f 686 685 679
f 686 679 680
f 663 687 662
f 663 688 687
f 689 663 664
f 689 688 663
f 690 662 687
f 690 666 662
f 690 687 688
f 690 688 691
f 689 664 667
f 689 667 692
f 691 688 689
f 691 689 692
f 693 667 668
f 693 692 667
f 694 668 669
f 694 693 668
f 690 672 666
f 690 696 672
f 672 695 671
f 672 696 695
f 697 696 690
f 697 690 691
f 700 694 669
f 700 669 674
f 700 674 673
f 700 673 699
f 695 676 671
f 695 701 676
f 702 701 695
f 702 695 696
f 703 678 677
f 703 677 702
f 679 678 703
f 679 703 704
f 705 699 673
f 705 673 680
f 705 680 679
f 705 679 704
f 705 704 698
f 705 698 699
f 706 676 701
f 706 682 676
f 707 702 677
f 707 677 683
f 707 683 682
f 707 682 706
f 707 706 701
f 707 701 702
f 692 708 691
f 692 709 708
f 693 709 692
f 693 710 709
f 694 710 693
f 694 711 710
f 708 697 691
f 708 713 697
f 697 712 696
f 697 713 712
f 714 713 708
f 714 708 709
f 715 699 698
f 715 698 714
f 715 714 709
f 715 709 710
f 716 711 694
f 716 694 700
f 700 699 715
f 700 715 716
f 716 715 710
f 716 710 711
f 712 702 696
f 712 717 702
f 703 702 717
f 703 717 718
f 718 717 712
f 718 712 713
f 719 714 698
f 719 698 704
f 719 704 703
f 719 703 718
f 719 718 713
f 719 713 714
