# parsimony mesh: cplx_CPLX0-8240 (source /Users/eranagmon/code/v2e-cplx/workspace/studies/ecoli-3d/viz/3d/structures/cplx_CPLX0-8240.pdb)
# atoms: 5572  voxel: 16 Å  verts: 144  tris: 274
v 45.3863 -52.8264 -22.2192
v 57.8430 -53.9439 -22.9063
v 67.2526 -52.0940 -21.6341
v 43.4705 -41.4928 -23.0944
v 57.9614 -41.2290 -23.4691
v 67.2526 -46.3865 -21.6341
v 45.8030 -29.5031 -21.8849
v 52.7070 -29.5031 -21.8849
v -47.3017 29.1962 -20.3969
v -38.1570 27.6656 -22.3714
v -22.1570 28.2675 -22.3553
v -13.8091 29.9987 -20.3755
v -47.4134 38.5072 -20.4972
v -38.1570 38.5072 -23.8164
v -22.3322 37.5077 -22.8676
v -13.8091 31.5081 -20.3755
v -46.6875 47.0003 -20.2442
v -38.1570 50.7837 -21.4123
v -27.7823 51.7161 -21.6170
v 32.1100 -68.3555 -7.7157
v 41.8430 -68.8676 -9.0487
v 57.8430 -66.8022 -6.4808
v 65.9518 -65.6016 -4.2918
v 17.6896 -49.7275 -4.2965
v 26.4032 -56.0336 -9.1014
v 40.7690 -57.8929 -17.1199
v 57.8430 -61.9439 -14.4808
v 67.2423 -57.4535 -10.5620
v 17.6896 -46.7400 -4.2965
v 24.6730 -41.4411 -9.0370
v 35.4705 -41.4928 -18.0575
v 63.3942 -36.1010 -11.9672
v 67.5105 -44.1010 -11.9672
v 29.2264 -31.8308 -7.6084
v 41.3617 -25.3336 -13.1694
v 57.1815 -24.6990 -12.8251
v 47.7180 -9.4928 -7.5578
v 54.3230 -9.4928 -7.5578
v -48.4941 12.6056 -6.6516
v -38.1570 12.9499 -6.3075
v -29.7350 14.3324 -4.4032
v 49.2655 -1.0718 -4.6582
v 50.9870 -1.0718 -4.6582
v -62.1724 30.4694 -4.0084
v -53.2312 24.4994 -10.6634
v -38.1570 19.6656 -14.3075
v -22.2010 23.6808 -10.3669
v -13.8091 29.9987 -16.3307
v -62.7805 38.5072 -5.3134
v -55.4134 38.5072 -13.3134
v -16.8033 37.5077 -11.3853
v -13.8091 31.5081 -16.3307
v -62.9730 47.4859 -5.7210
v -52.8753 49.7850 -11.4195
v -38.9592 58.7231 -13.5057
v -23.6870 56.0326 -13.5057
v -34.7910 70.5072 -9.2894
v -25.8618 70.5072 -9.2894
v -32.3322 79.6816 -5.8326
v -28.4471 79.6816 -5.8326
v 31.3388 -67.7823 4.0328
v 40.9594 -68.3066 4.5023
v 57.8430 -66.8022 -1.2795
v 65.9518 -65.6016 -3.8327
v 16.5359 -52.5650 4.0328
v 23.3388 -60.5650 4.0328
v 46.3167 -57.4928 10.1829
v 57.8430 -57.4928 3.1050
v 66.5349 -57.4928 -3.0451
v 15.8753 -41.4411 2.7245
v 18.5598 -36.0733 -3.4810
v 48.1333 -41.4928 10.4521
v 58.9655 -40.6431 1.8252
v 66.6567 -45.4099 -2.8723
v 16.3062 -31.3384 7.1856
v 24.6730 -30.3090 2.7245
v 43.3473 -26.1267 6.8077
v 55.8093 -25.0713 4.7177
v 47.8328 -8.7696 4.8941
v 53.7732 -8.7696 4.8941
v -48.4941 12.6056 -1.4774
v -38.1570 12.9499 -1.8020
v -29.7350 14.3324 -3.5701
v 49.2655 -1.0718 0.1350
v 50.9870 -1.0718 0.1350
v -64.0043 27.8756 4.0328
v -53.9593 20.4013 3.9266
v -38.2134 22.5066 5.7019
v -26.2230 22.5072 -1.7482
v -66.0506 38.5072 4.0328
v -34.1430 38.5072 8.0764
v -23.2459 38.5072 0.0764
v -64.2033 50.1442 4.0328
v -54.1570 54.8372 4.0328
v -38.1731 55.2202 6.3885
v -24.5150 54.9510 4.1307
v -36.5661 70.5072 4.0328
v -24.6604 70.5072 4.0328
v -32.4535 79.8273 4.0328
v -28.4192 79.8273 4.0328
v 32.2371 -65.6828 13.4536
v 35.0370 -65.6828 13.4536
v 16.1366 -53.3004 20.0328
v 26.4794 -61.2285 19.2852
v 38.2435 -58.1823 19.2852
v 14.6815 -41.4928 20.0328
v 41.2999 -41.4928 20.0328
v 16.3878 -31.5587 20.0328
v 25.8430 -30.2578 20.0328
v 42.1081 -26.7341 16.7687
v 50.4200 -19.4571 12.4166
v 49.3260 -13.6209 12.4166
v 50.4200 -13.6209 12.4166
v -64.9666 26.2379 20.0328
v -54.1570 22.9741 20.0328
v -43.5602 27.2435 20.0328
v -67.5044 38.5072 20.0328
v -46.7475 45.7636 27.5220
v -42.4119 39.6611 21.3263
v -64.6948 50.8359 20.0328
v -52.9113 51.3299 21.3263
v -37.5074 54.6768 14.8431
v -29.1622 60.5802 12.8310
v -31.9321 70.5072 13.1070
v -28.9556 70.5072 13.1070
v -31.0438 79.0930 12.6670
v -29.5499 79.0930 12.6670
v 17.1572 -50.7081 28.9091
v 25.8430 -53.2662 29.8769
v 35.2122 -53.3087 29.6153
v 17.0261 -41.4928 28.9436
v 25.8430 -41.4928 30.2414
v 35.0095 -41.4928 29.3306
v 17.4395 -33.0683 28.3708
v 25.8430 -32.9910 28.3973
v 34.0291 -33.2482 28.1807
v -63.4555 28.2858 29.7931
v -54.1570 27.5782 30.2252
v -45.2673 28.8233 29.1958
v -64.2344 38.5072 30.2495
v -52.9113 39.6611 30.5040
v -45.2673 35.0969 29.1958
v -63.6284 48.4082 29.2282
v -57.4142 48.4082 29.2282
f 5 1 4
f 5 2 1
f 6 2 5
f 6 3 2
f 8 4 7
f 8 5 4
f 14 9 13
f 14 10 9
f 15 10 14
f 15 11 10
f 16 11 15
f 16 12 11
f 17 14 13
f 17 18 14
f 19 14 18
f 19 15 14
f 26 20 25
f 26 21 20
f 27 1 2
f 27 26 1
f 27 21 26
f 27 22 21
f 3 27 2
f 3 28 27
f 27 23 22
f 27 28 23
f 30 24 29
f 30 25 24
f 31 1 26
f 31 4 1
f 31 25 30
f 31 26 25
f 6 5 32
f 6 32 33
f 31 7 4
f 31 35 7
f 34 31 30
f 34 35 31
f 32 5 8
f 32 8 36
f 8 7 35
f 8 35 36
f 37 36 35
f 37 38 36
f 43 37 42
f 43 38 37
f 46 9 10
f 46 45 9
f 46 39 45
f 46 40 39
f 11 46 10
f 11 47 46
f 46 41 40
f 46 47 41
f 48 11 12
f 48 47 11
f 50 9 45
f 50 13 9
f 50 44 49
f 50 45 44
f 48 12 16
f 48 16 52
f 16 15 51
f 16 51 52
f 51 47 48
f 51 48 52
f 50 17 13
f 50 54 17
f 53 50 49
f 53 54 50
f 55 18 17
f 55 17 54
f 51 15 19
f 51 19 56
f 19 18 55
f 19 55 56
f 58 55 57
f 58 56 55
f 60 57 59
f 60 58 57
f 62 20 21
f 62 61 20
f 63 21 22
f 63 62 21
f 64 22 23
f 64 63 22
f 66 20 61
f 66 25 20
f 66 24 25
f 66 65 24
f 67 62 63
f 67 63 68
f 69 68 63
f 69 63 64
f 65 29 24
f 65 70 29
f 71 30 29
f 71 29 70
f 72 67 68
f 72 68 73
f 74 33 32
f 74 32 73
f 74 73 68
f 74 68 69
f 71 34 30
f 71 76 34
f 75 71 70
f 75 76 71
f 77 35 34
f 77 34 76
f 78 73 32
f 78 32 36
f 78 77 72
f 78 72 73
f 77 37 35
f 77 79 37
f 78 36 38
f 78 38 80
f 40 81 39
f 40 82 81
f 41 82 40
f 41 83 82
f 84 37 79
f 84 42 37
f 85 80 38
f 85 38 43
f 43 42 84
f 43 84 85
f 85 84 79
f 85 79 80
f 87 39 81
f 87 45 39
f 87 44 45
f 87 86 44
f 88 87 81
f 88 81 82
f 89 83 41
f 89 41 47
f 88 82 83
f 88 83 89
f 90 44 86
f 90 49 44
f 92 89 47
f 92 47 51
f 91 88 89
f 91 89 92
f 90 53 49
f 90 93 53
f 94 54 53
f 94 53 93
f 55 54 94
f 55 94 95
f 92 51 56
f 92 56 96
f 96 95 91
f 96 91 92
f 97 55 95
f 97 57 55
f 96 56 58
f 96 58 98
f 97 59 57
f 97 99 59
f 98 58 60
f 98 60 100
f 102 61 62
f 102 101 61
f 101 66 61
f 101 104 66
f 66 103 65
f 66 104 103
f 102 62 67
f 102 67 105
f 105 104 101
f 105 101 102
f 106 65 103
f 106 70 65
f 107 105 67
f 107 67 72
f 106 75 70
f 106 108 75
f 109 76 75
f 109 75 108
f 110 107 72
f 110 72 77
f 77 76 109
f 77 109 110
f 111 77 78
f 111 110 77
f 112 77 110
f 112 79 77
f 111 78 80
f 111 80 113
f 113 80 79
f 113 79 112
f 112 110 111
f 112 111 113
f 115 86 87
f 115 114 86
f 116 87 88
f 116 115 87
f 117 86 114
f 117 90 86
f 116 88 91
f 116 91 119
f 117 93 90
f 117 120 93
f 94 93 120
f 94 120 121
f 122 119 91
f 122 91 95
f 122 95 94
f 122 94 121
f 121 118 119
f 121 119 122
f 123 95 96
f 123 122 95
f 124 95 122
f 124 97 95
f 123 96 98
f 123 98 125
f 124 122 123
f 124 123 125
f 124 99 97
f 124 126 99
f 125 98 100
f 125 100 127
f 126 124 125
f 126 125 127
f 129 103 104
f 129 128 103
f 130 104 105
f 130 129 104
f 128 106 103
f 128 131 106
f 132 131 128
f 132 128 129
f 130 105 107
f 130 107 133
f 133 132 129
f 133 129 130
f 134 106 131
f 134 108 106
f 109 108 134
f 109 134 135
f 134 131 132
f 134 132 135
f 136 133 107
f 136 107 110
f 136 110 109
f 136 109 135
f 136 135 132
f 136 132 133
f 115 137 114
f 115 138 137
f 139 115 116
f 139 138 115
f 137 117 114
f 137 140 117
f 140 137 138
f 140 138 141
f 142 139 116
f 142 116 119
f 142 119 118
f 142 118 141
f 142 141 138
f 142 138 139
f 143 117 140
f 143 120 117
f 144 141 118
f 144 118 121
f 144 121 120
f 144 120 143
f 144 143 140
f 144 140 141
