# parsimony mesh: cplx_CPLX0-12216 (source /Users/eranagmon/code/v2e-cplx/workspace/studies/ecoli-3d/viz/3d/structures/cplx_CPLX0-12216.pdb)
# atoms: 5332  voxel: 16 Å  verts: 152  tris: 300
v -50.2633 40.2367 -37.2460
v -47.0391 40.2367 -37.2460
v -50.2633 44.8410 -37.2460
v -47.0391 44.8410 -37.2460
v 77.9027 -71.4888 -20.6066
v 80.5295 -71.4888 -20.6066
v 60.5644 -58.5459 -23.9027
v 72.3461 -63.5160 -23.5342
v 81.3767 -62.9710 -21.5151
v 59.2025 -46.9710 -24.7009
v 72.0111 -46.9710 -25.8284
v 81.0527 -46.9710 -21.1763
v 61.0463 -37.0501 -22.3976
v 72.0111 -37.4693 -21.8900
v 80.0976 -38.8895 -20.1548
v -49.9060 40.2907 -28.0488
v -41.0191 39.5792 -27.2514
v -30.5494 39.5971 -21.3864
v -50.9743 49.7162 -28.9401
v -41.0191 49.7162 -30.5713
v -29.6152 49.0290 -22.0878
v -50.7172 65.0290 -24.1112
v -38.5642 66.5454 -24.1274
v -30.2634 62.2229 -21.4298
v -49.2072 73.7798 -21.3132
v -42.9477 73.7798 -21.3132
v 30.8684 -87.4150 -4.2591
v 32.2686 -87.4150 -4.2591
v 30.3594 -78.9710 -4.5806
v 32.7718 -78.9710 -4.5806
v 63.6550 -71.1776 -5.1045
v 72.3461 -71.7059 -11.0822
v 80.7183 -71.7347 -12.0488
v 30.9514 -70.0877 -4.5475
v 32.7678 -70.0877 -4.5475
v 58.5658 -63.5160 -11.0822
v 67.2360 -69.2126 -15.7711
v 82.7348 -62.9710 -12.0488
v 47.5948 -43.9780 -4.9961
v 50.6006 -48.3752 -11.0172
v 83.5583 -46.9710 -12.0488
v 47.5948 -38.6690 -4.9961
v 55.8322 -36.3642 -11.0172
v 72.0111 -34.1454 -12.0488
v 81.5418 -37.1774 -12.0488
v -81.9753 21.5328 -5.1363
v -78.4042 21.5328 -5.1363
v -81.9114 33.0290 -5.1700
v -78.2967 33.0290 -5.1700
v -49.2127 40.2477 -12.0488
v -39.9889 37.9035 -12.0488
v -29.9702 38.6848 -12.0488
v -80.5658 41.6904 -4.4562
v -71.8849 49.1243 -4.6469
v -56.8196 50.3465 -10.9220
v -27.5071 49.0290 -12.0488
v -64.4524 59.3652 -4.8376
v -59.2356 64.8308 -10.9220
v -32.2810 72.8896 -19.9294
v -28.4800 66.5454 -13.5772
v -52.2326 75.0187 -12.0488
v -38.5642 75.5640 -13.5772
v -29.4248 74.6010 -9.2628
v 30.8684 -87.4150 -3.6478
v 32.2686 -87.4150 -3.6478
v 29.0818 -78.5969 2.5918
v 37.8516 -78.3781 3.4407
v 57.4237 -72.1265 3.8412
v 72.0111 -71.5013 -2.8186
v 80.4357 -71.4715 -3.6106
v 28.8042 -64.0410 4.4733
v 38.8651 -64.0410 0.4570
v 56.1050 -65.5940 2.7404
v 72.6115 -63.4432 5.6027
v 81.3693 -62.9710 -0.8859
v 30.4057 -50.6912 10.1547
v 40.2336 -47.3346 3.0837
v 48.0717 -54.6447 -3.9873
v 77.1275 -46.9710 9.5950
v 82.5167 -46.9710 1.5950
v 44.3449 -37.3127 3.9512
v 56.0111 -34.7135 3.9512
v 72.3038 -35.5056 4.5989
v 81.9655 -36.6609 -0.3026
v -81.9753 21.5328 -2.0141
v -78.4042 21.5328 -2.0141
v -82.4052 33.4239 3.5720
v -73.5275 32.2787 4.1888
v -55.1989 37.5808 4.6156
v -41.5267 39.4599 3.1375
v -30.7367 39.3353 -2.7383
v -81.5952 47.8259 4.9756
v -71.8849 49.1243 0.0251
v -60.0055 45.8915 -0.2749
v -36.3643 49.0290 8.4143
v -29.8808 49.0290 0.4143
v -80.6254 58.2847 10.9918
v -70.7163 64.1583 3.9557
v -63.0956 70.0319 -3.0805
v -35.8157 65.0290 9.8963
v -28.8968 65.0290 1.8963
v -66.3136 74.6085 7.5862
v -57.0529 75.2355 2.9322
v -41.0878 75.2310 4.3231
v -29.4248 74.6010 -0.7623
v 29.3064 -73.6708 19.9512
v 39.1087 -74.3935 19.3748
v 51.1925 -73.0754 13.6571
v 27.0914 -62.9710 19.9512
v 43.8405 -67.1751 24.3238
v 55.6859 -62.7999 19.1008
v 67.6785 -58.4247 13.8777
v 29.7961 -47.8173 19.9512
v 32.7121 -39.8173 19.9512
v 58.4825 -46.9710 22.5871
v 69.1275 -46.9710 14.5871
v 40.7121 -36.4049 19.9512
v 55.4873 -36.1119 19.3040
v 67.1656 -37.6272 13.5392
v -81.4527 39.0205 15.4460
v -71.9889 35.9035 16.5688
v -55.9889 37.3560 13.9996
v -47.8853 40.9572 12.0204
v -81.9454 48.3885 20.4481
v -71.9889 44.1309 24.5688
v -55.8803 48.9510 21.7317
v -44.3643 49.0290 14.1803
v -81.3366 59.8904 19.9512
v -75.4822 67.8904 19.9512
v -52.4952 65.0290 22.4241
v -43.8157 65.0290 14.4241
v -67.4822 75.0140 19.9512
v -56.5025 74.7346 18.5878
v -47.1538 73.2250 12.3455
v 31.0846 -72.5276 28.5107
v 33.1738 -72.5276 28.5107
v 30.3053 -62.9710 29.5155
v 39.1087 -62.2935 29.7265
v 49.5126 -56.5085 28.8243
v 30.6632 -49.7126 29.4775
v 38.4551 -45.4159 30.2809
v 50.4825 -46.9710 29.7186
v 42.7511 -37.4587 29.4346
v 49.8048 -37.4587 29.4346
v -81.1494 53.2948 29.5351
v -71.9889 52.1309 30.2599
v -61.1412 54.2323 29.4456
v -81.1494 59.5884 29.5351
v -71.7887 64.9647 30.6017
v -60.4952 65.0290 30.0765
v -66.3220 74.0962 29.2905
v -62.1783 74.0962 29.2905
f 3 2 1
f 3 4 2
f 9 5 8
f 9 6 5
f 11 7 10
f 11 8 7
f 12 8 11
f 12 9 8
f 13 11 10
f 13 14 11
f 15 11 14
f 15 12 11
f 2 16 1
f 2 17 16
f 16 3 1
f 16 19 3
f 17 2 4
f 17 4 20
f 4 3 19
f 4 19 20
f 21 17 20
f 21 18 17
f 22 20 19
f 22 23 20
f 24 20 23
f 24 21 20
f 26 22 25
f 26 23 22
f 30 27 29
f 30 28 27
f 33 5 6
f 33 32 5
f 34 30 29
f 34 35 30
f 37 5 32
f 37 8 5
f 37 7 8
f 37 36 7
f 37 31 36
f 37 32 31
f 38 33 6
f 38 6 9
f 40 7 36
f 40 10 7
f 38 9 12
f 38 12 41
f 43 10 40
f 43 13 10
f 42 40 39
f 42 43 40
f 44 14 13
f 44 13 43
f 41 12 15
f 41 15 45
f 15 14 44
f 15 44 45
f 48 47 46
f 48 49 47
f 17 50 16
f 17 51 50
f 18 51 17
f 18 52 51
f 53 49 48
f 53 54 49
f 50 19 16
f 50 55 19
f 56 52 18
f 56 18 21
f 55 22 19
f 55 58 22
f 57 55 54
f 57 58 55
f 56 21 24
f 56 24 60
f 24 23 59
f 24 59 60
f 61 22 58
f 61 25 22
f 59 23 26
f 59 26 62
f 26 25 61
f 26 61 62
f 63 59 62
f 63 60 59
f 28 64 27
f 28 65 64
f 64 29 27
f 64 66 29
f 65 28 30
f 65 30 67
f 66 64 65
f 66 65 67
f 69 31 32
f 69 68 31
f 70 32 33
f 70 69 32
f 66 34 29
f 66 71 34
f 67 30 35
f 67 35 72
f 72 35 34
f 72 34 71
f 73 31 68
f 73 36 31
f 72 68 67
f 72 73 68
f 74 73 68
f 74 68 69
f 70 33 38
f 70 38 75
f 75 74 69
f 75 69 70
f 76 72 71
f 76 77 72
f 78 36 73
f 78 40 36
f 78 39 40
f 78 77 39
f 78 72 77
f 78 73 72
f 75 38 41
f 75 41 80
f 79 74 75
f 79 75 80
f 81 39 77
f 81 42 39
f 82 43 42
f 82 42 81
f 44 43 82
f 44 82 83
f 84 80 41
f 84 41 45
f 84 45 44
f 84 44 83
f 84 83 79
f 84 79 80
f 47 85 46
f 47 86 85
f 85 48 46
f 85 87 48
f 86 47 49
f 86 49 88
f 87 85 86
f 87 86 88
f 90 50 51
f 90 89 50
f 91 51 52
f 91 90 51
f 87 53 48
f 87 92 53
f 93 88 49
f 93 49 54
f 93 54 53
f 93 53 92
f 94 50 89
f 94 55 50
f 94 54 55
f 94 93 54
f 94 88 93
f 94 89 88
f 91 52 56
f 91 56 96
f 96 95 90
f 96 90 91
f 93 57 54
f 93 98 57
f 97 93 92
f 97 98 93
f 99 58 57
f 99 57 98
f 101 96 56
f 101 56 60
f 101 100 95
f 101 95 96
f 99 61 58
f 99 103 61
f 102 99 98
f 102 103 99
f 104 62 61
f 104 61 103
f 101 60 63
f 101 63 105
f 105 63 62
f 105 62 104
f 105 104 100
f 105 100 101
f 67 106 66
f 67 107 106
f 108 67 68
f 108 107 67
f 106 71 66
f 106 109 71
f 108 68 73
f 108 73 111
f 110 107 108
f 110 108 111
f 112 73 74
f 112 111 73
f 109 76 71
f 109 113 76
f 114 77 76
f 114 76 113
f 112 74 79
f 112 79 116
f 115 111 112
f 115 112 116
f 114 81 77
f 114 117 81
f 118 82 81
f 118 81 117
f 119 116 79
f 119 79 83
f 119 83 82
f 119 82 118
f 119 118 115
f 119 115 116
f 88 120 87
f 88 121 120
f 89 121 88
f 89 122 121
f 123 89 90
f 123 122 89
f 120 92 87
f 120 124 92
f 125 124 120
f 125 120 121
f 125 121 122
f 125 122 126
f 123 90 95
f 123 95 127
f 126 122 123
f 126 123 127
f 124 97 92
f 124 128 97
f 129 98 97
f 129 97 128
f 127 95 100
f 127 100 131
f 130 126 127
f 130 127 131
f 129 102 98
f 129 132 102
f 133 103 102
f 133 102 132
f 134 131 100
f 134 100 104
f 134 104 103
f 134 103 133
f 134 133 130
f 134 130 131
f 136 106 107
f 136 135 106
f 135 109 106
f 135 137 109
f 136 107 110
f 136 110 138
f 137 135 136
f 137 136 138
f 139 110 111
f 139 138 110
f 140 109 137
f 140 113 109
f 141 114 113
f 141 113 140
f 140 137 138
f 140 138 141
f 139 111 115
f 139 115 142
f 141 138 139
f 141 139 142
f 141 117 114
f 141 143 117
f 144 142 115
f 144 115 118
f 144 118 117
f 144 117 143
f 143 141 142
f 143 142 144
f 125 145 124
f 125 146 145
f 147 125 126
f 147 146 125
f 145 128 124
f 145 148 128
f 129 128 148
f 129 148 149
f 148 145 146
f 148 146 149
f 147 126 130
f 147 130 150
f 149 146 147
f 149 147 150
f 151 129 149
f 151 132 129
f 152 150 130
f 152 130 133
f 152 133 132
f 152 132 151
f 151 149 150
f 151 150 152
