# parsimony mesh: cplx_CPLX0-7956 (source /Users/eranagmon/code/v2e-cplx/workspace/studies/ecoli-3d/viz/3d/structures/cplx_CPLX0-7956.pdb)
# atoms: 960  voxel: 4 Å  verts: 742  tris: 1500
v 31.4447 -38.6463 -19.8374
v 32.9171 -38.6463 -19.8374
v 31.3273 -35.7519 -19.8315
v 34.0630 -36.0284 -19.9250
v 36.2723 -34.8794 -19.7567
v 27.6608 -30.0527 -19.5641
v 30.0204 -31.5324 -19.8292
v 34.0673 -31.5063 -19.9447
v 36.2723 -32.6759 -19.7567
v 27.6608 -29.6341 -19.5641
v 29.7817 -29.3890 -19.8330
v 32.9244 -29.3858 -19.8702
v -32.7551 25.4748 -19.9927
v -31.5032 25.4748 -19.9927
v -32.9455 28.2481 -20.0563
v -30.1892 28.2264 -20.1433
v -27.6051 29.5452 -19.8207
v -36.3737 33.9883 -19.5820
v -34.0780 32.4922 -19.9672
v -30.0116 32.4582 -20.1105
v -27.6051 31.2649 -19.8207
v -36.3737 34.4242 -19.5820
v -34.2183 34.7070 -19.8973
v -31.2071 34.6838 -19.9380
v 31.4127 -38.4324 -17.4855
v 32.6922 -38.4324 -17.4855
v 27.5159 -34.7744 -16.0235
v 29.7252 -35.9654 -17.4083
v 34.6922 -37.3276 -17.4855
v 37.6761 -35.4111 -17.4459
v 41.7817 -34.5115 -16.0605
v 44.0935 -34.1003 -15.6516
v 27.4377 -31.5324 -17.4083
v 28.8462 -32.7193 -18.6902
v 35.5911 -30.0092 -19.3158
v 38.0101 -31.2334 -17.7010
v 41.7817 -32.3525 -16.0605
v 44.0935 -33.1803 -15.6516
v 27.5511 -29.5389 -17.4855
v 29.7817 -28.9412 -17.4855
v 34.0673 -29.0720 -17.7837
v 37.0813 -29.4155 -16.6491
v 47.4884 -26.4394 -15.6919
v 49.7817 -26.5545 -15.7997
v 51.9279 -26.1345 -15.6980
v 47.4884 -25.4693 -15.6919
v 49.7817 -25.3367 -15.7997
v 51.9279 -25.4809 -15.6980
v -32.7551 25.4748 -18.5989
v -31.5032 25.4748 -18.5989
v -36.7792 29.3029 -16.1462
v -34.0364 28.0514 -17.3725
v -30.1892 27.2987 -17.3535
v -26.2504 29.1158 -17.3417
v -22.2183 29.9286 -15.8085
v -20.2114 30.2416 -15.4893
v -36.8022 32.4922 -17.4819
v -35.3178 31.3216 -18.8128
v -28.5404 33.9316 -19.1504
v -26.0178 32.5959 -17.5314
v -22.2183 31.0314 -15.8085
v -20.2114 30.2804 -15.4893
v -36.5275 34.5725 -17.4855
v -34.2183 35.2123 -17.4855
v -30.0116 34.9760 -17.6845
v -27.0972 34.6082 -16.4838
v -16.7970 37.5173 -15.8524
v -14.2183 37.6749 -15.7797
v -12.2023 38.2147 -15.5108
v -16.7970 38.8550 -15.8524
v -14.2183 38.7327 -15.7797
v -12.2023 38.2874 -15.5108
v 35.4046 -42.3650 -11.9900
v 36.8461 -42.3650 -11.9900
v 31.6267 -37.7648 -15.4664
v 33.6475 -38.9003 -13.8754
v 38.0203 -39.9718 -12.8679
v 40.7306 -38.7851 -12.1939
v 27.5159 -34.7744 -15.1973
v 30.3380 -35.6392 -13.9985
v 33.4804 -36.9480 -14.0215
v 37.7817 -36.9803 -14.8351
v 41.9510 -36.5591 -13.5105
v 45.5688 -34.6086 -13.1402
v 47.8267 -33.8321 -11.5767
v 27.4424 -31.7519 -15.1506
v 30.1423 -32.0420 -13.1232
v 32.3181 -30.9021 -11.9949
v 39.7480 -29.7910 -15.3452
v 41.7817 -30.3525 -15.0007
v 45.5688 -31.8089 -14.1178
v 48.1551 -31.7519 -12.1553
v 27.5952 -29.5856 -15.3271
v 29.7817 -29.3042 -14.7487
v 33.7036 -29.0544 -13.3911
v 38.1615 -29.1880 -13.8013
v 41.8584 -28.0271 -12.9587
v 46.0057 -27.7644 -14.3241
v 49.3431 -27.6203 -13.7353
v 51.9279 -26.1345 -15.1832
v 42.8315 -23.7519 -12.1323
v 45.8405 -24.2762 -13.2501
v 49.3836 -25.4184 -13.7041
v 51.9279 -25.4809 -15.1832
v 43.0536 -21.3052 -11.9129
v 44.1925 -21.3052 -11.9129
v -28.5386 21.8781 -11.8450
v -27.6819 21.8781 -11.8450
v -28.9048 24.2481 -12.2770
v -26.2964 24.3068 -12.4561
v -23.6323 25.6793 -12.0479
v -36.7792 29.3029 -14.9497
v -34.0841 28.9079 -13.5641
v -30.1753 27.4162 -13.5030
v -26.2183 27.3599 -14.4292
v -22.2667 27.9223 -13.4229
v -19.2979 29.6556 -13.4855
v -36.8316 32.2481 -14.9253
v -34.0841 32.5457 -12.7399
v -32.0708 34.0775 -11.6565
v -24.4306 33.9268 -15.2313
v -22.2183 33.0314 -14.9894
v -18.2714 31.8709 -13.4247
v -16.1054 33.4614 -11.7712
v -36.4751 34.5045 -15.2743
v -34.2183 34.7534 -14.4554
v -30.5298 34.9787 -13.1881
v -25.9456 35.2428 -13.7330
v -22.4071 36.3627 -13.0748
v -18.1655 36.2096 -14.1987
v -14.7349 36.5327 -13.6085
v -12.2023 38.2147 -15.4458
v -21.7091 40.2481 -12.1581
v -18.3876 39.9545 -13.2673
v -14.5060 38.7193 -13.8617
v -12.2023 38.2874 -15.4458
v -21.2246 42.5368 -11.7387
v -19.9782 42.5368 -11.7387
v 35.4046 -42.3650 -10.3826
v 36.8461 -42.3650 -10.3826
v 26.9779 -38.2077 -7.9542
v 28.4685 -38.2077 -7.9542
v 34.7742 -39.9577 -9.2238
v 38.0203 -41.0605 -9.2238
v 41.9510 -38.8932 -9.2420
v 43.8571 -37.8162 -7.7463
v 26.9779 -37.2040 -7.9542
v 30.0922 -35.5207 -9.6568
v 32.9075 -35.4031 -9.8098
v 43.3972 -37.4178 -10.4129
v 45.4269 -36.2340 -9.2420
v 48.0090 -34.1052 -9.4855
v 31.7160 -33.5687 -11.3593
v 33.0047 -32.0420 -9.8098
v 48.6882 -31.7519 -9.4855
v 34.9268 -29.3065 -9.4855
v 37.7817 -28.7200 -9.4855
v 40.6599 -27.1654 -9.4855
v 48.7690 -27.7519 -9.4855
v 39.6231 -22.1951 -7.8339
v 40.8474 -23.6178 -9.2945
v 46.6677 -23.1679 -9.4855
v 48.0898 -25.1679 -9.4855
v 35.5963 -17.9057 -7.5911
v 38.0866 -19.4442 -7.8751
v 41.5463 -19.9457 -9.0907
v 44.6677 -21.0426 -9.4855
v 35.5963 -17.4765 -7.5911
v 37.7817 -17.4120 -7.7112
v 40.0390 -17.5740 -7.6809
v -28.5386 21.8781 -10.6730
v -27.6819 21.8781 -10.6730
v -36.9898 25.9890 -7.7978
v -35.8004 25.9890 -7.7978
v -29.0229 24.2158 -9.3980
v -26.2964 23.5330 -9.3980
v -23.1173 25.3947 -9.4855
v -36.9898 26.7528 -7.7978
v -34.2308 28.2469 -9.2226
v -31.0215 28.3439 -9.3826
v -21.1173 26.9750 -9.4855
v -17.8861 29.0756 -9.7329
v -16.0166 29.9915 -8.5644
v -32.6612 31.4108 -10.6474
v -31.3191 32.5457 -9.3826
v -16.3314 30.7948 -11.2311
v -15.8939 32.1761 -9.7329
v -29.3557 34.6836 -9.4855
v -26.2183 35.9375 -9.4855
v -23.6900 37.5019 -9.4855
v -15.5547 36.2481 -9.4855
v -24.5341 41.5259 -8.5523
v -23.5995 40.2148 -9.7256
v -17.4716 40.9735 -9.4855
v -15.8089 38.9735 -9.4855
v -28.3131 46.1759 -7.5371
v -26.0077 44.6048 -8.3314
v -22.5766 43.9369 -9.4980
v -19.4716 42.7813 -9.4855
v -28.3131 46.4648 -7.5371
v -26.2183 46.5619 -7.7429
v -23.9285 46.4498 -7.7771
v 15.5416 -37.9799 -3.7357
v 17.7817 -37.9587 -3.7083
v 20.2907 -37.7997 -3.5324
v 26.9779 -38.2077 -6.1822
v 28.4685 -38.2077 -6.1822
v 35.1610 -38.7616 -6.4857
v 37.7855 -38.9051 -5.2856
v 41.7777 -38.3378 -5.6595
v 43.8571 -37.8162 -7.1088
v 15.3598 -35.7519 -3.9307
v 17.7817 -35.7519 -4.2933
v 21.6871 -36.0522 -4.3078
v 26.2944 -36.2904 -5.2582
v 28.3781 -36.1298 -5.1101
v 34.7676 -35.8163 -5.2856
v 36.4547 -37.1926 -3.8191
v 43.1084 -37.5713 -4.4422
v 45.4269 -36.3713 -5.6595
v 48.0429 -34.1616 -5.4855
v 15.4593 -33.4600 -3.8289
v 17.7817 -32.9389 -4.0705
v 21.8968 -31.6767 -4.3816
v 25.6080 -31.7480 -4.4512
v 28.2877 -33.0787 -4.0381
v 34.9342 -31.9295 -5.5956
v 36.7090 -30.7146 -4.3357
v 48.5416 -31.7519 -5.4855
v 23.0582 -27.7519 -3.8473
v 24.3863 -27.7519 -3.8473
v 35.4387 -29.5535 -7.0023
v 37.9381 -28.7457 -5.5956
v 40.3284 -26.6429 -5.4855
v 47.5133 -25.9665 -3.6521
v 48.4253 -27.4807 -5.1855
v 23.2919 -25.4589 -3.7979
v 24.2108 -25.4589 -3.7979
v 39.2260 -22.8277 -5.4855
v 40.3284 -24.8277 -5.4855
v 46.8883 -23.6860 -5.1855
v 48.1894 -24.9754 -6.3188
v 31.2413 -18.5647 -4.0394
v 34.0705 -18.5858 -5.4179
v 37.2260 -20.1847 -5.4855
v 42.6295 -18.5586 -5.4855
v 44.8662 -20.5586 -5.4855
v 31.2413 -17.2977 -4.0394
v 34.0705 -17.1892 -5.4179
v 37.7817 -17.0659 -5.4855
v 40.6295 -17.4287 -5.4855
v -36.9898 25.9890 -6.8075
v -35.8004 25.9890 -6.8075
v -28.6439 25.5276 -6.4222
v -26.2183 25.2809 -6.0353
v -23.3363 25.6790 -6.6152
v -48.7156 28.9976 -3.8715
v -46.2183 28.5463 -4.1853
v -42.2183 28.7718 -4.6210
v -37.6918 27.9627 -5.6319
v -35.7105 28.0567 -5.5062
v -29.2736 28.0380 -5.2475
v -26.2183 26.7355 -4.0353
v -22.0891 27.0408 -5.3633
v -17.9293 29.0868 -5.3194
v -16.0166 29.9915 -6.5420
v -48.7156 30.6749 -3.8715
v -45.9417 32.1042 -4.1444
v -42.2183 32.2481 -4.9823
v -38.3107 32.2484 -4.6873
v -35.6206 30.9153 -4.2049
v -29.2167 32.4655 -5.3453
v -27.9165 33.9437 -3.9185
v -16.4033 31.2663 -3.8754
v -15.9473 32.4590 -5.3194
v -44.4240 34.6559 -3.6507
v -42.2580 36.0928 -4.0269
v -39.5060 36.2481 -4.0384
v -28.5490 34.3886 -6.5851
v -26.1729 36.0588 -5.3547
v -23.8659 37.7290 -6.7910
v -17.0173 37.3184 -3.7130
v -15.8531 36.0903 -5.2220
v -40.9512 38.7079 -3.9060
v -39.7811 38.7079 -3.9060
v -24.7471 40.2148 -5.4688
v -23.8659 38.8592 -6.7910
v -17.5210 40.3449 -5.2220
v -15.8596 39.0761 -6.3797
v -32.9329 45.6116 -4.0916
v -29.8752 45.4568 -5.4492
v -26.7210 43.7364 -5.4855
v -21.1245 45.4770 -5.4855
v -19.2473 43.4770 -5.4855
v -32.9329 46.8649 -4.0916
v -29.8752 47.0325 -5.4492
v -26.2183 47.1601 -5.4855
v -23.1245 46.6422 -5.4855
v 15.5416 -37.9799 -2.5755
v 17.8520 -37.9630 -1.3395
v 21.6871 -38.0492 -1.7737
v 24.7982 -38.1236 -0.6326
v 35.4197 -37.8352 0.0172
v 37.7855 -38.1783 -1.3839
v 41.0441 -38.2225 -1.4855
v 15.2944 -35.9298 -1.3395
v 16.5655 -37.3817 0.0912
v 22.9574 -37.5858 -3.2992
v 25.9916 -37.4827 -1.7737
v 29.6853 -35.4399 -1.1744
v 34.1435 -35.6868 -1.1415
v 36.4547 -37.1926 -2.6495
v 43.0441 -37.4057 -1.4855
v 45.9051 -35.1682 -1.6091
v 47.8719 -33.9073 -3.0249
v 15.3527 -33.2247 -1.4855
v 17.9113 -31.2550 -1.5382
v 20.6401 -30.2932 -2.9066
v 26.5956 -30.5911 -1.4855
v 29.6853 -32.7664 -1.1744
v 34.0331 -32.9954 -1.1744
v 37.0781 -30.8773 -1.4855
v 47.3207 -32.9852 -0.3582
v 48.0823 -31.6919 -1.6091
v 19.3776 -27.7519 -0.1761
v 21.8440 -27.0506 -1.2117
v 24.6903 -27.5701 -1.3497
v 39.2007 -27.6090 -1.2363
v 40.1341 -26.1805 -2.4035
v 46.7030 -26.7520 -1.4855
v 48.0898 -28.7520 -1.4855
v 19.6937 -25.6919 0.3480
v 21.7585 -25.5754 -1.1222
v 24.2108 -25.4589 -2.5924
v 39.3763 -23.9466 -1.2363
v 40.1341 -25.4098 -2.4035
v 45.2378 -23.7519 -1.4855
v 31.2413 -18.5647 -2.4699
v 33.5926 -18.8333 -1.2761
v 37.2976 -20.4940 -1.4855
v 43.2349 -18.6212 -1.4855
v 44.3166 -20.6212 -1.4855
v 31.2413 -17.2977 -2.4699
v 33.5926 -16.8763 -1.2761
v 37.7817 -16.5040 -1.4855
v 41.2349 -17.2578 -1.4855
v -28.4765 26.1366 -0.3220
v -26.2183 25.9264 -0.6506
v -23.6122 25.9306 -0.2025
v -48.9281 28.7308 -1.4855
v -46.2183 27.0718 -1.4855
v -42.2183 26.9279 -1.4855
v -38.2183 27.2489 -1.4855
v -34.2596 28.7747 -1.4371
v -29.8550 28.0706 -1.5300
v -26.2183 26.7355 -2.6506
v -22.2546 27.0751 -1.5157
v -18.8762 29.0318 -1.4855
v -48.9281 31.2183 -1.4855
v -47.0316 33.2183 -1.4855
v -37.2955 33.4512 -1.4855
v -34.2596 31.4606 -1.4371
v -30.0274 31.8315 -1.4371
v -27.7987 33.9148 -1.4855
v -16.7655 32.4590 -1.3110
v -16.1944 33.9330 -2.5279
v -45.1902 36.0928 -1.5409
v -42.0585 37.6163 -1.3477
v -39.2178 36.4453 -1.2648
v -26.3961 36.2481 -1.4855
v -17.3953 36.0903 -1.3110
v -16.1944 34.6517 -2.5279
v -44.7538 38.6275 -0.2444
v -42.0585 38.6677 -1.3477
v -39.7811 38.7079 -2.4510
v -24.9089 40.5651 -1.2769
v -22.2183 41.5949 -0.0190
v -19.4510 40.2085 -1.3209
v -32.9329 45.6116 -2.3054
v -30.4690 45.2304 -1.1774
v -26.0310 43.2883 -1.2769
v -21.9060 44.2529 -1.1745
v -19.6793 43.4644 -2.5445
v -32.9329 46.8649 -2.3054
v -30.4690 47.4931 -1.1774
v -26.2183 47.9361 -1.4855
v -22.7498 46.8425 -1.4855
v 15.2714 -38.1020 3.5252
v 18.1312 -37.9650 2.5413
v 21.4342 -38.1880 2.7402
v 25.9916 -38.3031 2.4130
v 29.7817 -38.0342 3.4632
v 34.1459 -37.8477 2.6940
v 37.4203 -38.7071 2.6695
v 41.4193 -38.8834 2.5145
v 15.1306 -35.9298 2.3209
v 18.1312 -37.5391 2.5413
v 19.8691 -37.6964 4.2240
v 27.4649 -37.4990 1.0121
v 29.7817 -36.8840 1.4632
v 34.1459 -37.1269 2.6940
v 35.8460 -37.4061 4.1063
v 43.4193 -37.3412 2.5145
v 45.9051 -35.0273 2.8938
v 47.7886 -33.7585 4.4801
v 15.0777 -31.9053 2.6511
v 16.6643 -30.6743 1.4088
v 26.9679 -30.8074 2.5145
v 29.7817 -32.4676 2.5145
v 33.7817 -32.6955 2.5145
v 37.0619 -31.0353 2.5145
v 47.3207 -32.9852 1.8134
v 48.1555 -31.6919 2.8938
v 15.1831 -29.4714 4.0755
v 18.1790 -27.9966 2.3493
v 21.6478 -26.8240 2.1796
v 24.9679 -28.5148 2.5145
v 38.9657 -27.7519 2.5145
v 43.2751 -25.8441 4.2192
v 45.4798 -27.0597 2.7373
v 48.2438 -29.3175 2.5145
v 19.6937 -25.6919 0.6231
v 20.2252 -25.6919 0.6231
v 39.6669 -24.1065 2.1395
v 41.8777 -24.1065 2.7922
v 43.9324 -23.7519 1.3305
v 34.7998 -18.3182 1.0034
v 38.1439 -19.6917 1.0317
v 42.0205 -19.9026 0.7683
v 43.8193 -21.3365 0.5644
v 34.7998 -16.9551 1.0034
v 37.7817 -16.8500 1.1297
v 40.8463 -17.3461 0.8459
v -48.3611 26.2056 4.3748
v -47.9574 26.2056 4.3748
v -40.8635 26.1034 3.3650
v -38.2183 26.0266 3.3274
v -35.5689 26.0975 4.0812
v -28.5634 26.1308 2.5145
v -26.2183 25.2048 2.5145
v -22.9708 25.3221 2.5145
v -48.8851 28.1845 2.8307
v -46.4617 26.8782 2.8307
v -42.2054 26.5826 2.2248
v -38.2183 26.6269 1.3274
v -34.2287 27.1105 2.6545
v -30.5634 26.9985 2.5145
v -20.9708 26.9113 2.5145
v -19.2439 28.9113 2.5145
v -49.2398 32.3682 2.4657
v -47.7635 33.7816 1.0998
v -37.0795 33.4046 2.5145
v -34.2183 32.0630 2.5145
v -30.2183 32.3988 2.5145
v -27.7861 33.7404 2.5145
v -17.0596 32.2765 2.1492
v -15.9413 33.6287 3.2391
v -48.9522 34.6151 3.7664
v -46.2587 36.1183 2.4593
v -41.9868 37.4345 2.4971
v -39.0795 35.7010 2.5145
v -26.6750 36.2481 2.5145
v -20.2425 38.2337 4.4687
v -18.1329 36.4042 2.5205
v -15.9413 34.5746 3.2391
v -44.7538 38.6275 1.1522
v -43.1658 38.6275 1.1522
v -25.1072 39.4356 2.5145
v -21.8328 39.5585 2.8870
v -20.0128 38.8488 1.8020
v -29.3029 45.7985 0.8421
v -26.2183 45.0059 1.0600
v -23.4290 45.0414 0.9143
v -29.3029 47.2324 0.8421
v -26.2183 47.3379 1.0600
v -23.4290 46.7169 0.9143
v 35.4536 -46.1638 8.2488
v 36.2017 -46.1638 8.2488
v 35.0340 -43.7519 7.9366
v 36.5967 -43.7519 7.9366
v 15.1815 -38.1517 6.5145
v 17.1916 -38.1517 6.5145
v 22.5358 -38.0309 5.1750
v 25.7817 -38.1622 5.8223
v 29.5516 -38.2145 6.7645
v 33.9925 -39.3367 6.2906
v 37.4805 -39.8407 6.2906
v 41.0054 -38.8851 6.5145
v 11.1051 -34.2316 7.8785
v 13.5064 -35.6397 6.5329
v 19.1916 -37.3684 6.5145
v 21.4342 -36.8300 6.5108
v 25.7817 -36.7224 7.8223
v 28.0649 -37.4043 8.2645
v 35.5387 -37.4061 4.5716
v 35.8460 -37.4061 4.5716
v 43.0054 -37.0361 6.5145
v 45.9357 -34.7832 6.1337
v 47.7886 -33.7585 4.5466
v 10.9473 -31.7519 7.7365
v 13.0888 -31.7519 5.7365
v 27.1780 -31.0129 6.5145
v 29.7817 -32.4944 6.5145
v 33.7817 -32.6564 6.5145
v 37.9251 -31.1972 6.5616
v 40.1323 -30.2635 7.9264
v 47.3718 -33.1156 7.2132
v 48.1882 -31.7701 6.1337
v 11.3457 -29.5899 8.1131
v 13.8226 -29.2235 6.6737
v 17.7817 -28.3630 6.5145
v 21.7817 -27.8218 6.5145
v 25.1780 -28.6716 6.5145
v 39.3875 -27.7519 5.1701
v 41.7037 -27.2283 6.2849
v 45.7817 -27.4295 6.5145
v 48.2847 -29.2150 6.5145
v 39.6837 -25.6762 4.6433
v 40.6084 -25.6762 4.6433
v -28.3074 18.1758 8.4590
v -28.1414 18.1758 8.4590
v -28.6150 20.2481 8.2709
v -27.9366 20.2481 8.2709
v -48.3611 26.2056 4.8616
v -47.9574 26.2056 4.8616
v -40.8635 26.1034 4.8140
v -38.2183 26.0266 5.1969
v -34.2821 25.9237 6.4124
v -29.8725 24.6432 6.6393
v -26.4391 23.9387 6.7529
v -23.2818 25.3951 6.5145
v -52.6738 30.0189 8.2095
v -49.8827 28.2377 6.5355
v -46.4617 27.0378 6.3227
v -41.9703 28.1353 6.5126
v -38.5066 28.1116 7.2784
v -34.2821 26.6370 6.4124
v -31.0868 26.5868 5.0333
v -21.2818 27.2125 6.5145
v -19.2113 29.2125 6.5145
v -53.0245 32.2481 7.9891
v -51.1583 32.2481 5.9891
v -40.4105 30.4104 8.2111
v -38.3249 32.0253 7.2416
v -34.2183 32.0269 6.5145
v -30.2183 32.2524 6.5145
v -26.4271 33.4435 6.7925
v -24.0165 33.9554 8.3112
v -17.0244 32.2765 6.8919
v -15.9413 33.6287 5.8102
v -52.8377 34.4009 8.1189
v -50.2586 34.9261 6.6772
v -46.2183 35.9549 6.5145
v -42.2183 36.6873 6.5145
v -39.0445 35.7134 6.5145
v -25.4291 36.2481 5.8836
v -22.1295 36.8659 6.7605
v -17.8300 35.9853 6.8919
v -15.9413 34.5746 5.8102
v -24.8180 38.6364 5.2099
v -22.9091 38.6364 5.2099
v 35.4420 -46.1822 10.5145
v 36.2000 -46.1822 10.5145
v 34.6811 -43.7519 10.5145
v 36.8748 -43.7519 10.5145
v 15.0971 -38.2241 10.5145
v 16.6297 -38.2241 10.5145
v 30.9430 -38.1480 10.5145
v 33.0209 -40.1480 10.5145
v 38.4566 -40.2680 10.5145
v 40.4600 -38.2680 10.5145
v 10.6536 -34.7007 10.5145
v 13.0971 -36.7007 10.5145
v 18.6297 -36.8258 10.5145
v 21.7817 -35.2177 10.5145
v 25.4811 -34.6568 10.2415
v 29.8892 -36.1042 10.3690
v 32.7916 -34.8041 12.0119
v 42.4600 -36.6057 10.5145
v 44.6216 -34.6057 10.5145
v 9.9961 -31.7519 10.5145
v 19.2530 -30.4509 11.9862
v 21.7817 -31.0962 11.6234
v 25.6920 -31.9983 10.2904
v 29.7817 -33.0518 9.2963
v 33.9876 -33.1401 10.6129
v 37.7817 -32.5285 10.5145
v 41.5921 -31.1368 10.7879
v 45.8009 -31.4769 11.2812
v 48.0070 -30.3312 10.5145
v 11.1242 -29.3982 10.5145
v 13.7817 -28.4936 10.5145
v 17.8645 -28.6865 10.5975
v 21.7817 -28.7544 9.6234
v 24.7700 -28.9915 9.1880
v 42.7990 -28.6125 9.6369
v 45.9367 -28.8117 10.7879
v 48.0070 -29.4313 10.5145
v -28.3074 18.1758 9.2580
v -28.1414 18.1758 9.2580
v -28.5821 20.3757 10.5606
v -27.9742 20.3757 10.5606
v -32.9872 25.4989 10.5145
v -30.6062 23.4989 10.5145
v -25.7096 24.5160 10.7166
v -24.0269 26.0279 9.5180
v -53.2525 29.2025 10.5145
v -50.2183 27.3691 10.5145
v -46.2183 27.6225 10.5145
v -41.9336 29.5157 10.3641
v -38.6888 29.7189 10.2814
v -34.5631 28.1116 10.3851
v -24.3671 26.3994 12.1847
v -22.5035 27.6238 10.7166
v -19.6745 29.8543 10.5145
v -54.2570 32.2481 10.5145
v -44.7830 33.6850 11.9426
v -41.4435 31.9041 10.4179
v -38.9438 31.5169 9.8914
v -33.9480 31.1108 10.3851
v -30.2183 31.4961 10.5145
v -26.2183 32.0931 10.5145
v -23.1746 33.3889 10.5145
v -18.4338 32.2481 10.5145
v -53.2228 34.8028 10.5145
v -50.2183 35.8920 10.5145
v -46.1571 35.4746 10.5714
v -42.2183 35.4508 9.5333
v -39.4538 35.2598 9.1115
v -21.1746 35.3255 10.5145
v -18.9775 35.3255 10.5145
v 35.6569 -45.9137 12.5974
v 35.9194 -45.9137 12.5974
v 35.4288 -43.7519 12.6922
v 36.0599 -43.7519 12.6922
v 15.1587 -38.1985 13.3722
v 16.2810 -38.1985 13.3722
v 31.7135 -37.8854 12.5872
v 33.9743 -39.4320 13.0396
v 37.5216 -39.4515 13.0957
v 40.2149 -37.9179 12.6807
v 3.5659 -34.5749 15.7700
v 5.7817 -35.1070 15.3224
v 9.6852 -35.3802 14.4075
v 13.8079 -36.8657 14.6291
v 17.4976 -35.7590 14.4545
v 21.7817 -34.3284 12.8591
v 23.9473 -33.9661 12.6184
v 31.7135 -37.4708 12.5872
v 33.9876 -35.9832 13.0042
v 37.7817 -35.7519 13.2953
v 41.6416 -35.6476 12.7799
v 43.9782 -34.2448 12.6593
v 3.5659 -33.5354 15.7700
v 5.9651 -32.0220 15.2295
v 8.8305 -31.7519 13.4666
v 18.2238 -31.7713 14.3278
v 21.7817 -33.0962 12.8591
v 23.9473 -33.5120 12.6184
v 35.4583 -33.6746 12.6095
v 37.7817 -33.6019 12.6843
v 41.7817 -33.0994 12.7217
v 45.6757 -31.4159 12.6090
v 47.8290 -29.8272 12.5587
v 7.4206 -29.3504 15.9623
v 9.9173 -29.0088 14.5832
v 13.7817 -28.3697 14.5145
v 16.6351 -28.9974 14.5145
v 47.3733 -29.6755 12.5587
v 47.8290 -29.6755 12.5587
v -28.2956 21.7942 12.5384
v -28.1871 21.7942 12.5384
v -32.4666 25.7473 12.8142
v -29.8647 24.3476 13.0348
v -27.3065 24.2481 12.9400
v -60.7393 29.5291 15.2954
v -58.2183 29.1737 14.8714
v -54.3724 28.4907 14.3315
v -49.9683 28.1271 14.6989
v -46.2183 28.8974 13.5185
v -42.2183 29.7639 12.8787
v -40.0121 30.0839 12.6355
v -32.5667 28.2481 12.8685
v -30.2183 28.2481 13.3864
v -25.9076 27.9389 13.1682
v -22.2183 29.3092 12.8418
v -20.1779 30.1783 12.5519
v -60.7393 30.7701 15.2954
v -58.1264 32.1613 14.7796
v -55.4508 32.2481 13.2603
v -48.4683 30.7861 16.1552
v -46.3911 32.2355 14.5172
v -42.2183 31.0244 12.8787
v -40.0121 30.5129 12.6355
v -32.4345 30.3805 12.6867
v -30.2183 30.4350 12.7540
v -26.2183 30.6961 12.9241
v -21.9044 32.1364 12.8225
v -19.9327 32.2481 12.6002
v -56.7318 34.8290 15.8139
v -54.2502 35.2396 14.4941
v -50.2183 35.8332 14.5145
v -47.4775 35.0295 14.5145
v -20.3617 34.4347 12.5914
v -19.8778 34.4347 12.5914
v 3.5659 -34.5749 16.8321
v 5.8425 -35.3763 18.3050
v 9.7817 -35.9977 18.5145
v 13.4551 -34.8937 18.2785
v 16.0475 -34.5450 16.7878
v 3.5659 -33.5354 16.8321
v 5.9851 -31.9830 18.2996
v 9.7817 -30.8899 19.7123
v 13.4551 -31.8551 19.1592
v 16.2309 -31.7519 17.0620
v 7.4206 -29.3504 17.1005
v 9.7817 -29.0552 17.7123
v 13.7817 -29.1778 17.6154
v 16.1149 -29.5137 16.9712
v -60.7393 29.5291 17.2903
v -58.3780 28.9080 18.5800
v -53.8444 28.7091 18.8842
v -51.1350 29.1976 17.7974
v -60.7393 30.7701 17.2903
v -58.2748 32.3158 18.6274
v -53.8444 32.4162 20.0218
v -49.9683 32.1709 18.1384
v -47.9992 33.4528 16.8254
v -56.7318 34.8290 17.2978
v -54.2183 35.0474 17.9365
v -50.2183 34.7615 17.5822
v -47.9992 34.4478 16.8254
v 7.2163 -34.6524 21.0827
v 9.7817 -34.5513 21.0098
v 11.9040 -33.9173 20.6066
v 7.2163 -33.0973 21.0827
v 9.7817 -32.8899 21.0098
v 11.9040 -33.2572 20.6066
v -57.1511 29.4471 21.3200
v -54.9285 29.4471 21.3200
v -57.1511 31.1949 21.3200
v -54.9285 31.1949 21.3200
f 3 2 1
f 3 4 2
f 8 3 7
f 8 4 3
f 9 4 8
f 9 5 4
f 11 6 10
f 11 7 6
f 12 7 11
f 12 8 7
f 15 14 13
f 15 16 14
f 20 15 19
f 20 16 15
f 20 17 16
f 20 21 17
f 23 18 22
f 23 19 18
f 24 19 23
f 24 20 19
f 26 1 2
f 26 25 1
f 25 3 1
f 25 28 3
f 29 26 2
f 29 2 4
f 5 29 4
f 5 30 29
f 34 3 28
f 34 7 3
f 34 6 7
f 34 33 6
f 34 27 33
f 34 28 27
f 30 5 9
f 30 9 36
f 9 8 35
f 9 35 36
f 36 31 30
f 36 37 31
f 38 31 37
f 38 32 31
f 39 6 33
f 39 10 6
f 40 11 10
f 40 10 39
f 35 8 12
f 35 12 41
f 12 11 40
f 12 40 41
f 42 35 41
f 42 36 35
f 46 44 43
f 46 47 44
f 47 45 44
f 47 48 45
f 14 49 13
f 14 50 49
f 49 15 13
f 49 52 15
f 50 14 16
f 50 16 53
f 53 52 49
f 53 49 50
f 17 53 16
f 17 54 53
f 58 15 52
f 58 19 15
f 58 18 19
f 58 57 18
f 58 51 57
f 58 52 51
f 54 17 21
f 54 21 60
f 21 20 59
f 21 59 60
f 61 54 60
f 61 55 54
f 62 55 61
f 62 56 55
f 63 18 57
f 63 22 18
f 64 23 22
f 64 22 63
f 59 20 24
f 59 24 65
f 24 23 64
f 24 64 65
f 66 59 65
f 66 60 59
f 70 68 67
f 70 71 68
f 71 69 68
f 71 72 69
f 26 75 25
f 26 76 75
f 77 73 76
f 77 74 73
f 75 28 25
f 75 80 28
f 28 79 27
f 28 80 79
f 81 76 26
f 81 26 29
f 81 80 75
f 81 75 76
f 82 29 30
f 82 81 29
f 82 76 81
f 82 77 76
f 31 82 30
f 31 83 82
f 82 78 77
f 82 83 78
f 32 83 31
f 32 84 83
f 86 27 79
f 86 33 27
f 87 86 79
f 87 79 80
f 37 36 89
f 37 89 90
f 91 84 32
f 91 32 38
f 38 37 90
f 38 90 91
f 91 85 84
f 91 92 85
f 93 33 86
f 93 39 33
f 40 39 93
f 40 93 94
f 94 93 86
f 94 86 87
f 41 40 94
f 41 94 95
f 94 87 88
f 94 88 95
f 89 36 42
f 89 42 96
f 42 41 95
f 42 95 96
f 97 89 96
f 97 90 89
f 98 90 97
f 98 91 90
f 99 43 44
f 99 98 43
f 98 92 91
f 98 99 92
f 100 44 45
f 100 99 44
f 98 46 43
f 98 102 46
f 102 97 101
f 102 98 97
f 103 47 46
f 103 46 102
f 100 45 48
f 100 48 104
f 104 48 47
f 104 47 103
f 103 99 100
f 103 100 104
f 106 101 105
f 106 102 101
f 109 108 107
f 109 110 108
f 113 51 52
f 113 112 51
f 114 52 53
f 114 113 52
f 115 53 54
f 115 114 53
f 115 109 114
f 115 110 109
f 55 115 54
f 55 116 115
f 115 111 110
f 115 116 111
f 56 116 55
f 56 117 116
f 118 51 112
f 118 57 51
f 118 112 113
f 118 113 119
f 61 60 121
f 61 121 122
f 117 56 62
f 117 62 123
f 62 61 122
f 62 122 123
f 125 57 118
f 125 63 57
f 64 63 125
f 64 125 126
f 126 125 118
f 126 118 119
f 65 64 126
f 65 126 127
f 126 119 120
f 126 120 127
f 121 60 66
f 121 66 128
f 66 65 127
f 66 127 128
f 129 121 128
f 129 122 121
f 130 122 129
f 130 123 122
f 131 67 68
f 131 130 67
f 130 124 123
f 130 131 124
f 132 68 69
f 132 131 68
f 130 70 67
f 130 134 70
f 134 129 133
f 134 130 129
f 135 71 70
f 135 70 134
f 132 69 72
f 132 72 136
f 136 72 71
f 136 71 135
f 135 131 132
f 135 132 136
f 138 133 137
f 138 134 133
f 74 139 73
f 74 140 139
f 143 73 139
f 143 76 73
f 144 140 74
f 144 74 77
f 144 143 139
f 144 139 140
f 78 144 77
f 78 145 144
f 147 142 141
f 147 148 142
f 149 76 143
f 149 81 76
f 149 80 81
f 149 148 80
f 150 145 78
f 150 78 83
f 84 150 83
f 84 151 150
f 150 146 145
f 150 151 146
f 85 151 84
f 85 152 151
f 153 80 148
f 153 87 80
f 88 87 153
f 88 153 154
f 153 148 149
f 153 149 154
f 155 152 85
f 155 85 92
f 156 88 154
f 156 95 88
f 96 95 156
f 96 156 157
f 158 97 96
f 158 96 157
f 159 155 92
f 159 92 99
f 158 101 97
f 158 161 101
f 159 99 103
f 159 103 163
f 163 103 102
f 163 102 162
f 161 105 101
f 161 166 105
f 166 160 165
f 166 161 160
f 162 102 106
f 162 106 167
f 167 106 105
f 167 105 166
f 169 164 168
f 169 165 164
f 170 165 169
f 170 166 165
f 108 171 107
f 108 172 171
f 171 109 107
f 171 175 109
f 176 172 108
f 176 108 110
f 175 171 172
f 175 172 176
f 111 176 110
f 111 177 176
f 178 174 173
f 178 179 174
f 175 114 109
f 175 180 114
f 180 113 114
f 180 179 113
f 181 177 111
f 181 111 116
f 117 181 116
f 117 182 181
f 184 113 179
f 184 119 113
f 120 119 184
f 120 184 185
f 184 179 180
f 184 180 185
f 186 182 117
f 186 117 123
f 124 186 123
f 124 187 186
f 186 183 182
f 186 187 183
f 188 120 185
f 188 127 120
f 128 127 188
f 128 188 189
f 129 128 189
f 129 189 190
f 191 187 124
f 191 124 131
f 190 133 129
f 190 193 133
f 195 191 131
f 195 131 135
f 195 135 134
f 195 134 194
f 193 137 133
f 193 198 137
f 198 192 197
f 198 193 192
f 194 134 138
f 194 138 199
f 199 138 137
f 199 137 198
f 201 196 200
f 201 197 196
f 202 197 201
f 202 198 197
f 142 206 141
f 142 207 206
f 144 208 143
f 144 209 208
f 145 209 144
f 145 210 209
f 146 210 145
f 146 211 210
f 213 203 212
f 213 204 203
f 213 205 204
f 213 214 205
f 206 147 141
f 206 215 147
f 216 207 142
f 216 142 148
f 216 148 147
f 216 147 215
f 216 215 206
f 216 206 207
f 208 149 143
f 208 217 149
f 218 217 208
f 218 208 209
f 220 211 146
f 220 146 151
f 219 210 211
f 219 211 220
f 221 151 152
f 221 220 151
f 222 213 212
f 222 223 213
f 223 214 213
f 223 224 214
f 225 214 224
f 225 215 214
f 226 215 225
f 226 216 215
f 227 149 217
f 227 154 149
f 229 221 152
f 229 152 155
f 231 224 230
f 231 225 224
f 232 154 227
f 232 156 154
f 157 156 232
f 157 232 233
f 232 227 228
f 232 228 233
f 158 157 233
f 158 233 234
f 229 155 159
f 229 159 236
f 237 231 230
f 237 238 231
f 240 158 234
f 240 161 158
f 240 160 161
f 240 239 160
f 242 236 159
f 242 159 163
f 242 163 162
f 242 162 241
f 242 241 235
f 242 235 236
f 245 160 239
f 245 165 160
f 245 164 165
f 245 244 164
f 247 241 162
f 247 162 167
f 247 167 166
f 247 166 246
f 249 164 244
f 249 168 164
f 248 244 243
f 248 249 244
f 250 169 168
f 250 168 249
f 246 166 170
f 246 170 251
f 170 169 250
f 170 250 251
f 174 252 173
f 174 253 252
f 176 254 175
f 176 255 254
f 256 176 177
f 256 255 176
f 252 178 173
f 252 260 178
f 261 253 174
f 261 174 179
f 261 179 178
f 261 178 260
f 261 260 252
f 261 252 253
f 254 180 175
f 254 262 180
f 263 262 254
f 263 254 255
f 256 177 181
f 256 181 264
f 263 255 256
f 263 256 264
f 265 181 182
f 265 264 181
f 266 182 183
f 266 265 182
f 267 258 257
f 267 268 258
f 268 259 258
f 268 269 259
f 270 259 269
f 270 260 259
f 271 260 270
f 271 261 260
f 272 180 262
f 272 185 180
f 266 183 187
f 266 187 275
f 274 265 266
f 274 266 275
f 276 269 268
f 276 277 269
f 278 269 277
f 278 270 269
f 279 185 272
f 279 188 185
f 189 188 279
f 189 279 280
f 279 272 273
f 279 273 280
f 281 190 189
f 281 189 280
f 275 187 191
f 275 191 283
f 284 278 277
f 284 285 278
f 287 190 281
f 287 193 190
f 287 192 193
f 287 286 192
f 286 281 280
f 286 287 281
f 289 283 191
f 289 191 195
f 289 195 194
f 289 194 288
f 289 288 282
f 289 282 283
f 292 192 286
f 292 197 192
f 292 196 197
f 292 291 196
f 294 288 194
f 294 194 199
f 199 198 293
f 199 293 294
f 296 196 291
f 296 200 196
f 295 291 290
f 295 296 291
f 297 201 200
f 297 200 296
f 293 198 202
f 293 202 298
f 202 201 297
f 202 297 298
f 204 299 203
f 204 300 299
f 205 300 204
f 205 301 300
f 305 209 210
f 305 304 209
f 299 212 203
f 299 306 212
f 307 306 299
f 307 299 300
f 308 301 205
f 308 205 214
f 215 308 214
f 215 309 308
f 308 302 301
f 308 309 302
f 216 309 215
f 216 310 309
f 304 218 209
f 304 312 218
f 312 217 218
f 312 311 217
f 312 303 311
f 312 304 303
f 305 210 219
f 305 219 313
f 314 219 220
f 314 313 219
f 315 220 221
f 315 314 220
f 306 222 212
f 306 316 222
f 223 222 316
f 223 316 317
f 318 224 223
f 318 223 317
f 310 216 226
f 310 226 320
f 226 225 319
f 226 319 320
f 321 217 311
f 321 227 217
f 321 310 320
f 321 311 310
f 228 227 321
f 228 321 322
f 315 221 229
f 315 229 324
f 323 314 315
f 323 315 324
f 318 230 224
f 318 326 230
f 325 318 317
f 325 326 318
f 319 225 231
f 319 231 327
f 322 233 228
f 322 328 233
f 234 233 328
f 234 328 329
f 331 324 229
f 331 229 236
f 331 236 235
f 331 235 330
f 326 237 230
f 326 333 237
f 332 326 325
f 332 333 326
f 334 327 231
f 334 231 238
f 334 238 237
f 334 237 333
f 334 333 326
f 334 326 327
f 336 234 329
f 336 240 234
f 336 239 240
f 336 335 239
f 335 329 328
f 335 336 329
f 337 330 235
f 337 235 241
f 339 243 244
f 339 338 243
f 340 239 335
f 340 245 239
f 340 244 245
f 340 339 244
f 337 241 247
f 337 247 342
f 247 246 341
f 247 341 342
f 338 248 243
f 338 343 248
f 344 249 248
f 344 248 343
f 343 338 339
f 343 339 344
f 345 250 249
f 345 249 344
f 346 341 246
f 346 246 251
f 251 250 345
f 251 345 346
f 258 350 257
f 258 351 350
f 352 258 259
f 352 351 258
f 353 259 260
f 353 352 259
f 261 353 260
f 261 354 353
f 356 262 263
f 356 355 262
f 356 347 355
f 356 348 347
f 357 263 264
f 357 356 263
f 356 349 348
f 356 357 349
f 358 264 265
f 358 357 264
f 350 267 257
f 350 359 267
f 360 268 267
f 360 267 359
f 354 261 271
f 354 271 362
f 271 270 361
f 271 361 362
f 363 262 355
f 363 272 262
f 363 354 362
f 363 355 354
f 273 272 363
f 273 363 364
f 358 265 274
f 358 274 365
f 366 274 275
f 366 365 274
f 360 276 268
f 360 367 276
f 277 276 367
f 277 367 368
f 361 270 278
f 361 278 369
f 370 273 364
f 370 280 273
f 366 275 283
f 366 283 372
f 372 283 282
f 372 282 371
f 372 371 365
f 372 365 366
f 368 284 277
f 368 374 284
f 373 368 367
f 373 374 368
f 375 369 278
f 375 278 285
f 375 285 284
f 375 284 374
f 375 374 368
f 375 368 369
f 370 286 280
f 370 376 286
f 378 371 282
f 378 282 288
f 380 290 291
f 380 379 290
f 381 286 376
f 381 292 286
f 292 380 291
f 292 381 380
f 381 376 377
f 381 377 382
f 383 378 288
f 383 288 294
f 383 294 293
f 383 293 382
f 383 382 377
f 383 377 378
f 379 295 290
f 379 384 295
f 385 296 295
f 385 295 384
f 384 379 380
f 384 380 385
f 386 297 296
f 386 296 385
f 387 382 293
f 387 293 298
f 298 297 386
f 298 386 387
f 390 300 301
f 390 389 300
f 302 390 301
f 302 391 390
f 394 303 304
f 394 393 303
f 395 304 305
f 395 394 304
f 389 307 300
f 389 397 307
f 307 396 306
f 307 397 396
f 397 388 396
f 397 389 388
f 398 397 389
f 398 389 390
f 399 391 302
f 399 302 309
f 310 399 309
f 310 400 399
f 399 392 391
f 399 400 392
f 401 303 393
f 401 311 303
f 311 400 310
f 311 401 400
f 401 392 400
f 401 393 392
f 402 401 393
f 402 393 394
f 395 305 313
f 395 313 403
f 314 403 313
f 314 404 403
f 396 316 306
f 396 406 316
f 407 317 316
f 407 316 406
f 320 319 408
f 320 408 409
f 410 321 320
f 410 320 409
f 411 322 321
f 411 321 410
f 404 314 323
f 404 323 412
f 413 323 324
f 413 412 323
f 412 405 404
f 412 413 405
f 407 325 317
f 407 415 325
f 414 407 406
f 414 415 407
f 417 408 319
f 417 319 327
f 327 326 416
f 327 416 417
f 418 322 411
f 418 328 322
f 421 413 324
f 421 324 331
f 421 331 330
f 421 330 420
f 422 325 415
f 422 332 325
f 423 416 326
f 423 326 333
f 423 333 332
f 423 332 422
f 422 415 416
f 422 416 423
f 424 328 418
f 424 335 328
f 426 420 330
f 426 330 337
f 426 425 419
f 426 419 420
f 428 335 424
f 428 340 335
f 340 427 339
f 340 428 427
f 429 428 424
f 429 424 425
f 430 426 337
f 430 337 342
f 342 341 429
f 342 429 430
f 430 429 425
f 430 425 426
f 427 344 339
f 427 431 344
f 345 344 431
f 345 431 432
f 432 431 427
f 432 427 428
f 429 341 346
f 429 346 433
f 433 346 345
f 433 345 432
f 433 432 428
f 433 428 429
f 440 347 348
f 440 439 347
f 349 440 348
f 349 441 440
f 351 442 350
f 351 443 442
f 443 434 442
f 443 435 434
f 444 351 352
f 444 443 351
f 445 352 353
f 445 444 352
f 445 436 444
f 445 437 436
f 354 445 353
f 354 446 445
f 445 438 437
f 445 446 438
f 447 347 439
f 447 355 347
f 447 354 355
f 447 446 354
f 448 441 349
f 448 349 357
f 358 448 357
f 358 449 448
f 442 359 350
f 442 450 359
f 451 360 359
f 451 359 450
f 362 361 452
f 362 452 453
f 454 363 362
f 454 362 453
f 364 363 454
f 364 454 455
f 456 449 358
f 456 358 365
f 451 367 360
f 451 459 367
f 458 451 450
f 458 459 451
f 461 452 361
f 461 361 369
f 369 368 460
f 369 460 461
f 462 364 455
f 462 370 364
f 456 365 371
f 456 371 464
f 465 456 464
f 465 457 456
f 466 367 459
f 466 373 367
f 467 460 368
f 467 368 374
f 467 374 373
f 467 373 466
f 466 459 460
f 466 460 467
f 468 370 462
f 468 376 370
f 377 376 468
f 377 468 469
f 470 464 371
f 470 371 378
f 470 378 377
f 470 377 469
f 470 469 463
f 470 463 464
f 381 471 380
f 381 472 471
f 473 381 382
f 473 472 381
f 471 385 380
f 471 474 385
f 386 385 474
f 386 474 475
f 475 474 471
f 475 471 472
f 473 382 387
f 473 387 476
f 476 387 386
f 476 386 475
f 476 475 472
f 476 472 473
f 480 477 479
f 480 478 477
f 482 388 389
f 482 481 388
f 391 483 390
f 391 484 483
f 392 484 391
f 392 485 484
f 486 392 393
f 486 485 392
f 487 479 486
f 487 480 479
f 488 394 395
f 488 487 394
f 490 388 481
f 490 396 388
f 482 389 397
f 482 397 491
f 483 398 390
f 483 492 398
f 398 491 397
f 398 492 491
f 493 492 483
f 493 483 484
f 494 493 484
f 494 484 485
f 495 486 393
f 495 393 401
f 496 394 487
f 496 402 394
f 402 495 401
f 402 496 495
f 496 486 495
f 496 487 486
f 497 488 395
f 497 395 403
f 404 497 403
f 404 498 497
f 405 498 404
f 405 499 498
f 490 406 396
f 490 501 406
f 501 489 500
f 501 490 489
f 409 408 502
f 409 502 503
f 504 410 409
f 504 409 503
f 411 410 504
f 411 504 505
f 508 499 405
f 508 405 413
f 507 498 499
f 507 499 508
f 501 414 406
f 501 510 414
f 509 501 500
f 509 510 501
f 511 415 414
f 511 414 510
f 512 416 415
f 512 415 511
f 513 502 408
f 513 408 417
f 417 416 512
f 417 512 513
f 514 411 505
f 514 418 411
f 514 505 506
f 514 506 515
f 516 420 419
f 516 419 515
f 508 413 421
f 508 421 517
f 421 420 516
f 421 516 517
f 518 418 514
f 518 424 418
f 519 515 419
f 519 419 425
f 519 425 424
f 519 424 518
f 519 518 514
f 519 514 515
f 523 520 522
f 523 521 520
f 435 524 434
f 435 525 524
f 437 526 436
f 437 527 526
f 438 527 437
f 438 528 527
f 530 439 440
f 530 529 439
f 530 522 529
f 530 523 522
f 531 440 441
f 531 530 440
f 524 442 434
f 524 533 442
f 534 525 435
f 534 435 443
f 534 533 524
f 534 524 525
f 526 444 436
f 526 535 444
f 444 534 443
f 444 535 534
f 536 535 526
f 536 526 527
f 537 528 438
f 537 438 446
f 537 536 527
f 537 527 528
f 538 439 529
f 538 447 439
f 538 446 447
f 538 537 446
f 538 528 537
f 538 529 528
f 539 531 441
f 539 441 448
f 449 539 448
f 449 540 539
f 542 442 533
f 542 450 442
f 542 532 541
f 542 533 532
f 543 535 536
f 543 536 544
f 545 453 452
f 545 452 544
f 546 454 453
f 546 453 545
f 455 454 546
f 455 546 547
f 540 449 456
f 540 456 549
f 457 549 456
f 457 550 549
f 542 458 450
f 542 552 458
f 551 542 541
f 551 552 542
f 553 459 458
f 553 458 552
f 554 460 459
f 554 459 553
f 555 544 452
f 555 452 461
f 461 460 554
f 461 554 555
f 556 455 547
f 556 462 455
f 556 547 548
f 556 548 557
f 558 464 463
f 558 463 557
f 550 457 465
f 550 465 559
f 465 464 558
f 465 558 559
f 559 558 549
f 559 549 550
f 560 462 556
f 560 468 462
f 561 557 463
f 561 463 469
f 561 469 468
f 561 468 560
f 561 560 556
f 561 556 557
f 563 477 478
f 563 562 477
f 564 477 562
f 564 479 477
f 565 563 478
f 565 478 480
f 567 481 482
f 567 566 481
f 569 479 564
f 569 486 479
f 486 568 485
f 486 569 568
f 570 565 480
f 570 480 487
f 488 570 487
f 488 571 570
f 573 481 566
f 573 490 481
f 573 489 490
f 573 572 489
f 574 567 482
f 574 482 491
f 492 574 491
f 492 575 574
f 493 575 492
f 493 576 575
f 568 494 485
f 568 577 494
f 494 576 493
f 494 577 576
f 579 571 488
f 579 488 497
f 580 497 498
f 580 579 497
f 581 489 572
f 581 500 489
f 585 503 502
f 585 502 584
f 585 584 576
f 585 576 577
f 504 503 585
f 504 585 586
f 585 577 578
f 585 578 586
f 587 505 504
f 587 504 586
f 506 505 587
f 506 587 588
f 580 498 507
f 580 507 589
f 590 507 508
f 590 589 507
f 581 509 500
f 581 591 509
f 592 510 509
f 592 509 591
f 511 510 592
f 511 592 593
f 594 512 511
f 594 511 593
f 594 593 582
f 594 582 583
f 595 584 502
f 595 502 513
f 595 513 512
f 595 512 594
f 595 594 583
f 595 583 584
f 596 506 588
f 596 515 506
f 516 515 596
f 516 596 597
f 596 588 589
f 596 589 597
f 590 508 517
f 590 517 598
f 517 516 597
f 517 597 598
f 521 599 520
f 521 600 599
f 599 522 520
f 599 601 522
f 600 521 523
f 600 523 602
f 602 601 599
f 602 599 600
f 604 522 601
f 604 529 522
f 529 603 528
f 529 604 603
f 605 602 523
f 605 523 530
f 606 530 531
f 606 605 530
f 608 532 533
f 608 607 532
f 609 533 534
f 609 608 533
f 535 609 534
f 535 610 609
f 603 537 528
f 603 612 537
f 612 536 537
f 612 611 536
f 606 531 539
f 606 539 614
f 613 605 606
f 613 606 614
f 615 539 540
f 615 614 539
f 616 532 607
f 616 541 532
f 610 535 543
f 610 543 618
f 611 544 536
f 611 619 544
f 619 543 544
f 619 618 543
f 618 611 610
f 618 619 611
f 620 545 544
f 620 544 619
f 620 619 611
f 620 611 612
f 546 545 620
f 546 620 621
f 547 546 621
f 547 621 622
f 548 547 622
f 548 622 623
f 624 615 540
f 624 540 549
f 616 551 541
f 616 625 551
f 626 552 551
f 626 551 625
f 553 552 626
f 553 626 627
f 628 554 553
f 628 553 627
f 628 627 617
f 628 617 618
f 629 619 544
f 629 544 555
f 629 555 554
f 629 554 628
f 629 628 618
f 629 618 619
f 630 548 623
f 630 557 548
f 631 624 549
f 631 549 558
f 558 557 630
f 558 630 631
f 633 562 563
f 633 632 562
f 632 564 562
f 632 634 564
f 633 563 565
f 633 565 635
f 635 634 632
f 635 632 633
f 637 566 567
f 637 636 566
f 634 569 564
f 634 639 569
f 569 638 568
f 569 639 638
f 635 565 570
f 635 570 640
f 640 639 634
f 640 634 635
f 641 570 571
f 641 640 570
f 636 573 566
f 636 645 573
f 573 644 572
f 573 645 644
f 637 567 574
f 637 574 646
f 645 636 637
f 645 637 646
f 647 574 575
f 647 646 574
f 648 575 576
f 648 647 575
f 649 568 638
f 649 577 568
f 578 577 649
f 578 649 650
f 650 649 638
f 650 638 639
f 650 639 640
f 650 640 651
f 641 571 579
f 641 579 652
f 651 640 641
f 651 641 652
f 653 579 580
f 653 652 579
f 654 643 642
f 654 655 643
f 656 572 644
f 656 581 572
f 656 643 655
f 656 644 643
f 658 583 582
f 658 582 657
f 657 646 647
f 657 647 658
f 659 648 576
f 659 576 584
f 659 584 583
f 659 583 658
f 659 658 647
f 659 647 648
f 660 578 650
f 660 586 578
f 587 586 660
f 587 660 661
f 660 650 651
f 660 651 661
f 662 588 587
f 662 587 661
f 661 651 652
f 661 652 662
f 653 580 589
f 653 589 663
f 663 589 588
f 663 588 662
f 662 652 653
f 662 653 663
f 664 589 590
f 664 663 589
f 656 591 581
f 656 666 591
f 665 656 655
f 665 666 656
f 667 592 591
f 667 591 666
f 668 657 582
f 668 582 593
f 668 593 592
f 668 592 667
f 669 589 663
f 669 597 589
f 664 590 598
f 664 598 670
f 598 597 669
f 598 669 670
f 669 663 664
f 669 664 670
f 602 671 601
f 602 672 671
f 671 604 601
f 671 674 604
f 604 673 603
f 604 674 673
f 672 602 605
f 672 605 675
f 675 674 671
f 675 671 672
f 679 607 608
f 679 678 607
f 680 608 609
f 680 679 608
f 681 609 610
f 681 680 609
f 682 610 611
f 682 681 610
f 683 603 673
f 683 612 603
f 684 683 673
f 684 673 674
f 675 605 613
f 675 613 685
f 684 674 675
f 684 675 685
f 686 613 614
f 686 685 613
f 615 686 614
f 615 687 686
f 688 677 676
f 688 689 677
f 690 607 678
f 690 616 607
f 690 677 689
f 690 678 677
f 691 679 680
f 691 680 692
f 693 618 617
f 693 617 692
f 693 692 680
f 693 680 681
f 694 682 611
f 694 611 619
f 694 619 618
f 694 618 693
f 694 693 681
f 694 681 682
f 695 612 683
f 695 620 612
f 621 620 695
f 621 695 696
f 695 683 684
f 695 684 696
f 697 622 621
f 697 621 696
f 697 696 684
f 697 684 685
f 623 622 697
f 623 697 698
f 697 685 686
f 697 686 698
f 699 687 615
f 699 615 624
f 698 686 687
f 698 687 699
f 690 625 616
f 690 701 625
f 700 690 689
f 700 701 690
f 702 626 625
f 702 625 701
f 703 692 617
f 703 617 627
f 703 627 626
f 703 626 702
f 704 623 698
f 704 630 623
f 705 699 624
f 705 624 631
f 705 631 630
f 705 630 704
f 704 698 699
f 704 699 705
f 643 706 642
f 643 707 706
f 708 643 644
f 708 707 643
f 709 644 645
f 709 708 644
f 710 645 646
f 710 709 645
f 706 654 642
f 706 711 654
f 655 654 711
f 655 711 712
f 711 706 707
f 711 707 712
f 710 646 657
f 710 657 715
f 715 714 709
f 715 709 710
f 716 655 712
f 716 665 655
f 717 666 665
f 717 665 716
f 716 712 713
f 716 713 717
f 718 667 666
f 718 666 717
f 718 717 713
f 718 713 714
f 715 657 668
f 715 668 719
f 719 668 667
f 719 667 718
f 718 714 715
f 718 715 719
f 677 720 676
f 677 721 720
f 678 721 677
f 678 722 721
f 723 678 679
f 723 722 678
f 720 688 676
f 720 724 688
f 689 688 724
f 689 724 725
f 724 720 721
f 724 721 725
f 723 679 691
f 723 691 727
f 726 722 723
f 726 723 727
f 728 691 692
f 728 727 691
f 729 689 725
f 729 700 689
f 730 701 700
f 730 700 729
f 729 725 726
f 729 726 730
f 731 702 701
f 731 701 730
f 731 730 726
f 731 726 727
f 728 692 703
f 728 703 732
f 732 703 702
f 732 702 731
f 731 727 728
f 731 728 732
f 708 733 707
f 708 734 733
f 735 708 709
f 735 734 708
f 736 707 733
f 736 712 707
f 713 712 736
f 713 736 737
f 736 733 734
f 736 734 737
f 735 709 714
f 735 714 738
f 738 714 713
f 738 713 737
f 737 734 735
f 737 735 738
f 722 739 721
f 722 740 739
f 741 721 739
f 741 725 721
f 740 722 726
f 740 726 742
f 726 725 741
f 726 741 742
f 741 739 740
f 741 740 742
