# parsimony mesh: cplx_CPLX0-3001 (source /Users/eranagmon/code/v2e-cplx/workspace/studies/ecoli-3d/viz/3d/structures/cplx_CPLX0-3001.pdb)
# atoms: 7444  voxel: 16 Å  verts: 178  tris: 340
v 51.5359 -66.2026 -30.2003
v 61.4853 -66.7477 -30.8715
v 71.5629 -66.2982 -30.4721
v 50.5965 -57.2557 -30.6604
v 61.4853 -57.2557 -33.2545
v 77.1319 -55.8553 -31.4545
v 85.6026 -49.5883 -29.4549
v 51.5830 -46.5908 -30.1906
v 60.9328 -41.2568 -32.0239
v 77.5260 -42.5712 -31.5824
v 85.6026 -48.7816 -29.4549
v 65.8978 -32.0689 -30.6853
v 72.2199 -32.0689 -30.6853
v -43.5591 30.4199 -29.6323
v -34.5147 29.9191 -30.2635
v -25.1523 29.9683 -30.2295
v -45.2999 38.7443 -30.7027
v -34.5147 38.7443 -33.1086
v -22.2954 38.7443 -31.6716
v -45.1839 50.8980 -30.8151
v -35.6281 55.6365 -32.6309
v -21.1881 54.7443 -32.3101
v -31.0370 64.2563 -31.0809
v -23.6758 64.2563 -31.0809
v 49.6936 -66.7692 -21.2657
v 61.4853 -67.8118 -21.2657
v 71.6982 -66.2984 -21.2657
v 35.0162 -53.0064 -16.3074
v 42.9106 -57.9061 -21.4907
v 79.8068 -55.8553 -22.4202
v 85.6026 -49.5883 -28.5231
v 35.0162 -44.5527 -16.3074
v 44.9741 -40.2384 -21.7696
v 55.2312 -35.9242 -27.2318
v 80.1309 -42.5712 -22.4202
v 85.6026 -48.7816 -28.5231
v 49.0317 -31.0576 -16.5651
v 60.9328 -30.8429 -21.6453
v 72.1033 -31.8882 -21.2657
v -44.8839 29.9197 -21.2657
v -34.5147 29.1793 -21.2657
v -25.1763 30.0038 -21.2657
v -61.2292 43.5448 -16.4646
v -52.4116 38.4246 -21.5850
v -19.8560 38.7443 -21.2657
v -61.0602 54.7443 -15.8318
v -50.5162 55.6365 -24.2943
v -41.7037 61.5647 -28.2252
v -18.3664 54.7443 -21.2657
v -59.1941 62.9866 -13.4883
v -50.5147 65.1902 -16.6522
v -35.6281 65.9874 -22.2414
v -23.6867 64.5341 -21.2657
v 34.0026 -66.8972 -0.7964
v 45.2216 -67.1589 -5.7841
v 60.2003 -66.3827 -6.6523
v 70.3582 -65.6035 -12.9100
v 20.6077 -52.3468 0.9053
v 29.1761 -58.0099 -5.2789
v 39.7124 -63.6731 -11.4631
v 64.6769 -60.6945 -2.2433
v 72.5773 -56.1190 -6.6523
v 20.7517 -41.2557 1.1915
v 29.6038 -40.0339 -7.6878
v 45.2008 -34.4880 -5.8092
v 61.4853 -37.7230 -1.8790
v 72.5072 -42.1291 -6.2920
v 21.3847 -33.1387 2.5062
v 29.4853 -32.1460 -0.9216
v 45.2008 -31.4754 -5.8092
v 61.4853 -31.1298 -9.8790
v 70.2414 -32.6192 -12.3095
v -61.6607 29.5389 0.1942
v -49.5560 29.7541 -4.6926
v -34.5147 30.0045 -10.3397
v -26.0925 30.5329 -13.0507
v -75.3874 43.7897 0.8576
v -66.7783 38.3340 -4.8074
v -49.5560 32.5439 -4.6926
v -34.5147 35.7484 -2.3397
v -24.4916 40.2684 -6.7367
v -75.7999 54.7443 -0.2347
v -69.0602 54.7443 -8.2347
v -43.8707 60.9251 1.3764
v -34.5147 57.5510 -1.4228
v -24.1858 53.2811 -6.1767
v -75.3556 63.7707 0.6524
v -65.3224 64.3178 -4.9149
v -49.7283 65.5133 -4.4804
v -34.5147 65.6642 -9.4228
v -25.5829 63.6187 -12.1173
v 31.2769 -67.9587 10.7343
v 45.4853 -69.1002 10.7343
v 57.2189 -66.3972 10.7343
v 19.2084 -55.1189 10.7343
v 23.2769 -63.1189 10.7343
v 65.2189 -61.0350 10.7343
v 70.6960 -53.0350 10.7343
v 18.5849 -41.2557 10.7343
v 52.0365 -35.0899 3.9890
v 61.4234 -38.9716 9.8871
v 70.6960 -47.0250 10.7343
v 20.8618 -32.3268 10.7343
v 29.4853 -29.8587 10.7343
v 46.2160 -30.0753 9.8871
v 56.0489 -31.2458 14.6556
v -74.5440 30.7174 18.5249
v -66.8023 28.8611 12.2087
v -49.6955 28.6600 10.5841
v -41.1292 30.3823 15.8172
v -76.7344 38.5715 12.2087
v -72.3274 33.1231 7.8583
v -43.8161 32.2096 5.1506
v -35.2834 36.4687 10.5841
v -25.7861 44.8008 10.7343
v -78.7354 54.7443 10.7343
v -43.8707 60.9251 3.8610
v -34.6188 56.4683 9.8103
v -25.7861 48.2638 10.7343
v -75.9828 64.9356 10.7343
v -66.5147 67.5031 10.7343
v -49.7283 66.0312 9.8103
v -40.0216 64.7992 14.5277
v 33.6119 -66.8999 26.7343
v 44.1444 -67.2087 26.0969
v 57.9385 -66.3184 20.3386
v 19.1667 -53.7521 26.7343
v 25.6119 -61.7521 26.7343
v 48.8243 -57.2557 31.3387
v 62.5572 -58.2159 22.9919
v 70.4046 -53.5226 19.6912
v 19.1920 -42.2157 25.7117
v 29.4853 -39.5192 29.2843
v 47.4447 -41.0647 32.8873
v 60.1270 -40.8074 26.8135
v 70.4046 -47.4925 19.6912
v 20.7545 -32.1342 19.6966
v 29.4853 -30.9684 21.2843
v 47.0245 -30.8692 26.5969
v 55.4478 -31.7187 26.7343
v -74.5440 30.7174 18.7778
v -66.5147 29.2943 22.4978
v -50.5147 29.0429 22.9022
v -41.1292 30.3823 19.3170
v -76.7560 39.7017 25.1604
v -66.5147 34.5113 30.4978
v -50.2772 37.6004 30.7164
v -35.2834 38.8654 21.8656
v -25.6623 44.2795 19.6241
v -77.4083 53.8091 26.0822
v -66.5147 56.9390 30.0573
v -49.4734 54.6673 32.6996
v -35.7389 54.6571 26.3857
v -25.6623 48.5421 19.6241
v -75.6312 64.6396 20.3141
v -66.5147 65.7179 22.0573
v -49.5026 65.4124 26.8448
v -40.3510 64.5273 26.7343
v 37.1160 -65.4855 34.9575
v 37.9172 -65.4855 34.9575
v 20.5521 -50.5243 35.5527
v 30.8637 -56.4169 35.7303
v 40.8243 -57.2557 35.3655
v 20.5521 -48.1890 35.5527
v 29.4853 -47.5192 35.8119
v 47.4447 -41.0647 35.0642
v 53.5384 -34.1224 34.7756
v 53.3839 -33.2163 34.7756
v 53.5384 -33.2163 34.7756
v -75.4235 45.6734 35.4567
v -66.5147 42.5113 35.8152
v -55.4522 42.1711 35.4530
v -75.4235 47.8523 35.4567
v -66.5147 48.9390 35.8152
v -49.4734 54.6673 35.2620
v -42.1228 60.7720 35.0710
v -43.4945 63.0666 35.0710
v -42.1228 63.0666 35.0710
f 5 1 4
f 5 2 1
f 5 3 2
f 5 6 3
f 8 5 4
f 8 9 5
f 10 5 9
f 10 6 5
f 10 7 6
f 10 11 7
f 13 9 12
f 13 10 9
f 18 14 17
f 18 15 14
f 18 16 15
f 18 19 16
f 20 18 17
f 20 21 18
f 22 18 21
f 22 19 18
f 23 22 21
f 23 24 22
f 26 1 2
f 26 25 1
f 3 26 2
f 3 27 26
f 25 4 1
f 25 29 4
f 30 27 3
f 30 3 6
f 31 6 7
f 31 30 6
f 29 8 4
f 29 33 8
f 32 29 28
f 32 33 29
f 34 9 8
f 34 8 33
f 36 11 10
f 36 10 35
f 35 30 31
f 35 31 36
f 34 12 9
f 34 38 12
f 37 34 33
f 37 38 34
f 35 10 13
f 35 13 39
f 39 13 12
f 39 12 38
f 41 14 15
f 41 40 14
f 42 15 16
f 42 41 15
f 40 17 14
f 40 44 17
f 45 42 16
f 45 16 19
f 44 20 17
f 44 47 20
f 47 43 46
f 47 44 43
f 48 21 20
f 48 20 47
f 49 45 19
f 49 19 22
f 51 46 50
f 51 47 46
f 48 23 21
f 48 52 23
f 51 48 47
f 51 52 48
f 49 22 24
f 49 24 53
f 53 24 23
f 53 23 52
f 56 25 26
f 56 55 25
f 57 26 27
f 57 56 26
f 60 25 55
f 60 29 25
f 60 28 29
f 60 59 28
f 60 54 59
f 60 55 54
f 57 27 30
f 57 30 62
f 61 56 57
f 61 57 62
f 64 28 59
f 64 32 28
f 64 58 63
f 64 59 58
f 65 33 32
f 65 32 64
f 62 30 35
f 62 35 67
f 69 63 68
f 69 64 63
f 65 37 33
f 65 70 37
f 69 65 64
f 69 70 65
f 71 38 37
f 71 37 70
f 71 70 65
f 71 65 66
f 72 67 35
f 72 35 39
f 72 39 38
f 72 38 71
f 72 71 66
f 72 66 67
f 75 40 41
f 75 74 40
f 76 41 42
f 76 75 41
f 79 40 74
f 79 44 40
f 79 43 44
f 79 78 43
f 79 73 78
f 79 74 73
f 79 74 75
f 79 75 80
f 76 42 45
f 76 45 81
f 80 75 76
f 80 76 81
f 83 43 78
f 83 46 43
f 83 77 82
f 83 78 77
f 86 81 45
f 86 45 49
f 83 50 46
f 83 88 50
f 87 83 82
f 87 88 83
f 89 51 50
f 89 50 88
f 90 52 51
f 90 51 89
f 90 89 84
f 90 84 85
f 91 86 49
f 91 49 53
f 91 53 52
f 91 52 90
f 91 90 85
f 91 85 86
f 93 54 55
f 93 92 54
f 94 55 56
f 94 93 55
f 96 54 92
f 96 59 54
f 96 58 59
f 96 95 58
f 94 56 61
f 94 61 97
f 98 61 62
f 98 97 61
f 99 58 95
f 99 63 58
f 66 65 100
f 66 100 101
f 102 98 62
f 102 62 67
f 102 67 66
f 102 66 101
f 99 68 63
f 99 103 68
f 104 69 68
f 104 68 103
f 100 65 70
f 100 70 105
f 105 70 69
f 105 69 104
f 106 100 105
f 106 101 100
f 109 73 74
f 109 108 73
f 112 73 108
f 112 78 73
f 112 77 78
f 112 111 77
f 112 107 111
f 112 108 107
f 113 109 74
f 113 74 79
f 80 113 79
f 80 114 113
f 113 110 109
f 113 114 110
f 115 80 81
f 115 114 80
f 116 77 111
f 116 82 77
f 85 84 117
f 85 117 118
f 115 81 86
f 115 86 119
f 119 86 85
f 119 85 118
f 116 87 82
f 116 120 87
f 121 88 87
f 121 87 120
f 117 84 89
f 117 89 122
f 122 89 88
f 122 88 121
f 123 117 122
f 123 118 117
f 93 124 92
f 93 125 124
f 126 93 94
f 126 125 93
f 128 92 124
f 128 96 92
f 128 95 96
f 128 127 95
f 126 94 97
f 126 97 130
f 129 125 126
f 129 126 130
f 131 97 98
f 131 130 97
f 132 95 127
f 132 99 95
f 135 134 129
f 135 129 130
f 136 131 98
f 136 98 102
f 136 102 101
f 136 101 135
f 136 135 130
f 136 130 131
f 137 99 132
f 137 103 99
f 104 103 137
f 104 137 138
f 137 132 133
f 137 133 138
f 105 104 138
f 105 138 139
f 139 138 133
f 139 133 134
f 135 101 106
f 135 106 140
f 106 105 139
f 106 139 140
f 142 107 108
f 142 141 107
f 143 108 109
f 143 142 108
f 110 143 109
f 110 144 143
f 141 111 107
f 141 145 111
f 146 145 141
f 146 141 142
f 146 142 143
f 146 143 147
f 148 144 110
f 148 110 114
f 147 143 144
f 147 144 148
f 149 114 115
f 149 148 114
f 150 111 145
f 150 116 111
f 153 152 147
f 153 147 148
f 154 149 115
f 154 115 119
f 154 119 118
f 154 118 153
f 154 153 148
f 154 148 149
f 155 116 150
f 155 120 116
f 121 120 155
f 121 155 156
f 155 150 151
f 155 151 156
f 122 121 156
f 122 156 157
f 157 156 151
f 157 151 152
f 153 118 123
f 153 123 158
f 123 122 157
f 123 157 158
f 160 124 125
f 160 159 124
f 162 124 159
f 162 128 124
f 162 127 128
f 162 161 127
f 163 160 125
f 163 125 129
f 164 127 161
f 164 132 127
f 133 132 164
f 133 164 165
f 166 163 129
f 166 129 134
f 166 134 133
f 166 133 165
f 167 134 135
f 167 166 134
f 168 134 166
f 168 139 134
f 167 135 140
f 167 140 169
f 140 139 168
f 140 168 169
f 171 145 146
f 171 170 145
f 172 146 147
f 172 171 146
f 170 150 145
f 170 173 150
f 151 150 173
f 151 173 174
f 172 147 152
f 172 152 175
f 175 152 151
f 175 151 174
f 176 152 153
f 176 175 152
f 177 152 175
f 177 157 152
f 176 153 158
f 176 158 178
f 158 157 177
f 158 177 178
