# parsimony mesh: cplx_CPLX0-3 (source /Users/eranagmon/code/v2e-cplx/workspace/studies/ecoli-3d/viz/3d/structures/cplx_CPLX0-3.pdb)
# atoms: 1600  voxel: 8 Å  verts: 250  tris: 508
v 34.0614 -38.4905 -16.5009
v 36.5302 -38.4905 -16.5009
v 26.8337 -31.0222 -16.3988
v 31.3492 -33.8231 -16.7538
v 37.1402 -34.0244 -16.7285
v 26.8337 -29.3984 -16.3988
v 31.2808 -28.7623 -16.6519
v 36.5106 -28.9675 -16.5842
v -45.8084 17.3803 -16.7650
v -43.7940 17.3803 -16.7650
v -45.8084 18.7954 -16.7650
v -43.7940 18.7954 -16.7650
v -30.2722 25.0424 -16.7198
v -24.7192 25.0765 -16.6748
v -20.3786 25.7100 -16.2937
v -30.1816 29.9756 -16.6173
v -25.2317 29.7337 -16.6018
v -20.3786 26.9057 -16.2937
v -29.1160 34.0877 -16.2170
v -28.2401 34.0877 -16.2170
v 18.7259 -46.2600 -9.4504
v 21.8722 -46.2600 -9.4504
v 18.1407 -42.0244 -9.9475
v 24.0357 -42.8110 -10.6711
v 31.3492 -40.4927 -12.4496
v 39.2304 -39.5984 -12.4877
v 44.8918 -39.1781 -10.0324
v 18.4961 -34.0244 -9.0980
v 23.8126 -33.8231 -13.1915
v 28.7281 -36.3555 -15.3022
v 41.1402 -34.0244 -14.8543
v 47.4474 -34.0847 -10.9703
v 52.1160 -31.4582 -9.2586
v 19.1998 -29.8801 -8.3177
v 23.9882 -26.9726 -11.4467
v 31.2808 -24.7623 -13.7329
v 39.2187 -26.1903 -13.4079
v 47.2808 -26.0244 -11.4402
v 52.6217 -26.0244 -9.6521
v 26.4759 -21.3506 -9.2424
v 31.2808 -20.6860 -9.7329
v 39.2808 -20.6637 -9.4299
v 47.2808 -20.9099 -9.3369
v 52.2334 -21.2420 -9.0579
v -45.9990 17.2010 -12.1706
v -40.9641 16.9181 -11.8587
v -35.2540 17.2460 -8.9841
v -46.0955 21.6675 -11.8162
v -40.9641 21.6675 -13.3370
v -32.7631 22.0114 -12.1046
v -24.7192 22.5433 -12.1706
v -17.3148 24.6786 -11.5363
v -12.6078 25.7951 -8.4467
v -45.3066 26.9888 -8.9132
v -40.7167 29.7835 -10.8308
v -34.1816 29.9756 -14.9389
v -22.9068 32.2390 -15.5889
v -17.3148 29.7337 -13.7080
v -11.5101 29.9756 -9.5287
v -38.0484 36.2856 -10.1404
v -32.1573 36.6120 -12.5525
v -25.4001 37.6842 -12.3409
v -16.7192 37.9756 -11.7659
v -11.2847 37.9756 -9.5105
v -22.5601 43.9159 -9.0928
v -16.7192 43.5654 -9.0512
v -12.3074 42.1551 -8.4225
v 18.7259 -46.2600 -7.8372
v 21.8722 -46.2600 -7.8372
v 33.2456 -46.3482 -0.8020
v 35.8890 -46.3482 -0.8020
v 18.1407 -42.0244 -6.8154
v 23.7484 -43.1818 -4.6005
v 30.8597 -44.8153 -3.7495
v 39.1777 -41.7696 -3.4822
v 44.8918 -39.1781 -6.1624
v 18.0139 -34.0984 -4.0865
v 20.2912 -36.8143 -1.3638
v 42.4663 -36.5016 -0.8291
v 47.0604 -33.9799 -3.8583
v 52.1160 -31.4582 -6.8876
v 18.4689 -26.7378 -3.5543
v 21.1426 -24.5468 -5.8102
v 41.6979 -23.1206 -0.9967
v 46.8498 -25.8821 -2.5740
v 52.6217 -26.0244 -6.5552
v 19.0740 -21.8621 -0.4768
v 23.5979 -21.2763 -3.5543
v 31.7067 -17.5073 -3.9551
v 38.8979 -18.4506 -3.7374
v 47.2808 -20.9099 -6.1371
v 52.2334 -21.2420 -7.2998
v 34.6573 -13.3548 -1.1448
v 36.0979 -13.3548 -1.1448
v -45.3363 17.5381 -7.6811
v -40.7192 17.1003 -6.5921
v -32.7948 17.3447 -4.0963
v -27.2728 17.4433 -1.6371
v -45.6226 21.9756 -6.7044
v -41.0321 21.5729 -2.8285
v -32.7948 18.8091 -4.0963
v -24.6514 20.0841 -4.2505
v -17.2535 24.1729 -4.8696
v -12.6078 25.7951 -8.0022
v -45.4800 29.5966 -4.1024
v -43.6446 29.5966 -4.1024
v -15.6999 29.9756 -3.1111
v -11.5101 29.9756 -7.1111
v -45.6535 35.4388 -1.4996
v -40.3965 38.5289 -4.3699
v -32.7192 41.1870 -6.4686
v -24.9557 41.1460 -3.8971
v -16.9695 38.1970 -2.9486
v -11.2847 37.9756 -7.0493
v -37.4112 42.2492 -1.9069
v -31.9422 45.3398 -2.0512
v -23.8966 45.6490 -3.0526
v -18.4280 46.2506 -3.9005
v -12.3074 42.1551 -7.9197
v -28.7575 50.0232 -0.2409
v -24.7192 50.0291 -0.3449
v -20.7065 49.9994 -0.3327
v 33.2456 -46.3482 0.6953
v 35.8890 -46.3482 0.6953
v 17.3234 -38.3124 6.7686
v 23.0871 -39.7314 3.9929
v 30.8597 -43.5112 3.5489
v 37.8067 -41.9771 3.5489
v 10.4998 -32.3479 6.5694
v 15.1028 -34.5811 4.0023
v 23.7699 -33.4971 4.6145
v 27.3050 -30.1799 7.7937
v 42.2342 -33.9107 4.5924
v 43.8957 -31.1683 2.4345
v 10.4998 -29.0472 6.5694
v 15.9781 -25.9727 3.5790
v 24.0615 -25.7487 5.3185
v 28.4962 -26.0244 6.1215
v 42.2959 -25.8821 4.5924
v 43.8957 -28.4540 2.4345
v 19.0740 -21.8621 0.5885
v 23.2808 -21.5946 0.7176
v 30.2600 -18.5779 3.2845
v 41.1938 -18.7963 3.8655
v 43.9115 -16.6443 6.5562
v 33.8076 -12.6138 3.8294
v 38.9711 -12.5178 3.8655
v 43.9115 -13.3941 6.5562
v -30.3356 17.4433 1.7388
v -27.2728 17.4433 1.7388
v -46.4392 25.3228 6.2052
v -40.5256 24.6469 4.1982
v -33.3603 21.2172 4.6317
v -24.6514 20.5769 4.1750
v -20.2757 24.8615 3.8294
v -52.9252 32.8988 7.4648
v -48.7130 29.8849 4.1684
v -40.5256 26.8543 4.1982
v -36.3850 26.8376 7.5245
v -19.2414 29.9756 3.8294
v -52.9252 34.2244 7.4648
v -48.4798 35.5975 4.4107
v -40.3344 38.8888 3.2541
v -34.8713 39.7099 5.5372
v -22.0180 41.0112 1.8023
v -19.8260 38.1970 4.2131
v -37.4112 42.2492 0.2039
v -33.0614 45.3398 3.2541
v -22.0180 44.4976 1.8023
v -20.5256 46.6888 4.2131
v -29.5329 50.6845 3.8294
v -24.7192 50.8020 3.8294
v -20.5594 50.0931 3.8294
v 10.7319 -38.5827 13.7203
v 14.9063 -38.8097 11.3640
v 22.7020 -38.6066 11.1504
v 31.9991 -38.9890 11.1504
v 39.5304 -39.2182 11.5968
v 43.9298 -38.6261 14.1085
v 10.4772 -34.6185 11.3640
v 11.9900 -37.6813 8.3870
v 24.8325 -33.3177 11.1504
v 31.2248 -33.9627 11.3243
v 40.5525 -33.3335 11.2863
v 43.8029 -34.0244 12.7879
v 10.6880 -29.2857 11.8294
v 15.2808 -26.8135 11.8294
v 21.9440 -27.5522 11.8294
v 32.4962 -26.0244 9.5812
v 40.9259 -27.7205 11.2585
v 43.3280 -29.9819 13.4949
v 33.4725 -18.0244 9.0684
v 40.0533 -18.7963 9.2689
v 43.9115 -16.6443 8.5766
v 33.9401 -12.8133 8.6003
v 39.2808 -12.6433 8.9680
v 43.9115 -13.3941 8.5766
v -53.0948 25.3743 14.4179
v -48.9512 24.2670 11.7825
v -42.3502 24.2908 11.8294
v -31.0517 23.7966 9.3278
v -24.7714 23.8545 11.9285
v -19.8814 24.9585 11.8294
v -53.0100 29.8463 11.4043
v -51.5414 29.8463 11.4043
v -38.9961 29.6928 11.3017
v -33.3187 29.6928 9.6767
v -24.7714 29.9116 13.1690
v -19.7713 29.9116 11.5940
v -52.9252 34.2244 8.3907
v -48.6739 35.3053 11.3662
v -40.8913 35.3966 11.3017
v -32.4105 37.4162 9.1974
v -24.7192 37.9756 9.9991
v -20.2898 37.9756 8.6295
v -30.1183 45.9756 8.9853
v -24.7192 45.9756 9.1976
v -20.4867 45.9756 8.0418
v -29.7658 50.8733 8.6710
v -24.7192 50.7485 8.5786
v -20.5189 50.1084 7.9868
v 10.7319 -38.5827 16.9985
v 15.2808 -38.7900 17.1864
v 19.6494 -38.4869 16.4696
v 35.1446 -38.1579 15.9372
v 39.2808 -38.5758 16.4950
v 43.9298 -38.6261 16.6090
v 10.8621 -34.0244 16.7580
v 15.2808 -34.0244 18.3312
v 20.2446 -34.0244 17.4026
v 35.1446 -37.7456 15.9372
v 40.0191 -34.6571 16.4341
v 43.8029 -34.0244 16.5044
v 11.2715 -30.0167 15.8983
v 15.2808 -28.8910 16.9742
v 20.1973 -28.5209 17.2868
v 43.1779 -29.9819 15.9498
v 43.3280 -29.9819 15.9498
v -53.0948 25.3743 17.1193
v -48.7192 24.3294 18.3436
v -43.8027 24.3820 17.8917
v -22.1395 24.9966 16.7436
v -19.7506 24.9966 16.7436
v -53.0948 26.7938 17.1193
v -48.6739 29.6665 18.5709
v -43.2469 29.9756 18.2889
v -22.1395 27.2022 16.7436
v -19.7506 27.2022 16.7436
v -45.9770 34.9518 17.0464
v -43.6727 34.9518 17.0464
f 5 1 4
f 5 2 1
f 7 3 6
f 7 4 3
f 8 4 7
f 8 5 4
f 11 10 9
f 11 12 10
f 17 13 16
f 17 14 13
f 18 14 17
f 18 15 14
f 20 16 19
f 20 17 16
f 23 22 21
f 23 24 22
f 26 1 2
f 26 25 1
f 29 23 28
f 29 24 23
f 30 1 25
f 30 4 1
f 30 3 4
f 30 29 3
f 30 24 29
f 30 25 24
f 31 26 2
f 31 2 5
f 31 27 26
f 31 32 27
f 29 6 3
f 29 35 6
f 34 29 28
f 34 35 29
f 36 7 6
f 36 6 35
f 31 5 8
f 31 8 37
f 8 7 36
f 8 36 37
f 38 31 37
f 38 32 31
f 38 33 32
f 38 39 33
f 40 36 35
f 40 41 36
f 42 36 41
f 42 37 36
f 42 38 37
f 42 43 38
f 44 38 43
f 44 39 38
f 10 45 9
f 10 46 45
f 45 11 9
f 45 48 11
f 46 10 12
f 46 12 49
f 12 11 48
f 12 48 49
f 49 47 46
f 49 50 47
f 51 13 14
f 51 50 13
f 15 51 14
f 15 52 51
f 54 49 48
f 54 55 49
f 56 13 50
f 56 16 13
f 56 49 55
f 56 50 49
f 58 52 15
f 58 15 18
f 18 17 57
f 18 57 58
f 58 53 52
f 58 59 53
f 56 19 16
f 56 61 19
f 60 56 55
f 60 61 56
f 57 17 20
f 57 20 62
f 20 19 61
f 20 61 62
f 63 57 62
f 63 58 57
f 63 59 58
f 63 64 59
f 65 63 62
f 65 66 63
f 67 63 66
f 67 64 63
f 22 68 21
f 22 69 68
f 68 23 21
f 68 72 23
f 69 22 24
f 69 24 73
f 72 68 69
f 72 69 73
f 74 24 25
f 74 73 24
f 75 25 26
f 75 74 25
f 74 71 70
f 74 75 71
f 76 26 27
f 76 75 26
f 72 28 23
f 72 77 28
f 78 77 72
f 78 72 73
f 76 27 32
f 76 32 80
f 79 75 76
f 79 76 80
f 81 32 33
f 81 80 32
f 77 34 28
f 77 82 34
f 83 35 34
f 83 34 82
f 86 81 33
f 86 33 39
f 85 80 81
f 85 81 86
f 83 40 35
f 83 88 40
f 87 83 82
f 87 88 83
f 89 41 40
f 89 40 88
f 42 41 89
f 42 89 90
f 91 43 42
f 91 42 90
f 91 90 84
f 91 84 85
f 92 86 39
f 92 39 44
f 92 44 43
f 92 43 91
f 91 85 86
f 91 86 92
f 94 89 93
f 94 90 89
f 46 95 45
f 46 96 95
f 47 96 46
f 47 97 96
f 95 48 45
f 95 99 48
f 99 95 96
f 99 96 100
f 101 97 47
f 101 47 50
f 101 100 96
f 101 96 97
f 102 50 51
f 102 101 50
f 101 98 97
f 101 102 98
f 103 51 52
f 103 102 51
f 104 52 53
f 104 103 52
f 99 54 48
f 99 105 54
f 106 55 54
f 106 54 105
f 106 105 99
f 106 99 100
f 108 104 53
f 108 53 59
f 107 103 104
f 107 104 108
f 106 60 55
f 106 110 60
f 109 106 105
f 109 110 106
f 111 61 60
f 111 60 110
f 62 61 111
f 62 111 112
f 108 59 64
f 108 64 114
f 114 113 107
f 114 107 108
f 115 111 110
f 115 116 111
f 112 65 62
f 112 117 65
f 116 112 111
f 116 117 112
f 118 66 65
f 118 65 117
f 118 117 112
f 118 112 113
f 114 64 67
f 114 67 119
f 119 67 66
f 119 66 118
f 119 118 113
f 119 113 114
f 120 117 116
f 120 121 117
f 122 117 121
f 122 118 117
f 71 123 70
f 71 124 123
f 123 74 70
f 123 127 74
f 127 73 74
f 127 126 73
f 128 124 71
f 128 71 75
f 127 123 124
f 127 124 128
f 126 78 73
f 126 131 78
f 78 130 77
f 78 131 130
f 131 125 130
f 131 126 125
f 128 75 79
f 128 79 133
f 134 79 80
f 134 133 79
f 136 77 130
f 136 82 77
f 135 130 129
f 135 136 130
f 137 131 132
f 137 132 138
f 134 80 85
f 134 85 140
f 140 85 84
f 140 84 139
f 139 133 134
f 139 134 140
f 141 82 136
f 141 87 82
f 142 88 87
f 142 87 141
f 141 136 137
f 141 137 142
f 143 89 88
f 143 88 142
f 142 137 138
f 142 138 143
f 144 139 84
f 144 84 90
f 143 93 89
f 143 146 93
f 144 90 94
f 144 94 147
f 94 93 146
f 94 146 147
f 148 144 147
f 148 145 144
f 98 149 97
f 98 150 149
f 149 101 97
f 149 153 101
f 153 100 101
f 153 152 100
f 150 98 102
f 150 102 154
f 154 153 149
f 154 149 150
f 155 102 103
f 155 154 102
f 158 100 152
f 158 106 100
f 106 157 105
f 106 158 157
f 158 151 157
f 158 152 151
f 159 158 152
f 159 152 153
f 155 103 107
f 155 107 160
f 157 109 105
f 157 162 109
f 162 156 161
f 162 157 156
f 163 110 109
f 163 109 162
f 160 107 113
f 160 113 166
f 113 112 165
f 113 165 166
f 167 110 163
f 167 115 110
f 116 115 167
f 116 167 168
f 167 163 164
f 167 164 168
f 165 112 117
f 165 117 169
f 118 169 117
f 118 170 169
f 170 165 169
f 170 166 165
f 168 120 116
f 168 171 120
f 172 121 120
f 172 120 171
f 170 118 122
f 170 122 173
f 122 121 172
f 122 172 173
f 176 125 126
f 176 175 125
f 177 126 127
f 177 176 126
f 128 177 127
f 128 178 177
f 181 125 175
f 181 130 125
f 181 129 130
f 181 180 129
f 181 174 180
f 181 175 174
f 132 131 182
f 132 182 183
f 182 176 177
f 182 177 183
f 178 128 133
f 178 133 184
f 185 178 184
f 185 179 178
f 186 129 180
f 186 135 129
f 187 136 135
f 187 135 186
f 188 182 131
f 188 131 137
f 188 137 136
f 188 136 187
f 189 132 183
f 189 138 132
f 190 184 133
f 190 133 139
f 189 183 184
f 189 184 190
f 191 184 190
f 191 185 184
f 192 138 189
f 192 143 138
f 193 190 139
f 193 139 144
f 193 192 189
f 193 189 190
f 145 193 144
f 145 194 193
f 192 146 143
f 192 195 146
f 147 146 195
f 147 195 196
f 196 195 192
f 196 192 193
f 194 145 148
f 194 148 197
f 148 147 196
f 148 196 197
f 196 193 194
f 196 194 197
f 200 151 152
f 200 199 151
f 154 201 153
f 154 202 201
f 155 202 154
f 155 203 202
f 205 151 199
f 205 157 151
f 205 156 157
f 205 204 156
f 205 198 204
f 205 199 198
f 200 152 158
f 200 158 206
f 201 159 153
f 201 207 159
f 159 206 158
f 159 207 206
f 208 207 201
f 208 201 202
f 209 203 155
f 209 155 160
f 210 156 204
f 210 161 156
f 211 162 161
f 211 161 210
f 210 204 205
f 210 205 211
f 212 163 162
f 212 162 211
f 164 163 212
f 164 212 213
f 212 206 207
f 212 207 213
f 213 207 208
f 213 208 214
f 215 209 160
f 215 160 166
f 214 208 209
f 214 209 215
f 216 164 213
f 216 168 164
f 216 213 214
f 216 214 217
f 218 215 166
f 218 166 170
f 217 214 215
f 217 215 218
f 216 171 168
f 216 219 171
f 220 172 171
f 220 171 219
f 219 216 217
f 219 217 220
f 221 218 170
f 221 170 173
f 221 173 172
f 221 172 220
f 221 220 217
f 221 217 218
f 223 174 175
f 223 222 174
f 224 175 176
f 224 223 175
f 178 225 177
f 178 226 225
f 179 226 178
f 179 227 226
f 228 174 222
f 228 180 174
f 228 222 223
f 228 223 229
f 230 224 176
f 230 176 182
f 229 223 224
f 229 224 230
f 231 177 225
f 231 183 177
f 184 183 231
f 184 231 232
f 231 225 226
f 231 226 232
f 233 227 179
f 233 179 185
f 232 226 227
f 232 227 233
f 234 180 228
f 234 186 180
f 187 186 234
f 187 234 235
f 234 228 229
f 234 229 235
f 230 182 188
f 230 188 236
f 236 188 187
f 236 187 235
f 235 229 230
f 235 230 236
f 237 184 232
f 237 190 184
f 233 185 191
f 233 191 238
f 191 190 237
f 191 237 238
f 237 232 233
f 237 233 238
f 240 198 199
f 240 239 198
f 241 199 200
f 241 240 199
f 203 242 202
f 203 243 242
f 244 198 239
f 244 204 198
f 205 204 244
f 205 244 245
f 244 239 240
f 244 240 245
f 246 241 200
f 246 200 206
f 245 240 241
f 245 241 246
f 247 202 242
f 247 208 202
f 248 243 203
f 248 203 209
f 209 208 247
f 209 247 248
f 247 242 243
f 247 243 248
f 245 211 205
f 245 249 211
f 250 246 206
f 250 206 212
f 250 212 211
f 250 211 249
f 249 245 246
f 249 246 250
