# parsimony mesh: cplx_CPLX0-7922 (source /Users/eranagmon/code/v2e-cplx/workspace/studies/ecoli-3d/viz/3d/structures/cplx_CPLX0-7922.pdb)
# atoms: 3208  voxel: 8 Å  verts: 345  tris: 688
v 43.4507 -41.4510 -23.4960
v 48.4885 -41.4503 -23.5647
v 56.4885 -41.4651 -23.8006
v 61.6460 -41.4707 -23.8105
v 43.4507 -38.8556 -23.4960
v 48.4885 -38.3459 -23.5647
v 56.4885 -38.0037 -23.8006
v 61.6460 -38.3994 -23.8105
v -30.1676 31.2864 -23.6214
v -23.5115 30.7537 -24.0904
v -15.5115 31.2312 -23.7258
v -11.4305 31.9230 -23.1353
v -29.9491 35.9964 -23.6693
v -23.5115 35.9964 -24.3592
v -15.5115 35.9964 -24.0150
v -11.1912 35.9964 -23.3252
v -28.1056 40.3656 -23.3175
v -23.5115 40.3755 -23.3385
v -15.5115 40.3689 -23.3590
v -11.1654 40.3568 -23.3448
v 36.3893 -48.0956 -15.5406
v 37.1481 -48.0956 -15.5406
v 51.6871 -48.1124 -15.3364
v 54.9715 -48.1124 -15.3364
v 36.3893 -45.9155 -15.5406
v 39.7886 -44.0148 -17.5572
v 48.8076 -45.5611 -18.4297
v 57.1783 -45.9429 -18.4297
v 62.2985 -43.0666 -19.0697
v 41.3800 -36.1148 -19.1044
v 48.4885 -34.3459 -21.3472
v 56.4885 -34.0037 -21.3005
v 64.3618 -35.3849 -18.4914
v 68.5528 -32.3704 -15.2510
v 42.1775 -28.0036 -16.6537
v 48.4885 -28.0036 -18.2473
v 56.4885 -28.0036 -17.6890
v 63.7351 -28.7231 -15.9989
v 68.5528 -31.8694 -15.2510
v 42.9621 -22.1567 -15.7905
v 48.4885 -21.9548 -15.9698
v 56.4885 -23.3056 -15.4582
v 60.5662 -23.9578 -15.1084
v -37.3302 30.5221 -17.7297
v -32.3052 30.1201 -19.8657
v -23.5115 28.6391 -19.0697
v -15.5115 29.1733 -19.0697
v -10.5284 31.2909 -19.0697
v -37.3265 35.9964 -17.4613
v -33.9491 35.9964 -21.4613
v -9.5800 35.9964 -19.0697
v -36.1316 43.9964 -15.6287
v -31.0680 43.4179 -19.1942
v -23.5115 44.3755 -19.9963
v -15.5115 44.3689 -19.5508
v -10.6390 43.4126 -18.3906
v -35.7370 48.9807 -15.2862
v -31.3676 51.7870 -15.8079
v -23.9530 51.7928 -15.9420
v -15.5115 48.9061 -15.5508
v -11.3218 48.2154 -15.2712
v -28.6049 56.2365 -15.2880
v -26.9140 56.2365 -15.2880
v 35.9222 -48.3324 -11.0697
v 40.0842 -48.3751 -10.9543
v 48.7255 -48.1485 -11.1802
v 54.9715 -48.1124 -14.1498
v 35.0449 -43.5507 -11.8292
v 39.5242 -43.9597 -14.2731
v 48.7255 -47.4256 -11.1802
v 57.1783 -47.3824 -11.3178
v 62.2224 -43.5943 -11.0697
v 28.3356 -32.6198 -7.3440
v 32.2979 -35.5733 -9.7860
v 37.3812 -36.0036 -14.2594
v 65.8512 -35.4237 -11.7221
v 68.5528 -32.3704 -14.8236
v 28.3356 -31.4140 -7.3440
v 32.4296 -28.4499 -9.1233
v 38.1775 -28.0036 -13.4310
v 58.7607 -25.2339 -9.5585
v 63.8404 -28.5517 -12.1911
v 68.5528 -31.8694 -14.8236
v 35.0571 -22.0126 -8.5643
v 40.9341 -19.4180 -10.5768
v 47.7653 -18.5045 -10.3814
v 56.2518 -22.7851 -11.7630
v 60.5662 -23.9578 -14.8918
v 44.2394 -15.9805 -7.2559
v 44.6165 -15.9805 -7.2559
v -38.2948 29.8113 -11.0697
v -31.5115 27.9561 -11.0697
v -23.5115 28.0848 -11.0697
v -15.3725 29.8309 -10.7966
v -10.2817 31.1291 -13.2812
v -43.5780 39.6041 -7.2231
v -41.2989 36.5610 -10.3617
v -12.6131 32.6533 -7.9479
v -9.5409 35.5905 -10.7966
v -43.8045 43.9964 -7.4532
v -40.1316 43.9964 -11.4532
v -12.7257 47.0326 -9.1990
v -10.1650 44.2181 -11.5473
v -44.1670 51.9964 -7.7732
v -38.8468 51.7870 -12.0273
v -33.9382 54.3141 -14.3944
v -22.3942 53.8632 -11.0697
v -15.4400 49.6212 -11.5473
v -11.3218 48.2154 -14.5323
v -44.0612 56.5483 -7.6497
v -39.5115 57.2143 -8.9983
v -31.3676 56.9764 -11.4645
v -26.3942 56.4174 -11.0697
v 11.8302 -64.6537 0.2495
v 13.2551 -64.6537 0.2495
v 10.5053 -60.0036 -0.9936
v 16.1485 -59.6118 -1.0521
v 21.1108 -56.6839 0.1914
v 10.7670 -52.0036 -0.8978
v 16.4885 -52.0036 -2.4723
v 22.1060 -52.0036 -0.6442
v 35.3768 -48.5197 -3.0697
v 40.4885 -49.0154 -3.0697
v 46.2399 -48.4994 -3.0697
v 12.1791 -47.2870 0.3772
v 16.4604 -44.3736 -0.6997
v 24.6091 -43.8588 -1.0330
v 31.4086 -43.8588 -2.9348
v 50.2399 -46.4482 -3.0697
v 57.0471 -43.2618 -2.4484
v 61.5446 -42.1745 -4.7008
v 19.1084 -37.6557 0.1271
v 24.7471 -35.1377 -2.6922
v 29.5042 -37.9531 -5.5116
v 60.0861 -39.1292 0.6325
v 62.0476 -36.2790 -2.4484
v 26.8764 -30.3740 -3.0697
v 29.8056 -26.3740 -3.0697
v 50.9625 -25.4638 -0.9135
v 56.2518 -27.0429 -3.3760
v 61.6452 -30.7076 -3.0697
v 33.8057 -19.6090 -3.4013
v 38.9060 -16.6793 -6.2890
v 48.6673 -20.1435 -3.3760
v 53.4273 -22.9035 -6.2469
v 35.5944 -15.1622 -0.9556
v 41.1390 -15.2703 -3.4013
v 44.8565 -15.7180 -3.0697
v -61.4465 14.6482 -0.0642
v -58.7755 14.6482 -0.0642
v -62.4520 19.9964 -1.0534
v -57.0432 19.9964 -1.0534
v -45.8071 23.7491 0.5059
v -42.4513 23.7491 0.5059
v -61.6980 27.9964 -0.9347
v -54.7785 27.3442 -0.8953
v -48.0889 27.3442 -0.8859
v -39.9276 27.7245 -2.9719
v -31.5115 27.3935 -3.0697
v -23.5115 29.0622 -3.0697
v -18.1946 31.2572 -3.0697
v -60.4411 33.1918 0.0940
v -54.7655 35.9136 0.0683
v -46.7514 36.5610 -3.8578
v -42.7372 34.2707 -6.4496
v -14.5110 35.5905 -2.8975
v -10.3754 37.9866 -5.4494
v -51.6014 40.2152 0.8860
v -48.0227 43.3277 -2.2963
v -14.5792 44.2181 -2.8975
v -10.3754 41.6993 -5.4494
v -45.7065 51.9964 -3.0697
v -28.3745 54.9943 -0.5966
v -23.7761 53.1636 -3.1858
v -18.2800 49.2070 -3.0697
v -44.1174 57.0936 -3.0697
v -39.5115 59.0829 -3.0697
v -31.2293 57.7806 -3.1858
v -26.6192 56.3177 -5.9299
v 11.8302 -64.6537 1.8076
v 13.2551 -64.6537 1.8076
v 10.5053 -60.0036 2.7240
v 16.3213 -59.1880 4.7927
v 21.4278 -56.7802 4.9303
v 10.7670 -52.0036 2.8172
v 14.3285 -52.0036 6.8172
v 25.3606 -51.7411 4.8995
v 32.7927 -49.3963 4.8995
v 40.4885 -49.8629 4.9303
v 45.8212 -48.7939 4.9303
v 12.1071 -44.3292 4.9091
v 13.5757 -44.3292 4.9091
v 27.3562 -46.4289 2.2124
v 30.3288 -46.4289 2.2124
v 49.6722 -43.8531 4.8588
v 54.7528 -41.0861 2.1446
v 12.0351 -39.1326 7.8862
v 16.9101 -35.7274 4.8817
v 21.1586 -32.3223 1.8771
v 44.4153 -32.0794 8.8209
v 48.6061 -35.2491 6.8107
v 57.0471 -36.2790 2.1730
v 60.7381 -33.7959 1.0915
v 20.0451 -31.5765 7.2104
v 24.4793 -28.3318 4.5781
v 29.0094 -25.0871 1.9458
v 44.4153 -31.6042 8.8209
v 47.7963 -28.5340 5.2235
v 56.4885 -30.8800 1.5730
v 60.7381 -31.7120 1.0915
v 27.8000 -23.4894 7.2792
v 32.3019 -20.4343 4.7288
v 40.4885 -18.5884 6.7247
v 45.4754 -20.4461 4.8169
v 35.5944 -15.1622 2.1784
v 40.4885 -15.1043 2.7247
v 44.8511 -15.6459 2.0747
v -61.4465 14.6482 1.6017
v -58.7755 14.6482 1.6017
v -62.0280 20.5909 4.5331
v -55.1993 20.7992 4.0517
v -48.0889 23.2503 4.2732
v -42.2411 23.6028 4.9303
v -62.7874 27.9964 4.9303
v -51.6231 24.2427 1.1685
v -51.1404 24.2427 1.1685
v -38.2411 25.6167 4.9303
v -31.5115 27.6903 4.9303
v -23.9972 30.3830 4.2534
v -19.3207 31.8759 1.1354
v -61.1081 35.9136 5.2609
v -56.9347 38.5251 2.8146
v -28.4315 38.4685 8.0085
v -23.9972 35.8796 5.6366
v -18.4346 35.9964 1.5045
v -60.0638 40.4663 8.1480
v -54.4980 43.0074 5.1210
v -50.6394 45.5485 2.0941
v -29.2848 43.9964 7.2034
v -23.5115 43.9964 3.7038
v -18.4356 43.9964 1.4307
v -52.0613 48.7016 7.4274
v -48.2324 51.6195 4.8285
v -30.0174 52.1951 4.9018
v -23.5115 49.3341 1.9747
v -19.3220 48.1154 1.0370
v -44.0667 57.0032 4.9303
v -39.5115 58.5707 4.9303
v -33.5606 57.5639 4.9303
v 19.3874 -56.3588 9.5538
v 21.1186 -56.3588 9.5538
v 12.3582 -48.2710 16.3455
v 16.3818 -51.4205 12.9497
v 24.0666 -53.3319 12.5044
v 32.4885 -51.3461 12.9303
v 40.5423 -49.6333 12.8380
v 45.2055 -48.5772 10.1098
v 11.9298 -44.0243 13.3794
v 13.3763 -46.7048 11.0122
v 43.2448 -45.6700 15.4431
v 45.9051 -43.4035 12.8380
v 11.8879 -38.6694 12.9303
v 15.3900 -34.6694 12.9303
v 43.9025 -33.3651 12.9303
v 45.7215 -37.3651 12.9303
v 19.3900 -31.1405 12.9303
v 23.3891 -27.1405 12.9303
v 34.8356 -25.5594 15.4309
v 41.4312 -28.5818 12.2661
v 44.6301 -26.2709 9.1013
v 27.3891 -23.2872 12.9303
v 32.2968 -22.6559 12.8306
v 40.4885 -22.5884 9.9340
v 44.6301 -23.4077 9.1013
v -60.4435 23.4060 12.9303
v -55.5115 22.7313 12.9303
v -47.4309 23.2901 13.1031
v -42.8778 23.7189 10.5517
v -62.2139 27.9964 12.9303
v -44.7105 24.7104 15.8851
v -39.9313 25.5240 13.1031
v -31.4033 29.1920 12.5862
v -26.9876 30.8237 9.6901
v -62.2082 35.9964 12.9303
v -29.7091 35.8796 12.5862
v -26.9876 33.1352 9.6901
v -60.4377 40.8864 12.9303
v -56.3225 44.8864 12.9303
v -36.7980 46.7522 15.4388
v -33.0840 44.0499 12.8354
v -52.3225 48.9673 12.9303
v -47.0008 52.5532 12.4207
v -39.4834 51.7764 13.3537
v -33.9967 51.9964 10.0966
v -43.9936 56.4278 9.4143
v -39.5115 56.7021 9.5782
v -34.7140 56.5059 9.3101
v 12.3582 -48.2710 17.1412
v 16.4885 -49.1289 18.0380
v 24.4885 -49.9921 18.5554
v 32.4885 -49.8616 18.4505
v 37.9115 -49.0625 18.0564
v 12.1302 -44.0036 17.4447
v 16.4885 -44.0036 20.1054
v 24.4885 -44.0036 21.2320
v 32.4885 -44.0036 20.3580
v 40.5423 -43.4035 18.4938
v 44.6033 -40.3367 17.1538
v 12.1411 -39.0957 17.4052
v 16.6757 -36.2589 19.0211
v 24.4885 -36.0036 21.2213
v 32.4885 -36.0036 20.8186
v 40.8636 -36.2473 18.5482
v 44.6033 -39.0764 17.1538
v 19.4672 -31.2799 17.6585
v 24.8220 -28.3694 18.6558
v 32.2968 -28.1371 18.9490
v 38.4470 -30.8927 18.1471
v 27.7111 -23.5626 17.6535
v 29.5023 -23.5626 17.6535
v -60.4806 23.5516 17.5711
v -55.5115 23.5271 17.5553
v -50.0438 23.8154 17.1228
v -61.1245 27.9964 18.3886
v -55.5115 27.9964 19.3218
v -47.4309 27.6248 17.9403
v -39.5115 28.9571 18.1137
v -33.9978 29.8967 18.0690
v -60.9097 35.9964 18.5554
v -55.5115 35.9964 20.4952
v -47.5513 36.4066 21.9456
v -39.7830 36.4066 21.7717
v -33.5685 35.9964 18.6527
v -60.1942 40.7132 17.7935
v -55.0304 43.6265 18.7401
v -47.5513 43.6224 21.9762
v -39.7143 43.7293 20.6375
v -34.4346 41.4189 18.0881
v -52.0430 48.5858 17.5488
v -47.5115 49.1635 18.0866
v -42.1313 48.9632 17.8535
v -44.9112 39.3467 25.4057
v -42.6306 39.3467 25.4057
v -44.9112 40.7064 25.4057
v -42.6306 40.7064 25.4057
f 5 2 1
f 5 6 2
f 6 3 2
f 6 7 3
f 8 3 7
f 8 4 3
f 14 9 13
f 14 10 9
f 14 11 10
f 14 15 11
f 15 12 11
f 15 16 12
f 17 14 13
f 17 18 14
f 18 15 14
f 18 19 15
f 19 16 15
f 19 20 16
f 25 22 21
f 25 26 22
f 27 1 2
f 27 26 1
f 3 27 2
f 3 28 27
f 28 23 27
f 28 24 23
f 29 3 4
f 29 28 3
f 30 1 26
f 30 5 1
f 31 6 5
f 31 5 30
f 7 6 31
f 7 31 32
f 29 4 8
f 29 8 33
f 8 7 32
f 8 32 33
f 35 31 30
f 35 36 31
f 36 32 31
f 36 37 32
f 38 32 37
f 38 33 32
f 38 34 33
f 38 39 34
f 40 36 35
f 40 41 36
f 42 36 41
f 42 37 36
f 43 37 42
f 43 38 37
f 46 9 10
f 46 45 9
f 47 10 11
f 47 46 10
f 12 47 11
f 12 48 47
f 50 9 45
f 50 13 9
f 50 44 49
f 50 45 44
f 51 48 12
f 51 12 16
f 50 17 13
f 50 53 17
f 53 49 52
f 53 50 49
f 54 18 17
f 54 17 53
f 19 18 54
f 19 54 55
f 51 16 20
f 51 20 56
f 20 19 55
f 20 55 56
f 57 53 52
f 57 58 53
f 59 53 58
f 59 54 53
f 60 54 59
f 60 55 54
f 61 55 60
f 61 56 55
f 63 58 62
f 63 59 58
f 22 64 21
f 22 65 64
f 67 23 24
f 67 66 23
f 64 25 21
f 64 68 25
f 69 65 22
f 69 22 26
f 69 26 25
f 69 25 68
f 70 23 66
f 70 27 23
f 27 69 26
f 27 70 69
f 70 65 69
f 70 66 65
f 71 67 24
f 71 24 28
f 70 66 67
f 70 67 71
f 72 28 29
f 72 71 28
f 75 26 69
f 75 30 26
f 75 68 74
f 75 69 68
f 76 72 29
f 76 29 33
f 34 76 33
f 34 77 76
f 79 73 78
f 79 74 73
f 75 35 30
f 75 80 35
f 80 74 79
f 80 75 74
f 77 34 39
f 77 39 83
f 83 39 38
f 83 38 82
f 83 82 76
f 83 76 77
f 80 40 35
f 80 85 40
f 84 80 79
f 84 85 80
f 86 41 40
f 86 40 85
f 87 42 41
f 87 41 86
f 88 82 38
f 88 38 43
f 88 43 42
f 88 42 87
f 88 87 81
f 88 81 82
f 89 86 85
f 89 90 86
f 92 44 45
f 92 91 44
f 46 92 45
f 46 93 92
f 47 93 46
f 47 94 93
f 95 47 48
f 95 94 47
f 91 49 44
f 91 97 49
f 95 48 51
f 95 51 99
f 98 94 95
f 98 95 99
f 101 49 97
f 101 52 49
f 101 96 100
f 101 97 96
f 99 51 56
f 99 56 103
f 101 57 52
f 101 105 57
f 104 101 100
f 104 105 101
f 106 58 57
f 106 57 105
f 60 59 107
f 60 107 108
f 103 56 61
f 103 61 109
f 109 61 60
f 109 60 108
f 109 108 102
f 109 102 103
f 111 104 110
f 111 105 104
f 106 62 58
f 106 112 62
f 111 106 105
f 111 112 106
f 107 59 63
f 107 63 113
f 113 63 62
f 113 62 112
f 116 115 114
f 116 117 115
f 119 117 116
f 119 120 117
f 120 118 117
f 120 121 118
f 65 122 64
f 65 123 122
f 124 65 66
f 124 123 65
f 125 120 119
f 125 126 120
f 126 121 120
f 126 127 121
f 122 68 64
f 122 128 68
f 129 124 66
f 129 66 70
f 71 129 70
f 71 130 129
f 131 71 72
f 131 130 71
f 132 127 126
f 132 133 127
f 134 68 128
f 134 74 68
f 134 73 74
f 134 133 73
f 134 127 133
f 134 128 127
f 131 72 76
f 131 76 136
f 135 130 131
f 135 131 136
f 137 73 133
f 137 78 73
f 138 79 78
f 138 78 137
f 141 136 76
f 141 76 82
f 141 82 81
f 141 81 140
f 138 84 79
f 138 142 84
f 143 85 84
f 143 84 142
f 145 140 81
f 145 81 87
f 145 87 86
f 145 86 144
f 145 144 139
f 145 139 140
f 143 89 85
f 143 147 89
f 146 143 142
f 146 147 143
f 144 86 90
f 144 90 148
f 148 90 89
f 148 89 147
f 151 150 149
f 151 152 150
f 155 152 151
f 155 156 152
f 157 154 153
f 157 158 154
f 159 91 92
f 159 158 91
f 93 159 92
f 93 160 159
f 161 93 94
f 161 160 93
f 162 156 155
f 162 163 156
f 163 157 156
f 163 164 157
f 165 91 158
f 165 97 91
f 165 96 97
f 165 164 96
f 165 157 164
f 165 158 157
f 161 94 98
f 161 98 166
f 167 98 99
f 167 166 98
f 169 96 164
f 169 100 96
f 168 164 163
f 168 169 164
f 171 167 99
f 171 99 103
f 171 103 102
f 171 102 170
f 171 170 166
f 171 166 167
f 172 100 169
f 172 104 100
f 175 170 102
f 175 102 108
f 175 108 107
f 175 107 174
f 172 110 104
f 172 176 110
f 177 111 110
f 177 110 176
f 178 112 111
f 178 111 177
f 179 174 107
f 179 107 113
f 179 113 112
f 179 112 178
f 179 178 173
f 179 173 174
f 115 180 114
f 115 181 180
f 182 114 180
f 182 116 114
f 181 115 117
f 181 117 183
f 182 180 181
f 182 181 183
f 118 183 117
f 118 184 183
f 182 119 116
f 182 185 119
f 185 182 183
f 185 183 186
f 184 118 121
f 184 121 187
f 189 122 123
f 189 188 122
f 190 123 124
f 190 189 123
f 185 125 119
f 185 191 125
f 192 126 125
f 192 125 191
f 191 185 186
f 191 186 192
f 193 187 121
f 193 121 127
f 194 122 188
f 194 128 122
f 128 193 127
f 128 194 193
f 193 188 187
f 193 194 188
f 190 124 129
f 190 129 195
f 196 129 130
f 196 195 129
f 192 132 126
f 192 198 132
f 197 192 191
f 197 198 192
f 199 133 132
f 199 132 198
f 196 130 135
f 196 135 202
f 201 195 196
f 201 196 202
f 203 135 136
f 203 202 135
f 199 137 133
f 199 205 137
f 204 199 198
f 204 205 199
f 206 138 137
f 206 137 205
f 207 200 201
f 207 201 208
f 209 140 139
f 209 139 208
f 209 208 201
f 209 201 202
f 203 136 141
f 203 141 210
f 141 140 209
f 141 209 210
f 209 202 203
f 209 203 210
f 206 142 138
f 206 212 142
f 211 206 205
f 211 212 206
f 214 208 139
f 214 139 144
f 215 142 212
f 215 146 142
f 216 147 146
f 216 146 215
f 215 212 213
f 215 213 216
f 217 214 144
f 217 144 148
f 217 148 147
f 217 147 216
f 217 216 213
f 217 213 214
f 150 218 149
f 150 219 218
f 218 151 149
f 218 220 151
f 219 150 152
f 219 152 221
f 220 218 219
f 220 219 221
f 223 153 154
f 223 222 153
f 220 155 151
f 220 224 155
f 225 221 152
f 225 152 156
f 226 153 222
f 226 157 153
f 157 225 156
f 157 226 225
f 225 222 221
f 225 226 222
f 227 223 154
f 227 154 158
f 159 227 158
f 159 228 227
f 229 159 160
f 229 228 159
f 230 160 161
f 230 229 160
f 224 162 155
f 224 231 162
f 232 163 162
f 232 162 231
f 235 230 161
f 235 161 166
f 234 229 230
f 234 230 235
f 232 168 163
f 232 237 168
f 236 232 231
f 236 237 232
f 238 169 168
f 238 168 237
f 240 239 233
f 240 233 234
f 235 166 170
f 235 170 241
f 240 234 235
f 240 235 241
f 238 172 169
f 238 243 172
f 242 238 237
f 242 243 238
f 245 174 173
f 245 173 244
f 245 244 239
f 245 239 240
f 241 170 175
f 241 175 246
f 175 174 245
f 175 245 246
f 246 245 240
f 246 240 241
f 247 172 243
f 247 176 172
f 248 177 176
f 248 176 247
f 249 244 173
f 249 173 178
f 249 178 177
f 249 177 248
f 184 250 183
f 184 251 250
f 250 186 183
f 250 253 186
f 251 184 187
f 251 187 254
f 254 253 250
f 254 250 251
f 255 187 188
f 255 254 187
f 256 188 189
f 256 255 188
f 257 189 190
f 257 256 189
f 259 186 253
f 259 192 186
f 259 191 192
f 259 258 191
f 259 252 258
f 259 253 252
f 257 190 195
f 257 195 261
f 260 256 257
f 260 257 261
f 258 197 191
f 258 262 197
f 263 198 197
f 263 197 262
f 261 195 201
f 261 201 265
f 265 201 200
f 265 200 264
f 263 204 198
f 263 266 204
f 267 205 204
f 267 204 266
f 264 200 207
f 264 207 269
f 270 207 208
f 270 269 207
f 267 211 205
f 267 271 211
f 272 212 211
f 272 211 271
f 273 213 212
f 273 212 272
f 273 272 268
f 273 268 269
f 274 270 208
f 274 208 214
f 274 214 213
f 274 213 273
f 273 269 270
f 273 270 274
f 221 275 220
f 221 276 275
f 222 276 221
f 222 277 276
f 278 222 223
f 278 277 222
f 275 224 220
f 275 279 224
f 278 223 227
f 278 227 281
f 280 277 278
f 280 278 281
f 282 227 228
f 282 281 227
f 283 228 229
f 283 282 228
f 279 231 224
f 279 284 231
f 286 283 229
f 286 229 234
f 286 234 233
f 286 233 285
f 285 282 283
f 285 283 286
f 284 236 231
f 284 287 236
f 288 237 236
f 288 236 287
f 290 285 233
f 290 233 239
f 288 242 237
f 288 291 242
f 292 243 242
f 292 242 291
f 294 290 239
f 294 239 244
f 294 293 289
f 294 289 290
f 295 243 292
f 295 247 243
f 296 248 247
f 296 247 295
f 295 292 293
f 295 293 296
f 294 244 249
f 294 249 297
f 297 249 248
f 297 248 296
f 296 293 294
f 296 294 297
f 299 252 253
f 299 298 252
f 300 253 254
f 300 299 253
f 255 300 254
f 255 301 300
f 302 255 256
f 302 301 255
f 303 252 298
f 303 258 252
f 304 303 298
f 304 298 299
f 305 304 299
f 305 299 300
f 306 305 300
f 306 300 301
f 302 256 260
f 302 260 307
f 306 301 302
f 306 302 307
f 308 260 261
f 308 307 260
f 309 258 303
f 309 262 258
f 263 262 309
f 263 309 310
f 309 303 304
f 309 304 310
f 310 304 305
f 310 305 311
f 312 311 305
f 312 305 306
f 312 306 307
f 312 307 313
f 308 261 265
f 308 265 314
f 314 265 264
f 314 264 313
f 313 307 308
f 313 308 314
f 315 263 310
f 315 266 263
f 267 266 315
f 267 315 316
f 315 310 311
f 315 311 316
f 316 311 312
f 316 312 317
f 318 313 264
f 318 264 269
f 318 269 268
f 318 268 317
f 318 317 312
f 318 312 313
f 319 267 316
f 319 271 267
f 320 317 268
f 320 268 272
f 320 272 271
f 320 271 319
f 319 316 317
f 319 317 320
f 322 275 276
f 322 321 275
f 323 276 277
f 323 322 276
f 321 279 275
f 321 324 279
f 325 324 321
f 325 321 322
f 323 277 280
f 323 280 326
f 325 322 323
f 325 323 326
f 327 280 281
f 327 326 280
f 328 281 282
f 328 327 281
f 324 284 279
f 324 329 284
f 329 324 325
f 329 325 330
f 331 330 325
f 331 325 326
f 331 326 327
f 331 327 332
f 328 282 285
f 328 285 333
f 333 332 327
f 333 327 328
f 334 284 329
f 334 287 284
f 288 287 334
f 288 334 335
f 334 329 330
f 334 330 335
f 335 330 331
f 335 331 336
f 338 333 285
f 338 285 290
f 338 290 289
f 338 289 337
f 338 337 332
f 338 332 333
f 339 288 335
f 339 291 288
f 340 292 291
f 340 291 339
f 339 335 336
f 339 336 340
f 341 337 289
f 341 289 293
f 341 293 292
f 341 292 340
f 341 340 336
f 341 336 337
f 343 331 332
f 343 342 331
f 342 336 331
f 342 344 336
f 345 343 332
f 345 332 337
f 345 337 336
f 345 336 344
f 344 342 343
f 344 343 345
