# parsimony mesh: cplx_CPLX0-1121 (source /Users/eranagmon/code/v2e-cplx/workspace/studies/ecoli-3d/viz/3d/structures/cplx_CPLX0-1121.pdb)
# atoms: 3718  voxel: 8 Å  verts: 380  tris: 768
v 46.4326 -43.8194 -27.7074
v 52.3845 -44.0398 -27.8381
v 56.6524 -43.6317 -27.6107
v 40.2386 -36.1322 -27.3975
v 43.7372 -38.8350 -27.5524
v 52.3845 -41.5303 -27.8381
v 56.6524 -42.5672 -27.6107
v 40.2386 -34.6789 -27.3975
v 41.0418 -34.6789 -27.3975
v -33.1142 36.6241 -27.4095
v -27.6155 35.8657 -27.7706
v -23.1322 35.7988 -27.8186
v -39.8861 42.9980 -27.5020
v -35.9088 40.2313 -27.4557
v -27.6155 37.9684 -27.7706
v -23.1322 37.7620 -27.8186
v -39.8861 45.4825 -27.5020
v -38.7034 45.4825 -27.5020
v 40.0239 -51.2405 -19.4581
v 44.3845 -52.2437 -20.0489
v 50.3106 -52.4824 -20.1410
v 31.9003 -43.5693 -19.8705
v 36.9681 -46.5804 -21.0412
v 44.0133 -46.7304 -24.4035
v 52.7402 -48.2939 -23.0050
v 58.3250 -45.0514 -23.3009
v 31.5232 -39.0970 -20.1378
v 37.0969 -38.9181 -24.4746
v 43.7372 -38.8350 -26.6214
v 52.3845 -37.5303 -25.3725
v 60.3448 -39.8994 -22.6976
v 64.9123 -37.2317 -19.7994
v 31.7202 -33.4947 -19.8472
v 36.6315 -31.4202 -23.0875
v 43.9789 -31.6462 -24.9227
v 52.3845 -31.0970 -21.7969
v 59.6259 -31.2873 -20.1912
v 64.9123 -34.0808 -19.7994
v 38.3578 -25.6103 -20.9945
v 44.3845 -25.5433 -20.9777
v 52.3845 -26.6395 -19.7253
v 56.4534 -27.0719 -19.3247
v -40.0637 28.7235 -19.5073
v -35.6155 27.2401 -20.3344
v -29.5507 26.8654 -20.4725
v -48.3628 35.9718 -20.0682
v -43.0844 33.1443 -21.2565
v -35.7147 33.5356 -24.6991
v -27.1766 31.6060 -23.2039
v -20.1255 34.8039 -22.6477
v -15.3482 36.6206 -19.5456
v -48.6013 40.9030 -20.2254
v -42.9778 40.5600 -24.6119
v -35.9088 40.2313 -26.6413
v -27.6155 41.9684 -25.3336
v -20.1255 40.6184 -23.5759
v -14.9019 40.9030 -19.9084
v -48.1826 45.9766 -19.7662
v -43.1821 48.3962 -22.8790
v -35.8682 48.4507 -24.5607
v -27.6155 48.9030 -21.6478
v -20.3265 48.6336 -20.2723
v -14.9313 45.7873 -19.8662
v -41.1448 54.0191 -20.6584
v -35.6155 54.0057 -20.5792
v -27.6155 53.2250 -19.6151
v -23.4672 52.9781 -19.3729
v 39.0015 -52.0781 -15.3009
v 44.3845 -53.8498 -15.3009
v 52.7402 -52.9581 -15.7391
v 57.8434 -51.8365 -13.3646
v 24.2490 -43.3285 -11.8455
v 28.8940 -44.3810 -14.8276
v 35.0015 -48.5284 -15.3009
v 55.6440 -50.5015 -18.6979
v 60.9403 -47.0713 -15.7760
v 64.6194 -43.6411 -12.8540
v 24.2490 -41.9949 -11.8455
v 27.2873 -39.2358 -14.8276
v 64.0372 -42.5650 -18.1873
v 65.3399 -39.5778 -15.4328
v 30.2191 -30.9356 -15.6848
v 33.0245 -28.1614 -18.6074
v 61.7868 -28.7474 -18.1496
v 65.8411 -31.2873 -15.4101
v 31.4532 -25.9290 -13.2740
v 36.4301 -23.1030 -15.3187
v 44.9788 -21.1364 -14.9384
v 52.3845 -23.2858 -15.3009
v 59.6259 -25.3647 -15.4101
v 65.4547 -26.1771 -12.8162
v 39.8357 -18.8206 -12.0301
v 42.7083 -18.8206 -12.0301
v -40.9072 27.6403 -15.3009
v -35.6155 25.2316 -15.3009
v -27.1766 26.5410 -15.6781
v -21.9781 28.1779 -13.2629
v -49.7711 35.1249 -15.3009
v -44.9072 31.1249 -15.3009
v -24.2174 29.4577 -18.5962
v -19.4331 31.6348 -15.6781
v -15.1243 35.9017 -15.3009
v -51.4436 40.9030 -15.3009
v -13.8361 40.9030 -15.3009
v -49.4001 48.7471 -15.4023
v -46.4781 51.3099 -18.1365
v -18.1339 51.1206 -17.8522
v -13.8919 48.6336 -15.2317
v -48.3597 53.8159 -12.8032
v -43.2746 56.5842 -15.0050
v -35.6261 58.1173 -14.8444
v -27.6155 56.0230 -15.3009
v -20.3265 54.5197 -15.2317
v -14.4606 53.6786 -12.5189
v -40.0710 61.1731 -11.8734
v -38.2998 61.1731 -11.8734
v 24.1156 -51.3347 -3.4905
v 24.8188 -51.3347 -3.4905
v 38.1635 -53.0133 -7.3009
v 44.3845 -54.5903 -7.3009
v 52.8962 -52.8023 -6.8459
v 57.8434 -51.8365 -9.2092
v 24.1823 -46.5887 -6.6995
v 26.8563 -46.7054 -6.3004
v 33.9780 -47.1587 -6.6219
v 55.9040 -50.5607 -3.8759
v 60.4598 -48.5239 -6.8459
v 67.7255 -45.0803 -7.0759
v 73.1135 -44.8214 -4.2593
v 24.2490 -41.9949 -9.9085
v 28.0563 -39.6835 -6.7055
v 32.6683 -42.7054 -3.5025
v 69.5455 -38.4872 -7.0759
v 73.1135 -40.7473 -4.2593
v 29.8319 -31.3725 -7.2383
v 34.0110 -28.8894 -4.5300
v 64.3264 -27.1945 -3.3609
v 66.8466 -30.3555 -6.5369
v 31.4532 -25.9290 -9.8633
v 36.9234 -23.3664 -7.5756
v 44.9788 -20.2759 -7.6931
v 52.3845 -20.5003 -7.3009
v 61.1497 -24.3128 -6.5369
v 65.4547 -26.1771 -8.6942
v 39.8357 -18.8206 -10.6213
v 42.7083 -18.8206 -10.6213
v -41.9729 26.4495 -7.3009
v -35.6155 24.5791 -7.3009
v -27.6155 26.3678 -7.3009
v -22.0484 28.2382 -7.3009
v -50.1862 34.8635 -7.3009
v -45.9729 30.8635 -7.3009
v -18.0484 31.0402 -7.3009
v -12.1829 34.0423 -7.1478
v -6.7001 34.6188 -4.3790
v -52.2340 40.9030 -7.3009
v -10.5325 41.3867 -7.1478
v -6.7001 39.0426 -4.3790
v -49.7003 48.6460 -7.3518
v -45.6448 51.1414 -4.7191
v -15.8594 52.4710 -3.5555
v -13.2722 49.4438 -6.6537
v -48.3597 53.8159 -10.0525
v -42.8579 56.3678 -7.6718
v -35.6261 58.6203 -7.6950
v -27.6155 58.0164 -7.3009
v -18.9618 55.3518 -6.6537
v -14.4606 53.6786 -8.8889
v -40.0710 61.1731 -10.6244
v -38.2998 61.1731 -10.6244
v 23.5105 -51.6876 0.6991
v 25.7660 -51.6876 0.6991
v 37.9662 -53.0841 0.6991
v 44.3845 -54.5606 0.6991
v 50.4959 -52.5735 0.6991
v 16.2478 -43.5013 4.4738
v 21.1351 -46.6751 0.7627
v 27.9722 -47.2035 -0.3120
v 33.8201 -47.1737 0.0743
v 54.2769 -47.5752 1.1895
v 60.3845 -45.4726 -1.2190
v 68.3845 -45.1681 -2.1214
v 73.1135 -44.8214 -2.3535
v 16.2478 -42.5963 4.4738
v 20.3235 -39.5966 2.0729
v 28.3988 -39.6620 -2.4168
v 32.6683 -42.7054 -3.0089
v 54.4960 -39.0970 3.3082
v 60.3845 -39.0970 0.2282
v 68.9067 -38.4872 -1.9964
v 73.1135 -40.7473 -2.3535
v 22.9496 -33.8490 2.8615
v 28.3988 -33.1761 0.3965
v 36.5604 -30.2392 0.2746
v 44.3845 -28.9861 2.7068
v 52.2704 -30.6940 2.8798
v 61.1497 -30.3555 -1.1900
v 66.5882 -32.5278 -2.6994
v 39.3443 -26.1371 -2.6751
v 44.3845 -24.4677 -1.2932
v 52.3845 -23.8540 -0.5711
v 58.9931 -25.3188 -1.7123
v -56.6265 28.0694 2.1005
v -53.6340 28.0694 2.1005
v -42.5037 26.4749 0.6991
v -35.6155 24.6077 0.6991
v -27.9475 27.3125 0.0372
v -23.1635 28.7417 -3.0708
v -57.9352 32.9030 1.4093
v -51.2751 32.8355 -0.1608
v -46.5037 30.8018 0.6991
v -25.7208 32.9030 2.3160
v -20.1443 32.8444 -1.4442
v -11.6155 34.1166 -1.8083
v -6.7001 34.6188 -2.2492
v -58.0885 40.9030 2.2009
v -53.3917 40.9030 -1.7991
v -25.2419 40.9030 3.2707
v -19.6155 40.9030 0.3766
v -11.3852 41.3867 -1.7852
v -6.7001 39.0426 -2.2492
v -56.8308 46.0548 3.1560
v -51.4560 46.8220 0.5733
v -43.2331 49.7286 0.1285
v -35.6155 50.7777 2.2841
v -27.5644 49.2051 2.8007
v -18.9618 49.4438 -1.1163
v -13.8984 47.1376 -2.7648
v -40.3115 53.5864 -2.9185
v -35.6155 54.6345 -1.7159
v -27.6155 55.2184 -0.8012
v -21.1927 54.3648 -1.6990
v 30.9569 -59.6365 11.9064
v 33.0861 -59.6365 11.9064
v 16.3813 -51.1028 12.6892
v 20.6466 -52.3410 9.4932
v 28.3745 -54.7974 8.7772
v 36.2121 -53.9224 9.0516
v 44.3845 -52.6736 6.7645
v 49.0135 -51.9399 5.4532
v 16.0319 -46.5396 9.4932
v 18.1547 -48.8346 7.3559
v 31.1255 -49.8914 5.6479
v 36.8875 -48.2946 9.2590
v 44.3845 -47.0970 9.3612
v 50.1104 -47.0970 6.0930
v 15.6917 -39.5966 8.7986
v 17.6162 -37.2630 6.1982
v 39.1889 -39.0970 11.3983
v 44.3845 -39.0970 8.7811
v 50.4960 -39.0970 6.0819
v 15.8143 -33.8071 11.5316
v 20.6391 -31.1614 9.1965
v 28.0648 -29.4663 9.1965
v 36.4615 -32.9295 8.6438
v 44.3845 -32.9861 6.1844
v 49.5276 -33.0920 5.4383
v 23.6620 -26.9066 12.1947
v 25.1849 -26.9066 12.1947
v -49.3752 20.1400 11.7456
v -46.7014 20.1400 11.7456
v -58.2333 27.0446 8.6991
v -51.5046 24.9974 8.5077
v -43.9116 25.9872 8.6322
v -35.6155 26.9230 6.5832
v -30.8356 27.7333 5.6513
v -63.9350 34.6054 11.1784
v -62.1589 32.3244 8.5867
v -48.3006 30.0478 5.2698
v -43.3137 31.6793 8.9258
v -35.6155 32.9030 9.8183
v -29.7208 32.9030 6.8496
v -64.1655 40.9030 10.9832
v -62.0885 40.9030 6.9832
v -40.7842 40.9030 11.4365
v -35.6155 40.9030 9.4430
v -29.2419 40.9030 6.7056
v -64.0293 45.7313 11.9320
v -58.9621 48.5597 9.5895
v -52.3161 50.2723 9.4278
v -43.5360 46.7789 8.6499
v -35.6155 46.7777 6.2078
v -30.1970 46.7398 5.4593
v -55.7601 52.9513 12.5802
v -55.4499 52.9513 12.5802
v 23.6743 -59.5761 19.4278
v 28.2912 -59.6063 16.7621
v 33.0861 -59.6365 14.0964
v 16.3813 -51.1028 12.7162
v 20.5671 -54.5255 16.0720
v 28.2912 -57.8560 16.7621
v 35.5199 -55.0971 16.7375
v 15.8243 -47.0788 15.9094
v 17.4599 -49.7333 18.0496
v 39.3412 -47.0970 16.6991
v 15.4841 -38.5297 17.2844
v 16.6021 -35.4848 20.3413
v 37.9516 -39.0970 16.6991
v 15.8143 -33.8071 15.0080
v 20.1320 -30.5600 17.4811
v 28.0648 -28.8071 17.0521
v 34.3880 -33.0726 16.6991
v 23.6620 -26.9066 14.6208
v 25.1849 -26.9066 14.6208
v -56.3828 20.2123 19.0895
v -51.5638 20.1762 16.8905
v -46.7014 20.1400 14.6915
v -58.5088 24.7164 16.5334
v -51.5638 21.7716 16.8905
v -43.6367 25.1142 17.3297
v -39.4548 28.6108 19.9679
v -64.0087 34.6229 16.6991
v -62.6566 30.6229 16.6991
v -40.6009 32.9030 15.2995
v -39.4461 32.9030 19.2995
v -64.1783 40.7036 16.7896
v -62.8246 43.2373 19.5166
v -41.5371 40.2484 16.8182
v -39.5504 37.1453 19.5642
v -64.0293 45.7313 14.1833
v -59.2923 48.8942 16.2767
v -52.3161 50.4888 16.1017
v -45.7494 46.5197 16.6991
v -55.7601 52.9513 13.0368
v -55.4499 52.9513 13.0368
v 23.6743 -59.5761 21.7027
v 25.6255 -59.5761 21.7027
v 22.6584 -55.0970 23.2887
v 27.8132 -54.7979 25.0922
v 34.7131 -52.6484 24.6991
v 15.9018 -44.4000 23.3298
v 19.6000 -47.6447 25.9058
v 24.6675 -50.8893 28.4817
v 36.9171 -47.0970 24.6991
v 15.9018 -40.8181 23.3298
v 17.8577 -38.5297 25.4775
v 37.1220 -39.0970 24.6991
v 22.2093 -32.5409 24.6991
v 28.3845 -31.0726 24.6991
v 34.9180 -33.6287 24.6991
v -56.3828 20.2123 22.0018
v -53.7523 20.2123 22.0018
v -57.1707 25.6924 24.6807
v -51.2976 24.0974 24.6807
v -44.1313 27.1326 24.0374
v -39.4548 28.6108 20.9296
v -63.8202 36.1605 21.9926
v -60.9099 33.2575 24.6752
v -42.4034 32.9030 25.1407
v -39.4461 32.9030 21.1407
v -63.8202 37.9040 21.9926
v -61.0684 40.7036 24.6752
v -42.0452 40.2484 24.1141
v -39.5504 37.1453 21.0574
v -57.1822 46.5864 24.6991
v -51.6155 47.9210 24.6991
v -45.5095 46.2376 24.6991
v 30.0008 -51.8319 29.1959
v 32.9412 -51.8319 29.1959
v 21.7401 -45.5560 30.1878
v 27.7543 -47.7724 30.0102
v 33.1505 -47.0970 29.2215
v 22.0628 -39.0970 30.5312
v 28.3845 -39.0970 32.4015
v 34.3593 -39.0970 30.5693
v 23.9334 -34.1395 29.6532
v 28.3845 -33.6421 31.1351
v 34.5529 -34.1146 30.9930
v -55.8649 28.8854 28.7041
v -51.6155 28.3599 28.9900
v -47.1419 28.1965 29.0819
v -57.0520 32.9030 29.6969
v -51.6155 32.9030 30.3369
v -46.4034 32.9030 29.3391
v -57.0248 40.9030 29.9720
v -51.6155 40.9030 32.1554
v -45.4193 40.9030 30.8825
v -55.8287 45.3267 29.0710
v -51.6155 45.9304 30.8085
v -45.8298 45.8491 31.1397
f 6 1 5
f 6 2 1
f 7 2 6
f 7 3 2
f 9 4 8
f 9 5 4
f 15 10 14
f 15 11 10
f 16 11 15
f 16 12 11
f 18 13 17
f 18 14 13
f 24 19 23
f 24 20 19
f 25 1 2
f 25 24 1
f 24 21 20
f 24 25 21
f 26 2 3
f 26 25 2
f 28 22 27
f 28 23 22
f 29 1 24
f 29 5 1
f 29 4 5
f 29 28 4
f 28 24 23
f 28 29 24
f 30 6 5
f 30 5 29
f 26 3 7
f 26 7 31
f 7 6 30
f 7 30 31
f 28 8 4
f 28 34 8
f 33 28 27
f 33 34 28
f 29 5 9
f 29 9 35
f 35 9 8
f 35 8 34
f 35 30 29
f 35 36 30
f 37 30 36
f 37 31 30
f 38 31 37
f 38 32 31
f 39 35 34
f 39 40 35
f 40 36 35
f 40 41 36
f 42 36 41
f 42 37 36
f 48 43 47
f 48 44 43
f 49 10 11
f 49 48 10
f 49 44 48
f 49 45 44
f 12 49 11
f 12 50 49
f 53 46 52
f 53 47 46
f 54 10 48
f 54 14 10
f 54 13 14
f 54 53 13
f 53 48 47
f 53 54 48
f 15 14 54
f 15 54 55
f 50 12 16
f 50 16 56
f 16 15 55
f 16 55 56
f 56 51 50
f 56 57 51
f 53 17 13
f 53 59 17
f 58 53 52
f 58 59 53
f 54 14 18
f 54 18 60
f 60 18 17
f 60 17 59
f 60 55 54
f 60 61 55
f 62 55 61
f 62 56 55
f 63 56 62
f 63 57 56
f 64 60 59
f 64 65 60
f 65 61 60
f 65 66 61
f 67 61 66
f 67 62 61
f 69 19 20
f 69 68 19
f 21 69 20
f 21 70 69
f 74 19 68
f 74 23 19
f 74 22 23
f 74 73 22
f 75 70 21
f 75 21 25
f 26 75 25
f 26 76 75
f 75 71 70
f 75 76 71
f 73 27 22
f 73 79 27
f 79 72 78
f 79 73 72
f 80 76 26
f 80 26 31
f 32 80 31
f 32 81 80
f 80 77 76
f 80 81 77
f 79 33 27
f 79 82 33
f 83 34 33
f 83 33 82
f 81 32 38
f 81 38 85
f 38 37 84
f 38 84 85
f 83 39 34
f 83 87 39
f 86 83 82
f 86 87 83
f 88 40 39
f 88 39 87
f 89 41 40
f 89 40 88
f 84 37 42
f 84 42 90
f 42 41 89
f 42 89 90
f 91 84 90
f 91 85 84
f 92 88 87
f 92 93 88
f 95 43 44
f 95 94 43
f 45 95 44
f 45 96 95
f 99 43 94
f 99 47 43
f 99 46 47
f 99 98 46
f 100 96 45
f 100 45 49
f 50 100 49
f 50 101 100
f 100 97 96
f 100 101 97
f 51 101 50
f 51 102 101
f 103 46 98
f 103 52 46
f 104 102 51
f 104 51 57
f 103 58 52
f 103 105 58
f 106 59 58
f 106 58 105
f 104 57 63
f 104 63 108
f 63 62 107
f 63 107 108
f 106 64 59
f 106 110 64
f 109 106 105
f 109 110 106
f 111 65 64
f 111 64 110
f 112 66 65
f 112 65 111
f 107 62 67
f 107 67 113
f 67 66 112
f 67 112 113
f 114 107 113
f 114 108 107
f 115 111 110
f 115 116 111
f 120 68 69
f 120 119 68
f 70 120 69
f 70 121 120
f 71 121 70
f 71 122 121
f 124 72 73
f 124 123 72
f 123 118 117
f 123 124 118
f 119 74 68
f 119 125 74
f 125 73 74
f 125 124 73
f 127 122 71
f 127 71 76
f 126 121 122
f 126 122 127
f 77 127 76
f 77 128 127
f 130 72 123
f 130 78 72
f 79 78 130
f 79 130 131
f 130 123 124
f 130 124 131
f 132 131 124
f 132 124 125
f 133 128 77
f 133 77 81
f 134 128 133
f 134 129 128
f 135 79 131
f 135 82 79
f 133 81 85
f 133 85 138
f 139 82 135
f 139 86 82
f 87 86 139
f 87 139 140
f 139 135 136
f 139 136 140
f 142 89 88
f 142 88 141
f 90 89 142
f 90 142 143
f 138 85 91
f 138 91 144
f 91 90 143
f 91 143 144
f 144 143 137
f 144 137 138
f 140 92 87
f 140 145 92
f 141 88 93
f 141 93 146
f 93 92 145
f 93 145 146
f 145 140 141
f 145 141 146
f 148 94 95
f 148 147 94
f 149 95 96
f 149 148 95
f 97 149 96
f 97 150 149
f 147 99 94
f 147 152 99
f 152 98 99
f 152 151 98
f 153 150 97
f 153 97 101
f 102 153 101
f 102 154 153
f 151 103 98
f 151 156 103
f 154 102 104
f 154 104 157
f 158 154 157
f 158 155 154
f 159 103 156
f 159 105 103
f 157 104 108
f 157 108 162
f 163 105 159
f 163 109 105
f 110 109 163
f 110 163 164
f 163 159 160
f 163 160 164
f 166 112 111
f 166 111 165
f 113 112 166
f 113 166 167
f 162 108 114
f 162 114 168
f 114 113 167
f 114 167 168
f 168 167 161
f 168 161 162
f 164 115 110
f 164 169 115
f 165 111 116
f 165 116 170
f 116 115 169
f 116 169 170
f 169 164 165
f 169 165 170
f 118 171 117
f 118 172 171
f 174 119 120
f 174 173 119
f 175 120 121
f 175 174 120
f 177 117 171
f 177 123 117
f 178 172 118
f 178 118 124
f 178 124 123
f 178 123 177
f 173 125 119
f 173 179 125
f 175 121 126
f 175 126 180
f 181 126 127
f 181 180 126
f 128 181 127
f 128 182 181
f 129 182 128
f 129 183 182
f 185 176 184
f 185 177 176
f 186 177 185
f 186 178 177
f 179 132 125
f 179 187 132
f 132 186 131
f 132 187 186
f 187 178 186
f 187 179 178
f 188 180 181
f 188 181 189
f 189 181 182
f 189 182 190
f 183 129 134
f 183 134 191
f 134 133 190
f 134 190 191
f 191 190 182
f 191 182 183
f 193 131 186
f 193 135 131
f 192 186 185
f 192 193 186
f 136 135 193
f 136 193 194
f 197 196 188
f 197 188 189
f 198 190 133
f 198 133 138
f 198 138 137
f 198 137 197
f 198 197 189
f 198 189 190
f 199 136 194
f 199 140 136
f 141 140 199
f 141 199 200
f 199 194 195
f 199 195 200
f 142 141 200
f 142 200 201
f 201 200 195
f 201 195 196
f 202 197 137
f 202 137 143
f 202 143 142
f 202 142 201
f 202 201 196
f 202 196 197
f 206 147 148
f 206 205 147
f 207 148 149
f 207 206 148
f 208 149 150
f 208 207 149
f 209 204 203
f 209 210 204
f 205 152 147
f 205 211 152
f 152 210 151
f 152 211 210
f 208 150 153
f 208 153 213
f 212 207 208
f 212 208 213
f 214 153 154
f 214 213 153
f 155 214 154
f 155 215 214
f 217 151 210
f 217 156 151
f 217 209 216
f 217 210 209
f 219 218 212
f 219 212 213
f 219 213 214
f 219 214 220
f 215 155 158
f 215 158 221
f 158 157 220
f 158 220 221
f 221 220 214
f 221 214 215
f 223 156 217
f 223 159 156
f 222 217 216
f 222 223 217
f 160 159 223
f 160 223 224
f 227 226 218
f 227 218 219
f 228 220 157
f 228 157 162
f 228 162 161
f 228 161 227
f 228 227 219
f 228 219 220
f 229 160 224
f 229 164 160
f 165 164 229
f 165 229 230
f 229 224 225
f 229 225 230
f 166 165 230
f 166 230 231
f 231 230 225
f 231 225 226
f 232 227 161
f 232 161 167
f 232 167 166
f 232 166 231
f 232 231 226
f 232 226 227
f 237 171 172
f 237 236 171
f 237 234 233
f 237 238 234
f 239 173 174
f 239 238 173
f 240 174 175
f 240 239 174
f 242 171 236
f 242 177 171
f 242 176 177
f 242 241 176
f 242 235 241
f 242 236 235
f 243 237 172
f 243 172 178
f 244 173 238
f 244 179 173
f 179 243 178
f 179 244 243
f 243 238 237
f 243 244 238
f 244 238 239
f 244 239 245
f 246 240 175
f 246 175 180
f 245 239 240
f 245 240 246
f 247 176 241
f 247 184 176
f 248 185 184
f 248 184 247
f 249 244 245
f 249 245 250
f 246 180 188
f 246 188 251
f 250 245 246
f 250 246 251
f 248 192 185
f 248 253 192
f 252 248 247
f 252 253 248
f 254 193 192
f 254 192 253
f 255 194 193
f 255 193 254
f 256 195 194
f 256 194 255
f 256 255 249
f 256 249 250
f 257 251 188
f 257 188 196
f 257 196 195
f 257 195 256
f 257 256 250
f 257 250 251
f 258 254 253
f 258 259 254
f 204 262 203
f 204 263 262
f 263 261 260
f 263 264 261
f 265 205 206
f 265 264 205
f 266 206 207
f 266 265 206
f 262 209 203
f 262 268 209
f 269 263 204
f 269 204 210
f 264 211 205
f 264 270 211
f 211 269 210
f 211 270 269
f 269 264 263
f 269 270 264
f 270 264 265
f 270 265 271
f 266 207 212
f 266 212 272
f 271 265 266
f 271 266 272
f 274 209 268
f 274 216 209
f 274 267 273
f 274 268 267
f 275 270 271
f 275 271 276
f 277 272 212
f 277 212 218
f 276 271 272
f 276 272 277
f 274 222 216
f 274 279 222
f 278 274 273
f 278 279 274
f 280 223 222
f 280 222 279
f 281 224 223
f 281 223 280
f 282 225 224
f 282 224 281
f 282 281 275
f 282 275 276
f 283 277 218
f 283 218 226
f 283 226 225
f 283 225 282
f 282 276 277
f 282 277 283
f 284 280 279
f 284 285 280
f 288 233 234
f 288 287 233
f 236 289 235
f 236 290 289
f 291 233 287
f 291 237 233
f 237 290 236
f 237 291 290
f 291 286 290
f 291 287 286
f 292 288 234
f 292 234 238
f 291 287 288
f 291 288 292
f 293 235 289
f 293 241 235
f 294 293 289
f 294 289 290
f 292 238 244
f 292 244 295
f 293 247 241
f 293 296 247
f 295 244 249
f 295 249 298
f 296 252 247
f 296 299 252
f 253 252 299
f 253 299 300
f 299 296 297
f 299 297 300
f 302 298 249
f 302 249 255
f 302 255 254
f 302 254 301
f 300 258 253
f 300 303 258
f 301 254 259
f 301 259 304
f 259 258 303
f 259 303 304
f 303 300 301
f 303 301 304
f 307 260 261
f 307 306 260
f 309 260 306
f 309 263 260
f 263 308 262
f 263 309 308
f 309 305 308
f 309 306 305
f 310 307 261
f 310 261 264
f 309 306 307
f 309 307 310
f 313 262 308
f 313 268 262
f 313 267 268
f 313 312 267
f 314 310 264
f 314 264 270
f 314 311 310
f 314 315 311
f 316 267 312
f 316 273 267
f 314 270 275
f 314 275 318
f 319 314 318
f 319 315 314
f 320 273 316
f 320 278 273
f 321 279 278
f 321 278 320
f 320 316 317
f 320 317 321
f 323 318 275
f 323 275 281
f 323 281 280
f 323 280 322
f 324 279 321
f 324 284 279
f 322 280 285
f 322 285 325
f 285 284 324
f 285 324 325
f 324 321 322
f 324 322 325
f 327 286 287
f 327 326 286
f 328 286 326
f 328 290 286
f 327 287 291
f 327 291 329
f 328 326 327
f 328 327 329
f 292 329 291
f 292 330 329
f 328 294 290
f 328 332 294
f 294 331 293
f 294 332 331
f 333 332 328
f 333 328 329
f 330 292 295
f 330 295 334
f 331 296 293
f 331 335 296
f 297 296 335
f 297 335 336
f 336 335 331
f 336 331 332
f 334 295 298
f 334 298 337
f 338 297 336
f 338 300 297
f 301 300 338
f 301 338 339
f 340 337 298
f 340 298 302
f 302 301 339
f 302 339 340
f 342 305 306
f 342 341 305
f 341 308 305
f 341 343 308
f 342 306 309
f 342 309 344
f 344 343 341
f 344 341 342
f 310 344 309
f 310 345 344
f 311 345 310
f 311 346 345
f 343 313 308
f 343 348 313
f 313 347 312
f 313 348 347
f 350 346 311
f 350 311 315
f 349 345 346
f 349 346 350
f 351 312 347
f 351 316 312
f 317 316 351
f 317 351 352
f 352 351 347
f 352 347 348
f 350 315 319
f 350 319 354
f 354 319 318
f 354 318 353
f 354 353 349
f 354 349 350
f 355 317 352
f 355 321 317
f 322 321 355
f 322 355 356
f 353 318 323
f 353 323 357
f 323 322 356
f 323 356 357
f 330 358 329
f 330 359 358
f 358 333 329
f 358 361 333
f 333 360 332
f 333 361 360
f 362 359 330
f 362 330 334
f 362 361 358
f 362 358 359
f 360 336 332
f 360 363 336
f 364 363 360
f 364 360 361
f 362 334 337
f 362 337 365
f 364 361 362
f 364 362 365
f 366 336 363
f 366 338 336
f 339 338 366
f 339 366 367
f 366 363 364
f 366 364 367
f 365 337 340
f 365 340 368
f 340 339 367
f 340 367 368
f 368 367 364
f 368 364 365
f 370 343 344
f 370 369 343
f 371 344 345
f 371 370 344
f 369 348 343
f 369 372 348
f 373 372 369
f 373 369 370
f 371 345 349
f 371 349 374
f 373 370 371
f 373 371 374
f 375 348 372
f 375 352 348
f 375 372 373
f 375 373 376
f 374 349 353
f 374 353 377
f 376 373 374
f 376 374 377
f 375 355 352
f 375 378 355
f 356 355 378
f 356 378 379
f 378 375 376
f 378 376 379
f 377 353 357
f 377 357 380
f 357 356 379
f 357 379 380
f 380 379 376
f 380 376 377
