# parsimony mesh: cplx_CPLX0-8128 (source /Users/eranagmon/code/v2e-cplx/workspace/studies/ecoli-3d/viz/3d/structures/cplx_CPLX0-8128.pdb)
# atoms: 4184  voxel: 16 Å  verts: 150  tris: 274
v 10.4743 12.5984 -68.8626
v 19.2298 10.0817 -70.2007
v 29.5891 11.6958 -70.3083
v 10.4743 16.7921 -68.8626
v 19.2298 18.1696 -70.2007
v 29.5891 18.2860 -70.3083
v 8.7701 -0.8822 -57.1220
v 14.7836 -0.8822 -57.1220
v -6.1366 13.4938 -54.7197
v 4.2888 7.7128 -61.2542
v 19.7621 3.1770 -61.6152
v 29.7304 10.6613 -60.3550
v -6.1366 19.2250 -54.7197
v 4.4551 23.3419 -59.4487
v 18.9962 25.4544 -59.4486
v 29.7304 19.3628 -60.3550
v 9.1025 33.0468 -53.5110
v 13.5072 33.0468 -53.5110
v 8.4982 -0.9813 -44.3550
v 14.5706 -0.9813 -44.3550
v -6.1448 13.3843 -44.3550
v 0.4982 5.3843 -44.3550
v 21.2877 8.1339 -45.3405
v 28.2046 13.3712 -51.3308
v -6.1448 18.9517 -44.3550
v 3.5534 25.9370 -45.1632
v 18.5229 23.5972 -45.8497
v 28.2046 18.3830 -51.3308
v 9.1025 33.0468 -51.0353
v 13.5072 33.0468 -51.0353
v 10.5335 -48.6634 -21.1181
v 19.2298 -49.1303 -21.5537
v 28.6033 -48.6584 -21.1901
v 10.5335 -45.9468 -21.1181
v 19.2298 -44.6410 -21.5537
v 28.6033 -45.3893 -21.1901
v -36.8734 0.2052 -20.4306
v -36.5588 0.2052 -20.4306
v 10.0474 -0.2409 -35.4443
v 12.1303 -0.2409 -35.4443
v -37.6914 8.2779 -21.0577
v -34.9547 8.2779 -21.0577
v -5.2365 15.2038 -35.8686
v 4.1203 9.2334 -34.6148
v 13.1368 8.2779 -34.5445
v -37.8952 17.1820 -21.2164
v -34.5610 17.1820 -21.2164
v -5.2365 16.8959 -35.8686
v 3.2298 18.1415 -34.8628
v 12.8720 18.1447 -34.8517
v 7.4779 -49.8173 -12.3550
v 19.2298 -51.7551 -12.3550
v 29.7286 -49.6599 -12.3550
v 6.4442 -40.2570 -12.3005
v 19.2298 -36.6410 -16.3727
v 30.1195 -39.9224 -12.4237
v 8.2562 -29.4584 -6.9308
v 19.2298 -29.0249 -8.3728
v 28.7142 -30.3896 -7.1362
v -39.8459 -0.6580 -12.3550
v -35.0597 -0.6580 -12.3550
v -54.8543 12.0156 -6.0743
v -46.3058 7.3205 -11.7866
v -27.6763 9.5006 -11.2873
v -20.4787 15.6492 -5.2421
v -54.3667 24.2779 -5.6770
v -44.8818 24.3929 -10.5697
v -29.0447 19.9216 -11.2873
v -20.4787 16.7872 -5.2421
v -52.8148 32.3210 -4.3984
v -51.8683 32.3210 -4.3984
v 5.2084 -50.4877 3.6450
v 19.3176 -50.9231 3.3972
v 29.1880 -49.3696 -2.1013
v -4.9105 -32.5262 11.1687
v -1.7715 -38.6046 4.9592
v 22.0935 -39.7221 6.9202
v 29.8118 -39.7221 -1.0798
v -4.9105 -31.6010 11.1687
v 3.0456 -29.8944 4.9592
v 18.2330 -29.1676 3.3130
v 28.7142 -30.3896 -2.2417
v -53.5844 -0.5485 7.9302
v -45.5689 -1.2981 3.0161
v -34.6974 -1.0724 3.6450
v -55.6733 7.3205 3.0161
v -51.4347 1.3489 -2.7365
v -28.4978 9.5006 2.2572
v -20.4787 15.6492 -4.0013
v -55.2116 23.9425 2.1039
v -45.8291 27.2211 2.1039
v -30.1560 19.8621 2.2572
v -20.4787 16.7872 -4.0013
v -52.8148 32.3210 -4.2569
v -51.8683 32.3210 -4.2569
v 7.5075 -49.5573 16.0057
v 14.0428 -49.5573 16.0057
v -4.9105 -32.5262 11.8370
v 2.5964 -38.6046 15.3222
v 14.0935 -39.7221 16.0975
v -4.9105 -31.6010 11.8370
v 3.2298 -31.1353 12.9711
v 12.2351 -31.0609 13.2210
v -53.5844 -0.5485 13.8449
v -44.7702 -0.8107 14.0861
v -36.0758 -0.3473 12.6999
v -54.8361 8.2779 15.0741
v -44.7702 8.2779 16.2718
v -35.9816 8.2779 12.8427
v -54.7105 18.3856 14.0172
v -44.7702 18.4624 13.8307
v -36.4132 17.0828 12.1870
v 10.3085 -0.2557 42.6664
v 16.4627 -0.2557 42.6664
v 8.2264 8.2779 41.4479
v 20.7695 6.6988 39.9814
v 30.0025 10.9795 40.4684
v 8.1466 18.2860 41.6942
v 19.2298 19.5976 39.7995
v 30.0025 18.6961 40.4684
v 8.8160 -1.0912 51.6450
v 17.4014 -1.0912 51.6450
v -5.7044 14.4985 56.8609
v 1.0488 8.8103 51.5746
v 25.4014 3.6766 51.6450
v 29.4803 11.6766 51.6450
v -5.7044 18.1465 56.8609
v 3.9067 23.5496 52.5123
v 18.3308 25.7853 52.7563
v 29.4803 18.6561 51.6450
v 10.3335 32.6214 58.8304
v 12.3981 32.6214 58.8304
v 9.2239 -0.8145 67.6450
v 13.6461 -0.8145 67.6450
v -5.7044 14.4985 62.4297
v 1.6989 8.8103 67.7159
v 20.1216 9.3759 66.2136
v 27.4577 15.4412 59.9260
v -5.7044 18.1465 62.4297
v 4.1765 23.2114 66.7172
v 17.6129 22.6534 65.4653
v 27.4577 17.0305 59.9260
v 10.3335 32.6214 60.3381
v 12.3981 32.6214 60.3381
v 10.8523 0.1132 75.8487
v 11.4557 0.1132 75.8487
v 9.0390 8.2779 76.3443
v 12.0976 8.2779 76.3443
v 8.6862 17.6096 76.3737
v 12.1610 17.6096 76.3737
f 5 1 4
f 5 2 1
f 5 3 2
f 5 6 3
f 11 1 2
f 11 10 1
f 11 7 10
f 11 8 7
f 12 2 3
f 12 11 2
f 10 4 1
f 10 14 4
f 14 9 13
f 14 10 9
f 15 5 4
f 15 4 14
f 12 3 6
f 12 6 16
f 16 6 5
f 16 5 15
f 17 15 14
f 17 18 15
f 20 7 8
f 20 19 7
f 22 7 19
f 22 10 7
f 22 9 10
f 22 21 9
f 23 20 8
f 23 8 11
f 24 11 12
f 24 23 11
f 25 9 21
f 25 13 9
f 26 14 13
f 26 13 25
f 24 12 16
f 24 16 28
f 28 16 15
f 28 15 27
f 28 27 23
f 28 23 24
f 26 17 14
f 26 29 17
f 30 27 15
f 30 15 18
f 30 29 26
f 30 26 27
f 34 32 31
f 34 35 32
f 36 32 35
f 36 33 32
f 40 19 20
f 40 39 19
f 41 38 37
f 41 42 38
f 39 22 19
f 39 44 22
f 22 43 21
f 22 44 43
f 45 40 20
f 45 20 23
f 45 44 39
f 45 39 40
f 46 42 41
f 46 47 42
f 48 21 43
f 48 25 21
f 49 26 25
f 49 25 48
f 49 48 43
f 49 43 44
f 50 45 23
f 50 23 27
f 50 27 26
f 50 26 49
f 50 49 44
f 50 44 45
f 52 31 32
f 52 51 31
f 33 52 32
f 33 53 52
f 51 34 31
f 51 54 34
f 55 35 34
f 55 34 54
f 53 33 36
f 53 36 56
f 36 35 55
f 36 55 56
f 57 55 54
f 57 58 55
f 59 55 58
f 59 56 55
f 61 37 38
f 61 60 37
f 60 41 37
f 60 63 41
f 61 38 42
f 61 42 64
f 63 46 41
f 63 67 46
f 67 62 66
f 67 63 62
f 64 42 47
f 64 47 68
f 68 47 46
f 68 46 67
f 68 65 64
f 68 69 65
f 71 66 70
f 71 67 66
f 73 51 52
f 73 72 51
f 74 52 53
f 74 73 52
f 72 54 51
f 72 76 54
f 74 53 56
f 74 56 78
f 77 73 74
f 77 74 78
f 76 57 54
f 76 80 57
f 79 76 75
f 79 80 76
f 81 58 57
f 81 57 80
f 78 56 59
f 78 59 82
f 82 59 58
f 82 58 81
f 82 81 77
f 82 77 78
f 85 60 61
f 85 84 60
f 87 60 84
f 87 63 60
f 87 62 63
f 87 86 62
f 87 83 86
f 87 84 83
f 88 85 61
f 88 61 64
f 89 64 65
f 89 88 64
f 90 62 86
f 90 66 62
f 92 68 67
f 92 67 91
f 89 65 69
f 89 69 93
f 93 69 68
f 93 68 92
f 92 88 89
f 92 89 93
f 94 66 90
f 94 70 66
f 91 67 71
f 91 71 95
f 94 90 91
f 94 91 95
f 97 72 73
f 97 96 72
f 99 72 96
f 99 76 72
f 76 98 75
f 76 99 98
f 97 73 77
f 97 77 100
f 100 99 96
f 100 96 97
f 98 79 75
f 98 101 79
f 102 80 79
f 102 79 101
f 102 101 98
f 102 98 99
f 103 100 77
f 103 77 81
f 103 81 80
f 103 80 102
f 103 102 99
f 103 99 100
f 105 83 84
f 105 104 83
f 106 84 85
f 106 105 84
f 107 83 104
f 107 86 83
f 108 107 104
f 108 104 105
f 109 106 85
f 109 85 88
f 109 108 105
f 109 105 106
f 110 86 107
f 110 90 86
f 111 91 90
f 111 90 110
f 110 107 108
f 110 108 111
f 112 109 88
f 112 88 92
f 112 92 91
f 112 91 111
f 112 111 108
f 112 108 109
f 115 114 113
f 115 116 114
f 119 115 118
f 119 116 115
f 119 117 116
f 119 120 117
f 122 113 114
f 122 121 113
f 121 115 113
f 121 124 115
f 125 122 114
f 125 114 116
f 117 125 116
f 117 126 125
f 124 118 115
f 124 128 118
f 127 124 123
f 127 128 124
f 129 119 118
f 129 118 128
f 126 117 120
f 126 120 130
f 130 120 119
f 130 119 129
f 131 129 128
f 131 132 129
f 134 121 122
f 134 133 121
f 136 121 133
f 136 124 121
f 124 135 123
f 124 136 135
f 137 134 122
f 137 122 125
f 138 125 126
f 138 137 125
f 135 127 123
f 135 139 127
f 128 127 139
f 128 139 140
f 139 135 136
f 139 136 140
f 138 126 130
f 138 130 142
f 142 130 129
f 142 129 141
f 142 141 137
f 142 137 138
f 143 128 140
f 143 131 128
f 144 141 129
f 144 129 132
f 143 140 141
f 143 141 144
f 146 133 134
f 146 145 133
f 147 133 145
f 147 136 133
f 148 146 134
f 148 134 137
f 149 136 147
f 149 140 136
f 150 148 137
f 150 137 141
f 150 141 140
f 150 140 149
