# parsimony mesh: cplx_CPLX0-8053 (source /Users/eranagmon/code/v2e-cplx/workspace/studies/ecoli-3d/viz/3d/structures/cplx_CPLX0-8053.pdb)
# atoms: 4853  voxel: 16 Å  verts: 115  tris: 226
v 28.5852 -8.1670 -45.7019
v 33.4764 -8.1670 -45.7019
v 27.0467 0.9527 -47.3218
v 38.8151 1.6300 -47.1222
v 47.2136 7.4148 -45.0752
v 28.2494 16.9527 -46.9287
v 38.0044 16.1213 -46.8077
v 47.2136 10.2336 -45.0752
v 30.1887 25.5034 -45.1778
v 32.1252 25.5034 -45.1778
v 12.9333 -9.2438 -31.0796
v 23.0804 -10.4534 -36.4281
v 33.9517 -9.6575 -36.4509
v 12.9333 -3.0595 -31.0796
v 19.1835 1.7454 -36.4281
v 42.4150 1.6300 -35.8829
v 47.2136 7.4148 -40.8376
v 23.4260 16.9527 -36.4509
v 43.1052 16.1213 -35.8829
v 47.2136 10.2336 -40.8376
v 28.2971 28.3858 -36.4509
v 34.8145 28.3858 -36.4509
v -17.2743 -23.1096 -12.5208
v -9.1768 -23.3074 -12.7992
v 0.0347 -23.3318 -12.8454
v -18.6313 -15.0473 -13.3028
v -9.1768 -15.0473 -14.4625
v 6.4840 -15.1553 -18.5574
v 22.8232 -13.9143 -20.4509
v 32.5809 -9.7523 -20.4509
v -19.0187 -5.3590 -13.5169
v -9.1768 -4.8714 -14.1142
v 8.3353 0.8864 -19.1633
v 16.4590 7.6072 -24.7241
v 38.9775 0.9527 -20.4509
v 14.2208 16.9527 -14.5582
v 17.9998 16.9527 -22.5582
v 42.4395 16.9527 -20.4509
v 14.4393 25.8005 -13.6541
v 22.7830 29.2708 -19.5729
v 36.0429 29.7145 -20.4509
v -17.7866 -23.2169 -4.4509
v -9.3458 -23.3537 -4.1995
v 0.0347 -23.3318 -9.3653
v -35.2964 -10.2174 0.5859
v -25.1698 -15.3494 -4.6288
v -4.1252 -22.3896 1.3014
v 5.9501 -20.0957 -4.1995
v 22.0587 -11.6379 -5.4550
v 31.6486 -8.2934 -11.4577
v -35.2964 -4.5505 0.5859
v -24.2485 0.3786 -4.2135
v -9.1768 3.1286 -7.3877
v 8.5453 6.1360 -4.7443
v 22.0587 1.6449 -4.0253
v 34.4776 0.9527 -10.9943
v -18.8116 10.9867 1.6539
v -9.1768 12.3869 0.6123
v 9.2776 14.6148 -5.6811
v 22.8232 16.9527 -9.4652
v 36.0635 16.9527 -10.8277
v 14.4393 25.8005 -12.0680
v 22.8232 27.3303 -11.2523
v 33.7631 27.2750 -11.2356
v -34.5752 -25.0075 16.7545
v -24.0061 -25.2209 11.4723
v -13.9187 -24.2941 11.5491
v -36.2543 -15.3494 11.4723
v -28.5590 -20.8841 6.0878
v -5.9187 -20.2850 11.5491
v 7.6207 -13.0688 12.2820
v 16.2157 -10.0995 7.4372
v -35.6309 0.8508 12.8509
v -29.4782 6.1161 8.3854
v 11.0259 1.6449 12.2820
v 16.2157 -3.2270 7.4372
v -33.5362 9.1881 19.0521
v -23.4766 15.4207 13.5530
v -9.1768 20.3869 10.7878
v 2.2664 16.8797 13.0371
v -17.4750 25.1977 18.7206
v -9.1768 25.1788 18.7878
v -1.1136 25.0093 19.3624
v -36.1294 -26.1862 27.5491
v -25.1768 -27.6552 27.5491
v -15.1060 -24.5162 27.5491
v -38.4622 -15.0473 27.5491
v -7.1060 -17.2073 27.5491
v 2.0343 -9.2073 27.5491
v -36.7475 0.9527 27.5491
v 3.6854 0.9527 27.5491
v -34.4147 9.6373 27.5491
v -25.9665 17.6373 27.5491
v -5.3291 20.1243 30.3385
v 0.1820 15.6556 26.0227
v -17.9665 25.6794 27.5491
v -10.0681 25.5680 26.0227
v -1.1136 25.0093 19.6718
v -35.7151 -25.2723 37.5448
v -25.1768 -25.0610 37.5950
v -16.3749 -23.5073 36.2813
v -36.2050 -15.0473 38.6025
v -25.1768 -15.0473 40.6931
v -10.2957 -13.7905 37.5808
v -0.8911 -7.6193 36.1479
v -35.2696 0.9527 37.5317
v -25.1768 0.9527 39.1945
v -9.1768 0.9527 37.8467
v -0.6704 0.9527 36.1839
v -34.4679 9.6301 36.1171
v -24.0296 15.7591 36.3535
v -10.0681 15.6556 36.1613
v -0.7873 9.4576 35.7967
v -17.9315 25.6767 36.1600
v -15.9957 25.6767 36.1600
f 3 2 1
f 3 4 2
f 6 4 3
f 6 7 4
f 8 4 7
f 8 5 4
f 10 6 9
f 10 7 6
f 13 1 2
f 13 12 1
f 12 3 1
f 12 15 3
f 14 12 11
f 14 15 12
f 13 2 4
f 13 4 16
f 5 16 4
f 5 17 16
f 18 3 15
f 18 6 3
f 8 7 19
f 8 19 20
f 19 16 17
f 19 17 20
f 18 9 6
f 18 21 9
f 22 19 7
f 22 7 10
f 10 9 21
f 10 21 22
f 27 23 26
f 27 24 23
f 27 25 24
f 27 28 25
f 29 11 12
f 29 28 11
f 30 12 13
f 30 29 12
f 31 27 26
f 31 32 27
f 33 11 28
f 33 14 11
f 32 28 27
f 32 33 28
f 34 15 14
f 34 14 33
f 35 30 13
f 35 13 16
f 34 18 15
f 34 37 18
f 36 34 33
f 36 37 34
f 38 35 16
f 38 16 19
f 37 21 18
f 37 40 21
f 39 37 36
f 39 40 37
f 38 19 22
f 38 22 41
f 41 22 21
f 41 21 40
f 43 23 24
f 43 42 23
f 44 24 25
f 44 43 24
f 42 26 23
f 42 46 26
f 48 44 25
f 48 25 28
f 47 43 44
f 47 44 48
f 49 28 29
f 49 48 28
f 50 29 30
f 50 49 29
f 46 31 26
f 46 52 31
f 51 46 45
f 51 52 46
f 53 32 31
f 53 31 52
f 33 32 53
f 33 53 54
f 56 50 30
f 56 30 35
f 55 49 50
f 55 50 56
f 57 53 52
f 57 58 53
f 54 36 33
f 54 59 36
f 58 54 53
f 58 59 54
f 59 54 55
f 59 55 60
f 61 56 35
f 61 35 38
f 60 55 56
f 60 56 61
f 62 36 59
f 62 39 36
f 63 40 39
f 63 39 62
f 62 59 60
f 62 60 63
f 61 38 41
f 61 41 64
f 64 41 40
f 64 40 63
f 64 63 60
f 64 60 61
f 67 42 43
f 67 66 42
f 69 42 66
f 69 46 42
f 69 45 46
f 69 68 45
f 69 65 68
f 69 66 65
f 67 43 47
f 67 47 70
f 71 47 48
f 71 70 47
f 72 48 49
f 72 71 48
f 68 51 45
f 68 73 51
f 74 52 51
f 74 51 73
f 76 72 49
f 76 49 55
f 76 55 54
f 76 54 75
f 75 71 72
f 75 72 76
f 74 57 52
f 74 78 57
f 77 74 73
f 77 78 74
f 79 58 57
f 79 57 78
f 80 75 54
f 80 54 59
f 80 59 58
f 80 58 79
f 81 79 78
f 81 82 79
f 83 79 82
f 83 80 79
f 85 65 66
f 85 84 65
f 86 66 67
f 86 85 66
f 87 65 84
f 87 68 65
f 88 86 67
f 88 67 70
f 89 70 71
f 89 88 70
f 87 73 68
f 87 90 73
f 89 71 75
f 89 75 91
f 90 77 73
f 90 92 77
f 93 78 77
f 93 77 92
f 91 75 80
f 91 80 95
f 93 81 78
f 93 96 81
f 97 82 81
f 97 81 96
f 98 95 80
f 98 80 83
f 98 83 82
f 98 82 97
f 98 97 94
f 98 94 95
f 85 99 84
f 85 100 99
f 101 85 86
f 101 100 85
f 99 87 84
f 99 102 87
f 102 99 100
f 102 100 103
f 101 86 88
f 101 88 104
f 103 100 101
f 103 101 104
f 105 88 89
f 105 104 88
f 106 87 102
f 106 90 87
f 106 102 103
f 106 103 107
f 107 103 104
f 107 104 108
f 105 89 91
f 105 91 109
f 108 104 105
f 108 105 109
f 110 90 106
f 110 92 90
f 93 92 110
f 93 110 111
f 110 106 107
f 110 107 111
f 111 107 108
f 111 108 112
f 113 109 91
f 113 91 95
f 113 95 94
f 113 94 112
f 113 112 108
f 113 108 109
f 114 93 111
f 114 96 93
f 115 112 94
f 115 94 97
f 115 97 96
f 115 96 114
f 114 111 112
f 114 112 115
