# parsimony mesh: cplx_CPLX0-8587 (source /Users/eranagmon/code/v2e-cplx/workspace/studies/ecoli-3d/viz/3d/structures/cplx_CPLX0-8587.pdb)
# atoms: 2286  voxel: 8 Å  verts: 262  tris: 520
v 22.9734 -24.9188 -17.4556
v 28.1376 -25.3302 -17.6303
v 32.6245 -24.7559 -17.3806
v 15.3513 -16.9064 -17.3923
v 20.2391 -19.6845 -17.8235
v 27.8969 -20.2579 -17.8165
v 32.6245 -23.1954 -17.3806
v 15.3513 -14.9212 -17.3923
v 20.1376 -13.6172 -17.6846
v 25.0698 -13.8029 -17.5164
v -32.4737 23.6301 -17.2847
v -27.8624 23.6744 -17.2541
v -23.6144 24.0346 -17.0499
v -40.3199 31.3758 -17.5300
v -35.4291 28.4848 -17.8174
v -27.3536 27.8074 -17.5294
v -23.6144 24.9134 -17.0499
v -40.3199 33.3836 -17.5300
v -35.2642 36.0895 -17.6896
v -29.0691 36.1484 -17.4614
v -32.2934 44.1484 -17.1914
v -30.4762 44.1484 -17.1914
v -32.1007 48.3354 -17.1795
v -31.5572 48.3354 -17.1795
v 23.4691 -40.2690 -9.3630
v 28.1376 -40.8716 -10.2674
v 36.1376 -40.8810 -10.6774
v 40.7423 -40.2814 -9.9097
v 14.4268 -33.1171 -10.3375
v 20.5365 -35.8109 -10.7809
v 28.1376 -35.8516 -12.3483
v 36.1376 -35.8516 -12.7246
v 41.0700 -35.8516 -10.5962
v 14.0026 -27.8516 -10.8608
v 20.2391 -27.6919 -14.4467
v 28.1376 -29.3302 -15.0747
v 35.3063 -27.4946 -13.0252
v 40.7761 -30.2334 -10.2144
v 14.0791 -19.6845 -12.8811
v 17.6400 -22.2397 -15.4727
v 30.4031 -17.8621 -15.4196
v 33.6447 -20.2579 -12.8493
v 14.4164 -13.9397 -12.9938
v 20.8551 -9.8929 -12.4311
v 27.8969 -11.4224 -13.2441
v 33.4304 -11.8516 -10.0101
v 24.0001 -7.8101 -9.3893
v 28.1376 -7.7219 -9.4873
v 32.3534 -7.7201 -9.2563
v -32.2798 15.7446 -9.3210
v -27.8624 14.3733 -10.0589
v -19.8624 13.6180 -10.7861
v -14.3093 14.7375 -10.2906
v -40.6206 23.3122 -9.7884
v -35.0434 20.8045 -12.2214
v -27.8624 19.6744 -14.0589
v -20.5136 20.8801 -14.3958
v -13.9954 20.1484 -10.9266
v -41.0270 28.4848 -12.6706
v -37.8070 26.0424 -15.1218
v -24.3478 30.2468 -16.3247
v -20.1763 28.1481 -13.2994
v -14.9261 26.0494 -10.2740
v -40.6449 36.0895 -12.4464
v -37.5321 38.7169 -14.7481
v -25.0691 36.1484 -16.3529
v -20.7473 36.1484 -12.3529
v -39.9838 40.2805 -9.4148
v -34.8164 43.3457 -12.9063
v -28.2716 43.7660 -13.9364
v -21.4999 41.1209 -11.4750
v -32.1007 48.3354 -16.3978
v -31.5572 48.3354 -16.3978
v 31.5151 -47.9558 -1.2013
v 32.4806 -47.9558 -1.2013
v 16.0570 -40.0412 -1.1987
v 20.5365 -41.2663 -4.3167
v 28.5641 -44.9181 -4.3183
v 35.5434 -44.4979 -4.3183
v 41.1915 -40.9525 -4.9938
v 7.9704 -32.0138 -1.6744
v 12.5752 -35.2321 -4.1032
v 18.1358 -38.4504 -6.5320
v 38.7622 -33.1844 -2.1568
v 41.3637 -35.8513 -4.8916
v 7.9704 -31.2009 -1.6744
v 10.3136 -28.2612 -4.6021
v 38.3751 -27.5254 -4.7807
v 40.6268 -27.5254 -4.7807
v 11.8838 -19.8516 -4.9938
v 37.3757 -20.2186 -4.8402
v 40.4776 -23.1300 -2.0712
v 13.8807 -13.9723 -4.9938
v 20.8551 -10.2452 -5.7208
v 25.7510 -9.0134 -3.5388
v 35.0851 -11.8516 -4.9938
v 24.0001 -7.8101 -8.8721
v 28.3056 -7.5354 -5.7208
v 32.9254 -7.4874 -4.9938
v -32.8098 7.4548 -2.0755
v -27.8624 7.0855 -3.2435
v -19.8624 7.4668 -2.7222
v -15.6061 7.9631 -1.3804
v -33.4072 12.7061 -4.8428
v -27.8624 10.3733 -7.2435
v -19.8624 9.6180 -6.7222
v -13.9161 12.1018 -4.4258
v -41.2985 22.5805 -4.9938
v -37.0829 18.5805 -4.9938
v -12.0154 20.1484 -4.9938
v -42.6053 28.1484 -4.9938
v -16.7381 31.3827 -8.3642
v -14.1842 28.4890 -5.4160
v -41.3397 36.1484 -4.9938
v -16.7473 36.1484 -7.8842
v -15.1276 36.1484 -3.8842
v -40.0329 40.2768 -4.9938
v -35.8624 41.1207 -4.9938
v -27.8624 42.5206 -4.9938
v -19.2449 41.6797 -5.2838
v -15.5378 40.6629 -2.8106
v 30.8088 -48.2941 3.0062
v 33.1727 -48.2941 3.0062
v 16.0570 -40.0412 -0.7506
v 20.2279 -41.8878 2.3521
v 26.8088 -46.2547 3.0062
v 37.1727 -45.3885 3.0062
v 41.3980 -41.3885 3.0062
v 7.9704 -32.0138 -0.3003
v 12.6398 -35.2176 2.1412
v 17.6215 -38.4215 4.5827
v 38.7622 -33.1844 0.4977
v 41.5392 -35.8513 3.1011
v 7.6306 -28.3519 2.5543
v 9.2501 -28.3519 2.5543
v 38.7622 -30.1507 0.4977
v 41.2460 -27.6311 3.1011
v 6.8247 -19.8516 4.9364
v 9.8672 -19.8516 0.9364
v 38.8428 -17.7967 1.6287
v 40.8677 -20.2186 3.7797
v 7.2339 -15.3634 5.8438
v 12.0373 -14.8437 3.1088
v 20.1376 -13.1551 3.0062
v 28.3056 -10.1069 3.1072
v 35.9075 -12.1653 3.7350
v 40.1625 -15.6497 6.9621
v 31.0843 -7.4976 0.5079
v 32.9722 -7.4976 0.5079
v -32.8098 7.4548 1.4865
v -28.4507 6.7981 3.6944
v -19.8624 6.2669 3.0062
v -14.2558 7.4346 3.0062
v -39.9426 16.0767 6.7993
v -35.6077 12.2181 4.1429
v -31.5096 8.3595 6.8198
v -10.5164 11.9416 3.1513
v -7.4651 14.4704 5.9147
v -41.4873 20.1958 3.6821
v -38.4056 17.5608 1.4659
v -10.6458 20.0329 3.1513
v -7.4651 17.2892 5.9147
v -44.2989 28.1484 3.0062
v -13.2209 28.1484 3.0062
v -41.8983 36.1262 2.2921
v -37.2898 38.7781 4.4827
v -11.5103 36.9374 3.7996
v -7.8562 40.1301 6.9951
v -39.9683 40.1874 -0.8506
v -35.1188 40.3056 2.2921
v -27.8624 41.7272 3.0062
v -19.8624 42.6644 3.0062
v -12.4676 41.0368 3.7996
v -7.8562 40.1565 6.9951
v 30.9884 -48.3374 7.6434
v 33.1748 -48.3374 7.6434
v 22.9548 -41.3049 8.0368
v 28.8598 -43.2739 10.5067
v 35.3616 -43.0529 10.3758
v 41.0177 -40.8628 7.7749
v 13.8036 -33.4505 11.0062
v 20.2279 -37.0252 10.8246
v 26.7311 -38.3424 13.3701
v 36.8155 -35.8516 12.0528
v 41.2893 -35.8516 8.0528
v 7.2908 -25.5029 8.4960
v 10.1675 -28.0424 11.1001
v 31.8366 -24.0660 14.8613
v 35.8335 -27.1802 12.6661
v 41.2682 -27.8516 8.1897
v 6.8247 -19.8516 8.6311
v 12.0348 -19.7183 12.0387
v 20.1376 -17.0716 13.4006
v 28.7570 -19.3609 13.8567
v 36.3313 -19.4668 13.0445
v 40.9606 -19.4668 10.7770
v 7.2339 -15.3634 7.6829
v 12.1376 -15.2569 8.1794
v 20.1376 -14.9490 9.4006
v 28.1376 -13.7994 9.6780
v 36.3313 -14.2006 10.9607
v 40.5274 -15.1660 11.0062
v -26.1762 7.3150 7.4932
v -19.8624 6.9485 8.1750
v -13.9765 7.3819 8.0776
v -39.9426 16.0767 7.2189
v -35.1217 14.6059 10.3338
v -28.4507 11.3521 10.4984
v -19.6019 12.8515 12.6172
v -11.5308 11.9416 9.3686
v -7.4651 14.4704 7.4122
v -41.1115 20.4690 10.3338
v -37.2945 18.0161 12.5522
v -18.2731 20.1484 13.2729
v -12.2299 20.0329 9.0632
v -7.4651 17.2892 7.4122
v -43.3478 28.1484 11.0062
v -24.0994 31.2652 14.8378
v -20.4514 28.4185 12.8070
v -14.6165 28.1484 8.3835
v -41.8464 33.3358 11.0062
v -35.1188 36.6819 10.2354
v -27.2046 35.7320 12.4327
v -19.8624 36.1484 12.0401
v -12.0982 36.9374 8.8511
v -7.8562 40.1301 7.0312
v -31.9565 40.1753 7.0549
v -27.8624 40.7813 7.9156
v -19.8624 41.4796 9.2110
v -11.8624 40.8730 8.3568
v -7.8562 40.1565 7.0312
v 32.0645 -39.9096 15.0395
v 32.2151 -39.9096 15.0395
v 14.6073 -32.7470 15.3843
v 20.1376 -33.3912 16.2965
v 28.8937 -35.7461 16.2688
v 32.8155 -35.8516 15.5777
v 13.8613 -27.8516 16.0184
v 20.1376 -27.8516 17.4019
v 28.7570 -27.1802 16.5503
v 32.9641 -29.3993 15.7350
v 14.6328 -22.2961 15.9777
v 20.1376 -21.0716 16.1116
v 26.5033 -21.7004 15.5086
v 39.1270 -16.5436 15.4471
v 40.6324 -16.5436 15.4471
v 39.1270 -15.1393 15.4471
v 40.6324 -15.1393 15.4471
v -31.9612 16.1048 15.0503
v -27.8624 15.9947 15.2313
v -22.0949 15.9870 15.2623
v -40.3926 23.3494 15.3518
v -35.1217 20.4690 15.6613
v -27.8624 20.1484 15.8716
v -22.2731 20.1484 15.3119
v -40.5416 28.1484 15.5775
v -35.8624 28.1484 16.6249
v -27.2046 28.4185 15.9351
v -23.5108 25.9319 15.1578
v -40.2377 32.4352 15.4223
v -35.8624 32.8430 15.8391
v -29.4327 32.7878 15.7007
f 6 1 5
f 6 2 1
f 7 2 6
f 7 3 2
f 9 4 8
f 9 5 4
f 10 5 9
f 10 6 5
f 16 11 15
f 16 12 11
f 17 12 16
f 17 13 12
f 19 14 18
f 19 15 14
f 20 15 19
f 20 16 15
f 21 20 19
f 21 22 20
f 24 21 23
f 24 22 21
f 31 25 30
f 31 26 25
f 31 27 26
f 31 32 27
f 32 28 27
f 32 33 28
f 35 29 34
f 35 30 29
f 36 1 2
f 36 35 1
f 36 30 35
f 36 31 30
f 3 36 2
f 3 37 36
f 36 32 31
f 36 37 32
f 38 32 37
f 38 33 32
f 40 1 35
f 40 5 1
f 40 4 5
f 40 39 4
f 40 34 39
f 40 35 34
f 42 37 3
f 42 3 7
f 7 6 41
f 7 41 42
f 43 4 39
f 43 8 4
f 9 8 43
f 9 43 44
f 41 6 10
f 41 10 45
f 10 9 44
f 10 44 45
f 46 41 45
f 46 42 41
f 47 45 44
f 47 48 45
f 48 46 45
f 48 49 46
f 56 11 12
f 56 55 11
f 56 50 55
f 56 51 50
f 13 56 12
f 13 57 56
f 56 52 51
f 56 57 52
f 58 52 57
f 58 53 52
f 60 11 55
f 60 15 11
f 60 14 15
f 60 59 14
f 60 54 59
f 60 55 54
f 57 13 17
f 57 17 62
f 17 16 61
f 17 61 62
f 63 57 62
f 63 58 57
f 59 18 14
f 59 64 18
f 65 19 18
f 65 18 64
f 61 16 20
f 61 20 66
f 67 61 66
f 67 62 61
f 65 21 19
f 65 69 21
f 68 65 64
f 68 69 65
f 70 66 20
f 70 20 22
f 71 66 70
f 71 67 66
f 72 21 69
f 72 23 21
f 73 70 22
f 73 22 24
f 24 23 72
f 24 72 73
f 72 69 70
f 72 70 73
f 78 25 26
f 78 77 25
f 79 26 27
f 79 78 26
f 78 75 74
f 78 79 75
f 80 27 28
f 80 79 27
f 83 25 77
f 83 30 25
f 83 29 30
f 83 82 29
f 83 76 82
f 83 77 76
f 85 80 28
f 85 28 33
f 87 29 82
f 87 34 29
f 87 81 86
f 87 82 81
f 85 33 38
f 85 38 89
f 38 37 88
f 38 88 89
f 89 88 84
f 89 84 85
f 90 34 87
f 90 39 34
f 91 88 37
f 91 37 42
f 92 88 91
f 92 89 88
f 93 39 90
f 93 43 39
f 94 44 43
f 94 43 93
f 91 42 46
f 91 46 96
f 97 44 94
f 97 47 44
f 48 47 97
f 48 97 98
f 97 94 95
f 97 95 98
f 96 46 49
f 96 49 99
f 49 48 98
f 49 98 99
f 105 50 51
f 105 104 50
f 105 100 104
f 105 101 100
f 52 105 51
f 52 106 105
f 106 101 105
f 106 102 101
f 53 106 52
f 53 107 106
f 106 103 102
f 106 107 103
f 109 50 104
f 109 55 50
f 109 54 55
f 109 108 54
f 110 107 53
f 110 53 58
f 111 54 108
f 111 59 54
f 110 58 63
f 110 63 113
f 63 62 112
f 63 112 113
f 114 59 111
f 114 64 59
f 112 62 67
f 112 67 115
f 116 112 115
f 116 113 112
f 114 68 64
f 114 117 68
f 118 69 68
f 118 68 117
f 119 70 69
f 119 69 118
f 115 67 71
f 115 71 120
f 71 70 119
f 71 119 120
f 121 115 120
f 121 116 115
f 123 74 75
f 123 122 74
f 125 76 77
f 125 124 76
f 126 74 122
f 126 78 74
f 126 77 78
f 126 125 77
f 127 123 75
f 127 75 79
f 128 79 80
f 128 127 79
f 130 76 124
f 130 82 76
f 82 129 81
f 82 130 129
f 131 130 124
f 131 124 125
f 133 128 80
f 133 80 85
f 133 85 84
f 133 84 132
f 129 86 81
f 129 134 86
f 135 87 86
f 135 86 134
f 135 134 129
f 135 129 130
f 136 132 84
f 136 84 88
f 89 136 88
f 89 137 136
f 137 132 136
f 137 133 132
f 139 87 135
f 139 90 87
f 139 134 138
f 139 135 134
f 137 89 92
f 137 92 141
f 92 91 140
f 92 140 141
f 139 93 90
f 139 143 93
f 142 139 138
f 142 143 139
f 144 94 93
f 144 93 143
f 95 94 144
f 95 144 145
f 140 91 96
f 140 96 146
f 147 140 146
f 147 141 140
f 148 95 145
f 148 98 95
f 149 146 96
f 149 96 99
f 99 98 148
f 99 148 149
f 149 148 145
f 149 145 146
f 101 150 100
f 101 151 150
f 152 101 102
f 152 151 101
f 103 152 102
f 103 153 152
f 150 104 100
f 150 155 104
f 156 155 150
f 156 150 151
f 157 153 103
f 157 103 107
f 160 104 155
f 160 109 104
f 160 108 109
f 160 159 108
f 160 154 159
f 160 155 154
f 161 157 107
f 161 107 110
f 162 157 161
f 162 158 157
f 163 108 159
f 163 111 108
f 164 161 110
f 164 110 113
f 165 111 163
f 165 114 111
f 164 113 116
f 164 116 167
f 169 114 165
f 169 117 114
f 118 117 169
f 118 169 170
f 169 165 166
f 169 166 170
f 119 118 170
f 119 170 171
f 172 120 119
f 172 119 171
f 167 116 121
f 167 121 173
f 121 120 172
f 121 172 173
f 173 168 167
f 173 174 168
f 123 175 122
f 123 176 175
f 175 126 122
f 175 178 126
f 126 177 125
f 126 178 177
f 176 123 127
f 176 127 179
f 178 175 176
f 178 176 179
f 180 127 128
f 180 179 127
f 177 131 125
f 177 182 131
f 131 181 130
f 131 182 181
f 183 182 177
f 183 177 178
f 180 128 133
f 180 133 185
f 184 179 180
f 184 180 185
f 181 135 130
f 181 187 135
f 135 186 134
f 135 187 186
f 190 185 133
f 190 133 137
f 190 189 184
f 190 184 185
f 186 138 134
f 186 191 138
f 192 191 186
f 192 186 187
f 195 194 188
f 195 188 189
f 190 137 141
f 190 141 196
f 196 195 189
f 196 189 190
f 197 138 191
f 197 142 138
f 198 143 142
f 198 142 197
f 198 197 191
f 198 191 192
f 144 143 198
f 144 198 199
f 198 192 193
f 198 193 199
f 200 145 144
f 200 144 199
f 200 199 193
f 200 193 194
f 146 145 200
f 146 200 201
f 201 200 194
f 201 194 195
f 196 141 147
f 196 147 202
f 147 146 201
f 147 201 202
f 152 203 151
f 152 204 203
f 153 204 152
f 153 205 204
f 207 154 155
f 207 206 154
f 203 156 151
f 203 208 156
f 156 207 155
f 156 208 207
f 208 203 204
f 208 204 209
f 205 153 157
f 205 157 210
f 209 204 205
f 209 205 210
f 211 157 158
f 211 210 157
f 206 159 154
f 206 212 159
f 213 212 206
f 213 206 207
f 215 214 209
f 215 209 210
f 211 158 162
f 211 162 216
f 216 162 161
f 216 161 215
f 216 215 210
f 216 210 211
f 217 159 212
f 217 163 159
f 215 161 164
f 215 164 220
f 220 219 214
f 220 214 215
f 221 163 217
f 221 165 163
f 166 165 221
f 166 221 222
f 224 223 218
f 224 218 219
f 220 164 167
f 220 167 225
f 224 219 220
f 224 220 225
f 168 225 167
f 168 226 225
f 227 166 222
f 227 170 166
f 171 170 227
f 171 227 228
f 227 222 223
f 227 223 228
f 172 171 228
f 172 228 229
f 229 228 223
f 229 223 224
f 173 172 229
f 173 229 230
f 229 224 225
f 229 225 230
f 226 168 174
f 226 174 231
f 174 173 230
f 174 230 231
f 230 225 226
f 230 226 231
f 179 232 178
f 179 233 232
f 235 181 182
f 235 234 181
f 232 183 178
f 232 236 183
f 183 235 182
f 183 236 235
f 233 179 184
f 233 184 237
f 237 236 232
f 237 232 233
f 238 181 234
f 238 187 181
f 239 238 234
f 239 234 235
f 240 239 235
f 240 235 236
f 241 237 184
f 241 184 189
f 241 189 188
f 241 188 240
f 241 240 236
f 241 236 237
f 242 187 238
f 242 192 187
f 193 192 242
f 193 242 243
f 242 238 239
f 242 239 243
f 244 240 188
f 244 188 194
f 244 194 193
f 244 193 243
f 244 243 239
f 244 239 240
f 246 195 196
f 246 245 195
f 247 195 245
f 247 201 195
f 246 196 202
f 246 202 248
f 202 201 247
f 202 247 248
f 247 245 246
f 247 246 248
f 208 249 207
f 208 250 249
f 251 208 209
f 251 250 208
f 249 213 207
f 249 253 213
f 213 252 212
f 213 253 252
f 254 253 249
f 254 249 250
f 251 209 214
f 251 214 255
f 255 254 250
f 255 250 251
f 252 217 212
f 252 256 217
f 257 256 252
f 257 252 253
f 258 257 253
f 258 253 254
f 259 255 214
f 259 214 219
f 259 219 218
f 259 218 258
f 259 258 254
f 259 254 255
f 260 217 256
f 260 221 217
f 261 222 221
f 261 221 260
f 260 256 257
f 260 257 261
f 262 258 218
f 262 218 223
f 262 223 222
f 262 222 261
f 262 261 257
f 262 257 258
