# parsimony mesh: cplx_CPLX0-246 (source /Users/eranagmon/code/v2e-cplx/workspace/studies/ecoli-3d/viz/3d/structures/cplx_CPLX0-246.pdb)
# atoms: 6254  voxel: 16 Å  verts: 141  tris: 274
v 29.4733 -45.7522 -24.5876
v 42.4378 -47.2389 -25.1407
v 55.6110 -46.0328 -24.0290
v 29.4733 -39.2526 -24.5876
v 42.4378 -39.0986 -25.1407
v 55.6110 -41.6787 -24.0290
v -62.0074 36.4036 -23.1516
v -56.8917 36.4036 -23.1516
v -34.3225 35.7651 -23.0959
v -28.9117 35.7651 -23.0959
v -65.8832 44.8002 -24.5707
v -52.3599 43.3314 -25.5905
v -38.1786 43.3348 -24.0408
v -28.9117 38.9841 -23.0959
v -66.8783 54.4945 -24.7050
v -53.5622 55.0054 -25.9462
v -42.0347 54.0462 -24.9857
v 32.0199 -60.4246 -9.0960
v 42.4378 -61.6481 -10.7561
v 58.4378 -62.0681 -11.4043
v 68.2650 -60.9846 -9.9603
v 16.8888 -45.6226 -11.5827
v 25.4133 -51.0207 -15.6727
v 42.4378 -55.2389 -18.7561
v 59.9417 -51.2996 -19.9751
v 73.9341 -49.9732 -12.0575
v 82.8404 -43.8221 -7.1451
v 14.4924 -35.1998 -11.3043
v 24.8830 -34.4188 -15.0841
v 42.4378 -35.4718 -14.6436
v 59.9417 -39.1837 -16.1666
v 74.4378 -40.2617 -10.9235
v 82.8404 -42.5670 -7.1451
v 14.7262 -26.2998 -7.9188
v 20.2927 -26.2998 -7.9188
v -30.7252 20.7022 -6.8912
v -29.4377 20.7022 -6.8912
v -64.1374 34.9185 -14.6436
v -52.3599 32.7006 -16.1242
v -37.8572 28.7874 -14.6679
v -25.9960 29.7791 -13.1922
v -79.0365 50.0048 -11.9591
v -73.2121 44.7230 -16.2329
v -46.2250 37.0188 -22.4445
v -38.1786 43.3348 -21.2237
v -21.3193 43.4470 -14.0099
v -12.9003 47.9099 -8.0169
v -80.1257 60.8002 -11.5387
v -71.1425 60.0787 -15.2404
v -53.5622 57.6947 -14.6436
v -37.0457 54.9436 -14.6592
v -21.5622 54.0646 -9.6930
v -12.9003 53.5495 -8.0169
v -79.5059 70.0483 -7.8550
v -75.4068 70.0483 -7.8550
v 30.7646 -61.1217 1.3564
v 42.4378 -63.3533 1.3564
v 58.4378 -63.5757 1.3564
v 69.0757 -61.3440 1.3564
v 16.8659 -46.0466 1.3564
v 22.7646 -54.0466 1.3564
v 77.0757 -52.7445 1.3564
v 83.4346 -44.7445 1.3564
v 14.9534 -36.2197 0.4272
v 25.9507 -31.5707 0.4272
v 42.4378 -33.6350 1.3564
v 58.4378 -33.5794 1.3564
v 74.4378 -35.8136 1.3564
v 83.4346 -41.6804 1.3564
v 14.7262 -26.2998 -5.5255
v 20.2927 -26.2998 -5.5255
v -30.7252 20.7022 -6.4003
v -29.4377 20.7022 -6.4003
v -65.6462 33.8570 1.3564
v -53.5622 28.5083 1.3564
v -36.6600 24.6755 -0.0976
v -21.5823 29.7554 -1.0372
v -12.6144 35.7867 4.3260
v -79.0365 50.0048 -4.2565
v -72.7208 44.7230 1.1886
v -13.7269 37.2432 -6.3407
v -11.3146 43.4660 -0.0618
v -80.1257 60.8002 -3.4901
v -69.7274 60.2462 0.7921
v -53.5622 58.4686 1.3564
v -37.5622 57.6503 1.3564
v -21.5622 57.0436 1.3564
v -11.4636 54.6931 1.3564
v -79.5059 70.0483 -4.8260
v -75.4068 70.0483 -4.8260
v 32.1608 -60.5152 17.3564
v 42.4378 -61.8874 17.3564
v 57.6720 -60.9420 16.5677
v 68.1277 -60.2739 10.7085
v 17.8909 -44.5727 11.3917
v 24.3361 -50.4235 16.9776
v 59.8848 -51.1998 21.1950
v 73.8518 -50.4622 13.0176
v 83.3643 -44.6371 10.3403
v 17.8909 -42.2329 11.3917
v 26.1578 -38.0846 16.9776
v 42.4378 -35.1065 17.3564
v 57.1613 -38.5376 18.0160
v 74.4378 -38.7517 12.9188
v 83.3643 -41.8068 10.3403
v -64.0472 34.4440 17.3564
v -53.5622 30.9191 17.3564
v -37.5622 31.3385 17.3564
v -23.0226 34.6426 16.3384
v -12.6144 35.7867 10.3264
v -67.2737 44.8002 17.3564
v -47.3456 51.1737 23.6468
v -42.4281 51.1737 23.6468
v -20.4464 44.8002 20.0975
v -11.2492 44.8002 12.0975
v -64.7887 55.6380 17.3564
v -53.0322 56.2361 17.9306
v -37.2817 55.5783 17.9306
v -22.4092 55.4773 17.3672
v -11.4259 54.5748 12.0412
v 33.8815 -59.6160 25.7455
v 42.4378 -60.1822 26.3277
v 51.8281 -60.0935 26.2623
v 31.6705 -51.1998 26.5521
v 42.4378 -51.1998 27.2882
v 51.8848 -51.1998 26.0926
v 31.3044 -40.4415 26.5615
v 42.4378 -41.0445 26.3169
v 50.9769 -43.0843 25.4320
v -62.4186 35.4705 26.3193
v -53.5622 34.3839 27.3911
v -37.5622 35.2515 26.7912
v -29.3295 36.6273 25.5194
v -63.5667 44.8002 27.0178
v -53.0322 45.4243 27.7356
v -37.2817 45.4243 26.7863
v -28.4464 44.8002 25.8313
v -63.3784 54.5547 26.6087
v -58.0122 54.5547 26.6087
v -31.7614 53.2899 25.8266
v -28.3072 53.2899 25.8266
f 5 1 4
f 5 2 1
f 6 2 5
f 6 3 2
f 12 7 11
f 12 8 7
f 14 9 13
f 14 10 9
f 16 11 15
f 16 12 11
f 17 12 16
f 17 13 12
f 24 1 2
f 24 23 1
f 24 18 23
f 24 19 18
f 3 24 2
f 3 25 24
f 24 20 19
f 24 25 20
f 25 21 20
f 25 26 21
f 23 4 1
f 23 29 4
f 29 22 28
f 29 23 22
f 30 5 4
f 30 4 29
f 31 25 3
f 31 3 6
f 6 5 30
f 6 30 31
f 31 26 25
f 31 32 26
f 32 27 26
f 32 33 27
f 35 28 34
f 35 29 28
f 8 38 7
f 8 39 38
f 10 40 9
f 10 41 40
f 41 36 40
f 41 37 36
f 38 11 7
f 38 43 11
f 44 39 8
f 44 8 12
f 45 9 40
f 45 13 9
f 13 44 12
f 13 45 44
f 44 40 39
f 44 45 40
f 41 10 14
f 41 14 46
f 14 13 45
f 14 45 46
f 43 15 11
f 43 49 15
f 49 42 48
f 49 43 42
f 50 16 15
f 50 15 49
f 45 13 17
f 45 17 51
f 17 16 50
f 17 50 51
f 51 46 45
f 51 52 46
f 52 47 46
f 52 53 47
f 55 48 54
f 55 49 48
f 57 18 19
f 57 56 18
f 58 19 20
f 58 57 19
f 21 58 20
f 21 59 58
f 61 18 56
f 61 23 18
f 61 22 23
f 61 60 22
f 62 59 21
f 62 21 26
f 27 62 26
f 27 63 62
f 64 22 60
f 64 28 22
f 30 29 65
f 30 65 66
f 67 31 30
f 67 30 66
f 32 31 67
f 32 67 68
f 69 63 27
f 69 27 33
f 33 32 68
f 33 68 69
f 70 28 64
f 70 34 28
f 65 29 35
f 65 35 71
f 35 34 70
f 35 70 71
f 71 70 64
f 71 64 65
f 37 72 36
f 37 73 72
f 75 38 39
f 75 74 38
f 76 36 72
f 76 40 36
f 40 75 39
f 40 76 75
f 73 37 41
f 73 41 77
f 76 72 73
f 76 73 77
f 80 38 74
f 80 43 38
f 43 79 42
f 43 80 79
f 81 77 41
f 81 41 46
f 47 81 46
f 47 82 81
f 81 78 77
f 81 82 78
f 79 48 42
f 79 83 48
f 84 83 79
f 84 79 80
f 50 49 84
f 50 84 85
f 86 51 50
f 86 50 85
f 52 51 86
f 52 86 87
f 88 82 47
f 88 47 53
f 53 52 87
f 53 87 88
f 83 54 48
f 83 89 54
f 84 49 55
f 84 55 90
f 90 89 83
f 90 83 84
f 57 91 56
f 57 92 91
f 93 57 58
f 93 92 57
f 94 58 59
f 94 93 58
f 91 61 56
f 91 96 61
f 61 95 60
f 61 96 95
f 94 59 62
f 94 62 98
f 97 93 94
f 97 94 98
f 99 62 63
f 99 98 62
f 100 60 95
f 100 64 60
f 65 64 100
f 65 100 101
f 100 95 96
f 100 96 101
f 66 65 101
f 66 101 102
f 67 66 102
f 67 102 103
f 104 68 67
f 104 67 103
f 104 103 97
f 104 97 98
f 105 99 63
f 105 63 69
f 105 69 68
f 105 68 104
f 104 98 99
f 104 99 105
f 75 106 74
f 75 107 106
f 108 75 76
f 108 107 75
f 109 76 77
f 109 108 76
f 110 77 78
f 110 109 77
f 111 74 106
f 111 80 74
f 115 110 78
f 115 78 82
f 114 109 110
f 114 110 115
f 116 80 111
f 116 84 80
f 85 84 116
f 85 116 117
f 86 85 117
f 86 117 118
f 118 117 112
f 118 112 113
f 119 87 86
f 119 86 118
f 115 82 88
f 115 88 120
f 120 88 87
f 120 87 119
f 120 119 114
f 120 114 115
f 92 121 91
f 92 122 121
f 123 92 93
f 123 122 92
f 124 91 121
f 124 96 91
f 125 124 121
f 125 121 122
f 123 93 97
f 123 97 126
f 125 122 123
f 125 123 126
f 127 96 124
f 127 101 96
f 102 101 127
f 102 127 128
f 128 127 124
f 128 124 125
f 129 126 97
f 129 97 103
f 129 103 102
f 129 102 128
f 129 128 125
f 129 125 126
f 107 130 106
f 107 131 130
f 132 107 108
f 132 131 107
f 133 108 109
f 133 132 108
f 130 111 106
f 130 134 111
f 135 134 130
f 135 130 131
f 136 113 112
f 136 112 135
f 135 131 132
f 135 132 136
f 133 109 114
f 133 114 137
f 136 132 133
f 136 133 137
f 138 111 134
f 138 116 111
f 139 135 112
f 139 112 117
f 139 117 116
f 139 116 138
f 139 138 134
f 139 134 135
f 140 113 136
f 140 118 113
f 141 137 114
f 141 114 119
f 141 119 118
f 141 118 140
f 140 136 137
f 140 137 141
