# parsimony mesh: cplx_CPLX0-7693 (source /Users/eranagmon/code/v2e-cplx/workspace/studies/ecoli-3d/viz/3d/structures/cplx_CPLX0-7693.pdb)
# atoms: 3056  voxel: 4 Å  verts: 1280  tris: 2564
v 46.8138 -41.6032 -27.5988
v 49.1549 -41.9654 -27.8316
v 51.4861 -41.4848 -27.7225
v 46.8138 -40.1509 -27.5988
v 49.1168 -38.7710 -27.9870
v 51.6734 -38.7011 -27.9439
v 50.0696 -34.7011 -27.9838
v 51.8450 -34.7011 -27.9838
v 50.4381 -32.2156 -27.7755
v 51.7148 -32.2156 -27.7755
v -24.9883 23.1782 -27.3592
v -22.8451 23.1534 -27.4005
v -18.8451 23.1165 -27.5954
v -16.6409 23.1291 -27.6192
v -24.9883 23.3642 -27.3592
v -22.8451 23.5774 -27.4005
v -19.0466 25.0825 -27.8364
v -16.2825 25.2989 -27.9145
v -17.9672 29.2989 -27.9997
v -16.0157 29.2989 -27.9997
v -17.4255 33.2989 -27.8098
v -15.9331 33.2989 -27.8098
v -17.1254 35.4925 -27.5594
v -16.1891 35.4925 -27.5594
v 41.9708 -49.3707 -24.0118
v 44.3739 -49.3707 -24.0118
v 38.9532 -45.6512 -24.0223
v 40.8444 -46.8712 -24.8261
v 45.4863 -47.0238 -25.0728
v 47.8582 -45.9055 -24.4335
v 38.9532 -44.0107 -24.0223
v 40.9878 -42.6869 -24.7335
v 45.3503 -42.8424 -26.5803
v 49.1769 -43.5983 -25.5876
v 51.6589 -41.6460 -25.3187
v 42.2096 -39.8061 -23.8575
v 45.3503 -39.0978 -25.2420
v 47.6978 -37.3682 -25.3187
v 52.2237 -38.7011 -25.3187
v 49.5591 -34.3117 -24.9280
v 51.9426 -34.3117 -24.9280
v 50.4381 -32.2156 -26.0009
v 51.7148 -32.2156 -26.0009
v -25.7327 18.3281 -24.0197
v -22.8451 18.2824 -24.1261
v -20.3503 18.9144 -23.6942
v -28.8530 23.2652 -23.3416
v -26.6938 21.8884 -25.0140
v -22.8451 21.1534 -26.1261
v -18.6294 21.8439 -24.9582
v -16.6409 23.1291 -26.2221
v -28.8530 23.3183 -23.3416
v -26.4326 24.6746 -24.7701
v -22.8451 25.5774 -26.1851
v -18.7114 24.8526 -25.2414
v -15.9787 24.9796 -25.0608
v -25.2102 27.7404 -23.5320
v -22.8451 28.3373 -24.1851
v -19.9352 29.4647 -25.4839
v -15.0637 29.2989 -25.3187
v -17.9018 33.4718 -25.2805
v -15.7702 33.4718 -25.2805
v -17.1254 35.4925 -26.5884
v -16.1891 35.4925 -26.5884
v 38.3216 -49.0310 -20.3764
v 40.8444 -49.4873 -21.5533
v 45.4863 -49.4123 -21.5590
v 47.4289 -48.9061 -20.3858
v 37.9886 -46.8712 -21.5533
v 39.3041 -48.3179 -23.0430
v 47.0406 -48.5722 -23.0524
v 48.1986 -47.0238 -21.5590
v 34.8083 -41.4017 -19.6912
v 37.2663 -42.7062 -21.3161
v 39.5430 -41.3440 -22.9409
v 50.1123 -42.5869 -21.3163
v 51.4957 -41.1774 -22.6480
v 34.8543 -38.7011 -19.6311
v 37.1549 -38.7011 -20.7692
v 40.9878 -38.5641 -22.4272
v 45.1549 -37.1096 -22.7944
v 48.9558 -37.8896 -21.2964
v 51.7051 -38.7011 -22.0515
v 35.1007 -36.3821 -19.3628
v 37.1549 -35.4651 -19.7733
v 41.1549 -35.0304 -20.4877
v 45.1068 -34.5620 -21.0973
v 49.4319 -35.0179 -21.6616
v 51.4425 -34.4568 -21.4587
v 46.3063 -30.7011 -20.2458
v 48.9979 -30.8335 -20.8396
v 51.3372 -32.2550 -20.6176
v 46.7704 -28.5048 -19.5580
v 47.5598 -28.5048 -19.5580
v -29.4834 18.6069 -20.1719
v -26.9776 17.9831 -21.4306
v -22.8451 17.5359 -21.3187
v -19.9809 18.6617 -21.3187
v -29.6732 21.6786 -21.4306
v -28.3994 20.5985 -22.8386
v -17.7918 21.6095 -21.3900
v -16.7971 23.1499 -20.1042
v -33.0735 26.9236 -19.5661
v -30.5494 25.1209 -21.1239
v -27.8769 25.9850 -22.6818
v -16.9085 23.4335 -22.7709
v -16.3881 24.9796 -21.3900
v -33.0344 29.2989 -19.5190
v -30.8451 29.2989 -20.2750
v -26.6642 29.1638 -22.0120
v -22.8451 30.3373 -22.3714
v -20.4991 30.9085 -22.5748
v -15.7868 29.2989 -21.3187
v -32.8691 31.3354 -19.3384
v -30.8451 31.7962 -19.5672
v -26.8451 32.4672 -20.1630
v -22.6902 33.4576 -20.2963
v -19.0375 33.4718 -21.9417
v -16.1956 33.4718 -21.4526
v -21.2536 35.7340 -19.5445
v -18.8451 36.1169 -20.1554
v -16.4600 35.9543 -20.2085
v 38.3216 -49.0310 -18.5486
v 41.0081 -49.3847 -17.2566
v 45.1549 -49.8221 -17.3187
v 47.7923 -49.2150 -17.3187
v 37.8787 -46.6161 -17.2566
v 39.5769 -47.8928 -15.8819
v 49.7221 -46.4542 -17.1222
v 51.3120 -44.9562 -15.6578
v 30.8898 -40.8632 -15.5083
v 33.3469 -41.6544 -17.0325
v 36.1847 -43.7711 -17.3187
v 50.3242 -42.7011 -17.9324
v 51.3903 -42.7011 -15.9324
v 30.5076 -38.7011 -15.8289
v 32.8543 -38.7011 -17.8290
v 50.2160 -38.7011 -17.9589
v 51.3475 -38.7011 -15.9589
v 30.2320 -34.7011 -16.1332
v 33.5224 -34.9097 -18.1797
v 37.1549 -33.4651 -19.0784
v 41.1549 -33.0304 -18.7778
v 43.7413 -33.1359 -18.6003
v 50.4396 -36.1949 -18.3597
v 51.3362 -34.7974 -17.1433
v 30.6641 -30.7011 -15.7663
v 33.1549 -30.7011 -16.5753
v 37.1549 -30.7011 -17.6338
v 41.1549 -30.7011 -17.8760
v 44.3063 -30.7011 -18.3699
v 49.7394 -30.3464 -17.3187
v 51.3066 -32.3464 -17.3187
v 31.1331 -28.6980 -15.3203
v 33.1549 -27.9171 -15.3671
v 37.2692 -26.4758 -15.7722
v 41.1549 -26.7011 -16.9564
v 45.4700 -26.8414 -17.3974
v 47.7394 -27.9115 -17.3187
v 38.6788 -24.6633 -15.3339
v 41.3028 -23.0784 -15.8453
v 44.5307 -22.7011 -15.9655
v 42.4654 -18.7011 -15.8017
v 44.2796 -18.7011 -15.8017
v 42.6557 -16.2649 -15.8044
v 43.8348 -16.2649 -15.8044
v -29.4834 18.6069 -18.3056
v -26.9867 18.2621 -17.1108
v -22.8451 17.6057 -17.3187
v -19.5428 18.3828 -17.3187
v -30.0498 21.1900 -17.1108
v -28.4145 19.7841 -15.6389
v -17.5428 20.4227 -17.3187
v -16.4231 22.4227 -17.3187
v -37.1592 26.9578 -15.5991
v -34.5821 26.3978 -17.0869
v -31.8723 24.4283 -17.3187
v -16.1313 25.2989 -17.3187
v -37.2955 29.2989 -15.7476
v -35.0344 29.2989 -17.7476
v -15.9720 29.2989 -17.3187
v -37.4811 33.2989 -15.9559
v -34.4595 32.9208 -17.6771
v -30.8451 33.7962 -18.2045
v -26.8451 34.4672 -18.4343
v -23.9203 34.8967 -18.7063
v -17.6246 34.9687 -15.5792
v -16.1490 33.5007 -17.0750
v -37.4067 36.2137 -15.8768
v -34.8451 36.9593 -16.0482
v -31.2323 37.6783 -16.3140
v -26.8451 37.2989 -17.4407
v -22.6902 37.1600 -18.3871
v -18.9187 37.1775 -17.2134
v -16.4600 35.9543 -18.2459
v -30.1571 40.2565 -15.7966
v -26.9800 41.4734 -16.4726
v -22.8451 41.2989 -17.0624
v -20.3518 41.2989 -15.9784
v -25.6825 45.2989 -15.8707
v -22.4890 45.3787 -15.7707
v -20.8196 44.0986 -15.3360
v -25.1085 49.2989 -15.5496
v -23.6928 49.2989 -15.5496
v -24.9713 51.4180 -15.4719
v -24.5688 51.4180 -15.4719
v -13.0691 55.0508 -15.4331
v -12.7307 55.0508 -15.4331
v -13.0691 55.4273 -15.4331
v -12.7307 55.4273 -15.4331
v 42.1173 -49.2595 -13.3187
v 45.1549 -49.8308 -13.3187
v 47.8336 -49.2724 -13.3187
v 37.9016 -45.7202 -13.3187
v 40.1173 -47.7202 -13.3187
v 49.8336 -47.3216 -13.3187
v 51.7238 -45.3216 -13.3187
v 30.7320 -41.2099 -13.3187
v 33.1549 -42.6955 -13.3187
v 35.9016 -44.1867 -13.3187
v 52.0803 -42.7011 -13.3187
v 26.6182 -37.4334 -11.8066
v 28.8579 -38.7405 -13.2114
v 46.7905 -37.1237 -11.6658
v 47.4663 -37.1237 -11.6658
v 52.1726 -38.7011 -13.3187
v 25.9107 -34.7011 -12.0276
v 28.2320 -34.7011 -14.0276
v 46.2698 -34.7011 -12.2446
v 48.9417 -34.5523 -12.8088
v 51.6959 -34.5523 -13.6681
v 14.8866 -29.0835 -11.6559
v 17.1549 -29.6399 -11.9738
v 21.1549 -30.2572 -12.1897
v 24.8816 -31.0244 -12.6504
v 28.6641 -30.7011 -14.5146
v 46.3391 -31.9105 -12.2062
v 49.0763 -30.9591 -13.7203
v 51.1749 -32.6743 -15.2344
v 14.3306 -26.7011 -11.8939
v 17.2208 -26.6192 -12.1006
v 21.1549 -27.2988 -12.1897
v 25.2581 -26.4613 -12.4400
v 29.5418 -27.0993 -13.8079
v 33.1549 -25.9171 -14.3840
v 36.0121 -24.9923 -15.1676
v 46.8362 -25.1779 -14.9002
v 49.0763 -26.7578 -13.4171
v 51.6341 -25.6709 -11.9341
v 14.3241 -24.0578 -11.7485
v 15.9314 -24.0578 -11.7485
v 26.6602 -24.5740 -11.4255
v 29.1549 -24.3897 -11.5774
v 33.3153 -22.9283 -12.2938
v 37.2692 -23.0784 -14.2024
v 40.0681 -21.9966 -14.7379
v 46.5307 -22.7011 -14.8903
v 49.1549 -22.7011 -13.8744
v 51.8778 -22.7011 -12.3028
v 34.7556 -20.2220 -11.5234
v 37.1549 -19.6544 -12.0366
v 40.3611 -18.5512 -13.3702
v 46.2796 -18.7011 -14.8649
v 49.1549 -18.7011 -13.9038
v 52.1938 -18.7011 -12.3576
v 41.9777 -15.8866 -13.3187
v 45.1629 -15.5520 -13.4472
v 49.2991 -14.6037 -12.6825
v 52.5499 -14.7011 -12.3628
v 50.7285 -12.3216 -12.0224
v 52.1143 -12.3216 -12.0224
v -25.7592 18.8215 -13.3187
v -22.8451 17.7777 -13.3187
v -19.3591 18.2550 -13.3187
v -36.8462 23.2974 -11.3196
v -34.8451 23.2855 -11.3492
v -30.8264 22.2546 -12.9426
v -27.7592 20.0058 -13.3187
v -17.3591 19.7510 -13.3187
v -15.6874 21.7510 -13.3187
v -37.3593 25.4942 -12.9192
v -34.8451 24.4539 -13.3492
v -32.1472 23.8467 -14.0252
v -15.0242 25.2989 -13.3187
v -41.2943 30.7443 -11.6060
v -39.1305 29.3661 -13.0911
v -21.5261 30.6797 -11.7865
v -20.2285 30.6797 -11.7865
v -14.3226 29.6772 -12.9710
v -12.8279 31.2627 -11.4059
v -49.0056 35.2243 -11.4133
v -46.8451 35.1088 -11.4677
v -42.7146 33.5916 -11.7100
v -39.4811 33.2989 -13.7298
v -21.6776 33.2989 -12.4394
v -18.9266 33.3790 -13.3992
v -14.8532 32.2129 -12.9710
v -12.8279 31.3286 -11.4059
v -52.9631 39.0865 -11.4467
v -50.5414 37.5714 -11.6517
v -46.8451 37.2989 -12.1438
v -42.8451 37.2989 -12.7370
v -38.7820 37.4477 -14.2604
v -34.8451 38.9593 -15.0622
v -32.8238 39.2647 -15.2918
v -21.2742 35.7241 -12.3452
v -18.9187 37.3663 -13.3333
v -16.6267 39.0084 -11.6548
v -53.3221 41.2989 -11.6996
v -50.6204 41.4687 -11.8229
v -46.8451 40.4955 -11.9948
v -42.8451 40.2888 -12.4633
v -38.8451 40.7966 -12.8002
v -34.8451 41.0583 -13.0622
v -31.3964 41.6226 -13.8158
v -28.4033 42.9231 -15.0065
v -18.3518 41.2989 -14.0569
v -16.1545 41.2989 -12.0569
v -53.3631 43.7364 -11.6985
v -51.8039 43.7364 -11.6985
v -33.0035 46.6829 -11.4033
v -31.1194 45.3293 -12.0508
v -27.6825 45.2989 -14.1704
v -20.9183 46.7652 -15.2966
v -19.2298 45.3787 -14.6185
v -15.7600 45.2989 -12.4600
v -33.0035 47.4580 -11.4033
v -30.8451 47.5254 -11.4680
v -27.0413 48.9846 -12.9875
v -21.6928 49.2989 -14.7096
v -18.8451 49.2989 -13.8893
v -14.7985 49.4836 -12.4600
v -12.7112 50.9402 -11.6480
v -25.4216 51.6885 -13.3187
v -23.0793 51.8411 -13.2447
v -18.8451 52.4800 -12.2507
v -14.7763 53.7701 -13.1663
v -12.5807 53.5500 -13.1163
v -13.7419 55.6073 -13.3187
v -12.6150 55.6073 -13.3187
v 30.5589 -48.9112 -7.6370
v 33.1549 -48.9528 -7.6675
v 35.3931 -48.8266 -7.4656
v 42.6828 -48.9470 -10.6793
v 45.1549 -49.0967 -10.4649
v 47.4840 -48.9827 -10.8198
v 29.7555 -46.7011 -8.3920
v 33.1549 -46.7011 -9.4432
v 36.6309 -46.7747 -9.3529
v 41.2717 -47.7257 -9.3351
v 45.1549 -47.8210 -8.4649
v 48.9405 -46.6202 -9.3622
v 51.7563 -45.2734 -10.5713
v 26.9492 -41.5200 -7.5254
v 29.0373 -42.7021 -9.3118
v 33.1549 -44.0293 -11.0944
v 35.2020 -44.6224 -11.2402
v 49.8631 -42.7011 -8.4772
v 51.8448 -42.7011 -10.4772
v 22.3545 -37.4204 -7.8446
v 25.4504 -38.7602 -9.0184
v 28.1895 -40.1001 -10.1921
v 46.7803 -37.1913 -9.3187
v 48.8283 -38.3613 -9.5456
v 51.9801 -38.7011 -10.6590
v 18.3765 -33.6344 -8.1502
v 21.0747 -34.8611 -8.8445
v 23.9107 -34.7011 -10.6023
v 45.5094 -34.7011 -9.3187
v 50.1330 -35.7864 -10.8136
v 51.9366 -35.7864 -10.8136
v 14.4467 -29.4798 -9.3187
v 17.0878 -31.4456 -9.4176
v 21.1549 -32.2572 -10.8315
v 23.3660 -32.5732 -11.1710
v 45.8840 -31.3953 -9.3187
v 48.2904 -29.3953 -9.3187
v 10.9533 -25.2423 -7.8806
v 12.4899 -26.6258 -9.2558
v 18.5980 -25.2312 -10.7101
v 21.1549 -25.2988 -10.6473
v 23.9936 -24.9680 -11.0320
v 50.2904 -27.8598 -9.3187
v 51.6590 -25.8598 -9.3187
v 10.9533 -24.3951 -7.8806
v 13.0564 -23.3658 -9.2558
v 16.9386 -22.4081 -9.2145
v 21.1964 -22.5050 -8.6216
v 25.2581 -23.2488 -9.5467
v 28.7811 -22.0721 -9.3165
v 32.0889 -21.7464 -10.6484
v 52.2357 -22.7011 -9.3187
v 17.9459 -20.5055 -7.7189
v 19.8907 -20.5055 -7.7189
v 29.8652 -19.8394 -7.9817
v 33.3153 -19.3681 -9.3165
v 37.1549 -18.6446 -9.3187
v 40.9127 -17.6781 -9.0313
v 45.1549 -17.0635 -7.5242
v 47.2900 -16.8406 -7.4051
v 52.9927 -18.7011 -9.3187
v 42.0845 -16.0513 -10.1730
v 45.1549 -15.5920 -9.5242
v 47.8503 -14.6037 -8.9706
v 53.6286 -14.7011 -9.3187
v 49.9228 -11.9532 -9.3187
v 52.3675 -11.9532 -9.3187
v -37.3920 18.9103 -7.9135
v -34.8451 18.5796 -8.1603
v -31.8302 18.7284 -7.8461
v -25.1916 19.1876 -9.3187
v -23.1214 18.8286 -9.0562
v -19.9427 18.6635 -10.2145
v -37.6298 21.6980 -9.2756
v -34.8451 21.2855 -10.1603
v -30.6362 20.5378 -9.2352
v -27.1916 19.8597 -9.3187
v -21.9723 19.5390 -7.5478
v -18.5351 20.8967 -8.8520
v -15.8162 22.2544 -10.1562
v -38.7859 25.2989 -9.3187
v -17.5823 25.2989 -8.0021
v -15.6872 25.2989 -10.0021
v -45.8310 30.6057 -7.8637
v -42.7146 29.7940 -9.2457
v -40.2153 27.9376 -9.3187
v -21.5881 30.5489 -9.3187
v -18.8871 29.4656 -9.4810
v -14.9361 29.6772 -10.6997
v -12.8279 31.2627 -11.2959
v -49.4872 34.4565 -9.3187
v -47.0366 32.9177 -9.2457
v -43.9610 32.4534 -10.5304
v -22.3759 33.2989 -9.3187
v -17.5619 31.7894 -10.9028
v -14.8451 31.6891 -10.9896
v -12.8279 31.3286 -11.2959
v -53.3541 38.7323 -9.3187
v -51.4872 36.7323 -9.3187
v -21.6328 36.0005 -9.3187
v -18.4485 38.0859 -8.9320
v -16.6267 39.0084 -10.0075
v -54.5709 41.2989 -9.3187
v -49.1372 42.9153 -11.0875
v -46.8451 42.4955 -10.6007
v -42.8451 42.2888 -10.3506
v -38.8451 42.7966 -10.8878
v -34.8451 43.0583 -11.0667
v -32.6356 42.9886 -10.9925
v -16.8508 39.3127 -7.3408
v -16.0875 40.9072 -8.9320
v -54.0619 44.1178 -9.3187
v -50.3330 45.1781 -9.2084
v -47.2364 45.2826 -8.3507
v -42.8451 44.4607 -8.3506
v -38.8763 45.4445 -8.8546
v -34.5401 45.3293 -10.5978
v -32.6356 44.0162 -10.9925
v -15.0479 45.2989 -9.3187
v -48.8621 47.3039 -7.3294
v -48.8307 47.3039 -7.3294
v -37.5638 47.7603 -7.7865
v -34.5401 48.0075 -9.1994
v -30.8451 48.1001 -9.3187
v -26.8305 49.4732 -9.2485
v -22.8451 50.2970 -8.2760
v -20.3019 50.6878 -8.0454
v -13.8310 49.0207 -9.3187
v -12.7406 51.0207 -9.3187
v -25.4875 51.6993 -10.5351
v -22.8451 51.8874 -10.2760
v -18.9233 53.4196 -9.5677
v -15.0045 54.5693 -9.6391
v -12.6461 52.9090 -9.4404
v -17.5448 55.7048 -8.4234
v -15.0045 55.6432 -9.6391
v -12.6527 55.5817 -10.8548
v 26.9556 -48.8495 -3.8233
v 29.1973 -49.0447 -5.2214
v 33.3044 -49.0310 -5.2921
v 35.3931 -48.8266 -6.6077
v 26.5628 -46.7011 -4.6423
v 27.7555 -46.7011 -6.6423
v 34.7373 -48.2183 -3.9410
v 36.8978 -47.4775 -5.2921
v 41.1549 -46.7108 -5.3187
v 45.0973 -46.0024 -5.2999
v 47.7303 -45.3004 -6.6206
v 25.9278 -42.7925 -5.6748
v 27.2184 -44.1867 -7.2456
v 46.0523 -42.7011 -4.3560
v 47.8631 -42.7011 -6.3560
v 21.7774 -38.1758 -5.3187
v 24.0636 -40.1758 -5.3187
v 46.4019 -38.4397 -5.3674
v 47.5237 -39.5988 -6.7332
v 14.5697 -33.8106 -4.0664
v 17.0878 -34.5511 -5.3674
v 19.7774 -36.1815 -5.3187
v 45.2593 -34.7011 -5.3187
v 10.6781 -29.2169 -4.0153
v 13.1910 -30.6203 -5.3742
v 15.7098 -32.0236 -6.7331
v 45.3820 -30.5308 -5.3775
v 47.8672 -29.0839 -6.7500
v 10.3681 -26.6258 -5.3367
v 11.8123 -27.9089 -6.6820
v 46.1799 -27.8513 -4.0833
v 48.9883 -26.5637 -5.5729
v 51.3479 -25.2762 -7.0625
v 10.5291 -24.1954 -5.3187
v 13.1549 -22.8539 -5.3187
v 16.8295 -21.3325 -5.1267
v 21.1964 -21.4268 -5.1267
v 25.1549 -21.6130 -5.3187
v 27.3672 -20.8366 -5.3187
v 42.4516 -21.1048 -3.8310
v 45.1549 -21.3731 -3.9092
v 48.9276 -22.5966 -4.5433
v 51.5128 -22.7011 -6.6432
v 17.9459 -20.5055 -6.3321
v 19.8907 -20.5055 -6.3321
v 29.3672 -19.6845 -5.3187
v 33.1549 -18.8095 -5.3187
v 37.1549 -19.2427 -5.3187
v 41.1329 -19.6406 -5.2261
v 45.1549 -19.0635 -5.9092
v 48.8360 -18.3848 -5.6000
v 51.9538 -18.7011 -5.9641
v 49.3439 -14.7011 -5.9992
v 52.2336 -14.7011 -5.9992
v 49.9385 -12.0835 -6.7210
v 51.8123 -12.0835 -6.7210
v -41.0746 19.0462 -3.7761
v -38.7732 18.6436 -5.1932
v -34.8451 18.1547 -5.3187
v -31.9305 18.7843 -5.3187
v -24.9910 19.2811 -6.4927
v -24.6389 19.2811 -6.4927
v -41.3466 21.2989 -4.2049
v -39.8251 21.2989 -6.2049
v -29.9305 20.1306 -5.3187
v -26.5326 19.9883 -5.2231
v -22.9660 20.7723 -5.0974
v -19.7941 22.2057 -6.3687
v -45.0727 27.0928 -3.7791
v -42.7086 25.5752 -4.8064
v -40.3788 25.2989 -6.8331
v -21.2931 24.3771 -3.7020
v -19.8072 25.5458 -5.1487
v -52.8909 31.2572 -3.3841
v -50.8451 31.2202 -3.6183
v -46.7852 29.5873 -5.0492
v -42.8451 27.8337 -6.6352
v -40.7969 27.3718 -7.2804
v -21.2400 30.4795 -5.3187
v -20.3359 28.4795 -5.3187
v -53.1243 33.2989 -3.7257
v -50.8624 33.0697 -5.4447
v -48.4976 31.5836 -6.3194
v -33.1931 34.9765 -3.6284
v -32.5989 34.9765 -3.6284
v -22.3292 33.2989 -5.3187
v -57.2531 38.8578 -3.9494
v -54.6220 37.4735 -5.2060
v -52.2073 36.0891 -6.4627
v -33.1931 35.6013 -3.6284
v -32.5989 35.6013 -3.6284
v -21.9342 36.5832 -5.3187
v -19.7668 38.5832 -5.3187
v -57.2531 40.5368 -3.9494
v -56.0780 41.6416 -5.2971
v -18.0853 40.9072 -5.3894
v -16.5033 41.9794 -6.7698
v -54.4657 43.8883 -5.3187
v -50.4553 45.7875 -5.7097
v -47.2364 46.0340 -5.7097
v -42.8451 45.3919 -5.3187
v -39.5957 46.4943 -5.3187
v -33.5012 46.9816 -3.6214
v -32.2923 46.9816 -3.6214
v -25.7274 46.7388 -4.0573
v -22.8451 46.3014 -4.2551
v -18.9480 45.2369 -4.3719
v -16.1329 45.2989 -6.2527
v -48.8621 47.3039 -7.3037
v -48.8307 47.3039 -7.3037
v -37.5957 47.7707 -5.3187
v -34.8388 48.0126 -5.1003
v -30.9134 47.8919 -5.1003
v -26.9745 47.9207 -5.3619
v -22.8451 48.2970 -6.2551
v -18.9192 49.3322 -5.6319
v -14.8804 49.6915 -6.1216
v -12.8397 51.2866 -7.3115
v -17.9625 53.2989 -6.1143
v -14.8533 52.9090 -6.3508
v -12.8397 51.3157 -7.3115
v -17.5448 55.7048 -6.8282
v -16.1922 55.7048 -6.8282
v 26.9556 -48.8495 -2.8527
v 29.1549 -48.9731 -2.3516
v 32.0706 -48.9153 -2.4952
v 26.3600 -46.6927 -1.4391
v 29.1549 -47.8833 -0.3516
v 33.3044 -47.9840 -1.2246
v 37.1549 -46.8962 -1.3187
v 41.5157 -45.7339 -0.9792
v 43.7256 -45.3768 -2.0862
v 22.5235 -41.2903 -0.5199
v 24.1300 -42.6546 -1.6394
v 43.0896 -44.5853 0.5804
v 44.1556 -43.0317 -0.9792
v 18.7909 -37.0049 0.1228
v 20.9877 -38.8098 -1.5319
v 23.2390 -40.6147 -3.1865
v 44.6947 -38.7011 -1.3187
v 14.1017 -34.1552 -1.3187
v 17.3365 -36.0887 -1.2538
v 19.4519 -36.4084 -2.5438
v 44.4118 -34.7011 -1.3187
v 10.5259 -29.6030 -1.3187
v 12.1017 -31.6030 -1.3187
v 44.5553 -30.7011 -1.3187
v 9.8381 -26.7011 -1.3187
v 45.8368 -26.5912 -1.3346
v 47.4427 -25.1846 -2.6784
v 10.4671 -24.1376 -1.3187
v 13.1549 -22.9034 -1.3187
v 17.1549 -22.0121 -1.3187
v 21.1549 -22.1602 -1.3187
v 25.0512 -21.5206 -1.6012
v 27.3943 -20.8483 -3.1229
v 39.1404 -20.7258 0.6474
v 41.1329 -21.5854 -0.9391
v 45.1485 -23.4660 -1.3346
v 47.4427 -23.8602 -2.6784
v 26.3153 -20.2326 -0.4562
v 28.8986 -19.6253 -1.6012
v 33.1549 -18.9552 -1.3187
v 37.5462 -19.9117 -0.9391
v 39.7849 -20.3888 -2.0193
v -41.0746 19.0462 -2.5718
v -38.6680 18.8222 -1.2706
v -34.8451 18.8049 -1.3187
v -32.6832 19.2112 -1.3187
v -41.6437 21.1497 -1.2706
v -39.8833 19.7170 0.0949
v -30.6832 20.1053 -1.3187
v -26.8451 20.7759 -1.3187
v -23.9909 21.9695 -1.3187
v -45.3402 26.7849 -1.3187
v -43.6712 24.7849 -1.3187
v -21.9909 25.0282 -1.3187
v -20.7436 27.0282 -1.3187
v -52.8909 31.2572 -3.0536
v -50.9590 30.9217 -1.5597
v -47.3402 28.8587 -1.3187
v -21.4749 30.0855 -1.3187
v -20.7436 28.0855 -1.3187
v -53.4859 33.0981 -1.5597
v -52.3683 31.6309 -0.3869
v -33.1931 34.9765 -3.0943
v -32.5989 34.9765 -3.0943
v -22.6076 33.2989 -1.3187
v -57.2650 38.7503 -1.3187
v -55.6118 36.7503 -1.3187
v -33.1931 35.6013 -3.0943
v -32.5989 35.6013 -3.0943
v -21.9778 36.8159 -1.3187
v -20.5976 38.8159 -1.3187
v -57.2650 40.8382 -1.3187
v -56.5156 42.8382 -1.3187
v -21.7093 42.4812 -0.1480
v -20.3500 41.2083 -1.4163
v -54.5156 43.9314 -1.3187
v -50.8451 45.0010 -1.3187
v -46.8451 45.2861 -1.3187
v -42.5116 46.0436 -0.9817
v -39.7938 46.6500 -2.0903
v -33.5012 46.9816 -2.9635
v -32.2923 46.9816 -2.9635
v -26.2314 46.0932 -1.3187
v -22.9636 44.2724 -1.4163
v -20.3499 43.8623 -2.8147
v -40.9560 47.3412 0.5764
v -38.6143 47.7057 -0.9817
v -34.8388 47.9267 -1.5056
v -30.9134 47.8938 -1.5056
v -28.2314 47.7345 -1.3187
v 23.1140 -48.7523 4.6269
v 25.1549 -49.1602 4.0393
v 29.1549 -49.4732 3.3485
v 33.1549 -49.2917 3.2184
v 35.5530 -49.0200 3.7061
v 23.1140 -48.4720 4.6269
v 25.0702 -46.9128 2.9199
v 29.1549 -47.8833 1.3485
v 33.1549 -48.1669 1.2184
v 37.3489 -46.8408 2.8556
v 40.4229 -45.2832 2.0050
v 18.9689 -40.9545 4.2494
v 21.1761 -41.7273 2.8222
v 24.0279 -43.7938 2.6813
v 39.1449 -44.6935 4.6717
v 41.5157 -43.8619 3.0755
v 43.5508 -41.6578 2.6813
v 18.0261 -38.4834 2.8222
v 19.8568 -39.6716 1.5828
v 43.7613 -38.7011 2.6813
v 10.9800 -33.0391 4.2956
v 13.0634 -34.2004 2.8498
v 15.8834 -36.3218 2.6813
v 44.1884 -34.7011 2.6813
v 10.5378 -30.7132 2.8498
v 11.6691 -32.0546 1.6289
v 45.0562 -30.7011 2.6813
v 10.2037 -26.7011 2.6813
v 44.9085 -26.7011 2.6813
v 10.8439 -24.3038 2.6813
v 13.1549 -22.7505 2.6813
v 17.1317 -21.3902 2.6891
v 21.1549 -21.5080 1.5851
v 23.6487 -21.2242 1.2066
v 38.2234 -21.4101 2.6813
v 41.1549 -23.1243 2.6813
v 43.8302 -24.4153 2.6813
v 18.6007 -18.7011 4.1597
v 20.8600 -18.5549 3.7792
v 25.0512 -19.7042 2.5964
v 29.1549 -19.0999 2.6813
v 33.1549 -19.0624 2.6813
v 36.2234 -20.1002 2.6813
v 19.1214 -16.6783 4.6394
v 19.3301 -16.6783 4.6394
v -41.8377 18.3315 3.7112
v -38.6680 18.2692 2.4992
v -34.8451 18.2803 2.6813
v -32.2524 18.8417 2.6813
v -42.3519 21.1497 2.4992
v -39.8833 19.7170 1.0446
v -30.2524 20.0650 2.6813
v -26.8563 22.0243 2.6615
v -24.5914 22.8197 1.3149
v -46.1401 26.3340 2.6813
v -43.9842 24.3340 2.6813
v -25.5305 23.8981 3.9816
v -22.7665 25.5455 2.8492
v -20.7558 27.1930 1.7167
v -53.1708 31.1041 4.0269
v -50.9590 30.0892 2.6887
v -48.1401 27.9329 2.6813
v -21.8086 29.1552 2.9026
v -20.7558 27.7261 1.7167
v -57.0647 34.9223 4.2838
v -54.6892 33.2766 2.8220
v -52.3683 31.6309 1.3603
v -22.7309 33.2989 2.6813
v -57.1816 37.5246 2.8428
v -56.2075 36.3418 1.6172
v -21.5989 36.8718 2.6813
v -20.6755 38.8718 2.6813
v -57.1011 40.2931 2.6813
v -56.3591 42.2931 2.6813
v -25.2313 43.2122 4.4883
v -22.9636 41.9671 2.9655
v -20.6755 39.6992 2.6813
v -54.3592 44.2966 2.6813
v -50.5879 46.1356 2.8613
v -46.8451 46.3468 1.9223
v -42.2720 46.8862 2.7683
v -40.7322 47.1406 4.1674
v -32.9788 47.2389 4.5711
v -30.8451 46.3641 3.8923
v -26.8546 44.8485 2.7806
v -24.3760 43.5847 1.8217
v -49.0831 47.6028 4.3147
v -46.8451 48.1574 3.9223
v -42.2720 47.7405 2.7683
v -39.1773 47.8223 2.7729
v -34.5253 48.0433 3.0151
v -30.8451 47.8760 1.8923
v -28.4779 47.6576 1.0728
v 23.0930 -52.7794 8.6068
v 23.5570 -52.7794 8.6068
v 22.9436 -50.3318 7.0366
v 24.9962 -51.2646 7.0366
v 29.1549 -50.7469 6.6813
v 33.4231 -49.5963 6.8351
v 35.5530 -49.0200 5.6044
v 22.8182 -46.9636 6.6959
v 23.5209 -45.8053 5.3724
v 34.9353 -48.4518 8.2711
v 37.3489 -46.8192 6.4800
v 41.1549 -45.3353 7.4834
v 43.3123 -45.0612 8.4098
v 18.9689 -40.9545 5.2009
v 21.2827 -42.5950 6.6200
v 23.5209 -44.2356 5.3724
v 39.1449 -44.6935 4.6889
v 41.1549 -43.7389 5.4834
v 43.6162 -42.3360 6.9184
v 11.0916 -36.7743 8.4630
v 13.1549 -36.9494 7.5204
v 17.0630 -38.5312 6.2763
v 19.6814 -40.1034 7.8676
v 44.2389 -38.7011 6.6813
v 11.0358 -34.3038 7.1770
v 12.3109 -34.6455 6.8221
v 15.1570 -36.6993 4.6851
v 44.7977 -34.7011 6.6813
v 10.7446 -30.7244 7.0071
v 11.1856 -32.0732 8.5577
v 45.2354 -30.7011 6.6813
v 10.7714 -27.0773 6.4364
v 11.8780 -25.9947 7.6065
v 38.6453 -24.8661 8.4021
v 41.1549 -25.1806 7.6944
v 44.1522 -26.5857 6.4592
v 11.0245 -24.5544 4.9398
v 13.5076 -22.8255 6.7670
v 15.7829 -21.0966 5.9275
v 26.6266 -21.0481 8.1079
v 27.6609 -21.0481 8.1079
v 34.1880 -21.8060 7.4613
v 36.9530 -23.0472 6.5984
v 41.1549 -24.3217 5.6944
v 43.3994 -24.6080 4.9779
v 15.1371 -20.6763 8.5942
v 17.4521 -19.0855 6.6744
v 20.8600 -17.8992 6.3253
v 25.2379 -19.6534 6.7372
v 29.0585 -19.8010 6.7372
v 32.9748 -19.9203 6.3493
v 35.2607 -20.6173 4.7946
v 19.1214 -16.6783 4.7547
v 19.3301 -16.6783 4.7547
v -41.7563 14.8779 7.8186
v -40.1484 14.8779 7.8186
v -45.0288 18.5865 7.9909
v -43.1303 17.1257 6.5714
v -38.8271 16.2064 6.5636
v -34.8451 17.5821 6.6813
v -32.1081 18.7221 6.6813
v -45.0683 21.2989 7.9280
v -44.2319 21.2989 5.9280
v -30.1081 20.2012 6.6813
v -26.8563 21.8218 6.7224
v -24.4234 22.3007 8.0831
v -46.1298 25.2145 6.8928
v -44.3682 23.8249 5.7006
v -25.5305 23.8981 5.4164
v -23.3586 25.2584 6.7224
v -53.6938 30.8480 6.6813
v -50.8451 29.4008 6.6813
v -48.3655 27.8516 6.6813
v -22.1891 29.2989 6.6813
v -57.0647 34.9223 5.9904
v -55.9194 33.4729 7.0668
v -22.2913 33.2989 6.6813
v -57.1518 37.2989 5.9909
v -56.3107 37.2989 7.9909
v -21.3789 37.6649 6.3517
v -20.8388 39.2423 4.7986
v -57.0344 39.8099 5.1183
v -55.6103 41.2055 6.5435
v -33.2770 43.0457 8.4536
v -30.8451 42.7193 7.7405
v -26.6768 42.5062 6.4652
v -22.5306 40.4288 6.3517
v -20.8388 39.3170 4.7986
v -53.8302 44.2500 6.6813
v -51.3771 46.2500 6.6813
v -41.5545 46.7059 6.6813
v -40.1512 46.7059 6.6813
v -33.6923 45.6629 6.9447
v -30.8451 44.3641 5.7405
v -27.8980 43.4458 4.9878
v -49.3771 47.7959 6.6813
v -46.8451 48.7454 6.6813
v -43.5545 48.2484 6.6813
v -38.1512 47.9343 6.6813
v -35.5802 47.9343 6.6813
v 22.9516 -52.9525 10.6813
v 23.7328 -52.9525 10.6813
v 22.7490 -50.7011 10.6813
v 25.7328 -51.5510 10.6813
v 28.8722 -49.8037 10.8315
v 32.2686 -49.4057 9.5983
v 22.5604 -46.7011 10.6813
v 29.6926 -46.7011 11.8728
v 33.4231 -46.9515 10.1096
v 37.1549 -45.8782 9.9273
v 41.2762 -45.3967 10.8030
v 43.4366 -45.2065 10.6813
v 21.8352 -42.7011 10.6813
v 30.3431 -43.5815 12.0196
v 33.1549 -43.1704 11.7789
v 37.1549 -43.4646 11.9273
v 40.0237 -43.9737 12.2175
v 44.6337 -42.7011 10.6813
v 11.0916 -36.7743 8.7437
v 13.1549 -36.9494 9.2352
v 17.0368 -37.7367 10.6870
v 20.2272 -39.8022 10.6813
v 46.0656 -38.6488 10.8413
v 47.2892 -37.2806 12.2813
v 11.0916 -35.5684 8.7437
v 12.7733 -34.4215 9.8960
v 15.5352 -34.7011 12.1528
v 46.1562 -34.7011 10.0224
v 47.4245 -34.7011 12.0224
v 11.1378 -29.4066 8.6966
v 12.7733 -30.7244 10.2402
v 15.2222 -30.7011 12.6185
v 45.7001 -30.9356 10.7942
v 47.3801 -32.4252 12.2027
v 11.1378 -28.6614 8.6966
v 13.1888 -27.0773 9.8464
v 15.8323 -26.7011 12.1262
v 26.6442 -25.2949 12.2359
v 29.1549 -25.5919 11.8557
v 33.1549 -25.6717 11.4489
v 37.2492 -25.6079 10.4886
v 41.1549 -26.6319 10.6813
v 43.7763 -28.0236 10.6813
v 14.6839 -22.7011 9.1706
v 17.2653 -22.7693 11.0314
v 21.1549 -21.6364 11.6816
v 25.3021 -22.4413 10.8266
v 29.0585 -22.5093 9.7645
v 32.9748 -22.9640 9.4390
v 35.9786 -24.4726 9.0268
v 15.1371 -20.6763 8.7041
v 17.1549 -20.2777 9.1467
v 21.1549 -19.8815 9.6816
v 23.9600 -20.1480 9.4173
v 30.3276 -20.0365 8.9207
v 31.5214 -20.0365 8.9207
v -44.9135 15.1312 12.2682
v -42.9918 14.9376 10.8334
v -40.3125 14.9730 10.6813
v -44.9711 17.0828 10.7447
v -44.3056 17.0828 10.7447
v -38.3526 17.1815 10.8766
v -34.8451 18.5316 9.5251
v -32.6414 19.1382 8.8142
v -45.1963 21.3232 10.6052
v -44.1883 20.0061 11.8878
v -37.5619 21.2989 11.9671
v -34.8451 21.2989 10.7031
v -31.1229 21.1618 9.9528
v -26.9407 21.6563 10.9641
v -24.0070 21.9169 10.6813
v -45.8470 25.2989 10.6813
v -37.2449 23.9014 12.0703
v -34.8451 24.2941 11.8592
v -30.8451 24.1357 12.1710
v -28.3379 23.6901 12.4860
v -22.0832 25.3362 10.7656
v -20.6595 26.6944 12.1552
v -53.6510 30.8924 9.2227
v -50.8316 30.2388 10.6062
v -47.5458 28.2786 10.6813
v -21.4519 29.2989 9.5811
v -20.3788 29.2989 11.5811
v -54.4438 33.2989 9.8495
v -52.0295 33.2989 11.8495
v -21.3822 33.2989 9.6723
v -20.3802 33.2989 11.6723
v -54.3107 37.2989 9.9437
v -52.0986 37.2989 11.9437
v -25.5452 38.8988 12.3022
v -22.4604 37.1926 10.9561
v -20.6613 35.4864 12.2767
v -53.6658 41.2989 9.6059
v -50.8869 41.6072 11.7343
v -48.6959 43.1460 12.5368
v -41.4237 42.6085 12.1795
v -38.8451 42.0650 11.6027
v -34.7042 42.0580 10.5194
v -30.8451 41.3236 10.6813
v -26.8652 40.3578 10.8539
v -23.6543 39.9174 9.6356
v -53.3108 43.9486 9.2471
v -50.7279 45.2887 9.9522
v -47.1556 45.3292 11.5453
v -42.9026 45.3412 10.7076
v -38.7578 45.3194 9.5943
v -35.8038 45.2989 9.1988
v -49.3165 47.6576 9.0448
v -46.8451 47.8868 9.3697
v -44.3814 47.7240 9.2356
v -37.3662 47.7841 8.9744
v -36.3582 47.7841 8.9744
v 22.9458 -52.9581 12.8592
v 23.5234 -52.9581 12.8592
v 22.9825 -50.7011 12.8318
v 24.9760 -50.3848 12.8374
v 27.3503 -48.8406 12.7407
v 22.9505 -46.7011 12.9290
v 25.1549 -46.7011 13.6145
v 27.6926 -46.7011 13.3668
v 42.6904 -45.0149 12.9337
v 43.3731 -45.0149 12.9337
v 22.3528 -42.6139 14.4657
v 25.1549 -43.8279 15.5528
v 29.0678 -43.5837 14.7940
v 33.1549 -42.4213 14.6813
v 37.2629 -41.7469 14.6576
v 41.1962 -42.5843 14.4544
v 44.4212 -42.5975 14.4327
v 18.2913 -37.4336 13.6305
v 20.3054 -38.7406 14.8508
v 38.6682 -40.2801 15.9751
v 39.7021 -40.2801 15.9751
v 46.3918 -38.6488 14.5659
v 47.2892 -37.2806 13.1557
v 17.7696 -34.6087 14.8508
v 19.4908 -35.8805 16.2971
v 46.6574 -36.2265 15.8224
v 47.5925 -34.8163 14.5659
v 17.0467 -30.7011 14.6813
v 26.8166 -29.1848 16.1707
v 29.1549 -29.2690 16.1456
v 31.3453 -28.9747 16.4776
v 45.6824 -29.8821 14.6813
v 47.6012 -31.8821 14.6813
v 18.0460 -27.0134 14.5571
v 21.1549 -26.0338 15.4978
v 25.3971 -26.6263 14.7404
v 29.1549 -27.5919 14.1456
v 32.9990 -26.6815 15.0743
v 37.1549 -25.7108 13.9571
v 41.0276 -26.4619 14.7082
v 43.6824 -28.4175 14.6813
v 18.6722 -24.1481 13.1410
v 21.1549 -23.6364 13.4978
v 23.9776 -23.8345 13.3102
v 34.6528 -24.5741 16.3376
v 37.1549 -24.3885 15.9571
v 39.6094 -24.4113 16.0594
v -44.9135 15.1312 12.7617
v -42.8451 15.1630 12.7491
v -40.8317 15.2853 12.6913
v -44.9135 15.5792 12.7617
v -42.8510 17.0671 12.9251
v -40.2519 17.2989 12.9258
v -45.1328 22.6728 13.1298
v -42.6712 21.5611 14.3969
v -38.6563 21.7547 14.4712
v -35.6098 23.0600 15.9452
v -25.6712 22.4544 13.1070
v -24.1493 22.4544 13.1070
v -45.4918 25.3174 14.5504
v -43.8207 23.9964 15.7965
v -37.2449 23.9014 13.2786
v -34.5039 24.1251 14.6397
v -30.8451 25.0574 14.6813
v -26.9407 24.7941 14.5367
v -22.8276 24.8900 14.5367
v -20.6647 26.5964 14.6813
v -49.4893 30.5706 13.6256
v -47.4790 29.2619 14.8479
v -20.1849 29.2989 14.6813
v -50.0295 33.2989 14.1309
v -48.3039 33.2989 16.1309
v -19.7173 33.2989 14.6813
v -50.0986 37.2989 14.1498
v -48.2889 37.2989 16.1498
v -41.0816 39.0752 16.4234
v -38.8451 38.5840 15.9410
v -36.3452 38.5694 15.9521
v -25.5452 38.8988 13.5013
v -23.0703 37.9900 14.7733
v -20.1970 35.9629 14.6813
v -49.5815 40.4794 13.6508
v -47.2271 41.5300 14.8454
v -42.5860 41.2612 14.8983
v -38.8451 40.0650 13.9410
v -34.9452 40.4637 14.6438
v -30.8396 42.0361 14.9488
v -27.0959 40.9109 14.9809
v -24.5537 39.5236 16.1679
v -46.0292 44.0161 13.3733
v -44.0904 44.0161 13.3733
v -29.5027 43.3893 16.4605
v -28.6466 43.3893 16.4605
v 30.0349 -45.0811 19.7441
v 33.1549 -45.0861 19.7268
v 35.2659 -44.8344 20.3457
v 22.0325 -41.8774 18.6813
v 25.1549 -43.4715 18.6813
v 28.8829 -44.1421 18.5190
v 33.1549 -43.9520 17.7268
v 36.0552 -42.7361 18.8799
v 42.3687 -41.1950 17.1127
v 44.0059 -41.1950 17.1127
v 20.7162 -38.7011 18.6813
v 38.1970 -39.8375 18.6813
v 41.2150 -38.7920 18.6982
v 44.4200 -38.7011 17.7067
v 18.8908 -33.4261 18.6813
v 19.8386 -35.4261 18.6813
v 30.2239 -33.4963 19.8708
v 32.0059 -33.4963 19.8708
v 42.6876 -34.7011 20.3197
v 45.0113 -34.6656 19.1069
v 47.5634 -33.6478 18.6813
v 18.8928 -30.8973 18.3512
v 20.3069 -29.6947 19.4645
v 26.1771 -29.6074 18.6813
v 28.9963 -31.1902 18.5950
v 33.0090 -30.5641 18.6436
v 36.0408 -29.4869 20.0830
v 42.9587 -32.3186 20.5967
v 44.7856 -30.8344 19.5022
v 47.5634 -31.7212 18.6813
v 19.0702 -28.5548 16.7979
v 21.4461 -28.1123 18.3512
v 24.1771 -28.0749 18.6813
v 33.9211 -26.7011 17.4451
v 37.2864 -26.7221 19.3668
v 41.0276 -26.4328 18.7558
v 43.8508 -28.3396 18.6813
v 34.6528 -24.5741 16.9647
v 37.1549 -24.3885 17.4869
v 39.6094 -24.4113 17.4721
v -41.2053 23.1150 18.6813
v -38.8451 22.5672 18.6813
v -34.5039 22.5250 18.3173
v -32.3935 22.7395 19.4080
v -45.7340 26.2017 18.6813
v -43.2053 24.2017 18.6813
v -32.9431 23.3489 16.7414
v -30.9741 24.8304 18.3173
v -27.2361 26.9535 18.5311
v -22.8451 26.7411 17.0719
v -20.7901 26.9667 16.7857
v -46.8862 29.2989 18.6813
v -25.9710 29.2989 19.8171
v -22.8451 29.2989 18.6977
v -20.6512 29.2989 17.5619
v -47.5670 33.2989 18.6813
v -37.5261 34.2507 19.7392
v -34.8451 34.4167 19.8326
v -32.4559 35.1708 20.4918
v -25.0701 33.2989 20.4812
v -23.2235 32.9951 20.3630
v -20.0082 32.9951 18.9231
v -46.6489 37.3197 18.7197
v -42.5870 38.4843 18.7197
v -38.8537 36.8258 18.5160
v -34.9452 37.2612 18.0204
v -31.6865 37.2989 20.0617
v -25.1210 37.2989 20.5433
v -23.3481 37.2775 19.2560
v -19.9516 36.2668 18.6813
v -45.7583 39.9140 17.4120
v -43.7483 39.9140 17.4120
v -33.6786 40.3887 17.3780
v -30.5961 41.2748 18.5030
v -26.8712 40.8423 18.7450
v -24.5537 39.5236 17.8622
v -29.5027 43.3893 16.9612
v -28.6466 43.3893 16.9612
v 22.8887 -45.2015 23.7550
v 25.1549 -45.5701 23.1130
v 28.8829 -45.5062 22.3824
v 33.0941 -45.1912 22.4767
v 35.2659 -44.8344 21.0069
v 22.1672 -42.9295 22.5255
v 25.1549 -44.3447 21.1130
v 27.3682 -44.5121 20.8498
v 34.3869 -44.1335 23.6736
v 35.9759 -42.7606 22.4767
v 21.5332 -38.7011 22.6813
v 37.5216 -38.6629 22.5549
v 40.0614 -37.3040 21.1373
v 18.9520 -33.1551 20.9013
v 20.9899 -34.5735 22.4133
v 29.7120 -34.0069 22.6813
v 33.2655 -34.5099 22.7555
v 36.7672 -35.0653 23.1604
v 40.6876 -34.7011 21.1874
v 46.0320 -33.1047 20.8284
v 47.3297 -33.1047 20.8284
v 18.9520 -32.3614 20.9013
v 21.6513 -31.0449 22.2355
v 24.9757 -30.3613 22.4144
v 27.7120 -32.0059 22.6813
v 34.6726 -32.1536 21.4717
v 37.2864 -30.7726 21.3868
v 41.4372 -30.8716 20.9515
v 44.7356 -30.9313 20.7873
v 47.3297 -32.2107 20.8284
v 22.9736 -28.6095 20.9031
v 23.5228 -28.6095 20.9031
v 38.7075 -28.0693 20.8479
v 41.1549 -28.1161 20.8550
v 43.4392 -28.5529 20.7462
v -41.9348 22.3341 22.6813
v -38.8451 21.4737 22.6813
v -34.5596 22.2749 22.9415
v -32.3935 22.7395 21.7816
v -45.4929 25.7461 22.6813
v -43.9348 23.7461 22.6813
v -33.0360 23.5035 24.4483
v -30.6660 25.3963 22.6577
v -28.8301 27.2892 20.8672
v -45.7251 29.3697 22.8652
v -44.2505 30.7503 24.3211
v -29.6369 29.2989 23.3167
v -27.9710 29.2989 21.3167
v -46.1082 33.2989 22.0411
v -44.0423 33.2989 24.0411
v -38.0365 33.7115 22.6813
v -34.8451 32.8940 22.6813
v -31.1316 33.4205 22.4227
v -27.0701 33.2989 21.2935
v -22.1424 34.1259 20.9963
v -20.3341 34.1259 20.9963
v -45.9263 36.0002 21.5211
v -42.9596 36.4687 22.7852
v -40.0365 36.2351 22.6813
v -29.6865 37.2989 20.8449
v -27.1210 37.2989 20.8449
v -22.1424 35.8917 20.9963
v -20.3341 35.8917 20.9963
v -29.0229 39.4944 20.7446
v -27.7623 39.4944 20.7446
v 22.8887 -45.2015 25.0593
v 25.1549 -45.5701 25.3347
v 29.1549 -45.4225 25.3590
v 31.7202 -45.0046 25.0917
v 22.4070 -42.6014 26.5081
v 25.1699 -42.6014 27.2250
v 29.1549 -42.7011 26.2881
v 33.0941 -42.7606 25.5191
v 35.8693 -41.4669 25.1301
v 22.5519 -38.4943 26.3848
v 25.1699 -38.4943 27.1730
v 29.1549 -38.7011 26.3860
v 33.1549 -38.7011 25.7450
v 35.7061 -38.7011 25.0254
v 23.0168 -34.7011 24.9759
v 25.1549 -34.7011 25.6729
v 28.9592 -34.8687 25.4923
v 33.1549 -36.3657 25.0056
v 35.1754 -36.6413 24.6913
v 22.9956 -32.3952 24.9015
v 25.1549 -32.2329 25.0846
v 27.4954 -32.3828 24.9988
v -42.1266 22.0750 25.1902
v -38.8451 21.8892 25.6482
v -35.7027 22.6431 25.4616
v -45.2729 25.9934 26.6813
v -43.0814 25.0952 26.7076
v -38.8451 25.2989 26.7281
v -34.5596 25.0216 25.7762
v -31.6053 26.1701 25.1629
v -45.2729 28.3047 26.6813
v -42.8100 29.3027 26.6484
v -38.8451 29.2989 26.3432
v -34.8451 29.2989 25.8869
v -31.6369 29.2989 25.1756
v -42.0423 33.2989 25.3722
v -38.9896 33.0579 25.4653
v -34.8451 31.7761 25.1035
v -32.4739 31.6702 24.8588
v -41.7026 35.7158 25.2119
v -40.4193 35.7158 25.2119
v 22.7130 -41.2016 29.2240
v 23.8465 -41.2016 29.2240
v 22.7130 -39.6897 29.2240
v 23.8465 -39.6897 29.2240
v -45.1482 26.8015 29.1522
v -44.0362 26.8015 29.1522
v -45.1482 27.8552 29.1522
v -44.0362 27.8552 29.1522
f 4 2 1
f 4 5 2
f 5 3 2
f 5 6 3
f 7 6 5
f 7 8 6
f 9 8 7
f 9 10 8
f 15 12 11
f 15 16 12
f 16 13 12
f 16 17 13
f 17 14 13
f 17 18 14
f 19 18 17
f 19 20 18
f 21 20 19
f 21 22 20
f 23 22 21
f 23 24 22
f 29 25 28
f 29 26 25
f 31 28 27
f 31 32 28
f 32 29 28
f 32 33 29
f 34 1 2
f 34 33 1
f 33 30 29
f 33 34 30
f 35 2 3
f 35 34 2
f 33 4 1
f 33 37 4
f 36 33 32
f 36 37 33
f 38 5 4
f 38 4 37
f 39 35 3
f 39 3 6
f 38 7 5
f 38 40 7
f 39 6 8
f 39 8 41
f 42 7 40
f 42 9 7
f 43 41 8
f 43 8 10
f 10 9 42
f 10 42 43
f 42 40 41
f 42 41 43
f 49 11 12
f 49 48 11
f 49 44 48
f 49 45 44
f 13 49 12
f 13 50 49
f 49 46 45
f 49 50 46
f 51 13 14
f 51 50 13
f 48 15 11
f 48 53 15
f 52 48 47
f 52 53 48
f 54 16 15
f 54 15 53
f 17 16 54
f 17 54 55
f 51 14 18
f 51 18 56
f 55 50 51
f 55 51 56
f 57 54 53
f 57 58 54
f 59 17 55
f 59 19 17
f 59 54 58
f 59 55 54
f 60 56 18
f 60 18 20
f 61 19 59
f 61 21 19
f 60 20 22
f 60 22 62
f 63 21 61
f 63 23 21
f 64 62 22
f 64 22 24
f 24 23 63
f 24 63 64
f 63 61 62
f 63 62 64
f 67 25 26
f 67 66 25
f 70 25 66
f 70 28 25
f 70 27 28
f 70 69 27
f 70 65 69
f 70 66 65
f 71 67 26
f 71 26 29
f 30 71 29
f 30 72 71
f 71 68 67
f 71 72 68
f 69 31 27
f 69 74 31
f 75 32 31
f 75 31 74
f 76 72 30
f 76 30 34
f 35 76 34
f 35 77 76
f 79 73 78
f 79 74 73
f 75 36 32
f 75 80 36
f 79 75 74
f 79 80 75
f 81 37 36
f 81 36 80
f 38 37 81
f 38 81 82
f 77 35 39
f 77 39 83
f 83 82 76
f 83 76 77
f 84 79 78
f 84 85 79
f 86 79 85
f 86 80 79
f 86 81 80
f 86 87 81
f 88 38 82
f 88 40 38
f 88 81 87
f 88 82 81
f 83 39 41
f 83 41 89
f 89 41 40
f 89 40 88
f 89 88 82
f 89 82 83
f 91 87 90
f 91 88 87
f 92 88 91
f 92 89 88
f 94 90 93
f 94 91 90
f 97 44 45
f 97 96 44
f 46 97 45
f 46 98 97
f 100 44 96
f 100 48 44
f 100 47 48
f 100 99 47
f 100 95 99
f 100 96 95
f 101 98 46
f 101 46 50
f 99 52 47
f 99 104 52
f 105 53 52
f 105 52 104
f 106 101 50
f 106 50 55
f 56 106 55
f 56 107 106
f 106 102 101
f 106 107 102
f 109 103 108
f 109 104 103
f 105 57 53
f 105 110 57
f 109 105 104
f 109 110 105
f 111 58 57
f 111 57 110
f 112 59 58
f 112 58 111
f 113 107 56
f 113 56 60
f 114 109 108
f 114 115 109
f 116 109 115
f 116 110 109
f 116 111 110
f 116 117 111
f 112 61 59
f 112 118 61
f 117 112 111
f 117 118 112
f 113 60 62
f 113 62 119
f 119 62 61
f 119 61 118
f 120 118 117
f 120 121 118
f 121 119 118
f 121 122 119
f 66 123 65
f 66 124 123
f 125 66 67
f 125 124 66
f 68 125 67
f 68 126 125
f 123 69 65
f 123 127 69
f 128 127 123
f 128 123 124
f 129 126 68
f 129 68 72
f 133 69 127
f 133 74 69
f 133 73 74
f 133 132 73
f 129 72 76
f 129 76 134
f 134 130 129
f 134 135 130
f 137 73 132
f 137 78 73
f 137 131 136
f 137 132 131
f 138 134 76
f 138 76 82
f 139 134 138
f 139 135 134
f 137 84 78
f 137 141 84
f 140 137 136
f 140 141 137
f 142 85 84
f 142 84 141
f 86 85 142
f 86 142 143
f 144 87 86
f 144 86 143
f 145 138 82
f 145 82 88
f 89 145 88
f 89 146 145
f 145 139 138
f 145 146 139
f 148 140 147
f 148 141 140
f 148 142 141
f 148 149 142
f 149 143 142
f 149 150 143
f 144 90 87
f 144 151 90
f 150 144 143
f 150 151 144
f 146 89 92
f 146 92 153
f 92 91 152
f 92 152 153
f 154 148 147
f 154 155 148
f 155 149 148
f 155 156 149
f 157 149 156
f 157 150 149
f 151 93 90
f 151 158 93
f 157 151 150
f 157 158 151
f 152 91 94
f 152 94 159
f 159 94 93
f 159 93 158
f 160 157 156
f 160 161 157
f 162 157 161
f 162 158 157
f 163 162 161
f 163 164 162
f 166 163 165
f 166 164 163
f 168 95 96
f 168 167 95
f 169 96 97
f 169 168 96
f 98 169 97
f 98 170 169
f 171 95 167
f 171 99 95
f 172 171 167
f 172 167 168
f 173 170 98
f 173 98 101
f 102 173 101
f 102 174 173
f 177 99 171
f 177 104 99
f 177 103 104
f 177 176 103
f 178 174 102
f 178 102 107
f 180 103 176
f 180 108 103
f 180 175 179
f 180 176 175
f 178 107 113
f 178 113 181
f 180 114 108
f 180 183 114
f 183 179 182
f 183 180 179
f 184 115 114
f 184 114 183
f 116 115 184
f 116 184 185
f 186 117 116
f 186 116 185
f 181 113 119
f 181 119 188
f 190 182 189
f 190 183 182
f 190 184 183
f 190 191 184
f 192 184 191
f 192 185 184
f 186 120 117
f 186 193 120
f 192 186 185
f 192 193 186
f 194 121 120
f 194 120 193
f 188 119 122
f 188 122 195
f 195 122 121
f 195 121 194
f 195 194 187
f 195 187 188
f 196 192 191
f 196 197 192
f 198 192 197
f 198 193 192
f 199 193 198
f 199 194 193
f 200 198 197
f 200 201 198
f 202 198 201
f 202 199 198
f 204 200 203
f 204 201 200
f 206 203 205
f 206 204 203
f 209 208 207
f 209 210 208
f 125 211 124
f 125 212 211
f 126 212 125
f 126 213 212
f 211 128 124
f 211 215 128
f 128 214 127
f 128 215 214
f 216 213 126
f 216 126 129
f 130 216 129
f 130 217 216
f 219 131 132
f 219 218 131
f 214 133 127
f 214 220 133
f 133 219 132
f 133 220 219
f 221 217 130
f 221 130 135
f 218 136 131
f 218 223 136
f 226 221 135
f 226 135 139
f 228 136 223
f 228 140 136
f 228 222 227
f 228 223 222
f 229 224 225
f 229 225 230
f 231 226 139
f 231 139 146
f 236 140 228
f 236 147 140
f 235 228 227
f 235 236 228
f 237 229 230
f 237 230 238
f 239 231 146
f 239 146 153
f 239 153 152
f 239 152 238
f 239 238 230
f 239 230 231
f 241 232 240
f 241 233 232
f 242 233 241
f 242 234 233
f 242 235 234
f 242 243 235
f 236 154 147
f 236 244 154
f 243 236 235
f 243 244 236
f 245 155 154
f 245 154 244
f 246 156 155
f 246 155 245
f 238 152 159
f 238 159 248
f 159 158 247
f 159 247 248
f 251 240 250
f 251 241 240
f 253 243 252
f 253 244 243
f 253 245 244
f 253 254 245
f 246 160 156
f 246 255 160
f 254 246 245
f 254 255 246
f 256 161 160
f 256 160 255
f 247 158 162
f 247 162 257
f 258 247 257
f 258 248 247
f 258 249 248
f 258 259 249
f 260 255 254
f 260 261 255
f 256 163 161
f 256 262 163
f 261 256 255
f 261 262 256
f 263 257 162
f 263 162 164
f 264 257 263
f 264 258 257
f 264 259 258
f 264 265 259
f 266 163 262
f 266 165 163
f 263 164 166
f 263 166 267
f 166 165 266
f 166 266 267
f 267 264 263
f 267 268 264
f 268 265 264
f 268 269 265
f 270 269 268
f 270 271 269
f 169 272 168
f 169 273 272
f 170 273 169
f 170 274 273
f 272 172 168
f 272 278 172
f 172 277 171
f 172 278 277
f 279 274 170
f 279 170 173
f 280 173 174
f 280 279 173
f 282 175 176
f 282 281 175
f 282 275 281
f 282 276 275
f 283 171 277
f 283 177 171
f 283 176 177
f 283 282 176
f 283 276 282
f 283 277 276
f 284 280 174
f 284 174 178
f 286 175 281
f 286 179 175
f 284 178 181
f 284 181 289
f 294 179 286
f 294 182 179
f 294 285 293
f 294 286 285
f 295 287 288
f 295 288 296
f 297 289 181
f 297 181 188
f 188 187 296
f 188 296 297
f 298 289 297
f 298 290 289
f 301 291 300
f 301 292 291
f 302 292 301
f 302 293 292
f 294 189 182
f 294 303 189
f 302 294 293
f 302 303 294
f 304 190 189
f 304 189 303
f 305 191 190
f 305 190 304
f 307 296 187
f 307 187 194
f 306 295 296
f 306 296 307
f 310 299 309
f 310 300 299
f 311 300 310
f 311 301 300
f 312 301 311
f 312 302 301
f 312 303 302
f 312 313 303
f 313 304 303
f 313 314 304
f 305 196 191
f 305 315 196
f 314 305 304
f 314 315 305
f 316 197 196
f 316 196 315
f 307 194 199
f 307 199 317
f 317 308 307
f 317 318 308
f 320 309 319
f 320 310 309
f 316 200 197
f 316 323 200
f 322 316 315
f 322 323 316
f 317 199 202
f 317 202 325
f 202 201 324
f 202 324 325
f 326 317 325
f 326 318 317
f 328 321 327
f 328 322 321
f 329 200 323
f 329 203 200
f 328 323 322
f 328 329 323
f 324 201 204
f 324 204 330
f 331 324 330
f 331 325 324
f 331 326 325
f 331 332 326
f 334 203 329
f 334 205 203
f 335 330 204
f 335 204 206
f 206 205 334
f 206 334 335
f 336 330 335
f 336 331 330
f 336 332 331
f 336 337 332
f 338 207 208
f 338 337 207
f 337 333 332
f 337 338 333
f 339 207 337
f 339 209 207
f 340 338 208
f 340 208 210
f 340 210 209
f 340 209 339
f 212 344 211
f 212 345 344
f 346 212 213
f 346 345 212
f 348 341 347
f 348 342 341
f 348 343 342
f 348 349 343
f 344 215 211
f 344 350 215
f 215 349 214
f 215 350 349
f 351 350 344
f 351 344 345
f 346 213 216
f 346 216 352
f 351 345 346
f 351 346 352
f 353 216 217
f 353 352 216
f 356 218 219
f 356 355 218
f 356 347 355
f 356 348 347
f 357 214 349
f 357 220 214
f 357 219 220
f 357 356 219
f 357 348 356
f 357 349 348
f 353 217 221
f 353 221 359
f 358 352 353
f 358 353 359
f 362 218 355
f 362 223 218
f 362 222 223
f 362 361 222
f 362 354 361
f 362 355 354
f 225 224 363
f 225 363 364
f 365 359 221
f 365 221 226
f 365 364 358
f 365 358 359
f 368 222 361
f 368 227 222
f 368 360 367
f 368 361 360
f 369 363 224
f 369 224 229
f 370 225 364
f 370 230 225
f 371 365 226
f 371 226 231
f 231 230 370
f 231 370 371
f 370 364 365
f 370 365 371
f 233 372 232
f 233 373 372
f 374 233 234
f 374 373 233
f 374 366 373
f 374 367 366
f 375 227 368
f 375 235 227
f 375 234 235
f 375 374 234
f 374 368 367
f 374 375 368
f 369 229 237
f 369 237 376
f 377 237 238
f 377 376 237
f 372 240 232
f 372 379 240
f 242 241 380
f 242 380 381
f 382 243 242
f 382 242 381
f 377 238 248
f 377 248 383
f 249 383 248
f 249 384 383
f 379 250 240
f 379 386 250
f 385 379 378
f 385 386 379
f 380 241 251
f 380 251 387
f 251 250 386
f 251 386 387
f 388 380 387
f 388 381 380
f 382 252 243
f 382 389 252
f 388 382 381
f 388 389 382
f 390 253 252
f 390 252 389
f 391 254 253
f 391 253 390
f 392 384 249
f 392 249 259
f 394 387 393
f 394 388 387
f 391 260 254
f 391 396 260
f 395 391 390
f 395 396 391
f 397 261 260
f 397 260 396
f 262 261 397
f 262 397 398
f 392 259 265
f 392 265 401
f 402 262 398
f 402 266 262
f 267 266 402
f 267 402 403
f 402 398 399
f 402 399 403
f 268 267 403
f 268 403 404
f 403 399 400
f 403 400 404
f 401 265 269
f 401 269 405
f 406 268 404
f 406 270 268
f 405 269 271
f 405 271 407
f 407 271 270
f 407 270 406
f 273 411 272
f 273 412 411
f 413 273 274
f 413 412 273
f 415 275 276
f 415 414 275
f 415 408 414
f 415 409 408
f 277 415 276
f 277 416 415
f 415 410 409
f 415 416 410
f 417 272 411
f 417 278 272
f 278 416 277
f 278 417 416
f 413 274 279
f 413 279 419
f 418 412 413
f 418 413 419
f 420 279 280
f 420 419 279
f 421 275 414
f 421 281 275
f 420 280 284
f 420 284 423
f 422 419 420
f 422 420 423
f 426 281 421
f 426 286 281
f 426 285 286
f 426 425 285
f 288 287 427
f 288 427 428
f 429 423 284
f 429 284 289
f 428 422 423
f 428 423 429
f 290 429 289
f 290 430 429
f 292 431 291
f 292 432 431
f 433 285 425
f 433 293 285
f 433 292 293
f 433 432 292
f 433 424 432
f 433 425 424
f 434 427 287
f 434 287 295
f 435 288 428
f 435 296 288
f 297 296 435
f 297 435 436
f 435 428 429
f 435 429 436
f 430 290 298
f 430 298 437
f 298 297 436
f 298 436 437
f 436 429 430
f 436 430 437
f 439 291 431
f 439 300 291
f 439 299 300
f 439 438 299
f 434 295 306
f 434 306 440
f 441 306 307
f 441 440 306
f 308 441 307
f 308 442 441
f 443 299 438
f 443 309 299
f 311 310 444
f 311 444 445
f 446 312 311
f 446 311 445
f 313 312 446
f 313 446 447
f 314 313 447
f 314 447 448
f 449 315 314
f 449 314 448
f 442 308 318
f 442 318 451
f 450 441 442
f 450 442 451
f 443 319 309
f 443 452 319
f 444 310 320
f 444 320 453
f 320 319 452
f 320 452 453
f 454 444 453
f 454 445 444
f 455 445 454
f 455 446 445
f 455 447 446
f 455 456 447
f 457 447 456
f 457 448 447
f 449 322 315
f 449 458 322
f 458 321 322
f 458 457 321
f 458 448 457
f 458 449 448
f 459 451 318
f 459 318 326
f 460 454 453
f 460 461 454
f 457 327 321
f 457 463 327
f 462 457 456
f 462 463 457
f 464 328 327
f 464 327 463
f 465 329 328
f 465 328 464
f 468 459 326
f 468 326 332
f 333 468 332
f 333 469 468
f 470 329 465
f 470 334 329
f 335 334 470
f 335 470 471
f 470 465 466
f 470 466 471
f 336 335 471
f 336 471 472
f 471 466 467
f 471 467 472
f 473 337 336
f 473 336 472
f 474 469 333
f 474 333 338
f 476 337 473
f 476 339 337
f 475 473 472
f 475 476 473
f 477 474 338
f 477 338 340
f 477 340 339
f 477 339 476
f 477 476 473
f 477 473 474
f 480 341 342
f 480 479 341
f 481 342 343
f 481 480 342
f 483 341 479
f 483 347 341
f 482 479 478
f 482 483 479
f 485 481 343
f 485 343 349
f 484 480 481
f 484 481 485
f 350 485 349
f 350 486 485
f 351 486 350
f 351 487 486
f 488 351 352
f 488 487 351
f 490 347 483
f 490 355 347
f 490 354 355
f 490 489 354
f 490 482 489
f 490 483 482
f 488 352 358
f 488 358 492
f 491 487 488
f 491 488 492
f 494 354 489
f 494 361 354
f 494 360 361
f 494 493 360
f 496 492 358
f 496 358 364
f 496 364 363
f 496 363 495
f 496 495 491
f 496 491 492
f 499 360 493
f 499 367 360
f 499 366 367
f 499 498 366
f 500 495 363
f 500 363 369
f 503 366 498
f 503 373 366
f 503 372 373
f 503 502 372
f 503 497 502
f 503 498 497
f 500 369 376
f 500 376 504
f 505 376 377
f 505 504 376
f 507 372 502
f 507 379 372
f 507 378 379
f 507 506 378
f 507 501 506
f 507 502 501
f 505 377 383
f 505 383 509
f 508 504 505
f 508 505 509
f 510 383 384
f 510 509 383
f 511 378 506
f 511 385 378
f 512 386 385
f 512 385 511
f 387 386 512
f 387 512 513
f 515 389 388
f 515 388 514
f 516 390 389
f 516 389 515
f 510 384 392
f 510 392 520
f 519 509 510
f 519 510 520
f 513 393 387
f 513 521 393
f 514 388 394
f 514 394 522
f 394 393 521
f 394 521 522
f 522 521 513
f 522 513 514
f 516 395 390
f 516 523 395
f 524 396 395
f 524 395 523
f 525 397 396
f 525 396 524
f 398 397 525
f 398 525 526
f 399 398 526
f 399 526 527
f 527 526 517
f 527 517 518
f 400 399 527
f 400 527 528
f 528 527 518
f 528 518 519
f 520 392 401
f 520 401 529
f 529 528 519
f 529 519 520
f 530 400 528
f 530 404 400
f 531 529 401
f 531 401 405
f 530 528 529
f 530 529 531
f 532 404 530
f 532 406 404
f 533 531 405
f 533 405 407
f 533 407 406
f 533 406 532
f 532 530 531
f 532 531 533
f 536 408 409
f 536 535 408
f 410 536 409
f 410 537 536
f 539 411 412
f 539 538 411
f 541 408 535
f 541 414 408
f 541 534 540
f 541 535 534
f 542 537 410
f 542 410 416
f 538 417 411
f 538 543 417
f 417 542 416
f 417 543 542
f 539 412 418
f 539 418 544
f 543 538 539
f 543 539 544
f 545 418 419
f 545 544 418
f 548 414 541
f 548 421 414
f 548 540 547
f 548 541 540
f 545 419 422
f 545 422 550
f 549 544 545
f 549 545 550
f 554 424 425
f 554 553 424
f 554 546 553
f 554 547 546
f 555 421 548
f 555 426 421
f 555 425 426
f 555 554 425
f 554 548 547
f 554 555 548
f 557 550 422
f 557 422 428
f 557 428 427
f 557 427 556
f 558 552 551
f 558 559 552
f 560 424 553
f 560 432 424
f 560 431 432
f 560 559 431
f 560 552 559
f 560 553 552
f 563 556 427
f 563 427 434
f 566 431 559
f 566 439 431
f 566 438 439
f 566 565 438
f 566 558 565
f 566 559 558
f 567 561 562
f 567 562 568
f 563 434 440
f 563 440 569
f 570 440 441
f 570 569 440
f 565 443 438
f 565 572 443
f 572 564 571
f 572 565 564
f 570 441 450
f 570 450 573
f 574 450 451
f 574 573 450
f 575 443 572
f 575 452 443
f 576 453 452
f 576 452 575
f 578 455 454
f 578 454 577
f 579 456 455
f 579 455 578
f 574 451 459
f 574 459 585
f 584 573 574
f 584 574 585
f 576 460 453
f 576 586 460
f 577 454 461
f 577 461 587
f 461 460 586
f 461 586 587
f 586 576 577
f 586 577 587
f 579 462 456
f 579 588 462
f 589 463 462
f 589 462 588
f 590 464 463
f 590 463 589
f 590 589 580
f 590 580 581
f 591 465 464
f 591 464 590
f 592 466 465
f 592 465 591
f 592 591 582
f 592 582 583
f 467 466 592
f 467 592 593
f 593 592 583
f 593 583 584
f 585 459 468
f 585 468 594
f 593 584 585
f 593 585 594
f 595 468 469
f 595 594 468
f 596 467 593
f 596 472 467
f 596 593 594
f 596 594 597
f 598 595 469
f 598 469 474
f 474 473 597
f 474 597 598
f 597 594 595
f 597 595 598
f 596 475 472
f 596 599 475
f 600 597 473
f 600 473 476
f 600 476 475
f 600 475 599
f 600 599 596
f 600 596 597
f 602 478 479
f 602 601 478
f 603 479 480
f 603 602 479
f 601 482 478
f 601 604 482
f 605 604 601
f 605 601 602
f 603 480 484
f 603 484 606
f 605 602 603
f 605 603 606
f 607 484 485
f 607 606 484
f 486 607 485
f 486 608 607
f 609 486 487
f 609 608 486
f 611 482 604
f 611 489 482
f 609 487 491
f 609 491 613
f 612 608 609
f 612 609 613
f 616 489 611
f 616 494 489
f 616 493 494
f 616 615 493
f 616 610 615
f 616 611 610
f 617 613 491
f 617 491 495
f 619 497 498
f 619 618 497
f 620 493 615
f 620 499 493
f 620 498 499
f 620 619 498
f 620 614 619
f 620 615 614
f 617 495 500
f 617 500 621
f 623 497 618
f 623 502 497
f 623 501 502
f 623 622 501
f 624 621 500
f 624 500 504
f 625 501 622
f 625 506 501
f 624 504 508
f 624 508 626
f 627 508 509
f 627 626 508
f 628 506 625
f 628 511 506
f 629 512 511
f 629 511 628
f 513 512 629
f 513 629 630
f 514 513 630
f 514 630 631
f 632 515 514
f 632 514 631
f 633 516 515
f 633 515 632
f 636 518 517
f 636 517 635
f 627 509 519
f 627 519 637
f 637 519 518
f 637 518 636
f 636 626 627
f 636 627 637
f 633 523 516
f 633 639 523
f 638 633 632
f 638 639 633
f 640 524 523
f 640 523 639
f 525 524 640
f 525 640 641
f 642 635 517
f 642 517 526
f 642 526 525
f 642 525 641
f 642 641 634
f 642 634 635
f 644 534 535
f 644 643 534
f 645 535 536
f 645 644 535
f 646 536 537
f 646 645 536
f 643 540 534
f 643 647 540
f 648 647 643
f 648 643 644
f 649 646 537
f 649 537 542
f 650 542 543
f 650 649 542
f 651 543 544
f 651 650 543
f 653 540 647
f 653 547 540
f 653 546 547
f 653 652 546
f 651 544 549
f 651 549 654
f 655 549 550
f 655 654 549
f 552 656 551
f 552 657 656
f 658 546 652
f 658 553 546
f 658 552 553
f 658 657 552
f 655 550 557
f 655 557 660
f 557 556 659
f 557 659 660
f 656 558 551
f 656 661 558
f 662 661 656
f 662 656 657
f 562 561 663
f 562 663 664
f 665 659 556
f 665 556 563
f 667 558 661
f 667 565 558
f 667 564 565
f 667 666 564
f 663 561 567
f 663 567 668
f 664 568 562
f 664 669 568
f 568 668 567
f 568 669 668
f 668 664 663
f 668 669 664
f 665 563 569
f 665 569 670
f 671 569 570
f 671 670 569
f 666 571 564
f 666 672 571
f 673 572 571
f 673 571 672
f 675 671 570
f 675 570 573
f 673 575 572
f 673 676 575
f 677 576 575
f 677 575 676
f 678 577 576
f 678 576 677
f 578 577 678
f 578 678 679
f 680 579 578
f 680 578 679
f 581 580 681
f 581 681 682
f 583 582 683
f 583 683 684
f 685 675 573
f 685 573 584
f 685 584 583
f 685 583 684
f 685 684 674
f 685 674 675
f 680 588 579
f 680 687 588
f 686 680 679
f 686 687 680
f 688 681 580
f 688 580 589
f 688 589 588
f 688 588 687
f 689 581 682
f 689 590 581
f 688 682 681
f 688 689 682
f 690 683 582
f 690 582 591
f 690 591 590
f 690 590 689
f 696 692 691
f 696 697 692
f 698 604 605
f 698 697 604
f 697 693 692
f 697 698 693
f 699 605 606
f 699 698 605
f 698 694 693
f 698 699 694
f 607 699 606
f 607 700 699
f 699 695 694
f 699 700 695
f 701 607 608
f 701 700 607
f 704 604 697
f 704 611 604
f 704 610 611
f 704 703 610
f 701 608 612
f 701 612 706
f 705 700 701
f 705 701 706
f 707 612 613
f 707 706 612
f 709 610 703
f 709 615 610
f 709 614 615
f 709 708 614
f 709 702 708
f 709 703 702
f 707 613 617
f 707 617 710
f 713 614 708
f 713 619 614
f 713 618 619
f 713 712 618
f 714 710 617
f 714 617 621
f 716 618 712
f 716 623 618
f 716 622 623
f 716 715 622
f 716 711 715
f 716 712 711
f 714 621 624
f 714 624 717
f 718 622 715
f 718 625 622
f 719 717 624
f 719 624 626
f 718 628 625
f 718 720 628
f 629 628 720
f 629 720 721
f 630 629 721
f 630 721 722
f 723 631 630
f 723 630 722
f 724 632 631
f 724 631 723
f 726 635 634
f 726 634 725
f 727 719 626
f 727 626 636
f 727 636 635
f 727 635 726
f 728 723 722
f 728 729 723
f 724 638 632
f 724 730 638
f 730 723 729
f 730 724 723
f 731 639 638
f 731 638 730
f 640 639 731
f 640 731 732
f 733 725 634
f 733 634 641
f 733 641 640
f 733 640 732
f 735 728 734
f 735 729 728
f 645 737 644
f 645 738 737
f 646 738 645
f 646 739 738
f 741 644 737
f 741 648 644
f 741 647 648
f 741 740 647
f 741 736 740
f 741 737 736
f 739 646 649
f 739 649 742
f 650 742 649
f 650 743 742
f 744 650 651
f 744 743 650
f 740 653 647
f 740 746 653
f 746 652 653
f 746 745 652
f 744 651 654
f 744 654 748
f 747 743 744
f 747 744 748
f 749 654 655
f 749 748 654
f 745 658 652
f 745 752 658
f 658 751 657
f 658 752 751
f 754 749 655
f 754 655 660
f 754 660 659
f 754 659 753
f 753 748 749
f 753 749 754
f 757 657 751
f 757 662 657
f 757 661 662
f 757 756 661
f 757 750 756
f 757 751 750
f 758 753 659
f 758 659 665
f 760 661 756
f 760 667 661
f 760 666 667
f 760 759 666
f 760 755 759
f 760 756 755
f 758 665 670
f 758 670 761
f 671 761 670
f 671 762 761
f 763 666 759
f 763 672 666
f 764 673 672
f 764 672 763
f 767 762 671
f 767 671 675
f 767 675 674
f 767 674 766
f 764 676 673
f 764 768 676
f 677 676 768
f 677 768 769
f 770 678 677
f 770 677 769
f 679 678 770
f 679 770 771
f 776 766 674
f 776 674 684
f 776 684 683
f 776 683 775
f 776 775 765
f 776 765 766
f 777 770 769
f 777 778 770
f 771 686 679
f 771 779 686
f 779 770 778
f 779 771 770
f 780 687 686
f 780 686 779
f 779 771 772
f 779 772 780
f 781 688 687
f 781 687 780
f 782 689 688
f 782 688 781
f 782 781 773
f 782 773 774
f 783 775 683
f 783 683 690
f 783 690 689
f 783 689 782
f 783 782 774
f 783 774 775
f 692 786 691
f 692 787 786
f 787 784 786
f 787 785 784
f 788 692 693
f 788 787 692
f 694 788 693
f 694 789 788
f 790 694 695
f 790 789 694
f 791 691 786
f 791 696 691
f 792 697 696
f 792 696 791
f 790 695 700
f 790 700 794
f 793 789 790
f 793 790 794
f 703 797 702
f 703 798 797
f 792 704 697
f 792 799 704
f 799 703 704
f 799 798 703
f 799 791 798
f 799 792 791
f 794 700 705
f 794 705 800
f 801 705 706
f 801 800 705
f 800 795 794
f 800 801 795
f 707 801 706
f 707 802 801
f 801 796 795
f 801 802 796
f 797 708 702
f 797 805 708
f 806 805 797
f 806 797 798
f 807 802 707
f 807 707 710
f 809 711 712
f 809 808 711
f 809 803 808
f 809 804 803
f 810 708 805
f 810 713 708
f 810 712 713
f 810 809 712
f 810 804 809
f 810 805 804
f 807 710 714
f 807 714 811
f 812 711 808
f 812 715 711
f 813 812 808
f 813 808 809
f 811 714 717
f 811 717 814
f 815 715 812
f 815 718 715
f 819 814 717
f 819 717 719
f 820 718 815
f 820 720 718
f 721 720 820
f 721 820 821
f 820 815 816
f 820 816 821
f 822 722 721
f 822 721 821
f 827 726 725
f 827 725 826
f 827 826 817
f 827 817 818
f 828 819 719
f 828 719 727
f 828 727 726
f 828 726 827
f 828 827 818
f 828 818 819
f 822 728 722
f 822 830 728
f 829 822 821
f 829 830 822
f 832 730 729
f 832 729 831
f 731 730 832
f 731 832 833
f 833 832 823
f 833 823 824
f 834 732 731
f 834 731 833
f 835 826 725
f 835 725 733
f 835 733 732
f 835 732 834
f 835 834 825
f 835 825 826
f 836 728 830
f 836 734 728
f 831 729 735
f 831 735 837
f 735 734 836
f 735 836 837
f 836 830 831
f 836 831 837
f 842 736 737
f 842 841 736
f 842 838 841
f 842 839 838
f 843 737 738
f 843 842 737
f 844 738 739
f 844 843 738
f 846 736 841
f 846 740 736
f 846 840 845
f 846 841 840
f 844 739 742
f 844 742 847
f 743 847 742
f 743 848 847
f 846 746 740
f 846 851 746
f 851 745 746
f 851 850 745
f 851 845 850
f 851 846 845
f 852 848 743
f 852 743 747
f 853 747 748
f 853 852 747
f 852 849 848
f 852 853 849
f 855 750 751
f 855 854 750
f 856 745 850
f 856 752 745
f 752 855 751
f 752 856 855
f 857 853 748
f 857 748 753
f 854 756 750
f 854 859 756
f 859 755 756
f 859 858 755
f 860 857 753
f 860 753 758
f 861 755 858
f 861 759 755
f 862 861 858
f 862 858 859
f 860 758 761
f 860 761 863
f 864 761 762
f 864 863 761
f 865 759 861
f 865 763 759
f 764 763 865
f 764 865 866
f 865 861 862
f 865 862 866
f 870 766 765
f 870 765 869
f 871 864 762
f 871 762 767
f 871 767 766
f 871 766 870
f 871 870 863
f 871 863 864
f 866 768 764
f 866 872 768
f 769 768 872
f 769 872 873
f 772 771 874
f 772 874 875
f 877 774 773
f 877 773 876
f 877 876 867
f 877 867 868
f 878 869 765
f 878 765 775
f 878 775 774
f 878 774 877
f 878 877 868
f 878 868 869
f 873 777 769
f 873 879 777
f 880 778 777
f 880 777 879
f 874 771 779
f 874 779 881
f 881 779 778
f 881 778 880
f 882 772 875
f 882 780 772
f 883 876 773
f 883 773 781
f 781 780 882
f 781 882 883
f 785 884 784
f 785 885 884
f 886 784 884
f 886 786 784
f 887 885 785
f 887 785 787
f 788 887 787
f 788 888 887
f 889 788 789
f 889 888 788
f 890 786 886
f 890 791 786
f 889 789 793
f 889 793 892
f 891 888 889
f 891 889 892
f 893 793 794
f 893 892 793
f 795 893 794
f 795 894 893
f 796 894 795
f 796 895 894
f 890 798 791
f 890 896 798
f 898 897 891
f 898 891 892
f 898 892 893
f 898 893 899
f 900 899 893
f 900 893 894
f 901 895 796
f 901 796 802
f 903 803 804
f 903 902 803
f 904 804 805
f 904 903 804
f 896 806 798
f 896 905 806
f 806 904 805
f 806 905 904
f 901 802 807
f 901 807 906
f 908 803 902
f 908 808 803
f 809 808 908
f 809 908 909
f 908 902 903
f 908 903 909
f 910 909 903
f 910 903 904
f 911 906 807
f 911 807 811
f 911 907 906
f 911 912 907
f 909 813 809
f 909 914 813
f 813 913 812
f 813 914 913
f 914 909 910
f 914 910 915
f 911 811 814
f 911 814 916
f 917 911 916
f 917 912 911
f 918 812 913
f 918 815 812
f 816 815 918
f 816 918 919
f 918 913 914
f 918 914 919
f 919 914 915
f 919 915 920
f 925 818 817
f 925 817 924
f 926 916 814
f 926 814 819
f 926 819 818
f 926 818 925
f 927 816 919
f 927 821 816
f 927 919 920
f 927 920 928
f 931 824 823
f 931 823 930
f 931 930 921
f 931 921 922
f 932 931 922
f 932 922 923
f 933 924 817
f 933 817 826
f 933 826 825
f 933 825 932
f 933 932 923
f 933 923 924
f 927 829 821
f 927 934 829
f 935 830 829
f 935 829 934
f 935 934 927
f 935 927 928
f 936 831 830
f 936 830 935
f 935 928 929
f 935 929 936
f 937 930 823
f 937 823 832
f 937 832 831
f 937 831 936
f 937 936 929
f 937 929 930
f 938 824 931
f 938 833 824
f 939 932 825
f 939 825 834
f 939 834 833
f 939 833 938
f 939 938 931
f 939 931 932
f 942 838 839
f 942 941 838
f 944 838 941
f 944 841 838
f 944 840 841
f 944 943 840
f 944 940 943
f 944 941 940
f 945 942 839
f 945 839 842
f 946 842 843
f 946 945 842
f 947 843 844
f 947 946 843
f 948 840 943
f 948 845 840
f 949 948 943
f 949 943 944
f 950 945 946
f 950 946 951
f 947 844 847
f 947 847 952
f 951 946 947
f 951 947 952
f 848 952 847
f 848 953 952
f 849 953 848
f 849 954 953
f 955 845 948
f 955 850 845
f 956 950 951
f 956 951 957
f 958 957 951
f 958 951 952
f 959 958 952
f 959 952 953
f 960 954 849
f 960 849 853
f 855 962 854
f 855 963 962
f 964 850 955
f 964 856 850
f 856 963 855
f 856 964 963
f 965 960 853
f 965 853 857
f 965 961 960
f 965 966 961
f 962 859 854
f 962 967 859
f 968 967 962
f 968 962 963
f 965 857 860
f 965 860 969
f 969 966 965
f 969 970 966
f 967 862 859
f 967 971 862
f 971 967 968
f 971 968 972
f 969 860 863
f 969 863 974
f 975 969 974
f 975 970 969
f 976 862 971
f 976 866 862
f 976 971 972
f 976 972 977
f 982 868 867
f 982 867 981
f 983 869 868
f 983 868 982
f 984 974 863
f 984 863 870
f 984 870 869
f 984 869 983
f 984 983 973
f 984 973 974
f 976 872 866
f 976 985 872
f 873 872 985
f 873 985 986
f 985 976 977
f 985 977 986
f 986 977 978
f 986 978 987
f 989 875 874
f 989 874 988
f 989 988 979
f 989 979 980
f 990 981 867
f 990 867 876
f 990 989 980
f 990 980 981
f 991 873 986
f 991 879 873
f 880 879 991
f 880 991 992
f 991 986 987
f 991 987 992
f 993 988 874
f 993 874 881
f 993 881 880
f 993 880 992
f 993 992 987
f 993 987 988
f 994 875 989
f 994 882 875
f 990 876 883
f 990 883 995
f 883 882 994
f 883 994 995
f 994 989 990
f 994 990 995
f 997 884 885
f 997 996 884
f 998 884 996
f 998 886 884
f 997 885 887
f 997 887 999
f 998 996 997
f 998 997 999
f 1000 887 888
f 1000 999 887
f 998 890 886
f 998 1001 890
f 1001 998 999
f 1001 999 1002
f 1000 888 891
f 1000 891 1003
f 1002 999 1000
f 1002 1000 1003
f 895 1004 894
f 895 1005 1004
f 1001 896 890
f 1001 1006 896
f 1007 1006 1001
f 1007 1001 1002
f 1003 891 897
f 1003 897 1008
f 1007 1002 1003
f 1007 1003 1008
f 1009 897 898
f 1009 1008 897
f 899 1009 898
f 899 1010 1009
f 1004 900 894
f 1004 1011 900
f 900 1010 899
f 900 1011 1010
f 1005 895 901
f 1005 901 1012
f 1012 1011 1004
f 1012 1004 1005
f 1006 905 896
f 1006 1014 905
f 905 1013 904
f 905 1014 1013
f 1016 1015 1010
f 1016 1010 1011
f 1012 901 906
f 1012 906 1017
f 907 1017 906
f 907 1018 1017
f 1013 910 904
f 1013 1019 910
f 1020 1019 1013
f 1020 1013 1014
f 1018 907 912
f 1018 912 1022
f 1021 1017 1018
f 1021 1018 1022
f 1023 910 1019
f 1023 915 910
f 1022 912 917
f 1022 917 1028
f 917 916 1027
f 917 1027 1028
f 1023 920 915
f 1023 1029 920
f 1032 922 921
f 1032 921 1031
f 1032 1031 1024
f 1032 1024 1025
f 1033 923 922
f 1033 922 1032
f 1032 1025 1026
f 1032 1026 1033
f 1034 924 923
f 1034 923 1033
f 925 924 1034
f 925 1034 1035
f 1027 916 926
f 1027 926 1036
f 1036 926 925
f 1036 925 1035
f 1037 920 1029
f 1037 928 920
f 929 928 1037
f 929 1037 1038
f 1037 1029 1030
f 1037 1030 1038
f 1039 1031 921
f 1039 921 930
f 1039 930 929
f 1039 929 1038
f 1039 1038 1030
f 1039 1030 1031
f 1040 1034 1033
f 1040 1041 1034
f 1042 1034 1041
f 1042 1035 1034
f 1044 940 941
f 1044 1043 940
f 1045 941 942
f 1045 1044 941
f 1046 940 1043
f 1046 943 940
f 944 943 1046
f 944 1046 1047
f 1046 1043 1044
f 1046 1044 1047
f 1048 1045 942
f 1048 942 945
f 1047 1044 1045
f 1047 1045 1048
f 1047 949 944
f 1047 1050 949
f 949 1049 948
f 949 1050 1049
f 1048 945 950
f 1048 950 1051
f 1050 1047 1048
f 1050 1048 1051
f 954 1053 953
f 954 1054 1053
f 1049 955 948
f 1049 1055 955
f 1056 1055 1049
f 1056 1049 1050
f 1057 1051 950
f 1057 950 956
f 957 1057 956
f 957 1058 1057
f 1057 1052 1051
f 1057 1058 1052
f 958 1058 957
f 958 1059 1058
f 1053 959 953
f 1053 1060 959
f 959 1059 958
f 959 1060 1059
f 1054 954 960
f 1054 960 1061
f 1060 1053 1054
f 1060 1054 1061
f 961 1061 960
f 961 1062 1061
f 1055 964 955
f 1055 1064 964
f 964 1063 963
f 964 1064 1063
f 1065 1062 961
f 1065 961 966
f 1063 968 963
f 1063 1066 968
f 1067 1066 1063
f 1067 1063 1064
f 1065 966 970
f 1065 970 1068
f 1069 968 1066
f 1069 972 968
f 1070 1069 1066
f 1070 1066 1067
f 1075 974 973
f 1075 973 1074
f 1068 970 975
f 1068 975 1076
f 975 974 1075
f 975 1075 1076
f 1077 972 1069
f 1077 977 972
f 978 977 1077
f 978 1077 1078
f 1077 1069 1070
f 1077 1070 1078
f 1080 980 979
f 1080 979 1079
f 1080 1079 1071
f 1080 1071 1072
f 1081 981 980
f 1081 980 1080
f 1080 1072 1073
f 1080 1073 1081
f 982 981 1081
f 982 1081 1082
f 1074 973 983
f 1074 983 1083
f 1083 983 982
f 1083 982 1082
f 1084 1074 1083
f 1084 1075 1074
f 1085 978 1078
f 1085 987 978
f 1086 1079 979
f 1086 979 988
f 1086 988 987
f 1086 987 1085
f 1086 1085 1078
f 1086 1078 1079
f 1088 1082 1087
f 1088 1083 1082
f 1007 1092 1006
f 1007 1093 1092
f 1094 1007 1008
f 1094 1093 1007
f 1095 1008 1009
f 1095 1094 1008
f 1095 1089 1094
f 1095 1090 1089
f 1096 1009 1010
f 1096 1095 1009
f 1095 1091 1090
f 1095 1096 1091
f 1012 1097 1011
f 1012 1098 1097
f 1092 1014 1006
f 1092 1099 1014
f 1100 1096 1010
f 1100 1010 1015
f 1097 1016 1011
f 1097 1101 1016
f 1016 1100 1015
f 1016 1101 1100
f 1098 1012 1017
f 1098 1017 1102
f 1102 1101 1097
f 1102 1097 1098
f 1099 1020 1014
f 1099 1104 1020
f 1020 1103 1019
f 1020 1104 1103
f 1102 1017 1021
f 1102 1021 1108
f 1107 1101 1102
f 1107 1102 1108
f 1109 1021 1022
f 1109 1108 1021
f 1103 1023 1019
f 1103 1110 1023
f 1113 1025 1024
f 1113 1024 1112
f 1026 1025 1113
f 1026 1113 1114
f 1113 1105 1106
f 1113 1106 1114
f 1116 1107 1108
f 1116 1108 1117
f 1109 1022 1028
f 1109 1028 1118
f 1118 1028 1027
f 1118 1027 1117
f 1119 1023 1110
f 1119 1029 1023
f 1030 1029 1119
f 1030 1119 1120
f 1119 1110 1111
f 1119 1111 1120
f 1121 1112 1024
f 1121 1024 1031
f 1121 1031 1030
f 1121 1030 1120
f 1122 1026 1114
f 1122 1033 1026
f 1122 1114 1115
f 1122 1115 1123
f 1125 1117 1027
f 1125 1027 1036
f 1125 1036 1035
f 1125 1035 1124
f 1122 1040 1033
f 1122 1126 1040
f 1041 1040 1126
f 1041 1126 1127
f 1127 1126 1122
f 1127 1122 1123
f 1124 1035 1042
f 1124 1042 1128
f 1042 1041 1127
f 1042 1127 1128
f 1128 1127 1123
f 1128 1123 1124
f 1051 1129 1050
f 1051 1130 1129
f 1052 1130 1051
f 1052 1131 1130
f 1129 1056 1050
f 1129 1134 1056
f 1056 1133 1055
f 1056 1134 1133
f 1135 1131 1052
f 1135 1052 1058
f 1059 1135 1058
f 1059 1136 1135
f 1135 1132 1131
f 1135 1136 1132
f 1060 1136 1059
f 1060 1137 1136
f 1138 1060 1061
f 1138 1137 1060
f 1062 1138 1061
f 1062 1139 1138
f 1133 1064 1055
f 1133 1140 1064
f 1141 1137 1138
f 1141 1138 1142
f 1139 1062 1065
f 1139 1065 1143
f 1143 1142 1138
f 1143 1138 1139
f 1140 1067 1064
f 1140 1144 1067
f 1149 1148 1141
f 1149 1141 1142
f 1143 1065 1068
f 1143 1068 1150
f 1150 1149 1142
f 1150 1142 1143
f 1144 1070 1067
f 1144 1151 1070
f 1153 1072 1071
f 1153 1071 1152
f 1073 1072 1153
f 1073 1153 1154
f 1154 1153 1145
f 1154 1145 1146
f 1154 1146 1147
f 1154 1147 1155
f 1157 1156 1148
f 1157 1148 1149
f 1158 1150 1068
f 1158 1068 1076
f 1158 1076 1075
f 1158 1075 1157
f 1159 1070 1151
f 1159 1078 1070
f 1160 1152 1071
f 1160 1071 1079
f 1079 1078 1159
f 1079 1159 1160
f 1159 1151 1152
f 1159 1152 1160
f 1161 1073 1154
f 1161 1081 1073
f 1082 1081 1161
f 1082 1161 1162
f 1161 1154 1155
f 1161 1155 1162
f 1164 1157 1075
f 1164 1075 1084
f 1084 1083 1163
f 1084 1163 1164
f 1164 1163 1156
f 1164 1156 1157
f 1165 1082 1162
f 1165 1087 1082
f 1166 1163 1083
f 1166 1083 1088
f 1088 1087 1165
f 1088 1165 1166
f 1166 1165 1162
f 1166 1162 1163
f 1170 1089 1090
f 1170 1169 1089
f 1171 1090 1091
f 1171 1170 1090
f 1173 1092 1093
f 1173 1172 1092
f 1173 1167 1172
f 1173 1168 1167
f 1174 1089 1169
f 1174 1094 1089
f 1174 1093 1094
f 1174 1173 1093
f 1174 1168 1173
f 1174 1169 1168
f 1176 1171 1091
f 1176 1091 1096
f 1175 1170 1171
f 1175 1171 1176
f 1177 1092 1172
f 1177 1099 1092
f 1176 1096 1100
f 1176 1100 1178
f 1179 1100 1101
f 1179 1178 1100
f 1177 1104 1099
f 1177 1181 1104
f 1104 1180 1103
f 1104 1181 1180
f 1106 1105 1182
f 1106 1182 1183
f 1179 1101 1107
f 1179 1107 1185
f 1184 1178 1179
f 1184 1179 1185
f 1109 1186 1108
f 1109 1187 1186
f 1188 1103 1180
f 1188 1110 1103
f 1111 1110 1188
f 1111 1188 1189
f 1188 1180 1181
f 1188 1181 1189
f 1191 1182 1105
f 1191 1105 1113
f 1191 1113 1112
f 1191 1112 1190
f 1192 1106 1183
f 1192 1114 1106
f 1115 1114 1192
f 1115 1192 1193
f 1192 1183 1184
f 1192 1184 1193
f 1185 1107 1116
f 1185 1116 1194
f 1193 1184 1185
f 1193 1185 1194
f 1186 1117 1108
f 1186 1195 1117
f 1195 1116 1117
f 1195 1194 1116
f 1187 1109 1118
f 1187 1118 1196
f 1196 1118 1117
f 1196 1117 1195
f 1196 1195 1186
f 1196 1186 1187
f 1197 1111 1189
f 1197 1120 1111
f 1198 1190 1112
f 1198 1112 1121
f 1121 1120 1197
f 1121 1197 1198
f 1197 1189 1190
f 1197 1190 1198
f 1199 1115 1193
f 1199 1123 1115
f 1124 1123 1199
f 1124 1199 1200
f 1199 1193 1194
f 1199 1194 1200
f 1201 1195 1117
f 1201 1117 1125
f 1125 1124 1200
f 1125 1200 1201
f 1201 1200 1194
f 1201 1194 1195
f 1203 1129 1130
f 1203 1202 1129
f 1204 1130 1131
f 1204 1203 1130
f 1205 1131 1132
f 1205 1204 1131
f 1202 1134 1129
f 1202 1207 1134
f 1134 1206 1133
f 1134 1207 1206
f 1205 1132 1136
f 1205 1136 1209
f 1208 1204 1205
f 1208 1205 1209
f 1210 1136 1137
f 1210 1209 1136
f 1211 1133 1206
f 1211 1140 1133
f 1210 1137 1141
f 1210 1141 1214
f 1213 1209 1210
f 1213 1210 1214
f 1215 1140 1211
f 1215 1144 1140
f 1215 1211 1212
f 1215 1212 1216
f 1218 1146 1145
f 1218 1145 1217
f 1147 1146 1218
f 1147 1218 1219
f 1220 1214 1141
f 1220 1141 1148
f 1220 1219 1213
f 1220 1213 1214
f 1222 1149 1150
f 1222 1221 1149
f 1223 1144 1215
f 1223 1151 1144
f 1152 1151 1223
f 1152 1223 1224
f 1223 1215 1216
f 1223 1216 1224
f 1225 1217 1145
f 1225 1145 1153
f 1225 1153 1152
f 1225 1152 1224
f 1226 1147 1219
f 1226 1155 1147
f 1227 1220 1148
f 1227 1148 1156
f 1226 1219 1220
f 1226 1220 1227
f 1228 1149 1221
f 1228 1157 1149
f 1222 1150 1158
f 1222 1158 1229
f 1158 1157 1228
f 1158 1228 1229
f 1228 1221 1222
f 1228 1222 1229
f 1230 1155 1226
f 1230 1162 1155
f 1231 1227 1156
f 1231 1156 1163
f 1163 1162 1230
f 1163 1230 1231
f 1230 1226 1227
f 1230 1227 1231
f 1233 1167 1168
f 1233 1232 1167
f 1234 1168 1169
f 1234 1233 1168
f 1235 1169 1170
f 1235 1234 1169
f 1232 1172 1167
f 1232 1236 1172
f 1237 1236 1232
f 1237 1232 1233
f 1238 1237 1233
f 1238 1233 1234
f 1235 1170 1175
f 1235 1175 1239
f 1238 1234 1235
f 1238 1235 1239
f 1240 1175 1176
f 1240 1239 1175
f 1236 1177 1172
f 1236 1241 1177
f 1243 1242 1237
f 1243 1237 1238
f 1244 1243 1238
f 1244 1238 1239
f 1240 1176 1178
f 1240 1178 1245
f 1244 1239 1240
f 1244 1240 1245
f 1246 1177 1241
f 1246 1181 1177
f 1247 1246 1241
f 1247 1241 1242
f 1248 1247 1242
f 1248 1242 1243
f 1249 1183 1182
f 1249 1182 1248
f 1249 1248 1243
f 1249 1243 1244
f 1250 1245 1178
f 1250 1178 1184
f 1250 1184 1183
f 1250 1183 1249
f 1250 1249 1244
f 1250 1244 1245
f 1251 1181 1246
f 1251 1189 1181
f 1190 1189 1251
f 1190 1251 1252
f 1251 1246 1247
f 1251 1247 1252
f 1253 1248 1182
f 1253 1182 1191
f 1191 1190 1252
f 1191 1252 1253
f 1253 1252 1247
f 1253 1247 1248
f 1203 1254 1202
f 1203 1255 1254
f 1256 1203 1204
f 1256 1255 1203
f 1254 1207 1202
f 1254 1258 1207
f 1258 1206 1207
f 1258 1257 1206
f 1259 1258 1254
f 1259 1254 1255
f 1256 1204 1208
f 1256 1208 1260
f 1259 1255 1256
f 1259 1256 1260
f 1261 1208 1209
f 1261 1260 1208
f 1262 1206 1257
f 1262 1211 1206
f 1212 1211 1262
f 1212 1262 1263
f 1263 1258 1259
f 1263 1259 1264
f 1265 1264 1259
f 1265 1259 1260
f 1261 1209 1213
f 1261 1213 1266
f 1265 1260 1261
f 1265 1261 1266
f 1267 1212 1263
f 1267 1216 1212
f 1267 1263 1264
f 1267 1264 1268
f 1269 1218 1217
f 1269 1217 1268
f 1269 1268 1264
f 1269 1264 1265
f 1270 1266 1213
f 1270 1213 1219
f 1270 1219 1218
f 1270 1218 1269
f 1270 1269 1265
f 1270 1265 1266
f 1271 1216 1267
f 1271 1224 1216
f 1272 1268 1217
f 1272 1217 1225
f 1225 1224 1271
f 1225 1271 1272
f 1272 1271 1267
f 1272 1267 1268
f 1274 1236 1237
f 1274 1273 1236
f 1273 1241 1236
f 1273 1275 1241
f 1274 1237 1242
f 1274 1242 1276
f 1276 1242 1241
f 1276 1241 1275
f 1275 1273 1274
f 1275 1274 1276
f 1278 1257 1258
f 1278 1277 1257
f 1277 1262 1257
f 1277 1279 1262
f 1278 1258 1263
f 1278 1263 1280
f 1280 1263 1262
f 1280 1262 1279
f 1279 1277 1278
f 1279 1278 1280
