# parsimony mesh: cplx_CPLX0-253 (source /Users/eranagmon/code/v2e-cplx/workspace/studies/ecoli-3d/viz/3d/structures/cplx_CPLX0-253.pdb)
# atoms: 3094  voxel: 16 Å  verts: 89  tris: 162
v 33.6428 -49.2183 -16.9852
v 43.7869 -48.9208 -16.6626
v 51.9212 -47.7843 -15.4485
v 33.1229 -39.6623 -17.7869
v 43.7869 -39.6623 -19.0554
v 53.1708 -39.6623 -16.5940
v 34.3790 -27.9318 -16.9476
v 43.2899 -23.0240 -17.7765
v 53.7660 -23.6623 -17.1726
v 48.2919 -14.7956 -16.2200
v 52.7147 -14.7956 -16.2200
v -45.6853 30.2843 -16.7437
v -36.2131 29.5027 -17.5781
v -25.9797 30.6111 -16.9107
v -45.6853 35.4121 -16.7437
v -36.1172 40.5824 -17.7259
v -25.3193 40.3377 -17.2623
v -30.7200 51.8554 -16.3227
v -26.5881 51.8554 -16.3227
v 18.9400 -48.9565 -0.9407
v 28.1004 -50.3632 -6.6946
v 43.7869 -51.5345 -7.3254
v 53.5647 -49.1290 -7.3254
v 18.9400 -42.5189 -0.9407
v 24.1196 -38.1763 -6.6946
v 55.0660 -39.6623 -7.3254
v 30.8109 -26.9405 -7.3254
v 43.2899 -21.0696 -7.2842
v 53.5446 -24.8471 -7.2842
v 48.2919 -14.7956 -12.5900
v 52.7147 -14.7956 -12.5900
v -60.2368 32.2776 0.6374
v -51.4964 28.9538 -5.7477
v -36.2131 24.2139 -7.3254
v -20.4730 28.9454 -6.4628
v -11.9107 31.9358 -0.5544
v -60.2368 35.3894 0.6374
v -52.9187 40.7341 -6.3255
v -41.3867 46.0788 -13.2885
v -19.2638 39.0387 -6.4628
v -11.9107 32.8393 -0.5544
v -49.4855 50.0855 -2.6219
v -36.1172 52.4872 -7.7033
v -26.7016 52.2137 -7.3254
v 18.9400 -48.9565 3.8351
v 27.1616 -50.3670 8.9709
v 43.7869 -52.3429 8.6746
v 54.2111 -49.9326 8.6746
v 19.1557 -37.8067 7.9285
v 20.6524 -37.8067 7.9285
v 49.3437 -33.8633 12.2006
v 53.9007 -39.3829 7.5902
v 19.3714 -28.6782 12.0219
v 26.2508 -27.6181 7.4829
v 43.9210 -28.9933 7.5902
v 52.0777 -30.9703 1.5340
v -60.2368 32.2776 0.8370
v -52.3708 28.9824 7.1720
v -36.2131 23.9409 8.6746
v -20.7784 28.6984 7.4440
v -11.9107 31.9358 1.2904
v -60.3027 41.5936 6.5493
v -55.1017 43.6352 9.7946
v -36.2131 45.4091 12.8412
v -21.8223 38.9457 6.6216
v -11.9107 32.8393 1.2904
v -60.3685 48.6983 12.2616
v -53.7479 49.3919 8.9401
v -36.2131 50.8863 4.8412
v -27.8227 49.9880 1.2861
v 32.0780 -49.2246 17.8069
v 43.7869 -49.7292 18.3483
v 52.7830 -48.8558 17.7739
v 19.3714 -33.0945 16.8796
v 27.1616 -38.9216 17.9453
v 43.9210 -39.3829 18.4819
v 52.7830 -44.5300 17.7739
v 19.3714 -28.6782 16.8796
v 27.7869 -28.5309 17.4138
v 38.6770 -30.4713 17.4551
v -47.1427 30.3320 17.4646
v -36.2131 29.2298 18.1860
v -26.4886 30.1995 17.8997
v -60.3685 47.7977 16.7605
v -52.5765 42.4248 17.1125
v -36.2131 37.4091 18.1860
v -26.4886 34.3855 17.8997
v -60.3685 48.6983 16.7605
v -58.0104 48.6983 16.7605
f 5 1 4
f 5 2 1
f 5 3 2
f 5 6 3
f 7 5 4
f 7 8 5
f 9 5 8
f 9 6 5
f 10 9 8
f 10 11 9
f 15 13 12
f 15 16 13
f 16 14 13
f 16 17 14
f 18 17 16
f 18 19 17
f 22 1 2
f 22 21 1
f 3 22 2
f 3 23 22
f 21 4 1
f 21 25 4
f 25 20 24
f 25 21 20
f 26 23 3
f 26 3 6
f 27 4 25
f 27 7 4
f 28 8 7
f 28 7 27
f 29 26 6
f 29 6 9
f 30 8 28
f 30 10 8
f 31 29 9
f 31 9 11
f 11 10 30
f 11 30 31
f 31 30 28
f 31 28 29
f 34 12 13
f 34 33 12
f 14 34 13
f 14 35 34
f 33 15 12
f 33 38 15
f 37 33 32
f 37 38 33
f 39 16 15
f 39 15 38
f 40 35 14
f 40 14 17
f 41 35 40
f 41 36 35
f 39 18 16
f 39 43 18
f 42 39 38
f 42 43 39
f 44 40 17
f 44 17 19
f 44 19 18
f 44 18 43
f 46 20 21
f 46 45 20
f 47 21 22
f 47 46 21
f 23 47 22
f 23 48 47
f 45 24 20
f 45 49 24
f 50 25 24
f 50 24 49
f 50 49 45
f 50 45 46
f 52 48 23
f 52 23 26
f 54 25 50
f 54 27 25
f 53 50 49
f 53 54 50
f 55 28 27
f 55 27 54
f 56 52 26
f 56 26 29
f 56 29 28
f 56 28 55
f 56 55 51
f 56 51 52
f 58 32 33
f 58 57 32
f 59 33 34
f 59 58 33
f 60 34 35
f 60 59 34
f 61 35 36
f 61 60 35
f 57 37 32
f 57 62 37
f 63 38 37
f 63 37 62
f 62 57 58
f 62 58 63
f 61 36 41
f 61 41 66
f 66 41 40
f 66 40 65
f 66 65 60
f 66 60 61
f 63 42 38
f 63 68 42
f 67 63 62
f 67 68 63
f 69 43 42
f 69 42 68
f 68 63 64
f 68 64 69
f 70 65 40
f 70 40 44
f 70 44 43
f 70 43 69
f 70 69 64
f 70 64 65
f 47 71 46
f 47 72 71
f 73 47 48
f 73 72 47
f 75 46 71
f 75 50 46
f 50 74 49
f 50 75 74
f 77 73 48
f 77 48 52
f 77 52 51
f 77 51 76
f 74 53 49
f 74 78 53
f 79 54 53
f 79 53 78
f 80 76 51
f 80 51 55
f 80 55 54
f 80 54 79
f 59 81 58
f 59 82 81
f 83 59 60
f 83 82 59
f 85 58 81
f 85 63 58
f 63 84 62
f 63 85 84
f 64 63 85
f 64 85 86
f 87 83 60
f 87 60 65
f 87 65 64
f 87 64 86
f 84 67 62
f 84 88 67
f 89 85 63
f 89 63 68
f 89 68 67
f 89 67 88
