# parsimony mesh: cplx_CPLX0-8053 (source /Users/eranagmon/code/v2e-cplx/workspace/studies/ecoli-3d/viz/3d/structures/cplx_CPLX0-8053.pdb)
# atoms: 4853  voxel: 8 Å  verts: 430  tris: 876
v 28.9139 6.4245 -52.9535
v 34.8232 5.3543 -53.2943
v 39.6022 6.6831 -53.0729
v 29.2643 12.9527 -52.9162
v 34.7456 13.4765 -53.1963
v 39.6022 11.1590 -53.0729
v 30.6540 17.1495 -52.5688
v 32.0272 17.1495 -52.5688
v 30.3668 -7.4797 -44.9580
v 32.2452 -7.4797 -44.9580
v 28.6748 -3.0473 -46.7522
v 34.8764 -3.4092 -47.6694
v 40.0509 -0.9838 -46.7467
v 22.4432 6.7723 -46.0976
v 25.9978 3.9317 -49.2216
v 34.8232 1.3543 -52.0937
v 41.1642 4.3910 -49.0284
v 22.4432 10.4195 -46.0976
v 25.2287 13.0328 -48.6389
v 37.3605 16.4923 -51.9969
v 41.0384 13.4765 -48.9785
v 29.2621 18.5223 -48.4509
v 34.7456 18.7056 -48.9785
v 39.8412 17.7814 -46.6635
v 14.5025 -15.3683 -36.7900
v 16.6466 -15.3683 -36.7900
v 13.8661 -11.0473 -37.2301
v 19.1172 -11.5972 -37.6852
v 27.3494 -8.8412 -40.2618
v 32.3434 -7.6022 -40.4509
v 14.0917 -3.0473 -36.9923
v 18.8232 -3.0473 -39.4208
v 24.6748 -3.0473 -42.8795
v 36.3434 -5.1441 -40.4509
v 40.3800 -1.1441 -40.4509
v 14.8033 0.9756 -36.4730
v 20.3746 4.1110 -40.2148
v 23.2672 4.6260 -40.8310
v 43.0991 4.9527 -40.4509
v 22.4428 12.9446 -40.4661
v 23.5151 12.9446 -40.4661
v 43.7819 12.9527 -40.4509
v 22.4425 17.8593 -37.9410
v 26.6267 21.0207 -40.7201
v 35.3504 23.2150 -40.6799
v 41.0628 19.3586 -40.4509
v 29.6758 27.0248 -38.1659
v 33.0351 27.0248 -38.1659
v 14.5025 -15.3683 -34.7492
v 16.6466 -15.3683 -34.7492
v 29.7079 -15.2498 -28.6826
v 31.1935 -15.2498 -28.6826
v 13.4860 -11.4643 -32.2299
v 19.1172 -14.0564 -32.2299
v 26.9540 -13.0240 -31.7899
v 32.0178 -10.4318 -31.7899
v 12.5996 -3.0473 -32.4509
v 35.4653 -2.7628 -32.7593
v 39.6712 0.0936 -35.6315
v 14.0305 1.7780 -32.4509
v 18.8232 4.2437 -32.4509
v 24.4401 7.4184 -32.4509
v 36.9395 3.0022 -30.2982
v 40.7548 5.3824 -32.7593
v 21.8290 14.5120 -32.4509
v 24.4401 10.5120 -32.4509
v 43.5414 12.9527 -32.4509
v 21.6704 20.6967 -32.4003
v 24.3424 23.1927 -35.0332
v 38.3684 24.6651 -36.1521
v 41.8396 21.5802 -33.0716
v 22.2803 28.9527 -29.4959
v 26.9348 29.3960 -33.6546
v 35.3504 29.3960 -35.0806
v 40.2591 28.9527 -31.2783
v 22.6950 33.1181 -28.5953
v 26.8232 33.5832 -30.0189
v 34.8232 34.1261 -30.9621
v 39.6299 33.8420 -29.8529
v 13.4595 -16.5145 -22.5811
v 17.4866 -16.5145 -22.5811
v 29.7079 -15.2498 -27.7385
v 31.1935 -15.2498 -27.7385
v 5.8605 -8.1822 -21.3296
v 10.9985 -11.2956 -24.6220
v 19.6212 -14.3043 -24.9290
v 26.9540 -13.9871 -24.8235
v 32.0631 -11.1471 -24.8235
v 5.0107 -3.0473 -21.6647
v 9.3311 -3.0473 -25.6647
v 32.9217 -3.0473 -24.4509
v 5.3694 1.6228 -21.1906
v 11.0010 3.1247 -24.0947
v 18.8232 5.4032 -24.4509
v 26.9390 7.1448 -23.8790
v 33.7350 5.8615 -22.8996
v 39.8047 8.0410 -24.4509
v 21.2527 14.5632 -24.4509
v 26.9390 10.3446 -23.8790
v 31.1823 9.1252 -20.8311
v 41.9704 12.9527 -24.4509
v 19.5201 20.9527 -24.4509
v 42.4346 20.9527 -24.4509
v 20.1779 28.9527 -24.4509
v 38.4376 32.5091 -20.8547
v 40.4638 29.4866 -23.8932
v 21.9105 33.9481 -24.4509
v 26.8232 34.9745 -24.4509
v 35.3918 34.3074 -23.8932
v 39.6299 33.8420 -26.1880
v -17.5901 -15.4132 -12.6419
v -13.1768 -16.6666 -13.9718
v -6.7471 -16.8404 -14.2879
v 4.4080 -15.7501 -13.7079
v 10.8050 -16.9415 -16.4051
v 18.3688 -16.8879 -16.4509
v -25.6366 -8.1713 -12.8239
v -20.1895 -10.6984 -12.7329
v -13.8925 -10.7542 -15.0348
v -5.4188 -11.0473 -15.5376
v 3.2591 -10.9282 -16.4051
v 8.1262 -13.5155 -19.0412
v 22.3688 -14.5952 -16.4509
v 26.8232 -12.1630 -16.4509
v 31.4421 -8.6151 -16.4509
v -25.5981 -3.0473 -12.7764
v -23.0128 -3.0473 -12.7764
v -12.2339 -3.0473 -15.4642
v -6.7172 -3.0473 -15.4642
v 2.7035 -3.0473 -16.4509
v 29.6759 -0.8640 -14.2851
v 31.5096 -3.3373 -16.7514
v -25.2786 1.0306 -12.5119
v -24.6794 1.0306 -12.5119
v -10.7267 1.7788 -14.1900
v -8.4782 1.7788 -14.1900
v 5.3472 1.7806 -16.4509
v 10.8232 4.3262 -16.4509
v 18.8232 5.0687 -16.4509
v 28.2161 5.1189 -15.9349
v 33.0775 6.0712 -17.9349
v 39.4701 8.4278 -16.4509
v 21.4953 15.5026 -16.4509
v 27.3402 11.0961 -16.9247
v 31.1823 9.1252 -19.9072
v 40.4935 12.9527 -16.4509
v 20.7323 20.9290 -15.9791
v 23.5247 23.5799 -12.9978
v 40.9729 20.9527 -16.4509
v 20.7209 28.9527 -17.1202
v 23.8904 28.9527 -13.1202
v 38.4376 32.5091 -19.2478
v 39.8158 29.4866 -16.5290
v 21.7344 34.1145 -18.1297
v 26.4561 34.2585 -15.8582
v 35.3918 33.6368 -16.5290
v 38.9758 33.0783 -13.9144
v -10.5519 -23.2506 -5.3865
v -8.2597 -23.2506 -5.3865
v -26.6530 -15.8158 -5.8806
v -20.6247 -17.0198 -8.5087
v -13.2018 -20.8345 -8.2122
v -4.8367 -19.5200 -8.8080
v 2.1741 -17.1653 -9.1181
v 10.8232 -17.6700 -8.4509
v 16.9498 -16.3867 -8.4509
v -27.2810 -10.9217 -8.5087
v -20.1895 -10.6984 -11.7664
v -17.0363 -7.8921 -12.3188
v -1.4188 -11.0473 -12.1617
v -0.9099 -11.0473 -12.1617
v 20.9498 -12.6113 -8.4509
v 26.0354 -8.6530 -9.0939
v 30.9679 -7.6381 -12.1892
v -27.7708 -3.0473 -8.4509
v -19.0128 -3.0473 -11.7946
v -16.2339 -3.0473 -11.7946
v -2.7172 -3.0473 -10.7582
v 0.5159 -3.0473 -10.7582
v 21.3060 -1.6846 -6.2937
v 26.2598 -3.9410 -9.2415
v 30.9679 -6.1974 -12.1892
v -26.2477 1.7471 -8.4509
v -21.6783 3.0157 -8.8051
v -13.5474 5.2220 -8.3310
v -5.8838 4.4073 -7.6562
v 3.3148 2.2567 -7.9953
v 10.8232 3.8458 -8.4509
v 18.7129 2.9353 -8.7566
v 27.3470 4.8945 -11.8826
v 34.8232 8.1364 -12.1633
v 39.0178 8.8512 -12.3802
v -11.0348 9.2837 -4.9541
v -8.6227 9.2837 -4.9541
v 22.2018 16.4340 -12.2221
v 27.3402 13.4415 -11.6968
v 34.8232 12.9527 -11.3494
v 39.2905 12.9527 -12.1204
v 22.2018 18.2466 -12.2221
v 26.4441 20.9290 -11.5026
v 34.8232 20.9527 -10.5762
v 39.6559 20.9527 -11.5899
v 27.8904 28.9527 -11.7120
v 34.8232 28.9527 -11.0134
v 39.4490 28.9527 -11.7524
v 28.8780 33.2739 -12.1020
v 34.8232 33.2878 -12.0743
v 38.9758 33.0783 -12.2977
v -10.5519 -23.2506 -3.4668
v -8.2597 -23.2506 -3.4668
v -33.3070 -15.2272 3.0227
v -29.2625 -16.2084 0.0332
v -21.1768 -19.2384 -0.4509
v -13.2018 -21.7422 -0.6605
v -5.4265 -21.2755 -0.6605
v 2.8232 -18.4343 -0.4509
v 10.8232 -17.4295 -0.4509
v 16.4068 -16.3337 -0.4509
v -34.3871 -11.0473 1.8977
v -31.4622 -11.0473 -2.1023
v 19.6354 -10.2580 -1.2429
v 22.8436 -7.0652 -4.4375
v -34.6714 -3.0473 1.7296
v -31.3495 -3.0473 -2.2704
v 12.4363 -0.0038 2.7246
v 18.3524 -3.5109 -0.8564
v 22.8436 -7.0179 -4.4375
v -33.6860 1.1780 2.7985
v -29.1724 2.2383 -0.1013
v -20.4896 6.7306 -0.3325
v -16.3681 8.6651 -2.9203
v -3.2894 7.0359 -2.9369
v 2.8737 5.2990 -0.3425
v 10.1911 2.1963 -0.1456
v 15.9726 1.8648 -2.6087
v -17.3649 9.1152 2.4130
v -12.8850 11.8661 0.2329
v -5.9090 12.6782 0.2246
v 0.2407 10.7394 2.3964
v -9.4019 17.1513 3.3862
v -8.5285 17.1513 3.3862
v -26.7959 -23.6379 10.5892
v -24.0041 -23.6379 10.5892
v -33.3070 -15.2272 3.9813
v -29.3638 -18.2973 7.2853
v -21.2732 -20.6991 7.7731
v -12.5776 -18.1023 8.1906
v -5.2122 -17.1206 8.1906
v 2.2655 -16.1971 7.2402
v 10.8232 -16.0741 4.9719
v 16.1634 -15.9635 4.6277
v -34.8496 -11.0089 7.0084
v -31.9317 -13.6500 9.3147
v -9.5116 -13.4077 11.2850
v -7.9025 -13.4077 11.2850
v 4.5603 -13.6749 9.7009
v 10.8232 -12.6707 8.9719
v 16.3970 -10.7694 7.3962
v -35.0770 -2.5288 7.7736
v -32.7204 0.4835 10.5899
v 12.4363 -0.0038 4.6777
v 15.8456 -2.8212 7.4262
v -33.6860 1.1780 5.2565
v -29.7030 2.2555 7.7736
v -22.1732 6.4122 7.5491
v 4.5988 5.7942 7.5491
v 10.1911 1.8963 7.4262
v 15.2443 1.4035 10.0110
v -18.5623 12.2502 7.7578
v -14.7353 14.4485 5.2302
v -3.1952 16.0727 4.2838
v 0.7782 13.2247 7.1899
v -18.1575 19.5809 10.5635
v -12.5119 20.2036 7.7578
v -5.5878 20.0365 7.1899
v -0.2859 19.3023 9.6171
v -33.3412 -31.1812 19.4024
v -29.1768 -31.6253 18.8912
v -23.6943 -31.6840 18.8186
v -33.8599 -27.0473 18.2713
v -29.3482 -26.6017 14.8885
v -21.1825 -26.6009 15.9855
v -16.6176 -24.2305 18.4858
v -35.3225 -19.0473 17.2327
v -31.4573 -19.0473 13.2327
v -18.6708 -21.8005 13.1525
v -14.6542 -19.0992 15.7111
v -2.7275 -15.3757 15.5491
v -0.6063 -15.3757 15.5491
v -35.8709 -11.0089 15.4302
v -31.9317 -13.6500 12.6843
v -10.4429 -12.8261 15.5491
v -6.7275 -12.8261 15.5491
v 3.3937 -12.1882 15.5491
v 10.1870 -8.4822 15.3033
v 15.5306 -7.9175 12.4728
v -35.5615 -2.5288 14.9886
v -32.7204 0.4835 11.9483
v 6.2045 -0.8175 18.8107
v 10.1870 -3.3094 16.8585
v 15.6696 -3.0473 12.7396
v -34.7757 2.5051 17.2817
v -29.7030 3.6682 14.9886
v -23.5785 7.1828 15.5491
v 4.8636 4.7233 15.9061
v 10.8232 2.0040 13.4930
v 15.2443 1.4035 12.2126
v -21.4178 12.9527 15.5491
v 2.4094 12.9527 15.5491
v -19.0161 20.1903 15.5491
v -13.1768 23.1150 15.5491
v -5.1768 22.7129 15.5491
v 0.3949 19.7883 15.5491
v -34.0117 -31.5519 23.5491
v -29.1768 -32.0551 23.5491
v -24.0035 -31.5505 23.5491
v -41.5330 -23.8881 26.8205
v -37.4925 -26.7518 23.9120
v -20.0035 -28.6155 23.5491
v -15.9544 -24.6155 23.5491
v -41.7056 -19.0473 25.7236
v -39.3225 -19.0473 21.7236
v -12.2110 -18.9649 23.4608
v -4.7448 -15.7505 23.1696
v -0.8199 -15.2577 20.2705
v -41.5257 -12.5315 25.8436
v -39.8953 -10.3378 23.3258
v -10.5302 -13.7253 20.7353
v -4.4261 -12.1950 23.6131
v 2.2374 -10.3834 21.4149
v 7.0961 -7.2742 19.6955
v -41.2387 -1.0710 27.1805
v -39.5860 -3.4615 24.1279
v -1.6224 -6.3522 27.1242
v 3.0022 -3.5849 23.4099
v 7.0961 -6.1509 19.6955
v -41.2778 4.9527 27.1046
v -37.3362 5.0842 23.1774
v -29.1768 7.5896 21.7231
v -20.9915 8.5651 24.3203
v -17.1142 8.8808 27.4992
v 3.6504 4.9527 23.5491
v -41.2495 9.0369 27.3251
v -37.1768 9.5835 26.3609
v -29.1768 9.6847 25.7231
v -20.7470 11.0790 25.1275
v -17.1142 9.0704 27.4992
v 2.4601 12.9527 23.5491
v -18.5952 19.3422 23.5491
v -13.1768 22.0863 23.5491
v -5.1768 21.0161 23.5491
v -0.0986 18.2720 23.5491
v -34.8713 -31.6336 31.5491
v -29.7451 -31.5369 30.7911
v -25.0949 -31.0815 27.6191
v -41.7811 -24.9234 31.5491
v -38.8713 -28.9234 31.5491
v -27.4574 -28.6531 32.9524
v -21.9399 -26.3041 31.2076
v -16.1062 -23.9551 29.4628
v -42.2062 -19.0473 31.5491
v -18.7850 -22.4581 34.7961
v -13.3344 -20.9402 31.8973
v -7.6465 -16.8553 31.5491
v -41.6018 -12.4298 31.5491
v -39.9879 -8.4298 31.5491
v -4.7189 -11.0473 31.5491
v -41.2387 -1.0710 27.7149
v -37.7175 -3.1956 31.3686
v -32.7003 0.0132 35.0223
v -2.9714 -3.4303 31.2372
v -0.2000 -1.0189 28.3626
v -41.2778 4.9527 27.8524
v -37.1768 4.9527 31.1178
v -29.6909 5.1554 33.7720
v -20.5173 7.4965 31.1597
v -15.8350 7.8791 31.5491
v -3.5520 4.9527 33.4300
v 0.8124 4.9527 29.4300
v -41.2495 9.0369 27.7876
v -37.1768 9.5835 29.3885
v -29.1768 9.6847 29.7229
v -20.1703 11.7878 28.1386
v -13.6156 11.9040 30.8652
v -5.3402 12.4237 32.3612
v 0.2545 12.9527 28.9610
v -17.5963 18.4501 28.0438
v -13.1768 19.8387 28.5233
v -5.1768 18.9617 28.2935
v -0.9439 17.2806 27.7373
v -34.4874 -31.2902 36.3540
v -32.7907 -31.2902 36.3540
v -41.6264 -24.7079 36.1687
v -37.1631 -27.2437 37.4760
v -29.7451 -26.4108 37.3726
v -24.1183 -23.3198 35.9963
v -41.6773 -19.0473 36.3915
v -37.2131 -19.4805 40.4952
v -29.1768 -21.6691 41.2247
v -21.3417 -20.7265 39.0174
v -13.6494 -17.3911 39.1204
v -8.6756 -16.2620 36.1679
v -41.3946 -14.0730 36.0527
v -37.1402 -10.8756 39.1257
v -29.1768 -8.2135 41.8209
v -21.1768 -8.9106 42.0209
v -13.7618 -11.0214 41.9833
v -6.9628 -10.8801 39.1204
v -34.3765 -5.3202 36.8654
v -29.6909 -2.8110 38.3355
v -21.1768 -3.0473 39.8490
v -13.4061 -3.1212 40.8156
v -6.6003 -3.1212 39.3723
v -27.3669 2.6239 37.1641
v -21.1768 3.1864 37.3772
v -12.9409 4.9370 36.8338
v -7.5520 4.9527 36.5381
v -10.1169 9.4043 35.8290
v -8.1158 9.4043 35.8290
v -34.5706 -17.1027 44.5521
v -29.1768 -17.6691 45.0379
v -21.1768 -16.5882 44.5953
v -16.6312 -15.6615 43.9621
v -34.5706 -13.0115 44.5521
v -29.1768 -12.2135 45.0379
v -21.1768 -12.9106 44.5953
v -13.7618 -11.0214 44.1671
v -7.6704 -8.1020 44.3721
v -10.8923 -5.8372 44.3721
v -7.6704 -5.8372 44.3721
f 5 1 4
f 5 2 1
f 6 2 5
f 6 3 2
f 8 4 7
f 8 5 4
f 11 10 9
f 11 12 10
f 16 1 2
f 16 15 1
f 16 11 15
f 16 12 11
f 3 16 2
f 3 17 16
f 16 13 12
f 16 17 13
f 19 1 15
f 19 4 1
f 19 14 18
f 19 15 14
f 17 3 6
f 17 6 21
f 6 5 20
f 6 20 21
f 22 4 19
f 22 7 4
f 20 5 8
f 20 8 23
f 8 7 22
f 8 22 23
f 24 20 23
f 24 21 20
f 27 26 25
f 27 28 26
f 30 9 10
f 30 29 9
f 32 27 31
f 32 28 27
f 33 9 29
f 33 11 9
f 32 29 28
f 32 33 29
f 34 30 10
f 34 10 12
f 13 34 12
f 13 35 34
f 36 32 31
f 36 37 32
f 33 15 11
f 33 38 15
f 38 14 15
f 38 37 14
f 37 33 32
f 37 38 33
f 39 35 13
f 39 13 17
f 40 14 37
f 40 18 14
f 41 19 18
f 41 18 40
f 40 37 38
f 40 38 41
f 39 17 21
f 39 21 42
f 41 22 19
f 41 44 22
f 43 41 40
f 43 44 41
f 45 23 22
f 45 22 44
f 42 21 24
f 42 24 46
f 24 23 45
f 24 45 46
f 47 45 44
f 47 48 45
f 26 49 25
f 26 50 49
f 49 27 25
f 49 53 27
f 54 50 26
f 54 26 28
f 54 53 49
f 54 49 50
f 55 28 29
f 55 54 28
f 56 29 30
f 56 55 29
f 55 52 51
f 55 56 52
f 57 27 53
f 57 31 27
f 58 56 30
f 58 30 34
f 59 34 35
f 59 58 34
f 57 36 31
f 57 60 36
f 61 37 36
f 61 36 60
f 62 38 37
f 62 37 61
f 59 35 39
f 59 39 64
f 63 58 59
f 63 59 64
f 62 41 38
f 62 66 41
f 41 65 40
f 41 66 65
f 64 39 42
f 64 42 67
f 65 43 40
f 65 68 43
f 69 44 43
f 69 43 68
f 67 42 46
f 67 46 71
f 46 45 70
f 46 70 71
f 69 47 44
f 69 73 47
f 72 69 68
f 72 73 69
f 70 45 48
f 70 48 74
f 74 48 47
f 74 47 73
f 75 70 74
f 75 71 70
f 77 72 76
f 77 73 72
f 78 73 77
f 78 74 73
f 78 75 74
f 78 79 75
f 52 82 51
f 52 83 82
f 86 53 54
f 86 85 53
f 86 80 85
f 86 81 80
f 87 51 82
f 87 55 51
f 55 86 54
f 55 87 86
f 88 83 52
f 88 52 56
f 87 82 83
f 87 83 88
f 90 53 85
f 90 57 53
f 90 84 89
f 90 85 84
f 91 88 56
f 91 56 58
f 90 60 57
f 90 93 60
f 92 90 89
f 92 93 90
f 94 61 60
f 94 60 93
f 62 61 94
f 62 94 95
f 91 58 63
f 91 63 96
f 97 63 64
f 97 96 63
f 99 62 95
f 99 66 62
f 66 98 65
f 66 99 98
f 100 99 95
f 100 95 96
f 97 64 67
f 97 67 101
f 98 68 65
f 98 102 68
f 103 101 67
f 103 67 71
f 102 72 68
f 102 104 72
f 103 71 75
f 103 75 106
f 104 76 72
f 104 107 76
f 108 77 76
f 108 76 107
f 78 77 108
f 78 108 109
f 110 106 75
f 110 75 79
f 110 79 78
f 110 78 109
f 110 109 105
f 110 105 106
f 116 80 81
f 116 115 80
f 119 111 118
f 119 112 111
f 119 113 112
f 119 120 113
f 122 80 115
f 122 85 80
f 122 84 85
f 122 121 84
f 122 114 121
f 122 115 114
f 123 116 81
f 123 81 86
f 87 123 86
f 87 124 123
f 88 124 87
f 88 125 124
f 127 117 126
f 127 118 117
f 128 120 119
f 128 129 120
f 130 84 121
f 130 89 84
f 125 88 91
f 125 91 132
f 134 126 133
f 134 127 126
f 136 128 135
f 136 129 128
f 137 89 130
f 137 92 89
f 138 93 92
f 138 92 137
f 139 94 93
f 139 93 138
f 95 94 139
f 95 139 140
f 141 132 91
f 141 91 96
f 141 96 95
f 141 95 140
f 141 140 131
f 141 131 132
f 142 96 97
f 142 141 96
f 144 98 99
f 144 143 98
f 141 100 96
f 141 145 100
f 100 144 99
f 100 145 144
f 145 140 144
f 145 141 140
f 146 142 97
f 146 97 101
f 143 102 98
f 143 147 102
f 149 146 101
f 149 101 103
f 150 102 147
f 150 104 102
f 150 147 148
f 150 148 151
f 149 103 106
f 149 106 153
f 153 106 105
f 153 105 152
f 154 104 150
f 154 107 104
f 108 107 154
f 108 154 155
f 154 150 151
f 154 151 155
f 156 152 105
f 156 105 109
f 156 109 108
f 156 108 155
f 157 152 156
f 157 153 152
f 162 111 112
f 162 161 111
f 113 162 112
f 113 163 162
f 162 159 158
f 162 163 159
f 165 114 115
f 165 164 114
f 166 115 116
f 166 165 115
f 168 111 161
f 168 118 111
f 168 117 118
f 168 167 117
f 167 161 160
f 167 168 161
f 169 119 118
f 169 118 168
f 170 163 113
f 170 113 120
f 171 114 164
f 171 121 114
f 170 164 163
f 170 171 164
f 172 166 116
f 172 116 123
f 124 172 123
f 124 173 172
f 174 124 125
f 174 173 124
f 175 117 167
f 175 126 117
f 176 168 118
f 176 118 127
f 169 128 119
f 169 177 128
f 176 169 168
f 176 177 169
f 178 170 120
f 178 120 129
f 171 130 121
f 171 179 130
f 178 171 170
f 178 179 171
f 182 174 125
f 182 125 132
f 182 132 131
f 182 131 181
f 182 181 173
f 182 173 174
f 175 133 126
f 175 183 133
f 176 127 134
f 176 134 184
f 134 133 183
f 134 183 184
f 177 135 128
f 177 185 135
f 184 177 176
f 184 185 177
f 178 129 136
f 178 136 186
f 136 135 185
f 136 185 186
f 179 137 130
f 179 187 137
f 187 178 186
f 187 179 178
f 188 138 137
f 188 137 187
f 189 139 138
f 189 138 188
f 190 181 131
f 190 131 140
f 190 140 139
f 190 139 189
f 189 180 181
f 189 181 190
f 191 140 141
f 191 190 140
f 142 191 141
f 142 192 191
f 194 185 193
f 194 186 185
f 190 144 140
f 190 196 144
f 196 143 144
f 196 195 143
f 196 190 191
f 196 191 197
f 192 142 146
f 192 146 198
f 197 191 192
f 197 192 198
f 199 143 195
f 199 147 143
f 148 147 199
f 148 199 200
f 200 199 195
f 200 195 196
f 201 200 196
f 201 196 197
f 198 146 149
f 198 149 202
f 201 197 198
f 201 198 202
f 203 148 200
f 203 151 148
f 203 200 201
f 203 201 204
f 205 202 149
f 205 149 153
f 205 204 201
f 205 201 202
f 206 151 203
f 206 155 151
f 156 155 206
f 156 206 207
f 206 203 204
f 206 204 207
f 205 153 157
f 205 157 208
f 157 156 207
f 157 207 208
f 208 207 204
f 208 204 205
f 159 209 158
f 159 210 209
f 213 160 161
f 213 212 160
f 214 158 209
f 214 162 158
f 162 213 161
f 162 214 213
f 215 210 159
f 215 159 163
f 214 209 210
f 214 210 215
f 216 163 164
f 216 215 163
f 165 216 164
f 165 217 216
f 218 165 166
f 218 217 165
f 220 160 212
f 220 167 160
f 220 211 219
f 220 212 211
f 221 218 166
f 221 166 172
f 222 172 173
f 222 221 172
f 224 167 220
f 224 175 167
f 223 220 219
f 223 224 220
f 227 222 173
f 227 173 181
f 227 181 180
f 227 180 226
f 227 226 221
f 227 221 222
f 224 183 175
f 224 229 183
f 228 224 223
f 228 229 224
f 230 184 183
f 230 183 229
f 231 185 184
f 231 184 230
f 187 186 232
f 187 232 233
f 234 188 187
f 234 187 233
f 235 226 180
f 235 180 189
f 235 189 188
f 235 188 234
f 235 234 225
f 235 225 226
f 231 193 185
f 231 237 193
f 236 231 230
f 236 237 231
f 232 186 194
f 232 194 238
f 194 193 237
f 194 237 238
f 239 232 238
f 239 233 232
f 240 238 237
f 240 241 238
f 212 244 211
f 212 245 244
f 213 245 212
f 213 246 245
f 246 242 245
f 246 243 242
f 214 246 213
f 214 247 246
f 215 247 214
f 215 248 247
f 216 248 215
f 216 249 248
f 250 216 217
f 250 249 216
f 251 217 218
f 251 250 217
f 244 219 211
f 244 252 219
f 253 252 244
f 253 244 245
f 254 247 248
f 254 248 255
f 256 249 250
f 256 250 257
f 251 218 221
f 251 221 258
f 257 250 251
f 257 251 258
f 252 223 219
f 252 259 223
f 258 221 226
f 258 226 262
f 262 226 225
f 262 225 261
f 263 223 259
f 263 228 223
f 264 229 228
f 264 228 263
f 263 259 260
f 263 260 264
f 265 230 229
f 265 229 264
f 267 261 225
f 267 225 234
f 234 233 266
f 234 266 267
f 268 261 267
f 268 262 261
f 265 236 230
f 265 269 236
f 270 237 236
f 270 236 269
f 266 233 239
f 266 239 272
f 239 238 271
f 239 271 272
f 270 240 237
f 270 274 240
f 273 270 269
f 273 274 270
f 271 238 241
f 271 241 275
f 275 241 240
f 275 240 274
f 276 271 275
f 276 272 271
f 280 278 277
f 280 281 278
f 243 281 242
f 243 282 281
f 281 279 278
f 281 282 279
f 285 242 281
f 285 245 242
f 285 280 284
f 285 281 280
f 286 282 243
f 286 243 246
f 247 286 246
f 247 287 286
f 286 283 282
f 286 287 283
f 289 248 249
f 289 288 248
f 285 253 245
f 285 291 253
f 291 252 253
f 291 290 252
f 291 284 290
f 291 285 284
f 287 247 254
f 287 254 292
f 288 255 248
f 288 293 255
f 255 292 254
f 255 293 292
f 289 249 256
f 289 256 294
f 295 256 257
f 295 294 256
f 296 257 258
f 296 295 257
f 290 259 252
f 290 297 259
f 298 260 259
f 298 259 297
f 296 258 262
f 296 262 301
f 301 300 295
f 301 295 296
f 298 264 260
f 298 303 264
f 302 298 297
f 302 303 298
f 265 264 303
f 265 303 304
f 306 267 266
f 306 266 305
f 306 305 299
f 306 299 300
f 301 262 268
f 301 268 307
f 268 267 306
f 268 306 307
f 306 300 301
f 306 301 307
f 308 265 304
f 308 269 265
f 309 305 266
f 309 266 272
f 308 273 269
f 308 310 273
f 311 274 273
f 311 273 310
f 312 275 274
f 312 274 311
f 309 272 276
f 309 276 313
f 276 275 312
f 276 312 313
f 315 277 278
f 315 314 277
f 316 278 279
f 316 315 278
f 314 280 277
f 314 318 280
f 319 316 279
f 319 279 282
f 283 319 282
f 283 320 319
f 322 280 318
f 322 284 280
f 322 317 321
f 322 318 317
f 323 320 283
f 323 283 287
f 325 288 289
f 325 324 288
f 322 290 284
f 322 327 290
f 326 322 321
f 326 327 322
f 328 323 287
f 328 287 292
f 324 293 288
f 324 329 293
f 293 328 292
f 293 329 328
f 328 324 323
f 328 329 324
f 325 289 294
f 325 294 330
f 329 324 325
f 329 325 330
f 331 294 295
f 331 330 294
f 333 290 327
f 333 297 290
f 334 329 330
f 334 330 335
f 331 295 300
f 331 300 336
f 336 300 299
f 336 299 335
f 335 330 331
f 335 331 336
f 333 302 297
f 333 338 302
f 338 332 337
f 338 333 332
f 339 303 302
f 339 302 338
f 304 303 339
f 304 339 340
f 342 335 299
f 342 299 305
f 344 337 343
f 344 338 337
f 344 339 338
f 344 345 339
f 340 308 304
f 340 346 308
f 345 340 339
f 345 346 340
f 346 340 341
f 346 341 347
f 342 305 309
f 342 309 348
f 349 308 346
f 349 310 308
f 350 311 310
f 350 310 349
f 312 311 350
f 312 350 351
f 352 348 309
f 352 309 313
f 313 312 351
f 313 351 352
f 354 314 315
f 354 353 314
f 355 315 316
f 355 354 315
f 353 318 314
f 353 357 318
f 357 317 318
f 357 356 317
f 355 316 319
f 355 319 359
f 358 354 355
f 358 355 359
f 360 319 320
f 360 359 319
f 361 317 356
f 361 321 317
f 360 320 323
f 360 323 363
f 362 359 360
f 362 360 363
f 364 323 324
f 364 363 323
f 361 326 321
f 361 365 326
f 366 327 326
f 366 326 365
f 367 364 324
f 367 324 329
f 366 333 327
f 366 369 333
f 333 368 332
f 333 369 368
f 367 329 334
f 367 334 371
f 372 334 335
f 372 371 334
f 368 337 332
f 368 373 337
f 374 373 368
f 374 368 369
f 374 369 370
f 374 370 375
f 341 340 376
f 341 376 377
f 372 335 342
f 372 342 379
f 378 371 372
f 378 372 379
f 373 343 337
f 373 380 343
f 344 343 380
f 344 380 381
f 381 380 373
f 381 373 374
f 382 345 344
f 382 344 381
f 382 381 374
f 382 374 375
f 383 376 340
f 383 340 346
f 383 346 345
f 383 345 382
f 382 375 376
f 382 376 383
f 377 347 341
f 377 384 347
f 347 383 346
f 347 384 383
f 379 342 348
f 379 348 386
f 386 385 378
f 386 378 379
f 387 346 383
f 387 349 346
f 350 349 387
f 350 387 388
f 387 383 384
f 387 384 388
f 351 350 388
f 351 388 389
f 389 388 384
f 389 384 385
f 390 386 348
f 390 348 352
f 352 351 389
f 352 389 390
f 390 389 385
f 390 385 386
f 392 353 354
f 392 391 353
f 391 357 353
f 391 394 357
f 357 393 356
f 357 394 393
f 392 354 358
f 392 358 395
f 394 391 392
f 394 392 395
f 396 358 359
f 396 395 358
f 393 361 356
f 393 397 361
f 398 397 393
f 398 393 394
f 399 398 394
f 399 394 395
f 396 359 362
f 396 362 400
f 399 395 396
f 399 396 400
f 401 362 363
f 401 400 362
f 402 363 364
f 402 401 363
f 403 361 397
f 403 365 361
f 366 365 403
f 366 403 404
f 403 397 398
f 403 398 404
f 402 364 367
f 402 367 408
f 408 407 401
f 408 401 402
f 409 366 404
f 409 369 366
f 370 369 409
f 370 409 410
f 409 404 405
f 409 405 410
f 411 410 405
f 411 405 406
f 412 411 406
f 412 406 407
f 413 408 367
f 413 367 371
f 414 370 410
f 414 375 370
f 415 376 375
f 415 375 414
f 414 410 411
f 414 411 415
f 377 376 415
f 377 415 416
f 415 411 412
f 415 412 416
f 413 371 378
f 413 378 417
f 416 412 413
f 416 413 417
f 418 377 416
f 418 384 377
f 419 417 378
f 419 378 385
f 385 384 418
f 385 418 419
f 418 416 417
f 418 417 419
f 399 420 398
f 399 421 420
f 422 399 400
f 422 421 399
f 423 400 401
f 423 422 400
f 424 398 420
f 424 404 398
f 405 404 424
f 405 424 425
f 424 420 421
f 424 421 425
f 406 405 425
f 406 425 426
f 425 421 422
f 425 422 426
f 423 401 407
f 423 407 427
f 427 407 406
f 427 406 426
f 426 422 423
f 426 423 427
f 428 407 408
f 428 427 407
f 429 407 427
f 429 412 407
f 428 408 413
f 428 413 430
f 413 412 429
f 413 429 430
f 429 427 428
f 429 428 430
