# parsimony mesh: cplx_CPLX0-8239 (source /Users/eranagmon/code/v2e-cplx/workspace/studies/ecoli-3d/viz/3d/structures/cplx_CPLX0-8239.pdb)
# atoms: 1568  voxel: 4 Å  verts: 788  tris: 1596
v -29.3505 34.7517 -18.3707
v -26.9248 34.7517 -18.3707
v -36.2204 39.0163 -18.1381
v -34.1285 38.1130 -18.5129
v -30.4617 36.8259 -18.7696
v -26.8780 37.1817 -18.5527
v -36.2204 39.2897 -18.1381
v -34.1285 39.9462 -18.5129
v -30.1846 41.3286 -18.7897
v -27.5837 41.1817 -18.5778
v -28.8887 43.6254 -18.4041
v -27.8658 43.6254 -18.4041
v 26.6567 -36.9813 -14.2548
v 28.0591 -36.9813 -14.2548
v 19.0294 -33.3114 -14.5755
v 21.8715 -34.1612 -15.0491
v 25.5426 -35.1967 -14.8415
v 28.8133 -34.8183 -14.4343
v 15.6420 -29.4967 -14.9817
v 17.7662 -30.8253 -15.5324
v 21.8715 -30.8183 -16.1185
v 25.8715 -30.8183 -15.8506
v 30.1124 -31.1601 -15.2648
v 33.8715 -30.6777 -15.3874
v 36.5265 -30.0611 -15.0029
v 15.6420 -28.4962 -14.9817
v 17.8715 -28.0925 -15.5183
v 21.8715 -27.3443 -15.1383
v 25.4753 -26.4265 -15.5606
v 29.8715 -26.8183 -16.8908
v 33.8715 -26.8183 -16.3625
v 36.7364 -26.8183 -15.1007
v 26.4030 -22.8183 -15.9760
v 29.8715 -22.8183 -17.1657
v 33.8715 -22.8183 -16.3180
v 36.8557 -22.8183 -15.1284
v 27.2405 -20.3833 -15.3995
v 29.8715 -19.9391 -15.6127
v 34.1039 -18.7760 -15.1723
v 36.9010 -18.8183 -14.9024
v 35.5922 -16.6838 -14.2092
v 36.4302 -16.6838 -14.2092
v -28.5370 31.0236 -14.2985
v -26.1285 30.8667 -14.5492
v -23.7595 30.9198 -14.4797
v -40.8465 34.5685 -14.6644
v -38.1285 33.7922 -14.7389
v -34.1285 33.6631 -15.2318
v -30.2770 33.2407 -16.1434
v -25.8063 33.3237 -16.7922
v -23.4635 33.1817 -15.3008
v -40.8465 36.5141 -14.6644
v -38.1740 37.7652 -15.8488
v -34.1285 36.1130 -17.2318
v -32.0171 35.2554 -17.9884
v -24.9247 37.3405 -16.4079
v -23.6108 36.1130 -15.3006
v -37.3987 40.8465 -16.0083
v -34.1285 41.9462 -16.5056
v -31.5554 42.7598 -16.7521
v -26.3520 41.1817 -16.0688
v -36.8210 44.1741 -14.6346
v -34.1285 43.9314 -14.5056
v -30.0012 44.7405 -15.5531
v -27.4805 45.0480 -15.8400
v -28.4470 47.3054 -14.3542
v -27.9478 47.3054 -14.3542
v 23.7051 -40.9347 -10.2404
v 25.8715 -40.9784 -10.2700
v 28.6531 -40.9153 -10.1656
v 19.7466 -36.9683 -10.2981
v 22.1717 -38.5083 -11.0889
v 25.5426 -38.5161 -12.6093
v 28.9540 -38.5161 -11.7269
v 18.7573 -34.7141 -11.8064
v 21.8715 -36.1612 -13.2152
v 23.9900 -36.7823 -14.0347
v 30.7259 -34.7170 -12.3013
v 32.4441 -33.3162 -11.1229
v 15.2064 -30.0248 -12.0688
v 16.5724 -32.0248 -12.0688
v 31.6063 -32.7214 -13.7896
v 33.8150 -32.3344 -12.3013
v 36.7318 -30.2860 -12.0688
v 11.7022 -25.2137 -10.3793
v 14.2319 -26.6213 -11.3447
v 17.5650 -25.9178 -12.0387
v 21.8715 -25.3443 -13.5020
v 23.8778 -24.8320 -14.0300
v 38.4587 -26.8100 -12.0592
v 40.7926 -25.4711 -10.7194
v 11.7022 -24.5816 -10.3793
v 12.9324 -24.5816 -10.3793
v 18.6940 -23.9458 -10.6853
v 21.8715 -24.0321 -11.5020
v 24.9985 -23.1128 -12.4455
v 38.8557 -22.8183 -12.9665
v 40.9996 -22.8183 -10.9665
v 27.2755 -20.3434 -12.0688
v 29.8715 -19.1345 -12.0688
v 33.4579 -17.6093 -12.0688
v 38.9010 -18.8183 -12.9089
v 40.4032 -18.8183 -10.9089
v 35.4579 -16.5212 -12.0688
v 37.8067 -16.4099 -12.0131
v 39.9973 -16.5337 -10.6425
v 39.6066 -9.2210 -10.4539
v 40.8938 -9.2210 -10.4539
v 39.6066 -8.1807 -10.4539
v 40.8938 -8.1807 -10.4539
v -28.2212 27.1247 -10.1381
v -27.7404 27.1247 -10.1381
v -48.1496 31.1390 -10.0897
v -46.1285 30.9172 -10.2174
v -43.4817 30.8718 -10.2461
v -37.1178 30.8071 -11.3757
v -34.1285 30.8088 -11.2449
v -29.7124 29.7080 -11.5674
v -26.2956 28.7456 -11.7104
v -22.3071 30.3486 -11.7624
v -20.0190 31.0286 -10.2248
v -48.1496 31.2058 -10.0897
v -46.1285 31.5568 -10.2174
v -42.2338 32.9837 -11.2877
v -38.3220 31.8753 -12.4529
v -34.1285 31.6631 -13.2449
v -31.2036 31.7296 -12.9968
v -21.7123 32.9438 -11.7624
v -20.0190 31.4519 -10.2248
v -41.4889 37.5811 -12.4682
v -40.1277 39.1807 -14.0677
v -24.4561 38.7796 -13.2592
v -23.4619 37.3405 -11.9830
v -40.8367 40.1133 -11.4010
v -39.4867 41.3407 -12.4682
v -25.0456 41.2153 -11.9830
v -24.0088 39.9043 -10.5925
v -37.3269 44.6380 -12.0688
v -34.1285 45.4570 -12.0688
v -29.9196 45.8322 -12.0677
v -27.1406 45.1769 -12.0677
v -28.4470 47.3054 -13.4003
v -27.9478 47.3054 -13.4003
v 22.8166 -41.6375 -8.0688
v 25.8715 -42.1568 -8.0688
v 29.9405 -41.2597 -7.8893
v 31.9039 -40.8615 -6.4362
v 15.7933 -37.2727 -6.1397
v 18.1966 -37.9027 -7.7114
v 20.8166 -39.8330 -8.0688
v 31.0839 -38.8183 -8.6028
v 33.4909 -38.5897 -6.6492
v 36.4664 -37.1040 -6.3242
v 15.7933 -36.6378 -6.1397
v 17.3113 -35.1100 -7.7114
v 31.3732 -35.9828 -9.0801
v 33.8150 -34.7170 -8.5397
v 37.8284 -34.8100 -6.9278
v 40.2223 -33.4711 -6.3936
v 15.2143 -29.7485 -9.3004
v 16.9120 -30.9764 -8.0078
v 35.1107 -32.1991 -9.5869
v 37.7668 -30.8468 -8.7952
v 40.5880 -30.8183 -6.8383
v 11.7022 -25.2137 -9.8686
v 14.0734 -26.4161 -9.5845
v 16.7397 -26.4984 -8.0078
v 39.0303 -28.1378 -9.4366
v 41.9677 -26.8059 -8.2533
v 44.5594 -25.4740 -7.0699
v 11.7022 -24.5816 -9.8686
v 12.9324 -24.5816 -9.8686
v 18.5496 -23.5879 -8.0688
v 22.0442 -22.1285 -7.7893
v 25.0411 -21.9758 -8.9362
v 42.9996 -22.8183 -9.3521
v 44.6703 -22.8183 -7.3521
v 23.4927 -20.6960 -6.2696
v 26.1733 -19.9318 -7.7893
v 29.8973 -17.8803 -7.8417
v 32.9328 -17.2768 -9.0235
v 42.2450 -18.8618 -8.0948
v 44.2487 -20.2241 -6.7788
v 31.2479 -15.8193 -6.3569
v 33.7880 -14.8546 -7.8840
v 37.8715 -14.4086 -9.0836
v 41.5579 -14.6908 -7.7474
v 43.8801 -12.8478 -6.0819
v 34.6328 -10.8183 -6.8493
v 38.1126 -10.6599 -8.6996
v 42.1021 -11.0042 -7.7474
v 43.8801 -12.7873 -6.0819
v 35.4482 -8.4607 -6.4339
v 38.1126 -7.6028 -7.8879
v 41.2174 -7.5671 -8.0688
v -45.2207 26.8169 -6.3773
v -43.7312 26.8169 -6.3773
v -28.2212 27.1247 -9.4545
v -26.4894 26.9697 -8.2314
v -23.6049 26.8147 -7.0083
v -48.8042 30.2299 -8.0688
v -46.3838 28.6343 -7.8539
v -42.2731 29.5976 -7.7365
v -38.3220 30.7936 -7.8850
v -34.1285 29.9939 -8.0688
v -29.7841 28.1786 -8.1002
v -26.4894 27.4234 -8.2314
v -22.2143 28.5446 -8.2325
v -19.7654 30.6154 -8.0688
v -48.8042 31.8477 -8.0688
v -46.3072 33.6002 -8.2009
v -42.2257 32.9240 -9.3590
v -39.7844 31.5237 -9.0958
v -20.9882 34.1186 -9.2374
v -19.6709 32.9438 -7.9700
v -44.9050 37.1817 -6.8474
v -43.2906 37.1817 -8.8474
v -21.9635 36.9841 -7.9700
v -19.8499 35.5190 -6.5707
v -44.1993 39.4353 -6.2202
v -42.2055 41.1077 -7.8851
v -39.7005 42.7800 -9.5499
v -24.6327 42.5710 -9.8277
v -23.1730 41.2153 -8.3241
v -40.7293 45.1817 -6.6885
v -38.5225 45.5663 -7.8153
v -34.1285 46.4641 -8.0688
v -30.1859 46.5414 -7.9512
v -26.1776 45.3000 -8.1835
v -23.0039 44.0930 -7.1610
v -40.1505 47.1957 -6.0807
v -40.0113 47.1957 -6.0807
v -28.8909 47.2603 -6.5394
v -27.7225 47.2603 -6.5394
v 22.6201 -41.7344 -4.0688
v 25.8715 -42.3471 -4.0688
v 29.8715 -42.1350 -4.0688
v 32.2536 -41.5223 -4.0688
v 15.7475 -37.2833 -4.0688
v 17.8715 -38.8135 -4.0688
v 20.6201 -40.3485 -4.0688
v 34.2536 -39.1269 -4.0688
v 36.7551 -37.1269 -4.0688
v 15.5166 -35.1100 -4.0474
v 16.6195 -33.9711 -5.3664
v 38.7551 -36.1283 -4.0688
v 40.5940 -34.1283 -4.0688
v 15.4454 -31.6210 -2.6997
v 16.6853 -30.4999 -4.0474
v 41.5559 -30.8183 -4.0688
v 17.3792 -26.8183 -4.0688
v 42.8335 -27.7544 -4.0688
v 44.5839 -25.7544 -4.0688
v 18.9230 -23.4080 -4.0688
v 20.7820 -21.4080 -4.0688
v 43.2756 -21.2030 -2.3915
v 44.6678 -22.6491 -3.8624
v 22.7820 -19.9948 -4.0688
v 25.7798 -17.8653 -4.2885
v 28.5812 -16.9946 -5.7682
v 42.9662 -18.8618 -3.8624
v 44.2487 -20.2241 -5.0582
v 27.0677 -14.8183 -2.9750
v 29.8973 -14.6189 -5.1463
v 31.9766 -13.1526 -5.9897
v 42.8870 -14.4360 -4.4542
v 43.8801 -12.8478 -6.0444
v 27.2345 -10.8183 -2.5710
v 29.8715 -10.8183 -3.6341
v 33.5978 -10.1624 -4.0827
v 36.6628 -9.2880 -2.6837
v 42.4134 -11.1997 -4.4542
v 43.8801 -12.7873 -6.0444
v 27.2744 -8.3180 -2.5629
v 29.8715 -8.3612 -2.5619
v 33.8330 -8.5849 -3.7912
v 37.9463 -7.8834 -4.0377
v 40.5949 -7.9178 -4.0688
v -48.9484 26.7452 -3.2913
v -46.3838 25.9521 -4.4023
v -42.2901 25.6778 -4.1002
v -39.1800 26.2880 -2.7879
v -32.8739 26.9558 -2.7970
v -31.7725 26.9558 -2.7970
v -25.2383 26.8147 -5.7181
v -23.6049 26.8147 -5.7181
v -49.7746 28.8459 -4.4023
v -47.8874 27.2887 -5.9580
v -41.0645 28.3234 -5.4545
v -37.9594 28.7349 -4.1002
v -34.1757 28.2463 -4.1057
v -30.3149 27.9548 -4.1057
v -26.0637 28.9955 -3.9237
v -22.4858 29.3362 -3.9237
v -19.5557 30.4134 -4.0688
v -49.8904 33.3001 -4.1427
v -47.7597 34.7123 -5.5252
v -24.2226 31.2659 -2.1293
v -24.0334 31.2659 -2.1293
v -19.2984 33.1817 -4.0688
v -49.1415 36.2467 -2.8586
v -46.9963 37.4207 -4.1427
v -21.5860 37.5082 -4.0688
v -19.8712 35.5082 -4.0688
v -45.0364 40.9339 -4.1827
v -43.5742 42.1020 -5.5920
v -21.4197 41.4588 -4.1930
v -19.9673 42.9769 -2.9425
v -44.4932 44.0309 -2.9253
v -42.7560 45.2912 -4.1827
v -37.3446 47.0016 -5.8744
v -34.1285 46.9386 -5.8130
v -31.5576 47.0377 -5.9222
v -25.7622 46.1958 -4.0688
v -21.8537 44.1906 -4.1930
v -19.9673 43.5111 -2.9425
v -40.8285 47.9794 -4.0688
v -38.5827 49.0468 -4.2448
v -34.1198 49.2216 -3.7919
v -30.1859 47.6919 -4.3809
v -27.7622 47.2696 -4.0688
v -37.1542 51.5428 -2.6151
v -35.4473 51.5428 -2.6151
v 23.3206 -45.0728 1.6330
v 24.2186 -45.0728 1.6330
v 19.5742 -41.0285 1.7468
v 22.0486 -42.3796 0.3565
v 25.6798 -43.0980 0.1522
v 29.8715 -42.2562 -0.0688
v 32.3089 -41.5908 -0.0688
v 15.3927 -37.5928 -0.0688
v 18.0931 -39.5403 0.2205
v 20.7765 -40.3223 -0.9199
v 34.3089 -39.2573 -0.0688
v 36.8046 -37.2573 -0.0688
v 14.1717 -34.8183 -0.0688
v 38.8046 -35.8256 -0.0688
v 40.5608 -33.8256 -0.0688
v 14.5383 -30.4999 -0.2965
v 15.9369 -28.9544 -1.7817
v 42.4298 -30.9199 -0.1919
v 44.5068 -29.6543 1.0595
v 14.7363 -26.8183 0.6548
v 16.4108 -26.8183 -1.3452
v 43.1974 -26.6655 -0.1939
v 44.3202 -26.6655 -0.1939
v 11.2110 -21.6712 1.3659
v 13.7199 -22.9300 1.0855
v 17.7525 -22.5109 0.1757
v 20.5035 -21.3572 -0.0688
v 42.5151 -22.6491 -0.0959
v 44.1336 -23.8696 -1.4472
v 11.2110 -20.0079 1.3659
v 14.0212 -18.7321 1.4151
v 16.4685 -18.8183 1.7100
v 22.2393 -18.6329 -0.3123
v 24.3853 -17.1759 -1.8080
v 41.7449 -18.8183 -0.0688
v 15.4544 -16.4759 1.8248
v 16.2259 -16.4759 1.8248
v 22.9751 -15.8456 0.8587
v 25.2131 -14.6346 -0.3123
v 34.8810 -13.3289 1.4705
v 37.8715 -13.7868 1.1860
v 41.0741 -14.8867 0.0114
v 3.4026 -9.5158 1.0827
v 5.8715 -10.1677 0.6678
v 9.8715 -10.0079 1.1366
v 12.0633 -9.3027 1.7078
v 26.9466 -10.9032 0.0126
v 29.8715 -10.3328 0.6283
v 33.5493 -10.9920 -0.2356
v 37.9463 -10.7001 -0.9006
v 40.4697 -10.8183 -1.2631
v 3.4026 -7.5484 1.0827
v 5.8715 -7.4296 0.6678
v 9.8715 -8.2632 1.1366
v 12.0633 -8.6599 1.7078
v 27.2744 -8.3180 -1.2664
v 29.8715 -8.3612 -1.3717
v 32.2177 -8.7091 -1.9417
v 39.3294 -8.6484 -1.7949
v 40.0637 -8.6484 -1.7949
v -44.1485 23.1499 1.4014
v -44.0478 23.1499 1.4014
v -48.9115 26.7749 -0.0688
v -45.7405 24.5074 0.0133
v -42.4128 24.7775 0.1403
v -38.0570 26.5825 0.0022
v -34.1757 26.8389 -0.1524
v -31.7231 26.9817 -0.0688
v -52.7032 30.4991 0.9319
v -50.9811 29.1721 -0.2684
v -40.7778 27.5911 1.5459
v -38.0570 27.4835 0.0022
v -35.5405 27.3759 -1.5415
v -29.7231 28.3117 -0.0688
v -26.8983 30.3117 -0.0688
v -21.3667 30.7592 -1.7621
v -19.7393 30.7592 -1.7621
v -52.5880 33.1817 0.9099
v -51.6711 33.1817 -1.0901
v -24.8983 32.1840 -0.0688
v -22.7256 33.1832 -0.5382
v -19.7883 33.1817 -1.7729
v -52.1664 35.2535 1.5687
v -50.2142 37.0834 -0.1354
v -47.8728 38.9134 -1.8395
v -22.2624 36.8406 -0.4161
v -20.0640 35.2798 -1.9810
v -48.6202 39.8991 0.8272
v -47.1258 41.2122 -0.3312
v -22.2409 41.4588 -0.3717
v -19.9673 42.9769 -1.9069
v -44.9278 45.2912 0.2543
v -42.0948 46.9283 0.5221
v -40.0746 47.1590 1.9078
v -32.8008 46.8283 1.5443
v -30.1285 46.4102 0.7173
v -26.4790 45.7486 -0.4078
v -22.4806 43.9514 -0.3717
v -19.9673 43.5111 -1.9069
v -44.2093 47.2033 1.8031
v -42.0948 47.7173 0.5221
v -38.6144 49.1896 0.1738
v -34.1241 49.0314 -0.0080
v -30.1285 47.7605 -1.2827
v -28.0460 47.2204 -1.9671
v -37.1542 51.5428 -1.5602
v -35.4473 51.5428 -1.5602
v 22.6267 -45.2247 3.9312
v 25.6798 -45.2294 4.1649
v 28.4170 -44.9616 5.6540
v 19.1304 -41.8712 3.9312
v 20.6267 -43.8712 3.9312
v 26.8852 -44.1506 2.9874
v 30.0626 -42.5517 4.1462
v 31.9776 -40.9529 2.6383
v 15.0722 -37.9368 3.9312
v 17.1304 -39.9368 3.9312
v 31.7081 -40.5963 5.3049
v 33.5892 -38.9371 4.0018
v 36.5324 -37.2779 2.6987
v 13.2453 -34.8183 3.9312
v 35.0519 -34.8183 5.2010
v 37.8680 -34.5678 3.0399
v 40.1780 -33.0674 2.0859
v 11.6379 -29.9574 5.1508
v 12.4535 -31.1018 3.8629
v 35.4494 -31.7115 5.5235
v 37.5325 -30.5542 4.6034
v 41.6554 -30.9199 3.1055
v 44.5068 -29.6543 3.0269
v 11.6050 -26.8183 4.9892
v 12.7363 -26.8183 2.9892
v 35.5795 -25.7644 5.6079
v 37.5325 -26.9860 4.7538
v 41.8557 -26.6795 3.2052
v 44.5068 -27.9203 3.0269
v 11.4804 -22.7645 4.2880
v 13.1918 -22.8206 4.1162
v 17.7365 -21.8163 3.7620
v 20.4397 -21.4810 3.9312
v 35.4255 -22.8183 5.5517
v 37.8715 -22.8183 4.1838
v 40.6229 -22.8183 2.5633
v 11.2110 -20.0079 3.1204
v 14.0435 -18.7560 4.0515
v 16.9206 -18.8298 3.7620
v 21.2064 -18.8183 3.9312
v 34.8328 -18.8183 5.2448
v 37.8715 -18.8183 3.9854
v 40.3117 -18.8183 2.6718
v 6.7855 -13.5050 4.8736
v 9.8715 -13.7458 4.6255
v 14.0435 -14.9221 3.8863
v 16.9922 -15.0128 3.8873
v 22.6382 -15.8986 3.9312
v 25.8562 -14.0998 3.8033
v 29.8715 -14.1476 4.4245
v 33.5017 -14.9455 3.6670
v 37.8715 -15.7868 2.7310
v 40.0969 -16.2657 2.3969
v 3.4026 -9.5158 3.1837
v 5.4033 -11.0512 4.0287
v 9.8715 -12.0079 2.6255
v 13.6834 -10.4621 3.8863
v 16.4325 -11.6216 5.1915
v 27.1793 -12.2932 2.3848
v 29.8715 -12.3328 2.4245
v 32.2143 -12.6960 2.1353
v 3.4915 -6.7735 3.9516
v 5.0567 -6.9349 4.4465
v 9.8715 -7.9555 3.9312
v 12.5894 -8.6550 3.9312
v 3.5803 -4.5743 4.7195
v 4.2158 -4.5743 4.7195
v -44.1485 23.1499 1.9481
v -44.0478 23.1499 1.9481
v -48.3526 27.0758 2.0771
v -45.7405 25.5182 2.2137
v -43.5550 25.1817 2.1749
v -37.3558 26.7985 3.9312
v -34.1285 26.7544 3.9312
v -31.9792 27.1376 3.9312
v -52.6829 30.5871 3.9312
v -49.8192 29.4520 3.9250
v -46.3914 29.3068 4.5086
v -42.1181 28.0874 3.7160
v -39.3558 27.6575 3.9312
v -29.6684 29.1832 4.2173
v -27.7275 30.5174 3.0747
v -52.9399 33.1817 3.9312
v -48.6191 31.3553 5.7729
v -47.9001 31.3553 5.7729
v -28.4102 33.1817 5.5828
v -26.2879 33.5330 3.2811
v -24.0844 35.1005 1.9788
v -52.3855 35.5427 3.9312
v -50.9536 37.5427 3.9312
v -28.7941 37.1817 5.2182
v -26.1285 37.1817 3.2704
v -24.0772 37.1817 1.9834
v -48.9536 40.2277 3.9312
v -47.0591 42.2277 3.9312
v -29.2328 41.1817 4.9201
v -26.1285 41.1817 2.9965
v -24.0504 41.1817 2.0076
v -44.9215 44.9429 3.5564
v -41.9413 46.2935 3.5564
v -39.3687 46.8699 3.9312
v -33.5201 46.1483 3.9312
v -30.2455 44.3498 3.9279
v -26.1285 44.0597 2.4870
v -24.0487 43.6943 2.0110
v -44.2093 47.2033 1.9732
v -43.1498 47.2033 1.9732
v -37.3687 47.4631 3.9312
v -35.5201 47.4631 3.9312
v 22.8919 -45.0546 7.9312
v 26.1044 -45.0934 8.2831
v 28.4170 -44.9616 7.1844
v 19.0220 -42.3816 7.9312
v 20.8919 -44.3816 7.9312
v 27.5930 -44.7622 9.8510
v 29.0752 -43.1846 8.2831
v 15.3138 -37.4368 7.9312
v 17.0220 -39.4368 7.9312
v 30.4645 -39.0851 7.7649
v 32.5341 -37.9296 6.3208
v 11.7339 -33.0717 8.8907
v 13.0850 -34.5703 7.7069
v 30.1973 -34.8183 8.6331
v 33.0519 -34.8183 6.6331
v 11.6859 -31.1669 7.7110
v 12.1787 -31.1669 7.7110
v 27.5613 -29.2465 9.7074
v 29.6155 -30.6752 9.1391
v 34.0182 -30.5542 6.9673
v 35.9731 -29.0449 6.0877
v 11.6050 -26.8183 6.9410
v 12.4838 -26.8183 8.9410
v 27.5613 -28.5770 9.7074
v 29.8715 -28.3706 9.5314
v 34.0607 -27.1136 7.8548
v 35.9731 -28.4311 6.0877
v 11.7336 -22.7567 7.7883
v 13.1436 -22.8140 7.7751
v 17.8715 -21.6925 6.6010
v 20.0460 -21.2042 6.2361
v 31.6201 -21.0744 9.5874
v 33.5169 -22.5720 8.1249
v 11.7175 -20.1185 8.8993
v 13.7557 -18.8113 7.7093
v 18.0430 -18.8298 6.7285
v 20.4414 -18.8183 6.4866
v 27.2713 -17.4028 9.3999
v 30.1207 -18.7690 8.6779
v 32.8328 -18.8183 6.7630
v 6.7855 -13.5050 6.6197
v 9.8715 -13.7458 7.2074
v 12.7069 -14.7483 8.1390
v 19.0066 -14.8183 6.8239
v 21.8679 -15.0133 7.8596
v 25.9114 -15.8695 8.0124
v 29.8715 -16.1476 6.6224
v 32.1224 -16.5620 6.0508
v 6.1692 -10.8183 6.6771
v 9.8715 -10.8183 7.8022
v 13.7328 -10.5952 8.0145
v 17.8081 -11.4893 7.9839
v 20.6123 -12.3828 9.3524
v 3.5803 -5.9986 6.1721
v 5.4518 -7.2329 6.2047
v 9.8715 -8.5105 6.5259
v 12.6369 -8.7589 6.4181
v 3.5803 -4.5743 6.1721
v 4.2158 -4.5743 6.1721
v -32.2894 23.1300 9.8282
v -32.0559 23.1300 9.8282
v -37.4262 26.6019 7.9312
v -33.8250 25.1071 8.2694
v -31.6290 25.5709 8.2694
v -52.2929 31.0715 6.1372
v -51.2858 31.0715 6.1372
v -45.5597 30.2683 7.9312
v -42.1285 28.6605 7.9312
v -39.4262 27.5739 7.9312
v -29.3319 29.1909 7.6306
v -27.8853 30.5304 8.7636
v -52.4804 33.1817 7.0818
v -50.0228 32.8859 7.5195
v -47.5705 32.8859 8.1990
v -28.7325 33.2242 7.6306
v -27.8853 31.9191 8.7636
v -52.4332 35.5913 7.2593
v -50.0213 36.8379 8.4851
v -47.9569 35.4178 9.7110
v -29.9925 37.1817 7.9312
v -48.9424 41.1880 8.1048
v -47.1494 42.5256 6.8872
v -36.2282 43.1341 9.8736
v -34.1285 42.4671 9.1346
v -31.1920 41.0386 7.7285
v -48.3659 43.3525 9.5539
v -45.9411 43.6608 8.1048
v -42.1285 44.5453 7.9312
v -37.6988 45.1103 7.9619
v -34.4384 44.9670 6.9654
v -31.6568 43.4906 6.2600
v -36.5027 47.2573 6.0502
v -35.9783 47.2573 6.0502
v 23.6742 -44.8461 9.9826
v 26.3581 -44.8587 11.3835
v 27.9515 -44.8713 12.7845
v 19.4296 -41.7090 10.8270
v 22.1531 -42.9527 11.1842
v 26.3006 -43.6514 11.6651
v 28.1842 -43.1846 11.6431
v 15.6424 -37.0186 10.0967
v 18.2670 -38.4488 11.7952
v 21.8715 -39.6443 13.4588
v 25.9611 -38.7962 13.5815
v 28.2528 -38.7674 12.0269
v 11.7339 -33.0717 10.1767
v 14.1340 -34.5703 10.5521
v 17.2414 -34.8183 12.5231
v 23.6546 -33.3394 13.7418
v 25.9622 -34.7310 12.8697
v 28.1973 -34.8183 10.7464
v 11.7339 -32.3765 10.1767
v 13.7805 -30.9532 11.0724
v 16.5432 -30.8183 13.1736
v 23.5485 -30.8183 13.5284
v 26.0854 -30.6752 11.3654
v 28.1116 -31.9131 10.1919
v 14.5987 -26.9425 12.1509
v 16.1736 -28.3586 13.6307
v 23.2961 -26.8183 13.4166
v 26.0854 -27.0735 11.5868
v 29.8715 -26.3706 11.1763
v 32.5418 -25.7960 10.8125
v 11.7175 -21.6557 10.1099
v 13.3494 -22.9208 11.6384
v 23.3180 -24.4002 13.5927
v 25.8715 -23.6768 13.2614
v 29.7784 -22.3944 12.0946
v 32.5418 -23.7411 10.8125
v 11.7175 -20.1185 10.1099
v 13.2405 -18.7984 11.6384
v 19.7405 -16.9270 13.7470
v 21.8715 -17.3295 13.2927
v 25.9114 -18.2663 11.9309
v 28.7319 -20.1987 11.9312
v 14.3552 -14.5639 12.1688
v 18.1929 -14.5639 13.5578
v 21.9160 -14.8044 11.7199
v 24.6046 -16.1285 10.5974
v 14.8288 -12.2355 10.9939
v 17.8715 -12.0546 11.6026
v 20.6123 -12.3828 11.0971
v -36.8680 22.5496 13.1803
v -33.8250 22.7523 11.8807
v -32.0385 23.1190 11.9312
v -44.3786 27.0468 13.6034
v -42.1285 26.7847 13.1359
v -38.2813 25.3678 11.8561
v -34.9560 23.9483 10.5137
v -30.0093 25.3846 11.9040
v -27.8084 26.8532 13.2192
v -45.3036 29.1260 12.1345
v -42.1285 27.8355 11.1359
v -39.6946 27.4797 10.5320
v -28.7165 27.8637 10.5525
v -27.4589 29.1909 11.9040
v -46.7084 33.1817 11.9312
v -29.3023 34.4831 11.9312
v -27.5316 32.4831 11.9312
v -48.6390 38.0845 10.6290
v -46.3276 37.0878 12.1594
v -42.1285 38.2367 12.9284
v -38.8302 38.3456 12.8355
v -33.4213 38.0400 13.1538
v -31.2475 36.8967 11.8648
v -48.6895 41.1817 10.6855
v -46.1285 41.1817 11.8469
v -42.1285 41.1817 11.4143
v -37.5292 41.1703 11.4790
v -34.5042 40.2249 11.8648
v -31.7618 39.6099 10.4871
v -48.3659 43.3525 10.2392
v -46.1285 43.5791 10.5046
v -42.1285 43.6385 10.4170
v -38.8949 43.4318 10.1224
v 27.7900 -44.8713 13.9812
v 27.9515 -44.8713 13.9812
v 27.3313 -42.8183 14.0501
v 28.0444 -42.8183 14.0501
v 19.7711 -37.2123 14.2285
v 21.8715 -37.6443 14.2903
v 25.9611 -38.7962 14.0762
v 28.0220 -40.0668 14.0398
v 19.2923 -34.6576 15.7096
v 21.9117 -34.6116 15.5039
v 24.6894 -36.0061 14.1127
v 18.2950 -30.8183 15.9312
v 22.4949 -30.8183 15.9312
v 15.6005 -25.6920 14.2072
v 17.9197 -27.1189 15.5838
v 21.5900 -27.0548 15.7486
v 15.4928 -22.8183 14.2969
v 17.8715 -22.8183 14.9572
v 21.9394 -22.9674 14.8309
v 25.8715 -21.6768 14.4482
v 27.9368 -21.0478 14.0014
v 15.3272 -18.8183 14.4439
v 18.1929 -18.4835 14.6521
v 21.8715 -19.3295 14.7840
v 25.8715 -20.1900 14.4482
v 27.9368 -20.7409 14.0014
v 15.3798 -15.7276 14.4032
v 17.0739 -15.7276 14.4032
v -36.8680 22.5496 15.1644
v -34.1285 22.6837 14.9025
v -32.0811 23.1498 13.9931
v -44.3786 27.0468 14.3521
v -42.1285 26.7847 14.6030
v -38.1815 25.0562 16.1185
v -34.1285 24.1667 16.9025
v -30.6895 25.6024 15.4974
v -27.8084 26.8532 14.3350
v -44.9948 29.1817 14.7241
v -42.1285 29.1817 15.8133
v -39.3438 29.1817 17.0203
v -32.8894 30.0598 17.1073
v -30.4302 28.9086 16.4277
v -27.4739 29.1817 14.6697
v -45.2346 33.1817 14.6597
v -42.1285 33.1817 15.9124
v -38.2808 33.0105 16.5772
v -34.1851 33.0105 15.9283
v -30.2889 33.3804 14.6329
v -27.5758 32.1795 14.5120
v -44.6983 36.0911 14.2662
v -42.1285 36.2367 14.7021
v -37.7495 37.0801 14.3979
v -34.5042 36.8967 14.0297
v -31.7291 35.3734 14.0104
v -36.1636 39.2066 13.9430
v -36.0880 39.2066 13.9430
v 19.7464 -33.2172 18.0370
v 20.1687 -33.2172 18.0370
v 19.6234 -30.8183 18.1484
v 20.8180 -30.8183 18.1484
v 19.6658 -28.5458 18.1151
v 20.8362 -28.5458 18.1151
v -36.8284 25.9917 18.5360
v -34.1285 26.1667 18.4579
v -31.9646 27.0184 18.0287
v -37.6611 29.2401 19.8941
v -34.3504 29.0027 19.6157
v -31.9646 27.3931 18.0287
v -37.5193 31.6998 19.9312
v -35.4614 31.6998 19.9312
v -37.0624 30.6124 22.2750
v -35.8114 30.6124 22.2750
v -37.0624 31.4913 22.2750
v -35.8114 31.4913 22.2750
f 6 1 5
f 6 2 1
f 8 3 7
f 8 4 3
f 8 5 4
f 8 9 5
f 10 5 9
f 10 6 5
f 11 10 9
f 11 12 10
f 18 13 17
f 18 14 13
f 21 15 20
f 21 16 15
f 22 16 21
f 22 17 16
f 22 18 17
f 22 23 18
f 27 19 26
f 27 20 19
f 27 21 20
f 27 28 21
f 28 22 21
f 28 29 22
f 30 22 29
f 30 23 22
f 30 24 23
f 30 31 24
f 31 25 24
f 31 32 25
f 33 30 29
f 33 34 30
f 35 30 34
f 35 31 30
f 35 32 31
f 35 36 32
f 37 34 33
f 37 38 34
f 38 35 34
f 38 39 35
f 39 36 35
f 39 40 36
f 41 40 39
f 41 42 40
f 50 1 2
f 50 49 1
f 50 43 49
f 50 44 43
f 51 44 50
f 51 45 44
f 52 47 46
f 52 53 47
f 54 3 4
f 54 53 3
f 54 47 53
f 54 48 47
f 55 1 49
f 55 5 1
f 55 4 5
f 55 54 4
f 55 48 54
f 55 49 48
f 56 50 2
f 56 2 6
f 57 50 56
f 57 51 50
f 58 3 53
f 58 7 3
f 59 8 7
f 59 7 58
f 60 9 8
f 60 8 59
f 61 56 6
f 61 6 10
f 62 59 58
f 62 63 59
f 60 11 9
f 60 64 11
f 63 60 59
f 63 64 60
f 61 10 12
f 61 12 65
f 65 12 11
f 65 11 64
f 66 65 64
f 66 67 65
f 73 68 72
f 73 69 68
f 14 73 13
f 14 74 73
f 74 69 73
f 74 70 69
f 76 15 16
f 76 75 15
f 76 71 75
f 76 72 71
f 77 13 73
f 77 17 13
f 77 16 17
f 77 76 16
f 77 72 76
f 77 73 72
f 78 74 14
f 78 14 18
f 81 15 75
f 81 20 15
f 81 19 20
f 81 80 19
f 82 78 18
f 82 18 23
f 24 82 23
f 24 83 82
f 82 79 78
f 82 83 79
f 84 24 25
f 84 83 24
f 80 26 19
f 80 86 26
f 87 27 26
f 87 26 86
f 88 28 27
f 88 27 87
f 89 29 28
f 89 28 88
f 84 25 32
f 84 32 90
f 93 85 92
f 93 86 85
f 94 88 87
f 94 95 88
f 89 33 29
f 89 96 33
f 95 89 88
f 95 96 89
f 97 90 32
f 97 32 36
f 97 91 90
f 97 98 91
f 96 37 33
f 96 99 37
f 38 37 99
f 38 99 100
f 39 38 100
f 39 100 101
f 97 36 40
f 97 40 102
f 103 97 102
f 103 98 97
f 101 41 39
f 101 104 41
f 102 40 42
f 102 42 105
f 42 41 104
f 42 104 105
f 106 102 105
f 106 103 102
f 109 108 107
f 109 110 108
f 119 43 44
f 119 118 43
f 119 111 118
f 119 112 111
f 45 119 44
f 45 120 119
f 122 114 113
f 122 123 114
f 123 115 114
f 123 124 115
f 125 46 47
f 125 124 46
f 126 47 48
f 126 125 47
f 126 116 125
f 126 117 116
f 127 43 118
f 127 49 43
f 127 48 49
f 127 126 48
f 127 117 126
f 127 118 117
f 128 120 45
f 128 45 51
f 129 120 128
f 129 121 120
f 130 46 124
f 130 52 46
f 131 53 52
f 131 52 130
f 128 51 57
f 128 57 133
f 57 56 132
f 57 132 133
f 131 58 53
f 131 135 58
f 134 131 130
f 134 135 131
f 132 56 61
f 132 61 136
f 137 132 136
f 137 133 132
f 135 62 58
f 135 138 62
f 139 63 62
f 139 62 138
f 140 64 63
f 140 63 139
f 141 136 61
f 141 61 65
f 140 66 64
f 140 142 66
f 141 65 67
f 141 67 143
f 67 66 142
f 67 142 143
f 143 142 140
f 143 140 141
f 145 68 69
f 145 144 68
f 70 145 69
f 70 146 145
f 150 68 144
f 150 72 68
f 150 71 72
f 150 149 71
f 151 146 70
f 151 70 74
f 151 147 146
f 151 152 147
f 155 71 149
f 155 75 71
f 155 148 154
f 155 149 148
f 156 151 74
f 156 74 78
f 79 156 78
f 79 157 156
f 156 152 151
f 156 157 152
f 157 153 152
f 157 158 153
f 155 81 75
f 155 161 81
f 81 160 80
f 81 161 160
f 162 157 79
f 162 79 83
f 84 162 83
f 84 163 162
f 162 158 157
f 162 163 158
f 163 159 158
f 163 164 159
f 160 86 80
f 160 166 86
f 166 85 86
f 166 165 85
f 167 87 86
f 167 86 166
f 167 166 160
f 167 160 161
f 168 163 84
f 168 84 90
f 91 168 90
f 91 169 168
f 168 164 163
f 168 169 164
f 165 92 85
f 165 171 92
f 166 86 93
f 166 93 172
f 93 92 171
f 93 171 172
f 172 171 165
f 172 165 166
f 167 94 87
f 167 173 94
f 174 95 94
f 174 94 173
f 175 96 95
f 175 95 174
f 176 169 91
f 176 91 98
f 176 170 169
f 176 177 170
f 175 99 96
f 175 179 99
f 178 175 174
f 178 179 175
f 180 100 99
f 180 99 179
f 181 101 100
f 181 100 180
f 176 98 103
f 176 103 182
f 183 176 182
f 183 177 176
f 181 104 101
f 181 185 104
f 184 181 180
f 184 185 181
f 186 105 104
f 186 104 185
f 182 103 106
f 182 106 187
f 106 105 186
f 106 186 187
f 189 186 185
f 189 190 186
f 108 190 107
f 108 191 190
f 190 187 186
f 190 191 187
f 191 188 187
f 191 192 188
f 194 107 190
f 194 109 107
f 193 190 189
f 193 194 190
f 195 191 108
f 195 108 110
f 195 110 109
f 195 109 194
f 112 198 111
f 112 199 198
f 114 201 113
f 114 202 201
f 115 202 114
f 115 203 202
f 202 197 196
f 202 203 197
f 205 116 117
f 205 204 116
f 206 111 198
f 206 118 111
f 118 205 117
f 118 206 205
f 207 199 112
f 207 112 119
f 207 206 198
f 207 198 199
f 208 119 120
f 208 207 119
f 207 200 199
f 207 208 200
f 121 208 120
f 121 209 208
f 210 113 201
f 210 122 113
f 123 122 210
f 123 210 211
f 212 203 115
f 212 115 124
f 212 124 123
f 212 123 211
f 213 116 204
f 213 125 116
f 213 124 125
f 213 212 124
f 213 203 212
f 213 204 203
f 209 121 129
f 209 129 215
f 129 128 214
f 129 214 215
f 217 124 212
f 217 130 124
f 217 211 216
f 217 212 211
f 214 128 133
f 214 133 218
f 219 214 218
f 219 215 214
f 217 134 130
f 217 221 134
f 220 217 216
f 220 221 217
f 222 135 134
f 222 134 221
f 218 133 137
f 218 137 224
f 137 136 223
f 137 223 224
f 222 138 135
f 222 226 138
f 225 222 221
f 225 226 222
f 227 139 138
f 227 138 226
f 228 140 139
f 228 139 227
f 223 136 141
f 223 141 229
f 141 140 228
f 141 228 229
f 230 223 229
f 230 224 223
f 232 225 231
f 232 226 225
f 234 228 233
f 234 229 228
f 236 144 145
f 236 235 144
f 237 145 146
f 237 236 145
f 147 237 146
f 147 238 237
f 240 148 149
f 240 239 148
f 241 144 235
f 241 150 144
f 241 149 150
f 241 240 149
f 242 238 147
f 242 147 152
f 153 242 152
f 153 243 242
f 239 154 148
f 239 244 154
f 245 155 154
f 245 154 244
f 246 243 153
f 246 153 158
f 159 246 158
f 159 247 246
f 245 161 155
f 245 249 161
f 248 245 244
f 248 249 245
f 250 247 159
f 250 159 164
f 249 167 161
f 249 251 167
f 252 250 164
f 252 164 169
f 170 252 169
f 170 253 252
f 251 173 167
f 251 254 173
f 174 173 254
f 174 254 255
f 257 253 170
f 257 170 177
f 255 178 174
f 255 258 178
f 259 179 178
f 259 178 258
f 260 180 179
f 260 179 259
f 262 257 177
f 262 177 183
f 183 182 261
f 183 261 262
f 262 261 256
f 262 256 257
f 260 184 180
f 260 264 184
f 263 260 259
f 263 264 260
f 265 185 184
f 265 184 264
f 266 261 182
f 266 182 187
f 188 266 187
f 188 267 266
f 269 263 268
f 269 264 263
f 265 189 185
f 265 270 189
f 269 265 264
f 269 270 265
f 267 188 192
f 267 192 273
f 192 191 272
f 192 272 273
f 273 272 266
f 273 266 267
f 275 268 274
f 275 269 268
f 270 193 189
f 270 276 193
f 275 270 269
f 275 276 270
f 277 194 193
f 277 193 276
f 276 270 271
f 276 271 277
f 278 272 191
f 278 191 195
f 278 195 194
f 278 194 277
f 197 280 196
f 197 281 280
f 200 285 199
f 200 286 285
f 288 196 280
f 288 202 196
f 288 201 202
f 288 287 201
f 288 279 287
f 288 280 279
f 289 281 197
f 289 197 203
f 204 289 203
f 204 290 289
f 289 282 281
f 289 290 282
f 205 290 204
f 205 291 290
f 292 205 206
f 292 291 205
f 291 284 283
f 291 292 284
f 285 207 199
f 285 293 207
f 207 292 206
f 207 293 292
f 286 200 208
f 286 208 294
f 293 285 286
f 293 286 294
f 209 294 208
f 209 295 294
f 287 210 201
f 287 296 210
f 297 211 210
f 297 210 296
f 298 293 294
f 298 294 299
f 295 209 215
f 295 215 300
f 297 216 211
f 297 302 216
f 301 297 296
f 301 302 297
f 300 215 219
f 300 219 304
f 219 218 303
f 219 303 304
f 302 220 216
f 302 305 220
f 306 221 220
f 306 220 305
f 303 218 224
f 303 224 307
f 306 225 221
f 306 310 225
f 309 306 305
f 309 310 306
f 227 226 311
f 227 311 312
f 313 228 227
f 313 227 312
f 307 224 230
f 307 230 315
f 230 229 314
f 230 314 315
f 315 308 307
f 315 316 308
f 310 231 225
f 310 317 231
f 311 226 232
f 311 232 318
f 232 231 317
f 232 317 318
f 319 311 318
f 319 312 311
f 313 233 228
f 313 320 233
f 319 313 312
f 319 320 313
f 314 229 234
f 314 234 321
f 321 234 233
f 321 233 320
f 322 319 318
f 322 323 319
f 328 235 236
f 328 327 235
f 328 324 327
f 328 325 324
f 329 236 237
f 329 328 236
f 238 329 237
f 238 330 329
f 240 331 239
f 240 332 331
f 333 235 327
f 333 241 235
f 333 240 241
f 333 332 240
f 333 326 332
f 333 327 326
f 334 330 238
f 334 238 242
f 335 242 243
f 335 334 242
f 331 244 239
f 331 336 244
f 335 243 246
f 335 246 337
f 247 337 246
f 247 338 337
f 336 248 244
f 336 339 248
f 340 249 248
f 340 248 339
f 338 247 250
f 338 250 341
f 340 251 249
f 340 344 251
f 343 340 339
f 343 344 340
f 341 250 252
f 341 252 345
f 253 345 252
f 253 346 345
f 345 342 341
f 345 346 342
f 344 254 251
f 344 349 254
f 349 343 348
f 349 344 343
f 350 255 254
f 350 254 349
f 352 346 253
f 352 253 257
f 352 257 256
f 352 256 351
f 352 351 345
f 352 345 346
f 353 348 347
f 353 354 348
f 355 348 354
f 355 349 348
f 350 258 255
f 350 356 258
f 357 259 258
f 357 258 356
f 358 351 256
f 358 256 261
f 359 355 354
f 359 360 355
f 357 263 259
f 357 362 263
f 361 357 356
f 361 362 357
f 365 358 261
f 365 261 266
f 362 268 263
f 362 370 268
f 271 270 372
f 271 372 373
f 373 372 363
f 373 363 364
f 374 365 266
f 374 266 272
f 374 373 364
f 374 364 365
f 376 366 375
f 376 367 366
f 377 367 376
f 377 368 367
f 377 369 368
f 377 378 369
f 379 268 370
f 379 274 268
f 380 275 274
f 380 274 379
f 379 370 371
f 379 371 380
f 381 372 270
f 381 270 276
f 381 276 275
f 381 275 380
f 381 380 371
f 381 371 372
f 382 271 373
f 382 277 271
f 374 272 278
f 374 278 383
f 278 277 382
f 278 382 383
f 382 373 374
f 382 374 383
f 280 386 279
f 280 387 386
f 281 387 280
f 281 388 387
f 387 385 384
f 387 388 385
f 282 388 281
f 282 389 388
f 391 283 284
f 391 390 283
f 393 279 386
f 393 287 279
f 395 389 282
f 395 282 290
f 394 388 389
f 394 389 395
f 396 283 390
f 396 291 283
f 396 290 291
f 396 395 290
f 396 389 395
f 396 390 389
f 397 391 284
f 397 284 292
f 293 397 292
f 293 398 397
f 295 399 294
f 295 400 399
f 393 296 287
f 393 402 296
f 402 392 401
f 402 393 392
f 398 293 298
f 398 298 403
f 399 299 294
f 399 404 299
f 299 403 298
f 299 404 403
f 400 295 300
f 400 300 405
f 405 404 399
f 405 399 400
f 402 301 296
f 402 407 301
f 406 402 401
f 406 407 402
f 408 302 301
f 408 301 407
f 410 405 300
f 410 300 304
f 410 304 303
f 410 303 409
f 410 409 404
f 410 404 405
f 408 305 302
f 408 412 305
f 411 408 407
f 411 412 408
f 413 409 303
f 413 303 307
f 414 307 308
f 414 413 307
f 412 309 305
f 412 415 309
f 310 309 415
f 310 415 416
f 421 315 314
f 421 314 420
f 414 308 316
f 414 316 422
f 422 316 315
f 422 315 421
f 421 413 414
f 421 414 422
f 416 317 310
f 416 424 317
f 423 416 415
f 423 424 416
f 425 318 317
f 425 317 424
f 424 416 417
f 424 417 425
f 427 320 319
f 427 319 426
f 427 426 418
f 427 418 419
f 428 420 314
f 428 314 321
f 428 321 320
f 428 320 427
f 428 427 419
f 428 419 420
f 425 322 318
f 425 429 322
f 430 426 319
f 430 319 323
f 323 322 429
f 323 429 430
f 429 425 426
f 429 426 430
f 325 431 324
f 325 432 431
f 435 324 431
f 435 327 324
f 435 326 327
f 435 434 326
f 436 432 325
f 436 325 328
f 329 436 328
f 329 437 436
f 436 433 432
f 436 437 433
f 438 329 330
f 438 437 329
f 440 326 434
f 440 332 326
f 440 331 332
f 440 439 331
f 438 330 334
f 438 334 442
f 441 437 438
f 441 438 442
f 443 334 335
f 443 442 334
f 439 336 331
f 439 444 336
f 443 335 337
f 443 337 446
f 445 442 443
f 445 443 446
f 447 337 338
f 447 446 337
f 449 336 444
f 449 339 336
f 450 445 446
f 450 446 451
f 447 338 341
f 447 341 452
f 451 446 447
f 451 447 452
f 342 452 341
f 342 453 452
f 455 339 449
f 455 343 339
f 455 448 454
f 455 449 448
f 457 451 452
f 457 452 458
f 459 453 342
f 459 342 346
f 459 346 345
f 459 345 458
f 458 452 453
f 458 453 459
f 455 348 343
f 455 461 348
f 461 347 348
f 461 460 347
f 461 454 460
f 461 455 454
f 463 350 349
f 463 349 462
f 465 464 456
f 465 456 457
f 458 345 351
f 458 351 466
f 466 465 457
f 466 457 458
f 467 347 460
f 467 353 347
f 354 353 467
f 354 467 468
f 467 460 461
f 467 461 468
f 462 349 355
f 462 355 469
f 468 461 462
f 468 462 469
f 470 350 463
f 470 356 350
f 472 471 464
f 472 464 465
f 466 351 358
f 466 358 473
f 473 472 465
f 473 465 466
f 468 359 354
f 468 476 359
f 469 355 360
f 469 360 477
f 477 360 359
f 477 359 476
f 470 361 356
f 470 478 361
f 479 362 361
f 479 361 478
f 482 364 363
f 482 363 481
f 482 481 471
f 482 471 472
f 483 473 358
f 483 358 365
f 483 365 364
f 483 364 482
f 483 482 472
f 483 472 473
f 367 484 366
f 367 485 484
f 486 367 368
f 486 485 367
f 486 474 485
f 486 475 474
f 369 486 368
f 369 487 486
f 487 475 486
f 487 476 475
f 488 476 487
f 488 477 476
f 489 362 479
f 489 370 362
f 371 370 489
f 371 489 490
f 489 479 480
f 489 480 490
f 491 481 363
f 491 363 372
f 491 372 371
f 491 371 490
f 491 490 480
f 491 480 481
f 484 375 366
f 484 492 375
f 493 376 375
f 493 375 492
f 493 492 484
f 493 484 485
f 494 377 376
f 494 376 493
f 495 487 369
f 495 369 378
f 378 377 494
f 378 494 495
f 497 492 496
f 497 493 492
f 385 498 384
f 385 499 498
f 498 387 384
f 498 501 387
f 501 386 387
f 501 500 386
f 502 499 385
f 502 385 388
f 502 501 498
f 502 498 499
f 390 503 389
f 390 504 503
f 505 390 391
f 505 504 390
f 500 393 386
f 500 507 393
f 507 392 393
f 507 506 392
f 508 507 500
f 508 500 501
f 502 388 394
f 502 394 509
f 509 508 501
f 509 501 502
f 503 395 389
f 503 510 395
f 510 394 395
f 510 509 394
f 505 391 397
f 505 397 511
f 512 397 398
f 512 511 397
f 506 401 392
f 506 513 401
f 515 514 507
f 515 507 508
f 512 398 403
f 512 403 517
f 516 511 512
f 516 512 517
f 518 403 404
f 518 517 403
f 513 406 401
f 513 519 406
f 520 407 406
f 520 406 519
f 521 516 517
f 521 517 522
f 518 404 409
f 518 409 523
f 522 517 518
f 522 518 523
f 520 411 407
f 520 524 411
f 525 412 411
f 525 411 524
f 527 526 521
f 527 521 522
f 523 409 413
f 523 413 528
f 527 522 523
f 527 523 528
f 525 415 412
f 525 529 415
f 417 416 530
f 417 530 531
f 533 419 418
f 533 418 532
f 534 420 419
f 534 419 533
f 534 533 526
f 534 526 527
f 535 528 413
f 535 413 421
f 535 421 420
f 535 420 534
f 535 534 527
f 535 527 528
f 536 415 529
f 536 423 415
f 537 530 416
f 537 416 424
f 537 424 423
f 537 423 536
f 536 529 530
f 536 530 537
f 538 417 531
f 538 425 417
f 539 532 418
f 539 418 426
f 539 426 425
f 539 425 538
f 432 540 431
f 432 541 540
f 433 541 432
f 433 542 541
f 544 431 540
f 544 435 431
f 435 543 434
f 435 544 543
f 546 542 433
f 546 433 437
f 545 541 542
f 545 542 546
f 543 440 434
f 543 548 440
f 548 439 440
f 548 547 439
f 546 437 441
f 546 441 549
f 550 441 442
f 550 549 441
f 547 444 439
f 547 552 444
f 550 442 445
f 550 445 554
f 553 549 550
f 553 550 554
f 552 449 444
f 552 556 449
f 556 448 449
f 556 555 448
f 556 551 555
f 556 552 551
f 554 445 450
f 554 450 559
f 558 553 554
f 558 554 559
f 560 450 451
f 560 559 450
f 561 448 555
f 561 454 448
f 561 555 556
f 561 556 562
f 564 563 557
f 564 557 558
f 564 558 559
f 564 559 565
f 560 451 457
f 560 457 566
f 566 457 456
f 566 456 565
f 566 565 559
f 566 559 560
f 561 460 454
f 561 567 460
f 568 461 460
f 568 460 567
f 567 561 562
f 567 562 568
f 569 462 461
f 569 461 568
f 570 463 462
f 570 462 569
f 572 565 456
f 572 456 464
f 573 568 567
f 573 574 568
f 575 468 469
f 575 574 468
f 574 569 568
f 574 575 569
f 570 470 463
f 570 576 470
f 575 570 569
f 575 576 570
f 572 464 471
f 572 471 579
f 579 578 571
f 579 571 572
f 475 580 474
f 475 581 580
f 574 476 468
f 574 582 476
f 582 475 476
f 582 581 475
f 575 469 477
f 575 477 583
f 576 478 470
f 576 584 478
f 583 576 575
f 583 584 576
f 585 479 478
f 585 478 584
f 586 480 479
f 586 479 585
f 586 585 577
f 586 577 578
f 587 579 471
f 587 471 481
f 587 481 480
f 587 480 586
f 587 586 578
f 587 578 579
f 588 474 580
f 588 485 474
f 589 588 580
f 589 580 581
f 589 581 582
f 589 582 590
f 583 477 488
f 583 488 591
f 488 487 590
f 488 590 591
f 592 583 591
f 592 584 583
f 594 485 588
f 594 493 485
f 493 593 492
f 493 594 593
f 494 493 594
f 494 594 595
f 595 594 588
f 595 588 589
f 596 590 487
f 596 487 495
f 495 494 595
f 495 595 596
f 596 595 589
f 596 589 590
f 593 496 492
f 593 597 496
f 598 594 493
f 598 493 497
f 497 496 597
f 497 597 598
f 598 597 593
f 598 593 594
f 504 601 503
f 504 602 601
f 505 602 504
f 505 603 602
f 603 599 602
f 603 600 599
f 605 506 507
f 605 604 506
f 607 508 509
f 607 606 508
f 601 510 503
f 601 608 510
f 510 607 509
f 510 608 607
f 609 603 505
f 609 505 511
f 604 513 506
f 604 611 513
f 605 507 514
f 605 514 612
f 611 604 605
f 611 605 612
f 606 515 508
f 606 613 515
f 613 514 515
f 613 612 514
f 609 511 516
f 609 516 614
f 614 610 609
f 614 615 610
f 611 519 513
f 611 616 519
f 520 519 616
f 520 616 617
f 616 611 612
f 616 612 617
f 618 617 612
f 618 612 613
f 614 516 521
f 614 521 619
f 617 524 520
f 617 620 524
f 621 525 524
f 621 524 620
f 619 521 526
f 619 526 624
f 626 525 621
f 626 529 525
f 625 621 620
f 625 626 621
f 627 530 529
f 627 529 626
f 531 530 627
f 531 627 628
f 629 628 622
f 629 622 623
f 630 624 526
f 630 526 533
f 630 533 532
f 630 532 629
f 630 629 623
f 630 623 624
f 631 531 628
f 631 538 531
f 632 629 532
f 632 532 539
f 539 538 631
f 539 631 632
f 631 628 629
f 631 629 632
f 541 633 540
f 541 634 633
f 633 544 540
f 633 637 544
f 544 636 543
f 544 637 636
f 634 541 545
f 634 545 638
f 638 637 633
f 638 633 634
f 639 545 546
f 639 638 545
f 638 635 634
f 638 639 635
f 636 548 543
f 636 641 548
f 548 640 547
f 548 641 640
f 642 641 636
f 642 636 637
f 643 642 637
f 643 637 638
f 644 639 546
f 644 546 549
f 646 547 640
f 646 552 547
f 552 645 551
f 552 646 645
f 647 646 640
f 647 640 641
f 644 549 553
f 644 553 650
f 649 643 644
f 649 644 650
f 651 551 645
f 651 555 551
f 556 555 651
f 556 651 652
f 652 651 645
f 652 645 646
f 653 652 646
f 653 646 647
f 655 654 648
f 655 648 649
f 656 650 553
f 656 553 558
f 656 558 557
f 656 557 655
f 656 655 649
f 656 649 650
f 652 562 556
f 652 657 562
f 658 657 652
f 658 652 653
f 655 557 563
f 655 563 660
f 660 659 654
f 660 654 655
f 661 563 564
f 661 660 563
f 662 564 565
f 662 661 564
f 664 562 657
f 664 568 562
f 568 663 567
f 568 664 663
f 666 665 659
f 666 659 660
f 666 660 661
f 666 661 667
f 662 565 572
f 662 572 668
f 668 572 571
f 668 571 667
f 668 667 661
f 668 661 662
f 663 573 567
f 663 669 573
f 670 574 573
f 670 573 669
f 670 669 663
f 670 663 664
f 674 667 571
f 674 571 578
f 674 578 577
f 674 577 673
f 670 582 574
f 670 675 582
f 677 676 671
f 677 671 672
f 678 673 577
f 678 577 585
f 678 585 584
f 678 584 677
f 678 677 672
f 678 672 673
f 679 582 675
f 679 590 582
f 591 590 679
f 591 679 680
f 680 679 675
f 680 675 676
f 677 584 592
f 677 592 681
f 592 591 680
f 592 680 681
f 681 680 676
f 681 676 677
f 684 599 600
f 684 683 599
f 688 599 683
f 688 602 599
f 688 601 602
f 688 687 601
f 688 682 687
f 688 683 682
f 689 684 600
f 689 600 603
f 692 606 607
f 692 691 606
f 692 685 691
f 692 686 685
f 693 601 687
f 693 608 601
f 693 607 608
f 693 692 607
f 693 686 692
f 693 687 686
f 694 689 603
f 694 603 609
f 610 694 609
f 610 695 694
f 694 690 689
f 694 695 690
f 696 606 691
f 696 613 606
f 698 695 610
f 698 610 615
f 615 614 697
f 615 697 698
f 696 618 613
f 696 700 618
f 618 699 617
f 618 700 699
f 697 614 619
f 697 619 704
f 699 620 617
f 699 705 620
f 706 705 699
f 706 699 700
f 706 700 701
f 706 701 707
f 707 701 702
f 707 702 708
f 709 623 622
f 709 622 708
f 710 704 619
f 710 619 624
f 710 624 623
f 710 623 709
f 710 709 703
f 710 703 704
f 705 625 620
f 705 711 625
f 712 626 625
f 712 625 711
f 711 705 706
f 711 706 712
f 713 627 626
f 713 626 712
f 712 706 707
f 712 707 713
f 714 708 622
f 714 622 628
f 714 628 627
f 714 627 713
f 714 713 707
f 714 707 708
f 635 715 634
f 635 716 715
f 715 638 634
f 715 717 638
f 718 716 635
f 718 635 639
f 718 717 715
f 718 715 716
f 642 719 641
f 642 720 719
f 717 643 638
f 717 721 643
f 721 642 643
f 721 720 642
f 722 718 639
f 722 639 644
f 722 644 643
f 722 643 721
f 722 721 717
f 722 717 718
f 719 647 641
f 719 723 647
f 724 723 719
f 724 719 720
f 725 721 643
f 725 643 649
f 725 649 648
f 725 648 724
f 725 724 720
f 725 720 721
f 726 647 723
f 726 653 647
f 727 724 648
f 727 648 654
f 726 658 653
f 726 729 658
f 658 728 657
f 658 729 728
f 730 727 654
f 730 654 659
f 728 664 657
f 728 731 664
f 732 731 728
f 732 728 729
f 730 659 665
f 730 665 733
f 732 729 730
f 732 730 733
f 734 665 666
f 734 733 665
f 735 666 667
f 735 734 666
f 731 670 664
f 731 736 670
f 736 731 732
f 736 732 737
f 738 672 671
f 738 671 737
f 738 737 732
f 738 732 733
f 739 673 672
f 739 672 738
f 738 733 734
f 738 734 739
f 735 667 674
f 735 674 740
f 740 674 673
f 740 673 739
f 739 734 735
f 739 735 740
f 741 670 736
f 741 675 670
f 742 737 671
f 742 671 676
f 676 675 741
f 676 741 742
f 742 741 736
f 742 736 737
f 744 682 683
f 744 743 682
f 745 683 684
f 745 744 683
f 747 685 686
f 747 746 685
f 748 682 743
f 748 687 682
f 687 747 686
f 687 748 747
f 749 748 743
f 749 743 744
f 745 684 689
f 745 689 750
f 749 744 745
f 749 745 750
f 751 689 690
f 751 750 689
f 752 685 746
f 752 691 685
f 753 752 746
f 753 746 747
f 754 753 747
f 754 747 748
f 757 751 690
f 757 690 695
f 756 750 751
f 756 751 757
f 758 691 752
f 758 696 691
f 759 758 752
f 759 752 753
f 759 753 754
f 759 754 760
f 762 761 755
f 762 755 756
f 763 757 695
f 763 695 698
f 763 698 697
f 763 697 762
f 763 762 756
f 763 756 757
f 764 696 758
f 764 700 696
f 701 700 764
f 701 764 765
f 764 758 759
f 764 759 765
f 702 701 765
f 702 765 766
f 765 759 760
f 765 760 766
f 766 760 761
f 766 761 767
f 768 762 697
f 768 697 704
f 768 704 703
f 768 703 767
f 768 767 761
f 768 761 762
f 769 702 766
f 769 708 702
f 770 767 703
f 770 703 709
f 709 708 769
f 709 769 770
f 770 769 766
f 770 766 767
f 772 723 724
f 772 771 723
f 771 726 723
f 771 773 726
f 772 724 727
f 772 727 774
f 773 771 772
f 773 772 774
f 775 726 773
f 775 729 726
f 776 774 727
f 776 727 730
f 730 729 775
f 730 775 776
f 775 773 774
f 775 774 776
f 749 777 748
f 749 778 777
f 779 749 750
f 779 778 749
f 777 754 748
f 777 780 754
f 781 780 777
f 781 777 778
f 779 750 756
f 779 756 782
f 782 756 755
f 782 755 781
f 782 781 778
f 782 778 779
f 783 754 780
f 783 760 754
f 784 781 755
f 784 755 761
f 784 761 760
f 784 760 783
f 786 780 781
f 786 785 780
f 785 783 780
f 785 787 783
f 786 781 784
f 786 784 788
f 784 783 787
f 784 787 788
f 787 785 786
f 787 786 788
