# parsimony mesh: cplx_CPLX0-8191 (source /Users/eranagmon/code/v2e-cplx/workspace/studies/ecoli-3d/viz/3d/structures/cplx_CPLX0-8191.pdb)
# atoms: 5770  voxel: 8 Å  verts: 821  tris: 1696
v 76.5162 -68.9843 -48.0892
v 77.6545 -68.9843 -48.0892
v 69.0650 -60.6045 -47.7576
v 73.5503 -63.7706 -48.3794
v 78.3587 -64.5197 -48.5112
v 69.0650 -60.4497 -47.7576
v 73.1015 -59.6747 -48.2625
v 78.2249 -59.4630 -48.3994
v -59.2513 66.9369 -47.9988
v -56.9186 66.9369 -47.9988
v -60.1030 71.4803 -48.5630
v -56.2865 71.4803 -48.5630
v -60.1516 76.2602 -48.5588
v -57.3957 76.2602 -48.5588
v 76.2706 -69.5059 -43.7105
v 80.6333 -70.7623 -43.1192
v 86.8930 -70.9424 -40.0584
v 69.0650 -60.6045 -47.2753
v 72.0886 -63.7706 -44.2493
v 82.3587 -64.5197 -44.7250
v 86.8892 -64.5197 -40.7250
v 69.0650 -60.4497 -47.2753
v 72.7533 -59.3520 -44.2493
v 80.9755 -58.9542 -43.5133
v 85.6937 -59.7866 -40.7152
v -51.4451 58.9955 -40.2686
v -46.8985 58.9480 -40.1733
v -42.7195 59.2553 -39.7694
v -59.6871 66.2684 -43.7105
v -54.1819 64.0057 -43.8357
v -46.9323 62.8121 -41.4962
v -42.7195 59.6999 -39.7694
v -60.2813 71.6752 -43.3980
v -54.3715 72.7624 -43.6178
v -49.6766 71.4803 -41.9388
v -60.1516 76.2602 -45.8564
v -54.6069 75.9949 -43.0895
v -50.5462 75.7297 -40.3225
v 83.4950 -78.7056 -34.2997
v 89.1015 -79.4206 -34.8907
v 97.1015 -78.2226 -33.0283
v 101.1853 -77.1082 -31.8165
v 76.6423 -69.4541 -35.7105
v 80.9376 -73.9208 -36.4640
v 89.3764 -73.1733 -38.9009
v 96.9121 -73.2384 -34.2110
v 101.1853 -76.3842 -31.8165
v 68.9471 -60.6399 -32.6015
v 73.7627 -63.0301 -34.1573
v 81.1015 -62.3244 -32.9472
v 88.9600 -64.4837 -36.2566
v 94.1191 -67.2823 -34.1210
v 61.0764 -52.5441 -31.7241
v 65.8089 -55.7343 -32.8290
v 73.9924 -58.1096 -34.8468
v 79.8084 -57.4512 -35.0797
v 85.6937 -59.7866 -38.3923
v 61.0764 -52.4829 -31.7241
v 65.5526 -49.2976 -32.5270
v 73.1015 -48.5197 -34.2277
v 80.8912 -48.3934 -33.4017
v 85.8066 -45.6425 -32.5202
v 60.5317 -37.4218 -32.6558
v 65.5526 -40.2610 -32.5523
v 73.1015 -40.5197 -33.7410
v 81.7834 -39.8102 -33.5460
v 85.8066 -42.0039 -32.5202
v 60.5317 -35.9663 -32.6558
v 65.1015 -36.0603 -32.4720
v 73.1015 -34.6029 -32.6029
v 79.5713 -34.0231 -32.8302
v -51.4488 50.8318 -32.6577
v -46.8985 50.8453 -32.7548
v -38.8985 50.4203 -32.6952
v -33.9196 50.2651 -32.5782
v -52.3778 55.9894 -35.4788
v -46.8985 54.9480 -36.7548
v -38.8908 56.6219 -35.0336
v -33.9196 53.9885 -32.5782
v -59.5971 66.4079 -38.4032
v -55.8745 63.6368 -35.7261
v -44.2883 65.0332 -37.6463
v -41.0026 62.8121 -35.2720
v -60.1754 71.5059 -36.0191
v -55.2558 72.5479 -35.0219
v -47.4172 71.3022 -35.3369
v -42.4207 67.9723 -32.3130
v -60.6950 79.4803 -33.3221
v -54.6436 77.8729 -35.4816
v -50.5462 75.7297 -38.3609
v -67.8265 90.3584 -32.1842
v -62.4225 87.6072 -32.6505
v -55.3253 87.3646 -32.9717
v -49.8572 89.9541 -32.7195
v -67.8265 92.3747 -32.1842
v -62.5477 95.2169 -32.7932
v -54.8985 95.4803 -34.6166
v -47.0737 95.6169 -33.6075
v -42.2580 98.3747 -32.3283
v -59.6472 100.0153 -32.1728
v -54.8985 100.3844 -33.2084
v -46.8985 100.4853 -33.3250
v -42.2580 100.1499 -32.3283
v 100.0697 -92.6953 -23.9630
v 101.3370 -92.6953 -23.9630
v 84.9489 -84.8225 -24.8591
v 89.1015 -86.1555 -25.7277
v 97.2825 -88.8467 -25.9519
v 102.0342 -88.5197 -25.3564
v 83.5329 -81.0312 -27.5996
v 89.1015 -83.4206 -29.7277
v 97.1015 -82.2226 -30.3228
v 102.1336 -80.0728 -28.0756
v 77.0117 -68.9153 -31.3866
v 79.5002 -71.9570 -28.3162
v 98.0998 -71.8862 -27.7105
v 101.6355 -75.8862 -27.7105
v 68.9263 -60.6287 -27.7105
v 73.3243 -63.3995 -29.2860
v 80.5598 -64.3895 -28.3242
v 89.5242 -63.0067 -27.8412
v 94.0998 -66.7543 -27.7105
v 60.0122 -53.2965 -27.7105
v 64.9263 -57.2965 -27.7105
v 74.8430 -57.1553 -27.1711
v 80.4880 -56.9339 -27.3699
v 87.1393 -58.9554 -25.2617
v 59.2005 -49.2976 -27.0811
v 64.9733 -46.6059 -27.5260
v 73.9709 -48.8751 -24.9344
v 80.8912 -50.4087 -27.1711
v 86.6745 -46.5049 -27.7105
v 59.9586 -40.5300 -26.9473
v 64.0053 -41.5274 -27.8500
v 72.2855 -40.5197 -27.1344
v 84.9046 -36.6705 -31.5894
v 88.8168 -39.4327 -28.7062
v 93.2130 -36.8616 -25.8231
v 60.5317 -35.9663 -29.8997
v 65.1015 -36.0603 -30.2663
v 73.6899 -32.5752 -28.9060
v 81.7834 -31.8217 -30.1879
v 88.4436 -33.1379 -26.7519
v 93.2130 -36.2168 -25.8231
v 69.0434 -20.6666 -23.7859
v 73.3281 -23.8079 -25.4221
v 80.4969 -25.2472 -25.6233
v 85.3383 -28.3989 -24.1213
v 69.0434 -20.4269 -23.7859
v 73.1015 -20.2900 -23.9705
v 77.4271 -20.3062 -23.9818
v -43.6613 42.9324 -24.0851
v -38.8985 42.7616 -24.4220
v -34.1807 43.0699 -24.2846
v -51.3665 50.8084 -27.7105
v -46.5562 47.6239 -27.1352
v -38.8985 46.4203 -28.4220
v -32.4400 47.5512 -27.2550
v -52.0940 56.2092 -26.9168
v -50.8803 59.3618 -23.7211
v -35.0621 59.3218 -30.5764
v -32.7544 56.1852 -27.8301
v -52.6825 62.7016 -26.9168
v -50.8803 59.5159 -23.7211
v -37.2352 62.8075 -27.8301
v -34.7048 59.6924 -25.2431
v -68.9667 74.6484 -25.4698
v -63.2116 73.3828 -27.9660
v -54.0610 71.6893 -29.0630
v -46.8985 73.2132 -29.8431
v -41.4599 70.9755 -27.5230
v -75.9804 81.3914 -24.8921
v -71.3394 79.0269 -26.1830
v -62.9295 80.5999 -28.2172
v -54.8080 79.4660 -28.4100
v -46.8985 77.9060 -25.8431
v -42.1032 77.3556 -24.7313
v -76.5440 87.4803 -25.7135
v -69.7392 88.3816 -27.8515
v -63.7298 86.3816 -28.2929
v -55.2572 87.2090 -28.3011
v -47.0737 88.4332 -27.5433
v -42.2266 89.6109 -24.7652
v -76.0107 92.6243 -25.1996
v -70.6861 92.4995 -28.0511
v -62.3356 95.3351 -28.1089
v -57.5712 92.9621 -25.3154
v -44.5238 93.0414 -30.0985
v -41.6460 95.6169 -27.5433
v -60.2629 103.0013 -27.4640
v -54.6611 104.5231 -27.4640
v -46.8985 102.5555 -27.7105
v -41.8368 100.6532 -27.7105
v -59.6317 109.2309 -24.6331
v -57.1696 109.2309 -24.6331
v 91.7940 -93.0612 -17.4604
v 97.1994 -92.8782 -20.2921
v 101.3370 -92.6953 -23.1238
v 84.1115 -85.6930 -19.7105
v 89.1170 -89.7853 -19.9604
v 97.1994 -91.4308 -20.2921
v 102.3398 -88.4861 -20.1585
v 82.1233 -80.5197 -19.7105
v 99.2225 -77.9839 -17.3193
v 102.5754 -80.5983 -19.8758
v 81.4797 -72.5197 -19.7105
v 91.2099 -70.5343 -17.9577
v 96.3187 -73.1724 -20.3051
v 101.7297 -75.8105 -22.6526
v 69.0223 -60.5449 -23.6505
v 69.4220 -60.5449 -23.6505
v 81.7515 -64.5197 -19.7105
v 90.1017 -64.6499 -20.2588
v 93.4150 -67.4033 -23.2910
v 59.6743 -53.5311 -21.8507
v 65.8540 -56.3266 -21.6868
v 71.0614 -56.5197 -22.5756
v 83.3851 -59.2640 -19.7105
v 86.7705 -59.2640 -19.7105
v 58.7441 -48.5197 -21.6758
v 65.6308 -47.5118 -19.4485
v 72.7536 -48.3415 -20.4659
v 81.1015 -48.0434 -19.7105
v 87.1546 -46.3840 -19.7105
v 60.0565 -40.7822 -20.0032
v 63.6308 -41.7166 -19.6251
v 72.2855 -40.5197 -21.1006
v 91.4221 -39.9249 -19.5085
v 93.2130 -36.8616 -22.0405
v 60.7275 -34.9967 -17.1492
v 65.1719 -32.4059 -17.4615
v 71.9841 -32.5197 -20.8202
v 91.0593 -33.1379 -19.5085
v 93.2130 -36.2168 -22.0405
v 68.4644 -24.3643 -19.8446
v 72.1205 -24.4082 -20.1222
v 80.4969 -23.7391 -20.1259
v 86.7011 -27.5061 -19.7105
v 69.0434 -20.4269 -23.5516
v 73.1015 -20.2900 -23.1106
v 77.4271 -20.3062 -23.0696
v -44.7653 42.2617 -19.7105
v -38.8985 41.6071 -19.7105
v -33.9825 42.8257 -19.7105
v -51.6673 50.0332 -19.7105
v -48.7653 46.0332 -19.7105
v -31.5226 47.4803 -19.7105
v -52.0772 56.2092 -20.5031
v -50.8803 59.3618 -23.6981
v -36.5390 57.3582 -18.2218
v -32.8143 55.0070 -20.4173
v -51.6482 62.9149 -20.6286
v -48.6050 63.3425 -20.1851
v -39.1564 63.3242 -19.9350
v -34.7048 59.6924 -23.5551
v -68.9667 74.6484 -21.4589
v -62.8985 74.0636 -21.3683
v -54.4345 71.6461 -22.3472
v -46.8985 71.4803 -20.1662
v -41.4585 71.4803 -21.2168
v -75.9804 81.3914 -21.9958
v -71.0050 78.9964 -19.0607
v -63.5570 79.3470 -19.4823
v -54.8985 77.4588 -22.6199
v -46.8985 77.9060 -22.3264
v -42.1032 77.3556 -22.4479
v -76.5441 87.4803 -21.2634
v -70.6278 87.0496 -19.4124
v -63.6480 87.2747 -18.5944
v -54.9021 89.1163 -19.7479
v -46.8985 87.5843 -19.7105
v -42.3040 89.8256 -19.7105
v -76.0107 92.6243 -22.1624
v -71.1051 95.2575 -19.3423
v -62.8437 95.4264 -19.4809
v -57.5712 92.9621 -22.4396
v -40.7451 95.4803 -19.7105
v -68.6646 100.5958 -16.5222
v -63.4978 103.3496 -19.3975
v -51.8362 106.6796 -22.8540
v -46.5269 105.4987 -19.9966
v -41.3396 101.6038 -19.7105
v -60.0535 109.1905 -19.7105
v -54.6611 109.2893 -19.9966
v -48.9458 108.2150 -17.5207
v 90.9583 -92.9642 -11.7105
v 94.0845 -92.9642 -11.7105
v 76.6408 -85.9849 -8.5105
v 81.2011 -87.6846 -11.3905
v 86.9583 -91.3769 -11.7105
v 98.0142 -88.4861 -11.4959
v 101.9218 -85.7970 -14.0196
v 75.5606 -80.5197 -9.6097
v 78.8792 -80.5197 -13.6097
v 97.7505 -80.5983 -11.4959
v 101.9218 -83.3173 -14.0196
v 75.6979 -72.5197 -9.2245
v 79.2765 -72.5197 -13.2244
v 89.8332 -71.9697 -11.7105
v 93.7548 -75.9697 -11.7105
v 76.8237 -68.3633 -7.9968
v 82.0766 -65.7047 -11.8164
v 85.7994 -65.2355 -12.4658
v 85.0227 -60.4097 -15.6361
v 85.2891 -60.4097 -15.6361
v 67.2715 -45.4315 -11.7105
v 73.1015 -45.8785 -11.7105
v 81.1015 -46.6006 -11.7105
v 89.1087 -45.8355 -10.9370
v 93.1230 -44.5341 -7.7548
v 60.5155 -38.4564 -11.7105
v 63.2715 -42.4564 -11.7105
v 91.9581 -40.5197 -13.3136
v 93.3495 -40.5197 -9.3136
v 60.2492 -32.4059 -11.9094
v 62.5522 -29.6634 -14.7087
v 76.2936 -29.2108 -8.4309
v 79.1941 -29.2108 -8.4309
v 91.1125 -32.8180 -12.1664
v 93.4107 -35.6835 -9.8037
v 60.4622 -27.7778 -9.3754
v 65.1719 -27.2624 -11.9094
v 73.4168 -26.9378 -11.3427
v 81.5571 -26.9611 -11.3427
v 86.7676 -27.5335 -11.7105
v -52.7540 42.8095 -9.2781
v -47.1342 42.0178 -11.8511
v -38.6752 42.1429 -11.8450
v -34.3949 43.0179 -14.6013
v -59.1795 50.5749 -7.9618
v -54.9686 47.5199 -11.2866
v -49.9580 44.4648 -14.6114
v -35.8596 44.8533 -9.2680
v -33.8117 47.5041 -11.8450
v -59.6623 55.4803 -8.3471
v -56.3166 55.4803 -12.3471
v -43.5102 58.6135 -8.3361
v -39.0828 56.3538 -11.2859
v -33.9177 52.2223 -11.7105
v -59.6359 60.1368 -8.3080
v -54.6621 61.5719 -11.2690
v -46.4655 62.4635 -11.2859
v -41.8724 61.6228 -13.6695
v -67.7100 81.9348 -15.3791
v -66.5387 81.9348 -15.3791
v -67.9384 87.5556 -12.3749
v -64.4254 87.8828 -13.2088
v -54.8985 87.4297 -11.7105
v -46.8985 87.6152 -11.7105
v -41.1541 90.3578 -11.7105
v -75.6404 98.1053 -9.6308
v -71.0824 95.3314 -12.1674
v -65.9968 92.5574 -14.7041
v -39.5179 95.4803 -11.7105
v -75.6404 100.5675 -9.6308
v -70.9499 103.2483 -11.9407
v -62.5462 106.1696 -11.7711
v -54.8985 105.7851 -9.8629
v -46.5269 105.1728 -11.6837
v -41.2622 101.4884 -11.7105
v -67.9019 108.2310 -8.9173
v -62.5462 108.1205 -11.7711
v -54.8985 108.4286 -13.8629
v -48.9458 108.2150 -14.3325
v 91.5514 -92.5709 -7.6358
v 93.1847 -92.5709 -7.6358
v 68.6216 -84.8018 -0.1075
v 73.6251 -87.0450 -3.1487
v 81.1015 -91.2731 -3.7105
v 88.6777 -89.7253 -4.7141
v 94.3218 -88.5197 -7.2158
v 67.7056 -80.5197 -1.1023
v 71.5606 -80.5197 -5.1023
v 90.1934 -80.5197 -3.2296
v 94.3220 -80.5197 -7.2296
v 67.7203 -74.2172 -1.1693
v 71.4200 -71.9382 -3.7857
v 84.3952 -69.0804 -1.4499
v 88.2451 -72.7595 -4.5520
v 93.1850 -76.4385 -7.6541
v 75.1950 -67.8616 -3.7105
v 81.4778 -67.9090 -3.9541
v 85.3020 -68.3794 -6.7832
v 68.2418 -44.6324 -7.3578
v 73.2177 -45.1266 -4.2988
v 81.2021 -45.7891 -3.6722
v 89.3720 -45.4079 -3.6722
v 93.2609 -44.7172 -3.7105
v 60.7535 -37.4710 -3.7105
v 65.3857 -41.1024 -4.2988
v 70.6285 -42.8892 -2.0244
v 83.9358 -42.9529 -0.9801
v 88.9680 -40.8370 -1.4377
v 93.4146 -41.0405 -4.2214
v 60.4395 -33.2955 -4.1732
v 65.1015 -31.5349 -2.2431
v 73.4168 -30.8561 -3.6738
v 81.5571 -31.2907 -4.4229
v 88.2386 -33.1607 -4.7300
v 93.4107 -35.6835 -7.2287
v 60.4622 -27.7778 -7.1483
v 65.1015 -27.2914 -6.2431
v 70.9603 -27.6238 -6.3161
v 84.5274 -28.4354 -7.5646
v 85.4268 -28.4354 -7.5646
v -54.0638 41.4656 -3.7105
v -47.1136 41.4547 -3.9273
v -41.1930 42.7906 -6.7386
v -67.8791 50.5145 -0.7845
v -62.2671 48.9322 -3.5549
v -58.0638 45.0195 -3.7105
v -45.0901 47.4803 -2.1602
v -38.6752 47.5041 -6.2745
v -34.4697 50.1867 -7.3842
v -68.2553 55.4803 -1.3565
v -63.6623 55.4803 -5.3565
v -44.9653 55.7602 -3.8534
v -38.8985 53.1638 -6.6444
v -34.4697 51.9250 -7.3842
v -67.7269 60.5047 -0.8312
v -62.5409 61.3192 -3.5829
v -54.8985 63.3089 -3.7105
v -48.5593 61.7785 -3.7105
v -69.6753 90.6338 -3.7105
v -62.8985 89.2050 -3.7105
v -54.8985 88.2733 -3.7105
v -47.5761 89.3619 -3.1163
v -40.6935 90.3206 -5.3869
v -75.6404 98.1053 -6.3411
v -72.4067 95.4553 -3.6888
v -46.3570 95.4803 -1.3679
v -40.5860 95.4803 -5.3679
v -75.6404 100.5675 -6.3411
v -70.1391 102.7193 -4.0093
v -62.7916 103.8639 -4.0907
v -54.8985 102.2859 -3.7105
v -47.3876 101.0199 -4.0306
v -42.0201 100.2206 -6.9106
v -67.9019 108.2310 -7.0109
v -65.3871 108.2310 -7.0109
v 60.6891 -84.5883 8.2213
v 65.6135 -85.3038 5.0486
v 73.1015 -88.0741 4.2895
v 81.1015 -89.1128 4.2895
v 85.6473 -86.4870 4.2895
v 59.9799 -80.5197 7.1275
v 63.7056 -80.5197 3.1275
v 83.3531 -79.0918 7.0189
v 85.9902 -81.2630 4.3272
v 12.5280 -69.3036 7.9963
v 14.1161 -69.3036 7.9963
v 60.0185 -74.8314 6.8084
v 65.2293 -71.8576 3.9113
v 72.2454 -69.6863 3.7904
v 81.2075 -72.4512 4.1261
v 85.8548 -74.4138 1.6856
v 12.5280 -67.6733 7.9963
v 14.1161 -67.6733 7.9963
v 68.0717 -67.9361 6.3474
v 72.2454 -67.8674 3.7904
v 79.0619 -67.7987 1.2334
v 75.9619 -45.2002 0.8193
v 78.6024 -45.2002 0.8193
v 92.2191 -44.7686 0.5040
v 93.2926 -44.7686 0.5040
v 61.0449 -36.6125 0.3127
v 65.1015 -37.3664 1.0057
v 73.2177 -40.3414 1.3651
v 81.2021 -40.3797 1.0281
v 88.9680 -40.8370 0.5818
v 93.2926 -44.0544 0.5040
v 61.0449 -36.4794 0.3127
v 65.1015 -35.5349 1.0057
v 73.1015 -34.9219 1.2366
v 81.1015 -35.4651 0.8154
v 85.7170 -35.9712 0.6596
v -67.4592 43.1598 7.7545
v -65.7788 43.1598 7.7545
v -53.7261 41.5488 4.2895
v -49.7137 41.5488 4.2895
v -69.1767 47.7008 4.7685
v -63.0266 45.3063 4.7685
v -57.7261 44.4871 4.2895
v -47.9300 47.4803 4.2895
v -115.0669 59.4090 8.2331
v -114.7820 59.4090 8.2331
v -71.1968 55.4803 4.2895
v -52.1673 58.3092 7.0508
v -48.8331 55.5776 4.3463
v -123.1389 66.9417 8.0950
v -118.6753 63.3095 8.1641
v -114.7820 59.6774 8.2331
v -68.9509 63.2949 4.4670
v -63.0983 64.7363 4.4670
v -54.8598 61.9627 4.3463
v -49.8345 61.2154 1.7175
v -123.1389 67.8027 8.0950
v -122.2837 67.8027 8.0950
v -67.8244 68.2348 7.2520
v -65.8982 68.2348 7.2520
v -69.3326 91.1475 0.6637
v -62.8985 90.3962 1.1587
v -54.8985 90.6311 0.8853
v -50.6946 91.4608 0.2991
v -68.8325 95.4803 0.6165
v -62.8985 95.4803 1.2855
v -54.8985 95.4803 1.1624
v -50.3570 95.4803 0.4935
v -67.0430 99.5378 0.3513
v -62.8985 99.7625 0.4163
v -54.8985 99.9811 0.5667
v -50.3803 99.8293 0.5518
v 52.9309 -84.6676 15.3810
v 57.6541 -85.0288 12.5444
v 65.1015 -86.4298 12.2895
v 73.1015 -86.8736 12.2895
v 80.5435 -85.3510 11.5207
v 85.1267 -84.6129 8.3414
v 19.8144 -76.7691 15.8075
v 21.9987 -76.7691 15.8075
v 51.4795 -80.5197 14.7218
v 55.9799 -80.5197 10.7218
v 81.5782 -81.2630 11.5207
v 85.1267 -84.4251 8.3414
v 11.8777 -70.6432 12.2895
v 16.9652 -72.6021 12.7531
v 22.2130 -72.5197 14.9849
v 51.2894 -72.5197 15.1446
v 57.2517 -72.3067 11.1460
v 62.7384 -69.4981 9.2435
v 74.4165 -71.5661 12.2895
v 78.3949 -75.5661 12.2895
v 11.8039 -64.8119 12.5188
v 16.7157 -64.9296 12.5185
v 21.6863 -67.5191 15.0321
v 52.6775 -68.2198 15.9448
v 57.1015 -67.4715 14.7465
v 65.9018 -65.0124 12.7458
v 70.1657 -64.9695 13.0647
v 12.5706 -60.1373 15.3383
v 13.9820 -60.1373 15.3383
v 69.0653 -60.5054 16.2482
v 69.1218 -60.5054 16.2482
v -67.4592 43.1598 10.0578
v -65.7788 43.1598 10.0578
v -52.3037 42.9204 8.9971
v -50.2936 42.9204 8.9971
v -76.7063 49.4744 14.0637
v -70.9733 46.7030 12.0607
v -63.0266 45.2845 12.5505
v -54.4665 47.4248 12.4771
v -49.7384 47.4803 10.5710
v -116.5653 58.4742 12.2895
v -113.6129 58.4742 12.2895
v -83.6576 58.0048 15.7761
v -79.1831 55.3950 13.6244
v -73.8400 55.4803 9.3432
v -51.7317 55.2138 12.9683
v -50.2268 55.2138 12.9683
v -123.3295 65.8850 12.2895
v -119.0160 63.2246 11.0996
v -113.2733 62.7985 12.2236
v -83.6576 60.1571 15.7761
v -78.8985 61.4034 14.6275
v -72.7469 63.8127 12.0679
v -60.7754 65.5991 12.2895
v -54.8598 61.4111 12.5034
v -50.4970 59.8734 15.3127
v -123.3295 68.2530 12.2895
v -119.3296 68.7083 12.2236
v -113.9040 68.4967 14.8464
v -68.9592 68.8745 12.2895
v -64.7754 68.8745 12.2895
v 44.7214 -84.7773 24.0656
v 49.7992 -84.7957 20.9552
v 57.1015 -85.2863 20.2895
v 65.1015 -85.8964 20.2895
v 72.4184 -85.2809 19.6871
v 77.5048 -84.7726 16.6188
v 19.3461 -77.5174 20.2895
v 24.8399 -77.5134 20.5204
v 33.1015 -77.4830 23.2260
v 41.6734 -80.2948 22.7416
v 47.4795 -80.5197 18.7067
v 73.6440 -80.5197 20.8542
v 78.0087 -80.5197 16.8542
v 12.1137 -70.4594 20.2895
v 15.3461 -74.4594 20.2895
v 26.2130 -72.5197 19.5441
v 32.3351 -72.9963 23.4115
v 41.1015 -74.2493 22.5225
v 46.9942 -71.8269 19.9576
v 73.5725 -72.9755 19.7437
v 77.9078 -75.9460 16.7131
v 11.9927 -65.0358 19.8967
v 16.8298 -63.4862 19.8967
v 24.6524 -66.9476 21.0623
v 29.1574 -68.4821 24.2442
v 50.9614 -67.2169 20.2895
v 57.1015 -65.0302 20.2895
v 65.8798 -63.1643 19.5236
v 70.0675 -64.9137 19.5236
v 12.5706 -60.1373 16.9681
v 13.9820 -60.1373 16.9681
v 69.0653 -60.5054 16.3462
v 69.1218 -60.5054 16.3462
v -91.6723 50.5281 23.6591
v -86.8985 49.9213 22.3675
v -79.1831 48.5310 19.9301
v -70.8985 46.4513 20.2895
v -62.7859 49.0330 20.5612
v -56.6294 50.3178 18.0756
v -116.9659 57.9867 20.2895
v -110.7399 57.0985 20.0442
v -102.8985 57.3304 22.5166
v -94.5628 55.7472 23.0790
v -86.5540 55.3950 19.0925
v -82.0396 52.6715 17.0239
v -61.1946 55.4803 22.3963
v -54.3370 55.0631 18.2229
v -50.4970 57.4517 16.7028
v -123.2327 65.8919 16.8809
v -119.9446 63.3272 19.8444
v -109.7936 63.6821 20.0442
v -102.8985 61.1576 22.5166
v -94.8985 60.2524 23.2491
v -86.5540 61.1250 20.6302
v -78.8319 65.1797 20.2071
v -74.0535 66.7009 17.4854
v -60.9305 63.7644 20.1033
v -54.8985 61.1302 17.3667
v -50.4970 59.8734 16.7028
v -123.2327 68.1882 16.8809
v -118.2907 68.6399 19.8444
v -113.7156 68.3988 20.2895
v -76.1209 68.0026 22.8188
v -71.1915 69.0441 20.2071
v -64.0017 69.0433 20.2895
v 36.8339 -100.5524 32.2389
v 37.1536 -100.5524 32.2389
v 35.9891 -96.5197 31.1800
v 38.3960 -96.5197 31.1800
v 20.5591 -85.2612 31.3206
v 22.4234 -85.2612 31.3206
v 35.3459 -88.5197 30.4371
v 41.7484 -88.1894 28.3879
v 49.1015 -86.1756 28.2895
v 57.1015 -85.7096 28.2895
v 65.0464 -85.4259 27.6938
v 69.2963 -84.6453 24.6300
v 19.7347 -80.3682 28.5082
v 25.0947 -81.4321 28.5082
v 33.2264 -81.3586 28.4649
v 39.3880 -82.8114 25.9151
v 67.2900 -80.5197 29.3341
v 69.6440 -80.5197 25.3341
v 12.8427 -69.0586 24.6752
v 16.6139 -72.0430 27.7209
v 28.3664 -68.8819 30.2219
v 32.3351 -71.0028 27.8490
v 41.7337 -70.8927 28.0147
v 45.3388 -68.6983 25.1648
v 66.6955 -72.5197 29.3875
v 69.7891 -72.5197 25.3875
v 12.8427 -68.0465 24.6752
v 17.6553 -67.1159 27.7209
v 25.4604 -67.3772 27.8490
v 29.1574 -68.4821 24.8886
v 44.8219 -68.4156 30.4982
v 48.4439 -66.0843 28.0147
v 57.1015 -63.5569 28.2895
v 64.5708 -66.5163 27.7365
v 69.4898 -67.8430 24.7012
v -99.1727 35.3367 32.1090
v -98.1403 35.3367 32.1090
v -100.0432 39.4803 31.7234
v -95.2436 39.5181 31.4388
v -90.3399 42.2099 31.6266
v -108.5920 49.9432 30.8407
v -102.4445 47.6916 31.2779
v -95.1389 47.9841 29.0042
v -87.3633 46.4110 28.6918
v -78.8985 47.4510 28.2895
v -70.8985 47.8924 28.2895
v -65.4683 50.2991 28.2895
v -115.6011 58.7590 25.4687
v -111.2173 55.4639 28.1547
v -102.4025 53.2645 28.2203
v -97.2591 53.1942 28.2895
v -64.7537 55.4803 28.2895
v -115.6657 63.4803 25.3928
v -111.4125 63.4620 27.6917
v -102.8985 62.2842 28.2895
v -94.8985 61.4216 28.2895
v -86.8985 62.7333 28.2895
v -80.6374 65.6234 28.2895
v -68.7803 65.1400 30.3967
v -65.1077 62.8761 27.9538
v -115.2188 67.6886 24.5814
v -114.3158 67.6886 24.5814
v -76.6374 68.7193 28.2895
v -71.2275 69.0592 27.9538
v -64.8666 68.4598 25.0634
v 28.3434 -101.2702 38.4797
v 33.7409 -101.2162 36.0037
v 37.4762 -100.8274 36.2895
v 27.0736 -96.5197 38.0932
v 31.9891 -96.5197 34.0932
v 39.1351 -96.5197 36.2895
v 20.4485 -86.2618 36.2895
v 24.7896 -88.3478 36.2199
v 31.3459 -88.5197 34.1851
v 42.7604 -89.9398 36.2895
v 48.7252 -85.7442 36.1485
v 57.1015 -85.5279 35.0173
v 62.3429 -85.7165 34.8283
v 19.8574 -80.5197 36.2895
v 27.7568 -83.3001 33.2691
v 30.6429 -83.3001 33.2691
v 51.1410 -83.8897 38.7211
v 57.2473 -80.9417 38.6995
v 63.2900 -80.5197 35.4783
v 20.3824 -71.7552 37.0797
v 25.4604 -69.5552 37.0797
v 33.1015 -71.8753 36.2895
v 41.7337 -70.8003 35.8316
v 49.1015 -70.3989 37.1149
v 57.2473 -72.6269 37.0010
v 62.6955 -72.5197 33.7812
v 20.6912 -68.2352 34.9398
v 23.0330 -68.2352 34.9398
v 44.8219 -68.4156 32.8597
v 49.1015 -66.5534 33.1149
v 57.1015 -65.9982 32.8943
v 61.5503 -67.6754 32.5655
v -100.7978 34.5420 36.2895
v -97.1270 34.5420 36.2895
v -108.7766 41.1792 38.2758
v -104.3691 38.8997 35.8813
v -93.7315 39.5181 36.0051
v -90.3399 42.2099 33.1488
v -110.1282 47.3580 35.8813
v -102.4445 47.6916 32.9970
v -95.6271 47.6986 35.7668
v -87.3633 46.2633 36.0051
v -78.8985 48.3036 36.2895
v -71.2569 49.5176 35.7390
v -66.5125 50.6064 32.7054
v -112.0433 55.4803 36.2895
v -99.4052 51.9872 33.0515
v -98.6054 51.9872 33.0515
v -76.1564 58.1629 38.8566
v -71.2569 55.4898 36.6049
v -66.4576 55.4803 32.7585
v -109.4147 61.1464 36.2895
v -102.8985 61.8637 36.2895
v -94.8985 61.4934 36.2895
v -86.8985 62.3133 36.2895
v -78.7422 63.1718 35.8596
v -71.2275 62.8761 33.4992
v -66.6966 59.8066 32.4990
v -75.9946 68.6099 32.8625
v -74.1136 68.6099 32.8625
v 28.3434 -101.2702 41.3117
v 33.1015 -101.3658 41.8229
v 37.5490 -100.8973 41.3118
v 27.3950 -95.8168 44.1028
v 33.1015 -97.2821 45.8229
v 37.8731 -96.2326 44.1029
v 20.7733 -86.1010 40.8593
v 25.3918 -89.2034 43.9629
v 33.1015 -87.9217 45.7331
v 40.1874 -88.3005 43.2516
v 45.8077 -84.6647 40.3993
v 20.7759 -80.5197 40.7959
v 25.1015 -80.5197 42.3360
v 33.1015 -80.5197 42.7105
v 41.1015 -80.5197 41.9408
v 48.7252 -80.9417 41.5796
v 54.6779 -78.5564 41.4124
v 20.9957 -73.9122 40.3949
v 25.1015 -73.5425 40.8259
v 33.1015 -74.3671 41.2670
v 41.1015 -74.1339 41.4977
v 49.1015 -74.3989 41.8198
v 54.6779 -75.3651 41.4124
v -101.4651 34.4453 44.2895
v -97.2611 34.4453 44.2895
v -108.5345 41.0455 44.2895
v -102.8527 39.6525 45.8454
v -97.0388 40.0692 44.8677
v -109.2940 47.0466 44.3299
v -102.3810 47.0466 45.9324
v -95.1487 47.3664 42.6019
v -86.8985 49.7367 41.7076
v -78.8985 50.1506 41.5475
v -74.1625 50.5089 41.2592
v -109.5651 55.4803 41.7387
v -102.8985 55.4803 42.2784
v -94.8985 55.4803 42.2736
v -86.8985 55.4803 43.2598
v -78.8532 55.4898 42.0920
v -74.1625 52.8296 41.2592
v -108.6427 60.7415 40.8211
v -102.8985 60.7371 40.9476
v -94.8985 60.3242 41.1059
v -86.8985 60.6086 41.8418
v -81.4897 60.2740 41.6164
v 28.9612 -92.6815 48.3613
v 33.1015 -93.2821 48.6410
v 37.4019 -93.3745 48.6864
v 28.9612 -92.3058 48.3613
v 33.1015 -91.9217 48.6410
v 37.4019 -91.9362 48.6864
v -100.0626 35.2078 48.6190
v -98.3192 35.2078 48.6190
v -107.2017 42.5350 48.4705
v -102.3826 40.1650 48.5448
v -98.3192 37.7951 48.6190
v -107.2017 44.0909 48.4705
v -104.7027 44.0909 48.4705
f 5 1 4
f 5 2 1
f 7 3 6
f 7 4 3
f 8 4 7
f 8 5 4
f 12 9 11
f 12 10 9
f 14 11 13
f 14 12 11
f 2 15 1
f 2 16 15
f 19 1 15
f 19 4 1
f 4 18 3
f 4 19 18
f 20 16 2
f 20 2 5
f 20 17 16
f 20 21 17
f 18 6 3
f 18 22 6
f 7 6 22
f 7 22 23
f 23 22 18
f 23 18 19
f 20 5 8
f 20 8 24
f 8 7 23
f 8 23 24
f 25 20 24
f 25 21 20
f 10 29 9
f 10 30 29
f 31 26 30
f 31 27 26
f 32 27 31
f 32 28 27
f 33 9 29
f 33 11 9
f 34 30 10
f 34 10 12
f 35 30 34
f 35 31 30
f 36 11 33
f 36 13 11
f 34 12 14
f 34 14 37
f 14 13 36
f 14 36 37
f 36 33 34
f 36 34 37
f 38 34 37
f 38 35 34
f 16 43 15
f 16 44 43
f 17 44 16
f 17 45 44
f 45 39 44
f 45 40 39
f 46 40 45
f 46 41 40
f 47 41 46
f 47 42 41
f 43 19 15
f 43 49 19
f 51 45 17
f 51 17 21
f 52 45 51
f 52 46 45
f 49 23 19
f 49 55 23
f 55 48 54
f 55 49 48
f 24 23 55
f 24 55 56
f 56 55 49
f 56 49 50
f 57 51 21
f 57 21 25
f 57 25 24
f 57 24 56
f 57 56 50
f 57 50 51
f 59 53 58
f 59 54 53
f 60 54 59
f 60 55 54
f 60 56 55
f 60 61 56
f 64 60 59
f 64 65 60
f 65 61 60
f 65 66 61
f 66 62 61
f 66 67 62
f 69 63 68
f 69 64 63
f 69 65 64
f 69 70 65
f 71 65 70
f 71 66 65
f 77 26 27
f 77 76 26
f 77 72 76
f 77 73 72
f 28 77 27
f 28 78 77
f 77 74 73
f 77 78 74
f 79 74 78
f 79 75 74
f 81 26 76
f 81 30 26
f 30 80 29
f 30 81 80
f 83 78 28
f 83 28 32
f 32 31 82
f 32 82 83
f 80 33 29
f 80 84 33
f 34 33 84
f 34 84 85
f 85 84 80
f 85 80 81
f 82 31 35
f 82 35 86
f 87 82 86
f 87 83 82
f 85 37 34
f 85 89 37
f 89 84 88
f 89 85 84
f 90 86 35
f 90 35 38
f 90 38 37
f 90 37 89
f 90 89 85
f 90 85 86
f 93 88 92
f 93 89 88
f 96 91 95
f 96 92 91
f 96 93 92
f 96 97 93
f 97 94 93
f 97 98 94
f 100 97 96
f 100 101 97
f 101 98 97
f 101 102 98
f 102 99 98
f 102 103 99
f 109 104 108
f 109 105 104
f 111 39 40
f 111 110 39
f 111 106 110
f 111 107 106
f 112 40 41
f 112 111 40
f 112 107 111
f 112 108 107
f 42 112 41
f 42 113 112
f 112 109 108
f 112 113 109
f 115 39 110
f 115 44 39
f 44 114 43
f 44 115 114
f 117 113 42
f 117 42 47
f 47 46 116
f 47 116 117
f 114 49 43
f 114 119 49
f 119 48 49
f 119 118 48
f 50 49 119
f 50 119 120
f 120 119 114
f 120 114 115
f 121 51 50
f 121 50 120
f 116 46 52
f 116 52 122
f 52 51 121
f 52 121 122
f 124 48 118
f 124 54 48
f 124 53 54
f 124 123 53
f 119 49 55
f 119 55 125
f 56 125 55
f 56 126 125
f 127 120 126
f 127 121 120
f 123 58 53
f 123 128 58
f 129 59 58
f 129 58 128
f 126 56 61
f 126 61 131
f 131 130 125
f 131 125 126
f 132 61 62
f 132 131 61
f 129 64 59
f 129 134 64
f 134 63 64
f 134 133 63
f 133 129 128
f 133 134 129
f 135 134 129
f 135 129 130
f 132 62 67
f 132 67 137
f 67 66 136
f 67 136 137
f 139 63 133
f 139 68 63
f 140 69 68
f 140 68 139
f 139 133 134
f 139 134 140
f 70 69 140
f 70 140 141
f 140 134 135
f 140 135 141
f 136 66 71
f 136 71 142
f 71 70 141
f 71 141 142
f 143 136 142
f 143 137 136
f 143 138 137
f 143 144 138
f 147 141 146
f 147 142 141
f 148 142 147
f 148 143 142
f 150 145 149
f 150 146 145
f 151 146 150
f 151 147 146
f 73 155 72
f 73 156 155
f 74 156 73
f 74 157 156
f 157 152 156
f 157 153 152
f 75 157 74
f 75 158 157
f 157 154 153
f 157 158 154
f 159 72 155
f 159 76 72
f 162 158 75
f 162 75 79
f 79 78 161
f 79 161 162
f 163 76 159
f 163 81 76
f 164 163 159
f 164 159 160
f 161 78 83
f 161 83 165
f 166 161 165
f 166 162 161
f 169 81 163
f 169 85 81
f 169 84 85
f 169 168 84
f 86 85 169
f 86 169 170
f 165 83 87
f 165 87 171
f 87 86 170
f 87 170 171
f 168 88 84
f 168 174 88
f 174 167 173
f 174 168 167
f 169 85 89
f 169 89 175
f 176 169 175
f 176 170 169
f 177 170 176
f 177 171 170
f 179 172 178
f 179 173 172
f 174 92 88
f 174 180 92
f 180 91 92
f 180 179 91
f 179 174 173
f 179 180 174
f 175 89 93
f 175 93 181
f 181 180 174
f 181 174 175
f 94 181 93
f 94 182 181
f 185 91 179
f 185 95 91
f 184 179 178
f 184 185 179
f 186 96 95
f 186 95 185
f 185 179 180
f 185 180 186
f 187 186 180
f 187 180 181
f 188 182 94
f 188 94 98
f 99 188 98
f 99 189 188
f 188 183 182
f 188 189 183
f 186 100 96
f 186 190 100
f 191 101 100
f 191 100 190
f 192 102 101
f 192 101 191
f 193 189 99
f 193 99 103
f 103 102 192
f 103 192 193
f 194 191 190
f 194 195 191
f 198 104 105
f 198 197 104
f 107 199 106
f 107 200 199
f 201 104 197
f 201 108 104
f 108 200 107
f 108 201 200
f 201 196 200
f 201 197 196
f 198 105 109
f 198 109 202
f 201 197 198
f 201 198 202
f 203 106 199
f 203 110 106
f 205 202 109
f 205 109 113
f 206 110 203
f 206 115 110
f 209 205 113
f 209 113 117
f 209 117 116
f 209 116 208
f 209 208 204
f 209 204 205
f 211 118 119
f 211 210 118
f 212 115 206
f 212 120 115
f 214 208 116
f 214 116 122
f 214 122 121
f 214 121 213
f 214 213 207
f 214 207 208
f 210 124 118
f 210 216 124
f 124 215 123
f 124 216 215
f 211 119 125
f 211 125 217
f 217 216 210
f 217 210 211
f 218 120 212
f 218 126 120
f 213 121 127
f 213 127 219
f 127 126 218
f 127 218 219
f 215 128 123
f 215 220 128
f 221 220 215
f 221 215 216
f 217 125 130
f 217 130 222
f 130 129 221
f 130 221 222
f 222 221 216
f 222 216 217
f 223 130 131
f 223 222 130
f 132 223 131
f 132 224 223
f 220 133 128
f 220 225 133
f 226 221 129
f 226 129 134
f 226 134 133
f 226 133 225
f 226 225 220
f 226 220 221
f 227 130 222
f 227 135 130
f 227 221 226
f 227 222 221
f 224 132 137
f 224 137 228
f 138 228 137
f 138 229 228
f 230 226 225
f 230 231 226
f 232 135 227
f 232 141 135
f 231 227 226
f 231 232 227
f 229 138 144
f 229 144 234
f 144 143 233
f 144 233 234
f 234 233 228
f 234 228 229
f 232 146 141
f 232 236 146
f 236 145 146
f 236 235 145
f 235 232 231
f 235 236 232
f 233 143 148
f 233 148 238
f 148 147 237
f 148 237 238
f 239 145 235
f 239 149 145
f 150 149 239
f 150 239 240
f 239 235 236
f 239 236 240
f 237 147 151
f 237 151 241
f 151 150 240
f 151 240 241
f 241 240 236
f 241 236 237
f 243 152 153
f 243 242 152
f 154 243 153
f 154 244 243
f 246 152 242
f 246 156 152
f 156 245 155
f 156 246 245
f 247 244 154
f 247 154 158
f 248 155 245
f 248 159 155
f 160 159 248
f 160 248 249
f 251 247 158
f 251 158 162
f 249 164 160
f 249 253 164
f 164 252 163
f 164 253 252
f 252 249 248
f 252 253 249
f 255 251 162
f 255 162 166
f 255 166 165
f 255 165 254
f 255 254 250
f 255 250 251
f 257 167 168
f 257 256 167
f 258 163 252
f 258 169 163
f 258 168 169
f 258 257 168
f 259 258 252
f 259 252 253
f 254 165 171
f 254 171 260
f 260 259 253
f 260 253 254
f 256 173 167
f 256 262 173
f 173 261 172
f 173 262 261
f 263 262 256
f 263 256 257
f 264 175 174
f 264 174 263
f 264 263 257
f 264 257 258
f 176 175 264
f 176 264 265
f 265 264 258
f 265 258 259
f 260 171 177
f 260 177 266
f 177 176 265
f 177 265 266
f 266 265 259
f 266 259 260
f 267 172 261
f 267 178 172
f 268 267 261
f 268 261 262
f 263 174 180
f 263 180 269
f 269 180 179
f 269 179 268
f 182 270 181
f 182 271 270
f 183 271 182
f 183 272 271
f 273 178 267
f 273 184 178
f 268 179 185
f 268 185 274
f 185 184 273
f 185 273 274
f 273 267 268
f 273 268 274
f 270 187 181
f 270 276 187
f 276 186 187
f 276 275 186
f 276 269 275
f 276 270 269
f 277 272 183
f 277 183 189
f 275 190 186
f 275 279 190
f 278 275 274
f 278 279 275
f 192 191 280
f 192 280 281
f 277 189 193
f 277 193 282
f 282 193 192
f 282 192 281
f 279 194 190
f 279 283 194
f 280 191 195
f 280 195 284
f 195 194 283
f 195 283 284
f 285 280 284
f 285 281 280
f 287 196 197
f 287 286 196
f 290 196 286
f 290 200 196
f 290 199 200
f 290 289 199
f 287 197 201
f 287 201 291
f 292 201 202
f 292 291 201
f 294 199 289
f 294 203 199
f 294 288 293
f 294 289 288
f 292 202 205
f 292 205 296
f 296 205 204
f 296 204 295
f 296 295 291
f 296 291 292
f 294 206 203
f 294 298 206
f 298 293 297
f 298 294 293
f 300 295 204
f 300 204 208
f 300 208 207
f 300 207 299
f 302 206 298
f 302 212 206
f 301 298 297
f 301 302 298
f 303 299 207
f 303 207 213
f 304 212 302
f 304 218 212
f 305 303 213
f 305 213 219
f 219 218 304
f 219 304 305
f 304 302 303
f 304 303 305
f 222 306 221
f 222 307 306
f 223 307 222
f 223 308 307
f 224 308 223
f 224 309 308
f 306 226 221
f 306 312 226
f 312 225 226
f 312 311 225
f 313 309 224
f 313 224 228
f 313 310 309
f 313 314 310
f 311 230 225
f 311 315 230
f 316 231 230
f 316 230 315
f 313 228 233
f 313 233 319
f 320 313 319
f 320 314 313
f 322 231 316
f 322 235 231
f 321 316 315
f 321 322 316
f 323 236 235
f 323 235 322
f 237 236 323
f 237 323 324
f 324 323 317
f 324 317 318
f 319 233 238
f 319 238 325
f 238 237 324
f 238 324 325
f 328 242 243
f 328 327 242
f 329 243 244
f 329 328 243
f 332 242 327
f 332 246 242
f 332 245 246
f 332 331 245
f 332 326 331
f 332 327 326
f 329 244 247
f 329 247 334
f 333 328 329
f 333 329 334
f 336 245 331
f 336 248 245
f 336 330 335
f 336 331 330
f 339 334 247
f 339 247 251
f 339 251 250
f 339 250 338
f 341 248 336
f 341 252 248
f 340 336 335
f 340 341 336
f 342 253 252
f 342 252 341
f 343 338 250
f 343 250 254
f 343 254 253
f 343 253 342
f 343 342 337
f 343 337 338
f 263 344 262
f 263 345 344
f 344 268 262
f 344 346 268
f 345 263 269
f 345 269 347
f 269 268 346
f 269 346 347
f 346 344 345
f 346 345 347
f 348 269 270
f 348 347 269
f 271 348 270
f 271 349 348
f 272 349 271
f 272 350 349
f 353 269 347
f 353 275 269
f 353 274 275
f 353 352 274
f 353 346 352
f 353 347 346
f 350 272 277
f 350 277 354
f 352 278 274
f 352 356 278
f 356 351 355
f 356 352 351
f 357 279 278
f 357 278 356
f 360 354 277
f 360 277 282
f 282 281 359
f 282 359 360
f 357 283 279
f 357 362 283
f 361 357 356
f 361 362 357
f 363 284 283
f 363 283 362
f 362 357 358
f 362 358 363
f 364 359 281
f 364 281 285
f 285 284 363
f 285 363 364
f 364 363 358
f 364 358 359
f 366 286 287
f 366 365 286
f 369 288 289
f 369 368 288
f 365 290 286
f 365 370 290
f 290 369 289
f 290 370 369
f 371 366 287
f 371 287 291
f 371 370 365
f 371 365 366
f 373 288 368
f 373 293 288
f 373 367 372
f 373 368 367
f 371 291 295
f 371 295 375
f 374 370 371
f 374 371 375
f 373 297 293
f 373 377 297
f 376 373 372
f 376 377 373
f 375 295 300
f 375 300 380
f 380 300 299
f 380 299 379
f 380 379 374
f 380 374 375
f 381 297 377
f 381 301 297
f 382 302 301
f 382 301 381
f 383 379 299
f 383 299 303
f 383 303 302
f 383 302 382
f 383 382 378
f 383 378 379
f 307 384 306
f 307 385 384
f 308 385 307
f 308 386 385
f 309 386 308
f 309 387 386
f 310 387 309
f 310 388 387
f 384 312 306
f 384 390 312
f 390 311 312
f 390 389 311
f 391 390 384
f 391 384 385
f 392 386 387
f 392 387 393
f 394 388 310
f 394 310 314
f 395 311 389
f 395 315 311
f 398 318 317
f 398 317 397
f 400 394 314
f 400 314 320
f 400 320 319
f 400 319 399
f 400 399 393
f 400 393 394
f 401 315 395
f 401 321 315
f 402 322 321
f 402 321 401
f 401 395 396
f 401 396 402
f 403 397 317
f 403 317 323
f 403 323 322
f 403 322 402
f 403 402 396
f 403 396 397
f 404 318 398
f 404 324 318
f 405 399 319
f 405 319 325
f 325 324 404
f 325 404 405
f 405 404 398
f 405 398 399
f 407 326 327
f 407 406 326
f 408 327 328
f 408 407 327
f 411 326 406
f 411 331 326
f 411 330 331
f 411 410 330
f 408 328 333
f 408 333 413
f 412 407 408
f 412 408 413
f 414 333 334
f 414 413 333
f 416 330 410
f 416 335 330
f 416 409 415
f 416 410 409
f 418 338 337
f 418 337 417
f 418 417 412
f 418 412 413
f 414 334 339
f 414 339 419
f 339 338 418
f 339 418 419
f 418 413 414
f 418 414 419
f 416 340 335
f 416 421 340
f 420 416 415
f 420 421 416
f 422 341 340
f 422 340 421
f 423 417 337
f 423 337 342
f 423 342 341
f 423 341 422
f 425 346 347
f 425 424 346
f 348 425 347
f 348 426 425
f 349 426 348
f 349 427 426
f 428 349 350
f 428 427 349
f 424 352 346
f 424 430 352
f 430 351 352
f 430 429 351
f 432 428 350
f 432 350 354
f 431 427 428
f 431 428 432
f 429 355 351
f 429 433 355
f 356 355 433
f 356 433 434
f 433 429 430
f 433 430 434
f 358 357 435
f 358 435 436
f 437 359 358
f 437 358 436
f 438 432 354
f 438 354 360
f 438 360 359
f 438 359 437
f 438 437 431
f 438 431 432
f 439 356 434
f 439 361 356
f 440 435 357
f 440 357 362
f 440 362 361
f 440 361 439
f 439 434 435
f 439 435 440
f 443 367 368
f 443 442 367
f 444 368 369
f 444 443 368
f 445 369 370
f 445 444 369
f 447 367 442
f 447 372 367
f 447 441 446
f 447 442 441
f 445 370 374
f 445 374 449
f 447 376 372
f 447 453 376
f 452 447 446
f 452 453 447
f 454 377 376
f 454 376 453
f 456 449 374
f 456 374 379
f 456 379 378
f 456 378 455
f 456 455 448
f 456 448 449
f 457 451 450
f 457 458 451
f 454 381 377
f 454 460 381
f 459 454 453
f 459 460 454
f 461 455 378
f 461 378 382
f 461 382 381
f 461 381 460
f 461 460 454
f 461 454 455
f 386 462 385
f 386 463 462
f 388 464 387
f 388 465 464
f 467 389 390
f 467 466 389
f 462 391 385
f 462 468 391
f 391 467 390
f 391 468 467
f 463 386 392
f 463 392 469
f 469 468 462
f 469 462 463
f 464 393 387
f 464 470 393
f 470 392 393
f 470 469 392
f 471 465 388
f 471 388 394
f 471 394 393
f 471 393 470
f 471 470 464
f 471 464 465
f 472 389 466
f 472 395 389
f 396 395 472
f 396 472 473
f 472 466 467
f 472 467 473
f 474 397 396
f 474 396 473
f 474 473 467
f 474 467 468
f 475 398 397
f 475 397 474
f 475 474 468
f 475 468 469
f 476 470 393
f 476 393 399
f 476 399 398
f 476 398 475
f 476 475 469
f 476 469 470
f 480 406 407
f 480 479 406
f 482 409 410
f 482 481 409
f 482 477 481
f 482 478 477
f 483 406 479
f 483 411 406
f 411 482 410
f 411 483 482
f 480 407 412
f 480 412 484
f 487 409 481
f 487 415 409
f 489 484 412
f 489 412 417
f 492 485 491
f 492 486 485
f 487 420 415
f 487 493 420
f 494 421 420
f 494 420 493
f 495 422 421
f 495 421 494
f 496 489 417
f 496 417 423
f 496 423 422
f 496 422 495
f 496 495 488
f 496 488 489
f 498 490 497
f 498 491 490
f 500 493 499
f 500 494 493
f 425 501 424
f 425 502 501
f 503 425 426
f 503 502 425
f 504 426 427
f 504 503 426
f 505 424 501
f 505 430 424
f 506 505 501
f 506 501 502
f 506 502 503
f 506 503 507
f 504 427 431
f 504 431 508
f 507 503 504
f 507 504 508
f 509 430 505
f 509 434 430
f 435 434 509
f 435 509 510
f 509 505 506
f 509 506 510
f 436 435 510
f 436 510 511
f 510 506 507
f 510 507 511
f 512 508 431
f 512 431 437
f 512 437 436
f 512 436 511
f 512 511 507
f 512 507 508
f 515 441 442
f 515 514 441
f 516 442 443
f 516 515 442
f 517 443 444
f 517 516 443
f 518 444 445
f 518 517 444
f 522 441 514
f 522 446 441
f 522 513 521
f 522 514 513
f 524 518 445
f 524 445 449
f 524 449 448
f 524 448 523
f 524 523 517
f 524 517 518
f 451 525 450
f 451 526 525
f 527 519 526
f 527 520 519
f 522 452 446
f 522 529 452
f 528 522 521
f 528 529 522
f 530 453 452
f 530 452 529
f 532 523 448
f 532 448 455
f 455 454 531
f 455 531 532
f 525 457 450
f 525 533 457
f 534 526 451
f 534 451 458
f 458 457 533
f 458 533 534
f 535 526 534
f 535 527 526
f 537 528 536
f 537 529 528
f 530 459 453
f 530 538 459
f 537 530 529
f 537 538 530
f 531 454 460
f 531 460 539
f 539 460 459
f 539 459 538
f 541 533 540
f 541 534 533
f 542 539 538
f 542 543 539
f 478 544 477
f 478 545 544
f 480 546 479
f 480 547 546
f 549 477 544
f 549 481 477
f 550 545 478
f 550 478 482
f 550 549 544
f 550 544 545
f 546 483 479
f 546 551 483
f 483 550 482
f 483 551 550
f 547 480 484
f 547 484 552
f 552 551 546
f 552 546 547
f 554 485 486
f 554 553 485
f 557 481 549
f 557 487 481
f 557 548 556
f 557 549 548
f 552 484 489
f 552 489 559
f 559 489 488
f 559 488 558
f 558 551 552
f 558 552 559
f 561 485 553
f 561 491 485
f 561 490 491
f 561 560 490
f 554 486 492
f 554 492 562
f 492 491 561
f 492 561 562
f 564 555 563
f 564 556 555
f 557 493 487
f 557 565 493
f 564 557 556
f 564 565 557
f 567 558 488
f 567 488 495
f 495 494 566
f 495 566 567
f 568 558 567
f 568 559 558
f 569 490 560
f 569 497 490
f 561 491 498
f 561 498 570
f 498 497 569
f 498 569 570
f 571 561 570
f 571 562 561
f 565 499 493
f 565 572 499
f 566 494 500
f 566 500 573
f 573 500 499
f 573 499 572
f 576 513 514
f 576 575 513
f 577 514 515
f 577 576 514
f 578 515 516
f 578 577 515
f 579 516 517
f 579 578 516
f 520 580 519
f 520 581 580
f 584 513 575
f 584 521 513
f 584 574 583
f 584 575 574
f 579 517 523
f 579 523 586
f 585 578 579
f 585 579 586
f 588 519 580
f 588 526 519
f 526 587 525
f 526 588 587
f 589 581 520
f 589 520 527
f 590 581 589
f 590 582 581
f 591 582 590
f 591 583 582
f 584 528 521
f 584 592 528
f 591 584 583
f 591 592 584
f 586 523 532
f 586 532 594
f 594 532 531
f 594 531 593
f 594 593 585
f 594 585 586
f 595 525 587
f 595 533 525
f 589 527 535
f 589 535 597
f 535 534 596
f 535 596 597
f 598 589 597
f 598 590 589
f 599 528 592
f 599 536 528
f 600 537 536
f 600 536 599
f 601 538 537
f 601 537 600
f 602 593 531
f 602 531 539
f 603 533 595
f 603 540 533
f 596 534 541
f 596 541 604
f 541 540 603
f 541 603 604
f 604 603 595
f 604 595 596
f 601 542 538
f 601 605 542
f 602 539 543
f 602 543 606
f 543 542 605
f 543 605 606
f 606 605 601
f 606 601 602
f 610 548 549
f 610 609 548
f 550 610 549
f 550 611 610
f 612 550 551
f 612 611 550
f 554 613 553
f 554 614 613
f 617 607 616
f 617 608 607
f 618 548 609
f 618 556 548
f 618 555 556
f 618 617 555
f 618 608 617
f 618 609 608
f 612 551 558
f 612 558 620
f 619 611 612
f 619 612 620
f 621 558 559
f 621 620 558
f 623 553 613
f 623 561 553
f 561 622 560
f 561 623 622
f 614 554 562
f 614 562 624
f 625 614 624
f 625 615 614
f 626 615 625
f 626 616 615
f 627 555 617
f 627 563 555
f 627 616 626
f 627 617 616
f 628 564 563
f 628 563 627
f 629 565 564
f 629 564 628
f 631 567 566
f 631 566 630
f 631 630 619
f 631 619 620
f 621 559 568
f 621 568 632
f 568 567 631
f 568 631 632
f 631 620 621
f 631 621 632
f 633 560 622
f 633 569 560
f 570 569 633
f 570 633 634
f 634 633 622
f 634 622 623
f 624 562 571
f 624 571 635
f 571 570 634
f 571 634 635
f 629 572 565
f 629 637 572
f 636 629 628
f 636 637 629
f 638 630 566
f 638 566 573
f 638 573 572
f 638 572 637
f 641 640 639
f 641 642 640
f 645 642 641
f 645 646 642
f 647 574 575
f 647 646 574
f 648 575 576
f 648 647 575
f 649 576 577
f 649 648 576
f 650 577 578
f 650 649 577
f 581 651 580
f 581 652 651
f 651 644 643
f 651 652 644
f 582 652 581
f 582 653 652
f 654 574 646
f 654 583 574
f 654 582 583
f 654 653 582
f 654 645 653
f 654 646 645
f 650 578 585
f 650 585 656
f 655 649 650
f 655 650 656
f 658 580 651
f 658 588 580
f 588 657 587
f 588 658 657
f 661 591 590
f 661 590 660
f 662 592 591
f 662 591 661
f 664 656 585
f 664 585 593
f 664 663 655
f 664 655 656
f 665 587 657
f 665 595 587
f 596 595 665
f 596 665 666
f 666 665 657
f 666 657 658
f 597 596 666
f 597 666 667
f 660 590 598
f 660 598 668
f 598 597 667
f 598 667 668
f 668 667 659
f 668 659 660
f 662 599 592
f 662 670 599
f 669 662 661
f 669 670 662
f 671 600 599
f 671 599 670
f 672 601 600
f 672 600 671
f 673 664 593
f 673 593 602
f 673 602 601
f 673 601 672
f 673 672 663
f 673 663 664
f 676 675 674
f 676 677 675
f 681 676 680
f 681 677 676
f 682 607 608
f 682 681 607
f 681 678 677
f 681 682 678
f 683 608 609
f 683 682 608
f 610 683 609
f 610 684 683
f 685 610 611
f 685 684 610
f 614 686 613
f 614 687 686
f 615 687 614
f 615 688 687
f 688 679 687
f 688 680 679
f 689 607 681
f 689 616 607
f 689 615 616
f 689 688 615
f 685 611 619
f 685 619 690
f 691 613 686
f 691 623 613
f 692 691 686
f 692 686 687
f 625 624 692
f 625 692 693
f 626 625 693
f 626 693 694
f 695 627 626
f 695 626 694
f 696 628 627
f 696 627 695
f 698 690 619
f 698 619 630
f 699 623 691
f 699 634 623
f 700 692 624
f 700 624 635
f 635 634 699
f 635 699 700
f 700 699 691
f 700 691 692
f 696 636 628
f 696 701 636
f 702 637 636
f 702 636 701
f 703 698 630
f 703 630 638
f 703 638 637
f 703 637 702
f 703 702 697
f 703 697 698
f 706 639 640
f 706 705 639
f 708 639 705
f 708 641 639
f 708 704 707
f 708 705 704
f 709 706 640
f 709 640 642
f 644 710 643
f 644 711 710
f 708 645 641
f 708 712 645
f 712 707 711
f 712 708 707
f 713 709 642
f 713 642 646
f 714 646 647
f 714 713 646
f 715 647 648
f 715 714 647
f 716 648 649
f 716 715 648
f 717 643 710
f 717 651 643
f 718 711 644
f 718 644 652
f 719 645 712
f 719 653 645
f 653 718 652
f 653 719 718
f 718 712 711
f 718 719 712
f 720 714 715
f 720 715 721
f 716 649 655
f 716 655 722
f 722 721 715
f 722 715 716
f 723 651 717
f 723 658 651
f 725 660 659
f 725 659 724
f 661 660 725
f 661 725 726
f 729 722 655
f 729 655 663
f 728 721 722
f 728 722 729
f 730 658 723
f 730 666 658
f 731 724 659
f 731 659 667
f 667 666 730
f 667 730 731
f 731 730 723
f 731 723 724
f 732 661 726
f 732 669 661
f 733 670 669
f 733 669 732
f 732 726 727
f 732 727 733
f 671 670 733
f 671 733 734
f 734 733 727
f 734 727 728
f 735 729 663
f 735 663 672
f 735 672 671
f 735 671 734
f 735 734 728
f 735 728 729
f 737 674 675
f 737 736 674
f 736 676 674
f 736 739 676
f 737 675 677
f 737 677 740
f 741 677 678
f 741 740 677
f 743 676 739
f 743 680 676
f 743 679 680
f 743 742 679
f 742 739 738
f 742 743 739
f 744 681 680
f 744 680 743
f 745 741 678
f 745 678 682
f 744 740 741
f 744 741 745
f 683 745 682
f 683 746 745
f 747 683 684
f 747 746 683
f 748 684 685
f 748 747 684
f 749 679 742
f 749 687 679
f 750 743 680
f 750 680 688
f 751 681 744
f 751 689 681
f 689 750 688
f 689 751 750
f 751 743 750
f 751 744 743
f 748 685 690
f 748 690 754
f 753 747 748
f 753 748 754
f 755 687 749
f 755 692 687
f 693 692 755
f 693 755 756
f 694 693 756
f 694 756 757
f 758 695 694
f 758 694 757
f 696 695 758
f 696 758 759
f 760 759 752
f 760 752 753
f 761 754 690
f 761 690 698
f 761 698 697
f 761 697 760
f 761 760 753
f 761 753 754
f 762 696 759
f 762 701 696
f 763 760 697
f 763 697 702
f 763 702 701
f 763 701 762
f 762 759 760
f 762 760 763
f 765 704 705
f 765 764 704
f 766 705 706
f 766 765 705
f 764 707 704
f 764 767 707
f 768 767 764
f 768 764 765
f 766 706 709
f 766 709 769
f 768 765 766
f 768 766 769
f 771 707 767
f 771 711 707
f 711 770 710
f 711 771 770
f 773 769 709
f 773 709 713
f 774 713 714
f 774 773 713
f 770 717 710
f 770 775 717
f 776 775 770
f 776 770 771
f 776 771 772
f 776 772 777
f 777 772 773
f 777 773 778
f 774 714 720
f 774 720 779
f 778 773 774
f 778 774 779
f 780 720 721
f 780 779 720
f 781 717 775
f 781 723 717
f 782 724 723
f 782 723 781
f 781 775 776
f 781 776 782
f 725 724 782
f 725 782 783
f 783 782 776
f 783 776 777
f 784 726 725
f 784 725 783
f 783 777 778
f 783 778 784
f 727 726 784
f 727 784 785
f 785 784 778
f 785 778 779
f 786 780 721
f 786 721 728
f 786 728 727
f 786 727 785
f 785 779 780
f 785 780 786
f 788 736 737
f 788 787 736
f 787 739 736
f 787 790 739
f 739 789 738
f 739 790 789
f 791 788 737
f 791 737 740
f 792 738 789
f 792 742 738
f 794 791 740
f 794 740 744
f 793 790 791
f 793 791 794
f 745 794 744
f 745 795 794
f 746 795 745
f 746 796 795
f 797 746 747
f 797 796 746
f 798 742 792
f 798 749 742
f 799 798 792
f 799 792 793
f 799 793 794
f 799 794 800
f 800 794 795
f 800 795 801
f 801 795 796
f 801 796 802
f 803 797 747
f 803 747 753
f 803 753 752
f 803 752 802
f 803 802 796
f 803 796 797
f 804 749 798
f 804 755 749
f 756 755 804
f 756 804 805
f 804 798 799
f 804 799 805
f 757 756 805
f 757 805 806
f 806 805 799
f 806 799 800
f 758 757 806
f 758 806 807
f 807 806 800
f 807 800 801
f 808 802 752
f 808 752 759
f 808 759 758
f 808 758 807
f 808 807 801
f 808 801 802
f 768 809 767
f 768 810 809
f 811 768 769
f 811 810 768
f 812 767 809
f 812 771 767
f 772 771 812
f 772 812 813
f 813 812 809
f 813 809 810
f 814 811 769
f 814 769 773
f 814 773 772
f 814 772 813
f 814 813 810
f 814 810 811
f 788 815 787
f 788 816 815
f 815 790 787
f 815 818 790
f 790 817 789
f 790 818 817
f 819 816 788
f 819 788 791
f 819 791 790
f 819 790 818
f 819 818 815
f 819 815 816
f 820 789 817
f 820 792 789
f 821 818 790
f 821 790 793
f 793 792 820
f 793 820 821
f 821 820 817
f 821 817 818
