# parsimony mesh: cplx_CPLX0-8539 (source /Users/eranagmon/code/v2e-cplx/workspace/studies/ecoli-3d/viz/3d/structures/cplx_CPLX0-8539.pdb)
# atoms: 7003  voxel: 16 Å  verts: 165  tris: 312
v 59.0969 -48.4043 -25.9663
v 65.6936 -48.4043 -25.9663
v 59.0969 -43.6596 -25.9663
v 65.6936 -43.6596 -25.9663
v -32.7364 32.9250 -25.0401
v -24.1956 33.0532 -24.9904
v -16.1427 33.5484 -24.7981
v -50.3043 47.5080 -26.6826
v -38.9201 41.9463 -27.2216
v -23.4048 40.1674 -26.0908
v -16.1427 33.8765 -24.7981
v -50.3043 52.6280 -26.6826
v -40.0590 57.8182 -27.8968
v -27.8237 57.6036 -27.2473
v -34.6346 66.4770 -26.1655
v -30.3510 66.4770 -26.1655
v 29.2055 -64.3038 -11.1122
v 39.8044 -65.2789 -12.0329
v 55.8044 -64.2474 -11.0204
v 65.0084 -62.9285 -9.7622
v 15.1260 -47.7729 -9.2970
v 23.8451 -53.6223 -12.5114
v 39.8044 -54.3964 -18.0813
v 54.5799 -54.0011 -19.7893
v 70.6843 -53.3859 -15.0990
v 80.3643 -47.7008 -9.7692
v 15.1260 -45.5625 -9.2970
v 24.5479 -39.4960 -12.3265
v 39.8044 -38.3964 -19.3292
v 54.5799 -38.3543 -22.0658
v 72.3719 -37.8123 -16.0101
v 80.3643 -42.6317 -9.7692
v 30.3769 -28.1329 -10.8040
v 39.9973 -22.6383 -14.8984
v 55.6789 -22.3268 -15.3667
v 68.3836 -27.6138 -11.5845
v 45.4592 -12.7921 -12.9741
v 50.2619 -12.7921 -12.9741
v -34.6255 16.3973 -10.6778
v -29.1060 16.3973 -10.6778
v -51.1337 30.7177 -10.7852
v -39.0143 26.4880 -16.0648
v -23.9418 24.6344 -16.3172
v -14.4795 30.9011 -16.7764
v -53.9290 41.9463 -16.3817
v -43.4030 36.8413 -21.4518
v -17.5443 44.5432 -23.3150
v -13.5589 40.1674 -17.4996
v -54.4986 57.8182 -17.0759
v -45.3012 63.2946 -22.6088
v -19.8237 57.6036 -19.8948
v -14.5362 57.6036 -11.8948
v -52.0832 67.0416 -11.9421
v -40.0590 67.8593 -17.0759
v -24.6888 67.0602 -15.3480
v -16.0895 65.7098 -9.0624
v 26.3797 -65.0255 -0.7764
v 39.8044 -67.9076 -0.7764
v 55.5951 -65.0213 -1.7360
v 65.0084 -62.9285 -7.7091
v 13.2983 -50.9206 -0.7764
v 18.3797 -58.9206 -0.7764
v 45.6226 -48.5606 4.8465
v 55.5951 -54.0949 1.4748
v 71.9937 -52.6674 -1.7118
v 80.4858 -47.8030 -0.7764
v 13.2983 -42.5746 -0.7764
v 19.4842 -34.5746 -0.7764
v 45.5944 -38.3964 4.8670
v 56.7349 -36.9132 3.5755
v 72.3757 -37.5765 1.3929
v 80.4858 -42.8155 -0.7764
v 27.2503 -22.6383 -0.4499
v 40.9160 -23.2394 0.4465
v 55.5827 -24.0022 2.3243
v 67.4233 -28.2444 -0.7764
v 29.9745 -13.3617 5.1011
v 39.9973 -12.3313 -0.4499
v 50.2532 -12.5911 -0.7764
v -52.7648 16.8391 5.0686
v -40.0535 15.8502 -0.4694
v -28.3372 15.9853 -0.7764
v -65.3951 28.7969 4.4587
v -57.2826 24.4240 -0.5697
v -45.2921 20.0510 -5.5981
v -21.1525 25.0747 0.0189
v -13.9604 30.0555 -4.7842
v -65.9151 41.6036 1.8873
v -61.7807 41.6036 -6.1128
v -33.2852 47.1587 6.1702
v -24.2393 41.7366 3.2787
v -12.9394 41.6036 -4.9174
v -65.2887 51.7147 2.8734
v -60.5315 57.2703 -1.7866
v -35.4331 57.6036 4.7648
v -24.1956 57.6036 -2.2883
v -14.5362 57.6036 -7.8295
v -52.2340 67.1839 -0.7764
v -40.5318 67.7367 -0.5114
v -24.1956 66.7693 -6.3630
v -16.0895 65.7098 -8.6670
v 27.1704 -63.9944 11.2978
v 39.8044 -65.0250 11.5755
v 50.1222 -64.3032 8.9518
v 12.5601 -52.8054 15.2236
v 22.6240 -59.8562 16.0681
v 39.2721 -54.4223 15.4582
v 50.1222 -59.2272 8.9518
v 78.9789 -46.9674 7.5365
v 80.1530 -46.9674 7.5365
v 12.6012 -37.4393 14.4374
v 16.8050 -31.4679 8.5800
v 39.4879 -38.3964 15.2236
v 62.6886 -30.5911 7.2915
v 71.5147 -37.9888 7.4140
v 80.1530 -45.3865 7.5365
v 14.7916 -28.8507 19.2466
v 23.3897 -22.8232 14.6758
v 40.1257 -22.9041 14.5783
v 55.6503 -24.3277 7.8382
v 64.0504 -30.3096 7.2915
v 29.9745 -13.3617 10.1049
v 39.8044 -13.0183 10.2556
v 48.6119 -13.5936 8.3849
v -64.5944 17.2088 19.2655
v -57.3371 16.4110 14.4487
v -40.9375 16.0771 14.5174
v -30.1406 16.6522 8.7133
v -66.1289 24.3196 14.4487
v -63.4315 18.1303 8.5988
v -35.9756 25.6036 18.6418
v -28.7089 25.6036 10.6418
v -68.0513 41.6036 15.2236
v -36.0806 41.7366 15.4643
v -29.6017 36.4920 10.2915
v -65.9338 51.8579 15.2236
v -55.4937 58.5623 14.3143
v -43.7348 56.7589 14.3143
v -49.6925 66.2726 8.3748
v -46.0893 66.2726 8.3748
v 14.1416 -50.2861 24.8525
v 23.8044 -51.7293 25.0759
v 32.9216 -49.6173 24.0644
v 13.7977 -38.3964 25.5074
v 23.8044 -38.3964 27.0556
v 33.6979 -38.3964 24.7717
v 14.7916 -28.8507 24.6398
v 23.8044 -27.0366 25.2033
v 33.2119 -27.4624 24.4469
v -64.5944 17.2088 23.6850
v -56.1956 16.6863 24.4263
v -46.7654 16.7754 24.3658
v -65.7126 25.6036 25.3622
v -56.1956 25.6036 29.0569
v -43.9756 25.6036 26.9183
v -66.3318 41.6036 27.1866
v -55.1197 42.5804 35.0644
v -44.9513 42.5804 31.8940
v -65.4200 50.4983 26.1175
v -55.1197 50.9725 31.3599
v -47.2876 50.6437 31.2236
v -49.0691 48.5648 39.3495
v -48.0697 48.5648 39.3495
v -49.0691 49.7317 39.3495
v -48.0697 49.7317 39.3495
f 3 2 1
f 3 4 2
f 10 5 9
f 10 6 5
f 11 6 10
f 11 7 6
f 13 8 12
f 13 9 8
f 14 9 13
f 14 10 9
f 15 14 13
f 15 16 14
f 23 17 22
f 23 18 17
f 23 19 18
f 23 24 19
f 2 24 1
f 2 25 24
f 24 20 19
f 24 25 20
f 27 22 21
f 27 28 22
f 28 23 22
f 28 29 23
f 30 1 24
f 30 3 1
f 29 24 23
f 29 30 24
f 25 2 4
f 25 4 31
f 4 3 30
f 4 30 31
f 31 26 25
f 31 32 26
f 33 29 28
f 33 34 29
f 34 30 29
f 34 35 30
f 36 30 35
f 36 31 30
f 37 35 34
f 37 38 35
f 43 5 6
f 43 42 5
f 43 39 42
f 43 40 39
f 44 6 7
f 44 43 6
f 46 5 42
f 46 9 5
f 46 8 9
f 46 45 8
f 46 41 45
f 46 42 41
f 44 7 11
f 44 11 48
f 11 10 47
f 11 47 48
f 49 8 45
f 49 12 8
f 50 13 12
f 50 12 49
f 47 10 14
f 47 14 51
f 52 47 51
f 52 48 47
f 50 15 13
f 50 54 15
f 53 50 49
f 53 54 50
f 51 14 16
f 51 16 55
f 56 51 55
f 56 52 51
f 58 17 18
f 58 57 17
f 59 18 19
f 59 58 18
f 60 19 20
f 60 59 19
f 62 17 57
f 62 22 17
f 62 21 22
f 62 61 21
f 60 20 25
f 60 25 65
f 64 59 60
f 64 60 65
f 26 65 25
f 26 66 65
f 67 21 61
f 67 27 21
f 68 28 27
f 68 27 67
f 70 69 63
f 70 63 64
f 70 64 65
f 70 65 71
f 32 31 71
f 32 71 72
f 68 33 28
f 68 73 33
f 74 34 33
f 74 33 73
f 75 74 69
f 75 69 70
f 71 31 36
f 71 36 76
f 36 35 75
f 36 75 76
f 74 37 34
f 74 78 37
f 77 74 73
f 77 78 74
f 79 75 35
f 79 35 38
f 79 38 37
f 79 37 78
f 82 39 40
f 82 81 39
f 85 39 81
f 85 42 39
f 85 41 42
f 85 84 41
f 85 80 84
f 85 81 80
f 86 82 40
f 86 40 43
f 87 43 44
f 87 86 43
f 89 41 84
f 89 45 41
f 89 83 88
f 89 84 83
f 92 87 44
f 92 44 48
f 91 86 87
f 91 87 92
f 89 49 45
f 89 94 49
f 93 89 88
f 93 94 89
f 96 95 90
f 96 90 91
f 92 48 52
f 92 52 97
f 96 91 92
f 96 92 97
f 94 53 49
f 94 98 53
f 100 99 95
f 100 95 96
f 97 52 56
f 97 56 101
f 101 100 96
f 101 96 97
f 58 102 57
f 58 103 102
f 104 58 59
f 104 103 58
f 102 62 57
f 102 106 62
f 62 105 61
f 62 106 105
f 107 106 102
f 107 102 103
f 108 104 59
f 108 59 64
f 108 64 63
f 108 63 107
f 108 107 103
f 108 103 104
f 66 109 65
f 66 110 109
f 105 67 61
f 105 111 67
f 112 68 67
f 112 67 111
f 113 107 63
f 113 63 69
f 109 71 65
f 109 115 71
f 71 114 70
f 71 115 114
f 116 72 71
f 116 71 115
f 116 115 109
f 116 109 110
f 112 73 68
f 112 118 73
f 117 112 111
f 117 118 112
f 119 113 69
f 119 69 74
f 114 75 70
f 114 120 75
f 120 74 75
f 120 119 74
f 121 115 71
f 121 71 76
f 121 76 75
f 121 75 120
f 121 120 114
f 121 114 115
f 122 73 118
f 122 77 73
f 123 78 77
f 123 77 122
f 122 118 119
f 122 119 123
f 124 120 75
f 124 75 79
f 124 79 78
f 124 78 123
f 124 123 119
f 124 119 120
f 127 80 81
f 127 126 80
f 128 81 82
f 128 127 81
f 130 80 126
f 130 84 80
f 130 83 84
f 130 129 83
f 130 125 129
f 130 126 125
f 132 128 82
f 132 82 86
f 131 127 128
f 131 128 132
f 133 83 129
f 133 88 83
f 135 132 86
f 135 86 91
f 135 91 90
f 135 90 134
f 135 134 131
f 135 131 132
f 133 93 88
f 133 136 93
f 137 94 93
f 137 93 136
f 138 134 90
f 138 90 95
f 139 94 137
f 139 98 94
f 140 138 95
f 140 95 99
f 139 137 138
f 139 138 140
f 142 105 106
f 142 141 105
f 143 106 107
f 143 142 106
f 141 111 105
f 141 144 111
f 145 144 141
f 145 141 142
f 143 107 113
f 143 113 146
f 145 142 143
f 145 143 146
f 144 117 111
f 144 147 117
f 148 118 117
f 148 117 147
f 147 144 145
f 147 145 148
f 149 146 113
f 149 113 119
f 149 119 118
f 149 118 148
f 149 148 145
f 149 145 146
f 151 125 126
f 151 150 125
f 152 126 127
f 152 151 126
f 153 125 150
f 153 129 125
f 154 153 150
f 154 150 151
f 152 127 131
f 152 131 155
f 154 151 152
f 154 152 155
f 153 133 129
f 153 156 133
f 156 153 154
f 156 154 157
f 155 131 134
f 155 134 158
f 158 157 154
f 158 154 155
f 159 133 156
f 159 136 133
f 137 136 159
f 137 159 160
f 160 159 156
f 160 156 157
f 161 158 134
f 161 134 138
f 161 138 137
f 161 137 160
f 163 157 158
f 163 162 157
f 164 157 162
f 164 160 157
f 163 158 161
f 163 161 165
f 161 160 164
f 161 164 165
