# parsimony mesh: cplx_CPLX0-7887 (source /Users/eranagmon/code/v2e-cplx/workspace/studies/ecoli-3d/viz/3d/structures/cplx_CPLX0-7887.pdb)
# atoms: 6508  voxel: 16 Å  verts: 181  tris: 352
v 56.9252 -79.9461 -24.1805
v 65.9570 -80.6412 -24.7361
v 76.1933 -80.5129 -24.5283
v 53.4264 -71.4061 -25.4725
v 65.9570 -71.4061 -27.1099
v 78.0904 -71.4061 -25.2285
v 54.1134 -55.4061 -25.1816
v 64.7963 -54.9076 -25.6110
v 77.2320 -59.9086 -24.8370
v 57.8414 -47.2991 -23.7927
v 58.6891 -47.2991 -23.7927
v -70.0921 48.5707 -23.6161
v -69.3656 48.5707 -23.6161
v -86.6257 63.3950 -24.5368
v -76.4725 57.4746 -25.3264
v -63.2365 55.2421 -25.7344
v -50.2150 59.6742 -25.2168
v -86.6257 65.6444 -24.5368
v -77.6234 71.6242 -26.6061
v -60.5416 74.1040 -27.0141
v -50.2150 69.7774 -25.2168
v -72.0104 82.1353 -25.7489
v -64.8740 82.1353 -25.7489
v 54.2555 -80.7180 -15.5910
v 65.9570 -83.4399 -15.5910
v 81.6988 -82.3387 -15.5972
v 91.2822 -80.6645 -10.2680
v 47.0504 -71.4061 -15.5910
v 86.0904 -71.4061 -20.3137
v 93.0662 -71.4061 -12.3137
v 49.5580 -55.4061 -15.5910
v 69.3557 -49.2420 -18.4927
v 82.3220 -54.9076 -17.9110
v 93.1816 -55.4061 -12.3148
v 56.7367 -40.9419 -14.2297
v 64.5944 -41.9169 -13.2408
v 81.9570 -46.3675 -9.7761
v 91.4361 -46.2261 -10.2695
v 57.5150 -30.4894 -7.9888
v 59.8330 -30.4894 -7.9888
v -72.6846 47.6630 -15.5910
v -63.2365 46.7348 -16.9544
v -46.0430 46.8249 -12.0650
v -37.5352 48.0926 -8.6174
v -87.1009 61.3278 -15.5910
v -80.6846 53.3278 -15.5910
v -58.6989 49.0076 -23.1966
v -45.3462 55.2421 -19.6545
v -36.3754 56.5939 -10.9662
v -87.1009 66.5376 -15.5910
v -80.9646 74.5376 -15.5910
v -54.2074 80.4441 -23.3207
v -45.3462 74.1040 -20.2688
v -35.6841 72.5939 -11.6410
v -73.3438 87.9188 -14.7595
v -61.1051 87.5563 -16.0963
v -46.0430 82.9319 -12.8328
v -36.6135 81.9946 -9.5170
v -71.6488 99.3335 -8.8718
v -68.0029 99.3335 -8.8718
v 51.1615 -81.5891 0.4090
v 65.9570 -84.9091 0.4090
v 83.3652 -82.8171 1.7566
v 91.2822 -80.6645 -2.6783
v 40.1937 -68.5812 3.7710
v 43.3620 -72.9112 -0.7738
v 89.6374 -79.0525 7.9883
v 94.4621 -72.7940 1.7566
v 40.1937 -60.9263 3.7710
v 46.7531 -55.5182 -0.7738
v 69.8757 -51.5488 3.1174
v 81.9570 -53.1597 1.7394
v 94.5544 -55.9234 -0.1518
v 55.6465 -39.7948 -0.6291
v 64.8544 -40.9610 -1.7686
v 81.9570 -46.3675 -6.2606
v 91.4361 -46.2261 -5.8589
v 57.6941 -23.0685 0.7594
v 58.9567 -23.0685 0.7594
v 57.8731 -15.3118 8.1733
v 58.0805 -15.3118 8.1733
v -86.5643 48.1678 6.2104
v -78.5268 46.7007 0.6898
v -62.0430 44.0646 0.4090
v -46.0278 46.3072 -0.3238
v -37.5352 48.0926 -6.1456
v -88.3499 56.3003 0.6898
v -84.1826 50.7712 -4.4562
v -40.6843 51.2151 4.5210
v -35.4817 56.5667 -0.3238
v -88.5357 69.3093 0.4090
v -83.0481 77.3093 0.4090
v -57.3520 76.9817 4.4937
v -46.0430 75.9237 3.4331
v -34.9286 72.6251 0.3774
v -75.0106 88.7774 0.3870
v -62.6775 88.2718 -0.2337
v -46.0430 82.9319 -4.5669
v -36.6135 81.9946 -4.9770
v -71.3218 104.7828 0.4888
v -68.5375 104.7828 0.4888
v -70.9948 113.7880 5.9385
v -69.0720 113.7880 5.9385
v 40.8102 -80.4242 19.2964
v 48.4628 -81.3619 14.9415
v 65.1296 -81.8935 16.7451
v 78.9707 -81.3103 11.6359
v 39.7433 -72.9112 14.9415
v 42.1332 -79.2479 8.6298
v 68.2439 -71.4061 20.0602
v 83.3652 -72.7940 12.2158
v 93.3198 -68.3858 9.8855
v 40.0500 -60.9192 16.4090
v 48.2374 -52.9192 16.4090
v 66.4543 -56.2917 15.7938
v 81.9570 -61.1597 10.7474
v 93.3198 -61.6016 9.8855
v 56.2374 -45.6844 16.4090
v 59.2574 -45.6844 16.4090
v 57.8731 -15.6476 8.4929
v 58.0805 -15.6476 8.4929
v 57.8731 -15.3118 8.4929
v 58.0805 -15.3118 8.4929
v -86.5643 48.1678 10.8668
v -77.4283 47.2698 16.2837
v -63.3216 46.6539 16.1293
v -51.3510 47.1414 10.6095
v -88.9531 55.8754 16.2837
v -82.3519 50.0631 21.5335
v -60.0625 56.5939 19.3501
v -46.0278 56.5667 11.6488
v -35.9975 61.8818 9.8872
v -89.2896 69.5952 16.4090
v -83.0265 77.5952 16.4090
v -60.3458 72.0266 15.8416
v -46.0430 67.9237 10.8084
v -35.9975 67.3126 9.8872
v -75.0265 83.7481 16.4090
v -67.5003 83.7481 16.4090
v -70.9948 110.2321 9.2194
v -69.0720 110.2321 9.2194
v -70.9948 113.7880 9.2194
v -69.0720 113.7880 9.2194
v 39.8698 -81.6383 32.4090
v 49.6332 -81.5158 31.2207
v 59.2447 -79.9460 25.0951
v 39.8196 -71.9411 31.4157
v 49.6332 -71.9411 32.5304
v 60.2439 -71.4061 25.8023
v 41.1776 -62.5700 25.4202
v 51.3409 -56.5045 25.9121
v 59.6396 -55.4061 25.5294
v 57.5969 -47.1293 24.7313
v 58.4389 -47.1293 24.7313
v -88.0732 47.0711 36.4552
v -78.0519 47.6978 30.6018
v -69.5073 48.3244 24.7485
v -87.9746 55.8199 31.5342
v -80.0497 54.0134 30.4288
v -68.0625 56.5939 25.7607
v -87.8761 66.5162 26.6132
v -77.5826 72.1473 27.4227
v -67.4397 72.5939 26.5229
v -71.9423 81.8271 25.7648
v -68.6770 81.8271 25.7648
v 40.4373 -81.4911 48.4090
v 43.8058 -81.4911 48.4090
v 40.4373 -77.8196 48.4090
v 43.8058 -77.8196 48.4090
v -87.8082 47.2862 48.4090
v -84.7151 47.2862 48.4090
v -87.8082 50.4887 48.4090
v -84.7151 50.4887 48.4090
v 41.5670 -80.2280 56.7140
v 42.2951 -80.2280 56.7140
v 41.5670 -79.0657 56.7140
v 42.2951 -79.0657 56.7140
v -86.3664 48.3731 56.5549
v -85.8970 48.3731 56.5549
v -86.3664 48.8041 56.5549
v -85.8970 48.8041 56.5549
f 5 1 4
f 5 2 1
f 5 3 2
f 5 6 3
f 7 5 4
f 7 8 5
f 9 5 8
f 9 6 5
f 11 7 10
f 11 8 7
f 16 12 15
f 16 13 12
f 19 14 18
f 19 15 14
f 19 16 15
f 19 20 16
f 20 17 16
f 20 21 17
f 22 20 19
f 22 23 20
f 25 1 2
f 25 24 1
f 3 25 2
f 3 26 25
f 24 4 1
f 24 28 4
f 29 26 3
f 29 3 6
f 29 27 26
f 29 30 27
f 31 4 28
f 31 7 4
f 29 6 9
f 29 9 33
f 9 8 32
f 9 32 33
f 34 29 33
f 34 30 29
f 31 10 7
f 31 35 10
f 32 8 11
f 32 11 36
f 11 10 35
f 11 35 36
f 37 32 36
f 37 33 32
f 37 34 33
f 37 38 34
f 40 35 39
f 40 36 35
f 13 41 12
f 13 42 41
f 46 12 41
f 46 15 12
f 46 14 15
f 46 45 14
f 47 42 13
f 47 13 16
f 17 47 16
f 17 48 47
f 47 43 42
f 47 48 43
f 49 43 48
f 49 44 43
f 50 14 45
f 50 18 14
f 51 19 18
f 51 18 50
f 53 48 17
f 53 17 21
f 21 20 52
f 21 52 53
f 54 48 53
f 54 49 48
f 51 22 19
f 51 55 22
f 52 20 23
f 52 23 56
f 23 22 55
f 23 55 56
f 57 52 56
f 57 53 52
f 57 54 53
f 57 58 54
f 60 55 59
f 60 56 55
f 62 24 25
f 62 61 24
f 26 62 25
f 26 63 62
f 27 63 26
f 27 64 63
f 61 28 24
f 61 66 28
f 64 27 30
f 64 30 68
f 67 63 64
f 67 64 68
f 70 28 66
f 70 31 28
f 69 66 65
f 69 70 66
f 73 68 30
f 73 30 34
f 70 35 31
f 70 74 35
f 76 37 36
f 76 36 75
f 76 75 71
f 76 71 72
f 77 73 34
f 77 34 38
f 77 38 37
f 77 37 76
f 77 76 72
f 77 72 73
f 74 39 35
f 74 78 39
f 75 36 40
f 75 40 79
f 79 40 39
f 79 39 78
f 79 78 74
f 79 74 75
f 81 78 80
f 81 79 78
f 84 41 42
f 84 83 41
f 43 84 42
f 43 85 84
f 86 43 44
f 86 85 43
f 88 41 83
f 88 46 41
f 88 45 46
f 88 87 45
f 88 82 87
f 88 83 82
f 86 44 49
f 86 49 90
f 89 85 86
f 89 86 90
f 91 45 87
f 91 50 45
f 51 50 91
f 51 91 92
f 90 49 54
f 90 54 95
f 92 55 51
f 92 96 55
f 98 57 56
f 98 56 97
f 98 97 93
f 98 93 94
f 99 95 54
f 99 54 58
f 58 57 98
f 58 98 99
f 99 98 94
f 99 94 95
f 96 59 55
f 96 100 59
f 97 56 60
f 97 60 101
f 101 60 59
f 101 59 100
f 101 100 96
f 101 96 97
f 103 100 102
f 103 101 100
f 106 61 62
f 106 105 61
f 107 62 63
f 107 106 62
f 109 61 105
f 109 66 61
f 109 65 66
f 109 108 65
f 109 104 108
f 109 105 104
f 107 63 67
f 107 67 111
f 110 106 107
f 110 107 111
f 112 67 68
f 112 111 67
f 113 65 108
f 113 69 65
f 114 70 69
f 114 69 113
f 116 72 71
f 116 71 115
f 116 115 110
f 116 110 111
f 117 112 68
f 117 68 73
f 117 73 72
f 117 72 116
f 116 111 112
f 116 112 117
f 118 70 114
f 118 74 70
f 119 115 71
f 119 71 75
f 119 75 74
f 119 74 118
f 121 78 79
f 121 120 78
f 120 80 78
f 120 122 80
f 121 79 81
f 121 81 123
f 81 80 122
f 81 122 123
f 122 120 121
f 122 121 123
f 83 124 82
f 83 125 124
f 126 83 84
f 126 125 83
f 127 84 85
f 127 126 84
f 128 82 124
f 128 87 82
f 129 128 124
f 129 124 125
f 127 85 89
f 127 89 131
f 130 126 127
f 130 127 131
f 132 89 90
f 132 131 89
f 133 87 128
f 133 91 87
f 92 91 133
f 92 133 134
f 136 94 93
f 136 93 135
f 136 135 130
f 136 130 131
f 132 90 95
f 132 95 137
f 137 95 94
f 137 94 136
f 136 131 132
f 136 132 137
f 138 92 134
f 138 96 92
f 139 135 93
f 139 93 97
f 139 97 96
f 139 96 138
f 141 100 101
f 141 140 100
f 140 102 100
f 140 142 102
f 141 101 103
f 141 103 143
f 103 102 142
f 103 142 143
f 142 140 141
f 142 141 143
f 145 104 105
f 145 144 104
f 146 105 106
f 146 145 105
f 147 104 144
f 147 108 104
f 146 106 110
f 146 110 149
f 148 145 146
f 148 146 149
f 150 108 147
f 150 113 108
f 114 113 150
f 114 150 151
f 150 147 148
f 150 148 151
f 152 149 110
f 152 110 115
f 151 148 149
f 151 149 152
f 153 114 151
f 153 118 114
f 152 115 119
f 152 119 154
f 119 118 153
f 119 153 154
f 153 151 152
f 153 152 154
f 157 125 126
f 157 156 125
f 156 129 125
f 156 159 129
f 129 158 128
f 129 159 158
f 159 155 158
f 159 156 155
f 157 126 130
f 157 130 160
f 159 156 157
f 159 157 160
f 161 128 158
f 161 133 128
f 134 133 161
f 134 161 162
f 161 158 159
f 161 159 162
f 163 160 130
f 163 130 135
f 162 159 160
f 162 160 163
f 164 134 162
f 164 138 134
f 163 135 139
f 163 139 165
f 139 138 164
f 139 164 165
f 164 162 163
f 164 163 165
f 167 144 145
f 167 166 144
f 168 144 166
f 168 147 144
f 169 167 145
f 169 145 148
f 169 148 147
f 169 147 168
f 171 155 156
f 171 170 155
f 172 155 170
f 172 158 155
f 173 171 156
f 173 156 159
f 173 159 158
f 173 158 172
f 175 166 167
f 175 174 166
f 174 168 166
f 174 176 168
f 175 167 169
f 175 169 177
f 177 169 168
f 177 168 176
f 171 178 170
f 171 179 178
f 180 170 178
f 180 172 170
f 181 179 171
f 181 171 173
f 173 172 180
f 173 180 181
