# parsimony mesh: cplx_CPLX0-7726 (source /Users/eranagmon/code/v2e-cplx/workspace/studies/ecoli-3d/viz/3d/structures/cplx_CPLX0-7726.pdb)
# atoms: 6240  voxel: 16 Å  verts: 148  tris: 284
v 55.7356 -43.4738 -29.1781
v 67.0532 -45.6052 -29.5889
v 76.1818 -44.7714 -28.6336
v 55.8050 -33.1574 -29.0964
v 65.6507 -33.7774 -29.4413
v 76.1818 -39.5241 -28.6336
v 58.0399 -24.9763 -27.9771
v 59.3824 -24.9763 -27.9771
v -37.0264 38.8039 -27.5746
v -28.9468 37.7234 -28.3767
v -19.3447 37.3890 -28.6209
v -37.8743 46.8426 -28.9266
v -28.9468 46.8426 -31.0783
v -17.9216 46.8426 -29.6917
v -38.1040 56.2797 -29.3541
v -28.9468 57.5016 -30.2416
v -18.5153 56.9509 -29.3280
v 41.1222 -57.5074 -12.0106
v 51.0532 -58.4074 -13.3036
v 60.6526 -58.4741 -13.4208
v 22.2621 -45.0982 -13.2683
v 35.4946 -49.9219 -14.3096
v 50.6626 -48.9473 -20.8011
v 67.0713 -49.4559 -18.6652
v 76.1818 -44.7714 -23.9096
v 22.2621 -38.5475 -13.2683
v 35.0532 -37.2119 -14.6490
v 48.2740 -33.1669 -19.3903
v 70.1425 -33.7774 -18.9618
v 76.1818 -39.5241 -23.9096
v 56.0675 -24.4359 -19.5400
v 62.0873 -24.4359 -19.5400
v -37.5283 22.5991 -11.8256
v -36.3503 22.5991 -11.8256
v -69.2596 38.5019 -11.9081
v -60.9468 36.9831 -13.3791
v -42.6107 32.4206 -18.0581
v -30.1889 30.1969 -18.1114
v -18.5485 36.0645 -19.5400
v -69.2596 40.0765 -11.9081
v -60.7793 45.9830 -13.4599
v -45.8743 46.8426 -21.6638
v -15.1832 46.8426 -19.5400
v -55.3343 55.4864 -12.2878
v -44.0411 57.0943 -18.3887
v -28.9468 59.9669 -19.5400
v -17.5816 57.6351 -19.5400
v 9.7486 -58.5456 2.8064
v 19.0532 -59.6649 0.1873
v 35.4946 -59.3258 -4.3660
v 51.0532 -60.4746 -3.5400
v 61.7660 -59.2306 -3.5400
v 9.2292 -49.1574 -0.3664
v 17.7785 -49.9219 -8.2271
v 30.4556 -55.7649 -10.2501
v 69.8855 -47.6470 -2.2828
v 75.1228 -41.3067 3.8887
v 9.9258 -38.0276 -0.3216
v 18.9805 -32.9542 -3.5020
v 34.8594 -28.7138 -2.2254
v 46.9126 -27.5603 -3.5400
v 70.1078 -34.6836 -2.2828
v 75.1228 -41.0345 3.8887
v 26.3656 -25.0239 3.9843
v 29.3968 -25.0239 3.9843
v 54.9126 -24.4549 -3.5400
v 62.0439 -24.4549 -3.5400
v -69.6333 22.3806 3.8385
v -60.9468 22.2716 3.5177
v -43.6957 22.3238 -2.3210
v -35.7251 22.4186 -3.5400
v -70.7265 32.2382 -2.3129
v -60.9468 28.9831 -4.4823
v -48.1950 26.0373 -6.8416
v -27.7251 27.0630 -3.5400
v -18.3561 35.0630 -3.5400
v -71.6220 45.9830 -3.9874
v -66.0009 50.7432 -9.6189
v -15.8250 46.8426 -3.5400
v -71.1258 56.4882 1.0477
v -60.7793 56.9520 -3.9874
v -44.9468 58.7282 -3.5400
v -28.9468 59.5692 -3.5400
v -18.4158 57.0862 -3.5400
v 9.7486 -58.5456 7.2661
v 19.5023 -59.7126 12.5437
v 35.0532 -61.3811 12.4600
v 51.0532 -60.6393 12.4600
v 60.9389 -58.5684 12.4600
v 9.2292 -49.1574 8.5726
v 15.3569 -49.1574 16.5726
v 67.0909 -47.6470 10.9784
v 75.1228 -41.3067 4.6573
v 9.9258 -38.0276 7.1374
v 19.8709 -32.9338 11.3298
v 34.8594 -28.3748 11.0973
v 51.1213 -29.6785 11.4027
v 64.6298 -35.5236 10.3442
v 75.1228 -41.0345 4.6573
v 26.3656 -25.0239 4.8555
v 29.3968 -25.0239 4.8555
v 56.5001 -25.0017 5.3645
v 59.3245 -25.0017 5.3645
v -69.6333 22.3806 5.5098
v -59.4856 22.3308 11.4899
v -46.1035 22.4149 12.0584
v -35.9144 22.5207 6.4574
v -71.1055 31.5262 11.4899
v -63.8447 26.6486 16.1765
v -41.5413 24.5202 17.1241
v -29.9274 27.8341 12.0584
v -19.0099 35.8238 12.4600
v -72.0010 47.2222 13.2649
v -60.9468 52.5102 18.6409
v -51.4008 53.7667 19.3598
v -25.0794 50.6035 16.6638
v -18.6058 45.8991 11.7823
v -71.1258 56.4882 8.4681
v -60.9468 56.9966 10.6409
v -45.6192 57.1745 13.3999
v -29.8264 57.2645 11.7823
v -19.6276 56.2190 5.9971
v 25.1351 -58.0726 21.7434
v 35.0532 -58.9331 22.6428
v 51.0532 -58.5721 21.9492
v 59.5498 -57.5912 20.8187
v 23.3569 -49.1574 23.0662
v 35.0532 -49.1574 26.7592
v 51.0532 -49.1574 24.4794
v 59.5871 -49.1574 20.7865
v 24.0429 -38.5067 22.6516
v 35.0532 -36.7882 24.5764
v 51.0532 -38.4178 22.9902
v 59.2685 -40.6794 20.5366
v -53.1781 22.7509 20.5909
v -52.2080 22.7509 20.5909
v -69.8913 37.3152 21.5399
v -59.4856 31.5262 22.7110
v -46.1035 30.2492 23.2374
v -28.9468 35.1738 22.4204
v -20.2230 37.6065 21.1167
v -69.8913 42.1420 21.5399
v -60.9468 44.5102 23.1756
v -45.6192 47.7971 23.6175
v -29.8264 45.8991 22.4870
v -20.2230 39.9368 21.1167
v -40.7341 55.8640 21.2245
v -35.7461 55.8640 21.2245
f 5 1 4
f 5 2 1
f 6 2 5
f 6 3 2
f 8 4 7
f 8 5 4
f 13 9 12
f 13 10 9
f 13 11 10
f 13 14 11
f 15 13 12
f 15 16 13
f 17 13 16
f 17 14 13
f 23 18 22
f 23 19 18
f 24 1 2
f 24 23 1
f 23 20 19
f 23 24 20
f 25 2 3
f 25 24 2
f 27 21 26
f 27 22 21
f 28 1 23
f 28 4 1
f 27 23 22
f 27 28 23
f 6 5 29
f 6 29 30
f 29 24 25
f 29 25 30
f 31 4 28
f 31 7 4
f 32 29 5
f 32 5 8
f 8 7 31
f 8 31 32
f 38 9 10
f 38 37 9
f 38 33 37
f 38 34 33
f 39 10 11
f 39 38 10
f 40 36 35
f 40 41 36
f 42 9 37
f 42 12 9
f 42 36 41
f 42 37 36
f 43 39 11
f 43 11 14
f 42 15 12
f 42 45 15
f 44 42 41
f 44 45 42
f 46 16 15
f 46 15 45
f 43 14 17
f 43 17 47
f 17 16 46
f 17 46 47
f 51 18 19
f 51 50 18
f 20 51 19
f 20 52 51
f 53 49 48
f 53 54 49
f 55 18 50
f 55 22 18
f 55 21 22
f 55 54 21
f 55 49 54
f 55 50 49
f 56 52 20
f 56 20 24
f 54 26 21
f 54 59 26
f 58 54 53
f 58 59 54
f 60 27 26
f 60 26 59
f 61 28 27
f 61 27 60
f 56 24 29
f 56 29 62
f 62 57 56
f 62 63 57
f 64 60 59
f 64 65 60
f 61 31 28
f 61 66 31
f 67 62 29
f 67 29 32
f 67 32 31
f 67 31 66
f 71 33 34
f 71 70 33
f 73 35 36
f 73 72 35
f 73 68 72
f 73 69 68
f 74 33 70
f 74 37 33
f 74 36 37
f 74 73 36
f 74 69 73
f 74 70 69
f 75 71 34
f 75 34 38
f 76 38 39
f 76 75 38
f 77 35 72
f 77 40 35
f 78 41 40
f 78 40 77
f 79 76 39
f 79 39 43
f 78 44 41
f 78 81 44
f 80 78 77
f 80 81 78
f 82 45 44
f 82 44 81
f 83 46 45
f 83 45 82
f 84 79 43
f 84 43 47
f 84 47 46
f 84 46 83
f 49 85 48
f 49 86 85
f 87 49 50
f 87 86 49
f 51 87 50
f 51 88 87
f 89 51 52
f 89 88 51
f 90 48 85
f 90 53 48
f 91 90 85
f 91 85 86
f 92 89 52
f 92 52 56
f 93 56 57
f 93 92 56
f 94 53 90
f 94 58 53
f 59 58 94
f 59 94 95
f 94 90 91
f 94 91 95
f 61 60 96
f 61 96 97
f 99 63 62
f 99 62 98
f 99 98 92
f 99 92 93
f 95 64 59
f 95 100 64
f 96 60 65
f 96 65 101
f 65 64 100
f 65 100 101
f 100 95 96
f 100 96 101
f 102 61 97
f 102 66 61
f 103 98 62
f 103 62 67
f 103 67 66
f 103 66 102
f 103 102 97
f 103 97 98
f 69 104 68
f 69 105 104
f 106 69 70
f 106 105 69
f 107 70 71
f 107 106 70
f 108 68 104
f 108 72 68
f 109 108 104
f 109 104 105
f 107 71 75
f 107 75 111
f 110 106 107
f 110 107 111
f 112 75 76
f 112 111 75
f 108 77 72
f 108 113 77
f 117 112 76
f 117 76 79
f 113 80 77
f 113 118 80
f 119 81 80
f 119 80 118
f 118 113 114
f 118 114 119
f 82 81 119
f 82 119 120
f 119 114 115
f 119 115 120
f 121 83 82
f 121 82 120
f 122 117 79
f 122 79 84
f 122 84 83
f 122 83 121
f 122 121 116
f 122 116 117
f 87 123 86
f 87 124 123
f 125 87 88
f 125 124 87
f 126 88 89
f 126 125 88
f 123 91 86
f 123 127 91
f 128 127 123
f 128 123 124
f 129 128 124
f 129 124 125
f 130 126 89
f 130 89 92
f 129 125 126
f 129 126 130
f 131 91 127
f 131 95 91
f 96 95 131
f 96 131 132
f 131 127 128
f 131 128 132
f 97 96 132
f 97 132 133
f 133 132 128
f 133 128 129
f 134 130 92
f 134 92 98
f 134 98 97
f 134 97 133
f 134 133 129
f 134 129 130
f 106 135 105
f 106 136 135
f 135 109 105
f 135 138 109
f 109 137 108
f 109 138 137
f 136 106 110
f 136 110 139
f 139 138 135
f 139 135 136
f 140 110 111
f 140 139 110
f 112 140 111
f 112 141 140
f 137 113 108
f 137 142 113
f 114 113 142
f 114 142 143
f 143 142 137
f 143 137 138
f 115 114 143
f 115 143 144
f 143 138 139
f 143 139 144
f 144 139 140
f 144 140 145
f 146 141 112
f 146 112 117
f 146 117 116
f 146 116 145
f 146 145 140
f 146 140 141
f 147 115 144
f 147 120 115
f 148 145 116
f 148 116 121
f 148 121 120
f 148 120 147
f 148 147 144
f 148 144 145
