# parsimony mesh: cplx_APORNAP-CPLX (source /Users/eranagmon/code/v2e-cplx/workspace/studies/ecoli-3d/viz/3d/structures/cplx_APORNAP-CPLX.pdb)
# atoms: 5124  voxel: 8 Å  verts: 654  tris: 1332
v 61.2345 -63.3815 -35.8556
v 62.9497 -63.3815 -35.8556
v 61.2345 -61.1753 -35.8556
v 62.9497 -61.1753 -35.8556
v -75.2435 73.1300 -35.5622
v -73.4545 73.1300 -35.5622
v -75.2435 74.9592 -35.5622
v -73.4545 74.9592 -35.5622
v 109.4191 -87.0226 -27.6191
v 114.0042 -87.1240 -27.8492
v 122.0042 -86.8415 -27.7498
v 126.5362 -86.6460 -27.4866
v 108.4022 -81.8260 -28.2878
v 114.0042 -81.8260 -29.1410
v 122.3967 -81.5524 -28.0187
v 130.0165 -80.9685 -27.3164
v 134.0411 -77.9004 -27.1463
v 108.4534 -75.9537 -28.1716
v 114.0042 -75.4640 -28.4022
v 119.9917 -76.5489 -27.7716
v 133.4968 -77.7605 -27.1463
v 134.0411 -77.7605 -27.1463
v 61.2345 -63.3815 -33.9626
v 65.9577 -63.4674 -30.9589
v 70.8506 -63.5533 -27.9551
v 61.2345 -61.1753 -33.9626
v 65.9577 -60.9474 -30.9589
v 70.8506 -60.7195 -27.9551
v -11.1109 49.7279 -27.4814
v -9.6416 49.7279 -27.4814
v -74.2063 58.0499 -27.2150
v -73.0466 58.0499 -27.2150
v -34.5251 57.4994 -27.6191
v -29.9958 56.1519 -28.2823
v -21.9958 55.4862 -28.7105
v -13.4075 54.4015 -27.8358
v -9.6416 52.1911 -27.4814
v -74.2063 58.9439 -27.2150
v -73.0466 58.9439 -27.2150
v -34.5251 59.9833 -27.6191
v -30.2863 62.4596 -28.2950
v -21.9958 62.1740 -29.3893
v -15.2558 62.1740 -28.2901
v -75.6016 71.9745 -31.1104
v -70.4710 72.3178 -30.3622
v -65.9357 74.0130 -27.1968
v -27.8134 66.7140 -27.5223
v -21.9958 67.0534 -27.7892
v -16.6341 66.8066 -27.6036
v -75.6016 75.5847 -31.1104
v -70.4710 75.5151 -30.3622
v -65.9357 74.5284 -27.1968
v 101.0395 -86.6815 -20.0755
v 106.4532 -88.0129 -22.8894
v 114.0042 -90.2909 -23.1104
v 122.0042 -89.8486 -23.1104
v 127.5547 -87.4755 -23.1104
v 53.7449 -78.2398 -19.5207
v 58.0042 -78.9840 -20.6044
v 66.0042 -79.4587 -21.7484
v 74.0042 -79.3728 -21.5846
v 82.0042 -79.2971 -20.9726
v 90.0042 -79.1035 -20.4050
v 98.2254 -81.4805 -20.8952
v 104.4022 -81.8260 -24.8866
v 125.3251 -78.7033 -26.3797
v 129.8857 -80.1829 -24.8003
v 134.0411 -77.9004 -27.0142
v 53.7449 -76.3392 -19.5207
v 58.0042 -75.5689 -20.6044
v 66.0042 -74.7102 -21.7484
v 73.2503 -73.0469 -21.4208
v 81.6938 -73.8360 -20.9312
v 90.0042 -76.0109 -20.4050
v 98.0042 -75.7880 -20.6176
v 105.7214 -73.4162 -23.3815
v 114.0042 -71.4640 -25.5925
v 122.3967 -73.8597 -25.1055
v 129.8601 -75.5122 -23.8497
v 134.0411 -77.7605 -27.0142
v 61.1505 -63.0047 -20.0271
v 66.1811 -65.1440 -22.8604
v 73.1603 -66.7989 -21.6325
v 78.8202 -69.0782 -19.6621
v 107.5023 -65.8260 -20.5663
v 113.5360 -65.7370 -21.1774
v 122.0042 -68.0839 -21.1523
v 126.7177 -68.9847 -20.3291
v 60.3614 -57.8260 -20.4776
v 66.1811 -57.9621 -23.8960
v 71.7790 -57.9621 -22.8022
v 108.3498 -61.6589 -19.2459
v 110.5571 -61.6589 -19.2459
v 60.6676 -51.5457 -20.0166
v 65.4277 -49.2578 -20.7255
v 73.8066 -49.5279 -20.4295
v 78.2895 -46.6626 -19.5233
v 67.7100 -44.2339 -20.0762
v 74.0042 -44.0166 -20.1445
v 78.2895 -45.0055 -19.5233
v -34.5828 49.9078 -19.5414
v -29.9958 49.3217 -20.8618
v -21.9958 48.1678 -21.7452
v -13.8648 48.6603 -23.2757
v -9.4549 49.6354 -23.1104
v -82.1740 58.0579 -19.3527
v -77.4363 58.0539 -22.6178
v -70.4754 57.9627 -23.3232
v -61.9958 57.8237 -20.5284
v -57.4422 58.0055 -19.3481
v -43.3496 56.9218 -19.9281
v -37.2206 54.5439 -22.4014
v -29.9958 52.1519 -24.8618
v -21.9958 51.4862 -25.7452
v -13.4075 54.4015 -26.3653
v -9.1905 54.5843 -23.6510
v -82.8376 62.1740 -20.5925
v -76.5762 60.7080 -22.9855
v -71.3555 60.7080 -23.0757
v -61.3229 62.7965 -20.5831
v -55.0104 62.6897 -19.9062
v -46.0081 62.1704 -20.7379
v -37.5134 62.4596 -24.3865
v -33.1467 65.3166 -26.5454
v -11.2558 62.1740 -25.0824
v -9.4507 62.1740 -21.0824
v -82.9400 66.9895 -20.8443
v -77.3372 69.6374 -23.4363
v -69.9958 68.6367 -24.7218
v -64.3139 70.8774 -22.6486
v -52.5787 66.8589 -20.4643
v -45.9958 67.1522 -20.5314
v -37.4151 69.7457 -20.8296
v -30.2863 69.6980 -23.9897
v -22.0749 71.0631 -22.5950
v -13.9788 67.7055 -22.5474
v -9.8900 66.4515 -19.5054
v -76.0080 78.0314 -22.9921
v -69.9958 79.2615 -24.1938
v -65.7529 77.5866 -22.4953
v -34.3614 74.5460 -19.3332
v -29.9958 75.1232 -19.6333
v -24.7944 75.0676 -19.5847
v -82.3423 88.6499 -19.8711
v -78.3983 86.0596 -20.9448
v -69.9958 86.1740 -21.4714
v -65.2262 86.1740 -19.7489
v -82.3423 90.5946 -19.8711
v -77.3342 93.6264 -20.3756
v -69.9958 94.1740 -20.8853
v -64.5483 94.1740 -19.8743
v -74.2264 98.3319 -19.2979
v -69.9958 98.6372 -19.6077
v -65.0355 98.6337 -19.5859
v 101.0395 -86.6815 -17.5495
v 105.9623 -87.8838 -14.9739
v 114.0042 -90.9574 -15.1104
v 122.0042 -90.7511 -15.1104
v 128.4373 -87.5503 -15.1104
v 53.7449 -78.2398 -17.4203
v 57.5264 -79.2946 -14.8963
v 66.0042 -80.3917 -15.1104
v 73.6700 -79.2676 -15.1435
v 82.5499 -79.0998 -15.1435
v 89.6293 -78.9449 -15.0541
v 98.0429 -81.6344 -14.9497
v 103.2677 -84.6853 -12.2162
v 129.9932 -81.8260 -15.1104
v 53.7449 -76.3392 -17.4203
v 57.2373 -73.6546 -14.9239
v 65.7726 -71.7706 -15.1007
v 73.0974 -73.5411 -15.2306
v 82.2002 -74.0562 -15.2306
v 90.7267 -74.0469 -13.9202
v 96.7366 -73.7610 -15.0269
v 102.9894 -70.8788 -18.0893
v 128.3478 -73.8260 -15.1104
v 53.2338 -63.5724 -11.7522
v 57.8753 -65.9552 -14.7565
v 65.7726 -67.7332 -15.1007
v 73.3244 -66.3627 -16.3326
v 78.8202 -69.0782 -17.9623
v 92.5558 -69.3952 -12.0304
v 98.0042 -68.3611 -13.0347
v 105.6696 -66.1541 -15.8111
v 113.5360 -65.2337 -15.7638
v 122.0042 -67.5529 -15.1104
v 126.7919 -68.9272 -15.1104
v 52.7495 -57.8260 -12.5687
v 56.3614 -57.8260 -16.5687
v 74.2944 -57.8260 -15.1104
v 108.3498 -61.6589 -18.8661
v 110.5571 -61.6589 -18.8661
v 53.1016 -52.3769 -12.4131
v 57.9030 -49.2946 -15.5808
v 62.3767 -46.2123 -18.7485
v 75.8031 -49.5279 -15.4982
v 78.2895 -46.6626 -18.4235
v 60.4717 -44.9032 -13.4152
v 65.4277 -43.6707 -15.6932
v 73.7731 -43.7321 -15.4982
v 78.2895 -45.0055 -18.4235
v -34.5828 49.9078 -17.8246
v -30.3818 49.0808 -15.1389
v -21.9958 46.5330 -15.1104
v -13.8846 48.0316 -15.5055
v -9.6287 49.9021 -18.4356
v -82.1740 58.0579 -18.6977
v -80.6663 58.0579 -18.6977
v -67.9041 57.8755 -18.4409
v -61.9958 57.8237 -18.3190
v -57.4422 58.0055 -18.7247
v -43.3496 56.9218 -17.1002
v -37.9655 53.8835 -14.7957
v -33.3059 50.8451 -12.4913
v -11.1438 51.5357 -13.1023
v -8.9018 54.1910 -15.5055
v -83.3492 62.1261 -15.6628
v -77.9981 60.3647 -15.6628
v -70.8027 62.0396 -15.8908
v -60.3379 63.7550 -16.5058
v -55.7568 63.0997 -16.9205
v -46.0081 61.0271 -14.7042
v -41.3482 59.3433 -11.7668
v -18.3692 65.9608 -11.3556
v -17.0046 65.9608 -11.3556
v -8.7484 62.1740 -15.1104
v -90.3896 73.4747 -11.4884
v -85.7011 70.2321 -14.1669
v -77.9334 72.1556 -14.9849
v -70.6191 69.6626 -13.9216
v -61.6917 68.8776 -15.6320
v -54.7455 67.3167 -15.8379
v -45.2831 70.3034 -14.4319
v -37.6012 72.9914 -14.4168
v -29.9958 72.4685 -13.4582
v -21.5818 70.0173 -14.9264
v -14.2011 67.5375 -14.4575
v -9.8406 66.6464 -15.1104
v -90.3896 76.5380 -11.4884
v -86.7098 78.7924 -12.8380
v -78.2299 77.0257 -15.3313
v -69.9958 75.3166 -12.9516
v -64.6616 77.4957 -14.5749
v -42.1414 74.2691 -11.3130
v -37.6012 74.4076 -14.4168
v -29.9958 75.1232 -17.4582
v -24.7944 75.0676 -18.4971
v -84.4114 86.0596 -15.5702
v -81.3334 83.3166 -18.5434
v -63.4755 86.1740 -15.1104
v -83.1227 91.1967 -15.1104
v -77.3342 95.2622 -15.4638
v -69.9958 96.1167 -13.7472
v -64.5646 93.8582 -15.2664
v -74.2264 98.3319 -18.3661
v -69.9958 98.6372 -17.7472
v -65.0355 98.6337 -18.0371
v 101.5048 -86.2860 -4.4823
v 105.8339 -86.5467 -7.2499
v 114.0042 -87.7904 -9.2984
v 122.0042 -87.7440 -9.7828
v 127.7130 -86.7456 -10.6634
v 58.9300 -78.6988 -7.1104
v 65.4388 -78.7284 -7.6663
v 70.7805 -78.1663 -10.7036
v 85.5803 -77.9875 -10.9077
v 86.7127 -77.9875 -10.9077
v 100.0955 -81.9416 -7.1335
v 106.0200 -83.0514 -7.2600
v 114.0042 -81.8260 -6.3585
v 122.0042 -81.8260 -6.9148
v 128.2485 -81.8260 -9.8996
v 52.7686 -72.0082 -5.0782
v 55.1024 -74.3353 -7.4910
v 66.8080 -74.2632 -7.6663
v 70.7805 -77.2213 -10.7036
v 85.5803 -76.9363 -10.9077
v 89.6342 -73.9973 -10.7372
v 97.9967 -73.6746 -7.3911
v 106.2307 -73.7049 -5.8748
v 114.0042 -73.8260 -7.5208
v 122.0042 -73.8260 -7.8467
v 127.2195 -73.8260 -10.0628
v 51.7189 -66.0738 -7.4910
v 54.6002 -68.9057 -10.4115
v 68.0003 -65.4516 -6.5134
v 71.2334 -62.5353 -8.7820
v 92.5558 -69.3952 -10.5666
v 98.0042 -68.3611 -9.5315
v 106.0042 -68.3182 -9.5133
v 114.0042 -69.1968 -10.4607
v 122.0042 -69.2949 -10.7148
v 126.3410 -69.4688 -10.8811
v 50.1714 -57.8260 -7.1104
v 69.7157 -61.6437 -3.4487
v 72.8728 -58.5166 -6.5134
v 52.1014 -50.7449 -7.1104
v 54.8639 -46.7449 -7.1104
v 68.5219 -46.9504 -4.6055
v 72.7042 -49.7006 -7.2075
v 58.8639 -44.7681 -7.1104
v 65.9148 -44.3333 -7.2075
v 70.9523 -44.7488 -9.9389
v -27.9725 49.4885 -10.2677
v -21.9958 48.5393 -9.7308
v -16.4771 48.6799 -10.1136
v -36.6536 56.0218 -7.1104
v -30.3818 53.2372 -7.4047
v -22.6231 54.9591 -5.4157
v -13.8846 54.1910 -8.5535
v -9.1605 56.8690 -10.1641
v -84.1008 64.5833 -7.1104
v -77.9958 63.6206 -7.1104
v -73.5971 65.2113 -7.1104
v -58.6961 65.3525 -10.6509
v -53.9958 65.2518 -10.6002
v -45.4025 64.3997 -7.7779
v -40.6536 60.2621 -7.1104
v -28.1349 63.5358 -5.1362
v -22.0386 62.0816 -6.9641
v -14.2011 62.8461 -9.0777
v -9.2934 62.1740 -10.3083
v -90.8331 72.2818 -7.1104
v -88.1008 68.2818 -7.1104
v -76.0817 71.9883 -9.1857
v -73.3460 69.6626 -6.7555
v -58.6961 67.1491 -10.6509
v -53.9958 67.0888 -10.6002
v -44.9075 69.1223 -8.2733
v -38.1029 71.1891 -7.8383
v -30.4792 68.2244 -7.5259
v -23.7025 66.8847 -10.4695
v -11.6713 66.5265 -10.9872
v -9.8946 66.5265 -10.9872
v -91.3101 78.7924 -7.8241
v -89.8525 81.8713 -10.9666
v -76.0817 75.4946 -9.1857
v -70.4650 76.3263 -6.7555
v -64.2648 79.8740 -7.1104
v -42.1414 74.2691 -10.9902
v -40.8409 74.2691 -10.9902
v -91.0698 83.5964 -5.6332
v -88.1020 86.2275 -7.8241
v -63.9197 86.1740 -7.1104
v -83.7360 91.6050 -7.1104
v -77.9958 93.7148 -7.1104
v -69.9958 92.8927 -7.1104
v -65.6507 90.7829 -7.1104
v 101.5048 -86.2860 -2.3960
v 103.0669 -86.2860 -2.3960
v 29.8890 -78.2095 4.7523
v 34.0042 -79.9133 4.1215
v 39.5577 -80.2256 4.0028
v 60.0351 -78.0861 -2.2607
v 62.3951 -78.0861 -2.2607
v 100.8368 -81.8260 -1.1718
v 104.0843 -81.8260 -1.1718
v 29.8890 -77.5105 4.7523
v 34.0667 -74.4367 3.8251
v 42.1363 -73.9899 2.9693
v 50.0629 -73.0468 0.7515
v 57.6227 -76.0094 0.5994
v 63.7970 -73.7525 0.5994
v 100.9471 -76.2909 -1.2400
v 103.7151 -76.2909 -1.2400
v 36.7750 -68.7760 4.1396
v 42.0042 -67.6748 3.1544
v 47.9128 -65.5350 0.7515
v 68.1893 -65.7938 0.2391
v 70.5308 -63.1057 2.4721
v 49.3150 -57.8260 0.8896
v 69.7157 -61.6437 -2.8612
v 71.3229 -58.5166 0.2391
v 52.0026 -50.9064 0.8896
v 55.8800 -46.9064 0.8896
v 66.9951 -47.7805 0.8896
v 71.2576 -51.7805 0.8896
v 59.8800 -45.4340 0.8896
v 62.9951 -45.4340 0.8896
v -106.0286 50.1286 4.8616
v -105.9360 50.1286 4.8616
v -106.8717 54.1740 4.3493
v -104.5424 54.1740 4.3493
v -35.5205 57.2999 -1.6523
v -29.9958 57.4997 -2.0024
v -25.7081 58.1491 -3.0912
v -107.2934 62.1740 3.9570
v -101.6689 61.8171 3.6522
v -93.9958 63.9508 2.8579
v -86.1999 64.6676 0.5556
v -78.1427 65.0729 0.4362
v -73.7586 65.8133 -2.5328
v -42.3404 65.1222 -2.5972
v -38.1106 62.3429 -1.5083
v -30.4792 61.3911 -1.8048
v -25.7081 58.2025 -3.0912
v -106.5910 67.1130 4.3385
v -101.6007 69.9374 3.8177
v -93.6293 69.8799 -0.1857
v -89.0026 67.0171 -2.3338
v -75.5740 67.7240 2.8006
v -72.7931 70.3040 0.4362
v -42.3404 66.4926 -2.5972
v -37.9958 66.6814 -2.2014
v -33.4682 66.5320 -2.4116
v -98.6707 74.5585 4.4732
v -94.6828 77.6047 1.4398
v -69.0974 78.6123 0.5489
v -65.5667 81.5711 -2.3450
v -91.1163 86.2275 1.4797
v -88.4933 88.9297 -0.7935
v -68.2477 86.1740 1.4759
v -65.6704 86.1740 -2.5241
v -90.1075 90.2960 4.5398
v -85.8943 91.2296 1.4797
v -77.9958 92.9721 0.8896
v -70.0353 91.4331 0.0994
v -65.9910 90.1790 -3.0941
v 36.8112 -87.2266 10.5644
v 39.0566 -87.2266 10.5644
v 29.7936 -78.5325 8.8896
v 34.0884 -83.0310 8.2945
v 41.9738 -82.3464 8.2476
v 50.0042 -79.9313 10.6229
v 56.0223 -79.3251 11.4929
v 29.7936 -76.6899 8.8896
v 31.5725 -72.6899 8.8896
v 44.8910 -76.7658 5.9307
v 50.0042 -76.2153 6.6229
v 58.9893 -73.8877 9.5048
v 63.2665 -71.0369 7.5167
v 35.7276 -65.9960 9.4770
v 42.1029 -63.5558 9.4770
v 46.9378 -62.7758 8.8896
v 61.9563 -69.7496 12.8500
v 65.5954 -66.4277 9.3515
v 70.5308 -63.1057 5.8531
v 37.4521 -61.5319 12.5353
v 39.5021 -61.5319 12.5353
v 49.8332 -57.8260 8.8896
v 67.9041 -57.8260 10.7571
v 70.7733 -57.8260 6.7571
v 52.8997 -52.6567 8.8896
v 58.6976 -48.5270 8.2208
v 65.7125 -49.5972 8.4288
v 70.5030 -52.6409 6.4161
v 61.8266 -45.7911 5.1082
v 62.1411 -45.7911 5.1082
v -106.5890 49.6028 8.8896
v -104.6125 49.6028 8.8896
v -108.0069 54.1740 8.8896
v -100.5624 54.4622 9.1201
v -93.9958 57.3649 11.8815
v -85.9958 57.7946 12.3158
v -81.6462 57.8940 12.5195
v -108.2251 62.1740 8.8896
v -98.7844 58.9125 6.6071
v -93.9958 59.9508 7.8815
v -85.9958 60.8218 8.3158
v -80.9062 62.5140 9.4676
v -106.8072 67.4748 8.8896
v -103.7626 71.4748 8.8896
v -76.8354 70.3040 9.0488
v -72.7798 73.0573 6.4883
v -99.7626 75.6431 8.8896
v -95.2743 79.6431 8.8896
v -74.8614 75.3947 11.8216
v -72.2216 78.1065 9.0488
v -91.0856 85.8372 8.2425
v -85.9958 88.1376 10.3867
v -80.1513 89.3535 11.9643
v -71.6096 86.1740 8.8896
v -90.1075 90.2960 5.1445
v -85.9958 90.7698 6.3867
v -77.6891 91.3188 9.1344
v -72.9153 91.1007 8.8896
v 36.8112 -87.2266 14.9231
v 39.0566 -87.2266 14.9231
v 29.5158 -80.0475 16.8896
v 34.0884 -84.0476 17.3097
v 41.8357 -83.7129 17.3097
v 50.0042 -81.9411 16.8896
v 58.4151 -79.9433 16.7321
v 62.3750 -78.2723 19.2937
v 28.5330 -73.9064 16.3984
v 30.6579 -71.2934 13.4042
v 61.4818 -73.8260 13.7329
v 62.6093 -73.8260 17.7329
v 28.4318 -65.8260 18.8809
v 32.0804 -65.8260 14.8809
v 44.8354 -62.2439 13.2891
v 46.3629 -62.2439 13.2891
v 61.4808 -66.5549 16.0356
v 62.5156 -66.5549 16.0356
v 29.7085 -61.3623 20.3635
v 34.4730 -60.5415 17.3739
v 42.1029 -60.1704 16.3293
v 49.9643 -57.4780 16.5790
v 58.2049 -57.2577 18.3967
v 63.9041 -57.8260 14.5389
v 53.5658 -53.5006 14.5357
v 58.0042 -52.1275 15.0947
v 63.9506 -51.8868 14.1837
v -107.2580 49.3014 16.8896
v -104.2311 49.3014 16.8896
v -114.0844 57.8980 20.7303
v -110.6588 54.8084 17.5940
v -100.2311 53.3305 16.8896
v -93.9958 57.1295 16.8896
v -85.9958 57.2040 16.8896
v -81.0100 57.4049 16.8896
v -114.2719 62.1740 20.4060
v -110.9274 62.1740 16.4060
v -79.2889 62.1740 16.8896
v -114.5757 70.1740 19.0369
v -109.4878 69.8513 15.3535
v -105.0100 72.3028 14.1330
v -77.9101 70.1740 16.8896
v -114.4895 75.2405 18.9048
v -109.9885 78.0139 18.1514
v -102.2043 78.3186 15.4250
v -96.3520 81.0817 14.3609
v -82.6962 81.9768 20.7162
v -77.7528 78.6858 17.1620
v -73.3182 80.7281 13.6078
v -107.3170 82.9981 19.7340
v -101.9958 83.1582 19.1263
v -93.8095 83.0339 16.9724
v -85.6160 83.8487 17.5856
v -77.6891 86.4817 14.9140
v -73.3577 86.1740 13.5502
v -74.8180 90.3459 13.0522
v -73.8225 90.3459 13.0522
v 29.2207 -79.8543 24.8896
v 34.0042 -81.6019 24.8896
v 42.0042 -80.9423 24.8896
v 50.0042 -80.7768 24.8896
v 57.9235 -79.3595 24.6958
v 62.3750 -78.2723 21.8999
v 27.3289 -73.8260 24.8896
v 59.5024 -73.8260 26.1734
v 62.6093 -73.8260 22.1734
v 27.2930 -65.8260 24.8896
v 59.0456 -65.9465 24.5105
v 62.4403 -68.6935 21.5910
v 29.1847 -60.7782 24.8896
v 34.2002 -56.9579 25.0256
v 42.7675 -55.5735 25.0256
v 50.0042 -56.6155 24.8896
v 55.7069 -59.3937 24.8896
v 36.9976 -53.2660 27.7828
v 40.6097 -53.2660 27.7828
v -106.9205 49.7268 21.2941
v -105.4274 49.7268 21.2941
v -114.0844 57.8980 21.1224
v -109.7506 54.8084 22.0939
v -102.1608 55.1695 24.4435
v -94.3054 57.7433 24.1567
v -85.9958 57.5834 22.0193
v -81.0309 57.4286 22.2842
v -114.3514 62.6617 24.2293
v -109.9958 60.7914 26.0916
v -104.2276 59.5177 27.5928
v -91.8451 59.6873 26.3347
v -85.9958 60.8860 26.0193
v -80.1229 62.6356 24.9264
v -114.8547 70.1740 24.8896
v -83.0670 72.1387 27.6984
v -79.8908 69.7528 24.9749
v -114.4766 75.2265 24.8896
v -111.9129 79.2265 24.8896
v -84.1948 78.8557 24.9749
v -80.6441 76.6434 22.3651
v -107.9129 83.9724 24.8896
v -101.9958 85.0956 24.8896
v -93.9958 83.7433 24.8896
v -87.9412 82.6201 24.8896
v 29.4451 -78.1269 29.1688
v 34.0042 -78.2438 29.3316
v 42.0042 -78.5645 29.8220
v 50.0042 -78.7670 30.0039
v 55.2031 -78.3521 29.4424
v 29.0437 -73.8260 29.8678
v 34.1341 -73.6017 33.0583
v 42.0042 -74.8433 33.8220
v 49.3895 -73.2641 33.4093
v 55.5024 -73.8260 29.8395
v 28.7006 -65.6901 32.7047
v 31.5539 -68.2661 35.2481
v 50.7982 -65.8260 33.9559
v 55.0552 -65.8260 29.9559
v 28.9158 -60.5624 32.8896
v 34.2002 -56.2345 33.4057
v 42.7675 -54.9131 33.4057
v 49.6542 -58.9161 32.5145
v 54.6068 -60.8634 29.5977
v 36.9976 -53.2660 31.0830
v 40.6097 -53.2660 31.0830
v -98.8943 57.7700 29.2908
v -97.1785 57.7700 29.2908
v -114.2203 65.6535 29.1517
v -109.9958 64.7914 30.0454
v -101.7349 62.1803 31.0488
v -94.3054 62.2820 31.0620
v -85.9958 64.8860 30.0204
v -81.7560 65.6100 29.0964
v -114.2412 70.9396 32.2469
v -109.9958 69.5722 34.0454
v -101.9958 68.2133 35.2877
v -93.3448 69.8524 35.4796
v -85.8385 69.7528 31.2526
v -81.7560 66.8054 29.0964
v -114.1341 74.4825 32.8896
v -111.4955 78.4825 32.8896
v -91.2207 78.1740 35.3065
v -88.2193 78.1740 31.3065
v -107.4955 83.8442 32.8896
v -101.9958 85.2680 32.8896
v -94.0266 83.5662 32.5648
v -89.2225 82.5958 29.6816
v 36.8873 -70.7856 37.8051
v 42.0042 -70.8433 37.7586
v 46.3130 -70.2228 37.1329
v 29.3499 -62.9328 37.8894
v 34.2421 -65.5347 40.5139
v 41.6651 -65.6123 41.2014
v 46.7982 -65.8260 37.5927
v 29.3499 -61.0745 37.8894
v 34.1599 -59.0578 40.6895
v 41.6651 -58.7496 40.5062
v 46.7541 -60.5609 37.5839
v -114.0329 74.1166 36.9546
v -109.5444 73.4197 40.1286
v -102.0078 72.3326 41.0611
v -95.5776 72.3047 38.5088
v -114.0329 74.2485 36.9546
v -109.3353 77.4803 40.2664
v -101.6731 78.3999 43.7102
v -95.6571 78.5223 41.0611
v -106.7604 82.8271 38.2449
v -101.5964 83.2390 40.9028
v -96.8861 83.0154 40.8896
v 36.9303 -62.8033 45.5409
v 38.7724 -62.8033 45.5409
v 36.9303 -60.2647 45.5409
v 38.7724 -60.2647 45.5409
v -106.5768 73.7193 45.4009
v -104.6826 73.7193 45.4009
v -106.5768 75.3787 45.4009
v -101.6731 78.3999 45.2766
v -97.7981 81.4212 45.1523
v -98.6636 82.4068 45.1523
v -97.7981 82.4068 45.1523
f 3 2 1
f 3 4 2
f 7 6 5
f 7 8 6
f 14 9 13
f 14 10 9
f 14 11 10
f 14 15 11
f 15 12 11
f 15 16 12
f 18 14 13
f 18 19 14
f 20 14 19
f 20 15 14
f 21 17 16
f 21 22 17
f 2 23 1
f 2 24 23
f 23 3 1
f 23 26 3
f 24 2 4
f 24 4 27
f 4 3 26
f 4 26 27
f 26 23 24
f 26 24 27
f 27 25 24
f 27 28 25
f 37 29 36
f 37 30 29
f 38 32 31
f 38 39 32
f 40 34 33
f 40 41 34
f 42 34 41
f 42 35 34
f 43 35 42
f 43 36 35
f 6 44 5
f 6 45 44
f 47 42 41
f 47 48 42
f 49 42 48
f 49 43 42
f 50 5 44
f 50 7 5
f 51 45 6
f 51 6 8
f 8 7 50
f 8 50 51
f 51 46 45
f 51 52 46
f 55 9 10
f 55 54 9
f 56 10 11
f 56 55 10
f 12 56 11
f 12 57 56
f 65 9 54
f 65 13 9
f 65 53 64
f 65 54 53
f 67 57 12
f 67 12 16
f 16 15 66
f 16 66 67
f 68 16 17
f 68 67 16
f 69 59 58
f 69 70 59
f 70 60 59
f 70 71 60
f 71 61 60
f 71 72 61
f 73 61 72
f 73 62 61
f 74 62 73
f 74 63 62
f 75 63 74
f 75 64 63
f 65 18 13
f 65 76 18
f 75 65 64
f 75 76 65
f 77 19 18
f 77 18 76
f 66 15 20
f 66 20 78
f 20 19 77
f 20 77 78
f 67 21 16
f 67 79 21
f 79 66 78
f 79 67 66
f 68 17 22
f 68 22 80
f 80 22 21
f 80 21 79
f 80 79 67
f 80 67 68
f 25 82 24
f 25 83 82
f 84 72 83
f 84 73 72
f 85 77 76
f 85 86 77
f 87 77 86
f 87 78 77
f 88 78 87
f 88 79 78
f 90 24 82
f 90 27 24
f 90 81 89
f 90 82 81
f 91 83 25
f 91 25 28
f 28 27 90
f 28 90 91
f 93 85 92
f 93 86 85
f 94 90 89
f 94 95 90
f 95 91 90
f 95 96 91
f 98 96 95
f 98 99 96
f 99 97 96
f 99 100 97
f 105 29 30
f 105 104 29
f 108 31 32
f 108 107 31
f 113 33 34
f 113 112 33
f 113 101 112
f 113 102 101
f 35 113 34
f 35 114 113
f 113 103 102
f 113 114 103
f 115 29 104
f 115 36 29
f 115 35 36
f 115 114 35
f 114 104 103
f 114 115 104
f 105 30 37
f 105 37 116
f 37 36 115
f 37 115 116
f 118 31 107
f 118 38 31
f 117 107 106
f 117 118 107
f 108 32 39
f 108 39 119
f 119 39 38
f 119 38 118
f 119 118 107
f 119 107 108
f 119 109 108
f 119 120 109
f 120 110 109
f 120 121 110
f 123 33 112
f 123 40 33
f 123 111 122
f 123 112 111
f 124 41 40
f 124 40 123
f 115 36 43
f 115 43 125
f 125 116 115
f 125 126 116
f 127 118 117
f 127 128 118
f 129 44 45
f 129 128 44
f 129 118 128
f 129 119 118
f 46 129 45
f 46 130 129
f 129 120 119
f 129 130 120
f 131 122 121
f 131 132 122
f 132 123 122
f 132 133 123
f 124 47 41
f 124 134 47
f 133 124 123
f 133 134 124
f 135 48 47
f 135 47 134
f 125 43 49
f 125 49 136
f 49 48 135
f 49 135 136
f 137 125 136
f 137 126 125
f 128 50 44
f 128 138 50
f 51 50 138
f 51 138 139
f 140 130 46
f 140 46 52
f 52 51 139
f 52 139 140
f 141 134 133
f 141 142 134
f 143 134 142
f 143 135 134
f 146 138 145
f 146 139 138
f 147 139 146
f 147 140 139
f 148 145 144
f 148 149 145
f 149 146 145
f 149 150 146
f 150 147 146
f 150 151 147
f 152 150 149
f 152 153 150
f 154 150 153
f 154 151 150
f 156 53 54
f 156 155 53
f 157 54 55
f 157 156 54
f 158 55 56
f 158 157 55
f 57 158 56
f 57 159 158
f 59 160 58
f 59 161 160
f 162 59 60
f 162 161 59
f 163 60 61
f 163 162 60
f 62 163 61
f 62 164 163
f 63 164 62
f 63 165 164
f 155 64 53
f 155 166 64
f 166 63 64
f 166 165 63
f 167 166 155
f 167 155 156
f 168 159 57
f 168 57 67
f 160 69 58
f 160 169 69
f 70 69 169
f 70 169 170
f 169 160 161
f 169 161 170
f 171 71 70
f 171 70 170
f 172 72 71
f 172 71 171
f 173 172 163
f 173 163 164
f 74 73 173
f 74 173 174
f 175 75 74
f 175 74 174
f 175 174 165
f 175 165 166
f 176 76 75
f 176 75 175
f 168 67 79
f 168 79 177
f 180 81 82
f 180 179 81
f 179 171 170
f 179 180 171
f 181 72 172
f 181 83 72
f 181 82 83
f 181 180 82
f 182 173 73
f 182 73 84
f 84 83 181
f 84 181 182
f 182 181 172
f 182 172 173
f 183 175 174
f 183 184 175
f 176 85 76
f 176 185 85
f 184 176 175
f 184 185 176
f 87 86 186
f 87 186 187
f 177 79 88
f 177 88 188
f 88 87 187
f 88 187 188
f 190 81 179
f 190 89 81
f 190 178 189
f 190 179 178
f 181 83 91
f 181 91 191
f 192 85 185
f 192 92 85
f 193 186 86
f 193 86 93
f 93 92 192
f 93 192 193
f 192 185 186
f 192 186 193
f 190 94 89
f 190 195 94
f 194 190 189
f 194 195 190
f 196 95 94
f 196 94 195
f 191 91 96
f 191 96 197
f 97 197 96
f 97 198 197
f 196 98 95
f 196 200 98
f 199 196 195
f 199 200 196
f 201 99 98
f 201 98 200
f 198 97 100
f 198 100 202
f 202 100 99
f 202 99 201
f 202 201 197
f 202 197 198
f 102 203 101
f 102 204 203
f 205 102 103
f 205 204 102
f 206 103 104
f 206 205 103
f 207 104 105
f 207 206 104
f 209 106 107
f 209 208 106
f 109 210 108
f 109 211 210
f 110 211 109
f 110 212 211
f 203 112 101
f 203 214 112
f 214 111 112
f 214 213 111
f 215 214 203
f 215 203 204
f 207 105 116
f 207 116 217
f 216 206 207
f 216 207 217
f 208 117 106
f 208 218 117
f 209 107 118
f 209 118 219
f 219 218 208
f 219 208 209
f 210 119 108
f 210 220 119
f 220 118 119
f 220 219 118
f 221 220 210
f 221 210 211
f 212 110 121
f 212 121 222
f 121 120 221
f 121 221 222
f 221 211 212
f 221 212 222
f 213 122 111
f 213 223 122
f 122 222 121
f 122 223 222
f 224 223 213
f 224 213 214
f 217 116 126
f 217 126 227
f 218 127 117
f 218 229 127
f 230 128 127
f 230 127 229
f 232 221 120
f 232 120 130
f 232 231 220
f 232 220 221
f 222 131 121
f 222 233 131
f 233 221 232
f 233 222 221
f 132 131 233
f 132 233 234
f 133 132 234
f 133 234 235
f 136 135 237
f 136 237 238
f 238 237 225
f 238 225 226
f 227 126 137
f 227 137 239
f 137 136 238
f 137 238 239
f 241 228 240
f 241 229 228
f 230 138 128
f 230 242 138
f 242 229 241
f 242 230 229
f 243 242 230
f 243 230 231
f 244 232 130
f 244 130 140
f 244 243 231
f 244 231 232
f 235 141 133
f 235 246 141
f 245 235 234
f 245 246 235
f 247 142 141
f 247 141 246
f 246 235 236
f 246 236 247
f 248 237 135
f 248 135 143
f 248 143 142
f 248 142 247
f 248 247 236
f 248 236 237
f 250 138 242
f 250 145 138
f 250 144 145
f 250 249 144
f 250 241 249
f 250 242 241
f 244 140 147
f 244 147 251
f 252 144 249
f 252 148 144
f 253 149 148
f 253 148 252
f 255 251 147
f 255 147 151
f 253 152 149
f 253 256 152
f 153 152 256
f 153 256 257
f 256 253 254
f 256 254 257
f 258 255 151
f 258 151 154
f 258 154 153
f 258 153 257
f 258 257 254
f 258 254 255
f 261 156 157
f 261 260 156
f 262 157 158
f 262 261 157
f 263 158 159
f 263 262 158
f 265 161 162
f 265 264 161
f 266 162 163
f 266 265 162
f 165 267 164
f 165 268 267
f 260 167 156
f 260 270 167
f 167 269 166
f 167 270 269
f 270 259 269
f 270 260 259
f 271 270 260
f 271 260 261
f 272 271 261
f 272 261 262
f 263 159 168
f 263 168 273
f 272 262 263
f 272 263 273
f 275 161 264
f 275 170 161
f 277 266 163
f 277 163 172
f 277 172 171
f 277 171 276
f 277 276 265
f 277 265 266
f 278 164 267
f 278 173 164
f 268 165 174
f 268 174 279
f 174 173 278
f 174 278 279
f 278 267 268
f 278 268 279
f 280 166 269
f 280 175 166
f 175 279 174
f 175 280 279
f 281 270 271
f 281 271 282
f 282 271 272
f 282 272 283
f 273 168 177
f 273 177 284
f 284 283 272
f 284 272 273
f 286 170 275
f 286 179 170
f 286 178 179
f 286 285 178
f 286 274 285
f 286 275 274
f 276 171 180
f 276 180 287
f 288 180 181
f 288 287 180
f 279 183 174
f 279 289 183
f 184 183 289
f 184 289 290
f 289 279 280
f 289 280 290
f 291 185 184
f 291 184 290
f 291 290 280
f 291 280 281
f 186 185 291
f 186 291 292
f 291 281 282
f 291 282 292
f 187 186 292
f 187 292 293
f 292 282 283
f 292 283 293
f 294 284 177
f 294 177 188
f 294 188 187
f 294 187 293
f 294 293 283
f 294 283 284
f 295 178 285
f 295 189 178
f 288 181 191
f 288 191 297
f 296 287 288
f 296 288 297
f 295 194 189
f 295 298 194
f 299 195 194
f 299 194 298
f 301 297 191
f 301 191 197
f 299 199 195
f 299 302 199
f 303 200 199
f 303 199 302
f 304 301 197
f 304 197 201
f 304 201 200
f 304 200 303
f 304 303 300
f 304 300 301
f 205 305 204
f 205 306 305
f 307 205 206
f 307 306 205
f 305 215 204
f 305 309 215
f 215 308 214
f 215 309 308
f 310 309 305
f 310 305 306
f 307 206 216
f 307 216 311
f 311 310 306
f 311 306 307
f 312 216 217
f 312 311 216
f 314 218 219
f 314 313 218
f 315 219 220
f 315 314 219
f 222 316 221
f 222 317 316
f 223 317 222
f 223 318 317
f 308 224 214
f 308 319 224
f 224 318 223
f 224 319 318
f 322 226 225
f 322 225 321
f 321 310 311
f 321 311 322
f 312 217 227
f 312 227 323
f 322 311 312
f 322 312 323
f 313 229 218
f 313 325 229
f 325 228 229
f 325 324 228
f 315 220 231
f 315 231 327
f 231 230 326
f 231 326 327
f 316 232 221
f 316 328 232
f 233 232 328
f 233 328 329
f 329 328 316
f 329 316 317
f 234 233 329
f 234 329 330
f 329 317 318
f 329 318 330
f 236 235 331
f 236 331 332
f 333 321 225
f 333 225 237
f 333 237 236
f 333 236 332
f 333 332 320
f 333 320 321
f 334 226 322
f 334 238 226
f 335 323 227
f 335 227 239
f 239 238 334
f 239 334 335
f 334 322 323
f 334 323 335
f 324 240 228
f 324 336 240
f 337 241 240
f 337 240 336
f 338 326 230
f 338 230 242
f 243 338 242
f 243 339 338
f 338 327 326
f 338 339 327
f 340 243 244
f 340 339 243
f 341 234 330
f 341 245 234
f 342 331 235
f 342 235 246
f 342 246 245
f 342 245 341
f 341 330 331
f 341 331 342
f 337 249 241
f 337 344 249
f 343 337 336
f 343 344 337
f 340 244 251
f 340 251 345
f 344 252 249
f 344 346 252
f 347 253 252
f 347 252 346
f 254 253 347
f 254 347 348
f 349 345 251
f 349 251 255
f 349 255 254
f 349 254 348
f 351 259 260
f 351 350 259
f 356 264 265
f 356 355 264
f 357 259 350
f 357 269 259
f 351 260 270
f 351 270 358
f 357 350 351
f 357 351 358
f 359 353 352
f 359 360 353
f 360 354 353
f 360 361 354
f 355 275 264
f 355 363 275
f 363 274 275
f 363 362 274
f 356 265 276
f 356 276 364
f 363 355 356
f 363 356 364
f 365 269 357
f 365 280 269
f 366 358 270
f 366 270 281
f 281 280 365
f 281 365 366
f 366 365 357
f 366 357 358
f 367 361 360
f 367 368 361
f 369 274 362
f 369 285 274
f 368 362 361
f 368 369 362
f 370 364 276
f 370 276 287
f 369 295 285
f 369 372 295
f 373 370 287
f 373 287 296
f 374 296 297
f 374 373 296
f 373 371 370
f 373 374 371
f 375 295 372
f 375 298 295
f 299 298 375
f 299 375 376
f 378 374 297
f 378 297 301
f 378 301 300
f 378 300 377
f 376 302 299
f 376 379 302
f 380 377 300
f 380 300 303
f 380 303 302
f 380 302 379
f 383 382 381
f 383 384 382
f 386 308 309
f 386 385 308
f 387 309 310
f 387 386 309
f 388 384 383
f 388 389 384
f 392 313 314
f 392 391 313
f 393 314 315
f 393 392 314
f 385 319 308
f 385 395 319
f 319 394 318
f 319 395 394
f 396 395 385
f 396 385 386
f 397 387 310
f 397 310 321
f 397 321 320
f 397 320 396
f 397 396 386
f 397 386 387
f 398 389 388
f 398 399 389
f 399 390 389
f 399 400 390
f 401 313 391
f 401 325 313
f 401 324 325
f 401 400 324
f 401 390 400
f 401 391 390
f 393 315 327
f 393 327 403
f 402 392 393
f 402 393 403
f 404 318 394
f 404 330 318
f 331 330 404
f 331 404 405
f 405 404 394
f 405 394 395
f 406 396 320
f 406 320 332
f 406 332 331
f 406 331 405
f 406 405 395
f 406 395 396
f 408 324 400
f 408 336 324
f 407 400 399
f 407 408 400
f 403 327 339
f 403 339 409
f 410 339 340
f 410 409 339
f 408 343 336
f 408 411 343
f 412 344 343
f 412 343 411
f 410 340 345
f 410 345 414
f 413 409 410
f 413 410 414
f 412 346 344
f 412 416 346
f 415 412 411
f 415 416 412
f 417 347 346
f 417 346 416
f 418 348 347
f 418 347 417
f 419 414 345
f 419 345 349
f 419 349 348
f 419 348 418
f 419 418 413
f 419 413 414
f 353 422 352
f 353 423 422
f 354 423 353
f 354 424 423
f 423 421 420
f 423 424 421
f 422 359 352
f 422 427 359
f 428 360 359
f 428 359 427
f 429 424 354
f 429 354 361
f 362 429 361
f 362 430 429
f 429 425 424
f 429 430 425
f 363 430 362
f 363 431 430
f 430 426 425
f 430 431 426
f 364 431 363
f 364 432 431
f 428 367 360
f 428 433 367
f 368 367 433
f 368 433 434
f 435 369 368
f 435 368 434
f 432 364 370
f 432 370 437
f 436 431 432
f 436 432 437
f 438 370 371
f 438 437 370
f 439 434 433
f 439 440 434
f 435 372 369
f 435 441 372
f 443 438 371
f 443 371 374
f 442 437 438
f 442 438 443
f 444 372 441
f 444 375 372
f 445 376 375
f 445 375 444
f 443 374 378
f 443 378 447
f 447 378 377
f 447 377 446
f 447 446 442
f 447 442 443
f 448 376 445
f 448 379 376
f 449 446 377
f 449 377 380
f 380 379 448
f 380 448 449
f 449 448 445
f 449 445 446
f 382 450 381
f 382 451 450
f 452 381 450
f 452 383 381
f 451 382 384
f 451 384 453
f 457 383 452
f 457 388 383
f 458 453 384
f 458 384 389
f 390 458 389
f 390 459 458
f 458 454 453
f 458 459 454
f 460 390 391
f 460 459 390
f 459 455 454
f 459 460 455
f 461 391 392
f 461 460 391
f 460 456 455
f 460 461 456
f 457 398 388
f 457 462 398
f 463 399 398
f 463 398 462
f 461 392 402
f 461 402 464
f 465 402 403
f 465 464 402
f 463 407 399
f 463 466 407
f 467 408 407
f 467 407 466
f 465 403 409
f 465 409 469
f 468 464 465
f 468 465 469
f 467 411 408
f 467 470 411
f 473 469 409
f 473 409 413
f 474 411 470
f 474 415 411
f 475 416 415
f 475 415 474
f 474 470 471
f 474 471 475
f 417 416 475
f 417 475 476
f 475 471 472
f 475 472 476
f 477 473 413
f 477 413 418
f 477 418 417
f 477 417 476
f 421 478 420
f 421 479 478
f 481 420 478
f 481 423 420
f 423 480 422
f 423 481 480
f 482 479 421
f 482 421 424
f 481 478 479
f 481 479 482
f 425 482 424
f 425 483 482
f 426 483 425
f 426 484 483
f 480 427 422
f 480 486 427
f 487 428 427
f 487 427 486
f 488 484 426
f 488 426 431
f 488 485 484
f 488 489 485
f 487 433 428
f 487 491 433
f 490 487 486
f 490 491 487
f 435 434 492
f 435 492 493
f 488 431 436
f 488 436 494
f 495 436 437
f 495 494 436
f 494 489 488
f 494 495 489
f 491 439 433
f 491 497 439
f 496 491 490
f 496 497 491
f 492 434 440
f 492 440 498
f 498 440 439
f 498 439 497
f 493 441 435
f 493 499 441
f 498 493 492
f 498 499 493
f 501 495 437
f 501 437 442
f 501 500 494
f 501 494 495
f 502 441 499
f 502 444 441
f 503 445 444
f 503 444 502
f 502 499 500
f 502 500 503
f 504 501 442
f 504 442 446
f 504 446 445
f 504 445 503
f 503 500 501
f 503 501 504
f 506 450 451
f 506 505 450
f 505 452 450
f 505 508 452
f 509 506 451
f 509 451 453
f 454 509 453
f 454 510 509
f 455 510 454
f 455 511 510
f 456 511 455
f 456 512 511
f 514 452 508
f 514 457 452
f 514 507 513
f 514 508 507
f 515 512 456
f 515 456 461
f 514 462 457
f 514 517 462
f 516 514 513
f 516 517 514
f 518 463 462
f 518 462 517
f 519 515 461
f 519 461 464
f 520 517 516
f 520 521 517
f 518 466 463
f 518 522 466
f 521 518 517
f 521 522 518
f 523 467 466
f 523 466 522
f 519 464 468
f 519 468 525
f 526 468 469
f 526 525 468
f 527 522 521
f 527 528 522
f 529 467 523
f 529 470 467
f 528 523 522
f 528 529 523
f 530 471 470
f 530 470 529
f 472 471 530
f 472 530 531
f 531 530 524
f 531 524 525
f 526 469 473
f 526 473 532
f 531 525 526
f 531 526 532
f 533 472 531
f 533 476 472
f 534 532 473
f 534 473 477
f 477 476 533
f 477 533 534
f 533 531 532
f 533 532 534
f 536 480 481
f 536 535 480
f 482 536 481
f 482 537 536
f 483 537 482
f 483 538 537
f 539 483 484
f 539 538 483
f 540 484 485
f 540 539 484
f 541 480 535
f 541 486 480
f 543 540 485
f 543 485 489
f 542 539 540
f 542 540 543
f 541 490 486
f 541 544 490
f 546 543 489
f 546 489 495
f 546 495 494
f 546 494 545
f 546 545 542
f 546 542 543
f 544 496 490
f 544 547 496
f 548 497 496
f 548 496 547
f 498 497 548
f 498 548 549
f 499 498 549
f 499 549 550
f 545 494 500
f 545 500 551
f 551 500 499
f 551 499 550
f 552 549 548
f 552 553 549
f 555 505 506
f 555 554 505
f 554 508 505
f 554 557 508
f 557 507 508
f 557 556 507
f 555 506 509
f 555 509 558
f 557 554 555
f 557 555 558
f 559 509 510
f 559 558 509
f 560 510 511
f 560 559 510
f 512 560 511
f 512 561 560
f 556 513 507
f 556 562 513
f 563 562 556
f 563 556 557
f 564 563 557
f 564 557 558
f 565 559 560
f 565 560 566
f 561 512 515
f 561 515 567
f 566 560 561
f 566 561 567
f 562 516 513
f 562 568 516
f 570 567 515
f 570 515 519
f 571 516 568
f 571 520 516
f 572 521 520
f 572 520 571
f 574 570 519
f 574 519 525
f 574 525 524
f 574 524 573
f 574 573 569
f 574 569 570
f 572 527 521
f 572 575 527
f 576 528 527
f 576 527 575
f 577 529 528
f 577 528 576
f 578 573 524
f 578 524 530
f 578 530 529
f 578 529 577
f 580 535 536
f 580 579 535
f 537 580 536
f 537 581 580
f 538 581 537
f 538 582 581
f 583 538 539
f 583 582 538
f 579 541 535
f 579 584 541
f 584 579 580
f 584 580 585
f 586 585 580
f 586 580 581
f 586 581 582
f 586 582 587
f 583 539 542
f 583 542 588
f 588 587 582
f 588 582 583
f 584 544 541
f 584 589 544
f 590 589 584
f 590 584 585
f 592 588 542
f 592 542 545
f 592 591 587
f 592 587 588
f 589 547 544
f 589 593 547
f 548 547 593
f 548 593 594
f 596 550 549
f 596 549 595
f 592 545 551
f 592 551 597
f 597 551 550
f 597 550 596
f 597 596 591
f 597 591 592
f 594 552 548
f 594 598 552
f 595 549 553
f 595 553 599
f 553 552 598
f 553 598 599
f 598 594 595
f 598 595 599
f 559 600 558
f 559 601 600
f 563 602 562
f 563 603 602
f 600 564 558
f 600 604 564
f 564 603 563
f 564 604 603
f 601 559 565
f 601 565 605
f 604 600 601
f 604 601 605
f 606 565 566
f 606 605 565
f 607 566 567
f 607 606 566
f 602 568 562
f 602 608 568
f 609 608 602
f 609 602 603
f 610 609 603
f 610 603 604
f 610 604 605
f 610 605 611
f 611 605 606
f 611 606 612
f 613 607 567
f 613 567 570
f 613 570 569
f 613 569 612
f 613 612 606
f 613 606 607
f 608 571 568
f 608 614 571
f 615 572 571
f 615 571 614
f 617 612 569
f 617 569 573
f 617 616 611
f 617 611 612
f 618 572 615
f 618 575 572
f 576 575 618
f 576 618 619
f 620 577 576
f 620 576 619
f 617 573 578
f 617 578 621
f 621 578 577
f 621 577 620
f 621 620 616
f 621 616 617
f 586 622 585
f 586 623 622
f 624 586 587
f 624 623 586
f 622 590 585
f 622 626 590
f 590 625 589
f 590 626 625
f 627 626 622
f 627 622 623
f 624 587 591
f 624 591 628
f 628 627 623
f 628 623 624
f 625 593 589
f 625 629 593
f 594 593 629
f 594 629 630
f 630 629 625
f 630 625 626
f 631 595 594
f 631 594 630
f 632 628 591
f 632 591 596
f 632 596 595
f 632 595 631
f 632 631 627
f 632 627 628
f 609 633 608
f 609 634 633
f 610 634 609
f 610 635 634
f 636 610 611
f 636 635 610
f 633 614 608
f 633 637 614
f 615 614 637
f 615 637 638
f 637 633 634
f 637 634 638
f 636 611 616
f 636 616 640
f 640 639 635
f 640 635 636
f 641 615 638
f 641 618 615
f 619 618 641
f 619 641 642
f 641 638 639
f 641 639 642
f 643 640 616
f 643 616 620
f 643 620 619
f 643 619 642
f 627 644 626
f 627 645 644
f 644 630 626
f 644 646 630
f 645 627 631
f 645 631 647
f 647 631 630
f 647 630 646
f 646 644 645
f 646 645 647
f 635 648 634
f 635 649 648
f 650 634 648
f 650 638 634
f 649 635 639
f 649 639 651
f 639 638 650
f 639 650 651
f 650 648 649
f 650 649 651
f 652 639 640
f 652 651 639
f 653 639 651
f 653 642 639
f 652 640 643
f 652 643 654
f 643 642 653
f 643 653 654
f 653 651 652
f 653 652 654
