# parsimony mesh: cplx_CPLX0-8587 (source /Users/eranagmon/code/v2e-cplx/workspace/studies/ecoli-3d/viz/3d/structures/cplx_CPLX0-8587.pdb)
# atoms: 2286  voxel: 16 Å  verts: 79  tris: 152
v 22.5533 -40.9468 -10.0148
v 32.1376 -41.4880 -10.7704
v 41.2805 -40.9383 -10.3416
v 8.0808 -23.9681 -9.1127
v 16.7871 -30.3215 -11.1598
v 32.1376 -31.8516 -12.9527
v 41.1943 -31.8516 -10.3344
v 8.0808 -23.6525 -9.1127
v 16.6585 -17.3321 -11.3062
v 31.7749 -16.8613 -11.4986
v 40.4037 -22.8678 -9.4334
v -24.8089 7.7420 -9.4712
v -21.6934 7.7420 -9.4712
v 22.3391 -7.0706 -10.2588
v 26.1997 -7.0706 -10.2588
v -41.2148 22.0980 -10.4948
v -30.8303 16.5181 -11.6306
v -18.5918 16.1484 -11.1640
v -41.5082 32.1484 -11.1581
v -31.8624 32.1484 -14.5026
v -18.4881 32.1484 -12.3382
v -40.7044 41.0209 -10.3785
v -31.8624 42.1035 -11.5646
v -21.5552 41.8828 -11.0368
v 20.9956 -42.1297 -0.9938
v 32.1376 -44.1768 -0.9938
v 42.0745 -41.8988 -0.9938
v 7.0250 -25.9923 -0.9938
v 12.9956 -33.9923 -0.9938
v 43.2870 -31.8516 -0.9938
v 7.0250 -21.8400 -0.9938
v 16.6585 -13.4879 -0.7585
v 31.8444 -10.7310 -0.3075
v 41.4736 -16.8613 -0.4055
v -25.9892 6.8462 -0.9938
v -16.1610 6.7921 -0.7916
v -7.4117 7.6242 4.6766
v 22.3391 -7.0706 -5.9349
v 31.8444 -7.2106 -0.3075
v 40.7477 -7.3505 5.3200
v -42.1490 21.0177 -0.9938
v -33.9892 13.0177 -0.9938
v -10.5918 16.1484 -5.1199
v -7.3805 16.1484 2.8801
v -42.1969 33.3786 0.0421
v -39.2827 39.5320 6.0660
v -10.4881 32.1484 -4.4229
v -7.2368 32.1484 3.5771
v -40.7044 41.0209 -4.6007
v -33.1146 42.4994 0.0421
v -16.0781 42.3986 -0.2340
v -7.2201 40.8529 5.6059
v 21.5326 -41.7938 9.5370
v 32.1376 -42.5404 10.0986
v 41.5773 -41.4945 8.5986
v 6.7110 -26.5894 9.2112
v 16.1746 -31.8943 11.7116
v 32.1376 -31.8516 13.8143
v 42.2303 -31.8516 9.5862
v 6.7110 -21.3686 9.2112
v 16.1376 -19.0463 10.9899
v 32.1485 -15.0972 10.4280
v 41.6081 -15.8516 8.9535
v -25.7516 6.8185 8.4459
v -15.8624 6.7578 8.4879
v -7.4117 7.6242 7.5422
v 37.4891 -7.3505 7.7550
v 40.7477 -7.3505 7.7550
v -41.5588 22.0246 9.2856
v -31.3959 16.4741 11.0924
v -15.8624 16.1484 10.9777
v -7.3805 16.1484 7.5795
v -41.5588 28.8654 9.2856
v -33.1146 33.3786 11.2929
v -15.8624 32.1484 11.6311
v -7.2368 32.1484 7.9823
v -28.6161 41.4599 8.7801
v -15.8624 41.6604 9.1414
v -7.2201 40.8529 8.0792
f 6 1 5
f 6 2 1
f 6 3 2
f 6 7 3
f 9 4 8
f 9 5 4
f 10 5 9
f 10 6 5
f 11 6 10
f 11 7 6
f 14 10 9
f 14 15 10
f 18 12 17
f 18 13 12
f 20 16 19
f 20 17 16
f 21 17 20
f 21 18 17
f 22 20 19
f 22 23 20
f 24 20 23
f 24 21 20
f 26 1 2
f 26 25 1
f 3 26 2
f 3 27 26
f 29 1 25
f 29 5 1
f 29 4 5
f 29 28 4
f 30 27 3
f 30 3 7
f 31 4 28
f 31 8 4
f 9 8 31
f 9 31 32
f 30 7 11
f 30 11 34
f 34 11 10
f 34 10 33
f 13 35 12
f 13 36 35
f 32 14 9
f 32 38 14
f 33 10 15
f 33 15 39
f 15 14 38
f 15 38 39
f 38 32 33
f 38 33 39
f 40 33 39
f 40 34 33
f 42 12 35
f 42 17 12
f 42 16 17
f 42 41 16
f 36 13 18
f 36 18 43
f 44 36 43
f 44 37 36
f 41 19 16
f 41 45 19
f 47 43 18
f 47 18 21
f 47 44 43
f 47 48 44
f 49 19 45
f 49 22 19
f 23 22 49
f 23 49 50
f 49 45 46
f 49 46 50
f 51 47 21
f 51 21 24
f 24 23 50
f 24 50 51
f 52 47 51
f 52 48 47
f 26 53 25
f 26 54 53
f 55 26 27
f 55 54 26
f 53 29 25
f 53 57 29
f 29 56 28
f 29 57 56
f 58 57 53
f 58 53 54
f 55 27 30
f 55 30 59
f 58 54 55
f 58 55 59
f 60 28 56
f 60 31 28
f 61 32 31
f 61 31 60
f 61 60 56
f 61 56 57
f 62 33 32
f 62 32 61
f 61 57 58
f 61 58 62
f 59 30 34
f 59 34 63
f 63 62 58
f 63 58 59
f 36 64 35
f 36 65 64
f 37 65 36
f 37 66 65
f 67 33 62
f 67 39 33
f 63 34 40
f 63 40 68
f 40 39 67
f 40 67 68
f 67 62 63
f 67 63 68
f 64 42 35
f 64 70 42
f 42 69 41
f 42 70 69
f 71 70 64
f 71 64 65
f 72 66 37
f 72 37 44
f 71 65 66
f 71 66 72
f 73 41 69
f 73 45 41
f 46 45 73
f 46 73 74
f 74 73 69
f 74 69 70
f 75 74 70
f 75 70 71
f 72 44 48
f 72 48 76
f 76 75 71
f 76 71 72
f 77 46 74
f 77 50 46
f 51 50 77
f 51 77 78
f 77 74 75
f 77 75 78
f 76 48 52
f 76 52 79
f 52 51 78
f 52 78 79
f 79 78 75
f 79 75 76
