# parsimony mesh: cplx_CPLX0-8156 (source /Users/eranagmon/code/v2e-cplx/workspace/studies/ecoli-3d/viz/3d/structures/cplx_CPLX0-8156.pdb)
# atoms: 7088  voxel: 8 Å  verts: 594  tris: 1196
v -27.3499 44.4338 -32.9035
v -26.0594 44.4338 -32.9035
v -27.3499 46.0317 -32.9035
v -26.0594 46.0317 -32.9035
v 52.3061 -51.2607 -24.7143
v 57.2919 -51.3802 -24.8584
v 62.1514 -51.1077 -24.7261
v 36.8151 -43.3345 -24.7549
v 41.2919 -44.4307 -25.2207
v 49.5004 -46.9777 -25.8369
v 57.2919 -46.7923 -26.0143
v 62.1661 -46.7923 -24.8165
v 36.8151 -41.4531 -24.7549
v 41.2919 -40.2688 -25.2207
v 49.1258 -38.3770 -27.2652
v 57.2919 -38.7923 -28.6208
v 64.6756 -38.4214 -25.6669
v 70.0436 -35.5075 -24.8906
v 51.6818 -32.4597 -27.0948
v 56.5997 -30.1927 -27.2661
v 65.1622 -31.1193 -25.9436
v 70.0436 -34.0039 -24.8906
v 58.8048 -26.1091 -25.1194
v 62.4090 -26.1091 -25.1194
v -36.5023 36.3056 -24.9760
v -30.7081 34.8948 -25.6999
v -24.1513 35.0259 -25.5864
v -44.3916 43.1988 -25.0806
v -38.9846 40.8024 -25.6366
v -30.2931 41.5434 -29.1401
v -22.4387 40.8746 -28.1828
v -17.2712 42.6488 -25.4458
v -44.3916 46.1052 -25.0806
v -38.7081 46.7343 -25.5357
v -30.0949 48.8554 -27.8724
v -23.1189 48.9021 -29.1362
v -16.2660 49.2077 -25.7808
v -27.5067 54.0638 -25.1485
v -22.7081 54.7640 -25.5578
v -16.8888 54.4267 -25.2245
v 28.9923 -58.9864 -16.5400
v 33.2919 -60.5378 -16.9316
v 37.9528 -60.9256 -16.9980
v 27.7134 -54.7923 -17.1407
v 33.2919 -54.7923 -18.3515
v 40.8884 -54.3402 -18.1687
v 49.5004 -52.3821 -20.4001
v 57.2919 -53.8065 -20.4438
v 65.0076 -51.9927 -19.7318
v 69.3331 -50.8438 -16.5905
v 27.0380 -46.7923 -17.5071
v 33.8059 -46.3176 -21.1306
v 41.2919 -48.4307 -22.1843
v 46.9727 -49.7679 -23.0377
v 66.1661 -46.7923 -20.6000
v 69.3625 -46.7923 -16.6000
v 27.2827 -38.7923 -17.5110
v 33.8059 -38.7887 -21.5509
v 41.2919 -36.2688 -23.0154
v 46.3484 -35.4335 -23.4503
v 66.9314 -40.8408 -21.8387
v 70.6545 -38.4214 -19.6807
v 27.8131 -34.0796 -17.2821
v 33.2919 -33.7740 -18.3892
v 41.2919 -33.7862 -19.0154
v 49.5765 -30.6111 -21.0537
v 53.4715 -27.1264 -23.9904
v 67.7423 -28.6706 -22.6666
v 70.9693 -31.1193 -20.1775
v 52.8045 -26.4402 -18.6571
v 56.5997 -25.2413 -20.9718
v 65.1622 -25.0906 -20.1775
v 69.8695 -26.1890 -17.3333
v -51.1391 21.0509 -16.5504
v -46.7081 20.7014 -16.9467
v -42.2573 20.6894 -17.0078
v -52.9825 25.2077 -17.1762
v -46.7081 25.2077 -17.8901
v -41.1455 25.2077 -17.1577
v -28.9286 27.8119 -18.6573
v -24.8890 27.8119 -18.6573
v -59.3209 34.6564 -16.9029
v -55.4690 32.4770 -17.9309
v -46.7081 33.2077 -19.7664
v -38.7888 33.0058 -20.3158
v -31.2404 30.8563 -20.9719
v -21.8535 32.7110 -21.4653
v -17.3444 35.7295 -18.9399
v -59.3209 39.5121 -16.9029
v -55.3608 41.7904 -18.4577
v -46.9182 40.8024 -22.5959
v -41.8356 37.8655 -23.8000
v -18.8179 37.3154 -24.2733
v -14.6411 40.8003 -20.7142
v -10.4072 44.2851 -17.1551
v -53.1292 47.2076 -18.1917
v -46.9182 47.8263 -20.6926
v -38.0357 50.5092 -19.7375
v -32.8400 51.6790 -21.9333
v -12.2660 49.2077 -22.1301
v -10.0894 49.2077 -18.1301
v -34.9207 53.2641 -16.6000
v -30.3872 55.3011 -19.7375
v -23.2686 59.1987 -19.9538
v -14.9680 56.8000 -20.1373
v -10.1840 53.8400 -17.9809
v -20.9756 61.3894 -16.9605
v -18.3807 61.3894 -16.9605
v 52.8081 -67.1027 -8.8294
v 53.9346 -67.1027 -8.8294
v 27.3778 -59.5652 -12.4438
v 33.2919 -62.5475 -12.4438
v 40.8884 -61.6174 -12.1549
v 49.8016 -62.4316 -9.7305
v 56.8775 -62.5975 -10.1132
v 62.9267 -59.8009 -9.9335
v 19.4849 -53.2298 -10.4352
v 23.4775 -55.4548 -12.8386
v 43.2861 -56.7055 -14.6290
v 49.2919 -56.4282 -13.7630
v 57.2919 -57.2186 -14.2414
v 65.4728 -55.7269 -12.5376
v 69.7101 -51.7353 -12.4438
v 10.6969 -44.0700 -8.9715
v 17.0077 -46.7589 -10.9013
v 23.0380 -46.7923 -15.1199
v 70.8559 -46.7923 -12.4438
v 9.9717 -38.7923 -9.2388
v 17.2919 -38.7923 -11.6153
v 23.2827 -38.7923 -14.8203
v 42.8558 -35.5471 -9.4113
v 46.1308 -35.5471 -9.4113
v 74.2884 -38.6250 -12.2760
v 77.5862 -35.8468 -9.4975
v 11.4600 -34.3375 -8.9761
v 17.2919 -33.7247 -10.0370
v 25.2046 -33.1679 -12.5989
v 33.2919 -32.9898 -12.4438
v 40.6302 -33.9756 -12.2243
v 48.5558 -31.1744 -12.2243
v 73.9052 -31.1387 -12.2760
v 77.5862 -34.0363 -9.4975
v 52.7426 -25.8543 -12.4438
v 57.2919 -22.9093 -12.4438
v 65.2919 -23.1851 -12.4438
v 69.9587 -26.1301 -12.4438
v -52.1579 20.5500 -12.4438
v -46.7081 19.9812 -12.4438
v -39.2376 20.5780 -11.7854
v -30.7081 20.4949 -9.3595
v -24.7974 20.5486 -9.4287
v -59.7370 27.8050 -11.0111
v -56.6289 25.1661 -13.1842
v -37.1455 25.2077 -14.3191
v -31.2404 25.1702 -13.7350
v -22.1765 24.7348 -12.5236
v -16.8871 26.9910 -10.2852
v -75.7142 36.0227 -9.2182
v -70.7081 35.3615 -9.6995
v -62.1956 32.6272 -12.8440
v -58.6430 29.3231 -16.3444
v -35.7420 29.7060 -16.0415
v -34.2619 29.7060 -16.0415
v -19.5556 30.3961 -15.6185
v -14.4491 32.9528 -12.8373
v -9.9913 35.5094 -10.0561
v -75.9618 41.2077 -10.0729
v -70.7081 41.2077 -11.4062
v -62.2757 41.7904 -14.1777
v -58.4626 44.8455 -16.2226
v -12.0110 38.9518 -15.3895
v -9.4075 41.4542 -12.6112
v -75.3736 47.2531 -9.8416
v -70.7081 47.5853 -10.1505
v -62.1558 49.0826 -11.0299
v -55.6351 49.5880 -12.8266
v -46.7081 49.0948 -12.4438
v -38.0357 49.8860 -13.1791
v -33.1136 51.2492 -11.0027
v -8.4824 49.2077 -12.4438
v -59.1210 53.3842 -9.4306
v -58.1409 53.3842 -9.4306
v -34.9207 53.2641 -16.3360
v -30.3550 57.1909 -13.6769
v -26.3089 61.1177 -16.3511
v -13.7113 58.2876 -12.4438
v -9.5705 54.2876 -12.4438
v -27.5964 62.1047 -11.0177
v -23.2686 62.3194 -13.1882
v -17.7113 61.9246 -12.4438
v 51.8834 -67.5289 -4.4438
v 54.5823 -67.5289 -4.4438
v 21.1082 -58.8874 -1.8261
v 24.7404 -59.4060 -4.4732
v 33.2919 -61.6621 -4.4438
v 41.2919 -62.5477 -4.4438
v 47.8834 -64.3737 -4.4438
v 58.5823 -64.1157 -4.4438
v 63.7906 -60.1157 -4.4438
v 5.2876 -50.7948 -0.4560
v 9.2919 -51.5751 -1.7491
v 17.6299 -55.1983 -4.6657
v 21.7060 -58.5631 -7.1595
v 67.7906 -57.0738 -4.4438
v 70.1344 -53.0738 -4.4438
v 4.2980 -46.7923 -2.4278
v 8.5349 -46.7589 -6.2679
v 14.1515 -49.4033 -7.5052
v 72.4522 -46.7923 -4.4438
v 2.4137 -38.7923 -3.9883
v 5.9717 -38.7923 -7.9883
v 42.2132 -36.3775 -4.4438
v 46.8380 -36.3775 -4.4438
v 75.6098 -40.4695 -4.4438
v 77.7586 -36.4695 -4.4438
v 3.0565 -30.7923 -3.0885
v 8.9928 -31.3194 -5.9131
v 16.9679 -29.9322 -3.7973
v 25.2919 -31.5633 -4.4438
v 33.2919 -32.9656 -4.4438
v 38.2132 -34.4605 -4.4438
v 50.3773 -30.7923 -4.4438
v 69.1035 -26.9408 -1.1324
v 72.2483 -27.8219 -3.8438
v 77.8983 -31.1387 -4.1107
v 4.8280 -26.2792 -1.8772
v 9.2919 -26.1398 -1.7107
v 14.0852 -26.4353 -0.6997
v 52.8313 -25.4987 -4.4438
v 57.2919 -23.2664 -4.4438
v 65.9789 -24.8386 -4.0570
v 72.2483 -26.4848 -3.8438
v 77.6804 -26.4569 -1.2219
v -52.2102 20.4876 -6.9073
v -46.1412 20.5825 -4.3219
v -38.7081 19.8555 -4.4438
v -30.7081 18.7009 -4.4438
v -24.2931 19.8118 -4.4438
v -67.9621 28.5424 -1.6189
v -62.5254 26.9422 -4.3489
v -54.8093 23.1785 -4.3219
v -48.4300 22.2697 -1.5740
v -20.2931 22.4801 -4.4438
v -15.9838 26.4801 -4.4438
v -76.8459 35.3365 -4.4438
v -70.6605 31.7448 -4.3489
v -65.0703 30.5979 -6.9523
v -11.9838 30.7640 -4.4438
v -9.7283 34.7640 -4.4438
v -82.9679 44.0951 -0.7721
v -80.0177 41.3401 -3.8408
v -50.7576 45.1570 -0.4899
v -50.6479 45.1570 -0.4899
v -8.0607 41.2077 -4.4438
v -82.9679 46.4680 -0.7721
v -78.5934 49.5272 -4.2804
v -70.7081 51.5853 -6.2986
v -64.4543 51.6658 -6.2386
v -53.1890 49.2641 -3.6715
v -47.4719 46.7134 -3.6715
v -38.7081 46.5781 -4.4438
v -32.0970 49.7665 -4.4438
v -7.0415 49.2077 -4.4438
v -76.4799 54.5220 -2.4554
v -70.7081 54.6375 -2.2986
v -62.1558 53.7793 -3.9207
v -57.7721 53.4781 -4.4438
v -28.8471 57.2077 -4.4438
v -21.2121 59.6161 -1.9753
v -14.9071 58.2202 -4.5627
v -8.7091 54.6671 -4.4438
v -27.4582 62.0275 -4.4438
v -23.4105 62.3281 -4.5627
v -17.7064 61.9819 -7.3086
v 51.8978 -67.4641 0.2294
v 54.3697 -67.4641 0.2294
v 20.6455 -59.0517 3.5562
v 25.8844 -59.0546 3.7732
v 32.5687 -60.7267 3.7732
v 41.2919 -62.7766 3.5562
v 49.3203 -62.5488 2.9404
v 57.1386 -62.4458 0.6671
v 62.9887 -59.5482 -0.0274
v 5.2876 -50.7948 -0.4334
v 9.3766 -52.0739 2.7625
v 16.6455 -56.3924 3.5562
v 28.9460 -58.6401 6.5845
v 29.4199 -58.6401 6.5845
v 52.0761 -57.3345 5.6515
v 56.9813 -54.7176 4.1575
v 65.5100 -55.0940 1.2104
v 69.8988 -52.6286 0.7396
v 3.8115 -46.7113 2.7625
v 6.7663 -49.3241 4.9000
v 59.4408 -48.5923 6.0467
v 65.2919 -48.2256 5.3116
v 71.1568 -46.8589 3.4662
v 0.9662 -38.7923 3.5562
v 43.6232 -36.1511 2.1766
v 46.5145 -36.1511 2.1766
v 60.8639 -35.6581 7.2707
v 61.6695 -35.6581 7.2707
v 75.1678 -40.3009 3.5562
v 77.9785 -36.3009 3.5562
v 3.0309 -30.4284 3.8108
v 6.2414 -27.5191 6.6472
v 19.4185 -28.1155 0.7845
v 25.1018 -29.5349 3.4932
v 33.2919 -32.4170 3.5562
v 41.0907 -34.1236 4.3285
v 48.2589 -31.5725 4.3285
v 60.8639 -34.1842 7.2707
v 65.2400 -30.5645 5.1481
v 72.6527 -28.6787 3.1272
v 78.0743 -31.0328 3.1272
v 4.8280 -26.2792 1.3139
v 9.0616 -25.6567 3.8108
v 16.9679 -25.6133 3.4932
v 22.3084 -26.2070 6.1178
v 51.7422 -23.0965 3.5667
v 57.9935 -21.3429 3.5667
v 63.9178 -24.6002 3.5562
v 74.8933 -26.4569 0.1746
v 77.6804 -26.4569 0.1746
v 52.4331 -14.7923 6.3331
v 55.4644 -14.7923 6.3331
v 53.1188 -10.6686 7.2413
v 53.6859 -10.6686 7.2413
v -43.9806 20.9281 3.5562
v -38.7498 20.2701 3.7693
v -30.7081 19.4137 1.3312
v -25.3988 20.0056 0.2343
v -68.7473 28.0491 3.5562
v -62.7081 25.9366 3.5562
v -54.7081 24.3926 3.5562
v -47.9806 22.5051 3.5562
v -36.1109 22.0468 6.5780
v -30.5272 24.9112 5.2964
v -22.7225 25.1557 1.9661
v -16.8966 27.7877 1.0275
v -77.1753 34.9939 3.5562
v -72.7473 30.9939 3.5562
v -28.4177 33.2077 5.8940
v -22.1938 33.6943 5.5092
v -14.2205 33.4999 4.1323
v -10.1185 35.6478 1.9039
v -82.9679 44.0951 0.9404
v -81.1133 41.3401 3.5867
v -50.7576 45.1570 -0.3815
v -50.6479 45.1570 -0.3815
v -27.9556 38.8621 6.1394
v -24.5176 38.8621 6.1394
v -11.5443 37.7858 7.2372
v -9.2874 40.7546 4.1648
v -82.9679 46.4680 0.9404
v -80.9432 49.1639 3.5867
v -52.2346 49.2077 1.3012
v -47.8455 49.0468 3.3862
v -38.7081 48.6239 3.5562
v -32.7681 50.8654 3.5562
v -7.9079 49.2077 3.5562
v -76.6283 57.1963 3.9231
v -71.0412 58.4981 3.9231
v -62.7081 55.4984 3.5562
v -55.0996 53.7790 4.1148
v -50.3765 53.2752 7.1539
v -34.9526 59.5156 7.1608
v -31.6232 56.9924 4.1190
v -21.2778 58.7340 3.5562
v -14.7081 55.7155 3.5562
v -9.2416 54.1892 3.5562
v -74.9021 61.4174 6.8344
v -73.9300 61.4174 6.8344
v -34.9526 62.2043 7.1608
v -30.3575 64.4708 3.9628
v -24.9830 64.5254 3.4813
v -28.5618 70.2717 6.0980
v -25.7400 70.2717 6.0980
v 20.6138 -59.0431 8.5125
v 23.6127 -59.0431 8.5125
v 34.8070 -60.8110 11.5562
v 41.0298 -60.8893 11.7226
v 46.7428 -59.5956 9.1669
v 12.1963 -51.7833 11.5562
v 17.6851 -55.7111 11.3300
v 25.8844 -57.3824 11.3300
v 30.8070 -57.8724 11.5562
v 43.5218 -57.7394 14.5002
v 49.4744 -54.8703 11.6970
v 54.1075 -52.0012 8.8938
v 4.1497 -43.9908 8.8537
v 8.6936 -46.7113 11.5347
v 52.2059 -48.5272 14.2271
v 56.4593 -45.8931 11.1183
v 65.2919 -44.2256 8.7996
v 70.1775 -44.2366 8.7608
v 4.0640 -38.2180 11.5347
v 7.0889 -40.5018 14.1870
v 51.9495 -36.9972 14.4630
v 57.1708 -38.9943 11.2362
v 65.3230 -38.0773 11.0518
v 72.6341 -38.0592 11.4851
v 77.8794 -35.6219 8.8760
v 4.6137 -33.2353 11.5562
v 9.0616 -29.4531 11.2987
v 17.2919 -28.9209 12.9733
v 25.1018 -29.5812 11.3474
v 33.2919 -30.7490 11.5562
v 41.2919 -32.1632 11.5562
v 49.3332 -31.8955 12.0592
v 57.8351 -31.2274 10.3899
v 65.1208 -30.0372 10.3823
v 73.3014 -30.9566 11.4593
v 77.8794 -33.8598 8.8760
v 11.5747 -25.7696 8.4603
v 17.2919 -25.5863 8.9733
v 22.3084 -26.2070 8.5415
v 51.6318 -22.7923 10.3364
v 57.9935 -22.1983 10.4103
v 65.0326 -25.1781 11.3244
v 71.5119 -25.8872 14.0426
v 52.4331 -14.7923 8.8921
v 55.4644 -14.7923 8.8921
v 53.1188 -10.6686 7.7298
v 53.6859 -10.6686 7.7298
v -44.0162 20.9167 8.1229
v -41.4443 20.9167 8.1229
v -68.2757 28.0950 11.5562
v -62.8222 27.6523 11.6214
v -54.4485 26.9642 11.6214
v -46.6929 23.6749 11.0962
v -38.3950 24.9985 11.4387
v -33.0733 27.3801 9.4212
v -76.1534 35.5659 10.1046
v -72.6911 33.0226 12.2852
v -60.2317 30.5668 14.3316
v -56.9421 30.5668 14.3316
v -35.3457 29.8094 14.7546
v -32.1438 32.7687 11.8752
v -19.1843 36.6854 7.8168
v -16.8776 36.6854 7.8168
v -77.5911 40.5002 12.2852
v -74.5896 37.3618 15.4379
v -28.7288 40.1365 11.5562
v -22.1131 41.8269 11.3560
v -14.4098 40.7546 9.3051
v -10.0032 43.1192 8.2047
v -77.4645 49.3511 11.8110
v -73.1727 52.1133 14.6475
v -59.9506 52.4815 14.3984
v -57.5220 52.4815 14.3984
v -45.0431 52.0924 10.1371
v -39.4857 51.0890 12.3047
v -32.2350 51.3959 11.5562
v -20.8814 49.2077 14.4841
v -15.3422 49.3060 13.4877
v -9.5701 49.3060 11.1453
v -75.7794 57.2077 9.0356
v -70.8847 56.8719 11.2091
v -62.6536 54.8251 11.6615
v -54.7964 53.9617 11.6615
v -47.3091 53.5536 12.3047
v -38.8117 56.3719 11.6916
v -31.1364 56.9924 10.9701
v -20.1178 57.2584 12.3752
v -16.5303 56.9026 13.1705
v -9.8142 54.5216 11.5562
v -74.9021 61.4174 7.7707
v -73.9300 61.4174 7.7707
v -34.9526 62.2043 7.9127
v -30.3073 64.3814 11.0310
v -22.6852 63.9072 12.0560
v -18.5105 61.2559 15.2960
v -28.5618 70.2717 8.8159
v -25.7400 70.2717 8.8159
v 36.5174 -59.4067 15.9494
v 38.1884 -59.4067 15.9494
v 13.0836 -50.9767 19.5562
v 17.2919 -52.8358 19.5562
v 25.2919 -54.3370 19.5562
v 33.6272 -55.9825 18.9921
v 41.1724 -54.8006 19.1037
v 46.8726 -52.4061 16.9247
v 12.6035 -47.5802 19.0448
v 15.6448 -45.4388 21.3706
v 44.1564 -49.2699 22.2580
v 49.0752 -46.2319 18.9770
v 53.4778 -43.1939 15.6961
v 5.1754 -35.1685 15.7422
v 9.5701 -38.2180 16.5815
v 16.8241 -38.7923 20.6982
v 49.9912 -39.3152 18.8401
v 53.4778 -42.3305 15.6961
v 68.9765 -35.1632 15.6999
v 69.7575 -35.1632 15.6999
v 5.1754 -34.6561 15.7422
v 9.2919 -33.5732 16.4770
v 17.9060 -33.1634 19.3812
v 25.2919 -32.3534 19.5562
v 33.2919 -30.5598 19.5562
v 41.2919 -31.1641 19.5562
v 46.6766 -33.8768 19.5562
v 67.8992 -30.7923 16.3872
v 71.3061 -30.7923 16.3872
v 67.7505 -25.8872 16.5205
v 71.5119 -25.8872 16.5205
v -67.6465 28.3529 19.5562
v -64.0518 28.3529 19.5562
v -51.6087 28.5760 17.0022
v -46.9434 27.8015 19.6238
v -40.7039 27.9237 19.5562
v -68.9877 33.6441 20.0662
v -62.6563 33.0680 21.0633
v -54.4485 30.5994 19.6238
v -49.7669 29.9137 22.3356
v -36.7039 31.4646 19.5562
v -33.6495 35.4646 19.5562
v -76.0154 42.6951 16.4987
v -71.4370 40.5002 18.4242
v -65.3672 41.2077 22.4344
v -35.5363 43.4447 22.4315
v -31.3357 41.4516 19.0668
v -25.0419 44.7917 15.7021
v -76.0154 46.7800 16.4987
v -70.5869 49.3511 17.3632
v -62.7250 49.2901 19.2575
v -55.8996 51.3312 19.5562
v -38.0267 48.8542 19.6814
v -29.9493 48.8542 16.5861
v -24.8814 49.2077 15.6871
v -13.0983 52.0382 16.2728
v -9.7989 52.0382 16.2728
v -67.8394 53.6252 15.9711
v -65.2840 53.6252 15.9711
v -51.8996 53.6275 19.5562
v -46.7081 53.9125 19.5562
v -42.2352 53.4928 19.5562
v -26.7682 57.2077 15.5821
v -23.0464 57.4925 15.6002
v -15.8044 57.5691 15.9339
v -9.7989 54.7891 16.2728
v -26.7195 61.2251 15.5622
v -22.7081 61.2569 15.5898
v -18.5105 61.2559 15.5950
v 13.2828 -50.8091 23.5709
v 17.2919 -51.5065 24.0193
v 25.2919 -51.9852 24.7712
v 33.2919 -52.0858 25.3608
v 38.8230 -51.8617 24.9450
v 13.2828 -50.7721 23.5709
v 17.9036 -47.5802 24.2008
v 25.2919 -46.7923 26.0260
v 33.2919 -46.7923 27.1852
v 41.4106 -46.6788 25.4823
v 45.9445 -43.9366 24.1613
v 20.8241 -38.7923 24.7684
v 25.2919 -38.7923 27.3655
v 33.2919 -38.7923 28.0908
v 41.2919 -38.7923 26.3869
v 46.1728 -38.7923 24.4495
v 20.9820 -34.5727 24.7155
v 25.2919 -34.0285 26.1107
v 33.2919 -33.2702 26.2664
v 41.2919 -33.2743 25.0209
v 45.8139 -33.9989 24.1421
v -67.3340 28.6721 24.3184
v -64.3095 28.6721 24.3184
v -44.4336 28.7532 24.2853
v -42.0649 28.7532 24.2853
v -67.3340 31.2683 24.3184
v -62.5526 33.0318 24.3843
v -54.7081 33.9279 25.8691
v -46.9434 32.8313 26.0764
v -39.1222 33.8523 24.8604
v -34.5166 36.9486 23.7195
v -60.9863 41.8479 27.2925
v -55.1949 41.8479 29.3726
v -46.7081 41.2077 27.9808
v -38.4050 40.9500 25.1138
v -34.5166 38.1114 23.7195
v -59.8407 48.9423 28.1703
v -54.1932 50.1610 28.0337
v -46.7081 49.2077 27.0457
v -40.8843 49.2077 24.9777
v -58.8864 53.3432 31.2464
v -53.7017 53.3110 28.1416
v -46.7081 53.5307 25.2245
v -42.1148 53.5673 24.3000
v -58.9596 44.9414 31.6900
v -58.1861 44.9414 31.6900
v -59.0304 49.2077 31.7794
v -56.7261 49.2077 31.7794
v -58.8864 53.3432 31.7200
v -56.5874 53.3432 31.7200
f 3 2 1
f 3 4 2
f 11 5 10
f 11 6 5
f 11 7 6
f 11 12 7
f 13 9 8
f 13 14 9
f 15 9 14
f 15 10 9
f 16 10 15
f 16 11 10
f 16 12 11
f 16 17 12
f 19 16 15
f 19 20 16
f 21 16 20
f 21 17 16
f 21 18 17
f 21 22 18
f 24 20 23
f 24 21 20
f 30 25 29
f 30 26 25
f 2 30 1
f 2 31 30
f 30 27 26
f 30 31 27
f 34 28 33
f 34 29 28
f 30 3 1
f 30 35 3
f 34 30 29
f 34 35 30
f 36 31 2
f 36 2 4
f 36 4 3
f 36 3 35
f 36 32 31
f 36 37 32
f 38 36 35
f 38 39 36
f 39 37 36
f 39 40 37
f 45 41 44
f 45 42 41
f 45 43 42
f 45 46 43
f 48 5 6
f 48 47 5
f 7 48 6
f 7 49 48
f 51 45 44
f 51 52 45
f 53 8 9
f 53 52 8
f 53 45 52
f 53 46 45
f 54 5 47
f 54 10 5
f 54 9 10
f 54 53 9
f 54 46 53
f 54 47 46
f 55 49 7
f 55 7 12
f 55 50 49
f 55 56 50
f 58 8 52
f 58 13 8
f 57 52 51
f 57 58 52
f 59 14 13
f 59 13 58
f 60 15 14
f 60 14 59
f 61 55 12
f 61 12 17
f 18 61 17
f 18 62 61
f 61 56 55
f 61 62 56
f 64 57 63
f 64 58 57
f 65 58 64
f 65 59 58
f 60 19 15
f 60 66 19
f 65 60 59
f 65 66 60
f 67 20 19
f 67 19 66
f 69 62 18
f 69 18 22
f 22 21 68
f 22 68 69
f 67 23 20
f 67 71 23
f 70 67 66
f 70 71 67
f 68 21 24
f 68 24 72
f 24 23 71
f 24 71 72
f 73 68 72
f 73 69 68
f 78 74 77
f 78 75 74
f 78 76 75
f 78 79 76
f 84 77 83
f 84 78 77
f 84 79 78
f 84 85 79
f 86 25 26
f 86 85 25
f 27 86 26
f 27 87 86
f 86 81 80
f 86 87 81
f 89 83 82
f 89 90 83
f 90 84 83
f 90 91 84
f 92 25 85
f 92 29 25
f 92 28 29
f 92 91 28
f 92 84 91
f 92 85 84
f 93 87 27
f 93 27 31
f 32 93 31
f 32 94 93
f 93 88 87
f 93 94 88
f 91 33 28
f 91 97 33
f 96 91 90
f 96 97 91
f 98 34 33
f 98 33 97
f 99 35 34
f 99 34 98
f 100 94 32
f 100 32 37
f 100 95 94
f 100 101 95
f 99 38 35
f 99 103 38
f 102 99 98
f 102 103 99
f 104 39 38
f 104 38 103
f 100 37 40
f 100 40 105
f 40 39 104
f 40 104 105
f 106 100 105
f 106 101 100
f 108 104 107
f 108 105 104
f 112 41 42
f 112 111 41
f 43 112 42
f 43 113 112
f 115 109 114
f 115 110 109
f 111 44 41
f 111 118 44
f 119 113 43
f 119 43 46
f 47 119 46
f 47 120 119
f 119 114 113
f 119 120 114
f 48 120 47
f 48 121 120
f 121 114 120
f 121 115 114
f 49 121 48
f 49 122 121
f 121 116 115
f 121 122 116
f 50 122 49
f 50 123 122
f 126 44 118
f 126 51 44
f 126 117 125
f 126 118 117
f 127 123 50
f 127 50 56
f 129 124 128
f 129 125 124
f 130 51 126
f 130 57 51
f 129 126 125
f 129 130 126
f 133 127 56
f 133 56 62
f 135 129 128
f 135 136 129
f 130 63 57
f 130 137 63
f 136 130 129
f 136 137 130
f 138 64 63
f 138 63 137
f 139 65 64
f 139 64 138
f 140 66 65
f 140 65 139
f 139 131 132
f 139 132 140
f 141 133 62
f 141 62 69
f 142 133 141
f 142 134 133
f 140 70 66
f 140 143 70
f 144 71 70
f 144 70 143
f 72 71 144
f 72 144 145
f 141 69 73
f 141 73 146
f 73 72 145
f 73 145 146
f 148 74 75
f 148 147 74
f 76 148 75
f 76 149 148
f 147 77 74
f 147 153 77
f 154 149 76
f 154 76 79
f 154 150 149
f 154 155 150
f 81 155 80
f 81 156 155
f 155 151 150
f 155 156 151
f 161 77 153
f 161 83 77
f 161 82 83
f 161 160 82
f 161 152 160
f 161 153 152
f 162 154 79
f 162 79 85
f 163 80 155
f 163 86 80
f 86 162 85
f 86 163 162
f 163 154 162
f 163 155 154
f 164 156 81
f 164 81 87
f 88 164 87
f 88 165 164
f 164 157 156
f 164 165 157
f 168 158 167
f 168 159 158
f 169 82 160
f 169 89 82
f 169 159 168
f 169 160 159
f 170 90 89
f 170 89 169
f 171 165 88
f 171 88 94
f 95 171 94
f 95 172 171
f 171 166 165
f 171 172 166
f 173 168 167
f 173 174 168
f 174 169 168
f 174 175 169
f 170 96 90
f 170 176 96
f 175 170 169
f 175 176 170
f 177 97 96
f 177 96 176
f 98 97 177
f 98 177 178
f 180 172 95
f 180 95 101
f 182 175 181
f 182 176 175
f 183 98 178
f 183 102 98
f 103 102 183
f 103 183 184
f 183 178 179
f 183 179 184
f 185 104 103
f 185 103 184
f 180 101 106
f 180 106 187
f 106 105 186
f 106 186 187
f 185 107 104
f 185 189 107
f 188 185 184
f 188 189 185
f 186 105 108
f 186 108 190
f 190 108 107
f 190 107 189
f 192 109 110
f 192 191 109
f 195 111 112
f 195 194 111
f 113 195 112
f 113 196 195
f 197 109 191
f 197 114 109
f 114 196 113
f 114 197 196
f 198 192 110
f 198 110 115
f 116 198 115
f 116 199 198
f 203 111 194
f 203 118 111
f 203 117 118
f 203 202 117
f 203 193 202
f 203 194 193
f 204 199 116
f 204 116 122
f 205 122 123
f 205 204 122
f 206 201 200
f 206 207 201
f 208 117 202
f 208 125 117
f 208 124 125
f 208 207 124
f 208 201 207
f 208 202 201
f 209 205 123
f 209 123 127
f 211 124 207
f 211 128 124
f 211 206 210
f 211 207 206
f 132 131 212
f 132 212 213
f 214 209 127
f 214 127 133
f 134 214 133
f 134 215 214
f 211 135 128
f 211 217 135
f 216 211 210
f 216 217 211
f 218 136 135
f 218 135 217
f 219 137 136
f 219 136 218
f 138 137 219
f 138 219 220
f 221 212 131
f 221 131 139
f 221 139 138
f 221 138 220
f 222 132 213
f 222 140 132
f 215 134 142
f 215 142 225
f 225 142 141
f 225 141 224
f 226 217 216
f 226 227 217
f 228 217 227
f 228 218 217
f 222 143 140
f 222 229 143
f 144 143 229
f 144 229 230
f 145 144 230
f 145 230 231
f 224 141 146
f 224 146 232
f 146 145 231
f 146 231 232
f 232 231 223
f 232 223 224
f 233 224 232
f 233 225 224
f 148 234 147
f 148 235 234
f 149 235 148
f 149 236 235
f 150 236 149
f 150 237 236
f 151 237 150
f 151 238 237
f 241 147 234
f 241 153 147
f 241 152 153
f 241 240 152
f 242 241 234
f 242 234 235
f 243 238 151
f 243 151 156
f 157 243 156
f 157 244 243
f 159 245 158
f 159 246 245
f 247 152 240
f 247 160 152
f 247 159 160
f 247 246 159
f 247 239 246
f 247 240 239
f 248 244 157
f 248 157 165
f 166 248 165
f 166 249 248
f 245 167 158
f 245 251 167
f 254 249 166
f 254 166 172
f 251 173 167
f 251 256 173
f 255 251 250
f 255 256 251
f 257 174 173
f 257 173 256
f 258 175 174
f 258 174 257
f 177 176 259
f 177 259 260
f 260 259 252
f 260 252 253
f 261 178 177
f 261 177 260
f 179 178 261
f 179 261 262
f 254 172 180
f 254 180 263
f 264 257 256
f 264 265 257
f 258 181 175
f 258 266 181
f 265 258 257
f 265 266 258
f 259 176 182
f 259 182 267
f 267 182 181
f 267 181 266
f 268 179 262
f 268 184 179
f 271 263 180
f 271 180 187
f 271 187 186
f 271 186 270
f 268 188 184
f 268 272 188
f 273 189 188
f 273 188 272
f 274 270 186
f 274 186 190
f 274 190 189
f 274 189 273
f 274 273 269
f 274 269 270
f 276 191 192
f 276 275 191
f 278 193 194
f 278 277 193
f 195 278 194
f 195 279 278
f 280 195 196
f 280 279 195
f 275 197 191
f 275 281 197
f 197 280 196
f 197 281 280
f 276 192 198
f 276 198 282
f 282 281 275
f 282 275 276
f 283 198 199
f 283 282 198
f 201 284 200
f 201 285 284
f 286 193 277
f 286 202 193
f 286 201 202
f 286 285 201
f 288 287 278
f 288 278 279
f 289 281 282
f 289 282 290
f 283 199 204
f 283 204 291
f 290 282 283
f 290 283 291
f 292 204 205
f 292 291 204
f 284 206 200
f 284 293 206
f 294 293 284
f 294 284 285
f 295 290 291
f 295 291 296
f 292 205 209
f 292 209 297
f 296 291 292
f 296 292 297
f 293 210 206
f 293 298 210
f 213 212 299
f 213 299 300
f 303 297 209
f 303 209 214
f 215 303 214
f 215 304 303
f 298 216 210
f 298 305 216
f 219 218 307
f 219 307 308
f 309 220 219
f 309 219 308
f 299 212 221
f 299 221 310
f 221 220 309
f 221 309 310
f 300 222 213
f 300 311 222
f 310 300 299
f 310 311 300
f 312 301 302
f 312 302 313
f 314 224 223
f 314 223 313
f 304 215 225
f 304 225 315
f 316 216 305
f 316 226 216
f 227 226 316
f 227 316 317
f 316 305 306
f 316 306 317
f 307 218 228
f 307 228 318
f 228 227 317
f 228 317 318
f 319 307 318
f 319 308 307
f 320 222 311
f 320 229 222
f 230 229 320
f 230 320 321
f 322 313 223
f 322 223 231
f 322 231 230
f 322 230 321
f 323 224 314
f 323 232 224
f 315 225 233
f 315 233 324
f 233 232 323
f 233 323 324
f 324 323 314
f 324 314 315
f 325 321 320
f 325 326 321
f 328 325 327
f 328 326 325
f 236 329 235
f 236 330 329
f 331 236 237
f 331 330 236
f 332 237 238
f 332 331 237
f 334 239 240
f 334 333 239
f 335 240 241
f 335 334 240
f 329 242 235
f 329 336 242
f 242 335 241
f 242 336 335
f 337 330 331
f 337 331 338
f 332 238 243
f 332 243 339
f 338 331 332
f 338 332 339
f 340 243 244
f 340 339 243
f 342 239 333
f 342 246 239
f 342 245 246
f 342 341 245
f 343 338 339
f 343 339 344
f 340 244 248
f 340 248 345
f 344 339 340
f 344 340 345
f 346 248 249
f 346 345 248
f 341 251 245
f 341 348 251
f 348 250 251
f 348 347 250
f 253 252 349
f 253 349 350
f 352 351 343
f 352 343 344
f 346 249 254
f 346 254 354
f 353 345 346
f 353 346 354
f 347 255 250
f 347 355 255
f 356 256 255
f 356 255 355
f 355 347 348
f 355 348 356
f 357 349 252
f 357 252 259
f 350 260 253
f 350 358 260
f 357 350 349
f 357 358 350
f 359 261 260
f 359 260 358
f 262 261 359
f 262 359 360
f 361 354 254
f 361 254 263
f 356 264 256
f 356 362 264
f 265 264 362
f 265 362 363
f 364 266 265
f 364 265 363
f 357 259 267
f 357 267 365
f 267 266 364
f 267 364 365
f 366 357 365
f 366 358 357
f 360 268 262
f 360 368 268
f 370 270 269
f 370 269 369
f 371 361 263
f 371 263 271
f 271 270 370
f 271 370 371
f 372 363 362
f 372 373 363
f 368 272 268
f 368 375 272
f 374 368 367
f 374 375 368
f 376 369 269
f 376 269 273
f 376 273 272
f 376 272 375
f 377 376 375
f 377 378 376
f 380 277 278
f 380 379 277
f 280 381 279
f 280 382 381
f 383 280 281
f 383 382 280
f 379 286 277
f 379 385 286
f 286 384 285
f 286 385 384
f 380 278 287
f 380 287 386
f 386 385 379
f 386 379 380
f 381 288 279
f 381 387 288
f 387 287 288
f 387 386 287
f 383 281 289
f 383 289 389
f 388 382 383
f 388 383 389
f 390 289 290
f 390 389 289
f 384 294 285
f 384 392 294
f 294 391 293
f 294 392 391
f 390 290 295
f 390 295 394
f 393 389 390
f 393 390 394
f 395 295 296
f 395 394 295
f 396 296 297
f 396 395 296
f 391 298 293
f 391 397 298
f 398 397 391
f 398 391 392
f 401 302 301
f 401 301 400
f 400 394 395
f 400 395 401
f 396 297 303
f 396 303 402
f 401 395 396
f 401 396 402
f 403 303 304
f 403 402 303
f 404 298 397
f 404 305 298
f 306 305 404
f 306 404 405
f 408 309 308
f 408 308 407
f 310 309 408
f 310 408 409
f 311 310 409
f 311 409 410
f 411 400 301
f 411 301 312
f 411 410 399
f 411 399 400
f 412 302 401
f 412 313 302
f 412 312 313
f 412 411 312
f 413 314 313
f 413 313 412
f 414 403 304
f 414 304 315
f 414 315 314
f 414 314 413
f 413 402 403
f 413 403 414
f 415 306 405
f 415 317 306
f 318 317 415
f 318 415 416
f 415 405 406
f 415 406 416
f 417 407 308
f 417 308 319
f 319 318 416
f 319 416 417
f 417 416 406
f 417 406 407
f 418 311 410
f 418 320 311
f 418 410 411
f 418 411 419
f 420 412 313
f 420 313 322
f 322 321 419
f 322 419 420
f 420 419 411
f 420 411 412
f 421 412 420
f 421 413 412
f 418 325 320
f 418 422 325
f 423 419 321
f 423 321 326
f 423 422 418
f 423 418 419
f 424 325 422
f 424 327 325
f 425 423 326
f 425 326 328
f 328 327 424
f 328 424 425
f 425 424 422
f 425 422 423
f 427 329 330
f 427 426 329
f 334 428 333
f 334 429 428
f 430 334 335
f 430 429 334
f 426 336 329
f 426 431 336
f 431 335 336
f 431 430 335
f 427 330 337
f 427 337 432
f 431 426 427
f 431 427 432
f 433 337 338
f 433 432 337
f 428 342 333
f 428 435 342
f 342 434 341
f 342 435 434
f 437 436 429
f 437 429 430
f 433 338 343
f 433 343 439
f 438 432 433
f 438 433 439
f 441 344 345
f 441 440 344
f 434 348 341
f 434 442 348
f 443 442 434
f 443 434 435
f 444 439 343
f 444 343 351
f 440 352 344
f 440 445 352
f 352 444 351
f 352 445 444
f 441 345 353
f 441 353 446
f 446 445 440
f 446 440 441
f 447 353 354
f 447 446 353
f 448 348 442
f 448 356 348
f 359 358 452
f 359 452 453
f 454 360 359
f 454 359 453
f 456 455 445
f 456 445 446
f 447 354 361
f 447 361 457
f 456 446 447
f 456 447 457
f 458 356 448
f 458 362 356
f 458 448 449
f 458 449 459
f 364 363 459
f 364 459 460
f 365 364 460
f 365 460 461
f 461 460 450
f 461 450 451
f 452 358 366
f 452 366 462
f 366 365 461
f 366 461 462
f 463 452 462
f 463 453 452
f 454 368 360
f 454 464 368
f 464 367 368
f 464 463 367
f 370 369 465
f 370 465 466
f 466 465 455
f 466 455 456
f 457 361 371
f 457 371 467
f 467 371 370
f 467 370 466
f 458 372 362
f 458 468 372
f 469 459 363
f 469 363 373
f 373 372 468
f 373 468 469
f 469 468 458
f 469 458 459
f 470 367 463
f 470 374 367
f 471 375 374
f 471 374 470
f 470 463 464
f 470 464 471
f 472 465 369
f 472 369 376
f 473 465 472
f 473 466 465
f 474 375 471
f 474 377 375
f 475 472 376
f 475 376 378
f 378 377 474
f 378 474 475
f 475 474 471
f 475 471 472
f 477 381 382
f 477 476 381
f 479 384 385
f 479 478 384
f 480 385 386
f 480 479 385
f 476 387 381
f 476 481 387
f 387 480 386
f 387 481 480
f 477 382 388
f 477 388 482
f 481 476 477
f 481 477 482
f 483 388 389
f 483 482 388
f 484 384 478
f 484 392 384
f 483 389 393
f 483 393 487
f 486 482 483
f 486 483 487
f 488 393 394
f 488 487 393
f 490 392 484
f 490 398 392
f 398 489 397
f 398 490 489
f 491 490 484
f 491 484 485
f 493 488 394
f 493 394 400
f 493 400 399
f 493 399 492
f 492 487 488
f 492 488 493
f 402 494 401
f 402 495 494
f 489 404 397
f 489 496 404
f 497 405 404
f 497 404 496
f 497 496 489
f 497 489 490
f 406 405 497
f 406 497 498
f 497 490 491
f 497 491 498
f 499 407 406
f 499 406 498
f 408 407 499
f 408 499 500
f 501 409 408
f 501 408 500
f 502 492 399
f 502 399 410
f 502 410 409
f 502 409 501
f 494 412 401
f 494 503 412
f 495 402 413
f 495 413 504
f 503 494 495
f 503 495 504
f 505 412 503
f 505 420 412
f 504 413 421
f 504 421 506
f 421 420 505
f 421 505 506
f 505 503 504
f 505 504 506
f 508 428 429
f 508 507 428
f 431 509 430
f 431 510 509
f 511 431 432
f 511 510 431
f 507 435 428
f 507 512 435
f 508 429 436
f 508 436 513
f 509 437 430
f 509 514 437
f 514 436 437
f 514 513 436
f 515 514 509
f 515 509 510
f 511 432 438
f 511 438 516
f 517 438 439
f 517 516 438
f 512 443 435
f 512 519 443
f 443 518 442
f 443 519 518
f 520 519 512
f 520 512 513
f 517 439 444
f 517 444 522
f 523 444 445
f 523 522 444
f 524 442 518
f 524 448 442
f 449 448 524
f 449 524 525
f 524 518 519
f 524 519 525
f 525 519 520
f 525 520 526
f 527 451 450
f 527 450 526
f 454 453 528
f 454 528 529
f 529 528 521
f 529 521 522
f 523 445 455
f 523 455 530
f 529 522 523
f 529 523 530
f 532 456 457
f 532 531 456
f 533 449 525
f 533 459 449
f 534 526 450
f 534 450 460
f 460 459 533
f 460 533 534
f 534 533 525
f 534 525 526
f 535 451 527
f 535 461 451
f 462 461 535
f 462 535 536
f 537 528 453
f 537 453 463
f 537 463 462
f 537 462 536
f 538 454 529
f 538 464 454
f 539 530 455
f 539 455 465
f 538 529 530
f 538 530 539
f 531 466 456
f 531 540 466
f 540 465 466
f 540 539 465
f 532 457 467
f 532 467 541
f 541 467 466
f 541 466 540
f 541 540 531
f 541 531 532
f 542 464 538
f 542 471 464
f 472 471 542
f 472 542 543
f 542 538 539
f 542 539 543
f 540 466 473
f 540 473 544
f 473 472 543
f 473 543 544
f 544 543 539
f 544 539 540
f 479 545 478
f 479 546 545
f 547 479 480
f 547 546 479
f 548 480 481
f 548 547 480
f 549 481 482
f 549 548 481
f 550 478 545
f 550 484 478
f 485 484 550
f 485 550 551
f 550 545 546
f 550 546 551
f 551 546 547
f 551 547 552
f 552 547 548
f 552 548 553
f 549 482 486
f 549 486 554
f 553 548 549
f 553 549 554
f 555 486 487
f 555 554 486
f 556 485 551
f 556 491 485
f 556 551 552
f 556 552 557
f 557 552 553
f 557 553 558
f 559 558 553
f 559 553 554
f 555 487 492
f 555 492 560
f 559 554 555
f 559 555 560
f 561 491 556
f 561 498 491
f 499 498 561
f 499 561 562
f 561 556 557
f 561 557 562
f 563 500 499
f 563 499 562
f 562 557 558
f 562 558 563
f 564 501 500
f 564 500 563
f 563 558 559
f 563 559 564
f 560 492 502
f 560 502 565
f 565 502 501
f 565 501 564
f 565 564 559
f 565 559 560
f 508 566 507
f 508 567 566
f 511 568 510
f 511 569 568
f 570 507 566
f 570 512 507
f 567 508 513
f 567 513 571
f 513 512 570
f 513 570 571
f 570 566 567
f 570 567 571
f 572 513 514
f 572 571 513
f 568 515 510
f 568 573 515
f 515 572 514
f 515 573 572
f 569 511 516
f 569 516 574
f 573 568 569
f 573 569 574
f 575 516 517
f 575 574 516
f 571 520 513
f 571 576 520
f 576 571 572
f 576 572 577
f 578 577 572
f 578 572 573
f 578 573 574
f 578 574 579
f 580 575 517
f 580 517 522
f 580 522 521
f 580 521 579
f 579 574 575
f 579 575 580
f 576 526 520
f 576 581 526
f 527 526 581
f 527 581 582
f 583 582 577
f 583 577 578
f 584 579 521
f 584 521 528
f 584 583 578
f 584 578 579
f 586 527 582
f 586 535 527
f 585 582 581
f 585 586 582
f 587 536 535
f 587 535 586
f 586 582 583
f 586 583 587
f 584 528 537
f 584 537 588
f 588 537 536
f 588 536 587
f 588 587 583
f 588 583 584
f 577 589 576
f 577 590 589
f 589 581 576
f 589 591 581
f 590 577 582
f 590 582 592
f 591 589 590
f 591 590 592
f 591 585 581
f 591 593 585
f 594 592 582
f 594 582 586
f 594 586 585
f 594 585 593
f 593 591 592
f 593 592 594
