# parsimony mesh: cplx_CPLX0-7942 (source /Users/eranagmon/code/v2e-cplx/workspace/studies/ecoli-3d/viz/3d/structures/cplx_CPLX0-7942.pdb)
# atoms: 1749  voxel: 4 Å  verts: 894  tris: 1808
v 23.5709 -36.6506 -18.5807
v 24.1917 -36.6506 -18.5807
v 23.5709 -35.5664 -18.5807
v 24.1917 -35.5664 -18.5807
v -40.5048 31.6645 -18.6857
v -38.1639 31.3994 -18.7667
v -35.9693 31.6165 -18.5924
v -40.5048 32.9348 -18.6857
v -38.1347 34.2099 -18.7697
v -35.7253 34.1226 -18.6396
v -36.7819 36.4126 -18.5163
v -35.7737 36.4126 -18.5163
v -24.3467 39.9887 -18.4428
v -23.9960 39.9887 -18.4428
v -24.3467 40.3362 -18.4428
v -23.9960 40.3362 -18.4428
v 31.2691 -44.1385 -14.6516
v 32.3300 -44.1385 -14.6516
v 23.7407 -39.9462 -14.7198
v 25.8361 -40.4695 -14.9561
v 29.8959 -41.9098 -15.2892
v 33.0969 -41.8774 -15.1952
v 23.2325 -37.9413 -16.1854
v 25.6495 -37.9413 -16.6462
v 29.8361 -37.8774 -15.9459
v 34.1484 -38.1980 -15.6564
v 37.8361 -37.4925 -15.4465
v 41.8361 -37.2092 -15.1684
v 44.0968 -36.7008 -14.8192
v 23.1531 -35.2169 -16.3837
v 25.6495 -35.0695 -16.1883
v 29.9023 -33.9979 -15.5226
v 33.8361 -33.8774 -16.9137
v 37.8361 -33.8774 -16.4955
v 41.8361 -33.8774 -15.4743
v 44.0463 -33.8774 -14.7247
v 31.3683 -29.8774 -15.9291
v 33.8361 -29.8774 -17.3018
v 37.8361 -29.8774 -16.6255
v 41.8361 -29.8774 -15.5370
v 44.0624 -29.8774 -14.6679
v 31.7686 -27.8152 -15.3879
v 33.8361 -27.2873 -15.7521
v 37.8361 -26.7418 -15.5765
v 42.0895 -25.8036 -15.1102
v 44.1477 -25.8774 -14.7143
v 43.5918 -23.7919 -14.4647
v 43.9693 -23.7919 -14.4647
v -36.4920 23.3257 -14.5578
v -35.1345 23.3257 -14.5578
v -29.1623 23.9217 -14.4800
v -27.9990 23.9217 -14.4800
v -40.4538 27.7819 -14.6803
v -37.9608 26.3182 -15.0435
v -33.9463 26.0616 -14.8983
v -30.3630 26.0616 -14.5552
v -27.8866 26.1226 -14.5571
v -44.4522 31.7512 -14.6596
v -41.8127 30.3745 -16.0033
v -38.1639 29.3994 -17.0778
v -34.4472 30.2190 -16.4146
v -30.1639 30.1226 -14.5918
v -27.9335 30.1226 -14.5249
v -44.4522 32.4737 -14.6596
v -41.9873 34.0376 -16.3570
v -39.4486 35.6015 -18.0544
v -33.7253 34.1226 -16.9174
v -30.1639 34.1226 -15.3464
v -26.5025 34.2136 -15.0457
v -22.1639 35.4161 -15.4331
v -19.6827 35.6957 -15.2516
v -40.8030 37.3779 -15.3877
v -38.1347 37.6751 -16.5861
v -34.3298 37.4386 -16.3899
v -30.0615 38.2393 -15.2587
v -25.8736 38.4423 -16.7713
v -22.4632 38.4423 -17.0930
v -19.6022 38.1226 -15.3719
v -28.6599 40.2573 -14.6463
v -25.8736 40.9703 -16.1413
v -22.4632 41.1206 -16.2535
v -19.8962 40.5078 -14.8334
v 31.6047 -47.9772 -10.5273
v 33.8361 -48.0830 -10.5851
v 36.0383 -48.0516 -10.5086
v 27.4968 -44.2794 -10.9568
v 30.1036 -45.5423 -12.0754
v 33.7324 -45.6341 -12.5190
v 36.3473 -45.8774 -10.9451
v 23.6289 -40.1060 -12.3837
v 26.0325 -42.0927 -12.3276
v 28.6024 -43.2647 -13.6235
v 35.0969 -41.8774 -13.6172
v 37.7237 -41.6876 -11.8008
v 40.2275 -40.2277 -11.1009
v 19.7790 -35.9543 -10.5014
v 21.6831 -37.5235 -12.0543
v 35.6899 -39.7452 -14.0714
v 37.8361 -39.4925 -13.6873
v 42.0259 -38.0986 -12.0859
v 44.0968 -36.7008 -13.0708
v 19.4099 -33.8774 -10.8456
v 22.0189 -33.6780 -12.0250
v 25.6666 -32.9586 -12.2839
v 28.6132 -32.7449 -13.5508
v 43.8244 -35.8664 -10.4041
v 45.3095 -33.9796 -11.8436
v 48.2243 -32.0928 -10.6163
v 19.3249 -31.4820 -10.8818
v 20.8471 -31.4820 -10.8818
v 26.8870 -31.3352 -10.8841
v 30.1909 -29.9386 -12.5381
v 32.5696 -28.5421 -11.5255
v 46.2608 -29.8814 -12.1233
v 48.2243 -31.2174 -10.6163
v 31.7686 -27.8152 -14.1922
v 33.8762 -26.8917 -12.6688
v 37.8361 -25.5143 -12.3837
v 41.1057 -24.6997 -12.3837
v 45.3990 -25.8774 -12.3837
v 39.6312 -20.3345 -10.5475
v 41.8500 -22.0699 -11.5967
v 44.3826 -23.3714 -12.3837
v 39.6312 -19.7003 -10.5475
v 40.1758 -19.7003 -10.5475
v 47.3768 -16.2746 -11.0810
v 48.3038 -16.2746 -11.0810
v 47.3768 -14.5948 -11.0810
v 48.3038 -14.5948 -11.0810
v -36.2542 20.0785 -10.9214
v -34.1639 19.9817 -11.0434
v -30.1639 19.9742 -10.7245
v -28.0816 20.0684 -10.4962
v -40.6390 23.6264 -11.1141
v -37.7064 22.1427 -12.3511
v -33.9463 22.0445 -13.2612
v -30.3630 22.4021 -13.0061
v -27.6349 22.4021 -12.0512
v -41.3080 26.3182 -12.4219
v -39.1587 25.1153 -13.7808
v -32.4679 24.6876 -14.2999
v -31.8290 24.6876 -14.2999
v -26.8590 26.1226 -12.3837
v -44.8464 30.9300 -12.3837
v -43.2378 28.9300 -12.3837
v -25.9383 30.4970 -12.0011
v -24.1288 32.0799 -10.4126
v -44.8464 33.0284 -12.3837
v -43.1494 35.0284 -12.3837
v -25.3950 32.9409 -13.0793
v -22.5428 33.5493 -12.0011
v -18.2752 35.3757 -12.1072
v -15.7395 35.9849 -10.5896
v -41.1194 38.4758 -12.6881
v -38.1639 39.8457 -13.8674
v -34.1639 39.5501 -13.0826
v -31.3266 39.6504 -13.1780
v -17.6022 38.1226 -12.6984
v -14.3093 38.3383 -10.8195
v -10.1639 39.6774 -10.9938
v -7.8731 39.8363 -10.8905
v -40.4425 40.3649 -11.5577
v -38.1639 40.5392 -11.8674
v -34.1639 40.3739 -11.0826
v -30.0615 40.4273 -12.0603
v -26.0472 42.6529 -12.4120
v -22.4030 42.7079 -12.4120
v -18.4033 40.5790 -12.1120
v -13.8562 41.8325 -10.8651
v -10.1639 42.1226 -11.7227
v -7.5528 42.1226 -11.2813
v -24.6360 44.2773 -11.0975
v -23.8957 44.2773 -11.0975
v -12.3176 44.6286 -10.6656
v -10.2392 46.0262 -11.3506
v -7.0537 46.1226 -11.3809
v -8.9560 48.4976 -11.0232
v -7.2075 48.4976 -11.0232
v 27.0924 -48.1034 -6.6032
v 30.0972 -48.3999 -8.1154
v 33.8361 -49.0865 -8.3837
v 36.5214 -48.6028 -8.3837
v 26.4350 -45.7186 -8.1154
v 28.9380 -46.9460 -9.2699
v 38.2720 -45.5336 -8.0310
v 41.8361 -44.0712 -6.5467
v 44.0975 -44.0421 -6.5222
v 23.6996 -40.0816 -8.3837
v 24.6424 -42.0816 -8.3837
v 38.9822 -42.8944 -9.1292
v 41.6709 -41.6876 -8.4811
v 44.8153 -41.8774 -6.9464
v 19.7790 -35.9543 -10.3051
v 21.9376 -37.5235 -8.7366
v 43.1209 -37.8774 -9.8255
v 46.0626 -37.6970 -7.5762
v 47.9066 -36.2435 -6.4487
v 19.4099 -33.8774 -10.0080
v 22.4177 -33.0935 -8.4691
v 24.2203 -32.0483 -9.0838
v 43.8244 -35.8664 -10.3611
v 45.8361 -35.0307 -9.4154
v 49.3988 -33.5413 -8.0797
v 52.1684 -32.3230 -7.0440
v 19.3249 -31.4820 -9.9613
v 22.3390 -31.6763 -8.1893
v 25.6666 -30.9379 -8.0038
v 29.9202 -28.9407 -8.1762
v 32.5696 -28.5421 -9.3712
v 47.5756 -28.5507 -10.0527
v 49.8552 -29.7575 -8.5483
v 52.1684 -30.9642 -7.0440
v 31.3096 -27.7122 -6.7045
v 34.1734 -26.0334 -8.0008
v 37.8361 -24.6499 -8.9673
v 40.4399 -24.4301 -9.5817
v 47.1710 -25.5701 -8.5851
v 48.8195 -26.6985 -7.3860
v 35.7772 -23.8090 -6.6305
v 38.2075 -22.0718 -8.1061
v 41.6411 -21.8114 -9.6682
v 46.0788 -22.1340 -8.2659
v 48.2962 -20.9798 -6.7770
v 39.3932 -19.3577 -8.3837
v 41.6629 -18.1976 -8.3645
v 45.9605 -17.7157 -8.9966
v 48.5811 -17.7157 -8.2197
v 43.1500 -15.2844 -6.9742
v 45.9605 -14.1600 -8.3380
v 48.4223 -14.1753 -8.3837
v -36.2702 20.0630 -8.3837
v -34.1639 19.9116 -8.3837
v -30.4603 19.9690 -8.6805
v -28.0816 20.0684 -10.2117
v -40.8356 23.5263 -8.3837
v -38.2702 21.5263 -8.3837
v -29.3245 20.7655 -7.5450
v -27.4715 22.1083 -8.6805
v -48.3879 27.7333 -6.6658
v -46.1639 27.3302 -7.4985
v -42.9864 26.1223 -8.7063
v -25.4795 26.3559 -8.2528
v -23.1013 27.8447 -6.8322
v -48.3879 29.1002 -6.6658
v -46.3760 30.0020 -8.4602
v -43.9725 28.2371 -10.2546
v -24.7618 29.4132 -9.4989
v -23.0298 30.4970 -8.2528
v -48.2148 35.5791 -6.4510
v -46.3760 34.2792 -7.9522
v -43.5055 35.6460 -9.4534
v -21.5432 33.2228 -8.3837
v -18.0006 35.3201 -8.3004
v -15.7395 35.9849 -9.5781
v -48.2148 36.2416 -6.4510
v -46.1639 36.5120 -6.7364
v -41.9740 38.2893 -7.9847
v -40.0732 40.0559 -6.5160
v -16.5584 36.3827 -6.9115
v -14.3093 37.6343 -8.3004
v -10.4956 39.7065 -8.5085
v -7.8731 39.8363 -9.9250
v -40.4425 40.3649 -9.1827
v -38.5095 40.6781 -8.0631
v -34.1639 41.3249 -8.3837
v -30.3015 42.4851 -8.5104
v -27.3027 43.1406 -9.9281
v -21.2291 42.9817 -9.1884
v -17.8388 42.7312 -8.0665
v -15.2649 43.2391 -8.3837
v -9.3833 41.2762 -7.2584
v -7.6231 42.4148 -8.5085
v -29.0599 44.8264 -7.2615
v -26.0472 45.0015 -8.5104
v -22.4030 44.6167 -8.0665
v -18.9553 44.1852 -6.5217
v -13.2649 45.5011 -8.3837
v -10.2392 46.9922 -8.3643
v -7.2238 45.8894 -8.3643
v -8.9560 48.4976 -9.6847
v -7.2075 48.4976 -9.6847
v 27.0924 -48.1034 -5.6309
v 30.0596 -48.3641 -4.3320
v 33.8361 -49.5738 -4.3837
v 37.3424 -49.1350 -4.3837
v 23.1921 -44.6918 -3.6427
v 25.5048 -46.1762 -4.6368
v 28.8753 -47.6605 -2.9642
v 39.3424 -46.8809 -4.3837
v 41.8670 -44.7790 -4.3633
v 44.0975 -44.0421 -5.6831
v 22.9210 -41.4991 -4.7391
v 23.9171 -42.5803 -6.3094
v 43.2209 -43.5058 -3.0164
v 45.8222 -42.0802 -4.4659
v 48.0502 -40.6547 -3.2487
v 22.5829 -37.8774 -4.3837
v 47.5470 -38.9102 -5.9153
v 48.2826 -37.6970 -4.5027
v 23.3592 -33.5467 -4.7272
v 23.9144 -31.9929 -3.6228
v 50.3360 -33.7448 -4.2421
v 52.1684 -32.3230 -5.4811
v 23.8310 -31.8707 -6.2895
v 25.7277 -30.0322 -4.6886
v 28.6429 -28.1937 -5.7544
v 50.7756 -29.7295 -4.2421
v 52.1684 -30.9642 -5.4811
v 27.5409 -27.5315 -3.0877
v 29.9202 -26.9009 -4.4061
v 32.9375 -24.9161 -4.3837
v 47.7260 -24.0319 -6.1815
v 48.8987 -25.5701 -4.6624
v 34.8540 -22.2363 -4.1096
v 36.7837 -21.1423 -5.2601
v 47.7260 -23.6465 -6.1815
v 48.5551 -22.1388 -4.6624
v 34.6365 -17.8774 -2.9949
v 38.1547 -17.9804 -4.1245
v 40.9021 -17.0319 -4.3837
v 47.0336 -16.6548 -2.9757
v 48.4385 -17.9438 -4.3389
v 34.6754 -15.2395 -2.9888
v 36.8590 -15.2395 -2.9888
v 42.9021 -15.2865 -4.3837
v 45.7546 -14.8126 -4.3389
v 48.1499 -14.8905 -5.6424
v -36.5860 19.9700 -4.3837
v -34.3759 19.9656 -4.7094
v -31.9912 20.0645 -6.2599
v -45.0720 23.9018 -2.8452
v -42.0162 23.2570 -4.2606
v -38.5860 21.2062 -4.3837
v -33.1839 20.9913 -3.5932
v -30.5287 22.2117 -4.7234
v -27.7267 23.4321 -5.8536
v -52.2438 27.9998 -2.4563
v -49.8983 27.1771 -4.0273
v -46.3088 25.2504 -4.2606
v -43.2511 24.7887 -5.5119
v -29.0662 25.3584 -3.1869
v -26.3635 26.6016 -4.2997
v -23.1013 27.8447 -5.4124
v -52.2438 28.2482 -2.4563
v -49.7826 30.0075 -4.2373
v -47.9663 31.7668 -6.0184
v -25.0002 28.3837 -2.7458
v -22.6133 29.8793 -4.2010
v -48.3626 34.3313 -4.6003
v -47.9668 34.3313 -4.6003
v -21.0226 33.6692 -4.3837
v -19.4107 35.6692 -4.3837
v -48.2148 36.2416 -5.8489
v -46.1657 37.7155 -4.2906
v -42.1639 39.3727 -5.5947
v -40.0732 40.0559 -6.3164
v -17.4107 36.6738 -4.3837
v -13.9558 38.9036 -4.6254
v -12.0500 40.0227 -6.1199
v -44.3641 40.2645 -2.7323
v -42.1639 40.8895 -3.5947
v -38.5095 41.6134 -4.7433
v -34.1639 42.8453 -4.3837
v -31.7808 43.6422 -4.3837
v -20.7466 43.1874 -3.4621
v -17.6270 43.6411 -4.8040
v -14.3760 42.9678 -4.5165
v -10.4956 42.4148 -5.4494
v -8.0774 43.9428 -6.2789
v -29.7808 45.1647 -4.3837
v -26.1639 45.8768 -4.3837
v -22.1135 44.7298 -4.6308
v -17.6270 44.1721 -4.8040
v -14.5848 44.8068 -4.3372
v -10.1639 45.3301 -5.4137
v -8.0774 44.4006 -6.2789
v 27.7613 -51.9694 1.5077
v 28.1096 -51.9694 1.5077
v 23.8196 -47.8886 1.5797
v 26.1912 -49.4841 0.9675
v 29.8258 -49.6991 -0.2394
v 33.8361 -49.7447 -0.3837
v 37.4354 -49.0120 -0.3837
v 19.7984 -43.9466 1.5250
v 22.1725 -45.6525 0.2190
v 25.8361 -47.3256 -1.1132
v 28.8753 -47.6605 -1.9865
v 39.4354 -47.3494 -0.3837
v 41.8670 -45.1823 -0.5029
v 44.0902 -44.0896 0.7510
v 19.5924 -41.8774 0.9023
v 20.6930 -41.8774 -1.0977
v 43.2209 -43.5058 -1.9157
v 45.9203 -42.0802 -0.2637
v 48.0502 -40.6547 -1.2783
v 19.5488 -38.7594 0.7556
v 20.7800 -37.6066 -0.5001
v 47.7504 -39.7863 1.3883
v 49.5063 -37.9832 0.0233
v 52.0015 -36.1802 1.3249
v 19.6606 -32.8057 1.4658
v 21.7294 -33.7326 -0.4056
v 23.9144 -31.9929 -2.2770
v 50.4820 -34.0961 -0.1585
v 52.0015 -35.5752 1.3249
v 15.7206 -28.0521 1.4296
v 18.1308 -29.5822 1.1218
v 21.9639 -29.7293 0.4979
v 25.7277 -29.4670 -0.4302
v 27.9483 -27.9700 1.4167
v 47.7125 -28.1916 1.2278
v 48.7739 -29.6659 -0.2168
v 15.7206 -27.6494 1.4296
v 17.8361 -26.9630 1.1111
v 20.7158 -26.8861 1.1294
v 27.5409 -27.5315 -1.2500
v 29.3286 -25.8129 -0.4227
v 32.0302 -24.0942 -2.2621
v 47.5131 -25.8774 1.0173
v 48.4267 -25.8774 -0.9827
v 30.7592 -21.8774 0.2339
v 32.6526 -21.8774 -1.7661
v 39.6394 -19.9638 1.3818
v 40.7304 -19.9638 1.3818
v 46.6361 -21.8774 0.5240
v 48.3897 -21.8774 -1.4760
v 10.9321 -16.7662 0.7008
v 13.8361 -17.2907 0.5943
v 16.5605 -16.8729 1.1691
v 31.5273 -19.3535 0.9848
v 33.7030 -18.0142 -0.2466
v 38.2492 -17.9704 -0.0481
v 42.0036 -18.2121 -0.3342
v 45.4550 -18.2398 -0.7401
v 48.0660 -19.3214 -2.0966
v 10.9321 -14.8866 0.7008
v 13.8361 -14.8634 0.5943
v 16.5605 -15.5161 1.1691
v 34.6754 -15.2395 -1.4780
v 36.8590 -15.2395 -1.4780
v 43.2768 -15.6825 -2.0503
v 44.3669 -15.6825 -2.0503
v -37.1020 19.6769 -0.3837
v -35.5318 19.6769 -0.3837
v -52.1683 24.1174 1.6061
v -50.1639 23.8190 0.8879
v -46.1485 23.8124 -0.4221
v -42.3890 22.9607 -0.2532
v -39.1020 20.8358 -0.3837
v -33.5318 21.3345 -0.3837
v -31.3697 23.3345 -0.3837
v -52.3984 26.4489 0.0102
v -50.1639 25.2327 -1.1121
v -46.1485 24.4005 -0.4221
v -43.8724 24.4088 1.1672
v -29.1296 26.4641 0.0074
v -27.6669 28.0251 -1.0652
v -52.4538 28.8493 -0.3837
v -51.2289 30.8493 -0.3837
v -28.1657 28.1255 1.6015
v -26.4163 29.5880 -0.1865
v -23.4346 31.0504 -1.9745
v -49.4665 34.2991 -0.6848
v -47.9674 35.7501 -2.2189
v -25.6779 34.1226 0.2817
v -22.1263 34.4716 -1.8344
v -20.0985 36.0375 -2.3555
v -48.9279 38.1226 0.4778
v -47.1666 38.1226 -1.5222
v -25.1807 37.2050 0.7610
v -22.1639 37.7192 -0.0040
v -18.5247 37.5025 -0.7668
v -14.5388 39.0627 -0.3837
v -48.4315 40.3616 1.2668
v -45.6783 41.6464 0.0204
v -42.1639 42.8895 -0.7125
v -38.2816 43.6118 -0.1414
v -34.1639 43.2896 -0.3837
v -31.6242 43.5887 -0.3837
v -20.7466 43.1874 -1.8499
v -17.8106 43.4431 -0.7076
v -14.5803 42.2683 -0.6927
v -44.3258 44.2565 1.4407
v -42.1639 44.2669 1.2875
v -39.6934 44.1811 1.3534
v -29.6242 44.8634 -0.3837
v -26.1639 45.2458 -0.3837
v -22.1135 44.7875 -0.4634
v -17.8106 44.4400 -0.7076
v -15.6914 44.1591 -2.2321
v 27.5103 -52.2146 3.6163
v 29.0256 -52.2146 3.6163
v 34.5276 -52.1299 5.1960
v 36.1507 -52.1299 5.1960
v 23.7643 -47.9352 3.6163
v 25.5103 -49.9352 3.6163
v 31.0256 -51.5722 3.6163
v 33.4510 -51.2107 3.7641
v 36.8202 -49.8548 3.7641
v 19.7984 -43.9466 2.6770
v 21.3967 -45.5189 3.8527
v 38.8303 -46.6403 3.6163
v 41.6308 -44.6151 3.4914
v 44.0902 -44.0896 2.0748
v 19.3952 -42.2566 3.8527
v 19.8662 -43.8428 5.3437
v 42.4201 -41.8774 4.6307
v 44.9625 -41.8774 2.6307
v 18.9950 -37.6066 3.2882
v 20.0969 -36.0928 1.7362
v 42.7986 -37.8774 4.8370
v 46.1847 -38.2227 3.0780
v 49.8361 -37.0362 2.6703
v 52.0015 -36.1802 2.2131
v 19.0948 -34.0344 3.2882
v 20.0969 -35.4724 1.7362
v 42.8726 -33.8774 4.5420
v 45.8361 -33.8774 3.3427
v 49.6244 -34.0961 2.6150
v 52.0015 -35.5752 2.2131
v 15.7206 -28.0521 1.8511
v 18.2373 -29.5979 3.5404
v 21.9639 -28.9929 3.7843
v 25.9140 -28.6888 3.3043
v 27.9483 -27.9700 1.7629
v 43.0556 -30.6737 4.7836
v 45.8149 -29.4326 3.3295
v 48.1500 -30.8582 1.8754
v 15.7206 -27.6494 1.8511
v 17.8361 -26.9630 2.5024
v 21.7699 -25.6546 3.5251
v 26.1030 -25.6180 4.4584
v 28.1958 -25.6386 3.3043
v 39.4501 -24.8750 5.2679
v 41.8361 -25.3759 5.1173
v 45.2265 -26.0776 3.8261
v 11.6045 -20.2641 5.0776
v 13.8361 -20.5228 4.4898
v 17.8361 -21.0540 4.4148
v 21.6288 -22.1344 4.3728
v 24.7637 -21.8774 4.5409
v 30.3432 -21.9969 3.4773
v 33.8361 -20.8829 4.3976
v 38.2114 -21.4914 3.7455
v 41.9727 -21.5293 2.8344
v 44.6361 -21.8774 2.4003
v 11.0213 -18.0107 3.6931
v 13.8361 -19.2907 2.4898
v 17.8707 -18.0747 2.7631
v 21.6395 -18.1468 4.7583
v 24.0023 -19.6597 5.3117
v 31.5273 -19.3535 2.0513
v 33.8361 -19.0826 2.3976
v 36.9728 -19.3416 2.2230
v 43.3971 -19.8249 1.6452
v 43.8764 -19.8249 1.6452
v 11.0947 -13.6829 3.9311
v 13.4545 -13.3153 3.9311
v 17.8707 -15.3931 3.7243
v 20.1752 -15.6830 5.1297
v 11.7270 -11.8487 5.4743
v 11.8668 -11.8487 5.4743
v -36.9968 19.6600 3.6163
v -34.2462 19.3446 3.8216
v -31.8966 19.4427 5.2918
v -52.1683 24.1174 1.6262
v -49.9156 23.7649 3.2223
v -46.0006 23.4377 3.3872
v -42.3890 22.8433 3.3872
v -38.9968 20.9364 3.6163
v -32.9677 20.8698 2.6252
v -31.4785 22.1709 3.8216
v -52.3971 26.1226 1.8718
v -50.7064 26.1226 3.8718
v -44.5584 24.4088 1.9011
v -43.8724 24.4088 1.9011
v -30.1322 26.1226 3.6163
v -52.4705 28.9659 1.9470
v -50.9707 30.2286 3.4147
v -29.2574 29.7244 3.4148
v -27.8325 30.7922 1.9471
v -52.2690 35.8142 5.3149
v -51.1390 34.3376 3.8355
v -29.5270 34.1226 4.1430
v -27.6779 34.1226 2.1430
v -52.2690 36.3123 5.3149
v -50.0066 38.0653 3.8870
v -47.7494 39.8184 5.1257
v -28.9917 37.4472 4.6543
v -26.3740 38.0354 3.4391
v -22.0351 39.4685 3.5965
v -18.0829 39.3877 3.5965
v -13.8719 39.5052 3.7563
v -12.1305 40.0314 5.1829
v -48.4315 40.3616 2.4590
v -46.4418 41.8660 3.7219
v -37.0267 43.8237 1.9539
v -34.1639 43.5181 2.1767
v -31.5177 43.6155 2.0258
v -20.6158 40.8646 4.9166
v -18.1896 42.0833 4.1736
v -13.8719 40.8559 3.7563
v -12.1305 40.1785 5.1829
v -44.3222 44.3790 3.6163
v -42.1639 44.5592 3.6163
v -38.2816 44.4791 3.4189
v -34.1639 44.8930 4.1767
v -30.1762 45.2049 3.4620
v -26.1639 45.3077 3.6163
v -22.1639 45.2252 3.6163
v -19.3101 44.8881 3.6163
v 27.4765 -52.2349 6.7296
v 30.1159 -52.0902 7.5452
v 33.3337 -52.0377 7.3152
v 36.1507 -52.1299 6.2697
v 23.7568 -47.9432 5.7748
v 25.8870 -49.8496 7.5855
v 30.1159 -51.8115 7.5452
v 33.5666 -50.7301 7.4647
v 36.4397 -49.8774 6.7927
v 22.4531 -45.8143 7.3114
v 24.2974 -47.1055 8.4414
v 35.3359 -45.8774 9.1068
v 37.7301 -45.6568 6.8896
v 40.1606 -44.1764 5.7511
v 19.1860 -41.6216 7.6163
v 20.1669 -43.6216 7.6163
v 35.1231 -41.8774 9.0683
v 37.8361 -41.8774 7.3382
v 40.4201 -41.8774 5.8861
v 18.5551 -37.8774 7.6163
v 34.9939 -37.8774 8.7092
v 37.8361 -37.8774 7.7635
v 40.7986 -37.8774 6.6706
v 18.8136 -33.8774 7.6163
v 35.2877 -35.2597 8.8763
v 37.8361 -35.2207 8.9469
v 40.8734 -34.1226 7.9247
v 19.1482 -29.8371 7.4253
v 21.8361 -28.9569 6.2720
v 24.6326 -28.7171 6.1422
v 39.0490 -28.6785 8.4497
v 41.6192 -29.6761 7.0581
v 43.9174 -28.0070 5.6664
v 19.1178 -25.8774 8.1319
v 21.6288 -25.8048 6.3443
v 26.1030 -25.6180 6.0172
v 28.1172 -24.1461 5.8922
v 34.8750 -24.7440 8.8792
v 37.9162 -26.1428 7.3312
v 41.8361 -27.3759 5.7789
v 43.9174 -27.5445 5.6664
v 11.6045 -20.2641 6.0213
v 13.8361 -20.5228 6.4544
v 18.0940 -21.9951 7.4755
v 20.1573 -23.6390 5.9554
v 26.7637 -21.8774 6.7527
v 29.3538 -22.1580 7.7072
v 33.6594 -22.8990 7.5741
v 36.7834 -23.0189 6.2126
v 11.4955 -17.8774 5.9911
v 13.8361 -17.8774 6.8737
v 17.4473 -17.8774 8.4989
v 22.1118 -17.1979 7.6163
v 25.5358 -19.2849 7.9599
v 27.9236 -19.7959 9.5222
v 11.5873 -13.8774 5.7082
v 13.4545 -14.1265 5.9683
v 18.2154 -15.6020 7.4948
v 20.1118 -15.7217 7.6163
v 11.7270 -11.8487 5.6441
v 11.8668 -11.8487 5.6441
v -37.3933 19.7130 7.6163
v -34.1639 18.8375 7.6163
v -31.6472 19.2471 7.6163
v -48.4167 23.9313 5.8793
v -46.0446 23.1397 7.3741
v -42.1639 21.4790 7.6163
v -39.3933 20.5642 7.6163
v -30.7638 22.1226 7.6163
v -48.8817 26.2487 7.3741
v -47.2984 24.9994 8.5460
v -30.5306 26.1226 7.6163
v -52.3885 31.7364 9.1549
v -50.6104 30.2909 7.7395
v -30.7520 30.1226 7.6163
v -52.3288 34.5269 7.8829
v -51.6871 34.5269 7.8829
v -33.0258 35.5552 8.9093
v -31.3311 34.1821 7.5921
v -52.2690 36.3123 6.6108
v -50.2139 38.0653 7.8747
v -47.7494 39.8184 6.4719
v -33.0258 36.9829 8.9093
v -30.4016 38.5484 7.2670
v -26.1639 39.7018 6.0352
v -23.2825 39.5704 6.1665
v -16.6956 39.7395 6.6909
v -14.1639 39.7669 6.4746
v -12.1305 40.0314 5.6860
v -48.3516 40.2589 9.1385
v -46.4733 41.8044 7.7296
v -29.2674 42.1226 8.2921
v -26.1639 42.1226 6.8760
v -22.0351 42.1678 6.2030
v -18.2812 41.9553 6.2533
v -14.1639 40.3571 6.4746
v -12.1305 40.1785 5.6860
v -44.3241 45.8474 8.0064
v -42.1639 46.4150 7.1595
v -38.1639 46.5244 7.0100
v -34.3995 46.6574 7.8868
v -30.0583 45.3422 7.7520
v -26.1639 44.9561 6.4571
v -22.1639 44.6515 5.9370
v -19.8669 44.5449 5.8156
v -44.1674 48.1252 9.5998
v -42.1639 48.3169 9.1595
v -38.1639 48.4205 9.0100
v -35.8899 48.2634 9.4005
v 31.0833 -51.9455 9.9003
v 32.1398 -51.9455 9.9003
v 27.1335 -48.8298 11.6163
v 29.7844 -50.3531 11.3867
v 32.9763 -49.5912 11.3867
v 22.9137 -44.4389 10.1286
v 25.3521 -45.8143 11.5237
v 34.0477 -45.8774 11.6163
v 19.3792 -40.9043 10.2118
v 22.0216 -41.7470 11.5036
v 24.6329 -42.5897 12.7953
v 31.2387 -40.7046 12.8537
v 33.1026 -41.9737 11.5587
v 19.3910 -37.8774 10.2376
v 21.5389 -37.8774 12.2376
v 31.3536 -37.8774 13.0078
v 32.9939 -37.8774 11.0078
v 19.6086 -33.8774 9.9591
v 21.0985 -33.8774 11.9591
v 31.3197 -33.8774 13.1989
v 33.9070 -33.9068 11.3660
v 37.8361 -33.2207 10.8477
v 40.1828 -32.9528 10.4522
v 19.2429 -29.8774 10.2981
v 20.8169 -29.8774 12.2981
v 31.1936 -31.2698 13.1084
v 33.8239 -29.9128 12.6131
v 37.7638 -29.9581 11.0194
v 40.1828 -31.3452 10.4522
v 19.1178 -25.8774 11.0008
v 20.4161 -25.8774 13.0008
v 27.5217 -24.1037 13.3042
v 29.8361 -24.6540 12.7335
v 33.6787 -26.0486 11.5322
v 36.3824 -27.4106 10.3129
v 19.2230 -21.8774 10.8098
v 21.5392 -21.8698 12.7354
v 26.2628 -21.7421 13.2638
v 29.2372 -21.9294 11.6945
v 32.2083 -23.5727 10.0847
v 19.4473 -17.8774 9.9480
v 21.4531 -17.8644 10.4459
v 26.1368 -19.3825 11.7806
v 27.9378 -19.7750 11.6163
v 19.8017 -15.8642 9.6284
v 19.8645 -15.8642 9.6284
v -37.4321 19.7673 10.5828
v -34.1639 19.4905 10.6362
v -31.7422 19.6352 10.0097
v -44.9616 23.1038 11.6163
v -42.1639 21.4847 11.6163
v -38.5248 20.6070 11.7962
v -34.0234 21.9022 12.6307
v -31.1497 22.1226 10.6595
v -48.8000 27.3151 11.6163
v -46.9616 25.3151 11.6163
v -32.8815 26.1226 13.0788
v -31.0927 26.1226 11.0788
v -52.3885 31.7364 9.8890
v -49.9213 30.4697 11.6396
v -47.8728 31.8696 13.3902
v -36.9871 31.2171 12.5553
v -34.0785 29.9793 12.3480
v -31.3865 30.1226 10.8266
v -52.3885 33.2395 9.8890
v -50.3352 34.1467 11.6396
v -47.8728 32.3872 13.3902
v -37.5078 34.1226 12.0861
v -34.2811 34.1821 10.3889
v -31.6251 32.8885 10.2776
v -50.4996 38.1226 11.6163
v -37.1712 38.1226 12.6271
v -34.2811 38.2388 11.0269
v -31.8114 39.6496 10.6194
v -49.2427 40.9260 11.6163
v -46.9282 42.9260 11.6163
v -36.8258 42.1226 13.0480
v -34.1983 41.8616 12.9635
v -31.1437 41.8616 11.8182
v -45.1546 46.1226 11.6163
v -37.3791 46.1226 12.6015
v -34.3889 45.9034 11.6064
v -31.1530 44.7938 11.6163
v -44.3904 48.4808 11.6163
v -42.1639 48.7665 11.6163
v -38.4312 48.4357 11.4553
v -35.8899 48.2634 10.0147
v 27.7713 -47.9354 13.6543
v 29.8361 -48.0632 13.6826
v 32.3902 -48.0671 13.6668
v 27.3851 -45.8774 14.1285
v 29.8361 -45.8774 14.3449
v 32.5478 -45.8774 13.8326
v 23.7963 -39.9231 13.6552
v 25.9995 -41.5485 15.2916
v 29.6703 -41.9393 15.3911
v 32.2310 -43.3713 13.8542
v 23.5389 -37.8774 13.9728
v 24.9690 -37.8774 15.9728
v 29.9285 -37.8774 15.6163
v 23.0985 -33.8774 14.2831
v 25.8244 -33.9284 16.0019
v 29.3234 -33.9284 15.4685
v 22.8169 -29.8774 14.3163
v 25.8361 -29.8774 15.0416
v 29.8506 -29.9128 14.5258
v 32.4825 -28.6032 14.1650
v 22.4161 -25.8774 14.2587
v 26.0474 -25.6132 14.4584
v 29.8361 -26.6540 14.4380
v 32.4825 -27.3531 14.1650
v 22.6747 -23.1980 13.9921
v 26.2628 -21.7421 13.8196
v 27.8842 -20.2862 13.6470
v 27.6706 -19.8223 13.6470
v 27.8842 -19.8223 13.6470
v -36.6686 19.7513 16.5845
v -35.4870 19.7513 16.5845
v -44.7598 23.6605 14.3024
v -42.1639 23.1237 14.9053
v -38.1390 21.8374 15.6167
v -35.0518 21.9022 15.3972
v -48.5392 27.5025 14.1200
v -46.1214 26.1505 14.6024
v -42.1639 26.1226 15.4340
v -38.2312 25.8730 16.1407
v -34.9725 25.8730 15.3705
v -48.5392 29.2030 14.1200
v -46.3893 30.3708 14.4362
v -42.1639 30.1226 14.8232
v -38.2579 29.9793 14.2183
v -35.3549 28.5504 13.8733
v -48.7734 34.8079 15.6163
v -46.3214 33.9128 15.5415
v -42.1639 34.1226 15.1241
v -39.5078 34.1226 14.2362
v -49.4019 38.1070 15.6442
v -46.1276 38.1070 16.7704
v -42.1639 38.1226 15.6306
v -39.1712 38.1226 14.2228
v -49.4146 41.0575 14.3294
v -46.2467 42.2836 15.2336
v -42.1639 42.1226 16.3863
v -38.8258 42.1226 14.8996
v -32.8878 43.0210 13.9350
v -31.6588 43.0210 13.9350
v -44.9277 46.1117 15.7442
v -42.3754 46.1117 16.5804
v -39.3791 46.1226 14.6616
v -32.8878 44.4867 13.9350
v -31.6588 44.4867 13.9350
v -44.5152 48.6686 15.6163
v -42.3754 48.6341 15.3122
v -39.9428 48.2472 13.7762
v 27.3661 -40.5073 17.8439
v 28.1020 -40.5073 17.8439
v 26.9690 -37.8774 18.0987
v 28.4110 -37.8774 18.0987
v 27.1500 -35.2957 18.0319
v 28.3367 -35.2957 18.0319
v -36.6686 19.7513 18.4766
v -35.4870 19.7513 18.4766
v -37.1265 22.1226 18.5015
v -35.4494 22.1226 18.5015
v -36.9427 24.3732 17.9363
v -35.8882 24.3732 17.9363
v -48.5462 35.4384 18.8144
v -47.4367 35.4384 18.8144
v -48.5462 36.7633 18.8144
v -47.4367 36.7633 18.8144
v -44.3338 47.4377 17.7647
v -43.8497 47.4377 17.7647
v -44.3338 48.3756 17.7647
v -43.8497 48.3756 17.7647
f 3 2 1
f 3 4 2
f 8 6 5
f 8 9 6
f 9 7 6
f 9 10 7
f 11 10 9
f 11 12 10
f 15 14 13
f 15 16 14
f 22 17 21
f 22 18 17
f 2 23 1
f 2 24 23
f 24 19 23
f 24 20 19
f 25 20 24
f 25 21 20
f 25 22 21
f 25 26 22
f 30 1 23
f 30 3 1
f 31 24 2
f 31 2 4
f 4 3 30
f 4 30 31
f 31 25 24
f 31 32 25
f 33 25 32
f 33 26 25
f 33 27 26
f 33 34 27
f 34 28 27
f 34 35 28
f 35 29 28
f 35 36 29
f 37 33 32
f 37 38 33
f 39 33 38
f 39 34 33
f 40 34 39
f 40 35 34
f 40 36 35
f 40 41 36
f 42 38 37
f 42 43 38
f 43 39 38
f 43 44 39
f 44 40 39
f 44 45 40
f 45 41 40
f 45 46 41
f 47 46 45
f 47 48 46
f 55 49 54
f 55 50 49
f 57 51 56
f 57 52 51
f 60 5 6
f 60 59 5
f 60 53 59
f 60 54 53
f 7 60 6
f 7 61 60
f 61 54 60
f 61 55 54
f 62 55 61
f 62 56 55
f 62 57 56
f 62 63 57
f 65 5 59
f 65 8 5
f 64 59 58
f 64 65 59
f 66 9 8
f 66 8 65
f 67 61 7
f 67 7 10
f 67 62 61
f 67 68 62
f 68 63 62
f 68 69 63
f 66 11 9
f 66 73 11
f 72 66 65
f 72 73 66
f 67 10 12
f 67 12 74
f 12 11 73
f 12 73 74
f 74 68 67
f 74 75 68
f 75 69 68
f 75 76 69
f 77 13 14
f 77 76 13
f 76 70 69
f 76 77 70
f 78 70 77
f 78 71 70
f 80 13 76
f 80 15 13
f 79 76 75
f 79 80 76
f 77 14 16
f 77 16 81
f 81 16 15
f 81 15 80
f 82 77 81
f 82 78 77
f 88 17 18
f 88 87 17
f 88 83 87
f 88 84 83
f 89 84 88
f 89 85 84
f 20 90 19
f 20 91 90
f 92 17 87
f 92 21 17
f 92 20 21
f 92 91 20
f 92 86 91
f 92 87 86
f 93 88 18
f 93 18 22
f 93 89 88
f 93 94 89
f 97 19 90
f 97 23 19
f 98 93 22
f 98 22 26
f 27 98 26
f 27 99 98
f 98 94 93
f 98 99 94
f 28 99 27
f 28 100 99
f 99 95 94
f 99 100 95
f 101 28 29
f 101 100 28
f 97 30 23
f 97 103 30
f 103 96 102
f 103 97 96
f 104 31 30
f 104 30 103
f 105 32 31
f 105 31 104
f 101 29 36
f 101 36 107
f 106 100 101
f 106 101 107
f 110 102 109
f 110 103 102
f 105 37 32
f 105 112 37
f 111 105 104
f 111 112 105
f 107 36 41
f 107 41 114
f 114 108 107
f 114 115 108
f 116 37 112
f 116 42 37
f 43 42 116
f 43 116 117
f 116 112 113
f 116 113 117
f 44 43 117
f 44 117 118
f 119 45 44
f 119 44 118
f 120 114 41
f 120 41 46
f 119 47 45
f 119 122 47
f 120 46 48
f 120 48 123
f 123 48 47
f 123 47 122
f 125 121 124
f 125 122 121
f 128 127 126
f 128 129 127
f 136 49 50
f 136 135 49
f 136 130 135
f 136 131 130
f 137 131 136
f 137 132 131
f 52 137 51
f 52 138 137
f 138 132 137
f 138 133 132
f 140 49 135
f 140 54 49
f 140 53 54
f 140 139 53
f 140 134 139
f 140 135 134
f 141 136 50
f 141 50 55
f 142 51 137
f 142 56 51
f 56 141 55
f 56 142 141
f 141 137 136
f 141 142 137
f 143 138 52
f 143 52 57
f 145 53 139
f 145 59 53
f 145 58 59
f 145 144 58
f 143 57 63
f 143 63 146
f 148 58 144
f 148 64 58
f 149 65 64
f 149 64 148
f 150 146 63
f 150 63 69
f 70 150 69
f 70 151 150
f 150 147 146
f 150 151 147
f 71 151 70
f 71 152 151
f 149 72 65
f 149 154 72
f 155 73 72
f 155 72 154
f 74 73 155
f 74 155 156
f 75 74 156
f 75 156 157
f 158 152 71
f 158 71 78
f 158 153 152
f 158 159 153
f 162 155 154
f 162 163 155
f 163 156 155
f 163 164 156
f 157 79 75
f 157 165 79
f 164 157 156
f 164 165 157
f 166 80 79
f 166 79 165
f 167 81 80
f 167 80 166
f 158 78 82
f 158 82 168
f 82 81 167
f 82 167 168
f 168 159 158
f 168 169 159
f 169 160 159
f 169 170 160
f 170 161 160
f 170 171 161
f 173 166 172
f 173 167 166
f 174 170 169
f 174 175 170
f 175 171 170
f 175 176 171
f 177 176 175
f 177 178 176
f 181 83 84
f 181 180 83
f 85 181 84
f 85 182 181
f 184 83 180
f 184 87 83
f 184 86 87
f 184 183 86
f 184 179 183
f 184 180 179
f 182 85 89
f 182 89 185
f 189 86 183
f 189 91 86
f 189 90 91
f 189 188 90
f 190 185 89
f 190 89 94
f 95 190 94
f 95 191 190
f 190 186 185
f 190 191 186
f 192 186 191
f 192 187 186
f 194 90 188
f 194 97 90
f 97 193 96
f 97 194 193
f 195 191 95
f 195 95 100
f 195 192 191
f 195 196 192
f 198 96 193
f 198 102 96
f 199 198 193
f 199 193 194
f 200 104 103
f 200 103 199
f 195 100 106
f 195 106 201
f 202 106 107
f 202 201 106
f 202 195 201
f 202 196 195
f 108 202 107
f 108 203 202
f 202 197 196
f 202 203 197
f 198 109 102
f 198 205 109
f 199 103 110
f 199 110 206
f 110 109 205
f 110 205 206
f 205 198 199
f 205 199 206
f 200 111 104
f 200 207 111
f 206 200 199
f 206 207 200
f 208 112 111
f 208 111 207
f 209 113 112
f 209 112 208
f 211 203 108
f 211 108 115
f 115 114 210
f 115 210 211
f 211 204 203
f 211 212 204
f 209 117 113
f 209 214 117
f 213 209 208
f 213 214 209
f 118 117 214
f 118 214 215
f 216 119 118
f 216 118 215
f 210 114 120
f 210 120 217
f 218 210 217
f 218 211 210
f 219 215 214
f 219 220 215
f 216 122 119
f 216 221 122
f 221 121 122
f 221 220 121
f 220 216 215
f 220 221 216
f 217 120 123
f 217 123 222
f 123 122 221
f 123 221 222
f 224 121 220
f 224 124 121
f 221 122 125
f 221 125 225
f 125 124 224
f 125 224 225
f 225 222 221
f 225 226 222
f 227 126 127
f 227 226 126
f 226 223 222
f 226 227 223
f 229 126 226
f 229 128 126
f 228 226 225
f 228 229 226
f 230 227 127
f 230 127 129
f 230 129 128
f 230 128 229
f 232 130 131
f 232 231 130
f 233 131 132
f 233 232 131
f 234 132 133
f 234 233 132
f 236 130 231
f 236 135 130
f 236 134 135
f 236 235 134
f 238 234 133
f 238 133 138
f 237 233 234
f 237 234 238
f 241 134 235
f 241 139 134
f 238 138 143
f 238 143 242
f 244 240 239
f 244 245 240
f 246 139 241
f 246 145 139
f 246 144 145
f 246 245 144
f 246 240 245
f 246 241 240
f 247 242 143
f 247 143 146
f 147 247 146
f 147 248 247
f 247 243 242
f 247 248 243
f 245 148 144
f 245 250 148
f 251 149 148
f 251 148 250
f 252 248 147
f 252 147 151
f 152 252 151
f 152 253 252
f 153 253 152
f 153 254 253
f 256 249 255
f 256 250 249
f 251 154 149
f 251 257 154
f 256 251 250
f 256 257 251
f 254 153 159
f 254 159 260
f 259 253 254
f 259 254 260
f 261 159 160
f 261 260 159
f 262 160 161
f 262 261 160
f 263 154 257
f 263 162 154
f 163 162 263
f 163 263 264
f 263 257 258
f 263 258 264
f 164 163 264
f 164 264 265
f 266 165 164
f 266 164 265
f 267 166 165
f 267 165 266
f 168 167 268
f 168 268 269
f 169 168 269
f 169 269 270
f 262 161 171
f 262 171 272
f 271 261 262
f 271 262 272
f 267 172 166
f 267 274 172
f 273 267 266
f 273 274 267
f 268 167 173
f 268 173 275
f 173 172 274
f 173 274 275
f 276 268 275
f 276 269 268
f 270 174 169
f 270 277 174
f 278 175 174
f 278 174 277
f 272 171 176
f 272 176 279
f 280 175 278
f 280 177 175
f 281 279 176
f 281 176 178
f 178 177 280
f 178 280 281
f 280 278 279
f 280 279 281
f 283 179 180
f 283 282 179
f 284 180 181
f 284 283 180
f 182 284 181
f 182 285 284
f 287 179 282
f 287 183 179
f 288 287 282
f 288 282 283
f 289 285 182
f 289 182 185
f 186 289 185
f 186 290 289
f 291 186 187
f 291 290 186
f 293 183 287
f 293 189 183
f 293 188 189
f 293 292 188
f 293 286 292
f 293 287 286
f 291 187 192
f 291 192 295
f 294 290 291
f 294 291 295
f 297 188 292
f 297 194 188
f 298 295 192
f 298 192 196
f 197 298 196
f 197 299 298
f 298 296 295
f 298 299 296
f 300 194 297
f 300 199 194
f 302 299 197
f 302 197 203
f 204 302 203
f 204 303 302
f 304 199 300
f 304 206 199
f 207 206 304
f 207 304 305
f 304 300 301
f 304 301 305
f 306 208 207
f 306 207 305
f 303 204 212
f 303 212 308
f 212 211 307
f 212 307 308
f 307 302 303
f 307 303 308
f 306 213 208
f 306 310 213
f 309 306 305
f 309 310 306
f 311 214 213
f 311 213 310
f 307 211 218
f 307 218 313
f 218 217 312
f 218 312 313
f 311 219 214
f 311 314 219
f 315 220 219
f 315 219 314
f 316 312 217
f 316 217 222
f 223 316 222
f 223 317 316
f 317 312 316
f 317 313 312
f 315 224 220
f 315 319 224
f 318 315 314
f 318 319 315
f 320 225 224
f 320 224 319
f 322 317 223
f 322 223 227
f 324 318 323
f 324 319 318
f 320 228 225
f 320 325 228
f 326 229 228
f 326 228 325
f 327 322 227
f 327 227 230
f 327 230 229
f 327 229 326
f 327 326 321
f 327 321 322
f 329 231 232
f 329 328 231
f 330 232 233
f 330 329 232
f 328 236 231
f 328 333 236
f 333 235 236
f 333 332 235
f 330 233 237
f 330 237 335
f 334 329 330
f 334 330 335
f 336 237 238
f 336 335 237
f 339 239 240
f 339 338 239
f 340 235 332
f 340 241 235
f 340 240 241
f 340 339 240
f 340 331 339
f 340 332 331
f 336 238 242
f 336 242 342
f 341 335 336
f 341 336 342
f 343 242 243
f 343 342 242
f 338 244 239
f 338 345 244
f 344 338 337
f 344 345 338
f 346 245 244
f 346 244 345
f 348 343 243
f 348 243 248
f 347 342 343
f 347 343 348
f 346 250 245
f 346 350 250
f 350 249 250
f 350 349 249
f 349 346 345
f 349 350 346
f 351 348 248
f 351 248 252
f 352 252 253
f 352 351 252
f 353 249 349
f 353 255 249
f 256 255 353
f 256 353 354
f 353 349 350
f 353 350 354
f 355 257 256
f 355 256 354
f 258 257 355
f 258 355 356
f 352 253 259
f 352 259 357
f 358 259 260
f 358 357 259
f 359 260 261
f 359 358 260
f 360 355 354
f 360 361 355
f 356 264 258
f 356 362 264
f 361 356 355
f 361 362 356
f 265 264 362
f 265 362 363
f 364 266 265
f 364 265 363
f 270 269 366
f 270 366 367
f 359 261 271
f 359 271 368
f 367 358 359
f 367 359 368
f 369 271 272
f 369 368 271
f 364 273 266
f 364 370 273
f 371 274 273
f 371 273 370
f 275 274 371
f 275 371 372
f 366 269 276
f 366 276 373
f 276 275 372
f 276 372 373
f 373 372 365
f 373 365 366
f 374 270 367
f 374 277 270
f 374 366 373
f 374 367 366
f 375 278 277
f 375 277 374
f 374 367 368
f 374 368 375
f 369 272 279
f 369 279 376
f 376 279 278
f 376 278 375
f 375 368 369
f 375 369 376
f 380 378 377
f 380 381 378
f 382 283 284
f 382 381 283
f 285 382 284
f 285 383 382
f 386 286 287
f 386 385 286
f 386 379 385
f 386 380 379
f 387 283 381
f 387 288 283
f 288 386 287
f 288 387 386
f 387 380 386
f 387 381 380
f 388 383 285
f 388 285 289
f 389 289 290
f 389 388 289
f 392 286 385
f 392 292 286
f 392 384 391
f 392 385 384
f 393 389 290
f 393 290 294
f 295 393 294
f 295 394 393
f 393 390 389
f 393 394 390
f 296 394 295
f 296 395 394
f 392 297 292
f 392 397 297
f 396 392 391
f 396 397 392
f 395 296 299
f 395 299 399
f 398 394 395
f 398 395 399
f 402 297 397
f 402 300 297
f 403 301 300
f 403 300 402
f 404 399 299
f 404 299 302
f 404 400 399
f 404 405 400
f 408 401 407
f 408 402 401
f 403 305 301
f 403 409 305
f 408 403 402
f 408 409 403
f 412 404 302
f 412 302 307
f 414 406 413
f 414 407 406
f 415 407 414
f 415 408 407
f 409 309 305
f 409 416 309
f 417 310 309
f 417 309 416
f 416 409 410
f 416 410 417
f 418 311 310
f 418 310 417
f 420 412 307
f 420 307 313
f 420 419 411
f 420 411 412
f 418 314 311
f 418 422 314
f 421 418 417
f 421 422 418
f 426 420 313
f 426 313 317
f 425 419 420
f 425 420 426
f 422 318 314
f 422 431 318
f 430 422 421
f 430 431 422
f 320 319 432
f 320 432 433
f 433 432 423
f 433 423 424
f 435 426 317
f 435 317 322
f 435 322 321
f 435 321 434
f 435 434 425
f 435 425 426
f 437 427 436
f 437 428 427
f 438 428 437
f 438 429 428
f 439 318 431
f 439 323 318
f 440 432 319
f 440 319 324
f 324 323 439
f 324 439 440
f 440 439 431
f 440 431 432
f 441 320 433
f 441 325 320
f 442 434 321
f 442 321 326
f 442 326 325
f 442 325 441
f 441 433 434
f 441 434 442
f 444 328 329
f 444 443 328
f 448 331 332
f 448 447 331
f 443 333 328
f 443 449 333
f 449 332 333
f 449 448 332
f 444 329 334
f 444 334 450
f 451 334 335
f 451 450 334
f 453 337 338
f 453 452 337
f 453 445 452
f 453 446 445
f 454 331 447
f 454 339 331
f 339 453 338
f 339 454 453
f 454 446 453
f 454 447 446
f 455 454 447
f 455 447 448
f 451 335 341
f 451 341 456
f 457 341 342
f 457 456 341
f 458 337 452
f 458 344 337
f 459 345 344
f 459 344 458
f 457 342 347
f 457 347 461
f 460 456 457
f 460 457 461
f 462 347 348
f 462 461 347
f 463 345 459
f 463 349 345
f 464 350 349
f 464 349 463
f 462 348 351
f 462 351 466
f 465 461 462
f 465 462 466
f 467 351 352
f 467 466 351
f 464 354 350
f 464 469 354
f 468 464 463
f 468 469 464
f 470 465 466
f 470 466 471
f 467 352 357
f 467 357 472
f 471 466 467
f 471 467 472
f 473 357 358
f 473 472 357
f 469 360 354
f 469 475 360
f 474 469 468
f 474 475 469
f 476 361 360
f 476 360 475
f 362 361 476
f 362 476 477
f 363 362 477
f 363 477 478
f 364 363 478
f 364 478 479
f 481 366 365
f 481 365 480
f 482 473 358
f 482 358 367
f 483 476 475
f 483 484 476
f 485 476 484
f 485 477 476
f 479 370 364
f 479 486 370
f 371 370 486
f 371 486 487
f 480 365 372
f 480 372 488
f 488 372 371
f 488 371 487
f 481 373 366
f 481 489 373
f 489 480 488
f 489 481 480
f 490 482 367
f 490 367 374
f 490 374 373
f 490 373 489
f 490 489 481
f 490 481 482
f 378 491 377
f 378 492 491
f 496 377 491
f 496 380 377
f 496 379 380
f 496 495 379
f 497 492 378
f 497 378 381
f 382 497 381
f 382 498 497
f 499 382 383
f 499 498 382
f 498 494 493
f 498 499 494
f 501 379 495
f 501 385 379
f 501 384 385
f 501 500 384
f 502 499 383
f 502 383 388
f 503 388 389
f 503 502 388
f 504 389 390
f 504 503 389
f 500 391 384
f 500 505 391
f 506 505 500
f 506 500 501
f 508 504 390
f 508 390 394
f 507 503 504
f 507 504 508
f 505 396 391
f 505 509 396
f 510 397 396
f 510 396 509
f 508 394 398
f 508 398 512
f 511 507 508
f 511 508 512
f 513 398 399
f 513 512 398
f 400 513 399
f 400 514 513
f 516 397 510
f 516 402 397
f 516 401 402
f 516 515 401
f 515 510 509
f 515 516 510
f 518 517 511
f 518 511 512
f 518 512 513
f 518 513 519
f 514 400 405
f 514 405 520
f 405 404 519
f 405 519 520
f 520 519 513
f 520 513 514
f 522 401 515
f 522 407 401
f 407 521 406
f 407 522 521
f 524 409 408
f 524 408 523
f 410 409 524
f 410 524 525
f 526 517 518
f 526 518 527
f 528 519 404
f 528 404 412
f 528 412 411
f 528 411 527
f 528 527 518
f 528 518 519
f 521 413 406
f 521 529 413
f 414 413 529
f 414 529 530
f 530 529 521
f 530 521 522
f 523 408 415
f 523 415 531
f 415 414 530
f 415 530 531
f 530 522 523
f 530 523 531
f 533 410 525
f 533 417 410
f 533 524 532
f 533 525 524
f 536 527 411
f 536 411 419
f 541 531 540
f 541 532 531
f 533 421 417
f 533 542 421
f 545 424 423
f 545 423 544
f 545 544 534
f 545 534 535
f 546 536 419
f 546 419 425
f 546 545 535
f 546 535 536
f 548 427 428
f 548 547 427
f 548 537 547
f 548 538 537
f 429 548 428
f 429 549 548
f 548 539 538
f 548 549 539
f 550 539 549
f 550 540 539
f 551 540 550
f 551 541 540
f 552 421 542
f 552 430 421
f 553 431 430
f 553 430 552
f 552 542 543
f 552 543 553
f 554 544 423
f 554 423 432
f 554 432 431
f 554 431 553
f 554 553 543
f 554 543 544
f 555 424 545
f 555 433 424
f 556 546 425
f 556 425 434
f 556 434 433
f 556 433 555
f 555 545 546
f 555 546 556
f 547 436 427
f 547 557 436
f 558 437 436
f 558 436 557
f 559 549 429
f 559 429 438
f 438 437 558
f 438 558 559
f 560 549 559
f 560 550 549
f 562 557 561
f 562 558 557
f 444 563 443
f 444 564 563
f 446 566 445
f 446 567 566
f 568 446 447
f 568 567 446
f 570 443 563
f 570 449 443
f 449 569 448
f 449 570 569
f 571 564 444
f 571 444 450
f 451 571 450
f 451 572 571
f 571 565 564
f 571 572 565
f 573 445 566
f 573 452 445
f 574 573 566
f 574 566 567
f 575 568 447
f 575 447 454
f 576 448 569
f 576 455 448
f 455 575 454
f 455 576 575
f 576 568 575
f 576 569 568
f 577 572 451
f 577 451 456
f 578 452 573
f 578 458 452
f 459 458 578
f 459 578 579
f 578 573 574
f 578 574 579
f 577 456 460
f 577 460 580
f 581 460 461
f 581 580 460
f 583 459 579
f 583 463 459
f 581 461 465
f 581 465 585
f 584 580 581
f 584 581 585
f 583 468 463
f 583 587 468
f 586 583 582
f 586 587 583
f 585 465 470
f 585 470 590
f 589 584 585
f 589 585 590
f 591 470 471
f 591 590 470
f 592 471 472
f 592 591 471
f 473 592 472
f 473 593 592
f 595 468 587
f 595 474 468
f 596 475 474
f 596 474 595
f 595 587 588
f 595 588 596
f 478 477 597
f 478 597 598
f 599 479 478
f 599 478 598
f 600 591 592
f 600 592 601
f 602 593 473
f 602 473 482
f 482 481 601
f 482 601 602
f 603 593 602
f 603 594 593
f 596 483 475
f 596 604 483
f 605 484 483
f 605 483 604
f 597 477 485
f 597 485 606
f 485 484 605
f 485 605 606
f 607 597 606
f 607 598 597
f 599 486 479
f 599 608 486
f 607 599 598
f 607 608 599
f 609 487 486
f 609 486 608
f 610 488 487
f 610 487 609
f 611 601 481
f 611 481 489
f 611 489 488
f 611 488 610
f 492 612 491
f 492 613 612
f 615 493 494
f 615 614 493
f 612 496 491
f 612 617 496
f 496 616 495
f 496 617 616
f 613 492 497
f 613 497 618
f 618 617 612
f 618 612 613
f 619 493 614
f 619 498 493
f 619 497 498
f 619 618 497
f 618 614 613
f 618 619 614
f 620 615 494
f 620 494 499
f 619 614 615
f 619 615 620
f 616 501 495
f 616 621 501
f 622 621 616
f 622 616 617
f 620 499 502
f 620 502 624
f 623 619 620
f 623 620 624
f 625 502 503
f 625 624 502
f 621 506 501
f 621 627 506
f 506 626 505
f 506 627 626
f 629 628 623
f 629 623 624
f 625 503 507
f 625 507 630
f 629 624 625
f 629 625 630
f 631 505 626
f 631 509 505
f 633 632 628
f 633 628 629
f 630 507 511
f 630 511 634
f 634 633 629
f 634 629 630
f 635 509 631
f 635 515 509
f 636 632 633
f 636 633 637
f 634 511 517
f 634 517 638
f 637 633 634
f 637 634 638
f 639 515 635
f 639 522 515
f 640 523 522
f 640 522 639
f 641 524 523
f 641 523 640
f 643 638 517
f 643 517 526
f 644 526 527
f 644 643 526
f 645 640 639
f 645 646 640
f 641 532 524
f 641 647 532
f 532 646 531
f 532 647 646
f 646 641 640
f 646 647 641
f 648 533 532
f 648 532 647
f 651 535 534
f 651 534 650
f 651 650 642
f 651 642 643
f 644 527 536
f 644 536 652
f 652 536 535
f 652 535 651
f 651 643 644
f 651 644 652
f 654 537 538
f 654 653 537
f 539 654 538
f 539 655 654
f 656 531 646
f 656 540 531
f 656 539 540
f 656 655 539
f 656 645 655
f 656 646 645
f 647 532 541
f 647 541 657
f 648 542 533
f 648 658 542
f 657 648 647
f 657 658 648
f 659 543 542
f 659 542 658
f 660 650 534
f 660 534 544
f 660 544 543
f 660 543 659
f 660 659 649
f 660 649 650
f 661 537 653
f 661 547 537
f 662 661 653
f 662 653 654
f 663 662 654
f 663 654 655
f 657 541 551
f 657 551 665
f 551 550 664
f 551 664 665
f 666 657 665
f 666 658 657
f 667 547 661
f 667 557 547
f 668 667 661
f 668 661 662
f 559 558 668
f 559 668 669
f 669 668 662
f 669 662 663
f 664 550 560
f 664 560 670
f 560 559 669
f 560 669 670
f 667 561 557
f 667 671 561
f 672 668 558
f 672 558 562
f 562 561 671
f 562 671 672
f 672 671 667
f 672 667 668
f 564 673 563
f 564 674 673
f 565 674 564
f 565 675 674
f 568 676 567
f 568 677 676
f 569 677 568
f 569 678 677
f 673 570 563
f 673 679 570
f 570 678 569
f 570 679 678
f 680 675 565
f 680 565 572
f 676 574 567
f 676 681 574
f 682 681 676
f 682 676 677
f 683 680 572
f 683 572 577
f 685 574 681
f 685 579 574
f 683 577 580
f 683 580 686
f 685 583 579
f 685 688 583
f 688 582 583
f 688 687 582
f 688 684 687
f 688 685 684
f 686 580 584
f 686 584 690
f 691 582 687
f 691 586 582
f 692 587 586
f 692 586 691
f 691 687 688
f 691 688 692
f 693 588 587
f 693 587 692
f 690 584 589
f 690 589 695
f 694 689 690
f 694 690 695
f 696 589 590
f 696 695 589
f 697 590 591
f 697 696 590
f 593 698 592
f 593 699 698
f 594 699 593
f 594 700 699
f 702 588 693
f 702 596 588
f 701 693 692
f 701 702 693
f 703 695 696
f 703 696 704
f 697 591 600
f 697 600 705
f 704 696 697
f 704 697 705
f 706 592 698
f 706 601 592
f 706 600 601
f 706 705 600
f 707 602 601
f 707 601 706
f 707 706 698
f 707 698 699
f 700 594 603
f 700 603 708
f 603 602 707
f 603 707 708
f 707 699 700
f 707 700 708
f 702 604 596
f 702 709 604
f 710 605 604
f 710 604 709
f 711 606 605
f 711 605 710
f 607 606 711
f 607 711 712
f 713 608 607
f 713 607 712
f 714 609 608
f 714 608 713
f 714 713 703
f 714 703 704
f 715 610 609
f 715 609 714
f 715 714 704
f 715 704 705
f 716 706 601
f 716 601 611
f 716 611 610
f 716 610 715
f 716 715 705
f 716 705 706
f 718 709 717
f 718 710 709
f 719 710 718
f 719 711 710
f 720 711 719
f 720 712 711
f 722 613 614
f 722 721 613
f 721 618 613
f 721 724 618
f 724 617 618
f 724 723 617
f 722 614 619
f 722 619 725
f 724 721 722
f 724 722 725
f 723 622 617
f 723 727 622
f 622 726 621
f 622 727 726
f 725 619 623
f 725 623 728
f 726 627 621
f 726 730 627
f 627 729 626
f 627 730 729
f 731 730 726
f 731 726 727
f 728 623 628
f 728 628 733
f 729 631 626
f 729 734 631
f 735 734 729
f 735 729 730
f 737 733 628
f 737 628 632
f 737 736 732
f 737 732 733
f 738 631 734
f 738 635 631
f 739 738 734
f 739 734 735
f 737 632 636
f 737 636 741
f 740 736 737
f 740 737 741
f 742 636 637
f 742 741 636
f 743 637 638
f 743 742 637
f 738 639 635
f 738 744 639
f 744 738 739
f 744 739 745
f 746 740 741
f 746 741 747
f 747 741 742
f 747 742 748
f 749 743 638
f 749 638 643
f 749 643 642
f 749 642 748
f 749 748 742
f 749 742 743
f 744 645 639
f 744 750 645
f 750 744 745
f 750 745 751
f 755 748 642
f 755 642 650
f 755 650 649
f 755 649 754
f 755 754 747
f 755 747 748
f 756 645 750
f 756 655 645
f 756 750 751
f 756 751 757
f 759 758 752
f 759 752 753
f 760 754 649
f 760 649 659
f 760 659 658
f 760 658 759
f 760 759 753
f 760 753 754
f 756 663 655
f 756 761 663
f 762 761 756
f 762 756 757
f 665 664 762
f 665 762 763
f 763 762 757
f 763 757 758
f 759 658 666
f 759 666 764
f 666 665 763
f 666 763 764
f 765 663 761
f 765 669 663
f 766 762 664
f 766 664 670
f 670 669 765
f 670 765 766
f 766 765 761
f 766 761 762
f 768 673 674
f 768 767 673
f 769 674 675
f 769 768 674
f 678 770 677
f 678 771 770
f 767 679 673
f 767 772 679
f 679 771 678
f 679 772 771
f 773 772 767
f 773 767 768
f 769 675 680
f 769 680 774
f 774 773 768
f 774 768 769
f 770 682 677
f 770 776 682
f 682 775 681
f 682 776 775
f 774 680 683
f 774 683 778
f 777 773 774
f 777 774 778
f 775 685 681
f 775 780 685
f 685 779 684
f 685 780 779
f 784 778 683
f 784 683 686
f 784 783 777
f 784 777 778
f 785 684 779
f 785 687 684
f 688 687 785
f 688 785 786
f 786 785 779
f 786 779 780
f 787 786 780
f 787 780 781
f 789 788 782
f 789 782 783
f 790 784 686
f 790 686 690
f 790 690 689
f 790 689 789
f 790 789 783
f 790 783 784
f 791 688 786
f 791 692 688
f 789 689 694
f 789 694 793
f 793 792 788
f 793 788 789
f 794 694 695
f 794 793 694
f 791 701 692
f 791 795 701
f 796 702 701
f 796 701 795
f 798 797 792
f 798 792 793
f 794 695 703
f 794 703 799
f 798 793 794
f 798 794 799
f 796 709 702
f 796 800 709
f 802 801 797
f 802 797 798
f 803 799 703
f 803 703 713
f 803 713 712
f 803 712 802
f 800 717 709
f 800 804 717
f 805 718 717
f 805 717 804
f 806 719 718
f 806 718 805
f 807 802 712
f 807 712 720
f 807 720 719
f 807 719 806
f 807 806 801
f 807 801 802
f 809 723 724
f 809 808 723
f 810 724 725
f 810 809 724
f 808 727 723
f 808 811 727
f 812 811 808
f 812 808 809
f 810 725 728
f 810 728 813
f 812 809 810
f 812 810 813
f 811 731 727
f 811 815 731
f 731 814 730
f 731 815 814
f 816 815 811
f 816 811 812
f 817 813 728
f 817 728 733
f 817 733 732
f 817 732 816
f 817 816 812
f 817 812 813
f 814 735 730
f 814 818 735
f 819 818 814
f 819 814 815
f 820 816 732
f 820 732 736
f 821 735 818
f 821 739 735
f 821 818 819
f 821 819 822
f 820 736 740
f 820 740 823
f 824 739 821
f 824 745 739
f 825 824 821
f 825 821 822
f 823 740 746
f 823 746 826
f 825 822 823
f 825 823 826
f 827 746 747
f 827 826 746
f 828 745 824
f 828 751 745
f 828 824 825
f 828 825 829
f 830 753 752
f 830 752 829
f 830 829 825
f 830 825 826
f 831 827 747
f 831 747 754
f 831 754 753
f 831 753 830
f 830 826 827
f 830 827 831
f 832 751 828
f 832 757 751
f 833 829 752
f 833 752 758
f 758 757 832
f 758 832 833
f 832 828 829
f 832 829 833
f 834 758 759
f 834 833 758
f 835 758 833
f 835 763 758
f 834 759 764
f 834 764 836
f 764 763 835
f 764 835 836
f 835 833 834
f 835 834 836
f 840 770 771
f 840 839 770
f 772 840 771
f 772 841 840
f 773 841 772
f 773 842 841
f 842 837 841
f 842 838 837
f 839 776 770
f 839 844 776
f 776 843 775
f 776 844 843
f 845 844 839
f 845 839 840
f 846 845 840
f 846 840 841
f 847 842 773
f 847 773 777
f 848 775 843
f 848 780 775
f 781 780 848
f 781 848 849
f 849 848 843
f 849 843 844
f 850 849 844
f 850 844 845
f 851 850 845
f 851 845 846
f 852 847 777
f 852 777 783
f 852 783 782
f 852 782 851
f 852 851 846
f 852 846 847
f 849 787 781
f 849 854 787
f 787 853 786
f 787 854 853
f 854 849 850
f 854 850 855
f 856 851 782
f 856 782 788
f 856 855 850
f 856 850 851
f 853 791 786
f 853 857 791
f 858 854 855
f 858 855 859
f 860 856 788
f 860 788 792
f 859 855 856
f 859 856 860
f 861 791 857
f 861 795 791
f 796 795 861
f 796 861 862
f 861 857 858
f 861 858 862
f 863 862 858
f 863 858 859
f 860 792 797
f 860 797 864
f 864 863 859
f 864 859 860
f 866 798 799
f 866 865 798
f 862 800 796
f 862 867 800
f 867 862 863
f 867 863 868
f 864 797 801
f 864 801 869
f 869 868 863
f 869 863 864
f 870 798 865
f 870 802 798
f 866 799 803
f 866 803 871
f 803 802 870
f 803 870 871
f 870 865 866
f 870 866 871
f 872 800 867
f 872 804 800
f 873 805 804
f 873 804 872
f 874 869 801
f 874 801 806
f 874 806 805
f 874 805 873
f 873 868 869
f 873 869 874
f 876 815 816
f 876 875 815
f 875 819 815
f 875 877 819
f 876 816 820
f 876 820 878
f 878 877 875
f 878 875 876
f 879 819 877
f 879 822 819
f 880 878 820
f 880 820 823
f 880 823 822
f 880 822 879
f 879 877 878
f 879 878 880
f 838 881 837
f 838 882 881
f 883 837 881
f 883 841 837
f 884 882 838
f 884 838 842
f 884 883 881
f 884 881 882
f 885 841 883
f 885 846 841
f 886 884 842
f 886 842 847
f 886 847 846
f 886 846 885
f 886 885 883
f 886 883 884
f 888 853 854
f 888 887 853
f 889 853 887
f 889 857 853
f 888 854 858
f 888 858 890
f 858 857 889
f 858 889 890
f 889 887 888
f 889 888 890
f 868 891 867
f 868 892 891
f 891 872 867
f 891 893 872
f 894 892 868
f 894 868 873
f 894 873 872
f 894 872 893
f 893 891 892
f 893 892 894
