# parsimony mesh: cplx_CPLX0-1121 (source /Users/eranagmon/code/v2e-cplx/workspace/studies/ecoli-3d/viz/3d/structures/cplx_CPLX0-1121.pdb)
# atoms: 3718  voxel: 4 Å  verts: 1672  tris: 3436
v 51.7575 -47.2789 -27.6309
v 53.0518 -47.2789 -27.6309
v 48.2105 -43.5007 -27.3934
v 50.4083 -44.9392 -27.8107
v 53.7205 -45.0970 -27.8687
v 43.6367 -39.3886 -27.4667
v 46.7044 -40.9386 -27.4300
v 50.3845 -41.7771 -27.6906
v 53.4986 -41.9457 -27.7280
v 43.7560 -37.0970 -27.4388
v 45.0209 -37.0970 -27.4388
v 40.3048 -31.2665 -27.3345
v 42.3640 -33.1693 -27.3267
v 44.4193 -35.0722 -27.3189
v 40.3048 -31.0463 -27.3345
v 40.4335 -31.0463 -27.3345
v -28.3865 32.6778 -27.6447
v -25.6155 32.6530 -27.6491
v -23.5111 32.7949 -27.4213
v -28.7453 34.9030 -27.7985
v -25.6155 34.9030 -28.0355
v -23.4158 34.9030 -27.5379
v -36.3672 40.2019 -27.6495
v -34.5818 40.2019 -27.6495
v -28.3509 37.6504 -27.6205
v -25.6155 37.7018 -27.6873
v -23.4536 37.2206 -27.4966
v -36.3672 41.8969 -27.6495
v -34.5818 41.8969 -27.6495
v 51.7575 -47.2789 -26.0402
v 53.0518 -47.2789 -26.0402
v 35.6679 -43.9456 -23.9836
v 38.3845 -44.5507 -24.2171
v 42.3845 -44.3508 -24.0976
v 46.6801 -44.3381 -25.2149
v 50.4083 -46.3702 -24.9445
v 54.2092 -45.4784 -24.9445
v 35.8279 -41.0970 -23.8431
v 38.3845 -41.0970 -25.0128
v 42.3358 -40.8720 -26.1507
v 46.7044 -40.9386 -26.7645
v 50.3845 -39.7771 -27.0284
v 54.4138 -40.8062 -25.6406
v 36.3589 -39.0032 -23.3411
v 38.3850 -37.4407 -24.3537
v 41.7560 -37.0970 -26.5867
v 47.0209 -37.0970 -26.3643
v 50.3845 -37.0970 -25.6474
v 53.4486 -37.0970 -24.5840
v 39.2740 -32.7987 -25.3171
v 42.3640 -33.1693 -26.4680
v 46.0054 -33.4821 -25.3203
v 50.0987 -33.0667 -23.8227
v 52.7950 -34.3799 -23.7788
v 39.3830 -29.4666 -25.0690
v 42.0332 -29.4221 -24.9279
v 46.3845 -30.5547 -23.5646
v 48.5749 -31.0064 -23.3453
v 39.9003 -26.4924 -23.5810
v 40.9662 -26.4924 -23.5810
v -39.8652 32.8403 -23.3864
v -39.4453 32.8403 -23.3864
v -31.6623 32.8851 -23.4077
v -29.6781 32.7181 -24.9650
v -25.6155 32.5067 -25.3009
v -23.4262 32.7244 -25.3009
v -44.1945 35.9565 -24.0648
v -41.3653 34.7351 -24.1199
v -37.9134 34.8478 -24.0993
v -33.2436 34.8478 -24.2937
v -30.7453 34.9030 -25.9946
v -23.2673 34.9030 -25.3009
v -44.1945 37.6917 -24.0648
v -41.6307 38.9762 -24.5106
v -37.6665 38.8823 -26.0901
v -33.3953 38.8823 -26.4778
v -29.6567 38.9514 -26.6250
v -25.2789 39.4111 -25.4859
v -23.4566 37.4776 -25.3009
v -40.5226 42.9030 -24.5123
v -37.6665 43.0993 -26.4667
v -33.3953 43.0993 -26.3090
v -29.6155 42.9030 -25.1641
v -26.5505 42.9030 -24.1499
v -40.6560 46.9030 -24.8185
v -37.6155 46.9030 -25.7469
v -33.2551 47.2654 -24.2068
v -29.6155 46.1528 -23.6226
v -27.4231 45.2986 -23.4579
v -40.3507 50.9030 -24.2131
v -37.7626 50.9610 -24.1767
v -34.3482 49.6664 -23.5443
v -39.7259 53.0499 -23.3722
v -39.1940 53.0499 -23.3722
v 47.7858 -55.4684 -19.7055
v 48.8671 -55.4684 -19.7055
v 43.8510 -51.4745 -19.4484
v 46.4253 -52.9235 -19.7561
v 49.0385 -53.0970 -19.7593
v 35.6185 -47.6773 -20.1342
v 38.3845 -48.1216 -20.7423
v 42.6386 -49.0738 -19.9190
v 46.2458 -48.9977 -20.0690
v 50.2182 -49.0640 -20.7592
v 53.3200 -47.7087 -20.5989
v 34.9514 -45.2062 -21.4009
v 38.3845 -46.5507 -22.7423
v 42.6095 -46.3815 -21.5541
v 46.2458 -46.3773 -21.4565
v 50.3845 -46.8858 -22.9689
v 54.8155 -45.5397 -21.9055
v 58.3845 -44.1351 -20.5898
v 61.0056 -43.5647 -19.7748
v 35.3956 -40.9489 -21.6257
v 36.7074 -39.5168 -20.5088
v 56.0856 -41.0970 -22.9067
v 58.3845 -41.0970 -21.3866
v 62.3572 -40.8443 -19.7378
v 64.5055 -39.3425 -19.3892
v 32.2266 -35.4895 -19.4008
v 35.2307 -37.3129 -21.3353
v 36.8797 -37.4860 -21.6244
v 55.4486 -37.0970 -22.2623
v 58.5933 -37.0140 -20.1696
v 62.3905 -37.0140 -19.5388
v 64.6166 -37.0970 -19.4738
v 32.2266 -34.5065 -19.4008
v 34.2217 -33.1427 -20.4162
v 37.0561 -33.0970 -22.6201
v 51.2415 -31.7132 -22.8097
v 54.2308 -33.0667 -21.7919
v 57.4378 -33.0970 -19.7830
v 63.4299 -33.0970 -19.7871
v 64.8656 -33.0970 -19.7871
v 35.3993 -29.0970 -20.4190
v 37.1924 -29.0970 -22.4190
v 43.6328 -27.7978 -22.4692
v 46.3845 -28.5547 -21.7884
v 50.0987 -29.4426 -21.8979
v 54.4572 -29.2351 -20.3634
v 56.7742 -30.6605 -19.5583
v 63.7684 -30.7792 -19.8069
v 64.8375 -30.7792 -19.8069
v 36.0088 -26.7493 -19.8053
v 38.5977 -25.2875 -21.2452
v 42.3335 -25.1342 -21.6472
v 45.9917 -25.4172 -19.7057
v 50.3845 -26.5238 -19.9156
v 53.1724 -26.4657 -19.9721
v 39.9617 -22.7873 -20.0184
v 42.3845 -22.8597 -19.8575
v 44.3966 -23.0903 -19.3256
v -32.1875 24.4166 -19.6892
v -30.7591 24.4166 -19.6892
v -36.0803 28.6203 -19.4133
v -33.5587 27.1334 -19.8512
v -30.1682 26.9030 -19.9045
v -44.2166 32.1641 -20.1811
v -41.3653 31.8949 -21.4290
v -37.6055 31.0361 -20.4919
v -33.1555 31.1867 -20.8987
v -29.3715 30.5896 -21.1508
v -25.6155 31.8610 -21.3009
v -23.3973 32.7393 -21.3009
v -51.6187 36.9001 -19.3037
v -51.4307 36.9001 -19.3037
v -45.0956 34.7351 -21.4290
v -42.5319 33.2899 -22.8478
v -36.7495 33.5446 -21.3009
v -33.9254 33.5446 -21.3009
v -21.8110 34.8500 -21.2115
v -18.5520 36.1480 -19.8186
v -51.6187 36.9145 -19.3037
v -51.4307 36.9145 -19.3037
v -45.0147 38.1848 -21.3009
v -42.8026 40.1848 -21.3009
v -23.7212 40.0182 -23.1389
v -21.9856 38.7721 -22.0748
v -17.3774 38.8230 -19.8609
v -15.3569 40.1029 -19.4491
v -47.6928 44.5670 -19.3561
v -45.6155 44.0204 -19.8384
v -42.4757 42.7985 -21.2978
v -24.5505 42.9030 -22.5005
v -21.3539 43.1363 -20.4211
v -17.7718 43.1363 -19.6951
v -14.9986 42.9030 -19.5930
v -47.6928 45.0781 -19.3561
v -45.5822 46.6081 -20.1564
v -42.6560 46.9030 -22.3289
v -31.6815 48.8404 -23.2706
v -29.6155 48.1528 -22.9886
v -25.9001 46.7404 -21.9633
v -22.4634 46.9030 -19.9184
v -16.4585 46.9030 -19.5887
v -15.0601 46.9030 -19.5887
v -44.1695 50.9030 -19.9573
v -42.3507 50.9030 -21.9573
v -36.5273 52.3331 -22.9525
v -33.1057 51.1667 -21.7782
v -29.8634 51.1614 -21.0101
v -25.5603 50.8532 -20.4655
v -23.1820 49.4867 -19.6962
v -15.8123 48.9800 -19.4433
v -15.4388 48.9800 -19.4433
v -43.7431 53.0127 -19.4670
v -41.2818 53.8343 -21.0005
v -37.7626 54.5418 -21.4919
v -34.5298 54.1919 -20.2859
v -28.6953 53.3386 -19.8993
v -26.8569 53.3386 -19.8993
v 47.7858 -55.4684 -18.2392
v 48.8671 -55.4684 -18.2392
v 36.3679 -51.1071 -15.3242
v 38.3845 -51.5946 -15.9841
v 42.4644 -52.4625 -17.4334
v 46.4253 -54.2559 -17.0639
v 49.4175 -53.2824 -17.0639
v 55.3876 -52.2734 -15.8481
v 56.9772 -52.2734 -15.8481
v 32.2783 -47.1960 -15.5217
v 34.6599 -48.7700 -16.7563
v 38.3845 -50.1216 -17.9841
v 42.6386 -49.0738 -18.9114
v 44.8200 -47.5982 -18.9676
v 51.3139 -50.1039 -17.3009
v 54.3538 -49.1016 -17.3711
v 57.3835 -49.0970 -16.4062
v 28.2498 -43.2295 -15.7368
v 30.7208 -44.7765 -16.2275
v 33.1305 -45.0970 -18.1323
v 44.0929 -46.8994 -18.9676
v 44.8200 -46.8994 -18.9676
v 55.9866 -46.6801 -18.8941
v 58.4543 -45.1224 -17.2236
v 61.0056 -43.5647 -18.2197
v 28.1496 -41.0970 -16.4576
v 30.3845 -41.0970 -17.7432
v 34.2409 -40.9489 -18.4191
v 36.7074 -39.5168 -18.7837
v 59.7847 -42.8452 -15.5530
v 62.3572 -42.0066 -17.0522
v 64.8876 -39.9229 -17.3009
v 28.1440 -37.0970 -16.2363
v 30.6898 -36.9325 -18.1451
v 34.3845 -38.0452 -18.5328
v 36.7074 -38.6355 -18.7837
v 60.0658 -35.6254 -19.0453
v 61.0612 -35.6254 -19.0453
v 65.4308 -37.0970 -17.3009
v 27.9892 -33.0970 -15.6874
v 30.6898 -33.1427 -17.8156
v 32.7799 -31.8399 -18.9768
v 59.4378 -33.0970 -18.6751
v 61.4299 -33.0970 -18.6751
v 65.9281 -33.0970 -17.3009
v 27.9996 -30.6417 -15.6753
v 30.5259 -29.2238 -16.3710
v 33.3993 -29.0970 -18.3578
v 55.8390 -27.9938 -18.4518
v 58.2183 -29.2351 -17.7047
v 62.2279 -29.1508 -17.0619
v 65.3849 -30.1777 -17.3009
v 31.9535 -26.6553 -15.7008
v 34.5591 -26.4128 -17.1408
v 37.8559 -24.5730 -17.3009
v 44.1255 -23.1734 -16.3933
v 45.9917 -24.3923 -17.5564
v 50.3845 -25.7447 -17.3009
v 54.4572 -26.1904 -17.1915
v 58.3845 -26.7960 -15.7396
v 60.6874 -26.9879 -15.4016
v 39.8559 -22.7585 -17.3009
v 42.6291 -22.8222 -17.5564
v 44.3966 -23.0903 -19.0600
v -35.8333 24.8372 -15.4814
v -33.5587 24.4638 -17.0092
v -30.7719 24.4033 -17.3009
v -23.8842 24.7298 -15.6719
v -23.3388 24.7298 -15.6719
v -43.7251 28.8357 -15.5140
v -41.6155 28.3007 -16.1234
v -37.2901 27.0604 -17.1662
v -34.8542 25.9537 -18.1480
v -29.2085 26.9030 -17.3009
v -24.5186 26.9030 -15.9706
v -22.7052 26.9030 -15.9706
v -44.6188 30.8596 -17.0288
v -41.6155 29.6899 -18.1234
v -37.3556 30.7564 -18.9145
v -34.6486 32.1549 -18.9778
v -28.0522 29.5924 -17.3009
v -25.7768 30.2016 -17.2141
v -22.2872 31.2500 -17.2141
v -51.6646 36.8153 -17.3009
v -49.9046 36.3573 -17.6497
v -46.9250 34.8274 -17.6497
v -35.9643 33.1837 -18.9778
v -34.6486 33.1837 -18.9778
v -20.6579 33.9788 -17.3009
v -17.3774 36.1005 -17.2711
v -15.4792 36.7978 -15.9178
v -51.6646 37.4200 -17.3009
v -50.1264 38.5810 -17.7354
v -45.9875 39.0552 -18.6532
v -43.1731 40.4899 -18.6857
v -15.8853 37.4363 -18.5845
v -14.9083 38.8230 -17.2711
v -51.6633 44.3535 -15.3446
v -49.5908 43.1269 -17.1333
v -45.6155 42.0204 -18.5553
v -43.1731 41.3955 -18.6857
v -19.8462 44.6252 -19.1603
v -19.2094 44.6252 -19.1603
v -13.7705 42.9030 -17.3009
v -51.6760 46.9030 -15.3642
v -49.2619 46.6081 -17.2201
v -46.8933 47.7448 -18.4151
v -20.4634 46.9030 -18.7439
v -18.4585 46.9030 -18.7439
v -13.6030 46.9030 -17.3009
v -51.6484 48.9425 -15.3416
v -49.3658 50.5267 -15.7453
v -46.1695 50.9030 -17.8259
v -31.8631 52.6670 -19.0016
v -31.3620 52.6670 -19.0016
v -24.1902 52.1534 -18.1767
v -21.8004 51.1112 -17.1044
v -17.3336 50.0712 -17.3397
v -14.6662 49.4888 -17.3009
v -47.8660 53.1748 -15.5534
v -45.2920 53.1576 -17.0524
v -41.6155 54.6780 -17.3009
v -37.6155 56.3014 -17.3009
v -33.3641 54.5216 -17.5213
v -29.8634 53.6507 -17.5213
v -25.5603 53.4897 -17.0263
v -23.0854 53.0154 -15.5100
v 36.1022 -51.5602 -13.3009
v 38.3845 -52.5397 -13.3009
v 42.3845 -53.5646 -13.3009
v 46.3845 -54.0483 -13.3009
v 50.4943 -52.3543 -13.2709
v 54.1863 -52.1269 -13.2709
v 58.3401 -52.0510 -12.9271
v 60.4073 -51.1150 -11.3446
v 32.2783 -47.1960 -15.2038
v 34.3426 -48.7564 -13.6427
v 51.9009 -50.4945 -14.5843
v 52.7209 -50.4945 -14.5843
v 59.3721 -49.3705 -12.9271
v 60.4073 -50.8861 -11.3446
v 27.5048 -43.8041 -13.3009
v 30.7208 -45.5339 -13.6427
v 33.3577 -46.2157 -12.5372
v 56.0761 -43.7591 -12.2059
v 57.8566 -45.0943 -13.4439
v 26.9748 -41.0970 -13.3009
v 56.0761 -42.6131 -12.2059
v 58.4246 -41.9631 -13.4439
v 62.3845 -41.0161 -13.3009
v 64.8976 -40.0706 -13.3009
v 27.5936 -37.0970 -13.3009
v 65.6084 -37.0970 -13.3009
v 27.9449 -32.9109 -12.9928
v 28.4877 -31.4536 -11.4541
v 66.0838 -33.0970 -13.3009
v 27.9996 -30.6417 -14.1207
v 29.4231 -29.2238 -12.9928
v 63.3541 -27.5224 -14.9017
v 65.8288 -28.9523 -13.4614
v 31.7218 -25.2320 -12.9770
v 34.3845 -24.5025 -13.6015
v 37.4358 -24.0794 -14.2415
v 44.1255 -23.1734 -15.1776
v 46.3845 -23.8159 -14.6052
v 50.3845 -24.3179 -14.2255
v 54.3845 -24.4372 -14.1060
v 58.3845 -24.7960 -13.6147
v 61.9091 -25.3464 -13.1256
v 65.4736 -26.3715 -12.2350
v 32.3188 -23.0449 -11.4277
v 34.3845 -22.7047 -11.6015
v 38.6153 -21.9987 -13.0653
v 42.6291 -21.9828 -13.6269
v 46.3845 -22.1857 -12.6052
v 50.4133 -21.0665 -12.4651
v 54.2359 -21.2906 -12.3695
v 58.3845 -22.8200 -11.6147
v 60.4642 -23.0717 -11.3495
v 51.7659 -18.7752 -12.0084
v 52.8034 -18.7752 -12.0084
v -35.8333 24.8372 -14.9329
v -33.3919 24.7267 -13.4801
v -31.3322 24.7319 -13.3009
v -23.8842 24.7298 -14.9901
v -23.3388 24.7298 -14.9901
v -43.8426 28.5571 -13.3009
v -41.6155 27.3584 -13.3009
v -37.3462 25.7320 -13.4801
v -34.5761 25.2161 -12.2662
v -29.1821 27.0306 -13.4267
v -25.5509 27.1267 -13.5837
v -21.6753 27.1262 -13.6268
v -19.1440 28.4480 -12.2636
v -44.8702 30.9030 -13.3009
v -27.9377 29.5949 -14.8440
v -27.2176 29.5949 -14.8440
v -20.2774 31.0604 -13.4785
v -19.1440 29.8320 -12.2636
v -52.0314 35.8634 -13.3009
v -49.6155 34.7168 -13.3009
v -46.6431 33.7564 -13.3009
v -20.7351 35.0166 -13.6306
v -17.6155 36.4661 -14.7116
v -15.4792 36.7978 -14.6323
v -52.1673 38.9097 -13.6064
v -51.4887 40.2475 -15.1435
v -20.7746 37.7487 -12.5171
v -17.6155 37.7620 -12.7116
v -14.7889 38.6828 -13.2997
v -51.8219 43.1421 -13.7290
v -51.4438 43.1421 -13.7290
v -13.4876 42.9030 -13.3009
v -51.6760 46.9030 -14.9793
v -51.1461 46.9030 -12.9793
v -12.9967 46.9030 -13.3009
v -51.6484 48.9425 -15.1919
v -50.1599 50.5267 -13.6355
v -20.4188 52.7356 -15.1433
v -17.6155 52.3055 -14.7233
v -13.3342 51.0407 -13.0906
v -11.5012 52.4744 -11.4929
v -48.1030 53.6692 -13.3009
v -45.6155 54.5508 -13.3009
v -41.9001 55.7594 -13.5355
v -37.2349 56.4448 -13.5355
v -33.9917 56.1220 -13.1798
v -29.6155 55.5108 -14.0256
v -25.6155 55.3097 -14.0622
v -21.6492 54.7402 -13.4789
v -17.6155 53.9674 -12.7233
v -13.6155 53.4049 -11.9855
v -11.5012 53.0483 -11.4929
v -40.7565 58.1506 -12.3586
v -38.3146 58.1506 -12.3586
v -32.9092 57.4146 -11.7658
v -29.3882 58.8100 -12.1736
v -25.8546 58.7705 -12.2028
v -22.8797 57.3488 -11.8145
v -27.9033 61.0632 -11.7890
v -27.3474 61.0632 -11.7890
v 36.1395 -55.4462 -7.8338
v 38.3845 -55.4233 -7.8323
v 40.6439 -55.1829 -7.4765
v 48.2416 -55.1277 -7.5504
v 48.4570 -55.1277 -7.5504
v 36.0821 -53.0269 -9.1566
v 37.7251 -53.0309 -8.9667
v 42.1402 -54.0484 -9.0062
v 46.6987 -54.2419 -9.0506
v 50.0280 -53.7139 -9.0506
v 54.3845 -52.0791 -9.3009
v 58.1685 -51.4617 -9.6799
v 60.4073 -51.1150 -11.2659
v 28.3650 -47.1174 -7.3494
v 28.4184 -47.1174 -7.3494
v 35.8446 -49.0970 -9.7435
v 36.8355 -49.0970 -7.7435
v 59.6948 -49.0243 -9.4601
v 61.5372 -48.8849 -9.4620
v 66.3845 -47.5053 -8.1891
v 68.9002 -47.3244 -7.7610
v 27.5597 -45.1832 -8.9300
v 30.0049 -45.7257 -8.9300
v 34.5684 -46.0054 -8.9479
v 36.5244 -47.0402 -7.3793
v 55.7330 -44.5345 -9.3009
v 58.5729 -46.1662 -9.1129
v 62.0309 -45.0162 -8.4568
v 66.3845 -45.0970 -8.9103
v 68.9594 -45.0970 -7.7305
v 26.6466 -41.0970 -9.3009
v 55.7330 -42.2207 -9.3009
v 58.3845 -40.6562 -9.3009
v 62.0309 -41.3108 -9.4103
v 66.0651 -40.9624 -9.6323
v 68.8647 -41.0970 -7.5784
v 26.9446 -37.0970 -9.3009
v 66.9447 -37.0119 -9.0553
v 68.7741 -38.2885 -7.5583
v 27.6662 -34.0172 -9.3009
v 29.3938 -32.0172 -9.3009
v 66.1629 -33.0970 -9.3009
v 30.6150 -29.0970 -9.3009
v 65.9069 -29.0970 -9.3009
v 31.7221 -24.9740 -9.4994
v 33.3538 -23.5587 -8.2984
v 59.2316 -23.6618 -8.5104
v 62.0323 -24.5698 -9.6266
v 65.2281 -26.5144 -9.3009
v 32.3188 -23.0449 -10.9650
v 34.5661 -22.6264 -9.4994
v 38.5179 -20.3269 -9.4558
v 42.3845 -19.8105 -10.1451
v 46.1081 -20.4122 -9.0213
v 50.4133 -20.3369 -9.2997
v 54.2359 -20.8869 -9.2997
v 58.0927 -22.8455 -9.6266
v 60.4642 -23.0717 -11.1770
v 39.9402 -18.9406 -8.2258
v 42.3845 -18.9120 -8.1451
v 44.5905 -19.0068 -7.5016
v 51.7659 -18.7752 -10.6322
v 52.8034 -18.7752 -10.6322
v -40.9058 24.4143 -8.0258
v -38.5565 24.4143 -8.0258
v -32.5681 24.6976 -9.3009
v -31.0239 24.6976 -9.3009
v -43.8087 28.5091 -10.8110
v -41.8901 26.9415 -9.4184
v -37.3801 25.4926 -9.3358
v -34.5681 25.2868 -9.3009
v -29.0239 25.8713 -9.3009
v -25.6155 27.1803 -9.3009
v -21.5987 28.0772 -9.2871
v -19.1440 28.4480 -10.6112
v -51.6759 32.8070 -8.3200
v -51.3461 32.8070 -8.3200
v -44.0669 30.9030 -10.2624
v -42.6961 30.9030 -8.2624
v -20.1886 31.2863 -9.1089
v -18.2706 31.3197 -9.1597
v -13.6155 32.1971 -8.4893
v -10.6023 32.4227 -8.1641
v -52.0538 34.5397 -9.5124
v -49.8538 33.5386 -9.5124
v -45.4607 33.7194 -9.1640
v -43.1308 33.2654 -7.7394
v -23.8398 36.0040 -7.9200
v -21.7821 34.5295 -9.0967
v -17.4026 34.5942 -8.3685
v -13.3903 35.2355 -8.7030
v -10.6023 34.1237 -8.1641
v -52.6462 38.9030 -9.3009
v -23.8398 37.1081 -7.9200
v -21.9110 38.0523 -9.2724
v -17.4026 38.1090 -9.3523
v -13.5323 38.4945 -9.1572
v -11.1085 39.7865 -7.5946
v -52.2487 43.1196 -9.4301
v -51.3989 44.5973 -10.8495
v -12.7158 42.9030 -9.6512
v -11.1637 42.9030 -7.6512
v -51.9668 45.1748 -8.1829
v -50.4435 46.6661 -9.4301
v -12.6893 46.6202 -9.0049
v -11.5200 45.0983 -7.4743
v -48.7800 50.9030 -9.3009
v -13.0099 51.0458 -9.5999
v -11.5012 52.4744 -11.1326
v -48.0825 53.7241 -9.3009
v -45.6155 55.3790 -9.3009
v -43.1191 56.5579 -9.3009
v -35.6479 56.8593 -11.2663
v -35.5758 56.8593 -11.2663
v -23.7906 56.6369 -7.5959
v -21.5740 55.8871 -9.0779
v -17.6155 54.3932 -9.3009
v -13.8909 53.4386 -9.5999
v -11.5012 53.0483 -11.1326
v -40.8604 59.2516 -9.3133
v -37.3757 59.4525 -9.6272
v -33.9917 58.1288 -9.6801
v -29.3882 59.4662 -9.4980
v -25.5690 58.8328 -9.2793
v -22.8797 57.3488 -10.2625
v -39.6855 60.9400 -7.9882
v -39.1035 60.9400 -7.9882
v -27.9033 61.0632 -10.9627
v -27.3474 61.0632 -10.9627
v 36.1395 -55.4462 -6.5608
v 38.3845 -55.4233 -6.2104
v 42.1238 -55.1834 -5.0964
v 46.7684 -55.1558 -5.1425
v 48.4570 -55.1277 -6.6793
v 36.1975 -52.9398 -5.1509
v 37.7251 -53.1868 -5.1522
v 42.1238 -54.7892 -5.0964
v 46.7684 -54.8135 -5.1425
v 50.0280 -54.0567 -5.3279
v 54.2655 -51.8298 -5.5003
v 56.6912 -51.2912 -6.9665
v 28.1059 -47.3838 -5.3009
v 28.7500 -47.3838 -5.3009
v 35.9214 -49.0970 -4.5669
v 36.8355 -49.0970 -6.5669
v 55.5196 -50.2925 -4.2999
v 58.1685 -49.0944 -5.5003
v 62.3845 -47.4431 -5.3009
v 66.3845 -47.8225 -5.3009
v 70.2939 -47.7833 -5.3841
v 72.8974 -47.6014 -4.1062
v 27.5273 -45.0970 -5.3009
v 30.5882 -44.9682 -5.3653
v 34.7085 -45.2946 -5.6452
v 36.5244 -47.0402 -7.2154
v 55.8242 -44.3516 -6.8099
v 58.3845 -44.4370 -6.8993
v 60.4618 -43.6290 -7.2564
v 70.9594 -45.0970 -6.5368
v 73.0943 -45.0970 -4.5368
v 26.9628 -41.0970 -5.3009
v 31.5700 -42.1141 -4.0750
v 33.5210 -42.1141 -4.0750
v 55.8242 -42.4125 -6.8099
v 58.3845 -41.8847 -6.8993
v 60.4618 -42.1651 -7.2564
v 70.8647 -41.0970 -6.2968
v 72.9606 -41.0970 -4.2968
v 27.2586 -36.8867 -5.1476
v 29.6115 -35.4132 -3.7121
v 67.8175 -35.7533 -5.3009
v 70.2182 -37.7185 -5.1921
v 72.7191 -38.5911 -3.7863
v 27.6322 -34.6340 -6.3788
v 30.9526 -33.5221 -5.4722
v 34.3845 -32.5750 -4.8036
v 37.0919 -31.7544 -4.0398
v 66.4037 -33.0970 -5.3009
v 31.9935 -29.0970 -7.0154
v 34.3845 -29.0970 -6.0172
v 37.6309 -29.0970 -4.3026
v 43.6889 -27.3855 -3.6177
v 44.7979 -27.3855 -3.6177
v 63.5035 -27.8633 -4.5359
v 64.8748 -29.1568 -5.6419
v 31.9540 -26.2254 -6.9889
v 34.5661 -24.9740 -6.6323
v 38.5571 -25.4159 -5.0460
v 42.3671 -25.4159 -4.6461
v 45.2684 -25.0970 -4.1991
v 59.3990 -23.7505 -5.3009
v 62.2559 -25.9890 -5.6419
v 64.4201 -27.0456 -7.2025
v 36.0204 -22.8357 -7.2350
v 38.5179 -21.3402 -7.0061
v 42.3845 -21.0970 -6.5495
v 46.2034 -21.1064 -5.6794
v 50.3845 -20.7293 -5.3009
v 54.3845 -21.3470 -5.3009
v 57.3990 -22.7289 -5.3009
v 39.9402 -18.9406 -7.1645
v 42.3845 -18.9120 -7.1056
v 44.5905 -19.0068 -7.1770
v -40.8596 24.3914 -5.3009
v -37.3801 24.3178 -5.4981
v -33.8012 24.4392 -5.4981
v -30.4440 24.5432 -5.3009
v -42.1993 26.9030 -5.3009
v -35.8898 25.1016 -6.9629
v -35.2583 25.1016 -6.9629
v -28.4440 25.4217 -5.3009
v -25.4451 27.4244 -5.1789
v -22.9209 28.4136 -6.4309
v -51.8875 32.4673 -5.3009
v -50.8656 32.4673 -5.3009
v -43.8444 32.4097 -3.6037
v -42.7965 31.0070 -5.0826
v -23.9981 29.3296 -3.7643
v -21.5987 30.4461 -5.1789
v -17.6155 32.1043 -5.3009
v -13.6155 31.6648 -5.3009
v -9.4076 31.7969 -5.5755
v -6.8696 32.1671 -4.4252
v -52.3230 34.9030 -5.3009
v -48.8656 34.0852 -5.3009
v -45.0417 34.8397 -4.4803
v -43.2402 34.6972 -4.8735
v -23.8398 36.0040 -7.1540
v -21.6155 35.3428 -6.7435
v -18.5940 35.7217 -6.7046
v -11.9068 36.7904 -6.6228
v -9.4076 35.2355 -6.5569
v -6.5878 34.9030 -4.8795
v -52.5350 38.9030 -5.3009
v -44.5231 37.0686 -3.4766
v -43.3496 37.0686 -3.4766
v -23.8398 37.1081 -7.1540
v -21.6155 37.7053 -6.7435
v -18.5940 37.7675 -6.7046
v -11.9068 37.1198 -6.6228
v -9.7113 38.6331 -6.3743
v -6.7372 38.9030 -4.6513
v -52.2134 42.8050 -5.4124
v -50.5811 44.0730 -4.1534
v -12.4866 44.4228 -4.2198
v -9.9810 42.9543 -5.5037
v -7.0688 41.4858 -4.1209
v -51.9668 45.1748 -6.8200
v -49.1012 46.4341 -5.7248
v -45.6155 47.2184 -4.9093
v -42.9044 47.8665 -4.1167
v -13.0706 46.6202 -5.4523
v -11.5200 45.0983 -6.8865
v -47.7874 50.9030 -7.1555
v -45.6155 50.9030 -6.3176
v -41.5888 51.2411 -4.3545
v -37.6155 52.2482 -4.0690
v -34.7693 52.1331 -4.1186
v -16.4086 52.2132 -4.2587
v -14.8234 50.8891 -5.4756
v -47.8387 53.2479 -7.1116
v -45.6155 53.9672 -6.7092
v -41.7338 55.1474 -6.1459
v -37.6155 54.9030 -5.4761
v -34.2866 54.9030 -4.4700
v -23.7906 56.6369 -6.8231
v -21.2180 56.1483 -5.4142
v -17.6914 54.0421 -5.4756
v -15.4079 53.1265 -6.9253
v -40.3158 58.9030 -7.1234
v -37.7083 59.2138 -6.8036
v -33.4601 58.0343 -5.3456
v -29.6155 58.6646 -5.3009
v -25.3206 58.0119 -5.4142
v -22.2863 57.1032 -4.1564
v -39.6855 60.9400 -7.2626
v -39.1035 60.9400 -7.2626
v 39.9292 -55.2401 -0.1993
v 42.3160 -55.2698 -1.4399
v 46.5310 -55.1871 -0.9979
v 48.3964 -55.1023 0.5374
v 20.0188 -51.7600 0.2019
v 22.3845 -52.3743 -0.1286
v 24.5836 -52.1370 0.0926
v 35.9531 -51.9211 -1.3009
v 38.5113 -54.0706 -1.4399
v 40.9369 -54.9543 -2.8659
v 47.9620 -55.0029 -2.1292
v 50.1579 -53.2759 -1.0653
v 52.8529 -51.5489 -2.6680
v 20.0984 -49.0970 0.3143
v 22.3845 -49.0970 -0.5112
v 26.4158 -48.3950 -1.1712
v 30.4315 -47.3612 -1.0217
v 34.1462 -48.7968 -1.0077
v 51.9194 -50.3084 -0.0013
v 54.2655 -49.3975 -1.3212
v 58.0426 -47.5115 -1.6233
v 62.3845 -47.1562 -3.1916
v 66.3845 -47.4142 -2.8251
v 70.3845 -47.7844 -2.2828
v 72.8974 -47.6014 -2.5613
v 20.3688 -46.9771 0.6831
v 22.1940 -45.4250 0.0652
v 26.7071 -45.7899 -1.1455
v 30.4001 -45.8705 -0.5915
v 33.9265 -45.3645 -1.0077
v 59.1480 -45.7797 -0.5050
v 61.9987 -44.7067 -1.4454
v 66.3845 -45.0970 -2.2914
v 70.3845 -45.0970 -1.3446
v 73.0943 -45.0970 -2.1318
v 23.4003 -42.0725 0.1526
v 25.9975 -40.8823 -1.2288
v 31.3452 -41.5829 -1.3009
v 33.6785 -41.5829 -1.3009
v 62.5123 -41.0970 -0.8302
v 66.3845 -41.0970 -2.1304
v 70.3845 -41.0970 -1.5128
v 72.9606 -41.0970 -2.2126
v 23.9219 -36.0013 0.3846
v 26.5445 -37.3073 -0.5785
v 30.7207 -36.7302 -1.6835
v 33.4700 -36.2327 -0.6053
v 59.6176 -36.0016 -0.0322
v 62.0725 -37.2398 -0.9869
v 66.4984 -36.9072 -2.6473
v 70.3845 -37.9803 -2.4510
v 72.7191 -38.5911 -2.6691
v 23.9219 -34.7723 0.3846
v 24.9484 -34.7723 0.3846
v 32.2781 -35.0770 -3.2720
v 34.6358 -34.5972 -1.6835
v 38.4090 -32.6058 -1.3018
v 40.9281 -31.7580 0.0310
v 55.9913 -31.8005 0.2786
v 58.3244 -33.1191 -0.4388
v 62.3845 -33.0970 -1.9520
v 65.2620 -33.0970 -2.8449
v 39.6309 -29.0970 -2.6886
v 42.3085 -28.9772 -1.5594
v 45.5085 -27.9172 -1.3009
v 55.9913 -30.5397 0.2786
v 58.3110 -29.1626 -0.5359
v 62.2559 -29.1568 -2.4631
v 64.6980 -30.5299 -2.9333
v 40.0055 -26.9618 -3.1498
v 41.0222 -26.9618 -3.1498
v 46.9301 -25.0970 -1.3009
v 59.2548 -24.8809 -1.4367
v 60.8369 -26.0702 -2.8606
v 47.8460 -21.0642 -1.0982
v 50.3845 -19.6413 -2.2129
v 54.0889 -20.3487 -1.4332
v 57.5642 -22.5763 -1.3009
v 48.2582 -18.9520 0.3703
v 50.3845 -18.8874 -0.2129
v 52.5585 -18.9625 -0.1881
v -56.1444 24.6553 -0.2888
v -55.3326 24.6553 -0.2888
v -40.3848 24.5107 -1.3009
v -37.6155 24.0609 -1.3009
v -33.6155 24.1120 -1.3009
v -30.5749 24.5619 -1.3009
v -59.8586 28.3462 0.3400
v -57.5328 26.9689 -0.4407
v -55.1531 26.9030 -0.4564
v -44.0443 28.3862 -0.2792
v -42.5474 26.9929 -1.4879
v -28.4986 26.6710 -1.0105
v -26.6648 27.8496 -2.1502
v -59.8586 29.5529 0.3400
v -57.7124 30.8929 -0.1389
v -53.5998 31.2438 -1.1530
v -50.7702 32.4142 -1.3009
v -44.4612 31.0070 -1.4879
v -43.4763 29.7430 -2.9459
v -27.8082 29.4597 0.5165
v -25.4451 30.0553 -1.0105
v -21.7414 31.9059 -1.2905
v -17.6155 32.5718 -2.7085
v -13.6155 32.3707 -2.6890
v -9.6155 31.8807 -2.1387
v -6.8696 32.1671 -2.4615
v -56.9659 34.9030 0.1092
v -54.1443 34.9030 -1.8908
v -48.8950 35.2081 -1.6556
v -45.6132 35.5534 -2.2300
v -43.3496 36.1290 -3.1874
v -27.6234 36.8727 0.6865
v -27.6071 36.8727 0.6865
v -20.4920 33.5988 0.0498
v -17.5706 34.9205 -0.7284
v -13.6155 34.9030 -2.0157
v -9.6155 34.9030 -1.2929
v -6.5878 34.9030 -1.8756
v -56.5878 37.5101 0.3974
v -53.3034 39.1171 -0.9631
v -49.5712 39.1956 -0.5778
v -45.9050 38.1168 -1.7261
v -43.3496 37.0686 -3.1874
v -27.6234 36.9223 0.6865
v -27.6071 36.9223 0.6865
v -16.8812 38.9030 -0.4220
v -13.6155 38.9030 -2.0584
v -9.6155 38.9030 -1.4212
v -6.7372 38.9030 -1.7847
v -55.7394 44.6409 0.6224
v -53.5860 43.0236 -0.8506
v -49.3948 42.8050 -2.1107
v -45.8129 43.1327 -0.7031
v -42.6173 44.6191 0.0224
v -20.3561 44.1388 0.1600
v -17.8729 42.8445 -0.9290
v -13.7381 43.0149 -2.7548
v -9.6155 41.9799 -2.2670
v -7.0688 41.4858 -2.3404
v -55.7394 44.9842 0.6224
v -55.2502 44.9842 0.6224
v -47.9144 45.0267 -3.1135
v -45.6155 45.2184 -2.6679
v -41.4275 46.4283 -1.3846
v -38.6886 47.6569 -0.1250
v -21.1196 46.9030 -0.4154
v -17.6155 46.9030 -1.9197
v -14.9305 46.9030 -2.8053
v -40.2377 50.1331 -2.7916
v -37.4593 50.1563 -1.3953
v -33.5078 51.7144 -1.0654
v -31.4124 52.7299 0.4249
v -20.7238 50.9030 -0.1875
v -17.6914 50.8891 -2.1044
v -15.1644 49.5465 -2.7913
v -32.2185 54.7981 -1.0654
v -31.4124 53.3948 0.4249
v -20.3510 55.3014 -1.0421
v -19.0753 54.2337 -2.2028
v -32.0040 57.4667 -1.3009
v -29.4888 59.4945 -1.1355
v -25.9145 59.2302 -1.1355
v -22.3752 57.1363 -1.3009
v -28.0709 61.0300 0.3080
v -27.4471 61.0300 0.3080
v 39.9292 -55.2401 1.8610
v 42.3845 -55.2479 2.3636
v 46.3845 -55.1445 2.3823
v 48.3964 -55.1023 1.8859
v 20.0188 -51.7600 1.8981
v 22.1915 -52.2023 3.0185
v 24.6907 -51.9814 2.6991
v 35.9382 -51.7624 1.6209
v 38.2930 -53.4015 3.0743
v 42.3845 -55.0121 4.3636
v 46.3845 -55.0492 4.3823
v 49.0191 -53.4929 3.0112
v 19.9362 -49.3876 3.0185
v 20.7294 -50.9146 4.5648
v 26.7650 -48.9841 2.5824
v 30.7904 -47.4194 2.6645
v 34.3198 -48.9013 2.8893
v 36.6568 -50.5393 4.2876
v 50.6169 -49.0238 2.4347
v 54.3845 -47.5760 0.9098
v 56.4814 -47.1909 0.7540
v 19.5531 -45.4250 2.4447
v 20.7336 -44.3104 0.9418
v 27.9437 -46.7138 1.1713
v 31.1314 -45.9008 2.3194
v 32.8374 -45.4943 2.8934
v 48.2488 -44.1795 4.6313
v 49.9895 -45.3465 3.3528
v 54.3845 -45.0970 1.6180
v 58.0426 -44.7067 1.1457
v 60.4082 -43.1131 0.7089
v 19.1581 -41.0970 3.0583
v 22.1940 -40.8823 1.1470
v 25.5509 -39.4058 0.9666
v 31.9646 -40.8449 2.8306
v 32.8399 -40.8449 2.8306
v 48.1985 -41.0970 4.5872
v 50.3845 -41.0970 3.0417
v 54.3845 -41.0970 1.8512
v 58.3845 -41.0970 1.4849
v 60.5123 -41.0970 0.7874
v 19.8299 -37.0970 3.6933
v 22.5069 -37.2396 1.6550
v 26.5830 -37.5176 1.0852
v 31.1266 -37.6361 2.7805
v 33.0882 -37.4242 2.8751
v 48.2722 -38.9271 4.6177
v 50.4232 -37.3951 3.7224
v 54.3845 -37.0970 1.8575
v 58.3244 -37.2398 1.0184
v 60.5312 -38.6683 0.8069
v 20.2759 -34.9311 4.4552
v 22.7796 -33.5184 3.2053
v 26.3229 -33.3022 2.4549
v 30.3998 -32.9742 3.9125
v 34.6358 -34.1908 2.9105
v 38.3845 -33.8046 2.6991
v 42.3107 -32.1988 2.9798
v 44.8552 -31.3507 4.5002
v 51.7823 -34.3621 4.1448
v 54.2805 -33.0813 2.5088
v 56.9510 -34.4672 0.8728
v 24.3040 -31.0545 4.6220
v 26.3845 -30.9851 4.5154
v 29.0767 -30.9903 4.5312
v 43.5948 -30.5688 1.8336
v 46.4958 -29.3679 2.7402
v 50.3845 -28.7012 3.1788
v 54.2805 -29.3529 2.3506
v 56.9287 -27.8730 0.9769
v 48.0462 -25.0970 1.1834
v 50.3845 -25.0970 1.7312
v 54.3845 -25.0970 1.6193
v 57.0932 -25.0970 1.0715
v 48.1375 -21.0970 1.1209
v 50.3845 -21.0970 1.5404
v 54.0889 -21.3451 1.1658
v 56.7852 -22.8439 0.9177
v 48.2582 -18.9520 0.8970
v 50.3845 -18.8874 0.9879
v 52.5585 -18.9625 0.8863
v -56.1444 24.6553 1.0335
v -55.3326 24.6553 1.0335
v -40.8396 24.4433 2.6991
v -37.6155 24.0835 2.6991
v -33.6155 24.2432 2.6991
v -31.0305 24.6030 2.6991
v -59.8586 28.3462 1.8000
v -57.7875 27.0754 2.7501
v -54.7797 27.0439 2.4997
v -44.0443 28.3862 1.4681
v -42.7677 26.9929 2.7605
v -29.9331 26.9030 2.6991
v -59.8305 30.7842 3.0592
v -59.2705 30.7842 3.0592
v -52.7830 30.1352 2.6991
v -49.7776 32.1421 2.8303
v -45.5392 31.2318 2.8596
v -43.2370 29.8049 4.1348
v -28.9695 30.8370 2.4055
v -25.6155 32.0234 0.9736
v -23.1586 32.5069 0.8877
v -60.1884 34.9030 3.5692
v -58.9659 34.9030 1.5692
v -48.5756 35.1843 2.8303
v -46.8942 35.1843 2.8303
v -28.8703 35.2848 2.4055
v -26.0104 35.2848 1.2361
v -21.7414 34.9205 1.3314
v -18.8740 36.2655 1.0354
v -60.3134 38.9030 3.1909
v -57.7989 38.8673 1.3976
v -53.6155 40.2241 1.2575
v -49.8568 39.1956 2.4407
v -46.5104 38.9030 2.6991
v -28.9623 38.5146 2.4830
v -26.0104 38.5146 1.2994
v -21.6155 38.9030 1.5982
v -18.8812 38.9030 1.0778
v -59.9691 41.7776 3.8139
v -57.5590 43.2093 2.5107
v -53.7963 43.1457 1.3343
v -49.4588 42.7664 3.1564
v -45.8558 42.9805 2.6488
v -42.6173 44.6191 1.0531
v -28.8219 41.9573 3.6723
v -25.8985 43.1356 2.7082
v -21.6599 42.8445 1.0255
v -19.3779 41.4721 0.8678
v -56.5308 45.6312 2.6991
v -53.7963 46.1286 2.4876
v -49.6155 46.4747 3.5937
v -45.6155 45.9664 3.6236
v -41.4166 45.3573 2.5115
v -37.4593 46.9797 2.5861
v -33.6155 48.0643 3.9167
v -31.0185 48.6866 4.5109
v -25.3757 46.9030 2.8964
v -23.1196 46.9030 0.8964
v -36.0219 49.1983 1.1775
v -33.6155 49.9946 1.9167
v -29.8821 50.9248 2.9002
v -25.9407 50.6330 2.8979
v -22.7238 50.9030 1.0048
v -31.7258 56.0615 0.8763
v -29.8936 54.7981 1.6858
v -25.6155 54.9030 2.1417
v -22.5317 54.9030 1.0412
v -31.7258 57.3004 0.8763
v -29.4888 58.7414 1.4564
v -25.9145 58.5695 1.4109
v -23.2909 57.0139 0.8004
v -28.0709 61.0300 0.9072
v -27.4471 61.0300 0.9072
v 23.3152 -51.2851 6.6991
v 25.0301 -51.2851 6.6991
v 39.3424 -52.3151 6.6991
v 42.3845 -53.4065 6.6991
v 46.0303 -52.7660 6.3965
v 48.5620 -52.4235 4.8614
v 19.6144 -48.6426 6.6991
v 21.3152 -50.6426 6.6991
v 27.0301 -50.2702 6.6991
v 29.9396 -48.2702 6.6991
v 35.3681 -47.8727 4.9092
v 38.3564 -48.8596 6.7861
v 42.3845 -47.7821 8.5258
v 46.0303 -49.1955 7.0865
v 48.5238 -49.0970 4.8295
v 18.0224 -45.0970 6.6991
v 31.8988 -45.3063 6.8253
v 34.1746 -45.3063 5.8321
v 38.2835 -45.4742 7.6841
v 42.3845 -46.8181 8.5258
v 47.1835 -45.3451 6.3689
v 48.5760 -45.2200 6.0780
v 17.7441 -41.0970 6.6991
v 32.1421 -41.1445 6.7263
v 33.7704 -40.6326 6.8637
v 38.2835 -40.8158 7.9275
v 42.3845 -39.7126 8.0416
v 46.9272 -40.8726 6.4692
v 48.7592 -42.0254 7.4453
v 19.4807 -36.8906 6.5737
v 20.7923 -35.4196 7.8234
v 32.1160 -38.6157 5.2097
v 34.4641 -37.7479 6.9017
v 38.3845 -37.0970 7.2696
v 42.3845 -37.0970 6.6377
v 46.7171 -37.3951 5.5250
v 49.1156 -36.2604 4.9560
v 20.2759 -34.9311 5.1567
v 21.6025 -33.3975 6.5737
v 31.7434 -31.5591 4.9986
v 34.5635 -33.0771 6.7049
v 38.3845 -34.4117 5.8350
v 42.3845 -33.9785 5.2953
v 46.2669 -32.8493 5.1275
v 50.4232 -33.0561 5.0283
v 52.5697 -31.6954 4.8595
v 23.6012 -30.5827 6.6991
v 26.3845 -30.2531 6.6991
v 30.3998 -30.5991 6.4788
v 32.9192 -30.7067 7.6653
v 47.5219 -30.8336 4.8306
v 50.3845 -30.7012 4.9180
v 52.5697 -30.8327 4.8595
v -40.5904 24.6198 5.0870
v -37.6155 24.5607 5.5938
v -33.6155 24.6237 5.4787
v -31.3404 24.7037 4.9336
v -56.8292 28.5538 6.6991
v -53.5496 28.4882 6.7669
v -51.1415 28.6772 8.1454
v -41.0628 26.9030 5.9600
v -37.9873 26.6663 7.7908
v -33.8068 26.6663 7.0871
v -31.1673 26.9030 5.0804
v -60.1196 31.3414 6.6991
v -58.8292 29.3414 6.6991
v -52.1724 29.3795 5.4788
v -49.7311 30.4693 6.7669
v -45.9463 32.3246 6.3519
v -41.7884 31.0442 6.0866
v -39.1158 30.9030 8.3674
v -33.0687 30.9030 7.2028
v -31.1635 30.9030 5.2028
v -61.1744 34.9030 6.6991
v -47.6860 36.7052 4.9033
v -46.2188 35.6754 6.3317
v -41.6516 34.7708 7.4210
v -38.9961 33.3493 8.2969
v -32.5676 33.5705 7.7634
v -30.9778 34.9035 6.5377
v -61.1961 38.9030 6.6991
v -47.9725 38.9030 5.1143
v -45.7784 38.9030 6.6671
v -41.6516 38.8782 7.9096
v -37.6155 39.7918 7.4233
v -33.6155 39.9415 7.1123
v -31.0698 38.9979 6.4442
v -60.1413 42.0233 6.6991
v -59.0165 44.0233 6.6991
v -48.0210 41.3420 5.0485
v -45.1775 42.2340 7.0258
v -41.6155 42.9030 7.3647
v -37.6155 42.9030 5.9593
v -33.6155 42.9030 5.5628
v -29.9393 43.1356 5.1628
v -27.4204 44.6240 4.8593
v -57.1593 47.0368 6.6803
v -53.2451 48.4497 6.6803
v -49.9790 48.5301 6.5315
v -45.3930 46.9453 6.8440
v -41.6155 45.4054 5.9896
v -37.6155 45.4334 5.2351
v -33.6155 46.0643 5.1496
v -29.6573 47.1731 5.0717
v -27.3757 46.9030 4.8868
v -56.3205 49.3923 8.0010
v -54.3315 49.3923 8.0010
v -48.8880 49.1819 7.7531
v -47.1038 49.1819 7.7531
v -28.3519 49.1196 4.7892
v -27.4909 49.1196 4.7892
v 31.4252 -59.3440 12.0819
v 32.6295 -59.3440 12.0819
v 20.2444 -55.2157 12.5698
v 21.2623 -55.2157 12.5698
v 27.3349 -56.0353 12.4445
v 30.2089 -57.2600 12.0138
v 32.7519 -57.0970 12.0335
v 19.8974 -53.0970 12.1114
v 22.6048 -53.0492 10.9740
v 26.1855 -53.0492 10.7771
v 30.3845 -53.0970 11.1840
v 33.3394 -53.0970 12.0671
v 40.0560 -51.4442 9.0527
v 42.3845 -51.4915 9.1251
v 44.4608 -51.2758 8.9135
v 16.1437 -47.6603 12.2418
v 18.4660 -49.1669 10.8100
v 21.2806 -50.6735 9.3781
v 27.7028 -50.8495 9.1096
v 30.5258 -49.3485 9.7026
v 33.6475 -49.0970 11.6456
v 40.0560 -49.8464 9.0527
v 42.3845 -49.7821 9.1251
v 44.4608 -50.5944 8.9135
v 16.1482 -45.0970 12.0558
v 17.0498 -45.0970 10.0558
v 31.8989 -45.0970 9.3594
v 33.4342 -45.0970 11.3594
v 39.5494 -44.3923 9.4049
v 42.3845 -44.8181 9.6600
v 46.3845 -44.2193 9.5012
v 48.7592 -43.5939 9.1932
v 15.8398 -41.0970 11.9400
v 16.9706 -41.0970 9.9400
v 32.1682 -42.6604 9.0785
v 34.4434 -41.2956 10.4580
v 38.1855 -40.9462 10.6212
v 42.3845 -41.7126 9.6600
v 46.3845 -41.7604 9.5012
v 48.7592 -42.0254 9.1932
v 15.7216 -37.0970 12.0320
v 18.3245 -36.8906 9.9851
v 20.7923 -35.4196 9.0652
v 35.7130 -37.0186 10.5821
v 36.8216 -38.2997 11.8375
v 16.1526 -34.2605 12.4214
v 18.1609 -32.9951 11.3336
v 20.9674 -33.0970 9.2006
v 28.1705 -31.2997 12.4536
v 28.5418 -31.2997 12.4536
v 35.1846 -33.0970 10.6991
v 19.5834 -29.0970 11.8997
v 21.9956 -28.9668 10.8329
v 26.6561 -29.9411 10.9518
v 30.0789 -30.3871 10.9518
v 33.5543 -30.4591 10.6991
v 20.3557 -27.0787 12.6641
v 20.5706 -27.0787 12.6641
v -48.6824 20.3649 11.7738
v -47.1027 20.3649 11.7738
v -59.7411 24.7542 12.5524
v -58.3742 24.7542 12.5524
v -52.8882 24.0424 12.4660
v -49.8556 22.7866 11.7891
v -46.7920 22.9030 11.7364
v -60.0560 26.9030 11.7691
v -57.2297 26.9065 10.7457
v -53.9791 26.3717 10.9592
v -49.7311 27.1675 10.2451
v -45.6644 27.0467 11.8046
v -43.3803 28.4758 12.3983
v -36.9019 27.8418 9.3108
v -35.2676 27.8418 9.3108
v -63.6312 32.8505 12.6686
v -61.4223 30.9461 10.8039
v -58.7520 29.0417 8.9391
v -48.4749 29.9482 9.2006
v -45.8246 31.0474 10.7995
v -43.3803 29.4800 12.3983
v -37.1158 30.9030 9.3351
v -35.0687 30.9030 9.3351
v -63.6312 33.2317 12.6686
v -62.7489 34.7002 11.0808
v -45.2160 35.0120 10.8377
v -41.8211 36.2169 10.7704
v -37.6439 34.7708 9.7262
v -33.7868 34.9035 9.7434
v -31.1358 36.2372 9.3060
v -63.9293 39.8214 12.4108
v -62.6663 38.6541 10.9261
v -44.3722 38.9030 9.4887
v -41.8691 38.3138 10.5410
v -37.6155 37.7918 9.8058
v -33.6155 37.9415 9.8272
v -31.1358 37.7278 9.3060
v -63.9237 42.9030 12.3713
v -61.4239 42.8744 10.3235
v -59.0537 44.1887 9.1768
v -43.7378 43.2558 10.3922
v -43.1294 42.1576 11.5209
v -63.7126 45.1398 12.5504
v -61.5535 46.6451 11.6496
v -58.7229 46.9030 9.4988
v -52.0020 48.5250 10.6991
v -50.9121 48.5250 10.6991
v -44.5216 46.9030 10.6991
v -60.1789 49.6221 11.9543
v -57.6385 50.1007 10.6522
v -54.0020 49.8607 10.6991
v -48.9121 49.1992 10.6991
v -46.4385 49.1992 10.6991
v 24.1701 -59.1642 16.6012
v 24.6205 -59.1642 16.6012
v 31.4252 -59.3440 13.4599
v 32.6295 -59.3440 13.4599
v 20.2444 -55.2157 13.5188
v 22.4652 -56.2907 14.7924
v 25.9777 -57.2920 14.7315
v 30.2089 -58.3053 14.7556
v 33.3981 -57.2713 14.7556
v 19.5031 -53.4078 14.7909
v 22.2525 -54.9191 14.5236
v 24.6682 -54.8898 12.8617
v 35.4681 -53.3155 14.6274
v 36.6449 -52.1278 15.9128
v 15.9542 -47.9114 14.6991
v 17.3879 -49.9114 14.6991
v 35.6674 -48.9684 14.6274
v 36.6449 -50.2159 15.9128
v 15.6995 -45.0970 14.6991
v 35.1036 -45.0970 14.6991
v 15.2613 -41.0970 14.6991
v 35.7713 -42.5332 14.6991
v 38.2467 -40.3257 14.9948
v 40.4555 -39.2300 16.5253
v 15.5505 -37.0377 14.6566
v 16.9231 -35.6649 15.9616
v 36.0683 -35.6330 13.7462
v 38.0042 -37.2589 15.1357
v 40.4555 -38.8848 16.5253
v 16.1526 -34.2605 13.2949
v 17.1439 -32.9951 14.6566
v 28.1705 -31.2997 12.9640
v 30.2034 -31.4076 14.6608
v 34.7389 -33.1975 15.0519
v 36.5201 -34.8795 16.4128
v 18.8748 -29.0970 14.6991
v 22.8377 -27.5093 14.6991
v 26.6561 -29.6591 14.4580
v 30.2034 -30.7271 14.6608
v 33.4096 -30.6368 13.6909
v 20.3295 -27.0563 14.6991
v 20.8377 -27.0563 14.6991
v -56.0408 20.6521 16.3912
v -54.4019 20.6521 16.3912
v -49.2766 20.3978 14.6991
v -47.0236 20.3978 14.6991
v -59.8188 24.6032 14.6991
v -57.2075 23.3698 14.5648
v -53.6450 22.5010 14.5648
v -51.2766 21.3001 14.6991
v -45.1909 23.0610 14.8038
v -43.3669 24.4997 16.2070
v -60.6020 26.9030 14.6991
v -55.7075 24.9438 12.7385
v -55.5548 24.9438 12.7385
v -44.3637 25.8092 13.5403
v -43.1204 27.0467 14.8038
v -63.8585 32.5348 14.6991
v -62.3987 30.5348 14.6991
v -44.1491 32.1467 13.9080
v -43.2481 30.8492 15.0244
v -63.9298 34.7002 14.5002
v -63.5232 35.8983 13.0342
v -44.1491 33.7513 13.9080
v -43.2052 35.0120 15.0244
v -63.9821 38.6541 14.5002
v -63.5232 37.1548 13.0342
v -41.3350 38.8985 14.7432
v -39.2770 40.2289 16.1059
v -63.9204 42.5929 14.4265
v -62.7653 43.7195 15.5782
v -43.6596 44.8243 12.8203
v -41.8808 43.1367 14.4631
v -39.2770 41.4492 16.1059
v -63.7126 45.1398 12.9115
v -62.1383 46.6451 14.4265
v -52.0815 48.4494 13.3973
v -49.6591 48.1426 14.5013
v -45.1087 46.6234 14.2128
v -43.2988 45.4111 15.4870
v -60.4067 49.9405 14.6991
v -57.6155 51.2657 14.6991
v -53.4951 50.0913 14.7180
v -49.6591 49.0677 14.5013
v -46.5579 49.0190 12.9385
v 23.8212 -59.2585 18.6991
v 24.7409 -59.2585 18.6991
v 22.0198 -57.0970 18.6991
v 26.7409 -58.1895 18.6991
v 30.6714 -56.5453 18.9692
v 33.5840 -56.0542 17.8160
v 19.5764 -52.8418 18.6991
v 20.5832 -54.8418 18.6991
v 32.1960 -54.6655 20.4826
v 34.7042 -54.1129 18.9692
v 36.9442 -52.1906 18.6991
v 16.0515 -47.6196 17.4745
v 17.5774 -49.0106 18.7644
v 36.1720 -47.5493 16.9871
v 37.1263 -48.9684 18.4719
v 15.9238 -45.0849 18.7644
v 16.7834 -46.4101 20.1412
v 36.0538 -45.0970 17.1652
v 37.2159 -45.0970 19.1652
v 15.8200 -41.1133 18.8344
v 16.8463 -39.7908 20.2580
v 36.2695 -40.9719 18.8651
v 37.7923 -40.7611 18.6925
v 40.4555 -39.2300 17.0184
v 15.8784 -38.3315 17.5913
v 17.3750 -37.0377 18.8344
v 35.4879 -37.0970 19.7742
v 38.0658 -37.3697 17.7508
v 40.4555 -38.8848 17.0184
v 18.3758 -33.0970 18.6991
v 31.9106 -31.7142 18.6991
v 34.0683 -33.8603 18.3600
v 36.5201 -34.8795 16.8007
v 19.6374 -29.3424 18.3289
v 22.2354 -28.1450 18.3289
v 26.3845 -29.1129 18.6991
v 29.9106 -30.6096 18.6991
v 20.3399 -27.0610 16.7488
v 20.8026 -27.0610 16.7488
v -56.2969 20.3878 18.6991
v -54.1486 20.3878 18.6991
v -48.7633 20.7674 16.9434
v -47.3391 20.7674 16.9434
v -59.7610 24.6521 17.6211
v -58.4994 23.1524 18.8523
v -52.1486 21.2777 18.6991
v -49.9042 21.8113 18.4457
v -45.8923 23.2085 18.4331
v -43.3669 24.4997 17.2562
v -60.1591 26.7098 18.8523
v -59.5135 25.2477 20.2877
v -44.4454 25.5515 19.9229
v -42.7198 26.8921 18.6334
v -63.9238 32.4645 17.4537
v -62.1955 31.0399 18.7519
v -42.0826 30.9030 18.6991
v -63.9966 34.9030 17.7991
v -63.0152 34.9030 19.7991
v -42.3253 34.9030 18.6991
v -63.8383 38.9030 17.3608
v -62.6413 38.9030 19.3608
v -43.8989 40.7482 20.5990
v -41.8217 39.1552 19.1235
v -39.2770 40.2289 17.6480
v -63.7128 41.0529 16.8693
v -62.0690 42.5929 18.4012
v -44.7196 42.9030 19.8466
v -41.8255 42.8307 18.1865
v -39.2770 41.4492 17.6480
v -60.5394 47.1230 18.8672
v -59.3233 48.6030 20.3126
v -48.5798 47.8358 17.8868
v -46.1718 46.6234 18.7746
v -43.2988 45.4111 16.9959
v -60.1071 49.5672 17.6459
v -57.8402 50.2249 18.8672
v -53.6155 50.3658 18.6991
v -49.7941 49.1889 19.0117
v -47.5395 48.9680 20.5534
v 23.3825 -59.2559 22.6991
v 24.6181 -59.2559 22.6991
v 20.0971 -56.2552 23.5491
v 21.2269 -57.3919 22.4091
v 26.6181 -57.7798 22.6991
v 29.7266 -55.7798 22.6991
v 19.8419 -53.3820 22.4091
v 20.4579 -54.9053 20.8824
v 31.6440 -53.2381 22.9094
v 34.3845 -52.0938 21.7044
v 36.8704 -51.5243 21.0224
v 18.5390 -49.0970 22.6991
v 31.6960 -49.0970 24.1897
v 34.3845 -49.0970 22.7331
v 37.1165 -49.0970 21.2425
v 16.2149 -43.7434 21.5567
v 17.0281 -45.0849 22.8136
v 31.8234 -46.6423 24.3361
v 34.3991 -45.2242 23.4963
v 37.2159 -45.0970 21.4678
v 16.2149 -42.4574 21.5567
v 18.0735 -41.1093 22.7688
v 21.1656 -39.7611 23.9809
v 36.0625 -40.6788 22.3459
v 37.3113 -40.6788 22.3459
v 19.2187 -37.0970 21.7954
v 21.4545 -37.0970 23.7954
v 35.5826 -36.8955 22.3009
v 37.6199 -38.0944 23.3688
v 19.6470 -33.0970 21.8066
v 21.2152 -33.0970 23.8066
v 32.2720 -31.5014 20.9596
v 33.2600 -32.9396 22.4554
v 20.0842 -30.8393 21.3291
v 22.2617 -29.9601 22.6771
v 26.3845 -29.4651 22.6991
v 30.7170 -30.6919 22.4554
v 32.5118 -30.9605 23.6262
v -56.4693 20.2414 22.6991
v -54.6831 20.2414 22.6991
v -59.8667 24.3038 23.5861
v -58.6373 22.9435 22.4313
v -52.6831 21.7782 22.6991
v -49.6155 23.4842 22.6991
v -47.1612 24.6090 22.6991
v -59.9389 26.7098 22.4313
v -59.5135 25.2477 20.9195
v -47.8168 28.2418 24.5291
v -45.9793 26.8967 22.8513
v -42.7125 28.2182 21.1734
v -61.0133 30.9030 22.6991
v -47.8168 29.2654 24.5291
v -45.8579 30.7204 23.6115
v -42.3655 30.9030 21.4671
v -62.1090 34.9030 22.6991
v -44.9303 34.9030 23.5215
v -42.6014 34.9030 21.5215
v -60.8892 38.9189 22.5207
v -58.4471 40.2629 23.7350
v -44.0984 39.1583 22.3614
v -42.2205 39.3455 22.5424
v -39.5493 40.7580 24.3423
v -60.3200 42.9030 21.6441
v -58.1690 42.9030 23.6441
v -44.6658 43.0720 22.3658
v -41.6155 41.6746 23.5149
v -39.5493 40.9836 24.3423
v -60.1807 45.9363 21.5898
v -58.5270 47.1230 22.8335
v -46.5760 46.9030 22.6991
v -56.8250 49.7100 22.6991
v -53.6155 49.9656 22.6991
v -49.6155 49.2748 22.6991
v -47.4756 49.0192 22.6991
v 23.5852 -59.1606 24.7564
v 24.4567 -59.1606 24.7564
v 20.0971 -56.2552 25.0435
v 22.3049 -57.3919 25.2280
v 26.0278 -56.8403 25.2573
v 29.0291 -55.3358 25.0923
v 19.8997 -53.0970 25.4188
v 22.3845 -53.0970 26.2746
v 26.3845 -53.0970 26.2480
v 30.5084 -52.4754 26.3497
v 32.6252 -51.6465 27.6263
v 16.1757 -47.4417 28.0475
v 18.4170 -49.0096 26.6809
v 22.3845 -50.1501 27.6565
v 26.7438 -49.0512 27.7698
v 30.5631 -49.8089 26.7207
v 32.6252 -50.7580 27.6263
v 16.1757 -46.6237 28.0475
v 18.0547 -44.9016 26.9784
v 20.4848 -43.1795 28.5759
v 28.3166 -47.0626 28.6247
v 30.6249 -45.5191 27.1233
v 33.0755 -43.9756 25.6219
v 19.3008 -42.4278 25.9093
v 22.1585 -41.0097 26.9624
v 24.9476 -39.5916 28.0156
v 32.0931 -42.6265 28.2885
v 34.6770 -41.1092 27.0846
v 38.4363 -39.4321 26.6892
v 40.5538 -39.2723 27.4979
v 23.6141 -36.8104 26.6890
v 24.9476 -37.9527 28.0156
v 35.9736 -36.8955 27.0080
v 38.4363 -38.4449 26.6892
v 40.5538 -38.7954 27.4979
v 23.4227 -33.4225 26.7197
v 26.3845 -32.4403 27.5332
v 30.3845 -31.9842 27.2058
v 33.7136 -33.0576 26.4578
v 23.5132 -30.2890 25.4001
v 26.3845 -30.3647 25.5332
v 30.3845 -30.8683 25.2058
v 32.5118 -30.9605 24.9636
v -56.2706 20.4568 25.0079
v -55.1146 20.4568 25.0079
v -59.8667 24.3038 25.0969
v -57.6086 22.9435 25.3958
v -53.7150 22.9374 25.6241
v -49.6155 24.3913 25.8214
v -47.5132 24.8300 25.4172
v -59.8861 26.9030 25.4013
v -57.6155 26.9030 26.2541
v -53.6155 26.9030 26.7127
v -48.8315 27.3305 26.7403
v -47.5090 26.8064 26.6469
v -60.8535 30.6259 26.6222
v -57.6155 29.4212 27.6147
v -53.6155 29.9541 27.7880
v -49.0725 30.2777 26.9950
v -47.4288 30.5074 26.4249
v -61.2408 35.2797 27.0719
v -59.1728 36.8642 28.6537
v -48.4916 34.9030 27.8450
v -46.9303 34.9030 25.8450
v -60.3706 37.5962 25.9870
v -57.4766 38.6387 26.7721
v -54.7800 39.6811 27.5572
v -47.6554 36.9400 28.6193
v -45.3081 38.5876 27.2885
v -41.9457 40.2545 27.0543
v -39.3709 40.5932 26.6991
v -56.1690 42.9030 25.3832
v -54.6827 42.9030 27.3832
v -44.0247 43.0720 27.0543
v -41.9457 41.6712 27.0543
v -39.3709 41.1520 26.6991
v -56.4740 46.9030 25.6865
v -53.7706 46.8293 27.2339
v -49.6155 47.7534 26.9848
v -46.3366 46.8570 26.3828
v -56.1871 49.4193 25.2949
v -53.6155 49.3974 25.3270
v -49.6155 49.0776 24.9848
v -47.5050 48.9929 24.8386
v 31.7191 -51.6465 28.9164
v 32.6252 -51.6465 28.9164
v 16.1757 -47.4417 29.1080
v 18.3845 -47.9659 29.5184
v 22.3845 -48.1501 29.6513
v 25.6499 -47.6874 29.2851
v 31.7191 -50.7580 28.9164
v 32.6252 -50.7580 28.9164
v 16.1757 -46.6237 29.1080
v 18.3845 -45.8039 29.5184
v 22.3620 -44.5980 30.6672
v 26.5058 -45.2062 30.7745
v 29.4264 -44.3960 29.5973
v 23.3825 -40.9937 30.7125
v 26.1547 -40.9580 30.8260
v 30.4292 -41.1422 30.7270
v 33.6118 -39.9598 29.1901
v 39.2528 -39.2723 28.8479
v 40.5538 -39.2723 28.8479
v 24.2167 -37.0230 30.4145
v 25.7687 -37.0845 30.4617
v 30.2022 -37.1036 31.9523
v 33.9624 -37.0337 30.5937
v 39.2528 -38.7954 28.8479
v 40.5538 -38.7954 28.8479
v 24.3405 -34.9729 28.7742
v 26.3845 -34.4403 29.2669
v 30.6616 -33.0218 31.0128
v 33.2484 -33.0576 31.0663
v 32.3508 -31.0792 32.6445
v 32.4217 -31.0792 32.6445
v -47.9903 28.0376 28.7811
v -47.5047 28.0376 28.7811
v -60.8660 31.7745 29.4900
v -57.6155 31.4212 30.0046
v -53.6155 31.9541 29.5619
v -49.7003 30.7839 28.8404
v -47.5047 29.0827 28.7811
v -60.8660 34.1976 29.4900
v -57.7499 35.2797 29.8715
v -53.6155 34.9030 30.5175
v -50.4916 34.9030 29.6452
v -56.0684 38.9149 30.7840
v -54.1146 38.8613 30.9408
v -49.3671 38.5276 31.0042
v -46.3184 39.6067 29.5819
v -40.8325 40.6349 28.8755
v -39.3556 40.6349 28.8755
v -55.6306 40.9207 32.6556
v -53.6603 42.4542 30.9615
v -49.6990 42.6971 32.0913
v -45.7329 42.8051 30.8288
v -40.8325 41.1544 28.8755
v -39.3556 41.1544 28.8755
v -52.5406 45.4469 29.2674
v -49.6377 46.0534 30.6401
v -46.2350 45.9331 30.6991
v 24.2392 -43.3498 32.8193
v 24.6951 -43.3498 32.8193
v 24.0568 -41.0970 33.3377
v 26.1709 -41.0335 33.4973
v 28.7653 -39.6579 33.1779
v 24.0928 -38.7601 33.4304
v 26.3845 -38.4334 33.6067
v 30.2022 -37.1036 33.2446
v 32.8916 -35.6581 33.3112
v 31.8002 -33.0970 33.2092
v 32.7927 -33.0970 33.2092
v 32.3508 -31.0792 32.7671
v 32.4217 -31.0792 32.7671
v -55.6306 40.8153 32.7552
v -53.6155 40.2464 33.1959
v -51.0789 40.1152 33.3054
v -55.6306 40.9207 32.7552
v -53.6155 41.2298 33.1959
v -49.6990 42.6971 33.3773
v -46.7409 44.0732 33.4491
v -48.3191 45.6864 33.4491
v -46.7409 45.6864 33.4491
f 5 1 4
f 5 2 1
f 8 3 7
f 8 4 3
f 9 4 8
f 9 5 4
f 11 6 10
f 11 7 6
f 14 10 13
f 14 11 10
f 16 12 15
f 16 13 12
f 21 17 20
f 21 18 17
f 21 19 18
f 21 22 19
f 25 21 20
f 25 26 21
f 27 21 26
f 27 22 21
f 28 24 23
f 28 29 24
f 2 30 1
f 2 31 30
f 36 1 30
f 36 4 1
f 36 3 4
f 36 35 3
f 31 2 5
f 31 5 37
f 36 30 31
f 36 31 37
f 39 32 38
f 39 33 32
f 39 34 33
f 39 40 34
f 41 3 35
f 41 7 3
f 41 6 7
f 41 40 6
f 40 35 34
f 40 41 35
f 42 8 7
f 42 7 41
f 37 5 9
f 37 9 43
f 9 8 42
f 9 42 43
f 44 39 38
f 44 45 39
f 46 6 40
f 46 10 6
f 46 39 45
f 46 40 39
f 47 41 7
f 47 7 11
f 47 42 41
f 47 48 42
f 49 42 48
f 49 43 42
f 46 13 10
f 46 51 13
f 51 12 13
f 51 50 12
f 50 46 45
f 50 51 46
f 47 11 14
f 47 14 52
f 14 13 51
f 14 51 52
f 53 47 52
f 53 48 47
f 54 48 53
f 54 49 48
f 50 15 12
f 50 55 15
f 51 13 16
f 51 16 56
f 16 15 55
f 16 55 56
f 57 51 56
f 57 52 51
f 58 52 57
f 58 53 52
f 60 55 59
f 60 56 55
f 65 17 18
f 65 64 17
f 19 65 18
f 19 66 65
f 68 62 61
f 68 69 62
f 71 17 64
f 71 20 17
f 71 63 70
f 71 64 63
f 72 66 19
f 72 19 22
f 74 67 73
f 74 68 67
f 74 69 68
f 74 75 69
f 76 23 24
f 76 75 23
f 75 70 69
f 75 76 70
f 71 25 20
f 71 77 25
f 76 71 70
f 76 77 71
f 78 26 25
f 78 25 77
f 72 22 27
f 72 27 79
f 79 27 26
f 79 26 78
f 81 23 75
f 81 28 23
f 80 75 74
f 80 81 75
f 82 76 24
f 82 24 29
f 82 29 28
f 82 28 81
f 82 77 76
f 82 83 77
f 83 78 77
f 83 84 78
f 86 80 85
f 86 81 80
f 86 82 81
f 86 87 82
f 88 82 87
f 88 83 82
f 89 83 88
f 89 84 83
f 91 85 90
f 91 86 85
f 92 86 91
f 92 87 86
f 94 90 93
f 94 91 90
f 99 95 98
f 99 96 95
f 103 97 102
f 103 98 97
f 103 99 98
f 103 104 99
f 107 32 33
f 107 106 32
f 107 100 106
f 107 101 100
f 34 107 33
f 34 108 107
f 108 101 107
f 108 102 101
f 109 34 35
f 109 108 34
f 110 35 36
f 110 109 35
f 109 104 103
f 109 110 104
f 37 110 36
f 37 111 110
f 110 105 104
f 110 111 105
f 114 32 106
f 114 38 32
f 116 111 37
f 116 37 43
f 116 112 111
f 116 117 112
f 117 113 112
f 117 118 113
f 114 44 38
f 114 121 44
f 122 45 44
f 122 44 121
f 121 114 115
f 121 115 122
f 116 43 49
f 116 49 123
f 123 117 116
f 123 124 117
f 124 118 117
f 124 125 118
f 125 119 118
f 125 126 119
f 128 120 127
f 128 121 120
f 129 45 122
f 129 50 45
f 129 121 128
f 129 122 121
f 123 49 54
f 123 54 131
f 54 53 130
f 54 130 131
f 132 123 131
f 132 124 123
f 133 126 125
f 133 134 126
f 129 55 50
f 129 136 55
f 135 129 128
f 135 136 129
f 57 56 137
f 57 137 138
f 130 53 58
f 130 58 139
f 58 57 138
f 58 138 139
f 140 130 139
f 140 131 130
f 141 131 140
f 141 132 131
f 142 134 133
f 142 143 134
f 136 59 55
f 136 145 59
f 144 136 135
f 144 145 136
f 137 56 60
f 137 60 146
f 146 60 59
f 146 59 145
f 147 137 146
f 147 138 137
f 148 138 147
f 148 139 138
f 149 139 148
f 149 140 139
f 150 146 145
f 150 151 146
f 152 146 151
f 152 147 146
f 157 153 156
f 157 154 153
f 62 159 61
f 62 160 159
f 161 155 160
f 161 156 155
f 162 63 64
f 162 161 63
f 161 157 156
f 161 162 157
f 163 64 65
f 163 162 64
f 164 65 66
f 164 163 65
f 168 61 159
f 168 68 61
f 168 67 68
f 168 167 67
f 168 158 167
f 168 159 158
f 169 160 62
f 169 62 69
f 170 63 161
f 170 70 63
f 70 169 69
f 70 170 169
f 164 66 72
f 164 72 171
f 173 166 165
f 173 174 166
f 175 67 167
f 175 73 67
f 176 74 73
f 176 73 175
f 171 72 79
f 171 79 178
f 79 78 177
f 79 177 178
f 178 172 171
f 178 179 172
f 176 80 74
f 176 183 80
f 177 78 84
f 177 84 184
f 185 177 184
f 185 178 177
f 185 179 178
f 185 186 179
f 186 180 179
f 186 187 180
f 188 182 181
f 188 189 182
f 190 80 183
f 190 85 80
f 190 182 189
f 190 183 182
f 88 87 191
f 88 191 192
f 184 84 89
f 184 89 193
f 89 88 192
f 89 192 193
f 194 184 193
f 194 185 184
f 195 187 186
f 195 196 187
f 190 90 85
f 190 198 90
f 197 190 189
f 197 198 190
f 191 87 92
f 191 92 200
f 92 91 199
f 92 199 200
f 201 191 200
f 201 192 191
f 202 192 201
f 202 193 192
f 203 193 202
f 203 194 193
f 204 196 195
f 204 205 196
f 198 93 90
f 198 207 93
f 206 198 197
f 206 207 198
f 199 91 94
f 199 94 208
f 208 94 93
f 208 93 207
f 209 199 208
f 209 200 199
f 211 201 210
f 211 202 201
f 96 212 95
f 96 213 212
f 217 95 212
f 217 98 95
f 217 97 98
f 217 216 97
f 213 96 99
f 213 99 218
f 217 212 213
f 217 213 218
f 223 100 101
f 223 222 100
f 223 214 222
f 223 215 214
f 224 97 216
f 224 102 97
f 224 101 102
f 224 223 101
f 223 216 215
f 223 224 216
f 225 103 102
f 225 102 224
f 226 218 99
f 226 99 104
f 105 226 104
f 105 227 226
f 228 219 227
f 228 220 219
f 231 100 222
f 231 106 100
f 231 221 230
f 231 222 221
f 232 224 102
f 232 102 108
f 233 103 225
f 233 109 103
f 109 232 108
f 109 233 232
f 232 225 224
f 232 233 225
f 234 227 105
f 234 105 111
f 112 234 111
f 112 235 234
f 234 228 227
f 234 235 228
f 236 112 113
f 236 235 112
f 238 229 237
f 238 230 229
f 239 106 231
f 239 114 106
f 238 231 230
f 238 239 231
f 240 115 114
f 240 114 239
f 236 113 118
f 236 118 242
f 241 235 236
f 241 236 242
f 243 118 119
f 243 242 118
f 244 238 237
f 244 245 238
f 246 120 121
f 246 245 120
f 246 238 245
f 246 239 238
f 247 115 240
f 247 122 115
f 247 121 122
f 247 246 121
f 246 240 239
f 246 247 240
f 125 124 248
f 125 248 249
f 250 243 119
f 250 119 126
f 245 127 120
f 245 252 127
f 252 244 251
f 252 245 244
f 253 128 127
f 253 127 252
f 248 124 132
f 248 132 254
f 249 133 125
f 249 255 133
f 255 248 254
f 255 249 248
f 256 250 126
f 256 126 134
f 257 252 251
f 257 258 252
f 253 135 128
f 253 259 135
f 258 253 252
f 258 259 253
f 254 132 141
f 254 141 261
f 141 140 260
f 141 260 261
f 255 142 133
f 255 262 142
f 262 254 261
f 262 255 254
f 256 134 143
f 256 143 263
f 263 143 142
f 263 142 262
f 259 144 135
f 259 265 144
f 264 259 258
f 264 265 259
f 266 145 144
f 266 144 265
f 269 148 147
f 269 147 268
f 260 140 149
f 260 149 270
f 149 148 269
f 149 269 270
f 271 260 270
f 271 261 260
f 272 261 271
f 272 262 261
f 266 150 145
f 266 273 150
f 151 150 273
f 151 273 274
f 268 147 152
f 268 152 275
f 275 152 151
f 275 151 274
f 275 274 267
f 275 267 268
f 278 153 154
f 278 277 153
f 284 153 277
f 284 156 153
f 284 155 156
f 284 283 155
f 284 276 283
f 284 277 276
f 278 154 157
f 278 157 285
f 287 279 286
f 287 280 279
f 289 158 159
f 289 288 158
f 289 281 288
f 289 282 281
f 290 155 283
f 290 160 155
f 160 289 159
f 160 290 289
f 289 283 282
f 289 290 283
f 291 161 160
f 291 160 290
f 292 285 157
f 292 157 162
f 163 292 162
f 163 293 292
f 294 163 164
f 294 293 163
f 293 287 286
f 293 294 287
f 166 295 165
f 166 296 295
f 297 158 288
f 297 167 158
f 298 290 160
f 298 160 169
f 291 170 161
f 291 299 170
f 170 298 169
f 170 299 298
f 298 291 290
f 298 299 291
f 300 294 164
f 300 164 171
f 172 300 171
f 172 301 300
f 295 173 165
f 295 303 173
f 296 166 174
f 296 174 304
f 174 173 303
f 174 303 304
f 305 167 297
f 305 175 167
f 305 296 304
f 305 297 296
f 306 176 175
f 306 175 305
f 307 301 172
f 307 172 179
f 180 307 179
f 180 308 307
f 307 302 301
f 307 308 302
f 311 181 182
f 311 310 181
f 310 305 304
f 310 311 305
f 312 176 306
f 312 183 176
f 312 182 183
f 312 311 182
f 311 306 305
f 311 312 306
f 186 185 313
f 186 313 314
f 315 308 180
f 315 180 187
f 317 181 310
f 317 188 181
f 317 309 316
f 317 310 309
f 318 189 188
f 318 188 317
f 313 185 194
f 313 194 319
f 314 195 186
f 314 320 195
f 319 314 313
f 319 320 314
f 315 187 196
f 315 196 321
f 322 317 316
f 322 323 317
f 318 197 189
f 318 324 197
f 323 318 317
f 323 324 318
f 201 200 325
f 201 325 326
f 319 194 203
f 319 203 328
f 203 202 327
f 203 327 328
f 320 204 195
f 320 329 204
f 329 319 328
f 329 320 319
f 330 321 196
f 330 196 205
f 330 205 204
f 330 204 329
f 324 206 197
f 324 332 206
f 331 324 323
f 331 332 324
f 333 207 206
f 333 206 332
f 208 207 333
f 208 333 334
f 325 200 209
f 325 209 335
f 209 208 334
f 209 334 335
f 326 210 201
f 326 336 210
f 336 325 335
f 336 326 325
f 327 202 211
f 327 211 337
f 211 210 336
f 211 336 337
f 338 327 337
f 338 328 327
f 340 214 215
f 340 339 214
f 341 215 216
f 341 340 215
f 217 341 216
f 217 342 341
f 218 342 217
f 218 343 342
f 220 344 219
f 220 345 344
f 348 214 339
f 348 222 214
f 348 221 222
f 348 347 221
f 349 343 218
f 349 218 226
f 350 219 344
f 350 227 219
f 350 226 227
f 350 349 226
f 349 344 343
f 349 350 344
f 345 220 228
f 345 228 351
f 351 346 345
f 351 352 346
f 354 221 347
f 354 230 221
f 354 229 230
f 354 353 229
f 355 354 347
f 355 347 348
f 357 351 228
f 357 228 235
f 358 229 353
f 358 237 229
f 357 235 241
f 357 241 360
f 360 359 356
f 360 356 357
f 361 241 242
f 361 360 241
f 243 361 242
f 243 362 361
f 358 244 237
f 358 363 244
f 364 362 243
f 364 243 250
f 363 251 244
f 363 365 251
f 364 250 256
f 364 256 367
f 368 251 365
f 368 257 251
f 369 258 257
f 369 257 368
f 368 365 366
f 368 366 369
f 367 256 263
f 367 263 371
f 263 262 370
f 263 370 371
f 369 264 258
f 369 372 264
f 373 265 264
f 373 264 372
f 374 266 265
f 374 265 373
f 376 268 267
f 376 267 375
f 269 268 376
f 269 376 377
f 378 270 269
f 378 269 377
f 271 270 378
f 271 378 379
f 370 262 272
f 370 272 380
f 272 271 379
f 272 379 380
f 381 370 380
f 381 371 370
f 382 373 372
f 382 383 373
f 374 273 266
f 374 384 273
f 383 374 373
f 383 384 374
f 375 267 274
f 375 274 385
f 385 274 273
f 385 273 384
f 386 375 385
f 386 376 375
f 386 377 376
f 386 387 377
f 388 377 387
f 388 378 377
f 389 378 388
f 389 379 378
f 390 379 389
f 390 380 379
f 392 387 391
f 392 388 387
f 277 393 276
f 277 394 393
f 395 277 278
f 395 394 277
f 280 396 279
f 280 397 396
f 399 281 282
f 399 398 281
f 400 276 393
f 400 283 276
f 400 282 283
f 400 399 282
f 401 400 393
f 401 393 394
f 402 395 278
f 402 278 285
f 396 286 279
f 396 403 286
f 397 280 287
f 397 287 404
f 404 403 396
f 404 396 397
f 406 281 398
f 406 288 281
f 407 402 285
f 407 285 292
f 408 286 403
f 408 293 286
f 408 292 293
f 408 407 292
f 408 402 407
f 408 403 402
f 409 404 287
f 409 287 294
f 409 405 404
f 409 410 405
f 296 411 295
f 296 412 411
f 413 288 406
f 413 297 288
f 297 412 296
f 297 413 412
f 409 294 300
f 409 300 414
f 415 300 301
f 415 414 300
f 302 415 301
f 302 416 415
f 417 295 411
f 417 303 295
f 418 304 303
f 418 303 417
f 419 414 415
f 419 415 420
f 421 416 302
f 421 302 308
f 420 415 416
f 420 416 421
f 418 310 304
f 418 423 310
f 423 309 310
f 423 422 309
f 422 418 417
f 422 423 418
f 424 421 308
f 424 308 315
f 425 309 422
f 425 316 309
f 426 425 422
f 426 422 423
f 424 315 321
f 424 321 427
f 428 316 425
f 428 322 316
f 429 323 322
f 429 322 428
f 428 425 426
f 428 426 429
f 329 328 430
f 329 430 431
f 427 321 330
f 427 330 432
f 330 329 431
f 330 431 432
f 429 331 323
f 429 434 331
f 435 332 331
f 435 331 434
f 436 333 332
f 436 332 435
f 334 333 436
f 334 436 437
f 438 335 334
f 438 334 437
f 439 336 335
f 439 335 438
f 337 336 439
f 337 439 440
f 430 328 338
f 430 338 441
f 338 337 440
f 338 440 441
f 442 430 441
f 442 431 430
f 443 431 442
f 443 432 431
f 443 433 432
f 443 444 433
f 445 437 436
f 445 446 437
f 447 439 438
f 447 448 439
f 449 439 448
f 449 440 439
f 450 440 449
f 450 441 440
f 452 448 451
f 452 449 448
f 340 458 339
f 340 459 458
f 459 453 458
f 459 454 453
f 460 340 341
f 460 459 340
f 459 455 454
f 459 460 455
f 342 460 341
f 342 461 460
f 462 342 343
f 462 461 342
f 461 457 456
f 461 462 457
f 463 343 344
f 463 462 343
f 345 463 344
f 345 464 463
f 346 464 345
f 346 465 464
f 468 339 458
f 468 348 339
f 469 468 458
f 469 458 459
f 465 346 352
f 465 352 471
f 352 351 470
f 352 470 471
f 470 464 465
f 470 465 471
f 475 353 354
f 475 474 353
f 474 467 466
f 474 475 467
f 468 355 348
f 468 476 355
f 355 475 354
f 355 476 475
f 477 476 468
f 477 468 469
f 479 470 351
f 479 351 357
f 479 357 356
f 479 356 478
f 479 471 470
f 479 480 471
f 480 472 471
f 480 481 472
f 481 473 472
f 481 482 473
f 483 353 474
f 483 358 353
f 484 478 356
f 484 356 359
f 485 359 360
f 485 484 359
f 486 360 361
f 486 485 360
f 362 486 361
f 362 487 486
f 486 481 480
f 486 487 481
f 488 481 487
f 488 482 481
f 489 358 483
f 489 363 358
f 487 362 364
f 487 364 490
f 491 487 490
f 491 488 487
f 492 363 489
f 492 365 363
f 366 365 492
f 366 492 493
f 494 490 364
f 494 364 367
f 495 366 493
f 495 369 366
f 496 494 367
f 496 367 371
f 495 372 369
f 495 497 372
f 496 371 381
f 496 381 501
f 381 380 500
f 381 500 501
f 497 382 372
f 497 502 382
f 383 382 502
f 383 502 503
f 502 497 498
f 502 498 503
f 504 384 383
f 504 383 503
f 505 385 384
f 505 384 504
f 386 385 505
f 386 505 506
f 507 387 386
f 507 386 506
f 509 389 388
f 509 388 508
f 500 380 390
f 500 390 510
f 510 390 389
f 510 389 509
f 510 509 499
f 510 499 500
f 511 505 504
f 511 512 505
f 513 505 512
f 513 506 505
f 514 387 507
f 514 391 387
f 515 508 388
f 515 388 392
f 392 391 514
f 392 514 515
f 515 514 507
f 515 507 508
f 395 518 394
f 395 519 518
f 399 520 398
f 399 521 520
f 522 399 400
f 522 521 399
f 522 516 521
f 522 517 516
f 518 401 394
f 518 523 401
f 401 522 400
f 401 523 522
f 524 519 395
f 524 395 402
f 525 402 403
f 525 524 402
f 404 525 403
f 404 526 525
f 405 526 404
f 405 527 526
f 520 406 398
f 520 530 406
f 531 530 520
f 531 520 521
f 527 405 410
f 527 410 533
f 410 409 532
f 410 532 533
f 532 526 527
f 532 527 533
f 412 536 411
f 412 537 536
f 536 529 528
f 536 537 529
f 530 413 406
f 530 538 413
f 413 537 412
f 413 538 537
f 539 538 530
f 539 530 531
f 541 532 409
f 541 409 414
f 542 532 541
f 542 533 532
f 542 534 533
f 542 543 534
f 544 534 543
f 544 535 534
f 545 411 536
f 545 417 411
f 541 414 419
f 541 419 547
f 547 546 540
f 547 540 541
f 548 419 420
f 548 547 419
f 421 548 420
f 421 549 548
f 548 543 542
f 548 549 543
f 551 417 545
f 551 422 417
f 552 423 422
f 552 422 551
f 553 549 421
f 553 421 424
f 553 550 549
f 553 554 550
f 552 426 423
f 552 556 426
f 555 552 551
f 555 556 552
f 553 424 427
f 553 427 557
f 558 553 557
f 558 554 553
f 556 429 426
f 556 559 429
f 560 557 427
f 560 427 432
f 433 560 432
f 433 561 560
f 559 434 429
f 559 562 434
f 435 434 562
f 435 562 563
f 564 436 435
f 564 435 563
f 438 437 565
f 438 565 566
f 442 441 568
f 442 568 569
f 570 443 442
f 570 442 569
f 561 433 444
f 561 444 571
f 571 444 443
f 571 443 570
f 571 570 560
f 571 560 561
f 564 445 436
f 564 572 445
f 565 437 446
f 565 446 573
f 446 445 572
f 446 572 573
f 566 447 438
f 566 574 447
f 574 565 573
f 574 566 565
f 575 448 447
f 575 447 574
f 568 441 450
f 568 450 577
f 577 450 449
f 577 449 576
f 577 576 567
f 577 567 568
f 579 572 578
f 579 573 572
f 580 448 575
f 580 451 448
f 581 576 449
f 581 449 452
f 452 451 580
f 452 580 581
f 581 580 575
f 581 575 576
f 454 582 453
f 454 583 582
f 455 583 454
f 455 584 583
f 586 456 457
f 586 585 456
f 582 458 453
f 582 587 458
f 459 458 587
f 459 587 588
f 588 587 582
f 588 582 583
f 589 584 455
f 589 455 460
f 589 588 583
f 589 583 584
f 590 456 585
f 590 461 456
f 461 589 460
f 461 590 589
f 589 585 584
f 589 590 585
f 591 586 457
f 591 457 462
f 590 585 586
f 590 586 591
f 592 462 463
f 592 591 462
f 593 463 464
f 593 592 463
f 467 594 466
f 467 595 594
f 597 459 588
f 597 469 459
f 597 587 596
f 597 588 587
f 593 464 470
f 593 470 599
f 598 592 593
f 598 593 599
f 600 470 471
f 600 599 470
f 472 600 471
f 472 601 600
f 473 601 472
f 473 602 601
f 604 466 594
f 604 474 466
f 605 595 467
f 605 467 475
f 476 605 475
f 476 606 605
f 607 469 597
f 607 477 469
f 607 476 477
f 607 606 476
f 607 596 606
f 607 597 596
f 609 479 478
f 609 478 608
f 610 480 479
f 610 479 609
f 611 602 473
f 611 473 482
f 612 602 611
f 612 603 602
f 613 474 604
f 613 483 474
f 615 614 605
f 615 605 606
f 616 608 478
f 616 478 484
f 617 484 485
f 617 616 484
f 616 609 608
f 616 617 609
f 618 480 610
f 618 486 480
f 618 485 486
f 618 617 485
f 617 610 609
f 617 618 610
f 611 482 488
f 611 488 619
f 619 612 611
f 619 620 612
f 613 489 483
f 613 621 489
f 619 488 491
f 619 491 624
f 491 490 623
f 491 623 624
f 625 619 624
f 625 620 619
f 626 489 621
f 626 492 489
f 493 492 626
f 493 626 627
f 626 621 622
f 626 622 627
f 623 490 494
f 623 494 630
f 631 493 627
f 631 495 493
f 631 627 628
f 631 628 632
f 632 628 629
f 632 629 633
f 637 630 494
f 637 494 496
f 638 495 631
f 638 497 495
f 498 497 638
f 498 638 639
f 638 631 632
f 638 632 639
f 639 632 633
f 639 633 640
f 642 641 634
f 642 634 635
f 644 500 499
f 644 499 643
f 645 637 496
f 645 496 501
f 645 501 500
f 645 500 644
f 645 644 636
f 645 636 637
f 646 498 639
f 646 503 498
f 504 503 646
f 504 646 647
f 646 639 640
f 646 640 647
f 648 647 640
f 648 640 641
f 648 641 642
f 648 642 649
f 507 506 649
f 507 649 650
f 508 507 650
f 508 650 651
f 652 643 499
f 652 499 509
f 652 509 508
f 652 508 651
f 653 504 647
f 653 511 504
f 512 511 653
f 512 653 654
f 653 647 648
f 653 648 654
f 655 649 506
f 655 506 513
f 513 512 654
f 513 654 655
f 655 654 648
f 655 648 649
f 517 656 516
f 517 657 656
f 659 518 519
f 659 658 518
f 660 516 656
f 660 521 516
f 661 657 517
f 661 517 522
f 662 518 658
f 662 523 518
f 523 661 522
f 523 662 661
f 661 658 657
f 661 662 658
f 659 519 524
f 659 524 663
f 525 663 524
f 525 664 663
f 665 525 526
f 665 664 525
f 529 666 528
f 529 667 666
f 660 531 521
f 660 669 531
f 671 665 526
f 671 526 532
f 670 664 665
f 670 665 671
f 672 532 533
f 672 671 532
f 534 672 533
f 534 673 672
f 535 673 534
f 535 674 673
f 676 528 666
f 676 536 528
f 677 667 529
f 677 529 537
f 538 677 537
f 538 678 677
f 669 539 531
f 669 679 539
f 539 678 538
f 539 679 678
f 679 668 678
f 679 669 668
f 681 541 540
f 681 540 680
f 682 542 541
f 682 541 681
f 684 674 535
f 684 535 544
f 544 543 683
f 544 683 684
f 685 674 684
f 685 675 674
f 676 545 536
f 676 686 545
f 688 687 678
f 688 678 679
f 680 540 546
f 680 546 689
f 690 546 547
f 690 689 546
f 690 680 689
f 690 681 680
f 682 548 542
f 682 691 548
f 691 547 548
f 691 690 547
f 690 682 681
f 690 691 682
f 692 683 543
f 692 543 549
f 550 692 549
f 550 693 692
f 693 683 692
f 693 684 683
f 694 684 693
f 694 685 684
f 695 545 686
f 695 551 545
f 698 693 550
f 698 550 554
f 699 693 698
f 699 694 693
f 700 551 695
f 700 555 551
f 556 555 700
f 556 700 701
f 700 695 696
f 700 696 701
f 705 698 554
f 705 554 558
f 705 558 557
f 705 557 704
f 705 704 697
f 705 697 698
f 706 556 701
f 706 559 556
f 706 701 702
f 706 702 707
f 707 702 703
f 707 703 708
f 712 704 557
f 712 557 560
f 713 559 706
f 713 562 559
f 714 563 562
f 714 562 713
f 713 706 707
f 713 707 714
f 564 563 714
f 564 714 715
f 714 707 708
f 714 708 715
f 715 708 709
f 715 709 716
f 716 709 710
f 716 710 717
f 568 567 718
f 568 718 719
f 569 568 719
f 569 719 720
f 721 712 560
f 721 560 570
f 721 570 569
f 721 569 720
f 721 720 711
f 721 711 712
f 722 564 715
f 722 572 564
f 722 715 716
f 722 716 723
f 574 573 723
f 574 723 724
f 724 723 716
f 724 716 717
f 575 574 724
f 575 724 725
f 726 718 567
f 726 567 576
f 576 575 725
f 576 725 726
f 727 718 726
f 727 719 718
f 722 578 572
f 722 728 578
f 723 573 579
f 723 579 729
f 579 578 728
f 579 728 729
f 729 728 722
f 729 722 723
f 585 731 584
f 585 732 731
f 588 737 587
f 588 738 737
f 739 584 731
f 739 589 584
f 739 588 589
f 739 738 588
f 739 730 738
f 739 731 730
f 740 732 585
f 740 585 590
f 591 740 590
f 591 741 740
f 740 733 732
f 740 741 733
f 742 591 592
f 742 741 591
f 744 734 743
f 744 735 734
f 744 736 735
f 744 745 736
f 595 745 594
f 595 746 745
f 737 596 587
f 737 747 596
f 742 592 598
f 742 598 749
f 748 741 742
f 748 742 749
f 750 598 599
f 750 749 598
f 751 599 600
f 751 750 599
f 601 751 600
f 601 752 751
f 602 752 601
f 602 753 752
f 603 753 602
f 603 754 753
f 755 744 743
f 755 756 744
f 757 594 745
f 757 604 594
f 756 745 744
f 756 757 745
f 746 595 605
f 746 605 758
f 757 745 746
f 757 746 758
f 759 596 747
f 759 606 596
f 759 746 758
f 759 747 746
f 760 750 751
f 760 751 761
f 762 761 751
f 762 751 752
f 762 752 753
f 762 753 763
f 764 754 603
f 764 603 612
f 763 753 754
f 763 754 764
f 766 604 757
f 766 613 604
f 765 757 756
f 765 766 757
f 758 605 614
f 758 614 767
f 759 615 606
f 759 768 615
f 768 614 615
f 768 767 614
f 770 769 761
f 770 761 762
f 771 770 762
f 771 762 763
f 764 612 620
f 764 620 772
f 772 771 763
f 772 763 764
f 766 621 613
f 766 774 621
f 622 621 774
f 622 774 775
f 778 769 770
f 778 770 779
f 780 624 623
f 780 623 779
f 780 779 770
f 780 770 771
f 772 620 625
f 772 625 781
f 625 624 780
f 625 780 781
f 781 780 771
f 781 771 772
f 783 773 782
f 783 774 773
f 784 622 775
f 784 627 622
f 628 627 784
f 628 784 785
f 784 775 776
f 784 776 785
f 629 628 785
f 629 785 786
f 790 789 777
f 790 777 778
f 791 779 623
f 791 623 630
f 791 790 778
f 791 778 779
f 792 629 786
f 792 633 629
f 792 786 787
f 792 787 793
f 794 635 634
f 794 634 793
f 795 788 789
f 795 789 796
f 796 789 790
f 796 790 797
f 798 791 630
f 798 630 637
f 798 637 636
f 798 636 797
f 798 797 790
f 798 790 791
f 799 633 792
f 799 640 633
f 800 793 634
f 800 634 641
f 641 640 799
f 641 799 800
f 800 799 792
f 800 792 793
f 801 635 794
f 801 642 635
f 803 797 636
f 803 636 644
f 803 644 643
f 803 643 802
f 803 802 796
f 803 796 797
f 804 642 801
f 804 649 642
f 650 649 804
f 650 804 805
f 651 650 805
f 651 805 806
f 807 802 643
f 807 643 652
f 807 652 651
f 807 651 806
f 808 805 804
f 808 809 805
f 810 805 809
f 810 806 805
f 814 656 657
f 814 813 656
f 815 657 658
f 815 814 657
f 659 815 658
f 659 816 815
f 819 811 818
f 819 812 811
f 821 656 813
f 821 660 656
f 816 659 663
f 816 663 822
f 823 663 664
f 823 822 663
f 825 817 824
f 825 818 817
f 825 819 818
f 825 826 819
f 827 666 667
f 827 826 666
f 829 660 821
f 829 669 660
f 829 668 669
f 829 828 668
f 829 820 828
f 829 821 820
f 823 664 670
f 823 670 831
f 830 822 823
f 830 823 831
f 832 670 671
f 832 831 670
f 833 671 672
f 833 832 671
f 834 672 673
f 834 833 672
f 835 673 674
f 835 834 673
f 675 835 674
f 675 836 835
f 838 666 826
f 838 676 666
f 837 826 825
f 837 838 826
f 827 667 677
f 827 677 839
f 840 668 828
f 840 678 668
f 840 677 678
f 840 839 677
f 841 679 678
f 841 678 840
f 844 832 833
f 844 833 845
f 846 845 833
f 846 833 834
f 847 846 834
f 847 834 835
f 836 675 685
f 836 685 848
f 847 835 836
f 847 836 848
f 838 686 676
f 838 850 686
f 849 838 837
f 849 850 838
f 840 678 687
f 840 687 852
f 852 851 839
f 852 839 840
f 841 688 679
f 841 853 688
f 853 687 688
f 853 852 687
f 853 840 852
f 853 841 840
f 854 842 843
f 854 843 855
f 856 845 846
f 856 846 857
f 858 857 846
f 858 846 847
f 848 685 694
f 848 694 859
f 859 858 847
f 859 847 848
f 850 695 686
f 850 861 695
f 862 696 695
f 862 695 861
f 862 861 850
f 862 850 851
f 863 862 851
f 863 851 852
f 867 866 856
f 867 856 857
f 868 698 697
f 868 697 867
f 868 867 857
f 868 857 858
f 869 859 694
f 869 694 699
f 699 698 868
f 699 868 869
f 869 868 858
f 869 858 859
f 871 860 870
f 871 861 860
f 872 696 862
f 872 701 696
f 702 701 872
f 702 872 873
f 872 862 863
f 872 863 873
f 703 702 873
f 703 873 874
f 873 863 864
f 873 864 874
f 877 876 865
f 877 865 866
f 878 867 697
f 878 697 704
f 878 877 866
f 878 866 867
f 879 703 874
f 879 708 703
f 709 708 879
f 709 879 880
f 879 874 875
f 879 875 880
f 710 709 880
f 710 880 881
f 883 876 877
f 883 877 884
f 885 878 704
f 885 704 712
f 885 712 711
f 885 711 884
f 885 884 877
f 885 877 878
f 881 717 710
f 881 886 717
f 886 881 882
f 886 882 887
f 889 884 711
f 889 711 720
f 889 720 719
f 889 719 888
f 889 888 883
f 889 883 884
f 890 717 886
f 890 724 717
f 725 724 890
f 725 890 891
f 892 726 725
f 892 725 891
f 888 719 727
f 888 727 893
f 893 727 726
f 893 726 892
f 895 891 894
f 895 892 891
f 897 730 731
f 897 896 730
f 732 897 731
f 732 898 897
f 733 898 732
f 733 899 898
f 735 900 734
f 735 901 900
f 902 735 736
f 902 901 735
f 896 738 730
f 896 904 738
f 738 903 737
f 738 904 903
f 905 904 896
f 905 896 897
f 905 897 898
f 905 898 906
f 907 899 733
f 907 733 741
f 907 906 898
f 907 898 899
f 900 743 734
f 900 908 743
f 909 908 900
f 909 900 901
f 910 902 736
f 910 736 745
f 903 747 737
f 903 912 747
f 747 911 746
f 747 912 911
f 913 912 903
f 913 903 904
f 907 741 748
f 907 748 914
f 915 748 749
f 915 914 748
f 916 749 750
f 916 915 749
f 908 755 743
f 908 917 755
f 918 756 755
f 918 755 917
f 919 910 745
f 919 745 757
f 911 758 746
f 911 920 758
f 758 919 757
f 758 920 919
f 919 911 910
f 919 920 911
f 921 759 758
f 921 758 920
f 921 920 911
f 921 911 912
f 923 914 915
f 923 915 924
f 916 750 760
f 916 760 925
f 924 915 916
f 924 916 925
f 926 760 761
f 926 925 760
f 918 765 756
f 918 928 765
f 927 918 917
f 927 928 918
f 929 766 765
f 929 765 928
f 920 758 767
f 920 767 930
f 921 768 759
f 921 931 768
f 931 767 768
f 931 930 767
f 930 921 920
f 930 931 921
f 933 932 922
f 933 922 923
f 933 923 924
f 933 924 934
f 934 924 925
f 934 925 935
f 926 761 769
f 926 769 936
f 935 925 926
f 935 926 936
f 937 928 927
f 937 938 928
f 929 774 766
f 929 939 774
f 939 773 774
f 939 938 773
f 938 929 928
f 938 939 929
f 775 774 939
f 775 939 940
f 776 775 940
f 776 940 941
f 941 940 930
f 941 930 931
f 942 932 933
f 942 933 943
f 943 933 934
f 943 934 944
f 945 944 934
f 945 934 935
f 946 936 769
f 946 769 778
f 946 778 777
f 946 777 945
f 946 945 935
f 946 935 936
f 938 782 773
f 938 948 782
f 947 938 937
f 947 948 938
f 939 774 783
f 939 783 949
f 949 783 782
f 949 782 948
f 949 940 939
f 949 950 940
f 951 776 941
f 951 785 776
f 951 940 950
f 951 941 940
f 952 786 785
f 952 785 951
f 787 786 952
f 787 952 953
f 955 943 944
f 955 944 956
f 957 945 777
f 957 777 789
f 957 789 788
f 957 788 956
f 957 956 944
f 957 944 945
f 958 949 948
f 958 959 949
f 960 949 959
f 960 950 949
f 961 787 953
f 961 793 787
f 794 793 961
f 794 961 962
f 961 953 954
f 961 954 962
f 964 956 788
f 964 788 795
f 965 795 796
f 965 964 795
f 966 794 962
f 966 801 794
f 966 962 963
f 966 963 967
f 968 967 963
f 968 963 964
f 965 796 802
f 965 802 969
f 968 964 965
f 968 965 969
f 966 804 801
f 966 970 804
f 970 966 967
f 970 967 971
f 972 971 967
f 972 967 968
f 969 802 807
f 969 807 973
f 973 807 806
f 973 806 972
f 973 972 968
f 973 968 969
f 970 808 804
f 970 974 808
f 975 809 808
f 975 808 974
f 974 970 971
f 974 971 975
f 976 972 806
f 976 806 810
f 976 810 809
f 976 809 975
f 976 975 971
f 976 971 972
f 812 977 811
f 812 978 977
f 980 813 814
f 980 979 813
f 815 980 814
f 815 981 980
f 982 815 816
f 982 981 815
f 977 818 811
f 977 984 818
f 984 817 818
f 984 983 817
f 978 812 819
f 978 819 985
f 985 984 977
f 985 977 978
f 979 821 813
f 979 987 821
f 987 820 821
f 987 986 820
f 988 982 816
f 988 816 822
f 983 824 817
f 983 989 824
f 990 825 824
f 990 824 989
f 990 989 983
f 990 983 984
f 991 985 819
f 991 819 826
f 827 991 826
f 827 992 991
f 986 828 820
f 986 993 828
f 994 993 986
f 994 986 987
f 988 822 830
f 988 830 995
f 996 830 831
f 996 995 830
f 997 831 832
f 997 996 831
f 999 825 990
f 999 837 825
f 998 990 989
f 998 999 990
f 1000 992 827
f 1000 827 839
f 1001 828 993
f 1001 840 828
f 1001 992 1000
f 1001 993 992
f 1003 843 842
f 1003 842 1002
f 1002 995 996
f 1002 996 1003
f 997 832 844
f 997 844 1004
f 1003 996 997
f 1003 997 1004
f 1005 844 845
f 1005 1004 844
f 999 849 837
f 999 1007 849
f 1006 999 998
f 1006 1007 999
f 1008 850 849
f 1008 849 1007
f 1000 839 851
f 1000 851 1009
f 851 850 1008
f 851 1008 1009
f 1001 852 840
f 1001 1010 852
f 1002 842 854
f 1002 854 1011
f 1003 855 843
f 1003 1012 855
f 1012 854 855
f 1012 1011 854
f 1012 1003 1004
f 1012 1004 1013
f 1005 845 856
f 1005 856 1014
f 1013 1004 1005
f 1013 1005 1014
f 1015 1007 1006
f 1015 1016 1007
f 1017 860 861
f 1017 1016 860
f 1016 1008 1007
f 1016 1017 1008
f 1018 1008 1017
f 1018 1009 1008
f 1010 863 852
f 1010 1019 863
f 1020 864 863
f 1020 863 1019
f 1021 1011 1012
f 1021 1012 1022
f 1022 1012 1013
f 1022 1013 1023
f 1024 1014 856
f 1024 856 866
f 1024 866 865
f 1024 865 1023
f 1024 1023 1013
f 1024 1013 1014
f 1025 860 1016
f 1025 870 860
f 1017 861 871
f 1017 871 1026
f 871 870 1025
f 871 1025 1026
f 1026 1018 1017
f 1026 1027 1018
f 1028 1018 1027
f 1028 1019 1018
f 1029 864 1020
f 1029 874 864
f 1028 1020 1019
f 1028 1029 1020
f 875 874 1029
f 875 1029 1030
f 1034 1023 865
f 1034 865 876
f 1034 1033 1022
f 1034 1022 1023
f 1035 875 1030
f 1035 880 875
f 881 880 1035
f 881 1035 1036
f 1035 1030 1031
f 1035 1031 1036
f 882 881 1036
f 882 1036 1037
f 1036 1031 1032
f 1036 1032 1037
f 1039 1034 876
f 1039 876 883
f 1038 1033 1034
f 1038 1034 1039
f 1041 882 1037
f 1041 887 882
f 887 1040 886
f 887 1041 1040
f 1041 1037 1038
f 1041 1038 1042
f 1043 1039 883
f 1043 883 888
f 1042 1038 1039
f 1042 1039 1043
f 1040 890 886
f 1040 1044 890
f 891 890 1044
f 891 1044 1045
f 1044 1040 1041
f 1044 1041 1045
f 1046 1045 1041
f 1046 1041 1042
f 1043 888 893
f 1043 893 1047
f 1047 893 892
f 1047 892 1046
f 1047 1046 1042
f 1047 1042 1043
f 1048 891 1045
f 1048 894 891
f 1046 892 895
f 1046 895 1049
f 895 894 1048
f 895 1048 1049
f 1049 1048 1045
f 1049 1045 1046
f 902 1050 901
f 902 1051 1050
f 905 1052 904
f 905 1053 1052
f 1054 905 906
f 1054 1053 905
f 1055 906 907
f 1055 1054 906
f 1050 909 901
f 1050 1057 909
f 909 1056 908
f 909 1057 1056
f 1058 1051 902
f 1058 902 910
f 1059 910 911
f 1059 1058 910
f 1052 913 904
f 1052 1061 913
f 913 1060 912
f 913 1061 1060
f 1055 907 914
f 1055 914 1064
f 1063 1054 1055
f 1063 1055 1064
f 1056 917 908
f 1056 1065 917
f 1066 1059 911
f 1066 911 920
f 1060 921 912
f 1060 1067 921
f 921 1066 920
f 921 1067 1066
f 1068 1067 1060
f 1068 1060 1061
f 1068 1061 1062
f 1068 1062 1069
f 1069 1062 1063
f 1069 1063 1070
f 1064 914 923
f 1064 923 1071
f 1071 923 922
f 1071 922 1070
f 1070 1063 1064
f 1070 1064 1071
f 1065 927 917
f 1065 1072 927
f 931 930 1073
f 931 1073 1074
f 1073 1066 1067
f 1073 1067 1074
f 1075 1074 1067
f 1075 1067 1068
f 1077 1070 922
f 1077 922 932
f 1078 1070 1077
f 1078 1071 1070
f 1072 937 927
f 1072 1079 937
f 1081 1073 930
f 1081 930 940
f 1074 941 931
f 1074 1082 941
f 941 1081 940
f 941 1082 1081
f 1081 1074 1073
f 1081 1082 1074
f 1082 1074 1075
f 1082 1075 1083
f 1083 1075 1076
f 1083 1076 1084
f 1077 932 942
f 1077 942 1085
f 1085 1084 1076
f 1085 1076 1077
f 1086 942 943
f 1086 1085 942
f 1087 937 1079
f 1087 947 937
f 1088 948 947
f 1088 947 1087
f 1087 1079 1080
f 1087 1080 1088
f 951 950 1089
f 951 1089 1090
f 1091 952 951
f 1091 951 1090
f 1091 1090 1082
f 1091 1082 1083
f 1092 953 952
f 1092 952 1091
f 1091 1083 1084
f 1091 1084 1092
f 954 953 1092
f 954 1092 1093
f 1092 1084 1085
f 1092 1085 1093
f 1086 943 955
f 1086 955 1094
f 1093 1085 1086
f 1093 1086 1094
f 1095 955 956
f 1095 1094 955
f 1088 958 948
f 1088 1096 958
f 1097 959 958
f 1097 958 1096
f 1089 950 960
f 1089 960 1098
f 960 959 1097
f 960 1097 1098
f 1099 1089 1098
f 1099 1090 1089
f 1100 954 1093
f 1100 962 954
f 963 962 1100
f 963 1100 1101
f 1100 1093 1094
f 1100 1094 1101
f 1102 1095 956
f 1102 956 964
f 1102 964 963
f 1102 963 1101
f 1101 1094 1095
f 1101 1095 1102
f 980 1103 979
f 980 1104 1103
f 1105 980 981
f 1105 1104 980
f 1106 981 982
f 1106 1105 981
f 985 1107 984
f 985 1108 1107
f 1103 987 979
f 1103 1110 987
f 1110 1103 1104
f 1110 1104 1111
f 1112 1111 1104
f 1112 1104 1105
f 1113 1106 982
f 1113 982 988
f 1113 1112 1105
f 1113 1105 1106
f 1115 984 1107
f 1115 990 984
f 990 1114 989
f 990 1115 1114
f 1108 985 991
f 1108 991 1116
f 992 1116 991
f 992 1117 1116
f 1116 1109 1108
f 1116 1117 1109
f 1118 992 993
f 1118 1117 992
f 1110 994 987
f 1110 1119 994
f 994 1118 993
f 994 1119 1118
f 1120 1119 1110
f 1120 1110 1111
f 1122 1113 988
f 1122 988 995
f 1121 1112 1113
f 1121 1113 1122
f 1114 998 989
f 1114 1123 998
f 1001 1000 1124
f 1001 1124 1125
f 1126 1125 1118
f 1126 1118 1119
f 1127 1126 1119
f 1127 1119 1120
f 1122 995 1002
f 1122 1002 1129
f 1128 1121 1122
f 1128 1122 1129
f 1130 998 1123
f 1130 1006 998
f 1124 1000 1009
f 1124 1009 1131
f 1125 1010 1001
f 1125 1132 1010
f 1132 1124 1131
f 1132 1125 1124
f 1133 1132 1125
f 1133 1125 1126
f 1129 1002 1011
f 1129 1011 1136
f 1130 1015 1006
f 1130 1137 1015
f 1138 1016 1015
f 1138 1015 1137
f 1139 1131 1009
f 1139 1009 1018
f 1140 1010 1132
f 1140 1019 1010
f 1019 1139 1018
f 1019 1140 1139
f 1139 1132 1131
f 1139 1140 1132
f 1140 1132 1133
f 1140 1133 1141
f 1141 1133 1134
f 1141 1134 1142
f 1142 1134 1135
f 1142 1135 1143
f 1136 1011 1021
f 1136 1021 1144
f 1143 1135 1136
f 1143 1136 1144
f 1145 1021 1022
f 1145 1144 1021
f 1138 1025 1016
f 1138 1146 1025
f 1026 1025 1146
f 1026 1146 1147
f 1027 1026 1147
f 1027 1147 1148
f 1149 1028 1027
f 1149 1027 1148
f 1150 1029 1028
f 1150 1028 1149
f 1150 1149 1140
f 1150 1140 1141
f 1151 1030 1029
f 1151 1029 1150
f 1150 1141 1142
f 1150 1142 1151
f 1152 1031 1030
f 1152 1030 1151
f 1151 1142 1143
f 1151 1143 1152
f 1032 1031 1152
f 1032 1152 1153
f 1152 1143 1144
f 1152 1144 1153
f 1145 1022 1033
f 1145 1033 1154
f 1153 1144 1145
f 1153 1145 1154
f 1155 1147 1146
f 1155 1156 1147
f 1158 1148 1157
f 1158 1149 1148
f 1159 1032 1153
f 1159 1037 1032
f 1160 1154 1033
f 1160 1033 1038
f 1038 1037 1159
f 1038 1159 1160
f 1159 1153 1154
f 1159 1154 1160
f 1167 1161 1166
f 1167 1162 1161
f 1168 1164 1163
f 1168 1169 1164
f 1051 1169 1050
f 1051 1170 1169
f 1171 1165 1170
f 1171 1166 1165
f 1171 1167 1166
f 1171 1172 1167
f 1053 1173 1052
f 1053 1174 1173
f 1175 1053 1054
f 1175 1174 1053
f 1178 1050 1169
f 1178 1057 1050
f 1178 1056 1057
f 1178 1177 1056
f 1178 1168 1177
f 1178 1169 1168
f 1179 1170 1051
f 1179 1051 1058
f 1059 1179 1058
f 1059 1180 1179
f 1179 1171 1170
f 1179 1180 1171
f 1181 1171 1180
f 1181 1172 1171
f 1182 1052 1173
f 1182 1061 1052
f 1062 1061 1182
f 1062 1182 1183
f 1182 1173 1174
f 1182 1174 1183
f 1175 1054 1063
f 1175 1063 1184
f 1184 1063 1062
f 1184 1062 1183
f 1184 1183 1174
f 1184 1174 1175
f 1186 1056 1177
f 1186 1065 1056
f 1186 1176 1185
f 1186 1177 1176
f 1187 1180 1059
f 1187 1059 1066
f 1187 1181 1180
f 1187 1188 1181
f 1069 1189 1068
f 1069 1190 1189
f 1191 1069 1070
f 1191 1190 1069
f 1192 1070 1071
f 1192 1191 1070
f 1194 1065 1186
f 1194 1072 1065
f 1193 1186 1185
f 1193 1194 1186
f 1195 1187 1066
f 1195 1066 1073
f 1074 1195 1073
f 1074 1196 1195
f 1195 1188 1187
f 1195 1196 1188
f 1189 1075 1068
f 1189 1197 1075
f 1198 1076 1075
f 1198 1075 1197
f 1198 1197 1189
f 1198 1189 1190
f 1199 1077 1076
f 1199 1076 1198
f 1198 1190 1191
f 1198 1191 1199
f 1192 1071 1078
f 1192 1078 1200
f 1078 1077 1199
f 1078 1199 1200
f 1199 1191 1192
f 1199 1192 1200
f 1202 1072 1194
f 1202 1079 1072
f 1201 1194 1193
f 1201 1202 1194
f 1203 1080 1079
f 1203 1079 1202
f 1196 1074 1082
f 1196 1082 1204
f 1205 1196 1204
f 1205 1197 1196
f 1206 1202 1201
f 1206 1207 1202
f 1208 1080 1203
f 1208 1088 1080
f 1207 1203 1202
f 1207 1208 1203
f 1204 1082 1090
f 1204 1090 1211
f 1208 1096 1088
f 1208 1213 1096
f 1212 1208 1207
f 1212 1213 1208
f 1214 1097 1096
f 1214 1096 1213
f 1215 1098 1097
f 1215 1097 1214
f 1215 1214 1209
f 1215 1209 1210
f 1211 1090 1099
f 1211 1099 1216
f 1099 1098 1215
f 1099 1215 1216
f 1218 1212 1217
f 1218 1213 1212
f 1225 1219 1224
f 1225 1220 1219
f 1226 1222 1221
f 1226 1227 1222
f 1228 1107 1108
f 1228 1227 1107
f 1109 1228 1108
f 1109 1229 1228
f 1229 1223 1228
f 1229 1224 1223
f 1229 1225 1224
f 1229 1230 1225
f 1233 1111 1112
f 1233 1232 1111
f 1236 1107 1227
f 1236 1115 1107
f 1236 1114 1115
f 1236 1235 1114
f 1236 1226 1235
f 1236 1227 1226
f 1237 1229 1109
f 1237 1109 1117
f 1118 1237 1117
f 1118 1238 1237
f 1237 1230 1229
f 1237 1238 1230
f 1239 1230 1238
f 1239 1231 1230
f 1232 1120 1111
f 1232 1240 1120
f 1233 1112 1121
f 1233 1121 1241
f 1241 1240 1232
f 1241 1232 1233
f 1235 1123 1114
f 1235 1243 1123
f 1243 1234 1242
f 1243 1235 1234
f 1244 1238 1118
f 1244 1118 1125
f 1240 1127 1120
f 1240 1246 1127
f 1246 1126 1127
f 1246 1245 1126
f 1241 1121 1128
f 1241 1128 1247
f 1246 1240 1241
f 1246 1241 1247
f 1248 1128 1129
f 1248 1247 1128
f 1250 1123 1243
f 1250 1130 1123
f 1251 1244 1125
f 1251 1125 1132
f 1245 1133 1126
f 1245 1252 1133
f 1251 1245 1244
f 1251 1252 1245
f 1253 1134 1133
f 1253 1133 1252
f 1253 1252 1245
f 1253 1245 1246
f 1254 1135 1134
f 1254 1134 1253
f 1253 1246 1247
f 1253 1247 1254
f 1255 1248 1129
f 1255 1129 1136
f 1255 1136 1135
f 1255 1135 1254
f 1254 1247 1248
f 1254 1248 1255
f 1257 1130 1250
f 1257 1137 1130
f 1257 1249 1256
f 1257 1250 1249
f 1258 1138 1137
f 1258 1137 1257
f 1251 1132 1140
f 1251 1140 1259
f 1260 1251 1259
f 1260 1252 1251
f 1261 1257 1256
f 1261 1262 1257
f 1263 1138 1258
f 1263 1146 1138
f 1262 1258 1257
f 1262 1263 1258
f 1148 1147 1264
f 1148 1264 1265
f 1259 1140 1149
f 1259 1149 1266
f 1263 1155 1146
f 1263 1268 1155
f 1267 1263 1262
f 1267 1268 1263
f 1264 1147 1156
f 1264 1156 1269
f 1269 1156 1155
f 1269 1155 1268
f 1265 1157 1148
f 1265 1270 1157
f 1266 1149 1158
f 1266 1158 1271
f 1158 1157 1270
f 1158 1270 1271
f 1162 1274 1161
f 1162 1275 1274
f 1164 1276 1163
f 1164 1277 1276
f 1278 1272 1277
f 1278 1273 1272
f 1274 1166 1161
f 1274 1279 1166
f 1279 1165 1166
f 1279 1278 1165
f 1275 1162 1167
f 1275 1167 1280
f 1279 1274 1275
f 1279 1275 1280
f 1276 1168 1163
f 1276 1281 1168
f 1282 1277 1164
f 1282 1164 1169
f 1282 1281 1276
f 1282 1276 1277
f 1283 1165 1278
f 1283 1170 1165
f 1283 1169 1170
f 1283 1282 1169
f 1283 1277 1282
f 1283 1278 1277
f 1280 1167 1172
f 1280 1172 1284
f 1287 1168 1281
f 1287 1177 1168
f 1287 1176 1177
f 1287 1286 1176
f 1288 1284 1172
f 1288 1172 1181
f 1288 1285 1284
f 1288 1289 1285
f 1290 1176 1286
f 1290 1185 1176
f 1291 1288 1181
f 1291 1181 1188
f 1290 1193 1185
f 1290 1292 1193
f 1293 1291 1188
f 1293 1188 1196
f 1197 1293 1196
f 1197 1294 1293
f 1292 1201 1193
f 1292 1296 1201
f 1294 1197 1205
f 1294 1205 1299
f 1205 1204 1298
f 1205 1298 1299
f 1300 1294 1299
f 1300 1295 1294
f 1301 1201 1296
f 1301 1206 1201
f 1302 1207 1206
f 1302 1206 1301
f 1301 1296 1297
f 1301 1297 1302
f 1210 1209 1303
f 1210 1303 1304
f 1298 1204 1211
f 1298 1211 1305
f 1306 1298 1305
f 1306 1299 1298
f 1307 1207 1302
f 1307 1212 1207
f 1303 1209 1214
f 1303 1214 1309
f 1214 1213 1308
f 1214 1308 1309
f 1310 1210 1304
f 1310 1215 1210
f 1310 1303 1309
f 1310 1304 1303
f 1311 1305 1211
f 1311 1211 1216
f 1311 1216 1215
f 1311 1215 1310
f 1311 1310 1304
f 1311 1304 1305
f 1307 1217 1212
f 1307 1312 1217
f 1308 1213 1218
f 1308 1218 1313
f 1218 1217 1312
f 1218 1312 1313
f 1317 1219 1220
f 1317 1316 1219
f 1222 1318 1221
f 1222 1319 1318
f 1320 1314 1319
f 1320 1315 1314
f 1316 1224 1219
f 1316 1321 1224
f 1321 1223 1224
f 1321 1320 1223
f 1317 1220 1225
f 1317 1225 1322
f 1324 1221 1318
f 1324 1226 1221
f 1325 1319 1222
f 1325 1222 1227
f 1326 1223 1320
f 1326 1228 1223
f 1228 1325 1227
f 1228 1326 1325
f 1326 1319 1325
f 1326 1320 1319
f 1327 1322 1225
f 1327 1225 1230
f 1231 1327 1230
f 1231 1328 1327
f 1327 1323 1322
f 1327 1328 1323
f 1330 1226 1324
f 1330 1235 1226
f 1330 1234 1235
f 1330 1329 1234
f 1328 1231 1239
f 1328 1239 1332
f 1239 1238 1331
f 1239 1331 1332
f 1329 1242 1234
f 1329 1333 1242
f 1334 1243 1242
f 1334 1242 1333
f 1331 1238 1244
f 1331 1244 1335
f 1245 1335 1244
f 1245 1336 1335
f 1336 1331 1335
f 1336 1332 1331
f 1338 1243 1334
f 1338 1250 1243
f 1338 1249 1250
f 1338 1337 1249
f 1338 1333 1337
f 1338 1334 1333
f 1339 1336 1245
f 1339 1245 1252
f 1341 1249 1337
f 1341 1256 1249
f 1339 1252 1260
f 1339 1260 1344
f 1260 1259 1343
f 1260 1343 1344
f 1345 1339 1344
f 1345 1340 1339
f 1346 1256 1341
f 1346 1261 1256
f 1347 1262 1261
f 1347 1261 1346
f 1346 1341 1342
f 1346 1342 1347
f 1265 1264 1348
f 1265 1348 1349
f 1343 1259 1266
f 1343 1266 1350
f 1351 1343 1350
f 1351 1344 1343
f 1347 1267 1262
f 1347 1352 1267
f 1353 1268 1267
f 1353 1267 1352
f 1348 1264 1269
f 1348 1269 1354
f 1269 1268 1353
f 1269 1353 1354
f 1349 1270 1265
f 1349 1355 1270
f 1355 1348 1354
f 1355 1349 1348
f 1356 1350 1266
f 1356 1266 1271
f 1356 1271 1270
f 1356 1270 1355
f 1356 1355 1349
f 1356 1349 1350
f 1358 1272 1273
f 1358 1357 1272
f 1359 1272 1357
f 1359 1277 1272
f 1360 1358 1273
f 1360 1273 1278
f 1279 1360 1278
f 1279 1361 1360
f 1280 1361 1279
f 1280 1362 1361
f 1364 1277 1359
f 1364 1282 1277
f 1364 1281 1282
f 1364 1363 1281
f 1362 1280 1284
f 1362 1284 1366
f 1365 1361 1362
f 1365 1362 1366
f 1285 1366 1284
f 1285 1367 1366
f 1363 1287 1281
f 1363 1369 1287
f 1287 1368 1286
f 1287 1369 1368
f 1367 1285 1289
f 1367 1289 1371
f 1289 1288 1370
f 1289 1370 1371
f 1368 1290 1286
f 1368 1372 1290
f 1373 1372 1368
f 1373 1368 1369
f 1370 1288 1291
f 1370 1291 1374
f 1375 1370 1374
f 1375 1371 1370
f 1372 1292 1290
f 1372 1376 1292
f 1374 1291 1293
f 1374 1293 1378
f 1294 1378 1293
f 1294 1379 1378
f 1378 1375 1374
f 1378 1379 1375
f 1380 1294 1295
f 1380 1379 1294
f 1381 1292 1376
f 1381 1296 1292
f 1297 1296 1381
f 1297 1381 1382
f 1381 1376 1377
f 1381 1377 1382
f 1384 1383 1378
f 1384 1378 1379
f 1380 1295 1300
f 1380 1300 1385
f 1300 1299 1384
f 1300 1384 1385
f 1384 1379 1380
f 1384 1380 1385
f 1386 1297 1382
f 1386 1302 1297
f 1305 1304 1387
f 1305 1387 1388
f 1384 1299 1306
f 1384 1306 1389
f 1389 1306 1305
f 1389 1305 1388
f 1389 1388 1383
f 1389 1383 1384
f 1386 1307 1302
f 1386 1390 1307
f 1392 1309 1308
f 1392 1308 1391
f 1393 1387 1304
f 1393 1304 1310
f 1393 1310 1309
f 1393 1309 1392
f 1394 1307 1390
f 1394 1312 1307
f 1395 1391 1308
f 1395 1308 1313
f 1395 1313 1312
f 1395 1312 1394
f 1394 1390 1391
f 1394 1391 1395
f 1397 1314 1315
f 1397 1396 1314
f 1317 1398 1316
f 1317 1399 1398
f 1401 1314 1396
f 1401 1319 1314
f 1319 1400 1318
f 1319 1401 1400
f 1402 1397 1315
f 1402 1315 1320
f 1398 1321 1316
f 1398 1403 1321
f 1321 1402 1320
f 1321 1403 1402
f 1399 1317 1322
f 1399 1322 1404
f 1403 1398 1399
f 1403 1399 1404
f 1405 1322 1323
f 1405 1404 1322
f 1400 1324 1318
f 1400 1406 1324
f 1407 1406 1400
f 1407 1400 1401
f 1409 1405 1323
f 1409 1323 1328
f 1408 1404 1405
f 1408 1405 1409
f 1411 1324 1406
f 1411 1330 1324
f 1330 1410 1329
f 1330 1411 1410
f 1409 1328 1332
f 1409 1332 1412
f 1410 1333 1329
f 1410 1413 1333
f 1414 1413 1410
f 1414 1410 1411
f 1415 1412 1332
f 1415 1332 1336
f 1413 1337 1333
f 1413 1416 1337
f 1417 1416 1413
f 1417 1413 1414
f 1415 1336 1339
f 1415 1339 1419
f 1420 1339 1340
f 1420 1419 1339
f 1421 1337 1416
f 1421 1341 1337
f 1342 1341 1421
f 1342 1421 1422
f 1421 1416 1417
f 1421 1417 1422
f 1424 1423 1418
f 1424 1418 1419
f 1420 1340 1345
f 1420 1345 1425
f 1345 1344 1424
f 1345 1424 1425
f 1424 1419 1420
f 1424 1420 1425
f 1426 1342 1422
f 1426 1347 1342
f 1350 1349 1428
f 1350 1428 1429
f 1430 1424 1344
f 1430 1344 1351
f 1430 1351 1350
f 1430 1350 1429
f 1430 1429 1423
f 1430 1423 1424
f 1431 1347 1426
f 1431 1352 1347
f 1353 1352 1431
f 1353 1431 1432
f 1431 1426 1427
f 1431 1427 1432
f 1433 1354 1353
f 1433 1353 1432
f 1428 1349 1355
f 1428 1355 1434
f 1434 1355 1354
f 1434 1354 1433
f 1435 1428 1434
f 1435 1429 1428
f 1437 1357 1358
f 1437 1436 1357
f 1436 1359 1357
f 1436 1439 1359
f 1437 1358 1360
f 1437 1360 1440
f 1441 1360 1361
f 1441 1440 1360
f 1443 1359 1439
f 1443 1364 1359
f 1443 1363 1364
f 1443 1442 1363
f 1443 1438 1442
f 1443 1439 1438
f 1441 1361 1365
f 1441 1365 1444
f 1445 1365 1366
f 1445 1444 1365
f 1367 1445 1366
f 1367 1446 1445
f 1447 1363 1442
f 1447 1369 1363
f 1448 1444 1445
f 1448 1445 1449
f 1446 1367 1371
f 1446 1371 1450
f 1449 1445 1446
f 1449 1446 1450
f 1447 1373 1369
f 1447 1452 1373
f 1373 1451 1372
f 1373 1452 1451
f 1453 1448 1449
f 1453 1449 1454
f 1450 1371 1375
f 1450 1375 1455
f 1455 1454 1449
f 1455 1449 1450
f 1451 1376 1372
f 1451 1456 1376
f 1377 1376 1456
f 1377 1456 1457
f 1456 1451 1452
f 1456 1452 1457
f 1455 1375 1379
f 1455 1379 1460
f 1460 1379 1378
f 1460 1378 1459
f 1459 1454 1455
f 1459 1455 1460
f 1461 1377 1457
f 1461 1382 1377
f 1461 1457 1458
f 1461 1458 1462
f 1459 1378 1383
f 1459 1383 1463
f 1464 1459 1463
f 1464 1460 1459
f 1461 1386 1382
f 1461 1465 1386
f 1465 1461 1462
f 1465 1462 1466
f 1463 1383 1388
f 1463 1388 1468
f 1388 1387 1467
f 1388 1467 1468
f 1469 1386 1465
f 1469 1390 1386
f 1391 1390 1469
f 1391 1469 1470
f 1469 1465 1466
f 1469 1466 1470
f 1392 1391 1470
f 1392 1470 1471
f 1467 1387 1393
f 1467 1393 1472
f 1393 1392 1471
f 1393 1471 1472
f 1473 1467 1472
f 1473 1468 1467
f 1475 1396 1397
f 1475 1474 1396
f 1477 1396 1474
f 1477 1401 1396
f 1478 1475 1397
f 1478 1397 1402
f 1403 1478 1402
f 1403 1479 1478
f 1404 1479 1403
f 1404 1480 1479
f 1482 1401 1477
f 1482 1407 1401
f 1482 1406 1407
f 1482 1481 1406
f 1482 1476 1481
f 1482 1477 1476
f 1480 1404 1408
f 1480 1408 1484
f 1485 1408 1409
f 1485 1484 1408
f 1486 1406 1481
f 1486 1411 1406
f 1488 1487 1483
f 1488 1483 1484
f 1485 1409 1412
f 1485 1412 1489
f 1488 1484 1485
f 1488 1485 1489
f 1486 1414 1411
f 1486 1490 1414
f 1489 1412 1415
f 1489 1415 1492
f 1491 1488 1489
f 1491 1489 1492
f 1490 1417 1414
f 1490 1493 1417
f 1492 1415 1419
f 1492 1419 1496
f 1496 1419 1418
f 1496 1418 1495
f 1495 1491 1492
f 1495 1492 1496
f 1498 1417 1493
f 1498 1422 1417
f 1498 1493 1494
f 1498 1494 1499
f 1500 1495 1418
f 1500 1418 1423
f 1501 1495 1500
f 1501 1496 1495
f 1501 1497 1496
f 1501 1502 1497
f 1503 1422 1498
f 1503 1426 1422
f 1427 1426 1503
f 1427 1503 1504
f 1503 1498 1499
f 1503 1499 1504
f 1505 1500 1423
f 1505 1423 1429
f 1506 1427 1504
f 1506 1432 1427
f 1433 1432 1506
f 1433 1506 1507
f 1434 1433 1507
f 1434 1507 1508
f 1505 1429 1435
f 1505 1435 1509
f 1435 1434 1508
f 1435 1508 1509
f 1437 1510 1436
f 1437 1511 1510
f 1513 1436 1510
f 1513 1439 1436
f 1513 1438 1439
f 1513 1512 1438
f 1511 1437 1440
f 1511 1440 1514
f 1513 1510 1511
f 1513 1511 1514
f 1515 1440 1441
f 1515 1514 1440
f 1516 1438 1512
f 1516 1442 1438
f 1517 1516 1512
f 1517 1512 1513
f 1517 1513 1514
f 1517 1514 1518
f 1515 1441 1444
f 1515 1444 1519
f 1518 1514 1515
f 1518 1515 1519
f 1516 1447 1442
f 1516 1522 1447
f 1523 1522 1516
f 1523 1516 1517
f 1523 1517 1518
f 1523 1518 1524
f 1519 1444 1448
f 1519 1448 1525
f 1524 1518 1519
f 1524 1519 1525
f 1525 1520 1519
f 1525 1526 1520
f 1522 1452 1447
f 1522 1528 1452
f 1528 1521 1527
f 1528 1522 1521
f 1525 1448 1453
f 1525 1453 1531
f 1530 1524 1525
f 1530 1525 1531
f 1532 1453 1454
f 1532 1531 1453
f 1533 1452 1528
f 1533 1457 1452
f 1458 1457 1533
f 1458 1533 1534
f 1533 1528 1529
f 1533 1529 1534
f 1537 1532 1454
f 1537 1454 1459
f 1536 1531 1532
f 1536 1532 1537
f 1538 1459 1460
f 1538 1537 1459
f 1540 1458 1534
f 1540 1462 1458
f 1540 1534 1535
f 1540 1535 1541
f 1538 1460 1464
f 1538 1464 1543
f 1464 1463 1542
f 1464 1542 1543
f 1542 1537 1538
f 1542 1538 1543
f 1544 1538 1543
f 1544 1539 1538
f 1545 1462 1540
f 1545 1466 1462
f 1548 1542 1463
f 1548 1463 1468
f 1549 1466 1545
f 1549 1470 1466
f 1471 1470 1549
f 1471 1549 1550
f 1549 1545 1546
f 1549 1546 1550
f 1551 1472 1471
f 1551 1471 1550
f 1550 1546 1547
f 1550 1547 1551
f 1552 1548 1468
f 1552 1468 1473
f 1473 1472 1551
f 1473 1551 1552
f 1552 1551 1547
f 1552 1547 1548
f 1554 1474 1475
f 1554 1553 1474
f 1556 1474 1553
f 1556 1477 1474
f 1556 1476 1477
f 1556 1555 1476
f 1554 1475 1478
f 1554 1478 1557
f 1556 1553 1554
f 1556 1554 1557
f 1479 1557 1478
f 1479 1558 1557
f 1559 1479 1480
f 1559 1558 1479
f 1560 1476 1555
f 1560 1481 1476
f 1561 1560 1555
f 1561 1555 1556
f 1561 1556 1557
f 1561 1557 1562
f 1562 1557 1558
f 1562 1558 1563
f 1559 1480 1484
f 1559 1484 1564
f 1564 1484 1483
f 1564 1483 1563
f 1563 1558 1559
f 1563 1559 1564
f 1560 1486 1481
f 1560 1565 1486
f 1566 1565 1560
f 1566 1560 1561
f 1566 1561 1562
f 1566 1562 1567
f 1563 1483 1487
f 1563 1487 1568
f 1567 1562 1563
f 1567 1563 1568
f 1569 1487 1488
f 1569 1568 1487
f 1569 1563 1568
f 1569 1564 1563
f 1565 1490 1486
f 1565 1570 1490
f 1573 1569 1488
f 1573 1488 1491
f 1572 1568 1569
f 1572 1569 1573
f 1574 1490 1570
f 1574 1493 1490
f 1494 1493 1574
f 1494 1574 1575
f 1574 1570 1571
f 1574 1571 1575
f 1578 1573 1491
f 1578 1491 1495
f 1577 1572 1573
f 1577 1573 1578
f 1579 1495 1496
f 1579 1578 1495
f 1497 1579 1496
f 1497 1580 1579
f 1581 1494 1575
f 1581 1499 1494
f 1581 1575 1576
f 1581 1576 1582
f 1501 1500 1583
f 1501 1583 1584
f 1583 1578 1579
f 1583 1579 1584
f 1580 1497 1502
f 1580 1502 1585
f 1502 1501 1584
f 1502 1584 1585
f 1586 1499 1581
f 1586 1504 1499
f 1586 1581 1582
f 1586 1582 1587
f 1589 1583 1500
f 1589 1500 1505
f 1590 1504 1586
f 1590 1506 1504
f 1507 1506 1590
f 1507 1590 1591
f 1591 1590 1586
f 1591 1586 1587
f 1592 1508 1507
f 1592 1507 1591
f 1591 1587 1588
f 1591 1588 1592
f 1593 1589 1505
f 1593 1505 1509
f 1593 1509 1508
f 1593 1508 1592
f 1593 1592 1588
f 1593 1588 1589
f 1520 1594 1519
f 1520 1595 1594
f 1597 1521 1522
f 1597 1596 1521
f 1523 1597 1522
f 1523 1598 1597
f 1599 1523 1524
f 1599 1598 1523
f 1594 1525 1519
f 1594 1600 1525
f 1595 1520 1526
f 1595 1526 1601
f 1526 1525 1600
f 1526 1600 1601
f 1600 1594 1595
f 1600 1595 1601
f 1596 1527 1521
f 1596 1602 1527
f 1603 1528 1527
f 1603 1527 1602
f 1602 1596 1597
f 1602 1597 1603
f 1529 1528 1603
f 1529 1603 1604
f 1603 1597 1598
f 1603 1598 1604
f 1599 1524 1530
f 1599 1530 1605
f 1604 1598 1599
f 1604 1599 1605
f 1606 1530 1531
f 1606 1605 1530
f 1607 1529 1604
f 1607 1534 1529
f 1535 1534 1607
f 1535 1607 1608
f 1606 1531 1536
f 1606 1536 1609
f 1608 1605 1606
f 1608 1606 1609
f 1610 1536 1537
f 1610 1609 1536
f 1539 1611 1538
f 1539 1612 1611
f 1614 1535 1608
f 1614 1541 1535
f 1541 1613 1540
f 1541 1614 1613
f 1613 1608 1607
f 1613 1614 1608
f 1610 1537 1542
f 1610 1542 1616
f 1615 1609 1610
f 1615 1610 1616
f 1617 1538 1611
f 1617 1543 1538
f 1612 1539 1544
f 1612 1544 1618
f 1544 1543 1617
f 1544 1617 1618
f 1617 1611 1612
f 1617 1612 1618
f 1619 1540 1613
f 1619 1545 1540
f 1546 1545 1619
f 1546 1619 1620
f 1619 1613 1614
f 1619 1614 1620
f 1547 1546 1620
f 1547 1620 1621
f 1620 1614 1615
f 1620 1615 1621
f 1616 1542 1548
f 1616 1548 1622
f 1622 1548 1547
f 1622 1547 1621
f 1623 1622 1621
f 1623 1624 1622
f 1564 1625 1563
f 1564 1626 1625
f 1566 1627 1565
f 1566 1628 1627
f 1567 1628 1566
f 1567 1629 1628
f 1625 1568 1563
f 1625 1630 1568
f 1630 1567 1568
f 1630 1629 1567
f 1631 1626 1564
f 1631 1564 1569
f 1631 1569 1568
f 1631 1568 1630
f 1631 1630 1625
f 1631 1625 1626
f 1627 1570 1565
f 1627 1632 1570
f 1571 1570 1632
f 1571 1632 1633
f 1632 1627 1628
f 1632 1628 1633
f 1633 1628 1629
f 1633 1629 1634
f 1630 1568 1572
f 1630 1572 1635
f 1635 1634 1629
f 1635 1629 1630
f 1636 1571 1633
f 1636 1575 1571
f 1576 1575 1636
f 1576 1636 1637
f 1636 1633 1634
f 1636 1634 1637
f 1635 1572 1577
f 1635 1577 1638
f 1637 1634 1635
f 1637 1635 1638
f 1639 1577 1578
f 1639 1638 1577
f 1580 1640 1579
f 1580 1641 1640
f 1643 1576 1637
f 1643 1582 1576
f 1642 1637 1636
f 1642 1643 1637
f 1639 1578 1583
f 1639 1583 1645
f 1644 1638 1639
f 1644 1639 1645
f 1646 1579 1640
f 1646 1584 1579
f 1641 1580 1585
f 1641 1585 1647
f 1585 1584 1646
f 1585 1646 1647
f 1646 1640 1641
f 1646 1641 1647
f 1648 1582 1643
f 1648 1587 1582
f 1588 1587 1648
f 1588 1648 1649
f 1648 1643 1644
f 1648 1644 1649
f 1650 1645 1583
f 1650 1583 1589
f 1650 1589 1588
f 1650 1588 1649
f 1652 1604 1605
f 1652 1651 1604
f 1651 1607 1604
f 1651 1653 1607
f 1652 1605 1608
f 1652 1608 1654
f 1653 1651 1652
f 1653 1652 1654
f 1655 1608 1609
f 1655 1654 1608
f 1656 1607 1653
f 1656 1613 1607
f 1614 1613 1656
f 1614 1656 1657
f 1656 1653 1654
f 1656 1654 1657
f 1655 1609 1615
f 1655 1615 1658
f 1615 1614 1657
f 1615 1657 1658
f 1657 1654 1655
f 1657 1655 1658
f 1659 1615 1616
f 1659 1658 1615
f 1660 1615 1658
f 1660 1621 1615
f 1659 1616 1622
f 1659 1622 1661
f 1660 1658 1659
f 1660 1659 1661
f 1660 1623 1621
f 1660 1662 1623
f 1661 1622 1624
f 1661 1624 1663
f 1624 1623 1662
f 1624 1662 1663
f 1662 1660 1661
f 1662 1661 1663
f 1637 1664 1636
f 1637 1665 1664
f 1666 1637 1638
f 1666 1665 1637
f 1664 1642 1636
f 1664 1667 1642
f 1668 1643 1642
f 1668 1642 1667
f 1668 1667 1664
f 1668 1664 1665
f 1666 1638 1644
f 1666 1644 1669
f 1644 1643 1668
f 1644 1668 1669
f 1668 1665 1666
f 1668 1666 1669
f 1670 1644 1645
f 1670 1669 1644
f 1671 1644 1669
f 1671 1649 1644
f 1670 1645 1650
f 1670 1650 1672
f 1650 1649 1671
f 1650 1671 1672
f 1671 1669 1670
f 1671 1670 1672
