# parsimony mesh: cplx_CPLX0-1541 (source /Users/eranagmon/code/v2e-cplx/workspace/studies/ecoli-3d/viz/3d/structures/cplx_CPLX0-1541.pdb)
# atoms: 3418  voxel: 16 Å  verts: 82  tris: 156
v 33.0525 -29.9828 -23.5518
v 43.8626 -29.2875 -23.2584
v 52.1109 -26.1785 -21.8741
v 33.0525 -24.3002 -23.5518
v 43.8626 -24.4391 -23.2584
v 52.1109 -25.3965 -21.8741
v -28.8361 21.9987 -22.6431
v -27.1371 21.9987 -22.6431
v -29.8309 30.3331 -23.2333
v -21.1372 31.4411 -23.0689
v -11.8814 37.5132 -21.8851
v -29.6967 39.1507 -22.7493
v -20.1374 39.1528 -22.6648
v -11.8814 38.6084 -21.8851
v 16.6451 -43.9425 -7.7322
v 27.8626 -44.4194 -10.3991
v 43.8626 -42.7668 -8.9323
v 51.9683 -41.7391 -5.7764
v 15.9410 -33.6669 -9.3170
v 27.7765 -34.6564 -17.5336
v 43.8626 -37.2875 -16.9323
v 52.7391 -32.3738 -12.1147
v 17.8512 -22.9423 -8.4385
v 27.7765 -21.0977 -13.7119
v 43.8626 -20.7589 -13.6221
v 52.8789 -24.4270 -13.6221
v -46.8139 19.6611 -7.7972
v -34.9566 19.3510 -13.3272
v -21.1372 20.5429 -13.1196
v -10.8828 21.6476 -7.4512
v -47.1295 30.3331 -8.6813
v -37.8309 30.3331 -16.6813
v -16.4704 26.8465 -18.1179
v -10.3120 31.4411 -13.1196
v -45.4505 40.0693 -7.5259
v -35.4730 41.6282 -13.1644
v -20.1374 42.5880 -13.6221
v -10.7966 39.7713 -13.6221
v 15.2657 -45.0809 2.3779
v 27.8626 -47.3040 2.3779
v 43.8626 -44.3732 2.3779
v 52.4750 -42.1501 2.3779
v 11.9909 -33.6669 2.3779
v 50.3647 -28.2287 8.3554
v 53.0166 -33.6040 2.7644
v 16.5878 -21.2709 2.3779
v 27.8626 -15.5032 2.3779
v 44.5639 -20.2230 2.7644
v 52.9694 -24.2841 -2.3112
v -47.8213 18.3223 2.3779
v -36.1374 15.4012 2.3779
v -20.1374 18.2038 2.3779
v -10.2407 21.1249 2.3779
v -50.2160 30.3331 2.3779
v -8.8739 30.3331 2.3779
v -46.5322 41.3032 2.3779
v -36.1374 45.9986 2.3779
v -20.1374 44.5742 2.3779
v -10.7707 39.8788 2.3779
v 16.9508 -43.9432 12.6315
v 27.8626 -44.5514 13.4738
v 43.8626 -43.2733 12.2702
v 52.5734 -42.2390 11.0268
v 15.9125 -33.6669 13.7188
v 27.8626 -33.6669 17.1758
v 44.5639 -33.6040 13.5329
v 52.5734 -38.8954 11.0268
v 17.5075 -22.5302 12.5788
v 27.8626 -20.1897 14.0800
v 39.6981 -21.5006 13.1131
v -46.3729 19.6574 12.6748
v -36.1374 18.8781 13.7022
v -20.1374 20.1908 12.7266
v -10.8630 21.4076 11.3740
v -47.2239 30.3331 13.6840
v -36.1374 30.3331 17.0174
v -20.1374 30.3331 14.6651
v -10.9637 30.3331 11.3317
v -46.0174 40.5569 12.4891
v -36.1374 42.4929 13.6930
v -20.1374 41.1389 12.3164
v -11.8468 38.7516 10.6536
f 4 2 1
f 4 5 2
f 5 3 2
f 5 6 3
f 9 8 7
f 9 10 8
f 12 10 9
f 12 13 10
f 13 11 10
f 13 14 11
f 19 16 15
f 19 20 16
f 21 1 2
f 21 20 1
f 21 16 20
f 21 17 16
f 22 2 3
f 22 21 2
f 22 17 21
f 22 18 17
f 20 4 1
f 20 24 4
f 24 19 23
f 24 20 19
f 25 5 4
f 25 4 24
f 26 22 3
f 26 3 6
f 6 5 25
f 6 25 26
f 29 7 8
f 29 28 7
f 32 7 28
f 32 9 7
f 32 27 31
f 32 28 27
f 33 29 8
f 33 8 10
f 11 33 10
f 11 34 33
f 33 30 29
f 33 34 30
f 32 12 9
f 32 36 12
f 35 32 31
f 35 36 32
f 37 13 12
f 37 12 36
f 38 34 11
f 38 11 14
f 14 13 37
f 14 37 38
f 40 15 16
f 40 39 15
f 17 40 16
f 17 41 40
f 18 41 17
f 18 42 41
f 43 15 39
f 43 19 15
f 45 42 18
f 45 18 22
f 43 23 19
f 43 46 23
f 47 24 23
f 47 23 46
f 25 24 47
f 25 47 48
f 49 45 22
f 49 22 26
f 49 26 25
f 49 25 48
f 49 48 44
f 49 44 45
f 51 27 28
f 51 50 27
f 52 28 29
f 52 51 28
f 30 52 29
f 30 53 52
f 54 27 50
f 54 31 27
f 55 53 30
f 55 30 34
f 54 35 31
f 54 56 35
f 57 36 35
f 57 35 56
f 58 37 36
f 58 36 57
f 59 55 34
f 59 34 38
f 59 38 37
f 59 37 58
f 40 60 39
f 40 61 60
f 62 40 41
f 62 61 40
f 63 41 42
f 63 62 41
f 60 43 39
f 60 64 43
f 65 64 60
f 65 60 61
f 65 61 62
f 65 62 66
f 67 63 42
f 67 42 45
f 67 45 44
f 67 44 66
f 67 66 62
f 67 62 63
f 68 43 64
f 68 46 43
f 47 46 68
f 47 68 69
f 68 64 65
f 68 65 69
f 70 66 44
f 70 44 48
f 70 48 47
f 70 47 69
f 70 69 65
f 70 65 66
f 51 71 50
f 51 72 71
f 52 72 51
f 52 73 72
f 74 52 53
f 74 73 52
f 71 54 50
f 71 75 54
f 76 75 71
f 76 71 72
f 76 72 73
f 76 73 77
f 74 53 55
f 74 55 78
f 77 73 74
f 77 74 78
f 79 54 75
f 79 56 54
f 57 56 79
f 57 79 80
f 79 75 76
f 79 76 80
f 81 58 57
f 81 57 80
f 81 80 76
f 81 76 77
f 82 78 55
f 82 55 59
f 82 59 58
f 82 58 81
f 82 81 77
f 82 77 78
