# parsimony mesh: cplx_CPLX0-7929 (source /Users/eranagmon/code/v2e-cplx/workspace/studies/ecoli-3d/viz/3d/structures/cplx_CPLX0-7929.pdb)
# atoms: 1294  voxel: 16 Å  verts: 78  tris: 136
v 38.6428 -37.7313 -18.2008
v 47.7413 -38.8574 -18.6296
v 57.1084 -38.3619 -17.3696
v 38.3609 -28.4249 -18.0522
v 46.5585 -29.0605 -18.4249
v 57.1084 -34.8176 -17.3696
v 38.9993 -20.0529 -16.5997
v 40.4366 -20.0529 -16.5997
v -25.3666 26.5763 -17.7165
v -16.2587 26.0019 -18.0948
v -7.3883 26.4763 -17.1408
v -26.8079 35.5751 -18.1885
v -17.1472 34.7651 -18.3967
v -7.3883 28.8917 -17.1408
v -26.5497 44.3398 -17.2658
v -23.0729 44.3398 -17.2658
v 6.2768 -37.6163 -1.2654
v 15.7413 -38.9298 -1.8465
v 32.6822 -38.5358 -7.1951
v 47.7413 -38.9900 -8.0965
v 57.0995 -37.9627 -8.0965
v 6.2768 -34.8989 -1.2654
v 15.7413 -32.8460 -1.8465
v 33.4877 -29.3315 -7.9294
v 46.5585 -28.7494 -8.7973
v 57.0995 -35.0362 -8.0965
v 38.9993 -20.0529 -14.5978
v 40.4366 -20.0529 -14.5978
v -57.1335 27.1529 -0.5222
v -48.2587 26.3768 -1.1789
v -31.9570 26.4879 -7.6867
v -15.8584 25.7133 -8.5943
v -6.4370 25.9969 -8.0965
v -57.1335 28.8740 -0.5222
v -48.0931 34.7544 -2.4816
v -31.8391 34.4183 -7.6875
v -16.6656 36.2171 -7.3226
v -6.6604 34.7651 -6.6701
v -42.6495 44.3919 -2.6285
v -32.0333 44.5313 -8.0157
v -17.1472 44.1352 -6.6701
v -8.0238 43.7316 -0.3858
v 5.8424 -38.3094 7.9035
v 15.7413 -41.9954 7.9035
v 32.1529 -39.4117 6.4667
v 47.7413 -36.5575 0.2178
v 56.1851 -36.5384 0.0506
v 5.8424 -34.2116 7.9035
v 15.7413 -30.0667 7.9035
v 32.1529 -32.9444 6.4667
v 47.7413 -36.0360 0.2178
v 56.1851 -36.1806 0.0506
v -58.0082 26.2944 7.9035
v -48.2587 24.1576 7.9035
v -37.3148 25.4383 7.9035
v -10.2583 26.5696 1.2428
v -6.7001 26.5696 1.2428
v -58.0082 30.2436 7.9035
v -48.0931 37.9818 7.8877
v -32.9628 37.1187 6.5651
v -15.8584 37.1555 0.9669
v -6.9136 35.5751 1.2205
v -42.6495 44.3919 2.5438
v -32.2587 44.1969 1.8959
v -16.2587 43.7016 0.2283
v -8.0238 43.7316 0.3203
v 6.6739 -37.7461 17.0556
v 15.7413 -39.4905 18.1100
v 27.0940 -39.1911 17.6934
v 6.6739 -34.9998 17.0556
v 15.7413 -33.6456 18.1100
v 27.0940 -34.1443 17.6934
v -57.7165 26.2897 17.2412
v -48.2587 25.3559 18.0100
v -38.0447 25.9016 17.3745
v -57.7165 29.8342 17.2412
v -48.2587 31.6093 18.0100
v -38.0447 30.6949 17.3745
f 5 1 4
f 5 2 1
f 6 2 5
f 6 3 2
f 8 4 7
f 8 5 4
f 13 9 12
f 13 10 9
f 14 10 13
f 14 11 10
f 16 12 15
f 16 13 12
f 20 1 2
f 20 19 1
f 3 20 2
f 3 21 20
f 22 18 17
f 22 23 18
f 24 1 19
f 24 4 1
f 23 19 18
f 23 24 19
f 21 3 6
f 21 6 26
f 6 5 25
f 6 25 26
f 27 4 24
f 27 7 4
f 28 25 5
f 28 5 8
f 8 7 27
f 8 27 28
f 27 24 25
f 27 25 28
f 32 9 10
f 32 31 9
f 11 32 10
f 11 33 32
f 34 30 29
f 34 35 30
f 36 9 31
f 36 12 9
f 35 31 30
f 35 36 31
f 37 36 31
f 37 31 32
f 33 11 14
f 33 14 38
f 14 13 37
f 14 37 38
f 40 12 36
f 40 15 12
f 39 36 35
f 39 40 36
f 37 13 16
f 37 16 41
f 42 37 41
f 42 38 37
f 44 17 18
f 44 43 17
f 45 18 19
f 45 44 18
f 46 19 20
f 46 45 19
f 47 20 21
f 47 46 20
f 48 17 43
f 48 22 17
f 23 22 48
f 23 48 49
f 50 24 23
f 50 23 49
f 51 25 24
f 51 24 50
f 51 50 45
f 51 45 46
f 47 21 26
f 47 26 52
f 26 25 51
f 26 51 52
f 52 51 46
f 52 46 47
f 54 29 30
f 54 53 29
f 55 30 31
f 55 54 30
f 33 56 32
f 33 57 56
f 53 34 29
f 53 58 34
f 35 34 58
f 35 58 59
f 60 55 31
f 60 31 36
f 56 37 32
f 56 61 37
f 61 36 37
f 61 60 36
f 57 33 38
f 57 38 62
f 62 61 56
f 62 56 57
f 63 35 59
f 63 39 35
f 63 59 60
f 63 60 64
f 64 60 61
f 64 61 65
f 62 38 42
f 62 42 66
f 66 65 61
f 66 61 62
f 44 67 43
f 44 68 67
f 69 44 45
f 69 68 44
f 70 43 67
f 70 48 43
f 49 48 70
f 49 70 71
f 72 69 45
f 72 45 50
f 72 50 49
f 72 49 71
f 54 73 53
f 54 74 73
f 75 54 55
f 75 74 54
f 76 53 73
f 76 58 53
f 77 59 58
f 77 58 76
f 78 75 55
f 78 55 60
f 78 60 59
f 78 59 77
