# parsimony mesh: cplx_CPLX0-7617 (source /Users/eranagmon/code/v2e-cplx/workspace/studies/ecoli-3d/viz/3d/structures/cplx_CPLX0-7617.pdb)
# atoms: 1694  voxel: 4 Å  verts: 980  tris: 2000
v 44.5296 -58.0269 -17.5583
v 45.5720 -58.0269 -17.5583
v 44.5296 -56.9851 -17.5583
v 47.1085 -55.4320 -17.4205
v 49.2717 -53.8789 -17.2827
v 56.6095 -53.8482 -17.2785
v 57.5194 -53.8482 -17.2785
v 48.6450 -53.2009 -17.2827
v 49.2717 -53.2009 -17.2827
v 56.6095 -53.3335 -17.2785
v 57.5194 -53.3335 -17.2785
v -43.8045 30.0259 -17.6860
v -42.5817 30.0259 -17.6860
v -43.8045 31.3707 -17.6860
v -42.5817 31.3707 -17.6860
v -31.6379 33.9448 -17.4693
v -30.5422 33.9448 -17.4693
v -31.6379 34.9271 -17.4693
v -30.5422 34.9271 -17.4693
v 43.6374 -61.7788 -13.7832
v 45.2542 -61.7788 -13.7832
v 40.5210 -58.7226 -13.4317
v 42.7502 -59.7081 -14.9408
v 46.7464 -59.1397 -14.9733
v 49.3206 -57.5858 -13.4967
v 40.1719 -55.4719 -13.5655
v 43.0900 -55.5798 -15.4831
v 47.1085 -55.4320 -16.3323
v 50.6295 -55.5460 -15.1452
v 55.1379 -54.7516 -15.3463
v 57.9516 -54.2658 -15.1752
v 40.3286 -52.4417 -13.4391
v 42.8919 -51.2538 -13.7891
v 47.1592 -51.7093 -15.5076
v 50.7352 -51.7093 -15.6441
v 54.8859 -51.5209 -15.0019
v 57.9516 -52.5453 -15.1752
v 44.1995 -49.3599 -13.2751
v 46.9305 -49.1430 -13.5961
v 50.9305 -49.1925 -13.5474
v 53.1623 -49.4259 -13.2102
v -48.0432 29.3515 -13.8457
v -45.1105 28.8515 -15.1775
v -41.1768 29.5497 -14.7923
v -39.0393 30.5152 -13.2037
v -48.5535 32.5281 -14.0000
v -45.1105 32.6337 -15.9364
v -41.1768 32.6337 -15.8579
v -37.4514 32.6010 -14.1375
v -33.0105 33.5631 -15.1562
v -30.3036 33.7307 -15.1752
v -51.1119 38.1817 -13.2122
v -49.2725 36.7202 -13.4670
v -45.0695 36.5281 -14.5072
v -41.0695 36.5281 -15.4127
v -37.0695 36.5281 -15.0922
v -32.9545 36.5793 -14.9582
v -30.3036 35.6048 -15.1752
v -51.1119 38.6447 -13.2122
v -49.0695 38.6469 -13.2180
v -45.0695 38.9686 -13.5586
v -41.0695 39.2773 -14.0806
v -37.0695 39.0718 -13.9106
v -34.2711 38.7996 -13.4396
v 31.7920 -65.6801 -9.4475
v 34.9305 -65.7372 -9.6106
v 38.9305 -66.0076 -9.8790
v 41.6969 -66.0406 -9.8054
v 31.1903 -63.4719 -10.1032
v 34.9305 -63.4719 -10.9142
v 38.9305 -63.4719 -11.4441
v 42.6672 -63.0844 -11.4804
v 45.6491 -61.8906 -11.1752
v 28.8151 -58.2482 -9.2944
v 30.6214 -59.5377 -10.2610
v 34.9305 -59.4719 -11.6161
v 39.0848 -59.8223 -12.5018
v 40.9707 -61.3893 -13.1555
v 47.6491 -60.3770 -11.1752
v 49.8919 -58.3770 -11.1752
v 28.8151 -57.2551 -9.2944
v 30.9305 -56.3851 -9.8087
v 34.5809 -55.1325 -10.6302
v 38.1719 -55.4719 -12.4498
v 51.8919 -56.9078 -11.1752
v 55.1333 -55.0300 -10.9336
v 57.7031 -54.1541 -12.1059
v 35.8007 -51.4719 -10.2392
v 38.9693 -51.2538 -12.3182
v 41.5328 -49.7750 -12.9949
v 56.2155 -51.0682 -10.8014
v 57.3352 -51.0682 -10.8014
v 36.7342 -47.4719 -9.5637
v 38.9305 -47.4719 -10.9113
v 42.8919 -47.8047 -11.9636
v 46.9305 -47.1430 -11.6894
v 50.9305 -47.1925 -11.9318
v 54.6696 -47.8443 -11.2946
v 56.9762 -47.4719 -9.4442
v 36.9259 -45.4566 -9.1831
v 38.9679 -43.8627 -9.8295
v 42.9305 -43.4719 -10.2429
v 46.9092 -43.2742 -9.6808
v 50.7710 -43.2742 -10.4950
v 54.9053 -43.8198 -10.2161
v 56.9546 -45.3851 -9.2122
v 39.7597 -39.4719 -9.8019
v 43.2263 -39.3360 -9.7708
v 45.5617 -40.5787 -9.3323
v 51.9980 -40.2895 -10.3661
v 53.5552 -40.2895 -10.3661
v 39.6636 -35.4719 -9.6877
v 42.1747 -35.4719 -9.6877
v 40.1982 -33.1098 -9.4619
v 41.4297 -33.1098 -9.4619
v -47.9041 22.2886 -9.4871
v -46.7636 22.2886 -9.4871
v -59.2088 25.3961 -9.3292
v -57.0695 24.8450 -10.2708
v -53.0695 25.1225 -10.4821
v -49.1702 24.4709 -10.3395
v -46.2885 24.5281 -10.3037
v -59.3752 28.5281 -9.4722
v -57.0695 28.5281 -11.0360
v -53.0695 28.5281 -11.8789
v -49.2537 28.2221 -12.4028
v -45.0283 27.0658 -11.4909
v -41.0695 28.7732 -11.1752
v -38.7782 30.2187 -11.1752
v -59.3378 31.6889 -9.4171
v -57.3738 32.8246 -9.9917
v -53.0695 32.5281 -11.6637
v -50.5535 32.5281 -12.8245
v -36.7782 31.9144 -11.1752
v -33.2641 33.7493 -11.2137
v -30.5757 34.0482 -12.5726
v -56.2434 34.8321 -9.5158
v -52.7193 36.5069 -11.2364
v -50.7412 35.5150 -12.9570
v -32.0276 36.7501 -11.2137
v -30.5757 35.5647 -12.5726
v -51.6883 40.1981 -11.1533
v -49.0695 40.6469 -12.0438
v -45.0695 40.9686 -11.8564
v -41.0695 41.2773 -11.9226
v -37.0695 41.0718 -12.0373
v -33.3141 40.2910 -11.0952
v -51.4679 43.5909 -9.8054
v -49.3290 44.7658 -10.2433
v -45.0695 44.5281 -10.3508
v -41.0695 44.5281 -10.1365
v -37.0695 44.5281 -10.6768
v -34.1521 44.5281 -10.0287
v -51.2177 49.7066 -9.3595
v -49.3290 48.4352 -9.8366
v -44.9185 48.2713 -9.7483
v -41.0695 47.2935 -9.3891
v -37.0695 47.9776 -9.8147
v -34.7112 47.6789 -9.7798
v -51.2177 51.2290 -9.3595
v -49.1836 52.5486 -9.6009
v -46.1143 52.5281 -9.5691
v -47.9264 54.8971 -9.4045
v -46.7142 54.8971 -9.4045
v 28.7534 -65.6804 -6.3036
v 30.7552 -65.6803 -7.3358
v 34.7333 -65.9389 -7.0909
v 39.1982 -66.1552 -6.8684
v 41.6969 -66.0406 -7.9972
v 28.5779 -63.4719 -6.8330
v 30.5595 -64.1649 -7.4909
v 33.2685 -65.0889 -5.7014
v 40.7101 -64.9251 -5.3305
v 42.8345 -63.3242 -7.0784
v 45.5649 -61.7233 -8.8262
v 28.0224 -59.5377 -7.4244
v 29.0821 -60.9149 -8.9239
v 43.9720 -60.9957 -6.1596
v 46.9111 -60.6098 -7.3658
v 50.1659 -58.7515 -7.1752
v 28.0152 -56.5119 -7.1752
v 30.7542 -54.3645 -7.4989
v 33.0145 -53.5729 -9.0480
v 52.1659 -56.7100 -7.1752
v 54.1038 -54.7100 -7.1752
v 31.9700 -52.5170 -6.3813
v 34.0784 -51.2990 -7.4989
v 55.8330 -51.2457 -7.4938
v 56.9673 -49.7615 -9.0395
v 36.1732 -47.4719 -7.1752
v 56.2893 -47.4719 -6.7903
v 56.9762 -47.4719 -8.7903
v 36.8013 -45.1223 -7.1752
v 37.9005 -43.1223 -7.1752
v 48.2284 -41.8091 -8.6264
v 49.3313 -41.8091 -8.6264
v 56.5122 -43.9285 -7.2172
v 57.0291 -43.9285 -7.2172
v 36.5699 -38.0196 -5.8473
v 37.9324 -39.4005 -7.1785
v 44.7569 -37.9120 -8.9157
v 47.2348 -39.0397 -7.4378
v 50.4716 -38.8951 -7.5038
v 55.1944 -38.9716 -7.3423
v 57.1036 -40.3203 -5.6366
v 36.3594 -35.4719 -6.2582
v 37.6636 -35.4719 -8.2582
v 44.1747 -35.4719 -8.3044
v 46.4518 -35.4719 -6.3044
v 51.6119 -36.5848 -6.3812
v 54.1670 -36.5848 -6.3812
v 36.4279 -31.4719 -6.0224
v 39.0839 -31.3890 -7.0733
v 42.8300 -32.3823 -7.0342
v 45.6481 -33.1550 -5.6069
v 36.5602 -27.4719 -5.6123
v 38.3142 -27.4719 -5.6123
v 36.7059 -25.0475 -5.4003
v 37.7363 -25.0475 -5.4003
v -59.1262 22.4837 -6.0572
v -58.8857 22.4837 -6.0572
v -51.8209 22.1989 -6.1158
v -49.1879 22.2437 -7.4041
v -46.7636 22.2886 -8.6924
v -59.3307 24.2489 -7.3044
v -57.3593 23.2325 -7.3044
v -53.1204 23.4545 -7.3396
v -49.1879 23.3404 -7.4041
v -46.2561 24.7600 -7.2855
v -63.1172 30.4653 -5.2640
v -61.0577 28.8904 -6.8285
v -44.2823 27.4471 -7.1752
v -41.0695 28.8991 -7.1752
v -38.5508 29.9801 -7.1752
v -63.1172 30.7965 -5.2640
v -60.6910 32.5760 -7.0158
v -58.9100 34.3556 -8.7676
v -36.5508 32.1829 -7.1752
v -34.7115 34.1829 -7.1752
v -59.3775 34.8422 -6.1009
v -57.1195 36.1705 -7.0159
v -54.3268 37.4987 -7.9308
v -33.5138 36.5281 -7.1752
v -55.3290 38.6065 -5.2641
v -53.5528 40.1751 -6.8286
v -32.7352 40.5281 -7.1752
v -51.8456 44.7658 -7.3868
v -50.8354 46.2576 -8.8612
v -32.9432 44.5281 -7.1752
v -51.6172 48.4352 -7.3868
v -50.8354 47.0399 -8.8612
v -43.4845 49.4334 -8.8631
v -41.0695 49.2935 -8.7510
v -37.0695 49.9776 -8.8784
v -33.6844 48.8186 -7.4899
v -51.8303 52.5486 -7.4054
v -50.5930 53.8957 -8.8922
v -44.1143 52.5281 -8.1918
v -40.7666 52.8628 -6.6364
v -37.0695 52.2620 -6.8784
v -34.0804 51.6154 -6.3663
v -52.1196 56.5281 -6.5013
v -48.9765 56.5061 -7.3926
v -45.2563 55.5862 -6.9758
v -41.8980 55.0023 -5.5095
v -51.8690 60.5281 -5.9969
v -49.7743 60.5281 -5.9969
v -51.4200 64.5281 -5.4858
v -50.5139 64.5281 -5.4858
v -51.1038 66.5540 -5.2114
v -51.0128 66.5540 -5.2114
v 28.7534 -65.6804 -4.9777
v 29.7185 -65.6804 -4.9777
v 35.9352 -65.8965 -4.6947
v 38.0434 -65.8965 -4.6947
v 28.5779 -63.4719 -4.5774
v 31.0891 -63.3671 -3.4433
v 34.6428 -63.3671 -3.2565
v 39.3273 -63.2780 -3.2565
v 42.0943 -62.1811 -3.1752
v 47.6703 -61.9061 -1.6927
v 49.2410 -61.9061 -1.6927
v 27.8819 -59.4719 -3.8596
v 29.7159 -59.4719 -1.8596
v 36.0171 -60.5476 -1.8184
v 37.9445 -60.5476 -1.8184
v 44.0943 -61.0793 -3.1752
v 46.5744 -60.7258 -3.0857
v 50.0687 -59.4399 -3.0857
v 27.8254 -56.4086 -4.0207
v 29.7187 -55.2339 -2.8825
v 52.1204 -56.7240 -3.1752
v 53.9811 -54.7240 -3.1752
v 28.7937 -49.7863 -1.4182
v 30.8283 -51.1516 -2.9794
v 33.6835 -49.8503 -4.5406
v 55.2989 -51.4719 -3.1752
v 28.7392 -47.4719 -1.4399
v 30.9305 -47.4719 -2.0173
v 34.3695 -47.4719 -3.7526
v 55.9572 -47.4719 -3.1752
v 28.5155 -43.4719 -1.4346
v 30.9305 -43.4719 -1.8050
v 35.2299 -43.6014 -3.4137
v 37.4947 -42.3544 -4.4121
v 56.5328 -43.6719 -3.1317
v 57.1036 -42.4719 -4.4361
v 28.0938 -39.4719 -1.4951
v 30.9675 -39.3286 -1.6847
v 35.2773 -39.2930 -3.0050
v 37.4947 -40.6862 -4.4121
v 48.9080 -37.5006 -5.0967
v 48.9452 -37.5006 -5.0967
v 56.0182 -39.1810 -3.1317
v 57.1036 -40.3203 -4.4361
v 28.2500 -37.1799 -1.3658
v 29.6589 -37.1799 -1.3658
v 36.3062 -35.2104 -2.7967
v 36.9515 -33.7028 -1.2111
v 48.4424 -35.4708 -3.5281
v 50.5393 -36.4225 -3.5281
v 53.9963 -36.6616 -3.1752
v 36.4279 -31.4719 -3.6740
v 38.7242 -30.6989 -3.0931
v 42.9469 -30.5607 -3.4612
v 46.3373 -32.6857 -3.1752
v 36.5602 -27.4719 -3.9238
v 39.0066 -27.4719 -3.1992
v 41.5508 -27.4719 -2.4747
v 52.4638 -26.1367 -1.4093
v 53.3355 -26.1367 -1.4093
v 36.7059 -25.0475 -4.2109
v 38.9498 -25.1930 -2.9877
v 41.0634 -25.3384 -1.7645
v 52.4638 -24.8325 -1.4093
v 53.3355 -24.8325 -1.4093
v -59.1262 22.4837 -5.1300
v -58.8857 22.4837 -5.1300
v -51.8209 22.1989 -4.7254
v -50.4717 22.1989 -4.7254
v -59.2915 24.5281 -4.6171
v -57.3593 24.5790 -4.3466
v -53.1204 24.5790 -4.1550
v -49.1109 24.7600 -4.0717
v -45.4665 26.1716 -3.1350
v -41.0695 26.0249 -1.9265
v -38.8636 26.2900 -1.4815
v -63.1172 30.4653 -5.0917
v -60.7121 28.7655 -3.4507
v -57.0695 27.3306 -2.1733
v -53.0695 27.7643 -2.2373
v -49.0695 27.5093 -2.1331
v -45.4665 26.9761 -3.1350
v -41.0695 27.8076 -3.9265
v -38.6286 28.7294 -2.9590
v -63.1172 30.7965 -5.0917
v -61.1221 32.2891 -3.5251
v -36.6728 32.1626 -3.1752
v -34.7789 34.1626 -3.1752
v -59.4930 36.3165 -3.2494
v -57.9956 37.5089 -4.6322
v -34.0880 36.5281 -3.1752
v -59.4888 40.5281 -1.9060
v -56.8252 40.1751 -3.4428
v -54.2194 41.2732 -3.9801
v -33.3332 40.5281 -3.1752
v -59.6013 44.5281 -1.5259
v -57.0695 44.5281 -2.0001
v -53.7408 44.5281 -3.6494
v -32.8097 44.5281 -3.1752
v -59.9566 48.5281 -1.4513
v -56.9031 48.8708 -1.6925
v -53.8084 48.8708 -3.0716
v -33.0153 48.5281 -3.1752
v -59.7716 50.6919 -1.2599
v -58.1255 50.6919 -1.2599
v -52.4216 52.7517 -2.8469
v -50.9279 54.2341 -1.2947
v -39.5043 54.0315 -3.1752
v -37.0695 52.9666 -3.1752
v -34.2297 51.4632 -3.1752
v -52.1196 56.5281 -3.3325
v -49.3400 57.2082 -2.7616
v -44.9202 57.5963 -3.2704
v -41.5043 55.6732 -3.1752
v -51.8212 60.2796 -2.8293
v -48.9034 60.0869 -2.5185
v -46.1540 59.7657 -2.0005
v -35.6832 62.0754 -1.4088
v -34.7934 62.0754 -1.4088
v -51.4620 64.3211 -3.5343
v -49.9061 64.3211 -3.5343
v -35.6832 63.2194 -1.4088
v -34.7934 63.2194 -1.4088
v -51.1038 66.5540 -5.1070
v -51.0128 66.5540 -5.1070
v -39.0957 70.4594 -1.1986
v -38.9892 70.4594 -1.1986
v -39.0957 70.5701 -1.1986
v -38.9892 70.5701 -1.1986
v 32.4596 -61.6452 -0.7407
v 34.8568 -61.6803 0.7666
v 39.1389 -61.9901 0.8942
v 42.6481 -61.9372 0.8248
v 47.6703 -61.9061 -0.2704
v 49.2410 -61.9061 -0.2704
v 31.7775 -59.2943 0.6855
v 34.8568 -60.5284 0.7666
v 37.9445 -60.5476 -0.3928
v 44.6481 -61.2649 0.8248
v 46.5744 -60.9904 0.9677
v 50.8346 -59.6715 0.8275
v 53.2987 -58.3975 1.9254
v 30.7501 -55.4719 0.8248
v 52.4282 -56.9974 -0.7413
v 54.1612 -55.5872 0.6852
v 28.7036 -50.1125 0.8248
v 29.8383 -52.1125 0.8248
v 55.6967 -51.4719 0.8248
v 28.3515 -47.4719 0.8248
v 56.1667 -47.4719 0.8248
v 24.7993 -41.5381 2.7108
v 26.7876 -43.1116 1.1564
v 56.5514 -43.3280 1.1613
v 56.9454 -41.8988 2.7189
v 20.7714 -37.7926 2.6497
v 23.2518 -39.2643 2.0833
v 26.0938 -39.4719 0.0292
v 32.3255 -37.8998 -0.3227
v 33.9847 -37.8998 -0.3227
v 55.7987 -39.8153 1.1613
v 56.9454 -41.3775 2.7189
v 20.7714 -37.2213 2.6497
v 22.9305 -36.4551 1.9833
v 26.7297 -35.4400 0.7915
v 31.1698 -35.6423 1.0245
v 35.1630 -35.8653 0.9363
v 38.5431 -34.5475 0.8246
v 42.9305 -35.0275 1.8154
v 47.3389 -34.2898 0.6838
v 50.9305 -34.8254 -0.2497
v 54.0273 -35.7559 0.9270
v 27.8760 -32.9406 2.3717
v 30.0140 -32.9406 2.3717
v 39.2902 -31.4719 0.1096
v 42.9469 -31.4330 0.2453
v 47.4279 -32.0156 0.8532
v 50.9305 -31.4719 0.9889
v 53.9079 -31.4719 1.9300
v 39.6991 -27.4719 -0.2342
v 41.5508 -27.4719 -0.2342
v 48.2730 -27.4719 2.2733
v 51.0505 -27.4708 0.3656
v 53.7079 -27.4708 0.8068
v 40.1633 -25.3384 -0.9673
v 41.0634 -25.3384 -0.9673
v 48.3172 -23.4719 2.2107
v 51.0505 -23.4882 0.2744
v 53.7088 -23.4882 0.7656
v 48.4548 -19.4719 1.8872
v 50.9305 -19.4719 0.9029
v 53.5009 -19.4719 1.8404
v 48.3365 -15.4719 1.8448
v 50.9844 -15.5907 1.7125
v 53.1590 -17.0033 2.2776
v 48.5089 -12.9650 2.3664
v 49.6871 -12.9650 2.3664
v -47.8233 26.3674 1.9138
v -45.3911 26.2313 0.7359
v -41.0695 26.0249 0.2436
v -38.8636 26.2900 -0.0167
v -59.4487 29.7324 -0.6671
v -56.8328 29.3378 0.7296
v -53.0695 28.9264 0.8248
v -49.1218 27.6750 0.6782
v -45.3911 26.9275 0.7359
v -41.0695 27.1651 2.2436
v -37.5354 28.3087 1.2402
v -34.9073 29.8464 2.4970
v -59.4015 32.7659 0.7296
v -58.0083 31.5910 1.9995
v -36.2072 31.5612 -0.1697
v -34.6462 32.7480 1.0281
v -59.4971 36.5281 0.8248
v -33.7666 36.5281 0.8248
v -59.9773 40.5281 0.8248
v -33.1428 40.5281 0.8248
v -61.0385 44.5281 0.8248
v -32.2496 44.8522 1.1458
v -31.0314 46.4017 2.6931
v -67.3594 50.2181 2.5327
v -65.0695 49.2982 1.7491
v -62.1773 48.1301 0.5395
v -55.4588 50.4326 -1.0454
v -54.8698 50.4326 -1.0454
v -32.7252 48.2182 1.1458
v -31.0314 46.6782 2.6931
v -67.3594 50.9976 2.5327
v -64.9454 52.4098 1.7568
v -61.0908 52.2264 0.3020
v -56.9031 52.2264 0.4392
v -53.5189 52.9910 0.8618
v -49.3846 53.8265 0.8508
v -45.0695 53.5266 2.0062
v -41.0175 53.9646 0.8253
v -37.0695 53.2326 -0.1886
v -34.4090 52.2237 0.9325
v -63.5293 54.8428 2.4790
v -61.0695 54.8100 2.5279
v -57.0695 54.5836 2.7454
v -54.8347 54.5410 2.7690
v -48.8251 56.5281 -0.0686
v -44.9202 56.7596 0.2292
v -40.9929 56.1221 0.8984
v -37.0695 56.5281 1.0340
v -34.2879 56.5281 2.0540
v -51.2563 61.4472 -0.6258
v -49.0449 60.6064 -0.5178
v -46.1540 59.7657 -0.4098
v -40.1738 60.5281 1.8333
v -37.0377 60.6564 0.1073
v -34.5090 60.6564 0.9005
v -51.2563 62.8498 -0.6258
v -49.8712 62.8498 -0.6258
v -40.2888 64.5281 1.8369
v -37.0377 64.5429 0.0437
v -34.6694 64.5429 0.8340
v -39.7673 68.8868 0.9300
v -37.4213 68.8868 0.4085
v -34.8051 68.5281 2.1729
v -39.6020 72.1533 0.9930
v -37.4244 71.9778 1.1894
v -34.9734 70.7189 2.6069
v -39.5394 75.0473 2.4385
v -38.5262 75.0473 2.4385
v 48.6053 -65.8648 6.6401
v 50.9305 -66.2045 6.3036
v 53.2609 -66.0558 6.3145
v 36.4483 -61.6945 4.8248
v 38.6608 -61.9267 4.9492
v 42.0439 -61.9332 3.6989
v 48.3992 -63.4719 6.0495
v 50.9305 -63.4719 4.9704
v 53.4822 -63.4719 5.7456
v 32.6282 -57.8425 3.2689
v 34.8741 -59.2943 4.6912
v 39.8144 -61.0105 6.3655
v 43.1985 -60.2704 4.9492
v 47.3237 -59.3628 5.3250
v 50.1721 -59.5472 4.7128
v 53.8625 -59.6273 4.6676
v 32.0885 -55.4464 4.6912
v 34.1461 -56.7627 5.9355
v 47.6956 -57.1999 6.3410
v 49.1609 -57.1999 6.3410
v 55.7245 -55.4577 4.7186
v 57.2263 -54.1149 5.9812
v 28.7648 -50.0117 3.2580
v 31.0467 -51.3494 4.8221
v 33.2681 -50.0204 6.3862
v 55.6694 -51.5944 4.7186
v 57.2263 -53.0095 5.9812
v 28.5784 -47.1856 4.6847
v 30.9305 -47.9331 5.8208
v 33.2681 -48.5640 6.3862
v 54.7508 -47.4719 4.8248
v 24.7993 -41.5381 3.0440
v 26.6455 -43.1116 4.5563
v 55.7651 -43.3280 4.4625
v 56.9454 -41.8988 2.8876
v 20.7131 -37.9915 4.8248
v 23.3834 -39.1516 4.8924
v 26.8982 -39.2889 5.8097
v 30.9305 -38.0969 5.6902
v 34.9305 -38.4145 5.7438
v 37.5853 -38.2570 6.4026
v 56.3759 -39.6916 4.5181
v 57.0482 -39.6916 4.5181
v 20.7131 -37.1440 4.8248
v 23.1527 -36.5465 5.1744
v 26.9758 -35.2369 5.2026
v 30.8637 -35.4392 4.7350
v 34.9305 -36.2905 3.7438
v 38.9234 -36.7062 4.9715
v 42.9305 -36.5820 4.8248
v 47.1257 -34.8374 4.8134
v 49.5874 -33.8661 6.1392
v 55.7711 -35.6145 4.8191
v 57.1510 -37.0429 6.1486
v 27.9984 -32.9872 4.8248
v 29.8304 -32.9872 4.8248
v 48.4979 -31.1922 4.8134
v 49.5874 -32.3391 6.1392
v 55.5669 -31.4638 4.8495
v 57.5787 -30.1250 6.1993
v 48.1260 -27.4719 4.8248
v 51.8500 -26.5909 6.2054
v 54.7091 -27.7964 4.8690
v 57.5787 -29.0018 6.1993
v 48.3564 -23.5328 4.9540
v 50.6822 -23.5328 6.0986
v 53.5997 -23.4719 4.2555
v 48.3937 -19.6455 4.9540
v 50.9305 -21.0482 6.3816
v 53.5738 -19.7594 5.1410
v 47.7274 -15.4719 4.8248
v 52.3537 -14.3366 3.7373
v 53.3780 -15.5907 4.9723
v 48.2272 -11.5678 5.0420
v 50.9844 -11.5678 4.5546
v 54.0760 -11.4719 6.2156
v 48.7316 -9.1459 6.5201
v 50.9305 -8.4197 6.3027
v 54.2521 -8.3950 6.4334
v -39.6727 22.1609 6.5359
v -37.8411 22.1609 6.5359
v -47.8233 26.3674 3.1398
v -46.6046 26.3674 3.1398
v -39.9696 24.5281 5.6906
v -36.7325 24.1693 5.3913
v -34.7024 25.2634 5.9480
v -55.3416 30.1410 3.2882
v -52.9029 29.4972 4.7028
v -49.1218 27.8405 4.6138
v -45.1506 28.5905 4.7020
v -41.0091 28.2861 4.5995
v -37.0695 27.1990 3.2496
v -34.5663 28.5191 4.6987
v -59.1764 34.2577 2.9729
v -56.6905 32.6899 4.4639
v -54.1252 31.1220 5.9548
v -43.6965 31.1474 6.2643
v -42.3517 31.1474 6.2643
v -33.5197 32.5281 4.8248
v -59.1987 36.5281 3.0257
v -57.3802 36.5281 5.0257
v -33.1104 36.5281 4.8248
v -59.5581 40.5281 3.9086
v -58.1163 40.5281 5.9086
v -35.3126 42.2345 6.5619
v -34.0799 40.7519 5.0671
v -60.7015 44.1360 5.2200
v -59.0209 42.5413 6.8169
v -35.3126 42.7763 6.5619
v -33.1981 44.5890 4.7276
v -31.0314 46.4017 2.8932
v -67.3849 50.1823 4.8248
v -64.9061 49.4535 5.1675
v -61.4698 48.1752 4.8258
v -57.0695 49.8395 5.6907
v -54.3626 50.3192 6.5486
v -31.9548 48.5192 4.6907
v -30.9955 48.5192 4.6907
v -67.3849 51.0203 4.8248
v -64.8298 52.1896 4.9954
v -61.0695 52.5281 4.2418
v -57.0695 52.5281 3.7872
v -53.2653 52.5220 4.6923
v -49.0695 52.1901 4.8248
v -45.0695 52.3485 4.8248
v -42.0412 53.6774 4.8248
v -32.5006 52.3259 5.0228
v -30.9595 50.8578 6.4881
v -63.5293 54.8428 3.2616
v -61.0695 54.8100 3.2403
v -57.0695 54.5836 2.9212
v -54.8347 54.5410 2.8361
v -40.2021 56.7217 5.0642
v -38.7520 58.1842 6.5571
v -32.4574 56.5527 4.9294
v -30.6550 57.9025 6.3325
v -40.1738 60.5281 4.6031
v -37.2790 60.5156 6.0637
v -33.4072 60.4515 4.7589
v -30.6550 59.0625 6.3325
v -40.3806 64.1574 5.2080
v -36.8575 64.1574 6.0079
v -34.7765 64.5281 3.8245
v -40.4754 68.5281 4.8248
v -35.3828 67.5102 6.4640
v -34.8386 68.7174 5.0083
v -40.4675 72.5281 4.8248
v -35.8595 73.3856 3.7794
v -34.8723 72.2426 4.9975
v -40.1820 76.4396 4.8184
v -37.1435 76.4396 4.4135
v -34.4201 76.5281 6.3187
v -39.6293 79.3276 6.1474
v -36.7442 80.6078 6.2182
v -34.5238 80.5281 6.5746
v -35.1941 82.5847 6.7872
v -35.0074 82.5847 6.7872
v 48.7480 -69.6333 10.2706
v 50.9305 -69.9016 9.8564
v 54.9305 -69.9354 10.1208
v 57.0416 -69.6783 10.6231
v 48.4245 -67.3076 8.8923
v 51.5379 -67.1837 8.9220
v 54.2149 -67.5214 9.0731
v 57.0416 -69.3194 10.6231
v 36.8548 -61.5253 6.8672
v 37.1478 -61.5253 6.8672
v 48.3040 -63.0792 9.2198
v 50.9809 -63.0792 10.1917
v 53.4822 -63.4719 8.0397
v 36.7854 -59.4719 6.8946
v 38.6608 -59.5951 7.2933
v 42.9305 -58.1416 7.3504
v 47.3877 -58.9580 8.2763
v 50.1721 -59.6074 9.0148
v 53.7589 -59.3991 8.8859
v 32.7086 -54.0960 7.1493
v 35.4976 -55.1624 8.3457
v 38.9305 -55.9613 9.3787
v 42.8940 -55.4093 9.3139
v 47.3385 -56.1845 8.4786
v 50.1721 -55.8820 8.6281
v 54.7516 -55.6550 8.6769
v 57.2263 -54.1149 7.2708
v 32.7086 -52.6870 7.1493
v 35.0586 -51.5507 8.8596
v 37.7042 -50.4144 10.5698
v 43.5736 -51.4719 9.9728
v 46.9305 -51.4719 9.1668
v 50.9305 -51.4719 8.5705
v 54.6514 -51.5944 7.5337
v 57.2263 -53.0095 7.2708
v 28.8607 -45.6615 6.8819
v 30.9305 -45.9331 6.9426
v 34.7330 -47.3271 7.8528
v 38.3604 -47.4719 10.0348
v 43.5597 -47.4719 10.2124
v 46.6196 -47.7307 10.1302
v 50.8993 -47.7307 9.1946
v 53.1825 -47.4719 7.0429
v 28.3379 -43.4719 7.1074
v 30.9305 -43.4719 7.6013
v 34.9305 -43.4719 7.9204
v 39.2102 -43.7892 9.1329
v 42.8829 -43.7892 9.7934
v 46.6196 -43.3087 10.0812
v 50.8993 -43.3087 9.3415
v 53.5464 -43.4719 7.3273
v 20.7997 -37.8440 6.9174
v 21.9675 -37.8440 6.9174
v 28.2101 -40.5002 7.1445
v 30.9305 -40.0969 7.4835
v 34.9305 -40.4145 7.4441
v 38.9234 -39.5430 7.3443
v 42.9305 -39.4719 8.4558
v 46.9305 -39.4719 9.1360
v 51.3116 -39.0903 9.6421
v 54.6151 -39.0874 8.5330
v 57.1510 -38.0057 7.0513
v 20.7997 -37.2854 6.9174
v 21.9675 -37.2854 6.9174
v 28.7422 -34.1070 6.9094
v 29.0468 -34.1070 6.9094
v 40.2520 -37.3006 7.0454
v 42.9305 -37.0264 7.5703
v 46.9305 -36.4505 7.8908
v 51.2433 -35.6550 8.6598
v 54.4837 -35.9101 8.4492
v 57.1510 -37.0429 7.0513
v 28.7422 -33.3569 6.9094
v 29.0468 -33.3569 6.9094
v 48.8736 -29.6724 6.8528
v 50.9246 -31.1922 7.0905
v 54.7850 -31.4638 7.4611
v 57.5787 -30.1250 7.4706
v 48.7835 -27.4719 6.8877
v 50.6822 -27.7433 6.9106
v 54.9305 -28.9586 7.3536
v 57.5787 -29.0018 7.4706
v 48.7913 -24.9067 6.8806
v 49.1834 -24.9067 6.8806
v 48.6700 -18.4279 7.2842
v 50.9305 -19.0482 7.8004
v 53.2421 -18.6177 7.6661
v 48.3213 -15.4719 8.0462
v 50.6310 -15.6797 9.9067
v 53.6787 -15.6797 8.9296
v 48.3675 -11.4719 8.1281
v 49.5217 -11.4719 10.1281
v 55.1076 -11.4719 8.8248
v 48.7655 -7.5449 8.9808
v 50.3393 -7.3586 8.7655
v 54.4067 -7.2257 8.5545
v 48.7993 -5.1299 10.5681
v 50.9305 -4.7481 9.7945
v 53.4234 -4.8488 9.7077
v -36.3290 18.0980 10.0371
v -33.9023 18.0980 10.0371
v -40.0409 21.3209 8.8248
v -36.9421 20.5731 9.3444
v -33.9023 19.5760 10.0371
v -40.7729 24.5281 8.8248
v -35.9491 24.1693 8.7044
v -34.7024 25.2634 7.2907
v -51.4586 29.9272 6.9837
v -49.0695 29.7161 7.2296
v -46.3632 30.0463 7.2056
v -40.5856 28.5281 8.8248
v -35.9295 28.5281 10.0276
v -34.5621 28.5281 8.0276
v -55.3728 33.7887 7.2634
v -52.6030 32.8204 8.4569
v -49.0695 32.3669 9.2296
v -45.2372 32.7349 8.6059
v -40.9256 32.6158 8.7524
v -36.7438 32.6618 9.8813
v -33.8595 32.5281 8.1401
v -55.3802 36.5281 7.2146
v -53.1934 36.5281 9.2146
v -44.7961 36.5281 9.6111
v -41.0695 36.5281 8.3814
v -37.0695 36.5281 8.3004
v -33.7839 36.5281 7.5301
v -56.1163 40.5281 6.9954
v -52.7619 40.3343 9.0263
v -49.0695 41.1259 10.3074
v -45.4258 40.4002 10.2029
v -41.3447 40.6836 9.6938
v -37.0688 40.8442 8.4970
v -34.6593 39.5678 7.1492
v -59.8732 45.2080 7.1596
v -57.4404 44.1360 7.4137
v -53.0695 44.5281 8.6848
v -49.0695 44.5281 9.4336
v -44.6860 44.7769 10.1486
v -41.6052 44.7317 10.5848
v -37.0688 44.3151 8.9034
v -34.6253 45.4430 7.3568
v -67.2001 50.3770 6.8910
v -66.1304 50.3770 6.8910
v -59.8732 47.1522 7.1596
v -57.0695 47.8395 7.4511
v -53.0453 48.8027 7.8060
v -49.0695 48.5281 8.2780
v -44.6860 48.1593 9.4681
v -41.4372 48.1593 10.1266
v -37.0695 48.5281 9.3592
v -33.2030 48.8274 7.7849
v -30.9595 50.3602 6.9459
v -67.2001 50.7149 6.8910
v -66.1304 50.7149 6.8910
v -51.6959 50.6294 6.9015
v -49.0695 50.8466 7.1519
v -45.0695 51.3500 7.7966
v -40.9602 52.5916 8.1900
v -37.0695 52.5281 9.0103
v -33.0827 52.3259 7.8425
v -30.9595 50.8578 6.9459
v -39.5539 55.5175 7.2223
v -37.2790 56.7217 7.6355
v -33.0827 56.5527 7.7578
v -30.6550 57.9025 7.4261
v -36.0853 59.1740 7.1505
v -33.0695 59.4133 7.5200
v -30.6550 59.0625 7.4261
v -39.6289 65.2437 7.0919
v -38.0495 65.2437 7.0919
v -39.6227 68.5281 7.2184
v -36.8575 68.7174 7.1855
v -35.0372 70.1769 6.9012
v -39.7431 72.7687 8.5794
v -37.0695 71.9410 9.0753
v -34.7143 72.6178 8.4706
v -39.9720 76.7442 9.1795
v -38.9448 78.2216 10.7493
v -33.7581 76.5281 8.8248
v -39.4362 80.3656 9.2364
v -38.4028 80.3656 9.2364
v -33.8712 80.5281 8.8248
v -39.2432 83.4464 10.3901
v -36.7442 83.5029 8.9640
v -34.7628 83.0578 8.8248
v 48.7480 -69.6333 11.0529
v 50.9305 -69.9016 11.2673
v 54.9305 -69.9354 11.2230
v 57.0416 -69.6783 10.9940
v 48.5419 -67.4719 11.1174
v 50.9809 -67.2824 11.2760
v 54.9305 -68.6206 11.2230
v 57.0416 -69.3194 10.9940
v 48.5948 -64.1508 10.9868
v 49.6812 -64.1508 10.9868
v 48.5868 -58.7993 11.2446
v 50.9305 -58.8765 11.2764
v 53.1261 -58.0173 11.0072
v 36.8491 -53.5620 10.8781
v 38.9305 -53.9613 11.2030
v 41.5364 -54.0343 11.2758
v 48.5868 -56.9775 11.2446
v 50.9305 -56.8935 11.2764
v 53.1261 -57.1950 11.0072
v 36.8491 -53.0811 10.8781
v 38.9947 -51.6374 11.1925
v 41.5736 -51.4719 11.2445
v 40.3604 -47.4719 10.9468
v 41.5597 -47.4719 10.9468
v 47.7457 -46.5700 11.6119
v 49.5452 -46.5700 11.6119
v 40.7300 -45.3340 10.8789
v 41.5178 -45.3340 10.8789
v 47.7457 -44.5332 11.6119
v 49.5452 -44.5332 11.6119
v 52.8991 -37.5026 10.8351
v 52.9461 -37.5026 10.8351
v 52.8991 -37.4439 10.8351
v 52.9461 -37.4439 10.8351
v 48.9211 -13.5092 14.6533
v 50.6310 -14.2866 13.1219
v 53.5831 -14.4623 12.8248
v 48.9211 -13.4500 14.6533
v 50.6579 -11.8688 13.1524
v 53.8400 -11.5614 12.9209
v 48.7993 -5.9438 11.3785
v 50.9721 -7.3248 12.8484
v 53.7525 -7.4122 12.9209
v 48.7993 -5.1299 11.3785
v 51.0081 -4.7580 12.7570
v 53.4736 -4.8361 12.8248
v -36.3290 18.0980 11.2903
v -33.9023 18.0980 11.2903
v -39.7616 21.2857 11.1873
v -37.2017 20.4308 11.2388
v -33.9023 19.5760 11.2903
v -39.8728 24.5281 11.2317
v -38.0903 24.5281 11.2317
v -39.6763 28.5281 11.3634
v -37.9295 28.5281 11.3634
v -51.0807 34.5188 10.8305
v -49.0695 34.3669 10.9639
v -46.7778 34.3225 11.0045
v -39.4996 31.4177 11.3629
v -37.8600 31.4177 11.3629
v -51.1934 36.5281 10.9048
v -49.0695 36.5281 11.0740
v -46.7961 36.5281 10.9940
v -51.2236 38.8718 10.9258
v -49.0695 39.1259 10.9350
v -46.9966 38.9816 10.8707
v -40.1947 42.1206 11.1963
v -38.8251 42.1206 11.1963
v -43.0969 46.2761 10.8348
v -41.6052 44.7317 11.0156
v -38.8251 43.1872 11.1963
v -43.0969 46.5801 10.8348
v -43.0156 46.5801 10.8348
v -39.3134 74.0224 12.8248
v -37.0565 73.8133 12.9166
v -34.7102 74.0110 11.6445
v -39.3134 75.5719 12.8248
v -37.3296 76.5573 12.8255
v -34.4075 76.5281 11.8259
v -39.2432 81.4037 11.5355
v -37.1865 80.5650 12.7711
v -34.5078 80.8470 12.7339
v -39.2432 83.4464 11.5355
v -36.8848 83.5387 12.8512
v -34.7598 83.1026 12.8248
v 48.9211 -13.5092 14.8376
v 50.9305 -13.7305 14.9278
v 53.0709 -13.7794 14.9493
v 48.9211 -13.4500 14.8376
v 50.9305 -13.0673 14.9278
v 53.0709 -12.9543 14.9493
v 52.3931 -6.0390 14.9504
v 53.1617 -6.0390 14.9504
v 52.3931 -5.2472 14.9504
v 53.1617 -5.2472 14.9504
v -39.2749 74.1196 15.0478
v -38.3811 74.1196 15.0478
v -39.2749 74.8930 15.0478
v -38.3811 74.8930 15.0478
v -35.4283 82.3930 14.8743
v -35.0034 82.3930 14.8743
v -35.4283 82.6444 14.8743
v -35.0034 82.6444 14.8743
f 3 2 1
f 3 4 2
f 8 5 4
f 8 9 5
f 10 7 6
f 10 11 7
f 14 13 12
f 14 15 13
f 18 17 16
f 18 19 17
f 24 1 2
f 24 23 1
f 23 21 20
f 23 24 21
f 27 1 23
f 27 3 1
f 27 22 26
f 27 23 22
f 28 24 2
f 28 2 4
f 28 4 3
f 28 3 27
f 5 28 4
f 5 29 28
f 28 25 24
f 28 29 25
f 31 6 7
f 31 30 6
f 32 27 26
f 32 33 27
f 28 8 4
f 28 34 8
f 34 27 33
f 34 28 27
f 35 29 5
f 35 5 9
f 35 9 8
f 35 8 34
f 30 10 6
f 30 36 10
f 35 30 29
f 35 36 30
f 31 7 11
f 31 11 37
f 37 11 10
f 37 10 36
f 38 34 33
f 38 39 34
f 40 34 39
f 40 35 34
f 41 35 40
f 41 36 35
f 13 43 12
f 13 44 43
f 47 12 43
f 47 14 12
f 47 42 46
f 47 43 42
f 48 44 13
f 48 13 15
f 15 14 47
f 15 47 48
f 48 45 44
f 48 49 45
f 51 16 17
f 51 50 16
f 54 46 53
f 54 47 46
f 55 47 54
f 55 48 47
f 55 49 48
f 55 56 49
f 50 18 16
f 50 57 18
f 56 50 49
f 56 57 50
f 51 17 19
f 51 19 58
f 58 19 18
f 58 18 57
f 60 52 59
f 60 53 52
f 60 54 53
f 60 61 54
f 62 54 61
f 62 55 54
f 62 56 55
f 62 63 56
f 64 56 63
f 64 57 56
f 70 65 69
f 70 66 65
f 70 67 66
f 70 71 67
f 71 68 67
f 71 72 68
f 73 20 21
f 73 72 20
f 76 69 75
f 76 70 69
f 76 71 70
f 76 77 71
f 78 20 72
f 78 23 20
f 78 22 23
f 78 77 22
f 78 71 77
f 78 72 71
f 79 73 21
f 79 21 24
f 25 79 24
f 25 80 79
f 82 74 81
f 82 75 74
f 82 76 75
f 82 83 76
f 84 22 77
f 84 26 22
f 84 76 83
f 84 77 76
f 85 80 25
f 85 25 29
f 30 85 29
f 30 86 85
f 87 30 31
f 87 86 30
f 84 32 26
f 84 89 32
f 88 84 83
f 88 89 84
f 90 33 32
f 90 32 89
f 87 31 37
f 87 37 92
f 92 37 36
f 92 36 91
f 91 86 87
f 91 87 92
f 94 88 93
f 94 89 88
f 90 38 33
f 90 95 38
f 94 90 89
f 94 95 90
f 96 39 38
f 96 38 95
f 97 40 39
f 97 39 96
f 91 36 41
f 91 41 98
f 41 40 97
f 41 97 98
f 99 91 98
f 99 92 91
f 100 94 93
f 100 101 94
f 102 94 101
f 102 95 94
f 102 96 95
f 102 103 96
f 104 96 103
f 104 97 96
f 105 97 104
f 105 98 97
f 106 98 105
f 106 99 98
f 107 102 101
f 107 108 102
f 109 102 108
f 109 103 102
f 111 104 110
f 111 105 104
f 113 107 112
f 113 108 107
f 115 112 114
f 115 113 112
f 122 116 121
f 122 117 116
f 124 118 123
f 124 119 118
f 124 120 119
f 124 125 120
f 126 120 125
f 126 121 120
f 127 42 43
f 127 126 42
f 127 121 126
f 127 122 121
f 44 127 43
f 44 128 127
f 45 128 44
f 45 129 128
f 130 124 123
f 130 131 124
f 132 124 131
f 132 125 124
f 133 42 126
f 133 46 42
f 133 125 132
f 133 126 125
f 134 129 45
f 134 45 49
f 135 49 50
f 135 134 49
f 136 50 51
f 136 135 50
f 137 132 131
f 137 138 132
f 139 46 133
f 139 53 46
f 139 52 53
f 139 138 52
f 139 132 138
f 139 133 132
f 136 51 58
f 136 58 141
f 141 58 57
f 141 57 140
f 140 135 136
f 140 136 141
f 142 52 138
f 142 59 52
f 143 60 59
f 143 59 142
f 61 60 143
f 61 143 144
f 62 61 144
f 62 144 145
f 146 63 62
f 146 62 145
f 140 57 64
f 140 64 147
f 64 63 146
f 64 146 147
f 148 143 142
f 148 149 143
f 150 143 149
f 150 144 143
f 150 145 144
f 150 151 145
f 152 145 151
f 152 146 145
f 153 146 152
f 153 147 146
f 156 149 155
f 156 150 149
f 157 150 156
f 157 151 150
f 157 152 151
f 157 158 152
f 159 152 158
f 159 153 152
f 160 155 154
f 160 161 155
f 162 155 161
f 162 156 155
f 163 162 161
f 163 164 162
f 167 65 66
f 167 166 65
f 67 167 66
f 67 168 167
f 169 67 68
f 169 168 67
f 171 65 166
f 171 69 65
f 171 165 170
f 171 166 165
f 172 171 166
f 172 166 167
f 174 169 68
f 174 68 72
f 173 168 169
f 173 169 174
f 175 72 73
f 175 174 72
f 177 69 171
f 177 75 69
f 177 74 75
f 177 176 74
f 177 170 176
f 177 171 170
f 175 73 79
f 175 79 179
f 178 174 175
f 178 175 179
f 180 79 80
f 180 179 79
f 181 74 176
f 181 81 74
f 182 82 81
f 182 81 181
f 183 83 82
f 183 82 182
f 180 80 85
f 180 85 184
f 185 85 86
f 185 184 85
f 183 88 83
f 183 187 88
f 186 183 182
f 186 187 183
f 188 185 86
f 188 86 91
f 189 91 92
f 189 188 91
f 190 88 187
f 190 93 88
f 189 92 99
f 189 99 192
f 191 188 189
f 191 189 192
f 190 100 93
f 190 193 100
f 194 101 100
f 194 100 193
f 196 104 103
f 196 103 195
f 192 99 106
f 192 106 198
f 106 105 197
f 106 197 198
f 198 197 191
f 198 191 192
f 194 107 101
f 194 200 107
f 195 103 109
f 195 109 202
f 109 108 201
f 109 201 202
f 196 110 104
f 196 203 110
f 202 196 195
f 202 203 196
f 204 197 105
f 204 105 111
f 111 110 203
f 111 203 204
f 205 197 204
f 205 198 197
f 207 107 200
f 207 112 107
f 207 199 206
f 207 200 199
f 201 108 113
f 201 113 208
f 209 201 208
f 209 202 201
f 210 204 203
f 210 211 204
f 207 114 112
f 207 213 114
f 212 207 206
f 212 213 207
f 208 113 115
f 208 115 214
f 214 115 114
f 214 114 213
f 215 208 214
f 215 209 208
f 217 212 216
f 217 213 212
f 219 216 218
f 219 217 216
f 224 116 117
f 224 223 116
f 226 118 119
f 226 225 118
f 225 221 220
f 225 226 221
f 227 119 120
f 227 226 119
f 228 116 223
f 228 121 116
f 121 227 120
f 121 228 227
f 228 222 227
f 228 223 222
f 224 117 122
f 224 122 229
f 228 223 224
f 228 224 229
f 231 118 225
f 231 123 118
f 232 229 122
f 232 122 127
f 128 232 127
f 128 233 232
f 129 233 128
f 129 234 233
f 231 130 123
f 231 236 130
f 235 231 230
f 235 236 231
f 237 131 130
f 237 130 236
f 234 129 134
f 234 134 238
f 239 134 135
f 239 238 134
f 237 137 131
f 237 241 137
f 240 237 236
f 240 241 237
f 242 138 137
f 242 137 241
f 243 239 135
f 243 135 140
f 242 142 138
f 242 245 142
f 244 242 241
f 244 245 242
f 243 140 147
f 243 147 246
f 245 148 142
f 245 247 148
f 248 149 148
f 248 148 247
f 246 147 153
f 246 153 249
f 248 155 149
f 248 251 155
f 251 154 155
f 251 250 154
f 250 248 247
f 250 251 248
f 157 156 252
f 157 252 253
f 158 157 253
f 158 253 254
f 249 153 159
f 249 159 255
f 159 158 254
f 159 254 255
f 250 160 154
f 250 256 160
f 257 161 160
f 257 160 256
f 252 156 162
f 252 162 258
f 258 253 252
f 258 259 253
f 259 254 253
f 259 260 254
f 261 254 260
f 261 255 254
f 257 163 161
f 257 263 163
f 262 257 256
f 262 263 257
f 258 162 164
f 258 164 264
f 164 163 263
f 164 263 264
f 265 258 264
f 265 259 258
f 267 262 266
f 267 263 262
f 269 266 268
f 269 267 266
f 271 268 270
f 271 269 268
f 273 165 166
f 273 272 165
f 168 274 167
f 168 275 274
f 276 165 272
f 276 170 165
f 273 166 171
f 273 171 277
f 276 272 273
f 276 273 277
f 274 172 167
f 274 278 172
f 172 277 171
f 172 278 277
f 275 168 173
f 275 173 279
f 278 274 275
f 278 275 279
f 280 173 174
f 280 279 173
f 276 176 170
f 276 283 176
f 284 283 276
f 284 276 277
f 285 278 279
f 285 279 286
f 280 174 178
f 280 178 287
f 288 178 179
f 288 287 178
f 289 179 180
f 289 288 179
f 288 282 281
f 288 289 282
f 283 181 176
f 283 290 181
f 291 182 181
f 291 181 290
f 290 283 284
f 290 284 291
f 292 289 180
f 292 180 184
f 293 184 185
f 293 292 184
f 291 186 182
f 291 295 186
f 296 187 186
f 296 186 295
f 297 293 185
f 297 185 188
f 299 294 298
f 299 295 294
f 296 190 187
f 296 300 190
f 299 296 295
f 299 300 296
f 297 188 191
f 297 191 301
f 303 298 302
f 303 299 298
f 300 193 190
f 300 304 193
f 303 300 299
f 303 304 300
f 305 194 193
f 305 193 304
f 306 301 191
f 306 191 197
f 307 197 198
f 307 306 197
f 309 302 308
f 309 303 302
f 310 303 309
f 310 304 303
f 311 194 305
f 311 200 194
f 311 199 200
f 311 310 199
f 311 304 310
f 311 305 304
f 203 202 312
f 203 312 313
f 307 198 205
f 307 205 315
f 205 204 314
f 205 314 315
f 315 314 306
f 315 306 307
f 317 308 316
f 317 309 308
f 318 199 310
f 318 206 199
f 312 202 209
f 312 209 320
f 313 210 203
f 313 321 210
f 321 312 320
f 321 313 312
f 314 204 211
f 314 211 322
f 322 211 210
f 322 210 321
f 323 206 318
f 323 212 206
f 323 318 319
f 323 319 324
f 325 214 213
f 325 213 324
f 320 209 215
f 320 215 326
f 215 214 325
f 215 325 326
f 323 216 212
f 323 327 216
f 324 213 217
f 324 217 328
f 327 323 324
f 327 324 328
f 329 324 328
f 329 325 324
f 332 216 327
f 332 218 216
f 328 217 219
f 328 219 333
f 219 218 332
f 219 332 333
f 333 332 327
f 333 327 328
f 334 328 333
f 334 329 328
f 335 331 330
f 335 336 331
f 221 337 220
f 221 338 337
f 340 222 223
f 340 339 222
f 341 220 337
f 341 225 220
f 338 221 226
f 338 226 342
f 341 337 338
f 341 338 342
f 339 227 222
f 339 343 227
f 227 342 226
f 227 343 342
f 340 223 228
f 340 228 344
f 343 339 340
f 343 340 344
f 229 344 228
f 229 345 344
f 341 231 225
f 341 349 231
f 231 348 230
f 231 349 348
f 350 349 341
f 350 341 342
f 350 342 343
f 350 343 351
f 351 343 344
f 351 344 352
f 345 229 232
f 345 232 353
f 352 344 345
f 352 345 353
f 354 232 233
f 354 353 232
f 353 346 345
f 353 354 346
f 234 354 233
f 234 355 354
f 354 347 346
f 354 355 347
f 348 235 230
f 348 356 235
f 357 236 235
f 357 235 356
f 357 356 348
f 357 348 349
f 358 355 234
f 358 234 238
f 359 238 239
f 359 358 238
f 357 240 236
f 357 360 240
f 361 241 240
f 361 240 360
f 362 359 239
f 362 239 243
f 361 244 241
f 361 364 244
f 363 361 360
f 363 364 361
f 365 245 244
f 365 244 364
f 366 362 243
f 366 243 246
f 368 363 367
f 368 364 363
f 369 245 365
f 369 247 245
f 368 365 364
f 368 369 365
f 370 366 246
f 370 246 249
f 371 368 367
f 371 372 368
f 369 250 247
f 369 373 250
f 373 368 372
f 373 369 368
f 374 370 249
f 374 249 255
f 376 371 375
f 376 372 371
f 373 256 250
f 373 377 256
f 260 259 379
f 260 379 380
f 374 255 261
f 374 261 381
f 261 260 380
f 261 380 381
f 377 262 256
f 377 382 262
f 382 377 378
f 382 378 383
f 384 264 263
f 384 263 383
f 379 259 265
f 379 265 385
f 265 264 384
f 265 384 385
f 382 266 262
f 382 386 266
f 383 263 267
f 383 267 387
f 386 382 383
f 386 383 387
f 388 383 387
f 388 384 383
f 391 266 386
f 391 268 266
f 392 387 267
f 392 267 269
f 393 390 389
f 393 394 390
f 395 268 391
f 395 270 268
f 396 392 269
f 396 269 271
f 271 270 395
f 271 395 396
f 396 395 391
f 396 391 392
f 399 398 397
f 399 400 398
f 278 401 277
f 278 402 401
f 280 403 279
f 280 404 403
f 282 405 281
f 282 406 405
f 401 284 277
f 401 407 284
f 402 278 285
f 402 285 408
f 408 407 401
f 408 401 402
f 403 286 279
f 403 409 286
f 409 285 286
f 409 408 285
f 409 402 408
f 409 403 402
f 404 280 287
f 404 287 410
f 411 281 405
f 411 288 281
f 288 410 287
f 288 411 410
f 412 406 282
f 412 282 289
f 411 405 406
f 411 406 412
f 414 284 407
f 414 291 284
f 415 412 289
f 415 289 292
f 293 415 292
f 293 416 415
f 415 413 412
f 415 416 413
f 418 291 414
f 418 295 291
f 418 294 295
f 418 417 294
f 419 416 293
f 419 293 297
f 420 294 417
f 420 298 294
f 419 297 301
f 419 301 421
f 420 302 298
f 420 423 302
f 421 301 306
f 421 306 424
f 423 308 302
f 423 428 308
f 428 422 427
f 428 423 422
f 430 310 309
f 430 309 429
f 431 424 306
f 431 306 314
f 432 424 431
f 432 425 424
f 434 426 433
f 434 427 426
f 428 316 308
f 428 435 316
f 434 428 427
f 434 435 428
f 429 309 317
f 429 317 436
f 317 316 435
f 317 435 436
f 430 318 310
f 430 437 318
f 437 429 436
f 437 430 429
f 319 318 437
f 319 437 438
f 441 321 320
f 441 320 440
f 431 314 322
f 431 322 442
f 322 321 441
f 322 441 442
f 444 435 443
f 444 436 435
f 445 319 438
f 445 324 319
f 445 438 439
f 445 439 446
f 440 320 326
f 440 326 447
f 326 325 446
f 326 446 447
f 446 439 440
f 446 440 447
f 448 440 447
f 448 441 440
f 449 441 448
f 449 442 441
f 450 324 445
f 450 328 324
f 451 446 325
f 451 325 329
f 451 450 445
f 451 445 446
f 452 448 447
f 452 453 448
f 454 330 331
f 454 453 330
f 454 448 453
f 454 449 448
f 455 328 450
f 455 333 328
f 456 451 329
f 456 329 334
f 334 333 455
f 334 455 456
f 456 455 450
f 456 450 451
f 458 330 453
f 458 335 330
f 457 453 452
f 457 458 453
f 459 454 331
f 459 331 336
f 459 336 335
f 459 335 458
f 461 457 460
f 461 458 457
f 461 459 458
f 461 462 459
f 464 460 463
f 464 461 460
f 465 461 464
f 465 462 461
f 467 463 466
f 467 464 463
f 346 469 345
f 346 470 469
f 347 470 346
f 347 471 470
f 350 472 349
f 350 473 472
f 351 473 350
f 351 474 473
f 475 351 352
f 475 474 351
f 469 353 345
f 469 476 353
f 476 352 353
f 476 475 352
f 476 468 475
f 476 469 468
f 476 469 470
f 476 470 477
f 478 471 347
f 478 347 355
f 477 470 471
f 477 471 478
f 472 357 349
f 472 480 357
f 481 480 472
f 481 472 473
f 482 478 355
f 482 355 358
f 359 482 358
f 359 483 482
f 482 479 478
f 482 483 479
f 480 360 357
f 480 484 360
f 485 483 359
f 485 359 362
f 484 363 360
f 484 486 363
f 485 362 366
f 485 366 487
f 486 367 363
f 486 488 367
f 487 366 370
f 487 370 489
f 488 371 367
f 488 493 371
f 495 373 372
f 495 372 494
f 496 489 370
f 496 370 374
f 497 489 496
f 497 490 489
f 498 492 491
f 498 499 492
f 493 375 371
f 493 500 375
f 500 492 499
f 500 493 492
f 494 372 376
f 494 376 501
f 501 376 375
f 501 375 500
f 495 377 373
f 495 502 377
f 501 495 494
f 501 502 495
f 378 377 502
f 378 502 503
f 506 380 379
f 506 379 505
f 496 374 381
f 496 381 507
f 381 380 506
f 381 506 507
f 508 500 499
f 508 509 500
f 510 500 509
f 510 501 500
f 511 501 510
f 511 502 501
f 512 378 503
f 512 383 378
f 512 503 504
f 512 504 513
f 505 379 385
f 505 385 514
f 385 384 513
f 385 513 514
f 513 504 505
f 513 505 514
f 515 505 514
f 515 506 505
f 516 506 515
f 516 507 506
f 518 383 512
f 518 387 383
f 387 517 386
f 387 518 517
f 519 513 384
f 519 384 388
f 388 387 518
f 388 518 519
f 519 518 512
f 519 512 513
f 520 515 514
f 520 521 515
f 522 389 390
f 522 521 389
f 522 515 521
f 522 516 515
f 523 386 517
f 523 391 386
f 524 518 387
f 524 387 392
f 392 391 523
f 392 523 524
f 524 523 517
f 524 517 518
f 526 389 521
f 526 393 389
f 525 521 520
f 525 526 521
f 527 522 390
f 527 390 394
f 527 394 393
f 527 393 526
f 398 528 397
f 398 529 528
f 528 526 525
f 528 529 526
f 530 526 529
f 530 527 526
f 528 399 397
f 528 531 399
f 529 398 400
f 529 400 532
f 400 399 531
f 400 531 532
f 533 529 532
f 533 530 529
f 535 531 534
f 535 532 531
f 403 539 402
f 403 540 539
f 541 403 404
f 541 540 403
f 543 536 542
f 543 537 536
f 543 538 537
f 543 544 538
f 539 408 402
f 539 546 408
f 408 545 407
f 408 546 545
f 541 404 410
f 541 410 548
f 547 540 541
f 547 541 548
f 411 548 410
f 411 549 548
f 550 411 412
f 550 549 411
f 550 542 549
f 550 543 542
f 413 550 412
f 413 551 550
f 551 543 550
f 551 544 543
f 545 414 407
f 545 552 414
f 553 552 545
f 553 545 546
f 555 554 549
f 555 549 550
f 556 551 413
f 556 413 416
f 552 418 414
f 552 559 418
f 418 558 417
f 418 559 558
f 556 416 419
f 556 419 561
f 562 556 561
f 562 557 556
f 558 420 417
f 558 563 420
f 564 563 558
f 564 558 559
f 564 559 560
f 564 560 565
f 561 419 421
f 561 421 566
f 563 423 420
f 563 568 423
f 568 422 423
f 568 567 422
f 569 566 421
f 569 421 424
f 570 424 425
f 570 569 424
f 567 427 422
f 567 572 427
f 572 426 427
f 572 571 426
f 573 572 567
f 573 567 568
f 570 425 432
f 570 432 578
f 432 431 577
f 432 577 578
f 577 569 570
f 577 570 578
f 579 426 571
f 579 433 426
f 580 434 433
f 580 433 579
f 581 435 434
f 581 434 580
f 580 572 573
f 580 573 581
f 581 573 574
f 581 574 582
f 583 437 436
f 583 436 582
f 583 582 574
f 583 574 575
f 438 437 583
f 438 583 584
f 583 575 576
f 583 576 584
f 439 438 584
f 439 584 585
f 586 440 439
f 586 439 585
f 588 577 431
f 588 431 442
f 589 577 588
f 589 578 577
f 581 443 435
f 581 590 443
f 582 436 444
f 582 444 591
f 591 444 443
f 591 443 590
f 586 447 440
f 586 592 447
f 592 586 587
f 592 587 593
f 588 442 449
f 588 449 594
f 592 452 447
f 592 596 452
f 598 594 449
f 598 449 454
f 599 594 598
f 599 595 594
f 600 452 596
f 600 457 452
f 602 598 454
f 602 454 459
f 602 601 597
f 602 597 598
f 603 457 600
f 603 460 457
f 604 603 600
f 604 600 601
f 602 459 462
f 602 462 605
f 604 601 602
f 604 602 605
f 606 460 603
f 606 463 460
f 605 462 465
f 605 465 608
f 465 464 607
f 465 607 608
f 606 466 463
f 606 609 466
f 607 464 467
f 607 467 610
f 467 466 609
f 467 609 610
f 611 607 610
f 611 608 607
f 612 610 609
f 612 613 610
f 613 611 610
f 613 614 611
f 618 468 469
f 618 617 468
f 619 616 615
f 619 620 616
f 474 622 473
f 474 623 622
f 617 475 468
f 617 624 475
f 624 474 475
f 624 623 474
f 618 469 476
f 618 476 625
f 624 617 618
f 624 618 625
f 477 625 476
f 477 626 625
f 627 477 478
f 627 626 477
f 627 619 626
f 627 620 619
f 479 627 478
f 479 628 627
f 627 621 620
f 627 628 621
f 622 481 473
f 622 630 481
f 481 629 480
f 481 630 629
f 631 630 622
f 631 622 623
f 633 632 625
f 633 625 626
f 634 628 479
f 634 479 483
f 629 484 480
f 629 635 484
f 636 635 629
f 636 629 630
f 637 634 483
f 637 483 485
f 635 486 484
f 635 638 486
f 638 635 636
f 638 636 639
f 637 485 487
f 637 487 641
f 638 488 486
f 638 642 488
f 643 642 638
f 643 638 639
f 645 641 487
f 645 487 489
f 644 640 641
f 644 641 645
f 646 489 490
f 646 645 489
f 648 491 492
f 648 647 491
f 649 488 642
f 649 493 488
f 649 492 493
f 649 648 492
f 646 490 497
f 646 497 653
f 497 496 652
f 497 652 653
f 652 645 646
f 652 646 653
f 654 491 647
f 654 498 491
f 655 499 498
f 655 498 654
f 656 655 648
f 656 648 649
f 656 649 650
f 656 650 657
f 657 650 651
f 657 651 658
f 503 502 658
f 503 658 659
f 504 503 659
f 504 659 660
f 661 505 504
f 661 504 660
f 662 652 496
f 662 496 507
f 663 652 662
f 663 653 652
f 664 499 655
f 664 508 499
f 509 508 664
f 509 664 665
f 664 655 656
f 664 656 665
f 666 510 509
f 666 509 665
f 665 656 657
f 665 657 666
f 667 658 502
f 667 502 511
f 667 511 510
f 667 510 666
f 667 666 657
f 667 657 658
f 661 514 505
f 661 668 514
f 662 507 516
f 662 516 670
f 668 520 514
f 668 672 520
f 672 668 669
f 672 669 673
f 674 670 516
f 674 516 522
f 675 670 674
f 675 671 670
f 672 525 520
f 672 676 525
f 676 672 673
f 676 673 677
f 678 674 522
f 678 522 527
f 677 673 674
f 677 674 678
f 679 525 676
f 679 528 525
f 678 527 530
f 678 530 681
f 680 677 678
f 680 678 681
f 679 531 528
f 679 682 531
f 681 530 533
f 681 533 684
f 533 532 683
f 533 683 684
f 682 534 531
f 682 685 534
f 683 532 535
f 683 535 686
f 535 534 685
f 535 685 686
f 687 683 686
f 687 684 683
f 688 686 685
f 688 689 686
f 689 687 686
f 689 690 687
f 691 690 689
f 691 692 690
f 537 697 536
f 537 698 697
f 697 694 693
f 697 698 694
f 538 698 537
f 538 699 698
f 699 694 698
f 699 695 694
f 700 695 699
f 700 696 695
f 702 539 540
f 702 701 539
f 703 536 697
f 703 542 536
f 705 699 538
f 705 538 544
f 705 704 698
f 705 698 699
f 706 539 701
f 706 546 539
f 702 540 547
f 702 547 707
f 706 701 702
f 706 702 707
f 708 547 548
f 708 707 547
f 709 542 703
f 709 549 542
f 549 708 548
f 549 709 708
f 550 549 709
f 550 709 710
f 710 709 703
f 710 703 704
f 705 544 551
f 705 551 711
f 711 710 704
f 711 704 705
f 706 553 546
f 706 713 553
f 553 712 552
f 553 713 712
f 714 713 706
f 714 706 707
f 714 707 708
f 714 708 715
f 709 549 554
f 709 554 716
f 716 715 708
f 716 708 709
f 710 555 550
f 710 717 555
f 555 716 554
f 555 717 716
f 717 709 716
f 717 710 709
f 718 711 551
f 718 551 556
f 719 556 557
f 719 718 556
f 720 552 712
f 720 559 552
f 560 559 720
f 560 720 721
f 721 720 712
f 721 712 713
f 724 723 715
f 724 715 716
f 724 716 717
f 724 717 725
f 725 717 718
f 725 718 726
f 719 557 562
f 719 562 727
f 727 562 561
f 727 561 726
f 726 718 719
f 726 719 727
f 564 728 563
f 564 729 728
f 730 560 721
f 730 565 560
f 565 729 564
f 565 730 729
f 730 721 722
f 730 722 731
f 733 732 723
f 733 723 724
f 734 733 724
f 734 724 725
f 726 561 566
f 726 566 735
f 735 734 725
f 735 725 726
f 728 568 563
f 728 736 568
f 737 736 728
f 737 728 729
f 738 737 729
f 738 729 730
f 738 730 731
f 738 731 739
f 741 740 732
f 741 732 733
f 743 735 566
f 743 566 569
f 742 734 735
f 742 735 743
f 745 571 572
f 745 744 571
f 746 568 736
f 746 573 568
f 574 573 746
f 574 746 747
f 746 736 737
f 746 737 747
f 575 574 747
f 575 747 748
f 748 747 737
f 748 737 738
f 576 575 748
f 576 748 749
f 749 748 738
f 749 738 739
f 750 749 739
f 750 739 740
f 750 740 741
f 750 741 751
f 751 741 742
f 751 742 752
f 743 569 577
f 743 577 753
f 752 742 743
f 752 743 753
f 754 577 578
f 754 753 577
f 744 579 571
f 744 755 579
f 745 572 580
f 745 580 756
f 756 580 579
f 756 579 755
f 755 744 745
f 755 745 756
f 758 581 582
f 758 757 581
f 759 576 749
f 759 584 576
f 585 584 759
f 585 759 760
f 759 749 750
f 759 750 760
f 761 586 585
f 761 585 760
f 760 750 751
f 760 751 761
f 587 586 761
f 587 761 762
f 761 751 752
f 761 752 762
f 754 578 589
f 754 589 764
f 764 589 588
f 764 588 763
f 764 763 753
f 764 753 754
f 757 590 581
f 757 765 590
f 758 582 591
f 758 591 766
f 766 591 590
f 766 590 765
f 765 757 758
f 765 758 766
f 768 587 762
f 768 593 587
f 593 767 592
f 593 768 767
f 769 763 588
f 769 588 594
f 769 768 762
f 769 762 763
f 595 769 594
f 595 770 769
f 767 596 592
f 767 771 596
f 772 771 767
f 772 767 768
f 773 598 597
f 773 597 772
f 773 772 768
f 773 768 769
f 770 595 599
f 770 599 774
f 599 598 773
f 599 773 774
f 773 769 770
f 773 770 774
f 775 596 771
f 775 600 596
f 776 772 597
f 776 597 601
f 601 600 775
f 601 775 776
f 776 775 771
f 776 771 772
f 604 777 603
f 604 778 777
f 779 604 605
f 779 778 604
f 777 606 603
f 777 780 606
f 781 780 777
f 781 777 778
f 779 605 608
f 779 608 782
f 782 781 778
f 782 778 779
f 780 609 606
f 780 783 609
f 784 783 780
f 784 780 781
f 782 608 611
f 782 611 785
f 783 612 609
f 783 786 612
f 787 613 612
f 787 612 786
f 786 783 784
f 786 784 787
f 785 611 614
f 785 614 788
f 788 614 613
f 788 613 787
f 789 787 786
f 789 790 787
f 791 787 790
f 791 788 787
f 616 794 615
f 616 795 794
f 796 792 795
f 796 793 792
f 797 615 794
f 797 619 615
f 798 795 616
f 798 616 620
f 799 620 621
f 799 798 620
f 624 800 623
f 624 801 800
f 802 624 625
f 802 801 624
f 803 619 797
f 803 626 619
f 805 799 621
f 805 621 628
f 804 798 799
f 804 799 805
f 800 631 623
f 800 807 631
f 631 806 630
f 631 807 806
f 808 807 800
f 808 800 801
f 802 625 632
f 802 632 809
f 808 801 802
f 808 802 809
f 803 633 626
f 803 810 633
f 810 632 633
f 810 809 632
f 805 628 634
f 805 634 812
f 812 811 804
f 812 804 805
f 806 636 630
f 806 813 636
f 814 813 806
f 814 806 807
f 815 809 810
f 815 810 816
f 817 816 810
f 817 810 811
f 818 812 634
f 818 634 637
f 817 811 812
f 817 812 818
f 819 636 813
f 819 639 636
f 820 819 813
f 820 813 814
f 823 822 815
f 823 815 816
f 824 823 816
f 824 816 817
f 825 818 637
f 825 637 641
f 825 641 640
f 825 640 824
f 825 824 817
f 825 817 818
f 819 643 639
f 819 827 643
f 643 826 642
f 643 827 826
f 828 827 819
f 828 819 820
f 828 820 821
f 828 821 829
f 829 821 822
f 829 822 830
f 830 822 823
f 830 823 831
f 824 640 644
f 824 644 832
f 833 644 645
f 833 832 644
f 835 647 648
f 835 834 647
f 836 642 826
f 836 649 642
f 650 649 836
f 650 836 837
f 837 836 826
f 837 826 827
f 651 650 837
f 651 837 838
f 837 827 828
f 837 828 838
f 839 838 828
f 839 828 829
f 840 839 829
f 840 829 830
f 841 831 832
f 841 832 842
f 833 645 652
f 833 652 843
f 842 832 833
f 842 833 843
f 844 652 653
f 844 843 652
f 845 647 834
f 845 654 647
f 846 835 648
f 846 648 655
f 846 655 654
f 846 654 845
f 845 834 835
f 845 835 846
f 847 651 838
f 847 658 651
f 659 658 847
f 659 847 848
f 847 838 839
f 847 839 848
f 660 659 848
f 660 848 849
f 849 848 839
f 849 839 840
f 661 660 849
f 661 849 850
f 849 840 841
f 849 841 850
f 850 841 842
f 850 842 851
f 851 842 843
f 851 843 852
f 844 653 663
f 844 663 853
f 853 663 662
f 853 662 852
f 852 843 844
f 852 844 853
f 854 661 850
f 854 668 661
f 669 668 854
f 669 854 855
f 854 850 851
f 854 851 855
f 856 852 662
f 856 662 670
f 856 855 851
f 856 851 852
f 671 856 670
f 671 857 856
f 858 669 855
f 858 673 669
f 674 673 858
f 674 858 859
f 858 855 856
f 858 856 859
f 857 671 675
f 857 675 860
f 675 674 859
f 675 859 860
f 859 856 857
f 859 857 860
f 677 861 676
f 677 862 861
f 861 679 676
f 861 863 679
f 862 677 680
f 862 680 864
f 863 861 862
f 863 862 864
f 865 680 681
f 865 864 680
f 863 682 679
f 863 866 682
f 867 866 863
f 867 863 864
f 865 681 684
f 865 684 868
f 867 864 865
f 867 865 868
f 866 685 682
f 866 869 685
f 868 684 687
f 868 687 871
f 869 688 685
f 869 872 688
f 873 689 688
f 873 688 872
f 872 869 870
f 872 870 873
f 871 687 690
f 871 690 874
f 876 689 873
f 876 691 689
f 875 873 872
f 875 876 873
f 874 690 692
f 874 692 877
f 877 692 691
f 877 691 876
f 879 693 694
f 879 878 693
f 695 879 694
f 695 880 879
f 696 880 695
f 696 881 880
f 882 693 878
f 882 697 693
f 883 882 878
f 883 878 879
f 699 698 883
f 699 883 884
f 884 883 879
f 884 879 880
f 881 696 700
f 881 700 885
f 700 699 884
f 700 884 885
f 885 884 880
f 885 880 881
f 886 697 882
f 886 703 697
f 887 883 698
f 887 698 704
f 887 704 703
f 887 703 886
f 887 886 882
f 887 882 883
f 710 888 709
f 710 889 888
f 711 889 710
f 711 890 889
f 714 891 713
f 714 892 891
f 893 714 715
f 893 892 714
f 894 709 888
f 894 716 709
f 717 716 894
f 717 894 895
f 894 888 889
f 894 889 895
f 896 890 711
f 896 711 718
f 896 718 717
f 896 717 895
f 895 889 890
f 895 890 896
f 891 721 713
f 891 897 721
f 722 721 897
f 722 897 898
f 897 891 892
f 897 892 898
f 893 715 723
f 893 723 899
f 898 892 893
f 898 893 899
f 900 722 898
f 900 731 722
f 901 899 723
f 901 723 732
f 900 898 899
f 900 899 901
f 903 733 734
f 903 902 733
f 904 731 900
f 904 739 731
f 905 901 732
f 905 732 740
f 740 739 904
f 740 904 905
f 904 900 901
f 904 901 905
f 906 733 902
f 906 741 733
f 903 734 742
f 903 742 907
f 907 742 741
f 907 741 906
f 906 902 903
f 906 903 907
f 909 752 753
f 909 908 752
f 910 752 908
f 910 762 752
f 909 753 763
f 909 763 911
f 763 762 910
f 763 910 911
f 910 908 909
f 910 909 911
f 914 781 782
f 914 913 781
f 913 784 781
f 913 916 784
f 915 913 912
f 915 916 913
f 914 782 785
f 914 785 917
f 919 784 916
f 919 787 784
f 787 918 786
f 787 919 918
f 920 917 785
f 920 785 788
f 919 916 917
f 919 917 920
f 918 789 786
f 918 921 789
f 790 789 921
f 790 921 922
f 922 921 918
f 922 918 919
f 920 788 791
f 920 791 923
f 791 790 922
f 791 922 923
f 793 924 792
f 793 925 924
f 927 792 924
f 927 795 792
f 795 926 794
f 795 927 926
f 925 793 796
f 925 796 928
f 796 795 927
f 796 927 928
f 928 927 924
f 928 924 925
f 929 794 926
f 929 797 794
f 930 927 795
f 930 795 798
f 930 929 926
f 930 926 927
f 929 803 797
f 929 931 803
f 930 798 804
f 930 804 932
f 931 929 930
f 931 930 932
f 808 933 807
f 808 934 933
f 935 808 809
f 935 934 808
f 936 803 931
f 936 810 803
f 937 932 804
f 937 804 811
f 811 810 936
f 811 936 937
f 936 931 932
f 936 932 937
f 933 814 807
f 933 938 814
f 939 938 933
f 939 933 934
f 935 809 815
f 935 815 940
f 940 939 934
f 940 934 935
f 941 814 938
f 941 820 814
f 821 820 941
f 821 941 942
f 941 938 939
f 941 939 942
f 943 940 815
f 943 815 822
f 943 822 821
f 943 821 942
f 943 942 939
f 943 939 940
f 945 823 824
f 945 944 823
f 944 831 823
f 944 947 831
f 831 946 830
f 831 947 946
f 945 824 832
f 945 832 948
f 948 832 831
f 948 831 947
f 948 947 944
f 948 944 945
f 949 830 946
f 949 840 830
f 950 947 831
f 950 831 841
f 841 840 949
f 841 949 950
f 950 949 946
f 950 946 947
f 867 951 866
f 867 952 951
f 953 867 868
f 953 952 867
f 951 869 866
f 951 954 869
f 870 869 954
f 870 954 955
f 953 868 871
f 953 871 956
f 955 952 953
f 955 953 956
f 958 870 955
f 958 873 870
f 873 957 872
f 873 958 957
f 956 871 874
f 956 874 959
f 958 955 956
f 958 956 959
f 957 875 872
f 957 960 875
f 961 876 875
f 961 875 960
f 961 960 957
f 961 957 958
f 959 874 877
f 959 877 962
f 962 877 876
f 962 876 961
f 964 912 913
f 964 963 912
f 965 913 914
f 965 964 913
f 963 915 912
f 963 966 915
f 967 916 915
f 967 915 966
f 966 963 964
f 966 964 967
f 968 965 914
f 968 914 917
f 968 917 916
f 968 916 967
f 967 964 965
f 967 965 968
f 920 969 919
f 920 970 969
f 969 922 919
f 969 971 922
f 970 920 923
f 970 923 972
f 923 922 971
f 923 971 972
f 971 969 970
f 971 970 972
f 974 951 952
f 974 973 951
f 975 951 973
f 975 954 951
f 976 974 952
f 976 952 955
f 976 955 954
f 976 954 975
f 975 973 974
f 975 974 976
f 959 977 958
f 959 978 977
f 977 961 958
f 977 979 961
f 978 959 962
f 978 962 980
f 962 961 979
f 962 979 980
f 979 977 978
f 979 978 980
