# parsimony mesh: cplx_CPLX0-8185 (source /Users/eranagmon/code/v2e-cplx/workspace/studies/ecoli-3d/viz/3d/structures/cplx_CPLX0-8185.pdb)
# atoms: 1000  voxel: 4 Å  verts: 840  tris: 1712
v 45.5099 -49.1789 -53.6265
v 45.9051 -49.1789 -53.6265
v 45.5099 -48.6652 -53.6265
v 45.9051 -48.6652 -53.6265
v 45.5099 -49.1789 -52.9245
v 47.2586 -49.2711 -51.5640
v 50.0382 -49.3632 -50.2035
v 45.5099 -48.6652 -52.9245
v 47.3431 -47.5771 -51.5289
v 51.4645 -46.5557 -50.6578
v 53.8866 -45.0855 -50.1069
v 49.0192 -44.0593 -50.0932
v 51.6039 -43.6253 -50.4098
v 53.8866 -43.9484 -50.1069
v -75.2111 74.3312 -50.3324
v -73.7971 74.3312 -50.3324
v -75.4598 77.2390 -50.6958
v -72.4367 77.2423 -51.0791
v -69.7682 78.5779 -50.5243
v -74.9994 79.9324 -50.2489
v -72.3961 80.3745 -50.8397
v -69.7682 80.0596 -50.5243
v 49.5287 -52.8224 -45.5839
v 51.6039 -52.8249 -45.5734
v 53.6268 -52.7848 -45.5009
v 45.3532 -49.1433 -46.3683
v 47.7371 -50.5866 -47.3095
v 51.5978 -51.0095 -46.8758
v 53.6268 -52.6558 -45.5009
v 45.2238 -46.7610 -46.3606
v 47.4758 -46.0806 -47.2932
v 51.5978 -46.4628 -47.5139
v 53.8866 -45.0855 -49.1577
v 45.3479 -44.5519 -45.7661
v 47.6170 -44.3056 -47.1514
v 51.6039 -43.6253 -48.5306
v 53.8866 -43.9484 -49.1577
v -74.8577 70.8339 -46.2656
v -72.3961 70.7450 -46.2258
v -70.1517 70.9855 -45.6891
v -78.5656 74.9571 -45.9448
v -76.3678 73.3108 -47.4385
v -72.3031 73.1231 -47.3107
v -70.1517 71.9150 -45.6891
v -78.6347 77.2390 -45.9559
v -76.4789 77.9581 -47.0073
v -72.3031 77.4141 -47.2903
v -69.7682 78.5779 -48.8381
v -78.5446 79.3606 -45.6500
v -76.4185 79.6465 -47.0296
v -72.3961 80.3745 -48.1953
v -69.7682 80.0596 -48.8381
v 49.6020 -60.7751 -41.4822
v 49.6130 -60.7751 -41.4822
v 45.4941 -56.9239 -41.6187
v 48.0028 -58.4587 -41.8825
v 50.4355 -58.7610 -41.8793
v 45.4941 -56.2648 -41.6187
v 47.7649 -54.5436 -43.1479
v 51.8638 -54.8352 -43.3985
v 53.7087 -53.3077 -43.4804
v 45.3742 -49.2584 -43.4804
v 47.7535 -50.2421 -42.6775
v 51.7360 -50.1299 -43.1563
v 53.7087 -52.3776 -43.4804
v 44.8295 -46.7610 -43.4804
v 48.2658 -46.6085 -43.1563
v 50.4907 -47.8401 -44.2736
v 45.0593 -44.2503 -43.4804
v 46.4109 -44.2503 -43.4804
v -71.4119 59.0164 -41.8390
v -70.1282 59.0164 -41.8390
v -71.4119 59.9321 -41.8390
v -70.1282 59.9321 -41.8390
v -78.4408 67.1657 -41.5408
v -76.3961 66.4302 -41.8352
v -72.3961 66.1655 -41.8989
v -70.2817 66.8127 -41.6257
v -78.4408 67.3576 -41.5408
v -76.2786 69.0958 -43.0503
v -72.3961 68.7450 -43.8989
v -70.0331 69.4869 -43.1676
v -78.5631 74.9313 -43.4804
v -76.2599 73.8727 -42.6689
v -72.2439 74.3425 -43.1442
v -70.0282 72.2016 -43.4804
v -78.9732 77.2390 -43.4804
v -75.7382 77.4458 -43.1442
v -73.4757 76.2503 -44.2534
v -78.8062 79.5936 -43.4804
v -77.6357 79.5936 -43.4804
v 49.2550 -61.2025 -39.4804
v 50.4339 -61.2025 -39.4804
v 45.4941 -56.9239 -41.0952
v 47.2280 -58.4587 -39.6493
v 52.5277 -58.4444 -39.1703
v 53.6170 -56.9000 -37.6302
v 45.4941 -56.2648 -41.0952
v 47.3885 -54.8417 -39.6189
v 52.3609 -55.0423 -39.4199
v 53.6688 -55.0937 -39.4120
v 45.5484 -49.0419 -41.4232
v 47.4828 -50.2978 -41.1163
v 51.6039 -51.5510 -40.7621
v 53.7207 -52.3550 -41.1938
v 45.2097 -46.7610 -41.1758
v 46.4732 -46.7610 -41.1758
v 45.1338 -44.2893 -41.1314
v 46.0690 -44.2893 -41.1314
v -71.4119 59.0164 -41.0574
v -70.1282 59.0164 -41.0574
v -74.7537 62.7519 -38.5205
v -72.3226 61.3420 -39.7890
v -70.1282 59.9321 -41.0574
v -78.4408 67.1657 -41.3140
v -76.2312 65.3665 -39.9173
v -72.0983 64.1612 -39.7045
v -70.1734 66.1456 -39.4804
v -78.4408 67.3576 -41.3140
v -76.3708 68.8929 -39.7453
v -72.3961 69.9094 -38.6617
v -70.0702 69.0617 -39.6077
v -78.4492 75.1106 -41.4246
v -76.3397 73.7860 -41.1339
v -72.3961 72.6113 -40.6617
v -70.1499 71.8465 -41.0259
v -78.7345 77.2390 -41.2168
v -77.4926 77.2390 -41.2168
v -78.7943 79.5902 -41.1848
v -77.9408 79.5902 -41.1848
v 53.5064 -64.8010 -33.5494
v 53.6655 -64.8010 -33.5494
v 48.5179 -61.7216 -35.4804
v 52.1039 -62.7347 -35.3735
v 54.2753 -62.7610 -34.3200
v 45.4731 -57.1556 -33.7848
v 46.6384 -58.5978 -35.2630
v 52.8967 -58.5286 -35.9888
v 54.0272 -58.5286 -35.9888
v 45.4731 -56.6647 -33.7848
v 47.5072 -56.2598 -35.2630
v 51.2967 -56.2936 -35.8602
v 53.6170 -56.7211 -37.4467
v -71.0737 58.9444 -33.9643
v -69.9524 58.9444 -33.9643
v -75.4159 62.2055 -35.4804
v -72.1535 61.2167 -35.6170
v -69.5770 61.2390 -34.6853
v -78.4123 67.1741 -33.5209
v -76.5716 66.1720 -34.5732
v -71.6120 65.2290 -35.6218
v -69.9806 64.9509 -35.8753
v -78.4123 67.2502 -33.5209
v -76.6168 67.5059 -34.9374
v -72.3961 67.9094 -36.3858
v -70.2135 67.6102 -37.1475
v 49.5207 -64.8354 -29.5670
v 51.6231 -64.8182 -31.4475
v 53.6655 -64.8010 -33.3281
v 48.3341 -62.7847 -31.1324
v 51.6231 -64.0603 -31.4475
v 54.3014 -62.6964 -31.7890
v 45.1327 -57.7896 -31.4804
v 47.2497 -58.7901 -31.1329
v 51.2967 -58.2579 -31.7938
v 54.4296 -60.1099 -31.4804
v 45.1327 -56.3262 -31.4804
v 47.5280 -56.3751 -31.7938
v 49.7586 -56.6975 -33.3361
v -74.8327 58.7963 -30.1072
v -72.3703 58.8703 -31.4042
v -69.9524 58.9444 -32.7013
v -75.7722 61.1045 -31.4565
v -72.3703 59.8346 -31.4042
v -69.6131 61.2883 -31.4129
v -78.6710 66.4976 -31.4804
v -76.8523 65.4645 -31.4804
v -72.3961 64.9304 -31.4804
v -69.7500 63.7380 -31.4804
v -78.6710 67.4824 -31.4804
v -77.9158 67.4824 -31.4804
v 49.5731 -68.8469 -25.5550
v 51.6039 -69.1328 -26.0131
v 53.8980 -69.1708 -26.1161
v 49.4528 -66.4056 -27.1252
v 51.2854 -66.4056 -27.9412
v 54.1038 -66.7610 -26.5004
v 48.3053 -62.7610 -27.4804
v 52.4064 -63.9866 -28.8714
v 54.3325 -62.6964 -27.5150
v 45.1064 -57.7379 -29.1239
v 47.4737 -59.0848 -28.1848
v 51.6039 -59.4896 -27.4804
v 54.2353 -60.1557 -27.4804
v 45.1064 -56.2776 -29.1239
v 46.1440 -56.2776 -29.1239
v -71.4075 54.7370 -26.1472
v -70.0729 54.7370 -26.1472
v -74.7839 58.5490 -27.4804
v -72.5372 57.4457 -27.5608
v -69.8591 57.2390 -26.6010
v -75.2191 61.1486 -27.3149
v -72.5981 61.2048 -27.4228
v -69.7283 61.2883 -27.5768
v -78.7464 66.3153 -29.2297
v -76.6055 64.9623 -28.8838
v -72.6761 63.8562 -27.3149
v -69.8559 63.7328 -27.4804
v -78.7464 67.5523 -29.2297
v -77.9603 67.5523 -29.2297
v 49.5731 -68.8469 -25.3650
v 51.8478 -69.1322 -23.8112
v 55.3803 -69.2572 -23.1937
v 57.7596 -69.0553 -21.6691
v 49.4784 -66.4558 -23.8112
v 50.6771 -67.5857 -22.6983
v 55.8919 -67.0106 -23.1937
v 57.7596 -68.5103 -21.6691
v 49.2197 -63.0841 -23.6249
v 51.6039 -61.9857 -22.4197
v 54.4602 -62.6177 -23.2874
v 49.1420 -60.5099 -25.0545
v 51.6039 -60.1656 -24.4197
v 54.1784 -60.2183 -24.4921
v -71.4830 54.6531 -23.4804
v -68.6021 54.6998 -23.1246
v -66.3389 55.1215 -21.5541
v -74.4765 58.7617 -24.8755
v -73.5459 57.3526 -23.5175
v -68.1026 56.8942 -23.1246
v -66.3389 55.3310 -21.5541
v -74.4765 59.7551 -24.8755
v -72.8630 61.2165 -23.4157
v -69.5922 61.3024 -23.3657
v -71.5294 63.6875 -24.6225
v -69.8888 63.6875 -24.6225
v 49.3341 -69.0804 -18.0153
v 51.8478 -69.6356 -19.4013
v 55.6039 -70.0546 -19.4804
v 57.8090 -69.2008 -19.4804
v 49.4487 -66.2754 -19.3971
v 50.3211 -66.2754 -19.3971
v 56.1021 -66.4321 -19.4804
v 57.8090 -68.4321 -19.4804
v 49.5633 -64.6329 -20.7789
v 51.4207 -64.0200 -19.4595
v 54.1021 -63.9309 -19.4804
v -74.5738 54.9999 -17.8451
v -72.2588 54.3655 -19.2992
v -68.3961 54.0510 -19.4804
v -66.2954 54.9635 -19.4804
v -74.5738 56.1342 -17.8451
v -73.5474 57.3761 -19.2992
v -67.8281 57.3848 -19.4804
v -66.2954 55.3848 -19.4804
v -72.0068 60.0805 -19.4804
v -69.8281 60.0805 -19.4804
v 52.8192 -73.7081 -14.4641
v 54.4073 -73.7081 -14.4641
v 49.3013 -69.2833 -15.4804
v 51.5331 -71.3881 -15.6706
v 55.6860 -71.5601 -15.6706
v 58.1808 -69.4983 -15.4804
v 49.3013 -67.7731 -15.4804
v 51.4207 -66.0899 -15.7452
v 55.3144 -66.3285 -15.7452
v 58.1808 -68.0713 -15.4804
v 52.6319 -64.5598 -17.2551
v 53.7880 -64.5598 -17.2551
v -71.0972 50.1773 -14.4270
v -69.3303 50.1773 -14.4270
v -74.5738 54.9999 -16.2364
v -72.7278 53.3173 -15.3317
v -68.1566 52.3748 -15.6484
v -65.7877 54.3620 -15.4804
v -74.5738 56.1342 -16.2364
v -72.8842 57.2773 -15.3364
v -68.6056 57.5090 -15.6541
v -65.7877 55.6904 -15.4804
v -71.4099 59.5887 -17.1032
v -70.0787 59.5887 -17.1032
v 49.5176 -76.9298 -9.6409
v 51.6039 -77.0199 -10.0156
v 53.7548 -76.9374 -10.0335
v 49.5176 -76.5040 -9.6409
v 51.5379 -75.1060 -11.1705
v 54.6144 -74.9292 -11.4123
v 49.4702 -69.1380 -13.2691
v 50.8377 -70.5872 -11.7536
v 56.7538 -71.6063 -11.4804
v 58.3055 -69.6063 -11.4804
v 49.4702 -68.5730 -13.2691
v 51.7170 -68.0509 -11.7536
v 55.6039 -67.2071 -11.4804
v 58.3055 -67.9537 -11.4804
v -71.5590 46.8353 -10.4535
v -70.0421 46.8353 -10.4535
v -71.8604 49.0020 -11.6643
v -68.9608 49.0020 -11.6643
v -72.6167 53.2390 -11.4804
v -66.8675 52.0173 -11.4804
v -65.5804 54.0173 -11.4804
v -71.6584 55.9439 -11.4804
v -68.3961 56.5710 -11.4804
v -65.5804 55.8660 -11.4804
v 49.5176 -76.9298 -9.3093
v 51.6039 -77.0199 -9.1640
v 53.7548 -76.9374 -9.2296
v 49.5176 -76.5040 -9.3093
v 51.8298 -74.7723 -7.9361
v 55.3776 -74.3909 -7.6364
v 57.9027 -73.0746 -6.0432
v 52.0209 -70.7610 -7.4804
v 57.1434 -70.5863 -7.4362
v 57.8952 -70.5863 -7.4362
v 52.6821 -67.6629 -7.4804
v 55.8134 -67.6757 -7.4897
v 57.8878 -68.4163 -8.8292
v -71.5590 46.8353 -8.9761
v -70.0421 46.8353 -8.9761
v -71.5871 49.4020 -7.5778
v -68.3996 49.5060 -7.6667
v -65.9942 50.8346 -6.3573
v -71.7131 53.2390 -7.4804
v -66.7175 53.3779 -7.5001
v -66.0183 53.3779 -7.5001
v -71.0964 56.1361 -7.4804
v -68.1652 56.1586 -7.3779
v -66.0425 55.5756 -8.6430
v 53.0074 -73.3119 -3.4804
v 55.6039 -73.8543 -3.4804
v 58.3533 -73.3034 -3.4804
v 52.3927 -70.7610 -3.4804
v 56.6796 -69.3808 -3.4804
v 58.3533 -71.3808 -3.4804
v 52.9892 -68.0111 -3.4804
v 54.6796 -68.0111 -3.4804
v -70.9527 50.5467 -3.4804
v -68.3961 49.8946 -3.4804
v -65.5807 50.5869 -3.4804
v -71.1692 53.5127 -3.1904
v -68.1652 54.6549 -3.1904
v -65.5807 52.6668 -3.4804
v -70.9425 56.0100 -4.3303
v -69.3447 56.0100 -4.3303
v 53.0745 -73.1765 0.5196
v 55.6039 -73.6791 0.5196
v 59.6241 -73.6701 0.4267
v 62.2298 -73.6061 1.6981
v 52.6971 -70.7610 0.5196
v 56.6890 -69.0397 -1.1849
v 59.5025 -70.6159 0.2566
v 62.2298 -72.1920 1.6981
v 53.2265 -68.2877 0.5196
v 55.4550 -68.1027 0.2969
v 58.0340 -68.2950 1.4818
v -70.8925 50.7109 -0.2399
v -68.7351 50.4015 0.8639
v -64.3849 50.0878 0.4938
v -61.8293 50.1879 1.8099
v -70.8053 53.1836 0.5856
v -69.2096 53.2986 0.4721
v -64.5032 53.2621 0.3767
v -61.8293 51.7021 1.8099
v -70.7181 55.6582 1.4110
v -68.3961 55.8843 1.0061
v -65.9621 55.6802 1.6102
v 53.4926 -72.8599 2.7140
v 55.5541 -73.5521 4.2362
v 59.6039 -74.3461 4.5196
v 62.1021 -73.4314 4.5196
v 53.1945 -70.7610 3.1032
v 54.8225 -70.7610 5.1032
v 60.2475 -70.2562 4.5196
v 62.1021 -72.2562 4.5196
v 53.1693 -68.1932 3.1033
v 55.8286 -67.8055 4.4698
v 58.2475 -67.9925 4.5196
v 81.1177 -64.8191 6.3997
v 81.6938 -64.8191 6.3997
v 73.5896 -60.8561 6.5048
v 75.6039 -61.0636 6.4486
v 79.7122 -62.5460 5.8764
v 81.9977 -62.7610 5.7755
v 73.5896 -60.7446 6.5048
v 75.6039 -60.7126 6.4486
v 79.6039 -60.2393 5.8056
v 82.0390 -60.1136 5.6474
v -67.8123 50.2406 4.5196
v -64.3961 49.2438 4.5196
v -61.8119 50.2422 4.5196
v -70.7181 54.0054 2.9629
v -69.1869 52.8989 4.3856
v -63.8655 54.0399 4.5196
v -61.8119 52.0399 4.5196
v -70.7181 55.6582 2.9629
v -68.0539 55.8668 4.3856
v -65.8655 55.7094 4.5196
v -47.4364 59.0618 6.1456
v -44.3961 58.9022 5.6859
v -41.9618 58.9672 5.7820
v -47.3751 61.2390 6.1757
v -44.3961 61.2390 4.9178
v -41.7371 61.2390 5.2617
v -46.6611 63.3022 6.4351
v -44.3961 63.7564 5.7514
v -41.9518 63.8657 5.5799
v 56.7564 -73.7864 8.5196
v 59.6039 -73.8633 8.5196
v 61.7767 -72.8379 8.5196
v 56.3875 -70.7610 8.5196
v 60.6986 -69.9902 7.1943
v 61.9883 -71.0985 8.5244
v 57.2350 -67.4427 8.5196
v 59.4607 -67.2068 8.5244
v 62.0142 -67.9284 9.8609
v 76.6545 -65.4821 9.3955
v 79.7122 -65.8352 8.2452
v 82.2575 -65.5630 8.5196
v 73.5896 -60.8561 6.7330
v 75.3070 -62.2961 8.0643
v 78.4510 -63.7360 6.7289
v 83.9879 -62.5671 8.8339
v 85.6793 -61.1045 10.3768
v 73.5896 -60.7446 6.7330
v 75.5257 -59.3954 8.3968
v 79.6039 -58.2393 7.6360
v 83.5470 -58.9559 8.7553
v 85.6793 -60.4650 10.3768
v 77.0920 -56.3819 10.0606
v 79.6039 -55.7503 9.6360
v 82.3884 -55.7925 9.8005
v -67.0822 50.2888 8.5196
v -64.3961 49.9644 8.5196
v -61.8267 50.9146 8.5196
v -67.2191 53.2390 8.5196
v -63.4559 54.5104 6.9262
v -61.6037 53.2019 8.3636
v -42.7556 55.1340 10.3736
v -42.2546 55.1340 10.3736
v -66.5329 55.7229 8.5196
v -64.6320 56.1805 8.3636
v -61.8347 56.1630 9.5929
v -48.0003 58.5186 8.5196
v -44.2118 56.8996 8.8320
v -41.3898 57.4759 8.8320
v -48.7427 61.2390 8.5196
v -39.9459 61.2390 8.5196
v -47.1754 64.8769 8.7465
v -44.3961 65.7564 7.6583
v -40.6900 65.2150 8.4036
v -46.7049 67.4727 10.2311
v -44.3961 68.1495 9.6583
v -41.2838 68.2192 9.6597
v 57.2236 -73.1693 10.9743
v 59.8246 -73.1221 12.3924
v 63.3191 -73.2550 12.3991
v 66.4211 -73.3908 13.6521
v 56.7969 -70.7209 12.3924
v 58.6383 -72.0275 13.6410
v 64.0292 -70.6097 12.3991
v 66.4211 -71.8422 13.6521
v 56.8804 -67.5031 12.5196
v 59.6039 -66.5836 12.5196
v 62.4915 -67.8415 12.5196
v 73.2152 -65.0656 13.7537
v 75.4343 -65.8920 12.4600
v 79.6039 -67.0860 12.5196
v 82.5169 -65.9006 12.5196
v 73.1594 -62.7610 13.3974
v 74.1585 -62.7610 11.3974
v 84.4416 -62.5671 12.2880
v 85.6793 -61.1045 10.8003
v 73.1649 -58.7610 13.7780
v 74.4866 -58.7610 11.7780
v 84.4072 -58.9834 12.2880
v 85.6793 -60.4650 10.8003
v 73.2225 -56.5497 14.2611
v 75.6968 -55.8687 12.7645
v 79.6039 -54.4334 12.5196
v 82.4739 -55.3903 12.5196
v -66.6543 50.9007 10.9605
v -64.3391 50.7858 12.3841
v -60.4679 50.5849 12.3378
v -57.4480 50.5658 13.5500
v -66.9680 53.2614 12.3841
v -65.6344 51.9430 13.6271
v -59.6364 53.4310 12.3378
v -57.4480 52.2256 13.5500
v -42.7556 55.1340 11.1933
v -42.2546 55.1340 11.1933
v -66.9174 55.8687 12.5196
v -64.3961 56.7996 12.5196
v -61.3568 56.1698 12.5196
v -50.8138 58.8431 13.4991
v -48.6552 58.0229 12.3073
v -44.2118 56.4609 12.5238
v -41.5256 57.4394 12.5238
v -50.9201 61.2390 13.4141
v -49.7637 61.2390 11.4141
v -39.7772 61.2390 12.5196
v -50.6440 65.2390 14.1527
v -49.1714 65.2390 12.1527
v -39.5888 65.2390 12.5196
v -50.4456 67.2694 14.4839
v -48.1814 67.7575 12.8982
v -44.3961 69.2357 12.5196
v -41.2256 68.6104 12.5196
v 61.3496 -72.8824 16.5196
v 63.6039 -73.5421 16.5196
v 66.6755 -73.4207 16.5196
v 53.5418 -68.8303 18.2847
v 55.5449 -69.3046 16.7786
v 59.3496 -71.3885 16.5196
v 65.0438 -69.1756 14.9808
v 67.6516 -70.6424 16.5638
v 70.7454 -69.4427 18.1468
v 53.5418 -68.6030 18.2847
v 55.5449 -68.1681 16.7786
v 59.6039 -67.4910 16.5196
v 63.6678 -67.6967 16.3963
v 67.6399 -66.6146 17.5970
v 71.9803 -66.8394 16.8535
v 75.6039 -67.2528 16.5196
v 79.6039 -66.6971 16.5196
v 82.6324 -65.3229 16.5196
v 68.5324 -62.7610 17.9002
v 71.1594 -62.7610 15.9002
v 84.5340 -62.3706 16.9169
v 85.6050 -60.7770 18.5151
v 68.7074 -58.7610 17.8113
v 71.1649 -58.7610 15.8113
v 83.9761 -59.1602 16.9169
v 85.6050 -60.7597 18.5151
v 69.2306 -56.1460 18.1084
v 71.8205 -55.0145 16.8908
v 75.6039 -53.9300 16.3390
v 79.2301 -53.9727 16.8830
v 81.9350 -55.9481 16.5196
v 73.0852 -52.6457 18.3398
v 75.6039 -52.6685 18.3390
v 77.6476 -52.7530 18.4587
v -63.1217 50.8499 16.5196
v -60.3961 50.1276 16.5196
v -57.0818 50.5166 16.5196
v -67.8377 54.5778 16.5196
v -65.1217 52.5778 16.5196
v -58.9050 54.8923 15.0097
v -56.1865 53.3118 16.5610
v -52.3961 54.4996 18.0737
v -49.8394 55.0941 18.3324
v -67.8377 55.7620 16.5196
v -64.3961 56.2358 16.5196
v -60.3014 55.9821 16.4137
v -56.1487 57.2031 17.6795
v -52.2467 57.4014 16.4731
v -48.4621 56.2721 16.8073
v -44.3961 57.2728 16.5196
v -40.6713 58.7445 16.7081
v -38.3212 59.1542 18.1671
v -54.8107 61.2390 18.2365
v -52.9201 61.2390 16.2365
v -39.9711 61.0547 16.7081
v -38.3212 59.5985 18.1671
v -54.7253 65.2390 18.2475
v -52.6440 65.2390 16.2475
v -40.9476 65.2390 16.5196
v -54.5366 67.4734 18.3846
v -52.0258 68.1614 16.8386
v -48.3961 69.5088 16.5196
v -44.3961 69.7814 16.5196
v -41.8228 68.4889 16.5196
v 61.5638 -72.7831 18.5901
v 63.6238 -73.2314 20.1619
v 67.5709 -73.2803 20.7176
v 69.7126 -72.8644 22.1830
v 53.5418 -68.8303 18.5896
v 55.6039 -68.9906 18.7078
v 60.0518 -70.5543 19.9786
v 62.3037 -72.1108 21.2568
v 68.8822 -72.1093 19.5163
v 71.5623 -70.4625 20.6977
v 73.6730 -68.8157 21.8790
v 53.5418 -68.6030 18.5896
v 55.6039 -68.3784 18.7078
v 59.7655 -67.7923 20.2281
v 63.5847 -65.8572 20.4396
v 66.3306 -65.1837 19.0530
v 73.4121 -68.6131 19.2124
v 75.2454 -67.7686 20.5352
v 79.5577 -65.6018 20.5823
v 82.5395 -65.0018 19.2908
v 64.6296 -62.7610 21.1665
v 66.5324 -62.7610 19.1665
v 80.7679 -62.7610 21.4210
v 83.7653 -62.3706 19.2414
v 85.6050 -60.7770 18.5207
v 64.5692 -58.7610 21.2568
v 66.7074 -58.7610 19.2568
v 80.6040 -58.7610 20.9042
v 83.2434 -59.1602 18.8279
v 85.6050 -60.7597 18.5207
v 61.0334 -53.5645 22.1230
v 63.6930 -54.6944 21.9815
v 67.7942 -54.6518 20.5619
v 70.4185 -53.4793 19.2838
v 76.9694 -53.4849 21.2173
v 79.1447 -55.0106 19.9095
v 81.6698 -56.5363 18.6016
v 61.0334 -51.9111 22.1230
v 62.5613 -51.9111 22.1230
v 69.0245 -52.5941 21.9505
v 71.6927 -52.3581 20.5781
v 75.6232 -52.4535 20.1382
v 77.6476 -52.7530 18.5507
v -62.7919 50.9827 19.1433
v -60.3645 50.6397 20.4938
v -56.3135 50.6218 20.4560
v -54.1234 50.9529 21.7469
v -67.7092 54.9868 18.7362
v -64.1057 53.4611 20.2731
v -61.6767 51.9354 21.8100
v -54.9251 51.7314 19.0802
v -52.6325 52.8571 20.4560
v -49.6403 54.8924 20.5196
v -67.7092 55.5559 18.7362
v -64.2101 55.8935 20.2495
v -60.1658 57.6675 20.6952
v -57.3171 58.5124 19.4790
v -47.6403 56.0012 20.5196
v -44.3961 57.5334 20.5196
v -40.6697 58.8139 20.1731
v -38.3212 59.1542 18.6089
v -58.8831 61.2390 21.7489
v -56.8107 61.2390 19.7489
v -42.8566 62.4814 21.4096
v -40.8217 61.0400 20.0092
v -38.3212 59.5985 18.6089
v -59.1982 65.2390 21.6525
v -56.7253 65.2390 19.6525
v -43.6249 65.2390 21.0059
v -41.9555 65.2390 19.0059
v -62.9689 70.3450 22.0453
v -60.2598 69.1914 22.0312
v -55.9852 69.0890 20.7883
v -52.3961 70.3692 19.3964
v -48.5045 70.4418 20.1972
v -44.7028 68.5692 20.3746
v -42.0800 68.0572 18.9447
v -62.9689 72.1635 22.0453
v -61.4205 72.1635 22.0453
v -54.7670 71.3243 22.2261
v -52.3961 71.4573 21.3964
v -49.9100 71.4448 21.3156
v 65.0449 -73.1923 24.5196
v 67.3491 -73.1681 24.3265
v 69.7126 -72.8644 22.8644
v 61.2065 -69.4441 23.5495
v 62.9009 -70.7709 24.7375
v 68.5126 -72.2397 25.5310
v 71.2691 -71.0109 24.3265
v 73.8567 -68.9643 24.5196
v 61.2065 -67.9684 23.5495
v 62.7234 -66.6854 24.7375
v 76.0820 -66.4735 24.6027
v 78.1936 -64.9485 23.3248
v 64.0243 -62.7610 24.5196
v 77.3969 -64.5694 25.9915
v 78.8053 -63.0460 24.6027
v 61.4758 -57.0781 26.1194
v 62.8974 -58.5513 24.6795
v 77.2579 -56.9324 26.2825
v 78.6743 -58.4639 24.7773
v 61.0715 -54.8431 24.6795
v 63.6930 -54.6944 23.3371
v 66.3578 -53.1576 23.2214
v 72.4420 -53.2034 26.2665
v 75.7804 -54.6775 24.9412
v 77.9751 -56.1516 23.6158
v 61.0345 -51.9389 24.5196
v 63.7784 -51.9718 24.5407
v 67.6563 -52.5205 24.5407
v 71.3068 -52.4185 24.7677
v 74.3028 -52.3717 23.5999
v -59.0101 50.7864 23.7654
v -56.3961 50.6850 24.0736
v -54.1234 50.9529 23.3458
v -62.7528 54.6021 23.1891
v -60.4664 52.9439 24.8106
v -56.3961 51.5531 26.0736
v -52.6325 52.5895 24.6153
v -49.7328 54.6481 24.5196
v -62.7528 55.6985 23.1891
v -60.8182 57.1147 24.5213
v -47.5681 57.2696 24.7816
v -44.3961 58.6145 23.4984
v -42.1854 59.0220 22.7212
v -59.4864 61.2390 24.5196
v -46.5671 59.5660 26.2896
v -44.4527 61.0237 24.5054
v -42.1854 59.8147 22.7212
v -62.4253 67.1223 26.3830
v -60.9841 65.5690 24.8376
v -46.7045 66.8356 25.7711
v -45.5708 65.3969 24.4705
v -62.8545 69.1026 24.8376
v -60.2598 69.1914 23.4715
v -57.4337 70.7046 23.2266
v -51.4968 70.9121 26.0058
v -48.3073 69.2132 24.5551
v -46.2407 67.5144 23.1044
v -62.9472 72.0938 24.5196
v -60.2107 72.0541 24.5438
v -56.2186 71.4361 24.5438
v -52.6565 71.4283 24.6113
v -49.9100 71.4448 23.3391
v 65.4921 -72.8240 26.6206
v 65.8459 -72.8240 26.6206
v 64.6458 -70.6330 28.1802
v 67.3491 -71.3903 28.1802
v 71.6039 -70.8564 28.5196
v 75.3647 -69.9426 28.5347
v 77.9395 -69.1986 29.8782
v 64.2043 -66.7610 28.5196
v 68.5422 -65.1129 30.2181
v 69.8549 -65.1129 30.2181
v 76.6497 -66.7610 27.6553
v 77.8955 -66.7610 29.6553
v 64.3206 -62.7610 28.5196
v 68.4531 -62.7610 29.8396
v 71.3545 -62.6406 29.6671
v 75.7611 -62.8982 28.6737
v 78.1479 -63.0460 28.6130
v 61.4758 -57.0781 27.1195
v 62.7017 -58.5513 28.4795
v 69.1855 -58.7610 30.0232
v 71.6039 -58.7610 28.8802
v 75.6917 -58.5450 28.4242
v 78.2440 -59.4369 28.5196
v 61.3663 -54.7610 27.6029
v 62.1188 -54.7610 29.6029
v 69.5188 -56.6345 30.4629
v 71.1505 -54.9190 28.6529
v 74.5913 -55.8701 26.8430
v 61.4152 -52.5148 27.3641
v 63.3200 -52.1359 28.6263
v 67.6039 -51.8985 28.5196
v 69.9237 -52.4952 28.5196
v -50.7027 51.1001 30.0833
v -50.1023 51.1001 30.0833
v -59.2863 53.9225 28.5196
v -56.3961 52.8914 28.5196
v -52.1800 52.5317 28.6578
v -48.6992 53.4443 28.6762
v -46.0787 54.7870 29.9358
v -59.2445 57.2096 28.2457
v -56.3961 58.1558 29.1825
v -53.9403 58.5104 29.8599
v -47.0812 57.5610 28.5693
v -46.0787 56.4424 29.9358
v -59.1748 61.2665 28.2457
v -56.3652 61.2665 29.1624
v -52.5226 61.4301 29.5367
v -47.8763 61.0508 29.1627
v -45.9774 61.6708 28.5196
v -62.4253 67.1223 26.6865
v -61.1466 65.5690 28.2197
v -55.0113 64.1140 30.0405
v -52.6717 65.3640 29.4091
v -48.1563 65.1573 28.5004
v -45.9774 64.1165 28.5196
v -62.5395 69.2390 26.9844
v -61.5485 69.2390 28.9844
v -52.3749 69.4428 28.3962
v -49.3712 68.2454 26.9806
v -62.5580 71.4541 26.9725
v -60.4099 71.7130 28.3913
v -56.3961 71.9004 28.5196
v -54.0251 71.4693 28.5196
v 65.2118 -69.2144 30.8391
v 67.6039 -69.4387 31.0627
v 71.6039 -70.0851 31.3360
v 75.6039 -70.0756 31.4159
v 77.9395 -69.1986 31.0307
v 65.2809 -66.7610 30.7827
v 67.3669 -66.5722 30.9728
v 71.3545 -66.5722 31.5066
v 75.6039 -66.7610 31.9022
v 77.8955 -66.7610 30.9719
v 64.9258 -62.7610 30.9503
v 66.4531 -62.7610 30.9503
v 72.5216 -63.8937 31.0761
v 75.5168 -62.6406 31.0983
v 77.9462 -62.7610 30.8255
v 64.3246 -58.7610 31.2341
v 67.1855 -58.7610 31.2341
v 76.7920 -60.1575 30.8356
v 78.0070 -60.1575 30.8356
v 64.1188 -54.7610 31.4140
v 67.9848 -54.8469 32.4492
v 70.2067 -53.8898 32.5196
v 64.4641 -52.1847 31.3025
v 67.7120 -51.9203 32.5893
v 70.2067 -52.1424 32.5196
v -50.7027 51.1001 30.8137
v -50.1023 51.1001 30.8137
v -58.7229 54.7703 30.8065
v -56.3961 54.5773 30.9789
v -52.1800 53.3908 31.4216
v -48.6198 53.3678 31.4743
v -46.0787 54.7870 30.9330
v -58.7229 55.8567 30.8065
v -56.3961 56.1558 30.9789
v -52.5226 57.2018 31.6192
v -48.0386 57.5610 31.6719
v -46.0787 56.4424 30.9330
v -58.8896 62.6181 30.8571
v -57.6779 62.6181 30.8571
v -51.2736 60.2242 31.1431
v -48.0375 61.1893 30.8975
v -46.1850 62.1544 30.6519
v -59.4013 65.2390 31.1563
v -56.3652 65.3640 31.1712
v -54.1888 66.7807 30.7566
v -46.9414 63.4791 30.6519
v -46.1850 63.4791 30.6519
v -59.5485 69.2390 31.2882
v -56.1810 69.4837 32.8767
v -53.7404 69.4837 32.2618
v -59.0858 71.5950 31.0330
v -56.1810 71.8095 32.4276
v -53.7319 71.6851 32.5196
v 69.1174 -53.0593 34.7215
v 70.1526 -53.0593 34.7215
v 69.1174 -52.2760 34.7215
v 70.1526 -52.2760 34.7215
v -54.7044 70.9802 34.6629
v -53.7725 70.9802 34.6629
v -54.7044 71.5513 34.6629
v -53.7725 71.5513 34.6629
f 3 2 1
f 3 4 2
f 2 5 1
f 2 6 5
f 5 3 1
f 5 8 3
f 6 2 4
f 6 4 9
f 4 3 8
f 4 8 9
f 8 5 6
f 8 6 9
f 9 7 6
f 9 10 7
f 12 10 9
f 12 13 10
f 13 11 10
f 13 14 11
f 17 16 15
f 17 18 16
f 20 18 17
f 20 21 18
f 21 19 18
f 21 22 19
f 7 27 6
f 7 28 27
f 28 23 27
f 28 24 23
f 29 24 28
f 29 25 24
f 27 9 6
f 27 31 9
f 31 26 30
f 31 27 26
f 32 28 7
f 32 7 10
f 33 10 11
f 33 32 10
f 31 12 9
f 31 35 12
f 34 31 30
f 34 35 31
f 36 13 12
f 36 12 35
f 35 31 32
f 35 32 36
f 33 11 14
f 33 14 37
f 37 14 13
f 37 13 36
f 36 32 33
f 36 33 37
f 16 42 15
f 16 43 42
f 43 38 42
f 43 39 38
f 44 39 43
f 44 40 39
f 46 15 42
f 46 17 15
f 46 41 45
f 46 42 41
f 47 43 16
f 47 16 18
f 48 18 19
f 48 47 18
f 46 20 17
f 46 50 20
f 49 46 45
f 49 50 46
f 51 21 20
f 51 20 50
f 50 46 47
f 50 47 51
f 48 19 22
f 48 22 52
f 52 22 21
f 52 21 51
f 51 47 48
f 51 48 52
f 57 53 56
f 57 54 53
f 58 56 55
f 58 59 56
f 60 23 24
f 60 59 23
f 59 57 56
f 59 60 57
f 61 24 25
f 61 60 24
f 63 23 59
f 63 27 23
f 63 26 27
f 63 62 26
f 65 61 25
f 65 25 29
f 29 28 64
f 29 64 65
f 66 26 62
f 66 30 26
f 68 64 28
f 68 28 32
f 68 32 31
f 68 31 67
f 68 67 63
f 68 63 64
f 66 34 30
f 66 69 34
f 70 67 31
f 70 31 35
f 70 35 34
f 70 34 69
f 73 72 71
f 73 74 72
f 79 76 75
f 79 80 76
f 81 38 39
f 81 80 38
f 80 77 76
f 80 81 77
f 40 81 39
f 40 82 81
f 81 78 77
f 81 82 78
f 84 38 80
f 84 42 38
f 84 41 42
f 84 83 41
f 86 82 40
f 86 40 44
f 44 43 85
f 44 85 86
f 87 41 83
f 87 45 41
f 89 85 43
f 89 43 47
f 89 47 46
f 89 46 88
f 89 88 84
f 89 84 85
f 87 49 45
f 87 90 49
f 91 88 46
f 91 46 50
f 91 50 49
f 91 49 90
f 54 92 53
f 54 93 92
f 95 53 92
f 95 56 53
f 95 55 56
f 95 94 55
f 93 54 57
f 93 57 96
f 94 58 55
f 94 98 58
f 99 59 58
f 99 58 98
f 98 94 95
f 98 95 99
f 100 96 57
f 100 57 60
f 101 60 61
f 101 100 60
f 100 97 96
f 100 101 97
f 103 59 99
f 103 63 59
f 63 102 62
f 63 103 102
f 104 64 63
f 104 63 103
f 104 103 99
f 104 99 100
f 105 101 61
f 105 61 65
f 65 64 104
f 65 104 105
f 105 104 100
f 105 100 101
f 102 66 62
f 102 106 66
f 107 103 63
f 107 63 67
f 107 106 102
f 107 102 103
f 106 69 66
f 106 108 69
f 107 67 70
f 107 70 109
f 109 70 69
f 109 69 108
f 109 108 106
f 109 106 107
f 72 110 71
f 72 111 110
f 110 73 71
f 110 113 73
f 111 72 74
f 111 74 114
f 114 74 73
f 114 73 113
f 114 113 110
f 114 110 111
f 76 115 75
f 76 116 115
f 77 116 76
f 77 117 116
f 117 112 116
f 117 113 112
f 118 77 78
f 118 117 77
f 115 79 75
f 115 119 79
f 120 80 79
f 120 79 119
f 120 119 115
f 120 115 116
f 122 118 78
f 122 78 82
f 124 80 120
f 124 84 80
f 84 123 83
f 84 124 123
f 125 85 84
f 125 84 124
f 125 124 120
f 125 120 121
f 126 122 82
f 126 82 86
f 86 85 125
f 86 125 126
f 126 125 121
f 126 121 122
f 123 87 83
f 123 127 87
f 128 124 84
f 128 84 88
f 128 127 123
f 128 123 124
f 127 90 87
f 127 129 90
f 128 88 91
f 128 91 130
f 130 91 90
f 130 90 129
f 130 129 127
f 130 127 128
f 93 133 92
f 93 134 133
f 135 131 134
f 135 132 131
f 133 95 92
f 133 137 95
f 138 134 93
f 138 93 96
f 97 138 96
f 97 139 138
f 139 134 138
f 139 135 134
f 141 95 137
f 141 99 95
f 141 136 140
f 141 137 136
f 142 100 99
f 142 99 141
f 143 139 97
f 143 97 101
f 143 101 100
f 143 100 142
f 143 142 138
f 143 138 139
f 147 112 113
f 147 146 112
f 148 144 147
f 148 145 144
f 146 116 112
f 146 150 116
f 147 113 117
f 147 117 151
f 118 151 117
f 118 152 151
f 152 147 151
f 152 148 147
f 154 116 150
f 154 120 116
f 154 149 153
f 154 150 149
f 155 121 120
f 155 120 154
f 155 154 150
f 155 150 151
f 156 152 118
f 156 118 122
f 156 122 121
f 156 121 155
f 156 155 151
f 156 151 152
f 159 131 132
f 159 158 131
f 161 131 158
f 161 134 131
f 161 133 134
f 161 160 133
f 161 157 160
f 161 158 157
f 159 132 135
f 159 135 162
f 161 158 159
f 161 159 162
f 164 133 160
f 164 137 133
f 164 136 137
f 164 163 136
f 166 162 135
f 166 135 139
f 139 138 165
f 139 165 166
f 167 136 163
f 167 140 136
f 168 141 140
f 168 140 167
f 169 165 138
f 169 138 142
f 169 142 141
f 169 141 168
f 169 168 164
f 169 164 165
f 172 144 145
f 172 171 144
f 174 144 171
f 174 147 144
f 147 173 146
f 147 174 173
f 174 170 173
f 174 171 170
f 172 145 148
f 172 148 175
f 174 171 172
f 174 172 175
f 177 146 173
f 177 150 146
f 177 149 150
f 177 176 149
f 178 151 150
f 178 150 177
f 179 175 148
f 179 148 152
f 179 152 151
f 179 151 178
f 180 149 176
f 180 153 149
f 181 177 150
f 181 150 154
f 181 154 153
f 181 153 180
f 186 157 158
f 186 185 157
f 185 183 182
f 185 186 183
f 187 183 186
f 187 184 183
f 188 157 185
f 188 160 157
f 189 186 158
f 189 158 161
f 162 189 161
f 162 190 189
f 189 187 186
f 189 190 187
f 192 160 188
f 192 164 160
f 164 191 163
f 164 192 191
f 165 164 192
f 165 192 193
f 190 162 166
f 190 166 194
f 166 165 193
f 166 193 194
f 191 167 163
f 191 195 167
f 196 192 164
f 196 164 168
f 196 168 167
f 196 167 195
f 196 195 191
f 196 191 192
f 200 170 171
f 200 199 170
f 201 197 200
f 201 198 197
f 202 170 199
f 202 173 170
f 200 171 174
f 200 174 203
f 204 174 175
f 204 203 174
f 204 200 203
f 204 201 200
f 206 173 202
f 206 177 173
f 177 205 176
f 177 206 205
f 178 177 206
f 178 206 207
f 207 206 202
f 207 202 203
f 204 175 179
f 204 179 208
f 208 179 178
f 208 178 207
f 209 176 205
f 209 180 176
f 210 206 177
f 210 177 181
f 210 181 180
f 210 180 209
f 210 209 205
f 210 205 206
f 183 211 182
f 183 212 211
f 184 212 183
f 184 213 212
f 215 182 211
f 215 185 182
f 216 215 211
f 216 211 212
f 217 213 184
f 217 184 187
f 218 213 217
f 218 214 213
f 219 185 215
f 219 188 185
f 221 217 187
f 221 187 190
f 222 188 219
f 222 192 188
f 193 192 222
f 193 222 223
f 223 222 219
f 223 219 220
f 224 221 190
f 224 190 194
f 224 194 193
f 224 193 223
f 224 223 220
f 224 220 221
f 198 225 197
f 198 226 225
f 229 197 225
f 229 200 197
f 200 228 199
f 200 229 228
f 230 226 198
f 230 198 201
f 231 226 230
f 231 227 226
f 232 199 228
f 232 202 199
f 203 202 232
f 203 232 233
f 232 228 229
f 232 229 233
f 234 230 201
f 234 201 204
f 235 203 233
f 235 207 203
f 236 234 204
f 236 204 208
f 208 207 235
f 208 235 236
f 235 233 234
f 235 234 236
f 213 238 212
f 213 239 238
f 214 239 213
f 214 240 239
f 238 216 212
f 238 242 216
f 216 241 215
f 216 242 241
f 242 237 241
f 242 238 237
f 244 240 214
f 244 214 218
f 218 217 243
f 218 243 244
f 245 215 241
f 245 219 215
f 220 219 245
f 220 245 246
f 245 241 242
f 245 242 246
f 247 243 217
f 247 217 221
f 247 221 220
f 247 220 246
f 250 225 226
f 250 249 225
f 227 250 226
f 227 251 250
f 249 229 225
f 249 253 229
f 253 248 252
f 253 249 248
f 255 251 227
f 255 227 231
f 231 230 254
f 231 254 255
f 256 229 253
f 256 233 229
f 257 254 230
f 257 230 234
f 234 233 256
f 234 256 257
f 261 237 238
f 261 260 237
f 262 238 239
f 262 261 238
f 262 258 261
f 262 259 258
f 263 239 240
f 263 262 239
f 264 237 260
f 264 241 237
f 265 242 241
f 265 241 264
f 263 240 244
f 263 244 267
f 267 244 243
f 267 243 266
f 268 242 265
f 268 246 242
f 269 266 243
f 269 243 247
f 247 246 268
f 247 268 269
f 269 268 265
f 269 265 266
f 273 248 249
f 273 272 248
f 274 249 250
f 274 273 249
f 274 270 273
f 274 271 270
f 275 250 251
f 275 274 250
f 272 252 248
f 272 276 252
f 277 253 252
f 277 252 276
f 277 276 272
f 277 272 273
f 279 275 251
f 279 251 255
f 279 255 254
f 279 254 278
f 280 253 277
f 280 256 253
f 281 278 254
f 281 254 257
f 257 256 280
f 257 280 281
f 280 277 278
f 280 278 281
f 285 283 282
f 285 286 283
f 287 258 259
f 287 286 258
f 286 284 283
f 286 287 284
f 289 258 286
f 289 261 258
f 261 288 260
f 261 289 288
f 290 287 259
f 290 259 262
f 263 290 262
f 263 291 290
f 292 260 288
f 292 264 260
f 265 264 292
f 265 292 293
f 292 288 289
f 292 289 293
f 266 265 293
f 266 293 294
f 291 263 267
f 291 267 295
f 267 266 294
f 267 294 295
f 299 270 271
f 299 298 270
f 298 297 296
f 298 299 297
f 300 270 298
f 300 273 270
f 301 299 271
f 301 271 274
f 275 301 274
f 275 302 301
f 303 273 300
f 303 277 273
f 278 277 303
f 278 303 304
f 305 302 275
f 305 275 279
f 279 278 304
f 279 304 305
f 307 282 283
f 307 306 282
f 308 283 284
f 308 307 283
f 306 285 282
f 306 309 285
f 286 285 309
f 286 309 310
f 309 306 307
f 309 307 310
f 308 284 287
f 308 287 311
f 310 307 308
f 310 308 311
f 313 286 310
f 313 289 286
f 311 287 290
f 311 290 314
f 291 314 290
f 291 315 314
f 314 312 311
f 314 315 312
f 313 293 289
f 313 316 293
f 294 293 316
f 294 316 317
f 318 315 291
f 318 291 295
f 318 295 294
f 318 294 317
f 318 317 314
f 318 314 315
f 297 319 296
f 297 320 319
f 319 298 296
f 319 321 298
f 320 297 299
f 320 299 322
f 321 319 320
f 321 320 322
f 321 300 298
f 321 324 300
f 322 299 301
f 322 301 325
f 302 325 301
f 302 326 325
f 325 323 322
f 325 326 323
f 324 303 300
f 324 327 303
f 304 303 327
f 304 327 328
f 329 326 302
f 329 302 305
f 329 305 304
f 329 304 328
f 329 328 325
f 329 325 326
f 311 330 310
f 311 331 330
f 312 331 311
f 312 332 331
f 330 313 310
f 330 333 313
f 335 332 312
f 335 312 315
f 335 315 314
f 335 314 334
f 336 313 333
f 336 316 313
f 334 314 317
f 334 317 337
f 337 317 316
f 337 316 336
f 322 338 321
f 322 339 338
f 323 339 322
f 323 340 339
f 338 324 321
f 338 341 324
f 343 340 323
f 343 323 326
f 343 326 325
f 343 325 342
f 344 324 341
f 344 327 324
f 342 325 328
f 342 328 345
f 345 328 327
f 345 327 344
f 344 341 342
f 344 342 345
f 331 346 330
f 331 347 346
f 332 347 331
f 332 348 347
f 346 333 330
f 346 350 333
f 348 332 335
f 348 335 352
f 335 334 351
f 335 351 352
f 353 348 352
f 353 349 348
f 354 333 350
f 354 336 333
f 351 334 337
f 351 337 355
f 337 336 354
f 337 354 355
f 356 351 355
f 356 352 351
f 339 357 338
f 339 358 357
f 340 358 339
f 340 359 358
f 357 341 338
f 357 361 341
f 362 342 341
f 362 341 361
f 362 361 357
f 362 357 358
f 363 359 340
f 363 340 343
f 363 343 342
f 363 342 362
f 364 359 363
f 364 360 359
f 365 362 361
f 365 366 362
f 367 362 366
f 367 363 362
f 347 368 346
f 347 369 368
f 348 369 347
f 348 370 369
f 349 370 348
f 349 371 370
f 368 350 346
f 368 372 350
f 373 372 368
f 373 368 369
f 371 349 353
f 371 353 375
f 353 352 374
f 353 374 375
f 372 354 350
f 372 376 354
f 355 354 376
f 355 376 377
f 376 372 373
f 376 373 377
f 374 352 356
f 374 356 378
f 356 355 377
f 356 377 378
f 384 379 383
f 384 380 379
f 386 381 385
f 386 382 381
f 387 382 386
f 387 383 382
f 388 383 387
f 388 384 383
f 359 389 358
f 359 390 389
f 360 390 359
f 360 391 390
f 393 358 389
f 393 362 358
f 362 392 361
f 362 393 392
f 391 360 364
f 391 364 395
f 364 363 394
f 364 394 395
f 392 365 361
f 392 396 365
f 366 365 396
f 366 396 397
f 396 392 393
f 396 393 397
f 394 363 367
f 394 367 398
f 367 366 397
f 367 397 398
f 402 400 399
f 402 403 400
f 403 401 400
f 403 404 401
f 405 403 402
f 405 406 403
f 407 403 406
f 407 404 403
f 370 408 369
f 370 409 408
f 371 409 370
f 371 410 409
f 408 373 369
f 408 411 373
f 410 371 375
f 410 375 413
f 375 374 412
f 375 412 413
f 411 377 373
f 411 414 377
f 412 374 378
f 412 378 415
f 378 377 414
f 378 414 415
f 416 412 415
f 416 413 412
f 419 379 380
f 419 418 379
f 382 420 381
f 382 421 420
f 422 379 418
f 422 383 379
f 422 382 383
f 422 421 382
f 422 417 421
f 422 418 417
f 419 380 384
f 419 384 423
f 420 385 381
f 420 425 385
f 386 385 425
f 386 425 426
f 425 420 421
f 425 421 426
f 427 387 386
f 427 386 426
f 423 384 388
f 423 388 428
f 388 387 427
f 388 427 428
f 429 423 428
f 429 424 423
f 430 427 426
f 430 431 427
f 432 427 431
f 432 428 427
f 390 433 389
f 390 434 433
f 391 434 390
f 391 435 434
f 436 389 433
f 436 393 389
f 435 391 395
f 435 395 438
f 395 394 437
f 395 437 438
f 436 397 393
f 436 441 397
f 437 394 398
f 437 398 442
f 398 397 441
f 398 441 442
f 443 437 442
f 443 438 437
f 400 444 399
f 400 445 444
f 401 445 400
f 401 446 445
f 445 440 439
f 445 446 440
f 447 399 444
f 447 402 399
f 448 446 401
f 448 401 404
f 447 405 402
f 447 449 405
f 450 406 405
f 450 405 449
f 448 404 407
f 448 407 451
f 407 406 450
f 407 450 451
f 452 450 449
f 452 453 450
f 454 450 453
f 454 451 450
f 409 455 408
f 409 456 455
f 410 456 409
f 410 457 456
f 455 411 408
f 455 459 411
f 460 459 455
f 460 455 456
f 457 410 413
f 457 413 461
f 462 457 461
f 462 458 457
f 459 414 411
f 459 463 414
f 464 415 414
f 464 414 463
f 461 413 416
f 461 416 465
f 416 415 464
f 416 464 465
f 468 417 418
f 468 467 417
f 419 468 418
f 419 469 468
f 471 417 467
f 471 421 417
f 471 466 470
f 471 467 466
f 469 419 423
f 469 423 472
f 424 472 423
f 424 473 472
f 471 426 421
f 471 475 426
f 475 470 474
f 475 471 470
f 473 424 429
f 473 429 477
f 429 428 476
f 429 476 477
f 477 476 472
f 477 472 473
f 475 430 426
f 475 479 430
f 478 475 474
f 478 479 475
f 480 431 430
f 480 430 479
f 476 428 432
f 476 432 481
f 481 432 431
f 481 431 480
f 434 482 433
f 434 483 482
f 435 483 434
f 435 484 483
f 482 436 433
f 482 486 436
f 487 486 482
f 487 482 483
f 484 435 438
f 484 438 488
f 489 484 488
f 489 485 484
f 440 490 439
f 440 491 490
f 486 441 436
f 486 492 441
f 493 442 441
f 493 441 492
f 488 438 443
f 488 443 494
f 443 442 493
f 443 493 494
f 497 439 490
f 497 445 439
f 445 496 444
f 445 497 496
f 498 491 440
f 498 440 446
f 497 490 491
f 497 491 498
f 500 444 496
f 500 447 444
f 500 495 499
f 500 496 495
f 501 498 446
f 501 446 448
f 500 449 447
f 500 503 449
f 503 499 502
f 503 500 499
f 504 501 448
f 504 448 451
f 503 452 449
f 503 506 452
f 505 503 502
f 505 506 503
f 507 453 452
f 507 452 506
f 504 451 454
f 504 454 508
f 508 454 453
f 508 453 507
f 457 509 456
f 457 510 509
f 458 510 457
f 458 511 510
f 509 460 456
f 509 514 460
f 514 459 460
f 514 513 459
f 511 458 462
f 511 462 516
f 462 461 515
f 462 515 516
f 513 463 459
f 513 519 463
f 519 512 518
f 519 513 512
f 520 464 463
f 520 463 519
f 515 461 465
f 515 465 521
f 465 464 520
f 465 520 521
f 522 515 521
f 522 516 515
f 522 517 516
f 522 523 517
f 524 466 467
f 524 523 466
f 468 524 467
f 468 525 524
f 469 525 468
f 469 526 525
f 528 466 523
f 528 470 466
f 527 523 522
f 527 528 523
f 526 469 472
f 526 472 529
f 528 474 470
f 528 532 474
f 531 528 527
f 531 532 528
f 529 472 476
f 529 476 533
f 534 529 533
f 534 530 529
f 532 478 474
f 532 536 478
f 535 532 531
f 535 536 532
f 537 479 478
f 537 478 536
f 480 479 537
f 480 537 538
f 539 533 476
f 539 476 481
f 539 481 480
f 539 480 538
f 540 537 536
f 540 541 537
f 542 537 541
f 542 538 537
f 484 543 483
f 484 544 543
f 485 544 484
f 485 545 544
f 543 487 483
f 543 547 487
f 487 546 486
f 487 547 546
f 545 485 489
f 545 489 549
f 489 488 548
f 489 548 549
f 546 492 486
f 546 552 492
f 553 493 492
f 553 492 552
f 548 488 494
f 548 494 554
f 494 493 553
f 494 553 554
f 555 548 554
f 555 549 548
f 555 550 549
f 555 556 550
f 557 495 496
f 557 556 495
f 556 551 550
f 556 557 551
f 558 496 497
f 558 557 496
f 498 558 497
f 498 559 558
f 562 495 556
f 562 499 495
f 561 556 555
f 561 562 556
f 559 498 501
f 559 501 563
f 564 559 563
f 564 560 559
f 562 502 499
f 562 566 502
f 565 562 561
f 565 566 562
f 567 563 501
f 567 501 504
f 566 505 502
f 566 569 505
f 568 566 565
f 568 569 566
f 570 506 505
f 570 505 569
f 571 507 506
f 571 506 570
f 567 504 508
f 567 508 572
f 572 508 507
f 572 507 571
f 510 573 509
f 510 574 573
f 511 574 510
f 511 575 574
f 578 512 513
f 578 577 512
f 573 514 509
f 573 579 514
f 514 578 513
f 514 579 578
f 580 579 573
f 580 573 574
f 581 575 511
f 581 511 516
f 517 581 516
f 517 582 581
f 581 576 575
f 581 582 576
f 577 518 512
f 577 584 518
f 585 519 518
f 585 518 584
f 584 577 578
f 584 578 585
f 520 519 585
f 520 585 586
f 586 585 578
f 586 578 579
f 521 520 586
f 521 586 587
f 588 522 521
f 588 521 587
f 589 582 517
f 589 517 523
f 524 589 523
f 524 590 589
f 589 583 582
f 589 590 583
f 591 524 525
f 591 590 524
f 592 525 526
f 592 591 525
f 588 527 522
f 588 594 527
f 593 588 587
f 593 594 588
f 592 526 529
f 592 529 596
f 595 591 592
f 595 592 596
f 597 529 530
f 597 596 529
f 599 527 594
f 599 531 527
f 599 593 598
f 599 594 593
f 600 595 596
f 600 596 601
f 597 530 534
f 597 534 602
f 602 534 533
f 602 533 601
f 602 601 596
f 602 596 597
f 599 535 531
f 599 605 535
f 605 598 604
f 605 599 598
f 606 536 535
f 606 535 605
f 609 601 533
f 609 533 539
f 609 539 538
f 609 538 608
f 609 608 600
f 609 600 601
f 611 603 610
f 611 604 603
f 606 540 536
f 606 613 540
f 612 606 605
f 612 613 606
f 614 541 540
f 614 540 613
f 615 608 538
f 615 538 542
f 615 542 541
f 615 541 614
f 615 614 607
f 615 607 608
f 544 616 543
f 544 617 616
f 545 617 544
f 545 618 617
f 616 547 543
f 616 621 547
f 547 620 546
f 547 621 620
f 622 621 616
f 622 616 617
f 623 618 545
f 623 545 549
f 550 623 549
f 550 624 623
f 623 619 618
f 623 624 619
f 625 550 551
f 625 624 550
f 620 552 546
f 620 626 552
f 553 552 626
f 553 626 627
f 627 626 620
f 627 620 621
f 554 553 627
f 554 627 628
f 629 555 554
f 629 554 628
f 630 625 551
f 630 551 557
f 558 630 557
f 558 631 630
f 632 558 559
f 632 631 558
f 633 559 560
f 633 632 559
f 629 561 555
f 629 635 561
f 634 629 628
f 634 635 629
f 633 560 564
f 633 564 638
f 638 564 563
f 638 563 637
f 638 637 632
f 638 632 633
f 640 561 635
f 640 565 561
f 640 634 639
f 640 635 634
f 642 637 563
f 642 563 567
f 642 641 636
f 642 636 637
f 640 568 565
f 640 645 568
f 645 639 644
f 645 640 639
f 646 569 568
f 646 568 645
f 570 569 646
f 570 646 647
f 648 571 570
f 648 570 647
f 649 642 567
f 649 567 572
f 649 572 571
f 649 571 648
f 649 648 641
f 649 641 642
f 651 643 650
f 651 644 643
f 652 646 645
f 652 653 646
f 654 646 653
f 654 647 646
f 575 655 574
f 575 656 655
f 657 575 576
f 657 656 575
f 655 580 574
f 655 659 580
f 580 658 579
f 580 659 658
f 661 657 576
f 661 576 582
f 660 656 657
f 660 657 661
f 583 661 582
f 583 662 661
f 658 586 579
f 658 663 586
f 587 586 663
f 587 663 664
f 664 663 658
f 664 658 659
f 665 662 583
f 665 583 590
f 666 590 591
f 666 665 590
f 667 587 664
f 667 593 587
f 666 591 595
f 666 595 669
f 668 665 666
f 668 666 669
f 667 598 593
f 667 671 598
f 673 669 595
f 673 595 600
f 675 598 671
f 675 604 598
f 675 603 604
f 675 674 603
f 674 671 670
f 674 675 671
f 676 605 604
f 676 604 675
f 679 673 600
f 679 600 608
f 679 608 607
f 679 607 678
f 679 678 672
f 679 672 673
f 680 603 674
f 680 610 603
f 675 604 611
f 675 611 681
f 611 610 680
f 611 680 681
f 676 612 605
f 676 682 612
f 681 676 675
f 681 682 676
f 683 613 612
f 683 612 682
f 684 678 607
f 684 607 614
f 684 614 613
f 684 613 683
f 684 683 677
f 684 677 678
f 618 685 617
f 618 686 685
f 619 686 618
f 619 687 686
f 685 622 617
f 685 689 622
f 622 688 621
f 622 689 688
f 690 689 685
f 690 685 686
f 691 687 619
f 691 619 624
f 690 686 687
f 690 687 691
f 692 624 625
f 692 691 624
f 688 627 621
f 688 693 627
f 628 627 693
f 628 693 694
f 694 693 688
f 694 688 689
f 692 625 630
f 692 630 695
f 696 630 631
f 696 695 630
f 697 631 632
f 697 696 631
f 698 628 694
f 698 634 628
f 699 695 696
f 699 696 700
f 701 697 632
f 701 632 637
f 701 637 636
f 701 636 700
f 701 700 696
f 701 696 697
f 698 639 634
f 698 703 639
f 705 700 636
f 705 636 641
f 707 639 703
f 707 644 639
f 707 643 644
f 707 706 643
f 706 703 702
f 706 707 703
f 708 645 644
f 708 644 707
f 711 705 641
f 711 641 648
f 711 648 647
f 711 647 710
f 711 710 704
f 711 704 705
f 712 643 706
f 712 650 643
f 707 644 651
f 707 651 713
f 651 650 712
f 651 712 713
f 708 652 645
f 708 714 652
f 713 708 707
f 713 714 708
f 715 653 652
f 715 652 714
f 716 710 647
f 716 647 654
f 716 654 653
f 716 653 715
f 716 715 709
f 716 709 710
f 718 655 656
f 718 717 655
f 717 659 655
f 717 719 659
f 718 656 660
f 718 660 720
f 720 719 717
f 720 717 718
f 721 660 661
f 721 720 660
f 662 721 661
f 662 722 721
f 719 664 659
f 719 724 664
f 727 722 662
f 727 662 665
f 727 723 722
f 727 728 723
f 724 667 664
f 724 729 667
f 730 725 726
f 730 726 731
f 727 665 668
f 727 668 732
f 733 668 669
f 733 732 668
f 733 727 732
f 733 728 727
f 729 671 667
f 729 735 671
f 735 670 671
f 735 734 670
f 736 730 731
f 736 731 737
f 737 731 732
f 737 732 738
f 739 733 669
f 739 669 673
f 739 673 672
f 739 672 738
f 740 670 734
f 740 674 670
f 741 740 734
f 741 734 735
f 742 736 737
f 742 737 743
f 744 738 672
f 744 672 678
f 744 678 677
f 744 677 743
f 744 743 737
f 744 737 738
f 745 674 740
f 745 680 674
f 681 680 745
f 681 745 746
f 745 740 741
f 745 741 746
f 747 682 681
f 747 681 746
f 748 743 677
f 748 677 683
f 748 683 682
f 748 682 747
f 690 751 689
f 690 752 751
f 753 690 691
f 753 752 690
f 692 753 691
f 692 754 753
f 753 750 749
f 753 754 750
f 751 694 689
f 751 756 694
f 754 692 695
f 754 695 759
f 759 755 754
f 759 760 755
f 756 698 694
f 756 761 698
f 761 756 757
f 761 757 762
f 762 757 758
f 762 758 763
f 759 695 699
f 759 699 764
f 765 699 700
f 765 764 699
f 761 703 698
f 761 767 703
f 767 702 703
f 767 766 702
f 768 762 763
f 768 763 769
f 770 769 763
f 770 763 764
f 771 765 700
f 771 700 705
f 771 705 704
f 771 704 770
f 772 702 766
f 772 706 702
f 773 772 766
f 773 766 767
f 775 770 704
f 775 704 710
f 775 710 709
f 775 709 774
f 775 774 769
f 775 769 770
f 776 706 772
f 776 712 706
f 713 712 776
f 713 776 777
f 776 772 773
f 776 773 777
f 778 714 713
f 778 713 777
f 779 774 709
f 779 709 715
f 779 715 714
f 779 714 778
f 720 780 719
f 720 781 780
f 721 781 720
f 721 782 781
f 722 782 721
f 722 783 782
f 723 783 722
f 723 784 783
f 780 724 719
f 780 785 724
f 786 785 780
f 786 780 781
f 726 725 786
f 726 786 787
f 787 786 781
f 787 781 782
f 788 787 782
f 788 782 783
f 789 784 723
f 789 723 728
f 788 783 784
f 788 784 789
f 785 729 724
f 785 790 729
f 791 786 725
f 791 725 730
f 791 790 785
f 791 785 786
f 792 726 787
f 792 731 726
f 732 731 792
f 732 792 793
f 792 787 788
f 792 788 793
f 794 789 728
f 794 728 733
f 794 793 788
f 794 788 789
f 795 729 790
f 795 735 729
f 796 791 730
f 796 730 736
f 795 790 791
f 795 791 796
f 797 732 793
f 797 738 732
f 798 794 733
f 798 733 739
f 739 738 797
f 739 797 798
f 797 793 794
f 797 794 798
f 795 741 735
f 795 799 741
f 796 736 742
f 796 742 800
f 799 795 796
f 799 796 800
f 801 742 743
f 801 800 742
f 802 741 799
f 802 746 741
f 747 746 802
f 747 802 803
f 802 799 800
f 802 800 803
f 801 743 748
f 801 748 804
f 748 747 803
f 748 803 804
f 750 805 749
f 750 806 805
f 752 807 751
f 752 808 807
f 805 753 749
f 805 809 753
f 809 752 753
f 809 808 752
f 810 806 750
f 810 750 754
f 810 809 805
f 810 805 806
f 755 810 754
f 755 811 810
f 812 751 807
f 812 756 751
f 757 756 812
f 757 812 813
f 812 807 808
f 812 808 813
f 758 757 813
f 758 813 814
f 814 813 808
f 814 808 809
f 814 809 810
f 814 810 815
f 811 755 760
f 811 760 816
f 816 760 759
f 816 759 815
f 815 810 811
f 815 811 816
f 818 761 762
f 818 817 761
f 819 758 814
f 819 763 758
f 815 759 764
f 815 764 820
f 764 763 819
f 764 819 820
f 819 814 815
f 819 815 820
f 821 764 765
f 821 820 764
f 817 767 761
f 817 822 767
f 818 762 768
f 818 768 823
f 822 817 818
f 822 818 823
f 824 768 769
f 824 823 768
f 825 764 820
f 825 770 764
f 826 821 765
f 826 765 771
f 771 770 825
f 771 825 826
f 825 820 821
f 825 821 826
f 822 773 767
f 822 827 773
f 827 822 823
f 827 823 828
f 824 769 774
f 824 774 829
f 828 823 824
f 828 824 829
f 827 777 773
f 827 830 777
f 778 777 830
f 778 830 831
f 830 827 828
f 830 828 831
f 829 774 779
f 829 779 832
f 779 778 831
f 779 831 832
f 801 833 800
f 801 834 833
f 833 803 800
f 833 835 803
f 834 801 804
f 834 804 836
f 804 803 835
f 804 835 836
f 835 833 834
f 835 834 836
f 829 837 828
f 829 838 837
f 837 831 828
f 837 839 831
f 838 829 832
f 838 832 840
f 832 831 839
f 832 839 840
f 839 837 838
f 839 838 840
