# parsimony mesh: cplx_CPLX0-7534 (source /Users/eranagmon/code/v2e-cplx/workspace/studies/ecoli-3d/viz/3d/structures/cplx_CPLX0-7534.pdb)
# atoms: 8349  voxel: 8 Å  verts: 791  tris: 1584
v 32.1727 28.8131 -97.3866
v 36.6679 28.2986 -97.7257
v 41.9788 28.5361 -97.6496
v 32.1727 31.5612 -97.3866
v 36.2230 33.9074 -97.7715
v 42.7594 33.4267 -97.7259
v 38.5931 38.1083 -97.3869
v 42.1457 38.1083 -97.3869
v 32.1374 21.2378 -89.4751
v 36.6679 21.0188 -89.7378
v 44.6679 20.0562 -90.9763
v 50.1997 19.9544 -91.1264
v 24.4052 28.7091 -89.5164
v 29.4884 26.0945 -92.1624
v 36.6679 24.2986 -93.7378
v 44.6544 25.6923 -94.7277
v 51.1672 25.4267 -91.7781
v 24.2696 33.4267 -89.5807
v 29.1708 33.9074 -94.0990
v 33.2597 36.8945 -96.7927
v 46.7594 33.4267 -95.8290
v 51.1824 33.4267 -91.8290
v 24.0068 41.4267 -89.9547
v 28.6679 41.4267 -92.7512
v 36.2230 41.0356 -95.3525
v 44.7790 41.1308 -93.4922
v 50.2199 38.8200 -91.1943
v 24.0548 45.9345 -90.0150
v 28.9049 48.9313 -90.9195
v 36.8512 49.6646 -91.1847
v 42.0789 47.1565 -90.4568
v 31.7296 54.1551 -89.8463
v 34.3067 54.1551 -89.8463
v 40.5753 13.3909 -81.1518
v 40.8831 13.3909 -81.1518
v 24.1148 20.9747 -82.1768
v 29.1496 20.3854 -84.9472
v 37.4124 17.2436 -84.3323
v 43.9970 16.1202 -84.3323
v 52.7870 19.0891 -85.0175
v 57.4998 20.6866 -82.2939
v 23.5759 25.7961 -84.9472
v 26.8040 23.3758 -87.5101
v 55.1672 25.4267 -87.0628
v 57.9095 25.4267 -83.0628
v 22.0353 33.4267 -85.1029
v 47.7168 36.1104 -81.9587
v 53.0109 33.2709 -84.9086
v 57.4915 30.4314 -82.5252
v 21.4165 41.4267 -85.1029
v 46.5367 41.4626 -84.8164
v 50.2199 38.8200 -87.2920
v 23.2074 48.9313 -84.5989
v 26.3963 51.2678 -86.9295
v 39.6401 52.4899 -87.6852
v 42.7330 49.6646 -85.0523
v 24.3257 53.7127 -81.5962
v 28.9049 54.6654 -84.5989
v 36.8512 54.7688 -85.0523
v 41.3772 53.8850 -82.3519
v 38.7286 13.0631 -77.1029
v 43.9970 12.8707 -77.2090
v 49.3684 12.9849 -74.6131
v 16.2005 20.8070 -73.6396
v 21.1360 20.1240 -76.6249
v 28.6679 17.5036 -77.1029
v 34.7286 14.6673 -77.1029
v 46.2165 14.4097 -79.9464
v 52.2882 16.2671 -77.2090
v 58.0200 20.2399 -77.1029
v 15.7193 25.4267 -74.0221
v 19.4999 25.4267 -78.0221
v 59.4837 25.4267 -77.1029
v 15.8051 33.4267 -74.5073
v 18.4336 33.4267 -78.5073
v 46.0908 34.9821 -77.1029
v 52.6679 32.3684 -77.1029
v 58.1316 30.8130 -77.1029
v 15.8085 41.4267 -75.1565
v 18.0776 41.4267 -79.1565
v 43.0940 41.4267 -77.1029
v 15.8750 46.2494 -74.6575
v 21.0907 49.3630 -77.3907
v 28.6679 52.1098 -74.7586
v 36.6679 50.8380 -74.8139
v 41.8961 48.6392 -77.3598
v 24.3257 53.7127 -80.1240
v 28.6679 54.4287 -78.7586
v 36.6679 54.5579 -78.8139
v 41.3772 53.8850 -80.1977
v 16.3670 13.2538 -65.3534
v 20.6679 12.8527 -66.0318
v 28.6679 12.3967 -67.7633
v 35.9720 12.3100 -69.8385
v 44.8172 12.5135 -69.0505
v 49.3684 12.9849 -71.6822
v 14.8494 17.8549 -68.4532
v 20.6679 16.1373 -70.0318
v 28.6679 14.6635 -71.7633
v 32.8414 13.5087 -72.9955
v 47.5835 14.3169 -66.3489
v 52.2882 16.2358 -69.0505
v 57.9722 20.2704 -69.1029
v 7.8092 27.1581 -66.0611
v 11.3515 24.8655 -68.8779
v 40.5126 29.3237 -65.3512
v 40.7789 29.3237 -65.3512
v 59.4940 25.4267 -69.1029
v 7.1468 33.4267 -66.5753
v 11.8051 33.4267 -70.5753
v 40.5126 29.5597 -65.3512
v 43.4809 32.5216 -68.4050
v 52.6679 34.6021 -70.5397
v 58.3757 33.1329 -68.8389
v 7.4985 38.8175 -66.1079
v 12.2121 41.4612 -68.9059
v 44.8163 41.4267 -70.7239
v 52.6679 41.4267 -68.5182
v 58.4982 41.4267 -66.8973
v 15.3629 46.5866 -69.1029
v 21.4568 50.5846 -68.3255
v 27.8785 51.4979 -68.3255
v 36.6679 48.3801 -69.1029
v 43.8776 46.6445 -68.9862
v 52.6679 47.2187 -67.0814
v 58.2911 46.6556 -66.6021
v 24.6495 53.4338 -65.1405
v 24.6856 53.4338 -65.1405
v 16.3670 13.2538 -63.7921
v 20.1118 12.2995 -61.1164
v 28.6679 10.4225 -61.1029
v 36.6679 10.1287 -61.1029
v 42.7507 11.8536 -61.1029
v 14.7454 17.4267 -62.9627
v 20.1118 18.1945 -58.6314
v 24.8002 21.3730 -57.1707
v 46.7507 15.2769 -61.1029
v 52.5044 19.2872 -61.2235
v 57.4360 20.7273 -63.9705
v 7.4325 26.7417 -61.1029
v 12.6063 24.9700 -60.4980
v 20.2442 24.7065 -58.0176
v 24.8002 21.5597 -57.1707
v 40.5126 29.3237 -64.8021
v 40.7789 29.3237 -64.8021
v 54.5467 25.4267 -59.1603
v 57.9198 25.4267 -63.1603
v 5.8625 33.4267 -61.1029
v 16.1406 29.9546 -57.4358
v 17.2951 29.9546 -57.4358
v 40.5126 29.5597 -64.8021
v 40.7789 29.5597 -64.8021
v 55.2084 33.4267 -58.6446
v 57.9567 33.4267 -62.6446
v 7.0186 41.4612 -61.0685
v 10.3874 44.1509 -63.7122
v 56.0082 41.4267 -57.7824
v 58.4982 41.4267 -61.7824
v 8.0125 46.1973 -58.3788
v 12.8996 47.4159 -61.0685
v 21.4568 50.9329 -61.8859
v 27.8785 50.7313 -61.8859
v 36.6679 48.4739 -61.1029
v 44.6679 47.9826 -61.1029
v 53.3743 47.0963 -60.3386
v 58.2911 46.6556 -62.4956
v 24.6495 53.4338 -65.0746
v 24.6856 53.4338 -65.0746
v 22.4078 12.3134 -55.9790
v 29.0262 11.2598 -53.2286
v 36.6679 9.5514 -53.1029
v 42.5640 11.4251 -53.1029
v 22.4078 16.0397 -55.9790
v 28.3660 17.7883 -53.5595
v 34.3227 19.5370 -51.1399
v 46.5640 15.8473 -53.1029
v 49.8803 19.8473 -53.1029
v 7.8794 28.1153 -56.5883
v 10.8073 28.1153 -56.5883
v 22.6284 26.8930 -56.2237
v 28.1715 25.0756 -53.6818
v 34.3227 23.2582 -51.1399
v 51.3511 25.4267 -53.1029
v 7.3835 33.4267 -55.9553
v 13.1583 32.9131 -53.6712
v 20.2442 31.4532 -53.3754
v 26.2095 31.1648 -50.8904
v 47.6660 35.9141 -50.2406
v 51.0103 33.3191 -52.9855
v 7.3862 41.6399 -53.2936
v 10.1760 39.1154 -50.7540
v 46.0729 41.4267 -51.6129
v 52.0082 41.4267 -55.6129
v 7.7588 46.6691 -53.1029
v 13.3397 50.7131 -52.6986
v 20.0391 51.3287 -52.6986
v 28.6679 48.9000 -53.1029
v 36.6679 47.7427 -53.1029
v 43.9931 46.3463 -53.6283
v 51.1785 45.8200 -56.6452
v 16.4542 53.5070 -49.7624
v 16.9533 53.5070 -49.7624
v 31.9318 12.4474 -48.6052
v 36.6679 11.7902 -48.1517
v 42.0013 12.2240 -48.3323
v 31.9318 14.2036 -48.6052
v 36.8607 17.0928 -47.5556
v 44.6679 17.6172 -47.5068
v 49.2236 20.4108 -48.5238
v 31.5428 28.5915 -47.6735
v 36.8607 25.7256 -46.5395
v 44.6679 25.4267 -46.1049
v 49.4723 25.4267 -48.2371
v 14.1817 35.4959 -45.1029
v 21.2296 35.3250 -44.7379
v 28.5278 33.7556 -44.7507
v 36.2468 33.5786 -43.3367
v 44.8667 33.3191 -47.0491
v 49.1846 30.5807 -48.5275
v 8.1111 44.4487 -47.8218
v 12.3437 41.9167 -44.8401
v 20.8945 41.3185 -41.8431
v 25.5128 37.9189 -41.8279
v 37.7881 41.4267 -43.8951
v 42.0729 41.4267 -47.8951
v 8.1111 46.3126 -47.8218
v 13.3397 49.1582 -47.0889
v 19.9025 49.7139 -45.3985
v 28.6679 49.4025 -45.1029
v 36.3851 46.7428 -45.7259
v 40.8765 45.5602 -48.8078
v 16.4542 53.5070 -48.9386
v 16.9533 53.5070 -48.9386
v 8.6062 37.3423 -33.6382
v 12.1740 36.3248 -36.6241
v 18.7836 36.1126 -37.1029
v 30.8462 36.3465 -40.8176
v 33.2994 36.3465 -40.8176
v 8.6062 37.8360 -33.6382
v 12.6465 41.2770 -36.2926
v 20.1161 42.3455 -37.8847
v 28.3748 40.9220 -39.8684
v 33.7881 41.4267 -40.3793
v 16.1149 45.5057 -33.6137
v 19.8551 46.3950 -36.8119
v 28.6679 47.6541 -39.7737
v 33.5300 46.5389 -40.4234
v 8.6062 37.3423 -32.8875
v 12.6679 36.8137 -32.5152
v 17.2193 36.6937 -32.5348
v 8.5982 41.5404 -29.1700
v 11.5095 42.5120 -29.8581
v 17.2244 41.4267 -32.5127
v 8.5902 45.4777 -25.4525
v 12.4568 45.4917 -29.1683
v 16.8586 45.5057 -32.8840
v 8.5902 45.2449 -25.0655
v 8.7987 45.2449 -25.0655
v 8.5902 45.4777 -25.0655
v 8.7987 45.4777 -25.0655
v 31.7388 -75.1634 6.2979
v 36.6679 -75.8645 5.4732
v 44.6679 -76.8661 5.2306
v 49.5667 -76.4989 5.9744
v 24.4390 -67.1590 6.6933
v 28.9105 -70.1247 5.9530
v 36.6679 -70.5733 3.2602
v 44.6679 -70.5733 2.8953
v 50.4148 -70.5733 5.5048
v 24.4390 -65.8698 6.6933
v 28.5640 -62.9512 5.4108
v 36.6679 -62.5733 2.7401
v 44.6679 -62.5733 3.3747
v 50.2973 -62.5733 5.8266
v 24.4294 -51.3414 6.5290
v 28.5640 -54.2341 5.6517
v 36.6679 -54.5733 4.6048
v 44.0507 -55.0759 5.7915
v 49.4100 -58.0776 6.4034
v 24.4294 -50.3092 6.5290
v 28.6679 -50.0100 6.4674
v 36.6679 -49.9977 6.5487
v 40.9725 -50.2928 6.6373
v -64.3089 21.1239 6.5918
v -61.9096 21.1239 6.5918
v -48.7809 21.0583 6.5607
v -47.0571 21.0583 6.5607
v -71.4463 29.1742 6.8199
v -67.1182 26.0752 5.9259
v -59.2786 24.9960 4.8465
v -51.4014 24.9960 5.3413
v -46.7960 25.4267 6.3595
v -71.4577 33.4267 6.8004
v -67.3321 33.4267 5.0380
v -59.3321 33.4267 3.0816
v -51.3321 33.4267 4.0884
v -46.5551 33.4267 6.1415
v -72.1814 41.4267 6.2078
v -67.3321 41.4267 4.7951
v -58.5495 42.2018 5.2501
v -51.3321 39.9563 5.7808
v -46.7359 38.1743 6.2700
v -72.4112 46.8496 6.0298
v -67.3321 47.6157 5.6692
v -60.6945 46.9224 6.1272
v 39.9395 -82.8947 14.4035
v 44.6679 -83.0254 13.5909
v 49.3565 -82.8548 13.6490
v 24.1887 -75.1857 13.9674
v 28.9105 -76.1332 11.1393
v 37.0309 -79.6446 11.4009
v 44.6679 -80.8661 9.5909
v 50.9765 -78.9287 10.9482
v 23.8898 -70.1247 11.1393
v 26.4055 -72.4923 8.6341
v 53.0262 -70.5733 10.8971
v 23.4511 -62.9512 10.8817
v 25.8280 -60.5365 8.2048
v 48.5625 -58.6688 14.8012
v 50.7044 -61.8306 11.6396
v 23.4591 -54.2341 10.8817
v 25.8280 -56.6747 8.2048
v 46.1990 -55.0759 11.6396
v 49.4100 -58.0776 9.4679
v 24.0647 -49.8705 10.8971
v 28.6679 -47.7823 10.8971
v 36.6679 -47.5005 10.8971
v 41.6608 -49.5887 10.8971
v -71.8923 21.1076 13.8506
v -67.1182 20.4491 11.0692
v -59.2786 19.6821 10.5425
v -51.4014 19.6897 10.5425
v -46.2522 20.4534 10.8971
v -72.6861 26.0752 11.0692
v -69.6422 23.8409 8.5173
v -56.5762 22.0422 7.6394
v -54.1142 22.0422 7.6394
v -45.4378 25.4267 10.8971
v -79.7700 36.1355 14.2828
v -75.5819 33.4519 11.3285
v -45.8290 33.4267 10.8971
v -79.7736 41.4267 14.2192
v -76.1814 41.4267 10.2192
v -55.4225 45.3081 10.8971
v -51.3321 42.3060 10.8971
v -46.6433 38.4246 10.8971
v -79.4829 45.6842 14.6075
v -74.6108 48.9336 11.9532
v -66.7588 51.9561 11.5382
v -59.4225 48.5213 10.8971
v -71.4771 53.5226 14.6322
v -69.0432 53.5226 14.6322
v 31.0671 -83.3249 21.6587
v 37.0309 -84.1660 18.9540
v 44.6679 -84.9915 18.8971
v 50.6493 -83.5644 18.8971
v 23.0872 -76.4260 18.8971
v 28.5074 -80.0939 18.9540
v 34.6062 -81.3040 16.3253
v 54.8092 -78.7910 18.3998
v 58.1768 -76.2694 20.7350
v 21.1439 -70.5733 18.8971
v 46.9724 -67.8925 21.2301
v 53.3078 -69.4244 18.6106
v 58.2366 -70.5733 20.6460
v 16.6135 -59.0032 22.7353
v 19.1870 -62.0313 19.6000
v 46.6252 -61.8306 18.6969
v 52.9509 -65.1061 18.9772
v 57.2505 -66.2101 22.0577
v 16.6135 -57.6648 22.7353
v 19.0163 -54.8282 19.6000
v 44.6116 -54.5733 18.8971
v 22.5111 -49.4407 18.8971
v 28.6679 -46.7482 18.8971
v 36.6679 -46.3143 18.8971
v 41.8933 -49.0067 18.8971
v -64.0237 13.1680 22.3774
v -59.3321 12.8408 21.3893
v -53.7293 12.9042 21.4064
v -73.2539 20.1884 18.8971
v -66.9471 16.6316 19.3853
v -59.3321 15.4731 17.3893
v -51.1704 15.6236 18.8026
v -43.4332 19.2351 19.0044
v -38.6427 20.5150 21.7427
v -80.2576 27.6980 21.6979
v -77.0189 25.1895 18.9775
v -55.8324 28.8236 22.1691
v -54.4019 28.8236 22.1691
v -41.9739 25.4267 17.0197
v -38.1370 25.4267 21.0197
v -80.6069 33.4519 18.9775
v -78.2477 30.8021 16.3645
v -56.2072 33.4267 21.8351
v -51.5740 32.9300 20.6596
v -44.1813 33.0894 18.3994
v -38.4281 30.9132 21.5483
v -81.4343 41.4267 18.8971
v -55.7111 42.4792 19.0821
v -53.0148 42.0073 18.6358
v -47.0100 38.0097 15.2506
v -80.5349 46.2797 18.8971
v -75.6502 50.2797 18.8971
v -63.7099 53.3904 15.0697
v -58.5870 50.2049 16.5632
v -54.9810 49.4267 20.8503
v -71.6502 53.5979 18.8971
v -66.7588 53.6816 18.2006
v -59.3321 53.8976 20.1861
v -54.9377 53.8581 21.7765
v 23.7025 -83.1038 29.9199
v 28.5074 -84.3331 27.1108
v 36.6679 -87.0075 26.8971
v 44.6679 -86.8940 26.8971
v 51.2938 -84.2617 26.8971
v 15.2694 -76.2753 29.4275
v 20.7044 -79.0199 27.0071
v 25.7338 -81.7645 24.5866
v 55.2938 -80.8333 26.8971
v 58.4706 -76.8333 26.8971
v 8.0660 -67.5616 30.3448
v 12.6288 -70.3663 28.5433
v 17.9449 -70.5733 24.3691
v 39.5688 -67.6018 29.3774
v 44.4506 -68.0337 26.7853
v 51.0833 -67.6274 26.8971
v 58.9377 -70.5733 26.8971
v 8.0660 -65.3886 30.3448
v 13.2187 -62.1959 27.0037
v 17.3322 -64.3366 23.6626
v 39.5688 -64.5900 29.3774
v 44.3516 -62.8644 27.0149
v 52.9448 -63.6745 27.5873
v 57.3168 -63.1554 27.4721
v 15.4942 -56.4773 26.8971
v 17.4370 -52.4773 26.8971
v 38.2681 -52.7093 28.9846
v 44.1734 -54.7467 26.8185
v 52.4622 -54.2998 29.8109
v 57.8180 -54.5733 30.2229
v 21.4370 -49.1036 26.8971
v 28.6679 -48.0311 26.8971
v 36.0280 -49.0814 26.5496
v 41.2825 -49.5168 23.6513
v 54.9917 -50.0720 30.3730
v 57.7427 -50.0720 30.3730
v -79.4284 13.3504 30.7548
v -75.3321 13.0630 30.1141
v -66.9471 12.4384 27.1561
v -59.3321 11.5580 26.8971
v -52.5819 12.4868 26.8971
v -81.3202 17.4267 29.2080
v -75.7334 17.4275 25.8048
v -69.3570 14.7614 24.6621
v -48.5819 14.4811 26.8971
v -42.9309 18.5232 27.2578
v -38.6427 20.5150 24.8316
v -88.5419 26.9066 29.6919
v -83.7388 24.6356 26.5729
v -78.6676 22.3647 23.4539
v -55.8324 28.8236 24.4366
v -54.4019 28.8236 24.4366
v -39.9968 23.2919 30.1649
v -38.3105 25.7458 27.2578
v -89.3588 33.4267 29.3170
v -84.5973 33.4267 25.3170
v -56.2072 33.4267 25.1036
v -51.1460 33.5871 27.0348
v -43.3321 33.0057 26.8971
v -38.5722 30.7650 26.8971
v -88.8246 38.7056 29.9955
v -84.4235 41.3940 27.1561
v -55.9985 39.6486 24.2996
v -51.5742 41.3250 27.2600
v -43.3321 43.3019 30.2517
v -39.1543 45.0189 30.7132
v -81.1254 46.7654 26.8971
v -76.1574 50.7654 26.8971
v -65.3425 51.6735 28.5751
v -59.3321 50.3262 27.4841
v -52.4314 48.6651 26.7777
v -43.3321 46.4633 30.2517
v -39.1543 45.9512 30.7132
v -72.1574 53.7887 26.8971
v -67.7383 53.8342 26.3039
v -59.3321 53.8976 23.4841
v -54.9377 53.8581 23.3350
v 24.6281 -90.5893 38.8498
v 28.6679 -90.6251 38.6874
v 33.1487 -90.6264 38.6648
v 8.4199 -82.9383 38.4891
v 12.6679 -83.6946 37.2575
v 21.4986 -86.0702 35.3178
v 28.6679 -88.2094 34.6874
v 36.1564 -89.1140 35.5577
v 44.6679 -86.9109 34.8971
v 50.5475 -83.9733 34.8971
v 8.2011 -78.5733 38.0871
v 12.6288 -78.7945 33.9823
v 18.3692 -81.6086 31.7857
v 54.5475 -79.5782 34.8971
v 57.3486 -75.5782 34.8971
v 6.4927 -70.3663 35.2939
v 9.9360 -72.8950 32.8918
v 39.5688 -67.6018 32.1673
v 44.6679 -67.4094 31.9186
v 49.8772 -66.6596 30.9889
v 57.7443 -70.5733 34.8971
v 6.3581 -62.6625 34.8700
v 9.8239 -60.0553 32.1852
v 39.5688 -64.5900 32.1673
v 44.6679 -65.0100 31.9186
v 49.8772 -66.4722 30.9889
v 57.9011 -62.5733 34.8971
v 8.0692 -57.6300 37.5185
v 12.5615 -55.3641 34.8700
v 17.3432 -51.2694 34.8971
v 38.2681 -52.7093 33.3576
v 44.8873 -52.4454 35.5734
v 50.2322 -51.3115 34.8971
v 58.4269 -54.5733 34.8971
v 21.3432 -49.3122 34.8971
v 28.6679 -48.9794 34.8971
v 36.0280 -50.2679 35.5734
v 42.3670 -50.5081 38.6909
v 54.2322 -50.1550 34.8971
v 57.5894 -50.1550 34.8971
v -87.7739 13.1064 38.4762
v -82.5899 12.9152 35.4446
v -75.3321 11.5900 34.8971
v -67.3321 10.3072 34.8971
v -59.3321 11.0034 34.8971
v -53.4757 12.6853 34.8971
v -88.1878 17.4267 36.7003
v -85.3202 17.4267 32.7003
v -49.4757 15.0671 34.8971
v -44.8237 19.0671 34.8971
v -95.8315 28.7846 37.8156
v -90.9532 25.1789 34.4356
v -87.2200 21.5732 31.0555
v -41.2421 25.7458 34.3689
v -39.2229 28.6252 31.3502
v -95.7344 33.4267 37.9910
v -93.3588 33.4267 33.9910
v -71.9674 37.1845 38.6608
v -71.0422 37.1845 38.6608
v -47.8900 37.2420 31.0496
v -43.0080 33.4833 33.8666
v -39.2229 29.7245 31.3502
v -95.3690 37.5021 38.7704
v -90.8772 40.7705 36.0066
v -85.6035 44.0389 33.2429
v -71.9674 37.6572 38.6608
v -71.0422 37.6572 38.6608
v -47.8900 37.6681 31.0496
v -43.0265 39.4223 34.1886
v -38.5670 43.7401 34.8971
v -87.5965 45.6001 38.5762
v -83.0949 46.9750 35.5046
v -75.0249 50.9502 34.7205
v -67.7383 50.6391 34.7205
v -59.3321 47.8987 34.8971
v -51.3321 47.4815 34.8971
v -43.3321 47.7380 34.8971
v -38.5670 46.7387 34.8971
v -72.1534 53.7769 31.9362
v -70.6758 53.7769 31.9362
v 24.6281 -90.5893 39.0167
v 28.9484 -90.7253 42.1689
v 36.1564 -91.0737 42.5319
v 41.4122 -91.1700 44.9552
v 8.4199 -82.9383 39.2931
v 12.6679 -83.6946 39.9508
v 21.4440 -86.4514 40.3836
v 27.2333 -86.5733 43.9985
v 38.4820 -89.8952 39.6219
v 44.9178 -86.5620 43.0902
v 49.6262 -83.2287 41.2253
v 8.2011 -78.5733 39.8595
v 12.6679 -78.5733 41.0728
v 20.6679 -78.5733 41.4416
v 28.8397 -78.5519 44.0662
v 34.1063 -75.8709 45.7373
v 48.4234 -82.2349 46.5586
v 52.3108 -78.4154 42.7398
v 56.6808 -74.5960 38.9210
v 6.4002 -70.5733 40.8260
v 12.6679 -70.5733 42.8017
v 20.6679 -70.5733 42.8521
v 28.0702 -70.8502 44.5846
v 34.1063 -73.7014 45.7373
v 53.8949 -70.5733 43.3669
v 57.0431 -70.5733 39.3669
v 6.5684 -62.3458 43.1079
v 12.6679 -64.5210 45.6797
v 20.6679 -65.3546 46.0760
v 25.0051 -65.9723 46.4434
v 47.3587 -60.0455 45.8264
v 52.2530 -62.6566 43.7489
v 57.5270 -62.5733 39.7649
v 8.0658 -54.8073 43.5046
v 12.6679 -51.9765 40.7630
v 16.8996 -50.7209 39.0391
v 38.8545 -51.8030 44.5226
v 44.8629 -53.9083 42.5078
v 52.5250 -53.8374 40.2487
v 57.2768 -54.5733 39.3897
v 8.5145 -50.4381 46.5763
v 12.6679 -49.7247 44.7630
v 20.0069 -49.5384 42.1823
v 28.6679 -49.6087 42.8971
v 36.3798 -50.1996 42.2724
v 42.3670 -50.5081 39.1893
v 55.0965 -50.5169 38.9992
v 56.8217 -50.5169 38.9992
v -87.7739 13.1064 39.5422
v -83.3321 12.8445 40.1606
v -75.1537 11.8638 42.7209
v -67.3321 9.6207 42.8971
v -59.3321 10.5715 42.8971
v -54.7132 12.7659 42.8971
v -88.1878 17.4267 39.9276
v -83.3321 17.4267 40.9872
v -75.1537 16.9852 43.4928
v -68.9898 19.3575 45.1439
v -50.4233 17.6084 43.2601
v -45.9896 20.3963 40.8355
v -95.8315 28.7846 39.6860
v -90.9516 25.8414 40.6976
v -83.3321 25.4267 41.4652
v -75.3321 25.4267 41.9703
v -68.8939 25.4267 45.0611
v -48.0812 25.4267 46.0738
v -45.2211 25.4267 42.0738
v -95.7344 33.4267 39.5452
v -90.5694 34.1726 43.5053
v -83.3321 31.5248 44.6386
v -73.8901 33.6427 42.8385
v -70.7328 34.2349 43.0759
v -48.8853 33.4267 45.7081
v -44.8460 33.4267 41.7081
v -95.3690 37.5021 38.9723
v -91.6116 40.6719 42.1422
v -71.9674 37.6572 39.9494
v -71.0422 37.6572 39.9494
v -50.3030 41.4267 44.1856
v -43.0265 41.1221 41.0467
v -38.4897 43.5858 40.7618
v -88.6349 46.6653 42.8971
v -83.3321 49.3511 42.8971
v -75.3321 49.8762 42.8971
v -67.3321 48.6959 42.8971
v -59.3321 48.0297 42.8971
v -51.8793 46.5895 42.2573
v -43.3321 46.7014 40.4959
v -38.4897 46.6515 40.7618
v 31.8021 -90.7576 47.3706
v 36.6679 -91.1591 48.0750
v 41.4122 -91.1700 47.9941
v 31.2333 -86.5733 47.7753
v 36.6679 -86.5733 50.0451
v 43.0428 -86.5733 49.1668
v 31.6209 -81.2042 47.5945
v 36.6013 -78.7942 50.8771
v 45.2457 -79.3095 51.1777
v 49.6621 -76.9016 48.1957
v 16.3457 -66.7207 53.8744
v 17.0499 -66.7207 53.8744
v 30.3384 -68.3681 49.2522
v 36.6013 -70.1402 52.0720
v 44.7080 -69.7767 53.2395
v 49.8949 -70.5733 48.8291
v 8.4165 -59.5275 48.0760
v 13.1617 -62.5384 50.9752
v 20.0971 -64.5606 51.0835
v 28.0702 -64.9914 51.5102
v 37.3907 -63.1898 54.6069
v 44.6824 -62.6566 50.7602
v 49.3098 -65.3788 48.1744
v 8.3643 -54.5733 48.0787
v 11.1056 -54.5733 52.0787
v 37.9264 -54.5112 51.5970
v 42.0254 -57.1364 49.3969
v 8.5145 -50.4381 47.2937
v 13.0322 -49.6870 50.3350
v 20.6679 -49.0164 50.8971
v 28.6679 -49.8184 50.8971
v 33.3375 -50.3689 50.8971
v -72.3680 12.7859 47.3984
v -67.3321 11.6988 48.5718
v -59.3321 11.7119 48.8691
v -54.9180 12.8035 47.7948
v -72.3680 14.0242 47.3984
v -66.7267 16.9852 48.6057
v -58.7520 18.0392 52.0435
v -53.7711 18.0392 50.6357
v -65.0450 25.4300 50.4658
v -61.0319 22.7656 52.8450
v -51.9003 25.4267 50.8971
v -87.4237 37.2898 50.8971
v -83.3321 34.5630 50.8971
v -75.3321 33.6676 50.8971
v -69.2299 32.3944 50.8971
v -56.2489 35.0114 53.6764
v -53.3288 32.7775 50.9647
v -88.9128 41.4267 50.8971
v -57.4839 41.4267 52.4338
v -54.3030 41.4267 48.4338
v -88.8212 46.9853 50.8971
v -83.3321 49.4160 50.8971
v -75.3321 49.4999 50.8971
v -67.3321 48.2034 50.8971
v -59.7035 46.5390 50.4588
v -54.9107 45.7684 47.5000
v 39.0963 -76.3841 55.5850
v 42.0681 -76.3841 55.5850
v 16.3457 -66.7207 56.3038
v 17.0499 -66.7207 56.3038
v 39.0963 -71.9122 55.5850
v 42.0681 -71.9122 55.5850
v 7.8956 -59.4335 61.2158
v 13.1617 -62.7022 58.7598
v 20.0457 -62.7407 58.8044
v 28.6679 -61.0467 56.6814
v 35.2059 -60.9341 56.2015
v 7.8956 -57.9019 61.2158
v 12.9597 -55.2620 58.2781
v 20.8051 -54.8785 60.9894
v 28.8459 -54.5103 59.6075
v 34.6011 -54.5733 55.9791
v 15.9417 -50.2276 55.3405
v 21.0085 -49.5775 58.3631
v 28.8459 -49.7721 58.1800
v 32.7075 -50.5520 55.0354
v -55.6986 21.1142 54.9992
v -55.1674 21.1142 54.9992
v -64.1045 28.0990 55.5179
v -58.7520 25.4300 55.3541
v -55.1512 25.4267 55.0027
v -88.2083 37.0822 58.8971
v -83.0535 36.4371 59.4407
v -75.3321 36.1080 57.1300
v -66.9955 33.8857 56.2389
v -59.0822 32.7775 55.8194
v -55.2557 29.6781 54.9358
v -88.3408 41.0771 58.5561
v -83.0535 41.0771 60.9566
v -75.0258 42.0143 60.9402
v -67.9109 42.0143 59.5507
v -61.4839 41.4267 56.1608
v -87.8450 46.0269 55.6622
v -83.3321 46.7482 56.7919
v -75.0258 48.1418 59.1538
v -67.9109 47.7326 58.5814
v -62.6177 45.9066 55.7044
v 7.5578 -60.7036 66.8971
v 13.2557 -61.5162 67.4049
v 17.7081 -60.6376 65.0768
v 7.5578 -56.1308 66.8971
v 13.2557 -56.2485 67.4049
v 20.8051 -54.8785 64.3220
v 26.2979 -51.8016 63.5671
v 23.9022 -49.8237 63.5671
v 26.2979 -49.8237 63.5671
v -88.5926 36.9367 66.8971
v -85.7337 36.9367 66.8971
v -95.7079 44.5071 70.1826
v -90.8391 41.3422 67.7512
v -83.5999 41.6194 67.5986
v -75.6194 45.0671 66.4792
v -70.9633 45.0727 63.0808
v -95.7079 45.9678 70.1826
v -91.3321 45.8953 70.1782
v -83.3321 45.6573 69.9494
v -75.6194 46.5683 66.4792
v -70.9633 47.4861 63.0808
v 7.9602 -60.5536 71.6577
v 10.9809 -60.5536 71.6577
v 7.9602 -55.9880 71.6577
v 10.9809 -55.9880 71.6577
v -87.9047 37.1401 71.1015
v -86.9986 37.1401 71.1015
v -95.7079 44.5071 71.3185
v -90.8756 41.6749 71.3357
v -83.9320 42.0075 71.2078
v -79.0838 45.0614 71.1055
v -95.7079 45.9678 71.3185
v -91.3321 45.8953 71.2920
v -83.3321 45.6573 71.1322
v -79.0838 45.6505 71.1055
f 4 2 1
f 4 5 2
f 5 3 2
f 5 6 3
f 7 6 5
f 7 8 6
f 15 1 2
f 15 14 1
f 15 9 14
f 15 10 9
f 3 15 2
f 3 16 15
f 15 11 10
f 15 16 11
f 17 11 16
f 17 12 11
f 19 1 14
f 19 4 1
f 19 13 18
f 19 14 13
f 20 5 4
f 20 4 19
f 21 16 3
f 21 3 6
f 21 17 16
f 21 22 17
f 24 18 23
f 24 19 18
f 20 7 5
f 20 25 7
f 24 20 19
f 24 25 20
f 21 6 8
f 21 8 26
f 8 7 25
f 8 25 26
f 27 21 26
f 27 22 21
f 28 24 23
f 28 29 24
f 29 25 24
f 29 30 25
f 31 25 30
f 31 26 25
f 32 30 29
f 32 33 30
f 38 9 10
f 38 37 9
f 11 38 10
f 11 39 38
f 39 34 38
f 39 35 34
f 12 39 11
f 12 40 39
f 43 9 37
f 43 14 9
f 43 13 14
f 43 42 13
f 43 36 42
f 43 37 36
f 44 40 12
f 44 12 17
f 44 41 40
f 44 45 41
f 46 13 42
f 46 18 13
f 44 17 22
f 44 22 48
f 49 44 48
f 49 45 44
f 46 23 18
f 46 50 23
f 52 48 22
f 52 22 27
f 27 26 51
f 27 51 52
f 52 51 47
f 52 47 48
f 50 28 23
f 50 53 28
f 54 29 28
f 54 28 53
f 51 26 31
f 51 31 56
f 31 30 55
f 31 55 56
f 54 32 29
f 54 58 32
f 57 54 53
f 57 58 54
f 55 30 33
f 55 33 59
f 59 33 32
f 59 32 58
f 60 55 59
f 60 56 55
f 35 61 34
f 35 62 61
f 66 36 37
f 66 65 36
f 67 34 61
f 67 38 34
f 67 37 38
f 67 66 37
f 68 62 35
f 68 35 39
f 40 68 39
f 40 69 68
f 68 63 62
f 68 69 63
f 41 69 40
f 41 70 69
f 72 36 65
f 72 42 36
f 72 64 71
f 72 65 64
f 73 70 41
f 73 41 45
f 72 46 42
f 72 75 46
f 74 72 71
f 74 75 72
f 77 48 47
f 77 47 76
f 73 45 49
f 73 49 78
f 49 48 77
f 49 77 78
f 80 46 75
f 80 50 46
f 79 75 74
f 79 80 75
f 81 76 47
f 81 47 51
f 80 53 50
f 80 83 53
f 82 80 79
f 82 83 80
f 86 81 51
f 86 51 56
f 87 53 83
f 87 57 53
f 88 58 57
f 88 57 87
f 87 83 84
f 87 84 88
f 89 59 58
f 89 58 88
f 89 88 84
f 89 84 85
f 90 86 56
f 90 56 60
f 60 59 89
f 60 89 90
f 90 89 85
f 90 85 86
f 95 61 62
f 95 94 61
f 63 95 62
f 63 96 95
f 98 64 65
f 98 97 64
f 98 91 97
f 98 92 91
f 99 65 66
f 99 98 65
f 98 93 92
f 98 99 93
f 100 61 94
f 100 67 61
f 100 66 67
f 100 99 66
f 100 93 99
f 100 94 93
f 96 63 69
f 96 69 102
f 101 95 96
f 101 96 102
f 70 102 69
f 70 103 102
f 105 64 97
f 105 71 64
f 103 70 73
f 103 73 108
f 110 71 105
f 110 74 71
f 110 104 109
f 110 105 104
f 111 106 107
f 111 107 112
f 113 77 76
f 113 76 112
f 108 73 78
f 108 78 114
f 78 77 113
f 78 113 114
f 110 79 74
f 110 116 79
f 115 110 109
f 115 116 110
f 117 112 76
f 117 76 81
f 117 113 112
f 117 118 113
f 119 113 118
f 119 114 113
f 120 79 116
f 120 82 79
f 121 83 82
f 121 82 120
f 84 83 121
f 84 121 122
f 123 85 84
f 123 84 122
f 124 117 81
f 124 81 86
f 86 85 123
f 86 123 124
f 124 118 117
f 124 125 118
f 126 118 125
f 126 119 118
f 127 122 121
f 127 128 122
f 92 129 91
f 92 130 129
f 131 92 93
f 131 130 92
f 132 93 94
f 132 131 93
f 133 94 95
f 133 132 94
f 134 91 129
f 134 97 91
f 134 129 130
f 134 130 135
f 133 95 101
f 133 101 137
f 138 101 102
f 138 137 101
f 139 102 103
f 139 138 102
f 134 105 97
f 134 141 105
f 141 104 105
f 141 140 104
f 141 134 135
f 141 135 142
f 142 135 136
f 142 136 143
f 107 106 144
f 107 144 145
f 139 103 108
f 139 108 147
f 146 138 139
f 146 139 147
f 148 104 140
f 148 109 104
f 149 141 142
f 149 142 150
f 144 106 111
f 144 111 151
f 152 107 145
f 152 112 107
f 152 111 112
f 152 151 111
f 151 145 144
f 151 152 145
f 147 108 114
f 147 114 154
f 154 153 146
f 154 146 147
f 148 115 109
f 148 155 115
f 156 116 115
f 156 115 155
f 154 114 119
f 154 119 158
f 158 157 153
f 158 153 154
f 156 120 116
f 156 160 120
f 159 156 155
f 159 160 156
f 161 121 120
f 161 120 160
f 123 122 162
f 123 162 163
f 124 123 163
f 124 163 164
f 125 124 164
f 125 164 165
f 166 158 119
f 166 119 126
f 166 126 125
f 166 125 165
f 166 165 157
f 166 157 158
f 161 127 121
f 161 167 127
f 168 162 122
f 168 122 128
f 128 127 167
f 128 167 168
f 168 167 161
f 168 161 162
f 131 169 130
f 131 170 169
f 132 170 131
f 132 171 170
f 172 132 133
f 172 171 132
f 173 130 169
f 173 135 130
f 136 135 173
f 136 173 174
f 174 173 169
f 174 169 170
f 176 172 133
f 176 133 137
f 177 137 138
f 177 176 137
f 179 140 141
f 179 178 140
f 181 136 174
f 181 143 136
f 143 180 142
f 143 181 180
f 182 181 174
f 182 174 175
f 177 138 146
f 177 146 183
f 178 148 140
f 178 184 148
f 179 141 149
f 179 149 185
f 184 178 179
f 184 179 185
f 180 150 142
f 180 186 150
f 186 149 150
f 186 185 149
f 187 186 180
f 187 180 181
f 183 146 153
f 183 153 189
f 184 155 148
f 184 190 155
f 191 190 184
f 191 184 185
f 193 189 153
f 193 153 157
f 193 192 188
f 193 188 189
f 190 159 155
f 190 194 159
f 195 160 159
f 195 159 194
f 196 161 160
f 196 160 195
f 197 162 161
f 197 161 196
f 163 162 197
f 163 197 198
f 199 164 163
f 199 163 198
f 200 193 157
f 200 157 165
f 200 165 164
f 200 164 199
f 200 199 192
f 200 192 193
f 201 196 195
f 201 202 196
f 171 203 170
f 171 204 203
f 205 171 172
f 205 204 171
f 206 170 203
f 206 174 170
f 175 174 206
f 175 206 207
f 206 203 204
f 206 204 207
f 205 172 176
f 205 176 208
f 207 204 205
f 207 205 208
f 209 176 177
f 209 208 176
f 207 182 175
f 207 211 182
f 182 210 181
f 182 211 210
f 211 207 208
f 211 208 212
f 209 177 183
f 209 183 213
f 212 208 209
f 212 209 213
f 186 214 185
f 186 215 214
f 210 187 181
f 210 216 187
f 187 215 186
f 187 216 215
f 217 216 210
f 217 210 211
f 218 217 211
f 218 211 212
f 219 213 183
f 219 183 189
f 219 189 188
f 219 188 218
f 219 218 212
f 219 212 213
f 214 191 185
f 214 221 191
f 191 220 190
f 191 221 220
f 223 222 215
f 223 215 216
f 225 218 188
f 225 188 192
f 225 224 217
f 225 217 218
f 220 194 190
f 220 226 194
f 195 194 226
f 195 226 227
f 226 220 221
f 226 221 227
f 228 227 221
f 228 221 222
f 229 197 196
f 229 196 228
f 230 198 197
f 230 197 229
f 231 225 192
f 231 192 199
f 231 199 198
f 231 198 230
f 231 230 224
f 231 224 225
f 232 195 227
f 232 201 195
f 233 228 196
f 233 196 202
f 202 201 232
f 202 232 233
f 233 232 227
f 233 227 228
f 236 214 215
f 236 235 214
f 217 237 216
f 217 238 237
f 235 221 214
f 235 240 221
f 239 235 234
f 239 240 235
f 236 215 222
f 236 222 241
f 222 221 240
f 222 240 241
f 237 223 216
f 237 242 223
f 242 222 223
f 242 241 222
f 238 217 224
f 238 224 243
f 243 242 237
f 243 237 238
f 245 222 241
f 245 228 222
f 244 241 240
f 244 245 241
f 246 229 228
f 246 228 245
f 246 245 241
f 246 241 242
f 247 243 224
f 247 224 230
f 247 230 229
f 247 229 246
f 247 246 242
f 247 242 243
f 249 234 235
f 249 248 234
f 250 235 236
f 250 249 235
f 248 239 234
f 248 251 239
f 252 240 239
f 252 239 251
f 252 251 248
f 252 248 249
f 253 250 236
f 253 236 241
f 253 252 249
f 253 249 250
f 252 244 240
f 252 255 244
f 255 251 254
f 255 252 251
f 256 253 241
f 256 241 245
f 256 245 244
f 256 244 255
f 256 255 252
f 256 252 253
f 258 251 252
f 258 257 251
f 257 254 251
f 257 259 254
f 258 252 255
f 258 255 260
f 260 255 254
f 260 254 259
f 259 257 258
f 259 258 260
f 267 261 266
f 267 262 261
f 268 262 267
f 268 263 262
f 268 264 263
f 268 269 264
f 271 265 270
f 271 266 265
f 272 266 271
f 272 267 266
f 273 267 272
f 273 268 267
f 273 269 268
f 273 274 269
f 277 271 276
f 277 272 271
f 278 272 277
f 278 273 272
f 279 273 278
f 279 274 273
f 281 275 280
f 281 276 275
f 282 276 281
f 282 277 276
f 283 277 282
f 283 278 277
f 290 284 289
f 290 285 284
f 292 286 291
f 292 287 286
f 294 288 293
f 294 289 288
f 295 289 294
f 295 290 289
f 296 290 295
f 296 291 290
f 296 292 291
f 296 297 292
f 299 293 298
f 299 294 293
f 299 295 294
f 299 300 295
f 301 295 300
f 301 296 295
f 302 296 301
f 302 297 296
f 303 299 298
f 303 304 299
f 305 299 304
f 305 300 299
f 311 261 262
f 311 310 261
f 263 311 262
f 263 312 311
f 312 306 311
f 312 307 306
f 264 312 263
f 264 313 312
f 312 308 307
f 312 313 308
f 315 261 310
f 315 266 261
f 315 265 266
f 315 314 265
f 315 309 314
f 315 310 309
f 316 313 264
f 316 264 269
f 317 265 314
f 317 270 265
f 318 271 270
f 318 270 317
f 316 269 274
f 316 274 320
f 318 276 271
f 318 322 276
f 322 275 276
f 322 321 275
f 322 317 321
f 322 318 317
f 324 320 274
f 324 274 279
f 279 278 323
f 279 323 324
f 324 323 319
f 324 319 320
f 325 275 321
f 325 280 275
f 281 280 325
f 281 325 326
f 282 281 326
f 282 326 327
f 328 323 278
f 328 278 283
f 328 283 282
f 328 282 327
f 331 284 285
f 331 330 284
f 333 286 287
f 333 332 286
f 335 284 330
f 335 289 284
f 335 288 289
f 335 334 288
f 335 329 334
f 335 330 329
f 336 331 285
f 336 285 290
f 337 286 332
f 337 291 286
f 291 336 290
f 291 337 336
f 337 331 336
f 337 332 331
f 338 333 287
f 338 287 292
f 340 288 334
f 340 293 288
f 341 338 292
f 341 292 297
f 343 293 340
f 343 298 293
f 343 339 342
f 343 340 339
f 301 300 344
f 301 344 345
f 341 297 302
f 341 302 346
f 346 302 301
f 346 301 345
f 343 303 298
f 343 348 303
f 347 343 342
f 347 348 343
f 349 304 303
f 349 303 348
f 344 300 305
f 344 305 350
f 350 305 304
f 350 304 349
f 351 349 348
f 351 352 349
f 355 306 307
f 355 354 306
f 308 355 307
f 308 356 355
f 358 309 310
f 358 357 309
f 359 306 354
f 359 311 306
f 359 310 311
f 359 358 310
f 359 353 358
f 359 354 353
f 360 356 308
f 360 308 313
f 362 309 357
f 362 314 309
f 360 313 316
f 360 316 364
f 364 361 360
f 364 365 361
f 362 317 314
f 362 367 317
f 369 364 316
f 369 316 320
f 320 319 368
f 320 368 369
f 369 368 363
f 369 363 364
f 370 364 369
f 370 365 364
f 367 321 317
f 367 372 321
f 372 366 371
f 372 367 366
f 373 368 319
f 373 319 323
f 374 321 372
f 374 325 321
f 375 326 325
f 375 325 374
f 327 326 375
f 327 375 376
f 373 323 328
f 373 328 377
f 377 328 327
f 377 327 376
f 382 329 330
f 382 381 329
f 383 330 331
f 383 382 330
f 383 378 382
f 383 379 378
f 332 383 331
f 332 384 383
f 383 380 379
f 383 384 380
f 333 384 332
f 333 385 384
f 388 329 381
f 388 334 329
f 391 385 333
f 391 333 338
f 391 386 385
f 391 392 386
f 394 334 388
f 394 340 334
f 394 339 340
f 394 393 339
f 394 387 393
f 394 388 387
f 395 389 390
f 395 390 396
f 391 338 341
f 391 341 397
f 398 391 397
f 398 392 391
f 399 339 393
f 399 342 339
f 401 345 344
f 401 344 400
f 401 400 395
f 401 395 396
f 402 397 341
f 402 341 346
f 402 346 345
f 402 345 401
f 402 401 396
f 402 396 397
f 399 347 342
f 399 403 347
f 404 348 347
f 404 347 403
f 406 400 344
f 406 344 350
f 350 349 405
f 350 405 406
f 407 400 406
f 407 401 400
f 404 351 348
f 404 408 351
f 405 349 352
f 405 352 409
f 352 351 408
f 352 408 409
f 410 405 409
f 410 406 405
f 410 407 406
f 410 411 407
f 414 353 354
f 414 413 353
f 415 354 355
f 415 414 354
f 416 355 356
f 416 415 355
f 419 353 413
f 419 358 353
f 419 357 358
f 419 418 357
f 419 412 418
f 419 413 412
f 420 416 356
f 420 356 360
f 361 420 360
f 361 421 420
f 424 357 418
f 424 362 357
f 424 417 423
f 424 418 417
f 427 364 363
f 427 363 426
f 428 421 361
f 428 361 365
f 429 423 422
f 429 430 423
f 431 362 424
f 431 367 362
f 431 366 367
f 431 430 366
f 431 423 430
f 431 424 423
f 433 426 363
f 433 363 368
f 432 425 426
f 432 426 433
f 427 369 364
f 427 434 369
f 428 365 370
f 428 370 435
f 370 369 434
f 370 434 435
f 436 366 430
f 436 371 366
f 437 372 371
f 437 371 436
f 439 433 368
f 439 368 373
f 440 433 439
f 440 434 433
f 440 435 434
f 440 441 435
f 442 372 437
f 442 374 372
f 443 375 374
f 443 374 442
f 444 376 375
f 444 375 443
f 445 439 373
f 445 373 377
f 445 377 376
f 445 376 444
f 445 444 438
f 445 438 439
f 446 441 440
f 446 447 441
f 451 378 379
f 451 450 378
f 380 451 379
f 380 452 451
f 454 448 453
f 454 449 448
f 455 378 450
f 455 382 378
f 455 381 382
f 455 454 381
f 455 449 454
f 455 450 449
f 456 452 380
f 456 380 384
f 385 456 384
f 385 457 456
f 386 457 385
f 386 458 457
f 461 381 454
f 461 388 381
f 461 387 388
f 461 460 387
f 461 453 460
f 461 454 453
f 390 389 462
f 390 462 463
f 458 386 392
f 458 392 465
f 464 457 458
f 464 458 465
f 467 387 460
f 467 393 387
f 467 459 466
f 467 460 459
f 462 389 395
f 462 395 468
f 463 396 390
f 463 469 396
f 468 463 462
f 468 469 463
f 470 397 396
f 470 396 469
f 465 392 398
f 465 398 471
f 398 397 470
f 398 470 471
f 467 399 393
f 467 473 399
f 472 467 466
f 472 473 467
f 474 468 395
f 474 395 400
f 401 474 400
f 401 475 474
f 474 469 468
f 474 475 469
f 478 399 473
f 478 403 399
f 479 404 403
f 479 403 478
f 482 475 401
f 482 401 407
f 483 475 482
f 483 476 475
f 483 477 476
f 483 484 477
f 485 404 479
f 485 408 404
f 486 409 408
f 486 408 485
f 487 410 409
f 487 409 486
f 487 486 480
f 487 480 481
f 488 482 407
f 488 407 411
f 411 410 487
f 411 487 488
f 488 487 481
f 488 481 482
f 495 412 413
f 495 494 412
f 495 489 494
f 495 490 489
f 414 495 413
f 414 496 495
f 495 491 490
f 495 496 491
f 497 414 415
f 497 496 414
f 498 415 416
f 498 497 415
f 499 493 492
f 499 500 493
f 501 412 494
f 501 418 412
f 501 417 418
f 501 500 417
f 501 493 500
f 501 494 493
f 498 416 420
f 498 420 502
f 421 502 420
f 421 503 502
f 505 417 500
f 505 423 417
f 505 422 423
f 505 504 422
f 505 499 504
f 505 500 499
f 507 426 425
f 507 425 506
f 508 427 426
f 508 426 507
f 503 421 428
f 503 428 509
f 510 422 504
f 510 429 422
f 511 430 429
f 511 429 510
f 506 425 432
f 506 432 512
f 513 432 433
f 513 512 432
f 513 506 512
f 513 507 506
f 514 427 508
f 514 434 427
f 514 433 434
f 514 513 433
f 514 507 513
f 514 508 507
f 509 428 435
f 509 435 515
f 511 436 430
f 511 517 436
f 516 511 510
f 516 517 511
f 518 437 436
f 518 436 517
f 439 438 519
f 439 519 520
f 440 439 520
f 440 520 521
f 515 435 441
f 515 441 522
f 518 442 437
f 518 523 442
f 524 443 442
f 524 442 523
f 525 519 438
f 525 438 444
f 444 443 524
f 444 524 525
f 526 519 525
f 526 520 519
f 521 446 440
f 521 527 446
f 522 441 447
f 522 447 528
f 528 447 446
f 528 446 527
f 531 448 449
f 531 530 448
f 532 449 450
f 532 531 449
f 533 450 451
f 533 532 450
f 534 451 452
f 534 533 451
f 536 448 530
f 536 453 448
f 535 530 529
f 535 536 530
f 537 534 452
f 537 452 456
f 538 456 457
f 538 537 456
f 541 453 536
f 541 460 453
f 541 459 460
f 541 540 459
f 541 535 540
f 541 536 535
f 538 457 464
f 538 464 542
f 543 464 465
f 543 542 464
f 545 459 540
f 545 466 459
f 545 539 544
f 545 540 539
f 470 469 548
f 470 548 549
f 543 465 471
f 543 471 550
f 550 471 470
f 550 470 549
f 550 549 542
f 550 542 543
f 545 472 466
f 545 552 472
f 551 545 544
f 551 552 545
f 553 473 472
f 553 472 552
f 554 546 547
f 554 547 555
f 556 548 469
f 556 469 475
f 476 556 475
f 476 557 556
f 557 548 556
f 557 549 548
f 558 476 477
f 558 557 476
f 553 478 473
f 553 560 478
f 559 553 552
f 559 560 553
f 561 479 478
f 561 478 560
f 563 481 480
f 563 480 562
f 482 481 563
f 482 563 564
f 483 482 564
f 483 564 565
f 566 558 477
f 566 477 484
f 484 483 565
f 484 565 566
f 567 479 561
f 567 485 479
f 568 562 480
f 568 480 486
f 568 486 485
f 568 485 567
f 568 567 561
f 568 561 562
f 490 569 489
f 490 570 569
f 491 570 490
f 491 571 570
f 574 492 493
f 574 573 492
f 575 489 569
f 575 494 489
f 575 493 494
f 575 574 493
f 576 575 569
f 576 569 570
f 577 571 491
f 577 491 496
f 497 577 496
f 497 578 577
f 577 572 571
f 577 578 572
f 579 497 498
f 579 578 497
f 573 499 492
f 573 580 499
f 581 580 573
f 581 573 574
f 582 581 574
f 582 574 575
f 582 575 576
f 582 576 583
f 579 498 502
f 579 502 586
f 585 578 579
f 585 579 586
f 587 502 503
f 587 586 502
f 588 499 580
f 588 504 499
f 589 588 580
f 589 580 581
f 589 581 582
f 589 582 590
f 591 590 582
f 591 582 583
f 592 591 583
f 592 583 584
f 587 503 509
f 587 509 594
f 593 586 587
f 593 587 594
f 588 510 504
f 588 595 510
f 596 595 588
f 596 588 589
f 597 596 589
f 597 589 590
f 598 597 590
f 598 590 591
f 594 509 515
f 594 515 601
f 601 600 593
f 601 593 594
f 595 516 510
f 595 602 516
f 603 517 516
f 603 516 602
f 518 517 603
f 518 603 604
f 607 521 520
f 607 520 606
f 607 606 599
f 607 599 600
f 608 601 515
f 608 515 522
f 607 600 601
f 607 601 608
f 610 602 609
f 610 603 602
f 604 523 518
f 604 611 523
f 610 604 603
f 610 611 604
f 612 524 523
f 612 523 611
f 525 524 612
f 525 612 613
f 614 606 520
f 614 520 526
f 526 525 613
f 526 613 614
f 614 613 605
f 614 605 606
f 615 521 607
f 615 527 521
f 616 608 522
f 616 522 528
f 528 527 615
f 528 615 616
f 615 607 608
f 615 608 616
f 618 529 530
f 618 617 529
f 531 618 530
f 531 619 618
f 532 619 531
f 532 620 619
f 621 532 533
f 621 620 532
f 622 533 534
f 622 621 533
f 623 529 617
f 623 535 529
f 624 623 617
f 624 617 618
f 625 624 618
f 625 618 619
f 622 534 537
f 622 537 627
f 628 537 538
f 628 627 537
f 630 535 623
f 630 540 535
f 630 539 540
f 630 629 539
f 631 630 623
f 631 623 624
f 632 631 624
f 632 624 625
f 632 625 626
f 632 626 633
f 635 628 538
f 635 538 542
f 634 627 628
f 634 628 635
f 629 544 539
f 629 636 544
f 637 636 629
f 637 629 630
f 638 637 630
f 638 630 631
f 638 631 632
f 638 632 639
f 640 547 546
f 640 546 639
f 639 632 633
f 639 633 640
f 642 635 542
f 642 542 549
f 641 634 635
f 641 635 642
f 636 551 544
f 636 643 551
f 644 552 551
f 644 551 643
f 643 636 637
f 643 637 644
f 645 639 546
f 645 546 554
f 646 547 640
f 646 555 547
f 555 645 554
f 555 646 645
f 645 640 639
f 645 646 640
f 642 549 557
f 642 557 648
f 647 641 642
f 647 642 648
f 558 648 557
f 558 649 648
f 644 559 552
f 644 650 559
f 651 560 559
f 651 559 650
f 652 561 560
f 652 560 651
f 562 561 652
f 562 652 653
f 563 562 653
f 563 653 654
f 655 564 563
f 655 563 654
f 656 565 564
f 656 564 655
f 656 655 647
f 656 647 648
f 657 649 558
f 657 558 566
f 566 565 656
f 566 656 657
f 656 648 649
f 656 649 657
f 571 658 570
f 571 659 658
f 572 659 571
f 572 660 659
f 658 576 570
f 658 661 576
f 662 661 658
f 662 658 659
f 663 660 572
f 663 572 578
f 662 659 660
f 662 660 663
f 664 576 661
f 664 583 576
f 584 583 664
f 584 664 665
f 664 661 662
f 664 662 665
f 663 578 585
f 663 585 666
f 665 662 663
f 665 663 666
f 667 585 586
f 667 666 585
f 665 592 584
f 665 671 592
f 592 670 591
f 592 671 670
f 667 586 593
f 667 593 673
f 672 666 667
f 672 667 673
f 596 674 595
f 596 675 674
f 676 596 597
f 676 675 596
f 676 668 675
f 676 669 668
f 670 598 591
f 670 677 598
f 598 676 597
f 598 677 676
f 677 670 671
f 677 671 678
f 678 671 672
f 678 672 679
f 680 673 593
f 680 593 600
f 680 600 599
f 680 599 679
f 680 679 672
f 680 672 673
f 674 602 595
f 674 681 602
f 682 681 674
f 682 674 675
f 684 679 599
f 684 599 606
f 684 606 605
f 684 605 683
f 684 683 678
f 684 678 679
f 681 609 602
f 681 685 609
f 610 609 685
f 610 685 686
f 685 681 682
f 685 682 686
f 687 611 610
f 687 610 686
f 612 611 687
f 612 687 688
f 689 683 605
f 689 605 613
f 689 613 612
f 689 612 688
f 620 690 619
f 620 691 690
f 621 691 620
f 621 692 691
f 693 621 622
f 693 692 621
f 694 619 690
f 694 625 619
f 626 625 694
f 626 694 695
f 694 690 691
f 694 691 695
f 695 691 692
f 695 692 696
f 693 622 627
f 693 627 697
f 696 692 693
f 696 693 697
f 698 626 695
f 698 633 626
f 699 698 695
f 699 695 696
f 697 627 634
f 697 634 700
f 638 701 637
f 638 702 701
f 703 638 639
f 703 702 638
f 704 633 698
f 704 640 633
f 640 703 639
f 640 704 703
f 700 634 641
f 700 641 706
f 701 644 637
f 701 707 644
f 709 706 641
f 709 641 647
f 709 708 705
f 709 705 706
f 707 650 644
f 707 710 650
f 711 651 650
f 711 650 710
f 712 652 651
f 712 651 711
f 653 652 712
f 653 712 713
f 714 654 653
f 714 653 713
f 715 709 647
f 715 647 655
f 715 655 654
f 715 654 714
f 715 714 708
f 715 708 709
f 717 665 666
f 717 716 665
f 669 718 668
f 669 719 718
f 716 671 665
f 716 720 671
f 717 666 672
f 717 672 721
f 672 671 720
f 672 720 721
f 720 716 717
f 720 717 721
f 723 668 718
f 723 675 668
f 719 669 676
f 719 676 724
f 724 723 718
f 724 718 719
f 725 676 677
f 725 724 676
f 678 725 677
f 678 726 725
f 728 675 723
f 728 682 675
f 728 722 727
f 728 723 722
f 729 724 725
f 729 725 730
f 726 678 683
f 726 683 731
f 731 730 725
f 731 725 726
f 732 682 728
f 732 686 682
f 687 686 732
f 687 732 733
f 732 728 729
f 732 729 733
f 688 687 733
f 688 733 734
f 731 683 689
f 731 689 735
f 735 689 688
f 735 688 734
f 735 734 730
f 735 730 731
f 737 696 697
f 737 736 696
f 736 699 696
f 736 739 699
f 699 738 698
f 699 739 738
f 737 697 700
f 737 700 740
f 740 739 736
f 740 736 737
f 742 701 702
f 742 741 701
f 743 702 703
f 743 742 702
f 738 704 698
f 738 744 704
f 704 743 703
f 704 744 743
f 745 744 738
f 745 738 739
f 746 740 700
f 746 700 706
f 746 706 705
f 746 705 745
f 746 745 739
f 746 739 740
f 747 701 741
f 747 707 701
f 749 748 742
f 749 742 743
f 750 749 743
f 750 743 744
f 751 745 705
f 751 705 708
f 751 750 744
f 751 744 745
f 752 707 747
f 752 710 707
f 711 710 752
f 711 752 753
f 753 752 747
f 753 747 748
f 712 711 753
f 712 753 754
f 753 748 749
f 753 749 754
f 755 713 712
f 755 712 754
f 756 751 708
f 756 708 714
f 756 714 713
f 756 713 755
f 756 755 750
f 756 750 751
f 758 722 723
f 758 757 722
f 759 723 724
f 759 758 723
f 757 727 722
f 757 760 727
f 761 728 727
f 761 727 760
f 759 724 729
f 759 729 762
f 762 729 728
f 762 728 761
f 761 758 759
f 761 759 762
f 763 729 730
f 763 762 729
f 764 729 762
f 764 733 729
f 763 730 734
f 763 734 765
f 734 733 764
f 734 764 765
f 764 762 763
f 764 763 765
f 767 741 742
f 767 766 741
f 766 747 741
f 766 769 747
f 767 742 748
f 767 748 770
f 770 748 747
f 770 747 769
f 772 749 750
f 772 771 749
f 774 768 773
f 774 769 768
f 775 769 774
f 775 770 769
f 776 749 771
f 776 754 749
f 775 771 770
f 775 776 771
f 772 750 755
f 772 755 777
f 777 755 754
f 777 754 776
f 776 771 772
f 776 772 777
f 779 757 758
f 779 778 757
f 778 760 757
f 778 780 760
f 779 758 761
f 779 761 781
f 781 761 760
f 781 760 780
f 780 778 779
f 780 779 781
f 783 766 767
f 783 782 766
f 782 769 766
f 782 785 769
f 785 768 769
f 785 784 768
f 783 767 770
f 783 770 786
f 785 782 783
f 785 783 786
f 787 770 771
f 787 786 770
f 784 773 768
f 784 788 773
f 789 774 773
f 789 773 788
f 789 788 784
f 789 784 785
f 790 775 774
f 790 774 789
f 789 785 786
f 789 786 790
f 791 787 771
f 791 771 776
f 791 776 775
f 791 775 790
f 790 786 787
f 790 787 791
