# parsimony mesh: cplx_CPLX0-1821 (source /Users/eranagmon/code/v2e-cplx/workspace/studies/ecoli-3d/viz/3d/structures/cplx_CPLX0-1821.pdb)
# atoms: 2930  voxel: 4 Å  verts: 1220  tris: 2472
v 36.8590 -41.3360 -23.0430
v 38.7037 -41.3360 -23.0430
v 32.6394 -37.5209 -22.9821
v 35.6034 -38.7737 -23.0126
v 38.7037 -40.0265 -23.0430
v 32.6394 -35.9412 -22.9821
v 35.7433 -34.5511 -22.8575
v 37.5367 -33.1611 -22.7329
v 36.4293 -30.9228 -22.9033
v 37.7932 -30.9228 -22.9033
v 36.3754 -28.2449 -22.9420
v 39.3123 -26.7393 -22.9000
v 41.9028 -25.2337 -22.8580
v 40.8286 -23.9811 -22.8580
v 41.9028 -23.9811 -22.8580
v -27.3755 22.5309 -23.3338
v -25.6527 22.5309 -23.3338
v -34.6391 26.7947 -22.7698
v -32.5872 26.6198 -22.8354
v -28.6602 25.2808 -23.1968
v -25.6550 25.0772 -23.2380
v -34.6391 27.2386 -22.7698
v -32.2030 28.7740 -22.8146
v -28.5872 29.0772 -23.0303
v -25.9050 29.0772 -22.9422
v -30.6275 33.0772 -22.7197
v -28.5872 33.0772 -22.9678
v -25.9919 33.0772 -22.9539
v -30.6146 35.0998 -22.7156
v -28.5872 35.3760 -22.7860
v -24.6464 37.1879 -22.7855
v -22.2803 38.9229 -22.7680
v -22.8982 39.7411 -22.7680
v -22.2803 39.7411 -22.7680
v 33.0736 -41.0097 -18.9570
v 35.4805 -41.4200 -20.4565
v 39.7873 -41.6328 -21.0875
v 42.0740 -41.3643 -20.0086
v 32.4439 -38.8816 -20.4565
v 35.6034 -38.7737 -21.9876
v 39.7873 -38.7851 -22.1318
v 43.4095 -39.0236 -20.3873
v 47.4128 -37.7237 -19.4125
v 49.5950 -37.1561 -18.9097
v 32.1224 -34.7338 -20.9833
v 35.7433 -34.5511 -22.4266
v 39.0872 -34.6658 -21.7757
v 43.4128 -34.9228 -20.7395
v 47.4128 -34.9228 -20.3691
v 51.1221 -34.7358 -19.4812
v 53.7550 -33.2777 -19.0213
v 29.3457 -29.1829 -18.8604
v 31.2877 -30.6789 -20.1949
v 34.4293 -30.9228 -22.4513
v 39.7932 -30.9228 -21.6313
v 43.4128 -30.9228 -20.1937
v 47.4128 -30.9228 -20.4634
v 51.4128 -30.9228 -20.6097
v 54.1932 -30.9228 -19.4145
v 29.3457 -28.6894 -18.8604
v 31.4483 -27.1828 -19.7323
v 35.1903 -26.9161 -21.6528
v 39.3123 -26.7393 -21.9792
v 43.3068 -26.7094 -21.2078
v 47.4128 -26.9228 -20.1693
v 51.0336 -26.9855 -19.6670
v 54.1111 -28.3606 -19.3351
v 32.8054 -24.5996 -19.0640
v 35.4128 -23.8571 -19.4911
v 39.5492 -22.5698 -20.5716
v 43.1016 -22.6403 -20.5929
v 47.4128 -24.1852 -19.3683
v 49.4474 -24.8960 -18.8578
v 40.9365 -20.8466 -19.0820
v 41.6338 -20.8466 -19.0820
v -28.1046 22.4867 -20.7057
v -24.4265 22.5239 -20.6041
v -22.3684 22.9423 -19.2030
v -34.6391 26.7947 -21.9369
v -32.8737 25.9672 -20.6444
v -30.1046 23.9016 -20.7057
v -23.6550 25.0772 -21.7257
v -20.8559 25.1712 -19.8741
v -16.5872 26.6899 -19.1502
v -14.5822 27.0708 -18.7110
v -34.6391 27.2386 -21.9369
v -33.4566 28.7740 -20.6444
v -23.9050 29.0772 -21.8160
v -20.5872 29.0772 -20.8408
v -16.5872 29.0772 -20.1980
v -13.6054 29.0772 -19.1732
v -34.8408 34.4282 -19.2183
v -32.7866 33.0878 -20.6133
v -23.9919 33.0772 -21.4827
v -20.5872 33.0772 -20.1916
v -16.5872 33.0772 -20.3763
v -12.2048 32.6882 -19.8481
v -9.9981 33.7623 -19.3274
v -34.8408 36.2458 -19.2183
v -32.5160 37.0062 -20.5167
v -28.5872 37.3760 -21.6196
v -24.6464 37.1879 -21.9694
v -20.8031 37.3846 -21.0712
v -16.5872 37.0772 -20.1154
v -12.9012 37.0624 -19.6920
v -9.9981 35.7192 -19.3274
v -31.7508 39.5079 -19.1485
v -28.4947 40.9356 -19.8614
v -24.3738 41.0755 -21.7540
v -20.5840 41.3036 -20.8500
v -16.5872 39.9917 -19.4926
v -14.4439 39.1744 -19.0636
v -27.0998 43.4088 -19.4134
v -24.5872 43.5782 -19.9343
v -21.5545 43.4135 -19.6362
v 32.8228 -41.1476 -16.7057
v 35.4128 -41.6224 -16.7057
v 39.4128 -41.8283 -16.7057
v 43.4095 -41.4428 -16.4281
v 46.3165 -41.2154 -14.9096
v 29.2604 -37.1366 -14.9576
v 31.0395 -38.6511 -16.4569
v 44.7406 -40.4240 -17.5763
v 47.5550 -39.9230 -16.4281
v 50.1177 -38.0471 -16.7057
v 28.9688 -34.9228 -15.1821
v 30.3798 -34.9228 -17.1821
v 52.0563 -34.7358 -16.7271
v 53.7550 -33.2777 -18.0746
v 28.9956 -30.6789 -16.5357
v 29.8710 -31.8496 -17.7556
v 52.8788 -32.0614 -15.4080
v 54.1374 -30.8060 -16.7271
v 29.2209 -28.1523 -16.7057
v 30.2001 -26.1523 -16.7057
v 51.7317 -26.2711 -16.7057
v 54.0618 -28.2711 -16.7057
v 32.2001 -24.3731 -16.7057
v 35.3465 -22.2244 -17.0168
v 38.2698 -21.1585 -18.5574
v 44.3004 -21.2995 -18.2780
v 47.6413 -22.1373 -16.8491
v 49.7317 -24.1584 -16.7057
v 36.6356 -20.5002 -15.8908
v 39.5270 -19.9105 -17.0168
v 43.3427 -18.9572 -16.5089
v 46.2261 -18.9228 -15.4104
v 45.0516 -16.8955 -14.7397
v 45.4496 -16.8955 -14.7397
v -30.6672 23.0583 -15.3581
v -28.9281 22.7084 -16.6972
v -24.5872 22.3978 -16.7057
v -20.8559 22.5530 -16.4993
v -17.8566 22.5136 -15.0283
v -34.7515 26.7579 -15.6157
v -32.5326 24.9641 -16.8202
v -30.4888 23.1704 -18.0248
v -19.7017 23.9006 -17.6950
v -16.5489 24.6237 -16.4993
v -14.2727 26.3928 -16.7057
v -35.6199 29.0772 -15.7433
v -34.1543 29.0772 -17.7433
v -12.9473 29.0772 -16.7057
v -35.6982 33.0878 -16.5898
v -34.1992 31.7615 -17.8459
v -11.2618 32.0775 -16.7057
v -10.1402 34.0775 -16.7057
v -35.0022 37.3783 -16.6111
v -34.4174 38.9125 -17.8814
v -12.1128 37.5720 -16.7057
v -10.1402 35.5720 -16.7057
v -34.6400 39.1114 -15.2147
v -32.8854 40.1167 -16.6111
v -29.9523 42.3510 -16.7057
v -18.8878 42.8660 -18.5415
v -16.2539 42.1385 -17.0072
v -14.1128 40.0622 -16.7057
v -27.9523 43.7782 -16.7057
v -24.3254 45.4398 -16.4930
v -20.2478 45.1544 -16.7796
v -17.3650 44.2285 -15.8748
v -22.8175 47.2185 -15.0178
v -21.6079 47.2185 -15.0178
v 32.9653 -41.1356 -14.3325
v 35.4128 -41.3108 -13.6838
v 39.2094 -41.3726 -12.5121
v 43.4128 -42.2725 -12.7057
v 47.5550 -42.1739 -13.0590
v 49.9458 -41.6534 -11.9612
v 17.2862 -37.1232 -10.7944
v 19.4128 -37.2003 -10.9338
v 22.0507 -37.0925 -10.9212
v 28.5884 -37.4265 -12.7057
v 31.5443 -38.9875 -12.8818
v 35.2982 -38.5846 -11.6214
v 37.7866 -38.9228 -11.1303
v 48.9832 -40.8552 -14.6279
v 50.3935 -39.2823 -13.0590
v 17.2862 -36.6702 -10.7944
v 19.3699 -35.1713 -11.2881
v 23.3955 -35.0908 -11.7441
v 26.8895 -35.0908 -12.8150
v 36.5552 -36.7219 -10.9278
v 37.5834 -36.7219 -10.9278
v 51.2017 -34.9228 -12.7057
v 20.3938 -30.9228 -11.4471
v 23.4128 -30.9228 -12.6789
v 26.9416 -30.9228 -13.9375
v 51.9532 -30.8060 -12.9668
v 53.5798 -29.3948 -14.4742
v 20.7922 -28.5673 -11.0278
v 23.4128 -27.8119 -11.5425
v 27.5341 -26.6297 -12.9925
v 29.7366 -25.4623 -14.4857
v 51.6195 -27.1388 -12.9668
v 53.5798 -28.6161 -14.4742
v 28.5108 -24.6936 -11.8190
v 31.2070 -24.0774 -12.9737
v 34.6399 -22.0380 -12.7057
v 49.1271 -21.2637 -13.3808
v 49.8495 -22.7274 -12.3108
v 36.6399 -20.5536 -12.7057
v 39.4128 -19.4325 -12.7057
v 42.7673 -17.8018 -12.7057
v 48.4103 -19.3086 -12.3108
v 49.4134 -20.8991 -10.7141
v 44.7673 -16.4831 -12.7057
v 46.3739 -16.4831 -12.7057
v -30.6672 23.0583 -14.6672
v -28.5872 22.7969 -13.7648
v -24.8623 22.6355 -12.3761
v -20.5872 21.6788 -12.7057
v -16.5489 21.9590 -12.8222
v -14.2742 22.6966 -11.5664
v -46.7359 26.9370 -10.7869
v -46.1538 26.9370 -10.7869
v -35.0456 26.6999 -12.7057
v -32.1250 25.4923 -12.7564
v -28.6647 24.8994 -11.6368
v -26.3790 23.4475 -10.8230
v -15.1899 23.5043 -14.2331
v -14.0056 24.9335 -12.8222
v -46.7359 27.3526 -10.7869
v -44.7826 28.7151 -11.1266
v -40.5872 29.6568 -12.2521
v -37.2816 28.9406 -13.0865
v -30.9161 27.3790 -10.8455
v -30.0498 27.3790 -10.8455
v -13.4417 29.0772 -12.7057
v -44.0601 33.0772 -11.6167
v -40.5872 33.0772 -13.2166
v -37.7858 33.0772 -14.3056
v -12.4009 33.4663 -13.0997
v -10.5804 35.0591 -14.6957
v -43.7270 35.6327 -11.1599
v -40.4313 37.0105 -11.7051
v -36.9158 37.0772 -13.6143
v -12.5635 36.6878 -13.0997
v -10.5804 35.0949 -14.6957
v -38.9940 39.3073 -11.0854
v -36.2189 39.4314 -12.5335
v -32.5872 41.2139 -12.7057
v -30.4539 42.9438 -12.7057
v -14.8583 42.6077 -12.7057
v -14.1372 40.6077 -12.7057
v -28.4539 43.7022 -12.7057
v -24.3254 45.6444 -12.8521
v -20.5496 46.7088 -13.1118
v -16.6757 45.3680 -13.0467
v -22.8175 47.2185 -14.2830
v -20.5496 47.6919 -13.1118
v -17.7066 48.1654 -11.9407
v 12.6257 -45.5939 -7.2833
v 14.2584 -45.5939 -7.2833
v 45.1349 -45.0139 -7.3406
v 47.4128 -45.0202 -7.2717
v 49.4707 -44.9615 -6.8256
v 12.4784 -42.9228 -7.3934
v 14.8176 -42.9228 -7.3934
v 37.0951 -41.5759 -7.7377
v 39.2094 -41.9481 -8.9249
v 43.6461 -43.7935 -8.6866
v 47.4128 -44.2673 -9.2717
v 50.3120 -42.9612 -8.3776
v 12.9540 -40.3904 -7.0451
v 15.7668 -38.9882 -7.9940
v 19.4128 -38.6680 -8.7057
v 23.3955 -37.5502 -8.4248
v 26.9744 -37.1870 -8.5134
v 31.4128 -37.3434 -10.2159
v 35.7265 -38.1098 -9.0769
v 37.7866 -38.9228 -9.9078
v 50.9033 -38.9228 -8.7057
v 16.7618 -35.9324 -8.7057
v 18.0286 -33.9324 -8.7057
v 24.7173 -36.5362 -9.5708
v 26.9744 -36.3866 -8.5134
v 31.7601 -34.9113 -8.0132
v 35.3279 -35.6939 -8.7056
v 37.5834 -36.7219 -9.9432
v 50.8778 -34.9228 -8.7057
v 19.9331 -30.7363 -8.6765
v 22.0986 -29.2785 -7.3236
v 33.3250 -32.8077 -6.8713
v 33.4983 -32.8077 -6.8713
v 50.8682 -30.9228 -8.7057
v 20.7922 -28.5673 -9.9903
v 23.5997 -26.8489 -8.8301
v 25.8441 -25.1304 -10.3365
v 50.1285 -26.9228 -8.7057
v 25.1009 -24.2970 -7.6698
v 27.2716 -24.2545 -8.8842
v 31.6704 -22.5680 -8.5559
v 34.4928 -21.4861 -9.7893
v 49.8399 -22.9228 -8.7057
v 33.1755 -20.7802 -7.1226
v 35.6608 -20.5321 -8.5559
v 39.4128 -19.4335 -8.7057
v 42.3230 -17.8149 -8.7057
v 48.9405 -18.1830 -8.7057
v 49.5245 -20.1830 -8.7057
v 44.3230 -16.4107 -8.7057
v 46.9405 -16.4107 -8.7057
v -51.7008 18.6122 -7.1684
v -50.0149 18.6122 -7.1684
v -18.6092 19.0689 -6.7637
v -18.5465 19.0689 -6.7637
v -51.8198 21.0772 -7.2736
v -49.6949 21.0772 -7.2736
v -27.0198 22.4969 -7.9369
v -24.8623 22.1816 -9.0444
v -20.2004 20.3780 -8.3405
v -16.9628 20.3005 -8.3405
v -13.9427 22.2960 -8.7057
v -51.1171 23.9556 -7.0002
v -48.5681 25.2978 -7.9748
v -44.7271 26.0396 -8.7936
v -41.8759 26.3782 -7.5188
v -35.0342 26.8935 -10.4673
v -33.5827 26.8935 -10.4673
v -27.5364 24.8994 -9.0444
v -26.3790 23.4475 -10.6036
v -13.4803 25.0772 -8.7057
v -47.4700 28.8424 -8.6195
v -44.7826 28.7151 -10.0404
v -40.2912 28.7969 -8.4915
v -36.7269 29.0891 -8.6324
v -32.1742 29.0205 -8.7350
v -29.5953 28.8583 -8.4840
v -13.3817 29.0772 -8.7057
v -46.8190 31.8547 -7.2287
v -45.4838 33.1437 -8.6195
v -38.7064 31.2145 -6.7975
v -38.4195 31.2145 -6.7975
v -30.7656 31.2332 -7.0028
v -30.4512 31.2332 -7.0028
v -13.5301 33.0772 -8.7057
v -43.5898 35.5455 -8.7057
v -41.3666 37.5455 -8.7057
v -15.1036 38.3343 -7.7058
v -14.2696 37.0315 -8.9058
v -39.3666 40.1702 -8.7057
v -36.5872 40.8170 -8.7057
v -32.6501 41.9272 -9.0584
v -30.4352 42.9649 -10.6269
v -15.1229 41.1719 -8.9058
v -14.4765 39.9017 -10.3724
v -31.3587 43.5669 -7.9602
v -28.8960 43.8705 -9.0584
v -24.2394 45.6439 -8.4049
v -22.1579 46.5224 -9.5376
v -15.7217 45.0772 -8.7057
v -22.6742 47.1280 -6.8710
v -20.7297 48.0214 -8.4049
v -17.4394 48.2194 -8.7057
v 12.7681 -49.3703 -3.0440
v 15.4128 -49.5561 -3.1389
v 19.4128 -49.9349 -3.7728
v 23.4128 -49.8199 -3.6929
v 25.5514 -49.1665 -2.8383
v 11.8646 -46.9255 -4.5087
v 15.5202 -46.9255 -5.1212
v 19.4128 -46.9228 -4.7379
v 23.6241 -46.9031 -3.7985
v 25.5514 -48.2233 -2.8383
v 41.2209 -45.0205 -3.0057
v 43.8459 -45.0172 -4.2919
v 47.4128 -45.0202 -5.7373
v 49.4707 -44.9615 -6.5421
v 11.1740 -42.9228 -4.7057
v 16.8176 -42.9228 -5.9826
v 19.4128 -42.9228 -4.7164
v 23.6241 -42.9385 -3.4138
v 27.4128 -41.4846 -2.8761
v 31.4128 -40.9896 -2.7496
v 35.6222 -41.6080 -4.3255
v 39.6976 -43.6344 -4.4857
v 43.8459 -44.5926 -4.2919
v 47.4128 -44.4099 -3.7373
v 51.2290 -42.6243 -4.6562
v 53.4213 -40.9392 -2.7704
v 12.5707 -39.0034 -4.6025
v 15.5558 -39.2323 -6.0802
v 19.4128 -40.3905 -5.7514
v 23.4128 -39.5798 -5.2119
v 27.0548 -38.5651 -4.6108
v 31.6954 -38.9571 -2.9097
v 34.8166 -38.9571 -4.3255
v 52.3544 -39.2583 -4.3445
v 53.4213 -40.8153 -2.7704
v 13.0588 -36.6174 -3.2004
v 15.6891 -34.9028 -4.3943
v 17.6387 -33.1882 -5.5882
v 28.1495 -36.2370 -5.6538
v 31.9377 -35.2131 -4.7991
v 34.2584 -35.2827 -5.0489
v 51.4660 -34.9228 -4.7057
v 17.3736 -32.8751 -2.9215
v 19.5111 -31.0768 -4.1879
v 22.0986 -29.2785 -5.4542
v 33.3250 -32.8077 -6.6110
v 33.4983 -32.8077 -6.6110
v 50.8658 -30.9228 -4.7057
v 21.3835 -28.8581 -2.7876
v 22.8387 -27.2840 -4.3548
v 50.2029 -26.9228 -4.7057
v 24.6059 -22.9473 -4.7349
v 27.4128 -22.2594 -5.4041
v 30.5088 -21.9974 -5.5883
v 50.3505 -22.9228 -4.7057
v 25.0439 -20.5205 -3.4210
v 27.4128 -20.5050 -3.4041
v 31.6704 -20.3942 -4.4353
v 35.4128 -19.4370 -4.7057
v 39.6545 -17.8674 -4.8665
v 43.3624 -17.0653 -4.7360
v 47.4881 -17.3173 -4.5814
v 49.9562 -19.3241 -4.7057
v 41.1490 -16.8516 -3.6403
v 43.3624 -16.8253 -4.7360
v 46.2050 -16.7990 -5.8318
v -51.1734 14.6865 -2.9636
v -48.5872 14.6263 -3.0290
v -44.5872 14.4174 -3.4839
v -40.5872 14.5338 -3.3736
v -38.5603 15.0219 -2.7319
v -54.6003 19.0118 -2.8788
v -52.7705 17.4786 -4.2546
v -48.6438 17.1982 -4.9017
v -44.5872 17.0772 -4.2809
v -40.4671 16.8078 -3.5403
v -38.5603 15.2950 -2.7319
v -18.6092 19.0689 -6.6669
v -18.5465 19.0689 -6.6669
v -54.6003 19.1175 -2.8788
v -53.6116 20.7013 -4.4096
v -47.5223 21.4201 -4.6431
v -44.9126 21.4201 -3.7762
v -41.3406 21.0772 -3.6221
v -35.3572 22.6847 -2.9476
v -32.5872 22.6787 -3.0332
v -28.4467 22.3733 -4.4226
v -24.5872 21.0305 -4.7057
v -20.2004 20.1006 -5.0824
v -16.9628 20.3389 -5.0824
v -13.2391 22.1040 -4.7057
v -51.7279 25.2042 -4.8984
v -48.5393 24.8240 -5.4148
v -44.9126 23.7763 -4.7385
v -40.5006 24.9890 -4.7745
v -36.6492 24.9907 -3.3718
v -32.4779 25.2832 -3.0389
v -29.4007 25.2832 -4.4226
v -12.3996 25.0772 -4.7057
v -51.2280 27.6009 -3.6934
v -49.2744 28.9914 -4.8984
v -39.1431 29.0772 -6.1035
v -36.8866 29.2281 -5.4952
v -32.2520 28.9402 -4.6790
v -29.8596 28.7619 -5.0024
v -13.0676 29.0772 -4.7057
v -47.1281 32.0805 -4.7057
v -45.0078 34.0805 -4.7057
v -38.7064 31.2145 -6.4865
v -38.4195 31.2145 -6.4865
v -30.7656 31.2332 -6.5335
v -30.4512 31.2332 -6.5335
v -13.5611 33.0772 -4.7057
v -43.0078 35.6980 -4.7057
v -41.8009 37.6980 -4.7057
v -15.1036 38.3343 -5.7317
v -14.2422 37.0315 -4.5213
v -40.0236 41.4135 -5.0664
v -36.5872 42.3998 -6.0682
v -34.0254 42.2801 -5.9212
v -15.0690 41.0772 -5.7198
v -14.2516 41.0772 -3.7198
v -39.3629 43.9148 -3.9735
v -36.5872 43.9636 -4.0682
v -32.6501 44.0604 -4.6350
v -28.5872 45.1724 -4.7057
v -24.9852 46.2016 -4.7057
v -19.0968 46.8816 -3.0088
v -16.3254 45.6433 -4.6870
v -14.2535 44.4050 -3.6985
v -22.9852 47.2072 -4.7057
v -20.4930 47.4420 -4.4876
v -17.9375 47.5119 -5.6754
v 13.3556 -52.9575 1.1722
v 15.4128 -53.0960 0.9055
v 19.4128 -53.3081 0.4749
v 23.4128 -53.4899 0.2998
v 25.9085 -53.3616 0.6647
v 9.1097 -49.2917 0.4750
v 11.7285 -50.6643 -0.5098
v 15.4128 -51.5561 -1.0945
v 19.4128 -51.9349 -1.5251
v 23.4128 -51.8199 -1.7002
v 26.1476 -50.6690 -0.6835
v 9.1097 -47.9428 0.4750
v 10.0863 -46.7348 -0.7973
v 25.0983 -45.5566 -2.4956
v 26.5197 -46.9031 -0.9796
v 41.2209 -45.0205 -2.3064
v 42.5568 -45.0205 -2.3064
v 10.7798 -42.9228 -0.7057
v 25.0983 -44.2822 -2.4956
v 27.6823 -43.6442 -0.9796
v 31.4128 -42.0960 -0.7057
v 35.4128 -41.7922 -0.7057
v 39.6976 -43.5143 -0.8662
v 43.8293 -43.3282 -0.7189
v 47.4128 -42.4099 -1.5790
v 51.4128 -41.4751 -2.2502
v 53.4213 -40.9392 -2.6930
v 9.3940 -36.9852 1.2657
v 10.8336 -38.5603 -0.3229
v 33.2171 -37.6466 -2.6364
v 33.4961 -37.6466 -2.6364
v 45.1018 -40.5937 0.8686
v 47.4128 -40.1012 0.4210
v 51.5045 -39.1526 -1.0687
v 53.4213 -40.8153 -2.6930
v 9.3940 -36.8968 1.2657
v 11.6004 -36.3300 -0.3229
v 15.1738 -34.2013 -0.7057
v 33.2171 -36.8559 -2.6364
v 33.4961 -36.8559 -2.6364
v 51.3168 -34.9228 -0.7057
v 17.1738 -32.6118 -0.7057
v 19.1702 -30.6118 -0.7057
v 50.5907 -30.9228 -0.7057
v 21.1247 -27.2840 -0.5763
v 22.0821 -26.1914 -1.8233
v 50.5221 -26.9228 -0.7057
v 21.2561 -24.6116 0.8434
v 22.9595 -23.1361 -0.5763
v 50.8731 -22.9228 -0.7057
v 24.8442 -20.4014 -0.7057
v 27.4128 -19.5582 -0.7057
v 31.4128 -19.0336 -0.7057
v 35.4128 -18.7062 -0.7057
v 38.8363 -17.7523 -0.7057
v 44.3219 -17.5207 -0.7057
v 47.4128 -18.3388 -0.7057
v 50.1751 -19.7410 -0.7057
v 40.8363 -16.7611 -0.7057
v 42.3219 -16.7611 -0.7057
v -47.3890 10.9300 1.0185
v -44.5872 10.7516 0.7175
v -40.5872 10.6192 0.5295
v -38.2295 10.7535 0.7679
v -54.9026 14.7680 0.5859
v -52.5389 13.9856 -0.7307
v -48.6683 12.4448 -0.4712
v -44.5872 12.4174 -1.2825
v -40.5872 12.5338 -1.4705
v -38.0491 13.4440 -0.6216
v -54.8852 17.4379 -0.7307
v -53.8401 16.3451 -2.0808
v -39.0537 17.9616 -2.4555
v -37.8202 16.8078 -0.9556
v -54.7232 19.4306 -0.7057
v -53.6547 21.4306 -0.7057
v -46.6687 22.9821 -2.6311
v -46.4628 22.9821 -2.6311
v -39.3406 21.0772 -2.2434
v -36.6026 21.1790 -1.0641
v -32.5872 21.9457 -0.7057
v -28.5872 22.2364 -0.7057
v -24.5872 21.3379 -0.7057
v -20.6478 21.7712 -0.8566
v -16.5872 22.1500 -1.8624
v -13.3361 22.4405 -1.9965
v -54.6156 26.9903 1.2311
v -53.4256 25.4251 -0.3436
v -46.6687 23.1648 -2.6311
v -46.4628 23.1648 -2.6311
v -39.1253 23.5998 -2.3394
v -38.0238 23.5998 -2.3394
v -31.0717 26.7538 -2.5990
v -30.4902 26.7538 -2.5990
v -19.3548 23.9403 0.3761
v -16.5872 24.6632 0.1376
v -13.3694 25.4281 -0.6802
v -54.6156 27.1189 1.2311
v -52.5717 27.9154 -0.3436
v -49.4535 30.0936 -0.7057
v -31.0717 27.2184 -2.5990
v -30.4902 27.2184 -2.5990
v -13.4172 29.0772 -0.7057
v -47.4535 32.1932 -0.7057
v -45.4834 34.1932 -0.7057
v -13.7945 33.0772 -0.7057
v -43.3447 37.1325 -0.5428
v -42.2397 38.5027 -1.7676
v -14.2463 37.0772 -0.7057
v -42.6548 39.3022 0.8991
v -41.7636 40.8122 -0.5428
v -13.7489 41.0772 -0.7057
v -39.8184 44.2126 -0.7057
v -36.2579 45.7921 -0.3621
v -32.6746 46.0484 -0.3621
v -28.5872 45.8126 -0.7057
v -25.4395 46.3568 -0.7057
v -19.6452 46.4812 -0.7057
v -16.5872 45.9283 -0.7057
v -13.8832 44.5242 -0.7057
v -34.7050 47.1233 1.2003
v -34.0662 47.1233 1.2003
v -23.4395 47.2899 -0.7057
v -21.6452 47.2899 -0.7057
v 13.3556 -52.9575 1.6890
v 15.1585 -53.3403 3.1311
v 19.4128 -53.7704 3.2943
v 23.1786 -53.4675 3.2977
v 25.9085 -53.3616 1.9666
v 9.1097 -49.2917 2.4939
v 11.4512 -50.9617 3.4248
v 13.6557 -52.6317 4.3557
v 24.3559 -51.7755 4.6333
v 26.1123 -50.6345 3.2977
v 9.1750 -47.0006 3.4677
v 9.6044 -47.0006 3.4677
v 28.0844 -46.6674 3.1339
v 29.6699 -45.1637 4.3603
v 9.2403 -44.0817 4.4415
v 10.1019 -42.8181 3.1826
v 29.1953 -44.7094 1.6936
v 31.5366 -42.9938 3.4881
v 35.0230 -41.4618 3.6872
v 39.4354 -41.7774 3.4721
v 42.4351 -41.8042 2.2573
v 9.2362 -37.5884 3.2943
v 10.0872 -39.5884 3.2943
v 33.4034 -40.9085 5.2826
v 33.4298 -40.9085 5.2826
v 40.7838 -40.5926 4.9240
v 43.6262 -40.1062 3.4721
v 47.4128 -39.1615 3.2943
v 49.8841 -37.9346 3.2943
v 9.1968 -35.3072 3.6079
v 11.3868 -34.3160 3.6079
v 14.4049 -33.6838 3.2943
v 50.5944 -34.9228 3.2943
v 9.2883 -32.8305 5.1503
v 10.0361 -32.8305 5.1503
v 16.4049 -32.0604 3.2943
v 18.6985 -30.0604 3.2943
v 50.6005 -30.9228 3.2943
v 20.0486 -26.9228 3.2943
v 50.6309 -26.9228 3.2943
v 20.7873 -23.1361 3.5207
v 22.3568 -21.9449 2.3384
v 50.8163 -22.9228 3.2943
v 21.2369 -20.7279 5.0051
v 23.5792 -19.8917 3.5207
v 27.2163 -17.8270 3.3992
v 31.4128 -17.5874 2.6443
v 35.4128 -17.7559 2.5639
v 38.2412 -17.5113 2.0286
v 44.3272 -17.9228 3.2943
v 47.4128 -19.2302 3.2943
v 50.0757 -20.2302 3.2943
v 28.4187 -16.8136 4.8026
v 31.4128 -16.7136 4.6443
v 35.4128 -16.4891 4.5639
v 39.5098 -16.0524 3.3349
v 42.3272 -16.1413 3.2943
v -47.8569 10.6935 3.2943
v -44.5872 10.3810 3.2943
v -40.8257 10.6330 3.2383
v -38.2295 10.7535 1.8677
v -54.9026 14.7680 2.1813
v -52.7768 13.6753 3.4265
v -49.8569 11.5567 3.2943
v -39.6367 13.0772 4.5126
v -37.9347 13.0772 2.5126
v -55.0688 16.9032 3.4265
v -54.2365 15.4538 4.8480
v -38.9224 15.4328 5.0120
v -37.2947 16.8905 3.5249
v -54.9527 20.2085 3.2943
v -53.9837 22.2085 3.2943
v -35.3559 19.7724 3.2943
v -32.3785 21.8893 3.3885
v -28.6020 22.6695 3.3885
v -24.7434 22.4604 3.3113
v -22.0215 22.4886 1.9892
v -54.9184 26.2006 3.2943
v -53.9837 24.2006 3.2943
v -30.9061 23.5314 4.7847
v -29.9452 23.5314 4.7847
v -23.5142 23.8812 4.6559
v -20.6478 24.5756 3.3113
v -16.5872 26.1218 3.2943
v -14.4939 26.8519 3.2943
v -55.1513 28.7022 3.4052
v -52.5872 29.7321 2.7758
v -49.9195 30.5753 2.4181
v -14.1496 29.0772 3.2943
v -55.0858 31.4253 4.8124
v -52.5872 31.4058 4.7758
v -48.5866 32.2920 3.5686
v -45.7905 34.5282 3.2943
v -13.9380 33.0772 3.2943
v -44.3971 37.0772 3.2943
v -14.1430 37.0772 3.2943
v -43.3299 40.8122 3.2304
v -42.1198 41.9689 1.8544
v -13.6070 41.0772 3.2943
v -43.0161 43.6312 4.5211
v -40.5153 45.0256 3.4031
v -37.3717 46.4201 2.2852
v -31.3996 46.8802 1.6308
v -28.5872 46.5362 1.8550
v -25.9467 46.5529 1.7053
v -19.6908 46.2026 3.2943
v -16.5872 45.1368 3.2943
v -13.7462 44.0113 3.2943
v -38.9108 47.2572 4.9518
v -36.2579 47.3077 3.4888
v -32.6746 47.4757 3.0962
v -28.5872 47.8716 3.8550
v -24.6029 48.0079 3.1409
v -21.6908 47.7912 3.2943
v 16.3223 -53.3876 6.1309
v 19.3108 -53.5307 7.3963
v 21.9971 -53.3341 7.2943
v 12.2135 -49.9650 5.6780
v 15.5336 -50.7792 7.2378
v 17.9094 -51.5934 8.7976
v 24.1653 -50.6345 7.2851
v 25.4927 -49.1088 5.9457
v 9.2403 -46.0583 5.6457
v 11.0932 -47.2041 6.5017
v 14.4755 -46.9228 8.5400
v 21.0343 -45.1220 9.0876
v 23.8522 -46.4920 8.8500
v 26.8139 -46.5129 7.1929
v 29.6699 -45.1637 5.7734
v 9.2403 -44.0817 5.6457
v 11.3011 -43.1436 7.4419
v 13.4976 -44.8722 9.2382
v 21.0343 -44.6930 9.0876
v 23.6394 -43.4372 8.8815
v 27.0462 -43.2780 8.2288
v 31.4193 -42.1757 7.0907
v 35.0230 -41.3832 6.9035
v 38.2880 -41.3058 7.2943
v 9.1961 -37.7479 5.7318
v 10.4728 -39.0179 7.1568
v 24.7956 -40.2775 8.6755
v 27.4128 -40.2392 8.6031
v 31.6252 -40.7826 7.1505
v 33.4298 -40.9085 5.3096
v 40.2880 -40.1588 7.2943
v 43.4128 -38.6786 7.2943
v 47.1939 -37.8079 7.3876
v 49.6501 -37.7049 6.1165
v 9.1569 -34.9228 5.7281
v 11.3861 -34.7951 6.9168
v 14.3017 -33.7312 7.2943
v 48.0950 -34.9228 8.3612
v 49.8996 -34.9228 6.3612
v 9.2883 -32.8305 5.4351
v 10.0361 -32.8305 5.4351
v 16.4951 -30.8530 7.6028
v 18.0879 -29.4731 6.4751
v 48.4215 -30.9228 8.2480
v 49.9962 -30.9228 6.2480
v 17.1174 -26.9228 8.7527
v 18.3867 -26.9228 6.7527
v 48.8168 -28.1007 8.6322
v 50.0363 -26.8295 7.2970
v 17.0670 -24.4060 8.7247
v 19.6366 -22.7399 7.4528
v 21.6090 -21.0737 8.8476
v 48.4627 -21.7886 8.5957
v 50.0827 -23.0423 7.2751
v 21.2369 -20.7279 6.1809
v 23.1305 -19.3092 7.4263
v 25.7071 -17.0521 7.2943
v 44.3934 -18.1985 7.2943
v 47.2427 -20.0334 7.2751
v 49.8564 -20.4062 5.9290
v 27.7071 -16.2965 7.2943
v 31.4128 -15.4480 7.2943
v 35.4128 -15.1161 7.2943
v 39.4128 -14.4779 7.2943
v 42.3934 -15.4362 7.2943
v -47.4783 10.7127 6.2080
v -44.5316 10.7089 7.4425
v -42.2686 10.8902 7.2943
v -51.5698 14.1694 5.7413
v -48.4353 13.0592 7.3080
v -45.8278 11.9490 8.8747
v -40.9521 13.0772 7.2943
v -54.9063 18.1205 5.7956
v -52.7768 16.9032 6.5446
v -49.3157 17.0772 8.4812
v -39.4795 16.8905 7.5756
v -37.6846 18.0995 6.4298
v -54.9063 20.1546 5.7956
v -52.8028 21.0492 7.4461
v -50.0868 19.2770 9.0965
v -39.7464 21.0772 8.5036
v -36.4457 20.8757 6.7674
v -32.2938 22.5122 7.4045
v -28.6020 22.7619 7.3209
v -26.0077 22.7787 7.2943
v -55.0004 25.9952 6.1745
v -53.8086 24.8280 7.4224
v -39.5570 24.1120 8.4379
v -36.5872 24.2861 8.2840
v -32.2938 23.5928 7.4045
v -29.9452 23.5314 6.0054
v -24.0077 24.5228 7.2943
v -20.4449 26.3318 7.5943
v -16.5872 26.5358 6.4071
v -14.4963 26.8585 5.6113
v -55.2710 29.0772 6.3187
v -52.7499 29.1833 7.8923
v -49.9397 30.5875 8.2584
v -19.0166 27.3839 9.1277
v -16.8159 28.8612 7.7858
v -14.5181 29.0772 5.5336
v -55.0858 31.4253 5.7799
v -52.5872 31.4058 5.8816
v -48.4028 32.9589 7.0703
v -46.0271 34.7507 5.8822
v -15.9286 33.0772 7.6201
v -14.3762 33.0772 5.6201
v -47.0187 37.0772 8.3491
v -45.7231 37.0772 6.3491
v -15.5046 37.0772 8.0208
v -14.2868 37.0772 6.0208
v -46.8838 39.7632 8.7794
v -45.2039 41.0888 7.3853
v -15.9254 41.0772 8.2955
v -14.1097 41.0772 6.2955
v -43.3022 43.6854 7.2943
v -40.9926 45.6854 7.2943
v -19.6483 45.6665 7.2943
v -16.9683 43.9350 7.3735
v -14.0709 43.7211 6.0930
v -38.9415 48.7852 7.6684
v -36.9247 49.2564 7.6684
v -32.3581 49.4245 7.5199
v -28.6085 49.9056 7.5199
v -24.5872 49.8588 7.2943
v -21.6483 48.6684 7.2943
v -38.6370 51.1251 9.2512
v -38.4830 51.1251 9.2512
v -30.8720 51.1894 9.0037
v -29.9560 51.1894 9.0037
v 20.5761 -53.3196 9.7665
v 21.9155 -53.3196 9.7665
v 17.4116 -48.9268 9.2951
v 19.3108 -50.5252 9.9047
v 22.6461 -50.9228 10.0567
v 13.2142 -44.9955 12.1364
v 15.2327 -46.0968 10.6479
v 19.5857 -46.6423 9.8107
v 23.8522 -46.4920 9.5744
v 25.4685 -45.1954 9.3102
v 12.6842 -43.2925 10.9996
v 14.8699 -44.4404 10.8731
v 19.4302 -43.0174 11.0298
v 23.6394 -43.4372 9.5466
v 25.4685 -44.8482 9.3102
v 32.5136 -41.1795 10.3468
v 35.7460 -41.2504 11.5258
v 37.7776 -41.1398 11.2943
v 11.9744 -38.9228 11.2943
v 19.9265 -38.9228 11.7150
v 23.4425 -38.9356 9.8467
v 27.4128 -38.2392 10.0349
v 31.3946 -39.3340 11.4678
v 34.6349 -40.6781 13.0135
v 39.7776 -39.6739 11.2943
v 43.0891 -37.5606 10.9219
v 45.7147 -36.9844 9.3403
v 12.7362 -35.8187 11.2943
v 14.3675 -33.8187 11.2943
v 20.4439 -34.9228 12.0657
v 23.4128 -34.9228 10.8746
v 27.4691 -34.7544 11.9181
v 30.2756 -35.9755 12.5887
v 43.8895 -34.9228 11.9487
v 46.0950 -34.9228 9.9487
v 16.0633 -30.9228 11.2943
v 21.1825 -32.8010 12.9172
v 23.4128 -32.3674 12.5506
v 26.1733 -32.3040 12.6797
v 44.2972 -30.9228 12.6268
v 46.4215 -30.9228 10.6268
v 16.9620 -26.7632 11.4885
v 17.6774 -25.3235 12.9514
v 44.2928 -26.9228 12.3263
v 47.4552 -26.8295 10.2339
v 49.5871 -25.4340 9.4843
v 17.0670 -24.4060 10.2847
v 19.1715 -23.3934 11.4885
v 23.1305 -21.4379 11.5405
v 25.6794 -21.1468 13.0380
v 43.8308 -22.9228 11.8336
v 47.2427 -23.0423 9.8398
v 49.5871 -24.4553 9.4843
v 24.2757 -19.6591 10.3713
v 25.8095 -18.5646 11.5405
v 37.3426 -16.9840 13.2096
v 39.4128 -17.9264 12.5756
v 42.9973 -19.4158 11.0041
v 45.7960 -20.6318 9.5876
v 25.3537 -13.7200 13.0482
v 26.9434 -14.9585 11.5882
v 31.3620 -13.9004 11.3947
v 35.7707 -15.4144 11.6435
v 39.4128 -15.4576 10.5756
v 41.8604 -15.8384 9.7540
v 25.3537 -12.8679 13.0482
v 27.4128 -12.6160 12.7352
v 29.9949 -12.5687 12.7950
v -43.1612 10.9576 9.4549
v -42.4316 10.9576 9.4549
v -46.7256 14.6157 9.4024
v -44.5316 13.2003 9.8083
v -41.9026 13.0772 9.8557
v -47.3157 17.0772 9.5017
v -44.5872 17.0772 10.0115
v -41.4512 17.0772 9.8041
v -51.6870 21.4229 11.2943
v -48.6870 19.9010 10.9953
v -44.7120 21.2243 11.2345
v -41.7464 21.0772 9.5932
v -31.0149 22.9496 9.7955
v -28.5872 22.7966 10.6085
v -26.2208 22.8307 10.5453
v -52.6340 25.0772 11.2943
v -44.1004 25.0772 11.5623
v -40.7691 25.2981 9.6491
v -36.5872 26.2861 9.9777
v -32.4787 24.9432 11.2168
v -28.5872 23.4709 12.6085
v -24.5187 24.9905 11.5896
v -21.6833 26.8673 9.9672
v -51.4091 29.1833 11.4505
v -49.9397 30.5875 10.2213
v -44.2936 29.0772 11.5596
v -40.5872 29.0772 10.1387
v -36.4612 29.1803 11.7638
v -33.9424 27.9157 12.6381
v -22.8165 28.3845 12.6338
v -20.7983 29.2175 11.1715
v -18.3016 30.0506 9.7092
v -50.6944 31.3293 12.8880
v -49.1454 32.8284 11.4505
v -43.7193 31.6185 12.2641
v -40.5872 32.3524 11.9251
v -37.7104 32.2361 12.4990
v -20.0162 33.0772 12.2915
v -17.9286 33.0772 10.2915
v -47.6155 37.0772 11.2943
v -19.9193 37.0772 12.2167
v -17.5046 37.0772 10.2167
v -46.9321 39.7847 11.2943
v -44.5019 41.8252 11.2618
v -41.9033 42.7138 12.5735
v -20.3944 41.0772 11.5422
v -17.9254 41.0772 9.5422
v -43.1116 43.3340 9.9069
v -40.7171 44.8313 11.2618
v -23.8456 45.9215 12.5088
v -20.9491 44.5091 10.9092
v -18.5557 43.0967 9.3095
v -39.0859 49.0772 11.2943
v -35.8163 50.3713 10.0774
v -32.4181 50.4157 11.1879
v -28.6085 49.7173 11.0968
v -24.9423 48.4860 11.2230
v -22.0982 48.4079 9.8421
v -38.9106 51.3894 11.2943
v -36.9247 51.6035 11.3641
v -32.4181 51.3637 11.1879
v -29.9560 51.1894 9.6318
v 9.0722 -45.3574 16.7255
v 11.8082 -45.1764 15.2790
v 13.5756 -44.9955 13.8324
v 9.0722 -44.0713 16.7255
v 11.6964 -43.4674 15.7828
v 15.1557 -42.9508 15.1947
v 17.8261 -41.3418 13.8904
v 32.9159 -41.2075 16.2028
v 35.7460 -41.3016 15.0394
v 37.8293 -41.1829 15.2943
v 11.8809 -38.9228 15.2943
v 16.5929 -38.9228 16.3170
v 17.9265 -38.9228 14.3170
v 32.8212 -39.1760 15.0394
v 34.6349 -40.6781 13.5361
v 39.8854 -38.7368 15.1888
v 41.5400 -37.2794 13.7852
v 12.9068 -35.9775 15.2943
v 15.3831 -34.9593 15.2185
v 18.4439 -34.9228 14.1806
v 28.8400 -33.3088 13.5975
v 31.8349 -35.0088 15.3957
v 33.5857 -34.0421 17.1939
v 40.4237 -34.9228 15.8691
v 41.8895 -34.9228 13.8691
v 16.4121 -30.9228 13.9905
v 19.6746 -31.2497 14.4137
v 23.4620 -30.2456 15.4567
v 27.4691 -31.3113 15.0762
v 31.4128 -32.0520 16.4464
v 33.5857 -32.7742 17.1939
v 40.5412 -30.9228 16.0308
v 42.2972 -30.9228 14.0308
v 17.0552 -27.9901 13.8084
v 19.1715 -26.7632 14.4578
v 22.9147 -26.9228 16.3631
v 41.1064 -26.9228 16.6878
v 42.2928 -26.9228 14.6878
v 20.3440 -24.0730 13.7819
v 23.7651 -23.5967 15.1869
v 26.0129 -21.9025 15.2943
v 36.8697 -21.2878 16.8730
v 39.7343 -22.7418 16.1462
v 41.8308 -22.9228 14.1752
v 26.9969 -18.9228 15.2943
v 36.3444 -18.5595 15.4415
v 39.4128 -19.9264 13.9956
v 41.4676 -20.8664 13.3174
v 25.3537 -13.7200 13.3652
v 27.4021 -14.7214 15.2577
v 31.3620 -14.0000 15.6078
v 34.4846 -16.1693 15.2943
v 25.3537 -12.8679 13.3652
v 27.4128 -12.6160 14.2394
v 29.9949 -12.5687 14.4834
v -54.9217 18.8022 16.8136
v -54.0727 18.8022 16.8136
v -54.9217 19.9817 16.8136
v -52.7862 21.1242 15.9454
v -48.7918 21.9474 15.2488
v -46.1285 22.6558 13.8851
v -31.0910 22.8487 16.5716
v -28.5872 22.7143 15.8086
v -26.2424 22.8219 16.0361
v -52.5377 25.0772 15.2943
v -47.8248 25.0772 16.0210
v -46.1004 25.0772 14.0210
v -31.6811 24.9702 15.2607
v -28.5872 23.4709 13.8086
v -25.3309 24.6991 14.9394
v -51.2247 28.9738 15.0054
v -48.5727 28.9738 15.2998
v -46.2936 29.0772 13.6624
v -35.0438 30.5824 13.5851
v -32.5803 29.3491 15.3294
v -30.2314 30.7825 17.0737
v -23.7681 29.4616 14.8965
v -22.5799 31.0512 13.2980
v -50.6944 31.3293 13.4794
v -48.5667 32.8284 13.8556
v -44.8665 33.0020 14.3338
v -40.5268 34.3877 15.4836
v -36.4612 33.1028 15.0688
v -32.5872 32.0802 16.3470
v -30.2314 31.3481 17.0737
v -23.8792 33.0772 15.7002
v -22.0162 33.0772 13.7002
v -47.1840 37.0772 14.0357
v -44.5872 37.0772 15.2316
v -41.3904 37.0772 16.4902
v -23.3696 37.0772 16.0944
v -21.9193 37.0772 14.0944
v -46.7505 39.3345 13.6453
v -44.5872 39.9977 14.0167
v -41.0216 41.2591 15.2616
v -27.2840 42.5846 16.6792
v -24.4099 41.1816 15.6832
v -22.3944 41.0772 13.7417
v -39.1287 44.8540 14.9070
v -37.6747 46.0385 15.9822
v -28.0674 45.0772 15.8573
v -24.9423 44.7838 13.7849
v -22.4667 43.2548 13.3614
v -38.8858 49.0772 13.6453
v -37.0840 49.0772 15.6453
v -31.8463 49.7073 15.2943
v -28.9533 47.5987 14.9137
v -26.5123 47.1063 13.3267
v -38.9686 51.4455 13.7411
v -36.3322 51.6848 15.1624
v -33.8463 51.5604 15.2943
v 9.0722 -45.3574 17.6999
v 10.4022 -45.3574 17.6999
v 9.0722 -44.0713 17.6999
v 11.4932 -42.9822 17.7002
v 14.0691 -41.8931 17.7006
v 32.9159 -41.2075 18.2922
v 35.4128 -41.3914 18.4475
v 37.9445 -41.2629 17.8339
v 12.4543 -38.9228 18.0105
v 14.5929 -38.9228 18.0105
v 33.0262 -38.9228 18.0543
v 35.4128 -38.9228 18.8612
v 38.4857 -38.9228 18.1012
v 12.9634 -36.5411 17.8429
v 14.3300 -36.5411 17.8429
v 33.3943 -36.7087 17.3096
v 35.1165 -35.1944 17.8636
v 38.4237 -34.9228 17.9944
v 24.8281 -29.2014 18.1113
v 27.5292 -29.3399 19.3845
v 31.4128 -30.2771 19.2943
v 35.1165 -31.4186 19.1326
v 38.3571 -30.5851 19.1326
v 24.9147 -26.9228 18.0372
v 27.5292 -26.9131 20.1843
v 31.4128 -25.8198 20.9898
v 35.4128 -26.1941 20.7233
v 38.8092 -27.2125 19.3767
v 25.3334 -24.6718 17.4678
v 27.3330 -23.1722 18.3999
v 31.4128 -22.9228 19.7190
v 35.4869 -22.7418 18.7150
v 38.6153 -23.9544 18.0983
v 28.6775 -18.5983 19.2001
v 31.1303 -18.5983 19.6978
v 34.1299 -18.9228 17.9164
v 29.0934 -15.9653 19.2943
v 31.1303 -15.9639 19.1145
v 33.5786 -16.6014 17.6613
v -54.9217 18.8022 17.6056
v -54.0727 18.8022 17.6056
v -54.9217 19.9817 17.6056
v -52.7171 21.3347 17.5590
v -50.2616 22.6878 17.5124
v -31.0910 22.8487 18.4627
v -28.5872 22.7143 18.5257
v -26.2424 22.8219 17.7678
v -51.6408 25.0772 17.9058
v -49.8248 25.0772 17.9058
v -31.4382 25.0772 18.5330
v -28.5872 25.0772 19.2893
v -25.8449 25.0772 18.0506
v -51.2177 27.5716 17.8915
v -49.8964 27.5716 17.8915
v -31.2181 28.1159 17.7775
v -28.7737 29.3004 18.0845
v -25.8914 29.0772 17.9197
v -39.1531 34.8945 18.2113
v -36.5872 34.7400 18.8956
v -32.5506 34.2667 19.6251
v -29.0239 33.2019 19.2210
v -25.8792 33.0772 18.1844
v -39.2414 37.3206 19.4445
v -36.5872 35.9447 20.8956
v -33.8595 35.1615 21.1790
v -28.3482 37.0772 20.5122
v -25.3696 37.0772 18.5122
v -39.0437 40.6979 19.0673
v -36.5872 41.4494 19.9921
v -32.5872 41.5178 20.0396
v -28.8283 40.8938 19.1714
v -25.6250 39.9179 18.0303
v -38.8235 43.3718 17.5826
v -36.4397 44.8540 18.4207
v -32.5872 45.0772 18.8147
v -30.0674 45.0772 17.6229
v -35.0840 49.0772 18.1911
v -32.7683 48.7515 18.0637
v -30.5306 47.2011 17.3808
v -34.8288 51.2607 17.5431
v -34.2223 51.2607 17.5431
v 28.9402 -29.0184 21.4677
v 31.4128 -29.1479 21.6343
v 35.4128 -29.1540 21.5697
v 37.4820 -29.0266 21.3816
v 28.9402 -28.2399 21.4677
v 31.4128 -27.8198 21.6343
v 35.4128 -28.1941 21.5697
v 37.4820 -28.7389 21.3816
v 29.3498 -17.0486 21.3407
v 29.6086 -17.0486 21.3407
v 29.3498 -16.8460 21.3407
v 29.6086 -16.8460 21.3407
v -31.1928 35.0557 21.3215
v -30.4831 35.0557 21.3215
v -38.6067 38.8162 21.3121
v -36.5872 37.9447 21.6171
v -32.5506 36.7278 21.6185
v -30.3482 37.0772 21.3901
v -38.6067 39.1117 21.3121
v -36.5872 39.4494 21.6171
v -32.5872 39.5178 21.6790
v -30.3726 39.2030 21.3947
f 5 1 4
f 5 2 1
f 6 4 3
f 6 7 4
f 9 8 7
f 9 10 8
f 11 10 9
f 11 12 10
f 14 13 12
f 14 15 13
f 21 16 20
f 21 17 16
f 22 19 18
f 22 23 19
f 24 19 23
f 24 20 19
f 25 20 24
f 25 21 20
f 26 24 23
f 26 27 24
f 28 24 27
f 28 25 24
f 29 27 26
f 29 30 27
f 30 28 27
f 30 31 28
f 33 32 31
f 33 34 32
f 37 1 2
f 37 36 1
f 40 1 36
f 40 4 1
f 40 3 4
f 40 39 3
f 39 36 35
f 39 40 36
f 37 2 5
f 37 5 41
f 5 4 40
f 5 40 41
f 41 38 37
f 41 42 38
f 45 3 39
f 45 6 3
f 46 40 4
f 46 4 7
f 46 7 6
f 46 6 45
f 8 46 7
f 8 47 46
f 47 40 46
f 47 41 40
f 48 41 47
f 48 42 41
f 48 43 42
f 48 49 43
f 49 44 43
f 49 50 44
f 46 9 7
f 46 54 9
f 54 45 53
f 54 46 45
f 55 47 8
f 55 8 10
f 55 48 47
f 55 56 48
f 56 49 48
f 56 57 49
f 57 50 49
f 57 58 50
f 58 51 50
f 58 59 51
f 61 52 60
f 61 53 52
f 54 11 9
f 54 62 11
f 61 54 53
f 61 62 54
f 55 10 12
f 55 12 63
f 63 12 11
f 63 11 62
f 13 63 12
f 13 64 63
f 64 55 63
f 64 56 55
f 65 56 64
f 65 57 56
f 66 57 65
f 66 58 57
f 67 58 66
f 67 59 58
f 68 62 61
f 68 69 62
f 63 14 12
f 63 70 14
f 69 63 62
f 69 70 63
f 64 13 15
f 64 15 71
f 71 15 14
f 71 14 70
f 72 64 71
f 72 65 64
f 73 65 72
f 73 66 65
f 75 70 74
f 75 71 70
f 17 76 16
f 17 77 76
f 19 79 18
f 19 80 79
f 76 20 16
f 76 81 20
f 81 19 20
f 81 80 19
f 82 77 17
f 82 17 21
f 82 78 77
f 82 83 78
f 79 22 18
f 79 86 22
f 87 23 22
f 87 22 86
f 86 79 80
f 86 80 87
f 88 82 21
f 88 21 25
f 89 82 88
f 89 83 82
f 89 84 83
f 89 90 84
f 90 85 84
f 90 91 85
f 93 23 87
f 93 26 23
f 88 25 28
f 88 28 94
f 94 89 88
f 94 95 89
f 95 90 89
f 95 96 90
f 96 91 90
f 96 97 91
f 93 29 26
f 93 100 29
f 100 92 99
f 100 93 92
f 101 30 29
f 101 29 100
f 94 28 31
f 94 31 102
f 31 30 101
f 31 101 102
f 32 102 31
f 32 103 102
f 103 94 102
f 103 95 94
f 104 95 103
f 104 96 95
f 105 96 104
f 105 97 96
f 106 97 105
f 106 98 97
f 107 101 100
f 107 108 101
f 102 33 31
f 102 109 33
f 109 101 108
f 109 102 101
f 103 32 34
f 103 34 110
f 34 33 109
f 34 109 110
f 111 103 110
f 111 104 103
f 112 104 111
f 112 105 104
f 113 109 108
f 113 114 109
f 115 109 114
f 115 110 109
f 117 35 36
f 117 116 35
f 118 36 37
f 118 117 36
f 38 118 37
f 38 119 118
f 122 35 116
f 122 39 35
f 123 119 38
f 123 38 42
f 43 123 42
f 43 124 123
f 123 120 119
f 123 124 120
f 125 43 44
f 125 124 43
f 127 39 122
f 127 45 39
f 127 121 126
f 127 122 121
f 128 125 44
f 128 44 50
f 51 128 50
f 51 129 128
f 131 45 127
f 131 53 45
f 131 52 53
f 131 130 52
f 131 126 130
f 131 127 126
f 129 51 59
f 129 59 133
f 132 128 129
f 132 129 133
f 134 52 130
f 134 60 52
f 135 61 60
f 135 60 134
f 133 59 67
f 133 67 137
f 67 66 136
f 67 136 137
f 135 68 61
f 135 138 68
f 139 69 68
f 139 68 138
f 140 70 69
f 140 69 139
f 72 71 141
f 72 141 142
f 136 66 73
f 136 73 143
f 143 73 72
f 143 72 142
f 140 74 70
f 140 145 74
f 144 140 139
f 144 145 140
f 141 71 75
f 141 75 146
f 75 74 145
f 75 145 146
f 147 141 146
f 147 142 141
f 148 147 146
f 148 149 147
f 152 76 77
f 152 151 76
f 78 152 77
f 78 153 152
f 157 76 151
f 157 81 76
f 157 80 81
f 157 156 80
f 157 150 156
f 157 151 150
f 158 153 78
f 158 78 83
f 84 158 83
f 84 159 158
f 158 154 153
f 158 159 154
f 160 84 85
f 160 159 84
f 162 80 156
f 162 87 80
f 162 155 161
f 162 156 155
f 163 160 85
f 163 85 91
f 165 87 162
f 165 93 87
f 165 92 93
f 165 164 92
f 165 161 164
f 165 162 161
f 166 163 91
f 166 91 97
f 98 166 97
f 98 167 166
f 168 92 164
f 168 99 92
f 169 100 99
f 169 99 168
f 167 98 106
f 167 106 171
f 106 105 170
f 106 170 171
f 169 107 100
f 169 173 107
f 172 169 168
f 172 173 169
f 174 108 107
f 174 107 173
f 111 110 175
f 111 175 176
f 170 105 112
f 170 112 177
f 177 112 111
f 177 111 176
f 174 113 108
f 174 178 113
f 179 114 113
f 179 113 178
f 175 110 115
f 175 115 180
f 115 114 179
f 115 179 180
f 181 175 180
f 181 176 175
f 183 179 182
f 183 180 179
f 117 184 116
f 117 185 184
f 118 185 117
f 118 186 185
f 187 118 119
f 187 186 118
f 120 187 119
f 120 188 187
f 184 122 116
f 184 194 122
f 194 121 122
f 194 193 121
f 195 194 184
f 195 184 185
f 196 195 185
f 196 185 186
f 197 188 120
f 197 120 124
f 125 197 124
f 125 198 197
f 197 189 188
f 197 198 189
f 199 191 190
f 199 200 191
f 200 192 191
f 200 201 192
f 193 126 121
f 193 202 126
f 203 195 196
f 203 196 204
f 205 198 125
f 205 125 128
f 206 201 200
f 206 207 201
f 208 126 202
f 208 130 126
f 207 202 201
f 207 208 202
f 205 128 132
f 205 132 209
f 210 132 133
f 210 209 132
f 211 207 206
f 211 212 207
f 208 134 130
f 208 213 134
f 212 208 207
f 212 213 208
f 214 135 134
f 214 134 213
f 210 133 137
f 210 137 216
f 216 137 136
f 216 136 215
f 216 215 209
f 216 209 210
f 214 138 135
f 214 218 138
f 217 214 213
f 217 218 214
f 219 139 138
f 219 138 218
f 215 136 143
f 215 143 221
f 143 142 220
f 143 220 221
f 219 144 139
f 219 222 144
f 223 145 144
f 223 144 222
f 146 145 223
f 146 223 224
f 220 142 147
f 220 147 225
f 226 220 225
f 226 221 220
f 224 148 146
f 224 227 148
f 228 225 147
f 228 147 149
f 149 148 227
f 149 227 228
f 230 150 151
f 230 229 150
f 152 230 151
f 152 231 230
f 232 152 153
f 232 231 152
f 154 232 153
f 154 233 232
f 229 156 150
f 229 238 156
f 238 155 156
f 238 237 155
f 239 238 229
f 239 229 230
f 240 239 230
f 240 230 231
f 241 233 154
f 241 154 159
f 160 241 159
f 160 242 241
f 241 234 233
f 241 242 234
f 243 236 235
f 243 244 236
f 237 161 155
f 237 246 161
f 248 247 238
f 248 238 239
f 249 242 160
f 249 160 163
f 250 245 244
f 250 251 245
f 252 161 246
f 252 164 161
f 252 245 251
f 252 246 245
f 249 163 166
f 249 166 253
f 254 166 167
f 254 253 166
f 255 251 250
f 255 256 251
f 257 164 252
f 257 168 164
f 256 252 251
f 256 257 252
f 254 167 171
f 254 171 259
f 259 171 170
f 259 170 258
f 259 258 253
f 259 253 254
f 257 172 168
f 257 261 172
f 260 257 256
f 260 261 257
f 262 173 172
f 262 172 261
f 174 173 262
f 174 262 263
f 258 170 177
f 258 177 265
f 177 176 264
f 177 264 265
f 266 174 263
f 266 178 174
f 267 179 178
f 267 178 266
f 264 176 181
f 264 181 269
f 181 180 268
f 181 268 269
f 267 182 179
f 267 270 182
f 268 180 183
f 268 183 271
f 183 182 270
f 183 270 271
f 270 267 268
f 270 268 271
f 272 268 271
f 272 269 268
f 278 274 273
f 278 279 274
f 187 281 186
f 187 282 281
f 283 187 188
f 283 282 187
f 283 275 282
f 283 276 275
f 189 283 188
f 189 284 283
f 283 277 276
f 283 284 277
f 285 279 278
f 285 286 279
f 287 190 191
f 287 286 190
f 192 287 191
f 192 288 287
f 290 193 194
f 290 289 193
f 195 290 194
f 195 291 290
f 292 186 281
f 292 196 186
f 292 280 291
f 292 281 280
f 293 284 189
f 293 189 198
f 294 190 286
f 294 199 190
f 295 200 199
f 295 199 294
f 296 288 192
f 296 192 201
f 297 193 289
f 297 202 193
f 202 296 201
f 202 297 296
f 296 289 288
f 296 297 289
f 297 289 290
f 297 290 298
f 291 195 203
f 291 203 299
f 299 298 290
f 299 290 291
f 292 204 196
f 292 300 204
f 300 203 204
f 300 299 203
f 300 291 299
f 300 292 291
f 293 198 205
f 293 205 301
f 295 206 200
f 295 302 206
f 305 304 298
f 305 298 299
f 306 301 205
f 306 205 209
f 307 206 302
f 307 211 206
f 212 211 307
f 212 307 308
f 307 302 303
f 307 303 308
f 309 213 212
f 309 212 308
f 306 209 215
f 306 215 310
f 309 217 213
f 309 312 217
f 311 309 308
f 311 312 309
f 313 218 217
f 313 217 312
f 219 218 313
f 219 313 314
f 310 215 221
f 310 221 315
f 314 222 219
f 314 317 222
f 316 314 313
f 316 317 314
f 318 223 222
f 318 222 317
f 319 224 223
f 319 223 318
f 315 221 226
f 315 226 321
f 226 225 320
f 226 320 321
f 322 224 319
f 322 227 224
f 323 320 225
f 323 225 228
f 228 227 322
f 228 322 323
f 328 325 324
f 328 329 325
f 232 331 231
f 232 332 331
f 333 232 233
f 333 332 232
f 333 326 332
f 333 327 326
f 234 333 233
f 234 334 333
f 335 329 328
f 335 336 329
f 337 235 236
f 337 336 235
f 340 237 238
f 340 339 237
f 342 231 331
f 342 240 231
f 240 341 239
f 240 342 341
f 342 330 341
f 342 331 330
f 343 334 234
f 343 234 242
f 344 235 336
f 344 243 235
f 345 337 236
f 345 236 244
f 345 244 243
f 345 243 344
f 245 345 244
f 245 346 345
f 345 338 337
f 345 346 338
f 339 246 237
f 339 347 246
f 347 245 246
f 347 346 245
f 340 238 247
f 340 247 348
f 348 347 339
f 348 339 340
f 341 248 239
f 341 349 248
f 349 247 248
f 349 348 247
f 343 242 249
f 343 249 350
f 345 250 244
f 345 352 250
f 351 345 344
f 351 352 345
f 353 346 347
f 353 347 354
f 355 348 349
f 355 349 356
f 357 350 249
f 357 249 253
f 358 250 352
f 358 255 250
f 359 256 255
f 359 255 358
f 357 253 258
f 357 258 361
f 359 260 256
f 359 362 260
f 363 261 260
f 363 260 362
f 364 262 261
f 364 261 363
f 365 263 262
f 365 262 364
f 367 361 258
f 367 258 265
f 367 265 264
f 367 264 366
f 367 366 360
f 367 360 361
f 365 266 263
f 365 369 266
f 368 365 364
f 368 369 365
f 267 266 369
f 267 369 370
f 371 268 267
f 371 267 370
f 372 366 264
f 372 264 269
f 371 271 268
f 371 374 271
f 373 371 370
f 373 374 371
f 372 269 272
f 372 272 375
f 272 271 374
f 272 374 375
f 382 273 274
f 382 381 273
f 382 376 381
f 382 377 376
f 383 377 382
f 383 378 377
f 383 379 378
f 383 384 379
f 385 379 384
f 385 380 379
f 388 275 276
f 388 387 275
f 389 276 277
f 389 388 276
f 390 273 381
f 390 278 273
f 391 382 274
f 391 274 279
f 391 383 382
f 391 392 383
f 392 384 383
f 392 393 384
f 397 280 281
f 397 396 280
f 398 275 387
f 398 282 275
f 282 397 281
f 282 398 397
f 398 386 397
f 398 387 386
f 399 398 387
f 399 387 388
f 389 277 284
f 389 284 400
f 399 388 389
f 399 389 400
f 390 285 278
f 390 402 285
f 403 391 279
f 403 279 286
f 403 286 285
f 403 285 402
f 404 286 287
f 404 403 286
f 404 391 403
f 404 392 391
f 405 287 288
f 405 404 287
f 405 392 404
f 405 393 392
f 406 288 289
f 406 405 288
f 405 394 393
f 405 406 394
f 407 394 406
f 407 395 394
f 408 280 396
f 408 291 280
f 408 395 407
f 408 396 395
f 400 284 293
f 400 293 409
f 409 401 400
f 409 410 401
f 403 294 286
f 403 412 294
f 411 403 402
f 411 412 403
f 413 295 294
f 413 294 412
f 414 406 289
f 414 289 297
f 298 414 297
f 298 415 414
f 414 407 406
f 414 415 407
f 416 291 408
f 416 299 291
f 417 409 293
f 417 293 301
f 413 302 295
f 413 419 302
f 418 413 412
f 418 419 413
f 420 303 302
f 420 302 419
f 421 415 298
f 421 298 304
f 416 305 299
f 416 422 305
f 305 421 304
f 305 422 421
f 421 416 415
f 421 422 416
f 423 417 301
f 423 301 306
f 425 303 420
f 425 308 303
f 424 420 419
f 424 425 420
f 426 423 306
f 426 306 310
f 425 311 308
f 425 427 311
f 428 312 311
f 428 311 427
f 429 313 312
f 429 312 428
f 430 426 310
f 430 310 315
f 431 428 427
f 431 432 428
f 429 316 313
f 429 433 316
f 432 429 428
f 432 433 429
f 434 317 316
f 434 316 433
f 318 317 434
f 318 434 435
f 319 318 435
f 319 435 436
f 430 315 321
f 430 321 438
f 438 321 320
f 438 320 437
f 436 322 319
f 436 440 322
f 439 436 435
f 439 440 436
f 441 437 320
f 441 320 323
f 441 323 322
f 441 322 440
f 441 440 436
f 441 436 437
f 449 324 325
f 449 448 324
f 449 442 448
f 449 443 442
f 450 443 449
f 450 444 443
f 451 444 450
f 451 445 444
f 452 445 451
f 452 446 445
f 327 453 326
f 327 454 453
f 456 324 448
f 456 328 324
f 456 447 455
f 456 448 447
f 457 449 325
f 457 325 329
f 457 450 449
f 457 458 450
f 459 450 458
f 459 451 450
f 463 330 331
f 463 462 330
f 464 326 453
f 464 332 326
f 332 463 331
f 332 464 463
f 454 327 333
f 454 333 465
f 464 453 454
f 464 454 465
f 334 465 333
f 334 466 465
f 467 328 456
f 467 335 328
f 468 457 329
f 468 329 336
f 468 336 335
f 468 335 467
f 469 336 337
f 469 468 336
f 338 469 337
f 338 470 469
f 469 459 458
f 469 470 459
f 472 460 471
f 472 461 460
f 473 330 462
f 473 341 330
f 473 461 472
f 473 462 461
f 466 334 343
f 466 343 474
f 476 336 468
f 476 344 336
f 475 468 467
f 475 476 468
f 477 470 338
f 477 338 346
f 477 471 470
f 477 478 471
f 348 478 347
f 348 479 478
f 479 471 478
f 479 472 471
f 473 349 341
f 473 480 349
f 481 474 343
f 481 343 350
f 476 351 344
f 476 482 351
f 483 352 351
f 483 351 482
f 477 346 353
f 477 353 484
f 478 354 347
f 478 485 354
f 354 484 353
f 354 485 484
f 485 477 484
f 485 478 477
f 486 479 348
f 486 348 355
f 487 349 480
f 487 356 349
f 356 486 355
f 356 487 486
f 486 480 479
f 486 487 480
f 488 481 350
f 488 350 357
f 483 358 352
f 483 489 358
f 359 358 489
f 359 489 490
f 492 488 357
f 492 357 361
f 361 360 491
f 361 491 492
f 490 362 359
f 490 493 362
f 494 363 362
f 494 362 493
f 495 364 363
f 495 363 494
f 496 491 360
f 496 360 366
f 497 491 496
f 497 492 491
f 498 494 493
f 498 499 494
f 495 368 364
f 495 500 368
f 499 495 494
f 499 500 495
f 501 369 368
f 501 368 500
f 370 369 501
f 370 501 502
f 496 366 372
f 496 372 504
f 505 496 504
f 505 497 496
f 502 373 370
f 502 506 373
f 507 374 373
f 507 373 506
f 508 504 372
f 508 372 375
f 508 375 374
f 508 374 507
f 508 507 503
f 508 503 504
f 516 376 377
f 516 515 376
f 516 509 515
f 516 510 509
f 517 377 378
f 517 516 377
f 516 511 510
f 516 517 511
f 518 378 379
f 518 517 378
f 517 512 511
f 517 518 512
f 380 518 379
f 380 519 518
f 518 513 512
f 518 519 513
f 521 376 515
f 521 381 376
f 521 514 520
f 521 515 514
f 523 519 380
f 523 380 385
f 385 384 522
f 385 522 523
f 525 386 387
f 525 524 386
f 521 390 381
f 521 526 390
f 522 384 393
f 522 393 527
f 394 527 393
f 394 528 527
f 527 523 522
f 527 528 523
f 529 394 395
f 529 528 394
f 530 395 396
f 530 529 395
f 524 397 386
f 524 531 397
f 531 396 397
f 531 530 396
f 525 387 398
f 525 398 532
f 532 531 524
f 532 524 525
f 399 532 398
f 399 533 532
f 400 533 399
f 400 534 533
f 401 534 400
f 401 535 534
f 526 402 390
f 526 537 402
f 539 408 407
f 539 407 538
f 540 532 533
f 540 533 541
f 541 533 534
f 541 534 542
f 535 401 410
f 535 410 543
f 543 410 409
f 543 409 542
f 543 542 534
f 543 534 535
f 537 411 402
f 537 545 411
f 544 537 536
f 544 545 537
f 546 412 411
f 546 411 545
f 547 538 407
f 547 407 415
f 548 408 539
f 548 416 408
f 416 547 415
f 416 548 547
f 547 539 538
f 547 548 539
f 542 409 417
f 542 417 549
f 546 418 412
f 546 550 418
f 551 419 418
f 551 418 550
f 549 417 423
f 549 423 552
f 551 424 419
f 551 553 424
f 554 425 424
f 554 424 553
f 555 552 423
f 555 423 426
f 554 427 425
f 554 557 427
f 556 554 553
f 556 557 554
f 555 426 430
f 555 430 558
f 557 431 427
f 557 559 431
f 432 431 559
f 432 559 560
f 561 433 432
f 561 432 560
f 562 434 433
f 562 433 561
f 563 435 434
f 563 434 562
f 437 436 564
f 437 564 565
f 566 558 430
f 566 430 438
f 438 437 565
f 438 565 566
f 563 439 435
f 563 567 439
f 568 564 436
f 568 436 440
f 568 440 439
f 568 439 567
f 575 442 443
f 575 574 442
f 576 443 444
f 576 575 443
f 576 569 575
f 576 570 569
f 577 444 445
f 577 576 444
f 576 571 570
f 576 577 571
f 446 577 445
f 446 578 577
f 577 572 571
f 577 578 572
f 580 442 574
f 580 448 442
f 580 447 448
f 580 579 447
f 580 573 579
f 580 574 573
f 582 578 446
f 582 446 452
f 452 451 581
f 452 581 582
f 583 447 579
f 583 455 447
f 584 456 455
f 584 455 583
f 458 457 585
f 458 585 586
f 581 451 459
f 581 459 587
f 588 581 587
f 588 582 581
f 589 460 461
f 589 588 460
f 590 461 462
f 590 589 461
f 591 462 463
f 591 590 462
f 592 463 464
f 592 591 463
f 593 464 465
f 593 592 464
f 466 593 465
f 466 594 593
f 584 467 456
f 584 596 467
f 597 585 457
f 597 457 468
f 598 458 586
f 598 469 458
f 469 597 468
f 469 598 597
f 597 586 585
f 597 598 586
f 599 587 459
f 599 459 470
f 600 460 588
f 600 471 460
f 471 599 470
f 471 600 599
f 600 587 599
f 600 588 587
f 602 473 472
f 602 472 601
f 603 592 593
f 603 593 604
f 594 466 474
f 594 474 605
f 604 593 594
f 604 594 605
f 596 475 467
f 596 607 475
f 606 596 595
f 606 607 596
f 608 476 475
f 608 475 607
f 609 601 472
f 609 472 479
f 610 473 602
f 610 480 473
f 480 609 479
f 480 610 609
f 609 602 601
f 609 610 602
f 605 474 481
f 605 481 611
f 608 482 476
f 608 612 482
f 613 483 482
f 613 482 612
f 611 481 488
f 611 488 614
f 613 489 483
f 613 615 489
f 616 490 489
f 616 489 615
f 614 488 492
f 614 492 617
f 616 493 490
f 616 619 493
f 618 616 615
f 618 619 616
f 617 492 497
f 617 497 620
f 621 493 619
f 621 498 493
f 499 498 621
f 499 621 622
f 623 500 499
f 623 499 622
f 624 501 500
f 624 500 623
f 625 502 501
f 625 501 624
f 627 504 503
f 627 503 626
f 620 497 505
f 620 505 628
f 505 504 627
f 505 627 628
f 629 623 622
f 629 630 623
f 631 502 625
f 631 506 502
f 632 626 503
f 632 503 507
f 632 507 506
f 632 506 631
f 510 633 509
f 510 634 633
f 635 510 511
f 635 634 510
f 636 511 512
f 636 635 511
f 637 512 513
f 637 636 512
f 639 509 633
f 639 515 509
f 639 514 515
f 639 638 514
f 640 639 633
f 640 633 634
f 637 513 519
f 637 519 642
f 641 636 637
f 641 637 642
f 638 520 514
f 638 643 520
f 644 521 520
f 644 520 643
f 644 643 638
f 644 638 639
f 642 519 523
f 642 523 645
f 648 521 644
f 648 526 521
f 647 644 643
f 647 648 644
f 649 645 523
f 649 523 528
f 529 649 528
f 529 650 649
f 649 646 645
f 649 650 646
f 651 529 530
f 651 650 529
f 652 530 531
f 652 651 530
f 653 531 532
f 653 652 531
f 655 526 648
f 655 537 526
f 655 536 537
f 655 654 536
f 656 650 651
f 656 651 657
f 653 532 540
f 653 540 659
f 658 652 653
f 658 653 659
f 660 540 541
f 660 659 540
f 661 541 542
f 661 660 541
f 654 544 536
f 654 662 544
f 663 545 544
f 663 544 662
f 664 546 545
f 664 545 663
f 661 542 549
f 661 549 665
f 666 663 662
f 666 667 663
f 668 546 664
f 668 550 546
f 669 551 550
f 669 550 668
f 665 549 552
f 665 552 670
f 669 553 551
f 669 671 553
f 672 670 552
f 672 552 555
f 671 556 553
f 671 673 556
f 674 557 556
f 674 556 673
f 672 555 558
f 672 558 675
f 674 559 557
f 674 677 559
f 676 674 673
f 676 677 674
f 678 560 559
f 678 559 677
f 679 561 560
f 679 560 678
f 680 562 561
f 680 561 679
f 681 563 562
f 681 562 680
f 565 564 682
f 565 682 683
f 684 675 558
f 684 558 566
f 566 565 683
f 566 683 684
f 685 679 678
f 685 686 679
f 687 679 686
f 687 680 679
f 681 567 563
f 681 688 567
f 687 681 680
f 687 688 681
f 682 564 568
f 682 568 689
f 689 568 567
f 689 567 688
f 691 569 570
f 691 690 569
f 692 570 571
f 692 691 570
f 693 571 572
f 693 692 571
f 695 573 574
f 695 694 573
f 696 569 690
f 696 575 569
f 696 574 575
f 696 695 574
f 698 693 572
f 698 572 578
f 697 692 693
f 697 693 698
f 699 573 694
f 699 579 573
f 700 699 694
f 700 694 695
f 698 578 582
f 698 582 702
f 701 697 698
f 701 698 702
f 699 583 579
f 699 703 583
f 584 583 703
f 584 703 704
f 705 702 582
f 705 582 588
f 589 705 588
f 589 706 705
f 590 706 589
f 590 707 706
f 708 590 591
f 708 707 590
f 709 591 592
f 709 708 591
f 711 584 704
f 711 596 584
f 711 595 596
f 711 710 595
f 712 706 707
f 712 707 713
f 709 592 603
f 709 603 715
f 714 708 709
f 714 709 715
f 716 603 604
f 716 715 603
f 717 604 605
f 717 716 604
f 710 606 595
f 710 718 606
f 719 607 606
f 719 606 718
f 720 608 607
f 720 607 719
f 717 605 611
f 717 611 721
f 722 719 718
f 722 723 719
f 720 612 608
f 720 724 612
f 723 720 719
f 723 724 720
f 725 613 612
f 725 612 724
f 721 611 614
f 721 614 726
f 727 613 725
f 727 615 613
f 726 614 617
f 726 617 728
f 727 618 615
f 727 729 618
f 730 619 618
f 730 618 729
f 728 617 620
f 728 620 731
f 730 621 619
f 730 733 621
f 732 730 729
f 732 733 730
f 734 622 621
f 734 621 733
f 624 623 735
f 624 735 736
f 737 625 624
f 737 624 736
f 627 626 738
f 627 738 739
f 740 731 620
f 740 620 628
f 628 627 739
f 628 739 740
f 734 629 622
f 734 742 629
f 741 734 733
f 741 742 734
f 735 623 630
f 735 630 743
f 743 630 629
f 743 629 742
f 744 735 743
f 744 736 735
f 737 631 625
f 737 745 631
f 744 737 736
f 744 745 737
f 738 626 632
f 738 632 746
f 746 632 631
f 746 631 745
f 635 747 634
f 635 748 747
f 749 635 636
f 749 748 635
f 747 640 634
f 747 751 640
f 640 750 639
f 640 751 750
f 752 751 747
f 752 747 748
f 749 636 641
f 749 641 753
f 754 641 642
f 754 753 641
f 750 644 639
f 750 756 644
f 644 755 643
f 644 756 755
f 757 756 750
f 757 750 751
f 754 642 645
f 754 645 760
f 759 753 754
f 759 754 760
f 761 645 646
f 761 760 645
f 755 647 643
f 755 762 647
f 648 647 762
f 648 762 763
f 762 755 756
f 762 756 763
f 764 763 756
f 764 756 757
f 766 765 758
f 766 758 759
f 761 646 650
f 761 650 768
f 767 760 761
f 767 761 768
f 770 651 652
f 770 769 651
f 772 648 763
f 772 655 648
f 655 771 654
f 655 772 771
f 773 766 767
f 773 767 774
f 768 650 656
f 768 656 775
f 774 767 768
f 774 768 775
f 769 657 651
f 769 776 657
f 776 656 657
f 776 775 656
f 776 768 775
f 776 769 768
f 770 652 658
f 770 658 777
f 778 658 659
f 778 777 658
f 660 778 659
f 660 779 778
f 780 660 661
f 780 779 660
f 771 662 654
f 771 781 662
f 782 781 771
f 782 771 772
f 783 664 663
f 783 663 782
f 780 661 665
f 780 665 785
f 784 779 780
f 784 780 785
f 781 666 662
f 781 786 666
f 787 782 663
f 787 663 667
f 667 666 786
f 667 786 787
f 787 786 781
f 787 781 782
f 783 668 664
f 783 788 668
f 789 669 668
f 789 668 788
f 791 785 665
f 791 665 670
f 790 784 785
f 790 785 791
f 789 671 669
f 789 793 671
f 792 789 788
f 792 793 789
f 791 670 672
f 791 672 795
f 794 790 791
f 794 791 795
f 793 673 671
f 793 797 673
f 796 793 792
f 796 797 793
f 800 795 672
f 800 672 675
f 797 676 673
f 797 801 676
f 802 677 676
f 802 676 801
f 801 797 798
f 801 798 802
f 803 678 677
f 803 677 802
f 683 682 804
f 683 804 805
f 806 800 675
f 806 675 684
f 806 684 683
f 806 683 805
f 806 805 799
f 806 799 800
f 803 685 678
f 803 807 685
f 808 686 685
f 808 685 807
f 687 686 808
f 687 808 809
f 810 688 687
f 810 687 809
f 804 682 689
f 804 689 811
f 811 689 688
f 811 688 810
f 691 812 690
f 691 813 812
f 814 691 692
f 814 813 691
f 812 696 690
f 812 816 696
f 696 815 695
f 696 816 815
f 817 816 812
f 817 812 813
f 814 692 697
f 814 697 818
f 815 700 695
f 815 820 700
f 700 819 699
f 700 820 819
f 821 820 815
f 821 815 816
f 818 697 701
f 818 701 822
f 823 701 702
f 823 822 701
f 819 703 699
f 819 824 703
f 704 703 824
f 704 824 825
f 824 819 820
f 824 820 825
f 826 825 820
f 826 820 821
f 823 702 705
f 823 705 828
f 827 822 823
f 827 823 828
f 706 828 705
f 706 829 828
f 831 707 708
f 831 830 707
f 833 704 825
f 833 711 704
f 711 832 710
f 711 833 832
f 835 834 827
f 835 827 828
f 829 706 712
f 829 712 836
f 835 828 829
f 835 829 836
f 830 713 707
f 830 837 713
f 837 712 713
f 837 836 712
f 837 829 836
f 837 830 829
f 831 708 714
f 831 714 838
f 839 714 715
f 839 838 714
f 840 715 716
f 840 839 715
f 841 716 717
f 841 840 716
f 832 718 710
f 832 842 718
f 843 842 832
f 843 832 833
f 845 839 840
f 845 840 846
f 847 841 717
f 847 717 721
f 847 846 840
f 847 840 841
f 842 722 718
f 842 848 722
f 723 722 848
f 723 848 849
f 849 848 842
f 849 842 843
f 724 723 849
f 724 849 850
f 849 843 844
f 849 844 850
f 851 725 724
f 851 724 850
f 847 721 726
f 847 726 853
f 852 846 847
f 852 847 853
f 851 727 725
f 851 855 727
f 854 851 850
f 854 855 851
f 853 726 728
f 853 728 857
f 857 856 852
f 857 852 853
f 855 729 727
f 855 859 729
f 858 855 854
f 858 859 855
f 857 728 731
f 857 731 861
f 861 860 856
f 861 856 857
f 859 732 729
f 859 862 732
f 863 733 732
f 863 732 862
f 739 738 864
f 739 864 865
f 866 861 731
f 866 731 740
f 866 740 739
f 866 739 865
f 866 865 860
f 866 860 861
f 863 741 733
f 863 867 741
f 868 742 741
f 868 741 867
f 869 743 742
f 869 742 868
f 744 743 869
f 744 869 870
f 871 745 744
f 871 744 870
f 864 738 746
f 864 746 872
f 872 746 745
f 872 745 871
f 874 867 873
f 874 868 867
f 875 870 869
f 875 876 870
f 749 877 748
f 749 878 877
f 877 752 748
f 877 880 752
f 752 879 751
f 752 880 879
f 881 878 749
f 881 749 753
f 881 880 877
f 881 877 878
f 879 757 751
f 879 883 757
f 884 883 879
f 884 879 880
f 885 881 753
f 885 753 759
f 885 759 758
f 885 758 884
f 884 880 881
f 884 881 885
f 886 759 760
f 886 885 759
f 883 764 757
f 883 888 764
f 764 887 763
f 764 888 887
f 888 882 887
f 888 883 882
f 884 758 765
f 884 765 889
f 889 888 883
f 889 883 884
f 885 766 759
f 885 890 766
f 890 765 766
f 890 889 765
f 886 760 767
f 886 767 891
f 891 767 766
f 891 766 890
f 891 890 885
f 891 885 886
f 769 892 768
f 769 893 892
f 770 893 769
f 770 894 893
f 895 763 887
f 895 772 763
f 890 766 773
f 890 773 897
f 897 896 889
f 897 889 890
f 898 773 774
f 898 897 773
f 892 775 768
f 892 899 775
f 899 774 775
f 899 898 774
f 900 899 892
f 900 892 893
f 901 894 770
f 901 770 777
f 902 777 778
f 902 901 777
f 903 778 779
f 903 902 778
f 904 772 895
f 904 782 772
f 783 782 904
f 783 904 905
f 907 906 896
f 907 896 897
f 907 897 898
f 907 898 908
f 909 908 898
f 909 898 899
f 903 779 784
f 903 784 911
f 910 902 903
f 910 903 911
f 905 788 783
f 905 912 788
f 913 906 907
f 913 907 914
f 915 914 907
f 915 907 908
f 917 911 784
f 917 784 790
f 917 916 910
f 917 910 911
f 912 792 788
f 912 918 792
f 917 790 794
f 917 794 921
f 920 916 917
f 920 917 921
f 922 794 795
f 922 921 794
f 923 792 918
f 923 796 792
f 924 797 796
f 924 796 923
f 923 918 919
f 923 919 924
f 798 797 924
f 798 924 925
f 928 927 920
f 928 920 921
f 929 922 795
f 929 795 800
f 929 800 799
f 929 799 928
f 929 928 921
f 929 921 922
f 930 798 925
f 930 802 798
f 803 802 930
f 803 930 931
f 930 925 926
f 930 926 931
f 935 928 799
f 935 799 805
f 935 805 804
f 935 804 934
f 935 934 927
f 935 927 928
f 937 803 931
f 937 807 803
f 938 808 807
f 938 807 937
f 809 808 938
f 809 938 939
f 940 810 809
f 940 809 939
f 940 939 932
f 940 932 933
f 941 934 804
f 941 804 811
f 941 811 810
f 941 810 940
f 941 940 933
f 941 933 934
f 943 936 942
f 943 937 936
f 944 937 943
f 944 938 937
f 814 945 813
f 814 946 945
f 945 817 813
f 945 948 817
f 817 947 816
f 817 948 947
f 946 814 818
f 946 818 949
f 949 948 945
f 949 945 946
f 947 821 816
f 947 950 821
f 951 950 947
f 951 947 948
f 952 949 818
f 952 818 822
f 951 948 949
f 951 949 952
f 950 826 821
f 950 954 826
f 826 953 825
f 826 954 953
f 954 950 951
f 954 951 955
f 952 822 827
f 952 827 956
f 956 955 951
f 956 951 952
f 830 957 829
f 830 958 957
f 959 830 831
f 959 958 830
f 960 825 953
f 960 833 825
f 956 827 834
f 956 834 962
f 961 955 956
f 961 956 962
f 963 834 835
f 963 962 834
f 957 836 829
f 957 964 836
f 964 835 836
f 964 963 835
f 965 964 957
f 965 957 958
f 959 831 838
f 959 838 966
f 965 958 959
f 965 959 966
f 967 838 839
f 967 966 838
f 960 843 833
f 960 968 843
f 844 843 968
f 844 968 969
f 970 961 962
f 970 962 971
f 971 962 963
f 971 963 972
f 973 972 963
f 973 963 964
f 967 839 845
f 967 845 975
f 974 966 967
f 974 967 975
f 976 845 846
f 976 975 845
f 978 844 969
f 978 850 844
f 977 969 968
f 977 978 969
f 979 970 971
f 979 971 980
f 981 980 971
f 981 971 972
f 976 846 852
f 976 852 983
f 982 975 976
f 982 976 983
f 978 854 850
f 978 984 854
f 986 983 852
f 986 852 856
f 985 982 983
f 985 983 986
f 984 858 854
f 984 987 858
f 988 859 858
f 988 858 987
f 986 856 860
f 986 860 991
f 990 985 986
f 990 986 991
f 992 859 988
f 992 862 859
f 863 862 992
f 863 992 993
f 992 988 989
f 992 989 993
f 996 991 860
f 996 860 865
f 996 865 864
f 996 864 995
f 996 995 990
f 996 990 991
f 997 863 993
f 997 867 863
f 869 868 998
f 869 998 999
f 1001 871 870
f 1001 870 1000
f 1002 995 864
f 1002 864 872
f 1002 872 871
f 1002 871 1001
f 1002 1001 994
f 1002 994 995
f 997 873 867
f 997 1003 873
f 998 868 874
f 998 874 1004
f 874 873 1003
f 874 1003 1004
f 999 875 869
f 999 1005 875
f 1005 998 1004
f 1005 999 998
f 1006 1000 870
f 1006 870 876
f 1006 876 875
f 1006 875 1005
f 1006 1005 999
f 1006 999 1000
f 1009 882 883
f 1009 1008 882
f 1011 882 1008
f 1011 887 882
f 1010 1008 1007
f 1010 1011 1008
f 1009 883 888
f 1009 888 1012
f 1011 1008 1009
f 1011 1009 1012
f 1013 888 889
f 1013 1012 888
f 894 1015 893
f 894 1016 1015
f 1017 887 1011
f 1017 895 887
f 1013 889 896
f 1013 896 1019
f 1018 1012 1013
f 1018 1013 1019
f 1021 893 1015
f 1021 900 893
f 900 1020 899
f 900 1021 1020
f 1021 1014 1020
f 1021 1015 1014
f 1016 894 901
f 1016 901 1022
f 1023 901 902
f 1023 1022 901
f 1024 895 1017
f 1024 904 895
f 905 904 1024
f 905 1024 1025
f 1026 1019 896
f 1026 896 906
f 1025 1018 1019
f 1025 1019 1026
f 1020 909 899
f 1020 1028 909
f 909 1027 908
f 909 1028 1027
f 1023 902 910
f 1023 910 1031
f 1030 1022 1023
f 1030 1023 1031
f 1032 905 1025
f 1032 912 905
f 1026 906 913
f 1026 913 1033
f 1032 1025 1026
f 1032 1026 1033
f 1034 913 914
f 1034 1033 913
f 1027 915 908
f 1027 1035 915
f 915 1034 914
f 915 1035 1034
f 1036 1035 1027
f 1036 1027 1028
f 1036 1028 1029
f 1036 1029 1037
f 1039 1031 910
f 1039 910 916
f 1038 1030 1031
f 1038 1031 1039
f 1040 912 1032
f 1040 918 912
f 919 918 1040
f 919 1040 1041
f 1040 1032 1033
f 1040 1033 1041
f 1041 1033 1034
f 1041 1034 1042
f 1039 916 920
f 1039 920 1044
f 1044 1043 1038
f 1044 1038 1039
f 1045 919 1041
f 1045 924 919
f 925 924 1045
f 925 1045 1046
f 1045 1041 1042
f 1045 1042 1046
f 926 925 1046
f 926 1046 1047
f 1050 1044 920
f 1050 920 927
f 1050 1049 1043
f 1050 1043 1044
f 1051 926 1047
f 1051 931 926
f 1053 933 932
f 1053 932 1052
f 1053 1052 1048
f 1053 1048 1049
f 1054 1050 927
f 1054 927 934
f 1054 934 933
f 1054 933 1053
f 1054 1053 1049
f 1054 1049 1050
f 1051 937 931
f 1051 1056 937
f 937 1055 936
f 937 1056 1055
f 1058 1052 932
f 1058 932 939
f 1058 939 938
f 1058 938 1057
f 1055 942 936
f 1055 1059 942
f 943 942 1059
f 943 1059 1060
f 1060 1059 1055
f 1060 1055 1056
f 1057 938 944
f 1057 944 1061
f 944 943 1060
f 944 1060 1061
f 1061 1060 1056
f 1061 1056 1057
f 1064 1063 1062
f 1064 1065 1063
f 1066 953 954
f 1066 1065 953
f 1067 954 955
f 1067 1066 954
f 1071 953 1065
f 1071 960 953
f 1067 955 961
f 1067 961 1073
f 1072 1066 1067
f 1072 1067 1073
f 965 1074 964
f 965 1075 1074
f 1075 1068 1074
f 1075 1069 1068
f 1076 965 966
f 1076 1075 965
f 1075 1070 1069
f 1075 1076 1070
f 1077 960 1071
f 1077 968 960
f 1079 1073 961
f 1079 961 970
f 1078 1072 1073
f 1078 1073 1079
f 1074 973 964
f 1074 1081 973
f 973 1080 972
f 973 1081 1080
f 1076 966 974
f 1076 974 1083
f 1084 974 975
f 1084 1083 974
f 1085 968 1077
f 1085 977 968
f 1086 978 977
f 1086 977 1085
f 1085 1077 1078
f 1085 1078 1086
f 1079 970 979
f 1079 979 1087
f 1086 1078 1079
f 1086 1079 1087
f 980 1087 979
f 980 1088 1087
f 1080 981 972
f 1080 1089 981
f 981 1088 980
f 981 1089 1088
f 1090 1089 1080
f 1090 1080 1081
f 1090 1081 1082
f 1090 1082 1091
f 1084 975 982
f 1084 982 1093
f 1092 1083 1084
f 1092 1084 1093
f 1086 984 978
f 1086 1094 984
f 1094 1086 1087
f 1094 1087 1095
f 1095 1087 1088
f 1095 1088 1096
f 1093 982 985
f 1093 985 1098
f 1098 1097 1092
f 1098 1092 1093
f 1099 984 1094
f 1099 987 984
f 1100 988 987
f 1100 987 1099
f 1099 1094 1095
f 1099 1095 1100
f 989 988 1100
f 989 1100 1101
f 1100 1095 1096
f 1100 1096 1101
f 1104 1098 985
f 1104 985 990
f 1104 1103 1097
f 1104 1097 1098
f 1105 989 1101
f 1105 993 989
f 1108 1107 1102
f 1108 1102 1103
f 1109 1104 990
f 1109 990 995
f 1109 995 994
f 1109 994 1108
f 1109 1108 1103
f 1109 1103 1104
f 1110 993 1105
f 1110 997 993
f 1110 1105 1106
f 1110 1106 1111
f 1000 999 1112
f 1000 1112 1113
f 1114 1108 994
f 1114 994 1001
f 1114 1001 1000
f 1114 1000 1113
f 1114 1113 1107
f 1114 1107 1108
f 1110 1003 997
f 1110 1115 1003
f 1004 1003 1115
f 1004 1115 1116
f 1115 1110 1111
f 1115 1111 1116
f 1112 999 1005
f 1112 1005 1117
f 1117 1005 1004
f 1117 1004 1116
f 1119 1007 1008
f 1119 1118 1007
f 1118 1010 1007
f 1118 1120 1010
f 1119 1008 1011
f 1119 1011 1121
f 1121 1011 1010
f 1121 1010 1120
f 1120 1118 1119
f 1120 1119 1121
f 1122 1011 1012
f 1122 1121 1011
f 1124 1014 1015
f 1124 1123 1014
f 1125 1015 1016
f 1125 1124 1015
f 1121 1017 1011
f 1121 1126 1017
f 1122 1012 1018
f 1122 1018 1127
f 1126 1121 1122
f 1126 1122 1127
f 1128 1014 1123
f 1128 1020 1014
f 1129 1128 1123
f 1129 1123 1124
f 1130 1125 1016
f 1130 1016 1022
f 1129 1124 1125
f 1129 1125 1130
f 1131 1017 1126
f 1131 1024 1017
f 1132 1127 1018
f 1132 1018 1025
f 1132 1025 1024
f 1132 1024 1131
f 1131 1126 1127
f 1131 1127 1132
f 1133 1020 1128
f 1133 1028 1020
f 1029 1028 1133
f 1029 1133 1134
f 1133 1128 1129
f 1133 1129 1134
f 1135 1130 1022
f 1135 1022 1030
f 1134 1129 1130
f 1134 1130 1135
f 1035 1136 1034
f 1035 1137 1136
f 1036 1137 1035
f 1036 1138 1137
f 1134 1037 1029
f 1134 1139 1037
f 1037 1138 1036
f 1037 1139 1138
f 1135 1030 1038
f 1135 1038 1140
f 1139 1134 1135
f 1139 1135 1140
f 1136 1042 1034
f 1136 1141 1042
f 1141 1136 1137
f 1141 1137 1142
f 1140 1038 1043
f 1140 1043 1145
f 1146 1042 1141
f 1146 1046 1042
f 1047 1046 1146
f 1047 1146 1147
f 1146 1141 1142
f 1146 1142 1147
f 1147 1142 1143
f 1147 1143 1148
f 1148 1143 1144
f 1148 1144 1149
f 1150 1145 1043
f 1150 1043 1049
f 1150 1049 1048
f 1150 1048 1149
f 1150 1149 1144
f 1150 1144 1145
f 1147 1051 1047
f 1147 1151 1051
f 1151 1147 1148
f 1151 1148 1152
f 1153 1149 1048
f 1153 1048 1052
f 1153 1152 1148
f 1153 1148 1149
f 1154 1051 1151
f 1154 1056 1051
f 1057 1056 1154
f 1057 1154 1155
f 1153 1052 1058
f 1153 1058 1156
f 1156 1058 1057
f 1156 1057 1155
f 1156 1155 1152
f 1156 1152 1153
f 1063 1157 1062
f 1063 1158 1157
f 1157 1064 1062
f 1157 1159 1064
f 1160 1158 1063
f 1160 1063 1065
f 1160 1065 1064
f 1160 1064 1159
f 1159 1157 1158
f 1159 1158 1160
f 1161 1065 1066
f 1161 1160 1065
f 1163 1068 1069
f 1163 1162 1068
f 1164 1069 1070
f 1164 1163 1069
f 1160 1071 1065
f 1160 1165 1071
f 1161 1066 1072
f 1161 1072 1166
f 1165 1160 1161
f 1165 1161 1166
f 1167 1068 1162
f 1167 1074 1068
f 1168 1167 1162
f 1168 1162 1163
f 1169 1164 1070
f 1169 1070 1076
f 1168 1163 1164
f 1168 1164 1169
f 1170 1071 1165
f 1170 1077 1071
f 1171 1166 1072
f 1171 1072 1078
f 1171 1078 1077
f 1171 1077 1170
f 1170 1165 1166
f 1170 1166 1171
f 1172 1074 1167
f 1172 1081 1074
f 1082 1081 1172
f 1082 1172 1173
f 1172 1167 1168
f 1172 1168 1173
f 1174 1169 1076
f 1174 1076 1083
f 1174 1173 1168
f 1174 1168 1169
f 1089 1175 1088
f 1089 1176 1175
f 1090 1176 1089
f 1090 1177 1176
f 1173 1091 1082
f 1173 1178 1091
f 1091 1177 1090
f 1091 1178 1177
f 1174 1083 1092
f 1174 1092 1179
f 1179 1178 1173
f 1179 1173 1174
f 1175 1096 1088
f 1175 1180 1096
f 1180 1175 1176
f 1180 1176 1181
f 1182 1181 1176
f 1182 1176 1177
f 1184 1179 1092
f 1184 1092 1097
f 1183 1178 1179
f 1183 1179 1184
f 1185 1096 1180
f 1185 1101 1096
f 1189 1184 1097
f 1189 1097 1103
f 1189 1103 1102
f 1189 1102 1188
f 1189 1188 1183
f 1189 1183 1184
f 1190 1101 1185
f 1190 1105 1101
f 1106 1105 1190
f 1106 1190 1191
f 1190 1185 1186
f 1190 1186 1191
f 1191 1186 1187
f 1191 1187 1192
f 1193 1188 1102
f 1193 1102 1107
f 1193 1192 1187
f 1193 1187 1188
f 1194 1106 1191
f 1194 1111 1106
f 1194 1191 1192
f 1194 1192 1195
f 1196 1193 1107
f 1196 1107 1113
f 1196 1113 1112
f 1196 1112 1195
f 1196 1195 1192
f 1196 1192 1193
f 1197 1111 1194
f 1197 1116 1111
f 1198 1195 1112
f 1198 1112 1117
f 1117 1116 1197
f 1117 1197 1198
f 1198 1197 1194
f 1198 1194 1195
f 1138 1199 1137
f 1138 1200 1199
f 1201 1138 1139
f 1201 1200 1138
f 1202 1139 1140
f 1202 1201 1139
f 1203 1137 1199
f 1203 1142 1137
f 1143 1142 1203
f 1143 1203 1204
f 1203 1199 1200
f 1203 1200 1204
f 1144 1143 1204
f 1144 1204 1205
f 1205 1204 1200
f 1205 1200 1201
f 1202 1140 1145
f 1202 1145 1206
f 1206 1145 1144
f 1206 1144 1205
f 1206 1205 1201
f 1206 1201 1202
f 1208 1151 1152
f 1208 1207 1151
f 1207 1154 1151
f 1207 1209 1154
f 1210 1208 1152
f 1210 1152 1155
f 1210 1155 1154
f 1210 1154 1209
f 1209 1207 1208
f 1209 1208 1210
f 1212 1177 1178
f 1212 1211 1177
f 1214 1180 1181
f 1214 1213 1180
f 1211 1182 1177
f 1211 1215 1182
f 1182 1214 1181
f 1182 1215 1214
f 1212 1178 1183
f 1212 1183 1216
f 1216 1215 1211
f 1216 1211 1212
f 1217 1180 1213
f 1217 1185 1180
f 1186 1185 1217
f 1186 1217 1218
f 1218 1217 1213
f 1218 1213 1214
f 1219 1187 1186
f 1219 1186 1218
f 1219 1218 1214
f 1219 1214 1215
f 1220 1216 1183
f 1220 1183 1188
f 1220 1188 1187
f 1220 1187 1219
f 1220 1219 1215
f 1220 1215 1216
