# parsimony mesh: cplx_CPLX0-9749 (source /Users/eranagmon/code/v2e-cplx/workspace/studies/ecoli-3d/viz/3d/structures/cplx_CPLX0-9749.pdb)
# atoms: 31848  voxel: 16 Å  verts: 552  tris: 1106
v 34.5387 11.4599 -137.2615
v 39.3127 11.4599 -137.2615
v 20.5999 23.4767 -138.3383
v 29.4997 18.8676 -139.6399
v 45.1641 19.9982 -139.3263
v 57.1867 25.3610 -137.8156
v 17.3965 35.9539 -139.1971
v 29.9411 35.9539 -142.4972
v 45.9411 35.9539 -141.5376
v 57.7818 35.9539 -138.2374
v 16.8952 51.9539 -139.4155
v 30.4625 52.4461 -139.8925
v 45.9411 47.4208 -138.7275
v 55.8165 45.0895 -137.7033
v 19.9315 61.1720 -138.6295
v 25.4767 61.1720 -138.6295
v 18.2066 8.3402 -125.2990
v 29.4997 8.5083 -129.9008
v 45.1641 9.6162 -128.9953
v 56.7834 10.1868 -123.7898
v 16.0026 18.8676 -129.9008
v 23.8720 12.8100 -135.9656
v 49.9794 14.6944 -134.4565
v 62.3184 19.9608 -129.3824
v 71.9349 25.2272 -124.3083
v 11.3184 35.9539 -128.8035
v 53.5827 43.6041 -121.3278
v 60.9556 39.2325 -127.8481
v 72.3730 35.9539 -124.7384
v 14.1188 51.9539 -128.8035
v 36.1433 58.1075 -135.0992
v 46.5324 51.5985 -128.2135
v 60.5019 44.9738 -127.2699
v 71.1898 44.8582 -122.5453
v 20.1194 61.1123 -128.8035
v 30.4625 61.9754 -129.3809
v 39.4821 61.7785 -124.4326
v 4.1794 -6.5834 -107.0285
v 13.9411 -7.2619 -109.3474
v 29.9411 -5.6583 -108.1871
v 45.9411 -4.3634 -105.3422
v 54.0132 -4.0701 -104.8438
v -10.4125 11.4720 -105.5185
v -1.5159 5.2648 -108.5857
v 13.3004 3.3857 -116.8568
v 29.9411 0.0173 -116.1871
v 45.9411 1.4023 -113.3422
v 57.3250 4.4936 -111.2277
v -11.9570 19.9539 -106.7782
v -2.0589 19.9539 -112.7934
v 7.5239 19.9539 -118.8188
v 66.1169 17.7831 -112.8035
v 71.4944 25.7831 -112.8035
v -12.2361 31.7614 -106.7214
v -1.3846 36.6384 -109.3295
v 12.3739 38.9131 -112.2812
v 23.2351 42.8587 -105.9593
v 53.5827 43.6041 -120.4388
v 60.9765 41.2096 -114.2106
v 71.9329 34.4707 -113.1108
v 4.3983 44.6515 -105.7722
v 14.2606 48.8243 -112.1342
v 25.5120 51.9539 -108.9057
v 49.2270 51.9853 -114.1847
v 60.9765 45.7655 -114.2106
v 71.1898 44.8582 -118.6490
v 21.5217 60.2803 -119.7840
v 30.4214 61.6126 -113.7918
v 40.3172 61.7825 -112.8035
v 4.2158 -6.9628 -96.8035
v 13.9411 -10.4050 -96.8035
v 30.9003 -7.0394 -96.8438
v 45.9411 -4.3634 -102.7828
v 54.0132 -4.0701 -104.7088
v -10.4493 11.4746 -96.8035
v -3.7842 3.4746 -96.8035
v 35.2494 3.9539 -92.9350
v 46.4372 4.3770 -95.2519
v 56.2665 4.3770 -98.3467
v -15.7304 19.9539 -96.8035
v 34.4609 19.9539 -92.6897
v 46.4372 19.9213 -93.0111
v 61.1762 21.1762 -97.6900
v 70.0183 27.7862 -104.7454
v -15.7793 36.6384 -97.5167
v -6.2684 42.4281 -103.3254
v 18.3884 42.8587 -103.6334
v 29.5601 38.9131 -97.4352
v 45.9411 35.9539 -96.1158
v 62.0358 34.4707 -101.0320
v 70.0183 28.1485 -104.7454
v -12.5515 45.5245 -92.6588
v -0.2552 50.4213 -96.2668
v 12.3270 50.8553 -96.4208
v 29.6686 49.5704 -98.3743
v 45.3174 51.9853 -101.2694
v 56.7657 46.6729 -102.0779
v 5.7580 60.0682 -89.2083
v 6.2655 60.0682 -89.2083
v 36.0750 60.5674 -104.0680
v 39.5683 60.5674 -104.0680
v 5.4025 -5.3977 -88.3638
v 13.9411 -7.1893 -86.2899
v 26.2065 -6.8854 -85.8918
v -10.2258 11.7968 -87.8335
v -1.1976 6.1974 -82.7653
v 13.9411 1.3542 -78.2899
v 27.0616 3.8877 -80.6565
v 52.1012 9.9924 -88.1312
v 55.0191 9.9924 -88.1312
v -13.7352 19.3079 -81.8215
v -7.7977 13.5440 -77.1669
v 21.7417 27.8135 -72.9341
v 26.4308 21.4697 -79.2818
v 52.1012 14.5662 -88.1312
v 55.0191 14.5662 -88.1312
v -15.1306 35.3085 -81.2986
v -2.0589 38.6557 -77.5393
v 15.4214 35.5607 -76.2696
v 26.3038 35.9539 -83.0192
v -12.5515 45.5245 -86.9619
v -0.5687 51.2963 -86.0813
v 12.5357 51.8170 -85.6804
v 24.5440 46.3923 -86.2939
v 5.7580 60.0682 -88.6187
v 6.2655 60.0682 -88.6187
v 2.8690 11.2646 -71.4773
v 13.9411 9.3542 -70.3705
v 23.3976 9.1770 -70.8857
v -11.1549 24.2106 -71.7906
v -2.3022 19.3079 -70.5522
v 15.4214 21.4697 -70.0093
v 23.3976 17.1468 -70.8857
v -11.1549 29.5450 -71.7906
v -2.0589 30.6557 -70.9840
v 11.0750 29.9652 -71.3904
v 21.7894 -52.3095 -40.8951
v 22.1037 -52.3095 -40.8951
v 21.7894 -51.9386 -40.8951
v 22.1037 -51.9386 -40.8951
v -74.0938 27.9070 -40.8197
v -74.0133 27.9070 -40.8197
v -74.0938 28.1009 -40.8197
v -74.0133 28.1009 -40.8197
v 21.0348 -100.7277 -25.6634
v 29.9411 -100.8937 -25.9728
v 45.9411 -100.8190 -25.7939
v 55.0122 -100.6281 -25.4249
v 19.7526 -92.0461 -28.1665
v 29.9411 -92.0461 -30.8797
v 45.9411 -92.0461 -29.3692
v 60.9838 -90.7225 -26.5007
v 70.1874 -84.5068 -25.1620
v 18.0437 -76.0461 -29.3376
v 29.9411 -76.0461 -34.9616
v 45.9411 -76.0461 -32.5734
v 62.2050 -76.5883 -26.7353
v 70.1874 -82.2831 -25.1620
v 5.7982 -52.7146 -25.0347
v 14.9395 -57.8454 -31.4631
v 28.4387 -58.6042 -36.4345
v 45.4299 -60.9970 -29.1892
v 57.0476 -66.9643 -25.8160
v 5.7982 -51.9057 -25.0347
v 15.4501 -50.7711 -31.3422
v 28.4387 -49.4455 -32.2336
v 39.7557 -49.6964 -26.5204
v -78.2319 10.1603 -27.2719
v -66.0589 10.4538 -26.7980
v -57.0219 11.7473 -24.9945
v -90.7806 24.8817 -25.8407
v -81.4962 21.0610 -31.8897
v -67.6316 21.5257 -34.2119
v -51.0367 19.3162 -27.5497
v -40.0244 24.2245 -26.8349
v -92.8078 35.9539 -27.2342
v -80.4798 34.4421 -35.4878
v -67.6316 34.4421 -35.4840
v -48.9206 37.3844 -27.9631
v -40.0244 33.0047 -26.8349
v -93.0024 48.8918 -27.0071
v -83.3482 53.3166 -29.5275
v -65.7999 51.6264 -28.7334
v -53.4951 46.0747 -25.6835
v -78.8745 61.1102 -26.5737
v -70.9606 61.1102 -26.5737
v 20.2146 -116.2153 -8.9880
v 22.3646 -116.2153 -8.9880
v 5.5674 -101.8081 -9.0653
v 15.2914 -106.6012 -14.3600
v 28.5952 -108.0638 -15.3142
v 45.9411 -102.6087 -16.8035
v 56.3081 -101.0978 -16.8035
v 3.7758 -92.0461 -9.2917
v 11.7526 -92.0461 -17.2917
v 64.3081 -94.8076 -16.8035
v 72.0358 -86.8076 -16.8035
v 3.7139 -76.0461 -10.2009
v 10.0437 -76.0461 -18.2009
v 67.7143 -71.6164 -23.5494
v 72.8975 -76.5883 -17.6510
v 5.6415 -59.9898 -17.3793
v 8.9432 -59.9898 -17.3793
v 48.6810 -58.1195 -16.8035
v 62.2050 -65.4051 -17.6510
v 72.0754 -66.2131 -12.8828
v 5.7982 -51.9057 -24.4810
v 14.6545 -50.1406 -18.2100
v 29.9411 -44.9961 -16.8035
v 40.6810 -47.2727 -16.8035
v -91.7702 -4.7968 -9.7349
v -86.4903 -4.7968 -9.7349
v -94.6342 3.9539 -12.6167
v -82.3611 3.5739 -16.6789
v -66.0589 5.4793 -16.8035
v -51.0367 9.2998 -17.0925
v -40.6237 10.0697 -11.9518
v -94.9618 19.7106 -17.6952
v -88.8986 14.2151 -23.6230
v -46.3553 13.5578 -22.6184
v -34.9907 20.6308 -15.8405
v -25.9331 27.7038 -9.0627
v -96.9493 35.9539 -16.8035
v -42.8284 43.6714 -24.4598
v -33.9258 36.2674 -16.7613
v -25.9331 28.8634 -9.0627
v -94.1125 50.0506 -16.8035
v -87.6721 58.0506 -16.8035
v -62.0944 55.0668 -16.8035
v -48.9206 47.1184 -18.1973
v -38.4938 45.0775 -13.7932
v -79.6721 62.0830 -16.8035
v -70.0944 62.0830 -16.8035
v 5.8804 -116.1637 6.7002
v 14.5052 -116.7801 0.4987
v 23.4435 -116.8754 -0.8035
v 3.8097 -107.5033 0.4987
v 9.5480 -112.4748 -3.9665
v 31.4435 -111.0512 -0.8035
v 45.9411 -105.5987 -0.8035
v 57.3894 -102.5936 -0.8035
v -13.7027 -87.2787 2.5190
v -4.0619 -92.3857 -2.0100
v 65.0051 -92.3789 -0.4285
v 72.4878 -87.2674 -5.5117
v -26.5307 -70.2462 6.6293
v -18.6452 -75.7662 3.4460
v -4.2861 -76.0461 -5.0662
v 65.7071 -76.0461 3.3012
v 73.4518 -76.0461 -4.6988
v -26.5307 -67.2871 6.6293
v -18.0589 -64.9376 6.0165
v -1.5701 -60.6294 0.2929
v 14.6398 -55.8757 -0.7993
v 29.9411 -54.8922 4.3295
v 44.7876 -54.3132 1.0189
v 60.5963 -61.0528 -0.2410
v 72.0754 -66.2131 -6.6223
v 2.0416 -50.2327 5.0620
v 14.6398 -50.5602 -0.7993
v 29.9411 -48.1662 -3.6705
v 44.7876 -49.7041 1.0189
v 54.7390 -51.3769 6.1403
v -106.7220 -5.5136 5.6489
v -97.4857 -6.8941 -0.1321
v -81.5178 -6.8934 -1.6577
v -66.0589 -5.7826 2.7391
v -56.2332 -4.8951 5.3436
v -122.2740 11.7130 6.8443
v -112.8568 5.4093 3.3744
v -102.6342 3.9539 -5.3169
v -75.8237 -3.0126 -7.5606
v -66.0589 -1.0205 -5.2609
v -49.2285 4.5121 0.8038
v -40.6237 10.0697 -3.7360
v -123.8655 19.9539 5.1969
v -114.0589 19.9539 -0.5309
v -103.6462 19.9539 -6.5313
v -42.2239 16.2150 6.9306
v -35.9984 21.9594 -0.8424
v -25.9331 27.7038 -8.6154
v -124.8554 35.9539 4.7980
v -114.0589 35.9539 0.6501
v -102.2003 35.9539 -4.9514
v -44.6054 38.6655 4.3047
v -34.9334 33.7645 -2.1553
v -25.9331 28.8634 -8.6154
v -123.5938 44.9828 6.3123
v -112.7659 50.9712 5.0112
v -98.8076 51.7248 0.4842
v -82.0601 54.0355 -1.3378
v -66.3462 54.2372 -1.3378
v -49.9868 47.7548 -0.9386
v -38.4938 45.0775 -6.3619
v -106.5707 60.3337 6.8023
v -105.0950 60.3337 6.8023
v -76.7276 61.6364 -7.0273
v -71.8711 61.6364 -7.0273
v 5.8804 -116.1637 7.6501
v 14.3960 -116.8277 13.8687
v 23.5809 -116.9349 15.1965
v 3.2911 -108.4005 13.8687
v 9.3659 -113.9702 18.3168
v 30.1259 -107.9105 14.5438
v 45.9411 -103.8090 10.4808
v 56.4539 -102.6226 9.9967
v -13.7027 -87.2787 12.4399
v -6.2173 -92.3857 16.7426
v 33.5928 -92.0461 19.2179
v 45.9411 -92.0461 15.1793
v 58.2074 -92.0461 11.1579
v -26.5307 -70.2462 8.2038
v -18.2605 -77.0965 15.6552
v -9.9670 -83.9467 23.1066
v 34.8282 -76.0461 19.8192
v 45.9411 -76.0461 14.7598
v 57.7071 -76.0461 10.1371
v -26.5307 -67.2871 8.2038
v -17.7145 -63.9640 14.2008
v -5.8847 -55.5128 15.1965
v 18.1102 -55.2319 15.1965
v 29.8024 -61.4074 15.0249
v 45.0538 -58.8588 10.0187
v 55.9239 -60.0461 8.9388
v 2.1153 -50.3173 15.1965
v 10.1102 -50.3173 15.1965
v 49.7956 -51.3769 8.0804
v 54.7390 -51.3769 8.0804
v -106.7220 -5.5136 8.3586
v -96.6793 -6.6593 14.2937
v -82.0000 -6.6586 16.4256
v -66.0589 -5.7826 11.7355
v -56.2332 -4.8951 8.5334
v -122.2740 11.7130 7.6834
v -112.8254 5.4494 13.3543
v -101.0929 -0.8143 19.0252
v -77.3050 3.9539 21.5473
v -66.0589 3.9539 16.3679
v -52.8134 3.9539 10.0171
v -124.6388 20.2658 13.8887
v -118.9288 15.1403 18.3501
v -75.8185 13.9665 21.6158
v -66.5742 19.5614 18.6260
v -48.5579 20.9106 9.9828
v -42.0397 26.8817 7.2105
v -126.8242 35.9539 15.1965
v -75.3027 42.2944 21.0974
v -66.5742 36.5582 17.8642
v -49.9868 34.3809 9.5320
v -42.0397 27.9989 7.2105
v -123.7607 45.2546 15.1965
v -114.8414 53.2546 15.1965
v -95.5186 56.1333 15.1965
v -81.2052 48.0539 15.5370
v -66.0589 47.2857 10.8767
v -55.2720 47.1355 8.8692
v -106.8414 60.5838 15.1965
v -103.5186 60.5838 15.1965
v 20.0326 -116.2947 23.4685
v 22.5478 -116.2947 23.4685
v 4.7030 -103.3035 25.5110
v 14.6639 -107.2863 29.8231
v 23.1369 -106.7800 29.7597
v 0.7433 -92.2174 30.9852
v 15.1022 -91.7491 37.3092
v 25.2212 -91.5184 32.3431
v -12.1515 -73.2801 25.0806
v -3.1046 -77.9088 30.5264
v 14.9220 -76.7409 35.0746
v 26.8282 -76.0461 28.4622
v -12.1515 -65.3874 25.0806
v -1.1798 -60.0509 25.8658
v 13.9514 -59.1306 26.2014
v 24.3766 -63.8535 25.6398
v 4.7396 -51.5544 23.6521
v 8.6250 -51.5544 23.6521
v -90.4262 -4.4054 23.5419
v -87.2940 -4.4054 23.5419
v -107.8002 10.3196 31.1965
v -96.6793 2.9324 29.8038
v -84.4952 4.2398 29.8038
v -123.9498 25.8070 25.8562
v -115.3975 20.2658 31.1923
v -91.8498 26.4381 37.5960
v -81.4716 20.2023 30.9457
v -72.2510 24.6331 24.2953
v -124.0277 35.9539 25.7522
v -114.0044 35.1790 32.5658
v -97.5334 35.1790 33.9968
v -81.2052 36.5582 27.3314
v -72.2510 31.6278 24.2953
v -122.7931 44.6593 23.9444
v -112.7778 50.7771 24.8608
v -98.2050 52.6869 25.6478
v -85.9694 47.8423 25.2562
v -106.5904 60.4140 23.6811
v -103.6357 60.4140 23.6811
v 19.9619 -100.6025 39.7017
v 22.5391 -100.6025 39.7017
v 3.7577 -86.9982 40.3914
v 15.1022 -91.7491 40.0465
v 22.5391 -96.5000 39.7017
v 3.7577 -82.5374 40.3914
v 10.2426 -82.5374 40.3914
v -106.1774 11.8763 39.2857
v -98.0589 10.2531 40.4412
v -87.1247 9.7637 40.7670
v -108.0797 19.9539 40.1634
v -97.5334 20.6444 40.9123
v -87.1247 15.7714 40.7670
v -108.6348 29.3290 40.3965
v -102.5164 29.3290 40.3965
v 21.2749 26.3849 70.5746
v 29.9411 24.5692 69.8303
v 41.2320 25.0099 69.9967
v 20.9017 35.9539 70.5411
v 29.9411 35.9539 69.3255
v 41.9831 35.9539 69.9809
v 20.6181 51.9539 70.5038
v 29.1612 50.9176 70.3897
v 40.0395 44.8935 70.7754
v 20.8968 60.5952 70.5249
v 23.3079 60.5952 70.5249
v 19.4131 9.8726 84.6641
v 29.9411 9.0208 82.7514
v 45.9411 9.4370 83.0190
v 57.0653 10.4276 85.0208
v 18.0023 20.6125 79.2771
v 29.9411 16.5692 74.7514
v 46.3157 19.7875 75.3291
v 62.2156 19.6170 82.4512
v 71.4480 24.7257 85.0056
v 15.2795 35.9539 79.1965
v 49.9831 35.9539 74.9680
v 61.9411 35.9539 80.8745
v 71.3970 35.9539 85.1030
v 16.0992 51.9539 79.1965
v 33.9745 55.5602 75.0983
v 44.8554 50.0944 80.0996
v 61.9411 44.7689 85.1745
v 70.3753 44.3657 86.5960
v 19.7333 61.2473 79.1965
v 29.1612 61.6097 79.9376
v 39.0047 60.9891 85.7650
v 4.8930 -5.1334 102.1501
v 13.9411 -5.9137 100.8566
v 29.9411 -5.1289 101.5980
v 38.1189 -4.0870 103.1386
v 3.0227 3.9539 101.3278
v 14.0243 4.3051 94.0574
v 29.9411 1.0208 93.5980
v 44.4478 1.6336 96.7618
v 58.8761 8.4257 95.1965
v -10.6817 25.4135 102.6812
v -1.8839 20.4220 102.2162
v 9.3461 20.4398 95.9294
v 66.8761 15.0382 95.1965
v 72.5032 23.0382 95.1965
v -10.6817 29.1453 102.6812
v -6.8659 29.1453 102.6812
v 10.5366 35.9539 95.1965
v 73.2837 35.9539 95.1965
v 14.7036 51.9539 95.1965
v 48.2288 53.8493 95.1965
v 61.9411 46.4640 95.1965
v 70.7216 44.5686 95.1965
v 20.2604 60.9387 95.1965
v 29.9411 62.8032 95.1965
v 40.2288 61.8184 95.1965
v 5.5628 -20.4244 118.6780
v 8.5832 -20.4244 118.6780
v 3.7860 -11.0985 112.4854
v 13.9264 -14.4822 112.4854
v 31.0744 -7.4543 109.9477
v 38.1189 -4.0870 103.7819
v -10.6188 11.2221 117.0582
v -4.0928 5.1148 111.5135
v 37.1633 -0.1909 114.4486
v 44.4478 0.4482 109.9477
v 58.2578 6.6805 111.1965
v -26.5042 27.2163 118.5699
v -15.9836 20.9816 112.4808
v -1.8839 20.4220 105.2732
v 6.8479 26.0971 104.1549
v 64.1766 19.5583 110.5686
v 71.8503 24.6279 104.8167
v -26.5042 30.9582 118.5699
v -17.7916 35.3851 112.3564
v -1.7431 35.0688 106.7496
v 8.1587 35.9539 105.4280
v 62.8899 35.9539 112.7822
v 71.8279 35.9539 104.7822
v -14.2349 45.9320 116.8096
v -1.6757 51.5408 114.8282
v 14.6457 54.0843 110.5491
v 29.9411 54.4659 113.0524
v 45.5332 53.0947 110.6513
v 60.7179 46.3123 109.8929
v 70.5476 44.3617 103.6905
v 3.9131 61.1857 117.6192
v 15.0714 60.6848 110.7661
v 29.9411 61.2144 105.0524
v 39.9278 61.4047 104.9545
v 5.5628 -20.4244 119.7709
v 8.5832 -20.4244 119.7709
v 4.0334 -12.0461 121.1517
v 13.9264 -12.9881 122.4936
v 26.4966 -8.2828 122.0848
v -10.6692 11.2121 127.1965
v -1.7581 4.3357 126.8160
v 13.9411 0.9781 130.8871
v 30.6149 4.4182 126.0818
v 45.9411 7.9553 120.6905
v 56.2409 8.1006 120.9728
v -26.5042 27.2163 120.1421
v -17.9322 21.1113 126.1638
v 33.2723 19.9539 128.2657
v 45.9411 19.9539 121.9161
v 56.1436 19.9539 120.8468
v -26.5042 30.9582 120.1421
v -18.3011 36.4547 126.8499
v -7.2721 41.9512 133.5577
v 32.2144 35.9539 128.8512
v 45.9411 35.9539 121.5602
v 54.8899 35.9539 119.9055
v -14.2349 45.9320 122.8910
v -1.6795 51.2944 128.0123
v 13.9024 53.3864 127.5588
v 28.7700 46.3917 126.1942
v 45.9411 45.9906 120.3346
v 54.5692 45.6245 119.7177
v 3.9131 61.1857 122.4671
v 8.5432 61.1857 122.4671
v -10.3128 11.6966 135.5225
v -0.8356 10.8756 141.7921
v 14.2482 9.2741 144.2145
v 24.0665 9.0274 139.5598
v -11.4806 19.9539 136.4767
v -0.8356 19.5367 144.5616
v 14.2482 19.5367 147.2271
v 25.2723 19.9539 139.8086
v -11.7006 31.2845 136.5774
v -1.9868 36.3522 138.2690
v 13.9411 35.9539 139.6871
v 24.2144 35.9539 136.8822
v 3.3945 45.9901 135.7014
v 13.9411 46.0163 135.9213
v 22.6560 44.6676 135.6579
v 5.3133 11.4553 151.6875
v 9.1196 11.4553 151.6875
v 5.3133 13.9252 151.6875
v 9.1196 13.9252 151.6875
f 4 2 1
f 4 5 2
f 8 3 7
f 8 4 3
f 8 5 4
f 8 9 5
f 9 6 5
f 9 10 6
f 11 8 7
f 11 12 8
f 13 8 12
f 13 9 8
f 14 9 13
f 14 10 9
f 16 11 15
f 16 12 11
f 2 18 1
f 2 19 18
f 22 1 18
f 22 4 1
f 22 3 4
f 22 21 3
f 22 17 21
f 22 18 17
f 23 19 2
f 23 2 5
f 6 23 5
f 6 24 23
f 23 20 19
f 23 24 20
f 26 3 21
f 26 7 3
f 28 24 6
f 28 6 10
f 28 25 24
f 28 29 25
f 30 7 26
f 30 11 7
f 13 12 31
f 13 31 32
f 28 10 14
f 28 14 33
f 14 13 32
f 14 32 33
f 33 32 27
f 33 27 28
f 34 28 33
f 34 29 28
f 35 11 30
f 35 15 11
f 31 12 16
f 31 16 36
f 16 15 35
f 16 35 36
f 37 31 36
f 37 32 31
f 45 38 44
f 45 39 38
f 46 17 18
f 46 45 17
f 46 39 45
f 46 40 39
f 19 46 18
f 19 47 46
f 47 40 46
f 47 41 40
f 20 47 19
f 20 48 47
f 47 42 41
f 47 48 42
f 50 43 49
f 50 44 43
f 51 17 45
f 51 21 17
f 51 44 50
f 51 45 44
f 52 48 20
f 52 20 24
f 25 52 24
f 25 53 52
f 54 50 49
f 54 55 50
f 51 26 21
f 51 56 26
f 55 51 50
f 55 56 51
f 59 28 27
f 59 27 58
f 60 53 25
f 60 25 29
f 56 30 26
f 56 62 30
f 61 56 55
f 61 62 56
f 62 56 57
f 62 57 63
f 64 58 27
f 64 27 32
f 59 33 28
f 59 65 33
f 65 58 64
f 65 59 58
f 66 60 29
f 66 29 34
f 34 33 65
f 34 65 66
f 66 65 59
f 66 59 60
f 67 30 62
f 67 35 30
f 36 35 67
f 36 67 68
f 67 62 63
f 67 63 68
f 64 32 37
f 64 37 69
f 37 36 68
f 37 68 69
f 71 38 39
f 71 70 38
f 40 71 39
f 40 72 71
f 73 40 41
f 73 72 40
f 74 41 42
f 74 73 41
f 76 38 70
f 76 44 38
f 76 43 44
f 76 75 43
f 77 72 73
f 77 73 78
f 79 74 42
f 79 42 48
f 79 78 73
f 79 73 74
f 75 49 43
f 75 80 49
f 82 81 77
f 82 77 78
f 83 79 48
f 83 48 52
f 84 52 53
f 84 83 52
f 80 54 49
f 80 85 54
f 86 55 54
f 86 54 85
f 57 56 87
f 57 87 88
f 89 88 81
f 89 81 82
f 89 82 83
f 89 83 90
f 91 84 53
f 91 53 60
f 60 59 90
f 60 90 91
f 90 83 84
f 90 84 91
f 86 61 55
f 86 93 61
f 92 86 85
f 92 93 86
f 87 56 62
f 87 62 94
f 94 62 61
f 94 61 93
f 95 57 88
f 95 63 57
f 95 87 94
f 95 88 87
f 96 95 88
f 96 88 89
f 97 90 59
f 97 59 65
f 97 65 64
f 97 64 96
f 97 96 89
f 97 89 90
f 98 94 93
f 98 99 94
f 100 63 95
f 100 68 63
f 96 64 69
f 96 69 101
f 69 68 100
f 69 100 101
f 100 95 96
f 100 96 101
f 71 102 70
f 71 103 102
f 104 71 72
f 104 103 71
f 102 76 70
f 102 106 76
f 76 105 75
f 76 106 105
f 107 106 102
f 107 102 103
f 104 72 77
f 104 77 108
f 107 103 104
f 107 104 108
f 79 109 78
f 79 110 109
f 105 80 75
f 105 111 80
f 112 111 105
f 112 105 106
f 108 77 81
f 108 81 114
f 109 82 78
f 109 115 82
f 116 110 79
f 116 79 83
f 116 83 82
f 116 82 115
f 115 109 110
f 115 110 116
f 117 80 111
f 117 85 80
f 120 114 81
f 120 81 88
f 120 119 113
f 120 113 114
f 121 85 117
f 121 92 85
f 122 93 92
f 122 92 121
f 121 117 118
f 121 118 122
f 123 122 118
f 123 118 119
f 124 120 88
f 124 88 95
f 124 95 94
f 124 94 123
f 124 123 119
f 124 119 120
f 122 98 93
f 122 125 98
f 123 94 99
f 123 99 126
f 99 98 125
f 99 125 126
f 125 122 123
f 125 123 126
f 107 127 106
f 107 128 127
f 129 107 108
f 129 128 107
f 127 112 106
f 127 131 112
f 112 130 111
f 112 131 130
f 132 131 127
f 132 127 128
f 129 108 114
f 129 114 133
f 133 114 113
f 133 113 132
f 133 132 128
f 133 128 129
f 134 111 130
f 134 117 111
f 118 117 134
f 118 134 135
f 135 134 130
f 135 130 131
f 136 132 113
f 136 113 119
f 136 119 118
f 136 118 135
f 136 135 131
f 136 131 132
f 139 138 137
f 139 140 138
f 143 142 141
f 143 144 142
f 150 145 149
f 150 146 145
f 151 146 150
f 151 147 146
f 151 148 147
f 151 152 148
f 154 150 149
f 154 155 150
f 156 150 155
f 156 151 150
f 156 152 151
f 156 157 152
f 157 153 152
f 157 158 153
f 161 137 138
f 161 160 137
f 161 154 160
f 161 155 154
f 162 155 161
f 162 156 155
f 163 156 162
f 163 157 156
f 165 137 160
f 165 139 137
f 165 159 164
f 165 160 159
f 161 138 140
f 161 140 166
f 166 140 139
f 166 139 165
f 167 161 166
f 167 162 161
f 173 141 142
f 173 172 141
f 173 168 172
f 173 169 168
f 173 170 169
f 173 174 170
f 177 141 172
f 177 143 141
f 177 171 176
f 177 172 171
f 178 173 142
f 178 142 144
f 178 144 143
f 178 143 177
f 178 174 173
f 178 179 174
f 179 175 174
f 179 180 175
f 182 176 181
f 182 177 176
f 183 177 182
f 183 178 177
f 184 178 183
f 184 179 178
f 186 182 185
f 186 183 182
f 191 145 146
f 191 190 145
f 190 188 187
f 190 191 188
f 192 146 147
f 192 191 146
f 148 192 147
f 148 193 192
f 195 145 190
f 195 149 145
f 195 189 194
f 195 190 189
f 196 193 148
f 196 148 152
f 153 196 152
f 153 197 196
f 195 154 149
f 195 199 154
f 198 195 194
f 198 199 195
f 197 153 158
f 197 158 201
f 158 157 200
f 158 200 201
f 203 154 199
f 203 160 154
f 203 159 160
f 203 202 159
f 202 199 198
f 202 203 199
f 200 157 163
f 200 163 205
f 163 162 204
f 163 204 205
f 206 200 205
f 206 201 200
f 207 159 202
f 207 164 159
f 208 165 164
f 208 164 207
f 207 202 203
f 207 203 208
f 166 165 208
f 166 208 209
f 204 162 167
f 204 167 210
f 167 166 209
f 167 209 210
f 213 212 211
f 213 214 212
f 215 168 169
f 215 214 168
f 170 215 169
f 170 216 215
f 219 168 214
f 219 172 168
f 219 171 172
f 219 218 171
f 219 213 218
f 219 214 213
f 220 216 170
f 220 170 174
f 175 220 174
f 175 221 220
f 220 217 216
f 220 221 217
f 223 171 218
f 223 176 171
f 225 221 175
f 225 175 180
f 180 179 224
f 180 224 225
f 226 221 225
f 226 222 221
f 223 181 176
f 223 227 181
f 228 182 181
f 228 181 227
f 224 179 184
f 224 184 230
f 184 183 229
f 184 229 230
f 231 224 230
f 231 225 224
f 228 185 182
f 228 232 185
f 229 183 186
f 229 186 233
f 186 185 232
f 186 232 233
f 236 187 188
f 236 235 187
f 238 187 235
f 238 190 187
f 238 189 190
f 238 237 189
f 238 234 237
f 238 235 234
f 239 236 188
f 239 188 191
f 240 191 192
f 240 239 191
f 193 240 192
f 193 241 240
f 243 189 237
f 243 194 189
f 241 193 196
f 241 196 244
f 245 196 197
f 245 244 196
f 248 194 243
f 248 198 194
f 248 242 247
f 248 243 242
f 245 197 201
f 245 201 250
f 249 244 245
f 249 245 250
f 252 246 251
f 252 247 246
f 253 198 248
f 253 202 198
f 252 248 247
f 252 253 248
f 254 203 202
f 254 202 253
f 257 205 204
f 257 204 256
f 250 201 206
f 250 206 258
f 258 206 205
f 258 205 257
f 258 257 249
f 258 249 250
f 254 208 203
f 254 260 208
f 259 254 253
f 259 260 254
f 261 209 208
f 261 208 260
f 260 254 255
f 260 255 261
f 256 204 210
f 256 210 262
f 210 209 261
f 210 261 262
f 262 261 255
f 262 255 256
f 263 256 262
f 263 257 256
f 266 211 212
f 266 265 211
f 271 211 265
f 271 213 211
f 271 264 270
f 271 265 264
f 272 266 212
f 272 212 214
f 215 272 214
f 215 273 272
f 272 267 266
f 272 273 267
f 216 273 215
f 216 274 273
f 273 268 267
f 273 274 268
f 217 274 216
f 217 275 274
f 277 269 276
f 277 270 269
f 278 213 271
f 278 218 213
f 278 270 277
f 278 271 270
f 280 275 217
f 280 217 221
f 279 274 275
f 279 275 280
f 281 221 222
f 281 280 221
f 283 276 282
f 283 277 276
f 278 223 218
f 278 284 223
f 283 278 277
f 283 284 278
f 281 222 226
f 281 226 287
f 226 225 286
f 226 286 287
f 286 280 281
f 286 281 287
f 288 283 282
f 288 289 283
f 284 227 223
f 284 290 227
f 289 284 283
f 289 290 284
f 291 228 227
f 291 227 290
f 293 230 229
f 293 229 292
f 294 286 225
f 294 225 231
f 294 231 230
f 294 230 293
f 294 293 285
f 294 285 286
f 296 289 295
f 296 290 289
f 297 228 291
f 297 232 228
f 298 292 229
f 298 229 233
f 233 232 297
f 233 297 298
f 298 297 291
f 298 291 292
f 300 234 235
f 300 299 234
f 236 300 235
f 236 301 300
f 302 234 299
f 302 237 234
f 303 302 299
f 303 299 300
f 301 236 239
f 301 239 304
f 305 239 240
f 305 304 239
f 306 240 241
f 306 305 240
f 302 243 237
f 302 308 243
f 308 242 243
f 308 307 242
f 309 304 305
f 309 305 310
f 311 306 241
f 311 241 244
f 310 305 306
f 310 306 311
f 307 247 242
f 307 313 247
f 247 312 246
f 247 313 312
f 314 313 307
f 314 307 308
f 315 309 310
f 315 310 316
f 311 244 249
f 311 249 317
f 316 310 311
f 316 311 317
f 312 251 246
f 312 318 251
f 252 251 318
f 252 318 319
f 319 318 312
f 319 312 313
f 320 253 252
f 320 252 319
f 255 254 321
f 255 321 322
f 323 256 255
f 323 255 322
f 322 315 316
f 322 316 323
f 317 249 257
f 317 257 324
f 324 323 316
f 324 316 317
f 320 259 253
f 320 325 259
f 321 254 260
f 321 260 326
f 326 260 259
f 326 259 325
f 327 256 323
f 327 262 256
f 324 257 263
f 324 263 328
f 263 262 327
f 263 327 328
f 327 323 324
f 327 324 328
f 265 329 264
f 265 330 329
f 266 330 265
f 266 331 330
f 332 266 267
f 332 331 266
f 333 267 268
f 333 332 267
f 329 270 264
f 329 335 270
f 270 334 269
f 270 335 334
f 336 335 329
f 336 329 330
f 337 331 332
f 337 332 338
f 339 333 268
f 339 268 274
f 338 332 333
f 338 333 339
f 334 276 269
f 334 340 276
f 341 340 334
f 341 334 335
f 342 337 338
f 342 338 343
f 339 274 279
f 339 279 344
f 343 338 339
f 343 339 344
f 345 279 280
f 345 344 279
f 340 282 276
f 340 346 282
f 349 348 343
f 349 343 344
f 350 345 280
f 350 280 286
f 350 286 285
f 350 285 349
f 350 349 344
f 350 344 345
f 346 288 282
f 346 351 288
f 352 289 288
f 352 288 351
f 291 290 353
f 291 353 354
f 355 292 291
f 355 291 354
f 355 354 347
f 355 347 348
f 356 349 285
f 356 285 293
f 356 293 292
f 356 292 355
f 356 355 348
f 356 348 349
f 352 295 289
f 352 357 295
f 353 290 296
f 353 296 358
f 296 295 357
f 296 357 358
f 301 359 300
f 301 360 359
f 359 303 300
f 359 362 303
f 303 361 302
f 303 362 361
f 360 301 304
f 360 304 363
f 363 362 359
f 363 359 360
f 361 308 302
f 361 364 308
f 365 364 361
f 365 361 362
f 363 304 309
f 363 309 366
f 364 314 308
f 364 368 314
f 314 367 313
f 314 368 367
f 370 366 309
f 370 309 315
f 369 365 366
f 369 366 370
f 367 319 313
f 367 371 319
f 320 319 371
f 320 371 372
f 371 367 368
f 371 368 372
f 372 368 369
f 372 369 373
f 374 370 315
f 374 315 322
f 374 322 321
f 374 321 373
f 374 373 369
f 374 369 370
f 375 320 372
f 375 325 320
f 376 373 321
f 376 321 326
f 326 325 375
f 326 375 376
f 375 372 373
f 375 373 376
f 331 377 330
f 331 378 377
f 377 336 330
f 377 380 336
f 336 379 335
f 336 380 379
f 378 331 337
f 378 337 381
f 381 380 377
f 381 377 378
f 379 341 335
f 379 383 341
f 341 382 340
f 341 383 382
f 381 337 342
f 381 342 385
f 386 342 343
f 386 385 342
f 382 346 340
f 382 387 346
f 388 387 382
f 388 382 383
f 390 389 384
f 390 384 385
f 391 386 343
f 391 343 348
f 391 348 347
f 391 347 390
f 390 385 386
f 390 386 391
f 392 346 387
f 392 351 346
f 352 351 392
f 352 392 393
f 392 387 388
f 392 388 393
f 393 388 389
f 393 389 394
f 395 390 347
f 395 347 354
f 395 354 353
f 395 353 394
f 395 394 389
f 395 389 390
f 396 352 393
f 396 357 352
f 397 394 353
f 397 353 358
f 358 357 396
f 358 396 397
f 396 393 394
f 396 394 397
f 363 398 362
f 363 399 398
f 398 365 362
f 398 401 365
f 365 400 364
f 365 401 400
f 399 363 366
f 399 366 402
f 402 366 365
f 402 365 401
f 402 401 398
f 402 398 399
f 403 364 400
f 403 368 364
f 404 401 365
f 404 365 369
f 369 368 403
f 369 403 404
f 404 403 400
f 404 400 401
f 406 379 380
f 406 405 379
f 407 380 381
f 407 406 380
f 408 379 405
f 408 383 379
f 409 408 405
f 409 405 406
f 407 381 385
f 407 385 410
f 410 385 384
f 410 384 409
f 410 409 406
f 410 406 407
f 411 383 408
f 411 388 383
f 412 409 384
f 412 384 389
f 389 388 411
f 389 411 412
f 412 411 408
f 412 408 409
f 417 413 416
f 417 414 413
f 417 415 414
f 417 418 415
f 420 416 419
f 420 417 416
f 421 417 420
f 421 418 417
f 423 419 422
f 423 420 419
f 429 413 414
f 429 428 413
f 429 424 428
f 429 425 424
f 415 429 414
f 415 430 429
f 429 426 425
f 429 430 426
f 430 427 426
f 430 431 427
f 433 413 428
f 433 416 413
f 434 430 415
f 434 415 418
f 434 431 430
f 434 435 431
f 435 432 431
f 435 436 432
f 437 416 433
f 437 419 416
f 434 418 421
f 434 421 439
f 421 420 438
f 421 438 439
f 440 434 439
f 440 435 434
f 440 436 435
f 440 441 436
f 442 419 437
f 442 422 419
f 438 420 423
f 438 423 443
f 423 422 442
f 423 442 443
f 444 438 443
f 444 439 438
f 449 446 445
f 449 450 446
f 451 424 425
f 451 450 424
f 451 446 450
f 451 447 446
f 426 451 425
f 426 452 451
f 451 448 447
f 451 452 448
f 453 426 427
f 453 452 426
f 456 424 450
f 456 428 424
f 456 449 455
f 456 450 449
f 457 453 427
f 457 427 431
f 432 457 431
f 432 458 457
f 460 454 459
f 460 455 454
f 461 428 456
f 461 433 428
f 462 458 432
f 462 432 436
f 463 433 461
f 463 437 433
f 440 439 464
f 440 464 465
f 462 436 441
f 462 441 466
f 441 440 465
f 441 465 466
f 467 437 463
f 467 442 437
f 443 442 467
f 443 467 468
f 464 439 444
f 464 444 469
f 444 443 468
f 444 468 469
f 446 472 445
f 446 473 472
f 473 470 472
f 473 471 470
f 474 446 447
f 474 473 446
f 475 447 448
f 475 474 447
f 477 445 472
f 477 449 445
f 479 475 448
f 479 448 452
f 478 474 475
f 478 475 479
f 480 452 453
f 480 479 452
f 483 449 477
f 483 455 449
f 483 454 455
f 483 482 454
f 483 476 482
f 483 477 476
f 484 456 455
f 484 455 483
f 485 480 453
f 485 453 457
f 486 457 458
f 486 485 457
f 482 459 454
f 482 488 459
f 488 481 487
f 488 482 481
f 483 455 460
f 483 460 489
f 489 460 459
f 489 459 488
f 484 461 456
f 484 490 461
f 489 484 483
f 489 490 484
f 486 458 462
f 486 462 492
f 491 485 486
f 491 486 492
f 493 489 488
f 493 494 489
f 490 463 461
f 490 495 463
f 494 490 489
f 494 495 490
f 498 465 464
f 498 464 497
f 499 492 462
f 499 462 466
f 499 466 465
f 499 465 498
f 499 498 491
f 499 491 492
f 495 467 463
f 495 501 467
f 500 495 494
f 500 501 495
f 502 468 467
f 502 467 501
f 501 495 496
f 501 496 502
f 503 497 464
f 503 464 469
f 503 469 468
f 503 468 502
f 503 502 496
f 503 496 497
f 471 504 470
f 471 505 504
f 506 470 504
f 506 472 470
f 507 505 471
f 507 471 473
f 506 504 505
f 506 505 507
f 508 473 474
f 508 507 473
f 506 477 472
f 506 510 477
f 510 476 477
f 510 509 476
f 511 510 506
f 511 506 507
f 508 474 478
f 508 478 512
f 511 507 508
f 511 508 512
f 513 478 479
f 513 512 478
f 480 513 479
f 480 514 513
f 516 476 509
f 516 482 476
f 516 481 482
f 516 515 481
f 517 512 513
f 517 513 518
f 519 514 480
f 519 480 485
f 518 513 514
f 518 514 519
f 515 487 481
f 515 520 487
f 488 487 520
f 488 520 521
f 521 520 515
f 521 515 516
f 524 523 517
f 524 517 518
f 519 485 491
f 519 491 525
f 525 524 518
f 525 518 519
f 521 493 488
f 521 526 493
f 494 493 526
f 494 526 527
f 526 521 522
f 526 522 527
f 496 495 528
f 496 528 529
f 530 497 496
f 530 496 529
f 530 529 523
f 530 523 524
f 531 525 491
f 531 491 498
f 531 498 497
f 531 497 530
f 531 530 524
f 531 524 525
f 532 494 527
f 532 500 494
f 533 528 495
f 533 495 501
f 533 501 500
f 533 500 532
f 532 527 528
f 532 528 533
f 510 534 509
f 510 535 534
f 511 535 510
f 511 536 535
f 537 511 512
f 537 536 511
f 538 509 534
f 538 516 509
f 538 534 535
f 538 535 539
f 537 512 517
f 537 517 541
f 541 540 536
f 541 536 537
f 542 516 538
f 542 521 516
f 522 521 542
f 522 542 543
f 542 538 539
f 542 539 543
f 544 543 539
f 544 539 540
f 545 541 517
f 545 517 523
f 544 540 541
f 544 541 545
f 546 522 543
f 546 527 522
f 528 527 546
f 528 546 547
f 546 543 544
f 546 544 547
f 548 545 523
f 548 523 529
f 548 529 528
f 548 528 547
f 548 547 544
f 548 544 545
f 536 549 535
f 536 550 549
f 551 535 549
f 551 539 535
f 552 550 536
f 552 536 540
f 540 539 551
f 540 551 552
