# parsimony mesh: cplx_CPLX0-12491 (source /Users/eranagmon/code/v2e-cplx/workspace/studies/ecoli-3d/viz/3d/structures/cplx_CPLX0-12491.pdb)
# atoms: 5345  voxel: 16 Å  verts: 147  tris: 284
v 28.9644 1.1237 -62.8499
v 29.4844 1.1237 -62.8499
v -3.0774 16.9945 -63.1220
v 5.2323 17.0244 -63.0548
v 22.6715 10.8498 -63.3074
v 30.6055 9.2837 -63.4209
v -3.5517 25.2837 -63.5198
v 5.2323 25.2837 -64.4821
v 20.5219 24.7156 -63.9531
v 30.8111 19.0036 -63.5084
v -3.5033 33.7097 -63.3681
v 5.2323 34.0871 -64.1229
v 14.7149 33.9290 -63.9261
v 26.3403 0.1780 -54.6956
v 31.5711 0.1780 -54.6956
v -4.6438 15.0202 -54.6956
v 5.2323 12.3592 -54.6956
v 18.3403 6.6227 -54.6956
v 38.4506 9.0477 -54.4480
v 47.6238 14.2237 -48.9497
v -19.0967 32.6730 -47.2030
v -11.1099 26.5173 -53.4001
v 23.6686 28.5497 -54.6956
v 36.9110 24.7944 -54.3570
v 48.0018 25.2837 -50.1877
v -19.0967 34.4394 -47.2030
v -9.6091 35.3483 -53.4001
v 5.2323 35.9549 -54.6956
v 15.6686 34.2410 -54.6956
v 43.0109 34.1745 -49.0976
v 46.5334 34.1745 -49.0976
v 12.0442 0.7740 -33.1403
v 21.9401 0.3718 -37.3217
v 32.0986 -0.0305 -41.5032
v -5.5954 13.7902 -38.6956
v 6.1194 5.9940 -38.5624
v 21.9401 2.2659 -37.3217
v 37.3521 3.5870 -37.1801
v 49.1814 12.0709 -38.6956
v -19.0967 32.6730 -46.0544
v -9.9862 27.5853 -38.4157
v -2.6596 33.1644 -30.7770
v 25.6648 30.5851 -43.8076
v 32.3443 30.5851 -43.8076
v 52.0410 25.2837 -38.6956
v -19.0967 34.4394 -46.0544
v -10.7677 35.5449 -42.2758
v 3.6972 35.5076 -37.1444
v 20.6918 34.9953 -38.5628
v 37.4995 35.1332 -38.5628
v 48.0920 34.8415 -38.6956
v 12.0442 0.7740 -28.9498
v 18.2359 0.7740 -28.9498
v -4.1701 15.4014 -22.6956
v 6.1194 7.4499 -23.2481
v 22.6345 5.1881 -23.2481
v 36.1853 11.1818 -23.0340
v 48.1062 13.3933 -28.5929
v -4.1701 24.4532 -22.6956
v 3.6972 31.3422 -22.6505
v 21.2323 28.6533 -18.8414
v 36.1853 24.4565 -20.4276
v 49.2715 25.2837 -27.6585
v 8.0071 34.4998 -27.9537
v 21.2323 34.9499 -26.8414
v 37.2323 34.9275 -27.4377
v 47.7441 34.4700 -28.7488
v -3.0590 16.7032 -14.3084
v 5.2323 14.4384 -13.0893
v 21.2323 14.0723 -13.0469
v 30.1539 16.2151 -14.2518
v -3.0590 21.6290 -14.3084
v 5.2323 22.9464 -13.0893
v 21.2323 20.6533 -13.0469
v 30.1539 18.5716 -14.2518
v 25.1751 -64.7167 32.5723
v 29.8531 -64.7167 32.5723
v 25.1751 -61.6103 32.5723
v 29.8531 -61.6103 32.5723
v -68.8437 15.6126 31.9067
v -64.6925 15.6126 31.9067
v -69.1892 25.2837 31.8256
v -64.5194 25.2837 31.8256
v -67.9203 33.9273 32.7304
v -65.8451 33.9273 32.7304
v -3.5068 -79.5866 48.3414
v 5.2323 -81.0496 46.2593
v 21.2323 -82.3752 44.6614
v 32.4107 -81.3541 46.2108
v -3.5068 -75.9050 48.3414
v 4.6625 -70.6295 44.0187
v 20.3980 -70.3165 36.3403
v 33.2490 -70.3165 41.0482
v 9.6160 -60.2316 44.5550
v 20.3980 -59.6165 40.0548
v 31.8694 -60.7051 41.3044
v -85.1397 14.2979 46.7687
v -74.4133 11.5187 41.3830
v -59.1226 11.5257 41.6960
v -49.7740 14.3095 47.2904
v -85.2515 25.2837 46.3349
v -77.1892 25.2837 38.3349
v -57.6834 24.6869 41.6960
v -49.7740 18.9557 47.2904
v -83.7075 34.0783 47.8807
v -73.8593 34.6638 42.0502
v -64.9686 34.4129 41.3044
v -3.4514 -79.5215 57.3044
v 5.2323 -82.3676 57.3044
v 21.2323 -83.8501 57.3044
v 32.0751 -81.0040 57.3044
v -3.4514 -76.2609 57.3044
v 1.6253 -68.2609 57.3044
v 34.5170 -70.7163 57.3044
v 9.6253 -60.3925 57.3044
v 21.2323 -58.9948 57.3044
v 31.6742 -61.3186 57.3044
v -86.2926 12.4792 57.3044
v -74.7677 7.8759 57.3044
v -58.8539 11.8166 57.6611
v -49.7740 14.3095 52.5655
v -86.1515 25.4091 56.8250
v -78.0774 30.8260 61.8388
v -57.7533 24.6869 57.6611
v -49.7740 18.9557 52.5655
v -83.7075 34.0783 51.1721
v -73.5535 34.3963 56.8250
v -65.3920 34.0785 57.3044
v -2.9401 -78.9196 65.4899
v 5.2323 -80.0343 66.5478
v 21.2323 -80.1912 66.7036
v 29.8444 -79.1287 65.6976
v -2.9401 -78.2537 65.4899
v 6.1165 -72.0387 66.7080
v 21.2323 -70.7163 67.4520
v 29.9617 -70.7163 65.8366
v 12.0393 -62.1026 65.9859
v 21.2323 -62.0401 66.0528
v 29.5928 -62.4284 65.6208
v -85.0956 13.8636 67.0625
v -74.7677 13.8288 67.1787
v -64.2447 16.0974 66.0454
v -85.0956 20.1593 67.0625
v -73.5535 25.4091 66.9489
v -64.6068 25.2837 66.0414
v -67.4107 33.4813 65.5461
v -66.4095 33.4813 65.5461
f 6 1 5
f 6 2 1
f 8 3 7
f 8 4 3
f 9 4 8
f 9 5 4
f 10 5 9
f 10 6 5
f 11 8 7
f 11 12 8
f 13 8 12
f 13 9 8
f 15 1 2
f 15 14 1
f 17 3 4
f 17 16 3
f 14 5 1
f 14 18 5
f 18 4 5
f 18 17 4
f 15 2 6
f 15 6 19
f 16 7 3
f 16 22 7
f 19 6 10
f 19 10 24
f 10 9 23
f 10 23 24
f 24 20 19
f 24 25 20
f 22 11 7
f 22 27 11
f 27 21 26
f 27 22 21
f 28 12 11
f 28 11 27
f 23 9 13
f 23 13 29
f 13 12 28
f 13 28 29
f 30 25 24
f 30 31 25
f 34 14 15
f 34 33 14
f 17 35 16
f 17 36 35
f 37 14 33
f 37 18 14
f 18 36 17
f 18 37 36
f 37 32 36
f 37 33 32
f 34 15 19
f 34 19 38
f 37 33 34
f 37 34 38
f 20 38 19
f 20 39 38
f 35 22 16
f 35 41 22
f 22 40 21
f 22 41 40
f 44 24 23
f 44 23 43
f 45 39 20
f 45 20 25
f 40 26 21
f 40 46 26
f 47 27 26
f 47 26 46
f 47 46 40
f 47 40 41
f 28 27 47
f 28 47 48
f 47 41 42
f 47 42 48
f 43 23 29
f 43 29 49
f 29 28 48
f 29 48 49
f 44 30 24
f 44 50 30
f 49 44 43
f 49 50 44
f 45 25 31
f 45 31 51
f 51 31 30
f 51 30 50
f 53 32 33
f 53 52 32
f 52 36 32
f 52 55 36
f 55 35 36
f 55 54 35
f 53 33 37
f 53 37 56
f 56 55 52
f 56 52 53
f 38 56 37
f 38 57 56
f 58 38 39
f 58 57 38
f 59 35 54
f 59 41 35
f 42 41 59
f 42 59 60
f 58 39 45
f 58 45 63
f 62 57 58
f 62 58 63
f 64 42 60
f 64 48 42
f 49 48 64
f 49 64 65
f 64 60 61
f 64 61 65
f 66 50 49
f 66 49 65
f 66 65 61
f 66 61 62
f 67 63 45
f 67 45 51
f 67 51 50
f 67 50 66
f 66 62 63
f 66 63 67
f 69 54 55
f 69 68 54
f 70 55 56
f 70 69 55
f 71 56 57
f 71 70 56
f 72 54 68
f 72 59 54
f 73 60 59
f 73 59 72
f 73 72 68
f 73 68 69
f 61 60 73
f 61 73 74
f 74 73 69
f 74 69 70
f 71 57 62
f 71 62 75
f 75 62 61
f 75 61 74
f 74 70 71
f 74 71 75
f 78 77 76
f 78 79 77
f 83 80 82
f 83 81 80
f 85 82 84
f 85 83 82
f 90 87 86
f 90 91 87
f 91 88 87
f 91 92 88
f 77 92 76
f 77 93 92
f 93 88 92
f 93 89 88
f 95 76 92
f 95 78 76
f 94 92 91
f 94 95 92
f 96 93 77
f 96 77 79
f 96 79 78
f 96 78 95
f 81 98 80
f 81 99 98
f 102 80 98
f 102 82 80
f 102 97 101
f 102 98 97
f 103 99 81
f 103 81 83
f 104 99 103
f 104 100 99
f 102 84 82
f 102 106 84
f 105 102 101
f 105 106 102
f 107 103 83
f 107 83 85
f 107 85 84
f 107 84 106
f 109 86 87
f 109 108 86
f 110 87 88
f 110 109 87
f 89 110 88
f 89 111 110
f 112 86 108
f 112 90 86
f 113 91 90
f 113 90 112
f 114 111 89
f 114 89 93
f 113 94 91
f 113 115 94
f 116 95 94
f 116 94 115
f 117 114 93
f 117 93 96
f 96 95 116
f 96 116 117
f 119 97 98
f 119 118 97
f 99 119 98
f 99 120 119
f 100 120 99
f 100 121 120
f 122 97 118
f 122 101 97
f 121 100 104
f 121 104 125
f 104 103 124
f 104 124 125
f 125 124 120
f 125 120 121
f 126 101 122
f 126 105 101
f 106 105 126
f 106 126 127
f 126 122 123
f 126 123 127
f 128 124 103
f 128 103 107
f 128 107 106
f 128 106 127
f 109 129 108
f 109 130 129
f 131 109 110
f 131 130 109
f 132 110 111
f 132 131 110
f 133 108 129
f 133 112 108
f 113 112 133
f 113 133 134
f 133 129 130
f 133 130 134
f 134 130 131
f 134 131 135
f 132 111 114
f 132 114 136
f 135 131 132
f 135 132 136
f 137 113 134
f 137 115 113
f 116 115 137
f 116 137 138
f 137 134 135
f 137 135 138
f 139 136 114
f 139 114 117
f 139 117 116
f 139 116 138
f 139 138 135
f 139 135 136
f 141 118 119
f 141 140 118
f 142 119 120
f 142 141 119
f 143 118 140
f 143 122 118
f 123 122 143
f 123 143 144
f 143 140 141
f 143 141 144
f 142 120 124
f 142 124 145
f 144 141 142
f 144 142 145
f 146 123 144
f 146 127 123
f 145 124 128
f 145 128 147
f 128 127 146
f 128 146 147
f 146 144 145
f 146 145 147
