# parsimony mesh: cplx_TATABCE-CPLX (source /Users/eranagmon/code/v2e-cplx/workspace/studies/ecoli-3d/viz/3d/structures/cplx_TATABCE-CPLX.pdb)
# atoms: 3824  voxel: 8 Å  verts: 670  tris: 1340
v 68.4743 59.1928 -161.5256
v 69.2279 59.1928 -161.5256
v 68.4743 59.6959 -161.5256
v 69.2279 59.6959 -161.5256
v 68.4743 59.1928 -160.8826
v 69.2279 59.1928 -160.8826
v 68.4743 59.6959 -160.8826
v 72.2887 62.8189 -157.3460
v 77.4854 65.9419 -153.8094
v 75.3495 68.1718 -153.8094
v 77.4854 68.1718 -153.8094
v 74.4921 65.5578 -149.3141
v 79.2654 65.5578 -149.3141
v 73.9697 71.0400 -149.2934
v 79.9345 71.0400 -149.2934
v 67.6063 81.9449 -146.0359
v 72.4879 79.3038 -147.1610
v 78.7321 79.3422 -147.0814
v 67.6063 84.9865 -146.0359
v 72.6399 85.5700 -146.6486
v 77.4392 84.6683 -146.3717
v 75.0666 66.3632 -143.6823
v 79.2952 66.3632 -143.6823
v 74.2699 71.3422 -142.1445
v 80.1241 71.3422 -142.1445
v 59.8619 81.0194 -138.3746
v 64.8198 80.4537 -141.1504
v 72.4879 77.3404 -140.5575
v 78.3838 78.8352 -140.5575
v 59.8619 84.8913 -138.3746
v 65.1440 87.6056 -140.8714
v 72.0711 88.4981 -140.9466
v 77.3270 84.5539 -141.3141
v 68.0151 91.5325 -138.0348
v 69.0252 91.5325 -138.0348
v 51.9865 65.3451 -130.7786
v 56.6399 65.3429 -130.8313
v 61.2477 66.6736 -129.8725
v 51.9865 69.9742 -130.7786
v 55.8575 72.1214 -131.9211
v 61.6082 71.3422 -131.4744
v 58.1286 78.7485 -133.9073
v 64.2499 77.8976 -133.9073
v 72.0761 81.1843 -134.0111
v 76.7568 81.1638 -137.1425
v 59.4789 85.2415 -133.3141
v 63.7553 89.2415 -133.3141
v 72.4835 86.7159 -134.0111
v 76.7568 83.6317 -137.1425
v 67.7553 91.8430 -133.3141
v 69.1492 91.8430 -133.3141
v 52.5826 51.2778 -121.3603
v 52.8289 51.2778 -121.3603
v 51.5404 55.3422 -123.0016
v 54.2580 55.3422 -123.0016
v 50.8141 62.9439 -125.8364
v 57.0996 63.3426 -125.8903
v 61.2477 66.6736 -128.2628
v 51.4141 70.3912 -125.3141
v 56.2948 71.9538 -124.2921
v 61.7726 71.3593 -125.4833
v 57.9243 78.8998 -125.8094
v 63.9466 79.4781 -126.2235
v 69.0335 83.0181 -128.9740
v 59.8699 84.3254 -128.8063
v 65.1071 87.1322 -128.6362
v 69.1554 87.3422 -128.8476
v 68.0853 91.8196 -129.0322
v 68.9337 91.8196 -129.0322
v 51.4445 42.1675 -113.9936
v 54.3519 42.1675 -113.9936
v 50.9269 48.1036 -116.9218
v 54.9797 48.1036 -116.9218
v 49.6569 55.3422 -117.3141
v 56.3883 55.3422 -117.3141
v 50.6606 63.1762 -117.4547
v 55.2964 63.1762 -117.4547
v 51.6589 68.7757 -120.2151
v 56.8894 71.4065 -120.5045
v 61.2368 74.0373 -120.7939
v 59.5214 75.9382 -120.7939
v 61.2368 75.9382 -120.7939
v 51.2920 34.2943 -106.8089
v 53.7863 34.2943 -106.8089
v 50.1723 39.4374 -109.4110
v 55.2894 39.4374 -109.4110
v 50.0197 47.8508 -108.8590
v 55.8008 47.8508 -108.8590
v 50.7564 55.3422 -110.8161
v 54.7702 55.3422 -110.8161
v 51.7308 60.3989 -112.0753
v 53.4815 60.3989 -112.0753
v 51.2061 34.3021 -101.3141
v 53.9852 34.3021 -101.3141
v 50.5512 38.9172 -101.1820
v 54.6507 38.9172 -101.1820
v 51.0705 45.5232 -103.7606
v 54.1974 45.5232 -103.7606
v 52.0761 35.0033 -97.1141
v 53.2873 35.0033 -97.1141
v 52.0761 35.9672 -97.1141
v 53.2873 35.9672 -97.1141
v -124.1239 74.1305 -42.3836
v -119.3601 74.0832 -42.4183
v -114.6772 74.8752 -41.7169
v -124.1239 76.9622 -42.3836
v -119.3601 77.1750 -42.4183
v -114.6772 76.1659 -41.7169
v -124.1239 74.1305 -40.3926
v -119.0614 73.8932 -37.5612
v -111.7503 74.2912 -37.0475
v -106.4221 74.7939 -34.2031
v -124.1239 76.9622 -40.3926
v -119.0614 77.4176 -37.5612
v -111.7503 77.6559 -37.0475
v -103.8877 79.8963 -34.0557
v -98.8592 82.4332 -33.9084
v -100.9561 87.3422 -33.8162
v -98.8929 87.3422 -33.8162
v -99.4949 91.5184 -33.3892
v -99.2380 91.5184 -33.3892
v -116.1956 74.6059 -32.6544
v -111.3601 74.3787 -32.1690
v -106.4221 74.7939 -32.4471
v -116.1956 76.3575 -32.6544
v -111.3601 77.6165 -32.1690
v -103.8877 79.8963 -32.4915
v -98.8592 82.4332 -32.5358
v -101.2321 87.5926 -29.6472
v -98.3239 87.5926 -29.6472
v -100.1681 94.6479 -28.7537
v -98.2527 94.6479 -28.7537
v -99.5800 100.0358 -25.7134
v -98.7406 100.0358 -25.7134
v -100.3521 90.4262 -24.5365
v -98.2560 90.4262 -24.5365
v -100.2690 95.3422 -24.3242
v -98.0674 95.3422 -24.3242
v -99.5800 100.0358 -24.7719
v -95.6093 102.6614 -21.5970
v -90.7633 105.2871 -18.4222
v -92.4780 108.0585 -18.4222
v -90.7633 108.0585 -18.4222
v 67.3295 -85.3645 -9.9366
v 72.6399 -85.4121 -9.9308
v 76.8642 -84.9569 -9.5139
v 67.3295 -83.3100 -9.9366
v 72.6399 -83.4387 -9.9308
v 76.8642 -84.3801 -9.5139
v -68.3213 51.1839 -9.4526
v -66.7622 51.1839 -9.4526
v -76.3197 57.6028 -10.1980
v -71.1368 55.0985 -10.5102
v -66.0402 55.3422 -10.1463
v -76.3197 60.1993 -10.1980
v -71.3601 60.7736 -10.7054
v -66.1981 60.3936 -10.2852
v -93.4541 105.1902 -13.3141
v -90.4524 105.1902 -13.3141
v -93.4541 108.4347 -13.3141
v -90.4524 108.4347 -13.3141
v 66.4784 -85.6042 -5.3141
v 72.6399 -86.7048 -5.3141
v 79.9745 -85.8802 -4.9445
v 86.6835 -85.2277 -2.0313
v 51.6893 -77.6209 -1.9548
v 56.6399 -78.7780 -2.7836
v 64.5323 -80.9158 -5.4687
v 72.6399 -79.4387 -6.9338
v 79.9745 -81.2912 -5.7355
v 89.0661 -80.3826 -2.2873
v 92.7418 -77.5325 -1.4029
v 51.6893 -75.1498 -1.9548
v 56.4460 -72.5530 -3.8262
v 64.6399 -72.6578 -5.9245
v 72.7839 -72.9031 -3.1761
v 80.6399 -75.3947 -2.3029
v 88.6399 -76.0168 -1.9927
v 92.7418 -76.5627 -1.4029
v 58.9834 -67.3389 -3.5417
v 64.6399 -67.0308 -3.6926
v 70.2133 -67.8074 -2.2579
v -68.2919 51.1241 -5.3141
v -63.8014 50.9853 -5.1463
v -58.9612 51.0381 -2.3678
v -84.3320 57.4873 -2.5254
v -79.1359 56.4475 -5.2409
v -72.2919 53.1150 -5.3141
v -62.0402 55.3422 -6.9945
v -58.4144 55.3422 -2.9945
v -84.3320 61.0347 -2.5254
v -79.1359 61.9635 -5.2409
v -71.3601 63.0347 -5.3141
v -63.4629 61.3475 -5.2263
v -58.4980 60.4374 -2.5010
v -93.6627 104.9042 -5.3141
v -90.2698 104.9042 -5.3141
v -93.6627 108.6973 -5.3141
v -90.2698 108.6973 -5.3141
v 44.4958 -84.8974 6.5879
v 48.6399 -85.0956 6.2876
v 56.6399 -85.2364 5.0549
v 64.4970 -85.7300 2.4410
v 72.6399 -87.4006 2.6859
v 80.6399 -87.0771 2.6859
v 89.0661 -86.0175 2.2379
v 96.6399 -86.0619 4.5955
v 101.0596 -85.1919 5.9787
v 44.4432 -80.6578 6.4504
v 48.8696 -80.4357 3.0376
v 56.6399 -82.7780 1.0549
v 61.7351 -83.8550 -0.3889
v 92.2773 -79.8309 2.6003
v 94.9693 -80.2749 2.8809
v 101.0596 -84.0847 5.9787
v 44.5218 -76.4734 6.4699
v 48.8696 -74.3120 3.3563
v 54.9359 -69.8639 2.6859
v 75.5466 -70.4000 -0.1969
v 80.7512 -71.4857 2.5562
v 90.4410 -73.4976 4.3570
v 92.7362 -73.6254 3.5806
v 58.9359 -67.6209 2.6859
v 64.6399 -66.0957 2.6859
v 72.7839 -66.8311 2.5562
v 78.1587 -67.6469 5.1364
v 92.2115 -68.5699 6.5666
v 92.7306 -68.5699 6.5666
v -67.6413 51.2097 -0.9702
v -62.8207 51.0040 2.0922
v -58.9162 51.0188 2.6859
v -92.2061 58.8030 5.9623
v -87.1432 57.1536 3.0518
v -79.1957 56.7391 2.7957
v -70.5521 55.7290 2.2827
v -65.1278 53.3459 4.3631
v -56.8728 55.3422 2.6859
v -92.3030 63.3422 5.9676
v -87.1432 63.5577 2.3973
v -79.7276 63.7647 3.0158
v -71.0217 61.3594 2.7957
v -62.8876 64.1250 3.0819
v -57.4362 63.1993 3.0819
v -91.7712 67.6800 6.4517
v -87.3601 67.8768 5.8678
v -83.0356 67.7172 5.8294
v -59.9059 67.6563 6.0127
v -58.8781 67.6563 6.0127
v -92.3525 98.7224 4.2975
v -90.4802 98.7224 4.2975
v -93.2081 102.6804 2.0529
v -90.0036 102.6804 2.0529
v -92.9258 108.4457 2.6859
v -90.3243 108.4457 2.6859
v 75.7954 -100.9443 14.3034
v 77.1336 -100.9443 14.3034
v 36.3610 -93.2390 14.0034
v 40.6399 -93.3699 13.8608
v 45.2870 -93.0261 14.2682
v 68.1909 -93.6515 14.0732
v 72.9332 -96.4540 13.3828
v 80.1361 -96.2167 13.3367
v 85.6455 -93.2559 13.9963
v 36.3610 -91.1414 14.0034
v 40.8325 -88.0194 11.4691
v 48.2282 -88.6848 11.2353
v 56.6399 -86.3658 10.6859
v 65.1705 -89.0236 11.1183
v 72.6399 -90.1079 9.3439
v 80.6399 -89.7733 9.2862
v 88.4433 -89.7345 11.0721
v 96.7071 -86.6400 10.4633
v 101.0596 -85.1919 7.6482
v 43.2001 -80.3632 10.2772
v 45.7601 -77.5001 12.6714
v 91.7921 -76.9911 10.6859
v 96.7071 -81.3806 10.4633
v 101.0596 -84.0847 7.6482
v 44.5218 -76.4734 7.3381
v 48.5120 -74.7691 10.2772
v 57.0706 -70.3643 10.2647
v 64.6399 -70.2191 11.9384
v 70.8499 -70.2654 13.0580
v 82.1301 -71.2047 10.6859
v 89.6861 -73.2690 9.0621
v 92.7306 -70.6880 6.8971
v 60.0244 -68.5941 7.3172
v 64.6399 -67.7226 7.9384
v 73.1659 -67.1775 10.5091
v 78.1301 -67.6948 10.6859
v 92.2115 -68.5699 6.8971
v 92.7306 -68.5699 6.8971
v -61.6527 50.8986 10.6859
v -58.5487 50.8986 10.6859
v -92.7919 58.8475 10.6859
v -88.0387 58.1943 10.5989
v -81.7528 58.0887 7.8743
v -68.1295 58.6792 7.0219
v -64.6892 55.7444 10.0875
v -56.7914 55.3422 10.6859
v -100.7595 65.0007 13.5042
v -95.9522 62.7373 10.7769
v -85.8245 61.1465 13.2076
v -81.9399 63.6248 10.5989
v -68.1295 59.6895 7.0219
v -62.5455 62.4386 9.7962
v -57.6650 62.8495 10.2167
v -100.7595 69.0765 13.5042
v -94.8068 69.4330 10.7769
v -87.3601 69.2906 10.6859
v -82.7903 67.9778 10.6859
v -59.9059 67.6563 7.2372
v -58.8781 67.6563 7.2372
v -92.5343 98.3900 10.6859
v -87.6322 98.3924 11.2459
v -83.1072 99.0288 14.2860
v -92.7144 103.3838 10.6405
v -87.9831 102.9101 11.1148
v -83.1072 99.7420 14.2860
v -92.0517 107.7470 7.9436
v -90.8192 107.7470 7.9436
v 28.6296 -100.7087 22.6742
v 32.6399 -101.9118 21.8687
v 38.3650 -102.2789 21.6080
v 75.7954 -100.9443 15.4549
v 77.1336 -100.9443 15.4549
v 28.6296 -100.6302 22.6742
v 33.1541 -96.9346 19.4744
v 40.8749 -97.5555 18.8391
v 45.9936 -94.3440 18.6859
v 67.7172 -94.8144 18.6859
v 72.9332 -98.2476 18.3473
v 80.1361 -97.1516 18.3473
v 85.9484 -93.4444 18.6859
v 35.4112 -90.3881 18.6859
v 38.0053 -86.3881 18.6859
v 49.9936 -90.1861 18.6859
v 56.6399 -87.1745 18.6859
v 63.7172 -89.6462 18.6859
v 83.9484 -85.9680 21.8044
v 88.1789 -88.6954 18.7424
v 94.0853 -86.0894 15.6805
v 42.0933 -80.3632 18.4379
v 45.7601 -77.5001 15.6058
v 83.9484 -82.4145 21.8044
v 88.1605 -79.6892 18.7424
v 94.0853 -82.2973 15.6805
v 43.9084 -75.9326 20.9392
v 48.5120 -75.0755 18.4379
v 56.6399 -71.6463 18.6859
v 64.6399 -70.8808 18.6859
v 73.1659 -70.5543 18.6133
v 80.1208 -72.0762 18.6133
v 85.9208 -76.3605 18.6859
v 76.1832 -68.3847 15.8983
v 77.1080 -68.3847 15.8983
v -99.7489 34.9497 22.2880
v -95.3601 34.7713 22.2920
v -90.9183 34.9735 22.5586
v -100.8498 39.3422 21.9528
v -94.5601 40.1421 22.0230
v -90.9183 38.0087 22.5586
v -101.7613 47.3422 21.4488
v -96.0295 47.3422 21.4488
v -62.0703 50.4311 18.6859
v -58.3621 50.4311 18.6859
v -108.0484 57.8470 21.1616
v -103.5225 55.2451 19.8257
v -95.1257 57.0049 17.9878
v -91.1578 59.2218 14.9664
v -61.8232 54.7721 18.1344
v -58.2733 54.7721 18.1344
v -108.1251 63.3422 20.9867
v -103.3997 62.7373 16.8227
v -94.9495 61.7673 18.2843
v -88.0387 63.6248 16.6277
v -82.9248 66.4799 15.3529
v -59.8517 59.8544 15.1001
v -58.8793 59.8544 15.1001
v -107.6919 67.8990 21.9445
v -103.3997 69.8131 19.0411
v -94.8491 70.3265 19.2591
v -87.3601 68.7560 16.9027
v -82.9248 67.8147 15.3529
v -91.9333 98.6924 15.8238
v -87.3900 97.4855 18.5686
v -82.3835 97.5086 18.6859
v -91.9333 100.7448 15.8238
v -87.3900 101.0356 18.5686
v -82.3835 100.4069 18.6859
v 36.1930 -108.9230 29.7150
v 37.0033 -108.9230 29.7150
v 28.2271 -101.3785 26.6859
v 33.1718 -105.4071 26.9034
v 38.3421 -104.8305 26.9034
v 67.2067 -101.7021 28.7397
v 70.1515 -101.7021 28.7397
v 28.2271 -100.0955 26.6859
v 32.6243 -96.3182 26.8851
v 40.5434 -97.0230 27.0182
v 48.9620 -93.6714 27.3866
v 53.6009 -92.8051 30.4216
v 66.0530 -96.9868 26.3182
v 72.7469 -98.4150 26.3182
v 80.2250 -94.3564 26.1297
v 85.3789 -93.1084 23.0923
v 35.2805 -91.1479 24.3513
v 40.3110 -88.7533 27.0182
v 48.9620 -91.4632 27.3866
v 56.4165 -90.2301 27.3273
v 62.4812 -90.6908 26.6859
v 81.9492 -88.6439 26.1297
v 85.3789 -91.3014 23.0923
v 41.0670 -80.6578 26.6859
v 67.5841 -77.2452 30.1619
v 72.6399 -78.3581 29.1292
v 80.7434 -80.3760 25.9389
v 84.7093 -77.0811 22.7434
v 43.5605 -75.6824 26.6859
v 48.6399 -73.2084 26.6859
v 56.6399 -71.1332 26.6859
v 64.8064 -73.0931 27.1715
v 72.6399 -73.8228 25.1292
v 80.6399 -75.1817 23.5654
v 84.7093 -76.5961 22.7434
v -91.4427 27.2802 30.4814
v -89.3154 27.2802 30.4814
v -99.7489 34.9497 25.3152
v -95.3879 32.2949 27.8983
v -87.4502 31.2200 27.3967
v -82.8751 32.7998 29.6454
v -100.7677 38.5763 27.4635
v -95.3466 39.3705 26.6672
v -87.8950 40.1421 25.0903
v -82.7819 39.3422 29.6913
v -102.8431 47.3422 26.6859
v -92.3628 47.5570 25.8859
v -87.3601 44.8033 28.4717
v -83.0742 43.5991 30.4003
v -60.3513 50.5917 23.0936
v -58.9183 50.5917 23.0936
v -108.0540 57.7905 26.6859
v -102.8734 56.1380 28.3612
v -96.4613 56.0977 27.4313
v -60.3513 51.7253 23.0936
v -58.9183 51.7253 23.0936
v -108.1143 63.5282 26.9251
v -102.6666 63.5282 29.5116
v -96.8444 63.3422 25.9191
v -107.6919 67.8990 24.4178
v -103.3601 69.1301 25.2863
v -97.1751 69.1692 24.4211
v -84.7918 97.0591 26.6859
v -82.0066 97.0591 26.6859
v -84.7918 100.3326 26.6859
v -82.0066 100.3326 26.6859
v 36.1930 -108.9230 30.8873
v 37.0033 -108.9230 30.8873
v 28.0998 -101.5678 31.3716
v 33.1718 -104.4038 31.5127
v 37.4738 -104.6578 31.2052
v 66.8745 -101.5210 34.6859
v 69.8853 -101.5210 34.6859
v 28.0998 -99.9357 31.3716
v 32.6399 -99.2541 31.5684
v 37.3884 -99.5083 31.1769
v 50.7488 -93.5664 34.6859
v 56.4165 -94.7414 34.1934
v 62.7693 -97.2145 34.1934
v 73.6823 -96.6214 34.5610
v 77.2818 -93.9305 31.8111
v 41.5405 -87.3707 34.6859
v 46.7488 -91.3707 34.6859
v 58.9342 -92.0951 31.1984
v 61.2095 -92.0951 31.1984
v 74.2638 -88.6578 36.1422
v 77.7952 -88.6578 32.1422
v 39.7781 -80.6578 34.6859
v 67.7553 -77.1390 34.6859
v 72.2929 -81.2506 34.3758
v 77.5385 -83.6708 31.5024
v 42.8330 -73.1126 34.9051
v 48.2391 -71.4974 34.9051
v 56.6399 -73.3313 34.6859
v 63.7553 -75.3502 34.6859
v 43.9782 -68.2509 37.7179
v 45.3051 -68.2509 37.7179
v -91.4427 27.2802 30.7719
v -89.3154 27.2802 30.7719
v -93.0248 32.1216 33.9375
v -86.9333 30.2011 33.9375
v -82.4515 32.9416 34.6859
v -99.7199 40.7323 31.0353
v -96.4594 38.5763 34.0955
v -80.8285 39.3422 34.6859
v -100.4420 47.3422 31.6994
v -94.6529 47.2954 34.0282
v -87.3601 46.7468 34.6859
v -81.7370 44.8169 34.6859
v -107.5969 58.7685 30.9812
v -102.6569 56.3516 31.3345
v -97.4721 53.9347 31.6878
v -107.5969 60.9856 30.9812
v -104.8711 60.9856 30.9812
v -92.8051 98.1699 37.6428
v -86.8756 97.9898 34.8600
v -82.6922 98.5309 34.6859
v -92.8051 100.0848 37.6428
v -86.8756 100.0324 34.8600
v -82.6922 99.6480 34.6859
v 67.7192 -100.7644 38.8529
v 68.7889 -100.7644 38.8529
v 43.1213 -93.3799 45.0546
v 48.2352 -94.3746 42.5071
v 56.6399 -96.4691 42.6859
v 64.5414 -96.7958 42.2252
v 69.8092 -96.6578 39.9949
v 41.5332 -89.0076 42.5071
v 45.2987 -91.9074 39.7213
v 66.6968 -90.4943 45.5976
v 70.0173 -88.1597 42.8329
v 41.4591 -80.5608 42.6155
v 46.8927 -77.8295 45.2353
v 58.9621 -78.0226 45.4323
v 65.3658 -78.8916 42.7337
v 69.3041 -82.4265 42.6859
v 42.9121 -72.6578 39.9691
v 48.7656 -73.6491 42.2080
v 56.4333 -76.0953 42.7337
v 63.1830 -76.4044 40.0990
v 43.9782 -68.2509 39.1808
v 45.3051 -68.2509 39.1808
v -91.4121 35.3079 38.7279
v -87.3601 34.8227 39.9584
v -82.6336 34.6838 40.3405
v -91.7544 39.3422 39.4646
v -86.8977 39.5884 43.5017
v -81.4393 39.5884 42.8787
v -91.8337 44.2240 39.6821
v -86.7479 47.3045 42.4561
v -79.4560 47.6521 42.5164
v -74.8826 50.2525 45.1361
v -84.2396 52.5642 45.2301
v -78.9007 55.2754 44.6555
v -74.8111 55.3422 45.2397
v -75.9277 60.8580 46.3075
v -75.1056 60.8580 46.3075
v -99.5219 99.0494 46.2657
v -95.4271 98.3878 43.2338
v -88.1004 98.4621 41.9524
v -83.2249 99.1733 38.7968
v -99.5219 99.5741 46.2657
v -95.4271 100.0253 43.2338
v -88.1004 99.9504 41.9524
v -83.2249 99.4493 38.7968
v 27.7247 -93.4857 54.1624
v 32.6399 -94.5776 53.0317
v 40.5288 -94.5690 50.4766
v 48.6108 -94.1749 51.1106
v 56.6399 -93.9751 48.3918
v 61.3635 -93.3392 46.9193
v 27.7247 -91.6715 54.1624
v 33.3492 -88.8660 53.2577
v 38.3941 -88.6578 49.2933
v 50.8683 -88.6578 53.8886
v 56.6399 -88.6578 50.2037
v 64.2741 -88.1597 47.0034
v 68.7704 -85.1610 46.7949
v 36.4888 -84.6059 54.5112
v 40.5544 -83.5488 51.3811
v 49.2762 -81.0929 50.5327
v 56.4333 -80.6767 48.2142
v 64.6399 -83.4095 46.9077
v 68.7704 -84.2952 46.7949
v 52.2260 -76.5328 46.8172
v 53.6288 -76.5328 46.8172
v -83.9228 42.4193 47.0676
v -82.7634 42.4193 47.0676
v -84.4418 47.3422 48.7378
v -80.1132 47.9623 50.7205
v -74.6630 50.2724 50.6859
v -84.0116 54.8878 51.4514
v -82.0287 54.8878 51.4514
v -73.7943 55.3422 50.6859
v -107.5513 67.2275 54.5813
v -106.2613 67.2275 54.5813
v -84.2360 63.3422 53.5798
v -78.5099 63.9444 51.2818
v -74.4914 62.2456 50.6859
v -107.8299 71.3422 54.2925
v -103.5008 71.6189 54.3286
v -98.7575 74.4700 54.6149
v -84.1046 67.9570 54.0343
v -81.0921 67.9570 54.0343
v -107.7953 75.8711 54.2659
v -103.3601 75.8044 54.3177
v -98.7575 75.4296 54.6149
v -107.8083 90.8592 54.3869
v -106.9219 90.8592 54.3869
v -107.7694 95.3422 54.3728
v -103.2219 96.2373 51.8105
v -95.8103 98.7409 49.9677
v -91.2606 99.2166 46.8222
v -107.4577 99.4572 54.5674
v -102.6572 100.3035 51.4148
v -95.8103 100.3329 49.9677
v -91.2606 99.5061 46.8222
v 27.3608 -94.2514 58.6859
v 32.8856 -94.9718 58.9249
v 40.6399 -94.5052 56.2397
v 45.9246 -93.3892 55.0260
v 27.3608 -91.1899 58.6859
v 33.4357 -89.0125 58.2725
v 40.6399 -88.6578 56.4981
v 46.8683 -88.6578 55.1181
v 36.4888 -84.6059 54.7941
v 40.6399 -84.3927 54.9442
v 46.3263 -84.3563 54.9221
v -77.4631 51.0055 54.9540
v -74.9081 51.0055 54.9540
v -83.7835 57.2114 55.8751
v -79.8219 54.8637 56.1664
v -74.3433 55.3422 55.6445
v -107.5513 67.2275 55.2850
v -106.2613 67.2275 55.2850
v -85.0243 63.3268 58.5994
v -78.7470 63.8404 58.4522
v -74.4563 61.6976 55.6960
v -108.3699 71.0501 58.2453
v -103.3571 71.3294 57.8103
v -95.3926 74.3619 58.2840
v -87.2019 71.1053 59.1793
v -80.5786 70.9111 59.1501
v -115.4221 83.2169 62.6240
v -110.7726 79.5440 59.6292
v -103.3471 78.3170 58.4850
v -95.3926 75.4807 58.2840
v -87.3601 75.7453 61.4260
v -82.6171 75.6901 62.1262
v -115.4221 83.5100 62.6240
v -110.8899 87.1846 59.6292
v -105.9483 87.8524 59.0550
v -108.4544 95.3115 58.0340
v -104.0763 95.6914 57.7553
v -98.7771 98.7585 55.2446
v -107.4577 99.4572 54.9327
v -103.3601 100.3699 55.2900
v -98.7771 100.5975 55.2446
v 27.8497 -93.9548 63.2382
v 30.3827 -93.9548 63.2382
v 27.8497 -91.6868 63.2382
v 30.3827 -91.6868 63.2382
v -84.9658 65.9833 63.1289
v -81.7352 65.9833 63.1289
v -108.4166 73.5221 63.7482
v -105.7862 73.5221 63.7482
v -92.0277 74.2537 63.0209
v -87.5235 71.4891 63.4485
v -81.5842 71.3422 63.3880
v -115.4221 83.2169 62.8391
v -111.1940 80.0670 63.8888
v -105.3406 79.3422 64.0746
v -92.0277 75.5318 63.0209
v -87.3601 75.7453 63.3069
v -82.6171 75.6901 63.1790
v -115.4221 83.5100 62.8391
v -111.3269 86.6429 64.0007
v -105.9240 87.3422 64.2146
v -108.6381 92.6244 63.9348
v -106.5641 92.6244 63.9348
f 3 2 1
f 3 4 2
f 2 5 1
f 2 6 5
f 5 3 1
f 5 7 3
f 6 2 4
f 6 4 8
f 4 3 7
f 4 7 8
f 7 5 6
f 7 6 8
f 10 9 8
f 10 11 9
f 9 12 8
f 9 13 12
f 12 10 8
f 12 14 10
f 13 9 11
f 13 11 15
f 11 10 14
f 11 14 15
f 18 14 17
f 18 15 14
f 20 16 19
f 20 17 16
f 21 17 20
f 21 18 17
f 13 22 12
f 13 23 22
f 22 14 12
f 22 24 14
f 23 13 15
f 23 15 25
f 24 22 23
f 24 23 25
f 24 17 14
f 24 28 17
f 28 16 17
f 28 27 16
f 25 15 18
f 25 18 29
f 29 28 24
f 29 24 25
f 27 19 16
f 27 31 19
f 30 27 26
f 30 31 27
f 32 20 19
f 32 19 31
f 33 29 18
f 33 18 21
f 33 21 20
f 33 20 32
f 34 32 31
f 34 35 32
f 39 37 36
f 39 40 37
f 41 37 40
f 41 38 37
f 43 26 27
f 43 42 26
f 42 41 40
f 42 43 41
f 44 27 28
f 44 43 27
f 45 28 29
f 45 44 28
f 46 26 42
f 46 30 26
f 47 31 30
f 47 30 46
f 45 29 33
f 45 33 49
f 49 33 32
f 49 32 48
f 49 48 44
f 49 44 45
f 47 34 31
f 47 50 34
f 48 32 35
f 48 35 51
f 51 35 34
f 51 34 50
f 54 53 52
f 54 55 53
f 57 36 37
f 57 56 36
f 56 55 54
f 56 57 55
f 58 37 38
f 58 57 37
f 59 36 56
f 59 39 36
f 60 40 39
f 60 39 59
f 58 38 41
f 58 41 61
f 60 57 58
f 60 58 61
f 62 40 60
f 62 42 40
f 63 61 41
f 63 41 43
f 64 43 44
f 64 63 43
f 65 42 62
f 65 46 42
f 66 47 46
f 66 46 65
f 65 62 63
f 65 63 66
f 64 44 48
f 64 48 67
f 66 63 64
f 66 64 67
f 68 47 66
f 68 50 47
f 67 48 51
f 67 51 69
f 51 50 68
f 51 68 69
f 68 66 67
f 68 67 69
f 53 72 52
f 53 73 72
f 72 71 70
f 72 73 71
f 74 52 72
f 74 54 52
f 75 73 53
f 75 53 55
f 76 54 74
f 76 56 54
f 77 75 55
f 77 55 57
f 78 56 76
f 78 59 56
f 79 77 57
f 79 57 60
f 60 59 78
f 60 78 79
f 78 76 77
f 78 77 79
f 80 60 61
f 80 79 60
f 81 60 79
f 81 62 60
f 82 80 61
f 82 61 63
f 82 63 62
f 82 62 81
f 81 79 80
f 81 80 82
f 86 70 71
f 86 85 70
f 85 84 83
f 85 86 84
f 87 70 85
f 87 72 70
f 88 86 71
f 88 71 73
f 89 72 87
f 89 74 72
f 90 88 73
f 90 73 75
f 90 89 87
f 90 87 88
f 91 74 89
f 91 76 74
f 92 90 75
f 92 75 77
f 92 77 76
f 92 76 91
f 92 91 89
f 92 89 90
f 84 93 83
f 84 94 93
f 95 83 93
f 95 85 83
f 96 94 84
f 96 84 86
f 97 85 95
f 97 87 85
f 98 96 86
f 98 86 88
f 98 88 87
f 98 87 97
f 97 95 96
f 97 96 98
f 94 99 93
f 94 100 99
f 101 93 99
f 101 95 93
f 102 100 94
f 102 94 96
f 96 95 101
f 96 101 102
f 101 99 100
f 101 100 102
f 106 104 103
f 106 107 104
f 108 104 107
f 108 105 104
f 104 109 103
f 104 110 109
f 105 110 104
f 105 111 110
f 109 106 103
f 109 113 106
f 107 106 113
f 107 113 114
f 113 109 110
f 113 110 114
f 111 105 108
f 111 108 115
f 108 107 114
f 108 114 115
f 115 112 111
f 115 116 112
f 118 117 116
f 118 119 117
f 120 119 118
f 120 121 119
f 111 122 110
f 111 123 122
f 112 123 111
f 112 124 123
f 125 110 122
f 125 114 110
f 115 114 125
f 115 125 126
f 125 122 123
f 125 123 126
f 124 112 116
f 124 116 127
f 116 115 126
f 116 126 127
f 126 123 124
f 126 124 127
f 117 127 116
f 117 128 127
f 127 118 116
f 127 129 118
f 128 117 119
f 128 119 130
f 129 127 128
f 129 128 130
f 129 120 118
f 129 131 120
f 130 119 121
f 130 121 132
f 121 120 131
f 121 131 132
f 133 132 131
f 133 134 132
f 130 135 129
f 130 136 135
f 135 131 129
f 135 137 131
f 136 130 132
f 136 132 138
f 137 135 136
f 137 136 138
f 137 133 131
f 137 139 133
f 138 132 134
f 138 134 140
f 134 133 139
f 134 139 140
f 139 137 138
f 139 138 140
f 142 141 140
f 142 143 141
f 148 144 147
f 148 145 144
f 149 145 148
f 149 146 145
f 154 150 153
f 154 151 150
f 156 152 155
f 156 153 152
f 157 153 156
f 157 154 153
f 141 158 140
f 141 159 158
f 158 142 140
f 158 160 142
f 159 141 143
f 159 143 161
f 161 143 142
f 161 142 160
f 163 144 145
f 163 162 144
f 146 163 145
f 146 164 163
f 162 147 144
f 162 168 147
f 169 148 147
f 169 147 168
f 164 146 149
f 164 149 170
f 149 148 169
f 149 169 170
f 170 165 164
f 170 171 165
f 173 167 166
f 173 174 167
f 175 167 174
f 175 168 167
f 175 169 168
f 175 176 169
f 177 169 176
f 177 170 169
f 177 171 170
f 177 178 171
f 178 172 171
f 178 179 172
f 180 175 174
f 180 181 175
f 182 175 181
f 182 176 175
f 151 183 150
f 151 184 183
f 188 150 183
f 188 153 150
f 188 152 153
f 188 187 152
f 189 184 151
f 189 151 154
f 189 185 184
f 189 190 185
f 187 155 152
f 187 192 155
f 192 186 191
f 192 187 186
f 193 156 155
f 193 155 192
f 189 154 157
f 189 157 194
f 157 156 193
f 157 193 194
f 195 189 194
f 195 190 189
f 197 158 159
f 197 196 158
f 198 158 196
f 198 160 158
f 199 197 159
f 199 159 161
f 199 161 160
f 199 160 198
f 204 162 163
f 204 203 162
f 164 204 163
f 164 205 204
f 165 205 164
f 165 206 205
f 209 201 200
f 209 210 201
f 211 166 167
f 211 210 166
f 210 202 201
f 210 211 202
f 212 162 203
f 212 168 162
f 212 167 168
f 212 211 167
f 212 202 211
f 212 203 202
f 206 165 171
f 206 171 213
f 172 213 171
f 172 214 213
f 213 207 206
f 213 214 207
f 215 207 214
f 215 208 207
f 217 166 210
f 217 173 166
f 216 210 209
f 216 217 210
f 218 174 173
f 218 173 217
f 177 176 219
f 177 219 220
f 178 177 220
f 178 220 221
f 214 172 179
f 214 179 222
f 179 178 221
f 179 221 222
f 222 221 213
f 222 213 214
f 218 180 174
f 218 223 180
f 224 181 180
f 224 180 223
f 219 176 182
f 219 182 225
f 182 181 224
f 182 224 225
f 226 219 225
f 226 220 219
f 228 221 227
f 228 222 221
f 184 229 183
f 184 230 229
f 185 230 184
f 185 231 230
f 234 186 187
f 234 233 186
f 229 188 183
f 229 235 188
f 188 234 187
f 188 235 234
f 236 235 229
f 236 229 230
f 237 231 185
f 237 185 190
f 233 191 186
f 233 239 191
f 239 232 238
f 239 233 232
f 240 192 191
f 240 191 239
f 241 193 192
f 241 192 240
f 241 240 234
f 241 234 235
f 194 193 241
f 194 241 242
f 237 190 195
f 237 195 243
f 195 194 242
f 195 242 243
f 245 238 244
f 245 239 238
f 246 239 245
f 246 240 239
f 247 243 242
f 247 248 243
f 197 251 196
f 197 252 251
f 252 249 251
f 252 250 249
f 253 196 251
f 253 198 196
f 254 252 197
f 254 197 199
f 199 198 253
f 199 253 254
f 261 256 255
f 261 262 256
f 264 258 257
f 264 265 258
f 266 200 201
f 266 265 200
f 265 259 258
f 265 266 259
f 267 201 202
f 267 266 201
f 268 202 203
f 268 267 202
f 204 268 203
f 204 269 268
f 269 260 268
f 269 261 260
f 270 204 205
f 270 269 204
f 269 262 261
f 269 270 262
f 206 270 205
f 206 271 270
f 270 263 262
f 270 271 263
f 207 271 206
f 207 272 271
f 273 207 208
f 273 272 207
f 274 200 265
f 274 209 200
f 214 213 276
f 214 276 277
f 273 208 215
f 273 215 278
f 215 214 277
f 215 277 278
f 278 277 272
f 278 272 273
f 279 209 274
f 279 216 209
f 280 217 216
f 280 216 279
f 279 274 275
f 279 275 280
f 218 217 280
f 218 280 281
f 276 213 221
f 276 221 285
f 221 220 284
f 221 284 285
f 286 221 222
f 286 285 221
f 287 218 281
f 287 223 218
f 224 223 287
f 224 287 288
f 287 281 282
f 287 282 288
f 225 224 288
f 225 288 289
f 288 282 283
f 288 283 289
f 284 220 226
f 284 226 290
f 226 225 289
f 226 289 290
f 291 221 285
f 291 227 221
f 286 222 228
f 286 228 292
f 228 227 291
f 228 291 292
f 291 285 286
f 291 286 292
f 231 293 230
f 231 294 293
f 296 232 233
f 296 295 232
f 297 233 234
f 297 296 233
f 293 236 230
f 293 299 236
f 236 298 235
f 236 299 298
f 294 231 237
f 294 237 300
f 295 238 232
f 295 302 238
f 297 234 240
f 297 240 304
f 303 296 297
f 303 297 304
f 298 241 235
f 298 305 241
f 242 241 305
f 242 305 306
f 305 298 299
f 305 299 306
f 307 300 237
f 307 237 243
f 302 244 238
f 302 309 244
f 309 301 308
f 309 302 301
f 310 245 244
f 310 244 309
f 304 240 246
f 304 246 311
f 311 246 245
f 311 245 310
f 312 242 306
f 312 247 242
f 313 307 243
f 313 243 248
f 248 247 312
f 248 312 313
f 312 306 307
f 312 307 313
f 250 314 249
f 250 315 314
f 317 249 314
f 317 251 249
f 318 315 250
f 318 250 252
f 319 315 318
f 319 316 315
f 320 251 317
f 320 253 251
f 321 318 252
f 321 252 254
f 254 253 320
f 254 320 321
f 321 320 317
f 321 317 318
f 256 325 255
f 256 326 325
f 327 323 322
f 327 328 323
f 329 257 258
f 329 328 257
f 328 324 323
f 328 329 324
f 330 258 259
f 330 329 258
f 332 255 325
f 332 261 255
f 261 331 260
f 261 332 331
f 326 256 262
f 326 262 333
f 332 325 326
f 332 326 333
f 263 333 262
f 263 334 333
f 335 257 328
f 335 264 257
f 336 265 264
f 336 264 335
f 337 330 259
f 337 259 266
f 267 337 266
f 267 338 337
f 339 260 331
f 339 268 260
f 339 267 268
f 339 338 267
f 341 334 263
f 341 263 271
f 342 271 272
f 342 341 271
f 343 265 336
f 343 274 265
f 344 275 274
f 344 274 343
f 346 345 340
f 346 340 341
f 347 342 272
f 347 272 277
f 347 277 276
f 347 276 346
f 347 346 341
f 347 341 342
f 344 280 275
f 344 349 280
f 348 344 343
f 348 349 344
f 350 281 280
f 350 280 349
f 282 281 350
f 282 350 351
f 283 282 351
f 283 351 352
f 354 346 276
f 354 276 285
f 354 285 284
f 354 284 353
f 355 283 352
f 355 289 283
f 356 353 284
f 356 284 290
f 290 289 355
f 290 355 356
f 356 355 352
f 356 352 353
f 360 358 357
f 360 361 358
f 362 358 361
f 362 359 358
f 364 360 363
f 364 361 360
f 366 293 294
f 366 365 293
f 368 364 363
f 368 369 364
f 370 295 296
f 370 369 295
f 371 293 365
f 371 299 293
f 372 366 294
f 372 294 300
f 374 367 373
f 374 368 367
f 375 295 369
f 375 302 295
f 375 301 302
f 375 374 301
f 374 369 368
f 374 375 369
f 370 296 303
f 370 303 376
f 375 369 370
f 375 370 376
f 377 303 304
f 377 376 303
f 378 299 371
f 378 306 299
f 379 372 300
f 379 300 307
f 307 306 378
f 307 378 379
f 378 371 372
f 378 372 379
f 374 308 301
f 374 381 308
f 381 373 380
f 381 374 373
f 382 309 308
f 382 308 381
f 383 310 309
f 383 309 382
f 382 375 376
f 382 376 383
f 377 304 311
f 377 311 384
f 384 311 310
f 384 310 383
f 383 376 377
f 383 377 384
f 315 385 314
f 315 386 385
f 316 386 315
f 316 387 386
f 388 314 385
f 388 317 314
f 318 317 388
f 318 388 389
f 389 388 385
f 389 385 386
f 390 387 316
f 390 316 319
f 319 318 389
f 319 389 390
f 323 393 322
f 323 394 393
f 324 394 323
f 324 395 394
f 395 391 394
f 395 392 391
f 398 322 393
f 398 327 322
f 399 328 327
f 399 327 398
f 400 395 324
f 400 324 329
f 330 400 329
f 330 401 400
f 404 331 332
f 404 403 331
f 403 397 396
f 403 404 397
f 333 404 332
f 333 405 404
f 406 333 334
f 406 405 333
f 407 328 399
f 407 335 328
f 336 335 407
f 336 407 408
f 407 399 400
f 407 400 408
f 401 330 337
f 401 337 409
f 408 400 401
f 408 401 409
f 410 337 338
f 410 409 337
f 409 402 401
f 409 410 402
f 411 331 403
f 411 339 331
f 411 338 339
f 411 410 338
f 413 406 334
f 413 334 341
f 413 341 340
f 413 340 412
f 412 405 406
f 412 406 413
f 414 336 408
f 414 343 336
f 417 412 340
f 417 340 345
f 418 345 346
f 418 417 345
f 414 348 343
f 414 419 348
f 420 349 348
f 420 348 419
f 350 349 420
f 350 420 421
f 351 350 421
f 351 421 422
f 423 352 351
f 423 351 422
f 423 422 415
f 423 415 416
f 353 352 423
f 353 423 424
f 424 423 416
f 424 416 417
f 418 346 354
f 418 354 425
f 354 353 424
f 354 424 425
f 424 417 418
f 424 418 425
f 358 428 357
f 358 429 428
f 359 429 358
f 359 430 429
f 430 426 429
f 430 427 426
f 428 360 357
f 428 432 360
f 433 432 428
f 433 428 429
f 434 430 359
f 434 359 362
f 362 361 433
f 362 433 434
f 435 430 434
f 435 431 430
f 436 360 432
f 436 363 360
f 437 433 361
f 437 361 364
f 437 434 433
f 437 438 434
f 438 435 434
f 438 439 435
f 366 440 365
f 366 441 440
f 436 368 363
f 436 443 368
f 368 442 367
f 368 443 442
f 444 437 364
f 444 364 369
f 445 365 440
f 445 371 365
f 446 441 366
f 446 366 372
f 372 371 445
f 372 445 446
f 445 440 441
f 445 441 446
f 442 373 367
f 442 447 373
f 449 444 369
f 449 369 375
f 449 448 443
f 449 443 444
f 450 373 447
f 450 380 373
f 451 381 380
f 451 380 450
f 451 450 447
f 451 447 448
f 449 375 382
f 449 382 452
f 452 382 381
f 452 381 451
f 451 448 449
f 451 449 452
f 387 453 386
f 387 454 453
f 455 386 453
f 455 389 386
f 456 454 387
f 456 387 390
f 390 389 455
f 390 455 456
f 392 457 391
f 392 458 457
f 460 391 457
f 460 394 391
f 460 393 394
f 460 459 393
f 461 458 392
f 461 392 395
f 461 460 457
f 461 457 458
f 463 396 397
f 463 462 396
f 464 393 459
f 464 398 393
f 465 399 398
f 465 398 464
f 465 464 459
f 465 459 460
f 466 461 395
f 466 395 400
f 466 400 399
f 466 399 465
f 466 465 460
f 466 460 461
f 402 467 401
f 402 468 467
f 469 396 462
f 469 403 396
f 470 463 397
f 470 397 404
f 471 404 405
f 471 470 404
f 467 409 401
f 467 473 409
f 473 408 409
f 473 472 408
f 474 468 402
f 474 402 410
f 475 403 469
f 475 411 403
f 411 474 410
f 411 475 474
f 475 468 474
f 475 469 468
f 477 471 405
f 477 405 412
f 476 470 471
f 476 471 477
f 472 414 408
f 472 478 414
f 480 416 415
f 480 415 479
f 481 477 412
f 481 412 417
f 481 417 416
f 481 416 480
f 481 480 476
f 481 476 477
f 478 419 414
f 478 482 419
f 420 419 482
f 420 482 483
f 484 421 420
f 484 420 483
f 485 479 415
f 485 415 422
f 422 421 484
f 422 484 485
f 486 483 482
f 486 487 483
f 427 488 426
f 427 489 488
f 490 426 488
f 490 429 426
f 491 489 427
f 491 427 430
f 491 490 488
f 491 488 489
f 431 491 430
f 431 492 491
f 494 429 490
f 494 433 429
f 433 493 432
f 433 494 493
f 492 431 435
f 492 435 495
f 493 436 432
f 493 496 436
f 497 496 493
f 497 493 494
f 438 437 497
f 438 497 498
f 495 435 439
f 495 439 499
f 439 438 498
f 439 498 499
f 496 443 436
f 496 501 443
f 443 500 442
f 443 501 500
f 502 497 437
f 502 437 444
f 502 444 443
f 502 443 501
f 502 501 496
f 502 496 497
f 503 442 500
f 503 447 442
f 504 501 443
f 504 443 448
f 448 447 503
f 448 503 504
f 504 503 500
f 504 500 501
f 507 453 454
f 507 506 453
f 506 455 453
f 506 509 455
f 509 505 508
f 509 506 505
f 507 454 456
f 507 456 510
f 510 456 455
f 510 455 509
f 512 462 463
f 512 511 462
f 515 467 468
f 515 514 467
f 511 469 462
f 511 516 469
f 469 515 468
f 469 516 515
f 517 512 463
f 517 463 470
f 517 516 511
f 517 511 512
f 519 467 514
f 519 473 467
f 519 472 473
f 519 518 472
f 519 513 518
f 519 514 513
f 517 470 476
f 517 476 521
f 520 516 517
f 520 517 521
f 522 472 518
f 522 478 472
f 526 521 476
f 526 476 480
f 526 480 479
f 526 479 525
f 527 478 522
f 527 482 478
f 527 522 523
f 527 523 528
f 484 483 528
f 484 528 529
f 530 525 479
f 530 479 485
f 530 485 484
f 530 484 529
f 530 529 524
f 530 524 525
f 527 486 482
f 527 531 486
f 532 528 483
f 532 483 487
f 487 486 531
f 487 531 532
f 532 531 527
f 532 527 528
f 491 533 490
f 491 534 533
f 492 534 491
f 492 535 534
f 533 494 490
f 533 536 494
f 536 533 534
f 536 534 537
f 535 492 495
f 535 495 538
f 537 534 535
f 537 535 538
f 539 494 536
f 539 497 494
f 498 497 539
f 498 539 540
f 539 536 537
f 539 537 540
f 538 495 499
f 538 499 541
f 499 498 540
f 499 540 541
f 543 541 540
f 543 544 541
f 544 542 541
f 544 545 542
f 546 545 544
f 546 547 545
f 550 505 506
f 550 549 505
f 551 506 507
f 551 550 506
f 549 508 505
f 549 553 508
f 553 548 552
f 553 549 548
f 554 509 508
f 554 508 553
f 551 507 510
f 551 510 555
f 555 510 509
f 555 509 554
f 554 550 551
f 554 551 555
f 559 513 514
f 559 558 513
f 560 514 515
f 560 559 514
f 561 515 516
f 561 560 515
f 562 557 556
f 562 563 557
f 564 513 558
f 564 518 513
f 564 557 563
f 564 558 557
f 565 559 560
f 565 560 566
f 561 516 520
f 561 520 567
f 566 560 561
f 566 561 567
f 568 520 521
f 568 567 520
f 570 518 564
f 570 522 518
f 569 564 563
f 569 570 564
f 523 522 570
f 523 570 571
f 571 565 566
f 571 566 572
f 573 525 524
f 573 524 572
f 573 572 566
f 573 566 567
f 568 521 526
f 568 526 574
f 526 525 573
f 526 573 574
f 573 567 568
f 573 568 574
f 575 523 571
f 575 528 523
f 576 572 524
f 576 524 529
f 529 528 575
f 529 575 576
f 575 571 572
f 575 572 576
f 538 577 537
f 538 578 577
f 577 540 537
f 577 579 540
f 578 538 541
f 578 541 580
f 579 577 578
f 579 578 580
f 542 580 541
f 542 581 580
f 579 543 540
f 579 582 543
f 583 544 543
f 583 543 582
f 582 579 580
f 582 580 583
f 581 542 545
f 581 545 584
f 583 546 544
f 583 588 546
f 587 583 582
f 587 588 583
f 584 545 547
f 584 547 589
f 589 547 546
f 589 546 588
f 590 586 585
f 590 591 586
f 594 587 593
f 594 588 587
f 595 591 590
f 595 596 591
f 596 592 591
f 596 597 592
f 600 599 598
f 600 601 599
f 602 548 549
f 602 601 548
f 603 549 550
f 603 602 549
f 605 548 601
f 605 552 548
f 604 601 600
f 604 605 601
f 606 553 552
f 606 552 605
f 603 550 554
f 603 554 607
f 607 554 553
f 607 553 606
f 607 606 602
f 607 602 603
f 609 556 557
f 609 608 556
f 610 557 558
f 610 609 557
f 611 558 559
f 611 610 558
f 612 556 608
f 612 562 556
f 613 563 562
f 613 562 612
f 613 609 610
f 613 610 614
f 611 559 565
f 611 565 615
f 614 610 611
f 614 611 615
f 616 563 613
f 616 569 563
f 617 570 569
f 617 569 616
f 616 613 614
f 616 614 617
f 618 615 565
f 618 565 571
f 618 571 570
f 618 570 617
f 618 617 614
f 618 614 615
f 581 619 580
f 581 620 619
f 619 583 580
f 619 622 583
f 583 621 582
f 583 622 621
f 620 581 584
f 620 584 623
f 623 622 619
f 623 619 620
f 586 624 585
f 586 625 624
f 621 587 582
f 621 626 587
f 627 626 621
f 627 621 622
f 628 623 584
f 628 584 589
f 628 589 588
f 628 588 627
f 628 627 622
f 628 622 623
f 624 590 585
f 624 629 590
f 625 586 591
f 625 591 630
f 629 624 625
f 629 625 630
f 592 630 591
f 592 631 630
f 626 593 587
f 626 632 593
f 627 588 594
f 627 594 633
f 633 594 593
f 633 593 632
f 629 595 590
f 629 635 595
f 636 596 595
f 636 595 635
f 637 631 592
f 637 592 597
f 597 596 636
f 597 636 637
f 636 630 631
f 636 631 637
f 638 631 637
f 638 632 631
f 639 632 638
f 639 633 632
f 641 634 640
f 641 635 634
f 642 598 599
f 642 641 598
f 642 635 641
f 642 636 635
f 643 598 641
f 643 600 598
f 644 642 599
f 644 599 601
f 645 601 602
f 645 644 601
f 646 600 643
f 646 604 600
f 647 605 604
f 647 604 646
f 646 643 644
f 646 644 647
f 645 602 606
f 645 606 648
f 648 606 605
f 648 605 647
f 647 644 645
f 647 645 648
f 650 608 609
f 650 649 608
f 651 608 649
f 651 612 608
f 652 650 609
f 652 609 613
f 652 613 612
f 652 612 651
f 651 649 650
f 651 650 652
f 654 626 627
f 654 653 626
f 656 629 630
f 656 655 629
f 653 632 626
f 653 658 632
f 632 657 631
f 632 658 657
f 654 627 633
f 654 633 659
f 659 658 653
f 659 653 654
f 655 635 629
f 655 661 635
f 661 634 635
f 661 660 634
f 656 630 636
f 656 636 662
f 662 661 655
f 662 655 656
f 663 631 657
f 663 637 631
f 638 637 663
f 638 663 664
f 664 663 657
f 664 657 658
f 659 633 639
f 659 639 665
f 639 638 664
f 639 664 665
f 665 664 658
f 665 658 659
f 660 640 634
f 660 666 640
f 667 641 640
f 667 640 666
f 667 666 660
f 667 660 661
f 662 636 642
f 662 642 668
f 668 667 661
f 668 661 662
f 669 641 667
f 669 643 641
f 670 668 642
f 670 642 644
f 670 644 643
f 670 643 669
f 669 667 668
f 669 668 670
