# parsimony mesh: cplx_CPLX0-7853 (source /Users/eranagmon/code/v2e-cplx/workspace/studies/ecoli-3d/viz/3d/structures/cplx_CPLX0-7853.pdb)
# atoms: 2666  voxel: 8 Å  verts: 559  tris: 1152
v 91.2552 -54.9699 -46.0336
v 93.4705 -54.9699 -46.0336
v 91.2552 -52.1705 -46.0336
v 93.4705 -52.1705 -46.0336
v -45.1666 81.3076 -46.1051
v -42.9749 81.3076 -46.1051
v -52.0613 89.5114 -45.6308
v -47.6378 86.9923 -45.8679
v -42.9749 84.4732 -46.1051
v -52.0613 90.6068 -45.6308
v -50.1090 90.6068 -45.6308
v 84.2243 -61.8287 -37.4814
v 88.3243 -63.2497 -38.6260
v 96.3243 -64.0364 -39.1040
v 100.7169 -62.8776 -38.1188
v 84.2243 -60.0460 -37.4814
v 87.8570 -57.5079 -40.8839
v 96.7448 -57.2341 -41.2025
v 100.7169 -59.4983 -38.1188
v 89.6234 -51.0720 -41.3996
v 94.9551 -51.0720 -41.3996
v -52.7053 73.6826 -38.1564
v -47.6757 73.2676 -38.7989
v -42.1518 73.5656 -38.5085
v -52.9225 78.3371 -38.7319
v -47.7702 78.5194 -42.3308
v -41.8482 78.5194 -41.2649
v -53.1574 86.6417 -41.2113
v -47.1867 87.3227 -42.4080
v -42.5343 85.6812 -41.3996
v -53.0531 91.2626 -41.3996
v -48.7018 91.2626 -41.3996
v 75.7076 -69.7743 -29.5505
v 80.3243 -69.8482 -29.7538
v 84.7363 -69.7986 -29.7209
v 58.3650 -63.7630 -30.3752
v 64.3243 -64.5044 -30.9755
v 72.7542 -65.8760 -30.6191
v 81.0643 -64.9623 -33.3365
v 87.7715 -67.0288 -32.7923
v 96.5228 -64.4582 -33.4966
v 100.7169 -62.8776 -36.2280
v 52.2407 -54.2146 -29.4713
v 55.9487 -57.1939 -30.5534
v 64.4870 -57.4920 -31.1858
v 72.3243 -59.7029 -30.8108
v 81.5230 -57.6902 -33.2978
v 84.4589 -54.7126 -36.4400
v 98.5550 -57.1642 -33.4966
v 100.7169 -59.4983 -36.2280
v 52.2407 -53.4983 -29.4713
v 56.3243 -52.9794 -30.1102
v 61.9288 -52.9162 -30.2753
v 84.1552 -53.4736 -31.1067
v 87.6050 -51.3854 -33.6238
v 94.8646 -50.9580 -33.3996
v -78.3158 73.2979 -30.7230
v -71.6757 73.2686 -30.8221
v -63.6757 73.2141 -30.6211
v -55.4935 72.6735 -33.2328
v -47.2838 72.8777 -33.0826
v -42.1518 73.5656 -35.5380
v -84.0724 79.7533 -29.7591
v -80.4598 77.5868 -31.1163
v -71.6757 78.3371 -32.2809
v -63.0974 79.0443 -30.8369
v -57.3934 79.0443 -33.2328
v -44.3559 75.1999 -30.2046
v -41.8772 78.0548 -33.0826
v -84.0724 83.4889 -29.7591
v -79.6757 83.8514 -30.5529
v -71.6757 83.2454 -30.8584
v -65.3785 82.6811 -30.1664
v -55.8945 86.3371 -33.3996
v -44.5326 89.3920 -33.3996
v -42.5705 85.3920 -33.3996
v -53.5196 91.7927 -33.3996
v -48.5326 91.7927 -33.3996
v 75.2205 -70.0252 -25.3996
v 80.3243 -70.3397 -25.3996
v 84.8514 -69.9775 -25.3996
v 57.2913 -63.9451 -25.3996
v 64.3243 -66.0558 -25.3996
v 71.2205 -67.7737 -25.3996
v 88.8428 -65.7594 -25.2134
v 93.9884 -63.1571 -27.7559
v 44.1801 -53.8416 -21.5534
v 49.0741 -55.1959 -24.6919
v 53.2913 -59.4451 -25.3996
v 66.7434 -55.2126 -25.3996
v 72.9887 -55.9055 -24.6505
v 78.8218 -55.3344 -26.8178
v 90.9181 -57.6629 -22.6920
v 94.3416 -57.6629 -26.6920
v 44.1801 -52.0644 -21.5534
v 48.4978 -50.1147 -24.5455
v 56.5098 -48.8732 -25.0823
v 62.7434 -51.7992 -25.3996
v 76.0983 -53.6149 -21.4845
v 81.0228 -52.6979 -24.6505
v 88.7025 -51.7401 -25.0197
v 93.3499 -52.0185 -27.4331
v 50.0882 -44.7000 -22.2042
v 53.9669 -44.7000 -22.2042
v -78.3158 73.2979 -27.1657
v -72.2351 72.9248 -24.8593
v -63.6757 71.5493 -25.3996
v -55.5158 72.2918 -25.1108
v -49.6892 73.3308 -27.5849
v -85.3296 79.0758 -25.3996
v -80.4598 75.3677 -24.8593
v -75.2746 75.0699 -21.8324
v -60.0452 82.1824 -29.2742
v -56.1427 78.8687 -25.7629
v -47.6293 78.0441 -25.3677
v -43.0231 80.5333 -28.4837
v -92.1231 89.0689 -21.8434
v -87.4450 86.2789 -25.2279
v -79.6757 87.8514 -27.2149
v -72.2636 86.7105 -24.9241
v -63.0974 84.4379 -26.1244
v -57.4099 86.9848 -26.1244
v -46.8895 86.5874 -25.6501
v -43.0231 84.0876 -28.4837
v -92.7816 94.3371 -22.4358
v -87.2139 94.8761 -23.3563
v -79.6757 92.2184 -23.2149
v -75.3222 90.6139 -21.9404
v -52.9431 91.1083 -25.3996
v -50.2726 91.1083 -25.3996
v -92.7028 98.8545 -22.3374
v -89.5727 98.8545 -22.3374
v 75.4692 -70.0345 -19.9801
v 80.0691 -70.6746 -17.3479
v 85.5297 -70.6488 -17.3996
v 58.2396 -62.6057 -20.3789
v 64.3243 -63.2143 -19.9954
v 72.9698 -65.5281 -17.5974
v 77.2324 -68.2676 -14.6467
v 87.2409 -65.6629 -17.3996
v 44.1801 -53.8416 -21.0745
v 49.1170 -54.8693 -18.0045
v 55.2944 -57.2455 -17.5027
v 64.4969 -57.4736 -19.4124
v 73.2843 -57.6477 -18.2181
v 80.3243 -55.6614 -15.9441
v 86.8715 -57.4907 -17.1421
v 44.0659 -49.1409 -18.2223
v 45.8669 -49.1409 -18.2223
v 57.2779 -49.4199 -17.3357
v 61.9453 -51.9246 -19.9598
v 76.0983 -53.6149 -21.2214
v 80.3243 -52.5986 -19.9441
v 86.2880 -52.2919 -19.6371
v 43.9516 -45.2534 -15.3700
v 47.7826 -44.4350 -17.7818
v 54.4976 -44.4351 -17.3996
v -59.8816 66.2224 -13.7722
v -55.6757 65.7420 -14.2140
v -50.7357 65.6583 -14.1129
v -69.9413 73.4080 -20.0931
v -62.6735 70.5605 -16.9326
v -55.4665 70.7809 -16.6092
v -50.7357 68.5154 -14.1129
v -85.4843 80.5724 -20.4032
v -79.6757 79.5632 -20.2686
v -72.2351 77.9768 -19.5918
v -64.8973 78.3371 -15.5236
v -53.3619 77.0310 -17.3996
v -51.0825 81.0310 -17.3996
v -92.1231 89.0689 -19.4122
v -88.0738 86.8692 -17.2410
v -80.2770 86.9365 -16.9575
v -72.2636 85.9838 -20.0385
v -63.5792 85.0853 -17.4826
v -55.2851 87.8541 -18.1714
v -51.1541 85.5526 -18.1714
v -92.7816 94.3371 -18.4731
v -87.4513 95.3132 -16.7819
v -80.2770 93.2745 -17.8623
v -75.3222 90.6139 -20.8375
v -52.3581 90.3889 -21.3527
v -51.5972 90.3889 -21.3527
v -92.7028 98.8545 -19.4849
v -89.5727 98.8545 -19.4849
v 82.8301 -71.0969 -9.3996
v 87.2169 -71.0969 -9.3996
v 75.8036 -62.9343 -13.0093
v 79.7209 -65.6257 -9.9654
v 88.2803 -65.6629 -9.3996
v 52.3122 -53.6702 -13.3930
v 52.3492 -53.6702 -13.3930
v 75.8036 -60.6146 -13.0093
v 80.9162 -59.8834 -9.9654
v 85.3877 -60.2247 -9.3996
v 43.9516 -46.2174 -13.1626
v 49.1170 -49.1956 -12.9757
v 53.2843 -49.6629 -13.0474
v 43.9516 -45.2534 -13.1626
v 48.3243 -44.8502 -12.8747
v 53.5793 -44.9888 -12.9366
v -59.9632 66.0900 -9.3996
v -55.6757 65.1490 -9.3996
v -47.9117 65.4344 -8.9003
v -43.4035 66.0873 -5.9008
v -60.1795 69.7160 -9.9963
v -55.1559 72.9087 -10.0758
v -48.2522 70.4005 -9.1624
v -43.4035 66.9522 -5.9008
v -60.8973 78.3371 -12.5036
v -54.2858 77.4759 -10.5627
v -51.3800 78.5221 -10.2145
v -85.3299 90.0027 -13.2151
v -83.3444 90.0027 -13.2151
v -60.8482 83.7601 -12.5436
v -55.6757 83.4238 -12.7116
v -51.6578 82.3630 -13.3383
v -85.3299 92.7244 -13.2151
v -83.3444 92.7244 -13.2151
v 84.0906 -70.5440 -4.8330
v 88.8164 -70.6468 -2.4370
v 94.1723 -70.7495 -0.0409
v 83.8890 -65.6629 -4.7213
v 88.4450 -66.3261 -2.7154
v 96.2030 -64.9925 1.1373
v 100.5113 -62.7747 2.3155
v 83.9775 -61.3657 -5.0618
v 84.9551 -61.3657 -5.0618
v 98.1043 -57.6629 1.8146
v 100.9239 -57.6629 1.8146
v 99.4549 -52.1961 1.8376
v 100.9367 -52.1961 1.8376
v -59.8532 66.1223 -4.7906
v -55.3681 65.6636 -1.8342
v -48.1391 65.6426 -1.8216
v -43.4035 66.0873 -4.7696
v -59.8532 66.6353 -4.7906
v -55.6816 69.7160 -1.8342
v -45.7751 70.2427 -1.4779
v -43.2922 70.2427 -1.4779
v -52.0677 74.9090 -1.3996
v -47.6283 77.3850 -0.6988
v -42.7394 78.3371 1.6516
v -44.0853 86.3371 2.1732
v -42.9815 86.3371 2.1732
v -43.7431 90.4709 2.5092
v -43.5038 90.4709 2.5092
v 44.2440 -109.7139 10.4816
v 44.5422 -109.7139 10.4816
v 35.9687 -102.1732 9.9196
v 41.0761 -105.1691 9.7877
v 45.4847 -105.6629 10.0951
v 35.9687 -100.2072 9.9196
v 40.3243 -99.1531 9.6737
v 45.6536 -99.7723 10.0455
v 44.1730 -86.2721 10.5298
v 44.4779 -86.2721 10.5298
v 44.1730 -84.6652 10.5298
v 47.4810 -81.4113 10.4533
v 52.8691 -78.1574 10.3768
v 50.4841 -77.2772 10.3768
v 52.8691 -77.2772 10.3768
v 90.7682 -70.7495 4.4764
v 94.1723 -70.7495 4.4764
v 84.1164 -61.7559 10.5415
v 87.6417 -64.4831 7.5089
v 96.2030 -64.9925 3.8640
v 100.5113 -62.7747 3.2516
v 83.7505 -57.6629 10.2398
v 87.6388 -57.7240 9.7712
v 96.1776 -57.7214 6.4754
v 101.2543 -57.6719 6.1911
v 83.7671 -52.9616 10.1785
v 89.0515 -50.0421 9.7207
v 96.0471 -49.4266 7.4116
v 101.3465 -51.3084 6.6004
v 92.2029 -45.6075 10.4574
v 92.6392 -45.6075 10.4574
v -93.4410 33.2716 9.7184
v -90.2725 33.2716 9.7184
v -100.0401 41.4958 10.3571
v -96.2469 38.6689 10.0377
v -90.2725 35.8420 9.7184
v -108.2727 49.4345 10.1400
v -103.0944 46.5955 10.1113
v -98.8250 46.3371 10.3343
v -108.2727 50.8812 10.1400
v -103.6757 50.9576 10.1715
v -95.9806 53.6901 10.1314
v -90.5751 56.7598 9.7737
v -92.9837 62.3371 9.7134
v -87.8153 62.9565 9.8087
v -83.5128 66.0361 10.4635
v -52.4963 66.0053 3.0548
v -51.1147 66.0053 3.0548
v -92.2987 66.6622 10.2445
v -87.6757 66.7544 10.2308
v -83.5128 66.5684 10.4635
v -52.3489 70.3371 3.1021
v -47.7212 71.1104 5.6016
v -43.0730 73.4971 6.6004
v -59.9920 82.0666 10.4853
v -53.9945 78.7098 7.1550
v -47.9094 79.4605 7.8577
v -42.7413 78.8752 7.2181
v -59.9920 82.5120 10.4853
v -54.9644 85.6420 10.3815
v -46.5828 84.7084 8.0774
v -42.2735 85.6569 7.2181
v -51.8235 90.5287 10.4896
v -46.9162 91.1983 7.3339
v -42.4883 91.2699 6.6004
v 44.2440 -109.7139 10.7929
v 47.7296 -110.1065 13.9486
v 54.1817 -110.4990 17.1043
v 35.9687 -102.1732 12.1178
v 41.1547 -104.8418 14.1220
v 47.5403 -106.3782 15.1116
v 54.1817 -108.3894 17.1043
v 35.6970 -97.8895 14.4306
v 39.3561 -97.6183 14.1594
v 45.8129 -97.3285 14.1868
v 35.1729 -89.6629 16.5450
v 41.0335 -89.2284 12.5425
v 45.6248 -89.2284 14.1868
v 35.6880 -83.2242 17.7170
v 40.3244 -81.2781 14.3130
v 47.5864 -81.2641 13.0184
v 53.1232 -78.7133 14.6004
v 42.2285 -73.6629 16.5649
v 48.0202 -74.2315 13.3471
v 55.5236 -73.8753 15.0517
v 61.4453 -70.4735 17.5445
v 75.0000 -71.1193 17.5870
v 80.3243 -72.5617 17.1170
v 86.9490 -72.0716 17.6360
v 44.0450 -69.5121 18.2444
v 48.3243 -69.1186 17.8022
v 56.5894 -66.1180 16.7237
v 64.1969 -65.4632 16.4641
v 72.3297 -65.4632 16.3736
v 82.0503 -63.9029 14.4729
v 85.7321 -64.6496 14.3823
v 59.4328 -60.8081 17.2368
v 64.3243 -60.3424 16.7220
v 72.3243 -59.7418 16.5769
v 81.4866 -58.6676 14.1811
v 87.6388 -57.7240 12.9457
v 96.3243 -55.7506 12.6593
v 101.0749 -55.0113 11.3488
v 83.7671 -52.9616 11.9842
v 89.0515 -50.0421 12.8085
v 95.7132 -49.4594 12.4273
v 101.0749 -51.9903 11.3488
v 92.2029 -45.6075 10.9000
v 92.6392 -45.6075 10.9000
v -100.2894 33.8406 16.9645
v -95.9349 32.8269 14.4189
v -87.6338 32.2001 15.0849
v -83.4409 32.7959 18.0746
v -100.8266 38.6323 14.4189
v -96.2063 38.5921 13.3279
v -87.6338 36.1095 15.0849
v -83.4409 34.5214 18.0746
v -108.2727 49.4345 13.0044
v -105.1441 46.5955 15.2428
v -96.3355 46.3371 14.6004
v -108.2727 50.8812 13.0044
v -104.1069 53.4174 15.3485
v -95.6163 53.5620 13.6399
v -90.2196 55.7682 14.6004
v -100.6506 62.3371 17.6655
v -96.9837 62.3371 13.6655
v -86.2196 61.7286 14.6004
v -83.1679 65.7286 14.6004
v -62.2072 65.5678 17.6741
v -55.6757 65.6650 17.7591
v -51.5476 66.2103 18.4051
v -99.9226 66.6255 18.2617
v -95.2495 67.2210 15.1972
v -87.6757 68.8258 14.6004
v -83.1679 67.9372 14.6004
v -69.8552 71.8580 17.1249
v -64.3946 69.6497 16.5781
v -55.3538 69.9586 17.3462
v -47.9376 70.5303 14.6678
v -43.3668 74.0210 10.9306
v -70.3187 78.3371 16.8280
v -63.0655 78.9748 13.4013
v -55.3538 77.5889 14.8192
v -47.3955 78.8744 13.0277
v -43.3668 76.5673 10.9306
v -69.0202 82.7571 17.7127
v -63.0655 83.2488 14.8678
v -54.9644 87.3124 14.1583
v -47.6896 86.0332 14.0425
v -42.2645 87.8700 11.5549
v -51.8235 90.5287 11.1968
v -47.6757 91.3132 11.7636
v -42.2645 91.4470 11.5549
v 59.3996 -118.1495 25.7282
v 60.7475 -118.1495 25.7282
v 51.2091 -110.3899 22.6004
v 56.7907 -112.8142 22.9296
v 60.9216 -113.6629 25.0942
v 43.3987 -102.1771 18.8091
v 48.4453 -105.8888 20.9756
v 56.6387 -108.6815 22.7188
v 60.6975 -109.3477 25.4644
v 35.4253 -95.5719 21.0925
v 40.5689 -98.0083 20.8459
v 45.1881 -97.6629 19.5382
v 35.1729 -89.6629 21.4904
v 40.3243 -89.6629 23.5369
v 45.8347 -89.6629 20.6469
v 35.6880 -83.2242 19.9617
v 39.6152 -80.9997 21.9703
v 47.7262 -81.1250 23.3947
v 53.0423 -78.8561 22.6004
v 42.2285 -73.6629 20.6852
v 47.6276 -73.4734 24.5014
v 55.9788 -72.7581 23.9098
v 61.6007 -70.3163 22.6004
v 73.9837 -71.0967 22.6004
v 80.3243 -74.0897 22.6004
v 89.0991 -72.4314 21.8290
v 92.8791 -70.2864 23.9813
v 44.0450 -69.5121 18.8118
v 48.3243 -69.1186 20.0504
v 55.9077 -66.1180 22.8336
v 65.6007 -67.6579 22.6004
v 72.2709 -65.4603 24.0837
v 80.8106 -63.7476 23.0770
v 89.0991 -67.6461 21.8290
v 92.8791 -69.0275 23.9813
v 59.1262 -60.8426 22.6004
v 64.3243 -59.9054 22.6004
v 72.5219 -59.9198 23.0770
v 78.4681 -60.0073 20.7280
v -91.9127 26.0791 25.9963
v -87.6757 25.3169 24.4554
v -82.5118 25.2349 24.3446
v -100.2894 33.8406 19.3288
v -94.0630 30.4486 22.3559
v -87.6757 29.9916 21.9361
v -82.9764 30.1648 21.6975
v -100.8410 38.3371 19.6101
v -95.7332 38.2960 19.7912
v -87.6757 35.4239 19.4168
v -83.4409 34.5214 19.0504
v -102.2378 46.3371 20.7386
v -97.1863 46.3371 20.7386
v -102.1914 53.8849 23.1403
v -95.1681 53.7030 23.1524
v -90.8349 56.4892 20.1380
v -100.8538 61.9222 21.9501
v -95.5156 61.9222 24.0754
v -87.9713 62.8309 21.1968
v -83.1616 65.8267 19.3855
v -62.1107 65.5700 22.6004
v -55.6757 65.3211 22.6004
v -51.3111 66.0881 22.6004
v -99.9226 66.6255 18.8499
v -95.6757 67.1981 20.2910
v -86.3527 70.2919 22.2077
v -81.1697 70.7389 21.5306
v -72.1834 71.5118 22.0554
v -63.8983 69.5007 23.7131
v -55.3538 70.7887 22.5581
v -51.3111 67.4067 22.6004
v -84.5886 75.2163 24.2276
v -79.6757 76.2765 23.1395
v -72.1044 78.3924 21.8633
v -63.6394 78.1794 23.7336
v -55.3538 77.9271 20.4988
v -50.7996 80.3204 19.3099
v -69.0202 82.7571 19.3679
v -63.6757 83.3456 20.0698
v -55.6757 84.4251 20.0263
v -50.7996 84.1964 19.3099
v 59.3996 -118.1495 27.3889
v 60.7475 -118.1495 27.3889
v 52.2445 -109.7961 26.7513
v 56.6033 -112.8713 29.7368
v 61.1722 -113.4331 30.2735
v 52.2445 -109.6161 26.7513
v 56.4138 -109.0449 29.8910
v 61.0667 -108.9255 30.6004
v 49.8299 -78.3477 27.0380
v 52.7612 -78.3477 27.0380
v 49.8299 -76.0138 27.0380
v 56.3276 -72.8686 26.8452
v 60.9052 -69.7235 26.6524
v 74.7401 -70.2017 30.6004
v 79.9985 -71.0431 30.6596
v 88.3243 -71.3170 28.1491
v 92.8791 -70.2864 27.2334
v 59.4721 -65.6629 26.7912
v 63.8728 -65.8587 27.2349
v 72.7031 -65.5887 29.2304
v 79.9985 -67.3994 30.6596
v 88.3243 -68.7315 28.1491
v 92.8791 -69.0275 27.2334
v 59.6183 -61.4239 26.8028
v 64.3243 -61.2259 27.3546
v 69.9870 -61.3192 27.4036
v -91.9127 26.0791 26.8885
v -87.0338 25.3809 29.9733
v -82.3625 25.3353 30.6004
v -91.9127 26.7154 26.8885
v -87.0338 27.6594 29.9733
v -82.3625 27.7062 30.6004
v -100.3394 56.2501 27.0866
v -98.0755 56.2501 27.0866
v -100.3394 58.9790 27.0866
v -98.0755 58.9790 27.0866
v -60.3908 66.0836 27.4245
v -55.6757 65.9931 27.4269
v -51.3177 66.1320 26.8784
v -84.5886 72.8032 27.3628
v -79.6757 72.6137 27.6638
v -71.6757 72.6648 28.6347
v -63.3363 69.9342 28.0409
v -55.6757 67.3748 27.4269
v -51.3177 67.0607 26.8784
v -84.5886 75.2163 27.3628
v -79.6757 76.2765 27.6638
v -71.6757 76.4200 28.6347
v -66.2817 75.4076 28.6574
v 58.6381 -110.9090 38.6004
v 61.3676 -110.9090 38.6004
v 58.7391 -106.0621 39.3364
v 61.2283 -106.0621 39.3364
v 59.9305 -101.5487 42.4936
v 60.4399 -101.5487 42.4936
v 76.0086 -69.9258 34.7929
v 77.1146 -69.9258 34.7929
v 76.0086 -68.2963 34.7929
v 77.1146 -68.2963 34.7929
v -83.9391 26.1036 35.2811
v -83.0887 26.1036 35.2811
v -84.2647 29.8850 38.2085
v -82.3834 29.8850 38.2085
v -84.5903 35.4788 41.1359
v -81.6782 35.4788 41.1359
v 59.2601 -110.3740 44.4100
v 61.0987 -110.3740 44.4100
v 59.2308 -105.6629 44.5705
v 60.9918 -105.6629 44.5705
v 59.9305 -101.5487 43.4176
v 60.4399 -101.5487 43.4176
v -84.8505 32.1151 46.6004
v -81.4818 32.1151 46.6004
v -84.8505 35.9405 46.6004
v -81.4818 35.9405 46.6004
v -84.3275 32.9077 51.4537
v -82.7480 32.9077 51.4537
v -84.3275 35.3333 51.4537
v -82.7480 35.3333 51.4537
f 3 2 1
f 3 4 2
f 9 5 8
f 9 6 5
f 11 7 10
f 11 8 7
f 16 13 12
f 16 17 13
f 18 1 2
f 18 17 1
f 18 13 17
f 18 14 13
f 19 14 18
f 19 15 14
f 20 1 17
f 20 3 1
f 21 18 2
f 21 2 4
f 21 4 3
f 21 3 20
f 25 23 22
f 25 26 23
f 27 5 6
f 27 26 5
f 27 23 26
f 27 24 23
f 29 5 26
f 29 8 5
f 29 7 8
f 29 28 7
f 28 26 25
f 28 29 26
f 30 27 6
f 30 6 9
f 9 8 29
f 9 29 30
f 31 7 28
f 31 10 7
f 29 8 11
f 29 11 32
f 11 10 31
f 11 31 32
f 39 33 38
f 39 34 33
f 40 12 13
f 40 39 12
f 39 35 34
f 39 40 35
f 41 13 14
f 41 40 13
f 42 14 15
f 42 41 14
f 45 36 44
f 45 37 36
f 46 37 45
f 46 38 37
f 47 12 39
f 47 16 12
f 46 39 38
f 46 47 39
f 48 17 16
f 48 16 47
f 42 15 19
f 42 19 50
f 19 18 49
f 19 49 50
f 49 41 42
f 49 42 50
f 52 43 51
f 52 44 43
f 53 44 52
f 53 45 44
f 48 20 17
f 48 55 20
f 54 48 47
f 54 55 48
f 56 49 18
f 56 18 21
f 56 21 20
f 56 20 55
f 61 22 23
f 61 60 22
f 62 23 24
f 62 61 23
f 65 57 64
f 65 58 57
f 65 59 58
f 65 66 59
f 60 25 22
f 60 67 25
f 67 59 66
f 67 60 59
f 69 62 24
f 69 24 27
f 68 61 62
f 68 62 69
f 71 63 70
f 71 64 63
f 71 65 64
f 71 72 65
f 73 65 72
f 73 66 65
f 74 25 67
f 74 28 25
f 76 69 27
f 76 27 30
f 30 29 75
f 30 75 76
f 77 28 74
f 77 31 28
f 75 29 32
f 75 32 78
f 78 32 31
f 78 31 77
f 80 33 34
f 80 79 33
f 35 80 34
f 35 81 80
f 83 36 37
f 83 82 36
f 84 33 79
f 84 38 33
f 84 37 38
f 84 83 37
f 85 81 35
f 85 35 40
f 86 40 41
f 86 85 40
f 89 36 82
f 89 44 36
f 89 43 44
f 89 88 43
f 46 45 90
f 46 90 91
f 92 47 46
f 92 46 91
f 86 41 49
f 86 49 94
f 93 85 86
f 93 86 94
f 88 51 43
f 88 96 51
f 96 87 95
f 96 88 87
f 97 52 51
f 97 51 96
f 90 45 53
f 90 53 98
f 98 53 52
f 98 52 97
f 92 54 47
f 92 100 54
f 99 92 91
f 99 100 92
f 101 55 54
f 101 54 100
f 94 49 56
f 94 56 102
f 102 56 55
f 102 55 101
f 102 101 93
f 102 93 94
f 104 96 103
f 104 97 96
f 58 105 57
f 58 106 105
f 107 58 59
f 107 106 58
f 108 59 60
f 108 107 59
f 109 60 61
f 109 108 60
f 105 64 57
f 105 111 64
f 111 63 64
f 111 110 63
f 112 111 105
f 112 105 106
f 67 66 113
f 67 113 114
f 109 61 68
f 109 68 115
f 114 108 109
f 114 109 115
f 116 68 69
f 116 115 68
f 110 70 63
f 110 118 70
f 119 71 70
f 119 70 118
f 120 72 71
f 120 71 119
f 113 66 73
f 113 73 121
f 73 72 120
f 73 120 121
f 122 67 114
f 122 74 67
f 122 113 121
f 122 114 113
f 116 69 76
f 116 76 124
f 124 76 75
f 124 75 123
f 123 115 116
f 123 116 124
f 126 117 125
f 126 118 117
f 127 118 126
f 127 119 118
f 128 119 127
f 128 120 119
f 122 77 74
f 122 129 77
f 123 75 78
f 123 78 130
f 130 78 77
f 130 77 129
f 132 125 131
f 132 126 125
f 80 133 79
f 80 134 133
f 81 134 80
f 81 135 134
f 83 136 82
f 83 137 136
f 133 84 79
f 133 138 84
f 84 137 83
f 84 138 137
f 139 138 133
f 139 133 134
f 140 135 81
f 140 81 85
f 142 87 88
f 142 141 87
f 136 89 82
f 136 143 89
f 89 142 88
f 89 143 142
f 144 143 136
f 144 136 137
f 145 91 90
f 145 90 144
f 145 144 137
f 145 137 138
f 140 85 93
f 140 93 147
f 141 95 87
f 141 148 95
f 149 96 95
f 149 95 148
f 149 148 141
f 149 141 142
f 151 144 90
f 151 90 98
f 151 98 97
f 151 97 150
f 151 150 143
f 151 143 144
f 152 91 145
f 152 99 91
f 153 100 99
f 153 99 152
f 152 145 146
f 152 146 153
f 154 147 93
f 154 93 101
f 154 101 100
f 154 100 153
f 154 153 146
f 154 146 147
f 149 103 96
f 149 156 103
f 155 149 148
f 155 156 149
f 150 97 104
f 150 104 157
f 157 104 103
f 157 103 156
f 107 161 106
f 107 162 161
f 108 162 107
f 108 163 162
f 163 158 162
f 163 159 158
f 164 159 163
f 164 160 159
f 166 110 111
f 166 165 110
f 161 112 106
f 161 167 112
f 112 166 111
f 112 167 166
f 168 167 161
f 168 161 162
f 169 163 108
f 169 108 114
f 115 169 114
f 115 170 169
f 165 118 110
f 165 172 118
f 172 117 118
f 172 171 117
f 173 172 165
f 173 165 166
f 174 173 166
f 174 166 167
f 121 120 174
f 121 174 175
f 175 174 167
f 175 167 168
f 122 121 175
f 122 175 176
f 170 115 123
f 170 123 177
f 171 125 117
f 171 178 125
f 179 178 171
f 179 171 172
f 180 127 126
f 180 126 179
f 174 120 128
f 174 128 181
f 181 128 127
f 181 127 180
f 181 180 173
f 181 173 174
f 182 122 176
f 182 129 122
f 183 177 123
f 183 123 130
f 183 130 129
f 183 129 182
f 183 182 176
f 183 176 177
f 184 125 178
f 184 131 125
f 185 179 126
f 185 126 132
f 132 131 184
f 132 184 185
f 185 184 178
f 185 178 179
f 135 186 134
f 135 187 186
f 186 139 134
f 186 189 139
f 139 188 138
f 139 189 188
f 187 135 140
f 187 140 190
f 192 142 143
f 192 191 142
f 193 138 188
f 193 145 138
f 146 145 193
f 146 193 194
f 194 193 188
f 194 188 189
f 195 190 140
f 195 140 147
f 195 147 146
f 195 146 194
f 197 142 191
f 197 149 142
f 149 196 148
f 149 197 196
f 192 143 150
f 192 150 198
f 198 197 191
f 198 191 192
f 196 155 148
f 196 199 155
f 200 156 155
f 200 155 199
f 200 199 196
f 200 196 197
f 198 150 157
f 198 157 201
f 201 157 156
f 201 156 200
f 201 200 197
f 201 197 198
f 203 158 159
f 203 202 158
f 160 203 159
f 160 204 203
f 206 158 202
f 206 162 158
f 204 160 164
f 204 164 208
f 164 163 207
f 164 207 208
f 209 204 208
f 209 205 204
f 210 162 206
f 210 168 162
f 207 163 169
f 207 169 211
f 210 206 207
f 210 207 211
f 212 169 170
f 212 211 169
f 212 207 211
f 212 208 207
f 214 172 173
f 214 213 172
f 215 168 210
f 215 175 168
f 176 175 215
f 176 215 216
f 216 215 210
f 216 210 211
f 217 212 170
f 217 170 177
f 177 176 216
f 177 216 217
f 217 216 211
f 217 211 212
f 213 179 172
f 213 218 179
f 214 173 180
f 214 180 219
f 219 180 179
f 219 179 218
f 218 213 214
f 218 214 219
f 187 220 186
f 187 221 220
f 223 186 220
f 223 189 186
f 224 221 187
f 224 187 190
f 224 223 220
f 224 220 221
f 224 222 221
f 224 225 222
f 227 189 223
f 227 194 189
f 228 224 190
f 228 190 195
f 195 194 227
f 195 227 228
f 228 227 223
f 228 223 224
f 229 226 225
f 229 230 226
f 231 230 229
f 231 232 230
f 203 233 202
f 203 234 233
f 204 234 203
f 204 235 234
f 236 204 205
f 236 235 204
f 237 202 233
f 237 206 202
f 238 207 206
f 238 206 237
f 237 233 234
f 237 234 238
f 236 205 209
f 236 209 240
f 209 208 239
f 209 239 240
f 239 235 236
f 239 236 240
f 241 207 238
f 241 211 207
f 242 239 208
f 242 208 212
f 212 211 241
f 212 241 242
f 242 240 239
f 242 243 240
f 244 243 242
f 244 245 243
f 247 244 246
f 247 245 244
f 252 248 251
f 252 249 248
f 254 250 253
f 254 251 250
f 255 251 254
f 255 252 251
f 258 257 256
f 258 259 257
f 261 260 259
f 261 262 260
f 222 263 221
f 222 264 263
f 263 224 221
f 263 266 224
f 264 222 225
f 264 225 267
f 267 225 224
f 267 224 266
f 267 266 263
f 267 263 264
f 226 267 225
f 226 268 267
f 270 265 269
f 270 266 265
f 267 229 225
f 267 271 229
f 268 226 230
f 268 230 272
f 271 267 268
f 271 268 272
f 273 270 269
f 273 274 270
f 271 231 229
f 271 275 231
f 274 271 270
f 274 275 271
f 272 230 232
f 272 232 276
f 276 232 231
f 276 231 275
f 278 274 277
f 278 275 274
f 283 279 282
f 283 280 279
f 286 281 285
f 286 282 281
f 288 284 287
f 288 285 284
f 288 286 285
f 288 289 286
f 291 290 289
f 291 292 290
f 295 234 235
f 295 294 234
f 296 292 291
f 296 297 292
f 297 293 292
f 297 298 293
f 294 238 234
f 294 299 238
f 295 235 239
f 295 239 300
f 299 294 295
f 299 295 300
f 240 300 239
f 240 301 300
f 299 241 238
f 299 303 241
f 242 241 303
f 242 303 304
f 303 299 300
f 303 300 304
f 301 240 243
f 301 243 305
f 307 302 306
f 307 303 302
f 304 244 242
f 304 308 244
f 308 303 307
f 308 304 303
f 305 243 245
f 305 245 309
f 308 304 305
f 308 305 309
f 311 244 308
f 311 246 244
f 310 308 307
f 310 311 308
f 312 309 245
f 312 245 247
f 312 247 246
f 312 246 311
f 249 313 248
f 249 314 313
f 313 251 248
f 313 317 251
f 251 316 250
f 251 317 316
f 314 249 252
f 314 252 318
f 318 317 313
f 318 313 314
f 319 314 318
f 319 315 314
f 316 253 250
f 316 320 253
f 321 254 253
f 321 253 320
f 321 320 316
f 321 316 317
f 318 252 255
f 318 255 322
f 322 255 254
f 322 254 321
f 323 321 320
f 323 324 321
f 325 256 257
f 325 324 256
f 324 322 321
f 324 325 322
f 324 258 256
f 324 327 258
f 326 324 323
f 326 327 324
f 328 325 257
f 328 257 259
f 328 259 258
f 328 258 327
f 260 328 259
f 260 329 328
f 328 261 259
f 328 331 261
f 330 328 327
f 330 331 328
f 329 260 262
f 329 262 332
f 262 261 331
f 262 331 332
f 338 330 337
f 338 331 330
f 338 332 331
f 338 339 332
f 339 333 332
f 339 340 333
f 342 334 341
f 342 335 334
f 343 265 266
f 343 342 265
f 343 335 342
f 343 336 335
f 344 340 339
f 344 345 340
f 345 341 340
f 345 346 341
f 347 265 342
f 347 269 265
f 346 342 341
f 346 347 342
f 343 266 270
f 343 270 348
f 347 342 343
f 347 343 348
f 349 270 271
f 349 348 270
f 350 271 272
f 350 349 271
f 351 269 347
f 351 273 269
f 274 273 351
f 274 351 352
f 351 347 348
f 351 348 352
f 352 348 349
f 352 349 353
f 350 272 276
f 350 276 354
f 354 276 275
f 354 275 353
f 354 353 349
f 354 349 350
f 355 274 352
f 355 277 274
f 353 275 278
f 353 278 356
f 278 277 355
f 278 355 356
f 355 352 353
f 355 353 356
f 280 358 279
f 280 359 358
f 362 279 358
f 362 282 279
f 362 281 282
f 362 361 281
f 362 357 361
f 362 358 357
f 363 359 280
f 363 280 283
f 283 282 362
f 283 362 363
f 364 359 363
f 364 360 359
f 366 281 361
f 366 285 281
f 285 365 284
f 285 366 365
f 362 282 286
f 362 286 367
f 365 287 284
f 365 368 287
f 288 287 368
f 288 368 369
f 368 365 366
f 368 366 369
f 370 367 286
f 370 286 289
f 370 289 288
f 370 288 369
f 290 370 289
f 290 371 370
f 373 289 370
f 373 291 289
f 372 370 369
f 372 373 370
f 374 371 290
f 374 290 292
f 293 374 292
f 293 375 374
f 373 296 291
f 373 380 296
f 379 373 372
f 379 380 373
f 381 297 296
f 381 296 380
f 375 293 298
f 375 298 382
f 298 297 381
f 298 381 382
f 385 376 384
f 385 377 376
f 385 378 377
f 385 386 378
f 387 300 301
f 387 386 300
f 389 383 388
f 389 384 383
f 390 302 303
f 390 389 302
f 390 384 389
f 390 385 384
f 391 300 386
f 391 304 300
f 391 303 304
f 391 390 303
f 392 387 301
f 392 301 305
f 392 305 304
f 392 304 391
f 391 386 387
f 391 387 392
f 394 302 389
f 394 306 302
f 393 389 388
f 393 394 389
f 395 307 306
f 395 306 394
f 391 304 308
f 391 308 396
f 397 308 309
f 397 396 308
f 395 310 307
f 395 398 310
f 399 311 310
f 399 310 398
f 398 395 396
f 398 396 399
f 397 309 312
f 397 312 400
f 400 312 311
f 400 311 399
f 399 396 397
f 399 397 400
f 315 403 314
f 315 404 403
f 405 401 404
f 405 402 401
f 407 314 403
f 407 318 314
f 318 406 317
f 318 407 406
f 408 404 315
f 408 315 319
f 319 318 407
f 319 407 408
f 409 404 408
f 409 405 404
f 406 321 317
f 406 411 321
f 411 320 321
f 411 410 320
f 412 407 318
f 412 318 322
f 412 411 406
f 412 406 407
f 410 323 320
f 410 413 323
f 414 413 410
f 414 410 411
f 412 322 325
f 412 325 415
f 415 414 411
f 415 411 412
f 416 323 413
f 416 326 323
f 417 327 326
f 417 326 416
f 416 413 414
f 416 414 417
f 415 325 328
f 415 328 418
f 417 414 415
f 417 415 418
f 329 418 328
f 329 419 418
f 417 330 327
f 417 420 330
f 420 417 418
f 420 418 421
f 419 329 332
f 419 332 422
f 333 422 332
f 333 423 422
f 425 334 335
f 425 424 334
f 336 425 335
f 336 426 425
f 428 330 420
f 428 337 330
f 338 337 428
f 338 428 429
f 429 428 420
f 429 420 421
f 339 338 429
f 339 429 430
f 429 421 422
f 429 422 430
f 431 423 333
f 431 333 340
f 424 341 334
f 424 432 341
f 341 431 340
f 341 432 431
f 434 426 336
f 434 336 343
f 343 342 433
f 343 433 434
f 434 427 426
f 434 435 427
f 436 339 430
f 436 344 339
f 437 345 344
f 437 344 436
f 346 345 437
f 346 437 438
f 439 433 342
f 439 342 347
f 439 347 346
f 439 346 438
f 439 438 432
f 439 432 433
f 358 443 357
f 358 444 443
f 359 444 358
f 359 445 444
f 445 440 444
f 445 441 440
f 360 445 359
f 360 446 445
f 446 441 445
f 446 442 441
f 447 357 443
f 447 361 357
f 448 447 443
f 448 443 444
f 363 362 448
f 363 448 449
f 449 448 444
f 449 444 445
f 450 446 360
f 450 360 364
f 364 363 449
f 364 449 450
f 450 449 445
f 450 445 446
f 451 361 447
f 451 366 361
f 448 362 367
f 448 367 452
f 452 451 447
f 452 447 448
f 451 369 366
f 451 453 369
f 452 367 370
f 452 370 454
f 453 451 452
f 453 452 454
f 455 370 371
f 455 454 370
f 453 372 369
f 453 456 372
f 455 371 374
f 455 374 458
f 457 454 455
f 457 455 458
f 459 374 375
f 459 458 374
f 377 460 376
f 377 461 460
f 378 461 377
f 378 462 461
f 463 372 456
f 463 379 372
f 464 380 379
f 464 379 463
f 464 463 456
f 464 456 457
f 381 380 464
f 381 464 465
f 464 457 458
f 464 458 465
f 459 375 382
f 459 382 466
f 382 381 465
f 382 465 466
f 465 458 459
f 465 459 466
f 468 376 460
f 468 384 376
f 468 383 384
f 468 467 383
f 470 462 378
f 470 378 386
f 470 386 385
f 470 385 469
f 471 466 465
f 471 472 466
f 473 383 467
f 473 388 383
f 472 467 466
f 472 473 467
f 475 469 385
f 475 385 390
f 474 468 469
f 474 469 475
f 476 390 391
f 476 475 390
f 477 388 473
f 477 393 388
f 478 394 393
f 478 393 477
f 477 473 474
f 477 474 478
f 479 395 394
f 479 394 478
f 478 474 475
f 478 475 479
f 476 391 396
f 476 396 480
f 480 396 395
f 480 395 479
f 479 475 476
f 479 476 480
f 402 481 401
f 402 482 481
f 484 401 481
f 484 404 401
f 404 483 403
f 404 484 483
f 482 402 405
f 482 405 485
f 485 484 481
f 485 481 482
f 486 403 483
f 486 407 403
f 408 407 486
f 408 486 487
f 487 486 483
f 487 483 484
f 485 405 409
f 485 409 488
f 409 408 487
f 409 487 488
f 419 489 418
f 419 490 489
f 489 421 418
f 489 491 421
f 490 419 422
f 490 422 492
f 422 421 491
f 422 491 492
f 491 489 490
f 491 490 492
f 493 422 423
f 493 492 422
f 495 424 425
f 495 494 424
f 496 425 426
f 496 495 425
f 427 496 426
f 427 497 496
f 492 430 422
f 492 498 430
f 493 423 431
f 493 431 499
f 498 492 493
f 498 493 499
f 494 432 424
f 494 500 432
f 432 499 431
f 432 500 499
f 501 433 432
f 501 432 500
f 502 434 433
f 502 433 501
f 502 501 495
f 502 495 496
f 497 427 435
f 497 435 503
f 435 434 502
f 435 502 503
f 502 496 497
f 502 497 503
f 498 436 430
f 498 504 436
f 437 436 504
f 437 504 505
f 504 498 499
f 504 499 505
f 506 500 432
f 506 432 438
f 506 438 437
f 506 437 505
f 506 505 499
f 506 499 500
f 441 507 440
f 441 508 507
f 442 508 441
f 442 509 508
f 510 440 507
f 510 444 440
f 445 444 510
f 445 510 511
f 510 507 508
f 510 508 511
f 512 509 442
f 512 442 446
f 446 445 511
f 446 511 512
f 514 453 454
f 514 513 453
f 515 453 513
f 515 456 453
f 514 454 457
f 514 457 516
f 457 456 515
f 457 515 516
f 515 513 514
f 515 514 516
f 461 517 460
f 461 518 517
f 519 461 462
f 519 518 461
f 466 520 465
f 466 521 520
f 467 521 466
f 467 522 521
f 517 468 460
f 517 523 468
f 468 522 467
f 468 523 522
f 524 469 468
f 524 468 523
f 524 523 517
f 524 517 518
f 525 519 462
f 525 462 470
f 470 469 524
f 470 524 525
f 525 524 518
f 525 518 519
f 520 471 465
f 520 526 471
f 527 472 471
f 527 471 526
f 526 520 521
f 526 521 527
f 528 473 472
f 528 472 527
f 527 521 522
f 527 522 528
f 529 523 468
f 529 468 474
f 529 474 473
f 529 473 528
f 529 528 522
f 529 522 523
f 485 530 484
f 485 531 530
f 530 487 484
f 530 532 487
f 531 485 488
f 531 488 533
f 488 487 532
f 488 532 533
f 534 533 532
f 534 535 533
f 537 494 495
f 537 536 494
f 538 494 536
f 538 500 494
f 537 495 501
f 537 501 539
f 501 500 538
f 501 538 539
f 538 536 537
f 538 537 539
f 509 540 508
f 509 541 540
f 540 511 508
f 540 542 511
f 541 509 512
f 541 512 543
f 512 511 542
f 512 542 543
f 542 540 541
f 542 541 543
f 544 543 542
f 544 545 543
f 531 546 530
f 531 547 546
f 546 532 530
f 546 548 532
f 547 531 533
f 547 533 549
f 549 548 546
f 549 546 547
f 548 534 532
f 548 550 534
f 549 533 535
f 549 535 551
f 535 534 550
f 535 550 551
f 550 548 549
f 550 549 551
f 543 552 542
f 543 553 552
f 552 544 542
f 552 554 544
f 553 543 545
f 553 545 555
f 555 545 544
f 555 544 554
f 557 552 553
f 557 556 552
f 556 554 552
f 556 558 554
f 557 553 555
f 557 555 559
f 559 555 554
f 559 554 558
f 558 556 557
f 558 557 559
