# parsimony mesh: cplx_CPLX0-3521 (source /Users/eranagmon/code/v2e-cplx/workspace/studies/ecoli-3d/viz/3d/structures/cplx_CPLX0-3521.pdb)
# atoms: 16239  voxel: 16 Å  verts: 393  tris: 768
v 81.7793 41.7146 -167.5486
v 86.4469 41.7146 -167.5486
v 80.8775 52.2373 -167.9613
v 89.7445 52.2373 -167.9613
v 80.4832 68.2373 -168.6436
v 93.4553 66.7050 -168.6048
v 100.6819 71.0169 -166.6212
v 80.9753 84.2373 -168.9555
v 91.9099 84.2373 -170.2525
v 101.0682 84.2373 -167.0041
v 82.8968 100.2373 -167.0094
v 90.5182 99.8297 -167.2381
v 100.6823 94.2245 -166.5222
v 83.8154 108.3298 -165.8636
v 84.2570 108.3298 -165.8636
v 63.1009 43.4840 -151.0545
v 76.2315 41.3104 -156.9155
v 91.8321 41.6025 -156.5320
v 100.1802 43.9708 -150.4153
v 50.4985 55.3174 -151.3533
v 58.6245 50.8853 -152.7314
v 72.8775 52.2373 -160.2528
v 97.7445 52.2373 -162.1311
v 100.6160 52.2373 -154.1311
v 50.4985 62.1754 -151.3533
v 60.6251 67.8001 -152.8892
v 72.4832 68.2373 -160.4500
v 98.8270 67.1932 -158.5845
v 100.6315 67.1932 -158.5845
v 65.8829 84.2373 -151.7508
v 72.9753 84.2373 -159.7508
v 97.8350 79.7671 -151.6048
v 100.9824 84.7552 -157.2457
v 66.6819 93.4370 -150.8216
v 76.1798 99.3571 -156.7758
v 93.6819 102.4545 -157.7071
v 100.6715 94.4545 -157.7071
v 83.1896 108.7574 -157.7071
v 85.6819 108.7574 -157.7071
v 63.1009 43.4840 -144.4426
v 74.3396 42.2124 -140.1484
v 91.3567 42.5044 -142.9747
v 100.1802 43.9708 -149.1531
v 49.3740 56.2015 -141.7071
v 58.6245 47.4336 -140.1484
v 67.9595 44.2788 -133.7759
v 96.3212 48.1487 -138.4865
v 100.9382 52.9841 -142.9747
v 49.3740 62.8003 -141.7071
v 56.0066 70.8003 -141.7071
v 97.8350 74.0362 -148.3089
v 101.8854 68.5166 -142.4682
v 61.9061 84.2373 -141.7071
v 97.8350 79.7671 -148.3089
v 102.0755 84.7552 -142.4682
v 65.8094 94.1839 -141.7071
v 76.9904 102.0713 -142.0521
v 91.5192 102.6283 -142.0521
v 101.2302 94.8802 -141.7071
v 83.0440 108.8383 -147.6154
v 85.9255 108.8383 -147.6154
v 34.1337 27.9732 -117.9711
v 36.2106 27.9732 -117.9711
v 16.0030 40.4217 -119.2155
v 28.4442 35.5479 -121.7119
v 42.4903 37.2765 -121.6968
v 53.4787 43.3027 -119.1903
v 78.6261 43.2178 -129.2046
v 85.6545 43.2178 -129.2046
v 16.0030 47.7986 -119.2155
v 27.3275 52.7741 -124.0582
v 44.3280 53.5606 -130.4431
v 59.2512 49.0800 -124.9970
v 74.3396 46.7875 -124.6056
v 90.8924 52.0521 -125.3483
v 100.6823 58.8154 -132.1587
v 32.2726 64.7190 -121.8815
v 43.3483 68.5511 -127.0046
v 53.5135 72.3831 -132.1277
v 95.2246 68.2373 -122.4736
v 101.8759 68.2373 -130.4736
v 47.4232 79.7626 -121.4610
v 56.8499 84.7525 -126.3595
v 83.0330 91.8286 -118.1119
v 92.0295 85.5921 -121.4027
v 102.4346 84.2373 -130.0230
v 64.8822 93.7740 -125.7071
v 76.9837 95.3434 -124.3500
v 91.9099 96.4992 -128.3987
v 101.4273 94.7921 -131.5578
v 3.8555 28.1778 -101.8636
v 4.6621 28.1778 -101.8636
v 34.1337 27.9732 -116.6005
v 36.2106 27.9732 -116.6005
v 3.8555 28.7884 -101.8636
v 9.9274 34.0808 -106.3456
v 28.4442 30.9899 -110.6432
v 42.3268 36.8553 -111.1380
v 53.4787 43.3027 -116.3421
v 13.8764 49.2782 -109.7071
v 27.3275 56.6378 -109.3662
v 43.4298 52.6050 -107.0773
v 59.2512 52.5317 -114.2316
v 75.9099 55.3939 -115.5764
v 85.4636 55.9554 -116.8437
v 32.2726 64.7190 -114.4723
v 42.8179 69.3263 -112.8349
v 59.9099 68.2373 -110.5460
v 75.9099 68.2373 -112.2891
v 87.2246 68.2373 -115.7861
v 47.4232 79.7626 -115.2715
v 60.0313 84.7525 -114.1451
v 76.9837 85.5921 -114.5877
v 86.7758 81.1620 -116.0092
v 65.4456 92.8905 -116.8911
v 72.3663 92.8905 -116.8911
v 3.8555 28.1778 -101.6438
v 4.6621 28.1778 -101.6438
v 3.8555 28.7884 -101.6438
v 10.9613 35.1318 -97.1085
v 27.2245 38.8612 -94.2708
v 37.7763 41.0745 -99.9800
v 15.6858 47.8629 -93.7071
v 27.2245 49.1056 -94.2708
v 37.7763 47.5169 -99.9800
v 17.8416 42.2397 -77.7071
v 23.0386 42.2397 -77.7071
v 17.8416 46.9521 -77.7071
v 23.0386 46.9521 -77.7071
v 18.6466 42.9371 -65.1959
v 22.5571 42.9371 -65.1959
v 18.6466 46.1828 -65.1959
v 22.5571 46.1828 -65.1959
v 83.4396 -164.2211 25.8422
v 84.4676 -164.2211 25.8422
v 83.4396 -159.8990 25.8422
v 84.4676 -159.8990 25.8422
v 83.8601 -132.5740 26.2562
v 84.9902 -132.5740 26.2562
v 83.8601 -130.9532 26.2562
v 84.9902 -130.9532 26.2562
v 83.0975 -104.1880 25.4860
v 85.7764 -104.1880 25.4860
v 83.0975 -98.6052 25.4860
v 85.7764 -98.6052 25.4860
v -108.8756 89.7782 25.7857
v -107.2735 89.7782 25.7857
v -108.8756 94.4841 25.7857
v -107.2735 94.4841 25.7857
v 83.4396 -164.2211 27.4884
v 84.4676 -164.2211 27.4884
v 64.1739 -148.6967 40.9416
v 79.1369 -154.4274 33.3397
v 88.7203 -154.6435 33.2215
v 101.0431 -149.2010 40.6658
v 64.1739 -143.9162 40.9416
v 76.3996 -138.2451 33.9164
v 90.9581 -138.6495 29.9356
v 100.9505 -139.7627 38.3974
v 79.7151 -124.8770 33.0758
v 90.9581 -124.8770 29.6895
v 100.5009 -123.7627 38.0600
v 80.7042 -108.8179 33.0758
v 91.4298 -108.8179 30.4176
v 101.1814 -107.7627 38.9701
v 81.8810 -97.1142 34.2929
v 91.4298 -96.7186 34.4809
v 101.0714 -98.2207 39.9395
v -124.6477 44.0906 41.7710
v -116.0901 43.3013 39.3580
v -106.2481 43.1360 38.9016
v -142.2154 58.1590 41.4696
v -130.8247 52.5903 38.9354
v -116.0901 52.2373 33.0098
v -104.7212 52.2373 36.5892
v -142.2154 62.6617 41.4696
v -131.9198 68.0919 37.8362
v -116.0901 68.2373 31.3223
v -104.5847 68.2373 36.2756
v -126.4730 77.9746 39.9390
v -115.2506 83.8764 33.8779
v -104.0754 84.3618 33.6073
v -110.4195 99.9854 35.5512
v -105.1925 99.9854 35.5512
v -108.3181 108.3242 41.7235
v -107.9278 108.3242 41.7235
v 61.7978 -149.9645 50.2929
v 75.9099 -153.8433 50.2929
v 91.9099 -153.2762 50.2929
v 101.1685 -149.3974 50.2929
v 61.4708 -139.0548 49.2765
v 68.9391 -133.2495 43.2656
v 102.3437 -139.7627 50.2929
v 63.8662 -123.7627 52.8151
v 70.7037 -123.7627 44.8151
v 103.0006 -123.7627 50.2929
v 65.7838 -107.7627 56.0505
v 72.5122 -107.7627 48.0505
v 102.7069 -107.7627 50.2929
v 67.8842 -99.7387 58.2461
v 76.3742 -97.1551 51.8648
v 91.9099 -95.3494 50.2929
v 100.7915 -98.5910 50.2929
v -127.8293 42.9833 50.2929
v -116.0901 41.0060 50.2929
v -105.3290 42.2599 50.2929
v -142.4390 56.1754 50.2929
v -135.8293 48.1754 50.2929
v -100.7889 52.2373 50.2929
v -142.1827 68.0919 50.9619
v -137.1396 73.3283 46.0746
v -96.8436 68.0219 50.9238
v -91.1067 73.2117 56.6777
v -140.4460 78.4529 56.7413
v -132.4806 83.5471 50.9948
v -121.6255 88.6413 45.2483
v -96.5011 84.0769 50.9238
v -91.1067 78.6366 56.6777
v -127.8216 95.3047 55.9150
v -116.4120 100.4778 50.4662
v -102.9813 100.2373 50.2929
v -108.3409 108.3162 50.2929
v -107.9495 108.3162 50.2929
v 33.1646 -150.3339 72.2743
v 43.9099 -150.0228 71.0444
v 58.8618 -149.2534 66.5052
v 75.9099 -152.4323 66.2929
v 91.8214 -150.7177 65.5506
v 100.4548 -148.5040 59.7225
v 32.9866 -139.7627 71.8396
v 43.9099 -139.7627 68.1730
v 54.6631 -139.7627 62.6262
v 97.0957 -143.2639 70.3891
v 101.2043 -138.6635 65.5506
v 34.7575 -130.2820 73.0405
v 44.4858 -124.4743 70.4727
v 55.8662 -123.7627 62.4570
v 102.7642 -123.7627 66.2929
v 50.2030 -114.1572 71.7544
v 61.1591 -107.5982 65.1679
v 75.9099 -102.2089 69.1431
v 91.9099 -104.8277 68.9650
v 101.2342 -109.0236 64.7236
v 67.8842 -99.7387 58.5814
v 75.9099 -98.2836 61.1431
v 91.9099 -98.2864 60.9650
v 99.9238 -99.7424 58.3440
v -158.1663 43.4137 73.4581
v -154.0584 43.4137 73.4581
v -128.5182 42.7121 62.8024
v -116.0901 41.9420 63.9718
v -106.2506 42.7021 61.3554
v -159.7684 52.2373 72.2362
v -147.5775 51.8364 67.5885
v -133.1469 47.6246 67.3986
v -116.0901 46.8380 71.9718
v -103.6305 52.0495 66.5304
v -158.9183 64.1077 72.3855
v -149.7717 68.9595 66.7484
v -96.8849 68.0219 65.8235
v -91.1067 73.2117 60.1773
v -142.8365 83.9666 67.5750
v -138.4883 89.1195 63.0963
v -97.5162 84.0769 65.8235
v -91.1067 78.6366 60.1773
v -140.2047 92.2979 73.7630
v -132.7290 94.7920 67.5750
v -114.5539 102.0165 64.7089
v -105.3503 99.4981 64.7089
v -108.1965 108.2556 58.3196
v -108.0650 108.2556 58.3196
v 2.7387 -165.9425 88.1846
v 11.9099 -166.6603 85.7127
v 27.9099 -166.5889 85.7129
v 37.3579 -165.8472 88.1849
v 2.8348 -155.7627 88.4031
v 11.9099 -155.7627 83.3263
v 27.8627 -155.7054 78.5666
v 43.1787 -156.8125 82.6281
v 59.3728 -148.8941 80.7399
v 75.9099 -148.9126 75.9990
v 86.4291 -149.2554 76.4893
v 3.6477 -147.4944 89.8815
v 11.9099 -146.2453 87.9065
v 26.7146 -140.3098 82.2306
v 62.1773 -139.7627 85.4022
v 75.9099 -139.7627 81.7141
v 91.8214 -138.6635 77.9881
v 100.2096 -132.5973 74.7024
v 34.4747 -130.0872 82.2929
v 44.4858 -123.6371 82.5993
v 59.5926 -124.9104 88.5819
v 75.4303 -123.9252 87.1184
v 91.9099 -123.7627 79.7090
v 100.2646 -123.7627 74.7276
v 50.2030 -114.1572 77.4703
v 60.3781 -111.9789 82.5993
v 75.4303 -110.9333 82.5464
v 91.9099 -112.8277 76.7373
v 100.0830 -115.1975 74.4630
v -189.0787 27.7757 89.0497
v -180.0901 27.2335 87.8709
v -164.0901 27.5115 88.7079
v -156.0102 28.1463 90.1657
v -190.4190 36.2373 87.1550
v -180.0901 36.2373 83.3869
v -163.7358 37.3431 80.8022
v -153.5219 37.3431 83.8166
v -190.2068 46.6836 87.3522
v -180.0901 49.5959 85.8090
v -168.2564 53.4564 82.0702
v -144.5840 52.1588 83.1952
v -132.0901 54.9745 79.0394
v -116.0901 54.8380 77.4414
v -105.9005 57.2577 76.3328
v -161.7408 66.2126 82.2929
v -148.5794 68.6938 85.2231
v -132.0901 64.5515 87.0394
v -117.3506 69.4297 84.7046
v -104.6364 68.2373 77.6890
v -145.0298 83.5846 80.7579
v -132.0901 86.4397 84.8873
v -117.3506 83.4519 85.0050
v -104.9530 84.2373 77.1700
v -140.2047 92.2979 74.4014
v -132.0901 93.1301 76.8873
v -116.0901 94.1607 77.8168
v -106.3227 93.6720 75.6408
v 2.7387 -165.9425 94.6747
v 11.2221 -166.4686 99.3219
v 27.0640 -166.4115 97.6801
v 37.3579 -165.8472 91.9382
v 2.8348 -155.7627 93.8507
v 8.4305 -155.7627 101.8507
v 30.0600 -155.7627 101.4951
v 43.1787 -155.0045 93.3602
v 53.6813 -149.1657 91.1355
v 3.6477 -147.4944 90.6549
v 13.0142 -146.1784 96.9101
v 28.3343 -141.2433 97.1843
v 43.9099 -139.7627 93.3591
v 54.1773 -139.7627 91.0220
v 35.1487 -131.0094 90.7848
v 43.9099 -130.7162 90.7590
v 59.5926 -124.9104 90.6156
v 69.7772 -118.7001 90.8089
v 66.0236 -115.1189 90.8089
v 69.7772 -115.1189 90.8089
v -189.0787 27.7757 91.4257
v -180.0901 27.2335 92.3293
v -164.0901 27.5115 91.5422
v -156.0102 28.1463 90.3763
v -190.4190 36.2373 94.9125
v -181.3661 36.9468 101.3380
v -164.7618 36.9468 98.9143
v -154.4037 36.2373 91.8829
v -190.2068 46.6836 95.3195
v -181.3661 49.1770 99.7088
v -165.6695 52.4638 97.2246
v -151.2312 52.2373 92.6904
v -160.7962 64.3340 91.4531
v -147.9408 68.1681 91.3778
v -132.0901 72.5515 91.2243
v -123.5243 75.5580 90.5251
v -144.1014 77.8161 91.3026
v -132.0901 78.4397 91.2243
v -123.5243 77.5950 90.5251
v 16.0969 -164.4090 107.4584
v 21.1667 -164.4090 107.4584
v 16.4305 -155.7627 110.4353
v 22.0600 -155.7627 110.4353
v 19.0837 -147.1454 110.6506
v 21.5199 -147.1454 110.6506
v -177.1225 42.2567 114.2929
v -169.9642 42.2567 114.2929
v -177.1225 46.3378 114.2929
v -169.9642 46.3378 114.2929
v 19.6707 -148.1084 135.0094
v 20.5440 -148.1084 135.0094
v 19.6707 -147.2141 135.0094
v 20.5440 -147.2141 135.0094
v -173.6100 43.3095 130.2929
v -171.0562 43.3095 130.2929
v -173.6100 46.0927 130.2929
v -171.0562 46.0927 130.2929
v 19.6707 -148.1084 140.6778
v 20.5440 -148.1084 140.6778
v 19.6707 -147.2141 140.6778
v 20.5440 -147.2141 140.6778
v -172.2001 44.1569 138.4349
v -171.9989 44.1569 138.4349
v -172.2001 44.9984 138.4349
v -171.9989 44.9984 138.4349
f 3 2 1
f 3 4 2
f 5 4 3
f 5 6 4
f 9 5 8
f 9 6 5
f 9 7 6
f 9 10 7
f 12 8 11
f 12 9 8
f 13 9 12
f 13 10 9
f 15 11 14
f 15 12 11
f 2 17 1
f 2 18 17
f 22 1 17
f 22 3 1
f 22 16 21
f 22 17 16
f 18 2 4
f 18 4 23
f 24 18 23
f 24 19 18
f 25 21 20
f 25 26 21
f 27 3 22
f 27 5 3
f 26 22 21
f 26 27 22
f 23 4 6
f 23 6 28
f 7 28 6
f 7 29 28
f 29 23 28
f 29 24 23
f 31 5 27
f 31 8 5
f 30 27 26
f 30 31 27
f 33 29 7
f 33 7 10
f 32 28 29
f 32 29 33
f 35 8 31
f 35 11 8
f 34 31 30
f 34 35 31
f 33 10 13
f 33 13 37
f 13 12 36
f 13 36 37
f 38 11 35
f 38 14 11
f 36 12 15
f 36 15 39
f 41 16 17
f 41 40 16
f 42 17 18
f 42 41 17
f 43 18 19
f 43 42 18
f 40 21 16
f 40 45 21
f 21 44 20
f 21 45 44
f 46 45 40
f 46 40 41
f 43 19 24
f 43 24 48
f 47 42 43
f 47 43 48
f 44 25 20
f 44 49 25
f 50 26 25
f 50 25 49
f 52 48 24
f 52 24 29
f 29 28 51
f 29 51 52
f 50 30 26
f 50 53 30
f 51 28 32
f 51 32 54
f 33 54 32
f 33 55 54
f 55 51 54
f 55 52 51
f 53 34 30
f 53 56 34
f 57 35 34
f 57 34 56
f 55 33 37
f 55 37 59
f 59 37 36
f 59 36 58
f 60 35 57
f 60 38 35
f 61 58 36
f 61 36 39
f 60 57 58
f 60 58 61
f 65 63 62
f 65 66 63
f 69 41 42
f 69 68 41
f 71 64 70
f 71 65 64
f 71 66 65
f 71 72 66
f 45 72 44
f 45 73 72
f 72 67 66
f 72 73 67
f 68 46 41
f 68 74 46
f 46 73 45
f 46 74 73
f 69 42 47
f 69 47 75
f 74 68 69
f 74 69 75
f 76 47 48
f 76 75 47
f 72 49 44
f 72 78 49
f 77 72 71
f 77 78 72
f 79 50 49
f 79 49 78
f 76 48 52
f 76 52 81
f 80 75 76
f 80 76 81
f 79 53 50
f 79 83 53
f 82 79 78
f 82 83 79
f 86 81 52
f 86 52 55
f 86 85 80
f 86 80 81
f 87 53 83
f 87 56 53
f 88 57 56
f 88 56 87
f 89 58 57
f 89 57 88
f 89 88 84
f 89 84 85
f 90 86 55
f 90 55 59
f 59 58 89
f 59 89 90
f 89 85 86
f 89 86 90
f 63 93 62
f 63 94 93
f 95 92 91
f 95 96 92
f 97 62 93
f 97 65 62
f 97 64 65
f 97 96 64
f 94 63 66
f 94 66 98
f 97 93 94
f 97 94 98
f 99 66 67
f 99 98 66
f 100 64 96
f 100 70 64
f 101 71 70
f 101 70 100
f 99 67 73
f 99 73 103
f 102 98 99
f 102 99 103
f 74 103 73
f 74 104 103
f 105 74 75
f 105 104 74
f 101 77 71
f 101 106 77
f 107 78 77
f 107 77 106
f 106 101 102
f 106 102 107
f 108 107 102
f 108 102 103
f 108 103 104
f 108 104 109
f 105 75 80
f 105 80 110
f 109 104 105
f 109 105 110
f 107 82 78
f 107 111 82
f 83 82 111
f 83 111 112
f 111 107 108
f 111 108 112
f 112 108 109
f 112 109 113
f 114 110 80
f 114 80 85
f 114 85 84
f 114 84 113
f 114 113 109
f 114 109 110
f 115 83 112
f 115 87 83
f 116 113 84
f 116 84 88
f 116 88 87
f 116 87 115
f 115 112 113
f 115 113 116
f 92 117 91
f 92 118 117
f 117 95 91
f 117 119 95
f 118 92 96
f 118 96 120
f 96 95 119
f 96 119 120
f 119 117 118
f 119 118 120
f 121 96 97
f 121 120 96
f 122 97 98
f 122 121 97
f 120 100 96
f 120 123 100
f 124 101 100
f 124 100 123
f 122 98 102
f 122 102 125
f 125 102 101
f 125 101 124
f 124 121 122
f 124 122 125
f 121 126 120
f 121 127 126
f 126 123 120
f 126 128 123
f 127 121 124
f 127 124 129
f 129 124 123
f 129 123 128
f 127 130 126
f 127 131 130
f 132 126 130
f 132 128 126
f 133 131 127
f 133 127 129
f 129 128 132
f 129 132 133
f 132 130 131
f 132 131 133
f 136 135 134
f 136 137 135
f 140 139 138
f 140 141 139
f 144 143 142
f 144 145 143
f 148 147 146
f 148 149 147
f 135 150 134
f 135 151 150
f 150 136 134
f 150 153 136
f 151 135 137
f 151 137 154
f 154 137 136
f 154 136 153
f 154 153 150
f 154 150 151
f 157 152 156
f 157 153 152
f 158 138 139
f 158 157 138
f 158 153 157
f 158 154 153
f 158 155 154
f 158 159 155
f 160 138 157
f 160 140 138
f 161 158 139
f 161 139 141
f 161 141 140
f 161 140 160
f 162 158 161
f 162 159 158
f 143 163 142
f 143 164 163
f 163 161 160
f 163 164 161
f 164 162 161
f 164 165 162
f 166 142 163
f 166 144 142
f 164 143 145
f 164 145 167
f 145 144 166
f 145 166 167
f 167 165 164
f 167 168 165
f 174 169 173
f 174 170 169
f 174 171 170
f 174 175 171
f 177 172 176
f 177 173 172
f 178 173 177
f 178 174 173
f 179 174 178
f 179 175 174
f 180 178 177
f 180 181 178
f 182 146 147
f 182 181 146
f 181 179 178
f 181 182 179
f 183 146 181
f 183 148 146
f 182 147 149
f 182 149 184
f 149 148 183
f 149 183 184
f 186 183 185
f 186 184 183
f 188 152 153
f 188 187 152
f 189 153 154
f 189 188 153
f 155 189 154
f 155 190 189
f 187 156 152
f 187 191 156
f 192 157 156
f 192 156 191
f 193 190 155
f 193 155 159
f 192 160 157
f 192 195 160
f 194 192 191
f 194 195 192
f 196 193 159
f 196 159 162
f 195 163 160
f 195 198 163
f 198 194 197
f 198 195 194
f 196 162 165
f 196 165 199
f 198 166 163
f 198 201 166
f 200 198 197
f 200 201 198
f 202 167 166
f 202 166 201
f 199 165 168
f 199 168 203
f 168 167 202
f 168 202 203
f 205 169 170
f 205 204 169
f 171 205 170
f 171 206 205
f 208 169 204
f 208 173 169
f 208 172 173
f 208 207 172
f 209 206 171
f 209 171 175
f 207 176 172
f 207 210 176
f 211 177 176
f 211 176 210
f 209 175 179
f 209 179 212
f 211 180 177
f 211 215 180
f 214 211 210
f 214 215 211
f 216 181 180
f 216 180 215
f 217 212 179
f 217 179 182
f 218 212 217
f 218 213 212
f 216 183 181
f 216 220 183
f 219 216 215
f 219 220 216
f 221 217 182
f 221 182 184
f 220 185 183
f 220 222 185
f 221 184 186
f 221 186 223
f 227 187 188
f 227 226 187
f 228 188 189
f 228 227 188
f 229 189 190
f 229 228 189
f 230 225 224
f 230 231 225
f 232 187 226
f 232 191 187
f 232 225 231
f 232 226 225
f 229 190 193
f 229 193 234
f 233 228 229
f 233 229 234
f 235 231 230
f 235 236 231
f 232 194 191
f 232 237 194
f 236 232 231
f 236 237 232
f 234 193 196
f 234 196 238
f 237 197 194
f 237 240 197
f 239 237 236
f 239 240 237
f 243 238 196
f 243 196 199
f 244 197 240
f 244 200 197
f 245 201 200
f 245 200 244
f 244 240 241
f 244 241 245
f 246 202 201
f 246 201 245
f 246 245 241
f 246 241 242
f 247 243 199
f 247 199 203
f 247 203 202
f 247 202 246
f 247 246 242
f 247 242 243
f 205 250 204
f 205 251 250
f 252 205 206
f 252 251 205
f 253 249 248
f 253 254 249
f 250 208 204
f 250 255 208
f 208 254 207
f 208 255 254
f 256 255 250
f 256 250 251
f 252 206 209
f 252 209 257
f 256 251 252
f 256 252 257
f 259 207 254
f 259 210 207
f 258 254 253
f 258 259 254
f 260 257 209
f 260 209 212
f 213 260 212
f 213 261 260
f 259 214 210
f 259 262 214
f 263 215 214
f 263 214 262
f 261 213 218
f 261 218 265
f 265 218 217
f 265 217 264
f 265 264 260
f 265 260 261
f 263 219 215
f 263 267 219
f 266 263 262
f 266 267 263
f 268 220 219
f 268 219 267
f 269 264 217
f 269 217 221
f 270 220 268
f 270 222 220
f 271 269 221
f 271 221 223
f 271 270 268
f 271 268 269
f 276 273 272
f 276 277 273
f 277 274 273
f 277 278 274
f 279 224 225
f 279 278 224
f 278 275 274
f 278 279 275
f 280 225 226
f 280 279 225
f 281 226 227
f 281 280 226
f 282 227 228
f 282 281 227
f 284 276 283
f 284 277 276
f 285 224 278
f 285 230 224
f 284 278 277
f 284 285 278
f 287 286 280
f 287 280 281
f 282 228 233
f 282 233 288
f 287 281 282
f 287 282 288
f 289 233 234
f 289 288 233
f 290 230 285
f 290 235 230
f 291 236 235
f 291 235 290
f 293 292 286
f 293 286 287
f 294 293 287
f 294 287 288
f 289 234 238
f 289 238 295
f 294 288 289
f 294 289 295
f 296 236 291
f 296 239 236
f 297 240 239
f 297 239 296
f 296 291 292
f 296 292 297
f 298 241 240
f 298 240 297
f 299 242 241
f 299 241 298
f 298 293 294
f 298 294 299
f 300 295 238
f 300 238 243
f 300 243 242
f 300 242 299
f 300 299 294
f 300 294 295
f 306 301 305
f 306 302 301
f 306 303 302
f 306 307 303
f 308 248 249
f 308 307 248
f 307 304 303
f 307 308 304
f 309 306 305
f 309 310 306
f 311 248 307
f 311 253 248
f 311 306 310
f 311 307 306
f 312 308 249
f 312 249 254
f 313 254 255
f 313 312 254
f 256 313 255
f 256 314 313
f 315 256 257
f 315 314 256
f 311 258 253
f 311 316 258
f 317 259 258
f 317 258 316
f 318 317 312
f 318 312 313
f 318 313 314
f 318 314 319
f 315 257 260
f 315 260 320
f 320 319 314
f 320 314 315
f 321 259 317
f 321 262 259
f 320 260 264
f 320 264 324
f 324 323 319
f 324 319 320
f 325 262 321
f 325 266 262
f 326 267 266
f 326 266 325
f 325 321 322
f 325 322 326
f 327 268 267
f 327 267 326
f 327 326 322
f 327 322 323
f 328 324 264
f 328 264 269
f 328 269 268
f 328 268 327
f 327 323 324
f 327 324 328
f 273 329 272
f 273 330 329
f 331 273 274
f 331 330 273
f 332 274 275
f 332 331 274
f 333 272 329
f 333 276 272
f 334 333 329
f 334 329 330
f 336 332 275
f 336 275 279
f 335 331 332
f 335 332 336
f 337 279 280
f 337 336 279
f 338 276 333
f 338 283 276
f 284 283 338
f 284 338 339
f 339 338 333
f 339 333 334
f 340 285 284
f 340 284 339
f 340 335 336
f 340 336 341
f 337 280 286
f 337 286 342
f 341 336 337
f 341 337 342
f 343 285 340
f 343 290 285
f 344 291 290
f 344 290 343
f 343 340 341
f 343 341 344
f 345 342 286
f 345 286 292
f 292 291 344
f 292 344 345
f 344 341 342
f 344 342 345
f 346 292 293
f 346 345 292
f 347 292 345
f 347 297 292
f 348 346 293
f 348 293 298
f 348 298 297
f 348 297 347
f 347 345 346
f 347 346 348
f 350 301 302
f 350 349 301
f 303 350 302
f 303 351 350
f 304 351 303
f 304 352 351
f 349 305 301
f 349 353 305
f 353 349 350
f 353 350 354
f 355 354 350
f 355 350 351
f 356 352 304
f 356 304 308
f 356 355 351
f 356 351 352
f 353 309 305
f 353 357 309
f 310 309 357
f 310 357 358
f 357 353 354
f 357 354 358
f 359 311 310
f 359 310 358
f 360 356 308
f 360 308 312
f 359 355 356
f 359 356 360
f 361 311 359
f 361 316 311
f 360 312 317
f 360 317 362
f 317 316 361
f 317 361 362
f 361 359 360
f 361 360 362
f 318 362 317
f 318 363 362
f 364 318 319
f 364 363 318
f 365 317 362
f 365 321 317
f 322 321 365
f 322 365 366
f 365 362 363
f 365 363 366
f 364 319 323
f 364 323 367
f 367 323 322
f 367 322 366
f 366 363 364
f 366 364 367
f 369 330 331
f 369 368 330
f 368 334 330
f 368 370 334
f 369 331 335
f 369 335 371
f 370 368 369
f 370 369 371
f 372 334 370
f 372 339 334
f 373 371 335
f 373 335 340
f 373 340 339
f 373 339 372
f 372 370 371
f 372 371 373
f 375 354 355
f 375 374 354
f 376 354 374
f 376 358 354
f 377 375 355
f 377 355 359
f 377 359 358
f 377 358 376
f 380 379 378
f 380 381 379
f 375 382 374
f 375 383 382
f 382 376 374
f 382 384 376
f 383 375 377
f 383 377 385
f 377 376 384
f 377 384 385
f 379 386 378
f 379 387 386
f 386 380 378
f 386 388 380
f 387 379 381
f 387 381 389
f 381 380 388
f 381 388 389
f 388 386 387
f 388 387 389
f 383 390 382
f 383 391 390
f 392 382 390
f 392 384 382
f 393 391 383
f 393 383 385
f 385 384 392
f 385 392 393
f 392 390 391
f 392 391 393
