# parsimony mesh: cplx_CPLX0-3581 (source /Users/eranagmon/code/v2e-cplx/workspace/studies/ecoli-3d/viz/3d/structures/cplx_CPLX0-3581.pdb)
# atoms: 2234  voxel: 16 Å  verts: 79  tris: 142
v 18.5537 -39.2845 -12.0868
v 28.1512 -39.7277 -13.0633
v 44.1512 -38.4877 -11.8846
v 52.1867 -37.6312 -10.5152
v 18.0920 -29.5747 -12.2995
v 28.1512 -29.5747 -15.6376
v 45.4218 -30.5919 -13.1697
v 52.1867 -36.6034 -10.5152
v 19.0031 -20.6064 -11.2961
v 28.1512 -18.9474 -13.0497
v 40.9355 -19.0399 -13.0870
v -45.5586 24.0982 -12.2587
v -35.8488 22.7717 -13.7721
v -19.8488 22.8467 -13.6773
v -10.4040 24.1983 -12.1324
v -45.5586 30.0463 -12.2587
v -36.0331 34.9979 -14.0576
v -20.4498 34.0438 -13.9818
v -10.4040 28.4561 -12.1324
v -30.8227 43.9090 -12.0501
v -26.1838 43.9090 -12.0501
v 17.0809 -40.3775 -2.4754
v 28.1512 -41.7593 -2.4754
v 44.1512 -39.1036 -2.4754
v 52.3027 -37.7218 -2.4754
v 14.7906 -29.5747 -2.4754
v 48.8355 -28.6278 -2.4754
v 52.3027 -36.6278 -2.4754
v 17.8609 -18.9054 -2.4754
v 29.3492 -11.5184 -1.3276
v 40.0383 -13.6538 -1.3276
v 35.4812 -5.3607 4.7709
v 36.3840 -5.3607 4.7709
v -46.4879 21.1388 -2.4754
v -35.8488 17.5032 -2.4754
v -18.7349 22.1807 -1.4432
v -10.4040 24.1983 -6.0885
v -46.0888 34.9979 -1.5541
v -41.4893 40.7130 -6.2733
v -16.4869 34.0438 -1.4432
v -10.4040 28.4561 -6.0885
v -44.0633 42.6905 4.3934
v -36.0331 45.4984 -1.5541
v -25.0388 46.0678 -2.4754
v 16.5371 -40.5054 13.5246
v 27.9204 -40.3281 13.0282
v 44.1512 -38.1905 7.0004
v 52.3177 -37.7143 5.6530
v 16.1165 -29.6509 13.7838
v 27.9204 -29.6509 15.8401
v 43.4281 -31.0000 7.6579
v 52.3177 -37.2835 5.6530
v 18.2456 -18.9839 8.6233
v 29.3492 -13.6202 8.4759
v 37.4219 -13.5747 6.8898
v -44.3923 10.0260 17.8635
v -43.3757 10.0260 17.8635
v 35.4812 -5.3607 5.7570
v 36.3840 -5.3607 5.7570
v -45.0250 18.5510 14.3070
v -39.5759 19.4093 16.1114
v -24.0040 24.2048 13.5246
v -45.3664 34.4253 9.7124
v -37.2960 34.6369 17.6737
v -23.5240 34.6369 14.3235
v -44.0633 42.6905 5.8824
v -35.8488 45.1540 8.7915
v -25.7672 45.7983 9.5227
v 17.8285 -39.4550 22.3555
v 22.4332 -39.4550 22.3555
v 17.8285 -35.0351 22.3555
v 22.4332 -35.0351 22.3555
v -44.3923 10.0260 21.9240
v -43.3757 10.0260 21.9240
v -44.3923 15.3983 21.9240
v -38.1516 20.5829 22.0036
v -27.2456 25.7676 22.0832
v -32.9274 29.4447 22.0832
v -27.2456 29.4447 22.0832
f 6 1 5
f 6 2 1
f 6 3 2
f 6 7 3
f 8 3 7
f 8 4 3
f 9 6 5
f 9 10 6
f 11 6 10
f 11 7 6
f 16 13 12
f 16 17 13
f 18 13 17
f 18 14 13
f 19 14 18
f 19 15 14
f 21 17 20
f 21 18 17
f 23 1 2
f 23 22 1
f 3 23 2
f 3 24 23
f 4 24 3
f 4 25 24
f 26 1 22
f 26 5 1
f 8 7 27
f 8 27 28
f 26 9 5
f 26 29 9
f 10 9 29
f 10 29 30
f 27 7 11
f 27 11 31
f 31 11 10
f 31 10 30
f 33 30 32
f 33 31 30
f 35 12 13
f 35 34 12
f 14 35 13
f 14 36 35
f 37 14 15
f 37 36 14
f 34 16 12
f 34 38 16
f 39 17 16
f 39 16 38
f 37 15 19
f 37 19 41
f 19 18 40
f 19 40 41
f 41 40 36
f 41 36 37
f 39 20 17
f 39 43 20
f 42 39 38
f 42 43 39
f 44 40 18
f 44 18 21
f 44 21 20
f 44 20 43
f 46 22 23
f 46 45 22
f 47 23 24
f 47 46 23
f 48 24 25
f 48 47 24
f 45 26 22
f 45 49 26
f 51 50 46
f 51 46 47
f 52 28 27
f 52 27 51
f 52 51 47
f 52 47 48
f 53 26 49
f 53 29 26
f 30 29 53
f 30 53 54
f 53 49 50
f 53 50 54
f 51 27 31
f 51 31 55
f 55 54 50
f 55 50 51
f 54 32 30
f 54 58 32
f 55 31 33
f 55 33 59
f 33 32 58
f 33 58 59
f 58 54 55
f 58 55 59
f 35 60 34
f 35 61 60
f 60 57 56
f 60 61 57
f 62 35 36
f 62 61 35
f 63 34 60
f 63 38 34
f 63 60 61
f 63 61 64
f 62 36 40
f 62 40 65
f 63 42 38
f 63 66 42
f 67 43 42
f 67 42 66
f 67 66 63
f 67 63 64
f 68 65 40
f 68 40 44
f 68 44 43
f 68 43 67
f 67 64 65
f 67 65 68
f 70 45 46
f 70 69 45
f 71 45 69
f 71 49 45
f 72 70 46
f 72 46 50
f 72 50 49
f 72 49 71
f 57 73 56
f 57 74 73
f 75 56 73
f 75 60 56
f 74 57 61
f 74 61 76
f 61 60 75
f 61 75 76
f 77 61 62
f 77 76 61
f 78 61 76
f 78 64 61
f 79 77 62
f 79 62 65
f 79 65 64
f 79 64 78
