# parsimony mesh: cplx_CPLX0-7922 (source /Users/eranagmon/code/v2e-cplx/workspace/studies/ecoli-3d/viz/3d/structures/cplx_CPLX0-7922.pdb)
# atoms: 3208  voxel: 16 Å  verts: 98  tris: 186
v 35.6099 -41.4946 -16.0853
v 44.4885 -42.8297 -17.7166
v 60.4885 -41.9386 -17.2344
v 68.6900 -40.3064 -15.4423
v 35.6888 -32.0036 -15.9529
v 44.4885 -32.0036 -18.7033
v 60.8160 -32.9543 -17.4935
v 68.6900 -38.9214 -15.4423
v 36.3008 -23.7387 -15.2318
v 44.4885 -22.6961 -16.0564
v 55.7010 -22.5252 -16.2232
v -32.2673 35.9851 -17.2662
v -19.5115 34.5044 -18.3713
v -10.1265 36.6851 -17.2753
v -32.6026 47.9964 -17.3514
v -19.6393 48.1883 -18.2184
v -10.1265 42.9829 -17.2753
v -29.5438 56.8599 -15.9155
v -25.0578 56.8599 -15.9155
v 4.0592 -56.7325 0.3043
v 12.4885 -57.8426 -0.5948
v 23.3328 -57.7268 -0.4772
v 4.0592 -55.1471 0.3043
v 12.8818 -49.0897 -1.2319
v 29.4714 -47.6459 -5.8919
v 44.4885 -46.3373 -7.0697
v 60.4429 -42.4816 -8.2433
v 68.6900 -40.3064 -14.3590
v 18.4773 -37.1046 -0.6400
v 27.6546 -31.8642 -6.4119
v 52.2701 -24.2699 0.6558
v 60.7234 -31.5956 -6.8516
v 68.6900 -38.9214 -14.3590
v 34.1051 -20.8572 -7.0697
v 45.9574 -20.5994 -5.6344
v 55.7010 -22.5252 -10.0108
v -59.9525 7.6706 0.5613
v -59.1703 7.6706 0.5613
v -61.8094 15.9964 -0.6998
v -52.9068 17.0684 -1.7699
v -39.3669 23.1164 -1.3966
v -62.1343 28.4687 -0.8742
v -52.5377 33.0798 -4.3897
v -35.8171 30.4087 -7.9341
v -17.9475 32.9044 -5.5091
v -10.1265 36.6851 -9.8021
v -47.5596 47.9964 -4.2027
v -40.6026 47.9964 -12.2027
v -16.1839 48.1883 -5.5091
v -10.1265 42.9829 -9.8021
v -44.5320 57.4441 -1.1785
v -35.1309 57.5959 -6.7350
v -25.3070 56.9100 -7.0697
v 4.0592 -56.7325 1.8645
v 12.4885 -57.8426 4.3776
v 23.3328 -57.7268 4.5926
v 4.0592 -55.1471 1.8645
v 12.9291 -49.4933 8.5618
v 28.5951 -52.9095 9.5277
v 44.4618 -45.1380 8.6787
v 55.0792 -41.5536 3.1776
v 17.1494 -34.8106 8.9303
v 28.2944 -26.4102 10.3572
v 45.6904 -29.6043 9.9097
v 55.0792 -34.9365 3.1776
v 33.4983 -20.0733 5.9751
v 41.6034 -20.0733 5.9751
v -59.9525 7.6706 1.3194
v -59.1703 7.6706 1.3194
v -62.1425 16.9044 7.5637
v -52.9068 16.0069 7.5637
v -39.3880 22.8745 8.9303
v -62.6974 33.0798 7.9513
v -58.5552 39.1354 1.9653
v -31.6585 30.8980 9.6337
v -22.2381 35.4991 4.7693
v -60.8774 41.6679 12.6320
v -51.5436 47.8205 8.2994
v -34.9573 48.3824 11.7799
v -23.1922 47.9964 4.2148
v -44.5320 57.4441 3.9669
v -35.5115 57.3482 3.6130
v -27.0259 56.3511 1.4706
v 18.0476 -43.8395 18.7792
v 28.4885 -45.7909 19.8244
v 39.1107 -43.8841 18.9401
v 18.0476 -35.9786 18.7792
v 28.4885 -33.1861 19.8244
v 39.1107 -34.9387 18.9401
v -60.8327 22.8432 18.1635
v -51.5115 22.6696 18.3271
v -42.1582 23.3806 17.5595
v -61.5268 31.9964 19.0036
v -51.5115 31.9964 21.0371
v -39.8037 31.9964 18.9638
v -60.8774 41.6679 18.4615
v -51.5115 43.7326 19.6403
v -39.9212 43.3065 19.0124
f 6 1 5
f 6 2 1
f 6 3 2
f 6 7 3
f 8 3 7
f 8 4 3
f 9 6 5
f 9 10 6
f 11 6 10
f 11 7 6
f 16 12 15
f 16 13 12
f 17 13 16
f 17 14 13
f 19 15 18
f 19 16 15
f 23 21 20
f 23 24 21
f 24 22 21
f 24 25 22
f 26 1 2
f 26 25 1
f 27 2 3
f 27 26 2
f 28 3 4
f 28 27 3
f 30 1 25
f 30 5 1
f 29 25 24
f 29 30 25
f 33 8 7
f 33 7 32
f 33 32 27
f 33 27 28
f 34 5 30
f 34 9 5
f 10 9 34
f 10 34 35
f 36 32 7
f 36 7 11
f 36 11 10
f 36 10 35
f 36 35 31
f 36 31 32
f 39 38 37
f 39 40 38
f 42 40 39
f 42 43 40
f 43 41 40
f 43 44 41
f 45 12 13
f 45 44 12
f 46 13 14
f 46 45 13
f 48 12 44
f 48 15 12
f 48 43 47
f 48 44 43
f 46 14 17
f 46 17 50
f 50 17 16
f 50 16 49
f 50 49 45
f 50 45 46
f 52 15 48
f 52 18 15
f 51 48 47
f 51 52 48
f 53 49 16
f 53 16 19
f 53 19 18
f 53 18 52
f 21 54 20
f 21 55 54
f 22 55 21
f 22 56 55
f 54 23 20
f 54 57 23
f 24 23 57
f 24 57 58
f 57 54 55
f 57 55 58
f 59 56 22
f 59 22 25
f 58 55 56
f 58 56 59
f 60 25 26
f 60 59 25
f 61 26 27
f 61 60 26
f 58 29 24
f 58 62 29
f 63 30 29
f 63 29 62
f 65 61 27
f 65 27 32
f 65 32 31
f 65 31 64
f 65 64 60
f 65 60 61
f 66 30 63
f 66 34 30
f 67 64 31
f 67 31 35
f 67 35 34
f 67 34 66
f 67 66 63
f 67 63 64
f 38 68 37
f 38 69 68
f 68 39 37
f 68 70 39
f 69 38 40
f 69 40 71
f 70 68 69
f 70 69 71
f 41 71 40
f 41 72 71
f 70 42 39
f 70 73 42
f 74 43 42
f 74 42 73
f 75 72 41
f 75 41 44
f 76 44 45
f 76 75 44
f 74 47 43
f 74 78 47
f 77 74 73
f 77 78 74
f 76 45 49
f 76 49 80
f 79 75 76
f 79 76 80
f 81 47 78
f 81 51 47
f 82 52 51
f 82 51 81
f 81 78 79
f 81 79 82
f 80 49 53
f 80 53 83
f 83 53 52
f 83 52 82
f 83 82 79
f 83 79 80
f 59 84 58
f 59 85 84
f 86 59 60
f 86 85 59
f 84 62 58
f 84 87 62
f 88 63 62
f 88 62 87
f 87 84 85
f 87 85 88
f 89 86 60
f 89 60 64
f 89 64 63
f 89 63 88
f 88 85 86
f 88 86 89
f 71 90 70
f 71 91 90
f 72 91 71
f 72 92 91
f 90 73 70
f 90 93 73
f 94 93 90
f 94 90 91
f 95 92 72
f 95 72 75
f 94 91 92
f 94 92 95
f 93 77 73
f 93 96 77
f 97 78 77
f 97 77 96
f 96 93 94
f 96 94 97
f 98 95 75
f 98 75 79
f 98 79 78
f 98 78 97
f 98 97 94
f 98 94 95
