# parsimony mesh: cplx_CPLX0-3956 (source /Users/eranagmon/code/v2e-cplx/workspace/studies/ecoli-3d/viz/3d/structures/cplx_CPLX0-3956.pdb)
# atoms: 4677  voxel: 16 Å  verts: 248  tris: 480
v 39.3467 -5.4411 -139.7355
v 49.7561 -6.8402 -141.0337
v 59.4159 -5.9452 -140.2131
v 39.3467 0.3859 -139.7355
v 49.7561 1.9091 -141.0337
v 59.4159 -0.1065 -140.2131
v 23.0190 -20.2783 -122.8082
v 27.8762 -20.2783 -122.8082
v 9.5155 -4.3780 -122.0634
v 16.9628 -10.3864 -122.4358
v 33.2771 -10.9708 -126.8352
v 50.3099 -7.7297 -129.3979
v 59.4159 -5.9452 -134.4261
v 9.5155 -3.1358 -122.0634
v 10.9065 -3.1358 -122.0634
v 38.0634 5.2719 -128.9694
v 49.0148 5.4730 -128.7357
v 59.4159 -0.1065 -134.4261
v 41.5061 12.7746 -123.0453
v 42.0170 12.7746 -123.0453
v 23.0190 -20.2783 -120.4333
v 27.8762 -20.2783 -120.4333
v 7.6688 -4.4914 -113.8556
v 16.5486 -9.5929 -116.6746
v 33.0686 -11.2118 -120.3378
v 45.3458 -6.0286 -120.2422
v -6.7600 9.4981 -106.3829
v 3.0312 3.1812 -112.1393
v 12.7628 3.1589 -113.0797
v 38.9473 4.6008 -120.5013
v 44.6441 4.6008 -120.5013
v -6.7600 13.1466 -106.3829
v 1.7561 14.4738 -107.2812
v 12.1809 14.5523 -107.2290
v 41.5061 12.7746 -121.6632
v 42.0170 12.7746 -121.6632
v -6.7543 -3.9114 -92.9320
v 1.4809 -3.8940 -98.6340
v 11.1919 -3.8766 -104.3360
v -6.7572 3.5891 -98.8454
v -0.4503 1.8421 -99.1187
v 12.6516 4.6008 -102.8970
v -6.7600 13.1466 -104.7588
v 1.7561 14.4738 -103.2142
v 12.1809 14.5523 -103.4304
v -6.7543 -3.9114 -89.3148
v -4.2518 -3.9114 -89.3148
v -6.7543 -2.3199 -89.3148
v -4.2518 -2.3199 -89.3148
v -56.2412 -4.3466 -43.4185
v -53.2736 -4.3466 -43.4185
v -56.2412 -0.6335 -43.4185
v -53.2736 -0.6335 -43.4185
v 57.5298 -116.2349 -25.8742
v 57.7760 -116.2349 -25.8742
v 57.5298 -115.3756 -25.8742
v 57.7760 -115.3756 -25.8742
v -70.3960 -3.4867 -26.1043
v -63.1391 -3.9166 -33.0981
v -53.2736 -4.3466 -40.0919
v -71.5073 4.6008 -27.4737
v -63.2489 2.3575 -32.8815
v -53.2736 -0.6335 -40.0919
v -71.7764 13.6144 -27.7643
v -68.1319 13.6144 -27.7643
v 56.5174 123.2231 -25.9212
v 57.8304 123.2231 -25.9212
v 56.5174 124.6987 -25.9212
v 57.8304 124.6987 -25.9212
v 39.8022 -132.7029 -13.7240
v 49.7561 -133.0936 -16.3821
v 58.7739 -132.3546 -14.6891
v 38.8885 -123.3992 -15.9259
v 51.2203 -122.3006 -24.0120
v 58.5832 -122.3006 -19.1557
v 39.8865 -113.4953 -14.0809
v 51.2203 -114.0559 -18.7908
v 58.0266 -115.1480 -17.8556
v -103.2866 -6.0711 -10.6953
v -94.2439 -7.2896 -11.7757
v -76.7352 -5.2338 -17.2878
v -69.8082 -3.8060 -17.8556
v -103.0897 4.6008 -10.5506
v -94.5433 5.9436 -11.4438
v -76.4195 5.2343 -17.1994
v -68.6282 4.0182 -17.6359
v -102.3289 12.6878 -9.9425
v -100.0761 12.6878 -9.9425
v -71.7764 13.6144 -22.8228
v -68.1319 13.6144 -22.8228
v 39.7282 107.3630 -12.9648
v 49.7561 107.1668 -15.3576
v 58.4898 107.9265 -14.0823
v 38.6609 116.6008 -15.7592
v 50.6129 117.3742 -23.5145
v 58.6663 117.3742 -18.7916
v 39.6571 127.0252 -14.6179
v 50.6129 126.5196 -19.1129
v 58.3435 125.1811 -17.8556
v 8.7388 -132.4715 5.0067
v 17.7561 -133.4120 4.1401
v 34.7232 -132.8567 -0.5061
v 49.7561 -133.0936 -5.9182
v 58.7739 -132.3546 -8.8394
v 8.7388 -129.3246 5.0067
v 17.7561 -128.2362 4.1401
v 35.4832 -125.4185 1.1566
v 48.3314 -123.1158 -0.1079
v 58.7750 -123.3992 -8.8462
v 39.7596 -113.7694 -1.8556
v 48.3314 -113.9086 -3.2578
v 58.0968 -115.0879 -9.5259
v -103.3220 -20.3947 3.0099
v -94.2439 -20.3785 3.1379
v -85.9131 -19.7094 5.2703
v -105.1640 -11.4023 -2.1363
v -94.2439 -15.2896 -4.8621
v -79.6194 -10.2176 -1.8647
v -69.8699 -3.8541 -8.9996
v -106.2297 4.6008 -1.8556
v -89.4095 12.1722 -9.3825
v -79.0963 5.2343 -3.8577
v -69.8699 -1.7036 -8.9996
v -103.3881 13.5285 -1.8556
v -94.5433 14.0854 -3.1717
v -84.8669 13.8382 1.2842
v 9.4503 108.2876 5.7640
v 17.7561 107.0736 4.4367
v 34.8613 107.1204 -0.6399
v 49.7561 107.1668 -6.0461
v 58.4898 107.9265 -9.1040
v 9.4503 109.7567 5.7640
v 17.7561 111.9594 4.4367
v 34.9079 114.5414 1.0562
v 48.6173 116.1124 -0.0009
v 58.8381 116.6008 -8.7830
v 38.4018 126.9709 -1.8556
v 48.6173 126.9023 -3.0485
v 58.4650 125.2766 -9.1771
v 8.7388 -132.4715 8.3813
v 17.7561 -133.4120 8.7577
v 29.6442 -133.0105 7.3920
v -7.3935 -118.1860 19.5933
v 4.7487 -123.6757 14.1104
v 16.2387 -123.8488 13.4527
v 35.3040 -123.4250 6.8825
v 42.0483 -117.5935 6.3731
v -7.3935 -113.4489 19.5933
v 3.0964 -107.8290 18.7378
v 13.3973 -107.3992 19.7995
v 40.9637 -115.1300 6.3731
v 42.0483 -115.1300 6.3731
v 9.3232 -99.1940 21.4497
v 10.1517 -99.1940 21.4497
v -103.3220 -20.3947 9.5575
v -94.2439 -20.3785 9.0053
v -85.9131 -19.7094 6.5459
v -105.3587 -11.9996 14.5923
v -94.2439 -14.8880 17.0053
v -84.1252 -10.3898 12.7853
v -105.5762 5.1293 14.6309
v -94.2439 9.3718 19.2384
v -83.4975 4.6892 14.5332
v -103.6845 13.7507 9.6218
v -94.2439 14.3913 11.2384
v -84.8669 13.8382 9.4590
v 9.4503 108.2876 6.7587
v 17.7561 107.0736 7.6772
v 29.9944 106.8778 7.5739
v -7.3716 122.4695 19.7210
v 5.0536 116.7391 13.5446
v 17.7561 117.6380 13.5901
v 31.7902 119.1001 11.7234
v 42.5247 121.1202 6.7164
v -7.3716 126.8241 19.7210
v 2.4524 132.3348 18.0801
v 16.9312 131.3130 18.7754
v 32.6880 125.2288 13.7981
v 42.5247 125.3366 6.7164
v 8.2499 141.2446 20.0511
v 11.0479 141.2446 20.0511
v -7.3935 -118.1860 25.5701
v 1.7561 -119.4391 25.4554
v 14.2155 -117.9989 23.1334
v -7.3935 -113.4489 25.5701
v 3.0964 -107.8290 24.9169
v 13.3973 -107.3992 23.0408
v 9.3232 -99.1940 22.3506
v 10.1517 -99.1940 22.3506
v -103.6111 -7.0665 24.8137
v -94.2439 -6.8880 25.3820
v -85.2950 -4.3836 23.7920
v -103.6111 0.1482 24.8137
v -94.2439 1.3718 25.3820
v -85.2950 -0.5852 23.7920
v -7.3716 122.4695 25.9146
v 1.7561 121.9760 25.4886
v 17.7561 123.3167 22.8456
v 25.9934 124.2571 22.3905
v -7.3716 126.8241 25.9146
v 2.4524 132.3348 25.2120
v 16.9312 131.3130 23.0975
v 25.9934 125.1211 22.3905
v 8.2499 141.2446 22.7981
v 11.0479 141.2446 22.7981
v 39.4578 -5.3030 100.4788
v 49.7561 -6.7586 99.4358
v 59.4836 -5.9746 100.1985
v 39.4578 -0.0910 100.4788
v 49.7561 1.5112 99.4358
v 59.4836 -0.1601 100.1985
v 24.2317 -19.9374 117.5747
v 27.1931 -19.9374 117.5747
v 24.2317 -17.5858 117.5747
v 33.2624 -11.3720 113.3289
v 51.1896 -7.5945 111.5773
v 59.4836 -5.9746 107.1992
v 38.0770 4.9857 110.3669
v 50.1412 5.2078 111.5238
v 59.4836 -0.1601 107.1992
v 40.8797 13.2551 115.8485
v 42.8039 13.2551 115.8485
v 24.2317 -19.9374 119.2780
v 27.1931 -19.9374 119.2780
v 8.9145 -3.5098 133.3571
v 17.1815 -10.5478 126.3175
v 32.9960 -11.7489 119.6113
v 46.8119 -5.9120 119.9446
v 5.4731 4.6008 132.7879
v 11.5477 4.6008 132.7879
v 38.8809 4.6008 120.0925
v 46.3338 4.6008 120.0925
v 4.8869 14.2088 133.1231
v 11.7696 14.2088 133.1231
v 40.8797 13.2551 118.9417
v 42.8039 13.2551 118.9417
v -6.9011 -4.0860 146.5389
v 3.2117 -3.7979 140.8103
v 10.1314 -3.5098 135.0816
v -6.9011 -1.8744 146.5389
v 2.0598 1.8257 141.0808
v 11.5477 4.6008 136.9872
v 4.8869 14.2088 136.9976
v 11.7696 14.2088 136.9976
v -6.9011 -4.0860 150.9306
v -2.4911 -4.0860 150.9306
v -6.9011 -1.8744 150.9306
v -2.4911 -1.8744 150.9306
f 4 2 1
f 4 5 2
f 6 2 5
f 6 3 2
f 11 7 10
f 11 8 7
f 12 1 2
f 12 11 1
f 13 2 3
f 13 12 2
f 15 9 14
f 15 10 9
f 16 1 11
f 16 4 1
f 17 5 4
f 17 4 16
f 13 3 6
f 13 6 18
f 18 6 5
f 18 5 17
f 18 17 12
f 18 12 13
f 20 16 19
f 20 17 16
f 8 21 7
f 8 22 21
f 21 10 7
f 21 24 10
f 24 9 10
f 24 23 9
f 25 22 8
f 25 8 11
f 25 11 10
f 25 10 24
f 25 24 21
f 25 21 22
f 26 11 12
f 26 25 11
f 23 14 9
f 23 28 14
f 24 10 15
f 24 15 29
f 29 15 14
f 29 14 28
f 30 11 25
f 30 16 11
f 26 12 17
f 26 17 31
f 30 25 26
f 30 26 31
f 33 27 32
f 33 28 27
f 34 28 33
f 34 29 28
f 30 19 16
f 30 35 19
f 31 17 20
f 31 20 36
f 20 19 35
f 20 35 36
f 36 35 30
f 36 30 31
f 39 23 24
f 39 38 23
f 38 28 23
f 38 41 28
f 41 27 28
f 41 40 27
f 41 37 40
f 41 38 37
f 39 24 29
f 39 29 42
f 41 38 39
f 41 39 42
f 43 27 40
f 43 32 27
f 33 32 43
f 33 43 44
f 43 40 41
f 43 41 44
f 42 29 34
f 42 34 45
f 45 34 33
f 45 33 44
f 44 41 42
f 44 42 45
f 47 37 38
f 47 46 37
f 48 37 46
f 48 40 37
f 49 47 38
f 49 38 41
f 49 41 40
f 49 40 48
f 48 46 47
f 48 47 49
f 52 51 50
f 52 53 51
f 56 55 54
f 56 57 55
f 60 50 51
f 60 59 50
f 59 52 50
f 59 62 52
f 62 58 61
f 62 59 58
f 60 51 53
f 60 53 63
f 63 53 52
f 63 52 62
f 63 62 59
f 63 59 60
f 65 61 64
f 65 62 61
f 68 67 66
f 68 69 67
f 73 71 70
f 73 74 71
f 75 54 55
f 75 74 54
f 75 71 74
f 75 72 71
f 74 56 54
f 74 77 56
f 77 73 76
f 77 74 73
f 78 75 55
f 78 55 57
f 78 57 56
f 78 56 77
f 82 58 59
f 82 81 58
f 83 80 79
f 83 84 80
f 85 58 81
f 85 61 58
f 84 81 80
f 84 85 81
f 82 59 62
f 82 62 86
f 88 83 87
f 88 84 83
f 89 61 85
f 89 64 61
f 86 62 65
f 86 65 90
f 65 64 89
f 65 89 90
f 89 85 86
f 89 86 90
f 94 92 91
f 94 95 92
f 96 66 67
f 96 95 66
f 96 92 95
f 96 93 92
f 98 66 95
f 98 68 66
f 98 94 97
f 98 95 94
f 99 96 67
f 99 67 69
f 99 69 68
f 99 68 98
f 103 70 71
f 103 102 70
f 104 71 72
f 104 103 71
f 105 101 100
f 105 106 101
f 107 70 102
f 107 73 70
f 106 102 101
f 106 107 102
f 108 107 102
f 108 102 103
f 109 104 72
f 109 72 75
f 109 108 103
f 109 103 104
f 110 73 107
f 110 76 73
f 111 77 76
f 111 76 110
f 112 109 75
f 112 75 78
f 112 78 77
f 112 77 111
f 111 108 109
f 111 109 112
f 117 79 80
f 117 116 79
f 117 113 116
f 117 114 113
f 118 80 81
f 118 117 80
f 117 115 114
f 117 118 115
f 119 81 82
f 119 118 81
f 120 79 116
f 120 83 79
f 85 84 121
f 85 121 122
f 123 119 82
f 123 82 86
f 123 86 85
f 123 85 122
f 122 118 119
f 122 119 123
f 120 87 83
f 120 124 87
f 121 84 88
f 121 88 125
f 88 87 124
f 88 124 125
f 126 121 125
f 126 122 121
f 130 91 92
f 130 129 91
f 131 92 93
f 131 130 92
f 132 128 127
f 132 133 128
f 134 91 129
f 134 94 91
f 133 129 128
f 133 134 129
f 135 134 129
f 135 129 130
f 136 131 93
f 136 93 96
f 136 135 130
f 136 130 131
f 137 94 134
f 137 97 94
f 138 98 97
f 138 97 137
f 139 136 96
f 139 96 99
f 139 99 98
f 139 98 138
f 138 135 136
f 138 136 139
f 141 100 101
f 141 140 100
f 142 101 102
f 142 141 101
f 140 105 100
f 140 144 105
f 145 106 105
f 145 105 144
f 145 144 140
f 145 140 141
f 142 102 107
f 142 107 146
f 146 107 106
f 146 106 145
f 145 141 142
f 145 142 146
f 147 107 108
f 147 146 107
f 149 143 148
f 149 144 143
f 150 144 149
f 150 145 144
f 151 107 146
f 151 110 107
f 152 147 108
f 152 108 111
f 152 111 110
f 152 110 151
f 151 146 147
f 151 147 152
f 153 150 149
f 153 154 150
f 156 113 114
f 156 155 113
f 157 114 115
f 157 156 114
f 158 113 155
f 158 116 113
f 159 158 155
f 159 155 156
f 160 157 115
f 160 115 118
f 159 156 157
f 159 157 160
f 158 120 116
f 158 161 120
f 163 160 118
f 163 118 122
f 164 120 161
f 164 124 120
f 125 124 164
f 125 164 165
f 164 161 162
f 164 162 165
f 163 122 126
f 163 126 166
f 126 125 165
f 126 165 166
f 166 165 162
f 166 162 163
f 168 127 128
f 168 167 127
f 169 128 129
f 169 168 128
f 167 132 127
f 167 171 132
f 172 133 132
f 172 132 171
f 172 171 167
f 172 167 168
f 169 129 134
f 169 134 173
f 173 134 133
f 173 133 172
f 172 168 169
f 172 169 173
f 174 134 135
f 174 173 134
f 176 170 175
f 176 171 170
f 177 171 176
f 177 172 171
f 178 134 173
f 178 137 134
f 178 172 177
f 178 173 172
f 174 135 138
f 174 138 179
f 179 138 137
f 179 137 178
f 178 173 174
f 178 174 179
f 181 176 180
f 181 177 176
f 183 143 144
f 183 182 143
f 184 144 145
f 184 183 144
f 182 148 143
f 182 185 148
f 186 149 148
f 186 148 185
f 185 182 183
f 185 183 186
f 184 145 150
f 184 150 187
f 186 183 184
f 186 184 187
f 186 153 149
f 186 188 153
f 187 150 154
f 187 154 189
f 154 153 188
f 154 188 189
f 188 186 187
f 188 187 189
f 159 190 158
f 159 191 190
f 192 159 160
f 192 191 159
f 193 158 190
f 193 161 158
f 162 161 193
f 162 193 194
f 193 190 191
f 193 191 194
f 192 160 163
f 192 163 195
f 195 163 162
f 195 162 194
f 194 191 192
f 194 192 195
f 197 170 171
f 197 196 170
f 198 171 172
f 198 197 171
f 199 172 173
f 199 198 172
f 196 175 170
f 196 200 175
f 201 176 175
f 201 175 200
f 200 196 197
f 200 197 201
f 201 197 198
f 201 198 202
f 199 173 178
f 199 178 203
f 203 178 177
f 203 177 202
f 203 202 198
f 203 198 199
f 204 176 201
f 204 180 176
f 202 177 181
f 202 181 205
f 205 204 201
f 205 201 202
f 209 207 206
f 209 210 207
f 211 207 210
f 211 208 207
f 214 213 212
f 214 215 213
f 216 206 207
f 216 215 206
f 217 207 208
f 217 216 207
f 218 206 215
f 218 209 206
f 219 210 209
f 219 209 218
f 217 208 211
f 217 211 220
f 220 211 210
f 220 210 219
f 220 219 216
f 220 216 217
f 222 218 221
f 222 219 218
f 213 223 212
f 213 224 223
f 223 214 212
f 223 226 214
f 227 224 213
f 227 213 215
f 227 215 214
f 227 214 226
f 227 226 223
f 227 223 224
f 228 215 216
f 228 227 215
f 230 225 229
f 230 226 225
f 231 215 227
f 231 218 215
f 228 216 219
f 228 219 232
f 231 227 228
f 231 228 232
f 234 229 233
f 234 230 229
f 231 221 218
f 231 235 221
f 232 219 222
f 232 222 236
f 222 221 235
f 222 235 236
f 236 235 231
f 236 231 232
f 239 225 226
f 239 238 225
f 241 225 238
f 241 229 225
f 240 238 237
f 240 241 238
f 239 226 230
f 239 230 242
f 241 238 239
f 241 239 242
f 243 229 241
f 243 233 229
f 242 230 234
f 242 234 244
f 234 233 243
f 234 243 244
f 243 241 242
f 243 242 244
f 246 237 238
f 246 245 237
f 245 240 237
f 245 247 240
f 248 246 238
f 248 238 241
f 248 241 240
f 248 240 247
