# parsimony mesh: cplx_CPLX0-7810 (source /Users/eranagmon/code/v2e-cplx/workspace/studies/ecoli-3d/viz/3d/structures/cplx_CPLX0-7810.pdb)
# atoms: 6588  voxel: 16 Å  verts: 172  tris: 350
v 21.4022 -37.9350 -27.6481
v 31.0566 -38.2601 -27.3543
v 39.6856 -36.5316 -25.6219
v 21.7332 -27.1797 -27.1074
v 29.5309 -28.5440 -26.9805
v 39.6856 -34.7870 -25.6219
v 22.9464 -19.0854 -25.2928
v 23.1805 -19.0854 -25.2928
v -57.3813 44.7690 -25.2495
v -56.4993 44.7690 -25.2495
v -28.6131 40.6418 -25.7632
v -23.4149 40.6418 -25.7632
v -74.0422 56.5418 -26.7061
v -63.9390 50.7300 -25.9778
v -56.4993 44.9182 -25.2495
v -28.6131 45.8607 -25.7632
v -23.4149 45.8607 -25.7632
v -74.0422 62.6841 -26.7061
v -70.4968 62.6841 -26.7061
v 38.3241 -68.1866 -10.0712
v 47.0566 -68.4958 -10.5740
v 63.0566 -68.1594 -10.8081
v 72.0637 -67.7382 -10.3834
v 22.0894 -52.2921 -11.8108
v 32.2171 -58.2471 -13.1575
v 47.0566 -59.1797 -16.7074
v 63.0566 -59.1797 -18.2965
v 73.7547 -59.1797 -13.7761
v 20.8406 -43.2329 -17.1651
v 31.0566 -46.2601 -21.4918
v 45.8340 -42.3908 -21.7627
v 63.0566 -43.1797 -20.2108
v 73.9204 -43.1797 -14.8376
v 20.2420 -27.1797 -17.1965
v 32.6430 -25.4927 -17.1965
v 45.8340 -31.9321 -16.8560
v 63.0566 -31.2816 -12.7225
v 72.2847 -33.1456 -11.7987
v 22.2866 -18.2962 -17.1965
v 24.6430 -18.2962 -17.1965
v -45.1338 23.8865 -11.7548
v -32.9434 23.4100 -14.7659
v -16.9434 26.9682 -13.1285
v -8.7582 28.6307 -9.5716
v -73.2864 44.3736 -12.1649
v -63.6061 42.0395 -17.3775
v -50.8165 37.3931 -17.9903
v -33.5452 35.9132 -22.6696
v -17.6538 34.9824 -17.1512
v -8.7582 29.3229 -9.5716
v -73.6643 51.2594 -17.4212
v -66.1901 51.1894 -19.3650
v -50.3452 52.2067 -17.2335
v -33.5452 51.8446 -19.9874
v -21.6772 51.8446 -16.7430
v -74.0422 62.6841 -22.6775
v -64.0336 68.9784 -16.1011
v -50.4012 68.5850 -9.8829
v -32.9434 62.7468 -11.4131
v -23.4123 62.3120 -11.1073
v -57.5705 77.0317 -9.5247
v -56.6112 77.0317 -9.5247
v 22.7173 -67.4961 6.3726
v 32.2171 -68.5849 0.1450
v 47.0566 -70.2417 -1.1965
v 62.8835 -68.7490 -1.7713
v 72.0637 -67.7382 -7.4878
v 21.7197 -58.2471 0.1450
v 27.6574 -62.9587 -4.2941
v 68.1014 -63.9798 3.1789
v 73.6249 -58.8598 -1.7713
v 17.0773 -43.1797 -1.1965
v 68.8613 -37.9880 4.7247
v 73.7576 -43.2646 -0.8438
v 18.8567 -26.9338 -1.3015
v 31.1328 -22.0464 -0.6531
v 47.6572 -23.1810 -0.4394
v 63.3394 -29.4745 -0.8438
v 72.2847 -33.1456 -5.9420
v 22.1401 -18.0959 -6.7049
v 31.1328 -18.3224 -0.6531
v 42.7242 -18.5488 5.3987
v -73.0651 28.6887 6.6274
v -64.9434 27.5952 3.8430
v -49.8576 22.1957 -1.8592
v -32.9434 19.8926 -1.1965
v -18.5078 27.2879 -2.6836
v -8.7582 28.6307 -9.0083
v -73.1758 37.6621 0.4231
v -68.1094 36.9119 -0.2817
v -55.8004 30.0171 -7.6344
v -16.0582 35.5219 -2.6836
v -8.7582 29.3229 -9.0083
v -74.1860 51.0418 -0.9343
v -67.0704 52.6363 1.0001
v -49.2920 59.0725 -0.2289
v -32.9434 59.0336 4.5528
v -21.5751 53.3786 -0.7647
v -75.0857 62.3487 3.9125
v -63.0660 68.8108 -1.1685
v -50.4012 68.5850 -5.5833
v -32.9434 62.7468 -3.4472
v -23.4123 62.3120 -5.8101
v -57.5705 77.0317 -6.2495
v -56.6112 77.0317 -6.2495
v 22.7173 -67.4961 7.3896
v 32.1908 -68.2453 13.5551
v 46.5622 -68.8410 14.8360
v 57.4348 -68.4889 9.5243
v 22.1108 -59.1797 9.2457
v 27.8688 -59.1797 17.2457
v 51.5660 -63.0619 20.1910
v 63.2205 -58.1875 15.6944
v 71.7397 -53.3132 11.1979
v 18.6065 -43.1797 10.4922
v 27.9329 -43.1797 18.4922
v 68.9337 -43.1854 16.6050
v 71.4697 -43.1854 16.6050
v 18.0449 -32.1032 9.0515
v 30.6277 -26.9338 14.5523
v 50.9091 -23.1918 14.8035
v 63.3394 -31.9036 15.9287
v 71.1997 -35.0366 22.0121
v 37.0385 -18.2082 14.8035
v 42.9091 -18.2082 14.8035
v -73.0651 28.6887 7.0020
v -64.2770 27.0805 13.3226
v -48.9434 22.6615 14.8035
v -34.1891 25.5034 13.2535
v -24.8841 28.7359 6.8868
v -73.0651 30.9506 7.0020
v -68.3171 36.4985 13.3226
v -29.6863 32.5499 17.5535
v -22.9703 37.4581 13.2535
v -75.0857 56.1064 9.0055
v -64.0461 54.6994 12.7325
v -48.9434 59.6295 10.1900
v -33.7098 57.8585 14.1475
v -22.5215 49.6025 14.8035
v -75.0857 62.3487 9.0055
v -63.0469 61.9756 14.7088
v -48.9434 61.9462 18.1900
v -39.5541 61.5393 19.0435
v 38.2804 -67.6206 23.2745
v 40.8993 -67.6206 23.2745
v 35.8688 -59.1797 24.5727
v 46.5622 -58.3090 24.5649
v 58.3395 -52.3952 23.3803
v 35.9329 -43.1797 24.6438
v 47.0566 -43.1797 26.0080
v 63.4263 -43.1016 24.0814
v 71.1997 -37.7162 23.1145
v 37.8996 -27.1797 23.7262
v 46.3380 -28.1761 24.2869
v 63.0566 -34.3179 23.9683
v 71.1997 -35.0366 23.1145
v 38.2046 -18.5153 23.4679
v 40.5256 -18.5153 23.4679
v -58.4994 27.5541 23.9607
v -48.9434 27.2420 24.0355
v -40.3529 27.9821 23.2890
v -59.6201 36.8203 24.8673
v -48.9434 36.8203 25.6927
v -34.1891 37.4581 26.1089
v -23.4128 43.2165 27.2120
v -58.8947 52.8203 24.2470
v -48.9434 52.8203 25.1649
v -33.7098 52.8879 26.1829
v -23.4128 47.5996 27.2120
v -57.5323 61.6024 23.1336
v -48.9434 61.9462 23.5077
v -39.5541 61.5393 23.4124
f 5 1 4
f 5 2 1
f 6 2 5
f 6 3 2
f 8 4 7
f 8 5 4
f 15 9 14
f 15 10 9
f 16 12 11
f 16 17 12
f 19 13 18
f 19 14 13
f 26 20 25
f 26 21 20
f 26 22 21
f 26 27 22
f 28 22 27
f 28 23 22
f 30 1 2
f 30 29 1
f 30 24 29
f 30 25 24
f 3 30 2
f 3 31 30
f 30 26 25
f 30 31 26
f 32 26 31
f 32 27 26
f 33 27 32
f 33 28 27
f 34 1 29
f 34 4 1
f 31 3 6
f 31 6 36
f 6 5 35
f 6 35 36
f 36 32 31
f 36 37 32
f 38 32 37
f 38 33 32
f 34 7 4
f 34 39 7
f 35 5 8
f 35 8 40
f 8 7 39
f 8 39 40
f 10 46 9
f 10 47 46
f 48 41 47
f 48 42 41
f 12 48 11
f 12 49 48
f 49 42 48
f 49 43 42
f 50 43 49
f 50 44 43
f 46 14 9
f 46 52 14
f 52 13 14
f 52 51 13
f 52 45 51
f 52 46 45
f 47 10 15
f 47 15 53
f 15 14 52
f 15 52 53
f 48 16 11
f 48 54 16
f 54 47 53
f 54 48 47
f 55 49 12
f 55 12 17
f 55 17 16
f 55 16 54
f 56 13 51
f 56 18 13
f 52 14 19
f 52 19 57
f 19 18 56
f 19 56 57
f 56 51 52
f 56 52 57
f 59 53 58
f 59 54 53
f 59 55 54
f 59 60 55
f 61 58 57
f 61 62 58
f 65 20 21
f 65 64 20
f 66 21 22
f 66 65 21
f 67 22 23
f 67 66 22
f 69 20 64
f 69 25 20
f 69 24 25
f 69 68 24
f 69 63 68
f 69 64 63
f 67 23 28
f 67 28 71
f 70 66 67
f 70 67 71
f 72 24 68
f 72 29 24
f 71 28 33
f 71 33 74
f 75 29 72
f 75 34 29
f 77 36 35
f 77 35 76
f 37 36 77
f 37 77 78
f 79 74 33
f 79 33 38
f 79 38 37
f 79 37 78
f 79 78 73
f 79 73 74
f 80 34 75
f 80 39 34
f 81 76 35
f 81 35 40
f 40 39 80
f 40 80 81
f 80 75 76
f 80 76 81
f 82 76 81
f 82 77 76
f 86 41 42
f 86 85 41
f 87 42 43
f 87 86 42
f 88 43 44
f 88 87 43
f 90 45 46
f 90 89 45
f 90 83 89
f 90 84 83
f 91 41 85
f 91 47 41
f 91 46 47
f 91 90 46
f 91 84 90
f 91 85 84
f 88 44 50
f 88 50 93
f 50 49 92
f 50 92 93
f 93 92 87
f 93 87 88
f 94 45 89
f 94 51 45
f 95 52 51
f 95 51 94
f 94 89 90
f 94 90 95
f 53 52 95
f 53 95 96
f 92 49 55
f 92 55 98
f 99 95 94
f 99 100 95
f 96 58 53
f 96 101 58
f 58 100 57
f 58 101 100
f 59 58 101
f 59 101 102
f 102 101 96
f 102 96 97
f 98 55 60
f 98 60 103
f 103 60 59
f 103 59 102
f 103 102 97
f 103 97 98
f 100 61 57
f 100 104 61
f 105 101 58
f 105 58 62
f 104 100 101
f 104 101 105
f 107 63 64
f 107 106 63
f 108 64 65
f 108 107 64
f 109 65 66
f 109 108 65
f 110 63 106
f 110 68 63
f 111 110 106
f 111 106 107
f 109 66 70
f 109 70 113
f 112 108 109
f 112 109 113
f 114 70 71
f 114 113 70
f 115 68 110
f 115 72 68
f 116 115 110
f 116 110 111
f 114 71 74
f 114 74 118
f 118 74 73
f 118 73 117
f 117 113 114
f 117 114 118
f 119 72 115
f 119 75 72
f 76 75 119
f 76 119 120
f 119 115 116
f 119 116 120
f 122 117 73
f 122 73 78
f 78 77 121
f 78 121 122
f 123 117 122
f 123 118 117
f 124 76 120
f 124 81 76
f 121 77 82
f 121 82 125
f 82 81 124
f 82 124 125
f 84 126 83
f 84 127 126
f 128 84 85
f 128 127 84
f 129 85 86
f 129 128 85
f 130 86 87
f 130 129 86
f 131 83 126
f 131 89 83
f 90 89 131
f 90 131 132
f 132 131 126
f 132 126 127
f 130 87 92
f 130 92 134
f 133 129 130
f 133 130 134
f 132 95 90
f 132 136 95
f 95 135 94
f 95 136 135
f 96 95 136
f 96 136 137
f 97 96 137
f 97 137 138
f 134 92 98
f 134 98 139
f 139 98 97
f 139 97 138
f 135 99 94
f 135 140 99
f 141 136 95
f 141 95 100
f 141 100 99
f 141 99 140
f 140 135 136
f 140 136 141
f 141 137 136
f 141 142 137
f 143 137 142
f 143 138 137
f 108 144 107
f 108 145 144
f 144 111 107
f 144 146 111
f 145 108 112
f 145 112 147
f 146 144 145
f 146 145 147
f 148 112 113
f 148 147 112
f 146 116 111
f 146 149 116
f 149 146 147
f 149 147 150
f 148 113 117
f 148 117 151
f 150 147 148
f 150 148 151
f 152 117 118
f 152 151 117
f 153 116 149
f 153 120 116
f 154 153 149
f 154 149 150
f 155 122 121
f 155 121 154
f 155 154 150
f 155 150 151
f 152 118 123
f 152 123 156
f 123 122 155
f 123 155 156
f 155 151 152
f 155 152 156
f 153 124 120
f 153 157 124
f 154 121 125
f 154 125 158
f 158 125 124
f 158 124 157
f 158 157 153
f 158 153 154
f 128 159 127
f 128 160 159
f 161 128 129
f 161 160 128
f 162 127 159
f 162 132 127
f 163 162 159
f 163 159 160
f 161 129 133
f 161 133 164
f 163 160 161
f 163 161 164
f 165 133 134
f 165 164 133
f 166 132 162
f 166 136 132
f 166 162 163
f 166 163 167
f 167 163 164
f 167 164 168
f 165 134 139
f 165 139 169
f 139 138 168
f 139 168 169
f 168 164 165
f 168 165 169
f 166 141 136
f 166 170 141
f 142 141 170
f 142 170 171
f 170 166 167
f 170 167 171
f 172 168 138
f 172 138 143
f 143 142 171
f 143 171 172
f 172 171 167
f 172 167 168
