# parsimony mesh: cplx_CPLX0-8312 (source /Users/eranagmon/code/v2e-cplx/workspace/studies/ecoli-3d/viz/3d/structures/cplx_CPLX0-8312.pdb)
# atoms: 1698  voxel: 4 Å  verts: 883  tris: 1812
v 27.1557 0.8521 -54.3637
v 29.7565 0.8447 -54.4322
v 31.8769 1.1362 -54.2444
v 23.6214 4.9040 -54.3190
v 25.7960 3.4596 -54.5860
v 29.6157 3.0535 -54.5412
v 31.8769 1.5605 -54.2444
v 23.6214 5.4753 -54.3190
v 25.7565 5.7023 -54.4836
v 28.1885 5.6564 -54.3577
v 27.1282 -3.3886 -50.6021
v 28.5702 -3.3886 -50.6021
v 26.3604 -0.5716 -51.9804
v 29.8628 -0.3392 -52.1222
v 31.8769 1.1362 -53.6423
v 23.6214 4.9040 -53.3602
v 25.5739 3.4215 -52.1096
v 29.6720 3.0830 -52.2506
v 31.8769 1.5605 -53.6423
v 23.6214 5.4753 -53.3602
v 25.7565 5.7023 -53.1404
v 28.1885 5.6564 -53.5257
v 27.1282 -3.3886 -49.2293
v 28.5702 -3.3886 -49.2293
v 23.3062 0.8411 -47.0260
v 25.5601 -0.6662 -48.1277
v 28.9540 -0.7869 -47.9567
v 23.3601 3.2930 -46.8799
v 25.2378 3.3198 -47.9358
v 28.6431 2.3332 -48.0478
v 23.6783 5.3105 -46.1790
v 23.8168 5.3105 -46.1790
v 23.3207 -2.9525 -42.5763
v 24.2059 -2.9525 -42.5763
v 22.7069 -0.5781 -43.9649
v 25.6262 -1.2572 -43.9649
v 28.2622 0.4442 -44.0478
v 22.9215 3.3831 -44.4165
v 25.3927 4.0624 -44.4165
v 28.2622 2.1421 -44.0478
v 23.6783 5.3105 -45.9956
v 23.8168 5.3105 -45.9956
v 23.3942 -2.9118 -40.0478
v 24.2359 -2.9118 -40.0478
v 21.8352 -0.7070 -40.0478
v 26.2983 -0.5061 -40.1513
v 27.9809 0.9611 -41.5537
v 19.0669 4.1222 -38.8442
v 21.7104 3.4183 -39.5320
v 25.9148 2.8055 -40.1513
v 27.9809 1.6842 -41.5537
v 19.0669 5.7327 -38.8442
v 21.0608 5.7327 -38.8442
v 23.7092 -2.7346 -37.9022
v 25.6986 -2.7682 -36.1664
v 27.9427 -2.8018 -34.4306
v 15.6173 1.0621 -34.2739
v 17.7565 0.7093 -35.0884
v 21.7918 -0.7572 -36.5557
v 25.8199 -1.3726 -35.9790
v 28.0115 -0.7070 -34.5367
v 15.6173 1.5725 -34.2739
v 18.3181 3.0029 -35.9710
v 21.2898 3.4762 -36.6458
v 25.9148 2.6464 -35.8092
v 27.9103 1.4369 -34.3168
v 19.0669 5.7327 -37.1478
v 21.0608 5.7327 -37.1478
v 27.4509 -2.8018 -33.9341
v 27.9427 -2.8018 -33.9341
v 15.6173 1.0621 -33.8047
v 17.7565 0.7093 -32.9025
v 21.3827 -0.2931 -31.6775
v 26.1788 -1.0884 -32.3377
v 28.0115 -0.7070 -33.4826
v 15.6173 1.5725 -33.8047
v 17.7565 2.1633 -32.9025
v 21.3827 2.8833 -31.6775
v 26.3492 3.0949 -31.5042
v 28.2229 2.8108 -31.9897
v 26.8533 5.7519 -30.5713
v 28.5356 5.7519 -30.5713
v 11.6327 1.2123 -26.0804
v 11.8830 1.2123 -26.0804
v 19.1248 -0.0005 -27.3061
v 21.3827 -0.7757 -28.4028
v 25.1349 -0.3227 -28.0478
v 7.6908 5.1408 -26.0873
v 9.7595 3.2695 -26.0839
v 11.8830 1.3982 -26.0804
v 19.1248 1.9825 -27.3061
v 21.3827 2.8642 -28.4028
v 25.8714 3.3590 -28.5788
v 28.5356 4.1846 -29.2868
v 7.6908 5.3409 -26.0873
v 7.8863 5.3409 -26.0873
v 26.8533 5.7519 -29.2868
v 28.5356 5.7519 -29.2868
v 11.6967 -2.7543 -22.0784
v 11.8005 -2.7543 -22.0784
v 23.4431 -2.7848 -22.4926
v 23.9820 -2.7848 -22.4926
v 7.5529 0.8362 -22.4387
v 10.3314 -0.3090 -23.5919
v 13.1751 -0.4208 -23.7559
v 17.7775 -0.3630 -24.0791
v 21.9685 -2.1216 -23.9147
v 25.5464 -0.8297 -23.9331
v 28.1836 0.6588 -22.7070
v 7.3144 3.6017 -23.8824
v 9.7595 3.2695 -25.2337
v 13.5533 3.0811 -24.0643
v 17.7775 2.8108 -24.0791
v 21.4825 4.5032 -24.2807
v 25.7691 3.4680 -24.9664
v 28.2415 3.2930 -22.9049
v 7.3566 5.5650 -24.0478
v 9.4344 6.1345 -24.0363
v 12.5570 6.3327 -22.6953
v 19.2134 8.3843 -22.3392
v 21.4825 7.1478 -23.2205
v 26.1555 7.6910 -23.3359
v 27.9761 6.6230 -22.5315
v 19.2134 9.6470 -22.3392
v 21.7565 9.8586 -22.7226
v 25.0881 9.6932 -22.6561
v 7.4766 -6.9800 -18.2926
v 9.7565 -7.1385 -18.6503
v 13.7565 -7.3512 -18.8615
v 16.6966 -7.2638 -18.5742
v 7.3886 -4.7070 -18.6610
v 10.1206 -4.3354 -20.4734
v 13.3829 -4.3354 -20.7259
v 17.9205 -4.5512 -19.0106
v 21.9685 -3.1480 -19.8676
v 24.2262 -2.9531 -20.0478
v 7.1926 -0.5810 -19.9915
v 9.0301 -1.8304 -21.2873
v 14.4671 -2.0539 -21.4265
v 17.7565 -1.8069 -20.8565
v 20.7765 -2.1599 -21.0807
v 26.2262 -1.2017 -20.0478
v 28.0867 0.7983 -20.0478
v 7.0384 3.3034 -20.1113
v 8.4156 4.6436 -18.8203
v 15.2237 4.7641 -21.4667
v 17.7565 4.6732 -21.3824
v 19.9664 4.9955 -21.7417
v 28.6680 3.2930 -20.0478
v 7.2890 5.6078 -21.4869
v 10.0556 7.3036 -19.9741
v 13.8368 7.5168 -20.8372
v 17.8306 7.1478 -21.2055
v 19.9664 5.7176 -21.7417
v 27.7548 9.2897 -22.0465
v 29.4773 7.6727 -20.4111
v 32.1522 8.7223 -18.7757
v 11.6957 9.5299 -18.4612
v 13.7565 10.3579 -18.9704
v 17.8306 10.8795 -20.1378
v 21.7565 11.5076 -20.0478
v 25.9813 11.3721 -20.2147
v 29.7795 11.3830 -19.4848
v 32.1522 10.1097 -18.7757
v 27.0072 15.2930 -18.3858
v 28.9463 15.2930 -18.3858
v 27.6395 17.4401 -18.1634
v 28.6380 17.4401 -18.1634
v 7.4649 -6.9793 -16.0478
v 9.5973 -7.1062 -15.9590
v 13.7065 -7.3873 -15.9590
v 17.0027 -7.3307 -16.0478
v 3.4655 -2.9734 -14.2477
v 5.7969 -4.4668 -15.7677
v 10.8246 -6.2973 -14.5665
v 12.3399 -6.2973 -14.5665
v 19.0027 -5.6711 -16.0478
v 22.0545 -3.6285 -15.7798
v 24.1573 -2.9572 -16.9344
v 3.4655 -1.8127 -14.2477
v 5.2896 -0.5704 -15.7677
v 23.5865 -2.5870 -14.2678
v 25.5970 -1.1921 -15.7798
v 27.9097 1.0966 -16.0478
v 3.1568 4.1764 -14.6220
v 5.8061 3.0767 -15.8718
v 8.4156 4.6436 -17.1216
v 28.7303 3.2930 -16.0478
v 3.1568 6.2668 -14.6220
v 5.7565 6.3198 -14.7837
v 9.3775 7.1302 -15.8921
v 30.7236 7.3506 -15.7555
v 32.1522 8.7223 -16.8939
v 11.2910 11.0351 -15.9404
v 13.7565 12.3579 -17.2485
v 17.7565 13.0106 -17.7123
v 21.7565 12.9420 -17.5844
v 24.2077 13.0511 -17.6573
v 31.2560 11.3830 -15.7555
v 32.1522 10.1097 -16.8939
v 11.6411 15.2930 -14.4166
v 13.3617 15.3534 -15.0108
v 17.7565 14.7873 -15.7123
v 21.5029 15.6281 -15.3758
v 25.0072 15.2930 -16.8783
v 30.7268 15.2930 -16.0478
v 11.7544 17.2947 -14.0519
v 11.7652 17.2947 -14.0519
v 22.6671 17.5987 -14.2123
v 26.3082 18.8527 -15.4990
v 28.9799 18.9813 -15.6906
v 27.6436 21.3359 -14.1191
v 27.8168 21.3359 -14.1191
v -20.3715 -6.8752 -10.1634
v -18.2435 -7.5572 -10.8047
v -14.2435 -8.2547 -11.4109
v -11.4811 -7.8053 -10.9717
v 7.2981 -6.9902 -12.0478
v 9.5973 -7.0279 -12.0589
v 13.7065 -7.2813 -12.0589
v 17.7894 -7.3449 -12.1119
v 21.7565 -7.0133 -10.8344
v 23.8825 -6.8522 -10.3231
v -20.3715 -6.5615 -10.1634
v -18.2325 -5.0197 -11.1450
v -14.2435 -4.7070 -12.2591
v -11.5157 -4.7070 -10.9743
v 3.1698 -3.3290 -12.0478
v 5.2981 -5.3290 -12.0478
v 10.8246 -6.2973 -13.3996
v 12.3399 -6.2973 -13.3996
v 19.1447 -6.2522 -13.4880
v 22.2131 -4.8000 -11.9055
v 23.8825 -6.0145 -10.3231
v -16.8918 -1.9888 -10.8672
v -14.2435 -1.7350 -10.8960
v -12.0356 -2.1292 -10.3593
v 2.9946 -0.5704 -12.2667
v 4.3814 0.8539 -13.7460
v 23.4413 -2.3633 -12.0478
v 25.8453 -0.1739 -12.1289
v 27.9475 1.0566 -13.5163
v 2.5766 3.0230 -12.2667
v 4.3814 1.5097 -13.7460
v 27.2379 1.9263 -10.8497
v 28.6500 3.2730 -12.1289
v 2.5943 7.4773 -12.1753
v 5.7565 8.3198 -12.9624
v 8.5266 8.3549 -13.0547
v 30.4426 7.2930 -12.0478
v 3.2984 9.7948 -10.9270
v 5.7565 9.9388 -10.9624
v 9.3503 11.1086 -11.8520
v 31.2678 11.2930 -12.0478
v 11.2870 15.3639 -12.4421
v 13.3398 16.7357 -12.4492
v 17.7565 16.7873 -13.5895
v 20.0005 17.1848 -13.9577
v 30.9966 15.2930 -12.0478
v 11.7544 17.2947 -14.0383
v 13.3398 17.9541 -12.4492
v 17.3813 19.6853 -11.4222
v 21.4291 19.1717 -12.1203
v 26.0888 19.9117 -12.3741
v 28.9459 19.2574 -12.3741
v 18.4644 21.4020 -10.2829
v 20.1910 21.4020 -10.2829
v 27.6436 21.3359 -13.9250
v 27.8168 21.3359 -13.9250
v -20.2906 -10.7186 -6.0743
v -18.2435 -11.0912 -6.7994
v -15.1490 -11.2076 -7.0235
v -21.1336 -8.4079 -7.6637
v -18.2435 -9.5572 -8.7994
v -13.9868 -10.1178 -8.2333
v -11.4076 -8.2465 -8.0478
v 7.1238 -7.1018 -8.0478
v 9.7565 -7.4248 -8.0478
v 13.7565 -7.5390 -8.0478
v 17.7565 -7.5361 -8.0478
v 21.4615 -7.0502 -8.3372
v 23.8825 -6.8522 -9.8634
v -21.3208 -5.7837 -8.0478
v -19.4927 -3.7837 -8.0478
v -10.5721 -4.7070 -8.0478
v 3.2652 -3.2699 -9.3087
v 5.2064 -4.6447 -8.0044
v 22.7107 -4.6915 -8.3372
v 23.8825 -6.0145 -9.8634
v -17.4927 -1.8301 -8.0478
v -14.2435 -0.6084 -8.0478
v -11.4079 -1.4852 -8.0478
v 3.0773 -0.4158 -8.0044
v 4.3499 -1.5551 -6.6421
v 23.2353 -0.9040 -7.8247
v 24.5712 0.2979 -9.0092
v -0.8519 4.5559 -6.8758
v 1.2445 3.2508 -8.1446
v 23.4726 2.2409 -6.3426
v 25.5960 3.4169 -7.8521
v 28.5158 4.5930 -9.3616
v -0.8519 6.4297 -6.8758
v 0.6839 7.5750 -8.1446
v 26.6591 7.2930 -6.8151
v 29.1504 7.2930 -8.8151
v 2.5752 10.0697 -8.0478
v 5.7565 11.2132 -8.0478
v 8.3815 12.4365 -8.0478
v 27.0577 11.2930 -6.6407
v 29.4221 11.2930 -8.6407
v 10.5412 15.3639 -8.0033
v 12.2478 16.7445 -9.3070
v 27.1522 14.1071 -6.4623
v 29.0243 15.3814 -7.8965
v 11.5644 17.6498 -6.6404
v 13.6513 18.8546 -8.0033
v 17.3813 20.9537 -7.8821
v 21.6172 20.4780 -7.8821
v 25.7565 18.9466 -8.0478
v 28.5001 17.8567 -8.0478
v 18.4644 21.4020 -9.1050
v 20.1910 21.4020 -9.1050
v -20.2906 -10.7186 -6.0117
v -18.1870 -11.2244 -4.4262
v -13.9868 -11.3091 -4.0493
v -12.1083 -10.8598 -2.7169
v -21.1569 -8.4996 -4.4262
v -19.4827 -9.6947 -3.3451
v -12.4824 -10.3280 -5.3836
v -11.4753 -8.8796 -4.0493
v 7.0138 -7.2687 -4.0478
v 9.7966 -7.3204 -4.0437
v 13.7565 -7.0272 -5.4247
v 17.7565 -6.9449 -5.4544
v 19.9316 -6.8706 -5.4138
v -21.3500 -5.6632 -4.0478
v -19.5159 -3.6632 -4.0478
v -10.3797 -4.7070 -4.0478
v 6.1279 -4.7070 -4.0478
v 11.1566 -6.0477 -2.7076
v 13.7565 -5.5750 -3.4247
v 17.7565 -5.8087 -3.4544
v 21.1408 -4.8984 -4.0674
v -17.5159 -1.3983 -4.0478
v -14.2435 -0.0430 -4.0478
v -11.2385 -1.3517 -4.0478
v 3.6033 1.1116 -5.8553
v 5.1146 -0.4158 -4.3323
v 22.8140 -0.7070 -4.0478
v -16.5656 4.0438 -2.2837
v -14.2435 3.8511 -2.4517
v -11.9910 4.6197 -2.3504
v -0.7825 4.6249 -4.0478
v 2.0646 2.7125 -4.3323
v 4.5347 1.8829 -3.1887
v 23.0341 3.4617 -4.3247
v 23.9541 4.9075 -5.8427
v -16.5656 5.4756 -2.2837
v -14.2435 5.6100 -2.4517
v -11.9910 5.5331 -2.3504
v -0.7825 6.3185 -4.0478
v 0.5766 8.3185 -4.0478
v 23.2746 5.9758 -3.1760
v 24.6357 7.3027 -4.3247
v 2.5766 9.9212 -4.0478
v 5.7565 11.4268 -4.0478
v 8.2419 12.7986 -4.0478
v 25.4668 11.2930 -4.0478
v 10.4295 15.1930 -4.2517
v 13.7565 16.4545 -2.9216
v 16.3012 17.0084 -2.2064
v 22.8933 16.6164 -2.5504
v 25.5962 15.3617 -4.2267
v 27.9233 16.7737 -5.9031
v 11.5644 17.6498 -5.7210
v 13.7565 18.2546 -4.9216
v 17.6833 18.6839 -3.7430
v 21.6386 18.5296 -3.9493
v 25.7565 17.9024 -5.3162
v 27.9233 17.4374 -5.9031
v -17.2647 -11.3982 -0.0478
v -14.2435 -12.0601 -0.0478
v -11.6454 -11.3688 -0.0478
v -20.7773 -7.2736 -0.0478
v -19.2647 -9.2736 -0.0478
v -10.7175 -8.7070 -0.0478
v 7.1076 -7.2171 -1.6569
v 8.4900 -7.2171 -1.6569
v -28.9586 -3.0753 1.5270
v -26.2435 -3.2196 1.5794
v -22.1667 -4.8190 0.7785
v -18.2511 -4.3368 0.0283
v -15.4646 -3.4772 1.4125
v -10.7312 -4.7070 -0.0478
v 6.9388 -4.7070 -1.0057
v 9.5763 -4.7068 -0.0197
v 13.7565 -4.4235 -0.0478
v 17.7565 -4.8453 -0.0478
v 20.9406 -4.1285 -0.0478
v -28.9586 -1.6284 1.5270
v -26.2435 -1.6036 1.5794
v -22.5566 -0.8177 1.6095
v -17.6775 -0.1986 -0.1150
v -14.9002 -0.3118 0.3734
v -11.6591 -1.7668 -0.0478
v 7.0092 -0.7070 -0.6913
v 8.1940 -0.7070 1.3087
v 21.7971 -0.7070 -0.0478
v -21.1906 3.2930 1.2736
v -18.0368 2.9435 -0.7929
v -14.5615 2.2988 -0.2500
v -11.9385 4.4871 -0.0478
v -0.4177 5.0384 -0.0478
v 1.7565 3.9645 -0.0478
v 5.8234 2.1709 0.0383
v 8.1003 1.5214 1.4290
v 21.4734 3.2930 -0.0478
v -28.3724 8.7479 1.8353
v -27.9900 8.7479 1.8353
v -20.6559 5.7081 1.6608
v -18.0368 6.0520 0.1774
v -14.2435 6.2440 -0.0478
v -11.9385 5.6066 -0.0478
v -0.4177 5.7006 -0.0478
v 1.0593 7.7006 -0.0478
v 15.5248 9.1808 1.8894
v 16.1175 9.1808 1.8894
v 22.1148 7.3027 -0.2195
v 24.0184 8.6424 -1.6672
v -28.3724 9.4411 1.8353
v -27.9900 9.4411 1.8353
v 3.0593 9.8323 -0.0478
v 5.7565 11.2517 -0.0478
v 8.8038 12.7124 -0.0478
v 14.8672 11.2930 1.6022
v 16.5064 11.2930 1.6022
v 22.1152 11.2930 0.5932
v 24.1657 11.2930 -1.4068
v 10.8038 13.7137 -0.0478
v 13.5841 14.2588 0.1099
v 17.6816 15.3314 -0.0922
v 21.5058 15.1354 -0.3199
v 24.0402 13.9497 -1.5738
v 18.9679 17.4973 -1.7328
v 20.2267 17.4973 -1.7328
v -20.4367 -14.8537 5.8291
v -18.2435 -15.1106 5.5941
v -14.2435 -15.2943 5.2916
v -11.8814 -15.0986 5.4258
v -20.7739 -12.7070 5.4122
v -18.3169 -12.6500 3.7076
v -14.2435 -13.6830 3.2916
v -10.3980 -12.5004 4.2274
v -8.0692 -10.8975 5.6957
v -21.4066 -8.5676 3.9941
v -19.6992 -9.8081 2.6886
v -9.4137 -8.7070 3.6576
v -8.0455 -8.7070 5.6576
v -28.9764 -3.1146 3.9522
v -26.2435 -4.1459 3.9522
v -22.4722 -4.8329 3.3684
v -18.2435 -3.9738 2.8657
v -15.4646 -3.4772 2.5324
v -9.7738 -4.9788 4.2704
v -8.1538 -6.4933 5.8159
v 6.8964 -3.1609 5.0620
v 9.5552 -3.2633 3.9804
v 13.7544 -3.5816 4.1202
v 17.5681 -3.7321 3.8215
v 20.2020 -3.6167 2.4010
v -32.4085 0.8260 5.5367
v -30.0654 -0.4012 3.8482
v -26.2435 0.3964 2.7982
v -22.5566 -0.8177 2.7312
v -18.2435 -1.2876 2.8657
v -14.2136 -0.3431 3.3437
v -11.4895 -1.4500 3.9522
v -1.2069 0.6009 5.6234
v 1.7565 0.5453 5.6344
v 5.6405 -0.4899 4.7771
v 9.5992 -0.7070 3.9791
v 12.9576 -0.7070 5.4037
v 18.0883 -0.7070 4.4887
v 20.2757 -0.7070 2.4887
v -32.4085 1.6782 5.5367
v -30.3298 3.1241 4.4151
v -26.2435 3.2930 3.5728
v -23.1906 3.2930 3.1826
v -13.0831 3.4523 4.3057
v -12.0893 4.8918 3.2080
v -0.7862 3.4231 3.9205
v 1.4510 3.3952 4.1700
v 5.7565 1.9480 3.1509
v 9.7480 1.5573 3.9598
v 12.6948 1.5933 5.6075
v 18.1217 3.2930 4.7209
v 20.1634 3.2930 2.7209
v -28.7132 7.6351 3.9181
v -26.9920 7.6927 3.9459
v -22.0104 7.2915 4.1997
v -18.2435 8.1048 3.4189
v -14.0004 7.0490 4.3371
v -12.0893 5.4710 3.2080
v -0.3655 5.6058 2.2175
v 2.1635 6.8035 3.6082
v 5.7565 7.7299 4.7698
v 9.7565 8.5067 4.9761
v 14.0175 8.6356 3.9452
v 17.4689 7.5400 3.7048
v 20.0658 7.2930 2.5811
v -28.3724 9.4411 2.9047
v -27.9900 9.4411 2.9047
v -20.6982 9.3612 5.7271
v -18.2435 9.5037 5.4189
v -15.7338 9.5057 5.4662
v 3.2832 9.7082 2.3322
v 5.7565 10.3923 2.7698
v 9.8832 11.5233 2.8109
v 12.8672 11.2930 2.4930
v 18.5064 11.2930 2.1200
v 20.1152 11.2930 2.1200
v 11.3010 13.3540 2.0181
v 12.1358 13.3540 2.0181
v 19.0620 13.6545 2.0957
v 20.1182 13.6545 2.0957
v -16.4829 -22.8465 9.8177
v -16.0482 -22.8465 9.8177
v -16.9993 -20.7070 9.4500
v -15.3188 -20.7070 9.4500
v -24.4722 -14.8999 9.6515
v -21.9594 -15.3780 8.1718
v -18.3045 -17.0971 8.0311
v -14.0209 -17.4398 8.0311
v -11.3329 -15.8294 7.9522
v -24.8291 -12.7070 9.2310
v -22.7739 -12.7070 7.2310
v -9.3329 -13.3645 7.9522
v -7.6741 -11.3645 7.9522
v -25.5345 -8.7070 8.6251
v -23.2889 -8.7070 6.6251
v -7.2120 -8.7070 7.9522
v -32.5722 -3.0434 9.2436
v -30.0007 -3.5809 7.9270
v -26.5450 -5.6150 7.6871
v -23.7900 -6.4335 6.1770
v -8.9170 -3.8266 6.5283
v -6.6021 -4.9554 7.9089
v -2.2435 -3.6610 8.8490
v 1.7565 -3.1652 9.1838
v 5.5313 -2.9587 8.3815
v 8.4478 -3.1609 7.0271
v 15.0105 -3.1515 7.9522
v 16.1738 -3.1515 7.9522
v -32.6667 -0.5872 7.9270
v -31.1722 -1.8407 6.5769
v -12.4226 1.1379 6.0522
v -10.2476 -0.4000 6.9071
v -6.2435 -0.7070 7.9438
v -2.4215 -0.7222 6.9656
v 1.7565 -1.4547 7.1838
v 5.5313 -2.1081 8.3815
v 9.3942 -1.0055 8.1972
v 14.9226 -0.7620 7.6954
v 16.1442 -0.7620 7.6954
v -32.6292 3.1241 8.0791
v -31.7207 4.3449 6.8303
v -12.3955 3.2930 6.0564
v -10.2435 3.2930 7.6859
v -6.5140 3.2310 9.1518
v -2.2308 3.1309 8.1087
v 1.0437 4.4055 7.1051
v 11.1878 3.0732 8.1632
v 13.9195 3.0732 6.7768
v 16.1217 3.2930 6.2193
v -32.5098 5.4984 9.4970
v -30.3298 6.8465 8.0791
v -26.5202 8.8724 7.8030
v -23.3648 8.8749 6.3703
v -12.8789 7.2930 6.5765
v -10.2076 7.0438 8.8060
v -8.0277 5.5443 9.8761
v -0.5881 5.4538 9.7718
v 2.1288 5.8572 8.2439
v 5.7565 6.7191 7.9522
v 9.9649 6.6125 8.1632
v 13.7565 6.5554 6.8040
v 16.1536 5.8992 6.0697
v -25.3713 9.6505 9.0369
v -22.1163 9.5733 7.8030
v -18.2435 10.0161 7.9522
v -14.1263 11.0536 8.2207
v -11.1224 11.2930 9.3550
v -12.5189 13.4356 9.6957
v -11.4752 13.4356 9.6957
v -16.6153 -22.9191 11.9522
v -14.5263 -23.1613 12.0903
v -10.2435 -23.3800 13.3477
v -7.9279 -23.1300 13.5828
v -17.8610 -20.7070 11.9522
v -13.3188 -20.7070 10.7805
v -10.2435 -20.7070 12.2714
v -7.5537 -20.7070 13.4431
v -24.4603 -14.8903 11.9522
v -22.1914 -15.3208 12.2828
v -19.1605 -16.7742 12.2828
v -12.5392 -18.4786 10.1597
v -10.1323 -16.9700 11.1749
v -6.2811 -16.6698 13.2975
v -2.2435 -15.4225 13.5646
v 0.3217 -15.0563 13.6901
v -25.3432 -12.7070 11.9522
v -20.8234 -14.6269 13.8365
v -19.4443 -14.6269 13.8365
v -8.7248 -14.0599 10.7584
v -6.2925 -12.7187 11.4056
v -1.9782 -12.5169 13.1646
v 0.3217 -13.7235 13.6901
v -28.4460 -7.2972 12.9816
v -27.2514 -8.6611 11.7698
v -5.4099 -8.7070 10.8526
v -2.8922 -8.7070 12.8526
v 3.7335 -6.7191 13.9443
v 3.7634 -6.7191 13.9443
v -32.5722 -3.0434 10.7071
v -29.4731 -4.5567 11.9767
v -28.0813 -4.6968 11.9366
v -5.0504 -6.0842 10.6153
v -2.2278 -5.5797 11.9500
v 2.1427 -5.1830 12.3474
v 4.3078 -4.3366 12.3474
v 15.4320 -2.9733 10.1433
v 15.9602 -2.9733 10.1433
v -32.6487 -0.7070 11.1682
v -30.5420 -1.0026 13.0887
v -28.0833 -2.5330 13.5583
v 6.4404 -1.7072 11.9522
v 8.6606 0.2928 11.9522
v 15.4320 -2.1320 10.1433
v 15.9602 -2.1320 10.1433
v -32.6019 3.2930 10.8965
v -31.4381 3.2930 12.8965
v -5.3611 4.5229 10.5090
v -3.2548 4.5229 10.5090
v 6.6195 4.6048 13.7563
v 9.0882 3.2801 12.2347
v -32.5098 5.4984 10.3448
v -30.1006 6.5827 11.7878
v -27.6158 8.7510 11.9522
v -8.8503 8.2110 10.4405
v -6.5140 7.0438 11.2169
v -2.2642 6.8725 12.0953
v 1.7565 6.2377 11.9522
v 5.4743 6.1019 12.2347
v 8.7704 5.8739 11.0896
v -25.6158 9.7914 11.9522
v -22.2435 10.2249 11.9522
v -18.2435 10.5639 11.9522
v -14.4749 12.1304 11.9522
v -9.6890 11.3583 11.8451
v -6.2435 10.1326 13.1154
v -3.9403 9.6370 13.6815
v -12.4749 13.4140 11.9522
v -11.5953 13.4140 11.9522
v -16.6749 -22.9676 15.9522
v -14.2435 -23.6009 15.9522
v -10.1664 -23.4675 16.0331
v -7.9279 -23.1300 14.7536
v -20.2979 -18.7655 17.8501
v -18.7242 -20.3421 16.2909
v -8.7817 -22.2874 17.4203
v -7.0101 -20.8553 16.0331
v -24.7507 -15.0105 15.9522
v -21.8940 -16.2427 15.9556
v -19.3136 -16.7070 14.9573
v -4.9385 -17.9636 15.9522
v -2.0670 -15.9219 16.1136
v 0.3217 -15.0563 14.8878
v -28.6348 -11.4444 17.1816
v -26.6243 -12.7494 15.8898
v -20.8234 -14.6269 14.0612
v -19.4443 -14.6269 14.0612
v -0.5420 -12.3828 16.2292
v 0.0955 -12.3828 16.2292
v -28.5404 -8.3778 16.1638
v -27.8626 -8.3778 16.1638
v -0.9583 -8.8305 16.1232
v 1.6206 -8.4687 16.6458
v 4.0607 -7.1356 15.9522
v -28.4460 -5.7416 15.1459
v -27.7905 -4.5278 16.2684
v -0.9686 -6.0393 15.9522
v 1.8644 -4.8088 16.5924
v 4.3012 -4.5836 16.0485
v -32.5550 0.4083 16.9431
v -30.5420 -0.4630 15.7468
v -27.7173 -2.2385 15.9522
v 2.8185 -0.7070 17.4214
v 5.6579 -0.4087 15.1825
v 7.8963 1.1235 14.0439
v -32.5550 1.5337 16.9431
v -30.8355 3.0374 15.7468
v -1.5053 4.1856 16.8877
v 1.7971 3.0286 16.4057
v 5.4743 3.2801 14.6994
v 7.8963 1.9381 14.0439
v -28.6104 6.0259 15.9522
v -27.1549 8.0259 15.9522
v -20.4186 9.1698 17.8707
v -20.0632 9.1698 17.8707
v -4.5358 8.4845 17.5791
v -2.7228 7.0545 15.9001
v 1.7565 5.5635 14.1704
v 3.9529 5.3221 13.9743
v -25.1549 9.6773 15.9522
v -21.9486 9.9224 16.3033
v -18.5353 10.0758 16.3033
v -14.3384 11.8691 15.9522
v -10.1089 12.0703 15.9522
v -6.0189 10.1212 16.1283
v -3.9403 9.6370 14.9124
v -12.3384 13.3454 15.9522
v -12.1089 13.3454 15.9522
v -16.5623 -22.9112 18.2888
v -14.1213 -23.2817 19.7542
v -11.0657 -23.2722 19.9522
v -20.2979 -18.7655 18.0498
v -17.8802 -20.1674 19.5027
v -14.3224 -20.4858 21.1285
v -9.9300 -20.6443 20.5304
v -5.9619 -19.7659 19.6908
v -3.8520 -19.3136 20.8500
v -29.4888 -15.3577 21.0623
v -26.2131 -15.5535 19.8183
v -21.8761 -16.8951 19.6108
v -19.1981 -17.5938 20.7165
v -13.3164 -16.7070 21.1282
v -9.9468 -16.9658 21.0218
v -5.4709 -17.0718 19.8284
v -3.5673 -16.9169 19.7005
v -29.2602 -12.7494 19.8183
v -27.5261 -14.1111 18.3956
v -12.6458 -14.2001 21.5043
v -10.2435 -13.9888 21.2772
v -6.2435 -13.6600 21.0623
v -2.2554 -12.4018 19.6408
v -0.1307 -11.0420 18.0640
v -28.5804 -9.6040 19.9522
v -27.5991 -7.6040 19.9522
v -1.8006 -8.8305 19.6193
v 1.2761 -8.7562 18.1541
v 4.1552 -7.2663 18.2442
v -27.0376 -4.7070 19.9522
v -1.6297 -4.8634 19.7356
v 1.5606 -4.7345 18.2510
v 4.1552 -5.8346 18.2442
v -32.5550 0.4083 18.2415
v -30.2435 -0.0325 18.4773
v -27.2184 -0.8366 19.7987
v -4.4934 1.1644 21.8136
v -2.2634 -0.3841 20.5614
v 0.8185 -0.7070 18.3176
v -32.5550 1.5337 18.2415
v -29.8799 3.0374 18.4183
v -26.0676 3.4059 20.4537
v -23.7251 4.8146 21.6338
v -16.4832 5.1734 21.8113
v -16.0801 5.1734 21.8113
v -4.8877 3.2930 20.9964
v -2.6006 3.0286 18.8965
v 0.4908 1.5190 18.1337
v -28.3041 5.4807 18.0290
v -26.1515 7.0057 18.7364
v -22.0719 7.3744 19.9006
v -18.2732 7.3744 20.2484
v -15.8685 7.2930 21.3964
v -8.6311 8.6930 21.2788
v -6.0275 7.2554 19.7143
v -4.1720 5.8179 18.1497
v -24.7568 9.4983 18.1675
v -23.0853 9.4983 18.1675
v -17.3966 9.5863 18.6854
v -14.1219 11.1032 19.7172
v -10.3956 11.0870 19.6805
v -7.2025 9.5539 18.6122
v -12.3369 13.3440 18.0823
v -12.1601 13.3440 18.0823
v -12.7065 -23.0905 22.3742
v -11.4681 -23.0905 22.3742
v -16.5315 -18.9027 22.2721
v -14.3224 -20.4858 22.3232
v -9.9419 -20.5102 22.1992
v -6.2435 -19.3453 22.2962
v -3.8520 -19.3136 22.3388
v -29.4888 -15.3577 22.7785
v -26.2435 -15.5002 22.9868
v -22.0643 -15.2016 23.8841
v -18.0163 -16.7843 23.7442
v -15.2583 -16.5338 23.7442
v -8.4654 -16.6409 23.8288
v -7.0220 -16.6571 23.7264
v -3.8520 -18.0562 22.3388
v -29.2208 -12.7070 22.6417
v -26.2220 -12.6973 24.4357
v -23.2781 -14.0242 25.1720
v -13.2408 -13.8564 23.9522
v -10.0065 -13.7561 24.1608
v -6.4573 -12.6756 24.0407
v -3.8948 -11.0950 22.4481
v -28.3013 -10.4850 22.0452
v -26.1561 -8.8019 23.5854
v -23.8316 -7.1188 25.1255
v -8.9043 -7.1739 25.4882
v -6.2101 -8.5871 24.4196
v -3.9450 -8.7070 22.3844
v -25.5592 -4.8247 23.8562
v -23.8316 -6.2366 25.1255
v -8.9043 -5.9078 25.4882
v -6.2435 -5.1483 24.6645
v -3.8217 -4.3395 23.6004
v -26.1913 -0.7070 23.9522
v -8.4886 0.6014 25.5123
v -5.9935 0.0165 24.0883
v -3.7533 -1.7840 23.9522
v -24.9424 2.4189 23.9522
v -22.3325 4.2590 23.9655
v -17.9698 4.9543 23.7981
v -16.0801 5.1734 22.2886
v -9.0660 3.2930 24.9831
v -6.8877 3.2930 22.9831
v -21.0585 5.5790 22.6410
v -17.9698 5.5306 23.7981
v -14.6602 6.9621 23.8073
v -10.1964 7.2342 23.8797
v -7.5192 6.0263 22.4333
v -13.2402 9.9533 22.6594
v -11.2977 9.9533 22.6594
v -20.6115 -14.9043 26.1858
v -18.2435 -15.1386 26.2710
v -15.8376 -15.0851 26.1437
v -8.5152 -14.8101 26.3442
v -8.0601 -14.8101 26.3442
v -24.8743 -11.3575 26.4419
v -22.0643 -12.6973 26.8026
v -18.2376 -12.5965 28.2237
v -14.0951 -12.6346 27.9781
v -10.0065 -12.7306 27.2298
v -7.5642 -12.7070 26.6540
v -24.8743 -9.7855 26.4419
v -22.3963 -8.5541 27.2691
v -18.2376 -8.4349 29.2324
v -13.9089 -8.4349 29.1227
v -10.2400 -8.5871 27.1918
v -7.5212 -9.8406 26.4960
v -24.7827 -3.5699 26.3893
v -22.3963 -4.8247 27.4889
v -18.2435 -4.7070 28.7826
v -14.2435 -4.7070 27.8309
v -10.2400 -4.6275 26.5863
v -6.2435 -3.1483 26.1384
v -4.2233 -2.7613 25.9986
v -25.0666 -0.7070 26.6013
v -22.2435 -0.7070 27.6862
v -17.8526 -0.3295 28.7530
v -14.4634 -0.3295 28.9560
v -9.9905 -0.7219 27.1443
v -6.2435 -2.2062 26.1384
v -4.2233 -2.6810 25.9986
v -24.8018 1.9394 26.3805
v -22.2435 2.3594 26.5236
v -17.8576 3.0227 27.5586
v -14.4634 2.9034 28.6011
v -11.0660 3.2930 27.1038
v -16.7898 5.4821 26.1648
v -14.2435 5.7966 26.3193
v -11.7618 5.7753 26.2291
v -16.9003 -11.1894 30.9283
v -15.0192 -11.1894 30.9283
v -16.9003 -9.5868 30.9283
v -15.0192 -9.5868 30.9283
v -16.2587 1.2555 29.9631
v -15.9433 1.2555 29.9631
v -16.2587 1.3103 29.9631
v -15.9433 1.3103 29.9631
f 6 1 5
f 6 2 1
f 7 2 6
f 7 3 2
f 9 4 8
f 9 5 4
f 10 5 9
f 10 6 5
f 14 1 2
f 14 13 1
f 13 12 11
f 13 14 12
f 15 2 3
f 15 14 2
f 17 1 13
f 17 5 1
f 5 16 4
f 5 17 16
f 15 3 7
f 15 7 19
f 19 7 6
f 19 6 18
f 19 18 14
f 19 14 15
f 16 8 4
f 16 20 8
f 9 8 20
f 9 20 21
f 21 20 16
f 21 16 17
f 22 18 6
f 22 6 10
f 22 10 9
f 22 9 21
f 22 21 17
f 22 17 18
f 12 23 11
f 12 24 23
f 26 11 23
f 26 13 11
f 27 24 12
f 27 12 14
f 27 26 23
f 27 23 24
f 26 17 13
f 26 29 17
f 29 25 28
f 29 26 25
f 30 27 14
f 30 14 18
f 30 18 17
f 30 17 29
f 32 28 31
f 32 29 28
f 36 25 26
f 36 35 25
f 35 34 33
f 35 36 34
f 37 26 27
f 37 36 26
f 38 25 35
f 38 28 25
f 37 27 30
f 37 30 40
f 40 30 29
f 40 29 39
f 41 28 38
f 41 31 28
f 39 29 32
f 39 32 42
f 32 31 41
f 32 41 42
f 41 38 39
f 41 39 42
f 34 43 33
f 34 44 43
f 45 33 43
f 45 35 33
f 46 44 34
f 46 34 36
f 47 36 37
f 47 46 36
f 49 35 45
f 49 38 35
f 50 39 38
f 50 38 49
f 47 37 40
f 47 40 51
f 51 40 39
f 51 39 50
f 51 50 46
f 51 46 47
f 53 48 52
f 53 49 48
f 44 54 43
f 44 55 54
f 54 45 43
f 54 59 45
f 55 44 46
f 55 46 60
f 60 59 54
f 60 54 55
f 60 56 55
f 60 61 56
f 62 58 57
f 62 63 58
f 59 49 45
f 59 64 49
f 64 48 49
f 64 63 48
f 64 58 63
f 64 59 58
f 65 60 46
f 65 46 50
f 65 50 49
f 65 49 64
f 66 60 65
f 66 61 60
f 67 48 63
f 67 52 48
f 64 49 53
f 64 53 68
f 53 52 67
f 53 67 68
f 67 63 64
f 67 64 68
f 56 69 55
f 56 70 69
f 58 71 57
f 58 72 71
f 73 58 59
f 73 72 58
f 69 60 55
f 69 74 60
f 74 59 60
f 74 73 59
f 70 56 61
f 70 61 75
f 75 74 69
f 75 69 70
f 71 62 57
f 71 76 62
f 77 63 62
f 77 62 76
f 76 71 72
f 76 72 77
f 78 64 63
f 78 63 77
f 78 77 72
f 78 72 73
f 65 64 78
f 65 78 79
f 75 61 66
f 75 66 80
f 66 65 79
f 66 79 80
f 80 79 74
f 80 74 75
f 81 80 79
f 81 82 80
f 87 73 74
f 87 86 73
f 90 83 89
f 90 84 83
f 92 73 86
f 92 78 73
f 91 86 85
f 91 92 86
f 87 74 79
f 87 79 93
f 93 79 78
f 93 78 92
f 94 79 80
f 94 93 79
f 96 88 95
f 96 89 88
f 93 81 79
f 93 97 81
f 94 80 82
f 94 82 98
f 82 81 97
f 82 97 98
f 97 93 94
f 97 94 98
f 105 83 84
f 105 104 83
f 104 100 99
f 104 105 100
f 107 85 86
f 107 106 85
f 87 107 86
f 87 108 107
f 107 102 101
f 107 108 102
f 111 83 104
f 111 89 83
f 111 88 89
f 111 110 88
f 111 103 110
f 111 104 103
f 112 105 84
f 112 84 90
f 90 89 111
f 90 111 112
f 106 91 85
f 106 113 91
f 112 106 105
f 112 113 106
f 114 92 91
f 114 91 113
f 115 108 87
f 115 87 93
f 115 93 92
f 115 92 114
f 115 109 108
f 115 116 109
f 117 88 110
f 117 95 88
f 111 89 96
f 111 96 118
f 96 95 117
f 96 117 118
f 119 111 118
f 119 112 111
f 122 114 121
f 122 115 114
f 123 115 122
f 123 116 115
f 125 120 124
f 125 121 120
f 126 121 125
f 126 122 121
f 131 128 127
f 131 132 128
f 133 99 100
f 133 132 99
f 132 129 128
f 132 133 129
f 133 130 129
f 133 134 130
f 136 101 102
f 136 135 101
f 138 99 132
f 138 104 99
f 138 103 104
f 138 137 103
f 138 131 137
f 138 132 131
f 139 133 100
f 139 100 105
f 106 139 105
f 106 140 139
f 139 134 133
f 139 140 134
f 141 101 135
f 141 107 101
f 141 106 107
f 141 140 106
f 141 134 140
f 141 135 134
f 142 136 102
f 142 102 108
f 109 142 108
f 109 143 142
f 144 103 137
f 144 110 103
f 113 112 146
f 113 146 147
f 148 114 113
f 148 113 147
f 149 143 109
f 149 109 116
f 150 110 144
f 150 117 110
f 118 117 150
f 118 150 151
f 150 144 145
f 150 145 151
f 146 112 119
f 146 119 152
f 119 118 151
f 119 151 152
f 153 146 152
f 153 147 146
f 148 121 114
f 148 154 121
f 154 120 121
f 154 153 120
f 154 147 153
f 154 148 147
f 149 116 123
f 149 123 156
f 123 122 155
f 123 155 156
f 158 152 151
f 158 159 152
f 153 124 120
f 153 160 124
f 160 152 159
f 160 153 152
f 161 125 124
f 161 124 160
f 155 122 126
f 155 126 162
f 126 125 161
f 126 161 162
f 163 155 162
f 163 156 155
f 163 157 156
f 163 164 157
f 165 163 162
f 165 166 163
f 167 166 165
f 167 168 166
f 170 127 128
f 170 169 127
f 171 128 129
f 171 170 128
f 130 171 129
f 130 172 171
f 169 131 127
f 169 174 131
f 176 175 170
f 176 170 171
f 177 172 130
f 177 130 134
f 178 134 135
f 178 177 134
f 179 135 136
f 179 178 135
f 181 131 174
f 181 137 131
f 181 173 180
f 181 174 173
f 179 136 142
f 179 142 183
f 182 178 179
f 182 179 183
f 184 142 143
f 184 183 142
f 186 137 181
f 186 144 137
f 187 145 144
f 187 144 186
f 184 143 149
f 184 149 188
f 190 185 189
f 190 186 185
f 191 145 187
f 191 151 145
f 190 187 186
f 190 191 187
f 188 149 156
f 188 156 192
f 157 192 156
f 157 193 192
f 191 158 151
f 191 194 158
f 195 159 158
f 195 158 194
f 196 160 159
f 196 159 195
f 161 160 196
f 161 196 197
f 198 162 161
f 198 161 197
f 193 157 164
f 193 164 200
f 164 163 199
f 164 199 200
f 199 192 193
f 199 193 200
f 201 195 194
f 201 202 195
f 203 195 202
f 203 196 195
f 203 197 196
f 203 204 197
f 198 165 162
f 198 205 165
f 205 197 204
f 205 198 197
f 199 163 166
f 199 166 206
f 208 201 207
f 208 202 201
f 205 167 165
f 205 210 167
f 209 205 204
f 209 210 205
f 206 166 168
f 206 168 211
f 211 168 167
f 211 167 210
f 212 211 210
f 212 213 211
f 219 169 170
f 219 218 169
f 172 220 171
f 172 221 220
f 224 215 214
f 224 225 215
f 226 215 225
f 226 216 215
f 226 217 216
f 226 227 217
f 218 174 169
f 218 229 174
f 229 173 174
f 229 228 173
f 219 170 175
f 219 175 230
f 220 176 171
f 220 231 176
f 176 230 175
f 176 231 230
f 231 219 230
f 231 220 219
f 232 221 172
f 232 172 177
f 178 232 177
f 178 233 232
f 232 222 221
f 232 233 222
f 234 222 233
f 234 223 222
f 235 226 225
f 235 236 226
f 237 226 236
f 237 227 226
f 228 180 173
f 228 238 180
f 239 181 180
f 239 180 238
f 233 178 182
f 233 182 240
f 241 182 183
f 241 240 182
f 242 183 184
f 242 241 183
f 244 181 239
f 244 186 181
f 244 185 186
f 244 243 185
f 244 238 243
f 244 239 238
f 242 184 188
f 242 188 246
f 245 241 242
f 245 242 246
f 243 189 185
f 243 247 189
f 248 190 189
f 248 189 247
f 249 191 190
f 249 190 248
f 246 188 192
f 246 192 250
f 251 248 247
f 251 252 248
f 249 194 191
f 249 253 194
f 252 249 248
f 252 253 249
f 254 250 192
f 254 192 199
f 253 201 194
f 253 255 201
f 257 203 202
f 257 202 256
f 258 204 203
f 258 203 257
f 259 254 199
f 259 199 206
f 260 201 255
f 260 207 201
f 256 202 208
f 256 208 261
f 208 207 260
f 208 260 261
f 260 255 256
f 260 256 261
f 261 257 256
f 261 262 257
f 258 209 204
f 258 263 209
f 262 258 257
f 262 263 258
f 264 210 209
f 264 209 263
f 259 206 211
f 259 211 265
f 267 262 266
f 267 263 262
f 264 212 210
f 264 268 212
f 265 211 213
f 265 213 269
f 213 212 268
f 213 268 269
f 269 268 264
f 269 264 265
f 274 214 215
f 274 273 214
f 274 270 273
f 274 271 270
f 216 274 215
f 216 275 274
f 274 272 271
f 274 275 272
f 217 275 216
f 217 276 275
f 219 277 218
f 219 278 277
f 220 278 219
f 220 279 278
f 280 220 221
f 280 279 220
f 222 280 221
f 222 281 280
f 282 222 223
f 282 281 222
f 283 214 273
f 283 224 214
f 284 225 224
f 284 224 283
f 285 276 217
f 285 217 227
f 277 229 218
f 277 287 229
f 229 286 228
f 229 287 286
f 282 223 234
f 282 234 289
f 234 233 288
f 234 288 289
f 288 281 282
f 288 282 289
f 284 235 225
f 284 290 235
f 291 236 235
f 291 235 290
f 285 227 237
f 285 237 292
f 237 236 291
f 237 291 292
f 286 238 228
f 286 293 238
f 294 293 286
f 294 286 287
f 288 233 240
f 288 240 295
f 296 240 241
f 296 295 240
f 293 243 238
f 293 298 243
f 296 241 245
f 296 245 300
f 299 295 296
f 299 296 300
f 301 245 246
f 301 300 245
f 298 247 243
f 298 303 247
f 303 297 302
f 303 298 297
f 301 246 250
f 301 250 305
f 304 300 301
f 304 301 305
f 303 251 247
f 303 306 251
f 307 252 251
f 307 251 306
f 308 253 252
f 308 252 307
f 310 305 250
f 310 250 254
f 309 304 305
f 309 305 310
f 311 253 308
f 311 255 253
f 312 256 255
f 312 255 311
f 310 254 259
f 310 259 314
f 313 309 310
f 313 310 314
f 312 261 256
f 312 316 261
f 315 312 311
f 315 316 312
f 262 261 316
f 262 316 317
f 319 264 263
f 319 263 318
f 320 314 259
f 320 259 265
f 320 265 264
f 320 264 319
f 317 266 262
f 317 321 266
f 318 263 267
f 318 267 322
f 267 266 321
f 267 321 322
f 322 321 317
f 322 317 318
f 271 323 270
f 271 324 323
f 272 324 271
f 272 325 324
f 327 270 323
f 327 273 270
f 328 327 323
f 328 323 324
f 329 325 272
f 329 272 275
f 276 329 275
f 276 330 329
f 329 326 325
f 329 330 326
f 332 277 278
f 332 331 277
f 333 278 279
f 333 332 278
f 334 279 280
f 334 333 279
f 335 280 281
f 335 334 280
f 327 283 273
f 327 336 283
f 284 283 336
f 284 336 337
f 338 330 276
f 338 276 285
f 339 277 331
f 339 287 277
f 340 332 333
f 340 333 341
f 342 341 333
f 342 333 334
f 335 281 288
f 335 288 343
f 342 334 335
f 342 335 343
f 337 290 284
f 337 344 290
f 291 290 344
f 291 344 345
f 338 285 292
f 338 292 346
f 346 292 291
f 346 291 345
f 339 294 287
f 339 348 294
f 294 347 293
f 294 348 347
f 349 343 288
f 349 288 295
f 347 298 293
f 347 354 298
f 354 297 298
f 354 353 297
f 355 354 347
f 355 347 348
f 349 295 299
f 349 299 356
f 357 299 300
f 357 356 299
f 359 350 358
f 359 351 350
f 359 352 351
f 359 360 352
f 361 297 353
f 361 302 297
f 362 303 302
f 362 302 361
f 357 300 304
f 357 304 364
f 363 356 357
f 363 357 364
f 362 306 303
f 362 365 306
f 307 306 365
f 307 365 366
f 308 307 366
f 308 366 367
f 368 364 304
f 368 304 309
f 369 308 367
f 369 311 308
f 368 309 313
f 368 313 373
f 374 313 314
f 374 373 313
f 375 311 369
f 375 315 311
f 376 316 315
f 376 315 375
f 375 369 370
f 375 370 376
f 317 316 376
f 317 376 377
f 376 370 371
f 376 371 377
f 318 317 377
f 318 377 378
f 379 319 318
f 379 318 378
f 379 378 372
f 379 372 373
f 374 314 320
f 374 320 380
f 380 320 319
f 380 319 379
f 379 373 374
f 379 374 380
f 325 381 324
f 325 382 381
f 326 382 325
f 326 383 382
f 381 328 324
f 381 385 328
f 328 384 327
f 328 385 384
f 386 383 326
f 386 326 330
f 388 331 332
f 388 387 331
f 384 336 327
f 384 391 336
f 392 337 336
f 392 336 391
f 386 330 338
f 386 338 394
f 387 339 331
f 387 395 339
f 388 332 340
f 388 340 396
f 395 387 388
f 395 388 396
f 397 340 341
f 397 396 340
f 398 341 342
f 398 397 341
f 399 342 343
f 399 398 342
f 401 389 400
f 401 390 389
f 402 390 401
f 402 391 390
f 392 344 337
f 392 403 344
f 345 344 403
f 345 403 404
f 403 392 393
f 403 393 404
f 405 394 338
f 405 338 346
f 405 346 345
f 405 345 404
f 406 339 395
f 406 348 339
f 407 406 395
f 407 395 396
f 399 343 349
f 399 349 408
f 409 403 402
f 409 410 403
f 411 350 351
f 411 410 350
f 411 403 410
f 411 404 403
f 412 351 352
f 412 411 351
f 414 353 354
f 414 413 353
f 406 355 348
f 406 415 355
f 355 414 354
f 355 415 414
f 416 415 406
f 416 406 407
f 417 408 349
f 417 349 356
f 410 358 350
f 410 421 358
f 421 409 420
f 421 410 409
f 422 359 358
f 422 358 421
f 423 412 352
f 423 352 360
f 360 359 422
f 360 422 423
f 424 353 413
f 424 361 353
f 425 362 361
f 425 361 424
f 417 356 363
f 417 363 428
f 429 363 364
f 429 428 363
f 430 419 418
f 430 431 419
f 425 365 362
f 425 432 365
f 366 365 432
f 366 432 433
f 367 366 433
f 367 433 434
f 436 435 426
f 436 426 427
f 429 364 368
f 429 368 438
f 437 428 429
f 437 429 438
f 439 367 434
f 439 369 367
f 370 369 439
f 370 439 440
f 371 370 440
f 371 440 441
f 440 435 436
f 440 436 441
f 443 438 368
f 443 368 373
f 443 373 372
f 443 372 442
f 443 442 437
f 443 437 438
f 444 371 441
f 444 377 371
f 445 442 372
f 445 372 378
f 445 378 377
f 445 377 444
f 445 444 441
f 445 441 442
f 450 447 446
f 450 451 447
f 452 381 382
f 452 451 381
f 452 447 451
f 452 448 447
f 383 452 382
f 383 453 452
f 452 449 448
f 452 453 449
f 456 381 451
f 456 385 381
f 456 384 385
f 456 455 384
f 456 450 455
f 456 451 450
f 457 453 383
f 457 383 386
f 457 454 453
f 457 458 454
f 390 459 389
f 390 460 459
f 461 384 455
f 461 391 384
f 461 390 391
f 461 460 390
f 462 392 391
f 462 391 461
f 393 392 462
f 393 462 463
f 457 386 394
f 457 394 464
f 465 457 464
f 465 458 457
f 397 467 396
f 397 468 467
f 469 397 398
f 469 468 397
f 470 398 399
f 470 469 398
f 459 400 389
f 459 472 400
f 473 401 400
f 473 400 472
f 461 391 402
f 461 402 474
f 474 402 401
f 474 401 473
f 475 402 403
f 475 474 402
f 474 462 461
f 474 475 462
f 463 404 393
f 463 476 404
f 404 475 403
f 404 476 475
f 475 463 462
f 475 476 463
f 477 464 394
f 477 394 405
f 405 404 476
f 405 476 477
f 467 407 396
f 467 481 407
f 481 466 480
f 481 467 466
f 482 481 467
f 482 467 468
f 470 399 408
f 470 408 484
f 483 469 470
f 483 470 484
f 486 471 485
f 486 472 471
f 486 473 472
f 486 487 473
f 488 402 474
f 488 409 402
f 488 473 487
f 488 474 473
f 476 404 411
f 476 411 489
f 412 489 411
f 412 490 489
f 414 491 413
f 414 492 491
f 492 478 491
f 492 479 478
f 493 414 415
f 493 492 414
f 493 479 492
f 493 480 479
f 481 416 407
f 481 494 416
f 416 493 415
f 416 494 493
f 494 480 493
f 494 481 480
f 494 481 482
f 494 482 495
f 484 408 417
f 484 417 497
f 497 496 483
f 497 483 484
f 419 498 418
f 419 499 498
f 498 487 486
f 498 499 487
f 488 420 409
f 488 500 420
f 500 487 499
f 500 488 487
f 501 421 420
f 501 420 500
f 422 421 501
f 422 501 502
f 490 412 423
f 490 423 503
f 503 423 422
f 503 422 502
f 503 502 489
f 503 489 490
f 504 413 491
f 504 424 413
f 425 424 504
f 425 504 505
f 504 491 492
f 504 492 505
f 427 426 508
f 427 508 509
f 510 497 417
f 510 417 428
f 510 509 496
f 510 496 497
f 511 418 498
f 511 430 418
f 512 499 419
f 512 419 431
f 431 430 511
f 431 511 512
f 512 511 498
f 512 498 499
f 513 501 500
f 513 514 501
f 515 501 514
f 515 502 501
f 516 425 505
f 516 432 425
f 433 432 516
f 433 516 517
f 516 505 506
f 516 506 517
f 434 433 517
f 434 517 518
f 517 506 507
f 517 507 518
f 519 508 426
f 519 426 435
f 519 518 507
f 519 507 508
f 520 427 509
f 520 436 427
f 510 428 437
f 510 437 521
f 520 509 510
f 520 510 521
f 522 434 518
f 522 439 434
f 523 519 435
f 523 435 440
f 523 440 439
f 523 439 522
f 522 518 519
f 522 519 523
f 524 436 520
f 524 441 436
f 525 521 437
f 525 437 442
f 525 442 441
f 525 441 524
f 524 520 521
f 524 521 525
f 528 527 526
f 528 529 527
f 532 446 447
f 532 531 446
f 448 532 447
f 448 533 532
f 533 528 532
f 533 529 528
f 534 448 449
f 534 533 448
f 536 446 531
f 536 450 446
f 536 530 535
f 536 531 530
f 537 534 449
f 537 449 453
f 454 537 453
f 454 538 537
f 540 450 536
f 540 455 450
f 540 535 539
f 540 536 535
f 541 538 454
f 541 454 458
f 544 459 460
f 544 543 459
f 545 455 540
f 545 461 455
f 545 460 461
f 545 544 460
f 545 539 544
f 545 540 539
f 541 458 465
f 541 465 547
f 465 464 546
f 465 546 547
f 551 466 467
f 551 550 466
f 553 468 469
f 553 552 468
f 555 459 543
f 555 472 459
f 555 471 472
f 555 554 471
f 555 542 554
f 555 543 542
f 546 464 477
f 546 477 557
f 477 476 556
f 477 556 557
f 558 546 557
f 558 547 546
f 558 548 547
f 558 559 548
f 560 478 479
f 560 559 478
f 560 548 559
f 560 549 548
f 561 466 550
f 561 480 466
f 480 560 479
f 480 561 560
f 561 549 560
f 561 550 549
f 551 467 481
f 551 481 562
f 561 550 551
f 561 551 562
f 552 482 468
f 552 563 482
f 553 469 483
f 553 483 564
f 554 485 471
f 554 565 485
f 566 486 485
f 566 485 565
f 556 476 489
f 556 489 567
f 568 556 567
f 568 557 556
f 568 558 557
f 568 569 558
f 570 478 559
f 570 491 478
f 570 558 569
f 570 559 558
f 571 492 491
f 571 491 570
f 562 481 494
f 562 494 572
f 563 495 482
f 563 573 495
f 495 572 494
f 495 573 572
f 574 564 483
f 574 483 496
f 574 573 563
f 574 563 564
f 576 486 566
f 576 498 486
f 575 566 565
f 575 576 566
f 577 499 498
f 577 498 576
f 578 500 499
f 578 499 577
f 567 489 502
f 567 502 579
f 579 568 567
f 579 580 568
f 581 568 580
f 581 569 568
f 571 505 492
f 571 583 505
f 582 571 570
f 582 583 571
f 506 505 583
f 506 583 584
f 507 506 584
f 507 584 585
f 586 508 507
f 586 507 585
f 586 585 572
f 586 572 573
f 587 574 496
f 587 496 509
f 587 509 508
f 587 508 586
f 587 586 573
f 587 573 574
f 578 513 500
f 578 589 513
f 588 578 577
f 588 589 578
f 590 514 513
f 590 513 589
f 579 502 515
f 579 515 591
f 515 514 590
f 515 590 591
f 592 579 591
f 592 580 579
f 593 592 591
f 593 594 592
f 527 595 526
f 527 596 595
f 599 526 595
f 599 528 526
f 600 596 527
f 600 527 529
f 600 597 596
f 600 601 597
f 601 598 597
f 601 602 598
f 604 530 531
f 604 603 530
f 605 528 599
f 605 532 528
f 605 531 532
f 605 604 531
f 606 600 529
f 606 529 533
f 534 606 533
f 534 607 606
f 606 601 600
f 606 607 601
f 607 602 601
f 607 608 602
f 611 530 603
f 611 535 530
f 612 604 605
f 612 605 613
f 614 607 534
f 614 534 537
f 538 614 537
f 538 615 614
f 614 608 607
f 614 615 608
f 615 609 608
f 615 616 609
f 617 609 616
f 617 610 609
f 611 539 535
f 611 619 539
f 620 615 538
f 620 538 541
f 621 615 620
f 621 616 615
f 543 624 542
f 543 625 624
f 619 544 539
f 619 626 544
f 626 543 544
f 626 625 543
f 626 618 625
f 626 619 618
f 627 620 541
f 627 541 547
f 548 627 547
f 548 628 627
f 627 621 620
f 627 628 621
f 549 628 548
f 549 629 628
f 630 549 550
f 630 629 549
f 629 623 622
f 629 630 623
f 553 631 552
f 553 632 631
f 633 542 624
f 633 554 542
f 634 633 624
f 634 624 625
f 635 634 625
f 635 625 626
f 636 630 550
f 636 550 561
f 562 636 561
f 562 637 636
f 638 552 631
f 638 563 552
f 639 632 553
f 639 553 564
f 564 563 638
f 564 638 639
f 638 631 632
f 638 632 639
f 640 554 633
f 640 565 554
f 641 640 633
f 641 633 634
f 643 570 569
f 643 569 642
f 637 562 572
f 637 572 645
f 640 575 565
f 640 646 575
f 576 575 646
f 576 646 647
f 646 640 641
f 646 641 647
f 648 577 576
f 648 576 647
f 642 569 581
f 642 581 650
f 581 580 649
f 581 649 650
f 643 582 570
f 643 651 582
f 650 643 642
f 650 651 643
f 652 583 582
f 652 582 651
f 653 584 583
f 653 583 652
f 654 645 572
f 654 572 585
f 654 585 584
f 654 584 653
f 654 653 644
f 654 644 645
f 648 588 577
f 648 655 588
f 656 589 588
f 656 588 655
f 590 589 656
f 590 656 657
f 591 590 657
f 591 657 658
f 649 580 592
f 649 592 659
f 660 649 659
f 660 650 649
f 661 650 660
f 661 651 650
f 658 593 591
f 658 662 593
f 663 659 592
f 663 592 594
f 663 594 593
f 663 593 662
f 596 664 595
f 596 665 664
f 597 665 596
f 597 666 665
f 667 597 598
f 667 666 597
f 664 599 595
f 664 669 599
f 667 598 602
f 667 602 671
f 670 666 667
f 670 667 671
f 604 672 603
f 604 673 672
f 674 599 669
f 674 605 599
f 674 668 673
f 674 669 668
f 675 671 602
f 675 602 608
f 609 675 608
f 609 676 675
f 677 609 610
f 677 676 609
f 672 611 603
f 672 679 611
f 680 673 604
f 680 604 612
f 674 613 605
f 674 681 613
f 613 680 612
f 613 681 680
f 680 674 673
f 680 681 674
f 677 610 617
f 677 617 683
f 617 616 682
f 617 682 683
f 682 676 677
f 682 677 683
f 679 619 611
f 679 685 619
f 685 618 619
f 685 684 618
f 685 678 684
f 685 679 678
f 686 682 616
f 686 616 621
f 686 683 682
f 686 687 683
f 688 622 623
f 688 687 622
f 689 618 684
f 689 625 618
f 626 625 689
f 626 689 690
f 689 684 685
f 689 685 690
f 691 686 621
f 691 621 628
f 692 622 687
f 692 629 622
f 629 691 628
f 629 692 691
f 693 688 623
f 693 623 630
f 690 635 626
f 690 696 635
f 635 695 634
f 635 696 695
f 698 693 630
f 698 630 636
f 697 692 693
f 697 693 698
f 699 636 637
f 699 698 636
f 695 641 634
f 695 701 641
f 700 695 694
f 700 701 695
f 703 697 698
f 703 698 704
f 705 699 637
f 705 637 645
f 705 645 644
f 705 644 704
f 704 698 699
f 704 699 705
f 706 641 701
f 706 647 641
f 648 647 706
f 648 706 707
f 712 652 651
f 712 651 711
f 712 711 702
f 712 702 703
f 713 704 644
f 713 644 653
f 713 653 652
f 713 652 712
f 713 712 703
f 713 703 704
f 707 655 648
f 707 714 655
f 656 655 714
f 656 714 715
f 716 657 656
f 716 656 715
f 715 708 709
f 715 709 716
f 717 658 657
f 717 657 716
f 660 659 718
f 660 718 719
f 711 651 661
f 711 661 720
f 720 661 660
f 720 660 719
f 720 719 710
f 720 710 711
f 717 662 658
f 717 721 662
f 718 659 663
f 718 663 722
f 722 663 662
f 722 662 721
f 665 723 664
f 665 724 723
f 725 665 666
f 725 724 665
f 723 669 664
f 723 727 669
f 669 726 668
f 669 727 726
f 728 727 723
f 728 723 724
f 725 666 670
f 725 670 729
f 730 670 671
f 730 729 670
f 734 668 726
f 734 673 668
f 734 672 673
f 734 733 672
f 735 734 726
f 735 726 727
f 736 728 729
f 736 729 737
f 730 671 675
f 730 675 738
f 739 675 676
f 739 738 675
f 738 731 730
f 738 739 731
f 741 672 733
f 741 679 672
f 741 678 679
f 741 740 678
f 741 732 740
f 741 733 732
f 742 736 737
f 742 737 743
f 744 743 737
f 744 737 738
f 745 739 676
f 745 676 682
f 744 738 739
f 744 739 745
f 746 682 683
f 746 745 682
f 747 678 740
f 747 684 678
f 748 685 684
f 748 684 747
f 746 683 687
f 746 687 750
f 750 687 686
f 750 686 749
f 749 745 746
f 749 746 750
f 751 687 688
f 751 750 687
f 748 690 685
f 748 752 690
f 749 686 691
f 749 691 753
f 754 687 750
f 754 692 687
f 754 691 692
f 754 753 691
f 755 751 688
f 755 688 693
f 755 693 692
f 755 692 754
f 754 750 751
f 754 751 755
f 757 694 695
f 757 756 694
f 752 696 690
f 752 758 696
f 696 757 695
f 696 758 757
f 754 692 697
f 754 697 761
f 761 760 753
f 761 753 754
f 756 700 694
f 756 762 700
f 701 700 762
f 701 762 763
f 762 756 757
f 762 757 763
f 763 757 758
f 763 758 764
f 769 768 759
f 769 759 760
f 770 761 697
f 770 697 703
f 770 703 702
f 770 702 769
f 770 769 760
f 770 760 761
f 763 706 701
f 763 771 706
f 707 706 771
f 707 771 772
f 771 763 764
f 771 764 772
f 772 764 765
f 772 765 773
f 709 708 773
f 709 773 774
f 775 774 766
f 775 766 767
f 778 769 702
f 778 702 711
f 778 711 710
f 778 710 777
f 778 777 768
f 778 768 769
f 779 707 772
f 779 714 707
f 780 773 708
f 780 708 715
f 780 715 714
f 780 714 779
f 779 772 773
f 779 773 780
f 781 709 774
f 781 716 709
f 717 716 781
f 717 781 782
f 781 774 775
f 781 775 782
f 784 777 710
f 784 710 719
f 784 719 718
f 784 718 783
f 784 783 776
f 784 776 777
f 785 717 782
f 785 721 717
f 786 783 718
f 786 718 722
f 786 722 721
f 786 721 785
f 785 782 783
f 785 783 786
f 725 787 724
f 725 788 787
f 787 728 724
f 787 790 728
f 728 789 727
f 728 790 789
f 788 725 729
f 788 729 791
f 791 729 728
f 791 728 790
f 791 790 787
f 791 787 788
f 792 729 730
f 792 791 729
f 731 792 730
f 731 793 792
f 795 732 733
f 795 794 732
f 734 795 733
f 734 796 795
f 789 735 727
f 789 797 735
f 735 796 734
f 735 797 796
f 790 728 736
f 790 736 798
f 798 797 789
f 798 789 790
f 791 737 729
f 791 799 737
f 800 738 737
f 800 737 799
f 799 791 792
f 799 792 800
f 801 793 731
f 801 731 739
f 801 739 738
f 801 738 800
f 801 800 792
f 801 792 793
f 802 732 794
f 802 740 732
f 802 794 795
f 802 795 803
f 804 803 795
f 804 795 796
f 805 798 736
f 805 736 742
f 806 742 743
f 806 805 742
f 807 743 744
f 807 806 743
f 806 800 799
f 806 807 800
f 808 744 745
f 808 807 744
f 809 740 802
f 809 747 740
f 748 747 809
f 748 809 810
f 809 802 803
f 809 803 810
f 808 745 749
f 808 749 814
f 813 807 808
f 813 808 814
f 815 748 810
f 815 752 748
f 815 810 811
f 815 811 816
f 818 817 812
f 818 812 813
f 814 749 753
f 814 753 819
f 818 813 814
f 818 814 819
f 820 752 815
f 820 758 752
f 819 753 760
f 819 760 823
f 823 760 759
f 823 759 822
f 820 764 758
f 820 824 764
f 765 764 824
f 765 824 825
f 827 767 766
f 827 766 826
f 829 822 759
f 829 759 768
f 829 828 821
f 829 821 822
f 830 765 825
f 830 773 765
f 831 826 766
f 831 766 774
f 774 773 830
f 774 830 831
f 830 825 826
f 830 826 831
f 827 775 767
f 827 832 775
f 831 827 826
f 831 832 827
f 834 829 768
f 834 768 777
f 834 777 776
f 834 776 833
f 834 833 828
f 834 828 829
f 835 775 832
f 835 782 775
f 836 833 776
f 836 776 783
f 836 783 782
f 836 782 835
f 835 832 833
f 835 833 836
f 797 837 796
f 797 838 837
f 839 797 798
f 839 838 797
f 841 799 800
f 841 840 799
f 837 804 796
f 837 843 804
f 804 842 803
f 804 843 842
f 844 843 837
f 844 837 838
f 839 798 805
f 839 805 845
f 844 838 839
f 844 839 845
f 840 806 799
f 840 846 806
f 846 805 806
f 846 845 805
f 841 800 807
f 841 807 847
f 847 846 840
f 847 840 841
f 848 803 842
f 848 810 803
f 811 810 848
f 811 848 849
f 849 848 842
f 849 842 843
f 849 843 844
f 849 844 850
f 852 851 845
f 852 845 846
f 853 847 807
f 853 807 813
f 853 813 812
f 853 812 852
f 853 852 846
f 853 846 847
f 849 816 811
f 849 855 816
f 816 854 815
f 816 855 854
f 855 849 850
f 855 850 856
f 857 856 850
f 857 850 851
f 858 852 812
f 858 812 817
f 857 851 852
f 857 852 858
f 859 817 818
f 859 858 817
f 860 818 819
f 860 859 818
f 854 820 815
f 854 861 820
f 862 861 854
f 862 854 855
f 862 855 856
f 862 856 863
f 863 856 857
f 863 857 864
f 865 864 857
f 865 857 858
f 866 822 821
f 866 821 865
f 865 858 859
f 865 859 866
f 860 819 823
f 860 823 867
f 823 822 866
f 823 866 867
f 867 866 859
f 867 859 860
f 868 820 861
f 868 824 820
f 869 825 824
f 869 824 868
f 868 861 862
f 868 862 869
f 826 825 869
f 826 869 870
f 869 862 863
f 869 863 870
f 872 865 821
f 872 821 828
f 872 871 864
f 872 864 865
f 873 826 870
f 873 831 826
f 832 831 873
f 832 873 874
f 873 870 871
f 873 871 874
f 875 872 828
f 875 828 833
f 875 833 832
f 875 832 874
f 874 871 872
f 874 872 875
f 845 876 844
f 845 877 876
f 876 850 844
f 876 878 850
f 877 845 851
f 877 851 879
f 851 850 878
f 851 878 879
f 878 876 877
f 878 877 879
f 864 880 863
f 864 881 880
f 882 863 880
f 882 870 863
f 883 881 864
f 883 864 871
f 871 870 882
f 871 882 883
f 882 880 881
f 882 881 883
