# parsimony mesh: cplx_CPLX0-3953 (source /Users/eranagmon/code/v2e-cplx/workspace/studies/ecoli-3d/viz/3d/structures/cplx_CPLX0-3953.pdb)
# atoms: 24627  voxel: 16 Å  verts: 954  tris: 1830
v -173.0337 7.0818 -262.4542
v -171.3830 7.0818 -262.4542
v 81.3029 5.0629 -263.2151
v 85.8279 5.0629 -263.2151
v -174.0333 15.3430 -262.6361
v -171.2229 15.3430 -262.6361
v 81.1355 15.3430 -263.2197
v 85.7106 15.3430 -263.2197
v -173.6202 23.7581 -262.5294
v -171.5237 23.7581 -262.5294
v 82.9350 23.7653 -262.5466
v 84.5101 23.7653 -262.5466
v 51.5040 54.5335 -262.6542
v 53.1487 54.5335 -262.6542
v 51.5040 57.0370 -262.6542
v 53.1487 57.0370 -262.6542
v 83.4327 260.4428 -262.8788
v 85.7095 260.4428 -262.8788
v 67.9500 279.2049 -262.3248
v 77.2939 272.8601 -263.1997
v 86.3509 271.3430 -263.3575
v 67.9500 279.4775 -262.3248
v 76.0858 280.6246 -262.9421
v 85.4823 280.9172 -263.0668
v 67.8557 -248.8336 -246.5678
v 76.0858 -249.1662 -247.3051
v 84.5847 -249.1593 -247.3078
v -190.9681 -235.3400 -247.5579
v -179.9142 -237.8304 -249.1705
v -168.4431 -236.8720 -248.8049
v 64.9560 -240.6570 -248.7859
v 76.0858 -240.6570 -250.5590
v 84.7990 -240.6570 -247.9763
v -192.7656 -224.6570 -247.7187
v -180.5123 -224.3622 -248.9767
v -168.4431 -229.4989 -248.8049
v 64.2130 -224.6570 -249.2484
v 76.0858 -224.6570 -252.0166
v 87.4161 -224.6570 -248.9713
v -191.3289 -216.1650 -246.8692
v -186.2444 -216.1650 -246.8692
v 66.8651 -216.0161 -247.1845
v 76.0858 -214.2150 -248.7626
v 88.0742 -214.0419 -248.6344
v 82.6947 -9.3687 -247.9723
v 86.6737 -9.3687 -247.9723
v -189.6815 5.9866 -249.5258
v -178.9859 5.6912 -254.5968
v -169.9270 6.2954 -254.2032
v 66.1233 6.8162 -247.1836
v 76.6655 0.6062 -252.9113
v 88.7509 -0.4251 -253.6647
v 322.1655 6.4368 -247.1039
v 332.0858 6.1702 -247.6865
v 340.6196 6.6854 -247.2802
v -190.7595 15.3430 -251.3757
v -182.0333 15.3430 -259.3757
v -168.4537 15.3430 -254.2032
v 51.5509 21.9883 -246.3501
v 60.5083 16.1302 -248.5441
v 73.1355 15.3430 -257.0192
v 91.5445 15.3430 -254.2032
v 307.9145 22.5665 -246.3822
v 316.5336 16.4771 -247.6370
v 332.0858 15.3430 -250.8322
v 341.0263 15.3430 -249.1741
v -189.9406 25.4110 -249.7772
v -179.3378 26.0033 -254.7476
v -170.4408 25.1174 -254.2032
v 51.5509 23.7208 -246.3501
v 60.8769 29.9697 -248.4286
v 77.7408 31.3668 -253.3176
v 87.6540 27.3788 -254.2032
v 307.9145 23.5453 -246.3822
v 316.0858 24.9702 -247.3199
v 332.0858 25.7242 -249.3489
v 340.8059 24.5505 -249.0874
v 51.5040 54.5335 -257.9594
v 59.9431 47.8135 -252.4752
v 72.5465 41.0936 -246.9910
v 51.5040 57.0370 -257.9594
v 53.1487 57.0370 -257.9594
v -174.5630 261.3103 -249.2701
v -169.5452 261.3103 -249.2701
v 80.9262 259.8109 -254.2032
v 91.4601 259.7350 -253.9432
v 101.1837 262.0391 -248.4366
v -188.1271 278.7739 -246.4563
v -179.9035 272.6015 -251.1546
v -167.8900 271.3430 -252.2027
v 66.6364 276.5926 -254.2032
v 72.9262 268.5926 -254.2032
v 93.9964 271.3322 -253.9432
v 101.1837 265.9917 -248.4366
v -188.9639 287.3430 -246.5001
v -181.2804 287.0952 -249.4002
v -168.9175 281.5966 -251.1356
v 66.6364 280.5055 -254.2032
v 76.0858 282.8740 -254.2032
v 87.2563 281.7114 -254.2032
v -189.1008 295.4929 -246.3459
v -187.5245 295.4929 -246.3459
v -188.9975 -249.5650 -232.2496
v -179.9142 -249.6697 -233.7230
v -171.4980 -249.0992 -232.8498
v 67.8557 -248.8336 -245.5164
v 76.0858 -249.1662 -245.1435
v 84.5847 -249.1593 -245.4771
v -191.3995 -240.6668 -237.8311
v -179.9142 -245.8304 -241.7230
v -168.9377 -241.5860 -238.1911
v 51.4266 -233.5728 -233.3416
v 60.6660 -239.9375 -239.4290
v 75.8620 -240.8441 -238.5640
v 84.7990 -240.6570 -245.1693
v -192.7983 -224.7072 -238.9763
v -180.5123 -220.8305 -238.9763
v -168.5057 -227.8111 -238.2032
v 51.4266 -230.9806 -233.3416
v 58.3400 -225.2511 -238.4862
v 77.9590 -224.6570 -236.5144
v 87.4161 -224.6570 -244.5144
v -191.3289 -216.1650 -244.8251
v -186.2444 -216.1650 -244.8251
v 66.8608 -216.0758 -238.2032
v 74.6082 -214.6229 -238.8436
v 88.0742 -214.0419 -244.6039
v 82.6947 -9.3687 -245.3976
v 86.6737 -9.3687 -245.3976
v -189.6815 5.9866 -242.0290
v -179.9142 5.4741 -240.0882
v -169.7958 6.2075 -242.2241
v 50.4415 6.2999 -234.1164
v 60.5083 5.5093 -238.9511
v 76.6433 1.0031 -239.1186
v 88.6107 -0.6570 -243.5762
v 322.4090 6.5850 -238.2032
v 330.5930 6.3421 -239.2670
v 340.6196 6.6854 -245.3095
v -191.9420 14.4592 -237.2987
v -179.9142 9.2060 -232.0882
v -168.2596 14.5171 -237.4157
v 50.2031 16.1302 -238.9511
v 55.4566 11.3216 -244.7830
v 81.2586 9.7923 -232.8395
v 90.7800 15.2126 -238.1850
v 307.3623 21.2464 -238.2032
v 314.4090 13.2464 -238.2032
v 333.9026 15.3430 -236.4549
v 341.0263 15.3430 -244.4549
v -191.6234 27.2756 -238.2032
v -180.1866 34.0595 -237.8761
v -168.2872 30.9134 -237.8761
v 50.9656 24.2642 -238.2032
v 58.5415 32.2642 -238.2032
v 83.2132 38.9684 -245.6414
v 89.5624 32.7183 -239.4661
v 307.3623 24.7729 -238.2032
v 316.0858 29.2857 -238.2032
v 331.8321 27.6777 -238.9408
v 340.8059 24.5505 -244.7659
v -175.0349 40.8325 -232.3247
v -169.8418 40.8325 -232.3247
v 66.5415 41.4646 -238.2032
v 77.1623 41.5973 -239.4661
v 85.5018 40.2714 -234.9748
v -188.1746 247.1375 -230.4667
v -187.4805 247.1375 -230.4667
v -189.1575 255.3430 -232.2835
v -181.0217 256.4266 -236.9234
v -169.5564 260.9684 -238.2032
v 51.2785 262.4715 -232.1196
v 60.0858 261.3153 -234.3297
v 75.4213 261.5223 -238.8949
v 92.0858 261.0081 -243.7800
v 101.1837 262.0391 -245.1745
v -188.7193 272.6652 -239.0072
v -182.1922 271.8296 -239.1965
v -168.2300 270.4376 -238.6290
v 50.7166 271.3430 -232.8433
v 60.6078 270.8255 -240.8666
v 75.2521 268.6876 -239.1035
v 92.1844 271.3322 -243.0951
v 101.1837 265.9917 -245.1745
v -204.2491 294.5068 -232.3766
v -194.9283 290.4131 -239.6831
v -181.2804 287.0952 -244.1967
v -168.9175 281.5966 -244.2462
v 51.0676 280.4312 -231.8069
v 60.6078 281.5953 -237.5654
v 75.7160 281.8927 -238.6336
v 86.9167 280.9268 -244.2539
v -204.2491 295.7166 -232.3766
v -195.9908 295.6047 -239.0475
v -187.5245 295.4929 -245.7184
v -188.9975 -249.5650 -228.5322
v -179.9142 -249.6697 -228.5041
v -171.4980 -249.0992 -229.6087
v -189.9804 -240.6570 -227.7083
v -179.9142 -240.6570 -225.8498
v -170.7969 -240.6570 -228.3447
v 51.4266 -233.5728 -229.1716
v 61.4703 -237.1874 -223.1842
v 70.0608 -237.6331 -222.2032
v -189.5858 -230.0740 -228.5477
v -179.9142 -228.2425 -227.5489
v -170.8406 -229.3540 -228.3196
v 51.4266 -230.9806 -229.1716
v 62.3666 -226.2687 -224.2181
v 69.7882 -225.9970 -223.6401
v 67.6732 -216.5229 -229.9313
v 68.2898 -216.5229 -229.9313
v 50.4415 6.2999 -227.8968
v 60.4820 5.3328 -222.4193
v 70.6700 5.6126 -222.2032
v 323.7704 7.2386 -230.0856
v 324.2645 7.2386 -230.0856
v -190.8334 19.2033 -227.7268
v -179.9142 17.2060 -227.1198
v -169.5155 19.3000 -228.5684
v 50.1289 15.8913 -222.4193
v 55.4127 10.9235 -217.2301
v 77.7086 15.2126 -222.6166
v 87.4643 20.4590 -228.2255
v 307.2924 21.3240 -228.8894
v 317.4966 15.7316 -228.3027
v 325.9026 15.3430 -228.8129
v -190.8334 26.5184 -227.7268
v -180.1866 31.6482 -226.8195
v -168.5609 31.3430 -227.8309
v 50.8729 24.4974 -222.2032
v 61.2593 31.6092 -223.3585
v 75.6413 30.6856 -221.5620
v 87.6817 31.3430 -227.9576
v 307.2924 25.0473 -228.8894
v 316.0858 27.6584 -227.9157
v 326.3296 27.3926 -228.4670
v -175.0349 40.8325 -228.6749
v -169.8418 40.8325 -228.6749
v 67.3749 40.4212 -229.4621
v 76.0858 40.8479 -228.8850
v 85.5018 40.2714 -229.1867
v -188.1746 247.1375 -229.1898
v -187.4805 247.1375 -229.1898
v -189.1575 255.3430 -226.3643
v -181.2539 256.2629 -225.3517
v -171.1395 262.2095 -227.2358
v 51.2785 262.4715 -227.9004
v 60.1472 261.1234 -222.4215
v 70.3634 261.2220 -222.2032
v -189.3115 266.5564 -226.0981
v -179.9142 266.6213 -224.8989
v -171.1395 264.5007 -227.2358
v 50.7166 271.3430 -227.0682
v 60.1472 271.3003 -219.2576
v 71.1381 271.3003 -221.7656
v -204.2491 294.5068 -229.8725
v -202.8809 294.5068 -229.8725
v 51.0676 280.4312 -228.3260
v 60.0858 281.0968 -226.2483
v 70.1362 280.5933 -226.8072
v -204.2491 295.7166 -229.8725
v -202.8809 295.7166 -229.8725
v 67.7266 -236.3134 -213.8519
v 68.4255 -236.3134 -213.8519
v 67.7266 -232.2236 -213.8519
v 68.4255 -232.2236 -213.8519
v 66.0794 6.5222 -212.4628
v 69.0252 6.5222 -212.4628
v 51.4272 21.5902 -213.4225
v 60.4820 15.8913 -211.5499
v 70.2346 15.3430 -211.4721
v 51.4272 24.0317 -213.4225
v 60.0858 25.0378 -212.1919
v 70.0115 24.9141 -212.3021
v 65.5215 262.3471 -213.5334
v 68.8920 262.3471 -213.5334
v 65.5215 265.9385 -213.5334
v 68.8920 265.9385 -213.5334
v -109.1116 53.6706 -71.0039
v -106.8976 53.6706 -71.0039
v -110.9943 63.3429 -71.6874
v -106.1638 63.3429 -71.6874
v -110.8235 74.6342 -71.3814
v -106.5968 74.6342 -71.3814
v -141.2959 -234.5997 -55.6216
v -137.9783 -234.5997 -55.6216
v -141.2959 -231.5361 -55.6216
v -137.9783 -231.5361 -55.6216
v -125.8713 6.5885 -55.5216
v -122.7559 6.5885 -55.5216
v -129.3130 15.3430 -58.8666
v -121.3760 15.3430 -58.8666
v -128.3114 31.3430 -58.7130
v -120.5847 31.3430 -58.7130
v -124.5359 40.3073 -55.3168
v -115.4062 46.9889 -61.1066
v -106.8976 53.6706 -66.8963
v -110.9943 63.3429 -65.5913
v -106.1638 63.3429 -65.5913
v -110.8235 74.6342 -67.3609
v -106.5968 74.6342 -67.3609
v -143.1469 -234.8067 -46.2032
v -138.1119 -234.8067 -46.2032
v -143.1469 -231.3916 -46.2032
v -138.1119 -231.3916 -46.2032
v -125.8713 6.5885 -51.4784
v -122.7559 6.5885 -51.4784
v -141.2916 21.9482 -43.4176
v -132.8467 15.5866 -47.4480
v -120.1169 14.8722 -46.1683
v -141.2916 28.5902 -43.4176
v -136.9925 32.8913 -47.7318
v -117.2173 31.3430 -46.2032
v -128.3311 41.3684 -46.2032
v -121.0952 41.3684 -46.2032
v -157.3501 -233.7953 -26.0158
v -148.4461 -233.6880 -31.5573
v -139.4470 -233.5807 -37.0988
v -157.3501 -230.7190 -26.0158
v -148.4461 -231.4049 -31.5573
v -139.4470 -232.0908 -37.0988
v -140.4515 7.0358 -22.4868
v -131.9142 6.6117 -24.0967
v -123.3670 6.6752 -24.4443
v -157.2575 21.4161 -23.3660
v -146.2049 16.3488 -28.2597
v -129.3775 15.4109 -28.6250
v -122.1683 14.7863 -29.5535
v 323.1600 23.2698 -23.0494
v 324.1612 23.2698 -23.0494
v -157.2575 25.7580 -23.3660
v -147.1406 30.0763 -29.3009
v -132.9218 33.0799 -29.5091
v -120.5468 31.3430 -33.1621
v 323.1600 23.6523 -23.0494
v 324.1612 23.6523 -23.0494
v -129.1817 41.0792 -35.0223
v -122.3688 41.0792 -35.0223
v -156.3559 275.7490 -22.6808
v -155.1535 275.7490 -22.6808
v 83.9297 278.9967 -22.3593
v 87.3325 278.9967 -22.3593
v -156.3559 279.7572 -22.6808
v -155.1535 279.7572 -22.6808
v 83.9297 279.5095 -22.3593
v 87.3325 279.5095 -22.3593
v 81.7121 -249.3701 -7.5437
v 92.0858 -249.4505 -7.4592
v 100.4200 -249.0018 -6.5374
v -189.8091 -234.3927 -10.1236
v -179.9142 -234.8806 -9.8685
v -163.1757 -235.0655 -13.1832
v -154.1036 -234.7458 -14.2032
v 67.2708 -234.4686 -6.6838
v 76.2616 -240.1440 -8.4378
v 92.0858 -240.6570 -9.5130
v 101.0038 -240.6570 -7.0802
v 321.9740 -234.5465 -7.3628
v 327.1305 -234.5465 -7.3628
v -189.8091 -230.5031 -10.1236
v -179.9142 -230.1467 -9.8685
v -163.1757 -230.2247 -13.1832
v -154.1036 -230.5115 -14.2032
v 67.2708 -229.0039 -6.6838
v 76.0858 -226.7442 -7.9911
v 92.0858 -228.5535 -8.2570
v 100.9756 -231.4162 -7.0383
v 321.9740 -229.0864 -7.3628
v 327.1305 -229.0864 -7.3628
v -141.6011 6.7736 -14.2032
v -132.6552 6.4868 -14.7886
v -123.3670 6.6752 -20.5122
v -173.7937 23.1360 -6.3692
v -163.1201 20.2469 -12.7028
v -149.6011 11.6281 -14.2032
v -129.6248 15.1458 -14.7886
v -123.3670 9.6810 -20.5122
v 321.6977 21.9994 -14.2032
v 325.5788 21.9994 -14.2032
v -173.7937 23.7584 -6.3692
v -163.0460 30.0915 -12.7026
v -148.0022 35.2807 -13.9029
v -136.1262 28.4539 -14.2032
v 321.6977 25.9797 -14.2032
v 325.5788 25.9797 -14.2032
v -158.1679 40.1417 -8.3694
v -153.3942 40.1417 -8.3694
v -159.7744 263.1838 -8.5068
v -155.7353 263.1838 -8.5068
v 82.3961 262.5797 -7.5657
v 87.7990 262.5797 -7.5657
v 322.0085 260.5143 -7.6718
v 326.0322 260.5143 -7.6718
v -158.0651 270.8814 -13.4039
v -155.4444 270.8814 -13.4039
v 67.9808 279.1921 -6.2526
v 77.8295 273.7611 -12.2425
v 89.4056 272.7352 -13.4207
v 322.0085 265.9966 -7.6718
v 332.3390 272.1985 -7.2458
v 340.5524 278.4005 -6.8199
v -156.3559 279.7572 -18.3011
v -155.1535 279.7572 -18.3011
v 67.9808 279.4083 -6.2526
v 77.5921 279.6707 -12.6328
v 87.9506 279.7036 -14.2032
v 338.6457 279.8095 -6.8199
v 340.5524 279.8095 -6.8199
v 65.8293 -249.4585 7.2208
v 76.2498 -249.4143 1.7580
v 92.0858 -249.4505 -3.7108
v 100.4200 -249.0018 -5.3784
v -191.7841 -234.5987 1.7968
v -179.9142 -237.0950 1.7968
v -163.9142 -237.4582 1.7968
v -154.8075 -234.9619 1.7968
v 63.4367 -240.1440 1.8512
v 76.2498 -245.9199 1.7580
v 92.6684 -241.0855 3.8724
v 101.0038 -240.6570 -3.4825
v 307.5952 -233.4778 8.7022
v 316.4187 -235.9444 2.7400
v 332.3127 -236.2421 1.7788
v 341.0888 -233.9740 7.1001
v -191.7841 -229.8765 1.7968
v -178.6100 -223.3167 3.2682
v -165.3803 -223.9139 3.2682
v -154.8075 -230.6230 1.7968
v 62.8585 -224.0651 0.6163
v 77.0735 -218.9368 0.6163
v 92.6684 -226.7842 1.8785
v 100.9756 -231.4162 -3.4004
v 307.5952 -231.3993 8.7022
v 316.4187 -227.8742 2.7400
v 332.3127 -226.9619 1.7788
v 341.0888 -229.8789 7.1001
v -172.4073 -216.5666 9.5825
v -171.6911 -216.5666 9.5825
v 50.5321 -203.8406 8.0467
v 60.7031 -208.0110 6.6046
v 72.3986 -212.1814 5.1625
v 50.5321 -198.2176 8.0467
v 56.5406 -198.2176 8.0467
v -141.6261 6.8910 -5.6468
v -138.4825 6.8910 -5.6468
v 322.1612 5.9701 8.4022
v 332.0858 5.7231 8.0460
v 341.4555 6.5560 8.8570
v -190.7960 21.2066 5.0435
v -179.4419 19.4961 0.5448
v -163.9142 14.5236 1.7968
v -147.9579 14.2675 0.4065
v -137.4916 15.3430 -4.2887
v 319.9705 15.9120 2.5601
v 331.6349 15.9120 0.9737
v 342.3061 15.3430 7.8138
v -190.7960 28.1690 5.0435
v -179.4419 29.1096 0.5448
v -163.6664 33.6215 1.0424
v -148.5087 31.1432 0.8329
v -138.1157 26.5975 -4.2069
v 320.3852 27.4959 1.7968
v 331.6349 27.4143 2.3743
v 341.6766 24.5913 8.0926
v -158.1679 40.1417 -4.7939
v -153.3942 40.1417 -4.7939
v -190.7274 262.3599 8.5568
v -179.9142 262.0782 5.2001
v -165.2193 262.9117 -0.4665
v -155.7353 263.1838 -5.8408
v 51.4448 262.2077 8.8295
v 60.0858 261.1056 7.0679
v 76.6720 260.5482 1.7941
v 88.7957 261.2354 1.7968
v 319.2647 259.0992 1.7968
v 327.2777 259.0992 1.7968
v -190.4386 271.3430 8.5814
v -179.9142 271.3430 2.6725
v -165.6963 269.0591 -0.2815
v -155.7353 266.0139 -5.8408
v 51.4448 267.8665 8.8295
v 60.2578 273.5294 2.6442
v 77.6827 273.7211 2.3407
v 88.9976 272.6872 2.4522
v 319.9431 271.3351 3.0725
v 331.2820 273.9846 -0.0092
v 340.5524 278.4005 -5.1455
v -188.4668 279.6199 9.4163
v -179.9142 280.3096 7.2693
v -170.7957 280.3548 6.8073
v 64.3438 280.6399 1.7968
v 77.4159 280.5691 2.4522
v 85.9922 279.6572 -2.4442
v 323.6095 279.5123 9.2563
v 331.5528 279.6609 2.0554
v 340.5524 279.8095 -5.1455
v -189.4610 -249.2918 24.3575
v -186.0442 -249.2918 24.3575
v 63.4438 -250.2014 17.7968
v 71.7115 -250.2014 17.7968
v -204.5065 -234.0517 21.9224
v -195.6534 -239.1143 17.8066
v -180.3922 -242.5558 18.5332
v -164.1330 -236.4997 17.2867
v -154.9880 -234.0835 11.6133
v 56.8058 -240.6570 17.7968
v 80.4777 -241.0855 19.3089
v 87.7234 -236.0378 14.9836
v 306.4349 -237.1918 17.7968
v 316.0858 -240.9395 17.7968
v 333.3002 -236.4453 18.9177
v 341.0888 -233.9740 14.3316
v -204.5065 -230.2642 21.9224
v -195.5854 -225.3505 17.9020
v -179.8389 -220.0469 17.2892
v -165.3184 -225.2622 16.1550
v -154.9880 -230.8676 11.6133
v 60.8432 -224.0908 18.5066
v 78.1517 -223.3602 19.6483
v 87.7234 -228.3404 14.9836
v 306.4349 -229.8036 17.7968
v 316.0858 -226.3205 17.7968
v 333.3002 -228.2036 18.9177
v 341.0888 -229.8789 14.3316
v -189.3251 -216.3946 24.5483
v -179.8389 -216.4806 17.2892
v -171.6911 -216.5666 10.0301
v 50.5321 -203.8406 11.3409
v 60.7031 -208.0110 12.4936
v 72.3986 -212.1814 13.6464
v 50.5321 -198.2176 11.3409
v 56.5406 -198.2176 11.3409
v -207.7409 5.1800 22.7661
v -195.9142 4.4258 21.8114
v -184.9669 5.6163 23.5136
v 307.9126 7.1693 25.3943
v 316.5310 5.6291 19.1553
v 332.0858 4.6309 17.7968
v 341.2364 6.6430 17.7968
v -208.6545 15.3430 21.4925
v -196.0432 15.6611 14.5835
v -179.0832 14.9074 18.8576
v -163.9142 16.9485 14.4652
v -154.2898 18.8850 11.6165
v 307.1693 15.3430 23.8566
v 312.6354 15.3430 15.8566
v 338.3319 18.6646 23.9071
v 341.9607 14.1360 18.2630
v -206.4079 24.7599 23.0884
v -196.0432 27.7479 17.7718
v -179.0853 29.5195 18.8397
v -163.9142 27.8795 14.4652
v -154.2898 25.0222 11.6165
v 307.0370 25.6836 23.6123
v 316.0803 28.6168 18.0861
v 332.6335 27.9614 18.2630
v 341.6766 24.5913 13.2404
v -204.6874 262.7074 23.4888
v -196.0021 261.5881 18.0120
v -179.6642 261.5474 17.5342
v -170.6642 262.6396 12.0258
v 51.4448 262.2077 13.5432
v 60.1537 261.3281 18.4447
v 76.0858 258.6170 17.7968
v 92.0258 259.9637 18.1387
v 100.9718 261.7894 23.6999
v 320.0435 261.0363 17.7968
v 326.0125 261.0363 17.7968
v -204.6874 268.2896 23.4888
v -199.4436 272.7109 18.0120
v -174.1227 271.3430 22.5771
v -170.1378 271.3430 14.5771
v 51.4448 267.8665 13.5432
v 55.3534 272.4571 18.4447
v 80.4961 276.3973 17.7968
v 92.0258 268.3754 18.1387
v 100.9718 264.9912 23.6999
v 317.5697 271.3430 17.7968
v 328.6758 271.3430 17.7968
v -192.2160 280.9429 17.7968
v -178.7310 281.2300 18.6836
v -170.7957 280.3548 13.9415
v 62.0854 281.2494 17.7968
v 72.4961 281.2494 17.7968
v 321.6120 281.3891 17.7968
v 326.7492 281.3891 17.7968
v -189.4610 -249.2918 28.5396
v -186.0442 -249.2918 28.5396
v 63.0912 -251.4684 33.7968
v 71.0395 -251.4684 33.7968
v -204.5065 -234.0517 27.1876
v -195.2422 -239.8939 31.4192
v -180.3922 -240.7842 32.6074
v -169.6123 -235.5357 29.1679
v 58.7054 -240.6570 33.7968
v 75.2333 -240.6570 33.7968
v 306.3753 -237.8827 27.1261
v 316.0858 -238.2473 27.7831
v 328.7765 -234.8852 27.1160
v -204.5065 -230.2642 27.1876
v -195.1607 -224.8213 30.5180
v -181.1280 -224.8569 31.7061
v -169.6123 -230.3235 29.1679
v 63.7001 -229.6071 33.7968
v 72.2797 -229.6071 33.7968
v 306.3753 -230.1102 27.1261
v 316.0858 -229.6211 27.7831
v 328.7765 -231.1559 27.1160
v -189.3251 -216.3946 27.0375
v -187.2706 -216.3946 27.0375
v -220.5843 6.5399 39.5510
v -212.6102 4.9539 34.0493
v -196.0220 4.3997 34.3504
v -184.9669 5.6163 29.3862
v 307.9126 7.1693 26.1703
v 316.0858 6.2303 27.5545
v 332.0858 6.2508 27.4119
v 340.2503 7.1966 25.9802
v -220.5843 8.2874 39.5510
v -212.4077 14.5534 34.4677
v -196.0220 15.4288 38.9621
v -182.6677 15.3430 31.5626
v 307.1693 15.3430 27.4222
v 316.0858 15.3430 32.0500
v 332.6335 14.1360 29.6091
v 340.2503 7.9979 25.9802
v -206.4079 24.7599 29.3845
v -195.9142 25.2296 31.5614
v -183.8661 24.4416 29.8952
v 307.0370 25.6836 27.5905
v 316.0858 28.1869 30.2923
v 327.6653 27.4609 29.9971
v -204.6874 262.7074 26.4335
v -195.9142 261.8866 27.4919
v -184.8308 262.0367 27.4203
v 65.5323 262.9680 26.1594
v 76.0858 261.5381 27.0742
v 92.0858 260.6541 27.6384
v 100.9718 261.7894 26.9117
v 323.0469 263.0970 25.9883
v 324.3452 263.0970 25.9883
v -204.6874 268.2896 26.4335
v -197.4240 272.7109 28.5851
v -182.1227 271.3430 28.8047
v 51.2834 276.4958 38.1698
v 59.7627 273.5513 31.9984
v 75.0839 270.8422 27.8596
v 92.0858 265.9532 27.6384
v 100.9718 264.9912 26.9117
v 321.1900 271.3430 27.8505
v 326.6632 271.3430 27.8505
v -193.0973 281.1993 28.1839
v -183.2756 281.1993 28.1839
v 51.2834 280.2700 38.1698
v 59.6523 280.2455 32.8507
v 69.0826 280.2209 27.5316
v 321.2637 281.9017 28.3435
v 327.2630 281.9017 28.3435
v 65.3590 -251.1478 44.1222
v 69.8913 -251.1478 44.1222
v 64.7854 -240.6570 43.9894
v 69.7696 -240.6570 43.9894
v 66.4121 -232.2009 42.3949
v 68.5254 -232.2009 42.3949
v -253.9594 -11.3406 54.3414
v -248.8989 -11.3406 54.3414
v -253.9594 -5.0250 54.3414
v -244.0133 -0.1215 55.3089
v -226.7162 2.9264 50.4845
v -211.9142 1.0809 49.7968
v -200.6133 4.6808 49.7968
v -240.0847 15.3430 56.3625
v -226.7162 14.3096 49.4893
v -211.9142 18.1586 46.1267
v -199.2903 15.4288 49.2208
v -238.2612 24.0562 57.4048
v -227.9142 24.3380 56.5527
v -211.9142 24.7211 54.1267
v -200.6087 24.5670 54.1701
v 51.2834 276.4958 42.5668
v 54.3348 276.4958 42.5668
v 51.2834 280.2700 42.5668
v 54.3348 280.2700 42.5668
v -253.9594 -11.3406 61.1102
v -248.8989 -11.3406 61.1102
v -253.5302 -0.4327 65.6979
v -245.9885 -1.2791 63.7226
v -227.5411 0.4803 66.1767
v -211.9142 2.4450 62.1511
v -201.9999 4.8093 60.3028
v -253.1010 12.5186 70.2856
v -248.7353 16.8484 65.2901
v -224.2271 15.3430 68.9959
v -211.9142 15.3430 63.9528
v -199.9995 15.3430 60.7537
v -241.5304 25.1209 65.7968
v -228.5376 25.1334 64.7762
v -211.9142 24.7211 59.5985
v -200.6087 24.5670 59.2334
v -253.1010 4.1597 78.4398
v -243.9142 1.2956 79.1446
v -232.6257 2.4630 76.2843
v -253.1010 12.5186 78.4398
v -245.3989 16.8484 78.8711
v -232.2271 15.3430 76.6575
v -241.0554 25.0002 75.1236
v -234.2865 25.0002 75.1236
v 99.5664 -232.9564 233.3789
v 100.7414 -232.9564 233.3789
v 99.1387 -224.6570 233.1935
v 101.2304 -224.6570 233.1935
v 99.3424 -216.3964 233.4103
v 100.9565 -216.3964 233.4103
v -157.2254 22.9585 233.4931
v -152.1251 22.9585 233.4931
v 68.0696 23.3340 233.7901
v 76.0858 22.3763 233.0285
v 85.4701 22.0631 232.7792
v -157.2254 24.0228 233.4931
v -152.1251 24.0228 233.4931
v 67.3149 31.3430 232.9669
v 75.4415 30.7172 232.5223
v 85.4701 24.9667 232.7792
v 67.0742 40.3597 232.6970
v 69.6786 40.3597 232.6970
v 67.9898 -248.7262 249.7283
v 68.1885 -248.7262 249.7283
v 65.5776 -240.6570 248.7991
v 74.5475 -239.9817 247.9505
v 93.2236 -233.5773 241.4461
v 100.7414 -232.9564 234.8425
v 64.8376 -230.3855 248.5352
v 76.0858 -229.4302 247.5403
v 93.8853 -227.2152 240.7372
v 101.2304 -224.6570 235.2527
v 99.3424 -216.3964 234.6923
v 100.9565 -216.3964 234.6923
v -188.3153 6.9210 249.4404
v -186.3990 6.9210 249.4404
v 322.8366 6.8107 249.2733
v 325.5562 6.8107 249.2733
v -188.5851 15.3430 249.2013
v -180.6051 14.9779 247.3617
v -163.1009 21.1079 241.4381
v -153.0031 23.0054 241.7968
v 51.1539 21.5995 247.9652
v 61.6761 20.2669 242.2979
v 76.0858 16.8057 241.7968
v 88.0216 19.3432 241.7968
v 321.7715 15.3430 248.4115
v 331.3681 15.7255 248.2042
v 340.7049 21.3139 248.9896
v -188.4076 23.8889 249.3592
v -179.9142 25.1601 247.0202
v -163.1009 24.9285 241.4381
v -153.0031 23.9172 241.7968
v 51.1539 24.4520 247.9652
v 61.0210 30.4083 242.2979
v 77.3896 34.1819 241.7968
v 88.0216 26.1819 241.7968
v 322.2493 25.5949 248.4733
v 332.0858 25.6502 248.1987
v 340.7049 24.1674 248.9896
v 67.2670 40.1541 241.7968
v 69.3896 40.1541 241.7968
v 67.9326 263.2427 249.6416
v 76.0858 262.4037 248.4150
v 92.0858 261.2410 247.1413
v 101.7408 261.6924 247.9433
v 66.9082 271.3430 248.5554
v 76.0858 271.3430 245.9893
v 93.2245 272.5724 246.6318
v 101.7408 268.0588 247.9433
v 66.6689 280.1804 248.2968
v 76.0858 280.6482 247.3711
v 88.6503 280.2458 248.0626
v 65.2111 -249.3733 257.7968
v 69.5087 -249.3733 257.7968
v -190.5134 -237.7096 261.2999
v -179.9142 -238.7838 258.7825
v -169.1532 -235.7735 260.9413
v 51.7067 -235.2443 264.1542
v 57.4371 -240.6094 258.4113
v 77.5087 -243.4462 257.7968
v 87.1385 -235.4462 257.7968
v -190.5134 -229.8550 261.2999
v -179.9142 -228.2329 258.7825
v -169.1532 -229.5603 260.9413
v 51.7067 -230.3101 264.1542
v 59.7369 -226.9372 258.4113
v 76.0858 -224.6113 257.7968
v 87.1385 -230.0009 257.7968
v -190.8334 5.7053 257.7968
v -180.6051 4.8467 257.3826
v -169.3853 5.3661 262.4398
v 51.3307 6.5600 264.3806
v 60.0858 5.2690 262.1424
v 76.0858 5.1527 261.0070
v 85.9912 6.4050 262.8667
v 321.4573 6.0492 257.7968
v 326.8590 6.0492 257.7968
v -193.8246 15.3430 257.7968
v -175.7323 9.4013 251.7732
v -164.8256 16.3393 256.1423
v -155.8217 23.2773 249.8447
v 51.0399 15.8968 258.5471
v 60.0858 11.5046 254.1424
v 76.0858 9.7723 253.0070
v 89.1978 14.5111 257.6387
v 306.2982 21.3177 264.1190
v 314.4811 15.7278 258.3901
v 334.8590 13.0345 257.7968
v 340.8667 21.0345 257.7968
v -190.4538 30.0705 259.2748
v -181.2970 32.0936 259.2748
v -164.9252 25.4175 256.2255
v -155.8217 23.4287 249.8447
v 51.3448 24.2254 257.7968
v 59.8728 32.2254 257.7968
v 78.8451 36.7843 257.7968
v 89.0468 28.7843 257.7968
v 306.2982 24.7196 264.1190
v 316.5839 27.1406 258.3901
v 332.0858 28.3129 257.7968
v 340.8667 24.5983 257.7968
v -188.1586 39.5032 265.5935
v -187.5522 39.5032 265.5935
v 67.8728 39.5080 257.7968
v 70.8451 39.5080 257.7968
v 51.3840 262.6080 264.6735
v 61.5939 262.1708 258.7228
v 77.5077 261.9205 259.1877
v 92.0858 261.2410 254.7390
v 101.7408 261.6924 251.4015
v 51.3840 265.6702 264.6735
v 58.8490 271.1393 258.7228
v 81.8854 271.3430 263.1452
v 93.2245 272.5724 255.0383
v 101.7408 268.0588 251.4015
v 64.6547 280.9339 257.7968
v 76.1036 281.1574 257.4846
v 88.6503 280.2458 251.9432
v 64.3489 -249.5429 268.0043
v 69.8803 -249.5429 268.0043
v -192.0138 -240.0406 273.7968
v -180.0558 -240.4338 273.7809
v -169.1532 -235.7735 268.4370
v 51.6565 -234.8086 273.7968
v 59.4437 -241.4518 273.5213
v 75.5625 -241.9926 273.5213
v 85.6844 -235.4846 273.7968
v -192.0138 -229.2836 273.7968
v -180.0558 -228.1002 273.7809
v -169.1532 -229.5603 268.4370
v 50.8680 -224.8488 273.3275
v 60.0858 -219.2109 267.5853
v 75.2062 -221.9863 272.4969
v 85.6844 -231.0045 273.7968
v 50.6285 -215.2094 278.3479
v 60.0858 -214.6579 275.5853
v 69.2864 -215.4392 276.9637
v -191.4373 5.5482 273.7968
v -180.4534 4.7210 273.9987
v -169.3853 5.3661 268.7999
v 51.3307 6.5600 269.1234
v 59.5208 4.8938 274.1927
v 76.2605 4.8008 273.5367
v 85.9912 6.4050 268.0299
v 321.8304 6.1503 267.7464
v 326.3130 6.1503 267.7464
v -195.0699 15.3430 273.7968
v -177.0677 15.3430 277.5925
v -169.2813 15.3430 269.5925
v 51.1266 15.0632 274.1927
v 53.8108 9.5434 279.7900
v 80.1988 15.3430 277.5165
v 87.5783 15.3430 269.5165
v 305.3881 20.7703 273.7968
v 315.8570 16.2945 273.2361
v 332.4903 16.6641 273.2361
v 340.9668 21.3247 273.7968
v -190.9669 30.7849 272.4677
v -181.3862 30.2920 272.3848
v -170.9326 24.8379 267.8546
v 51.4531 23.9479 273.7968
v 61.5634 31.6072 272.4378
v 76.4490 32.3734 272.6942
v 86.8371 28.4366 268.5234
v 305.3881 25.5101 273.7968
v 315.5645 26.6972 273.5541
v 332.8349 25.8503 273.5541
v 340.9668 24.4515 273.7968
v -188.1586 39.5032 266.2483
v -187.5522 39.5032 266.2483
v 67.8819 39.4982 266.1985
v 71.6193 39.4982 266.1985
v 50.6819 261.5795 273.7968
v 60.0858 259.7959 273.7968
v 72.7946 261.5593 273.7968
v 50.6819 267.1981 273.7968
v 56.4354 275.1981 273.7968
v 75.2946 271.3430 273.7968
v 64.4354 280.7214 273.7968
v 70.5858 280.7214 273.7968
v -190.7812 -237.4493 283.2228
v -185.4836 -237.4493 283.2228
v 51.8925 -232.9385 281.9927
v 60.0858 -233.7099 282.2160
v 76.0858 -234.6931 282.5380
v 84.9420 -234.2494 282.4221
v -190.7812 -230.9612 283.2228
v -185.4836 -230.9612 283.2228
v 50.8479 -224.6570 282.6402
v 60.0858 -224.6570 283.7684
v 75.2062 -225.8414 283.0746
v 84.9420 -231.9643 282.4221
v 50.6285 -215.2094 282.7254
v 60.0858 -214.6579 283.3492
v 69.2864 -215.4392 282.9381
v -189.1205 6.7114 282.4214
v -186.1462 6.7114 282.4214
v 64.4775 6.0264 282.8544
v 71.0436 6.0264 282.8544
v -189.8303 15.3430 282.8947
v -185.0677 15.3430 282.8947
v 51.2982 20.2100 282.7131
v 59.5208 15.0632 284.0417
v 72.1988 15.3430 283.9156
v 306.2764 21.9380 282.6794
v 309.8835 21.9380 282.6794
v 338.6676 21.7009 282.7458
v 340.8383 21.7009 282.7458
v -189.2626 25.0795 282.6360
v -185.8868 25.0795 282.6360
v 51.2982 24.0819 282.7131
v 60.0858 25.6226 283.8098
v 70.6121 25.6435 283.5644
v 306.2764 24.8558 282.6794
v 309.8835 24.8558 282.6794
v 338.6676 23.9717 282.7458
v 340.8383 23.9717 282.7458
v 50.9159 261.7266 285.5897
v 60.5859 261.3986 290.4725
v 69.2703 262.1248 289.7968
v 50.9159 266.1558 285.5897
v 60.9812 270.2526 289.3441
v 69.4156 269.9468 288.5779
v 66.3765 279.8971 282.4319
v 68.7228 279.8971 282.4319
v 66.2526 262.9786 298.0878
v 68.4232 262.9786 298.0878
v 66.2526 263.6827 298.0878
v 68.4232 263.6827 298.0878
f 6 1 5
f 6 2 1
f 8 3 7
f 8 4 3
f 9 6 5
f 9 10 6
f 11 8 7
f 11 12 8
f 15 14 13
f 15 16 14
f 21 17 20
f 21 18 17
f 23 19 22
f 23 20 19
f 24 20 23
f 24 21 20
f 32 25 31
f 32 26 25
f 33 26 32
f 33 27 26
f 35 28 34
f 35 29 28
f 36 29 35
f 36 30 29
f 38 31 37
f 38 32 31
f 38 33 32
f 38 39 33
f 41 34 40
f 41 35 34
f 42 38 37
f 42 43 38
f 43 39 38
f 43 44 39
f 49 1 2
f 49 48 1
f 52 3 4
f 52 51 3
f 52 45 51
f 52 46 45
f 57 1 48
f 57 5 1
f 56 48 47
f 56 57 48
f 58 49 2
f 58 2 6
f 61 3 51
f 61 7 3
f 61 50 60
f 61 51 50
f 62 52 4
f 62 4 8
f 65 53 64
f 65 54 53
f 65 55 54
f 65 66 55
f 57 9 5
f 57 68 9
f 68 56 67
f 68 57 56
f 58 6 10
f 58 10 69
f 69 10 9
f 69 9 68
f 70 60 59
f 70 71 60
f 61 11 7
f 61 72 11
f 71 61 60
f 71 72 61
f 62 8 12
f 62 12 73
f 73 12 11
f 73 11 72
f 75 63 74
f 75 64 63
f 76 64 75
f 76 65 64
f 77 65 76
f 77 66 65
f 14 78 13
f 14 79 78
f 80 71 79
f 80 72 71
f 78 15 13
f 78 81 15
f 82 79 14
f 82 14 16
f 16 15 81
f 16 81 82
f 82 81 78
f 82 78 79
f 18 85 17
f 18 86 85
f 90 83 89
f 90 84 83
f 92 17 85
f 92 20 17
f 92 19 20
f 92 91 19
f 86 18 21
f 86 21 93
f 94 86 93
f 94 87 86
f 96 88 95
f 96 89 88
f 97 89 96
f 97 90 89
f 98 19 91
f 98 22 19
f 99 23 22
f 99 22 98
f 100 93 21
f 100 21 24
f 24 23 99
f 24 99 100
f 102 95 101
f 102 96 95
f 107 25 26
f 107 106 25
f 108 26 27
f 108 107 26
f 110 28 29
f 110 109 28
f 110 103 109
f 110 104 103
f 111 29 30
f 111 110 29
f 110 105 104
f 110 111 105
f 106 31 25
f 106 113 31
f 114 113 106
f 114 106 107
f 115 108 27
f 115 27 33
f 115 114 107
f 115 107 108
f 116 28 109
f 116 34 28
f 118 111 30
f 118 30 36
f 118 36 35
f 118 35 117
f 113 37 31
f 113 120 37
f 120 112 119
f 120 113 112
f 122 115 33
f 122 33 39
f 121 114 115
f 121 115 122
f 123 34 116
f 123 40 34
f 117 35 41
f 117 41 124
f 41 40 123
f 41 123 124
f 124 123 116
f 124 116 117
f 125 37 120
f 125 42 37
f 126 43 42
f 126 42 125
f 122 39 44
f 122 44 127
f 127 44 43
f 127 43 126
f 127 126 121
f 127 121 122
f 46 128 45
f 46 129 128
f 131 47 48
f 131 130 47
f 132 48 49
f 132 131 48
f 128 51 45
f 128 135 51
f 135 50 51
f 135 134 50
f 136 129 46
f 136 46 52
f 136 135 128
f 136 128 129
f 138 53 54
f 138 137 53
f 139 54 55
f 139 138 54
f 130 56 47
f 130 140 56
f 141 140 130
f 141 130 131
f 132 49 58
f 132 58 142
f 141 131 132
f 141 132 142
f 144 50 134
f 144 60 50
f 144 59 60
f 144 143 59
f 144 133 143
f 144 134 133
f 136 52 62
f 136 62 146
f 145 135 136
f 145 136 146
f 148 53 137
f 148 64 53
f 64 147 63
f 64 148 147
f 150 139 55
f 150 55 66
f 149 138 139
f 149 139 150
f 140 67 56
f 140 151 67
f 152 68 67
f 152 67 151
f 142 58 69
f 142 69 153
f 153 69 68
f 153 68 152
f 154 59 143
f 154 70 59
f 155 71 70
f 155 70 154
f 146 62 73
f 146 73 157
f 73 72 156
f 73 156 157
f 158 63 147
f 158 74 63
f 75 74 158
f 75 158 159
f 160 76 75
f 160 75 159
f 161 150 66
f 161 66 77
f 161 77 76
f 161 76 160
f 161 160 149
f 161 149 150
f 162 153 152
f 162 163 153
f 164 71 155
f 164 79 71
f 156 72 80
f 156 80 165
f 80 79 164
f 80 164 165
f 166 156 165
f 166 157 156
f 169 168 167
f 169 170 168
f 171 83 84
f 171 170 83
f 175 85 86
f 175 174 85
f 87 175 86
f 87 176 175
f 178 83 170
f 178 89 83
f 178 88 89
f 178 177 88
f 177 170 169
f 177 178 170
f 179 171 84
f 179 84 90
f 180 173 172
f 180 181 173
f 174 92 85
f 174 182 92
f 92 181 91
f 92 182 181
f 182 173 181
f 182 174 173
f 182 174 175
f 182 175 183
f 176 87 94
f 176 94 184
f 94 93 183
f 94 183 184
f 184 183 175
f 184 175 176
f 186 88 177
f 186 95 88
f 187 186 177
f 187 177 178
f 188 179 90
f 188 90 97
f 188 97 96
f 188 96 187
f 188 187 178
f 188 178 179
f 181 98 91
f 181 190 98
f 190 180 189
f 190 181 180
f 191 99 98
f 191 98 190
f 192 183 93
f 192 93 100
f 192 100 99
f 192 99 191
f 192 191 182
f 192 182 183
f 186 101 95
f 186 194 101
f 194 185 193
f 194 186 185
f 187 96 102
f 187 102 195
f 195 194 186
f 195 186 187
f 197 103 104
f 197 196 103
f 198 104 105
f 198 197 104
f 199 103 196
f 199 109 103
f 200 199 196
f 200 196 197
f 201 198 105
f 201 105 111
f 200 197 198
f 200 198 201
f 203 112 113
f 203 202 112
f 204 113 114
f 204 203 113
f 205 109 199
f 205 116 109
f 117 116 205
f 117 205 206
f 205 199 200
f 205 200 206
f 207 201 111
f 207 111 118
f 118 117 206
f 118 206 207
f 207 206 200
f 207 200 201
f 202 119 112
f 202 208 119
f 120 119 208
f 120 208 209
f 208 202 203
f 208 203 209
f 204 114 121
f 204 121 210
f 211 120 209
f 211 125 120
f 212 210 121
f 212 121 126
f 212 126 125
f 212 125 211
f 211 209 210
f 211 210 212
f 134 213 133
f 134 214 213
f 215 134 135
f 215 214 134
f 217 137 138
f 217 216 137
f 141 218 140
f 141 219 218
f 220 141 142
f 220 219 141
f 213 143 133
f 213 221 143
f 222 221 213
f 222 213 214
f 215 135 145
f 215 145 223
f 224 145 146
f 224 223 145
f 216 148 137
f 216 226 148
f 148 225 147
f 148 226 225
f 217 138 149
f 217 149 227
f 227 226 216
f 227 216 217
f 218 151 140
f 218 228 151
f 152 151 228
f 152 228 229
f 228 218 219
f 228 219 229
f 220 142 153
f 220 153 230
f 229 219 220
f 229 220 230
f 221 154 143
f 221 231 154
f 155 154 231
f 155 231 232
f 224 146 157
f 224 157 234
f 233 223 224
f 233 224 234
f 225 158 147
f 225 235 158
f 159 158 235
f 159 235 236
f 236 235 225
f 236 225 226
f 237 227 149
f 237 149 160
f 237 160 159
f 237 159 236
f 237 236 226
f 237 226 227
f 229 162 152
f 229 238 162
f 230 153 163
f 230 163 239
f 163 162 238
f 163 238 239
f 238 229 230
f 238 230 239
f 240 155 232
f 240 164 155
f 241 165 164
f 241 164 240
f 240 232 233
f 240 233 241
f 234 157 166
f 234 166 242
f 166 165 241
f 166 241 242
f 241 233 234
f 241 234 242
f 168 243 167
f 168 244 243
f 243 169 167
f 243 245 169
f 246 244 168
f 246 168 170
f 245 243 244
f 245 244 246
f 247 170 171
f 247 246 170
f 173 248 172
f 173 249 248
f 250 173 174
f 250 249 173
f 251 169 245
f 251 177 169
f 178 177 251
f 178 251 252
f 251 245 246
f 251 246 252
f 253 247 171
f 253 171 179
f 253 179 178
f 253 178 252
f 252 246 247
f 252 247 253
f 248 180 172
f 248 254 180
f 254 248 249
f 254 249 255
f 250 174 182
f 250 182 256
f 258 185 186
f 258 257 185
f 259 180 254
f 259 189 180
f 260 190 189
f 260 189 259
f 260 259 254
f 260 254 255
f 261 256 182
f 261 182 191
f 261 191 190
f 261 190 260
f 260 255 256
f 260 256 261
f 257 193 185
f 257 262 193
f 258 186 194
f 258 194 263
f 262 257 258
f 262 258 263
f 204 264 203
f 204 265 264
f 266 203 264
f 266 209 203
f 267 265 204
f 267 204 210
f 210 209 266
f 210 266 267
f 266 264 265
f 266 265 267
f 215 268 214
f 215 269 268
f 268 222 214
f 268 271 222
f 222 270 221
f 222 271 270
f 272 269 215
f 272 215 223
f 272 271 268
f 272 268 269
f 270 231 221
f 270 273 231
f 274 232 231
f 274 231 273
f 274 273 270
f 274 270 271
f 275 272 223
f 275 223 233
f 275 233 232
f 275 232 274
f 275 274 271
f 275 271 272
f 250 276 249
f 250 277 276
f 278 249 276
f 278 255 249
f 279 277 250
f 279 250 256
f 256 255 278
f 256 278 279
f 278 276 277
f 278 277 279
f 283 280 282
f 283 281 280
f 285 282 284
f 285 283 282
f 288 287 286
f 288 289 287
f 293 290 292
f 293 291 290
f 294 293 292
f 294 295 293
f 296 295 294
f 296 297 295
f 298 280 281
f 298 297 280
f 299 280 297
f 299 282 280
f 298 281 283
f 298 283 300
f 299 297 298
f 299 298 300
f 301 282 299
f 301 284 282
f 302 300 283
f 302 283 285
f 285 284 301
f 285 301 302
f 302 301 299
f 302 299 300
f 304 286 287
f 304 303 286
f 305 286 303
f 305 288 286
f 306 304 287
f 306 287 289
f 306 289 288
f 306 288 305
f 291 307 290
f 291 308 307
f 307 292 290
f 307 310 292
f 308 291 293
f 308 293 311
f 311 310 307
f 311 307 308
f 310 294 292
f 310 313 294
f 313 309 312
f 313 310 309
f 311 293 295
f 311 295 314
f 315 294 313
f 315 296 294
f 316 314 295
f 316 295 297
f 316 297 296
f 316 296 315
f 319 303 304
f 319 318 303
f 318 305 303
f 318 321 305
f 321 317 320
f 321 318 317
f 319 304 306
f 319 306 322
f 322 306 305
f 322 305 321
f 322 321 318
f 322 318 319
f 328 309 310
f 328 327 309
f 328 323 327
f 328 324 323
f 311 328 310
f 311 329 328
f 328 325 324
f 328 329 325
f 333 309 327
f 333 312 309
f 333 326 332
f 333 327 326
f 334 313 312
f 334 312 333
f 335 329 311
f 335 311 314
f 335 334 328
f 335 328 329
f 336 331 330
f 336 337 331
f 338 313 334
f 338 315 313
f 339 335 314
f 339 314 316
f 339 316 315
f 339 315 338
f 338 334 335
f 338 335 339
f 344 341 340
f 344 345 341
f 346 343 342
f 346 347 343
f 354 317 318
f 354 353 317
f 357 348 356
f 357 349 348
f 357 350 349
f 357 358 350
f 362 351 361
f 362 352 351
f 363 317 353
f 363 320 317
f 363 352 362
f 363 353 352
f 364 354 318
f 364 318 321
f 364 321 320
f 364 320 363
f 366 355 365
f 366 356 355
f 367 356 366
f 367 357 356
f 368 357 367
f 368 358 357
f 369 360 359
f 369 370 360
f 372 323 324
f 372 371 323
f 373 324 325
f 373 372 324
f 376 323 371
f 376 327 323
f 376 326 327
f 376 375 326
f 378 373 325
f 378 325 329
f 378 329 328
f 378 328 377
f 378 377 372
f 378 372 373
f 380 330 331
f 380 379 330
f 375 332 326
f 375 382 332
f 381 375 374
f 381 382 375
f 383 333 332
f 383 332 382
f 384 377 328
f 384 328 334
f 384 334 333
f 384 333 383
f 379 336 330
f 379 385 336
f 380 331 337
f 380 337 386
f 386 337 336
f 386 336 385
f 387 383 382
f 387 388 383
f 396 340 341
f 396 395 340
f 395 390 389
f 395 396 390
f 399 342 343
f 399 398 342
f 399 391 398
f 399 392 391
f 400 394 393
f 400 401 394
f 403 340 395
f 403 344 340
f 404 396 341
f 404 341 345
f 345 344 403
f 345 403 404
f 403 395 396
f 403 396 404
f 406 342 398
f 406 346 342
f 406 397 405
f 406 398 397
f 407 399 343
f 407 343 347
f 407 347 346
f 407 346 406
f 408 402 401
f 408 409 402
f 412 348 349
f 412 411 348
f 413 349 350
f 413 412 349
f 415 351 352
f 415 414 351
f 416 352 353
f 416 415 352
f 417 353 354
f 417 416 353
f 419 348 411
f 419 356 348
f 356 418 355
f 356 419 418
f 419 410 418
f 419 411 410
f 419 411 412
f 419 412 420
f 413 350 358
f 413 358 421
f 421 420 412
f 421 412 413
f 424 359 360
f 424 423 359
f 414 361 351
f 414 426 361
f 362 361 426
f 362 426 427
f 428 363 362
f 428 362 427
f 429 417 354
f 429 354 364
f 429 364 363
f 429 363 428
f 430 355 418
f 430 365 355
f 431 366 365
f 431 365 430
f 432 367 366
f 432 366 431
f 421 358 368
f 421 368 433
f 433 368 367
f 433 367 432
f 433 432 420
f 433 420 421
f 435 359 423
f 435 369 359
f 434 423 422
f 434 435 423
f 424 360 370
f 424 370 436
f 436 370 369
f 436 369 435
f 437 424 436
f 437 425 424
f 439 427 438
f 439 428 427
f 442 430 441
f 442 431 430
f 444 440 443
f 444 441 440
f 446 371 372
f 446 445 371
f 452 374 375
f 452 451 374
f 445 376 371
f 445 453 376
f 453 375 376
f 453 452 375
f 454 446 372
f 454 372 377
f 454 453 445
f 454 445 446
f 380 455 379
f 380 456 455
f 456 447 455
f 456 448 447
f 457 448 456
f 457 449 448
f 451 381 374
f 451 459 381
f 459 450 458
f 459 451 450
f 460 382 381
f 460 381 459
f 454 377 384
f 454 384 462
f 462 384 383
f 462 383 461
f 462 461 453
f 462 453 454
f 463 379 455
f 463 385 379
f 464 456 380
f 464 380 386
f 386 385 463
f 386 463 464
f 465 456 464
f 465 457 456
f 460 387 382
f 460 466 387
f 467 461 383
f 467 383 388
f 388 387 466
f 388 466 467
f 467 466 460
f 467 460 461
f 471 389 390
f 471 470 389
f 475 391 392
f 475 474 391
f 477 393 394
f 477 476 393
f 478 469 468
f 478 479 469
f 480 389 470
f 480 395 389
f 480 469 479
f 480 470 469
f 481 471 390
f 481 390 396
f 481 396 395
f 481 395 480
f 481 480 470
f 481 470 471
f 482 473 472
f 482 483 473
f 484 391 474
f 484 398 391
f 484 397 398
f 484 483 397
f 483 474 473
f 483 484 474
f 485 475 392
f 485 392 399
f 476 400 393
f 476 486 400
f 487 477 394
f 487 394 401
f 487 401 400
f 487 400 486
f 488 401 402
f 488 487 401
f 489 479 478
f 489 490 479
f 491 479 490
f 491 480 479
f 492 397 483
f 492 405 397
f 493 406 405
f 493 405 492
f 494 485 399
f 494 399 407
f 494 407 406
f 494 406 493
f 494 493 484
f 494 484 485
f 487 408 401
f 487 496 408
f 495 487 486
f 495 496 487
f 488 402 409
f 488 409 497
f 497 409 408
f 497 408 496
f 496 487 488
f 496 488 497
f 501 410 411
f 501 500 410
f 504 414 415
f 504 503 414
f 504 498 503
f 504 499 498
f 505 415 416
f 505 504 415
f 506 416 417
f 506 505 416
f 507 410 500
f 507 418 410
f 501 411 419
f 501 419 508
f 420 508 419
f 420 509 508
f 511 422 423
f 511 510 422
f 424 511 423
f 424 512 511
f 425 512 424
f 425 513 512
f 503 426 414
f 503 515 426
f 515 502 514
f 515 503 502
f 516 427 426
f 516 426 515
f 506 417 429
f 506 429 518
f 518 429 428
f 518 428 517
f 518 517 505
f 518 505 506
f 519 418 507
f 519 430 418
f 509 420 432
f 509 432 521
f 521 432 431
f 521 431 520
f 521 520 508
f 521 508 509
f 522 422 510
f 522 434 422
f 523 435 434
f 523 434 522
f 436 435 523
f 436 523 524
f 513 425 437
f 513 437 525
f 437 436 524
f 437 524 525
f 524 512 513
f 524 513 525
f 516 438 427
f 516 527 438
f 526 516 515
f 526 527 516
f 528 517 428
f 528 428 439
f 528 439 438
f 528 438 527
f 528 527 516
f 528 516 517
f 519 441 430
f 519 530 441
f 530 440 441
f 530 529 440
f 531 520 431
f 531 431 442
f 531 442 441
f 531 441 530
f 531 530 519
f 531 519 520
f 529 443 440
f 529 532 443
f 530 441 444
f 530 444 533
f 444 443 532
f 444 532 533
f 533 532 529
f 533 529 530
f 539 447 448
f 539 538 447
f 449 539 448
f 449 540 539
f 541 535 534
f 541 542 535
f 543 450 451
f 543 542 450
f 542 536 535
f 542 543 536
f 544 451 452
f 544 543 451
f 545 452 453
f 545 544 452
f 547 447 538
f 547 455 447
f 547 537 546
f 547 538 537
f 549 540 449
f 549 449 457
f 551 450 542
f 551 458 450
f 550 542 541
f 550 551 542
f 552 459 458
f 552 458 551
f 553 460 459
f 553 459 552
f 552 543 544
f 552 544 553
f 554 545 453
f 554 453 461
f 554 461 460
f 554 460 553
f 554 553 544
f 554 544 545
f 547 463 455
f 547 556 463
f 555 547 546
f 555 556 547
f 557 464 463
f 557 463 556
f 558 549 457
f 558 457 465
f 465 464 557
f 465 557 558
f 558 557 548
f 558 548 549
f 561 468 469
f 561 560 468
f 562 469 470
f 562 561 469
f 473 563 472
f 473 564 563
f 565 473 474
f 565 564 473
f 475 565 474
f 475 566 565
f 569 476 477
f 569 568 476
f 560 478 468
f 560 571 478
f 570 560 559
f 570 571 560
f 562 470 480
f 562 480 573
f 573 572 561
f 573 561 562
f 563 482 472
f 563 574 482
f 575 483 482
f 575 482 574
f 574 563 564
f 574 564 575
f 577 566 475
f 577 475 485
f 485 484 576
f 485 576 577
f 578 566 577
f 578 567 566
f 568 486 476
f 568 579 486
f 580 569 477
f 580 477 487
f 581 478 571
f 581 489 478
f 582 490 489
f 582 489 581
f 573 480 491
f 573 491 583
f 583 491 490
f 583 490 582
f 583 582 572
f 583 572 573
f 584 483 575
f 584 492 483
f 576 484 493
f 576 493 585
f 585 493 492
f 585 492 584
f 579 495 486
f 579 586 495
f 580 487 496
f 580 496 587
f 587 496 495
f 587 495 586
f 499 588 498
f 499 589 588
f 591 500 501
f 591 590 500
f 593 498 588
f 593 503 498
f 503 592 502
f 503 593 592
f 594 589 499
f 594 499 504
f 594 593 588
f 594 588 589
f 595 504 505
f 595 594 504
f 596 500 590
f 596 507 500
f 597 591 501
f 597 501 508
f 511 598 510
f 511 599 598
f 600 511 512
f 600 599 511
f 592 514 502
f 592 601 514
f 515 514 601
f 515 601 602
f 602 601 592
f 602 592 593
f 603 602 593
f 603 593 594
f 604 595 505
f 604 505 517
f 604 517 516
f 604 516 603
f 604 603 594
f 604 594 595
f 605 507 596
f 605 519 507
f 606 597 508
f 606 508 520
f 606 520 519
f 606 519 605
f 607 510 598
f 607 522 510
f 608 523 522
f 608 522 607
f 607 598 599
f 607 599 608
f 609 600 512
f 609 512 524
f 609 524 523
f 609 523 608
f 608 599 600
f 608 600 609
f 602 526 515
f 602 610 526
f 611 603 516
f 611 516 527
f 611 527 526
f 611 526 610
f 611 610 602
f 611 602 603
f 614 534 535
f 614 613 534
f 615 535 536
f 615 614 535
f 617 537 538
f 617 616 537
f 618 538 539
f 618 617 538
f 619 539 540
f 619 618 539
f 621 534 613
f 621 541 534
f 620 613 612
f 620 621 613
f 623 615 536
f 623 536 543
f 623 622 614
f 623 614 615
f 624 537 616
f 624 546 537
f 624 616 617
f 624 617 625
f 626 625 617
f 626 617 618
f 627 619 540
f 627 540 549
f 627 549 548
f 627 548 626
f 627 626 618
f 627 618 619
f 628 541 621
f 628 550 541
f 629 551 550
f 629 550 628
f 628 621 622
f 628 622 629
f 630 623 543
f 630 543 552
f 630 552 551
f 630 551 629
f 629 622 623
f 629 623 630
f 631 546 624
f 631 555 546
f 632 556 555
f 632 555 631
f 631 624 625
f 631 625 632
f 633 626 548
f 633 548 557
f 633 557 556
f 633 556 632
f 633 632 625
f 633 625 626
f 635 559 560
f 635 634 559
f 636 560 561
f 636 635 560
f 565 637 564
f 565 638 637
f 566 638 565
f 566 639 638
f 567 639 566
f 567 640 639
f 569 641 568
f 569 642 641
f 634 570 559
f 634 643 570
f 644 571 570
f 644 570 643
f 643 634 635
f 643 635 644
f 636 561 572
f 636 572 645
f 644 635 636
f 644 636 645
f 637 575 564
f 637 647 575
f 648 647 637
f 648 637 638
f 649 577 576
f 649 576 648
f 649 648 638
f 649 638 639
f 640 567 578
f 640 578 650
f 578 577 649
f 578 649 650
f 649 639 640
f 649 640 650
f 641 579 568
f 641 651 579
f 642 569 580
f 642 580 652
f 651 641 642
f 651 642 652
f 644 581 571
f 644 653 581
f 645 572 582
f 645 582 654
f 654 582 581
f 654 581 653
f 653 644 645
f 653 645 654
f 647 584 575
f 647 656 584
f 656 646 655
f 656 647 646
f 648 576 585
f 648 585 657
f 657 585 584
f 657 584 656
f 657 656 647
f 657 647 648
f 651 586 579
f 651 658 586
f 652 580 587
f 652 587 659
f 587 586 658
f 587 658 659
f 658 651 652
f 658 652 659
f 591 660 590
f 591 661 660
f 662 590 660
f 662 596 590
f 663 661 591
f 663 591 597
f 663 662 660
f 663 660 661
f 664 596 662
f 664 605 596
f 665 663 597
f 665 597 606
f 665 606 605
f 665 605 664
f 664 662 663
f 664 663 665
f 668 667 666
f 668 669 667
f 671 612 613
f 671 670 612
f 672 613 614
f 672 671 613
f 670 620 612
f 670 674 620
f 673 670 669
f 673 674 670
f 675 621 620
f 675 620 674
f 672 614 622
f 672 622 676
f 622 621 675
f 622 675 676
f 678 673 677
f 678 674 673
f 679 674 678
f 679 675 674
f 680 675 679
f 680 676 675
f 682 646 647
f 682 681 646
f 681 655 646
f 681 683 655
f 682 647 656
f 682 656 684
f 684 656 655
f 684 655 683
f 683 681 682
f 683 682 684
f 667 685 666
f 667 686 685
f 685 668 666
f 685 687 668
f 686 667 669
f 686 669 688
f 688 669 668
f 688 668 687
f 687 685 686
f 687 686 688
f 689 669 670
f 689 688 669
f 690 670 671
f 690 689 670
f 691 671 672
f 691 690 671
f 688 673 669
f 688 693 673
f 692 688 687
f 692 693 688
f 694 689 690
f 694 690 695
f 696 691 672
f 696 672 676
f 695 690 691
f 695 691 696
f 697 673 693
f 697 677 673
f 698 678 677
f 698 677 697
f 699 679 678
f 699 678 698
f 699 698 694
f 699 694 695
f 696 676 680
f 696 680 700
f 700 680 679
f 700 679 699
f 699 695 696
f 699 696 700
f 702 687 688
f 702 701 687
f 703 688 689
f 703 702 688
f 701 692 687
f 701 704 692
f 705 693 692
f 705 692 704
f 704 701 702
f 704 702 705
f 703 689 694
f 703 694 706
f 706 705 702
f 706 702 703
f 707 693 705
f 707 697 693
f 708 706 694
f 708 694 698
f 708 698 697
f 708 697 707
f 707 705 706
f 707 706 708
f 711 710 709
f 711 712 710
f 714 711 713
f 714 712 711
f 720 716 715
f 720 721 716
f 723 717 722
f 723 718 717
f 724 718 723
f 724 719 718
f 726 722 725
f 726 723 722
f 729 728 727
f 729 730 728
f 732 709 710
f 732 731 709
f 733 730 729
f 733 734 730
f 735 709 731
f 735 711 709
f 734 731 730
f 734 735 731
f 732 710 712
f 732 712 736
f 735 731 732
f 735 732 736
f 737 711 735
f 737 713 711
f 738 736 712
f 738 712 714
f 714 713 737
f 714 737 738
f 737 735 736
f 737 736 738
f 743 740 739
f 743 744 740
f 746 715 716
f 746 745 715
f 749 717 718
f 749 748 717
f 719 749 718
f 719 750 749
f 751 742 741
f 751 752 742
f 754 744 743
f 754 755 744
f 756 715 745
f 756 720 715
f 755 745 744
f 755 756 745
f 757 746 716
f 757 716 721
f 757 721 720
f 757 720 756
f 759 717 748
f 759 722 717
f 758 748 747
f 758 759 748
f 761 750 719
f 761 719 724
f 724 723 760
f 724 760 761
f 762 752 751
f 762 763 752
f 763 753 752
f 763 764 753
f 765 722 759
f 765 725 722
f 760 723 726
f 760 726 766
f 766 726 725
f 766 725 765
f 772 767 771
f 772 768 767
f 772 769 768
f 772 773 769
f 774 769 773
f 774 770 769
f 775 772 771
f 775 776 772
f 777 772 776
f 777 773 772
f 779 727 728
f 779 778 727
f 778 729 727
f 778 784 729
f 785 779 728
f 785 728 730
f 786 730 731
f 786 785 730
f 787 781 780
f 787 788 781
f 788 782 781
f 788 789 782
f 784 733 729
f 784 791 733
f 791 783 790
f 791 784 783
f 792 734 733
f 792 733 791
f 793 786 731
f 793 731 735
f 793 735 734
f 793 734 792
f 740 794 739
f 740 795 794
f 802 741 742
f 802 801 741
f 803 739 794
f 803 743 739
f 804 795 740
f 804 740 744
f 805 744 745
f 805 804 744
f 804 796 795
f 804 805 796
f 806 745 746
f 806 805 745
f 808 747 748
f 808 807 747
f 808 797 807
f 808 798 797
f 809 748 749
f 809 808 748
f 808 799 798
f 808 809 799
f 750 809 749
f 750 810 809
f 809 800 799
f 809 810 800
f 801 751 741
f 801 812 751
f 813 802 742
f 813 742 752
f 753 813 752
f 753 814 813
f 803 754 743
f 803 815 754
f 816 755 754
f 816 754 815
f 817 756 755
f 817 755 816
f 818 806 746
f 818 746 757
f 818 757 756
f 818 756 817
f 817 805 806
f 817 806 818
f 819 747 807
f 819 758 747
f 820 759 758
f 820 758 819
f 822 810 750
f 822 750 761
f 822 761 760
f 822 760 821
f 812 762 751
f 812 824 762
f 824 811 823
f 824 812 811
f 825 763 762
f 825 762 824
f 814 753 764
f 814 764 826
f 764 763 825
f 764 825 826
f 828 815 827
f 828 816 815
f 829 759 820
f 829 765 759
f 830 821 760
f 830 760 766
f 766 765 829
f 766 829 830
f 833 767 768
f 833 832 767
f 834 768 769
f 834 833 768
f 835 769 770
f 835 834 769
f 832 771 767
f 832 837 771
f 836 832 831
f 836 837 832
f 838 833 834
f 838 834 839
f 835 770 774
f 835 774 840
f 840 774 773
f 840 773 839
f 840 839 834
f 840 834 835
f 841 771 837
f 841 775 771
f 842 776 775
f 842 775 841
f 843 839 773
f 843 773 777
f 843 777 776
f 843 776 842
f 843 842 838
f 843 838 839
f 845 778 779
f 845 844 778
f 847 780 781
f 847 846 780
f 848 781 782
f 848 847 781
f 844 784 778
f 844 850 784
f 850 783 784
f 850 849 783
f 845 779 785
f 845 785 851
f 850 844 845
f 850 845 851
f 852 785 786
f 852 851 785
f 853 780 846
f 853 787 780
f 854 788 787
f 854 787 853
f 848 782 789
f 848 789 855
f 855 789 788
f 855 788 854
f 854 847 848
f 854 848 855
f 849 790 783
f 849 856 790
f 857 791 790
f 857 790 856
f 792 791 857
f 792 857 858
f 859 852 786
f 859 786 793
f 859 793 792
f 859 792 858
f 861 856 860
f 861 857 856
f 862 857 861
f 862 858 857
f 864 794 795
f 864 863 794
f 865 795 796
f 865 864 795
f 798 866 797
f 798 867 866
f 868 798 799
f 868 867 798
f 869 799 800
f 869 868 799
f 871 801 802
f 871 870 801
f 863 803 794
f 863 872 803
f 874 865 796
f 874 796 805
f 873 864 865
f 873 865 874
f 875 797 866
f 875 807 797
f 876 875 866
f 876 866 867
f 878 869 800
f 878 800 810
f 877 868 869
f 877 869 878
f 870 812 801
f 870 880 812
f 880 811 812
f 880 879 811
f 871 802 813
f 871 813 881
f 880 870 871
f 880 871 881
f 814 881 813
f 814 882 881
f 872 815 803
f 872 883 815
f 885 874 805
f 885 805 817
f 885 817 816
f 885 816 884
f 885 884 873
f 885 873 874
f 886 807 875
f 886 819 807
f 887 820 819
f 887 819 886
f 889 878 810
f 889 810 822
f 889 822 821
f 889 821 888
f 889 888 877
f 889 877 878
f 879 823 811
f 879 890 823
f 891 824 823
f 891 823 890
f 892 825 824
f 892 824 891
f 892 891 880
f 892 880 881
f 882 814 826
f 882 826 893
f 826 825 892
f 826 892 893
f 883 827 815
f 883 894 827
f 895 884 816
f 895 816 828
f 828 827 894
f 828 894 895
f 895 894 883
f 895 883 884
f 896 820 887
f 896 829 820
f 897 888 821
f 897 821 830
f 830 829 896
f 830 896 897
f 896 887 888
f 896 888 897
f 899 831 832
f 899 898 831
f 900 832 833
f 900 899 832
f 898 836 831
f 898 901 836
f 902 837 836
f 902 836 901
f 900 833 838
f 900 838 903
f 904 837 902
f 904 841 837
f 905 903 838
f 905 838 842
f 905 842 841
f 905 841 904
f 907 846 847
f 907 906 846
f 909 849 850
f 909 908 849
f 851 909 850
f 851 910 909
f 852 910 851
f 852 911 910
f 906 853 846
f 906 912 853
f 907 847 854
f 907 854 913
f 913 854 853
f 913 853 912
f 912 906 907
f 912 907 913
f 908 856 849
f 908 914 856
f 915 914 908
f 915 908 909
f 916 915 909
f 916 909 910
f 911 852 859
f 911 859 917
f 859 858 916
f 859 916 917
f 917 916 910
f 917 910 911
f 914 860 856
f 914 918 860
f 919 861 860
f 919 860 918
f 918 914 915
f 918 915 919
f 916 858 862
f 916 862 920
f 862 861 919
f 862 919 920
f 920 919 915
f 920 915 916
f 922 863 864
f 922 921 863
f 924 867 868
f 924 923 867
f 925 863 921
f 925 872 863
f 922 864 873
f 922 873 926
f 925 921 922
f 925 922 926
f 923 876 867
f 923 928 876
f 876 927 875
f 876 928 927
f 924 868 877
f 924 877 929
f 929 928 923
f 929 923 924
f 931 879 880
f 931 930 879
f 882 932 881
f 882 933 932
f 934 872 925
f 934 883 872
f 935 926 873
f 935 873 884
f 935 884 883
f 935 883 934
f 935 934 925
f 935 925 926
f 927 886 875
f 927 936 886
f 937 887 886
f 937 886 936
f 937 936 927
f 937 927 928
f 938 929 877
f 938 877 888
f 938 888 887
f 938 887 937
f 938 937 928
f 938 928 929
f 930 890 879
f 930 939 890
f 931 880 891
f 931 891 940
f 940 891 890
f 940 890 939
f 939 930 931
f 939 931 940
f 932 892 881
f 932 941 892
f 942 933 882
f 942 882 893
f 893 892 941
f 893 941 942
f 941 932 933
f 941 933 942
f 899 943 898
f 899 944 943
f 945 899 900
f 945 944 899
f 946 898 943
f 946 901 898
f 902 901 946
f 902 946 947
f 946 943 944
f 946 944 947
f 948 945 900
f 948 900 903
f 949 902 947
f 949 904 902
f 950 948 903
f 950 903 905
f 905 904 949
f 905 949 950
f 949 947 948
f 949 948 950
f 945 951 944
f 945 952 951
f 953 944 951
f 953 947 944
f 954 952 945
f 954 945 948
f 948 947 953
f 948 953 954
