# parsimony mesh: cplx_CPLX0-7755 (source /Users/eranagmon/code/v2e-cplx/workspace/studies/ecoli-3d/viz/3d/structures/cplx_CPLX0-7755.pdb)
# atoms: 1860  voxel: 4 Å  verts: 970  tris: 1996
v 35.5894 -43.2914 -15.3456
v 37.7607 -43.2719 -15.3486
v 39.8002 -43.1604 -15.2704
v 35.5894 -42.6342 -15.3456
v 37.5817 -41.2341 -15.5969
v 40.5198 -41.1339 -15.6003
v 35.6217 -35.6137 -15.3438
v 37.5817 -37.0218 -15.7366
v 41.0307 -37.1339 -15.7764
v 34.9061 -33.1339 -15.7583
v 37.7607 -33.1339 -15.9783
v 40.3107 -33.1339 -15.4469
v 31.4568 -27.9663 -15.5731
v 33.5604 -29.2334 -15.9460
v 38.0653 -29.2753 -15.7474
v 39.7734 -30.7029 -15.2420
v 31.3866 -25.1339 -15.5471
v 33.4593 -25.3462 -15.6394
v 36.9350 -26.8210 -15.4875
v 15.3640 -19.2715 -15.3607
v 15.9784 -19.2715 -15.3607
v 23.1448 -19.8479 -15.7308
v 25.0490 -19.8479 -15.7308
v 31.5658 -22.9953 -15.3077
v 31.9250 -22.9953 -15.3077
v 15.3640 -18.9487 -15.3607
v 15.9784 -18.9487 -15.3607
v 23.1448 -18.0074 -15.7308
v 25.0490 -18.0074 -15.7308
v -24.4774 16.4337 -15.4406
v -22.2393 16.2828 -15.6813
v -19.7276 16.5207 -15.6190
v -24.4774 17.3487 -15.4406
v -22.2352 18.7556 -15.8474
v -18.3323 19.2402 -15.7289
v -16.1988 20.8230 -15.2431
v -21.5908 22.8661 -15.8070
v -18.2681 22.4949 -15.7007
v -16.1988 20.9142 -15.2431
v -25.0825 27.6767 -15.7969
v -22.5246 26.5525 -15.9937
v -19.5296 26.8661 -15.7579
v -25.5417 30.8661 -15.7892
v -22.3003 30.9592 -15.8945
v -19.9117 29.6880 -15.5899
v -25.1327 33.2092 -15.4066
v -23.6744 33.2092 -15.4066
v -44.6231 40.4905 -15.4790
v -43.8299 40.4905 -15.4790
v -36.7270 40.2336 -15.5749
v -34.2393 40.1215 -15.5951
v -32.0587 40.5057 -15.3699
v -44.6231 41.1125 -15.4790
v -43.8299 41.1125 -15.4790
v -36.7270 41.3348 -15.5749
v -33.8712 42.7473 -15.5352
v -32.0742 42.8661 -15.3512
v -32.2925 44.9050 -15.2497
v -32.1998 44.9050 -15.2497
v 35.2779 -43.6702 -13.2270
v 37.7607 -43.8125 -13.2270
v 40.0638 -43.2762 -13.2270
v 35.2342 -41.2341 -13.1867
v 36.1290 -39.9675 -14.4932
v 42.1868 -41.1911 -13.4296
v 44.4119 -39.8959 -12.2314
v 34.9364 -37.0218 -13.1867
v 36.1290 -38.2804 -14.4932
v 43.0307 -37.1339 -14.2151
v 44.3114 -37.1339 -12.2151
v 30.9427 -32.2078 -12.3294
v 32.8764 -33.3783 -13.4884
v 41.9936 -33.4702 -13.0148
v 43.8437 -35.0277 -11.5400
v 15.6611 -27.9749 -11.3020
v 15.9426 -27.9749 -11.3020
v 30.3017 -29.2334 -13.4884
v 32.0936 -30.6330 -14.9960
v 39.6017 -28.0362 -15.1362
v 40.2934 -29.2753 -13.5725
v 15.6611 -26.7956 -11.3020
v 15.9426 -26.7956 -11.3020
v 23.5944 -23.2342 -11.4204
v 25.7607 -24.1886 -11.8350
v 29.0755 -25.5175 -13.1973
v 34.5917 -24.1544 -14.3139
v 37.9537 -25.3372 -13.3917
v 40.3144 -26.5200 -12.4695
v 51.5184 -23.2161 -11.2866
v 51.8580 -23.2161 -11.2866
v 11.2721 -19.5334 -11.9616
v 13.9227 -19.5566 -13.2677
v 15.9673 -19.3626 -13.2270
v 23.2144 -21.1623 -12.9430
v 26.1337 -21.1623 -14.0889
v 30.0437 -21.4508 -14.0411
v 33.3452 -21.3443 -12.8273
v 36.3057 -22.3600 -11.6473
v 51.5184 -23.0274 -11.2866
v 51.8580 -23.0274 -11.2866
v 11.2721 -18.0184 -11.9616
v 13.9227 -18.3161 -13.2677
v 15.9673 -18.9482 -13.2270
v 23.2026 -18.1335 -13.2270
v 26.0985 -17.1336 -13.7824
v 29.7165 -17.4283 -12.7618
v 32.0987 -18.9578 -11.3407
v 27.1479 -14.3853 -12.3787
v 28.3538 -14.3853 -12.3787
v -24.6884 15.9323 -13.2270
v -22.2393 15.3021 -13.2270
v -18.3323 16.2409 -13.0904
v -15.9888 16.6642 -11.6660
v -24.7726 18.7556 -13.1384
v -23.5657 20.0153 -14.4126
v -17.0610 18.1564 -14.3326
v -15.4536 19.2402 -13.0904
v -25.3847 22.8661 -12.4991
v -23.5908 22.8661 -14.4991
v -16.9540 23.5808 -14.2200
v -15.5118 22.4949 -13.0228
v -44.2566 28.8423 -11.2405
v -44.2042 28.8423 -11.2405
v -28.6984 27.6373 -12.0121
v -26.6129 26.3237 -13.5414
v -24.0482 25.0101 -15.0708
v -17.7093 26.6345 -13.0228
v -16.0858 25.1468 -11.5534
v -44.2566 29.0367 -11.2405
v -44.2042 29.0367 -11.2405
v -29.4248 30.8661 -12.6820
v -27.5417 30.8661 -14.6820
v -21.0077 32.3546 -14.6982
v -19.2306 30.9592 -13.3097
v -36.3831 36.7634 -11.4830
v -34.2393 35.9697 -11.9808
v -30.5123 34.6106 -13.0267
v -26.3753 34.6719 -14.4800
v -22.3919 34.6279 -13.2148
v -19.4896 33.3799 -12.0315
v -8.4619 36.6603 -11.3208
v -8.0339 36.6603 -11.3208
v -48.6181 40.4726 -11.6573
v -46.0696 40.1453 -13.0852
v -43.7093 40.2601 -13.2270
v -36.5551 38.6973 -13.0091
v -34.8391 38.8527 -13.0756
v -30.5309 39.0499 -14.1701
v -26.2187 38.8502 -12.4233
v -23.7762 37.5062 -11.7314
v -8.4619 36.9766 -11.3208
v -8.0339 36.9766 -11.3208
v -48.6181 41.3857 -11.6573
v -46.0696 41.4880 -13.0852
v -43.7093 41.2538 -13.2270
v -36.7270 41.3348 -14.5352
v -34.5393 42.7473 -13.2119
v -30.1042 42.8694 -13.0633
v -27.5382 41.5384 -11.6208
v -32.5647 45.2810 -13.2270
v -31.7059 45.2810 -13.2270
v 34.7120 -43.8771 -9.2270
v 37.7607 -44.6792 -9.2270
v 40.4931 -43.9360 -9.2270
v 33.5875 -41.1339 -9.2270
v 42.2458 -41.1911 -9.0929
v 44.4119 -39.8959 -10.3369
v 31.4007 -36.2461 -7.7402
v 32.6605 -37.4012 -9.1349
v 42.9259 -38.4807 -7.6702
v 44.3829 -37.1420 -9.0929
v 15.1067 -31.7137 -8.4511
v 16.5001 -31.7137 -8.4511
v 27.2322 -31.8262 -7.7764
v 29.8384 -33.3503 -9.0916
v 32.0930 -34.8745 -10.4069
v 42.7488 -32.3610 -10.3267
v 44.2206 -33.4702 -9.0868
v 14.8217 -29.2385 -9.5614
v 16.9871 -29.2385 -9.5614
v 26.5726 -29.1339 -8.6207
v 28.1648 -29.1339 -10.6207
v 42.4170 -29.1339 -9.9329
v 45.5891 -28.8823 -7.9392
v 48.0980 -27.3812 -7.4727
v 7.5446 -23.6050 -7.4908
v 9.7607 -23.9036 -7.6390
v 13.9719 -25.2424 -9.0685
v 16.9028 -25.3309 -9.2655
v 23.2663 -23.8241 -9.2270
v 25.5273 -26.0697 -9.6123
v 27.7842 -27.1066 -11.2025
v 38.9723 -23.8533 -10.2250
v 41.7780 -24.9747 -8.9801
v 45.4982 -24.9112 -8.1493
v 49.8082 -24.7959 -9.0747
v 52.8204 -23.6269 -9.2270
v 7.5446 -22.0281 -7.4908
v 9.5656 -20.7808 -8.8350
v 14.5940 -20.5677 -9.0550
v 16.0890 -20.6069 -9.2169
v 23.2883 -21.2350 -9.4771
v 24.6947 -19.9690 -8.3106
v 34.7654 -19.6934 -10.7980
v 37.8648 -21.0927 -9.1782
v 41.6412 -21.3890 -7.7294
v 45.7808 -21.1625 -7.9553
v 50.0153 -21.9142 -9.2969
v 53.9940 -21.5258 -8.4010
v 55.8186 -20.3196 -7.2998
v 7.4623 -16.2491 -7.6437
v 9.5656 -17.1337 -9.2763
v 13.8460 -17.2117 -9.3591
v 15.8185 -19.0716 -10.4759
v 23.6325 -18.9266 -10.9773
v 25.9213 -17.5982 -9.5675
v 29.7165 -17.1842 -9.3854
v 33.5635 -18.6529 -9.3696
v 36.7572 -18.7176 -8.1314
v 42.7075 -18.4375 -7.9004
v 44.9050 -18.4375 -7.9004
v 55.5587 -19.0913 -7.2998
v 55.8186 -19.0913 -7.2998
v 7.4623 -14.7500 -7.6437
v 9.7607 -14.6416 -8.3010
v 11.9871 -14.8613 -8.2423
v 27.1479 -14.3853 -10.8244
v 28.3538 -14.3853 -10.8244
v -25.1669 15.8181 -9.2270
v -22.2393 14.5053 -9.2270
v -18.1794 15.6947 -9.3202
v -15.9888 16.6642 -10.7158
v -26.0052 18.8661 -9.2270
v -16.8061 17.6735 -8.0491
v -15.3044 18.9505 -9.3202
v -28.7970 24.3182 -8.4056
v -27.2523 22.9373 -9.5342
v -14.7834 22.8661 -9.2270
v -44.6444 28.2793 -9.2270
v -42.6183 28.3886 -8.8352
v -40.2261 28.8528 -7.2407
v -32.6686 28.2329 -7.6269
v -30.0810 26.6018 -9.3496
v -28.1432 24.9707 -11.0723
v -16.9688 27.8135 -10.6572
v -15.3880 26.6345 -9.2851
v -45.3203 30.5684 -9.4644
v -42.6183 30.5684 -9.8415
v -39.9779 30.8661 -7.6983
v -33.0229 30.8661 -8.3541
v -31.4248 30.8661 -10.3541
v -17.2242 30.8661 -10.3393
v -14.1681 30.8945 -8.3678
v -11.1105 32.2468 -7.6452
v -49.2162 35.5938 -7.8221
v -46.5962 34.5027 -8.5715
v -42.2811 34.6783 -8.5833
v -38.1435 34.9916 -9.3429
v -34.3495 34.9352 -9.5870
v -32.0276 33.1070 -10.9965
v -21.1095 36.0466 -10.5300
v -18.0210 34.9039 -9.2383
v -14.4503 35.0032 -8.2587
v -9.7862 34.8603 -9.0603
v -6.5160 35.8278 -9.1281
v -3.7612 36.4805 -7.7288
v -49.5959 39.0300 -9.1840
v -45.4890 39.2512 -9.0445
v -43.7922 39.1788 -9.0498
v -36.3831 37.1610 -10.8441
v -34.4081 38.8355 -9.2577
v -30.2393 40.4202 -7.8580
v -26.2910 40.4002 -9.0368
v -22.4301 38.8940 -9.1565
v -18.0289 38.7905 -7.7238
v -14.4503 38.7260 -7.8549
v -10.3114 38.4650 -8.9049
v -6.5160 37.6362 -9.1281
v -3.7612 37.6183 -7.7288
v -49.7949 42.7778 -9.1143
v -46.2269 42.5945 -8.9977
v -43.9420 41.1366 -10.2895
v -33.0744 42.8661 -10.3447
v -30.2363 42.8694 -9.9594
v -26.2910 41.2812 -9.0368
v -23.7506 41.0240 -7.7830
v -16.8387 41.1283 -7.5843
v -14.2393 41.1134 -7.5757
v -12.1609 40.9337 -7.3346
v -49.5478 45.1075 -7.7059
v -47.9652 45.1075 -7.7059
v -32.6200 45.3804 -10.9396
v -31.5676 45.3804 -10.9396
v 39.6096 -47.2010 -3.5901
v 39.9088 -47.2010 -3.5901
v 27.6534 -43.2377 -3.3670
v 29.7607 -43.6647 -4.0101
v 33.6052 -44.1531 -5.3694
v 38.0700 -45.9344 -5.0449
v 40.7589 -45.2776 -5.0449
v 27.0564 -41.1339 -3.8999
v 29.7607 -41.1339 -5.5255
v 32.1171 -41.1339 -6.8525
v 41.9535 -41.1339 -5.2270
v 23.1959 -35.9868 -3.5125
v 25.6616 -37.2456 -4.3123
v 29.9447 -37.4012 -6.4989
v 31.8285 -38.9127 -7.1569
v 42.8168 -38.3925 -5.2270
v 44.4783 -36.3925 -5.2270
v 14.9394 -31.7221 -5.2270
v 17.8043 -31.7405 -4.9605
v 21.8218 -32.8699 -3.9260
v 25.8436 -33.1493 -5.8521
v 28.7341 -34.4929 -6.6597
v 45.1002 -33.1339 -5.2270
v 11.1556 -27.8752 -4.0405
v 13.0168 -29.1787 -5.3151
v 19.1802 -29.0517 -4.9605
v 21.4976 -29.0517 -4.2966
v 24.5726 -29.1339 -6.3970
v 46.3159 -28.8823 -5.3154
v 48.0980 -27.3812 -6.7078
v 7.5446 -23.6050 -6.3415
v 9.7432 -24.9804 -5.1910
v 14.0006 -24.7533 -4.9789
v 17.4958 -24.7441 -4.8411
v 22.9617 -25.2833 -5.4597
v 24.4992 -25.2833 -5.4597
v 43.2417 -23.4294 -7.0668
v 45.5900 -24.9587 -5.5539
v 49.5003 -25.0985 -5.3498
v 53.0764 -23.7091 -6.6586
v 7.3813 -21.0500 -5.3533
v 9.1243 -20.6669 -4.7610
v 14.3785 -20.9067 -4.7467
v 16.3595 -21.9126 -5.9172
v 23.2678 -22.6357 -6.7893
v 25.7859 -21.2350 -5.3644
v 38.5675 -20.3431 -5.2270
v 42.1711 -21.2503 -5.7567
v 45.2758 -21.0463 -5.7567
v 49.6458 -21.6760 -5.2859
v 54.3175 -21.3110 -6.9073
v 55.8186 -20.3196 -7.1561
v 6.9216 -17.4030 -5.5099
v 9.5211 -18.7325 -5.3041
v 12.8444 -17.1831 -5.0366
v 27.3927 -18.9308 -5.2270
v 29.7607 -18.5236 -5.2270
v 33.7607 -18.3831 -5.2270
v 36.5675 -18.7904 -5.2270
v 42.7075 -18.4375 -6.1330
v 44.9050 -18.4375 -6.1330
v 55.5587 -19.0913 -7.1561
v 55.8186 -19.0913 -7.1561
v 7.1189 -14.5998 -5.2270
v 9.7607 -14.1682 -5.2270
v 12.1571 -14.7023 -5.2270
v -20.6303 12.6665 -4.3640
v -19.4331 12.6665 -4.3640
v -32.4932 16.5740 -3.6891
v -30.2393 15.9548 -4.1389
v -26.3649 15.5005 -5.2792
v -22.0739 13.7009 -5.5092
v -18.1196 14.4469 -5.4023
v -16.0020 15.9501 -3.7740
v -32.8311 18.8661 -3.8515
v -30.2393 18.8661 -4.8541
v -27.5172 18.8661 -6.2296
v -16.6825 19.0697 -5.0433
v -15.9760 19.0697 -5.0433
v -36.8237 24.2393 -3.5546
v -34.1604 22.8900 -4.0434
v -30.1739 22.9373 -5.7966
v -27.7338 21.6515 -6.4768
v -16.5589 21.0443 -3.6459
v -15.1909 22.5730 -5.0783
v -45.2116 27.9468 -5.2270
v -42.2393 27.7396 -5.2270
v -38.5249 27.3946 -5.0022
v -34.0969 26.8861 -5.7547
v -31.4636 25.5662 -6.5560
v -14.0998 26.8661 -5.2270
v -48.6282 32.2462 -4.4523
v -47.3741 30.8941 -5.5622
v -40.6383 32.0545 -3.8897
v -38.7317 31.0409 -5.1697
v -35.1335 31.1627 -5.1606
v -13.1934 30.3414 -5.2270
v -11.3394 32.3414 -5.2270
v -49.3680 34.5027 -5.5622
v -48.1675 32.9271 -7.1190
v -41.6419 34.6783 -5.2246
v -39.9039 33.2198 -6.5564
v -34.3110 34.8661 -5.2270
v -16.5523 36.4279 -6.7671
v -15.9243 36.4279 -6.7671
v -9.4849 34.5826 -5.2363
v -6.2393 35.7225 -6.3456
v -3.7612 36.4805 -6.7028
v -52.7846 39.9698 -4.1678
v -51.2778 38.7283 -5.3915
v -45.1384 39.8932 -5.2270
v -43.6933 37.8932 -5.2270
v -33.0153 37.7893 -5.2270
v -29.9264 39.8616 -5.0036
v -26.3437 40.7005 -4.8324
v -22.3461 39.8370 -4.9769
v -17.5815 38.5885 -5.8760
v -14.9614 38.6295 -5.6406
v -10.5046 38.6927 -5.5186
v -6.2393 37.7458 -6.3456
v -3.7612 37.6183 -6.7028
v -52.7846 41.8759 -4.1678
v -51.6736 43.0720 -5.3915
v -46.6842 42.8661 -5.2270
v -28.3845 40.8975 -3.5214
v -26.3437 40.9608 -4.8324
v -23.7506 41.0240 -6.1435
v -16.8387 41.1283 -6.7509
v -14.2393 41.1134 -6.7957
v -12.1609 40.9337 -7.1279
v -49.8532 45.2072 -5.2270
v -47.7851 45.2072 -5.2270
v 31.7112 -47.1479 0.7240
v 33.7607 -47.2620 0.5059
v 38.1977 -47.2458 -0.9892
v 39.9088 -47.2010 -2.4443
v 26.8833 -43.7250 -1.2270
v 30.1310 -45.5692 -0.8564
v 33.7607 -46.0828 -1.4941
v 38.1977 -46.5779 -0.9892
v 41.6199 -45.1497 -1.2706
v 44.2447 -43.6055 -0.0969
v 22.5616 -40.0286 0.0287
v 24.9597 -41.2707 -1.2736
v 43.1207 -41.1339 -2.6393
v 44.5348 -41.1339 -0.6393
v 18.9922 -36.4083 0.0282
v 21.5454 -37.5309 -1.3049
v 24.2622 -38.6534 -2.6380
v 43.3370 -38.7986 -2.9068
v 44.7457 -37.3327 -1.4349
v 15.0424 -31.5171 -1.2270
v 17.6996 -33.1764 -1.2739
v 20.5292 -34.0272 -2.6385
v 45.1931 -33.1339 -1.2270
v 11.0311 -28.3256 -1.2270
v 13.0424 -30.3256 -1.2270
v 18.9186 -28.0916 -1.2270
v 21.4976 -28.3242 -1.0592
v 23.9893 -27.8408 0.3860
v 46.3082 -28.9169 -1.0902
v 47.9796 -27.4389 0.3344
v 10.7191 -25.1645 -1.3873
v 14.1355 -24.2860 -1.3873
v 16.9186 -26.0358 -1.2270
v 22.6556 -26.6126 -2.2807
v 25.8080 -25.0412 -1.2823
v 29.7607 -23.7617 -0.3827
v 32.2428 -23.6351 0.2891
v 47.1901 -26.4880 -2.3323
v 48.5283 -25.1464 -1.0902
v 7.2179 -20.0718 -2.9287
v 9.7570 -21.3197 -2.8781
v 13.0519 -22.5675 -2.8276
v 27.4761 -21.1705 -1.4612
v 29.7607 -22.1676 -0.3827
v 33.5089 -21.1957 -0.0785
v 37.4082 -20.7705 -1.5585
v 41.7607 -21.2390 -1.2270
v 45.7607 -20.8763 -1.2270
v 48.5560 -22.2123 -1.2270
v 6.9357 -17.1339 -2.7161
v 9.8142 -17.1831 -2.5395
v 12.0629 -15.8825 -2.7624
v 27.5054 -18.8259 -1.2270
v 29.7607 -18.4517 -1.2270
v 33.5693 -18.8096 -1.5585
v 35.8399 -19.0922 -3.1128
v 7.2035 -14.8056 -2.8441
v 9.7607 -14.6605 -2.5913
v 12.0629 -14.8311 -2.7624
v -28.9920 12.4915 -0.2126
v -26.2393 12.3884 -0.3345
v -22.0739 12.3105 -1.1217
v -19.2613 12.3684 -1.2270
v -36.3978 16.7225 0.6240
v -33.9916 16.2114 -0.9164
v -30.2909 14.1438 -1.4183
v -26.2393 13.5975 -2.3345
v -23.2970 13.4309 -2.3848
v -17.2613 13.8085 -1.2270
v -15.4604 15.8085 -1.2270
v -40.2941 20.8106 0.7333
v -37.9344 19.2328 0.3277
v -34.8311 18.8661 -1.7538
v -16.5589 20.4659 -2.9527
v -15.2943 19.0259 -1.4624
v -40.7033 22.8661 0.2214
v -38.1900 22.8900 -1.6003
v -35.4411 21.5726 -2.4470
v -16.5589 21.0443 -2.9527
v -14.9092 22.5730 -1.4624
v -45.4578 28.1852 -1.2270
v -42.1776 26.5636 -1.2445
v -39.4904 25.9364 -2.5894
v -14.0046 26.8661 -1.2270
v -48.6479 31.8992 -1.2270
v -47.4578 29.8992 -1.2270
v -41.2876 31.4619 -1.2270
v -38.2393 30.8679 -1.2270
v -35.6034 32.2721 -1.2270
v -13.2649 30.2774 -1.2270
v -11.6327 32.2774 -1.2270
v -48.8754 34.6115 -1.5042
v -46.2393 35.1763 -1.0050
v -43.3994 34.5689 -1.5721
v -33.3884 34.7646 -1.5422
v -30.2393 35.6429 -0.4657
v -27.9251 36.0710 0.3134
v -10.5395 34.8661 -1.2270
v -52.7846 39.9698 -2.7980
v -50.1485 38.7283 -2.7558
v -46.4091 38.6531 -2.9583
v -44.1084 37.1778 -3.1356
v -32.3357 37.1198 -3.0857
v -30.2986 38.6389 -1.3862
v -26.5831 39.0605 -0.5668
v -22.2393 38.5715 -1.2270
v -18.2393 37.9068 -1.2270
v -14.2393 38.3831 -1.2270
v -11.1461 37.6766 -1.2270
v -52.7846 41.8759 -2.7980
v -50.3454 43.0720 -2.6029
v -47.7029 42.8661 -2.7686
v -29.3283 41.0088 -1.2270
v -27.5766 41.0088 -1.2270
v -49.0827 45.0795 -2.7677
v -47.9078 45.0795 -2.7677
v 31.7112 -47.1479 0.8100
v 33.7607 -47.2620 1.0454
v 36.7859 -47.2907 1.0992
v 22.5526 -43.4530 3.8701
v 25.5231 -44.1728 2.6313
v 30.1310 -45.8668 2.3952
v 33.7607 -45.9929 3.0454
v 37.9758 -45.9287 2.5688
v 41.7607 -44.7433 2.7730
v 44.5378 -43.7521 2.7730
v 14.9799 -40.0857 4.2814
v 17.7607 -40.7766 3.4789
v 21.2238 -41.5338 2.3712
v 24.0314 -42.6952 1.2034
v 45.0398 -41.1339 2.7730
v 14.9420 -37.1339 4.1625
v 17.6996 -37.4985 1.9442
v 19.8950 -39.0749 0.8724
v 44.7962 -37.1339 2.7730
v 11.1413 -31.8389 3.8210
v 14.0137 -32.9730 2.8024
v 16.3255 -34.1070 1.7839
v 46.0082 -32.9550 2.8731
v 48.2721 -31.5024 4.2732
v 11.2672 -28.9593 2.8702
v 12.3710 -28.9593 2.8702
v 18.8008 -27.8812 1.7807
v 21.7607 -28.2246 1.9059
v 23.9893 -27.8408 1.2759
v 46.7952 -30.1055 1.6065
v 48.7331 -28.9169 2.8731
v 11.3930 -26.5181 1.9194
v 13.6030 -26.5334 3.0609
v 17.9145 -25.6081 3.2601
v 21.7607 -25.1339 3.4596
v 25.4978 -24.9354 1.9830
v 29.6733 -23.9571 2.8183
v 33.6499 -23.9916 2.8735
v 36.1088 -23.5272 4.2738
v 49.3259 -25.1339 2.7730
v 19.6949 -23.0592 4.7395
v 21.7607 -22.1733 4.3267
v 26.5111 -20.9811 2.8561
v 29.1268 -21.2054 2.6575
v 33.5089 -21.1957 1.3443
v 37.5696 -22.0478 2.8735
v 41.7607 -21.0736 2.7730
v 45.7607 -20.6367 2.7730
v 48.4940 -21.7347 2.7730
v 27.5117 -18.7967 1.4531
v 29.7607 -18.7571 1.5144
v 32.1083 -18.9687 1.0814
v -28.9920 12.4915 1.7769
v -26.2393 12.3884 1.9574
v -22.2393 12.3213 1.8301
v -19.7416 12.4021 1.6073
v -41.2132 16.5331 4.4979
v -37.9344 16.4541 3.0080
v -34.2393 15.3738 2.7730
v -30.2909 13.6713 2.9754
v -26.2393 13.4857 3.9574
v -22.2393 13.5278 3.8301
v -18.3407 14.1404 2.8736
v -14.6541 16.1834 2.7730
v -44.5983 19.8741 4.4853
v -42.0870 19.0090 3.1583
v -39.0645 18.1439 1.8312
v -13.9794 18.8661 2.7730
v -44.5983 21.8841 4.4853
v -42.8759 23.0769 3.0004
v -14.4408 22.8661 2.7730
v -48.5754 28.3174 3.8874
v -46.3499 27.5809 2.6417
v -43.4940 25.6711 2.7730
v -13.3263 26.7213 2.6620
v -10.2393 28.1749 4.1157
v -8.2291 28.8524 4.7483
v -48.4853 30.7838 2.4881
v -46.8897 31.0239 2.6761
v -42.4386 32.1424 2.9793
v -38.6318 31.8508 2.6991
v -35.6126 32.2464 1.3164
v -12.8827 29.4948 1.2546
v -10.1966 30.8433 2.5542
v -8.2039 30.8661 4.6383
v -48.3952 33.1084 1.0888
v -46.2393 33.1763 1.7677
v -43.9047 33.0374 1.7835
v -37.8112 34.8661 3.7783
v -33.9586 35.0727 2.7766
v -30.2393 35.2790 2.7730
v -26.4508 35.7173 2.8135
v -23.6773 36.1473 4.1738
v -16.2498 36.8521 4.7611
v -16.2235 36.8521 4.7611
v -9.4471 34.5195 3.0800
v -8.2023 32.9552 4.6180
v -37.0144 37.5280 4.2367
v -34.9713 37.5280 4.2367
v -29.5461 40.1580 1.0832
v -26.6049 38.8059 1.2952
v -22.3021 37.7193 2.8135
v -17.8456 37.6625 3.1659
v -14.6298 37.9942 3.1659
v -11.3024 37.9064 2.7730
v -29.5461 41.0249 1.0832
v -27.9515 41.0249 1.0832
v 15.2855 -47.4401 8.3409
v 16.6583 -47.4401 8.3409
v 22.9836 -47.4695 8.4474
v 24.6899 -47.4695 8.4474
v 14.8719 -45.1339 7.7014
v 17.8992 -45.2411 7.1759
v 21.4347 -45.0494 6.6604
v 25.9182 -45.9963 6.9777
v 29.7607 -45.6765 6.7730
v 33.7607 -45.1042 6.7730
v 37.6045 -44.0041 6.7327
v 41.7607 -43.7197 5.3990
v 44.3128 -43.4865 5.0082
v 14.0841 -41.3050 6.5750
v 17.7607 -42.7766 5.1008
v 19.8859 -43.0390 4.8734
v 38.8337 -42.4707 8.0392
v 41.7735 -41.1360 7.0415
v 44.2657 -41.1339 5.1590
v 13.8428 -37.1339 6.7730
v 43.1153 -38.4318 7.7192
v 44.2297 -37.1126 6.5407
v 10.6458 -32.3606 6.7730
v 13.4061 -34.3606 6.7730
v 46.2560 -33.7236 6.7730
v 48.4174 -31.7236 6.7730
v 10.6458 -29.6366 6.7730
v 12.5195 -27.6366 6.7730
v 49.6311 -29.1339 6.7730
v 14.7094 -25.3915 7.0930
v 18.0372 -23.7760 6.8984
v 19.8979 -23.3221 7.8238
v 30.9483 -23.6688 5.1827
v 33.8888 -24.2236 6.6188
v 36.4856 -24.0948 6.7730
v 47.4935 -23.3692 8.4370
v 48.9672 -24.8751 6.9714
v 15.6636 -23.0808 8.6397
v 18.0372 -23.0700 6.8984
v 21.4430 -21.8518 6.6035
v 25.8272 -19.9698 6.7403
v 29.6733 -21.2071 6.1534
v 32.4861 -21.1339 8.0395
v 38.4856 -22.0928 6.7730
v 41.7607 -21.0567 6.7730
v 46.0004 -21.6208 6.9714
v 48.1532 -21.9935 5.7704
v 27.2050 -18.8919 8.0517
v 29.7607 -18.9382 8.1913
v 31.8477 -19.1149 8.7187
v -44.5588 12.5209 8.3505
v -42.2393 12.4839 8.3069
v -38.2393 12.4772 8.4368
v -34.2393 12.4014 8.1700
v -30.2393 12.5562 7.7920
v -26.9720 12.7184 8.0196
v -44.9580 14.8661 7.5822
v -42.4236 15.0663 6.1010
v -38.2393 14.4588 6.4368
v -34.2393 13.9731 6.1700
v -30.2393 13.3642 5.7920
v -25.8789 13.3787 6.7210
v -21.9104 15.0124 7.1172
v -18.2393 15.8295 6.0525
v -14.9269 16.4498 5.2387
v -45.2721 18.6709 6.4738
v -43.8799 17.2075 4.9411
v -20.3578 16.9466 8.6800
v -18.2393 17.6678 8.0525
v -15.1217 19.0591 6.6524
v -45.0512 22.5324 6.7730
v -43.9247 24.5324 6.7730
v -14.6440 22.8661 6.7730
v -48.7155 27.9343 6.7730
v -46.2393 26.1633 6.7730
v -43.9247 25.0951 6.7730
v -13.0567 25.5027 6.7730
v -10.1882 27.7671 6.3922
v -8.2291 28.8524 4.8050
v -48.7155 29.4683 6.7730
v -46.1097 31.6676 6.4570
v -42.2393 32.7570 4.8867
v -40.2267 32.8544 4.7846
v -24.2783 32.8347 8.7097
v -24.1618 32.8347 8.7097
v -8.8284 30.8661 7.1160
v -8.2039 30.8661 5.1160
v -44.6900 33.6413 7.5797
v -42.2393 34.0433 6.8867
v -39.5092 34.9427 6.3800
v -32.3046 36.7817 4.8336
v -30.2393 36.5022 5.1194
v -25.3989 34.7592 7.0942
v -22.8020 35.3163 7.7543
v -18.1888 36.7921 6.7461
v -14.4504 36.6905 6.5735
v -10.0834 34.7421 6.7777
v -8.2023 32.9552 5.1984
v -37.3361 37.6478 6.7730
v -33.8785 38.2734 6.4094
v -30.2393 38.3334 7.1194
v -26.2393 37.5973 7.8826
v -22.1221 37.3690 7.2767
v -18.1888 37.3744 6.7461
v -14.4504 37.4684 6.5735
v -11.7234 37.7383 5.6903
v 15.2855 -47.4401 9.2115
v 16.6583 -47.4401 9.2115
v 22.9836 -47.4695 9.9613
v 24.6899 -47.4695 9.9613
v 14.8719 -45.1339 9.6861
v 17.8992 -45.2411 9.9033
v 21.6663 -45.5085 11.0337
v 25.9182 -46.3911 11.0860
v 29.7607 -45.4055 10.7730
v 33.5551 -44.2477 10.5140
v 36.1670 -43.4861 9.0080
v 14.2506 -41.1339 10.1008
v 17.5159 -41.2208 11.8351
v 20.3490 -42.6121 12.1061
v 30.8814 -39.7565 12.3064
v 33.5551 -41.1075 11.6566
v 37.6045 -41.1360 9.8233
v 40.4486 -39.8040 9.2508
v 14.6615 -37.1339 9.7092
v 16.7587 -37.1339 11.7092
v 30.8814 -38.5708 12.3064
v 33.7607 -38.4574 12.2013
v 37.7607 -38.0435 11.9096
v 41.7735 -37.4997 10.6597
v 44.3671 -35.9275 10.7730
v 10.8936 -32.0645 9.4085
v 14.2046 -33.2937 10.5525
v 16.8327 -34.5230 11.6966
v 46.0925 -32.9846 10.8143
v 48.1249 -31.5517 9.5084
v 10.8936 -30.3344 9.4085
v 13.9229 -29.1516 10.8348
v 16.8508 -27.9688 12.2610
v 26.8714 -27.4196 12.5255
v 29.7607 -27.5377 12.4109
v 32.1558 -27.3866 12.5377
v 46.5667 -29.1339 12.1026
v 48.5799 -29.1339 10.1026
v 15.1437 -25.1339 9.4526
v 17.9485 -25.1861 10.5594
v 21.4430 -24.4514 11.0991
v 25.6271 -25.1887 12.4867
v 29.7607 -25.1339 12.1513
v 33.7317 -25.3086 11.2022
v 36.7813 -24.3959 10.7730
v 46.7902 -24.8751 10.9955
v 48.4887 -26.0359 9.8104
v 15.6636 -23.0808 8.8578
v 16.3795 -23.0808 8.8578
v 22.5646 -22.2779 9.9831
v 25.8272 -21.0203 10.4960
v 29.7607 -21.1339 10.8711
v 32.4861 -21.1339 9.6250
v 38.7813 -22.6047 10.7730
v 41.7607 -21.9378 10.7730
v 45.0499 -22.4670 10.7730
v 27.2050 -18.8919 9.2076
v 29.7607 -18.9382 9.1307
v 31.8477 -19.1149 8.8153
v -44.5588 12.5209 9.2125
v -42.2393 12.4839 9.2472
v -38.2393 12.4772 9.4848
v -34.2393 12.4014 9.6829
v -30.2393 12.5562 9.4495
v -26.9720 12.7184 9.2182
v -44.9580 14.8661 9.6742
v -42.2393 14.8661 10.6295
v -38.4630 14.6252 11.5910
v -34.2393 13.4476 11.6829
v -30.2393 13.7938 11.4495
v -26.0492 14.5769 10.6096
v -23.0244 15.5610 9.3344
v -45.1872 19.1057 10.8303
v -42.2393 18.0833 12.1553
v -39.9455 17.4229 12.5207
v -28.6371 20.3466 12.3168
v -26.2302 19.1851 12.1590
v -22.1772 18.8184 10.7988
v -18.2393 19.6678 9.8915
v -16.0523 20.5211 9.4408
v -44.9452 22.0689 10.7730
v -42.5222 24.0079 11.0194
v -39.3571 24.4988 12.5170
v -28.6371 21.4159 12.3168
v -27.3342 21.4159 12.3168
v -21.3299 21.6993 12.2632
v -18.2393 21.7422 11.8915
v -15.1163 22.6670 10.7737
v -48.5381 28.1724 9.0499
v -46.2393 27.4393 9.8135
v -42.6835 26.3557 11.2002
v -39.3571 25.0540 12.5170
v -16.7542 28.4429 12.4224
v -13.8528 27.1030 11.4799
v -11.6562 28.0981 10.7730
v -48.5381 29.1644 9.0499
v -46.1097 30.6451 9.9378
v -42.4895 30.9608 11.8724
v -38.2393 32.3428 12.1836
v -34.2393 32.1969 12.3029
v -30.2393 32.2270 12.3897
v -25.8627 32.6101 11.0702
v -23.9292 32.6576 10.7730
v -16.7542 29.3823 12.4224
v -15.0222 29.3823 12.4224
v -10.7217 30.8661 10.7730
v -44.6900 33.6413 9.3270
v -42.2393 34.0433 9.8144
v -38.2516 34.9427 10.2276
v -34.2393 34.8661 11.5421
v -30.2393 34.8661 12.1191
v -25.8627 34.5881 10.3621
v -22.4883 35.0016 10.0399
v -19.7877 36.4507 10.7730
v -13.0314 35.8411 10.7730
v -11.3048 33.8411 10.7730
v -36.9266 37.2464 9.3167
v -34.2393 38.1287 10.0122
v -30.2393 38.3334 10.5025
v -26.2393 37.5973 9.8880
v -23.2337 37.1879 9.0624
v -17.7877 37.3582 10.7730
v -15.0314 37.3582 10.7730
v 23.0157 -44.3711 13.1996
v 25.7607 -44.4128 13.3886
v 29.7607 -43.7658 13.2551
v 32.0846 -43.5085 13.0215
v 18.6860 -39.9454 13.2712
v 21.7137 -41.2208 13.7750
v 25.7607 -41.1339 14.0992
v 29.6331 -41.1075 13.2800
v 32.0846 -42.4232 13.0215
v 18.7587 -37.1339 13.1812
v 21.7607 -37.1339 13.9187
v 25.7607 -37.1339 14.2621
v 29.6331 -37.1961 13.6397
v 33.7607 -36.4574 13.5154
v 37.7607 -36.0435 13.3161
v 41.7607 -35.6178 13.2281
v 44.1806 -35.5608 13.2033
v 15.4772 -31.8563 12.9501
v 18.0039 -33.1674 13.1042
v 21.7607 -33.1339 13.4839
v 25.7607 -33.1339 14.2699
v 29.9217 -32.9090 15.4921
v 33.7181 -32.9090 15.5158
v 37.7607 -33.1339 14.1140
v 41.7607 -33.1339 13.4443
v 44.3839 -33.1339 13.2001
v 15.4772 -30.6355 12.9501
v 18.0147 -29.2349 13.1231
v 21.7607 -29.1339 13.3663
v 25.6271 -28.9053 13.3776
v 29.9217 -29.7058 14.7468
v 33.5894 -29.1343 14.7304
v 37.7607 -29.1339 14.3678
v 41.7607 -29.1339 13.6686
v 44.5667 -29.1339 13.0100
v 19.5174 -27.0501 12.8506
v 21.7607 -26.6396 12.8686
v 24.2048 -26.5586 12.8228
v 34.8224 -26.5954 13.1064
v 37.8062 -25.2108 14.1708
v 41.7607 -25.1339 14.8582
v 44.7480 -25.1339 13.3610
v 39.1698 -22.8662 14.0401
v 41.7607 -22.6999 14.1788
v 44.4135 -22.8230 13.3803
v -37.2788 15.7980 13.2842
v -34.2393 15.4476 13.6158
v -30.2393 15.7938 13.4395
v -27.7929 16.2595 13.0492
v -44.4569 20.5988 12.8683
v -42.2393 20.0833 13.0203
v -38.4630 18.8002 13.6718
v -34.2393 18.8661 14.6096
v -30.0780 18.9544 13.6499
v -26.2302 19.1851 12.9562
v -23.9966 20.6902 12.8632
v -44.4569 21.2661 12.8683
v -42.2393 21.8906 13.0203
v -38.1100 23.0457 13.3939
v -34.2393 22.8661 14.3835
v -30.0780 22.7960 13.9727
v -26.0962 22.7960 13.6745
v -22.4937 22.9660 13.4613
v -18.2393 23.7422 13.4665
v -15.3353 23.8676 13.4005
v -41.3229 27.7207 13.2280
v -38.1100 26.5788 13.4073
v -34.2393 26.8661 13.9422
v -30.2393 26.8661 14.8603
v -26.2393 26.8661 15.5933
v -22.2393 26.8661 14.8513
v -18.1483 27.0121 13.6518
v -13.8454 27.2641 13.0979
v -12.2137 28.7520 12.7953
v -41.3229 29.6906 13.2280
v -38.2393 30.3428 13.5299
v -34.2393 30.1969 13.3255
v -30.2393 30.2270 13.7903
v -26.2393 30.5696 14.5341
v -22.4378 31.1181 14.2884
v -18.1483 30.7758 13.9623
v -13.9091 30.7758 13.2244
v -12.1326 30.8661 12.8642
v -21.2367 33.7795 13.5845
v -18.3450 35.0141 14.2332
v -14.2102 34.6484 13.8059
v -12.1226 33.1699 12.8723
v -17.0821 37.1898 13.7645
v -15.5241 37.1898 13.7645
v 31.3623 -31.4257 16.9138
v 32.3564 -31.4257 16.9138
v 31.3623 -30.8820 16.9138
v 32.3564 -30.8820 16.9138
f 4 2 1
f 4 5 2
f 5 3 2
f 5 6 3
f 8 6 5
f 8 9 6
f 11 7 10
f 11 8 7
f 12 8 11
f 12 9 8
f 15 10 14
f 15 11 10
f 16 11 15
f 16 12 11
f 18 13 17
f 18 14 13
f 19 14 18
f 19 15 14
f 25 17 24
f 25 18 17
f 26 21 20
f 26 27 21
f 28 23 22
f 28 29 23
f 33 31 30
f 33 34 31
f 34 32 31
f 34 35 32
f 37 35 34
f 37 38 35
f 38 36 35
f 38 39 36
f 42 37 41
f 42 38 37
f 44 40 43
f 44 41 40
f 45 41 44
f 45 42 41
f 47 43 46
f 47 44 43
f 53 49 48
f 53 54 49
f 55 51 50
f 55 56 51
f 56 52 51
f 56 57 52
f 58 57 56
f 58 59 57
f 61 1 2
f 61 60 1
f 3 61 2
f 3 62 61
f 60 4 1
f 60 63 4
f 64 5 4
f 64 4 63
f 62 3 6
f 62 6 65
f 68 5 64
f 68 8 5
f 68 7 8
f 68 67 7
f 68 63 67
f 68 64 63
f 65 6 9
f 65 9 69
f 69 66 65
f 69 70 66
f 72 7 67
f 72 10 7
f 73 69 9
f 73 9 12
f 74 69 73
f 74 70 69
f 78 10 72
f 78 14 10
f 78 13 14
f 78 77 13
f 78 71 77
f 78 72 71
f 73 12 16
f 73 16 80
f 16 15 79
f 16 79 80
f 81 76 75
f 81 82 76
f 85 13 77
f 85 17 13
f 79 15 19
f 79 19 87
f 19 18 86
f 19 86 87
f 88 79 87
f 88 80 79
f 93 20 21
f 93 92 20
f 23 94 22
f 23 95 94
f 94 84 83
f 94 95 84
f 85 24 17
f 85 96 24
f 95 85 84
f 95 96 85
f 86 18 25
f 86 25 97
f 25 24 96
f 25 96 97
f 98 86 97
f 98 87 86
f 99 90 89
f 99 100 90
f 92 26 20
f 92 102 26
f 102 91 101
f 102 92 91
f 103 93 21
f 103 21 27
f 103 27 26
f 103 26 102
f 104 22 94
f 104 28 22
f 105 95 23
f 105 23 29
f 29 28 104
f 29 104 105
f 106 95 105
f 106 96 95
f 107 96 106
f 107 97 96
f 109 105 108
f 109 106 105
f 111 30 31
f 111 110 30
f 32 111 31
f 32 112 111
f 110 33 30
f 110 114 33
f 115 34 33
f 115 33 114
f 116 112 32
f 116 32 35
f 36 116 35
f 36 117 116
f 116 113 112
f 116 117 113
f 115 37 34
f 115 119 37
f 118 115 114
f 118 119 115
f 117 36 39
f 117 39 121
f 39 38 120
f 39 120 121
f 126 37 119
f 126 41 37
f 126 40 41
f 126 125 40
f 126 118 125
f 126 119 118
f 120 38 42
f 120 42 127
f 128 120 127
f 128 121 120
f 129 123 122
f 129 130 123
f 132 40 125
f 132 43 40
f 132 124 131
f 132 125 124
f 127 42 45
f 127 45 134
f 45 44 133
f 45 133 134
f 132 46 43
f 132 138 46
f 137 132 131
f 137 138 132
f 133 44 47
f 133 47 139
f 47 46 138
f 47 138 139
f 140 133 139
f 140 134 133
f 145 48 49
f 145 144 48
f 147 50 51
f 147 146 50
f 147 135 146
f 147 136 135
f 52 147 51
f 52 148 147
f 148 136 147
f 148 137 136
f 148 138 137
f 148 149 138
f 150 138 149
f 150 139 138
f 151 142 141
f 151 152 142
f 144 53 48
f 144 154 53
f 154 143 153
f 154 144 143
f 155 145 49
f 155 49 54
f 155 54 53
f 155 53 154
f 156 50 146
f 156 55 50
f 56 55 156
f 56 156 157
f 156 146 147
f 156 147 157
f 158 148 52
f 158 52 57
f 159 148 158
f 159 149 148
f 160 56 157
f 160 58 56
f 161 158 57
f 161 57 59
f 59 58 160
f 59 160 161
f 163 60 61
f 163 162 60
f 62 163 61
f 62 164 163
f 162 63 60
f 162 165 63
f 166 164 62
f 166 62 65
f 167 65 66
f 167 166 65
f 165 67 63
f 165 169 67
f 167 66 70
f 167 70 171
f 170 166 167
f 170 167 171
f 176 67 169
f 176 72 67
f 176 71 72
f 176 175 71
f 176 168 175
f 176 169 168
f 171 70 74
f 171 74 178
f 74 73 177
f 74 177 178
f 76 179 75
f 76 180 179
f 179 173 172
f 179 180 173
f 182 71 175
f 182 77 71
f 182 174 181
f 182 175 174
f 177 73 80
f 177 80 183
f 183 178 177
f 183 184 178
f 179 81 75
f 179 188 81
f 180 76 82
f 180 82 189
f 189 82 81
f 189 81 188
f 84 190 83
f 84 191 190
f 192 77 182
f 192 85 77
f 192 84 85
f 192 191 84
f 192 181 191
f 192 182 181
f 183 80 88
f 183 88 194
f 88 87 193
f 88 193 194
f 195 183 194
f 195 184 183
f 195 185 184
f 195 196 185
f 197 89 90
f 197 196 89
f 198 187 186
f 198 199 187
f 200 91 92
f 200 199 91
f 200 187 199
f 200 188 187
f 93 200 92
f 93 201 200
f 201 188 200
f 201 189 188
f 202 83 190
f 202 94 83
f 193 87 98
f 193 98 205
f 98 97 204
f 98 204 205
f 206 193 205
f 206 194 193
f 208 89 196
f 208 99 89
f 207 196 195
f 207 208 196
f 197 90 100
f 197 100 209
f 100 99 208
f 100 208 209
f 212 91 199
f 212 101 91
f 213 102 101
f 213 101 212
f 214 201 93
f 214 93 103
f 214 103 102
f 214 102 213
f 214 213 200
f 214 200 201
f 215 94 202
f 215 104 94
f 105 104 215
f 105 215 216
f 215 202 203
f 215 203 216
f 204 97 107
f 204 107 218
f 107 106 217
f 107 217 218
f 219 204 218
f 219 205 204
f 220 207 206
f 220 221 207
f 222 210 209
f 222 223 210
f 225 211 224
f 225 212 211
f 226 212 225
f 226 213 212
f 227 105 216
f 227 108 105
f 228 217 106
f 228 106 109
f 109 108 227
f 109 227 228
f 227 216 217
f 227 217 228
f 230 110 111
f 230 229 110
f 231 111 112
f 231 230 111
f 113 231 112
f 113 232 231
f 229 114 110
f 229 233 114
f 235 232 113
f 235 113 117
f 234 231 232
f 234 232 235
f 233 118 114
f 233 237 118
f 235 117 121
f 235 121 238
f 123 239 122
f 123 240 239
f 244 118 237
f 244 125 118
f 244 124 125
f 244 243 124
f 244 236 243
f 244 237 236
f 238 121 128
f 238 128 246
f 128 127 245
f 128 245 246
f 239 129 122
f 239 247 129
f 248 240 123
f 248 123 130
f 130 129 247
f 130 247 248
f 249 240 248
f 249 241 240
f 251 124 243
f 251 131 124
f 251 242 250
f 251 243 242
f 245 127 134
f 245 134 252
f 252 246 245
f 252 253 246
f 257 247 256
f 257 248 247
f 257 249 248
f 257 258 249
f 259 135 136
f 259 258 135
f 260 131 251
f 260 137 131
f 260 136 137
f 260 259 136
f 260 250 259
f 260 251 250
f 252 134 140
f 252 140 262
f 140 139 261
f 140 261 262
f 263 252 262
f 263 253 252
f 263 254 253
f 263 264 254
f 265 141 142
f 265 264 141
f 268 143 144
f 268 267 143
f 268 255 267
f 268 256 255
f 145 268 144
f 145 269 268
f 269 256 268
f 269 257 256
f 270 135 258
f 270 146 135
f 147 146 270
f 147 270 271
f 270 258 259
f 270 259 271
f 261 139 150
f 261 150 274
f 150 149 273
f 150 273 274
f 275 261 274
f 275 262 261
f 264 151 141
f 264 277 151
f 277 263 276
f 277 264 263
f 278 265 142
f 278 142 152
f 278 152 151
f 278 151 277
f 278 266 265
f 278 279 266
f 267 153 143
f 267 280 153
f 281 154 153
f 281 153 280
f 282 269 145
f 282 145 155
f 282 155 154
f 282 154 281
f 282 281 268
f 282 268 269
f 283 147 271
f 283 157 147
f 283 271 272
f 283 272 284
f 273 149 159
f 273 159 285
f 159 158 284
f 159 284 285
f 285 284 272
f 285 272 273
f 286 273 285
f 286 274 273
f 287 276 275
f 287 288 276
f 289 276 288
f 289 277 276
f 291 280 290
f 291 281 280
f 283 160 157
f 283 292 160
f 293 284 158
f 293 158 161
f 161 160 292
f 161 292 293
f 293 292 283
f 293 283 284
f 163 298 162
f 163 299 298
f 300 163 164
f 300 299 163
f 299 295 294
f 299 300 295
f 302 296 301
f 302 297 296
f 303 162 298
f 303 165 162
f 303 297 302
f 303 298 297
f 304 300 164
f 304 164 166
f 307 301 306
f 307 302 301
f 308 165 303
f 308 169 165
f 308 168 169
f 308 307 168
f 308 302 307
f 308 303 302
f 304 166 170
f 304 170 309
f 310 170 171
f 310 309 170
f 173 311 172
f 173 312 311
f 314 305 313
f 314 306 305
f 315 168 307
f 315 175 168
f 315 174 175
f 315 314 174
f 315 306 314
f 315 307 306
f 310 171 178
f 310 178 316
f 318 172 311
f 318 179 172
f 319 312 173
f 319 173 180
f 320 312 319
f 320 313 312
f 321 174 314
f 321 181 174
f 321 313 320
f 321 314 313
f 316 178 184
f 316 184 322
f 323 184 185
f 323 322 184
f 187 324 186
f 187 325 324
f 318 188 179
f 318 326 188
f 326 187 188
f 326 325 187
f 326 317 325
f 326 318 317
f 319 180 189
f 319 189 327
f 321 191 181
f 321 329 191
f 329 190 191
f 329 328 190
f 328 321 320
f 328 329 321
f 195 194 330
f 195 330 331
f 332 323 185
f 332 185 196
f 331 322 323
f 331 323 332
f 333 196 197
f 333 332 196
f 324 198 186
f 324 334 198
f 335 199 198
f 335 198 334
f 335 334 324
f 335 324 325
f 337 327 189
f 337 189 201
f 337 201 200
f 337 200 336
f 337 336 326
f 337 326 327
f 338 190 328
f 338 202 190
f 203 202 338
f 203 338 339
f 338 328 329
f 338 329 339
f 330 194 206
f 330 206 341
f 206 205 340
f 206 340 341
f 331 207 195
f 331 342 207
f 342 206 207
f 342 341 206
f 342 330 341
f 342 331 330
f 343 208 207
f 343 207 342
f 333 197 209
f 333 209 344
f 344 209 208
f 344 208 343
f 343 332 333
f 343 333 344
f 210 344 209
f 210 345 344
f 347 199 335
f 347 212 199
f 347 211 212
f 347 346 211
f 347 334 346
f 347 335 334
f 348 336 200
f 348 200 213
f 348 347 335
f 348 335 336
f 349 203 339
f 349 216 203
f 217 216 349
f 217 349 350
f 218 217 350
f 218 350 351
f 340 205 219
f 340 219 352
f 219 218 351
f 219 351 352
f 353 206 341
f 353 220 206
f 354 342 207
f 354 207 221
f 221 220 353
f 221 353 354
f 353 341 342
f 353 342 354
f 344 222 209
f 344 355 222
f 345 210 223
f 345 223 356
f 223 222 355
f 223 355 356
f 355 344 345
f 355 345 356
f 357 211 346
f 357 224 211
f 358 225 224
f 358 224 357
f 348 213 226
f 348 226 359
f 226 225 358
f 226 358 359
f 365 229 230
f 365 364 229
f 366 230 231
f 366 365 230
f 365 361 360
f 365 366 361
f 369 362 368
f 369 363 362
f 370 229 364
f 370 233 229
f 370 363 369
f 370 364 363
f 366 231 234
f 366 234 371
f 372 234 235
f 372 371 234
f 371 367 366
f 371 372 367
f 375 368 374
f 375 369 368
f 376 233 370
f 376 237 233
f 376 236 237
f 376 375 236
f 376 369 375
f 376 370 369
f 378 372 235
f 378 235 238
f 377 371 372
f 377 372 378
f 240 379 239
f 240 380 379
f 241 380 240
f 241 381 380
f 382 373 381
f 382 374 373
f 383 236 375
f 383 243 236
f 383 242 243
f 383 382 242
f 383 374 382
f 383 375 374
f 384 378 238
f 384 238 246
f 379 247 239
f 379 386 247
f 388 381 241
f 388 241 249
f 389 242 382
f 389 250 242
f 389 381 388
f 389 382 381
f 384 246 253
f 384 253 390
f 254 390 253
f 254 391 390
f 393 247 386
f 393 256 247
f 393 255 256
f 393 392 255
f 393 385 392
f 393 386 385
f 395 388 249
f 395 249 258
f 395 258 257
f 395 257 394
f 395 394 387
f 395 387 388
f 396 250 389
f 396 259 250
f 263 262 397
f 263 397 398
f 399 391 254
f 399 254 264
f 400 264 265
f 400 399 264
f 266 400 265
f 266 401 400
f 403 255 392
f 403 267 255
f 405 394 257
f 405 257 269
f 269 268 404
f 269 404 405
f 406 259 396
f 406 271 259
f 272 271 406
f 272 406 407
f 408 273 272
f 408 272 407
f 397 262 275
f 397 275 410
f 275 274 409
f 275 409 410
f 398 276 263
f 398 411 276
f 276 410 275
f 276 411 410
f 410 398 397
f 410 411 398
f 413 278 277
f 413 277 412
f 413 412 399
f 413 399 400
f 401 266 279
f 401 279 414
f 279 278 413
f 279 413 414
f 413 400 401
f 413 401 414
f 403 280 267
f 403 416 280
f 416 402 415
f 416 403 402
f 404 268 281
f 404 281 417
f 419 273 408
f 419 285 273
f 418 408 407
f 418 419 408
f 409 274 286
f 409 286 420
f 420 286 285
f 420 285 419
f 420 419 408
f 420 408 409
f 421 275 410
f 421 287 275
f 422 288 287
f 422 287 421
f 421 410 411
f 421 411 422
f 412 277 289
f 412 289 423
f 423 289 288
f 423 288 422
f 423 422 411
f 423 411 412
f 416 290 280
f 416 424 290
f 417 281 291
f 417 291 425
f 425 291 290
f 425 290 424
f 429 294 295
f 429 428 294
f 297 430 296
f 297 431 430
f 432 297 298
f 432 431 297
f 432 426 431
f 432 427 426
f 433 294 428
f 433 299 294
f 299 432 298
f 299 433 432
f 432 428 427
f 432 433 428
f 429 295 300
f 429 300 434
f 433 428 429
f 433 429 434
f 430 301 296
f 430 437 301
f 438 434 300
f 438 300 304
f 438 435 434
f 438 439 435
f 442 301 437
f 442 306 301
f 442 305 306
f 442 441 305
f 442 436 441
f 442 437 436
f 443 438 304
f 443 304 309
f 310 443 309
f 310 444 443
f 443 439 438
f 443 444 439
f 312 445 311
f 312 446 445
f 447 305 441
f 447 313 305
f 447 312 313
f 447 446 312
f 447 440 446
f 447 441 440
f 448 444 310
f 448 310 316
f 450 311 445
f 450 318 311
f 450 317 318
f 450 449 317
f 320 319 451
f 320 451 452
f 448 316 322
f 448 322 454
f 456 317 449
f 456 325 317
f 451 319 327
f 451 327 458
f 327 326 457
f 327 457 458
f 459 320 452
f 459 328 320
f 329 328 459
f 329 459 460
f 459 452 453
f 459 453 460
f 463 454 322
f 463 322 331
f 332 463 331
f 332 464 463
f 463 455 454
f 463 464 455
f 466 325 456
f 466 335 325
f 335 465 334
f 335 466 465
f 467 457 326
f 467 326 336
f 467 336 335
f 467 335 466
f 467 466 456
f 467 456 457
f 460 339 329
f 460 468 339
f 468 460 461
f 468 461 469
f 469 461 462
f 469 462 470
f 472 341 340
f 472 340 471
f 342 341 472
f 342 472 473
f 474 464 332
f 474 332 343
f 343 342 473
f 343 473 474
f 465 346 334
f 465 475 346
f 466 335 347
f 466 347 476
f 476 475 465
f 476 465 466
f 348 476 347
f 348 477 476
f 468 349 339
f 468 478 349
f 350 349 478
f 350 478 479
f 480 351 350
f 480 350 479
f 481 471 340
f 481 340 352
f 481 352 351
f 481 351 480
f 480 470 471
f 480 471 481
f 475 357 346
f 475 482 357
f 358 357 482
f 358 482 483
f 482 475 476
f 482 476 483
f 477 348 359
f 477 359 484
f 484 359 358
f 484 358 483
f 483 476 477
f 483 477 484
f 488 360 361
f 488 487 360
f 491 362 363
f 491 490 362
f 492 363 364
f 492 491 363
f 492 485 491
f 492 486 485
f 493 360 487
f 493 365 360
f 493 364 365
f 493 492 364
f 493 486 492
f 493 487 486
f 494 488 361
f 494 361 366
f 367 494 366
f 367 495 494
f 498 362 490
f 498 368 362
f 498 489 497
f 498 490 489
f 500 495 367
f 500 367 372
f 372 371 499
f 372 499 500
f 502 496 501
f 502 497 496
f 503 368 498
f 503 374 368
f 503 373 374
f 503 502 373
f 503 497 502
f 503 498 497
f 499 371 377
f 499 377 504
f 378 504 377
f 378 505 504
f 504 500 499
f 504 505 500
f 380 506 379
f 380 507 506
f 508 373 502
f 508 381 373
f 508 380 381
f 508 507 380
f 508 501 507
f 508 502 501
f 505 378 384
f 505 384 509
f 511 379 506
f 511 386 379
f 511 385 386
f 511 510 385
f 513 388 387
f 513 387 512
f 389 388 513
f 389 513 514
f 515 509 384
f 515 384 390
f 516 390 391
f 516 515 390
f 517 385 510
f 517 392 385
f 519 512 387
f 519 387 394
f 514 396 389
f 514 520 396
f 523 516 391
f 523 391 399
f 525 392 517
f 525 403 392
f 525 402 403
f 525 524 402
f 526 525 517
f 526 517 518
f 527 519 394
f 527 394 405
f 527 405 404
f 527 404 526
f 527 526 518
f 527 518 519
f 528 396 520
f 528 406 396
f 407 406 528
f 407 528 529
f 528 520 521
f 528 521 529
f 529 521 522
f 529 522 530
f 531 409 408
f 531 408 530
f 532 410 409
f 532 409 531
f 411 410 532
f 411 532 533
f 534 523 399
f 534 399 412
f 412 411 533
f 412 533 534
f 524 415 402
f 524 535 415
f 416 415 535
f 416 535 536
f 536 535 524
f 536 524 525
f 537 526 404
f 537 404 417
f 537 536 525
f 537 525 526
f 529 418 407
f 529 538 418
f 539 530 408
f 539 408 419
f 539 419 418
f 539 418 538
f 536 424 416
f 536 540 424
f 537 417 425
f 537 425 541
f 425 424 540
f 425 540 541
f 540 536 537
f 540 537 541
f 427 542 426
f 427 543 542
f 544 427 428
f 544 543 427
f 547 426 542
f 547 431 426
f 547 430 431
f 547 546 430
f 548 547 542
f 548 542 543
f 544 428 433
f 544 433 549
f 548 543 544
f 548 544 549
f 434 549 433
f 434 550 549
f 435 550 434
f 435 551 550
f 555 430 546
f 555 437 430
f 555 436 437
f 555 554 436
f 555 545 554
f 555 546 545
f 556 551 435
f 556 435 439
f 558 552 557
f 558 553 552
f 559 436 554
f 559 441 436
f 559 440 441
f 559 558 440
f 559 553 558
f 559 554 553
f 560 556 439
f 560 439 444
f 563 440 558
f 563 446 440
f 563 445 446
f 563 562 445
f 563 557 562
f 563 558 557
f 560 444 448
f 560 448 564
f 562 450 445
f 562 567 450
f 567 449 450
f 567 566 449
f 567 561 566
f 567 562 561
f 452 451 568
f 452 568 569
f 453 452 569
f 453 569 570
f 571 564 448
f 571 448 454
f 455 571 454
f 455 572 571
f 571 565 564
f 571 572 565
f 573 449 566
f 573 456 449
f 457 456 573
f 457 573 574
f 573 566 567
f 573 567 574
f 568 451 458
f 568 458 575
f 458 457 574
f 458 574 575
f 576 568 575
f 576 569 568
f 577 453 570
f 577 460 453
f 576 570 569
f 576 577 570
f 461 460 577
f 461 577 578
f 462 461 578
f 462 578 579
f 581 572 455
f 581 455 464
f 582 576 575
f 582 583 576
f 583 577 576
f 583 584 577
f 585 468 469
f 585 584 468
f 584 578 577
f 584 585 578
f 586 462 579
f 586 470 462
f 586 469 470
f 586 585 469
f 471 470 586
f 471 586 587
f 587 586 579
f 587 579 580
f 472 471 587
f 472 587 588
f 473 472 588
f 473 588 589
f 581 464 474
f 581 474 590
f 590 474 473
f 590 473 589
f 591 468 584
f 591 478 468
f 479 478 591
f 479 591 592
f 591 584 585
f 591 585 592
f 593 586 470
f 593 470 480
f 593 480 479
f 593 479 592
f 593 592 585
f 593 585 586
f 486 594 485
f 486 595 594
f 596 486 487
f 596 595 486
f 597 487 488
f 597 596 487
f 600 489 490
f 600 599 489
f 601 485 594
f 601 491 485
f 491 600 490
f 491 601 600
f 602 601 594
f 602 594 595
f 603 602 595
f 603 595 596
f 597 488 494
f 597 494 604
f 603 596 597
f 603 597 604
f 495 604 494
f 495 605 604
f 608 489 599
f 608 497 489
f 608 496 497
f 608 607 496
f 608 598 607
f 608 599 598
f 605 495 500
f 605 500 609
f 611 496 607
f 611 501 496
f 611 606 610
f 611 607 606
f 609 500 505
f 609 505 612
f 615 501 611
f 615 507 501
f 615 506 507
f 615 614 506
f 612 505 509
f 612 509 616
f 614 511 506
f 614 620 511
f 511 619 510
f 511 620 619
f 620 613 619
f 620 614 613
f 622 513 512
f 622 512 621
f 623 514 513
f 623 513 622
f 624 616 509
f 624 509 515
f 516 624 515
f 516 625 624
f 624 617 616
f 624 625 617
f 626 617 625
f 626 618 617
f 627 510 619
f 627 517 510
f 518 517 627
f 518 627 628
f 627 619 620
f 627 620 628
f 629 621 512
f 629 512 519
f 629 519 518
f 629 518 628
f 629 628 620
f 629 620 621
f 623 520 514
f 623 631 520
f 630 623 622
f 630 631 623
f 521 520 631
f 521 631 632
f 522 521 632
f 522 632 633
f 637 625 516
f 637 516 523
f 638 625 637
f 638 626 625
f 640 630 639
f 640 631 630
f 642 522 633
f 642 530 522
f 530 641 529
f 530 642 641
f 531 530 642
f 531 642 643
f 643 642 633
f 643 633 634
f 532 531 643
f 532 643 644
f 645 533 532
f 645 532 644
f 644 635 636
f 644 636 645
f 646 637 523
f 646 523 534
f 646 534 533
f 646 533 645
f 641 538 529
f 641 647 538
f 648 642 530
f 648 530 539
f 648 539 538
f 648 538 647
f 648 647 641
f 648 641 642
f 653 650 649
f 653 654 650
f 656 545 546
f 656 655 545
f 656 651 655
f 656 652 651
f 657 546 547
f 657 656 546
f 548 657 547
f 548 658 657
f 659 548 549
f 659 658 548
f 660 549 550
f 660 659 549
f 661 550 551
f 661 660 550
f 663 552 553
f 663 662 552
f 663 653 662
f 663 654 653
f 664 545 655
f 664 554 545
f 664 553 554
f 664 663 553
f 664 654 663
f 664 655 654
f 665 659 660
f 665 660 666
f 661 551 556
f 661 556 667
f 667 666 660
f 667 660 661
f 668 552 662
f 668 557 552
f 667 556 560
f 667 560 670
f 669 666 667
f 669 667 670
f 672 557 668
f 672 562 557
f 672 561 562
f 672 671 561
f 673 670 560
f 673 560 564
f 565 673 564
f 565 674 673
f 675 561 671
f 675 566 561
f 676 567 566
f 676 566 675
f 677 674 565
f 677 565 572
f 676 574 567
f 676 678 574
f 575 574 678
f 575 678 679
f 579 578 681
f 579 681 682
f 580 579 682
f 580 682 683
f 677 572 581
f 677 581 685
f 679 582 575
f 679 687 582
f 686 679 678
f 686 687 679
f 688 583 582
f 688 582 687
f 687 679 680
f 687 680 688
f 689 584 583
f 689 583 688
f 681 578 585
f 681 585 690
f 690 585 584
f 690 584 689
f 691 681 690
f 691 682 681
f 692 580 683
f 692 587 580
f 588 587 692
f 588 692 693
f 589 588 693
f 589 693 694
f 695 685 581
f 695 581 590
f 695 590 589
f 695 589 694
f 695 694 684
f 695 684 685
f 696 690 689
f 696 697 690
f 697 691 690
f 697 698 691
f 705 700 699
f 705 706 700
f 707 598 599
f 707 706 598
f 707 700 706
f 707 701 700
f 708 599 600
f 708 707 599
f 707 702 701
f 707 708 702
f 601 708 600
f 601 709 708
f 708 703 702
f 708 709 703
f 602 709 601
f 602 710 709
f 709 704 703
f 709 710 704
f 603 710 602
f 603 711 710
f 712 603 604
f 712 711 603
f 713 604 605
f 713 712 604
f 715 598 706
f 715 607 598
f 715 606 607
f 715 714 606
f 715 705 714
f 715 706 705
f 716 711 712
f 716 712 717
f 713 605 609
f 713 609 718
f 717 712 713
f 717 713 718
f 719 606 714
f 719 610 606
f 720 611 610
f 720 610 719
f 718 609 612
f 718 612 721
f 723 613 614
f 723 722 613
f 720 615 611
f 720 724 615
f 615 723 614
f 615 724 723
f 725 721 612
f 725 612 616
f 617 725 616
f 617 726 725
f 727 617 618
f 727 726 617
f 728 613 722
f 728 619 613
f 729 620 619
f 729 619 728
f 621 620 729
f 621 729 730
f 731 622 621
f 731 621 730
f 727 618 626
f 727 626 735
f 734 726 727
f 734 727 735
f 736 730 729
f 736 737 730
f 731 630 622
f 731 738 630
f 737 731 730
f 737 738 731
f 632 631 739
f 632 739 740
f 633 632 740
f 633 740 741
f 634 633 741
f 634 741 742
f 741 732 733
f 741 733 742
f 744 636 635
f 744 635 743
f 735 626 638
f 735 638 746
f 746 638 637
f 746 637 745
f 746 745 734
f 746 734 735
f 747 630 738
f 747 639 630
f 739 631 640
f 739 640 748
f 640 639 747
f 640 747 748
f 749 739 748
f 749 740 739
f 750 740 749
f 750 741 740
f 751 634 742
f 751 643 634
f 750 742 741
f 750 751 742
f 752 743 635
f 752 635 644
f 752 644 643
f 752 643 751
f 751 742 743
f 751 743 752
f 753 636 744
f 753 645 636
f 753 743 752
f 753 744 743
f 754 745 637
f 754 637 646
f 754 646 645
f 754 645 753
f 754 753 744
f 754 744 745
f 650 755 649
f 650 756 755
f 652 757 651
f 652 758 757
f 759 649 755
f 759 653 649
f 760 756 650
f 760 650 654
f 759 755 756
f 759 756 760
f 761 651 757
f 761 655 651
f 655 760 654
f 655 761 760
f 762 758 652
f 762 652 656
f 762 761 757
f 762 757 758
f 763 656 657
f 763 762 656
f 764 657 658
f 764 763 657
f 765 658 659
f 765 764 658
f 766 653 759
f 766 662 653
f 767 766 759
f 767 759 760
f 768 767 760
f 768 760 761
f 765 659 665
f 765 665 771
f 770 764 765
f 770 765 771
f 772 665 666
f 772 771 665
f 766 668 662
f 766 773 668
f 774 773 766
f 774 766 767
f 776 775 769
f 776 769 770
f 777 776 770
f 777 770 771
f 772 666 669
f 772 669 778
f 777 771 772
f 777 772 778
f 779 669 670
f 779 778 669
f 773 672 668
f 773 781 672
f 672 780 671
f 672 781 780
f 782 781 773
f 782 773 774
f 779 670 673
f 779 673 783
f 784 673 674
f 784 783 673
f 785 671 780
f 785 675 671
f 676 675 785
f 676 785 786
f 786 785 780
f 786 780 781
f 784 674 677
f 784 677 792
f 791 783 784
f 791 784 792
f 793 676 786
f 793 678 676
f 793 786 787
f 793 787 794
f 680 679 794
f 680 794 795
f 797 796 788
f 797 788 789
f 797 789 790
f 797 790 798
f 799 683 682
f 799 682 798
f 801 792 677
f 801 677 685
f 801 685 684
f 801 684 800
f 801 800 791
f 801 791 792
f 793 686 678
f 793 802 686
f 803 794 679
f 803 679 687
f 803 687 686
f 803 686 802
f 803 802 793
f 803 793 794
f 804 680 795
f 804 688 680
f 689 688 804
f 689 804 805
f 804 795 796
f 804 796 805
f 805 796 797
f 805 797 806
f 807 798 682
f 807 682 691
f 807 806 797
f 807 797 798
f 808 683 799
f 808 692 683
f 809 693 692
f 809 692 808
f 810 800 684
f 810 684 694
f 810 694 693
f 810 693 809
f 811 689 805
f 811 696 689
f 697 696 811
f 697 811 812
f 811 805 806
f 811 806 812
f 813 807 691
f 813 691 698
f 698 697 812
f 698 812 813
f 812 806 807
f 812 807 813
f 815 699 700
f 815 814 699
f 701 815 700
f 701 816 815
f 817 701 702
f 817 816 701
f 818 702 703
f 818 817 702
f 819 703 704
f 819 818 703
f 820 699 814
f 820 705 699
f 821 820 814
f 821 814 815
f 821 815 816
f 821 816 822
f 823 822 816
f 823 816 817
f 824 823 817
f 824 817 818
f 819 704 710
f 819 710 825
f 824 818 819
f 824 819 825
f 826 710 711
f 826 825 710
f 820 714 705
f 820 827 714
f 828 827 820
f 828 820 821
f 829 828 821
f 829 821 822
f 826 711 716
f 826 716 832
f 831 825 826
f 831 826 832
f 833 716 717
f 833 832 716
f 834 717 718
f 834 833 717
f 827 719 714
f 827 835 719
f 720 719 835
f 720 835 836
f 839 838 830
f 839 830 831
f 840 832 833
f 840 833 841
f 834 718 721
f 834 721 842
f 841 833 834
f 841 834 842
f 723 843 722
f 723 844 843
f 836 724 720
f 836 845 724
f 724 844 723
f 724 845 844
f 846 845 836
f 846 836 837
f 842 721 725
f 842 725 848
f 849 725 726
f 849 848 725
f 850 722 843
f 850 728 722
f 851 729 728
f 851 728 850
f 850 843 844
f 850 844 851
f 852 851 844
f 852 844 845
f 857 733 732
f 857 732 856
f 859 858 847
f 859 847 848
f 849 726 734
f 849 734 860
f 861 729 851
f 861 736 729
f 862 737 736
f 862 736 861
f 861 851 852
f 861 852 862
f 738 737 862
f 738 862 863
f 862 852 853
f 862 853 863
f 864 863 853
f 864 853 854
f 865 864 854
f 865 854 855
f 866 856 732
f 866 732 741
f 865 855 856
f 865 856 866
f 867 733 857
f 867 742 733
f 742 866 741
f 742 867 866
f 868 743 742
f 868 742 867
f 870 860 734
f 870 734 745
f 745 744 869
f 745 869 870
f 863 747 738
f 863 871 747
f 748 747 871
f 748 871 872
f 871 863 864
f 871 864 872
f 749 748 872
f 749 872 873
f 873 872 864
f 873 864 865
f 750 749 873
f 750 873 874
f 874 873 865
f 874 865 866
f 875 867 742
f 875 742 751
f 875 751 750
f 875 750 874
f 875 874 866
f 875 866 867
f 876 743 868
f 876 752 743
f 877 869 744
f 877 744 753
f 877 753 752
f 877 752 876
f 762 878 761
f 762 879 878
f 763 879 762
f 763 880 879
f 881 763 764
f 881 880 763
f 878 768 761
f 878 883 768
f 768 882 767
f 768 883 882
f 884 883 878
f 884 878 879
f 884 879 880
f 884 880 885
f 881 764 770
f 881 770 886
f 886 770 769
f 886 769 885
f 886 885 880
f 886 880 881
f 882 774 767
f 882 887 774
f 888 887 882
f 888 882 883
f 888 883 884
f 888 884 889
f 885 769 775
f 885 775 890
f 890 889 884
f 890 884 885
f 891 775 776
f 891 890 775
f 777 891 776
f 777 892 891
f 893 777 778
f 893 892 777
f 779 893 778
f 779 894 893
f 887 782 774
f 887 896 782
f 782 895 781
f 782 896 895
f 897 896 887
f 897 887 888
f 898 897 888
f 898 888 889
f 898 889 890
f 898 890 899
f 899 890 891
f 899 891 900
f 901 900 891
f 901 891 892
f 901 892 893
f 901 893 902
f 903 894 779
f 903 779 783
f 902 893 894
f 902 894 903
f 895 786 781
f 895 904 786
f 787 786 904
f 787 904 905
f 904 895 896
f 904 896 905
f 905 896 897
f 905 897 906
f 906 897 898
f 906 898 907
f 908 789 788
f 908 788 907
f 908 907 898
f 908 898 899
f 790 789 908
f 790 908 909
f 910 909 900
f 910 900 901
f 911 910 901
f 911 901 902
f 903 783 791
f 903 791 912
f 911 902 903
f 911 903 912
f 913 787 905
f 913 794 787
f 795 794 913
f 795 913 914
f 913 905 906
f 913 906 914
f 915 907 788
f 915 788 796
f 915 796 795
f 915 795 914
f 915 914 906
f 915 906 907
f 916 790 909
f 916 798 790
f 799 798 916
f 799 916 917
f 916 909 910
f 916 910 917
f 917 910 911
f 917 911 918
f 919 912 791
f 919 791 800
f 919 918 911
f 919 911 912
f 920 799 917
f 920 808 799
f 809 808 920
f 809 920 921
f 920 917 918
f 920 918 921
f 919 800 810
f 919 810 922
f 922 810 809
f 922 809 921
f 922 921 918
f 922 918 919
f 823 923 822
f 823 924 923
f 824 924 823
f 824 925 924
f 926 824 825
f 926 925 824
f 828 927 827
f 828 928 927
f 923 829 822
f 923 929 829
f 829 928 828
f 829 929 928
f 930 929 923
f 930 923 924
f 930 924 925
f 930 925 931
f 926 825 831
f 926 831 932
f 932 831 830
f 932 830 931
f 931 925 926
f 931 926 932
f 933 831 832
f 933 932 831
f 927 835 827
f 927 934 835
f 935 836 835
f 935 835 934
f 934 927 928
f 934 928 935
f 837 836 935
f 837 935 936
f 935 928 929
f 935 929 936
f 936 929 930
f 936 930 937
f 931 830 838
f 931 838 938
f 937 930 931
f 937 931 938
f 932 839 831
f 932 939 839
f 939 838 839
f 939 938 838
f 933 832 840
f 933 840 940
f 939 932 933
f 939 933 940
f 941 840 841
f 941 940 840
f 942 841 842
f 942 941 841
f 936 846 837
f 936 944 846
f 846 943 845
f 846 944 943
f 944 936 937
f 944 937 945
f 946 945 937
f 946 937 938
f 947 946 938
f 947 938 939
f 948 947 939
f 948 939 940
f 948 940 941
f 948 941 949
f 942 842 848
f 942 848 950
f 950 848 847
f 950 847 949
f 949 941 942
f 949 942 950
f 951 848 849
f 951 950 848
f 943 852 845
f 943 952 852
f 853 852 952
f 853 952 953
f 953 952 943
f 953 943 944
f 854 853 953
f 854 953 954
f 954 953 944
f 954 944 945
f 855 854 954
f 855 954 955
f 955 954 945
f 955 945 946
f 956 856 855
f 956 855 955
f 956 955 946
f 956 946 947
f 857 856 956
f 857 956 957
f 956 947 948
f 956 948 957
f 949 847 858
f 949 858 958
f 958 957 948
f 958 948 949
f 950 859 848
f 950 959 859
f 959 858 859
f 959 958 858
f 951 849 860
f 951 860 960
f 959 950 951
f 959 951 960
f 961 857 957
f 961 867 857
f 868 867 961
f 868 961 962
f 961 957 958
f 961 958 962
f 963 962 958
f 963 958 959
f 964 960 860
f 964 860 870
f 964 870 869
f 964 869 963
f 964 963 959
f 964 959 960
f 965 868 962
f 965 876 868
f 966 963 869
f 966 869 877
f 877 876 965
f 877 965 966
f 966 965 962
f 966 962 963
f 900 967 899
f 900 968 967
f 969 899 967
f 969 908 899
f 970 968 900
f 970 900 909
f 970 909 908
f 970 908 969
f 969 967 968
f 969 968 970
