# parsimony mesh: cplx_CPLX0-8217 (source /Users/eranagmon/code/v2e-cplx/workspace/studies/ecoli-3d/viz/3d/structures/cplx_CPLX0-8217.pdb)
# atoms: 2552  voxel: 8 Å  verts: 262  tris: 520
v 37.7363 -30.4281 -20.1641
v 38.3817 -30.4281 -20.1641
v 29.6334 -22.2614 -20.1959
v 34.6280 -25.3394 -20.3066
v 38.5674 -25.9564 -20.2688
v 29.6334 -21.7860 -20.1959
v 33.9654 -21.6904 -20.2926
v 38.3518 -21.7722 -20.2375
v -35.1370 40.2919 -20.7141
v -30.0346 38.9877 -20.7798
v -25.3954 39.7207 -20.3688
v -35.1370 42.9187 -20.7141
v -30.0346 43.0198 -20.7798
v -25.3954 42.4701 -20.3688
v 44.3699 -54.2776 -12.3806
v 46.3708 -54.2776 -12.3806
v 29.5251 -46.4996 -12.7954
v 33.9654 -47.9315 -13.4908
v 41.8081 -50.4106 -13.0988
v 46.5232 -49.9564 -12.4792
v 28.2663 -41.9564 -13.6579
v 33.9654 -41.9564 -15.7413
v 41.9654 -41.9564 -14.4555
v 46.4061 -41.9564 -12.3721
v 21.2638 -31.6678 -12.7489
v 25.6703 -34.1833 -13.9282
v 34.6280 -33.4394 -17.6820
v 41.4152 -33.4394 -17.2411
v 46.7527 -33.9564 -13.3299
v 21.2638 -28.3299 -12.7489
v 26.2439 -25.2956 -15.5875
v 32.4030 -27.5947 -18.4261
v 42.5674 -25.9564 -17.3907
v 46.6421 -25.9564 -13.3907
v 28.3831 -20.7357 -16.0648
v 33.9654 -20.0333 -16.0648
v 41.3973 -21.3033 -15.4173
v 46.0672 -21.8045 -12.3190
v -34.7601 17.3144 -13.0470
v -30.0346 16.5269 -13.5726
v -22.0346 15.9911 -13.2013
v -17.4511 16.6000 -12.5519
v -35.7829 22.0436 -13.8705
v -30.0346 22.0436 -15.8093
v -21.3781 22.6293 -13.9081
v -17.4511 20.3531 -12.5519
v -42.7185 32.9100 -12.4459
v -38.1979 30.1634 -14.2033
v -30.0346 30.0436 -17.5083
v -21.3781 29.4754 -14.9978
v -17.5005 31.7633 -12.8782
v -42.5562 38.0436 -12.3649
v -37.8960 37.7926 -16.5594
v -30.0346 34.9877 -19.2716
v -21.9763 37.8408 -16.3972
v -17.5005 35.9610 -12.8782
v -42.1281 46.0436 -12.2544
v -37.8830 46.2624 -14.8579
v -30.0346 45.6804 -16.0648
v -23.9472 43.3521 -16.0648
v -42.1477 50.1558 -12.2986
v -40.6291 50.1558 -12.2986
v 37.8497 -54.0065 -4.6743
v 41.4128 -54.1420 -7.6615
v 46.3708 -54.2776 -10.6487
v 29.3216 -46.7768 -8.0648
v 34.6960 -51.0669 -7.6305
v 41.4128 -53.2982 -7.6615
v 46.9026 -50.3124 -8.0151
v 21.9445 -37.9716 -4.1424
v 25.1552 -41.1655 -7.3114
v 47.9419 -41.9564 -8.0648
v 20.7380 -34.1833 -7.3114
v 22.8069 -37.0012 -9.4757
v 48.2283 -33.9564 -8.0648
v 20.2033 -25.7805 -8.3165
v 22.8544 -22.9966 -11.1510
v 47.8510 -25.9564 -8.0648
v 21.0532 -20.7389 -5.8177
v 25.6988 -19.7141 -8.3165
v 33.9654 -18.6678 -8.0648
v 41.9654 -19.9706 -8.0648
v 46.6973 -21.3695 -8.0648
v -35.1699 16.9083 -8.0648
v -30.0346 14.6273 -8.0648
v -22.0346 14.1729 -8.0648
v -17.3398 16.4539 -8.0648
v -37.8571 22.0436 -8.0648
v -18.2738 25.6865 -11.7297
v -17.1083 22.6293 -8.6637
v -43.8938 31.7715 -8.0648
v -40.7218 27.7715 -8.0648
v -18.2738 26.4300 -11.7297
v -17.1209 29.4754 -8.6637
v -44.7310 38.0436 -8.0648
v -18.5573 41.2943 -11.2771
v -17.1921 38.3940 -8.3922
v -42.9614 46.0436 -8.0648
v -36.7577 49.5652 -8.0648
v -30.0346 47.5849 -8.0648
v -21.5482 44.0916 -8.3922
v -17.5358 42.7640 -5.9438
v -42.1242 50.1304 -8.0648
v -40.7577 50.1304 -8.0648
v 37.8497 -54.0065 -3.0323
v 38.4556 -54.0065 -3.0323
v 28.4824 -47.2697 -0.0648
v 34.6960 -51.6570 -0.2453
v 41.4596 -53.0083 -0.2453
v 46.9828 -48.9589 -0.0648
v 13.8918 -38.1604 3.7655
v 18.7529 -39.0562 0.6334
v 24.4824 -43.1782 -0.0648
v 48.8061 -41.9564 -0.0648
v 13.8918 -37.8080 3.7655
v 17.4755 -34.6674 0.6334
v 48.7513 -33.9564 -0.0648
v 18.8596 -25.9564 -0.0648
v 47.7001 -25.9564 -0.0648
v 20.4563 -20.2165 -0.0648
v 25.9654 -17.6935 -0.0648
v 33.9654 -17.6726 -0.0648
v 41.9654 -19.1910 -0.0648
v 46.7376 -20.9518 -0.0648
v -42.2817 17.8335 3.6777
v -37.7075 16.9737 0.5807
v -30.0346 13.8563 -0.0648
v -21.2746 15.2320 0.6347
v -17.6917 17.3676 -1.5657
v -50.6512 25.2362 2.9094
v -45.3829 22.3592 2.1316
v -40.1088 22.0436 -1.5499
v -18.1013 18.1299 3.7677
v -16.9392 21.2953 0.6347
v -50.6512 27.5512 2.9094
v -46.4147 29.8495 -0.1057
v -41.3453 26.8144 -3.1208
v -16.5888 30.0436 -0.0648
v -46.5307 38.0436 -0.0648
v -18.7002 40.0061 3.0162
v -17.4684 37.6211 0.1838
v -43.5792 46.4899 -0.8360
v -38.4878 49.6486 -1.1725
v -29.9591 48.8752 -0.6228
v -21.6339 44.6277 0.1838
v -17.5358 42.7640 -2.3172
v -42.0409 50.0471 -4.0167
v -38.4878 50.1245 -1.1725
v -32.5755 50.2020 1.6718
v 28.0011 -47.0733 7.9352
v 33.9654 -49.7774 7.9352
v 42.0047 -49.3657 7.6713
v 46.5036 -48.0332 4.8286
v 13.8918 -38.1604 4.1544
v 18.1269 -40.0836 7.2667
v 24.0011 -44.4624 7.9352
v 44.5762 -41.9564 10.0891
v 47.2703 -41.9564 6.0891
v 13.8918 -37.8080 4.1544
v 17.1255 -34.6674 7.2667
v 43.9099 -33.9564 9.9528
v 47.2758 -33.9564 5.9528
v 20.3040 -25.2699 8.6385
v 25.9654 -22.3372 11.6237
v 33.9654 -23.8407 10.2947
v 41.4716 -26.4726 8.0968
v 46.4912 -25.9564 4.5872
v 20.8655 -20.8541 6.4407
v 25.9654 -19.4035 7.6237
v 33.9654 -19.3041 6.2947
v 41.9654 -20.4986 4.6035
v 46.1209 -21.2475 4.0928
v -42.2817 17.8335 4.5605
v -37.3165 17.4223 7.5104
v -30.0346 15.2409 7.9352
v -23.5896 15.8600 7.9352
v -50.6512 25.2362 5.5078
v -45.6456 22.1840 7.7008
v -39.5044 19.1318 9.8938
v -20.3984 21.2953 7.7732
v -17.1692 23.4632 4.9986
v -50.6512 27.5512 5.5078
v -48.0006 30.1481 8.0788
v -21.0271 30.0436 8.8192
v -17.3304 30.0436 4.8192
v -45.8694 38.0436 7.9352
v -36.4049 40.8027 10.8263
v -30.0346 39.5597 9.7655
v -22.0959 37.3227 7.1008
v -17.9609 34.6728 4.0505
v -43.6430 43.7045 7.9352
v -38.4881 45.8175 7.7001
v -29.9591 46.5706 5.7826
v -24.0335 44.2553 4.8178
v -35.2380 50.2020 4.5739
v -32.5755 50.2020 4.5739
v 28.9056 -46.2453 12.9550
v 33.9654 -47.0647 13.5950
v 39.3641 -47.1453 13.1285
v 20.9013 -39.6838 13.3882
v 26.4093 -41.9501 15.8383
v 33.6176 -41.7125 17.3604
v 40.5762 -41.9564 13.9519
v 20.8030 -33.1733 16.0070
v 23.9130 -35.3178 18.7215
v 34.7555 -33.9564 17.5526
v 39.9099 -33.9564 13.5526
v 13.7692 -22.2954 19.4050
v 18.8622 -24.8871 15.7614
v 25.6285 -23.7538 15.2448
v 33.3452 -28.1566 15.5317
v 38.4758 -29.4834 12.5961
v 13.7692 -21.0515 19.4050
v 17.9654 -20.6003 17.6745
v 22.7372 -21.0532 17.4512
v -34.1711 18.0068 12.0714
v -30.0346 17.5286 12.5664
v -25.3745 17.3937 12.6406
v -43.6761 24.4651 13.2974
v -37.3607 21.8881 15.3511
v -30.1426 22.0041 16.2150
v -24.9393 22.0436 13.1827
v -44.0193 30.4920 15.9525
v -40.5502 28.1242 18.6307
v -29.1096 30.0436 17.1072
v -25.0271 30.0436 13.1072
v -50.6058 41.2589 17.9235
v -46.6432 38.3728 15.5282
v -37.6411 39.1597 15.9352
v -30.7866 35.2939 15.4980
v -25.4916 34.6392 12.5399
v -50.7217 46.0436 18.1016
v -46.0745 44.9579 16.0461
v -41.6411 42.4151 15.9352
v -50.3795 50.3084 19.5021
v -49.4332 50.3084 19.5021
v 29.2463 -38.8831 20.1902
v 30.7191 -38.8831 20.1902
v 21.9555 -29.9845 19.9410
v 26.3340 -33.1733 20.1862
v 30.7555 -33.9564 20.2446
v 13.7692 -22.2954 20.2397
v 18.7595 -25.3598 20.5515
v 25.6285 -26.6492 20.4634
v 30.2651 -29.7777 20.0927
v 13.7692 -21.0515 20.2397
v 17.9654 -20.6003 20.7013
v 22.7372 -21.0532 20.6522
v -35.2169 24.6444 20.4898
v -32.8812 24.6444 20.4898
v -42.3644 33.4575 20.1753
v -37.9440 30.4920 20.4489
v -33.1096 30.0436 20.3972
v -50.6058 41.2589 20.6537
v -45.4324 38.3728 20.6160
v -38.6976 37.2810 20.2218
v -33.9546 34.1060 19.9967
v -50.7217 46.0436 20.8093
v -46.4737 45.4584 20.7401
v -41.8064 42.4016 20.1113
v -50.3795 50.3084 20.3821
v -49.4332 50.3084 20.3821
f 5 1 4
f 5 2 1
f 7 3 6
f 7 4 3
f 8 4 7
f 8 5 4
f 13 9 12
f 13 10 9
f 13 11 10
f 13 14 11
f 20 15 19
f 20 16 15
f 22 17 21
f 22 18 17
f 23 18 22
f 23 19 18
f 23 20 19
f 23 24 20
f 27 21 26
f 27 22 21
f 2 27 1
f 2 28 27
f 28 22 27
f 28 23 22
f 29 23 28
f 29 24 23
f 30 26 25
f 30 31 26
f 32 1 27
f 32 4 1
f 32 3 4
f 32 31 3
f 32 26 31
f 32 27 26
f 33 28 2
f 33 2 5
f 33 29 28
f 33 34 29
f 35 3 31
f 35 6 3
f 36 7 6
f 36 6 35
f 33 5 8
f 33 8 37
f 8 7 36
f 8 36 37
f 37 34 33
f 37 38 34
f 44 39 43
f 44 40 39
f 44 41 40
f 44 45 41
f 46 41 45
f 46 42 41
f 49 43 48
f 49 44 43
f 50 44 49
f 50 45 44
f 53 47 52
f 53 48 47
f 54 9 10
f 54 53 9
f 54 48 53
f 54 49 48
f 11 54 10
f 11 55 54
f 54 50 49
f 54 55 50
f 56 50 55
f 56 51 50
f 53 12 9
f 53 58 12
f 58 52 57
f 58 53 52
f 59 13 12
f 59 12 58
f 60 55 11
f 60 11 14
f 14 13 59
f 14 59 60
f 62 57 61
f 62 58 57
f 65 15 16
f 65 64 15
f 18 66 17
f 18 67 66
f 68 15 64
f 68 19 15
f 19 67 18
f 19 68 67
f 68 63 67
f 68 64 63
f 65 16 20
f 65 20 69
f 68 64 65
f 68 65 69
f 66 21 17
f 66 71 21
f 72 69 20
f 72 20 24
f 74 21 71
f 74 26 21
f 74 25 26
f 74 73 25
f 74 70 73
f 74 71 70
f 75 72 24
f 75 24 29
f 76 25 73
f 76 30 25
f 77 31 30
f 77 30 76
f 78 75 29
f 78 29 34
f 77 35 31
f 77 80 35
f 79 77 76
f 79 80 77
f 81 36 35
f 81 35 80
f 37 36 81
f 37 81 82
f 78 34 38
f 78 38 83
f 38 37 82
f 38 82 83
f 85 39 40
f 85 84 39
f 41 85 40
f 41 86 85
f 42 86 41
f 42 87 86
f 88 39 84
f 88 43 39
f 87 42 46
f 87 46 90
f 46 45 89
f 46 89 90
f 92 43 88
f 92 48 43
f 92 47 48
f 92 91 47
f 93 89 45
f 93 45 50
f 51 93 50
f 51 94 93
f 94 89 93
f 94 90 89
f 95 47 91
f 95 52 47
f 94 51 56
f 94 56 97
f 56 55 96
f 56 96 97
f 98 52 95
f 98 57 52
f 100 59 58
f 100 58 99
f 96 55 60
f 96 60 101
f 60 59 100
f 60 100 101
f 102 96 101
f 102 97 96
f 103 57 98
f 103 61 57
f 99 58 62
f 99 62 104
f 104 62 61
f 104 61 103
f 106 63 64
f 106 105 63
f 108 63 105
f 108 67 63
f 67 107 66
f 67 108 107
f 106 64 68
f 106 68 109
f 109 108 105
f 109 105 106
f 69 109 68
f 69 110 109
f 113 66 107
f 113 71 66
f 113 70 71
f 113 112 70
f 110 69 72
f 110 72 114
f 116 70 112
f 116 73 70
f 116 111 115
f 116 112 111
f 114 72 75
f 114 75 117
f 118 73 116
f 118 76 73
f 119 117 75
f 119 75 78
f 118 79 76
f 118 120 79
f 121 80 79
f 121 79 120
f 81 80 121
f 81 121 122
f 123 82 81
f 123 81 122
f 119 78 83
f 119 83 124
f 124 83 82
f 124 82 123
f 127 84 85
f 127 126 84
f 86 127 85
f 86 128 127
f 129 86 87
f 129 128 86
f 132 84 126
f 132 88 84
f 132 125 131
f 132 126 125
f 129 87 90
f 129 90 134
f 133 128 129
f 133 129 134
f 136 130 135
f 136 131 130
f 137 88 132
f 137 92 88
f 137 91 92
f 137 136 91
f 137 131 136
f 137 132 131
f 138 134 90
f 138 90 94
f 139 91 136
f 139 95 91
f 138 94 97
f 138 97 141
f 142 95 139
f 142 98 95
f 144 100 99
f 144 99 143
f 145 101 100
f 145 100 144
f 146 141 97
f 146 97 102
f 146 102 101
f 146 101 145
f 146 145 140
f 146 140 141
f 147 98 142
f 147 103 98
f 148 143 99
f 148 99 104
f 104 103 147
f 104 147 148
f 147 142 143
f 147 143 148
f 149 143 148
f 149 144 143
f 151 107 108
f 151 150 107
f 152 108 109
f 152 151 108
f 153 109 110
f 153 152 109
f 155 111 112
f 155 154 111
f 150 113 107
f 150 156 113
f 113 155 112
f 113 156 155
f 153 110 114
f 153 114 158
f 157 152 153
f 157 153 158
f 154 115 111
f 154 159 115
f 160 116 115
f 160 115 159
f 160 159 154
f 160 154 155
f 162 158 114
f 162 114 117
f 162 161 157
f 162 157 158
f 160 118 116
f 160 163 118
f 167 162 117
f 167 117 119
f 166 161 162
f 166 162 167
f 168 118 163
f 168 120 118
f 121 120 168
f 121 168 169
f 168 163 164
f 168 164 169
f 170 122 121
f 170 121 169
f 169 164 165
f 169 165 170
f 171 123 122
f 171 122 170
f 171 170 165
f 171 165 166
f 172 167 119
f 172 119 124
f 172 124 123
f 172 123 171
f 171 166 167
f 171 167 172
f 126 173 125
f 126 174 173
f 175 126 127
f 175 174 126
f 176 127 128
f 176 175 127
f 173 131 125
f 173 178 131
f 131 177 130
f 131 178 177
f 179 178 173
f 179 173 174
f 176 128 133
f 176 133 180
f 181 133 134
f 181 180 133
f 177 135 130
f 177 182 135
f 183 136 135
f 183 135 182
f 183 182 177
f 183 177 178
f 181 134 138
f 181 138 185
f 184 180 181
f 184 181 185
f 183 139 136
f 183 186 139
f 190 185 138
f 190 138 141
f 190 141 140
f 190 140 189
f 190 189 184
f 190 184 185
f 191 139 186
f 191 142 139
f 192 143 142
f 192 142 191
f 193 192 187
f 193 187 188
f 194 189 140
f 194 140 145
f 194 145 144
f 194 144 193
f 194 193 188
f 194 188 189
f 195 143 192
f 195 148 143
f 196 193 144
f 196 144 149
f 149 148 195
f 149 195 196
f 195 192 193
f 195 193 196
f 151 197 150
f 151 198 197
f 199 151 152
f 199 198 151
f 197 156 150
f 197 201 156
f 156 200 155
f 156 201 200
f 202 201 197
f 202 197 198
f 199 152 157
f 199 157 203
f 203 202 198
f 203 198 199
f 200 160 155
f 200 204 160
f 205 204 200
f 205 200 201
f 203 157 161
f 203 161 207
f 206 202 203
f 206 203 207
f 204 163 160
f 204 209 163
f 164 163 209
f 164 209 210
f 165 164 210
f 165 210 211
f 212 207 161
f 212 161 166
f 212 166 165
f 212 165 211
f 212 211 206
f 212 206 207
f 214 208 213
f 214 209 208
f 215 209 214
f 215 210 209
f 175 216 174
f 175 217 216
f 218 175 176
f 218 217 175
f 216 179 174
f 216 220 179
f 179 219 178
f 179 220 219
f 221 220 216
f 221 216 217
f 218 176 180
f 218 180 222
f 222 221 217
f 222 217 218
f 219 183 178
f 219 223 183
f 224 223 219
f 224 219 220
f 222 180 184
f 222 184 226
f 225 221 222
f 225 222 226
f 223 186 183
f 223 228 186
f 230 188 187
f 230 187 229
f 231 226 184
f 231 184 189
f 231 189 188
f 231 188 230
f 231 230 225
f 231 225 226
f 228 191 186
f 228 233 191
f 233 227 232
f 233 228 227
f 234 229 187
f 234 187 192
f 234 192 191
f 234 191 233
f 236 232 235
f 236 233 232
f 202 237 201
f 202 238 237
f 237 205 201
f 237 240 205
f 205 239 204
f 205 240 239
f 238 202 206
f 238 206 241
f 241 240 237
f 241 237 238
f 239 209 204
f 239 243 209
f 243 208 209
f 243 242 208
f 244 243 239
f 244 239 240
f 245 241 206
f 245 206 211
f 245 211 210
f 245 210 244
f 245 244 240
f 245 240 241
f 242 213 208
f 242 246 213
f 247 214 213
f 247 213 246
f 247 246 242
f 247 242 243
f 248 244 210
f 248 210 215
f 248 215 214
f 248 214 247
f 248 247 243
f 248 243 244
f 221 249 220
f 221 250 249
f 249 224 220
f 249 252 224
f 224 251 223
f 224 252 251
f 250 221 225
f 250 225 253
f 253 252 249
f 253 249 250
f 251 228 223
f 251 255 228
f 255 227 228
f 255 254 227
f 256 255 251
f 256 251 252
f 257 253 225
f 257 225 230
f 257 230 229
f 257 229 256
f 257 256 252
f 257 252 253
f 254 232 227
f 254 258 232
f 259 258 254
f 259 254 255
f 260 256 229
f 260 229 234
f 260 234 233
f 260 233 259
f 260 259 255
f 260 255 256
f 258 235 232
f 258 261 235
f 259 233 236
f 259 236 262
f 236 235 261
f 236 261 262
f 262 261 258
f 262 258 259
