# parsimony mesh: cplx_CPLX0-801 (source /Users/eranagmon/code/v2e-cplx/workspace/studies/ecoli-3d/viz/3d/structures/cplx_CPLX0-801.pdb)
# atoms: 1664  voxel: 16 Å  verts: 79  tris: 148
v 54.2736 -68.6457 -8.4255
v 62.8288 -69.9516 -10.4834
v 78.8288 -71.8471 -11.9139
v 89.3151 -71.1731 -10.3327
v 54.2736 -65.5224 -8.4255
v 61.8199 -60.1484 -11.5022
v 78.8288 -60.0875 -14.8446
v 92.4625 -60.0875 -10.8103
v 66.4806 -50.4974 -10.5581
v 78.8288 -49.9078 -10.9793
v 91.8541 -50.7714 -9.4467
v -57.2546 59.8993 -8.0667
v -57.1074 59.8993 -8.0667
v -89.2052 75.8188 -8.0880
v -81.1712 73.2695 -9.5242
v -63.6212 67.4543 -10.4610
v -50.7329 67.9903 -10.0963
v -40.2048 73.3754 -9.3687
v -89.2052 75.9644 -8.0880
v -81.1712 78.5805 -9.5242
v -65.1712 81.8377 -11.0506
v -49.1712 81.5407 -10.5946
v -40.2048 79.0219 -9.3687
v 37.9065 -86.7233 6.4912
v 40.6942 -86.7233 6.4912
v 37.9065 -82.6057 6.4912
v 47.4839 -75.6257 -0.2205
v 62.9130 -70.5020 -0.9788
v 78.8288 -74.3007 -0.0486
v 90.1397 -71.7012 -0.0486
v 54.2736 -65.5224 -6.9322
v 59.9989 -60.1484 -0.9788
v 82.6446 -54.6482 5.3928
v 92.4927 -60.0239 0.0163
v 67.1861 -50.6637 -0.0486
v 77.9183 -50.1588 0.0163
v 91.8541 -50.7714 -5.2738
v -90.6294 58.5859 6.4456
v -88.0002 58.5859 6.4456
v -57.2546 59.8993 -7.9916
v -57.1074 59.8993 -7.9916
v -89.9173 68.7241 -0.7452
v -83.1254 68.9814 1.4290
v -63.6212 66.0441 -1.6144
v -50.7132 68.4734 -1.2169
v -40.2048 73.3754 -5.1090
v -89.2052 75.9644 -7.9360
v -80.2006 78.5393 -1.5810
v -65.1712 83.3417 -0.0486
v -49.4598 81.1258 0.1152
v -40.2048 79.0219 -5.1090
v 37.9065 -86.7233 9.9830
v 40.6942 -86.7233 9.9830
v 37.9065 -82.6057 9.9830
v 40.6942 -82.6057 9.9830
v 68.3025 -69.6263 9.1404
v 78.8288 -70.5411 9.6597
v 88.7570 -69.8201 9.0401
v 68.5525 -60.0875 9.0921
v 77.9183 -60.0239 9.5172
v 88.7570 -65.3149 9.0401
v 70.3200 -51.7792 8.2833
v 71.9780 -51.7792 8.2833
v -105.9845 41.5639 18.9712
v -104.3621 41.5639 18.9712
v -105.9845 44.7779 18.9712
v -97.4958 51.6819 13.8337
v -88.0002 58.5859 8.6963
v -90.6294 61.6294 8.6963
v -81.1102 68.4331 8.5200
v -65.1712 74.1498 8.6479
v -54.9856 74.2380 8.4876
v -74.2202 76.7332 8.3438
v -65.1712 77.4165 8.6479
v -54.9856 77.0972 8.4876
v -105.9845 41.5639 25.2369
v -104.3621 41.5639 25.2369
v -105.9845 44.7779 25.2369
v -104.3621 44.7779 25.2369
f 5 2 1
f 5 6 2
f 7 2 6
f 7 3 2
f 7 4 3
f 7 8 4
f 9 7 6
f 9 10 7
f 11 7 10
f 11 8 7
f 16 13 12
f 16 17 13
f 19 15 14
f 19 20 15
f 21 15 20
f 21 16 15
f 21 17 16
f 21 22 17
f 22 18 17
f 22 23 18
f 26 25 24
f 26 27 25
f 28 1 2
f 28 27 1
f 3 28 2
f 3 29 28
f 4 29 3
f 4 30 29
f 31 1 27
f 31 5 1
f 6 5 31
f 6 31 32
f 31 27 28
f 31 28 32
f 34 30 4
f 34 4 8
f 32 9 6
f 32 35 9
f 36 10 9
f 36 9 35
f 37 34 8
f 37 8 11
f 37 11 10
f 37 10 36
f 37 36 33
f 37 33 34
f 13 40 12
f 13 41 40
f 15 42 14
f 15 43 42
f 42 39 38
f 42 43 39
f 40 16 12
f 40 44 16
f 44 15 16
f 44 43 15
f 41 13 17
f 41 17 45
f 44 40 41
f 44 41 45
f 46 17 18
f 46 45 17
f 47 14 42
f 47 19 14
f 20 19 47
f 20 47 48
f 47 42 43
f 47 43 48
f 21 20 48
f 21 48 49
f 22 21 49
f 22 49 50
f 46 18 23
f 46 23 51
f 51 23 22
f 51 22 50
f 50 45 46
f 50 46 51
f 25 52 24
f 25 53 52
f 52 26 24
f 52 54 26
f 55 53 25
f 55 25 27
f 55 27 26
f 55 26 54
f 54 52 53
f 54 53 55
f 29 56 28
f 29 57 56
f 58 29 30
f 58 57 29
f 59 28 56
f 59 32 28
f 60 59 56
f 60 56 57
f 61 58 30
f 61 30 34
f 61 34 33
f 61 33 60
f 61 60 57
f 61 57 58
f 59 35 32
f 59 62 35
f 63 60 33
f 63 33 36
f 63 36 35
f 63 35 62
f 63 62 59
f 63 59 60
f 66 65 64
f 66 67 65
f 68 38 39
f 68 67 38
f 69 38 67
f 69 42 38
f 70 68 39
f 70 39 43
f 43 42 69
f 43 69 70
f 69 67 68
f 69 68 70
f 71 43 44
f 71 70 43
f 72 44 45
f 72 71 44
f 73 43 70
f 73 48 43
f 49 48 73
f 49 73 74
f 73 70 71
f 73 71 74
f 72 45 50
f 72 50 75
f 75 50 49
f 75 49 74
f 75 74 71
f 75 71 72
f 65 76 64
f 65 77 76
f 76 66 64
f 76 78 66
f 79 77 65
f 79 65 67
f 79 67 66
f 79 66 78
f 78 76 77
f 78 77 79
