# parsimony mesh: cplx_CPLX0-246 (source /Users/eranagmon/code/v2e-cplx/workspace/studies/ecoli-3d/viz/3d/structures/cplx_CPLX0-246.pdb)
# atoms: 6254  voxel: 8 Å  verts: 533  tris: 1068
v 25.6901 -43.7860 -31.0867
v 27.9761 -43.7860 -31.0867
v 41.4695 -43.3917 -30.8634
v 42.7702 -43.3917 -30.8634
v 25.6901 -41.7902 -31.0867
v 27.9761 -41.7902 -31.0867
v 41.4695 -41.7712 -30.8634
v 42.7702 -41.7712 -30.8634
v -61.8094 44.6643 -30.7586
v -61.2758 44.6643 -30.7586
v -62.1016 48.8002 -30.7819
v -58.1903 49.2171 -30.9680
v -51.3000 52.1618 -30.9998
v -62.0342 52.9008 -30.7130
v -57.5622 53.1833 -30.9628
v -51.3000 53.2104 -30.9998
v 57.9641 -59.7911 -22.9489
v 58.9427 -59.7911 -22.9489
v 26.0475 -51.6187 -23.2035
v 27.6563 -51.6187 -23.2035
v 49.1119 -51.7725 -23.0433
v 54.9536 -54.7434 -23.2182
v 59.1102 -55.1998 -23.0621
v 24.9366 -46.7515 -26.1796
v 30.4829 -46.8575 -26.4258
v 38.6568 -45.1644 -26.8463
v 45.9410 -46.8057 -25.8242
v 54.8801 -46.8654 -23.4119
v 58.8295 -49.3091 -22.8962
v 23.5761 -39.1540 -26.6634
v 30.5608 -39.1540 -28.7080
v 38.6568 -39.1426 -28.8096
v 45.5621 -39.3659 -26.3921
v 52.5083 -42.2939 -23.2718
v 23.7800 -34.6867 -24.0098
v 30.4378 -33.9675 -24.9708
v 38.4378 -34.1764 -25.0978
v 43.0206 -34.9652 -24.1792
v -62.7957 43.2954 -26.6436
v -58.1903 43.3076 -26.0894
v -49.5622 43.6421 -23.6756
v -41.5622 42.2626 -23.7605
v -35.9966 42.4796 -23.1665
v -71.0059 51.2803 -24.4850
v -66.0323 48.6883 -26.9485
v -55.9425 46.8284 -28.3866
v -49.0049 49.2171 -28.1285
v -41.6840 48.5791 -24.9964
v -35.9966 45.7650 -23.1665
v -71.0059 53.7812 -24.4850
v -65.0454 54.2201 -26.9485
v -57.5622 55.3005 -26.6436
v -49.0049 54.3586 -27.3029
v -44.4319 53.4493 -25.0757
v 57.1771 -67.2231 -14.6887
v 58.4638 -67.2231 -14.6887
v 41.3186 -59.3224 -14.8029
v 46.4378 -61.2284 -15.3782
v 54.9039 -63.4532 -17.7429
v 60.1660 -62.7546 -17.8707
v 26.0475 -51.6187 -21.0719
v 30.1347 -52.5019 -18.6037
v 38.5663 -55.7109 -16.6058
v 46.4422 -54.7434 -19.4027
v 52.6308 -57.1059 -20.7972
v 63.5854 -54.8206 -17.8796
v 66.6119 -51.9011 -14.7036
v 24.9106 -47.3642 -18.5006
v 30.1347 -50.0347 -18.6037
v 38.4378 -49.5116 -20.9768
v 43.7785 -50.2197 -21.5959
v 57.8416 -43.9758 -22.2343
v 61.8728 -46.8654 -19.9369
v 68.3883 -47.1998 -15.5672
v 18.2082 -35.5386 -17.2862
v 20.3501 -38.6031 -19.4291
v 46.9113 -37.7339 -18.6436
v 54.8801 -40.8493 -19.1980
v 62.1188 -38.8220 -17.1354
v 71.0938 -39.6214 -15.9311
v 74.5985 -37.2358 -14.8937
v 18.2082 -34.9112 -17.2862
v 21.6432 -34.4424 -19.4291
v 30.4378 -33.1601 -18.6436
v 38.4378 -33.6940 -18.6436
v 42.9113 -35.0034 -18.6436
v 64.5728 -34.5194 -15.3678
v 70.4378 -34.5549 -15.3743
v 74.5985 -35.0203 -14.8937
v -37.5730 20.7927 -14.6522
v -37.5376 20.7927 -14.6522
v -45.5896 28.7846 -14.6615
v -40.7687 25.5909 -14.7387
v -34.3474 25.3868 -15.4550
v -29.3322 28.4445 -15.8554
v -61.8610 36.3842 -15.8212
v -57.5622 35.8208 -16.3342
v -48.7786 33.0663 -16.1755
v -41.5622 32.8002 -17.6021
v -33.5622 32.8002 -19.0052
v -27.9931 32.8002 -17.1540
v -63.4006 40.4780 -18.5501
v -57.5622 39.0364 -20.3342
v -49.5622 39.6421 -20.5450
v -41.5622 38.2626 -21.4898
v -33.4228 40.2078 -21.7547
v -25.2449 40.7987 -17.4511
v -20.9929 43.4643 -15.1405
v -71.2705 50.7052 -18.6436
v -67.6361 46.7052 -18.6436
v -40.0682 50.8251 -18.6436
v -33.4624 48.8168 -18.6882
v -25.5622 48.8002 -17.8945
v -19.8626 48.8002 -15.8276
v -71.2705 54.8879 -18.6436
v -65.4473 58.4414 -18.2298
v -58.0920 58.3215 -18.2298
v -49.5622 55.4268 -18.6436
v -44.0682 53.4890 -18.6436
v -30.9281 54.0049 -15.3527
v -25.5622 54.3973 -15.9868
v -19.8654 53.7251 -15.7254
v -62.7041 61.0086 -15.2873
v -61.1119 61.0086 -15.2873
v 56.1278 -67.5628 -10.6436
v 59.0410 -67.5628 -10.6436
v 26.2806 -59.3294 -6.9882
v 30.4378 -59.7939 -8.4388
v 38.5663 -59.9338 -11.0730
v 46.4378 -63.0297 -10.6436
v 52.1278 -66.6090 -10.6436
v 63.5300 -63.0228 -11.2273
v 67.6863 -60.2382 -8.9498
v 18.2605 -51.3744 -6.8498
v 23.1435 -54.5045 -8.1412
v 30.1430 -55.7110 -12.4469
v 35.9853 -58.7184 -14.0259
v 66.1206 -57.2344 -14.2831
v 69.8158 -54.2998 -10.5779
v 74.5175 -51.3651 -6.8728
v 17.7772 -47.1998 -7.4132
v 22.7632 -47.3642 -11.6264
v 27.2799 -50.1404 -13.9222
v 72.3883 -47.1998 -10.8331
v 74.5006 -47.1998 -6.8331
v 9.6791 -36.1659 -7.4783
v 15.3045 -38.5189 -10.1376
v 20.3134 -40.8719 -12.7969
v 33.7366 -35.9454 -7.6720
v 35.4999 -35.9454 -7.6720
v 47.5203 -37.1564 -10.6436
v 54.4378 -38.6481 -10.6436
v 60.3093 -36.6915 -10.6436
v 74.1977 -42.5692 -12.0004
v 74.8403 -39.6214 -9.8577
v 9.2358 -31.1998 -7.6167
v 15.4849 -31.1366 -9.9590
v 22.4378 -31.5217 -10.6436
v 30.8171 -33.5634 -10.4606
v 38.2750 -34.5167 -10.4606
v 43.5203 -34.8079 -10.6436
v 64.3093 -34.1703 -10.6436
v 70.4378 -33.5354 -10.6436
v 74.9378 -34.5649 -10.6436
v 9.5938 -25.1697 -7.1064
v 12.7616 -25.1697 -7.1064
v -37.5730 20.7927 -14.6145
v -37.5376 20.7927 -14.6145
v -46.4049 28.5063 -10.6436
v -40.7687 24.5031 -11.4262
v -34.3474 23.6540 -11.4262
v -28.1145 27.4448 -10.6436
v -63.4304 35.2720 -10.6436
v -57.5622 33.0773 -10.6436
v -50.4049 30.6055 -10.6436
v -24.0867 32.4898 -10.9748
v -20.0850 34.9496 -8.5289
v -71.0720 42.7039 -7.9277
v -67.0773 40.3425 -10.6141
v -22.3667 38.1309 -13.8622
v -18.8610 40.7987 -10.9748
v -78.4221 51.3201 -7.4610
v -73.4008 48.7568 -10.3610
v -68.2632 46.1935 -13.2610
v -38.9984 52.0311 -10.6436
v -34.8114 52.0311 -10.6436
v -16.3378 48.8002 -10.6436
v -79.3759 56.8002 -7.8759
v -73.2626 57.0818 -11.6150
v -65.2299 60.1424 -10.4717
v -58.0920 58.4746 -10.4518
v -49.5622 55.0163 -10.6436
v -42.9984 53.5846 -10.6436
v -30.8114 53.7072 -10.6436
v -25.5622 55.8925 -10.6436
v -18.6064 54.9855 -10.6436
v -79.5841 64.8002 -7.7226
v -73.9150 64.2403 -8.2923
v -65.2299 61.1045 -10.4717
v -61.1119 61.0086 -12.9906
v -78.6997 69.5056 -7.2565
v -76.8169 69.5056 -7.2565
v 56.6186 -67.6605 -5.0713
v 59.2161 -67.6605 -5.0713
v 25.7861 -59.8091 -2.6436
v 30.4378 -61.2158 -2.6436
v 38.4378 -61.3192 -2.6436
v 46.4378 -61.6374 -2.6436
v 54.1463 -64.8130 -2.5002
v 62.1048 -64.9593 -2.5002
v 70.3869 -60.7644 -1.9483
v 74.4983 -59.2636 1.1820
v 17.8508 -51.9070 -2.6436
v 21.7861 -55.9070 -2.6436
v 73.0196 -56.6984 -4.1513
v 75.2006 -54.4990 -1.9483
v 16.9322 -47.1998 -2.6436
v 78.3667 -46.7260 -2.5219
v 83.3610 -43.7436 0.2259
v 9.6791 -36.1659 -4.1781
v 13.0171 -38.9794 -1.9643
v 33.7366 -35.9454 -5.8667
v 35.4999 -35.9454 -5.8667
v 48.0197 -36.6320 -2.6436
v 54.4378 -37.8712 -2.6436
v 60.0201 -36.4389 -2.6436
v 78.8203 -39.1998 -3.7214
v 83.3234 -39.1998 0.2786
v 8.4521 -31.6937 -1.9643
v 14.0636 -31.0751 -1.0155
v 22.4378 -30.1823 -2.6436
v 30.8171 -32.9032 -2.9775
v 38.2750 -34.2766 -2.9775
v 44.0197 -34.7347 -2.6436
v 64.3901 -31.5844 -1.9686
v 69.7538 -30.6746 -1.9686
v 77.9414 -34.1365 -2.0276
v 82.6955 -34.9440 1.0498
v 8.5247 -25.2046 -2.6436
v 12.6402 -25.2046 -2.6436
v 66.2485 -27.0833 1.1481
v 66.6311 -27.0833 1.1481
v -62.3164 28.2691 -0.0118
v -57.5622 27.7488 -1.2435
v -49.0548 28.1767 -3.1354
v -41.5468 27.5392 -2.7747
v -33.5622 26.0277 -2.6436
v -26.5823 27.3218 -2.6436
v -70.0715 36.2895 -0.3858
v -65.7020 33.0674 -2.8655
v -57.5622 30.0567 -5.2435
v -49.0548 29.4352 -3.1354
v -44.2032 29.4398 -0.1955
v -22.5823 29.5933 -2.6436
v -18.5026 33.5933 -2.6436
v -71.3559 40.3425 -2.8889
v -69.0876 37.3706 -5.7191
v -14.4412 40.0363 -3.3455
v -9.5622 42.5993 -0.9082
v -5.1232 44.4722 0.8401
v -78.4221 51.3201 -4.5953
v -75.5371 48.7121 -2.2146
v -37.6722 52.7063 -6.5380
v -35.1952 52.7063 -6.5380
v -14.0374 48.8002 -6.0854
v -9.4824 48.6164 -1.7068
v -5.1232 45.8272 0.8401
v -85.8723 60.4555 0.4939
v -81.4380 57.0937 -2.0507
v -73.9515 56.8641 0.3415
v -65.2783 59.7802 -2.6905
v -57.5622 57.9345 -2.6436
v -49.5622 55.2167 -2.6436
v -40.8282 53.7266 -3.3802
v -32.9420 54.2505 -3.3802
v -24.9847 58.2054 -2.1440
v -17.6665 57.0320 -2.6036
v -12.0958 53.9415 -0.7295
v -85.8723 61.6005 0.4939
v -81.5768 64.4577 -2.2793
v -73.8398 64.2577 -2.5537
v -67.7557 61.2004 -5.3884
v -21.9330 60.8874 0.8557
v -21.3483 60.8874 0.8557
v -78.6997 69.5056 -5.0524
v -76.8169 69.5056 -5.0524
v 25.7261 -59.8826 2.6744
v 30.4357 -60.8213 5.3472
v 38.4378 -61.8260 5.3564
v 46.4378 -60.7205 5.3564
v 54.4378 -61.5145 5.3564
v 62.4378 -62.4989 5.3564
v 70.5943 -60.3530 4.9895
v 74.4983 -59.2636 2.0782
v 17.8324 -51.9682 2.7919
v 22.6430 -54.9999 5.3998
v 27.7677 -58.0316 8.0077
v 73.3652 -58.5833 7.4116
v 75.7748 -55.6299 4.9895
v 17.5929 -47.1998 3.9169
v 19.6282 -47.1998 7.9169
v 80.0637 -47.7169 5.3564
v 83.1874 -43.7169 5.3564
v 16.1896 -39.1998 3.7271
v 20.1703 -39.1998 7.7271
v 48.4855 -36.1188 2.1290
v 54.4378 -36.1642 2.2409
v 58.8538 -35.5667 1.7631
v 83.3922 -39.1998 5.3564
v 8.7310 -29.3564 1.6119
v 13.5059 -31.6399 2.0754
v 22.7448 -33.3068 5.2659
v 30.4378 -32.4016 5.3564
v 38.4378 -33.0157 5.3564
v 46.0665 -34.0909 5.0200
v 54.4378 -34.1029 6.2409
v 62.5512 -31.5807 4.3889
v 69.7538 -30.3615 4.7514
v 78.4378 -33.8722 5.3564
v 82.6426 -34.9971 5.3564
v 8.7310 -26.5695 1.6119
v 11.0505 -26.5695 1.6119
v 66.2485 -27.0833 1.6814
v 66.6311 -27.0833 1.6814
v -62.3164 28.2691 3.3003
v -57.7889 27.7203 5.7227
v -50.7803 27.8486 5.3564
v -39.4930 28.4240 5.3564
v -33.1228 28.1873 5.9073
v -27.2893 28.2803 3.6079
v -70.0715 36.2895 2.5577
v -65.3845 32.8990 5.5957
v -60.6067 29.5085 8.6336
v -46.7803 29.7983 5.3564
v -43.4930 29.7983 5.3564
v -30.1632 28.9869 8.9412
v -24.9985 29.7476 5.9073
v -16.8008 34.3421 4.8040
v -13.4654 36.6443 7.1024
v -70.7357 41.1232 5.2772
v -68.4525 38.6719 7.8911
v -13.6266 36.8603 1.7691
v -10.2436 40.6663 4.5403
v -5.1232 44.4722 1.9782
v -72.4778 48.8002 5.3564
v -7.4322 48.6164 4.9295
v -5.1232 45.8272 1.9782
v -85.8723 60.4555 1.5934
v -81.5622 59.2404 1.7845
v -73.4514 56.4275 3.7852
v -65.5622 57.5068 5.3564
v -57.5175 59.3734 5.6107
v -49.9605 57.6894 5.6107
v -41.5622 55.7308 5.3564
v -33.5622 57.0732 5.3564
v -26.0990 59.0950 5.3564
v -17.1692 58.5542 5.3564
v -10.8050 54.5542 5.3564
v -85.8723 61.6005 1.5934
v -81.5622 62.2865 1.7845
v -76.1961 61.9817 1.6902
v -54.8210 61.0916 8.4469
v -52.8926 61.0916 8.4469
v -22.0990 60.9676 5.3564
v -21.1692 60.9676 5.3564
v 31.8501 -60.7937 13.3564
v 38.4378 -61.6626 13.3564
v 45.8760 -60.0204 13.0225
v 54.4378 -59.9706 11.7251
v 62.4378 -60.0783 11.4170
v 68.0319 -59.5525 9.7225
v 24.9807 -53.6305 13.3564
v 27.8501 -57.6305 13.3564
v 48.1681 -58.0008 15.4665
v 54.4378 -58.0808 15.7251
v 62.4972 -55.8240 15.0412
v 70.5943 -55.6299 10.9385
v 75.4746 -53.2499 10.2335
v 18.3861 -43.2677 16.6291
v 20.7511 -46.4405 13.7200
v 65.5108 -47.1998 16.4006
v 70.4378 -47.1998 14.9227
v 78.2599 -46.4872 11.4242
v 82.5141 -43.3456 9.4399
v 18.3861 -43.1025 16.6291
v 21.1433 -39.9414 13.7200
v 50.1386 -35.4803 17.0111
v 51.9795 -35.4803 17.0111
v 64.8642 -39.1998 16.8566
v 70.4378 -39.1998 15.9832
v 78.4378 -39.1998 12.5681
v 82.5065 -39.1998 9.4415
v 25.4709 -34.2049 13.3564
v 30.4378 -32.3551 13.3564
v 38.4378 -32.0357 13.3564
v 47.0583 -33.6753 13.9492
v 54.5628 -34.2632 13.9492
v 61.9800 -33.9979 13.7575
v 70.4378 -33.7889 12.1199
v 78.4378 -34.7011 10.6411
v 82.4531 -35.1853 9.3864
v -56.1694 28.2588 13.3564
v -50.9951 28.2588 13.3564
v -38.8289 28.5875 9.8234
v -35.4966 28.5875 9.8234
v -63.4838 33.6264 13.3564
v -60.1694 29.6264 13.3564
v -46.9951 29.6648 13.3564
v -41.5222 30.4514 12.8366
v -33.1228 31.3952 12.8366
v -26.2956 34.3262 12.7197
v -17.5622 35.5464 9.6447
v -13.4654 36.6443 9.4686
v -70.0383 44.0053 11.2442
v -67.7404 41.1232 13.6891
v -24.1178 39.3972 14.9618
v -17.5622 40.7411 13.6447
v -12.7753 41.5948 12.6237
v -70.1415 48.8002 11.8817
v -68.8710 48.8002 15.8817
v -15.9037 50.1729 16.4525
v -11.5074 48.0238 13.6141
v -69.8585 53.1362 10.8357
v -65.4573 56.5621 13.3556
v -60.1543 59.9881 10.5422
v -48.8647 58.0893 13.3564
v -41.5622 56.6483 13.3564
v -33.5622 57.4496 13.3564
v -24.9692 57.8316 12.8768
v -18.5779 56.1982 13.1715
v -11.3523 53.9977 11.1192
v -62.0089 61.1700 15.8756
v -57.5175 61.2634 13.2679
v -52.8647 61.1018 13.3564
v -21.9072 60.9362 9.8904
v -21.2521 60.9362 9.8904
v 32.3243 -60.5184 19.2595
v 38.9902 -60.1392 21.6983
v 45.8760 -59.5175 21.5473
v 50.7772 -59.4822 24.3412
v 25.7527 -53.2385 21.3564
v 29.9697 -57.2381 21.6983
v 36.6917 -58.5453 24.5929
v 48.1681 -58.0008 19.0079
v 53.8414 -56.7863 21.5473
v 59.5997 -53.0822 21.3564
v 18.3861 -43.2677 17.4621
v 22.2869 -46.4405 20.6198
v 41.7633 -43.7721 24.9054
v 46.4378 -44.3660 24.1880
v 54.4378 -44.6185 24.4019
v 60.9663 -46.9452 22.0569
v 18.3861 -43.1025 17.4621
v 22.2831 -39.9414 20.6198
v 33.5293 -36.0090 24.7781
v 38.8331 -38.8853 23.6769
v 47.0583 -38.5681 20.1597
v 54.5628 -38.5681 19.9005
v 60.8642 -39.1998 19.3666
v 25.7479 -34.3506 21.3564
v 30.6927 -33.6009 21.8094
v 38.4378 -33.4373 19.5952
v 44.8052 -34.3824 18.2531
v 57.3128 -35.1014 17.5358
v 59.0080 -35.1014 17.5358
v -55.3273 28.4764 18.0852
v -51.7375 28.4764 18.0852
v -62.4539 34.9151 21.3564
v -57.8213 31.4182 20.9936
v -49.2673 30.5117 20.9936
v -41.5622 32.5032 21.3564
v -33.7479 35.7007 20.7470
v -29.4512 36.6726 17.6741
v -65.2172 40.8002 21.3564
v -45.6808 44.6890 25.2300
v -41.5622 43.7842 24.7059
v -33.7479 40.8541 22.7519
v -26.2956 41.5584 18.4297
v -17.5622 44.7411 17.4030
v -13.5545 44.7911 17.3631
v -66.6843 48.8002 21.3564
v -47.4887 48.8002 23.5740
v -41.5622 48.8002 21.6428
v -33.5622 48.8002 22.1252
v -25.5622 48.8002 20.1792
v -18.1671 48.0238 17.4586
v -13.5545 44.8396 17.3631
v -63.7173 56.6151 20.9997
v -57.5622 57.7030 22.0470
v -50.6570 55.7992 20.3224
v -41.5622 54.2933 18.2932
v -33.5622 54.9859 19.6191
v -25.5622 54.0559 19.0758
v -21.2370 53.0654 17.4645
v -62.0089 61.1700 18.0952
v -57.5622 61.1607 18.0470
v -53.3017 60.9111 17.5384
v 42.0251 -59.2583 25.4492
v 46.4378 -59.4555 25.6365
v 50.7772 -59.4822 25.6370
v 25.9226 -52.1756 26.3690
v 30.4378 -53.4408 26.9791
v 38.9902 -55.6071 27.0320
v 46.4378 -55.1998 27.4228
v 53.8414 -54.4815 26.0746
v 58.5547 -51.3360 25.4398
v 25.5480 -47.1998 26.6776
v 30.4378 -47.1998 28.0363
v 38.8331 -46.7432 27.3726
v 46.4378 -48.3660 27.1427
v 54.4378 -48.6185 26.0436
v 58.5547 -49.4421 25.4398
v 25.5951 -39.1998 26.2077
v 30.6927 -38.8853 26.4338
v 36.4300 -41.3423 26.0170
v 25.9855 -34.7739 25.7425
v 28.1960 -34.7739 25.7425
v -61.7461 36.5601 25.5920
v -57.5622 35.7778 26.2541
v -49.5622 34.5935 27.0515
v -41.5622 34.9578 26.5645
v -36.5383 36.1628 25.6684
v -62.6622 40.8002 26.4562
v -57.5622 40.8002 27.9142
v -48.8333 41.5335 27.3020
v -41.5622 39.7842 26.5645
v -36.5383 38.2234 25.6684
v -63.3755 48.8002 26.7986
v -57.5622 48.8002 27.6489
v -51.4887 48.8002 26.2066
v -62.6971 53.8249 26.0485
v -57.5622 53.7030 25.9888
v -53.3456 52.9793 25.5075
f 5 2 1
f 5 6 2
f 7 4 3
f 7 8 4
f 11 10 9
f 11 12 10
f 14 12 11
f 14 15 12
f 15 13 12
f 15 16 13
f 23 17 22
f 23 18 17
f 2 24 1
f 2 25 24
f 24 20 19
f 24 25 20
f 4 26 3
f 4 27 26
f 28 21 27
f 28 22 21
f 29 22 28
f 29 23 22
f 30 1 24
f 30 5 1
f 31 25 2
f 31 2 6
f 31 6 5
f 31 5 30
f 32 3 26
f 32 7 3
f 31 26 25
f 31 32 26
f 33 27 4
f 33 4 8
f 8 7 32
f 8 32 33
f 34 27 33
f 34 28 27
f 36 30 35
f 36 31 30
f 37 31 36
f 37 32 31
f 38 32 37
f 38 33 32
f 10 39 9
f 10 40 39
f 39 11 9
f 39 45 11
f 46 40 10
f 46 10 12
f 13 46 12
f 13 47 46
f 46 41 40
f 46 47 41
f 48 41 47
f 48 42 41
f 49 42 48
f 49 43 42
f 45 14 11
f 45 51 14
f 51 44 50
f 51 45 44
f 52 15 14
f 52 14 51
f 53 47 13
f 53 13 16
f 16 15 52
f 16 52 53
f 54 47 53
f 54 48 47
f 60 17 18
f 60 59 17
f 59 56 55
f 59 60 56
f 20 61 19
f 20 62 61
f 64 57 63
f 64 58 57
f 65 17 59
f 65 22 17
f 65 21 22
f 65 64 21
f 65 58 64
f 65 59 58
f 66 60 18
f 66 18 23
f 68 19 61
f 68 24 19
f 69 62 20
f 69 20 25
f 69 68 61
f 69 61 62
f 70 25 26
f 70 69 25
f 70 62 69
f 70 63 62
f 71 21 64
f 71 27 21
f 71 26 27
f 71 70 26
f 71 63 70
f 71 64 63
f 66 23 29
f 66 29 73
f 29 28 72
f 29 72 73
f 73 67 66
f 73 74 67
f 76 24 68
f 76 30 24
f 72 28 34
f 72 34 78
f 34 33 77
f 34 77 78
f 79 72 78
f 79 73 72
f 79 74 73
f 79 80 74
f 76 35 30
f 76 83 35
f 83 75 82
f 83 76 75
f 84 36 35
f 84 35 83
f 85 37 36
f 85 36 84
f 77 33 38
f 77 38 86
f 38 37 85
f 38 85 86
f 87 80 79
f 87 88 80
f 88 81 80
f 88 89 81
f 94 90 93
f 94 91 90
f 99 92 98
f 99 93 92
f 99 94 93
f 99 100 94
f 100 95 94
f 100 101 95
f 103 39 40
f 103 102 39
f 103 96 102
f 103 97 96
f 41 103 40
f 41 104 103
f 104 97 103
f 104 98 97
f 42 104 41
f 42 105 104
f 105 98 104
f 105 99 98
f 43 105 42
f 43 106 105
f 105 100 99
f 105 106 100
f 106 101 100
f 106 107 101
f 110 39 102
f 110 45 39
f 110 44 45
f 110 109 44
f 106 43 49
f 106 49 112
f 49 48 111
f 49 111 112
f 112 107 106
f 112 113 107
f 113 108 107
f 113 114 108
f 109 50 44
f 109 115 50
f 116 51 50
f 116 50 115
f 117 52 51
f 117 51 116
f 118 53 52
f 118 52 117
f 111 48 54
f 111 54 119
f 54 53 118
f 54 118 119
f 120 113 112
f 120 121 113
f 122 113 121
f 122 114 113
f 124 116 123
f 124 117 116
f 126 55 56
f 126 125 55
f 130 57 58
f 130 129 57
f 131 55 125
f 131 59 55
f 131 58 59
f 131 130 58
f 132 126 56
f 132 56 60
f 136 127 135
f 136 128 127
f 137 57 129
f 137 63 57
f 63 136 62
f 63 137 136
f 137 128 136
f 137 129 128
f 138 132 60
f 138 60 66
f 67 138 66
f 67 139 138
f 138 133 132
f 138 139 133
f 142 134 141
f 142 135 134
f 143 62 136
f 143 69 62
f 143 68 69
f 143 142 68
f 143 135 142
f 143 136 135
f 144 139 67
f 144 67 74
f 144 140 139
f 144 145 140
f 148 68 142
f 148 76 68
f 148 75 76
f 148 147 75
f 148 141 147
f 148 142 141
f 152 78 77
f 152 77 151
f 79 78 152
f 79 152 153
f 154 144 74
f 154 74 80
f 81 154 80
f 81 155 154
f 154 145 144
f 154 155 145
f 147 82 75
f 147 157 82
f 157 146 156
f 157 147 146
f 158 83 82
f 158 82 157
f 84 83 158
f 84 158 159
f 85 84 159
f 85 159 160
f 160 159 149
f 160 149 150
f 161 151 77
f 161 77 86
f 86 85 160
f 86 160 161
f 153 87 79
f 153 162 87
f 163 88 87
f 163 87 162
f 164 155 81
f 164 81 89
f 89 88 163
f 89 163 164
f 166 156 165
f 166 157 156
f 91 167 90
f 91 168 167
f 167 93 90
f 167 170 93
f 170 92 93
f 170 169 92
f 171 168 91
f 171 91 94
f 171 170 167
f 171 167 168
f 172 94 95
f 172 171 94
f 174 96 97
f 174 173 96
f 175 92 169
f 175 98 92
f 98 174 97
f 98 175 174
f 176 172 95
f 176 95 101
f 179 96 173
f 179 102 96
f 180 176 101
f 180 101 107
f 108 180 107
f 108 181 180
f 180 177 176
f 180 181 177
f 184 102 179
f 184 110 102
f 184 109 110
f 184 183 109
f 184 178 183
f 184 179 178
f 186 112 111
f 186 111 185
f 187 181 108
f 187 108 114
f 189 109 183
f 189 115 109
f 189 182 188
f 189 183 182
f 116 115 189
f 116 189 190
f 192 118 117
f 192 117 191
f 193 185 111
f 193 111 119
f 119 118 192
f 119 192 193
f 186 120 112
f 186 194 120
f 195 121 120
f 195 120 194
f 187 114 122
f 187 122 196
f 122 121 195
f 122 195 196
f 198 188 197
f 198 189 188
f 190 123 116
f 190 199 123
f 199 189 198
f 199 190 189
f 191 117 124
f 191 124 200
f 200 124 123
f 200 123 199
f 200 199 190
f 200 190 191
f 202 197 201
f 202 198 197
f 126 203 125
f 126 204 203
f 206 127 128
f 206 205 127
f 207 128 129
f 207 206 128
f 130 207 129
f 130 208 207
f 203 131 125
f 203 209 131
f 131 208 130
f 131 209 208
f 204 126 132
f 204 132 210
f 209 203 204
f 209 204 210
f 133 210 132
f 133 211 210
f 214 127 205
f 214 135 127
f 214 134 135
f 214 213 134
f 215 211 133
f 215 133 139
f 140 215 139
f 140 216 215
f 215 212 211
f 215 216 212
f 217 134 213
f 217 141 134
f 218 216 140
f 218 140 145
f 221 141 217
f 221 147 141
f 221 146 147
f 221 220 146
f 150 149 222
f 150 222 223
f 152 151 224
f 152 224 225
f 153 152 225
f 153 225 226
f 227 218 145
f 227 145 155
f 227 219 218
f 227 228 219
f 220 156 146
f 220 229 156
f 230 229 220
f 230 220 221
f 231 158 157
f 231 157 230
f 222 149 159
f 222 159 232
f 232 159 158
f 232 158 231
f 223 160 150
f 223 233 160
f 233 222 232
f 233 223 222
f 234 224 151
f 234 151 161
f 161 160 233
f 161 233 234
f 226 162 153
f 226 235 162
f 163 162 235
f 163 235 236
f 227 155 164
f 227 164 237
f 164 163 236
f 164 236 237
f 238 227 237
f 238 228 227
f 239 156 229
f 239 165 156
f 230 157 166
f 230 166 240
f 240 166 165
f 240 165 239
f 241 236 235
f 241 242 236
f 246 169 170
f 246 245 169
f 247 170 171
f 247 246 170
f 172 247 171
f 172 248 247
f 251 173 174
f 251 250 173
f 251 243 250
f 251 244 243
f 245 175 169
f 245 252 175
f 175 251 174
f 175 252 251
f 252 244 251
f 252 245 244
f 253 252 245
f 253 245 246
f 254 248 172
f 254 172 176
f 177 254 176
f 177 255 254
f 257 173 250
f 257 179 173
f 257 178 179
f 257 256 178
f 257 249 256
f 257 250 249
f 258 255 177
f 258 177 181
f 262 178 256
f 262 183 178
f 262 182 183
f 262 261 182
f 186 185 263
f 186 263 264
f 265 258 181
f 265 181 187
f 265 259 258
f 265 266 259
f 267 259 266
f 267 260 259
f 261 188 182
f 261 269 188
f 270 269 261
f 270 261 262
f 191 190 271
f 191 271 272
f 192 191 272
f 192 272 273
f 263 185 193
f 263 193 274
f 193 192 273
f 193 273 274
f 264 194 186
f 264 275 194
f 275 263 274
f 275 264 263
f 195 194 275
f 195 275 276
f 265 187 196
f 265 196 277
f 196 195 276
f 196 276 277
f 278 265 277
f 278 266 265
f 280 188 269
f 280 197 188
f 280 268 279
f 280 269 268
f 282 271 190
f 282 190 199
f 282 199 198
f 282 198 281
f 282 281 270
f 282 270 271
f 284 276 283
f 284 277 276
f 285 197 280
f 285 201 197
f 286 281 198
f 286 198 202
f 202 201 285
f 202 285 286
f 286 285 280
f 286 280 281
f 206 287 205
f 206 288 287
f 207 288 206
f 207 289 288
f 208 289 207
f 208 290 289
f 291 208 209
f 291 290 208
f 210 291 209
f 210 292 291
f 211 292 210
f 211 293 292
f 212 293 211
f 212 294 293
f 287 214 205
f 287 296 214
f 214 295 213
f 214 296 295
f 297 296 287
f 297 287 288
f 299 294 212
f 299 212 216
f 298 293 294
f 298 294 299
f 295 217 213
f 295 300 217
f 301 300 295
f 301 295 296
f 302 299 216
f 302 216 218
f 219 302 218
f 219 303 302
f 304 217 300
f 304 221 217
f 305 304 300
f 305 300 301
f 225 224 306
f 225 306 307
f 308 226 225
f 308 225 307
f 303 219 228
f 303 228 309
f 311 221 304
f 311 230 221
f 230 310 229
f 230 311 310
f 231 230 311
f 231 311 312
f 312 311 304
f 312 304 305
f 313 232 231
f 313 231 312
f 314 233 232
f 314 232 313
f 306 224 234
f 306 234 315
f 234 233 314
f 234 314 315
f 316 306 315
f 316 307 306
f 308 235 226
f 308 317 235
f 316 308 307
f 316 317 308
f 237 236 318
f 237 318 319
f 309 228 238
f 309 238 320
f 238 237 319
f 238 319 320
f 310 239 229
f 310 321 239
f 322 311 230
f 322 230 240
f 322 240 239
f 322 239 321
f 322 321 310
f 322 310 311
f 323 235 317
f 323 241 235
f 318 236 242
f 318 242 324
f 242 241 323
f 242 323 324
f 323 317 318
f 323 318 324
f 244 325 243
f 244 326 325
f 327 244 245
f 327 326 244
f 247 328 246
f 247 329 328
f 330 247 248
f 330 329 247
f 332 243 325
f 332 250 243
f 250 331 249
f 250 332 331
f 333 332 325
f 333 325 326
f 327 245 252
f 327 252 334
f 328 253 246
f 328 335 253
f 253 334 252
f 253 335 334
f 330 248 254
f 330 254 337
f 336 329 330
f 336 330 337
f 338 254 255
f 338 337 254
f 331 256 249
f 331 340 256
f 341 340 331
f 341 331 332
f 342 338 255
f 342 255 258
f 259 342 258
f 259 343 342
f 342 339 338
f 342 343 339
f 344 259 260
f 344 343 259
f 340 262 256
f 340 345 262
f 344 260 267
f 344 267 347
f 267 266 346
f 267 346 347
f 346 343 344
f 346 344 347
f 349 268 269
f 349 348 268
f 345 270 262
f 345 350 270
f 270 349 269
f 270 350 349
f 351 271 270
f 351 270 350
f 272 271 351
f 272 351 352
f 353 273 272
f 353 272 352
f 354 274 273
f 354 273 353
f 355 275 274
f 355 274 354
f 276 275 355
f 276 355 356
f 346 266 278
f 346 278 358
f 278 277 357
f 278 357 358
f 348 279 268
f 348 359 279
f 360 280 279
f 360 279 359
f 360 359 348
f 360 348 349
f 361 350 270
f 361 270 281
f 361 281 280
f 361 280 360
f 361 360 349
f 361 349 350
f 363 352 362
f 363 353 352
f 356 283 276
f 356 364 283
f 357 277 284
f 357 284 365
f 284 283 364
f 284 364 365
f 289 366 288
f 289 367 366
f 368 289 290
f 368 367 289
f 369 290 291
f 369 368 290
f 370 291 292
f 370 369 291
f 371 292 293
f 371 370 292
f 366 297 288
f 366 373 297
f 297 372 296
f 297 373 372
f 374 368 369
f 374 369 375
f 375 369 370
f 375 370 376
f 371 293 298
f 371 298 377
f 376 370 371
f 376 371 377
f 378 298 299
f 378 377 298
f 372 301 296
f 372 380 301
f 381 376 377
f 381 377 382
f 378 299 302
f 378 302 383
f 382 377 378
f 382 378 383
f 384 302 303
f 384 383 302
f 386 301 380
f 386 305 301
f 385 380 379
f 385 386 380
f 390 389 381
f 390 381 382
f 391 390 382
f 391 382 383
f 384 303 309
f 384 309 392
f 391 383 384
f 391 384 392
f 393 305 386
f 393 312 305
f 313 312 393
f 313 393 394
f 395 314 313
f 395 313 394
f 315 314 395
f 315 395 396
f 316 315 396
f 316 396 397
f 397 396 387
f 397 387 388
f 398 317 316
f 398 316 397
f 399 318 317
f 399 317 398
f 399 398 389
f 399 389 390
f 319 318 399
f 319 399 400
f 399 390 391
f 399 391 400
f 401 392 309
f 401 309 320
f 401 320 319
f 401 319 400
f 400 391 392
f 400 392 401
f 327 402 326
f 327 403 402
f 405 328 329
f 405 404 328
f 402 333 326
f 402 407 333
f 333 406 332
f 333 407 406
f 408 403 327
f 408 327 334
f 404 335 328
f 404 409 335
f 335 408 334
f 335 409 408
f 405 329 336
f 405 336 410
f 409 404 405
f 409 405 410
f 411 336 337
f 411 410 336
f 412 337 338
f 412 411 337
f 339 412 338
f 339 413 412
f 406 341 332
f 406 415 341
f 341 414 340
f 341 415 414
f 416 411 412
f 416 412 417
f 413 339 343
f 413 343 418
f 417 412 413
f 417 413 418
f 414 345 340
f 414 419 345
f 420 419 414
f 420 414 415
f 418 343 346
f 418 346 422
f 423 345 419
f 423 350 345
f 351 350 423
f 351 423 424
f 423 419 420
f 423 420 424
f 425 352 351
f 425 351 424
f 354 353 426
f 354 426 427
f 355 354 427
f 355 427 428
f 356 355 428
f 356 428 429
f 431 422 346
f 431 346 358
f 431 358 357
f 431 357 430
f 431 430 421
f 431 421 422
f 425 362 352
f 425 433 362
f 432 425 424
f 432 433 425
f 426 353 363
f 426 363 434
f 434 363 362
f 434 362 433
f 435 356 429
f 435 364 356
f 436 430 357
f 436 357 365
f 365 364 435
f 365 435 436
f 436 435 429
f 436 429 430
f 367 437 366
f 367 438 437
f 368 438 367
f 368 439 438
f 437 373 366
f 437 442 373
f 373 441 372
f 373 442 441
f 443 442 437
f 443 437 438
f 439 368 374
f 439 374 444
f 375 444 374
f 375 445 444
f 444 440 439
f 444 445 440
f 446 375 376
f 446 445 375
f 448 372 441
f 448 380 372
f 380 447 379
f 380 448 447
f 446 376 381
f 446 381 452
f 447 385 379
f 447 453 385
f 386 385 453
f 386 453 454
f 454 453 447
f 454 447 448
f 457 456 449
f 457 449 450
f 458 388 387
f 458 387 457
f 457 450 451
f 457 451 458
f 459 452 381
f 459 381 389
f 459 458 451
f 459 451 452
f 454 393 386
f 454 460 393
f 394 393 460
f 394 460 461
f 462 395 394
f 462 394 461
f 462 461 455
f 462 455 456
f 463 457 387
f 463 387 396
f 463 396 395
f 463 395 462
f 463 462 456
f 463 456 457
f 464 388 458
f 464 397 388
f 465 459 389
f 465 389 398
f 465 398 397
f 465 397 464
f 464 458 459
f 464 459 465
f 403 466 402
f 403 467 466
f 466 407 402
f 466 469 407
f 469 406 407
f 469 468 406
f 467 403 408
f 467 408 470
f 470 469 466
f 470 466 467
f 471 408 409
f 471 470 408
f 410 471 409
f 410 472 471
f 473 410 411
f 473 472 410
f 474 406 468
f 474 415 406
f 473 411 416
f 473 416 478
f 477 472 473
f 477 473 478
f 479 416 417
f 479 478 416
f 480 417 418
f 480 479 417
f 474 420 415
f 474 481 420
f 483 482 475
f 483 475 476
f 484 483 476
f 484 476 477
f 484 477 478
f 484 478 485
f 485 478 479
f 485 479 486
f 480 418 422
f 480 422 487
f 487 422 421
f 487 421 486
f 487 486 479
f 487 479 480
f 488 420 481
f 488 424 420
f 491 427 426
f 491 426 490
f 491 490 482
f 491 482 483
f 428 427 491
f 428 491 492
f 492 491 483
f 492 483 484
f 493 429 428
f 493 428 492
f 493 492 484
f 493 484 485
f 494 486 421
f 494 421 430
f 494 430 429
f 494 429 493
f 494 493 485
f 494 485 486
f 488 432 424
f 488 495 432
f 496 433 432
f 496 432 495
f 495 488 489
f 495 489 496
f 497 490 426
f 497 426 434
f 497 434 433
f 497 433 496
f 497 496 489
f 497 489 490
f 439 498 438
f 439 499 498
f 440 499 439
f 440 500 499
f 502 441 442
f 502 501 441
f 498 443 438
f 498 503 443
f 443 502 442
f 443 503 502
f 504 503 498
f 504 498 499
f 500 440 445
f 500 445 505
f 504 499 500
f 504 500 505
f 446 505 445
f 446 506 505
f 507 441 501
f 507 448 441
f 508 507 501
f 508 501 502
f 509 508 502
f 509 502 503
f 510 450 449
f 510 449 509
f 510 509 503
f 510 503 504
f 511 451 450
f 511 450 510
f 510 504 505
f 510 505 511
f 512 506 446
f 512 446 452
f 512 452 451
f 512 451 511
f 511 505 506
f 511 506 512
f 513 448 507
f 513 454 448
f 513 507 508
f 513 508 514
f 515 509 449
f 515 449 456
f 515 456 455
f 515 455 514
f 515 514 508
f 515 508 509
f 513 460 454
f 513 516 460
f 517 514 455
f 517 455 461
f 517 461 460
f 517 460 516
f 517 516 513
f 517 513 514
f 519 468 469
f 519 518 468
f 520 469 470
f 520 519 469
f 471 520 470
f 471 521 520
f 522 471 472
f 522 521 471
f 518 474 468
f 518 523 474
f 524 523 518
f 524 518 519
f 524 519 520
f 524 520 525
f 526 476 475
f 526 475 525
f 526 525 520
f 526 520 521
f 522 472 477
f 522 477 527
f 527 477 476
f 527 476 526
f 527 526 521
f 527 521 522
f 528 474 523
f 528 481 474
f 529 528 523
f 529 523 524
f 530 525 475
f 530 475 482
f 530 529 524
f 530 524 525
f 531 481 528
f 531 488 481
f 489 488 531
f 489 531 532
f 531 528 529
f 531 529 532
f 533 530 482
f 533 482 490
f 533 490 489
f 533 489 532
f 533 532 529
f 533 529 530
