# parsimony mesh: cplx_CPLX0-3301 (source /Users/eranagmon/code/v2e-cplx/workspace/studies/ecoli-3d/viz/3d/structures/cplx_CPLX0-3301.pdb)
# atoms: 1124  voxel: 16 Å  verts: 47  tris: 86
v 22.0115 -40.1553 -7.1702
v 34.5950 -40.5142 -7.6243
v 43.5353 -38.8577 -6.4473
v 21.0319 -29.4911 -8.4013
v 35.4179 -28.8817 -8.5184
v 43.5353 -33.8088 -6.4473
v 23.7611 -19.5854 -7.4832
v 30.6331 -19.5854 -7.4832
v -38.4084 9.8149 -5.9459
v -34.1625 9.8149 -5.9459
v -39.5411 18.5089 -7.1058
v -29.0595 17.7712 -7.9871
v -19.7842 22.6128 -7.2891
v -39.2497 30.2170 -6.9802
v -29.4050 32.6250 -8.1132
v -19.7842 30.9556 -7.2891
v 22.0780 -40.1005 2.8225
v 33.7817 -40.3986 2.2531
v 43.5353 -38.8577 -3.4598
v 19.1061 -29.4911 2.8225
v 37.0842 -28.8817 2.2531
v 43.5353 -33.8088 -3.4598
v 23.6231 -17.6080 2.8225
v 30.7231 -17.6080 2.8225
v -38.4084 9.8149 -3.1510
v -34.1625 9.8149 -3.1510
v -40.0082 18.3697 2.4384
v -27.8912 17.7782 3.7169
v -19.7842 22.6128 -0.0819
v -39.9065 32.3136 2.8225
v -26.5615 35.2797 5.3794
v -20.3279 34.3335 3.5651
v -24.2742 44.5409 7.2121
v -20.8715 44.5409 7.2121
v 25.1559 -38.3061 11.5200
v 27.9062 -38.3061 11.5200
v 24.6693 -29.4911 11.8529
v 28.6779 -29.4911 11.8529
v 25.4664 -18.2193 11.4988
v 28.0611 -18.2193 11.4988
v -38.8956 23.6103 12.1981
v -32.2865 23.6103 12.1981
v -38.8956 30.5405 12.1981
v -28.2803 34.1259 11.8952
v -20.8715 37.7113 11.5923
v -24.2742 44.5409 11.5923
v -20.8715 44.5409 11.5923
f 4 2 1
f 4 5 2
f 6 2 5
f 6 3 2
f 8 4 7
f 8 5 4
f 11 10 9
f 11 12 10
f 14 12 11
f 14 15 12
f 15 13 12
f 15 16 13
f 18 1 2
f 18 17 1
f 19 2 3
f 19 18 2
f 20 1 17
f 20 4 1
f 22 6 5
f 22 5 21
f 22 21 18
f 22 18 19
f 20 7 4
f 20 23 7
f 21 5 8
f 21 8 24
f 24 8 7
f 24 7 23
f 10 25 9
f 10 26 25
f 25 11 9
f 25 27 11
f 26 10 12
f 26 12 28
f 27 25 26
f 27 26 28
f 29 12 13
f 29 28 12
f 27 14 11
f 27 30 14
f 15 14 30
f 15 30 31
f 29 13 16
f 29 16 32
f 32 16 15
f 32 15 31
f 31 28 29
f 31 29 32
f 34 31 33
f 34 32 31
f 36 17 18
f 36 35 17
f 35 20 17
f 35 37 20
f 38 36 18
f 38 18 21
f 37 35 36
f 37 36 38
f 37 23 20
f 37 39 23
f 38 21 24
f 38 24 40
f 40 24 23
f 40 23 39
f 39 37 38
f 39 38 40
f 42 27 28
f 42 41 27
f 41 30 27
f 41 43 30
f 42 28 31
f 42 31 44
f 44 31 30
f 44 30 43
f 43 41 42
f 43 42 44
f 45 31 32
f 45 44 31
f 46 31 44
f 46 33 31
f 45 32 34
f 45 34 47
f 34 33 46
f 34 46 47
f 46 44 45
f 46 45 47
