# parsimony mesh: cplx_CPLX0-8152 (source /Users/eranagmon/code/v2e-cplx/workspace/studies/ecoli-3d/viz/3d/structures/cplx_CPLX0-8152.pdb)
# atoms: 9436  voxel: 8 Å  verts: 1022  tris: 2060
v 43.6349 -21.9993 -236.0242
v 44.6061 -21.9993 -236.0242
v 43.6349 -19.3504 -236.0242
v 44.6061 -19.3504 -236.0242
v 43.9935 -29.8737 -228.2029
v 44.7756 -29.8737 -228.2029
v 36.0286 -22.9199 -229.7077
v 41.1475 -25.1262 -231.6219
v 47.3575 -24.6050 -230.7505
v 52.5242 -21.8775 -227.9647
v 36.0286 -19.8396 -229.7077
v 40.3221 -16.9284 -232.7832
v 47.7502 -17.1139 -233.4513
v 53.2322 -17.7592 -228.8692
v 42.0483 -9.7592 -230.9911
v 48.4664 -9.7592 -232.5462
v 56.2443 -9.4274 -229.8170
v 64.4664 -6.6695 -229.2965
v 70.1576 -6.1925 -228.6383
v 43.3660 -3.2084 -229.3950
v 47.7558 -1.0287 -229.9340
v 56.4664 -1.7592 -231.7986
v 64.4664 -1.7592 -231.7459
v 70.7636 -1.7592 -229.2677
v 49.9488 4.1973 -228.9492
v 56.1674 6.6147 -230.2443
v 64.4664 6.2408 -231.2059
v 72.4894 6.4690 -229.0382
v 76.9429 9.2878 -228.2471
v 58.6347 11.0164 -228.5774
v 64.4664 11.8470 -228.7565
v 72.4664 11.8596 -228.5088
v 76.9429 11.0331 -228.2471
v 43.9935 -29.8737 -227.6313
v 44.7756 -29.8737 -227.6313
v 36.0286 -22.9199 -227.1435
v 41.1985 -25.3730 -224.7207
v 48.1927 -24.8518 -224.8583
v 52.5242 -21.8775 -227.4185
v 36.2236 -16.8293 -223.6942
v 37.7065 -16.8293 -223.6942
v 51.6099 -21.0561 -222.0852
v 53.8515 -18.1373 -224.4105
v 35.3655 -9.7592 -220.9878
v 38.0483 -9.7592 -224.9878
v 58.1544 -11.3349 -223.8984
v 64.4664 -8.0227 -223.8984
v 70.2634 -6.4469 -223.8984
v 35.0462 -4.2612 -221.0044
v 40.5459 -1.0682 -224.3859
v 44.6154 2.1250 -227.7674
v 72.3043 -1.7592 -223.8984
v 43.0592 3.3113 -222.4341
v 48.1348 6.4210 -224.7309
v 53.3014 9.5307 -227.0277
v 74.5072 4.7148 -223.8984
v 77.1707 8.7148 -223.8984
v 51.6541 10.6935 -221.6944
v 56.1674 11.2523 -224.1760
v 64.4664 13.2518 -223.8984
v 72.4664 14.6675 -223.8984
v 77.1707 12.5814 -223.8984
v 34.8298 -30.1443 -212.3808
v 37.0948 -30.1443 -212.3808
v 27.6536 -23.3464 -212.2744
v 32.2844 -25.9115 -213.0231
v 40.4159 -25.3167 -215.3143
v 48.7525 -23.1288 -216.2482
v 52.9783 -22.2602 -213.8147
v 27.1909 -17.7592 -212.8788
v 33.2377 -16.9951 -216.4924
v 38.4036 -19.1523 -218.2479
v 51.9481 -17.5483 -215.6531
v 53.3661 -17.5483 -215.6531
v 27.4448 -9.7592 -213.3050
v 31.3655 -9.7592 -217.3050
v 52.2863 -13.5409 -212.1581
v 56.3912 -10.3103 -215.4605
v 64.4664 -7.1123 -218.4867
v 69.1712 -6.2428 -219.1517
v 27.9921 -5.2244 -212.8427
v 32.4142 -3.7539 -215.6649
v 38.5075 0.3464 -215.8984
v 59.0284 -4.3397 -213.4295
v 64.4664 -3.1668 -214.4867
v 70.0885 -1.3370 -216.2504
v 42.5075 4.9524 -215.8984
v 45.9585 8.9524 -215.8984
v 59.8083 9.7119 -212.9494
v 64.4664 8.4398 -213.8039
v 72.1323 6.0971 -215.9186
v 76.9289 9.1591 -218.4492
v 49.9585 10.9489 -215.8984
v 56.8715 11.0819 -215.7290
v 64.4664 11.6456 -217.8039
v 72.4664 13.0488 -217.9288
v 76.9289 12.5694 -218.4492
v 26.9929 -30.8486 -205.9944
v 32.4930 -30.4964 -208.3757
v 37.0948 -30.1443 -210.7570
v 19.7623 -23.1217 -205.1808
v 24.6566 -25.9007 -208.2543
v 32.4930 -28.5001 -208.3757
v 40.1481 -25.5639 -207.7662
v 48.4664 -22.9211 -210.0486
v 52.9783 -22.2602 -211.2216
v 19.3475 -17.7592 -205.1550
v 23.1909 -17.7592 -209.1550
v 43.2015 -20.6394 -204.7754
v 48.7001 -17.3400 -207.9985
v 52.9783 -19.3739 -211.2216
v 18.3616 -9.7592 -204.6907
v 23.4448 -9.7592 -208.6907
v 50.6347 -10.4282 -207.6134
v 53.6951 -8.2076 -210.0901
v 18.4478 -4.9789 -204.5617
v 24.9818 -4.6060 -207.4964
v 32.8253 -1.0885 -207.6690
v 37.9284 0.8836 -210.1827
v 51.4598 -1.7592 -204.9376
v 56.4036 -1.7075 -208.7095
v 64.4664 0.8332 -210.5746
v 69.1156 1.6112 -211.5005
v 35.5142 6.2408 -205.1170
v 40.5436 6.9678 -209.5957
v 48.2897 6.7268 -208.0973
v 56.8203 6.5232 -207.4785
v 64.4664 4.4398 -210.5746
v 69.1156 3.0351 -211.5005
v 35.9319 10.9488 -204.5723
v 40.4664 11.3212 -206.3068
v 47.7474 11.1046 -208.6208
v 54.9972 10.7712 -207.8984
v 26.9929 -30.8486 -202.7514
v 30.1562 -30.8486 -202.7514
v 19.7623 -23.1217 -202.1406
v 24.3823 -25.7767 -201.1946
v 32.6803 -25.6960 -201.6364
v 37.8681 -22.9872 -202.8770
v 11.9336 -14.2692 -196.9386
v 17.0538 -17.4629 -199.5396
v 24.4664 -19.8055 -197.3789
v 32.4664 -19.3832 -197.9312
v 40.1243 -17.6999 -200.3692
v 45.1140 -15.3061 -203.1947
v 11.6565 -9.7592 -198.1315
v 14.3616 -9.7592 -202.1315
v 41.8730 -9.7592 -198.3432
v 46.3118 -9.7592 -202.3432
v 11.9193 -5.0263 -197.8357
v 16.0552 -4.0465 -200.2608
v 24.5332 -0.9221 -199.6860
v 30.3979 0.1811 -202.2111
v 43.0945 -3.3425 -197.1951
v 46.9230 -1.1091 -199.8764
v 27.3999 6.2408 -196.8335
v 31.5142 6.2408 -200.8335
v 49.3049 6.0970 -200.5251
v 53.8322 8.6678 -203.6095
v 28.2662 10.4481 -196.1658
v 32.9457 11.8977 -199.2589
v 40.4664 13.1194 -199.8984
v 47.9361 11.1406 -200.5251
v 53.8322 10.4565 -203.6095
v 11.9447 -14.2327 -191.8984
v 16.4664 -16.0095 -191.8984
v 24.4664 -17.6451 -191.8984
v 32.2473 -16.0472 -192.3014
v 37.0471 -14.7602 -195.2367
v 10.8739 -9.7592 -191.8984
v 33.6497 -9.7592 -190.6600
v 37.8730 -9.7592 -194.6600
v 11.3956 -4.6101 -191.8984
v 16.4664 -3.4387 -191.8984
v 24.5332 -1.1582 -191.9859
v 32.5636 -1.5298 -189.4766
v 39.9293 -0.7081 -192.6606
v 44.5696 1.9909 -195.7456
v 27.1853 6.2981 -191.9859
v 30.7180 3.6696 -189.3775
v 42.3330 6.2408 -190.3176
v 44.8809 6.2408 -194.3176
v 27.7814 11.1418 -191.8984
v 32.4664 13.0572 -191.8984
v 40.9811 12.1040 -191.5254
v 44.9159 10.7922 -193.9434
v 12.3035 -13.8806 -187.6961
v 16.4664 -14.4539 -186.3986
v 24.4664 -15.5987 -185.9180
v 29.4346 -15.4071 -187.0553
v 11.6838 -9.7592 -187.0545
v 16.4664 -9.7592 -185.4661
v 24.4664 -9.7592 -185.2115
v 29.6497 -9.7592 -186.7999
v 11.5858 -4.9599 -186.9756
v 16.4664 -4.9942 -186.9659
v 26.0644 -2.1610 -184.3859
v 31.3682 -0.4723 -185.1834
v 36.7641 1.9263 -187.6288
v 27.5744 6.2981 -183.5461
v 32.7887 5.1389 -183.7739
v 38.3330 6.2408 -186.1209
v 27.5548 11.3570 -183.8984
v 32.8601 11.5584 -183.4382
v 38.6575 10.9484 -185.7980
v 28.1952 1.6427 -179.4144
v 28.9774 1.6427 -179.4144
v 27.8863 6.2408 -178.9918
v 30.3418 6.2408 -178.9918
v 27.9642 10.7351 -179.1736
v 30.4559 10.7351 -179.1736
v 52.2416 194.1211 -28.1630
v 56.4664 194.1214 -28.1353
v 60.5221 194.2013 -27.9497
v 51.6354 198.2408 -28.6309
v 56.4664 198.2408 -29.1906
v 61.7190 198.2408 -28.4581
v 50.9211 206.2408 -28.7553
v 56.4664 206.2408 -29.6050
v 62.5188 206.2408 -28.7481
v 51.2893 212.4631 -28.3288
v 56.4664 212.7029 -28.5497
v 61.5885 211.3013 -28.3364
v 51.6613 -230.3483 -20.4302
v 54.5270 -230.3483 -20.4302
v 66.6801 -230.1451 -20.2419
v 68.7723 -230.1451 -20.2419
v 36.0903 -222.0855 -20.1242
v 40.4664 -222.6980 -20.7820
v 48.7833 -225.5144 -21.5660
v 56.9028 -226.1965 -21.5880
v 64.2071 -226.3234 -20.5647
v 68.7723 -228.8254 -20.2419
v 36.0004 -217.7592 -20.1706
v 40.4664 -217.7592 -21.5605
v 48.4664 -217.7592 -23.9621
v 56.4664 -217.7592 -24.0503
v 61.8634 -217.7592 -21.3766
v 35.9028 -209.7592 -20.3485
v 40.4664 -209.7592 -21.4400
v 48.4664 -209.7592 -23.5390
v 56.4664 -209.7592 -24.0634
v 61.5086 -209.7592 -21.5143
v 35.9602 -204.1795 -20.3615
v 40.4664 -204.0140 -20.6615
v 48.4664 -204.2410 -21.1609
v 56.4664 -203.1582 -21.6247
v 61.2608 -203.5683 -21.0711
v -165.3499 -14.5998 -20.6810
v -159.5336 -16.0812 -21.2006
v -151.5336 -15.9214 -20.7200
v -147.3585 -14.3866 -20.0402
v -166.3432 -9.7592 -21.4800
v -159.5336 -9.7592 -23.9041
v -151.0423 -10.0379 -21.9227
v -147.3585 -12.8904 -20.0402
v -172.2540 0.5646 -20.4344
v -167.8915 -1.9649 -21.6831
v -159.5336 -1.7592 -24.2298
v -151.0423 -2.1712 -22.3451
v -146.9496 0.2207 -20.6397
v -172.6169 6.2408 -20.7366
v -167.7583 6.1500 -21.2363
v -159.5336 4.6365 -21.5262
v -150.9825 6.6482 -21.0127
v -147.0696 6.2408 -20.4977
v -172.2576 10.6980 -20.4800
v -170.5748 10.6980 -20.4800
v -147.9483 10.2796 -19.9562
v -147.4989 10.2796 -19.9562
v 28.1490 193.9004 -20.2699
v 30.0780 193.9004 -20.2699
v 50.3031 193.1993 -23.8984
v 56.5716 193.3839 -24.5916
v 60.5221 194.2013 -27.7204
v 28.1490 195.4560 -20.2699
v 32.5467 197.9347 -20.5400
v 38.2510 200.4135 -20.8102
v 48.0528 198.2408 -23.8984
v 59.3084 195.2272 -22.3871
v 63.9681 198.3980 -24.5638
v 70.3237 201.5687 -21.4071
v 35.0156 202.9906 -20.8102
v 40.9346 205.6730 -21.0153
v 46.7598 205.9096 -23.8916
v 66.5188 206.2408 -26.0510
v 70.4278 206.2408 -22.0510
v 43.6182 211.6925 -21.2204
v 48.5836 214.7444 -24.3226
v 56.4664 216.7029 -26.5413
v 64.4964 214.2243 -23.9112
v 69.2243 211.8139 -21.2599
v 51.2112 218.8386 -22.0914
v 56.4664 219.5399 -22.5413
v 62.0711 219.3750 -21.2292
v 35.5943 -230.3498 -12.5241
v 40.4664 -230.2107 -12.3852
v 48.7833 -230.3736 -15.1124
v 56.9028 -231.1902 -16.3626
v 64.3257 -230.6384 -16.4037
v 68.7723 -230.1451 -18.8020
v 34.2636 -225.1550 -15.4738
v 40.4664 -226.6980 -16.3852
v 46.3280 -228.0179 -17.2551
v 59.8603 -229.1547 -19.3387
v 64.6340 -227.1824 -17.2774
v 68.7723 -228.8254 -18.8020
v 27.7755 -215.2675 -12.1227
v 31.4397 -217.8642 -15.2330
v 65.2478 -217.7592 -15.8984
v 27.7755 -213.4357 -12.1227
v 32.1092 -210.3651 -15.2330
v 64.1412 -209.7592 -15.8984
v 35.2039 -202.8650 -15.8984
v 40.4664 -201.2243 -15.8984
v 48.4664 -202.7433 -15.8984
v 56.4664 -202.0339 -15.8984
v 61.9060 -203.4091 -15.8984
v -150.1978 -22.7013 -13.9348
v -146.5560 -22.7013 -13.9348
v -180.1264 -14.2084 -12.1883
v -175.5336 -15.8301 -13.7083
v -167.8234 -16.2480 -16.3724
v -159.5336 -18.8237 -15.8984
v -152.3321 -20.2857 -16.3203
v -146.2326 -17.3356 -16.3203
v -181.9755 -9.7592 -13.1446
v -175.5336 -9.7592 -16.2266
v -170.3432 -9.7592 -18.9804
v -148.0480 -7.5570 -19.1696
v -146.3478 -10.0379 -16.2611
v -182.1967 -3.6331 -13.2701
v -175.5983 -1.5342 -16.2440
v -170.7967 -4.7687 -19.2178
v -148.0480 -5.1126 -19.1696
v -146.1402 -2.1712 -16.2611
v -175.0321 6.2408 -15.8984
v -166.1275 8.2182 -15.8984
v -159.5336 6.7159 -15.8984
v -150.9825 8.1478 -16.6494
v -146.5908 6.1496 -16.6494
v -172.9351 10.8886 -15.8984
v -170.1275 10.8886 -15.8984
v -147.9483 10.2796 -19.8168
v -147.4989 10.2796 -19.8168
v 42.8670 185.1930 -12.9335
v 48.4664 184.4401 -13.5829
v 53.5002 184.8876 -13.1093
v 28.1490 193.9004 -19.1433
v 32.8406 193.4427 -16.3865
v 40.3067 190.2873 -15.1536
v 47.6706 190.2794 -18.0414
v 56.4043 190.5742 -15.7249
v 64.4664 193.6235 -12.8345
v 68.5789 194.1485 -12.0377
v 28.1490 195.4560 -19.1433
v 32.8398 197.0112 -17.2645
v 40.7372 197.9444 -19.0078
v 44.8838 198.2408 -19.4867
v 59.3084 195.2272 -18.3406
v 64.4664 196.4765 -16.8345
v 70.1581 198.6376 -15.1820
v 34.6519 204.0653 -15.8984
v 40.7732 205.9039 -17.3807
v 45.0159 203.0221 -19.3571
v 72.0642 206.2408 -15.8984
v 42.1575 214.3118 -15.9587
v 45.8779 217.0258 -18.6655
v 67.4044 217.1472 -18.9591
v 70.4510 214.3846 -16.1348
v 43.0203 218.7038 -13.3322
v 48.5133 219.4115 -15.9587
v 56.4664 221.0562 -15.8984
v 64.6292 220.1792 -16.1348
v 69.6840 219.2059 -13.6258
v 34.4061 -230.7954 -7.8984
v 40.4664 -230.8441 -7.8984
v 48.4664 -230.3869 -7.8984
v 56.4664 -231.6143 -7.8984
v 62.1864 -231.0354 -7.8984
v 19.8496 -222.3428 -4.9211
v 24.4664 -223.6376 -6.4465
v 30.1642 -226.1117 -8.5232
v 65.3355 -225.7592 -7.8984
v 19.4442 -217.7592 -5.7793
v 24.8518 -217.8642 -10.0280
v 28.7098 -220.6009 -11.6064
v 65.5719 -217.7592 -7.8984
v 18.6563 -209.7592 -6.6697
v 24.8518 -210.3651 -9.8564
v 29.9559 -208.1024 -10.1333
v 58.6160 -208.0851 -5.2346
v 62.7065 -210.3548 -7.9001
v 18.7991 -204.2858 -6.1083
v 24.4664 -203.7450 -6.2320
v 32.5601 -203.2419 -7.6394
v 40.4664 -201.6402 -7.8984
v 48.4664 -203.1632 -7.8984
v 56.1562 -204.6221 -7.9001
v 61.5913 -204.8166 -10.5680
v -172.7446 -22.0333 -5.6449
v -170.5545 -22.0333 -5.6449
v -150.1978 -22.7013 -9.6907
v -146.5560 -22.7013 -9.6907
v -187.9853 -14.0990 -5.0160
v -183.0893 -15.2255 -7.7690
v -175.4602 -19.6089 -8.1463
v -167.7461 -19.9053 -8.1463
v -159.5336 -19.4079 -7.8984
v -152.3321 -21.1890 -7.3738
v -145.7995 -18.2289 -7.3738
v -189.1676 -9.7592 -6.7341
v -185.9755 -9.7592 -10.7341
v -156.0937 -6.3176 -4.4143
v -151.5336 -6.2586 -4.4057
v -145.9146 -9.0236 -7.1947
v -189.9756 -1.7592 -7.0979
v -184.3315 -1.2835 -10.9550
v -178.9426 1.7003 -11.3933
v -156.0937 -4.2678 -4.4143
v -151.8676 -1.6644 -4.7744
v -146.2299 -1.7592 -8.6065
v -189.5465 6.2408 -6.0218
v -183.8866 6.2238 -6.8940
v -175.8105 6.4392 -8.2707
v -167.7840 8.5671 -7.8482
v -159.5336 5.9874 -7.8984
v -151.8676 3.8757 -7.5685
v -146.5810 3.4222 -10.0153
v -188.6886 10.5520 -5.1268
v -186.7886 10.5520 -5.1268
v -172.6783 10.6473 -10.4813
v -170.6176 10.6473 -10.4813
v 43.7676 177.9103 -4.5889
v 45.7993 177.9103 -4.5889
v 34.8404 185.1566 -5.5238
v 40.6506 182.5081 -7.7230
v 48.4661 180.4945 -7.5127
v 54.1308 183.8438 -7.8984
v 27.3716 192.7586 -4.9703
v 32.5551 190.2051 -7.9137
v 37.5336 187.6516 -10.8571
v 58.4676 190.6023 -7.2877
v 64.4664 193.6235 -10.0121
v 68.5789 194.1485 -11.7346
v 27.0764 198.2408 -5.4728
v 31.0926 198.2408 -9.4728
v 60.2491 194.4275 -4.2139
v 64.5874 197.5528 -6.4810
v 69.1881 198.2408 -10.8901
v 27.7079 203.5128 -4.9258
v 32.7227 206.3849 -7.9089
v 37.5790 209.2571 -10.8920
v 67.3347 204.7075 -5.3845
v 69.8574 206.9209 -7.9901
v 35.2808 211.2910 -5.5586
v 39.3698 214.0709 -8.0945
v 71.1181 214.2408 -7.8984
v 43.2612 218.6351 -7.8984
v 48.4664 219.6665 -7.8984
v 56.4664 220.5723 -7.8984
v 64.4664 220.9923 -7.8984
v 70.0167 219.6922 -7.8984
v 33.2788 -231.4732 0.1016
v 40.4664 -232.6616 0.1016
v 48.4664 -232.0829 0.1016
v 56.8452 -230.8649 0.2326
v 61.2548 -230.0884 -2.3467
v 19.2924 -222.4987 0.1016
v 24.4664 -225.6923 0.1016
v 29.2788 -228.9527 0.1016
v 59.7644 -228.6740 2.9867
v 62.5732 -225.9081 0.2326
v 12.4314 -213.9429 4.0093
v 15.8795 -217.0694 0.8462
v 58.6878 -215.7905 1.6678
v 62.2342 -218.1779 -0.5587
v 12.4314 -213.4891 4.0093
v 14.7315 -210.3971 0.8462
v 50.3268 -207.5267 2.0402
v 55.9853 -210.4726 -0.8127
v 60.6898 -213.4185 -3.6655
v 17.8574 -203.4764 0.1016
v 24.4664 -201.5411 0.1016
v 32.4664 -202.5118 0.1016
v 40.4664 -203.4361 0.1016
v 47.9826 -204.7127 -0.3353
v 53.2827 -205.3631 -3.2932
v -180.1469 -22.2903 2.4029
v -175.4602 -22.9974 -0.1176
v -167.7461 -23.2949 0.0590
v -161.3007 -22.7861 2.6972
v -188.2807 -14.2617 0.1016
v -183.1016 -18.3541 -0.1176
v -178.0779 -20.7474 -2.9304
v -165.2211 -20.6953 -2.6361
v -158.9939 -20.6925 0.0590
v -150.9389 -17.8005 0.6680
v -146.6366 -15.8753 -1.6211
v -196.1944 -6.7441 2.4623
v -192.3675 -9.5501 -0.0820
v -156.0937 -6.3176 -2.9556
v -151.2751 -8.7588 0.3783
v -146.6366 -11.2000 -1.6211
v -196.3221 -1.7592 1.9668
v -193.9756 -1.7592 -2.0332
v -156.6366 -2.0233 -0.5985
v -154.7157 -2.0233 -0.5985
v -195.9241 3.0039 2.8945
v -192.8587 5.8987 0.1773
v -182.0386 8.4397 0.1016
v -175.5336 6.6678 0.1016
v -167.5336 6.5630 0.1016
v -159.7212 4.0514 -0.5042
v -154.7569 2.4663 -3.5748
v -189.0433 10.8350 0.1016
v -186.0386 10.8350 0.1016
v 43.1612 177.4670 0.1016
v 46.0319 177.4670 0.1016
v 28.3398 186.1449 3.6054
v 32.2908 184.9621 0.6039
v 39.1612 180.7143 0.1016
v 50.0319 180.8076 0.1016
v 53.4198 184.8076 0.1016
v 26.2564 190.1515 0.6039
v 29.5070 187.4253 -1.7279
v 56.7752 190.2408 0.1016
v 24.1227 198.2408 0.1016
v 59.1598 197.5528 0.1104
v 62.0014 199.7608 -2.5504
v 27.1156 206.2040 0.8660
v 29.9475 208.8461 -1.2911
v 59.1037 206.2408 2.8843
v 64.5874 206.9209 -1.6177
v 68.6029 210.0408 -3.8075
v 28.4499 210.2756 4.0422
v 32.5550 211.7808 0.8660
v 41.1698 215.6728 -0.6106
v 48.4664 215.7683 0.8345
v 56.9671 213.9499 1.9185
v 64.4664 214.2408 -0.4167
v 69.2059 214.2408 -3.0647
v 44.3054 218.3036 -3.7521
v 48.4664 218.6516 -3.1655
v 56.4664 219.0560 -2.3990
v 64.4664 219.4199 -2.2565
v 69.3158 219.2109 -2.8777
v 34.1041 -231.5223 8.1016
v 40.4664 -233.5762 8.1016
v 48.4664 -233.0533 8.1016
v 55.0420 -230.9994 8.1016
v 19.5179 -222.1616 6.1493
v 23.9256 -223.8479 8.5302
v 30.1041 -228.0682 8.1016
v 59.0420 -228.4937 8.1016
v 61.7445 -224.4937 8.1016
v 12.4314 -213.9429 4.2250
v 16.6242 -217.7313 7.8538
v 20.8984 -221.5198 11.4827
v 58.0728 -216.2410 8.1016
v 61.7445 -220.2410 8.1016
v 12.4314 -213.4891 4.2250
v 15.2788 -210.3971 7.3756
v 49.7410 -208.1780 8.1016
v 54.0728 -212.1780 8.1016
v 19.0338 -204.4785 8.1016
v 24.4664 -202.8169 8.1016
v 32.4664 -202.7660 8.1016
v 40.4664 -203.4032 8.1016
v 45.7410 -204.7349 8.1016
v -180.1469 -22.2903 5.3005
v -174.9464 -22.9771 8.0209
v -167.5336 -23.8979 8.1016
v -160.7706 -22.7738 8.1016
v -188.0781 -14.0894 4.6709
v -182.6231 -16.7505 7.6523
v -177.2216 -19.4116 10.6338
v -156.7706 -21.2048 8.1016
v -150.9389 -16.5968 8.3187
v -147.4613 -13.8944 11.1302
v -196.1944 -6.7441 5.7304
v -191.2408 -9.3840 7.8673
v -185.0993 -12.0238 10.0042
v -149.1459 -9.7592 7.1477
v -147.3724 -9.7592 11.1477
v -196.3221 -1.7592 6.9278
v -194.3508 -1.7592 10.9278
v -157.8517 -0.6667 8.1016
v -151.8182 -4.8272 8.7213
v -147.3910 -5.6625 11.8012
v -195.9241 3.0039 6.2411
v -191.7392 6.0068 8.5446
v -183.5847 8.0561 8.1495
v -175.5336 6.4194 8.1016
v -167.5336 6.2486 8.1016
v -161.8517 4.2626 8.1016
v -188.3916 10.7219 5.5148
v -186.2853 10.7219 5.5148
v 43.4250 177.5396 5.2754
v 45.2208 177.5396 5.2754
v 28.3398 186.1449 4.4399
v 32.4664 185.4556 5.8861
v 40.6415 182.4702 7.2412
v 48.1191 183.0000 6.0504
v 52.5522 186.1727 4.1579
v 25.9934 190.2403 7.5046
v 32.4664 187.6203 9.8861
v 40.4664 187.4143 11.1458
v 48.0778 190.0754 9.0962
v 54.0491 190.2408 4.8315
v 22.9826 198.2408 8.1016
v 50.4854 196.2818 10.3518
v 55.1570 198.6654 7.8517
v 26.4665 206.8373 7.5160
v 32.4664 209.4734 9.8990
v 37.5004 209.5568 11.4741
v 56.8418 206.2408 8.1016
v 28.4499 210.2756 4.4590
v 32.4664 211.3781 5.8990
v 40.2868 212.1714 8.5251
v 48.4664 212.9155 8.1016
v 54.9967 211.6136 8.1016
v 35.6918 -230.6156 13.2540
v 40.4664 -231.3072 13.6564
v 49.0780 -230.8333 15.8540
v 53.7578 -230.1961 16.1016
v 26.2317 -222.5007 12.7452
v 33.1042 -225.3347 15.6662
v 40.4664 -227.2486 17.6564
v 46.8190 -228.0023 18.3556
v 57.7578 -228.3547 16.1016
v 61.9821 -224.3547 16.1016
v 19.0639 -216.1865 13.1307
v 23.9256 -218.4156 14.3055
v 30.5704 -217.7592 18.0847
v 51.3782 -214.7934 18.9947
v 56.4186 -215.7200 16.2375
v 61.9821 -219.4345 16.1016
v 19.3405 -209.7592 12.9117
v 24.4664 -209.7592 15.8969
v 29.7725 -209.7592 19.0868
v 49.9364 -209.8337 16.2375
v 53.7202 -212.5501 13.6614
v 20.3676 -205.6219 12.1526
v 24.4664 -205.0209 13.6247
v 32.2582 -204.3322 16.4894
v 40.4664 -202.2944 16.1016
v 46.1200 -203.4428 16.1016
v -171.8883 -21.9995 12.4739
v -167.5336 -22.1838 12.5824
v -162.0826 -22.0851 12.3703
v -179.7660 -14.0783 12.3647
v -174.4797 -16.7163 15.0860
v -167.5336 -18.6067 16.5824
v -159.4630 -19.5221 15.4628
v -151.5336 -16.4583 16.1016
v -147.4453 -13.9058 16.1016
v -189.0701 -6.6905 12.7871
v -182.8730 -9.5180 13.6679
v -176.8038 -9.7592 17.5453
v -155.7313 -6.0745 19.6873
v -151.5336 -7.5899 18.4351
v -147.3774 -10.2345 15.8170
v -190.3508 -1.7592 13.0674
v -183.0888 -1.7259 17.0714
v -178.3563 -4.3705 19.0968
v -157.7724 -2.0735 16.6530
v -151.5336 -5.0796 14.4351
v -147.3910 -5.6625 12.9606
v -189.7534 3.6763 12.7038
v -183.0888 4.3153 15.6629
v -175.5336 6.6077 16.1016
v -168.0983 8.8617 15.8466
v -161.9475 6.5814 15.8466
v -165.8081 10.7505 18.3433
v -162.6898 10.7505 18.3433
v 26.9332 192.9066 13.3568
v 32.4664 191.6203 14.5254
v 40.4664 191.4143 14.0178
v 45.1521 192.6319 12.6801
v 19.4061 201.4626 18.4034
v 24.1130 198.5056 15.8801
v 32.6748 198.2255 18.2235
v 40.4664 198.2408 16.2469
v 48.0778 198.6654 13.4416
v 53.5778 201.6152 12.4224
v 19.4061 203.2942 18.4034
v 24.1622 204.8829 15.8827
v 32.6748 205.4404 16.2844
v 40.2868 206.6304 14.2058
v 48.4664 206.2408 14.4112
v 54.2044 206.2408 13.0095
v 42.8338 210.7886 12.6365
v 48.4664 211.3881 13.1701
v 53.6723 211.2228 12.9913
v 52.1524 -229.8535 20.2461
v 52.7189 -229.8535 20.2461
v 35.8500 -222.8353 20.6810
v 40.4664 -223.2486 21.0216
v 49.0780 -225.5051 21.2768
v 55.8179 -225.7969 21.7502
v 61.4346 -223.1553 21.5378
v 34.5704 -217.7592 21.0721
v 40.4664 -217.7592 22.2857
v 48.6134 -217.5797 21.7726
v 56.4664 -219.2518 22.0540
v 61.4346 -220.0485 21.5378
v 33.7725 -209.7592 20.9442
v 40.4664 -209.7592 22.5404
v 46.4245 -209.7592 21.6978
v 34.7861 -204.9581 20.5104
v 40.4664 -203.6564 21.2764
v 45.4988 -203.7565 21.2591
v -171.7378 -14.0211 20.2134
v -167.5336 -14.6067 20.8252
v -159.5336 -15.2775 21.2905
v -151.5336 -14.6716 20.7287
v -147.4882 -13.8195 20.2054
v -172.8038 -9.7592 20.8009
v -167.5336 -9.7592 22.2133
v -158.8522 -9.1484 21.6708
v -151.5336 -11.5899 20.7287
v -147.4882 -13.2180 20.2054
v -180.1256 0.9629 20.6708
v -175.6273 -1.7259 21.5024
v -167.5336 -1.7592 22.7972
v -161.2485 -1.7592 21.4731
v -180.1256 2.9665 20.6708
v -175.5336 4.5586 21.2372
v -168.0983 6.8597 21.5292
v -162.4674 6.2408 21.1774
v -165.8081 10.7505 20.7376
v -162.6898 10.7505 20.7376
v 18.8221 201.5192 24.1016
v 23.8723 200.8483 24.0284
v 30.1471 200.8820 21.3129
v 11.7007 208.2405 27.2202
v 17.1234 206.0426 25.4381
v 23.8723 204.5771 24.0284
v 30.1471 203.2635 21.3129
v 11.7007 210.8001 27.2202
v 14.8585 210.8001 27.2202
v 19.3342 202.0570 28.2963
v 20.8096 202.0570 28.2963
v 4.2499 209.7920 35.7266
v 8.8070 208.2247 32.6766
v 16.6031 206.3436 30.4707
v 20.8096 204.0585 28.2963
v 4.2499 211.2643 35.7266
v 8.8070 211.6420 32.6766
v 14.5547 211.2247 32.1016
v 4.2499 209.7920 38.5409
v 8.4664 209.2210 38.4193
v 12.8587 209.3298 36.7527
v 3.0361 213.4584 40.4448
v 7.1509 213.3213 40.1034
v 12.8587 210.9934 36.7527
v 1.8223 219.1453 42.3487
v 5.3970 219.1453 42.3487
v -3.6851 218.2020 49.8830
v -0.7970 216.9273 47.6871
v 5.3970 215.6525 45.4912
v -4.6959 222.2408 50.2487
v -1.1152 220.9142 48.2098
v 5.3970 219.1453 45.4912
v -4.9318 226.3940 51.8496
v -3.3638 226.3940 51.8496
v -3.6851 218.2020 52.1805
v -3.4164 218.2020 52.1805
v -11.9424 225.8707 58.3676
v -7.3581 223.7965 54.9968
v -3.3183 222.2408 52.4686
v -22.0318 232.8601 58.8121
v -14.5023 230.4584 58.5899
v -6.9121 229.4477 56.9511
v -3.4092 230.1432 56.2429
v -35.8429 241.5019 59.6359
v -31.5336 240.4989 59.5482
v -24.3389 238.5624 59.3208
v -17.0622 236.4675 58.8121
v -4.8968 234.3964 59.9737
v -3.4545 234.3964 59.9737
v -35.8429 242.5758 59.6359
v -31.5336 242.5959 59.5482
v -26.6460 242.3793 59.8294
v -11.9424 225.8707 60.3128
v -10.9076 225.8707 60.3128
v -22.0318 232.8601 61.7477
v -14.5023 230.4584 61.0303
v -7.9022 230.9745 60.2710
v -3.4545 233.8923 60.2293
v -35.8429 241.5019 60.5589
v -31.5336 240.4989 60.6025
v -24.3389 238.5624 61.0299
v -17.0622 236.4675 61.7477
v -4.8968 234.3964 60.2293
v -3.4545 234.3964 60.2293
v -35.8429 242.5758 60.5589
v -31.5336 242.5959 60.6025
v -26.6460 242.3793 60.3122
v 36.2548 -22.2085 187.7606
v 40.4664 -23.7116 186.7229
v 45.8561 -23.9131 186.6044
v 36.2548 -20.9434 187.7606
v 40.4561 -18.0697 186.3616
v 48.5002 -17.5485 186.3232
v 53.0494 -14.7414 187.6967
v 43.4452 -9.7592 187.2982
v 47.6933 -9.7192 187.2159
v 56.4006 -9.1723 187.8068
v 64.4664 -6.0087 187.8866
v 68.7851 -5.8656 187.9995
v 44.4553 -5.7330 188.0921
v 48.2300 -2.1385 188.0125
v 56.8376 -1.4301 187.6382
v 65.2349 -1.0453 187.6782
v 68.7851 -3.2360 187.9995
v 51.9487 2.6272 187.9328
v 56.4664 3.4716 187.6607
v 63.0806 3.4954 187.6826
v 36.2548 -22.2085 188.9414
v 40.3791 -24.2475 191.8055
v 48.5002 -23.9788 192.8997
v 52.4678 -21.7607 196.0985
v 36.3010 -17.6289 192.2530
v 37.7184 -17.6289 192.2530
v 51.1894 -20.0747 190.7652
v 53.4859 -17.5485 192.8997
v 36.3471 -12.6378 195.5646
v 39.1801 -9.8863 192.5794
v 49.8446 -7.0259 189.0409
v 56.3163 -9.2099 190.7899
v 64.4664 -7.0852 192.1016
v 69.0712 -5.9965 192.1016
v 42.8418 -2.5435 192.3501
v 48.2300 -2.1385 189.4450
v 54.4184 -3.8774 189.0409
v 68.4139 2.0973 188.1259
v 70.2487 -1.0453 191.3162
v 43.8853 2.6946 195.1824
v 49.3673 5.3276 192.6918
v 56.4664 7.4716 190.2942
v 65.2349 6.1936 189.0613
v 72.9648 5.8028 192.8525
v 77.0311 8.1774 195.2441
v 52.1192 10.5467 195.5345
v 56.4664 11.4822 194.2942
v 64.4664 12.8802 193.2829
v 72.6854 14.7427 194.3602
v 76.9865 14.2408 195.3615
v 75.4981 18.3655 195.9722
v 76.5952 18.3655 195.9722
v 42.1173 -23.1361 200.1016
v 48.4664 -23.3141 200.1016
v 52.6569 -21.9372 200.1016
v 34.6150 -15.9108 200.1016
v 38.1173 -19.9108 200.1016
v 54.2608 -17.7592 200.1016
v 28.3155 -7.4632 203.8250
v 32.5655 -10.0505 200.1948
v 37.0175 -7.3044 196.5646
v 58.0703 -11.3379 200.1016
v 64.6763 -7.1482 199.9785
v 68.9541 -5.9692 197.2298
v 28.3155 -5.3714 203.8250
v 32.4664 -3.5456 202.2414
v 38.1128 -1.0210 199.5794
v 67.4830 -4.9876 202.5631
v 70.6947 -2.0962 199.9785
v 42.1110 3.5755 200.1016
v 49.0581 7.9050 200.4806
v 56.4664 9.3748 202.9230
v 63.1009 9.4254 203.2318
v 74.8860 4.1829 200.1016
v 77.1357 8.1829 200.1016
v 52.1192 10.5467 198.0667
v 56.4664 11.4822 198.9230
v 65.2471 12.3590 200.3797
v 72.6854 15.2014 199.4944
v 77.0791 13.8929 199.4944
v 75.4981 18.3655 196.4229
v 76.5952 18.3655 196.4229
v 27.1553 -30.4375 211.3626
v 32.4664 -30.4343 210.8721
v 36.8381 -29.9810 211.2013
v 20.0326 -23.0526 211.6941
v 24.4797 -25.7352 210.5942
v 32.4664 -25.7592 208.0872
v 39.8256 -25.1391 207.8110
v 48.7500 -22.7566 207.8600
v 52.7189 -21.9950 205.0323
v 20.0326 -20.5090 211.6941
v 24.2414 -17.8091 209.6042
v 31.8568 -18.3473 205.2402
v 37.4797 -21.4060 204.4208
v 50.7465 -17.7592 209.5773
v 53.4236 -17.7592 205.5773
v 27.1391 -9.9816 207.4682
v 28.7838 -12.7966 204.3792
v 51.0337 -11.9092 210.4719
v 55.9973 -9.2740 207.6737
v 62.1497 -6.6387 204.8756
v 28.0885 -5.4074 208.1016
v 32.4664 -2.4774 208.1016
v 37.6714 1.1709 208.1016
v 58.5353 -1.7592 210.3011
v 64.6763 -2.0962 206.6320
v 69.5285 0.3457 205.3863
v 40.8248 6.2363 208.2265
v 48.4664 8.9808 205.8674
v 57.9179 6.9250 208.4380
v 63.5409 7.4667 208.0753
v 72.3036 6.6326 205.1567
v 76.7941 9.5604 204.5688
v 42.1236 10.8246 210.9764
v 48.4664 10.8328 209.8674
v 56.4664 10.5105 210.0712
v 64.5658 10.3234 207.6782
v 72.4664 10.8141 204.4569
v 76.7941 10.9943 204.5688
v 27.1251 -30.4651 216.1016
v 32.0359 -30.4570 215.6418
v 36.8381 -29.9810 212.6686
v 19.4855 -23.7473 216.1016
v 23.1251 -27.7473 216.1016
v 34.4156 -28.0768 218.0020
v 39.6875 -25.4853 215.6469
v 46.2725 -22.8938 213.2917
v 12.1206 -14.0670 219.6929
v 17.1458 -17.2880 217.1271
v 21.4247 -15.1757 214.5612
v 42.5333 -17.7592 218.6302
v 46.7465 -17.7592 214.6302
v 11.6595 -9.7592 218.8288
v 16.4664 -9.7592 217.2591
v 22.9205 -9.7592 214.5319
v 43.8185 -12.7713 219.6163
v 47.9735 -9.6736 216.1449
v 53.1712 -6.5759 212.6734
v 11.7363 -4.6766 218.8132
v 16.4664 -3.9294 217.7209
v 25.0546 -3.5900 215.7701
v 31.9756 -0.3985 216.1218
v 37.9658 0.9172 213.4686
v 49.5431 -1.7592 217.3875
v 54.5353 -1.7592 213.3875
v 33.9339 6.2408 217.3469
v 37.8339 6.2408 213.3469
v 49.8396 6.2408 217.3437
v 56.8986 6.2915 213.2693
v 60.6973 8.9919 212.3917
v 35.2411 11.3447 217.7283
v 39.8607 11.6405 215.4776
v 48.1717 11.1014 215.6096
v 56.4664 10.5105 212.7042
v 60.6973 10.3950 212.3917
v 27.9892 -30.0220 220.3373
v 29.0822 -30.0220 220.3373
v 19.5922 -23.1166 221.0670
v 24.9800 -25.7736 221.2811
v 32.0359 -25.5498 221.0277
v 37.2035 -22.7435 220.6446
v 12.0892 -14.0775 224.1016
v 16.7419 -17.5788 223.8808
v 24.4664 -18.3200 225.3992
v 31.9115 -17.0428 225.0630
v 38.5333 -17.7592 221.7297
v 10.9430 -9.7592 224.1016
v 34.2082 -11.1500 227.0628
v 40.1480 -9.2940 223.7689
v 44.9133 -7.4379 220.4750
v 11.3202 -4.4225 224.1016
v 16.4664 -2.9687 224.1016
v 25.2218 -0.0900 224.5624
v 28.9817 1.7510 222.2030
v 41.2095 -1.7592 225.1457
v 45.5431 -1.7592 221.1457
v 28.3921 4.8499 227.5363
v 29.6420 7.0063 224.5624
v 42.8088 6.2408 226.1594
v 45.8396 6.2408 222.1594
v 33.5494 12.4675 224.1016
v 40.9524 12.4091 224.3366
v 45.3087 10.8859 221.8266
v 12.3091 -13.8758 228.6157
v 16.2061 -14.7737 231.6100
v 24.9928 -14.7873 231.7609
v 28.8749 -13.8986 228.8671
v 11.7498 -9.7592 230.2250
v 16.2061 -9.1184 234.3092
v 24.9928 -9.1184 234.5699
v 31.9115 -8.9936 230.0673
v 36.4775 -5.8166 228.1122
v 11.6682 -5.0595 230.4187
v 16.4664 -4.7985 231.4756
v 25.2218 -2.2104 230.9811
v 32.4664 -1.7592 230.8235
v 37.2095 -1.7592 228.8602
v 28.1778 7.0951 230.8297
v 30.7532 7.2696 230.8689
v 38.7438 6.6559 231.9021
v 27.9635 10.8463 233.4402
v 31.6680 11.9094 231.3048
v 38.5784 11.8724 232.1016
v 18.6993 -14.7251 236.9135
v 22.6771 -14.7251 236.9135
v 18.6993 -11.3578 236.9135
v 22.6771 -11.3578 236.9135
v 28.4214 2.1749 243.9673
v 28.5564 2.1749 243.9673
v 27.9449 6.5005 240.8210
v 31.4593 6.8032 240.3009
v 37.1389 9.5993 236.6345
v 27.8483 10.8962 240.1016
v 32.0038 10.9514 239.6213
v 37.1389 10.5513 236.6345
v 28.4214 2.1749 244.1458
v 28.5564 2.1749 244.1458
v 28.1917 6.2408 244.3154
v 28.9558 6.2408 244.3154
v 28.1451 10.5091 244.3424
v 29.0288 10.5091 244.3424
f 3 2 1
f 3 4 2
f 2 8 1
f 2 9 8
f 9 5 8
f 9 6 5
f 12 1 8
f 12 3 1
f 11 8 7
f 11 12 8
f 13 9 2
f 13 2 4
f 13 4 3
f 13 3 12
f 13 10 9
f 13 14 10
f 15 13 12
f 15 16 13
f 16 14 13
f 16 17 14
f 20 16 15
f 20 21 16
f 22 16 21
f 22 17 16
f 22 18 17
f 22 23 18
f 23 19 18
f 23 24 19
f 25 22 21
f 25 26 22
f 27 22 26
f 27 23 22
f 27 24 23
f 27 28 24
f 30 27 26
f 30 31 27
f 31 28 27
f 31 32 28
f 32 29 28
f 32 33 29
f 6 34 5
f 6 35 34
f 37 5 34
f 37 8 5
f 8 36 7
f 8 37 36
f 35 6 9
f 35 9 38
f 37 34 35
f 37 35 38
f 10 38 9
f 10 39 38
f 36 11 7
f 36 40 11
f 41 12 11
f 41 11 40
f 41 40 36
f 41 36 37
f 39 10 14
f 39 14 43
f 42 38 39
f 42 39 43
f 45 12 41
f 45 15 12
f 45 40 44
f 45 41 40
f 46 43 14
f 46 14 17
f 18 46 17
f 18 47 46
f 19 47 18
f 19 48 47
f 45 20 15
f 45 50 20
f 49 45 44
f 49 50 45
f 51 21 20
f 51 20 50
f 52 48 19
f 52 19 24
f 51 25 21
f 51 54 25
f 53 51 50
f 53 54 51
f 55 26 25
f 55 25 54
f 56 52 24
f 56 24 28
f 29 56 28
f 29 57 56
f 55 30 26
f 55 59 30
f 58 55 54
f 58 59 55
f 60 31 30
f 60 30 59
f 32 31 60
f 32 60 61
f 57 29 33
f 57 33 62
f 62 33 32
f 62 32 61
f 66 64 63
f 66 67 64
f 68 37 38
f 68 67 37
f 71 65 70
f 71 66 65
f 72 37 67
f 72 41 37
f 72 40 41
f 72 71 40
f 72 66 71
f 72 67 66
f 68 38 42
f 68 42 73
f 74 42 43
f 74 73 42
f 73 69 68
f 73 74 69
f 71 44 40
f 71 76 44
f 75 71 70
f 75 76 71
f 74 43 46
f 74 46 78
f 77 73 74
f 77 74 78
f 79 46 47
f 79 78 46
f 80 47 48
f 80 79 47
f 76 49 44
f 76 82 49
f 81 76 75
f 81 82 76
f 83 50 49
f 83 49 82
f 84 78 79
f 84 79 85
f 80 48 52
f 80 52 86
f 85 79 80
f 85 80 86
f 83 53 50
f 83 87 53
f 88 54 53
f 88 53 87
f 86 52 56
f 86 56 91
f 92 56 57
f 92 91 56
f 88 58 54
f 88 93 58
f 94 59 58
f 94 58 93
f 95 60 59
f 95 59 94
f 95 94 89
f 95 89 90
f 96 61 60
f 96 60 95
f 95 90 91
f 95 91 96
f 92 57 62
f 92 62 97
f 97 62 61
f 97 61 96
f 96 91 92
f 96 92 97
f 100 63 64
f 100 99 63
f 103 63 99
f 103 66 63
f 103 65 66
f 103 102 65
f 103 98 102
f 103 99 98
f 104 100 64
f 104 64 67
f 103 99 100
f 103 100 104
f 105 67 68
f 105 104 67
f 69 105 68
f 69 106 105
f 108 65 102
f 108 70 65
f 108 101 107
f 108 102 101
f 109 104 105
f 109 105 110
f 111 106 69
f 111 69 74
f 111 74 73
f 111 73 110
f 111 110 105
f 111 105 106
f 113 70 108
f 113 75 70
f 113 107 112
f 113 108 107
f 110 73 77
f 110 77 114
f 115 77 78
f 115 114 77
f 113 81 75
f 113 117 81
f 116 113 112
f 116 117 113
f 118 82 81
f 118 81 117
f 119 83 82
f 119 82 118
f 115 78 84
f 115 84 121
f 120 114 115
f 120 115 121
f 122 84 85
f 122 121 84
f 123 85 86
f 123 122 85
f 119 87 83
f 119 125 87
f 124 119 118
f 124 125 119
f 88 87 125
f 88 125 126
f 127 126 120
f 127 120 121
f 128 90 89
f 128 89 127
f 127 121 122
f 127 122 128
f 129 123 86
f 129 86 91
f 129 91 90
f 129 90 128
f 129 128 122
f 129 122 123
f 131 124 130
f 131 125 124
f 132 88 126
f 132 93 88
f 132 125 131
f 132 126 125
f 133 127 89
f 133 89 94
f 133 94 93
f 133 93 132
f 135 98 99
f 135 134 98
f 137 98 134
f 137 102 98
f 137 101 102
f 137 136 101
f 135 99 103
f 135 103 138
f 138 137 134
f 138 134 135
f 139 103 104
f 139 138 103
f 136 107 101
f 136 141 107
f 142 141 136
f 142 136 137
f 143 142 137
f 143 137 138
f 139 104 109
f 139 109 144
f 143 138 139
f 143 139 144
f 145 109 110
f 145 144 109
f 141 112 107
f 141 147 112
f 147 140 146
f 147 141 140
f 145 110 114
f 145 114 149
f 148 144 145
f 148 145 149
f 147 116 112
f 147 151 116
f 150 147 146
f 150 151 147
f 152 117 116
f 152 116 151
f 153 118 117
f 153 117 152
f 149 114 120
f 149 120 155
f 154 148 149
f 154 149 155
f 153 124 118
f 153 157 124
f 156 153 152
f 156 157 153
f 158 155 120
f 158 120 126
f 159 126 127
f 159 158 126
f 157 130 124
f 157 161 130
f 160 157 156
f 160 161 157
f 162 131 130
f 162 130 161
f 163 132 131
f 163 131 162
f 159 127 133
f 159 133 164
f 164 133 132
f 164 132 163
f 164 163 158
f 164 158 159
f 166 140 141
f 166 165 140
f 142 166 141
f 142 167 166
f 168 142 143
f 168 167 142
f 169 143 144
f 169 168 143
f 170 140 165
f 170 146 140
f 169 144 148
f 169 148 172
f 171 168 169
f 171 169 172
f 170 150 146
f 170 173 150
f 174 151 150
f 174 150 173
f 152 151 174
f 152 174 175
f 172 148 154
f 172 154 177
f 176 171 172
f 176 172 177
f 178 154 155
f 178 177 154
f 175 156 152
f 175 179 156
f 180 179 175
f 180 175 176
f 178 155 158
f 178 158 182
f 181 177 178
f 181 178 182
f 179 160 156
f 179 183 160
f 184 161 160
f 184 160 183
f 185 162 161
f 185 161 184
f 182 158 163
f 182 163 186
f 186 163 162
f 186 162 185
f 186 185 181
f 186 181 182
f 166 187 165
f 166 188 187
f 189 166 167
f 189 188 166
f 190 167 168
f 190 189 167
f 187 170 165
f 187 191 170
f 192 191 187
f 192 187 188
f 193 192 188
f 193 188 189
f 190 168 171
f 190 171 194
f 193 189 190
f 193 190 194
f 195 170 191
f 195 173 170
f 196 174 173
f 196 173 195
f 196 195 191
f 196 191 192
f 175 174 196
f 175 196 197
f 196 192 193
f 196 193 197
f 194 171 176
f 194 176 198
f 176 175 197
f 176 197 198
f 197 193 194
f 197 194 198
f 199 176 177
f 199 198 176
f 198 180 176
f 198 201 180
f 180 200 179
f 180 201 200
f 200 198 197
f 200 201 198
f 199 177 181
f 199 181 202
f 201 198 199
f 201 199 202
f 203 179 200
f 203 183 179
f 184 183 203
f 184 203 204
f 205 202 181
f 205 181 185
f 205 185 184
f 205 184 204
f 204 201 202
f 204 202 205
f 207 197 198
f 207 206 197
f 206 200 197
f 206 208 200
f 207 198 201
f 207 201 209
f 208 206 207
f 208 207 209
f 210 200 208
f 210 203 200
f 209 201 204
f 209 204 211
f 211 204 203
f 211 203 210
f 210 208 209
f 210 209 211
f 216 212 215
f 216 213 212
f 216 214 213
f 216 217 214
f 219 215 218
f 219 216 215
f 219 217 216
f 219 220 217
f 221 219 218
f 221 222 219
f 223 219 222
f 223 220 219
f 231 224 230
f 231 225 224
f 233 226 232
f 233 227 226
f 235 228 234
f 235 229 228
f 236 229 235
f 236 230 229
f 237 230 236
f 237 231 230
f 238 231 237
f 238 232 231
f 240 234 239
f 240 235 234
f 241 235 240
f 241 236 235
f 242 236 241
f 242 237 236
f 243 237 242
f 243 238 237
f 244 240 239
f 244 245 240
f 246 240 245
f 246 241 240
f 246 242 241
f 246 247 242
f 247 243 242
f 247 248 243
f 254 249 253
f 254 250 249
f 255 250 254
f 255 251 250
f 256 251 255
f 256 252 251
f 259 253 258
f 259 254 253
f 260 254 259
f 260 255 254
f 263 257 262
f 263 258 257
f 264 258 263
f 264 259 258
f 264 260 259
f 264 265 260
f 265 261 260
f 265 266 261
f 268 262 267
f 268 263 262
f 269 266 265
f 269 270 266
f 274 212 213
f 274 273 212
f 275 213 214
f 275 274 213
f 276 272 271
f 276 277 272
f 273 215 212
f 273 279 215
f 275 214 217
f 275 217 281
f 280 274 275
f 280 275 281
f 283 278 277
f 283 284 278
f 279 218 215
f 279 285 218
f 281 217 220
f 281 220 286
f 286 282 281
f 286 287 282
f 285 221 218
f 285 289 221
f 288 285 284
f 288 289 285
f 290 222 221
f 290 221 289
f 286 220 223
f 286 223 291
f 223 222 290
f 223 290 291
f 292 286 291
f 292 287 286
f 293 290 289
f 293 294 290
f 295 290 294
f 295 291 290
f 299 224 225
f 299 298 224
f 301 226 227
f 301 300 226
f 303 228 229
f 303 302 228
f 303 296 302
f 303 297 296
f 304 224 298
f 304 230 224
f 304 229 230
f 304 303 229
f 304 297 303
f 304 298 297
f 305 299 225
f 305 225 231
f 306 226 300
f 306 232 226
f 232 305 231
f 232 306 305
f 305 300 299
f 305 306 300
f 301 227 233
f 301 233 307
f 233 232 306
f 233 306 307
f 306 300 301
f 306 301 307
f 309 228 302
f 309 234 228
f 310 306 232
f 310 232 238
f 312 234 309
f 312 239 234
f 311 309 308
f 311 312 309
f 313 310 238
f 313 238 243
f 314 239 312
f 314 244 239
f 315 245 244
f 315 244 314
f 316 246 245
f 316 245 315
f 317 247 246
f 317 246 316
f 318 313 243
f 318 243 248
f 248 247 317
f 248 317 318
f 324 249 250
f 324 323 249
f 325 250 251
f 325 324 250
f 326 251 252
f 326 325 251
f 325 320 319
f 325 326 320
f 328 321 327
f 328 322 321
f 329 249 323
f 329 253 249
f 329 322 328
f 329 323 322
f 331 326 252
f 331 252 256
f 256 255 330
f 256 330 331
f 332 328 327
f 332 333 328
f 334 253 329
f 334 258 253
f 334 257 258
f 334 333 257
f 334 328 333
f 334 329 328
f 335 330 255
f 335 255 260
f 261 335 260
f 261 336 335
f 335 331 330
f 335 336 331
f 337 257 333
f 337 262 257
f 264 263 338
f 264 338 339
f 265 264 339
f 265 339 340
f 341 336 261
f 341 261 266
f 342 262 337
f 342 267 262
f 338 263 268
f 338 268 343
f 343 268 267
f 343 267 342
f 344 265 340
f 344 269 265
f 345 341 266
f 345 266 270
f 270 269 344
f 270 344 345
f 345 344 340
f 345 340 341
f 272 349 271
f 272 350 349
f 352 346 351
f 352 347 346
f 353 273 274
f 353 352 273
f 352 348 347
f 352 353 348
f 349 276 271
f 349 356 276
f 357 350 272
f 357 272 277
f 277 276 356
f 277 356 357
f 356 349 350
f 356 350 357
f 278 357 277
f 278 358 357
f 358 350 357
f 358 351 350
f 359 273 352
f 359 279 273
f 359 351 358
f 359 352 351
f 360 353 274
f 360 274 280
f 361 280 281
f 361 360 280
f 360 354 353
f 360 361 354
f 282 361 281
f 282 362 361
f 361 355 354
f 361 362 355
f 357 283 277
f 357 363 283
f 364 358 278
f 364 278 284
f 364 284 283
f 364 283 363
f 365 279 359
f 365 285 279
f 365 284 285
f 365 364 284
f 365 358 364
f 365 359 358
f 366 362 282
f 366 282 287
f 364 288 284
f 364 367 288
f 368 289 288
f 368 288 367
f 366 287 292
f 366 292 370
f 292 291 369
f 292 369 370
f 368 293 289
f 368 372 293
f 371 368 367
f 371 372 368
f 373 294 293
f 373 293 372
f 369 291 295
f 369 295 374
f 295 294 373
f 295 373 374
f 375 369 374
f 375 370 369
f 377 296 297
f 377 376 296
f 378 297 298
f 378 377 297
f 379 298 299
f 379 378 298
f 380 299 300
f 380 379 299
f 383 296 376
f 383 302 296
f 384 380 300
f 384 300 306
f 385 382 381
f 385 386 382
f 387 302 383
f 387 309 302
f 387 308 309
f 387 386 308
f 387 382 386
f 387 383 382
f 384 306 310
f 384 310 388
f 386 311 308
f 386 390 311
f 390 385 389
f 390 386 385
f 391 312 311
f 391 311 390
f 393 388 310
f 393 310 313
f 395 389 394
f 395 390 389
f 391 314 312
f 391 396 314
f 395 391 390
f 395 396 391
f 397 315 314
f 397 314 396
f 316 315 397
f 316 397 398
f 399 317 316
f 399 316 398
f 400 393 313
f 400 313 318
f 400 318 317
f 400 317 399
f 400 399 392
f 400 392 393
f 320 403 319
f 320 404 403
f 407 321 322
f 407 406 321
f 408 322 323
f 408 407 322
f 408 401 407
f 408 402 401
f 324 408 323
f 324 409 408
f 410 319 403
f 410 325 319
f 325 409 324
f 325 410 409
f 411 404 320
f 411 320 326
f 410 403 404
f 410 404 411
f 413 321 406
f 413 327 321
f 413 405 412
f 413 406 405
f 411 326 331
f 411 331 416
f 413 332 327
f 413 418 332
f 417 413 412
f 417 418 413
f 419 333 332
f 419 332 418
f 420 414 415
f 420 415 421
f 422 416 331
f 422 331 336
f 422 421 415
f 422 415 416
f 424 417 423
f 424 418 417
f 419 337 333
f 419 425 337
f 424 419 418
f 424 425 419
f 427 339 338
f 427 338 426
f 428 340 339
f 428 339 427
f 429 422 336
f 429 336 341
f 429 341 340
f 429 340 428
f 428 421 422
f 428 422 429
f 431 423 430
f 431 424 423
f 432 337 425
f 432 342 337
f 433 426 338
f 433 338 343
f 433 343 342
f 433 342 432
f 432 425 426
f 432 426 433
f 438 346 347
f 438 437 346
f 438 434 437
f 438 435 434
f 439 347 348
f 439 438 347
f 442 346 437
f 442 351 346
f 442 350 351
f 442 441 350
f 442 436 441
f 442 437 436
f 443 439 348
f 443 348 353
f 354 443 353
f 354 444 443
f 445 354 355
f 445 444 354
f 447 350 441
f 447 357 350
f 447 440 446
f 447 441 440
f 448 443 444
f 448 444 449
f 450 445 355
f 450 355 362
f 450 449 444
f 450 444 445
f 447 363 357
f 447 452 363
f 451 447 446
f 451 452 447
f 453 364 363
f 453 363 452
f 450 362 366
f 450 366 455
f 454 449 450
f 454 450 455
f 453 367 364
f 453 457 367
f 456 453 452
f 456 457 453
f 455 366 370
f 455 370 458
f 457 371 367
f 457 459 371
f 460 372 371
f 460 371 459
f 461 373 372
f 461 372 460
f 462 374 373
f 462 373 461
f 458 370 375
f 458 375 463
f 375 374 462
f 375 462 463
f 465 376 377
f 465 464 376
f 466 377 378
f 466 465 377
f 379 466 378
f 379 467 466
f 468 379 380
f 468 467 379
f 470 381 382
f 470 469 381
f 471 376 464
f 471 383 376
f 471 382 383
f 471 470 382
f 468 380 384
f 468 384 473
f 472 467 468
f 472 468 473
f 469 385 381
f 469 475 385
f 477 473 384
f 477 384 388
f 475 389 385
f 475 479 389
f 479 474 478
f 479 475 474
f 482 477 388
f 482 388 393
f 482 393 392
f 482 392 481
f 482 481 476
f 482 476 477
f 483 389 479
f 483 394 389
f 484 395 394
f 484 394 483
f 485 396 395
f 485 395 484
f 486 397 396
f 486 396 485
f 487 398 397
f 487 397 486
f 488 481 392
f 488 392 399
f 488 399 398
f 488 398 487
f 488 487 480
f 488 480 481
f 402 490 401
f 402 491 490
f 494 405 406
f 494 493 405
f 495 401 490
f 495 407 401
f 495 406 407
f 495 494 406
f 495 489 494
f 495 490 489
f 496 491 402
f 496 402 408
f 409 496 408
f 409 497 496
f 496 492 491
f 496 497 492
f 410 497 409
f 410 498 497
f 411 498 410
f 411 499 498
f 501 405 493
f 501 412 405
f 415 414 502
f 415 502 503
f 499 411 416
f 499 416 504
f 504 416 415
f 504 415 503
f 504 503 498
f 504 498 499
f 506 412 501
f 506 417 412
f 506 500 505
f 506 501 500
f 502 414 420
f 502 420 507
f 508 420 421
f 508 507 420
f 508 502 507
f 508 503 502
f 506 423 417
f 506 510 423
f 509 506 505
f 509 510 506
f 425 424 511
f 425 511 512
f 426 425 512
f 426 512 513
f 427 426 513
f 427 513 514
f 515 508 421
f 515 421 428
f 515 428 427
f 515 427 514
f 515 514 507
f 515 507 508
f 516 423 510
f 516 430 423
f 511 424 431
f 511 431 517
f 431 430 516
f 431 516 517
f 519 434 435
f 519 518 434
f 522 434 518
f 522 437 434
f 522 436 437
f 522 521 436
f 523 519 435
f 523 435 438
f 439 523 438
f 439 524 523
f 526 436 521
f 526 441 436
f 526 440 441
f 526 525 440
f 526 520 525
f 526 521 520
f 527 524 439
f 527 439 443
f 528 440 525
f 528 446 440
f 527 443 448
f 527 448 529
f 530 448 449
f 530 529 448
f 528 451 446
f 528 531 451
f 532 452 451
f 532 451 531
f 530 449 454
f 530 454 534
f 533 529 530
f 533 530 534
f 535 454 455
f 535 534 454
f 532 456 452
f 532 537 456
f 536 532 531
f 536 537 532
f 538 457 456
f 538 456 537
f 541 540 533
f 541 533 534
f 535 455 458
f 535 458 542
f 541 534 535
f 541 535 542
f 543 457 538
f 543 459 457
f 460 459 543
f 460 543 544
f 543 538 539
f 543 539 544
f 461 460 544
f 461 544 545
f 545 544 539
f 545 539 540
f 546 462 461
f 546 461 545
f 545 540 541
f 545 541 546
f 547 542 458
f 547 458 463
f 547 463 462
f 547 462 546
f 546 541 542
f 546 542 547
f 465 548 464
f 465 549 548
f 550 465 466
f 550 549 465
f 551 466 467
f 551 550 466
f 470 552 469
f 470 553 552
f 554 464 548
f 554 471 464
f 554 470 471
f 554 553 470
f 551 467 472
f 551 472 555
f 556 472 473
f 556 555 472
f 552 475 469
f 552 558 475
f 475 557 474
f 475 558 557
f 559 558 552
f 559 552 553
f 561 556 473
f 561 473 477
f 561 477 476
f 561 476 560
f 557 478 474
f 557 562 478
f 479 478 562
f 479 562 563
f 563 562 557
f 563 557 558
f 565 560 476
f 565 476 481
f 565 481 480
f 565 480 564
f 566 479 563
f 566 483 479
f 484 483 566
f 484 566 567
f 485 484 567
f 485 567 568
f 486 485 568
f 486 568 569
f 570 564 480
f 570 480 487
f 570 487 486
f 570 486 569
f 490 571 489
f 490 572 571
f 491 572 490
f 491 573 572
f 492 573 491
f 492 574 573
f 571 494 489
f 571 576 494
f 494 575 493
f 494 576 575
f 577 576 571
f 577 571 572
f 578 574 492
f 578 492 497
f 498 578 497
f 498 579 578
f 575 501 493
f 575 582 501
f 501 581 500
f 501 582 581
f 583 582 575
f 583 575 576
f 584 579 498
f 584 498 503
f 584 580 579
f 584 585 580
f 581 505 500
f 581 586 505
f 587 586 581
f 587 581 582
f 589 584 503
f 589 503 508
f 508 507 588
f 508 588 589
f 590 584 589
f 590 585 584
f 586 509 505
f 586 591 509
f 510 509 591
f 510 591 592
f 591 586 587
f 591 587 592
f 594 512 511
f 594 511 593
f 513 512 594
f 513 594 595
f 588 507 514
f 588 514 596
f 596 514 513
f 596 513 595
f 597 510 592
f 597 516 510
f 598 593 511
f 598 511 517
f 517 516 597
f 517 597 598
f 597 592 593
f 597 593 598
f 600 518 519
f 600 599 518
f 602 520 521
f 602 601 520
f 599 522 518
f 599 603 522
f 522 602 521
f 522 603 602
f 600 519 523
f 600 523 604
f 603 599 600
f 603 600 604
f 605 523 524
f 605 604 523
f 601 525 520
f 601 606 525
f 607 606 601
f 607 601 602
f 608 607 602
f 608 602 603
f 608 603 604
f 608 604 609
f 605 524 527
f 605 527 610
f 609 604 605
f 609 605 610
f 606 528 525
f 606 611 528
f 610 527 529
f 610 529 613
f 612 609 610
f 612 610 613
f 611 531 528
f 611 614 531
f 613 529 533
f 613 533 617
f 614 536 531
f 614 618 536
f 619 537 536
f 619 536 618
f 618 614 615
f 618 615 619
f 620 538 537
f 620 537 619
f 619 615 616
f 619 616 620
f 621 539 538
f 621 538 620
f 622 617 533
f 622 533 540
f 540 539 621
f 540 621 622
f 549 623 548
f 549 624 623
f 550 624 549
f 550 625 624
f 551 625 550
f 551 626 625
f 623 554 548
f 623 628 554
f 554 627 553
f 554 628 627
f 629 628 623
f 629 623 624
f 630 629 624
f 630 624 625
f 631 626 551
f 631 551 555
f 632 555 556
f 632 631 555
f 627 559 553
f 627 634 559
f 559 633 558
f 559 634 633
f 635 634 627
f 635 627 628
f 632 556 561
f 632 561 638
f 638 561 560
f 638 560 637
f 633 563 558
f 633 639 563
f 640 639 633
f 640 633 634
f 640 634 635
f 640 635 641
f 643 637 560
f 643 560 565
f 643 565 564
f 643 564 642
f 643 642 636
f 643 636 637
f 639 566 563
f 639 644 566
f 567 566 644
f 567 644 645
f 644 639 640
f 644 640 645
f 568 567 645
f 568 645 646
f 645 640 641
f 645 641 646
f 647 569 568
f 647 568 646
f 648 642 564
f 648 564 570
f 648 570 569
f 648 569 647
f 573 649 572
f 573 650 649
f 651 573 574
f 651 650 573
f 649 577 572
f 649 653 577
f 577 652 576
f 577 653 652
f 654 653 649
f 654 649 650
f 651 574 578
f 651 578 655
f 654 650 651
f 654 651 655
f 656 578 579
f 656 655 578
f 580 656 579
f 580 657 656
f 652 583 576
f 652 659 583
f 583 658 582
f 583 659 658
f 660 659 652
f 660 652 653
f 663 657 580
f 663 580 585
f 658 587 582
f 658 664 587
f 665 664 658
f 665 658 659
f 666 665 659
f 666 659 660
f 668 589 588
f 668 588 667
f 668 667 661
f 668 661 662
f 669 663 585
f 669 585 590
f 590 589 668
f 590 668 669
f 668 662 663
f 668 663 669
f 670 587 664
f 670 592 587
f 593 592 670
f 593 670 671
f 670 664 665
f 670 665 671
f 594 593 671
f 594 671 672
f 673 595 594
f 673 594 672
f 674 667 588
f 674 588 596
f 674 596 595
f 674 595 673
f 675 674 673
f 675 676 674
f 607 677 606
f 607 678 677
f 608 678 607
f 608 679 678
f 680 608 609
f 680 679 608
f 677 611 606
f 677 682 611
f 683 682 677
f 683 677 678
f 684 683 678
f 684 678 679
f 680 609 612
f 680 612 685
f 684 679 680
f 684 680 685
f 686 612 613
f 686 685 612
f 688 611 682
f 688 614 611
f 688 681 687
f 688 682 681
f 689 615 614
f 689 614 688
f 616 615 689
f 616 689 690
f 689 683 684
f 689 684 690
f 690 684 685
f 690 685 691
f 686 613 617
f 686 617 692
f 691 685 686
f 691 686 692
f 693 616 690
f 693 620 616
f 621 620 693
f 621 693 694
f 693 690 691
f 693 691 694
f 692 617 622
f 692 622 695
f 695 622 621
f 695 621 694
f 695 694 691
f 695 691 692
f 626 696 625
f 626 697 696
f 629 698 628
f 629 699 698
f 696 630 625
f 696 700 630
f 630 699 629
f 630 700 699
f 697 626 631
f 697 631 701
f 701 700 696
f 701 696 697
f 702 631 632
f 702 701 631
f 698 635 628
f 698 703 635
f 704 703 698
f 704 698 699
f 705 704 699
f 705 699 700
f 706 637 636
f 706 636 705
f 706 705 700
f 706 700 701
f 702 632 638
f 702 638 707
f 638 637 706
f 638 706 707
f 706 701 702
f 706 702 707
f 708 635 703
f 708 641 635
f 709 708 703
f 709 703 704
f 710 705 636
f 710 636 642
f 710 709 704
f 710 704 705
f 711 641 708
f 711 646 641
f 647 646 711
f 647 711 712
f 711 708 709
f 711 709 712
f 710 642 648
f 710 648 713
f 713 648 647
f 713 647 712
f 713 712 709
f 713 709 710
f 654 714 653
f 654 715 714
f 716 654 655
f 716 715 654
f 656 716 655
f 656 717 716
f 657 717 656
f 657 718 717
f 714 660 653
f 714 719 660
f 720 719 714
f 720 714 715
f 720 715 716
f 720 716 721
f 722 662 661
f 722 661 721
f 722 721 716
f 722 716 717
f 723 718 657
f 723 657 663
f 663 662 722
f 663 722 723
f 723 722 717
f 723 717 718
f 719 666 660
f 719 725 666
f 666 724 665
f 666 725 724
f 726 725 719
f 726 719 720
f 727 721 661
f 727 661 667
f 727 726 720
f 727 720 721
f 728 665 724
f 728 671 665
f 672 671 728
f 672 728 729
f 729 728 724
f 729 724 725
f 730 673 672
f 730 672 729
f 729 725 726
f 729 726 730
f 727 667 674
f 727 674 731
f 731 730 726
f 731 726 727
f 730 675 673
f 730 732 675
f 731 674 676
f 731 676 733
f 676 675 732
f 676 732 733
f 732 730 731
f 732 731 733
f 735 681 682
f 735 734 681
f 736 682 683
f 736 735 682
f 734 687 681
f 734 738 687
f 739 688 687
f 739 687 738
f 740 736 683
f 740 683 689
f 740 689 688
f 740 688 739
f 740 739 735
f 740 735 736
f 742 737 741
f 742 738 737
f 744 734 735
f 744 743 734
f 743 738 734
f 743 747 738
f 747 737 738
f 747 746 737
f 744 735 739
f 744 739 748
f 748 739 738
f 748 738 747
f 748 747 743
f 748 743 744
f 746 741 737
f 746 750 741
f 750 745 749
f 750 746 745
f 747 738 742
f 747 742 751
f 751 742 741
f 751 741 750
f 753 745 746
f 753 752 745
f 754 746 747
f 754 753 746
f 752 749 745
f 752 755 749
f 756 750 749
f 756 749 755
f 756 755 752
f 756 752 753
f 754 747 751
f 754 751 757
f 757 751 750
f 757 750 756
f 757 756 753
f 757 753 754
f 759 755 758
f 759 756 755
f 762 755 756
f 762 761 755
f 761 758 755
f 761 764 758
f 764 760 763
f 764 761 760
f 762 756 759
f 762 759 765
f 765 759 758
f 765 758 764
f 765 764 761
f 765 761 762
f 767 763 766
f 767 764 763
f 769 760 761
f 769 768 760
f 768 763 760
f 768 771 763
f 769 761 764
f 769 764 772
f 772 771 768
f 772 768 769
f 771 766 763
f 771 775 766
f 775 770 774
f 775 771 770
f 772 764 767
f 772 767 776
f 776 767 766
f 776 766 775
f 776 775 771
f 776 771 772
f 780 773 779
f 780 774 773
f 781 776 775
f 781 782 776
f 784 777 783
f 784 778 777
f 785 778 784
f 785 779 778
f 787 770 771
f 787 786 770
f 786 774 770
f 786 789 774
f 789 773 774
f 789 788 773
f 787 771 775
f 787 775 790
f 790 775 774
f 790 774 789
f 789 786 787
f 789 787 790
f 776 790 775
f 776 791 790
f 793 777 778
f 793 792 777
f 794 773 788
f 794 779 773
f 779 793 778
f 779 794 793
f 789 774 780
f 789 780 795
f 780 779 794
f 780 794 795
f 795 794 788
f 795 788 789
f 790 781 775
f 790 796 781
f 791 776 782
f 791 782 797
f 782 781 796
f 782 796 797
f 796 790 791
f 796 791 797
f 792 783 777
f 792 798 783
f 799 784 783
f 799 783 798
f 799 798 792
f 799 792 793
f 800 794 779
f 800 779 785
f 800 785 784
f 800 784 799
f 800 799 793
f 800 793 794
f 804 802 801
f 804 805 802
f 805 803 802
f 805 806 803
f 808 806 805
f 808 809 806
f 809 807 806
f 809 810 807
f 813 809 808
f 813 814 809
f 815 811 810
f 815 816 811
f 817 811 816
f 817 812 811
f 818 815 814
f 818 819 815
f 820 815 819
f 820 816 815
f 802 821 801
f 802 822 821
f 803 822 802
f 803 823 822
f 821 804 801
f 821 825 804
f 826 805 804
f 826 804 825
f 826 825 821
f 826 821 822
f 827 823 803
f 827 803 806
f 807 827 806
f 807 828 827
f 827 824 823
f 827 828 824
f 830 805 826
f 830 808 805
f 829 826 825
f 829 830 826
f 832 828 807
f 832 807 810
f 810 809 831
f 810 831 832
f 811 832 810
f 811 833 832
f 812 833 811
f 812 834 833
f 830 813 808
f 830 835 813
f 831 809 814
f 831 814 836
f 836 814 813
f 836 813 835
f 837 810 832
f 837 815 810
f 837 814 815
f 837 836 814
f 837 831 836
f 837 832 831
f 834 812 817
f 834 817 839
f 817 816 838
f 817 838 839
f 836 818 814
f 836 841 818
f 840 836 835
f 840 841 836
f 842 819 818
f 842 818 841
f 838 816 820
f 838 820 843
f 820 819 842
f 820 842 843
f 844 838 843
f 844 839 838
f 846 842 841
f 846 847 842
f 848 842 847
f 848 843 842
f 848 844 843
f 848 849 844
f 849 845 844
f 849 850 845
f 851 850 849
f 851 852 850
f 823 853 822
f 823 854 853
f 824 854 823
f 824 855 854
f 857 822 853
f 857 826 822
f 857 825 826
f 857 856 825
f 858 855 824
f 858 824 828
f 856 829 825
f 856 860 829
f 861 830 829
f 861 829 860
f 862 858 828
f 862 828 832
f 833 862 832
f 833 863 862
f 864 833 834
f 864 863 833
f 866 859 865
f 866 860 859
f 861 835 830
f 861 867 835
f 866 861 860
f 866 867 861
f 864 834 839
f 864 839 869
f 868 863 864
f 868 864 869
f 867 840 835
f 867 870 840
f 871 841 840
f 871 840 870
f 869 839 844
f 869 844 874
f 845 874 844
f 845 875 874
f 871 846 841
f 871 876 846
f 877 847 846
f 877 846 876
f 876 871 872
f 876 872 877
f 848 847 877
f 848 877 878
f 877 872 873
f 877 873 878
f 849 848 878
f 849 878 879
f 880 875 845
f 880 845 850
f 881 849 879
f 881 851 849
f 882 880 850
f 882 850 852
f 852 851 881
f 852 881 882
f 881 879 880
f 881 880 882
f 888 883 887
f 888 884 883
f 888 885 884
f 888 889 885
f 890 853 854
f 890 889 853
f 891 854 855
f 891 890 854
f 892 887 886
f 892 893 887
f 893 888 887
f 893 894 888
f 895 853 889
f 895 857 853
f 895 856 857
f 895 894 856
f 895 888 894
f 895 889 888
f 891 855 858
f 891 858 897
f 896 890 891
f 896 891 897
f 899 856 894
f 899 860 856
f 899 859 860
f 899 898 859
f 899 893 898
f 899 894 893
f 897 858 862
f 897 862 901
f 900 896 897
f 900 897 901
f 902 862 863
f 902 901 862
f 903 859 898
f 903 865 859
f 904 866 865
f 904 865 903
f 905 867 866
f 905 866 904
f 902 863 868
f 902 868 907
f 906 901 902
f 906 902 907
f 908 868 869
f 908 907 868
f 905 870 867
f 905 909 870
f 910 871 870
f 910 870 909
f 872 871 910
f 872 910 911
f 873 872 911
f 873 911 912
f 912 911 906
f 912 906 907
f 908 869 874
f 908 874 913
f 912 907 908
f 912 908 913
f 875 913 874
f 875 914 913
f 915 910 909
f 915 916 910
f 917 910 916
f 917 911 910
f 918 873 912
f 918 878 873
f 918 911 917
f 918 912 911
f 919 879 878
f 919 878 918
f 918 912 913
f 918 913 919
f 920 914 875
f 920 875 880
f 880 879 919
f 880 919 920
f 919 913 914
f 919 914 920
f 922 883 884
f 922 921 883
f 923 884 885
f 923 922 884
f 925 883 921
f 925 887 883
f 925 886 887
f 925 924 886
f 927 923 885
f 927 885 889
f 926 922 923
f 926 923 927
f 928 889 890
f 928 927 889
f 924 892 886
f 924 930 892
f 931 893 892
f 931 892 930
f 928 890 896
f 928 896 933
f 932 927 928
f 932 928 933
f 935 929 934
f 935 930 929
f 936 893 931
f 936 898 893
f 935 931 930
f 935 936 931
f 933 896 900
f 933 900 938
f 937 932 933
f 937 933 938
f 939 900 901
f 939 938 900
f 940 935 934
f 940 941 935
f 936 903 898
f 936 942 903
f 941 936 935
f 941 942 936
f 943 904 903
f 943 903 942
f 944 905 904
f 944 904 943
f 939 901 906
f 939 906 946
f 945 938 939
f 945 939 946
f 948 905 944
f 948 909 905
f 947 944 943
f 947 948 944
f 950 946 906
f 950 906 911
f 949 945 946
f 949 946 950
f 951 911 912
f 951 950 911
f 948 915 909
f 948 953 915
f 952 948 947
f 952 953 948
f 954 916 915
f 954 915 953
f 955 917 916
f 955 916 954
f 955 954 949
f 955 949 950
f 956 951 912
f 956 912 918
f 956 918 917
f 956 917 955
f 955 950 951
f 955 951 956
f 958 921 922
f 958 957 921
f 957 925 921
f 957 960 925
f 925 959 924
f 925 960 959
f 958 922 926
f 958 926 961
f 960 957 958
f 960 958 961
f 962 926 927
f 962 961 926
f 959 930 924
f 959 964 930
f 964 929 930
f 964 963 929
f 965 964 959
f 965 959 960
f 965 960 961
f 965 961 966
f 962 927 932
f 962 932 967
f 966 961 962
f 966 962 967
f 968 929 963
f 968 934 929
f 967 932 937
f 967 937 970
f 969 966 967
f 969 967 970
f 971 937 938
f 971 970 937
f 968 940 934
f 968 972 940
f 973 941 940
f 973 940 972
f 974 942 941
f 974 941 973
f 975 943 942
f 975 942 974
f 971 938 945
f 971 945 977
f 976 970 971
f 976 971 977
f 975 947 943
f 975 979 947
f 978 975 974
f 978 979 975
f 977 945 949
f 977 949 981
f 981 980 976
f 981 976 977
f 982 947 979
f 982 952 947
f 983 953 952
f 983 952 982
f 984 981 949
f 984 949 954
f 984 954 953
f 984 953 983
f 984 983 980
f 984 980 981
f 964 985 963
f 964 986 985
f 965 986 964
f 965 987 986
f 988 965 966
f 988 987 965
f 985 968 963
f 985 989 968
f 989 985 986
f 989 986 990
f 988 966 969
f 988 969 992
f 991 987 988
f 991 988 992
f 993 969 970
f 993 992 969
f 994 968 989
f 994 972 968
f 973 972 994
f 973 994 995
f 995 994 989
f 995 989 990
f 996 974 973
f 996 973 995
f 995 990 991
f 995 991 996
f 996 991 992
f 996 992 997
f 993 970 976
f 993 976 998
f 997 992 993
f 997 993 998
f 996 978 974
f 996 999 978
f 1000 979 978
f 1000 978 999
f 999 996 997
f 999 997 1000
f 998 976 980
f 998 980 1001
f 1001 1000 997
f 1001 997 998
f 1003 979 1000
f 1003 982 979
f 1002 1000 999
f 1002 1003 1000
f 1004 1001 980
f 1004 980 983
f 1004 983 982
f 1004 982 1003
f 987 1005 986
f 987 1006 1005
f 1005 990 986
f 1005 1007 990
f 1006 987 991
f 1006 991 1008
f 991 990 1007
f 991 1007 1008
f 1007 1005 1006
f 1007 1006 1008
f 1012 999 1000
f 1012 1011 999
f 1011 1010 1009
f 1011 1012 1010
f 1013 1000 1001
f 1013 1012 1000
f 1011 1002 999
f 1011 1014 1002
f 1015 1003 1002
f 1015 1002 1014
f 1013 1001 1004
f 1013 1004 1016
f 1016 1004 1003
f 1016 1003 1015
f 1015 1012 1013
f 1015 1013 1016
f 1010 1017 1009
f 1010 1018 1017
f 1019 1009 1017
f 1019 1011 1009
f 1020 1018 1010
f 1020 1010 1012
f 1019 1017 1018
f 1019 1018 1020
f 1021 1011 1019
f 1021 1014 1011
f 1022 1020 1012
f 1022 1012 1015
f 1022 1015 1014
f 1022 1014 1021
f 1021 1019 1020
f 1021 1020 1022
