# parsimony mesh: cplx_CPLX0-7660 (source /Users/eranagmon/code/v2e-cplx/workspace/studies/ecoli-3d/viz/3d/structures/cplx_CPLX0-7660.pdb)
# atoms: 5844  voxel: 16 Å  verts: 177  tris: 340
v 31.2907 -3.8676 -94.2383
v 33.0398 -3.8676 -94.2383
v 30.5460 4.7657 -95.2534
v 33.6112 4.7657 -95.2534
v 30.7962 14.2173 -94.9489
v 33.1341 14.2173 -94.9489
v 31.2907 -3.8676 -91.4176
v 33.0398 -3.8676 -91.4176
v 12.3269 10.1864 -79.0938
v 25.7101 4.7067 -85.2557
v 34.4768 4.6425 -85.7601
v -0.5005 26.1042 -78.5263
v 7.4115 20.7688 -80.3386
v 24.8931 20.0367 -86.8737
v 34.4554 20.0367 -84.5605
v -0.5005 30.7497 -78.5263
v 8.0385 33.1538 -79.7398
v 24.0385 32.7111 -79.9087
v 33.0043 30.1594 -78.7515
v 14.8718 -3.5121 -62.1601
v 16.5843 -3.5121 -62.1601
v -0.0851 12.1906 -62.2003
v 8.2660 5.8552 -67.5135
v 22.7659 1.9251 -68.2056
v 34.6069 9.1495 -69.2739
v -0.8035 20.7688 -68.2298
v 1.6602 15.4375 -72.8670
v 31.1238 27.9129 -62.6294
v 34.6727 21.8540 -68.4872
v -0.9213 31.0772 -69.2739
v 8.0385 36.0793 -69.2739
v 25.0897 33.6036 -68.4872
v 33.0043 30.1594 -73.2961
v 14.8718 -3.5121 -60.8692
v 16.5843 -3.5121 -60.8692
v -0.0851 12.1906 -61.0469
v 8.9385 6.0206 -59.4999
v 22.7659 5.1959 -58.6653
v 33.4963 10.8161 -59.6560
v -0.6097 20.7657 -60.3037
v 8.0385 20.7657 -57.2363
v 25.0897 21.8540 -57.8493
v 33.4963 17.2462 -59.6560
v -0.7022 29.8636 -60.2073
v 8.0385 31.6912 -59.1504
v 20.4571 31.5684 -59.5092
v 30.8518 -69.1046 -30.2603
v 33.5554 -69.1046 -30.2603
v 30.8518 -65.7372 -30.2603
v 33.5554 -65.7372 -30.2603
v 29.2966 -70.1391 -21.2739
v 34.8228 -70.1391 -21.2739
v 10.9139 -52.8164 -14.0090
v 24.8772 -59.2768 -19.5961
v 34.8890 -59.9361 -20.4195
v 12.0818 -43.2343 -13.8298
v 22.4449 -44.0623 -14.4641
v 33.0769 -49.9477 -14.5165
v 15.8876 -35.2274 -13.2800
v 16.0491 -35.2274 -13.2800
v -50.7583 10.3563 -16.2891
v -45.0277 10.3563 -16.2891
v -65.5485 26.3771 -13.8984
v -56.4878 20.6321 -15.0937
v -45.0277 14.8871 -16.2891
v -65.5485 33.2582 -13.8984
v -62.2174 33.2582 -13.8984
v -0.4012 -68.2169 2.0397
v 8.0385 -69.4537 0.5331
v 24.1570 -70.4971 -5.0165
v 35.5080 -69.8304 -5.2739
v -0.6429 -59.2343 -1.5356
v 6.5637 -58.5836 -8.4259
v 18.9026 -63.4831 -10.1783
v 37.5156 -59.2343 -5.2739
v -0.4303 -47.1867 -2.2698
v 3.8619 -42.4057 -6.6714
v 25.9744 -39.6184 -5.2739
v 34.0460 -47.6184 -5.2739
v 12.6612 -34.7057 -5.2739
v 17.9744 -34.7057 -5.2739
v -66.0936 -4.1361 1.4727
v -62.0625 -4.1361 1.4727
v -67.2373 4.7657 -0.8052
v -56.4104 5.0256 -4.9614
v -42.4743 9.1555 -5.2739
v -67.5149 20.9325 -5.7469
v -56.4878 20.6321 -11.1359
v -41.7417 20.4386 -5.4354
v -66.7266 34.6011 -5.2739
v -56.5151 34.6800 -5.4354
v -44.9114 30.8424 -0.2097
v -0.4012 -68.2169 4.2582
v 7.8992 -69.8739 10.0453
v 24.7144 -70.1596 11.4873
v 34.4691 -68.6930 6.6614
v -0.6429 -59.2343 7.3744
v 2.6646 -59.2343 15.3744
v 27.6117 -59.2343 15.8236
v 35.0902 -59.2343 7.8236
v -0.4303 -47.1867 7.3917
v 6.3959 -43.4477 11.2481
v 23.1427 -43.7042 10.3459
v 33.6768 -47.6997 5.5875
v 11.6863 -34.5364 4.4378
v 18.6091 -34.5364 4.4378
v -66.0936 -4.1361 5.9270
v -62.0625 -4.1361 5.9270
v -67.5364 4.2437 11.0466
v -56.4221 2.5036 11.0466
v -44.1935 10.5905 10.7261
v -69.6348 20.7657 10.7261
v -50.2476 24.6951 16.6000
v -43.1170 19.9233 11.0504
v -66.7652 32.4890 10.7261
v -55.7332 32.9903 11.0504
v -44.9114 30.8424 5.9333
v 13.1397 -68.6744 19.9105
v 19.8317 -68.6744 19.9105
v 10.6646 -59.2343 19.8235
v 19.6117 -59.2343 19.8235
v 11.7720 -50.3754 19.0049
v 17.0096 -50.3754 19.0049
v -65.5520 9.2291 19.9465
v -55.9615 9.7412 19.8896
v -47.3200 12.2697 19.0570
v -66.3832 20.7657 20.5797
v -55.7332 19.9233 20.4075
v -47.3200 14.0284 19.0570
v -65.6000 30.4422 19.9771
v -60.9143 30.4422 19.9771
v 31.0443 -4.0854 49.6387
v 33.3557 -4.0854 49.6387
v 30.5755 4.7657 48.9865
v 33.7579 4.7657 48.9865
v 31.0820 13.9869 49.4941
v 33.0138 13.9869 49.4941
v 31.0443 -4.0854 53.1882
v 33.3557 -4.0854 53.1882
v 13.0420 10.7933 65.2896
v 25.7298 4.9537 59.2389
v 34.5854 4.5748 58.6033
v -0.8044 26.0627 65.2750
v 7.8406 20.7439 63.9795
v 25.0646 19.8984 57.9090
v 34.1669 19.8984 59.7849
v -0.8044 31.4631 65.2750
v 8.0385 33.6576 64.3702
v 24.0385 32.3057 64.7821
v 32.6582 29.6605 65.8241
v 14.6626 -3.4356 82.2463
v 16.5027 -3.4356 82.2463
v -0.5242 10.0401 80.6263
v 8.5190 5.0834 76.1030
v 22.7170 2.0588 76.0382
v 34.6927 8.8613 74.7261
v -1.3225 20.7439 75.0662
v 2.3754 15.3961 69.9597
v 35.2039 20.7657 74.7261
v -1.2407 31.7884 74.7261
v 8.0385 37.1502 74.7261
v 24.0385 34.8483 74.7261
v 32.5497 29.4865 74.7261
v 14.6626 -3.4356 83.0700
v 16.5027 -3.4356 83.0700
v -0.5242 10.0401 83.9027
v 8.8130 4.7303 85.2556
v 22.7170 5.0332 85.7329
v 33.6251 10.5448 84.6981
v -1.0306 20.7657 84.6610
v 8.0385 20.7657 88.3685
v 24.0385 20.7657 87.9621
v 33.2749 20.7657 84.2547
v -0.8242 30.0986 84.1293
v 8.0385 32.2583 85.4645
v 24.0385 31.3084 84.4616
v 32.1004 28.8320 82.7921
f 4 1 3
f 4 2 1
f 6 3 5
f 6 4 3
f 2 7 1
f 2 8 7
f 7 3 1
f 7 10 3
f 8 2 4
f 8 4 11
f 11 10 7
f 11 7 8
f 10 5 3
f 10 14 5
f 14 9 13
f 14 10 9
f 11 4 6
f 11 6 15
f 15 6 5
f 15 5 14
f 17 12 16
f 17 13 12
f 18 13 17
f 18 14 13
f 19 14 18
f 19 15 14
f 24 9 10
f 24 23 9
f 24 20 23
f 24 21 20
f 25 10 11
f 25 24 10
f 27 9 23
f 27 13 9
f 27 12 13
f 27 26 12
f 27 22 26
f 27 23 22
f 25 11 15
f 25 15 29
f 30 12 26
f 30 16 12
f 31 17 16
f 31 16 30
f 18 17 31
f 18 31 32
f 29 15 19
f 29 19 33
f 33 19 18
f 33 18 32
f 33 32 28
f 33 28 29
f 21 34 20
f 21 35 34
f 37 20 34
f 37 23 20
f 37 22 23
f 37 36 22
f 35 21 24
f 35 24 38
f 38 37 34
f 38 34 35
f 39 24 25
f 39 38 24
f 40 22 36
f 40 26 22
f 41 40 36
f 41 36 37
f 41 37 38
f 41 38 42
f 43 39 25
f 43 25 29
f 43 29 28
f 43 28 42
f 42 38 39
f 42 39 43
f 44 26 40
f 44 30 26
f 45 31 30
f 45 30 44
f 44 40 41
f 44 41 45
f 46 42 28
f 46 28 32
f 46 32 31
f 46 31 45
f 46 45 41
f 46 41 42
f 49 48 47
f 49 50 48
f 52 47 48
f 52 51 47
f 51 49 47
f 51 54 49
f 52 48 50
f 52 50 55
f 55 50 49
f 55 49 54
f 57 53 56
f 57 54 53
f 58 54 57
f 58 55 54
f 60 56 59
f 60 57 56
f 65 61 64
f 65 62 61
f 67 63 66
f 67 64 63
f 71 51 52
f 71 70 51
f 72 69 68
f 72 73 69
f 74 51 70
f 74 54 51
f 74 53 54
f 74 73 53
f 74 69 73
f 74 70 69
f 71 52 55
f 71 55 75
f 77 53 73
f 77 56 53
f 76 73 72
f 76 77 73
f 75 55 58
f 75 58 79
f 79 58 57
f 79 57 78
f 80 56 77
f 80 59 56
f 78 57 60
f 78 60 81
f 81 60 59
f 81 59 80
f 84 83 82
f 84 85 83
f 86 61 62
f 86 85 61
f 88 61 85
f 88 64 61
f 88 63 64
f 88 87 63
f 87 85 84
f 87 88 85
f 86 62 65
f 86 65 89
f 65 64 88
f 65 88 89
f 90 63 87
f 90 66 63
f 88 64 67
f 88 67 91
f 67 66 90
f 67 90 91
f 92 88 91
f 92 89 88
f 69 93 68
f 69 94 93
f 95 69 70
f 95 94 69
f 96 70 71
f 96 95 70
f 97 68 93
f 97 72 68
f 97 93 94
f 97 94 98
f 96 71 75
f 96 75 100
f 99 95 96
f 99 96 100
f 101 72 97
f 101 76 72
f 77 76 101
f 77 101 102
f 101 97 98
f 101 98 102
f 104 100 75
f 104 75 79
f 104 79 78
f 104 78 103
f 104 103 99
f 104 99 100
f 105 77 102
f 105 80 77
f 106 103 78
f 106 78 81
f 106 81 80
f 106 80 105
f 105 102 103
f 105 103 106
f 83 107 82
f 83 108 107
f 107 84 82
f 107 109 84
f 110 108 83
f 110 83 85
f 109 107 108
f 109 108 110
f 111 85 86
f 111 110 85
f 112 84 109
f 112 87 84
f 111 86 89
f 111 89 114
f 115 87 112
f 115 90 87
f 91 90 115
f 91 115 116
f 117 114 89
f 117 89 92
f 92 91 116
f 92 116 117
f 117 116 113
f 117 113 114
f 95 118 94
f 95 119 118
f 120 94 118
f 120 98 94
f 119 95 99
f 119 99 121
f 121 120 118
f 121 118 119
f 122 98 120
f 122 102 98
f 123 121 99
f 123 99 103
f 123 103 102
f 123 102 122
f 123 122 120
f 123 120 121
f 110 124 109
f 110 125 124
f 111 125 110
f 111 126 125
f 124 112 109
f 124 127 112
f 128 127 124
f 128 124 125
f 129 126 111
f 129 111 114
f 129 114 113
f 129 113 128
f 129 128 125
f 129 125 126
f 130 112 127
f 130 115 112
f 131 128 113
f 131 113 116
f 131 116 115
f 131 115 130
f 131 130 127
f 131 127 128
f 135 132 134
f 135 133 132
f 137 134 136
f 137 135 134
f 133 138 132
f 133 139 138
f 138 134 132
f 138 141 134
f 139 133 135
f 139 135 142
f 142 141 138
f 142 138 139
f 141 136 134
f 141 145 136
f 145 140 144
f 145 141 140
f 142 135 137
f 142 137 146
f 146 137 136
f 146 136 145
f 148 143 147
f 148 144 143
f 149 144 148
f 149 145 144
f 150 145 149
f 150 146 145
f 155 140 141
f 155 154 140
f 155 151 154
f 155 152 151
f 156 141 142
f 156 155 141
f 158 140 154
f 158 144 140
f 158 143 144
f 158 157 143
f 158 153 157
f 158 154 153
f 156 142 146
f 156 146 159
f 160 143 157
f 160 147 143
f 148 147 160
f 148 160 161
f 162 149 148
f 162 148 161
f 159 146 150
f 159 150 163
f 163 150 149
f 163 149 162
f 152 164 151
f 152 165 164
f 167 151 164
f 167 154 151
f 167 153 154
f 167 166 153
f 165 152 155
f 165 155 168
f 167 164 165
f 167 165 168
f 169 155 156
f 169 168 155
f 170 153 166
f 170 157 153
f 171 170 166
f 171 166 167
f 171 167 168
f 171 168 172
f 169 156 159
f 169 159 173
f 172 168 169
f 172 169 173
f 174 157 170
f 174 160 157
f 175 161 160
f 175 160 174
f 174 170 171
f 174 171 175
f 162 161 175
f 162 175 176
f 176 175 171
f 176 171 172
f 177 173 159
f 177 159 163
f 177 163 162
f 177 162 176
f 177 176 172
f 177 172 173
