# parsimony mesh: cplx_CPLX0-8156 (source /Users/eranagmon/code/v2e-cplx/workspace/studies/ecoli-3d/viz/3d/structures/cplx_CPLX0-8156.pdb)
# atoms: 7088  voxel: 16 Å  verts: 167  tris: 326
v 35.7495 -45.3726 -25.3632
v 45.2919 -47.7487 -26.6235
v 57.6056 -46.8205 -26.4307
v 35.7495 -41.0112 -25.3632
v 46.1136 -35.3236 -26.7566
v 59.4579 -34.7923 -26.6452
v 51.9948 -26.0685 -25.3921
v 57.1995 -26.0685 -25.3921
v -43.9359 35.4140 -24.9183
v -34.7081 34.2202 -26.0110
v -23.1573 35.0181 -26.0589
v -43.9359 39.5364 -24.9183
v -35.1229 45.0050 -26.8389
v -18.1776 45.7493 -26.7789
v -10.2932 51.4436 -24.8183
v -30.0661 54.7487 -26.3461
v -18.7081 54.6685 -26.1514
v -10.2932 53.6145 -24.8183
v 20.2914 -59.3856 -9.4541
v 29.2919 -60.5906 -11.4981
v 45.2919 -61.4226 -13.4390
v 61.2919 -60.2536 -11.4932
v 69.5218 -59.0380 -8.9114
v 4.6076 -43.8979 -9.2778
v 14.2916 -49.8557 -10.7107
v 29.9665 -50.7404 -18.4475
v 45.2919 -55.7487 -21.4390
v 62.2801 -51.6092 -19.7999
v 70.7213 -50.7923 -11.9403
v 4.5191 -34.7923 -9.3065
v 12.7958 -34.1531 -10.2943
v 29.9665 -38.1236 -16.0041
v 43.0173 -31.7553 -16.4438
v 67.4579 -34.7923 -22.6904
v 71.5496 -34.7923 -14.6904
v 4.9459 -26.4795 -8.7601
v 7.1318 -26.4795 -8.7601
v 51.0173 -25.2170 -16.4438
v 62.0365 -24.8593 -17.3245
v 70.6261 -25.6709 -12.5783
v -58.9739 21.0096 -8.8306
v -50.7081 20.3921 -10.6942
v -34.7081 19.6184 -11.8054
v -24.0582 19.9780 -10.3121
v -76.2419 35.6452 -9.9021
v -65.2675 29.8702 -11.0673
v -49.8448 29.7315 -18.1606
v -34.7081 26.2202 -19.8054
v -18.2744 29.3139 -16.4602
v -9.4515 34.2764 -11.9417
v -76.4496 45.2077 -9.9621
v -66.7081 45.2077 -12.8948
v -50.2762 44.8974 -15.7323
v -39.3108 48.7422 -16.4438
v -12.4906 40.7770 -22.6083
v -8.8527 45.7493 -16.9425
v -75.4963 53.7559 -9.0099
v -66.7081 54.2192 -9.9055
v -56.6165 54.0081 -9.8267
v -31.3108 56.5822 -16.4438
v -18.7081 58.1607 -16.4438
v -9.3313 54.7862 -16.4438
v 19.2678 -59.8963 -0.4438
v 29.2919 -62.8722 -0.4438
v 45.2919 -63.1859 -0.4438
v 59.9397 -60.0739 -1.5540
v 69.5218 -59.0380 -7.6275
v 3.5937 -45.1457 -0.4438
v 11.2678 -53.1457 -0.4438
v 64.3716 -56.2934 3.0392
v 71.4936 -50.8929 -1.5540
v 2.9546 -34.7923 -0.4438
v 17.7984 -28.3937 -6.7671
v 29.8624 -30.4852 -1.0378
v 41.1784 -30.2073 -0.4438
v 72.9868 -34.7923 -0.4438
v 4.6529 -26.0878 -0.4438
v 12.7958 -25.5234 -1.0378
v 24.9093 -25.6168 3.8996
v 49.5085 -19.5663 0.4165
v 60.3432 -18.8191 0.4165
v 70.4071 -25.8582 -0.4438
v 52.4709 -10.0391 6.3234
v 54.3774 -10.0391 6.3234
v -58.9739 21.0096 -6.8311
v -51.2468 19.9515 -1.0762
v -35.1348 19.3325 -0.6764
v -24.0582 19.9780 -6.1647
v -77.5798 34.3866 -0.4438
v -65.2675 26.0725 -1.0762
v -56.9392 22.4106 3.8356
v -29.5721 29.2077 4.9541
v -19.5836 29.8976 0.4881
v -9.3165 34.2425 -0.4438
v -79.6591 45.2077 -0.4438
v -45.9499 50.2584 -3.6364
v -33.6513 44.0068 1.7523
v -25.7757 37.7552 7.1410
v -7.4614 45.2077 -0.4438
v -76.7874 55.5611 -0.4438
v -66.7081 57.0863 -0.4438
v -51.0531 54.5778 0.8406
v -34.3885 60.1452 0.3914
v -19.2966 62.9856 -0.7260
v -8.8529 55.2113 -0.4438
v -28.6233 70.7428 4.4192
v -25.0224 70.7428 4.4192
v 19.5936 -59.6710 12.0438
v 29.2919 -61.0739 13.7484
v 45.2919 -60.5555 10.5040
v 53.7049 -58.9798 7.7179
v 3.7119 -44.8244 10.6173
v 13.8388 -51.3424 16.6639
v 29.2919 -56.6623 21.7484
v 45.5399 -51.2474 17.9252
v 59.9397 -50.8929 10.2826
v 71.0555 -45.6267 9.2538
v 3.7274 -34.7923 10.3565
v 13.3672 -35.2574 17.6371
v 29.8624 -30.0118 15.3969
v 44.9574 -33.0875 15.2056
v 61.2919 -34.7923 12.6905
v 70.7291 -34.7923 9.2164
v 4.7859 -26.1657 8.2289
v 13.2919 -25.4407 9.8615
v 24.9093 -25.6168 9.9573
v 49.8645 -18.7923 9.6531
v 60.3432 -20.3178 9.5433
v 69.4446 -26.6682 8.0721
v 52.4709 -10.0391 8.4045
v 54.3774 -10.0391 8.4045
v -46.2726 20.2014 9.2371
v -40.7526 20.2014 9.2371
v -77.0033 35.0088 10.4523
v -66.7490 32.0126 15.6938
v -51.2468 25.6907 14.9647
v -37.2450 29.5665 14.9647
v -15.1090 36.1854 8.2609
v -10.1092 36.1854 8.2609
v -77.9176 45.2077 11.5145
v -66.7490 45.9297 19.2729
v -56.9698 51.7444 21.8063
v -31.0193 43.9362 14.9767
v -19.7486 43.9362 10.2759
v -9.4694 45.2077 9.6802
v -76.6922 55.7973 9.9378
v -66.7081 56.0749 12.0300
v -51.2651 54.7060 16.1063
v -34.8333 59.1730 14.6134
v -19.2966 60.1918 10.9012
v -9.6554 54.1813 9.6835
v -28.6233 70.7428 9.3030
v -25.0224 70.7428 9.3030
v 18.7506 -47.1938 24.7297
v 29.2919 -48.6623 25.5939
v 40.3718 -46.2174 25.0995
v 18.7506 -40.9009 24.7297
v 29.2919 -37.7005 25.5939
v 40.3718 -37.8945 25.0995
v -61.4430 34.8786 25.0886
v -50.7081 33.9094 25.8327
v -40.4508 35.1391 25.0592
v -61.4430 41.0777 25.0886
v -51.2651 45.9297 26.2683
v -39.7665 45.2077 25.7970
v -46.3031 54.2217 25.0410
v -41.0432 54.2217 25.0410
f 4 2 1
f 4 5 2
f 5 3 2
f 5 6 3
f 7 6 5
f 7 8 6
f 12 10 9
f 12 13 10
f 13 11 10
f 13 14 11
f 16 14 13
f 16 17 14
f 17 15 14
f 17 18 15
f 26 19 25
f 26 20 19
f 27 1 2
f 27 26 1
f 26 21 20
f 26 27 21
f 3 27 2
f 3 28 27
f 27 22 21
f 27 28 22
f 29 22 28
f 29 23 22
f 31 24 30
f 31 25 24
f 32 1 26
f 32 4 1
f 32 25 31
f 32 26 25
f 33 5 4
f 33 4 32
f 34 28 3
f 34 3 6
f 34 29 28
f 34 35 29
f 37 30 36
f 37 31 30
f 33 7 5
f 33 38 7
f 34 6 8
f 34 8 39
f 8 7 38
f 8 38 39
f 40 34 39
f 40 35 34
f 47 41 46
f 47 42 41
f 48 9 10
f 48 47 9
f 47 43 42
f 47 48 43
f 11 48 10
f 11 49 48
f 48 44 43
f 48 49 44
f 52 45 51
f 52 46 45
f 47 12 9
f 47 53 12
f 53 46 52
f 53 47 46
f 54 13 12
f 54 12 53
f 55 49 11
f 55 11 14
f 15 55 14
f 15 56 55
f 55 50 49
f 55 56 50
f 57 52 51
f 57 58 52
f 59 52 58
f 59 53 52
f 54 16 13
f 54 60 16
f 61 17 16
f 61 16 60
f 62 56 15
f 62 15 18
f 18 17 61
f 18 61 62
f 64 19 20
f 64 63 19
f 65 20 21
f 65 64 20
f 66 21 22
f 66 65 21
f 67 22 23
f 67 66 22
f 69 19 63
f 69 25 19
f 69 24 25
f 69 68 24
f 67 23 29
f 67 29 71
f 70 66 67
f 70 67 71
f 72 24 68
f 72 30 24
f 32 31 73
f 32 73 74
f 33 32 74
f 33 74 75
f 76 71 29
f 76 29 35
f 72 36 30
f 72 77 36
f 73 31 37
f 73 37 78
f 37 36 77
f 37 77 78
f 79 73 78
f 79 74 73
f 75 38 33
f 75 80 38
f 81 39 38
f 81 38 80
f 76 35 40
f 76 40 82
f 40 39 81
f 40 81 82
f 84 80 83
f 84 81 80
f 42 85 41
f 42 86 85
f 87 42 43
f 87 86 42
f 88 43 44
f 88 87 43
f 90 41 85
f 90 46 41
f 46 89 45
f 46 90 89
f 91 90 85
f 91 85 86
f 88 44 49
f 88 49 93
f 92 87 88
f 92 88 93
f 50 93 49
f 50 94 93
f 95 45 89
f 95 51 45
f 54 53 96
f 54 96 97
f 98 97 92
f 98 92 93
f 99 94 50
f 99 50 56
f 95 57 51
f 95 100 57
f 101 58 57
f 101 57 100
f 96 53 59
f 96 59 102
f 59 58 101
f 59 101 102
f 103 54 97
f 103 60 54
f 103 96 102
f 103 97 96
f 104 61 60
f 104 60 103
f 99 56 62
f 99 62 105
f 105 62 61
f 105 61 104
f 106 104 103
f 106 107 104
f 64 108 63
f 64 109 108
f 110 64 65
f 110 109 64
f 111 65 66
f 111 110 65
f 108 69 63
f 108 113 69
f 69 112 68
f 69 113 112
f 114 113 108
f 114 108 109
f 115 114 109
f 115 109 110
f 111 66 70
f 111 70 116
f 115 110 111
f 115 111 116
f 117 70 71
f 117 116 70
f 112 72 68
f 112 118 72
f 119 118 112
f 119 112 113
f 75 74 120
f 75 120 121
f 122 121 115
f 122 115 116
f 117 71 76
f 117 76 123
f 122 116 117
f 122 117 123
f 124 72 118
f 124 77 72
f 78 77 124
f 78 124 125
f 125 124 118
f 125 118 119
f 126 120 74
f 126 74 79
f 79 78 125
f 79 125 126
f 126 125 119
f 126 119 120
f 127 75 121
f 127 80 75
f 127 121 122
f 127 122 128
f 129 123 76
f 129 76 82
f 129 82 81
f 129 81 128
f 129 128 122
f 129 122 123
f 127 83 80
f 127 130 83
f 128 81 84
f 128 84 131
f 84 83 130
f 84 130 131
f 131 130 127
f 131 127 128
f 133 86 87
f 133 132 86
f 90 134 89
f 90 135 134
f 132 91 86
f 132 136 91
f 91 135 90
f 91 136 135
f 133 87 92
f 133 92 137
f 136 132 133
f 136 133 137
f 94 138 93
f 94 139 138
f 134 95 89
f 134 140 95
f 141 140 134
f 141 134 135
f 143 137 92
f 143 92 97
f 138 98 93
f 138 144 98
f 98 143 97
f 98 144 143
f 139 94 99
f 139 99 145
f 145 144 138
f 145 138 139
f 146 95 140
f 146 100 95
f 101 100 146
f 101 146 147
f 147 146 140
f 147 140 141
f 102 101 147
f 102 147 148
f 147 141 142
f 147 142 148
f 149 103 102
f 149 102 148
f 150 149 143
f 150 143 144
f 151 145 99
f 151 99 105
f 105 104 150
f 105 150 151
f 151 150 144
f 151 144 145
f 152 103 149
f 152 106 103
f 150 104 107
f 150 107 153
f 152 149 150
f 152 150 153
f 114 154 113
f 114 155 154
f 156 114 115
f 156 155 114
f 157 113 154
f 157 119 113
f 158 120 119
f 158 119 157
f 157 154 155
f 157 155 158
f 159 156 115
f 159 115 121
f 159 121 120
f 159 120 158
f 158 155 156
f 158 156 159
f 136 160 135
f 136 161 160
f 162 136 137
f 162 161 136
f 160 141 135
f 160 163 141
f 142 141 163
f 142 163 164
f 163 160 161
f 163 161 164
f 162 137 143
f 162 143 165
f 164 161 162
f 164 162 165
f 166 142 164
f 166 148 142
f 167 165 143
f 167 143 149
f 167 149 148
f 167 148 166
f 166 164 165
f 166 165 167
