# parsimony mesh: cplx_CPLX0-7974 (source /Users/eranagmon/code/v2e-cplx/workspace/studies/ecoli-3d/viz/3d/structures/cplx_CPLX0-7974.pdb)
# atoms: 4180  voxel: 16 Å  verts: 126  tris: 244
v 46.4600 -45.4690 -25.4675
v 50.7243 -45.4690 -25.4675
v 32.2410 -28.8504 -24.7800
v 41.0765 -34.4740 -27.1221
v 52.0762 -34.9093 -27.3403
v 32.2410 -26.0494 -24.7800
v 41.0014 -24.4660 -26.8247
v 51.3783 -24.5115 -27.0165
v -31.4275 20.5140 -24.4075
v -30.2419 20.5140 -24.4075
v -33.6561 29.0907 -25.3446
v -26.8646 29.0907 -25.3446
v -35.3706 45.0907 -26.6354
v -24.5571 45.0907 -26.6354
v -33.7135 54.3974 -26.1286
v -27.1652 54.3974 -26.1286
v 46.8536 -61.4178 -10.9399
v 57.0014 -61.2723 -10.7214
v 65.4494 -59.5515 -8.7189
v 32.8913 -42.9978 -8.1971
v 41.3235 -49.5667 -14.9018
v 57.2333 -50.8828 -15.1627
v 65.4494 -56.2966 -8.7189
v 31.3314 -34.4740 -14.5364
v 35.7933 -39.5171 -18.8638
v 60.3058 -34.5644 -14.8806
v 65.3216 -29.0010 -8.7708
v 30.9965 -24.6447 -16.0454
v 41.0014 -20.2325 -16.0454
v 56.8275 -23.0480 -14.8806
v 65.3216 -26.3568 -8.7708
v -32.5728 18.6812 -16.0454
v -24.1446 17.2889 -15.7552
v -13.5896 17.9670 -10.2284
v -47.4644 36.6513 -9.4994
v -40.5266 30.4271 -15.3178
v -18.8646 29.0907 -20.6518
v -13.6719 29.0907 -12.6518
v -47.4644 39.8507 -9.4994
v -43.6335 45.1467 -15.3178
v -16.5571 45.0907 -22.0198
v -13.5429 45.0907 -14.0198
v -36.4564 55.5286 -16.0454
v -22.2986 55.8765 -16.8496
v -13.4176 54.4831 -12.0524
v 31.1786 -59.9239 6.1555
v 40.9461 -60.6709 0.2553
v 57.0014 -61.2723 -5.7906
v 65.4494 -59.5515 -7.4396
v 15.2496 -44.9392 5.6642
v 26.7016 -49.3018 0.5765
v 41.1337 -52.0901 0.4109
v 57.8459 -50.9417 -4.3636
v 65.4494 -56.2966 -7.4396
v 12.3005 -34.9093 5.1096
v 23.4842 -34.9093 -2.8904
v 45.1166 -34.9093 4.3426
v 57.8459 -34.5644 -4.2905
v 65.3216 -29.0010 -7.6378
v 12.4853 -25.4488 6.4517
v 25.4537 -23.8217 0.6529
v 40.8419 -22.6070 -0.0130
v 57.0014 -23.8810 -5.6992
v 65.3216 -26.3568 -7.6378
v -49.6799 19.5531 6.1507
v -38.4007 18.4955 0.4722
v -24.4624 17.5438 -0.4334
v -13.5896 17.9670 -6.0254
v -64.4993 34.7005 6.3310
v -53.9055 30.3426 0.9075
v -43.3354 25.9847 -4.5160
v -22.4597 29.0907 1.9673
v -13.6719 29.0907 -6.0327
v -65.5477 45.0907 5.9835
v -53.6781 45.1467 -2.3432
v -40.3495 49.5889 -0.5248
v -24.3037 44.0325 1.4776
v -13.5429 45.0907 -6.3236
v -64.8968 54.0321 6.9501
v -54.9986 54.2951 4.3001
v -40.3495 54.3948 -0.5248
v -22.9986 55.5929 -4.6393
v -13.4176 54.4831 -6.4133
v 31.1786 -59.9239 9.5115
v 35.0385 -59.9239 9.5115
v 14.5510 -45.9734 15.9546
v 25.5077 -52.7272 15.2888
v 37.9322 -50.2759 15.2888
v 10.9622 -34.9093 15.9546
v 42.5566 -34.9093 15.9546
v 13.4126 -25.6673 15.9546
v 25.0014 -23.7937 15.9546
v 37.9208 -25.0358 15.9546
v -49.6799 19.5531 11.5474
v -38.9986 19.8237 10.8176
v -30.7715 20.9389 8.1792
v -64.6828 34.0243 15.9546
v -55.0074 26.2156 16.5103
v -38.9986 25.9089 18.8176
v -30.2841 30.1673 14.4894
v -66.3091 45.0907 15.9546
v -50.6365 51.7091 21.8103
v -39.4824 48.3390 16.2680
v -30.2759 40.1873 15.9546
v -64.6249 53.9552 15.9546
v -55.5814 54.1810 16.2680
v -45.1383 53.7551 11.1436
v 15.4860 -44.9649 25.7371
v 25.0014 -45.6592 26.4862
v 36.0963 -44.5203 25.5477
v 15.6631 -34.9093 25.3891
v 25.0014 -34.9093 27.2779
v 38.4413 -34.9093 25.8434
v 16.7324 -26.7138 24.0849
v 25.0014 -26.0336 24.7463
v 37.1597 -25.9372 24.8800
v -63.7436 35.3923 24.7571
v -54.9986 33.2894 25.8351
v -38.9986 33.9089 25.6695
v -30.5265 36.2183 24.5362
v -63.7600 45.0907 24.7150
v -55.5814 45.8617 25.5858
v -38.9986 42.4738 25.6695
v -30.5265 40.3164 24.5362
v -63.2688 53.3020 24.1659
v -61.3032 53.3020 24.1659
f 5 1 4
f 5 2 1
f 7 3 6
f 7 4 3
f 8 4 7
f 8 5 4
f 11 10 9
f 11 12 10
f 13 12 11
f 13 14 12
f 16 13 15
f 16 14 13
f 2 21 1
f 2 22 21
f 22 17 21
f 22 18 17
f 23 18 22
f 23 19 18
f 25 1 21
f 25 4 1
f 25 3 4
f 25 24 3
f 25 20 24
f 25 21 20
f 26 22 2
f 26 2 5
f 28 3 24
f 28 6 3
f 29 7 6
f 29 6 28
f 30 26 5
f 30 5 8
f 8 7 29
f 8 29 30
f 31 26 30
f 31 27 26
f 10 32 9
f 10 33 32
f 32 11 9
f 32 36 11
f 37 33 10
f 37 10 12
f 38 33 37
f 38 34 33
f 36 13 11
f 36 40 13
f 40 35 39
f 40 36 35
f 37 12 14
f 37 14 41
f 42 37 41
f 42 38 37
f 43 13 40
f 43 15 13
f 41 14 16
f 41 16 44
f 16 15 43
f 16 43 44
f 45 41 44
f 45 42 41
f 48 17 18
f 48 47 17
f 19 48 18
f 19 49 48
f 52 17 47
f 52 21 17
f 52 20 21
f 52 51 20
f 52 46 51
f 52 47 46
f 52 47 48
f 52 48 53
f 23 22 53
f 23 53 54
f 54 53 48
f 54 48 49
f 56 20 51
f 56 24 20
f 56 50 55
f 56 51 50
f 58 53 22
f 58 22 26
f 57 52 53
f 57 53 58
f 27 58 26
f 27 59 58
f 56 28 24
f 56 61 28
f 60 56 55
f 60 61 56
f 62 29 28
f 62 28 61
f 63 30 29
f 63 29 62
f 63 62 57
f 63 57 58
f 31 30 63
f 31 63 64
f 63 58 59
f 63 59 64
f 67 32 33
f 67 66 32
f 68 33 34
f 68 67 33
f 71 32 66
f 71 36 32
f 71 35 36
f 71 70 35
f 71 65 70
f 71 66 65
f 73 68 34
f 73 34 38
f 72 67 68
f 72 68 73
f 75 35 70
f 75 39 35
f 75 69 74
f 75 70 69
f 76 40 39
f 76 39 75
f 78 73 38
f 78 38 42
f 77 72 73
f 77 73 78
f 80 74 79
f 80 75 74
f 76 43 40
f 76 81 43
f 80 76 75
f 80 81 76
f 82 44 43
f 82 43 81
f 82 81 76
f 82 76 77
f 78 42 45
f 78 45 83
f 45 44 82
f 45 82 83
f 82 77 78
f 82 78 83
f 85 46 47
f 85 84 46
f 87 46 84
f 87 51 46
f 87 50 51
f 87 86 50
f 85 47 52
f 85 52 88
f 88 87 84
f 88 84 85
f 89 50 86
f 89 55 50
f 88 52 57
f 88 57 90
f 89 60 55
f 89 91 60
f 92 61 60
f 92 60 91
f 93 90 57
f 93 57 62
f 93 62 61
f 93 61 92
f 95 65 66
f 95 94 65
f 96 66 67
f 96 95 66
f 98 65 94
f 98 70 65
f 98 69 70
f 98 97 69
f 99 98 94
f 99 94 95
f 96 67 72
f 96 72 100
f 100 99 95
f 100 95 96
f 101 69 97
f 101 74 69
f 104 100 72
f 104 72 77
f 104 77 76
f 104 76 103
f 101 79 74
f 101 105 79
f 106 80 79
f 106 79 105
f 107 103 76
f 107 76 81
f 107 81 80
f 107 80 106
f 107 106 102
f 107 102 103
f 109 86 87
f 109 108 86
f 110 87 88
f 110 109 87
f 111 86 108
f 111 89 86
f 112 111 108
f 112 108 109
f 110 88 90
f 110 90 113
f 112 109 110
f 112 110 113
f 114 89 111
f 114 91 89
f 92 91 114
f 92 114 115
f 114 111 112
f 114 112 115
f 116 113 90
f 116 90 93
f 116 93 92
f 116 92 115
f 116 115 112
f 116 112 113
f 118 97 98
f 118 117 97
f 99 118 98
f 99 119 118
f 120 99 100
f 120 119 99
f 117 101 97
f 117 121 101
f 122 121 117
f 122 117 118
f 123 103 102
f 123 102 122
f 123 122 118
f 123 118 119
f 120 100 104
f 120 104 124
f 104 103 123
f 104 123 124
f 123 119 120
f 123 120 124
f 125 101 121
f 125 105 101
f 126 122 102
f 126 102 106
f 126 106 105
f 126 105 125
f 126 125 121
f 126 121 122
