# parsimony mesh: cplx_CPLX0-3602 (source /Users/eranagmon/code/v2e-cplx/workspace/studies/ecoli-3d/viz/3d/structures/cplx_CPLX0-3602.pdb)
# atoms: 3308  voxel: 8 Å  verts: 372  tris: 740
v 52.7408 -50.7839 -24.7868
v 55.5264 -50.7839 -24.7868
v 46.4206 -43.9947 -24.6636
v 50.3124 -46.5469 -25.2591
v 56.2980 -46.3751 -25.3145
v 46.4206 -41.8523 -24.6636
v 50.7966 -38.8614 -25.4268
v 56.4587 -38.3751 -25.5241
v 53.5479 -33.3533 -25.0663
v 55.7408 -33.3533 -25.0663
v -41.3558 37.6029 -24.4898
v -37.3304 37.3246 -24.6719
v -32.2569 37.2465 -24.7237
v -41.3558 37.7200 -24.4898
v -37.6032 40.8820 -25.0704
v -31.3272 41.6249 -25.2090
v -35.4268 49.6249 -25.5954
v -30.6957 49.6249 -25.5954
v -34.3376 54.4908 -25.2389
v -31.4149 54.4908 -25.2389
v 46.1134 -58.7965 -16.8627
v 50.6696 -58.7295 -16.8019
v 54.7343 -58.4262 -16.5242
v 45.2866 -54.3751 -18.5043
v 50.3124 -53.8204 -21.3274
v 56.6077 -53.8204 -19.7052
v 38.5030 -42.7300 -16.6572
v 43.2346 -46.0290 -20.3924
v 47.4075 -49.3281 -24.1275
v 60.5575 -46.9059 -20.3700
v 64.5580 -44.5931 -17.6322
v 38.5030 -42.1364 -16.6572
v 43.4434 -39.3277 -19.8452
v 48.2146 -36.5189 -23.0332
v 60.4587 -38.3751 -21.4131
v 64.1639 -38.3751 -17.4131
v 45.7995 -33.2400 -17.6998
v 50.7966 -31.8943 -20.4105
v 58.5124 -32.5444 -19.7324
v 62.7736 -34.3234 -16.5697
v -42.3170 28.6652 -17.4853
v -37.3304 28.0108 -17.8133
v -31.9021 28.4324 -17.2502
v -42.5759 34.4117 -20.2818
v -37.3304 33.3246 -21.8133
v -29.4128 34.0588 -20.3594
v -24.4827 36.2045 -18.1353
v -43.0325 40.8820 -20.6807
v -40.4518 43.0534 -23.4835
v -27.3272 41.6249 -23.0127
v -21.6217 42.0616 -18.8196
v -16.9117 45.0194 -17.0001
v -42.7457 49.6249 -17.8701
v -39.4268 49.6249 -21.8701
v -26.6957 49.6249 -21.9405
v -22.0708 49.3777 -17.9618
v -16.9117 46.5463 -17.0001
v -41.4698 53.7569 -16.6610
v -37.1347 54.9189 -19.7872
v -28.9811 54.8703 -19.8141
v -25.2310 53.6760 -16.7058
v 46.4941 -66.5798 -8.7230
v 47.1758 -66.5798 -8.7230
v 45.1969 -61.8280 -11.8244
v 50.1733 -62.8158 -11.8244
v 55.8119 -59.6099 -12.4766
v 29.9331 -51.7208 -9.3210
v 34.6696 -52.7861 -10.0566
v 41.3296 -54.6965 -12.4339
v 60.1687 -54.2860 -13.0446
v 63.5053 -51.5600 -10.7566
v 29.9331 -49.2014 -9.3210
v 35.3925 -45.9657 -12.1966
v 40.0486 -48.0633 -15.0721
v 62.3117 -49.9264 -16.0900
v 66.6983 -46.5812 -13.2853
v 71.4534 -43.2360 -10.4806
v 36.9645 -39.0319 -12.1595
v 43.3697 -35.7679 -11.7255
v 46.9988 -34.7327 -8.8361
v 61.9633 -35.2535 -10.8666
v 66.3325 -37.8671 -13.3403
v 71.4534 -40.4806 -10.4806
v 36.4900 -30.3751 -9.5571
v 43.4725 -31.6029 -11.5338
v 50.7625 -30.1520 -11.3991
v 58.3302 -30.6937 -12.4144
v 62.7736 -34.3234 -16.1999
v 37.3845 -23.8906 -9.1123
v 40.4762 -23.8906 -9.1123
v 54.5263 -26.3411 -8.6288
v 54.6971 -26.3411 -8.6288
v -50.6285 29.1407 -9.0851
v -45.1224 27.9525 -12.0417
v -37.3304 25.4679 -12.4766
v -30.3655 27.1953 -12.4766
v -51.9669 33.6249 -9.8726
v -46.8682 33.6249 -13.8726
v -26.3655 30.6260 -12.4766
v -23.5787 34.6260 -12.4766
v -51.4773 41.6249 -10.5839
v -47.4389 41.6249 -14.5839
v -19.5787 40.1048 -12.4766
v -16.1572 44.1048 -12.4766
v -50.5323 49.6249 -10.1165
v -44.8479 50.9984 -12.5760
v -40.6502 52.8298 -10.5219
v -25.8140 52.7433 -10.8128
v -22.0708 51.3630 -13.0783
v -16.1572 47.4587 -12.4766
v -50.2876 56.2762 -9.1061
v -44.5603 55.0166 -12.4807
v -37.0906 56.9369 -12.1773
v -29.5627 56.8964 -12.3227
v -25.2310 53.6760 -16.1461
v -33.5310 61.6391 -8.4993
v -33.3115 61.6391 -8.4993
v 45.9130 -67.1471 -4.4766
v 47.7351 -67.1471 -4.4766
v 38.4326 -58.5453 -1.1852
v 41.8307 -61.6772 -4.1017
v 51.7351 -64.2571 -4.4766
v 56.5363 -60.2571 -4.4766
v 29.5816 -51.8881 -4.4766
v 35.3274 -55.9069 -4.1017
v 39.6135 -57.5775 -6.5185
v 60.2703 -54.2860 -4.2186
v 63.5053 -51.5600 -6.7133
v 29.7134 -46.4709 -3.8480
v 32.2821 -43.8681 -6.0957
v 60.8752 -46.3751 -2.2088
v 66.3710 -46.0917 -6.0536
v 71.4534 -43.2360 -7.4620
v 29.5288 -38.3751 -1.9680
v 32.6633 -38.3751 -5.9680
v 46.2733 -34.7327 -8.2027
v 46.9988 -34.7327 -8.2027
v 60.3600 -38.1022 -4.5204
v 66.6696 -39.6130 -6.7704
v 71.4534 -40.4806 -7.4620
v 29.1680 -30.3751 -2.6114
v 32.4900 -30.3751 -6.6114
v 45.7273 -30.3751 -7.7407
v 48.8090 -30.3751 -7.7407
v 57.5143 -30.3751 -4.4766
v 30.0457 -25.7312 -1.6203
v 34.6986 -23.6835 -4.3628
v 42.9535 -22.9986 -4.8521
v 51.3836 -24.5762 -4.8521
v 55.4729 -25.4655 -4.4766
v -41.9856 20.7869 -2.3689
v -40.2391 20.7869 -2.3689
v -50.9759 28.7035 -4.4766
v -44.9235 24.8816 -4.8120
v -37.4756 23.6215 -4.8120
v -30.3649 27.1283 -4.4766
v -54.0599 33.6249 -4.4766
v -26.3649 31.5347 -4.4766
v -24.1540 35.5347 -4.4766
v -54.0742 41.6249 -4.4766
v -25.4256 44.7213 -0.6496
v -21.8795 41.7957 -3.9261
v -16.1848 44.2035 -7.2026
v -58.4153 51.9865 -1.7073
v -54.4326 49.4418 -4.4150
v -42.3175 52.8298 -7.5695
v -40.6502 52.8298 -7.5695
v -26.5151 49.8959 -3.7804
v -21.3304 48.1064 -5.6509
v -16.1848 47.1485 -7.2026
v -58.4153 55.7311 -1.7073
v -53.5142 58.6703 -5.0866
v -45.1226 58.4156 -7.6757
v -38.9707 57.6249 -7.4835
v -29.6459 57.6249 -4.4766
v -51.4075 62.5254 -3.1325
v -45.3304 63.0661 -4.1558
v -36.6507 62.7322 -5.0264
v -32.2365 62.2433 -4.4766
v 45.8363 -67.1998 0.8998
v 47.5842 -67.1998 0.8998
v 37.5922 -58.7446 3.5234
v 42.9696 -62.4668 3.5492
v 50.6400 -61.9955 3.8880
v 55.7002 -59.2892 1.5429
v 22.3732 -50.6910 7.0049
v 27.0411 -52.0946 4.0123
v 33.5922 -56.2876 3.5234
v 53.5594 -54.3751 6.7586
v 56.5767 -54.3751 2.7586
v 21.7978 -46.3751 6.8515
v 26.0267 -46.3751 2.8515
v 54.1632 -49.3059 7.1509
v 56.5083 -46.5336 4.0999
v 21.8656 -38.3751 6.7404
v 25.5288 -38.3751 2.7404
v 54.0770 -35.9360 6.9437
v 56.0580 -38.5117 3.9756
v 22.4636 -34.0624 6.8568
v 26.2653 -30.9875 3.9234
v 52.8373 -30.3751 6.0781
v 56.0235 -30.3751 2.0781
v 30.1978 -25.8897 3.5234
v 34.6696 -24.1867 3.5234
v 42.6696 -22.7382 3.5234
v 50.3593 -24.1207 3.5150
v 55.7132 -25.1963 0.8427
v -41.9856 20.7869 1.1957
v -40.2391 20.7869 1.1957
v -51.0398 28.3884 3.5234
v -44.9235 24.2894 3.7268
v -37.4756 24.3473 3.7268
v -31.9585 28.4608 3.5234
v -59.7711 36.3464 5.7156
v -55.0348 33.6578 3.2387
v -28.7209 34.2995 2.7684
v -25.2498 37.4160 -0.4016
v -66.1208 43.2935 7.1046
v -61.9948 41.0261 5.4456
v -55.9273 41.6249 1.2403
v -28.0655 41.8827 2.7684
v -25.2498 39.3880 -0.4016
v -66.1208 46.8346 7.1046
v -61.1518 49.4105 4.0292
v -56.2315 46.6531 0.9538
v -33.7720 52.7768 7.1890
v -30.8148 49.9160 4.1228
v -59.0626 55.9707 3.5234
v -55.4977 59.9707 3.5234
v -34.1974 57.6249 6.8498
v -31.2973 57.6249 2.8498
v -51.4977 62.5764 3.5234
v -45.3304 63.8474 3.5234
v -36.9590 63.1279 3.9852
v -31.8907 62.4352 1.6264
v 37.6227 -58.6796 11.5234
v 41.9440 -59.2148 11.3435
v 48.3624 -59.3686 8.5569
v 22.3732 -50.6910 7.8693
v 27.1422 -52.5269 10.9309
v 33.6227 -56.8279 11.5234
v 43.5926 -54.3751 12.8407
v 49.5594 -54.3751 8.8407
v 5.6220 -44.1297 14.3198
v 10.6696 -44.8625 13.6565
v 19.4217 -46.1420 11.0536
v 24.7906 -48.3470 13.2026
v 45.1097 -48.7416 13.5797
v 50.7850 -46.3570 10.6488
v 54.7933 -43.9725 7.7180
v 5.6220 -41.2346 14.3198
v 10.6696 -40.6926 13.6565
v 18.8103 -38.5135 11.5521
v 44.2983 -36.1486 13.7603
v 50.7419 -38.7090 10.7392
v 54.7933 -41.2694 7.7180
v 22.4950 -34.1258 11.5234
v 27.4666 -30.1112 10.7321
v 34.6696 -29.0781 12.2340
v 42.0469 -31.0020 12.0732
v 48.8373 -30.3751 8.5110
v 30.6645 -26.3717 7.5379
v 34.6696 -25.6878 8.2340
v 42.6696 -25.0955 8.5330
v 47.4858 -25.5819 7.9366
v -50.8874 28.3762 11.5234
v -44.7025 27.4797 12.2484
v -37.3304 27.9892 9.9325
v -32.9302 29.3545 8.1939
v -73.9951 37.4305 15.3085
v -73.0076 37.4305 15.3085
v -59.7711 36.3464 9.8433
v -55.1941 33.6578 12.1154
v -42.1416 33.6249 14.7784
v -37.3304 33.6249 11.7858
v -32.6404 33.6249 8.5308
v -81.5366 44.8924 15.1036
v -76.9292 41.9854 14.5312
v -69.5642 41.3141 12.2398
v -61.9948 39.0661 12.1154
v -57.0273 37.9818 15.1766
v -42.1250 38.6415 14.6551
v -37.6113 41.4348 12.5167
v -32.6778 41.6249 8.4163
v -81.5366 45.8418 15.1036
v -77.3304 46.4646 14.4443
v -69.0046 47.6758 11.7120
v -63.2926 51.5116 11.5234
v -43.5245 51.7039 13.6939
v -37.1186 49.5737 10.8675
v -32.9801 47.4434 8.0412
v -59.2926 55.2780 11.5234
v -53.0179 58.4307 11.0166
v -45.8468 57.1082 11.8966
v -38.1974 57.6249 8.6234
v -50.1429 61.9930 8.0121
v -45.3304 62.4062 8.3621
v -39.3780 62.2985 8.1530
v 38.3822 -66.5890 23.0407
v 39.1825 -66.5890 23.0407
v 37.8756 -61.6252 20.0338
v 39.7099 -61.6252 20.0338
v 30.1239 -51.7671 16.4514
v 34.1735 -54.4103 19.2802
v 41.1037 -54.3751 19.5234
v 5.6220 -44.1297 16.3988
v 10.6696 -44.8625 16.8358
v 18.6696 -44.0255 16.6238
v 27.1422 -45.9583 16.7764
v 33.1818 -46.3751 20.6451
v 43.5200 -46.1950 19.1779
v 47.4069 -43.4082 16.2808
v 5.6220 -41.2346 16.3988
v 10.6696 -40.6926 16.8358
v 19.4536 -38.5135 16.4102
v 26.6696 -38.3751 16.9776
v 34.9539 -38.5680 19.7458
v 41.8470 -38.7559 18.7530
v 47.4069 -41.4820 16.2808
v 22.6429 -34.3555 15.5343
v 26.6696 -33.2798 16.1074
v 34.6696 -33.0781 16.3756
v 38.9650 -34.0865 15.8919
v -49.7202 21.2693 22.7273
v -48.1056 21.2693 22.7273
v -50.2022 25.9685 19.8457
v -44.8615 25.9232 19.2461
v -40.9781 28.3155 21.0982
v -73.9951 37.4305 15.7745
v -73.0076 37.4305 15.7745
v -52.2466 33.6249 19.5234
v -42.9651 33.4801 18.8683
v -40.9781 30.7169 21.0982
v -81.5366 44.8924 15.7435
v -76.9292 41.9854 16.4649
v -69.9367 41.8507 16.7132
v -61.3304 43.1749 16.5927
v -54.6309 41.0390 19.1984
v -43.8495 41.4348 19.2786
v -40.4652 43.9748 16.4487
v -81.5366 45.8418 15.7435
v -77.3304 46.4646 16.5119
v -69.3304 47.2812 16.8224
v -61.3653 49.6084 16.8007
v -52.9358 49.2988 19.9313
v -45.9745 49.0594 18.9119
v -40.4652 46.3705 16.4487
v -58.7220 54.8076 16.2265
v -53.3304 54.8661 16.4395
v -48.8578 54.0971 16.0417
v 38.3822 -66.5890 24.3401
v 39.1825 -66.5890 24.3401
v 37.8244 -62.3751 24.4704
v 39.8769 -62.3751 24.4704
v 37.1967 -54.3751 24.3456
v 40.1807 -54.3751 24.3456
v 37.1818 -46.3751 24.4729
v 39.9026 -46.3751 24.4729
v 37.8101 -41.3632 24.1391
v 39.3957 -41.3632 24.1391
v -49.7202 21.2693 24.1478
v -48.1056 21.2693 24.1478
v -49.9006 25.6249 24.1754
v -45.3955 25.6392 24.3327
v -40.9781 28.3155 24.0029
v -49.9544 33.6249 23.9999
v -45.5161 33.4801 24.1923
v -40.9781 30.7169 24.0029
v -50.1834 41.6249 24.2216
v -47.8832 41.6249 24.2216
v -50.0062 46.4148 24.0639
v -48.4246 46.4148 24.0639
f 5 1 4
f 5 2 1
f 6 4 3
f 6 7 4
f 7 5 4
f 7 8 5
f 9 8 7
f 9 10 8
f 14 12 11
f 14 15 12
f 15 13 12
f 15 16 13
f 17 16 15
f 17 18 16
f 19 18 17
f 19 20 18
f 24 22 21
f 24 25 22
f 2 25 1
f 2 26 25
f 25 23 22
f 25 26 23
f 29 1 25
f 29 4 1
f 29 3 4
f 29 28 3
f 29 24 28
f 29 25 24
f 30 26 2
f 30 2 5
f 28 6 3
f 28 33 6
f 33 27 32
f 33 28 27
f 34 7 6
f 34 6 33
f 35 30 5
f 35 5 8
f 35 31 30
f 35 36 31
f 34 9 7
f 34 38 9
f 37 34 33
f 37 38 34
f 35 8 10
f 35 10 39
f 10 9 38
f 10 38 39
f 40 35 39
f 40 36 35
f 45 11 12
f 45 44 11
f 45 41 44
f 45 42 41
f 13 45 12
f 13 46 45
f 45 43 42
f 45 46 43
f 48 11 44
f 48 14 11
f 49 15 14
f 49 14 48
f 50 46 13
f 50 13 16
f 50 47 46
f 50 51 47
f 49 17 15
f 49 54 17
f 53 49 48
f 53 54 49
f 50 16 18
f 50 18 55
f 55 51 50
f 55 56 51
f 57 51 56
f 57 52 51
f 54 19 17
f 54 59 19
f 58 54 53
f 58 59 54
f 55 18 20
f 55 20 60
f 60 20 19
f 60 19 59
f 61 55 60
f 61 56 55
f 65 21 22
f 65 64 21
f 64 63 62
f 64 65 63
f 66 22 23
f 66 65 22
f 69 21 64
f 69 24 21
f 70 66 23
f 70 23 26
f 72 68 67
f 72 73 68
f 74 24 69
f 74 28 24
f 74 27 28
f 74 73 27
f 74 68 73
f 74 69 68
f 75 70 26
f 75 26 30
f 31 75 30
f 31 76 75
f 75 71 70
f 75 76 71
f 78 27 73
f 78 32 27
f 79 33 32
f 79 32 78
f 82 76 31
f 82 31 36
f 82 77 76
f 82 83 77
f 79 37 33
f 79 85 37
f 84 79 78
f 84 85 79
f 86 38 37
f 86 37 85
f 85 79 80
f 85 80 86
f 87 39 38
f 87 38 86
f 88 82 36
f 88 36 40
f 88 40 39
f 88 39 87
f 88 87 81
f 88 81 82
f 90 84 89
f 90 85 84
f 92 86 91
f 92 87 86
f 95 41 42
f 95 94 41
f 43 95 42
f 43 96 95
f 98 41 94
f 98 44 41
f 98 93 97
f 98 94 93
f 99 96 43
f 99 43 46
f 47 99 46
f 47 100 99
f 102 44 98
f 102 48 44
f 101 98 97
f 101 102 98
f 103 100 47
f 103 47 51
f 52 103 51
f 52 104 103
f 102 53 48
f 102 106 53
f 105 102 101
f 105 106 102
f 110 104 52
f 110 52 57
f 57 56 109
f 57 109 110
f 106 58 53
f 106 112 58
f 111 106 105
f 111 112 106
f 113 59 58
f 113 58 112
f 112 106 107
f 112 107 113
f 114 60 59
f 114 59 113
f 109 56 61
f 109 61 115
f 115 61 60
f 115 60 114
f 115 114 108
f 115 108 109
f 117 113 116
f 117 114 113
f 119 62 63
f 119 118 62
f 121 62 118
f 121 64 62
f 122 119 63
f 122 63 65
f 123 65 66
f 123 122 65
f 68 124 67
f 68 125 124
f 126 64 121
f 126 69 64
f 126 68 69
f 126 125 68
f 126 120 125
f 126 121 120
f 127 123 66
f 127 66 70
f 128 70 71
f 128 127 70
f 124 72 67
f 124 129 72
f 130 73 72
f 130 72 129
f 132 128 71
f 132 71 76
f 131 127 128
f 131 128 132
f 77 132 76
f 77 133 132
f 130 78 73
f 130 135 78
f 134 130 129
f 134 135 130
f 80 79 136
f 80 136 137
f 139 82 81
f 139 81 138
f 139 138 131
f 139 131 132
f 133 77 83
f 133 83 140
f 83 82 139
f 83 139 140
f 139 132 133
f 139 133 140
f 135 84 78
f 135 142 84
f 141 135 134
f 141 142 135
f 136 79 85
f 136 85 143
f 144 80 137
f 144 86 80
f 143 137 136
f 143 144 137
f 145 138 81
f 145 81 87
f 142 89 84
f 142 147 89
f 146 142 141
f 146 147 142
f 143 85 90
f 143 90 148
f 148 90 89
f 148 89 147
f 144 91 86
f 144 149 91
f 149 143 148
f 149 144 143
f 145 87 92
f 145 92 150
f 150 92 91
f 150 91 149
f 154 93 94
f 154 153 93
f 95 154 94
f 95 155 154
f 155 151 154
f 155 152 151
f 156 95 96
f 156 155 95
f 157 93 153
f 157 97 93
f 156 96 99
f 156 99 158
f 100 158 99
f 100 159 158
f 160 97 157
f 160 101 97
f 159 100 103
f 159 103 162
f 163 103 104
f 163 162 103
f 165 101 160
f 165 105 101
f 107 106 166
f 107 166 167
f 169 109 108
f 169 108 168
f 169 168 161
f 169 161 162
f 170 163 104
f 170 104 110
f 110 109 169
f 110 169 170
f 169 162 163
f 169 163 170
f 165 111 105
f 165 172 111
f 171 165 164
f 171 172 165
f 166 106 112
f 166 112 173
f 173 112 111
f 173 111 172
f 174 107 167
f 174 113 107
f 174 166 173
f 174 167 166
f 175 168 108
f 175 108 114
f 176 173 172
f 176 177 173
f 174 116 113
f 174 178 116
f 177 174 173
f 177 178 174
f 175 114 117
f 175 117 179
f 179 117 116
f 179 116 178
f 181 118 119
f 181 180 118
f 180 121 118
f 180 183 121
f 183 120 121
f 183 182 120
f 181 119 122
f 181 122 184
f 183 180 181
f 183 181 184
f 185 122 123
f 185 184 122
f 188 120 182
f 188 125 120
f 188 124 125
f 188 187 124
f 185 123 127
f 185 127 190
f 189 184 185
f 189 185 190
f 192 124 187
f 192 129 124
f 192 186 191
f 192 187 186
f 190 127 131
f 190 131 194
f 193 189 190
f 193 190 194
f 192 134 129
f 192 196 134
f 196 191 195
f 196 192 191
f 198 194 131
f 198 131 138
f 200 134 196
f 200 141 134
f 199 196 195
f 199 200 196
f 202 198 138
f 202 138 145
f 202 201 197
f 202 197 198
f 203 141 200
f 203 146 141
f 204 147 146
f 204 146 203
f 205 148 147
f 205 147 204
f 206 149 148
f 206 148 205
f 207 202 145
f 207 145 150
f 207 150 149
f 207 149 206
f 207 206 201
f 207 201 202
f 152 208 151
f 152 209 208
f 211 151 208
f 211 154 151
f 154 210 153
f 154 211 210
f 209 152 155
f 209 155 212
f 212 211 208
f 212 208 209
f 213 155 156
f 213 212 155
f 210 157 153
f 210 215 157
f 213 156 158
f 213 158 216
f 217 158 159
f 217 216 158
f 220 157 215
f 220 160 157
f 220 214 219
f 220 215 214
f 222 217 159
f 222 159 162
f 222 162 161
f 222 161 221
f 221 216 217
f 221 217 222
f 223 219 218
f 223 224 219
f 225 160 220
f 225 165 160
f 225 164 165
f 225 224 164
f 225 219 224
f 225 220 219
f 227 221 161
f 227 161 168
f 228 164 224
f 228 171 164
f 229 172 171
f 229 171 228
f 231 227 168
f 231 168 175
f 231 230 226
f 231 226 227
f 229 176 172
f 229 232 176
f 233 177 176
f 233 176 232
f 234 178 177
f 234 177 233
f 235 231 175
f 235 175 179
f 235 179 178
f 235 178 234
f 235 234 230
f 235 230 231
f 237 182 183
f 237 236 182
f 238 183 184
f 238 237 183
f 187 239 186
f 187 240 239
f 241 182 236
f 241 188 182
f 188 240 187
f 188 241 240
f 238 184 189
f 238 189 243
f 242 237 238
f 242 238 243
f 239 191 186
f 239 246 191
f 247 246 239
f 247 239 240
f 243 189 193
f 243 193 249
f 248 242 243
f 248 243 249
f 250 193 194
f 250 249 193
f 252 244 251
f 252 245 244
f 246 195 191
f 246 253 195
f 253 245 252
f 253 246 245
f 256 250 194
f 256 194 198
f 256 198 197
f 256 197 255
f 256 255 249
f 256 249 250
f 257 195 253
f 257 199 195
f 258 200 199
f 258 199 257
f 261 255 197
f 261 197 201
f 261 260 254
f 261 254 255
f 262 200 258
f 262 203 200
f 204 203 262
f 204 262 263
f 262 258 259
f 262 259 263
f 264 205 204
f 264 204 263
f 264 263 259
f 264 259 260
f 265 261 201
f 265 201 206
f 265 206 205
f 265 205 264
f 264 260 261
f 264 261 265
f 211 266 210
f 211 267 266
f 268 211 212
f 268 267 211
f 269 212 213
f 269 268 212
f 266 215 210
f 266 273 215
f 273 214 215
f 273 272 214
f 274 267 268
f 274 268 275
f 276 269 213
f 276 213 216
f 275 268 269
f 275 269 276
f 278 271 270
f 278 279 271
f 272 219 214
f 272 280 219
f 280 218 219
f 280 279 218
f 281 280 272
f 281 272 273
f 282 274 275
f 282 275 283
f 284 276 216
f 284 216 221
f 284 283 275
f 284 275 276
f 286 277 285
f 286 278 277
f 287 218 279
f 287 223 218
f 286 279 278
f 286 287 279
f 288 224 223
f 288 223 287
f 291 284 221
f 291 221 227
f 291 227 226
f 291 226 290
f 291 290 283
f 291 283 284
f 292 224 288
f 292 228 224
f 293 229 228
f 293 228 292
f 295 290 226
f 295 226 230
f 295 294 289
f 295 289 290
f 296 229 293
f 296 232 229
f 233 232 296
f 233 296 297
f 296 293 294
f 296 294 297
f 298 295 230
f 298 230 234
f 298 234 233
f 298 233 297
f 297 294 295
f 297 295 298
f 302 236 237
f 302 301 236
f 301 300 299
f 301 302 300
f 304 236 301
f 304 241 236
f 241 303 240
f 241 304 303
f 305 302 237
f 305 237 242
f 307 244 245
f 307 306 244
f 308 245 246
f 308 307 245
f 303 247 240
f 303 309 247
f 247 308 246
f 247 309 308
f 310 309 303
f 310 303 304
f 305 242 248
f 305 248 311
f 312 248 249
f 312 311 248
f 306 251 244
f 306 313 251
f 314 252 251
f 314 251 313
f 314 313 306
f 314 306 307
f 315 253 252
f 315 252 314
f 314 307 308
f 314 308 315
f 316 315 308
f 316 308 309
f 316 309 310
f 316 310 317
f 312 249 255
f 312 255 319
f 319 255 254
f 319 254 318
f 319 318 311
f 319 311 312
f 320 253 315
f 320 257 253
f 321 258 257
f 321 257 320
f 320 315 316
f 320 316 321
f 322 259 258
f 322 258 321
f 322 321 316
f 322 316 317
f 323 318 254
f 323 254 260
f 323 260 259
f 323 259 322
f 323 322 317
f 323 317 318
f 267 326 266
f 267 327 326
f 326 325 324
f 326 327 325
f 271 329 270
f 271 330 329
f 331 266 326
f 331 273 266
f 332 327 267
f 332 267 274
f 332 328 327
f 332 333 328
f 335 270 329
f 335 278 270
f 278 334 277
f 278 335 334
f 336 330 271
f 336 271 279
f 335 329 330
f 335 330 336
f 337 279 280
f 337 336 279
f 331 281 273
f 331 338 281
f 281 337 280
f 281 338 337
f 332 274 282
f 332 282 339
f 340 282 283
f 340 339 282
f 334 285 277
f 334 341 285
f 286 285 341
f 286 341 342
f 342 341 334
f 342 334 335
f 343 287 286
f 343 286 342
f 342 335 336
f 342 336 343
f 288 287 343
f 288 343 344
f 343 336 337
f 343 337 344
f 345 344 337
f 345 337 338
f 347 340 283
f 347 283 290
f 347 290 289
f 347 289 346
f 347 346 339
f 347 339 340
f 348 288 344
f 348 292 288
f 349 293 292
f 349 292 348
f 348 344 345
f 348 345 349
f 350 346 289
f 350 289 294
f 350 294 293
f 350 293 349
f 350 349 345
f 350 345 346
f 300 351 299
f 300 352 351
f 353 299 351
f 353 301 299
f 354 352 300
f 354 300 302
f 353 351 352
f 353 352 354
f 355 301 353
f 355 304 301
f 356 354 302
f 356 302 305
f 356 355 353
f 356 353 354
f 355 310 304
f 355 357 310
f 358 356 305
f 358 305 311
f 358 357 355
f 358 355 356
f 359 310 357
f 359 317 310
f 360 358 311
f 360 311 318
f 360 318 317
f 360 317 359
f 359 357 358
f 359 358 360
f 325 361 324
f 325 362 361
f 363 324 361
f 363 326 324
f 364 362 325
f 364 325 327
f 363 361 362
f 363 362 364
f 328 364 327
f 328 365 364
f 366 326 363
f 366 331 326
f 367 366 363
f 367 363 364
f 365 328 333
f 365 333 368
f 333 332 367
f 333 367 368
f 368 367 364
f 368 364 365
f 369 331 366
f 369 338 331
f 367 332 339
f 367 339 370
f 370 369 366
f 370 366 367
f 371 338 369
f 371 345 338
f 372 370 339
f 372 339 346
f 372 346 345
f 372 345 371
f 372 371 369
f 372 369 370
