# parsimony mesh: cplx_CPLX0-3681 (source /Users/eranagmon/code/v2e-cplx/workspace/studies/ecoli-3d/viz/3d/structures/cplx_CPLX0-3681.pdb)
# atoms: 12330  voxel: 16 Å  verts: 282  tris: 540
v 8.6385 -15.1315 -86.4384
v 20.8900 -14.9109 -86.2575
v 29.1822 -13.6406 -84.9404
v -3.1595 2.0763 -84.6018
v 3.9391 -4.0888 -86.4940
v 20.8900 -5.3364 -88.6694
v 30.8789 -5.3364 -86.2799
v -3.1595 2.7599 -84.6018
v 4.8900 3.3327 -85.5653
v 20.8900 5.3354 -86.9652
v 31.2497 5.4302 -86.4683
v -4.4878 -14.3811 -72.4203
v 3.9391 -16.3433 -77.2735
v 20.8900 -17.2934 -76.5533
v 29.9989 -14.3182 -76.5533
v -5.2706 -4.0888 -77.2735
v -2.0281 -8.5904 -83.0870
v 33.5101 -5.3364 -76.5533
v -4.7774 5.3220 -76.5533
v 4.7411 11.6678 -75.4934
v 21.4684 13.7822 -75.4934
v 32.4012 7.9649 -76.5533
v 9.9753 19.5582 -69.4534
v 16.5207 19.5582 -69.4534
v -4.2447 -14.1955 -60.5533
v 4.8900 -17.9496 -60.5533
v 20.8900 -18.0238 -60.5533
v 30.0049 -14.2697 -60.5533
v -7.8775 -5.3364 -60.5533
v 32.9707 -5.3364 -60.5533
v -6.8563 11.1325 -60.6005
v -0.6914 16.7785 -65.9652
v 24.4292 15.7926 -60.5533
v 31.8558 7.7926 -60.5533
v -4.5102 19.3283 -55.2986
v 4.7411 19.9296 -60.6005
v 16.4292 19.7475 -60.5533
v -3.2451 -13.4372 -52.4090
v 4.8900 -15.5372 -50.9302
v 20.8900 -15.6413 -50.7932
v 29.1902 -13.5760 -52.2264
v -4.8135 -3.7654 -46.0667
v 4.8900 -6.8213 -42.9302
v 20.5644 -4.8954 -43.4310
v 30.3396 -5.3364 -50.6653
v -5.5725 9.1004 -45.4471
v 4.8900 12.1356 -43.1045
v 19.8294 10.2160 -45.7474
v 30.5225 5.2004 -50.3629
v -4.5102 19.3283 -51.3763
v 4.8900 19.5751 -51.1045
v 13.9782 19.2143 -51.7986
v 8.6429 -79.0494 -22.3189
v 20.8900 -78.9423 -22.2715
v 29.3039 -77.7645 -21.0786
v 5.9698 -69.3364 -22.6998
v 20.8900 -69.3364 -24.3108
v 30.7546 -69.3364 -22.1643
v 7.9101 -60.6702 -21.6498
v 20.8900 -59.0529 -22.5926
v 30.9622 -58.9579 -22.1760
v -55.4202 -15.0212 -22.2668
v -43.1100 -14.8444 -22.1424
v -34.7944 -13.6622 -20.9587
v -58.3394 -5.3364 -22.7473
v -43.1100 -5.3364 -24.2805
v -33.3473 -5.3364 -22.0865
v -3.1440 2.6153 -36.5229
v 4.8900 1.1787 -35.5932
v 15.0140 0.7320 -35.3036
v -56.4390 3.3901 -21.7652
v -43.1100 5.0452 -22.6914
v -33.0754 5.1126 -22.1922
v -3.1440 2.7249 -36.5229
v 4.8900 4.1356 -35.5932
v 15.0140 4.5649 -35.3036
v 8.6900 48.9630 -22.3367
v 20.8900 49.1557 -22.1824
v 29.1934 50.3536 -20.9421
v 5.9456 58.6636 -22.8561
v 20.8900 58.6636 -24.3801
v 30.6623 58.6636 -22.0774
v 7.8308 67.4551 -21.8403
v 20.8900 69.1049 -22.7510
v 30.9496 69.1271 -22.1966
v -4.3941 -78.3073 -8.4060
v 3.9417 -80.2719 -13.2649
v 20.8900 -81.3378 -12.5533
v 30.0795 -78.3967 -12.5533
v -5.6600 -69.3364 -11.3091
v -2.0302 -69.3364 -19.3091
v 33.2795 -69.3364 -12.5533
v -5.2259 -57.9340 -9.7083
v 3.6956 -53.9688 -12.8630
v 21.3845 -50.5768 -11.4319
v 32.0900 -56.3866 -12.5533
v 10.1478 -44.5455 -5.3510
v 16.3809 -44.5455 -5.3510
v -68.4863 -14.3656 -8.5915
v -60.0961 -16.2110 -13.3762
v -43.1100 -17.1109 -12.5533
v -34.0354 -14.2895 -12.5533
v -69.7353 -5.3364 -11.5801
v -66.3394 -5.3364 -19.5801
v -30.8394 -5.3364 -12.5533
v -69.2342 6.2093 -9.8842
v -60.6260 10.1330 -12.9764
v -42.4678 13.5850 -11.4624
v -31.9140 7.7705 -12.5533
v -54.1464 19.5187 -5.4018
v -47.3729 19.5187 -5.4018
v -4.4454 49.6647 -8.3883
v 3.9700 47.8814 -13.2543
v 20.8900 46.9985 -12.5533
v 29.9531 49.7270 -12.5533
v -5.7500 58.6636 -11.3121
v -2.0544 58.6636 -19.3121
v 33.2381 58.6636 -12.5533
v -5.2946 70.2546 -9.7300
v 3.6149 74.1882 -12.8632
v 21.6476 77.7737 -11.4192
v 32.1750 71.9576 -12.5533
v 10.0657 83.4460 -5.3298
v 16.8193 83.4460 -5.3298
v -4.2861 -78.2296 3.4467
v 4.8900 -82.0814 3.4467
v 20.8900 -82.1572 3.4467
v 30.0552 -78.3053 3.4467
v -7.9000 -69.3364 3.4467
v 33.0180 -69.3364 3.4467
v -6.7803 -52.8950 3.4728
v -0.5189 -47.2674 -1.8431
v 24.0876 -48.2004 3.4467
v 31.8528 -56.2004 3.4467
v -4.4085 -44.7310 8.8236
v 4.8446 -44.2675 3.4728
v 16.0876 -44.4544 3.4467
v -68.3289 -14.2516 3.4467
v -59.1100 -17.9275 3.4467
v -43.1100 -17.8608 3.4467
v -34.0987 -14.1849 3.4467
v -72.0367 -5.3364 3.4467
v -31.2461 -5.3364 3.4467
v -70.9342 11.1910 3.2976
v -64.8131 16.8759 -2.1351
v -39.8459 15.7779 3.4467
v -32.2575 7.7779 3.4467
v -68.5399 19.3234 8.5316
v -59.3319 19.7528 3.2976
v -47.8458 19.5302 3.4467
v -4.2033 49.8431 3.4467
v 4.8900 46.2429 3.4467
v 20.8900 46.2549 3.4467
v 29.8542 49.8552 3.4467
v -7.9463 58.6636 3.4467
v 32.8720 58.6636 3.4467
v -6.9918 75.2182 3.2803
v -0.6009 80.9213 -2.1639
v 24.6926 80.0882 3.4467
v 31.9077 72.0882 3.4467
v -4.5890 83.3475 8.5028
v 4.7954 83.8906 3.2803
v 16.6926 83.6843 3.4467
v -3.3941 -77.5564 11.7601
v 4.8900 -79.6969 13.2168
v 20.8900 -79.7616 13.2940
v 29.2715 -77.6427 11.8630
v -4.9406 -67.7920 18.0347
v 4.8900 -70.8584 21.2168
v 20.5665 -68.8985 20.7395
v 30.4931 -69.3364 13.5276
v -5.5492 -54.8694 18.5028
v 4.8900 -51.8680 20.6644
v 19.6733 -53.7666 18.2242
v 30.6460 -58.7096 13.8050
v -4.4085 -44.7310 12.5402
v 4.8900 -44.5935 12.6644
v 13.6625 -44.9513 11.9768
v -67.3590 -13.5275 11.7165
v -59.1100 -15.5978 13.1799
v -43.1100 -15.5943 13.1702
v -34.8788 -13.5228 11.7035
v -69.0209 -3.8335 18.0086
v -59.1100 -6.7902 21.1799
v -43.5419 -4.8023 20.5232
v -33.7540 -5.3364 13.2615
v -69.7295 9.1882 18.5619
v -59.1100 12.1106 20.6582
v -44.4957 10.0872 18.0732
v -33.5333 5.1224 13.6097
v -68.5399 19.3234 12.6387
v -59.1100 19.3838 12.6582
v -50.4949 18.9640 11.8700
v -3.2324 50.5686 11.5794
v 4.8900 48.4451 13.1754
v 20.8900 48.4120 13.2206
v 29.0616 50.5245 11.6396
v -4.9659 60.1277 17.9263
v 4.8900 57.0328 21.1754
v 20.5740 59.0948 20.6452
v 30.2961 58.6636 13.3156
v -5.7799 73.2441 18.6043
v 4.8900 76.3211 20.9903
v 19.8638 74.2704 18.3273
v 30.5932 69.3013 13.7458
v -4.5890 83.3475 12.7093
v 4.8900 83.6105 12.9903
v 14.0308 83.2422 12.2422
v -3.1742 -61.4290 27.5027
v 4.8900 -62.8584 28.4171
v 15.0175 -63.2732 28.6845
v -3.1742 -61.2248 27.5027
v 4.8900 -59.8680 28.4171
v 15.0175 -59.4902 28.6845
v 8.5758 -15.1146 41.6635
v 20.8900 -14.8072 41.9432
v 29.0636 -13.5193 43.2252
v -67.2264 2.5017 27.5478
v -59.1100 1.2098 28.3524
v -49.1631 0.8871 28.5532
v 6.1659 -5.3364 41.1416
v 20.8900 -5.3364 39.6525
v 30.7070 -5.3364 41.9576
v -67.2264 2.8713 27.5478
v -59.1100 4.1106 28.3524
v -49.1631 4.3853 28.5532
v 8.2386 3.4785 42.1564
v 20.8900 5.1969 41.1560
v 31.1390 5.2264 41.6827
v -3.2748 66.4371 27.5925
v 4.8900 65.0328 28.4740
v 15.0301 64.7156 28.6706
v -3.2748 66.9644 27.5925
v 4.8900 68.3211 28.4740
v 15.0301 68.5728 28.6706
v -4.3424 -14.2450 55.6309
v 3.9015 -16.2022 50.7572
v 20.8900 -17.1318 51.4467
v 29.9224 -14.2310 51.4467
v -5.6159 -5.3364 52.9098
v -1.8341 -5.3364 44.9098
v 33.3324 -5.3364 51.4467
v -5.2189 6.0829 54.5466
v 3.8624 10.1140 51.2632
v 21.3943 13.6520 52.5666
v 32.2999 7.7879 51.4467
v 10.1527 19.4664 58.6465
v 16.3972 19.4664 58.6465
v -4.2079 -14.1499 67.4467
v 4.8900 -17.7712 67.4467
v 20.8900 -17.8993 67.4467
v 30.0244 -14.2779 67.4467
v -7.7994 -5.3364 67.4467
v 33.0088 -5.3364 67.4467
v -6.7956 11.1152 67.4518
v -0.5139 16.7495 62.1218
v 24.2575 15.7917 67.4467
v 31.8743 7.7917 67.4467
v -4.4639 19.3015 72.7885
v 4.8476 19.8274 67.4518
v 16.2575 19.6400 67.4467
v -3.3415 -13.5124 75.6993
v 4.8900 -15.5227 77.1317
v 20.8900 -15.5748 77.2032
v 29.1995 -13.5819 75.7946
v -4.9236 -3.8298 81.9983
v 4.8900 -6.9547 85.1317
v 20.6136 -4.9376 84.6387
v 30.3834 -5.3364 77.4412
v -5.5971 9.1834 82.5483
v 4.8900 12.2619 84.8447
v 19.8177 10.2466 82.2831
v 30.5716 5.2314 77.7581
v -4.4639 19.3015 76.6160
v 4.8900 19.5163 76.8447
v 13.8727 19.1626 76.1414
v -3.2213 2.5079 91.5445
v 4.8900 1.0453 92.4712
v 15.0960 0.6616 92.7148
v -3.2213 2.8632 91.5445
v 4.8900 4.2619 92.4712
v 15.0960 4.5951 92.7148
f 6 1 5
f 6 2 1
f 6 3 2
f 6 7 3
f 9 4 8
f 9 5 4
f 9 6 5
f 9 10 6
f 10 7 6
f 10 11 7
f 14 1 2
f 14 13 1
f 3 14 2
f 3 15 14
f 17 1 13
f 17 5 1
f 17 4 5
f 17 16 4
f 17 12 16
f 17 13 12
f 18 15 3
f 18 3 7
f 19 4 16
f 19 8 4
f 9 8 19
f 9 19 20
f 10 9 20
f 10 20 21
f 18 7 11
f 18 11 22
f 22 11 10
f 22 10 21
f 23 21 20
f 23 24 21
f 26 12 13
f 26 25 12
f 14 26 13
f 14 27 26
f 28 14 15
f 28 27 14
f 29 12 25
f 29 16 12
f 30 28 15
f 30 15 18
f 29 19 16
f 29 31 19
f 32 20 19
f 32 19 31
f 34 30 18
f 34 18 22
f 34 22 21
f 34 21 33
f 32 23 20
f 32 36 23
f 35 32 31
f 35 36 32
f 33 21 24
f 33 24 37
f 37 24 23
f 37 23 36
f 26 38 25
f 26 39 38
f 27 39 26
f 27 40 39
f 41 27 28
f 41 40 27
f 38 29 25
f 38 42 29
f 43 42 38
f 43 38 39
f 43 39 40
f 43 40 44
f 41 28 30
f 41 30 45
f 45 44 40
f 45 40 41
f 42 31 29
f 42 46 31
f 49 45 30
f 49 30 34
f 49 34 33
f 49 33 48
f 49 48 44
f 49 44 45
f 50 31 46
f 50 35 31
f 51 36 35
f 51 35 50
f 50 46 47
f 50 47 51
f 52 48 33
f 52 33 37
f 52 37 36
f 52 36 51
f 52 51 47
f 52 47 48
f 57 53 56
f 57 54 53
f 57 55 54
f 57 58 55
f 59 57 56
f 59 60 57
f 60 58 57
f 60 61 58
f 66 62 65
f 66 63 62
f 66 64 63
f 66 67 64
f 43 68 42
f 43 69 68
f 70 43 44
f 70 69 43
f 71 66 65
f 71 72 66
f 72 67 66
f 72 73 67
f 68 46 42
f 68 74 46
f 47 46 74
f 47 74 75
f 75 74 68
f 75 68 69
f 76 70 44
f 76 44 48
f 76 48 47
f 76 47 75
f 76 75 69
f 76 69 70
f 81 77 80
f 81 78 77
f 81 79 78
f 81 82 79
f 83 81 80
f 83 84 81
f 84 82 81
f 84 85 82
f 88 53 54
f 88 87 53
f 55 88 54
f 55 89 88
f 87 56 53
f 87 91 56
f 91 86 90
f 91 87 86
f 92 89 55
f 92 55 58
f 91 59 56
f 91 94 59
f 93 91 90
f 93 94 91
f 95 60 59
f 95 59 94
f 92 58 61
f 92 61 96
f 96 61 60
f 96 60 95
f 97 95 94
f 97 98 95
f 101 62 63
f 101 100 62
f 64 101 63
f 64 102 101
f 100 65 62
f 100 104 65
f 104 99 103
f 104 100 99
f 105 102 64
f 105 64 67
f 104 71 65
f 104 107 71
f 106 104 103
f 106 107 104
f 108 72 71
f 108 71 107
f 105 67 73
f 105 73 109
f 109 73 72
f 109 72 108
f 110 108 107
f 110 111 108
f 114 77 78
f 114 113 77
f 79 114 78
f 79 115 114
f 113 80 77
f 113 117 80
f 117 112 116
f 117 113 112
f 118 115 79
f 118 79 82
f 117 83 80
f 117 120 83
f 119 117 116
f 119 120 117
f 121 84 83
f 121 83 120
f 118 82 85
f 118 85 122
f 122 85 84
f 122 84 121
f 123 121 120
f 123 124 121
f 126 86 87
f 126 125 86
f 88 126 87
f 88 127 126
f 128 88 89
f 128 127 88
f 129 86 125
f 129 90 86
f 130 128 89
f 130 89 92
f 129 93 90
f 129 131 93
f 132 94 93
f 132 93 131
f 130 92 96
f 130 96 134
f 134 96 95
f 134 95 133
f 132 97 94
f 132 136 97
f 135 132 131
f 135 136 132
f 133 95 98
f 133 98 137
f 137 98 97
f 137 97 136
f 139 99 100
f 139 138 99
f 101 139 100
f 101 140 139
f 141 101 102
f 141 140 101
f 142 99 138
f 142 103 99
f 143 141 102
f 143 102 105
f 142 106 103
f 142 144 106
f 145 107 106
f 145 106 144
f 143 105 109
f 143 109 147
f 147 109 108
f 147 108 146
f 145 110 107
f 145 149 110
f 148 145 144
f 148 149 145
f 146 108 111
f 146 111 150
f 150 111 110
f 150 110 149
f 152 112 113
f 152 151 112
f 114 152 113
f 114 153 152
f 154 114 115
f 154 153 114
f 155 112 151
f 155 116 112
f 156 154 115
f 156 115 118
f 155 119 116
f 155 157 119
f 158 120 119
f 158 119 157
f 156 118 122
f 156 122 160
f 160 122 121
f 160 121 159
f 158 123 120
f 158 162 123
f 161 158 157
f 161 162 158
f 159 121 124
f 159 124 163
f 163 124 123
f 163 123 162
f 126 164 125
f 126 165 164
f 127 165 126
f 127 166 165
f 167 127 128
f 167 166 127
f 164 129 125
f 164 168 129
f 169 168 164
f 169 164 165
f 169 165 166
f 169 166 170
f 167 128 130
f 167 130 171
f 171 170 166
f 171 166 167
f 168 131 129
f 168 172 131
f 175 171 130
f 175 130 134
f 175 134 133
f 175 133 174
f 175 174 170
f 175 170 171
f 176 131 172
f 176 135 131
f 177 136 135
f 177 135 176
f 176 172 173
f 176 173 177
f 178 174 133
f 178 133 137
f 178 137 136
f 178 136 177
f 178 177 173
f 178 173 174
f 139 179 138
f 139 180 179
f 140 180 139
f 140 181 180
f 182 140 141
f 182 181 140
f 179 142 138
f 179 183 142
f 184 183 179
f 184 179 180
f 184 180 181
f 184 181 185
f 182 141 143
f 182 143 186
f 186 185 181
f 186 181 182
f 187 142 183
f 187 144 142
f 190 186 143
f 190 143 147
f 190 147 146
f 190 146 189
f 190 189 185
f 190 185 186
f 191 144 187
f 191 148 144
f 192 149 148
f 192 148 191
f 191 187 188
f 191 188 192
f 193 189 146
f 193 146 150
f 193 150 149
f 193 149 192
f 193 192 188
f 193 188 189
f 152 194 151
f 152 195 194
f 153 195 152
f 153 196 195
f 197 153 154
f 197 196 153
f 194 155 151
f 194 198 155
f 199 198 194
f 199 194 195
f 199 195 196
f 199 196 200
f 197 154 156
f 197 156 201
f 201 200 196
f 201 196 197
f 198 157 155
f 198 202 157
f 205 201 156
f 205 156 160
f 205 160 159
f 205 159 204
f 205 204 200
f 205 200 201
f 206 157 202
f 206 161 157
f 207 162 161
f 207 161 206
f 206 202 203
f 206 203 207
f 208 204 159
f 208 159 163
f 208 163 162
f 208 162 207
f 208 207 203
f 208 203 204
f 169 209 168
f 169 210 209
f 211 169 170
f 211 210 169
f 209 172 168
f 209 212 172
f 173 172 212
f 173 212 213
f 213 212 209
f 213 209 210
f 214 211 170
f 214 170 174
f 214 174 173
f 214 173 213
f 214 213 210
f 214 210 211
f 184 218 183
f 184 219 218
f 220 184 185
f 220 219 184
f 222 215 221
f 222 216 215
f 222 217 216
f 222 223 217
f 218 187 183
f 218 224 187
f 188 187 224
f 188 224 225
f 225 224 218
f 225 218 219
f 226 220 185
f 226 185 189
f 226 189 188
f 226 188 225
f 226 225 219
f 226 219 220
f 227 222 221
f 227 228 222
f 228 223 222
f 228 229 223
f 199 230 198
f 199 231 230
f 232 199 200
f 232 231 199
f 230 202 198
f 230 233 202
f 203 202 233
f 203 233 234
f 234 233 230
f 234 230 231
f 235 232 200
f 235 200 204
f 235 204 203
f 235 203 234
f 235 234 231
f 235 231 232
f 238 215 216
f 238 237 215
f 217 238 216
f 217 239 238
f 241 215 237
f 241 221 215
f 241 236 240
f 241 237 236
f 242 239 217
f 242 217 223
f 241 227 221
f 241 244 227
f 243 241 240
f 243 244 241
f 245 228 227
f 245 227 244
f 242 223 229
f 242 229 246
f 246 229 228
f 246 228 245
f 247 245 244
f 247 248 245
f 250 236 237
f 250 249 236
f 238 250 237
f 238 251 250
f 252 238 239
f 252 251 238
f 253 236 249
f 253 240 236
f 254 252 239
f 254 239 242
f 253 243 240
f 253 255 243
f 256 244 243
f 256 243 255
f 254 242 246
f 254 246 258
f 258 246 245
f 258 245 257
f 256 247 244
f 256 260 247
f 259 256 255
f 259 260 256
f 257 245 248
f 257 248 261
f 261 248 247
f 261 247 260
f 250 262 249
f 250 263 262
f 251 263 250
f 251 264 263
f 265 251 252
f 265 264 251
f 262 253 249
f 262 266 253
f 267 266 262
f 267 262 263
f 267 263 264
f 267 264 268
f 265 252 254
f 265 254 269
f 269 268 264
f 269 264 265
f 266 255 253
f 266 270 255
f 273 269 254
f 273 254 258
f 273 258 257
f 273 257 272
f 273 272 268
f 273 268 269
f 274 255 270
f 274 259 255
f 275 260 259
f 275 259 274
f 274 270 271
f 274 271 275
f 276 272 257
f 276 257 261
f 276 261 260
f 276 260 275
f 276 275 271
f 276 271 272
f 267 277 266
f 267 278 277
f 279 267 268
f 279 278 267
f 277 270 266
f 277 280 270
f 271 270 280
f 271 280 281
f 282 279 268
f 282 268 272
f 282 272 271
f 282 271 281
