# parsimony mesh: cplx_CPLX0-8557 (source /Users/eranagmon/code/v2e-cplx/workspace/studies/ecoli-3d/viz/3d/structures/cplx_CPLX0-8557.pdb)
# atoms: 9908  voxel: 8 Å  verts: 1262  tris: 2596
v 78.2037 -81.9644 -52.3317
v 79.9215 -81.9644 -52.3317
v 78.2037 -80.9538 -52.3317
v 79.9215 -80.9538 -52.3317
v -64.6956 61.7351 -52.3040
v -63.4021 61.7351 -52.3040
v -64.6956 62.7900 -52.3040
v -63.4021 62.7900 -52.3040
v 62.9111 -90.2465 -44.7106
v 65.6886 -90.2465 -44.7106
v 61.4826 -85.7653 -45.4167
v 68.0870 -86.1775 -46.4393
v 75.5961 -83.6654 -48.6173
v 83.0268 -82.7523 -47.7294
v 88.1599 -82.2640 -44.7894
v 54.2659 -75.9201 -44.9616
v 59.1872 -78.2582 -45.8136
v 67.6848 -77.7653 -48.0917
v 75.5961 -78.0784 -50.2737
v 83.0658 -78.1030 -47.9255
v 88.1599 -80.5854 -44.7894
v 53.5630 -69.7653 -45.3073
v 59.6848 -69.7653 -46.4852
v 68.2481 -69.1703 -45.7846
v 75.6848 -71.0861 -46.2098
v 80.8768 -72.5180 -45.7283
v 54.2746 -65.2751 -44.8743
v 59.6848 -65.0553 -45.2413
v 65.9569 -65.3088 -44.8736
v -81.0476 53.2041 -44.9530
v -76.3152 52.7172 -45.6466
v -68.3152 53.0229 -45.8471
v -61.6888 53.6117 -45.2204
v -88.6701 61.7445 -44.6300
v -83.9546 58.7406 -45.3309
v -76.3152 58.2347 -46.8612
v -67.7435 58.7350 -49.2683
v -59.8787 58.0025 -48.1985
v -55.1759 59.6031 -45.8433
v -88.9498 66.2347 -44.7317
v -84.3152 66.2347 -45.4030
v -76.3152 66.2347 -46.1266
v -67.7435 65.7679 -49.2305
v -60.4897 65.8119 -48.3567
v -55.1759 63.5004 -45.8433
v -88.8064 70.6689 -44.4385
v -84.3152 70.7548 -44.5239
v -76.3152 71.0846 -44.9120
v -68.3152 71.5305 -45.7999
v -62.9107 71.0885 -45.5367
v 61.4067 -90.5071 -40.1393
v 68.0870 -90.8866 -40.7098
v 75.6848 -90.4552 -37.9056
v 79.7425 -89.8054 -36.2102
v 55.3359 -83.6260 -37.4865
v 57.3647 -86.0817 -40.1476
v 71.0219 -89.1190 -43.7568
v 75.6848 -87.9910 -41.9056
v 83.1530 -85.1549 -39.5016
v 88.1599 -82.2640 -42.7930
v 53.9040 -78.2582 -40.1476
v 56.1888 -81.2534 -42.8198
v 86.3869 -77.2392 -39.5164
v 87.9501 -77.2392 -39.5164
v 46.9985 -66.7746 -37.6840
v 50.0672 -69.5709 -40.2662
v 63.3268 -66.1587 -36.6698
v 68.2481 -66.3279 -39.6576
v 75.6848 -67.3940 -40.1393
v 83.6000 -71.5226 -39.3996
v 87.7404 -73.7335 -36.2397
v 46.9985 -63.1796 -37.6840
v 51.6386 -62.7591 -40.2662
v 60.2700 -64.0367 -39.6576
v 65.9569 -65.3088 -42.0031
v 78.6719 -26.8774 -37.1487
v 83.6848 -28.0465 -37.4230
v 91.6848 -28.3109 -37.2372
v 98.0912 -27.2299 -36.9010
v 78.6719 -24.3919 -37.1487
v 84.0849 -21.7412 -37.2747
v 91.0758 -22.0083 -37.1261
v 98.0912 -24.8370 -36.9010
v 87.0183 -17.4592 -36.3202
v 88.0032 -17.4592 -36.3202
v -72.5549 46.1894 -36.2652
v -72.0817 46.1894 -36.2652
v -82.5282 52.3242 -40.1393
v -75.6590 48.9107 -39.4149
v -68.9751 49.0929 -39.4149
v -59.5394 52.8040 -40.8043
v -56.2041 54.0939 -38.5810
v -88.6701 61.7445 -43.0852
v -84.4572 59.3098 -39.6258
v -80.2895 62.2085 -36.1665
v -56.3554 54.2698 -43.9143
v -53.0233 58.1861 -40.1796
v -48.2137 62.1024 -36.4449
v -89.4650 66.1319 -40.3069
v -84.2160 66.1319 -38.4429
v -79.2604 66.2347 -37.8094
v -57.6681 68.6784 -40.1393
v -52.4317 64.3032 -39.5227
v -48.2137 62.4239 -36.4449
v -90.1265 73.6952 -39.5792
v -83.1015 73.4892 -39.8391
v -77.5167 73.5887 -39.2267
v -68.3152 73.2510 -40.1393
v -61.6682 71.9129 -40.1393
v -97.1130 84.1018 -36.8635
v -92.3544 81.4938 -36.7013
v -84.3152 79.1959 -36.9642
v -79.5664 78.8653 -36.8394
v -97.1130 86.9315 -36.8635
v -94.9362 86.9315 -36.8635
v -58.9581 109.3209 -36.8552
v -53.8193 109.3209 -36.8552
v -42.2706 110.0842 -36.3077
v -40.0762 110.0842 -36.3077
v -58.9436 114.2347 -36.8529
v -51.6177 113.9928 -36.7681
v -44.3784 114.3835 -36.2718
v -40.0762 112.2689 -36.3077
v -57.1769 118.9293 -36.3749
v -52.3152 118.8919 -36.3885
v -46.4861 118.4164 -36.2359
v 61.4210 -90.2731 -35.2034
v 68.4047 -90.6270 -32.3778
v 75.0862 -90.3463 -32.7615
v 79.7425 -89.8054 -35.8430
v 53.4796 -83.8592 -32.1393
v 59.1265 -87.3244 -32.3778
v 66.2180 -88.2386 -29.8701
v 77.3538 -88.9875 -30.5097
v 81.8031 -86.0986 -32.7615
v 53.2005 -77.9518 -31.9967
v 59.6848 -75.1048 -29.0604
v 63.8008 -73.9071 -28.2718
v 86.2894 -79.3544 -32.1393
v 88.4047 -75.3544 -32.1393
v 46.9985 -66.7746 -33.9834
v 51.7647 -69.5709 -33.3648
v 60.2700 -69.2013 -33.1378
v 67.3625 -68.7299 -32.0923
v 76.2299 -66.3033 -32.8035
v 83.6848 -69.2247 -32.1393
v 88.4047 -72.7041 -32.1393
v 46.9985 -63.1796 -33.9834
v 51.6848 -62.3752 -33.8494
v 57.9935 -63.8309 -35.2421
v 70.9241 -64.9649 -30.5795
v 73.9267 -64.9649 -30.5795
v 39.0827 -50.9242 -29.2914
v 43.6848 -51.2024 -29.1948
v 48.1181 -50.5225 -28.3945
v 39.0827 -48.4397 -29.2914
v 43.6848 -48.4622 -29.1948
v 48.1181 -49.3534 -28.3945
v 78.6719 -26.8774 -34.5450
v 83.6848 -28.0465 -33.9082
v 91.6848 -28.3109 -34.2099
v 98.0912 -27.2299 -34.9473
v 63.5293 -18.1241 -28.2272
v 67.6848 -19.0370 -29.1048
v 76.9649 -21.4928 -31.6427
v 82.6417 -20.5256 -31.9948
v 91.0758 -22.0083 -34.2079
v 98.0912 -24.8370 -34.9473
v 63.5293 -17.6804 -28.2272
v 67.6848 -17.1559 -29.1048
v 75.6848 -16.9402 -29.4659
v 83.6273 -17.4260 -32.1007
v 88.0032 -17.4592 -35.4928
v -72.5549 46.1894 -36.0480
v -72.0817 46.1894 -36.0480
v -89.2910 53.6365 -30.1691
v -84.2590 53.1773 -31.9341
v -76.1368 50.6333 -32.2069
v -68.9751 48.9912 -32.8845
v -59.6946 52.3185 -32.1681
v -56.2041 54.0939 -34.8540
v -89.2910 55.6453 -30.1691
v -84.2590 56.2603 -31.9341
v -79.7893 59.0190 -31.4752
v -56.6141 54.5230 -29.5207
v -52.8476 58.3127 -32.6346
v -48.2137 62.1024 -35.7486
v -96.3752 70.1099 -28.2933
v -92.7091 69.4199 -31.4635
v -86.8165 68.7299 -34.6338
v -77.2048 66.2347 -32.1393
v -56.8570 69.5607 -35.2617
v -51.1049 66.4043 -32.2625
v -48.2138 66.1029 -32.0551
v -96.6718 74.2347 -29.5627
v -92.8765 74.2347 -32.0873
v -84.2160 74.3750 -34.5616
v -76.0512 73.6621 -33.5995
v -68.3152 73.4164 -32.1393
v -59.8403 72.4592 -32.4128
v -52.3152 70.7525 -29.6479
v -48.2140 70.3631 -28.3617
v -97.6514 81.7550 -32.3857
v -91.6475 80.9310 -33.4105
v -85.7457 81.7429 -32.7723
v -79.5664 78.8653 -35.5465
v -97.6866 89.8528 -31.5675
v -92.6217 89.7547 -31.6299
v -87.6529 87.2445 -29.4068
v -96.7893 94.7700 -28.5196
v -95.6404 94.7700 -28.5196
v -58.9581 109.3209 -35.2138
v -53.8193 109.3209 -35.2138
v -42.2706 110.0842 -35.8021
v -40.0762 110.0842 -35.8021
v -80.6271 118.0569 -28.2588
v -76.3152 117.4957 -29.0055
v -68.3152 117.2439 -29.9100
v -60.6257 115.7289 -32.4660
v -51.6177 113.9928 -34.9053
v -44.3784 114.3835 -35.8907
v -40.0762 112.2689 -35.8021
v -80.6271 118.3972 -28.2588
v -76.3152 119.8007 -29.0055
v -68.3152 120.4595 -29.9100
v -60.0226 119.1024 -32.3165
v -52.3152 118.8919 -35.2909
v -46.4861 118.4164 -35.9793
v 21.1568 -90.6409 -21.3668
v 27.6848 -90.5069 -21.0975
v 32.2845 -89.8785 -20.1894
v 71.5513 -89.8138 -28.0400
v 72.0205 -89.8138 -28.0400
v 21.1568 -88.9566 -21.3668
v 27.6848 -89.1120 -21.0975
v 32.2845 -89.7029 -20.1894
v 46.3170 -83.4193 -22.7773
v 51.0482 -83.0578 -25.1012
v 59.6848 -83.3187 -26.8117
v 68.5331 -85.3707 -24.8950
v 75.0862 -86.9273 -24.8797
v 81.5149 -83.6647 -24.1393
v 46.4707 -77.7653 -22.6659
v 50.6338 -79.0414 -24.7056
v 59.6848 -79.1048 -26.8117
v 66.2441 -77.0504 -24.3058
v 84.8248 -78.1600 -24.3411
v 88.5890 -75.7565 -27.1422
v 126.5410 -75.8017 -20.7331
v 128.3695 -75.8017 -20.7331
v 47.4338 -73.6047 -20.8701
v 47.8390 -73.6047 -20.8701
v 69.4896 -70.0156 -23.9169
v 76.0518 -66.8836 -24.3474
v 83.7004 -69.3168 -24.7009
v 88.5890 -72.3821 -27.1422
v 126.5410 -72.9145 -20.7331
v 128.3695 -72.9145 -20.7331
v 71.0321 -62.0509 -23.5596
v 74.9601 -62.9795 -23.5710
v 81.7962 -61.7653 -21.8723
v 39.0827 -50.9242 -27.3013
v 44.1058 -51.3159 -24.4365
v 49.1937 -50.8344 -24.1393
v 71.1401 -57.1412 -20.6839
v 75.6848 -57.0803 -20.6905
v 80.5952 -57.4760 -20.3297
v 39.0827 -48.4397 -27.3013
v 44.0887 -46.2299 -24.4054
v 49.8270 -46.3182 -24.1614
v 46.4575 -40.3279 -21.5094
v 49.2431 -40.3279 -21.5094
v 54.7714 -19.2241 -21.1175
v 60.3915 -19.3628 -23.9262
v 67.4031 -19.2896 -24.3411
v 75.6848 -19.3186 -27.2882
v 80.2363 -18.4996 -28.0017
v 54.7714 -16.8559 -21.1175
v 60.8181 -14.6015 -23.3706
v 66.8828 -14.6924 -23.7163
v 75.6848 -16.9402 -27.2882
v 80.2363 -17.3928 -28.0017
v 63.4402 -9.6634 -20.2903
v 63.8836 -9.6634 -20.2903
v -97.0543 52.6206 -20.7918
v -92.1007 52.5190 -23.7308
v -86.0759 53.3007 -24.1393
v -74.3854 53.8818 -26.6803
v -68.1423 53.0788 -24.0639
v -62.3245 53.0545 -24.1393
v -97.0543 55.6491 -20.7918
v -92.1007 56.8120 -23.7308
v -86.0759 56.3956 -24.1393
v -75.2560 57.9290 -24.0639
v -70.6937 55.0585 -21.3470
v -58.3245 56.1074 -24.1393
v -55.0424 60.1074 -24.1393
v -16.7618 61.1274 -21.0770
v -14.1886 61.1274 -21.0770
v -96.3752 70.1099 -28.0271
v -96.0327 70.1099 -28.0271
v -74.1220 65.7710 -24.8219
v -69.7166 68.1286 -22.6102
v -58.8512 68.1184 -21.8173
v -52.8000 66.2834 -24.7674
v -48.2140 69.7819 -27.7175
v -16.8821 66.2347 -21.0757
v -14.2383 66.2347 -21.0757
v -96.6718 74.2347 -27.8129
v -95.5421 74.2347 -27.8129
v -72.4953 70.4212 -27.9436
v -67.1867 73.8755 -24.3779
v -59.6878 74.2067 -23.6944
v -52.3152 73.6599 -24.0127
v -47.8914 73.7153 -24.1594
v -16.6244 70.5141 -20.4501
v -15.6726 70.5141 -20.4501
v -97.2050 82.9991 -24.7455
v -93.0468 82.9904 -24.3914
v -87.6529 85.1389 -26.2998
v -64.6568 78.6973 -20.8123
v -60.3152 80.1333 -21.1021
v -52.3152 80.1688 -20.9439
v -47.5688 78.7446 -20.6013
v -97.2402 89.7598 -23.9714
v -92.1327 90.5981 -22.8645
v -87.0406 89.8422 -23.7005
v -96.7893 94.7700 -26.5260
v -92.6924 96.7498 -23.5884
v -86.2686 98.2347 -21.3851
v -89.2878 103.0010 -20.8386
v -87.4733 103.0010 -20.8386
v -81.6040 117.6618 -24.1393
v -76.0805 117.2919 -23.7818
v -68.3152 117.2439 -26.3291
v -62.8684 117.7210 -27.6549
v -81.6040 119.8558 -24.1393
v -75.4199 122.1185 -23.0631
v -69.8142 122.1930 -24.4160
v -62.8684 119.2756 -27.6549
v -74.3189 126.9005 -21.8653
v -71.8127 126.9005 -21.8653
v 23.6191 -97.8199 -12.2296
v 23.8637 -97.8199 -12.2296
v 20.7754 -93.4906 -15.3935
v 26.9921 -93.6994 -15.3935
v 33.2996 -90.0262 -16.1393
v 14.9493 -83.9211 -12.9913
v 18.6842 -86.3623 -14.7902
v 27.6848 -88.0804 -16.1393
v 33.2996 -89.6525 -16.1393
v 46.3170 -83.4193 -18.6900
v 49.0030 -83.4193 -18.6900
v 70.8482 -82.5027 -19.4283
v 75.6848 -82.8011 -18.8978
v 80.1976 -82.4090 -19.1950
v 119.5643 -81.8136 -12.3184
v 123.6848 -82.2101 -13.7039
v 128.3758 -82.3100 -14.0463
v 14.5316 -77.7653 -13.2596
v 17.0100 -77.7653 -13.2596
v 46.4707 -77.7653 -18.9541
v 48.7891 -77.7653 -18.9541
v 70.7969 -77.7653 -19.1788
v 75.9142 -77.4877 -15.6043
v 83.0044 -77.2935 -15.8949
v 88.6355 -74.6178 -12.5948
v 109.8963 -74.3895 -12.4634
v 116.4125 -77.3398 -13.0930
v 123.7985 -78.1871 -17.2427
v 129.8321 -78.1871 -16.4835
v 14.8827 -72.3540 -12.7810
v 16.3366 -72.3540 -12.7810
v 47.4338 -73.6047 -20.0084
v 47.8390 -73.6047 -20.0084
v 71.3374 -72.8491 -19.5696
v 73.8743 -70.0156 -16.5975
v 85.7082 -69.7653 -17.4332
v 91.4552 -69.8770 -13.9143
v 99.6848 -67.9178 -13.1816
v 106.9137 -70.2164 -12.3796
v 115.6848 -72.3737 -13.1970
v 123.7985 -71.7937 -15.9911
v 129.8507 -72.3562 -16.1393
v 15.4421 -58.5287 -12.3204
v 15.9243 -58.5287 -12.3204
v 70.2718 -60.0695 -16.1393
v 73.1349 -64.0695 -16.1393
v 85.5540 -62.1915 -16.1011
v 91.6848 -64.3990 -14.0164
v 99.6848 -64.7437 -13.1816
v 103.9311 -65.6019 -12.2959
v 15.4421 -57.5024 -12.3204
v 15.9243 -57.5024 -12.3204
v 47.0532 -50.4335 -18.6265
v 49.2634 -50.4335 -18.6265
v 62.6035 -51.1408 -13.1838
v 68.0761 -54.1410 -15.7462
v 75.6848 -53.0803 -17.2256
v 81.4582 -54.3917 -15.7068
v 46.2983 -45.9523 -16.0316
v 51.9199 -45.9741 -16.1954
v 60.1242 -45.6617 -13.4741
v 67.6848 -47.6914 -13.5496
v 75.6848 -48.5980 -13.2256
v 80.0965 -49.3277 -12.7518
v 46.4253 -39.4876 -16.1393
v 51.8198 -38.5089 -16.3143
v 57.6449 -39.3748 -13.7643
v 45.3670 -18.5741 -12.9171
v 51.9367 -19.1989 -15.8060
v 58.9643 -19.2206 -16.5775
v 64.5487 -18.6102 -19.5363
v 45.3670 -16.2882 -12.9171
v 51.9367 -16.2374 -15.8060
v 59.6287 -14.5639 -17.1055
v 64.4819 -13.7653 -19.5886
v 63.4402 -9.6634 -20.0080
v 63.8836 -9.6634 -20.0080
v -114.1069 45.1438 -13.5252
v -108.3152 45.0765 -14.0267
v -102.7707 45.7814 -13.2699
v -121.2875 52.5250 -13.8172
v -116.6211 50.0150 -13.6712
v -108.3152 47.6141 -14.0267
v -99.9125 49.7121 -15.4934
v -92.3152 52.5388 -17.5197
v -87.6602 53.5876 -19.0689
v -65.3603 54.0934 -19.8461
v -64.0287 54.0934 -19.8461
v -121.2875 56.2150 -13.8172
v -119.1352 56.2150 -13.8172
v -97.0543 55.6491 -17.7169
v -92.3152 56.3984 -17.5197
v -87.6602 55.7052 -19.0689
v -72.7339 60.3918 -19.3763
v -68.1423 57.9290 -18.8534
v -60.5383 58.9266 -16.7826
v -55.6195 61.2726 -16.1393
v -32.8818 62.0490 -12.3625
v -31.1376 62.0490 -12.3625
v -18.1836 59.5032 -16.1393
v -13.3170 59.5032 -16.1393
v -72.7339 62.7952 -19.3763
v -67.5560 65.7710 -18.9497
v -60.5203 67.0420 -16.7019
v -53.1848 66.4936 -15.4379
v -44.3152 69.1160 -12.8609
v -35.8552 66.1594 -13.0352
v -30.4625 66.2347 -12.5862
v -19.1300 66.2347 -16.1393
v -10.3311 66.3976 -15.6054
v -8.0462 69.1728 -12.5828
v -65.4253 74.4186 -16.8597
v -60.8548 71.8600 -16.6725
v -52.3152 72.5673 -17.0872
v -44.9342 74.6056 -15.2870
v -36.3152 72.0451 -13.0917
v -31.0226 70.7395 -12.5119
v -17.2616 70.7163 -16.1393
v -12.7297 70.7231 -15.6054
v -8.0462 70.4067 -12.5828
v -96.3689 86.1753 -20.0710
v -95.8601 86.1753 -20.0710
v -80.6730 86.0211 -12.5630
v -76.3152 85.1144 -12.8848
v -67.8729 81.8259 -15.7602
v -60.1929 83.9237 -16.1422
v -52.3152 81.4716 -16.1393
v -47.2437 78.7073 -16.1393
v -96.3689 86.7765 -20.0710
v -92.7221 89.8205 -17.8243
v -83.5507 90.1472 -15.9534
v -76.0239 90.4235 -13.8583
v -68.3152 88.8303 -13.5706
v -62.7781 88.0475 -13.4775
v -91.9093 98.2347 -16.1393
v -82.6677 98.2856 -16.4620
v -78.4963 95.6529 -14.0104
v -89.8559 103.1777 -16.1393
v -86.6710 103.1777 -16.1393
v -88.7211 118.1830 -12.3570
v -84.9784 117.9158 -15.8749
v -78.5907 117.6487 -19.3928
v -88.7211 119.5977 -12.3570
v -84.9784 119.9157 -15.8749
v -76.4548 122.3690 -19.4629
v -71.8127 124.5045 -19.5331
v -74.3189 126.9005 -19.5331
v -71.8127 126.9005 -19.5331
v 23.6191 -97.8199 -12.0231
v 23.8637 -97.8199 -12.0231
v 21.9441 -93.7653 -10.1798
v 26.9921 -93.1060 -10.5239
v 33.2382 -89.9999 -12.0596
v 14.9493 -83.9211 -9.9431
v 19.1148 -86.1994 -9.7930
v 27.6848 -88.7337 -10.2073
v 33.2382 -89.6774 -12.0596
v 71.2523 -83.6214 -4.6029
v 75.6848 -84.4288 -5.5254
v 83.6848 -84.1027 -6.1850
v 91.6848 -82.9962 -5.2863
v 99.6848 -82.2142 -4.6030
v 107.6848 -82.3062 -4.9861
v 116.4125 -82.3584 -7.7575
v 123.6848 -83.7101 -8.1393
v 128.9733 -83.2255 -8.1393
v 14.0834 -78.3557 -7.6216
v 17.3255 -78.3557 -7.6216
v 70.6842 -77.7653 -5.0103
v 75.9142 -77.4877 -8.8669
v 83.6848 -79.0577 -10.1850
v 91.4552 -77.4768 -8.9491
v 99.6848 -77.7653 -7.2071
v 107.4117 -77.3398 -9.4077
v 114.2310 -79.7229 -10.1696
v 126.5748 -74.6221 -5.2381
v 130.0375 -77.4794 -7.9986
v 13.9293 -69.7185 -8.2696
v 17.3350 -69.7185 -8.2696
v 63.4383 -66.3082 -4.4085
v 67.9438 -69.2910 -5.9350
v 73.5526 -69.7653 -10.1821
v 93.9688 -72.6181 -10.6264
v 99.6848 -71.9178 -10.7434
v 106.7825 -70.0185 -9.7043
v 115.8632 -68.4652 -8.0452
v 123.4376 -69.8810 -7.9436
v 129.8880 -72.7373 -10.5715
v 14.8188 -61.4234 -8.2696
v 17.5791 -61.4234 -8.2696
v 63.0391 -61.7653 -5.4221
v 67.6811 -61.9856 -9.5811
v 72.4594 -64.7992 -11.4986
v 86.6516 -59.8090 -10.9679
v 91.6848 -60.3990 -9.3292
v 98.9638 -61.3031 -7.3941
v 104.4472 -65.0866 -8.1393
v 118.6488 -65.3099 -5.3157
v 120.3004 -65.3099 -5.3157
v 15.3466 -57.1088 -8.1393
v 17.2044 -57.1088 -8.1393
v 62.2413 -53.7906 -8.2041
v 65.0120 -56.4741 -10.9139
v 77.0258 -51.5121 -6.1697
v 83.3741 -54.1510 -8.5688
v 91.6848 -57.0079 -5.3292
v 95.8165 -57.7308 -4.2306
v 47.2328 -43.4103 -11.6316
v 52.4512 -43.6537 -8.6347
v 59.8424 -45.1018 -8.1393
v 67.6848 -46.4656 -8.1393
v 74.8894 -48.8260 -8.5575
v 80.0965 -49.3277 -11.5030
v 47.2328 -40.1657 -11.6316
v 52.4512 -39.3347 -8.6347
v 57.3436 -39.9267 -8.1393
v 39.3324 -26.4788 -4.5864
v 40.8751 -26.4788 -4.5864
v 39.3324 -25.0719 -4.5864
v 43.1345 -22.0936 -6.6167
v 51.4376 -19.5140 -8.8427
v 55.8173 -17.8870 -11.9784
v 44.8290 -15.9767 -8.1393
v 51.4376 -16.2384 -8.8427
v 55.8173 -17.6052 -11.9784
v -114.1069 45.1438 -11.1845
v -108.3152 45.0765 -11.2498
v -102.7707 45.7814 -11.9082
v -121.2875 52.5250 -11.2344
v -116.6211 50.0150 -11.2094
v -108.3152 47.6141 -11.2498
v -102.7707 46.8036 -11.9082
v -65.4884 53.4309 -5.0935
v -60.3152 53.0220 -5.6311
v -52.3152 53.3607 -5.3668
v -44.3152 53.6924 -4.9863
v -39.5984 53.8639 -4.6668
v -17.0015 54.0902 -6.2768
v -15.4021 54.0902 -6.2768
v -128.3372 61.8510 -4.2457
v -124.7264 59.0330 -7.7400
v -119.1352 56.2150 -11.2344
v -66.7582 58.2347 -5.0061
v -59.9548 58.5398 -8.6536
v -52.6824 58.5398 -8.8649
v -44.3152 58.2347 -6.8068
v -36.2401 58.8650 -7.8304
v -28.4086 60.3039 -8.6333
v -20.3474 57.3947 -8.9531
v -13.5286 57.5139 -8.6218
v -128.3372 62.3700 -4.2457
v -124.8742 65.6320 -4.6503
v -119.9984 68.8939 -5.0549
v -72.6583 68.0597 -5.1272
v -68.7656 65.7297 -5.4450
v -61.7721 66.2347 -9.0306
v -50.2606 64.8687 -10.3787
v -44.3152 65.1160 -9.9598
v -38.2151 63.4424 -10.9940
v -26.0602 67.0220 -8.6333
v -22.8924 67.0220 -8.6333
v -10.4699 66.3976 -8.7625
v -8.0462 69.1728 -11.8446
v -122.3162 74.2347 -5.7303
v -119.4226 74.2347 -5.7303
v -74.5034 74.2347 -6.1229
v -68.3796 74.4186 -9.5183
v -62.8584 71.8746 -10.4594
v -42.2996 77.4771 -11.2858
v -36.3348 75.5004 -8.4272
v -29.3797 71.3850 -8.1393
v -19.0032 71.2462 -8.1393
v -12.7086 71.1471 -8.7625
v -8.0462 70.4067 -11.8446
v -122.0316 82.2347 -5.6653
v -118.9969 82.2347 -5.6653
v -80.6730 86.0211 -11.3981
v -76.8408 82.8212 -8.5972
v -68.4693 82.2519 -8.0848
v -60.1929 84.1497 -7.8797
v -52.3152 81.5366 -8.1393
v -44.7058 79.6466 -8.4272
v -39.0144 79.3958 -5.9525
v -121.1836 90.2347 -5.0246
v -119.0392 90.2347 -5.0246
v -89.1375 93.1879 -11.2118
v -83.7299 90.4066 -10.1512
v -76.1738 91.5124 -8.4812
v -68.7571 90.6318 -8.1816
v -62.7781 88.0475 -10.3733
v -120.5845 94.5913 -4.4909
v -119.4983 94.5913 -4.4909
v -89.7432 98.2347 -10.9802
v -84.3050 98.2856 -10.2251
v -76.2453 95.2125 -8.2422
v -71.6648 94.7722 -5.9898
v -89.3969 102.7258 -11.5213
v -86.9649 102.7258 -11.5213
v -97.5946 115.8029 -6.0704
v -91.6054 116.9930 -8.9325
v -88.2352 118.1830 -11.7947
v -97.5946 119.1539 -6.0704
v -91.6054 119.3758 -8.9325
v -88.2352 119.5977 -11.7947
v 70.0793 -90.8955 1.4920
v 73.9721 -90.8955 1.4920
v 69.8355 -86.0789 -0.7605
v 76.2571 -88.3994 -0.7605
v 83.6848 -87.2710 -0.1393
v 91.6848 -84.7081 -0.1393
v 99.1318 -82.2627 -0.5017
v 107.6848 -82.3062 -3.0520
v 115.6730 -83.0567 -0.5070
v 123.6848 -85.5594 -0.1393
v 129.0690 -84.2020 -0.1393
v 14.5534 -76.0827 -3.1991
v 16.6523 -76.0827 -3.1991
v 68.0055 -77.7653 -0.1393
v 101.4298 -80.3486 1.9233
v 107.6848 -79.4978 0.9480
v 115.7444 -77.4179 2.3377
v 123.7452 -74.6497 -0.0685
v 129.0437 -77.4794 -0.1945
v 14.0919 -69.7653 -2.1445
v 17.2587 -69.7653 -2.1445
v 63.1640 -68.0164 -0.1393
v 65.1130 -72.0164 -0.1393
v 109.5030 -67.5217 -0.1393
v 115.9029 -69.6029 -0.4650
v 123.4290 -71.1324 -0.4579
v 128.1041 -72.9552 2.4353
v 14.7843 -61.7653 -2.4929
v 17.8730 -61.7653 -2.4929
v 61.9295 -61.7653 -0.1393
v 86.6914 -58.9429 2.7771
v 91.6848 -59.6170 1.1390
v 98.9638 -60.1118 -0.8665
v 105.5030 -63.7298 -0.1393
v 118.6488 -65.3099 -3.6909
v 120.3004 -65.3099 -3.6909
v 15.4764 -57.1529 -3.6636
v 20.3335 -54.0774 -0.5876
v 24.8168 -51.0019 2.4885
v 62.2711 -53.8238 -0.3328
v 67.6848 -51.5177 0.6361
v 74.8894 -52.2730 -0.9255
v 83.8888 -55.9444 0.0105
v 91.6848 -57.0079 -2.8610
v 95.8165 -57.7308 -4.0180
v 23.1958 -48.4063 2.4885
v 27.3232 -45.9107 2.6739
v 32.9597 -43.4151 2.8593
v 55.6288 -41.8284 -4.1055
v 59.4555 -44.9842 -3.6170
v 67.6848 -48.5395 -3.3639
v 71.6925 -49.7562 -4.1163
v 29.8297 -39.3502 2.8593
v 35.1416 -37.1240 2.6637
v 40.3616 -34.8978 2.4680
v 55.6288 -41.7042 -4.1055
v 55.9365 -41.7042 -4.1055
v 38.3279 -28.9843 0.0448
v 40.6184 -28.9843 0.0448
v 39.3324 -25.0719 -2.3785
v 43.5350 -22.4105 -2.5991
v 48.6061 -19.7492 -2.8198
v 46.1948 -16.8575 -2.8198
v 48.6061 -16.8575 -2.8198
v -73.0333 52.6003 2.7427
v -68.2192 51.5982 -0.0101
v -60.3152 50.9008 -0.1393
v -52.3152 52.4974 -0.1393
v -44.9128 53.6337 -0.5953
v -39.5984 53.8639 -3.5660
v -24.5273 54.0330 3.0285
v -19.9270 53.7398 0.1614
v -14.6120 53.7674 -0.1393
v -128.3372 61.8510 -4.1085
v -128.1653 61.8510 -4.1085
v -73.0333 56.2235 2.7427
v -70.8006 58.6280 -0.0101
v -42.3988 58.2347 1.9590
v -36.5623 58.8806 -0.0738
v -27.1353 58.3696 1.2457
v -22.8409 57.7686 0.3740
v -12.3569 58.2347 -0.1393
v -128.3372 62.3700 -4.1085
v -124.8742 65.6320 -3.8897
v -119.9984 68.8939 -3.6710
v -73.7264 66.8844 -0.1393
v -71.5420 62.8844 -0.1393
v -40.7640 62.8175 3.4184
v -38.8596 62.8175 3.4184
v -25.6825 67.0220 0.1760
v -21.1468 66.9698 0.1230
v -14.1046 66.3296 -0.1399
v -122.5573 74.5160 -0.6583
v -119.0056 74.5160 -0.6583
v -77.0520 74.2347 -0.1393
v -49.5766 76.9497 2.4972
v -46.8103 76.9497 2.4972
v -34.7115 76.0263 -0.1393
v -28.5434 72.0263 -0.1393
v -18.9466 71.2207 -2.8069
v -15.6376 71.2207 -2.8069
v -122.3296 82.5206 0.0221
v -118.6650 82.5206 0.0221
v -75.6616 82.7836 0.1379
v -68.8322 85.3494 -0.0523
v -60.1189 84.2022 -0.3121
v -52.2721 80.8566 -0.1574
v -44.2123 80.0020 -0.1574
v -38.7115 79.6400 -0.1393
v -121.1836 90.2347 -2.5564
v -116.5816 90.9655 -0.4066
v -110.2069 91.9399 2.4598
v -74.4320 90.2347 -2.4204
v -69.0510 88.7728 -0.4234
v -62.6546 86.8235 2.2393
v -120.5845 94.5913 -3.6311
v -116.4016 95.2857 -0.5857
v -108.1349 98.0525 2.5543
v -103.0864 100.1249 2.6488
v -73.9944 94.7722 -3.6428
v -71.6648 94.7722 -3.6428
v -106.0628 103.6967 2.6488
v -103.0864 103.6967 2.6488
v -97.5946 115.8029 -1.5222
v -94.4897 115.8029 -1.5222
v -97.5946 119.1539 -1.5222
v -94.4897 119.1539 -1.5222
v 47.5518 -90.0163 11.6613
v 51.6848 -90.1704 11.6296
v 56.0542 -90.0545 11.7520
v 69.9822 -91.5275 7.8607
v 76.2571 -92.4720 7.3158
v 83.6848 -92.5312 8.5520
v 89.2030 -91.2917 9.6906
v 47.5528 -85.7653 11.6819
v 51.6848 -85.7653 10.8195
v 59.1064 -85.8003 10.5400
v 66.4962 -85.8003 8.0299
v 79.3054 -89.2707 4.2858
v 83.6848 -88.9335 4.5520
v 92.1051 -85.5733 7.2652
v 96.0964 -81.9958 4.8398
v 117.2868 -83.6192 7.8607
v 123.8806 -84.3565 8.0811
v 128.5034 -83.6120 5.5614
v 47.0030 -77.7653 11.4116
v 51.6848 -77.7653 10.2631
v 59.6848 -77.7653 8.0682
v 65.0061 -77.7653 5.2168
v 94.3556 -77.7653 8.8463
v 99.1318 -77.7153 5.6919
v 107.3414 -76.2701 8.1034
v 115.5169 -77.6953 6.9654
v 123.5321 -76.4418 8.3085
v 128.6132 -77.7653 6.2110
v 47.0094 -69.7653 11.4237
v 50.9387 -69.9477 11.2170
v 60.3003 -70.4799 7.7119
v 63.8240 -73.5572 4.0533
v 92.9941 -69.7653 9.8346
v 99.6848 -69.7653 7.9931
v 108.1291 -68.6167 8.4813
v 115.1032 -70.3002 8.7680
v 123.3435 -73.2352 8.1994
v 128.1041 -72.9552 5.2938
v 47.6504 -65.7409 11.8378
v 47.7747 -65.7409 11.8378
v 61.5640 -61.7653 7.8607
v 79.3976 -58.2022 11.5586
v 83.8888 -60.3154 8.4794
v 90.9890 -64.0281 8.4388
v 99.6848 -63.2545 6.4384
v 108.4892 -64.7710 8.3825
v 111.7160 -65.7492 11.7642
v 23.1958 -51.0019 4.2149
v 24.8168 -51.0019 4.2149
v 62.6407 -56.1152 7.8607
v 67.6848 -53.5416 7.8607
v 76.3125 -55.0226 8.4794
v 81.3581 -56.6257 6.2253
v 23.1958 -48.4063 4.2149
v 27.3232 -45.9107 4.8743
v 32.9597 -43.4151 5.5336
v 29.8297 -39.3502 5.5336
v 35.1416 -37.1240 5.2952
v 40.3616 -34.8978 5.0569
v 37.3234 -31.4898 5.0569
v 40.3616 -31.4898 5.0569
v -66.2390 44.9525 9.7760
v -60.3152 44.7784 9.5774
v -54.7444 45.5752 10.9010
v -89.2646 52.7154 11.1614
v -84.3152 52.1518 10.6817
v -75.9461 51.8296 8.1370
v -68.6695 48.2108 7.4099
v -60.3152 48.1136 5.5774
v -52.1727 49.2822 8.0848
v -47.4075 52.6983 7.8607
v -24.5273 54.0330 5.6991
v -20.8747 53.5086 8.1637
v -14.8889 53.4784 7.8607
v -90.8657 58.2347 10.8876
v -84.3152 58.2347 9.3864
v -75.9461 58.6280 6.2351
v -71.8669 61.5569 4.4863
v -45.2094 58.2347 7.8607
v -33.9491 61.4417 7.8607
v -27.1353 58.2833 6.9199
v -23.6307 57.4949 7.9396
v -13.5726 58.2347 7.8607
v -96.3166 70.1728 11.8592
v -92.9860 66.9976 11.3061
v -84.3152 66.2347 9.6520
v -76.4384 65.6595 6.2228
v -71.8669 62.6093 4.4863
v -42.7905 65.7844 7.7012
v -36.0711 66.3086 8.1929
v -28.3522 67.7626 7.7787
v -20.8620 65.9164 7.2999
v -14.9989 63.7572 7.8607
v -121.3840 77.3702 4.8556
v -119.3226 77.3702 4.8556
v -96.3166 70.2366 11.8592
v -92.3152 70.6470 11.6161
v -84.3152 71.2937 10.9473
v -78.2289 73.9532 8.1248
v -50.4651 75.8208 7.8607
v -44.4242 73.9588 7.3427
v -36.6127 74.2506 6.1972
v -28.0378 71.1510 7.9386
v -23.7103 70.7075 9.7530
v -121.3840 80.0445 4.8556
v -119.3226 80.0445 4.8556
v -74.6715 82.7836 7.3734
v -71.8149 85.8162 4.3818
v -58.9437 84.2224 7.8607
v -54.4651 80.2224 7.8607
v -41.4770 78.9474 4.4239
v -39.4777 78.9474 4.4239
v -113.3048 91.9399 4.7451
v -110.2069 91.9399 4.7451
v -73.2582 86.7431 9.7152
v -68.8151 86.9541 7.3734
v -62.9437 86.7526 7.8607
v -113.3048 95.9802 4.7451
v -107.7956 98.5591 6.5254
v -103.2413 100.4933 7.8607
v -105.9871 103.5674 7.8607
v -103.2413 103.5674 7.8607
v 70.3537 -106.1230 19.3616
v 72.2776 -106.1230 19.3616
v 53.9194 -99.6177 18.6117
v 59.6848 -100.4321 18.1200
v 67.6861 -101.9872 17.9223
v 72.7488 -101.7653 18.2417
v 46.7738 -91.3334 15.8607
v 51.4255 -94.3933 15.9113
v 59.1064 -93.1388 14.3569
v 68.0860 -93.6969 14.1104
v 75.3803 -95.3922 15.6649
v 83.6848 -93.1897 15.8607
v 89.0397 -91.0706 15.8607
v 39.6544 -81.8448 19.7986
v 43.7302 -85.0130 16.6234
v 61.3876 -88.4903 13.0086
v 65.6868 -88.4903 13.0086
v 91.4615 -85.7653 15.8607
v 117.8404 -83.0251 13.3529
v 121.3445 -83.0251 13.3529
v 39.6544 -81.4372 19.7986
v 42.7200 -78.3684 16.6234
v 71.6099 -73.8327 19.7572
v 71.7589 -73.8327 19.7572
v 91.8233 -77.7653 15.8607
v 109.7792 -75.6299 13.4975
v 115.3782 -78.0840 13.8826
v 121.4945 -77.7653 13.1605
v 45.9251 -69.2710 15.2178
v 50.7251 -66.8388 15.3320
v 57.3638 -67.4027 13.2081
v 71.0385 -69.7653 19.2981
v 72.3218 -69.7653 19.2981
v 89.9491 -69.7653 15.8607
v 110.2218 -69.7653 13.1090
v 114.9035 -70.4152 13.0039
v 120.4381 -73.5152 12.1015
v 47.6504 -65.7409 12.1226
v 51.3672 -63.4691 15.9409
v 58.6736 -61.7653 14.8047
v 70.8979 -65.1376 19.2140
v 75.9288 -61.6698 15.7091
v 83.4868 -60.7347 15.2667
v 88.2324 -65.1494 15.8607
v 111.6397 -65.7492 11.8883
v 111.7160 -65.7492 11.8883
v 55.5299 -57.6659 19.7720
v 60.2684 -56.7253 16.6074
v 67.6848 -54.6820 15.8607
v 76.3125 -55.8692 15.2667
v 80.6882 -57.0824 17.5374
v -88.6169 37.9169 19.4543
v -84.3152 37.2083 18.7351
v -76.3152 36.7090 18.4390
v -70.3783 37.2512 19.0594
v -89.2521 42.2347 18.3755
v -84.3152 42.2347 16.4671
v -76.3152 42.2347 15.9987
v -68.3086 42.2070 15.8916
v -60.6238 44.2057 15.7918
v -54.7444 45.5752 13.0793
v -96.9059 53.3688 18.9430
v -91.9303 50.3754 15.9483
v -84.3152 48.1518 13.5927
v -76.3152 48.4541 13.4204
v -68.0544 50.7198 16.1573
v -61.0670 50.6722 19.0017
v -52.1727 48.8274 15.7918
v -47.3378 52.3842 15.8607
v -18.5811 53.7048 12.4537
v -15.7713 53.7048 12.4537
v -97.1146 58.2347 17.3788
v -94.8657 58.2347 13.3788
v -64.5365 54.6593 19.5909
v -63.9712 54.6593 19.5909
v -48.9344 61.2346 19.1383
v -47.1055 58.4347 16.2272
v -33.2827 61.3318 12.8547
v -28.3152 59.7879 13.4686
v -20.8747 57.6190 13.1839
v -15.4510 58.2347 12.6523
v -96.9188 66.9976 15.2258
v -96.0998 64.8395 12.1359
v -48.9344 63.1431 19.1383
v -47.0998 65.9798 16.2272
v -33.2827 64.4664 12.8547
v -28.6269 66.7737 13.5567
v -20.7523 65.7579 13.2378
v -15.7067 62.7733 12.3232
v -96.7133 70.5953 15.8607
v -91.7617 74.0518 16.2914
v -84.3152 75.2937 15.2167
v -78.7732 76.4322 14.2840
v -50.7496 75.3629 15.8607
v -47.3307 71.3629 15.8607
v -26.1680 70.7075 12.5436
v -23.7103 70.7075 12.5436
v -88.7259 78.6409 19.2453
v -84.3152 78.9262 19.2167
v -76.0157 81.9919 16.5124
v -68.3152 84.5437 17.3357
v -61.0144 83.3910 15.3126
v -54.7496 79.6199 15.8607
v -73.2582 86.7431 13.4075
v -68.3152 86.6923 13.3357
v -64.1471 86.3365 12.2806
v -104.7968 102.0227 12.0111
v -104.1121 102.0227 12.0111
v -104.7968 102.5497 12.0111
v -104.1121 102.5497 12.0111
v 62.3622 -106.3490 26.3614
v 67.6861 -106.6184 23.7611
v 72.5493 -106.3938 23.8607
v 53.3570 -100.3338 23.8607
v 59.6912 -104.0421 23.7611
v 65.0204 -104.8019 21.0281
v 73.2371 -101.7653 23.8607
v 45.7870 -92.2563 23.8607
v 49.3570 -96.2563 23.8607
v 71.0324 -91.7683 27.0865
v 74.8099 -93.7655 23.7281
v 83.6848 -90.4238 20.4199
v 87.9731 -89.9793 20.0972
v 39.6544 -81.8448 20.1149
v 41.9343 -85.0130 23.2132
v 71.0324 -89.0031 27.0865
v 75.5412 -86.1079 25.0224
v 83.6848 -85.7653 21.5626
v 88.8311 -85.7653 20.5298
v 39.6544 -81.4372 20.1149
v 41.3610 -78.3684 23.2132
v 71.4111 -74.0266 23.8607
v 74.9355 -76.6061 23.5843
v 83.6848 -77.7653 22.7337
v 89.1525 -77.7653 21.1483
v 45.5542 -69.2710 24.4544
v 48.3421 -66.2748 22.1836
v 70.3227 -69.7653 23.8607
v 76.3218 -69.7653 21.6577
v 83.6848 -69.7653 23.3038
v 88.6397 -69.7653 21.5068
v 47.6196 -65.7265 27.5170
v 51.9360 -62.5034 23.7851
v 59.6848 -59.7621 24.8490
v 68.2925 -62.0250 23.5583
v 75.3499 -62.1886 21.6036
v 83.4868 -62.0912 21.7217
v 88.2412 -64.9751 20.9943
v 55.5299 -57.6659 20.0532
v 59.6848 -57.1886 20.8490
v 67.6848 -56.6581 21.4071
v 75.6848 -56.6481 21.1767
v 80.6882 -57.0824 20.6787
v -88.6067 37.9101 23.8607
v -84.3152 36.3028 23.8607
v -76.3152 34.6768 23.8607
v -69.4514 36.2841 23.8607
v -90.1073 42.2347 23.8607
v -66.2188 42.1707 23.3699
v -63.4961 44.7948 20.3761
v -96.8370 53.4911 23.8607
v -93.8159 49.4911 23.8607
v -65.2548 50.7801 22.9192
v -61.8608 51.5278 22.1367
v -52.3152 52.8031 20.6668
v -47.8849 53.5373 20.2245
v -97.3763 58.2347 23.8607
v -64.8211 57.9636 23.3407
v -61.8612 57.0314 23.5206
v -51.8867 58.4347 21.7588
v -47.8849 55.9013 20.2245
v -97.0642 66.5351 24.3629
v -96.0100 69.4021 27.3644
v -66.0121 66.2347 25.5156
v -59.7215 66.4052 25.6378
v -52.5192 66.1643 23.8638
v -47.9463 68.4765 20.4449
v -96.8446 70.7136 22.0311
v -92.3679 74.0545 24.2871
v -86.8900 77.3954 26.5430
v -66.9288 74.2347 25.0420
v -59.7215 73.6130 24.6232
v -53.0299 73.4355 23.3340
v -47.9463 71.0058 20.4449
v -88.7259 78.6409 21.2097
v -84.2601 79.0132 23.8701
v -76.3152 80.7123 23.8607
v -68.7229 80.5302 23.4969
v -60.3152 79.9707 21.1777
v -55.2892 79.1358 20.8897
v 62.3622 -106.3490 29.1420
v 67.6848 -106.5633 29.4478
v 72.2447 -106.2456 28.6955
v 54.3465 -99.3375 30.1137
v 59.2101 -102.0230 32.2945
v 67.8054 -101.9312 32.5192
v 72.1730 -101.7653 28.7228
v 46.1159 -91.8630 31.8607
v 51.6818 -95.9627 32.4125
v 56.0580 -97.2973 35.4470
v 70.5940 -94.1671 31.2495
v 71.7758 -97.1017 28.1754
v 43.5453 -85.7653 31.8607
v 71.1705 -89.1700 31.8607
v 73.8067 -85.1700 31.8607
v 43.6163 -77.7653 31.8607
v 71.3947 -74.0462 28.1361
v 75.7660 -77.2773 31.4191
v 80.1533 -75.1752 34.7020
v 45.3111 -69.7653 31.8607
v 70.9690 -69.7653 28.5461
v 75.6848 -69.7653 31.1369
v 80.2481 -69.7653 34.4515
v 46.8090 -65.3454 31.8607
v 51.6848 -63.7386 31.8607
v 59.6848 -62.0504 31.8607
v 68.1031 -61.6932 31.7998
v 75.3926 -62.2645 33.7554
v 79.9673 -65.2641 35.1404
v 70.5190 -56.2997 35.1005
v 72.5312 -56.2997 35.1005
v -88.4021 38.1198 28.1318
v -84.3152 37.3292 29.1701
v -76.6366 36.1337 31.9455
v -70.2513 36.4277 31.8607
v -89.5887 42.2825 31.2233
v -84.3152 39.9503 33.1701
v -79.5175 39.1092 34.6688
v -68.8165 42.2347 31.8607
v -96.4215 54.1129 31.8607
v -93.8419 50.1129 31.8607
v -66.8804 49.1925 31.8607
v -63.4556 53.1925 31.8607
v -96.5466 57.8192 32.3375
v -96.1018 60.2088 35.3220
v -65.1058 61.2679 28.7991
v -62.6324 58.4546 31.6237
v -96.6172 66.0603 31.9705
v -96.0559 66.0603 31.9705
v -66.0121 66.2347 29.6706
v -59.8144 67.4993 31.3271
v -56.1040 69.1855 28.2024
v -96.6753 70.5501 33.9524
v -92.9321 72.3598 31.5157
v -84.2601 76.9509 32.6075
v -76.3152 77.8825 35.3982
v -69.0057 75.7618 32.5637
v -60.1859 72.6478 31.7936
v -56.1040 70.5318 28.2024
v -81.5567 78.6102 30.4387
v -74.9422 81.1878 32.9330
v -69.6941 80.7928 33.4000
v -63.5234 79.3940 35.2210
v -73.1115 87.7858 34.9796
v -70.9794 87.7858 34.9796
v 61.3913 -99.3751 38.4297
v 65.2192 -99.3751 38.4297
v 47.0416 -91.0807 36.6708
v 51.9545 -92.5603 39.5468
v 59.1087 -96.5066 40.6021
v 68.4353 -93.7962 39.9098
v 71.8411 -89.9344 41.3899
v 45.9222 -85.7653 37.1438
v 50.8208 -85.7653 41.1438
v 71.6515 -89.7337 36.0566
v 74.3742 -86.5463 39.1782
v 45.9968 -77.7653 36.9620
v 51.1852 -77.7653 40.9620
v 79.0647 -77.8112 40.6326
v 80.1533 -75.1752 38.4805
v 46.4501 -69.7653 36.9853
v 52.2460 -70.2237 40.8246
v 56.7361 -67.8626 42.6344
v 78.2130 -69.7653 42.2122
v 80.2481 -69.7653 38.2122
v 46.5822 -65.2442 36.7924
v 51.6848 -64.6313 37.6398
v 59.5156 -62.9287 39.9249
v 67.7853 -59.5001 39.9807
v 75.1398 -62.1620 39.5518
v 79.9673 -65.2641 36.3763
v 70.3011 -53.7146 39.9797
v 72.2758 -53.7146 39.9797
v 70.0832 -49.2612 42.5654
v 72.0204 -49.2612 42.5654
v -74.1842 37.4426 36.7635
v -71.4449 37.4426 36.7635
v -89.2973 44.9810 37.7692
v -84.7301 43.7240 40.2058
v -76.6366 40.8749 39.6024
v -70.8678 42.6334 39.6024
v -96.3519 54.1978 35.8796
v -92.1045 51.0126 37.5611
v -86.6602 50.2347 41.9720
v -67.1586 49.5466 39.8607
v -63.7619 53.5466 39.8607
v -96.3519 54.8755 35.8796
v -92.9872 57.8192 37.1224
v -86.1403 58.2347 41.4236
v -61.2640 58.2347 39.8607
v -96.6753 68.0518 36.1933
v -92.3352 66.2285 39.2824
v -86.9801 64.4051 42.3714
v -60.6754 66.2347 39.8607
v -96.6753 70.5501 36.1933
v -91.6673 71.3967 39.2603
v -84.3152 73.6685 39.8607
v -75.9904 76.5469 39.3804
v -68.7381 77.0888 39.4281
v -62.9266 73.9217 39.8219
v -73.8104 81.6955 39.3804
v -68.7522 80.8324 38.5362
v -63.5234 79.3940 37.1294
v -73.5902 88.8908 39.8607
v -70.5548 88.8908 39.8607
v 54.8009 -90.9095 45.1221
v 59.6848 -92.5429 46.4648
v 67.2144 -91.7555 48.3871
v 72.4617 -90.3336 47.8607
v 54.8208 -85.7653 45.0052
v 59.6848 -85.7653 47.2029
v 67.2144 -85.8931 49.6363
v 73.8608 -85.8931 47.8782
v 55.1852 -77.7653 44.1757
v 59.6848 -77.7653 45.4828
v 67.6848 -77.7653 47.2863
v 75.6084 -77.7653 45.9793
v 55.2868 -73.1959 44.0161
v 59.5156 -70.2237 45.1347
v 67.6848 -69.7653 46.8473
v 74.2130 -69.7653 45.3714
v 62.0694 -63.3199 44.8053
v 67.6848 -62.9023 44.9831
v 72.4151 -64.3933 44.4126
v 70.0832 -51.1294 44.2923
v 72.0204 -51.1294 44.2923
v 70.0832 -49.2612 44.2923
v 72.0204 -49.2612 44.2923
v -82.3399 45.0961 46.3913
v -76.3152 44.8790 46.2915
v -71.6775 45.5658 44.5712
v -82.6602 50.2347 46.5791
v -76.3152 50.2347 47.9027
v -68.7326 50.7206 45.7043
v -63.8568 53.7112 45.1686
v -82.1403 58.2347 45.4470
v -76.3152 58.2347 47.9650
v -68.3152 58.2347 48.2894
v -62.7176 58.2347 45.7714
v -88.5687 69.7384 44.0352
v -84.3142 66.7370 44.7228
v -76.3152 66.2347 47.2782
v -68.3152 66.2347 47.4849
v -62.8097 66.2347 45.0141
v -88.5687 70.4569 44.0352
v -84.3152 70.6438 44.1724
v -75.9904 73.6287 45.0548
v -68.3469 73.9217 45.0891
v -63.9797 71.0464 44.1589
v -73.5870 82.2347 45.3298
v -70.5962 82.2347 45.3298
v -73.2190 88.2250 45.0618
v -71.3038 88.2250 45.0618
v 69.5675 -90.3538 52.4066
v 72.5642 -90.3538 52.4066
v 69.5675 -88.6451 52.4066
v 72.5642 -88.6451 52.4066
f 3 2 1
f 3 4 2
f 7 6 5
f 7 8 6
f 11 10 9
f 11 12 10
f 2 13 1
f 2 14 13
f 18 11 17
f 18 12 11
f 19 1 13
f 19 3 1
f 18 13 12
f 18 19 13
f 14 2 4
f 14 4 20
f 4 3 19
f 4 19 20
f 21 14 20
f 21 15 14
f 23 16 22
f 23 17 16
f 23 18 17
f 23 24 18
f 25 18 24
f 25 19 18
f 26 19 25
f 26 20 19
f 27 23 22
f 27 28 23
f 29 23 28
f 29 24 23
f 36 30 35
f 36 31 30
f 36 32 31
f 36 37 32
f 6 37 5
f 6 38 37
f 37 33 32
f 37 38 33
f 41 34 40
f 41 35 34
f 42 35 41
f 42 36 35
f 37 7 5
f 37 43 7
f 43 36 42
f 43 37 36
f 44 38 6
f 44 6 8
f 8 7 43
f 8 43 44
f 45 38 44
f 45 39 38
f 46 41 40
f 46 47 41
f 47 42 41
f 47 48 42
f 49 42 48
f 49 43 42
f 50 43 49
f 50 44 43
f 10 51 9
f 10 52 51
f 51 11 9
f 51 56 11
f 57 52 10
f 57 10 12
f 13 57 12
f 13 58 57
f 57 53 52
f 57 58 53
f 14 58 13
f 14 59 58
f 58 54 53
f 58 59 54
f 60 14 15
f 60 59 14
f 62 11 56
f 62 17 11
f 62 16 17
f 62 61 16
f 62 55 61
f 62 56 55
f 60 15 21
f 60 21 64
f 21 20 63
f 21 63 64
f 63 59 60
f 63 60 64
f 66 16 61
f 66 22 16
f 69 25 24
f 69 24 68
f 63 20 26
f 63 26 70
f 26 25 69
f 26 69 70
f 71 63 70
f 71 64 63
f 66 27 22
f 66 73 27
f 73 65 72
f 73 66 65
f 74 28 27
f 74 27 73
f 68 24 29
f 68 29 75
f 75 29 28
f 75 28 74
f 75 74 67
f 75 67 68
f 80 77 76
f 80 81 77
f 82 77 81
f 82 78 77
f 83 78 82
f 83 79 78
f 85 81 84
f 85 82 81
f 31 88 30
f 31 89 88
f 90 31 32
f 90 89 31
f 89 87 86
f 89 90 87
f 91 32 33
f 91 90 32
f 88 35 30
f 88 94 35
f 35 93 34
f 35 94 93
f 96 91 33
f 96 33 38
f 39 96 38
f 39 97 96
f 96 92 91
f 96 97 92
f 93 40 34
f 93 99 40
f 100 99 93
f 100 93 94
f 100 94 95
f 100 95 101
f 97 39 45
f 97 45 103
f 45 44 102
f 45 102 103
f 103 98 97
f 103 104 98
f 99 46 40
f 99 105 46
f 106 47 46
f 106 46 105
f 48 47 106
f 48 106 107
f 106 100 101
f 106 101 107
f 108 49 48
f 108 48 107
f 102 44 50
f 102 50 109
f 50 49 108
f 50 108 109
f 112 105 111
f 112 106 105
f 113 106 112
f 113 107 106
f 115 110 114
f 115 111 110
f 120 117 116
f 120 121 117
f 123 118 122
f 123 119 118
f 124 121 120
f 124 125 121
f 126 121 125
f 126 122 121
f 52 127 51
f 52 128 127
f 53 128 52
f 53 129 128
f 130 53 54
f 130 129 53
f 127 56 51
f 127 132 56
f 132 55 56
f 132 131 55
f 133 132 127
f 133 127 128
f 135 130 54
f 135 54 59
f 134 129 130
f 134 130 135
f 136 55 131
f 136 61 55
f 139 135 59
f 139 59 63
f 64 139 63
f 64 140 139
f 142 61 136
f 142 66 61
f 142 65 66
f 142 141 65
f 142 136 137
f 142 137 143
f 144 68 67
f 144 67 143
f 143 137 138
f 143 138 144
f 145 69 68
f 145 68 144
f 70 69 145
f 70 145 146
f 140 64 71
f 140 71 147
f 71 70 146
f 71 146 147
f 141 72 65
f 141 148 72
f 149 73 72
f 149 72 148
f 149 148 141
f 149 141 142
f 150 143 67
f 150 67 74
f 150 74 73
f 150 73 149
f 150 149 142
f 150 142 143
f 151 145 144
f 151 152 145
f 157 153 156
f 157 154 153
f 158 154 157
f 158 155 154
f 77 159 76
f 77 160 159
f 161 77 78
f 161 160 77
f 162 78 79
f 162 161 78
f 159 80 76
f 159 165 80
f 166 81 80
f 166 80 165
f 166 165 159
f 166 159 160
f 167 166 160
f 167 160 161
f 162 79 83
f 162 83 168
f 168 83 82
f 168 82 167
f 168 167 161
f 168 161 162
f 170 163 169
f 170 164 163
f 171 164 170
f 171 165 164
f 172 81 166
f 172 84 81
f 172 165 171
f 172 166 165
f 173 167 82
f 173 82 85
f 173 85 84
f 173 84 172
f 173 172 166
f 173 166 167
f 87 174 86
f 87 175 174
f 174 89 86
f 174 178 89
f 178 88 89
f 178 177 88
f 179 175 87
f 179 87 90
f 179 178 174
f 179 174 175
f 180 90 91
f 180 179 90
f 181 91 92
f 181 180 91
f 183 88 177
f 183 94 88
f 182 177 176
f 182 183 177
f 95 94 183
f 95 183 184
f 184 183 177
f 184 177 178
f 181 92 97
f 181 97 186
f 185 180 181
f 185 181 186
f 98 186 97
f 98 187 186
f 190 99 100
f 190 189 99
f 191 95 184
f 191 101 95
f 103 102 192
f 103 192 193
f 187 98 104
f 187 104 194
f 104 103 193
f 104 193 194
f 193 186 187
f 193 187 194
f 189 105 99
f 189 196 105
f 195 189 188
f 195 196 189
f 190 100 106
f 190 106 197
f 196 189 190
f 196 190 197
f 198 101 191
f 198 107 101
f 107 197 106
f 107 198 197
f 108 107 198
f 108 198 199
f 192 102 109
f 192 109 200
f 109 108 199
f 109 199 200
f 201 192 200
f 201 193 192
f 202 193 201
f 202 194 193
f 196 111 105
f 196 204 111
f 111 203 110
f 111 204 203
f 203 196 195
f 203 204 196
f 205 112 111
f 205 111 204
f 204 196 197
f 204 197 205
f 206 198 107
f 206 107 113
f 206 113 112
f 206 112 205
f 206 205 197
f 206 197 198
f 203 114 110
f 203 207 114
f 204 111 115
f 204 115 208
f 115 114 207
f 115 207 208
f 209 204 208
f 209 205 204
f 211 207 210
f 211 208 207
f 117 212 116
f 117 213 212
f 119 214 118
f 119 215 214
f 212 120 116
f 212 219 120
f 213 117 121
f 213 121 220
f 220 219 212
f 220 212 213
f 221 118 214
f 221 122 118
f 221 121 122
f 221 220 121
f 215 119 123
f 215 123 222
f 123 122 221
f 123 221 222
f 222 221 214
f 222 214 215
f 223 217 216
f 223 224 217
f 224 218 217
f 224 225 218
f 219 124 120
f 219 226 124
f 226 218 225
f 226 219 218
f 227 125 124
f 227 124 226
f 227 226 219
f 227 219 220
f 228 221 122
f 228 122 126
f 228 126 125
f 228 125 227
f 228 227 220
f 228 220 221
f 233 128 129
f 233 232 128
f 235 229 234
f 235 230 229
f 235 231 230
f 235 236 231
f 239 131 132
f 239 238 131
f 232 133 128
f 232 240 133
f 133 239 132
f 133 240 239
f 233 129 134
f 233 134 241
f 241 240 232
f 241 232 233
f 242 134 135
f 242 241 134
f 238 136 131
f 238 244 136
f 244 237 243
f 244 238 237
f 245 137 136
f 245 136 244
f 245 244 238
f 245 238 239
f 138 137 245
f 138 245 246
f 246 245 239
f 246 239 240
f 242 135 139
f 242 139 247
f 248 139 140
f 248 247 139
f 252 243 251
f 252 244 243
f 253 138 246
f 253 144 138
f 146 145 254
f 146 254 255
f 256 248 140
f 256 140 147
f 256 147 146
f 256 146 255
f 256 255 247
f 256 247 248
f 257 250 249
f 257 258 250
f 253 151 144
f 253 259 151
f 254 145 152
f 254 152 260
f 152 151 259
f 152 259 260
f 259 253 254
f 259 254 260
f 261 254 260
f 261 255 254
f 154 262 153
f 154 263 262
f 155 263 154
f 155 264 263
f 266 259 265
f 266 260 259
f 266 261 260
f 266 267 261
f 262 156 153
f 262 268 156
f 157 156 268
f 157 268 269
f 268 262 263
f 268 263 269
f 264 155 158
f 264 158 270
f 158 157 269
f 158 269 270
f 271 270 269
f 271 272 270
f 275 163 164
f 275 274 163
f 276 164 165
f 276 275 164
f 277 165 166
f 277 276 165
f 274 169 163
f 274 279 169
f 278 274 273
f 278 279 274
f 280 170 169
f 280 169 279
f 281 171 170
f 281 170 280
f 281 280 275
f 281 275 276
f 277 166 172
f 277 172 282
f 282 172 171
f 282 171 281
f 281 276 277
f 281 277 282
f 284 279 283
f 284 280 279
f 287 176 177
f 287 286 176
f 179 288 178
f 179 289 288
f 290 179 180
f 290 289 179
f 286 182 176
f 286 292 182
f 291 286 285
f 291 292 286
f 287 177 183
f 287 183 293
f 293 183 182
f 293 182 292
f 288 184 178
f 288 294 184
f 295 294 288
f 295 288 289
f 290 180 185
f 290 185 296
f 297 185 186
f 297 296 185
f 301 188 189
f 301 300 188
f 302 184 294
f 302 191 184
f 297 186 193
f 297 193 305
f 306 193 194
f 306 305 193
f 308 298 307
f 308 299 298
f 309 188 300
f 309 195 188
f 301 189 196
f 301 196 310
f 309 300 301
f 309 301 310
f 311 191 302
f 311 198 191
f 199 198 311
f 199 311 312
f 311 302 303
f 311 303 312
f 200 199 312
f 200 312 313
f 201 200 313
f 201 313 314
f 314 313 304
f 314 304 305
f 306 194 202
f 306 202 315
f 202 201 314
f 202 314 315
f 314 305 306
f 314 306 315
f 317 307 316
f 317 308 307
f 309 203 195
f 309 318 203
f 310 196 204
f 310 204 319
f 318 309 310
f 318 310 319
f 320 204 205
f 320 319 204
f 321 313 312
f 321 322 313
f 323 313 322
f 323 314 313
f 324 314 323
f 324 315 314
f 318 207 203
f 318 325 207
f 320 205 209
f 320 209 327
f 209 208 326
f 209 326 327
f 326 319 320
f 326 320 327
f 325 210 207
f 325 328 210
f 326 208 211
f 326 211 329
f 211 210 328
f 211 328 329
f 328 325 326
f 328 326 329
f 329 327 326
f 329 330 327
f 331 330 329
f 331 332 330
f 334 216 217
f 334 333 216
f 335 217 218
f 335 334 217
f 336 218 219
f 336 335 218
f 333 223 216
f 333 337 223
f 224 223 337
f 224 337 338
f 339 225 224
f 339 224 338
f 339 338 334
f 339 334 335
f 336 219 226
f 336 226 340
f 340 226 225
f 340 225 339
f 340 339 335
f 340 335 336
f 342 338 341
f 342 339 338
f 346 229 230
f 346 345 229
f 345 344 343
f 345 346 344
f 347 230 231
f 347 346 230
f 345 234 229
f 345 349 234
f 350 235 234
f 350 234 349
f 351 347 231
f 351 231 236
f 236 235 350
f 236 350 351
f 353 237 238
f 353 352 237
f 241 354 240
f 241 355 354
f 242 355 241
f 242 356 355
f 361 348 360
f 361 349 348
f 362 237 352
f 362 243 237
f 353 238 244
f 353 244 363
f 363 362 352
f 363 352 353
f 354 246 240
f 354 364 246
f 364 354 355
f 364 355 365
f 356 242 247
f 356 247 366
f 365 355 356
f 365 356 366
f 370 357 369
f 370 358 357
f 371 249 250
f 371 370 249
f 370 359 358
f 370 371 359
f 373 360 372
f 373 361 360
f 362 251 243
f 362 374 251
f 363 244 252
f 363 252 375
f 252 251 374
f 252 374 375
f 374 362 363
f 374 363 375
f 376 246 364
f 376 253 246
f 377 254 253
f 377 253 376
f 376 364 365
f 376 365 377
f 378 366 247
f 378 247 255
f 378 367 366
f 378 379 367
f 382 368 381
f 382 369 368
f 383 249 370
f 383 257 249
f 383 369 382
f 383 370 369
f 384 371 250
f 384 250 258
f 384 258 257
f 384 257 383
f 388 254 377
f 388 260 254
f 388 259 260
f 388 387 259
f 378 255 261
f 378 261 389
f 390 378 389
f 390 379 378
f 390 380 379
f 390 391 380
f 392 380 391
f 392 381 380
f 393 386 385
f 393 394 386
f 264 395 263
f 264 396 395
f 387 265 259
f 387 398 265
f 399 266 265
f 399 265 398
f 389 261 267
f 389 267 400
f 267 266 399
f 267 399 400
f 395 269 263
f 395 401 269
f 396 264 270
f 396 270 402
f 401 395 396
f 401 396 402
f 404 397 403
f 404 398 397
f 405 398 404
f 405 399 398
f 406 399 405
f 406 400 399
f 401 271 269
f 401 407 271
f 402 270 272
f 402 272 408
f 272 271 407
f 272 407 408
f 409 402 408
f 409 403 402
f 412 273 274
f 412 411 273
f 413 274 275
f 413 412 274
f 411 278 273
f 411 415 278
f 415 410 414
f 415 411 410
f 416 279 278
f 416 278 415
f 413 275 280
f 413 280 417
f 416 412 413
f 416 413 417
f 418 279 416
f 418 283 279
f 417 280 284
f 417 284 419
f 284 283 418
f 284 418 419
f 418 416 417
f 418 417 419
f 425 420 424
f 425 421 420
f 425 422 421
f 425 426 422
f 427 285 286
f 427 426 285
f 428 286 287
f 428 427 286
f 290 429 289
f 290 430 429
f 432 423 431
f 432 424 423
f 433 285 426
f 433 291 285
f 434 292 291
f 434 291 433
f 433 426 427
f 433 427 434
f 435 428 287
f 435 287 293
f 435 293 292
f 435 292 434
f 434 427 428
f 434 428 435
f 429 295 289
f 429 437 295
f 295 436 294
f 295 437 436
f 430 290 296
f 430 296 438
f 437 429 430
f 437 430 438
f 297 438 296
f 297 439 438
f 443 298 299
f 443 442 298
f 444 294 436
f 444 302 294
f 303 302 444
f 303 444 445
f 444 436 437
f 444 437 445
f 445 437 438
f 445 438 446
f 439 297 305
f 439 305 447
f 447 305 304
f 447 304 446
f 450 440 449
f 450 441 440
f 451 298 442
f 451 307 298
f 443 299 308
f 443 308 452
f 454 303 445
f 454 312 303
f 455 446 304
f 455 304 313
f 454 445 446
f 454 446 455
f 456 313 314
f 456 455 313
f 455 447 446
f 455 456 447
f 315 456 314
f 315 457 456
f 456 448 447
f 456 457 448
f 458 448 457
f 458 449 448
f 459 449 458
f 459 450 449
f 451 316 307
f 451 460 316
f 461 452 308
f 461 308 317
f 317 316 460
f 317 460 461
f 462 452 461
f 462 453 452
f 464 318 319
f 464 463 318
f 454 321 312
f 454 467 321
f 468 322 321
f 468 321 467
f 469 323 322
f 469 322 468
f 457 315 324
f 457 324 470
f 324 323 469
f 324 469 470
f 463 325 318
f 463 471 325
f 464 319 326
f 464 326 472
f 326 325 471
f 326 471 472
f 471 463 464
f 471 464 472
f 327 472 326
f 327 473 472
f 474 465 473
f 474 466 465
f 475 466 474
f 475 467 466
f 476 467 475
f 476 468 467
f 472 329 326
f 472 477 329
f 473 327 330
f 473 330 478
f 479 473 478
f 479 474 473
f 477 331 329
f 477 480 331
f 481 478 330
f 481 330 332
f 332 331 480
f 332 480 481
f 484 333 334
f 484 483 333
f 483 337 333
f 483 486 337
f 485 483 482
f 485 486 483
f 484 334 338
f 484 338 487
f 487 338 337
f 487 337 486
f 486 483 484
f 486 484 487
f 488 338 339
f 488 487 338
f 487 341 338
f 487 489 341
f 488 339 342
f 488 342 490
f 342 341 489
f 342 489 490
f 489 487 488
f 489 488 490
f 344 491 343
f 344 492 491
f 493 343 491
f 493 345 343
f 494 492 344
f 494 344 346
f 493 491 492
f 493 492 494
f 495 346 347
f 495 494 346
f 493 349 345
f 493 497 349
f 497 348 349
f 497 496 348
f 498 350 349
f 498 349 497
f 498 497 493
f 498 493 494
f 495 347 351
f 495 351 499
f 499 351 350
f 499 350 498
f 498 494 495
f 498 495 499
f 507 357 358
f 507 506 357
f 359 507 358
f 359 508 507
f 496 360 348
f 496 509 360
f 497 349 361
f 497 361 510
f 510 509 496
f 510 496 497
f 511 501 500
f 511 512 501
f 513 365 366
f 513 512 365
f 512 502 501
f 512 513 502
f 367 513 366
f 367 514 513
f 513 503 502
f 513 514 503
f 515 503 514
f 515 504 503
f 515 505 504
f 515 516 505
f 517 357 506
f 517 369 357
f 517 368 369
f 517 516 368
f 517 505 516
f 517 506 505
f 519 508 359
f 519 359 371
f 509 372 360
f 509 520 372
f 510 361 373
f 510 373 521
f 373 372 520
f 373 520 521
f 524 365 512
f 524 377 365
f 524 511 523
f 524 512 511
f 525 514 367
f 525 367 379
f 380 525 379
f 380 526 525
f 525 515 514
f 525 526 515
f 527 368 516
f 527 381 368
f 381 526 380
f 381 527 526
f 526 516 515
f 526 527 516
f 382 381 527
f 382 527 528
f 529 383 382
f 529 382 528
f 530 519 371
f 530 371 384
f 530 384 383
f 530 383 529
f 530 529 518
f 530 518 519
f 386 531 385
f 386 532 531
f 531 521 520
f 531 532 521
f 534 522 533
f 534 523 522
f 535 377 524
f 535 388 377
f 535 387 388
f 535 534 387
f 535 523 534
f 535 524 523
f 390 389 536
f 390 536 537
f 391 390 537
f 391 537 538
f 527 381 392
f 527 392 539
f 539 392 391
f 539 391 538
f 541 528 540
f 541 529 528
f 542 385 531
f 542 393 385
f 543 532 386
f 543 386 394
f 394 393 542
f 394 542 543
f 545 387 534
f 545 398 387
f 545 397 398
f 545 544 397
f 545 533 544
f 545 534 533
f 536 389 400
f 536 400 547
f 548 536 547
f 548 537 536
f 549 537 548
f 549 538 537
f 402 550 401
f 402 551 550
f 552 397 544
f 552 403 397
f 403 551 402
f 403 552 551
f 553 404 403
f 553 403 552
f 554 405 404
f 554 404 553
f 555 547 400
f 555 400 406
f 555 406 405
f 555 405 554
f 555 554 546
f 555 546 547
f 550 407 401
f 550 556 407
f 408 407 556
f 408 556 557
f 556 550 551
f 556 551 557
f 558 552 403
f 558 403 409
f 409 408 557
f 409 557 558
f 561 560 559
f 561 562 560
f 563 410 411
f 563 562 410
f 564 411 412
f 564 563 411
f 565 410 562
f 565 414 410
f 566 415 414
f 566 414 565
f 567 564 412
f 567 412 416
f 567 416 415
f 567 415 566
f 566 563 564
f 566 564 567
f 569 420 421
f 569 568 420
f 422 569 421
f 422 570 569
f 572 420 568
f 572 424 420
f 424 571 423
f 424 572 571
f 573 425 424
f 573 424 572
f 573 572 568
f 573 568 569
f 574 570 422
f 574 422 426
f 574 426 425
f 574 425 573
f 574 573 569
f 574 569 570
f 571 431 423
f 571 583 431
f 584 572 424
f 584 424 432
f 584 432 431
f 584 431 583
f 584 583 571
f 584 571 572
f 585 576 575
f 585 586 576
f 439 586 438
f 439 587 586
f 586 577 576
f 586 587 577
f 588 577 587
f 588 578 577
f 588 579 578
f 588 589 579
f 590 440 441
f 590 589 440
f 592 442 443
f 592 591 442
f 592 580 591
f 592 581 580
f 594 582 593
f 594 583 582
f 598 438 586
f 598 446 438
f 598 585 597
f 598 586 585
f 599 587 439
f 599 439 447
f 448 599 447
f 448 600 599
f 599 588 587
f 599 600 588
f 601 440 589
f 601 449 440
f 601 448 449
f 601 600 448
f 601 588 600
f 601 589 588
f 590 441 450
f 590 450 602
f 591 451 442
f 591 603 451
f 603 590 602
f 603 591 590
f 604 592 443
f 604 443 452
f 605 452 453
f 605 604 452
f 606 595 594
f 606 607 595
f 609 596 608
f 609 597 596
f 610 446 598
f 610 455 446
f 610 454 455
f 610 609 454
f 610 597 609
f 610 598 597
f 458 457 611
f 458 611 612
f 613 602 450
f 613 450 459
f 459 458 612
f 459 612 613
f 614 451 603
f 614 460 451
f 615 461 460
f 615 460 614
f 605 453 462
f 605 462 616
f 616 462 461
f 616 461 615
f 616 615 604
f 616 604 605
f 617 607 606
f 617 618 607
f 466 619 465
f 466 620 619
f 609 467 454
f 609 621 467
f 621 466 467
f 621 620 466
f 621 608 620
f 621 609 608
f 623 469 468
f 623 468 622
f 611 457 470
f 611 470 624
f 470 469 623
f 470 623 624
f 625 611 624
f 625 612 611
f 626 618 617
f 626 627 618
f 629 465 619
f 629 473 465
f 473 628 472
f 473 629 628
f 630 629 619
f 630 619 620
f 631 475 474
f 631 474 630
f 622 468 476
f 622 476 632
f 632 476 475
f 632 475 631
f 632 631 621
f 632 621 622
f 633 627 626
f 633 634 627
f 628 477 472
f 628 635 477
f 636 635 628
f 636 628 629
f 630 474 479
f 630 479 637
f 479 478 636
f 479 636 637
f 637 636 629
f 637 629 630
f 638 630 637
f 638 631 630
f 639 477 635
f 639 480 477
f 640 636 478
f 640 478 481
f 481 480 639
f 481 639 640
f 640 639 635
f 640 635 636
f 643 482 483
f 643 642 482
f 645 482 642
f 645 485 482
f 644 642 641
f 644 645 642
f 646 643 483
f 646 483 486
f 646 486 485
f 646 485 645
f 645 642 643
f 645 643 646
f 501 649 500
f 501 650 649
f 649 648 647
f 649 650 648
f 651 501 502
f 651 650 501
f 652 502 503
f 652 651 502
f 653 503 504
f 653 652 503
f 654 504 505
f 654 653 504
f 655 505 506
f 655 654 505
f 656 506 507
f 656 655 506
f 657 507 508
f 657 656 507
f 659 509 510
f 659 658 509
f 660 500 649
f 660 511 500
f 661 653 654
f 661 654 662
f 662 654 655
f 662 655 663
f 665 657 508
f 665 508 519
f 665 519 518
f 665 518 664
f 658 520 509
f 658 666 520
f 659 510 521
f 659 521 667
f 666 658 659
f 666 659 667
f 669 511 660
f 669 523 511
f 669 522 523
f 669 668 522
f 528 527 670
f 528 670 671
f 672 664 518
f 672 518 529
f 671 663 664
f 671 664 672
f 673 664 672
f 673 665 664
f 674 520 666
f 674 531 520
f 675 667 521
f 675 521 532
f 674 666 667
f 674 667 675
f 676 522 668
f 676 533 522
f 670 527 539
f 670 539 680
f 680 539 538
f 680 538 679
f 681 528 671
f 681 540 528
f 682 672 529
f 682 529 541
f 541 540 681
f 541 681 682
f 682 681 671
f 682 671 672
f 683 531 674
f 683 542 531
f 675 532 543
f 675 543 684
f 543 542 683
f 543 683 684
f 683 674 675
f 683 675 684
f 686 533 676
f 686 544 533
f 689 547 546
f 689 546 688
f 548 547 689
f 548 689 690
f 690 689 677
f 690 677 678
f 679 538 549
f 679 549 691
f 691 549 548
f 691 548 690
f 691 690 678
f 691 678 679
f 692 685 684
f 692 693 685
f 696 544 686
f 696 552 544
f 552 695 551
f 552 696 695
f 553 552 696
f 553 696 697
f 697 696 686
f 697 686 687
f 698 688 546
f 698 546 554
f 698 554 553
f 698 553 697
f 698 697 687
f 698 687 688
f 699 694 693
f 699 700 694
f 702 551 695
f 702 557 551
f 703 696 552
f 703 552 558
f 558 557 702
f 558 702 703
f 703 702 695
f 703 695 696
f 705 559 560
f 705 704 559
f 704 701 700
f 704 705 701
f 706 559 704
f 706 561 559
f 707 705 560
f 707 560 562
f 707 562 561
f 707 561 706
f 706 704 705
f 706 705 707
f 708 562 563
f 708 707 562
f 709 562 707
f 709 565 562
f 710 708 563
f 710 563 566
f 710 566 565
f 710 565 709
f 709 707 708
f 709 708 710
f 713 575 576
f 713 712 575
f 714 576 577
f 714 713 576
f 715 577 578
f 715 714 577
f 716 578 579
f 716 715 578
f 719 580 581
f 719 718 580
f 721 582 583
f 721 720 582
f 712 585 575
f 712 723 585
f 723 711 722
f 723 712 711
f 716 579 589
f 716 589 725
f 724 715 716
f 724 716 725
f 590 725 589
f 590 726 725
f 727 580 718
f 727 591 580
f 727 590 591
f 727 726 590
f 727 717 726
f 727 718 717
f 728 719 581
f 728 581 592
f 720 593 582
f 720 729 593
f 721 583 594
f 721 594 730
f 730 594 593
f 730 593 729
f 729 720 721
f 729 721 730
f 731 594 595
f 731 730 594
f 733 585 723
f 733 597 585
f 733 596 597
f 733 732 596
f 735 734 724
f 735 724 725
f 603 602 736
f 603 736 737
f 736 726 727
f 736 727 737
f 728 592 604
f 728 604 738
f 730 606 594
f 730 739 606
f 731 595 607
f 731 607 740
f 739 730 731
f 739 731 740
f 741 596 732
f 741 608 596
f 736 602 613
f 736 613 745
f 613 612 744
f 613 744 745
f 746 603 737
f 746 614 603
f 747 738 604
f 747 604 615
f 747 615 614
f 747 614 746
f 746 737 738
f 746 738 747
f 739 617 606
f 739 748 617
f 740 607 618
f 740 618 749
f 750 608 741
f 750 620 608
f 752 622 621
f 752 621 751
f 623 622 752
f 623 752 753
f 624 623 753
f 624 753 754
f 754 753 742
f 754 742 743
f 744 612 625
f 744 625 755
f 625 624 754
f 625 754 755
f 756 617 748
f 756 626 617
f 749 618 627
f 749 627 757
f 756 748 749
f 756 749 757
f 759 620 750
f 759 630 620
f 751 621 631
f 751 631 760
f 759 750 751
f 759 751 760
f 761 751 760
f 761 752 751
f 762 626 756
f 762 633 626
f 757 627 634
f 757 634 763
f 634 633 762
f 634 762 763
f 762 756 757
f 762 757 763
f 763 758 757
f 763 764 758
f 766 630 759
f 766 637 630
f 767 760 631
f 767 631 638
f 638 637 766
f 638 766 767
f 767 766 759
f 767 759 760
f 768 765 764
f 768 769 765
f 771 641 642
f 771 770 641
f 770 644 641
f 770 772 644
f 773 771 642
f 773 642 645
f 773 645 644
f 773 644 772
f 772 770 771
f 772 771 773
f 648 777 647
f 648 778 777
f 782 774 781
f 782 775 774
f 782 776 775
f 782 783 776
f 784 647 777
f 784 649 647
f 785 778 648
f 785 648 650
f 651 785 650
f 651 786 785
f 785 779 778
f 785 786 779
f 652 786 651
f 652 787 786
f 786 780 779
f 786 787 780
f 788 652 653
f 788 787 652
f 656 789 655
f 656 790 789
f 791 656 657
f 791 790 656
f 793 781 792
f 793 782 781
f 793 783 782
f 793 794 783
f 795 649 784
f 795 660 649
f 794 784 783
f 794 795 784
f 788 653 661
f 788 661 797
f 796 787 788
f 796 788 797
f 798 661 662
f 798 797 661
f 789 663 655
f 789 799 663
f 799 662 663
f 799 798 662
f 800 664 663
f 800 663 799
f 791 657 665
f 791 665 801
f 801 800 790
f 801 790 791
f 803 792 802
f 803 793 792
f 804 793 803
f 804 794 793
f 805 660 795
f 805 669 660
f 805 668 669
f 805 804 668
f 805 794 804
f 805 795 794
f 807 806 796
f 807 796 797
f 807 797 798
f 807 798 808
f 809 799 663
f 809 663 671
f 809 671 670
f 809 670 808
f 810 664 800
f 810 672 664
f 810 799 809
f 810 800 799
f 801 665 673
f 801 673 811
f 673 672 810
f 673 810 811
f 811 810 800
f 811 800 801
f 813 802 812
f 813 803 802
f 814 668 804
f 814 676 668
f 817 678 677
f 817 677 816
f 818 679 678
f 818 678 817
f 818 817 806
f 818 806 807
f 819 808 670
f 819 670 680
f 680 679 818
f 680 818 819
f 819 818 807
f 819 807 808
f 820 808 819
f 820 809 808
f 685 821 684
f 685 822 821
f 823 676 814
f 823 686 676
f 824 687 686
f 824 686 823
f 688 687 824
f 688 824 825
f 826 816 677
f 826 677 689
f 826 689 688
f 826 688 825
f 826 825 815
f 826 815 816
f 821 692 684
f 821 827 692
f 822 685 693
f 822 693 828
f 693 692 827
f 693 827 828
f 827 821 822
f 827 822 828
f 694 828 693
f 694 829 828
f 828 699 693
f 828 830 699
f 831 829 694
f 831 694 700
f 831 700 699
f 831 699 830
f 830 828 829
f 830 829 831
f 832 700 701
f 832 831 700
f 833 700 831
f 833 704 700
f 834 832 701
f 834 701 705
f 834 705 704
f 834 704 833
f 833 831 832
f 833 832 834
f 841 711 712
f 841 840 711
f 842 712 713
f 842 841 712
f 842 835 841
f 842 836 835
f 714 842 713
f 714 843 842
f 842 837 836
f 842 843 837
f 844 714 715
f 844 843 714
f 846 717 718
f 846 845 717
f 847 718 719
f 847 846 718
f 849 838 848
f 849 839 838
f 840 722 711
f 840 850 722
f 849 840 839
f 849 850 840
f 851 723 722
f 851 722 850
f 844 715 724
f 844 724 852
f 854 717 845
f 854 726 717
f 726 853 725
f 726 854 853
f 855 727 726
f 855 726 854
f 855 854 845
f 855 845 846
f 856 847 719
f 856 719 728
f 859 848 858
f 859 849 848
f 860 849 859
f 860 850 849
f 851 733 723
f 851 861 733
f 861 732 733
f 861 860 732
f 861 850 860
f 861 851 850
f 852 724 734
f 852 734 862
f 853 735 725
f 853 863 735
f 735 862 734
f 735 863 862
f 854 726 736
f 854 736 864
f 865 727 855
f 865 737 727
f 865 854 864
f 865 855 854
f 866 856 728
f 866 728 738
f 738 737 865
f 738 865 866
f 740 867 739
f 740 868 867
f 870 857 869
f 870 858 857
f 870 859 858
f 870 871 859
f 860 741 732
f 860 872 741
f 872 859 871
f 872 860 859
f 743 742 873
f 743 873 874
f 875 874 862
f 875 862 863
f 864 736 745
f 864 745 876
f 745 744 875
f 745 875 876
f 876 875 863
f 876 863 864
f 877 864 876
f 877 865 864
f 867 748 739
f 867 878 748
f 868 740 749
f 868 749 879
f 749 748 878
f 749 878 879
f 878 867 868
f 878 868 879
f 880 741 872
f 880 750 741
f 881 751 750
f 881 750 880
f 883 873 742
f 883 742 753
f 883 753 752
f 883 752 882
f 884 743 874
f 884 754 743
f 885 875 744
f 885 744 755
f 755 754 884
f 755 884 885
f 884 874 875
f 884 875 885
f 758 886 757
f 758 887 886
f 881 760 751
f 881 889 760
f 888 881 880
f 888 889 881
f 882 752 761
f 882 761 890
f 761 760 889
f 761 889 890
f 886 763 757
f 886 891 763
f 887 758 764
f 887 764 892
f 764 763 891
f 764 891 892
f 891 886 887
f 891 887 892
f 765 892 764
f 765 893 892
f 892 768 764
f 892 894 768
f 893 765 769
f 893 769 895
f 895 769 768
f 895 768 894
f 901 896 900
f 901 897 896
f 775 902 774
f 775 903 902
f 776 903 775
f 776 904 903
f 904 898 903
f 904 899 898
f 905 899 904
f 905 900 899
f 906 777 778
f 906 905 777
f 905 901 900
f 905 906 901
f 779 906 778
f 779 907 906
f 780 907 779
f 780 908 907
f 902 781 774
f 902 910 781
f 911 904 776
f 911 776 783
f 912 777 905
f 912 784 777
f 912 783 784
f 912 911 783
f 912 904 911
f 912 905 904
f 913 908 780
f 913 780 787
f 915 789 790
f 915 914 789
f 910 792 781
f 910 917 792
f 917 909 916
f 917 910 909
f 913 787 796
f 913 796 920
f 922 789 914
f 922 799 789
f 799 921 798
f 799 922 921
f 915 790 800
f 915 800 923
f 923 922 914
f 923 914 915
f 924 792 917
f 924 802 792
f 926 804 803
f 926 803 925
f 928 927 918
f 928 918 919
f 920 796 806
f 920 806 929
f 930 798 921
f 930 808 798
f 931 930 921
f 931 921 922
f 932 923 800
f 932 800 810
f 932 810 809
f 932 809 931
f 932 931 922
f 932 922 923
f 933 802 924
f 933 812 802
f 925 803 813
f 925 813 934
f 813 812 933
f 813 933 934
f 933 924 925
f 933 925 934
f 926 814 804
f 926 935 814
f 934 926 925
f 934 935 926
f 936 927 928
f 936 928 937
f 938 816 815
f 938 815 937
f 939 929 806
f 939 806 817
f 939 817 816
f 939 816 938
f 940 808 930
f 940 819 808
f 931 809 820
f 931 820 941
f 820 819 940
f 820 940 941
f 941 940 930
f 941 930 931
f 935 823 814
f 935 943 823
f 942 935 934
f 942 943 935
f 944 824 823
f 944 823 943
f 945 937 815
f 945 815 825
f 825 824 944
f 825 944 945
f 946 937 945
f 946 938 937
f 952 947 951
f 952 948 947
f 953 948 952
f 953 949 948
f 953 950 949
f 953 954 950
f 955 835 836
f 955 954 835
f 956 836 837
f 956 955 836
f 959 838 839
f 959 958 838
f 959 951 958
f 959 952 951
f 960 839 840
f 960 959 839
f 959 953 952
f 959 960 953
f 961 835 954
f 961 841 835
f 841 960 840
f 841 961 960
f 960 954 953
f 960 961 954
f 963 956 837
f 963 837 843
f 963 962 955
f 963 955 956
f 964 843 844
f 964 963 843
f 847 965 846
f 847 966 965
f 968 838 958
f 968 848 838
f 968 957 967
f 968 958 957
f 969 961 962
f 969 962 970
f 964 844 852
f 964 852 972
f 974 853 854
f 974 973 853
f 975 846 965
f 975 855 846
f 855 974 854
f 855 975 974
f 976 966 847
f 976 847 856
f 976 975 965
f 976 965 966
f 978 848 968
f 978 858 848
f 978 857 858
f 978 977 857
f 978 967 977
f 978 968 967
f 980 972 852
f 980 852 862
f 979 971 972
f 979 972 980
f 981 853 973
f 981 863 853
f 864 863 981
f 864 981 982
f 981 973 974
f 981 974 982
f 983 982 974
f 983 974 975
f 984 976 856
f 984 856 866
f 984 866 865
f 984 865 983
f 984 983 975
f 984 975 976
f 985 857 977
f 985 869 857
f 870 869 985
f 870 985 986
f 871 870 986
f 871 986 987
f 988 872 871
f 988 871 987
f 990 980 862
f 990 862 874
f 990 874 873
f 990 873 989
f 991 864 982
f 991 876 864
f 983 865 877
f 983 877 992
f 877 876 991
f 877 991 992
f 992 991 982
f 992 982 983
f 993 987 986
f 993 994 987
f 988 880 872
f 988 995 880
f 994 988 987
f 994 995 988
f 998 989 873
f 998 873 883
f 998 883 882
f 998 882 997
f 999 880 995
f 999 888 880
f 1000 889 888
f 1000 888 999
f 999 995 996
f 999 996 1000
f 1001 997 882
f 1001 882 890
f 1001 890 889
f 1001 889 1000
f 1001 1000 996
f 1001 996 997
f 893 1002 892
f 893 1003 1002
f 1002 894 892
f 1002 1004 894
f 1003 893 895
f 1003 895 1005
f 895 894 1004
f 895 1004 1005
f 1004 1002 1003
f 1004 1003 1005
f 1008 896 897
f 1008 1007 896
f 899 1009 898
f 899 1010 1009
f 1011 896 1007
f 1011 900 896
f 1011 899 900
f 1011 1010 899
f 1011 1006 1010
f 1011 1007 1006
f 1012 1008 897
f 1012 897 901
f 1014 898 1009
f 1014 903 898
f 1014 902 903
f 1014 1013 902
f 1016 1012 901
f 1016 901 906
f 1017 906 907
f 1017 1016 906
f 1018 907 908
f 1018 1017 907
f 1013 910 902
f 1013 1020 910
f 1020 909 910
f 1020 1019 909
f 1021 1015 1016
f 1021 1016 1022
f 1022 1016 1017
f 1022 1017 1023
f 1018 908 913
f 1018 913 1024
f 1023 1017 1018
f 1023 1018 1024
f 1019 916 909
f 1019 1025 916
f 1026 917 916
f 1026 916 1025
f 1026 1025 1019
f 1026 1019 1020
f 919 918 1027
f 919 1027 1028
f 1029 1028 1022
f 1029 1022 1023
f 1024 913 920
f 1024 920 1030
f 1030 1029 1023
f 1030 1023 1024
f 1031 917 1026
f 1031 924 917
f 1032 925 924
f 1032 924 1031
f 1033 1027 918
f 1033 918 927
f 1034 919 1028
f 1034 928 919
f 1034 1028 1029
f 1034 1029 1035
f 1030 920 929
f 1030 929 1036
f 1036 1035 1029
f 1036 1029 1030
f 1032 934 925
f 1032 1038 934
f 1037 1032 1031
f 1037 1038 1032
f 1033 927 936
f 1033 936 1040
f 1041 928 1034
f 1041 937 928
f 1041 936 937
f 1041 1040 936
f 1042 1041 1034
f 1042 1034 1035
f 1043 1036 929
f 1043 929 939
f 939 938 1042
f 939 1042 1043
f 1043 1042 1035
f 1043 1035 1036
f 1038 942 934
f 1038 1044 942
f 1045 943 942
f 1045 942 1044
f 1044 1038 1039
f 1044 1039 1045
f 1046 944 943
f 1046 943 1045
f 1046 1045 1039
f 1046 1039 1040
f 1047 945 944
f 1047 944 1046
f 1047 1046 1040
f 1047 1040 1041
f 1042 938 946
f 1042 946 1048
f 946 945 1047
f 946 1047 1048
f 1048 1047 1041
f 1048 1041 1042
f 1050 947 948
f 1050 1049 947
f 949 1050 948
f 949 1051 1050
f 950 1051 949
f 950 1052 1051
f 1053 947 1049
f 1053 951 947
f 1054 1052 950
f 1054 950 954
f 1055 954 955
f 1055 1054 954
f 1057 951 1053
f 1057 958 951
f 1057 957 958
f 1057 1056 957
f 1055 955 962
f 1055 962 1059
f 962 961 1058
f 962 1058 1059
f 1058 1054 1055
f 1058 1055 1059
f 1060 962 963
f 1060 1059 962
f 964 1060 963
f 964 1061 1060
f 1062 957 1056
f 1062 967 957
f 1058 961 969
f 1058 969 1063
f 1059 970 962
f 1059 1064 970
f 970 1063 969
f 970 1064 1063
f 1064 1058 1063
f 1064 1059 1058
f 1064 1059 1060
f 1064 1060 1065
f 1066 1061 964
f 1066 964 972
f 1066 972 971
f 1066 971 1065
f 1066 1065 1060
f 1066 1060 1061
f 1067 967 1062
f 1067 977 967
f 1070 1069 1063
f 1070 1063 1064
f 1065 971 979
f 1065 979 1071
f 1070 1064 1065
f 1070 1065 1071
f 1072 979 980
f 1072 1071 979
f 1073 977 1067
f 1073 985 977
f 986 985 1073
f 986 1073 1074
f 1073 1067 1068
f 1073 1068 1074
f 1077 1076 1069
f 1077 1069 1070
f 1072 980 990
f 1072 990 1079
f 1079 990 989
f 1079 989 1078
f 1079 1078 1071
f 1079 1071 1072
f 1080 986 1074
f 1080 993 986
f 994 993 1080
f 994 1080 1081
f 1080 1074 1075
f 1080 1075 1081
f 1082 995 994
f 1082 994 1081
f 1083 996 995
f 1083 995 1082
f 1084 997 996
f 1084 996 1083
f 1084 1083 1076
f 1084 1076 1077
f 1085 1078 989
f 1085 989 998
f 998 997 1084
f 998 1084 1085
f 1085 1084 1077
f 1085 1077 1078
f 1087 1006 1007
f 1087 1086 1006
f 1088 1007 1008
f 1088 1087 1007
f 1086 1010 1006
f 1086 1090 1010
f 1010 1089 1009
f 1010 1090 1089
f 1091 1090 1086
f 1091 1086 1087
f 1088 1008 1012
f 1088 1012 1092
f 1092 1091 1087
f 1092 1087 1088
f 1089 1014 1009
f 1089 1094 1014
f 1014 1093 1013
f 1014 1094 1093
f 1095 1094 1089
f 1095 1089 1090
f 1097 1092 1012
f 1097 1012 1016
f 1097 1016 1015
f 1097 1015 1096
f 1097 1096 1091
f 1097 1091 1092
f 1098 1013 1093
f 1098 1020 1013
f 1099 1096 1015
f 1099 1015 1021
f 1100 1021 1022
f 1100 1099 1021
f 1101 1020 1098
f 1101 1026 1020
f 1103 1100 1022
f 1103 1022 1028
f 1028 1027 1102
f 1028 1102 1103
f 1101 1031 1026
f 1101 1105 1031
f 1102 1027 1033
f 1102 1033 1106
f 1107 1102 1106
f 1107 1103 1102
f 1107 1104 1103
f 1107 1108 1104
f 1105 1037 1031
f 1105 1109 1037
f 1110 1038 1037
f 1110 1037 1109
f 1111 1039 1038
f 1111 1038 1110
f 1106 1033 1040
f 1106 1040 1112
f 1112 1040 1039
f 1112 1039 1111
f 1113 1106 1112
f 1113 1107 1106
f 1114 1107 1113
f 1114 1108 1107
f 1116 1112 1115
f 1116 1113 1112
f 1050 1117 1049
f 1050 1118 1117
f 1051 1118 1050
f 1051 1119 1118
f 1120 1051 1052
f 1120 1119 1051
f 1117 1053 1049
f 1117 1121 1053
f 1122 1121 1117
f 1122 1117 1118
f 1123 1122 1118
f 1123 1118 1119
f 1124 1120 1052
f 1124 1052 1054
f 1121 1057 1053
f 1121 1126 1057
f 1126 1056 1057
f 1126 1125 1056
f 1127 1124 1054
f 1127 1054 1058
f 1128 1058 1059
f 1128 1127 1058
f 1125 1062 1056
f 1125 1129 1062
f 1128 1059 1064
f 1128 1064 1132
f 1064 1063 1131
f 1064 1131 1132
f 1133 1062 1129
f 1133 1067 1062
f 1068 1067 1133
f 1068 1133 1134
f 1133 1129 1130
f 1133 1130 1134
f 1131 1063 1069
f 1131 1069 1135
f 1136 1131 1135
f 1136 1132 1131
f 1137 1070 1071
f 1137 1136 1070
f 1139 1068 1134
f 1139 1074 1068
f 1138 1134 1133
f 1138 1139 1134
f 1075 1074 1139
f 1075 1139 1140
f 1135 1069 1076
f 1135 1076 1142
f 1143 1070 1136
f 1143 1077 1070
f 1143 1135 1142
f 1143 1136 1135
f 1144 1137 1071
f 1144 1071 1078
f 1144 1078 1077
f 1144 1077 1143
f 1144 1143 1136
f 1144 1136 1137
f 1145 1075 1140
f 1145 1081 1075
f 1082 1081 1145
f 1082 1145 1146
f 1145 1140 1141
f 1145 1141 1146
f 1142 1076 1083
f 1142 1083 1147
f 1083 1082 1146
f 1083 1146 1147
f 1147 1146 1141
f 1147 1141 1142
f 1148 1142 1147
f 1148 1143 1142
f 1149 1147 1146
f 1149 1150 1147
f 1152 1090 1091
f 1152 1151 1090
f 1094 1153 1093
f 1094 1154 1153
f 1151 1095 1090
f 1151 1155 1095
f 1095 1154 1094
f 1095 1155 1154
f 1152 1091 1096
f 1152 1096 1156
f 1155 1151 1152
f 1155 1152 1156
f 1153 1098 1093
f 1153 1158 1098
f 1159 1158 1153
f 1159 1153 1154
f 1160 1156 1096
f 1160 1096 1099
f 1100 1160 1099
f 1100 1161 1160
f 1160 1157 1156
f 1160 1161 1157
f 1162 1098 1158
f 1162 1101 1098
f 1162 1158 1159
f 1162 1159 1163
f 1161 1100 1103
f 1161 1103 1164
f 1104 1164 1103
f 1104 1165 1164
f 1162 1105 1101
f 1162 1166 1105
f 1166 1162 1163
f 1166 1163 1167
f 1170 1165 1104
f 1170 1104 1108
f 1169 1164 1165
f 1169 1165 1170
f 1166 1109 1105
f 1166 1171 1109
f 1110 1109 1171
f 1110 1171 1172
f 1172 1171 1166
f 1172 1166 1167
f 1111 1110 1172
f 1111 1172 1173
f 1172 1167 1168
f 1172 1168 1173
f 1174 1112 1111
f 1174 1111 1173
f 1176 1170 1108
f 1176 1108 1114
f 1176 1114 1113
f 1176 1113 1175
f 1176 1175 1169
f 1176 1169 1170
f 1174 1115 1112
f 1174 1177 1115
f 1175 1113 1116
f 1175 1116 1178
f 1178 1116 1115
f 1178 1115 1177
f 1178 1177 1174
f 1178 1174 1175
f 1180 1177 1179
f 1180 1178 1177
f 1120 1181 1119
f 1120 1182 1181
f 1122 1183 1121
f 1122 1184 1183
f 1181 1123 1119
f 1181 1185 1123
f 1123 1184 1122
f 1123 1185 1184
f 1182 1120 1124
f 1182 1124 1186
f 1186 1185 1181
f 1186 1181 1182
f 1183 1126 1121
f 1183 1188 1126
f 1126 1187 1125
f 1126 1188 1187
f 1189 1188 1183
f 1189 1183 1184
f 1186 1124 1127
f 1186 1127 1190
f 1128 1190 1127
f 1128 1191 1190
f 1192 1125 1187
f 1192 1129 1125
f 1130 1129 1192
f 1130 1192 1193
f 1193 1192 1187
f 1193 1187 1188
f 1194 1193 1188
f 1194 1188 1189
f 1191 1128 1132
f 1191 1132 1195
f 1197 1130 1193
f 1197 1134 1130
f 1134 1196 1133
f 1134 1197 1196
f 1197 1193 1194
f 1197 1194 1198
f 1199 1195 1132
f 1199 1132 1136
f 1196 1138 1133
f 1196 1200 1138
f 1139 1138 1200
f 1139 1200 1201
f 1201 1200 1196
f 1201 1196 1197
f 1140 1139 1201
f 1140 1201 1202
f 1141 1140 1202
f 1141 1202 1203
f 1204 1142 1141
f 1204 1141 1203
f 1199 1136 1143
f 1199 1143 1205
f 1204 1147 1142
f 1204 1207 1147
f 1147 1206 1146
f 1147 1207 1206
f 1206 1204 1203
f 1206 1207 1204
f 1205 1143 1148
f 1205 1148 1208
f 1148 1147 1207
f 1148 1207 1208
f 1208 1207 1204
f 1208 1204 1205
f 1206 1149 1146
f 1206 1209 1149
f 1207 1147 1150
f 1207 1150 1210
f 1210 1150 1149
f 1210 1149 1209
f 1155 1211 1154
f 1155 1212 1211
f 1156 1212 1155
f 1156 1213 1212
f 1157 1213 1156
f 1157 1214 1213
f 1211 1159 1154
f 1211 1215 1159
f 1216 1215 1211
f 1216 1211 1212
f 1216 1212 1213
f 1216 1213 1217
f 1218 1214 1157
f 1218 1157 1161
f 1219 1159 1215
f 1219 1163 1159
f 1220 1219 1215
f 1220 1215 1216
f 1221 1220 1216
f 1221 1216 1217
f 1222 1218 1161
f 1222 1161 1164
f 1221 1217 1218
f 1221 1218 1222
f 1223 1163 1219
f 1223 1167 1163
f 1168 1167 1223
f 1168 1223 1224
f 1223 1219 1220
f 1223 1220 1224
f 1224 1220 1221
f 1224 1221 1225
f 1222 1164 1169
f 1222 1169 1226
f 1226 1225 1221
f 1226 1221 1222
f 1227 1168 1224
f 1227 1173 1168
f 1174 1173 1227
f 1174 1227 1228
f 1227 1224 1225
f 1227 1225 1228
f 1229 1226 1169
f 1229 1169 1175
f 1229 1175 1174
f 1229 1174 1228
f 1229 1228 1225
f 1229 1225 1226
f 1231 1177 1178
f 1231 1230 1177
f 1230 1179 1177
f 1230 1232 1179
f 1231 1178 1180
f 1231 1180 1233
f 1180 1179 1232
f 1180 1232 1233
f 1232 1230 1231
f 1232 1231 1233
f 1185 1234 1184
f 1185 1235 1234
f 1236 1185 1186
f 1236 1235 1185
f 1234 1189 1184
f 1234 1237 1189
f 1238 1237 1234
f 1238 1234 1235
f 1236 1186 1190
f 1236 1190 1239
f 1238 1235 1236
f 1238 1236 1239
f 1240 1190 1191
f 1240 1239 1190
f 1241 1189 1237
f 1241 1194 1189
f 1241 1237 1238
f 1241 1238 1242
f 1242 1238 1239
f 1242 1239 1243
f 1240 1191 1195
f 1240 1195 1244
f 1243 1239 1240
f 1243 1240 1244
f 1241 1198 1194
f 1241 1246 1198
f 1198 1245 1197
f 1198 1246 1245
f 1247 1246 1241
f 1247 1241 1242
f 1248 1247 1242
f 1248 1242 1243
f 1249 1244 1195
f 1249 1195 1199
f 1248 1243 1244
f 1248 1244 1249
f 1245 1201 1197
f 1245 1250 1201
f 1202 1201 1250
f 1202 1250 1251
f 1251 1250 1245
f 1251 1245 1246
f 1252 1203 1202
f 1252 1202 1251
f 1251 1246 1247
f 1251 1247 1252
f 1252 1247 1248
f 1252 1248 1253
f 1254 1249 1199
f 1254 1199 1205
f 1205 1204 1253
f 1205 1253 1254
f 1254 1253 1248
f 1254 1248 1249
f 1255 1203 1252
f 1255 1206 1203
f 1256 1253 1204
f 1256 1204 1207
f 1255 1252 1253
f 1255 1253 1256
f 1255 1209 1206
f 1255 1257 1209
f 1256 1207 1210
f 1256 1210 1258
f 1258 1210 1209
f 1258 1209 1257
f 1258 1257 1255
f 1258 1255 1256
f 1214 1259 1213
f 1214 1260 1259
f 1261 1213 1259
f 1261 1217 1213
f 1262 1260 1214
f 1262 1214 1218
f 1262 1218 1217
f 1262 1217 1261
f 1261 1259 1260
f 1261 1260 1262
