# parsimony mesh: cplx_CPLX0-12620 (source /Users/eranagmon/code/v2e-cplx/workspace/studies/ecoli-3d/viz/3d/structures/cplx_CPLX0-12620.pdb)
# atoms: 6030  voxel: 8 Å  verts: 611  tris: 1224
v -1.3134 -23.7169 -51.3035
v 3.1674 -23.6470 -51.1923
v 7.2076 -23.2898 -50.7720
v -1.3134 -22.4991 -51.3035
v 3.1674 -22.6022 -51.1923
v 7.2076 -23.1144 -50.7720
v -1.3134 -23.7169 -49.5203
v 3.1274 -24.2204 -46.8036
v 7.8709 -24.0957 -46.7286
v -1.3134 -22.4991 -49.5203
v 3.1274 -21.9863 -46.8036
v 7.8709 -22.2165 -46.7286
v 29.9112 -40.0213 -35.7196
v 35.1674 -40.3749 -35.8900
v 39.6837 -39.9558 -35.2861
v 13.4703 -32.9030 -36.0923
v 19.1674 -33.3336 -36.2654
v 27.2137 -35.0978 -35.8641
v 35.1674 -35.2159 -36.3514
v 40.5474 -35.2159 -35.4461
v -0.9782 -23.5507 -35.2655
v 3.1274 -24.7645 -38.2507
v 10.7678 -27.0057 -38.2923
v 19.1674 -27.2159 -36.8308
v 27.1674 -27.2159 -36.3952
v 35.1674 -27.2159 -36.0075
v 43.1617 -27.2408 -35.3041
v 48.1847 -24.5908 -35.1960
v -0.9782 -23.0124 -35.2655
v 3.1274 -22.0059 -38.2507
v 10.9061 -21.9720 -38.1869
v 19.1674 -22.7659 -35.2939
v 27.1674 -22.1700 -35.7191
v 35.1674 -22.1139 -35.5461
v 43.1674 -22.1871 -35.1486
v 48.1847 -22.2591 -35.1960
v 38.8873 -55.2743 -26.7918
v 39.2705 -55.2743 -26.7918
v 22.4425 -47.7840 -27.0865
v 27.1674 -48.2452 -27.2133
v 35.7994 -50.8984 -27.6768
v 42.4293 -50.7150 -27.6909
v 47.7190 -47.7145 -27.0404
v 20.7953 -43.2159 -28.0329
v 27.2137 -42.8991 -31.1450
v 35.1674 -44.3749 -31.8665
v 42.6772 -42.8598 -31.0798
v 48.1098 -43.2159 -27.2460
v 5.9939 -31.5995 -27.7592
v 10.9491 -32.6098 -30.5469
v 18.5047 -36.2615 -30.7573
v 24.5779 -37.6857 -33.4430
v 44.5474 -35.2159 -32.2438
v 48.4357 -35.2159 -28.2438
v -0.9782 -23.5507 -34.1890
v 3.5769 -26.6235 -30.9741
v 10.6558 -27.7699 -30.8485
v 17.1016 -25.8436 -28.6045
v 45.8245 -29.9241 -33.7042
v 50.8357 -26.6841 -30.3885
v 55.2814 -23.4441 -27.0728
v -0.9782 -23.0124 -34.1890
v 3.5630 -22.6327 -31.2048
v 10.7717 -22.5988 -31.0541
v 19.5280 -22.5779 -31.0541
v 27.1674 -20.1964 -30.7286
v 35.1674 -18.9052 -30.7286
v 43.1674 -19.2348 -30.7286
v 50.9778 -21.2087 -30.1351
v 55.2814 -22.6536 -27.0728
v -97.5575 88.3221 -27.5404
v -95.6308 88.3221 -27.5404
v -98.0439 92.7841 -28.1941
v -92.9115 92.7719 -28.4272
v -87.5874 95.4304 -27.6055
v -97.6389 100.7841 -27.7207
v -92.8326 100.7841 -29.1306
v -86.9586 100.7841 -28.1384
v -97.0174 105.2835 -26.9092
v -92.8326 106.8938 -27.6162
v -87.5792 107.0977 -27.7314
v 23.0981 -55.6031 -18.9052
v 27.1674 -56.4425 -20.0839
v 35.7994 -56.7534 -22.9069
v 41.2142 -56.2015 -22.7286
v 52.7458 -55.3651 -18.8392
v 55.2789 -55.3651 -18.8392
v 22.2034 -50.7568 -22.0345
v 27.1674 -52.2452 -24.0839
v 33.5540 -53.3535 -25.6924
v 45.2142 -53.5545 -22.7286
v 50.2324 -51.4416 -21.8393
v 56.8424 -51.2159 -19.3947
v 69.4681 -47.4238 -18.9984
v 71.3922 -47.4238 -18.9984
v 20.0703 -43.2159 -22.7286
v 52.1098 -43.2159 -24.1719
v 59.6405 -43.7913 -20.7646
v 66.9478 -43.7913 -20.0925
v 72.1068 -43.2159 -19.3318
v 5.9939 -31.5995 -26.2896
v 11.1674 -31.6929 -26.3887
v 18.0951 -34.5673 -23.5201
v 52.7539 -34.5692 -22.6167
v 58.5953 -34.5692 -20.5680
v 67.1674 -35.2159 -20.8770
v 73.0861 -35.2159 -19.4378
v 5.7817 -27.2159 -26.1552
v 10.7717 -27.9925 -26.2614
v 18.9435 -27.9925 -23.5201
v 53.6218 -29.1607 -22.7286
v 58.1748 -27.3187 -21.2071
v 67.1674 -28.8135 -19.3744
v 72.6980 -29.0324 -19.1397
v 6.4933 -23.0295 -26.4031
v 7.8413 -23.0295 -26.4031
v 22.2840 -22.4995 -22.7286
v 27.9047 -18.1419 -22.4124
v 35.1674 -16.0072 -24.3993
v 43.1674 -16.2635 -25.3422
v 51.1674 -17.4245 -25.5415
v 57.1100 -19.6785 -22.9408
v 31.0628 -15.1434 -19.5350
v 35.1674 -14.7057 -20.3993
v 43.4690 -11.6513 -21.0791
v 51.6788 -10.5912 -21.2385
v 57.1008 -12.8414 -20.4156
v 45.9840 -3.2159 -19.6006
v 49.2898 -3.2159 -19.6006
v 46.4203 1.4201 -19.4585
v 47.8117 1.4201 -19.4585
v -97.5575 88.3221 -24.3663
v -95.6308 88.3221 -24.3663
v -98.7281 92.0938 -22.1112
v -92.9115 90.3927 -22.1112
v -84.8855 94.9244 -22.1954
v -80.6941 96.5198 -19.1733
v -99.2397 100.7841 -22.7286
v -83.0409 100.4491 -22.1954
v -80.6941 97.5591 -19.1733
v -97.3879 108.2837 -22.1447
v -92.8326 110.8938 -24.7350
v -86.4539 109.3723 -23.3176
v -96.9829 113.0752 -19.0888
v -92.8326 114.2601 -20.7350
v -87.9424 114.4610 -21.0435
v 23.0981 -55.6031 -18.6018
v 27.3412 -56.7390 -15.4525
v 35.1674 -59.5293 -14.7286
v 43.9430 -58.8924 -15.5020
v 50.5145 -57.3573 -15.5020
v 56.4477 -55.9969 -14.7286
v 22.3928 -50.8075 -15.4525
v 24.7904 -53.2019 -13.2684
v 47.1267 -55.1687 -18.6843
v 47.4125 -55.1687 -18.6843
v 60.6647 -51.1172 -15.0601
v 66.9478 -48.2242 -15.0601
v 71.6165 -47.5996 -14.7286
v 21.8539 -43.2159 -14.7286
v 62.6225 -46.8416 -17.9477
v 64.1347 -46.8416 -17.9477
v 73.2694 -43.2159 -14.7286
v 22.5325 -34.6654 -14.0959
v 23.3043 -31.6317 -11.0074
v 54.7873 -31.4714 -18.4391
v 55.5472 -31.4714 -18.4391
v 75.4220 -35.2159 -14.7286
v 22.4369 -27.2159 -15.9356
v 23.9261 -27.2159 -11.9356
v 54.7873 -30.9141 -18.4391
v 58.6191 -27.8884 -17.9947
v 67.1674 -24.8135 -17.6134
v 75.5686 -26.2275 -14.6200
v 79.1833 -23.4226 -10.8200
v 22.7220 -22.7240 -17.3925
v 26.1329 -19.7207 -14.7269
v 61.5101 -19.2159 -17.3055
v 67.4307 -18.9599 -14.2049
v 75.1674 -21.8722 -12.5657
v 79.1833 -23.1843 -10.8200
v 30.2183 -14.6160 -14.7286
v 35.1674 -12.7780 -14.7286
v 41.1785 -9.3779 -14.7286
v 54.6864 -7.5081 -17.9457
v 59.0882 -10.7113 -15.3109
v 64.9396 -13.9145 -12.6761
v 45.1280 -2.5631 -14.1078
v 51.2490 -3.0976 -14.4865
v 55.7423 -6.7339 -12.6123
v 46.4203 1.4201 -16.3606
v 47.8117 1.4201 -16.3606
v -98.6178 94.4198 -14.7286
v -92.8326 93.1680 -14.7286
v -84.8326 95.2809 -14.7286
v -80.7014 96.5327 -14.7286
v -100.1142 100.7841 -14.7286
v -81.5542 102.3761 -14.7286
v -80.7014 98.3761 -14.7286
v -99.6250 108.7841 -14.7286
v -84.0059 108.7841 -14.7286
v -98.2273 116.1588 -14.2967
v -92.8326 118.2601 -16.5281
v -86.9998 116.9902 -15.0001
v -97.4290 121.1315 -11.3421
v -92.8326 122.0613 -12.5281
v -87.8423 122.1396 -12.5145
v 30.1238 -56.1188 -8.7779
v 34.7582 -58.7481 -6.3582
v 43.1674 -61.3888 -6.7286
v 50.9037 -57.6991 -6.6498
v 56.7629 -56.1080 -9.2639
v 22.7582 -47.8685 -8.3830
v 26.7530 -51.1183 -5.9138
v 31.8187 -54.3681 -3.4446
v 53.3945 -53.9047 -3.9306
v 59.8129 -51.1447 -6.2265
v 67.1674 -48.3203 -7.4403
v 71.5414 -47.5195 -8.5503
v 21.5539 -43.8972 -6.1213
v 23.3823 -47.0181 -3.0497
v 62.8629 -47.0182 -3.1891
v 67.1674 -45.1863 -3.4403
v 72.1015 -42.5108 -6.2216
v 21.1479 -34.6654 -7.3535
v 23.3043 -31.6317 -10.4367
v 74.5456 -35.2159 -6.7286
v 22.2659 -27.2159 -4.8516
v 23.9261 -27.2159 -8.8516
v 77.3984 -26.5399 -7.4733
v 79.1833 -23.4226 -10.6365
v 23.0514 -23.0841 -3.1845
v 27.0243 -20.0302 -6.4336
v 32.8385 -16.9763 -4.3494
v 70.0943 -16.2254 -6.7286
v 75.4055 -20.8046 -7.4733
v 79.1833 -23.1843 -10.6365
v 30.0065 -14.4885 -9.6828
v 35.9644 -11.2640 -6.4011
v 40.0130 -8.0395 -8.4528
v 59.8708 -9.6422 -6.7286
v 66.0943 -13.6422 -6.7286
v 39.0903 -7.1439 -3.1194
v 42.8748 -5.4032 -6.1631
v 51.1674 -4.4486 -6.7286
v 55.8708 -6.6605 -6.7286
v -113.1792 96.4799 -2.9219
v -111.7684 96.4799 -2.9219
v -97.6689 96.1156 -9.6251
v -92.5895 96.0185 -6.8665
v -85.2942 96.3771 -7.4873
v -80.7962 96.7132 -10.6598
v -113.1792 97.4127 -2.9219
v -111.7684 97.4127 -2.9219
v -99.6313 100.8444 -6.8665
v -95.0941 98.2179 -4.2917
v -81.9421 101.1891 -7.9035
v -80.5670 101.1891 -7.9035
v -106.3825 110.3482 -4.5481
v -103.2762 108.1226 -7.0203
v -82.8352 108.3271 -7.3798
v -80.3378 105.3558 -5.1473
v -107.9866 116.7841 -5.1487
v -102.4632 116.7841 -9.1487
v -86.1046 116.7841 -6.7286
v -107.4879 122.2232 -4.1360
v -100.3904 123.1464 -6.7730
v -92.8326 124.1763 -6.7286
v -87.6886 122.3027 -6.7286
v 37.0870 -57.8041 1.2714
v 43.4764 -57.7177 1.1903
v 48.0612 -55.9346 -1.5305
v 22.9885 -47.2975 3.6984
v 26.4963 -48.5467 1.1276
v 33.0870 -52.8182 1.2714
v 46.3491 -54.1607 3.8028
v 50.9037 -52.3631 1.1903
v 57.1549 -48.4413 1.2714
v 13.7688 -40.1048 3.4933
v 19.4591 -43.5615 0.9292
v 23.3823 -47.0181 -1.6349
v 53.6825 -41.2122 4.2281
v 59.1591 -44.1152 1.3419
v 67.1674 -41.1863 -1.8367
v 71.1740 -39.3741 -2.7237
v 12.1939 -35.2159 2.7727
v 16.9246 -35.2159 -1.2273
v 52.7883 -35.2159 3.1560
v 59.1674 -35.2159 0.8641
v 67.1674 -35.2159 -0.0500
v 72.2096 -35.2159 -1.7581
v 12.6014 -29.2956 3.7180
v 18.4712 -26.8637 1.1393
v 53.4801 -29.5976 3.4942
v 59.1674 -28.1470 2.7583
v 67.1674 -27.3856 3.0581
v 73.0418 -26.4358 1.2449
v 22.1116 -22.5508 1.2714
v 27.3314 -18.9401 1.5531
v 32.8385 -16.9763 -0.9259
v 53.8895 -16.5532 3.8255
v 59.1674 -17.9035 3.4144
v 67.6457 -18.4149 1.4534
v 72.4731 -21.5300 1.2714
v 30.1873 -11.2159 4.3916
v 35.6589 -10.0242 1.4562
v 43.1674 -8.7487 2.6633
v 51.2007 -10.9104 2.3787
v 58.5852 -11.5377 -0.7903
v 65.2978 -14.4189 -1.0920
v 30.9207 -6.9424 4.9623
v 35.5719 -7.0432 1.2523
v 43.1674 -6.7660 -1.3367
v 51.1674 -6.6260 -1.2600
v 55.5304 -6.9573 -2.3555
v -131.0353 88.0261 4.7916
v -124.8326 87.3001 4.2294
v -116.8326 87.4492 4.2457
v -108.8326 88.1632 4.5430
v -104.2047 88.5154 4.7581
v -137.5935 94.3980 4.3756
v -133.3542 92.1525 4.0307
v -124.8326 92.7841 2.9816
v -116.2406 93.4016 0.6680
v -108.9941 93.4016 0.3585
v -102.7927 92.7841 3.4738
v -89.7608 96.3644 -1.9784
v -88.2686 96.3644 -1.9784
v -137.5935 97.8899 4.3756
v -132.2422 100.6476 4.2172
v -125.3162 100.8859 4.1718
v -116.3125 100.5166 1.5083
v -108.9941 100.3613 -1.2583
v -100.9982 100.4420 0.4407
v -92.5895 98.8163 0.9215
v -85.1375 101.2175 0.7704
v -80.3378 104.2463 -1.8142
v -129.1820 104.9242 5.1024
v -128.3052 104.9242 5.1024
v -114.1125 106.1061 4.0500
v -108.8709 108.2272 0.7718
v -104.5893 105.0149 -2.5064
v -83.5956 108.3271 1.0201
v -80.3378 105.3558 -1.8142
v -109.1494 116.7841 1.2714
v -91.3981 119.2730 3.3665
v -87.3703 116.6775 0.9285
v -107.0920 122.0431 1.2714
v -100.8326 123.7269 1.2714
v -93.5719 122.5327 0.9285
v -88.2975 121.4534 -1.9668
v 38.4090 -56.0268 6.3440
v 41.0157 -56.0268 6.3440
v 22.9885 -47.2975 5.9764
v 27.1674 -47.5152 7.7186
v 34.8046 -50.6267 9.7533
v 43.4764 -52.5683 9.1150
v 50.8802 -48.8328 8.6086
v 55.4552 -47.4943 5.5001
v 6.5514 -39.8487 11.9386
v 11.1282 -40.8066 9.2717
v 19.8601 -44.7882 8.8944
v 27.1674 -46.6338 11.7186
v 31.2002 -47.1710 13.1627
v 51.6749 -43.6137 8.6086
v 55.4552 -46.5455 5.5001
v 5.3862 -35.2159 10.3538
v 8.1939 -35.2159 6.3538
v 38.5455 -32.0033 12.5898
v 43.1674 -33.5959 11.5764
v 48.5498 -35.8474 9.1243
v 5.8424 -27.2159 11.3436
v 10.4278 -26.8637 7.5832
v 16.5424 -23.9623 6.3615
v 29.3838 -24.3959 11.6569
v 35.5943 -27.1239 10.9206
v 43.1674 -27.2159 9.5408
v 50.9551 -27.0449 7.3479
v 59.1674 -24.1470 5.9275
v 67.1674 -23.3856 5.3336
v 71.1781 -23.2491 5.2777
v 7.1596 -23.2102 13.2584
v 11.1674 -22.2985 12.0792
v 19.1924 -21.7580 9.1255
v 27.0789 -19.9430 8.7804
v 35.1674 -19.2159 7.9704
v 43.1674 -19.2159 8.5630
v 51.2007 -19.2182 7.2351
v 59.1674 -21.9035 5.9275
v 67.1674 -22.8852 5.3336
v 71.1781 -23.1954 5.2777
v 30.1873 -11.2159 5.9752
v 34.8991 -11.1476 6.3561
v 43.1674 -12.7487 6.5986
v 48.5562 -13.3735 6.1716
v 30.9207 -6.9424 5.5774
v 32.0535 -6.9424 5.5774
v -113.6848 80.6155 13.0087
v -112.3639 80.6155 13.0087
v -136.8837 88.6890 12.2948
v -133.3542 87.8237 9.4854
v -124.8326 85.3051 9.2714
v -116.5439 83.3688 9.9138
v -109.3514 84.2369 9.9138
v -101.2559 87.7190 9.9342
v -96.7834 88.6951 13.0427
v -137.4811 92.1525 9.4854
v -136.3687 89.0647 6.9615
v -98.7927 92.7841 7.7176
v -96.1806 92.7841 11.7176
v -137.6049 97.9104 9.2714
v -132.2422 101.2539 8.6632
v -125.3162 101.9898 8.6632
v -118.6625 102.8303 9.2714
v -97.4072 97.3328 6.0951
v -92.6686 100.4274 9.5329
v -87.3397 103.5221 7.6374
v -129.1820 104.9242 5.5911
v -128.3052 104.9242 5.5911
v -114.6625 106.6379 9.2714
v -110.7500 110.6379 9.2714
v -89.3248 105.4072 12.9707
v -87.0782 108.3580 9.8910
v -106.5808 117.0557 8.8662
v -100.8326 119.9084 10.3980
v -93.5719 118.5269 8.9780
v -87.7593 114.1778 9.2714
v -105.1897 121.0238 5.9293
v -100.8326 121.0346 6.3980
v -96.7314 120.8785 6.1156
v 29.9987 -48.0026 18.6620
v 34.3871 -49.4138 16.5058
v 43.1430 -49.4247 17.2998
v 48.0220 -48.0208 14.6520
v 6.3793 -40.0760 17.2714
v 11.1674 -41.4864 17.2714
v 19.1674 -42.5346 17.2714
v 27.2662 -45.5156 16.5058
v 31.2002 -47.1710 13.3287
v 44.9042 -43.2159 18.6274
v 47.9155 -43.2159 14.6274
v 4.2600 -35.2159 17.2714
v 22.8793 -32.0839 20.9892
v 27.1674 -31.9649 20.9729
v 35.3281 -31.6749 18.2612
v 42.3813 -35.4692 17.1995
v 47.3102 -38.9351 13.6988
v 5.4673 -26.8343 16.5066
v 8.5171 -23.9133 18.6634
v 21.3641 -27.2159 19.5450
v 26.8972 -27.1239 16.6208
v 35.3281 -30.4435 18.2612
v 39.2387 -31.1578 20.7002
v 7.1596 -23.2102 13.3300
v 11.1772 -22.2653 16.5066
v 18.6977 -21.9943 16.8596
v 24.0504 -22.7586 13.9184
v -113.6848 80.6155 13.4354
v -112.3639 80.6155 13.4354
v -136.8837 88.6890 13.3322
v -132.8326 88.1520 13.7560
v -124.8326 86.7891 14.6722
v -116.5439 84.4367 15.0879
v -109.3514 84.7337 15.1842
v -100.8326 87.6542 14.4018
v -96.7834 88.6951 13.3358
v -137.0724 92.7841 13.5401
v -132.8326 92.7841 14.2623
v -124.8326 92.7841 15.9386
v -116.8326 92.7841 17.5473
v -108.8326 92.7841 18.6586
v -100.8326 92.7841 17.0611
v -96.1806 92.7841 14.0049
v -137.1013 97.1801 13.5689
v -132.8326 97.5421 13.7778
v -124.8326 98.1640 14.5379
v -116.7285 100.7193 16.1231
v -108.8326 100.7841 18.8982
v -100.6546 101.0899 19.4560
v -94.7222 101.0899 17.0196
v -113.9925 105.9339 15.1864
v -108.8505 108.6740 15.9392
v -101.7900 108.7841 19.1699
v -91.8434 108.3580 16.8823
v -88.3659 110.7405 13.9562
v -106.1958 114.5702 14.3743
v -100.1765 115.3837 17.1331
v -93.4617 114.7337 16.8823
v -88.3659 113.4867 13.9562
v -16.9713 -47.3755 29.1734
v -12.8326 -47.4441 29.1244
v -8.6713 -47.3606 29.1735
v 23.0455 -47.2719 29.1596
v 27.2662 -48.6079 26.0044
v 35.6722 -49.5975 25.7192
v 40.4601 -48.9214 23.3510
v -16.9713 -46.7354 29.1734
v -12.8326 -46.6507 29.1244
v -8.6713 -46.9427 29.1735
v 6.7326 -39.7299 22.7324
v 11.4972 -40.2975 25.3480
v 19.8943 -43.5544 26.0044
v 24.6653 -45.1581 23.8263
v 38.3329 -43.2159 28.0765
v 40.9042 -43.2159 24.0765
v 6.2300 -34.5993 25.3480
v 9.0504 -36.8548 28.0657
v 22.7194 -32.0642 25.2714
v 27.1674 -33.5357 25.2714
v 35.3288 -34.8635 24.8163
v 39.9882 -35.2159 22.5887
v 6.3218 -29.6655 25.2714
v 11.1772 -26.2739 24.7425
v 18.3393 -27.5142 24.7425
v 37.4441 -31.1578 21.3673
v 39.2387 -31.1578 21.3673
v 13.8504 -22.8546 21.7233
v 15.7178 -22.8546 21.7233
v -97.8693 103.9603 21.6943
v -96.3098 103.9603 21.6943
v -97.7900 108.7841 21.6744
v -96.2269 108.7841 21.6744
v -97.0725 112.9511 21.3859
v -96.5479 112.9511 21.3859
v -17.8667 -48.4564 33.2714
v -12.8326 -48.9590 33.2714
v -5.5358 -47.8107 33.8179
v 1.3688 -47.5372 36.8489
v 13.4659 -47.4226 36.8406
v 19.8943 -48.7285 33.8129
v 27.1674 -51.5016 33.2714
v 35.6722 -49.3854 33.4570
v 39.2732 -47.4318 36.2474
v -17.9341 -43.7276 33.3304
v -12.8326 -42.6507 31.4444
v -5.5358 -43.8520 32.5748
v 3.6883 -43.8516 35.5169
v 11.2582 -43.3477 33.5739
v 17.7121 -45.0867 31.5073
v 38.1492 -43.5394 33.4570
v 39.2732 -46.4218 36.2474
v -17.2897 -38.7436 36.0364
v -12.8326 -38.2051 35.4444
v -4.8326 -37.2207 35.7176
v 3.8560 -34.4763 33.3539
v 9.0504 -36.8548 30.3072
v 22.5141 -31.7605 33.2714
v 26.8664 -32.7505 33.7805
v 33.9789 -35.5147 33.7805
v 6.2003 -30.8446 33.2714
v 11.1674 -29.7679 33.2714
v 18.5141 -30.1391 33.2714
v 29.3324 -30.9201 36.7865
v 31.7249 -30.9201 36.7865
v -18.0726 -48.7103 38.3281
v -12.8326 -48.7307 38.5856
v -4.4384 -47.9404 40.8887
v 3.6883 -47.9462 40.6756
v 10.9465 -48.3925 40.6756
v 19.1674 -51.2769 41.2714
v 27.3053 -50.7627 41.4975
v 35.1674 -48.8198 38.6573
v 39.2732 -47.4318 37.4091
v -18.1054 -43.2159 38.4414
v -12.8326 -43.2159 40.2098
v -5.9102 -43.2159 43.0398
v 6.7022 -46.9420 37.6117
v 8.1326 -46.9420 37.6117
v 30.0640 -45.7480 44.3149
v 35.2372 -43.4182 40.8620
v 39.2732 -46.4218 37.4091
v -17.2897 -38.7436 37.7747
v -12.8326 -38.2051 38.8956
v -4.4888 -37.2209 41.4688
v 1.9970 -33.3788 41.2714
v 21.7090 -32.4392 41.2714
v 26.8664 -33.3424 40.8432
v 33.1856 -35.5638 40.8432
v 5.9970 -30.8495 41.2714
v 11.1674 -30.0279 41.2714
v 17.7090 -30.3942 41.2714
v 29.3324 -30.9201 37.8910
v 31.7249 -30.9201 37.8910
v -1.5090 -47.5767 45.7589
v 3.1674 -47.8877 46.5599
v 11.1674 -48.5316 46.8868
v 19.1674 -49.4281 46.6678
v 24.7306 -48.9462 46.2099
v -1.9102 -43.2159 45.8131
v 3.9130 -42.5973 49.6431
v 11.1674 -44.4662 50.8868
v 19.1674 -44.5494 50.6678
v 26.7630 -42.6886 48.6405
v 31.8913 -40.4146 45.7378
v -1.5929 -38.5512 45.5063
v 4.2896 -36.1424 48.1420
v 11.1674 -33.7986 50.3997
v 19.1379 -33.5858 49.2704
v 26.5443 -37.3783 48.7513
v 31.8913 -38.4624 45.7378
v 6.8358 -31.1244 45.4443
v 11.1674 -30.7753 46.3997
v 16.4515 -30.7199 46.6030
v 7.0767 -39.5183 53.3561
v 11.1674 -40.4662 54.3262
v 19.1674 -40.5494 54.4525
v 23.4621 -39.6293 53.5246
v 7.0767 -39.0670 53.3561
v 11.1674 -37.7986 54.3262
v 19.1674 -37.3024 54.4525
v 23.4621 -38.4055 53.5246
f 5 1 4
f 5 2 1
f 6 2 5
f 6 3 2
f 2 7 1
f 2 8 7
f 3 8 2
f 3 9 8
f 7 4 1
f 7 10 4
f 5 4 10
f 5 10 11
f 10 7 8
f 10 8 11
f 9 3 6
f 9 6 12
f 6 5 11
f 6 11 12
f 19 13 18
f 19 14 13
f 19 15 14
f 19 20 15
f 9 22 8
f 9 23 22
f 24 16 23
f 24 17 16
f 25 17 24
f 25 18 17
f 26 18 25
f 26 19 18
f 26 20 19
f 26 27 20
f 30 8 22
f 30 11 8
f 30 21 29
f 30 22 21
f 31 23 9
f 31 9 12
f 12 11 30
f 12 30 31
f 32 23 31
f 32 24 23
f 32 25 24
f 32 33 25
f 33 26 25
f 33 34 26
f 35 26 34
f 35 27 26
f 35 28 27
f 35 36 28
f 41 38 37
f 41 42 38
f 45 39 44
f 45 40 39
f 46 13 14
f 46 45 13
f 46 40 45
f 46 41 40
f 15 46 14
f 15 47 46
f 46 42 41
f 46 47 42
f 47 43 42
f 47 48 43
f 51 16 17
f 51 50 16
f 52 13 45
f 52 18 13
f 52 17 18
f 52 51 17
f 52 44 51
f 52 45 44
f 53 47 15
f 53 15 20
f 54 47 53
f 54 48 47
f 22 55 21
f 22 56 55
f 57 16 50
f 57 23 16
f 23 56 22
f 23 57 56
f 57 49 56
f 57 50 49
f 59 53 20
f 59 20 27
f 28 59 27
f 28 60 59
f 59 54 53
f 59 60 54
f 55 29 21
f 55 62 29
f 30 29 62
f 30 62 63
f 63 62 55
f 63 55 56
f 31 30 63
f 31 63 64
f 32 31 64
f 32 64 65
f 64 57 58
f 64 58 65
f 33 32 65
f 33 65 66
f 34 33 66
f 34 66 67
f 35 34 67
f 35 67 68
f 69 60 28
f 69 28 36
f 36 35 68
f 36 68 69
f 69 61 60
f 69 70 61
f 73 72 71
f 73 74 72
f 76 74 73
f 76 77 74
f 77 75 74
f 77 78 75
f 79 77 76
f 79 80 77
f 81 77 80
f 81 78 77
f 85 37 38
f 85 84 37
f 89 39 40
f 89 88 39
f 89 82 88
f 89 83 82
f 90 37 84
f 90 41 37
f 90 40 41
f 90 89 40
f 90 83 89
f 90 84 83
f 91 85 38
f 91 38 42
f 43 91 42
f 43 92 91
f 93 86 92
f 93 87 86
f 96 39 88
f 96 44 39
f 97 92 43
f 97 43 48
f 97 93 92
f 97 98 93
f 100 94 99
f 100 95 94
f 102 49 50
f 102 101 49
f 103 44 96
f 103 51 44
f 51 102 50
f 51 103 102
f 97 48 54
f 97 54 104
f 105 97 104
f 105 98 97
f 106 98 105
f 106 99 98
f 106 100 99
f 106 107 100
f 108 49 101
f 108 56 49
f 109 108 101
f 109 101 102
f 58 57 109
f 58 109 110
f 110 109 102
f 110 102 103
f 111 104 54
f 111 54 60
f 61 111 60
f 61 112 111
f 113 105 112
f 113 106 105
f 114 106 113
f 114 107 106
f 115 56 108
f 115 63 56
f 116 109 57
f 116 57 64
f 64 63 115
f 64 115 116
f 116 115 108
f 116 108 109
f 117 58 110
f 117 65 58
f 66 65 117
f 66 117 118
f 119 67 66
f 119 66 118
f 120 68 67
f 120 67 119
f 121 69 68
f 121 68 120
f 122 112 61
f 122 61 70
f 70 69 121
f 70 121 122
f 123 119 118
f 123 124 119
f 124 120 119
f 124 125 120
f 125 121 120
f 125 126 121
f 127 121 126
f 127 122 121
f 128 126 125
f 128 129 126
f 131 128 130
f 131 129 128
f 72 132 71
f 72 133 132
f 132 73 71
f 132 134 73
f 135 133 72
f 135 72 74
f 134 132 133
f 134 133 135
f 75 135 74
f 75 136 135
f 138 73 134
f 138 76 73
f 136 75 78
f 136 78 139
f 139 137 136
f 139 140 137
f 138 79 76
f 138 141 79
f 80 79 141
f 80 141 142
f 139 78 81
f 139 81 143
f 81 80 142
f 81 142 143
f 144 142 141
f 144 145 142
f 146 142 145
f 146 143 142
f 83 147 82
f 83 148 147
f 149 83 84
f 149 148 83
f 85 149 84
f 85 150 149
f 152 86 87
f 152 151 86
f 153 82 147
f 153 88 82
f 154 153 147
f 154 147 148
f 155 150 85
f 155 85 91
f 156 86 151
f 156 92 86
f 156 91 92
f 156 155 91
f 155 151 150
f 155 156 151
f 152 87 93
f 152 93 157
f 159 94 95
f 159 158 94
f 160 88 153
f 160 96 88
f 161 157 93
f 161 93 98
f 162 94 158
f 162 99 94
f 99 161 98
f 99 162 161
f 161 158 157
f 161 162 158
f 163 159 95
f 163 95 100
f 164 96 160
f 164 103 96
f 105 104 166
f 105 166 167
f 163 100 107
f 163 107 168
f 169 103 164
f 169 110 103
f 169 164 165
f 169 165 170
f 166 104 111
f 166 111 171
f 167 112 105
f 167 172 112
f 112 171 111
f 112 172 171
f 171 167 166
f 171 172 167
f 113 112 172
f 113 172 173
f 168 107 114
f 168 114 174
f 114 113 173
f 114 173 174
f 169 117 110
f 169 176 117
f 118 117 176
f 118 176 177
f 176 169 170
f 176 170 177
f 178 172 112
f 178 112 122
f 178 173 172
f 178 179 173
f 180 173 179
f 180 174 173
f 180 175 174
f 180 181 175
f 177 123 118
f 177 182 123
f 183 124 123
f 183 123 182
f 184 125 124
f 184 124 183
f 178 122 127
f 178 127 186
f 127 126 185
f 127 185 186
f 187 178 186
f 187 179 178
f 184 128 125
f 184 188 128
f 185 126 129
f 185 129 189
f 190 185 189
f 190 186 185
f 191 128 188
f 191 130 128
f 192 189 129
f 192 129 131
f 131 130 191
f 131 191 192
f 192 191 188
f 192 188 189
f 194 134 135
f 194 193 134
f 136 194 135
f 136 195 194
f 137 195 136
f 137 196 195
f 193 138 134
f 193 197 138
f 196 137 140
f 196 140 199
f 140 139 198
f 140 198 199
f 197 141 138
f 197 200 141
f 201 198 139
f 201 139 143
f 200 144 141
f 200 202 144
f 203 145 144
f 203 144 202
f 201 143 146
f 201 146 204
f 146 145 203
f 146 203 204
f 205 203 202
f 205 206 203
f 207 203 206
f 207 204 203
f 149 208 148
f 149 209 208
f 210 149 150
f 210 209 149
f 211 150 151
f 211 210 150
f 212 151 152
f 212 211 151
f 208 154 148
f 208 214 154
f 154 213 153
f 154 214 213
f 215 214 208
f 215 208 209
f 212 152 157
f 212 157 217
f 216 211 212
f 216 212 217
f 218 157 158
f 218 217 157
f 219 158 159
f 219 218 158
f 213 160 153
f 213 220 160
f 221 220 213
f 221 213 214
f 222 217 218
f 222 218 223
f 219 159 163
f 219 163 224
f 223 218 219
f 223 219 224
f 225 160 220
f 225 164 160
f 226 165 164
f 226 164 225
f 227 224 163
f 227 163 168
f 226 170 165
f 226 229 170
f 228 226 225
f 228 229 226
f 230 227 168
f 230 168 174
f 175 230 174
f 175 231 230
f 233 170 229
f 233 177 170
f 232 229 228
f 232 233 229
f 180 179 235
f 180 235 236
f 231 175 181
f 231 181 237
f 237 181 180
f 237 180 236
f 237 236 230
f 237 230 231
f 238 177 233
f 238 182 177
f 183 182 238
f 183 238 239
f 238 233 234
f 238 234 239
f 240 184 183
f 240 183 239
f 235 179 187
f 235 187 242
f 187 186 241
f 187 241 242
f 240 188 184
f 240 244 188
f 243 240 239
f 243 244 240
f 245 189 188
f 245 188 244
f 241 186 190
f 241 190 246
f 190 189 245
f 190 245 246
f 194 249 193
f 194 250 249
f 251 194 195
f 251 250 194
f 252 195 196
f 252 251 195
f 253 248 247
f 253 254 248
f 249 197 193
f 249 255 197
f 256 255 249
f 256 249 250
f 252 196 199
f 252 199 258
f 258 199 198
f 258 198 257
f 257 251 252
f 257 252 258
f 260 197 255
f 260 200 197
f 261 257 198
f 261 198 201
f 262 257 261
f 262 258 257
f 264 200 260
f 264 202 200
f 264 259 263
f 264 260 259
f 265 261 201
f 265 201 204
f 264 205 202
f 264 267 205
f 266 264 263
f 266 267 264
f 268 206 205
f 268 205 267
f 265 204 207
f 265 207 269
f 269 207 206
f 269 206 268
f 210 270 209
f 210 271 270
f 272 210 211
f 272 271 210
f 270 215 209
f 270 275 215
f 215 274 214
f 215 275 274
f 272 211 216
f 272 216 277
f 276 271 272
f 276 272 277
f 278 216 217
f 278 277 216
f 274 221 214
f 274 281 221
f 281 220 221
f 281 280 220
f 281 273 280
f 281 274 273
f 278 217 222
f 278 222 283
f 284 222 223
f 284 283 222
f 224 284 223
f 224 285 284
f 287 220 280
f 287 225 220
f 287 279 286
f 287 280 279
f 289 288 282
f 289 282 283
f 289 283 284
f 289 284 290
f 285 224 227
f 285 227 291
f 290 284 285
f 290 285 291
f 287 228 225
f 287 293 228
f 292 287 286
f 292 293 287
f 294 288 289
f 294 289 295
f 295 289 290
f 295 290 296
f 291 227 230
f 291 230 297
f 296 290 291
f 296 291 297
f 293 232 228
f 293 298 232
f 299 233 232
f 299 232 298
f 234 233 299
f 234 299 300
f 297 230 236
f 297 236 304
f 304 236 235
f 304 235 303
f 300 239 234
f 300 306 239
f 305 300 299
f 305 306 300
f 309 308 301
f 309 301 302
f 310 303 235
f 310 235 242
f 310 242 241
f 310 241 309
f 310 309 302
f 310 302 303
f 306 243 239
f 306 312 243
f 311 306 305
f 311 312 306
f 313 244 243
f 313 243 312
f 312 306 307
f 312 307 313
f 314 245 244
f 314 244 313
f 314 313 307
f 314 307 308
f 315 309 241
f 315 241 246
f 315 246 245
f 315 245 314
f 315 314 308
f 315 308 309
f 323 316 322
f 323 317 316
f 323 318 317
f 323 324 318
f 325 247 248
f 325 324 247
f 324 319 318
f 324 325 319
f 326 319 325
f 326 320 319
f 328 250 251
f 328 327 250
f 329 322 321
f 329 330 322
f 330 323 322
f 330 331 323
f 324 253 247
f 324 332 253
f 332 323 331
f 332 324 323
f 333 325 248
f 333 248 254
f 333 254 253
f 333 253 332
f 334 325 333
f 334 326 325
f 327 256 250
f 327 335 256
f 256 334 255
f 256 335 334
f 336 328 251
f 336 251 257
f 335 327 328
f 335 328 336
f 337 257 258
f 337 336 257
f 338 331 330
f 338 339 331
f 340 333 332
f 340 341 333
f 342 255 334
f 342 260 255
f 342 259 260
f 342 341 259
f 342 333 341
f 342 334 333
f 337 258 262
f 337 262 344
f 344 262 261
f 344 261 343
f 343 336 337
f 343 337 344
f 345 259 341
f 345 263 259
f 343 261 265
f 343 265 347
f 345 266 263
f 345 348 266
f 349 267 266
f 349 266 348
f 350 268 267
f 350 267 349
f 351 347 265
f 351 265 269
f 351 269 268
f 351 268 350
f 351 350 346
f 351 346 347
f 353 270 271
f 353 352 270
f 355 273 274
f 355 354 273
f 352 275 270
f 352 356 275
f 275 355 274
f 275 356 355
f 353 271 276
f 353 276 357
f 357 356 352
f 357 352 353
f 358 276 277
f 358 357 276
f 359 277 278
f 359 358 277
f 362 273 354
f 362 280 273
f 362 279 280
f 362 361 279
f 363 362 354
f 363 354 355
f 364 363 355
f 364 355 356
f 366 359 278
f 366 278 283
f 366 283 282
f 366 282 365
f 366 365 358
f 366 358 359
f 368 279 361
f 368 286 279
f 368 360 367
f 368 361 360
f 371 365 282
f 371 282 288
f 368 292 286
f 368 373 292
f 372 368 367
f 372 373 368
f 374 293 292
f 374 292 373
f 377 376 369
f 377 369 370
f 378 371 288
f 378 288 294
f 377 370 371
f 377 371 378
f 379 294 295
f 379 378 294
f 296 379 295
f 296 380 379
f 381 296 297
f 381 380 296
f 383 372 382
f 383 373 372
f 374 298 293
f 374 384 298
f 383 374 373
f 383 384 374
f 385 299 298
f 385 298 384
f 386 385 375
f 386 375 376
f 387 386 376
f 387 376 377
f 387 377 378
f 387 378 388
f 389 302 301
f 389 301 388
f 388 378 379
f 388 379 389
f 390 303 302
f 390 302 389
f 390 389 379
f 390 379 380
f 381 297 304
f 381 304 391
f 304 303 390
f 304 390 391
f 391 390 380
f 391 380 381
f 392 299 385
f 392 305 299
f 392 385 386
f 392 386 393
f 307 306 393
f 307 393 394
f 394 393 386
f 394 386 387
f 395 388 301
f 395 301 308
f 395 308 307
f 395 307 394
f 395 394 387
f 395 387 388
f 392 311 305
f 392 396 311
f 397 393 306
f 397 306 312
f 397 312 311
f 397 311 396
f 397 396 392
f 397 392 393
f 402 316 317
f 402 401 316
f 318 402 317
f 318 403 402
f 404 318 319
f 404 403 318
f 403 399 398
f 403 404 399
f 320 404 319
f 320 405 404
f 408 316 401
f 408 322 316
f 408 321 322
f 408 407 321
f 408 400 407
f 408 401 400
f 409 405 320
f 409 320 326
f 409 406 405
f 409 410 406
f 411 321 407
f 411 329 321
f 412 330 329
f 412 329 411
f 414 332 331
f 414 331 413
f 415 409 326
f 415 326 334
f 335 415 334
f 335 416 415
f 415 410 409
f 415 416 410
f 417 335 336
f 417 416 335
f 418 330 412
f 418 338 330
f 419 413 331
f 419 331 339
f 339 338 418
f 339 418 419
f 418 412 413
f 418 413 419
f 414 340 332
f 414 420 340
f 421 341 340
f 421 340 420
f 417 336 343
f 417 343 423
f 422 416 417
f 422 417 423
f 421 345 341
f 421 424 345
f 427 423 343
f 427 343 347
f 427 347 346
f 427 346 426
f 428 345 424
f 428 348 345
f 349 348 428
f 349 428 429
f 428 424 425
f 428 425 429
f 430 426 346
f 430 346 350
f 430 350 349
f 430 349 429
f 430 429 425
f 430 425 426
f 433 356 357
f 433 432 356
f 434 357 358
f 434 433 357
f 436 360 361
f 436 435 360
f 437 361 362
f 437 436 361
f 363 437 362
f 363 438 437
f 432 364 356
f 432 439 364
f 439 363 364
f 439 438 363
f 439 431 438
f 439 432 431
f 434 358 365
f 434 365 441
f 440 433 434
f 440 434 441
f 442 360 435
f 442 367 360
f 446 370 369
f 446 369 445
f 447 441 365
f 447 365 371
f 447 371 370
f 447 370 446
f 447 446 440
f 447 440 441
f 442 372 367
f 442 448 372
f 450 443 444
f 450 444 451
f 452 445 369
f 452 369 376
f 376 375 451
f 376 451 452
f 452 451 444
f 452 444 445
f 453 445 452
f 453 446 445
f 454 372 448
f 454 382 372
f 383 382 454
f 383 454 455
f 454 448 449
f 454 449 455
f 456 384 383
f 456 383 455
f 457 451 375
f 457 375 385
f 457 385 384
f 457 384 456
f 457 456 450
f 457 450 451
f 399 458 398
f 399 459 458
f 461 400 401
f 461 460 400
f 402 461 401
f 402 462 461
f 463 398 458
f 463 403 398
f 403 462 402
f 403 463 462
f 464 459 399
f 464 399 404
f 463 458 459
f 463 459 464
f 405 464 404
f 405 465 464
f 406 465 405
f 406 466 465
f 467 400 460
f 467 407 400
f 468 467 460
f 468 460 461
f 469 468 461
f 469 461 462
f 470 469 462
f 470 462 463
f 470 463 464
f 470 464 471
f 471 464 465
f 471 465 472
f 473 466 406
f 473 406 410
f 472 465 466
f 472 466 473
f 474 407 467
f 474 411 407
f 475 412 411
f 475 411 474
f 474 467 468
f 474 468 475
f 476 413 412
f 476 412 475
f 475 468 469
f 475 469 476
f 414 413 476
f 414 476 477
f 476 469 470
f 476 470 477
f 478 477 470
f 478 470 471
f 478 471 472
f 478 472 479
f 473 410 416
f 473 416 480
f 480 479 472
f 480 472 473
f 481 414 477
f 481 420 414
f 421 420 481
f 421 481 482
f 481 477 478
f 481 478 482
f 483 482 478
f 483 478 479
f 480 416 422
f 480 422 484
f 485 422 423
f 485 484 422
f 486 421 482
f 486 424 421
f 425 424 486
f 425 486 487
f 486 482 483
f 486 483 487
f 426 425 487
f 426 487 488
f 485 423 427
f 485 427 489
f 489 427 426
f 489 426 488
f 489 488 484
f 489 484 485
f 495 431 432
f 495 494 431
f 496 432 433
f 496 495 432
f 497 491 490
f 497 498 491
f 499 491 498
f 499 492 491
f 436 500 435
f 436 501 500
f 437 501 436
f 437 502 501
f 503 431 494
f 503 438 431
f 503 437 438
f 503 502 437
f 503 493 502
f 503 494 493
f 496 433 440
f 496 440 505
f 504 495 496
f 504 496 505
f 500 442 435
f 500 506 442
f 507 506 500
f 507 500 501
f 444 443 508
f 444 508 509
f 510 445 444
f 510 444 509
f 511 505 440
f 511 440 446
f 511 510 504
f 511 504 505
f 512 442 506
f 512 448 442
f 449 448 512
f 449 512 513
f 514 508 443
f 514 443 450
f 515 445 510
f 515 452 445
f 511 446 453
f 511 453 516
f 453 452 515
f 453 515 516
f 515 510 511
f 515 511 516
f 517 449 513
f 517 455 449
f 518 514 450
f 518 450 456
f 456 455 517
f 456 517 518
f 518 517 513
f 518 513 514
f 520 479 480
f 520 519 479
f 519 483 479
f 519 521 483
f 520 480 484
f 520 484 522
f 521 519 520
f 521 520 522
f 523 483 521
f 523 487 483
f 524 522 484
f 524 484 488
f 488 487 523
f 488 523 524
f 523 521 522
f 523 522 524
f 526 490 491
f 526 525 490
f 492 526 491
f 492 527 526
f 531 493 494
f 531 530 493
f 532 494 495
f 532 531 494
f 525 497 490
f 525 534 497
f 535 498 497
f 535 497 534
f 527 492 499
f 527 499 536
f 499 498 535
f 499 535 536
f 536 528 527
f 536 537 528
f 539 493 530
f 539 502 493
f 539 501 502
f 539 538 501
f 539 529 538
f 539 530 529
f 532 495 504
f 532 504 540
f 540 533 532
f 540 541 533
f 542 535 534
f 542 543 535
f 543 536 535
f 543 544 536
f 544 537 536
f 544 545 537
f 546 501 538
f 546 507 501
f 546 506 507
f 546 545 506
f 546 537 545
f 546 538 537
f 509 508 547
f 509 547 548
f 549 540 504
f 549 504 510
f 549 510 509
f 549 509 548
f 550 506 545
f 550 512 506
f 551 513 512
f 551 512 550
f 552 547 508
f 552 508 514
f 514 513 551
f 514 551 552
f 554 548 553
f 554 549 548
f 526 555 525
f 526 556 555
f 527 556 526
f 527 557 556
f 528 557 527
f 528 558 557
f 560 529 530
f 560 559 529
f 561 530 531
f 561 560 530
f 562 531 532
f 562 561 531
f 533 562 532
f 533 563 562
f 555 534 525
f 555 564 534
f 564 555 556
f 564 556 565
f 565 556 557
f 565 557 566
f 567 558 528
f 567 528 537
f 568 529 559
f 568 538 529
f 568 537 538
f 568 567 537
f 567 559 558
f 567 568 559
f 569 561 562
f 569 562 570
f 563 533 541
f 563 541 571
f 571 541 540
f 571 540 570
f 571 570 562
f 571 562 563
f 564 542 534
f 564 572 542
f 543 542 572
f 543 572 573
f 572 564 565
f 572 565 573
f 544 543 573
f 544 573 574
f 573 565 566
f 573 566 574
f 575 545 544
f 575 544 574
f 577 548 547
f 577 547 576
f 570 540 549
f 570 549 578
f 579 545 575
f 579 550 545
f 580 551 550
f 580 550 579
f 576 547 552
f 576 552 581
f 581 552 551
f 581 551 580
f 582 548 577
f 582 553 548
f 578 549 554
f 578 554 583
f 554 553 582
f 554 582 583
f 583 582 577
f 583 577 578
f 558 584 557
f 558 585 584
f 586 558 559
f 586 585 558
f 560 586 559
f 560 587 586
f 588 560 561
f 588 587 560
f 584 566 557
f 584 589 566
f 589 584 585
f 589 585 590
f 591 590 585
f 591 585 586
f 592 591 586
f 592 586 587
f 588 561 569
f 588 569 593
f 592 587 588
f 592 588 593
f 594 569 570
f 594 593 569
f 595 566 589
f 595 574 566
f 575 574 595
f 575 595 596
f 595 589 590
f 595 590 596
f 599 577 576
f 599 576 598
f 594 570 578
f 594 578 600
f 600 578 577
f 600 577 599
f 599 593 594
f 599 594 600
f 601 575 596
f 601 579 575
f 580 579 601
f 580 601 602
f 601 596 597
f 601 597 602
f 603 598 576
f 603 576 581
f 603 581 580
f 603 580 602
f 603 602 597
f 603 597 598
f 591 604 590
f 591 605 604
f 606 591 592
f 606 605 591
f 607 592 593
f 607 606 592
f 608 590 604
f 608 596 590
f 597 596 608
f 597 608 609
f 608 604 605
f 608 605 609
f 610 598 597
f 610 597 609
f 609 605 606
f 609 606 610
f 607 593 599
f 607 599 611
f 611 599 598
f 611 598 610
f 611 610 606
f 611 606 607
