# parsimony mesh: dna_segment (source /Users/eranagmon/code/v2e-abund/workspace/studies/ecoli-3d/viz/3d/structures/dna_segment.pdb)
# atoms: 566  voxel: 4 Å  verts: 329  tris: 668
v -8.0630 -10.4505 -19.4847
v -6.7905 -10.4505 -19.4847
v -8.0630 -9.4861 -19.4847
v -5.8485 -8.5021 -19.5122
v -3.3261 -7.5182 -19.5398
v -5.4478 -4.3062 -19.6623
v -1.9664 -4.3192 -19.7657
v 0.6992 -2.9946 -19.6309
v -4.9751 -1.6196 -19.5811
v -2.0390 -0.2942 -19.9437
v 2.0488 -0.4364 -20.2711
v 5.0394 0.8101 -20.1269
v -4.0363 5.3637 -19.4430
v -1.9956 4.1038 -19.6397
v 1.9028 3.9839 -20.2265
v 4.9637 3.6938 -20.0842
v -4.0363 6.0944 -19.4430
v -3.2106 6.0944 -19.4430
v 3.1225 5.9300 -19.5565
v 4.2944 5.9300 -19.5565
v -4.0692 -14.4544 -15.5086
v -1.9267 -14.5226 -15.5379
v 0.2170 -14.4466 -15.4464
v -8.0372 -10.4238 -17.3567
v -5.4299 -11.7179 -17.4069
v -1.9267 -12.3062 -16.9572
v 0.8501 -12.3062 -15.8820
v -8.0372 -9.4680 -17.3567
v -6.1030 -8.6324 -18.1917
v -1.9664 -8.6334 -18.5073
v 1.1737 -8.3062 -16.3336
v -7.1259 -4.3062 -17.3567
v -0.6595 -5.6612 -18.7153
v 1.1955 -4.3192 -17.3719
v -5.7709 -0.2942 -17.4872
v -3.4472 1.0471 -18.9075
v 3.0446 -1.3636 -17.3567
v 5.0978 0.6364 -17.3567
v -4.9201 3.8958 -17.4872
v -1.9956 4.1038 -19.0473
v 0.4559 5.5106 -19.1870
v 5.7697 3.6938 -17.3567
v -4.4018 6.7268 -17.3567
v -1.8971 7.0081 -17.6549
v 1.9028 6.5843 -17.6549
v 4.7452 6.1970 -17.3567
v -4.0692 -14.4544 -15.1644
v -1.9267 -14.5226 -14.9405
v 0.2170 -14.4466 -14.9941
v -8.0072 -10.3851 -13.3567
v -5.6122 -12.1965 -13.6413
v -1.9267 -13.2314 -12.9405
v 1.9245 -12.4156 -13.5461
v 4.7371 -11.0032 -12.0981
v -8.0311 -8.5277 -13.4987
v -7.8278 -7.3420 -14.9268
v 3.1737 -8.3062 -14.5168
v 6.0716 -8.1124 -12.3621
v 8.6646 -6.6500 -11.4855
v -7.9934 -5.9515 -12.2601
v -7.4411 -4.4934 -13.4987
v 3.0066 -4.3062 -13.9664
v 5.7227 -4.0632 -11.9218
v 8.6646 -5.2345 -11.4855
v -7.1136 -0.3062 -13.3567
v 3.2135 -0.5654 -13.0957
v 4.3145 -0.5654 -13.0957
v -8.2677 4.4772 -11.7535
v -7.2168 3.3639 -13.1948
v 2.4118 3.6938 -12.5173
v 4.8793 3.6938 -14.5173
v -8.2677 6.1139 -11.7535
v -5.8410 7.0647 -13.1948
v -1.9267 7.8032 -13.3567
v 1.7773 6.5233 -13.4029
v 4.7481 6.1286 -14.7670
v -8.0230 -10.3990 -11.2030
v -5.5544 -10.6056 -9.6644
v -2.1265 -11.0630 -9.0892
v 1.8957 -11.3530 -9.0892
v 4.9259 -10.9733 -9.3567
v -8.0489 -8.3062 -10.7695
v -6.6487 -8.3062 -8.7695
v -0.9264 -9.9259 -7.5776
v 0.4440 -9.9259 -7.5776
v 6.9259 -9.0319 -9.3567
v 9.0479 -7.0319 -9.3567
v -8.1908 -4.6223 -9.3995
v -7.5282 -4.6223 -9.3995
v 6.8224 -2.5678 -11.1855
v 9.1847 -4.0632 -9.6540
v -8.8844 -0.3062 -8.7665
v -7.5947 -0.3062 -10.7665
v 3.0179 0.3681 -10.8262
v 5.7227 -0.7016 -10.5648
v 10.0051 -0.0195 -8.5403
v 12.1239 1.5050 -7.4520
v -8.9072 3.3639 -9.6557
v -7.8643 1.8105 -11.1884
v 2.4118 3.6938 -10.4549
v 6.1878 3.8311 -8.6643
v 10.0733 2.4778 -7.9645
v 12.1239 1.8436 -7.4520
v -8.5408 6.3866 -9.3567
v -5.9267 7.3144 -9.3567
v -1.9267 7.0789 -9.3567
v 1.7773 6.8245 -9.3536
v 4.9308 6.9686 -8.0181
v -3.9728 -10.3339 -7.3147
v -3.5930 -10.3339 -7.3147
v 3.1107 -10.4986 -6.5576
v 4.5463 -10.4986 -6.5576
v -8.5459 -6.9755 -4.5189
v -5.7414 -8.0819 -5.9168
v -2.1075 -8.2238 -5.6438
v 1.8957 -8.4780 -5.6940
v 5.7763 -7.9858 -4.9964
v 8.6520 -6.8256 -5.3567
v -8.9095 -4.4983 -5.6540
v -7.5100 -5.9597 -7.1855
v -0.6219 -5.8511 -3.9729
v 2.0733 -5.9372 -3.8777
v 5.9925 -4.8247 -3.7119
v 8.8680 -4.5506 -5.3359
v -10.1301 -0.3062 -5.3567
v 7.0578 -0.3062 -4.2281
v 10.0051 -0.0195 -6.4074
v 12.1239 1.5050 -7.2793
v -9.3649 3.9435 -5.1899
v -7.5899 5.4433 -3.7453
v 6.5756 3.8311 -5.2746
v 10.0733 2.4778 -6.6961
v 12.1239 1.8436 -7.2793
v -8.4045 6.1974 -6.4120
v -6.1246 6.8765 -5.1899
v -2.2102 8.4595 -5.2976
v 2.0733 9.0063 -6.7402
v 5.0585 8.0587 -5.7226
v -1.0658 10.2428 -3.9248
v 2.0733 10.7329 -4.7402
v 4.6186 10.5303 -4.6332
v -4.1232 -10.3820 0.5209
v -3.3127 -10.3820 0.5209
v -8.6081 -7.0770 -1.3567
v -5.6446 -8.6521 -1.0301
v -1.9673 -8.1899 -1.1026
v 1.0070 -7.1915 -0.0594
v 7.0062 -6.3749 -3.2993
v 8.1367 -6.3749 -3.2993
v -11.9453 -2.3407 0.5787
v -10.4062 -3.9269 -0.9954
v -0.6219 -5.8511 -2.7260
v 2.2335 -5.8323 -1.3783
v 5.8715 -4.9087 -2.1893
v 8.1367 -6.0469 -3.2993
v -12.1396 -0.3062 0.0156
v -11.1725 -0.3062 -1.9844
v 5.8402 -0.3062 -1.3567
v -12.1456 3.6938 0.0185
v -10.1890 3.9435 -2.0627
v -7.5899 5.4433 -3.0337
v 5.2093 3.6938 -1.3567
v -11.9533 5.7344 0.5826
v -9.6154 7.3182 -0.1131
v -6.1246 7.9649 -2.1566
v -2.2330 9.3498 -1.2777
v 2.0733 9.3296 0.3586
v 4.6534 8.0864 -0.9592
v -8.0745 9.7753 0.4536
v -5.9267 9.8365 -0.0989
v -2.2330 10.0227 -1.2777
v 2.0733 10.7329 -1.6414
v 4.6186 10.5303 -2.0276
v -4.1232 -10.3820 0.9344
v -1.9711 -10.5349 2.2735
v 2.0733 -10.6886 3.7568
v 4.1567 -10.4343 4.4920
v -8.5344 -7.0036 2.6433
v -5.6446 -9.0048 2.4180
v -1.9711 -9.8661 2.2735
v 2.2335 -8.4374 1.6884
v 4.5383 -8.3062 3.7227
v -12.0291 -2.4722 2.6433
v -10.5344 -4.4722 2.6433
v 3.6737 -6.0084 0.9005
v 5.0230 -4.5275 2.3976
v -12.4237 -0.3062 2.6433
v 5.9712 -0.3062 2.6433
v -12.2583 3.7246 2.3335
v -11.4436 5.0784 3.4603
v 5.7914 3.6938 2.6433
v -11.9533 5.7344 0.7936
v -9.7590 7.3275 2.1664
v -5.9267 8.7068 3.1495
v -2.0108 8.6726 2.5107
v 2.0733 8.2021 2.6433
v 4.6783 7.0716 2.6433
v -8.0745 9.7753 0.8726
v -5.9267 9.8365 1.1495
v -3.4001 9.8027 1.0890
v -0.6295 -10.6879 5.7586
v 2.0733 -10.6886 5.6830
v 4.1567 -10.4343 4.9143
v -8.4477 -6.8776 5.0468
v -5.5661 -7.3896 6.4854
v -1.9484 -9.3522 6.9125
v 2.0733 -9.7948 7.6830
v 5.7166 -8.1626 6.6847
v 8.2648 -6.5434 8.4552
v -12.0447 -2.4929 4.7995
v -9.8393 -4.0182 5.5652
v -6.4096 -4.3062 7.6785
v 6.9925 -4.3062 5.8686
v 9.0682 -4.3062 7.8686
v -12.2108 -0.3062 5.0516
v -9.9667 -0.5851 7.1559
v -7.1716 -2.1044 8.2867
v 7.1887 -0.3062 5.5667
v 9.9045 -0.3062 7.5667
v -12.1875 2.4117 5.0314
v -10.6637 3.7246 6.4762
v 7.1402 3.6938 5.8314
v 9.6364 3.6938 7.8314
v -8.7979 6.3037 6.6433
v -5.9267 7.2569 6.6433
v -1.9267 8.1185 6.6433
v 1.6900 8.7807 6.7764
v 5.9553 7.4956 6.8416
v 8.8507 6.1145 8.1514
v 2.7679 10.2813 8.1985
v 4.5464 10.2813 8.1985
v -3.9924 -6.6392 8.7600
v -1.9267 -7.4378 9.2250
v 2.0733 -7.7948 9.5521
v 6.0733 -7.0908 9.2270
v 8.2648 -6.5434 8.8688
v -8.1509 -2.4216 12.0353
v -5.5820 -3.7636 10.3976
v -1.9477 -3.9859 11.4095
v 2.0733 -4.3062 11.2608
v 6.0733 -4.3062 10.9482
v 9.0682 -4.3062 9.7010
v -8.9275 -0.5851 10.6785
v -7.1716 -2.1044 9.3686
v -0.6284 -2.1241 12.4781
v 2.0733 -2.0158 12.3520
v 6.0733 -2.0428 12.3645
v 10.1337 -0.6185 10.9542
v -8.9799 3.6757 10.4684
v -6.9724 4.9970 11.6852
v 11.1943 3.6938 10.6433
v -8.2382 5.9469 9.0185
v -5.4733 7.3939 10.7688
v -1.9267 9.0402 9.5666
v 0.1012 9.6752 8.6653
v 7.2131 8.7812 9.4103
v 10.3377 7.8402 11.0122
v 12.0904 9.5659 12.6141
v -3.9742 9.7284 12.5190
v -1.9267 9.9886 11.5666
v 1.6900 10.8130 10.2565
v 5.9571 11.0727 10.7035
v 10.0733 10.3190 12.1967
v 12.0904 9.7362 12.6141
v -8.2266 -2.6469 14.6433
v -5.9267 -3.5467 14.6433
v -1.9477 -3.3333 14.3515
v 0.6562 -2.8183 15.4903
v -8.5929 -0.4478 14.6529
v -7.3330 0.7911 15.9926
v -0.6284 -2.1241 12.8236
v 2.0230 -1.5824 14.3515
v 5.8860 -0.0040 14.5267
v 9.0657 0.5066 13.1156
v -8.6372 2.3303 13.3260
v -6.4820 3.6757 14.6529
v 7.0418 3.6938 15.6586
v 9.6312 3.6938 13.6586
v -4.4668 7.9792 14.7295
v -3.8352 9.5028 16.1202
v 7.5649 7.6938 16.0129
v 10.3242 8.0171 13.7507
v 12.0904 9.5659 12.6628
v -3.9742 9.7284 13.4536
v -2.2718 10.2366 14.7295
v 2.0547 12.3675 14.4081
v 6.2842 11.8825 14.5863
v 10.0733 10.3190 13.3664
v 12.0904 9.7362 12.6628
v 3.3756 14.2423 15.5847
v 4.7765 14.2423 15.5847
v -0.1151 -6.3680 20.5041
v 0.2187 -6.3680 20.5041
v -8.1024 -2.6450 17.2724
v -5.8443 -3.3506 18.6208
v -1.6398 -5.0545 18.9598
v 1.7708 -4.1817 18.9260
v 4.4665 -2.8785 20.0146
v -8.1024 -1.8756 17.2724
v -6.4150 -0.4478 18.6208
v 3.3229 -1.4871 17.3479
v 4.6822 -0.2147 18.6661
v -4.7815 3.5644 18.4907
v -1.9267 4.7160 19.7413
v 2.0733 4.7757 20.0528
v 5.0084 3.6121 18.7399
v -4.4003 6.8361 17.0556
v -2.2718 7.9792 17.8189
v 2.0733 7.6938 18.8137
v 5.5649 7.6938 17.6534
v -1.1685 10.2053 17.1386
v 2.0547 11.6007 17.6529
v 5.3896 11.6938 17.5338
v 3.3756 14.2423 17.3114
v 4.7765 14.2423 17.3114
v -0.1151 -6.3680 20.7677
v 0.2187 -6.3680 20.7677
v -4.4560 -2.6410 20.8708
v -1.6398 -4.1071 21.2770
v 1.7605 -4.2496 21.8524
v 4.4665 -2.8785 21.8296
v -4.4823 -0.3062 20.9787
v -1.9267 -0.3062 21.7997
v 2.0733 -0.3062 22.6413
v 4.5685 -0.3062 21.8203
v -4.1383 2.1448 20.8631
v -1.9267 2.7160 21.1008
v 2.0733 2.7757 21.2233
v 4.3403 2.2243 21.0263
f 3 2 1
f 3 4 2
f 6 5 4
f 6 7 5
f 9 7 6
f 9 10 7
f 10 8 7
f 10 11 8
f 15 10 14
f 15 11 10
f 15 12 11
f 15 16 12
f 18 13 17
f 18 14 13
f 19 16 15
f 19 20 16
f 2 24 1
f 2 25 24
f 26 21 25
f 26 22 21
f 26 23 22
f 26 27 23
f 24 3 1
f 24 28 3
f 29 25 2
f 29 2 4
f 29 4 3
f 29 3 28
f 5 29 4
f 5 30 29
f 30 25 29
f 30 26 25
f 31 26 30
f 31 27 26
f 29 6 4
f 29 32 6
f 33 30 5
f 33 5 7
f 8 33 7
f 8 34 33
f 33 31 30
f 33 34 31
f 32 9 6
f 32 35 9
f 36 10 9
f 36 9 35
f 37 34 8
f 37 8 11
f 12 37 11
f 12 38 37
f 36 14 10
f 36 40 14
f 40 13 14
f 40 39 13
f 39 36 35
f 39 40 36
f 41 15 14
f 41 14 40
f 42 38 12
f 42 12 16
f 43 13 39
f 43 17 13
f 40 14 18
f 40 18 44
f 18 17 43
f 18 43 44
f 41 19 15
f 41 45 19
f 44 41 40
f 44 45 41
f 42 16 20
f 42 20 46
f 46 20 19
f 46 19 45
f 22 47 21
f 22 48 47
f 23 48 22
f 23 49 48
f 51 21 47
f 51 25 21
f 51 24 25
f 51 50 24
f 52 51 47
f 52 47 48
f 49 23 27
f 49 27 53
f 52 48 49
f 52 49 53
f 50 28 24
f 50 55 28
f 56 29 28
f 56 28 55
f 57 53 27
f 57 27 31
f 57 54 53
f 57 58 54
f 56 32 29
f 56 61 32
f 60 56 55
f 60 61 56
f 62 57 31
f 62 31 34
f 62 58 57
f 62 63 58
f 63 59 58
f 63 64 59
f 65 32 61
f 65 35 32
f 62 34 37
f 62 37 66
f 67 37 38
f 67 66 37
f 67 62 66
f 67 63 62
f 69 35 65
f 69 39 35
f 71 67 38
f 71 38 42
f 70 66 67
f 70 67 71
f 73 39 69
f 73 43 39
f 72 69 68
f 72 73 69
f 74 44 43
f 74 43 73
f 75 45 44
f 75 44 74
f 76 71 42
f 76 42 46
f 76 46 45
f 76 45 75
f 76 75 70
f 76 70 71
f 51 77 50
f 51 78 77
f 52 78 51
f 52 79 78
f 80 52 53
f 80 79 52
f 54 80 53
f 54 81 80
f 77 55 50
f 77 82 55
f 83 82 77
f 83 77 78
f 85 84 79
f 85 79 80
f 86 81 54
f 86 54 58
f 59 86 58
f 59 87 86
f 82 60 55
f 82 88 60
f 89 61 60
f 89 60 88
f 89 88 82
f 89 82 83
f 87 59 64
f 87 64 91
f 64 63 90
f 64 90 91
f 93 61 89
f 93 65 61
f 93 88 92
f 93 89 88
f 95 90 63
f 95 63 67
f 67 66 94
f 67 94 95
f 96 90 95
f 96 91 90
f 99 65 93
f 99 69 65
f 99 68 69
f 99 98 68
f 99 92 98
f 99 93 92
f 94 66 70
f 94 70 100
f 101 94 100
f 101 95 94
f 101 96 95
f 101 102 96
f 102 97 96
f 102 103 97
f 104 68 98
f 104 72 68
f 105 73 72
f 105 72 104
f 106 74 73
f 106 73 105
f 100 70 75
f 100 75 107
f 75 74 106
f 75 106 107
f 108 100 107
f 108 101 100
f 79 109 78
f 79 110 109
f 81 111 80
f 81 112 111
f 109 83 78
f 109 114 83
f 110 79 84
f 110 84 115
f 115 114 109
f 115 109 110
f 111 85 80
f 111 116 85
f 85 115 84
f 85 116 115
f 112 81 86
f 112 86 117
f 116 111 112
f 116 112 117
f 118 86 87
f 118 117 86
f 120 83 114
f 120 89 83
f 120 88 89
f 120 119 88
f 120 113 119
f 120 114 113
f 121 115 116
f 121 116 122
f 122 116 117
f 122 117 123
f 124 118 87
f 124 87 91
f 119 92 88
f 119 125 92
f 127 124 91
f 127 91 96
f 126 123 124
f 126 124 127
f 97 127 96
f 97 128 127
f 129 92 125
f 129 98 92
f 132 102 101
f 132 101 131
f 132 131 126
f 132 126 127
f 128 97 103
f 128 103 133
f 133 103 102
f 133 102 132
f 132 127 128
f 132 128 133
f 134 98 129
f 134 104 98
f 105 104 134
f 105 134 135
f 134 129 130
f 134 130 135
f 136 106 105
f 136 105 135
f 137 107 106
f 137 106 136
f 131 101 108
f 131 108 138
f 108 107 137
f 108 137 138
f 139 137 136
f 139 140 137
f 141 137 140
f 141 138 137
f 145 113 114
f 145 144 113
f 115 145 114
f 115 146 145
f 145 143 142
f 145 146 143
f 118 148 117
f 118 149 148
f 151 113 144
f 151 119 113
f 146 115 121
f 146 121 152
f 122 152 121
f 122 153 152
f 152 147 146
f 152 153 147
f 148 123 117
f 148 154 123
f 154 122 123
f 154 153 122
f 155 149 118
f 155 118 124
f 155 124 123
f 155 123 154
f 155 154 148
f 155 148 149
f 151 125 119
f 151 157 125
f 157 150 156
f 157 151 150
f 158 154 123
f 158 123 126
f 160 125 157
f 160 129 125
f 159 157 156
f 159 160 157
f 161 130 129
f 161 129 160
f 162 158 126
f 162 126 131
f 163 160 159
f 163 164 160
f 161 135 130
f 161 165 135
f 164 161 160
f 164 165 161
f 136 135 165
f 136 165 166
f 162 131 138
f 162 138 168
f 169 165 164
f 169 170 165
f 166 139 136
f 166 171 139
f 170 166 165
f 170 171 166
f 172 140 139
f 172 139 171
f 172 171 166
f 172 166 167
f 168 138 141
f 168 141 173
f 173 141 140
f 173 140 172
f 173 172 167
f 173 167 168
f 143 174 142
f 143 175 174
f 179 142 174
f 179 145 142
f 145 178 144
f 145 179 178
f 180 175 143
f 180 143 146
f 180 179 174
f 180 174 175
f 147 180 146
f 147 181 180
f 180 176 175
f 180 181 176
f 182 176 181
f 182 177 176
f 178 151 144
f 178 184 151
f 184 150 151
f 184 183 150
f 185 181 147
f 185 147 153
f 154 185 153
f 154 186 185
f 185 182 181
f 185 186 182
f 187 150 183
f 187 156 150
f 186 154 158
f 186 158 188
f 189 156 187
f 189 159 156
f 191 188 158
f 191 158 162
f 192 159 189
f 192 163 159
f 164 163 192
f 164 192 193
f 192 189 190
f 192 190 193
f 167 166 195
f 167 195 196
f 197 191 162
f 197 162 168
f 197 168 167
f 197 167 196
f 198 164 193
f 198 169 164
f 199 170 169
f 199 169 198
f 198 193 194
f 198 194 199
f 200 195 166
f 200 166 171
f 200 171 170
f 200 170 199
f 200 199 194
f 200 194 195
f 176 201 175
f 176 202 201
f 203 176 177
f 203 202 176
f 179 204 178
f 179 205 204
f 201 180 175
f 201 206 180
f 206 179 180
f 206 205 179
f 207 206 201
f 207 201 202
f 203 177 182
f 203 182 208
f 207 202 203
f 207 203 208
f 204 184 178
f 204 211 184
f 184 210 183
f 184 211 210
f 212 211 204
f 212 204 205
f 213 208 182
f 213 182 186
f 213 209 208
f 213 214 209
f 210 187 183
f 210 215 187
f 216 215 210
f 216 210 211
f 217 216 211
f 217 211 212
f 213 186 188
f 213 188 218
f 218 214 213
f 218 219 214
f 220 187 215
f 220 189 187
f 190 189 220
f 190 220 221
f 220 215 216
f 220 216 221
f 218 188 191
f 218 191 222
f 222 219 218
f 222 223 219
f 224 190 221
f 224 193 190
f 194 193 224
f 194 224 225
f 226 195 194
f 226 194 225
f 227 196 195
f 227 195 226
f 222 191 197
f 222 197 228
f 197 196 227
f 197 227 228
f 229 222 228
f 229 223 222
f 231 227 230
f 231 228 227
f 206 232 205
f 206 233 232
f 207 233 206
f 207 234 233
f 208 234 207
f 208 235 234
f 209 235 208
f 209 236 235
f 232 212 205
f 232 238 212
f 239 238 232
f 239 232 233
f 240 239 233
f 240 233 234
f 240 234 235
f 240 235 241
f 236 209 214
f 236 214 242
f 241 235 236
f 241 236 242
f 244 212 238
f 244 217 212
f 217 243 216
f 217 244 243
f 244 237 243
f 244 238 237
f 245 239 240
f 245 240 246
f 247 246 240
f 247 240 241
f 242 214 219
f 242 219 248
f 247 241 242
f 247 242 248
f 249 216 243
f 249 221 216
f 251 248 219
f 251 219 223
f 252 221 249
f 252 224 221
f 225 224 252
f 225 252 253
f 252 249 250
f 252 250 253
f 254 226 225
f 254 225 253
f 255 227 226
f 255 226 254
f 251 223 229
f 251 229 257
f 229 228 256
f 229 256 257
f 259 254 253
f 259 260 254
f 255 230 227
f 255 261 230
f 260 255 254
f 260 261 255
f 256 228 231
f 256 231 262
f 231 230 261
f 231 261 262
f 263 256 262
f 263 257 256
f 263 258 257
f 263 264 258
f 266 237 238
f 266 265 237
f 239 266 238
f 239 267 266
f 269 237 265
f 269 243 237
f 267 239 245
f 267 245 271
f 246 271 245
f 246 272 271
f 271 268 267
f 271 272 268
f 247 272 246
f 247 273 272
f 274 247 248
f 274 273 247
f 275 243 269
f 275 249 243
f 250 249 275
f 250 275 276
f 275 269 270
f 275 270 276
f 274 248 251
f 274 251 278
f 277 273 274
f 277 274 278
f 279 250 276
f 279 253 250
f 278 251 257
f 278 257 282
f 281 277 278
f 281 278 282
f 258 282 257
f 258 283 282
f 279 259 253
f 279 284 259
f 260 259 284
f 260 284 285
f 284 279 280
f 284 280 285
f 286 261 260
f 286 260 285
f 262 261 286
f 262 286 287
f 263 262 287
f 263 287 288
f 288 287 281
f 288 281 282
f 283 258 264
f 283 264 289
f 289 264 263
f 289 263 288
f 288 282 283
f 288 283 289
f 291 286 290
f 291 287 286
f 266 294 265
f 266 295 294
f 267 295 266
f 267 296 295
f 268 296 267
f 268 297 296
f 296 293 292
f 296 297 293
f 299 265 294
f 299 269 265
f 270 269 299
f 270 299 300
f 299 294 295
f 299 295 300
f 301 297 268
f 301 268 272
f 273 301 272
f 273 302 301
f 301 298 297
f 301 302 298
f 303 270 300
f 303 276 270
f 302 273 277
f 302 277 306
f 307 276 303
f 307 279 276
f 280 279 307
f 280 307 308
f 307 303 304
f 307 304 308
f 309 308 304
f 309 304 305
f 310 306 277
f 310 277 281
f 309 305 306
f 309 306 310
f 311 280 308
f 311 285 280
f 286 285 311
f 286 311 312
f 311 308 309
f 311 309 312
f 313 310 281
f 313 281 287
f 312 309 310
f 312 310 313
f 312 290 286
f 312 314 290
f 313 287 291
f 313 291 315
f 291 290 314
f 291 314 315
f 314 312 313
f 314 313 315
f 293 316 292
f 293 317 316
f 316 296 292
f 316 319 296
f 296 318 295
f 296 319 318
f 320 317 293
f 320 293 297
f 319 316 317
f 319 317 320
f 298 320 297
f 298 321 320
f 318 300 295
f 318 322 300
f 323 322 318
f 323 318 319
f 323 319 320
f 323 320 324
f 325 321 298
f 325 298 302
f 324 320 321
f 324 321 325
f 326 300 322
f 326 303 300
f 304 303 326
f 304 326 327
f 326 322 323
f 326 323 327
f 305 304 327
f 305 327 328
f 328 327 323
f 328 323 324
f 329 325 302
f 329 302 306
f 329 306 305
f 329 305 328
f 329 328 324
f 329 324 325
