# parsimony mesh: eg10762_monomer (source /Users/eranagmon/code/v2e-molecules/workspace/studies/ecoli-3d/viz/3d/structures/eg10762_monomer.pdb)
# atoms: 2897  voxel: 4 Å  verts: 1322  tris: 2684
v 14.4245 30.2014 -56.1220
v 17.0215 29.6736 -56.2242
v 19.1593 30.0232 -56.0566
v 14.4245 32.1899 -56.1220
v 17.0215 31.9966 -56.2242
v 19.1593 31.1321 -56.0566
v 10.5231 18.4628 -52.6400
v 13.0215 18.4191 -52.6763
v 15.1446 18.7559 -52.1412
v 10.1456 20.9897 -52.8488
v 13.0215 20.9897 -53.1857
v 16.6954 21.3545 -52.1226
v 19.1042 22.9311 -51.8755
v 10.3519 24.3030 -52.3712
v 12.6321 25.3777 -52.8356
v 17.0215 24.9897 -53.6136
v 19.4737 24.9897 -52.7572
v 10.7834 29.7037 -52.3476
v 12.7319 28.6192 -53.9240
v 17.5220 28.8481 -54.3159
v 19.3506 28.8853 -54.2248
v 10.7834 31.2934 -52.3476
v 13.0633 32.1286 -53.7363
v 16.9223 32.0318 -53.9893
v 19.1593 31.1321 -55.4359
v 6.7458 10.8537 -48.0021
v 7.3027 10.8537 -48.0021
v 6.4004 12.9897 -48.1612
v 8.7902 13.3413 -48.1396
v 11.1076 14.9091 -47.8973
v 5.7459 16.9897 -48.4420
v 9.1225 17.0736 -49.9642
v 12.7374 17.2760 -49.7267
v 15.1446 18.7559 -51.5561
v 6.0267 20.9897 -48.4205
v 8.1456 20.9897 -50.4205
v 14.3673 19.7808 -48.8894
v 16.6954 20.9395 -50.0614
v 20.6711 22.8375 -49.4710
v 23.1085 22.9440 -47.9055
v 6.6444 24.9897 -48.4419
v 9.0197 25.3777 -50.7004
v 11.0393 26.9697 -51.7910
v 21.4737 24.9897 -50.0390
v 23.2767 24.9897 -48.0390
v 6.6967 27.7209 -48.4049
v 9.2565 28.7123 -50.0980
v 11.0393 27.0370 -51.7910
v 18.1895 30.4140 -50.8173
v 20.6881 28.7840 -49.4217
v 23.2747 27.1540 -48.0260
v 10.3741 31.9507 -49.8193
v 13.0215 32.6520 -49.8193
v 16.9223 31.6080 -49.6181
v 19.1677 31.0851 -48.1507
v 6.7458 10.8537 -47.3690
v 7.3027 10.8537 -47.3690
v 2.4314 14.4590 -44.4425
v 5.2741 12.9924 -45.9057
v 8.7902 12.7235 -45.9491
v 12.6731 14.7122 -45.5930
v 15.1716 14.8406 -44.1087
v -1.6248 18.2059 -44.7006
v 1.0674 16.9194 -45.4131
v 3.7459 16.9897 -47.1506
v 13.5954 16.9897 -46.2927
v 15.2543 16.9897 -44.2927
v -1.6248 20.0071 -44.7006
v 0.8756 21.2001 -45.3224
v 4.0267 20.9897 -47.0372
v 14.3673 19.7808 -46.8277
v 16.5544 21.3106 -45.8144
v 21.0215 22.8434 -47.4297
v 23.1085 22.9440 -47.6515
v 2.1116 23.8872 -44.2913
v 4.5950 25.1282 -45.7025
v 17.9270 23.8367 -44.8010
v 21.0215 24.0681 -45.4297
v 23.6495 24.9443 -46.1186
v 5.8439 29.0284 -45.9222
v 7.7297 30.3875 -47.3242
v 14.7371 30.7084 -44.0725
v 17.0215 30.2788 -44.6865
v 20.7092 29.3745 -45.9611
v 23.7412 27.4706 -45.8193
v 6.2582 32.1243 -44.6575
v 9.0464 32.9092 -45.9222
v 13.2508 32.5529 -45.5712
v 17.0215 31.4669 -46.6865
v 19.1677 31.0851 -47.3890
v 2.9403 10.7952 -39.9400
v 3.3805 10.7952 -39.9400
v 1.8869 13.0713 -41.4917
v 4.8369 11.9378 -41.4917
v 9.0215 12.8309 -41.8193
v 13.0215 13.7008 -41.8193
v 15.5598 14.4428 -41.8193
v -1.6248 18.2059 -42.7316
v -0.1664 16.9194 -41.5667
v 16.1777 16.9897 -41.8193
v -1.6248 20.0071 -42.7316
v 0.2901 21.2001 -41.5667
v 17.2591 21.3701 -41.4363
v 19.0317 22.9570 -39.8476
v 2.1095 25.1282 -41.9992
v 3.4801 26.5539 -43.4525
v 17.9270 23.8367 -42.5142
v 20.7948 25.0420 -41.4378
v 23.7278 26.2473 -43.0281
v 2.5505 27.5732 -40.7859
v 4.8692 29.1065 -41.7961
v 9.0215 30.6040 -40.1300
v 13.1242 30.7669 -41.4161
v 17.0215 30.2788 -42.7943
v 21.0042 28.8949 -41.8572
v 23.7278 27.4667 -43.0281
v 6.2582 32.1243 -42.8063
v 9.0215 32.6558 -42.1300
v 13.1242 31.5599 -41.4161
v 17.0215 31.3120 -40.7943
v 19.4506 31.3659 -40.6862
v 2.8848 10.5992 -37.8193
v 4.8369 9.9937 -38.0267
v 9.0215 9.9904 -36.9644
v 11.2051 10.7967 -36.3337
v 1.3014 12.9897 -37.8193
v 6.0472 11.2310 -39.4983
v 9.0215 11.6032 -38.9644
v 12.8672 12.9880 -37.6367
v 15.5892 14.4096 -38.9397
v -1.4605 18.1782 -36.7743
v -0.3472 16.9028 -37.9923
v 14.3990 16.9897 -36.5446
v 15.9449 16.9897 -38.5446
v -1.4605 20.2387 -36.7743
v 0.0930 21.3391 -37.9923
v 14.6836 19.9655 -36.3327
v 16.7546 21.4613 -38.0677
v 19.0317 22.9570 -39.8028
v 1.1154 24.9897 -37.8193
v 14.4471 25.9752 -36.4509
v 16.7031 24.7810 -37.4302
v 19.6814 24.9897 -39.3592
v 2.1486 27.8508 -37.8193
v 5.0215 29.1407 -37.8193
v 9.0215 29.5258 -37.8193
v 12.9791 29.1538 -38.0932
v 17.0215 28.9897 -38.3545
v 19.9956 28.9897 -38.9437
v 14.1779 31.0432 -39.7355
v 17.0215 31.3120 -39.3285
v 19.4506 31.3659 -39.2488
v 2.3962 10.4419 -33.8193
v 5.0215 9.1773 -33.8193
v 9.2997 9.8622 -33.7115
v 11.2051 10.7967 -34.9729
v -1.2260 14.5921 -32.1953
v 0.3864 13.1511 -33.6449
v 10.8185 11.1710 -32.3063
v 12.0145 12.6985 -33.7115
v -5.1972 18.6755 -32.0353
v -2.6766 17.0935 -33.4486
v -0.5366 15.5115 -34.8619
v 13.5514 16.9897 -33.8193
v -5.1972 19.2063 -32.0353
v -2.7126 21.0558 -33.8550
v -0.8835 22.9053 -35.6747
v 14.4478 20.2216 -33.8193
v 15.3612 22.2216 -33.8193
v -1.2981 23.4099 -33.0080
v -0.0944 24.8418 -34.1325
v 14.3196 25.7344 -33.8193
v 15.3612 23.7344 -33.8193
v 2.0553 27.9967 -33.8193
v 5.0215 29.0314 -33.8193
v 9.0215 29.0173 -33.8193
v 12.3196 27.9825 -33.8193
v -2.1819 9.7853 -28.6606
v 0.9819 9.6127 -29.9241
v 5.0215 9.0975 -29.8193
v 9.2997 10.0389 -29.7429
v 11.0797 10.8374 -28.3586
v -5.3977 13.8081 -28.3999
v -3.0373 12.8668 -29.8636
v -0.3778 11.9254 -31.3272
v 10.8185 11.1710 -31.0252
v 11.8664 12.6985 -29.7429
v -5.9362 17.2012 -29.7677
v -3.8927 16.0089 -31.0666
v 13.2906 16.9897 -29.8193
v -6.0458 20.7196 -29.7161
v -3.9648 21.8729 -30.9807
v 13.8589 20.9897 -30.0391
v 15.3383 22.3231 -31.5190
v -5.5802 23.3580 -28.3140
v -2.7703 24.0789 -29.7161
v -0.1414 26.0750 -29.8193
v 10.1485 26.2426 -28.3596
v 13.0341 24.9532 -29.9393
v 15.3383 23.6637 -31.5190
v 1.8586 28.3093 -29.8193
v 5.0215 29.1331 -29.8193
v 8.8977 28.1475 -29.7435
v 11.9933 27.8210 -31.0263
v 5.9603 2.5992 -24.0962
v 7.4798 2.5992 -24.0962
v -5.2285 6.1297 -24.3093
v -2.9785 5.6031 -25.1244
v 1.0215 5.6819 -24.9490
v 4.7847 4.9367 -24.6669
v 8.8965 5.3692 -24.5401
v 11.1058 6.9555 -23.8640
v -6.0106 8.9897 -25.1038
v -3.3005 8.6670 -27.1970
v 1.0215 7.5716 -26.9490
v 5.0215 7.8107 -26.6712
v 9.0215 8.2113 -26.5126
v 11.3797 9.2983 -25.4461
v -5.9449 12.6808 -26.1529
v -3.2334 12.9875 -25.7976
v -0.8793 14.8336 -23.8865
v 12.0770 12.9897 -25.8193
v -6.8383 16.9897 -25.8193
v -1.6183 15.1474 -23.8865
v -0.8793 15.1474 -23.8865
v 11.0192 18.9835 -23.8207
v 12.0197 17.3860 -25.4201
v -7.1232 20.9897 -25.8193
v 10.8564 20.9897 -23.9975
v 11.8885 20.9897 -25.9975
v -5.6268 23.3843 -25.8193
v -2.7783 25.5215 -25.9421
v 1.0365 26.7143 -25.7274
v 5.0215 26.2914 -24.6635
v 9.1427 24.9394 -25.6945
v 11.4083 23.5759 -26.7223
v -1.3114 27.2294 -24.6907
v 1.0365 27.6002 -25.7274
v 5.0215 28.0672 -26.6635
v 7.4818 27.4450 -27.3333
v -5.0030 -1.0454 -19.8775
v -2.9785 -1.2892 -20.5445
v -0.1162 -1.3471 -20.7281
v -5.0030 -0.9335 -19.8775
v -3.0428 0.6358 -21.0156
v 1.1389 0.8853 -21.6355
v 4.7847 2.1637 -22.0742
v 8.8965 2.4105 -21.7628
v 11.4370 2.5603 -20.3917
v -5.2285 6.1297 -23.5265
v -2.4530 4.9600 -21.9556
v 0.3071 5.0050 -21.9774
v 3.2936 3.5680 -23.5774
v 10.4761 5.5452 -21.9885
v 11.2714 5.5452 -21.9885
v -6.0106 8.9897 -23.2952
v -2.9785 8.9897 -22.1970
v 0.0955 8.9897 -20.7211
v 10.8056 7.3341 -20.9186
v 12.6242 8.6025 -21.8008
v 15.1151 9.8708 -20.0163
v -5.8721 12.9897 -23.4808
v -2.9624 13.2960 -23.3196
v 0.9539 13.2469 -21.7899
v 3.3734 14.3269 -20.1420
v 10.5107 14.2447 -20.7098
v 12.6695 12.6830 -21.6964
v 15.1151 11.1212 -20.0163
v -5.8052 16.9897 -23.3245
v -2.8828 16.8957 -22.1561
v 0.6810 15.8557 -21.6129
v 3.3734 15.2876 -20.1420
v 10.2835 17.3860 -21.9536
v 11.1963 16.3168 -23.3764
v -5.9532 20.9897 -23.1940
v -3.5785 20.9897 -21.1940
v 9.6636 20.9897 -21.8193
v -5.2412 23.1475 -23.6000
v -2.6272 24.6777 -22.0131
v 1.2127 26.0353 -21.7834
v 5.0215 25.1651 -21.8193
v 8.2029 23.7717 -21.8193
v -1.3114 27.2294 -23.0928
v 0.0068 27.2294 -23.0928
v -5.0418 -1.0943 -17.8193
v -2.9785 -1.6892 -17.8193
v 1.1389 -1.8752 -18.0155
v 4.1385 -1.6587 -16.8129
v -5.0418 -0.8704 -17.8193
v -3.6540 1.1296 -17.8193
v 2.5505 -0.5176 -19.4795
v 5.5600 1.1633 -17.7429
v 8.6619 2.4838 -17.5315
v 11.6332 2.4665 -17.8193
v -1.6540 3.9102 -17.8193
v 0.2358 5.9102 -17.8193
v 6.9815 3.0253 -16.0063
v 8.9473 4.9135 -17.7396
v 11.6935 5.2768 -18.0114
v 1.8523 8.9897 -17.8193
v 10.8056 7.3341 -19.4728
v 12.8992 8.6025 -18.1147
v 15.1151 9.8708 -19.4232
v 2.6545 12.9920 -17.7189
v 3.3734 14.3269 -18.9853
v 9.9796 13.9240 -17.8193
v 13.0921 11.8161 -17.9817
v 15.1151 11.1212 -19.4232
v -1.4806 18.6441 -19.4396
v 1.8356 16.7868 -17.8354
v 4.3151 16.4896 -17.7731
v 8.1579 16.7662 -17.9044
v -1.5785 20.9897 -19.3788
v 1.0215 20.9897 -18.1995
v 5.0215 20.9897 -17.9358
v 7.8286 20.9897 -19.1151
v -1.2764 23.5412 -19.6117
v 1.0215 23.9800 -19.0459
v 5.0215 23.8634 -18.8911
v 7.4812 23.3858 -19.4053
v 2.5552 -17.3958 -12.8224
v 5.0215 -17.5501 -12.8443
v 9.0215 -17.3730 -12.2101
v 13.0215 -17.4590 -12.0982
v 17.0215 -17.4450 -12.0108
v 19.0948 -17.1410 -11.8604
v 2.3857 -15.0103 -12.7641
v 5.0215 -15.0103 -13.6264
v 9.0215 -15.0103 -13.3463
v 13.0215 -15.0103 -12.9787
v 17.1332 -15.2864 -12.2397
v 19.0948 -16.8038 -11.8604
v -1.3061 -9.5629 -12.1099
v 1.1926 -10.9419 -12.4327
v 5.0215 -11.0103 -12.9777
v 8.6545 -11.0333 -12.7443
v 13.0215 -12.1845 -12.6998
v 15.8744 -12.5375 -12.2646
v -1.3280 -7.0103 -12.1884
v 1.0215 -7.0103 -12.6943
v 4.7720 -7.3775 -12.2400
v 7.0765 -8.9556 -11.8459
v -5.0385 -1.0872 -15.6479
v -2.7396 -2.6103 -13.8344
v 1.0215 -3.8389 -14.1200
v 5.0387 -2.9355 -13.7426
v 7.4571 -1.5457 -12.7997
v -5.0385 -0.9006 -15.6479
v -2.7338 0.7881 -14.2721
v 0.0361 2.4768 -12.8963
v 6.8293 0.9897 -15.5258
v 8.6064 1.3529 -14.2903
v 11.6115 2.5345 -13.8193
v -1.1055 3.1042 -15.5630
v 1.5051 4.7985 -14.1354
v 5.0595 4.7591 -14.2444
v 7.0889 3.0253 -15.7810
v 12.2685 4.9897 -13.8193
v 2.7782 8.9897 -14.8626
v 3.4388 8.9897 -12.8626
v 12.3141 8.9897 -13.8193
v 2.7386 12.9897 -15.0714
v 4.8857 12.8671 -13.4351
v 8.8944 13.2941 -14.0334
v 11.6572 11.5234 -13.8193
v 2.9212 15.2307 -15.6530
v 5.0215 15.3911 -15.4622
v 7.4764 15.2838 -15.5095
v 18.2305 -25.4803 -8.7839
v 19.8624 -25.4803 -8.7839
v 9.6982 -21.3365 -8.2186
v 13.0215 -21.8151 -8.5935
v 16.9469 -23.0584 -9.2326
v 21.1260 -22.9896 -9.0101
v 25.0215 -22.1073 -8.1904
v 27.7256 -21.8408 -8.0520
v -5.8056 -17.5137 -8.4769
v -2.9785 -17.5193 -8.4614
v 1.1417 -17.8157 -9.5384
v 5.0215 -19.1296 -9.8193
v 8.6275 -19.6951 -9.6589
v 13.0215 -19.4590 -10.5935
v 17.0215 -19.4450 -10.8624
v 20.6655 -18.6887 -10.2383
v 25.0215 -19.0103 -8.6452
v 27.9042 -19.0103 -8.1900
v -5.8056 -15.8700 -8.4769
v -3.2586 -14.7261 -8.7410
v 0.3857 -15.0103 -10.4782
v 18.5411 -14.1372 -11.3739
v 20.7277 -15.3343 -9.7690
v 25.0215 -16.4544 -8.2741
v 27.4943 -16.7479 -8.0808
v -2.6139 -10.9419 -9.8273
v -0.0266 -12.2296 -11.1660
v 9.7432 -9.7154 -11.1154
v 13.1105 -10.2691 -9.7970
v 17.1332 -11.8694 -9.9521
v 19.6938 -12.3825 -8.7072
v -2.5657 -7.0103 -9.8193
v 5.9390 -6.2889 -11.0066
v 8.6545 -7.3775 -10.1933
v 11.8477 -7.0103 -8.3963
v -2.0464 -3.0103 -9.8193
v 6.2483 -2.8529 -9.6476
v 8.3510 -2.7714 -9.4463
v 12.6008 -2.8303 -8.0238
v 15.3538 -1.5597 -8.0883
v -1.8817 1.0820 -9.9339
v 0.0361 2.4768 -11.3436
v 6.5576 -0.5502 -8.2885
v 8.8829 -0.0589 -9.7008
v 12.6508 0.8858 -9.4608
v 15.5480 0.9897 -8.2815
v -1.5842 4.2529 -8.6770
v 1.2302 4.7324 -9.9339
v 3.1952 6.2206 -9.8193
v 13.7401 4.9897 -10.3701
v 15.5286 4.9897 -8.3701
v 5.0247 9.1919 -9.7323
v 9.0215 10.5117 -8.9409
v 12.6722 8.9628 -9.8332
v 15.3279 7.2435 -8.2065
v 6.1285 11.4521 -11.0075
v 9.0215 11.3772 -10.9409
v 11.0847 11.0439 -11.4599
v 18.2305 -25.4803 -6.9557
v 21.1447 -25.4371 -5.6727
v 25.0215 -25.7431 -5.0036
v 27.7534 -25.6037 -4.8282
v 5.7678 -21.2127 -5.1353
v 8.6275 -21.5231 -6.2089
v 13.0215 -22.2355 -5.8193
v 16.9469 -23.7076 -5.7012
v 21.1447 -24.4168 -5.6727
v 25.0215 -24.1073 -7.0036
v 28.2953 -23.1086 -6.0246
v -5.8984 -17.6966 -5.8193
v -2.9785 -18.4030 -5.8193
v 1.0215 -19.2656 -5.8193
v 4.6693 -20.6440 -6.2089
v 7.0315 -21.0014 -7.8019
v 28.4278 -19.0103 -5.8193
v -6.1698 -14.7261 -6.0942
v -4.7787 -13.2033 -7.6108
v 22.1425 -14.0071 -5.8193
v 25.0215 -15.8054 -5.8193
v 27.3845 -16.8085 -5.8193
v -9.3547 -9.5482 -4.0502
v -7.0339 -10.9330 -5.3657
v -4.7770 -11.0103 -7.5792
v 14.5032 -9.5427 -6.7899
v 17.0215 -9.9388 -6.4167
v 20.2786 -11.0336 -5.7149
v -9.3547 -8.4189 -4.0502
v -7.1056 -7.0555 -5.1197
v -4.2163 -7.0103 -7.2716
v 13.8477 -7.0103 -6.4147
v 16.8135 -7.1723 -4.5912
v 19.6219 -8.6136 -4.3119
v -6.2529 -3.0103 -4.6446
v -3.4049 -3.0103 -6.6446
v 6.5576 -1.4935 -6.6497
v 9.0215 -1.6907 -6.8079
v 12.6008 -2.8303 -7.3082
v 15.5988 -2.9399 -5.7133
v -5.7941 0.9897 -4.3957
v -3.5697 0.9897 -6.3957
v 6.5576 -0.5502 -6.6497
v 9.0215 -0.5671 -6.8079
v 11.2269 -0.8794 -7.6404
v 16.2575 0.9897 -5.8193
v -5.1906 4.9897 -4.1637
v -2.9419 5.3476 -6.4415
v 0.9200 5.9456 -6.1660
v 4.6908 5.6902 -5.6561
v 7.4754 6.4939 -4.2140
v 16.3868 4.9897 -5.8193
v -4.9946 7.0093 -3.8955
v -2.9785 7.3091 -4.8099
v -0.4810 7.3960 -5.0638
v 5.8037 7.9934 -6.8807
v 8.8938 8.5865 -5.6561
v 13.0215 8.7096 -5.8193
v 15.6324 7.4664 -5.8193
v -21.2295 22.0895 -4.0226
v -18.9785 21.3899 -4.6174
v -14.9785 22.0174 -4.6422
v -12.9350 22.9262 -4.0556
v -21.5753 24.9897 -4.2578
v -18.8611 25.1053 -4.6866
v -14.9785 23.7171 -4.6422
v -12.9350 23.1002 -4.0556
v -21.5233 27.7208 -4.2007
v -20.1161 27.7208 -4.2007
v -1.5273 -25.5750 -0.7504
v 0.2535 -25.5750 -0.7504
v 21.7789 -25.7584 -1.8193
v 25.0215 -26.7395 -1.8193
v 27.9514 -25.9914 -1.8193
v -5.2095 -21.2573 -0.1286
v -2.9078 -22.7585 -1.1826
v 1.3607 -23.3495 -1.7804
v 4.6693 -22.1998 -2.2027
v 9.0215 -22.4046 -1.8193
v 13.0215 -22.4875 -1.8193
v 17.0215 -23.0808 -1.8193
v 19.7789 -24.4350 -1.8193
v 28.7968 -23.0103 -1.8193
v -5.7942 -18.8573 -1.6049
v -2.9785 -19.8941 -2.8250
v 1.0215 -20.5480 -3.5723
v 3.1011 -20.9605 -3.7915
v 28.1449 -19.0103 -1.8193
v -6.8618 -15.0103 -1.8193
v 22.5106 -13.4848 -3.3771
v 25.1062 -14.5132 -1.9540
v 27.2996 -16.5331 -1.8193
v -9.3332 -9.5240 -1.8193
v -8.0154 -11.5240 -1.8193
v 22.1679 -10.7057 -1.9540
v 23.8294 -11.8359 -0.7105
v -9.7516 -7.0555 -2.0241
v -8.5237 -5.7523 -3.4940
v 18.0081 -5.9469 -2.5673
v 20.1854 -7.1723 -1.4681
v -9.6979 -3.0103 -0.8442
v -8.2529 -3.0103 -2.8442
v 7.0079 -1.0244 -0.1507
v 7.0612 -1.0244 -0.1507
v 17.5907 -3.2383 -1.4681
v 19.2064 -4.7236 0.0993
v -9.1221 -0.9281 -0.1778
v -7.4258 0.6390 -1.6344
v -1.1920 2.4373 0.0558
v 1.0215 2.1645 -0.7237
v 5.4133 1.0610 -1.0576
v 7.6586 0.9897 -0.5564
v 16.9521 0.9897 -1.8193
v -5.3430 4.8871 -2.1944
v -2.7066 4.8871 -1.1503
v 0.9200 4.7048 -2.6238
v 5.0215 3.7618 -3.1187
v 8.9867 5.2305 -1.5878
v 13.0215 6.6239 -0.1232
v 16.0936 5.3107 -1.5312
v -13.7999 10.5554 -0.3034
v -12.4658 10.5554 -0.3034
v -4.9946 7.0093 -3.7778
v -2.9785 7.3091 -3.3894
v -0.4810 7.3960 -3.2876
v 10.1420 7.6217 -2.7047
v 13.0215 7.7500 -2.1232
v 15.5296 7.3714 -2.6724
v -13.7999 12.1637 -0.3034
v -12.4658 12.1637 -0.3034
v -21.0955 18.9075 -0.2064
v -18.9785 17.9961 -1.0514
v -14.9785 17.3804 -0.8772
v -12.8648 18.0866 0.0258
v -25.1062 22.7057 0.0289
v -22.4959 21.0643 -1.4221
v -18.9785 19.3899 -3.0514
v -14.3205 20.8939 -2.0564
v -12.8999 21.1611 -1.8015
v -25.2688 24.9897 -0.2535
v -23.5753 24.9897 -2.2535
v -17.4494 26.5158 -3.4381
v -14.7887 24.8080 -2.2001
v -12.9350 23.1002 -3.6287
v -25.2469 28.9897 -0.2365
v -22.9054 29.0283 -2.3013
v -18.8611 29.0283 -2.6497
v -16.1245 28.9897 -0.6721
v -25.0770 31.2280 0.0515
v -22.9785 31.7267 -0.6014
v -18.9785 31.6505 -0.6432
v -16.6842 31.1265 -0.0042
v -1.5273 -25.5750 0.9381
v 1.2921 -25.6541 1.9537
v 5.0215 -26.0361 2.8694
v 9.0215 -25.7204 3.3131
v 11.4560 -25.3123 3.5608
v 18.4546 -25.3113 3.2363
v 20.7840 -25.9818 2.0140
v 25.0215 -27.1595 2.1807
v 27.9353 -26.1708 2.1807
v -5.2630 -21.2946 2.1807
v -2.9078 -23.2779 2.2352
v 1.2921 -24.6598 1.9537
v 5.0215 -24.3454 0.8694
v 9.0215 -24.0082 1.3131
v 12.8822 -23.9152 2.2088
v 17.0814 -24.0771 2.0140
v 19.2924 -24.7292 0.5696
v 28.4213 -23.0103 2.1807
v -6.1445 -19.0103 2.1807
v 28.1919 -19.0103 2.1807
v -6.6181 -15.0103 2.1807
v 26.4961 -13.7139 0.6834
v 27.8856 -15.0325 2.0823
v -9.0752 -9.1573 0.5716
v -7.7340 -10.6985 2.0152
v 22.8427 -9.1693 0.5647
v 25.1062 -10.7057 1.2582
v 27.6720 -11.0103 3.2396
v -10.0014 -7.1709 2.0152
v -8.5602 -8.6114 3.2382
v 22.0261 -7.0103 0.8718
v 24.9510 -7.1816 2.8791
v 27.3612 -8.6292 3.7565
v -10.5912 -3.0103 2.1807
v 6.4387 -1.5837 2.1807
v 8.6453 -1.6431 2.2678
v 11.4046 -1.3005 3.6593
v 18.6737 -2.0569 0.5564
v 20.7324 -3.2383 1.0002
v 23.6687 -3.0103 2.9233
v -9.3852 -0.6437 2.1807
v -7.9095 1.3563 2.1807
v -1.5240 2.1904 2.1807
v 1.0215 1.0457 2.1807
v 4.4387 -0.1550 2.1807
v 9.6586 0.9897 1.6772
v 12.8513 1.2584 3.6603
v 17.1689 1.1825 2.2705
v 21.0215 0.1580 2.8021
v 23.3352 -0.0569 3.3001
v -5.9095 3.9506 2.1807
v -3.5240 3.9506 2.1807
v 10.4979 3.9670 1.3642
v 13.0215 4.6239 1.9212
v 15.6641 4.1913 1.3179
v -17.7544 10.6300 3.5022
v -15.0713 10.4562 2.1736
v -12.5476 10.5926 2.1807
v -20.9958 14.9079 4.1516
v -19.0440 13.3406 2.9987
v -14.7488 13.3745 1.8769
v -12.5476 12.5670 2.1807
v -21.5745 17.3404 2.5632
v -18.9785 15.9961 1.2121
v -14.6100 15.8872 1.8232
v -12.8847 18.0436 2.1807
v -25.4304 22.0158 2.1807
v -23.7106 20.0158 2.1807
v -13.6163 21.3411 2.1807
v -12.8847 19.3411 2.1807
v -25.8977 24.9897 2.1807
v -13.7822 24.9033 2.1764
v -12.7241 26.1790 3.5069
v -25.6637 28.9897 2.1807
v -17.2142 30.6695 3.5511
v -15.0759 29.2318 2.1957
v -12.7241 27.7942 3.5069
v -25.1964 31.5342 2.1807
v -22.9785 32.7629 2.1807
v -18.7200 32.0548 2.2029
v -16.6842 31.1265 0.8844
v 22.7864 -29.1864 7.6892
v 25.0215 -29.3777 7.2588
v 29.0215 -29.4078 7.4507
v 32.1059 -29.2265 7.9451
v 2.3944 -25.6825 6.1807
v 5.0215 -26.8934 6.1807
v 9.1482 -26.1602 6.1008
v 11.4560 -25.3123 4.7141
v 18.3216 -25.3531 6.1807
v 21.2804 -27.3072 6.2858
v 25.0215 -28.1630 5.2588
v 29.0477 -27.1098 5.7074
v 32.0747 -27.0103 7.6423
v -5.1268 -21.1424 4.3709
v -2.9785 -21.6596 4.9845
v 0.3949 -23.0505 6.3095
v 10.5660 -24.4433 7.3808
v 12.8822 -23.9240 6.1008
v 16.3216 -24.0777 6.1807
v 29.6862 -22.9543 6.2913
v 31.3413 -24.2504 7.6984
v -5.4244 -19.0103 4.8280
v -2.6160 -18.6653 6.8274
v -0.5201 -19.7686 7.7288
v 26.7133 -17.3673 7.9504
v 27.9917 -18.8245 6.4425
v -5.6190 -14.8807 6.1844
v -3.7076 -16.1276 7.5202
v 26.5247 -15.0103 7.7688
v 27.8319 -15.0103 5.7688
v -6.6977 -11.0103 6.1807
v 26.1291 -11.0103 7.2969
v 27.6720 -11.0103 5.2969
v -17.1978 -5.1495 8.0152
v -14.9785 -5.2112 7.8032
v -11.0540 -6.0612 6.3780
v -8.2317 -8.2273 6.1807
v 25.5282 -7.1816 6.0650
v 27.3612 -8.6292 4.6546
v -17.5851 -3.0103 7.5350
v -14.9785 -3.0103 6.6140
v -11.8718 -3.0103 5.2597
v 6.2876 -1.7690 6.1807
v 9.0215 -2.6879 6.1807
v 12.2896 -1.9293 6.1807
v 22.3342 -1.6318 7.4726
v 23.8178 -2.9832 6.1558
v -17.5856 0.9897 7.2385
v -14.9785 0.9897 6.2485
v -10.8177 0.8337 5.3122
v -8.5618 2.0631 4.7198
v -1.9634 2.1138 6.1807
v 1.0215 1.0628 6.1807
v 4.2876 -0.0613 6.1807
v 14.2896 -0.1582 6.1807
v 17.0215 0.5057 6.1807
v 21.0091 0.0929 6.1558
v 23.3352 -0.0569 4.8059
v -17.3284 4.9897 7.6488
v -15.1901 4.9324 7.4974
v -10.9785 3.6688 7.2627
v -7.1285 3.8721 6.1041
v -3.9634 3.8420 6.1807
v -21.2999 10.5571 7.5147
v -18.8231 9.2602 6.4402
v -15.1901 8.7260 6.4917
v -12.7144 10.4298 6.1807
v -25.0910 14.7582 8.0249
v -22.4812 13.4997 6.4365
v -20.4210 12.2412 4.8480
v -13.0310 14.5854 4.2668
v -12.4476 13.1471 5.8323
v -25.0910 15.2995 8.0249
v -23.5476 16.7756 6.4872
v -13.0310 15.9647 4.2668
v -12.2798 17.1747 5.8323
v -25.3644 22.1511 6.1807
v -24.1770 20.1511 6.1807
v -13.3643 21.7187 5.0411
v -12.5110 20.6271 6.2969
v -26.1749 24.9897 6.1807
v -13.3643 23.5123 5.0411
v -12.6717 24.9033 6.2969
v -26.5794 28.9897 6.1807
v -17.9886 29.9435 6.1807
v -14.9785 28.6940 6.1807
v -12.7055 27.7402 6.1807
v -25.7689 31.8419 6.1807
v -22.9785 32.8769 6.1807
v -19.9886 32.0247 6.1807
v 6.7954 -29.2719 11.4915
v 7.6579 -29.2719 11.4915
v 22.7864 -29.1864 8.4791
v 25.0215 -29.3777 8.8677
v 28.9853 -29.6599 10.1512
v 32.6249 -29.5869 10.1807
v 2.8761 -25.1836 8.7707
v 5.0806 -26.9152 10.1311
v 8.6487 -27.1922 10.1672
v 18.6552 -25.1664 8.5110
v 21.2089 -26.6826 9.8284
v 25.0215 -27.7570 10.8677
v 27.6279 -28.1506 11.4649
v 33.7812 -27.0103 10.1807
v 2.0318 -23.1755 10.1347
v 3.3658 -24.6189 11.4374
v 10.5782 -24.3972 10.1807
v 13.0215 -23.3478 10.1807
v 17.2017 -23.7002 9.9789
v 19.6313 -24.2260 11.1777
v 30.5443 -21.5837 8.8340
v 33.1257 -23.2266 10.3884
v 35.3873 -22.2028 11.9429
v -1.0410 -17.1019 8.2765
v 0.0777 -18.6653 9.8382
v 26.7133 -17.3673 8.4483
v 29.0305 -19.0618 9.9745
v 33.0215 -20.6412 11.4923
v 35.3873 -20.7723 11.9429
v -5.3047 -13.5227 10.1807
v -2.6160 -15.5974 9.8382
v -0.3806 -16.6389 10.9432
v 26.5277 -14.7420 9.9413
v 27.5166 -15.8965 11.1150
v -21.5031 -10.0079 11.3621
v -18.9785 -9.8861 11.4459
v -14.9785 -9.2564 11.8788
v -12.6750 -9.1683 11.9392
v -6.1087 -11.0103 10.1807
v 25.9247 -11.0103 10.1807
v -21.5031 -8.0364 11.3621
v -18.9386 -6.5929 10.3575
v -14.9785 -7.2112 9.8788
v -11.1964 -7.3486 10.4358
v -7.7826 -7.8366 10.1807
v 25.2928 -7.0103 10.1807
v -18.7824 -3.0103 10.1807
v 6.8065 -1.2715 8.4592
v 9.1790 -1.9912 9.9478
v 13.4061 -2.1927 9.8045
v 15.6014 -1.6073 10.8871
v 22.4540 -1.5242 10.1807
v 24.0035 -3.5242 10.1807
v -18.2852 0.9897 10.1807
v -1.7779 2.3352 8.8105
v 1.0215 2.1816 9.6146
v 4.9333 1.1376 10.2943
v 7.9508 -0.2916 11.1258
v 14.9958 -0.9887 8.2204
v 16.9694 -0.5486 9.8045
v 20.4540 -0.4493 10.1807
v -18.3875 4.9897 10.1807
v -13.9979 6.2276 8.6869
v -10.9785 5.6688 9.5103
v -7.2769 5.4822 10.5406
v -3.0581 4.0146 10.1586
v 1.0215 3.4163 11.6146
v 3.0601 3.0036 12.1294
v -21.7293 9.9109 10.1807
v -19.9447 7.9109 10.1807
v -13.9979 7.6717 8.6869
v -11.2043 8.9989 9.9464
v -8.6351 8.9897 12.0081
v -25.0910 14.7582 8.5024
v -23.4352 13.2508 9.9737
v -10.4546 12.7974 10.4827
v -8.6900 11.3359 12.0173
v -25.0910 15.2995 8.5024
v -23.7660 16.7756 9.9737
v -10.2566 17.2849 10.4762
v -8.9291 18.8150 12.0066
v -25.2842 22.4249 10.1807
v -24.1428 20.4249 10.1807
v -13.1594 22.7808 11.7317
v -11.2613 20.9618 10.5358
v -8.9291 19.1427 12.0066
v -26.0423 24.9897 10.1807
v -17.2651 26.7167 11.6689
v -14.6871 25.2259 10.8949
v -12.7858 24.9897 8.9573
v -26.1021 28.8477 10.0830
v -23.6899 30.0864 11.3512
v -18.5894 28.7449 10.2736
v -14.9785 27.3308 8.9102
v -12.8689 27.1859 8.3318
v -25.8403 31.6383 8.6845
v -22.6054 31.6802 10.0830
v -20.7772 31.3664 10.1807
v 6.7954 -29.2719 12.5769
v 7.6579 -29.2719 12.5769
v 30.2946 -29.5630 13.3099
v 32.0749 -29.5630 13.3099
v 2.9679 -25.0730 15.8039
v 5.0806 -26.6057 14.1904
v 9.2719 -26.5883 14.2063
v 11.1102 -25.0382 15.8357
v 22.0246 -25.7547 14.1807
v 25.0215 -26.5461 14.1807
v 28.9853 -27.9102 14.4582
v 32.8737 -27.2772 14.4582
v 2.6801 -23.3505 14.3912
v 3.4415 -23.3505 14.3912
v 10.8859 -24.7599 13.1690
v 12.6747 -24.1125 14.3737
v 17.0215 -22.9298 14.1807
v 20.0246 -23.8641 14.1807
v 34.1959 -23.3258 14.2577
v 35.3873 -22.2028 12.9757
v 1.9284 -19.0820 14.2594
v 3.5171 -20.4632 15.6453
v 29.4950 -18.6871 14.1807
v 32.9758 -20.6089 14.2577
v 35.3873 -20.7723 12.9757
v -25.0182 -13.0272 16.1698
v -22.9785 -13.4884 15.4207
v -18.9785 -13.5318 15.3580
v -16.6425 -13.0851 16.0861
v -5.1793 -13.2428 12.5443
v -2.5976 -13.7418 13.9988
v 0.1270 -15.7503 14.1807
v 18.9589 -13.0774 16.1327
v 19.1689 -13.0774 16.1327
v 26.0967 -14.0553 14.1807
v 27.4950 -16.0553 14.1807
v -25.1947 -11.0103 15.9398
v -22.8933 -11.2089 13.7865
v -18.9785 -11.8861 13.3580
v -15.1769 -11.2046 14.5239
v -11.9992 -9.6256 14.1807
v -5.9113 -10.8599 13.9988
v -2.4100 -11.0338 15.6615
v -0.8725 -9.9746 16.1120
v 18.9589 -12.7348 16.1327
v 19.1689 -12.7348 16.1327
v 25.7543 -11.0103 14.1807
v -25.2271 -8.3032 15.8704
v -23.1132 -6.8364 14.1417
v -20.6794 -5.3697 12.4129
v -9.9992 -8.1987 14.1807
v -7.9940 -8.1987 14.1807
v -1.1429 -8.7096 16.1120
v -0.8725 -8.7096 16.1120
v 18.3363 -6.0903 15.5257
v 19.8515 -6.0903 15.5257
v 25.5779 -7.0103 14.1807
v -22.2432 -3.0103 14.6609
v -20.1759 -3.0103 12.6609
v 6.9331 -1.0553 16.1389
v 9.1790 -1.5789 14.5556
v 13.0215 -2.8697 14.1807
v 16.9688 -3.1319 14.1146
v 21.4018 -2.9090 14.1146
v 23.9204 -3.8583 14.1807
v -22.3282 0.9897 15.1315
v -19.6781 0.9897 13.1315
v 2.2575 2.1648 14.8918
v 4.9966 0.9366 14.1820
v 7.9508 -0.2916 13.4722
v 18.2680 -0.5432 12.7035
v 20.2854 -0.5432 12.7035
v -22.3882 4.9897 15.0353
v -20.0376 4.9897 13.0353
v -6.1425 6.4588 12.8197
v -3.0412 5.6899 14.1641
v 0.9631 3.6167 13.8074
v 3.0601 3.0036 12.2252
v -21.6624 9.1433 14.3082
v -20.8102 9.1433 14.3082
v -6.6351 8.9897 13.3844
v -4.2253 8.9897 15.3844
v -21.8084 12.9897 13.6428
v -20.6690 12.9897 15.6428
v -9.5950 14.0026 13.1070
v -7.3079 12.7024 14.4601
v -4.5365 11.4022 15.8133
v -21.9901 16.9880 14.1653
v -20.6108 15.6535 15.4884
v -9.5317 17.1945 14.1180
v -8.7608 17.1945 14.1180
v -25.5144 22.1114 14.1807
v -23.9229 20.1114 14.1807
v -13.1594 22.7808 12.3850
v -10.7559 20.9618 13.7570
v -8.9291 19.1427 12.4623
v -25.5835 24.8647 14.0077
v -22.9785 25.5679 14.9443
v -18.7505 25.6036 14.1645
v -14.6871 23.9913 13.9033
v -12.0435 23.2818 15.0517
v -25.2724 27.4197 12.5591
v -22.6054 28.8477 12.8011
v -20.1588 28.9897 12.6724
v -21.0232 31.0060 12.1966
v -20.9324 31.0060 12.1966
v 2.9679 -25.0730 16.2939
v 5.0215 -25.4034 16.6964
v 9.0215 -25.3773 16.7389
v 12.6108 -25.1326 17.9242
v 15.8898 -25.2271 19.4979
v 22.4603 -25.3972 18.1807
v 24.7249 -25.6687 18.3847
v 29.0215 -26.2800 17.2137
v 31.8331 -26.1218 16.5514
v 2.9679 -24.7488 16.2939
v 5.0012 -23.2052 17.8578
v 9.0215 -24.3668 18.7389
v 12.6108 -24.6611 17.9242
v 17.1425 -24.0835 18.1710
v 20.4603 -24.2437 18.1807
v 25.5629 -23.0103 19.5480
v 29.0215 -23.0103 17.9137
v 32.0731 -23.0103 16.5464
v -29.0497 -17.1463 20.1377
v -28.2120 -17.1463 20.1377
v 2.5642 -17.7965 16.9330
v 4.0405 -19.0820 18.2321
v 26.0883 -19.0103 19.0310
v 28.7032 -19.3041 16.9310
v 31.6120 -20.8334 16.2976
v -29.6973 -15.0103 19.8601
v -26.6151 -14.9951 18.6336
v -22.9785 -14.8151 18.1807
v -18.9785 -14.4812 18.1807
v -15.9346 -13.6535 18.1807
v -1.0103 -13.0350 16.1927
v 1.1471 -14.6251 17.1456
v 3.5545 -15.0103 19.3777
v 14.6196 -13.4704 19.7659
v 17.3839 -13.7717 18.3318
v 20.7099 -13.9033 17.9574
v 24.9217 -15.2703 17.8200
v 27.1577 -16.8508 16.4980
v -29.9783 -11.0103 19.6856
v -27.1947 -11.0103 17.6856
v -13.9346 -12.2205 18.1807
v -10.7772 -10.4636 17.8753
v -7.2009 -9.6226 17.7755
v -2.4100 -11.0338 16.3693
v 1.0425 -10.9847 17.9419
v 3.3266 -11.9949 19.6911
v 14.2380 -11.0103 19.3158
v 17.3839 -11.2450 17.1368
v 20.7099 -11.2450 16.6417
v 23.9586 -11.0103 16.6969
v -29.3781 -7.0103 19.9174
v -26.7998 -6.7289 18.6718
v -24.6993 -5.5881 18.1807
v -9.3096 -8.8481 16.3384
v -7.0521 -7.7979 17.8551
v -2.6772 -7.2299 16.9073
v 1.0425 -7.4036 18.0095
v 3.5063 -6.0977 19.7097
v 10.7160 -5.2930 19.8649
v 13.0359 -6.7799 19.0029
v 17.0104 -7.2583 16.8404
v 21.1195 -7.2583 16.5865
v 24.0281 -7.0103 16.6279
v -29.0653 -4.9458 20.1052
v -28.3725 -4.9458 20.1052
v -23.5812 -3.0103 18.1807
v -5.3722 -4.5515 19.5646
v -2.9525 -3.1350 18.6520
v 1.0215 -3.0103 17.5634
v 5.2197 -2.6986 18.0684
v 9.2382 -3.3148 18.3912
v 13.0215 -4.0930 17.2623
v 15.6697 -4.6565 16.6053
v 22.5182 -4.7439 16.3832
v 23.3749 -4.7439 16.3832
v -23.4230 0.9897 18.1807
v -2.0093 0.9897 18.9361
v 0.9631 0.8947 16.9329
v 4.2664 -0.5019 16.4271
v -23.2034 4.9897 18.1807
v -2.3389 4.8754 18.0213
v -0.4091 3.4659 16.5817
v -21.6408 8.2212 18.1807
v -20.2453 10.2212 18.1807
v -3.6344 8.9897 18.1807
v -19.1626 12.9897 18.1807
v -6.0450 13.4835 18.1807
v -4.4974 11.4835 18.1807
v -21.4241 18.3202 16.5507
v -19.5887 16.9880 18.0027
v -9.4684 18.2408 16.5479
v -7.8603 16.9404 18.0010
v -25.3251 22.4681 16.4360
v -22.8459 21.0767 16.6257
v -18.8549 20.8089 18.2477
v -14.9785 21.5482 18.7174
v -10.7559 20.9968 17.9095
v -8.3594 19.9579 19.2146
v -25.3251 23.4480 16.4360
v -22.9785 23.5679 16.4595
v -18.9785 23.4618 16.4870
v -14.9785 23.4464 16.7174
v -12.0435 23.2818 16.6044
v 14.1115 -25.2271 20.4740
v 15.8898 -25.2271 20.4740
v 22.8790 -25.0555 20.1990
v 23.1938 -25.0555 20.1990
v -29.6174 -21.7332 23.7464
v -28.5079 -21.7332 23.7464
v 6.4853 -21.6615 21.0666
v 9.3107 -22.1190 22.3122
v 12.8755 -23.5057 21.9566
v 17.1917 -23.0190 22.1633
v 21.3360 -23.2433 20.9403
v 23.5629 -23.0103 20.3762
v -37.4169 -17.3210 23.6390
v -34.9785 -17.8941 23.4476
v -30.6669 -18.8455 22.4123
v -27.0266 -18.7842 22.0100
v -22.9785 -17.6877 22.9333
v -18.9785 -17.4658 23.7231
v -16.7459 -17.4595 23.9933
v 5.9235 -19.0103 21.5299
v 8.2659 -19.0103 23.5299
v 18.4936 -19.7426 23.8527
v 20.6300 -18.6497 22.8648
v 24.0883 -19.0103 20.7818
v -37.4169 -16.3357 23.6390
v -34.8889 -15.0055 22.9939
v -31.6973 -15.0103 21.1035
v -25.5453 -16.9629 20.2736
v -22.9785 -16.3370 20.9333
v -18.9785 -15.9597 21.7231
v -15.0009 -15.1001 22.2771
v -12.1235 -13.7403 23.2276
v 5.5545 -15.0103 21.5870
v 7.8054 -15.0103 23.5870
v 14.2675 -13.8136 22.1807
v 17.0215 -15.3584 22.1807
v 20.6300 -16.2539 22.1162
v 23.8944 -16.3565 20.7398
v -33.4958 -11.6926 23.1802
v -32.1733 -10.6197 21.9804
v -13.2560 -12.6281 20.5610
v -10.8655 -12.0761 22.0088
v -8.1641 -10.1292 22.1807
v 2.9576 -9.3282 20.2346
v 4.8045 -10.8011 21.2542
v 8.9422 -10.6553 23.5887
v 12.4327 -10.6553 22.5475
v -30.3765 -7.0103 22.1807
v -25.7058 -5.1545 20.6275
v -24.8615 -5.1545 20.6275
v -6.5942 -7.0103 22.1807
v 2.9576 -8.7643 20.2346
v 4.9124 -7.2627 20.9329
v 9.2382 -6.7799 21.6674
v 11.7121 -7.9597 21.4587
v -29.0485 -4.9513 22.1807
v -26.9256 -3.6376 22.2062
v -24.3165 -3.0103 21.2189
v -5.4086 -3.9224 22.1807
v -4.4071 -1.9224 22.1807
v 6.1730 -4.3420 20.6073
v 8.0494 -4.3420 20.6073
v -25.8407 0.9897 23.3818
v -24.0733 0.9897 21.3818
v -5.6394 1.8288 23.7402
v -4.1721 0.6932 22.3164
v -25.6279 3.4772 23.5114
v -22.8553 4.8098 22.0393
v -18.9785 6.2726 23.3832
v -14.9785 6.6246 23.9021
v -10.9785 6.0391 23.5278
v -6.9750 4.8560 23.0988
v -4.1006 4.9897 21.2901
v -21.1734 7.3186 20.5672
v -18.6127 8.6189 22.3157
v -14.9785 7.7635 23.9021
v -10.9785 8.1053 23.5278
v -7.0530 9.0208 22.6452
v -4.3877 8.9897 20.7230
v -17.4940 12.8021 22.0866
v -14.9785 13.4162 23.0135
v -10.9785 13.7982 23.3410
v -6.9446 12.8776 22.0556
v -4.7790 11.2356 20.3175
v -17.5171 16.9897 21.0643
v -14.9785 16.9897 21.7421
v -10.9785 16.9897 22.0790
v -7.8702 16.9897 21.4013
v -17.4391 19.3550 20.8490
v -14.9785 19.5482 20.9092
v -10.9785 20.0004 20.9187
v -8.3594 19.9579 20.8616
v -21.6903 -25.3083 27.8450
v -18.9785 -25.2880 27.8300
v -16.9354 -25.0825 28.0488
v -33.1891 -21.5521 27.4996
v -30.9619 -22.2533 26.1720
v -27.0962 -22.3850 26.2428
v -23.0056 -23.0671 27.3855
v -18.9785 -23.0103 26.7609
v -16.3251 -23.0103 27.3324
v 10.8368 -21.0494 24.2144
v 13.0215 -21.2614 24.4043
v 15.8269 -21.3061 24.4452
v -37.4169 -17.3210 24.9551
v -34.8566 -18.9328 26.2273
v -32.2841 -20.5447 24.8330
v -25.8412 -20.4220 24.9508
v -22.9785 -19.6877 25.4385
v -18.9785 -19.4658 25.1115
v -15.1149 -18.9202 26.0417
v -12.4445 -17.7142 27.5686
v 10.2659 -19.0103 24.6162
v 13.0215 -19.0103 25.1336
v 17.1047 -18.6497 24.6003
v 19.0358 -17.0759 24.1902
v -37.4169 -16.3357 24.9551
v -35.8174 -15.0055 26.2453
v -14.0793 -16.4070 24.9019
v -11.7603 -15.0483 26.2134
v 9.8054 -15.0103 24.8282
v 13.0594 -14.9768 24.9539
v 17.0215 -16.4570 24.5069
v 19.0358 -16.9950 24.1902
v -33.8680 -11.2615 26.1807
v -32.7454 -9.2615 26.1807
v -9.8562 -11.8279 26.1807
v -8.0017 -9.8279 26.1807
v 10.2228 -11.7520 24.4971
v 11.7514 -11.7520 24.4971
v -30.3958 -6.6877 25.8410
v -28.8377 -5.1394 26.9479
v -6.5635 -7.0103 26.1807
v -28.9850 -4.9962 24.2812
v -28.0414 -3.4018 25.8410
v -6.1902 -2.8153 25.8074
v -4.9267 -1.3520 24.2253
v -26.1155 1.0067 26.1786
v -22.9785 2.2433 27.3064
v -20.4815 2.6329 27.6851
v -13.8171 1.7025 27.4911
v -10.9785 1.1160 26.9891
v -7.2774 0.4704 25.7534
v -4.9267 -0.8378 24.2253
v -25.6279 3.4772 24.8439
v -22.9785 3.7198 25.3064
v -19.0803 4.1750 26.2833
v -15.0817 4.4566 26.1669
v -10.9785 4.0391 24.9891
v -8.3060 3.4336 24.6148
v -17.1795 9.9192 24.2782
v -14.9785 9.7635 24.3541
v -10.9785 10.1053 24.6439
v -8.4359 10.3749 24.6646
v -17.1795 11.3436 24.2782
v -14.9785 11.4162 24.3541
v -10.9785 11.7982 24.6439
v -8.4359 11.8530 24.6646
v -26.2644 -25.8247 31.1656
v -22.7778 -25.5665 30.1030
v -18.9785 -25.2880 28.8639
v -16.9354 -25.0825 28.2319
v -33.3548 -21.7483 30.1807
v -30.9785 -23.3108 30.1807
v -27.3501 -24.3171 29.9716
v -22.7778 -24.4861 30.1030
v -18.9785 -23.6669 30.8639
v -15.2096 -22.4171 29.9688
v -12.8219 -21.1387 31.7057
v -34.3388 -19.0103 30.1807
v -13.4838 -20.3808 29.0390
v -12.4053 -19.0326 30.2957
v -34.5786 -15.0103 30.1807
v -21.2641 -13.2565 31.8171
v -20.6811 -13.2565 31.8171
v -13.5606 -13.9185 31.6005
v -12.1144 -15.1552 30.2326
v -33.6303 -10.8019 30.0803
v -32.6762 -9.3296 28.6801
v -21.2239 -11.0103 31.8425
v -19.2001 -11.0216 31.4789
v -14.9278 -11.0216 31.0832
v -10.9937 -10.8544 29.4828
v -8.1691 -9.4171 28.7946
v -33.2435 -8.6212 31.3467
v -31.1971 -7.7060 30.0803
v -28.0717 -5.6718 30.1807
v -21.0201 -8.0037 32.0933
v -19.3729 -6.8063 30.9467
v -14.9785 -7.0103 29.7015
v -10.9785 -7.0103 30.0824
v -7.7985 -7.0103 29.0845
v -26.3003 -3.2845 30.0878
v -22.9785 -2.8152 31.3203
v -19.3729 -3.3800 30.7675
v -14.9785 -3.0103 29.0708
v -10.9785 -3.0103 29.0741
v -8.3582 -3.0103 28.6618
v -25.7239 -0.3153 28.6926
v -22.9785 0.2433 29.3203
v -19.0803 1.1756 29.4167
v -15.0817 0.6174 28.8255
v -10.9785 -0.8840 28.2351
v -8.9155 -0.8880 28.2310
v -17.8149 3.2547 28.6787
v -16.4838 3.2547 28.6787
v -26.2644 -25.8247 33.1026
v -22.7148 -25.6344 34.2159
v -20.7934 -25.4440 35.3291
v -33.2403 -21.4447 34.1807
v -31.0776 -22.1237 34.4614
v -27.3501 -23.3762 33.7456
v -22.2808 -23.6647 34.0830
v -19.7564 -22.9089 33.7320
v -14.9785 -21.1205 32.4013
v -12.8219 -21.1387 32.4541
v -33.9740 -19.0103 34.1807
v -29.8102 -20.8302 35.9819
v -26.9785 -20.1467 35.4453
v -23.0024 -18.8275 34.9659
v -18.9785 -19.0103 33.4921
v -14.9785 -19.0103 32.7984
v -12.6625 -19.0103 32.5547
v -33.6571 -14.6980 34.2994
v -32.8182 -13.1565 35.7118
v -22.2301 -14.7580 34.3644
v -19.2001 -14.7580 33.2746
v -14.9278 -15.1552 32.8260
v -12.7138 -16.5851 32.4060
v -33.2918 -11.0103 33.2829
v -31.2824 -10.7686 35.2841
v -28.6094 -9.2741 35.8835
v -22.6022 -11.0103 34.1807
v -18.0144 -12.3624 32.7268
v -16.2272 -12.3624 32.7268
v -33.2435 -8.6212 32.7858
v -30.9785 -8.2832 33.4117
v -26.9265 -7.1489 34.1604
v -22.7046 -6.9358 33.6461
v -20.9691 -5.3370 32.1881
v -25.2436 -4.8006 32.4373
v -22.9785 -4.8152 32.3788
v -20.9691 -4.9599 32.1881
v -21.5643 -25.4440 36.3850
v -20.7934 -25.4440 36.3850
v -33.0364 -21.1473 36.2292
v -32.4769 -21.1473 36.2292
v -21.5643 -24.5650 36.3850
v -20.7934 -24.5650 36.3850
v -33.4308 -19.0103 36.7645
v -31.0776 -19.3022 37.1030
v -26.9785 -18.1467 36.9386
v -24.3517 -17.3722 36.4326
v -33.5237 -15.8232 36.9105
v -31.1441 -14.7779 38.2583
v -26.8529 -15.0436 38.6982
v -24.3288 -15.0103 36.7585
v -30.2268 -11.4367 38.1807
v -27.0226 -10.6279 38.1332
v -24.3569 -11.0103 37.1095
v -25.9428 -8.5346 36.9005
v -24.3891 -8.5346 36.9005
v -29.4699 -13.7325 40.7192
v -28.1025 -13.7325 40.7192
v -29.4699 -11.9816 40.7192
v -28.1025 -11.9816 40.7192
f 5 1 4
f 5 2 1
f 6 2 5
f 6 3 2
f 11 7 10
f 11 8 7
f 11 9 8
f 11 12 9
f 14 11 10
f 14 15 11
f 16 11 15
f 16 12 11
f 16 13 12
f 16 17 13
f 20 1 2
f 20 19 1
f 19 16 15
f 19 20 16
f 3 20 2
f 3 21 20
f 21 16 20
f 21 17 16
f 23 1 19
f 23 4 1
f 23 18 22
f 23 19 18
f 24 5 4
f 24 4 23
f 25 21 3
f 25 3 6
f 25 6 5
f 25 5 24
f 25 24 20
f 25 20 21
f 28 27 26
f 28 29 27
f 31 29 28
f 31 32 29
f 33 7 8
f 33 32 7
f 32 30 29
f 32 33 30
f 34 8 9
f 34 33 8
f 36 7 32
f 36 10 7
f 36 31 35
f 36 32 31
f 34 9 12
f 34 12 38
f 37 33 34
f 37 34 38
f 13 38 12
f 13 39 38
f 36 14 10
f 36 42 14
f 41 36 35
f 41 42 36
f 43 15 14
f 43 14 42
f 44 39 13
f 44 13 17
f 44 40 39
f 44 45 40
f 46 42 41
f 46 47 42
f 48 15 43
f 48 19 15
f 48 18 19
f 48 47 18
f 48 42 47
f 48 43 42
f 50 44 17
f 50 17 21
f 21 20 49
f 21 49 50
f 51 44 50
f 51 45 44
f 52 18 47
f 52 22 18
f 53 23 22
f 53 22 52
f 49 20 24
f 49 24 54
f 54 24 23
f 54 23 53
f 55 49 54
f 55 50 49
f 27 56 26
f 27 57 56
f 56 28 26
f 56 59 28
f 57 27 29
f 57 29 60
f 60 59 56
f 60 56 57
f 30 60 29
f 30 61 60
f 59 31 28
f 59 65 31
f 65 58 64
f 65 59 58
f 66 61 30
f 66 30 33
f 66 62 61
f 66 67 62
f 69 63 68
f 69 64 63
f 70 31 65
f 70 35 31
f 70 64 69
f 70 65 64
f 66 33 37
f 66 37 71
f 72 37 38
f 72 71 37
f 71 67 66
f 71 72 67
f 73 38 39
f 73 72 38
f 40 73 39
f 40 74 73
f 70 41 35
f 70 76 41
f 75 70 69
f 75 76 70
f 77 72 73
f 77 73 78
f 74 40 45
f 74 45 79
f 78 73 74
f 78 74 79
f 76 46 41
f 76 80 46
f 81 47 46
f 81 46 80
f 79 45 51
f 79 51 85
f 51 50 84
f 51 84 85
f 81 52 47
f 81 87 52
f 86 81 80
f 86 87 81
f 88 53 52
f 88 52 87
f 89 54 53
f 89 53 88
f 89 88 82
f 89 82 83
f 84 50 55
f 84 55 90
f 55 54 89
f 55 89 90
f 90 89 83
f 90 83 84
f 94 58 59
f 94 93 58
f 94 91 93
f 94 92 91
f 95 59 60
f 95 94 59
f 61 95 60
f 61 96 95
f 62 96 61
f 62 97 96
f 99 58 93
f 99 64 58
f 99 63 64
f 99 98 63
f 100 97 62
f 100 62 67
f 98 68 63
f 98 101 68
f 69 68 101
f 69 101 102
f 101 98 99
f 101 99 102
f 103 100 67
f 103 67 72
f 102 75 69
f 102 105 75
f 106 76 75
f 106 75 105
f 103 72 77
f 103 77 107
f 78 107 77
f 78 108 107
f 107 104 103
f 107 108 104
f 109 78 79
f 109 108 78
f 106 80 76
f 106 111 80
f 110 106 105
f 110 111 106
f 114 83 82
f 114 82 113
f 84 83 114
f 84 114 115
f 109 79 85
f 109 85 116
f 116 85 84
f 116 84 115
f 115 108 109
f 115 109 116
f 111 86 80
f 111 117 86
f 118 87 86
f 118 86 117
f 117 111 112
f 117 112 118
f 119 113 82
f 119 82 88
f 88 87 118
f 88 118 119
f 119 118 112
f 119 112 113
f 120 113 119
f 120 114 113
f 121 114 120
f 121 115 114
f 92 122 91
f 92 123 122
f 126 91 122
f 126 93 91
f 127 123 92
f 127 92 94
f 95 127 94
f 95 128 127
f 127 124 123
f 127 128 124
f 96 128 95
f 96 129 128
f 128 125 124
f 128 129 125
f 130 96 97
f 130 129 96
f 126 99 93
f 126 132 99
f 130 97 100
f 130 100 134
f 133 129 130
f 133 130 134
f 132 102 99
f 132 136 102
f 135 132 131
f 135 136 132
f 134 100 103
f 134 103 138
f 137 133 134
f 137 134 138
f 139 103 104
f 139 138 103
f 140 102 136
f 140 105 102
f 143 139 104
f 143 104 108
f 142 138 139
f 142 139 143
f 140 110 105
f 140 144 110
f 145 111 110
f 145 110 144
f 112 111 145
f 112 145 146
f 147 113 112
f 147 112 146
f 148 147 141
f 148 141 142
f 149 143 108
f 149 108 115
f 148 142 143
f 148 143 149
f 150 113 147
f 150 119 113
f 120 119 150
f 120 150 151
f 150 147 148
f 150 148 151
f 149 115 121
f 149 121 152
f 121 120 151
f 121 151 152
f 152 151 148
f 152 148 149
f 154 122 123
f 154 153 122
f 124 154 123
f 124 155 154
f 156 124 125
f 156 155 124
f 153 126 122
f 153 158 126
f 160 156 125
f 160 125 129
f 159 155 156
f 159 156 160
f 163 126 158
f 163 132 126
f 163 131 132
f 163 162 131
f 163 157 162
f 163 158 157
f 164 160 129
f 164 129 133
f 166 131 162
f 166 135 131
f 165 162 161
f 165 166 162
f 167 136 135
f 167 135 166
f 164 133 137
f 164 137 168
f 169 137 138
f 169 168 137
f 167 140 136
f 167 171 140
f 170 167 166
f 170 171 167
f 169 138 142
f 169 142 173
f 173 142 141
f 173 141 172
f 174 140 171
f 174 144 140
f 175 145 144
f 175 144 174
f 176 146 145
f 176 145 175
f 177 172 141
f 177 141 147
f 177 147 146
f 177 146 176
f 180 153 154
f 180 179 153
f 155 180 154
f 155 181 180
f 185 153 179
f 185 158 153
f 185 157 158
f 185 184 157
f 185 178 184
f 185 179 178
f 181 155 159
f 181 159 186
f 187 159 160
f 187 186 159
f 186 182 181
f 186 187 182
f 189 157 184
f 189 162 157
f 189 161 162
f 189 188 161
f 189 183 188
f 189 184 183
f 190 187 160
f 190 160 164
f 188 165 161
f 188 191 165
f 192 166 165
f 192 165 191
f 190 164 168
f 190 168 193
f 194 168 169
f 194 193 168
f 192 170 166
f 192 196 170
f 195 192 191
f 195 196 192
f 197 171 170
f 197 170 196
f 194 169 173
f 194 173 200
f 200 173 172
f 200 172 199
f 200 199 193
f 200 193 194
f 197 174 171
f 197 201 174
f 202 175 174
f 202 174 201
f 176 175 202
f 176 202 203
f 204 199 172
f 204 172 177
f 204 177 176
f 204 176 203
f 204 203 198
f 204 198 199
f 210 206 205
f 210 211 206
f 214 207 213
f 214 208 207
f 215 178 179
f 215 214 178
f 215 208 214
f 215 209 208
f 180 215 179
f 180 216 215
f 216 209 215
f 216 210 209
f 217 180 181
f 217 216 180
f 216 211 210
f 216 217 211
f 182 217 181
f 182 218 217
f 217 212 211
f 217 218 212
f 220 178 214
f 220 184 178
f 220 183 184
f 220 219 183
f 220 213 219
f 220 214 213
f 222 218 182
f 222 182 187
f 223 183 219
f 223 188 183
f 224 220 221
f 224 221 225
f 222 187 190
f 222 190 227
f 223 191 188
f 223 228 191
f 230 227 190
f 230 190 193
f 230 229 226
f 230 226 227
f 228 195 191
f 228 231 195
f 232 196 195
f 232 195 231
f 197 196 232
f 197 232 233
f 236 230 193
f 236 193 199
f 236 199 198
f 236 198 235
f 236 235 229
f 236 229 230
f 233 201 197
f 233 238 201
f 237 233 232
f 237 238 233
f 239 202 201
f 239 201 238
f 239 238 233
f 239 233 234
f 240 235 198
f 240 198 203
f 240 203 202
f 240 202 239
f 240 239 234
f 240 234 235
f 244 242 241
f 244 245 242
f 245 243 242
f 245 246 243
f 206 247 205
f 206 248 247
f 208 250 207
f 208 251 250
f 252 208 209
f 252 251 208
f 251 246 245
f 251 252 246
f 253 205 247
f 253 210 205
f 253 209 210
f 253 252 209
f 253 246 252
f 253 247 246
f 248 206 211
f 248 211 254
f 212 254 211
f 212 255 254
f 254 249 248
f 254 255 249
f 256 207 250
f 256 213 207
f 257 256 250
f 257 250 251
f 258 257 251
f 258 251 252
f 260 255 212
f 260 212 218
f 259 254 255
f 259 255 260
f 262 213 256
f 262 219 213
f 262 256 257
f 262 257 263
f 221 220 263
f 221 263 264
f 264 263 257
f 264 257 258
f 267 260 218
f 267 218 222
f 268 260 267
f 268 261 260
f 262 223 219
f 262 269 223
f 263 220 224
f 263 224 270
f 269 262 263
f 269 263 270
f 271 221 264
f 271 225 221
f 225 270 224
f 225 271 270
f 271 264 265
f 271 265 272
f 274 267 222
f 274 222 227
f 274 227 226
f 274 226 273
f 274 273 266
f 274 266 267
f 275 223 269
f 275 228 223
f 276 275 269
f 276 269 270
f 277 273 226
f 277 226 229
f 275 231 228
f 275 278 231
f 232 231 278
f 232 278 279
f 278 275 276
f 278 276 279
f 234 233 280
f 234 280 281
f 282 277 229
f 282 229 235
f 282 235 234
f 282 234 281
f 283 232 279
f 283 237 232
f 284 280 233
f 284 233 238
f 284 238 237
f 284 237 283
f 283 279 280
f 283 280 284
f 286 241 242
f 286 285 241
f 243 286 242
f 243 287 286
f 285 244 241
f 285 289 244
f 290 245 244
f 290 244 289
f 291 287 243
f 291 243 246
f 247 291 246
f 247 292 291
f 291 288 287
f 291 292 288
f 248 292 247
f 248 293 292
f 249 293 248
f 249 294 293
f 295 245 290
f 295 251 245
f 252 251 295
f 252 295 296
f 297 292 293
f 297 293 298
f 299 294 249
f 299 249 255
f 299 255 254
f 299 254 298
f 296 258 252
f 296 300 258
f 301 298 254
f 301 254 259
f 260 301 259
f 260 302 301
f 301 299 298
f 301 302 299
f 261 302 260
f 261 303 302
f 304 258 300
f 304 264 258
f 265 264 304
f 265 304 305
f 307 267 266
f 307 266 306
f 303 261 268
f 303 268 308
f 268 267 307
f 268 307 308
f 307 302 303
f 307 303 308
f 271 309 270
f 271 310 309
f 305 272 265
f 305 311 272
f 272 310 271
f 272 311 310
f 310 305 304
f 310 311 305
f 312 306 266
f 312 266 273
f 309 276 270
f 309 313 276
f 314 313 309
f 314 309 310
f 315 314 310
f 315 310 311
f 316 312 273
f 316 273 277
f 315 311 312
f 315 312 316
f 317 276 313
f 317 279 276
f 280 279 317
f 280 317 318
f 317 313 314
f 317 314 318
f 281 280 318
f 281 318 319
f 319 318 314
f 319 314 315
f 316 277 282
f 316 282 320
f 320 282 281
f 320 281 319
f 320 319 315
f 320 315 316
f 328 321 327
f 328 322 321
f 329 322 328
f 329 323 322
f 330 323 329
f 330 324 323
f 331 324 330
f 331 325 324
f 332 325 331
f 332 326 325
f 335 327 334
f 335 328 327
f 336 328 335
f 336 329 328
f 337 329 336
f 337 330 329
f 338 330 337
f 338 331 330
f 340 333 339
f 340 334 333
f 341 334 340
f 341 335 334
f 342 335 341
f 342 336 335
f 286 343 285
f 286 344 343
f 287 344 286
f 287 345 344
f 345 339 344
f 345 340 339
f 288 345 287
f 288 346 345
f 345 341 340
f 345 346 341
f 348 285 343
f 348 289 285
f 290 289 348
f 290 348 349
f 349 348 343
f 349 343 344
f 351 346 288
f 351 288 292
f 351 347 346
f 351 352 347
f 353 293 294
f 353 352 293
f 354 290 349
f 354 295 290
f 296 295 354
f 296 354 355
f 354 349 350
f 354 350 355
f 351 292 297
f 351 297 356
f 357 293 352
f 357 298 293
f 357 297 298
f 357 356 297
f 357 351 356
f 357 352 351
f 358 353 294
f 358 294 299
f 359 296 355
f 359 300 296
f 360 359 355
f 360 355 356
f 361 358 299
f 361 299 302
f 359 304 300
f 359 362 304
f 362 359 360
f 362 360 363
f 361 302 307
f 361 307 365
f 365 307 306
f 365 306 364
f 366 304 362
f 366 310 304
f 311 310 366
f 311 366 367
f 367 366 362
f 367 362 363
f 368 364 306
f 368 306 312
f 368 312 311
f 368 311 367
f 368 367 363
f 368 363 364
f 373 370 369
f 373 374 370
f 380 321 322
f 380 379 321
f 323 380 322
f 323 381 380
f 382 323 324
f 382 381 323
f 382 371 381
f 382 372 371
f 383 324 325
f 383 382 324
f 383 372 382
f 383 373 372
f 326 383 325
f 326 384 383
f 383 374 373
f 383 384 374
f 385 374 384
f 385 375 374
f 385 376 375
f 385 386 376
f 387 378 377
f 387 388 378
f 389 321 379
f 389 327 321
f 389 378 388
f 389 379 378
f 384 326 332
f 384 332 391
f 332 331 390
f 332 390 391
f 392 384 391
f 392 385 384
f 393 385 392
f 393 386 385
f 395 327 389
f 395 334 327
f 395 333 334
f 395 394 333
f 395 388 394
f 395 389 388
f 337 336 396
f 337 396 397
f 390 331 338
f 390 338 398
f 338 337 397
f 338 397 398
f 399 390 398
f 399 391 390
f 400 333 394
f 400 339 333
f 396 336 342
f 396 342 402
f 342 341 401
f 342 401 402
f 403 396 402
f 403 397 396
f 404 339 400
f 404 344 339
f 401 341 346
f 401 346 405
f 347 405 346
f 347 406 405
f 406 401 405
f 406 402 401
f 406 403 402
f 406 407 403
f 409 344 404
f 409 349 344
f 350 349 409
f 350 409 410
f 412 406 347
f 412 347 352
f 411 405 406
f 411 406 412
f 353 412 352
f 353 413 412
f 413 408 407
f 413 414 408
f 416 350 410
f 416 355 350
f 415 410 409
f 415 416 410
f 417 356 355
f 417 355 416
f 418 413 353
f 418 353 358
f 418 414 413
f 418 419 414
f 417 360 356
f 417 420 360
f 418 358 361
f 418 361 422
f 423 418 422
f 423 419 418
f 424 360 420
f 424 363 360
f 364 363 424
f 364 424 425
f 424 420 421
f 424 421 425
f 426 422 361
f 426 361 365
f 365 364 425
f 365 425 426
f 426 425 421
f 426 421 422
f 370 427 369
f 370 428 427
f 433 371 372
f 433 432 371
f 427 373 369
f 427 434 373
f 434 372 373
f 434 433 372
f 435 428 370
f 435 370 374
f 435 434 427
f 435 427 428
f 436 374 375
f 436 435 374
f 435 429 428
f 435 436 429
f 376 436 375
f 376 437 436
f 436 430 429
f 436 437 430
f 378 438 377
f 378 439 438
f 440 378 379
f 440 439 378
f 441 379 380
f 441 440 379
f 442 371 432
f 442 381 371
f 442 380 381
f 442 441 380
f 442 431 441
f 442 432 431
f 443 437 376
f 443 376 386
f 438 387 377
f 438 444 387
f 445 388 387
f 445 387 444
f 392 391 446
f 392 446 447
f 448 443 386
f 448 386 393
f 448 393 392
f 448 392 447
f 445 394 388
f 445 451 394
f 450 445 444
f 450 451 445
f 398 397 452
f 398 452 453
f 446 391 399
f 446 399 454
f 399 398 453
f 399 453 454
f 456 449 455
f 456 450 449
f 457 394 451
f 457 400 394
f 457 450 456
f 457 451 450
f 452 397 403
f 452 403 458
f 459 452 458
f 459 453 452
f 460 453 459
f 460 454 453
f 462 400 457
f 462 404 400
f 461 457 456
f 461 462 457
f 406 405 463
f 406 463 464
f 465 458 403
f 465 403 407
f 407 406 464
f 407 464 465
f 408 465 407
f 408 466 465
f 466 458 465
f 466 459 458
f 462 409 404
f 462 468 409
f 468 461 467
f 468 462 461
f 463 405 411
f 463 411 469
f 470 411 412
f 470 469 411
f 470 463 469
f 470 464 463
f 471 407 465
f 471 413 407
f 471 412 413
f 471 470 412
f 471 464 470
f 471 465 464
f 472 466 408
f 472 408 414
f 468 415 409
f 468 474 415
f 473 468 467
f 473 474 468
f 475 416 415
f 475 415 474
f 417 416 475
f 417 475 476
f 478 472 414
f 478 414 419
f 480 473 479
f 480 474 473
f 481 474 480
f 481 475 474
f 482 417 476
f 482 420 417
f 421 420 482
f 421 482 483
f 482 476 477
f 482 477 483
f 484 422 421
f 484 421 483
f 478 419 423
f 478 423 485
f 423 422 484
f 423 484 485
f 491 486 490
f 491 487 486
f 492 487 491
f 492 488 487
f 492 489 488
f 492 493 489
f 495 490 494
f 495 491 490
f 429 498 428
f 429 499 498
f 430 499 429
f 430 500 499
f 503 496 502
f 503 497 496
f 505 431 432
f 505 504 431
f 433 505 432
f 433 506 505
f 434 506 433
f 434 507 506
f 498 435 428
f 498 508 435
f 508 434 435
f 508 507 434
f 509 500 430
f 509 430 437
f 511 438 439
f 511 510 438
f 511 501 510
f 511 502 501
f 440 511 439
f 440 512 511
f 512 502 511
f 512 503 502
f 513 431 504
f 513 441 431
f 513 440 441
f 513 512 440
f 513 503 512
f 513 504 503
f 509 437 443
f 509 443 514
f 515 438 510
f 515 444 438
f 447 446 516
f 447 516 517
f 514 443 448
f 514 448 518
f 518 448 447
f 518 447 517
f 515 450 444
f 515 520 450
f 520 449 450
f 520 519 449
f 516 446 454
f 516 454 521
f 522 516 521
f 522 517 516
f 519 455 449
f 519 523 455
f 524 456 455
f 524 455 523
f 521 454 460
f 521 460 526
f 460 459 525
f 460 525 526
f 524 461 456
f 524 528 461
f 527 524 523
f 527 528 524
f 525 459 466
f 525 466 531
f 532 525 531
f 532 526 525
f 534 461 528
f 534 467 461
f 533 528 527
f 533 534 528
f 538 537 529
f 538 529 530
f 539 531 466
f 539 466 472
f 540 467 534
f 540 473 467
f 542 541 535
f 542 535 536
f 476 475 542
f 476 542 543
f 543 542 536
f 543 536 537
f 477 476 543
f 477 543 544
f 543 537 538
f 543 538 544
f 539 472 478
f 539 478 546
f 549 473 540
f 549 479 473
f 550 480 479
f 550 479 549
f 550 549 540
f 550 540 541
f 551 542 475
f 551 475 481
f 551 481 480
f 551 480 550
f 551 550 541
f 551 541 542
f 552 477 544
f 552 483 477
f 484 483 552
f 484 552 553
f 552 544 545
f 552 545 553
f 554 546 478
f 554 478 485
f 554 485 484
f 554 484 553
f 554 553 545
f 554 545 546
f 555 548 547
f 555 556 548
f 563 486 487
f 563 562 486
f 563 557 562
f 563 558 557
f 488 563 487
f 488 564 563
f 563 559 558
f 563 564 559
f 489 564 488
f 489 565 564
f 564 560 559
f 564 565 560
f 567 486 562
f 567 490 486
f 567 561 566
f 567 562 561
f 492 491 568
f 492 568 569
f 570 565 489
f 570 489 493
f 570 493 492
f 570 492 569
f 570 569 564
f 570 564 565
f 567 494 490
f 567 572 494
f 571 567 566
f 571 572 567
f 568 491 495
f 568 495 573
f 573 495 494
f 573 494 572
f 574 568 573
f 574 569 568
f 576 571 575
f 576 572 571
f 577 572 576
f 577 573 572
f 577 574 573
f 577 578 574
f 497 579 496
f 497 580 579
f 586 498 499
f 586 585 498
f 587 499 500
f 587 586 499
f 579 502 496
f 579 589 502
f 589 501 502
f 589 588 501
f 590 580 497
f 590 497 503
f 590 589 579
f 590 579 580
f 591 503 504
f 591 590 503
f 590 581 580
f 590 591 581
f 505 591 504
f 505 592 591
f 592 581 591
f 592 582 581
f 506 592 505
f 506 593 592
f 592 583 582
f 592 593 583
f 594 506 507
f 594 593 506
f 595 498 585
f 595 508 498
f 595 507 508
f 595 594 507
f 595 584 594
f 595 585 584
f 596 587 500
f 596 500 509
f 597 501 588
f 597 510 501
f 596 509 514
f 596 514 598
f 599 510 597
f 599 515 510
f 598 514 518
f 598 518 601
f 518 517 600
f 518 600 601
f 599 520 515
f 599 603 520
f 520 602 519
f 520 603 602
f 600 517 522
f 600 522 605
f 522 521 604
f 522 604 605
f 606 600 605
f 606 601 600
f 602 523 519
f 602 607 523
f 608 607 602
f 608 602 603
f 604 521 526
f 604 526 609
f 610 604 609
f 610 605 604
f 611 605 610
f 611 606 605
f 607 527 523
f 607 612 527
f 530 529 613
f 530 613 614
f 609 526 532
f 609 532 617
f 532 531 616
f 532 616 617
f 618 609 617
f 618 610 609
f 612 533 527
f 612 619 533
f 620 534 533
f 620 533 619
f 622 536 535
f 622 535 621
f 623 613 529
f 623 529 537
f 623 537 536
f 623 536 622
f 624 530 614
f 624 538 530
f 624 614 615
f 624 615 625
f 616 531 539
f 616 539 626
f 627 616 626
f 627 617 616
f 627 618 617
f 627 628 618
f 629 534 620
f 629 540 534
f 630 621 535
f 630 535 541
f 541 540 629
f 541 629 630
f 631 538 624
f 631 544 538
f 545 544 631
f 545 631 632
f 631 624 625
f 631 625 632
f 633 626 539
f 633 539 546
f 633 546 545
f 633 545 632
f 633 632 625
f 633 625 626
f 636 547 548
f 636 635 547
f 635 555 547
f 635 639 555
f 639 634 638
f 639 635 634
f 636 548 556
f 636 556 640
f 640 556 555
f 640 555 639
f 642 557 558
f 642 641 557
f 642 637 641
f 642 638 637
f 559 642 558
f 559 643 642
f 642 639 638
f 642 643 639
f 560 643 559
f 560 644 643
f 646 557 641
f 646 562 557
f 646 561 562
f 646 645 561
f 648 644 560
f 648 560 565
f 565 564 647
f 565 647 648
f 649 561 645
f 649 566 561
f 647 564 569
f 647 569 650
f 652 566 649
f 652 571 566
f 650 569 574
f 650 574 654
f 655 650 654
f 655 651 650
f 652 575 571
f 652 656 575
f 657 576 575
f 657 575 656
f 577 576 657
f 577 657 658
f 659 654 574
f 659 574 578
f 659 578 577
f 659 577 658
f 659 658 653
f 659 653 654
f 581 664 580
f 581 665 664
f 582 665 581
f 582 666 665
f 667 582 583
f 667 666 582
f 669 584 585
f 669 668 584
f 586 669 585
f 586 670 669
f 670 660 669
f 670 661 660
f 587 670 586
f 587 671 670
f 670 662 661
f 670 671 662
f 672 662 671
f 672 663 662
f 674 588 589
f 674 673 588
f 664 590 580
f 664 675 590
f 675 589 590
f 675 674 589
f 667 583 593
f 667 593 677
f 676 666 667
f 676 667 677
f 678 584 668
f 678 594 584
f 678 593 594
f 678 677 593
f 671 587 596
f 671 596 679
f 680 671 679
f 680 672 671
f 673 597 588
f 673 681 597
f 681 673 674
f 681 674 682
f 683 682 674
f 683 674 675
f 679 596 598
f 679 598 685
f 681 599 597
f 681 686 599
f 687 686 681
f 687 681 682
f 689 685 598
f 689 598 601
f 689 688 684
f 689 684 685
f 690 599 686
f 690 603 599
f 689 601 606
f 689 606 692
f 691 688 689
f 691 689 692
f 690 608 603
f 690 696 608
f 696 607 608
f 696 695 607
f 698 692 606
f 698 606 611
f 611 610 697
f 611 697 698
f 698 697 691
f 698 691 692
f 700 693 699
f 700 694 693
f 695 612 607
f 695 701 612
f 701 694 700
f 701 695 694
f 614 613 702
f 614 702 703
f 615 614 703
f 615 703 704
f 706 697 610
f 706 610 618
f 707 700 699
f 707 708 700
f 701 619 612
f 701 709 619
f 708 701 700
f 708 709 701
f 710 620 619
f 710 619 709
f 712 622 621
f 712 621 711
f 702 613 623
f 702 623 713
f 713 623 622
f 713 622 712
f 714 615 704
f 714 625 615
f 715 626 625
f 715 625 714
f 627 626 715
f 627 715 716
f 717 706 618
f 717 618 628
f 717 628 627
f 717 627 716
f 717 716 705
f 717 705 706
f 719 707 718
f 719 708 707
f 720 708 719
f 720 709 708
f 710 629 620
f 710 721 629
f 720 710 709
f 720 721 710
f 711 621 630
f 711 630 722
f 722 630 629
f 722 629 721
f 725 634 635
f 725 724 634
f 725 718 724
f 725 719 718
f 726 635 636
f 726 725 635
f 729 634 724
f 729 638 634
f 729 637 638
f 729 728 637
f 729 723 728
f 729 724 723
f 731 726 636
f 731 636 640
f 640 639 730
f 640 730 731
f 733 637 728
f 733 641 637
f 733 727 732
f 733 728 727
f 730 639 643
f 730 643 734
f 644 734 643
f 644 735 734
f 735 730 734
f 735 731 730
f 737 641 733
f 737 646 641
f 737 645 646
f 737 736 645
f 735 644 648
f 735 648 739
f 648 647 738
f 648 738 739
f 736 649 645
f 736 740 649
f 741 738 647
f 741 647 650
f 651 741 650
f 651 742 741
f 741 739 738
f 741 742 739
f 740 652 649
f 740 743 652
f 745 654 653
f 745 653 744
f 746 742 651
f 746 651 655
f 655 654 745
f 655 745 746
f 747 652 743
f 747 656 652
f 748 657 656
f 748 656 747
f 749 744 653
f 749 653 658
f 749 658 657
f 749 657 748
f 753 660 661
f 753 752 660
f 662 753 661
f 662 754 753
f 663 754 662
f 663 755 754
f 665 756 664
f 665 757 756
f 758 665 666
f 758 757 665
f 758 750 757
f 758 751 750
f 752 669 660
f 752 760 669
f 669 759 668
f 669 760 759
f 761 760 752
f 761 752 753
f 762 761 753
f 762 753 754
f 763 755 663
f 763 663 672
f 756 675 664
f 756 764 675
f 765 764 756
f 765 756 757
f 758 666 676
f 758 676 766
f 767 676 677
f 767 766 676
f 759 678 668
f 759 768 678
f 678 767 677
f 678 768 767
f 769 768 759
f 769 759 760
f 763 672 680
f 763 680 771
f 680 679 770
f 680 770 771
f 764 683 675
f 764 774 683
f 683 773 682
f 683 774 773
f 770 679 685
f 770 685 776
f 685 684 775
f 685 775 776
f 777 770 776
f 777 771 770
f 777 772 771
f 777 778 772
f 773 687 682
f 773 780 687
f 687 779 686
f 687 780 779
f 781 780 773
f 781 773 774
f 775 684 688
f 775 688 782
f 783 775 782
f 783 776 775
f 779 690 686
f 779 788 690
f 782 688 691
f 782 691 789
f 790 785 784
f 790 791 785
f 792 693 694
f 792 791 693
f 791 786 785
f 791 792 786
f 793 694 695
f 793 792 694
f 792 787 786
f 792 793 787
f 794 690 788
f 794 696 690
f 696 793 695
f 696 794 793
f 795 789 691
f 795 691 697
f 796 693 791
f 796 699 693
f 703 702 797
f 703 797 798
f 704 703 798
f 704 798 799
f 802 795 697
f 802 697 706
f 802 706 705
f 802 705 801
f 803 699 796
f 803 707 699
f 712 711 804
f 712 804 805
f 797 702 713
f 797 713 806
f 713 712 805
f 713 805 806
f 807 797 806
f 807 798 797
f 808 704 799
f 808 714 704
f 715 714 808
f 715 808 809
f 808 799 800
f 808 800 809
f 810 801 705
f 810 705 716
f 810 716 715
f 810 715 809
f 803 718 707
f 803 811 718
f 720 719 812
f 720 812 813
f 814 721 720
f 814 720 813
f 804 711 722
f 804 722 815
f 722 721 814
f 722 814 815
f 816 804 815
f 816 805 804
f 817 805 816
f 817 806 805
f 819 718 811
f 819 724 718
f 819 723 724
f 819 818 723
f 820 812 719
f 820 719 725
f 726 820 725
f 726 821 820
f 820 813 812
f 820 821 813
f 822 813 821
f 822 814 813
f 824 723 818
f 824 728 723
f 824 727 728
f 824 823 727
f 825 821 726
f 825 726 731
f 826 821 825
f 826 822 821
f 823 732 727
f 823 827 732
f 828 733 732
f 828 732 827
f 828 827 823
f 828 823 824
f 829 825 731
f 829 731 735
f 828 737 733
f 828 832 737
f 832 736 737
f 832 831 736
f 829 735 739
f 829 739 834
f 835 829 834
f 835 830 829
f 831 740 736
f 831 836 740
f 839 834 739
f 839 739 742
f 839 838 833
f 839 833 834
f 840 740 836
f 840 743 740
f 843 745 744
f 843 744 842
f 843 842 837
f 843 837 838
f 844 839 742
f 844 742 746
f 844 746 745
f 844 745 843
f 843 838 839
f 843 839 844
f 845 743 840
f 845 747 743
f 748 747 845
f 748 845 846
f 845 840 841
f 845 841 846
f 847 842 744
f 847 744 749
f 749 748 846
f 749 846 847
f 751 848 750
f 751 849 848
f 755 850 754
f 755 851 850
f 848 757 750
f 848 853 757
f 849 751 758
f 849 758 854
f 854 853 848
f 854 848 849
f 761 856 760
f 761 857 856
f 850 762 754
f 850 858 762
f 762 857 761
f 762 858 857
f 851 755 763
f 851 763 859
f 859 858 850
f 859 850 851
f 853 765 757
f 853 861 765
f 765 860 764
f 765 861 860
f 861 852 860
f 861 853 852
f 862 854 758
f 862 758 766
f 767 862 766
f 767 863 862
f 862 855 854
f 862 863 855
f 864 767 768
f 864 863 767
f 856 769 760
f 856 865 769
f 769 864 768
f 769 865 864
f 866 859 763
f 866 763 771
f 772 866 771
f 772 867 866
f 868 764 860
f 868 774 764
f 869 868 860
f 869 860 861
f 777 776 870
f 777 870 871
f 867 772 778
f 867 778 872
f 872 778 777
f 872 777 871
f 872 871 866
f 872 866 867
f 780 877 779
f 780 878 877
f 868 781 774
f 868 879 781
f 781 878 780
f 781 879 878
f 870 776 783
f 870 783 883
f 783 782 882
f 783 882 883
f 884 874 873
f 884 885 874
f 886 784 785
f 886 885 784
f 886 874 885
f 886 875 874
f 786 886 785
f 786 887 886
f 886 876 875
f 886 887 876
f 888 786 787
f 888 887 786
f 877 788 779
f 877 889 788
f 889 877 878
f 889 878 890
f 892 880 881
f 892 881 893
f 882 782 789
f 882 789 894
f 885 790 784
f 885 896 790
f 895 885 884
f 895 896 885
f 897 791 790
f 897 790 896
f 898 888 787
f 898 787 793
f 889 794 788
f 889 899 794
f 794 898 793
f 794 899 898
f 900 890 891
f 900 891 901
f 904 894 789
f 904 789 795
f 897 796 791
f 897 906 796
f 905 897 896
f 905 906 897
f 909 799 798
f 909 798 908
f 800 799 909
f 800 909 910
f 910 902 903
f 910 903 911
f 912 904 795
f 912 795 802
f 802 801 911
f 802 911 912
f 914 796 906
f 914 803 796
f 914 905 913
f 914 906 905
f 908 798 807
f 908 807 917
f 807 806 916
f 807 916 917
f 917 916 907
f 917 907 908
f 918 800 910
f 918 809 800
f 919 911 801
f 919 801 810
f 810 809 918
f 810 918 919
f 918 910 911
f 918 911 919
f 914 811 803
f 914 921 811
f 921 913 920
f 921 914 913
f 815 814 922
f 815 922 923
f 816 815 923
f 816 923 924
f 925 916 806
f 925 806 817
f 925 817 816
f 925 816 924
f 925 924 915
f 925 915 916
f 921 819 811
f 921 927 819
f 927 818 819
f 927 926 818
f 927 920 926
f 927 921 920
f 922 814 822
f 922 822 928
f 929 922 928
f 929 923 922
f 930 818 926
f 930 824 818
f 930 926 927
f 930 927 931
f 928 822 826
f 928 826 933
f 826 825 932
f 826 932 933
f 934 928 933
f 934 929 928
f 930 828 824
f 930 935 828
f 936 935 930
f 936 930 931
f 932 825 829
f 932 829 937
f 830 937 829
f 830 938 937
f 938 932 937
f 938 933 932
f 940 828 935
f 940 832 828
f 832 939 831
f 832 940 939
f 834 833 941
f 834 941 942
f 943 938 830
f 943 830 835
f 835 834 942
f 835 942 943
f 943 942 937
f 943 937 938
f 944 831 939
f 944 836 831
f 947 941 833
f 947 833 838
f 947 838 837
f 947 837 946
f 948 941 947
f 948 942 941
f 949 836 944
f 949 840 836
f 841 840 949
f 841 949 950
f 949 944 945
f 949 945 950
f 951 946 837
f 951 837 842
f 951 950 945
f 951 945 946
f 952 841 950
f 952 846 841
f 951 842 847
f 951 847 953
f 847 846 952
f 847 952 953
f 952 950 951
f 952 951 953
f 955 852 853
f 955 954 852
f 956 853 854
f 956 955 853
f 855 956 854
f 855 957 956
f 857 959 856
f 857 960 959
f 961 857 858
f 961 960 857
f 962 858 859
f 962 961 858
f 963 852 954
f 963 860 852
f 861 860 963
f 861 963 964
f 963 954 955
f 963 955 964
f 965 964 955
f 965 955 956
f 966 957 855
f 966 855 863
f 965 956 957
f 965 957 966
f 967 863 864
f 967 966 863
f 966 958 957
f 966 967 958
f 968 856 959
f 968 865 856
f 865 967 864
f 865 968 967
f 970 969 960
f 970 960 961
f 962 859 866
f 962 866 971
f 970 961 962
f 970 962 971
f 964 869 861
f 964 975 869
f 869 974 868
f 869 975 974
f 976 969 970
f 976 970 977
f 971 866 871
f 971 871 978
f 978 871 870
f 978 870 977
f 978 977 970
f 978 970 971
f 979 973 972
f 979 980 973
f 981 873 874
f 981 980 873
f 982 874 875
f 982 981 874
f 876 982 875
f 876 983 982
f 974 879 868
f 974 985 879
f 879 984 878
f 879 985 984
f 986 985 974
f 986 974 975
f 989 881 880
f 989 880 988
f 991 977 870
f 991 870 883
f 991 883 882
f 991 882 990
f 991 990 976
f 991 976 977
f 993 873 980
f 993 884 873
f 993 979 992
f 993 980 979
f 994 983 876
f 994 876 887
f 888 994 887
f 888 995 994
f 984 890 878
f 984 997 890
f 997 889 890
f 997 996 889
f 891 890 997
f 891 997 998
f 998 997 984
f 998 984 985
f 999 998 985
f 999 985 986
f 1001 988 880
f 1001 880 892
f 1000 987 988
f 1000 988 1001
f 1002 881 989
f 1002 893 881
f 1002 892 893
f 1002 1001 892
f 1003 990 882
f 1003 882 894
f 1003 1002 989
f 1003 989 990
f 993 895 884
f 993 1005 895
f 1004 993 992
f 1004 1005 993
f 1006 896 895
f 1006 895 1005
f 1007 995 888
f 1007 888 898
f 996 899 889
f 996 1008 899
f 899 1007 898
f 899 1008 1007
f 1007 996 995
f 1007 1008 996
f 997 890 900
f 997 900 1009
f 1009 1008 996
f 1009 996 997
f 998 901 891
f 998 1010 901
f 901 1009 900
f 901 1010 1009
f 1014 1013 1000
f 1014 1000 1001
f 1015 903 902
f 1015 902 1014
f 1014 1001 1002
f 1014 1002 1015
f 1003 894 904
f 1003 904 1016
f 1015 1002 1003
f 1015 1003 1016
f 1018 1004 1017
f 1018 1005 1004
f 1006 905 896
f 1006 1019 905
f 1020 1008 1009
f 1020 1009 1021
f 1022 1021 1009
f 1022 1009 1010
f 1022 1010 1011
f 1022 1011 1023
f 1024 908 907
f 1024 907 1023
f 1025 909 908
f 1025 908 1024
f 1025 1024 1012
f 1025 1012 1013
f 1026 1014 902
f 1026 902 910
f 1026 910 909
f 1026 909 1025
f 1026 1025 1013
f 1026 1013 1014
f 1027 903 1015
f 1027 911 903
f 1028 1016 904
f 1028 904 912
f 912 911 1027
f 912 1027 1028
f 1027 1015 1016
f 1027 1016 1028
f 1019 913 905
f 1019 1029 913
f 1030 1021 1022
f 1030 1022 1031
f 1032 1023 907
f 1032 907 916
f 1032 916 915
f 1032 915 1031
f 1032 1031 1022
f 1032 1022 1023
f 1033 913 1029
f 1033 920 913
f 1035 1031 915
f 1035 915 924
f 1035 924 923
f 1035 923 1034
f 1035 1034 1030
f 1035 1030 1031
f 1036 920 1033
f 1036 926 920
f 927 926 1036
f 927 1036 1037
f 1038 1034 923
f 1038 923 929
f 1037 931 927
f 1037 1039 931
f 1038 929 934
f 1038 934 1041
f 934 933 1040
f 934 1040 1041
f 1039 936 931
f 1039 1043 936
f 936 1042 935
f 936 1043 1042
f 1045 1040 933
f 1045 933 938
f 938 937 1044
f 938 1044 1045
f 1042 940 935
f 1042 1047 940
f 940 1046 939
f 940 1047 1046
f 1048 1047 1042
f 1048 1042 1043
f 1044 937 942
f 1044 942 1050
f 1051 1044 1050
f 1051 1045 1044
f 1052 939 1046
f 1052 944 939
f 945 944 1052
f 945 1052 1053
f 1053 1052 1046
f 1053 1046 1047
f 1054 946 945
f 1054 945 1053
f 1054 1053 1047
f 1054 1047 1048
f 947 946 1054
f 947 1054 1055
f 1055 1054 1048
f 1055 1048 1049
f 1050 942 948
f 1050 948 1056
f 948 947 1055
f 948 1055 1056
f 1056 1055 1049
f 1056 1049 1050
f 958 1057 957
f 958 1058 1057
f 1060 959 960
f 1060 1059 959
f 965 1063 964
f 965 1064 1063
f 1057 966 957
f 1057 1065 966
f 1065 965 966
f 1065 1064 965
f 1058 958 967
f 1058 967 1066
f 1065 1057 1058
f 1065 1058 1066
f 1059 968 959
f 1059 1067 968
f 1067 967 968
f 1067 1066 967
f 1060 960 969
f 1060 969 1068
f 1068 1067 1059
f 1068 1059 1060
f 1072 972 973
f 1072 1071 972
f 1071 1062 1061
f 1071 1072 1062
f 1063 975 964
f 1063 1076 975
f 1077 1076 1063
f 1077 1063 1064
f 1078 1066 1067
f 1078 1067 1079
f 1080 1068 969
f 1080 969 976
f 1080 1079 1067
f 1080 1067 1068
f 1081 1070 1069
f 1081 1082 1070
f 1083 972 1071
f 1083 979 972
f 1083 1070 1082
f 1083 1071 1070
f 1084 1072 973
f 1084 973 980
f 981 1084 980
f 981 1085 1084
f 1084 1073 1072
f 1084 1085 1073
f 982 1085 981
f 982 1086 1085
f 1086 1073 1085
f 1086 1074 1073
f 983 1086 982
f 983 1087 1086
f 1086 1075 1074
f 1086 1087 1075
f 1076 986 975
f 1076 1089 986
f 1090 1089 1076
f 1090 1076 1077
f 1092 988 987
f 1092 987 1091
f 1093 989 988
f 1093 988 1092
f 1094 1080 976
f 1094 976 990
f 1094 990 989
f 1094 989 1093
f 1094 1093 1079
f 1094 1079 1080
f 1083 992 979
f 1083 1096 992
f 1095 1083 1082
f 1095 1096 1083
f 1097 1087 983
f 1097 983 994
f 995 1097 994
f 995 1098 1097
f 1097 1088 1087
f 1097 1098 1088
f 1099 995 996
f 1099 1098 995
f 1089 999 986
f 1089 1101 999
f 999 1100 998
f 999 1101 1100
f 1101 1089 1090
f 1101 1090 1102
f 1091 987 1000
f 1091 1000 1103
f 1104 992 1096
f 1104 1004 992
f 1006 1005 1105
f 1006 1105 1106
f 1099 996 1008
f 1099 1008 1107
f 1100 1010 998
f 1100 1108 1010
f 1011 1010 1108
f 1011 1108 1109
f 1109 1108 1100
f 1109 1100 1101
f 1109 1101 1102
f 1109 1102 1110
f 1111 1103 1000
f 1111 1000 1013
f 1111 1013 1012
f 1111 1012 1110
f 1111 1110 1102
f 1111 1102 1103
f 1112 1004 1104
f 1112 1017 1004
f 1105 1005 1018
f 1105 1018 1113
f 1018 1017 1112
f 1018 1112 1113
f 1106 1019 1006
f 1106 1114 1019
f 1114 1105 1113
f 1114 1106 1105
f 1107 1008 1020
f 1107 1020 1115
f 1116 1020 1021
f 1116 1115 1020
f 1117 1011 1109
f 1117 1023 1011
f 1118 1110 1012
f 1118 1012 1024
f 1024 1023 1117
f 1024 1117 1118
f 1117 1109 1110
f 1117 1110 1118
f 1114 1029 1019
f 1114 1120 1029
f 1119 1114 1113
f 1119 1120 1114
f 1116 1021 1030
f 1116 1030 1122
f 1120 1033 1029
f 1120 1124 1033
f 1123 1120 1119
f 1123 1124 1120
f 1129 1122 1030
f 1129 1030 1034
f 1129 1128 1121
f 1129 1121 1122
f 1130 1033 1124
f 1130 1036 1033
f 1037 1036 1130
f 1037 1130 1131
f 1130 1124 1125
f 1130 1125 1131
f 1132 1131 1125
f 1132 1125 1126
f 1133 1132 1126
f 1133 1126 1127
f 1134 1133 1127
f 1134 1127 1128
f 1129 1034 1038
f 1129 1038 1135
f 1134 1128 1129
f 1134 1129 1135
f 1136 1037 1131
f 1136 1039 1037
f 1140 1135 1038
f 1140 1038 1041
f 1140 1041 1040
f 1140 1040 1139
f 1140 1139 1134
f 1140 1134 1135
f 1141 1039 1136
f 1141 1043 1039
f 1141 1136 1137
f 1141 1137 1142
f 1142 1137 1138
f 1142 1138 1143
f 1144 1139 1040
f 1144 1040 1045
f 1144 1143 1138
f 1144 1138 1139
f 1145 1043 1141
f 1145 1048 1043
f 1049 1048 1145
f 1049 1145 1146
f 1145 1141 1142
f 1145 1142 1146
f 1147 1050 1049
f 1147 1049 1146
f 1146 1142 1143
f 1146 1143 1147
f 1144 1045 1051
f 1144 1051 1148
f 1051 1050 1147
f 1051 1147 1148
f 1148 1147 1143
f 1148 1143 1144
f 1062 1153 1061
f 1062 1154 1153
f 1156 1149 1155
f 1156 1150 1149
f 1156 1151 1150
f 1156 1157 1151
f 1065 1158 1064
f 1065 1159 1158
f 1160 1065 1066
f 1160 1159 1065
f 1070 1161 1069
f 1070 1162 1161
f 1163 1061 1153
f 1163 1071 1061
f 1163 1070 1071
f 1163 1162 1070
f 1163 1152 1162
f 1163 1153 1152
f 1164 1154 1062
f 1164 1062 1072
f 1073 1164 1072
f 1073 1165 1164
f 1164 1155 1154
f 1164 1165 1155
f 1074 1165 1073
f 1074 1166 1165
f 1165 1156 1155
f 1165 1166 1156
f 1075 1166 1074
f 1075 1167 1166
f 1166 1157 1156
f 1166 1167 1157
f 1158 1077 1064
f 1158 1169 1077
f 1170 1169 1158
f 1170 1158 1159
f 1160 1066 1078
f 1160 1078 1171
f 1170 1159 1160
f 1170 1160 1171
f 1172 1078 1079
f 1172 1171 1078
f 1161 1081 1069
f 1161 1173 1081
f 1174 1082 1081
f 1174 1081 1173
f 1174 1173 1161
f 1174 1161 1162
f 1175 1167 1075
f 1175 1075 1087
f 1088 1175 1087
f 1088 1176 1175
f 1175 1168 1167
f 1175 1176 1168
f 1177 1077 1169
f 1177 1090 1077
f 1178 1177 1169
f 1178 1169 1170
f 1179 1092 1091
f 1179 1091 1178
f 1179 1178 1170
f 1179 1170 1171
f 1180 1172 1079
f 1180 1079 1093
f 1180 1093 1092
f 1180 1092 1179
f 1179 1171 1172
f 1179 1172 1180
f 1181 1082 1174
f 1181 1095 1082
f 1182 1096 1095
f 1182 1095 1181
f 1183 1176 1088
f 1183 1088 1098
f 1099 1183 1098
f 1099 1184 1183
f 1185 1090 1177
f 1185 1102 1090
f 1186 1178 1091
f 1186 1091 1103
f 1103 1102 1185
f 1103 1185 1186
f 1186 1185 1177
f 1186 1177 1178
f 1182 1104 1096
f 1182 1187 1104
f 1184 1099 1107
f 1184 1107 1189
f 1190 1104 1187
f 1190 1112 1104
f 1113 1112 1190
f 1113 1190 1191
f 1190 1187 1188
f 1190 1188 1191
f 1189 1107 1115
f 1189 1115 1192
f 1193 1115 1116
f 1193 1192 1115
f 1191 1119 1113
f 1191 1194 1119
f 1200 1193 1116
f 1200 1116 1122
f 1200 1122 1121
f 1200 1121 1199
f 1200 1199 1192
f 1200 1192 1193
f 1201 1119 1194
f 1201 1123 1119
f 1202 1124 1123
f 1202 1123 1201
f 1201 1194 1195
f 1201 1195 1202
f 1125 1124 1202
f 1125 1202 1203
f 1202 1195 1196
f 1202 1196 1203
f 1204 1126 1125
f 1204 1125 1203
f 1205 1127 1126
f 1205 1126 1204
f 1205 1204 1197
f 1205 1197 1198
f 1206 1199 1121
f 1206 1121 1128
f 1206 1128 1127
f 1206 1127 1205
f 1206 1205 1198
f 1206 1198 1199
f 1132 1207 1131
f 1132 1208 1207
f 1133 1208 1132
f 1133 1209 1208
f 1210 1133 1134
f 1210 1209 1133
f 1207 1136 1131
f 1207 1211 1136
f 1137 1136 1211
f 1137 1211 1212
f 1212 1211 1207
f 1212 1207 1208
f 1213 1138 1137
f 1213 1137 1212
f 1212 1208 1209
f 1212 1209 1213
f 1214 1210 1134
f 1214 1134 1139
f 1214 1139 1138
f 1214 1138 1213
f 1213 1209 1210
f 1213 1210 1214
f 1217 1149 1150
f 1217 1216 1149
f 1218 1150 1151
f 1218 1217 1150
f 1220 1152 1153
f 1220 1219 1152
f 1154 1220 1153
f 1154 1221 1220
f 1222 1149 1216
f 1222 1155 1149
f 1155 1221 1154
f 1155 1222 1221
f 1222 1215 1221
f 1222 1216 1215
f 1222 1216 1217
f 1222 1217 1223
f 1218 1151 1157
f 1218 1157 1224
f 1223 1217 1218
f 1223 1218 1224
f 1226 1152 1219
f 1226 1162 1152
f 1227 1224 1157
f 1227 1157 1167
f 1168 1227 1167
f 1168 1228 1227
f 1227 1225 1224
f 1227 1228 1225
f 1229 1162 1226
f 1229 1174 1162
f 1233 1228 1168
f 1233 1168 1176
f 1229 1181 1174
f 1229 1234 1181
f 1235 1182 1181
f 1235 1181 1234
f 1236 1230 1231
f 1236 1231 1237
f 1239 1233 1176
f 1239 1176 1183
f 1239 1238 1232
f 1239 1232 1233
f 1240 1183 1184
f 1240 1239 1183
f 1242 1182 1235
f 1242 1187 1182
f 1241 1235 1234
f 1241 1242 1235
f 1188 1187 1242
f 1188 1242 1243
f 1244 1236 1237
f 1244 1237 1245
f 1246 1245 1237
f 1246 1237 1238
f 1246 1238 1239
f 1246 1239 1247
f 1240 1184 1189
f 1240 1189 1248
f 1247 1239 1240
f 1247 1240 1248
f 1249 1188 1243
f 1249 1191 1188
f 1251 1245 1246
f 1251 1246 1252
f 1253 1252 1246
f 1253 1246 1247
f 1254 1248 1189
f 1254 1189 1192
f 1254 1253 1247
f 1254 1247 1248
f 1255 1191 1249
f 1255 1194 1191
f 1195 1194 1255
f 1195 1255 1256
f 1255 1249 1250
f 1255 1250 1256
f 1196 1195 1256
f 1196 1256 1257
f 1256 1250 1251
f 1256 1251 1257
f 1257 1251 1252
f 1257 1252 1258
f 1259 1198 1197
f 1259 1197 1258
f 1259 1258 1252
f 1259 1252 1253
f 1260 1254 1192
f 1260 1192 1199
f 1260 1199 1198
f 1260 1198 1259
f 1260 1259 1253
f 1260 1253 1254
f 1261 1196 1257
f 1261 1203 1196
f 1262 1258 1197
f 1262 1197 1204
f 1262 1204 1203
f 1262 1203 1261
f 1262 1261 1257
f 1262 1257 1258
f 1216 1263 1215
f 1216 1264 1263
f 1267 1219 1220
f 1267 1266 1219
f 1263 1221 1215
f 1263 1268 1221
f 1268 1220 1221
f 1268 1267 1220
f 1264 1216 1222
f 1264 1222 1269
f 1269 1268 1263
f 1269 1263 1264
f 1223 1269 1222
f 1223 1270 1269
f 1269 1265 1264
f 1269 1270 1265
f 1271 1223 1224
f 1271 1270 1223
f 1225 1271 1224
f 1225 1272 1271
f 1266 1226 1219
f 1266 1273 1226
f 1274 1267 1268
f 1274 1268 1275
f 1275 1268 1269
f 1275 1269 1276
f 1276 1269 1270
f 1276 1270 1277
f 1277 1270 1271
f 1277 1271 1278
f 1279 1272 1225
f 1279 1225 1228
f 1278 1271 1272
f 1278 1272 1279
f 1273 1229 1226
f 1273 1280 1229
f 1283 1231 1230
f 1283 1230 1282
f 1282 1276 1277
f 1282 1277 1283
f 1284 1283 1277
f 1284 1277 1278
f 1285 1279 1228
f 1285 1228 1233
f 1285 1233 1232
f 1285 1232 1284
f 1285 1284 1278
f 1285 1278 1279
f 1286 1229 1280
f 1286 1234 1229
f 1286 1280 1281
f 1286 1281 1287
f 1289 1282 1230
f 1289 1230 1236
f 1290 1231 1283
f 1290 1237 1231
f 1291 1284 1232
f 1291 1232 1238
f 1291 1238 1237
f 1291 1237 1290
f 1291 1290 1283
f 1291 1283 1284
f 1286 1241 1234
f 1286 1292 1241
f 1293 1242 1241
f 1293 1241 1292
f 1293 1292 1286
f 1293 1286 1287
f 1243 1242 1293
f 1243 1293 1294
f 1293 1287 1288
f 1293 1288 1294
f 1289 1236 1244
f 1289 1244 1295
f 1296 1244 1245
f 1296 1295 1244
f 1297 1243 1294
f 1297 1249 1243
f 1250 1249 1297
f 1250 1297 1298
f 1297 1294 1295
f 1297 1295 1298
f 1299 1296 1245
f 1299 1245 1251
f 1299 1251 1250
f 1299 1250 1298
f 1298 1295 1296
f 1298 1296 1299
f 1265 1300 1264
f 1265 1301 1300
f 1303 1266 1267
f 1303 1302 1266
f 1304 1264 1300
f 1304 1269 1264
f 1305 1301 1265
f 1305 1265 1270
f 1305 1270 1269
f 1305 1269 1304
f 1304 1300 1301
f 1304 1301 1305
f 1302 1273 1266
f 1302 1306 1273
f 1303 1267 1274
f 1303 1274 1307
f 1306 1302 1303
f 1306 1303 1307
f 1308 1274 1275
f 1308 1307 1274
f 1309 1275 1276
f 1309 1308 1275
f 1310 1273 1306
f 1310 1280 1273
f 1281 1280 1310
f 1281 1310 1311
f 1310 1306 1307
f 1310 1307 1311
f 1311 1307 1308
f 1311 1308 1312
f 1309 1276 1282
f 1309 1282 1313
f 1312 1308 1309
f 1312 1309 1313
f 1314 1281 1311
f 1314 1287 1281
f 1288 1287 1314
f 1288 1314 1315
f 1313 1282 1289
f 1313 1289 1316
f 1316 1315 1312
f 1316 1312 1313
f 1317 1288 1315
f 1317 1294 1288
f 1318 1316 1289
f 1318 1289 1295
f 1318 1295 1294
f 1318 1294 1317
f 1317 1315 1316
f 1317 1316 1318
f 1312 1319 1311
f 1312 1320 1319
f 1319 1314 1311
f 1319 1321 1314
f 1322 1320 1312
f 1322 1312 1315
f 1322 1315 1314
f 1322 1314 1321
f 1321 1319 1320
f 1321 1320 1322
