# parsimony mesh: eg10762_monomer (source /Users/eranagmon/code/v2e-cplx/workspace/studies/ecoli-3d/viz/3d/structures/eg10762_monomer.pdb)
# atoms: 2897  voxel: 8 Å  verts: 333  tris: 676
v 10.9201 18.8657 -55.9033
v 11.2574 18.8657 -55.9033
v 10.9201 19.2963 -55.9033
v 14.7646 22.8416 -56.0288
v 19.3159 26.3868 -56.1542
v 18.2718 27.7319 -56.1542
v 19.3159 27.7319 -56.1542
v 2.4036 17.6202 -48.0798
v 7.7607 16.8598 -51.1756
v 12.2130 17.3545 -51.8193
v 2.4036 19.8266 -48.0798
v 7.5892 22.2281 -51.2478
v 14.8096 22.9569 -52.9321
v 20.7491 25.7023 -51.8193
v 9.5838 30.9897 -49.6236
v 14.9130 30.4875 -51.6888
v 20.7491 28.2364 -51.8193
v 10.5343 35.2311 -48.9618
v 11.5542 35.2311 -48.9618
v 2.5333 10.2856 -41.4373
v 7.0215 10.3354 -41.7415
v 11.3459 10.8215 -40.7643
v 1.6272 14.9680 -43.9901
v 7.0215 12.4204 -45.7415
v 14.5267 15.2906 -42.9636
v 19.0248 18.9812 -39.8297
v 1.4774 22.6919 -43.9548
v 4.2583 25.1600 -46.7118
v 17.7076 20.5428 -45.1630
v 20.8919 23.1216 -43.0255
v 2.2836 28.1011 -41.3784
v 7.3963 30.7422 -44.2900
v 14.5411 32.2693 -44.2487
v 21.3571 28.7939 -43.8193
v 10.5343 35.2311 -47.2016
v 11.5542 35.2311 -47.2016
v 1.7606 9.9410 -35.8193
v 7.0215 9.5627 -35.8193
v 11.4855 10.6114 -35.8193
v -5.5246 17.9518 -32.9017
v -1.9179 15.1670 -35.6688
v 15.3894 15.7846 -36.6139
v 19.0248 18.9812 -39.8103
v -5.5246 19.7105 -32.9017
v -1.9100 22.6222 -35.6688
v 16.8883 22.9897 -34.9912
v 19.8527 22.9897 -38.9912
v 1.7705 28.4429 -35.8193
v 7.0215 29.9916 -35.8193
v 14.9183 29.1200 -35.9623
v 20.1265 28.4753 -38.7242
v -5.2745 2.4352 -24.1707
v -0.9785 2.2953 -24.3681
v 4.5916 2.6184 -24.1996
v -6.0686 6.9897 -25.0972
v -0.8944 7.3732 -28.2698
v 7.1635 5.9434 -27.2475
v 11.8331 9.2024 -27.8193
v -6.5797 15.1670 -27.8308
v -3.5049 12.6185 -30.5052
v 13.1498 14.9897 -27.8193
v -6.1119 20.7159 -27.8193
v -2.3139 24.7159 -27.8193
v 9.2002 25.3802 -24.7245
v 12.7716 22.8240 -27.5624
v 1.6861 27.8467 -27.8193
v 6.7287 28.2780 -27.5624
v 12.1828 27.9942 -30.0578
v 10.8745 -13.0413 -15.8333
v 11.0629 -13.0413 -15.8333
v 10.8745 -12.9817 -15.8333
v 11.0629 -12.9817 -15.8333
v -5.2745 2.4352 -22.6245
v -1.2874 1.2205 -19.9024
v 7.1635 1.1240 -20.2268
v 11.6890 2.2744 -17.8318
v -6.0686 6.9897 -22.3437
v -2.8587 6.9897 -18.3437
v 9.9249 3.6096 -23.1652
v 12.4451 6.5616 -20.2268
v -6.5704 14.9897 -22.5523
v -0.5738 15.7078 -18.0633
v 7.0215 17.7938 -17.2921
v 12.3013 14.9148 -20.1400
v -5.9436 20.5706 -22.9027
v -0.6888 23.1382 -21.4374
v 6.7287 22.8240 -21.5081
v 11.4492 20.0469 -23.0204
v 2.1710 27.3061 -23.3368
v 3.8668 27.3061 -23.3368
v 2.5769 -21.0838 -8.0080
v 7.0215 -21.5441 -8.5799
v 15.0215 -22.7843 -9.2357
v 23.0215 -23.0981 -9.0082
v 27.9152 -22.0670 -8.3414
v -5.4570 -14.2067 -8.1937
v -0.4453 -16.9281 -9.3374
v 7.7333 -16.2289 -12.8080
v 14.2463 -16.2289 -12.8436
v 23.1073 -17.0514 -9.4617
v 27.9152 -19.7455 -8.3414
v -5.4570 -10.8272 -8.1937
v -1.6518 -8.5004 -10.4158
v 7.7333 -9.7931 -13.7475
v 14.0977 -9.7579 -11.3589
v 20.4978 -11.8674 -8.9714
v -0.4922 -1.4240 -12.2109
v 7.0215 -3.0639 -13.7542
v 13.2767 -0.6395 -11.3756
v 0.5858 7.6529 -11.1214
v 3.4588 10.7617 -7.9894
v 14.1964 6.9897 -11.8193
v 2.3626 13.5199 -13.3227
v 6.4839 13.3452 -11.1214
v 11.9606 12.0364 -11.8193
v 26.9389 -29.0308 0.1095
v 27.0520 -29.0308 0.1095
v -5.5344 -21.8013 -1.4369
v -0.4453 -22.5257 -3.9899
v 7.0215 -23.6723 -3.8193
v 15.0215 -24.6650 -3.8193
v 23.7719 -26.6792 -3.0620
v 27.9912 -24.8443 -3.0620
v -6.6324 -16.9281 -3.9899
v -2.7564 -19.5400 -6.7703
v 25.8311 -14.4122 -5.4234
v 28.0230 -17.0514 -3.1818
v -7.6683 -8.5004 -4.5046
v -4.7674 -5.4938 -7.6280
v 17.1324 -6.5341 -5.8503
v 22.7844 -9.6840 -2.9702
v 27.1049 -12.8339 -0.0901
v -7.3855 -1.0103 -3.0283
v -1.2165 0.4934 -4.2576
v 3.5980 2.4984 -0.5634
v 17.3898 -0.6104 -3.4379
v 19.7377 -3.0105 -0.5169
v -14.0351 9.9624 -0.5577
v -8.9700 6.8999 -1.0902
v -0.6950 4.6328 -3.7597
v 6.1951 7.3819 -3.9619
v 13.9241 6.7971 -4.3439
v -21.7599 18.3272 -0.7699
v -16.8125 15.3922 -1.3502
v -11.9660 14.9897 -1.0200
v 8.7922 11.1768 -7.3604
v 11.3563 11.1768 -7.3604
v -22.4780 22.9897 -1.5404
v -16.9785 22.9897 -2.4255
v -12.6407 22.9897 -0.7044
v -22.1964 29.0268 -1.1636
v -16.9785 28.6049 -1.0656
v -12.9342 27.1061 -0.1368
v 25.8514 -29.4673 4.1807
v 30.2398 -29.5851 4.7827
v 35.3008 -29.3590 7.8507
v -5.5344 -21.8013 1.6497
v -1.2402 -23.5742 4.2621
v 7.0215 -25.6766 4.1807
v 15.0215 -25.2273 4.1807
v 21.8514 -27.1726 4.1807
v 31.4359 -25.2951 4.7827
v 35.3008 -28.1516 7.8507
v -6.7584 -17.1080 4.2621
v -4.0813 -19.8398 6.9831
v 28.7551 -17.0103 4.1807
v -14.8613 -5.5863 6.1430
v -10.9943 -8.5559 3.7581
v 24.9198 -8.1288 4.1807
v 27.2599 -12.1288 4.1807
v -15.4178 -1.0103 6.0159
v -11.3855 -1.0103 2.0159
v 2.4742 2.4984 2.2430
v 6.0478 1.9514 4.4272
v 15.5351 0.8097 4.0391
v 20.9198 -2.5464 4.1807
v -21.6995 9.6547 7.3352
v -16.8583 7.1419 4.6669
v -9.1843 6.6795 3.2455
v -0.5069 4.0010 4.6181
v 6.0478 3.5201 4.4272
v 13.2108 4.0021 1.2780
v -22.5661 15.3922 4.4734
v -19.3685 12.9939 2.0019
v -10.7202 14.9897 4.1807
v -25.0909 22.9897 4.1807
v -11.7140 22.9897 4.1807
v -23.3045 31.4120 4.2923
v -17.6647 31.8058 4.2923
v -12.6372 27.4819 4.1807
v -21.2969 35.1144 7.0334
v -20.7888 35.1144 7.0334
v 25.5439 -29.5992 10.6525
v 31.0215 -29.7135 10.9433
v 35.3008 -29.3590 9.3924
v 1.5900 -22.6536 12.1807
v 7.0215 -25.1913 12.1807
v 15.0215 -25.3739 12.1807
v 22.9349 -27.1851 12.8638
v 32.1507 -25.5501 12.9212
v 35.2961 -25.0450 12.4753
v -29.0672 -13.0999 16.1259
v -24.9785 -13.7120 14.4506
v -16.9785 -13.7555 14.3090
v -8.5933 -13.8322 13.1349
v -2.6554 -17.1080 12.6719
v 25.7597 -13.6621 14.6137
v 30.4562 -17.2347 12.4193
v 35.2915 -20.8074 15.5583
v -29.0672 -12.8446 16.1259
v -25.0784 -9.7109 13.4362
v -17.3082 -8.5559 10.1229
v -8.5933 -11.7403 13.1349
v -4.5313 -12.5609 15.6660
v 24.3713 -9.2109 12.0405
v 27.2560 -12.0113 9.2804
v -22.7847 -1.0103 13.3930
v -19.4178 -1.0103 9.3930
v 7.1309 0.5220 12.1807
v 15.0215 -2.4666 12.1807
v 20.6551 -3.9989 12.1807
v -22.1807 6.9887 12.1109
v -19.6814 4.3214 9.3978
v -6.8090 9.1124 10.0944
v -1.3805 6.6940 12.5289
v 3.1309 3.0281 12.1807
v -23.4867 14.9897 12.1807
v -8.0779 14.7750 12.5289
v -4.3152 11.9652 15.4278
v -23.7322 23.7721 12.9630
v -16.9785 25.9775 14.9386
v -11.5332 22.9975 12.0047
v -22.9726 30.9897 10.2989
v -17.6647 30.5137 10.4993
v -12.5678 27.5296 9.2207
v -21.2969 35.1144 8.3677
v -20.7888 35.1144 8.3677
v -30.2023 -21.8134 23.5001
v -27.4166 -21.8134 23.5001
v 2.8822 -21.3802 16.4341
v 7.4325 -22.6120 19.5327
v 15.0215 -23.6020 20.1807
v 22.4168 -23.2180 20.0134
v 31.0215 -23.5990 17.1005
v 35.2915 -21.9385 16.3526
v -37.0531 -13.2570 24.0762
v -32.3015 -15.8451 21.1215
v -24.8414 -17.7866 20.5723
v -16.9785 -16.3585 20.1807
v -10.9271 -14.4554 20.1807
v 1.2525 -17.0103 17.3255
v 5.5520 -17.0103 21.3255
v 18.1423 -14.7052 22.8277
v 22.5534 -16.8503 20.0314
v 31.0215 -19.3469 17.1005
v 35.2915 -20.8074 16.3526
v -37.0531 -12.9147 24.0762
v -31.9207 -10.2130 21.0525
v -27.8116 -7.5113 18.0289
v -6.9271 -11.1265 20.1807
v -1.8100 -9.0877 20.0920
v 7.0348 -8.9506 21.7702
v 15.2940 -8.9506 21.0855
v 20.3476 -9.0103 17.1917
v -29.4408 -2.6893 23.3622
v -27.0965 -0.4177 20.4896
v -0.4626 -1.0103 21.0944
v 6.2234 -1.2333 17.8076
v 15.0215 -4.2418 17.3264
v 19.3848 -4.9472 16.2151
v -23.2211 7.2643 20.2305
v -19.9402 10.1140 22.9304
v -5.8711 9.2160 23.3743
v -1.9145 6.1042 19.7785
v 3.0247 2.9924 16.1826
v -22.0883 14.9897 18.1242
v -17.1555 14.9429 21.8706
v -8.8382 14.7717 20.5567
v -4.3152 11.9652 18.0410
v -22.0842 21.6270 17.3558
v -16.9785 21.9775 18.2308
v -11.8053 20.3361 17.7391
v -30.9789 -22.6529 28.1807
v -24.8414 -23.5068 28.0256
v -16.9785 -22.8542 29.8642
v -12.5167 -21.4983 30.6839
v 10.3733 -21.4892 24.5618
v 15.0215 -21.5746 24.6150
v 19.3471 -21.2838 24.3787
v -37.0531 -13.2570 24.4607
v -34.8022 -16.3583 27.5487
v -22.0833 -20.0352 25.2555
v -15.4122 -16.8502 28.5278
v -12.1094 -16.6444 28.7149
v 9.5520 -17.0103 24.9346
v 15.2940 -17.2273 24.9026
v 19.3471 -20.0386 24.3787
v -37.0531 -12.9147 24.4607
v -32.7291 -9.1521 27.9103
v -28.1583 -5.3895 31.3599
v -13.8997 -9.0103 31.7810
v -9.0127 -8.5729 27.4160
v -4.4220 -5.6146 24.7725
v 9.7103 -11.5775 24.8047
v 12.8090 -11.5775 24.8047
v -29.4408 -2.6893 26.0266
v -25.7959 0.0383 29.0365
v -16.7083 -0.3446 30.9970
v -8.9785 -1.0103 27.3494
v -4.4626 -1.0103 24.7282
v -23.4336 4.7806 26.7130
v -17.1555 7.2643 26.7294
v -8.7141 6.7255 25.2930
v -4.8471 3.8826 24.3190
v -14.6069 12.2450 24.6366
v -11.2045 12.2450 24.6366
v -30.4219 -22.3973 33.4404
v -24.9785 -23.5285 33.6924
v -16.9785 -22.8542 33.1749
v -12.5167 -21.4983 32.7504
v -31.3937 -16.9671 36.1365
v -24.9008 -16.9671 36.9699
v -16.3857 -16.3037 33.3559
v -12.5167 -18.4993 32.7504
v -30.9149 -10.5404 36.1807
v -25.1703 -8.6970 35.5193
v -17.8997 -9.0103 33.1886
v -22.8249 -2.5674 32.8915
v -19.1948 -2.5674 32.8915
v -29.8548 -14.2716 40.9589
v -27.5157 -14.2716 40.9589
v -29.8548 -12.0046 40.9589
v -27.5157 -12.0046 40.9589
f 3 2 1
f 3 4 2
f 6 5 4
f 6 7 5
f 10 1 2
f 10 9 1
f 9 3 1
f 9 12 3
f 11 9 8
f 11 12 9
f 13 10 2
f 13 2 4
f 13 4 3
f 13 3 12
f 5 13 4
f 5 14 13
f 13 6 4
f 13 16 6
f 15 13 12
f 15 16 13
f 17 14 5
f 17 5 7
f 17 7 6
f 17 6 16
f 19 15 18
f 19 16 15
f 24 8 9
f 24 23 8
f 24 20 23
f 24 21 20
f 10 24 9
f 10 25 24
f 24 22 21
f 24 25 22
f 23 11 8
f 23 27 11
f 28 12 11
f 28 11 27
f 29 25 10
f 29 10 13
f 14 29 13
f 14 30 29
f 29 26 25
f 29 30 26
f 28 15 12
f 28 32 15
f 31 28 27
f 31 32 28
f 34 30 14
f 34 14 17
f 34 17 16
f 34 16 33
f 35 15 32
f 35 18 15
f 33 16 19
f 33 19 36
f 19 18 35
f 19 35 36
f 35 32 33
f 35 33 36
f 38 20 21
f 38 37 20
f 22 38 21
f 22 39 38
f 41 20 37
f 41 23 20
f 42 39 22
f 42 22 25
f 26 42 25
f 26 43 42
f 41 27 23
f 41 45 27
f 44 41 40
f 44 45 41
f 47 43 26
f 47 26 30
f 46 42 43
f 46 43 47
f 45 31 27
f 45 48 31
f 49 32 31
f 49 31 48
f 50 33 32
f 50 32 49
f 51 47 30
f 51 30 34
f 51 34 33
f 51 33 50
f 51 50 46
f 51 46 47
f 55 53 52
f 55 56 53
f 57 37 38
f 57 56 37
f 56 54 53
f 56 57 54
f 58 38 39
f 58 57 38
f 60 37 56
f 60 41 37
f 60 40 41
f 60 59 40
f 60 55 59
f 60 56 55
f 61 58 39
f 61 39 42
f 62 40 59
f 62 44 40
f 63 45 44
f 63 44 62
f 61 42 46
f 61 46 65
f 63 48 45
f 63 66 48
f 67 49 48
f 67 48 66
f 68 65 46
f 68 46 50
f 68 50 49
f 68 49 67
f 68 67 64
f 68 64 65
f 71 70 69
f 71 72 70
f 53 73 52
f 53 74 73
f 54 74 53
f 54 75 74
f 77 52 73
f 77 55 52
f 78 77 73
f 78 73 74
f 79 75 54
f 79 54 57
f 58 79 57
f 58 80 79
f 79 76 75
f 79 80 76
f 81 55 77
f 81 59 55
f 81 77 78
f 81 78 82
f 84 80 58
f 84 58 61
f 85 59 81
f 85 62 59
f 63 62 85
f 63 85 86
f 85 81 82
f 85 82 86
f 86 82 83
f 86 83 87
f 88 84 61
f 88 61 65
f 88 65 64
f 88 64 87
f 88 87 83
f 88 83 84
f 89 63 86
f 89 66 63
f 90 87 64
f 90 64 67
f 90 67 66
f 90 66 89
f 90 89 86
f 90 86 87
f 98 91 97
f 98 92 91
f 70 98 69
f 70 99 98
f 99 92 98
f 99 93 92
f 100 93 99
f 100 94 93
f 101 94 100
f 101 95 94
f 103 96 102
f 103 97 96
f 104 69 98
f 104 71 69
f 104 97 103
f 104 98 97
f 99 70 72
f 99 72 105
f 72 71 104
f 72 104 105
f 106 99 105
f 106 100 99
f 108 74 75
f 108 107 74
f 108 103 107
f 108 104 103
f 76 108 75
f 76 109 108
f 108 105 104
f 108 109 105
f 107 78 74
f 107 110 78
f 112 109 76
f 112 76 80
f 113 78 110
f 113 82 78
f 83 82 113
f 83 113 114
f 113 110 111
f 113 111 114
f 115 112 80
f 115 80 84
f 115 84 83
f 115 83 114
f 120 91 92
f 120 119 91
f 93 120 92
f 93 121 120
f 94 121 93
f 94 122 121
f 123 94 95
f 123 122 94
f 122 117 116
f 122 123 117
f 125 91 119
f 125 97 91
f 125 96 97
f 125 124 96
f 125 118 124
f 125 119 118
f 127 123 95
f 127 95 101
f 101 100 126
f 101 126 127
f 128 96 124
f 128 102 96
f 129 103 102
f 129 102 128
f 126 100 106
f 126 106 131
f 106 105 130
f 106 130 131
f 132 126 131
f 132 127 126
f 129 107 103
f 129 134 107
f 133 129 128
f 133 134 129
f 130 105 109
f 130 109 136
f 137 130 136
f 137 131 130
f 134 110 107
f 134 140 110
f 140 133 139
f 140 134 133
f 111 110 140
f 111 140 141
f 140 134 135
f 140 135 141
f 142 136 109
f 142 109 112
f 145 138 144
f 145 139 138
f 146 111 141
f 146 114 111
f 147 142 112
f 147 112 115
f 115 114 146
f 115 146 147
f 147 146 141
f 147 141 142
f 149 143 148
f 149 144 143
f 150 144 149
f 150 145 144
f 152 148 151
f 152 149 148
f 153 149 152
f 153 150 149
f 117 154 116
f 117 155 154
f 158 118 119
f 158 157 118
f 159 119 120
f 159 158 119
f 121 159 120
f 121 160 159
f 161 116 154
f 161 122 116
f 161 121 122
f 161 160 121
f 162 155 117
f 162 117 123
f 163 155 162
f 163 156 155
f 164 118 157
f 164 124 118
f 165 164 157
f 165 157 158
f 166 162 123
f 166 123 127
f 168 124 164
f 168 128 124
f 166 127 132
f 166 132 170
f 132 131 169
f 132 169 170
f 172 128 168
f 172 133 128
f 172 167 171
f 172 168 167
f 135 134 173
f 135 173 174
f 169 131 137
f 169 137 176
f 137 136 175
f 137 175 176
f 172 139 133
f 172 179 139
f 179 138 139
f 179 178 138
f 178 172 171
f 178 179 172
f 173 134 140
f 173 140 180
f 180 140 139
f 180 139 179
f 181 135 174
f 181 141 135
f 181 173 180
f 181 174 173
f 182 175 136
f 182 136 142
f 182 142 141
f 182 141 181
f 182 181 174
f 182 174 175
f 184 138 178
f 184 144 138
f 184 143 144
f 184 183 143
f 184 177 183
f 184 178 177
f 179 139 145
f 179 145 185
f 186 143 183
f 186 148 143
f 187 185 145
f 187 145 150
f 186 151 148
f 186 188 151
f 189 152 151
f 189 151 188
f 187 150 153
f 187 153 190
f 190 153 152
f 190 152 189
f 192 188 191
f 192 189 188
f 155 193 154
f 155 194 193
f 156 194 155
f 156 195 194
f 159 196 158
f 159 197 196
f 160 197 159
f 160 198 197
f 193 161 154
f 193 199 161
f 161 198 160
f 161 199 198
f 200 199 193
f 200 193 194
f 195 156 163
f 195 163 201
f 163 162 200
f 163 200 201
f 200 194 195
f 200 195 201
f 196 165 158
f 196 206 165
f 206 164 165
f 206 205 164
f 208 200 162
f 208 162 166
f 209 200 208
f 209 201 200
f 210 203 202
f 210 211 203
f 211 204 203
f 211 212 204
f 213 164 205
f 213 168 164
f 168 212 167
f 168 213 212
f 213 204 212
f 213 205 204
f 214 213 205
f 214 205 206
f 216 208 166
f 216 166 170
f 216 170 169
f 216 169 215
f 216 215 207
f 216 207 208
f 218 167 212
f 218 171 167
f 217 212 211
f 217 218 212
f 175 174 219
f 175 219 220
f 221 215 169
f 221 169 176
f 176 175 220
f 176 220 221
f 223 171 218
f 223 178 171
f 223 177 178
f 223 222 177
f 223 217 222
f 223 218 217
f 180 179 224
f 180 224 225
f 226 219 174
f 226 174 181
f 226 181 180
f 226 180 225
f 227 177 222
f 227 183 177
f 224 179 185
f 224 185 228
f 229 224 228
f 229 225 224
f 227 186 183
f 227 230 186
f 232 228 185
f 232 185 187
f 233 186 230
f 233 188 186
f 233 230 231
f 233 231 234
f 235 232 187
f 235 187 190
f 235 190 189
f 235 189 234
f 235 234 231
f 235 231 232
f 233 191 188
f 233 236 191
f 237 234 189
f 237 189 192
f 192 191 236
f 192 236 237
f 237 236 233
f 237 233 234
f 197 240 196
f 197 241 240
f 198 241 197
f 198 242 241
f 243 198 199
f 243 242 198
f 244 199 200
f 244 243 199
f 245 200 201
f 245 244 200
f 248 202 203
f 248 247 202
f 248 238 247
f 248 239 238
f 249 203 204
f 249 248 203
f 250 204 205
f 250 249 204
f 251 196 240
f 251 206 196
f 252 251 240
f 252 240 241
f 255 208 207
f 255 207 254
f 255 254 243
f 255 243 244
f 245 201 209
f 245 209 256
f 209 208 255
f 209 255 256
f 255 244 245
f 255 245 256
f 258 202 247
f 258 210 202
f 257 247 246
f 257 258 247
f 259 211 210
f 259 210 258
f 260 250 205
f 260 205 213
f 251 214 206
f 251 261 214
f 214 260 213
f 214 261 260
f 262 261 251
f 262 251 252
f 264 254 207
f 264 207 215
f 264 263 253
f 264 253 254
f 259 217 211
f 259 266 217
f 265 259 258
f 265 266 259
f 267 261 262
f 267 262 268
f 220 219 268
f 220 268 269
f 269 268 262
f 269 262 263
f 264 215 221
f 264 221 270
f 270 221 220
f 270 220 269
f 269 263 264
f 269 264 270
f 271 217 266
f 271 222 217
f 275 268 219
f 275 219 226
f 275 226 225
f 275 225 274
f 275 274 267
f 275 267 268
f 276 222 271
f 276 227 222
f 276 271 272
f 276 272 277
f 274 225 229
f 274 229 279
f 279 229 228
f 279 228 278
f 279 278 273
f 279 273 274
f 280 227 276
f 280 230 227
f 231 230 280
f 231 280 281
f 281 280 276
f 281 276 277
f 282 278 228
f 282 228 232
f 282 232 231
f 282 231 281
f 282 281 277
f 282 277 278
f 239 283 238
f 239 284 283
f 242 287 241
f 242 288 287
f 289 242 243
f 289 288 242
f 291 238 283
f 291 247 238
f 291 246 247
f 291 290 246
f 292 284 239
f 292 239 248
f 249 292 248
f 249 293 292
f 292 285 284
f 292 293 285
f 250 293 249
f 250 294 293
f 293 286 285
f 293 294 286
f 287 252 241
f 287 295 252
f 296 295 287
f 296 287 288
f 297 289 243
f 297 243 254
f 297 254 253
f 297 253 296
f 297 296 288
f 297 288 289
f 290 257 246
f 290 298 257
f 258 257 298
f 258 298 299
f 298 290 291
f 298 291 299
f 302 294 250
f 302 250 260
f 301 293 294
f 301 294 302
f 303 260 261
f 303 302 260
f 304 252 295
f 304 262 252
f 305 296 253
f 305 253 263
f 305 263 262
f 305 262 304
f 305 304 295
f 305 295 296
f 299 265 258
f 299 306 265
f 266 265 306
f 266 306 307
f 306 299 300
f 306 300 307
f 309 308 301
f 309 301 302
f 303 261 267
f 303 267 310
f 309 302 303
f 309 303 310
f 311 266 307
f 311 271 266
f 272 271 311
f 272 311 312
f 311 307 308
f 311 308 312
f 312 308 309
f 312 309 313
f 314 310 267
f 314 267 274
f 314 274 273
f 314 273 313
f 314 313 309
f 314 309 310
f 315 272 312
f 315 277 272
f 316 313 273
f 316 273 278
f 316 278 277
f 316 277 315
f 316 315 312
f 316 312 313
f 284 317 283
f 284 318 317
f 285 318 284
f 285 319 318
f 286 319 285
f 286 320 319
f 317 291 283
f 317 321 291
f 322 321 317
f 322 317 318
f 322 318 319
f 322 319 323
f 324 320 286
f 324 286 294
f 324 294 293
f 324 293 323
f 324 323 319
f 324 319 320
f 325 291 321
f 325 299 291
f 300 299 325
f 300 325 326
f 323 293 301
f 323 301 327
f 327 326 322
f 327 322 323
f 328 300 326
f 328 307 300
f 329 327 301
f 329 301 308
f 308 307 328
f 308 328 329
f 328 326 327
f 328 327 329
f 331 321 322
f 331 330 321
f 330 325 321
f 330 332 325
f 333 331 322
f 333 322 326
f 333 326 325
f 333 325 332
f 332 330 331
f 332 331 333
