# parsimony mesh: eg10308_monomer (source /Users/eranagmon/code/v2e-cplx/workspace/studies/ecoli-3d/viz/3d/structures/eg10308_monomer.pdb)
# atoms: 1272  voxel: 16 Å  verts: 38  tris: 68
v 0.3012 -16.9523 -28.5328
v 7.5976 -16.9523 -28.5328
v -0.6671 -8.0087 -30.1537
v 12.5968 -8.9287 -31.1152
v 22.7472 -4.2087 -30.1795
v 1.5397 1.7282 -30.1980
v 12.0956 3.5781 -31.3887
v 22.7472 3.0369 -30.1795
v -13.8924 -18.2896 -16.2377
v -4.5810 -19.0326 -20.8581
v 9.5647 -18.0780 -19.7887
v -14.5685 -8.0087 -17.1126
v -8.6671 -8.0087 -25.1126
v 17.5647 -13.2582 -19.7887
v 23.1851 -5.2582 -19.7887
v -13.4685 1.3137 -14.4381
v -3.8379 2.7073 -19.7784
v 12.0956 6.2236 -19.7887
v 23.1851 3.8204 -19.7887
v -13.8924 -18.2896 -8.2646
v -3.9044 -19.0809 -7.2862
v 7.8858 -17.8241 -9.3094
v -14.5685 -8.0087 -6.8204
v -3.9044 -8.0087 -3.8067
v 12.7697 -8.0883 -8.8765
v 21.5634 -2.8080 -10.9533
v -13.4685 1.3137 -8.6883
v -3.9044 2.0836 -8.3091
v 12.0956 2.6367 -10.0078
v 21.5634 2.0511 -10.9533
v -29.4836 13.2142 66.1707
v -25.3464 13.2142 66.1707
v -29.4836 17.6992 66.1707
v -25.3464 17.6992 66.1707
v -29.4836 13.2142 70.8197
v -25.3464 13.2142 70.8197
v -29.4836 17.6992 70.8197
v -25.3464 17.6992 70.8197
f 3 2 1
f 3 4 2
f 6 4 3
f 6 7 4
f 7 5 4
f 7 8 5
f 11 1 2
f 11 10 1
f 13 1 10
f 13 3 1
f 13 9 12
f 13 10 9
f 14 11 2
f 14 2 4
f 5 14 4
f 5 15 14
f 13 6 3
f 13 17 6
f 16 13 12
f 16 17 13
f 18 7 6
f 18 6 17
f 19 15 5
f 19 5 8
f 8 7 18
f 8 18 19
f 21 9 10
f 21 20 9
f 22 10 11
f 22 21 10
f 20 12 9
f 20 23 12
f 24 23 20
f 24 20 21
f 22 11 14
f 22 14 25
f 24 21 22
f 24 22 25
f 26 14 15
f 26 25 14
f 23 16 12
f 23 27 16
f 28 17 16
f 28 16 27
f 27 23 24
f 27 24 28
f 29 18 17
f 29 17 28
f 28 24 25
f 28 25 29
f 26 15 19
f 26 19 30
f 30 19 18
f 30 18 29
f 29 25 26
f 29 26 30
f 33 32 31
f 33 34 32
f 32 35 31
f 32 36 35
f 35 33 31
f 35 37 33
f 36 32 34
f 36 34 38
f 34 33 37
f 34 37 38
f 37 35 36
f 37 36 38
