# parsimony mesh: eg10467_monomer (source /Users/eranagmon/code/v2e-3d/out/ecoli3d/structures/eg10467_monomer.pdb)
# atoms: 648  voxel: 2.5 Å  verts: 1414  tris: 2912
v 22.3994 -13.4851 -24.6521
v 23.7444 -13.4772 -24.6435
v 25.0140 -13.4122 -24.5716
v 22.3879 -12.1415 -24.6648
v 23.8980 -12.0676 -24.6553
v 25.0140 -12.8516 -24.5716
v 22.4473 -10.8256 -24.6000
v 23.1672 -10.8256 -24.6000
v 22.3994 -13.4851 -24.1443
v 23.8398 -13.4843 -23.3061
v 25.0499 -13.4373 -23.2987
v 22.1279 -12.3142 -23.3061
v 23.9519 -12.2238 -23.5030
v 25.2794 -12.0676 -23.5365
v 22.1407 -9.8520 -23.0909
v 23.8980 -9.8520 -23.5871
v 25.3043 -9.6415 -22.6690
v 19.8041 -6.0789 -22.1722
v 21.3544 -7.1711 -22.1456
v 23.7444 -8.2842 -22.1119
v 25.0066 -8.3766 -22.0627
v 19.8041 -5.6000 -22.1722
v 20.2880 -5.6000 -22.1722
v 14.3833 -1.5302 -22.3787
v 16.2444 -1.6175 -22.4526
v 17.7498 -1.2208 -22.2572
v 22.4780 -1.2396 -22.0556
v 22.5780 -1.2396 -22.0556
v 14.3833 -0.2941 -22.3787
v 16.2444 -0.2642 -22.4526
v 17.7498 -0.6525 -22.2572
v 22.4780 -0.8663 -22.0556
v 22.5780 -0.8663 -22.0556
v 22.0917 -14.1531 -20.1605
v 23.9779 -13.7925 -20.8880
v 25.0488 -13.4319 -21.6155
v 21.8356 -12.3142 -20.9158
v 23.9779 -13.2074 -20.8880
v 25.4307 -12.2478 -20.7888
v 17.2446 -8.6634 -19.7689
v 18.0951 -8.6634 -19.7689
v 21.3765 -9.6415 -20.7987
v 25.7116 -9.6415 -20.7987
v 16.9892 -7.1415 -19.9496
v 18.9496 -7.1658 -20.6493
v 21.2080 -7.2860 -21.2244
v 23.9630 -6.8673 -20.8947
v 25.2071 -7.8323 -20.7987
v 12.0736 -3.6958 -19.7965
v 13.7444 -3.9144 -20.1874
v 16.2401 -4.6272 -20.4252
v 18.8802 -4.7166 -21.2923
v 21.1706 -4.7166 -21.6167
v 23.6283 -4.6415 -20.5969
v 7.3635 -1.1843 -19.6854
v 8.7444 -1.4145 -19.7952
v 11.2419 -2.1342 -19.9746
v 13.6277 -2.2747 -21.2216
v 16.7706 -2.0281 -20.7749
v 18.3181 -1.8089 -20.6800
v 21.2582 -1.9625 -20.9837
v 23.7350 -2.1796 -21.1051
v 25.1890 -1.4530 -20.1739
v 7.3635 -0.6434 -19.6854
v 8.7444 -0.3871 -19.7952
v 11.2444 -0.2964 -19.8952
v 13.6955 0.4250 -20.6242
v 16.3122 0.3600 -20.5132
v 18.5995 0.1048 -20.5893
v 21.2582 -0.0021 -20.7337
v 23.5197 0.1258 -20.8630
v 25.1890 -0.5489 -20.1739
v 11.7753 3.4672 -19.7611
v 13.7125 2.5697 -19.7620
v 15.1522 1.6722 -19.7630
v 19.4493 2.0291 -19.9152
v 21.2444 2.0420 -20.0762
v 22.7947 1.7660 -19.8855
v 11.7753 4.3713 -19.7611
v 12.7505 4.3713 -19.7611
v 22.4386 -15.9075 -17.3870
v 22.5579 -15.9075 -17.3870
v 19.2154 -13.7145 -17.3378
v 21.4318 -14.7671 -18.1958
v 23.7219 -14.8893 -18.4335
v 25.5192 -13.9589 -17.8133
v 17.4512 -11.5682 -17.1275
v 18.5270 -12.2975 -17.5389
v 20.7724 -12.1415 -18.8523
v 24.8859 -13.1521 -19.4800
v 26.2260 -12.1380 -18.4021
v 27.5848 -11.1239 -17.3241
v 17.2034 -9.5547 -18.0960
v 18.8548 -9.5547 -18.6794
v 20.5332 -9.6415 -19.0279
v 26.7423 -9.6844 -18.2139
v 27.5848 -10.5464 -17.3241
v 16.3134 -7.1415 -18.2987
v 19.8655 -7.1246 -18.1630
v 20.0802 -7.1246 -18.1630
v 24.9421 -5.9941 -19.4522
v 25.8806 -6.9531 -18.4908
v 11.8596 -3.7571 -18.2987
v 13.7444 -4.4371 -18.2987
v 15.3948 -5.3215 -18.2987
v 19.9691 -5.8483 -17.0873
v 21.2195 -4.6934 -17.0969
v 24.0837 -4.4462 -18.2794
v 25.4966 -5.3540 -17.7856
v 7.1541 -1.3020 -18.2987
v 8.7444 -2.1053 -18.2987
v 10.6096 -2.9448 -18.2987
v 17.4722 -0.9090 -19.4769
v 18.7444 -1.0000 -19.4237
v 21.2116 -2.1006 -18.2802
v 23.7907 -2.3177 -18.2091
v 25.1890 -1.4530 -19.3117
v 4.9066 1.3287 -17.1485
v 6.4342 0.3427 -18.1253
v 8.7444 0.8629 -19.0003
v 11.2444 0.9536 -19.2153
v 13.0078 1.1441 -19.3889
v 16.9711 0.3585 -19.3310
v 18.6673 0.1606 -19.3176
v 20.0383 -0.8046 -19.4538
v 23.8051 0.3141 -18.4065
v 25.1890 -0.5489 -19.3117
v 4.9066 1.8660 -17.1485
v 6.1076 2.7630 -17.7324
v 8.7444 2.8585 -18.7644
v 11.0629 2.7237 -19.2016
v 13.7125 2.5697 -19.1728
v 16.1311 2.7823 -18.3101
v 18.6673 2.5710 -18.4176
v 21.2444 2.4866 -18.2987
v 22.7364 1.7464 -18.2987
v 6.8497 4.7371 -17.7015
v 8.7444 4.9040 -18.0628
v 11.0629 4.9307 -18.4682
v 13.6481 5.0981 -18.1935
v 15.4434 4.8195 -17.2901
v 19.9024 -18.4130 -14.5803
v 20.0267 -18.4130 -14.5803
v 17.3354 -16.3423 -14.8521
v 18.9392 -17.1620 -15.0437
v 21.2327 -16.9073 -15.6428
v 23.5325 -16.2638 -15.8386
v 25.3231 -16.1471 -15.0319
v 17.3354 -15.6038 -14.8521
v 18.5936 -14.6592 -15.7787
v 20.7719 -15.3812 -16.7053
v 24.2245 -15.6256 -16.6986
v 25.6862 -14.7320 -15.8386
v 17.4512 -11.5682 -16.9062
v 18.0473 -12.2975 -15.9632
v 26.7248 -12.0310 -15.9223
v 27.5848 -11.1239 -16.8380
v 17.2679 -9.4768 -15.9632
v 17.8842 -10.2003 -15.2395
v 26.9624 -9.6844 -15.9223
v 27.5848 -10.5464 -16.8380
v 16.2608 -7.1415 -15.7987
v 19.9691 -5.9965 -17.0037
v 20.0542 -5.9965 -17.0037
v 26.7476 -7.1415 -15.7987
v 11.9485 -3.6597 -15.7987
v 13.7444 -4.5839 -15.7987
v 15.2615 -5.5657 -15.7987
v 19.9691 -5.8483 -17.0037
v 21.2195 -4.6934 -16.9608
v 23.7444 -3.7236 -16.7944
v 26.3864 -4.7367 -16.0510
v 28.1687 -4.1195 -15.2615
v -10.1851 -1.2928 -14.6415
v -8.7556 -1.1985 -14.6216
v -7.5009 -0.8995 -14.5531
v 7.1716 -1.1461 -16.6607
v 8.6956 -1.6410 -15.8159
v 10.6985 -2.8874 -15.7987
v 22.2067 -2.2505 -16.0057
v 23.2923 -2.1540 -16.0655
v 26.1953 -2.0282 -15.7317
v 28.3243 -2.1415 -15.5586
v -10.1851 -0.7027 -14.6415
v -8.7556 -0.7428 -14.6216
v -7.5009 -0.8820 -14.5531
v 4.5021 0.9255 -15.7987
v 6.3007 -0.3206 -15.8159
v 7.8297 -0.6959 -14.9941
v 12.0430 1.3824 -14.8465
v 12.7381 1.3824 -14.8465
v 21.6947 0.3585 -15.5496
v 22.6575 0.3585 -16.7996
v 26.9959 -0.6454 -15.1825
v 27.9266 -0.6454 -15.1825
v -0.6189 3.7631 -14.8669
v 1.2444 3.8229 -14.7931
v 3.6584 3.0268 -15.2662
v 5.3731 3.4920 -15.7987
v 12.0430 1.8423 -14.8465
v 12.7381 1.8423 -14.8465
v 17.1101 3.8924 -16.3610
v 18.5209 3.4127 -15.6360
v 21.1341 2.0583 -16.0225
v 22.5168 1.6349 -17.0050
v -2.8714 5.9399 -15.0136
v -1.3736 5.2073 -15.3034
v 1.2444 5.3585 -15.1668
v 2.5718 5.3585 -14.5721
v 6.6231 4.9286 -15.7987
v 8.6237 6.0238 -15.9335
v 11.2444 6.1892 -16.7425
v 13.7819 6.2072 -15.9189
v 16.2638 4.8270 -15.6360
v 17.5387 4.1503 -14.6943
v -2.8714 7.0453 -15.0136
v -1.2556 7.5314 -15.2534
v 1.0202 8.0847 -15.1032
v 3.5329 7.7964 -15.0471
v 5.2943 8.5883 -14.9299
v 9.3765 7.3915 -15.1901
v 11.2152 8.0783 -15.3533
v 12.8940 7.8585 -15.0735
v 1.7041 9.6411 -14.9746
v 3.7444 9.9239 -15.1541
v 5.2943 9.6631 -14.9299
v 12.0291 9.1522 -14.6313
v 12.5480 9.1522 -14.6313
v 17.4332 -18.4662 -12.2961
v 18.9392 -18.5779 -13.1971
v 20.1981 -18.5685 -13.2987
v 17.3843 -17.2195 -13.1705
v 17.9573 -17.2195 -13.1705
v 21.6536 -17.1008 -13.0532
v 23.7444 -16.3448 -13.6642
v 25.3231 -16.1471 -14.1952
v 17.3354 -15.6038 -14.0449
v 18.6586 -14.5682 -13.1506
v 21.3146 -14.7088 -12.1562
v 23.7444 -15.3907 -12.4142
v 25.4282 -14.4947 -13.3366
v 17.4551 -10.9507 -12.1878
v 18.7613 -12.1141 -13.0553
v 20.1409 -13.2776 -12.2562
v 24.8935 -11.2352 -12.2245
v 25.4668 -12.0978 -13.1541
v 17.4036 -9.6382 -13.2923
v 17.9424 -9.6382 -13.2923
v 22.0093 -8.6101 -12.5237
v 23.9338 -9.5226 -12.7962
v 25.6769 -9.6415 -13.8768
v 16.9365 -7.1415 -14.2114
v 18.3313 -7.1415 -12.9614
v 22.0093 -7.8032 -12.5237
v 23.6727 -7.0385 -12.8651
v 25.8434 -7.1415 -13.9630
v -10.0914 -3.4339 -12.2965
v -9.9061 -3.4339 -12.2965
v 12.1921 -3.5659 -14.0258
v 13.6158 -4.1157 -13.2349
v 16.2343 -4.7411 -13.3534
v 18.8602 -4.6308 -12.6989
v 21.2444 -4.1790 -12.4545
v 23.6727 -4.7823 -12.5089
v 26.2462 -4.7399 -13.0654
v 28.2001 -4.1640 -13.2987
v -10.4447 -2.1323 -13.1974
v -8.9459 -2.3579 -13.1974
v -7.2544 -1.1735 -13.2987
v 4.6353 -1.0351 -12.4988
v 6.2444 -1.0960 -12.6913
v 8.6009 -1.1200 -13.3580
v 11.4514 -2.0441 -13.3098
v 12.6968 -2.8687 -12.3591
v 16.8656 -2.1415 -12.6892
v 18.7444 -2.1415 -13.1053
v 21.2149 -2.1478 -13.6216
v 23.7444 -2.6327 -13.6559
v 26.1061 -2.1548 -13.1737
v 28.3183 -2.2708 -13.3530
v -10.4902 -0.2184 -13.2987
v -8.9511 0.6527 -13.3207
v -6.9814 0.1142 -13.3207
v -0.1088 1.5038 -12.2032
v 1.2444 1.1463 -12.5581
v 3.6972 0.2039 -13.3694
v 6.2444 -0.5930 -13.9413
v 8.5640 -0.0934 -13.3821
v 11.3768 0.3156 -13.4010
v 12.8851 0.9191 -13.2987
v 16.9079 -0.1893 -12.4955
v 18.5771 0.5298 -12.8716
v 20.4447 0.3585 -13.9923
v 26.9959 -0.6454 -14.2225
v 27.9266 -0.6454 -14.2225
v -12.8495 3.9851 -12.1518
v -11.2556 3.6104 -12.2072
v -8.9511 2.7841 -12.6739
v -6.1823 2.9088 -12.7585
v -4.5566 3.7757 -12.2978
v -0.7992 2.9012 -13.1414
v 1.2444 2.5729 -13.8081
v 3.4796 3.1344 -14.2802
v 5.3106 3.8623 -14.3204
v 9.4437 2.0012 -12.5415
v 11.3672 2.7550 -13.1679
v 13.1372 2.7487 -13.0961
v 16.7228 3.4014 -12.7812
v 18.4188 2.5834 -13.5038
v 20.2272 1.7653 -14.2263
v -12.8285 5.3585 -12.1530
v -11.2556 5.3585 -12.3944
v -8.7556 5.3585 -13.0105
v -6.0724 5.4648 -12.7745
v -3.7140 5.3211 -13.1233
v -1.4487 5.4270 -13.0105
v 0.0527 6.5808 -12.0723
v 3.8218 5.3585 -14.1816
v 6.1841 5.3874 -14.0428
v 7.7098 6.2400 -14.1949
v 12.1516 5.3585 -12.3374
v 13.8425 5.1751 -13.0745
v 16.0315 4.4135 -13.4882
v 17.5387 4.1503 -14.4479
v -12.5923 6.6522 -12.0846
v -11.2556 6.8842 -12.2358
v -8.7276 7.8029 -12.6924
v -6.4671 7.8585 -12.6932
v -2.8714 7.0453 -13.9487
v -1.2556 7.5314 -13.4914
v 0.3224 8.0847 -13.0629
v 4.2253 6.9216 -14.2875
v 6.2520 7.8445 -13.4079
v 8.6237 7.5884 -13.3364
v 11.2680 8.0123 -13.4056
v 12.8940 7.8585 -14.0841
v -7.8756 9.3650 -12.4279
v -6.8430 9.3650 -12.4279
v 1.6106 9.7579 -13.2987
v 3.7444 10.4456 -13.2987
v 5.6309 9.7962 -13.2987
v 12.0291 9.1522 -14.4566
v 12.5480 9.1522 -14.4566
v 17.4332 -18.4662 -11.9716
v 18.7444 -18.6083 -11.8251
v 20.2336 -18.6060 -11.8276
v 17.4332 -18.0966 -11.9716
v 18.6050 -17.2146 -11.6450
v 20.7942 -17.1415 -11.6018
v 19.3455 -15.1992 -11.6739
v 21.3146 -14.7088 -11.5733
v 23.7444 -14.1407 -11.4361
v 25.0892 -13.5635 -11.8078
v 17.4551 -10.9507 -11.8018
v 18.6084 -11.7521 -10.9006
v 21.0823 -12.8939 -10.7032
v 23.7804 -12.0444 -10.8070
v 25.0892 -12.9019 -11.8078
v 17.4551 -10.7427 -11.8018
v 18.6758 -9.5917 -10.7356
v 21.2033 -8.9674 -10.6211
v 23.1733 -10.3245 -10.7987
v 19.5813 -7.1415 -11.3987
v 21.2033 -7.0385 -11.4886
v 22.7917 -6.1365 -11.9818
v -10.0914 -3.4339 -11.9926
v -9.9061 -3.4339 -11.9926
v 14.3634 -3.7056 -11.6385
v 15.5759 -3.7056 -11.6385
v 19.7707 -5.4569 -11.8946
v 21.2444 -5.4290 -11.8830
v 22.7917 -5.7094 -11.9818
v 26.8830 -3.6936 -11.9293
v 27.7611 -3.6936 -11.9293
v -10.4199 -2.1415 -11.4889
v -8.9459 -2.1123 -11.1858
v -7.1755 -1.2595 -11.3568
v 2.3361 -0.9854 -9.8505
v 3.8333 -1.0103 -10.6550
v 6.2444 -1.0960 -11.4073
v 7.7055 -1.0205 -11.7827
v 12.3773 -1.2021 -11.8517
v 13.5299 -2.1513 -10.9118
v 15.8962 -2.2170 -10.8026
v 26.8830 -3.1903 -11.9293
v 27.7611 -3.1903 -11.9293
v -15.5408 1.0604 -9.8943
v -13.7556 1.0831 -9.9008
v -11.2587 0.6366 -10.5155
v -9.0770 0.3288 -10.5243
v -6.2378 0.3363 -10.5506
v -4.9099 1.4987 -9.7443
v -0.1088 1.5038 -11.8468
v 1.3037 0.4670 -10.8487
v 3.8333 -0.6627 -10.6550
v 6.2444 -0.3559 -10.1573
v 8.5746 0.4327 -10.9165
v 11.3761 0.2136 -10.9510
v 13.0133 0.1926 -10.9305
v 16.9355 -0.1434 -10.7987
v 17.7700 1.1066 -10.7987
v -15.5408 2.2720 -9.8943
v -13.7905 3.1285 -10.6168
v -11.2294 2.4049 -10.6230
v -9.8626 2.0716 -10.7987
v -5.3001 2.1090 -11.4110
v -3.8999 3.0996 -10.5152
v -1.1936 3.0190 -10.7332
v 0.2713 1.9478 -10.1801
v 9.4437 2.0012 -11.7170
v 10.7830 2.8441 -10.8497
v 14.2223 2.8707 -11.0206
v 16.0315 3.1484 -11.0206
v 17.7700 1.9556 -10.7987
v -13.7083 5.3585 -10.7987
v -5.1169 6.3690 -11.9024
v -3.6448 5.2806 -10.7610
v -1.4225 5.3865 -10.8129
v 0.0527 6.5808 -12.0062
v 9.6952 6.2325 -9.8767
v 10.8623 5.3829 -10.7455
v 14.7115 4.1304 -12.0018
v 15.0562 4.1304 -12.0018
v -13.0311 7.1090 -10.7987
v -11.2429 8.2032 -10.7334
v -9.5423 8.5991 -11.5233
v -5.2171 7.8585 -11.8624
v -4.0667 7.8585 -10.6124
v -0.5666 7.0222 -10.3396
v 1.0795 7.8048 -10.9732
v 3.1820 8.5874 -9.9402
v 7.2098 8.7673 -11.4326
v 8.6496 7.8669 -10.6547
v 10.5070 6.9664 -11.5434
v -10.3806 10.3585 -9.8258
v -8.7276 10.2624 -10.9023
v -5.9409 10.4793 -10.8576
v -4.3596 9.9270 -10.2799
v 2.1063 9.4417 -11.6069
v 3.9070 9.5551 -10.7836
v 6.3236 9.3911 -10.6791
v 7.6039 9.1684 -9.7660
v -10.1100 11.6904 -9.6102
v -8.7556 11.8854 -9.7597
v -6.7054 11.8958 -9.7686
v 19.3511 -11.5473 -9.2101
v 21.2444 -11.6049 -9.2113
v 22.6672 -11.1870 -9.4375
v 19.3511 -10.1073 -9.2101
v 21.2444 -10.1975 -9.2113
v 22.6672 -10.7503 -9.4375
v -7.8009 -3.5522 -7.2151
v -7.2601 -3.5522 -7.2151
v -8.1210 -2.1415 -7.6132
v -7.1657 -2.1415 -7.6132
v -0.0948 -0.9800 -7.1709
v 1.3994 -1.0872 -8.1220
v 3.8165 -1.0606 -8.2742
v 6.2444 -0.9612 -7.4137
v 8.7444 -1.1867 -7.4883
v 10.3483 -1.2363 -7.5240
v 14.3631 -1.4339 -8.8119
v 15.6691 -1.4339 -8.8119
v -15.8162 0.7007 -8.2987
v -13.7556 0.0570 -8.2987
v -11.2294 0.6490 -8.4859
v -8.9683 0.0207 -8.5395
v -6.1775 0.3363 -8.2912
v -4.9099 1.4987 -8.9475
v -0.1024 0.3585 -7.1827
v 0.7084 0.3585 -8.4327
v 4.6979 -0.7557 -9.0913
v 6.2444 -0.3559 -8.6637
v 8.7444 -0.1552 -8.7383
v 10.6338 0.3505 -8.3339
v 14.1851 0.3585 -8.5432
v 16.3992 0.2857 -8.4449
v 17.7239 1.0705 -9.0497
v -15.8162 2.5990 -8.2987
v -13.8411 3.8923 -8.0726
v -11.4324 3.0137 -8.2663
v -9.9058 1.9333 -9.4441
v -5.0570 1.6586 -7.2808
v -3.9482 2.3717 -8.1880
v -1.0296 2.5453 -8.0826
v 0.2713 1.9478 -8.7718
v 4.8693 4.0327 -7.2558
v 6.2444 3.8394 -7.3484
v 8.7444 3.7852 -7.3359
v 10.5636 3.0197 -8.1629
v 14.5467 2.0456 -8.9448
v 16.2444 2.1887 -8.7215
v 17.7239 1.9450 -9.0497
v -13.3854 5.3585 -8.4186
v -12.2256 5.3585 -7.1686
v -5.1273 6.4848 -7.2186
v -3.6246 6.1719 -8.1020
v -2.2332 5.8589 -8.9854
v 4.8693 4.1950 -7.2558
v 6.3834 5.1604 -7.4488
v 8.8149 5.3829 -8.4388
v 10.2312 4.5658 -8.9057
v -13.1196 7.2321 -8.8354
v -11.7404 7.9826 -8.1207
v -5.1273 6.9164 -7.2186
v -3.6085 7.4122 -7.8387
v -1.2930 7.7330 -8.1807
v 1.2444 8.4030 -8.7657
v 3.9573 8.8084 -8.2559
v 6.3834 8.0611 -7.9223
v 7.9772 7.8585 -9.0514
v -10.7979 10.3585 -8.2987
v -5.4645 11.2294 -8.2987
v -4.2829 9.9794 -8.2987
v -0.3529 9.2759 -7.3759
v 1.2444 9.3469 -7.5157
v 3.9573 9.2081 -8.2559
v 6.2444 9.1900 -9.1903
v 7.6039 9.1684 -9.4518
v -10.2390 11.7889 -8.2987
v -8.7556 12.0984 -8.2987
v -6.7145 11.9180 -8.2987
v -8.0893 -3.6574 -5.7987
v -7.1007 -3.6574 -5.7987
v -12.8283 -1.4321 -5.1107
v -11.2556 -1.6012 -5.3682
v -9.2877 -2.1349 -5.8670
v -6.5861 -2.1415 -5.7987
v -0.4302 -1.2963 -5.7987
v 1.2444 -1.4772 -5.7987
v 3.7942 -1.0627 -5.8054
v 6.2444 -0.9612 -6.6244
v 8.7444 -1.1867 -6.4853
v 10.3483 -1.2363 -6.4577
v -15.4874 1.0178 -5.7987
v -13.6992 -0.2876 -5.8859
v -11.2556 -0.7265 -6.6182
v -9.6975 -0.7990 -6.7459
v -5.6248 0.5078 -5.9214
v -3.7556 1.4073 -5.0806
v -1.3692 0.5482 -5.6015
v 4.6607 -0.7346 -4.9765
v 6.2444 -0.4848 -5.3744
v 8.7444 -0.3589 -5.2353
v 10.5358 0.3034 -5.6941
v -15.4874 2.1727 -5.7987
v -13.7556 3.0279 -5.7987
v -12.3383 3.7137 -5.7987
v -5.0570 1.6586 -6.8365
v -3.7556 1.9512 -6.3306
v -1.7122 2.0154 -6.3034
v 4.4207 3.7008 -5.7987
v 6.2444 3.0454 -5.7987
v 8.7444 2.9255 -5.7987
v 10.4057 2.3309 -5.7987
v -11.8185 5.3585 -5.7987
v -5.1273 6.4848 -6.7817
v -4.5162 6.4848 -6.7817
v 4.4207 4.4375 -5.7987
v 6.3834 5.7840 -5.7311
v 7.5889 6.4622 -4.8528
v -10.7996 8.0568 -5.6544
v -9.8165 9.0224 -4.7249
v -5.1273 6.9164 -6.7817
v -3.7688 7.6801 -6.7585
v -2.0195 8.4438 -6.7352
v 2.1344 8.3084 -5.0230
v 3.8251 8.6689 -5.9261
v 6.4618 8.0768 -5.8410
v 7.5889 7.1241 -4.8528
v -10.4230 10.3585 -6.4173
v -8.8921 10.3944 -5.3522
v -6.3762 11.1847 -5.8518
v -3.8151 10.3141 -6.4097
v -1.1151 10.2918 -5.8869
v 1.2784 9.6187 -5.8333
v 3.8251 9.2850 -5.9261
v 5.6140 9.3110 -5.1625
v -10.2125 11.7671 -6.8639
v -8.7556 11.8215 -6.6709
v -6.3762 11.7954 -5.8518
v -3.7556 12.1585 -5.2351
v -1.8773 12.0933 -5.0386
v -15.1823 -3.6295 -2.4326
v -13.7556 -3.8812 -2.8175
v -11.2556 -3.8143 -2.7366
v -8.7954 -3.6920 -3.2143
v -7.2084 -3.6555 -3.2987
v -15.1823 -2.8399 -2.4326
v -13.8502 -2.1360 -3.3946
v -11.2556 -2.8512 -3.9866
v -9.6553 -2.9638 -3.9914
v -6.7629 -2.1415 -3.2987
v -0.4826 -1.3428 -4.0363
v 1.2444 -1.3030 -4.0610
v 2.9940 -0.9889 -4.4108
v -15.4091 1.0190 -3.2987
v -14.5225 -0.2310 -3.2987
v -5.6668 0.5078 -3.1172
v -3.7556 1.4073 -3.7655
v -1.2918 0.5482 -3.6035
v 1.1240 0.4208 -2.7159
v 3.8096 0.2806 -3.4197
v 6.2444 0.7652 -4.0390
v 8.7444 0.8911 -4.1845
v 10.2116 1.0999 -4.2893
v -15.4091 2.1675 -3.2987
v -13.5866 3.2484 -3.1587
v -12.3020 3.5964 -3.8988
v -7.6894 4.0786 -2.1121
v -6.0231 3.0906 -2.1694
v -3.7556 2.8585 -2.7575
v -1.3737 2.7540 -2.5904
v 0.2104 1.8510 -2.1443
v 4.4899 2.8843 -3.1901
v 5.7527 2.8059 -3.2873
v 8.7444 1.9988 -4.1845
v 10.2116 1.8864 -4.2893
v -12.6406 4.1332 -2.2321
v -11.7427 5.1233 -3.1587
v -7.6894 4.1306 -2.1121
v -6.0536 5.1217 -2.2226
v -3.9574 5.1673 -2.3640
v -2.2857 4.2065 -2.3478
v 4.3546 4.4607 -3.9516
v 6.0561 5.1961 -3.1904
v 7.6183 6.4538 -3.2987
v -10.4546 7.2940 -3.2987
v -9.5092 8.5440 -3.2987
v -5.0856 6.7345 -2.2515
v -4.9252 6.7345 -2.2515
v 1.9470 8.2772 -3.2987
v 3.1210 8.2772 -3.2987
v 7.2807 8.7908 -4.4161
v 7.7861 7.9179 -3.4691
v -8.2987 10.3944 -3.3656
v -7.1681 11.2516 -4.2435
v -0.2106 11.3076 -4.3371
v 1.2962 10.4032 -3.3674
v 3.7972 10.2986 -2.9126
v 6.3662 9.7355 -3.4691
v 7.8154 9.4336 -2.7495
v -7.8228 11.8284 -2.5768
v -6.3031 12.0700 -3.3656
v -3.7556 12.7081 -3.2987
v -1.1286 12.6095 -3.4217
v 1.0760 13.0595 -2.7893
v 3.2272 12.8585 -2.5082
v 1.7970 14.3181 -2.3122
v 2.9338 14.3181 -2.3122
v -10.3126 -5.9428 0.3616
v -8.7556 -6.0021 0.2195
v -7.3968 -5.9876 0.2319
v -15.4027 -4.0218 -0.7987
v -13.7556 -4.8673 -0.7987
v -11.1898 -5.1572 -0.6025
v -8.7556 -4.8717 -1.0305
v -7.2223 -4.4864 -0.6803
v -15.8187 -2.0606 -0.9291
v -14.8721 -1.1733 -1.8494
v -7.8298 -1.2400 -0.1500
v -7.2183 -2.1006 -0.9094
v -15.8996 0.2121 -0.9291
v -14.8721 -0.7189 -1.8494
v -7.8298 -0.6279 -0.1500
v -6.2124 0.4449 -1.0317
v -3.7556 1.4449 -0.4582
v -2.3229 1.4811 -0.0633
v 1.8770 1.2957 -1.6944
v 2.9585 1.2957 -1.6944
v -15.5039 2.3470 -0.7987
v -13.5866 3.3722 -0.9781
v -11.9529 3.5633 -0.2644
v -7.6894 4.0786 -1.9944
v -6.0231 3.0906 -1.8978
v -3.7556 2.8585 -1.5575
v -1.4710 2.8755 -0.9865
v 1.1240 2.3004 -0.8361
v 3.8286 2.8444 -0.9331
v 5.0972 3.7945 -1.8383
v -12.6406 4.1332 -1.9311
v -11.3460 5.1233 -0.9781
v -7.6894 4.1306 -1.9944
v -6.0536 5.1217 -1.6910
v -3.9574 5.1673 -1.6401
v -2.2857 4.2065 -1.9096
v 4.2505 5.3585 -0.5044
v 6.0561 5.5725 -1.7521
v 7.5651 6.5485 -1.9469
v -10.2207 7.0659 -0.7987
v -9.4495 8.3159 -0.7987
v -5.0856 6.7345 -1.5687
v -4.9252 6.7345 -1.5687
v 2.1246 8.8001 -1.6333
v 3.6024 8.0247 -0.9166
v 6.1064 7.9930 -0.6119
v 7.7882 7.8585 -1.6393
v -8.5068 10.3585 -0.7987
v -5.3708 11.4824 0.2967
v -4.9094 11.4824 0.2967
v -0.0653 11.0164 0.3858
v 1.0867 10.2576 -0.6237
v 3.8027 10.3957 -1.6041
v 5.9873 10.3630 -0.7564
v 7.8154 9.4336 -1.6046
v -7.8129 11.8992 -0.7987
v -6.2247 12.0215 -0.6415
v -3.9479 12.2878 -0.6415
v -1.0414 12.5583 -0.5880
v 0.9230 13.1606 -0.5480
v 3.8163 12.8911 -0.6950
v 5.1267 11.8211 0.0917
v 1.7970 14.3181 -1.4818
v 2.9338 14.3181 -1.4818
v -10.4064 -11.0292 2.7923
v -9.7839 -11.0292 2.7923
v -15.4619 -9.0979 2.4370
v -13.7556 -9.4018 2.1909
v -11.2461 -9.7759 2.4396
v -9.6682 -9.6415 2.6864
v -15.8860 -7.1415 2.0117
v -13.7556 -7.1415 1.1003
v -11.1898 -6.9223 1.1058
v -8.8687 -7.1574 1.8348
v -7.2438 -6.1854 1.7013
v -17.6293 -3.8600 2.6910
v -16.3742 -4.7603 1.6185
v -13.7556 -5.6277 0.6107
v -11.9793 -5.7707 0.5691
v -6.8558 -4.6415 1.7013
v -17.8397 -2.1415 2.1366
v -17.1395 -2.1415 0.8866
v -8.1845 -1.5127 1.7013
v -7.1176 -2.7627 1.7013
v -17.8274 -0.5381 2.1254
v -16.3634 0.2908 1.4252
v -14.5341 1.1197 2.3916
v -8.2289 0.2667 1.8119
v -6.2445 1.1197 1.8119
v -3.7556 1.0150 1.7013
v -1.8667 1.1988 1.7013
v -15.2289 1.9430 0.7250
v -13.7227 2.1333 1.6155
v -11.1740 3.1909 1.5476
v -8.6858 2.8669 2.1767
v -7.0372 2.8585 2.4876
v -0.6167 2.2135 1.7013
v 1.2444 2.6717 1.7013
v 3.4363 3.3167 1.7013
v -10.3527 5.3585 1.0388
v -8.7556 5.3585 1.9624
v -6.9572 5.3585 2.6249
v 4.3302 5.2416 1.7999
v 5.1096 5.9971 2.6990
v -10.1878 7.0516 1.0741
v -8.8801 7.7087 1.9880
v -6.9638 6.6991 2.9020
v -0.0257 8.9658 2.5020
v 0.0157 8.9658 2.5020
v 4.6229 8.0799 1.8624
v 5.1454 8.0799 1.8624
v -8.9506 10.3585 1.7013
v -5.3708 11.4824 0.5950
v -4.9094 11.4824 0.5950
v -0.1253 10.2532 1.6817
v 0.3693 10.2532 1.6817
v 4.4500 10.3585 2.3655
v 5.2337 10.3585 1.1155
v -8.1390 12.2429 1.7013
v -6.2247 12.5759 1.5375
v -3.9479 12.6694 1.5375
v -1.3901 12.3597 1.7013
v 1.6971 12.1721 1.7013
v 3.5869 12.1869 1.6379
v 5.1267 11.8211 0.7623
v -10.6544 -11.2148 4.2013
v -8.8726 -11.2568 4.3058
v -7.2751 -11.0692 5.2088
v -25.0461 -8.4227 5.4020
v -23.7556 -8.6189 5.0403
v -21.2556 -8.9061 4.5658
v -18.7556 -8.7124 4.9199
v -16.2794 -8.9016 4.4355
v -13.7244 -9.2778 4.4063
v -11.9778 -9.7759 4.4063
v -8.4182 -9.6415 3.9895
v -7.3079 -9.6415 5.2395
v -25.2700 -7.1415 5.1350
v -23.7556 -7.1415 4.5425
v -21.2556 -7.1415 3.8901
v -18.7556 -7.1415 3.9003
v -17.1360 -7.1415 3.6191
v -12.8703 -8.0987 5.3762
v -12.4275 -8.0987 5.3762
v -8.0600 -7.2431 4.4218
v -7.3690 -7.2431 4.4218
v -25.3177 -5.5713 5.0789
v -23.7556 -5.5326 4.9535
v -21.2556 -5.3289 4.7757
v -18.6477 -4.5799 3.9383
v -17.3899 -5.5266 3.0348
v -8.2129 -4.6415 4.8995
v -7.1335 -4.6415 3.6495
v -18.0692 -1.9351 4.4081
v -17.4457 -0.9641 5.3792
v -10.1729 -0.9965 5.3202
v -8.8491 -2.0172 4.3608
v -7.2498 -3.0379 3.4014
v -17.8274 -0.5381 3.7126
v -16.4697 -0.0338 4.4081
v -14.5947 1.1656 4.2013
v -10.1729 -0.8082 5.3202
v -9.3216 0.1585 4.3726
v -5.4037 1.4542 3.3836
v -3.7556 1.1786 3.7579
v -1.8365 1.1896 3.5945
v -13.3447 2.1845 4.2013
v -11.2556 2.8306 4.2013
v -8.7462 2.8895 4.5098
v -6.3600 3.0129 4.1523
v -3.7556 2.3818 5.0079
v -1.1041 2.1337 4.3372
v 1.2444 2.5228 4.2013
v 3.2650 3.3787 4.2013
v -10.4132 6.0888 4.7308
v -8.7749 5.2967 4.2230
v -6.1772 5.6048 3.8532
v -4.6561 5.9333 4.7157
v 4.3815 5.2416 4.1229
v 5.1096 5.9971 3.2372
v -10.3226 7.8585 4.8684
v -8.8161 7.6628 3.5071
v -6.0505 6.7850 3.8520
v -4.6561 6.8710 4.7157
v -0.0257 8.9658 2.9866
v 0.0157 8.9658 2.9866
v 4.5533 7.9897 4.1229
v 5.1096 7.2438 3.2372
v -10.0207 9.1587 5.3946
v -9.3151 10.1386 4.4173
v -5.7490 11.3073 5.1504
v -3.7556 11.2337 5.0750
v -0.9088 10.4737 4.1186
v 1.1129 10.4451 3.9012
v 3.3753 10.4551 4.0700
v -8.1873 13.0154 4.1026
v -6.5340 13.1642 4.1770
v -3.7556 12.6350 3.8250
v -1.7920 12.2107 3.5839
v 2.2102 11.6740 3.1492
v 2.6486 11.6740 3.1492
v -7.8101 14.3645 4.8702
v -7.3190 14.3645 4.8702
v -12.7730 -11.0636 7.5946
v -11.2842 -11.2536 6.7373
v -8.7556 -11.7204 6.7013
v -6.3673 -11.3972 6.8496
v -4.8195 -11.0606 7.7818
v -25.0461 -8.4227 5.9698
v -23.8596 -8.6732 6.7624
v -21.2556 -9.5225 6.7013
v -18.7556 -9.2491 6.7013
v -16.2556 -8.9092 6.7013
v -13.6550 -9.5332 6.6081
v -12.1702 -9.6415 5.9365
v -6.1330 -9.7063 6.8496
v -4.8195 -10.5828 7.7818
v -25.3261 -7.3438 6.7624
v -24.7622 -8.3120 7.6365
v -12.8703 -8.0987 5.6216
v -12.4275 -8.0987 5.6216
v -7.9606 -6.7230 6.7013
v -7.2128 -7.9730 6.7013
v -25.3758 -5.4951 6.7013
v -23.7556 -5.2029 6.7013
v -21.2556 -4.9886 6.7013
v -19.5997 -4.0308 6.7013
v -8.3815 -4.6415 6.7013
v -18.3800 -1.9351 6.4965
v -17.4457 -0.9641 5.5267
v -13.0147 -1.0637 7.6627
v -11.1060 -1.2338 6.7781
v -9.1765 -2.4402 6.7013
v -17.8374 -0.5984 7.1933
v -16.4697 -0.2138 6.4965
v -13.9294 0.2543 7.1133
v -11.1320 0.0687 6.7739
v -9.6510 0.8585 5.8851
v -2.9538 1.4621 7.5141
v -2.2976 1.4621 7.5141
v -13.3654 2.2219 6.7013
v -11.2570 2.3577 6.7116
v -8.8028 2.8877 5.9577
v -6.3623 3.4318 6.7987
v -3.7745 2.3652 6.6890
v -1.3808 2.3914 6.6890
v 1.3023 3.4026 6.8351
v 2.8038 3.6436 6.0909
v -10.4132 6.0888 5.9408
v -8.6146 5.4148 6.8188
v -6.2020 5.3371 6.7312
v -4.6561 5.9333 5.7655
v 2.1743 4.2558 7.7576
v 3.7079 5.3569 6.8829
v 5.1074 6.4581 7.6749
v -10.3226 7.8585 5.8340
v -9.0077 7.8585 7.0840
v -5.1372 6.8710 5.7655
v -4.6561 6.8710 5.7655
v 4.4782 7.8585 6.1927
v 5.6733 7.8585 7.4427
v -10.0207 9.1587 5.4721
v -9.0047 10.1386 6.4638
v -5.7490 11.3073 5.9141
v -3.8747 11.1009 6.7290
v -1.2589 11.0390 6.6955
v 1.2444 11.1135 6.0511
v 3.8108 10.4551 6.1217
v 6.4697 10.1378 7.2113
v 7.6540 10.8240 7.6599
v -8.7882 12.8585 6.7013
v -5.9132 12.9007 6.7290
v -4.7874 12.0955 7.5807
v -0.4278 12.0044 7.5250
v 1.2444 12.0702 7.3011
v 3.7444 12.1579 7.2156
v 6.2444 12.1992 7.3276
v 7.6540 11.8832 7.6599
v -8.3396 14.8261 6.7013
v -6.8326 14.8261 6.7013
v -10.3555 -14.1871 9.9545
v -8.7556 -14.1929 9.9548
v -6.2556 -14.0508 10.0504
v -3.7556 -14.0731 9.9716
v -2.3120 -13.6942 10.1810
v -22.7326 -11.2159 9.9840
v -21.2556 -11.4765 9.6212
v -19.2096 -11.3471 9.8119
v -12.9868 -11.1388 9.2013
v -11.2156 -12.1721 9.1532
v -8.7556 -12.6170 8.7048
v -6.2556 -12.6404 8.8004
v -3.8940 -11.9930 8.8313
v -2.0454 -12.1415 9.9532
v -22.9141 -9.4576 9.0753
v -21.7168 -9.5863 8.9978
v -18.5280 -10.2962 9.0676
v -16.2556 -9.6838 9.2013
v -14.2368 -10.2948 9.2013
v -5.4816 -8.9161 8.3439
v -3.8940 -9.7063 8.8200
v -1.5820 -9.6415 9.9928
v -25.1871 -6.6453 8.2667
v -23.8071 -7.3576 9.0499
v -22.3316 -8.0699 9.8332
v -12.7275 -6.0523 10.1661
v -11.2556 -6.2675 10.1301
v -8.6697 -6.2457 9.2343
v -6.1792 -7.0501 9.0854
v -3.7556 -7.7703 9.9575
v -1.6941 -8.1139 10.2337
v -25.1871 -5.6831 8.2667
v -23.7134 -5.1810 9.1405
v -21.2556 -4.3692 9.2013
v -19.8252 -3.8511 9.2013
v -15.6140 -3.5353 10.2160
v -13.7763 -4.5780 10.1911
v -11.2556 -5.4566 10.1301
v -8.5556 -5.0448 9.1223
v -6.5300 -4.6415 9.4829
v -18.5604 -2.3343 9.2343
v -16.3706 -2.3343 9.6563
v -13.9199 -1.9825 9.1364
v -11.2556 -1.7847 9.2013
v -8.5787 -2.6037 9.0512
v -6.8335 -3.0695 9.7844
v -17.8374 -0.5984 8.4229
v -16.2556 -0.5931 8.3841
v -13.7883 0.0795 8.1202
v -12.0912 0.9457 8.1837
v -2.9940 1.4353 9.2013
v -2.2588 1.4353 9.2013
v -12.8951 1.9102 8.1837
v -12.0912 1.9102 8.1837
v -5.5578 3.4335 9.2013
v -4.2440 2.1835 9.2013
v -1.0088 2.4163 9.2013
v 1.3023 3.7464 9.4008
v 2.5070 4.0947 10.3671
v -7.6081 6.4075 8.0375
v -6.7037 5.4879 9.0030
v 2.1743 4.2558 8.7004
v 3.3436 5.3569 9.2958
v 5.1074 6.4581 8.2244
v -7.7612 8.0354 9.0030
v -7.0996 7.3201 9.7042
v -0.2647 8.8859 10.2622
v 0.2493 8.8859 10.2622
v 4.1801 6.8434 9.8911
v 5.9722 7.7494 9.1152
v -8.4830 10.3585 9.2013
v -2.9866 11.2993 9.2013
v -1.3484 10.4472 9.6560
v 0.2493 9.3110 10.2622
v 7.3819 9.7557 9.2013
v 7.6156 11.0057 9.2013
v -9.1986 12.8585 9.2013
v -5.1450 13.8151 9.2013
v -4.2366 12.5651 9.2013
v -0.7397 12.8460 9.4394
v 1.2444 13.3202 9.1327
v 3.5419 13.2700 9.4083
v 6.2444 12.4787 9.2013
v 7.6156 11.8165 9.2013
v -8.4639 15.2281 9.2013
v -6.3950 15.2281 9.2013
v -0.0216 14.1277 10.4315
v 1.2444 14.2092 10.3827
v 2.5735 14.2235 10.3797
v -10.4733 -14.2820 11.7013
v -8.7556 -14.5540 11.7013
v -6.2556 -14.7134 11.7013
v -3.5998 -14.4130 11.8220
v -2.3120 -13.6942 11.0691
v -22.7326 -11.2159 10.8377
v -21.1027 -11.4058 11.6831
v -18.5280 -11.5083 11.4737
v -16.8458 -11.3867 12.1553
v -12.8797 -11.0492 10.8306
v -11.7783 -11.9861 11.6789
v -2.6625 -13.2524 12.7358
v -1.6776 -12.3081 11.8220
v -22.8737 -9.6383 11.5690
v -22.0829 -9.6383 11.5690
v -17.5429 -10.8502 10.4886
v -16.1098 -10.4009 11.4737
v -13.7301 -10.2917 11.6789
v -12.3366 -10.6682 12.4973
v -0.3069 -9.8407 11.4629
v 0.2989 -9.1402 12.1372
v -23.0530 -7.1985 11.5608
v -22.3316 -8.0699 10.6338
v -12.7275 -6.0523 10.9362
v -11.2556 -6.2675 10.9664
v -9.7307 -6.2321 10.6532
v -5.2102 -6.1742 10.8025
v -3.7556 -6.5203 11.2920
v -1.2282 -7.2481 11.6791
v 0.2989 -8.0490 12.1372
v -22.8080 -5.2348 11.7013
v -21.2672 -3.8673 11.4547
v -19.9669 -3.3935 10.4570
v -15.6140 -3.5353 10.6166
v -13.7763 -4.5780 10.7764
v -11.2556 -5.4566 10.9664
v -9.7307 -5.5825 10.6532
v -5.2885 -4.5664 11.6621
v -3.7556 -5.4431 12.5420
v -2.4289 -5.8354 12.8877
v -20.6196 -2.1415 12.2201
v -18.9824 -2.3343 11.2443
v -16.3706 -2.3343 11.3357
v -13.7704 -1.9098 11.7067
v -11.2556 -1.6687 11.7013
v -8.7556 -2.0100 11.7013
v -6.4558 -2.7602 11.7013
v -20.3882 -0.7841 12.8040
v -18.7556 -0.6925 12.6883
v -16.2556 -0.6979 12.6829
v -14.3824 -0.7914 12.7968
v -2.7086 1.5239 10.5841
v -2.3845 1.5239 10.5841
v -5.1473 3.8119 10.6933
v -3.6274 2.9305 11.0558
v -1.5068 2.8152 11.6674
v 1.2444 3.4074 11.7013
v 3.5020 3.9634 11.8704
v 5.4324 3.8816 12.8165
v -5.4324 5.3585 10.9170
v -3.7556 5.3585 11.5736
v -2.0528 5.3585 12.3579
v 3.7682 5.3585 11.5235
v 6.2572 5.4938 12.7772
v 7.6820 6.4173 12.8982
v -7.5953 8.9867 10.5500
v -6.2620 8.0354 11.2102
v -3.9708 7.8722 12.2967
v -1.1882 7.9670 11.4678
v 0.2493 8.8859 10.5747
v 4.1801 6.8434 11.1825
v 6.5129 7.6419 12.0403
v 7.6820 6.7738 12.8982
v -7.9188 10.3585 10.8994
v -6.2228 10.1543 12.2821
v -3.7397 10.3637 11.7507
v -1.3611 10.4268 10.5854
v 0.2493 9.3110 10.5747
v 6.9244 10.5969 11.4543
v 7.4964 11.5892 10.4563
v -8.2042 12.8585 11.1260
v -6.0516 12.9932 11.7345
v -3.5213 12.3518 11.5382
v -1.6208 12.6901 11.5382
v 4.1932 13.2971 11.7013
v 6.1022 11.9609 11.4543
v 7.4964 11.6111 10.4563
v -7.9758 14.9005 10.8522
v -6.7356 14.9005 10.8522
v -0.1857 14.4859 11.7013
v 1.1064 15.4794 11.6622
v 3.1785 15.1775 11.6622
v 1.8477 17.0949 12.4694
v 3.0361 17.0949 12.4694
v -17.5576 -13.4422 15.3264
v -16.2556 -13.5811 15.1725
v -14.3012 -13.5936 15.2045
v -10.4705 -13.7032 14.2013
v -8.8215 -13.6947 14.2299
v -6.4415 -14.0966 14.2299
v -3.5998 -14.1275 14.1449
v -2.3980 -13.5328 14.9406
v -20.1675 -10.9688 13.1921
v -18.6759 -12.0111 14.2592
v -16.1098 -12.1887 13.8757
v -13.5830 -12.3603 14.5657
v -11.7761 -12.3603 14.0664
v -8.0320 -13.3237 15.0823
v -7.3988 -13.3237 15.0823
v -2.6625 -13.2524 13.2739
v -1.6099 -12.3081 14.1449
v -23.1831 -9.1212 14.2013
v -21.1027 -10.3027 14.0958
v -19.7941 -10.6039 14.8588
v -15.1792 -10.5638 13.1970
v -13.7556 -10.4783 13.2794
v -12.3366 -10.6682 13.1431
v -0.2167 -10.5691 14.2013
v 0.3655 -9.3191 14.2013
v -23.3943 -7.1415 14.2013
v -7.6721 -5.9735 15.3651
v -7.4390 -5.9735 15.3651
v -1.0302 -6.7046 14.2013
v 0.3655 -7.9546 14.2013
v -22.7037 -4.8129 14.3463
v -22.1083 -4.0938 13.6095
v -8.0670 -4.6415 15.2583
v -6.2751 -4.4335 14.4893
v -3.7556 -4.7375 14.2013
v -2.2802 -5.6746 14.2013
v -22.5622 -2.1415 15.1905
v -21.8696 -2.1415 13.9405
v -12.9966 -1.0169 14.2013
v -11.2556 -1.7963 14.2013
v -8.8549 -2.7032 14.3486
v -6.7780 -2.8718 13.6135
v -22.5324 -0.8570 15.2787
v -21.2352 -0.4448 14.3477
v -18.8147 0.6293 14.2850
v -16.1584 0.5510 14.2850
v -14.2466 -0.4569 14.2013
v 4.4025 1.5814 15.3935
v 5.0490 1.5814 15.3935
v -18.0207 1.7598 15.1740
v -16.9270 1.7598 15.1740
v -0.6291 3.5562 13.5036
v 1.2604 3.2982 14.2827
v 3.6393 2.4935 14.4166
v 6.0740 3.1082 14.4570
v 8.1268 4.0015 15.1872
v -0.8028 5.3585 13.9784
v 0.3445 5.3585 15.2284
v 7.0990 4.7506 13.5206
v 8.7377 5.2757 14.1447
v 10.6414 5.8008 14.7688
v -3.2809 8.7147 13.7203
v -1.4575 7.6670 14.5777
v 0.0178 6.6193 15.4352
v 7.3231 8.5443 14.2013
v 8.6069 7.6511 14.0418
v 10.6414 7.4317 14.7688
v -5.3675 10.8514 13.2640
v -3.9490 10.0032 14.3255
v -2.4701 9.1549 15.3870
v 6.4436 10.3585 14.2013
v -5.3675 11.9229 13.2640
v -3.7725 12.1645 14.1389
v -1.1401 13.2763 14.1533
v 0.4090 13.7758 14.9546
v 4.6803 13.4899 13.4268
v 5.4517 12.7373 14.2366
v -0.2297 14.5924 13.2880
v 0.4787 15.3988 14.1533
v 4.5401 15.3585 13.6183
v 5.3755 15.3585 14.8683
v 1.5388 17.4833 14.2013
v 3.8194 17.4834 14.1997
v 5.2344 16.9003 15.0319
v -17.5576 -13.4422 15.6644
v -16.3796 -13.8128 16.5792
v -13.5830 -13.8012 16.7536
v -11.1601 -13.4191 16.8129
v -9.6987 -13.4154 16.0041
v -5.6206 -13.6721 16.7013
v -3.7556 -13.8030 16.7013
v -2.4067 -13.5225 16.7013
v -18.0110 -12.1415 16.1369
v -17.1937 -12.1415 17.3869
v -12.6345 -13.3396 15.9551
v -11.1601 -13.2864 16.8129
v -8.9739 -12.4451 16.7774
v -6.2489 -12.4346 16.7622
v -3.7556 -11.9606 17.4101
v -2.0552 -12.3544 16.7050
v -22.8997 -8.8367 15.7833
v -21.2556 -9.1347 15.9814
v -18.8787 -9.7190 16.1912
v -16.3821 -9.6085 17.0879
v -14.5641 -8.7532 17.3207
v -8.6840 -9.6415 17.4451
v -6.2556 -9.6415 16.7338
v -3.7556 -9.6415 16.5612
v -1.1343 -9.6844 15.9905
v 0.1847 -8.8796 15.5885
v -22.9698 -7.1415 15.9559
v -21.0902 -6.9670 17.0798
v -18.7556 -7.3753 17.1004
v -16.2556 -7.6797 16.9714
v -14.5641 -8.0899 17.3207
v -8.0026 -7.0716 16.5952
v -6.7628 -7.0302 16.5158
v -3.7556 -7.4418 17.1024
v -1.5322 -7.0733 16.5226
v 0.1847 -8.1515 15.5885
v -22.7976 -4.5751 16.6558
v -21.8133 -5.3641 17.4588
v -8.2096 -4.4309 16.4886
v -6.4656 -4.8278 16.4886
v -3.7556 -4.8849 16.7013
v -2.2955 -5.6388 16.7013
v -22.8524 -2.1415 16.7013
v -12.9501 -1.0319 15.7946
v -11.3691 -1.8766 16.6573
v -9.5108 -3.2675 16.7013
v -22.6560 -0.7367 16.7013
v -21.0467 0.5938 16.7753
v -19.6874 1.3777 15.9913
v -15.2603 1.2545 15.6059
v -13.7679 0.3224 16.5336
v -12.2780 -0.6097 17.4613
v 4.4025 1.5814 15.5103
v 5.0490 1.5814 15.5103
v -20.0741 1.6625 17.6580
v -18.8147 1.8071 16.7753
v -16.1584 1.9854 16.5441
v -14.5858 1.9597 17.2725
v 1.7181 3.2541 16.7013
v 3.6393 2.1638 16.4867
v 6.0272 2.4461 16.4867
v 8.4437 3.6070 16.7013
v -0.3990 5.9254 17.1328
v 0.3874 5.1986 16.4602
v 9.6937 4.4168 16.7013
v 10.6306 5.6668 16.7013
v -0.6012 7.7466 16.6165
v 0.1303 7.7466 16.6165
v 7.4534 9.0243 15.5411
v 8.7444 9.0378 15.5881
v 10.5439 8.1024 16.5069
v -2.9505 10.8216 15.8829
v -1.4843 10.1364 16.3452
v 0.4897 10.3585 17.4950
v 6.7250 10.2643 16.5052
v 8.7444 9.3488 16.8381
v 10.0619 9.1691 17.2106
v -2.9505 12.0849 15.8829
v -1.2556 12.3413 16.0820
v 0.8235 12.9089 16.6969
v 4.6634 13.5838 17.6348
v 5.4105 12.7937 16.7614
v 1.6999 15.3721 16.8495
v 3.7958 15.3721 17.4282
v 5.3755 15.3585 16.1747
v 1.8670 17.2885 16.1150
v 3.7444 17.3373 16.2849
v 5.2344 16.9003 15.8991
v -15.6290 -13.8410 18.3640
v -13.7556 -13.7521 18.2820
v -11.9685 -13.4228 17.9796
v -5.0990 -13.4740 18.0103
v -3.7556 -13.4784 18.0133
v -2.4814 -13.4248 17.9750
v -15.9437 -12.1415 18.4992
v -13.7556 -12.1415 18.6301
v -11.1833 -12.2965 18.0890
v -9.9158 -11.5665 18.0063
v -5.0990 -13.2121 18.0103
v -3.7556 -13.2106 18.0133
v -2.4814 -13.3297 17.9750
v -15.6330 -10.4199 18.2692
v -13.7407 -9.6085 18.3851
v -11.2556 -9.6415 18.2978
v -9.9340 -9.6415 17.9941
v -20.1466 -6.0174 18.0705
v -18.7556 -6.1253 18.1821
v -16.2522 -6.5176 19.0644
v -13.7407 -7.6051 19.1066
v -11.0964 -7.0906 19.5393
v -9.1255 -7.3791 19.1453
v -6.2556 -7.2075 19.2013
v -3.9604 -6.2214 18.9858
v -2.4494 -5.9951 18.0088
v -22.7554 -3.7341 19.2013
v -21.0902 -4.8654 19.0228
v -18.6208 -4.5914 19.5542
v -17.1055 -4.6415 19.8656
v -12.5124 -3.4043 20.4432
v -11.0964 -4.3992 19.9490
v -8.9241 -4.2977 19.2034
v -6.2556 -4.4322 19.2013
v -3.9604 -5.5744 18.9858
v -2.4494 -5.7876 18.0088
v -23.2000 -2.1415 19.2013
v -17.6879 -2.1415 20.2942
v -17.2917 -2.1415 20.2942
v -12.5124 -3.3603 20.4432
v -11.4990 -2.4990 19.2565
v -9.5971 -3.3045 18.0697
v -22.9502 -0.4236 19.2013
v -21.0467 0.8794 19.0735
v -18.5363 0.5051 19.6821
v -16.9894 0.3585 19.9621
v -13.2248 0.7280 19.2013
v -12.2457 -0.5220 19.2013
v -20.0741 1.6625 18.1549
v -18.7556 1.7432 18.2948
v -16.1971 2.0294 19.1040
v -14.4748 2.0403 19.2013
v 1.9587 3.7992 19.2013
v 3.5937 3.5999 19.2781
v 6.2444 3.3608 18.7005
v 8.1277 3.5469 18.4056
v -0.3990 5.9254 18.4047
v 1.3039 5.1672 19.3791
v 3.5937 5.2888 19.9586
v 6.3330 5.4886 19.7898
v 8.8744 5.1210 19.2239
v 10.2781 6.1490 19.2013
v -0.3990 7.2073 18.4047
v 1.1434 7.9678 19.0602
v 3.8416 8.0390 20.0274
v 5.5587 7.3260 20.0166
v 10.4354 7.8585 19.2013
v 1.7397 10.3585 18.7554
v 3.8416 10.1468 19.6562
v 6.0609 10.4510 19.0130
v 8.7444 9.6298 19.2013
v 10.1517 9.2496 19.2013
v 1.9699 12.8585 18.3976
v 3.7958 12.7937 18.3700
v 5.1053 11.9172 18.0541
v 2.2164 14.5478 18.1335
v 2.9967 14.5478 18.1335
v -15.4166 -6.2174 20.8849
v -13.7556 -6.3847 21.1006
v -11.8237 -6.2232 20.8834
v -8.2209 -6.5927 21.7013
v -6.2664 -6.5420 21.5978
v -4.9302 -6.0408 20.6955
v -22.6254 -3.5424 20.8122
v -21.2556 -3.7545 21.2829
v -19.3642 -3.7246 21.1993
v -15.8555 -4.6415 21.2562
v -13.5097 -4.3992 21.3545
v -11.8237 -5.0710 20.8834
v -8.2209 -5.0950 21.7013
v -6.2664 -5.1780 21.5978
v -4.9302 -5.7644 20.6955
v -22.9458 -2.1399 21.6678
v -21.2334 -2.1399 22.5386
v -18.9379 -2.1415 21.5397
v -16.0417 -2.1415 21.1643
v -13.5097 -2.3728 21.0932
v -12.3866 -1.6936 20.5705
v -22.9660 -0.3934 21.7013
v -21.2334 -0.0965 21.8733
v -19.2234 -0.2306 21.1546
v -15.7394 0.3585 20.8083
v -13.8329 0.2350 20.8084
v -12.3866 -0.6806 20.5705
v -15.3247 1.8331 20.6162
v -14.7178 1.8331 20.6162
v 2.4252 4.0381 20.5008
v 2.6599 4.0381 20.5008
v 2.4252 4.4090 20.5008
v 2.6599 4.4090 20.5008
v 7.2254 6.4087 20.6134
v 8.7444 6.3351 20.7366
v 10.1714 6.4437 20.6696
v 4.7398 8.9927 20.4945
v 6.3330 8.0390 20.7104
v 8.7444 7.8585 21.0384
v 10.2337 7.8585 20.7470
v 4.7398 9.1724 20.4945
v 6.2444 9.3418 20.6536
v 8.7444 9.3895 20.7531
v 10.1365 9.2360 20.6272
v -7.7138 -6.1293 23.1005
v -7.1069 -6.1293 23.1005
v -7.7138 -5.5829 23.1005
v -7.1069 -5.5829 23.1005
v -22.7004 -1.3055 23.0813
v -22.0519 -1.3055 23.0813
v -22.7004 -0.6795 23.0813
v -22.0519 -0.6795 23.0813
f 4 2 1
f 4 5 2
f 6 2 5
f 6 3 2
f 8 4 7
f 8 5 4
f 2 9 1
f 2 10 9
f 3 10 2
f 3 11 10
f 9 4 1
f 9 12 4
f 12 9 10
f 12 10 13
f 11 3 6
f 11 6 14
f 6 5 13
f 6 13 14
f 12 7 4
f 12 15 7
f 13 5 8
f 13 8 16
f 16 8 7
f 16 7 15
f 16 14 13
f 16 17 14
f 20 15 19
f 20 16 15
f 20 17 16
f 20 21 17
f 23 18 22
f 23 19 18
f 30 24 29
f 30 25 24
f 30 26 25
f 30 31 26
f 32 28 27
f 32 33 28
f 36 10 11
f 36 35 10
f 38 10 35
f 38 13 10
f 38 12 13
f 38 37 12
f 38 34 37
f 38 35 34
f 36 11 14
f 36 14 39
f 38 35 36
f 38 36 39
f 37 15 12
f 37 42 15
f 39 14 17
f 39 17 43
f 44 41 40
f 44 45 41
f 42 19 15
f 42 46 19
f 46 18 19
f 46 45 18
f 20 19 46
f 20 46 47
f 43 17 21
f 43 21 48
f 48 21 20
f 48 20 47
f 52 18 45
f 52 22 18
f 52 44 51
f 52 45 44
f 46 19 23
f 46 23 53
f 53 23 22
f 53 22 52
f 53 47 46
f 53 54 47
f 58 49 57
f 58 50 49
f 59 24 25
f 59 58 24
f 58 51 50
f 58 59 51
f 26 59 25
f 26 60 59
f 59 52 51
f 59 60 52
f 61 52 60
f 61 53 52
f 62 27 28
f 62 61 27
f 61 54 53
f 61 62 54
f 64 56 55
f 64 65 56
f 66 56 65
f 66 57 56
f 58 29 24
f 58 67 29
f 66 58 57
f 66 67 58
f 68 30 29
f 68 29 67
f 60 26 31
f 60 31 69
f 31 30 68
f 31 68 69
f 69 68 59
f 69 59 60
f 61 32 27
f 61 70 32
f 62 28 33
f 62 33 71
f 71 33 32
f 71 32 70
f 72 62 71
f 72 63 62
f 75 67 74
f 75 68 67
f 76 70 69
f 76 77 70
f 78 70 77
f 78 71 70
f 80 73 79
f 80 74 73
f 85 34 35
f 85 84 34
f 84 82 81
f 84 85 82
f 89 34 84
f 89 37 34
f 89 83 88
f 89 84 83
f 90 85 35
f 90 35 38
f 39 90 38
f 39 91 90
f 90 86 85
f 90 91 86
f 41 93 40
f 41 94 93
f 94 87 93
f 94 88 87
f 89 42 37
f 89 95 42
f 94 89 88
f 94 95 89
f 91 39 43
f 91 43 96
f 96 92 91
f 96 97 92
f 98 40 93
f 98 44 40
f 99 94 41
f 99 41 45
f 95 46 42
f 95 100 46
f 100 45 46
f 100 99 45
f 99 95 94
f 99 100 95
f 96 43 48
f 96 48 102
f 48 47 101
f 48 101 102
f 104 49 50
f 104 103 49
f 105 44 98
f 105 51 44
f 105 50 51
f 105 104 50
f 106 99 100
f 106 100 107
f 101 47 54
f 101 54 108
f 109 101 108
f 109 102 101
f 111 55 56
f 111 110 55
f 112 49 103
f 112 57 49
f 112 56 57
f 112 111 56
f 60 59 113
f 60 113 114
f 61 60 114
f 61 114 115
f 116 108 54
f 116 54 62
f 116 115 107
f 116 107 108
f 117 62 63
f 117 116 62
f 110 64 55
f 110 119 64
f 120 65 64
f 120 64 119
f 121 66 65
f 121 65 120
f 122 67 66
f 122 66 121
f 113 59 68
f 113 68 123
f 124 113 123
f 124 114 113
f 125 61 115
f 125 70 61
f 125 69 70
f 125 124 69
f 125 114 124
f 125 115 114
f 117 63 72
f 117 72 127
f 127 72 71
f 127 71 126
f 126 116 117
f 126 117 127
f 129 118 128
f 129 119 118
f 130 119 129
f 130 120 119
f 131 120 130
f 131 121 120
f 122 74 67
f 122 132 74
f 132 73 74
f 132 131 73
f 131 122 121
f 131 132 122
f 123 68 75
f 123 75 133
f 75 74 132
f 75 132 133
f 124 76 69
f 124 134 76
f 134 123 133
f 134 124 123
f 135 77 76
f 135 76 134
f 126 71 78
f 126 78 136
f 78 77 135
f 78 135 136
f 137 130 129
f 137 138 130
f 131 79 73
f 131 139 79
f 139 130 138
f 139 131 130
f 132 74 80
f 132 80 140
f 80 79 139
f 80 139 140
f 140 133 132
f 140 141 133
f 145 143 142
f 145 146 143
f 147 81 82
f 147 146 81
f 149 145 144
f 149 150 145
f 151 81 146
f 151 84 81
f 151 83 84
f 151 150 83
f 151 145 150
f 151 146 145
f 152 147 82
f 152 82 85
f 86 152 85
f 86 153 152
f 152 148 147
f 152 153 148
f 155 83 150
f 155 88 83
f 88 154 87
f 88 155 154
f 156 153 86
f 156 86 91
f 92 156 91
f 92 157 156
f 154 93 87
f 154 158 93
f 159 158 154
f 159 154 155
f 157 92 97
f 157 97 161
f 97 96 160
f 97 160 161
f 160 156 157
f 160 157 161
f 158 98 93
f 158 162 98
f 100 99 163
f 100 163 164
f 165 160 96
f 165 96 102
f 104 166 103
f 104 167 166
f 168 98 162
f 168 105 98
f 105 167 104
f 105 168 167
f 163 99 106
f 163 106 169
f 164 107 100
f 164 170 107
f 107 169 106
f 107 170 169
f 169 164 163
f 169 170 164
f 171 108 107
f 171 107 170
f 165 102 109
f 165 109 172
f 109 108 171
f 109 171 172
f 111 177 110
f 111 178 177
f 179 103 166
f 179 112 103
f 179 111 112
f 179 178 111
f 180 170 107
f 180 107 115
f 116 180 115
f 116 181 180
f 180 171 170
f 180 181 171
f 182 171 181
f 182 172 171
f 182 173 172
f 182 183 173
f 184 175 174
f 184 185 175
f 185 176 175
f 185 186 176
f 177 119 110
f 177 188 119
f 188 118 119
f 188 187 118
f 189 188 177
f 189 177 178
f 193 181 116
f 193 116 126
f 193 192 180
f 193 180 181
f 194 183 182
f 194 195 183
f 187 128 118
f 187 198 128
f 199 129 128
f 199 128 198
f 200 190 191
f 200 191 201
f 134 133 202
f 134 202 203
f 204 135 134
f 204 134 203
f 193 126 136
f 193 136 205
f 205 136 135
f 205 135 204
f 205 204 192
f 205 192 193
f 208 196 207
f 208 197 196
f 209 197 208
f 209 198 197
f 199 137 129
f 199 210 137
f 211 138 137
f 211 137 210
f 212 139 138
f 212 138 211
f 140 139 212
f 140 212 213
f 202 133 141
f 202 141 214
f 141 140 213
f 141 213 214
f 215 202 214
f 215 203 202
f 217 206 216
f 217 207 206
f 217 208 207
f 217 218 208
f 218 209 208
f 218 219 209
f 221 212 211
f 221 222 212
f 223 212 222
f 223 213 212
f 224 219 218
f 224 225 219
f 225 220 219
f 225 226 220
f 227 223 222
f 227 228 223
f 231 142 143
f 231 230 142
f 230 145 142
f 230 233 145
f 233 144 145
f 233 232 144
f 233 229 232
f 233 230 229
f 234 231 143
f 234 143 146
f 235 146 147
f 235 234 146
f 148 235 147
f 148 236 235
f 237 144 232
f 237 149 144
f 150 149 237
f 150 237 238
f 237 232 233
f 237 233 238
f 240 239 234
f 240 234 235
f 236 148 153
f 236 153 241
f 240 235 236
f 240 236 241
f 238 155 150
f 238 243 155
f 244 243 238
f 244 238 239
f 246 241 153
f 246 153 156
f 243 159 155
f 243 248 159
f 159 247 158
f 159 248 247
f 248 242 247
f 248 243 242
f 251 246 156
f 251 156 160
f 251 250 245
f 251 245 246
f 252 158 247
f 252 162 158
f 253 252 247
f 253 247 248
f 255 254 249
f 255 249 250
f 251 160 165
f 251 165 256
f 256 255 250
f 256 250 251
f 167 259 166
f 167 260 259
f 252 168 162
f 252 261 168
f 168 260 167
f 168 261 260
f 261 252 253
f 261 253 262
f 256 165 172
f 256 172 265
f 265 264 255
f 265 255 256
f 173 265 172
f 173 266 265
f 268 174 175
f 268 267 174
f 267 258 257
f 267 268 258
f 269 175 176
f 269 268 175
f 259 179 166
f 259 273 179
f 179 272 178
f 179 273 272
f 274 273 259
f 274 259 260
f 275 261 262
f 275 262 276
f 276 262 263
f 276 263 277
f 278 181 180
f 278 180 277
f 278 277 263
f 278 263 264
f 182 181 278
f 182 278 279
f 278 264 265
f 278 265 279
f 280 266 173
f 280 173 183
f 281 174 267
f 281 184 174
f 185 184 281
f 185 281 282
f 269 176 186
f 269 186 283
f 283 186 185
f 283 185 282
f 287 187 188
f 287 286 187
f 287 270 286
f 287 271 270
f 272 189 178
f 272 288 189
f 189 287 188
f 189 288 287
f 287 272 271
f 287 288 272
f 289 288 272
f 289 272 273
f 290 191 190
f 290 190 289
f 291 275 276
f 291 276 292
f 277 180 192
f 277 192 293
f 293 292 276
f 293 276 277
f 294 182 279
f 294 194 182
f 295 280 183
f 295 183 195
f 195 194 294
f 195 294 295
f 294 279 280
f 294 280 295
f 298 283 282
f 298 299 283
f 302 196 197
f 302 301 196
f 302 284 301
f 302 285 284
f 303 187 286
f 303 198 187
f 303 197 198
f 303 302 197
f 302 286 285
f 302 303 286
f 304 199 198
f 304 198 303
f 289 190 200
f 289 200 306
f 305 288 289
f 305 289 306
f 290 201 191
f 290 307 201
f 307 200 201
f 307 306 200
f 310 293 192
f 310 192 204
f 310 204 203
f 310 203 309
f 310 309 292
f 310 292 293
f 312 296 311
f 312 297 296
f 313 297 312
f 313 298 297
f 313 299 298
f 313 314 299
f 314 300 299
f 314 315 300
f 316 196 301
f 316 207 196
f 316 206 207
f 316 315 206
f 303 198 209
f 303 209 318
f 304 210 199
f 304 319 210
f 318 304 303
f 318 319 304
f 320 211 210
f 320 210 319
f 321 306 307
f 321 307 322
f 214 213 322
f 214 322 323
f 324 309 203
f 324 203 215
f 324 215 214
f 324 214 323
f 324 323 308
f 324 308 309
f 325 312 311
f 325 326 312
f 326 313 312
f 326 327 313
f 328 313 327
f 328 314 313
f 329 206 315
f 329 216 206
f 217 216 329
f 217 329 330
f 329 315 316
f 329 316 330
f 331 218 217
f 331 217 330
f 330 316 317
f 330 317 331
f 332 318 209
f 332 209 219
f 220 332 219
f 220 333 332
f 332 319 318
f 332 333 319
f 320 221 211
f 320 334 221
f 333 320 319
f 333 334 320
f 335 222 221
f 335 221 334
f 336 322 213
f 336 213 223
f 336 335 321
f 336 321 322
f 337 328 327
f 337 338 328
f 339 218 331
f 339 224 218
f 340 225 224
f 340 224 339
f 341 333 220
f 341 220 226
f 226 225 340
f 226 340 341
f 342 222 335
f 342 227 222
f 336 223 228
f 336 228 343
f 228 227 342
f 228 342 343
f 342 335 336
f 342 336 343
f 345 229 230
f 345 344 229
f 346 230 231
f 346 345 230
f 347 229 344
f 347 232 229
f 233 232 347
f 233 347 348
f 347 344 345
f 347 345 348
f 349 346 231
f 349 231 234
f 348 345 346
f 348 346 349
f 350 233 348
f 350 238 233
f 349 234 239
f 349 239 351
f 239 238 350
f 239 350 351
f 350 348 349
f 350 349 351
f 352 239 240
f 352 351 239
f 353 240 241
f 353 352 240
f 355 242 243
f 355 354 242
f 351 244 239
f 351 356 244
f 244 355 243
f 244 356 355
f 356 351 352
f 356 352 357
f 353 241 246
f 353 246 358
f 358 246 245
f 358 245 357
f 358 357 352
f 358 352 353
f 359 242 354
f 359 247 242
f 248 247 359
f 248 359 360
f 359 354 355
f 359 355 360
f 362 357 245
f 362 245 250
f 362 250 249
f 362 249 361
f 360 253 248
f 360 363 253
f 364 361 249
f 364 249 254
f 363 360 361
f 363 361 364
f 365 254 255
f 365 364 254
f 258 366 257
f 258 367 366
f 369 260 261
f 369 368 260
f 370 253 363
f 370 262 253
f 263 262 370
f 263 370 371
f 370 363 364
f 370 364 371
f 365 255 264
f 365 264 372
f 372 264 263
f 372 263 371
f 371 364 365
f 371 365 372
f 266 373 265
f 266 374 373
f 375 257 366
f 375 267 257
f 367 258 268
f 367 268 376
f 375 366 367
f 375 367 376
f 377 268 269
f 377 376 268
f 380 270 271
f 380 379 270
f 381 271 272
f 381 380 271
f 368 274 260
f 368 383 274
f 274 382 273
f 274 383 382
f 369 261 275
f 369 275 384
f 384 383 368
f 384 368 369
f 385 265 373
f 385 279 265
f 386 374 266
f 386 266 280
f 280 279 385
f 280 385 386
f 385 373 374
f 385 374 386
f 375 281 267
f 375 389 281
f 390 282 281
f 390 281 389
f 390 389 375
f 390 375 376
f 377 269 283
f 377 283 391
f 390 376 377
f 390 377 391
f 285 393 284
f 285 394 393
f 395 270 379
f 395 286 270
f 286 394 285
f 286 395 394
f 395 378 394
f 395 379 378
f 396 395 379
f 396 379 380
f 381 272 288
f 381 288 397
f 396 380 381
f 396 381 397
f 382 289 273
f 382 398 289
f 290 289 398
f 290 398 399
f 399 398 382
f 399 382 383
f 400 384 275
f 400 275 291
f 401 291 292
f 401 400 291
f 402 388 387
f 402 403 388
f 404 296 297
f 404 403 296
f 404 388 403
f 404 389 388
f 405 282 390
f 405 298 282
f 405 297 298
f 405 404 297
f 406 391 283
f 406 283 299
f 300 406 299
f 300 407 406
f 406 392 391
f 406 407 392
f 393 301 284
f 393 408 301
f 409 408 393
f 409 393 394
f 397 288 305
f 397 305 410
f 411 305 306
f 411 410 305
f 410 398 397
f 410 411 398
f 412 290 399
f 412 307 290
f 414 401 292
f 414 292 309
f 414 309 308
f 414 308 413
f 415 296 403
f 415 311 296
f 417 407 300
f 417 300 315
f 315 314 416
f 315 416 417
f 408 316 301
f 408 418 316
f 417 408 407
f 417 418 408
f 419 317 316
f 419 316 418
f 411 306 321
f 411 321 421
f 422 307 412
f 422 322 307
f 423 413 308
f 423 308 323
f 423 323 322
f 423 322 422
f 423 422 412
f 423 412 413
f 415 325 311
f 415 424 325
f 326 325 424
f 326 424 425
f 426 327 326
f 426 326 425
f 416 314 328
f 416 328 427
f 428 416 427
f 428 417 416
f 419 331 317
f 419 430 331
f 429 419 418
f 429 430 419
f 334 333 432
f 334 432 433
f 434 421 321
f 434 321 335
f 434 335 334
f 434 334 433
f 434 433 420
f 434 420 421
f 426 337 327
f 426 436 337
f 435 426 425
f 435 436 426
f 427 328 338
f 427 338 437
f 338 337 436
f 338 436 437
f 438 427 437
f 438 428 427
f 439 331 430
f 439 339 331
f 340 339 439
f 340 439 440
f 439 430 431
f 439 431 440
f 432 333 341
f 432 341 441
f 341 340 440
f 341 440 441
f 442 432 441
f 442 433 432
f 444 435 443
f 444 436 435
f 445 436 444
f 445 437 436
f 356 446 355
f 356 447 446
f 448 356 357
f 448 447 356
f 449 355 446
f 449 360 355
f 361 360 449
f 361 449 450
f 450 449 446
f 450 446 447
f 448 357 362
f 448 362 451
f 362 361 450
f 362 450 451
f 451 450 447
f 451 447 448
f 455 452 454
f 455 453 452
f 458 378 379
f 458 457 378
f 384 462 383
f 384 463 462
f 465 387 388
f 465 464 387
f 466 388 389
f 466 465 388
f 391 467 390
f 391 468 467
f 467 455 454
f 467 468 455
f 392 468 391
f 392 469 468
f 471 378 457
f 471 394 378
f 471 456 470
f 471 457 456
f 472 458 379
f 472 379 395
f 396 472 395
f 396 473 472
f 472 459 458
f 472 473 459
f 474 396 397
f 474 473 396
f 473 460 459
f 473 474 460
f 475 397 398
f 475 474 397
f 474 461 460
f 474 475 461
f 462 399 383
f 462 476 399
f 463 384 400
f 463 400 477
f 476 462 463
f 476 463 477
f 478 400 401
f 478 477 400
f 479 387 464
f 479 402 387
f 480 403 402
f 480 402 479
f 466 389 404
f 466 404 481
f 482 390 467
f 482 405 390
f 482 404 405
f 482 481 404
f 482 466 481
f 482 467 466
f 484 469 392
f 484 392 407
f 483 468 469
f 483 469 484
f 485 407 408
f 485 484 407
f 471 409 394
f 471 486 409
f 409 485 408
f 409 486 485
f 486 470 485
f 486 471 470
f 475 398 411
f 475 411 490
f 491 399 476
f 491 412 399
f 413 412 491
f 413 491 492
f 491 476 477
f 491 477 492
f 493 478 401
f 493 401 414
f 414 413 492
f 414 492 493
f 492 477 478
f 492 478 493
f 480 415 403
f 480 494 415
f 495 494 480
f 495 480 481
f 498 418 417
f 498 417 497
f 499 487 488
f 499 488 500
f 500 488 489
f 500 489 501
f 502 490 411
f 502 411 421
f 502 421 420
f 502 420 501
f 502 501 489
f 502 489 490
f 503 415 494
f 503 424 415
f 425 424 503
f 425 503 504
f 503 494 495
f 503 495 504
f 497 417 428
f 497 428 506
f 506 505 496
f 506 496 497
f 498 429 418
f 498 507 429
f 506 498 497
f 506 507 498
f 508 430 429
f 508 429 507
f 431 430 508
f 431 508 509
f 511 501 420
f 511 420 433
f 511 510 500
f 511 500 501
f 504 435 425
f 504 512 435
f 514 506 428
f 514 428 438
f 438 437 513
f 438 513 514
f 515 508 507
f 515 516 508
f 517 431 509
f 517 440 431
f 516 509 508
f 516 517 509
f 518 441 440
f 518 440 517
f 518 517 509
f 518 509 510
f 511 433 442
f 511 442 519
f 442 441 518
f 442 518 519
f 518 510 511
f 518 511 519
f 512 443 435
f 512 520 443
f 521 444 443
f 521 443 520
f 513 437 445
f 513 445 522
f 522 445 444
f 522 444 521
f 524 452 453
f 524 523 452
f 523 454 452
f 523 527 454
f 528 524 453
f 528 453 455
f 530 456 457
f 530 529 456
f 531 457 458
f 531 530 457
f 459 531 458
f 459 532 531
f 460 532 459
f 460 533 532
f 534 460 461
f 534 533 460
f 465 535 464
f 465 536 535
f 537 465 466
f 537 536 465
f 537 525 536
f 537 526 525
f 538 454 527
f 538 467 454
f 538 466 467
f 538 537 466
f 538 526 537
f 538 527 526
f 539 528 455
f 539 455 468
f 529 470 456
f 529 541 470
f 542 531 532
f 542 532 543
f 543 532 533
f 543 533 544
f 545 534 461
f 545 461 475
f 544 533 534
f 544 534 545
f 546 464 535
f 546 479 464
f 547 480 479
f 547 479 546
f 548 481 480
f 548 480 547
f 539 468 483
f 539 483 549
f 550 483 484
f 550 549 483
f 549 540 539
f 549 550 540
f 551 470 541
f 551 485 470
f 551 484 485
f 551 550 484
f 551 540 550
f 551 541 540
f 553 488 487
f 553 487 552
f 489 488 553
f 489 553 554
f 555 545 475
f 555 475 490
f 555 490 489
f 555 489 554
f 548 495 481
f 548 556 495
f 558 497 496
f 558 496 557
f 559 552 487
f 559 487 499
f 500 559 499
f 500 560 559
f 562 495 556
f 562 504 495
f 557 496 505
f 557 505 564
f 558 506 497
f 558 565 506
f 565 505 506
f 565 564 505
f 564 558 557
f 564 565 558
f 566 507 506
f 566 506 565
f 560 500 510
f 560 510 569
f 510 509 568
f 510 568 569
f 570 560 569
f 570 561 560
f 571 504 562
f 571 512 504
f 571 562 563
f 571 563 572
f 565 506 514
f 565 514 574
f 574 514 513
f 574 513 573
f 566 515 507
f 566 575 515
f 574 566 565
f 574 575 566
f 576 516 515
f 576 515 575
f 577 568 509
f 577 509 517
f 577 517 516
f 577 516 576
f 577 576 567
f 577 567 568
f 578 568 577
f 578 569 568
f 579 512 571
f 579 520 512
f 521 520 579
f 521 579 580
f 580 579 571
f 580 571 572
f 573 513 522
f 573 522 581
f 522 521 580
f 522 580 581
f 580 572 573
f 580 573 581
f 582 573 581
f 582 574 573
f 583 574 582
f 583 575 574
f 588 523 524
f 588 587 523
f 589 585 584
f 589 590 585
f 591 525 526
f 591 590 525
f 591 585 590
f 591 586 585
f 592 523 587
f 592 527 523
f 592 526 527
f 592 591 526
f 592 586 591
f 592 587 586
f 593 588 524
f 593 524 528
f 595 529 530
f 595 594 529
f 596 530 531
f 596 595 530
f 598 525 590
f 598 536 525
f 598 535 536
f 598 597 535
f 599 593 528
f 599 528 539
f 540 599 539
f 540 600 599
f 594 541 529
f 594 601 541
f 601 540 541
f 601 600 540
f 602 601 594
f 602 594 595
f 596 531 542
f 596 542 603
f 602 595 596
f 602 596 603
f 604 542 543
f 604 603 542
f 544 604 543
f 544 605 604
f 606 544 545
f 606 605 544
f 607 535 597
f 607 546 535
f 547 546 607
f 547 607 608
f 609 548 547
f 609 547 608
f 612 611 599
f 612 599 600
f 613 612 600
f 613 600 601
f 614 613 601
f 614 601 602
f 616 553 552
f 616 552 615
f 615 603 604
f 615 604 616
f 617 554 553
f 617 553 616
f 617 616 604
f 617 604 605
f 606 545 555
f 606 555 618
f 555 554 617
f 555 617 618
f 617 605 606
f 617 606 618
f 609 556 548
f 609 620 556
f 619 609 608
f 619 620 609
f 622 621 610
f 622 610 611
f 623 622 611
f 623 611 612
f 624 623 612
f 624 612 613
f 625 615 552
f 625 552 559
f 560 625 559
f 560 626 625
f 625 616 615
f 625 626 616
f 561 626 560
f 561 627 626
f 628 556 620
f 628 562 556
f 563 562 628
f 563 628 629
f 630 622 623
f 630 623 631
f 633 568 567
f 633 567 632
f 627 561 570
f 627 570 635
f 570 569 634
f 570 634 635
f 636 563 629
f 636 572 563
f 637 573 572
f 637 572 636
f 639 632 567
f 639 567 576
f 576 575 638
f 576 638 639
f 633 577 568
f 633 640 577
f 634 569 578
f 634 578 641
f 578 577 640
f 578 640 641
f 642 634 641
f 642 635 634
f 637 581 573
f 637 644 581
f 643 637 636
f 643 644 637
f 582 581 644
f 582 644 645
f 638 575 583
f 638 583 646
f 583 582 645
f 583 645 646
f 647 638 646
f 647 639 638
f 648 639 647
f 648 640 639
f 649 648 647
f 649 650 648
f 655 584 585
f 655 654 584
f 586 655 585
f 586 656 655
f 657 586 587
f 657 656 586
f 657 651 656
f 657 652 651
f 588 657 587
f 588 658 657
f 657 653 652
f 657 658 653
f 654 589 584
f 654 659 589
f 660 590 589
f 660 589 659
f 662 658 588
f 662 588 593
f 660 598 590
f 660 664 598
f 664 597 598
f 664 663 597
f 664 659 663
f 664 660 659
f 666 662 593
f 666 593 599
f 665 661 662
f 665 662 666
f 670 602 603
f 670 669 602
f 671 597 663
f 671 607 597
f 608 607 671
f 608 671 672
f 675 666 599
f 675 599 611
f 611 610 674
f 611 674 675
f 675 667 666
f 675 676 667
f 676 668 667
f 676 677 668
f 669 614 602
f 669 678 614
f 614 677 613
f 614 678 677
f 670 603 615
f 670 615 679
f 678 669 670
f 678 670 679
f 680 615 616
f 680 679 615
f 672 619 608
f 672 681 619
f 620 619 681
f 620 681 682
f 681 672 673
f 681 673 682
f 674 610 621
f 674 621 683
f 622 683 621
f 622 684 683
f 684 674 683
f 684 675 674
f 685 675 684
f 685 676 675
f 686 613 677
f 686 624 613
f 686 623 624
f 686 685 623
f 686 676 685
f 686 677 676
f 680 616 626
f 680 626 688
f 687 679 680
f 687 680 688
f 627 688 626
f 627 689 688
f 682 628 620
f 682 690 628
f 691 629 628
f 691 628 690
f 684 622 630
f 684 630 692
f 685 631 623
f 685 693 631
f 631 692 630
f 631 693 692
f 692 685 684
f 692 693 685
f 633 632 694
f 633 694 695
f 696 695 687
f 696 687 688
f 689 627 635
f 689 635 697
f 696 688 689
f 696 689 697
f 698 629 691
f 698 636 629
f 694 632 639
f 694 639 702
f 703 633 695
f 703 640 633
f 703 639 640
f 703 702 639
f 703 694 702
f 703 695 694
f 704 641 640
f 704 640 703
f 697 635 642
f 697 642 705
f 705 642 641
f 705 641 704
f 705 704 696
f 705 696 697
f 698 643 636
f 698 706 643
f 707 644 643
f 707 643 706
f 708 645 644
f 708 644 707
f 707 699 700
f 707 700 708
f 709 646 645
f 709 645 708
f 647 646 709
f 647 709 710
f 710 709 701
f 710 701 702
f 703 640 648
f 703 648 711
f 712 703 711
f 712 704 703
f 713 647 710
f 713 649 647
f 714 711 648
f 714 648 650
f 650 649 713
f 650 713 714
f 714 713 710
f 714 710 711
f 720 715 719
f 720 716 715
f 722 717 721
f 722 718 717
f 723 718 722
f 723 719 718
f 724 651 652
f 724 723 651
f 723 720 719
f 723 724 720
f 725 652 653
f 725 724 652
f 728 654 655
f 728 727 654
f 728 721 727
f 728 722 721
f 729 651 723
f 729 656 651
f 729 655 656
f 729 728 655
f 729 722 728
f 729 723 722
f 730 725 653
f 730 653 658
f 732 654 727
f 732 659 654
f 732 726 731
f 732 727 726
f 734 730 658
f 734 658 662
f 734 662 661
f 734 661 733
f 732 663 659
f 732 736 663
f 735 732 731
f 735 736 732
f 733 661 665
f 733 665 738
f 739 665 666
f 739 738 665
f 667 739 666
f 667 740 739
f 668 740 667
f 668 741 740
f 742 663 736
f 742 671 663
f 672 671 742
f 672 742 743
f 742 736 737
f 742 737 743
f 673 672 743
f 673 743 744
f 746 745 738
f 746 738 739
f 747 741 668
f 747 668 677
f 678 747 677
f 678 748 747
f 749 678 679
f 749 748 678
f 750 673 744
f 750 682 673
f 750 744 745
f 750 745 751
f 752 751 745
f 752 745 746
f 749 679 687
f 749 687 753
f 750 690 682
f 750 755 690
f 691 690 755
f 691 755 756
f 755 750 751
f 755 751 756
f 757 756 751
f 757 751 752
f 760 753 687
f 760 687 695
f 696 760 695
f 696 761 760
f 760 754 753
f 760 761 754
f 762 691 756
f 762 698 691
f 700 699 763
f 700 763 764
f 766 702 701
f 766 701 765
f 765 758 759
f 765 759 766
f 768 761 696
f 768 696 704
f 767 760 761
f 767 761 768
f 762 706 698
f 762 769 706
f 763 699 707
f 763 707 770
f 770 707 706
f 770 706 769
f 764 708 700
f 764 771 708
f 770 764 763
f 770 771 764
f 772 765 701
f 772 701 709
f 772 709 708
f 772 708 771
f 773 702 766
f 773 710 702
f 711 710 773
f 711 773 774
f 768 704 712
f 768 712 775
f 712 711 774
f 712 774 775
f 775 774 767
f 775 767 768
f 716 776 715
f 716 777 776
f 784 717 718
f 784 783 717
f 776 719 715
f 776 785 719
f 785 718 719
f 785 784 718
f 786 777 716
f 786 716 720
f 786 778 777
f 786 787 778
f 789 779 788
f 789 780 779
f 789 781 780
f 789 790 781
f 790 782 781
f 790 791 782
f 792 717 783
f 792 721 717
f 792 782 791
f 792 783 782
f 794 793 784
f 794 784 785
f 786 720 724
f 786 724 795
f 796 724 725
f 796 795 724
f 795 787 786
f 795 796 787
f 798 788 797
f 798 789 788
f 799 789 798
f 799 790 789
f 799 791 790
f 799 800 791
f 801 721 792
f 801 727 721
f 801 726 727
f 801 800 726
f 801 791 800
f 801 792 791
f 803 796 725
f 803 725 730
f 802 795 796
f 802 796 803
f 804 726 800
f 804 731 726
f 808 803 730
f 808 730 734
f 808 734 733
f 808 733 807
f 808 807 802
f 808 802 803
f 809 731 804
f 809 735 731
f 810 736 735
f 810 735 809
f 809 804 805
f 809 805 810
f 737 736 810
f 737 810 811
f 813 807 733
f 813 733 738
f 813 812 806
f 813 806 807
f 740 814 739
f 740 815 814
f 816 740 741
f 816 815 740
f 817 737 811
f 817 743 737
f 744 743 817
f 744 817 818
f 813 738 745
f 813 745 819
f 745 744 818
f 745 818 819
f 814 746 739
f 814 820 746
f 821 820 814
f 821 814 815
f 816 741 747
f 816 747 822
f 821 815 816
f 821 816 822
f 823 747 748
f 823 822 747
f 824 748 749
f 824 823 748
f 820 752 746
f 820 827 752
f 826 820 819
f 826 827 820
f 824 749 753
f 824 753 829
f 754 829 753
f 754 830 829
f 832 825 831
f 832 826 825
f 827 757 752
f 827 833 757
f 757 832 756
f 757 833 832
f 833 826 832
f 833 827 826
f 833 827 828
f 833 828 834
f 759 758 835
f 759 835 836
f 838 830 754
f 838 754 761
f 838 761 760
f 838 760 837
f 837 829 830
f 837 830 838
f 832 762 756
f 832 840 762
f 840 831 839
f 840 832 831
f 835 758 765
f 835 765 843
f 836 766 759
f 836 844 766
f 844 835 843
f 844 836 835
f 837 760 767
f 837 767 845
f 840 769 762
f 840 846 769
f 847 770 769
f 847 769 846
f 848 771 770
f 848 770 847
f 848 847 841
f 848 841 842
f 843 765 772
f 843 772 849
f 849 772 771
f 849 771 848
f 849 848 842
f 849 842 843
f 850 766 844
f 850 773 766
f 851 845 767
f 851 767 774
f 851 774 773
f 851 773 850
f 850 844 845
f 850 845 851
f 853 846 852
f 853 847 846
f 856 776 777
f 856 855 776
f 778 856 777
f 778 857 856
f 780 859 779
f 780 860 859
f 861 780 781
f 861 860 780
f 782 861 781
f 782 862 861
f 863 782 783
f 863 862 782
f 784 863 783
f 784 864 863
f 865 776 855
f 865 785 776
f 865 854 864
f 865 855 854
f 866 857 778
f 866 778 787
f 867 857 866
f 867 858 857
f 859 788 779
f 859 868 788
f 869 868 859
f 869 859 860
f 870 864 784
f 870 784 793
f 865 794 785
f 865 871 794
f 794 870 793
f 794 871 870
f 870 865 864
f 870 871 865
f 873 866 787
f 873 787 796
f 796 795 872
f 796 872 873
f 874 788 868
f 874 797 788
f 875 798 797
f 875 797 874
f 876 799 798
f 876 798 875
f 877 800 799
f 877 799 876
f 872 795 802
f 872 802 878
f 877 804 800
f 877 879 804
f 880 805 804
f 880 804 879
f 883 878 802
f 883 802 807
f 883 807 806
f 883 806 882
f 885 805 880
f 885 810 805
f 884 880 879
f 884 885 880
f 811 810 885
f 811 885 886
f 882 806 812
f 882 812 887
f 887 886 881
f 887 881 882
f 888 812 813
f 888 887 812
f 891 811 886
f 891 817 811
f 892 818 817
f 892 817 891
f 888 813 819
f 888 819 893
f 893 819 818
f 893 818 892
f 892 887 888
f 892 888 893
f 820 893 819
f 820 894 893
f 821 894 820
f 821 895 894
f 896 821 822
f 896 895 821
f 895 890 889
f 895 896 890
f 823 896 822
f 823 897 896
f 898 823 824
f 898 897 823
f 893 826 819
f 893 900 826
f 826 899 825
f 826 900 899
f 900 893 894
f 900 894 901
f 902 828 827
f 902 827 901
f 898 824 829
f 898 829 904
f 903 897 898
f 903 898 904
f 899 831 825
f 899 906 831
f 907 906 899
f 907 899 900
f 908 901 827
f 908 827 833
f 902 834 828
f 902 909 834
f 834 908 833
f 834 909 908
f 908 902 901
f 908 909 902
f 910 904 829
f 910 829 837
f 910 905 904
f 910 911 905
f 906 839 831
f 906 912 839
f 840 839 912
f 840 912 913
f 912 906 907
f 912 907 913
f 842 841 914
f 842 914 915
f 916 843 842
f 916 842 915
f 917 844 843
f 917 843 916
f 918 910 837
f 918 837 845
f 845 844 917
f 845 917 918
f 919 910 918
f 919 911 910
f 921 840 913
f 921 846 840
f 922 914 841
f 922 841 847
f 923 914 922
f 923 915 914
f 924 917 916
f 924 925 917
f 926 917 925
f 926 918 917
f 927 918 926
f 927 919 918
f 927 920 919
f 927 928 920
f 921 852 846
f 921 929 852
f 922 847 853
f 922 853 930
f 930 853 852
f 930 852 929
f 940 854 855
f 940 939 854
f 941 855 856
f 941 940 855
f 941 931 940
f 941 932 931
f 857 941 856
f 857 942 941
f 942 932 941
f 942 933 932
f 858 942 857
f 858 943 942
f 942 934 933
f 942 943 934
f 944 934 943
f 944 935 934
f 861 945 860
f 861 946 945
f 946 936 945
f 946 937 936
f 947 861 862
f 947 946 861
f 947 937 946
f 947 938 937
f 863 947 862
f 863 948 947
f 949 854 939
f 949 864 854
f 949 863 864
f 949 948 863
f 951 943 858
f 951 858 867
f 867 866 950
f 867 950 951
f 951 944 943
f 951 952 944
f 945 869 860
f 945 954 869
f 869 953 868
f 869 954 953
f 955 954 945
f 955 945 946
f 950 866 873
f 950 873 959
f 959 873 872
f 959 872 958
f 960 950 959
f 960 951 950
f 960 952 951
f 960 961 952
f 953 874 868
f 953 962 874
f 875 874 962
f 875 962 963
f 963 962 953
f 963 953 954
f 876 875 963
f 876 963 964
f 877 876 964
f 877 964 965
f 968 967 956
f 968 956 957
f 969 958 872
f 969 872 878
f 968 957 958
f 968 958 969
f 970 958 969
f 970 959 958
f 971 877 965
f 971 879 877
f 973 972 966
f 973 966 967
f 974 882 881
f 974 881 973
f 975 969 878
f 975 878 883
f 883 882 974
f 883 974 975
f 976 969 975
f 976 970 969
f 977 879 971
f 977 884 879
f 978 885 884
f 978 884 977
f 977 971 972
f 977 972 978
f 979 973 881
f 979 881 886
f 886 885 978
f 886 978 979
f 978 972 973
f 978 973 979
f 980 886 887
f 980 979 886
f 982 889 890
f 982 981 889
f 983 886 979
f 983 891 886
f 980 887 892
f 980 892 984
f 984 892 891
f 984 891 983
f 983 979 980
f 983 980 984
f 986 889 981
f 986 895 889
f 895 985 894
f 895 986 985
f 987 982 890
f 987 890 896
f 897 987 896
f 897 988 987
f 991 894 985
f 991 901 894
f 901 990 900
f 901 991 990
f 988 897 903
f 988 903 992
f 993 903 904
f 993 992 903
f 992 989 988
f 992 993 989
f 994 904 905
f 994 993 904
f 990 907 900
f 990 995 907
f 996 995 990
f 996 990 991
f 994 905 911
f 994 911 1000
f 999 993 994
f 999 994 1000
f 1001 907 995
f 1001 913 907
f 916 915 1002
f 916 1002 1003
f 1004 1003 997
f 1004 997 998
f 1000 911 919
f 1000 919 1005
f 920 1005 919
f 920 1006 1005
f 1001 921 913
f 1001 1007 921
f 1002 915 923
f 1002 923 1009
f 923 922 1008
f 923 1008 1009
f 1003 924 916
f 1003 1010 924
f 1011 925 924
f 1011 924 1010
f 1012 926 925
f 1012 925 1011
f 1013 927 926
f 1013 926 1012
f 1006 920 928
f 1006 928 1014
f 928 927 1013
f 928 1013 1014
f 1007 929 921
f 1007 1015 929
f 1008 922 930
f 1008 930 1016
f 930 929 1015
f 930 1015 1016
f 1017 1011 1010
f 1017 1018 1011
f 1019 1011 1018
f 1019 1012 1011
f 1021 931 932
f 1021 1020 931
f 933 1021 932
f 933 1022 1021
f 934 1022 933
f 934 1023 1022
f 1024 934 935
f 1024 1023 934
f 937 1025 936
f 937 1026 1025
f 938 1026 937
f 938 1027 1026
f 1030 931 1020
f 1030 940 931
f 940 1029 939
f 940 1030 1029
f 1024 935 944
f 1024 944 1032
f 1031 1023 1024
f 1031 1024 1032
f 1033 936 1025
f 1033 945 936
f 1034 946 945
f 1034 945 1033
f 1034 1033 1025
f 1034 1025 1026
f 1035 1027 938
f 1035 938 947
f 948 1035 947
f 948 1036 1035
f 1035 1028 1027
f 1035 1036 1028
f 1029 949 939
f 1029 1037 949
f 949 1036 948
f 949 1037 1036
f 1038 1037 1029
f 1038 1029 1030
f 1032 944 952
f 1032 952 1039
f 1042 946 1034
f 1042 955 946
f 955 1041 954
f 955 1042 1041
f 1042 1033 1041
f 1042 1034 1033
f 1044 957 956
f 1044 956 1043
f 1045 958 957
f 1045 957 1044
f 960 959 1046
f 960 1046 1047
f 1039 952 961
f 1039 961 1048
f 961 960 1047
f 961 1047 1048
f 1049 1039 1048
f 1049 1040 1039
f 1041 963 954
f 1041 1050 963
f 964 963 1050
f 964 1050 1051
f 1052 965 964
f 1052 964 1051
f 1054 1043 956
f 1054 956 967
f 967 966 1053
f 967 1053 1054
f 968 1054 967
f 968 1055 1054
f 1055 1043 1054
f 1055 1044 1043
f 1056 958 1045
f 1056 969 958
f 1056 968 969
f 1056 1055 968
f 1056 1044 1055
f 1056 1045 1044
f 1046 959 970
f 1046 970 1057
f 1058 1046 1057
f 1058 1047 1046
f 1059 1047 1058
f 1059 1048 1047
f 1052 971 965
f 1052 1061 971
f 1060 1052 1051
f 1060 1061 1052
f 1053 966 972
f 1053 972 1062
f 1062 972 971
f 1062 971 1061
f 1063 967 1054
f 1063 973 967
f 1063 1053 1062
f 1063 1054 1053
f 974 973 1063
f 974 1063 1064
f 1065 975 974
f 1065 974 1064
f 1057 970 976
f 1057 976 1066
f 976 975 1065
f 976 1065 1066
f 1068 1060 1067
f 1068 1061 1060
f 1068 1062 1061
f 1068 1069 1062
f 1070 1062 1069
f 1070 1063 1062
f 982 1071 981
f 982 1072 1071
f 1071 986 981
f 1071 1074 986
f 986 1073 985
f 986 1074 1073
f 1072 982 987
f 1072 987 1075
f 1074 1071 1072
f 1074 1072 1075
f 1076 987 988
f 1076 1075 987
f 989 1076 988
f 989 1077 1076
f 1079 985 1073
f 1079 991 985
f 1080 1079 1073
f 1080 1073 1074
f 1081 1080 1074
f 1081 1074 1075
f 1082 1077 989
f 1082 989 993
f 1082 1078 1077
f 1082 1083 1078
f 1079 996 991
f 1079 1086 996
f 996 1085 995
f 996 1086 1085
f 1087 1086 1079
f 1087 1079 1080
f 1087 1080 1081
f 1087 1081 1088
f 1089 998 997
f 1089 997 1088
f 1082 993 999
f 1082 999 1090
f 1000 1090 999
f 1000 1091 1090
f 1090 1083 1082
f 1090 1091 1083
f 1091 1084 1083
f 1091 1092 1084
f 1085 1001 995
f 1085 1093 1001
f 1094 1093 1085
f 1094 1085 1086
f 1094 1086 1087
f 1094 1087 1095
f 1096 1088 997
f 1096 997 1003
f 1096 1003 1002
f 1096 1002 1095
f 1089 1004 998
f 1089 1097 1004
f 1004 1096 1003
f 1004 1097 1096
f 1097 1088 1096
f 1097 1089 1088
f 1091 1000 1005
f 1091 1005 1098
f 1099 1005 1006
f 1099 1098 1005
f 1100 1001 1093
f 1100 1007 1001
f 1101 1100 1093
f 1101 1093 1094
f 1102 1095 1002
f 1102 1002 1009
f 1009 1008 1101
f 1009 1101 1102
f 1096 1010 1003
f 1096 1103 1010
f 1102 1096 1095
f 1102 1103 1096
f 1013 1012 1104
f 1013 1104 1105
f 1099 1006 1014
f 1099 1014 1106
f 1106 1014 1013
f 1106 1013 1105
f 1106 1105 1098
f 1106 1098 1099
f 1107 1007 1100
f 1107 1015 1007
f 1108 1101 1008
f 1108 1008 1016
f 1016 1015 1107
f 1016 1107 1108
f 1108 1107 1100
f 1108 1100 1101
f 1103 1017 1010
f 1103 1109 1017
f 1018 1017 1109
f 1018 1109 1110
f 1104 1012 1019
f 1104 1019 1111
f 1019 1018 1110
f 1019 1110 1111
f 1112 1111 1110
f 1112 1113 1111
f 1118 1020 1021
f 1118 1117 1020
f 1119 1021 1022
f 1119 1118 1021
f 1120 1022 1023
f 1120 1119 1022
f 1027 1122 1026
f 1027 1123 1122
f 1028 1123 1027
f 1028 1124 1123
f 1124 1114 1123
f 1124 1115 1114
f 1124 1116 1115
f 1124 1125 1116
f 1126 1020 1117
f 1126 1030 1020
f 1128 1127 1118
f 1128 1118 1119
f 1120 1023 1031
f 1120 1031 1129
f 1032 1129 1031
f 1032 1130 1129
f 1129 1121 1120
f 1129 1130 1121
f 1132 1026 1122
f 1132 1034 1026
f 1034 1131 1033
f 1034 1132 1131
f 1133 1132 1122
f 1133 1122 1123
f 1134 1124 1028
f 1134 1028 1036
f 1037 1134 1036
f 1037 1135 1134
f 1134 1125 1124
f 1134 1135 1125
f 1136 1030 1126
f 1136 1038 1030
f 1038 1135 1037
f 1038 1136 1135
f 1136 1125 1135
f 1136 1126 1125
f 1137 1130 1032
f 1137 1032 1039
f 1040 1137 1039
f 1040 1138 1137
f 1131 1041 1033
f 1131 1139 1041
f 1143 1138 1040
f 1143 1040 1049
f 1049 1048 1142
f 1049 1142 1143
f 1139 1050 1041
f 1139 1144 1050
f 1145 1051 1050
f 1145 1050 1144
f 1146 1140 1141
f 1146 1141 1147
f 1148 1058 1057
f 1148 1057 1147
f 1142 1048 1059
f 1142 1059 1149
f 1059 1058 1148
f 1059 1148 1149
f 1145 1060 1051
f 1145 1151 1060
f 1150 1145 1144
f 1150 1151 1145
f 1064 1063 1152
f 1064 1152 1153
f 1065 1064 1153
f 1065 1153 1154
f 1155 1147 1057
f 1155 1057 1066
f 1155 1066 1065
f 1155 1065 1154
f 1155 1154 1146
f 1155 1146 1147
f 1151 1067 1060
f 1151 1157 1067
f 1156 1151 1150
f 1156 1157 1151
f 1158 1068 1067
f 1158 1067 1157
f 1159 1069 1068
f 1159 1068 1158
f 1152 1063 1070
f 1152 1070 1160
f 1160 1070 1069
f 1160 1069 1159
f 1164 1158 1163
f 1164 1159 1158
f 1076 1165 1075
f 1076 1166 1165
f 1077 1166 1076
f 1077 1167 1166
f 1078 1167 1077
f 1078 1168 1167
f 1167 1162 1161
f 1167 1168 1162
f 1165 1081 1075
f 1165 1170 1081
f 1171 1170 1165
f 1171 1165 1166
f 1172 1168 1078
f 1172 1078 1083
f 1084 1172 1083
f 1084 1173 1172
f 1172 1169 1168
f 1172 1173 1169
f 1176 1081 1170
f 1176 1088 1081
f 1088 1175 1087
f 1088 1176 1175
f 1177 1176 1170
f 1177 1170 1171
f 1179 1173 1084
f 1179 1084 1092
f 1092 1091 1178
f 1092 1178 1179
f 1179 1174 1173
f 1179 1180 1174
f 1175 1095 1087
f 1175 1182 1095
f 1095 1181 1094
f 1095 1182 1181
f 1183 1182 1175
f 1183 1175 1176
f 1178 1091 1098
f 1178 1098 1184
f 1185 1094 1181
f 1185 1101 1094
f 1102 1101 1185
f 1102 1185 1186
f 1186 1185 1181
f 1186 1181 1182
f 1103 1102 1186
f 1103 1186 1187
f 1184 1098 1105
f 1184 1105 1190
f 1105 1104 1189
f 1105 1189 1190
f 1187 1109 1103
f 1187 1191 1109
f 1110 1109 1191
f 1110 1191 1192
f 1191 1187 1188
f 1191 1188 1192
f 1193 1189 1104
f 1193 1104 1111
f 1194 1189 1193
f 1194 1190 1189
f 1192 1112 1110
f 1192 1195 1112
f 1193 1111 1113
f 1193 1113 1196
f 1113 1112 1195
f 1113 1195 1196
f 1197 1193 1196
f 1197 1194 1193
f 1115 1198 1114
f 1115 1199 1198
f 1116 1199 1115
f 1116 1200 1199
f 1202 1117 1118
f 1202 1201 1117
f 1120 1203 1119
f 1120 1204 1203
f 1121 1204 1120
f 1121 1205 1204
f 1206 1114 1198
f 1206 1123 1114
f 1207 1206 1198
f 1207 1198 1199
f 1208 1200 1116
f 1208 1116 1125
f 1209 1117 1201
f 1209 1126 1117
f 1126 1208 1125
f 1126 1209 1208
f 1208 1201 1200
f 1208 1209 1201
f 1202 1118 1127
f 1202 1127 1210
f 1209 1201 1202
f 1209 1202 1210
f 1203 1128 1119
f 1203 1211 1128
f 1128 1210 1127
f 1128 1211 1210
f 1213 1205 1121
f 1213 1121 1130
f 1215 1131 1132
f 1215 1214 1131
f 1206 1133 1123
f 1206 1216 1133
f 1133 1215 1132
f 1133 1216 1215
f 1217 1216 1206
f 1217 1206 1207
f 1219 1210 1211
f 1219 1211 1220
f 1220 1211 1212
f 1220 1212 1221
f 1222 1213 1130
f 1222 1130 1137
f 1221 1212 1213
f 1221 1213 1222
f 1223 1137 1138
f 1223 1222 1137
f 1214 1139 1131
f 1214 1224 1139
f 1224 1214 1215
f 1224 1215 1225
f 1226 1225 1215
f 1226 1215 1216
f 1226 1216 1217
f 1226 1217 1227
f 1227 1217 1218
f 1227 1218 1228
f 1141 1140 1229
f 1141 1229 1230
f 1229 1219 1220
f 1229 1220 1230
f 1231 1230 1220
f 1231 1220 1221
f 1232 1231 1221
f 1232 1221 1222
f 1223 1138 1143
f 1223 1143 1233
f 1233 1143 1142
f 1233 1142 1232
f 1233 1232 1222
f 1233 1222 1223
f 1224 1144 1139
f 1224 1234 1144
f 1235 1234 1224
f 1235 1224 1225
f 1236 1229 1140
f 1236 1140 1146
f 1237 1141 1230
f 1237 1147 1141
f 1237 1229 1236
f 1237 1230 1229
f 1238 1148 1147
f 1238 1147 1237
f 1232 1142 1149
f 1232 1149 1239
f 1149 1148 1238
f 1149 1238 1239
f 1234 1150 1144
f 1234 1240 1150
f 1153 1152 1241
f 1153 1241 1242
f 1243 1236 1146
f 1243 1146 1154
f 1243 1154 1153
f 1243 1153 1242
f 1240 1156 1150
f 1240 1244 1156
f 1245 1157 1156
f 1245 1156 1244
f 1246 1158 1157
f 1246 1157 1245
f 1241 1152 1160
f 1241 1160 1248
f 1160 1159 1247
f 1160 1247 1248
f 1249 1241 1248
f 1249 1242 1241
f 1162 1250 1161
f 1162 1251 1250
f 1246 1163 1158
f 1246 1253 1163
f 1252 1246 1245
f 1252 1253 1246
f 1247 1159 1164
f 1247 1164 1254
f 1254 1164 1163
f 1254 1163 1253
f 1255 1247 1254
f 1255 1248 1247
f 1257 1161 1250
f 1257 1167 1161
f 1167 1256 1166
f 1167 1257 1256
f 1258 1251 1162
f 1258 1162 1168
f 1257 1250 1251
f 1257 1251 1258
f 1169 1258 1168
f 1169 1259 1258
f 1256 1171 1166
f 1256 1261 1171
f 1262 1259 1169
f 1262 1169 1173
f 1174 1262 1173
f 1174 1263 1262
f 1261 1177 1171
f 1261 1265 1177
f 1177 1264 1176
f 1177 1265 1264
f 1265 1260 1264
f 1265 1261 1260
f 1267 1179 1178
f 1267 1178 1266
f 1263 1174 1180
f 1263 1180 1268
f 1180 1179 1267
f 1180 1267 1268
f 1264 1183 1176
f 1264 1270 1183
f 1183 1269 1182
f 1183 1270 1269
f 1270 1264 1265
f 1270 1265 1271
f 1266 1178 1184
f 1266 1184 1272
f 1273 1266 1272
f 1273 1267 1266
f 1274 1267 1273
f 1274 1268 1267
f 1269 1186 1182
f 1269 1275 1186
f 1187 1186 1275
f 1187 1275 1276
f 1276 1275 1269
f 1276 1269 1270
f 1188 1187 1276
f 1188 1276 1277
f 1276 1270 1271
f 1276 1271 1277
f 1272 1184 1190
f 1272 1190 1279
f 1280 1188 1277
f 1280 1192 1188
f 1279 1190 1194
f 1279 1194 1282
f 1282 1281 1278
f 1282 1278 1279
f 1283 1192 1280
f 1283 1195 1192
f 1196 1195 1283
f 1196 1283 1284
f 1284 1283 1280
f 1284 1280 1281
f 1285 1282 1194
f 1285 1194 1197
f 1197 1196 1284
f 1197 1284 1285
f 1284 1281 1282
f 1284 1282 1285
f 1200 1286 1199
f 1200 1287 1286
f 1288 1200 1201
f 1288 1287 1200
f 1204 1289 1203
f 1204 1290 1289
f 1291 1204 1205
f 1291 1290 1204
f 1286 1207 1199
f 1286 1292 1207
f 1293 1292 1286
f 1293 1286 1287
f 1288 1201 1209
f 1288 1209 1294
f 1293 1287 1288
f 1293 1288 1294
f 1295 1209 1210
f 1295 1294 1209
f 1296 1203 1289
f 1296 1211 1203
f 1212 1211 1296
f 1212 1296 1297
f 1297 1296 1289
f 1297 1289 1290
f 1298 1291 1205
f 1298 1205 1213
f 1298 1213 1212
f 1298 1212 1297
f 1298 1297 1290
f 1298 1290 1291
f 1299 1207 1292
f 1299 1217 1207
f 1218 1217 1299
f 1218 1299 1300
f 1299 1292 1293
f 1299 1293 1300
f 1301 1300 1293
f 1301 1293 1294
f 1295 1210 1219
f 1295 1219 1302
f 1301 1294 1295
f 1301 1295 1302
f 1226 1303 1225
f 1226 1304 1303
f 1227 1304 1226
f 1227 1305 1304
f 1300 1228 1218
f 1300 1306 1228
f 1228 1305 1227
f 1228 1306 1305
f 1306 1300 1301
f 1306 1301 1307
f 1308 1302 1219
f 1308 1219 1229
f 1307 1301 1302
f 1307 1302 1308
f 1309 1229 1230
f 1309 1308 1229
f 1231 1309 1230
f 1231 1310 1309
f 1311 1231 1232
f 1311 1310 1231
f 1303 1235 1225
f 1303 1313 1235
f 1235 1312 1234
f 1235 1313 1312
f 1314 1313 1303
f 1314 1303 1304
f 1315 1314 1304
f 1315 1304 1305
f 1318 1317 1307
f 1318 1307 1308
f 1319 1237 1236
f 1319 1236 1318
f 1238 1237 1319
f 1238 1319 1320
f 1311 1232 1239
f 1311 1239 1321
f 1321 1239 1238
f 1321 1238 1320
f 1320 1310 1311
f 1320 1311 1321
f 1312 1240 1234
f 1312 1322 1240
f 1323 1314 1315
f 1323 1315 1324
f 1326 1325 1316
f 1326 1316 1317
f 1327 1318 1236
f 1327 1236 1243
f 1327 1243 1242
f 1327 1242 1326
f 1327 1326 1317
f 1327 1317 1318
f 1322 1244 1240
f 1322 1328 1244
f 1245 1244 1328
f 1245 1328 1329
f 1331 1330 1323
f 1331 1323 1324
f 1326 1242 1249
f 1326 1249 1333
f 1249 1248 1332
f 1249 1332 1333
f 1329 1252 1245
f 1329 1334 1252
f 1335 1253 1252
f 1335 1252 1334
f 1334 1329 1330
f 1334 1330 1335
f 1254 1253 1335
f 1254 1335 1336
f 1335 1330 1331
f 1335 1331 1336
f 1332 1248 1255
f 1332 1255 1337
f 1255 1254 1336
f 1255 1336 1337
f 1339 1256 1257
f 1339 1338 1256
f 1340 1257 1258
f 1340 1339 1257
f 1259 1340 1258
f 1259 1341 1340
f 1343 1256 1338
f 1343 1261 1256
f 1261 1342 1260
f 1261 1343 1342
f 1345 1344 1339
f 1345 1339 1340
f 1341 1259 1262
f 1341 1262 1346
f 1345 1340 1341
f 1345 1341 1346
f 1347 1262 1263
f 1347 1346 1262
f 1348 1260 1342
f 1348 1264 1260
f 1265 1264 1348
f 1265 1348 1349
f 1349 1348 1342
f 1349 1342 1343
f 1349 1343 1344
f 1349 1344 1350
f 1351 1350 1344
f 1351 1344 1345
f 1352 1347 1263
f 1352 1263 1268
f 1349 1271 1265
f 1349 1353 1271
f 1353 1349 1350
f 1353 1350 1354
f 1356 1273 1272
f 1356 1272 1355
f 1352 1268 1274
f 1352 1274 1357
f 1274 1273 1356
f 1274 1356 1357
f 1358 1271 1353
f 1358 1277 1271
f 1359 1358 1353
f 1359 1353 1354
f 1360 1355 1272
f 1360 1272 1279
f 1360 1279 1278
f 1360 1278 1359
f 1360 1359 1354
f 1360 1354 1355
f 1361 1277 1358
f 1361 1280 1277
f 1362 1359 1278
f 1362 1278 1281
f 1281 1280 1361
f 1281 1361 1362
f 1362 1361 1358
f 1362 1358 1359
f 1306 1363 1305
f 1306 1364 1363
f 1365 1306 1307
f 1365 1364 1306
f 1309 1366 1308
f 1309 1367 1366
f 1368 1309 1310
f 1368 1367 1309
f 1370 1312 1313
f 1370 1369 1312
f 1371 1313 1314
f 1371 1370 1313
f 1363 1315 1305
f 1363 1372 1315
f 1373 1372 1363
f 1373 1363 1364
f 1365 1307 1317
f 1365 1317 1374
f 1374 1317 1316
f 1374 1316 1373
f 1374 1373 1364
f 1374 1364 1365
f 1366 1318 1308
f 1366 1375 1318
f 1319 1318 1375
f 1319 1375 1376
f 1377 1368 1310
f 1377 1310 1320
f 1377 1320 1319
f 1377 1319 1376
f 1377 1376 1367
f 1377 1367 1368
f 1369 1322 1312
f 1369 1378 1322
f 1378 1369 1370
f 1378 1370 1379
f 1371 1314 1323
f 1371 1323 1380
f 1379 1370 1371
f 1379 1371 1380
f 1381 1315 1372
f 1381 1324 1315
f 1382 1373 1316
f 1382 1316 1325
f 1382 1381 1372
f 1382 1372 1373
f 1383 1325 1326
f 1383 1382 1325
f 1378 1328 1322
f 1378 1384 1328
f 1385 1329 1328
f 1385 1328 1384
f 1386 1380 1323
f 1386 1323 1330
f 1386 1330 1329
f 1386 1329 1385
f 1385 1379 1380
f 1385 1380 1386
f 1381 1331 1324
f 1381 1387 1331
f 1388 1387 1381
f 1388 1381 1382
f 1383 1326 1333
f 1383 1333 1389
f 1389 1333 1332
f 1389 1332 1388
f 1389 1388 1382
f 1389 1382 1383
f 1390 1331 1387
f 1390 1336 1331
f 1391 1388 1332
f 1391 1332 1337
f 1337 1336 1390
f 1337 1390 1391
f 1391 1390 1387
f 1391 1387 1388
f 1393 1338 1339
f 1393 1392 1338
f 1394 1338 1392
f 1394 1343 1338
f 1393 1339 1344
f 1393 1344 1395
f 1344 1343 1394
f 1344 1394 1395
f 1394 1392 1393
f 1394 1393 1395
f 1346 1396 1345
f 1346 1397 1396
f 1347 1397 1346
f 1347 1398 1397
f 1396 1351 1345
f 1396 1400 1351
f 1351 1399 1350
f 1351 1400 1399
f 1401 1400 1396
f 1401 1396 1397
f 1398 1347 1352
f 1398 1352 1402
f 1401 1397 1398
f 1401 1398 1402
f 1403 1350 1399
f 1403 1354 1350
f 1355 1354 1403
f 1355 1403 1404
f 1404 1403 1399
f 1404 1399 1400
f 1356 1355 1404
f 1356 1404 1405
f 1405 1404 1400
f 1405 1400 1401
f 1406 1402 1352
f 1406 1352 1357
f 1406 1357 1356
f 1406 1356 1405
f 1406 1405 1401
f 1406 1401 1402
f 1408 1366 1367
f 1408 1407 1366
f 1409 1366 1407
f 1409 1375 1366
f 1408 1367 1376
f 1408 1376 1410
f 1410 1376 1375
f 1410 1375 1409
f 1409 1407 1408
f 1409 1408 1410
f 1379 1411 1378
f 1379 1412 1411
f 1411 1384 1378
f 1411 1413 1384
f 1414 1412 1379
f 1414 1379 1385
f 1414 1385 1384
f 1414 1384 1413
f 1413 1411 1412
f 1413 1412 1414
