# parsimony mesh: eg10467_monomer (source /Users/eranagmon/code/v2e-abund/workspace/studies/ecoli-3d/viz/3d/structures/eg10467_monomer.pdb)
# atoms: 648  voxel: 16 Å  verts: 35  tris: 62
v 15.0230 -11.0297 -16.5221
v 19.3075 -11.0297 -16.5221
v -3.6859 5.3074 -16.2200
v 9.2116 -0.3722 -16.9978
v 19.2110 -0.8915 -16.6066
v -3.6859 8.4283 -16.2200
v 8.4944 8.4323 -16.3800
v 17.3034 7.5537 -15.6525
v -17.0646 -9.6621 -0.5730
v -14.0185 -9.6621 -0.5730
v 15.0230 -11.0297 -13.7551
v 19.3075 -11.0297 -13.7551
v -17.0646 -5.0471 -0.5730
v -9.3629 0.2449 -4.2734
v 8.6849 -0.1546 -8.6593
v 19.2110 -0.8915 -13.4647
v -5.8712 9.4076 -7.0487
v 8.0058 9.2149 -8.1576
v 17.3034 7.5537 -14.2303
v -18.0274 -10.5178 8.9513
v -8.2133 -10.6580 9.8499
v 1.0774 -9.6672 15.7822
v -18.0274 -3.6392 8.9513
v -9.0777 0.0847 7.3074
v 3.9249 -0.5266 9.8499
v -5.3722 10.7494 8.9513
v 4.3452 10.7494 8.9513
v -17.3089 -10.2894 18.2113
v -7.5056 -10.5217 18.3940
v 1.0774 -9.6672 17.6150
v -17.3089 -5.7329 18.2113
v -8.0146 -0.5964 18.9335
v 3.3933 -0.8915 18.4841
v -3.0206 10.2173 18.3313
v 3.7765 10.2173 18.3313
f 5 1 4
f 5 2 1
f 7 3 6
f 7 4 3
f 8 4 7
f 8 5 4
f 2 11 1
f 2 12 11
f 13 10 9
f 13 14 10
f 11 4 1
f 11 15 4
f 15 3 4
f 15 14 3
f 12 2 5
f 12 5 16
f 16 15 11
f 16 11 12
f 17 3 14
f 17 6 3
f 18 7 6
f 18 6 17
f 16 5 8
f 16 8 19
f 19 8 7
f 19 7 18
f 19 18 15
f 19 15 16
f 10 20 9
f 10 21 20
f 20 13 9
f 20 23 13
f 24 21 10
f 24 10 14
f 24 14 13
f 24 13 23
f 25 14 15
f 25 24 14
f 25 21 24
f 25 22 21
f 26 14 24
f 26 17 14
f 25 15 18
f 25 18 27
f 27 18 17
f 27 17 26
f 21 28 20
f 21 29 28
f 22 29 21
f 22 30 29
f 31 20 28
f 31 23 20
f 32 24 23
f 32 23 31
f 33 30 22
f 33 22 25
f 32 26 24
f 32 34 26
f 35 33 25
f 35 25 27
f 27 26 34
f 27 34 35
