# parsimony mesh: eg10506_monomer (source /Users/eranagmon/code/v2e-molecules/workspace/studies/ecoli-3d/viz/3d/structures/eg10506_monomer.pdb)
# atoms: 1441  voxel: 4 Å  verts: 816  tris: 1656
v 16.6859 -4.8588 -34.7968
v 19.6637 -4.7153 -34.7174
v 21.6862 -4.2033 -34.4515
v 13.4922 -0.6792 -34.5218
v 15.4770 -2.0725 -35.0192
v 19.7186 -2.5299 -34.9770
v 21.6862 -4.1082 -34.4515
v 13.4922 0.0378 -34.5218
v 15.6637 0.7514 -34.8953
v 18.4218 0.8557 -34.9637
v 8.9354 -8.5795 -31.3960
v 11.6637 -8.8757 -31.5824
v 15.6637 -8.6267 -31.0816
v 19.6637 -8.3997 -31.0512
v 22.0998 -8.3937 -30.9652
v 8.5205 -6.1625 -31.4969
v 11.6637 -6.1625 -32.7113
v 15.4770 -6.1803 -33.1835
v 19.6637 -6.7153 -33.0512
v 22.6904 -5.7870 -32.3542
v 8.8677 -2.8462 -30.8917
v 11.5875 -1.7627 -32.5236
v 14.0193 -3.3459 -34.1556
v 21.0885 -1.4415 -33.4092
v 22.6860 -2.5299 -32.2206
v 12.1919 1.5576 -32.3788
v 15.6637 2.7514 -33.6701
v 19.7236 1.7866 -32.4608
v 22.0925 0.0507 -30.7425
v 1.4913 7.6094 -30.6230
v 2.2095 7.6094 -30.6230
v 12.6082 5.8375 -30.8982
v 15.5745 6.1560 -31.4509
v 18.3588 5.0350 -31.5124
v 1.4913 9.0865 -30.6230
v 2.2095 9.0865 -30.6230
v 13.2236 8.0249 -30.4833
v 14.1817 8.0249 -30.4833
v 8.9354 -8.5795 -29.4389
v 11.4787 -9.0513 -28.2384
v 15.6637 -9.1919 -28.4377
v 19.9476 -8.4862 -28.1383
v 22.0998 -8.3937 -29.2720
v 5.4538 -4.2811 -26.7472
v 7.5682 -6.0596 -28.0931
v 10.0220 -7.8381 -26.7723
v 21.4702 -8.0537 -26.6053
v 23.4558 -6.4972 -28.1383
v 1.2601 -0.5677 -26.5854
v 3.9378 -2.0056 -27.1726
v 7.5861 -1.7728 -29.4772
v 9.6827 -0.1796 -30.4264
v 25.0514 -2.5451 -28.6257
v 26.6925 -1.4669 -27.4176
v 1.0920 1.8375 -26.7749
v 3.6637 1.8375 -27.5614
v 7.6637 1.8375 -28.8841
v 9.9526 1.8375 -30.0976
v 21.0254 2.7174 -29.7365
v 23.5210 1.5654 -29.3085
v 27.8810 1.7623 -27.5892
v 31.6637 2.9420 -26.9894
v 34.3246 3.4355 -26.7398
v 1.2890 6.1006 -28.2188
v 3.5912 6.1006 -28.8237
v 7.6637 5.8375 -28.7413
v 10.6082 5.8375 -29.9851
v 16.8484 7.7017 -30.2861
v 19.6807 6.1560 -29.5203
v 23.6637 5.8375 -28.6296
v 27.6637 5.8375 -28.2740
v 31.6637 5.8375 -27.4933
v 34.5479 5.8375 -26.8819
v 1.4643 8.9686 -28.4377
v 3.7212 9.9249 -28.3388
v 7.6637 9.8375 -28.4808
v 11.7996 9.5499 -29.5521
v 15.5745 9.5499 -29.4545
v 19.6752 10.0790 -27.6875
v 23.9575 10.0790 -27.5699
v 27.6637 9.8375 -27.8715
v 31.5971 9.7887 -27.0208
v 34.1817 8.4228 -26.7278
v 5.2329 12.4522 -26.8461
v 7.6637 13.1290 -27.0564
v 11.6637 13.1927 -27.4517
v 15.6637 12.5140 -27.3224
v 18.3496 12.0397 -26.6819
v 25.4868 11.8619 -26.5402
v 27.6637 12.2173 -26.7396
v 30.2194 12.3195 -26.7377
v 1.6232 -8.2901 -22.4841
v 3.6637 -8.4802 -22.5868
v 7.6637 -8.4295 -22.8273
v 11.2444 -8.4577 -24.3215
v 15.6637 -8.7277 -25.5848
v 18.8035 -8.3858 -25.8998
v 25.1851 -8.5742 -22.8879
v 26.7266 -8.5742 -22.8879
v 1.3825 -6.1625 -22.8393
v 3.9378 -5.8337 -24.4505
v 7.6637 -7.0082 -24.8273
v 11.2444 -7.6292 -24.3215
v 15.6637 -7.1284 -23.5848
v 19.9476 -7.0909 -24.5150
v 24.0735 -6.2545 -24.6413
v 27.3890 -6.1625 -23.7430
v -2.7858 -0.3384 -22.7140
v -0.0387 -1.7864 -24.1537
v 2.7872 -3.2344 -25.5935
v 25.6286 -4.1335 -26.3946
v 28.1302 -2.7565 -24.8464
v 31.6637 -1.6321 -23.3833
v 35.6637 -1.1059 -23.0931
v 39.6637 -1.0619 -23.4826
v 42.0472 -0.8463 -23.3574
v -3.3049 1.8375 -22.6659
v -0.9080 1.8375 -24.6659
v 29.3592 0.3788 -25.9649
v 31.6637 0.9420 -25.3833
v 35.8254 2.1331 -24.2079
v 39.6637 0.8788 -23.4826
v 42.0472 0.2326 -23.3574
v -3.1783 3.8816 -22.4656
v -0.6265 5.4640 -24.0544
v 36.0113 5.8375 -24.4377
v -6.6416 11.4034 -22.5907
v -6.0617 11.4034 -22.5907
v 0.8260 9.5930 -24.5051
v 2.5662 10.7633 -25.8833
v 9.5393 11.6583 -22.5608
v 9.7369 11.6583 -22.5608
v 21.0162 11.5734 -26.0176
v 22.8201 11.5734 -26.0176
v 32.4383 10.7287 -24.4377
v 34.7687 8.7287 -24.4377
v -6.6416 12.4058 -22.5907
v -6.0617 12.4058 -22.5907
v 1.0592 12.2901 -23.2167
v 3.8052 12.7047 -24.5051
v 7.9891 13.0975 -24.1115
v 11.3076 13.5085 -24.1115
v 15.6637 13.6760 -24.4377
v 19.6752 12.5405 -24.5856
v 23.9575 12.1539 -24.5856
v 27.6637 12.6756 -24.4377
v 30.4383 12.5786 -24.4377
v 1.2405 -8.8923 -20.4377
v 3.6637 -9.2288 -20.4377
v 7.6637 -8.6400 -20.4377
v 10.0019 -8.3035 -20.4377
v 25.1851 -8.5742 -21.3424
v 28.1807 -8.3707 -19.9024
v 31.6637 -8.9961 -18.8854
v 34.0499 -9.2693 -19.0099
v 0.1150 -6.1625 -20.4377
v 12.0019 -7.0539 -20.4377
v 15.6637 -6.1146 -20.4377
v 19.6637 -5.5158 -20.4377
v 23.8169 -5.6909 -19.9412
v 28.0764 -6.1625 -20.0175
v 31.6637 -6.1625 -20.4807
v 34.5928 -6.1625 -19.5765
v -2.8536 -0.9654 -20.4377
v -1.4618 -2.9654 -20.4377
v 25.1153 -4.1129 -18.5400
v 27.6969 -4.0796 -20.4126
v 31.6637 -3.6321 -22.0330
v 35.7753 -2.8933 -20.6054
v 39.5157 -1.2580 -20.5459
v 42.0472 -0.8463 -21.9513
v -6.5742 3.5667 -19.7151
v -4.8553 2.0750 -20.8041
v 36.9413 2.9655 -20.4377
v 39.5157 0.9770 -20.5459
v 42.0472 0.2326 -21.9513
v -10.4867 7.6418 -18.7385
v -8.0790 6.1201 -19.9052
v -4.4415 5.4640 -21.8302
v -1.7011 6.5483 -21.9469
v 35.9331 5.8375 -20.4377
v -10.4867 8.5586 -18.7385
v -8.3194 9.9810 -20.3552
v -4.4689 10.1118 -20.6261
v -0.8288 10.0271 -20.5432
v 9.5393 11.6583 -22.3457
v 9.7369 11.6583 -22.3457
v 25.3320 11.3071 -19.3246
v 27.6637 11.2284 -19.3370
v 31.5500 10.6274 -20.2250
v 34.6554 8.5362 -20.4377
v -7.3109 12.9234 -20.4377
v -5.5352 12.9234 -20.4377
v 1.0717 12.2086 -20.4377
v 3.6637 12.8869 -20.4377
v 7.9891 12.6075 -20.7825
v 11.3076 12.7518 -20.7825
v 15.6637 13.6102 -20.4377
v 19.6637 13.4924 -20.4377
v 23.8647 12.4930 -20.5698
v 27.6637 12.2957 -21.3370
v 30.1408 12.3437 -21.4166
v 1.1399 -9.0080 -17.8014
v 3.8567 -8.8705 -16.4559
v 7.5751 -8.4400 -16.5497
v 9.9782 -8.2904 -17.9577
v 21.2670 -8.2569 -14.6539
v 22.1597 -8.2569 -14.6539
v 29.6348 -8.1671 -18.4294
v 31.6637 -8.9961 -18.1356
v 34.0499 -9.2693 -18.0431
v 0.2208 -5.9505 -16.4559
v 2.6521 -7.1424 -15.1348
v 8.8494 -7.6782 -15.2910
v 11.4524 -7.0396 -16.5497
v 15.6637 -6.2729 -16.4377
v 19.8257 -6.7416 -16.1674
v 23.6375 -5.9846 -16.4926
v 27.7304 -6.0262 -17.0470
v 31.3977 -5.8709 -16.0197
v 34.5928 -6.1625 -17.4214
v -2.8378 -1.4962 -16.4377
v -1.7470 -3.4962 -16.4377
v 25.1153 -4.1129 -18.3313
v 25.8260 -4.1129 -18.3313
v 32.5538 -3.5745 -14.8105
v 35.6765 -2.1819 -16.3683
v 38.0837 -0.7893 -17.9262
v -6.5742 3.5667 -18.2104
v -4.0040 1.9199 -16.9904
v -1.5390 2.9398 -15.7704
v 36.0114 1.7439 -16.5308
v 38.0837 0.3483 -17.9262
v -10.4867 7.6418 -18.2311
v -8.0790 6.1201 -17.5823
v -4.4143 5.9560 -16.1059
v -1.5390 4.7017 -15.7704
v 32.8477 6.5652 -15.3492
v 34.3278 5.4741 -16.5846
v -10.4867 8.5586 -18.2311
v -8.5328 9.8702 -17.3345
v -4.3379 10.2130 -16.2883
v -0.0472 10.7707 -16.7902
v 3.6637 10.8200 -15.4753
v 5.8142 11.6764 -14.5670
v 25.3320 11.3071 -17.7890
v 27.5376 10.9165 -16.4485
v 31.5741 9.0319 -16.5846
v 34.0307 8.1661 -18.0158
v -7.3305 12.7170 -17.7974
v -5.5428 12.7170 -17.7974
v 1.4789 11.8797 -18.3585
v 3.6637 12.2638 -17.4753
v 7.3540 12.6340 -16.1153
v 11.6637 12.7441 -16.4377
v 15.6637 13.1460 -16.4377
v 19.6637 14.1954 -16.4377
v 23.8647 13.1976 -16.4485
v 26.1202 12.2975 -15.1224
v 4.7931 -8.4711 -12.4377
v 6.2936 -8.4711 -12.4377
v 21.2670 -8.2569 -14.2209
v 22.1597 -8.2569 -14.2209
v -2.5240 -4.2253 -10.8731
v -0.3652 -4.6445 -12.2989
v 2.7931 -6.7179 -12.4377
v 8.2936 -7.0443 -12.4377
v 11.6533 -5.2772 -12.2964
v 15.9521 -5.1031 -12.2964
v 19.5316 -5.9387 -12.8850
v 23.5613 -6.2906 -13.8106
v 27.6637 -4.9581 -13.8913
v 31.7751 -4.2529 -12.3774
v 33.6640 -4.1627 -10.4390
v -3.0897 -2.2927 -12.2989
v -1.7178 -3.7128 -13.5398
v 12.9797 -3.5233 -10.8688
v 14.8110 -3.5233 -10.8688
v 20.4629 -3.3616 -11.5492
v 23.6637 -2.7445 -11.8163
v 27.6637 -2.5721 -11.8913
v 31.7751 -3.3531 -12.3774
v 34.3109 -2.2097 -12.0385
v -3.1372 0.5006 -12.4377
v -0.9925 2.5006 -12.4377
v 32.8088 2.8519 -11.7227
v 34.3300 1.6461 -12.8087
v -3.1329 7.3683 -13.6735
v -0.1071 5.6828 -12.6760
v 3.6637 6.9001 -11.4408
v 5.7346 7.7611 -10.5343
v 17.1555 7.1493 -10.7694
v 19.6637 6.5843 -11.3047
v 22.3525 6.8547 -11.2620
v 29.2217 7.4148 -10.8952
v 31.4950 5.6567 -12.6423
v 33.6958 3.8985 -14.3893
v -3.1329 8.9390 -13.6735
v -0.3363 8.7669 -13.7951
v 3.6637 8.8200 -13.4408
v 7.1078 10.3329 -11.9317
v 11.6637 11.5766 -10.7207
v 15.7588 10.1375 -11.0347
v 19.7529 9.9508 -11.4377
v 22.3525 8.6930 -11.2620
v 28.4963 9.8037 -12.3122
v 30.1811 8.4479 -13.5619
v 8.4809 12.2598 -13.3291
v 11.6637 12.3347 -12.7207
v 15.6637 12.5352 -12.9352
v 19.7529 13.6469 -12.3441
v 23.6637 14.4303 -12.4377
v 26.5359 12.6857 -12.4377
v -6.4521 -8.1914 -6.4642
v -6.2802 -8.1914 -6.4642
v 4.8478 -8.3921 -9.9991
v 5.9845 -8.3921 -9.9991
v -11.6490 -4.9412 -6.8269
v -8.0058 -6.2298 -7.1126
v -4.4021 -5.7858 -8.1389
v -0.3363 -5.4454 -8.4377
v 3.6666 -6.0611 -8.5219
v 7.4562 -5.9585 -9.5740
v 10.3131 -4.4892 -10.1631
v 17.4776 -4.2312 -10.3910
v 17.7963 -4.2312 -10.3910
v 33.6630 -4.1627 -10.4375
v 33.6640 -4.1627 -10.4375
v -11.6490 -3.6695 -6.8269
v -8.0654 -2.2667 -7.3894
v -4.9566 -2.1625 -9.3354
v 1.2012 -0.2749 -6.5705
v 3.7567 -1.8300 -7.1850
v 7.6637 -2.1625 -8.4200
v 11.6533 -2.1790 -9.5774
v 15.9521 -2.1790 -9.9553
v 19.3432 -2.0820 -9.9033
v 23.6637 -0.7445 -10.0433
v 27.6637 -0.5721 -10.2202
v 32.0633 -1.9441 -10.2174
v 34.0930 -2.1625 -10.2736
v -6.5515 -0.0004 -6.9253
v -4.3199 0.3047 -8.3303
v -0.0703 1.4791 -8.3682
v 3.6637 1.8375 -8.1664
v 7.6637 1.8375 -8.5551
v 11.6637 1.8375 -9.3150
v 15.6637 1.8375 -9.5734
v 19.8482 1.9475 -8.2414
v 23.6637 1.4580 -8.0433
v 27.2848 2.2239 -8.3249
v 31.5508 1.6461 -9.8787
v 34.2357 0.1853 -10.2192
v 1.3248 3.9973 -10.1660
v 3.6637 4.9001 -9.6875
v 7.3063 6.1917 -9.4955
v 11.6637 5.8375 -9.4603
v 15.7588 5.8245 -10.0709
v 19.8482 4.8202 -8.7477
v 23.6770 6.0702 -8.3958
v 27.4603 5.6571 -8.4537
v 30.1422 4.7482 -9.8729
v 8.4013 8.9895 -9.6883
v 11.6637 9.5766 -9.7136
v 14.4889 9.0043 -10.2216
v 21.1457 11.3597 -10.0299
v 23.6932 9.8657 -8.5322
v 26.8823 9.7580 -8.3958
v 21.1457 12.9463 -10.0299
v 23.6858 13.2229 -8.5930
v 26.5185 12.7376 -8.4377
v -14.4240 -8.2448 -2.6260
v -12.3363 -8.5952 -2.9643
v -8.0058 -9.2097 -4.3461
v -5.9284 -9.1005 -4.4377
v -14.4855 -6.1625 -3.5033
v -12.7239 -6.2298 -5.1985
v -9.1188 -7.6079 -5.6183
v -3.8615 -6.0728 -4.3175
v -0.3363 -5.0778 -5.3113
v 2.4854 -4.8658 -5.8028
v -14.4475 -4.0371 -3.6702
v -12.7239 -3.3415 -4.7772
v -8.8568 -1.2303 -4.4377
v -2.7555 -3.1147 -2.9041
v -0.5365 -1.6948 -4.3534
v 2.4854 -2.9416 -5.8028
v -6.8568 0.2820 -4.4377
v -4.3363 0.5312 -4.4377
v -1.6366 0.0867 -4.4377
v 21.3046 3.3542 -6.0228
v 23.6637 3.4580 -6.1151
v 25.6989 3.8148 -6.4224
v 21.3046 4.4796 -6.0228
v 23.6637 4.3655 -6.1151
v 25.6989 3.8993 -6.4224
v 25.0339 11.0383 -6.0129
v 26.0970 11.0383 -6.0129
v 25.0339 12.3666 -6.0129
v 26.0970 12.3666 -6.0129
v -14.7684 -12.2708 1.4365
v -13.9995 -12.2708 1.4365
v -14.9960 -9.8119 -0.1132
v -12.5342 -10.6462 -0.1132
v -7.9635 -9.7299 -0.0733
v -5.8485 -9.3842 -1.1636
v -15.0315 -6.1625 -0.4377
v -6.3816 -8.1256 1.5030
v -4.9403 -6.5404 -0.0733
v -14.6589 -2.4873 -0.2669
v -12.3363 -1.5060 -1.2010
v -8.2023 -0.6512 -0.4628
v -4.0836 -1.8356 -0.7616
v -2.2742 -0.4480 -2.3377
v -14.6146 0.1242 1.1803
v -12.3363 0.3341 0.7990
v -8.2023 0.2405 -0.4628
v -4.3363 0.2835 -1.9236
v -2.2742 0.0017 -2.3377
v -15.3502 -12.8368 3.5623
v -13.6023 -12.8368 3.5623
v -16.2801 -10.1625 3.5623
v -11.6023 -11.4661 3.5623
v -7.9635 -9.7808 3.2214
v -6.1012 -9.1215 4.3275
v -15.7077 -6.1625 3.5623
v -6.3816 -8.1256 1.6608
v -5.4110 -6.5404 3.2214
v -14.8564 -2.2877 3.4452
v -12.3363 -1.1144 4.5356
v -8.2883 -1.3584 3.6581
v -5.3561 -3.3620 3.5623
v -14.6146 0.1242 2.0338
v -12.3363 0.3341 2.5356
v -9.5895 0.2130 2.3886
v -15.9961 -13.5624 7.5623
v -13.0462 -13.5624 7.5623
v -22.5217 -8.8371 9.3717
v -20.3363 -9.6434 8.7506
v -17.6602 -10.5425 7.4273
v -11.0462 -11.6059 7.5623
v -8.1197 -9.8926 7.6074
v -6.1012 -9.1215 6.3041
v -22.5217 -7.9212 9.3717
v -20.3363 -7.1613 8.7506
v -17.1934 -5.9064 7.4273
v -7.5576 -6.1625 8.1682
v -5.8733 -6.1625 6.1682
v -15.4126 -2.8240 7.5623
v -12.3363 -2.0877 7.5623
v -8.7299 -3.4967 7.2019
v -5.9541 -4.0346 5.6284
v -22.4922 -12.2360 13.0755
v -20.3363 -12.2771 12.3699
v -16.5861 -12.7400 11.6163
v -13.2580 -13.2381 10.7734
v -30.7478 -8.3007 13.3500
v -30.1115 -8.3007 13.3500
v -22.5070 -10.2952 11.6129
v -21.0757 -10.5476 11.4186
v -16.5861 -12.0580 11.6163
v -12.0136 -10.6159 12.0086
v -9.3086 -9.2448 10.5772
v -34.4545 -4.5695 13.3524
v -32.1832 -6.0067 12.8640
v -29.4420 -6.1625 12.8469
v -22.5217 -7.9212 10.1503
v -20.6614 -6.1617 11.3261
v -17.9976 -4.4023 9.8352
v -10.9332 -6.1625 12.3686
v -9.5576 -6.1625 10.3686
v -34.4545 -3.7214 13.3524
v -32.4560 -2.2979 12.5549
v -28.1557 -2.1914 12.4332
v -24.3363 -1.0052 13.1020
v -20.4913 -2.0078 12.6044
v -16.5331 -1.7665 10.3340
v -12.0237 -2.1448 10.9332
v -10.3257 -4.1203 9.6225
v -31.3791 1.8375 12.8012
v -28.0965 2.0810 12.7057
v -24.3363 0.9640 13.1020
v -20.2801 1.6952 13.1404
v -16.5208 1.6653 12.4700
v -13.3480 0.2172 12.2439
v -30.8795 5.8375 13.2682
v -29.3506 5.8375 13.2682
v -18.9092 4.2767 13.3953
v -17.9771 4.2767 13.3953
v -30.5363 7.9577 13.4576
v -30.0884 7.9577 13.4576
v -22.4821 -12.2388 15.5623
v -20.5213 -12.2710 15.6195
v -17.5426 -12.2418 14.3243
v -30.8561 -8.4577 15.5623
v -28.6014 -8.4716 15.8779
v -23.7668 -10.0187 15.7278
v -20.6865 -10.5265 15.5125
v -16.2601 -11.4313 15.6195
v -13.0748 -9.3956 15.5623
v -2.8082 -8.2922 17.3973
v -2.0761 -8.2922 17.3973
v -34.4545 -4.5695 14.0044
v -32.7849 -6.0067 15.4275
v -27.4420 -6.1625 14.8562
v -24.3363 -6.1625 15.5654
v -21.8239 -6.1625 14.2715
v -11.1450 -6.1679 15.5426
v -8.3363 -4.8456 16.9952
v -4.2194 -5.9037 17.3719
v -2.0245 -6.1625 17.3668
v -34.6839 -2.3520 15.3739
v -33.7967 -2.3520 15.3739
v -26.7020 -3.5440 14.0950
v -24.3363 -3.0052 14.3172
v -21.9279 -3.2380 14.0362
v -10.8674 -2.1625 14.1516
v -8.3363 -2.1625 16.0828
v -4.7037 -2.4781 17.4499
v -2.1808 -4.0218 17.4666
v -34.8951 1.8375 16.6467
v -33.3791 1.8375 14.6467
v -26.6033 3.5766 13.7311
v -24.3363 2.9640 14.2367
v -21.5759 2.9337 14.2927
v -15.3104 2.8839 14.6909
v -12.0371 1.9841 15.5358
v -8.3363 0.7986 16.6499
v -6.2820 -0.1279 17.5273
v -34.5043 4.7225 17.1604
v -32.9741 5.9685 15.7212
v -27.3506 5.8375 14.4968
v -24.3363 5.8375 15.7286
v -20.2801 5.7010 14.8923
v -16.5208 5.7010 15.2743
v -13.4649 5.8375 17.2716
v -31.2404 8.1856 15.5623
v -28.3454 9.4029 16.0125
v -24.3363 9.8375 16.8207
v -20.3363 9.8375 16.2728
v -16.3363 9.8375 16.2120
v -12.6052 10.1809 17.1375
v -10.2955 11.7432 17.4914
v -26.6024 12.2576 17.3855
v -24.3363 12.3608 17.3288
v -20.3363 12.5119 17.1581
v -16.3363 12.8647 16.9185
v -12.3363 12.4546 17.1685
v -10.2955 11.9123 17.4914
v -2.8213 -16.6784 21.2391
v -1.7582 -16.6784 21.2391
v -22.3748 -12.1907 17.6464
v -21.9780 -12.1907 17.6464
v -2.8213 -15.3404 21.2391
v -0.2924 -13.8961 21.3426
v 2.0741 -12.4517 21.4462
v -30.6266 -8.5144 19.5623
v -28.3363 -9.4387 19.5623
v -23.9594 -10.9116 19.2128
v -20.5213 -11.2086 19.2128
v -16.1897 -9.4908 19.5171
v -11.9731 -8.4139 19.8106
v -10.3023 -8.1790 21.4677
v -3.1564 -8.9122 19.5623
v -0.4514 -9.9956 19.8037
v 3.5099 -9.8872 21.0102
v 5.7088 -8.3704 21.4927
v -31.0013 -6.2698 19.6880
v -29.9975 -5.0080 21.1051
v -14.7586 -7.5436 20.8202
v -11.9731 -7.5242 19.8106
v -8.7159 -6.6649 19.9055
v -5.1564 -6.7838 19.5623
v -0.0245 -6.1625 18.6358
v 3.6065 -6.4783 20.7793
v 5.7088 -8.0222 21.4927
v -34.9133 -0.9825 18.7806
v -32.6101 -2.3197 19.9428
v -29.9975 -3.6569 21.1051
v -3.6153 -1.3551 18.6225
v -0.8432 -2.6077 19.8420
v 2.2350 -3.8603 21.0614
v -34.9451 1.5455 19.8933
v -34.1626 0.0175 21.4473
v -11.3598 3.1572 19.5623
v -8.3363 1.3407 19.5623
v -4.7037 0.0871 19.7984
v -2.1722 0.0089 21.2891
v -34.6069 5.9685 19.8386
v -34.0084 7.3892 18.6894
v -12.7474 5.8375 19.5623
v -34.3497 7.8627 21.3560
v -32.5395 8.7186 19.8386
v -28.9815 10.9199 19.5623
v -11.8306 10.1809 19.2921
v -10.2955 11.7432 17.7786
v -26.9815 12.6239 19.5623
v -24.5910 14.2332 19.5702
v -20.3363 14.5119 18.5609
v -16.3950 14.5646 19.5533
v -12.3206 12.6365 19.2921
v -10.2955 11.9123 17.7786
v -23.4275 16.4615 20.9088
v -20.3363 16.9843 20.5609
v -17.7675 16.7426 20.8806
v -2.7914 -16.6114 23.5623
v -1.8086 -16.6114 23.5623
v 5.5590 -16.2179 25.4718
v 7.6637 -16.6117 25.2177
v 11.6637 -16.8552 25.1301
v 14.0385 -16.5426 25.3550
v -26.4913 -12.1863 25.2632
v -26.2786 -12.1863 25.2632
v -2.7914 -15.1688 23.5623
v -0.5399 -13.8658 23.5623
v 3.8166 -13.7628 23.7727
v 7.9018 -13.9781 24.7933
v 11.6637 -14.7035 25.1301
v 15.6103 -13.7277 25.4346
v 17.7098 -12.2641 25.5142
v -34.4990 -8.2960 25.4500
v -31.9995 -8.9587 23.8949
v -28.0293 -11.1451 23.7828
v -24.7017 -10.9670 23.7828
v -20.3363 -9.4043 23.5623
v -17.2637 -8.7319 23.5623
v -10.7191 -8.3119 23.5623
v -8.7159 -8.2863 23.9553
v -4.3093 -9.3287 23.9553
v -1.2712 -11.6150 23.5623
v 4.7408 -11.0370 22.0735
v 6.4342 -9.8872 23.4690
v 17.1821 -12.1108 25.5142
v 17.7098 -12.1108 25.5142
v -34.4990 -7.7218 25.4500
v -32.1098 -6.3649 23.7496
v -29.9975 -5.0080 22.0492
v -15.2637 -7.1995 23.5623
v -12.7191 -7.1995 23.5623
v -7.3734 -6.4485 23.9526
v -4.8884 -6.3010 23.9977
v -0.3363 -5.3293 24.5147
v 3.6065 -6.2468 23.3830
v 5.8291 -7.9145 23.5623
v -32.2238 -2.2591 23.4544
v -29.9975 -3.6569 22.0492
v -7.8793 -2.1625 24.3082
v -4.3363 -2.1625 23.1067
v -0.6378 -2.3812 22.4218
v 2.2350 -3.8603 21.9301
v -34.6060 2.6842 22.5440
v -33.9350 1.5455 23.7514
v -11.3110 3.0169 22.6086
v -8.9157 1.5322 23.5199
v -4.3363 0.1235 21.8360
v -2.1722 0.0089 21.7251
v -34.5486 5.8375 22.3430
v -33.6645 5.8375 24.3430
v -11.6188 5.8375 23.1060
v -10.0916 5.8375 25.1060
v -34.3497 7.8627 21.6215
v -32.1997 9.7330 23.1721
v -29.5972 11.6034 22.0561
v -15.4902 10.7439 24.6604
v -12.3575 9.3767 23.6173
v -10.1337 8.0096 25.2409
v -30.5858 12.1643 24.7227
v -28.2928 12.8074 23.4586
v -24.5910 14.7541 23.7416
v -20.3363 15.0857 25.1170
v -16.6288 13.8051 23.6651
v -13.6434 12.3465 21.9937
v -23.4275 16.4615 22.5277
v -20.3363 16.9843 23.1170
v -17.7675 16.7426 22.6699
v 9.2148 -24.7392 29.0960
v 10.3627 -24.7392 29.0960
v 9.1137 -22.1625 28.8498
v 11.6831 -22.1647 28.6550
v 14.0483 -20.8328 29.0001
v -2.4582 -16.2452 25.6202
v -2.2109 -16.2452 25.6202
v 5.5590 -16.2179 25.7386
v 7.9208 -17.7953 27.4086
v 11.6637 -18.8552 26.7779
v 14.2282 -17.9906 27.6250
v -26.4913 -12.1863 25.6189
v -26.2786 -12.1863 25.6189
v -2.4582 -15.6597 25.6202
v -0.6517 -14.0334 25.6708
v 4.0009 -13.9093 26.2952
v 7.9282 -14.1174 27.4268
v 11.6637 -14.1769 27.5623
v 15.4099 -13.9672 26.7550
v 17.7098 -12.2641 25.6787
v -34.4990 -8.2960 26.4959
v -32.5450 -8.9511 27.7225
v -28.0293 -10.8624 27.1962
v -24.6161 -9.9290 27.0471
v -20.3363 -8.4497 25.9532
v -17.8172 -8.3314 25.8372
v -10.7918 -8.3453 25.6944
v -8.3363 -8.3049 25.6717
v -4.3363 -8.9679 26.2007
v -0.3900 -10.4026 26.2934
v 3.7790 -10.2777 27.9225
v 6.7432 -10.2777 27.6940
v 17.1821 -12.1108 25.6787
v 17.7098 -12.1108 25.6787
v -34.4990 -7.7218 26.4959
v -33.4078 -6.2981 27.7225
v -22.9329 -6.1625 28.5290
v -20.5259 -5.9691 28.1007
v -16.4361 -6.0021 27.3674
v -12.2096 -6.1635 26.2686
v -8.4013 -6.5499 25.8757
v -4.3363 -7.4601 26.2007
v -0.3363 -7.3293 26.3568
v 3.7790 -7.4717 27.2955
v 6.2153 -7.4456 27.5623
v -32.6925 -2.1625 27.5623
v -22.5146 -3.9640 29.2717
v -21.9857 -3.9640 29.2717
v -15.0550 -3.6791 28.8976
v -12.1946 -2.2725 27.9079
v -9.8793 -2.1625 25.9929
v -33.3097 1.8375 27.5623
v -10.8307 1.8375 28.2646
v -10.2054 1.8375 26.2646
v -32.6588 5.8375 27.5623
v -11.2210 5.8375 28.5585
v -10.0916 5.8375 26.5585
v -30.9874 9.4697 27.4828
v -29.8278 10.5579 28.7632
v -19.5902 11.3338 28.5190
v -16.6286 10.1372 27.3363
v -12.5068 8.1427 27.5160
v -10.1337 8.0096 26.1519
v -30.5858 12.1643 26.0965
v -28.4312 12.9896 27.4828
v -24.3363 13.7316 27.5623
v -20.6886 12.8525 27.3363
v -18.1568 12.5970 25.8523
v 9.2148 -24.7392 30.1812
v 10.3627 -24.7392 30.1812
v 9.1137 -22.1625 30.2992
v 11.6831 -22.1647 30.4240
v 14.0483 -20.8328 30.0160
v 9.0494 -18.1625 30.0222
v 11.6637 -18.1625 30.4534
v 14.0882 -18.1625 29.9935
v 9.1291 -15.7131 29.8119
v 11.6637 -15.6360 29.8404
v 13.8451 -15.9099 29.6836
v -31.3508 -8.3637 29.7347
v -28.0935 -8.9054 31.2658
v -25.4725 -8.9403 31.5623
v 5.1892 -9.0211 30.0852
v 6.2237 -9.0211 30.0852
v -31.5945 -6.1625 30.5085
v -28.0935 -5.9104 32.6467
v -24.9522 -5.9104 31.8898
v -19.3190 -4.5067 29.8720
v -17.7216 -4.5067 29.8720
v 5.1892 -7.3969 30.0852
v 6.2237 -7.3969 30.0852
v -31.3224 -2.4630 31.8158
v -28.3363 -3.8536 33.2885
v -23.9128 -2.6069 32.0815
v -20.5259 -2.4434 30.9662
v -16.3675 -2.2725 30.8373
v -13.4334 -1.0125 30.5069
v -31.7050 1.9896 31.7402
v -29.8971 3.4244 33.1921
v -22.7821 1.8375 33.2652
v -20.3363 1.8375 32.3497
v -16.3363 1.8375 31.9577
v -12.8307 1.8375 30.8733
v -31.3306 5.8375 30.3102
v -28.4728 6.0009 32.3354
v -23.9520 6.1147 33.2636
v -20.5330 6.0067 32.8360
v -16.3363 5.8375 31.6976
v -13.2210 5.8375 30.4390
v -30.3613 7.8913 29.5964
v -28.4312 9.4697 30.5961
v -25.0382 9.8375 32.8289
v -20.0347 9.9352 31.8242
v -16.3363 8.5323 30.6637
v -13.9538 7.9342 29.9277
v -27.1612 12.7696 30.2932
v -24.3307 12.7013 31.6009
v -21.7135 12.2182 31.5623
v -26.5983 -8.5473 33.7795
v -25.9008 -8.5473 33.7795
v -26.5983 -7.0757 33.7795
v -25.9008 -7.0757 33.7795
v -30.8207 -1.2636 35.5623
v -28.3363 -2.1529 35.5623
v -25.5122 -1.0519 35.5623
v -30.8207 0.7312 35.5623
v -28.4728 2.2992 35.5951
v -25.0488 1.5842 35.5951
v -27.2304 4.7766 34.2836
v -23.9520 6.1147 33.9502
v -21.9975 7.4529 33.6167
v -23.0382 9.8375 34.4800
v -21.5189 9.8375 34.4800
v -22.9937 12.3176 34.7315
v -21.5853 12.3176 34.7315
v -30.4942 -0.4632 37.8223
v -28.3363 -0.4619 37.8763
v -26.2627 -0.2610 37.7210
v -30.4942 0.1088 37.8223
v -28.3363 0.2245 37.8763
v -26.2627 0.0821 37.7210
f 6 1 5
f 6 2 1
f 7 2 6
f 7 3 2
f 9 4 8
f 9 5 4
f 10 5 9
f 10 6 5
f 17 11 16
f 17 12 11
f 18 12 17
f 18 13 12
f 19 1 2
f 19 18 1
f 19 13 18
f 19 14 13
f 3 19 2
f 3 20 19
f 19 15 14
f 19 20 15
f 21 17 16
f 21 22 17
f 23 1 18
f 23 5 1
f 23 4 5
f 23 22 4
f 23 17 22
f 23 18 17
f 20 3 7
f 20 7 25
f 7 6 24
f 7 24 25
f 22 8 4
f 22 26 8
f 27 9 8
f 27 8 26
f 24 6 10
f 24 10 28
f 10 9 27
f 10 27 28
f 29 24 28
f 29 25 24
f 32 27 26
f 32 33 27
f 34 27 33
f 34 28 27
f 35 31 30
f 35 36 31
f 38 32 37
f 38 33 32
f 12 39 11
f 12 40 39
f 13 40 12
f 13 41 40
f 14 41 13
f 14 42 41
f 43 14 15
f 43 42 14
f 39 16 11
f 39 45 16
f 46 45 39
f 46 39 40
f 48 43 15
f 48 15 20
f 47 42 43
f 47 43 48
f 45 21 16
f 45 51 21
f 51 44 50
f 51 45 44
f 52 22 21
f 52 21 51
f 53 48 20
f 53 20 25
f 56 49 55
f 56 50 49
f 57 50 56
f 57 51 50
f 52 26 22
f 52 58 26
f 57 52 51
f 57 58 52
f 53 25 29
f 53 29 60
f 29 28 59
f 29 59 60
f 60 54 53
f 60 61 54
f 31 64 30
f 31 65 64
f 64 56 55
f 64 65 56
f 66 56 65
f 66 57 56
f 58 32 26
f 58 67 32
f 66 58 57
f 66 67 58
f 59 28 34
f 59 34 69
f 34 33 68
f 34 68 69
f 70 59 69
f 70 60 59
f 70 61 60
f 70 71 61
f 71 62 61
f 71 72 62
f 72 63 62
f 72 73 63
f 74 30 64
f 74 35 30
f 75 65 31
f 75 31 36
f 36 35 74
f 36 74 75
f 76 65 75
f 76 66 65
f 67 37 32
f 67 77 37
f 76 67 66
f 76 77 67
f 68 33 38
f 68 38 78
f 38 37 77
f 38 77 78
f 79 68 78
f 79 69 68
f 79 70 69
f 79 80 70
f 80 71 70
f 80 81 71
f 81 72 71
f 81 82 72
f 83 72 82
f 83 73 72
f 84 76 75
f 84 85 76
f 86 76 85
f 86 77 76
f 87 77 86
f 87 78 77
f 88 78 87
f 88 79 78
f 89 81 80
f 89 90 81
f 91 81 90
f 91 82 81
f 96 40 41
f 96 95 40
f 97 41 42
f 97 96 41
f 100 93 92
f 100 101 93
f 102 44 45
f 102 101 44
f 102 93 101
f 102 94 93
f 95 46 40
f 95 103 46
f 46 102 45
f 46 103 102
f 102 95 94
f 102 103 95
f 104 103 95
f 104 95 96
f 97 42 47
f 97 47 105
f 104 96 97
f 104 97 105
f 106 47 48
f 106 105 47
f 107 98 106
f 107 99 98
f 110 44 101
f 110 50 44
f 110 49 50
f 110 109 49
f 110 100 109
f 110 101 100
f 111 106 48
f 111 48 53
f 54 111 53
f 54 112 111
f 111 107 106
f 111 112 107
f 118 49 109
f 118 55 49
f 118 108 117
f 118 109 108
f 119 112 54
f 119 54 61
f 62 119 61
f 62 120 119
f 119 113 112
f 119 120 113
f 63 120 62
f 63 121 120
f 120 114 113
f 120 121 114
f 122 114 121
f 122 115 114
f 123 115 122
f 123 116 115
f 125 55 118
f 125 64 55
f 124 118 117
f 124 125 118
f 126 121 63
f 126 63 73
f 129 64 125
f 129 74 64
f 130 75 74
f 130 74 129
f 80 79 133
f 80 133 134
f 136 126 73
f 136 73 83
f 83 82 135
f 83 135 136
f 137 128 127
f 137 138 128
f 130 84 75
f 130 140 84
f 139 130 129
f 139 140 130
f 141 85 84
f 141 84 140
f 142 86 85
f 142 85 141
f 141 131 132
f 141 132 142
f 143 87 86
f 143 86 142
f 133 79 88
f 133 88 144
f 88 87 143
f 88 143 144
f 134 89 80
f 134 145 89
f 145 133 144
f 145 134 133
f 146 90 89
f 146 89 145
f 135 82 91
f 135 91 147
f 91 90 146
f 91 146 147
f 149 92 93
f 149 148 92
f 150 93 94
f 150 149 93
f 151 94 95
f 151 150 94
f 99 152 98
f 99 153 152
f 156 92 148
f 156 100 92
f 151 95 103
f 151 103 157
f 104 157 103
f 104 158 157
f 159 104 105
f 159 158 104
f 152 106 98
f 152 160 106
f 106 159 105
f 106 160 159
f 161 153 99
f 161 99 107
f 161 160 152
f 161 152 153
f 162 153 161
f 162 154 153
f 163 154 162
f 163 155 154
f 165 100 156
f 165 109 100
f 165 108 109
f 165 164 108
f 167 161 107
f 167 107 112
f 166 160 161
f 166 161 167
f 168 112 113
f 168 167 112
f 167 162 161
f 167 168 162
f 114 168 113
f 114 169 168
f 168 163 162
f 168 169 163
f 170 114 115
f 170 169 114
f 171 115 116
f 171 170 115
f 164 117 108
f 164 173 117
f 122 121 174
f 122 174 175
f 171 116 123
f 171 123 176
f 176 123 122
f 176 122 175
f 176 175 170
f 176 170 171
f 173 124 117
f 173 179 124
f 179 172 178
f 179 173 172
f 180 125 124
f 180 124 179
f 174 121 126
f 174 126 181
f 183 177 182
f 183 178 177
f 184 127 128
f 184 183 127
f 184 178 183
f 184 179 178
f 180 129 125
f 180 185 129
f 184 180 179
f 184 185 180
f 132 131 186
f 132 186 187
f 191 181 126
f 191 126 136
f 191 136 135
f 191 135 190
f 192 127 183
f 192 137 127
f 193 184 128
f 193 128 138
f 193 138 137
f 193 137 192
f 185 139 129
f 185 194 139
f 195 140 139
f 195 139 194
f 196 186 131
f 196 131 141
f 196 141 140
f 196 140 195
f 197 132 187
f 197 142 132
f 196 187 186
f 196 197 187
f 198 143 142
f 198 142 197
f 199 144 143
f 199 143 198
f 200 145 144
f 200 144 199
f 201 146 145
f 201 145 200
f 201 200 188
f 201 188 189
f 202 190 135
f 202 135 147
f 202 147 146
f 202 146 201
f 202 201 189
f 202 189 190
f 149 203 148
f 149 204 203
f 150 204 149
f 150 205 204
f 206 150 151
f 206 205 150
f 154 209 153
f 154 210 209
f 211 154 155
f 211 210 154
f 203 156 148
f 203 212 156
f 213 212 203
f 213 203 204
f 206 151 157
f 206 157 215
f 214 205 206
f 214 206 215
f 216 157 158
f 216 215 157
f 159 216 158
f 159 217 216
f 160 217 159
f 160 218 217
f 217 208 207
f 217 218 208
f 209 161 153
f 209 219 161
f 220 219 209
f 220 209 210
f 211 155 163
f 211 163 221
f 221 220 210
f 221 210 211
f 223 156 212
f 223 165 156
f 165 222 164
f 165 223 222
f 224 218 160
f 224 160 166
f 225 161 219
f 225 167 161
f 225 166 167
f 225 224 166
f 225 218 224
f 225 219 218
f 221 163 169
f 221 169 227
f 226 220 221
f 226 221 227
f 228 169 170
f 228 227 169
f 230 164 222
f 230 173 164
f 173 229 172
f 173 230 229
f 233 228 170
f 233 170 175
f 233 175 174
f 233 174 232
f 232 227 228
f 232 228 233
f 229 178 172
f 229 235 178
f 235 177 178
f 235 234 177
f 236 235 229
f 236 229 230
f 237 236 230
f 237 230 231
f 239 232 174
f 239 174 181
f 234 182 177
f 234 240 182
f 241 183 182
f 241 182 240
f 241 240 234
f 241 234 235
f 242 241 235
f 242 235 236
f 185 184 242
f 185 242 243
f 189 188 246
f 189 246 247
f 248 190 189
f 248 189 247
f 249 239 181
f 249 181 191
f 249 191 190
f 249 190 248
f 249 248 238
f 249 238 239
f 250 183 241
f 250 192 183
f 251 242 184
f 251 184 193
f 251 193 192
f 251 192 250
f 251 250 241
f 251 241 242
f 252 185 243
f 252 194 185
f 195 194 252
f 195 252 253
f 252 243 244
f 252 244 253
f 196 195 253
f 196 253 254
f 253 244 245
f 253 245 254
f 255 197 196
f 255 196 254
f 198 197 255
f 198 255 256
f 199 198 256
f 199 256 257
f 246 188 200
f 246 200 258
f 258 200 199
f 258 199 257
f 259 246 258
f 259 247 246
f 261 204 205
f 261 260 204
f 208 262 207
f 208 263 262
f 260 213 204
f 260 266 213
f 266 212 213
f 266 265 212
f 261 205 214
f 261 214 267
f 268 214 215
f 268 267 214
f 216 268 215
f 216 269 268
f 262 217 207
f 262 270 217
f 270 216 217
f 270 269 216
f 271 263 208
f 271 208 218
f 271 270 262
f 271 262 263
f 272 218 219
f 272 271 218
f 220 272 219
f 220 273 272
f 276 212 265
f 276 223 212
f 276 222 223
f 276 275 222
f 276 264 275
f 276 265 264
f 277 268 269
f 277 269 278
f 279 270 271
f 279 271 280
f 280 271 272
f 280 272 281
f 273 220 226
f 273 226 282
f 281 272 273
f 281 273 282
f 283 226 227
f 283 282 226
f 282 274 273
f 282 283 274
f 284 222 275
f 284 230 222
f 231 230 284
f 231 284 285
f 287 283 227
f 287 227 232
f 285 237 231
f 285 289 237
f 237 288 236
f 237 289 288
f 297 287 232
f 297 232 239
f 297 239 238
f 297 238 296
f 297 296 286
f 297 286 287
f 288 242 236
f 288 298 242
f 243 242 298
f 243 298 299
f 299 298 288
f 299 288 289
f 244 243 299
f 244 299 300
f 300 299 289
f 300 289 290
f 245 244 300
f 245 300 301
f 300 290 291
f 300 291 301
f 304 303 292
f 304 292 293
f 305 304 293
f 305 293 294
f 307 296 238
f 307 238 248
f 307 248 247
f 307 247 306
f 307 306 295
f 307 295 296
f 308 245 301
f 308 254 245
f 255 254 308
f 255 308 309
f 308 301 302
f 308 302 309
f 310 256 255
f 310 255 309
f 310 309 302
f 310 302 303
f 257 256 310
f 257 310 311
f 310 303 304
f 310 304 311
f 312 258 257
f 312 257 311
f 306 247 259
f 306 259 313
f 259 258 312
f 259 312 313
f 317 260 261
f 317 316 260
f 319 315 314
f 319 320 315
f 321 264 265
f 321 320 264
f 316 266 260
f 316 322 266
f 266 321 265
f 266 322 321
f 317 261 267
f 317 267 323
f 323 322 316
f 323 316 317
f 324 267 268
f 324 323 267
f 326 269 270
f 326 325 269
f 274 327 273
f 274 328 327
f 329 319 318
f 329 330 319
f 331 264 320
f 331 275 264
f 330 320 319
f 330 331 320
f 334 333 322
f 334 322 323
f 324 268 277
f 324 277 335
f 334 323 324
f 334 324 335
f 325 278 269
f 325 336 278
f 336 277 278
f 336 335 277
f 326 270 279
f 326 279 337
f 336 325 326
f 336 326 337
f 338 279 280
f 338 337 279
f 281 338 280
f 281 339 338
f 327 282 273
f 327 340 282
f 340 281 282
f 340 339 281
f 341 328 274
f 341 274 283
f 341 340 327
f 341 327 328
f 331 284 275
f 331 343 284
f 342 331 330
f 342 343 331
f 344 285 284
f 344 284 343
f 345 344 332
f 345 332 333
f 346 345 333
f 346 333 334
f 347 346 334
f 347 334 335
f 348 347 335
f 348 335 336
f 348 336 337
f 348 337 349
f 349 337 338
f 349 338 350
f 350 338 339
f 350 339 351
f 352 351 339
f 352 339 340
f 353 341 283
f 353 283 287
f 353 287 286
f 353 286 352
f 353 352 340
f 353 340 341
f 354 285 344
f 354 289 285
f 290 289 354
f 290 354 355
f 354 344 345
f 354 345 355
f 291 290 355
f 291 355 356
f 355 345 346
f 355 346 356
f 357 356 346
f 357 346 347
f 357 347 348
f 357 348 358
f 359 293 292
f 359 292 358
f 359 358 348
f 359 348 349
f 294 293 359
f 294 359 360
f 362 352 286
f 362 286 296
f 362 296 295
f 362 295 361
f 362 361 351
f 362 351 352
f 363 291 356
f 363 301 291
f 302 301 363
f 302 363 364
f 363 356 357
f 363 357 364
f 365 358 292
f 365 292 303
f 365 303 302
f 365 302 364
f 365 364 357
f 365 357 358
f 360 305 294
f 360 367 305
f 305 366 304
f 305 367 366
f 368 361 295
f 368 295 306
f 368 367 360
f 368 360 361
f 366 311 304
f 366 369 311
f 312 311 369
f 312 369 370
f 370 369 366
f 370 366 367
f 368 306 313
f 368 313 371
f 313 312 370
f 313 370 371
f 375 314 315
f 375 374 314
f 376 373 372
f 376 377 373
f 378 314 374
f 378 319 314
f 378 318 319
f 378 377 318
f 378 373 377
f 378 374 373
f 379 375 315
f 379 315 320
f 380 320 321
f 380 379 320
f 381 321 322
f 381 380 321
f 383 318 377
f 383 329 318
f 382 377 376
f 382 383 377
f 384 330 329
f 384 329 383
f 385 379 380
f 385 380 386
f 381 322 333
f 381 333 387
f 387 333 332
f 387 332 386
f 387 386 380
f 387 380 381
f 384 342 330
f 384 388 342
f 389 343 342
f 389 342 388
f 390 386 332
f 390 332 344
f 390 344 343
f 390 343 389
f 350 391 349
f 350 392 391
f 393 350 351
f 393 392 350
f 391 359 349
f 391 394 359
f 360 359 394
f 360 394 395
f 395 394 391
f 395 391 392
f 396 393 351
f 396 351 361
f 396 361 360
f 396 360 395
f 396 395 392
f 396 392 393
f 368 397 367
f 368 398 397
f 397 370 367
f 397 399 370
f 398 368 371
f 398 371 400
f 371 370 399
f 371 399 400
f 399 397 398
f 399 398 400
f 404 372 373
f 404 403 372
f 403 402 401
f 403 404 402
f 405 373 374
f 405 404 373
f 406 374 375
f 406 405 374
f 407 372 403
f 407 376 372
f 406 375 379
f 406 379 409
f 408 405 406
f 408 406 409
f 407 382 376
f 407 410 382
f 411 383 382
f 411 382 410
f 384 383 411
f 384 411 412
f 409 379 385
f 409 385 413
f 414 385 386
f 414 413 385
f 415 411 410
f 415 416 411
f 417 384 412
f 417 388 384
f 416 412 411
f 416 417 412
f 418 389 388
f 418 388 417
f 418 417 412
f 418 412 413
f 414 386 390
f 414 390 419
f 419 390 389
f 419 389 418
f 418 413 414
f 418 414 419
f 421 401 402
f 421 420 401
f 422 401 420
f 422 403 401
f 423 421 402
f 423 402 404
f 405 423 404
f 405 424 423
f 426 403 422
f 426 407 403
f 427 424 405
f 427 405 408
f 428 408 409
f 428 427 408
f 427 425 424
f 427 428 425
f 426 410 407
f 426 429 410
f 432 428 409
f 432 409 413
f 432 413 412
f 432 412 431
f 429 415 410
f 429 433 415
f 416 415 433
f 416 433 434
f 433 429 430
f 433 430 434
f 435 431 412
f 435 412 417
f 435 417 416
f 435 416 434
f 435 434 430
f 435 430 431
f 437 420 421
f 437 436 420
f 440 420 436
f 440 422 420
f 437 421 423
f 437 423 441
f 442 423 424
f 442 441 423
f 443 424 425
f 443 442 424
f 445 438 444
f 445 439 438
f 446 422 440
f 446 426 422
f 445 440 439
f 445 446 440
f 448 443 425
f 448 425 428
f 447 442 443
f 447 443 448
f 449 426 446
f 449 429 426
f 430 429 449
f 430 449 450
f 451 431 430
f 451 430 450
f 452 448 428
f 452 428 432
f 452 432 431
f 452 431 451
f 452 451 447
f 452 447 448
f 456 436 437
f 456 455 436
f 460 438 439
f 460 459 438
f 460 453 459
f 460 454 453
f 461 436 455
f 461 440 436
f 440 460 439
f 440 461 460
f 461 454 460
f 461 455 454
f 456 437 441
f 456 441 462
f 461 455 456
f 461 456 462
f 463 441 442
f 463 462 441
f 466 457 465
f 466 458 457
f 467 438 459
f 467 444 438
f 445 444 467
f 445 467 468
f 467 459 460
f 467 460 468
f 469 446 445
f 469 445 468
f 463 442 447
f 463 447 471
f 470 462 463
f 470 463 471
f 473 464 472
f 473 465 464
f 473 466 465
f 473 474 466
f 469 449 446
f 469 477 449
f 476 469 468
f 476 477 469
f 478 450 449
f 478 449 477
f 479 471 447
f 479 447 451
f 479 451 450
f 479 450 478
f 479 478 470
f 479 470 471
f 480 474 473
f 480 481 474
f 481 475 474
f 481 482 475
f 483 475 482
f 483 476 475
f 484 476 483
f 484 477 476
f 485 477 484
f 485 478 477
f 487 480 486
f 487 481 480
f 489 483 488
f 489 484 483
f 491 486 490
f 491 487 486
f 493 453 454
f 493 492 453
f 494 454 455
f 494 493 454
f 458 495 457
f 458 496 495
f 497 453 492
f 497 459 453
f 498 460 459
f 498 459 497
f 494 455 461
f 494 461 499
f 498 493 494
f 498 494 499
f 462 499 461
f 462 500 499
f 504 457 495
f 504 465 457
f 465 503 464
f 465 504 503
f 505 496 458
f 505 458 466
f 506 496 505
f 506 497 496
f 507 460 498
f 507 468 460
f 507 497 506
f 507 498 497
f 500 462 470
f 500 470 508
f 511 501 510
f 511 502 501
f 503 472 464
f 503 512 472
f 513 473 472
f 513 472 512
f 513 512 503
f 513 503 504
f 514 505 466
f 514 466 474
f 475 514 474
f 475 515 514
f 514 506 505
f 514 515 506
f 516 468 507
f 516 476 468
f 516 475 476
f 516 515 475
f 515 507 506
f 515 516 507
f 517 508 470
f 517 470 478
f 517 509 508
f 517 518 509
f 519 509 518
f 519 510 509
f 520 510 519
f 520 511 510
f 522 473 513
f 522 480 473
f 522 512 521
f 522 513 512
f 482 481 523
f 482 523 524
f 525 483 482
f 525 482 524
f 517 478 485
f 517 485 527
f 485 484 526
f 485 526 527
f 528 517 527
f 528 518 517
f 529 518 528
f 529 519 518
f 522 486 480
f 522 531 486
f 530 522 521
f 530 531 522
f 523 481 487
f 523 487 532
f 533 523 532
f 533 524 523
f 525 488 483
f 525 534 488
f 533 525 524
f 533 534 525
f 526 484 489
f 526 489 535
f 489 488 534
f 489 534 535
f 536 526 535
f 536 527 526
f 537 486 531
f 537 490 486
f 532 487 491
f 532 491 538
f 491 490 537
f 491 537 538
f 538 533 532
f 538 539 533
f 540 533 539
f 540 534 533
f 540 535 534
f 540 541 535
f 541 536 535
f 541 542 536
f 544 539 538
f 544 545 539
f 546 539 545
f 546 540 539
f 546 541 540
f 546 547 541
f 547 542 541
f 547 548 542
f 548 543 542
f 548 549 543
f 553 492 493
f 553 552 492
f 554 551 550
f 554 555 551
f 496 557 495
f 496 558 557
f 552 497 492
f 552 559 497
f 497 558 496
f 497 559 558
f 553 493 498
f 553 498 560
f 560 559 552
f 560 552 553
f 499 560 498
f 499 561 560
f 500 561 499
f 500 562 561
f 502 564 501
f 502 565 564
f 565 556 555
f 565 566 556
f 568 495 557
f 568 504 495
f 571 562 500
f 571 500 508
f 570 561 562
f 570 562 571
f 572 508 509
f 572 571 508
f 571 563 562
f 571 572 563
f 573 501 564
f 573 510 501
f 573 509 510
f 573 572 509
f 574 565 502
f 574 502 511
f 575 565 574
f 575 566 565
f 575 567 566
f 575 576 567
f 578 504 568
f 578 513 504
f 513 577 512
f 513 578 577
f 579 578 568
f 579 568 569
f 574 511 520
f 574 520 581
f 520 519 580
f 520 580 581
f 582 574 581
f 582 575 574
f 577 521 512
f 577 583 521
f 584 583 577
f 584 577 578
f 528 527 585
f 528 585 586
f 580 519 529
f 580 529 587
f 529 528 586
f 529 586 587
f 588 580 587
f 588 581 580
f 583 530 521
f 583 589 530
f 590 531 530
f 590 530 589
f 585 527 536
f 585 536 591
f 590 537 531
f 590 593 537
f 592 590 589
f 592 593 590
f 594 538 537
f 594 537 593
f 591 536 542
f 591 542 595
f 543 595 542
f 543 596 595
f 594 544 538
f 594 597 544
f 545 544 597
f 545 597 598
f 599 546 545
f 599 545 598
f 547 546 599
f 547 599 600
f 601 548 547
f 601 547 600
f 596 543 549
f 596 549 602
f 602 549 548
f 602 548 601
f 601 595 596
f 601 596 602
f 603 599 598
f 603 604 599
f 605 599 604
f 605 600 599
f 607 550 551
f 607 606 550
f 606 554 550
f 606 614 554
f 607 551 555
f 607 555 615
f 615 555 554
f 615 554 614
f 556 615 555
f 556 616 615
f 617 608 616
f 617 609 608
f 618 609 617
f 618 610 609
f 618 611 610
f 618 619 611
f 623 557 558
f 623 622 557
f 624 558 559
f 624 623 558
f 623 613 612
f 623 624 613
f 625 559 560
f 625 624 559
f 561 625 560
f 561 626 625
f 563 627 562
f 563 628 627
f 630 555 615
f 630 565 555
f 630 564 565
f 630 629 564
f 631 616 556
f 631 556 566
f 567 631 566
f 567 632 631
f 632 616 631
f 632 617 616
f 633 620 619
f 633 634 620
f 636 557 622
f 636 568 557
f 635 622 621
f 635 636 622
f 637 569 568
f 637 568 636
f 626 561 570
f 626 570 638
f 639 562 627
f 639 571 562
f 639 570 571
f 639 638 570
f 640 628 563
f 640 563 572
f 629 573 564
f 629 641 573
f 573 640 572
f 573 641 640
f 640 629 628
f 640 641 629
f 644 632 567
f 644 567 576
f 576 575 643
f 576 643 644
f 637 579 569
f 637 646 579
f 579 645 578
f 579 646 645
f 645 637 636
f 645 646 637
f 647 640 641
f 647 641 648
f 648 641 642
f 648 642 649
f 650 643 575
f 650 575 582
f 582 581 649
f 582 649 650
f 650 649 642
f 650 642 643
f 645 584 578
f 645 652 584
f 584 651 583
f 584 652 651
f 586 585 653
f 586 653 654
f 655 587 586
f 655 586 654
f 655 654 647
f 655 647 648
f 649 581 588
f 649 588 656
f 588 587 655
f 588 655 656
f 656 655 648
f 656 648 649
f 651 589 583
f 651 657 589
f 658 657 651
f 658 651 652
f 653 585 591
f 653 591 659
f 660 653 659
f 660 654 653
f 657 592 589
f 657 661 592
f 593 592 661
f 593 661 662
f 661 657 658
f 661 658 662
f 663 594 593
f 663 593 662
f 665 659 591
f 665 591 595
f 666 659 665
f 666 660 659
f 663 597 594
f 663 668 597
f 667 663 662
f 667 668 663
f 669 598 597
f 669 597 668
f 672 665 595
f 672 595 601
f 672 601 600
f 672 600 671
f 672 671 664
f 672 664 665
f 669 603 598
f 669 673 603
f 604 603 673
f 604 673 674
f 673 669 670
f 673 670 674
f 675 671 600
f 675 600 605
f 675 605 604
f 675 604 674
f 675 674 670
f 675 670 671
f 678 677 676
f 678 679 677
f 682 606 607
f 682 681 606
f 609 683 608
f 609 684 683
f 610 684 609
f 610 685 684
f 685 678 684
f 685 679 678
f 611 685 610
f 611 686 685
f 685 680 679
f 685 686 680
f 613 687 612
f 613 688 687
f 689 606 681
f 689 614 606
f 690 682 607
f 690 607 615
f 690 615 614
f 690 614 689
f 689 681 682
f 689 682 690
f 691 608 683
f 691 616 608
f 616 690 615
f 616 691 690
f 692 691 683
f 692 683 684
f 618 617 692
f 618 692 693
f 694 686 611
f 694 611 619
f 694 619 618
f 694 618 693
f 695 619 620
f 695 694 619
f 697 621 622
f 697 696 621
f 687 623 612
f 687 698 623
f 698 622 623
f 698 697 622
f 688 613 624
f 688 624 699
f 698 687 688
f 698 688 699
f 700 624 625
f 700 699 624
f 701 625 626
f 701 700 625
f 628 702 627
f 628 703 702
f 629 703 628
f 629 704 703
f 690 630 615
f 690 705 630
f 705 629 630
f 705 704 629
f 705 690 691
f 705 691 706
f 707 692 617
f 707 617 632
f 707 706 691
f 707 691 692
f 708 619 694
f 708 633 619
f 695 620 634
f 695 634 709
f 634 633 708
f 634 708 709
f 708 694 695
f 708 695 709
f 696 635 621
f 696 710 635
f 711 636 635
f 711 635 710
f 711 710 696
f 711 696 697
f 712 699 700
f 712 700 713
f 701 626 638
f 701 638 714
f 713 700 701
f 713 701 714
f 702 639 627
f 702 715 639
f 715 638 639
f 715 714 638
f 716 715 702
f 716 702 703
f 717 641 640
f 717 640 716
f 717 716 703
f 717 703 704
f 642 641 717
f 642 717 718
f 718 717 704
f 718 704 705
f 643 642 718
f 643 718 719
f 719 718 705
f 719 705 706
f 720 707 632
f 720 632 644
f 644 643 719
f 644 719 720
f 721 636 711
f 721 645 636
f 723 722 712
f 723 712 713
f 724 714 715
f 724 715 725
f 716 640 647
f 716 647 726
f 726 725 715
f 726 715 716
f 721 652 645
f 721 727 652
f 726 647 654
f 726 654 729
f 728 725 726
f 728 726 729
f 727 658 652
f 727 730 658
f 729 654 660
f 729 660 732
f 732 731 728
f 732 728 729
f 733 658 730
f 733 662 658
f 737 665 664
f 737 664 736
f 738 732 660
f 738 660 666
f 666 665 737
f 666 737 738
f 738 737 731
f 738 731 732
f 733 667 662
f 733 739 667
f 668 667 739
f 668 739 740
f 739 733 734
f 739 734 740
f 669 668 740
f 669 740 741
f 670 669 741
f 670 741 742
f 743 736 664
f 743 664 671
f 743 671 670
f 743 670 742
f 743 742 735
f 743 735 736
f 677 744 676
f 677 745 744
f 746 676 744
f 746 678 676
f 747 745 677
f 747 677 679
f 746 744 745
f 746 745 747
f 748 679 680
f 748 747 679
f 749 678 746
f 749 684 678
f 750 749 746
f 750 746 747
f 751 748 680
f 751 680 686
f 750 747 748
f 750 748 751
f 752 684 749
f 752 692 684
f 693 692 752
f 693 752 753
f 752 749 750
f 752 750 753
f 754 751 686
f 754 686 694
f 754 694 693
f 754 693 753
f 754 753 750
f 754 750 751
f 698 755 697
f 698 756 755
f 757 698 699
f 757 756 698
f 707 758 706
f 707 759 758
f 755 711 697
f 755 760 711
f 760 755 756
f 760 756 761
f 757 699 712
f 757 712 762
f 764 713 714
f 764 763 713
f 758 719 706
f 758 765 719
f 759 707 720
f 759 720 766
f 720 719 765
f 720 765 766
f 765 758 759
f 765 759 766
f 760 721 711
f 760 767 721
f 767 760 761
f 767 761 768
f 762 712 722
f 762 722 769
f 768 761 762
f 768 762 769
f 763 723 713
f 763 770 723
f 770 722 723
f 770 769 722
f 764 714 724
f 764 724 771
f 770 763 764
f 770 764 771
f 772 724 725
f 772 771 724
f 773 721 767
f 773 727 721
f 775 769 770
f 775 770 776
f 776 770 771
f 776 771 777
f 772 725 728
f 772 728 778
f 777 771 772
f 777 772 778
f 779 727 773
f 779 730 727
f 779 773 774
f 779 774 780
f 782 781 775
f 782 775 776
f 783 782 776
f 783 776 777
f 778 728 731
f 778 731 784
f 784 783 777
f 784 777 778
f 785 730 779
f 785 733 730
f 734 733 785
f 734 785 786
f 785 779 780
f 785 780 786
f 787 786 780
f 787 780 781
f 789 736 735
f 789 735 788
f 789 788 782
f 789 782 783
f 790 784 731
f 790 731 737
f 790 737 736
f 790 736 789
f 790 789 783
f 790 783 784
f 791 734 786
f 791 740 734
f 741 740 791
f 741 791 792
f 791 786 787
f 791 787 792
f 793 788 735
f 793 735 742
f 793 742 741
f 793 741 792
f 757 794 756
f 757 795 794
f 794 761 756
f 794 796 761
f 797 795 757
f 797 757 762
f 797 762 761
f 797 761 796
f 796 794 795
f 796 795 797
f 768 798 767
f 768 799 798
f 800 768 769
f 800 799 768
f 801 767 798
f 801 773 767
f 774 773 801
f 774 801 802
f 800 769 775
f 800 775 803
f 804 774 802
f 804 780 774
f 805 803 775
f 805 775 781
f 781 780 804
f 781 804 805
f 804 802 803
f 804 803 805
f 806 781 782
f 806 805 781
f 807 781 805
f 807 787 781
f 806 782 788
f 806 788 808
f 807 805 806
f 807 806 808
f 809 787 807
f 809 792 787
f 808 788 793
f 808 793 810
f 793 792 809
f 793 809 810
f 810 809 807
f 810 807 808
f 812 798 799
f 812 811 798
f 813 799 800
f 813 812 799
f 811 801 798
f 811 814 801
f 815 802 801
f 815 801 814
f 814 811 812
f 814 812 815
f 816 813 800
f 816 800 803
f 816 803 802
f 816 802 815
f 815 812 813
f 815 813 816
