# parsimony mesh: eg10293_monomer (source /Users/eranagmon/code/v2e-cplx/workspace/studies/ecoli-3d/viz/3d/structures/eg10293_monomer.pdb)
# atoms: 5793  voxel: 16 Å  verts: 103  tris: 200
v 0.2084 -10.8851 -32.8399
v 11.2165 -13.0013 -34.4255
v 21.6164 -11.5451 -34.2345
v -0.7659 0.3573 -33.6677
v 11.2165 0.3573 -36.5294
v 23.0494 0.3573 -34.6224
v 0.9147 10.1230 -33.2241
v 11.2165 11.0583 -33.8646
v 21.9272 10.1931 -33.1024
v -14.6593 -25.2657 -17.2648
v -4.7835 -26.8004 -19.6203
v 11.2165 -26.2088 -21.0466
v 21.0145 -24.4769 -19.1665
v -16.4328 -15.6427 -19.5040
v -4.9884 -15.9881 -27.3406
v 11.2165 -21.0013 -29.0466
v 26.6488 -15.1647 -23.0435
v 35.4048 -8.1176 -16.2538
v -16.3666 0.3573 -20.0932
v -8.7659 0.3573 -28.0932
v 31.0494 0.3573 -26.3883
v 36.3819 0.3573 -18.3883
v -14.5712 12.0221 -18.0504
v -4.9303 16.4059 -22.9586
v 12.7027 20.0340 -23.0244
v 27.2429 15.0505 -23.9669
v 36.5820 12.4838 -18.7711
v -0.1088 25.3511 -17.2002
v 8.3601 25.3511 -17.2002
v -29.1899 -24.0778 -0.4131
v -20.3090 -25.9046 -6.5521
v -4.7835 -29.2811 -7.7606
v 11.4094 -26.6531 -7.7790
v 21.0145 -24.4769 -13.1245
v -30.4815 -15.6427 -2.5737
v -24.4328 -15.6427 -10.5737
v 16.8713 -21.5232 -2.4578
v 28.0332 -14.8204 -6.9876
v 35.4048 -8.1176 -11.5174
v -31.8199 0.3573 -3.4682
v -24.3666 0.3573 -11.4682
v 34.6881 0.3573 -1.0549
v 36.3819 0.3573 -9.0549
v -30.9744 12.3218 -1.6057
v -20.3861 17.5053 -7.2396
v -10.7754 22.6888 -12.8736
v 19.0268 24.2170 -15.2163
v 27.1674 18.3504 -7.8063
v 36.5820 12.4838 -11.0628
v -15.5343 24.8732 -2.2070
v -5.1787 26.0471 -7.6284
v 12.7027 25.9441 -9.0341
v 19.6584 24.7015 -4.5497
v -29.2304 -24.1172 8.2394
v -20.7835 -26.7333 8.2394
v -4.7835 -27.6941 8.2394
v 5.7862 -25.0781 8.2394
v -30.9900 -15.6427 8.2394
v 13.7862 -18.8034 8.2394
v 23.6859 -10.8034 8.2394
v -31.5058 0.0146 9.0094
v -26.9447 5.1194 14.8560
v 27.6113 0.3573 8.2394
v -29.9414 17.8204 9.6892
v -26.5728 17.8204 9.6892
v 14.6108 19.7553 11.6692
v 22.6220 15.1961 7.0973
v -28.9085 24.4954 15.1890
v -20.8340 25.8731 9.2092
v -4.7835 27.3834 8.2394
v 10.0531 25.5518 7.0973
v 19.6584 24.7015 1.0025
v -28.9730 -23.8403 16.6077
v -20.7835 -25.1231 18.3189
v -4.7835 -25.2134 18.6579
v 3.6545 -23.9606 17.0597
v -29.2920 -15.6427 18.9626
v -21.5047 -14.7292 26.2606
v -4.7835 -18.4550 26.6579
v 9.6664 -14.7789 22.5147
v 20.0069 -8.6431 17.3030
v -29.2720 -5.5472 19.5021
v -24.8400 0.0146 24.5970
v 13.4672 0.3573 25.3782
v 20.1397 0.3573 17.3782
v -28.9085 23.3189 17.0314
v -20.8963 17.6238 23.9849
v -4.7835 20.0925 27.6725
v 9.5166 14.7607 22.0727
v 19.6570 9.0886 16.6941
v -28.9085 24.4954 17.0314
v -20.7835 25.8651 19.8577
v -4.7835 26.0165 19.6725
v 3.9442 24.6972 16.7846
v -16.6521 -8.7869 32.8703
v -4.7835 -10.4550 34.2336
v 5.0116 -10.2481 34.2674
v -17.2333 0.3573 33.4495
v -4.7835 0.3573 35.7900
v 5.4672 0.3573 34.5798
v -14.8479 11.9287 33.2220
v -4.7835 12.0925 33.7958
v 4.4223 9.7662 33.3319
f 5 1 4
f 5 2 1
f 5 3 2
f 5 6 3
f 7 5 4
f 7 8 5
f 9 5 8
f 9 6 5
f 14 11 10
f 14 15 11
f 16 1 2
f 16 15 1
f 16 11 15
f 16 12 11
f 3 16 2
f 3 17 16
f 16 13 12
f 16 17 13
f 20 1 15
f 20 4 1
f 20 14 19
f 20 15 14
f 21 17 3
f 21 3 6
f 21 18 17
f 21 22 18
f 20 7 4
f 20 24 7
f 23 20 19
f 23 24 20
f 25 8 7
f 25 7 24
f 21 6 9
f 21 9 26
f 9 8 25
f 9 25 26
f 27 21 26
f 27 22 21
f 28 25 24
f 28 29 25
f 32 10 11
f 32 31 10
f 33 11 12
f 33 32 11
f 34 12 13
f 34 33 12
f 36 10 31
f 36 14 10
f 36 30 35
f 36 31 30
f 34 13 17
f 34 17 38
f 37 33 34
f 37 34 38
f 18 38 17
f 18 39 38
f 41 14 36
f 41 19 14
f 40 36 35
f 40 41 36
f 42 38 39
f 42 39 43
f 41 23 19
f 41 45 23
f 44 41 40
f 44 45 41
f 46 24 23
f 46 23 45
f 26 25 47
f 26 47 48
f 27 26 48
f 27 48 49
f 49 48 42
f 49 42 43
f 46 28 24
f 46 51 28
f 50 46 45
f 50 51 46
f 47 25 29
f 47 29 52
f 52 29 28
f 52 28 51
f 53 47 52
f 53 48 47
f 55 30 31
f 55 54 30
f 56 31 32
f 56 55 31
f 57 32 33
f 57 56 32
f 58 30 54
f 58 35 30
f 57 33 37
f 57 37 59
f 60 37 38
f 60 59 37
f 61 35 58
f 61 40 35
f 60 38 42
f 60 42 63
f 61 44 40
f 61 64 44
f 65 45 44
f 65 44 64
f 64 61 62
f 64 62 65
f 67 63 42
f 67 42 48
f 65 50 45
f 65 69 50
f 68 65 64
f 68 69 65
f 70 51 50
f 70 50 69
f 71 52 51
f 71 51 70
f 72 67 48
f 72 48 53
f 72 53 52
f 72 52 71
f 72 71 66
f 72 66 67
f 55 73 54
f 55 74 73
f 56 74 55
f 56 75 74
f 76 56 57
f 76 75 56
f 73 58 54
f 73 77 58
f 77 73 74
f 77 74 78
f 79 78 74
f 79 74 75
f 76 57 59
f 76 59 80
f 79 75 76
f 79 76 80
f 81 59 60
f 81 80 59
f 82 58 77
f 82 61 58
f 62 61 82
f 62 82 83
f 82 77 78
f 82 78 83
f 85 81 60
f 85 60 63
f 84 80 81
f 84 81 85
f 87 62 83
f 87 65 62
f 65 86 64
f 65 87 86
f 90 85 63
f 90 63 67
f 90 67 66
f 90 66 89
f 90 89 84
f 90 84 85
f 86 68 64
f 86 91 68
f 92 69 68
f 92 68 91
f 92 91 86
f 92 86 87
f 93 70 69
f 93 69 92
f 93 92 87
f 93 87 88
f 94 89 66
f 94 66 71
f 94 71 70
f 94 70 93
f 94 93 88
f 94 88 89
f 79 95 78
f 79 96 95
f 97 79 80
f 97 96 79
f 95 83 78
f 95 98 83
f 99 98 95
f 99 95 96
f 97 80 84
f 97 84 100
f 99 96 97
f 99 97 100
f 101 83 98
f 101 87 83
f 88 87 101
f 88 101 102
f 101 98 99
f 101 99 102
f 103 100 84
f 103 84 89
f 103 89 88
f 103 88 102
f 103 102 99
f 103 99 100
