# parsimony mesh: eg10506_monomer (source /Users/eranagmon/code/v2e-flagella/workspace/studies/ecoli-3d/viz/3d/structures/eg10506_monomer.pdb)
# atoms: 1441  voxel: 8 Å  verts: 218  tris: 448
v 13.0460 -1.7015 -34.8530
v 17.6637 -1.9831 -34.7802
v 21.7138 -1.0510 -34.4790
v 13.0460 0.8256 -34.8530
v 17.6637 0.6304 -34.7802
v 21.7138 -0.0934 -34.4790
v 11.7748 -8.9210 -28.3320
v 17.6637 -8.9307 -29.4782
v 22.4670 -8.4283 -28.5974
v 3.0009 -2.1626 -27.5071
v 9.7438 -4.5987 -30.5862
v 17.6637 -5.9831 -33.4782
v 24.7571 -3.5509 -30.3048
v 30.6209 -0.7174 -26.6789
v 2.7267 3.8375 -27.9853
v 10.0931 3.6304 -31.7156
v 17.6637 4.6304 -32.3141
v 24.8937 3.0789 -30.8624
v 32.2004 3.8375 -27.1419
v 4.5368 11.8375 -27.3338
v 9.6908 12.3894 -27.9944
v 17.6637 10.6516 -28.3141
v 25.6637 10.7533 -27.7877
v 32.0887 10.2264 -27.1355
v 5.4144 15.9814 -26.6384
v 7.0421 15.9814 -26.6384
v 4.2050 -8.7427 -19.9917
v 9.7029 -8.8319 -22.1077
v 17.6637 -8.9307 -23.5532
v 25.2102 -8.5259 -22.0595
v 30.6594 -8.6234 -19.3133
v -3.0273 -1.7245 -21.0971
v 0.9363 -4.6102 -23.2111
v 9.7029 -7.5043 -22.1077
v 17.6637 -7.2723 -19.5532
v 25.2102 -6.8381 -22.0595
v 33.3068 -3.7936 -22.4089
v 38.4510 -1.5364 -20.1713
v -10.7776 7.1603 -19.0573
v -5.9509 4.2312 -21.3563
v -1.2733 3.8375 -25.6212
v 36.0322 4.1500 -22.6778
v 38.4510 1.6917 -20.1713
v -10.7776 8.9201 -19.0573
v -6.3363 9.8924 -20.0913
v 2.2457 12.2487 -22.8083
v 9.6908 14.2890 -22.7313
v 17.6637 12.9883 -22.4377
v 25.6637 12.7934 -22.4377
v 32.9064 10.3331 -22.4377
v 5.4144 15.9814 -25.5938
v 7.0421 15.9814 -25.5938
v 3.8106 -8.9849 -14.4377
v 7.9471 -8.9849 -14.4377
v 27.9533 -8.6234 -16.8402
v 30.6594 -8.6234 -16.8402
v -3.5886 -2.0636 -14.4377
v -0.1894 -6.0636 -14.4377
v 11.9471 -6.5163 -14.4377
v 17.6637 -5.6302 -14.4377
v 25.4375 -6.9245 -14.2792
v 33.4611 -5.2954 -14.2792
v 38.2805 -1.2401 -14.4377
v -10.7776 7.1603 -17.7948
v -6.6573 4.2312 -14.8520
v 21.5903 7.7691 -10.4935
v 21.8823 7.7691 -10.4935
v 35.2369 5.2658 -14.4377
v 38.2805 1.2658 -14.4377
v -10.7776 8.9201 -17.7948
v -5.6555 9.6427 -14.8520
v 1.6637 10.9896 -14.4377
v 9.6637 11.2650 -14.4377
v 19.4025 11.4151 -12.9110
v 23.9679 11.0500 -12.9110
v 31.2369 8.8273 -14.4377
v 21.0406 16.1077 -11.6441
v 22.2563 16.1077 -11.6441
v -11.8054 -9.2642 -3.2679
v -8.7194 -9.2642 -3.2679
v 4.6516 -8.6789 -9.6729
v 6.7410 -8.6789 -9.6729
v -11.8054 -5.6537 -3.2679
v -6.5477 -3.5523 -5.0792
v 1.4824 -4.0384 -6.9016
v 9.5101 -4.0355 -9.0250
v 17.6637 -2.5205 -9.3227
v 25.6637 -3.0178 -9.4119
v 33.6637 -1.5482 -10.0350
v 37.6988 -0.2254 -10.3973
v -4.5217 3.3820 -7.1104
v 1.2534 3.3820 -6.2651
v 9.6637 3.8375 -8.5260
v 18.4197 4.5965 -9.2309
v 24.9949 4.5965 -9.4740
v 32.9831 3.0676 -9.9724
v 37.6988 -0.1123 -10.3973
v -2.5350 8.1064 -10.2255
v 1.6637 8.3727 -9.9526
v 9.6637 8.8906 -9.7183
v 18.6488 11.0499 -9.9507
v 24.7360 10.7608 -10.0938
v 29.8628 8.2187 -10.1992
v 21.0406 16.1077 -9.9883
v 22.2563 16.1077 -9.9883
v -13.4028 -10.1311 1.5623
v -8.0151 -10.1311 1.5623
v -12.9843 -3.4572 1.0785
v -6.6956 -2.7638 0.4313
v -1.6868 -1.6081 -0.6475
v -10.6610 -0.0296 3.4226
v -7.0296 0.1911 1.3876
v -1.6868 0.4117 -0.6475
v -34.3562 -8.1839 13.5308
v -34.1806 -8.1839 13.5308
v -20.3006 -9.4580 10.9378
v -15.1080 -10.0527 8.7876
v -8.7839 -9.5537 9.5623
v -34.3999 -4.1625 13.4819
v -31.0429 -4.3632 13.0940
v -22.7149 -4.3632 11.0163
v -16.5444 -4.1625 6.8847
v -7.6558 -4.1625 9.5623
v -34.4012 0.2285 13.4866
v -30.3363 1.6652 13.0006
v -22.3363 3.2107 12.3482
v -13.7311 1.6777 9.7950
v -9.2082 0.2990 9.5623
v -3.0762 -16.8884 20.9188
v -0.6263 -16.8884 20.9188
v -34.3562 -8.1839 13.6325
v -30.9029 -8.7327 16.6880
v -22.7149 -10.2196 17.2711
v -14.3363 -10.4726 17.5623
v -6.4104 -11.2145 17.7904
v 1.8897 -12.1709 19.9842
v 6.1636 -9.5098 21.1426
v -34.5767 -3.7871 16.8044
v -30.9029 -6.6835 16.6880
v -25.6339 -7.1637 14.4102
v -5.5731 -4.1625 15.8655
v 1.2735 -4.6217 19.9530
v 6.1636 -7.5945 21.1426
v -34.7492 3.2721 17.5390
v -30.3363 5.6652 14.8175
v -22.3363 7.2107 14.0142
v -13.9432 6.0480 16.8964
v -6.8808 1.6717 17.9450
v -1.6533 0.3286 20.8668
v -34.6438 8.3595 20.1902
v -29.7564 11.3507 19.1438
v -22.3363 11.8375 17.0385
v -15.8829 11.8375 19.0326
v -26.7031 16.0795 21.1911
v -22.3363 16.8291 20.5866
v -17.0537 16.9175 20.6326
v -3.0762 -16.8884 22.6005
v -0.6263 -16.8884 22.6005
v 11.0311 -18.6199 28.6005
v 14.2633 -18.6199 28.6005
v -34.6815 -8.4674 28.8608
v -30.3096 -9.5741 25.9414
v -21.9814 -9.9996 25.9406
v -14.3363 -9.2522 23.5697
v -5.4851 -11.1502 25.1044
v 1.8897 -13.8805 25.3852
v 8.6262 -12.9854 26.8644
v 14.2633 -15.4224 28.6005
v -34.6668 -3.6160 26.1152
v -33.4694 -3.6160 26.1152
v -19.0781 -7.4466 28.8595
v -14.3363 -5.8275 27.5697
v -6.3689 -4.2313 27.5535
v 1.2735 -4.0014 25.1242
v 6.8226 -7.0600 25.5623
v -34.8038 3.8375 23.9603
v -33.4413 3.8375 27.9603
v -11.0144 7.2544 23.0499
v -7.5024 3.7915 25.2743
v -1.6533 0.3286 22.1654
v -34.6438 8.3595 22.9522
v -30.9591 11.3507 25.5963
v -20.6931 14.4337 27.9865
v -14.0341 11.2102 25.5182
v -10.1611 7.9867 28.3833
v -26.7428 16.1037 25.5623
v -22.9504 16.6984 25.4168
v -17.0537 16.9175 22.6532
v 11.0311 -18.6199 30.0092
v 14.2633 -18.6199 30.0092
v -34.6815 -8.4674 29.8615
v -30.3363 -9.0878 30.7784
v -24.4115 -9.0913 30.8846
v -2.5607 -8.3656 29.6391
v 1.6637 -10.2995 30.1850
v 8.8700 -13.1156 30.1625
v 14.2633 -15.4224 30.0092
v -34.6815 -6.3619 29.8615
v -30.5820 -3.6788 33.0397
v -22.4214 -4.2211 33.4005
v -14.3363 -1.8275 30.4415
v -6.3689 -4.2313 29.6764
v 1.6637 -7.3872 30.1850
v 6.7089 -7.2605 30.3158
v -29.3287 3.5105 33.4412
v -22.7934 3.5105 34.9555
v -14.3363 3.8375 31.7501
v -10.0854 3.8375 29.8572
v -27.8397 11.8375 30.5867
v -22.9504 11.7952 31.2836
v -14.3363 8.8966 30.8709
v -10.1611 7.9867 29.8040
v -26.5115 15.9503 29.7967
v -26.0264 15.9503 29.7967
v -27.1836 -0.9957 38.0795
v -25.7647 -0.9957 38.0795
v -27.1836 0.6259 38.0795
v -25.7647 0.6259 38.0795
f 5 1 4
f 5 2 1
f 5 3 2
f 5 6 3
f 12 1 2
f 12 11 1
f 12 7 11
f 12 8 7
f 3 12 2
f 3 13 12
f 12 9 8
f 12 13 9
f 16 1 11
f 16 4 1
f 16 10 15
f 16 11 10
f 17 5 4
f 17 4 16
f 13 3 6
f 13 6 18
f 6 5 17
f 6 17 18
f 18 14 13
f 18 19 14
f 20 16 15
f 20 21 16
f 22 16 21
f 22 17 16
f 22 18 17
f 22 23 18
f 23 19 18
f 23 24 19
f 26 20 25
f 26 21 20
f 29 7 8
f 29 28 7
f 9 29 8
f 9 30 29
f 34 7 28
f 34 11 7
f 34 10 11
f 34 33 10
f 34 27 33
f 34 28 27
f 34 28 29
f 34 29 35
f 36 30 9
f 36 9 13
f 36 35 29
f 36 29 30
f 14 36 13
f 14 37 36
f 36 31 30
f 36 37 31
f 41 10 33
f 41 15 10
f 41 32 40
f 41 33 32
f 42 37 14
f 42 14 19
f 42 38 37
f 42 43 38
f 45 39 44
f 45 40 39
f 46 15 41
f 46 20 15
f 45 41 40
f 45 46 41
f 48 22 21
f 48 21 47
f 23 22 48
f 23 48 49
f 50 42 19
f 50 19 24
f 24 23 49
f 24 49 50
f 51 20 46
f 51 25 20
f 47 21 26
f 47 26 52
f 26 25 51
f 26 51 52
f 51 46 47
f 51 47 52
f 54 27 28
f 54 53 27
f 31 55 30
f 31 56 55
f 58 27 53
f 58 33 27
f 58 32 33
f 58 57 32
f 54 28 34
f 54 34 59
f 35 59 34
f 35 60 59
f 55 36 30
f 55 61 36
f 61 35 36
f 61 60 35
f 62 56 31
f 62 31 37
f 61 55 56
f 61 56 62
f 38 62 37
f 38 63 62
f 65 32 57
f 65 40 32
f 65 39 40
f 65 64 39
f 69 63 38
f 69 38 43
f 43 42 68
f 43 68 69
f 64 44 39
f 64 70 44
f 45 44 70
f 45 70 71
f 71 70 64
f 71 64 65
f 72 46 45
f 72 45 71
f 73 47 46
f 73 46 72
f 48 47 73
f 48 73 74
f 49 48 74
f 49 74 75
f 75 74 66
f 75 66 67
f 68 42 50
f 68 50 76
f 76 50 49
f 76 49 75
f 78 74 77
f 78 75 74
f 82 53 54
f 82 81 53
f 83 80 79
f 83 84 80
f 81 58 53
f 81 85 58
f 85 57 58
f 85 84 57
f 82 54 59
f 82 59 86
f 86 85 81
f 86 81 82
f 87 59 60
f 87 86 59
f 88 60 61
f 88 87 60
f 62 88 61
f 62 89 88
f 63 89 62
f 63 90 89
f 91 57 84
f 91 65 57
f 92 85 86
f 92 86 93
f 93 86 87
f 93 87 94
f 95 67 66
f 95 66 94
f 95 94 87
f 95 87 88
f 96 95 88
f 96 88 89
f 97 90 63
f 97 63 69
f 69 68 96
f 69 96 97
f 97 96 89
f 97 89 90
f 98 65 91
f 98 71 65
f 72 71 98
f 72 98 99
f 98 91 92
f 98 92 99
f 100 73 72
f 100 72 99
f 99 92 93
f 99 93 100
f 101 94 66
f 101 66 74
f 101 74 73
f 101 73 100
f 100 93 94
f 100 94 101
f 102 67 95
f 102 75 67
f 102 74 75
f 102 101 74
f 103 96 68
f 103 68 76
f 103 76 75
f 103 75 102
f 103 102 95
f 103 95 96
f 104 74 101
f 104 77 74
f 105 102 75
f 105 75 78
f 78 77 104
f 78 104 105
f 105 104 101
f 105 101 102
f 107 79 80
f 107 106 79
f 106 83 79
f 106 108 83
f 109 107 80
f 109 80 84
f 109 84 83
f 109 83 108
f 110 84 85
f 110 109 84
f 112 84 109
f 112 91 84
f 111 109 108
f 111 112 109
f 110 85 92
f 110 92 113
f 113 92 91
f 113 91 112
f 112 109 110
f 112 110 113
f 118 106 107
f 118 117 106
f 119 115 114
f 119 120 115
f 122 106 117
f 122 108 106
f 122 116 121
f 122 117 116
f 123 118 107
f 123 107 109
f 124 120 119
f 124 125 120
f 125 121 120
f 125 126 121
f 122 111 108
f 122 127 111
f 126 122 121
f 126 127 122
f 123 109 112
f 123 112 128
f 128 112 111
f 128 111 127
f 115 131 114
f 115 132 131
f 134 116 117
f 134 133 116
f 118 134 117
f 118 135 134
f 136 129 135
f 136 130 129
f 131 119 114
f 131 138 119
f 139 132 115
f 139 115 120
f 139 138 131
f 139 131 132
f 140 116 133
f 140 121 116
f 140 120 121
f 140 139 120
f 140 132 139
f 140 133 132
f 141 135 118
f 141 118 123
f 142 135 141
f 142 136 135
f 143 136 142
f 143 137 136
f 138 124 119
f 138 144 124
f 125 124 144
f 125 144 145
f 126 125 145
f 126 145 146
f 147 127 126
f 147 126 146
f 141 123 128
f 141 128 148
f 128 127 147
f 128 147 148
f 149 141 148
f 149 142 141
f 150 145 144
f 150 151 145
f 151 146 145
f 151 152 146
f 153 146 152
f 153 147 146
f 154 152 151
f 154 155 152
f 156 152 155
f 156 153 152
f 130 157 129
f 130 158 157
f 133 162 132
f 133 163 162
f 164 133 134
f 164 163 133
f 165 129 157
f 165 135 129
f 135 164 134
f 135 165 164
f 166 158 130
f 166 130 136
f 166 165 157
f 166 157 158
f 137 166 136
f 137 167 166
f 168 159 167
f 168 160 159
f 162 139 132
f 162 170 139
f 170 138 139
f 170 169 138
f 170 161 169
f 170 162 161
f 171 163 164
f 171 164 172
f 173 172 164
f 173 164 165
f 175 167 137
f 175 137 143
f 143 142 174
f 143 174 175
f 176 138 169
f 176 144 138
f 177 176 169
f 177 169 170
f 148 147 178
f 148 178 179
f 180 174 142
f 180 142 149
f 180 149 148
f 180 148 179
f 180 179 173
f 180 173 174
f 176 150 144
f 176 181 150
f 151 150 181
f 151 181 182
f 181 176 177
f 181 177 182
f 178 147 153
f 178 153 184
f 185 178 184
f 185 179 178
f 182 154 151
f 182 186 154
f 187 155 154
f 187 154 186
f 188 184 153
f 188 153 156
f 188 156 155
f 188 155 187
f 188 187 183
f 188 183 184
f 160 189 159
f 160 190 189
f 192 161 162
f 192 191 161
f 193 162 163
f 193 192 162
f 166 194 165
f 166 195 194
f 196 159 189
f 196 167 159
f 167 195 166
f 167 196 195
f 190 160 168
f 190 168 197
f 168 167 196
f 168 196 197
f 197 196 189
f 197 189 190
f 198 161 191
f 198 169 161
f 170 169 198
f 170 198 199
f 198 191 192
f 198 192 199
f 193 163 171
f 193 171 200
f 199 192 193
f 199 193 200
f 201 171 172
f 201 200 171
f 194 173 165
f 194 202 173
f 202 172 173
f 202 201 172
f 174 173 202
f 174 202 203
f 203 202 194
f 203 194 195
f 204 196 167
f 204 167 175
f 175 174 203
f 175 203 204
f 204 203 195
f 204 195 196
f 199 177 170
f 199 205 177
f 206 200 201
f 206 201 207
f 208 202 173
f 208 173 179
f 208 207 201
f 208 201 202
f 209 177 205
f 209 182 177
f 209 205 206
f 209 206 210
f 211 184 183
f 211 183 210
f 211 210 206
f 211 206 207
f 208 179 185
f 208 185 212
f 185 184 211
f 185 211 212
f 212 211 207
f 212 207 208
f 209 186 182
f 209 213 186
f 214 210 183
f 214 183 187
f 214 187 186
f 214 186 213
f 214 213 209
f 214 209 210
f 200 215 199
f 200 216 215
f 215 205 199
f 215 217 205
f 216 200 206
f 216 206 218
f 206 205 217
f 206 217 218
f 217 215 216
f 217 216 218
