# parsimony mesh: eg10570_monomer (source /Users/eranagmon/code/v2e-flagella/workspace/studies/ecoli-3d/viz/3d/structures/eg10570_monomer.pdb)
# atoms: 2052  voxel: 16 Å  verts: 46  tris: 86
v -5.5750 -11.6615 -19.0143
v 5.3609 -12.2763 -19.4326
v 15.1101 -11.5702 -18.1062
v -8.4544 -2.2951 -19.8951
v 5.3609 -2.2951 -22.1340
v 16.3644 -2.2951 -19.0544
v -7.4569 8.0838 -18.7229
v 5.3609 8.9403 -19.5169
v 15.6164 7.6399 -18.5100
v -20.1480 -11.5555 -3.4546
v -10.8007 -13.0258 -8.7990
v 5.3609 -14.8436 -8.8155
v 17.3711 -12.3756 -8.8155
v -21.1484 -2.2951 -6.4524
v -16.4544 -2.2951 -14.4524
v 21.3580 -2.2951 -8.8155
v -20.4760 8.8833 -5.6922
v -11.9298 10.5221 -10.1415
v 6.4000 16.1760 -7.5372
v 16.8517 13.2659 -7.5372
v 12.4261 21.9921 -1.3516
v 13.8631 21.9921 -1.3516
v -20.4779 -12.4327 7.1845
v -10.6391 -14.7636 7.1845
v 5.3609 -14.4013 7.1845
v 17.0656 -12.0703 7.1845
v -22.4327 -2.2951 7.1845
v 20.2320 -2.2951 7.1845
v -20.5939 8.6967 7.1845
v -10.6391 13.0174 7.1845
v 6.4000 16.6346 6.0687
v 16.1954 13.1781 6.0687
v 12.4261 21.9921 -0.0085
v 13.8631 21.9921 -0.0085
v -19.5819 -11.8849 16.0986
v -10.6391 -12.3751 17.0723
v 5.3609 -11.8339 17.1320
v 14.7028 -11.1632 16.1782
v -19.9234 -2.2951 16.4065
v -10.6391 -2.2951 20.1322
v 5.3609 -2.2951 20.3173
v 15.2384 -2.2951 16.5916
v -19.4087 6.5155 15.8997
v -10.6391 8.7800 18.2445
v 5.3609 9.5136 18.3698
v 14.5224 7.4935 16.0669
f 5 1 4
f 5 2 1
f 5 3 2
f 5 6 3
f 7 5 4
f 7 8 5
f 9 5 8
f 9 6 5
f 12 1 2
f 12 11 1
f 3 12 2
f 3 13 12
f 15 1 11
f 15 4 1
f 15 10 14
f 15 11 10
f 13 3 6
f 13 6 16
f 15 7 4
f 15 18 7
f 17 15 14
f 17 18 15
f 19 8 7
f 19 7 18
f 16 6 9
f 16 9 20
f 9 8 19
f 9 19 20
f 22 19 21
f 22 20 19
f 24 10 11
f 24 23 10
f 12 24 11
f 12 25 24
f 26 12 13
f 26 25 12
f 27 10 23
f 27 14 10
f 28 26 13
f 28 13 16
f 27 17 14
f 27 29 17
f 30 18 17
f 30 17 29
f 19 18 30
f 19 30 31
f 28 16 20
f 28 20 32
f 31 21 19
f 31 33 21
f 32 20 22
f 32 22 34
f 34 33 31
f 34 31 32
f 24 35 23
f 24 36 35
f 25 36 24
f 25 37 36
f 38 25 26
f 38 37 25
f 35 27 23
f 35 39 27
f 40 39 35
f 40 35 36
f 40 36 37
f 40 37 41
f 42 38 26
f 42 26 28
f 41 37 38
f 41 38 42
f 43 27 39
f 43 29 27
f 30 29 43
f 30 43 44
f 43 39 40
f 43 40 44
f 45 31 30
f 45 30 44
f 44 40 41
f 44 41 45
f 46 42 28
f 46 28 32
f 46 32 31
f 46 31 45
f 46 45 41
f 46 41 42
