# parsimony mesh: eg10977_monomer (source /Users/eranagmon/code/v2e-cplx/workspace/studies/ecoli-3d/viz/3d/structures/eg10977_monomer.pdb)
# atoms: 1711  voxel: 8 Å  verts: 175  tris: 356
v -3.2836 -3.5051 -23.2286
v -0.1962 -3.5051 -23.2286
v -3.2836 -1.1630 -23.2286
v -0.1962 -1.1630 -23.2286
v -10.7330 11.5052 -22.7068
v -9.6150 11.5052 -22.7068
v -10.7330 13.8502 -22.7068
v -9.6150 13.8502 -22.7068
v 4.0700 -11.2293 -14.9966
v 9.7913 -11.5577 -15.4494
v 15.9469 -11.2198 -15.1743
v -10.9368 -2.8537 -14.6638
v -6.0536 -4.3848 -17.7413
v 1.9369 -6.5993 -18.3430
v 9.7913 -6.5582 -18.9438
v 18.2847 -7.0336 -17.1797
v 25.7913 -4.3996 -15.3924
v 29.9646 -2.8878 -14.5113
v -12.4586 1.4418 -15.8949
v -6.0536 1.4789 -19.5078
v 2.1988 1.4789 -20.1799
v 9.7913 1.4418 -19.2633
v 17.7913 1.4418 -17.9486
v 25.0980 0.7831 -15.3001
v 29.9646 -2.3227 -14.5113
v -12.5844 9.0798 -18.6037
v -6.6525 9.0798 -19.7005
v 1.4272 9.2413 -16.1573
v 9.7913 6.7255 -15.7689
v 17.7913 6.0668 -15.0335
v 21.9691 5.5628 -14.5487
v -11.4744 15.0161 -18.3576
v -6.6525 14.9630 -17.9341
v -1.4823 13.8782 -14.9850
v -12.6492 -11.4332 -6.9833
v -6.2087 -12.2183 -8.3226
v 1.5585 -12.0002 -10.7542
v 9.7913 -12.4691 -10.3576
v 18.2847 -11.5973 -10.4846
v 25.7913 -11.6822 -8.3531
v 31.5303 -11.8081 -7.4733
v -19.7903 -5.1137 -8.1254
v -14.4597 -6.6504 -10.2210
v -6.2087 -8.1313 -12.3226
v -1.2634 -9.6935 -13.6852
v 21.2802 -10.0171 -13.2359
v 26.7319 -6.4261 -10.7152
v 30.7474 -6.0079 -10.6690
v -26.2618 5.1963 -6.4431
v -22.3576 2.0945 -8.9485
v -16.4586 1.4418 -13.5320
v 25.8698 0.7831 -10.8619
v 29.9646 -2.3227 -13.8648
v -26.2618 5.5342 -6.4431
v -22.2087 6.3874 -8.2704
v -16.1910 9.3429 -11.0365
v 3.8511 11.7744 -12.0493
v 9.3613 10.6183 -9.7726
v 17.7913 7.6246 -10.3576
v 22.2434 5.9034 -10.3576
v -11.9827 15.4326 -10.3576
v -6.2087 16.1204 -10.3576
v 1.4272 14.0928 -9.7726
v 6.4079 13.6097 -6.7159
v -18.6532 -10.7103 -0.2325
v -14.8730 -11.6625 -2.6825
v -6.2087 -14.8141 -2.3576
v 1.7913 -14.6485 -2.3576
v 9.7913 -12.5694 -2.3576
v 17.4415 -11.4358 -2.8667
v 25.7913 -11.6822 -5.1790
v 31.5303 -11.8081 -5.2710
v -26.2108 -2.5691 1.6342
v -21.8884 -6.5080 -1.9658
v -17.9825 -10.4470 -5.5658
v 19.8749 -9.2268 -0.5394
v 26.7319 -6.0456 -2.4135
v 30.7145 -5.9592 -1.9985
v -26.2363 1.3483 -1.7936
v -25.5458 1.3483 -1.7936
v 26.4258 0.8342 -1.7787
v 29.8989 -2.2375 1.2739
v -26.2618 5.5342 -5.2215
v -22.8642 6.8910 -2.4759
v -15.8377 11.1840 -2.3576
v 4.6796 11.9761 -0.4190
v 9.3613 11.4589 -2.7945
v 17.7913 9.5445 -2.3576
v 22.9383 6.9239 -2.3576
v -11.8377 14.7541 -2.3576
v -6.2087 16.2428 -2.3576
v 1.9243 14.7335 -2.7945
v 6.4079 13.6097 -5.7524
v -3.3735 -18.9930 7.0036
v 0.3323 -18.9930 7.0036
v -18.6532 -10.7103 2.3013
v -13.7787 -11.3233 5.2377
v -6.1076 -16.0207 4.8591
v 2.5159 -17.5299 4.8591
v 9.7913 -13.6541 5.6424
v 14.7172 -10.9252 5.6424
v -26.2108 -2.5691 1.6629
v -22.0870 -6.1811 4.6488
v -16.1587 -9.7931 7.6346
v 18.7172 -8.7108 5.6424
v 25.3994 -4.4195 4.9514
v 29.8989 -2.7904 1.8241
v -26.2108 -2.4996 1.6629
v -25.4705 0.6770 4.8547
v 5.0789 4.3482 8.6468
v 9.7913 4.0413 8.3306
v 17.7913 3.9596 8.2244
v 25.3502 1.0009 5.1646
v 29.8989 -2.2375 1.8241
v -21.8019 7.2888 5.6424
v -15.5018 11.2888 5.6424
v 3.5076 9.3623 5.8450
v 9.7913 7.7762 4.3306
v 17.7913 7.9867 4.2244
v 22.8957 6.9234 3.1718
v -11.5018 14.2929 5.6424
v -6.2087 16.1070 5.6424
v -0.5291 15.2559 5.6424
v -10.9526 -19.1749 16.3170
v -6.2036 -19.0840 13.4891
v 0.3323 -18.9930 10.6612
v -11.4830 -13.9440 13.6471
v -6.3407 -15.2624 13.5567
v 2.5159 -15.2971 11.5650
v 9.7913 -12.5544 10.2845
v 14.2755 -10.6550 9.7532
v -20.1081 -4.3914 13.6424
v -15.2436 -8.3914 13.6424
v -3.8602 -8.9210 16.4158
v 1.4291 -6.3759 14.5671
v 9.7913 -6.5582 11.9125
v 17.2818 -6.6791 11.1509
v 22.4714 -4.0930 10.5642
v -21.8990 1.4418 13.6424
v 4.4666 1.7494 13.0558
v 8.4751 1.9453 13.2032
v 17.7913 -0.0404 11.4449
v 22.4714 -1.0940 10.5642
v -19.9996 6.4564 13.6424
v -13.8611 10.9858 14.2722
v -6.2087 12.9618 16.9226
v 1.7774 9.5449 13.7066
v 6.7202 6.1751 15.7803
v -10.9628 13.7907 12.0254
v -6.2087 14.3894 12.9226
v -1.5241 14.3563 11.6330
v -10.9526 -19.1749 18.2120
v -9.0337 -19.1749 18.2120
v -11.3390 -14.5582 18.3406
v -8.5661 -14.5582 18.3406
v -18.7625 -3.1009 17.8627
v -13.8666 -6.0839 18.5561
v -6.3996 -6.3759 18.7458
v -1.4791 -3.5877 18.1788
v -18.6412 1.4418 17.8256
v -13.5824 2.0893 21.5537
v -6.2087 0.5167 22.7506
v 1.4281 1.8065 21.0431
v 6.7202 4.4839 18.5740
v -18.2316 5.4862 17.6663
v -13.5824 7.2553 20.8568
v -6.2087 10.8188 21.6424
v 1.7177 8.3966 21.4013
v 6.7202 6.1751 18.5740
v -10.4982 5.1877 25.8166
v -6.2087 4.5167 26.4834
v -0.9980 4.4625 26.5895
v -10.4982 5.8659 25.8166
v -6.2087 7.2987 26.4834
v -0.9980 7.4935 26.5895
f 3 2 1
f 3 4 2
f 7 6 5
f 7 8 6
f 14 1 2
f 14 13 1
f 15 9 14
f 15 10 9
f 15 11 10
f 15 16 11
f 20 1 13
f 20 3 1
f 20 12 19
f 20 13 12
f 21 14 2
f 21 2 4
f 21 4 3
f 21 3 20
f 21 15 14
f 21 22 15
f 23 15 22
f 23 16 15
f 23 17 16
f 23 24 17
f 25 17 24
f 25 18 17
f 6 26 5
f 6 27 26
f 26 20 19
f 26 27 20
f 28 20 27
f 28 21 20
f 29 21 28
f 29 22 21
f 29 23 22
f 29 30 23
f 31 23 30
f 31 24 23
f 32 5 26
f 32 7 5
f 27 6 8
f 27 8 33
f 8 7 32
f 8 32 33
f 34 27 33
f 34 28 27
f 38 9 10
f 38 37 9
f 11 38 10
f 11 39 38
f 44 12 13
f 44 43 12
f 44 35 43
f 44 36 35
f 45 9 37
f 45 14 9
f 45 13 14
f 45 44 13
f 45 36 44
f 45 37 36
f 46 39 11
f 46 11 16
f 17 46 16
f 17 47 46
f 46 40 39
f 46 47 40
f 18 47 17
f 18 48 47
f 48 40 47
f 48 41 40
f 51 12 43
f 51 19 12
f 51 42 50
f 51 43 42
f 53 48 18
f 53 18 25
f 53 25 24
f 53 24 52
f 53 52 47
f 53 47 48
f 55 49 54
f 55 50 49
f 51 26 19
f 51 56 26
f 55 51 50
f 55 56 51
f 29 28 57
f 29 57 58
f 59 30 29
f 59 29 58
f 52 24 31
f 52 31 60
f 31 30 59
f 31 59 60
f 56 32 26
f 56 61 32
f 33 32 61
f 33 61 62
f 57 28 34
f 57 34 63
f 34 33 62
f 34 62 63
f 64 57 63
f 64 58 57
f 67 35 36
f 67 66 35
f 68 36 37
f 68 67 36
f 38 68 37
f 38 69 68
f 70 38 39
f 70 69 38
f 71 39 40
f 71 70 39
f 41 71 40
f 41 72 71
f 75 35 66
f 75 43 35
f 75 42 43
f 75 74 42
f 75 65 74
f 75 66 65
f 76 70 71
f 76 71 77
f 72 41 48
f 72 48 78
f 48 47 77
f 48 77 78
f 77 71 72
f 77 72 78
f 80 42 74
f 80 50 42
f 80 49 50
f 80 79 49
f 80 73 79
f 80 74 73
f 77 47 52
f 77 52 81
f 82 77 81
f 82 78 77
f 83 49 79
f 83 54 49
f 55 54 83
f 55 83 84
f 83 79 80
f 83 80 84
f 85 56 55
f 85 55 84
f 88 59 58
f 88 58 87
f 81 52 60
f 81 60 89
f 89 60 59
f 89 59 88
f 85 61 56
f 85 90 61
f 62 61 90
f 62 90 91
f 63 62 91
f 63 91 92
f 87 58 64
f 87 64 93
f 64 63 92
f 64 92 93
f 93 92 86
f 93 86 87
f 66 96 65
f 66 97 96
f 67 97 66
f 67 98 97
f 68 98 67
f 68 99 98
f 99 94 98
f 99 95 94
f 100 68 69
f 100 99 68
f 101 69 70
f 101 100 69
f 96 74 65
f 96 103 74
f 103 73 74
f 103 102 73
f 104 103 96
f 104 96 97
f 101 70 76
f 101 76 105
f 106 76 77
f 106 105 76
f 107 77 78
f 107 106 77
f 108 73 102
f 108 79 73
f 80 79 108
f 80 108 109
f 109 108 102
f 109 102 103
f 107 78 82
f 107 82 114
f 114 82 81
f 114 81 113
f 114 113 106
f 114 106 107
f 109 84 80
f 109 115 84
f 85 84 115
f 85 115 116
f 118 87 86
f 118 86 117
f 118 117 110
f 118 110 111
f 88 87 118
f 88 118 119
f 118 111 112
f 118 112 119
f 120 113 81
f 120 81 89
f 120 89 88
f 120 88 119
f 120 119 112
f 120 112 113
f 116 90 85
f 116 121 90
f 91 90 121
f 91 121 122
f 123 117 86
f 123 86 92
f 123 92 91
f 123 91 122
f 126 94 95
f 126 125 94
f 128 94 125
f 128 98 94
f 98 127 97
f 98 128 127
f 128 124 127
f 128 125 124
f 129 126 95
f 129 95 99
f 128 125 126
f 128 126 129
f 100 129 99
f 100 130 129
f 131 100 101
f 131 130 100
f 127 104 97
f 127 133 104
f 104 132 103
f 104 133 132
f 134 128 129
f 134 129 135
f 135 129 130
f 135 130 136
f 131 101 105
f 131 105 137
f 136 130 131
f 136 131 137
f 138 105 106
f 138 137 105
f 132 109 103
f 132 139 109
f 141 111 110
f 141 110 140
f 140 135 136
f 140 136 141
f 142 112 111
f 142 111 141
f 142 141 136
f 142 136 137
f 143 138 106
f 143 106 113
f 143 113 112
f 143 112 142
f 142 137 138
f 142 138 143
f 139 115 109
f 139 144 115
f 116 115 144
f 116 144 145
f 147 140 110
f 147 110 117
f 148 140 147
f 148 141 140
f 149 116 145
f 149 121 116
f 122 121 149
f 122 149 150
f 149 145 146
f 149 146 150
f 151 147 117
f 151 117 123
f 151 123 122
f 151 122 150
f 151 150 146
f 151 146 147
f 153 124 125
f 153 152 124
f 154 124 152
f 154 127 124
f 153 125 128
f 153 128 155
f 154 152 153
f 154 153 155
f 154 133 127
f 154 157 133
f 133 156 132
f 133 157 156
f 155 128 134
f 155 134 158
f 158 157 154
f 158 154 155
f 159 134 135
f 159 158 134
f 156 139 132
f 156 160 139
f 161 160 156
f 161 156 157
f 162 161 157
f 162 157 158
f 159 135 140
f 159 140 163
f 162 158 159
f 162 159 163
f 164 140 141
f 164 163 140
f 160 144 139
f 160 165 144
f 145 144 165
f 145 165 166
f 165 160 161
f 165 161 166
f 146 145 166
f 146 166 167
f 168 147 146
f 168 146 167
f 164 141 148
f 164 148 169
f 169 148 147
f 169 147 168
f 168 163 164
f 168 164 169
f 162 170 161
f 162 171 170
f 172 162 163
f 172 171 162
f 170 166 161
f 170 173 166
f 167 166 173
f 167 173 174
f 173 170 171
f 173 171 174
f 172 163 168
f 172 168 175
f 175 168 167
f 175 167 174
f 174 171 172
f 174 172 175
