# parsimony mesh: eg10504_monomer (source /Users/eranagmon/code/v2e-cplx/workspace/studies/ecoli-3d/viz/3d/structures/eg10504_monomer.pdb)
# atoms: 577  voxel: 2.5 Å  verts: 1111  tris: 2288
v 7.1699 0.9533 -23.2445
v 8.2542 0.9533 -23.2445
v 7.2903 2.5070 -23.2066
v 9.1300 2.7250 -23.1840
v 10.4834 3.7037 -23.0397
v 7.8464 4.0403 -23.0394
v 9.0702 4.9270 -23.1209
v 10.7206 5.0070 -23.1278
v 9.8212 6.4344 -23.1392
v 10.7732 6.4344 -23.1392
v 9.7509 -3.8735 -20.6692
v 10.5955 -3.8735 -20.6692
v 7.3769 -2.0226 -20.9321
v 9.0280 -2.7108 -20.9994
v 10.7287 -2.4930 -20.8065
v 5.2530 0.8227 -21.2807
v 6.4400 0.0547 -21.9397
v 9.2821 0.1206 -21.6733
v 10.6720 -0.7121 -20.7479
v 5.2530 1.7093 -21.2807
v 6.0266 2.5284 -21.9735
v 9.9513 1.9935 -21.7626
v 10.8250 3.2435 -21.7626
v 7.4649 4.9270 -21.7396
v 8.1545 5.7070 -22.5576
v 11.9464 5.1193 -21.6948
v 13.0430 6.0275 -20.8162
v 7.9004 6.2999 -20.8910
v 9.0702 6.7260 -21.7396
v 11.6414 6.8044 -21.6948
v 13.0430 6.4305 -20.8162
v 9.7509 -3.8735 -19.9475
v 10.5955 -3.8735 -19.9475
v 4.9997 -1.4072 -18.2879
v 6.6037 -2.1993 -19.1778
v 9.0280 -3.4312 -19.1736
v 10.7494 -2.5734 -19.1736
v 5.1263 0.0963 -19.0420
v 6.2723 0.2533 -18.9045
v 9.3635 0.9383 -19.0260
v 10.7120 -0.3760 -19.2626
v 5.2530 1.7093 -19.7961
v 6.7792 2.6762 -18.9155
v 9.1389 2.5511 -18.9390
v 10.9125 3.1256 -19.8432
v 7.5203 4.7602 -19.4744
v 8.9582 4.7602 -18.7735
v 11.7250 5.1193 -19.7214
v 13.0430 6.0275 -20.3622
v 7.9004 6.2999 -20.4490
v 9.1938 6.7102 -20.0908
v 11.6938 6.8082 -20.0257
v 13.0430 6.4305 -20.3622
v 7.3488 -6.6380 -15.5906
v 8.1763 -6.6380 -15.5906
v 2.6986 -3.7624 -15.5485
v 4.1938 -4.1519 -15.6200
v 6.5868 -5.0585 -15.9940
v 8.5770 -4.9930 -16.0339
v -0.1657 -2.0250 -16.2069
v 1.7967 -2.7122 -16.3992
v 4.1773 -2.3415 -17.0470
v 6.6938 -3.1037 -17.3059
v 9.3108 -3.1174 -16.8829
v 11.0616 -1.8484 -16.7626
v -0.1657 -0.5246 -16.2069
v 1.6938 -0.1337 -16.5939
v 4.1773 0.0302 -16.9611
v 6.6938 0.8620 -16.7626
v 9.1938 0.4533 -16.7626
v 11.0616 -0.6308 -16.7626
v 7.9388 3.6432 -18.0102
v 7.9678 3.6432 -18.0102
v 7.9388 3.7623 -18.0102
v 7.9678 3.7623 -18.0102
v 7.6609 -8.7988 -13.3553
v 8.1038 -8.7988 -13.3553
v 5.1651 -6.8327 -13.7636
v 6.6715 -7.5687 -14.3928
v 8.5896 -7.4800 -14.2182
v 2.6986 -3.7624 -15.4820
v 4.6100 -4.8385 -14.6748
v 5.6957 -5.0114 -14.5505
v 9.8606 -4.9818 -14.1943
v 10.6177 -4.1410 -13.3154
v -0.1657 -2.0250 -14.8965
v 1.7967 -2.7122 -14.7228
v 4.1938 -2.4930 -14.3295
v 5.8243 -2.4930 -13.6047
v 10.2221 -3.1663 -14.9820
v 11.7113 -2.3706 -14.3896
v 13.4074 -1.5750 -13.7972
v -0.1657 -0.5246 -14.8965
v 1.6938 -0.1337 -14.5484
v 4.1938 -0.1112 -14.4839
v 6.5889 -0.2060 -14.0914
v 9.3457 0.4596 -14.1419
v 11.8604 -0.1283 -15.0027
v 13.7685 0.0070 -14.0887
v 10.2803 1.4882 -13.2280
v 11.7372 2.3957 -13.6828
v 14.3254 2.6227 -13.5930
v 15.5012 3.5332 -13.0783
v 12.5996 3.9675 -13.2641
v 14.1938 3.9664 -13.2504
v 15.5012 3.8257 -13.0783
v 7.6609 -8.7988 -12.8418
v 8.1038 -8.7988 -12.8418
v 5.1651 -6.8327 -12.5370
v 6.7263 -7.6047 -11.8561
v 8.7374 -7.5232 -11.9101
v 5.1812 -4.9651 -11.7482
v 5.7505 -4.9651 -11.7482
v 10.0758 -4.9818 -11.7292
v 10.6177 -4.1410 -12.5402
v -10.0939 -1.8514 -10.8876
v -9.0205 -1.8514 -10.8876
v 4.6495 -2.4930 -11.3292
v 5.8243 -2.4930 -12.5792
v 10.3345 -3.1183 -10.8735
v 11.7625 -2.3466 -11.5283
v 13.4074 -1.5750 -12.1832
v -10.0007 0.0070 -10.8095
v -9.0819 0.0070 -10.8095
v 0.3172 1.0384 -10.6186
v 0.6456 1.0384 -10.6186
v 4.6312 -0.4234 -11.1547
v 6.5889 -0.4047 -11.8979
v 9.3457 0.1657 -11.8442
v 11.8925 -0.3550 -10.7909
v 14.3269 -0.0589 -11.4841
v 15.5521 1.1194 -10.7851
v -9.6111 1.3000 -10.5335
v -9.4596 1.3000 -10.5335
v 0.3172 1.8981 -10.6186
v 0.6456 1.8981 -10.6186
v 10.2803 1.4882 -12.7319
v 11.0573 2.3957 -11.8442
v 15.2465 1.8665 -12.4518
v 15.8557 2.6227 -11.6761
v 12.1353 4.2282 -11.7626
v 14.1938 4.6447 -11.7626
v 15.8774 4.1735 -11.7626
v -12.1055 8.5906 -10.6387
v -10.8062 8.2170 -11.2082
v -9.1395 8.2035 -11.3140
v -12.1055 8.8753 -10.6387
v -10.8062 9.3991 -11.2082
v -9.1395 9.4949 -11.3140
v 0.2013 -8.8428 -8.1568
v 0.6378 -8.8428 -8.1568
v -0.1815 -7.4930 -8.7029
v 1.5602 -7.3659 -8.6595
v 4.1938 -6.6762 -8.5430
v 6.8061 -6.6629 -9.2015
v 8.4227 -6.7100 -9.8411
v -0.3349 -4.9930 -8.8761
v 1.7417 -5.0503 -8.7980
v 4.1980 -5.0490 -9.1995
v 6.8061 -5.9454 -9.2015
v 8.9407 -5.1260 -9.1097
v 12.7051 -3.8414 -8.1469
v 13.0543 -3.8414 -8.1469
v -10.3888 -2.0077 -9.2626
v -8.7673 -2.0077 -9.2626
v -0.3845 -2.4930 -8.6820
v 1.7417 -2.2934 -8.8638
v 3.4614 -2.2934 -9.3283
v 7.9024 -1.3195 -8.1503
v 9.1796 -2.3447 -8.7859
v 11.9729 -2.4901 -9.3288
v 13.4700 -2.4930 -8.7368
v -11.0019 0.0070 -9.2626
v -7.8671 0.0488 -9.2282
v -6.9073 0.9100 -8.3718
v -0.3232 0.1258 -9.3231
v 1.7147 -0.0411 -9.3677
v 3.9629 0.0614 -9.5066
v 7.0055 0.1153 -9.3124
v 8.8765 -0.2427 -9.0913
v 11.8925 -0.3550 -10.2715
v 14.2984 -0.3785 -9.5114
v 15.5565 1.0833 -9.2626
v -10.4266 2.2828 -9.1752
v -8.4982 2.2828 -9.6069
v -6.6728 2.5070 -8.5523
v -0.2668 2.6417 -9.4908
v 1.4232 2.6417 -9.4908
v 4.9612 1.4716 -8.8078
v 6.1086 1.4716 -8.8078
v 9.7750 1.8607 -8.3657
v 10.8185 2.6192 -9.2245
v 16.3136 2.5070 -9.2626
v -12.3677 5.5950 -8.4790
v -10.8148 4.9670 -8.3813
v -8.4025 5.1062 -8.4873
v -6.3736 5.0070 -8.4028
v -0.1194 4.3963 -8.8096
v 1.2011 4.3963 -8.8096
v 11.8368 4.4174 -9.2626
v 14.1938 5.1414 -9.2626
v 16.2009 4.4809 -9.2626
v -12.4837 7.6572 -9.2925
v -10.6867 6.9694 -9.2925
v -8.4050 7.3353 -8.7954
v -6.5083 6.5858 -8.1724
v -12.3570 9.1527 -9.2626
v -10.8062 10.0370 -9.2626
v -8.9837 9.6413 -9.2626
v 0.0396 -8.9101 -6.7626
v 1.5602 -9.0405 -6.7420
v 3.6045 -9.0159 -5.8949
v 7.5968 -8.7934 -5.5746
v 8.0679 -8.7934 -5.5746
v -9.7400 -6.4616 -5.6191
v -8.7910 -6.4616 -5.6191
v -0.6597 -7.4930 -6.7626
v 2.3045 -8.1146 -7.5616
v 4.3402 -8.0317 -6.7420
v 6.8753 -7.6311 -6.7439
v 9.0182 -7.5693 -6.4122
v 11.2759 -6.7868 -6.2160
v -9.7400 -5.9798 -5.6191
v -8.7910 -5.9798 -5.6191
v -4.8087 -3.9110 -5.8389
v -3.3062 -3.9932 -5.9092
v -1.3839 -4.8423 -6.6341
v 2.6069 -4.2551 -7.5718
v 3.1988 -4.2551 -7.5718
v 7.8205 -6.0480 -7.9133
v 9.3721 -4.9133 -7.0647
v 11.9905 -4.6433 -7.0001
v 13.0543 -3.8414 -7.7843
v -10.1286 -1.6542 -7.6242
v -8.1206 -1.5567 -6.6858
v -5.7077 -2.3727 -6.3116
v -3.3062 -2.4930 -7.0191
v -1.6345 -2.4930 -7.4464
v 2.6069 -2.9937 -7.5718
v 4.2990 -2.2779 -6.5704
v 6.6989 -1.4408 -6.7717
v 9.1827 -2.5926 -7.2820
v 11.8006 -3.4137 -6.8756
v 14.1279 -2.5363 -6.9011
v 15.7578 -1.6176 -6.0179
v -15.0430 0.9308 -6.1982
v -13.3062 0.8681 -6.5291
v -10.9718 0.4603 -6.7678
v -7.8545 -0.3532 -6.6371
v -6.2174 0.2718 -6.7808
v -3.0759 0.2511 -6.5236
v -1.7259 0.2511 -6.9382
v 2.5439 0.6092 -6.7626
v 4.3469 -0.0082 -6.6416
v 6.7657 0.0070 -6.9411
v 8.0929 0.0070 -7.9261
v 15.2015 -0.5037 -7.6846
v 15.7954 0.2006 -6.8158
v -15.1393 2.5070 -6.3424
v -13.3062 2.5070 -7.3215
v -10.9978 2.0253 -6.8496
v -8.3062 1.6915 -6.0017
v -5.9423 2.1656 -6.7079
v -3.0759 2.3028 -5.9875
v -1.6695 2.3028 -6.6168
v 2.3468 2.5070 -6.7626
v 4.9612 1.4716 -7.7143
v 6.6960 2.0633 -7.1188
v 9.0425 2.6192 -7.6258
v 10.5349 3.5274 -7.4886
v 16.0709 2.5070 -6.7626
v -15.0973 5.0070 -6.1398
v -13.2431 4.8598 -7.3958
v -10.8148 4.9670 -7.7832
v -9.3000 6.0056 -7.7515
v -5.1236 5.0070 -7.6206
v -3.1902 4.8721 -6.3032
v -0.8941 4.6817 -6.6168
v 1.4966 4.7690 -6.7626
v 7.3509 4.1375 -6.3026
v 9.1938 4.0697 -6.3371
v 11.4985 4.2934 -6.6982
v 14.1938 4.8194 -6.7626
v 15.8669 4.1762 -6.7626
v -14.9871 7.0412 -5.9281
v -13.9175 7.7275 -6.7619
v -9.7492 7.5015 -6.7479
v -8.7051 7.6195 -7.0641
v -5.7275 7.4287 -6.9515
v -3.9461 7.0654 -6.2440
v -12.8993 9.2838 -6.7626
v -10.6573 9.4432 -6.6516
v -9.2095 9.1982 -7.4109
v -9.9409 -8.9863 -3.3792
v -8.3062 -9.0023 -3.3658
v -6.8470 -8.8453 -3.1170
v 0.1473 -8.8660 -5.1486
v 1.6122 -9.2410 -4.2942
v 4.3402 -9.4159 -4.4113
v 6.7356 -9.1041 -4.4113
v 8.2585 -8.8834 -4.2626
v -10.2509 -7.3742 -4.2326
v -8.0971 -7.3742 -4.7874
v -5.9307 -7.4616 -3.7661
v -3.3062 -7.0617 -3.6356
v -0.7084 -7.6898 -4.3305
v 0.7245 -8.4093 -3.4820
v 5.2712 -8.6465 -5.3438
v 5.9301 -8.6465 -5.3438
v 9.5085 -8.0513 -4.2626
v 11.2236 -6.8013 -4.2626
v -10.1361 -5.4791 -4.2626
v -8.2685 -4.9004 -4.5072
v -5.7077 -4.8438 -5.0047
v -3.3062 -5.2432 -4.8856
v -1.5640 -5.5752 -5.1790
v 10.3418 -3.7786 -5.3287
v 11.7970 -4.8140 -4.4084
v 13.4690 -4.1827 -3.4880
v -12.2185 -1.3815 -3.1351
v -10.8062 -1.8916 -3.4559
v -8.3069 -2.5476 -4.3312
v -6.4753 -3.1258 -5.1813
v 5.3992 -1.5622 -5.4455
v 5.4955 -1.5622 -5.4455
v 10.3418 -3.6968 -5.3287
v 12.1167 -2.5734 -4.2419
v 13.8831 -2.3966 -4.1339
v 15.7578 -1.6176 -5.0769
v -15.0430 0.9308 -4.7742
v -13.3155 0.1644 -3.9546
v -10.7371 0.1416 -4.5816
v -8.1431 -0.1112 -4.8920
v -6.6349 0.6434 -5.3190
v -2.0890 1.2472 -5.4890
v -2.0206 1.2472 -5.4890
v 2.5707 1.1041 -5.2691
v 4.5820 0.3420 -4.5240
v 5.7124 0.2507 -4.4724
v 12.6806 -1.1644 -3.0894
v 14.1938 -0.7447 -3.3684
v 15.8815 0.1085 -4.2512
v -15.3347 2.3095 -4.0696
v -14.4126 1.3444 -3.1075
v -9.8576 1.3829 -5.0366
v -8.3062 1.6915 -5.0104
v -6.6349 1.7104 -5.3190
v -2.0890 1.3334 -5.4890
v -2.0206 1.3334 -5.4890
v 2.6078 2.7570 -4.3665
v 3.7647 2.0903 -3.6024
v 6.8256 2.4760 -4.1139
v 8.6171 3.2886 -3.1814
v 16.0750 2.5070 -4.2626
v -15.9372 5.0070 -4.2626
v -2.2794 5.6154 -5.1053
v -0.8062 5.6834 -5.0916
v 2.0170 4.9454 -4.4789
v 3.4831 5.4237 -3.5992
v 7.3509 4.1375 -4.8481
v 9.3478 4.0364 -4.1139
v 11.6938 4.5254 -4.2626
v 14.1938 4.7245 -4.2626
v 15.7633 4.0200 -4.2626
v -17.4231 7.9827 -3.4296
v -15.9050 7.5120 -4.4260
v -14.4952 8.7079 -5.4224
v -9.7248 8.5054 -5.3516
v -8.3062 8.5550 -5.3706
v -5.8062 8.7250 -5.2570
v -3.3740 7.6887 -4.3194
v -0.5875 7.4900 -3.6941
v 1.4780 7.6005 -3.7905
v 3.4831 6.8296 -3.5992
v -17.5241 10.0070 -3.5375
v -15.8062 10.0070 -4.2139
v -13.6086 9.8934 -4.2969
v -10.6573 9.3411 -4.4160
v -8.0716 9.9774 -3.9080
v -5.8062 10.0070 -4.1720
v -4.1828 10.0070 -3.5570
v 0.3917 8.7746 -3.0432
v 0.5008 8.7746 -3.0432
v -17.3132 11.7235 -3.2955
v -15.8062 11.8093 -3.3438
v -14.3887 11.5270 -3.1714
v -7.0818 11.2733 -3.0277
v -5.8062 11.6229 -3.1776
v -4.1460 11.7286 -3.2176
v -2.2594 -13.8733 -0.7247
v -1.7551 -13.8733 -0.7247
v -2.5505 -12.4930 -1.0268
v -0.8755 -12.4655 -1.0543
v 0.7464 -11.6139 -0.7299
v -9.8462 -8.9273 -1.7626
v -8.5161 -8.9519 -1.5873
v -6.8470 -8.8453 -2.3037
v -2.4964 -9.9930 -1.0475
v -0.8062 -9.9930 -1.2731
v 1.5688 -10.0059 -1.4963
v 4.1938 -9.9600 -1.7626
v 6.6938 -9.7680 -1.7626
v 8.5281 -9.1954 -1.7626
v -10.5774 -7.4930 -1.7626
v -7.8227 -8.6776 -0.6371
v -5.7332 -7.6425 -1.4366
v -3.3591 -7.6222 -1.4942
v -0.8062 -8.4133 -2.0050
v 0.7245 -8.4093 -2.2628
v 9.6269 -7.3633 -1.9129
v 10.6514 -6.4436 -2.8464
v -10.2875 -5.2045 -1.7626
v -9.3595 -3.9545 -1.7626
v -4.6194 -6.2190 -0.5694
v -4.5310 -6.2190 -0.5694
v 9.9699 -5.4230 -1.1798
v 11.5683 -5.2974 -1.9129
v 14.2589 -4.5680 -1.8536
v 15.7514 -4.2072 -1.0809
v -12.2668 -1.4116 -1.7626
v -10.8062 -2.1283 -1.7626
v -8.4063 -2.3692 -1.2321
v -7.0352 -1.2485 -0.5247
v 12.6806 -1.3483 -2.9478
v 14.3398 -2.2731 -2.0143
v 15.7514 -3.1980 -1.0809
v -13.3679 0.0070 -1.7626
v -7.1354 -1.2168 -0.5247
v -5.8903 -0.0589 -0.5712
v -4.4877 1.0990 -0.6176
v 5.4314 1.2465 -3.0055
v 5.4899 1.2465 -3.0055
v 12.6806 -1.1644 -2.9478
v 14.2736 -0.0775 -2.0443
v 15.6293 1.0095 -2.8076
v -15.3257 2.6570 -1.7626
v -14.4073 1.4070 -1.7626
v -4.7453 1.3711 -0.6176
v -4.4877 1.3711 -0.6176
v 2.9437 3.7570 -3.0126
v 4.4363 2.7570 -2.6717
v 6.4714 2.4760 -2.5795
v 8.6171 3.2886 -2.8589
v 14.8595 2.5070 -1.3319
v 15.8460 2.5070 -2.5819
v -17.1457 5.9994 -1.1409
v -16.5318 5.1024 -1.8896
v 2.9437 3.7570 -3.0126
v 4.2437 4.7166 -1.8988
v 6.7476 4.9085 -1.2645
v 9.3478 4.7863 -2.2800
v 11.6938 5.4520 -2.3742
v 14.1743 4.9977 -1.8367
v 15.7945 4.0273 -2.6434
v -17.3964 7.2924 -1.8896
v -16.8228 6.3160 -2.8075
v -12.1527 8.5002 -0.6497
v -10.8062 8.0431 -0.7916
v -9.3228 8.0620 -0.7476
v -2.8019 8.3121 -2.2592
v -1.2750 8.3121 -2.2592
v 1.8444 8.3017 -1.7626
v 3.6437 7.0517 -1.7626
v 7.6169 6.9479 -0.8139
v 8.9981 7.6716 -1.1122
v 11.8381 7.6168 -1.2418
v 13.2433 6.8567 -1.0299
v -17.6743 10.0070 -1.7626
v -12.8032 9.9448 -1.5949
v -10.8062 9.2673 -2.0416
v -8.2023 10.1024 -1.8265
v -6.9267 11.0804 -1.2387
v -2.9328 10.0070 -2.1442
v -0.7120 9.6331 -1.6004
v 0.5944 8.8211 -1.7626
v 9.7010 9.3022 -0.9126
v 11.1011 9.3022 -0.9126
v -17.3162 11.7193 -1.7626
v -15.8062 12.1900 -1.7626
v -14.1676 11.7277 -1.7626
v -7.0818 11.2733 -2.9054
v -5.9785 11.9401 -1.9483
v -3.3101 12.1047 -1.7700
v -1.8156 11.5477 -0.9416
v -2.3077 -13.9066 0.7374
v -1.5720 -13.9066 0.7374
v 2.3928 -14.0194 1.7259
v 3.3833 -14.0194 1.7259
v -9.8013 -11.3577 1.8409
v -8.3062 -11.5117 1.6474
v -6.7390 -11.4865 1.6805
v -2.9723 -12.4930 0.7374
v -0.3220 -13.2101 0.7374
v 1.5696 -12.5544 0.9987
v 3.3156 -12.4930 1.7544
v -15.2601 -9.0374 1.8495
v -13.3062 -9.2757 1.7027
v -10.5131 -9.7855 0.9600
v -8.5161 -9.7445 0.2282
v -6.3750 -9.9930 1.1483
v -2.6664 -9.8870 0.5488
v -1.8721 -8.9829 1.2565
v 2.4131 -10.8348 0.2715
v 3.9775 -10.2629 0.9579
v 6.6938 -9.9922 0.7374
v 9.2339 -9.6155 0.8130
v 10.6580 -8.9729 1.6968
v -15.2601 -8.5276 1.8495
v -13.3062 -8.2903 1.7027
v -10.9900 -7.5101 0.8424
v -7.8227 -8.6776 -0.4912
v -5.5423 -7.5770 0.3888
v -3.3591 -7.5051 0.4293
v -1.8721 -8.5338 1.2565
v 2.4230 -6.5100 1.7535
v 3.2654 -6.5100 1.7535
v 9.6895 -7.4685 0.8130
v 10.6580 -8.2855 1.6968
v -10.3187 -4.8654 0.6131
v -9.4374 -3.9471 -0.3031
v -4.6194 -6.2190 -0.3978
v -4.5310 -6.2190 -0.3978
v 2.4230 -5.8097 1.7535
v 3.2654 -5.8097 1.7535
v 9.5723 -4.7510 0.4956
v 11.6938 -4.1062 -0.0907
v 14.1938 -4.4444 0.2366
v 15.7514 -4.2072 -0.0625
v -12.1915 -1.3647 0.7374
v -10.5639 -2.0345 1.0205
v -8.6039 -2.0183 0.3955
v -6.8325 -1.3323 0.7374
v 9.8988 -3.4403 1.1677
v 11.6938 -3.0596 1.1593
v 14.1281 -2.3329 0.8202
v 15.7514 -3.1980 -0.0625
v -13.0268 0.0070 0.7374
v -10.0270 -1.1721 1.6997
v -8.1037 -0.9751 0.8147
v -5.9380 -0.0783 0.2562
v -4.4877 1.0990 -0.3853
v 5.3503 0.9757 1.9205
v 5.6351 0.9757 1.9205
v 13.9035 0.0070 0.7374
v -15.2574 2.8537 0.7374
v -14.1415 1.6037 0.7374
v -4.7453 1.3711 -0.3853
v -3.3247 2.5215 0.7305
v -1.9450 3.6718 1.8464
v 5.3503 1.3337 1.9205
v 5.6351 1.3337 1.9205
v 13.9038 2.5070 0.7374
v -17.1457 5.9994 -0.2322
v -16.2529 5.1024 0.6556
v -12.5465 6.1042 1.6559
v -10.8062 5.9539 1.1748
v -9.1841 6.0056 1.2353
v -2.1617 4.1291 1.8464
v -1.9450 4.1291 1.8464
v 2.7119 6.0655 1.7569
v 4.1801 5.6458 0.8491
v 6.0967 5.6366 0.7374
v 12.5207 5.8470 1.7087
v 13.5450 5.0110 0.8202
v -17.2062 7.5070 -0.0738
v -16.2204 7.5070 1.1762
v -12.8167 7.6029 0.7885
v -10.8062 6.7931 -0.0752
v -8.4201 7.4175 0.6309
v -6.8381 8.4397 1.6932
v 0.0783 8.5341 1.3961
v 1.6497 7.6391 0.7432
v 3.3377 6.7441 0.0903
v 7.3467 7.2505 0.7374
v 8.1483 8.5005 0.7374
v 12.3409 7.6168 0.8202
v 13.2433 6.8567 0.0421
v -17.2064 10.0070 -0.1646
v -15.7518 9.9415 1.0821
v -13.8122 9.9415 0.8037
v -7.6561 9.4137 0.0265
v -6.5168 10.1510 0.8109
v -2.0745 11.2331 1.9709
v -0.8687 10.0290 0.8502
v 0.5875 8.8249 -0.2706
v 9.3983 9.4384 0.7374
v 11.2574 9.4384 0.7374
v -17.1459 11.4070 -0.3533
v -15.8062 11.6376 0.0023
v -14.2056 11.6146 0.0145
v -5.2956 12.0245 0.7374
v -3.0672 12.0454 0.9775
v -1.8156 11.5477 0.3042
v -2.1884 -13.8309 2.1430
v -0.8028 -13.9282 3.0334
v 1.6132 -14.2335 3.1493
v 3.7401 -14.1442 3.2374
v -17.2819 -11.2646 4.2103
v -16.9514 -11.2646 4.2103
v -12.3419 -11.3284 4.2950
v -10.7033 -11.5484 3.3719
v -8.2591 -11.6433 3.2509
v -6.7390 -11.4865 2.4265
v -2.4779 -12.4930 2.4752
v -0.7070 -12.9224 3.0960
v 0.7261 -13.4949 2.2572
v 4.6146 -12.6508 3.2036
v 6.6938 -11.8739 3.6913
v 9.1938 -11.5550 3.7857
v 10.7428 -11.4974 4.1403
v -19.8867 -9.4622 3.8559
v -18.1916 -10.1745 3.4636
v -16.1057 -10.0650 3.1166
v -13.2276 -10.5789 3.3719
v -11.4679 -10.8255 2.6283
v -7.3521 -9.9930 4.1785
v -5.9394 -9.8080 3.3900
v -3.2884 -10.1054 3.2438
v -1.2480 -9.8870 3.2843
v 4.6667 -10.5021 2.3478
v 6.6938 -10.6308 2.4413
v 9.1938 -10.7339 2.5357
v 11.1358 -9.8809 3.2791
v -19.8867 -8.3089 3.8559
v -18.3062 -7.9433 3.4154
v -15.9785 -7.8160 3.0087
v -13.3062 -7.2147 3.2374
v -11.5819 -6.6494 3.2374
v -7.1127 -8.6962 4.4697
v -5.9119 -8.4196 3.4042
v -3.2768 -8.0113 3.1982
v -1.5269 -8.2783 3.2374
v 2.4230 -6.5100 2.4807
v 3.2654 -6.5100 2.4807
v 10.0853 -6.5355 3.2374
v 11.5422 -7.3100 3.6939
v 13.4193 -6.6761 4.3027
v -12.2698 -4.2370 4.1621
v -11.5066 -5.0394 3.2922
v 2.4230 -5.8097 2.4807
v 3.2654 -5.8097 2.4807
v 9.8300 -5.0513 3.4664
v 11.3420 -5.0082 4.3776
v 13.4193 -5.7595 4.3027
v -14.5955 -1.3482 4.3402
v -13.0273 -2.1670 3.4178
v -10.8998 -2.1406 2.2736
v -8.2780 -1.6557 3.0260
v -6.5417 -1.7195 3.2374
v 10.1078 -2.7107 3.5692
v 11.1957 -2.5974 3.3789
v 13.0456 -1.4679 2.0707
v -14.5955 -1.1773 4.3402
v -13.4354 -0.2036 3.3991
v -10.0270 -1.1721 2.0518
v -8.2780 -0.8703 3.0260
v -6.5417 -0.8303 3.2374
v 2.4773 1.1220 4.4137
v 4.1883 1.0488 3.2527
v 5.6351 0.9757 2.0917
v 10.3168 -0.9055 4.3526
v 11.6938 -0.5311 3.8238
v 13.3128 0.1240 3.0374
v -14.9095 3.3548 3.2374
v -13.7338 2.1048 3.2374
v -7.2596 3.6907 4.1741
v -6.6950 3.6907 4.1741
v -2.1617 3.6718 2.1076
v -1.9450 3.6718 2.1076
v 2.4773 1.3263 4.4137
v 4.1883 1.3300 3.2527
v 5.6351 1.3337 2.0917
v 13.5689 2.5070 3.2374
v -15.1950 5.0070 3.2374
v -12.5465 6.1042 2.4518
v -10.9815 5.6535 3.2660
v -8.2219 4.9971 3.4123
v -6.6897 5.0070 4.1248
v -2.1617 4.1291 2.1076
v -1.9450 4.1291 2.1076
v 2.7558 6.1050 3.2374
v 3.9500 5.9875 3.1430
v 6.7963 5.9264 3.2469
v 9.1938 5.4230 3.8105
v 11.6899 5.1371 3.0900
v 13.1839 4.1300 3.2374
v -14.9802 7.3310 3.1064
v -13.4751 7.1918 3.1521
v -11.9317 6.3365 4.1184
v -7.5174 6.7731 2.6505
v -6.5325 7.5666 3.3852
v 0.0783 8.5341 2.2594
v 1.9851 7.4002 3.0491
v 3.9500 7.2626 3.5668
v 6.6783 7.2429 3.2905
v 9.0531 7.6372 2.6267
v 11.0722 7.5070 2.3418
v -14.8822 9.0644 2.1857
v -14.4036 9.0644 2.1857
v -5.7220 10.0070 3.2374
v -2.0745 11.2331 1.9962
v -0.7755 10.2427 2.2630
v 1.6938 10.0070 2.7919
v 4.1938 10.0070 3.4353
v 5.5950 10.0070 4.2187
v 9.7926 9.1204 2.2888
v 10.8713 9.1204 2.2888
v -5.0312 11.8867 3.2374
v -3.0433 12.5101 3.1374
v -0.8062 12.5070 2.8665
v 1.9411 12.7526 3.5730
v 4.1938 11.9087 4.1555
v 5.4698 11.3000 4.4408
v -2.3454 13.9677 4.2786
v -0.5937 14.8834 4.0596
v 1.2644 15.0070 4.1092
v 0.3812 16.2951 4.4563
v 0.7090 16.2951 4.4563
v -4.9424 -14.0787 6.6112
v -3.8842 -14.0787 6.6112
v 0.1063 -14.0255 4.8253
v 1.6938 -14.1488 5.0309
v 3.5660 -14.0015 4.8741
v -17.2819 -11.2646 4.5228
v -16.9514 -11.2646 4.5228
v -12.3419 -11.3284 5.0051
v -10.8062 -11.5388 5.2405
v -9.0610 -11.5519 4.9738
v -5.3732 -12.4930 6.0871
v -3.4969 -12.4930 6.0871
v 0.0466 -12.4930 4.8497
v 1.8941 -12.3043 6.0093
v 4.3171 -13.1162 5.7194
v 6.6938 -12.8809 5.7374
v 9.1938 -12.1800 5.7374
v 10.8600 -11.5568 5.7374
v -19.8355 -9.3350 5.7374
v -18.3353 -9.9710 5.6761
v -15.9933 -10.1528 5.2881
v -13.2876 -10.2859 5.8915
v -10.7150 -10.1848 6.3571
v -8.6021 -9.9930 5.1863
v -5.8899 -10.2340 5.4929
v -3.4197 -10.2340 5.4929
v 0.0660 -9.9930 4.9049
v 1.8941 -10.0872 6.2046
v 3.0823 -9.3167 6.7928
v 11.8777 -9.9930 5.7374
v -19.8355 -8.3745 5.7374
v -18.4558 -8.0689 5.8926
v -15.8062 -7.7458 5.4617
v -13.3625 -7.6696 5.8617
v -10.8712 -7.3639 5.7572
v -8.0789 -7.7472 5.7572
v -6.9461 -8.4993 5.7374
v -2.4409 -8.1371 5.7374
v -0.7433 -8.1524 5.7343
v 1.6938 -8.5221 6.5251
v 3.0823 -8.6248 6.7928
v 10.3993 -6.2572 4.5136
v 11.7576 -7.4612 5.2129
v 14.2291 -7.1590 5.6683
v 15.6456 -6.6080 6.4555
v -12.2698 -4.2370 4.7106
v -10.9442 -5.0065 5.6461
v -9.0451 -5.7761 6.5816
v 10.3993 -5.9235 4.5136
v 11.3420 -5.0082 4.6052
v 14.3530 -4.8653 5.5762
v 15.6456 -5.6378 6.4555
v -14.5955 -1.3482 4.5480
v -13.0927 -2.2834 5.4626
v -11.6335 -3.2185 6.3773
v -7.4259 -1.7647 5.2011
v -6.6474 -1.7647 5.2011
v 10.3168 -1.9810 4.9234
v 11.3821 -2.7033 5.6434
v 13.6201 -3.4257 6.3635
v -14.5955 -1.1773 4.5480
v -13.3562 -0.2036 5.5237
v -7.4259 -1.0422 5.2011
v -6.6474 -1.0422 5.2011
v -2.1918 1.1860 6.8593
v -0.8062 1.0818 6.5269
v 1.5325 1.1082 5.5609
v 3.0263 1.1220 4.6204
v 10.2363 0.0735 5.8854
v 11.2104 0.1476 5.7788
v 13.2723 1.0353 4.7047
v -14.8275 3.5059 5.7374
v -13.5367 2.2559 5.7374
v -7.2596 3.6907 4.7709
v -6.6950 3.6907 4.7709
v -2.1918 1.3263 6.8593
v -0.8062 1.3486 6.5269
v 1.5325 1.3180 5.5609
v 3.0263 1.3263 4.6204
v 9.6715 2.5070 6.3504
v 11.6938 2.5070 5.3189
v 13.2746 2.5070 4.7058
v -17.3418 5.9013 6.5569
v -15.8659 5.0436 5.7291
v -12.0911 6.2163 6.8089
v -10.9815 5.4019 5.8803
v -8.1783 4.1200 5.6575
v -6.5894 4.9506 5.6575
v 2.8403 6.1080 5.7374
v 3.1382 6.1080 5.7374
v 7.7847 5.8422 5.0516
v 8.8487 4.8677 5.6648
v 11.6938 3.9146 4.6359
v 13.0564 3.8309 4.5614
v -17.5795 7.5070 6.2049
v -15.4712 7.5648 5.6324
v -13.0771 6.8741 5.8803
v -11.9317 6.3365 5.1422
v -5.4897 7.4888 5.6550
v -3.3062 8.3659 6.5515
v -1.9107 8.6827 6.9602
v 2.8403 6.5975 5.7374
v 3.8428 7.3127 6.0606
v 6.7020 7.2873 5.7716
v 7.9954 6.3083 6.7183
v -17.4684 9.1495 6.3746
v -16.2318 9.1495 6.3746
v -5.0492 10.0070 5.0061
v -3.1990 9.8363 6.3860
v -1.9107 8.8891 6.9602
v 4.9080 10.0070 6.3738
v 5.5950 10.0070 5.1238
v -4.9075 11.7239 4.8996
v -3.5110 12.5371 5.7347
v 2.9394 13.7496 4.4991
v 4.2820 12.5248 5.5821
v 5.4698 11.3000 4.9984
v -2.4463 14.2630 5.7374
v -1.2658 15.5130 5.7374
v 2.5144 15.0070 4.7253
v 3.2211 15.0070 5.9753
v -0.0158 16.5553 5.7374
v 1.6029 16.5608 5.6707
v 3.0843 16.3655 6.4596
v -4.9424 -14.0787 7.7065
v -3.8842 -14.0787 7.7065
v -5.3790 -12.6335 8.4189
v -3.4654 -12.6335 8.4189
v 2.8611 -11.3453 7.0362
v 4.1938 -11.8247 7.3695
v 6.6938 -12.2500 7.6701
v 9.1938 -11.8680 7.6716
v 10.6998 -11.4070 7.4501
v -19.5981 -8.8132 7.0195
v -19.3888 -8.8132 7.0195
v -12.5667 -9.4793 7.3065
v -11.4874 -9.4793 7.3065
v -5.5777 -9.9590 8.3954
v -3.1165 -9.6633 8.6146
v -0.8062 -9.1703 8.8374
v 1.7444 -9.9343 8.0822
v 4.0269 -10.0872 7.7491
v 6.4889 -10.0902 8.9896
v 9.1938 -10.8114 8.9216
v 11.1785 -10.0505 8.2650
v -19.5981 -8.6858 7.0195
v -19.3888 -8.6858 7.0195
v -12.5667 -8.3882 7.3065
v -11.4874 -8.3882 7.3065
v -7.5411 -6.8604 8.2374
v -5.9867 -8.0302 8.3954
v -3.2096 -8.3719 8.3236
v -0.8062 -8.3125 7.5874
v 1.5541 -8.2348 8.2719
v 4.0269 -8.2895 8.4434
v 5.5189 -8.6578 9.4141
v 12.2696 -7.6801 8.2143
v 14.1938 -7.0632 7.4762
v 15.6456 -6.6080 7.2610
v -10.1638 -4.3613 8.2374
v -8.7911 -5.6113 8.2374
v 10.3563 -3.7924 9.4292
v 11.6885 -4.7726 8.9187
v 14.3496 -4.8799 7.6178
v 15.6456 -5.6378 7.2610
v -12.4737 -1.7202 8.2374
v -11.4138 -2.9702 8.2374
v 2.8112 -1.3027 9.4505
v 3.0450 -1.3027 9.4505
v 10.2297 -2.4930 9.0252
v 11.5170 -2.5526 7.8570
v 13.6201 -3.4257 7.3863
v -12.7679 0.0070 8.2374
v -2.1918 1.1860 7.0903
v -0.8062 1.0818 7.1421
v 1.6995 -0.0496 8.2706
v 3.0450 -1.1935 9.4505
v 9.7336 0.1343 8.1525
v 10.5658 -0.6142 7.2626
v -14.8758 3.4749 7.3121
v -13.0857 2.5911 8.2657
v -10.8062 3.3110 8.8642
v -9.0287 3.5454 8.9245
v -2.1918 1.3263 7.0903
v -0.8062 1.3486 7.1421
v 0.5877 1.3098 7.0907
v 7.3018 3.0178 8.7633
v 8.4073 2.3135 8.0529
v -17.4238 5.7850 8.2374
v -15.7479 4.8406 8.1822
v -13.3009 5.3710 8.2657
v -10.8062 4.3894 7.6142
v -8.2397 4.0474 8.1497
v -6.4522 5.3320 8.2374
v 2.8246 6.0696 7.1144
v 3.1927 6.0696 7.1144
v 6.9264 5.0070 8.3720
v 8.0511 5.0070 7.1220
v -17.5976 7.4731 8.2953
v -15.5616 8.0104 8.2953
v -13.9233 6.9287 8.2374
v -5.2022 6.7536 8.2374
v -3.2672 8.1097 8.0234
v -1.9107 8.6827 7.0474
v 2.8246 6.7017 7.1144
v 4.0590 7.4428 7.7561
v 6.5150 6.6811 8.0295
v 7.9954 6.3083 7.0576
v -17.4684 9.1495 7.5005
v -16.2318 9.1495 7.5005
v -2.5292 9.8363 8.0234
v -1.9107 8.8891 7.0474
v 2.7534 10.9693 9.2002
v 3.8241 10.0844 8.3151
v -2.5607 12.5070 8.2374
v 2.7150 12.5070 9.0949
v 3.7010 12.5070 7.8449
v -2.2331 14.1101 8.2374
v -0.8864 15.3340 8.2506
v 1.8750 15.0516 8.6852
v 3.2211 15.0070 7.5306
v -0.1064 16.6167 7.4261
v 1.6938 16.6082 7.4117
v 3.0843 16.3655 7.1144
v -4.8382 -11.8939 9.6655
v -4.1507 -11.8939 9.6655
v -4.8382 -10.7696 9.6655
v -3.3508 -9.9701 9.7610
v -0.8062 -9.1703 9.8870
v 1.7521 -8.8344 10.7808
v 3.3839 -8.7837 11.9104
v 7.1856 -9.3217 10.0617
v 9.1938 -9.5614 10.1358
v 10.6955 -9.2555 9.7775
v -7.3805 -6.5110 10.1587
v -5.9054 -6.7819 10.8901
v -3.3531 -7.8353 10.7088
v -0.8335 -7.4571 11.0809
v 1.7081 -7.7920 10.7916
v 4.2079 -8.3249 10.9412
v 6.6447 -7.8374 10.8730
v 9.4176 -7.2537 11.3242
v 10.8453 -7.2537 10.6615
v -9.9558 -4.2010 9.8557
v -8.1488 -5.1190 10.8405
v -6.8048 -6.0371 11.8253
v -0.0183 -5.7027 11.6105
v 0.7772 -5.7027 11.6105
v 5.2643 -3.8443 11.7538
v 6.7376 -4.8505 11.7190
v 9.4091 -5.0213 11.1432
v 10.7569 -5.6447 10.7374
v -12.5255 -1.6179 10.7374
v -10.7960 -2.6414 10.7084
v -8.9172 -3.0738 11.5224
v 2.8112 -1.3027 9.5625
v 4.1546 -2.1108 10.6582
v 5.7047 -2.9190 11.7538
v 9.3984 -2.4930 10.7374
v -12.9708 0.0070 10.7374
v 2.8112 -1.1935 9.5625
v 3.9943 -0.3791 10.6078
v 6.6938 0.3769 11.2679
v 8.6112 0.0459 10.6124
v -12.5015 2.0945 10.7374
v -10.8062 3.0460 10.7374
v -8.2397 3.2654 10.5643
v -6.5643 3.3356 11.2822
v 4.9436 1.3409 11.6530
v 6.6562 2.1794 10.6744
v 8.0794 1.3511 9.6958
v -17.2608 5.9834 9.6779
v -15.8062 6.0033 9.6569
v -14.5108 6.1923 9.5229
v -7.3621 3.8677 9.6155
v -6.2622 4.8234 10.5643
v 6.2754 5.0070 10.7374
v -17.2608 6.6172 9.6779
v -15.8062 6.5796 9.6569
v -14.5108 6.3269 9.5229
v -5.1827 6.9407 10.7374
v -3.8827 8.1907 10.7374
v 5.0393 8.0487 10.7374
v 5.7067 6.7987 10.7374
v -2.6367 9.9634 10.6991
v -1.7589 10.7676 11.5070
v 2.7612 10.9991 10.7374
v 3.7893 9.7491 10.7374
v -2.2091 12.5070 9.7645
v -1.4480 12.5070 11.0145
v 2.5367 12.5070 10.7374
v -2.0612 13.7638 9.5040
v -0.7481 14.1692 10.4973
v 1.4693 14.2672 10.7374
v 2.8765 -8.7837 12.0835
v 3.3839 -8.7837 12.0835
v -5.1382 -6.3844 12.1533
v -3.3062 -6.6167 12.2505
v -1.6850 -6.5999 12.1723
v 2.5184 -7.4930 12.5050
v 4.2844 -7.5325 13.1658
v 6.0475 -6.9272 13.2374
v 10.4002 -6.2608 11.9943
v 10.4533 -6.2608 11.9943
v -7.2505 -4.3704 12.5684
v -5.9054 -5.1194 12.7758
v -3.3062 -4.9930 12.8010
v -0.7280 -4.8775 12.9966
v 1.6438 -5.3715 13.3438
v 4.3345 -4.9696 13.6705
v 6.6149 -4.9703 12.7778
v 9.2804 -5.2096 12.0797
v 10.4533 -6.2292 11.9943
v -12.3180 -1.4155 12.1454
v -10.8062 -1.4955 12.2159
v -8.0817 -2.4583 13.1846
v -5.8062 -3.2413 14.0984
v -3.3062 -2.9310 13.7878
v -1.4376 -3.0957 13.8209
v 4.5699 -2.2486 12.9895
v 6.6003 -2.2486 12.2667
v 8.3625 -2.4930 12.3338
v -12.4579 0.0070 12.2701
v -10.8062 0.0070 12.5391
v -8.6196 0.0070 13.5063
v 2.6443 0.6185 14.1178
v 3.9635 -0.3065 13.0544
v 6.6938 -0.8731 12.2032
v 8.2851 -0.7614 12.2715
v -12.3300 1.9233 12.2063
v -10.8062 2.2420 12.3105
v -8.1929 2.0285 13.1145
v -5.7611 3.0019 13.2696
v -3.3062 3.4024 14.1180
v -1.9148 3.5148 14.3577
v 2.6443 1.2980 14.1178
v 4.1437 1.5534 13.2656
v 6.7839 2.9758 13.3829
v 8.0028 3.6687 14.3132
v -5.2007 5.0070 12.8595
v -3.3062 5.0070 13.7889
v -0.9714 5.1762 13.8520
v 0.6256 6.1224 13.8559
v 7.2636 4.8608 13.3829
v 8.0028 3.9300 14.3132
v -5.0741 6.8927 12.6797
v -3.3064 7.6384 12.9236
v -0.8062 7.5070 12.9342
v 1.5529 7.4818 13.4939
v 4.3113 8.0598 13.2573
v 6.0435 6.9795 13.2374
v -2.4733 9.1009 12.3199
v -0.8778 9.9634 12.5525
v 1.9119 10.2233 12.6229
v 3.5564 9.5342 12.4372
v -0.1980 12.5070 12.4136
v 1.5155 12.5070 12.4136
v 0.1240 13.9462 12.1388
v 1.0924 13.9462 12.1388
v 5.1849 -6.3812 14.5503
v 5.5886 -6.3812 14.5503
v 0.2290 -4.0522 14.6894
v 1.6938 -4.3089 14.7785
v 4.2394 -5.1234 14.6119
v 5.5886 -6.0585 14.5503
v -7.2463 -1.8428 14.7037
v -5.8062 -1.9913 14.8258
v -3.3062 -1.6810 14.8122
v -0.6851 -2.3546 14.7585
v 1.6938 -2.4930 14.8243
v 3.2361 -2.4930 14.6339
v -7.3696 0.0070 14.8677
v -5.8062 0.0070 15.3194
v -3.3062 0.0070 15.2765
v -0.8062 0.0070 14.9162
v 1.7641 -0.1261 14.5660
v 2.9834 -1.0482 14.4966
v -7.2840 1.4839 14.7782
v -5.8062 1.8792 14.9809
v -3.3062 2.1524 14.9517
v -0.9714 2.6117 14.9305
v 1.7641 2.2816 15.1547
v 4.1938 2.8146 15.2597
v 6.6938 3.3426 14.8567
v 8.0028 3.6687 14.5754
v -0.2481 4.4557 14.9040
v 1.5529 5.1762 15.3386
v 4.1938 5.0070 15.9304
v 6.7844 4.8608 15.0934
v 8.0028 3.9300 14.5754
v 2.2923 6.6317 14.8641
v 4.1938 6.9534 15.1581
v 6.0115 6.8108 15.0050
f 3 2 1
f 3 4 2
f 6 4 3
f 6 7 4
f 7 5 4
f 7 8 5
f 9 8 7
f 9 10 8
f 15 11 14
f 15 12 11
f 2 17 1
f 2 18 17
f 18 13 17
f 18 14 13
f 19 14 18
f 19 15 14
f 21 1 17
f 21 3 1
f 21 16 20
f 21 17 16
f 22 18 2
f 22 2 4
f 5 22 4
f 5 23 22
f 21 6 3
f 21 24 6
f 25 7 6
f 25 6 24
f 23 5 8
f 23 8 26
f 25 9 7
f 25 29 9
f 28 25 24
f 28 29 25
f 26 8 10
f 26 10 30
f 10 9 29
f 10 29 30
f 30 27 26
f 30 31 27
f 12 32 11
f 12 33 32
f 36 11 32
f 36 14 11
f 36 13 14
f 36 35 13
f 33 12 15
f 33 15 37
f 36 32 33
f 36 33 37
f 39 13 35
f 39 17 13
f 39 16 17
f 39 38 16
f 39 34 38
f 39 35 34
f 37 15 19
f 37 19 41
f 19 18 40
f 19 40 41
f 42 16 38
f 42 20 16
f 21 20 42
f 21 42 43
f 42 38 39
f 42 39 43
f 40 18 22
f 40 22 44
f 43 39 40
f 43 40 44
f 45 22 23
f 45 44 22
f 46 21 43
f 46 24 21
f 45 23 26
f 45 26 48
f 47 44 45
f 47 45 48
f 27 48 26
f 27 49 48
f 50 24 46
f 50 28 24
f 51 29 28
f 51 28 50
f 50 46 47
f 50 47 51
f 30 29 51
f 30 51 52
f 51 47 48
f 51 48 52
f 49 27 31
f 49 31 53
f 31 30 52
f 31 52 53
f 52 48 49
f 52 49 53
f 59 54 58
f 59 55 54
f 62 56 61
f 62 57 56
f 63 34 35
f 63 62 34
f 63 57 62
f 63 58 57
f 36 63 35
f 36 64 63
f 63 59 58
f 63 64 59
f 37 64 36
f 37 65 64
f 67 60 66
f 67 61 60
f 68 34 62
f 68 38 34
f 67 62 61
f 67 68 62
f 39 38 68
f 39 68 69
f 40 39 69
f 40 69 70
f 65 37 41
f 65 41 71
f 41 40 70
f 41 70 71
f 73 43 44
f 73 72 43
f 74 43 72
f 74 46 43
f 73 44 47
f 73 47 75
f 47 46 74
f 47 74 75
f 74 72 73
f 74 73 75
f 80 54 55
f 80 79 54
f 80 76 79
f 80 77 76
f 57 81 56
f 57 82 81
f 83 54 79
f 83 58 54
f 83 57 58
f 83 82 57
f 83 78 82
f 83 79 78
f 84 80 55
f 84 55 59
f 87 56 81
f 87 61 56
f 87 60 61
f 87 86 60
f 88 87 81
f 88 81 82
f 89 88 82
f 89 82 83
f 90 84 59
f 90 59 64
f 65 90 64
f 65 91 90
f 90 85 84
f 90 91 85
f 86 66 60
f 86 93 66
f 94 67 66
f 94 66 93
f 94 93 86
f 94 86 87
f 95 68 67
f 95 67 94
f 94 87 88
f 94 88 95
f 69 68 95
f 69 95 96
f 95 88 89
f 95 89 96
f 97 70 69
f 97 69 96
f 98 91 65
f 98 65 71
f 98 71 70
f 98 70 97
f 98 92 91
f 98 99 92
f 100 98 97
f 100 101 98
f 101 99 98
f 101 102 99
f 104 102 101
f 104 105 102
f 105 103 102
f 105 106 103
f 77 107 76
f 77 108 107
f 110 76 107
f 110 79 76
f 79 109 78
f 79 110 109
f 108 77 80
f 108 80 111
f 111 110 107
f 111 107 108
f 112 78 109
f 112 82 78
f 83 82 112
f 83 112 113
f 113 112 109
f 113 109 110
f 111 80 84
f 111 84 114
f 85 114 84
f 85 115 114
f 113 89 83
f 113 119 89
f 119 112 118
f 119 113 112
f 121 115 85
f 121 85 91
f 120 114 115
f 120 115 121
f 122 91 92
f 122 121 91
f 123 117 116
f 123 124 117
f 128 89 119
f 128 96 89
f 127 119 118
f 127 128 119
f 129 97 96
f 129 96 128
f 122 92 99
f 122 99 131
f 130 121 122
f 130 122 131
f 133 124 123
f 133 134 124
f 135 126 125
f 135 136 126
f 137 97 129
f 137 100 97
f 138 101 100
f 138 100 137
f 138 137 129
f 138 129 130
f 139 131 99
f 139 99 102
f 103 139 102
f 103 140 139
f 139 132 131
f 139 140 132
f 138 104 101
f 138 141 104
f 142 105 104
f 142 104 141
f 143 140 103
f 143 103 106
f 106 105 142
f 106 142 143
f 147 145 144
f 147 148 145
f 148 146 145
f 148 149 146
f 152 151 150
f 152 153 151
f 156 110 111
f 156 155 110
f 157 153 152
f 157 158 153
f 158 154 153
f 158 159 154
f 160 110 155
f 160 113 110
f 113 159 112
f 113 160 159
f 160 154 159
f 160 155 154
f 156 111 114
f 156 114 161
f 160 155 156
f 160 156 161
f 165 116 117
f 165 164 116
f 166 158 157
f 166 167 158
f 159 118 112
f 159 168 118
f 161 114 120
f 161 120 170
f 171 120 121
f 171 170 120
f 172 162 171
f 172 163 162
f 164 123 116
f 164 173 123
f 165 117 124
f 165 124 174
f 126 176 125
f 126 177 176
f 176 167 166
f 176 177 167
f 168 127 118
f 168 178 127
f 177 168 167
f 177 178 168
f 179 128 127
f 179 127 178
f 129 128 179
f 129 179 180
f 180 179 169
f 180 169 170
f 181 171 121
f 181 121 130
f 181 130 129
f 181 129 180
f 182 130 131
f 182 181 130
f 181 172 171
f 181 182 172
f 132 182 131
f 132 183 182
f 173 133 123
f 173 184 133
f 174 124 134
f 174 134 185
f 185 134 133
f 185 133 184
f 185 175 174
f 185 186 175
f 187 125 176
f 187 135 125
f 188 177 126
f 188 126 136
f 136 135 187
f 136 187 188
f 189 179 178
f 189 190 179
f 181 138 130
f 181 192 138
f 192 180 191
f 192 181 180
f 193 183 132
f 193 132 140
f 196 184 195
f 196 185 184
f 196 186 185
f 196 197 186
f 199 187 198
f 199 188 187
f 192 141 138
f 192 200 141
f 201 142 141
f 201 141 200
f 193 140 143
f 193 143 202
f 143 142 201
f 143 201 202
f 204 144 145
f 204 203 144
f 204 194 203
f 204 195 194
f 146 204 145
f 146 205 204
f 206 196 205
f 206 197 196
f 207 144 203
f 207 147 144
f 208 148 147
f 208 147 207
f 209 205 146
f 209 146 149
f 209 149 148
f 209 148 208
f 151 210 150
f 151 211 210
f 217 150 210
f 217 152 150
f 218 211 151
f 218 151 153
f 154 218 153
f 154 219 218
f 218 212 211
f 218 219 212
f 220 154 155
f 220 219 154
f 220 214 213
f 220 221 214
f 223 216 215
f 223 224 216
f 217 157 152
f 217 227 157
f 229 159 158
f 229 158 228
f 230 220 155
f 230 155 160
f 161 230 160
f 161 231 230
f 230 221 220
f 230 231 221
f 231 222 221
f 231 232 222
f 233 162 163
f 233 232 162
f 165 234 164
f 165 235 234
f 237 225 236
f 237 226 225
f 238 157 227
f 238 166 157
f 238 226 237
f 238 227 226
f 228 158 167
f 228 167 239
f 229 168 159
f 229 240 168
f 168 239 167
f 168 240 239
f 239 229 228
f 239 240 229
f 231 161 170
f 231 170 242
f 242 170 169
f 242 169 241
f 243 162 232
f 243 171 162
f 243 170 171
f 243 242 170
f 233 163 172
f 233 172 244
f 243 232 233
f 243 233 244
f 234 173 164
f 234 248 173
f 235 165 174
f 235 174 249
f 249 248 234
f 249 234 235
f 175 249 174
f 175 250 249
f 250 235 249
f 250 236 235
f 251 236 250
f 251 237 236
f 238 176 166
f 238 252 176
f 252 237 251
f 252 238 237
f 178 177 253
f 178 253 254
f 255 241 169
f 255 169 179
f 254 240 241
f 254 241 255
f 256 170 242
f 256 180 170
f 256 241 255
f 256 242 241
f 257 244 172
f 257 172 182
f 183 257 182
f 183 258 257
f 257 245 244
f 257 258 245
f 259 247 246
f 259 260 247
f 248 184 173
f 248 261 184
f 261 247 260
f 261 248 247
f 262 261 248
f 262 248 249
f 263 250 175
f 263 175 186
f 262 249 250
f 262 250 263
f 263 251 250
f 263 264 251
f 265 176 252
f 265 187 176
f 253 177 188
f 253 188 266
f 267 178 254
f 267 189 178
f 255 179 190
f 255 190 268
f 190 189 267
f 190 267 268
f 267 254 255
f 267 255 268
f 256 191 180
f 256 269 191
f 268 256 255
f 268 269 256
f 270 192 191
f 270 191 269
f 271 258 183
f 271 183 193
f 273 259 272
f 273 260 259
f 274 184 261
f 274 195 184
f 274 194 195
f 274 273 194
f 274 260 273
f 274 261 260
f 275 196 195
f 275 195 274
f 276 263 186
f 276 186 197
f 276 264 263
f 276 277 264
f 265 198 187
f 265 278 198
f 277 265 264
f 277 278 265
f 266 188 199
f 266 199 279
f 279 199 198
f 279 198 278
f 280 269 268
f 280 281 269
f 270 200 192
f 270 282 200
f 281 270 269
f 281 282 270
f 283 201 200
f 283 200 282
f 284 271 193
f 284 193 202
f 284 202 201
f 284 201 283
f 286 194 273
f 286 203 194
f 286 272 285
f 286 273 272
f 274 195 204
f 274 204 287
f 275 205 196
f 275 288 205
f 205 287 204
f 205 288 287
f 287 275 274
f 287 288 275
f 276 197 206
f 276 206 289
f 206 205 288
f 206 288 289
f 290 276 289
f 290 277 276
f 291 203 286
f 291 207 203
f 292 208 207
f 292 207 291
f 293 288 205
f 293 205 209
f 293 209 208
f 293 208 292
f 293 292 287
f 293 287 288
f 211 297 210
f 211 298 297
f 212 298 211
f 212 299 298
f 301 213 214
f 301 300 213
f 303 215 216
f 303 302 215
f 302 295 294
f 302 303 295
f 303 296 295
f 303 304 296
f 297 217 210
f 297 306 217
f 307 306 297
f 307 297 298
f 308 299 212
f 308 212 219
f 309 213 300
f 309 220 213
f 309 219 220
f 309 308 219
f 308 300 299
f 308 309 300
f 310 301 214
f 310 214 221
f 222 310 221
f 222 311 310
f 312 215 302
f 312 223 215
f 303 216 224
f 303 224 313
f 224 223 312
f 224 312 313
f 314 303 313
f 314 304 303
f 315 225 226
f 315 314 225
f 314 305 304
f 314 315 305
f 316 217 306
f 316 227 217
f 316 226 227
f 316 315 226
f 316 305 315
f 316 306 305
f 318 311 222
f 318 222 232
f 232 231 317
f 232 317 318
f 323 225 314
f 323 236 225
f 323 235 236
f 323 322 235
f 323 313 322
f 323 314 313
f 325 241 240
f 325 240 324
f 326 317 231
f 326 231 242
f 243 326 242
f 243 327 326
f 326 318 317
f 326 327 318
f 244 327 243
f 244 328 327
f 327 319 318
f 327 328 319
f 329 244 245
f 329 328 244
f 247 330 246
f 247 331 330
f 332 247 248
f 332 331 247
f 332 320 331
f 332 321 320
f 333 235 322
f 333 249 235
f 333 321 332
f 333 322 321
f 334 250 249
f 334 249 333
f 336 252 251
f 336 251 335
f 324 240 254
f 324 254 338
f 254 253 337
f 254 337 338
f 325 255 241
f 325 339 255
f 339 324 338
f 339 325 324
f 340 327 328
f 340 328 341
f 342 329 245
f 342 245 258
f 341 328 329
f 341 329 342
f 330 259 246
f 330 343 259
f 344 343 330
f 344 330 331
f 345 332 248
f 345 248 261
f 262 345 261
f 262 346 345
f 345 333 332
f 345 346 333
f 347 250 334
f 347 263 250
f 347 262 263
f 347 346 262
f 346 334 333
f 346 347 334
f 335 251 264
f 335 264 348
f 336 265 252
f 336 349 265
f 349 264 265
f 349 348 264
f 348 336 335
f 348 349 336
f 337 253 266
f 337 266 350
f 351 337 350
f 351 338 337
f 339 268 255
f 339 352 268
f 354 342 258
f 354 258 271
f 355 259 343
f 355 272 259
f 278 277 356
f 278 356 357
f 350 266 279
f 350 279 358
f 279 278 357
f 279 357 358
f 352 280 268
f 352 360 280
f 281 280 360
f 281 360 361
f 360 352 353
f 360 353 361
f 362 282 281
f 362 281 361
f 283 282 362
f 283 362 363
f 364 354 271
f 364 271 284
f 284 283 363
f 284 363 364
f 355 285 272
f 355 366 285
f 367 286 285
f 367 285 366
f 288 287 368
f 288 368 369
f 289 288 369
f 289 369 370
f 356 277 290
f 356 290 371
f 290 289 370
f 290 370 371
f 372 356 371
f 372 357 356
f 373 357 372
f 373 358 357
f 374 358 373
f 374 359 358
f 376 365 375
f 376 366 365
f 367 291 286
f 367 377 291
f 376 367 366
f 376 377 367
f 368 287 292
f 368 292 378
f 378 292 291
f 378 291 377
f 379 368 378
f 379 369 368
f 379 370 369
f 379 380 370
f 381 370 380
f 381 371 370
f 382 373 372
f 382 383 373
f 384 376 375
f 384 385 376
f 386 376 385
f 386 377 376
f 387 380 379
f 387 388 380
f 388 381 380
f 388 389 381
f 392 391 390
f 392 393 391
f 295 395 294
f 295 396 395
f 397 295 296
f 397 396 295
f 398 393 392
f 398 399 393
f 399 394 393
f 399 400 394
f 401 298 299
f 401 400 298
f 402 299 300
f 402 401 299
f 301 402 300
f 301 403 402
f 404 294 395
f 404 302 294
f 397 296 304
f 397 304 406
f 405 396 397
f 405 397 406
f 305 406 304
f 305 407 406
f 408 305 306
f 408 407 305
f 408 398 407
f 408 399 398
f 409 298 400
f 409 307 298
f 307 408 306
f 307 409 408
f 409 399 408
f 409 400 399
f 403 301 310
f 403 310 410
f 411 310 311
f 411 410 310
f 404 312 302
f 404 412 312
f 413 313 312
f 413 312 412
f 415 414 406
f 415 406 407
f 411 311 318
f 411 318 417
f 416 410 411
f 416 411 417
f 319 417 318
f 319 418 417
f 421 320 321
f 421 420 320
f 413 322 313
f 413 422 322
f 422 321 322
f 422 421 321
f 425 418 319
f 425 319 328
f 328 327 424
f 328 424 425
f 426 418 425
f 426 419 418
f 427 320 420
f 427 331 320
f 428 422 423
f 428 423 429
f 339 338 431
f 339 431 432
f 424 327 340
f 424 340 433
f 341 433 340
f 341 434 433
f 433 425 424
f 433 434 425
f 435 341 342
f 435 434 341
f 427 344 331
f 427 437 344
f 344 436 343
f 344 437 436
f 438 429 430
f 438 430 439
f 431 338 351
f 431 351 441
f 351 350 440
f 351 440 441
f 432 352 339
f 432 442 352
f 442 431 441
f 442 432 431
f 443 353 352
f 443 352 442
f 435 342 354
f 435 354 445
f 444 434 435
f 444 435 445
f 436 355 343
f 436 447 355
f 448 440 350
f 448 350 358
f 359 448 358
f 359 449 448
f 448 441 440
f 448 449 441
f 449 442 441
f 449 450 442
f 443 361 353
f 443 451 361
f 450 443 442
f 450 451 443
f 362 361 451
f 362 451 452
f 363 362 452
f 363 452 453
f 454 445 354
f 454 354 364
f 454 364 363
f 454 363 453
f 454 453 444
f 454 444 445
f 456 355 447
f 456 366 355
f 456 365 366
f 456 455 365
f 456 446 455
f 456 447 446
f 372 371 460
f 372 460 461
f 463 449 359
f 463 359 374
f 374 373 462
f 374 462 463
f 464 451 450
f 464 465 451
f 465 452 451
f 465 466 452
f 467 452 466
f 467 453 452
f 468 365 455
f 468 375 365
f 378 377 469
f 378 469 470
f 470 469 457
f 470 457 458
f 379 378 470
f 379 470 471
f 470 458 459
f 470 459 471
f 460 371 381
f 460 381 473
f 461 382 372
f 461 474 382
f 473 461 460
f 473 474 461
f 462 373 383
f 462 383 475
f 475 383 382
f 475 382 474
f 477 465 476
f 477 466 465
f 468 384 375
f 468 478 384
f 385 384 478
f 385 478 479
f 469 377 386
f 469 386 480
f 386 385 479
f 386 479 480
f 481 379 471
f 481 387 379
f 388 387 481
f 388 481 482
f 481 471 472
f 481 472 482
f 473 381 389
f 473 389 483
f 389 388 482
f 389 482 483
f 484 473 483
f 484 474 473
f 391 485 390
f 391 486 485
f 492 390 485
f 492 392 390
f 493 486 391
f 493 391 393
f 394 493 393
f 394 494 493
f 495 487 494
f 495 488 487
f 499 395 396
f 499 498 395
f 499 489 498
f 499 490 489
f 500 490 499
f 500 491 490
f 501 392 492
f 501 398 392
f 503 494 394
f 503 394 400
f 401 503 400
f 401 504 503
f 503 495 494
f 503 504 495
f 505 401 402
f 505 504 401
f 403 505 402
f 403 506 505
f 509 496 508
f 509 497 496
f 510 395 498
f 510 404 395
f 510 497 509
f 510 498 497
f 511 499 396
f 511 396 405
f 406 511 405
f 406 512 511
f 511 500 499
f 511 512 500
f 513 398 501
f 513 407 398
f 514 513 501
f 514 501 502
f 517 506 403
f 517 403 410
f 517 507 506
f 517 518 507
f 510 412 404
f 510 519 412
f 520 413 412
f 520 412 519
f 512 406 414
f 512 414 521
f 513 415 407
f 513 522 415
f 415 521 414
f 415 522 521
f 522 512 521
f 522 513 512
f 523 515 516
f 523 516 524
f 517 410 416
f 517 416 525
f 526 416 417
f 526 525 416
f 418 526 417
f 418 527 526
f 419 527 418
f 419 528 527
f 421 529 420
f 421 530 529
f 520 422 413
f 520 531 422
f 531 421 422
f 531 530 421
f 530 520 519
f 530 531 520
f 423 422 531
f 423 531 532
f 533 525 526
f 533 526 534
f 534 526 527
f 534 527 535
f 528 419 426
f 528 426 536
f 536 426 425
f 536 425 535
f 536 535 527
f 536 527 528
f 537 420 529
f 537 427 420
f 531 422 428
f 531 428 539
f 538 530 531
f 538 531 539
f 540 423 532
f 540 429 423
f 540 428 429
f 540 539 428
f 541 430 429
f 541 429 540
f 544 535 425
f 544 425 434
f 546 427 537
f 546 437 427
f 546 436 437
f 546 545 436
f 547 540 429
f 547 429 438
f 541 439 430
f 541 548 439
f 439 547 438
f 439 548 547
f 547 541 540
f 547 548 541
f 550 542 543
f 550 543 551
f 544 434 444
f 544 444 552
f 554 436 545
f 554 447 436
f 447 553 446
f 447 554 553
f 558 548 549
f 558 549 559
f 562 450 449
f 562 449 561
f 564 552 444
f 564 444 453
f 565 446 553
f 565 455 446
f 566 565 553
f 566 553 554
f 568 458 457
f 568 457 567
f 568 567 555
f 568 555 556
f 459 458 568
f 459 568 569
f 568 556 557
f 568 557 569
f 573 561 449
f 573 449 463
f 573 463 462
f 573 462 572
f 573 572 560
f 573 560 561
f 562 464 450
f 562 574 464
f 575 465 464
f 575 464 574
f 564 453 467
f 564 467 577
f 577 467 466
f 577 466 576
f 577 576 563
f 577 563 564
f 565 468 455
f 565 578 468
f 578 565 566
f 578 566 579
f 580 567 457
f 580 457 469
f 581 459 569
f 581 471 459
f 472 471 581
f 472 581 582
f 581 569 570
f 581 570 582
f 585 572 462
f 585 462 475
f 585 475 474
f 585 474 584
f 585 584 571
f 585 571 572
f 575 476 465
f 575 586 476
f 576 466 477
f 576 477 587
f 587 477 476
f 587 476 586
f 588 468 578
f 588 478 468
f 479 478 588
f 479 588 589
f 589 588 578
f 589 578 579
f 590 580 469
f 590 469 480
f 480 479 589
f 480 589 590
f 590 589 579
f 590 579 580
f 591 472 582
f 591 482 472
f 483 482 591
f 483 591 592
f 584 474 484
f 584 484 593
f 484 483 592
f 484 592 593
f 593 592 583
f 593 583 584
f 486 594 485
f 486 595 594
f 597 487 488
f 597 596 487
f 602 489 490
f 602 601 489
f 603 490 491
f 603 602 490
f 594 492 485
f 594 604 492
f 595 486 493
f 595 493 605
f 605 604 594
f 605 594 595
f 606 487 596
f 606 494 487
f 606 493 494
f 606 605 493
f 606 595 605
f 606 596 595
f 597 488 495
f 597 495 607
f 612 599 598
f 612 613 599
f 614 496 497
f 614 613 496
f 615 489 601
f 615 498 489
f 615 497 498
f 615 614 497
f 615 600 614
f 615 601 600
f 603 491 500
f 603 500 617
f 616 602 603
f 616 603 617
f 604 501 492
f 604 618 501
f 502 501 618
f 502 618 619
f 619 618 604
f 619 604 605
f 620 607 495
f 620 495 504
f 505 620 504
f 505 621 620
f 620 608 607
f 620 621 608
f 622 505 506
f 622 621 505
f 622 608 621
f 622 609 608
f 507 622 506
f 507 623 622
f 622 610 609
f 622 623 610
f 625 611 624
f 625 612 611
f 626 496 613
f 626 508 496
f 625 613 612
f 625 626 613
f 627 509 508
f 627 508 626
f 628 510 509
f 628 509 627
f 630 617 500
f 630 500 512
f 629 616 617
f 629 617 630
f 631 512 513
f 631 630 512
f 630 618 617
f 630 631 618
f 632 502 619
f 632 514 502
f 514 631 513
f 514 632 631
f 516 515 633
f 516 633 634
f 623 507 518
f 623 518 636
f 518 517 635
f 518 635 636
f 628 519 510
f 628 639 519
f 633 515 523
f 633 523 640
f 634 524 516
f 634 641 524
f 524 640 523
f 524 641 640
f 640 634 633
f 640 641 634
f 635 517 525
f 635 525 642
f 644 636 643
f 644 637 636
f 647 519 639
f 647 530 519
f 647 529 530
f 647 646 529
f 647 638 646
f 647 639 638
f 531 530 647
f 531 647 648
f 532 531 648
f 532 648 649
f 642 525 533
f 642 533 650
f 651 533 534
f 651 650 533
f 650 643 642
f 650 651 643
f 652 534 535
f 652 651 534
f 654 529 646
f 654 537 529
f 654 645 653
f 654 646 645
f 647 530 538
f 647 538 655
f 656 538 539
f 656 655 538
f 655 648 647
f 655 656 648
f 657 532 649
f 657 540 532
f 657 539 540
f 657 656 539
f 660 543 542
f 660 542 659
f 661 650 651
f 661 651 662
f 652 535 544
f 652 544 663
f 662 651 652
f 662 652 663
f 654 546 537
f 654 665 546
f 665 545 546
f 665 664 545
f 549 548 668
f 549 668 669
f 659 542 550
f 659 550 671
f 671 670 658
f 671 658 659
f 660 551 543
f 660 672 551
f 672 550 551
f 672 671 550
f 672 659 671
f 672 660 659
f 663 544 552
f 663 552 673
f 674 545 664
f 674 554 545
f 556 555 675
f 556 675 676
f 557 556 676
f 557 676 677
f 678 677 666
f 678 666 667
f 668 548 558
f 668 558 679
f 669 559 549
f 669 680 559
f 559 679 558
f 559 680 679
f 679 669 668
f 679 680 669
f 682 561 560
f 682 560 681
f 562 561 682
f 562 682 683
f 686 673 552
f 686 552 564
f 686 564 563
f 686 563 685
f 674 566 554
f 674 687 566
f 688 675 555
f 688 555 567
f 689 675 688
f 689 676 675
f 690 557 677
f 690 569 557
f 570 569 690
f 570 690 691
f 690 677 678
f 690 678 691
f 693 681 560
f 693 560 572
f 572 571 692
f 572 692 693
f 683 574 562
f 683 695 574
f 695 682 694
f 695 683 682
f 696 575 574
f 696 574 695
f 696 695 683
f 696 683 684
f 697 685 563
f 697 563 576
f 697 696 684
f 697 684 685
f 698 566 687
f 698 579 566
f 699 688 567
f 699 567 580
f 699 580 579
f 699 579 698
f 699 698 687
f 699 687 688
f 700 570 691
f 700 582 570
f 702 692 571
f 702 571 584
f 702 584 583
f 702 583 701
f 703 692 702
f 703 693 692
f 704 693 703
f 704 694 693
f 705 694 704
f 705 695 694
f 706 575 696
f 706 586 575
f 697 576 587
f 697 587 707
f 587 586 706
f 587 706 707
f 706 696 697
f 706 697 707
f 700 591 582
f 700 708 591
f 701 583 592
f 701 592 709
f 592 591 708
f 592 708 709
f 710 701 709
f 710 702 701
f 710 703 702
f 710 711 703
f 712 703 711
f 712 704 703
f 713 704 712
f 713 705 704
f 714 710 709
f 714 715 710
f 715 711 710
f 715 716 711
f 717 716 715
f 717 718 716
f 596 721 595
f 596 722 721
f 723 596 597
f 723 722 596
f 599 724 598
f 599 725 724
f 727 600 601
f 727 726 600
f 728 601 602
f 728 727 601
f 730 719 729
f 730 720 719
f 721 605 595
f 721 731 605
f 731 721 722
f 731 722 732
f 723 597 607
f 723 607 733
f 732 722 723
f 732 723 733
f 734 607 608
f 734 733 607
f 735 608 609
f 735 734 608
f 610 735 609
f 610 736 735
f 724 612 598
f 724 738 612
f 738 611 612
f 738 737 611
f 739 725 599
f 739 599 613
f 739 738 724
f 739 724 725
f 726 614 600
f 726 740 614
f 614 739 613
f 614 740 739
f 741 740 726
f 741 726 727
f 728 602 616
f 728 616 742
f 741 727 728
f 741 728 742
f 744 617 618
f 744 743 617
f 744 729 743
f 744 730 729
f 731 619 605
f 731 745 619
f 745 731 732
f 745 732 746
f 748 736 610
f 748 610 623
f 737 624 611
f 737 749 624
f 750 625 624
f 750 624 749
f 751 626 625
f 751 625 750
f 750 738 739
f 750 739 751
f 627 626 751
f 627 751 752
f 751 739 740
f 751 740 752
f 628 627 752
f 628 752 753
f 742 616 629
f 742 629 754
f 753 741 742
f 753 742 754
f 743 630 617
f 743 755 630
f 755 629 630
f 755 754 629
f 744 618 631
f 744 631 756
f 745 632 619
f 745 757 632
f 632 756 631
f 632 757 756
f 758 757 745
f 758 745 746
f 758 746 747
f 758 747 759
f 761 748 623
f 761 623 636
f 636 635 760
f 636 760 761
f 637 761 636
f 637 762 761
f 765 628 753
f 765 639 628
f 639 764 638
f 639 765 764
f 766 765 753
f 766 753 754
f 767 760 635
f 767 635 642
f 768 636 761
f 768 643 636
f 643 767 642
f 643 768 767
f 768 760 767
f 768 761 760
f 762 637 644
f 762 644 769
f 644 643 768
f 644 768 769
f 770 762 769
f 770 763 762
f 772 638 764
f 772 646 638
f 772 645 646
f 772 771 645
f 773 772 764
f 773 764 765
f 649 648 774
f 649 774 775
f 777 768 643
f 777 643 651
f 651 650 776
f 651 776 777
f 778 768 777
f 778 769 768
f 771 653 645
f 771 779 653
f 654 653 779
f 654 779 780
f 780 779 771
f 780 771 772
f 781 774 648
f 781 648 656
f 782 649 775
f 782 657 649
f 657 781 656
f 657 782 781
f 781 775 774
f 781 782 775
f 786 659 658
f 786 658 785
f 776 650 661
f 776 661 787
f 788 661 662
f 788 787 661
f 788 776 787
f 788 777 776
f 789 662 663
f 789 788 662
f 780 665 654
f 780 791 665
f 791 664 665
f 791 790 664
f 667 666 792
f 667 792 793
f 795 794 783
f 795 783 784
f 796 785 658
f 796 658 670
f 796 795 784
f 796 784 785
f 786 671 659
f 786 797 671
f 797 670 671
f 797 796 670
f 796 786 785
f 796 797 786
f 798 787 788
f 798 788 799
f 789 663 673
f 789 673 800
f 799 788 789
f 799 789 800
f 790 674 664
f 790 802 674
f 805 792 666
f 805 666 677
f 677 676 804
f 677 804 805
f 793 678 667
f 793 806 678
f 806 792 805
f 806 793 792
f 808 682 681
f 808 681 807
f 684 683 809
f 684 809 810
f 811 685 684
f 811 684 810
f 811 810 798
f 811 798 799
f 812 800 673
f 812 673 686
f 686 685 811
f 686 811 812
f 812 811 799
f 812 799 800
f 814 674 802
f 814 687 674
f 814 801 813
f 814 802 801
f 688 687 814
f 688 814 815
f 804 676 689
f 804 689 816
f 689 688 815
f 689 815 816
f 816 815 803
f 816 803 804
f 817 678 806
f 817 691 678
f 820 807 681
f 820 681 693
f 808 694 682
f 808 821 694
f 694 820 693
f 694 821 820
f 809 683 695
f 809 695 822
f 823 809 822
f 823 810 809
f 825 813 824
f 825 814 813
f 826 691 817
f 826 700 691
f 826 817 818
f 826 818 827
f 828 827 818
f 828 818 819
f 822 695 705
f 822 705 830
f 829 821 822
f 829 822 830
f 831 700 826
f 831 708 700
f 709 708 831
f 709 831 832
f 831 826 827
f 831 827 832
f 712 711 833
f 712 833 834
f 830 705 713
f 830 713 835
f 835 713 712
f 835 712 834
f 835 834 829
f 835 829 830
f 832 714 709
f 832 836 714
f 837 715 714
f 837 714 836
f 833 711 716
f 833 716 838
f 839 833 838
f 839 834 833
f 837 717 715
f 837 840 717
f 841 838 716
f 841 716 718
f 718 717 840
f 718 840 841
f 841 839 838
f 841 842 839
f 720 843 719
f 720 844 843
f 843 729 719
f 843 845 729
f 844 720 730
f 844 730 846
f 846 845 843
f 846 843 844
f 733 847 732
f 733 848 847
f 734 848 733
f 734 849 848
f 735 849 734
f 735 850 849
f 851 735 736
f 851 850 735
f 853 737 738
f 853 852 737
f 741 854 740
f 741 855 854
f 856 729 845
f 856 743 729
f 846 730 744
f 846 744 857
f 847 746 732
f 847 859 746
f 747 746 859
f 747 859 860
f 860 859 847
f 860 847 848
f 861 860 848
f 861 848 849
f 862 861 849
f 862 849 850
f 851 736 748
f 851 748 863
f 862 850 851
f 862 851 863
f 852 749 737
f 852 864 749
f 853 738 750
f 853 750 865
f 865 750 749
f 865 749 864
f 864 852 853
f 864 853 865
f 854 752 740
f 854 866 752
f 867 855 741
f 867 741 753
f 867 753 752
f 867 752 866
f 866 854 855
f 866 855 867
f 856 755 743
f 856 869 755
f 755 868 754
f 755 869 868
f 857 744 756
f 857 756 870
f 870 869 856
f 870 856 857
f 871 756 757
f 871 870 756
f 870 858 857
f 870 871 858
f 758 871 757
f 758 872 871
f 872 858 871
f 872 859 858
f 860 759 747
f 860 873 759
f 759 872 758
f 759 873 872
f 874 873 860
f 874 860 861
f 875 863 748
f 875 748 761
f 762 875 761
f 762 876 875
f 763 876 762
f 763 877 876
f 868 766 754
f 868 879 766
f 766 878 765
f 766 879 878
f 882 881 875
f 882 875 876
f 877 763 770
f 877 770 883
f 770 769 882
f 770 882 883
f 883 882 876
f 883 876 877
f 878 773 765
f 878 885 773
f 773 884 772
f 773 885 884
f 889 888 880
f 889 880 881
f 882 769 778
f 882 778 890
f 778 777 889
f 778 889 890
f 890 889 881
f 890 881 882
f 884 780 772
f 884 891 780
f 893 784 783
f 893 783 892
f 785 784 893
f 785 893 894
f 895 894 886
f 895 886 887
f 897 889 777
f 897 777 788
f 897 788 787
f 897 787 896
f 897 896 888
f 897 888 889
f 891 791 780
f 891 899 791
f 791 898 790
f 791 899 898
f 892 783 794
f 892 794 902
f 903 794 795
f 903 902 794
f 903 892 902
f 903 893 892
f 904 785 894
f 904 796 785
f 904 795 796
f 904 903 795
f 904 893 903
f 904 894 893
f 896 787 798
f 896 798 906
f 898 802 790
f 898 908 802
f 908 801 802
f 908 907 801
f 909 908 898
f 909 898 899
f 910 804 803
f 910 803 909
f 910 909 899
f 910 899 900
f 805 804 910
f 805 910 911
f 910 900 901
f 910 901 911
f 806 805 911
f 806 911 912
f 808 807 913
f 808 913 914
f 916 906 798
f 916 798 810
f 916 915 905
f 916 905 906
f 917 801 907
f 917 813 801
f 919 909 803
f 919 803 815
f 919 815 814
f 919 814 918
f 920 806 912
f 920 817 806
f 818 817 920
f 818 920 921
f 922 819 818
f 922 818 921
f 913 807 820
f 913 820 923
f 914 821 808
f 914 924 821
f 821 923 820
f 821 924 923
f 923 914 913
f 923 924 914
f 822 821 924
f 822 924 925
f 916 810 823
f 916 823 926
f 823 822 925
f 823 925 926
f 926 925 915
f 926 915 916
f 927 813 917
f 927 824 813
f 918 814 825
f 918 825 928
f 825 824 927
f 825 927 928
f 928 927 917
f 928 917 918
f 922 828 819
f 922 930 828
f 828 929 827
f 828 930 929
f 929 922 921
f 929 930 922
f 924 821 829
f 924 829 932
f 933 827 929
f 933 832 827
f 935 932 829
f 935 829 834
f 935 934 931
f 935 931 932
f 933 836 832
f 933 936 836
f 837 836 936
f 837 936 937
f 935 834 839
f 935 839 939
f 939 938 934
f 939 934 935
f 940 837 937
f 940 840 837
f 941 841 840
f 941 840 940
f 940 937 938
f 940 938 941
f 939 839 842
f 939 842 942
f 842 841 941
f 842 941 942
f 941 938 939
f 941 939 942
f 944 845 846
f 944 943 845
f 945 845 943
f 945 856 845
f 944 846 857
f 944 857 946
f 857 856 945
f 857 945 946
f 945 943 944
f 945 944 946
f 947 857 858
f 947 946 857
f 859 947 858
f 859 948 947
f 862 950 861
f 862 951 950
f 952 862 863
f 952 951 862
f 869 953 868
f 869 954 953
f 946 870 857
f 946 955 870
f 955 869 870
f 955 954 869
f 955 946 947
f 955 947 956
f 948 859 872
f 948 872 957
f 956 947 948
f 956 948 957
f 873 957 872
f 873 958 957
f 957 949 948
f 957 958 949
f 950 874 861
f 950 959 874
f 874 958 873
f 874 959 958
f 959 950 951
f 959 951 960
f 952 863 875
f 952 875 961
f 960 951 952
f 960 952 961
f 953 879 868
f 953 963 879
f 879 962 878
f 879 963 962
f 964 963 953
f 964 953 954
f 966 965 956
f 966 956 957
f 968 959 960
f 968 960 969
f 961 875 881
f 961 881 970
f 970 881 880
f 970 880 969
f 962 885 878
f 962 972 885
f 885 971 884
f 885 972 971
f 973 972 962
f 973 962 963
f 887 886 974
f 887 974 975
f 976 975 967
f 976 967 968
f 977 969 880
f 977 880 888
f 971 891 884
f 971 978 891
f 979 974 886
f 979 886 894
f 980 887 975
f 980 895 887
f 895 979 894
f 895 980 979
f 980 974 979
f 980 975 974
f 982 977 888
f 982 888 896
f 983 891 978
f 983 899 891
f 900 899 983
f 900 983 984
f 901 900 984
f 901 984 985
f 987 980 981
f 987 981 988
f 989 982 896
f 989 896 906
f 989 906 905
f 989 905 988
f 989 988 981
f 989 981 982
f 991 907 908
f 991 990 907
f 992 908 909
f 992 991 908
f 993 901 985
f 993 911 901
f 912 911 993
f 912 993 994
f 993 985 986
f 993 986 994
f 995 988 905
f 995 905 915
f 996 907 990
f 996 917 907
f 997 918 917
f 997 917 996
f 997 996 990
f 997 990 991
f 992 909 919
f 992 919 998
f 998 919 918
f 998 918 997
f 998 997 991
f 998 991 992
f 994 920 912
f 994 999 920
f 1000 921 920
f 1000 920 999
f 995 915 925
f 995 925 1002
f 925 924 1001
f 925 1001 1002
f 1003 921 1000
f 1003 929 921
f 1001 924 932
f 1001 932 1006
f 1006 932 931
f 1006 931 1005
f 1007 929 1003
f 1007 933 929
f 1007 1003 1004
f 1007 1004 1008
f 1009 1005 931
f 1009 931 934
f 1010 933 1007
f 1010 936 933
f 937 936 1010
f 937 1010 1011
f 1010 1007 1008
f 1010 1008 1011
f 1012 1009 934
f 1012 934 938
f 938 937 1011
f 938 1011 1012
f 949 1013 948
f 949 1014 1013
f 955 1015 954
f 955 1016 1015
f 1017 955 956
f 1017 1016 955
f 1013 957 948
f 1013 1018 957
f 1014 949 958
f 1014 958 1019
f 1018 1013 1014
f 1018 1014 1019
f 1020 958 959
f 1020 1019 958
f 1022 960 961
f 1022 1021 960
f 1015 964 954
f 1015 1024 964
f 964 1023 963
f 964 1024 1023
f 1025 1024 1015
f 1025 1015 1016
f 1017 956 965
f 1017 965 1026
f 1025 1016 1017
f 1025 1017 1026
f 1018 966 957
f 1018 1027 966
f 966 1026 965
f 966 1027 1026
f 1028 1027 1018
f 1028 1018 1019
f 1020 959 968
f 1020 968 1029
f 1029 968 967
f 1029 967 1028
f 1021 969 960
f 1021 1030 969
f 1030 968 969
f 1030 1029 968
f 1022 961 970
f 1022 970 1031
f 1031 970 969
f 1031 969 1030
f 1031 1030 1021
f 1031 1021 1022
f 1033 971 972
f 1033 1032 971
f 1023 973 963
f 1023 1034 973
f 973 1033 972
f 973 1034 1033
f 1035 1034 1023
f 1035 1023 1024
f 1035 1024 1025
f 1035 1025 1036
f 1037 1036 1025
f 1037 1025 1026
f 1038 1028 967
f 1038 967 975
f 1029 976 968
f 1029 1039 976
f 976 1038 975
f 976 1039 1038
f 1040 1030 969
f 1040 969 977
f 1040 1039 1029
f 1040 1029 1030
f 1032 978 971
f 1032 1041 978
f 1042 1041 1032
f 1042 1032 1033
f 1043 1042 1033
f 1043 1033 1034
f 1046 981 980
f 1046 980 1045
f 1046 1045 1038
f 1046 1038 1039
f 1047 1040 977
f 1047 977 982
f 1047 982 981
f 1047 981 1046
f 1047 1046 1039
f 1047 1039 1040
f 1048 978 1041
f 1048 983 978
f 1049 984 983
f 1049 983 1048
f 1048 1041 1042
f 1048 1042 1049
f 985 984 1049
f 985 1049 1050
f 1049 1042 1043
f 1049 1043 1050
f 986 985 1050
f 986 1050 1051
f 1045 980 987
f 1045 987 1055
f 1055 1054 1044
f 1055 1044 1045
f 1056 987 988
f 1056 1055 987
f 1058 986 1051
f 1058 994 986
f 1058 1051 1052
f 1058 1052 1059
f 1059 1052 1053
f 1059 1053 1060
f 1056 988 995
f 1056 995 1062
f 1062 1057 1056
f 1062 1063 1057
f 1058 999 994
f 1058 1064 999
f 1000 999 1064
f 1000 1064 1065
f 1064 1058 1059
f 1064 1059 1065
f 1065 1059 1060
f 1065 1060 1066
f 1066 1060 1061
f 1066 1061 1067
f 1069 1062 995
f 1069 995 1002
f 1069 1002 1001
f 1069 1001 1068
f 1070 1000 1065
f 1070 1003 1000
f 1004 1003 1070
f 1004 1070 1071
f 1070 1065 1066
f 1070 1066 1071
f 1071 1066 1067
f 1071 1067 1072
f 1073 1068 1001
f 1073 1001 1006
f 1073 1006 1005
f 1073 1005 1072
f 1073 1072 1067
f 1073 1067 1068
f 1074 1004 1071
f 1074 1008 1004
f 1075 1072 1005
f 1075 1005 1009
f 1074 1071 1072
f 1074 1072 1075
f 1076 1008 1074
f 1076 1011 1008
f 1075 1009 1012
f 1075 1012 1077
f 1012 1011 1076
f 1012 1076 1077
f 1077 1076 1074
f 1077 1074 1075
f 1020 1078 1019
f 1020 1079 1078
f 1027 1080 1026
f 1027 1081 1080
f 1078 1028 1019
f 1078 1082 1028
f 1082 1027 1028
f 1082 1081 1027
f 1083 1079 1020
f 1083 1020 1029
f 1083 1029 1028
f 1083 1028 1082
f 1083 1082 1078
f 1083 1078 1079
f 1035 1084 1034
f 1035 1085 1084
f 1036 1085 1035
f 1036 1086 1085
f 1080 1037 1026
f 1080 1087 1037
f 1037 1086 1036
f 1037 1087 1086
f 1088 1087 1080
f 1088 1080 1081
f 1089 1082 1028
f 1089 1028 1038
f 1089 1088 1081
f 1089 1081 1082
f 1084 1043 1034
f 1084 1090 1043
f 1091 1090 1084
f 1091 1084 1085
f 1091 1085 1086
f 1091 1086 1092
f 1093 1092 1086
f 1093 1086 1087
f 1094 1093 1087
f 1094 1087 1088
f 1095 1089 1038
f 1095 1038 1045
f 1095 1045 1044
f 1095 1044 1094
f 1095 1094 1088
f 1095 1088 1089
f 1096 1043 1090
f 1096 1050 1043
f 1051 1050 1096
f 1051 1096 1097
f 1096 1090 1091
f 1096 1091 1097
f 1052 1051 1097
f 1052 1097 1098
f 1097 1091 1092
f 1097 1092 1098
f 1053 1052 1098
f 1053 1098 1099
f 1098 1092 1093
f 1098 1093 1099
f 1094 1044 1054
f 1094 1054 1100
f 1100 1099 1093
f 1100 1093 1094
f 1101 1054 1055
f 1101 1100 1054
f 1056 1101 1055
f 1056 1102 1101
f 1057 1102 1056
f 1057 1103 1102
f 1104 1053 1099
f 1104 1060 1053
f 1061 1060 1104
f 1061 1104 1105
f 1104 1099 1100
f 1104 1100 1105
f 1105 1100 1101
f 1105 1101 1106
f 1106 1101 1102
f 1106 1102 1107
f 1103 1057 1063
f 1103 1063 1108
f 1108 1063 1062
f 1108 1062 1107
f 1108 1107 1102
f 1108 1102 1103
f 1109 1061 1105
f 1109 1067 1061
f 1068 1067 1109
f 1068 1109 1110
f 1109 1105 1106
f 1109 1106 1110
f 1111 1107 1062
f 1111 1062 1069
f 1069 1068 1110
f 1069 1110 1111
f 1111 1110 1106
f 1111 1106 1107
