# parsimony mesh: eg10841_monomer (source /Users/eranagmon/code/v2e-molecules/workspace/studies/ecoli-3d/viz/3d/structures/eg10841_monomer.pdb)
# atoms: 3396  voxel: 4 Å  verts: 1651  tris: 3352
v 36.4207 -12.0575 -49.7212
v 37.7255 -12.0575 -49.7212
v 36.4207 -10.7390 -49.7212
v 39.2929 -9.1787 -49.4617
v 40.9273 -7.6185 -49.2023
v 40.8604 -7.5583 -49.2023
v 40.9273 -7.5583 -49.2023
v 35.7328 -12.4456 -47.1941
v 38.9991 -12.6387 -47.2996
v 41.4755 -12.1849 -46.0365
v 32.6127 -8.5452 -45.7101
v 34.7918 -9.6421 -47.1191
v 39.2929 -9.1787 -48.6156
v 41.7433 -9.1998 -47.2996
v 32.6127 -6.9737 -45.7101
v 35.2836 -5.6129 -45.9144
v 39.2801 -5.9637 -47.3493
v 41.7137 -5.9637 -46.9385
v 36.8662 -3.4764 -45.2114
v 38.8967 -1.9145 -45.4754
v 42.0853 -1.5717 -45.5328
v 36.7185 3.9094 -45.3277
v 38.8967 2.5170 -45.5213
v 42.1296 2.4283 -45.5029
v 36.7560 6.4283 -45.2995
v 38.9096 6.4283 -45.6716
v 41.8215 6.4283 -45.5662
v 36.8958 8.4341 -45.2010
v 38.9096 8.5746 -45.4208
v 41.5496 8.6175 -45.4894
v 8.2965 16.0111 -45.8199
v 10.9096 16.0147 -45.7765
v 13.1812 16.2940 -45.3448
v 7.6828 18.4283 -46.1556
v 11.1891 18.3521 -46.0537
v 13.1812 16.9679 -45.3448
v 7.8869 21.5788 -45.8502
v 10.0422 21.5788 -45.8502
v 32.7208 -11.8632 -42.0237
v 34.6615 -12.4632 -43.2919
v 38.9096 -13.3985 -43.1941
v 42.8491 -12.7014 -43.1747
v 46.9096 -12.2001 -41.7748
v 49.0218 -11.7681 -41.3341
v 32.3145 -9.7558 -43.2919
v 33.1628 -11.2118 -44.6904
v 43.9384 -9.5717 -44.0612
v 46.9096 -9.5717 -42.2235
v 49.0730 -9.5717 -41.3564
v 32.3307 -5.6129 -42.9520
v 34.1996 -4.3071 -44.1239
v 43.9015 -5.5717 -44.1060
v 46.7802 -5.8643 -41.9694
v 49.0152 -7.3926 -41.2704
v 32.7477 -3.2420 -41.4572
v 35.2300 -2.0259 -43.0717
v 37.5547 -0.8097 -44.6862
v 44.0853 -1.5717 -44.5783
v 45.6761 -1.5717 -42.5783
v 32.2428 3.7736 -41.5977
v 35.1562 2.5082 -43.1419
v 37.5547 1.2427 -44.6862
v 44.1296 2.4283 -44.3020
v 45.5128 2.4283 -42.3020
v 28.6948 8.1417 -41.3040
v 30.9095 6.6563 -41.8472
v 34.7560 6.4283 -43.9281
v 43.8215 6.4283 -44.0378
v 46.6495 6.5464 -42.0378
v 49.1092 7.9585 -41.4753
v 12.2046 11.6021 -41.6737
v 14.9096 11.7892 -41.5718
v 16.9551 12.4024 -41.2181
v 24.7955 12.3126 -41.2283
v 26.9278 10.5834 -41.2661
v 30.9096 9.6917 -41.7078
v 35.3013 9.7803 -43.1392
v 38.9096 9.6962 -43.1941
v 43.1103 10.1096 -43.0123
v 46.9096 10.4283 -42.5922
v 49.4089 10.4283 -41.8650
v 4.0266 15.8265 -41.6660
v 6.9417 15.6768 -43.0773
v 10.8866 14.3573 -43.0819
v 14.6726 14.7477 -43.5344
v 18.5369 14.7040 -41.7191
v 23.4128 14.8101 -41.2716
v 25.1608 13.3991 -41.2283
v 44.6709 13.1129 -41.3643
v 46.6860 14.4390 -41.9575
v 49.6866 14.4283 -42.0207
v 3.6920 18.4283 -42.2535
v 5.6828 18.4283 -44.2535
v 12.7088 19.6346 -44.9505
v 14.6726 18.3521 -44.2248
v 18.9096 18.4283 -42.7298
v 22.6626 18.4283 -41.7587
v 47.8703 16.7914 -41.6829
v 49.4794 16.7914 -41.6829
v 3.6808 22.4283 -42.7825
v 6.8264 22.6200 -43.5864
v 11.2497 22.6200 -43.1635
v 14.9096 22.4283 -42.6526
v 18.6297 22.4480 -41.9769
v 22.1265 21.1277 -41.8261
v 4.0116 25.4005 -42.3715
v 5.7659 25.4005 -42.3715
v 12.4572 24.6627 -41.3765
v 14.9096 24.6849 -41.4120
v 17.1097 24.5360 -41.3022
v 32.7208 -11.8632 -40.7723
v 34.9822 -12.4523 -39.3410
v 38.9096 -13.3970 -39.1941
v 42.9096 -13.7704 -39.1941
v 46.9096 -13.1063 -39.1941
v 49.0826 -11.8509 -39.1941
v 32.3131 -9.4904 -39.3410
v 33.6972 -10.7694 -38.1056
v 49.5613 -9.5717 -39.1941
v 31.8093 -5.5717 -39.1941
v 48.1774 -4.5045 -39.1941
v 49.3883 -6.5045 -39.1941
v 32.2469 -1.7739 -39.1959
v 33.5939 -0.5754 -40.5303
v 47.8665 -1.7123 -38.9042
v 49.9292 -0.4727 -37.3776
v 28.7234 4.1768 -37.6320
v 31.0214 2.6419 -39.0811
v 33.5939 1.1069 -40.5303
v 47.5128 2.4283 -39.9119
v 51.1214 2.3026 -37.8253
v 52.9929 3.5522 -37.2891
v 4.8794 8.4068 -37.2878
v 5.0091 8.4068 -37.2878
v 28.0916 6.6563 -39.0568
v 29.5761 5.4750 -40.2986
v 48.2101 6.6954 -39.2173
v 50.1380 6.3986 -38.9690
v 52.9929 4.4914 -37.2891
v 4.5273 10.4283 -37.7713
v 6.5693 10.2900 -38.1566
v 10.8866 10.6837 -39.2949
v 14.9096 10.4200 -39.1941
v 18.5369 11.9452 -38.9233
v 23.2412 11.6751 -38.9233
v 26.7985 10.4177 -39.8862
v 30.9096 11.6917 -40.8470
v 34.9096 12.1139 -40.8807
v 38.9096 11.5499 -40.2403
v 42.0043 11.6017 -40.2626
v 48.6232 10.4283 -37.7223
v 49.4089 10.4283 -39.7223
v 0.4531 15.8736 -38.2028
v 2.8950 14.5167 -39.3698
v 6.9096 13.8019 -40.3270
v 9.5380 13.5282 -40.6954
v 19.6218 13.5545 -40.0761
v 23.4128 14.8101 -40.6094
v 26.6603 14.6107 -40.2569
v 30.6783 14.4004 -38.6412
v 34.9096 13.4829 -38.8807
v 38.8220 14.4999 -38.3724
v 43.1664 14.4390 -40.0223
v 47.1877 15.0074 -38.9529
v 49.6866 14.4283 -39.4648
v 0.3516 18.4283 -38.3573
v 1.6920 18.4283 -40.3573
v 24.6626 18.4283 -40.6735
v 26.5825 18.1896 -38.5025
v 29.1907 16.6972 -37.4022
v 40.0969 17.1222 -37.7630
v 43.2176 18.4446 -38.2242
v 46.7001 17.7268 -38.9416
v 49.4794 16.7914 -40.1236
v -0.0438 22.4283 -38.1868
v 1.6808 22.4283 -40.1868
v 8.4325 23.6613 -40.5937
v 9.7905 23.6613 -40.5937
v 19.6581 23.7097 -39.1941
v 23.4870 22.6159 -38.8785
v 25.0068 22.4283 -37.7207
v 44.7563 20.4776 -37.2657
v 45.0222 20.4776 -37.2657
v -0.0740 25.0102 -37.9755
v 3.0025 26.5387 -39.1546
v 7.0234 26.6116 -39.7622
v 11.0381 26.1689 -39.7239
v 14.9096 26.6849 -39.6214
v 17.6588 26.0929 -38.8905
v 24.8476 24.4352 -37.2055
v 24.9176 24.4352 -37.2055
v 4.6600 28.5612 -37.6670
v 7.0447 30.1080 -38.0718
v 10.9096 30.4283 -38.5073
v 14.8435 30.2093 -37.7471
v 17.1602 28.7299 -37.3547
v 8.4682 32.8874 -37.7764
v 10.9096 32.9918 -37.8947
v 13.4661 32.7205 -37.5460
v 40.7638 -16.1290 -33.4612
v 42.9096 -16.0223 -33.5966
v 44.9840 -15.6153 -33.4637
v 36.3639 -12.2330 -36.3766
v 39.0533 -13.5504 -34.9189
v 42.9096 -14.8181 -35.5966
v 46.5542 -14.2651 -34.9559
v 49.3879 -12.1641 -35.1941
v 32.6103 -8.1028 -36.2478
v 34.7586 -9.6603 -34.9789
v 37.3428 -11.2178 -33.7100
v 51.2118 -9.2281 -34.8438
v 54.9096 -7.6455 -33.2600
v 56.9155 -7.5762 -33.1992
v 32.0039 -5.8191 -35.0263
v 33.1533 -7.3174 -33.5811
v 48.8157 -3.6612 -37.1283
v 50.8292 -5.2254 -35.7720
v 54.9096 -5.5717 -33.4920
v 56.9391 -5.5717 -33.2203
v 31.2616 -1.5717 -35.1941
v 48.8157 -3.1394 -37.1283
v 51.1214 -1.7123 -36.4778
v 54.8649 -1.9307 -34.1353
v 56.9431 -3.5033 -33.2240
v 28.4168 3.7743 -35.1941
v 30.1692 1.7743 -35.1941
v 52.5959 0.8855 -37.1200
v 54.5806 2.2665 -35.4977
v 57.6628 3.6474 -33.8755
v 4.8794 8.4068 -37.1668
v 5.0091 8.4068 -37.1668
v 12.6748 8.3944 -33.6732
v 12.9820 8.3944 -33.6732
v 24.8166 8.3694 -33.4243
v 26.3380 6.7929 -34.9322
v 48.6108 8.0989 -36.9545
v 51.1330 7.2593 -35.4503
v 54.5596 5.6023 -35.2029
v 57.6628 5.3371 -33.8755
v 4.5273 10.4283 -36.5015
v 6.5554 10.2491 -35.3991
v 11.1687 9.1026 -35.0816
v 14.5530 9.4662 -35.0816
v 18.9096 10.9984 -35.1941
v 23.2538 9.7350 -34.9322
v 25.2806 8.7601 -36.0909
v 48.1212 10.4659 -35.4503
v 49.9485 9.1576 -34.2878
v -3.2572 16.1623 -33.4430
v -0.9643 15.5709 -34.9434
v 3.0219 13.5365 -35.0564
v 5.4349 12.7715 -33.6313
v 31.8574 15.7151 -36.1468
v 34.6901 15.1939 -34.9657
v 38.8220 15.5363 -34.8473
v 41.0054 16.2856 -33.2827
v 47.3518 14.4283 -35.1941
v -3.2572 17.0411 -33.4430
v -1.5514 18.3960 -34.9434
v 27.6978 19.3638 -36.5935
v 30.7715 18.0478 -35.0368
v 33.2104 16.7317 -33.4801
v 40.0969 17.1222 -35.9494
v 42.8808 18.7260 -34.8249
v 45.9400 18.7692 -35.0979
v -1.1026 22.4283 -35.1941
v 20.3741 24.1041 -36.6388
v 22.1810 24.1041 -36.6388
v 27.0006 22.5080 -35.2337
v 29.6856 21.2279 -33.9268
v 44.7563 20.4776 -36.3671
v 45.0222 20.4776 -36.3671
v -0.2119 26.3774 -34.9418
v 1.9933 27.6768 -36.1069
v 19.7708 26.4918 -35.2609
v 23.2724 25.2152 -35.2609
v 25.4322 24.8325 -35.1941
v 0.7448 28.5238 -33.4402
v 3.1598 28.7995 -34.9418
v 6.3632 30.8207 -35.1941
v 15.9291 31.4057 -35.1941
v 17.8877 29.4057 -35.1941
v 8.3632 32.9179 -35.1941
v 10.9096 33.3102 -35.1941
v 13.9291 32.8206 -35.1941
v 40.7638 -16.1290 -32.6856
v 42.9096 -16.0223 -32.7447
v 44.9840 -15.6153 -33.1035
v 39.6994 -13.4576 -31.2890
v 42.9096 -14.2262 -30.7447
v 46.6003 -13.4102 -31.3506
v 49.4289 -12.1857 -32.2643
v 35.3986 -9.2346 -31.1941
v 37.5062 -11.2346 -31.1941
v 48.2166 -11.1252 -29.5977
v 50.8212 -9.8398 -31.0363
v 54.9634 -7.7103 -31.5385
v 56.9155 -7.5762 -33.1014
v 32.0858 -4.9810 -31.1941
v 33.3986 -6.9810 -31.1941
v 56.3326 -7.4062 -30.4347
v 57.2682 -5.8724 -31.5385
v 30.8162 -1.5717 -31.1941
v 56.1684 -0.8366 -32.0529
v 57.3302 -1.9307 -30.9094
v 28.2352 3.1882 -31.1941
v 29.6400 1.1882 -31.1941
v 56.3723 2.3571 -30.7000
v 57.3409 2.3571 -30.7000
v 12.6748 8.3944 -33.1097
v 12.9820 8.3944 -33.1097
v 24.5554 8.0670 -31.1941
v 26.2352 6.0670 -31.1941
v 52.2581 7.6933 -31.1941
v 55.1096 5.9856 -30.8859
v 57.6628 5.3371 -32.0138
v 7.3344 11.4854 -31.1941
v 11.1687 9.7631 -31.5435
v 14.5530 9.9276 -31.5435
v 18.9096 11.0039 -31.1941
v 22.5554 9.7410 -31.1941
v 47.4303 11.4090 -31.1941
v 50.2581 9.4090 -31.1941
v -3.2362 16.1998 -31.1941
v -1.0904 15.2808 -31.1941
v 2.9096 13.7979 -31.1941
v 5.3344 12.7169 -31.1941
v 35.8722 15.5933 -31.1941
v 38.9096 15.1899 -31.1941
v 42.5671 15.4828 -31.1800
v 45.6263 14.2055 -31.1800
v -3.4336 18.3960 -31.1824
v -2.4480 19.7078 -32.5079
v 31.8438 19.2508 -31.1941
v 33.8722 17.2508 -31.1941
v 43.6721 17.6632 -32.5039
v 45.4098 17.6632 -32.5039
v -3.4680 21.3932 -29.8412
v -2.2047 22.6072 -31.1824
v 24.3848 23.7304 -29.6422
v 26.9229 22.9994 -31.0630
v 29.8438 21.1656 -31.1941
v -0.7664 26.4283 -31.1941
v 8.7539 28.3171 -29.2213
v 9.5179 28.3171 -29.2213
v 19.8847 27.3767 -31.1941
v 22.9947 25.5063 -31.0630
v 25.5984 24.9603 -32.3089
v 0.6082 28.6067 -31.1941
v 2.9096 28.9981 -31.1941
v 7.3549 30.0226 -31.0513
v 10.8746 30.6118 -29.8411
v 14.9913 31.5443 -30.8125
v 17.8847 29.5939 -31.1941
v 8.6224 32.6220 -32.8814
v 10.9096 32.7467 -31.9825
v 13.7124 32.6591 -31.8914
v 39.9385 -12.0481 -29.0080
v 42.9096 -12.2262 -28.7833
v 47.1230 -11.8058 -27.2275
v 49.1121 -11.6437 -25.6226
v 35.6574 -9.1991 -27.1941
v 38.7269 -10.7967 -27.4825
v 42.9096 -10.4971 -26.7833
v 47.1230 -11.0295 -27.2275
v 50.6311 -10.1754 -27.0512
v 53.9617 -8.1612 -27.1941
v 32.3704 -4.5435 -27.1941
v 33.6574 -6.5435 -27.1941
v 55.9617 -6.7243 -27.1941
v 57.4902 -4.7243 -27.1941
v 28.7773 0.2704 -26.0466
v 30.1892 -1.2665 -27.3056
v 57.6641 -1.5717 -27.1941
v 28.0597 2.2086 -27.3056
v 29.0945 0.7287 -28.7132
v 56.3840 3.2581 -27.1941
v 57.0836 1.2581 -27.1941
v 24.3619 7.6396 -27.1941
v 25.9464 5.6396 -27.1941
v 48.5820 8.1550 -25.5942
v 50.9353 7.9760 -26.9879
v 54.1918 6.4495 -27.1065
v 4.6507 12.2400 -26.4369
v 6.5342 11.8840 -27.5398
v 10.9096 11.1514 -27.1941
v 14.9096 10.7996 -27.1941
v 19.1732 11.5753 -27.1680
v 23.2112 10.8944 -26.8934
v 25.0104 12.2608 -25.3029
v 44.6224 12.0857 -25.9317
v 46.8923 10.5462 -27.0963
v 50.9353 8.7921 -26.9879
v 53.0808 8.5776 -25.7148
v -3.6070 15.9699 -27.1941
v -1.0904 15.1743 -27.1941
v 3.1542 13.4168 -27.5398
v 4.9507 12.4699 -29.1035
v 20.6822 13.1437 -25.8173
v 23.1074 14.4576 -25.6817
v 25.0984 14.4283 -25.3363
v 36.5589 16.1117 -28.8576
v 38.9096 15.8944 -28.3937
v 42.8631 14.3784 -27.1976
v 45.2026 12.7237 -28.5983
v -7.2470 20.2583 -25.3686
v -5.3303 18.7263 -26.8988
v 24.0938 18.4283 -25.8620
v 25.4105 18.4283 -25.8620
v 32.0459 19.8882 -28.5220
v 35.0014 18.5005 -27.3565
v 38.9096 17.0579 -26.3937
v 41.1039 16.5832 -25.7968
v -7.2470 20.7200 -25.3686
v -4.8662 22.3899 -27.0723
v -2.8691 24.0598 -28.7760
v 20.0549 23.5420 -25.9733
v 22.9385 22.3029 -27.3219
v 26.8198 21.1960 -27.2800
v 30.7914 20.9931 -27.1908
v 33.4438 20.7256 -25.8553
v -3.5978 24.8908 -26.1094
v -1.8662 26.3058 -27.3433
v 8.0745 27.3724 -27.1941
v 10.8746 27.1913 -27.5648
v 14.9096 27.2222 -26.9939
v 18.6055 26.1972 -27.4746
v 21.7181 24.9204 -28.6400
v 0.2738 28.7825 -27.1941
v 2.9096 29.0998 -27.1941
v 6.0745 28.7457 -27.1941
v 12.1846 29.4008 -29.1453
v 14.9096 29.5721 -28.9939
v 17.1562 28.9809 -28.9760
v 48.6960 -11.6437 -25.0027
v 49.1121 -11.6437 -25.0027
v 36.2135 -8.3558 -23.1941
v 38.6234 -8.5221 -23.2726
v 43.0864 -8.5517 -23.2726
v 47.1814 -10.1362 -23.4793
v 50.6798 -9.4881 -23.3695
v 53.5560 -8.2251 -24.4029
v 32.6312 -4.0091 -23.1941
v 34.2135 -6.0091 -23.1941
v 39.7659 -6.3960 -21.9916
v 41.8710 -6.3960 -21.9916
v 52.2475 -6.9470 -21.7362
v 54.9117 -5.4438 -23.2250
v 57.1255 -3.9406 -24.7139
v 28.7773 0.2704 -25.0090
v 30.9108 -1.2665 -23.4831
v 52.7849 0.3485 -21.2587
v 54.9243 -1.2196 -22.4435
v 57.1635 -1.5717 -24.7074
v 28.1685 2.4283 -24.2673
v 30.0469 2.4283 -22.2673
v 52.6722 2.4283 -21.3793
v 55.0891 2.3091 -23.6411
v 57.0322 0.8963 -25.0254
v 24.5587 7.7995 -24.6595
v 26.7961 6.4510 -23.9759
v 30.0387 6.4283 -22.0723
v 48.2703 7.8343 -23.1941
v 51.1266 6.6989 -23.1460
v 53.7624 6.4283 -24.1219
v -7.4469 12.3389 -21.2998
v -6.2167 12.3389 -21.2998
v 4.6507 12.2400 -24.7488
v 6.9096 12.0948 -24.3071
v 10.9096 11.8869 -24.2146
v 14.9096 11.5919 -24.3368
v 18.0155 11.7786 -24.6197
v 24.5587 9.5941 -24.6595
v 26.5701 10.7278 -24.0696
v 30.3435 10.4283 -22.1895
v 44.6178 12.0711 -23.1941
v 46.2703 10.0711 -23.1941
v 52.2020 8.5776 -24.9155
v 53.0808 8.5776 -24.9155
v -8.0883 14.4283 -21.6519
v -4.9842 14.2032 -22.8327
v -1.0904 14.6135 -23.1941
v 3.1542 14.0199 -23.3269
v 7.1922 14.4016 -22.1818
v 10.6219 14.4927 -22.1078
v 14.9096 13.7787 -22.3368
v 18.9371 14.6326 -23.5017
v 21.9060 15.8104 -25.0504
v 27.0984 14.4283 -24.1737
v 30.1449 14.4283 -22.1737
v 42.9016 14.4283 -23.1941
v -15.7450 19.7834 -22.2847
v -13.0904 19.3295 -22.2586
v -8.9890 18.5999 -22.9442
v -6.4183 17.5917 -24.3656
v 8.7140 16.5377 -21.3564
v 9.0968 16.5377 -21.3564
v 19.8587 17.6517 -22.3837
v 21.9107 18.7623 -23.5079
v 27.4105 18.4283 -24.4391
v 30.1700 18.4283 -22.4391
v 36.1105 19.7795 -24.4449
v 38.6821 18.6010 -23.1446
v 41.1934 16.6308 -23.1941
v -15.7686 22.4283 -22.2130
v -13.0904 22.4283 -22.7466
v -8.7844 22.2033 -23.6620
v -6.2644 23.3866 -24.5957
v 19.4657 22.8578 -23.1941
v 21.4136 20.8578 -23.1941
v 28.0932 20.8890 -24.6535
v 31.0595 21.5891 -23.2698
v 34.8301 21.8184 -23.1446
v 37.1971 21.2712 -21.7782
v -15.3401 24.6300 -21.4620
v -12.7420 26.1493 -21.6097
v -9.4371 26.3040 -21.8899
v -4.9948 25.0098 -23.2351
v -1.0568 26.9407 -23.0731
v 1.3005 28.1059 -21.6590
v 7.8558 27.1338 -23.1941
v 10.9096 26.5701 -23.1941
v 14.9096 26.3075 -23.1941
v 17.4657 24.8713 -23.1941
v -11.1764 28.4871 -21.2361
v -11.0016 28.4871 -21.2361
v 0.2989 28.7581 -24.3257
v 2.7442 29.1878 -23.0731
v 5.8558 29.1303 -23.1941
v 36.7259 -7.6852 -20.9825
v 37.0993 -7.6852 -20.9825
v 44.5376 -7.9712 -20.9486
v 46.9096 -8.2558 -20.7817
v 49.5808 -8.0844 -20.8897
v 32.8694 -3.6592 -21.0039
v 35.4761 -4.9530 -19.6599
v 38.3401 -4.9880 -19.7034
v 43.0864 -5.2663 -20.9763
v 46.9096 -5.5717 -20.4366
v 50.9123 -5.5969 -20.4658
v 53.6008 -4.2804 -20.7302
v 32.1913 -1.6364 -19.4800
v 34.2263 -3.0128 -18.3373
v 39.1989 -1.5717 -18.7392
v 42.9096 -1.5717 -19.9968
v 46.7723 -1.4673 -18.7328
v 51.0565 -1.1913 -19.4060
v 53.6008 -2.3182 -20.7302
v 31.3292 2.4283 -19.1941
v 39.2880 2.4283 -18.2786
v 42.9096 2.4283 -18.5482
v 45.2415 2.4283 -17.4638
v 51.6072 2.4283 -19.1941
v 32.1569 6.0985 -19.4883
v 34.9096 7.4282 -18.0700
v 38.5837 6.7580 -17.6440
v 42.9096 6.4283 -18.0979
v 46.6495 6.3204 -18.7605
v 50.3869 5.2664 -19.1941
v -11.2040 12.1856 -17.4456
v -8.9043 11.9620 -18.9450
v -4.9662 11.9260 -19.4860
v -2.3943 12.1256 -18.3472
v 32.3435 10.4283 -20.9353
v 34.9096 10.4283 -19.0331
v 38.7221 10.4548 -17.3461
v 42.9143 10.7169 -18.8211
v 45.7181 9.6280 -20.3252
v -23.1030 16.4162 -17.3141
v -21.0904 15.8913 -17.7786
v -17.0904 15.6248 -18.0714
v -12.7586 14.6078 -18.2422
v -10.0883 14.4283 -20.1215
v -3.5500 12.5507 -21.0139
v -1.0222 14.3932 -19.6413
v 3.0790 15.8240 -19.4390
v 6.0055 15.8173 -19.1941
v 11.7635 15.8690 -20.8141
v 14.9096 15.7787 -20.7085
v 17.1920 16.1215 -20.9267
v 32.1449 14.4283 -20.6525
v 35.0232 14.0827 -18.4325
v 39.0851 14.4656 -17.2585
v 41.8257 14.8186 -18.7997
v -23.2739 18.4283 -17.6327
v -21.0904 18.4283 -18.6170
v -17.0832 18.4413 -19.8878
v -13.0904 17.3295 -20.3156
v -10.7311 16.9415 -20.8458
v 0.3499 17.1107 -18.2688
v 1.8585 17.1107 -18.2688
v 8.0055 17.1991 -19.1941
v 10.4608 18.2755 -19.4120
v 14.9096 18.4283 -19.9738
v 18.6790 18.7623 -20.7091
v 20.9991 20.3184 -21.1153
v 32.1700 18.4283 -20.4117
v 35.0232 18.3975 -18.5917
v 39.0517 18.1268 -18.8850
v 41.0937 16.5433 -19.8700
v -23.3224 20.7481 -17.6589
v -20.9732 22.2202 -18.1763
v -17.7686 22.4283 -20.0733
v -3.2311 24.2180 -18.0575
v -2.3418 24.2180 -18.0575
v 11.4015 22.4283 -18.5262
v 14.9096 22.4283 -20.0440
v 18.6673 22.1037 -20.7610
v 20.9991 20.5539 -21.1153
v 32.4928 21.6051 -20.7044
v 34.9096 21.9430 -20.3562
v 37.1971 21.2712 -20.5667
v -19.5618 24.8939 -17.7132
v -16.7034 26.0953 -18.9320
v -13.8431 27.2966 -20.1507
v -8.2297 27.5628 -19.1941
v -4.7748 25.3642 -19.3121
v -1.0412 25.1088 -19.3121
v 2.7442 27.1707 -19.2071
v 7.2909 27.9555 -18.9897
v 10.5960 26.8314 -19.1257
v 14.9096 25.5137 -20.7786
v 17.1724 24.6400 -21.0132
v -15.5199 30.4283 -17.5383
v -12.8852 30.2080 -18.7569
v -10.2297 29.0978 -19.1941
v 3.9672 29.0728 -20.5490
v 7.2909 28.7744 -18.9897
v 9.2084 28.4760 -17.4303
v -15.3534 32.6252 -17.3631
v -14.5939 32.6252 -17.3631
v 36.8930 -3.5800 -17.1910
v 36.9142 -3.5800 -17.1910
v 32.0460 -0.3461 -16.5381
v 35.2996 -1.6364 -16.6516
v 37.1989 -1.5717 -17.0080
v 48.0141 -0.0644 -16.7342
v 49.3281 -0.0644 -16.7342
v 32.1919 2.4283 -16.6441
v 34.9096 2.4283 -16.4436
v 37.2880 2.4283 -16.9937
v 47.2415 2.4283 -16.6747
v 49.8446 2.4283 -16.6747
v -16.1837 7.9540 -13.7902
v -13.0904 7.9205 -13.9322
v -10.6430 8.2255 -13.5821
v 32.8163 4.5453 -17.1168
v 34.9096 5.4282 -17.1195
v 37.0330 5.6444 -17.1719
v 47.5809 4.7312 -16.9615
v 49.7378 4.7312 -16.9615
v -16.1975 10.4283 -13.7452
v -12.7586 10.6827 -15.4678
v -9.2220 9.9474 -15.0269
v -5.0904 11.2216 -15.1941
v -2.4733 12.1408 -15.1941
v 39.9305 11.8058 -17.1160
v 41.0209 11.8058 -17.1160
v -23.2654 16.1008 -15.1941
v -21.0904 14.9428 -15.1941
v -16.9201 13.6814 -14.8773
v -13.8707 13.3942 -15.9995
v -0.5325 14.5585 -15.3043
v 3.0790 16.0348 -15.3043
v 5.2386 16.2737 -15.1941
v 36.4323 15.1857 -16.4760
v 39.0851 14.4656 -16.7960
v 41.0209 13.7455 -17.1160
v -24.2117 18.4283 -15.1941
v 0.3499 17.1107 -16.7111
v 3.1855 18.3570 -15.1010
v 6.4623 18.4750 -15.2477
v 9.1581 20.0133 -17.0045
v 36.4323 17.0436 -16.4760
v 38.2396 17.0436 -16.4760
v -24.2165 22.2202 -15.0406
v -20.6995 23.8933 -14.7658
v -19.0398 24.3718 -13.2600
v -3.2311 24.2180 -16.7063
v -2.3418 24.2180 -16.7063
v 4.5125 21.2161 -13.4910
v 6.6129 22.5010 -14.6768
v 9.4015 22.4283 -16.8249
v -23.7056 24.6701 -13.6049
v -20.6995 24.7820 -14.7658
v -17.7823 26.3077 -14.8337
v -7.3649 28.1481 -16.9358
v -4.7748 26.6602 -16.2113
v -1.0361 26.0848 -15.1710
v 2.9096 25.6845 -15.1941
v 6.9341 26.2759 -15.6903
v 9.4392 26.4283 -16.9384
v -15.8648 30.4283 -15.1941
v -12.3598 31.6253 -15.1941
v -8.8551 29.9442 -15.4391
v -5.0904 29.4501 -14.3315
v -2.3971 28.8603 -13.6357
v 8.7863 28.4760 -17.1558
v 9.2084 28.4760 -17.1558
v -15.4619 32.6894 -15.1941
v -14.3598 32.6894 -15.1941
v -16.8324 7.4816 -11.1941
v -13.0904 6.7754 -11.1941
v -9.8672 7.7221 -11.1941
v -19.6969 11.3884 -9.7630
v -18.3137 10.2043 -11.1354
v -7.8672 9.0010 -11.1941
v -5.0904 10.3476 -11.1941
v -1.4144 11.3688 -11.0520
v 1.3120 11.5335 -9.6239
v -23.5849 15.5445 -11.1941
v -21.0543 13.6172 -11.1354
v -18.1400 12.9214 -12.4296
v -0.2971 13.3120 -12.2906
v 2.6271 14.8189 -11.3073
v 5.0248 16.3258 -12.9906
v -24.5232 18.4283 -11.1941
v 3.6801 18.3334 -11.4720
v 5.0248 16.9367 -12.9906
v -24.2102 22.3956 -11.0415
v -20.9837 24.0395 -11.3745
v -19.0398 24.3718 -13.1425
v -3.3942 24.0091 -9.9696
v -1.0904 23.6083 -10.4093
v 3.0354 22.4851 -11.5518
v 5.0818 23.8828 -13.0646
v -23.7056 24.6701 -12.2731
v -20.7607 25.6748 -11.1291
v -18.2231 26.4283 -12.2711
v -3.7492 26.4283 -10.2508
v -1.0744 26.3705 -12.1463
v 2.9096 25.0147 -12.7306
v 5.0818 24.6399 -13.0646
v -19.2011 28.6047 -9.3483
v -17.0084 30.1342 -10.8866
v -11.9461 31.8572 -12.8174
v -8.9053 31.6023 -11.3681
v -5.0352 29.8042 -11.1742
v -2.3971 28.8603 -12.4942
v -15.3173 32.5824 -11.1941
v -13.2038 33.1260 -11.3681
v -10.1152 33.3858 -10.1507
v -19.3886 8.1361 -6.2131
v -17.4280 7.1064 -7.4055
v -13.0904 5.9985 -7.1941
v -8.7803 7.2599 -7.3987
v -5.0904 7.2137 -6.1843
v -2.9150 7.4274 -5.5068
v -27.4125 12.1998 -5.5355
v -25.0904 11.9004 -6.0449
v -20.8761 10.3373 -7.4335
v -18.9864 8.7217 -8.8798
v -7.2402 8.6389 -8.8684
v -5.0904 8.9935 -8.1843
v -1.3851 9.7854 -6.9817
v 1.2311 11.7174 -7.1941
v -27.4358 14.4283 -5.6416
v -24.9536 14.3760 -7.6279
v -22.3636 13.0078 -8.6538
v 0.8466 15.7614 -5.3263
v 1.3863 14.4281 -6.8734
v -27.2288 16.7354 -5.4493
v -25.5675 18.2126 -6.9473
v 0.6883 18.4283 -5.5148
v 1.6705 18.4283 -7.5148
v -23.7706 22.3956 -7.1555
v -22.7969 23.7071 -8.4630
v -3.3942 24.0091 -8.6592
v -0.8832 22.5483 -7.0744
v 1.5583 21.0875 -8.1562
v -23.2009 24.5783 -5.7963
v -21.6157 26.1183 -7.1555
v -3.7608 26.5935 -7.2732
v -2.4439 25.3703 -5.9925
v -19.4672 29.3560 -7.1941
v -17.8137 31.3560 -7.1941
v -7.4485 32.0257 -8.7712
v -5.4981 30.5868 -7.3404
v -15.8137 32.6190 -7.1941
v -13.0904 33.8839 -7.1941
v -8.9053 33.8034 -7.3404
v -6.2897 33.0335 -6.1045
v -11.1402 0.4067 -1.2268
v -11.0217 0.4067 -1.2268
v -23.5141 4.0578 -1.4847
v -21.0904 3.7685 -1.8805
v -17.0904 3.7282 -2.3560
v -12.7203 2.5738 -2.0004
v -9.4492 2.4624 -1.9078
v -5.0904 3.7429 -2.6753
v -2.8688 4.1242 -2.3989
v -24.1076 6.4283 -1.9576
v -20.8693 6.6530 -3.7796
v -17.0904 5.3670 -4.3560
v -13.0904 5.1436 -4.1775
v -9.0904 5.5218 -4.0617
v -5.0904 5.2137 -4.6753
v -2.5294 6.2278 -3.5170
v -27.9169 11.7342 -3.1941
v -25.2499 9.9878 -3.2306
v -22.0553 9.2863 -4.5882
v -0.7248 10.7965 -3.5266
v 0.9359 12.3752 -5.0816
v -28.6408 14.4283 -3.1941
v -0.2851 14.4281 -3.5266
v 0.9359 13.0947 -5.0816
v -27.8142 17.3055 -3.1941
v -25.7677 19.3055 -3.1941
v -20.1212 20.2576 -1.3606
v -18.8761 20.2576 -1.3606
v 0.0381 18.4690 -3.3718
v 1.5676 19.8294 -2.1569
v -23.6985 22.0473 -3.5001
v -21.3089 22.0473 -2.0948
v -18.8002 22.4283 -1.4375
v 0.2204 22.4283 -4.5648
v 2.3538 22.4283 -2.5648
v -23.2009 24.5783 -5.0375
v -20.7024 26.0163 -3.1948
v -18.9178 24.7877 -1.3521
v -3.4370 28.0732 -3.1941
v -1.1025 26.4615 -3.3130
v 2.1772 25.6238 -2.0589
v -19.5084 29.3742 -3.1941
v -17.2270 31.5154 -2.9069
v -14.7835 32.3123 -1.3821
v -4.6201 30.4283 -3.1941
v -15.9847 32.6284 -4.0488
v -13.3063 33.0885 -2.9069
v -9.0904 33.6562 -3.1941
v -6.2735 32.9811 -3.1941
v -11.7185 0.1877 0.8059
v -9.4492 0.1686 1.1089
v -6.8805 0.3162 2.6443
v -23.7959 3.5808 0.8059
v -21.0904 2.3356 0.8059
v -17.0904 2.0903 0.8059
v -13.7185 1.3355 0.8059
v -8.3550 1.1518 -0.0224
v -5.0447 2.6380 1.2731
v -2.8688 4.1242 -0.0980
v -27.1265 8.3739 2.6743
v -25.8143 6.7956 1.1269
v -3.2089 4.6181 2.5687
v -2.3834 6.1422 1.0636
v -31.4362 12.0221 1.8864
v -28.8318 10.5434 0.9470
v -26.6896 9.0647 0.0076
v -1.8987 10.4283 0.8059
v -31.4173 14.4283 1.8320
v -30.2954 14.4283 -0.1680
v -2.1834 14.4283 0.8059
v -31.1805 16.7487 2.4269
v -29.1864 17.6322 0.9785
v -24.7512 19.4543 0.4524
v -21.1766 20.0216 0.3615
v -18.8761 20.2576 -0.8271
v -0.6575 17.6642 0.8059
v 1.9701 19.6642 0.8059
v -23.1917 20.4599 -1.1166
v -21.0414 21.5847 0.2415
v -18.8002 22.4283 -0.7400
v 4.1186 22.4804 0.4819
v 5.4989 23.8485 1.5993
v -19.3632 26.1511 0.4006
v -17.8736 26.4472 0.6917
v -15.0146 28.3601 2.6832
v -3.3137 28.3462 -1.0659
v -1.0904 28.2633 -0.3353
v 2.8902 26.5067 0.7110
v 5.4989 24.7230 1.5993
v -19.2560 28.6289 -0.9098
v -17.0904 29.4918 -0.0729
v -13.5657 30.7468 0.8760
v -9.0904 30.9945 1.1775
v -5.0578 29.8822 0.3196
v -1.0904 28.6175 1.6647
v 0.9366 28.4414 2.4894
v -12.1168 32.5994 -0.9312
v -9.0904 32.6555 -0.8225
v -6.8019 32.5601 -0.9616
v -31.1874 -3.6830 6.7032
v -30.8207 -3.6830 6.7032
v -15.7008 -3.9912 6.4104
v -14.0506 -3.9912 6.4104
v -31.1874 -2.7444 6.7032
v -30.8207 -2.7444 6.7032
v -24.3233 -0.8230 5.8989
v -21.0904 -0.7954 5.4163
v -17.0566 -1.3999 5.3572
v -12.9644 -1.5790 4.7382
v -9.0904 -1.0944 4.8059
v -6.5931 -0.0836 4.8059
v -24.7253 2.3725 4.6617
v -21.0904 0.9954 3.4163
v -17.0904 0.7903 3.2917
v -14.5448 0.7287 3.0660
v -4.8715 2.4283 4.8059
v -27.1265 8.3739 2.8809
v -25.6821 6.7956 4.4509
v -3.3688 4.8574 4.8059
v -2.3031 6.8574 4.8059
v -31.4362 12.0221 3.4329
v -28.6800 10.6448 4.4902
v -24.6740 10.4514 6.0810
v -21.0904 11.6304 6.4658
v -18.7814 12.1575 6.5439
v -0.8188 10.4071 4.9634
v 1.1969 11.7264 6.4018
v -31.4173 14.4283 3.4210
v -29.4970 14.4283 5.4210
v -23.4301 12.6129 6.6144
v -21.0904 12.7402 6.4658
v -18.7814 12.6596 6.5439
v -0.7676 14.3315 4.9634
v 1.1969 12.9336 6.4018
v -31.1805 16.7487 2.9990
v -28.7298 17.1442 4.5217
v -25.0904 18.3900 4.8059
v -22.0809 19.7354 4.8059
v -3.8855 20.1091 6.4257
v -1.1895 18.7254 4.9717
v 1.6656 20.0084 3.5176
v -20.6497 22.4283 4.8059
v -11.6114 23.9303 5.6807
v -9.0904 23.2814 5.0608
v -4.8824 22.4532 6.0150
v -1.0904 21.7196 6.0546
v 2.9141 22.4587 4.7139
v 5.4989 23.8485 3.2434
v -19.6592 25.1807 4.8059
v -17.0904 26.7262 4.8059
v -13.3130 26.7920 4.6222
v -9.0904 26.4283 3.6300
v -4.7637 26.0780 4.7031
v -2.1611 27.1778 5.8351
v 3.5795 26.2051 4.6684
v 5.4989 24.7230 3.2434
v -12.3480 29.1812 3.5637
v -9.0904 28.9945 3.3751
v -5.0904 28.6091 3.0786
v -0.9328 28.7428 4.6234
v 1.8072 28.6421 4.8059
v -27.6402 -7.7462 10.6864
v -26.9203 -7.7462 10.6864
v -31.8970 -4.3950 8.8059
v -29.2305 -5.4539 9.1547
v -26.2249 -5.5717 10.3291
v -16.2374 -4.7572 8.8059
v -12.8665 -4.9666 8.5343
v -10.3233 -4.3159 9.6867
v -32.0236 -1.4753 8.5354
v -29.3286 -1.4753 7.5088
v -25.2149 -2.0934 8.6171
v -21.0904 -2.3473 8.8059
v -18.2374 -2.5648 8.8059
v -11.3840 -3.2870 7.0200
v -9.0301 -2.5157 8.5343
v -5.2185 -0.5002 8.8763
v -2.6856 0.0720 10.2566
v -31.5704 0.9120 9.6883
v -29.0904 1.5573 9.0717
v -26.6531 2.6413 8.4890
v -3.9400 2.4283 7.6377
v -2.2135 2.4283 9.6377
v -24.4098 6.7188 8.7405
v -22.8851 8.2457 10.0303
v -3.3431 4.8105 7.1309
v -1.0594 6.4575 8.8277
v 0.9860 8.1044 10.5245
v -27.5669 11.9342 7.0496
v -24.6740 10.4514 7.2066
v -21.2163 10.5630 8.6557
v -18.7814 12.1575 7.2811
v 0.3255 10.2086 9.0017
v 1.0914 10.2086 9.0017
v -27.4970 14.4283 7.0144
v -24.8942 14.1391 7.3564
v -20.9039 13.9696 8.6966
v -18.7814 12.6596 7.2811
v -3.2003 16.3759 10.7580
v -0.9564 14.6547 9.1184
v 1.1969 12.9336 7.4789
v -27.1560 16.4776 6.8402
v -25.0904 17.2544 7.3113
v -21.0982 18.7873 8.9111
v -18.3723 20.0942 10.3769
v -12.2063 19.5859 10.1743
v -9.0904 19.0790 9.5004
v -4.8762 18.4570 8.8941
v -2.3565 17.4424 8.0913
v -20.0086 22.4283 7.8084
v -17.0596 22.1812 9.6528
v -13.2421 22.3068 8.8608
v -9.0904 21.2814 7.5004
v -4.8824 22.4532 6.9362
v -1.0904 23.7196 7.0720
v 1.4960 23.7356 7.1243
v -19.4689 25.0119 7.2382
v -17.0904 25.4627 7.6863
v -14.2780 25.2239 7.5474
v -3.2126 24.5112 6.8422
v -0.9328 26.0780 7.2220
v 2.2268 26.4283 7.2988
v 0.5056 28.7002 7.1446
v 2.0794 28.7002 7.1446
v -31.6014 -8.1647 13.9106
v -29.0203 -8.7455 12.6687
v -26.3621 -8.5941 12.8059
v -19.5735 -7.7804 14.6278
v -17.0904 -8.2692 13.8064
v -13.9661 -8.2930 13.6513
v -35.9750 -4.1601 13.8516
v -33.1684 -5.6925 12.5477
v -30.3069 -7.2249 11.2439
v -24.3175 -5.5732 12.5742
v -20.9802 -5.5732 13.5554
v -17.2418 -5.8684 11.8944
v -12.8158 -6.9931 12.5131
v -9.9467 -4.9775 12.8059
v -36.2988 -1.5717 13.6393
v -34.1842 -1.5717 11.6393
v -23.4399 -3.3638 11.0864
v -21.0904 -3.1237 11.3763
v -18.6761 -3.1822 11.2860
v -7.9467 -2.4514 12.8059
v -4.7655 -0.4892 13.1491
v -2.6856 0.0720 12.0446
v -35.8170 1.0541 14.2047
v -32.9784 1.8785 12.8451
v -29.4217 3.7160 12.8171
v -26.8203 4.1167 11.4913
v -3.2156 0.5458 14.7113
v -1.1725 2.0091 12.9534
v 2.2063 3.4723 13.8622
v -28.3092 4.5596 14.1580
v -25.3283 5.5294 12.8171
v -22.4250 7.7062 12.8059
v 0.3406 5.4377 11.1956
v 1.9501 6.6339 12.6397
v -21.3595 10.4283 12.8059
v -11.1048 12.4066 14.7872
v -10.9571 12.4066 14.7872
v -0.2060 10.9003 12.8059
v 1.2377 8.9003 12.8059
v -20.5533 14.4283 12.8059
v -15.4873 16.2670 14.6107
v -12.9982 14.3568 14.6990
v -9.4100 13.8264 14.3301
v -4.7563 15.0329 12.6461
v -2.2060 13.6006 12.8059
v -19.6188 17.3853 12.8059
v -16.9298 18.3997 12.7797
v -13.5490 18.2448 12.7797
v -9.1539 17.2341 12.6461
v -5.8670 16.8050 11.2062
v -15.7057 20.6832 10.9487
v -14.8729 20.6832 10.9487
v -19.2550 -11.7566 18.6749
v -17.0904 -11.8256 18.4062
v -14.6789 -11.7254 18.4040
v -36.1040 -7.8452 18.4644
v -32.9970 -8.6670 17.0010
v -29.0175 -9.2162 16.8702
v -26.2895 -8.7605 15.5798
v -19.7642 -9.2969 17.1273
v -17.0904 -10.2692 16.4062
v -12.9892 -9.3100 17.1124
v -10.8645 -7.6602 18.4875
v -40.1066 -4.7678 17.8690
v -37.3728 -5.7973 16.8334
v -34.2681 -6.8267 15.7977
v -27.7023 -5.5717 18.1451
v -25.0098 -5.5732 16.1608
v -21.3827 -5.5732 16.6894
v -11.2995 -7.3686 15.8209
v -9.2652 -5.9317 17.0133
v -6.5150 -4.4948 18.2057
v -40.1066 -2.7531 17.8690
v -37.8403 -1.4805 16.6438
v -27.3407 -1.5717 18.5242
v -25.0904 -1.5717 17.6775
v -21.3676 -1.5717 17.9592
v -7.6658 -2.7904 15.5390
v -4.8653 -1.6010 16.5313
v -1.0904 -0.2114 17.8007
v 0.9187 0.4153 18.7479
v -35.8644 1.0249 16.8059
v -33.0904 2.4463 16.8059
v -29.0646 2.7092 16.9859
v -25.2052 2.1447 18.0610
v -21.9312 0.6223 18.5377
v -3.2156 0.5458 14.8570
v -1.0904 0.7995 15.8007
v 1.7157 2.2547 17.1711
v -28.3092 4.5596 15.2199
v -24.9426 6.1039 16.8100
v -22.4085 7.6481 15.7335
v -11.0982 8.4203 18.7976
v -11.0757 8.4203 18.7976
v 2.6890 6.4283 16.8059
v -23.2702 9.0977 18.4001
v -21.1438 10.7035 17.2064
v -17.7979 12.3094 18.6793
v -11.9017 10.8153 17.2009
v -9.6831 10.7589 16.9486
v -5.0904 11.0816 17.2159
v -1.3034 10.6555 16.5577
v 1.6881 9.0713 16.8059
v -19.8331 14.4283 15.8396
v -16.6426 14.3487 16.8284
v -13.2957 14.0822 16.1412
v -9.4100 13.8264 15.1772
v -5.0904 12.7233 15.2159
v -2.7788 12.7104 15.0589
v -19.2919 16.7052 14.9775
v -18.1539 16.7052 14.9775
v -12.2250 16.9038 15.2550
v -10.5296 16.9038 15.2550
v -19.2460 -15.6246 22.7253
v -19.0073 -15.6246 22.7253
v -35.2135 -11.6353 22.7179
v -33.0904 -11.6336 22.6430
v -31.0321 -11.5907 22.6766
v -23.3527 -11.9174 22.6330
v -20.5838 -13.1703 21.3458
v -17.4405 -13.6560 21.1575
v -13.2435 -12.0451 20.9511
v -10.6654 -11.7384 22.3813
v -39.6136 -8.1495 21.6496
v -36.9921 -9.3307 20.8504
v -33.0904 -10.4961 20.6430
v -30.3271 -9.7472 21.1283
v -23.3527 -11.2465 22.6330
v -21.5430 -9.7766 21.1021
v -12.0122 -10.3269 19.7147
v -9.4317 -9.0428 21.0479
v -6.9333 -7.7587 22.3811
v -43.1641 -3.7413 22.3374
v -41.1934 -5.5879 20.6601
v -37.0086 -5.5563 20.8184
v -34.8641 -3.6781 22.6538
v -29.0820 -5.5717 20.8059
v -19.9616 -5.2529 20.9206
v -18.9237 -3.7070 22.3305
v -8.1979 -7.1614 19.7145
v -6.1799 -5.7255 20.9510
v -43.1641 -3.2139 22.3374
v -41.3001 -2.5017 20.9248
v -36.6545 -1.5256 20.7965
v -33.3546 -1.6983 21.5235
v -29.4499 -1.6983 20.7347
v -19.3676 -1.5717 19.4716
v -17.3904 -1.1942 21.7208
v -15.0114 0.3908 22.7765
v -4.0701 -2.6485 20.8059
v -1.2892 -0.4409 20.4157
v 0.9187 0.4153 18.8222
v -35.3958 0.5980 18.9392
v -33.0904 0.9964 19.3169
v -29.8200 1.0160 19.3539
v -23.9484 3.2890 19.3584
v -20.7949 2.1447 19.5033
v -17.0904 2.4283 20.6160
v -13.4430 2.2226 21.8009
v -9.0904 3.6209 22.1526
v -5.0904 3.7546 22.1027
v -1.2892 2.3295 20.7045
v 0.9447 2.4283 18.8380
v -23.8687 6.4283 19.3996
v -21.0904 6.4283 20.3337
v -17.0904 6.4283 20.8672
v -12.6951 6.8235 20.0205
v -9.4816 6.8235 20.0716
v -5.0904 6.4283 20.4585
v -1.0904 6.4283 19.5522
v 1.4456 6.4283 19.0906
v -23.2702 9.0977 19.0450
v -21.0904 9.8411 19.4843
v -16.7149 10.7569 19.8084
v -14.0937 10.4283 19.5600
v -8.4090 9.1113 19.1197
v -5.0904 9.0816 19.1617
v -1.0904 8.9373 19.1912
v 1.5866 8.9189 19.1590
v -15.1312 12.4303 18.8081
v -15.0871 12.4303 18.8081
v -27.1131 -15.6125 26.7714
v -25.0904 -15.9081 26.3530
v -20.7838 -16.3804 24.8642
v -17.4405 -16.7988 24.9495
v -13.0904 -16.4321 26.4634
v -10.8502 -15.6137 26.7766
v -35.7508 -11.9014 24.8059
v -33.2053 -11.8469 24.4371
v -29.0726 -13.4623 24.8147
v -25.0571 -13.6257 25.1706
v -21.9127 -14.5840 23.5698
v -16.3406 -14.7070 23.7118
v -13.0904 -14.0482 24.4634
v -9.4245 -13.2453 25.3423
v -6.9795 -12.0855 26.5747
v -39.6049 -8.3718 24.8059
v -36.9716 -9.4176 25.5063
v -33.2053 -9.5159 25.5864
v -30.7273 -9.5717 23.5559
v -24.0404 -10.8275 24.8059
v -22.3464 -8.8275 24.8059
v -7.9988 -10.4254 23.9080
v -5.6230 -9.0051 25.3447
v -3.0842 -7.5847 26.7815
v -43.1641 -3.7413 22.9433
v -40.7667 -5.3850 24.6552
v -36.9229 -5.3533 25.0703
v -33.3546 -5.2355 24.1006
v -30.4701 -5.5717 23.6985
v -20.3464 -5.9175 24.8059
v -18.5822 -3.9175 24.8059
v -4.2350 -5.9126 25.1912
v -3.0842 -7.4732 26.7815
v -43.1641 -3.2139 22.9433
v -41.0904 -2.8482 23.5798
v -37.9132 -2.9648 23.7004
v -32.1974 -3.1161 23.0482
v -30.6891 -3.1161 23.0482
v -16.5822 -2.1305 24.8059
v -13.4430 -0.1689 24.8244
v -10.3309 0.1780 26.1702
v -3.6390 -2.8902 24.8059
v -2.4216 -0.8902 24.8059
v -12.3447 0.7521 23.5035
v -9.0347 1.4696 24.8244
v -5.0904 2.4012 24.8059
v -2.4216 1.3423 24.8059
v -19.3077 -27.7010 30.6821
v -18.8791 -27.7010 30.6821
v -19.3077 -26.4672 30.6821
v -18.8791 -26.4672 30.6821
v -24.3054 -20.4181 30.4106
v -21.0904 -21.1494 29.8231
v -17.0904 -20.9710 29.3034
v -13.0904 -20.0306 29.9865
v -11.0822 -19.5750 30.8015
v -27.1131 -15.6125 26.9986
v -25.5348 -17.1293 28.7046
v -21.0904 -18.5429 27.8231
v -17.0904 -19.0659 27.3034
v -13.0904 -18.4321 27.9865
v -10.3926 -17.1969 29.2032
v -35.8479 -11.9478 27.0883
v -34.6152 -11.9478 27.0883
v -27.1131 -15.3339 26.9986
v -26.3282 -13.8290 28.5215
v -8.2243 -14.6711 28.8059
v -6.1601 -12.6711 28.8059
v -39.2531 -8.0607 26.9109
v -37.2236 -9.4363 26.9996
v -34.6152 -10.8120 27.0883
v -24.3822 -10.4788 28.8059
v -22.2471 -8.4788 28.8059
v -4.2603 -9.1795 28.4576
v -3.0842 -7.5847 26.8922
v -39.2531 -7.0286 26.9109
v -38.5993 -7.0286 26.9109
v -20.2471 -6.3936 28.8059
v -17.1839 -4.7419 28.7322
v -13.9428 -4.4263 30.0164
v -8.1864 -4.5344 30.2399
v -4.7771 -6.0038 28.5660
v -3.0842 -7.4732 26.8922
v -15.9129 -2.9460 27.3497
v -12.8019 -2.4810 28.7322
v -9.2586 -1.6424 28.5968
v -4.8003 -1.8690 27.6900
v -2.5340 -0.7339 27.3642
v -7.6642 0.5737 26.9538
v -5.0904 1.0749 27.3355
v -2.5340 1.1450 27.3642
v -31.1594 -35.6358 34.7691
v -29.0904 -35.8359 34.6062
v -26.5073 -35.8599 34.5764
v -31.2577 -33.5717 34.6987
v -29.0904 -33.5717 34.2266
v -25.1405 -33.5298 34.2991
v -22.8468 -32.1684 34.5906
v -31.2444 -30.7861 34.6997
v -29.3350 -29.5003 34.0997
v -25.0904 -29.5717 33.5118
v -21.0773 -29.0135 33.1452
v -18.4722 -27.7345 32.8059
v -28.2995 -25.5717 33.7249
v -25.0904 -25.5717 32.6255
v -20.8208 -25.3090 31.6096
v -17.3449 -25.5667 32.5469
v -13.0904 -24.4458 34.2782
v -11.0293 -23.6426 34.7590
v -27.6437 -21.5717 33.3388
v -25.4194 -21.6796 31.4163
v -21.0904 -23.1494 31.1401
v -17.0904 -22.9710 31.4174
v -13.0904 -22.0306 32.2782
v -10.5611 -21.1737 33.1778
v -27.2903 -19.1981 33.6202
v -26.4535 -17.7475 32.4945
v -9.2344 -17.5717 32.8059
v -24.5554 -13.4846 32.8921
v -21.0904 -12.4223 34.2315
v -18.6006 -12.1844 34.5629
v -7.8035 -13.7429 33.1091
v -5.9609 -12.5238 31.9779
v -23.8085 -10.7817 31.6163
v -21.0797 -9.4977 32.1373
v -17.1965 -9.4765 33.8348
v -14.7309 -8.0797 34.4455
v -7.8232 -9.5717 33.9384
v -5.6359 -9.5717 31.9384
v -19.7392 -7.0083 31.1241
v -17.0904 -6.7901 31.7742
v -13.5516 -5.6845 32.9896
v -8.8893 -5.7493 32.6087
v -6.2806 -7.2011 31.1438
v -11.4366 -3.3676 32.8059
v -10.7378 -3.3676 32.8059
v -19.6517 -47.6794 38.5815
v -18.5393 -47.6794 38.5815
v -23.9646 -44.5649 38.2213
v -21.0272 -45.7676 37.9034
v -17.1598 -45.5984 38.1089
v -14.4549 -44.2828 38.5638
v -27.4525 -39.6277 38.7828
v -25.4013 -40.9929 38.5020
v -21.0904 -42.0069 37.8460
v -17.0904 -42.6380 38.1029
v -14.4549 -43.1995 38.5638
v -31.6207 -36.5522 36.8059
v -28.9077 -38.1290 37.1920
v -25.8697 -37.3446 37.1920
v -20.0749 -36.0776 38.6427
v -18.0374 -36.0776 38.6427
v -31.9181 -33.5717 36.8059
v -23.7539 -34.9064 36.8059
v -21.4609 -33.7948 37.3323
v -18.1661 -33.5717 38.5956
v -31.3470 -29.5003 36.9871
v -30.8314 -28.1194 35.7745
v -20.1802 -30.3261 36.0219
v -17.3609 -29.1540 36.9011
v -14.7682 -27.9819 37.7803
v -31.1216 -27.5016 38.4412
v -29.8641 -25.9297 36.9871
v -15.8108 -27.3329 35.1137
v -12.9600 -25.4878 36.6835
v -11.0293 -23.6426 35.5867
v -27.7395 -21.6265 36.7282
v -26.5061 -20.3297 38.0098
v -11.1517 -23.4836 38.2534
v -10.2063 -21.9188 36.8744
v -27.2903 -19.1981 35.3431
v -25.1564 -17.5536 36.9562
v -21.0904 -16.5244 37.8235
v -17.9238 -16.5045 37.7327
v -9.2355 -17.5717 36.8059
v -23.8068 -14.7599 35.9026
v -21.0904 -14.4223 35.8235
v -16.9289 -13.7901 36.4520
v -13.0904 -13.0776 37.5573
v -9.7591 -13.6820 36.7878
v -15.9339 -10.7463 35.1713
v -13.2747 -9.4765 35.6275
v -9.8232 -9.5717 35.5588
v -12.0276 -5.5717 35.2302
v -10.5171 -5.5717 35.2302
v -11.3662 -3.4086 35.0042
v -10.8576 -3.4086 35.0042
v -27.4899 -47.7529 42.1519
v -26.2885 -47.7529 42.1519
v -19.6517 -47.6794 39.0818
v -16.9436 -47.6914 40.6821
v -13.0904 -47.8067 42.1840
v -10.7527 -47.7534 42.5001
v -28.1224 -45.5717 41.7260
v -25.1265 -45.8802 40.7526
v -21.0272 -46.7416 40.5714
v -16.9436 -46.9270 40.6821
v -13.1091 -45.5984 40.3975
v -10.5142 -45.5717 42.1879
v -31.9838 -40.6063 41.5536
v -29.0931 -41.4504 40.4535
v -25.4013 -40.9929 39.1438
v -21.0904 -40.0069 39.8099
v -17.4609 -40.9098 41.1321
v -13.1091 -42.9411 40.8949
v -10.6599 -43.4179 42.2876
v -32.2604 -37.9176 40.4545
v -30.1192 -39.4816 38.8870
v -24.0019 -37.5717 39.0815
v -21.2811 -37.4752 39.7526
v -18.0006 -37.4752 41.1321
v -32.4687 -33.5717 40.8059
v -23.2249 -35.4212 39.0450
v -22.7416 -35.4212 39.0450
v -16.3224 -33.3371 41.0616
v -14.9423 -31.8473 42.5655
v -31.5778 -29.5888 40.4485
v -30.3079 -28.2669 41.5436
v -16.2443 -30.6486 39.8988
v -14.6060 -29.4178 41.0616
v -31.1216 -27.5016 38.8770
v -28.8712 -25.6097 40.7101
v -26.9561 -23.7178 42.5432
v -12.9373 -25.5717 40.8059
v -27.4345 -22.9964 39.8765
v -25.9192 -21.6265 41.0483
v -19.9797 -19.8562 42.3483
v -17.0904 -19.8475 42.4188
v -12.6512 -21.5692 41.0228
v -10.4910 -20.8169 39.2983
v -23.7271 -18.7810 40.8059
v -21.2240 -18.6988 40.9313
v -16.5807 -17.9205 41.2145
v -13.0656 -17.8306 42.0248
v -10.3994 -17.5717 39.8734
v -15.3258 -15.1254 40.8059
v -13.0656 -14.9249 40.9644
v -10.7685 -15.0888 39.7368
v -27.4691 -47.7343 44.8059
v -26.4415 -47.7343 44.8059
v -15.3479 -47.7034 43.1490
v -13.0904 -47.8067 43.6457
v -10.7527 -47.7534 43.5825
v -31.8587 -44.2955 45.7331
v -29.5793 -45.6060 44.5622
v -24.4415 -46.3098 44.8059
v -21.0904 -45.1189 44.8059
v -16.7521 -45.4444 44.8120
v -13.1061 -45.6044 45.6792
v -9.3729 -45.4141 44.9903
v -6.9661 -43.8688 46.3981
v -32.7447 -41.7925 44.5622
v -30.7336 -43.2730 43.0664
v -16.5078 -41.6568 45.0073
v -13.1061 -42.9173 45.0073
v -9.2321 -42.9839 44.9612
v -6.9661 -43.1577 46.3981
v -32.5349 -37.1963 45.1773
v -31.0147 -35.6127 46.7583
v -17.3973 -37.5717 44.8059
v -31.8083 -33.5717 44.1816
v -30.2636 -33.5717 46.1816
v -15.9250 -34.1889 44.8059
v -14.7978 -32.1889 44.8059
v -31.6291 -30.9335 43.3545
v -28.8525 -29.7455 44.6719
v -26.2144 -28.5575 45.9893
v -14.5152 -29.5717 44.8059
v -27.6413 -26.3845 43.3226
v -25.8785 -25.2594 44.7159
v -15.4538 -24.6240 46.4077
v -14.3006 -25.8031 44.9670
v -24.0640 -21.7752 44.4711
v -21.2240 -20.8213 44.4711
v -16.9084 -21.8678 44.9670
v -14.1508 -22.3216 43.7411
v -23.1903 -19.5133 42.9147
v -22.6464 -19.5133 42.9147
v -15.2376 -16.6699 42.9204
v -14.3825 -16.6699 42.9204
v -15.2376 -15.1526 42.9204
v -14.3825 -15.1526 42.9204
v -31.3145 -47.7676 50.4786
v -28.7537 -47.9063 49.0095
v -26.4610 -47.8430 48.8059
v -32.1938 -45.6060 49.0095
v -29.8625 -46.9622 47.8120
v -24.4610 -46.2131 48.8059
v -20.8922 -44.3323 48.9965
v -18.1563 -43.9843 47.7902
v -11.7833 -44.2928 47.0350
v -9.0904 -44.3353 47.3293
v -6.9661 -43.8688 47.2746
v -33.7667 -41.5717 48.8059
v -19.3640 -41.5717 50.5291
v -17.8989 -41.5717 48.5291
v -11.7833 -43.1598 47.0350
v -9.0904 -42.9523 47.3293
v -6.9661 -43.1577 47.2746
v -32.5555 -37.9206 48.8059
v -30.7468 -35.9206 48.8059
v -19.1189 -39.5507 50.7858
v -17.0101 -37.5831 49.3899
v -15.0375 -35.6154 50.6606
v -28.5995 -33.6050 48.6293
v -25.0904 -32.1380 50.0210
v -22.9800 -31.6045 50.7204
v -15.5842 -34.7857 47.9939
v -14.8840 -33.5001 49.1187
v -27.3971 -31.2241 47.1782
v -24.6990 -30.0074 48.9493
v -22.9800 -31.4573 50.7204
v -16.1944 -28.8465 49.5567
v -14.8919 -29.9366 48.4563
v -23.6150 -25.8971 48.5524
v -21.0904 -25.2286 49.5082
v -17.1574 -25.9313 48.5274
v -15.0507 -27.2907 46.8900
v -23.4142 -23.2442 47.0501
v -21.0904 -22.9203 47.5082
v -18.1204 -23.0308 47.4980
v -32.0817 -51.8321 54.6151
v -30.3805 -51.8321 54.6151
v -32.5282 -49.2893 53.0914
v -29.0645 -50.0174 53.0914
v -26.2052 -48.4819 52.8059
v -33.2805 -45.5717 52.8059
v -24.2052 -46.4335 52.8059
v -22.0111 -44.4335 52.8059
v -33.1541 -41.5717 52.8059
v -20.7982 -41.5717 52.8059
v -32.0177 -38.6510 52.8059
v -29.2609 -36.5326 53.1231
v -25.0904 -36.3642 54.2144
v -20.9484 -38.0083 53.0478
v -17.0904 -36.5887 51.7050
v -15.0375 -35.6154 50.8704
v -28.0413 -34.9606 52.0012
v -25.0904 -34.1380 52.2144
v -21.4241 -33.1914 52.0510
v -17.0904 -33.5717 51.9291
v -15.0140 -33.5717 50.8848
v -23.1835 -28.7906 50.9252
v -21.4241 -29.9030 51.1254
v -17.3528 -29.9366 51.0782
v -15.0414 -31.5132 50.8466
v -23.1835 -27.4474 50.9252
v -21.0904 -27.2286 51.0117
v -18.8611 -27.2386 50.9609
v -35.2410 -59.6033 58.7680
v -33.0904 -59.6105 58.7554
v -31.0738 -59.5919 58.7765
v -39.7378 -56.3213 58.4043
v -36.7808 -57.6215 58.3195
v -32.7407 -57.5936 58.5429
v -31.0738 -58.9414 58.7765
v -39.8548 -53.5717 58.1357
v -37.0904 -53.5717 56.9694
v -32.9613 -53.6730 56.6950
v -30.0088 -52.7237 56.8059
v -39.4623 -51.0163 58.3139
v -37.0514 -49.6384 57.1391
v -34.7195 -49.5717 55.0914
v -28.0088 -50.5883 56.8059
v -26.5401 -48.5883 56.8059
v -35.6921 -46.9865 57.7039
v -34.0693 -45.6206 56.5447
v -24.8431 -45.3643 56.7580
v -22.6484 -43.8927 55.3928
v -32.2914 -41.5717 56.8059
v -24.5654 -41.5717 57.5592
v -22.5246 -41.5717 55.5592
v -31.4535 -39.2442 56.8059
v -29.0904 -38.1590 56.8059
v -25.2774 -38.4401 56.6564
v -22.7780 -39.1326 55.2234
v -43.2399 -63.6716 62.6532
v -42.7830 -63.6716 62.6532
v -43.4073 -61.5717 62.4825
v -41.3060 -61.5506 62.0540
v -36.7808 -60.3277 60.7127
v -33.1214 -59.9609 60.4329
v -31.0738 -59.5919 58.8509
v -43.3635 -58.4569 62.5274
v -41.3720 -57.3891 60.9224
v -37.9077 -58.9880 59.3173
v -31.4915 -57.4459 60.2213
v -30.6529 -57.4460 60.2213
v -41.0634 -53.5717 60.8059
v -31.1742 -55.5139 58.9251
v -29.6697 -53.9370 60.4774
v -39.6409 -50.6506 60.8059
v -37.9146 -48.6506 60.8059
v -28.2638 -49.4525 60.7193
v -26.7610 -48.0397 59.3282
v -35.9146 -46.9524 60.8059
v -32.9596 -45.2288 60.7069
v -29.1695 -45.7243 61.0977
v -26.5845 -45.5717 59.2943
v -31.5061 -41.5717 59.2832
v -29.0904 -41.5717 59.4809
v -26.5654 -41.5717 59.0035
v -31.1960 -39.4536 58.9406
v -29.0904 -39.2761 59.0078
v -26.7355 -39.2956 58.9404
v -43.8481 -64.0347 64.8059
v -42.1126 -64.0347 64.8059
v -44.8844 -61.5717 64.8059
v -40.1126 -62.8509 64.8059
v -36.7473 -60.9532 65.1282
v -34.4754 -60.1686 64.0098
v -44.1959 -57.3028 64.4728
v -43.0063 -55.7903 62.9174
v -35.1852 -59.3949 66.6764
v -33.1214 -58.3129 65.1282
v -29.9024 -56.1308 64.8059
v -43.5510 -55.0503 65.5840
v -42.0522 -53.6589 64.4728
v -35.1339 -51.6489 66.7519
v -33.0904 -52.1146 66.4091
v -29.6737 -53.5597 64.9208
v -39.7972 -49.5681 64.9176
v -36.5929 -48.9977 65.3115
v -33.0904 -49.5717 65.5811
v -30.1064 -49.5717 63.8360
v -39.2479 -47.4388 66.3254
v -36.8215 -47.3850 65.0894
v -33.0904 -47.0820 63.9779
v -30.5556 -47.1593 63.3211
v -47.3569 -63.9610 70.1200
v -45.2069 -64.2852 68.7943
v -41.6653 -64.1715 68.8059
v -47.6376 -61.5717 69.5359
v -46.5676 -61.5717 67.5359
v -39.6653 -62.6576 68.8059
v -38.0883 -60.6576 68.8059
v -47.5535 -58.3627 69.7984
v -45.2084 -57.6052 68.5846
v -42.0737 -56.8478 70.0375
v -36.3668 -57.8657 68.8619
v -33.0904 -56.7142 67.5449
v -30.3648 -55.9384 67.0312
v -43.5510 -55.0503 67.3708
v -40.9112 -53.8321 68.7552
v -36.8438 -53.4647 68.8528
v -33.0904 -54.1146 67.5449
v -30.3648 -54.8850 67.0312
v -39.7022 -49.5717 67.4449
v -37.3467 -49.5717 67.4449
v -39.2479 -47.4388 66.9908
v -38.0553 -47.4388 66.9908
v -47.3569 -63.9610 71.1312
v -45.0904 -64.0755 71.3670
v -42.1866 -63.8540 71.2287
v -47.6376 -61.5717 71.5523
v -45.0904 -61.5717 71.8977
v -40.9481 -61.3960 71.1158
v -38.9928 -59.9455 70.8620
v -47.5535 -58.3627 71.4758
v -45.0904 -58.6220 71.3365
v -40.8804 -57.9373 70.9545
v -38.6147 -57.5717 70.9634
v -39.4071 -55.2806 70.9598
v -38.5538 -55.2806 70.9598
f 3 2 1
f 3 4 2
f 6 5 4
f 6 7 5
f 2 8 1
f 2 9 8
f 8 3 1
f 8 12 3
f 13 9 2
f 13 2 4
f 13 4 3
f 13 3 12
f 5 13 4
f 5 14 13
f 14 9 13
f 14 10 9
f 15 12 11
f 15 16 12
f 13 6 4
f 13 17 6
f 17 12 16
f 17 13 12
f 14 5 7
f 14 7 18
f 18 7 6
f 18 6 17
f 19 17 16
f 19 20 17
f 20 18 17
f 20 21 18
f 23 21 20
f 23 24 21
f 26 22 25
f 26 23 22
f 27 23 26
f 27 24 23
f 28 26 25
f 28 29 26
f 30 26 29
f 30 27 26
f 35 31 34
f 35 32 31
f 36 32 35
f 36 33 32
f 38 34 37
f 38 35 34
f 41 8 9
f 41 40 8
f 10 41 9
f 10 42 41
f 46 8 40
f 46 12 8
f 46 11 12
f 46 45 11
f 46 39 45
f 46 40 39
f 47 42 10
f 47 10 14
f 47 43 42
f 47 48 43
f 48 44 43
f 48 49 44
f 45 15 11
f 45 50 15
f 51 16 15
f 51 15 50
f 47 14 18
f 47 18 52
f 53 47 52
f 53 48 47
f 54 48 53
f 54 49 48
f 51 19 16
f 51 56 19
f 55 51 50
f 55 56 51
f 57 20 19
f 57 19 56
f 52 18 21
f 52 21 58
f 59 52 58
f 59 53 52
f 62 20 57
f 62 23 20
f 62 22 23
f 62 61 22
f 62 56 61
f 62 57 56
f 58 21 24
f 58 24 63
f 63 59 58
f 63 64 59
f 67 22 61
f 67 25 22
f 67 60 66
f 67 61 60
f 68 63 24
f 68 24 27
f 68 64 63
f 68 69 64
f 76 65 75
f 76 66 65
f 67 28 25
f 67 77 28
f 76 67 66
f 76 77 67
f 78 29 28
f 78 28 77
f 68 27 30
f 68 30 79
f 30 29 78
f 30 78 79
f 79 69 68
f 79 80 69
f 80 70 69
f 80 81 70
f 84 31 32
f 84 83 31
f 33 84 32
f 33 85 84
f 85 71 84
f 85 72 71
f 85 73 72
f 85 86 73
f 88 74 87
f 88 75 74
f 89 80 79
f 89 90 80
f 90 81 80
f 90 91 81
f 93 31 83
f 93 34 31
f 93 82 92
f 93 83 82
f 95 85 33
f 95 33 36
f 36 35 94
f 36 94 95
f 96 85 95
f 96 86 85
f 97 86 96
f 97 87 86
f 98 91 90
f 98 99 91
f 93 37 34
f 93 101 37
f 100 93 92
f 100 101 93
f 94 35 38
f 94 38 102
f 38 37 101
f 38 101 102
f 103 94 102
f 103 95 94
f 103 96 95
f 103 104 96
f 105 96 104
f 105 97 96
f 107 100 106
f 107 101 100
f 108 103 102
f 108 109 103
f 110 103 109
f 110 104 103
f 40 111 39
f 40 112 111
f 41 112 40
f 41 113 112
f 42 113 41
f 42 114 113
f 43 114 42
f 43 115 114
f 44 115 43
f 44 116 115
f 111 45 39
f 111 117 45
f 118 117 111
f 118 111 112
f 119 116 44
f 119 44 49
f 117 50 45
f 117 120 50
f 119 49 54
f 119 54 122
f 54 53 121
f 54 121 122
f 120 55 50
f 120 123 55
f 124 56 55
f 124 55 123
f 121 53 59
f 121 59 125
f 124 61 56
f 124 129 61
f 129 60 61
f 129 128 60
f 129 123 128
f 129 124 123
f 130 125 59
f 130 59 64
f 130 126 125
f 130 131 126
f 136 60 128
f 136 66 60
f 136 65 66
f 136 135 65
f 136 127 135
f 136 128 127
f 130 64 69
f 130 69 137
f 70 137 69
f 70 138 137
f 138 130 137
f 138 131 130
f 139 131 138
f 139 132 131
f 140 134 133
f 140 141 134
f 143 71 72
f 143 142 71
f 73 143 72
f 73 144 143
f 146 65 135
f 146 75 65
f 146 74 75
f 146 145 74
f 147 76 75
f 147 75 146
f 148 77 76
f 148 76 147
f 149 78 77
f 149 77 148
f 150 79 78
f 150 78 149
f 152 138 70
f 152 70 81
f 152 151 137
f 152 137 138
f 155 82 83
f 155 154 82
f 155 140 154
f 155 141 140
f 156 71 142
f 156 84 71
f 156 83 84
f 156 155 83
f 156 141 155
f 156 142 141
f 157 144 73
f 157 73 86
f 158 74 145
f 158 87 74
f 87 157 86
f 87 158 157
f 157 145 144
f 157 158 145
f 146 75 88
f 146 88 159
f 88 87 158
f 88 158 159
f 159 147 146
f 159 160 147
f 161 147 160
f 161 148 147
f 161 149 148
f 161 162 149
f 150 89 79
f 150 163 89
f 162 150 149
f 162 163 150
f 164 90 89
f 164 89 163
f 152 81 91
f 152 91 165
f 165 164 151
f 165 151 152
f 167 82 154
f 167 92 82
f 167 153 166
f 167 154 153
f 158 87 97
f 158 97 168
f 168 159 158
f 168 169 159
f 170 159 169
f 170 160 159
f 171 163 162
f 171 172 163
f 164 98 90
f 164 173 98
f 173 163 172
f 173 164 163
f 174 165 91
f 174 91 99
f 174 99 98
f 174 98 173
f 174 173 164
f 174 164 165
f 176 92 167
f 176 100 92
f 176 166 175
f 176 167 166
f 102 101 177
f 102 177 178
f 168 97 105
f 168 105 180
f 105 104 179
f 105 179 180
f 181 168 180
f 181 169 168
f 183 172 182
f 183 173 172
f 176 106 100
f 176 185 106
f 184 176 175
f 184 185 176
f 177 101 107
f 177 107 186
f 186 107 106
f 186 106 185
f 178 108 102
f 178 187 108
f 187 177 186
f 187 178 177
f 188 109 108
f 188 108 187
f 179 104 110
f 179 110 189
f 110 109 188
f 110 188 189
f 190 181 180
f 190 191 181
f 192 186 185
f 192 193 186
f 194 186 193
f 194 187 186
f 194 188 187
f 194 195 188
f 196 188 195
f 196 189 188
f 197 194 193
f 197 198 194
f 199 194 198
f 199 195 194
f 113 203 112
f 113 204 203
f 205 113 114
f 205 204 113
f 205 200 204
f 205 201 200
f 206 114 115
f 206 205 114
f 205 202 201
f 205 206 202
f 207 115 116
f 207 206 115
f 203 118 112
f 203 209 118
f 118 208 117
f 118 209 208
f 210 209 203
f 210 203 204
f 207 116 119
f 207 119 211
f 208 120 117
f 208 214 120
f 215 214 208
f 215 208 209
f 211 119 122
f 211 122 217
f 122 121 216
f 122 216 217
f 217 212 211
f 217 218 212
f 218 213 212
f 218 219 213
f 220 120 214
f 220 123 120
f 221 216 121
f 221 121 125
f 126 221 125
f 126 222 221
f 222 216 221
f 222 217 216
f 223 217 222
f 223 218 217
f 224 218 223
f 224 219 218
f 226 123 220
f 226 128 123
f 226 127 128
f 226 225 127
f 227 222 126
f 227 126 131
f 132 227 131
f 132 228 227
f 227 223 222
f 227 228 223
f 134 230 133
f 134 231 230
f 235 127 225
f 235 135 127
f 138 137 236
f 138 236 237
f 228 132 139
f 228 139 238
f 139 138 237
f 139 237 238
f 238 229 228
f 238 239 229
f 230 140 133
f 230 240 140
f 231 134 141
f 231 141 241
f 240 230 231
f 240 231 241
f 242 141 142
f 242 241 141
f 143 242 142
f 143 243 242
f 242 233 232
f 242 243 233
f 244 143 144
f 244 243 143
f 145 244 144
f 145 245 244
f 246 135 235
f 246 146 135
f 246 145 146
f 246 245 145
f 246 234 245
f 246 235 234
f 236 137 151
f 236 151 247
f 248 236 247
f 248 237 236
f 251 140 240
f 251 154 140
f 251 153 154
f 251 250 153
f 252 251 240
f 252 240 241
f 161 160 253
f 161 253 254
f 162 161 254
f 162 254 255
f 257 247 151
f 257 151 164
f 259 153 250
f 259 166 153
f 258 250 249
f 258 259 250
f 253 160 170
f 253 170 261
f 170 169 260
f 170 260 261
f 262 253 261
f 262 254 253
f 255 171 162
f 255 263 171
f 172 171 263
f 172 263 264
f 263 255 256
f 263 256 264
f 257 164 173
f 257 173 265
f 266 166 259
f 266 175 166
f 268 180 179
f 268 179 267
f 260 169 181
f 260 181 269
f 270 260 269
f 270 261 260
f 271 172 264
f 271 182 172
f 265 173 183
f 265 183 272
f 183 182 271
f 183 271 272
f 271 264 265
f 271 265 272
f 266 184 175
f 266 273 184
f 274 185 184
f 274 184 273
f 267 179 189
f 267 189 275
f 268 190 180
f 268 276 190
f 276 267 275
f 276 268 267
f 269 181 191
f 269 191 277
f 277 191 190
f 277 190 276
f 274 192 185
f 274 279 192
f 278 274 273
f 278 279 274
f 280 193 192
f 280 192 279
f 275 189 196
f 275 196 282
f 196 195 281
f 196 281 282
f 280 197 193
f 280 283 197
f 284 198 197
f 284 197 283
f 281 195 199
f 281 199 285
f 199 198 284
f 199 284 285
f 287 200 201
f 287 286 200
f 288 201 202
f 288 287 201
f 289 200 286
f 289 204 200
f 290 289 286
f 290 286 287
f 288 202 206
f 288 206 291
f 290 287 288
f 290 288 291
f 292 206 207
f 292 291 206
f 289 210 204
f 289 294 210
f 210 293 209
f 210 294 293
f 292 207 211
f 292 211 296
f 295 291 292
f 295 292 296
f 212 296 211
f 212 297 296
f 298 212 213
f 298 297 212
f 293 215 209
f 293 300 215
f 215 299 214
f 215 300 299
f 298 213 219
f 298 219 302
f 301 297 298
f 301 298 302
f 299 220 214
f 299 303 220
f 302 219 224
f 302 224 305
f 224 223 304
f 224 304 305
f 307 220 303
f 307 226 220
f 226 306 225
f 226 307 306
f 304 223 228
f 304 228 308
f 229 308 228
f 229 309 308
f 309 304 308
f 309 305 304
f 233 310 232
f 233 311 310
f 313 225 306
f 313 235 225
f 313 234 235
f 313 312 234
f 238 237 314
f 238 314 315
f 316 309 229
f 316 229 239
f 239 238 315
f 239 315 316
f 316 315 308
f 316 308 309
f 310 242 232
f 310 318 242
f 242 317 241
f 242 318 317
f 311 233 243
f 311 243 319
f 318 310 311
f 318 311 319
f 244 319 243
f 244 320 319
f 321 234 312
f 321 245 234
f 321 244 245
f 321 320 244
f 314 237 248
f 314 248 323
f 248 247 322
f 248 322 323
f 325 249 250
f 325 324 249
f 326 250 251
f 326 325 250
f 317 252 241
f 317 327 252
f 252 326 251
f 252 327 326
f 255 254 328
f 255 328 329
f 256 255 329
f 256 329 330
f 322 247 257
f 322 257 331
f 324 258 249
f 324 332 258
f 333 259 258
f 333 258 332
f 328 254 262
f 328 262 335
f 262 261 334
f 262 334 335
f 336 256 330
f 336 264 256
f 337 331 257
f 337 257 265
f 337 265 264
f 337 264 336
f 337 336 330
f 337 330 331
f 333 266 259
f 333 339 266
f 338 333 332
f 338 339 333
f 334 261 270
f 334 270 342
f 270 269 341
f 270 341 342
f 343 266 339
f 343 273 266
f 347 276 275
f 347 275 346
f 348 341 269
f 348 269 277
f 348 277 276
f 348 276 347
f 348 347 340
f 348 340 341
f 343 278 273
f 343 349 278
f 350 279 278
f 350 278 349
f 280 279 350
f 280 350 351
f 352 351 344
f 352 344 345
f 346 275 282
f 346 282 354
f 354 282 281
f 354 281 353
f 355 280 351
f 355 283 280
f 284 283 355
f 284 355 356
f 355 351 352
f 355 352 356
f 357 353 281
f 357 281 285
f 357 285 284
f 357 284 356
f 357 356 352
f 357 352 353
f 290 358 289
f 290 359 358
f 291 359 290
f 291 360 359
f 358 294 289
f 358 363 294
f 294 362 293
f 294 363 362
f 364 363 358
f 364 358 359
f 360 291 295
f 360 295 365
f 364 359 360
f 364 360 365
f 366 295 296
f 366 365 295
f 365 361 360
f 365 366 361
f 367 296 297
f 367 366 296
f 362 300 293
f 362 369 300
f 369 299 300
f 369 368 299
f 367 297 301
f 367 301 370
f 371 301 302
f 371 370 301
f 368 303 299
f 368 373 303
f 371 302 305
f 371 305 374
f 376 303 373
f 376 307 303
f 376 306 307
f 376 375 306
f 376 372 375
f 376 373 372
f 378 374 305
f 378 305 309
f 378 309 308
f 378 308 377
f 380 306 375
f 380 313 306
f 313 379 312
f 313 380 379
f 377 308 315
f 377 315 383
f 383 315 314
f 383 314 382
f 386 317 318
f 386 385 317
f 319 386 318
f 319 387 386
f 320 387 319
f 320 388 387
f 379 321 312
f 379 389 321
f 321 388 320
f 321 389 388
f 382 314 323
f 382 323 393
f 323 322 392
f 323 392 393
f 393 392 381
f 393 381 382
f 394 382 393
f 394 383 382
f 396 324 325
f 396 395 324
f 326 396 325
f 326 397 396
f 398 317 385
f 398 327 317
f 398 326 327
f 398 397 326
f 398 384 397
f 398 385 384
f 399 388 389
f 399 389 400
f 400 389 390
f 400 390 401
f 329 328 402
f 329 402 403
f 330 329 403
f 330 403 404
f 405 392 322
f 405 322 331
f 405 331 330
f 405 330 404
f 405 404 391
f 405 391 392
f 395 332 324
f 395 407 332
f 408 400 401
f 408 401 409
f 402 328 335
f 402 335 411
f 335 334 410
f 335 410 411
f 412 402 411
f 412 403 402
f 413 403 412
f 413 404 403
f 407 338 332
f 407 415 338
f 414 407 406
f 414 415 407
f 416 339 338
f 416 338 415
f 419 341 340
f 419 340 418
f 419 418 408
f 419 408 409
f 410 334 342
f 410 342 420
f 342 341 419
f 342 419 420
f 421 410 420
f 421 411 410
f 416 343 339
f 416 423 343
f 422 416 415
f 422 423 416
f 345 344 424
f 345 424 425
f 428 418 340
f 428 340 347
f 428 347 346
f 428 346 427
f 428 427 417
f 428 417 418
f 429 343 423
f 429 349 343
f 430 350 349
f 430 349 429
f 431 424 344
f 431 344 351
f 431 351 350
f 431 350 430
f 432 345 425
f 432 352 345
f 353 352 432
f 353 432 433
f 432 425 426
f 432 426 433
f 434 427 346
f 434 346 354
f 354 353 433
f 354 433 434
f 434 433 426
f 434 426 427
f 361 435 360
f 361 436 435
f 438 362 363
f 438 437 362
f 364 438 363
f 364 439 438
f 435 365 360
f 435 440 365
f 440 364 365
f 440 439 364
f 436 361 366
f 436 366 441
f 440 435 436
f 440 436 441
f 442 366 367
f 442 441 366
f 437 369 362
f 437 444 369
f 444 368 369
f 444 443 368
f 446 445 438
f 446 438 439
f 442 367 370
f 442 370 448
f 447 441 442
f 447 442 448
f 449 370 371
f 449 448 370
f 451 368 443
f 451 373 368
f 373 450 372
f 373 451 450
f 449 371 374
f 449 374 454
f 453 448 449
f 453 449 454
f 455 372 450
f 455 375 372
f 456 455 450
f 456 450 451
f 458 457 452
f 458 452 453
f 459 454 374
f 459 374 378
f 459 378 377
f 459 377 458
f 459 458 453
f 459 453 454
f 455 380 375
f 455 461 380
f 380 460 379
f 380 461 460
f 462 461 455
f 462 455 456
f 464 382 381
f 464 381 463
f 465 458 377
f 465 377 383
f 465 464 457
f 465 457 458
f 469 384 385
f 469 468 384
f 386 469 385
f 386 470 469
f 471 386 387
f 471 470 386
f 472 387 388
f 472 471 387
f 473 379 460
f 473 389 379
f 390 389 473
f 390 473 474
f 474 473 460
f 474 460 461
f 475 474 461
f 475 461 462
f 477 463 381
f 477 381 392
f 477 392 391
f 477 391 476
f 478 382 464
f 478 393 382
f 465 383 394
f 465 394 479
f 394 393 478
f 394 478 479
f 478 464 465
f 478 465 479
f 480 467 466
f 480 481 467
f 482 395 396
f 482 481 395
f 468 397 384
f 468 483 397
f 483 396 397
f 483 482 396
f 484 483 468
f 484 468 469
f 484 469 470
f 484 470 485
f 486 485 470
f 486 470 471
f 472 388 399
f 472 399 487
f 486 471 472
f 486 472 487
f 488 399 400
f 488 487 399
f 489 390 474
f 489 401 390
f 490 489 474
f 490 474 475
f 491 476 391
f 491 391 404
f 495 395 481
f 495 407 395
f 495 406 407
f 495 494 406
f 495 480 494
f 495 481 480
f 496 484 485
f 496 485 497
f 488 400 408
f 488 408 499
f 498 487 488
f 498 488 499
f 489 409 401
f 489 500 409
f 501 500 489
f 501 489 490
f 412 411 502
f 412 502 503
f 491 404 413
f 491 413 504
f 504 413 412
f 504 412 503
f 506 492 505
f 506 493 492
f 507 406 494
f 507 414 406
f 507 493 506
f 507 494 493
f 508 415 414
f 508 414 507
f 510 499 408
f 510 408 418
f 510 418 417
f 510 417 509
f 511 409 500
f 511 419 409
f 420 419 511
f 420 511 512
f 511 500 501
f 511 501 512
f 502 411 421
f 502 421 513
f 421 420 512
f 421 512 513
f 514 502 513
f 514 503 502
f 515 506 505
f 515 516 506
f 517 506 516
f 517 507 506
f 508 422 415
f 508 518 422
f 518 507 517
f 518 508 507
f 519 423 422
f 519 422 518
f 522 425 424
f 522 424 521
f 426 425 522
f 426 522 523
f 524 509 417
f 524 417 427
f 524 427 426
f 524 426 523
f 525 517 516
f 525 526 517
f 527 423 519
f 527 429 423
f 430 429 527
f 430 527 528
f 527 519 520
f 527 520 528
f 521 424 431
f 521 431 529
f 529 431 430
f 529 430 528
f 531 437 438
f 531 530 437
f 440 532 439
f 440 533 532
f 534 440 441
f 534 533 440
f 530 444 437
f 530 536 444
f 444 535 443
f 444 536 535
f 531 438 445
f 531 445 537
f 537 536 530
f 537 530 531
f 532 446 439
f 532 538 446
f 538 445 446
f 538 537 445
f 539 538 532
f 539 532 533
f 534 441 447
f 534 447 540
f 539 533 534
f 539 534 540
f 541 447 448
f 541 540 447
f 535 451 443
f 535 542 451
f 543 542 535
f 543 535 536
f 545 544 537
f 545 537 538
f 545 538 539
f 545 539 546
f 546 539 540
f 546 540 547
f 541 448 453
f 541 453 548
f 548 453 452
f 548 452 547
f 547 540 541
f 547 541 548
f 542 456 451
f 542 549 456
f 551 550 544
f 551 544 545
f 552 551 545
f 552 545 546
f 553 547 452
f 553 452 457
f 554 456 549
f 554 462 456
f 557 556 550
f 557 550 551
f 557 551 552
f 557 552 558
f 559 553 457
f 559 457 464
f 559 464 463
f 559 463 558
f 562 466 467
f 562 561 466
f 564 462 554
f 564 475 462
f 564 554 555
f 564 555 565
f 566 565 555
f 566 555 556
f 566 556 557
f 566 557 567
f 568 558 463
f 568 463 477
f 568 477 476
f 568 476 567
f 568 567 557
f 568 557 558
f 573 466 561
f 573 480 466
f 573 560 572
f 573 561 560
f 574 562 467
f 574 467 481
f 482 574 481
f 482 575 574
f 574 563 562
f 574 575 563
f 483 575 482
f 483 576 575
f 484 576 483
f 484 577 576
f 486 578 485
f 486 579 578
f 580 486 487
f 580 579 486
f 581 475 564
f 581 490 475
f 581 564 565
f 581 565 582
f 582 565 566
f 582 566 583
f 567 476 491
f 567 491 584
f 586 569 585
f 586 570 569
f 586 571 570
f 586 587 571
f 588 492 493
f 588 587 492
f 588 571 587
f 588 572 571
f 589 480 573
f 589 494 480
f 589 493 494
f 589 588 493
f 589 572 588
f 589 573 572
f 590 575 576
f 590 576 591
f 577 484 496
f 577 496 592
f 578 497 485
f 578 593 497
f 497 592 496
f 497 593 592
f 594 593 578
f 594 578 579
f 580 487 498
f 580 498 595
f 594 579 580
f 594 580 595
f 596 498 499
f 596 595 498
f 581 501 490
f 581 597 501
f 598 597 581
f 598 581 582
f 600 584 491
f 600 491 504
f 600 504 503
f 600 503 599
f 600 599 583
f 600 583 584
f 601 586 585
f 601 602 586
f 603 492 587
f 603 505 492
f 603 586 602
f 603 587 586
f 606 593 594
f 606 594 607
f 607 594 595
f 607 595 608
f 596 499 510
f 596 510 609
f 609 510 509
f 609 509 608
f 608 595 596
f 608 596 609
f 610 501 597
f 610 512 501
f 513 512 610
f 513 610 611
f 611 610 597
f 611 597 598
f 612 599 503
f 612 503 514
f 514 513 611
f 514 611 612
f 612 611 598
f 612 598 599
f 603 515 505
f 603 614 515
f 613 603 602
f 613 614 603
f 615 516 515
f 615 515 614
f 617 518 517
f 617 517 616
f 519 518 617
f 519 617 618
f 618 617 604
f 618 604 605
f 520 519 618
f 520 618 619
f 621 522 521
f 621 521 620
f 622 523 522
f 622 522 621
f 622 621 606
f 622 606 607
f 623 608 509
f 623 509 524
f 623 524 523
f 623 523 622
f 623 622 607
f 623 607 608
f 615 525 516
f 615 625 525
f 624 615 614
f 624 625 615
f 616 517 526
f 616 526 626
f 626 526 525
f 626 525 625
f 627 520 619
f 627 528 520
f 628 620 521
f 628 521 529
f 529 528 627
f 529 627 628
f 627 619 620
f 627 620 628
f 629 620 628
f 629 621 620
f 631 624 630
f 631 625 624
f 633 536 537
f 633 632 536
f 632 543 536
f 632 635 543
f 543 634 542
f 543 635 634
f 633 537 544
f 633 544 636
f 636 635 632
f 636 632 633
f 638 546 547
f 638 637 546
f 634 549 542
f 634 639 549
f 640 639 634
f 640 634 635
f 636 544 550
f 636 550 641
f 641 640 635
f 641 635 636
f 637 552 546
f 637 642 552
f 638 547 553
f 638 553 643
f 643 642 637
f 643 637 638
f 647 549 639
f 647 554 549
f 555 554 647
f 555 647 648
f 647 639 640
f 647 640 648
f 649 641 550
f 649 550 556
f 649 556 555
f 649 555 648
f 648 640 641
f 648 641 649
f 650 552 642
f 650 558 552
f 651 643 553
f 651 553 559
f 559 558 650
f 559 650 651
f 650 642 643
f 650 643 651
f 652 645 644
f 652 653 645
f 654 560 561
f 654 653 560
f 653 646 645
f 653 654 646
f 655 561 562
f 655 654 561
f 563 655 562
f 563 656 655
f 658 566 567
f 658 657 566
f 660 569 570
f 660 659 569
f 571 660 570
f 571 661 660
f 662 560 653
f 662 572 560
f 662 571 572
f 662 661 571
f 662 652 661
f 662 653 652
f 663 656 563
f 663 563 575
f 665 576 577
f 665 664 576
f 657 583 566
f 657 667 583
f 583 666 582
f 583 667 666
f 658 567 584
f 658 584 668
f 668 584 583
f 668 583 667
f 668 667 657
f 668 657 658
f 669 569 659
f 669 585 569
f 663 575 590
f 663 590 670
f 664 591 576
f 664 671 591
f 591 670 590
f 591 671 670
f 670 664 663
f 670 671 664
f 672 665 577
f 672 577 592
f 673 592 593
f 673 672 592
f 674 582 666
f 674 598 582
f 675 667 583
f 675 583 599
f 599 598 674
f 599 674 675
f 675 674 666
f 675 666 667
f 669 601 585
f 669 676 601
f 602 601 676
f 602 676 677
f 605 604 679
f 605 679 680
f 681 671 672
f 681 672 682
f 673 593 606
f 673 606 683
f 682 672 673
f 682 673 683
f 677 613 602
f 677 685 613
f 684 677 676
f 684 685 677
f 686 614 613
f 686 613 685
f 685 677 678
f 685 678 686
f 679 604 617
f 679 617 688
f 617 616 687
f 617 687 688
f 680 618 605
f 680 689 618
f 689 679 688
f 689 680 679
f 619 618 689
f 619 689 690
f 691 620 619
f 691 619 690
f 692 683 606
f 692 606 621
f 691 682 683
f 691 683 692
f 686 624 614
f 686 693 624
f 687 616 626
f 687 626 695
f 626 625 694
f 626 694 695
f 696 687 695
f 696 688 687
f 697 688 696
f 697 689 688
f 698 620 691
f 698 628 620
f 692 621 629
f 692 629 699
f 629 628 698
f 629 698 699
f 698 691 692
f 698 692 699
f 693 630 624
f 693 700 630
f 694 625 631
f 694 631 701
f 631 630 700
f 631 700 701
f 703 644 645
f 703 702 644
f 646 703 645
f 646 704 703
f 702 652 644
f 702 706 652
f 707 704 646
f 707 646 654
f 655 707 654
f 655 708 707
f 656 708 655
f 656 709 708
f 660 711 659
f 660 712 711
f 713 652 706
f 713 661 652
f 713 660 661
f 713 712 660
f 713 705 712
f 713 706 705
f 714 709 656
f 714 656 663
f 715 663 664
f 715 714 663
f 714 710 709
f 714 715 710
f 716 664 665
f 716 715 664
f 717 659 711
f 717 669 659
f 719 716 665
f 719 665 672
f 719 672 671
f 719 671 718
f 718 715 716
f 718 716 719
f 717 676 669
f 717 720 676
f 722 678 677
f 722 677 721
f 718 671 681
f 718 681 725
f 726 681 682
f 726 725 681
f 720 684 676
f 720 727 684
f 721 677 685
f 721 685 728
f 685 684 727
f 685 727 728
f 727 720 721
f 727 721 728
f 729 678 722
f 729 686 678
f 728 722 721
f 728 729 722
f 730 723 724
f 730 724 731
f 732 690 689
f 732 689 731
f 732 731 724
f 732 724 725
f 733 726 682
f 733 682 691
f 733 691 690
f 733 690 732
f 732 725 726
f 732 726 733
f 729 693 686
f 729 735 693
f 734 729 728
f 734 735 729
f 695 694 736
f 695 736 737
f 696 695 737
f 696 737 738
f 731 689 697
f 731 697 739
f 739 697 696
f 739 696 738
f 739 738 730
f 739 730 731
f 740 693 735
f 740 700 693
f 736 694 701
f 736 701 741
f 701 700 740
f 701 740 741
f 742 736 741
f 742 737 736
f 745 702 703
f 745 744 702
f 704 745 703
f 704 746 745
f 752 702 744
f 752 706 702
f 752 705 706
f 752 751 705
f 752 743 751
f 752 744 743
f 753 746 704
f 753 704 707
f 708 753 707
f 708 754 753
f 753 747 746
f 753 754 747
f 709 754 708
f 709 755 754
f 754 748 747
f 754 755 748
f 710 755 709
f 710 756 755
f 757 750 749
f 757 758 750
f 759 705 751
f 759 712 705
f 759 711 712
f 759 758 711
f 759 750 758
f 759 751 750
f 761 756 710
f 761 710 715
f 763 711 758
f 763 717 711
f 762 758 757
f 762 763 758
f 765 761 715
f 765 715 718
f 765 764 760
f 765 760 761
f 766 717 763
f 766 720 717
f 767 721 720
f 767 720 766
f 724 723 768
f 724 768 769
f 770 765 718
f 770 718 725
f 770 725 724
f 770 724 769
f 770 769 764
f 770 764 765
f 767 728 721
f 767 772 728
f 771 767 766
f 771 772 767
f 768 723 730
f 768 730 773
f 774 768 773
f 774 769 768
f 772 734 728
f 772 775 734
f 776 735 734
f 776 734 775
f 773 730 738
f 773 738 778
f 738 737 777
f 738 777 778
f 779 735 776
f 779 740 735
f 780 741 740
f 780 740 779
f 777 737 742
f 777 742 781
f 742 741 780
f 742 780 781
f 782 777 781
f 782 778 777
f 789 783 788
f 789 784 783
f 792 786 785
f 792 793 786
f 794 743 744
f 794 793 743
f 794 786 793
f 794 787 786
f 745 794 744
f 745 795 794
f 795 787 794
f 795 788 787
f 796 745 746
f 796 795 745
f 795 789 788
f 795 796 789
f 747 796 746
f 747 797 796
f 796 790 789
f 796 797 790
f 748 797 747
f 748 798 797
f 797 791 790
f 797 798 791
f 800 749 750
f 800 799 749
f 801 743 793
f 801 751 743
f 801 750 751
f 801 800 750
f 801 792 800
f 801 793 792
f 802 798 748
f 802 748 755
f 803 755 756
f 803 802 755
f 804 749 799
f 804 757 749
f 806 803 756
f 806 756 761
f 806 761 760
f 806 760 805
f 805 802 803
f 805 803 806
f 804 762 757
f 804 807 762
f 808 763 762
f 808 762 807
f 811 805 760
f 811 760 764
f 808 766 763
f 808 813 766
f 815 814 809
f 815 809 810
f 816 811 764
f 816 764 769
f 816 812 811
f 816 817 812
f 818 766 813
f 818 771 766
f 772 771 818
f 772 818 819
f 818 813 814
f 818 814 819
f 820 819 814
f 820 814 815
f 816 769 774
f 816 774 822
f 774 773 821
f 774 821 822
f 823 816 822
f 823 817 816
f 819 775 772
f 819 824 775
f 776 775 824
f 776 824 825
f 821 773 778
f 821 778 827
f 828 776 825
f 828 779 776
f 780 779 828
f 780 828 829
f 828 825 826
f 828 826 829
f 830 781 780
f 830 780 829
f 827 778 782
f 827 782 831
f 782 781 830
f 782 830 831
f 784 832 783
f 784 833 832
f 836 785 786
f 836 835 785
f 837 786 787
f 837 836 786
f 838 783 832
f 838 788 783
f 838 787 788
f 838 837 787
f 839 833 784
f 839 784 789
f 790 839 789
f 790 840 839
f 839 834 833
f 839 840 834
f 841 790 791
f 841 840 790
f 835 792 785
f 835 843 792
f 841 791 798
f 841 798 845
f 844 840 841
f 844 841 845
f 848 792 843
f 848 800 792
f 848 799 800
f 848 847 799
f 848 842 847
f 848 843 842
f 849 845 798
f 849 798 802
f 851 799 847
f 851 804 799
f 851 846 850
f 851 847 846
f 852 849 802
f 852 802 805
f 851 807 804
f 851 854 807
f 853 851 850
f 853 854 851
f 855 808 807
f 855 807 854
f 857 810 809
f 857 809 856
f 858 852 805
f 858 805 811
f 812 858 811
f 812 859 858
f 860 808 855
f 860 813 808
f 861 856 809
f 861 809 814
f 814 813 860
f 814 860 861
f 860 855 856
f 860 856 861
f 857 815 810
f 857 862 815
f 861 857 856
f 861 862 857
f 859 812 817
f 859 817 863
f 862 820 815
f 862 866 820
f 820 865 819
f 820 866 865
f 865 862 861
f 865 866 862
f 822 821 868
f 822 868 869
f 863 817 823
f 863 823 870
f 823 822 869
f 823 869 870
f 871 863 870
f 871 864 863
f 872 819 865
f 872 824 819
f 873 825 824
f 873 824 872
f 872 865 866
f 872 866 873
f 826 825 873
f 826 873 874
f 873 866 867
f 873 867 874
f 868 821 827
f 868 827 876
f 877 868 876
f 877 869 868
f 878 869 877
f 878 870 869
f 879 826 874
f 879 829 826
f 830 829 879
f 830 879 880
f 879 874 875
f 879 875 880
f 881 876 827
f 881 827 831
f 881 831 830
f 881 830 880
f 881 880 875
f 881 875 876
f 886 883 882
f 886 887 883
f 891 884 890
f 891 885 884
f 892 832 833
f 892 891 832
f 834 892 833
f 834 893 892
f 895 835 836
f 895 894 835
f 895 888 894
f 895 889 888
f 837 895 836
f 837 896 895
f 896 889 895
f 896 890 889
f 897 832 891
f 897 838 832
f 897 837 838
f 897 896 837
f 897 890 896
f 897 891 890
f 898 893 834
f 898 834 840
f 900 835 894
f 900 843 835
f 843 899 842
f 843 900 899
f 898 840 844
f 898 844 901
f 902 844 845
f 902 901 844
f 904 842 899
f 904 847 842
f 847 903 846
f 847 904 903
f 905 904 899
f 905 899 900
f 902 845 849
f 902 849 908
f 910 846 903
f 910 850 846
f 911 910 903
f 911 903 904
f 912 905 906
f 912 906 913
f 913 906 907
f 913 907 914
f 915 908 849
f 915 849 852
f 916 908 915
f 916 909 908
f 910 853 850
f 910 917 853
f 854 853 917
f 854 917 918
f 917 910 911
f 917 911 918
f 919 855 854
f 919 854 918
f 920 856 855
f 920 855 919
f 915 852 858
f 915 858 922
f 923 858 859
f 923 922 858
f 920 861 856
f 920 924 861
f 928 927 921
f 928 921 922
f 923 859 863
f 923 863 929
f 928 922 923
f 928 923 929
f 930 863 864
f 930 929 863
f 924 865 861
f 924 931 865
f 866 865 931
f 866 931 932
f 867 866 932
f 867 932 933
f 934 933 925
f 934 925 926
f 935 934 926
f 935 926 927
f 930 864 871
f 930 871 938
f 871 870 937
f 871 937 938
f 937 929 930
f 937 930 938
f 939 867 933
f 939 874 867
f 875 874 939
f 875 939 940
f 939 933 934
f 939 934 940
f 941 876 875
f 941 875 940
f 941 940 934
f 941 934 935
f 877 876 941
f 877 941 942
f 941 935 936
f 941 936 942
f 937 870 878
f 937 878 943
f 878 877 942
f 878 942 943
f 883 946 882
f 883 947 946
f 948 944 947
f 948 945 944
f 885 949 884
f 885 950 949
f 946 886 882
f 946 952 886
f 953 947 883
f 953 883 887
f 953 887 886
f 953 886 952
f 954 947 953
f 954 948 947
f 955 888 889
f 955 954 888
f 956 884 949
f 956 890 884
f 956 889 890
f 956 955 889
f 957 950 885
f 957 885 891
f 892 957 891
f 892 958 957
f 957 951 950
f 957 958 951
f 893 958 892
f 893 959 958
f 961 953 952
f 961 962 953
f 963 888 954
f 963 894 888
f 963 953 962
f 963 954 953
f 964 959 893
f 964 893 898
f 964 960 959
f 964 965 960
f 963 900 894
f 963 966 900
f 968 964 898
f 968 898 901
f 902 968 901
f 902 969 968
f 968 965 964
f 968 969 965
f 966 905 900
f 966 972 905
f 905 971 904
f 905 972 971
f 906 905 972
f 906 972 973
f 972 966 967
f 972 967 973
f 974 907 906
f 974 906 973
f 969 902 908
f 969 908 975
f 909 975 908
f 909 976 975
f 975 970 969
f 975 976 970
f 971 911 904
f 971 977 911
f 972 905 912
f 972 912 978
f 978 977 971
f 978 971 972
f 979 912 913
f 979 978 912
f 974 914 907
f 974 980 914
f 980 913 914
f 980 979 913
f 979 974 973
f 979 980 974
f 983 976 909
f 983 909 916
f 983 916 915
f 983 915 982
f 983 982 975
f 983 975 976
f 984 911 977
f 984 918 911
f 919 918 984
f 919 984 985
f 984 977 978
f 984 978 985
f 920 919 985
f 920 985 986
f 985 978 979
f 985 979 986
f 991 982 915
f 991 915 922
f 991 922 921
f 991 921 990
f 991 990 981
f 991 981 982
f 992 920 986
f 992 924 920
f 992 986 987
f 992 987 993
f 995 926 925
f 995 925 994
f 995 994 988
f 995 988 989
f 996 990 921
f 996 921 927
f 927 926 995
f 927 995 996
f 995 989 990
f 995 990 996
f 928 996 927
f 928 997 996
f 998 928 929
f 998 997 928
f 999 924 992
f 999 931 924
f 932 931 999
f 932 999 1000
f 1000 999 992
f 1000 992 993
f 1001 994 925
f 1001 925 933
f 1001 933 932
f 1001 932 1000
f 1001 1000 993
f 1001 993 994
f 1002 927 996
f 1002 935 927
f 936 935 1002
f 936 1002 1003
f 1002 996 997
f 1002 997 1003
f 998 929 937
f 998 937 1004
f 1003 997 998
f 1003 998 1004
f 1005 936 1003
f 1005 942 936
f 1004 937 943
f 1004 943 1006
f 943 942 1005
f 943 1005 1006
f 1005 1003 1004
f 1005 1004 1006
f 1009 944 945
f 1009 1008 944
f 1015 944 1008
f 1015 947 944
f 1015 946 947
f 1015 1014 946
f 1015 1007 1014
f 1015 1008 1007
f 1016 1009 945
f 1016 945 948
f 1018 1010 1017
f 1018 1011 1010
f 1019 949 950
f 1019 1018 949
f 1018 1012 1011
f 1018 1019 1012
f 951 1019 950
f 951 1020 1019
f 1022 946 1014
f 1022 952 946
f 1022 1013 1021
f 1022 1014 1013
f 1023 1016 948
f 1023 948 954
f 955 1023 954
f 955 1024 1023
f 1023 1017 1016
f 1023 1024 1017
f 1025 949 1018
f 1025 956 949
f 1025 955 956
f 1025 1024 955
f 1025 1017 1024
f 1025 1018 1017
f 1026 1020 951
f 1026 951 958
f 959 1026 958
f 959 1027 1026
f 960 1027 959
f 960 1028 1027
f 1022 961 952
f 1022 1030 961
f 1029 1022 1021
f 1029 1030 1022
f 1031 962 961
f 1031 961 1030
f 1032 963 962
f 1032 962 1031
f 1028 960 965
f 1028 965 1034
f 1033 1027 1028
f 1033 1028 1034
f 1032 966 963
f 1032 1037 966
f 1036 1032 1031
f 1036 1037 1032
f 967 966 1037
f 967 1037 1038
f 1039 1034 965
f 1039 965 969
f 970 1039 969
f 970 1040 1039
f 1039 1035 1034
f 1039 1040 1035
f 1041 967 1038
f 1041 973 967
f 1045 1040 970
f 1045 970 976
f 976 975 1044
f 976 1044 1045
f 1041 979 973
f 1041 1046 979
f 1049 1048 1042
f 1049 1042 1043
f 1044 975 982
f 1044 982 1051
f 1051 982 981
f 1051 981 1050
f 1052 979 1046
f 1052 986 979
f 987 986 1052
f 987 1052 1053
f 1054 1053 1047
f 1054 1047 1048
f 1055 989 988
f 1055 988 1054
f 1056 1050 981
f 1056 981 990
f 1056 990 989
f 1056 989 1055
f 1055 1049 1050
f 1055 1050 1056
f 1057 987 1053
f 1057 993 987
f 1058 1054 988
f 1058 988 994
f 1058 994 993
f 1058 993 1057
f 1058 1057 1053
f 1058 1053 1054
f 1064 1007 1008
f 1064 1063 1007
f 1065 1008 1009
f 1065 1064 1008
f 1067 1010 1011
f 1067 1066 1010
f 1067 1059 1066
f 1067 1060 1059
f 1012 1067 1011
f 1012 1068 1067
f 1067 1061 1060
f 1067 1068 1061
f 1072 1007 1063
f 1072 1014 1007
f 1072 1013 1014
f 1072 1071 1013
f 1072 1062 1071
f 1072 1063 1062
f 1074 1065 1009
f 1074 1009 1016
f 1073 1064 1065
f 1073 1065 1074
f 1075 1010 1066
f 1075 1017 1010
f 1017 1074 1016
f 1017 1075 1074
f 1076 1068 1012
f 1076 1012 1019
f 1020 1076 1019
f 1020 1077 1076
f 1076 1069 1068
f 1076 1077 1069
f 1080 1013 1071
f 1080 1021 1013
f 1080 1070 1079
f 1080 1071 1070
f 1082 1081 1073
f 1082 1073 1074
f 1082 1074 1075
f 1082 1075 1083
f 1084 1077 1020
f 1084 1020 1026
f 1027 1084 1026
f 1027 1085 1084
f 1084 1078 1077
f 1084 1085 1078
f 1080 1029 1021
f 1080 1088 1029
f 1089 1030 1029
f 1089 1029 1088
f 1031 1030 1089
f 1031 1089 1090
f 1091 1090 1081
f 1091 1081 1082
f 1092 1091 1082
f 1092 1082 1083
f 1093 1085 1027
f 1093 1027 1033
f 1094 1033 1034
f 1094 1093 1033
f 1093 1086 1085
f 1093 1094 1086
f 1035 1094 1034
f 1035 1095 1094
f 1094 1087 1086
f 1094 1095 1087
f 1096 1031 1090
f 1096 1036 1031
f 1037 1036 1096
f 1037 1096 1097
f 1096 1090 1091
f 1096 1091 1097
f 1098 1038 1037
f 1098 1037 1097
f 1101 1095 1035
f 1101 1035 1040
f 1098 1041 1038
f 1098 1103 1041
f 1102 1098 1097
f 1102 1103 1098
f 1043 1042 1105
f 1043 1105 1106
f 1105 1099 1100
f 1105 1100 1106
f 1109 1101 1040
f 1109 1040 1045
f 1109 1045 1044
f 1109 1044 1108
f 1110 1041 1103
f 1110 1046 1041
f 1110 1103 1104
f 1110 1104 1111
f 1112 1105 1042
f 1112 1042 1048
f 1112 1048 1047
f 1112 1047 1111
f 1113 1043 1106
f 1113 1049 1043
f 1113 1048 1049
f 1113 1112 1048
f 1114 1050 1049
f 1114 1049 1113
f 1114 1113 1106
f 1114 1106 1107
f 1115 1108 1044
f 1115 1044 1051
f 1051 1050 1114
f 1051 1114 1115
f 1115 1114 1107
f 1115 1107 1108
f 1116 1046 1110
f 1116 1052 1046
f 1117 1111 1047
f 1117 1047 1053
f 1117 1053 1052
f 1117 1052 1116
f 1117 1116 1110
f 1117 1110 1111
f 1118 1048 1112
f 1118 1054 1048
f 1119 1113 1049
f 1119 1049 1055
f 1055 1054 1118
f 1055 1118 1119
f 1119 1118 1112
f 1119 1112 1113
f 1127 1059 1060
f 1127 1126 1059
f 1127 1120 1126
f 1127 1121 1120
f 1061 1127 1060
f 1061 1128 1127
f 1132 1062 1063
f 1132 1131 1062
f 1132 1122 1131
f 1132 1123 1122
f 1133 1063 1064
f 1133 1132 1063
f 1132 1124 1123
f 1132 1133 1124
f 1135 1059 1126
f 1135 1066 1059
f 1135 1125 1134
f 1135 1126 1125
f 1136 1128 1061
f 1136 1061 1068
f 1069 1136 1068
f 1069 1137 1136
f 1136 1129 1128
f 1136 1137 1129
f 1141 1062 1131
f 1141 1071 1062
f 1141 1070 1071
f 1141 1140 1070
f 1141 1130 1140
f 1141 1131 1130
f 1143 1133 1064
f 1143 1064 1073
f 1144 1066 1135
f 1144 1075 1066
f 1146 1137 1069
f 1146 1069 1077
f 1078 1146 1077
f 1078 1147 1146
f 1146 1138 1137
f 1146 1147 1138
f 1149 1070 1140
f 1149 1079 1070
f 1149 1139 1148
f 1149 1140 1139
f 1150 1080 1079
f 1150 1079 1149
f 1150 1141 1142
f 1150 1142 1151
f 1143 1073 1081
f 1143 1081 1152
f 1144 1083 1075
f 1144 1153 1083
f 1153 1144 1145
f 1153 1145 1154
f 1156 1147 1078
f 1156 1078 1085
f 1086 1156 1085
f 1086 1157 1156
f 1158 1086 1087
f 1158 1157 1086
f 1159 1080 1150
f 1159 1088 1080
f 1089 1088 1159
f 1089 1159 1160
f 1159 1150 1151
f 1159 1151 1160
f 1161 1152 1081
f 1161 1081 1090
f 1161 1090 1089
f 1161 1089 1160
f 1160 1151 1152
f 1160 1152 1161
f 1153 1092 1083
f 1153 1163 1092
f 1092 1162 1091
f 1092 1163 1162
f 1164 1163 1153
f 1164 1153 1154
f 1164 1154 1155
f 1164 1155 1165
f 1169 1158 1087
f 1169 1087 1095
f 1168 1157 1158
f 1168 1158 1169
f 1162 1097 1091
f 1162 1170 1097
f 1171 1170 1162
f 1171 1162 1163
f 1171 1163 1164
f 1171 1164 1172
f 1172 1164 1165
f 1172 1165 1173
f 1100 1099 1173
f 1100 1173 1174
f 1173 1165 1166
f 1173 1166 1174
f 1175 1174 1166
f 1175 1166 1167
f 1176 1175 1167
f 1176 1167 1168
f 1177 1169 1095
f 1177 1095 1101
f 1176 1168 1169
f 1176 1169 1177
f 1170 1102 1097
f 1170 1178 1102
f 1179 1103 1102
f 1179 1102 1178
f 1178 1170 1171
f 1178 1171 1179
f 1104 1103 1179
f 1104 1179 1180
f 1179 1171 1172
f 1179 1172 1180
f 1181 1173 1099
f 1181 1099 1105
f 1181 1180 1172
f 1181 1172 1173
f 1182 1100 1174
f 1182 1106 1100
f 1107 1106 1182
f 1107 1182 1183
f 1182 1174 1175
f 1182 1175 1183
f 1108 1107 1183
f 1108 1183 1184
f 1183 1175 1176
f 1183 1176 1184
f 1177 1101 1109
f 1177 1109 1185
f 1109 1108 1184
f 1109 1184 1185
f 1184 1176 1177
f 1184 1177 1185
f 1186 1104 1180
f 1186 1111 1104
f 1187 1181 1105
f 1187 1105 1112
f 1187 1112 1111
f 1187 1111 1186
f 1186 1180 1181
f 1186 1181 1187
f 1121 1190 1120
f 1121 1191 1190
f 1195 1122 1123
f 1195 1194 1122
f 1124 1195 1123
f 1124 1196 1195
f 1197 1188 1196
f 1197 1189 1188
f 1198 1120 1190
f 1198 1126 1120
f 1198 1125 1126
f 1198 1197 1125
f 1198 1189 1197
f 1198 1190 1189
f 1199 1191 1121
f 1199 1121 1127
f 1128 1199 1127
f 1128 1200 1199
f 1199 1192 1191
f 1199 1200 1192
f 1129 1200 1128
f 1129 1201 1200
f 1200 1193 1192
f 1200 1201 1193
f 1204 1122 1194
f 1204 1131 1122
f 1131 1203 1130
f 1131 1204 1203
f 1206 1196 1124
f 1206 1124 1133
f 1206 1205 1195
f 1206 1195 1196
f 1207 1125 1197
f 1207 1134 1125
f 1208 1135 1134
f 1208 1134 1207
f 1209 1201 1129
f 1209 1129 1137
f 1138 1209 1137
f 1138 1210 1209
f 1209 1202 1201
f 1209 1210 1202
f 1213 1130 1203
f 1213 1140 1130
f 1140 1212 1139
f 1140 1213 1212
f 1142 1141 1214
f 1142 1214 1215
f 1214 1204 1205
f 1214 1205 1215
f 1216 1206 1133
f 1216 1133 1143
f 1215 1205 1206
f 1215 1206 1216
f 1217 1135 1208
f 1217 1144 1135
f 1145 1144 1217
f 1145 1217 1218
f 1219 1210 1138
f 1219 1138 1147
f 1219 1211 1210
f 1219 1220 1211
f 1212 1148 1139
f 1212 1221 1148
f 1222 1149 1148
f 1222 1148 1221
f 1222 1221 1212
f 1222 1212 1213
f 1223 1214 1141
f 1223 1141 1150
f 1223 1150 1149
f 1223 1149 1222
f 1223 1222 1213
f 1223 1213 1214
f 1224 1142 1215
f 1224 1151 1142
f 1225 1216 1143
f 1225 1143 1152
f 1225 1152 1151
f 1225 1151 1224
f 1224 1215 1216
f 1224 1216 1225
f 1226 1145 1218
f 1226 1154 1145
f 1155 1154 1226
f 1155 1226 1227
f 1229 1219 1147
f 1229 1147 1156
f 1230 1156 1157
f 1230 1229 1156
f 1231 1155 1227
f 1231 1165 1155
f 1166 1165 1231
f 1166 1231 1232
f 1231 1227 1228
f 1231 1228 1232
f 1233 1167 1166
f 1233 1166 1232
f 1234 1230 1157
f 1234 1157 1168
f 1234 1168 1167
f 1234 1167 1233
f 1237 1236 1235
f 1237 1238 1236
f 1189 1244 1188
f 1189 1245 1244
f 1246 1189 1190
f 1246 1245 1189
f 1246 1239 1245
f 1246 1240 1239
f 1191 1246 1190
f 1191 1247 1246
f 1246 1241 1240
f 1246 1247 1241
f 1192 1247 1191
f 1192 1248 1247
f 1247 1242 1241
f 1247 1248 1242
f 1193 1248 1192
f 1193 1249 1248
f 1248 1243 1242
f 1248 1249 1243
f 1251 1194 1195
f 1251 1250 1194
f 1252 1188 1244
f 1252 1196 1188
f 1197 1196 1252
f 1197 1252 1253
f 1253 1252 1244
f 1253 1244 1245
f 1254 1249 1193
f 1254 1193 1201
f 1202 1254 1201
f 1202 1255 1254
f 1250 1204 1194
f 1250 1257 1204
f 1204 1256 1203
f 1204 1257 1256
f 1258 1251 1195
f 1258 1195 1205
f 1258 1205 1204
f 1258 1204 1257
f 1258 1257 1250
f 1258 1250 1251
f 1259 1197 1253
f 1259 1207 1197
f 1208 1207 1259
f 1208 1259 1260
f 1261 1255 1202
f 1261 1202 1210
f 1211 1261 1210
f 1211 1262 1261
f 1263 1203 1256
f 1263 1213 1203
f 1264 1257 1204
f 1264 1204 1214
f 1214 1213 1263
f 1214 1263 1264
f 1264 1263 1256
f 1264 1256 1257
f 1260 1217 1208
f 1260 1265 1217
f 1218 1217 1265
f 1218 1265 1266
f 1262 1211 1220
f 1262 1220 1270
f 1270 1220 1219
f 1270 1219 1269
f 1270 1269 1261
f 1270 1261 1262
f 1271 1218 1266
f 1271 1226 1218
f 1227 1226 1271
f 1227 1271 1272
f 1271 1266 1267
f 1271 1267 1272
f 1228 1227 1272
f 1228 1272 1273
f 1274 1269 1219
f 1274 1219 1229
f 1274 1273 1268
f 1274 1268 1269
f 1275 1229 1230
f 1275 1274 1229
f 1276 1228 1273
f 1276 1232 1228
f 1233 1232 1276
f 1233 1276 1277
f 1276 1273 1274
f 1276 1274 1277
f 1278 1275 1230
f 1278 1230 1234
f 1234 1233 1277
f 1234 1277 1278
f 1277 1274 1275
f 1277 1275 1278
f 1283 1279 1282
f 1283 1280 1279
f 1283 1281 1280
f 1283 1284 1281
f 1286 1283 1282
f 1286 1287 1283
f 1288 1283 1287
f 1288 1284 1283
f 1288 1285 1284
f 1288 1289 1285
f 1290 1235 1236
f 1290 1289 1235
f 1291 1288 1287
f 1291 1292 1288
f 1293 1235 1289
f 1293 1237 1235
f 1292 1289 1288
f 1292 1293 1289
f 1290 1236 1238
f 1290 1238 1294
f 1238 1237 1293
f 1238 1293 1294
f 1297 1292 1291
f 1297 1298 1292
f 1299 1239 1240
f 1299 1298 1239
f 1299 1292 1298
f 1299 1293 1292
f 1300 1240 1241
f 1300 1299 1240
f 1300 1293 1299
f 1300 1294 1293
f 1301 1241 1242
f 1301 1300 1241
f 1300 1295 1294
f 1300 1301 1295
f 1243 1301 1242
f 1243 1302 1301
f 1301 1296 1295
f 1301 1302 1296
f 1304 1239 1298
f 1304 1245 1239
f 1303 1298 1297
f 1303 1304 1298
f 1305 1302 1243
f 1305 1243 1249
f 1304 1253 1245
f 1304 1306 1253
f 1305 1249 1254
f 1305 1254 1309
f 1310 1254 1255
f 1310 1309 1254
f 1311 1253 1306
f 1311 1259 1253
f 1260 1259 1311
f 1260 1311 1312
f 1311 1306 1307
f 1311 1307 1312
f 1312 1307 1308
f 1312 1308 1313
f 1316 1310 1255
f 1316 1255 1261
f 1315 1309 1310
f 1315 1310 1316
f 1317 1260 1312
f 1317 1265 1260
f 1266 1265 1317
f 1266 1317 1318
f 1317 1312 1313
f 1317 1313 1318
f 1267 1266 1318
f 1267 1318 1319
f 1318 1313 1314
f 1318 1314 1319
f 1321 1316 1261
f 1321 1261 1269
f 1321 1269 1268
f 1321 1268 1320
f 1321 1320 1315
f 1321 1315 1316
f 1322 1267 1319
f 1322 1272 1267
f 1323 1320 1268
f 1323 1268 1273
f 1323 1273 1272
f 1323 1272 1322
f 1327 1325 1324
f 1327 1328 1325
f 1332 1326 1331
f 1332 1327 1326
f 1333 1327 1332
f 1333 1328 1327
f 1333 1329 1328
f 1333 1334 1329
f 1280 1335 1279
f 1280 1336 1335
f 1281 1336 1280
f 1281 1337 1336
f 1337 1330 1336
f 1337 1331 1330
f 1340 1279 1335
f 1340 1282 1279
f 1341 1337 1281
f 1341 1281 1284
f 1285 1341 1284
f 1285 1342 1341
f 1343 1338 1342
f 1343 1339 1338
f 1340 1286 1282
f 1340 1344 1286
f 1345 1287 1286
f 1345 1286 1344
f 1346 1342 1285
f 1346 1285 1289
f 1290 1346 1289
f 1290 1347 1346
f 1346 1343 1342
f 1346 1347 1343
f 1345 1291 1287
f 1345 1350 1291
f 1349 1345 1344
f 1349 1350 1345
f 1351 1347 1290
f 1351 1290 1294
f 1295 1351 1294
f 1295 1352 1351
f 1351 1348 1347
f 1351 1352 1348
f 1353 1295 1296
f 1353 1352 1295
f 1354 1291 1350
f 1354 1297 1291
f 1357 1353 1296
f 1357 1296 1302
f 1356 1352 1353
f 1356 1353 1357
f 1358 1297 1354
f 1358 1303 1297
f 1304 1303 1358
f 1304 1358 1359
f 1358 1354 1355
f 1358 1355 1359
f 1362 1357 1302
f 1362 1302 1305
f 1363 1304 1359
f 1363 1306 1304
f 1307 1306 1363
f 1307 1363 1364
f 1363 1359 1360
f 1363 1360 1364
f 1308 1307 1364
f 1308 1364 1365
f 1364 1360 1361
f 1364 1361 1365
f 1362 1305 1309
f 1362 1309 1367
f 1368 1308 1365
f 1368 1313 1308
f 1314 1313 1368
f 1314 1368 1369
f 1368 1365 1366
f 1368 1366 1369
f 1370 1367 1309
f 1370 1309 1315
f 1370 1369 1366
f 1370 1366 1367
f 1371 1314 1369
f 1371 1319 1314
f 1370 1315 1320
f 1370 1320 1372
f 1371 1369 1370
f 1371 1370 1372
f 1371 1322 1319
f 1371 1373 1322
f 1372 1320 1323
f 1372 1323 1374
f 1374 1323 1322
f 1374 1322 1373
f 1373 1371 1372
f 1373 1372 1374
f 1325 1377 1324
f 1325 1378 1377
f 1381 1376 1375
f 1381 1382 1376
f 1383 1324 1377
f 1383 1327 1324
f 1383 1326 1327
f 1383 1382 1326
f 1384 1378 1325
f 1384 1325 1328
f 1384 1383 1377
f 1384 1377 1378
f 1329 1384 1328
f 1329 1385 1384
f 1384 1379 1378
f 1384 1385 1379
f 1386 1379 1385
f 1386 1380 1379
f 1389 1326 1382
f 1389 1331 1326
f 1389 1330 1331
f 1389 1388 1330
f 1389 1381 1388
f 1389 1382 1381
f 1390 1332 1331
f 1390 1331 1389
f 1391 1333 1332
f 1391 1332 1390
f 1392 1385 1329
f 1392 1329 1334
f 1334 1333 1391
f 1334 1391 1392
f 1393 1385 1392
f 1393 1386 1385
f 1395 1330 1388
f 1395 1336 1330
f 1395 1335 1336
f 1395 1394 1335
f 1395 1387 1394
f 1395 1388 1387
f 1396 1389 1331
f 1396 1331 1337
f 1396 1390 1389
f 1396 1397 1390
f 1398 1338 1339
f 1398 1397 1338
f 1398 1390 1397
f 1398 1391 1390
f 1399 1335 1394
f 1399 1340 1335
f 1396 1337 1341
f 1396 1341 1400
f 1401 1338 1397
f 1401 1342 1338
f 1401 1341 1342
f 1401 1400 1341
f 1401 1396 1400
f 1401 1397 1396
f 1402 1398 1339
f 1402 1339 1343
f 1404 1340 1399
f 1404 1344 1340
f 1406 1402 1343
f 1406 1343 1347
f 1348 1406 1347
f 1348 1407 1406
f 1406 1403 1402
f 1406 1407 1403
f 1408 1344 1404
f 1408 1349 1344
f 1350 1349 1408
f 1350 1408 1409
f 1408 1404 1405
f 1408 1405 1409
f 1411 1407 1348
f 1411 1348 1352
f 1412 1350 1409
f 1412 1354 1350
f 1355 1354 1412
f 1355 1412 1413
f 1412 1409 1410
f 1412 1410 1413
f 1411 1352 1356
f 1411 1356 1416
f 1417 1356 1357
f 1417 1416 1356
f 1418 1355 1413
f 1418 1359 1355
f 1360 1359 1418
f 1360 1418 1419
f 1361 1360 1419
f 1361 1419 1420
f 1420 1419 1414
f 1420 1414 1415
f 1421 1420 1415
f 1421 1415 1416
f 1417 1357 1362
f 1417 1362 1422
f 1422 1421 1416
f 1422 1416 1417
f 1423 1361 1420
f 1423 1365 1361
f 1366 1365 1423
f 1366 1423 1424
f 1425 1422 1362
f 1425 1362 1367
f 1425 1367 1366
f 1425 1366 1424
f 1424 1421 1422
f 1424 1422 1425
f 1427 1375 1376
f 1427 1426 1375
f 1379 1428 1378
f 1379 1429 1428
f 1380 1429 1379
f 1380 1430 1429
f 1426 1381 1375
f 1426 1432 1381
f 1433 1427 1376
f 1433 1376 1382
f 1383 1433 1382
f 1383 1434 1433
f 1428 1384 1378
f 1428 1435 1384
f 1384 1434 1383
f 1384 1435 1434
f 1436 1435 1428
f 1436 1428 1429
f 1430 1380 1386
f 1430 1386 1437
f 1436 1429 1430
f 1436 1430 1437
f 1440 1381 1432
f 1440 1388 1381
f 1440 1387 1388
f 1440 1439 1387
f 1440 1431 1439
f 1440 1432 1431
f 1392 1391 1441
f 1392 1441 1442
f 1442 1441 1435
f 1442 1435 1436
f 1437 1386 1393
f 1437 1393 1443
f 1393 1392 1442
f 1393 1442 1443
f 1443 1438 1437
f 1443 1444 1438
f 1445 1387 1439
f 1445 1394 1387
f 1447 1441 1391
f 1447 1391 1398
f 1445 1399 1394
f 1445 1448 1399
f 1448 1445 1446
f 1448 1446 1449
f 1450 1447 1398
f 1450 1398 1402
f 1403 1450 1402
f 1403 1451 1450
f 1452 1399 1448
f 1452 1404 1399
f 1405 1404 1452
f 1405 1452 1453
f 1452 1448 1449
f 1452 1449 1453
f 1455 1451 1403
f 1455 1403 1407
f 1456 1405 1453
f 1456 1409 1405
f 1410 1409 1456
f 1410 1456 1457
f 1456 1453 1454
f 1456 1454 1457
f 1459 1455 1407
f 1459 1407 1411
f 1460 1410 1457
f 1460 1413 1410
f 1462 1415 1414
f 1462 1414 1461
f 1463 1459 1411
f 1463 1411 1416
f 1463 1416 1415
f 1463 1415 1462
f 1463 1462 1458
f 1463 1458 1459
f 1464 1413 1460
f 1464 1418 1413
f 1465 1461 1414
f 1465 1414 1419
f 1465 1419 1418
f 1465 1418 1464
f 1464 1460 1461
f 1464 1461 1465
f 1421 1466 1420
f 1421 1467 1466
f 1466 1423 1420
f 1466 1468 1423
f 1467 1421 1424
f 1467 1424 1469
f 1469 1424 1423
f 1469 1423 1468
f 1468 1466 1467
f 1468 1467 1469
f 1472 1426 1427
f 1472 1471 1426
f 1474 1426 1471
f 1474 1432 1426
f 1474 1431 1432
f 1474 1473 1431
f 1474 1470 1473
f 1474 1471 1470
f 1475 1472 1427
f 1475 1427 1433
f 1434 1475 1433
f 1434 1476 1475
f 1477 1434 1435
f 1477 1476 1434
f 1437 1478 1436
f 1437 1479 1478
f 1438 1479 1437
f 1438 1480 1479
f 1481 1431 1473
f 1481 1439 1431
f 1477 1435 1441
f 1477 1441 1483
f 1482 1476 1477
f 1482 1477 1483
f 1478 1442 1436
f 1478 1484 1442
f 1443 1442 1484
f 1443 1484 1485
f 1484 1478 1479
f 1484 1479 1485
f 1480 1438 1444
f 1480 1444 1486
f 1444 1443 1485
f 1444 1485 1486
f 1485 1479 1480
f 1485 1480 1486
f 1487 1439 1481
f 1487 1445 1439
f 1446 1445 1487
f 1446 1487 1488
f 1483 1441 1447
f 1483 1447 1490
f 1489 1482 1483
f 1489 1483 1490
f 1488 1449 1446
f 1488 1492 1449
f 1495 1490 1447
f 1495 1447 1450
f 1451 1495 1450
f 1451 1496 1495
f 1495 1491 1490
f 1495 1496 1491
f 1497 1449 1492
f 1497 1453 1449
f 1454 1453 1497
f 1454 1497 1498
f 1497 1492 1493
f 1497 1493 1498
f 1499 1498 1493
f 1499 1493 1494
f 1501 1496 1451
f 1501 1451 1455
f 1502 1454 1498
f 1502 1457 1454
f 1505 1501 1455
f 1505 1455 1459
f 1505 1459 1458
f 1505 1458 1504
f 1505 1504 1500
f 1505 1500 1501
f 1506 1457 1502
f 1506 1460 1457
f 1461 1460 1506
f 1461 1506 1507
f 1506 1502 1503
f 1506 1503 1507
f 1508 1504 1458
f 1508 1458 1462
f 1508 1462 1461
f 1508 1461 1507
f 1508 1507 1503
f 1508 1503 1504
f 1512 1470 1471
f 1512 1511 1470
f 1511 1510 1509
f 1511 1512 1510
f 1513 1471 1472
f 1513 1512 1471
f 1514 1470 1511
f 1514 1473 1470
f 1515 1513 1472
f 1515 1472 1475
f 1516 1475 1476
f 1516 1515 1475
f 1517 1473 1514
f 1517 1481 1473
f 1516 1476 1482
f 1516 1482 1518
f 1519 1481 1517
f 1519 1487 1481
f 1488 1487 1519
f 1488 1519 1520
f 1518 1482 1489
f 1518 1489 1522
f 1523 1489 1490
f 1523 1522 1489
f 1491 1523 1490
f 1491 1524 1523
f 1525 1488 1520
f 1525 1492 1488
f 1493 1492 1525
f 1493 1525 1526
f 1525 1520 1521
f 1525 1521 1526
f 1494 1493 1526
f 1494 1526 1527
f 1527 1526 1521
f 1527 1521 1522
f 1527 1522 1523
f 1527 1523 1528
f 1529 1524 1491
f 1529 1491 1496
f 1528 1523 1524
f 1528 1524 1529
f 1531 1494 1527
f 1531 1499 1494
f 1499 1530 1498
f 1499 1531 1530
f 1532 1531 1527
f 1532 1527 1528
f 1533 1529 1496
f 1533 1496 1501
f 1533 1501 1500
f 1533 1500 1532
f 1533 1532 1528
f 1533 1528 1529
f 1534 1498 1530
f 1534 1502 1498
f 1503 1502 1534
f 1503 1534 1535
f 1535 1534 1530
f 1535 1530 1531
f 1536 1532 1500
f 1536 1500 1504
f 1536 1504 1503
f 1536 1503 1535
f 1536 1535 1531
f 1536 1531 1532
f 1542 1537 1541
f 1542 1538 1537
f 1543 1538 1542
f 1543 1539 1538
f 1545 1540 1544
f 1545 1541 1540
f 1546 1541 1545
f 1546 1542 1541
f 1547 1509 1510
f 1547 1546 1509
f 1548 1545 1544
f 1548 1549 1545
f 1550 1509 1546
f 1550 1511 1509
f 1550 1545 1549
f 1550 1546 1545
f 1551 1547 1510
f 1551 1510 1512
f 1552 1512 1513
f 1552 1551 1512
f 1550 1514 1511
f 1550 1554 1514
f 1553 1550 1549
f 1553 1554 1550
f 1552 1513 1515
f 1552 1515 1555
f 1556 1515 1516
f 1556 1555 1515
f 1554 1517 1514
f 1554 1557 1517
f 1556 1516 1518
f 1556 1518 1559
f 1558 1555 1556
f 1558 1556 1559
f 1560 1517 1557
f 1560 1519 1517
f 1561 1520 1519
f 1561 1519 1560
f 1521 1520 1561
f 1521 1561 1562
f 1563 1559 1518
f 1563 1518 1522
f 1563 1522 1521
f 1563 1521 1562
f 1563 1562 1558
f 1563 1558 1559
f 1566 1565 1564
f 1566 1567 1565
f 1569 1537 1538
f 1569 1568 1537
f 1570 1538 1539
f 1570 1569 1538
f 1571 1567 1566
f 1571 1572 1567
f 1573 1537 1568
f 1573 1541 1537
f 1573 1540 1541
f 1573 1572 1540
f 1573 1567 1572
f 1573 1568 1567
f 1570 1539 1543
f 1570 1543 1575
f 1543 1542 1574
f 1543 1574 1575
f 1574 1569 1570
f 1574 1570 1575
f 1576 1540 1572
f 1576 1544 1540
f 1577 1574 1542
f 1577 1542 1546
f 1547 1577 1546
f 1547 1578 1577
f 1577 1575 1574
f 1577 1578 1575
f 1576 1548 1544
f 1576 1579 1548
f 1580 1549 1548
f 1580 1548 1579
f 1578 1547 1551
f 1578 1551 1581
f 1582 1551 1552
f 1582 1581 1551
f 1580 1553 1549
f 1580 1583 1553
f 1584 1554 1553
f 1584 1553 1583
f 1586 1582 1552
f 1586 1552 1555
f 1585 1581 1582
f 1585 1582 1586
f 1584 1557 1554
f 1584 1587 1557
f 1587 1584 1585
f 1587 1585 1588
f 1589 1586 1555
f 1589 1555 1558
f 1588 1585 1586
f 1588 1586 1589
f 1590 1557 1587
f 1590 1560 1557
f 1591 1561 1560
f 1591 1560 1590
f 1590 1587 1588
f 1590 1588 1591
f 1592 1589 1558
f 1592 1558 1562
f 1592 1562 1561
f 1592 1561 1591
f 1592 1591 1588
f 1592 1588 1589
f 1565 1593 1564
f 1565 1594 1593
f 1593 1566 1564
f 1593 1595 1566
f 1596 1594 1565
f 1596 1565 1567
f 1597 1567 1568
f 1597 1596 1567
f 1598 1568 1569
f 1598 1597 1568
f 1595 1571 1566
f 1595 1599 1571
f 1600 1572 1571
f 1600 1571 1599
f 1602 1598 1569
f 1602 1569 1574
f 1601 1597 1598
f 1601 1598 1602
f 1603 1574 1575
f 1603 1602 1574
f 1600 1576 1572
f 1600 1605 1576
f 1604 1600 1599
f 1604 1605 1600
f 1603 1575 1578
f 1603 1578 1608
f 1605 1579 1576
f 1605 1609 1579
f 1580 1579 1609
f 1580 1609 1610
f 1611 1610 1606
f 1611 1606 1607
f 1612 1608 1578
f 1612 1578 1581
f 1612 1611 1607
f 1612 1607 1608
f 1614 1580 1610
f 1614 1583 1580
f 1613 1610 1609
f 1613 1614 1610
f 1615 1584 1583
f 1615 1583 1614
f 1615 1614 1610
f 1615 1610 1611
f 1616 1612 1581
f 1616 1581 1585
f 1616 1585 1584
f 1616 1584 1615
f 1615 1611 1612
f 1615 1612 1616
f 1619 1593 1594
f 1619 1618 1593
f 1621 1593 1618
f 1621 1595 1593
f 1621 1617 1620
f 1621 1618 1617
f 1619 1594 1596
f 1619 1596 1622
f 1623 1596 1597
f 1623 1622 1596
f 1625 1595 1621
f 1625 1599 1595
f 1624 1621 1620
f 1624 1625 1621
f 1623 1597 1601
f 1623 1601 1627
f 1628 1601 1602
f 1628 1627 1601
f 1629 1602 1603
f 1629 1628 1602
f 1630 1599 1625
f 1630 1604 1599
f 1605 1604 1630
f 1605 1630 1631
f 1630 1625 1626
f 1630 1626 1631
f 1633 1607 1606
f 1633 1606 1632
f 1632 1627 1628
f 1632 1628 1633
f 1634 1629 1603
f 1634 1603 1608
f 1634 1608 1607
f 1634 1607 1633
f 1633 1628 1629
f 1633 1629 1634
f 1635 1605 1631
f 1635 1609 1605
f 1636 1632 1606
f 1636 1606 1610
f 1635 1631 1632
f 1635 1632 1636
f 1635 1613 1609
f 1635 1637 1613
f 1638 1636 1610
f 1638 1610 1614
f 1638 1614 1613
f 1638 1613 1637
f 1638 1637 1635
f 1638 1635 1636
f 1640 1617 1618
f 1640 1639 1617
f 1641 1618 1619
f 1641 1640 1618
f 1642 1617 1639
f 1642 1620 1617
f 1643 1642 1639
f 1643 1639 1640
f 1644 1641 1619
f 1644 1619 1622
f 1643 1640 1641
f 1643 1641 1644
f 1645 1622 1623
f 1645 1644 1622
f 1642 1624 1620
f 1642 1646 1624
f 1647 1625 1624
f 1647 1624 1646
f 1647 1646 1642
f 1647 1642 1643
f 1626 1625 1647
f 1626 1647 1648
f 1647 1643 1644
f 1647 1644 1648
f 1649 1645 1623
f 1649 1623 1627
f 1648 1644 1645
f 1648 1645 1649
f 1650 1626 1648
f 1650 1631 1626
f 1651 1649 1627
f 1651 1627 1632
f 1651 1632 1631
f 1651 1631 1650
f 1650 1648 1649
f 1650 1649 1651
