# parsimony mesh: eg10608_monomer (source /Users/eranagmon/code/v2e-flagella/workspace/studies/ecoli-3d/viz/3d/structures/eg10608_monomer.pdb)
# atoms: 2587  voxel: 4 Å  verts: 1104  tris: 2272
v -1.3942 -12.6467 -30.4856
v -0.1998 -12.6467 -30.4856
v -1.3942 -11.6341 -30.4856
v 0.7586 -10.6287 -30.6015
v 4.7623 -9.5108 -30.7936
v 7.2665 -8.6764 -30.5889
v -1.6464 -5.4120 -30.6452
v 0.5351 -6.6183 -30.7766
v 4.7623 -6.4277 -30.9316
v 7.6669 -6.4277 -30.6308
v -1.6464 -4.1760 -30.6452
v 0.7623 -4.1692 -30.6188
v 5.1588 -2.7719 -30.4853
v 8.7834 -2.5954 -30.7154
v 11.1882 -1.3739 -30.8116
v 6.7564 -0.4185 -30.3767
v 8.7623 0.5786 -30.7052
v 12.3235 2.2303 -30.5955
v 14.7722 3.5557 -30.3794
v 13.4587 3.5981 -30.3794
v 14.7722 3.5981 -30.3794
v -1.4248 -12.7366 -28.3721
v 0.9851 -13.0622 -28.7126
v 3.6783 -13.0734 -27.6063
v -1.4248 -11.6947 -28.3721
v 0.8762 -10.8069 -29.1868
v 4.9119 -11.1219 -28.7126
v 8.6648 -9.1261 -28.3849
v 11.3364 -8.9635 -27.0600
v -1.6314 -5.3402 -28.3721
v -0.3167 -7.3402 -28.3721
v 9.6669 -6.4277 -29.7213
v 12.7067 -6.2746 -27.6669
v 15.1692 -4.8392 -26.7311
v -1.6314 -3.9939 -28.3721
v 0.8696 -2.4249 -28.1055
v 4.0897 -1.6681 -29.2611
v 10.1309 -4.0405 -30.1498
v 12.6178 -2.5954 -29.1351
v 16.6064 -2.1114 -26.9048
v 18.9099 -0.5672 -26.4326
v 2.2745 -0.1762 -26.5945
v 5.1599 1.0360 -28.1310
v 8.7623 2.5786 -29.8430
v 12.3235 2.2303 -29.9392
v 16.3682 1.9624 -28.3742
v 19.1295 1.5723 -26.5235
v 6.2300 4.1724 -27.0008
v 8.7591 5.5324 -28.0856
v 12.3801 5.1878 -29.6955
v 16.3682 5.1878 -28.7569
v 20.5675 5.5734 -27.1788
v 24.7623 6.9871 -26.9606
v 26.8850 7.4568 -26.4749
v 10.0903 8.7376 -27.2666
v 12.5258 9.8715 -27.6144
v 16.7623 9.5723 -27.7293
v 20.8367 9.8327 -27.1614
v 24.5619 9.8327 -26.9832
v 27.3666 9.5723 -26.6245
v 13.5037 13.5723 -27.0594
v 16.6153 13.2835 -26.9893
v 19.5529 11.7577 -26.4844
v 25.7617 11.9570 -26.6059
v 27.4453 11.9570 -26.6059
v 14.1450 15.9148 -26.7578
v 15.1839 15.9148 -26.7578
v -1.6673 -17.3977 -23.1160
v 0.7623 -17.7694 -23.3135
v 4.7623 -17.2629 -23.0157
v 7.0031 -16.7224 -22.7189
v -1.6100 -14.1434 -24.4185
v 0.7623 -15.0566 -25.3135
v 4.9119 -14.4151 -25.0107
v 7.5730 -14.4277 -23.2869
v -1.3808 -11.4898 -24.3721
v -0.4441 -9.4898 -24.3721
v 6.3423 -10.0866 -24.5084
v 8.1571 -10.2211 -23.9743
v 12.7067 -9.5816 -24.2686
v 16.7623 -9.0088 -22.8598
v 18.9990 -8.7440 -22.5282
v -1.5629 -5.5367 -24.3721
v -0.4441 -7.5367 -24.3721
v 6.3396 -8.1561 -23.1049
v 6.9751 -8.1561 -23.1049
v 14.0031 -7.5059 -25.5330
v 16.6064 -6.2746 -24.5783
v 20.5043 -6.1217 -22.7470
v 22.9039 -4.5843 -22.4808
v -1.5596 -2.6317 -24.1775
v -0.3921 -1.4343 -25.3810
v 17.8358 -3.2339 -25.3987
v 20.4508 -2.1114 -24.6399
v 23.3805 -2.4277 -22.9368
v -1.3407 -0.3203 -22.7143
v 1.1721 1.0851 -23.8969
v 3.5633 2.4905 -25.0795
v 21.1295 1.5723 -25.3364
v 23.8218 1.5723 -23.3364
v 2.7364 3.6973 -22.4128
v 4.9684 5.2682 -23.8149
v 7.4236 6.8391 -25.2169
v 21.7710 4.2408 -25.6802
v 24.8002 5.0032 -24.3570
v 28.4359 6.8603 -24.1352
v 30.9401 7.3361 -22.6439
v 6.3735 7.8848 -22.5503
v 8.7591 8.9066 -24.0790
v 11.3750 11.0057 -24.3721
v 22.2196 11.3396 -26.1352
v 23.0950 11.3396 -26.1352
v 29.3666 9.5723 -25.1497
v 31.1293 9.5723 -23.1497
v 13.2821 13.9388 -24.0223
v 16.3971 14.9704 -23.8568
v 20.8367 13.2835 -25.1118
v 24.5619 13.4031 -25.3824
v 28.7953 13.3472 -24.4230
v 31.0738 12.0708 -23.1371
v 14.1450 15.9148 -25.1224
v 16.3971 15.8211 -23.8568
v 20.7623 16.0537 -22.9744
v 24.7623 16.4605 -23.3126
v 27.4786 16.2699 -23.0422
v -2.4382 -20.8628 -19.1556
v 0.7623 -21.2438 -19.5892
v 3.4758 -21.0808 -19.2114
v -2.7920 -18.6097 -20.4422
v 0.7623 -19.7694 -21.5892
v 5.1159 -18.3178 -20.1314
v 7.0031 -16.7224 -21.0513
v -3.0575 -14.4277 -20.3721
v 6.7561 -16.4205 -18.3846
v 8.6361 -14.6688 -20.0428
v 12.7623 -12.8342 -18.9269
v 14.8509 -12.4801 -18.4497
v -2.0734 -10.1876 -20.7174
v -1.1195 -8.6942 -22.2809
v 6.3396 -8.6994 -22.0438
v 8.6221 -10.3613 -21.8724
v 12.7623 -11.4682 -20.9269
v 16.4154 -10.5608 -20.0186
v 19.0125 -8.7502 -20.3721
v -1.6567 -6.7755 -20.7174
v -1.1195 -8.3407 -22.2809
v 6.3396 -8.1561 -22.0438
v 6.9751 -8.1561 -22.0438
v 21.0125 -6.8475 -20.3721
v 23.2456 -4.8475 -20.3721
v -1.5047 -2.7849 -20.6235
v -0.5047 -1.6896 -19.4577
v 24.5416 -2.4277 -20.3721
v -1.3407 -0.3203 -22.1244
v 0.5612 1.2367 -20.6235
v 25.8370 1.5091 -20.3319
v 27.0376 2.8002 -18.9718
v 2.4611 4.3349 -20.3721
v 3.7178 6.3349 -20.3721
v 26.1589 4.0707 -21.6385
v 28.5275 5.2161 -20.3319
v 31.0102 7.2533 -20.3721
v 5.7178 8.6396 -20.3721
v 8.7623 9.5587 -20.3721
v 12.6890 10.4880 -20.1176
v 15.1617 11.2063 -18.6145
v 30.7505 11.5470 -18.3847
v 31.1476 9.9571 -19.9797
v 13.9735 12.8498 -21.2812
v 16.3860 14.0053 -20.1299
v 19.3967 15.1608 -18.9787
v 29.7263 13.4714 -19.9797
v 31.0738 12.0708 -21.0513
v 17.6102 15.7275 -21.6453
v 20.7430 16.0447 -20.3360
v 24.7623 16.6800 -20.3721
v 27.4761 16.2059 -20.3721
v -1.8509 -24.6407 -14.6701
v 0.7623 -24.6420 -14.7851
v 2.9552 -24.5005 -14.6248
v -5.7046 -20.9905 -15.4675
v -3.4779 -22.2600 -16.4021
v 0.7623 -23.2438 -16.7851
v 4.5488 -22.4350 -16.2607
v 7.3264 -21.1226 -15.2300
v -6.0720 -18.4277 -15.5066
v -4.8583 -18.4277 -17.5066
v 6.2928 -18.4277 -18.0119
v 7.7728 -18.4277 -16.0119
v -6.0520 -14.4277 -15.1863
v -4.6619 -14.4277 -17.1863
v 6.7561 -16.4205 -18.3673
v 8.8323 -15.5266 -16.7692
v 12.7623 -13.5650 -16.3721
v 14.9764 -12.6859 -16.3721
v -5.6779 -11.3880 -15.0405
v -4.2618 -10.2039 -16.3732
v 17.3159 -10.0959 -16.0494
v 20.1826 -8.5218 -15.8499
v 22.8563 -8.5022 -14.5322
v -3.2197 -6.4277 -16.3721
v 18.7328 -8.4091 -14.5009
v 20.1826 -7.9533 -15.8499
v 23.5134 -6.2696 -16.0682
v -2.1436 -3.7075 -16.3721
v 0.0725 -1.7075 -16.3721
v 24.9012 -2.4277 -16.3721
v 1.3749 1.5723 -16.3721
v 18.5208 3.4655 -14.5904
v 19.2532 3.4655 -14.5904
v 26.0329 0.6394 -16.3721
v 27.1433 2.6394 -16.3721
v 2.0647 4.6472 -16.3721
v 3.7113 6.6472 -16.3721
v 18.5208 3.7520 -14.5904
v 19.2532 3.7520 -14.5904
v 28.9701 5.8588 -16.6291
v 30.9150 7.3831 -18.1337
v 5.7113 8.6948 -16.3721
v 8.7623 9.7964 -16.3721
v 12.7623 9.6857 -16.3721
v 16.6019 10.3263 -16.5167
v 19.7534 10.8132 -15.2798
v 29.5657 9.9571 -16.6291
v 30.9150 8.8803 -18.1337
v 17.8284 12.4942 -17.9464
v 20.9084 13.5942 -16.6545
v 23.6309 14.6942 -15.3625
v 28.2321 13.5723 -16.3721
v 22.0634 15.7178 -18.0292
v 24.8834 15.8388 -16.5664
v 27.1066 15.7963 -16.3721
v -13.2398 -24.4339 -10.3743
v -11.2377 -24.8039 -10.6829
v -7.2377 -25.0715 -11.2050
v -3.2056 -25.1286 -12.3912
v 0.7623 -25.2725 -12.3721
v 3.3653 -24.6686 -12.3721
v -13.2398 -24.4184 -10.3743
v -11.2416 -22.8221 -11.0820
v -7.1179 -22.3654 -13.0997
v -4.5176 -23.6572 -13.7372
v 5.3653 -23.5287 -12.3721
v 7.6204 -21.5287 -12.3721
v -10.0167 -18.4277 -11.5762
v -8.0720 -18.4277 -13.5762
v 9.5188 -18.4349 -12.4357
v 11.8544 -17.1064 -11.1448
v -10.0947 -14.4277 -11.5767
v -8.0520 -14.4277 -13.5767
v 10.2123 -15.7769 -13.8115
v 13.0176 -15.2326 -12.4357
v 15.4501 -13.4218 -12.3721
v -10.5075 -10.4277 -11.4215
v -7.1018 -10.2039 -13.5216
v -4.9829 -8.7213 -14.2221
v 17.6948 -10.1153 -12.6759
v 20.1714 -8.5380 -12.8810
v 22.8563 -8.5022 -14.2169
v -17.5095 -4.8064 -10.7068
v -15.2377 -5.2824 -10.8601
v -11.3872 -6.4842 -11.2285
v -7.2377 -6.4277 -12.9664
v -4.9339 -6.4277 -14.1329
v 18.7328 -8.4091 -14.2117
v 20.1780 -7.2769 -12.8180
v 23.3240 -6.4277 -13.7727
v -17.5095 -4.0572 -10.7068
v -14.8653 -2.6054 -10.7768
v -11.5629 -2.3132 -10.8649
v -7.1948 -2.3132 -11.5972
v -3.5476 -2.2944 -13.0461
v 1.0455 -0.7320 -11.9870
v 2.8406 -0.5918 -10.7056
v 21.9140 -3.2012 -11.0615
v 23.7040 -2.0918 -12.3858
v -13.2836 -0.3975 -10.3960
v -13.1130 -0.3975 -10.3960
v -5.8329 0.2081 -10.7680
v -3.2377 0.1598 -10.8412
v 1.0804 0.6754 -11.5833
v 2.8406 -0.3002 -10.7056
v 18.5208 3.4655 -13.9619
v 20.6164 2.9652 -12.6008
v 24.7294 1.5916 -11.8868
v 27.0007 2.9366 -12.3721
v 1.9737 4.5956 -12.3721
v 4.0558 6.5956 -12.3721
v 18.2509 5.1563 -12.5166
v 20.1529 4.7603 -12.4835
v 24.9675 5.2367 -11.6961
v 27.2560 5.2367 -12.4913
v 6.0558 8.1303 -12.3721
v 8.7623 9.6763 -12.3721
v 12.7623 9.8008 -12.3721
v 16.6935 8.4629 -12.3916
v 20.9570 9.5169 -13.3112
v 24.7623 9.5723 -12.9857
v 27.2754 9.5723 -13.8362
v -1.2815 15.4504 -10.4102
v -0.7360 15.4504 -10.4102
v 6.1938 15.3878 -10.5454
v 8.7623 14.6200 -11.3672
v 11.8525 14.4871 -11.5256
v 22.4201 12.0275 -14.0978
v 24.8834 13.4454 -13.8892
v 27.0644 13.5723 -13.9742
v -1.2815 15.6527 -10.4102
v 1.0036 17.5322 -10.3960
v 4.4974 17.5848 -10.4636
v 8.7623 16.5835 -11.3672
v 11.8525 16.7348 -11.5256
v 26.2975 15.7238 -14.0880
v 26.9860 15.7238 -14.0880
v 2.7431 19.5833 -10.3818
v 2.8009 19.5833 -10.3818
v -13.9079 -29.2876 -7.0984
v -11.2377 -29.4610 -7.3890
v -7.2377 -28.8367 -6.8922
v -5.2031 -28.4552 -6.4360
v -13.7839 -26.0314 -8.4079
v -11.2377 -26.8039 -9.3890
v -7.2377 -27.0715 -8.8922
v -3.6169 -26.7566 -8.0104
v 0.7623 -25.4528 -8.3721
v 4.7290 -24.8238 -8.1333
v 6.8328 -24.5728 -6.6407
v -13.5672 -22.8221 -8.3168
v -12.5776 -21.7517 -9.6133
v 6.0401 -23.8674 -9.3074
v 7.8323 -22.4915 -8.1333
v -13.5468 -20.0423 -6.9467
v -11.6285 -18.5964 -8.3168
v 10.0470 -19.6728 -8.3721
v 11.8400 -17.6728 -8.3721
v -10.8501 -14.4277 -8.3721
v 13.6906 -14.6479 -8.3039
v 15.4825 -13.4614 -9.5918
v -11.8461 -10.4277 -8.3721
v 13.8670 -10.4277 -7.4046
v 16.7944 -10.1153 -9.4571
v 18.8367 -8.5737 -10.1370
v -17.5095 -4.8064 -9.6202
v -15.0554 -5.4654 -8.3210
v -12.7172 -7.4408 -8.3721
v 14.2291 -6.4277 -7.0848
v 16.7623 -6.4277 -8.4922
v 19.1819 -6.4277 -9.7795
v -17.5095 -4.0572 -9.6202
v -15.3763 -2.6054 -8.3210
v -10.4463 -0.9036 -9.7557
v -8.4995 -0.9036 -9.7557
v 2.0015 -0.9219 -8.3721
v 3.1439 -0.9219 -8.3721
v 14.6886 -4.3254 -6.4987
v 16.7380 -2.7663 -7.4041
v 20.6533 -2.0918 -9.6957
v 23.0280 -0.5345 -10.3180
v -13.6389 -0.1370 -8.3721
v -11.5629 0.2007 -8.4022
v -7.1948 0.9667 -8.4022
v -3.2377 1.3621 -8.3721
v 0.9717 1.0793 -8.9074
v 4.3500 1.3504 -8.3110
v 8.7623 2.9899 -7.0802
v 12.7623 3.2839 -6.7330
v 16.7380 1.8647 -7.6667
v 20.6927 1.3079 -9.9348
v 24.7328 1.4974 -10.3086
v 26.8475 3.1966 -10.2993
v 2.2459 5.7033 -8.3141
v 4.3521 6.1705 -8.3042
v 8.7623 5.5723 -7.5734
v 12.7623 5.5723 -7.0288
v 16.6935 5.3653 -9.0036
v 19.3130 3.8940 -10.2157
v 26.4377 3.6796 -10.2993
v 26.8475 3.6796 -10.2993
v -1.3356 11.3721 -6.4912
v 0.8408 9.8522 -7.1150
v 5.3521 8.8528 -8.2566
v 8.7623 9.2654 -8.2046
v 12.2017 9.4131 -8.0965
v 15.3143 8.1006 -9.4153
v -1.6353 13.8991 -8.0435
v 0.6633 13.8991 -8.9866
v 4.8212 13.8616 -9.2751
v 8.7623 12.6200 -9.5439
v 12.9866 13.2320 -8.7533
v 15.3061 14.6437 -7.5052
v -1.6613 16.4069 -8.3721
v 1.0906 17.6947 -9.1239
v 4.4974 17.5848 -9.6359
v 8.7623 18.5835 -9.1889
v 13.0164 17.8698 -9.6854
v 15.6262 17.5723 -7.7769
v 2.4606 19.6374 -8.3721
v 4.3854 19.6503 -8.0361
v 8.7623 19.7698 -7.1889
v 12.7623 20.3303 -7.6639
v 15.3703 20.3628 -7.1121
v -13.7564 -29.0935 -4.3721
v -11.2377 -30.1685 -4.3721
v -7.2377 -29.8154 -4.3721
v -4.7591 -28.7404 -4.3721
v 6.1684 -28.5037 -2.5767
v 6.8811 -28.5037 -2.5767
v -14.7034 -26.4277 -4.3721
v -2.7591 -27.1993 -4.3721
v 0.7623 -26.1904 -4.3721
v 4.8060 -26.9077 -4.0949
v 7.0465 -26.1148 -4.0949
v -17.3636 -21.3303 -2.5090
v -15.7808 -22.5692 -4.0543
v 8.4761 -22.4277 -4.3721
v -17.3636 -19.9718 -2.5090
v -15.1029 -18.6737 -3.9598
v -12.1837 -17.3756 -5.4106
v 9.9841 -18.6165 -4.4905
v 11.1071 -17.4091 -5.9028
v -17.2481 -12.5060 -2.3860
v -15.2904 -14.0747 -3.0673
v -11.9931 -14.4277 -5.2306
v 10.2019 -15.2718 -3.2361
v 11.4876 -14.1342 -4.4905
v -17.2481 -12.3354 -2.3860
v -15.4910 -10.7723 -3.5450
v -12.5763 -10.4277 -5.8277
v 12.3774 -10.4277 -4.3721
v -14.6666 -6.3817 -4.6729
v -12.9613 -7.6844 -6.2068
v 13.8918 -6.4254 -4.7200
v 15.4437 -5.0905 -3.6187
v -15.0179 -2.4277 -4.3721
v -2.4884 -1.4054 -3.2119
v 0.9732 -1.1640 -4.4219
v 3.1929 -0.9226 -5.6319
v 10.6837 -0.5683 -2.4462
v 13.5878 -2.2584 -4.1965
v 15.4161 -2.4933 -4.4635
v -14.1255 1.3868 -4.1301
v -11.2377 2.3352 -5.1571
v -7.2377 2.8384 -5.6711
v -2.9166 1.7441 -4.5466
v 0.4205 1.0869 -4.4867
v 4.6206 1.6295 -5.4297
v 9.2254 1.8507 -4.2002
v 12.7623 1.2839 -4.6298
v 15.3885 0.7263 -5.3084
v -14.0429 5.5723 -2.7547
v -11.2377 5.5723 -3.5427
v -7.2377 5.5723 -4.6844
v -3.2377 5.5723 -5.0391
v 0.8408 5.6357 -5.4387
v 4.8327 5.6357 -5.6118
v 8.2382 5.5723 -3.7311
v -13.9126 8.0595 -2.6189
v -11.2377 8.3670 -2.7577
v -7.2591 9.5157 -3.4392
v -2.8965 9.8522 -5.4218
v -0.4402 8.7054 -5.9438
v 6.2130 7.9625 -5.9354
v 8.9401 8.0133 -4.5101
v 11.6539 9.8310 -4.3721
v -5.9400 12.8699 -2.7996
v -3.9631 13.9509 -4.2286
v 13.8208 13.4151 -4.0172
v 15.3061 14.6437 -5.1140
v -2.4033 17.7918 -4.3171
v -0.2875 19.2714 -5.6137
v 14.6709 15.6524 -2.4473
v 16.6715 17.6005 -3.7656
v 18.7880 19.5485 -2.4173
v -1.4026 19.8099 -2.9470
v 0.9324 20.0538 -4.3171
v 4.7623 20.7666 -4.3721
v 9.1617 21.9209 -3.9722
v 12.7623 22.3303 -5.0442
v 16.7271 21.6466 -4.6704
v 18.9135 21.5723 -2.5730
v 10.7613 23.5725 -2.3723
v 12.7623 24.0768 -3.0442
v 16.7623 24.2069 -3.2110
v 18.9381 23.7460 -2.5948
v -6.0485 -32.6994 1.2508
v -4.6020 -32.6994 1.2508
v -13.2592 -28.4555 -2.3028
v -11.3120 -29.5912 -0.7305
v -7.3242 -31.4082 -0.1983
v -3.2848 -30.1882 -0.1053
v 0.7623 -28.8925 0.7501
v 4.7019 -28.5432 -0.5747
v 6.8811 -28.5037 -2.0295
v -17.2614 -24.4553 1.1856
v -15.0941 -26.1321 -0.5586
v -12.6949 -27.8089 0.3638
v -1.9675 -27.8636 -1.4614
v 0.7623 -27.7958 -1.2499
v 4.7019 -27.7172 -0.5747
v 7.0430 -26.1421 -0.5665
v -17.8950 -22.5692 -0.2375
v -16.9290 -23.9969 -1.4811
v 7.9607 -22.4277 -0.3721
v -18.3788 -18.5542 -0.4903
v -16.6589 -17.3052 -1.9025
v 6.6006 -16.6304 1.5017
v 7.9753 -18.1493 -0.0478
v -17.6579 -14.1342 -0.7822
v -16.5776 -14.1342 -0.7822
v 6.6006 -16.2830 1.5017
v 8.9967 -14.4441 -0.2318
v 10.8494 -12.6052 -1.9653
v -17.2481 -12.3354 -2.3286
v -16.4478 -10.7723 -0.7460
v 10.4582 -12.0578 0.7014
v 11.5495 -10.6058 -0.5280
v -17.6652 -5.3479 0.7164
v -16.6506 -6.5798 -0.5190
v 13.8330 -6.4254 -0.0247
v 15.4437 -5.0905 -1.1265
v -17.6652 -3.1976 0.7164
v -16.4998 -2.0897 -0.5190
v -2.1945 -1.1969 -0.3721
v -0.3735 -1.1969 -0.3721
v 10.6837 -0.5683 -2.2916
v 13.5736 -2.2143 -0.4585
v 15.2372 -2.4418 -0.1799
v -17.7370 2.4332 1.2666
v -16.1812 1.2889 -0.1889
v -2.1945 0.1810 -0.3721
v -0.3735 0.1810 -0.3721
v 10.4774 1.9391 -0.7238
v 12.7623 0.9980 0.0424
v 15.0307 0.1952 0.7667
v -21.2707 7.4792 1.5953
v -19.1373 5.9165 0.8856
v -16.0429 5.5723 -1.2755
v 10.3023 5.2456 -0.4909
v 10.9615 6.3612 0.7633
v -21.2707 7.6166 1.5953
v -19.2377 8.4432 0.9709
v -15.3662 9.7077 -0.3211
v -11.2377 10.3670 -1.2691
v -8.6066 10.8114 -1.8468
v 10.3919 7.8892 -1.9034
v 11.8524 9.3624 -0.4909
v -14.1532 11.8398 1.2399
v -10.9155 13.3328 0.8299
v -7.2591 13.9509 -1.3241
v -5.1612 15.5366 -2.3501
v 14.0781 13.3478 -0.7151
v 15.1772 14.5314 0.3895
v -9.3673 15.7575 1.4939
v -7.2377 16.2213 0.5439
v -3.2819 17.6496 -0.7340
v -0.7174 19.0469 0.8822
v 14.6709 15.6524 -2.2771
v 16.6112 17.0823 -0.7151
v 18.9284 19.3997 -0.3721
v -1.4026 19.8099 -1.7845
v 0.6745 20.4984 -0.4195
v 5.0610 22.5464 -0.0636
v 8.0947 23.2233 -1.1913
v 19.1846 21.5723 -0.3721
v 6.5935 24.0082 1.4754
v 9.1617 24.2116 -0.0636
v 12.7623 25.3659 -0.3721
v 16.7623 25.1871 -0.3721
v 19.0184 23.8656 -0.3721
v -9.5954 -32.8686 4.7181
v -7.3242 -33.0060 3.4820
v -4.4681 -32.8199 3.6279
v -9.9362 -30.6253 3.4820
v -8.7152 -32.0903 2.0514
v -2.4205 -30.3066 3.6631
v 0.7623 -28.8925 2.4220
v 3.2353 -28.5826 1.9614
v -17.4098 -24.6598 3.6279
v -15.2377 -25.4307 3.6279
v -11.8425 -27.1986 3.6279
v -1.5684 -27.9115 5.0199
v 0.7623 -27.3502 4.4220
v 4.9589 -26.0628 3.6479
v 6.8270 -24.6183 2.6677
v -18.5139 -22.4277 3.6279
v 6.3173 -22.4277 4.9272
v 7.1494 -22.4277 2.9272
v -19.5478 -18.4277 3.6279
v 6.1054 -18.1493 3.6435
v 7.2138 -19.2970 2.3205
v -18.4438 -14.9723 3.6279
v -16.6201 -12.9723 3.6279
v 6.3872 -14.7409 4.0074
v 7.7916 -13.6163 2.9270
v -17.6138 -9.6220 4.8448
v -16.5453 -10.7443 3.5580
v 6.4630 -10.4277 5.3842
v 8.9799 -10.6058 3.7256
v 12.6398 -8.9596 4.0646
v 14.8837 -8.5281 5.3467
v -18.2418 -6.5798 3.5580
v -16.9071 -8.0146 2.1782
v 6.4072 -7.8310 5.3371
v 8.7623 -7.1989 5.2757
v 12.6828 -6.8142 4.4554
v 14.8837 -7.8333 5.3467
v -21.4963 -1.2777 5.2685
v -19.2197 -2.2377 3.4962
v -17.1527 -0.5310 1.7240
v -1.2628 -0.4756 1.6576
v -1.0742 -0.4756 1.6576
v 13.2669 -2.7046 3.4263
v 15.0307 -1.5559 1.9586
v -21.7300 1.5723 4.8150
v -19.1373 1.2889 2.6352
v -17.1527 -0.2334 1.7240
v -1.2628 -0.4138 1.6576
v -1.0742 -0.4138 1.6576
v 10.6945 3.5170 1.6910
v 12.4504 1.8561 3.1581
v 15.0307 0.1952 1.9586
v -21.5385 5.9165 3.5932
v -20.4036 4.8126 2.2367
v 10.6945 3.6945 1.6910
v 11.2780 5.2456 3.2658
v -21.3153 7.8572 3.6279
v -19.3299 10.0704 3.4202
v -16.8199 11.3559 1.9483
v 12.3378 9.5723 3.6279
v -18.0579 12.0643 4.6150
v -15.3135 13.2854 3.5776
v -12.0340 14.5065 2.5402
v 14.1193 12.6014 3.6279
v 15.3667 14.6014 3.6279
v -17.4988 19.1479 5.1205
v -15.1793 17.7177 4.7621
v -10.9155 17.2834 3.2762
v -7.3786 18.1075 3.8376
v -3.2046 18.4811 3.5010
v -0.7174 19.0469 2.0830
v 17.3667 17.2090 3.6279
v 18.9740 19.2090 3.6279
v -17.4988 20.0967 5.1205
v -15.2377 20.4962 4.8614
v -11.2377 20.2662 5.0040
v -8.8058 19.7900 5.3107
v -1.8492 19.8480 4.7497
v 0.6745 20.5868 3.5010
v 4.2357 22.6337 3.6279
v 18.5479 23.0198 5.3282
v 19.0310 21.6408 3.8481
v 6.2357 24.2734 3.6279
v 8.7623 25.4360 3.6279
v 12.7623 25.7844 3.6279
v 17.0337 24.5423 3.8481
v 18.9280 23.7897 2.6616
v -9.5954 -32.8686 5.9145
v -7.2377 -32.9468 5.9719
v -4.8473 -32.6790 5.7999
v -9.5179 -30.4277 5.8498
v -7.2377 -30.4277 6.2775
v -4.1929 -30.4277 6.0556
v -17.4435 -24.7095 6.2503
v -15.2598 -24.9411 7.6014
v -11.0122 -26.0479 7.2298
v -7.2377 -26.4277 6.8772
v -3.0361 -26.5180 6.5008
v 0.7623 -25.3502 6.0409
v 4.0158 -24.8406 5.8523
v -17.6784 -22.0353 7.6014
v -16.6079 -23.1071 8.9170
v -10.1042 -23.3135 8.8224
v -7.2377 -23.0506 8.5715
v -2.8726 -22.3945 8.6490
v 0.7623 -22.4277 7.4248
v 4.3173 -22.4277 6.1962
v -18.4222 -18.4277 7.6279
v -1.4441 -18.4277 9.4353
v 0.7623 -18.4277 8.4562
v 4.0625 -18.4277 6.6488
v -18.0257 -14.7955 7.6279
v -16.9656 -12.7955 7.6279
v -1.4548 -16.0386 9.3924
v 0.7623 -15.5145 9.0722
v 4.3668 -14.3306 7.7246
v -21.2585 -8.4469 9.6162
v -19.0634 -9.7507 8.0209
v -16.9656 -12.0670 7.6279
v 5.7704 -10.4277 7.6279
v 13.8858 -8.5281 5.8154
v 14.8837 -8.5281 5.8154
v -21.8276 -6.4277 8.9781
v -20.1722 -6.4277 6.9781
v 6.4500 -7.9114 7.6279
v 8.7623 -6.2228 7.6279
v 12.1888 -6.0652 6.8511
v 14.8837 -7.8333 5.8154
v -21.9843 -2.5377 7.5150
v -20.7743 -3.9444 6.1065
v 10.6789 -0.8761 9.2828
v 10.9701 -2.2967 7.8208
v -22.0040 1.5723 7.6279
v 10.6789 -0.3623 9.2828
v 11.5886 1.2116 7.8208
v -21.6059 5.8163 7.7367
v -21.1138 7.3124 9.1426
v 12.2409 5.5723 7.6279
v -21.4968 9.1947 7.7426
v -20.9192 9.1947 7.7426
v 12.2755 9.5723 7.6279
v -22.0041 13.5723 8.9229
v -19.2904 13.2966 7.8245
v -16.3358 14.1588 7.6279
v 13.8703 13.8201 7.8653
v 15.1533 15.3187 6.6903
v -21.8119 16.2173 9.3065
v -18.9687 17.7128 8.3473
v -16.3358 16.8344 7.6279
v -6.1391 18.9323 6.3203
v -3.2788 18.9038 7.5581
v 0.7623 18.5692 8.4254
v 3.6803 18.9318 8.8566
v 14.6604 15.6304 9.3570
v 16.5969 16.5451 7.8653
v 20.4141 18.7541 7.8794
v 22.9315 19.3121 9.3804
v -17.8031 20.7502 7.6279
v -15.2377 22.0360 7.6279
v -11.2377 21.2300 7.6279
v -7.2100 21.1536 7.8777
v -3.4616 20.8333 7.7712
v 0.7623 20.2278 6.4254
v 4.3507 21.5313 7.5651
v 18.5479 23.0198 5.7280
v 20.4141 21.6408 6.8308
v 23.1308 21.5723 9.0564
v -5.6143 23.7202 9.4352
v -5.0113 23.7202 9.4352
v 6.0594 24.2863 7.6279
v 9.0549 26.2959 7.7925
v 12.7623 26.4952 7.3076
v 16.7299 25.5745 7.6605
v 20.6591 25.7891 8.2761
v 23.2039 25.5723 8.8631
v 10.5832 27.7534 9.2356
v 12.7623 27.7322 9.3076
v 14.9119 27.6044 9.5930
v 21.8463 29.5723 8.6797
v 23.2251 29.5723 8.6797
v 22.3797 31.8381 8.8689
v 23.1126 31.8381 8.8689
v -13.9413 -24.6882 10.0757
v -12.7708 -24.6882 10.0757
v -17.2403 -20.4404 9.6311
v -15.2598 -22.0353 10.3585
v -11.3576 -22.1592 10.4397
v -7.2377 -21.0506 9.9067
v -3.9625 -21.0391 9.8610
v -17.4440 -18.4277 9.9609
v -15.2377 -18.4277 11.1854
v -11.2377 -18.4277 11.5645
v -7.2377 -18.4277 10.8814
v -3.4441 -18.4277 10.1693
v -21.7197 -12.6800 13.0848
v -19.0417 -14.1033 11.5767
v -15.3815 -14.2565 11.6146
v -10.8404 -14.3629 13.0317
v -7.2377 -14.4277 11.9023
v -2.9680 -14.5943 10.6428
v 0.7623 -13.5145 10.5461
v 3.2334 -12.9325 10.0530
v -22.0125 -10.0392 11.7020
v -19.2390 -10.7123 11.7020
v -16.4534 -11.2691 11.6279
v -9.2423 -12.4255 13.6240
v -6.9395 -10.8264 12.9522
v -3.4208 -10.4362 12.6340
v 0.7623 -11.1219 12.5461
v 4.9672 -10.1255 11.2186
v 7.8795 -8.9119 12.3842
v -23.0613 -6.4277 11.6279
v -5.4074 -8.3072 13.4354
v -4.8762 -8.3072 13.4354
v 6.7010 -8.3360 9.7176
v 9.2241 -6.4436 11.2143
v 10.8273 -4.5512 10.0443
v -22.8007 -2.4277 11.6279
v 10.1317 -2.2967 11.4777
v 10.8273 -3.5428 10.0443
v -21.6020 1.4077 11.3959
v -20.4674 2.6313 12.5746
v 9.5657 1.2116 11.5740
v 11.4299 2.3044 10.2048
v -21.3830 4.6457 9.9079
v -20.4422 5.8163 11.3959
v 9.7084 5.5723 12.7992
v 11.7456 5.5723 10.7992
v -29.4849 11.2750 13.2648
v -27.2377 10.6176 12.7050
v -23.1063 9.7378 11.5074
v -20.8211 8.0109 11.6279
v 10.4941 8.5095 13.2793
v 11.5505 9.7346 11.8187
v -29.4849 12.0474 13.2648
v -27.2377 12.7969 12.7050
v -24.1039 13.8669 11.5074
v -17.9936 14.5211 11.6279
v -16.3934 14.5211 11.6279
v -5.8826 14.9653 13.0046
v -4.5851 14.9653 13.0046
v 12.9026 13.5723 11.6279
v -22.4847 16.5546 11.6279
v -18.9884 17.5562 11.6279
v -16.3934 16.5578 11.6279
v -9.7391 19.0360 12.7389
v -7.2246 17.6505 12.2184
v -3.3134 17.4244 11.5645
v 0.7623 17.4059 11.6279
v 4.9131 18.4344 11.4771
v 7.7973 18.9352 12.7098
v 14.4000 16.4506 11.6279
v 16.7623 17.5433 11.6279
v 20.8056 18.6904 11.6253
v 22.9315 19.3121 10.2903
v -18.2752 21.8000 11.3018
v -15.2377 23.1121 10.4644
v -11.4495 21.5482 11.6794
v -7.0637 21.3392 10.3646
v -4.6709 21.5723 10.2155
v 6.1478 21.5723 10.3947
v 8.9833 21.5457 12.5054
v 12.7623 22.1123 12.9979
v 15.8077 22.3366 13.0144
v 21.5326 21.5723 12.6250
v 23.1308 21.5723 10.6250
v -17.8974 25.5723 12.1463
v -15.5394 25.2281 12.2378
v -13.1598 23.6654 13.2866
v -5.6143 23.7202 9.9148
v -5.0113 23.7202 9.9148
v 6.3584 24.0254 10.2350
v 9.0549 25.4441 10.8300
v 12.7623 25.5723 11.2434
v 16.6932 25.4706 11.3401
v 20.4871 25.4706 11.4364
v 23.2039 25.5723 10.3407
v -17.3821 27.6690 12.8624
v -17.0738 27.6690 12.8624
v 10.5832 27.7534 9.9174
v 12.7623 27.7322 9.8734
v 14.9119 27.6044 9.6657
v 21.8463 29.5723 10.0550
v 23.2251 29.5723 10.0550
v 22.3797 31.8381 9.9141
v 23.1126 31.8381 9.9141
v -21.7197 -12.6800 14.3766
v -19.2172 -12.7294 15.7322
v -15.1787 -13.3735 15.7038
v -11.4530 -13.3466 15.6279
v -22.3515 -10.5156 15.6771
v -19.2172 -11.5661 15.7322
v -16.4728 -11.2248 14.4211
v -9.4530 -12.1666 15.6279
v -6.9395 -10.3718 15.2991
v -3.4208 -9.6138 15.2991
v 0.7623 -9.6378 15.6279
v 4.7623 -9.2718 15.6279
v 7.7070 -8.8531 15.6279
v -23.1398 -6.4277 15.6279
v -5.6232 -6.4318 15.6219
v -4.9151 -6.4318 15.6219
v 9.8018 -6.1204 15.6549
v 10.8466 -4.5822 17.0063
v -22.0798 -2.5509 15.5794
v -20.4040 -1.2997 16.8805
v -5.8390 -4.2334 17.4972
v -4.9540 -4.2334 17.4972
v 10.0365 -2.4277 15.0153
v 10.8783 -2.4277 17.0153
v -21.4795 -0.0353 14.2138
v -19.6084 1.4077 15.5794
v 6.3107 3.0848 16.7886
v 8.4735 1.3698 15.7773
v 10.8327 -0.3452 17.4327
v -18.2497 5.5050 15.6996
v -16.6681 6.7934 17.0808
v 6.3107 4.0021 16.7886
v 7.7673 5.4302 15.5243
v -29.4849 11.2750 14.2444
v -26.8833 10.7591 15.5978
v -23.2377 9.1489 15.6279
v -19.3788 8.5213 15.6996
v -16.6681 8.6603 17.0808
v 6.0419 11.0355 17.1395
v 8.8350 9.7725 15.4313
v 10.8392 11.1761 13.7231
v -29.4849 12.0474 14.2444
v -26.8833 12.5773 15.5978
v -23.4908 14.4570 15.7439
v -19.0713 15.0502 15.7439
v -16.7095 15.2137 15.6279
v -6.6969 14.5913 15.6279
v -3.2461 14.6120 15.7276
v 0.7623 14.8325 16.9345
v 4.7301 13.5560 16.6515
v 8.7623 13.5723 15.0774
v 11.5340 13.5723 13.9798
v -22.3261 16.2371 14.4880
v -19.1618 17.2383 15.1393
v -16.7095 15.9892 15.6279
v -9.7391 19.0360 14.0878
v -8.3073 17.6505 15.5039
v -1.9184 15.9735 14.4608
v 0.7623 16.4090 14.9345
v 4.7623 16.6302 14.7737
v 8.9833 17.5900 14.2772
v 12.9336 17.8401 13.9210
v 16.7623 19.1188 13.8438
v 19.5011 19.1881 13.8909
v -18.5390 21.6703 15.7444
v -15.2377 23.1928 17.2610
v -11.4495 21.8534 15.8496
v -8.4080 20.1372 16.7545
v 10.4639 20.1947 13.7176
v 12.7623 20.1123 13.7138
v 16.9896 21.2309 13.8518
v 19.5326 21.5723 13.8891
v -17.8974 25.5723 14.3529
v -15.5394 25.2281 14.9979
v -13.1598 23.6654 14.9446
v 18.4744 23.6743 13.7132
v 19.0506 23.6743 13.7132
v -17.3821 27.6690 13.7338
v -17.0738 27.6690 13.7338
v -17.8611 -12.7788 18.0027
v -15.2377 -13.1910 18.7792
v -12.1868 -13.0943 18.7882
v -21.8237 -9.2408 17.9905
v -19.2117 -10.5156 18.5536
v -15.2377 -10.4277 20.1409
v -11.1084 -10.4610 20.0464
v -7.2377 -10.8152 19.6279
v -3.2377 -10.6444 19.6279
v 0.7623 -9.6428 19.6279
v 4.6070 -8.7463 19.4367
v 6.9046 -8.5107 17.9758
v -21.9061 -6.4277 18.0118
v -19.2377 -6.4277 18.8910
v -15.2377 -6.4277 19.2652
v -11.3131 -6.3879 20.0281
v -7.1985 -5.3038 19.4217
v -3.4675 -5.0225 19.8863
v 0.7623 -5.2555 21.0587
v 4.6070 -6.6109 20.4970
v 8.4477 -6.1204 18.5447
v 10.8466 -4.5822 17.8511
v -21.5430 -3.9664 17.7772
v -19.1375 -2.5509 18.0482
v -15.2377 -2.4277 18.6498
v -11.2377 -2.4277 18.9774
v -7.1985 -2.7111 18.6030
v -3.2733 -2.8273 19.8285
v 0.7623 -3.4419 21.0587
v 4.7623 -2.9210 20.9533
v 8.4619 -2.2070 20.0233
v 10.8783 -2.4277 17.9046
v -17.7788 1.5723 18.0504
v -15.2781 1.3494 20.0523
v -11.2377 0.3836 20.7347
v -6.8470 1.6442 20.8023
v -4.4674 1.5723 21.0972
v 6.3107 3.0848 18.2368
v 8.2739 1.3698 19.3386
v 10.8327 -0.3452 17.7736
v -25.6872 6.9289 20.9356
v -23.2377 6.9638 20.4316
v -18.4756 6.0230 19.6879
v -16.6532 5.8488 19.8160
v -5.4501 5.5723 21.4198
v -3.6085 5.8631 21.4383
v 0.7623 6.9580 21.1231
v 5.4259 5.3441 19.5473
v 7.0644 5.2913 19.5179
v -29.7049 11.0566 20.8928
v -26.8338 9.9399 19.5809
v -23.2377 8.6240 18.4316
v -19.2377 8.5018 18.9487
v -16.6681 8.6603 18.9585
v -10.4337 10.8636 20.9858
v -6.9984 9.5471 20.5879
v -3.2377 9.5723 20.3113
v 0.7623 9.5723 19.8188
v 4.7301 9.6502 18.4817
v 7.1759 8.3688 18.1323
v -29.7049 12.1423 20.8928
v -26.8833 12.3319 19.5868
v -23.2377 13.2759 19.6279
v -19.2377 14.1665 19.6279
v -15.6274 14.4133 19.6985
v -11.5553 13.2833 20.1248
v -7.6182 13.5518 18.3590
v -3.2377 12.8272 18.5396
v 0.7623 12.8325 18.3235
v 3.3753 12.2118 17.8478
v -18.1700 18.2547 18.4831
v -15.6274 17.1818 18.7990
v -11.2377 17.5723 19.1134
v -7.3518 18.3593 19.5375
v -5.1156 19.4086 21.1997
v -18.1700 20.4023 18.4831
v -15.2377 21.1928 18.5036
v -11.2377 20.9939 18.5107
v -7.0538 20.1791 19.8462
v -5.1156 20.2211 21.1997
v -1.3643 -12.4705 25.4669
v -1.1903 -12.4705 25.4669
v -10.0300 -8.8403 22.6885
v -7.2377 -9.3834 23.1146
v -2.4348 -10.4487 24.2187
v -0.0745 -10.1370 23.8674
v 3.1702 -8.5621 21.7299
v -10.0300 -7.6948 22.6885
v -7.2377 -7.4263 23.1146
v -3.2377 -7.0747 23.2825
v 0.7623 -7.2555 22.6678
v 3.1702 -8.0665 21.7299
v -1.5926 -1.4211 21.7595
v 0.7623 -1.4419 21.8374
v 4.7623 -0.9210 22.2838
v 6.9283 -0.7265 22.3546
v -26.3986 2.9240 24.7953
v -24.5264 2.9240 24.7953
v -13.9716 2.5341 22.2876
v -11.2377 2.3836 22.3504
v -7.9198 3.0255 21.9316
v -2.4674 1.5723 21.8104
v 0.7623 1.5723 22.3906
v 4.9828 1.4387 24.1281
v 7.0608 1.4387 23.6639
v -26.4304 5.5863 23.5284
v -23.2109 5.0334 23.5284
v -19.2377 6.5054 23.6279
v -15.4523 5.9884 23.5615
v -11.2377 5.5723 23.0603
v -7.4501 5.5723 22.1599
v -2.5224 4.7236 21.7397
v 0.7623 4.9580 22.1811
v 4.9828 4.2786 23.6034
v 7.0110 3.9330 23.6279
v -29.6077 11.1443 23.6279
v -27.8579 9.1443 23.6279
v -17.9469 10.5703 24.4501
v -15.4549 9.3711 23.6835
v -11.5553 9.5471 22.2336
v -8.1722 8.1969 22.0336
v -29.6077 12.0194 23.6279
v -27.2377 12.6209 23.6279
v -22.9270 14.0341 23.9109
v -19.5425 13.5577 23.6081
v -15.2377 12.2134 21.7918
v -13.1003 11.7573 21.6909
v -21.3865 15.6521 25.4329
v -21.1381 15.6521 25.4329
v -5.6996 19.4086 21.7529
v -5.1156 19.4086 21.7529
v -5.6996 20.2211 21.7529
v -5.1156 20.2211 21.7529
v -1.3643 -12.4705 25.6762
v -1.1903 -12.4705 25.6762
v -1.3643 -11.4838 25.6762
v -1.1903 -11.4838 25.6762
v -26.3986 2.9240 26.1003
v -24.5264 2.9240 26.1003
v 6.4632 2.6830 25.7448
v 6.9032 2.6830 25.7448
v -26.3467 5.9486 27.5113
v -23.4659 5.8425 27.6931
v -19.2377 6.6325 27.0807
v -16.9330 7.0727 26.5735
v 6.4632 3.7118 25.7448
v 6.9032 3.7118 25.7448
v -29.3928 10.9466 27.6279
v -27.7533 8.9466 27.6279
v -22.4054 8.4442 29.2860
v -19.5126 9.5073 27.9298
v -16.9330 7.9036 26.5735
v -29.3928 11.6964 27.6279
v -27.2377 12.1739 27.6279
v -23.6694 14.0498 27.6279
v -20.3674 13.5723 27.6279
v -21.6694 15.8157 27.6279
v -20.9552 15.8157 27.6279
v -25.5477 7.5328 29.6787
v -25.0720 7.5328 29.6787
v -29.4182 10.7930 30.0332
v -27.0237 9.5047 30.1565
v -23.5383 9.6955 29.9944
v -21.0782 11.1109 29.7631
v -29.4182 11.7117 30.0332
v -27.2377 12.0432 30.2505
v -23.0938 13.4654 30.1560
v -20.9103 13.5723 29.9694
v -21.6645 15.8171 29.9481
v -20.9606 15.8171 29.9481
f 3 2 1
f 3 4 2
f 8 5 4
f 8 9 5
f 9 6 5
f 9 10 6
f 12 7 11
f 12 8 7
f 12 9 8
f 12 13 9
f 13 10 9
f 13 14 10
f 16 14 13
f 16 17 14
f 17 15 14
f 17 18 15
f 20 19 18
f 20 21 19
f 2 22 1
f 2 23 22
f 25 1 22
f 25 3 1
f 26 23 2
f 26 2 4
f 26 4 3
f 26 3 25
f 5 26 4
f 5 27 26
f 26 24 23
f 26 27 24
f 6 27 5
f 6 28 27
f 31 4 26
f 31 8 4
f 31 7 8
f 31 30 7
f 32 28 6
f 32 6 10
f 32 29 28
f 32 33 29
f 30 11 7
f 30 35 11
f 12 11 35
f 12 35 36
f 37 13 12
f 37 12 36
f 38 32 10
f 38 10 14
f 15 38 14
f 15 39 38
f 38 33 32
f 38 39 33
f 39 34 33
f 39 40 34
f 37 16 13
f 37 43 16
f 42 37 36
f 42 43 37
f 44 17 16
f 44 16 43
f 45 39 15
f 45 15 18
f 18 17 44
f 18 44 45
f 19 45 18
f 19 46 45
f 46 39 45
f 46 40 39
f 46 41 40
f 46 47 41
f 48 44 43
f 48 49 44
f 45 20 18
f 45 50 20
f 50 44 49
f 50 45 44
f 51 46 19
f 51 19 21
f 21 20 50
f 21 50 51
f 51 47 46
f 51 52 47
f 55 50 49
f 55 56 50
f 56 51 50
f 56 57 51
f 57 52 51
f 57 58 52
f 58 53 52
f 58 59 53
f 59 54 53
f 59 60 54
f 61 57 56
f 61 62 57
f 63 57 62
f 63 58 57
f 64 60 59
f 64 65 60
f 67 61 66
f 67 62 61
f 73 22 23
f 73 72 22
f 73 68 72
f 73 69 68
f 24 73 23
f 24 74 73
f 73 70 69
f 73 74 70
f 74 71 70
f 74 75 71
f 76 22 72
f 76 25 22
f 77 26 25
f 77 25 76
f 74 24 27
f 74 27 78
f 28 78 27
f 28 79 78
f 78 75 74
f 78 79 75
f 29 79 28
f 29 80 79
f 77 31 26
f 77 84 31
f 31 83 30
f 31 84 83
f 86 85 78
f 86 78 79
f 87 80 29
f 87 29 33
f 34 87 33
f 34 88 87
f 87 81 80
f 87 88 81
f 88 82 81
f 88 89 82
f 83 35 30
f 83 91 35
f 92 36 35
f 92 35 91
f 93 88 34
f 93 34 40
f 41 93 40
f 41 94 93
f 93 89 88
f 93 94 89
f 94 90 89
f 94 95 90
f 92 42 36
f 92 97 42
f 96 92 91
f 96 97 92
f 98 43 42
f 98 42 97
f 99 94 41
f 99 41 47
f 100 94 99
f 100 95 94
f 98 48 43
f 98 102 48
f 101 98 97
f 101 102 98
f 103 49 48
f 103 48 102
f 104 99 47
f 104 47 52
f 53 104 52
f 53 105 104
f 104 100 99
f 104 105 100
f 54 105 53
f 54 106 105
f 103 55 49
f 103 109 55
f 108 103 102
f 108 109 103
f 110 56 55
f 110 55 109
f 112 59 58
f 112 58 111
f 113 106 54
f 113 54 60
f 113 107 106
f 113 114 107
f 110 61 56
f 110 115 61
f 111 58 63
f 111 63 117
f 117 63 62
f 117 62 116
f 112 64 59
f 112 118 64
f 117 112 111
f 117 118 112
f 113 60 65
f 113 65 119
f 65 64 118
f 65 118 119
f 120 113 119
f 120 114 113
f 121 61 115
f 121 66 61
f 116 62 67
f 116 67 122
f 67 66 121
f 67 121 122
f 121 115 116
f 121 116 122
f 123 116 122
f 123 117 116
f 123 118 117
f 123 124 118
f 125 118 124
f 125 119 118
f 130 68 69
f 130 129 68
f 130 126 129
f 130 127 126
f 70 130 69
f 70 131 130
f 130 128 127
f 130 131 128
f 132 70 71
f 132 131 70
f 133 68 129
f 133 72 68
f 132 71 75
f 132 75 135
f 134 131 132
f 134 132 135
f 133 76 72
f 133 138 76
f 139 77 76
f 139 76 138
f 141 135 75
f 141 75 79
f 79 78 140
f 79 140 141
f 80 141 79
f 80 142 141
f 142 135 141
f 142 136 135
f 81 142 80
f 81 143 142
f 142 137 136
f 142 143 137
f 144 81 82
f 144 143 81
f 146 77 139
f 146 84 77
f 146 83 84
f 146 145 83
f 145 139 138
f 145 146 139
f 140 78 85
f 140 85 147
f 141 86 79
f 141 148 86
f 86 147 85
f 86 148 147
f 148 140 147
f 148 141 140
f 149 144 82
f 149 82 89
f 90 149 89
f 90 150 149
f 151 83 145
f 151 91 83
f 153 150 90
f 153 90 95
f 154 91 151
f 154 96 91
f 155 97 96
f 155 96 154
f 154 151 152
f 154 152 155
f 153 95 100
f 153 100 156
f 155 101 97
f 155 158 101
f 159 102 101
f 159 101 158
f 160 156 100
f 160 100 105
f 106 160 105
f 106 161 160
f 160 157 156
f 160 161 157
f 107 161 106
f 107 162 161
f 159 108 102
f 159 163 108
f 164 109 108
f 164 108 163
f 110 109 164
f 110 164 165
f 162 107 114
f 162 114 168
f 169 110 165
f 169 115 110
f 116 115 169
f 116 169 170
f 169 165 166
f 169 166 170
f 173 168 114
f 173 114 120
f 120 119 172
f 120 172 173
f 173 172 167
f 173 167 168
f 174 116 170
f 174 122 116
f 123 122 174
f 123 174 175
f 174 170 171
f 174 171 175
f 176 124 123
f 176 123 175
f 172 119 125
f 172 125 177
f 125 124 176
f 125 176 177
f 183 126 127
f 183 182 126
f 183 178 182
f 183 179 178
f 128 183 127
f 128 184 183
f 183 180 179
f 183 184 180
f 187 126 182
f 187 129 126
f 187 181 186
f 187 182 181
f 188 184 128
f 188 128 131
f 188 185 184
f 188 189 185
f 187 133 129
f 187 191 133
f 191 186 190
f 191 187 186
f 188 131 134
f 188 134 192
f 193 134 135
f 193 192 134
f 192 189 188
f 192 193 189
f 136 193 135
f 136 194 193
f 137 194 136
f 137 195 194
f 197 133 191
f 197 138 133
f 196 191 190
f 196 197 191
f 198 195 137
f 198 137 143
f 144 198 143
f 144 199 198
f 201 138 197
f 201 145 138
f 203 199 144
f 203 144 149
f 202 198 199
f 202 199 203
f 204 149 150
f 204 203 149
f 203 200 199
f 203 204 200
f 205 145 201
f 205 151 145
f 152 151 205
f 152 205 206
f 207 204 150
f 207 150 153
f 208 152 206
f 208 155 152
f 211 207 153
f 211 153 156
f 157 211 156
f 157 212 211
f 208 158 155
f 208 213 158
f 159 158 213
f 159 213 214
f 215 209 210
f 215 210 216
f 217 212 157
f 217 157 161
f 218 161 162
f 218 217 161
f 214 163 159
f 214 219 163
f 164 163 219
f 164 219 220
f 165 164 220
f 165 220 221
f 166 165 221
f 166 221 222
f 225 218 162
f 225 162 168
f 225 168 167
f 225 167 224
f 224 217 218
f 224 218 225
f 226 166 222
f 226 170 166
f 171 170 226
f 171 226 227
f 226 222 223
f 226 223 227
f 229 224 167
f 229 167 172
f 230 171 227
f 230 175 171
f 176 175 230
f 176 230 231
f 230 227 228
f 230 228 231
f 229 172 177
f 229 177 232
f 177 176 231
f 177 231 232
f 237 178 179
f 237 236 178
f 180 237 179
f 180 238 237
f 239 234 233
f 239 240 234
f 240 235 234
f 240 241 235
f 242 178 236
f 242 182 178
f 242 181 182
f 242 241 181
f 242 235 241
f 242 236 235
f 243 238 180
f 243 180 184
f 185 243 184
f 185 244 243
f 246 181 241
f 246 186 181
f 245 241 240
f 245 246 241
f 247 244 185
f 247 185 189
f 246 190 186
f 246 250 190
f 250 245 249
f 250 246 245
f 251 247 189
f 251 189 193
f 194 251 193
f 194 252 251
f 251 248 247
f 251 252 248
f 253 194 195
f 253 252 194
f 250 196 190
f 250 255 196
f 254 250 249
f 254 255 250
f 256 197 196
f 256 196 255
f 257 253 195
f 257 195 198
f 259 199 200
f 259 258 199
f 263 254 262
f 263 255 254
f 256 201 197
f 256 264 201
f 263 256 255
f 263 264 256
f 257 198 202
f 257 202 265
f 258 203 199
f 258 266 203
f 203 265 202
f 203 266 265
f 265 258 257
f 265 266 258
f 267 259 200
f 267 200 204
f 266 258 259
f 266 259 267
f 268 261 260
f 268 269 261
f 270 261 269
f 270 262 261
f 271 262 270
f 271 263 262
f 264 205 201
f 264 272 205
f 271 264 263
f 271 272 264
f 206 205 272
f 206 272 273
f 267 204 207
f 267 207 276
f 275 266 267
f 275 267 276
f 277 270 269
f 277 278 270
f 279 272 271
f 279 280 272
f 273 208 206
f 273 281 208
f 280 273 272
f 280 281 273
f 282 281 273
f 282 273 274
f 210 209 283
f 210 283 284
f 276 207 211
f 276 211 285
f 286 211 212
f 286 285 211
f 287 208 281
f 287 213 208
f 214 213 287
f 214 287 288
f 283 209 215
f 283 215 289
f 284 216 210
f 284 290 216
f 216 289 215
f 216 290 289
f 290 283 289
f 290 284 283
f 291 290 284
f 291 284 285
f 292 286 212
f 292 212 217
f 288 219 214
f 288 293 219
f 220 219 293
f 220 293 294
f 295 221 220
f 295 220 294
f 222 221 295
f 222 295 296
f 223 222 296
f 223 296 297
f 296 289 290
f 296 290 297
f 297 290 291
f 297 291 298
f 299 292 217
f 299 217 224
f 298 291 292
f 298 292 299
f 305 223 297
f 305 227 223
f 228 227 305
f 228 305 306
f 305 297 298
f 305 298 306
f 299 224 229
f 299 229 307
f 306 298 299
f 306 299 307
f 308 301 300
f 308 309 301
f 311 302 310
f 311 303 302
f 311 304 303
f 311 312 304
f 313 228 306
f 313 231 228
f 307 229 232
f 307 232 314
f 232 231 313
f 232 313 314
f 313 306 307
f 313 307 314
f 315 310 309
f 315 316 310
f 322 233 234
f 322 321 233
f 322 317 321
f 322 318 317
f 235 322 234
f 235 323 322
f 323 318 322
f 323 319 318
f 324 235 236
f 324 323 235
f 323 320 319
f 323 324 320
f 325 236 237
f 325 324 236
f 238 325 237
f 238 326 325
f 321 239 233
f 321 328 239
f 329 240 239
f 329 239 328
f 330 326 238
f 330 238 243
f 244 330 243
f 244 331 330
f 330 327 326
f 330 331 327
f 329 245 240
f 329 333 245
f 332 329 328
f 332 333 329
f 334 331 244
f 334 244 247
f 248 334 247
f 248 335 334
f 336 245 333
f 336 249 245
f 337 335 248
f 337 248 252
f 338 252 253
f 338 337 252
f 336 254 249
f 336 339 254
f 341 338 253
f 341 253 257
f 340 337 338
f 340 338 341
f 342 257 258
f 342 341 257
f 261 343 260
f 261 344 343
f 345 254 339
f 345 262 254
f 345 261 262
f 345 344 261
f 347 346 340
f 347 340 341
f 342 258 266
f 342 266 348
f 347 341 342
f 347 342 348
f 343 268 260
f 343 349 268
f 269 268 349
f 269 349 350
f 349 343 344
f 349 344 350
f 352 271 270
f 352 270 351
f 274 273 353
f 274 353 354
f 355 346 347
f 355 347 356
f 348 266 275
f 348 275 357
f 356 347 348
f 356 348 357
f 358 275 276
f 358 357 275
f 359 269 350
f 359 277 269
f 351 270 278
f 351 278 360
f 278 277 359
f 278 359 360
f 352 279 271
f 352 361 279
f 360 352 351
f 360 361 352
f 362 280 279
f 362 279 361
f 363 353 273
f 363 273 281
f 363 281 280
f 363 280 362
f 354 282 274
f 354 364 282
f 282 363 281
f 282 364 363
f 367 356 357
f 367 357 368
f 358 276 285
f 358 285 369
f 285 284 368
f 285 368 369
f 368 357 358
f 368 358 369
f 370 285 286
f 370 369 285
f 363 287 281
f 363 371 287
f 288 287 371
f 288 371 372
f 371 363 364
f 371 364 372
f 372 364 365
f 372 365 373
f 373 365 366
f 373 366 374
f 375 374 366
f 375 366 367
f 376 368 284
f 376 284 290
f 376 290 289
f 376 289 375
f 376 375 367
f 376 367 368
f 377 285 369
f 377 291 285
f 378 370 286
f 378 286 292
f 292 291 377
f 292 377 378
f 377 369 370
f 377 370 378
f 372 293 288
f 372 381 293
f 381 371 380
f 381 372 371
f 382 294 293
f 382 293 381
f 381 372 373
f 381 373 382
f 383 295 294
f 383 294 382
f 383 382 373
f 383 373 374
f 375 289 296
f 375 296 384
f 384 296 295
f 384 295 383
f 384 383 374
f 384 374 375
f 386 300 301
f 386 385 300
f 386 379 385
f 386 380 379
f 387 380 386
f 387 381 380
f 388 302 303
f 388 387 302
f 388 381 387
f 388 382 381
f 304 388 303
f 304 389 388
f 388 383 382
f 388 389 383
f 391 300 385
f 391 308 300
f 392 386 301
f 392 301 309
f 392 309 308
f 392 308 391
f 393 302 387
f 393 310 302
f 393 309 310
f 393 392 309
f 392 387 386
f 392 393 387
f 394 311 310
f 394 310 393
f 395 389 304
f 395 304 312
f 312 311 394
f 312 394 395
f 395 390 389
f 395 396 390
f 392 315 309
f 392 397 315
f 393 310 316
f 393 316 398
f 316 315 397
f 316 397 398
f 398 394 393
f 398 399 394
f 400 394 399
f 400 395 394
f 400 396 395
f 400 401 396
f 403 317 318
f 403 402 317
f 319 403 318
f 319 404 403
f 320 404 319
f 320 405 404
f 408 317 402
f 408 321 317
f 409 405 320
f 409 320 324
f 325 409 324
f 325 410 409
f 326 410 325
f 326 411 410
f 327 411 326
f 327 412 411
f 412 406 411
f 412 407 406
f 408 328 321
f 408 414 328
f 415 412 327
f 415 327 331
f 414 332 328
f 414 417 332
f 416 414 413
f 416 417 414
f 418 333 332
f 418 332 417
f 415 331 334
f 415 334 419
f 420 334 335
f 420 419 334
f 418 336 333
f 418 423 336
f 422 418 417
f 422 423 418
f 420 335 337
f 420 337 425
f 424 419 420
f 424 420 425
f 426 422 421
f 426 427 422
f 428 336 423
f 428 339 336
f 428 422 427
f 428 423 422
f 425 337 340
f 425 340 429
f 431 339 428
f 431 345 339
f 431 344 345
f 431 430 344
f 430 428 427
f 430 431 428
f 432 429 340
f 432 340 346
f 434 344 430
f 434 350 344
f 437 354 353
f 437 353 436
f 432 346 355
f 432 355 439
f 440 355 356
f 440 439 355
f 439 433 432
f 439 440 433
f 434 359 350
f 434 441 359
f 442 360 359
f 442 359 441
f 361 360 442
f 361 442 443
f 362 361 443
f 362 443 444
f 445 436 353
f 445 353 363
f 445 363 362
f 445 362 444
f 445 444 435
f 445 435 436
f 437 364 354
f 437 446 364
f 445 437 436
f 445 446 437
f 365 364 446
f 365 446 447
f 366 365 447
f 366 447 448
f 448 447 438
f 448 438 439
f 449 440 356
f 449 356 367
f 449 367 366
f 449 366 448
f 449 448 439
f 449 439 440
f 450 442 441
f 450 451 442
f 452 442 451
f 452 443 442
f 453 443 452
f 453 444 443
f 454 444 453
f 454 445 444
f 455 371 372
f 455 454 371
f 454 446 445
f 454 455 446
f 456 446 455
f 456 447 446
f 457 451 450
f 457 458 451
f 458 452 451
f 458 459 452
f 459 453 452
f 459 460 453
f 454 380 371
f 454 461 380
f 461 379 380
f 461 460 379
f 461 453 460
f 461 454 453
f 462 455 372
f 462 372 381
f 382 462 381
f 382 463 462
f 462 456 455
f 462 463 456
f 464 382 383
f 464 463 382
f 466 379 460
f 466 385 379
f 465 460 459
f 465 466 460
f 464 383 389
f 464 389 467
f 390 467 389
f 390 468 467
f 466 391 385
f 466 469 391
f 470 392 391
f 470 391 469
f 468 390 396
f 468 396 472
f 471 467 468
f 471 468 472
f 470 397 392
f 470 475 397
f 474 470 469
f 474 475 470
f 476 398 397
f 476 397 475
f 399 398 476
f 399 476 477
f 478 400 399
f 478 399 477
f 472 396 401
f 472 401 479
f 401 400 478
f 401 478 479
f 479 473 472
f 479 480 473
f 481 478 477
f 481 482 478
f 483 478 482
f 483 479 478
f 483 480 479
f 483 484 480
f 403 487 402
f 403 488 487
f 404 488 403
f 404 489 488
f 405 489 404
f 405 490 489
f 489 486 485
f 489 490 486
f 493 406 407
f 493 492 406
f 487 408 402
f 487 495 408
f 496 495 487
f 496 487 488
f 497 490 405
f 497 405 409
f 410 497 409
f 410 498 497
f 497 491 490
f 497 498 491
f 499 406 492
f 499 411 406
f 411 498 410
f 411 499 498
f 498 492 491
f 498 499 492
f 500 493 407
f 500 407 412
f 499 492 493
f 499 493 500
f 502 408 495
f 502 414 408
f 502 413 414
f 502 501 413
f 502 494 501
f 502 495 494
f 503 500 412
f 503 412 415
f 501 416 413
f 501 504 416
f 505 417 416
f 505 416 504
f 503 415 419
f 503 419 507
f 505 422 417
f 505 509 422
f 509 421 422
f 509 508 421
f 508 505 504
f 508 509 505
f 507 419 424
f 507 424 511
f 510 506 507
f 510 507 511
f 512 424 425
f 512 511 424
f 513 421 508
f 513 426 421
f 514 427 426
f 514 426 513
f 513 508 509
f 513 509 514
f 512 425 429
f 512 429 516
f 515 511 512
f 515 512 516
f 518 427 514
f 518 430 427
f 519 516 429
f 519 429 432
f 520 432 433
f 520 519 432
f 518 434 430
f 518 522 434
f 522 517 521
f 522 518 517
f 524 436 435
f 524 435 523
f 439 438 525
f 439 525 526
f 520 433 440
f 520 440 527
f 527 440 439
f 527 439 526
f 526 519 520
f 526 520 527
f 522 441 434
f 522 529 441
f 530 523 435
f 530 435 444
f 531 436 524
f 531 445 436
f 445 530 444
f 445 531 530
f 532 525 438
f 532 438 447
f 533 525 532
f 533 526 525
f 534 526 533
f 534 527 526
f 537 441 529
f 537 450 441
f 537 528 536
f 537 529 528
f 538 532 447
f 538 447 456
f 541 535 540
f 541 536 535
f 537 457 450
f 537 542 457
f 541 537 536
f 541 542 537
f 543 458 457
f 543 457 542
f 544 459 458
f 544 458 543
f 545 538 456
f 545 456 463
f 464 545 463
f 464 546 545
f 545 539 538
f 545 546 539
f 547 543 542
f 547 548 543
f 544 465 459
f 544 549 465
f 548 544 543
f 548 549 544
f 550 466 465
f 550 465 549
f 551 546 464
f 551 464 467
f 553 549 548
f 553 554 549
f 550 469 466
f 550 555 469
f 554 550 549
f 554 555 550
f 551 467 471
f 551 471 557
f 558 471 472
f 558 557 471
f 557 552 551
f 557 558 552
f 473 558 472
f 473 559 558
f 560 469 555
f 560 474 469
f 561 475 474
f 561 474 560
f 560 555 556
f 560 556 561
f 476 475 561
f 476 561 562
f 563 477 476
f 563 476 562
f 564 559 473
f 564 473 480
f 563 481 477
f 563 566 481
f 565 563 562
f 565 566 563
f 567 482 481
f 567 481 566
f 568 483 482
f 568 482 567
f 564 480 484
f 564 484 569
f 484 483 568
f 484 568 569
f 572 485 486
f 572 571 485
f 574 485 571
f 574 489 485
f 574 488 489
f 574 573 488
f 574 570 573
f 574 571 570
f 575 572 486
f 575 486 490
f 491 575 490
f 491 576 575
f 577 491 492
f 577 576 491
f 579 494 495
f 579 578 494
f 580 488 573
f 580 496 488
f 496 579 495
f 496 580 579
f 581 575 576
f 581 576 582
f 577 492 499
f 577 499 583
f 582 576 577
f 582 577 583
f 500 583 499
f 500 584 583
f 585 494 578
f 585 501 494
f 584 500 503
f 584 503 587
f 586 583 584
f 586 584 587
f 585 504 501
f 585 588 504
f 590 587 503
f 590 503 507
f 590 507 506
f 590 506 589
f 590 589 586
f 590 586 587
f 591 504 588
f 591 508 504
f 592 509 508
f 592 508 591
f 589 506 510
f 589 510 593
f 594 510 511
f 594 593 510
f 592 514 509
f 592 596 514
f 594 511 515
f 594 515 598
f 597 593 594
f 597 594 598
f 516 598 515
f 516 599 598
f 602 514 596
f 602 518 514
f 602 517 518
f 602 601 517
f 602 595 601
f 602 596 595
f 604 603 597
f 604 597 598
f 599 516 519
f 599 519 605
f 604 598 599
f 604 599 605
f 606 599 605
f 606 600 599
f 608 517 601
f 608 521 517
f 609 522 521
f 609 521 608
f 524 523 610
f 524 610 611
f 612 605 519
f 612 519 526
f 613 526 527
f 613 612 526
f 615 607 614
f 615 608 607
f 609 529 522
f 609 616 529
f 616 528 529
f 616 615 528
f 615 609 608
f 615 616 609
f 610 523 530
f 610 530 617
f 611 531 524
f 611 618 531
f 531 617 530
f 531 618 617
f 617 611 610
f 617 618 611
f 533 532 619
f 533 619 620
f 613 527 534
f 613 534 621
f 621 534 533
f 621 533 620
f 621 620 612
f 621 612 613
f 623 528 615
f 623 536 528
f 623 535 536
f 623 622 535
f 623 614 622
f 623 615 614
f 619 532 538
f 619 538 624
f 539 624 538
f 539 625 624
f 625 619 624
f 625 620 619
f 626 535 622
f 626 540 535
f 541 540 626
f 541 626 627
f 628 542 541
f 628 541 627
f 629 625 539
f 629 539 546
f 628 547 542
f 628 631 547
f 630 628 627
f 630 631 628
f 632 548 547
f 632 547 631
f 633 629 546
f 633 546 551
f 552 633 551
f 552 634 633
f 632 553 548
f 632 637 553
f 636 632 631
f 636 637 632
f 638 554 553
f 638 553 637
f 639 555 554
f 639 554 638
f 556 555 639
f 556 639 640
f 641 634 552
f 641 552 558
f 559 641 558
f 559 642 641
f 644 635 643
f 644 636 635
f 645 636 644
f 645 637 636
f 646 637 645
f 646 638 637
f 640 561 556
f 640 648 561
f 647 640 639
f 647 648 640
f 649 562 561
f 649 561 648
f 642 559 564
f 642 564 651
f 649 565 562
f 649 652 565
f 653 566 565
f 653 565 652
f 654 567 566
f 654 566 653
f 568 567 654
f 568 654 655
f 656 651 564
f 656 564 569
f 656 569 568
f 656 568 655
f 656 655 650
f 656 650 651
f 658 570 571
f 658 657 570
f 659 571 572
f 659 658 571
f 660 570 657
f 660 573 570
f 660 657 658
f 660 658 661
f 662 659 572
f 662 572 575
f 661 658 659
f 661 659 662
f 579 663 578
f 579 664 663
f 660 580 573
f 660 665 580
f 665 579 580
f 665 664 579
f 666 665 660
f 666 660 661
f 662 575 581
f 662 581 667
f 666 661 662
f 666 662 667
f 668 581 582
f 668 667 581
f 669 582 583
f 669 668 582
f 663 585 578
f 663 670 585
f 671 670 663
f 671 663 664
f 672 665 666
f 672 666 673
f 673 666 667
f 673 667 674
f 674 667 668
f 674 668 675
f 669 583 586
f 669 586 676
f 675 668 669
f 675 669 676
f 677 585 670
f 677 588 585
f 678 674 675
f 678 675 679
f 680 676 586
f 680 586 589
f 680 679 675
f 680 675 676
f 677 591 588
f 677 681 591
f 592 591 681
f 592 681 682
f 683 678 679
f 683 679 684
f 680 589 593
f 680 593 685
f 684 679 680
f 684 680 685
f 688 592 682
f 688 596 592
f 688 595 596
f 688 687 595
f 685 593 597
f 685 597 689
f 600 690 599
f 600 691 690
f 693 595 687
f 693 601 595
f 693 686 692
f 693 687 686
f 694 689 597
f 694 597 603
f 604 694 603
f 604 695 694
f 690 605 599
f 690 696 605
f 696 604 605
f 696 695 604
f 691 600 606
f 691 606 697
f 697 606 605
f 697 605 696
f 697 696 690
f 697 690 691
f 699 601 693
f 699 608 601
f 699 607 608
f 699 698 607
f 699 692 698
f 699 693 692
f 696 605 612
f 696 612 701
f 702 607 698
f 702 614 607
f 704 701 612
f 704 612 620
f 703 700 701
f 703 701 704
f 705 614 702
f 705 622 614
f 707 704 620
f 707 620 625
f 705 626 622
f 705 708 626
f 709 627 626
f 709 626 708
f 708 705 706
f 708 706 709
f 707 625 629
f 707 629 710
f 709 630 627
f 709 712 630
f 712 708 711
f 712 709 708
f 713 631 630
f 713 630 712
f 710 629 633
f 710 633 714
f 715 633 634
f 715 714 633
f 716 712 711
f 716 717 712
f 713 636 631
f 713 718 636
f 718 635 636
f 718 717 635
f 639 638 719
f 639 719 720
f 715 634 641
f 715 641 724
f 723 714 715
f 723 715 724
f 725 641 642
f 725 724 641
f 727 635 717
f 727 643 635
f 644 643 727
f 644 727 728
f 729 645 644
f 729 644 728
f 719 638 646
f 719 646 730
f 646 645 729
f 646 729 730
f 720 647 639
f 720 731 647
f 731 719 730
f 731 720 719
f 732 648 647
f 732 647 731
f 732 731 720
f 732 720 721
f 649 648 732
f 649 732 733
f 732 721 722
f 732 722 733
f 735 725 642
f 735 642 651
f 651 650 734
f 651 734 735
f 736 725 735
f 736 726 725
f 738 730 737
f 738 731 730
f 739 649 733
f 739 652 649
f 653 652 739
f 653 739 740
f 741 654 653
f 741 653 740
f 734 650 655
f 734 655 742
f 742 655 654
f 742 654 741
f 743 734 742
f 743 735 734
f 743 736 735
f 743 744 736
f 745 741 740
f 745 746 741
f 747 741 746
f 747 742 741
f 748 744 743
f 748 749 744
f 750 749 748
f 750 751 749
f 753 664 665
f 753 752 664
f 752 671 664
f 752 755 671
f 671 754 670
f 671 755 754
f 753 665 672
f 753 672 756
f 756 755 752
f 756 752 753
f 757 672 673
f 757 756 672
f 758 673 674
f 758 757 673
f 754 677 670
f 754 759 677
f 760 759 754
f 760 754 755
f 760 755 756
f 760 756 761
f 761 756 757
f 761 757 762
f 758 674 678
f 758 678 763
f 762 757 758
f 762 758 763
f 759 681 677
f 759 765 681
f 682 681 765
f 682 765 766
f 766 765 759
f 766 759 760
f 766 760 761
f 766 761 767
f 768 767 761
f 768 761 762
f 763 678 683
f 763 683 769
f 769 768 762
f 769 762 763
f 770 683 684
f 770 769 683
f 771 684 685
f 771 770 684
f 773 686 687
f 773 772 686
f 773 764 772
f 773 765 764
f 774 682 766
f 774 688 682
f 774 687 688
f 774 773 687
f 775 767 768
f 775 768 776
f 777 776 768
f 777 768 769
f 778 777 769
f 778 769 770
f 771 685 689
f 771 689 779
f 778 770 771
f 778 771 779
f 781 686 772
f 781 692 686
f 782 776 777
f 782 777 783
f 784 779 689
f 784 689 694
f 695 784 694
f 695 785 784
f 784 780 779
f 784 785 780
f 786 695 696
f 786 785 695
f 787 692 781
f 787 698 692
f 786 696 701
f 786 701 789
f 789 701 700
f 789 700 788
f 788 785 786
f 788 786 789
f 790 698 787
f 790 702 698
f 788 700 703
f 788 703 792
f 793 703 704
f 793 792 703
f 794 702 790
f 794 705 702
f 706 705 794
f 706 794 795
f 794 790 791
f 794 791 795
f 793 704 707
f 793 707 797
f 796 792 793
f 796 793 797
f 801 706 795
f 801 709 706
f 801 708 709
f 801 800 708
f 797 707 710
f 797 710 803
f 802 796 797
f 802 797 803
f 804 799 798
f 804 805 799
f 800 711 708
f 800 806 711
f 806 799 805
f 806 800 799
f 713 712 807
f 713 807 808
f 811 803 710
f 811 710 714
f 806 716 711
f 806 812 716
f 807 712 717
f 807 717 813
f 813 717 716
f 813 716 812
f 808 718 713
f 808 814 718
f 814 717 718
f 814 813 717
f 817 816 809
f 817 809 810
f 721 720 817
f 721 817 818
f 722 721 818
f 722 818 819
f 811 714 723
f 811 723 821
f 822 723 724
f 822 821 723
f 725 822 724
f 725 823 822
f 726 823 725
f 726 824 823
f 825 717 813
f 825 727 717
f 826 728 727
f 826 727 825
f 729 728 826
f 729 826 827
f 828 730 729
f 828 729 827
f 828 827 815
f 828 815 816
f 829 817 720
f 829 720 731
f 829 828 816
f 829 816 817
f 830 722 819
f 830 733 722
f 830 819 820
f 830 820 831
f 824 726 736
f 824 736 835
f 834 823 824
f 834 824 835
f 836 826 825
f 836 837 826
f 838 826 837
f 838 827 826
f 828 737 730
f 828 839 737
f 829 731 738
f 829 738 840
f 738 737 839
f 738 839 840
f 839 828 829
f 839 829 840
f 830 739 733
f 830 841 739
f 740 739 841
f 740 841 842
f 841 830 831
f 841 831 842
f 842 831 832
f 842 832 843
f 843 832 833
f 843 833 844
f 743 742 844
f 743 844 845
f 846 835 736
f 846 736 744
f 845 834 835
f 845 835 846
f 848 836 847
f 848 837 836
f 849 740 842
f 849 745 740
f 746 745 849
f 746 849 850
f 849 842 843
f 849 843 850
f 844 742 747
f 844 747 851
f 747 746 850
f 747 850 851
f 851 850 843
f 851 843 844
f 852 743 845
f 852 748 743
f 853 846 744
f 853 744 749
f 852 845 846
f 852 846 853
f 852 750 748
f 852 854 750
f 853 749 751
f 853 751 855
f 751 750 854
f 751 854 855
f 854 852 853
f 854 853 855
f 857 764 765
f 857 856 764
f 767 858 766
f 767 859 858
f 860 764 856
f 860 772 764
f 857 765 773
f 857 773 861
f 861 860 856
f 861 856 857
f 862 766 858
f 862 774 766
f 862 773 774
f 862 861 773
f 862 857 861
f 862 858 857
f 859 767 775
f 859 775 863
f 864 775 776
f 864 863 775
f 866 777 778
f 866 865 777
f 867 778 779
f 867 866 778
f 780 867 779
f 780 868 867
f 869 772 860
f 869 781 772
f 864 776 782
f 864 782 870
f 865 783 777
f 865 871 783
f 871 782 783
f 871 870 782
f 870 865 864
f 870 871 865
f 872 868 780
f 872 780 785
f 874 781 869
f 874 787 781
f 877 876 870
f 877 870 871
f 878 872 785
f 878 785 788
f 878 873 872
f 878 879 873
f 880 787 874
f 880 790 787
f 791 790 880
f 791 880 881
f 880 874 875
f 880 875 881
f 878 788 792
f 878 792 883
f 884 878 883
f 884 879 878
f 885 791 881
f 885 795 791
f 883 792 796
f 883 796 888
f 888 887 882
f 888 882 883
f 799 889 798
f 799 890 889
f 891 799 800
f 891 890 799
f 892 795 885
f 892 801 795
f 801 891 800
f 801 892 891
f 892 885 886
f 892 886 893
f 888 796 802
f 888 802 895
f 896 802 803
f 896 895 802
f 889 804 798
f 889 897 804
f 805 804 897
f 805 897 898
f 897 889 890
f 897 890 898
f 899 806 805
f 899 805 898
f 901 808 807
f 901 807 900
f 810 809 902
f 810 902 903
f 906 905 894
f 906 894 895
f 896 803 811
f 896 811 907
f 906 895 896
f 906 896 907
f 908 806 899
f 908 812 806
f 909 900 807
f 909 807 813
f 813 812 908
f 813 908 909
f 908 899 900
f 908 900 909
f 901 814 808
f 901 910 814
f 814 909 813
f 814 910 909
f 912 902 809
f 912 809 816
f 912 816 815
f 912 815 911
f 913 810 903
f 913 817 810
f 818 817 913
f 818 913 914
f 913 903 904
f 913 904 914
f 915 819 818
f 915 818 914
f 915 914 904
f 915 904 905
f 820 819 915
f 820 915 916
f 915 905 906
f 915 906 916
f 907 811 821
f 907 821 917
f 916 906 907
f 916 907 917
f 918 821 822
f 918 917 821
f 919 822 823
f 919 918 822
f 920 813 909
f 920 825 813
f 911 815 827
f 911 827 922
f 923 911 922
f 923 912 911
f 924 820 916
f 924 831 820
f 832 831 924
f 832 924 925
f 924 916 917
f 924 917 925
f 833 832 925
f 833 925 926
f 925 917 918
f 925 918 926
f 919 823 834
f 919 834 927
f 926 918 919
f 926 919 927
f 928 825 920
f 928 836 825
f 928 920 921
f 928 921 929
f 922 827 838
f 922 838 930
f 838 837 929
f 838 929 930
f 930 929 921
f 930 921 922
f 931 833 926
f 931 844 833
f 932 927 834
f 932 834 845
f 845 844 931
f 845 931 932
f 931 926 927
f 931 927 932
f 928 847 836
f 928 933 847
f 934 929 837
f 934 837 848
f 848 847 933
f 848 933 934
f 934 933 928
f 934 928 929
f 858 935 857
f 858 936 935
f 937 858 859
f 937 936 858
f 935 861 857
f 935 939 861
f 861 938 860
f 861 939 938
f 940 939 935
f 940 935 936
f 937 859 863
f 937 863 941
f 940 936 937
f 940 937 941
f 942 863 864
f 942 941 863
f 943 864 865
f 943 942 864
f 866 943 865
f 866 944 943
f 945 866 867
f 945 944 866
f 946 867 868
f 946 945 867
f 938 869 860
f 938 947 869
f 948 947 938
f 948 938 939
f 949 948 939
f 949 939 940
f 950 949 940
f 950 940 941
f 871 870 951
f 871 951 952
f 955 946 868
f 955 868 872
f 954 945 946
f 954 946 955
f 956 872 873
f 956 955 872
f 957 869 947
f 957 874 869
f 875 874 957
f 875 957 958
f 957 947 948
f 957 948 958
f 958 948 949
f 958 949 959
f 960 959 949
f 960 949 950
f 951 870 876
f 951 876 961
f 960 950 951
f 960 951 961
f 952 877 871
f 952 962 877
f 877 961 876
f 877 962 961
f 963 962 952
f 963 952 953
f 964 963 953
f 964 953 954
f 964 954 955
f 964 955 965
f 956 873 879
f 956 879 966
f 965 955 956
f 965 956 966
f 967 875 958
f 967 881 875
f 967 958 959
f 967 959 968
f 969 968 959
f 969 959 960
f 969 960 961
f 969 961 970
f 971 970 961
f 971 961 962
f 973 883 882
f 973 882 972
f 966 879 884
f 966 884 974
f 974 884 883
f 974 883 973
f 974 973 965
f 974 965 966
f 967 885 881
f 967 977 885
f 886 885 977
f 886 977 978
f 978 977 967
f 978 967 968
f 979 970 971
f 979 971 980
f 972 882 887
f 972 887 982
f 983 887 888
f 983 982 887
f 983 972 982
f 983 973 972
f 986 890 891
f 986 985 890
f 986 975 985
f 986 976 975
f 892 986 891
f 892 987 986
f 987 976 986
f 987 977 976
f 988 886 978
f 988 893 886
f 893 987 892
f 893 988 987
f 988 977 987
f 988 978 977
f 991 990 979
f 991 979 980
f 991 980 981
f 991 981 992
f 993 992 981
f 993 981 982
f 994 983 888
f 994 888 895
f 994 895 894
f 994 894 993
f 994 993 982
f 994 982 983
f 996 890 985
f 996 898 890
f 996 984 995
f 996 985 984
f 997 899 898
f 997 898 996
f 998 900 899
f 998 899 997
f 901 900 998
f 901 998 999
f 1001 1000 989
f 1001 989 990
f 1002 903 902
f 1002 902 1001
f 1002 1001 990
f 1002 990 991
f 904 903 1002
f 904 1002 1003
f 1002 991 992
f 1002 992 1003
f 1004 993 894
f 1004 894 905
f 1004 905 904
f 1004 904 1003
f 1004 1003 992
f 1004 992 993
f 1006 901 999
f 1006 910 901
f 910 1005 909
f 910 1006 1005
f 1007 1006 999
f 1007 999 1000
f 1001 902 912
f 1001 912 1008
f 1007 1000 1001
f 1007 1001 1008
f 1005 920 909
f 1005 1010 920
f 921 920 1010
f 921 1010 1011
f 1010 1005 1006
f 1010 1006 1011
f 922 921 1011
f 922 1011 1012
f 1011 1006 1007
f 1011 1007 1012
f 1008 912 923
f 1008 923 1013
f 923 922 1012
f 923 1012 1013
f 1012 1007 1008
f 1012 1008 1013
f 1013 1009 1008
f 1013 1014 1009
f 942 1017 941
f 942 1018 1017
f 943 1018 942
f 943 1019 1018
f 1020 943 944
f 1020 1019 943
f 1019 1016 1015
f 1019 1020 1016
f 1021 944 945
f 1021 1020 944
f 1017 950 941
f 1017 1022 950
f 951 950 1022
f 951 1022 1023
f 1023 1022 1017
f 1023 1017 1018
f 952 951 1023
f 952 1023 1024
f 1024 1023 1018
f 1024 1018 1019
f 953 952 1024
f 953 1024 1025
f 1024 1019 1020
f 1024 1020 1025
f 1021 945 954
f 1021 954 1026
f 1026 954 953
f 1026 953 1025
f 1025 1020 1021
f 1025 1021 1026
f 963 1027 962
f 963 1028 1027
f 964 1028 963
f 964 1029 1028
f 1030 964 965
f 1030 1029 964
f 969 1033 968
f 969 1034 1033
f 1035 969 970
f 1035 1034 969
f 1027 971 962
f 1027 1036 971
f 1037 1036 1027
f 1037 1027 1028
f 1037 1028 1029
f 1037 1029 1038
f 1030 965 973
f 1030 973 1039
f 1038 1029 1030
f 1038 1030 1039
f 1041 975 976
f 1041 1040 975
f 1040 1032 1031
f 1040 1041 1032
f 1042 976 977
f 1042 1041 976
f 1033 978 968
f 1033 1043 978
f 978 1042 977
f 978 1043 1042
f 1044 1043 1033
f 1044 1033 1034
f 1035 970 979
f 1035 979 1045
f 1044 1034 1035
f 1044 1035 1045
f 1046 971 1036
f 1046 980 971
f 981 980 1046
f 981 1046 1047
f 1046 1036 1037
f 1046 1037 1047
f 982 981 1047
f 982 1047 1048
f 1048 1047 1037
f 1048 1037 1038
f 1049 1039 973
f 1049 973 983
f 1049 983 982
f 1049 982 1048
f 1051 975 1040
f 1051 985 975
f 1051 984 985
f 1051 1050 984
f 1054 1053 1043
f 1054 1043 1044
f 1055 1045 979
f 1055 979 990
f 1055 990 989
f 1055 989 1054
f 1055 1054 1044
f 1055 1044 1045
f 1056 984 1050
f 1056 995 984
f 1057 996 995
f 1057 995 1056
f 997 996 1057
f 997 1057 1058
f 1059 998 997
f 1059 997 1058
f 1060 999 998
f 1060 998 1059
f 1060 1059 1052
f 1060 1052 1053
f 1061 1054 989
f 1061 989 1000
f 1061 1000 999
f 1061 999 1060
f 1061 1060 1053
f 1061 1053 1054
f 1063 1058 1062
f 1063 1059 1058
f 1009 1064 1008
f 1009 1065 1064
f 1064 1013 1008
f 1064 1066 1013
f 1065 1009 1014
f 1065 1014 1067
f 1014 1013 1066
f 1014 1066 1067
f 1066 1064 1065
f 1066 1065 1067
f 1016 1068 1015
f 1016 1069 1068
f 1070 1015 1068
f 1070 1019 1015
f 1071 1069 1016
f 1071 1016 1020
f 1071 1020 1019
f 1071 1019 1070
f 1070 1068 1069
f 1070 1069 1071
f 1032 1072 1031
f 1032 1073 1072
f 1039 1074 1038
f 1039 1075 1074
f 1072 1040 1031
f 1072 1076 1040
f 1073 1032 1041
f 1073 1041 1077
f 1076 1072 1073
f 1076 1073 1077
f 1078 1041 1042
f 1078 1077 1041
f 1079 1042 1043
f 1079 1078 1042
f 1074 1048 1038
f 1074 1080 1048
f 1075 1039 1049
f 1075 1049 1081
f 1049 1048 1080
f 1049 1080 1081
f 1080 1074 1075
f 1080 1075 1081
f 1076 1051 1040
f 1076 1083 1051
f 1051 1082 1050
f 1051 1083 1082
f 1084 1077 1078
f 1084 1078 1085
f 1086 1079 1043
f 1086 1043 1053
f 1086 1053 1052
f 1086 1052 1085
f 1086 1085 1078
f 1086 1078 1079
f 1087 1050 1082
f 1087 1056 1050
f 1057 1056 1087
f 1057 1087 1088
f 1089 1058 1057
f 1089 1057 1088
f 1090 1085 1052
f 1090 1052 1059
f 1089 1062 1058
f 1089 1091 1062
f 1090 1059 1063
f 1090 1063 1092
f 1092 1063 1062
f 1092 1062 1091
f 1094 1076 1077
f 1094 1093 1076
f 1093 1083 1076
f 1093 1096 1083
f 1083 1095 1082
f 1083 1096 1095
f 1094 1077 1084
f 1094 1084 1097
f 1096 1093 1094
f 1096 1094 1097
f 1098 1084 1085
f 1098 1097 1084
f 1099 1082 1095
f 1099 1087 1082
f 1088 1087 1099
f 1088 1099 1100
f 1100 1099 1095
f 1100 1095 1096
f 1089 1088 1100
f 1089 1100 1101
f 1100 1096 1097
f 1100 1097 1101
f 1098 1085 1090
f 1098 1090 1102
f 1101 1097 1098
f 1101 1098 1102
f 1103 1089 1101
f 1103 1091 1089
f 1102 1090 1092
f 1102 1092 1104
f 1104 1092 1091
f 1104 1091 1103
f 1103 1101 1102
f 1103 1102 1104
