# parsimony mesh: eg11607_monomer (source /Users/eranagmon/code/v2e-molecules/workspace/studies/ecoli-3d/viz/3d/structures/eg11607_monomer.pdb)
# atoms: 749  voxel: 4 Å  verts: 391  tris: 784
v 2.6837 -4.7994 -19.2292
v 2.7604 -4.7994 -19.2292
v 2.6837 -4.6400 -19.2292
v 2.7604 -4.6400 -19.2292
v 9.7341 2.5801 -19.5001
v 10.8709 2.5801 -19.5001
v 9.7341 3.4217 -19.5001
v 10.8709 3.4217 -19.5001
v 1.9527 -8.9379 -15.3466
v 3.0372 -8.9379 -15.3466
v 10.1930 -9.0580 -15.4817
v 11.7184 -9.0580 -15.4817
v -1.5827 -5.5657 -15.3697
v 0.9849 -6.5159 -16.6915
v 3.5240 -6.3901 -16.8921
v 9.4231 -6.7761 -15.7167
v 12.0055 -6.7761 -15.7167
v -5.5611 -1.1965 -15.4744
v -3.0661 -2.6283 -15.7270
v 1.0937 -3.0944 -17.7658
v 4.5572 -3.3028 -17.4986
v 8.3897 -3.0898 -16.1850
v 11.3132 -2.7761 -15.7428
v -5.5611 -0.4029 -15.4744
v -2.9138 1.0478 -15.6417
v 0.7087 1.2239 -16.6529
v 4.7087 1.2239 -17.8583
v 8.5240 1.2376 -18.2314
v 10.9188 1.2376 -16.9941
v -1.3289 3.2742 -15.2276
v 0.7941 4.8541 -15.7065
v 4.7087 5.2239 -16.6814
v 8.2240 4.7279 -17.1196
v 10.9064 3.4799 -17.2104
v 2.1844 7.6353 -15.5469
v 4.7087 7.5345 -15.4658
v 6.7139 7.2267 -15.2145
v 2.3735 -13.0441 -11.4262
v 3.2179 -13.0441 -11.4262
v -1.3139 -8.8115 -11.3833
v 0.8298 -10.2080 -12.7381
v 4.4609 -10.5952 -13.0074
v 8.7993 -9.7605 -13.2373
v 11.8012 -9.3993 -13.2104
v -5.7302 -5.1317 -11.7132
v -2.7816 -6.6820 -12.8816
v -0.7139 -8.2323 -14.0500
v 5.6891 -6.7761 -14.6678
v 7.4231 -6.7761 -14.6678
v 12.3893 -6.7761 -13.2104
v -6.0445 -2.6283 -13.1121
v -4.2494 -3.8631 -14.3799
v 6.3541 -4.6323 -15.1087
v 6.8437 -4.6323 -15.1087
v 12.8311 -2.7480 -13.0291
v 16.7087 -1.4797 -11.7495
v 18.9911 -1.0944 -11.5646
v -5.8884 1.0478 -12.9172
v -3.9956 2.2638 -14.0551
v 12.8497 1.2239 -13.5125
v 16.7087 1.2239 -11.8167
v 18.9513 1.2239 -11.5146
v -5.4701 3.7481 -11.3885
v -3.0740 4.8445 -12.8789
v -0.4823 5.9408 -14.3693
v 9.3805 6.0341 -14.0350
v 12.1549 4.6504 -12.6418
v 16.7087 3.2830 -11.2776
v 18.7498 3.2600 -11.2617
v -2.1524 8.1340 -11.7026
v 0.6000 9.2180 -13.0467
v 4.6115 9.3412 -13.1186
v 8.3118 7.5407 -12.9051
v 10.8329 7.3011 -11.3683
v 1.6822 11.6608 -11.7241
v 3.2133 11.6608 -11.7241
v -1.4175 -12.8604 -7.4028
v 0.9076 -13.0441 -8.9258
v 3.2484 -13.0478 -9.2104
v -1.7640 -10.3974 -8.9258
v -0.2931 -11.4782 -10.0695
v 5.2484 -11.7433 -9.2104
v 8.5906 -9.8793 -9.2514
v 11.1557 -9.3252 -10.6121
v -9.7602 -5.2611 -7.6288
v -7.1546 -5.5063 -9.0614
v -3.7875 -7.3250 -9.2104
v 9.8451 -7.7698 -7.9455
v 12.2979 -6.3742 -9.1291
v 15.4418 -4.9787 -7.6460
v -10.1502 -2.7761 -8.0674
v -8.0304 -2.7761 -10.0674
v 13.4401 -4.0626 -10.3127
v 16.7486 -3.4814 -9.0717
v 19.1288 -1.6928 -9.2104
v -10.0268 1.2239 -8.0255
v -7.8353 1.2239 -10.0255
v 19.4274 1.2239 -9.2104
v -9.5956 3.5698 -7.5728
v -6.8830 4.9923 -9.1263
v -4.8191 6.4148 -10.6797
v 10.1151 6.5018 -8.2507
v 12.3832 5.3920 -9.4345
v 16.7087 3.9053 -9.2104
v 19.0073 3.6537 -9.2104
v -5.6292 8.4046 -8.0130
v -3.6786 9.6026 -9.4576
v -0.9844 10.8006 -10.9022
v 5.3617 9.9622 -9.2104
v 8.7526 7.8609 -9.4345
v 10.8329 7.3011 -10.9173
v -2.5382 11.5951 -8.2355
v 0.4928 11.8386 -9.4254
v 3.3617 11.7139 -9.2104
v -2.2409 -13.2453 -5.2104
v 0.7087 -13.4464 -5.2104
v 3.6482 -12.9772 -5.2104
v -9.6385 -8.9453 -3.5549
v -7.2913 -9.6696 -3.8440
v -4.0344 -10.9893 -5.1105
v 5.6482 -11.7275 -5.2104
v 8.5906 -9.6161 -5.0149
v 11.1053 -8.9075 -3.5512
v -13.5806 -5.1582 -3.5756
v -11.0327 -6.5430 -4.8986
v -7.2913 -7.4221 -5.8440
v -4.5970 -7.8191 -6.3772
v 9.8451 -7.7698 -6.2179
v 12.5467 -7.2323 -5.0149
v 16.7486 -5.8054 -5.4599
v 19.3672 -5.3915 -4.2929
v -13.9040 -2.7761 -3.9805
v -12.1502 -2.7761 -5.9805
v 18.1085 -4.3468 -6.9596
v 19.5792 -2.9185 -5.4599
v -13.8189 -0.3135 -3.8719
v -11.7152 1.1015 -5.2073
v 20.0215 1.2239 -5.2104
v -9.8140 4.0961 -5.2104
v -8.2530 6.0961 -5.2104
v 9.6467 6.2112 -5.2104
v 12.9007 5.7894 -4.9429
v 16.7087 5.8462 -5.6061
v 19.3897 5.1460 -4.9943
v -6.8260 9.5323 -5.5591
v -5.2049 11.0713 -7.1250
v 5.2855 9.9880 -5.2104
v 7.6467 7.9880 -5.2104
v 14.3620 7.4681 -3.4313
v 16.7087 7.5833 -3.6061
v 18.8856 7.4589 -3.5170
v -6.5668 11.7287 -4.4583
v -3.6394 12.1414 -5.5591
v 0.7087 12.3146 -5.2104
v 3.2855 11.5463 -5.2104
v -2.2478 -13.2194 -1.2104
v 0.3943 -13.2350 -1.3583
v 3.7510 -12.9500 -2.7902
v -9.9249 -9.0490 -1.2104
v -7.2913 -10.2925 -1.2104
v -4.2478 -12.0196 -1.2104
v 1.5181 -12.1557 -0.1235
v 4.9341 -11.5529 -1.3583
v 8.5332 -9.6040 -1.4852
v 11.1053 -8.9075 -3.0018
v -17.3320 -5.7003 0.7213
v -15.0648 -6.0948 -0.8513
v -11.9249 -7.7312 -1.2104
v 9.8723 -6.7761 -0.2125
v 12.5467 -6.9146 -1.6533
v 16.4381 -5.7921 -0.8516
v 19.3875 -5.3730 -1.2104
v -17.3320 -4.6304 0.7213
v -15.8173 -3.0886 -0.8513
v 10.5527 -4.5900 0.5782
v 12.7087 -4.5314 0.5796
v 14.9244 -4.6359 0.7210
v 20.2872 -2.7761 -1.2104
v -14.2318 0.0312 -1.2104
v -12.0810 2.0312 -1.2104
v 10.2584 2.6927 0.3042
v 11.2467 2.6927 0.3042
v 20.4081 1.2239 -1.2104
v -10.1375 5.3141 -1.1273
v -8.9024 6.7075 -2.4053
v 2.3888 6.8268 0.4177
v 4.7087 6.4551 -0.1329
v 8.7390 5.2625 -1.2155
v 12.3229 5.2470 -1.1016
v 18.4964 7.1553 0.6466
v 19.4546 5.5827 -0.8962
v -10.4746 9.2239 -0.5700
v -8.9563 9.2239 -2.5700
v 1.6222 9.2239 -0.2652
v 4.5506 9.1133 -2.1691
v 7.2196 7.7063 -2.7352
v 14.3230 7.5120 -1.2104
v 16.9813 7.5954 -0.8962
v 18.8856 7.4589 -2.0201
v -10.5117 12.1120 -0.4950
v -7.6462 13.2537 -1.4067
v -3.2913 14.0924 -1.9689
v 0.3661 12.9906 -1.3459
v 3.1118 11.4374 -2.9116
v -6.0589 15.6297 0.3482
v -3.2913 15.7652 0.0311
v -0.8478 15.5399 0.2197
v -5.3157 -12.7908 4.7533
v -2.9726 -12.8866 3.1678
v -1.1181 -12.9032 2.7896
v -17.5514 -9.0638 3.5385
v -15.2913 -9.3275 3.3583
v -11.1898 -9.4156 2.7953
v -6.9059 -11.1286 3.1678
v -2.9628 -10.9676 3.1340
v 0.1575 -11.0061 2.9613
v 4.7087 -9.6556 1.8820
v 7.0829 -9.2358 1.2944
v -17.7093 -6.9306 2.4389
v -15.2913 -8.1378 1.3583
v -12.4555 -8.3342 1.4657
v -1.8321 -8.0814 4.1814
v 0.7087 -7.7942 4.0472
v 4.6697 -6.8074 3.7941
v 7.8723 -6.7761 1.8314
v 17.7363 -4.9977 2.7896
v 19.0836 -4.9977 2.7896
v -17.6082 -3.0886 3.0251
v -16.6843 -1.9637 1.8488
v 5.5829 -2.7761 3.8852
v 9.0151 -3.0645 1.9465
v 12.7087 -2.5314 1.5334
v 16.0699 -3.0920 2.7042
v 19.8859 -2.7761 2.7896
v -17.5137 1.2239 4.4576
v -15.3271 1.1922 2.7988
v -12.6183 2.5045 1.9144
v 5.7973 1.2239 3.8982
v 8.8385 1.3052 1.9569
v 12.7786 1.4189 2.6188
v 16.6587 1.1952 3.9784
v 19.6296 1.0368 2.7016
v -17.4961 3.4405 4.6211
v -15.0252 4.9539 4.3210
v -12.0546 5.2239 2.3303
v 2.3441 6.7984 2.7896
v 4.8412 4.9067 2.9306
v 7.5917 3.9293 1.6912
v 13.8920 5.4495 2.9193
v 16.7699 5.7110 2.8243
v 19.1739 4.4886 1.3096
v -13.5145 7.9724 4.3857
v -12.4549 9.2730 2.9473
v 0.8218 9.2239 2.7896
v 14.5411 7.3639 1.6724
v 15.8297 7.3639 1.6724
v -10.6698 13.3568 3.0840
v -8.7256 14.7787 1.9469
v -0.3231 13.2239 2.7896
v -9.3401 15.2646 4.6136
v -7.3519 15.7570 3.0840
v -3.2913 16.2281 2.7896
v -0.8008 15.5923 2.7896
v -5.3157 -12.7908 4.8259
v -3.2913 -12.8768 4.9755
v -1.2031 -12.8957 5.0013
v -17.5514 -9.0638 5.0325
v -15.2913 -9.3275 5.4291
v -11.3854 -9.6321 6.7555
v -6.9059 -11.2089 6.4114
v -3.3298 -10.8541 6.2469
v -1.2031 -12.5232 5.0013
v -17.7832 -6.7761 5.5084
v -15.2709 -6.7880 7.3305
v -12.7815 -8.1292 8.0660
v -2.3490 -7.5657 6.7896
v 0.4842 -5.8391 6.6107
v 3.3104 -5.4950 5.1580
v 18.5299 -4.8912 4.9828
v 18.9620 -4.8912 4.9828
v -17.7391 -2.6867 6.8189
v -16.5907 -3.9605 8.1717
v 1.6679 -3.5494 7.8247
v 3.4382 -2.4401 6.6107
v 18.2485 -2.7761 5.1450
v 19.1872 -2.7761 5.1450
v -18.0601 1.2239 6.7896
v 4.1693 1.2239 6.7896
v 14.3105 2.8117 4.9950
v 16.6587 1.1952 5.0326
v 19.0935 -0.4213 5.0703
v -17.7971 3.7222 6.7896
v -15.0252 5.2495 6.6418
v -12.5371 5.9354 7.8767
v 2.2357 6.7059 6.7896
v 3.7087 4.7059 6.7896
v 14.3105 4.2666 4.9950
v 15.0435 4.2666 4.9950
v -13.5145 7.9724 5.2100
v -12.1300 9.2730 6.6418
v -1.8974 10.8217 8.3967
v 0.1898 9.3826 6.9539
v -10.2118 13.2655 6.4909
v -7.2913 14.1080 7.4316
v -3.2550 13.0896 7.7475
v -0.8091 13.2239 5.9715
v -9.3401 15.2646 4.9583
v -7.2913 15.5860 5.4316
v -3.2913 15.6868 5.7817
v -1.0808 15.3990 5.4251
v -10.1148 -9.3316 9.6968
v -7.2913 -9.4994 9.8996
v -4.8274 -9.1850 9.3624
v -13.8133 -5.3652 10.7896
v -11.3854 -7.2182 10.9339
v -7.2913 -7.9016 11.8996
v -3.4129 -7.4344 10.7333
v -0.6814 -5.4370 10.7896
v -17.5502 -1.2938 9.0494
v -15.3731 -2.6867 10.5455
v 1.1315 -2.4401 10.4545
v 2.7589 -0.8827 8.8977
v -17.8376 1.2239 9.2213
v -15.3820 1.2239 11.2213
v -10.4761 2.8126 12.6476
v -8.8545 2.8126 12.6476
v 1.6668 1.2239 11.2450
v 3.0808 1.2239 9.2450
v -17.7609 3.6718 9.1055
v -14.8998 3.5305 10.5791
v -11.5066 4.5888 11.0804
v -7.4292 5.0458 11.9334
v -3.2913 6.2607 11.9421
v 0.8362 5.4700 10.8117
v 3.1546 4.0368 9.2887
v -10.0685 9.2239 9.6478
v -7.2913 9.2239 10.3629
v -3.2550 9.3826 9.8888
v -0.4223 8.1550 9.6681
v -9.7484 11.9599 9.2103
v -7.2913 12.1080 9.3267
v -4.5641 11.6667 9.0850
v -13.3546 -4.8751 12.9110
v -11.2913 -5.3138 13.5178
v -7.5488 -6.1203 14.8993
v -2.9558 -6.0297 15.1135
v -0.7705 -5.2430 13.9961
v -13.4189 -2.7761 12.9458
v -11.2913 -2.7761 13.7506
v -8.2805 -2.7761 15.5945
v -1.3989 -4.6331 16.6628
v -0.1272 -3.0903 15.1135
v -13.3820 1.2239 12.8629
v -11.6022 1.3771 12.9825
v -7.1844 1.5535 14.7609
v -5.2144 2.9610 16.5085
v 0.9914 1.2239 14.7896
v -13.3054 3.2422 12.8005
v -13.1428 3.2422 12.8005
v -6.1878 3.5937 13.8418
v -3.6452 4.4802 15.0209
v -0.0730 4.5169 14.7896
v -9.3267 -4.8800 20.4728
v -7.5488 -5.3987 18.9995
v -2.9558 -5.7068 18.4467
v 0.7087 -5.3376 19.7134
v 2.8871 -4.9072 20.5930
v -9.3267 -4.7348 20.4728
v -7.2841 -3.2741 18.8587
v -3.0507 -3.2232 18.3980
v 0.8254 -3.0903 17.8331
v 3.1527 -2.7761 20.0226
v -5.5143 0.2943 17.2446
v -3.6251 1.5216 18.8494
v 0.9252 1.3388 18.8755
v 3.1222 -0.0714 19.9636
v -2.5478 3.9354 17.7874
v -0.3862 3.9354 17.7874
v -9.3267 -4.8800 20.8421
v -7.2913 -4.9995 20.9226
v -3.2913 -5.3847 21.4384
v 0.7087 -5.3376 21.7204
v 2.8871 -4.9072 21.2904
v -9.3267 -4.7348 20.8421
v -7.2913 -4.5231 20.9226
v -3.3380 -2.9984 21.6479
v 0.7087 -2.7761 23.1038
v 3.1527 -2.7761 22.1245
v -2.0358 0.0823 21.3550
v 0.7087 0.3962 22.1730
v 3.1222 -0.0714 22.0687
f 3 2 1
f 3 4 2
f 7 6 5
f 7 8 6
f 15 1 2
f 15 14 1
f 15 9 14
f 15 10 9
f 17 11 16
f 17 12 11
f 20 1 14
f 20 3 1
f 20 13 19
f 20 14 13
f 21 15 2
f 21 2 4
f 4 3 20
f 4 20 21
f 23 16 22
f 23 17 16
f 24 19 18
f 24 25 19
f 26 19 25
f 26 20 19
f 27 20 26
f 27 21 20
f 27 22 21
f 27 28 22
f 6 28 5
f 6 29 28
f 29 22 28
f 29 23 22
f 30 26 25
f 30 31 26
f 32 26 31
f 32 27 26
f 28 7 5
f 28 33 7
f 33 27 32
f 33 28 27
f 34 29 6
f 34 6 8
f 34 8 7
f 34 7 33
f 35 32 31
f 35 36 32
f 37 32 36
f 37 33 32
f 10 41 9
f 10 42 41
f 42 38 41
f 42 39 38
f 44 11 12
f 44 43 11
f 47 9 41
f 47 14 9
f 47 13 14
f 47 46 13
f 47 40 46
f 47 41 40
f 48 42 10
f 48 10 15
f 49 11 43
f 49 16 11
f 48 43 42
f 48 49 43
f 50 44 12
f 50 12 17
f 52 13 46
f 52 19 13
f 52 18 19
f 52 51 18
f 52 45 51
f 52 46 45
f 53 48 15
f 53 15 21
f 54 16 49
f 54 22 16
f 22 53 21
f 22 54 53
f 53 49 48
f 53 54 49
f 50 17 23
f 50 23 55
f 51 24 18
f 51 58 24
f 59 25 24
f 59 24 58
f 60 55 23
f 60 23 29
f 60 56 55
f 60 61 56
f 61 57 56
f 61 62 57
f 59 30 25
f 59 64 30
f 63 59 58
f 63 64 59
f 65 31 30
f 65 30 64
f 60 29 34
f 60 34 67
f 34 33 66
f 34 66 67
f 68 60 67
f 68 61 60
f 69 61 68
f 69 62 61
f 65 35 31
f 65 71 35
f 70 65 64
f 70 71 65
f 72 36 35
f 72 35 71
f 66 33 37
f 66 37 73
f 37 36 72
f 37 72 73
f 74 66 73
f 74 67 66
f 76 71 75
f 76 72 71
f 79 38 39
f 79 78 38
f 81 38 78
f 81 41 38
f 81 40 41
f 81 80 40
f 81 77 80
f 81 78 77
f 82 79 39
f 82 39 42
f 83 42 43
f 83 82 42
f 84 43 44
f 84 83 43
f 87 40 80
f 87 46 40
f 87 45 46
f 87 86 45
f 84 44 50
f 84 50 89
f 88 83 84
f 88 84 89
f 92 45 86
f 92 51 45
f 92 85 91
f 92 86 85
f 93 89 50
f 93 50 55
f 56 93 55
f 56 94 93
f 93 90 89
f 93 94 90
f 95 56 57
f 95 94 56
f 92 58 51
f 92 97 58
f 96 92 91
f 96 97 92
f 98 95 57
f 98 57 62
f 97 63 58
f 97 100 63
f 99 97 96
f 99 100 97
f 101 64 63
f 101 63 100
f 68 67 103
f 68 103 104
f 98 62 69
f 98 69 105
f 69 68 104
f 69 104 105
f 101 70 64
f 101 107 70
f 106 101 100
f 106 107 101
f 108 71 70
f 108 70 107
f 73 72 109
f 73 109 110
f 103 67 74
f 103 74 111
f 74 73 110
f 74 110 111
f 111 110 102
f 111 102 103
f 108 75 71
f 108 113 75
f 112 108 107
f 112 113 108
f 109 72 76
f 109 76 114
f 114 76 75
f 114 75 113
f 116 77 78
f 116 115 77
f 117 78 79
f 117 116 78
f 120 77 115
f 120 80 77
f 117 79 82
f 117 82 121
f 83 121 82
f 83 122 121
f 126 85 86
f 126 125 85
f 126 118 125
f 126 119 118
f 127 80 120
f 127 87 80
f 127 86 87
f 127 126 86
f 127 119 126
f 127 120 119
f 122 83 88
f 122 88 128
f 129 88 89
f 129 128 88
f 128 123 122
f 128 129 123
f 90 129 89
f 90 130 129
f 133 85 125
f 133 91 85
f 133 124 132
f 133 125 124
f 134 130 90
f 134 90 94
f 95 134 94
f 95 135 134
f 134 131 130
f 134 135 131
f 133 96 91
f 133 137 96
f 136 133 132
f 136 137 133
f 138 135 95
f 138 95 98
f 137 99 96
f 137 139 99
f 140 100 99
f 140 99 139
f 142 103 102
f 142 102 141
f 143 104 103
f 143 103 142
f 138 98 105
f 138 105 144
f 105 104 143
f 105 143 144
f 140 106 100
f 140 145 106
f 146 107 106
f 146 106 145
f 148 141 102
f 148 102 110
f 148 110 109
f 148 109 147
f 149 143 142
f 149 150 143
f 151 143 150
f 151 144 143
f 146 112 107
f 146 153 112
f 152 146 145
f 152 153 146
f 154 113 112
f 154 112 153
f 147 109 114
f 147 114 155
f 114 113 154
f 114 154 155
f 157 115 116
f 157 156 115
f 158 116 117
f 158 157 116
f 160 118 119
f 160 159 118
f 161 115 156
f 161 120 115
f 161 119 120
f 161 160 119
f 158 117 121
f 158 121 163
f 162 157 158
f 162 158 163
f 164 121 122
f 164 163 121
f 165 122 123
f 165 164 122
f 168 118 159
f 168 125 118
f 168 124 125
f 168 167 124
f 165 123 129
f 165 129 170
f 169 164 165
f 169 165 170
f 130 170 129
f 130 171 170
f 131 171 130
f 131 172 171
f 174 124 167
f 174 132 124
f 173 167 166
f 173 174 167
f 176 175 169
f 176 169 170
f 177 176 170
f 177 170 171
f 178 172 131
f 178 131 135
f 179 132 174
f 179 136 132
f 180 137 136
f 180 136 179
f 178 135 138
f 178 138 183
f 180 139 137
f 180 184 139
f 185 140 139
f 185 139 184
f 189 142 141
f 189 141 188
f 189 188 181
f 189 181 182
f 183 138 144
f 183 144 191
f 193 140 185
f 193 145 140
f 192 185 184
f 192 193 185
f 195 194 186
f 195 186 187
f 196 188 141
f 196 141 148
f 196 148 147
f 196 147 195
f 196 195 187
f 196 187 188
f 189 149 142
f 189 197 149
f 150 149 197
f 150 197 198
f 191 144 151
f 191 151 199
f 199 151 150
f 199 150 198
f 199 198 190
f 199 190 191
f 193 152 145
f 193 201 152
f 200 193 192
f 200 201 193
f 202 153 152
f 202 152 201
f 154 153 202
f 154 202 203
f 204 195 147
f 204 147 155
f 204 155 154
f 204 154 203
f 204 203 194
f 204 194 195
f 205 202 201
f 205 206 202
f 207 202 206
f 207 203 202
f 210 156 157
f 210 209 156
f 160 213 159
f 160 214 213
f 209 161 156
f 209 215 161
f 161 214 160
f 161 215 214
f 215 208 214
f 215 209 208
f 210 157 162
f 210 162 216
f 217 162 163
f 217 216 162
f 218 163 164
f 218 217 163
f 220 166 167
f 220 219 166
f 220 211 219
f 220 212 211
f 221 159 213
f 221 168 159
f 221 167 168
f 221 220 167
f 221 212 220
f 221 213 212
f 222 215 216
f 222 216 223
f 223 216 217
f 223 217 224
f 218 164 169
f 218 169 225
f 224 217 218
f 224 218 225
f 172 226 171
f 172 227 226
f 219 173 166
f 219 228 173
f 229 174 173
f 229 173 228
f 225 169 175
f 225 175 231
f 230 224 225
f 230 225 231
f 232 175 176
f 232 231 175
f 226 177 171
f 226 233 177
f 177 232 176
f 177 233 232
f 227 172 178
f 227 178 234
f 229 179 174
f 229 236 179
f 235 229 228
f 235 236 229
f 237 180 179
f 237 179 236
f 239 238 230
f 239 230 231
f 182 181 239
f 182 239 240
f 239 231 232
f 239 232 240
f 240 232 233
f 240 233 241
f 242 234 178
f 242 178 183
f 243 236 235
f 243 244 236
f 245 180 237
f 245 184 180
f 244 237 236
f 244 245 237
f 187 186 246
f 187 246 247
f 248 239 181
f 248 181 188
f 248 188 187
f 248 187 247
f 248 247 238
f 248 238 239
f 249 182 240
f 249 189 182
f 251 242 183
f 251 183 191
f 251 191 190
f 251 190 250
f 251 250 241
f 251 241 242
f 245 192 184
f 245 253 192
f 252 245 244
f 252 253 245
f 254 246 186
f 254 186 194
f 255 189 249
f 255 197 189
f 256 250 190
f 256 190 198
f 256 198 197
f 256 197 255
f 256 255 249
f 256 249 250
f 253 200 192
f 253 257 200
f 258 201 200
f 258 200 257
f 259 254 194
f 259 194 203
f 258 205 201
f 258 261 205
f 260 258 257
f 260 261 258
f 262 206 205
f 262 205 261
f 259 203 207
f 259 207 263
f 207 206 262
f 207 262 263
f 265 208 209
f 265 264 208
f 266 209 210
f 266 265 209
f 212 267 211
f 212 268 267
f 213 268 212
f 213 269 268
f 270 208 264
f 270 214 208
f 270 213 214
f 270 269 213
f 271 270 264
f 271 264 265
f 272 266 210
f 272 210 216
f 272 216 215
f 272 215 271
f 272 271 265
f 272 265 266
f 273 211 267
f 273 219 211
f 273 267 268
f 273 268 274
f 275 274 268
f 275 268 269
f 271 215 222
f 271 222 276
f 277 222 223
f 277 276 222
f 278 223 224
f 278 277 223
f 227 279 226
f 227 280 279
f 273 228 219
f 273 281 228
f 282 281 273
f 282 273 274
f 278 224 230
f 278 230 284
f 283 277 278
f 283 278 284
f 285 226 279
f 285 233 226
f 280 227 234
f 280 234 286
f 286 285 279
f 286 279 280
f 281 235 228
f 281 287 235
f 284 230 238
f 284 238 288
f 285 241 233
f 285 290 241
f 241 289 240
f 241 290 289
f 291 286 234
f 291 234 242
f 291 242 241
f 291 241 290
f 291 290 285
f 291 285 286
f 287 243 235
f 287 292 243
f 293 244 243
f 293 243 292
f 296 288 238
f 296 238 247
f 296 247 246
f 296 246 295
f 289 249 240
f 289 297 249
f 298 290 241
f 298 241 250
f 298 250 249
f 298 249 297
f 298 297 289
f 298 289 290
f 299 244 293
f 299 252 244
f 253 252 299
f 253 299 300
f 299 293 294
f 299 294 300
f 295 246 254
f 295 254 302
f 300 257 253
f 300 303 257
f 306 302 254
f 306 254 259
f 306 305 301
f 306 301 302
f 303 260 257
f 303 307 260
f 308 261 260
f 308 260 307
f 307 303 304
f 307 304 308
f 262 261 308
f 262 308 309
f 309 308 304
f 309 304 305
f 310 306 259
f 310 259 263
f 310 263 262
f 310 262 309
f 309 305 306
f 309 306 310
f 270 311 269
f 270 312 311
f 313 270 271
f 313 312 270
f 311 275 269
f 311 315 275
f 275 314 274
f 275 315 314
f 316 315 311
f 316 311 312
f 313 271 276
f 313 276 317
f 316 312 313
f 316 313 317
f 318 276 277
f 318 317 276
f 314 282 274
f 314 320 282
f 282 319 281
f 282 320 319
f 318 277 283
f 318 283 321
f 322 283 284
f 322 321 283
f 319 287 281
f 319 323 287
f 324 323 319
f 324 319 320
f 322 284 288
f 322 288 328
f 327 321 322
f 327 322 328
f 329 287 323
f 329 292 287
f 293 292 329
f 293 329 330
f 330 329 323
f 330 323 324
f 294 293 330
f 294 330 331
f 331 325 326
f 331 326 332
f 335 328 288
f 335 288 296
f 335 296 295
f 335 295 334
f 335 334 327
f 335 327 328
f 336 294 331
f 336 300 294
f 336 331 332
f 336 332 337
f 337 332 333
f 337 333 338
f 339 334 295
f 339 295 302
f 339 302 301
f 339 301 338
f 339 338 333
f 339 333 334
f 340 300 336
f 340 303 300
f 304 303 340
f 304 340 341
f 340 336 337
f 340 337 341
f 342 338 301
f 342 301 305
f 342 305 304
f 342 304 341
f 342 341 337
f 342 337 338
f 315 343 314
f 315 344 343
f 316 344 315
f 316 345 344
f 346 316 317
f 346 345 316
f 347 317 318
f 347 346 317
f 348 314 343
f 348 320 314
f 349 348 343
f 349 343 344
f 350 349 344
f 350 344 345
f 347 318 321
f 347 321 352
f 351 346 347
f 351 347 352
f 348 324 320
f 348 353 324
f 354 353 348
f 354 348 349
f 326 325 354
f 326 354 355
f 354 349 350
f 354 350 355
f 357 352 321
f 357 321 327
f 358 324 353
f 358 330 324
f 359 354 325
f 359 325 331
f 331 330 358
f 331 358 359
f 359 358 353
f 359 353 354
f 360 326 355
f 360 332 326
f 333 332 360
f 333 360 361
f 360 355 356
f 360 356 361
f 362 357 327
f 362 327 334
f 362 334 333
f 362 333 361
f 365 345 346
f 365 364 345
f 364 350 345
f 364 369 350
f 368 364 363
f 368 369 364
f 365 346 351
f 365 351 370
f 371 351 352
f 371 370 351
f 370 366 365
f 370 371 366
f 372 366 371
f 372 367 366
f 373 350 369
f 373 355 350
f 356 355 373
f 356 373 374
f 373 369 370
f 373 370 374
f 371 352 357
f 371 357 375
f 376 371 375
f 376 372 371
f 377 356 374
f 377 361 356
f 378 375 357
f 378 357 362
f 362 361 377
f 362 377 378
f 378 377 374
f 378 374 375
f 380 363 364
f 380 379 363
f 381 364 365
f 381 380 364
f 366 381 365
f 366 382 381
f 367 382 366
f 367 383 382
f 379 368 363
f 379 384 368
f 385 369 368
f 385 368 384
f 384 379 380
f 384 380 385
f 386 370 369
f 386 369 385
f 385 380 381
f 385 381 386
f 386 381 382
f 386 382 387
f 383 367 372
f 383 372 388
f 387 382 383
f 387 383 388
f 389 370 386
f 389 374 370
f 375 374 389
f 375 389 390
f 389 386 387
f 389 387 390
f 391 388 372
f 391 372 376
f 376 375 390
f 376 390 391
f 391 390 387
f 391 387 388
