# parsimony mesh: eg11137_monomer (source /Users/eranagmon/code/v2e-abund/workspace/studies/ecoli-3d/viz/3d/structures/eg11137_monomer.pdb)
# atoms: 1846  voxel: 8 Å  verts: 188  tris: 372
v 2.3059 -18.0139 -21.4268
v 5.6284 -18.0139 -21.4268
v 2.3059 -15.6596 -21.4268
v 5.6284 -15.6596 -21.4268
v 4.7185 -1.5216 -21.0478
v 8.8632 -1.5343 -21.0616
v 12.9271 -1.2762 -21.0130
v 4.7185 -0.6197 -21.0478
v 8.8632 -0.6745 -21.0616
v 12.9271 -1.0318 -21.0130
v -11.2775 -17.5549 -13.1493
v -7.1368 -18.6064 -15.0661
v 0.1288 -20.1232 -17.7378
v 8.5223 -19.3429 -16.3510
v 13.0248 -17.3720 -13.2731
v -11.2758 -13.1282 -13.1492
v -7.1368 -13.1282 -16.2370
v 0.1288 -13.0471 -19.6886
v 8.5223 -13.0471 -18.2850
v 13.8525 -13.1282 -14.3013
v -11.1814 -8.9667 -13.0284
v -6.4830 -5.8313 -13.9852
v 1.5764 -4.5643 -18.1993
v 8.8632 -5.5343 -19.3855
v 14.2868 -4.4170 -17.0517
v -5.2529 2.8718 -14.2337
v 1.5764 2.3769 -18.3380
v 8.8632 3.3255 -19.1049
v 16.1375 2.0400 -17.0567
v 21.6316 5.1118 -14.8919
v -6.7880 10.8718 -14.5522
v 0.8632 10.8718 -16.4636
v 8.8632 10.8718 -16.1048
v 17.0962 11.1550 -15.1027
v 21.6316 8.6772 -14.8919
v -5.4272 15.5873 -13.5268
v 0.8632 16.0387 -13.8517
v 8.8632 16.5736 -13.9679
v 14.5848 16.3005 -13.6817
v -3.9567 -25.8983 -6.3406
v 0.8632 -26.0398 -7.8575
v 5.4047 -25.5736 -7.4481
v -11.8820 -18.0520 -8.9680
v -6.8287 -21.9937 -8.9916
v 0.8632 -24.2077 -11.8575
v 8.3881 -22.2086 -9.6560
v 13.4941 -17.5574 -8.9680
v -12.8885 -13.1282 -8.9680
v 15.4446 -13.1282 -8.9680
v -12.4877 -5.8313 -8.9440
v -8.7138 -3.6334 -11.5946
v 16.9092 -5.1282 -8.9680
v -12.0463 1.2402 -6.2612
v -9.4226 3.4928 -8.9440
v 18.9587 0.5188 -8.9680
v 22.1034 4.5188 -8.9680
v -12.1185 12.4223 -7.4091
v -10.6507 10.2021 -9.6327
v 20.0510 14.0876 -8.9680
v 22.1034 10.0876 -8.9680
v -12.2098 18.8718 -7.1949
v -7.7110 18.5011 -10.1610
v 0.8632 20.0387 -9.7311
v 8.8632 20.5736 -10.2881
v 15.7370 18.9290 -8.8251
v -11.5857 23.2933 -5.4962
v -7.1368 23.3702 -5.6285
v 0.8632 23.3818 -5.7311
v 8.8632 23.4422 -6.2881
v 13.4025 23.1953 -6.0632
v -3.9567 -25.8983 -4.0410
v 0.8632 -26.0398 -3.7818
v 5.4047 -25.5736 -4.3134
v -11.9896 -17.9332 -2.9960
v -6.3990 -20.2357 -0.8518
v 0.8632 -21.6370 0.2182
v 8.1253 -20.2600 -1.7537
v 13.5428 -17.4567 -4.5272
v -19.3826 -9.8041 2.4603
v -14.8786 -13.0345 -0.2679
v -8.8413 -16.2650 2.3373
v 10.8459 -14.6273 0.8061
v 14.2253 -12.4277 -1.5035
v -19.3826 -8.7010 2.4603
v -15.6929 -5.6719 -0.5110
v 3.7014 -2.4645 2.7544
v 5.2289 -2.4645 2.7544
v 16.1462 -5.1282 -0.9680
v -12.1038 3.4928 -1.5788
v -10.7917 6.5736 -4.6526
v 3.7014 -0.7451 2.7544
v 5.2289 -0.7451 2.7544
v 17.9370 2.8453 -1.2171
v 21.7485 5.4944 -4.0497
v -12.5136 10.2021 -1.5788
v -10.7917 7.0890 -4.6526
v 18.2054 11.5611 -1.2171
v 21.7485 9.3541 -4.0497
v -12.3937 18.6839 -1.0891
v -9.8852 21.2252 1.4969
v 12.8295 22.8259 2.9652
v 15.1273 19.6443 -0.2081
v -11.5857 23.2933 -3.8364
v -7.1859 23.7713 -1.0891
v 0.8632 24.6257 -0.9680
v 9.6430 23.8224 -0.2081
v 13.4025 23.1953 -2.3682
v -4.4595 -17.7986 7.0320
v 0.7065 -18.0256 6.7379
v 5.5125 -17.7301 3.8753
v -19.5828 -11.0061 7.0320
v -15.1368 -13.4666 7.0320
v -8.4595 -15.5887 7.0320
v 3.2686 -15.8174 9.2086
v 8.7276 -12.5557 6.3185
v 13.0106 -9.2940 3.4284
v -19.9495 -5.6719 7.2447
v -16.5235 -3.3677 4.7199
v 3.7014 -2.4645 3.3810
v 8.5857 -5.2732 6.0714
v 14.2103 -5.3004 6.4698
v -19.8967 0.4208 10.0532
v -15.6893 3.0012 7.2447
v 3.7014 -0.7451 3.3810
v 8.7313 2.7967 6.4445
v 14.3236 3.3518 6.9176
v -14.2802 10.8718 7.0320
v 4.1406 14.3679 10.5845
v 9.2855 11.3694 8.7635
v 13.6444 10.8718 4.5320
v -12.6477 18.6839 7.1782
v -9.8852 21.2252 4.6090
v 4.1406 16.3497 10.5845
v 9.0132 19.5878 7.2368
v 13.5686 17.4926 3.8892
v -11.6645 23.2540 9.9423
v -7.1859 23.8506 7.1782
v 0.8632 24.5290 7.0320
v 7.0881 23.5921 7.0320
v -4.5292 -17.9455 13.1646
v -2.0647 -17.9455 13.1646
v -19.6225 -10.7444 15.0320
v -15.1368 -12.7031 15.0320
v -7.1722 -15.2482 15.5116
v 1.1302 -13.6003 15.8531
v 6.6093 -10.4841 13.2082
v -20.3616 -5.1282 15.0320
v 3.4143 -5.1282 18.0567
v 9.1108 -5.3004 14.0014
v 13.8170 -2.7485 11.9480
v -19.8148 3.0012 15.4895
v -18.0222 5.7541 13.1279
v -3.9665 5.6135 18.2446
v 0.8269 2.9168 17.1690
v 9.2855 3.3518 13.3910
v 13.8170 1.0052 11.9480
v -19.2813 7.1876 18.4612
v -15.2426 10.8188 15.9196
v -6.8346 11.4188 17.6951
v 1.2297 11.3694 13.7829
v 6.9004 9.0346 12.1909
v -12.5273 18.8718 13.3094
v -7.1368 18.8718 14.8743
v 1.2297 18.9585 12.3487
v 5.1968 21.6831 11.1400
v -11.6645 23.2540 11.7226
v -7.1368 23.4694 11.9549
v 0.8632 23.2852 11.5179
v 5.1968 23.0083 11.1400
v -19.4355 -9.4552 19.4667
v -15.1368 -10.2242 20.1002
v -6.4597 -11.2792 22.8257
v -1.4417 -10.9662 23.0320
v -19.5301 -5.1282 20.4237
v -15.1368 -5.1282 22.4569
v -6.4597 -5.8161 24.1522
v -1.0171 -5.8161 22.5257
v -19.4144 2.8718 20.4896
v -15.1368 2.8718 22.4912
v -6.8346 2.9168 20.9270
v -1.8640 0.2802 19.5215
v -19.2813 7.1876 19.5544
v -15.1368 8.7923 20.1345
v -9.2998 9.1168 19.9795
v -3.3417 -9.3238 27.1158
v -3.0053 -9.3238 27.1158
v -3.3417 -8.9413 27.1158
v -3.0053 -8.9413 27.1158
f 3 2 1
f 3 4 2
f 9 5 8
f 9 6 5
f 10 6 9
f 10 7 6
f 2 13 1
f 2 14 13
f 17 11 16
f 17 12 11
f 18 1 13
f 18 3 1
f 17 13 12
f 17 18 13
f 19 14 2
f 19 2 4
f 4 3 18
f 4 18 19
f 19 15 14
f 19 20 15
f 21 17 16
f 21 22 17
f 22 18 17
f 22 23 18
f 24 5 6
f 24 23 5
f 23 19 18
f 23 24 19
f 7 24 6
f 7 25 24
f 24 20 19
f 24 25 20
f 27 5 23
f 27 8 5
f 26 23 22
f 26 27 23
f 28 9 8
f 28 8 27
f 25 7 10
f 25 10 29
f 10 9 28
f 10 28 29
f 32 26 31
f 32 27 26
f 32 28 27
f 32 33 28
f 33 29 28
f 33 34 29
f 34 30 29
f 34 35 30
f 36 32 31
f 36 37 32
f 37 33 32
f 37 38 33
f 39 33 38
f 39 34 33
f 44 11 12
f 44 43 11
f 45 12 13
f 45 44 12
f 45 40 44
f 45 41 40
f 14 45 13
f 14 46 45
f 45 42 41
f 45 46 42
f 15 46 14
f 15 47 46
f 48 11 43
f 48 16 11
f 49 47 15
f 49 15 20
f 48 21 16
f 48 50 21
f 51 22 21
f 51 21 50
f 52 49 20
f 52 20 25
f 51 26 22
f 51 54 26
f 53 51 50
f 53 54 51
f 55 52 25
f 55 25 29
f 30 55 29
f 30 56 55
f 54 31 26
f 54 58 31
f 56 30 35
f 56 35 60
f 60 35 34
f 60 34 59
f 58 36 31
f 58 62 36
f 62 57 61
f 62 58 57
f 63 37 36
f 63 36 62
f 38 37 63
f 38 63 64
f 59 34 39
f 59 39 65
f 39 38 64
f 39 64 65
f 67 61 66
f 67 62 61
f 67 63 62
f 67 68 63
f 69 63 68
f 69 64 63
f 70 64 69
f 70 65 64
f 72 40 41
f 72 71 40
f 73 41 42
f 73 72 41
f 71 44 40
f 71 75 44
f 44 74 43
f 44 75 74
f 76 75 71
f 76 71 72
f 73 42 46
f 73 46 77
f 76 72 73
f 76 73 77
f 78 46 47
f 78 77 46
f 74 48 43
f 74 80 48
f 81 80 74
f 81 74 75
f 78 47 49
f 78 49 83
f 82 77 78
f 82 78 83
f 80 50 48
f 80 85 50
f 85 79 84
f 85 80 79
f 83 49 52
f 83 52 88
f 85 53 50
f 85 89 53
f 90 54 53
f 90 53 89
f 91 86 87
f 91 87 92
f 88 52 55
f 88 55 93
f 94 55 56
f 94 93 55
f 96 54 90
f 96 58 54
f 96 57 58
f 96 95 57
f 96 89 95
f 96 90 89
f 94 56 60
f 94 60 98
f 98 60 59
f 98 59 97
f 97 93 94
f 97 94 98
f 99 57 95
f 99 61 57
f 97 59 65
f 97 65 102
f 103 61 99
f 103 66 61
f 67 66 103
f 67 103 104
f 103 99 100
f 103 100 104
f 68 67 104
f 68 104 105
f 69 68 105
f 69 105 106
f 102 65 70
f 102 70 107
f 107 70 69
f 107 69 106
f 107 106 101
f 107 101 102
f 76 108 75
f 76 109 108
f 110 76 77
f 110 109 76
f 112 79 80
f 112 111 79
f 108 81 75
f 108 113 81
f 81 112 80
f 81 113 112
f 110 77 82
f 110 82 115
f 114 109 110
f 114 110 115
f 116 82 83
f 116 115 82
f 111 84 79
f 111 117 84
f 118 85 84
f 118 84 117
f 87 86 119
f 87 119 120
f 116 83 88
f 116 88 121
f 120 115 116
f 120 116 121
f 118 89 85
f 118 123 89
f 122 118 117
f 122 123 118
f 119 86 91
f 119 91 124
f 120 92 87
f 120 125 92
f 92 124 91
f 92 125 124
f 124 120 119
f 124 125 120
f 126 121 88
f 126 88 93
f 127 89 123
f 127 95 89
f 130 126 93
f 130 93 97
f 130 129 125
f 130 125 126
f 127 99 95
f 127 131 99
f 132 100 99
f 132 99 131
f 133 128 129
f 133 129 134
f 135 130 97
f 135 97 102
f 135 102 101
f 135 101 134
f 135 134 129
f 135 129 130
f 132 104 100
f 132 137 104
f 136 132 131
f 136 137 132
f 138 105 104
f 138 104 137
f 139 134 101
f 139 101 106
f 139 106 105
f 139 105 138
f 141 108 109
f 141 140 108
f 143 111 112
f 143 142 111
f 140 113 108
f 140 144 113
f 113 143 112
f 113 144 143
f 141 109 114
f 141 114 145
f 144 140 141
f 144 141 145
f 146 114 115
f 146 145 114
f 142 117 111
f 142 147 117
f 146 115 120
f 146 120 149
f 148 145 146
f 148 146 149
f 150 120 121
f 150 149 120
f 147 122 117
f 147 151 122
f 152 123 122
f 152 122 151
f 155 154 148
f 155 148 149
f 150 121 126
f 150 126 156
f 156 126 125
f 156 125 155
f 155 149 150
f 155 150 156
f 152 127 123
f 152 158 127
f 157 152 151
f 157 158 152
f 160 159 153
f 160 153 154
f 161 155 125
f 161 125 129
f 161 129 128
f 161 128 160
f 161 160 154
f 161 154 155
f 162 127 158
f 162 131 127
f 162 158 159
f 162 159 163
f 164 160 128
f 164 128 133
f 163 159 160
f 163 160 164
f 165 133 134
f 165 164 133
f 162 136 131
f 162 166 136
f 167 137 136
f 167 136 166
f 166 162 163
f 166 163 167
f 168 138 137
f 168 137 167
f 167 163 164
f 167 164 168
f 165 134 139
f 165 139 169
f 169 139 138
f 169 138 168
f 168 164 165
f 168 165 169
f 171 142 143
f 171 170 142
f 144 171 143
f 144 172 171
f 173 144 145
f 173 172 144
f 170 147 142
f 170 174 147
f 174 170 171
f 174 171 175
f 176 175 171
f 176 171 172
f 173 145 148
f 173 148 177
f 174 151 147
f 174 178 151
f 178 174 175
f 178 175 179
f 180 179 175
f 180 175 176
f 181 177 148
f 181 148 154
f 181 154 153
f 181 153 180
f 181 180 176
f 181 176 177
f 178 157 151
f 178 182 157
f 183 158 157
f 183 157 182
f 182 178 179
f 182 179 183
f 184 180 153
f 184 153 159
f 184 159 158
f 184 158 183
f 184 183 179
f 184 179 180
f 173 185 172
f 173 186 185
f 185 176 172
f 185 187 176
f 188 186 173
f 188 173 177
f 188 177 176
f 188 176 187
f 187 185 186
f 187 186 188
