# parsimony mesh: eg11894_monomer (source /Users/eranagmon/code/v2e-abund/workspace/studies/ecoli-3d/viz/3d/structures/eg11894_monomer.pdb)
# atoms: 571  voxel: 8 Å  verts: 78  tris: 152
v 2.2544 1.3078 -19.1900
v 3.1842 1.3078 -19.1900
v 2.2542 5.6349 -19.2835
v 3.2694 5.6349 -19.2835
v 2.6820 9.7781 -19.1763
v 3.1057 9.7781 -19.1763
v 1.3637 -7.7651 -11.9058
v 4.8974 -7.7651 -11.9058
v -5.8773 0.3523 -12.1866
v -0.8576 -1.8366 -14.7128
v 6.7075 -1.6119 -14.1972
v 11.0350 0.8018 -11.1554
v -5.8773 3.7646 -12.1866
v -0.1985 6.3924 -14.9701
v 5.8116 5.4533 -14.4545
v 11.0350 1.8863 -11.1554
v 2.6820 9.7781 -17.7536
v 3.1057 9.7781 -17.7536
v -6.2933 -8.3158 -4.6402
v -1.2234 -9.4164 -7.1771
v 7.2969 -8.8838 -7.4754
v 12.5457 -7.4281 -5.1373
v -13.5626 0.7451 -3.8106
v -8.7520 -2.1180 -6.8921
v -3.9696 -4.9810 -9.9735
v 10.2307 -4.5315 -10.4706
v 12.5727 -2.0650 -7.4754
v -13.5626 2.4059 -3.8106
v -8.7680 4.5502 -6.6794
v -1.3405 8.5188 -7.4211
v 6.9046 7.0319 -7.4211
v 11.7546 2.8421 -6.9825
v 1.1684 10.4303 -5.0468
v 4.2437 10.4303 -5.0468
v -5.6270 -14.7457 3.5711
v -4.0489 -14.7457 3.5711
v -7.3091 -10.7355 0.9496
v -1.2709 -12.6951 0.9496
v 6.8961 -10.2229 1.0175
v 13.1271 -7.7734 1.0175
v -13.8573 -0.4371 1.0175
v -11.4680 -4.4371 1.0175
v 14.4637 -2.3651 1.0175
v -13.8573 3.9632 1.0175
v -9.7599 7.8724 0.7071
v -4.1649 8.9264 -2.1665
v 8.3812 7.2264 1.0175
v 12.2327 3.2264 1.0175
v -7.5306 10.4967 3.1669
v -1.3405 10.9092 0.7071
v 4.3812 10.5815 1.0175
v -5.6270 -14.7457 5.5748
v -4.0489 -14.7457 5.5748
v -6.9683 -10.3651 6.9173
v -1.2709 -10.4837 7.6360
v 6.8961 -8.1244 7.0365
v 12.2212 -7.1798 5.8785
v -13.6498 -0.2379 7.6246
v -10.0584 -2.9398 9.9756
v -1.1039 -5.1380 11.8726
v 6.7136 -2.6175 10.4338
v 12.4722 -2.3651 6.4146
v -13.6498 3.9683 7.6246
v -12.5781 6.2349 9.7817
v 1.2657 8.2149 11.4027
v 6.3936 5.3068 8.7110
v 11.6725 2.3987 6.0193
v -8.4870 10.7126 9.0175
v -1.2821 10.7771 8.8486
v 3.5287 10.1016 6.0693
v -7.7168 -0.3083 14.0883
v -1.1039 -1.1380 14.3967
v 3.9252 -0.1191 13.7856
v -8.6267 5.6349 14.2959
v -1.2821 5.5829 14.5011
v 3.9252 2.8816 13.7856
v -7.1880 10.2100 13.6512
v -4.0676 10.2100 13.6512
f 3 2 1
f 3 4 2
f 5 4 3
f 5 6 4
f 2 10 1
f 2 11 10
f 11 7 10
f 11 8 7
f 14 1 10
f 14 3 1
f 13 10 9
f 13 14 10
f 15 11 2
f 15 2 4
f 16 11 15
f 16 12 11
f 17 3 14
f 17 5 3
f 18 15 4
f 18 4 6
f 6 5 17
f 6 17 18
f 18 17 14
f 18 14 15
f 21 7 8
f 21 20 7
f 25 7 20
f 25 10 7
f 25 9 10
f 25 24 9
f 25 19 24
f 25 20 19
f 26 21 8
f 26 8 11
f 12 26 11
f 12 27 26
f 26 22 21
f 26 27 22
f 29 9 24
f 29 13 9
f 29 23 28
f 29 24 23
f 30 14 13
f 30 13 29
f 31 15 14
f 31 14 30
f 32 27 12
f 32 12 16
f 16 15 31
f 16 31 32
f 34 30 33
f 34 31 30
f 38 19 20
f 38 37 19
f 38 35 37
f 38 36 35
f 39 20 21
f 39 38 20
f 22 39 21
f 22 40 39
f 42 19 37
f 42 24 19
f 42 23 24
f 42 41 23
f 43 40 22
f 43 22 27
f 41 28 23
f 41 44 28
f 45 29 28
f 45 28 44
f 46 30 29
f 46 29 45
f 43 27 32
f 43 32 48
f 32 31 47
f 32 47 48
f 46 33 30
f 46 50 33
f 49 46 45
f 49 50 46
f 47 31 34
f 47 34 51
f 51 34 33
f 51 33 50
f 36 52 35
f 36 53 52
f 54 35 52
f 54 37 35
f 53 36 38
f 53 38 55
f 54 52 53
f 54 53 55
f 39 55 38
f 39 56 55
f 57 39 40
f 57 56 39
f 54 42 37
f 54 59 42
f 42 58 41
f 42 59 58
f 60 59 54
f 60 54 55
f 60 55 56
f 60 56 61
f 57 40 43
f 57 43 62
f 62 61 56
f 62 56 57
f 58 44 41
f 58 63 44
f 45 44 63
f 45 63 64
f 64 63 58
f 64 58 59
f 67 62 43
f 67 43 48
f 67 48 47
f 67 47 66
f 67 66 61
f 67 61 62
f 68 45 64
f 68 49 45
f 69 50 49
f 69 49 68
f 70 66 47
f 70 47 51
f 70 51 50
f 70 50 69
f 70 69 65
f 70 65 66
f 60 71 59
f 60 72 71
f 73 60 61
f 73 72 60
f 71 64 59
f 71 74 64
f 75 74 71
f 75 71 72
f 76 73 61
f 76 61 66
f 76 66 65
f 76 65 75
f 76 75 72
f 76 72 73
f 74 68 64
f 74 77 68
f 78 75 65
f 78 65 69
f 78 69 68
f 78 68 77
f 78 77 74
f 78 74 75
