# parsimony mesh: eg11581_monomer (source /Users/eranagmon/code/v2e-molecules/workspace/studies/ecoli-3d/viz/3d/structures/eg11581_monomer.pdb)
# atoms: 2737  voxel: 4 Å  verts: 1137  tris: 2332
v 5.3447 1.7715 -25.0077
v 5.6608 1.7715 -25.0077
v 1.5051 5.8549 -24.9997
v 3.8417 4.3271 -25.0905
v 6.0225 4.0353 -25.1033
v 1.5051 6.1676 -24.9997
v 3.5429 7.7147 -25.2073
v 6.3485 8.0353 -25.2492
v 1.4950 13.6192 -25.0549
v 3.5429 12.1857 -25.4410
v 7.4922 12.3119 -25.4514
v 9.7203 13.8296 -25.0721
v 1.4950 14.1545 -25.0549
v 3.5872 14.8808 -25.3895
v 7.7143 16.2402 -25.3654
v 9.8894 16.0353 -25.1084
v 9.1324 18.1295 -25.0590
v 9.8570 18.1295 -25.0590
v -14.9393 -18.7451 -21.4382
v -12.4128 -18.6264 -21.3812
v -10.2190 -18.0665 -21.0567
v -15.7857 -15.9647 -21.9427
v -12.4128 -15.9647 -22.5628
v -8.6965 -15.8954 -21.6849
v -6.1266 -14.5159 -21.3282
v 17.2705 -14.7755 -21.1045
v 17.7940 -14.7755 -21.1045
v -22.8988 -10.6496 -21.6825
v -20.4128 -11.4554 -21.9776
v -16.7952 -12.3463 -21.9591
v -12.4128 -11.9647 -23.1695
v -8.4128 -11.9647 -23.0861
v -5.9952 -11.9647 -21.6496
v 17.2705 -13.8451 -21.1045
v 17.7940 -13.8451 -21.1045
v -22.8988 -9.3555 -21.6825
v -20.4128 -8.9945 -21.9776
v -16.4128 -9.4071 -21.5848
v -12.4128 -9.7215 -21.9880
v -8.4128 -9.5399 -22.2623
v -6.1422 -9.6635 -21.5246
v 9.0242 -6.3703 -21.4248
v 11.5872 -6.2714 -21.3162
v 13.5903 -5.9680 -20.9834
v 5.1880 -2.2840 -21.7777
v 7.6494 -3.7562 -22.3904
v 11.5872 -3.9647 -22.3458
v 13.7405 -3.9647 -21.1811
v 0.6786 1.2576 -22.0663
v 3.9330 0.1813 -23.2554
v 7.2314 0.2771 -24.0214
v 11.7507 0.1080 -22.1015
v 13.7885 -1.1769 -21.2446
v -2.5901 5.4564 -21.5108
v -0.2415 4.3223 -23.1219
v 2.6780 3.1882 -24.7330
v 8.0225 4.0353 -24.0657
v 11.7507 3.8068 -22.2169
v 14.1810 4.9878 -21.5937
v -2.5901 6.8900 -21.5108
v -0.0620 7.1727 -22.8984
v 2.3819 8.8161 -22.9799
v 8.3485 8.0353 -24.1618
v 11.5907 8.1009 -22.2937
v 14.1810 6.8113 -21.5937
v -7.1683 13.6125 -21.3380
v -5.8351 13.6125 -21.3380
v 1.4950 13.6192 -24.3409
v 2.3481 12.1857 -22.9965
v 8.7622 11.1629 -24.2712
v 10.8123 12.3119 -22.9547
v -7.1683 15.1368 -21.3380
v -5.8351 15.1368 -21.3380
v 1.4950 14.1545 -24.3409
v 3.3109 15.9323 -23.1874
v 6.4658 17.7101 -24.7005
v 12.1708 15.7145 -23.0641
v 14.0376 16.8340 -21.7869
v 4.0697 20.0353 -22.4777
v 7.6859 19.8099 -23.3118
v 11.3491 18.9730 -23.0641
v 14.0376 18.7157 -21.7869
v 4.3252 22.4164 -21.9231
v 6.2394 22.4164 -21.9231
v -14.9393 -18.7451 -19.9805
v -12.5099 -18.6151 -18.7802
v -9.9852 -18.1924 -18.9799
v 13.5602 -17.9685 -16.9904
v 13.6198 -17.9685 -16.9904
v -19.3053 -14.3694 -18.2661
v -16.6614 -15.9642 -19.1233
v -13.9079 -17.5589 -17.3138
v -7.9852 -16.3932 -18.9799
v -6.1923 -14.3932 -18.9799
v 13.0979 -15.9647 -17.4663
v 15.5807 -15.4550 -18.7183
v 17.7940 -14.7755 -20.3877
v -23.2844 -11.2119 -18.9799
v -20.5483 -13.3440 -19.3516
v -18.3834 -13.9340 -20.9328
v -7.4089 -11.2705 -17.7483
v -6.0740 -12.3481 -19.0409
v 12.9618 -13.5611 -17.6179
v 15.8967 -13.7031 -19.0028
v 17.7940 -13.8451 -20.3877
v -23.2844 -8.8689 -18.9799
v -20.4128 -7.7628 -18.9799
v -16.4128 -8.4906 -18.9799
v -12.4128 -9.2990 -18.9799
v -8.6105 -9.5458 -19.0409
v -6.1422 -9.6635 -20.4150
v 8.7529 -6.8392 -18.9799
v 11.5872 -7.1653 -18.9799
v 14.0524 -6.2908 -18.9799
v 5.1880 -2.2840 -19.9733
v 6.5845 -3.7562 -18.7759
v 14.7603 -3.9647 -18.9799
v 0.5813 1.1616 -18.9799
v 3.7477 -0.9671 -18.7759
v 5.6952 -1.8038 -17.3066
v 13.1931 1.4897 -20.6673
v 15.3925 0.2240 -18.9440
v 17.8909 1.6249 -17.2208
v -2.6224 5.4488 -18.9799
v -1.4187 3.4488 -18.9799
v 13.1931 2.3211 -20.6673
v 15.5435 3.8068 -19.6315
v 18.2559 4.0353 -17.5288
v -14.4466 10.0160 -16.9957
v -12.4128 9.8812 -17.0911
v -8.4128 9.6859 -17.2717
v -3.8859 8.3228 -18.8351
v -0.4128 9.3579 -20.1257
v 2.0540 9.6108 -20.3870
v 12.9263 9.4780 -20.2095
v 15.5435 8.1009 -19.2998
v 18.4605 8.0353 -17.4576
v -14.4466 10.5308 -16.9957
v -12.7365 11.9326 -17.4876
v -8.4661 12.1816 -19.2320
v -4.1982 12.3219 -18.8351
v -0.7295 12.2329 -18.5695
v 2.0938 12.0353 -20.3765
v 13.0188 12.0353 -20.2936
v 15.5872 12.0353 -18.9275
v 18.4829 12.0353 -17.6138
v -11.4475 16.0353 -17.5918
v -8.4661 16.2962 -19.7864
v -4.1982 16.0803 -19.0439
v -0.7295 15.8284 -18.1836
v 2.1727 16.0353 -20.2847
v 13.4903 14.1673 -20.8352
v 15.5114 15.7804 -19.2572
v 18.2050 14.7269 -17.6793
v -10.5862 18.1553 -17.0978
v -8.3263 19.7073 -18.4852
v -4.4128 20.0353 -19.5443
v -0.4128 20.0353 -19.1402
v 2.0697 20.0353 -20.3689
v 8.1745 20.6792 -18.9799
v 11.5872 19.5703 -18.9799
v 14.4735 18.9264 -18.9799
v -6.9354 22.5488 -18.1757
v -4.4128 22.8031 -18.4483
v -0.4128 22.6058 -18.4768
v 3.2300 22.4577 -19.3202
v 6.1745 22.3754 -18.9799
v -11.2413 -18.1664 -16.6874
v -10.0364 -18.1664 -16.6874
v 8.8644 -18.3210 -13.8174
v 11.9710 -18.4329 -15.0824
v 14.4304 -18.2827 -14.9799
v -22.6299 -14.0032 -13.2620
v -20.4440 -14.1863 -14.5039
v -16.7083 -14.8967 -14.6394
v -12.5099 -16.3745 -15.2044
v -8.7901 -15.4087 -15.4930
v -6.4050 -13.9849 -16.9653
v 8.8644 -17.1659 -13.8174
v 11.4598 -15.8854 -15.0824
v 16.1115 -15.9647 -14.9799
v -27.6720 -10.6609 -13.4605
v -24.1927 -12.1351 -14.6946
v -20.4440 -13.7058 -14.5039
v -18.2386 -13.8023 -13.0790
v -8.2371 -12.3481 -15.3711
v -6.4050 -13.9371 -16.9653
v 9.5216 -10.0483 -13.0448
v 11.5223 -12.0711 -14.1506
v 15.2683 -13.5882 -14.9799
v -27.9541 -7.9647 -13.9895
v -24.4184 -7.8535 -15.7389
v -20.4128 -6.7329 -15.5562
v -16.6766 -7.0652 -14.6896
v -12.4128 -8.6231 -14.9799
v -9.8449 -9.6547 -14.9799
v 8.6997 -8.0210 -14.6188
v 11.2075 -8.4309 -14.6188
v 14.2609 -6.4772 -14.9799
v -27.2086 -5.4191 -13.8455
v -24.4128 -5.3105 -14.0683
v -20.4128 -5.6653 -13.5562
v -18.1859 -5.8923 -13.1628
v 0.9778 -2.4005 -13.6081
v 3.5872 -2.8121 -14.2231
v 6.4038 -3.9811 -15.1975
v 16.1717 -3.6214 -14.6370
v 17.6291 -2.0593 -13.0750
v 0.3863 0.2030 -14.9568
v 3.5872 -1.1344 -16.2231
v 5.6952 -1.8038 -16.6759
v 16.9965 -1.0418 -15.7417
v 18.0932 0.1891 -14.6370
v -6.5983 5.9590 -13.1070
v -4.0741 5.3385 -14.6562
v -1.4568 3.2215 -14.9799
v 18.9454 4.0353 -14.9799
v -14.5355 9.9511 -14.9799
v -12.4128 9.5237 -14.9799
v -8.1241 7.9256 -14.6562
v -5.1816 7.0889 -15.7737
v 19.3236 8.0353 -14.9799
v -14.5355 10.8716 -14.9799
v -14.1193 12.8716 -14.9799
v -2.5613 13.6979 -16.7948
v -2.2739 13.6979 -16.7948
v 19.1872 12.0353 -14.9799
v -12.4058 16.0353 -14.9799
v -2.5613 14.3571 -16.7948
v -2.2739 14.3571 -16.7948
v 9.2651 17.5794 -14.0620
v 11.5872 17.0973 -14.3111
v 15.6260 16.4190 -14.9956
v 18.2080 14.6110 -14.9799
v -10.6992 18.2055 -14.9799
v -8.3263 20.2796 -14.8560
v -5.1301 21.5489 -13.4401
v 8.4023 19.6775 -15.2292
v 11.5872 18.4688 -16.3111
v 14.3186 18.5430 -16.3394
v -6.9354 22.5488 -16.1068
v -4.0432 22.6555 -14.8560
v -0.4128 22.6927 -14.9799
v 3.5872 22.6230 -14.9799
v 6.3477 22.3557 -14.9799
v 4.4579 -18.2747 -9.5031
v 7.4485 -18.2978 -10.9222
v 11.5876 -18.6638 -10.9967
v 14.9249 -18.5713 -10.9799
v -27.0369 -14.7348 -9.9137
v -24.1431 -14.4604 -11.1402
v -20.3147 -14.1143 -11.3033
v -16.4594 -14.1718 -11.0913
v -12.5439 -14.3170 -10.7901
v -9.9760 -14.2393 -10.9799
v 4.4579 -17.3454 -9.5031
v 7.4485 -17.2556 -10.9222
v 10.9272 -15.8854 -10.9967
v 17.0408 -15.9924 -11.3779
v 18.0444 -14.6775 -10.3099
v -27.7794 -11.9824 -11.1402
v -25.2966 -13.3276 -12.5803
v -18.9160 -13.8023 -12.8523
v -16.4594 -13.7960 -11.0913
v -13.9646 -13.7897 -9.3302
v -8.2113 -12.0784 -10.9842
v -4.4128 -10.9519 -9.7740
v -1.9212 -10.4248 -9.3649
v 9.5216 -10.0483 -12.9393
v 11.4040 -11.4592 -11.7244
v 15.9707 -12.3057 -11.9548
v 18.1812 -11.9647 -10.1789
v -28.3042 -7.9647 -10.9799
v -18.6012 -6.1918 -9.8138
v -16.8024 -6.2730 -11.0722
v -12.4737 -7.1611 -10.9903
v -8.5608 -8.6730 -10.9842
v -4.4128 -8.2941 -9.7740
v -1.9212 -8.8280 -9.3649
v 8.8899 -7.9647 -12.0726
v 11.1116 -8.3583 -11.0441
v 15.3989 -7.6748 -10.7939
v 17.9220 -9.1330 -9.2486
v -27.0641 -5.2880 -10.9799
v -24.6391 -3.6273 -10.9506
v -20.1951 -4.4318 -11.0391
v -16.8024 -5.7500 -11.0722
v -13.8476 -5.6077 -9.6639
v 0.7347 -2.7028 -10.9799
v 3.5872 -3.5871 -10.9799
v 7.4687 -4.9075 -10.6785
v 9.8652 -5.6903 -9.1442
v 16.4818 -3.6214 -11.0548
v 17.6291 -2.0593 -12.4380
v -23.4566 -1.5334 -9.5977
v -21.7890 -1.5334 -9.5977
v -0.5767 0.0353 -10.9799
v 16.8451 0.0353 -10.1258
v 17.9919 0.0353 -12.1258
v -7.4304 5.4378 -10.9799
v -4.4128 4.4119 -10.9799
v -1.7242 3.0094 -10.9799
v 15.9997 4.0353 -10.0177
v 18.2767 4.0353 -12.0177
v -14.5426 9.9423 -12.8815
v -12.0156 9.6360 -11.3209
v -9.4304 7.6059 -10.9799
v 9.2765 9.8562 -9.1164
v 11.5872 9.6497 -9.0966
v 15.2315 8.2342 -9.8096
v 18.4504 8.0353 -12.0026
v -14.5426 10.6549 -12.8815
v -12.8962 12.0070 -11.3209
v 9.2922 12.0353 -9.1860
v 11.7375 11.8587 -9.1563
v 15.2157 11.8587 -10.1232
v 18.2916 12.0353 -12.3946
v -11.9040 16.0353 -10.9799
v 9.1143 16.1618 -10.6629
v 11.7375 14.8950 -10.6629
v 15.2157 14.4141 -11.2819
v 17.7971 14.1113 -12.8166
v -10.8033 18.3067 -10.9799
v -8.0630 20.3606 -10.7718
v -5.1301 21.5489 -11.9664
v 1.4629 21.9397 -9.0766
v 1.6081 21.9397 -9.0766
v 8.2180 20.0353 -10.9799
v -6.4965 22.1162 -9.2997
v -4.0432 22.1399 -10.7718
v -0.0874 22.1549 -10.6379
v 3.1997 23.0523 -10.6379
v 6.7473 23.2272 -10.9799
v -2.8673 -26.2907 -5.3139
v -1.5810 -26.2907 -5.3139
v -10.4508 -22.0132 -5.0111
v -10.3159 -22.0132 -5.0111
v -2.9976 -23.9647 -5.4959
v -0.3137 -24.1407 -5.8797
v 3.5872 -22.8526 -5.8020
v 6.1082 -22.1886 -5.2645
v -10.4508 -21.7598 -5.0111
v -10.3159 -21.7598 -5.0111
v -3.6544 -19.9647 -5.9854
v -0.4128 -19.9647 -7.4569
v 3.3096 -19.7507 -7.9278
v 7.4037 -19.8924 -6.8390
v 11.5876 -19.0278 -7.0400
v 15.6024 -18.6691 -6.8975
v 17.8230 -18.2456 -5.5092
v -27.0369 -14.7348 -7.7404
v -24.4128 -14.5554 -7.8711
v -20.4128 -14.1228 -8.4781
v -17.3469 -14.1579 -8.5497
v -12.0505 -14.6493 -6.9799
v -8.5847 -15.3098 -7.0308
v -4.8110 -16.3620 -6.3358
v -0.4128 -15.9647 -7.3768
v 3.3096 -15.9931 -8.1615
v 7.4544 -15.9931 -8.0936
v 10.4322 -15.9647 -8.1607
v 16.9458 -17.3441 -8.1759
v 18.2863 -15.9924 -6.8975
v -27.7990 -12.3161 -6.6362
v -24.4128 -13.7348 -5.8711
v -20.4128 -13.2350 -6.4781
v -16.1732 -13.3949 -7.1218
v -14.0505 -13.8130 -6.9799
v -7.3660 -13.4875 -8.3981
v -4.4128 -12.9519 -7.9347
v -0.5178 -11.8407 -7.4892
v 3.5872 -11.9647 -6.7807
v 7.5872 -11.9647 -6.8596
v 10.3654 -11.9647 -7.8043
v 19.9457 -11.9624 -6.8722
v 22.4472 -10.6276 -5.4670
v -30.7382 -7.1427 -5.1643
v -29.0681 -8.2715 -6.6905
v -18.6012 -6.1918 -8.5914
v -18.0856 -6.1918 -8.5914
v -11.1810 -6.5174 -8.3744
v -8.4128 -6.5612 -8.2830
v -4.4128 -6.2941 -8.6132
v -0.5178 -7.6827 -8.0766
v 3.5872 -7.9647 -6.8218
v 7.6279 -8.1242 -5.8326
v 10.6188 -8.1242 -6.7549
v 16.9295 -6.4664 -8.4672
v 19.3972 -7.8115 -6.9671
v 22.4472 -9.1565 -5.4670
v -30.7382 -5.4705 -5.1643
v -28.0563 -5.1035 -6.6905
v -24.6391 -3.4341 -6.8900
v -20.1951 -4.1477 -7.0441
v -16.5011 -4.2742 -7.0017
v -12.4737 -4.1505 -7.3382
v -8.4964 -3.7743 -6.0847
v -4.4637 -3.7743 -6.5744
v 0.1280 -3.3002 -7.1666
v 2.9203 -3.6989 -7.0602
v 7.6279 -4.6389 -6.9824
v 11.3054 -4.0671 -6.3728
v 15.8589 -4.2113 -7.0153
v 18.2058 -5.5242 -5.8005
v -23.4566 -1.5334 -8.1634
v -21.7890 -1.5334 -8.1634
v -14.8002 0.0353 -5.3183
v -12.4128 0.0353 -6.0275
v -8.4964 -0.2425 -6.2112
v -4.1579 0.0060 -5.7730
v -0.4511 -0.1760 -6.4024
v 3.3848 0.4161 -5.3819
v 6.1902 1.7646 -5.1370
v 11.9599 0.0353 -6.0255
v 14.8451 0.0353 -8.0255
v -14.4254 2.0775 -4.9989
v -12.3939 3.6606 -6.2472
v -8.7155 4.0031 -8.4996
v -4.0559 2.9843 -7.2438
v -1.5709 2.7619 -6.9799
v 4.7386 3.0377 -5.1370
v 6.1902 3.0377 -5.1370
v 11.8784 4.0353 -6.5503
v 13.9997 4.0353 -8.5503
v -11.0428 8.3220 -7.3306
v -10.2507 7.1797 -8.8978
v 9.2765 9.8562 -8.1161
v 11.2600 8.4449 -7.1896
v 13.6610 7.0335 -8.9298
v -11.2524 12.0353 -6.9799
v 9.2922 12.0353 -8.2230
v 11.5725 12.4806 -7.3882
v 13.6346 13.0744 -8.9417
v -11.3040 16.0353 -6.9799
v 9.2377 16.0353 -8.4158
v 11.4838 15.1854 -7.4983
v 13.6346 14.0521 -8.9417
v -10.7755 18.3393 -6.9799
v -8.0630 20.2445 -7.2792
v -4.4128 20.5428 -6.7524
v -0.0874 20.8294 -7.2985
v 3.1997 21.4267 -6.6899
v 7.7273 20.2890 -6.7682
v 9.9664 18.8138 -5.7065
v -6.4965 22.1162 -8.8122
v -4.4128 22.1586 -8.7524
v -1.2038 22.1189 -8.8443
v 4.2748 23.2696 -7.8300
v 6.2508 23.2696 -7.8300
v -2.8673 -26.2907 -4.1704
v -1.5810 -26.2907 -4.1704
v 13.0363 -26.1799 -1.1814
v 14.0805 -26.1799 -1.1814
v -10.4490 -22.0132 -2.9799
v -10.2792 -22.0132 -2.9799
v -3.4046 -24.0627 -2.8942
v -0.3137 -25.2235 -2.8942
v 3.9043 -23.2598 -2.8486
v 6.1082 -22.1886 -4.0943
v 12.8952 -23.9647 -1.2124
v 14.8876 -23.9647 -1.2124
v -10.4490 -21.7911 -2.9799
v -8.9042 -20.5839 -2.6925
v -5.5300 -20.1704 -3.3776
v 5.4489 -21.7737 -1.4277
v 7.4998 -21.3977 -2.8486
v 11.7642 -21.0151 -2.6449
v 15.9753 -19.6907 -2.7323
v 17.8230 -18.2456 -4.3762
v -22.5149 -13.9843 -1.2506
v -20.4128 -14.0866 -1.3787
v -16.4128 -14.1533 -2.1174
v -12.7919 -14.7863 -3.3332
v -8.4076 -17.1185 -3.3776
v -6.4097 -17.9603 -4.9760
v 17.1228 -17.4895 -1.7096
v 18.4810 -16.0796 -3.0177
v -30.7453 -10.2042 -2.2158
v -28.7880 -11.4000 -3.3214
v -24.0740 -13.5210 -2.7423
v -20.4128 -13.2350 -3.3787
v -16.4128 -13.3837 -4.1174
v -14.3779 -13.9374 -4.9022
v 20.5277 -12.9116 -2.9799
v 23.7032 -10.9108 -2.9102
v 25.7461 -10.2791 -1.5304
v -31.5324 -8.2715 -3.3214
v -30.3714 -9.8094 -4.8824
v 8.9883 -6.8972 -4.0233
v 10.4502 -6.8972 -4.0233
v 20.8724 -6.4899 -4.3259
v 23.9701 -7.6387 -2.9281
v 25.7461 -8.7876 -1.5304
v -31.5629 -4.6066 -2.9799
v -28.4128 -3.5914 -2.9799
v -24.4128 -4.0360 -2.9799
v -20.1455 -3.4194 -2.6811
v -17.5833 -2.9406 -3.8152
v -7.2188 -2.3141 -4.5373
v -5.8310 -2.3141 -4.5373
v 0.8898 -2.3112 -4.3238
v 2.0311 -2.3112 -4.3238
v 8.9883 -4.8777 -4.0233
v 11.4528 -3.8881 -4.0728
v 15.5872 -3.3347 -3.5148
v 19.3341 -4.1869 -2.7716
v 22.8263 -5.5164 -1.6593
v -18.6341 -1.8447 -1.1486
v -16.4319 -0.2927 -2.6811
v -7.2188 -1.7610 -4.5373
v -4.1579 0.0060 -4.3760
v -0.4723 0.4203 -4.2693
v 3.3848 0.4161 -4.3966
v 6.1902 1.7646 -4.4695
v 12.1442 0.3491 -2.8654
v 15.2305 0.3491 -1.6868
v 18.3674 0.0353 -1.5067
v -14.6395 3.6606 -2.8060
v -13.7146 4.7442 -4.0233
v -2.4847 2.1566 -4.2147
v -0.3650 3.7849 -3.0057
v 4.0807 4.1170 -3.3384
v 6.3693 4.1083 -3.3231
v 12.0790 3.7257 -2.8055
v 15.2305 3.7257 -1.5708
v 18.3860 4.0353 -1.4365
v -14.5959 6.4982 -1.3567
v -12.9632 7.9130 -2.8060
v 1.1044 6.7137 -1.7966
v 3.5872 7.0019 -2.4900
v 6.5484 6.6458 -2.1767
v 12.0964 8.0353 -4.2028
v 15.5872 8.0353 -2.9296
v 18.1131 8.0353 -1.7066
v -11.7206 12.0353 -2.9799
v 12.3737 12.0353 -4.1802
v 15.5872 12.0353 -2.9127
v 18.0601 12.0353 -1.7124
v -11.7333 16.0353 -2.9799
v 12.2184 16.0353 -3.4465
v 15.4402 15.8061 -1.4441
v 17.7498 14.3200 -1.1314
v -11.1370 18.6142 -2.9799
v -8.0602 20.4644 -2.6288
v -4.6780 20.6453 -2.6288
v -0.3293 20.6908 -2.7884
v 3.5872 21.3462 -4.0874
v 7.5872 21.4158 -4.4170
v 11.5056 20.0799 -2.8449
v 14.0089 18.6792 -1.2562
v -6.4918 22.0727 -1.0614
v -6.1882 22.0727 -1.0614
v 1.0597 22.2427 -1.3275
v 3.8556 23.7598 -2.0365
v 7.5872 24.0353 -3.3509
v 11.0137 24.0353 -2.2908
v 5.3678 26.1728 -1.2642
v 7.5872 26.9863 -1.9138
v 10.6984 27.1658 -1.9407
v 12.3830 -26.5152 1.0201
v 14.9069 -26.5152 1.0201
v -10.4230 -21.9808 -0.9717
v -10.3315 -21.9808 -0.9717
v -3.2860 -22.7947 -0.4737
v -0.4128 -23.3182 0.2856
v 3.7527 -22.5440 1.1626
v 7.5872 -22.6163 1.9493
v 10.8008 -23.9756 1.1011
v 16.9873 -24.3317 0.6280
v 18.7510 -23.2430 1.6998
v -10.4230 -21.9382 -0.9717
v -8.7012 -20.4562 -0.5766
v -4.5981 -20.1541 1.0057
v -0.4128 -20.6257 2.2856
v 3.7527 -21.2919 1.1626
v 7.5872 -21.5969 -0.0507
v 10.5488 -21.6654 -0.1782
v 17.1693 -19.9647 -0.4933
v 19.8855 -20.1690 1.6089
v 23.5872 -18.7551 2.7486
v 25.8746 -18.0113 2.9923
v -22.5149 -13.9843 -0.9323
v -20.3918 -14.4835 0.6487
v -16.4128 -14.7007 1.0201
v -12.7866 -14.3542 0.8735
v -8.4076 -15.8724 0.4481
v -5.8823 -15.9647 2.4884
v 17.1228 -17.4895 -0.3441
v 19.6563 -16.0796 0.4944
v 23.5872 -15.9647 2.0598
v 26.2500 -15.9647 2.6938
v -30.7453 -10.2042 0.0745
v -28.6769 -10.8185 1.2527
v -24.0736 -11.8898 0.6573
v -21.5678 -11.9647 1.4758
v -11.7024 -12.6941 2.1091
v -8.4128 -12.8866 2.2063
v -6.2081 -13.7978 2.8461
v 21.0356 -13.2310 -0.1576
v 23.5872 -12.6502 0.3314
v 26.4180 -11.7533 1.1758
v -34.8067 -6.4271 1.8912
v -32.5164 -8.1063 0.9828
v -30.1863 -9.7855 2.7411
v -22.9658 -9.2385 2.2468
v -21.9878 -9.2385 2.2468
v 25.4930 -6.1209 -0.7513
v 26.1375 -7.6584 0.7573
v -34.8067 -5.2049 1.8912
v -32.4176 -3.5932 0.5937
v -28.4128 -2.4004 -0.3545
v -24.4128 -2.9317 -0.0455
v -21.3007 -2.6899 -0.2918
v 20.4624 -2.8497 0.1254
v 23.8491 -4.1151 1.0204
v 25.7160 -5.3804 1.9154
v -30.5476 -1.8879 1.9629
v -28.4128 -1.4494 1.6455
v -24.4128 -1.1567 1.9545
v -19.9265 -0.3378 1.3031
v -17.2615 0.8219 0.2313
v 13.3520 1.8916 -0.9288
v 13.6594 1.8916 -0.9288
v 20.3674 0.0353 0.5618
v 22.6794 0.0353 2.5618
v -18.5522 2.3627 2.8980
v -16.7829 3.8317 1.3468
v 1.1044 5.4132 -0.1423
v 3.5872 4.9264 0.0587
v 6.5484 5.1789 -0.4327
v 13.3520 2.1860 -0.9288
v 13.6594 2.1860 -0.9288
v 20.6196 4.4126 1.1903
v 22.4255 3.3308 2.6371
v -15.0860 7.9130 1.3991
v -13.6181 9.1648 0.3185
v 1.1044 6.7137 -0.1423
v 3.5872 7.0019 0.0587
v 6.5484 6.6458 -0.4327
v 20.4013 7.7040 1.3890
v 21.6174 8.8164 2.9682
v -14.4333 10.0614 2.9851
v -13.0823 11.6510 1.3991
v 19.8034 11.6662 1.3890
v 21.6174 10.0867 2.9682
v -12.3530 16.0353 1.0201
v 16.6755 16.9867 -0.2475
v 18.1445 15.8061 1.0596
v -11.4201 18.9516 1.0201
v -8.4956 20.9516 1.0201
v -3.5215 21.7087 -0.2781
v -1.6069 21.7087 -0.2781
v 12.7931 20.8119 1.0201
v 15.4402 18.9067 1.0596
v 17.9569 18.4521 2.4192
v -6.4956 22.0731 1.0201
v -4.6780 22.1619 1.0412
v -0.3293 22.6159 1.0412
v 3.0903 24.6407 1.0201
v 12.1110 24.0353 1.0201
v 5.0903 26.4823 1.0201
v 7.7235 28.6712 0.8777
v 10.7802 28.3136 0.8777
v 9.1477 30.2411 2.1161
v 9.8183 30.2411 2.1161
v 12.5325 -26.4836 3.7425
v 14.8535 -26.4836 3.7425
v 20.7337 -26.5442 6.0502
v 22.0525 -26.5442 6.0502
v 4.4050 -22.2085 5.0201
v 7.5872 -22.7900 5.0201
v 11.3544 -24.3967 5.0535
v 15.9470 -25.2431 5.0535
v 19.7423 -24.3911 4.6658
v 22.3557 -23.9647 5.4887
v -3.2434 -18.6672 3.7159
v -0.4128 -18.6257 3.5949
v 2.5058 -19.6720 4.6625
v 21.4177 -21.6386 3.2814
v 23.5229 -20.6265 4.7769
v 26.4971 -18.5365 5.0201
v -22.6417 -14.3308 6.6778
v -20.3918 -15.1410 5.2147
v -16.4228 -14.9380 4.6512
v -14.3691 -13.9924 3.0719
v -3.8823 -15.9647 3.8783
v -0.4128 -15.9647 4.5388
v 2.3437 -15.9647 5.6806
v 28.2729 -15.9008 5.1533
v 29.7205 -14.5249 6.5754
v -27.4158 -10.3362 5.0201
v -24.1371 -11.5457 5.1720
v -21.5678 -11.9647 4.2479
v -15.2734 -11.9647 5.6707
v -12.7866 -11.6024 3.5855
v -8.4128 -10.8866 3.4132
v -4.6900 -12.2646 3.8553
v -0.3558 -11.9591 5.6716
v 2.1553 -13.2887 6.4968
v 28.1473 -12.2103 5.1533
v 29.7205 -13.7073 6.5754
v -34.8067 -6.4271 4.1081
v -32.4958 -7.0277 5.2729
v -28.4353 -7.9096 5.7604
v -23.7926 -7.8848 5.1553
v -21.9498 -7.9238 4.9809
v -14.8768 -9.3417 6.5025
v -12.4128 -8.7437 5.6880
v -8.4128 -8.4065 5.4132
v -4.4128 -8.6170 5.7276
v -1.6511 -9.2404 6.1807
v 26.7779 -7.9647 5.0201
v -34.7844 -4.1272 5.1867
v -33.5494 -4.1272 5.1867
v -27.0692 -3.9647 6.7158
v -24.3749 -3.7092 6.3419
v -21.9118 -4.8722 6.2956
v 24.8719 -2.7138 3.3631
v 26.1718 -4.0141 4.8259
v -34.6799 0.0353 6.4424
v -32.0937 -0.3186 4.5179
v -27.6242 -0.4095 5.3547
v -24.9572 -0.2422 5.6130
v -21.2188 1.1691 4.2228
v 24.4009 0.1510 4.8259
v 25.9778 -1.1052 6.0298
v -34.4196 2.0451 7.0045
v -32.4128 2.5786 6.4584
v -28.3670 4.0641 6.1105
v -24.4128 4.0353 6.1319
v -20.0964 3.8317 4.6260
v -17.9978 5.0294 3.4314
v 21.5761 5.9975 3.0295
v 22.7152 4.4126 4.6257
v -27.0032 6.4817 6.5902
v -24.4128 6.6407 6.4946
v -20.4128 6.8670 6.1254
v -16.9639 8.0842 4.8669
v 21.5761 6.1498 3.0295
v 22.0217 7.7040 4.6257
v -14.9130 10.4947 5.0201
v -12.9971 12.4947 5.0201
v 13.5396 14.0207 7.0028
v 13.6696 14.0207 7.0028
v 19.9656 12.2849 5.0201
v 21.7741 10.2849 5.0201
v -11.6568 16.0353 5.0201
v 8.5070 16.9391 6.1955
v 11.9586 15.7776 5.8305
v 15.2366 15.7139 5.8122
v 18.1118 15.7139 4.9070
v -11.0725 18.8315 5.0201
v -8.0316 20.8063 4.6632
v -5.1568 21.5921 5.7586
v 0.3895 21.7651 6.6940
v 2.0923 21.7651 6.6940
v 8.1466 20.0353 6.0074
v 11.6774 19.8703 3.9256
v 15.5872 18.6416 3.5232
v 17.9569 18.4521 3.4982
v -6.4442 22.0483 3.0920
v -4.0592 22.1474 4.6632
v -0.7314 22.4994 5.2245
v 3.6182 23.9274 5.1379
v 7.4829 23.9459 5.9464
v 10.6845 24.0353 4.2567
v 5.1441 26.4939 3.5818
v 7.7235 27.9104 4.1177
v 10.2450 28.0353 3.9709
v 9.1477 30.2411 3.4467
v 9.8183 30.2411 3.4467
v 20.7337 -26.5442 7.4386
v 22.0525 -26.5442 7.4386
v 4.8750 -22.1059 7.6541
v 7.5872 -22.1384 7.5652
v 11.5872 -22.4910 7.9249
v 15.3383 -23.0400 9.2883
v 19.4751 -24.2795 8.8712
v 22.2110 -23.5710 8.8712
v 4.3834 -19.9647 8.2148
v 7.4356 -19.8277 9.6315
v 11.5872 -21.1448 9.9249
v 13.8390 -21.7664 10.8004
v 24.0180 -20.9719 9.0201
v 27.1300 -18.9719 9.0201
v -23.3801 -14.5238 9.0201
v -20.2397 -14.9473 9.2759
v -17.7628 -14.8570 8.1130
v 4.3734 -16.0313 9.1954
v 6.0011 -17.4090 10.6456
v 28.8071 -15.9008 8.8238
v 29.7205 -14.5249 7.3596
v -26.6432 -10.1768 7.2706
v -24.3910 -11.5605 8.9701
v -20.2397 -11.7523 10.1817
v -17.2734 -11.9647 8.2350
v 0.8547 -10.7684 9.0201
v 2.7396 -12.7684 9.0201
v 28.1122 -12.2103 8.8238
v 29.7205 -13.7073 7.3596
v -31.2179 -6.1197 7.1319
v -28.2190 -7.6566 7.2012
v -24.4128 -8.8695 7.9451
v -20.3075 -7.7017 9.1083
v -16.2912 -8.4422 8.9363
v -12.4128 -7.9289 9.0201
v -8.4128 -7.2258 9.0201
v -4.4128 -6.8810 9.0201
v -1.1453 -8.6095 9.0201
v 26.9884 -7.9647 9.0201
v -34.7621 -3.0495 7.3619
v -32.4958 -4.2156 7.6037
v -28.0502 -3.2601 8.5747
v -24.3749 -2.6805 8.8181
v -21.2549 -4.5925 9.0201
v 1.5557 -2.0239 10.9893
v 1.6263 -2.0239 10.9893
v 25.3011 -2.2329 10.7020
v 26.4032 -3.7256 9.2292
v -34.6799 0.0353 7.2881
v -32.4128 0.0353 8.6492
v -28.2992 -0.7039 9.0821
v -25.6831 -1.6896 7.3500
v 1.5557 -1.9366 10.9893
v 1.6263 -1.9366 10.9893
v 24.3996 0.1510 9.2292
v 25.9778 -1.1052 8.0353
v -34.4196 2.0451 7.0357
v -32.4128 2.5786 8.0036
v -29.2587 4.0641 9.3975
v 22.7613 4.0353 9.0201
v -26.9981 6.4201 9.0201
v -24.1643 8.1596 9.2079
v -20.4128 8.8670 8.1562
v -17.7258 9.4501 7.5553
v 21.2578 9.0944 10.3262
v 22.0739 7.8707 9.0038
v -22.6654 10.2269 10.6664
v -20.4128 10.5301 10.1562
v -16.4006 10.7584 8.9412
v -12.0272 12.5675 8.6426
v -9.7225 13.5187 9.7242
v 13.5396 14.0207 7.1343
v 15.0428 13.8039 8.5202
v 19.4765 11.9519 8.7828
v 21.8063 10.3166 7.6596
v -10.6788 16.0353 7.6420
v -9.5188 16.0353 9.6420
v 4.6926 17.4701 10.0474
v 7.3391 16.4280 8.8365
v 11.9586 14.3942 8.6886
v 15.0428 14.1234 8.5202
v 17.6952 14.1663 7.2394
v -10.7434 18.4967 7.8119
v -8.5117 19.1271 9.0952
v -4.0592 20.9434 8.6491
v -0.7314 21.0952 8.6491
v 3.4779 20.2584 9.4604
v 6.1435 20.1808 8.8365
v -2.4902 22.0484 7.0685
v -2.2772 22.0484 7.0685
v 4.5669 22.6162 9.0201
v 6.0928 22.6162 9.0201
v 16.5056 -22.2379 11.2793
v 19.5872 -22.1774 11.2203
v 21.6022 -21.9752 11.0278
v 8.6678 -18.4031 11.5010
v 11.5872 -19.1448 11.6342
v 15.3383 -20.2457 11.4719
v 19.5872 -19.9647 11.6398
v 23.1962 -19.9410 11.9254
v 26.7184 -18.5919 12.1177
v -23.4736 -14.3441 11.3317
v -21.4577 -14.3441 11.3317
v 5.2223 -14.7424 11.7561
v 7.4356 -16.0313 12.3633
v 11.5872 -15.9647 12.7749
v 15.5872 -15.9647 12.2652
v 19.5872 -15.9647 12.5691
v 23.8390 -15.8215 14.0240
v 26.7484 -15.8215 13.2787
v -23.4736 -12.9441 11.3317
v -21.4577 -12.9441 11.3317
v 0.8353 -10.8255 13.0201
v 3.7683 -12.7547 13.0617
v 7.5872 -13.3055 14.3384
v 11.5872 -13.1070 14.1608
v 15.5872 -12.4963 13.8949
v 19.5872 -12.4691 14.1496
v 23.9173 -11.9521 14.6608
v 26.3843 -12.0288 13.2856
v -18.7033 -6.1277 11.2676
v -16.2029 -6.5597 12.7686
v -12.5974 -7.0566 13.0753
v -8.4128 -6.7840 11.7161
v -4.4128 -6.2287 11.5653
v -1.0916 -7.7151 12.9546
v 24.7956 -7.9647 14.5193
v 26.3662 -7.9647 12.5193
v -26.6308 -2.2604 13.0201
v -24.4128 -2.9151 13.0201
v -20.0563 -3.7345 13.1191
v -17.5692 -3.9647 14.1686
v -11.3871 -5.1580 14.4453
v -8.1045 -3.8807 13.9286
v -4.7632 -4.1117 13.8079
v -0.1596 -3.7834 12.6601
v 1.6263 -2.0239 11.0760
v 21.2082 -2.4836 14.6492
v 23.7962 -3.6916 13.2796
v 26.1016 -4.8996 11.9099
v -27.7180 0.0353 13.0201
v -18.7426 -1.8241 14.9707
v -18.3043 -1.8241 14.9707
v -6.5657 -1.8874 14.9395
v -6.3302 -1.8874 14.9395
v 1.5557 -1.9366 11.0760
v 1.6263 -1.9366 11.0760
v 21.2082 -0.8346 14.6492
v 22.4793 0.3134 13.1976
v -27.3966 4.1573 12.9799
v -26.2368 5.5720 14.2864
v 17.2722 5.7281 14.7156
v 19.5872 4.8456 13.9051
v 21.9212 3.6678 12.7108
v -26.6028 6.1020 11.6197
v -24.4511 7.8121 12.9657
v -21.8689 9.5222 14.3117
v 17.2247 8.0353 14.6990
v 19.7896 7.8707 12.4539
v 21.7043 6.4277 11.1712
v -22.6654 10.2269 11.6450
v -20.4865 10.7462 12.9951
v -16.4128 11.8880 13.0201
v -12.8053 13.0115 13.0402
v -9.7225 13.5187 11.7203
v 9.5476 14.0085 14.9672
v 10.6123 14.0085 14.9672
v 15.9865 12.1664 13.3459
v 18.5912 10.9205 12.2298
v -11.7336 14.5158 14.3869
v -8.4834 16.1334 13.2188
v -4.4128 17.7895 14.7645
v -2.1392 17.9919 14.9820
v 4.0731 17.0960 13.0201
v 7.9635 15.0734 13.3884
v 11.8023 14.2538 13.3884
v 13.7126 14.0715 13.0201
v -7.2444 18.5035 12.0507
v -4.4128 19.0028 12.7645
v -0.6486 18.9061 13.3973
v 3.3511 19.8376 12.2328
v 5.7685 21.6112 11.1831
v 5.0551 22.2921 11.1831
v 5.7685 22.2921 11.1831
v 25.3401 -14.3927 15.0814
v 25.7486 -14.3927 15.0814
v 0.9898 -10.6980 16.1351
v 3.5872 -11.1414 16.8292
v 7.2168 -11.2818 17.3984
v 11.5872 -11.5369 17.0201
v 15.3671 -10.4894 16.6917
v 19.5872 -10.4691 15.2578
v 23.9173 -11.9521 15.1496
v 25.7486 -13.4049 15.0814
v -14.7297 -6.2042 15.2249
v -14.0538 -6.2042 15.2249
v 0.4990 -8.1131 17.2891
v 3.5872 -9.6305 18.8292
v 5.6365 -9.9384 18.9839
v 16.5605 -7.9647 17.7760
v 19.5872 -7.9647 16.1455
v 22.7956 -7.9647 15.3896
v -26.4246 -2.0030 15.0315
v -24.4128 -2.2009 15.1225
v -20.0182 -2.2072 16.5167
v -16.5170 -3.5977 16.5565
v -12.5346 -3.7568 16.7789
v -9.2324 -2.4913 15.6662
v -3.6635 -2.8764 16.0263
v -0.3543 -3.9556 17.3023
v 2.4552 -2.3682 18.5783
v 17.2519 -5.1946 18.5754
v 19.4917 -3.8391 16.9453
v 22.2912 -5.1502 15.3151
v -26.5368 0.0353 15.1312
v -24.4128 0.0353 15.5308
v -20.0591 -0.7616 16.4775
v -18.3043 -1.8241 15.2214
v -11.0155 -1.5100 18.3329
v -8.1045 -1.4265 17.0078
v -4.7632 -1.3193 17.2238
v -0.4128 -1.2940 18.4433
v 2.4552 -1.7038 18.5783
v 16.9691 1.1599 18.4146
v 19.4917 0.1626 16.7340
v 21.6200 1.8321 15.0533
v -26.5663 2.9054 15.1569
v -24.7072 4.1573 15.9805
v -21.6982 4.0353 18.1180
v 16.3642 4.2510 17.0568
v 19.5872 2.8456 15.5909
v 21.6200 2.0895 15.0533
v -23.5701 6.8556 16.0764
v -21.5489 8.1275 17.2539
v 15.4607 8.0353 17.0201
v -19.5205 11.1042 17.0201
v -16.5742 13.2863 16.6239
v -14.4002 14.0284 15.0263
v 5.2267 13.6773 18.6820
v 7.9635 13.6308 17.2172
v 11.8023 13.0942 16.6229
v 14.3412 11.6840 16.6229
v -15.3486 15.0877 17.6930
v -12.8631 16.1351 16.7579
v -8.4128 17.1824 15.7771
v -4.4128 17.7895 15.2460
v -0.3745 17.9387 16.8207
v 3.5115 16.2835 17.2711
v 6.8809 14.6815 16.0153
v 13.2790 14.0385 15.0247
v 13.5924 14.0385 15.0247
v -11.3259 19.1063 18.4894
v -8.4128 19.5789 17.7771
v -4.4128 18.9635 17.2460
v -0.3745 18.2012 16.8207
v 1.7963 18.1167 15.8602
v 8.0729 -10.8825 21.0201
v 11.8458 -10.7983 21.0616
v 13.8870 -10.1304 19.7559
v 1.1665 -6.8787 19.4398
v 3.5872 -7.6305 19.9620
v 7.2444 -8.0863 21.2647
v 11.8458 -7.7265 22.3312
v 14.5605 -7.9647 20.4193
v -18.6272 -2.1731 19.2182
v -16.4128 -2.4142 19.6259
v -13.6821 -2.3556 19.6296
v 1.1665 -5.0349 19.4398
v 3.7080 -3.8068 19.8735
v 7.6627 -4.1121 21.8134
v 11.5872 -5.2814 22.6071
v 15.5289 -4.0013 21.0081
v 17.7752 -2.5279 19.1996
v -19.0465 0.0353 19.8707
v -16.5647 0.0229 21.6663
v -12.3744 -0.7838 20.9858
v -8.4816 0.6476 21.0144
v -4.4128 0.7841 19.6785
v -0.4128 0.7060 19.6214
v 3.9690 0.0942 20.7271
v 7.4959 0.4143 22.1886
v 11.5872 1.1482 22.2246
v 15.3875 -0.1111 20.8276
v 17.7752 -1.5068 19.1996
v -19.6605 4.0416 21.1817
v -17.9993 2.7124 22.6228
v -10.7820 5.5449 22.5625
v -8.2484 4.4059 22.4532
v -4.7583 4.3743 21.3216
v -0.4128 4.0353 20.3235
v 3.9246 3.8178 21.9406
v 7.4022 3.8178 22.1139
v 11.5872 4.0353 20.9151
v 14.2948 4.0353 19.7792
v -20.0822 8.0353 21.0201
v -10.7820 6.3931 22.5625
v -7.9054 7.8733 22.7350
v -4.8942 8.2119 22.4428
v -0.4142 8.2564 21.8449
v 3.6224 8.1267 22.2551
v 7.3605 8.1267 22.0260
v 11.5872 8.0353 20.2856
v 13.8232 8.0353 19.2596
v -18.9954 10.8544 21.0201
v -16.5742 12.9209 21.3502
v -14.2103 13.7525 22.9036
v -6.5083 10.3596 22.9075
v -6.1331 10.3596 22.9075
v 0.4964 12.0353 22.4090
v 3.7696 12.0222 21.2793
v 7.3605 11.4460 21.0345
v 11.5872 10.8791 19.5951
v 13.6737 10.1164 19.0961
v -15.3486 15.0877 20.2369
v -13.3577 16.2667 21.3502
v -7.4060 17.1592 22.6417
v -4.4128 16.8720 22.3014
v -0.2373 16.2896 21.1035
v 2.5601 15.2188 19.7667
v -11.2458 18.9048 21.0201
v -8.6087 19.3232 21.1931
v -4.4128 18.9635 20.3014
v -1.2764 18.2858 19.7736
v 8.8523 -10.7810 23.5817
v 10.6849 -10.7810 23.5817
v 8.8523 -8.9010 23.5817
v 10.6849 -8.9010 23.5817
v 9.0463 -2.8771 23.4627
v 11.5872 -3.2814 23.5308
v 13.8059 -2.8079 23.2585
v -15.3326 1.3480 23.5888
v -12.4128 1.1704 23.6945
v -9.8609 1.5694 23.3506
v 5.4828 1.8921 23.0708
v 7.4959 0.4143 23.2667
v 11.5872 -0.8518 23.5308
v 13.8059 -1.3820 23.2585
v -18.7784 5.3791 23.2261
v -16.5647 4.0416 23.9549
v -12.2343 4.1411 24.0296
v -8.2484 4.4059 23.2032
v -6.3220 5.9336 23.0558
v 5.4828 2.3394 23.0708
v 5.9456 2.3394 23.0708
v -18.7541 8.0353 23.2254
v -16.4128 8.0353 23.9598
v -12.2343 7.8500 23.9375
v -7.9054 7.8733 23.3128
v -4.8942 8.2119 23.1052
v -1.7485 9.7371 23.1546
v 4.9792 9.5209 23.1256
v 5.8760 9.5209 23.1256
v -18.5022 10.2275 23.0878
v -16.4128 10.9673 23.2178
v -12.6913 12.2656 23.6557
v -8.0701 11.8299 23.6208
v -4.6450 11.8299 23.2880
v -1.5036 12.0353 23.2517
v 4.9792 10.3671 23.1256
v 5.8760 10.3671 23.1256
v -11.4091 16.0353 23.3183
v -8.6087 15.9097 23.3412
v -4.4128 14.8720 23.2541
v -1.8648 14.6937 23.1945
v -10.6104 18.1237 23.1040
v -10.0727 18.1237 23.1040
f 5 1 4
f 5 2 1
f 7 3 6
f 7 4 3
f 7 5 4
f 7 8 5
f 10 8 7
f 10 11 8
f 14 9 13
f 14 10 9
f 14 11 10
f 14 15 11
f 15 12 11
f 15 16 12
f 17 16 15
f 17 18 16
f 23 19 22
f 23 20 19
f 23 21 20
f 23 24 21
f 31 22 30
f 31 23 22
f 31 24 23
f 31 32 24
f 32 25 24
f 32 33 25
f 34 27 26
f 34 35 27
f 37 28 36
f 37 29 28
f 38 29 37
f 38 30 29
f 38 31 30
f 38 39 31
f 39 32 31
f 39 40 32
f 40 33 32
f 40 41 33
f 47 42 46
f 47 43 42
f 47 44 43
f 47 48 44
f 51 1 2
f 51 50 1
f 51 45 50
f 51 46 45
f 52 46 51
f 52 47 46
f 53 47 52
f 53 48 47
f 56 1 50
f 56 4 1
f 56 3 4
f 56 55 3
f 56 49 55
f 56 50 49
f 57 51 2
f 57 2 5
f 57 52 51
f 57 58 52
f 61 3 55
f 61 6 3
f 61 54 60
f 61 55 54
f 62 7 6
f 62 6 61
f 57 5 8
f 57 8 63
f 64 57 63
f 64 58 57
f 65 58 64
f 65 59 58
f 62 10 7
f 62 69 10
f 69 9 10
f 69 68 9
f 70 63 8
f 70 8 11
f 12 70 11
f 12 71 70
f 70 64 63
f 70 71 64
f 72 67 66
f 72 73 67
f 68 13 9
f 68 74 13
f 14 13 74
f 14 74 75
f 74 68 69
f 74 69 75
f 76 15 14
f 76 14 75
f 77 71 12
f 77 12 16
f 76 17 15
f 76 80 17
f 79 76 75
f 79 80 76
f 81 77 16
f 81 16 18
f 81 18 17
f 81 17 80
f 81 78 77
f 81 82 78
f 84 79 83
f 84 80 79
f 20 85 19
f 20 86 85
f 21 86 20
f 21 87 86
f 85 22 19
f 85 91 22
f 92 91 85
f 92 85 86
f 93 87 21
f 93 21 24
f 25 93 24
f 25 94 93
f 95 89 88
f 95 96 89
f 97 26 27
f 97 96 26
f 29 98 28
f 29 99 98
f 100 22 91
f 100 30 22
f 100 29 30
f 100 99 29
f 100 90 99
f 100 91 90
f 102 94 25
f 102 25 33
f 104 26 96
f 104 34 26
f 103 96 95
f 103 104 96
f 97 27 35
f 97 35 105
f 105 35 34
f 105 34 104
f 104 96 97
f 104 97 105
f 106 28 98
f 106 36 28
f 107 37 36
f 107 36 106
f 108 38 37
f 108 37 107
f 109 39 38
f 109 38 108
f 110 40 39
f 110 39 109
f 111 102 33
f 111 33 41
f 111 41 40
f 111 40 110
f 111 110 101
f 111 101 102
f 113 42 43
f 113 112 42
f 44 113 43
f 44 114 113
f 116 42 112
f 116 46 42
f 116 45 46
f 116 115 45
f 117 114 44
f 117 44 48
f 119 45 115
f 119 50 45
f 119 49 50
f 119 118 49
f 120 119 115
f 120 115 116
f 117 48 53
f 117 53 122
f 53 52 121
f 53 121 122
f 125 49 118
f 125 55 49
f 125 54 55
f 125 124 54
f 126 121 52
f 126 52 58
f 59 126 58
f 59 127 126
f 127 121 126
f 127 122 121
f 127 123 122
f 127 128 123
f 124 60 54
f 124 132 60
f 133 61 60
f 133 60 132
f 62 61 133
f 62 133 134
f 127 59 65
f 127 65 136
f 65 64 135
f 65 135 136
f 136 128 127
f 136 137 128
f 138 130 129
f 138 139 130
f 139 131 130
f 139 140 131
f 67 140 66
f 67 141 140
f 141 131 140
f 141 132 131
f 141 133 132
f 141 142 133
f 134 69 62
f 134 143 69
f 143 133 142
f 143 134 133
f 135 64 71
f 135 71 144
f 145 135 144
f 145 136 135
f 145 137 136
f 145 146 137
f 148 66 140
f 148 72 66
f 147 140 139
f 147 148 140
f 149 141 67
f 149 67 73
f 73 72 148
f 73 148 149
f 151 69 143
f 151 75 69
f 151 142 150
f 151 143 142
f 152 144 71
f 152 71 77
f 78 152 77
f 78 153 152
f 152 145 144
f 152 153 145
f 154 145 153
f 154 146 145
f 155 148 147
f 155 156 148
f 157 148 156
f 157 149 148
f 158 149 157
f 158 150 149
f 151 79 75
f 151 159 79
f 158 151 150
f 158 159 151
f 81 80 160
f 81 160 161
f 162 153 78
f 162 78 82
f 82 81 161
f 82 161 162
f 163 157 156
f 163 164 157
f 165 157 164
f 165 158 157
f 159 83 79
f 159 166 83
f 165 159 158
f 165 166 159
f 160 80 84
f 160 84 167
f 167 84 83
f 167 83 166
f 87 168 86
f 87 169 168
f 172 88 89
f 172 171 88
f 175 90 91
f 175 174 90
f 168 92 86
f 168 176 92
f 92 175 91
f 92 176 175
f 169 87 93
f 169 93 177
f 176 168 169
f 176 169 177
f 178 93 94
f 178 177 93
f 180 88 171
f 180 95 88
f 179 171 170
f 179 180 171
f 181 172 89
f 181 89 96
f 184 90 174
f 184 99 90
f 184 98 99
f 184 183 98
f 184 173 183
f 184 174 173
f 185 184 174
f 185 174 175
f 187 178 94
f 187 94 102
f 187 102 101
f 187 101 186
f 186 177 178
f 186 178 187
f 180 103 95
f 180 189 103
f 190 181 96
f 190 96 104
f 190 104 103
f 190 103 189
f 192 98 183
f 192 106 98
f 192 182 191
f 192 183 182
f 193 107 106
f 193 106 192
f 108 107 193
f 108 193 194
f 195 109 108
f 195 108 194
f 196 186 101
f 196 101 110
f 196 110 109
f 196 109 195
f 198 112 113
f 198 197 112
f 198 188 197
f 198 189 188
f 199 113 114
f 199 198 113
f 200 192 191
f 200 201 192
f 201 193 192
f 201 202 193
f 203 193 202
f 203 194 193
f 206 112 197
f 206 116 112
f 199 114 117
f 199 117 207
f 210 118 119
f 210 209 118
f 210 204 209
f 210 205 204
f 211 116 206
f 211 120 116
f 120 210 119
f 120 211 210
f 211 205 210
f 211 206 205
f 212 207 117
f 212 117 122
f 123 212 122
f 123 213 212
f 212 208 207
f 212 213 208
f 216 118 209
f 216 125 118
f 216 124 125
f 216 215 124
f 217 213 123
f 217 123 128
f 219 129 130
f 219 218 129
f 131 219 130
f 131 220 219
f 221 124 215
f 221 132 124
f 221 131 132
f 221 220 131
f 221 214 220
f 221 215 214
f 217 128 137
f 217 137 222
f 218 138 129
f 218 223 138
f 224 139 138
f 224 138 223
f 142 141 225
f 142 225 226
f 227 222 137
f 227 137 146
f 228 139 224
f 228 147 139
f 229 225 141
f 229 141 149
f 226 150 142
f 226 230 150
f 150 229 149
f 150 230 229
f 229 226 225
f 229 230 226
f 234 227 146
f 234 146 154
f 154 153 233
f 154 233 234
f 235 147 228
f 235 155 147
f 236 156 155
f 236 155 235
f 239 161 160
f 239 160 238
f 239 238 231
f 239 231 232
f 240 233 153
f 240 153 162
f 240 162 161
f 240 161 239
f 240 239 232
f 240 232 233
f 241 156 236
f 241 163 156
f 164 163 241
f 164 241 242
f 241 236 237
f 241 237 242
f 165 164 242
f 165 242 243
f 244 166 165
f 244 165 243
f 245 238 160
f 245 160 167
f 167 166 244
f 167 244 245
f 248 170 171
f 248 247 170
f 172 248 171
f 172 249 248
f 252 173 174
f 252 251 173
f 254 175 176
f 254 253 175
f 255 176 177
f 255 254 176
f 257 170 247
f 257 179 170
f 256 247 246
f 256 257 247
f 258 180 179
f 258 179 257
f 258 257 247
f 258 247 248
f 249 172 181
f 249 181 259
f 262 173 251
f 262 183 173
f 262 182 183
f 262 261 182
f 262 250 261
f 262 251 250
f 263 252 174
f 263 174 184
f 253 185 175
f 253 264 185
f 185 263 184
f 185 264 263
f 263 253 252
f 263 264 253
f 265 264 253
f 265 253 254
f 255 177 186
f 255 186 266
f 258 189 180
f 258 270 189
f 270 188 189
f 270 269 188
f 259 181 190
f 259 190 271
f 271 190 189
f 271 189 270
f 271 260 259
f 271 272 260
f 273 182 261
f 273 191 182
f 276 195 194
f 276 194 275
f 266 186 196
f 266 196 277
f 196 195 276
f 196 276 277
f 277 267 266
f 277 278 267
f 279 267 278
f 279 268 267
f 280 188 269
f 280 197 188
f 270 189 198
f 270 198 281
f 281 280 269
f 281 269 270
f 199 281 198
f 199 282 281
f 282 270 281
f 282 271 270
f 283 271 282
f 283 272 271
f 273 200 191
f 273 284 200
f 201 200 284
f 201 284 285
f 286 202 201
f 286 201 285
f 275 194 203
f 275 203 287
f 203 202 286
f 203 286 287
f 287 286 274
f 287 274 275
f 288 275 287
f 288 276 275
f 290 204 205
f 290 289 204
f 291 197 280
f 291 206 197
f 206 290 205
f 206 291 290
f 292 291 280
f 292 280 281
f 293 282 199
f 293 199 207
f 208 293 207
f 208 294 293
f 296 285 295
f 296 286 285
f 297 204 289
f 297 209 204
f 299 294 208
f 299 208 213
f 298 293 294
f 298 294 299
f 301 214 215
f 301 300 214
f 297 216 209
f 297 302 216
f 302 215 216
f 302 301 215
f 304 299 213
f 304 213 217
f 304 303 298
f 304 298 299
f 219 305 218
f 219 306 305
f 307 214 300
f 307 220 214
f 307 219 220
f 307 306 219
f 311 304 217
f 311 217 222
f 311 310 303
f 311 303 304
f 312 218 305
f 312 223 218
f 224 223 312
f 224 312 313
f 313 312 305
f 313 305 306
f 315 314 308
f 315 308 309
f 316 315 309
f 316 309 310
f 317 311 222
f 317 222 227
f 316 310 311
f 316 311 317
f 313 228 224
f 313 318 228
f 232 231 319
f 232 319 320
f 320 319 314
f 320 314 315
f 321 233 232
f 321 232 320
f 322 317 227
f 322 227 234
f 322 234 233
f 322 233 321
f 321 316 317
f 321 317 322
f 318 235 228
f 318 323 235
f 236 235 323
f 236 323 324
f 237 236 324
f 237 324 325
f 328 319 231
f 328 231 238
f 330 237 325
f 330 242 237
f 329 325 324
f 329 330 325
f 243 242 330
f 243 330 331
f 332 244 243
f 332 243 331
f 331 326 327
f 331 327 332
f 328 238 245
f 328 245 333
f 333 245 244
f 333 244 332
f 338 335 334
f 338 339 335
f 342 337 336
f 342 343 337
f 345 338 344
f 345 339 338
f 345 340 339
f 345 346 340
f 347 246 247
f 347 346 246
f 346 341 340
f 346 347 341
f 249 348 248
f 249 349 348
f 352 250 251
f 352 351 250
f 353 251 252
f 353 352 251
f 354 252 253
f 354 353 252
f 255 355 254
f 255 356 355
f 358 344 357
f 358 345 344
f 359 246 346
f 359 256 246
f 358 346 345
f 358 359 346
f 360 347 247
f 360 247 257
f 360 257 256
f 360 256 359
f 361 248 348
f 361 258 248
f 361 347 360
f 361 348 347
f 362 349 249
f 362 249 259
f 260 362 259
f 260 363 362
f 362 350 349
f 362 363 350
f 364 250 351
f 364 261 250
f 365 364 351
f 365 351 352
f 366 365 352
f 366 352 353
f 354 253 264
f 354 264 367
f 366 353 354
f 366 354 367
f 355 265 254
f 355 368 265
f 265 367 264
f 265 368 367
f 369 356 255
f 369 255 266
f 267 369 266
f 267 370 369
f 369 357 356
f 369 370 357
f 268 370 267
f 268 371 370
f 370 358 357
f 370 371 358
f 371 359 358
f 371 372 359
f 372 360 359
f 372 373 360
f 374 258 361
f 374 270 258
f 374 360 373
f 374 361 360
f 375 363 260
f 375 260 272
f 378 261 364
f 378 273 261
f 380 275 274
f 380 274 379
f 277 276 381
f 277 381 382
f 278 277 382
f 278 382 383
f 384 371 268
f 384 268 279
f 279 278 383
f 279 383 384
f 385 371 384
f 385 372 371
f 386 372 385
f 386 373 372
f 374 281 270
f 374 387 281
f 387 373 386
f 387 374 373
f 375 272 283
f 375 283 389
f 283 282 388
f 283 388 389
f 390 375 389
f 390 376 375
f 392 273 378
f 392 284 273
f 391 378 377
f 391 392 378
f 393 285 284
f 393 284 392
f 379 274 286
f 379 286 394
f 380 287 275
f 380 395 287
f 395 379 394
f 395 380 379
f 381 276 288
f 381 288 396
f 288 287 395
f 288 395 396
f 397 381 396
f 397 382 381
f 398 382 397
f 398 383 382
f 399 383 398
f 399 384 383
f 400 289 290
f 400 399 289
f 400 384 399
f 400 385 384
f 401 290 291
f 401 400 290
f 401 385 400
f 401 386 385
f 387 292 281
f 387 402 292
f 292 401 291
f 292 402 401
f 388 282 293
f 388 293 403
f 404 388 403
f 404 389 388
f 393 295 285
f 393 405 295
f 394 286 296
f 394 296 406
f 296 295 405
f 296 405 406
f 406 405 393
f 406 393 394
f 407 396 395
f 407 408 396
f 408 397 396
f 408 409 397
f 399 297 289
f 399 411 297
f 411 398 410
f 411 399 398
f 411 399 400
f 411 400 412
f 415 403 293
f 415 293 298
f 415 414 402
f 415 402 403
f 416 408 407
f 416 417 408
f 417 409 408
f 417 418 409
f 301 418 300
f 301 419 418
f 419 409 418
f 419 410 409
f 420 297 411
f 420 302 297
f 302 419 301
f 302 420 419
f 421 412 413
f 421 413 422
f 415 298 303
f 415 303 424
f 424 423 414
f 424 414 415
f 426 300 418
f 426 307 300
f 426 306 307
f 426 425 306
f 426 417 425
f 426 418 417
f 309 308 427
f 309 427 428
f 429 424 303
f 429 303 310
f 429 310 309
f 429 309 428
f 429 428 423
f 429 423 424
f 430 306 425
f 430 313 306
f 431 427 308
f 431 308 314
f 432 427 431
f 432 428 427
f 433 315 316
f 433 432 315
f 430 318 313
f 430 434 318
f 435 431 314
f 435 314 319
f 436 315 432
f 436 320 315
f 436 431 435
f 436 432 431
f 437 433 316
f 437 316 321
f 437 321 320
f 437 320 436
f 437 436 432
f 437 432 433
f 434 323 318
f 434 438 323
f 439 324 323
f 439 323 438
f 327 326 441
f 327 441 442
f 435 319 328
f 435 328 443
f 444 435 443
f 444 436 435
f 445 324 439
f 445 329 324
f 446 330 329
f 446 329 445
f 445 439 440
f 445 440 446
f 447 441 326
f 447 326 331
f 447 331 330
f 447 330 446
f 447 446 440
f 447 440 441
f 448 327 442
f 448 332 327
f 449 443 328
f 449 328 333
f 333 332 448
f 333 448 449
f 449 448 442
f 449 442 443
f 335 450 334
f 335 451 450
f 337 454 336
f 337 455 454
f 450 338 334
f 450 456 338
f 457 451 335
f 457 335 339
f 457 456 450
f 457 450 451
f 458 339 340
f 458 457 339
f 459 340 341
f 459 458 340
f 460 453 452
f 460 461 453
f 462 336 454
f 462 342 336
f 455 337 343
f 455 343 463
f 343 342 462
f 343 462 463
f 464 338 456
f 464 344 338
f 466 459 341
f 466 341 347
f 465 458 459
f 465 459 466
f 467 347 348
f 467 466 347
f 468 348 349
f 468 467 348
f 467 461 460
f 467 468 461
f 469 349 350
f 469 468 349
f 356 473 355
f 356 474 473
f 475 344 464
f 475 357 344
f 475 356 357
f 475 474 356
f 474 464 463
f 474 475 464
f 477 469 350
f 477 350 363
f 476 468 469
f 476 469 477
f 480 364 365
f 480 479 364
f 481 365 366
f 481 480 365
f 481 470 480
f 481 471 470
f 482 366 367
f 482 481 366
f 481 472 471
f 481 482 472
f 483 355 473
f 483 368 355
f 483 367 368
f 483 482 367
f 483 472 482
f 483 473 472
f 484 477 363
f 484 363 375
f 376 484 375
f 376 485 484
f 488 364 479
f 488 378 364
f 488 377 378
f 488 487 377
f 488 478 487
f 488 479 478
f 387 386 489
f 387 489 490
f 485 376 390
f 485 390 492
f 390 389 491
f 390 491 492
f 493 485 492
f 493 486 485
f 487 391 377
f 487 494 391
f 495 392 391
f 495 391 494
f 496 393 392
f 496 392 495
f 394 393 496
f 394 496 497
f 498 395 394
f 498 394 497
f 500 398 397
f 500 397 499
f 502 400 399
f 502 399 501
f 503 489 386
f 503 386 401
f 490 402 387
f 490 504 402
f 402 503 401
f 402 504 503
f 503 490 489
f 503 504 490
f 505 403 402
f 505 402 504
f 491 389 404
f 491 404 506
f 404 403 505
f 404 505 506
f 507 491 506
f 507 492 491
f 498 407 395
f 498 509 407
f 508 498 497
f 508 509 498
f 510 499 397
f 510 397 409
f 500 410 398
f 500 511 410
f 410 510 409
f 410 511 510
f 510 500 499
f 510 511 500
f 501 399 411
f 501 411 512
f 512 411 410
f 512 410 511
f 502 412 400
f 502 513 412
f 412 512 411
f 412 513 512
f 513 501 512
f 513 502 501
f 413 412 513
f 413 513 514
f 504 402 414
f 504 414 515
f 515 505 504
f 515 516 505
f 517 505 516
f 517 506 505
f 509 416 407
f 509 518 416
f 519 417 416
f 519 416 518
f 520 511 410
f 520 410 419
f 512 420 411
f 512 521 420
f 420 520 419
f 420 521 520
f 520 512 511
f 520 521 512
f 513 412 421
f 513 421 522
f 514 422 413
f 514 523 422
f 523 421 422
f 523 522 421
f 522 514 513
f 522 523 514
f 524 515 414
f 524 414 423
f 525 517 516
f 525 526 517
f 528 417 519
f 528 425 417
f 527 519 518
f 527 528 519
f 529 521 522
f 529 522 530
f 531 530 522
f 531 522 523
f 532 524 423
f 532 423 428
f 533 524 532
f 533 525 524
f 533 526 525
f 533 534 526
f 535 425 528
f 535 430 425
f 536 532 428
f 536 428 432
f 536 533 532
f 536 537 533
f 538 533 537
f 538 534 533
f 535 434 430
f 535 539 434
f 536 432 436
f 536 436 540
f 540 537 536
f 540 541 537
f 542 537 541
f 542 538 537
f 539 438 434
f 539 543 438
f 439 438 543
f 439 543 544
f 440 439 544
f 440 544 545
f 546 441 440
f 546 440 545
f 547 442 441
f 547 441 546
f 548 443 442
f 548 442 547
f 540 436 444
f 540 444 549
f 444 443 548
f 444 548 549
f 550 540 549
f 550 541 540
f 551 545 544
f 551 552 545
f 553 547 546
f 553 554 547
f 555 547 554
f 555 548 547
f 556 548 555
f 556 549 548
f 557 555 554
f 557 558 555
f 558 556 555
f 558 559 556
f 453 560 452
f 453 561 560
f 563 454 455
f 563 562 454
f 565 456 457
f 565 564 456
f 458 565 457
f 458 566 565
f 560 460 452
f 560 568 460
f 561 453 461
f 561 461 569
f 571 454 562
f 571 462 454
f 563 455 463
f 563 463 572
f 463 462 571
f 463 571 572
f 571 562 563
f 571 563 572
f 564 464 456
f 564 573 464
f 464 572 463
f 464 573 572
f 574 573 564
f 574 564 565
f 566 458 465
f 566 465 575
f 575 574 565
f 575 565 566
f 576 465 466
f 576 575 465
f 576 566 575
f 576 567 566
f 577 460 568
f 577 467 460
f 577 466 467
f 577 576 466
f 577 567 576
f 577 568 567
f 578 569 461
f 578 461 468
f 578 570 569
f 578 579 570
f 471 582 470
f 471 583 582
f 584 471 472
f 584 583 471
f 585 472 473
f 585 584 472
f 572 474 463
f 572 586 474
f 586 473 474
f 586 585 473
f 586 572 573
f 586 573 587
f 578 468 476
f 578 476 588
f 477 588 476
f 477 589 588
f 588 579 578
f 588 589 579
f 589 580 579
f 589 590 580
f 590 581 580
f 590 591 581
f 593 478 479
f 593 592 478
f 582 480 470
f 582 594 480
f 594 479 480
f 594 593 479
f 595 594 582
f 595 582 583
f 597 596 585
f 597 585 586
f 598 597 586
f 598 586 587
f 599 589 477
f 599 477 484
f 485 599 484
f 485 600 599
f 599 590 589
f 599 600 590
f 486 600 485
f 486 601 600
f 600 591 590
f 600 601 591
f 592 487 478
f 592 603 487
f 604 603 592
f 604 592 593
f 605 594 595
f 605 595 606
f 608 601 486
f 608 486 493
f 493 492 607
f 493 607 608
f 603 494 487
f 603 610 494
f 609 603 602
f 609 610 603
f 611 495 494
f 611 494 610
f 612 496 495
f 612 495 611
f 613 497 496
f 613 496 612
f 607 492 507
f 607 507 615
f 507 506 614
f 507 614 615
f 616 607 615
f 616 608 607
f 617 611 610
f 617 618 611
f 618 612 611
f 618 619 612
f 613 508 497
f 613 620 508
f 619 613 612
f 619 620 613
f 621 509 508
f 621 508 620
f 516 515 622
f 516 622 623
f 614 506 517
f 614 517 624
f 625 614 624
f 625 615 614
f 621 518 509
f 621 627 518
f 626 621 620
f 626 627 621
f 522 521 628
f 522 628 629
f 630 523 522
f 630 522 629
f 622 515 524
f 622 524 631
f 623 525 516
f 623 632 525
f 525 631 524
f 525 632 631
f 631 623 622
f 631 632 623
f 624 517 526
f 624 526 633
f 634 624 633
f 634 625 624
f 627 527 518
f 627 635 527
f 636 528 527
f 636 527 635
f 628 521 529
f 628 529 637
f 638 529 530
f 638 637 529
f 638 628 637
f 638 629 628
f 630 531 523
f 630 639 531
f 639 530 531
f 639 638 530
f 639 629 638
f 639 630 629
f 640 633 526
f 640 526 534
f 636 535 528
f 636 643 535
f 642 636 635
f 642 643 636
f 644 640 534
f 644 534 538
f 645 640 644
f 645 641 640
f 646 535 643
f 646 539 535
f 644 538 542
f 644 542 648
f 542 541 647
f 542 647 648
f 646 543 539
f 646 649 543
f 544 543 649
f 544 649 650
f 652 546 545
f 652 545 651
f 647 541 550
f 647 550 654
f 550 549 653
f 550 653 654
f 655 647 654
f 655 648 647
f 650 551 544
f 650 656 551
f 651 545 552
f 651 552 657
f 552 551 656
f 552 656 657
f 652 553 546
f 652 658 553
f 657 652 651
f 657 658 652
f 659 554 553
f 659 553 658
f 653 549 556
f 653 556 660
f 659 557 554
f 659 661 557
f 558 557 661
f 558 661 662
f 660 556 559
f 660 559 663
f 559 558 662
f 559 662 663
f 664 663 662
f 664 665 663
f 561 666 560
f 561 667 666
f 567 670 566
f 567 671 670
f 666 568 560
f 666 672 568
f 672 567 568
f 672 671 567
f 667 561 569
f 667 569 673
f 673 672 666
f 673 666 667
f 570 673 569
f 570 674 673
f 675 668 674
f 675 669 668
f 574 676 573
f 574 677 676
f 670 575 566
f 670 678 575
f 678 574 575
f 678 677 574
f 679 674 570
f 679 570 579
f 580 679 579
f 580 680 679
f 679 675 674
f 679 680 675
f 681 580 581
f 681 680 580
f 684 583 584
f 684 683 583
f 685 584 585
f 685 684 584
f 676 587 573
f 676 686 587
f 687 686 676
f 687 676 677
f 688 687 677
f 688 677 678
f 681 581 591
f 681 591 689
f 594 691 593
f 594 692 691
f 693 583 683
f 693 595 583
f 693 682 692
f 693 683 682
f 685 585 596
f 685 596 695
f 694 684 685
f 694 685 695
f 696 596 597
f 696 695 596
f 686 598 587
f 686 697 598
f 598 696 597
f 598 697 696
f 698 697 686
f 698 686 687
f 699 698 687
f 699 687 688
f 700 689 591
f 700 591 601
f 701 689 700
f 701 690 689
f 703 602 603
f 703 702 602
f 691 604 593
f 691 704 604
f 604 703 603
f 604 704 703
f 692 594 605
f 692 605 705
f 693 606 595
f 693 706 606
f 706 605 606
f 706 705 605
f 706 692 705
f 706 693 692
f 707 694 695
f 707 695 708
f 708 695 696
f 708 696 709
f 710 709 696
f 710 696 697
f 711 710 697
f 711 697 698
f 712 700 601
f 712 601 608
f 702 609 602
f 702 713 609
f 714 610 609
f 714 609 713
f 714 713 702
f 714 702 703
f 715 704 705
f 715 705 716
f 717 716 705
f 717 705 706
f 712 608 616
f 712 616 719
f 616 615 718
f 616 718 719
f 714 617 610
f 714 721 617
f 720 714 713
f 720 721 714
f 722 618 617
f 722 617 721
f 619 618 722
f 619 722 723
f 723 722 715
f 723 715 716
f 724 620 619
f 724 619 723
f 718 615 625
f 718 625 725
f 726 718 725
f 726 719 718
f 728 720 727
f 728 721 720
f 728 722 721
f 728 729 722
f 729 723 722
f 729 730 723
f 724 626 620
f 724 731 626
f 730 724 723
f 730 731 724
f 732 627 626
f 732 626 731
f 725 625 634
f 725 634 734
f 634 633 733
f 634 733 734
f 735 730 729
f 735 736 730
f 737 730 736
f 737 731 730
f 732 635 627
f 732 738 635
f 737 732 731
f 737 738 732
f 733 633 640
f 733 640 739
f 641 739 640
f 641 740 739
f 740 733 739
f 740 734 733
f 738 642 635
f 738 741 642
f 742 643 642
f 742 642 741
f 746 740 641
f 746 641 645
f 645 644 745
f 645 745 746
f 742 646 643
f 742 747 646
f 750 749 743
f 750 743 744
f 745 644 648
f 745 648 751
f 747 649 646
f 747 752 649
f 650 649 752
f 650 752 753
f 758 757 748
f 758 748 749
f 759 654 653
f 759 653 758
f 759 758 749
f 759 749 750
f 760 751 648
f 760 648 655
f 655 654 759
f 655 759 760
f 759 750 751
f 759 751 760
f 761 650 753
f 761 656 650
f 657 656 761
f 657 761 762
f 761 753 754
f 761 754 762
f 658 657 762
f 658 762 763
f 764 659 658
f 764 658 763
f 763 755 756
f 763 756 764
f 766 758 653
f 766 653 660
f 766 765 757
f 766 757 758
f 767 659 764
f 767 661 659
f 768 662 661
f 768 661 767
f 767 764 765
f 767 765 768
f 769 766 660
f 769 660 663
f 768 765 766
f 768 766 769
f 770 662 768
f 770 664 662
f 769 663 665
f 769 665 771
f 665 664 770
f 665 770 771
f 770 768 769
f 770 769 771
f 669 772 668
f 669 773 772
f 671 774 670
f 671 775 774
f 776 671 672
f 776 775 671
f 673 776 672
f 673 777 776
f 772 674 668
f 772 778 674
f 778 673 674
f 778 777 673
f 773 669 675
f 773 675 779
f 779 778 772
f 779 772 773
f 780 670 774
f 780 678 670
f 780 774 775
f 780 775 781
f 782 781 775
f 782 775 776
f 783 782 776
f 783 776 777
f 784 779 675
f 784 675 680
f 681 784 680
f 681 785 784
f 787 682 683
f 787 786 682
f 788 683 684
f 788 787 683
f 780 688 678
f 780 789 688
f 790 789 780
f 790 780 781
f 785 681 689
f 785 689 791
f 690 791 689
f 690 792 791
f 794 682 786
f 794 692 682
f 692 793 691
f 692 794 793
f 788 684 694
f 788 694 796
f 796 795 787
f 796 787 788
f 789 699 688
f 789 798 699
f 699 797 698
f 699 798 797
f 792 690 701
f 792 701 800
f 800 701 700
f 800 700 799
f 800 799 791
f 800 791 792
f 793 704 691
f 793 802 704
f 704 801 703
f 704 802 801
f 803 705 704
f 803 704 802
f 803 802 793
f 803 793 794
f 706 705 803
f 706 803 804
f 803 794 795
f 803 795 804
f 796 694 707
f 796 707 805
f 805 804 795
f 805 795 796
f 806 707 708
f 806 805 707
f 709 806 708
f 709 807 806
f 710 807 709
f 710 808 807
f 797 711 698
f 797 809 711
f 711 808 710
f 711 809 808
f 799 700 712
f 799 712 810
f 801 714 703
f 801 812 714
f 714 811 713
f 714 812 811
f 802 704 715
f 802 715 813
f 813 812 801
f 813 801 802
f 804 717 706
f 804 815 717
f 717 814 716
f 717 815 814
f 810 712 719
f 810 719 819
f 811 720 713
f 811 820 720
f 821 820 811
f 821 811 812
f 822 813 715
f 822 715 722
f 821 812 813
f 821 813 822
f 823 716 814
f 823 723 716
f 823 722 723
f 823 822 722
f 823 813 822
f 823 814 813
f 824 816 817
f 824 817 825
f 819 719 726
f 819 726 827
f 726 725 826
f 726 826 827
f 827 826 818
f 827 818 819
f 820 727 720
f 820 828 727
f 728 727 828
f 728 828 829
f 828 820 821
f 828 821 829
f 830 729 728
f 830 728 829
f 830 829 821
f 830 821 822
f 831 826 725
f 831 725 734
f 832 729 830
f 832 735 729
f 736 735 832
f 736 832 833
f 834 737 736
f 834 736 833
f 835 738 737
f 835 737 834
f 837 831 734
f 837 734 740
f 838 834 833
f 838 839 834
f 835 741 738
f 835 840 741
f 839 835 834
f 839 840 835
f 841 742 741
f 841 741 840
f 744 743 843
f 744 843 844
f 846 837 740
f 846 740 746
f 846 746 745
f 846 745 845
f 846 845 836
f 846 836 837
f 847 742 841
f 847 747 742
f 847 841 842
f 847 842 848
f 851 843 743
f 851 743 749
f 851 749 748
f 851 748 850
f 852 744 844
f 852 750 744
f 852 843 851
f 852 844 843
f 853 845 745
f 853 745 751
f 853 751 750
f 853 750 852
f 853 852 844
f 853 844 845
f 854 747 847
f 854 752 747
f 753 752 854
f 753 854 855
f 854 847 848
f 854 848 855
f 754 753 855
f 754 855 856
f 756 755 857
f 756 857 858
f 850 748 757
f 850 757 859
f 859 858 849
f 859 849 850
f 860 754 856
f 860 762 754
f 861 857 755
f 861 755 763
f 763 762 860
f 763 860 861
f 860 856 857
f 860 857 861
f 862 756 858
f 862 764 756
f 863 859 757
f 863 757 765
f 765 764 862
f 765 862 863
f 778 864 777
f 778 865 864
f 779 865 778
f 779 866 865
f 782 867 781
f 782 868 867
f 864 783 777
f 864 869 783
f 783 868 782
f 783 869 868
f 870 869 864
f 870 864 865
f 866 779 784
f 866 784 871
f 870 865 866
f 870 866 871
f 872 784 785
f 872 871 784
f 874 786 787
f 874 873 786
f 867 790 781
f 867 876 790
f 790 875 789
f 790 876 875
f 877 876 867
f 877 867 868
f 878 877 868
f 878 868 869
f 878 869 870
f 878 870 879
f 879 870 871
f 879 871 880
f 872 785 791
f 872 791 881
f 880 871 872
f 880 872 881
f 882 786 873
f 882 794 786
f 874 787 795
f 874 795 883
f 795 794 882
f 795 882 883
f 882 873 874
f 882 874 883
f 875 798 789
f 875 885 798
f 798 884 797
f 798 885 884
f 886 885 875
f 886 875 876
f 886 876 877
f 886 877 887
f 887 877 878
f 887 878 888
f 888 878 879
f 888 879 889
f 889 879 880
f 889 880 890
f 881 791 799
f 881 799 891
f 805 892 804
f 805 893 892
f 806 893 805
f 806 894 893
f 895 806 807
f 895 894 806
f 808 895 807
f 808 896 895
f 884 809 797
f 884 897 809
f 809 896 808
f 809 897 896
f 899 891 799
f 899 799 810
f 898 890 891
f 898 891 899
f 814 900 813
f 814 901 900
f 892 815 804
f 892 902 815
f 815 901 814
f 815 902 901
f 903 902 892
f 903 892 893
f 904 894 895
f 904 895 905
f 905 895 896
f 905 896 906
f 907 906 896
f 907 896 897
f 908 817 816
f 908 816 907
f 911 899 810
f 911 810 819
f 911 819 818
f 911 818 910
f 911 910 898
f 911 898 899
f 900 822 813
f 900 912 822
f 913 902 903
f 913 903 914
f 916 915 905
f 916 905 906
f 917 907 816
f 917 816 824
f 908 825 817
f 908 918 825
f 825 917 824
f 825 918 917
f 917 908 907
f 917 918 908
f 920 910 818
f 920 818 826
f 920 919 909
f 920 909 910
f 912 830 822
f 912 921 830
f 925 920 826
f 925 826 831
f 926 830 921
f 926 832 830
f 833 832 926
f 833 926 927
f 926 921 922
f 926 922 927
f 930 929 923
f 930 923 924
f 931 925 831
f 931 831 837
f 931 837 836
f 931 836 930
f 931 930 924
f 931 924 925
f 932 833 927
f 932 838 833
f 839 838 932
f 839 932 933
f 932 927 928
f 932 928 933
f 934 840 839
f 934 839 933
f 935 841 840
f 935 840 934
f 936 842 841
f 936 841 935
f 940 930 836
f 940 836 845
f 845 844 939
f 845 939 940
f 940 939 929
f 940 929 930
f 936 848 842
f 936 942 848
f 941 936 935
f 941 942 936
f 946 850 849
f 946 849 945
f 851 850 946
f 851 946 947
f 947 946 937
f 947 937 938
f 948 939 844
f 948 844 852
f 948 852 851
f 948 851 947
f 949 848 942
f 949 855 848
f 856 855 949
f 856 949 950
f 949 942 943
f 949 943 950
f 857 856 950
f 857 950 951
f 950 943 944
f 950 944 951
f 952 945 849
f 952 849 858
f 952 858 857
f 952 857 951
f 953 858 859
f 953 952 858
f 954 858 952
f 954 862 858
f 953 859 863
f 953 863 955
f 863 862 954
f 863 954 955
f 954 952 953
f 954 953 955
f 957 880 881
f 957 956 880
f 885 958 884
f 885 959 958
f 886 959 885
f 886 960 959
f 961 886 887
f 961 960 886
f 888 961 887
f 888 962 961
f 963 888 889
f 963 962 888
f 956 890 880
f 956 964 890
f 964 889 890
f 964 963 889
f 957 881 891
f 957 891 965
f 965 891 890
f 965 890 964
f 965 964 956
f 965 956 957
f 894 966 893
f 894 967 966
f 958 897 884
f 958 968 897
f 969 968 958
f 969 958 959
f 970 969 959
f 970 959 960
f 971 962 963
f 971 963 972
f 964 890 898
f 964 898 973
f 973 972 963
f 973 963 964
f 901 974 900
f 901 975 974
f 902 975 901
f 902 976 975
f 966 903 893
f 966 977 903
f 967 894 904
f 967 904 978
f 978 977 966
f 978 966 967
f 979 904 905
f 979 978 904
f 981 897 968
f 981 907 897
f 907 980 906
f 907 981 980
f 983 971 972
f 983 972 984
f 985 973 898
f 985 898 910
f 985 910 909
f 985 909 984
f 985 984 972
f 985 972 973
f 986 900 974
f 986 912 900
f 987 986 974
f 987 974 975
f 976 902 913
f 976 913 988
f 988 987 975
f 988 975 976
f 989 903 977
f 989 914 903
f 989 913 914
f 989 988 913
f 989 976 988
f 989 977 976
f 979 905 915
f 979 915 991
f 990 978 979
f 990 979 991
f 980 916 906
f 980 992 916
f 916 991 915
f 916 992 991
f 993 992 980
f 993 980 981
f 993 981 982
f 993 982 994
f 996 984 909
f 996 909 919
f 997 919 920
f 997 996 919
f 998 912 986
f 998 921 912
f 922 921 998
f 922 998 999
f 998 986 987
f 998 987 999
f 1000 999 987
f 1000 987 988
f 1002 924 923
f 1002 923 1001
f 1002 1001 995
f 1002 995 996
f 1003 997 920
f 1003 920 925
f 1003 925 924
f 1003 924 1002
f 1002 996 997
f 1002 997 1003
f 1004 922 999
f 1004 927 922
f 928 927 1004
f 928 1004 1005
f 1004 999 1000
f 1004 1000 1005
f 1006 1001 923
f 1006 923 929
f 1007 928 1005
f 1007 933 928
f 934 933 1007
f 934 1007 1008
f 1009 935 934
f 1009 934 1008
f 1012 938 937
f 1012 937 1011
f 1013 1006 929
f 1013 929 939
f 1009 941 935
f 1009 1015 941
f 1014 1009 1008
f 1014 1015 1009
f 1016 942 941
f 1016 941 1015
f 943 942 1016
f 943 1016 1017
f 944 943 1017
f 944 1017 1018
f 1020 1011 937
f 1020 937 946
f 1020 946 945
f 1020 945 1019
f 1020 1019 1010
f 1020 1010 1011
f 1021 938 1012
f 1021 947 938
f 1022 1013 939
f 1022 939 948
f 948 947 1021
f 948 1021 1022
f 1022 1021 1012
f 1022 1012 1013
f 1023 1016 1015
f 1023 1024 1016
f 1025 1016 1024
f 1025 1017 1016
f 1026 944 1018
f 1026 951 944
f 1025 1018 1017
f 1025 1026 1018
f 1027 1019 945
f 1027 945 952
f 1027 952 951
f 1027 951 1026
f 1027 1026 1018
f 1027 1018 1019
f 961 1028 960
f 961 1029 1028
f 1030 961 962
f 1030 1029 961
f 969 1031 968
f 969 1032 1031
f 1028 970 960
f 1028 1033 970
f 970 1032 969
f 970 1033 1032
f 1030 962 971
f 1030 971 1035
f 1035 1034 1029
f 1035 1029 1030
f 977 1036 976
f 977 1037 1036
f 1038 977 978
f 1038 1037 977
f 1039 968 1031
f 1039 981 968
f 982 981 1039
f 982 1039 1040
f 1039 1031 1032
f 1039 1032 1040
f 1041 1040 1032
f 1041 1032 1033
f 1042 1041 1033
f 1042 1033 1034
f 1035 971 983
f 1035 983 1043
f 1042 1034 1035
f 1042 1035 1043
f 1044 983 984
f 1044 1043 983
f 1036 988 976
f 1036 1045 988
f 1045 1036 1037
f 1045 1037 1046
f 1038 978 990
f 1038 990 1047
f 1046 1037 1038
f 1046 1038 1047
f 1048 990 991
f 1048 1047 990
f 1049 991 992
f 1049 1048 991
f 993 1049 992
f 993 1050 1049
f 1040 994 982
f 1040 1051 994
f 994 1050 993
f 994 1051 1050
f 1051 1040 1041
f 1051 1041 1052
f 1055 1044 984
f 1055 984 996
f 1055 996 995
f 1055 995 1054
f 1054 1043 1044
f 1054 1044 1055
f 1045 1000 988
f 1045 1056 1000
f 1057 1056 1045
f 1057 1045 1046
f 1060 1059 1048
f 1060 1048 1049
f 1061 1060 1049
f 1061 1049 1050
f 1062 1061 1050
f 1062 1050 1051
f 1063 1052 1053
f 1063 1053 1064
f 1065 1054 995
f 1065 995 1001
f 1065 1064 1053
f 1065 1053 1054
f 1066 1000 1056
f 1066 1005 1000
f 1067 1058 1059
f 1067 1059 1068
f 1070 1069 1060
f 1070 1060 1061
f 1071 1070 1061
f 1071 1061 1062
f 1072 1071 1062
f 1072 1062 1063
f 1072 1063 1064
f 1072 1064 1073
f 1065 1001 1006
f 1065 1006 1074
f 1073 1064 1065
f 1073 1065 1074
f 1066 1007 1005
f 1066 1075 1007
f 1076 1008 1007
f 1076 1007 1075
f 1078 1068 1069
f 1078 1069 1079
f 1080 1070 1071
f 1080 1071 1081
f 1082 1011 1010
f 1082 1010 1081
f 1083 1012 1011
f 1083 1011 1082
f 1082 1072 1073
f 1082 1073 1083
f 1084 1074 1006
f 1084 1006 1013
f 1013 1012 1083
f 1013 1083 1084
f 1084 1083 1073
f 1084 1073 1074
f 1085 1008 1076
f 1085 1014 1008
f 1086 1015 1014
f 1086 1014 1085
f 1085 1076 1077
f 1085 1077 1086
f 1090 1081 1010
f 1090 1010 1019
f 1090 1019 1018
f 1090 1018 1089
f 1090 1089 1080
f 1090 1080 1081
f 1086 1023 1015
f 1086 1091 1023
f 1092 1024 1023
f 1092 1023 1091
f 1093 1025 1024
f 1093 1024 1092
f 1093 1092 1087
f 1093 1087 1088
f 1094 1089 1018
f 1094 1018 1026
f 1094 1026 1025
f 1094 1025 1093
f 1094 1093 1088
f 1094 1088 1089
f 1096 1028 1029
f 1096 1095 1028
f 1097 1028 1095
f 1097 1033 1028
f 1098 1096 1029
f 1098 1029 1034
f 1034 1033 1097
f 1034 1097 1098
f 1097 1095 1096
f 1097 1096 1098
f 1042 1099 1041
f 1042 1100 1099
f 1101 1042 1043
f 1101 1100 1042
f 1047 1102 1046
f 1047 1103 1102
f 1104 1047 1048
f 1104 1103 1047
f 1099 1052 1041
f 1099 1106 1052
f 1052 1105 1051
f 1052 1106 1105
f 1053 1052 1106
f 1053 1106 1107
f 1107 1106 1099
f 1107 1099 1100
f 1108 1101 1043
f 1108 1043 1054
f 1108 1054 1053
f 1108 1053 1107
f 1108 1107 1100
f 1108 1100 1101
f 1102 1057 1046
f 1102 1110 1057
f 1057 1109 1056
f 1057 1110 1109
f 1111 1110 1102
f 1111 1102 1103
f 1104 1048 1059
f 1104 1059 1112
f 1112 1059 1058
f 1112 1058 1111
f 1111 1103 1104
f 1111 1104 1112
f 1113 1059 1060
f 1113 1112 1059
f 1105 1062 1051
f 1105 1114 1062
f 1115 1106 1052
f 1115 1052 1063
f 1063 1062 1114
f 1063 1114 1115
f 1115 1114 1105
f 1115 1105 1106
f 1109 1066 1056
f 1109 1116 1066
f 1117 1116 1109
f 1117 1109 1110
f 1118 1111 1058
f 1118 1058 1067
f 1117 1110 1111
f 1117 1111 1118
f 1112 1068 1059
f 1112 1119 1068
f 1119 1067 1068
f 1119 1118 1067
f 1113 1060 1069
f 1113 1069 1120
f 1120 1069 1068
f 1120 1068 1119
f 1119 1112 1113
f 1119 1113 1120
f 1121 1069 1070
f 1121 1120 1069
f 1123 1071 1072
f 1123 1122 1071
f 1124 1066 1116
f 1124 1075 1066
f 1125 1076 1075
f 1125 1075 1124
f 1124 1116 1117
f 1124 1117 1125
f 1077 1076 1125
f 1077 1125 1126
f 1125 1117 1118
f 1125 1118 1126
f 1119 1068 1078
f 1119 1078 1127
f 1127 1126 1118
f 1127 1118 1119
f 1120 1079 1069
f 1120 1128 1079
f 1128 1078 1079
f 1128 1127 1078
f 1121 1070 1080
f 1121 1080 1129
f 1128 1120 1121
f 1128 1121 1129
f 1130 1071 1122
f 1130 1081 1071
f 1131 1123 1072
f 1131 1072 1082
f 1131 1082 1081
f 1131 1081 1130
f 1130 1122 1123
f 1130 1123 1131
f 1132 1077 1126
f 1132 1086 1077
f 1132 1126 1127
f 1132 1127 1133
f 1134 1088 1087
f 1134 1087 1133
f 1134 1133 1127
f 1134 1127 1128
f 1135 1129 1080
f 1135 1080 1089
f 1135 1089 1088
f 1135 1088 1134
f 1135 1134 1128
f 1135 1128 1129
f 1132 1091 1086
f 1132 1136 1091
f 1137 1133 1087
f 1137 1087 1092
f 1137 1092 1091
f 1137 1091 1136
f 1137 1136 1132
f 1137 1132 1133
