# parsimony mesh: eg11782_monomer (source /Users/eranagmon/code/v2e-abund/workspace/studies/ecoli-3d/viz/3d/structures/eg11782_monomer.pdb)
# atoms: 1287  voxel: 4 Å  verts: 717  tris: 1452
v -3.0200 -9.0476 -20.6585
v -2.9757 -9.0476 -20.6585
v 12.8072 -9.2159 -20.8129
v 13.9488 -9.2159 -20.8129
v -3.0200 -8.9321 -20.6585
v -2.9757 -8.9321 -20.6585
v 12.8072 -8.5331 -20.8129
v 15.3316 -7.1367 -20.7819
v 17.1893 -5.7404 -20.7510
v -3.9558 -1.9600 -21.2253
v -2.4537 -1.9600 -21.2253
v 16.7144 -4.2167 -20.7510
v 17.1893 -4.2167 -20.7510
v -3.9558 -0.1682 -21.2253
v -2.4537 -0.1682 -21.2253
v -3.5589 -25.4892 -17.3105
v -0.9922 -25.3801 -17.1586
v 1.0126 -25.0340 -16.6653
v -3.8557 -23.0245 -17.2412
v -1.2587 -23.4160 -17.1336
v 1.0126 -25.0104 -16.6653
v -7.9912 -18.0733 -17.4920
v -4.9430 -19.2538 -17.2638
v -2.6833 -19.0245 -16.7839
v -7.9912 -16.2074 -17.4920
v -4.9475 -14.9343 -17.3777
v -2.1036 -15.0245 -16.9263
v -3.8852 -10.6384 -18.4377
v -2.0301 -10.6384 -18.4377
v 12.5325 -9.6078 -18.6464
v 15.1724 -10.1874 -18.9609
v 18.1167 -10.1849 -17.8373
v 23.9543 -9.4893 -17.2105
v 25.5344 -9.4893 -17.2105
v -11.4157 -5.3413 -17.0696
v -8.9922 -5.7410 -17.3065
v -4.7736 -7.2976 -18.6858
v -1.9872 -7.3691 -18.8195
v 4.6972 -5.0815 -16.6816
v 7.0078 -5.5577 -16.9200
v 11.3576 -7.1058 -18.3931
v 15.3316 -7.1367 -20.1572
v 18.9863 -7.2651 -18.9207
v 22.7757 -7.2837 -17.8844
v 26.9238 -6.8618 -18.1668
v 29.3270 -5.4200 -17.8082
v -11.4157 -4.1850 -17.0696
v -9.0876 -2.9208 -17.6883
v -5.1704 -3.1858 -19.6075
v -0.8561 -2.9327 -18.4798
v 3.2215 -2.7531 -16.8629
v 7.0078 -3.0245 -17.2777
v 11.0078 -3.0245 -17.9569
v 15.2317 -2.9398 -19.3980
v 18.7167 -2.9398 -19.3579
v 23.0078 -3.0245 -18.1834
v 26.8317 -2.8816 -17.8803
v 29.3270 -4.1196 -17.8082
v -7.7135 0.9755 -17.5627
v -5.1704 1.0893 -19.2922
v -1.2101 0.7705 -18.2627
v 3.0780 0.6157 -17.0321
v 7.0078 0.9755 -17.3006
v 10.9270 1.2218 -17.2454
v 15.0078 -0.0598 -17.7129
v 19.0078 -0.7339 -17.5174
v 23.0078 -0.8517 -17.0590
v 25.3810 -0.9724 -16.7330
v -7.1281 3.2005 -17.0118
v -4.9922 3.3110 -17.3113
v -2.6331 3.1978 -17.1675
v 4.1789 4.9755 -17.0489
v 6.9480 4.7222 -17.0152
v 9.5398 3.2200 -16.7243
v 0.9332 10.7606 -16.7001
v 3.0746 9.2466 -17.0521
v 6.2911 8.9755 -17.1132
v 0.9332 11.5272 -16.7001
v 3.0078 11.9266 -16.9889
v 6.1519 11.6918 -17.0494
v -3.5589 -25.4892 -15.3899
v -0.9922 -25.3801 -15.6986
v 1.0126 -25.0340 -16.6391
v -4.2060 -23.3770 -14.2925
v -1.2305 -23.6445 -14.6812
v 1.0126 -25.0104 -16.6391
v -7.9912 -18.0733 -15.6262
v -5.9282 -19.2538 -14.4343
v -1.6135 -19.0245 -14.6464
v -7.6095 -14.9319 -14.3393
v -6.3401 -14.9319 -14.3393
v -0.8133 -15.0245 -14.6464
v -7.4022 -11.0245 -13.3445
v -6.0876 -11.0245 -15.3445
v -0.9539 -11.0245 -14.6464
v 8.0892 -9.6720 -13.5728
v 11.1480 -10.1435 -14.8022
v 15.2516 -10.4512 -14.4094
v 18.1167 -10.1849 -15.5848
v 23.9543 -9.4893 -15.9172
v 25.5344 -9.4893 -15.9172
v -11.4157 -5.3413 -16.2653
v -8.2684 -7.0160 -14.8229
v -5.6500 -7.2238 -14.5937
v -1.8755 -7.1055 -14.4970
v 4.1822 -5.7042 -14.6464
v 6.8566 -7.5606 -14.8022
v 9.9081 -8.3451 -16.2394
v 16.7474 -8.5017 -12.9181
v 19.2732 -7.8547 -14.4094
v 22.7757 -7.7945 -14.6089
v 26.9616 -6.9107 -14.6543
v 29.3270 -5.4200 -16.0581
v -11.4157 -4.1850 -16.2653
v -9.0876 -2.9208 -15.4449
v -5.3392 -3.1381 -13.5241
v -0.7520 -3.2814 -14.4970
v 2.1822 -3.2037 -14.6464
v 27.7243 -2.8816 -14.6934
v 29.3270 -4.1196 -16.0581
v -7.7135 0.9755 -14.8101
v -6.9006 0.9755 -12.8101
v 0.0335 1.7092 -15.8366
v 1.7914 1.7092 -15.8366
v 12.2065 2.7194 -16.2962
v 15.0078 1.9402 -15.9824
v 18.9341 1.0770 -14.7254
v 23.0078 -0.2265 -14.6464
v 25.8676 -0.6967 -14.6464
v -7.1281 3.2005 -15.4209
v -5.1048 4.5325 -14.1536
v -1.1767 4.7089 -15.2089
v 2.1789 4.9755 -15.6696
v 8.2414 5.8866 -15.5477
v 10.8236 4.8853 -14.5886
v 15.0078 4.2173 -13.9824
v 17.5517 3.7228 -13.4447
v -3.2513 7.2449 -12.8863
v -0.6802 9.0028 -14.5200
v 1.7857 8.0940 -16.1538
v 8.2911 8.9755 -15.6549
v 10.8676 9.1389 -13.4991
v 13.0658 10.5812 -12.7229
v 0.3752 12.9065 -14.8387
v 3.0078 13.9266 -15.5456
v 7.2943 13.0053 -15.3134
v 11.1410 12.8066 -13.6322
v 13.0658 11.3606 -12.7229
v 0.6627 15.3185 -13.6336
v 3.0078 15.2934 -13.5456
v 7.0078 15.2390 -13.1475
v 9.8965 15.2460 -13.1028
v -31.2084 -21.1776 -9.0875
v -30.4679 -21.1776 -9.0875
v -3.8639 -22.2787 -11.3555
v -2.3581 -22.2787 -11.3555
v -35.3537 -17.3236 -8.8970
v -32.7219 -18.8040 -9.3092
v -30.2399 -19.0245 -9.2869
v -4.2237 -19.0245 -11.3562
v -1.9224 -19.0245 -11.3562
v -35.4173 -15.0245 -8.9866
v -33.0395 -14.9455 -9.1664
v -30.5133 -16.2262 -9.0593
v -7.2278 -13.6564 -12.3213
v -5.0544 -15.0037 -12.0761
v -1.7019 -15.0245 -12.1773
v -35.1975 -12.5451 -8.8494
v -34.4044 -12.5451 -8.8494
v -7.4022 -11.0245 -11.7777
v -4.9922 -11.0245 -11.5026
v -2.1441 -11.0245 -12.3712
v 8.0893 -9.6587 -10.6464
v 11.0078 -10.3537 -10.6464
v 15.2516 -9.6460 -10.6092
v 17.1929 -9.1336 -9.2510
v -7.3033 -8.7160 -11.8132
v -4.9922 -8.3943 -11.8935
v -2.7894 -8.4928 -12.4757
v 3.6950 -6.0937 -10.6464
v 6.0893 -8.0937 -10.6464
v 16.7474 -8.5017 -11.9177
v 18.7189 -7.4256 -10.6092
v 23.0078 -6.1931 -10.6464
v 25.9673 -5.7996 -10.6464
v -3.9952 -1.7220 -10.6464
v -0.9922 -2.5096 -10.6464
v 1.6950 -3.8121 -10.6464
v 24.4367 -1.4633 -9.0377
v 26.2393 -2.8878 -10.4812
v -5.4459 0.9755 -10.6464
v 20.2183 2.0906 -11.6782
v 22.8503 0.7256 -10.3580
v 25.7811 -0.6395 -11.7044
v -4.3082 5.3197 -10.3539
v -2.9262 6.8826 -8.8256
v 12.1075 6.5506 -12.2337
v 15.0078 6.2173 -11.6154
v 18.7170 4.8494 -10.3480
v 21.2640 3.3093 -9.0115
v -3.2513 7.2449 -11.4922
v -2.1573 8.7371 -10.3539
v 8.9726 10.9145 -8.6783
v 11.4791 9.3819 -10.6611
v 14.1755 8.9125 -10.8066
v 17.2157 7.1526 -9.0178
v -0.8449 12.9755 -10.6464
v 4.6331 14.6138 -9.4870
v 7.3867 13.1584 -9.6912
v 11.1410 12.8066 -11.4359
v 13.0658 11.3606 -12.3948
v 0.1609 15.5092 -10.6464
v 3.1830 15.4509 -10.7508
v 7.0078 15.2390 -11.9285
v 9.8965 15.2460 -12.1818
v -31.2084 -21.1776 -8.4440
v -30.4679 -21.1776 -8.4440
v -35.3294 -17.2896 -6.6464
v -32.7318 -18.5346 -6.6172
v -30.2399 -19.0245 -7.6025
v -35.8387 -15.0245 -6.6464
v -31.6631 -15.2092 -6.4252
v -29.6441 -15.3213 -6.3725
v -25.6666 -14.0143 -5.1163
v -35.6897 -11.1369 -6.7364
v -33.0395 -11.1369 -7.3405
v -28.9922 -11.0245 -5.9383
v -24.5968 -11.4179 -5.3669
v -22.6107 -10.3468 -5.1315
v 8.7018 -9.2227 -7.9586
v 11.0078 -9.3948 -7.4685
v 14.8847 -9.3560 -6.5168
v 17.3400 -9.2172 -6.6464
v -35.4757 -8.0619 -5.4631
v -32.9922 -8.1358 -5.4538
v -28.9922 -8.7153 -5.0257
v -24.9922 -8.6843 -5.1946
v -22.6107 -8.7608 -5.1315
v 3.6736 -5.9332 -6.6464
v 7.2242 -7.9690 -6.6337
v 11.0078 -8.6281 -5.4685
v 13.4693 -8.8000 -5.0970
v 19.3400 -7.4627 -6.6464
v 23.0078 -5.7347 -6.6464
v 25.4618 -5.2965 -6.6464
v -3.5177 -1.5666 -6.6464
v -0.9922 -3.0639 -6.6464
v 1.6736 -4.5218 -6.6464
v 20.7496 -1.4078 -4.9253
v 23.0652 -2.2863 -6.4138
v 25.4618 -4.3143 -6.6464
v -3.7935 1.2436 -6.3481
v -2.8595 2.7557 -4.8159
v 20.7496 -0.1353 -4.9253
v 21.6378 1.1090 -6.4138
v -3.6270 4.2159 -7.4825
v -2.6989 5.3197 -6.3481
v 19.4778 5.2648 -6.6464
v 21.2236 3.2648 -6.6464
v -1.8826 8.9755 -6.6464
v 8.9726 10.9145 -8.6251
v 11.0078 10.4824 -7.7415
v 14.7921 9.7181 -6.3352
v 17.4778 7.8511 -6.6464
v -1.2347 12.9755 -6.6464
v 4.4312 14.2596 -6.6464
v 7.3867 12.6114 -7.0336
v 11.2582 13.1841 -5.5753
v 13.2808 12.9755 -4.8234
v -0.0771 15.5613 -6.6464
v 2.4312 15.5613 -6.6464
v 12.7585 15.0146 -4.7343
v 13.0647 15.0146 -4.7343
v -35.0803 -17.0789 -4.5633
v -32.7281 -17.1307 -3.1218
v -28.9922 -17.3092 -1.9809
v -24.9922 -17.4279 -1.3369
v -22.5805 -17.3408 -0.8216
v -35.3450 -14.6466 -2.9965
v -32.7281 -16.2934 -3.1218
v -28.9922 -16.6427 -3.9809
v -24.5968 -15.2184 -3.5354
v -22.6147 -15.0245 -1.6985
v -35.5822 -11.3743 -2.5585
v -34.2790 -10.2742 -1.1666
v -23.0000 -13.0135 -4.5407
v -22.4125 -11.4179 -2.9830
v 4.5550 -9.2235 -1.0853
v 5.6010 -9.2235 -1.0853
v 16.1360 -9.1724 -4.2484
v 17.2656 -9.1724 -4.2484
v -35.4757 -8.0619 -3.8333
v -32.9643 -7.5781 -2.5585
v -28.9922 -7.0431 -2.6464
v -24.9922 -7.5983 -2.6464
v -22.3363 -8.4937 -2.6464
v -7.0361 -5.2884 -0.8074
v -4.9922 -5.5814 -1.2371
v -0.9922 -5.4785 -1.2655
v 3.0387 -6.7388 -2.2986
v 6.9637 -7.9769 -2.5098
v 11.0078 -7.8940 -2.6464
v 14.8847 -8.3473 -2.8076
v 19.0186 -6.7904 -2.7171
v 23.0078 -5.2046 -4.0288
v 25.0483 -5.0639 -4.6168
v -7.0361 -4.2438 -0.8074
v -5.2564 -2.9585 -2.3735
v -0.9922 -4.2393 -3.2655
v 1.5224 -4.6621 -3.5120
v 20.5808 -2.8545 -2.5701
v 23.0078 -4.2727 -4.0288
v 25.0483 -4.9721 -4.6168
v -4.4427 1.2436 -2.8774
v -2.8595 2.7557 -4.3647
v 20.3728 1.1090 -2.9930
v 21.0394 2.5314 -4.5574
v -4.0676 4.9755 -2.1712
v -2.6750 4.9755 -4.1712
v 19.3185 4.6066 -2.9930
v 21.0394 3.0273 -4.5574
v -3.8703 7.9111 -1.6278
v -2.3456 9.1368 -2.8352
v 15.9816 10.6325 -4.2892
v 17.4541 9.1697 -2.8321
v -0.9938 12.9755 -2.6464
v 4.6138 14.3827 -3.7263
v 7.0078 14.2917 -3.6712
v 10.0918 14.6565 -4.2662
v 15.1455 13.3040 -2.8321
v 17.3175 12.1898 -1.6225
v 0.4157 15.4409 -2.6464
v 3.3166 16.6191 -2.2737
v 7.0078 16.9755 -1.8668
v 10.9390 16.3438 -2.4993
v 13.4496 15.0280 -2.6464
v 4.6861 19.4390 -0.8211
v 7.0078 19.4574 -0.8420
v 9.1195 19.1545 -0.7325
v -31.2010 -17.1826 -0.4470
v -28.9922 -17.3092 -0.1203
v -24.9049 -17.5751 1.2548
v -22.4366 -17.5466 1.3536
v -35.0184 -13.0612 -0.6086
v -32.6454 -14.5799 0.8055
v -28.9922 -15.8033 1.8797
v -26.1800 -16.3223 2.5223
v -20.8927 -14.9246 1.3688
v -18.5177 -13.5247 2.7123
v -35.0184 -12.9409 -0.6086
v -32.8511 -11.2118 1.1071
v -30.6815 -9.4828 2.8228
v -20.5537 -11.0245 0.4505
v -17.1075 -10.6933 2.5888
v -14.7783 -9.1391 3.2831
v 4.2459 -9.3111 1.3536
v 5.7895 -9.3111 1.3536
v -31.6124 -7.7988 0.1561
v -29.4179 -6.5764 1.2804
v -24.9922 -5.9386 0.4290
v -21.0170 -6.9559 1.5969
v -16.9922 -8.1650 2.8786
v -14.7783 -8.9050 3.2831
v -7.1262 -5.3220 1.3536
v -4.9922 -6.0616 1.3536
v -0.9922 -6.3960 1.3536
v 2.2459 -7.6563 1.3536
v 7.7895 -7.8092 1.3536
v 11.0603 -6.3112 1.5186
v 15.0078 -6.3464 0.5490
v 18.1048 -5.6887 0.0058
v -28.1543 -4.3779 2.4048
v -24.9922 -4.2897 2.4290
v -22.2016 -4.6914 3.0697
v -7.1921 -2.9561 1.1368
v -6.9122 -1.5771 -0.3411
v 12.4286 -4.5144 2.9619
v 15.3489 -3.1185 2.6773
v 18.6677 -3.0245 0.8020
v -7.6805 0.9755 1.8991
v -6.3490 0.9755 -0.1009
v 16.9097 -0.9676 3.2993
v 18.5784 0.6096 1.7210
v -7.7519 4.9755 2.0978
v -6.0676 4.9755 0.0978
v 18.4701 4.9755 1.3536
v -7.2419 7.4873 2.5904
v -5.1801 9.0325 1.0970
v -2.7012 10.5777 -0.3964
v 17.7407 8.9755 1.3536
v -3.8232 12.0425 2.2703
v -1.9029 13.2157 1.1036
v 12.9460 14.8930 2.6220
v 14.6654 14.8747 1.0584
v 17.6288 13.3040 1.0383
v 0.1512 15.8623 1.3536
v 2.0857 17.8623 1.3536
v 12.0077 16.5940 1.3146
v 14.6654 15.1489 1.0584
v 17.5140 15.2914 2.1614
v 4.0857 20.0365 1.3536
v 7.0078 21.0339 1.3536
v 9.8040 19.9728 1.3536
v 4.6944 26.3138 3.2160
v 5.2444 26.3138 3.2160
v 4.6944 27.3317 3.2160
v 5.2444 27.3317 3.2160
v -23.5133 -17.4043 3.8661
v -22.6631 -17.4043 3.8661
v -31.4232 -13.4318 4.0105
v -28.9922 -13.8033 4.5429
v -25.0856 -15.0282 5.4076
v -21.1947 -15.4933 5.2611
v -18.0117 -13.5783 5.3536
v -31.4232 -12.1494 4.0105
v -29.0170 -10.9867 5.4798
v -26.6578 -12.4907 6.9491
v -16.0117 -11.8128 5.3536
v -13.2639 -9.8863 5.3359
v -10.3254 -9.4098 6.6573
v 0.7143 -9.1638 6.8637
v 3.0700 -9.3185 5.4597
v 5.5308 -9.2875 5.3536
v -28.9580 -7.0245 5.3536
v -19.5349 -5.3313 3.6608
v -16.7342 -6.1126 5.1379
v -13.3945 -7.1112 5.4194
v -8.7262 -6.8198 5.4194
v -4.9922 -6.4954 5.3536
v -0.7683 -7.6763 5.4597
v 1.7781 -8.4069 4.1970
v 7.1060 -6.8985 5.5279
v 9.7620 -5.4811 4.3108
v -27.9208 -4.4555 5.3536
v -24.9922 -3.6778 5.3536
v -20.9178 -4.0087 5.1379
v -17.8956 -4.3685 6.3274
v -12.0108 -4.5960 6.8481
v -9.1634 -3.1674 5.4503
v 0.9669 -1.1154 7.3247
v 3.0078 -1.9630 7.2110
v 6.4678 -3.5263 7.0849
v 11.0603 -4.1387 5.5279
v 14.5714 -2.0349 5.3536
v -7.9405 1.3625 5.7408
v -6.9619 2.9539 7.3323
v 0.9669 -0.9901 7.3247
v 3.0078 -0.8902 7.2110
v 5.1281 -0.8799 7.1924
v 16.5714 -0.5126 5.3536
v 17.8286 1.4874 5.3536
v -7.6786 4.6422 5.7408
v -6.9619 3.0867 7.3323
v 16.9153 6.8331 7.2333
v 17.9242 5.2901 5.6814
v -7.2947 8.8825 5.5423
v -6.4898 10.1539 4.3347
v 16.9153 7.1202 7.2333
v 17.9163 8.6623 5.6814
v -7.1157 11.1776 7.0014
v -4.9621 12.9434 5.3727
v -2.6741 14.7092 3.7440
v 12.9460 14.8930 3.4208
v 13.1242 14.8930 3.4208
v 18.7453 12.9755 5.3536
v -3.4344 15.5796 6.4107
v -1.2013 16.4141 5.1879
v 1.8922 18.3207 5.3536
v 12.6739 16.9755 3.8670
v 14.6060 16.7642 5.0292
v 17.9344 15.6585 5.3536
v 3.9762 21.1462 5.2846
v 7.0078 22.5519 4.2652
v 11.1778 21.2659 4.8577
v 13.3384 20.9755 6.7358
v 4.7351 25.2302 5.5187
v 6.2521 24.9700 5.4939
v 11.0078 23.1027 6.7708
v 13.0353 23.0008 7.2459
v 4.6944 27.3317 4.4655
v 5.2444 27.3317 4.4655
v -23.9912 -13.7341 7.9395
v -20.7149 -13.6648 9.3052
v -16.8925 -13.4956 9.2031
v -14.2750 -13.4521 10.4361
v -27.4765 -9.8549 9.3536
v -25.1916 -11.4824 9.3052
v -21.8634 -12.0137 10.6062
v -15.4927 -12.6277 7.7694
v -12.9619 -11.8973 9.2031
v -10.0650 -9.9131 9.3536
v 0.7256 -9.1518 9.3536
v 2.6627 -9.2268 9.1918
v 5.2561 -9.1919 7.7505
v -27.4252 -7.1479 9.0598
v -25.8651 -5.8968 10.1972
v -15.2289 -5.3175 7.5988
v -14.6774 -5.3175 7.5988
v -8.0650 -7.9112 9.3536
v -4.9922 -6.7637 9.3536
v -1.2744 -7.8770 9.3536
v 3.3254 -7.0245 9.6653
v 5.2938 -7.0245 7.6653
v -27.0681 -4.9124 7.5306
v -24.7160 -4.4672 9.0598
v -20.9922 -3.3155 9.3536
v -16.7342 -3.6309 9.1007
v -13.1679 -3.0465 9.3012
v -10.3216 -1.9293 8.3369
v 0.9669 -1.1154 7.3832
v 3.0388 -2.9835 8.7110
v 6.4678 -3.5263 7.8172
v 11.0078 -2.2999 8.9350
v 13.8574 -1.5485 8.5536
v -11.6583 -0.3096 11.0036
v -9.1307 1.3221 9.1926
v -6.9619 2.9539 7.3817
v 0.9669 -0.9901 7.3832
v 3.2459 -0.6079 8.9713
v 6.8094 0.6388 9.6444
v 11.0135 0.7544 10.8225
v 14.9768 0.7708 9.5774
v 17.3511 2.2678 7.9345
v -7.8070 4.6422 8.9704
v -6.9619 3.0867 7.3817
v 8.4906 3.6754 11.0266
v 9.6839 3.6754 11.0266
v 16.5058 5.2983 9.0558
v 18.2978 5.2462 9.0555
v 21.7402 6.2948 10.5870
v -7.5096 8.9755 9.3536
v 16.9153 7.1202 7.5105
v 19.1250 8.6623 7.9527
v 21.9652 8.9755 9.9849
v -7.2018 11.3031 9.3536
v -5.5317 13.3031 9.3536
v 19.9816 13.2226 9.1186
v 21.5520 12.0540 10.2953
v -3.5317 15.6767 9.3536
v -0.6232 17.6280 9.7064
v 1.7614 18.4613 8.6082
v 12.4399 17.8028 10.4990
v 14.8558 17.1437 9.2408
v 18.0785 15.5653 9.3536
v 0.9562 19.0001 11.2749
v 3.2686 20.5642 9.4495
v 7.0078 22.1849 9.9924
v 11.0671 21.2513 9.6154
v 13.3384 20.9755 7.7449
v 4.7759 24.1467 7.6241
v 7.0078 23.9621 7.9924
v 11.0078 23.1027 7.8218
v 13.0353 23.0008 7.3966
v -19.1968 -13.1439 11.5260
v -16.9922 -13.4347 11.7705
v -14.2750 -13.4521 11.7371
v -27.2775 -9.3322 11.5089
v -24.7202 -9.5902 13.0468
v -20.7149 -11.4404 13.0570
v -16.9922 -11.9122 13.7705
v -12.9619 -11.6556 13.1837
v -9.7672 -9.9692 13.3536
v 0.9251 -9.0550 11.3846
v 1.0993 -9.0550 11.3846
v -27.2775 -8.5634 11.5089
v -24.5353 -7.3115 12.8076
v -20.9922 -6.1161 14.0346
v -18.4720 -5.4448 14.8422
v -7.7672 -8.1473 13.3536
v -4.9922 -6.9294 13.3536
v -0.8987 -6.8793 12.8313
v 1.3254 -7.0245 11.5701
v -23.1985 -4.9116 11.4397
v -20.9922 -4.3354 12.0346
v -17.0800 -3.5838 13.4468
v -13.8015 -1.8280 13.3536
v -0.0261 -3.0245 14.3609
v 2.0543 -3.0245 12.3609
v -11.6834 1.0044 13.5337
v -10.6065 2.3570 12.3204
v 0.6963 0.9755 15.0515
v 3.0190 1.1178 13.8189
v 5.7571 2.1890 13.3536
v 12.3506 1.9403 11.5970
v 13.4295 1.9403 11.5970
v -11.0652 3.0557 14.9870
v -8.9390 4.8708 13.6283
v -6.7380 6.6859 14.9361
v 0.9074 3.0878 15.1988
v 1.3001 3.0878 15.1988
v 7.7571 4.4806 13.3536
v 10.6999 5.3122 13.1119
v 14.8609 5.0483 12.0130
v 19.0078 6.0560 11.9094
v 21.7402 6.2948 11.8454
v -7.3186 8.9755 12.5574
v -6.5437 8.9755 14.5574
v 11.5899 8.9755 14.5613
v 15.0078 8.9755 13.0825
v 19.0078 8.9755 12.6903
v 21.9652 8.9755 12.1692
v -7.1482 11.2101 12.0428
v -4.9588 12.7967 13.2740
v -2.0977 14.3833 14.5052
v 12.4091 11.2632 15.0241
v 15.0296 12.7481 14.0166
v 19.0268 13.2226 12.1717
v 21.5520 12.0540 11.9493
v -3.2693 15.3063 11.8386
v -0.5708 16.5757 12.9460
v 3.0078 17.7373 13.9229
v 7.0078 18.0653 14.4096
v 11.0671 17.4643 13.3629
v 15.0296 15.5952 13.1469
v 17.7061 15.1671 11.6758
v 0.9562 19.0001 11.3868
v 3.0078 19.3585 11.9229
v 7.0078 20.1849 12.4096
v 9.7732 20.1019 12.0357
v -11.0829 -13.0759 19.2574
v -10.8550 -13.0759 19.2574
v -23.2055 -9.3371 16.0739
v -20.9922 -9.8025 16.5146
v -16.9922 -9.9122 16.6052
v -12.7956 -10.8173 17.7261
v -9.0584 -10.8163 17.4882
v -4.9922 -9.4229 18.5350
v -2.9458 -9.0990 19.2300
v -23.2055 -8.7263 16.0739
v -20.9922 -8.1161 16.5146
v -17.0800 -6.8767 17.0726
v -14.5265 -7.0245 18.8817
v -7.2617 -8.7970 15.7191
v -4.3314 -7.3096 17.4403
v -2.8341 -7.1375 17.6054
v -15.8053 -4.2900 16.5499
v -13.9054 -2.9838 17.6714
v -3.5132 -3.0245 18.6430
v -2.0261 -3.0245 16.6430
v -11.6314 0.8807 17.0359
v -8.9922 1.9273 17.9731
v -4.7340 1.0316 18.7681
v -1.3037 0.9755 17.1051
v 3.9667 2.7448 15.5901
v 5.1907 2.7448 15.5901
v -11.0652 3.0557 15.4907
v -8.9922 3.8184 15.9731
v -5.2719 4.8915 17.6530
v -0.6524 3.7693 17.6996
v 2.7832 4.3123 17.0955
v 6.5863 5.4755 16.8231
v 9.0493 6.9490 15.3894
v -4.7216 9.2490 17.6490
v -2.8308 10.7647 19.1792
v 7.9819 7.7626 18.0561
v 9.8570 9.0477 16.9751
v -3.9817 11.7167 16.5125
v -1.8630 13.0202 17.6490
v 8.5018 14.5543 18.9234
v 11.0281 12.9087 17.4783
v 13.7108 13.9298 16.0332
v 0.2983 15.7517 17.3536
v 2.8645 17.6842 17.4132
v 6.9527 17.0354 17.5215
v 11.0078 15.9661 16.5407
v 13.7108 15.6560 16.0332
v 4.1022 19.3666 18.7863
v 5.4035 19.3666 18.7863
v -11.0829 -13.0759 20.1914
v -10.8550 -13.0759 20.1914
v -11.6973 -11.0245 20.4763
v -9.3099 -10.8986 20.9521
v -4.9922 -9.4229 20.4022
v -2.9458 -9.0990 19.5845
v -12.3373 -6.8266 21.3491
v -9.1098 -6.8266 22.5685
v -4.8671 -7.2986 20.7116
v -2.9458 -8.8146 19.5845
v -12.6436 -3.0245 21.3536
v -7.8548 -4.5476 22.8855
v -5.4517 -3.1384 21.4727
v -11.5992 -0.4612 21.3536
v -8.6284 1.4823 21.6735
v -5.9313 1.0316 21.6735
v -7.0525 3.0341 23.2202
v -5.3612 4.3989 21.5058
v -0.9922 5.8835 19.8663
v 3.0078 6.5622 19.7334
v 5.3152 6.6687 19.6143
v -3.8058 8.0980 19.7914
v -1.2954 9.2490 20.2153
v 3.3885 9.3664 21.7091
v 6.5108 9.3615 21.1821
v 9.6471 10.4293 20.0832
v -0.2516 12.9755 20.2506
v 3.3885 12.6958 22.3660
v 6.7707 12.8652 21.6307
v 9.6471 11.8876 20.0832
v 0.5006 15.8076 19.7969
v 2.8645 17.0748 20.6755
v 5.9251 16.9755 20.6736
v 4.1022 19.3666 19.9556
v 5.4035 19.3666 19.9556
v -11.1883 -5.3613 23.4747
v -10.5215 -5.3613 23.4747
v -11.3117 -3.0245 23.5859
v -9.1098 -3.1384 23.8135
v -6.3967 -1.8809 23.8105
v -11.2221 -0.7823 23.5422
v -8.6284 0.7208 23.7832
v -6.4888 0.9755 23.7491
v -7.0525 3.0341 23.4240
v -6.9165 3.0341 23.4240
v 4.9755 10.9604 23.3627
v 5.0397 10.9604 23.3627
v 4.9755 11.1761 23.3627
v 5.0397 11.1761 23.3627
f 5 2 1
f 5 6 2
f 7 4 3
f 7 8 4
f 12 9 8
f 12 13 9
f 14 11 10
f 14 15 11
f 20 16 19
f 20 17 16
f 21 17 20
f 21 18 17
f 24 19 23
f 24 20 19
f 25 23 22
f 25 26 23
f 26 24 23
f 26 27 24
f 2 28 1
f 2 29 28
f 28 27 26
f 28 29 27
f 4 30 3
f 4 31 30
f 28 5 1
f 28 37 5
f 38 29 2
f 38 2 6
f 38 6 5
f 38 5 37
f 30 7 3
f 30 41 7
f 42 31 4
f 42 4 8
f 42 8 7
f 42 7 41
f 9 42 8
f 9 43 42
f 42 32 31
f 42 43 32
f 44 34 33
f 44 45 34
f 47 36 35
f 47 48 36
f 49 36 48
f 49 37 36
f 11 49 10
f 11 50 49
f 49 38 37
f 49 50 38
f 52 39 51
f 52 40 39
f 53 40 52
f 53 41 40
f 42 12 8
f 42 54 12
f 54 41 53
f 54 42 41
f 55 43 9
f 55 9 13
f 13 12 54
f 13 54 55
f 56 43 55
f 56 44 43
f 56 45 44
f 56 57 45
f 57 46 45
f 57 58 46
f 49 14 10
f 49 60 14
f 59 49 48
f 59 60 49
f 50 11 15
f 50 15 61
f 15 14 60
f 15 60 61
f 62 50 61
f 62 51 50
f 63 51 62
f 63 52 51
f 63 53 52
f 63 64 53
f 65 53 64
f 65 54 53
f 66 54 65
f 66 55 54
f 66 56 55
f 66 67 56
f 68 56 67
f 68 57 56
f 70 59 69
f 70 60 59
f 71 60 70
f 71 61 60
f 72 63 62
f 72 73 63
f 74 63 73
f 74 64 63
f 77 72 76
f 77 73 72
f 79 75 78
f 79 76 75
f 80 76 79
f 80 77 76
f 82 16 17
f 82 81 16
f 83 17 18
f 83 82 17
f 81 19 16
f 81 84 19
f 85 84 81
f 85 81 82
f 83 18 21
f 83 21 86
f 86 21 20
f 86 20 85
f 86 85 82
f 86 82 83
f 84 23 19
f 84 88 23
f 23 87 22
f 23 88 87
f 89 85 20
f 89 20 24
f 87 25 22
f 87 90 25
f 91 26 25
f 91 25 90
f 91 90 87
f 91 87 88
f 89 24 27
f 89 27 92
f 94 26 91
f 94 28 26
f 93 91 90
f 93 94 91
f 95 92 27
f 95 27 29
f 98 30 31
f 98 97 30
f 32 98 31
f 32 99 98
f 34 100 33
f 34 101 100
f 36 102 35
f 36 103 102
f 94 37 28
f 94 104 37
f 104 36 37
f 104 103 36
f 104 93 103
f 104 94 93
f 105 95 29
f 105 29 38
f 40 106 39
f 40 107 106
f 108 30 97
f 108 41 30
f 108 40 41
f 108 107 40
f 108 96 107
f 108 97 96
f 110 99 32
f 110 32 43
f 109 98 99
f 109 99 110
f 100 44 33
f 100 111 44
f 44 110 43
f 44 111 110
f 101 34 45
f 101 45 112
f 111 100 101
f 111 101 112
f 113 45 46
f 113 112 45
f 102 47 35
f 102 114 47
f 48 47 114
f 48 114 115
f 115 114 102
f 115 102 103
f 116 115 103
f 116 103 104
f 105 38 50
f 105 50 117
f 116 104 105
f 116 105 117
f 118 39 106
f 118 51 39
f 51 117 50
f 51 118 117
f 113 46 58
f 113 58 120
f 120 58 57
f 120 57 119
f 119 112 113
f 119 113 120
f 115 59 48
f 115 121 59
f 121 115 116
f 121 116 122
f 62 61 123
f 62 123 124
f 65 64 125
f 65 125 126
f 66 65 126
f 66 126 127
f 128 67 66
f 128 66 127
f 119 57 68
f 119 68 129
f 68 67 128
f 68 128 129
f 130 59 121
f 130 69 59
f 70 69 130
f 70 130 131
f 130 121 122
f 130 122 131
f 123 61 71
f 123 71 132
f 71 70 131
f 71 131 132
f 124 72 62
f 124 133 72
f 133 123 132
f 133 124 123
f 125 64 74
f 125 74 135
f 74 73 134
f 74 134 135
f 136 125 135
f 136 126 125
f 137 126 136
f 137 127 126
f 138 132 131
f 138 139 132
f 140 72 133
f 140 76 72
f 140 75 76
f 140 139 75
f 140 132 139
f 140 133 132
f 134 73 77
f 134 77 141
f 142 134 141
f 142 135 134
f 144 75 139
f 144 78 75
f 145 79 78
f 145 78 144
f 141 77 80
f 141 80 146
f 80 79 145
f 80 145 146
f 147 141 146
f 147 142 141
f 147 143 142
f 147 148 143
f 149 145 144
f 149 150 145
f 151 145 150
f 151 146 145
f 152 146 151
f 152 147 146
f 156 84 85
f 156 155 84
f 159 153 158
f 159 154 153
f 155 88 84
f 155 160 88
f 156 85 89
f 156 89 161
f 160 155 156
f 160 156 161
f 163 157 162
f 163 158 157
f 164 158 163
f 164 159 158
f 166 88 160
f 166 91 88
f 91 165 90
f 91 166 165
f 167 161 89
f 167 89 92
f 167 166 160
f 167 160 161
f 169 162 168
f 169 163 162
f 165 93 90
f 165 170 93
f 171 170 165
f 171 165 166
f 167 92 95
f 167 95 172
f 172 171 166
f 172 166 167
f 174 96 97
f 174 173 96
f 98 174 97
f 98 175 174
f 177 93 170
f 177 103 93
f 104 103 177
f 104 177 178
f 177 170 171
f 177 171 178
f 179 172 95
f 179 95 105
f 179 105 104
f 179 104 178
f 179 178 171
f 179 171 172
f 181 96 173
f 181 107 96
f 181 106 107
f 181 180 106
f 175 98 109
f 175 109 182
f 183 109 110
f 183 182 109
f 182 176 175
f 182 183 176
f 184 110 111
f 184 183 110
f 185 111 112
f 185 184 111
f 187 116 117
f 187 186 116
f 188 106 180
f 188 118 106
f 188 117 118
f 188 187 117
f 185 112 119
f 185 119 190
f 186 122 116
f 186 191 122
f 128 127 192
f 128 192 193
f 194 190 119
f 194 119 129
f 194 129 128
f 194 128 193
f 194 193 189
f 194 189 190
f 191 131 122
f 191 195 131
f 136 135 197
f 136 197 198
f 192 127 137
f 192 137 199
f 137 136 198
f 137 198 199
f 200 192 199
f 200 193 192
f 195 138 131
f 195 201 138
f 202 139 138
f 202 138 201
f 201 195 196
f 201 196 202
f 197 135 142
f 197 142 204
f 143 204 142
f 143 205 204
f 205 197 204
f 205 198 197
f 206 198 205
f 206 199 198
f 207 139 202
f 207 144 139
f 210 209 203
f 210 203 204
f 211 205 143
f 211 143 148
f 211 148 147
f 211 147 210
f 211 210 204
f 211 204 205
f 207 149 144
f 207 212 149
f 213 150 149
f 213 149 212
f 214 151 150
f 214 150 213
f 214 213 208
f 214 208 209
f 215 210 147
f 215 147 152
f 215 152 151
f 215 151 214
f 215 214 209
f 215 209 210
f 154 216 153
f 154 217 216
f 216 158 153
f 216 219 158
f 219 157 158
f 219 218 157
f 217 154 159
f 217 159 220
f 220 219 216
f 220 216 217
f 221 157 218
f 221 162 157
f 220 159 164
f 220 164 223
f 164 163 222
f 164 222 223
f 222 219 220
f 222 220 223
f 221 168 162
f 221 225 168
f 226 222 163
f 226 163 169
f 169 168 225
f 169 225 226
f 227 222 226
f 227 223 222
f 227 224 223
f 227 228 224
f 174 230 173
f 174 231 230
f 175 231 174
f 175 232 231
f 176 232 175
f 176 233 232
f 235 225 234
f 235 226 225
f 235 227 226
f 235 236 227
f 237 227 236
f 237 228 227
f 237 229 228
f 237 238 229
f 230 181 173
f 230 240 181
f 181 239 180
f 181 240 239
f 241 240 230
f 241 230 231
f 242 241 231
f 242 231 232
f 243 233 176
f 243 176 183
f 184 243 183
f 184 244 243
f 245 184 185
f 245 244 184
f 187 246 186
f 187 247 246
f 248 180 239
f 248 188 180
f 188 247 187
f 188 248 247
f 251 245 185
f 251 185 190
f 251 190 189
f 251 189 250
f 246 191 186
f 246 252 191
f 255 250 189
f 255 189 193
f 255 254 249
f 255 249 250
f 256 191 252
f 256 195 191
f 196 195 256
f 196 256 257
f 256 252 253
f 256 253 257
f 255 193 200
f 255 200 259
f 200 199 258
f 200 258 259
f 260 196 257
f 260 202 196
f 262 204 203
f 262 203 261
f 205 204 262
f 205 262 263
f 258 199 206
f 258 206 264
f 206 205 263
f 206 263 264
f 265 202 260
f 265 207 202
f 267 261 203
f 267 203 209
f 267 209 208
f 267 208 266
f 267 262 261
f 267 268 262
f 269 262 268
f 269 263 262
f 270 207 265
f 270 212 207
f 271 266 208
f 271 208 213
f 271 213 212
f 271 212 270
f 272 269 268
f 272 273 269
f 219 274 218
f 219 275 274
f 274 221 218
f 274 279 221
f 275 219 222
f 275 222 280
f 280 279 274
f 280 274 275
f 281 222 223
f 281 280 222
f 281 275 280
f 281 276 275
f 224 281 223
f 224 282 281
f 281 277 276
f 281 282 277
f 283 277 282
f 283 278 277
f 279 225 221
f 279 284 225
f 286 282 224
f 286 224 228
f 229 286 228
f 229 287 286
f 286 283 282
f 286 287 283
f 233 290 232
f 233 291 290
f 292 225 284
f 292 234 225
f 235 234 292
f 235 292 293
f 292 284 285
f 292 285 293
f 236 235 293
f 236 293 294
f 295 237 236
f 295 236 294
f 296 287 229
f 296 229 238
f 238 237 295
f 238 295 296
f 301 239 240
f 301 300 239
f 301 288 300
f 301 289 288
f 241 301 240
f 241 302 301
f 290 242 232
f 290 303 242
f 242 302 241
f 242 303 302
f 291 233 243
f 291 243 304
f 303 290 291
f 303 291 304
f 305 243 244
f 305 304 243
f 306 244 245
f 306 305 244
f 307 298 297
f 307 308 298
f 309 246 247
f 309 308 246
f 309 298 308
f 309 299 298
f 310 239 300
f 310 248 239
f 248 309 247
f 248 310 309
f 310 299 309
f 310 300 299
f 312 250 249
f 312 249 311
f 311 304 305
f 311 305 312
f 313 306 245
f 313 245 251
f 251 250 312
f 251 312 313
f 313 312 305
f 313 305 306
f 314 246 308
f 314 252 246
f 315 253 252
f 315 252 314
f 316 311 249
f 316 249 254
f 317 254 255
f 317 316 254
f 319 253 315
f 319 257 253
f 318 315 314
f 318 319 315
f 317 255 259
f 317 259 321
f 321 259 258
f 321 258 320
f 321 320 316
f 321 316 317
f 319 260 257
f 319 323 260
f 322 319 318
f 322 323 319
f 320 258 264
f 320 264 325
f 264 263 324
f 264 324 325
f 323 265 260
f 323 326 265
f 328 267 266
f 328 266 327
f 329 268 267
f 329 267 328
f 324 263 269
f 324 269 330
f 331 324 330
f 331 325 324
f 326 270 265
f 326 332 270
f 327 266 271
f 327 271 333
f 271 270 332
f 271 332 333
f 334 327 333
f 334 328 327
f 329 272 268
f 329 335 272
f 334 329 328
f 334 335 329
f 336 330 269
f 336 269 273
f 336 273 272
f 336 272 335
f 337 334 333
f 337 338 334
f 339 334 338
f 339 335 334
f 276 340 275
f 276 341 340
f 277 341 276
f 277 342 341
f 278 342 277
f 278 343 342
f 340 280 275
f 340 345 280
f 345 279 280
f 345 344 279
f 346 345 340
f 346 340 341
f 347 346 341
f 347 341 342
f 348 343 278
f 348 278 283
f 344 284 279
f 344 350 284
f 285 284 350
f 285 350 351
f 350 344 345
f 350 345 351
f 353 348 283
f 353 283 287
f 353 349 348
f 353 354 349
f 357 288 289
f 357 356 288
f 358 285 351
f 358 293 285
f 294 293 358
f 294 358 359
f 358 351 352
f 358 352 359
f 360 295 294
f 360 294 359
f 353 287 296
f 353 296 361
f 296 295 360
f 296 360 361
f 362 353 361
f 362 354 353
f 362 355 354
f 362 363 355
f 365 297 298
f 365 364 297
f 299 365 298
f 299 366 365
f 367 288 356
f 367 300 288
f 367 299 300
f 367 366 299
f 368 357 289
f 368 289 301
f 302 368 301
f 302 369 368
f 370 302 303
f 370 369 302
f 371 303 304
f 371 370 303
f 372 360 359
f 372 373 360
f 374 360 373
f 374 361 360
f 364 307 297
f 364 375 307
f 376 308 307
f 376 307 375
f 377 369 370
f 377 370 378
f 371 304 311
f 371 311 379
f 378 370 371
f 378 371 379
f 376 314 308
f 376 381 314
f 380 376 375
f 380 381 376
f 379 311 316
f 379 316 383
f 382 378 379
f 382 379 383
f 385 314 381
f 385 318 314
f 385 380 384
f 385 381 380
f 386 383 316
f 386 316 320
f 385 322 318
f 385 388 322
f 387 385 384
f 387 388 385
f 389 323 322
f 389 322 388
f 386 320 325
f 386 325 390
f 389 326 323
f 389 392 326
f 391 389 388
f 391 392 389
f 390 325 331
f 390 331 395
f 395 331 330
f 395 330 394
f 392 332 326
f 392 396 332
f 333 332 396
f 333 396 397
f 394 330 336
f 394 336 399
f 336 335 398
f 336 398 399
f 399 398 393
f 399 393 394
f 400 394 399
f 400 395 394
f 397 337 333
f 397 401 337
f 402 338 337
f 402 337 401
f 398 335 339
f 398 339 403
f 339 338 402
f 339 402 403
f 406 405 404
f 406 407 405
f 343 408 342
f 343 409 408
f 346 410 345
f 346 411 410
f 408 347 342
f 408 412 347
f 347 411 346
f 347 412 411
f 409 343 348
f 409 348 413
f 413 412 408
f 413 408 409
f 349 413 348
f 349 414 413
f 410 351 345
f 410 415 351
f 352 351 415
f 352 415 416
f 415 410 411
f 415 411 416
f 417 416 411
f 417 411 412
f 418 414 349
f 418 349 354
f 355 418 354
f 355 419 418
f 423 356 357
f 423 422 356
f 424 352 416
f 424 359 352
f 362 361 425
f 362 425 426
f 419 355 363
f 419 363 427
f 363 362 426
f 363 426 427
f 427 420 419
f 427 428 420
f 429 364 365
f 429 428 364
f 366 429 365
f 366 430 429
f 431 356 422
f 431 367 356
f 431 366 367
f 431 430 366
f 431 421 430
f 431 422 421
f 423 357 368
f 423 368 432
f 433 368 369
f 433 432 368
f 424 372 359
f 424 434 372
f 373 372 434
f 373 434 435
f 425 361 374
f 425 374 436
f 374 373 435
f 374 435 436
f 437 425 436
f 437 426 425
f 439 364 428
f 439 375 364
f 438 428 427
f 438 439 428
f 433 369 377
f 433 377 443
f 442 432 433
f 442 433 443
f 444 377 378
f 444 443 377
f 439 380 375
f 439 445 380
f 448 447 440
f 448 440 441
f 449 448 441
f 449 441 442
f 444 378 382
f 444 382 450
f 451 382 383
f 451 450 382
f 445 384 380
f 445 452 384
f 452 445 446
f 452 446 453
f 451 383 386
f 451 386 455
f 452 387 384
f 452 456 387
f 457 388 387
f 457 387 456
f 455 386 390
f 455 390 459
f 459 458 454
f 459 454 455
f 457 391 388
f 457 461 391
f 460 457 456
f 460 461 457
f 462 392 391
f 462 391 461
f 464 394 393
f 464 393 463
f 465 459 390
f 465 390 395
f 462 396 392
f 462 467 396
f 466 462 461
f 466 467 462
f 468 397 396
f 468 396 467
f 469 463 393
f 469 393 398
f 464 399 394
f 464 470 399
f 469 464 463
f 469 470 464
f 465 395 400
f 465 400 471
f 400 399 470
f 400 470 471
f 468 401 397
f 468 472 401
f 473 402 401
f 473 401 472
f 469 398 403
f 469 403 474
f 403 402 473
f 403 473 474
f 475 469 474
f 475 470 469
f 405 476 404
f 405 477 476
f 476 473 472
f 476 477 473
f 478 473 477
f 478 474 473
f 478 475 474
f 478 479 475
f 480 404 476
f 480 406 404
f 481 477 405
f 481 405 407
f 407 406 480
f 407 480 481
f 481 480 476
f 481 476 477
f 413 482 412
f 413 483 482
f 414 483 413
f 414 484 483
f 482 417 412
f 482 487 417
f 417 486 416
f 417 487 486
f 488 487 482
f 488 482 483
f 489 484 414
f 489 414 418
f 419 489 418
f 419 490 489
f 489 485 484
f 489 490 485
f 420 490 419
f 420 491 490
f 493 421 422
f 493 492 421
f 494 422 423
f 494 493 422
f 486 424 416
f 486 495 424
f 498 427 426
f 498 426 497
f 499 491 420
f 499 420 428
f 429 499 428
f 429 500 499
f 501 421 492
f 501 430 421
f 501 429 430
f 501 500 429
f 503 494 423
f 503 423 432
f 502 493 494
f 502 494 503
f 504 424 495
f 504 434 424
f 435 434 504
f 435 504 505
f 504 495 496
f 504 496 505
f 436 435 505
f 436 505 506
f 497 426 437
f 497 437 507
f 437 436 506
f 437 506 507
f 498 438 427
f 498 508 438
f 507 498 497
f 507 508 498
f 509 439 438
f 509 438 508
f 441 440 510
f 441 510 511
f 503 432 442
f 503 442 512
f 442 441 511
f 442 511 512
f 511 502 503
f 511 503 512
f 513 442 443
f 513 512 442
f 514 443 444
f 514 513 443
f 509 445 439
f 509 516 445
f 515 509 508
f 515 516 509
f 517 446 445
f 517 445 516
f 510 440 447
f 510 447 518
f 448 518 447
f 448 519 518
f 519 510 518
f 519 511 510
f 512 449 442
f 512 520 449
f 449 519 448
f 449 520 519
f 520 512 513
f 520 513 521
f 514 444 450
f 514 450 522
f 521 513 514
f 521 514 522
f 523 450 451
f 523 522 450
f 517 453 446
f 517 525 453
f 525 452 453
f 525 524 452
f 524 517 516
f 524 525 517
f 526 520 521
f 526 521 527
f 523 451 455
f 523 455 529
f 529 455 454
f 529 454 528
f 528 522 523
f 528 523 529
f 524 456 452
f 524 531 456
f 532 528 454
f 532 454 458
f 459 532 458
f 459 533 532
f 532 529 528
f 532 533 529
f 533 530 529
f 533 534 530
f 531 460 456
f 531 535 460
f 536 461 460
f 536 460 535
f 533 459 465
f 533 465 537
f 537 534 533
f 537 538 534
f 536 466 461
f 536 539 466
f 540 467 466
f 540 466 539
f 541 468 467
f 541 467 540
f 544 537 465
f 544 465 471
f 471 470 543
f 471 543 544
f 541 472 468
f 541 546 472
f 545 541 540
f 545 546 541
f 543 470 475
f 543 475 549
f 549 548 542
f 549 542 543
f 550 472 546
f 550 476 472
f 477 476 550
f 477 550 551
f 550 546 547
f 550 547 551
f 478 477 551
f 478 551 552
f 552 551 547
f 552 547 548
f 549 475 479
f 549 479 553
f 479 478 552
f 479 552 553
f 552 548 549
f 552 549 553
f 484 554 483
f 484 555 554
f 485 555 484
f 485 556 555
f 487 557 486
f 487 558 557
f 554 488 483
f 554 559 488
f 488 558 487
f 488 559 558
f 560 559 554
f 560 554 555
f 556 485 490
f 556 490 561
f 560 555 556
f 560 556 561
f 491 561 490
f 491 562 561
f 564 492 493
f 564 563 492
f 565 486 557
f 565 495 486
f 496 495 565
f 496 565 566
f 565 557 558
f 565 558 566
f 562 491 499
f 562 499 569
f 500 569 499
f 500 570 569
f 563 501 492
f 563 571 501
f 571 500 501
f 571 570 500
f 564 493 502
f 564 502 572
f 572 571 563
f 572 563 564
f 573 496 566
f 573 505 496
f 506 505 573
f 506 573 574
f 573 566 567
f 573 567 574
f 507 506 574
f 507 574 575
f 574 567 568
f 574 568 575
f 576 508 507
f 576 507 575
f 578 572 502
f 578 502 511
f 578 577 571
f 578 571 572
f 576 515 508
f 576 579 515
f 580 516 515
f 580 515 579
f 578 511 519
f 578 519 582
f 581 577 578
f 581 578 582
f 520 582 519
f 520 583 582
f 585 521 522
f 585 584 521
f 580 524 516
f 580 587 524
f 586 580 579
f 586 587 580
f 590 589 581
f 590 581 582
f 583 520 526
f 583 526 591
f 584 527 521
f 584 592 527
f 527 591 526
f 527 592 591
f 593 585 522
f 593 522 528
f 593 592 584
f 593 584 585
f 594 528 529
f 594 593 528
f 530 594 529
f 530 595 594
f 596 524 587
f 596 531 524
f 596 587 588
f 596 588 597
f 599 598 592
f 599 592 593
f 599 593 594
f 599 594 600
f 601 595 530
f 601 530 534
f 600 594 595
f 600 595 601
f 602 531 596
f 602 535 531
f 536 535 602
f 536 602 603
f 602 596 597
f 602 597 603
f 605 598 599
f 605 599 606
f 606 599 600
f 606 600 607
f 601 534 538
f 601 538 608
f 538 537 607
f 538 607 608
f 608 607 600
f 608 600 601
f 609 536 603
f 609 539 536
f 540 539 609
f 540 609 610
f 609 603 604
f 609 604 610
f 614 543 542
f 614 542 613
f 607 537 544
f 607 544 615
f 615 544 543
f 615 543 614
f 615 614 606
f 615 606 607
f 616 540 610
f 616 545 540
f 617 546 545
f 617 545 616
f 616 610 611
f 616 611 617
f 618 547 546
f 618 546 617
f 617 611 612
f 617 612 618
f 619 613 542
f 619 542 548
f 619 548 547
f 619 547 618
f 619 618 612
f 619 612 613
f 559 622 558
f 559 623 622
f 560 623 559
f 560 624 623
f 561 624 560
f 561 625 624
f 562 625 561
f 562 626 625
f 625 621 620
f 625 626 621
f 629 558 622
f 629 566 558
f 567 566 629
f 567 629 630
f 629 622 623
f 629 623 630
f 568 567 630
f 568 630 631
f 630 623 624
f 630 624 631
f 632 631 624
f 632 624 625
f 633 626 562
f 633 562 569
f 570 633 569
f 570 634 633
f 633 627 626
f 633 634 627
f 635 570 571
f 635 634 570
f 634 628 627
f 634 635 628
f 636 568 631
f 636 575 568
f 576 575 636
f 576 636 637
f 636 631 632
f 636 632 637
f 639 635 571
f 639 571 577
f 638 634 635
f 638 635 639
f 640 576 637
f 640 579 576
f 643 639 577
f 643 577 581
f 643 642 638
f 643 638 639
f 583 644 582
f 583 645 644
f 646 579 640
f 646 586 579
f 647 587 586
f 647 586 646
f 646 640 641
f 646 641 647
f 588 587 647
f 588 647 648
f 648 647 641
f 648 641 642
f 643 581 589
f 643 589 649
f 649 648 642
f 649 642 643
f 644 590 582
f 644 650 590
f 650 589 590
f 650 649 589
f 645 583 591
f 645 591 651
f 650 644 645
f 650 645 651
f 652 591 592
f 652 651 591
f 653 588 648
f 653 597 588
f 652 592 598
f 652 598 656
f 655 651 652
f 655 652 656
f 657 597 653
f 657 603 597
f 604 603 657
f 604 657 658
f 657 653 654
f 657 654 658
f 656 598 605
f 656 605 660
f 661 605 606
f 661 660 605
f 662 604 658
f 662 610 604
f 611 610 662
f 611 662 663
f 612 611 663
f 612 663 664
f 665 613 612
f 665 612 664
f 665 664 659
f 665 659 660
f 661 606 614
f 661 614 666
f 666 614 613
f 666 613 665
f 665 660 661
f 665 661 666
f 668 663 667
f 668 664 663
f 621 669 620
f 621 670 669
f 671 620 669
f 671 625 620
f 672 670 621
f 672 621 626
f 671 669 670
f 671 670 672
f 627 672 626
f 627 673 672
f 674 627 628
f 674 673 627
f 671 632 625
f 671 675 632
f 675 671 672
f 675 672 676
f 676 672 673
f 676 673 677
f 678 674 628
f 678 628 635
f 678 635 634
f 678 634 677
f 678 677 673
f 678 673 674
f 679 632 675
f 679 637 632
f 677 634 638
f 677 638 681
f 680 676 677
f 680 677 681
f 682 637 679
f 682 640 637
f 641 640 682
f 641 682 683
f 681 638 642
f 681 642 684
f 642 641 683
f 642 683 684
f 685 684 683
f 685 686 684
f 687 648 649
f 687 686 648
f 650 687 649
f 650 688 687
f 689 650 651
f 689 688 650
f 690 648 686
f 690 653 648
f 654 653 690
f 654 690 691
f 690 686 687
f 690 687 691
f 691 687 688
f 691 688 692
f 689 651 655
f 689 655 693
f 692 688 689
f 692 689 693
f 694 655 656
f 694 693 655
f 695 654 691
f 695 658 654
f 695 691 692
f 695 692 696
f 694 656 660
f 694 660 698
f 698 660 659
f 698 659 697
f 697 693 694
f 697 694 698
f 695 662 658
f 695 699 662
f 663 662 699
f 663 699 700
f 699 695 696
f 699 696 700
f 701 697 659
f 701 659 664
f 701 700 696
f 701 696 697
f 700 667 663
f 700 702 667
f 701 664 668
f 701 668 703
f 668 667 702
f 668 702 703
f 702 700 701
f 702 701 703
f 676 704 675
f 676 705 704
f 704 679 675
f 704 706 679
f 705 676 680
f 705 680 707
f 706 704 705
f 706 705 707
f 708 680 681
f 708 707 680
f 706 682 679
f 706 709 682
f 683 682 709
f 683 709 710
f 709 706 707
f 709 707 710
f 708 681 684
f 708 684 711
f 710 707 708
f 710 708 711
f 712 683 710
f 712 685 683
f 713 711 684
f 713 684 686
f 713 686 685
f 713 685 712
f 712 710 711
f 712 711 713
f 715 692 693
f 715 714 692
f 714 696 692
f 714 716 696
f 715 693 697
f 715 697 717
f 717 697 696
f 717 696 716
f 716 714 715
f 716 715 717
