# parsimony mesh: eg11355_monomer (source /Users/eranagmon/code/v2e-molecules/workspace/studies/ecoli-3d/viz/3d/structures/eg11355_monomer.pdb)
# atoms: 1936  voxel: 16 Å  verts: 64  tris: 112
v -21.2458 0.2188 -22.5665
v -12.5463 -0.8532 -24.4519
v 3.4537 -1.9240 -25.4085
v 19.4537 -1.8974 -24.6158
v 29.2677 -0.5042 -23.5127
v -21.2458 2.3329 -22.5665
v -12.5463 3.9538 -24.4519
v 3.4537 4.5945 -25.4085
v 20.0557 8.8023 -24.7494
v 29.6709 9.2251 -23.9555
v 25.7904 18.7025 -22.9615
v 28.5960 18.7025 -22.9615
v -6.1012 -15.4060 -6.7182
v 0.7292 -15.4060 -6.7182
v -22.0828 -1.3802 -13.8004
v -11.8792 -8.3180 -12.7511
v 5.0190 -10.8779 -12.7511
v 19.4537 -7.6850 -13.8004
v 29.9947 -1.8798 -13.8004
v -22.0828 4.1831 -13.8004
v -12.5463 7.8445 -13.8004
v 3.4537 7.8285 -13.8004
v 20.0557 11.0924 -14.3785
v 30.1719 8.7389 -14.3785
v 25.7904 18.7025 -20.0972
v 28.5960 18.7025 -20.0972
v -21.9168 -15.6999 8.1450
v -11.8792 -17.1976 2.5668
v 5.0190 -17.0611 0.6386
v 12.4964 -15.4724 4.9312
v -23.5152 -6.6553 2.5668
v -16.7678 -11.9090 -2.5217
v 11.3959 -14.7477 -5.7354
v 18.6872 -7.9666 0.9827
v 29.0278 -1.1855 -2.9659
v -23.2295 6.2098 2.1996
v -13.1013 13.0237 2.2930
v 3.6495 12.1703 2.2930
v 19.5083 5.4732 2.3003
v 29.0278 3.0814 -2.9659
v -8.1380 18.1904 7.6886
v -1.5534 18.1904 7.6886
v -21.9168 -15.6999 14.1869
v -12.5463 -17.3300 16.5025
v 3.4537 -17.1594 14.0829
v 12.4964 -15.4724 10.9608
v -22.8488 -6.2352 18.9920
v -12.5463 -9.9585 24.5025
v 2.1574 -6.6615 20.7916
v 14.3039 -6.7749 12.1272
v -22.3965 4.2802 18.1996
v -15.8397 12.2802 18.1996
v 4.4906 9.5831 17.6849
v 14.2113 4.4884 12.0085
v -7.8397 18.4148 18.1996
v -1.6298 18.4148 18.1996
v -20.7848 -0.5420 26.3784
v -12.5463 -1.9585 26.5553
v -4.0402 -1.2526 26.4951
v -20.7848 1.4885 26.3784
v -11.4260 7.7831 26.8028
v -3.4949 9.2251 26.8195
v -5.3458 17.8460 26.7306
v -3.6505 17.8460 26.7306
f 6 2 1
f 6 7 2
f 8 2 7
f 8 3 2
f 8 4 3
f 8 9 4
f 9 5 4
f 9 10 5
f 11 10 9
f 11 12 10
f 2 15 1
f 2 16 15
f 3 16 2
f 3 17 16
f 17 13 16
f 17 14 13
f 18 3 4
f 18 17 3
f 19 4 5
f 19 18 4
f 15 6 1
f 15 20 6
f 21 7 6
f 21 6 20
f 22 8 7
f 22 7 21
f 9 8 22
f 9 22 23
f 24 19 5
f 24 5 10
f 25 9 23
f 25 11 9
f 26 24 10
f 26 10 12
f 25 23 24
f 25 24 26
f 29 13 14
f 29 28 13
f 32 13 28
f 32 16 13
f 32 15 16
f 32 31 15
f 32 27 31
f 32 28 27
f 33 29 14
f 33 14 17
f 18 33 17
f 18 34 33
f 33 30 29
f 33 34 30
f 35 18 19
f 35 34 18
f 36 15 31
f 36 20 15
f 21 20 36
f 21 36 37
f 38 22 21
f 38 21 37
f 39 23 22
f 39 22 38
f 40 35 19
f 40 19 24
f 40 24 23
f 40 23 39
f 39 34 35
f 39 35 40
f 42 37 41
f 42 38 37
f 44 27 28
f 44 43 27
f 45 28 29
f 45 44 28
f 46 29 30
f 46 45 29
f 47 27 43
f 47 31 27
f 48 47 43
f 48 43 44
f 49 48 44
f 49 44 45
f 50 46 30
f 50 30 34
f 50 49 45
f 50 45 46
f 51 31 47
f 51 36 31
f 52 37 36
f 52 36 51
f 50 34 39
f 50 39 54
f 54 39 38
f 54 38 53
f 54 53 49
f 54 49 50
f 52 41 37
f 52 55 41
f 53 38 42
f 53 42 56
f 48 57 47
f 48 58 57
f 59 48 49
f 59 58 48
f 57 51 47
f 57 60 51
f 61 52 51
f 61 51 60
f 59 49 53
f 59 53 62
f 61 55 52
f 61 63 55
f 62 53 56
f 62 56 64
