# parsimony mesh: eg11356_monomer (source /Users/eranagmon/code/v2e-abund/workspace/studies/ecoli-3d/viz/3d/structures/eg11356_monomer.pdb)
# atoms: 1523  voxel: 8 Å  verts: 190  tris: 384
v 26.9270 5.3147 -33.5855
v 29.7364 5.3147 -33.5855
v 26.9270 7.7138 -33.5855
v 29.7364 7.7138 -33.5855
v 3.6666 -9.3621 -24.9829
v 8.2537 -9.6734 -25.2388
v 13.3942 -9.6113 -25.2088
v -4.3953 -2.4501 -25.6652
v 0.7014 -5.1153 -26.2015
v 8.2537 -5.1132 -27.0691
v 16.1380 -5.2900 -26.5075
v 21.7188 -2.7413 -26.0910
v 35.4316 -1.3728 -25.3350
v 36.6016 -1.3728 -25.3350
v -4.3953 0.0786 -25.6652
v 0.2537 1.5921 -26.4196
v 7.6196 3.5360 -27.8127
v 16.2537 2.8868 -29.5647
v 24.3229 2.9247 -28.7896
v 32.5840 2.9247 -28.2675
v 37.0364 2.8868 -25.9964
v 9.8635 7.8203 -27.3742
v 16.2537 8.8113 -27.7418
v 24.2577 8.7694 -28.8168
v 32.3433 9.1820 -28.6440
v 36.9495 9.2070 -25.8668
v 3.3853 -9.6761 -20.8099
v 8.2537 -10.7293 -20.8099
v 13.8466 -10.1664 -20.8099
v -4.6176 -2.7382 -20.8099
v -0.6147 -6.7382 -20.8099
v 18.0509 -5.2900 -20.2322
v 21.7188 -2.7413 -22.5137
v 35.4316 -1.3728 -24.4633
v 36.6016 -1.3728 -24.4633
v -4.6176 0.7662 -20.8099
v 0.2314 5.0395 -21.4035
v 4.5302 6.6355 -24.4660
v 19.7918 -0.7066 -17.1804
v 24.2522 2.5808 -20.5742
v 32.5604 3.0756 -23.8649
v 37.0364 2.8868 -24.2602
v 2.8832 7.6224 -19.1326
v 7.6196 8.8337 -21.4035
v 16.2537 10.9939 -20.8099
v 24.1728 9.0738 -21.1047
v 32.2537 9.1355 -23.8887
v 36.9495 9.2070 -24.4236
v 2.6348 -17.7647 -9.7092
v 5.5640 -17.7647 -9.7092
v 1.4850 -12.6142 -12.5495
v 8.2399 -13.9977 -12.5495
v 14.0967 -10.8426 -12.8099
v -5.0306 -3.5525 -12.8099
v -1.9930 -7.5525 -12.8099
v 16.4544 -5.1132 -12.8099
v -4.9567 2.8753 -12.1333
v -2.4501 5.5343 -14.3489
v 18.5168 2.3308 -12.4525
v 21.4522 4.6268 -14.8809
v -4.0512 6.9565 -9.0156
v 0.2314 7.8945 -12.1333
v 8.2537 10.0312 -12.8099
v 16.6307 9.2370 -12.4525
v 21.4522 8.2212 -14.8809
v -20.7365 -17.5418 -1.1810
v -18.9283 -17.5418 -1.1810
v 2.6348 -17.7647 -6.4999
v 5.5640 -17.7647 -6.4999
v -20.7365 -14.6550 -1.1810
v -16.6147 -12.4995 -1.5329
v -7.7463 -10.7480 -3.3980
v -0.4348 -13.3921 -4.8428
v 8.2399 -15.8977 -4.2239
v 14.1201 -11.8873 -4.8099
v -28.1262 -2.0272 -1.3565
v -23.7463 -3.7111 -2.6250
v -16.4791 -5.8431 -3.2325
v -7.6661 -5.7667 -6.7339
v -3.5044 -8.8691 -8.5191
v 15.2913 -5.1132 -4.8099
v -28.1262 1.4576 -1.3565
v -24.4839 3.6293 -2.6095
v -15.7463 2.8868 -4.2553
v -7.5804 4.0134 -5.0991
v 0.2537 4.4593 -4.0767
v 8.2537 3.7682 -3.5863
v 14.3677 2.3111 -5.1378
v -22.3090 7.2798 -1.3892
v -15.7463 7.3731 -2.0332
v -7.6196 7.0494 -5.2693
v 0.2537 7.5948 -8.0767
v 8.2537 8.2976 -7.5863
v 14.2154 7.8936 -8.0230
v -20.9796 -17.6845 3.1901
v -16.0555 -17.7760 3.5673
v -7.7463 -17.5880 6.1814
v -1.8036 -17.4033 6.5498
v -27.9134 -9.4731 6.7600
v -23.2352 -12.0641 3.0451
v -16.6147 -12.4995 0.2412
v -7.7463 -14.7480 2.1814
v 0.6193 -15.5605 3.6059
v 7.9490 -13.1705 2.9926
v 13.2683 -11.4123 0.1942
v -28.5026 -4.8616 3.7320
v -23.7463 -7.7111 0.9727
v -19.6344 -8.9964 -0.6697
v 9.0571 -5.1132 4.3248
v 13.4818 -5.1132 0.3248
v -28.5663 2.2516 3.1901
v -27.1433 6.2516 3.1901
v -6.2484 5.2869 3.1901
v 0.2537 2.1308 3.1901
v 7.6011 -0.2137 2.6953
v 12.8767 -0.7393 -0.3012
v -23.1433 8.0812 3.1901
v -15.7463 8.5590 3.1901
v -10.2484 7.3645 3.1901
v -20.4006 -17.4464 8.7388
v -15.7463 -17.6203 9.5744
v -7.7463 -17.5880 9.0660
v -1.8036 -17.4033 8.0610
v -27.9134 -9.4731 7.8176
v -23.5576 -12.9917 10.9449
v -15.7463 -16.1698 13.5744
v -7.7463 -15.6450 13.0660
v 0.6193 -15.1384 10.9126
v 5.0920 -11.6217 11.1901
v -28.4067 -5.1132 8.9053
v -26.0706 -5.1132 12.9053
v 5.7269 -5.1132 11.1901
v -28.4597 0.8023 8.8495
v -25.6722 3.2361 11.3857
v -12.8360 5.7059 13.4916
v -7.5821 5.9154 10.8812
v -0.0333 4.0589 11.0385
v 4.8886 -0.0766 11.1901
v -22.0556 8.8883 11.1901
v -15.6001 8.7169 10.9710
v -7.5821 7.4556 10.8812
v -2.8914 7.6428 13.6042
v -21.3812 -11.1770 17.0344
v -15.7463 -12.1698 17.3003
v -7.7463 -11.6450 16.9926
v 0.2537 -11.0038 16.7301
v 4.5460 -10.2701 15.8093
v -22.0706 -5.1132 18.1102
v -16.2964 -5.0268 21.3077
v -7.7463 -6.8752 20.9926
v 0.1486 -5.0092 20.4299
v 4.9236 -5.1132 16.6643
v -21.2949 3.6656 19.6196
v -16.0829 3.6120 19.9419
v -10.1901 5.7059 17.3112
v 1.6062 2.7217 19.1979
v 4.8546 -0.0550 16.5365
v -20.5839 7.9906 19.1901
v -15.6001 7.9028 19.6628
v -7.2966 10.0422 19.7978
v 0.1350 10.8975 19.7174
v 4.6156 14.1522 22.4836
v -4.4030 15.6064 22.2845
v 0.2537 16.2338 21.9810
v 4.6156 15.9632 22.4836
v -13.9965 -2.3025 24.0006
v -7.7463 -2.8752 24.2302
v -2.5881 -2.2732 23.7663
v -19.7506 6.8515 23.1921
v -16.2964 3.6656 23.7861
v -7.7463 2.8868 25.5541
v -1.6969 2.8868 24.8106
v -19.7506 6.8895 23.1921
v -15.7463 7.0549 23.3272
v -7.3403 10.2197 25.1966
v 0.3984 11.2461 26.1485
v 4.6156 14.1522 24.9573
v -4.4030 15.6064 24.7690
v 1.6448 18.1223 27.3121
v 5.6400 18.3018 27.2097
v 3.2134 26.8868 29.3364
v 7.9958 26.8868 29.3364
v 3.6207 31.7680 30.4465
v 6.8325 31.7680 30.4465
v 3.4996 20.6404 32.0787
v 6.6644 20.6404 32.0787
v 3.2134 26.8868 33.0750
v 7.9958 26.8868 33.0750
v 3.6207 31.7680 32.8147
v 6.8325 31.7680 32.8147
f 3 2 1
f 3 4 2
f 10 5 9
f 10 6 5
f 10 7 6
f 10 11 7
f 16 8 15
f 16 9 8
f 16 10 9
f 16 17 10
f 18 10 17
f 18 11 10
f 18 12 11
f 18 19 12
f 2 19 1
f 2 20 19
f 21 13 20
f 21 14 13
f 22 18 17
f 22 23 18
f 24 1 19
f 24 3 1
f 24 18 23
f 24 19 18
f 25 20 2
f 25 2 4
f 4 3 24
f 4 24 25
f 26 20 25
f 26 21 20
f 28 5 6
f 28 27 5
f 7 28 6
f 7 29 28
f 31 5 27
f 31 9 5
f 31 8 9
f 31 30 8
f 29 7 11
f 29 11 32
f 33 11 12
f 33 32 11
f 14 34 13
f 14 35 34
f 30 15 8
f 30 36 15
f 16 15 36
f 16 36 37
f 38 17 16
f 38 16 37
f 40 33 12
f 40 12 19
f 39 32 33
f 39 33 40
f 41 13 34
f 41 20 13
f 41 19 20
f 41 40 19
f 42 35 14
f 42 14 21
f 42 41 34
f 42 34 35
f 38 22 17
f 38 44 22
f 43 38 37
f 43 44 38
f 45 23 22
f 45 22 44
f 46 24 23
f 46 23 45
f 47 25 24
f 47 24 46
f 46 40 41
f 46 41 47
f 48 42 21
f 48 21 26
f 26 25 47
f 26 47 48
f 48 47 41
f 48 41 42
f 52 27 28
f 52 51 27
f 51 50 49
f 51 52 50
f 53 28 29
f 53 52 28
f 55 27 51
f 55 31 27
f 31 54 30
f 31 55 54
f 56 53 29
f 56 29 32
f 54 36 30
f 54 57 36
f 58 37 36
f 58 36 57
f 56 32 39
f 56 39 59
f 60 39 40
f 60 59 39
f 58 43 37
f 58 62 43
f 61 58 57
f 61 62 58
f 63 44 43
f 63 43 62
f 45 44 63
f 45 63 64
f 60 40 46
f 60 46 65
f 65 46 45
f 65 45 64
f 65 64 59
f 65 59 60
f 50 68 49
f 50 69 68
f 70 67 66
f 70 71 67
f 73 49 68
f 73 51 49
f 74 69 50
f 74 50 52
f 74 73 68
f 74 68 69
f 75 52 53
f 75 74 52
f 78 72 71
f 78 79 72
f 80 51 73
f 80 55 51
f 80 54 55
f 80 79 54
f 80 72 79
f 80 73 72
f 81 75 53
f 81 53 56
f 83 76 82
f 83 77 76
f 84 77 83
f 84 78 77
f 79 57 54
f 79 85 57
f 84 79 78
f 84 85 79
f 88 81 56
f 88 56 59
f 89 84 83
f 89 90 84
f 85 61 57
f 85 91 61
f 91 84 90
f 91 85 84
f 92 62 61
f 92 61 91
f 91 85 86
f 91 86 92
f 93 63 62
f 93 62 92
f 93 92 86
f 93 86 87
f 94 88 59
f 94 59 64
f 94 64 63
f 94 63 93
f 94 93 87
f 94 87 88
f 67 95 66
f 67 96 95
f 95 70 66
f 95 100 70
f 101 96 67
f 101 67 71
f 101 71 70
f 101 70 100
f 72 101 71
f 72 102 101
f 102 96 101
f 102 97 96
f 73 102 72
f 73 103 102
f 102 98 97
f 102 103 98
f 74 103 73
f 74 104 103
f 105 74 75
f 105 104 74
f 107 76 77
f 107 106 76
f 107 99 106
f 107 100 99
f 108 71 101
f 108 78 71
f 108 77 78
f 108 107 77
f 108 100 107
f 108 101 100
f 105 75 81
f 105 81 110
f 109 104 105
f 109 105 110
f 111 76 106
f 111 82 76
f 112 83 82
f 112 82 111
f 86 85 113
f 86 113 114
f 87 86 114
f 87 114 115
f 116 110 81
f 116 81 88
f 116 88 87
f 116 87 115
f 116 115 109
f 116 109 110
f 112 89 83
f 112 117 89
f 118 90 89
f 118 89 117
f 113 85 91
f 113 91 119
f 119 91 90
f 119 90 118
f 96 120 95
f 96 121 120
f 97 121 96
f 97 122 121
f 123 97 98
f 123 122 97
f 120 100 95
f 120 125 100
f 125 99 100
f 125 124 99
f 126 125 120
f 126 120 121
f 127 126 121
f 127 121 122
f 123 98 103
f 123 103 128
f 127 122 123
f 127 123 128
f 129 103 104
f 129 128 103
f 130 99 124
f 130 106 99
f 131 130 124
f 131 124 125
f 129 104 109
f 129 109 132
f 133 106 130
f 133 111 106
f 112 111 133
f 112 133 134
f 133 130 131
f 133 131 134
f 137 114 113
f 137 113 136
f 138 132 109
f 138 109 115
f 138 115 114
f 138 114 137
f 139 112 134
f 139 117 112
f 118 117 139
f 118 139 140
f 141 136 113
f 141 113 119
f 119 118 140
f 119 140 141
f 141 140 135
f 141 135 136
f 142 136 141
f 142 137 136
f 126 143 125
f 126 144 143
f 127 144 126
f 127 145 144
f 146 127 128
f 146 145 127
f 129 146 128
f 129 147 146
f 143 131 125
f 143 148 131
f 149 148 143
f 149 143 144
f 150 149 144
f 150 144 145
f 150 145 146
f 150 146 151
f 147 129 132
f 147 132 152
f 152 151 146
f 152 146 147
f 148 134 131
f 148 153 134
f 153 148 149
f 153 149 154
f 155 136 135
f 155 135 154
f 157 152 132
f 157 132 138
f 157 138 137
f 157 137 156
f 157 156 151
f 157 151 152
f 153 139 134
f 153 158 139
f 159 154 135
f 159 135 140
f 140 139 158
f 140 158 159
f 155 141 136
f 155 160 141
f 159 155 154
f 159 160 155
f 156 137 142
f 156 142 161
f 142 141 160
f 142 160 161
f 163 161 160
f 163 164 161
f 164 162 161
f 164 165 162
f 150 166 149
f 150 167 166
f 168 150 151
f 168 167 150
f 166 154 149
f 166 170 154
f 154 169 153
f 154 170 169
f 171 170 166
f 171 166 167
f 168 151 156
f 168 156 172
f 171 167 168
f 171 168 172
f 169 158 153
f 169 173 158
f 159 158 173
f 159 173 174
f 174 173 169
f 174 169 170
f 160 159 174
f 160 174 175
f 174 170 171
f 174 171 175
f 172 156 161
f 172 161 176
f 175 171 172
f 175 172 176
f 162 176 161
f 162 177 176
f 175 163 160
f 175 178 163
f 164 163 178
f 164 178 179
f 178 175 176
f 178 176 179
f 177 162 165
f 177 165 180
f 165 164 179
f 165 179 180
f 179 176 177
f 179 177 180
f 181 180 179
f 181 182 180
f 184 181 183
f 184 182 181
f 180 185 179
f 180 186 185
f 185 181 179
f 185 187 181
f 186 180 182
f 186 182 188
f 187 185 186
f 187 186 188
f 187 183 181
f 187 189 183
f 188 182 184
f 188 184 190
f 184 183 189
f 184 189 190
f 190 189 187
f 190 187 188
