# parsimony mesh: eg11894_monomer (source /Users/eranagmon/code/v2e-cplx/workspace/studies/ecoli-3d/viz/3d/structures/eg11894_monomer.pdb)
# atoms: 571  voxel: 16 Å  verts: 24  tris: 40
v -5.2742 -6.6018 -11.1628
v 2.8961 -6.9524 -11.4754
v 11.4666 -6.9115 -11.4594
v -5.7488 1.6349 -11.7354
v 3.2156 1.7719 -11.8710
v 11.4666 -3.4701 -11.4594
v -5.7935 10.1718 -11.8061
v -1.9046 10.1718 -11.8061
v -6.7303 -8.3852 -2.9825
v 2.8961 -9.8616 -2.9825
v 12.6210 -7.8414 -2.9825
v -9.2171 1.6349 -2.9825
v 7.7497 6.2080 -2.9825
v 12.6210 -1.7920 -2.9825
v -7.5907 11.0668 -2.9825
v -0.2503 11.0668 -2.9825
v -7.1021 -8.8220 7.2382
v 2.8961 -9.2743 7.8729
v 12.6254 -7.7871 6.6040
v -8.5722 1.6349 9.1803
v 3.2594 1.9564 9.2996
v 12.6254 -3.1627 6.6040
v -7.7301 11.0071 8.3472
v -1.8317 11.0071 8.3472
f 5 1 4
f 5 2 1
f 6 2 5
f 6 3 2
f 8 4 7
f 8 5 4
f 10 1 2
f 10 9 1
f 3 10 2
f 3 11 10
f 12 1 9
f 12 4 1
f 11 3 6
f 11 6 14
f 6 5 13
f 6 13 14
f 12 7 4
f 12 15 7
f 16 13 5
f 16 5 8
f 10 17 9
f 10 18 17
f 19 10 11
f 19 18 10
f 17 12 9
f 17 20 12
f 21 20 17
f 21 17 18
f 22 19 11
f 22 11 14
f 22 14 13
f 22 13 21
f 22 21 18
f 22 18 19
f 23 12 20
f 23 15 12
f 24 21 13
f 24 13 16
f 24 23 20
f 24 20 21
