# parsimony mesh: eg11384_monomer (source /Users/eranagmon/code/v2e-abund/workspace/studies/ecoli-3d/viz/3d/structures/eg11384_monomer.pdb)
# atoms: 1465  voxel: 16 Å  verts: 44  tris: 80
v 2.4730 -13.8555 -19.5680
v 9.4207 -13.8555 -19.5680
v -10.3799 -0.0418 -18.4002
v -2.1513 -4.7978 -20.7715
v 10.5503 -3.9319 -20.7802
v -10.3799 5.7506 -18.4002
v -1.0877 7.4489 -19.9044
v 9.2546 6.8934 -19.6269
v -10.6059 -14.1889 -5.7409
v -2.1513 -15.4925 -10.3373
v 10.8828 -14.6900 -9.2319
v -11.9415 -4.7978 -10.3373
v -8.1937 -10.7085 -16.4075
v 17.8941 -2.3361 -7.6351
v 22.9144 4.0611 -1.2372
v -11.5163 7.4488 -9.2319
v 0.4925 14.8678 -7.6499
v 13.4261 10.8164 -6.5829
v 22.9144 4.0728 -1.2372
v 6.8793 20.0765 -1.2620
v 6.9308 20.0765 -1.2620
v -11.2778 -14.3714 6.7681
v -0.1293 -14.9358 7.8879
v 9.6979 -13.6857 3.3011
v -14.6812 -3.9319 6.7681
v 4.1488 -3.9319 12.4313
v 14.9837 -2.3361 3.3009
v 22.9144 4.0611 -1.2282
v -12.4911 7.6151 6.7681
v 0.2548 11.7661 5.6195
v 13.3234 10.4710 0.5920
v 22.9144 4.0728 -1.2282
v 6.8793 20.0765 -1.2137
v 6.9308 20.0765 -1.2137
v -10.4896 -12.9276 16.7653
v -4.8237 -12.9276 16.7653
v -12.5938 -3.5744 22.3664
v -3.3740 -3.5744 22.3664
v -12.4189 7.4492 22.7681
v -5.1436 7.4492 22.7681
v -10.9374 1.9973 32.4925
v -6.5468 1.9973 32.4925
v -10.9374 6.6720 32.4925
v -6.5468 6.6720 32.4925
f 5 1 4
f 5 2 1
f 7 3 6
f 7 4 3
f 7 5 4
f 7 8 5
f 11 1 2
f 11 10 1
f 13 1 10
f 13 4 1
f 13 3 4
f 13 12 3
f 13 9 12
f 13 10 9
f 11 2 5
f 11 5 14
f 16 3 12
f 16 6 3
f 7 6 16
f 7 16 17
f 14 5 8
f 14 8 18
f 8 7 17
f 8 17 18
f 19 14 18
f 19 15 14
f 21 17 20
f 21 18 17
f 23 9 10
f 23 22 9
f 24 10 11
f 24 23 10
f 25 9 22
f 25 12 9
f 24 11 14
f 24 14 27
f 26 23 24
f 26 24 27
f 28 14 15
f 28 27 14
f 25 16 12
f 25 29 16
f 30 17 16
f 30 16 29
f 30 26 27
f 30 27 31
f 19 18 31
f 19 31 32
f 32 31 27
f 32 27 28
f 33 17 30
f 33 20 17
f 31 18 21
f 31 21 34
f 33 30 31
f 33 31 34
f 36 22 23
f 36 35 22
f 35 25 22
f 35 37 25
f 36 23 26
f 36 26 38
f 38 37 35
f 38 35 36
f 37 29 25
f 37 39 29
f 40 38 26
f 40 26 30
f 40 30 29
f 40 29 39
f 42 37 38
f 42 41 37
f 41 39 37
f 41 43 39
f 42 38 40
f 42 40 44
f 40 39 43
f 40 43 44
f 43 41 42
f 43 42 44
