# parsimony mesh: eg11389_monomer (source /Users/eranagmon/code/v2e-cplx/workspace/studies/ecoli-3d/viz/3d/structures/eg11389_monomer.pdb)
# atoms: 970  voxel: 4 Å  verts: 600  tris: 1216
v 17.4551 1.7265 -32.4984
v 19.1712 1.7265 -32.4984
v 17.3362 4.1287 -32.6949
v 20.3477 3.9535 -32.7114
v 22.5793 5.1700 -32.2829
v 17.7934 8.1287 -32.3850
v 19.8302 8.1884 -32.4635
v 22.5793 6.8948 -32.2829
v 18.0648 10.1625 -32.0853
v 18.3087 10.1625 -32.0853
v 9.6594 1.1270 -28.7564
v 12.1124 1.1578 -28.8886
v 16.1180 1.3108 -29.8856
v 20.3477 1.2255 -30.2507
v 23.0324 1.6937 -29.0607
v 9.6594 2.7956 -28.7564
v 12.1124 3.0340 -28.8886
v 15.3580 4.0527 -29.8856
v 21.8378 2.5034 -31.7273
v 23.4029 3.9535 -30.2507
v 14.0803 9.9668 -28.0887
v 15.7238 8.4316 -29.6675
v 20.9754 9.5615 -31.7451
v 23.3770 8.1884 -30.2613
v 14.0803 10.1872 -28.0887
v 16.4838 10.8737 -29.6675
v 19.8302 11.4111 -30.2613
v 22.9894 11.0828 -29.0784
v 17.8898 17.1085 -28.1977
v 18.4040 17.1085 -28.1977
v 17.8898 18.3243 -28.1977
v 18.4040 18.3243 -28.1977
v 9.4863 -2.7390 -24.9408
v 12.1124 -2.9632 -25.1199
v 16.1124 -2.4995 -24.7317
v 18.5562 -2.1207 -24.4232
v 9.5728 0.0461 -26.0173
v 11.3843 0.2182 -25.9658
v 16.1124 -0.5920 -26.7317
v 19.9787 -0.5521 -25.8682
v 23.5306 1.2788 -26.0357
v 9.6594 2.7956 -27.0938
v 11.8931 3.2561 -25.8705
v 15.1136 5.0378 -26.0357
v 24.5244 4.1287 -26.0357
v 14.0803 9.9668 -27.9637
v 15.3555 8.4316 -26.3925
v 25.0337 8.4383 -25.7868
v 26.4630 9.9781 -24.2875
v 14.0803 10.1872 -27.9637
v 16.2192 12.0660 -26.5785
v 20.1124 13.7063 -27.4901
v 24.1277 12.0125 -25.8857
v 28.2158 12.0299 -24.1990
v 30.4129 13.7842 -24.1105
v 17.7394 16.1755 -26.1378
v 19.3803 16.2140 -26.1725
v 22.5994 14.9006 -24.8173
v 29.9687 14.2249 -24.1105
v 30.4129 14.2249 -24.1105
v 17.8898 18.3243 -27.0822
v 18.4040 18.3243 -27.0822
v 8.8365 -3.2405 -22.0357
v 12.1124 -4.2547 -22.0357
v 16.1124 -3.1800 -22.0357
v 19.1605 -2.1658 -22.0357
v 5.9030 1.3763 -20.2830
v 7.9285 0.1708 -21.9624
v 10.4136 1.6319 -23.6418
v 21.1605 -1.2652 -22.0357
v 23.6813 0.7348 -22.0357
v 5.9030 2.4782 -20.2830
v 8.2999 3.9384 -21.0035
v 11.8931 4.1319 -22.6063
v 15.0029 5.4674 -22.9543
v 25.0520 4.1287 -22.0357
v 9.7582 6.3275 -20.4621
v 12.1124 6.6513 -20.5444
v 15.4608 8.0274 -21.7868
v 25.4831 7.0350 -22.0357
v 27.9228 8.8217 -22.0536
v 30.5289 9.4086 -20.7323
v 15.8037 12.1287 -22.0357
v 25.2661 12.9422 -23.0907
v 28.2158 12.0299 -23.2448
v 31.0510 12.3220 -22.0536
v 14.0964 17.7291 -20.0565
v 15.8949 16.4858 -21.9620
v 20.1124 17.5431 -23.5978
v 24.3371 16.4739 -22.0220
v 28.0751 16.1360 -21.7227
v 31.2264 15.7864 -21.8271
v 14.0964 18.1471 -20.0565
v 16.1124 18.6695 -20.9252
v 20.1124 19.1026 -21.5978
v 23.4082 18.7245 -20.9533
v 28.8483 18.4490 -20.3547
v 30.8212 18.4490 -20.3547
v 6.0952 -9.8807 -16.0462
v 6.1334 -9.8807 -16.0462
v 5.3519 -7.8713 -16.6828
v 7.7250 -7.7734 -17.0205
v 12.1124 -6.5313 -17.0854
v 14.5935 -6.2477 -16.6568
v 1.8754 -2.2630 -16.1233
v 3.9143 -3.7063 -17.2512
v 7.8674 -4.0461 -19.2658
v 12.1124 -5.1629 -19.0854
v 16.0010 -4.0367 -18.0083
v 18.9072 -2.0050 -18.0357
v 1.8754 -1.6942 -16.1233
v 4.3117 -0.1589 -17.9558
v 6.3707 -1.2903 -19.7884
v 20.9072 -1.3726 -18.0357
v 24.3850 0.9266 -17.6395
v 26.1127 2.1270 -16.0421
v 5.4114 3.1985 -18.0357
v 8.2999 4.9375 -18.1055
v 10.7305 5.3836 -16.8187
v 25.9029 4.1287 -19.0172
v 26.9298 4.1287 -17.0172
v 9.7582 6.3275 -19.4854
v 12.4170 7.8104 -17.7805
v 14.7323 9.2933 -18.7423
v 26.0454 6.1543 -20.0047
v 28.3661 6.8061 -18.4171
v 30.5989 8.9563 -18.0357
v 13.7530 12.1287 -16.9867
v 14.6435 12.1287 -18.9867
v 31.4064 12.1287 -18.0357
v 13.2578 16.2890 -18.3725
v 14.2007 15.0625 -19.9303
v 26.0749 18.0472 -19.9069
v 26.1816 18.0472 -19.9069
v 32.7836 16.2230 -18.1118
v 34.5352 17.6193 -16.8291
v 13.3969 18.8470 -18.0357
v 16.1124 19.7650 -18.0357
v 20.1124 20.1705 -18.0357
v 24.4899 19.1236 -18.3584
v 27.7539 18.6652 -18.3584
v 32.1377 18.8920 -18.1118
v 34.5352 18.6663 -16.8291
v 5.9560 -9.9300 -14.0357
v 6.2692 -9.9300 -14.0357
v -2.4020 -6.3390 -12.5932
v 0.1124 -6.6299 -13.0450
v 3.7892 -7.7976 -14.1087
v 8.2692 -8.5983 -14.0357
v 12.1124 -7.1792 -14.0357
v 16.0010 -6.3394 -13.6404
v 18.1185 -5.8769 -12.0435
v -2.4020 -4.9603 -12.5932
v 0.1610 -3.6117 -14.0419
v 2.4489 -4.9297 -15.4906
v 17.2601 -4.5730 -14.7102
v 19.5018 -3.4416 -13.8203
v 24.1124 -2.2815 -13.0215
v 26.1951 -1.9793 -12.4555
v 1.1791 -0.1650 -13.8177
v 2.7204 0.9725 -15.0056
v 20.8851 -1.3794 -15.5970
v 24.1124 -0.5037 -15.0215
v 26.4392 0.5276 -13.8875
v 1.7931 2.6055 -12.3390
v 4.0772 3.6243 -13.8177
v 8.2796 5.2912 -13.8217
v 10.7305 5.3836 -15.0124
v 27.7317 4.1287 -14.0357
v 9.7086 8.1287 -12.4009
v 11.5693 8.1287 -14.4009
v 29.3851 7.3639 -14.0357
v 30.3837 9.3639 -14.0357
v 9.9620 10.4244 -12.2126
v 11.8533 11.9061 -13.7419
v 22.1005 14.1089 -12.0516
v 24.1124 13.1568 -12.8806
v 28.1124 12.3801 -13.6402
v 30.4670 11.8954 -14.2530
v 12.3578 16.1287 -14.0357
v 21.4234 16.1287 -12.4341
v 24.1124 16.1287 -14.1371
v 28.1124 16.1287 -15.0910
v 31.8500 16.2230 -15.0197
v 34.5352 17.6193 -15.2061
v 13.1749 19.1551 -14.0357
v 16.1124 19.7125 -14.0357
v 19.9684 19.1161 -13.9449
v 24.1124 18.9254 -15.2923
v 28.1124 18.5591 -15.4864
v 32.1124 18.8426 -14.9941
v 34.5352 18.6663 -15.2061
v 5.8247 -9.9771 -10.0357
v 6.3510 -9.9771 -10.0357
v -2.8920 -6.7559 -10.0357
v 0.1124 -7.7970 -10.0357
v 3.8247 -8.9124 -10.0357
v 8.3510 -8.7546 -10.0357
v 12.1124 -7.4903 -10.0357
v 16.2796 -6.4632 -10.4187
v 18.1185 -5.8769 -12.0074
v -6.0716 -2.2852 -8.1627
v -3.8905 -3.6228 -9.9138
v -1.5535 -2.2937 -11.6650
v 17.7244 -5.6186 -9.3407
v 19.7160 -4.6944 -10.4187
v 24.0059 -2.5108 -10.3494
v 26.1951 -1.9793 -11.8919
v -6.0716 -1.6215 -8.1627
v -3.8876 -1.0471 -8.8529
v -0.6804 0.2381 -10.2133
v 5.5639 1.6132 -8.3786
v 6.5580 1.6132 -8.3786
v 25.2683 -0.7348 -9.2253
v 26.5440 0.4106 -10.3494
v 1.3709 2.8330 -10.0357
v 4.1833 3.2557 -9.8414
v 7.4394 4.2922 -9.8414
v 27.1723 4.1287 -10.0357
v 9.2282 8.1287 -10.0357
v 25.1652 9.0037 -9.3226
v 27.8340 8.1446 -10.6226
v 30.2419 9.9521 -11.9226
v 9.8760 11.9061 -9.7802
v 10.8266 13.0910 -10.9432
v 17.8757 13.8026 -8.2837
v 20.5052 13.4063 -9.7845
v 23.9441 11.2364 -10.4078
v 28.1124 10.3801 -11.9160
v 30.2419 10.4066 -11.9226
v 9.9968 14.2765 -8.2765
v 12.3135 16.1282 -9.6080
v 16.3704 16.4394 -8.8682
v 19.4234 16.1287 -10.8986
v 13.8004 18.5579 -10.9394
v 16.1124 18.6170 -10.8903
v 18.5390 18.3506 -11.6049
v 6.0894 -13.8837 -4.0656
v 6.1487 -13.8837 -4.0656
v -6.0486 -10.0089 -4.3940
v -5.2961 -10.0089 -4.3940
v 1.4923 -10.0890 -4.6065
v 4.6714 -11.3496 -5.6693
v 7.5289 -11.4938 -5.7083
v 12.1124 -10.6657 -5.0132
v 15.3586 -10.4244 -4.6904
v -6.9562 -7.8713 -4.9393
v -4.0043 -8.0478 -5.9714
v 0.1404 -8.9897 -5.9782
v 3.2535 -9.3824 -7.2731
v 8.9091 -9.2499 -7.3509
v 12.1124 -8.8423 -7.0132
v 15.8542 -7.8210 -6.0285
v -10.1011 -3.0592 -4.3257
v -7.9448 -4.0056 -5.9373
v -5.3791 -4.9519 -7.5489
v 17.2165 -4.1197 -5.8068
v 20.1124 -3.0709 -6.8764
v 22.6016 -2.3902 -7.5382
v -10.1011 -1.5650 -4.3257
v -7.5980 -0.8603 -5.8097
v -3.8876 0.6385 -6.0357
v 0.1108 1.5881 -5.7993
v 4.1833 1.6367 -5.7993
v 6.5225 1.6652 -6.0357
v 13.8913 1.9220 -4.2721
v 16.0388 0.3659 -4.2965
v 19.9176 0.1374 -5.2975
v 24.0059 0.4106 -7.4508
v 26.2874 1.9319 -7.9097
v 1.4430 2.5910 -6.9751
v 4.3275 3.7967 -5.6537
v 6.9329 3.8529 -5.8136
v 13.8913 2.2665 -4.2721
v 14.4485 2.2665 -4.2721
v 20.4449 4.1287 -5.3604
v 24.1124 4.1287 -7.1548
v 26.3704 4.1287 -7.8301
v 5.7578 6.5001 -4.3322
v 7.8243 7.9515 -5.8136
v 17.6927 8.9955 -4.6009
v 19.7732 7.8488 -5.4600
v 23.9441 7.8537 -7.4320
v 26.2814 6.3370 -7.8876
v 9.6625 12.1444 -6.1650
v 11.0182 13.4882 -4.9179
v 16.9982 12.3330 -5.9748
v 20.1124 11.2406 -7.2279
v 22.4986 10.6039 -7.7268
v 9.9968 14.2765 -7.5845
v 12.2559 15.0007 -6.1650
v 15.0345 15.1078 -6.0357
v 6.0894 -13.8837 -3.9630
v 6.1487 -13.8837 -3.9630
v -6.4726 -10.2576 -2.0357
v -5.0173 -10.2576 -2.0357
v 1.2880 -10.6035 -2.0357
v 4.4986 -12.6105 -2.3921
v 7.7342 -12.9220 -2.3921
v 12.4370 -11.1004 -1.6871
v 15.3586 -10.4244 -2.7880
v -10.3119 -6.5080 -1.2610
v -8.7138 -7.8534 -2.3709
v -3.0173 -9.0843 -2.0357
v -0.7120 -9.0843 -2.0357
v 13.9867 -8.6085 -0.1214
v 15.2893 -7.5136 -1.6871
v -10.4483 -4.1841 -2.3709
v -9.8180 -5.7259 -3.9277
v 15.3379 -3.8713 -2.0357
v -10.2703 -1.4213 -2.0357
v -7.6973 0.7660 -2.2491
v -3.8024 1.2439 -2.2491
v 0.1124 0.6698 -2.0357
v 4.0276 1.6622 -2.3563
v 6.2136 2.0261 -3.9034
v 13.8913 1.9220 -3.3344
v 15.6204 0.8066 -2.6677
v 18.4544 1.4765 -3.7555
v -6.2371 2.4677 -1.0580
v -5.0789 2.4677 -1.0580
v 5.1370 3.8529 -2.3563
v 6.2136 2.3357 -3.9034
v 13.8913 2.2665 -3.3344
v 15.6188 3.3306 -2.4337
v 18.4449 4.1287 -3.7582
v 5.4991 6.6997 -2.0357
v 7.5763 8.6997 -2.0357
v 16.6470 7.8488 -2.3818
v 18.2137 6.3288 -3.9459
v 9.5763 10.8188 -2.0357
v 12.2559 12.4499 -2.3020
v 14.8792 11.8978 -2.3020
v 13.6849 14.2496 -3.8128
v 14.2452 14.2496 -3.8128
v -14.5040 -10.7035 3.0125
v -12.9437 -10.7035 3.0125
v -6.5065 -10.2488 1.0404
v -4.0793 -10.1804 2.2971
v 0.2249 -10.8003 2.1180
v 4.1124 -11.7358 1.9643
v 8.1124 -11.8441 1.9643
v 11.4923 -10.9604 1.9643
v -14.6972 -7.8713 2.8080
v -11.6278 -8.0205 1.8601
v -7.8590 -9.1245 2.2100
v -4.0793 -9.4212 2.2971
v -1.0334 -9.1809 0.8872
v 13.3160 -7.5136 1.5695
v 14.1162 -5.9418 -0.0271
v -14.3200 -3.8713 3.4038
v -12.4283 -3.8713 1.4038
v 13.3034 -3.8713 2.0199
v 14.1668 -3.8713 0.0199
v -14.0011 -1.7684 3.8069
v -11.6656 -1.2842 2.2699
v -7.6973 0.5402 1.7540
v -3.8024 0.2531 1.7540
v 0.4168 0.4831 2.0060
v 2.6378 1.6557 0.7004
v 13.2662 0.1287 2.1475
v 14.2388 0.1287 0.1475
v -6.2371 2.4677 0.2804
v -5.0789 2.4677 0.2804
v 1.9531 2.3114 3.3671
v 3.7231 3.8383 2.0060
v 9.2521 6.0137 3.8295
v 12.1823 4.4597 2.6877
v 14.4965 4.1287 0.4696
v 5.7317 6.4501 1.9643
v 8.3914 7.5520 2.7637
v 11.9728 7.8641 2.7462
v 14.5954 8.1287 0.5427
v 9.7458 10.6266 1.9643
v 11.9728 10.6962 1.7300
v 14.3440 10.4106 0.2405
v -14.9286 -10.8236 5.9643
v -11.7212 -10.7542 5.9816
v -9.1481 -10.0731 7.3265
v -2.8399 -10.1120 4.2941
v 0.1124 -10.4636 4.4403
v 4.1124 -10.4750 4.3086
v 8.1124 -10.4103 4.4096
v 10.7446 -10.3341 4.4038
v -18.2542 -6.1729 7.8488
v -16.5982 -7.6523 6.2950
v -10.2770 -9.5330 4.6598
v -7.8439 -9.0153 5.9816
v -4.0922 -7.9938 5.9889
v 0.1124 -7.8713 5.7343
v 4.1124 -7.8713 5.4997
v 8.4606 -7.4879 6.4697
v 11.0131 -7.4879 5.8280
v -18.2542 -5.0674 7.8488
v -16.5506 -3.7890 6.2950
v -6.1026 -2.6215 7.7100
v -3.9617 -3.9214 6.9531
v 0.1124 -3.8713 5.6194
v 3.9413 -4.0471 6.6962
v 8.7080 -4.0963 7.7217
v 11.0869 -3.9656 6.3240
v -14.8690 -1.3195 5.9643
v -11.8876 -0.2782 5.9643
v -7.6166 -0.7522 6.2117
v -3.8876 -1.4242 4.9108
v 0.4168 -0.1998 4.3807
v 3.9413 0.2785 6.3741
v 8.4790 0.2785 7.2516
v 11.2662 0.1287 5.4445
v 1.9531 2.3114 4.1770
v 4.4857 3.8383 4.6153
v 7.9962 4.4597 4.9122
v 10.8956 3.3470 4.6717
v 6.0679 6.1673 3.9981
v 8.2088 7.5942 4.0921
v 10.5465 9.0211 4.1861
v 9.8321 10.5654 4.1861
v 10.5465 10.5654 4.1861
v -14.6592 -10.3088 8.9070
v -11.8876 -10.3508 8.9028
v -9.1481 -10.0731 8.2729
v -22.4078 -6.2962 11.1514
v -19.7076 -6.9591 9.8766
v -15.9506 -8.8408 10.1299
v -11.8793 -8.0080 10.7850
v -7.8439 -7.7442 8.6743
v -5.3445 -6.3261 8.0559
v 10.0260 -5.8990 7.9865
v 10.1486 -5.8990 7.9865
v -22.4078 -4.7014 11.1514
v -20.0114 -3.5511 9.6251
v -17.7493 -2.4007 8.0987
v -10.7538 -3.8713 11.3077
v -7.6166 -3.9214 9.0940
v -5.3445 -5.2881 8.0559
v 5.1605 -2.8309 8.9230
v 8.7080 -4.0963 8.4548
v 10.1486 -5.3617 7.9865
v -19.1020 -1.1063 10.7654
v -16.2046 -0.7931 9.6450
v -11.7888 -0.7683 10.1691
v -8.7693 -1.0649 8.9723
v 5.1605 -0.9550 8.9230
v 7.3900 -0.9550 8.9230
v -26.0118 -6.1228 15.8393
v -23.7997 -6.6951 14.2893
v -19.8876 -8.2852 13.9643
v -15.5945 -7.6662 14.2317
v -13.2071 -6.7658 13.0766
v -26.0118 -5.2708 15.8393
v -24.0921 -3.6527 13.9421
v -21.7687 -2.0347 12.0449
v -14.0657 -5.7033 15.7433
v -12.4653 -4.1705 14.2317
v -23.1097 -0.9961 14.7116
v -20.2162 -0.5066 13.6127
v -15.8876 -0.0690 13.9643
v -12.6201 -1.1185 13.9643
v -30.0521 -10.0085 19.1779
v -28.7131 -10.0085 19.1779
v -30.1110 -7.8713 19.2415
v -27.3624 -7.9751 18.1491
v -23.8876 -8.2766 17.9643
v -19.8876 -8.4973 17.9643
v -16.7710 -7.2477 17.9643
v -30.0210 -4.9459 19.7869
v -27.9106 -3.7750 17.9446
v -25.7764 -2.6041 16.1022
v -15.3051 -4.1705 18.2679
v -13.0289 -3.0367 17.1370
v -27.1428 -1.2488 18.7688
v -24.2209 -0.4599 17.6470
v -19.8876 -0.0896 17.9643
v -16.1984 -1.1211 18.2679
v -13.0289 -1.2667 17.1370
v -30.0521 -10.0085 20.2138
v -28.7131 -10.0085 20.2138
v -30.0905 -7.4884 21.7140
v -27.5829 -8.6274 21.7140
v -23.5824 -7.5921 22.2689
v -19.8876 -7.2169 21.0823
v -17.5540 -6.6960 20.2807
v -33.9527 -2.0571 23.6969
v -31.3078 -3.5015 21.8863
v -29.8094 -2.2792 20.0758
v -22.2092 -3.8713 23.7226
v -19.8876 -3.8713 21.9667
v -17.5260 -3.8713 20.2084
v -33.9527 -1.7880 23.6969
v -31.8876 -1.2620 22.8474
v -28.1971 0.1378 21.7854
v -23.7899 0.2006 22.3147
v -19.8876 -1.2217 20.8487
v -17.7390 -1.8598 19.9735
v -26.5849 2.5419 23.4951
v -25.4213 2.5419 23.4951
v -30.0989 -5.9923 25.9643
v -27.8876 -6.6062 25.9643
v -24.7839 -6.4853 25.9643
v -33.9527 -2.0571 24.2137
v -31.8561 -3.5828 25.7139
v -23.6933 -3.8713 25.9643
v -33.9527 -1.7880 24.2137
v -31.6871 -1.2621 25.7139
v -27.9060 0.8962 26.2419
v -24.7354 0.3369 26.2419
v -26.5849 2.5419 25.0936
v -25.4213 2.5419 25.0936
v -38.1608 -6.5170 31.3718
v -35.8876 -6.9797 31.1830
v -31.6324 -6.7415 30.0947
v -27.5337 -6.3680 30.2700
v -25.5913 -6.0809 29.1405
v -38.1608 -5.0837 31.3718
v -36.1344 -3.7987 30.7726
v -32.3180 -3.8713 28.9191
v -25.9644 -4.9121 31.8071
v -25.4695 -3.6958 30.2700
v -34.8355 0.1287 31.1542
v -31.9754 -0.1978 30.0909
v -27.8876 -0.5925 29.9643
v -25.5872 -1.1028 29.9643
v -34.0735 2.2175 31.8284
v -33.7307 2.2175 31.8284
v -38.4182 -14.1555 35.5711
v -37.2588 -14.1555 35.5711
v -38.9397 -11.8713 35.0452
v -35.9103 -11.9512 34.6304
v -32.7080 -10.6712 34.9665
v -38.4603 -7.7152 33.9420
v -36.5450 -7.8084 33.8033
v -31.5799 -8.9150 33.7656
v -28.6164 -7.0519 33.9643
v -38.1608 -5.0837 32.7519
v -36.1936 -3.8101 34.1547
v -31.8876 -2.9575 35.1830
v -27.7068 -3.7832 33.6532
v -25.8787 -2.2455 31.9770
v -34.8355 0.1287 32.7917
v -32.1935 0.0151 33.0453
v -27.8876 -1.5051 32.4977
v -25.8787 -1.8604 31.9770
v -34.0735 2.2175 32.1411
v -33.7307 2.2175 32.1411
v -46.9114 -14.8584 38.8891
v -43.8876 -14.6390 39.1027
v -40.0948 -14.0317 38.2737
v -37.2588 -14.1555 36.6566
v -46.9114 -12.6981 38.8891
v -44.1425 -11.5674 38.7881
v -40.1533 -12.4333 38.1674
v -35.9103 -12.4143 37.9797
v -32.8896 -10.5666 37.9643
v -42.9791 -8.9991 39.1528
v -39.9812 -7.6229 37.8838
v -36.1146 -6.5972 37.9185
v -31.8890 -8.2872 37.7480
v -29.4492 -6.9600 36.2739
v -38.5359 -5.6315 39.2814
v -36.1146 -5.4173 37.9185
v -31.8876 -4.9575 36.6399
v -29.4492 -5.3210 36.2739
v -50.4139 -18.4516 43.2853
v -48.7645 -18.4516 43.2853
v -50.7669 -15.8713 42.7496
v -47.8379 -16.2647 41.8212
v -43.8876 -15.6203 41.9643
v -41.6538 -14.0303 41.9643
v -50.4022 -11.8713 43.2134
v -48.3701 -11.6333 42.1303
v -45.2316 -10.5143 41.9643
v -39.5837 -11.8581 41.9155
v -35.8876 -10.4502 40.4740
v -33.7366 -9.9986 40.0585
v -49.9275 -9.8499 43.9036
v -49.8288 -9.8499 43.9036
v -43.2316 -8.6771 41.9643
v -39.7810 -7.7418 41.9665
v -36.0395 -8.1172 40.8234
v -33.7366 -9.6145 40.0585
v -38.5359 -5.6315 40.7165
v -37.4742 -5.6315 40.7165
v -50.4139 -18.4516 44.6379
v -48.7645 -18.4516 44.6379
v -50.6710 -15.5895 45.9684
v -47.7707 -15.8696 46.1390
v -43.8876 -14.8526 45.1778
v -41.6921 -14.0468 44.5732
v -50.3792 -12.1017 45.6269
v -48.3029 -12.0786 45.8544
v -43.9079 -11.8897 45.3304
v -41.0949 -11.8713 44.9152
v -49.9275 -9.8499 44.0687
v -49.8288 -9.8499 44.0687
v -42.5880 -9.1512 44.6232
v -41.0261 -9.1512 44.6232
v -50.0208 -14.0682 48.0381
v -49.4437 -14.0682 48.0381
v -50.0208 -13.5886 48.0381
v -49.4437 -13.5886 48.0381
f 3 2 1
f 3 4 2
f 7 3 6
f 7 4 3
f 8 4 7
f 8 5 4
f 10 6 9
f 10 7 6
f 14 1 2
f 14 13 1
f 16 12 11
f 16 17 12
f 18 1 13
f 18 3 1
f 18 12 17
f 18 13 12
f 19 14 2
f 19 2 4
f 5 19 4
f 5 20 19
f 19 15 14
f 19 20 15
f 18 6 3
f 18 22 6
f 20 5 8
f 20 8 24
f 8 7 23
f 8 23 24
f 22 9 6
f 22 26 9
f 25 22 21
f 25 26 22
f 23 7 10
f 23 10 27
f 27 10 9
f 27 9 26
f 28 23 27
f 28 24 23
f 31 30 29
f 31 32 30
f 38 11 12
f 38 37 11
f 38 33 37
f 38 34 33
f 39 12 13
f 39 38 12
f 39 34 38
f 39 35 34
f 14 39 13
f 14 40 39
f 39 36 35
f 39 40 36
f 15 40 14
f 15 41 40
f 42 11 37
f 42 16 11
f 17 16 42
f 17 42 43
f 42 37 38
f 42 38 43
f 44 18 17
f 44 17 43
f 45 41 15
f 45 15 20
f 44 22 18
f 44 47 22
f 47 21 22
f 47 46 21
f 45 20 24
f 45 24 48
f 46 25 21
f 46 50 25
f 26 25 50
f 26 50 51
f 50 46 47
f 50 47 51
f 52 27 26
f 52 26 51
f 48 24 28
f 48 28 53
f 28 27 52
f 28 52 53
f 53 49 48
f 53 54 49
f 30 56 29
f 30 57 56
f 56 52 51
f 56 57 52
f 58 52 57
f 58 53 52
f 59 55 54
f 59 60 55
f 61 29 56
f 61 31 29
f 62 57 30
f 62 30 32
f 32 31 61
f 32 61 62
f 62 61 56
f 62 56 57
f 64 33 34
f 64 63 33
f 65 34 35
f 65 64 34
f 36 65 35
f 36 66 65
f 68 33 63
f 68 37 33
f 69 38 37
f 69 37 68
f 70 66 36
f 70 36 40
f 41 70 40
f 41 71 70
f 72 68 67
f 72 73 68
f 69 43 38
f 69 74 43
f 73 69 68
f 73 74 69
f 44 43 74
f 44 74 75
f 76 71 41
f 76 41 45
f 77 74 73
f 77 78 74
f 75 47 44
f 75 79 47
f 78 75 74
f 78 79 75
f 80 76 45
f 80 45 48
f 49 80 48
f 49 81 80
f 83 47 79
f 83 51 47
f 85 81 49
f 85 49 54
f 54 53 84
f 54 84 85
f 55 85 54
f 55 86 85
f 85 82 81
f 85 86 82
f 83 56 51
f 83 88 56
f 89 57 56
f 89 56 88
f 84 53 58
f 84 58 90
f 58 57 89
f 58 89 90
f 85 59 54
f 85 91 59
f 91 84 90
f 91 85 84
f 86 55 60
f 86 60 92
f 92 60 59
f 92 59 91
f 94 87 93
f 94 88 87
f 94 89 88
f 94 95 89
f 96 89 95
f 96 90 89
f 98 91 97
f 98 92 91
f 101 100 99
f 101 102 100
f 107 101 106
f 107 102 101
f 108 63 64
f 108 107 63
f 107 103 102
f 107 108 103
f 65 108 64
f 65 109 108
f 108 104 103
f 108 109 104
f 110 65 66
f 110 109 65
f 111 106 105
f 111 112 106
f 113 63 107
f 113 68 63
f 113 67 68
f 113 112 67
f 113 106 112
f 113 107 106
f 114 110 66
f 114 66 70
f 71 114 70
f 71 115 114
f 117 67 112
f 117 72 67
f 118 73 72
f 118 72 117
f 120 115 71
f 120 71 76
f 120 116 115
f 120 121 116
f 118 77 73
f 118 122 77
f 78 77 122
f 78 122 123
f 122 118 119
f 122 119 123
f 124 79 78
f 124 78 123
f 125 120 76
f 125 76 80
f 81 125 80
f 81 126 125
f 126 120 125
f 126 121 120
f 82 126 81
f 82 127 126
f 124 83 79
f 124 129 83
f 128 124 123
f 128 129 124
f 130 127 82
f 130 82 86
f 132 83 129
f 132 88 83
f 132 87 88
f 132 131 87
f 132 128 131
f 132 129 128
f 134 91 90
f 134 90 133
f 130 86 92
f 130 92 135
f 137 87 131
f 137 93 87
f 138 94 93
f 138 93 137
f 139 95 94
f 139 94 138
f 133 90 96
f 133 96 140
f 96 95 139
f 96 139 140
f 134 97 91
f 134 141 97
f 141 133 140
f 141 134 133
f 135 92 98
f 135 98 142
f 98 97 141
f 98 141 142
f 142 136 135
f 142 143 136
f 145 99 100
f 145 144 99
f 144 101 99
f 144 148 101
f 149 145 100
f 149 100 102
f 103 149 102
f 103 150 149
f 104 150 103
f 104 151 150
f 153 147 146
f 153 154 147
f 155 101 148
f 155 106 101
f 155 105 106
f 155 154 105
f 155 147 154
f 155 148 147
f 156 151 104
f 156 104 109
f 110 156 109
f 110 157 156
f 156 152 151
f 156 157 152
f 160 105 154
f 160 111 105
f 161 112 111
f 161 111 160
f 162 157 110
f 162 110 114
f 163 114 115
f 163 162 114
f 162 158 157
f 162 163 158
f 116 163 115
f 116 164 163
f 163 159 158
f 163 164 159
f 161 117 112
f 161 166 117
f 165 161 160
f 165 166 161
f 167 118 117
f 167 117 166
f 119 118 167
f 119 167 168
f 169 164 116
f 169 116 121
f 171 119 168
f 171 123 119
f 170 168 167
f 170 171 168
f 172 169 121
f 172 121 126
f 127 172 126
f 127 173 172
f 171 128 123
f 171 175 128
f 174 171 170
f 174 175 171
f 179 173 127
f 179 127 130
f 180 128 175
f 180 131 128
f 182 181 176
f 182 176 177
f 183 182 177
f 183 177 178
f 184 179 130
f 184 130 135
f 183 178 179
f 183 179 184
f 136 184 135
f 136 185 184
f 180 137 131
f 180 186 137
f 187 138 137
f 187 137 186
f 188 139 138
f 188 138 187
f 189 140 139
f 189 139 188
f 189 188 181
f 189 181 182
f 190 141 140
f 190 140 189
f 190 189 182
f 190 182 183
f 142 141 190
f 142 190 191
f 190 183 184
f 190 184 191
f 185 136 143
f 185 143 192
f 143 142 191
f 143 191 192
f 191 184 185
f 191 185 192
f 194 144 145
f 194 193 144
f 196 146 147
f 196 195 146
f 197 144 193
f 197 148 144
f 197 147 148
f 197 196 147
f 194 145 149
f 194 149 198
f 199 149 150
f 199 198 149
f 151 199 150
f 151 200 199
f 152 200 151
f 152 201 200
f 195 153 146
f 195 203 153
f 204 154 153
f 204 153 203
f 206 201 152
f 206 152 157
f 205 200 201
f 205 201 206
f 158 206 157
f 158 207 206
f 208 158 159
f 208 207 158
f 210 202 209
f 210 203 202
f 204 160 154
f 204 211 160
f 210 204 203
f 210 211 204
f 215 208 159
f 215 159 164
f 214 207 208
f 214 208 215
f 211 165 160
f 211 216 165
f 217 166 165
f 217 165 216
f 218 167 166
f 218 166 217
f 217 212 213
f 217 213 218
f 219 215 164
f 219 164 169
f 220 167 218
f 220 170 167
f 222 219 169
f 222 169 172
f 223 172 173
f 223 222 172
f 220 174 170
f 220 224 174
f 225 175 174
f 225 174 224
f 228 177 176
f 228 176 227
f 229 178 177
f 229 177 228
f 229 228 221
f 229 221 222
f 230 223 173
f 230 173 179
f 230 179 178
f 230 178 229
f 229 222 223
f 229 223 230
f 225 180 175
f 225 232 180
f 231 225 224
f 231 232 225
f 234 227 176
f 234 176 181
f 234 233 226
f 234 226 227
f 235 180 232
f 235 186 180
f 187 186 235
f 187 235 236
f 235 232 233
f 235 233 236
f 237 234 181
f 237 181 188
f 237 188 187
f 237 187 236
f 237 236 233
f 237 233 234
f 194 243 193
f 194 244 243
f 244 238 243
f 244 239 238
f 247 241 240
f 247 248 241
f 249 195 196
f 249 248 195
f 250 193 243
f 250 197 193
f 250 196 197
f 250 249 196
f 250 242 249
f 250 243 242
f 251 244 194
f 251 194 198
f 199 251 198
f 199 252 251
f 251 245 244
f 251 252 245
f 253 199 200
f 253 252 199
f 252 246 245
f 252 253 246
f 256 195 248
f 256 203 195
f 256 202 203
f 256 255 202
f 256 247 255
f 256 248 247
f 253 200 205
f 253 205 257
f 258 205 206
f 258 257 205
f 259 206 207
f 259 258 206
f 261 202 255
f 261 209 202
f 260 255 254
f 260 261 255
f 262 210 209
f 262 209 261
f 211 210 262
f 211 262 263
f 265 213 212
f 265 212 264
f 268 267 257
f 268 257 258
f 259 207 214
f 259 214 269
f 268 258 259
f 268 259 269
f 270 214 215
f 270 269 214
f 271 211 263
f 271 216 211
f 272 264 212
f 272 212 217
f 217 216 271
f 217 271 272
f 271 263 264
f 271 264 272
f 273 213 265
f 273 218 213
f 275 274 266
f 275 266 267
f 276 268 269
f 276 269 277
f 270 215 219
f 270 219 278
f 277 269 270
f 277 270 278
f 280 218 273
f 280 220 218
f 279 273 272
f 279 280 273
f 283 282 276
f 283 276 277
f 284 278 219
f 284 219 222
f 284 222 221
f 284 221 283
f 284 283 277
f 284 277 278
f 285 220 280
f 285 224 220
f 288 227 226
f 288 226 287
f 288 287 281
f 288 281 282
f 289 283 221
f 289 221 228
f 289 228 227
f 289 227 288
f 289 288 282
f 289 282 283
f 285 231 224
f 285 290 231
f 291 232 231
f 291 231 290
f 290 285 286
f 290 286 291
f 292 287 226
f 292 226 233
f 292 233 232
f 292 232 291
f 239 293 238
f 239 294 293
f 296 240 241
f 296 295 240
f 298 238 293
f 298 243 238
f 298 242 243
f 298 297 242
f 299 294 239
f 299 239 244
f 299 298 293
f 299 293 294
f 245 299 244
f 245 300 299
f 301 245 246
f 301 300 245
f 295 247 240
f 295 303 247
f 304 296 241
f 304 241 248
f 305 242 297
f 305 249 242
f 249 304 248
f 249 305 304
f 307 301 246
f 307 246 253
f 306 300 301
f 306 301 307
f 309 247 303
f 309 255 247
f 309 254 255
f 309 308 254
f 309 302 308
f 309 303 302
f 310 307 253
f 310 253 257
f 311 254 308
f 311 260 254
f 312 261 260
f 312 260 311
f 262 261 312
f 262 312 313
f 263 262 313
f 263 313 314
f 315 264 263
f 315 263 314
f 316 265 264
f 316 264 315
f 310 257 267
f 310 267 318
f 318 267 266
f 318 266 317
f 319 267 268
f 319 318 267
f 320 313 312
f 320 321 313
f 323 265 316
f 323 273 265
f 323 272 273
f 323 322 272
f 322 316 315
f 322 323 316
f 317 266 274
f 317 274 324
f 318 275 267
f 318 325 275
f 275 324 274
f 275 325 324
f 324 318 317
f 324 325 318
f 319 268 276
f 319 276 326
f 325 318 319
f 325 319 326
f 322 279 272
f 322 327 279
f 328 280 279
f 328 279 327
f 330 326 276
f 330 276 282
f 330 282 281
f 330 281 329
f 330 329 325
f 330 325 326
f 331 280 328
f 331 285 280
f 286 285 331
f 286 331 332
f 333 329 281
f 333 281 287
f 334 286 332
f 334 291 286
f 335 333 287
f 335 287 292
f 292 291 334
f 292 334 335
f 334 332 333
f 334 333 335
f 296 338 295
f 296 339 338
f 341 297 298
f 341 340 297
f 342 298 299
f 342 341 298
f 300 342 299
f 300 343 342
f 344 337 336
f 344 345 337
f 346 295 338
f 346 303 295
f 346 302 303
f 346 345 302
f 347 339 296
f 347 296 304
f 347 346 338
f 347 338 339
f 348 297 340
f 348 305 297
f 348 304 305
f 348 347 304
f 348 339 347
f 348 340 339
f 343 300 306
f 343 306 349
f 350 306 307
f 350 349 306
f 352 302 345
f 352 308 302
f 352 344 351
f 352 345 344
f 350 307 310
f 350 310 354
f 353 349 350
f 353 350 354
f 352 311 308
f 352 356 311
f 355 352 351
f 355 356 352
f 357 312 311
f 357 311 356
f 314 313 358
f 314 358 359
f 360 315 314
f 360 314 359
f 362 354 310
f 362 310 318
f 362 361 353
f 362 353 354
f 363 312 357
f 363 320 312
f 364 358 313
f 364 313 321
f 321 320 363
f 321 363 364
f 364 363 357
f 364 357 358
f 360 322 315
f 360 366 322
f 365 360 359
f 365 366 360
f 362 318 325
f 362 325 369
f 369 368 361
f 369 361 362
f 370 322 366
f 370 327 322
f 328 327 370
f 328 370 371
f 372 371 367
f 372 367 368
f 369 325 329
f 369 329 373
f 373 372 368
f 373 368 369
f 374 328 371
f 374 331 328
f 375 332 331
f 375 331 374
f 376 373 329
f 376 329 333
f 376 333 332
f 376 332 375
f 375 372 373
f 375 373 376
f 337 377 336
f 337 378 377
f 340 380 339
f 340 381 380
f 382 340 341
f 382 381 340
f 342 382 341
f 342 383 382
f 384 342 343
f 384 383 342
f 377 344 336
f 377 386 344
f 387 378 337
f 387 337 345
f 346 387 345
f 346 388 387
f 387 379 378
f 387 388 379
f 380 347 339
f 380 389 347
f 347 388 346
f 347 389 388
f 390 389 380
f 390 380 381
f 391 390 381
f 391 381 382
f 391 382 383
f 391 383 392
f 384 343 349
f 384 349 393
f 392 383 384
f 392 384 393
f 386 351 344
f 386 395 351
f 395 385 394
f 395 386 385
f 397 389 390
f 397 390 398
f 399 398 390
f 399 390 391
f 399 391 392
f 399 392 400
f 393 349 353
f 393 353 401
f 402 351 395
f 402 355 351
f 403 356 355
f 403 355 402
f 404 357 356
f 404 356 403
f 405 358 357
f 405 357 404
f 405 404 396
f 405 396 397
f 406 359 358
f 406 358 405
f 405 397 398
f 405 398 406
f 407 406 398
f 407 398 399
f 409 401 353
f 409 353 361
f 408 400 401
f 408 401 409
f 406 365 359
f 406 410 365
f 366 365 410
f 366 410 411
f 410 406 407
f 410 407 411
f 411 407 408
f 411 408 412
f 413 409 361
f 413 361 368
f 413 368 367
f 413 367 412
f 413 412 408
f 413 408 409
f 414 366 411
f 414 370 366
f 415 412 367
f 415 367 371
f 371 370 414
f 371 414 415
f 414 411 412
f 414 412 415
f 416 371 372
f 416 415 371
f 417 371 415
f 417 374 371
f 416 372 375
f 416 375 418
f 418 375 374
f 418 374 417
f 417 415 416
f 417 416 418
f 378 419 377
f 378 420 419
f 379 420 378
f 379 421 420
f 419 386 377
f 419 424 386
f 424 385 386
f 424 423 385
f 425 424 419
f 425 419 420
f 421 379 388
f 421 388 426
f 425 420 421
f 425 421 426
f 427 388 389
f 427 426 388
f 429 392 393
f 429 428 392
f 423 394 385
f 423 431 394
f 430 423 422
f 430 431 423
f 432 395 394
f 432 394 431
f 433 425 426
f 433 426 434
f 427 389 397
f 427 397 435
f 435 397 396
f 435 396 434
f 434 426 427
f 434 427 435
f 428 400 392
f 428 437 400
f 400 436 399
f 400 437 436
f 429 393 401
f 429 401 438
f 438 401 400
f 438 400 437
f 438 437 428
f 438 428 429
f 432 402 395
f 432 440 402
f 439 432 431
f 439 440 432
f 441 403 402
f 441 402 440
f 442 434 396
f 442 396 404
f 442 404 403
f 442 403 441
f 442 441 433
f 442 433 434
f 443 399 436
f 443 407 399
f 444 437 400
f 444 400 408
f 408 407 443
f 408 443 444
f 444 443 436
f 444 436 437
f 447 422 423
f 447 446 422
f 424 447 423
f 424 448 447
f 449 424 425
f 449 448 424
f 446 430 422
f 446 451 430
f 450 446 445
f 450 451 446
f 452 431 430
f 452 430 451
f 449 425 433
f 449 433 454
f 453 448 449
f 453 449 454
f 452 439 431
f 452 456 439
f 455 452 451
f 455 456 452
f 457 440 439
f 457 439 456
f 458 454 433
f 458 433 441
f 458 441 440
f 458 440 457
f 461 460 459
f 461 462 460
f 463 445 446
f 463 462 445
f 447 463 446
f 447 464 463
f 465 447 448
f 465 464 447
f 467 445 462
f 467 450 445
f 466 462 461
f 466 467 462
f 468 451 450
f 468 450 467
f 465 448 453
f 465 453 469
f 470 453 454
f 470 469 453
f 468 455 451
f 468 472 455
f 471 468 467
f 471 472 468
f 473 456 455
f 473 455 472
f 457 456 473
f 457 473 474
f 470 454 458
f 470 458 475
f 475 458 457
f 475 457 474
f 475 474 469
f 475 469 470
f 460 476 459
f 460 477 476
f 476 461 459
f 476 478 461
f 479 477 460
f 479 460 462
f 479 478 476
f 479 476 477
f 463 479 462
f 463 480 479
f 481 463 464
f 481 480 463
f 482 464 465
f 482 481 464
f 478 466 461
f 478 484 466
f 485 467 466
f 485 466 484
f 486 480 481
f 486 481 487
f 482 465 469
f 482 469 488
f 487 481 482
f 487 482 488
f 490 483 489
f 490 484 483
f 485 471 467
f 485 491 471
f 490 485 484
f 490 491 485
f 492 472 471
f 492 471 491
f 493 473 472
f 493 472 492
f 493 492 486
f 493 486 487
f 488 469 474
f 488 474 494
f 494 474 473
f 494 473 493
f 494 493 487
f 494 487 488
f 495 492 491
f 495 496 492
f 498 478 479
f 498 497 478
f 499 479 480
f 499 498 479
f 497 484 478
f 497 501 484
f 501 483 484
f 501 500 483
f 499 480 486
f 499 486 502
f 500 489 483
f 500 503 489
f 490 489 503
f 490 503 504
f 504 503 500
f 504 500 501
f 491 490 504
f 491 504 505
f 502 486 492
f 502 492 506
f 505 495 491
f 505 507 495
f 506 492 496
f 506 496 508
f 496 495 507
f 496 507 508
f 507 505 506
f 507 506 508
f 512 497 498
f 512 511 497
f 513 498 499
f 513 512 498
f 514 510 509
f 514 515 510
f 516 497 511
f 516 501 497
f 516 510 515
f 516 511 510
f 513 499 502
f 513 502 518
f 517 512 513
f 517 513 518
f 516 504 501
f 516 520 504
f 519 516 515
f 519 520 516
f 505 504 520
f 505 520 521
f 522 518 502
f 522 502 506
f 522 506 505
f 522 505 521
f 524 519 523
f 524 520 519
f 527 526 525
f 527 528 526
f 531 509 510
f 531 530 509
f 531 527 530
f 531 528 527
f 532 510 511
f 532 531 510
f 531 529 528
f 531 532 529
f 533 511 512
f 533 532 511
f 534 509 530
f 534 514 509
f 515 514 534
f 515 534 535
f 534 530 531
f 534 531 535
f 533 512 517
f 533 517 537
f 538 517 518
f 538 537 517
f 539 515 535
f 539 519 515
f 539 535 536
f 539 536 540
f 541 521 520
f 541 520 540
f 541 540 536
f 541 536 537
f 538 518 522
f 538 522 542
f 542 522 521
f 542 521 541
f 541 537 538
f 541 538 542
f 539 523 519
f 539 543 523
f 540 520 524
f 540 524 544
f 524 523 543
f 524 543 544
f 544 543 539
f 544 539 540
f 548 525 526
f 548 547 525
f 549 546 545
f 549 550 546
f 551 525 547
f 551 527 525
f 551 546 550
f 551 547 546
f 552 548 526
f 552 526 528
f 551 547 548
f 551 548 552
f 553 528 529
f 553 552 528
f 555 527 551
f 555 530 527
f 554 551 550
f 554 555 551
f 556 531 530
f 556 530 555
f 557 553 529
f 557 529 532
f 558 532 533
f 558 557 532
f 556 535 531
f 556 560 535
f 559 556 555
f 559 560 556
f 561 536 535
f 561 535 560
f 561 560 556
f 561 556 557
f 562 558 533
f 562 533 537
f 562 537 536
f 562 536 561
f 561 557 558
f 561 558 562
f 565 564 563
f 565 566 564
f 567 545 546
f 567 566 545
f 568 546 547
f 568 567 546
f 566 549 545
f 566 570 549
f 570 565 569
f 570 566 565
f 571 550 549
f 571 549 570
f 572 568 547
f 572 547 551
f 573 551 552
f 573 572 551
f 574 552 553
f 574 573 552
f 576 569 575
f 576 570 569
f 571 554 550
f 571 577 554
f 578 555 554
f 578 554 577
f 578 572 573
f 578 573 579
f 580 574 553
f 580 553 557
f 580 557 556
f 580 556 579
f 580 579 573
f 580 573 574
f 578 559 555
f 578 581 559
f 582 579 556
f 582 556 560
f 582 560 559
f 582 559 581
f 582 581 578
f 582 578 579
f 564 583 563
f 564 584 583
f 583 565 563
f 583 585 565
f 584 564 566
f 584 566 586
f 585 583 584
f 585 584 586
f 587 566 567
f 587 586 566
f 588 567 568
f 588 587 567
f 585 569 565
f 585 589 569
f 571 570 590
f 571 590 591
f 590 586 587
f 590 587 591
f 592 588 568
f 592 568 572
f 591 587 588
f 591 588 592
f 593 569 589
f 593 575 569
f 594 590 570
f 594 570 576
f 576 575 593
f 576 593 594
f 594 593 589
f 594 589 590
f 595 571 591
f 595 577 571
f 596 592 572
f 596 572 578
f 596 578 577
f 596 577 595
f 595 591 592
f 595 592 596
f 598 585 586
f 598 597 585
f 599 585 597
f 599 589 585
f 598 586 590
f 598 590 600
f 600 590 589
f 600 589 599
f 599 597 598
f 599 598 600
