# parsimony mesh: eg11620_monomer (source /Users/eranagmon/code/v2e-flagella/workspace/studies/ecoli-3d/viz/3d/structures/eg11620_monomer.pdb)
# atoms: 5104  voxel: 8 Å  verts: 472  tris: 996
v 32.8514 -32.4965 -44.9335
v 33.4895 -32.4965 -44.9335
v 32.8514 -32.2057 -44.9335
v 33.4895 -32.2057 -44.9335
v 31.3208 -33.8118 -40.8238
v 34.4549 -33.8118 -40.8238
v 31.3208 -31.2709 -40.8238
v 34.4549 -31.2709 -40.8238
v 7.6629 -16.9846 -37.5579
v 9.8967 -16.9846 -37.5579
v -7.4027 -8.9358 -37.4007
v -2.9605 -9.2619 -37.8761
v 4.5576 -12.1645 -37.6040
v 9.8967 -15.3319 -37.5579
v -7.4027 -6.0756 -37.4007
v -3.6236 -3.7955 -38.0522
v 1.6668 -4.3754 -37.9267
v -1.3991 0.7640 -37.4681
v 1.4630 0.7640 -37.4681
v 31.9899 -41.0465 -30.6746
v 34.0318 -41.0465 -30.6746
v 24.9131 -32.5975 -29.7994
v 28.7963 -36.0502 -32.9037
v 35.2895 -36.6519 -33.1343
v 24.9131 -32.2124 -29.7994
v 28.5774 -30.5634 -32.6091
v 35.1078 -30.2327 -32.8238
v -15.4175 -16.8627 -29.2850
v -10.9605 -17.9369 -29.8591
v -2.9605 -17.9670 -30.3409
v 5.0136 -18.2961 -32.6860
v 11.2605 -18.3807 -32.8238
v -16.7278 -12.3754 -30.1167
v -10.4258 -11.9116 -33.6096
v -2.9605 -13.2619 -34.3409
v 4.5576 -12.1645 -34.8711
v 13.1868 -12.9379 -32.2036
v 21.0395 -11.5252 -30.2523
v 25.9806 -10.4066 -29.6264
v -16.5557 -4.3754 -31.1000
v -10.4258 -3.7955 -35.3686
v -6.7324 -0.7423 -36.6970
v 5.6668 -4.3754 -33.1718
v 12.3864 -4.5397 -29.7634
v 21.0395 -6.6275 -30.2523
v 25.9806 -7.1043 -29.6264
v -15.1881 0.2993 -30.5960
v -10.8445 3.2294 -32.0311
v -3.5601 3.6287 -33.2771
v 4.4936 1.3289 -32.1077
v 9.2843 -0.2098 -28.9635
v -8.1005 8.3618 -29.8573
v -5.7212 8.3618 -29.8573
v 31.9899 -41.0465 -27.1781
v 34.0318 -41.0465 -27.1781
v 24.9131 -32.5975 -27.0596
v 28.6327 -35.8773 -24.4522
v 34.8849 -36.4444 -24.6364
v 16.6614 -24.4376 -20.9541
v 22.6996 -28.8459 -23.9922
v 28.0589 -28.8004 -23.5473
v 34.6020 -29.4486 -24.8238
v -15.4175 -16.8627 -28.3348
v -10.9605 -17.9369 -26.6568
v -3.6016 -18.0249 -24.1836
v 5.0395 -20.1846 -24.8238
v 13.9025 -21.0042 -24.6544
v 21.0395 -20.3754 -24.8873
v 29.7290 -21.0361 -23.1739
v 34.3443 -18.8099 -21.6505
v -16.7278 -12.3754 -27.2278
v -11.0083 -13.0726 -22.9068
v -6.6957 -16.2041 -21.0902
v 16.4769 -15.8772 -28.3546
v 21.0395 -15.5252 -28.0193
v 28.8042 -12.7941 -26.1015
v 37.0224 -12.1575 -22.4709
v 41.4322 -9.3457 -22.1694
v -16.5557 -4.3754 -26.1904
v -13.7781 -4.3754 -22.1904
v 14.6177 -1.9826 -27.0745
v 21.0395 -2.6275 -26.4717
v 29.1866 -4.2634 -24.4169
v 37.0395 -6.4489 -22.2627
v 41.4322 -7.4263 -22.1694
v -15.0929 3.5629 -23.9648
v -14.0358 3.5629 -23.9648
v -0.1576 6.6727 -24.8238
v 4.6930 5.3624 -24.1103
v 12.3864 2.9240 -24.8802
v 21.1344 4.0427 -22.3616
v 27.0593 1.6547 -22.1036
v -15.4125 11.6246 -21.3836
v -10.9219 11.3204 -23.8637
v -2.4488 10.8769 -23.3065
v 4.9604 10.7620 -21.1256
v 13.0395 8.6393 -21.2063
v 18.5309 8.2334 -21.1896
v -15.5260 16.5096 -21.4160
v -13.7432 16.5096 -21.4160
v -0.1704 16.4641 -21.2833
v 2.7922 16.4641 -21.2833
v 30.6088 -33.8238 -18.8133
v 33.8024 -33.8238 -18.8133
v 16.1747 -24.6718 -16.8238
v 21.0395 -27.1162 -16.8238
v 29.5395 -28.1943 -17.6765
v 33.8024 -30.0270 -18.8133
v -1.3624 -17.0024 -19.3596
v 4.6773 -18.7395 -16.7453
v 12.1747 -22.8602 -16.8238
v 32.7376 -24.0047 -16.8238
v 34.4259 -20.0047 -16.8238
v -23.3345 -8.6527 -13.1096
v -22.3535 -8.6527 -13.1096
v -9.1123 -11.0832 -16.8238
v -2.9682 -12.8473 -16.2405
v 1.8468 -12.3754 -13.9488
v 32.4091 -9.4322 -13.8236
v 36.6305 -12.0556 -16.9903
v 41.4322 -9.3457 -20.1570
v -23.3345 -7.2094 -13.1096
v -19.6439 -4.4850 -14.1454
v -13.2883 -4.4065 -17.4382
v 0.7593 -7.9428 -13.1214
v 1.3863 -7.9428 -13.1214
v 22.7218 -1.0574 -13.4851
v 29.7342 -3.9066 -16.3210
v 37.0395 -6.4489 -19.0735
v 41.4322 -7.4263 -20.1570
v -16.4123 3.9458 -17.4382
v -14.6377 1.4932 -20.5145
v 0.8708 7.4866 -20.7099
v 1.7953 7.4866 -20.7099
v 15.5006 5.1487 -14.4725
v 22.0070 4.6482 -15.5394
v 26.1546 4.3980 -16.0729
v -16.7581 11.6246 -16.8238
v -8.4099 14.2790 -19.4513
v -2.3165 11.0504 -20.0806
v 4.9604 10.7620 -20.4710
v 14.0943 11.1887 -16.9723
v 20.4971 10.4642 -15.9930
v 26.2375 11.6246 -13.4586
v -16.4237 17.5839 -16.8238
v -11.0301 18.1384 -16.8003
v -3.1545 19.4996 -16.7336
v 5.2911 19.3283 -18.7864
v 13.0395 19.6246 -16.3065
v 20.8358 19.2430 -13.7683
v 26.4264 16.3219 -13.1666
v -0.8052 24.6940 -14.0159
v 5.0395 26.2050 -14.7209
v 13.0395 26.2438 -14.2832
v 18.0334 24.7457 -13.4323
v 16.2645 -24.7084 -12.2229
v 21.0395 -25.1705 -11.9902
v 27.4878 -25.1025 -12.3133
v -24.1410 -16.5568 -4.9154
v -18.9605 -16.6456 -5.0482
v -14.3521 -16.5542 -5.0314
v 7.1025 -17.8286 -11.2802
v 13.3745 -20.4473 -9.9390
v 21.0395 -20.3754 -8.0941
v 29.7085 -21.0181 -10.4342
v 33.5833 -18.7800 -11.8830
v -31.7208 -10.7332 -5.6890
v -26.4044 -12.3596 -7.9689
v -19.3963 -11.7418 -8.9770
v -11.3843 -12.2315 -8.2391
v -2.3286 -10.2029 -9.3609
v 4.0565 -10.9469 -9.3582
v 13.0395 -12.3754 -8.0470
v 20.9633 -13.1025 -5.6724
v 29.3611 -12.8430 -8.4210
v 33.5833 -14.7655 -11.8830
v -31.8598 -4.3754 -5.7112
v -26.3849 -4.4758 -9.8265
v -19.6439 -4.4850 -11.7126
v -13.7499 -7.0939 -11.4468
v 0.7593 -7.9428 -12.3856
v 4.0943 -5.9043 -9.6152
v 13.0395 -4.3754 -10.3795
v 20.6512 -2.9534 -9.4698
v 27.3926 -3.9846 -9.0546
v -31.3992 0.1321 -5.1418
v -26.9605 1.4275 -6.4283
v -20.8102 3.9624 -9.1166
v 7.1908 1.4329 -6.5466
v 14.0943 3.3710 -9.5309
v 20.2450 2.6635 -10.2611
v 26.2945 4.1346 -9.0546
v -17.2570 11.8906 -8.4851
v -14.0661 14.7346 -5.5926
v 15.5006 9.2546 -11.5708
v 19.4349 9.2546 -11.5708
v 29.9594 11.3048 -9.1574
v 34.0876 13.7583 -6.7132
v -16.3459 17.3520 -10.9259
v -11.1101 19.9436 -8.6739
v -6.1386 22.5352 -11.7551
v 23.1426 21.2463 -8.8238
v 29.0717 18.3033 -9.1574
v 34.0876 17.9269 -6.7132
v -8.1542 24.1578 -6.4218
v -3.2673 24.7070 -8.9826
v 5.8281 29.0097 -8.1514
v 12.3087 30.2230 -8.1514
v 19.1426 26.0942 -8.8238
v 9.0205 31.6341 -5.0364
v 9.1547 31.6341 -5.0364
v -8.2700 -24.6551 2.8926
v -6.6517 -24.6551 2.8926
v -25.4095 -17.4344 -0.8238
v -18.9605 -18.9473 -0.8238
v -11.3110 -20.0507 -0.4379
v -5.5898 -20.3754 1.7551
v -39.4278 -9.0554 2.5910
v -34.6167 -11.3486 -0.3749
v -29.4095 -15.5820 -0.8238
v -9.0188 -14.9726 -3.7683
v -2.5636 -12.0074 -0.8106
v 1.6694 -9.0423 -3.1863
v 23.5792 -10.9205 -3.4585
v 26.3131 -10.9205 -3.4585
v -39.4278 -7.6520 2.5910
v -35.5760 -4.7413 -0.3749
v -7.5463 -0.9494 2.5460
v -2.8132 -4.0527 2.3465
v 2.5321 -4.4437 -0.6413
v 22.6160 -3.8631 -0.8047
v 26.3025 -3.8631 -0.8047
v -32.4460 3.1291 -0.5493
v -26.9605 5.4275 -3.0865
v -18.6935 7.1827 -0.6235
v -10.5120 4.3566 2.2346
v -3.1487 3.6902 1.7785
v 4.8206 4.1539 0.5113
v 13.0395 3.9273 -0.8238
v 19.1054 1.0831 -0.8238
v 27.6948 3.6246 -0.8238
v -31.8374 8.3858 2.3004
v -26.3764 11.2813 1.1390
v -17.7603 10.4372 -0.1791
v -12.2914 11.1621 0.0724
v -2.9605 8.6926 1.9018
v 2.6709 8.2948 2.2914
v 31.0712 9.0744 -0.8238
v 34.4869 13.0744 -0.8238
v -23.3204 16.1488 2.7978
v -18.9605 16.3535 2.1652
v -11.1101 19.3619 -0.5288
v -5.8774 22.6515 2.0693
v 16.7833 23.4574 3.0267
v 21.3256 22.0381 -0.1135
v 29.0395 20.4022 -0.8238
v 34.4869 18.2599 -0.8238
v -8.1542 24.1578 -3.2641
v -3.1106 24.3946 -0.6880
v 5.8281 27.7798 -1.6103
v 12.9690 27.7981 -0.8873
v 18.8497 25.7963 -2.3066
v 9.0205 31.6341 -4.8014
v 9.1547 31.6341 -4.8014
v -15.6069 -24.5626 10.1313
v -11.0666 -24.6088 7.3357
v -6.6517 -24.6551 4.5401
v -25.8081 -18.0509 7.1762
v -18.5483 -22.0189 7.3492
v -11.0666 -23.5758 7.3357
v -5.0473 -20.7128 7.1945
v -39.4278 -9.0554 4.2784
v -34.9983 -11.1535 7.0375
v -29.8081 -15.3380 7.1762
v -0.8676 -12.4608 6.8180
v 5.0395 -9.9697 9.1198
v 13.0395 -10.0602 9.9606
v 18.0724 -9.9717 10.3670
v -39.4278 -7.6520 4.2784
v -36.5238 -4.7413 7.0375
v -8.2538 -1.7693 7.1762
v -1.8500 -3.9392 5.9379
v 3.7781 -3.2422 7.0751
v 13.0395 -4.3754 7.1745
v 21.1469 -2.8666 6.9227
v 25.2589 -0.8549 4.2859
v -34.9635 3.6246 7.1762
v -15.0598 7.5112 3.5023
v -10.4894 4.3572 6.5630
v -3.0028 3.8019 7.0474
v 4.7803 2.9096 6.1032
v 13.0395 1.5142 4.3901
v 21.7685 2.1399 7.1787
v 26.2839 3.6246 5.8496
v -33.0428 11.2813 7.6948
v -28.6538 13.7191 5.3738
v -15.0598 8.0149 3.5023
v -10.9605 8.4827 4.2565
v -2.8229 9.2733 7.0447
v 4.8978 11.3122 8.4730
v 10.4132 14.2351 10.2020
v 23.8924 11.6246 10.2589
v 29.1034 11.5043 6.6816
v 33.9213 14.0907 4.9083
v -31.4685 19.6246 10.8229
v -26.3764 19.1391 6.9029
v -18.9605 20.3535 5.3965
v -10.9605 21.2305 6.3384
v -3.7442 22.0039 7.5088
v 4.8377 19.0636 8.3091
v 13.5982 19.8333 7.0901
v 21.0319 18.3099 7.3695
v 29.0395 17.5768 5.7168
v 33.9213 16.8361 4.9083
v -30.9622 23.6265 11.1741
v -26.2570 26.8258 10.2238
v -18.9605 27.6246 9.0472
v -11.6224 26.8345 10.3869
v -3.7442 23.9073 7.5088
v 5.0395 24.6676 4.3229
v 11.4500 24.4664 3.9781
v -23.1213 31.8242 10.9088
v -18.9605 31.8963 10.8268
v -14.7304 31.7873 10.9778
v -23.8301 -24.9718 17.7799
v -18.4898 -24.7672 14.8779
v -13.8632 -24.5626 11.9760
v -31.5907 -16.9012 17.5128
v -26.9180 -19.8067 14.9797
v -18.4898 -22.9683 14.8779
v -11.1021 -22.8104 14.8561
v -4.7999 -19.2823 15.1762
v -32.9819 -12.7949 14.9781
v -30.0058 -15.7412 12.1794
v -0.7999 -14.6388 15.1762
v 5.0395 -11.8665 15.1762
v 13.0395 -11.5486 15.1762
v 19.0477 -10.3209 15.1762
v -35.9881 -4.3754 15.1762
v -8.0991 -1.6598 12.3498
v -2.9605 -1.9871 12.6800
v 1.9692 -1.2398 12.0077
v 23.0472 -4.4752 14.8410
v 25.7356 -1.8751 17.2842
v -36.8664 3.6246 15.1762
v -8.0991 1.2031 12.3498
v -2.8229 3.7717 12.7889
v 2.5176 3.6246 12.3119
v 24.4033 3.6246 11.9322
v 26.0702 3.6246 15.9322
v -34.6243 11.6246 15.1762
v -0.1376 11.6878 14.5840
v 4.3001 12.5369 14.2222
v 10.4132 14.2351 13.4986
v 22.9341 11.2073 14.5162
v 25.7176 8.2625 16.7429
v -32.0161 19.6246 15.1762
v -7.4868 22.9440 16.6079
v -3.5775 19.4835 14.2918
v 5.4099 15.8639 15.4038
v 13.0637 16.5347 15.7696
v 18.5455 16.7021 15.1762
v -31.2846 24.0324 15.1762
v -27.3329 28.0324 15.1762
v -9.9700 26.8345 14.4352
v -6.9443 23.6411 11.2745
v -23.3329 31.9432 15.1762
v -18.9605 32.3083 15.1762
v -14.3276 31.9898 15.1762
v -23.8301 -24.9718 20.1244
v -21.3727 -24.9718 20.1244
v -31.5907 -16.9012 19.9417
v -26.6823 -19.8908 21.6588
v -19.3366 -20.1839 23.5289
v -10.8143 -18.9338 23.3106
v -5.4409 -18.3557 20.7336
v -32.4399 -12.3754 20.7839
v -26.2627 -12.1201 25.1168
v -22.6337 -14.6165 26.9335
v -8.0503 -14.8843 26.0669
v -2.8487 -13.4594 23.3106
v 5.0395 -11.0611 23.1762
v 13.0395 -11.4758 23.1762
v 18.9209 -10.2633 23.1762
v -33.7496 -4.2116 23.2030
v -28.4641 -6.7690 25.8876
v 22.9209 -5.5753 23.1762
v 25.6185 -1.5753 23.1762
v -35.5436 3.6246 23.1762
v 23.1909 5.1309 25.7107
v 25.9096 2.9284 23.0969
v -32.8230 11.5416 22.8623
v -29.8108 14.1529 25.3197
v -0.8447 13.7093 23.1762
v 5.6858 12.7609 22.4891
v 13.0395 12.3121 23.9252
v 20.4589 10.8448 22.8487
v 25.7176 8.2625 20.3774
v -31.5081 19.6246 21.3397
v -29.7656 19.6246 25.3397
v -16.5644 22.2847 25.8638
v -10.4763 21.3171 23.1888
v -4.8447 17.7451 23.1762
v 8.7833 15.7049 19.3643
v 13.0395 16.3238 19.9252
v 17.7268 16.4766 19.9868
v -31.3910 24.1665 21.2507
v -26.9066 26.8861 23.0300
v -19.1228 27.2133 23.7122
v -12.8948 27.6246 20.6214
v -23.2962 31.8498 19.4760
v -18.9605 32.0367 19.8305
v -14.3466 31.9488 19.7488
v -17.3004 -17.1433 27.9173
v -13.3836 -17.1433 27.9173
v -23.1308 -9.2832 27.2789
v -18.8331 -11.5211 30.2648
v -11.4736 -11.6550 30.4940
v -2.9605 -9.5737 27.9506
v 5.0395 -9.1644 28.0612
v 13.0395 -9.9874 28.1764
v 17.9034 -9.8949 27.8012
v -31.6843 -1.4357 27.6973
v -26.2627 -4.2116 28.9329
v -20.7098 -4.3754 32.9813
v -9.3727 -4.3754 33.0401
v -2.9605 -4.3754 30.0970
v 5.0395 -4.3754 29.4231
v 13.0395 -4.3754 29.2105
v 20.7578 -3.6355 27.8871
v 25.1155 -0.4756 27.2352
v -32.1129 3.6246 28.5434
v -27.2168 3.0330 32.8524
v -22.5542 -0.0281 34.8136
v -7.5737 0.2735 34.4335
v -2.8503 3.2140 33.0624
v 5.0395 3.6246 29.8887
v 13.0395 3.6246 28.5838
v 20.7304 2.9284 27.6995
v 25.1155 -0.2024 27.2352
v -31.7732 8.8196 28.4780
v -27.2659 11.9645 31.5193
v -21.5679 15.1094 34.5605
v -9.1195 14.1675 33.9142
v -2.8330 11.5513 31.3528
v 5.0395 8.9431 28.5268
v 13.0395 8.3121 27.5497
v 17.8576 8.0938 27.4886
v -25.7656 19.6246 29.1659
v -19.0662 19.0424 31.1694
v -11.4559 17.0307 31.2190
v -5.5559 16.4659 28.5808
v -25.1836 24.2724 27.7782
v -21.8977 24.2724 27.7782
v -15.0325 -8.4257 35.2187
v -14.8969 -8.4257 35.2187
v -16.7098 -4.3754 35.8588
v -13.3727 -4.3754 35.8588
v -24.3287 5.8367 39.1762
v -19.9530 3.7660 39.0789
v -10.5284 3.2140 37.0423
v -5.4435 5.6069 35.8141
v -24.3287 9.2899 39.1762
v -19.4598 11.4015 38.8036
v -11.4559 11.5504 36.7119
v -5.4435 8.8342 35.8141
v -16.2346 15.8001 35.4932
v -14.4528 15.8001 35.4932
v -23.0242 7.5601 43.2265
v -22.6850 7.5601 43.2265
v -23.0242 7.6935 43.2265
v -22.6850 7.6935 43.2265
f 3 2 1
f 3 4 2
f 6 1 2
f 6 5 1
f 7 1 5
f 7 3 1
f 8 6 2
f 8 2 4
f 8 4 3
f 8 3 7
f 14 9 13
f 14 10 9
f 15 12 11
f 15 16 12
f 17 12 16
f 17 13 12
f 18 17 16
f 18 19 17
f 24 5 6
f 24 23 5
f 24 20 23
f 24 21 20
f 26 5 23
f 26 7 5
f 26 22 25
f 26 23 22
f 27 24 6
f 27 6 8
f 27 8 7
f 27 7 26
f 32 9 10
f 32 31 9
f 33 29 28
f 33 34 29
f 35 11 12
f 35 34 11
f 34 30 29
f 34 35 30
f 36 9 31
f 36 13 9
f 13 35 12
f 13 36 35
f 35 31 30
f 35 36 31
f 32 10 14
f 32 14 37
f 14 13 36
f 14 36 37
f 41 11 34
f 41 15 11
f 40 34 33
f 40 41 34
f 42 16 15
f 42 15 41
f 36 13 17
f 36 17 43
f 43 37 36
f 43 44 37
f 45 37 44
f 45 38 37
f 45 39 38
f 45 46 39
f 47 41 40
f 47 48 41
f 42 18 16
f 42 49 18
f 48 42 41
f 48 49 42
f 43 17 19
f 43 19 50
f 19 18 49
f 19 49 50
f 51 43 50
f 51 44 43
f 52 49 48
f 52 53 49
f 21 54 20
f 21 55 54
f 54 23 20
f 54 57 23
f 57 22 23
f 57 56 22
f 55 21 24
f 55 24 58
f 58 57 54
f 58 54 55
f 56 25 22
f 56 60 25
f 61 26 25
f 61 25 60
f 61 60 56
f 61 56 57
f 58 24 27
f 58 27 62
f 62 27 26
f 62 26 61
f 29 63 28
f 29 64 63
f 30 64 29
f 30 65 64
f 66 30 31
f 66 65 30
f 32 66 31
f 32 67 66
f 68 59 67
f 68 60 59
f 69 60 68
f 69 61 60
f 63 33 28
f 63 71 33
f 72 71 63
f 72 63 64
f 73 72 64
f 73 64 65
f 74 67 32
f 74 32 37
f 38 74 37
f 38 75 74
f 74 68 67
f 74 75 68
f 39 75 38
f 39 76 75
f 76 68 75
f 76 69 68
f 76 70 69
f 76 77 70
f 71 40 33
f 71 79 40
f 80 79 71
f 80 71 72
f 45 44 81
f 45 81 82
f 76 39 46
f 76 46 83
f 46 45 82
f 46 82 83
f 84 76 83
f 84 77 76
f 84 78 77
f 84 85 78
f 79 47 40
f 79 86 47
f 87 48 47
f 87 47 86
f 86 79 80
f 86 80 87
f 50 49 88
f 50 88 89
f 81 44 51
f 81 51 90
f 51 50 89
f 51 89 90
f 91 81 90
f 91 82 81
f 92 82 91
f 92 83 82
f 87 52 48
f 87 94 52
f 93 87 86
f 93 94 87
f 88 49 53
f 88 53 95
f 53 52 94
f 53 94 95
f 97 89 96
f 97 90 89
f 98 90 97
f 98 91 90
f 100 93 99
f 100 94 93
f 101 96 95
f 101 102 96
f 58 103 57
f 58 104 103
f 106 59 60
f 106 105 59
f 103 61 57
f 103 107 61
f 107 60 61
f 107 106 60
f 104 58 62
f 104 62 108
f 108 62 61
f 108 61 107
f 108 107 103
f 108 103 104
f 66 109 65
f 66 110 109
f 111 59 105
f 111 67 59
f 111 66 67
f 111 110 66
f 107 61 69
f 107 69 112
f 70 112 69
f 70 113 112
f 109 73 65
f 109 117 73
f 73 116 72
f 73 117 116
f 118 117 109
f 118 109 110
f 120 113 70
f 120 70 77
f 121 77 78
f 121 120 77
f 122 115 114
f 122 123 115
f 116 80 72
f 116 124 80
f 125 117 118
f 125 118 126
f 129 84 83
f 129 83 128
f 129 128 119
f 129 119 120
f 121 78 85
f 121 85 130
f 130 85 84
f 130 84 129
f 129 120 121
f 129 121 130
f 132 80 124
f 132 87 80
f 132 86 87
f 132 131 86
f 131 124 123
f 131 132 124
f 134 89 88
f 134 88 133
f 128 83 92
f 128 92 137
f 137 92 91
f 137 91 136
f 137 136 127
f 137 127 128
f 131 93 86
f 131 138 93
f 133 88 95
f 133 95 140
f 95 94 139
f 95 139 140
f 134 96 89
f 134 141 96
f 96 140 95
f 96 141 140
f 141 133 140
f 141 134 133
f 97 96 141
f 97 141 142
f 136 91 98
f 136 98 143
f 98 97 142
f 98 142 143
f 143 142 135
f 143 135 136
f 143 137 136
f 143 144 137
f 138 99 93
f 138 145 99
f 139 94 100
f 139 100 146
f 100 99 145
f 100 145 146
f 140 101 95
f 140 147 101
f 147 139 146
f 147 140 139
f 141 96 102
f 141 102 148
f 148 102 101
f 148 101 147
f 148 142 141
f 148 149 142
f 150 142 149
f 150 143 142
f 151 143 150
f 151 144 143
f 152 148 147
f 152 153 148
f 153 149 148
f 153 154 149
f 155 149 154
f 155 150 149
f 157 105 106
f 157 156 105
f 158 106 107
f 158 157 106
f 156 111 105
f 156 163 111
f 111 162 110
f 111 163 162
f 164 163 156
f 164 156 157
f 158 107 112
f 158 112 165
f 164 157 158
f 164 158 165
f 166 112 113
f 166 165 112
f 169 114 115
f 169 168 114
f 169 159 168
f 169 160 159
f 169 161 160
f 169 170 161
f 171 116 117
f 171 170 116
f 162 118 110
f 162 172 118
f 173 172 162
f 173 162 163
f 173 163 164
f 173 164 174
f 175 174 164
f 175 164 165
f 176 166 113
f 176 113 120
f 176 120 119
f 176 119 175
f 176 175 165
f 176 165 166
f 178 114 168
f 178 122 114
f 178 167 177
f 178 168 167
f 179 169 115
f 179 115 123
f 179 123 122
f 179 122 178
f 180 116 170
f 180 124 116
f 180 123 124
f 180 179 123
f 180 169 179
f 180 170 169
f 171 117 125
f 171 125 181
f 172 126 118
f 172 182 126
f 126 181 125
f 126 182 181
f 181 172 171
f 181 182 172
f 182 172 173
f 182 173 183
f 184 183 173
f 184 173 174
f 185 175 119
f 185 119 128
f 185 128 127
f 185 127 184
f 187 177 186
f 187 178 177
f 188 123 179
f 188 131 123
f 188 178 187
f 188 179 178
f 189 182 183
f 189 183 190
f 191 184 127
f 191 127 136
f 191 136 135
f 191 135 190
f 190 183 184
f 190 184 191
f 192 136 137
f 192 191 136
f 192 184 191
f 192 185 184
f 188 138 131
f 188 193 138
f 195 190 135
f 195 135 142
f 196 136 191
f 196 143 136
f 143 195 142
f 143 196 195
f 196 190 195
f 196 191 190
f 192 137 144
f 192 144 197
f 199 138 193
f 199 145 138
f 146 145 199
f 146 199 200
f 199 193 194
f 199 194 200
f 201 147 146
f 201 146 200
f 197 144 151
f 197 151 203
f 151 150 202
f 151 202 203
f 203 198 197
f 203 204 198
f 201 152 147
f 201 206 152
f 205 201 200
f 205 206 201
f 207 153 152
f 207 152 206
f 154 153 207
f 154 207 208
f 202 150 155
f 202 155 209
f 209 155 154
f 209 154 208
f 210 208 207
f 210 211 208
f 215 159 160
f 215 214 159
f 161 215 160
f 161 216 215
f 217 212 216
f 217 213 212
f 220 159 214
f 220 168 159
f 220 167 168
f 220 219 167
f 221 216 161
f 221 161 170
f 171 221 170
f 171 222 221
f 221 217 216
f 221 222 217
f 223 171 172
f 223 222 171
f 225 174 175
f 225 224 174
f 227 167 219
f 227 177 167
f 227 218 226
f 227 219 218
f 223 172 182
f 223 182 230
f 229 222 223
f 229 223 230
f 224 184 174
f 224 231 184
f 225 175 185
f 225 185 232
f 232 231 224
f 232 224 225
f 227 186 177
f 227 233 186
f 234 187 186
f 234 186 233
f 188 187 234
f 188 234 235
f 237 236 228
f 237 228 229
f 230 182 189
f 230 189 238
f 239 189 190
f 239 238 189
f 240 184 231
f 240 191 184
f 240 190 191
f 240 239 190
f 241 232 185
f 241 185 192
f 242 234 233
f 242 243 234
f 235 193 188
f 235 244 193
f 243 235 234
f 243 244 235
f 194 193 244
f 194 244 245
f 245 244 235
f 245 235 236
f 246 245 236
f 246 236 237
f 247 246 237
f 247 237 238
f 248 241 192
f 248 192 197
f 198 248 197
f 198 249 248
f 250 244 243
f 250 251 244
f 252 194 245
f 252 200 194
f 251 245 244
f 251 252 245
f 256 203 202
f 256 202 255
f 257 249 198
f 257 198 204
f 204 203 256
f 204 256 257
f 258 200 252
f 258 205 200
f 206 205 258
f 206 258 259
f 258 252 253
f 258 253 259
f 260 207 206
f 260 206 259
f 262 255 202
f 262 202 209
f 262 209 208
f 262 208 261
f 262 261 254
f 262 254 255
f 263 207 260
f 263 210 207
f 264 261 208
f 264 208 211
f 211 210 263
f 211 263 264
f 264 263 260
f 264 260 261
f 267 212 213
f 267 266 212
f 215 268 214
f 215 269 268
f 270 212 266
f 270 216 212
f 216 269 215
f 216 270 269
f 270 265 269
f 270 266 265
f 267 213 217
f 267 217 271
f 270 266 267
f 270 267 271
f 273 218 219
f 273 272 218
f 268 220 214
f 268 274 220
f 274 219 220
f 274 273 219
f 275 271 217
f 275 217 222
f 272 226 218
f 272 279 226
f 280 227 226
f 280 226 279
f 280 279 272
f 280 272 273
f 275 222 229
f 275 229 282
f 282 229 228
f 282 228 281
f 230 282 229
f 230 283 282
f 282 276 275
f 282 283 276
f 284 276 283
f 284 277 276
f 284 278 277
f 284 285 278
f 286 231 232
f 286 285 231
f 287 227 280
f 287 233 227
f 289 281 228
f 289 228 236
f 236 235 288
f 236 288 289
f 282 237 229
f 282 290 237
f 283 230 238
f 283 238 291
f 291 238 237
f 291 237 290
f 291 290 282
f 291 282 283
f 292 238 239
f 292 291 238
f 292 283 291
f 292 284 283
f 285 240 231
f 285 293 240
f 240 292 239
f 240 293 292
f 292 285 284
f 292 293 285
f 286 232 241
f 286 241 294
f 293 285 286
f 293 286 294
f 287 242 233
f 287 295 242
f 296 243 242
f 296 242 295
f 288 235 244
f 288 244 297
f 245 297 244
f 245 298 297
f 298 288 297
f 298 289 288
f 246 298 245
f 246 299 298
f 299 289 298
f 299 290 289
f 291 247 238
f 291 300 247
f 247 299 246
f 247 300 299
f 294 241 248
f 294 248 303
f 302 293 294
f 302 294 303
f 304 248 249
f 304 303 248
f 296 250 243
f 296 306 250
f 305 296 295
f 305 306 296
f 307 251 250
f 307 250 306
f 252 251 307
f 252 307 308
f 253 252 308
f 253 308 309
f 310 300 301
f 310 301 311
f 312 255 254
f 312 254 311
f 313 256 255
f 313 255 312
f 313 312 302
f 313 302 303
f 314 304 249
f 314 249 257
f 314 257 256
f 314 256 313
f 313 303 304
f 313 304 314
f 315 306 305
f 315 316 306
f 316 307 306
f 316 317 307
f 317 308 307
f 317 318 308
f 319 253 309
f 319 259 253
f 319 308 318
f 319 309 308
f 320 260 259
f 320 259 319
f 320 319 309
f 320 309 310
f 321 311 254
f 321 254 261
f 321 261 260
f 321 260 320
f 321 320 310
f 321 310 311
f 322 317 316
f 322 323 317
f 324 317 323
f 324 318 317
f 327 265 266
f 327 326 265
f 330 265 326
f 330 269 265
f 269 329 268
f 269 330 329
f 330 325 329
f 330 326 325
f 327 266 270
f 327 270 331
f 330 326 327
f 330 327 331
f 271 331 270
f 271 332 331
f 334 268 329
f 334 274 268
f 334 273 274
f 334 333 273
f 334 328 333
f 334 329 328
f 335 332 271
f 335 271 275
f 276 335 275
f 276 336 335
f 277 336 276
f 277 337 336
f 278 337 277
f 278 338 337
f 339 273 333
f 339 280 273
f 341 282 281
f 341 281 340
f 342 283 282
f 342 282 341
f 343 338 278
f 343 278 285
f 339 287 280
f 339 345 287
f 346 340 281
f 346 281 289
f 290 346 289
f 290 347 346
f 346 341 340
f 346 347 341
f 342 291 283
f 342 348 291
f 347 342 341
f 347 348 342
f 349 343 285
f 349 285 293
f 349 344 343
f 349 350 344
f 351 287 345
f 351 295 287
f 347 290 299
f 347 299 352
f 348 300 291
f 348 353 300
f 300 352 299
f 300 353 352
f 352 348 347
f 352 353 348
f 301 300 353
f 301 353 354
f 349 293 302
f 349 302 355
f 356 349 355
f 356 350 349
f 351 305 295
f 351 357 305
f 360 353 300
f 360 300 310
f 310 309 359
f 310 359 360
f 360 359 352
f 360 352 353
f 361 301 354
f 361 311 301
f 360 354 353
f 360 361 354
f 362 355 302
f 362 302 312
f 362 312 311
f 362 311 361
f 357 315 305
f 357 363 315
f 364 316 315
f 364 315 363
f 366 359 309
f 366 309 319
f 366 319 318
f 366 318 365
f 366 365 358
f 366 358 359
f 364 322 316
f 364 367 322
f 368 323 322
f 368 322 367
f 369 365 318
f 369 318 324
f 324 323 368
f 324 368 369
f 371 325 326
f 371 370 325
f 373 325 370
f 373 329 325
f 373 328 329
f 373 372 328
f 371 326 330
f 371 330 374
f 374 373 370
f 374 370 371
f 375 330 331
f 375 374 330
f 376 331 332
f 376 375 331
f 377 328 372
f 377 333 328
f 378 377 372
f 378 372 373
f 379 378 373
f 379 373 374
f 376 332 335
f 376 335 381
f 380 375 376
f 380 376 381
f 382 335 336
f 382 381 335
f 383 336 337
f 383 382 336
f 384 337 338
f 384 383 337
f 377 339 333
f 377 385 339
f 386 385 377
f 386 377 378
f 387 384 338
f 387 338 343
f 344 387 343
f 344 388 387
f 389 339 385
f 389 345 339
f 391 388 344
f 391 344 350
f 389 351 345
f 389 392 351
f 395 353 352
f 395 352 394
f 398 391 350
f 398 350 356
f 398 356 355
f 398 355 397
f 398 397 390
f 398 390 391
f 399 351 392
f 399 357 351
f 399 392 393
f 399 393 400
f 394 352 359
f 394 359 403
f 403 359 358
f 403 358 402
f 404 353 395
f 404 360 353
f 361 360 404
f 361 404 405
f 404 395 396
f 404 396 405
f 406 397 355
f 406 355 362
f 406 362 361
f 406 361 405
f 406 405 396
f 406 396 397
f 399 363 357
f 399 407 363
f 364 363 407
f 364 407 408
f 407 399 400
f 407 400 408
f 410 402 358
f 410 358 365
f 410 409 401
f 410 401 402
f 411 364 408
f 411 367 364
f 368 367 411
f 368 411 412
f 411 408 409
f 411 409 412
f 410 365 369
f 410 369 413
f 413 369 368
f 413 368 412
f 412 409 410
f 412 410 413
f 415 374 375
f 415 414 374
f 414 379 374
f 414 417 379
f 379 416 378
f 379 417 416
f 415 375 380
f 415 380 418
f 417 414 415
f 417 415 418
f 419 380 381
f 419 418 380
f 382 419 381
f 382 420 419
f 421 382 383
f 421 420 382
f 422 383 384
f 422 421 383
f 416 386 378
f 416 424 386
f 386 423 385
f 386 424 423
f 425 424 416
f 425 416 417
f 426 418 419
f 426 419 427
f 427 419 420
f 427 420 428
f 429 428 420
f 429 420 421
f 422 384 387
f 422 387 430
f 429 421 422
f 429 422 430
f 431 387 388
f 431 430 387
f 423 389 385
f 423 432 389
f 433 432 423
f 433 423 424
f 434 433 424
f 434 424 425
f 435 426 427
f 435 427 436
f 437 436 427
f 437 427 428
f 437 428 429
f 437 429 438
f 438 429 430
f 438 430 439
f 440 431 388
f 440 388 391
f 440 391 390
f 440 390 439
f 439 430 431
f 439 431 440
f 441 389 432
f 441 392 389
f 393 392 441
f 393 441 442
f 441 432 433
f 441 433 442
f 446 395 394
f 446 394 445
f 446 445 436
f 446 436 437
f 396 395 446
f 396 446 447
f 447 446 437
f 447 437 438
f 448 439 390
f 448 390 397
f 448 397 396
f 448 396 447
f 448 447 438
f 448 438 439
f 449 393 442
f 449 400 393
f 449 442 443
f 449 443 450
f 451 402 401
f 451 401 450
f 452 445 394
f 452 394 403
f 452 403 402
f 452 402 451
f 452 451 444
f 452 444 445
f 453 400 449
f 453 408 400
f 454 450 401
f 454 401 409
f 454 409 408
f 454 408 453
f 454 453 449
f 454 449 450
f 418 455 417
f 418 456 455
f 455 425 417
f 455 457 425
f 456 418 426
f 456 426 458
f 458 457 455
f 458 455 456
f 457 434 425
f 457 460 434
f 434 459 433
f 434 460 459
f 458 426 435
f 458 435 461
f 461 460 457
f 461 457 458
f 462 435 436
f 462 461 435
f 463 433 459
f 463 442 433
f 443 442 463
f 443 463 464
f 465 464 460
f 465 460 461
f 466 462 436
f 466 436 445
f 466 445 444
f 466 444 465
f 466 465 461
f 466 461 462
f 467 443 464
f 467 450 443
f 468 465 444
f 468 444 451
f 451 450 467
f 451 467 468
f 467 464 465
f 467 465 468
f 470 459 460
f 470 469 459
f 469 463 459
f 469 471 463
f 472 470 460
f 472 460 464
f 472 464 463
f 472 463 471
f 471 469 470
f 471 470 472
