# parsimony mesh: eg11545_monomer (source /Users/eranagmon/code/v2e-3d/out/ecoli3d/structures/eg11545_monomer.pdb)
# atoms: 2401  voxel: 8 Å  verts: 293  tris: 596
v 32.0817 8.6289 -49.8678
v 33.4716 8.6289 -49.8678
v 32.0817 10.7118 -49.8678
v 36.2338 13.4827 -49.8970
v 41.4643 16.2536 -49.9263
v 38.9960 17.6796 -49.9263
v 41.4643 17.6796 -49.9263
v 31.0321 0.5003 -42.4465
v 36.7418 0.5435 -42.5276
v 40.9301 0.9824 -41.9741
v 23.7407 7.3765 -42.7070
v 28.8902 5.3360 -45.2435
v 36.3797 5.6322 -46.0663
v 44.0548 5.7402 -42.5700
v 49.0346 8.8089 -41.9528
v 23.7407 11.2242 -42.7070
v 28.7012 13.6347 -45.8265
v 36.2338 13.4827 -48.3684
v 44.3753 13.4070 -45.5729
v 48.9826 13.1371 -41.9109
v 30.6540 18.0352 -43.6127
v 36.4943 18.5397 -45.9979
v 44.3753 18.0226 -44.8176
v 48.7700 17.1733 -41.6456
v 22.6894 -0.6838 -35.2605
v 28.5159 -1.1113 -37.7866
v 36.9277 -0.1116 -38.0714
v 40.9301 0.9824 -41.0684
v 16.4387 7.6628 -34.0135
v 20.5483 4.8530 -37.3037
v 25.6987 2.0432 -40.5938
v 39.7184 2.3609 -35.7351
v 44.0548 4.8347 -38.0714
v 49.0159 8.8413 -37.5758
v 16.4942 13.1371 -33.9309
v 20.9411 13.5894 -38.1929
v 25.3206 16.5575 -40.7974
v 48.1388 15.1320 -35.9243
v 48.9780 12.7340 -38.1849
v 16.7147 17.1689 -33.6115
v 20.7418 17.6327 -35.0188
v 28.2891 18.6306 -37.9088
v 36.7418 19.7779 -37.5758
v 45.1800 18.1554 -38.1849
v 48.7700 17.1733 -41.2576
v 8.6384 1.0041 -25.6958
v 12.7418 0.1759 -27.2571
v 20.3103 -2.0098 -30.0488
v 28.7418 -3.4272 -29.5758
v 34.8439 -0.3550 -29.5758
v 8.6384 1.5954 -25.6958
v 13.1223 4.6291 -29.3633
v 17.3560 2.3294 -33.0309
v 38.8439 3.3116 -29.5758
v 44.4556 7.6370 -30.2598
v 48.8145 9.0709 -33.3825
v 14.1917 13.1371 -29.5758
v 38.4257 15.2987 -27.0809
v 44.8685 12.5486 -30.2317
v 48.8145 9.7986 -33.3825
v 15.6209 18.6772 -29.5758
v 20.2998 21.9465 -29.3145
v 28.5240 21.4486 -29.3145
v 36.1522 18.3295 -29.6788
v 42.8054 17.9010 -32.4142
v 22.6719 25.9099 -26.4736
v 25.7122 25.9099 -26.4736
v 7.9272 0.2960 -21.5758
v 12.7418 -2.4032 -21.5758
v 20.7418 -4.7480 -21.5758
v 28.7418 -3.1519 -21.5758
v 35.4258 0.0340 -21.5758
v -0.2129 8.1826 -18.4559
v 5.5321 4.8890 -21.4438
v 9.8060 6.9287 -24.4317
v 39.4258 2.5147 -21.5758
v 43.2540 6.5147 -21.5758
v -0.1511 13.1371 -18.4219
v 4.7418 13.1371 -20.7722
v 10.4393 13.1371 -23.9260
v 32.1985 16.5732 -19.0139
v 36.1522 15.4745 -21.6386
v 43.2540 11.4819 -21.5758
v 0.5060 17.4375 -17.8238
v 4.7418 18.8930 -18.9701
v 12.6613 20.8814 -21.7424
v 17.8577 24.2869 -21.5758
v 30.0529 20.4940 -21.6386
v 33.0924 17.3985 -24.3472
v 21.8577 25.9849 -21.5758
v 25.7882 25.9849 -21.5758
v 8.1906 -7.7046 -10.0084
v 12.7418 -8.0899 -11.7011
v 18.0304 -7.6572 -11.9768
v -0.1570 -0.0400 -10.5568
v 5.3082 -2.6123 -12.9493
v 12.7418 -5.4419 -15.7011
v 20.7150 -5.5054 -14.2164
v 28.7418 -2.7546 -13.5758
v 35.3971 -0.2891 -13.5758
v -0.4038 5.3644 -13.3644
v 2.4258 2.8492 -15.8901
v 30.7711 8.0442 -10.8359
v 37.1787 4.6713 -13.7585
v 43.2350 6.6318 -16.6811
v -0.3131 13.1371 -13.5758
v 23.8868 15.3391 -10.6012
v 28.8182 13.2895 -13.3852
v 36.7418 12.4377 -15.8499
v 43.2350 11.4353 -16.6811
v 0.4448 17.5529 -13.5758
v 4.7418 20.0584 -13.5758
v 12.7418 23.0643 -13.5758
v 20.7599 22.0849 -13.8051
v 26.6529 21.1371 -15.9198
v 22.9662 25.4948 -17.0090
v 25.1665 25.4948 -17.0090
v -0.1904 -8.5261 -2.7282
v 5.2110 -9.2897 -5.4672
v 12.7418 -9.2544 -5.5758
v 17.7187 -7.4684 -5.5758
v -1.8910 -2.7691 -5.4672
v 2.8572 -5.3733 -8.0615
v 20.8556 -2.8517 -5.9817
v 28.7418 -0.6970 -8.3790
v 33.8630 0.0063 -8.6369
v -1.3651 5.1292 -6.2868
v 2.2669 7.7905 -4.0942
v 21.4476 5.1371 -4.8269
v 28.3594 5.2814 -8.4134
v 33.8630 2.7109 -8.6369
v 0.5798 13.1371 -9.3527
v 4.8569 13.4696 -4.9699
v 9.4656 16.3579 -2.1968
v 21.9301 12.8583 -6.1707
v 25.4378 10.0058 -9.2341
v 0.5816 17.3911 -9.4265
v 4.7418 18.3026 -7.9296
v 12.3761 19.7474 -5.1484
v 18.6867 19.4250 -5.5758
v -8.3579 -15.6094 5.4680
v -3.2582 -15.6567 4.8534
v 1.4493 -15.1748 5.2860
v -8.2225 -10.8629 5.6012
v -3.0175 -11.0608 1.8829
v 4.3663 -12.1379 2.5413
v 12.0210 -7.9477 1.6333
v 16.7556 -6.8759 -1.5607
v -7.7174 -2.8629 4.4739
v -5.8751 -2.8629 0.4739
v 14.1487 -2.8629 2.8744
v 16.9175 -2.8629 -1.1256
v -7.6844 1.8457 3.9649
v -3.9924 3.4137 1.7487
v 4.8569 7.2452 2.4760
v 12.9881 5.3938 3.3455
v 17.4476 5.1371 -0.4888
v 7.6003 11.0245 -0.1562
v 12.3761 13.4696 0.2390
v 17.8683 13.1371 -0.3720
v 14.7990 17.8035 -0.8348
v 17.5233 17.8035 -0.8348
v -25.7637 -23.6273 13.6547
v -22.3288 -23.6273 13.6547
v -32.5729 -17.3426 13.7305
v -27.9615 -19.5507 12.7167
v -19.5006 -18.4068 12.6990
v -11.1180 -15.9047 10.7904
v -3.5831 -15.7479 10.1014
v 1.4493 -15.1748 7.2196
v -32.7129 -10.8629 13.3486
v -27.2582 -10.8629 11.4129
v -19.2582 -10.8629 11.0777
v -12.2225 -10.8629 9.0134
v -1.4580 -10.8629 12.0172
v 4.3663 -10.2161 7.7733
v 8.8739 -7.1183 6.5488
v -31.8831 -6.2882 13.6838
v -27.2582 -5.5740 12.9702
v -19.2582 -5.1078 12.6571
v -11.4984 -2.9451 10.5294
v -0.1630 -2.8629 13.3292
v 4.7418 -2.8629 10.5262
v 10.1487 -2.8629 7.6213
v -8.4189 2.3125 10.4242
v -2.5471 3.1369 11.1510
v 4.7418 3.7823 9.4364
v 10.4856 2.8983 7.8958
v -39.5925 -23.0367 22.1355
v -35.2582 -23.3674 20.3858
v -27.4353 -23.4945 18.3615
v -22.3288 -23.6273 16.7279
v -40.1657 -18.8629 21.3737
v -35.2470 -19.5507 16.9264
v -27.4353 -21.9042 18.3615
v -19.8314 -18.2843 19.0838
v -11.2582 -15.6052 16.1384
v -6.4664 -15.2795 15.0276
v -40.0781 -10.8629 21.3894
v -36.7129 -10.8629 17.3894
v -17.3339 -14.1309 21.4397
v -11.2582 -13.2268 20.1384
v -5.2413 -10.7932 17.9863
v -39.4757 -6.6157 22.1563
v -34.8332 -5.8531 19.0635
v -26.7953 -2.1152 18.7984
v -19.2582 -1.1078 17.3218
v -10.4874 0.4012 19.3765
v -4.2053 -2.0638 19.2230
v -23.8200 1.4691 21.7145
v -19.2582 1.6637 21.3218
v -10.4874 1.7516 19.3765
v -4.7397 1.9958 17.0889
v -48.0674 -23.4212 29.6190
v -42.3874 -23.2290 26.7388
v -35.2582 -23.3674 25.0742
v -29.1068 -23.3617 24.5231
v -48.9135 -18.8629 28.8690
v -42.3157 -20.3748 26.7217
v -35.2582 -21.5543 29.0742
v -27.3600 -18.6947 26.2133
v -22.6672 -15.7992 22.5702
v -48.6561 -13.1863 29.1559
v -43.8981 -10.6569 26.4632
v -26.1192 -10.8629 27.3669
v -19.7036 -11.2237 24.5291
v -11.2582 -9.2268 25.6653
v -6.2970 -8.0801 24.4945
v -40.4013 -6.1691 26.4242
v -35.2582 -5.1396 26.4242
v -26.9357 -3.5099 26.0807
v -19.2582 -2.8629 26.2277
v -10.4604 -2.0638 25.5214
v -6.2970 -4.1977 24.4945
v -23.8200 1.4691 23.2929
v -19.2582 1.6637 23.7061
v -12.5953 1.5073 23.2647
v -48.0674 -23.4212 31.3834
v -45.1824 -23.4212 31.3834
v -63.3859 -15.1010 38.2690
v -59.2582 -16.2064 37.3236
v -51.0284 -18.9325 34.2477
v -42.8127 -20.2618 34.1997
v -35.8839 -17.1466 33.7708
v -30.9465 -16.2570 30.6685
v -63.3859 -14.5735 38.2690
v -59.2582 -13.1393 37.3236
v -51.6894 -10.3535 34.2216
v -45.8981 -7.8530 31.3311
v -33.3768 -10.8629 36.0746
v -30.1192 -10.8629 32.0746
v -49.3893 -5.6878 36.6645
v -43.2421 -5.0469 34.1684
v -34.7274 -5.4450 34.7980
v -30.0513 -6.3513 32.3805
v -63.5004 -23.0844 46.0221
v -62.2254 -23.0844 46.0221
v -63.9866 -18.2057 42.9830
v -59.4385 -20.1455 42.9830
v -50.5583 -17.5543 43.1416
v -43.2582 -15.9656 41.0927
v -38.9678 -15.0804 39.4532
v -63.9870 -13.6639 42.4242
v -58.8066 -9.4985 42.4363
v -51.0739 -11.1182 43.0321
v -43.2582 -13.9335 45.0927
v -37.2774 -11.0076 42.2416
v -55.8389 -6.6526 45.1110
v -51.7369 -5.1090 42.4363
v -43.2582 -3.2258 42.4242
v -37.0001 -5.2605 42.4242
v -63.5004 -23.0844 46.7665
v -62.2254 -23.0844 46.7665
v -64.0729 -18.8629 48.3602
v -59.4385 -19.0707 48.8344
v -50.2587 -15.7614 50.1445
v -43.2582 -15.0540 52.2406
v -39.0487 -15.0002 53.5077
v -64.1022 -13.5536 48.6633
v -58.8066 -10.8773 48.8828
v -49.5086 -12.6122 49.9566
v -43.2582 -11.5046 50.7801
v -38.7571 -10.7194 51.1183
v -55.8389 -6.6526 46.8473
v -51.2582 -5.5518 47.9085
v -43.2582 -4.9873 49.3197
v -38.4654 -5.9000 48.7288
v -47.7589 -14.9803 54.6444
v -43.2582 -15.0540 54.9167
v -39.0487 -15.0002 54.8608
v -47.7589 -14.3416 54.6444
v -43.2582 -13.0758 54.9167
v -39.0487 -13.0014 54.8608
f 3 2 1
f 3 4 2
f 6 5 4
f 6 7 5
f 13 1 2
f 13 12 1
f 13 8 12
f 13 9 8
f 13 10 9
f 13 14 10
f 17 1 12
f 17 3 1
f 16 12 11
f 16 17 12
f 18 13 2
f 18 2 4
f 18 4 3
f 18 3 17
f 5 18 4
f 5 19 18
f 19 13 18
f 19 14 13
f 19 15 14
f 19 20 15
f 18 6 4
f 18 22 6
f 21 18 17
f 21 22 18
f 23 19 5
f 23 5 7
f 7 6 22
f 7 22 23
f 24 19 23
f 24 20 19
f 27 8 9
f 27 26 8
f 28 9 10
f 28 27 9
f 31 8 26
f 31 12 8
f 31 11 12
f 31 30 11
f 31 25 30
f 31 26 25
f 28 10 14
f 28 14 33
f 32 27 28
f 32 28 33
f 15 33 14
f 15 34 33
f 36 11 30
f 36 16 11
f 36 29 35
f 36 30 29
f 37 17 16
f 37 16 36
f 39 34 15
f 39 15 20
f 41 35 40
f 41 36 35
f 37 21 17
f 37 42 21
f 41 37 36
f 41 42 37
f 43 22 21
f 43 21 42
f 23 22 43
f 23 43 44
f 45 39 20
f 45 20 24
f 24 23 44
f 24 44 45
f 45 44 38
f 45 38 39
f 49 25 26
f 49 48 25
f 50 26 27
f 50 49 26
f 51 47 46
f 51 52 47
f 53 25 48
f 53 30 25
f 53 29 30
f 53 52 29
f 53 47 52
f 53 48 47
f 50 27 32
f 50 32 54
f 55 32 33
f 55 54 32
f 56 33 34
f 56 55 33
f 57 29 52
f 57 35 29
f 60 56 34
f 60 34 39
f 60 39 38
f 60 38 59
f 60 59 55
f 60 55 56
f 57 40 35
f 57 61 40
f 62 41 40
f 62 40 61
f 63 42 41
f 63 41 62
f 64 43 42
f 64 42 63
f 65 59 38
f 65 38 44
f 65 44 43
f 65 43 64
f 65 64 58
f 65 58 59
f 67 62 66
f 67 63 62
f 69 46 47
f 69 68 46
f 70 47 48
f 70 69 47
f 49 70 48
f 49 71 70
f 50 71 49
f 50 72 71
f 68 51 46
f 68 74 51
f 75 52 51
f 75 51 74
f 72 50 54
f 72 54 76
f 77 54 55
f 77 76 54
f 79 73 78
f 79 74 73
f 75 57 52
f 75 80 57
f 79 75 74
f 79 80 75
f 83 77 55
f 83 55 59
f 83 59 58
f 83 58 82
f 84 79 78
f 84 85 79
f 80 61 57
f 80 86 61
f 85 80 79
f 85 86 80
f 87 62 61
f 87 61 86
f 89 82 58
f 89 58 64
f 89 64 63
f 89 63 88
f 89 88 81
f 89 81 82
f 87 66 62
f 87 90 66
f 88 63 67
f 88 67 91
f 91 67 66
f 91 66 90
f 97 68 69
f 97 96 68
f 97 92 96
f 97 93 92
f 70 97 69
f 70 98 97
f 97 94 93
f 97 98 94
f 71 98 70
f 71 99 98
f 72 99 71
f 72 100 99
f 102 68 96
f 102 74 68
f 102 73 74
f 102 101 73
f 102 95 101
f 102 96 95
f 104 100 72
f 104 72 76
f 105 76 77
f 105 104 76
f 106 73 101
f 106 78 73
f 109 82 81
f 109 81 108
f 109 108 103
f 109 103 104
f 105 77 83
f 105 83 110
f 83 82 109
f 83 109 110
f 109 104 105
f 109 105 110
f 106 84 78
f 106 111 84
f 112 85 84
f 112 84 111
f 113 86 85
f 113 85 112
f 87 86 113
f 87 113 114
f 115 108 81
f 115 81 88
f 115 114 107
f 115 107 108
f 116 87 114
f 116 90 87
f 115 88 91
f 115 91 117
f 91 90 116
f 91 116 117
f 116 114 115
f 116 115 117
f 120 92 93
f 120 119 92
f 121 93 94
f 121 120 93
f 123 92 119
f 123 96 92
f 123 95 96
f 123 122 95
f 123 118 122
f 123 119 118
f 124 121 94
f 124 94 98
f 99 124 98
f 99 125 124
f 126 99 100
f 126 125 99
f 127 95 122
f 127 101 95
f 129 124 125
f 129 125 130
f 131 126 100
f 131 100 104
f 131 104 103
f 131 103 130
f 131 130 125
f 131 125 126
f 132 101 127
f 132 106 101
f 132 127 128
f 132 128 133
f 136 130 103
f 136 103 108
f 136 108 107
f 136 107 135
f 136 135 129
f 136 129 130
f 137 106 132
f 137 111 106
f 112 111 137
f 112 137 138
f 138 137 132
f 138 132 133
f 113 112 138
f 113 138 139
f 138 133 134
f 138 134 139
f 140 135 107
f 140 107 114
f 140 114 113
f 140 113 139
f 144 142 141
f 144 145 142
f 146 118 119
f 146 145 118
f 145 143 142
f 145 146 143
f 147 119 120
f 147 146 119
f 148 120 121
f 148 147 120
f 150 118 145
f 150 122 118
f 150 144 149
f 150 145 144
f 152 148 121
f 152 121 124
f 151 147 148
f 151 148 152
f 154 122 150
f 154 127 122
f 153 150 149
f 153 154 150
f 128 127 154
f 128 154 155
f 152 124 129
f 152 129 157
f 157 156 151
f 157 151 152
f 158 128 155
f 158 133 128
f 134 133 158
f 134 158 159
f 158 155 156
f 158 156 159
f 160 157 129
f 160 129 135
f 159 156 157
f 159 157 160
f 161 134 159
f 161 139 134
f 160 135 140
f 160 140 162
f 140 139 161
f 140 161 162
f 161 159 160
f 161 160 162
f 166 164 163
f 166 167 164
f 169 141 142
f 169 168 141
f 170 142 143
f 170 169 142
f 172 165 171
f 172 166 165
f 172 167 166
f 172 173 167
f 174 141 168
f 174 144 141
f 173 168 167
f 173 174 168
f 176 170 143
f 176 143 146
f 175 169 170
f 175 170 176
f 177 146 147
f 177 176 146
f 178 172 171
f 178 179 172
f 179 173 172
f 179 180 173
f 181 144 174
f 181 149 144
f 180 174 173
f 180 181 174
f 183 182 175
f 183 175 176
f 177 147 151
f 177 151 184
f 183 176 177
f 183 177 184
f 185 149 181
f 185 153 149
f 186 154 153
f 186 153 185
f 187 155 154
f 187 154 186
f 187 186 182
f 187 182 183
f 188 184 151
f 188 151 156
f 188 156 155
f 188 155 187
f 188 187 183
f 188 183 184
f 192 163 164
f 192 191 163
f 193 190 189
f 193 194 190
f 195 163 191
f 195 166 163
f 195 165 166
f 195 194 165
f 195 190 194
f 195 191 190
f 192 164 167
f 192 167 196
f 195 191 192
f 195 192 196
f 197 167 168
f 197 196 167
f 198 168 169
f 198 197 168
f 200 165 194
f 200 171 165
f 200 193 199
f 200 194 193
f 201 196 197
f 201 197 202
f 198 169 175
f 198 175 203
f 202 197 198
f 202 198 203
f 200 178 171
f 200 205 178
f 204 200 199
f 204 205 200
f 206 179 178
f 206 178 205
f 207 180 179
f 207 179 206
f 181 180 207
f 181 207 208
f 203 175 182
f 203 182 209
f 210 207 206
f 210 211 207
f 208 185 181
f 208 212 185
f 211 208 207
f 211 212 208
f 213 209 182
f 213 182 186
f 213 186 185
f 213 185 212
f 213 212 208
f 213 208 209
f 216 189 190
f 216 215 189
f 217 190 191
f 217 216 190
f 219 189 215
f 219 193 189
f 219 214 218
f 219 215 214
f 220 219 215
f 220 215 216
f 217 191 195
f 217 195 221
f 220 216 217
f 220 217 221
f 222 195 196
f 222 221 195
f 224 193 219
f 224 199 193
f 223 219 218
f 223 224 219
f 222 196 201
f 222 201 226
f 225 221 222
f 225 222 226
f 227 201 202
f 227 226 201
f 228 202 203
f 228 227 202
f 229 199 224
f 229 204 199
f 230 205 204
f 230 204 229
f 231 206 205
f 231 205 230
f 232 231 225
f 232 225 226
f 232 226 227
f 232 227 233
f 228 203 209
f 228 209 234
f 234 209 208
f 234 208 233
f 234 233 227
f 234 227 228
f 235 206 231
f 235 210 206
f 211 210 235
f 211 235 236
f 235 231 232
f 235 232 236
f 237 233 208
f 237 208 212
f 237 212 211
f 237 211 236
f 237 236 232
f 237 232 233
f 239 214 215
f 239 238 214
f 238 218 214
f 238 242 218
f 239 215 219
f 239 219 243
f 243 242 238
f 243 238 239
f 220 243 219
f 220 244 243
f 245 220 221
f 245 244 220
f 246 241 240
f 246 247 241
f 242 223 218
f 242 248 223
f 248 241 247
f 248 242 241
f 249 224 223
f 249 223 248
f 245 221 225
f 245 225 251
f 250 244 245
f 250 245 251
f 249 229 224
f 249 253 229
f 252 249 248
f 252 253 249
f 254 230 229
f 254 229 253
f 255 251 225
f 255 225 231
f 255 231 230
f 255 230 254
f 255 254 250
f 255 250 251
f 241 258 240
f 241 259 258
f 259 256 258
f 259 257 256
f 260 241 242
f 260 259 241
f 261 242 243
f 261 260 242
f 262 243 244
f 262 261 243
f 263 240 258
f 263 246 240
f 247 246 263
f 247 263 264
f 265 248 247
f 265 247 264
f 266 265 260
f 266 260 261
f 262 244 250
f 262 250 267
f 266 261 262
f 266 262 267
f 265 252 248
f 265 269 252
f 268 265 264
f 268 269 265
f 270 253 252
f 270 252 269
f 271 267 250
f 271 250 254
f 271 254 253
f 271 253 270
f 257 272 256
f 257 273 272
f 274 256 272
f 274 258 256
f 273 257 259
f 273 259 275
f 274 272 273
f 274 273 275
f 260 275 259
f 260 276 275
f 279 258 274
f 279 263 258
f 280 264 263
f 280 263 279
f 279 274 275
f 279 275 280
f 281 276 260
f 281 260 265
f 280 275 276
f 280 276 281
f 266 281 265
f 266 282 281
f 281 277 276
f 281 282 277
f 283 266 267
f 283 282 266
f 282 278 277
f 282 283 278
f 284 264 280
f 284 268 264
f 285 269 268
f 285 268 284
f 284 280 281
f 284 281 285
f 270 269 285
f 270 285 286
f 286 285 281
f 286 281 282
f 287 283 267
f 287 267 271
f 287 271 270
f 287 270 286
f 286 282 283
f 286 283 287
f 277 288 276
f 277 289 288
f 278 289 277
f 278 290 289
f 291 276 288
f 291 281 276
f 282 281 291
f 282 291 292
f 291 288 289
f 291 289 292
f 293 290 278
f 293 278 283
f 293 283 282
f 293 282 292
f 292 289 290
f 292 290 293
