# parsimony mesh: eg11592_monomer (source /Users/eranagmon/code/v2e-cplx/workspace/studies/ecoli-3d/viz/3d/structures/eg11592_monomer.pdb)
# atoms: 691  voxel: 4 Å  verts: 382  tris: 780
v 3.4540 -2.8948 -17.2428
v 4.6039 -2.8948 -17.2428
v 3.4540 -1.3279 -17.2428
v 6.2038 0.3918 -17.1283
v 9.8678 1.9960 -17.0277
v 11.9124 2.0764 -17.0155
v 3.5880 6.0208 -17.2433
v 6.2294 4.5284 -17.2890
v 9.8678 4.2899 -17.3631
v 12.0996 4.2899 -17.1786
v 3.5880 6.7484 -17.2433
v 5.8678 7.2266 -17.3452
v 9.8678 7.1993 -17.3240
v 12.1322 6.7119 -17.2151
v -0.5666 -5.8508 -13.1565
v 0.3929 -5.8508 -13.1565
v 10.9262 -6.0027 -13.4801
v 12.3652 -6.0027 -13.4801
v -0.5666 -4.8505 -13.1565
v 1.6959 -3.9821 -14.2034
v 5.9094 -3.6426 -15.1875
v 9.7028 -3.9461 -14.4218
v 13.1106 -3.7101 -14.0314
v -0.7044 1.2306 -13.4141
v 1.7381 -0.0487 -14.7584
v 6.2038 0.3918 -16.3781
v 9.8678 -0.0040 -16.4115
v 13.8033 0.3793 -14.8508
v 17.8678 1.0493 -13.5229
v 20.6254 1.5769 -13.5423
v -5.1141 5.4590 -13.5136
v -2.0756 4.1913 -13.8327
v 2.0999 4.5284 -15.3862
v 5.1371 3.3542 -16.1027
v 14.0996 4.2899 -15.2169
v 18.0062 4.5931 -13.5035
v 20.6254 3.4619 -13.5423
v -5.1141 7.1837 -13.5136
v -2.1012 8.4261 -13.7384
v 2.0999 8.1650 -15.2269
v 5.8678 9.2266 -16.0758
v 9.8678 9.1993 -15.9538
v 13.4111 7.9448 -14.4831
v 16.7652 6.5110 -13.1344
v -0.7471 10.7023 -13.2569
v 1.8678 10.7040 -13.4442
v 5.8678 11.1527 -14.0758
v 9.8678 11.1277 -13.9538
v 12.0233 10.3962 -13.1651
v -4.6828 -6.6580 -9.7044
v -1.9929 -6.6988 -11.0181
v 1.7828 -6.3811 -11.1492
v 5.8678 -6.0910 -10.0335
v 9.7028 -5.9599 -10.8639
v 12.2858 -5.9553 -10.9886
v -5.1468 -3.7101 -9.7048
v -1.9929 -3.5943 -11.8198
v 1.5408 -3.7684 -12.6710
v 5.8678 -5.2372 -12.0335
v 8.2596 -5.4367 -12.1141
v 14.4980 -3.6038 -11.3023
v 16.8657 -2.1996 -10.1781
v 22.9160 -2.1027 -9.3341
v 24.3687 -2.1027 -9.3341
v -8.8289 1.2788 -9.9948
v -6.2135 0.0832 -10.1559
v -2.0756 0.0543 -11.8105
v 0.0222 -1.4361 -12.7524
v 15.6941 -1.3179 -12.8448
v 18.0665 -0.8634 -11.3023
v 21.7707 0.1327 -10.9023
v 24.6139 0.2899 -9.8591
v -8.6885 4.2899 -9.8612
v -6.3213 4.1913 -11.7069
v -3.3711 2.7923 -12.3555
v 19.4318 6.1285 -12.8153
v 21.9223 4.5931 -11.9001
v 24.3320 4.2899 -9.7580
v -8.1772 6.3362 -9.1459
v -6.3213 7.4546 -10.6830
v -2.9640 9.7110 -10.9886
v 14.6899 9.1777 -11.6974
v 17.6725 8.0076 -10.9230
v 21.8678 6.7964 -10.0167
v 23.9928 6.4176 -9.1993
v -0.9640 10.7827 -10.9886
v 1.8678 11.1424 -10.9886
v 5.8678 11.5446 -10.9886
v 9.8678 11.3124 -10.9886
v 13.5611 10.4036 -10.6139
v 15.9131 10.3094 -9.0307
v -4.7066 -10.2451 -6.0408
v -3.4291 -10.2451 -6.0408
v -5.3513 -7.8789 -7.2199
v -2.1104 -8.6794 -7.2199
v 1.8678 -7.1079 -6.9886
v 5.8678 -6.3756 -6.9886
v 9.8678 -6.2150 -6.9886
v 12.0332 -5.9467 -6.9886
v -8.7613 -2.8503 -6.0507
v -7.0879 -3.9942 -7.2258
v 13.9574 -3.6038 -6.9868
v 16.8657 -2.1996 -8.3190
v 22.9160 -2.1027 -8.3870
v 24.3687 -2.1027 -8.3870
v -9.4381 0.0832 -7.2258
v -7.6011 -1.3879 -8.7174
v 15.1653 0.2899 -5.5510
v 17.8376 0.3634 -6.6968
v 21.6967 -0.1182 -7.0277
v 24.5047 0.5935 -7.0277
v -9.9425 4.2899 -6.9886
v 15.6689 2.4636 -5.0747
v 16.1428 2.4636 -5.0747
v 24.6354 4.2899 -6.9886
v -8.8541 7.9177 -6.7851
v -6.1322 9.0754 -7.6840
v -3.2931 9.9575 -8.2550
v 18.5956 9.4109 -6.9886
v 21.8678 7.7499 -6.9886
v 24.2150 6.6288 -6.9886
v -8.4689 10.6955 -5.3161
v -6.1322 10.7724 -5.6840
v -2.0287 10.8604 -6.9484
v 1.8678 11.4439 -6.9886
v 5.8678 11.3435 -6.9886
v 9.8678 11.0586 -6.9886
v 13.8678 11.0062 -6.9886
v 16.5956 10.6719 -6.9886
v -4.7066 -10.2451 -4.2070
v -3.4291 -10.2451 -4.2070
v -8.7348 -6.2196 -2.1151
v -6.2061 -7.7830 -3.1611
v -2.1104 -8.9555 -2.9196
v 1.8678 -8.0762 -2.9886
v 5.8678 -7.1762 -2.9886
v 9.8678 -6.8559 -2.9886
v 12.3515 -6.4264 -2.9886
v -8.9277 -3.9942 -3.2645
v -7.7056 -5.5170 -4.7818
v 13.4026 -3.7101 -2.9886
v -10.0888 0.2899 -2.9886
v 13.9260 0.2899 -2.9886
v 18.8095 2.0384 -4.7200
v 21.8678 1.9807 -4.6872
v 23.9345 2.1292 -4.8552
v -12.3748 5.3037 -1.6178
v -11.3564 4.0982 -2.9661
v 14.8750 3.1245 -2.9886
v 17.5945 4.1796 -3.1217
v 21.8678 4.2899 -3.3965
v 24.1712 4.2899 -4.1967
v -12.3403 8.2899 -1.5080
v -11.0008 8.2899 -3.5080
v 15.8429 10.2562 -1.0040
v 17.9196 8.7466 -2.5971
v 21.8678 7.2434 -3.6979
v 24.2057 6.6141 -4.0661
v -12.1671 10.3253 -1.0519
v -9.9342 10.8703 -2.6266
v -6.1322 11.8276 -2.9886
v -2.1322 12.3851 -2.9886
v 1.8678 12.7880 -2.9886
v 5.8678 12.4882 -2.9886
v 9.8678 11.8411 -2.9886
v 14.2528 11.0594 -2.5978
v 16.7929 10.7796 -3.6707
v -5.4022 -10.1455 2.3294
v -3.7782 -10.1455 2.3294
v -12.8677 -6.7782 2.4306
v -10.0938 -7.4371 1.0630
v -6.4942 -8.9780 1.0022
v -2.2232 -8.0271 1.2135
v 1.8678 -7.4117 0.7125
v 5.8637 -6.7068 1.3207
v 9.7982 -6.3486 1.2600
v 12.3521 -6.3841 0.0924
v -12.8677 -4.5847 2.4306
v -10.8150 -3.4349 1.0630
v -0.6682 -5.3491 2.7642
v 1.8678 -5.0851 2.7125
v 4.5276 -5.2378 2.8602
v 11.0852 -5.0729 2.7591
v 12.7733 -3.7278 1.2600
v -10.7819 0.2899 1.0114
v 13.1186 0.2899 1.0114
v -12.3748 5.3037 -0.4799
v -10.6310 4.4233 1.2403
v -7.9503 6.2096 2.9604
v 11.5921 5.9066 2.7469
v 13.5226 4.5678 1.2354
v 16.3796 5.8956 -0.2762
v -12.3403 8.2899 -0.5534
v -9.8712 8.0240 1.7290
v -7.9503 6.5135 2.9604
v 11.5921 6.9792 2.7469
v 14.7142 8.6566 0.9476
v 16.1630 8.7064 0.7359
v -12.1671 10.3253 -0.9171
v -9.8712 11.3790 0.6543
v -6.5217 13.4861 0.8772
v -2.1322 13.8555 -0.5041
v 1.8678 14.0724 -0.6022
v 5.8152 13.3365 0.7988
v 9.8678 11.6394 1.0114
v 14.2528 10.6785 0.6533
v 15.9463 10.3795 1.7479
v -5.4480 15.2668 2.1211
v -2.1322 15.2536 1.4959
v 1.8678 14.7479 1.3978
v 4.4468 14.5924 1.9904
v -20.2857 -21.8520 6.9140
v -19.9852 -21.8520 6.9140
v -20.4050 -19.7101 6.8184
v -19.7455 -19.7101 6.8184
v -20.4860 -15.7101 6.4396
v -18.3111 -15.4198 6.4792
v -16.0217 -13.8929 6.8868
v -20.3938 -12.7656 6.4089
v -18.1322 -12.7249 6.4661
v -16.0217 -13.3411 6.8868
v -5.4022 -10.1455 3.5844
v -3.7782 -10.1455 3.5844
v -12.8677 -6.7782 3.7096
v -10.1649 -7.7161 5.0303
v -6.2162 -8.1810 5.1164
v -3.2687 -7.7101 4.1689
v 7.1943 -5.7961 3.1007
v 8.4185 -5.7961 3.1007
v -13.0365 -3.5264 4.7829
v -11.7133 -3.5264 4.7829
v -4.3635 -5.2088 6.6483
v -2.0538 -4.7450 5.1936
v 1.9791 -3.1623 4.9320
v 5.8637 -3.8267 3.5332
v 9.7982 -3.7278 3.2875
v 12.0867 -2.4062 3.1361
v -13.4475 0.2899 5.1716
v -11.9351 0.2899 3.1716
v 3.3866 -1.0856 6.2124
v 5.7000 0.2646 5.3802
v 9.8678 0.2899 3.8466
v 12.3579 0.2899 3.2863
v -12.8128 3.1877 5.7136
v -10.5487 4.6987 4.4041
v -7.9503 6.2096 3.0947
v 6.5656 4.2899 5.7915
v 10.1024 4.4599 3.7805
v 12.3023 3.2399 3.2532
v -8.6832 8.0459 4.5358
v -6.9114 8.1280 4.3703
v -2.1322 9.5460 5.7194
v 1.8678 9.6512 6.1986
v 5.7938 8.4401 5.4736
v 10.1024 8.3035 3.4857
v 13.8678 9.4570 3.2189
v 15.9463 9.8234 3.1735
v -8.3638 11.5433 3.3102
v -6.5217 12.6419 3.6862
v -2.1322 12.2899 4.5230
v 1.8678 12.2899 4.7930
v 5.8152 12.1072 3.8050
v 9.8678 10.6722 3.1999
v 13.8678 10.4677 3.2189
v 15.9463 10.3795 3.1735
v -5.4480 15.2668 3.7151
v -2.1322 15.2536 3.8150
v 1.8678 14.7479 3.6058
v 4.4468 14.5924 3.4362
v -20.2583 -21.8304 9.0114
v -20.0089 -21.8304 9.0114
v -20.6272 -19.7101 9.0114
v -19.3241 -19.7101 9.0114
v -12.6060 -17.8404 10.7840
v -11.9414 -17.8404 10.7840
v -20.5843 -15.4997 9.2837
v -18.5526 -15.4741 9.7773
v -14.3138 -15.6101 9.4034
v -10.4177 -15.4934 10.4525
v -7.7491 -14.0156 10.6292
v -20.3938 -12.7656 8.1319
v -18.2142 -11.7200 9.2390
v -14.4659 -11.8887 8.5392
v -10.1322 -11.7101 9.4256
v -7.2913 -11.7101 10.0168
v -16.4021 -8.7091 10.3460
v -14.2756 -7.5095 10.1229
v -10.1649 -7.8948 8.3558
v -5.8787 -7.8867 8.6746
v -3.7215 -6.4222 9.9484
v -13.3469 -3.7649 9.2019
v -11.5199 -5.1348 7.9956
v -4.3635 -5.2088 7.2818
v -2.3942 -3.7530 8.7725
v 0.7200 -2.2972 7.5967
v -13.5255 0.2899 9.0114
v -1.0670 -0.7616 10.2633
v 1.7578 0.4097 8.7917
v 4.2548 1.5810 7.3200
v -12.6863 3.1882 9.0114
v -11.5070 5.1882 9.0114
v 2.3114 4.2899 9.5627
v 4.5656 4.2899 7.5627
v -9.5070 7.1106 9.0114
v -6.1322 7.8163 9.0114
v -2.1322 7.8883 9.0114
v 1.6659 7.5544 8.8673
v 4.4112 7.2070 7.4379
v -20.1469 -21.7287 11.0206
v -20.1149 -21.7287 11.0206
v -20.3545 -19.7101 11.1537
v -19.7108 -19.7101 11.1537
v -12.6060 -17.8404 11.2978
v -11.9414 -17.8404 11.2978
v -20.4139 -16.6927 11.1920
v -18.4736 -15.6767 11.7544
v -14.3414 -15.7710 13.1406
v -10.0826 -15.4485 13.0982
v -7.7491 -14.0156 12.2320
v -17.0869 -11.9959 13.3947
v -16.0769 -13.5197 14.9835
v -8.2239 -13.6241 14.8986
v -7.1449 -12.0585 13.3438
v -16.4050 -8.6614 13.0114
v -15.5173 -6.6614 13.0114
v -5.1854 -8.6521 13.0114
v -3.5483 -6.6521 13.0114
v -13.2678 -3.6610 12.6660
v -11.5936 -2.2949 13.7690
v -4.5877 -2.2908 14.2411
v -3.4259 -3.6585 12.9492
v -12.2102 0.2899 11.5832
v -11.4899 0.2899 13.5832
v -5.1019 0.2899 14.1778
v -2.2931 0.4590 12.1160
v 0.1290 1.9051 11.2972
v -12.1904 2.5898 11.6829
v -10.4547 3.9633 13.0347
v -6.2347 4.1180 13.7859
v -2.1322 4.2899 12.4758
v 0.3114 4.2899 11.5391
v -9.0950 6.7625 11.7199
v -6.1322 6.7674 11.7354
v -2.1322 6.6322 11.5174
v 0.1980 6.5822 11.4292
v -16.6021 -14.2737 17.7138
v -14.3498 -14.2442 16.7108
v -10.8906 -14.2147 15.7077
v -16.5604 -11.9959 16.6329
v -14.4426 -12.4857 16.7928
v -9.8161 -11.8826 17.0719
v -7.4406 -10.9689 17.0114
v -16.3151 -8.7516 17.0114
v -14.3641 -7.5393 17.6219
v -9.9490 -7.2006 18.6909
v -6.3378 -7.3663 17.2639
v -3.7644 -6.2541 15.5819
v -13.3212 -5.0588 17.0114
v -9.9423 -4.1513 17.8404
v -6.0585 -3.9493 17.2639
v -3.7644 -4.9575 15.5819
v -9.8962 0.2899 17.0114
v -6.5251 0.2899 17.0114
v -8.9968 2.6278 17.0114
v -7.6357 2.6278 17.0114
v -16.6021 -14.2737 19.6579
v -15.2894 -14.2737 19.6579
v -16.5971 -11.7101 19.6073
v -15.2169 -11.7101 19.6073
v -8.7417 -10.1411 19.2887
v -7.7343 -10.1411 19.2887
v -16.2821 -8.8295 19.1595
v -14.2654 -7.3761 19.1130
v -9.9490 -7.2006 19.1776
v -7.7343 -8.4785 19.2887
v -12.7762 -5.5902 19.0665
v -9.8466 -4.2657 19.2178
v -7.5293 -2.9412 19.3690
v -8.5385 0.2899 19.3797
v -7.5555 0.2899 19.3797
v -8.2694 2.3602 19.1449
v -7.9662 2.3602 19.1449
f 3 2 1
f 3 4 2
f 8 5 4
f 8 9 5
f 9 6 5
f 9 10 6
f 12 7 11
f 12 8 7
f 13 8 12
f 13 9 8
f 14 9 13
f 14 10 9
f 19 16 15
f 19 20 16
f 21 1 2
f 21 20 1
f 23 17 22
f 23 18 17
f 25 1 20
f 25 3 1
f 26 21 2
f 26 2 4
f 26 4 3
f 26 3 25
f 27 4 5
f 27 26 4
f 27 21 26
f 27 22 21
f 6 27 5
f 6 28 27
f 27 23 22
f 27 28 23
f 33 24 32
f 33 25 24
f 34 4 26
f 34 8 4
f 34 7 8
f 34 33 7
f 34 25 33
f 34 26 25
f 35 28 6
f 35 6 10
f 35 29 28
f 35 36 29
f 37 29 36
f 37 30 29
f 39 31 38
f 39 32 31
f 33 11 7
f 33 40 11
f 40 32 39
f 40 33 32
f 41 12 11
f 41 11 40
f 13 12 41
f 13 41 42
f 35 10 14
f 35 14 43
f 14 13 42
f 14 42 43
f 44 35 43
f 44 36 35
f 45 40 39
f 45 46 40
f 47 40 46
f 47 41 40
f 47 42 41
f 47 48 42
f 49 42 48
f 49 43 42
f 52 15 16
f 52 51 15
f 55 17 18
f 55 54 17
f 57 15 51
f 57 19 15
f 56 51 50
f 56 57 51
f 58 52 16
f 58 16 20
f 58 20 19
f 58 19 57
f 59 20 21
f 59 58 20
f 59 52 58
f 59 53 52
f 60 17 54
f 60 22 17
f 60 21 22
f 60 59 21
f 60 53 59
f 60 54 53
f 55 18 23
f 55 23 61
f 67 56 66
f 67 57 56
f 68 20 58
f 68 25 20
f 68 24 25
f 68 67 24
f 68 57 67
f 68 58 57
f 69 61 23
f 69 23 28
f 29 69 28
f 29 70 69
f 69 62 61
f 69 70 62
f 30 70 29
f 30 71 70
f 72 63 71
f 72 64 63
f 74 65 73
f 74 66 65
f 75 24 67
f 75 32 24
f 75 31 32
f 75 74 31
f 75 66 74
f 75 67 66
f 77 71 30
f 77 30 37
f 37 36 76
f 37 76 77
f 78 71 77
f 78 72 71
f 80 31 74
f 80 38 31
f 79 74 73
f 79 80 74
f 81 39 38
f 81 38 80
f 76 36 44
f 76 44 83
f 44 43 82
f 44 82 83
f 84 76 83
f 84 77 76
f 84 78 77
f 84 85 78
f 81 45 39
f 81 86 45
f 87 46 45
f 87 45 86
f 88 47 46
f 88 46 87
f 48 47 88
f 48 88 89
f 82 43 49
f 82 49 90
f 49 48 89
f 49 89 90
f 91 82 90
f 91 83 82
f 95 50 51
f 95 94 50
f 95 92 94
f 95 93 92
f 96 51 52
f 96 95 51
f 53 96 52
f 53 97 96
f 98 53 54
f 98 97 53
f 99 54 55
f 99 98 54
f 101 50 94
f 101 56 50
f 102 99 55
f 102 55 61
f 103 61 62
f 103 102 61
f 64 104 63
f 64 105 104
f 107 56 101
f 107 66 56
f 107 65 66
f 107 106 65
f 107 100 106
f 107 101 100
f 103 62 70
f 103 70 109
f 108 102 103
f 108 103 109
f 110 63 104
f 110 71 63
f 110 70 71
f 110 109 70
f 105 64 72
f 105 72 111
f 111 110 104
f 111 104 105
f 112 65 106
f 112 73 65
f 114 113 108
f 114 108 109
f 111 72 78
f 111 78 115
f 112 79 73
f 112 116 79
f 117 80 79
f 117 79 116
f 118 81 80
f 118 80 117
f 84 83 119
f 84 119 120
f 115 78 85
f 115 85 121
f 85 84 120
f 85 120 121
f 122 117 116
f 122 123 117
f 118 86 81
f 118 124 86
f 123 118 117
f 123 124 118
f 125 87 86
f 125 86 124
f 88 87 125
f 88 125 126
f 89 88 126
f 89 126 127
f 90 89 127
f 90 127 128
f 119 83 91
f 119 91 129
f 91 90 128
f 91 128 129
f 93 130 92
f 93 131 130
f 130 94 92
f 130 133 94
f 134 131 93
f 134 93 95
f 134 133 130
f 134 130 131
f 135 95 96
f 135 134 95
f 136 96 97
f 136 135 96
f 137 97 98
f 137 136 97
f 99 137 98
f 99 138 137
f 140 94 133
f 140 101 94
f 140 100 101
f 140 139 100
f 140 132 139
f 140 133 132
f 141 138 99
f 141 99 102
f 142 100 139
f 142 106 100
f 141 102 108
f 141 108 143
f 110 144 109
f 110 145 144
f 111 145 110
f 111 146 145
f 142 112 106
f 142 148 112
f 143 108 113
f 143 113 149
f 144 114 109
f 144 150 114
f 114 149 113
f 114 150 149
f 151 150 144
f 151 144 145
f 146 111 115
f 146 115 152
f 152 151 145
f 152 145 146
f 154 112 148
f 154 116 112
f 154 147 153
f 154 148 147
f 157 120 119
f 157 119 156
f 157 156 150
f 157 150 151
f 152 115 121
f 152 121 158
f 158 121 120
f 158 120 157
f 158 157 151
f 158 151 152
f 154 122 116
f 154 160 122
f 159 154 153
f 159 160 154
f 161 123 122
f 161 122 160
f 162 124 123
f 162 123 161
f 125 124 162
f 125 162 163
f 164 126 125
f 164 125 163
f 165 127 126
f 165 126 164
f 128 127 165
f 128 165 166
f 167 156 119
f 167 119 129
f 167 129 128
f 167 128 166
f 167 166 155
f 167 155 156
f 172 132 133
f 172 171 132
f 134 172 133
f 134 173 172
f 172 169 168
f 172 173 169
f 174 134 135
f 174 173 134
f 136 174 135
f 136 175 174
f 176 136 137
f 176 175 136
f 177 137 138
f 177 176 137
f 179 132 171
f 179 139 132
f 179 170 178
f 179 171 170
f 180 173 174
f 180 174 181
f 182 181 174
f 182 174 175
f 177 138 141
f 177 141 184
f 183 176 177
f 183 177 184
f 179 142 139
f 179 185 142
f 186 184 141
f 186 141 143
f 185 148 142
f 185 188 148
f 148 187 147
f 148 188 187
f 186 143 149
f 186 149 191
f 192 149 150
f 192 191 149
f 187 153 147
f 187 193 153
f 194 193 187
f 194 187 188
f 194 188 189
f 194 189 195
f 196 190 191
f 196 191 197
f 192 150 156
f 192 156 198
f 198 156 155
f 198 155 197
f 197 191 192
f 197 192 198
f 193 159 153
f 193 199 159
f 160 159 199
f 160 199 200
f 200 199 193
f 200 193 194
f 161 160 200
f 161 200 201
f 202 162 161
f 202 161 201
f 163 162 202
f 163 202 203
f 164 163 203
f 164 203 204
f 205 165 164
f 205 164 204
f 206 197 155
f 206 155 166
f 166 165 205
f 166 205 206
f 207 197 206
f 207 198 197
f 208 202 201
f 208 209 202
f 210 202 209
f 210 203 202
f 211 203 210
f 211 204 203
f 214 213 212
f 214 215 213
f 216 215 214
f 216 217 215
f 219 217 216
f 219 220 217
f 220 218 217
f 220 221 218
f 169 222 168
f 169 223 222
f 225 170 171
f 225 224 170
f 222 172 168
f 222 226 172
f 172 225 171
f 172 226 225
f 227 223 169
f 227 169 173
f 227 226 222
f 227 222 223
f 176 228 175
f 176 229 228
f 224 178 170
f 224 230 178
f 231 179 178
f 231 178 230
f 231 230 224
f 231 224 225
f 227 173 180
f 227 180 233
f 232 226 227
f 232 227 233
f 234 180 181
f 234 233 180
f 228 182 175
f 228 235 182
f 182 234 181
f 182 235 234
f 229 176 183
f 229 183 236
f 235 228 229
f 235 229 236
f 237 183 184
f 237 236 183
f 239 179 231
f 239 185 179
f 238 231 230
f 238 239 231
f 240 234 235
f 240 235 241
f 242 241 235
f 242 235 236
f 237 184 186
f 237 186 243
f 242 236 237
f 242 237 243
f 239 188 185
f 239 245 188
f 244 239 238
f 244 245 239
f 189 188 245
f 189 245 246
f 247 241 242
f 247 242 248
f 249 243 186
f 249 186 191
f 249 191 190
f 249 190 248
f 249 248 242
f 249 242 243
f 246 195 189
f 246 251 195
f 195 250 194
f 195 251 250
f 250 246 245
f 250 251 246
f 255 248 190
f 255 190 196
f 255 254 247
f 255 247 248
f 256 196 197
f 256 255 196
f 257 197 198
f 257 256 197
f 258 194 250
f 258 200 194
f 201 200 258
f 201 258 259
f 258 250 251
f 258 251 259
f 259 251 252
f 259 252 260
f 261 260 252
f 261 252 253
f 262 261 253
f 262 253 254
f 205 204 262
f 205 262 263
f 263 262 254
f 263 254 255
f 264 206 205
f 264 205 263
f 263 255 256
f 263 256 264
f 257 198 207
f 257 207 265
f 207 206 264
f 207 264 265
f 264 256 257
f 264 257 265
f 259 208 201
f 259 266 208
f 267 209 208
f 267 208 266
f 266 259 260
f 266 260 267
f 268 210 209
f 268 209 267
f 268 267 260
f 268 260 261
f 269 262 204
f 269 204 211
f 211 210 268
f 211 268 269
f 269 268 261
f 269 261 262
f 213 270 212
f 213 271 270
f 272 212 270
f 272 214 212
f 271 213 215
f 271 215 273
f 272 216 214
f 272 276 216
f 273 215 217
f 273 217 277
f 218 277 217
f 218 278 277
f 279 274 278
f 279 275 274
f 281 216 276
f 281 219 216
f 220 219 281
f 220 281 282
f 281 276 277
f 281 277 282
f 283 278 218
f 283 218 221
f 221 220 282
f 221 282 283
f 284 278 283
f 284 279 278
f 284 280 279
f 284 285 280
f 286 283 282
f 286 287 283
f 288 283 287
f 288 284 283
f 226 288 225
f 226 289 288
f 288 285 284
f 288 289 285
f 292 225 288
f 292 231 225
f 292 230 231
f 292 291 230
f 292 287 291
f 292 288 287
f 289 226 232
f 289 232 293
f 233 293 232
f 233 294 293
f 293 290 289
f 293 294 290
f 295 233 234
f 295 294 233
f 296 230 291
f 296 238 230
f 295 234 240
f 295 240 298
f 297 294 295
f 297 295 298
f 299 240 241
f 299 298 240
f 296 244 238
f 296 300 244
f 301 245 244
f 301 244 300
f 299 241 247
f 299 247 303
f 302 298 299
f 302 299 303
f 304 245 301
f 304 250 245
f 305 251 250
f 305 250 304
f 252 251 305
f 252 305 306
f 253 252 306
f 253 306 307
f 308 303 247
f 308 247 254
f 308 254 253
f 308 253 307
f 308 307 302
f 308 302 303
f 271 309 270
f 271 310 309
f 309 272 270
f 309 311 272
f 310 271 273
f 310 273 312
f 311 309 310
f 311 310 312
f 275 313 274
f 275 314 313
f 315 272 311
f 315 276 272
f 312 273 277
f 312 277 316
f 277 276 315
f 277 315 316
f 315 311 312
f 315 312 316
f 313 278 274
f 313 317 278
f 278 316 277
f 278 317 316
f 314 275 279
f 314 279 318
f 317 313 314
f 317 314 318
f 319 279 280
f 319 318 279
f 316 282 277
f 316 320 282
f 321 320 316
f 321 316 317
f 319 280 285
f 319 285 323
f 322 318 319
f 322 319 323
f 320 286 282
f 320 324 286
f 325 287 286
f 325 286 324
f 326 323 285
f 326 285 289
f 290 326 289
f 290 327 326
f 328 287 325
f 328 291 287
f 331 327 290
f 331 290 294
f 332 291 328
f 332 296 291
f 332 328 329
f 332 329 333
f 331 294 297
f 331 297 335
f 335 334 330
f 335 330 331
f 336 297 298
f 336 335 297
f 337 296 332
f 337 300 296
f 301 300 337
f 301 337 338
f 337 332 333
f 337 333 338
f 340 339 334
f 340 334 335
f 336 298 302
f 336 302 341
f 340 335 336
f 340 336 341
f 342 301 338
f 342 304 301
f 305 304 342
f 305 342 343
f 342 338 339
f 342 339 343
f 344 306 305
f 344 305 343
f 343 339 340
f 343 340 344
f 345 341 302
f 345 302 307
f 345 307 306
f 345 306 344
f 344 340 341
f 344 341 345
f 348 317 318
f 348 347 317
f 347 321 317
f 347 350 321
f 321 349 320
f 321 350 349
f 350 346 349
f 350 347 346
f 348 318 322
f 348 322 351
f 350 347 348
f 350 348 351
f 352 322 323
f 352 351 322
f 353 320 349
f 353 324 320
f 325 324 353
f 325 353 354
f 354 350 351
f 354 351 355
f 352 323 326
f 352 326 356
f 357 326 327
f 357 356 326
f 358 325 354
f 358 328 325
f 329 328 358
f 329 358 359
f 359 355 356
f 359 356 360
f 361 357 327
f 361 327 331
f 361 331 330
f 361 330 360
f 360 356 357
f 360 357 361
f 362 329 359
f 362 333 329
f 363 360 330
f 363 330 334
f 364 333 362
f 364 338 333
f 365 363 334
f 365 334 339
f 339 338 364
f 339 364 365
f 367 346 347
f 367 366 346
f 368 346 366
f 368 349 346
f 367 347 350
f 367 350 369
f 368 366 367
f 368 367 369
f 352 370 351
f 352 371 370
f 368 353 349
f 368 372 353
f 369 350 354
f 369 354 373
f 354 353 372
f 354 372 373
f 372 368 369
f 372 369 373
f 370 355 351
f 370 374 355
f 355 373 354
f 355 374 373
f 375 371 352
f 375 352 356
f 375 356 355
f 375 355 374
f 375 374 370
f 375 370 371
f 376 354 373
f 376 358 354
f 377 374 355
f 377 355 359
f 359 358 376
f 359 376 377
f 376 373 374
f 376 374 377
f 378 359 360
f 378 377 359
f 379 359 377
f 379 362 359
f 378 360 363
f 378 363 380
f 379 377 378
f 379 378 380
f 379 364 362
f 379 381 364
f 382 380 363
f 382 363 365
f 365 364 381
f 365 381 382
f 382 381 379
f 382 379 380
