# parsimony mesh: eg11355_monomer (source /Users/eranagmon/code/v2e-cplx/workspace/studies/ecoli-3d/viz/3d/structures/eg11355_monomer.pdb)
# atoms: 1936  voxel: 4 Å  verts: 953  tris: 1952
v -8.8414 3.9927 -29.9899
v -8.0673 3.9927 -29.9899
v -8.8414 5.4630 -29.9899
v -8.0673 5.4630 -29.9899
v 31.1291 -2.8723 -25.9012
v 31.7338 -2.8723 -25.9012
v -9.4554 0.7899 -27.0952
v -6.5463 0.1681 -27.7642
v -3.6906 0.2510 -27.1240
v 10.7310 -0.0304 -26.3730
v 13.4537 -0.6099 -27.1714
v 15.9333 0.0339 -27.0559
v 26.5430 0.3664 -26.5089
v 29.6590 -0.8901 -26.5882
v 32.1214 -0.7749 -26.2538
v -13.3298 4.2589 -26.4529
v -10.4817 2.7925 -28.1074
v -6.6589 2.8857 -29.4956
v -2.4329 3.4364 -27.1709
v -0.4423 4.9106 -25.8874
v 10.7310 2.0281 -26.3730
v 13.4537 2.4342 -27.1714
v 15.9333 2.0342 -27.0559
v 26.4770 3.2251 -26.4273
v 29.4537 3.2251 -27.1064
v 32.4533 3.2251 -26.4795
v -13.2351 7.2251 -26.5371
v -10.3234 6.9678 -28.1051
v -6.6589 6.9678 -28.4073
v -2.6590 6.9059 -26.7441
v -0.4423 5.3597 -25.8874
v 27.0622 5.3958 -25.9278
v 29.4537 5.5828 -26.1973
v 32.1763 5.5314 -26.2022
v -12.6811 9.3780 -26.1301
v -10.5463 9.4193 -26.1918
v -6.5463 9.6099 -26.4038
v -4.0674 9.6322 -26.4127
v -16.7009 -2.8776 -21.8768
v -15.3051 -2.8776 -21.8768
v -9.8587 -3.1328 -22.2291
v -7.7063 -3.1328 -22.2291
v 10.2177 -3.0151 -22.9647
v 13.4537 -3.2873 -23.5383
v 15.9759 -3.2179 -22.9534
v 31.1291 -2.8723 -25.5280
v 31.7338 -2.8723 -25.5280
v -17.2533 -0.7749 -22.3703
v -14.2016 -1.1662 -22.8576
v -10.9904 -0.9852 -23.8492
v -6.4423 -1.8069 -23.6576
v -2.9323 -0.2384 -23.8004
v 7.0917 -0.0101 -22.2452
v 9.1410 -1.3535 -23.9382
v 13.4537 -2.6099 -25.5383
v 16.5217 -1.0896 -24.0922
v 23.0121 0.5891 -22.3960
v 25.3073 -0.4391 -23.7578
v 29.6590 -1.8550 -24.0370
v 32.0778 -0.5724 -24.0370
v -17.8106 3.2251 -22.7987
v -14.6164 3.0454 -24.8003
v -12.1220 1.5923 -25.4693
v -0.9323 2.0136 -23.8004
v 0.3057 4.0136 -23.8004
v 6.5445 3.2251 -22.4668
v 9.4201 3.3069 -24.1937
v 13.4537 4.4342 -24.1843
v 17.4160 3.3671 -23.3397
v 21.5887 3.3100 -22.8913
v 24.4770 3.2251 -24.9136
v 32.9465 3.2251 -23.8004
v -17.4440 5.7057 -22.4480
v -14.7001 7.1135 -23.7889
v -9.8699 8.8729 -22.7441
v -7.2650 8.8729 -22.7441
v -2.1567 7.9967 -23.8004
v 0.3057 5.9967 -23.8004
v 6.6035 5.7215 -22.2442
v 9.4537 5.7425 -22.4585
v 13.4537 5.3860 -22.1843
v 17.4537 5.7478 -22.1094
v 21.4738 7.2306 -22.6996
v 25.6188 6.9276 -24.1252
v 29.0913 7.3888 -23.4264
v 32.3764 5.8017 -23.8004
v -12.6509 9.3410 -23.8004
v -10.9404 9.3814 -23.9667
v -6.1775 9.5394 -23.9667
v -4.1567 9.5384 -23.8004
v 22.8784 11.2251 -22.1912
v 25.4537 11.2251 -23.0725
v 28.0714 11.2251 -22.6817
v 23.3200 13.6965 -22.0454
v 25.5246 15.1080 -22.7581
v 28.1798 15.2251 -22.8138
v 26.9052 18.4566 -22.0197
v 27.6609 18.4566 -22.0197
v 15.0739 -7.2653 -18.1470
v 17.4537 -7.3679 -18.2799
v 21.4537 -7.0104 -18.0304
v 23.4729 -6.7885 -17.8143
v -20.6002 -2.8455 -17.9346
v -18.2390 -3.1302 -19.4809
v -14.6818 -3.1661 -19.8004
v -9.8587 -3.1328 -20.7406
v -7.7063 -3.1328 -20.7406
v 10.2177 -3.0151 -21.0211
v 13.4057 -4.4498 -19.5841
v 17.3670 -4.6407 -19.9914
v 21.4537 -4.7749 -18.5573
v 23.6511 -4.7749 -18.0785
v -20.7001 -0.7749 -18.1287
v -19.2533 -0.7749 -20.1287
v -12.6818 -2.7188 -19.8004
v -10.6775 -1.4042 -19.4065
v -6.5406 -0.8755 -19.4065
v -2.1685 -0.3290 -20.1678
v 0.2480 0.1695 -19.0793
v 6.9739 0.2296 -19.8004
v 9.1121 -1.2947 -19.7329
v 11.7375 -1.6473 -18.3545
v 18.4290 -0.7749 -20.4968
v 21.5887 -0.7565 -20.1717
v 25.2001 -1.8440 -19.6146
v 29.5656 -0.0599 -19.8211
v 31.6036 0.8960 -21.1682
v -20.8673 3.2251 -18.6021
v -19.8106 3.2251 -20.6021
v -8.9572 3.2251 -18.0776
v -7.9767 3.2251 -18.0776
v -0.5833 1.2576 -21.7460
v 0.9968 2.8446 -20.1678
v 5.9505 3.2251 -19.8004
v 18.8987 2.0332 -21.0499
v 20.3454 2.0332 -21.0499
v 30.5418 3.2251 -18.8602
v 31.9469 3.2251 -20.8602
v -20.8232 5.4144 -18.5657
v -18.6849 6.1184 -19.8596
v -14.1490 8.0024 -20.1940
v -10.6736 7.3803 -19.8439
v -7.0938 7.4138 -19.4590
v -1.8390 8.7859 -21.0790
v 0.7076 7.3616 -19.7676
v 6.4304 5.8619 -19.8004
v 9.4537 6.6705 -19.8004
v 13.4537 6.3027 -19.8004
v 17.4537 6.2828 -19.8004
v 20.4316 8.0139 -19.8004
v 29.9399 7.1027 -19.8276
v 31.9613 5.6877 -21.1791
v -12.5509 9.2267 -21.7896
v -12.5365 9.2267 -21.7896
v -4.9216 9.4394 -19.8004
v -2.9219 9.5367 -19.7676
v -0.2339 9.4588 -18.4124
v 22.5557 11.2008 -19.9731
v 24.1618 12.5180 -18.7549
v 29.1097 11.2251 -19.8004
v 23.3200 13.6965 -21.4216
v 24.7186 15.1080 -19.9731
v 29.0657 15.2251 -19.8004
v 26.5038 18.8767 -19.8004
v 28.0692 18.8767 -19.8004
v 11.3951 -10.8417 -13.8651
v 13.4537 -11.5172 -14.4178
v 16.7862 -11.6978 -14.5590
v 11.3951 -10.2014 -13.8651
v 13.4120 -8.7334 -15.5454
v 17.8532 -9.6488 -15.8556
v 21.4537 -8.6604 -15.8004
v 23.7677 -7.4357 -15.8004
v -20.6002 -2.8455 -17.5101
v -18.6891 -3.3454 -16.0263
v -15.1777 -3.4350 -15.8004
v -5.2476 -3.5040 -14.5977
v -2.5463 -3.7617 -15.1070
v 0.2441 -3.3614 -14.7452
v 10.5011 -3.9633 -14.8436
v 12.3739 -5.0880 -16.0263
v 24.9133 -4.7749 -15.8004
v -20.7001 -0.7749 -17.2283
v -19.9757 -0.7749 -15.2283
v -13.1777 -2.1256 -15.8004
v -10.3163 0.0036 -15.7171
v -6.6445 -0.5044 -15.7963
v -2.5463 -1.9846 -17.1070
v 1.1522 -1.0083 -15.9673
v 6.9749 1.1168 -15.8004
v 9.2822 -0.5850 -16.0263
v 11.7375 -1.6473 -17.5103
v 26.5994 -2.1314 -15.8004
v 28.7774 -0.1314 -15.8004
v -20.8197 3.5552 -15.9169
v -20.2141 2.4419 -14.6613
v -9.4853 2.9976 -15.7171
v -7.6474 2.9976 -15.7171
v -0.6147 5.1737 -13.8359
v 1.1253 3.5943 -15.4217
v 6.1300 3.2251 -15.8004
v 30.0636 3.2251 -15.8004
v -20.7747 5.3864 -15.8004
v -18.5463 6.5081 -15.8004
v -14.5463 6.9255 -15.8004
v -11.5075 5.8038 -15.8004
v -5.8193 7.0368 -15.9627
v -2.1873 7.0368 -14.7871
v 0.2471 7.2251 -16.3310
v 6.6088 5.9395 -15.8004
v 9.4537 7.3242 -15.8004
v 13.4537 7.3857 -15.8004
v 17.6877 7.6713 -15.5556
v 20.0575 8.2676 -16.7258
v 29.4837 7.2251 -15.8004
v -4.9947 9.5001 -17.4043
v -2.5463 9.6066 -17.0072
v -0.2339 9.4588 -17.1390
v 19.1769 10.0225 -14.0591
v 21.4160 10.1882 -15.5556
v 25.4785 11.3765 -15.8389
v 28.3894 10.8918 -15.8389
v 26.4461 15.2251 -16.9754
v 28.3396 15.2251 -16.9754
v 26.7356 18.1958 -17.3030
v 28.0672 18.1958 -17.3030
v -4.9448 -11.2933 -10.0589
v -2.5463 -11.2559 -10.1168
v -0.4093 -10.8977 -9.9637
v 11.3951 -10.8417 -13.5992
v 13.4537 -11.5172 -12.6627
v 16.7862 -11.6978 -12.4848
v -8.6112 -6.9541 -9.9159
v -6.3854 -8.4824 -10.5099
v -2.5463 -8.7749 -11.3525
v 1.1359 -8.4053 -10.4247
v 3.5704 -6.8255 -9.8384
v 11.1314 -8.8029 -12.2275
v 12.7236 -9.0632 -11.8883
v 17.8532 -10.4534 -11.4110
v 21.4537 -9.5323 -11.8004
v 24.0560 -7.8967 -11.8004
v -17.4509 -3.2362 -13.1519
v -15.9663 -3.2362 -13.1519
v -8.6112 -5.5391 -9.9159
v -6.8844 -4.5216 -11.5958
v -2.5463 -5.7617 -13.0362
v 1.7242 -4.9490 -11.5723
v 5.1058 -4.9272 -10.1553
v 9.3511 -4.9740 -11.9974
v 11.7500 -6.6300 -13.5225
v 25.2038 -4.7749 -11.8004
v -21.2344 0.2587 -10.7654
v -18.8325 -0.9081 -11.9586
v -14.5983 -1.3602 -11.8113
v -10.4531 0.4788 -11.9389
v -7.6095 -0.5158 -11.9389
v 2.9260 -0.8867 -12.1309
v 5.5338 -0.5609 -12.0783
v 7.8344 -1.4939 -13.1389
v 26.6015 -2.2377 -11.8004
v 29.6008 -0.2668 -11.9077
v 31.7878 0.6891 -10.6459
v -20.9836 3.5552 -11.9794
v -20.2141 2.4419 -13.4320
v -10.0996 2.9976 -11.9389
v -7.0899 2.9976 -11.9389
v -1.1844 4.8097 -11.8004
v 1.8015 2.8195 -12.1309
v 5.6339 3.3154 -11.9311
v 7.8223 4.8611 -10.1777
v 30.8319 3.3616 -11.9077
v 31.7878 2.1193 -10.6459
v -20.5768 5.2616 -11.8004
v -18.5463 6.4540 -11.8004
v -14.4976 7.8445 -11.5370
v -12.0083 6.8905 -11.5370
v -5.4040 5.6375 -11.8004
v -3.1844 5.6375 -11.8004
v 6.8414 5.8250 -12.8444
v 9.2749 6.6106 -11.6268
v 13.6610 8.2689 -11.5868
v 16.5103 8.5887 -12.7777
v 26.3513 8.3499 -11.0653
v 28.7899 7.1000 -12.1594
v -13.1318 9.9950 -10.0280
v -12.2388 9.9950 -10.0280
v 15.1326 9.3122 -10.1111
v 17.6877 10.0643 -11.5868
v 21.4537 10.4925 -11.8004
v 25.1923 9.5188 -12.1594
v 27.6288 9.3363 -13.7320
v -5.0336 -11.4804 -7.8004
v -2.3204 -11.4130 -7.6917
v -0.4093 -10.8977 -8.9526
v 7.1399 -10.8668 -5.9031
v 7.8683 -10.8668 -5.9031
v 19.4065 -10.7866 -5.8687
v 19.4758 -10.7866 -5.8687
v -20.7785 -6.9005 -5.9209
v -20.3893 -6.9005 -5.9209
v -8.7061 -7.0872 -7.8004
v -7.0336 -9.0872 -7.8004
v -0.8365 -10.6468 -6.2859
v 1.1359 -9.7155 -7.6917
v 5.3552 -8.6227 -7.4723
v 9.3681 -8.8527 -7.4723
v 13.4537 -9.4743 -7.8004
v 17.8254 -10.1500 -7.4414
v 21.3104 -8.8465 -7.3245
v 23.8573 -7.4031 -8.7802
v -21.1882 -4.7749 -6.6033
v -19.7217 -4.7749 -6.6033
v -8.7061 -4.8850 -7.8004
v -8.5149 -2.8850 -7.8004
v 3.1202 -3.7333 -7.8004
v 5.0469 -4.6982 -8.3323
v 8.2012 -5.9846 -9.0415
v 23.1450 -6.4817 -6.1135
v 24.2484 -4.9990 -7.5883
v -21.5648 -0.9547 -7.9704
v -18.3808 -1.8701 -7.9704
v -14.5463 -0.9034 -7.8004
v -11.4658 0.2407 -7.8004
v -6.3786 -0.4834 -7.7916
v -4.2037 1.0442 -6.4524
v 3.1202 -2.1832 -7.8004
v 4.1543 -2.1832 -7.8004
v 26.1443 -1.7694 -7.8004
v 29.8211 0.1078 -7.4374
v 31.7878 0.6891 -8.5286
v -22.0607 3.2251 -7.8004
v -11.1342 3.2251 -7.8004
v -5.2799 3.2251 -9.0476
v -2.7662 3.1313 -7.9652
v 1.4537 2.8130 -7.8004
v 5.4537 2.9879 -7.8004
v 8.0349 4.2592 -7.8004
v 31.2272 3.1494 -7.3403
v 31.6496 3.1494 -7.3403
v -21.2537 6.8388 -7.4740
v -18.5463 7.9272 -8.2428
v -15.7985 8.8051 -8.9343
v -11.6768 7.2251 -7.8004
v -5.0953 5.4221 -9.4781
v -3.9954 5.4221 -9.4781
v 10.0349 6.0821 -7.8004
v 13.6610 7.8426 -8.1029
v 17.4537 8.4960 -6.9741
v 21.4537 8.8183 -6.6716
v 25.1923 7.9824 -7.8609
v 29.6145 5.8431 -7.6113
v 31.5114 5.3092 -6.1519
v -20.7801 9.2690 -5.9231
v -18.5463 9.5255 -6.2428
v -14.3797 11.1217 -7.7259
v -11.9353 11.2871 -7.8307
v 15.1326 9.3122 -9.6379
v 17.4537 9.6761 -8.9741
v 21.4537 9.7583 -8.6716
v 23.6846 9.4218 -9.2345
v -12.9609 13.3879 -6.5176
v -12.2452 13.3879 -6.5176
v -4.7974 -11.1972 -5.3608
v -2.3878 -11.2227 -4.1788
v 1.4537 -11.6355 -3.3748
v 5.6655 -11.6773 -3.9421
v 9.3025 -11.5707 -3.9298
v 12.2713 -11.2714 -2.6827
v 18.8324 -10.9759 -3.8004
v 19.6807 -10.9759 -3.8004
v -21.5549 -7.3659 -3.8004
v -19.4623 -7.3659 -3.8004
v -8.6944 -7.0121 -5.4940
v -6.3095 -8.6025 -4.0941
v -2.3878 -10.4199 -4.1788
v 1.4537 -10.4126 -5.3748
v 4.4733 -10.4199 -5.3699
v 10.5350 -10.3010 -5.3493
v 13.5443 -9.9867 -3.9298
v 16.8324 -10.1450 -3.8004
v 20.7999 -8.7749 -3.8004
v -24.7898 -3.7176 -2.2553
v -23.3274 -4.9405 -3.6734
v -17.5136 -5.1171 -3.8579
v -15.9322 -4.0120 -2.5629
v -8.6944 -5.4907 -5.4940
v -7.6070 -4.4044 -4.0166
v 3.2585 -2.9578 -5.6092
v 3.8670 -2.9578 -5.6092
v 22.5473 -4.9990 -3.5116
v 24.1278 -3.8150 -4.6524
v -24.7898 -2.3651 -2.2553
v -22.3843 -0.5758 -3.3673
v -18.7369 -0.5601 -3.5211
v -14.5778 -1.6975 -3.8579
v -11.8572 0.2410 -3.8004
v -5.9085 -0.4834 -4.0189
v -4.2037 1.0442 -5.4979
v 3.2585 -2.4662 -5.6092
v 3.8670 -2.4662 -5.6092
v 23.1173 -2.4256 -1.9857
v 25.2833 -0.9256 -3.6320
v 28.7327 0.5744 -5.2783
v -24.5547 5.2023 -1.8636
v -22.5385 3.2181 -3.1715
v -20.5368 1.2340 -1.8127
v -11.4362 3.2251 -3.8004
v -4.9907 1.6644 -2.8313
v -2.7407 1.6953 -4.0189
v 1.4537 2.2126 -3.8004
v 5.5008 3.6543 -4.0064
v 7.8601 4.3013 -5.4770
v 25.7726 3.2251 -3.0965
v 29.8211 2.9977 -5.2031
v 31.5114 4.1794 -5.7434
v -24.5547 5.2473 -1.8636
v -22.4626 7.0463 -3.7136
v -20.1174 8.8453 -2.8970
v -13.1716 8.5639 -2.4243
v -11.9636 7.2284 -3.7748
v 6.8655 5.7427 -2.8103
v 9.2976 6.5476 -4.0064
v 13.4537 7.4451 -3.8004
v 17.6054 8.2740 -3.9135
v 21.3292 8.2848 -3.9135
v 25.1178 6.2926 -3.9506
v 29.4537 5.6540 -5.4453
v 31.5114 5.3092 -5.7434
v -20.7801 9.2690 -5.5637
v -18.6890 10.2116 -4.0584
v -14.3996 11.3586 -3.9848
v -12.0131 11.2251 -5.0770
v -0.6148 13.1538 -1.8295
v -0.1997 13.1538 -1.8295
v 19.0399 9.3548 -2.6555
v 19.9129 9.3548 -2.6555
v -12.9609 13.3879 -5.5454
v -12.2452 13.3879 -5.5454
v -0.6148 13.2611 -1.8295
v -0.1997 13.2611 -1.8295
v 6.4602 -15.4422 1.4979
v 9.4537 -15.7335 1.2651
v 12.3381 -15.3858 1.6553
v -1.1246 -11.1567 0.1996
v 1.4537 -12.0119 0.1996
v 5.2576 -13.5018 0.1786
v 9.4537 -13.7007 -0.7349
v 13.6380 -12.8049 0.1555
v 17.4485 -11.3515 0.0957
v 19.7342 -11.0312 -1.1310
v -22.2943 -7.8985 0.1996
v -18.1733 -8.0056 -0.1670
v -15.7522 -7.3280 0.9219
v -9.2681 -7.4021 1.6971
v -6.5115 -8.0383 0.2981
v -3.1246 -9.8837 0.1996
v 14.9380 -10.4414 -1.3443
v 17.4485 -10.4276 0.0957
v 20.5359 -8.9582 0.2012
v -24.7898 -3.7176 -1.3808
v -23.8190 -4.9405 0.0514
v -16.5913 -6.6787 -1.7448
v -14.5089 -4.9861 -0.0374
v -10.6604 -4.6866 1.6836
v -6.8262 -4.7578 0.2981
v 21.6209 -4.7749 0.1996
v -24.7898 -2.3651 -1.3808
v -22.4206 -1.2346 0.0514
v -20.1280 0.8431 0.1996
v -13.2656 -1.9222 -0.9966
v -11.7561 -0.6633 0.2818
v -5.1276 -1.1577 0.2976
v -2.5463 0.1799 1.2366
v -0.3456 1.1363 1.4189
v 21.9955 -0.9653 -0.0085
v 23.7722 0.2411 -1.4805
v -24.5547 5.2023 -1.7761
v -22.5357 3.8183 -0.1859
v -20.1280 1.4837 0.1996
v -10.8802 3.2251 0.1996
v -5.2504 2.9711 0.3330
v -3.0011 2.7342 0.2651
v 1.2750 2.8458 0.3530
v 4.1988 4.4372 -0.7128
v 21.8690 3.2251 0.5592
v 23.7726 3.2251 -1.4408
v -24.5547 5.2473 -1.7761
v -22.3291 7.0463 -0.1558
v -20.1174 8.8453 -1.2022
v -13.1716 8.5639 -0.5334
v -11.6505 7.2284 0.5598
v -5.9226 7.2251 1.3381
v -3.0075 7.2251 1.3381
v 2.8956 5.4787 1.9539
v 5.5008 6.1407 0.4521
v 9.6622 8.3636 -0.1475
v 13.2660 8.4485 -0.1475
v 17.6054 7.9004 -0.0337
v 21.1919 6.9018 -0.2484
v 23.5605 5.5337 -1.6409
v -20.7961 9.8203 1.4644
v -18.6890 11.1220 0.1585
v -14.5215 10.7864 0.5598
v -10.6454 10.9505 2.0162
v -6.6690 11.2740 1.2760
v -2.0241 11.2696 0.2468
v 1.2617 12.2482 0.0289
v 3.6423 12.8413 1.2484
v 11.1345 9.3838 0.9544
v 11.8074 9.3838 0.9544
v 19.0399 9.3548 -1.5226
v 19.9129 9.3548 -1.5226
v -8.9138 15.2251 1.7085
v -6.5463 15.2251 1.0135
v -2.3213 15.0183 0.4029
v 1.2617 13.9359 0.0289
v 3.6423 13.4899 1.2484
v -8.7431 17.4110 1.8452
v -6.5463 17.5780 1.7290
v -4.0278 17.5098 1.9265
v -0.6214 -22.8789 6.1295
v -0.2839 -22.8789 6.1295
v -0.6214 -22.4892 6.1295
v 1.4999 -20.7094 6.1411
v 3.6666 -18.9296 6.1527
v -9.2316 -15.6877 5.6852
v -6.5463 -15.5082 5.7795
v -2.5463 -15.5195 5.6132
v 1.7517 -16.9316 5.1208
v 5.0634 -16.9008 4.3353
v 9.4537 -17.0315 4.1996
v 13.1150 -15.8426 4.1996
v -9.2316 -14.0437 5.6852
v -6.5463 -14.1788 5.7795
v -1.7084 -12.5238 4.2658
v 0.6809 -12.1793 3.8504
v 3.7936 -13.9076 2.5179
v 15.1150 -14.4454 4.1996
v 16.9856 -12.4454 4.1996
v -22.3736 -7.8252 4.1996
v -18.5463 -8.4733 4.1996
v -15.0113 -7.4230 4.1996
v -9.2681 -7.4021 3.3540
v -6.8262 -7.8858 4.4922
v -2.1732 -9.8172 3.9613
v -0.3495 -10.6211 5.1358
v 18.9856 -10.4291 4.1996
v 20.7902 -8.4291 4.1996
v -22.8339 -4.7749 4.1996
v -13.0113 -6.1227 4.1996
v -10.1319 -5.1400 3.8258
v -7.7871 -5.0298 4.3679
v 21.4820 -4.7749 4.1996
v -21.2318 -0.6735 4.0030
v -19.9981 0.7274 2.5387
v -9.7835 -0.7749 3.0292
v -6.1554 -1.1577 3.2677
v -2.5463 0.1799 2.7979
v -0.3456 1.1363 2.3233
v 20.6856 -0.7749 4.1996
v -21.8983 3.0267 4.0030
v -19.9981 1.5610 2.5387
v -9.3993 3.2251 2.8608
v -6.7246 3.0567 3.1330
v -2.3830 3.0567 2.8254
v 1.5162 3.9618 3.8075
v 5.4537 4.9714 5.6963
v 7.5328 5.1678 6.1458
v 20.7925 3.2251 4.1996
v -22.3393 7.2251 4.1996
v -9.7207 7.2251 2.7081
v -7.9226 7.2251 2.7081
v -1.0075 7.2251 2.6475
v 1.6908 6.4766 3.9053
v 5.4537 5.9814 3.6963
v 9.3337 7.1285 4.2581
v 13.2660 7.9425 3.9021
v 17.4537 7.0752 4.1996
v 20.2525 5.9675 4.1996
v -21.0458 10.4884 4.1996
v -18.8330 12.6293 3.8037
v -14.1972 12.1303 3.8037
v -10.8825 11.0541 3.5082
v -8.0841 9.9733 2.5865
v -0.7667 9.3854 2.5516
v 1.4186 10.4537 4.0108
v 3.7137 12.6406 4.1996
v 11.1345 9.3838 2.3705
v 11.8074 9.3838 2.3705
v -17.6908 13.6907 4.8732
v -15.2979 13.6907 4.8732
v -9.5921 15.4219 4.1673
v -8.0988 16.8864 5.4792
v -1.1952 16.8654 4.1996
v 1.4537 15.2376 4.1996
v 3.7137 13.5973 4.1996
v -8.7431 17.4110 2.8125
v -6.6778 17.8192 4.1673
v -3.1952 17.8283 4.1996
v -0.8341 -23.1456 8.1996
v -0.0322 -23.1456 8.1996
v -1.3055 -21.0034 8.0861
v 1.5750 -20.2258 7.5418
v 3.6666 -18.9296 6.6347
v -17.7249 -15.1636 9.8959
v -15.3373 -15.1636 9.8959
v -9.9722 -16.0413 8.1996
v -6.5463 -16.7459 8.1996
v -2.6752 -17.4953 8.0861
v 1.9394 -18.4672 7.9892
v 5.4799 -17.1289 8.3404
v 9.4537 -16.0729 7.6660
v 12.7844 -15.5876 6.9751
v -20.8946 -11.4579 10.0854
v -18.8534 -12.7847 9.7229
v -14.2209 -13.1245 9.3801
v -10.8302 -13.0340 8.1525
v -6.5463 -12.1788 7.2977
v -2.5463 -11.8086 6.9896
v -0.3495 -10.8834 6.3801
v 7.2931 -14.3180 10.0460
v 9.3622 -12.9008 9.3751
v 13.9417 -12.8324 8.2559
v 16.5613 -11.8612 8.1996
v -28.7170 -7.0854 9.7030
v -26.5463 -7.8045 8.8898
v -22.6630 -8.9217 8.1843
v -18.5463 -9.4317 7.8315
v -14.1947 -8.5615 7.2001
v -10.5463 -8.7749 7.3300
v -6.8262 -8.6733 7.2011
v -2.5463 -10.0325 6.9896
v -0.3495 -10.6211 6.3801
v 10.6345 -10.4523 9.5368
v 12.4323 -10.4523 9.5368
v 18.5613 -10.0718 8.1996
v 20.2603 -8.0718 8.1996
v -28.7170 -5.8780 9.7030
v -26.7389 -4.6368 8.9903
v -23.5775 -4.7749 7.0604
v -12.6270 -6.7200 6.2626
v -10.5463 -6.6375 6.4007
v -8.3462 -6.6466 6.4046
v 21.1378 -4.7749 8.1996
v -25.5340 -2.1514 9.9304
v -22.9533 -0.8008 8.4381
v 18.5830 0.3638 9.6071
v 20.4658 -0.8917 8.2441
v -22.6403 3.2251 8.1996
v 3.2902 4.9441 6.7659
v 5.4537 4.9714 6.7113
v 9.1442 4.8631 7.9768
v 13.4537 4.1521 9.5348
v 17.3313 3.1667 9.4763
v 20.3773 3.2251 7.5392
v -21.7581 7.3282 8.2909
v -19.9816 8.7303 9.6851
v 2.7872 7.2251 6.9807
v 5.5928 7.2406 8.4941
v 9.1442 5.7640 7.9768
v 13.4537 6.1016 7.5348
v 17.4537 6.2714 7.7399
v 20.1683 5.8368 7.2448
v -20.9625 10.3143 7.0184
v -18.8362 11.6572 8.5334
v -14.1972 12.7285 8.5089
v -12.3829 12.7732 8.1996
v 2.7285 10.1629 6.6747
v 4.7754 11.3878 8.0847
v -17.6908 13.6907 7.3818
v -15.2979 13.6907 7.3818
v -10.3829 14.5536 8.1996
v -7.3658 16.5536 8.1996
v -0.5967 17.1951 6.9240
v 1.0906 16.2743 8.2342
v 4.4320 14.0591 8.1996
v -5.3658 17.6500 8.1996
v -2.1765 17.5733 8.2342
v -0.4848 17.2389 9.5906
v -0.8549 -23.1651 10.4876
v -0.1233 -23.1651 10.4876
v -9.2123 -19.1540 13.4172
v -6.5463 -19.3064 13.1369
v -2.4177 -20.0590 12.2090
v 0.6269 -20.7749 11.1920
v -17.7249 -15.1636 10.9190
v -14.3449 -15.3328 11.9413
v -10.8205 -16.8596 11.8571
v -6.5463 -18.0126 11.1369
v -2.5753 -18.3496 12.3999
v 1.7385 -17.8043 12.4207
v 4.5463 -15.8555 12.1996
v -25.0543 -11.0459 13.4095
v -22.3553 -11.9962 12.1255
v -18.8534 -13.8784 12.2312
v -14.3449 -14.4370 11.9413
v -12.4288 -14.6909 10.2969
v 3.2607 -11.0593 13.9963
v 5.5154 -12.6886 12.6828
v 9.1882 -11.2400 12.6234
v 13.3487 -10.8608 12.1197
v 15.6588 -10.8929 10.3618
v -28.9923 -7.5643 12.1996
v -26.4511 -9.6438 12.1255
v -23.5613 -10.5038 10.7429
v 3.2607 -10.3660 13.9963
v 5.4537 -10.4157 13.9244
v 9.1882 -10.5786 12.6234
v 13.3487 -10.0831 12.1197
v 17.2405 -8.4922 12.0550
v 19.8027 -7.2706 11.0815
v -29.2038 -4.6368 11.9237
v -28.2007 -3.2114 10.4064
v 11.1014 -3.0889 13.8238
v 13.4537 -3.8264 13.3434
v 17.4748 -5.0277 12.7832
v 20.1782 -4.7749 11.0035
v -29.0724 -0.7749 12.7782
v -26.7389 -0.8008 10.9237
v -23.8727 0.5152 10.6350
v 2.7341 0.1481 13.2767
v 5.4537 -0.2814 12.8501
v 9.6423 -0.9339 12.8690
v 13.4537 -0.7749 11.7800
v 17.3313 -0.8917 10.7827
v 20.0708 -2.3029 10.3896
v -28.7466 1.5031 13.4308
v -26.5463 2.1919 12.9496
v -23.1084 3.4318 12.0608
v 2.7341 1.9169 13.2767
v 5.4515 3.2402 12.6457
v 9.4348 3.2251 11.0201
v 13.4537 2.1521 10.6362
v 15.9164 1.7944 10.4140
v -21.2541 5.9596 12.1996
v -19.4286 7.9596 12.1996
v 6.6322 7.2406 12.1253
v 8.0888 5.9176 10.7425
v -17.5787 11.4900 11.9084
v -14.3760 12.8638 11.9084
v -12.1209 12.9423 12.1996
v 6.4245 11.2251 12.1996
v -17.0905 14.3998 13.0476
v -15.5958 14.3998 13.0476
v -10.1209 14.3983 12.1996
v -7.3329 16.3983 12.1996
v 1.8407 16.3978 12.1996
v 4.9486 14.3978 12.1996
v -5.3329 17.6005 12.1996
v -2.5463 17.8111 12.1996
v -0.1593 17.4357 12.1996
v -9.2123 -19.1540 14.9266
v -6.2514 -19.2355 16.2358
v -3.8661 -19.0663 16.1996
v -13.3525 -15.5020 15.0098
v -10.3400 -16.5919 16.3015
v -7.3882 -17.6818 17.5933
v -2.2403 -16.9398 16.2636
v 1.4537 -15.7190 15.0131
v 3.7377 -15.0922 14.5109
v -25.0999 -11.0700 16.1996
v -22.5463 -12.3443 16.1996
v -18.5463 -13.0183 16.1996
v -14.6300 -13.6265 16.2857
v -11.4678 -14.2354 17.6765
v -1.6100 -13.4726 17.6396
v 1.3615 -12.2659 16.0752
v 3.7377 -13.7259 14.5109
v 10.4087 -10.8287 14.2845
v 11.5984 -10.8287 14.2845
v -28.9703 -7.5170 14.8659
v -26.7061 -8.8201 16.1993
v 2.2139 -8.9295 16.0230
v 5.4537 -8.4157 14.8797
v 9.2267 -9.1329 15.0232
v 13.1405 -8.5383 14.7915
v 16.1555 -7.0472 14.3480
v -29.1442 -4.4937 16.1993
v -27.4078 -5.6396 17.5325
v 2.3285 -4.7749 16.5964
v 5.4537 -4.7749 15.5635
v 9.6423 -4.5633 15.4253
v 13.4537 -5.8264 14.8759
v 16.1555 -6.5295 14.3480
v -29.0100 -0.9922 16.1580
v -28.1806 0.1963 17.4636
v 1.9051 -1.0211 15.8935
v 5.4537 -2.2814 14.8834
v 8.4347 -2.3732 14.9546
v -28.7466 1.5031 14.7970
v -26.7269 2.5448 16.1580
v -22.3958 4.3531 15.9138
v -18.5463 4.0557 16.7240
v -14.5463 4.3137 17.3147
v -11.9375 4.8610 17.8443
v 2.2317 2.4226 16.1996
v 4.3987 4.4226 16.1996
v -20.9621 5.3659 14.3900
v -18.3910 6.9096 14.8769
v -14.4995 7.0331 16.9495
v -11.9375 5.5717 17.8443
v 3.3806 9.1444 18.1312
v 4.8514 7.5767 16.5585
v -17.2603 11.2251 15.0107
v -14.3654 11.6248 16.0736
v -11.8231 12.8246 16.1996
v 3.1725 11.2251 17.9117
v 5.7581 11.7564 16.7389
v 7.6948 12.4648 17.8418
v -17.0905 14.3998 14.8513
v -15.5958 14.3998 14.8513
v -9.8231 14.0235 16.1996
v -7.4266 16.0235 16.1996
v 2.2798 15.2349 16.4103
v 5.6074 13.6133 16.5296
v 7.6948 13.3184 17.8418
v -5.4266 17.7737 16.1996
v -2.5463 18.1428 16.1996
v 0.2126 17.5943 16.1996
v -4.7216 -18.8339 18.2429
v -4.4629 -18.8339 18.2429
v -8.8011 -15.0152 18.3197
v -6.2514 -16.5190 18.3388
v -4.2815 -16.7749 18.2835
v -24.7763 -10.8973 18.3275
v -22.1899 -11.2739 19.8763
v -18.5463 -12.5698 20.1996
v -14.5463 -13.2878 20.1996
v -10.2992 -13.5775 19.8716
v -6.6276 -12.5775 20.2656
v -2.7845 -12.3935 18.5999
v -0.5377 -10.8059 18.2101
v -24.8649 -8.7749 18.3822
v -22.9147 -8.7749 20.3822
v -5.3484 -10.0775 21.4543
v -2.5463 -9.5781 20.6486
v 0.1878 -8.6359 19.8059
v -28.6177 -2.9729 18.2991
v -26.2632 -4.4937 18.8796
v -23.5355 -4.7749 20.9749
v 0.7958 -4.7749 20.1996
v -28.6177 -2.4703 18.2991
v -26.3940 -0.7529 20.0417
v -24.1135 -1.7021 21.7843
v 0.3216 -0.7749 20.1996
v -25.3179 1.9446 20.1996
v -22.5463 2.6972 20.1996
v -18.5463 2.5104 20.1996
v -14.5463 2.9758 20.1996
v -11.5988 4.4431 20.1996
v -0.9649 4.8839 22.1144
v 1.0784 3.5069 20.3633
v 4.0507 4.7965 18.6122
v -13.1350 8.2384 18.8316
v -10.5813 7.0739 20.2041
v -7.8548 8.5761 21.5766
v -0.9649 5.3525 22.1144
v 1.6473 7.2485 20.3633
v 4.0507 6.4777 18.6122
v -13.1350 10.3154 18.8316
v -10.6255 11.4793 19.3529
v -7.6692 11.2251 21.1672
v -1.0649 12.6916 21.7655
v 1.1049 11.3050 20.3391
v 6.9142 12.4648 18.3026
v 7.6948 12.4648 18.3026
v -9.3450 13.5021 18.7794
v -7.2198 14.9913 20.1475
v -1.4451 15.2251 21.1897
v 0.6454 15.2251 19.1897
v 6.9142 13.3184 18.3026
v 7.6948 13.3184 18.3026
v -5.2467 18.2243 20.1996
v -2.5542 18.1596 20.0521
v 0.0111 17.4503 18.6205
v -12.9008 -14.8602 25.6627
v -12.3994 -14.8602 25.6627
v -20.6190 -10.8666 22.3477
v -18.2696 -11.6961 23.8884
v -14.3590 -13.7647 24.2774
v -10.8582 -13.3299 24.2774
v -6.6276 -11.2383 24.4870
v -4.4903 -10.8285 26.0120
v -21.1243 -8.7432 23.8884
v -19.4184 -10.0554 25.0143
v -5.0562 -8.8725 24.5947
v -3.3794 -8.7592 24.4231
v -0.1161 -7.2099 22.5975
v -21.9247 -4.7749 24.1996
v -5.0844 -4.7749 25.5284
v -2.5463 -4.7749 23.9756
v -0.0790 -4.7749 22.6468
v -24.6074 0.9646 22.2348
v -22.3533 -0.8779 23.6848
v -19.2152 -0.0538 25.1347
v -13.8677 0.8431 25.6756
v -12.0629 0.8431 25.6756
v -5.6484 -0.7749 24.9721
v -2.5463 -0.7749 23.1975
v -0.2823 -0.7749 22.4249
v -24.6074 1.2741 22.2348
v -22.5463 1.5455 22.4274
v -18.1476 1.5897 23.9607
v -14.9391 1.7556 24.2852
v -10.6440 3.0967 24.1403
v -6.7280 3.0782 24.2365
v -2.3974 3.4204 22.4545
v -0.3873 2.2173 22.3017
v -9.2250 5.9095 22.6050
v -6.5314 7.2357 22.6448
v -2.3974 6.9016 22.6091
v -0.0860 8.0192 22.5456
v -5.6692 11.2251 22.8087
v -2.4575 11.3050 22.8945
v -0.0860 10.0249 22.5456
v -5.6393 15.2251 23.1162
v -3.4451 15.2251 23.1162
v -5.1483 18.2795 22.8596
v -3.8927 18.2795 22.8596
v -12.9008 -14.8602 26.3098
v -12.3994 -14.8602 26.3098
v -16.7518 -11.0853 26.2834
v -14.3590 -12.5612 26.6710
v -10.8582 -12.6035 26.9092
v -6.5463 -11.1009 26.6130
v -4.4903 -10.8285 26.2700
v -21.0184 -7.3888 26.6783
v -18.2696 -8.7432 26.7464
v -14.2379 -8.4715 28.4142
v -10.5463 -9.0053 29.0039
v -6.5972 -8.6276 27.8085
v -4.4903 -10.3341 26.2700
v -20.9355 -4.7749 26.6058
v -18.5463 -4.7749 27.1704
v -14.2379 -4.9484 28.7379
v -10.5463 -4.2953 29.3739
v -7.3073 -5.0176 28.2523
v -20.5931 -2.7204 26.2624
v -18.1476 -1.1422 26.4806
v -14.9391 -0.6041 26.9295
v -10.6562 -0.6041 27.3169
v -7.6484 -0.7749 26.9880
v -16.5485 1.2264 26.2011
v -16.5344 1.2264 26.2011
v -9.3962 1.6469 26.4961
v -8.1825 1.6469 26.4961
v -12.6990 -6.9359 30.3275
v -10.5463 -7.0053 30.3534
v -8.4305 -6.9211 30.2768
v -12.6990 -6.3974 30.3275
v -10.5463 -6.2953 30.3534
v -8.4305 -6.5128 30.2768
f 3 2 1
f 3 4 2
f 15 5 14
f 15 6 5
f 18 1 2
f 18 17 1
f 18 7 17
f 18 8 7
f 18 9 8
f 18 19 9
f 22 10 21
f 22 11 10
f 22 12 11
f 22 23 12
f 25 13 24
f 25 14 13
f 25 15 14
f 25 26 15
f 17 3 1
f 17 28 3
f 28 16 27
f 28 17 16
f 18 2 4
f 18 4 29
f 29 4 3
f 29 3 28
f 29 19 18
f 29 30 19
f 31 19 30
f 31 20 19
f 32 25 24
f 32 33 25
f 34 25 33
f 34 26 25
f 36 27 35
f 36 28 27
f 37 28 36
f 37 29 28
f 38 29 37
f 38 30 29
f 6 46 5
f 6 47 46
f 48 40 39
f 48 49 40
f 51 7 8
f 51 50 7
f 51 41 50
f 51 42 41
f 9 51 8
f 9 52 51
f 55 10 11
f 55 54 10
f 55 43 54
f 55 44 43
f 12 55 11
f 12 56 55
f 55 45 44
f 55 56 45
f 59 5 46
f 59 14 5
f 59 13 14
f 59 58 13
f 47 6 15
f 47 15 60
f 59 46 47
f 59 47 60
f 62 48 61
f 62 49 48
f 63 7 50
f 63 17 7
f 63 16 17
f 63 62 16
f 63 49 62
f 63 50 49
f 64 52 9
f 64 9 19
f 20 64 19
f 20 65 64
f 67 10 54
f 67 21 10
f 67 53 66
f 67 54 53
f 68 22 21
f 68 21 67
f 56 12 23
f 56 23 69
f 23 22 68
f 23 68 69
f 71 13 58
f 71 24 13
f 71 57 70
f 71 58 57
f 60 15 26
f 60 26 72
f 74 16 62
f 74 27 16
f 73 62 61
f 73 74 62
f 78 65 20
f 78 20 31
f 31 30 77
f 31 77 78
f 80 66 79
f 80 67 66
f 80 68 67
f 80 81 68
f 81 69 68
f 81 82 69
f 82 70 69
f 82 83 70
f 71 32 24
f 71 84 32
f 83 71 70
f 83 84 71
f 85 33 32
f 85 32 84
f 72 26 34
f 72 34 86
f 86 34 33
f 86 33 85
f 87 27 74
f 87 35 27
f 88 36 35
f 88 35 87
f 89 37 36
f 89 36 88
f 88 75 76
f 88 76 89
f 77 30 38
f 77 38 90
f 38 37 89
f 38 89 90
f 91 84 83
f 91 92 84
f 93 84 92
f 93 85 84
f 94 92 91
f 94 95 92
f 95 93 92
f 95 96 93
f 97 96 95
f 97 98 96
f 105 39 40
f 105 104 39
f 42 106 41
f 42 107 106
f 44 108 43
f 44 109 108
f 45 109 44
f 45 110 109
f 110 99 109
f 110 100 99
f 111 100 110
f 111 101 100
f 111 102 101
f 111 112 102
f 114 39 104
f 114 48 39
f 114 103 113
f 114 104 103
f 115 105 40
f 115 40 49
f 116 41 106
f 116 50 41
f 50 115 49
f 50 116 115
f 107 42 51
f 107 51 117
f 116 106 107
f 116 107 117
f 118 51 52
f 118 117 51
f 108 54 43
f 108 121 54
f 121 53 54
f 121 120 53
f 122 121 108
f 122 108 109
f 123 110 45
f 123 45 56
f 123 111 110
f 123 124 111
f 125 57 58
f 125 124 57
f 125 111 124
f 125 112 111
f 126 58 59
f 126 125 58
f 127 59 60
f 127 126 59
f 114 61 48
f 114 129 61
f 128 114 113
f 128 129 114
f 130 116 117
f 130 117 131
f 132 118 52
f 132 52 64
f 65 132 64
f 65 133 132
f 132 119 118
f 132 133 119
f 120 66 53
f 120 134 66
f 135 123 56
f 135 56 69
f 136 57 124
f 136 70 57
f 70 135 69
f 70 136 135
f 136 123 135
f 136 124 123
f 127 60 72
f 127 72 138
f 137 126 127
f 137 127 138
f 129 73 61
f 129 140 73
f 139 129 128
f 139 140 129
f 141 74 73
f 141 73 140
f 143 76 75
f 143 75 142
f 143 142 130
f 143 130 131
f 133 65 78
f 133 78 145
f 78 77 144
f 78 144 145
f 134 79 66
f 134 146 79
f 147 80 79
f 147 79 146
f 81 80 147
f 81 147 148
f 82 81 148
f 82 148 149
f 150 83 82
f 150 82 149
f 152 138 72
f 152 72 86
f 152 86 85
f 152 85 151
f 152 151 137
f 152 137 138
f 153 74 141
f 153 87 74
f 154 142 75
f 154 75 88
f 154 88 87
f 154 87 153
f 154 153 141
f 154 141 142
f 155 76 143
f 155 89 76
f 144 77 90
f 144 90 156
f 90 89 155
f 90 155 156
f 157 144 156
f 157 145 144
f 150 91 83
f 150 158 91
f 160 151 85
f 160 85 93
f 161 91 158
f 161 94 91
f 162 95 94
f 162 94 161
f 161 158 159
f 161 159 162
f 163 160 93
f 163 93 96
f 162 97 95
f 162 164 97
f 163 96 98
f 163 98 165
f 98 97 164
f 98 164 165
f 169 167 166
f 169 170 167
f 171 99 100
f 171 170 99
f 170 168 167
f 170 171 168
f 172 100 101
f 172 171 100
f 173 101 102
f 173 172 101
f 175 103 104
f 175 174 103
f 176 104 105
f 176 175 104
f 181 99 170
f 181 109 99
f 182 173 102
f 182 102 112
f 174 113 103
f 174 183 113
f 184 183 174
f 184 174 175
f 185 176 105
f 185 105 115
f 116 185 115
f 116 186 185
f 188 117 118
f 188 187 117
f 188 177 187
f 188 178 177
f 119 188 118
f 119 189 188
f 188 179 178
f 188 189 179
f 191 120 121
f 191 190 120
f 192 109 181
f 192 122 109
f 192 121 122
f 192 191 121
f 192 180 191
f 192 181 180
f 193 182 112
f 193 112 125
f 126 193 125
f 126 194 193
f 183 128 113
f 183 195 128
f 196 195 183
f 196 183 184
f 186 116 130
f 186 130 197
f 187 131 117
f 187 198 131
f 198 186 197
f 198 187 186
f 200 189 119
f 200 119 133
f 190 134 120
f 190 201 134
f 194 126 137
f 194 137 202
f 195 139 128
f 195 203 139
f 204 140 139
f 204 139 203
f 205 141 140
f 205 140 204
f 206 197 130
f 206 130 142
f 206 142 141
f 206 141 205
f 207 131 198
f 207 143 131
f 200 133 145
f 200 145 209
f 209 208 199
f 209 199 200
f 201 146 134
f 201 210 146
f 147 146 210
f 147 210 211
f 212 148 147
f 212 147 211
f 149 148 212
f 149 212 213
f 214 150 149
f 214 149 213
f 215 202 137
f 215 137 151
f 216 143 207
f 216 155 143
f 156 155 216
f 156 216 217
f 217 216 207
f 217 207 208
f 209 145 157
f 209 157 218
f 157 156 217
f 157 217 218
f 217 208 209
f 217 209 218
f 220 150 214
f 220 158 150
f 219 214 213
f 219 220 214
f 159 158 220
f 159 220 221
f 215 151 160
f 215 160 222
f 223 159 221
f 223 162 159
f 224 222 160
f 224 160 163
f 223 221 222
f 223 222 224
f 225 162 223
f 225 164 162
f 226 224 163
f 226 163 165
f 165 164 225
f 165 225 226
f 225 223 224
f 225 224 226
f 167 230 166
f 167 231 230
f 168 231 167
f 168 232 231
f 235 227 234
f 235 228 227
f 235 229 228
f 235 236 229
f 230 169 166
f 230 238 169
f 239 170 169
f 239 169 238
f 239 238 230
f 239 230 231
f 240 232 168
f 240 168 171
f 240 239 231
f 240 231 232
f 241 171 172
f 241 240 171
f 242 172 173
f 242 241 172
f 176 243 175
f 176 244 243
f 246 233 245
f 246 234 233
f 247 177 178
f 247 246 177
f 247 234 246
f 247 235 234
f 179 247 178
f 179 248 247
f 247 236 235
f 247 248 236
f 248 237 236
f 248 249 237
f 251 170 239
f 251 181 170
f 251 180 181
f 251 250 180
f 251 238 250
f 251 239 238
f 252 242 173
f 252 173 182
f 243 184 175
f 243 254 184
f 244 176 185
f 244 185 255
f 255 254 243
f 255 243 244
f 256 185 186
f 256 255 185
f 257 177 246
f 257 187 177
f 257 186 187
f 257 256 186
f 258 248 179
f 258 179 189
f 260 180 250
f 260 191 180
f 260 190 191
f 260 259 190
f 260 249 259
f 260 250 249
f 252 182 193
f 252 193 261
f 194 261 193
f 194 262 261
f 265 184 254
f 265 196 184
f 265 195 196
f 265 264 195
f 265 253 264
f 265 254 253
f 267 198 197
f 267 197 266
f 267 266 256
f 267 256 257
f 269 258 189
f 269 189 200
f 269 200 199
f 269 199 268
f 270 190 259
f 270 201 190
f 270 258 269
f 270 259 258
f 262 194 202
f 262 202 272
f 272 263 262
f 272 273 263
f 264 203 195
f 264 274 203
f 204 203 274
f 204 274 275
f 205 204 275
f 205 275 276
f 266 197 206
f 266 206 277
f 277 206 205
f 277 205 276
f 278 198 267
f 278 207 198
f 279 268 199
f 279 199 208
f 208 207 278
f 208 278 279
f 280 201 270
f 280 210 201
f 211 210 280
f 211 280 281
f 280 270 271
f 280 271 281
f 212 211 281
f 212 281 282
f 283 213 212
f 283 212 282
f 285 272 202
f 285 202 215
f 287 276 286
f 287 277 276
f 283 219 213
f 283 289 219
f 288 283 282
f 288 289 283
f 290 220 219
f 290 219 289
f 291 221 220
f 291 220 290
f 292 285 215
f 292 215 222
f 292 222 221
f 292 221 291
f 292 291 284
f 292 284 285
f 228 293 227
f 228 294 293
f 295 228 229
f 295 294 228
f 303 227 293
f 303 234 227
f 303 233 234
f 303 302 233
f 305 295 229
f 305 229 236
f 304 294 295
f 304 295 305
f 237 305 236
f 237 306 305
f 307 296 306
f 307 297 296
f 308 238 239
f 308 307 238
f 240 308 239
f 240 309 308
f 310 240 241
f 310 309 240
f 309 299 298
f 309 310 299
f 311 241 242
f 311 310 241
f 312 301 300
f 312 313 301
f 302 245 233
f 302 314 245
f 315 246 245
f 315 245 314
f 317 306 237
f 317 237 249
f 249 248 316
f 249 316 317
f 318 238 307
f 318 250 238
f 318 249 250
f 318 317 249
f 318 306 317
f 318 307 306
f 311 242 252
f 311 252 320
f 319 310 311
f 319 311 320
f 322 253 254
f 322 321 253
f 322 312 321
f 322 313 312
f 255 322 254
f 255 323 322
f 324 255 256
f 324 323 255
f 315 257 246
f 315 325 257
f 327 316 248
f 327 248 258
f 328 249 317
f 328 259 249
f 328 258 259
f 328 327 258
f 329 320 252
f 329 252 261
f 262 329 261
f 262 330 329
f 263 330 262
f 263 331 330
f 332 253 321
f 332 264 253
f 333 324 256
f 333 256 266
f 334 257 325
f 334 267 257
f 334 325 326
f 334 326 335
f 336 269 268
f 336 268 335
f 337 270 269
f 337 269 336
f 271 270 337
f 271 337 338
f 331 263 273
f 331 273 340
f 273 272 339
f 273 339 340
f 339 330 331
f 339 331 340
f 332 274 264
f 332 341 274
f 342 275 274
f 342 274 341
f 343 276 275
f 343 275 342
f 333 266 277
f 333 277 344
f 334 278 267
f 334 345 278
f 346 335 268
f 346 268 279
f 346 279 278
f 346 278 345
f 346 345 334
f 346 334 335
f 347 271 338
f 347 281 271
f 282 281 347
f 282 347 348
f 352 339 272
f 352 272 285
f 352 285 284
f 352 284 351
f 353 339 352
f 353 340 339
f 354 342 341
f 354 355 342
f 343 286 276
f 343 356 286
f 355 343 342
f 355 356 343
f 344 277 287
f 344 287 357
f 357 287 286
f 357 286 356
f 358 282 348
f 358 288 282
f 359 289 288
f 359 288 358
f 358 348 349
f 358 349 359
f 360 290 289
f 360 289 359
f 360 359 349
f 360 349 350
f 361 351 284
f 361 284 291
f 361 291 290
f 361 290 360
f 361 360 350
f 361 350 351
f 362 357 356
f 362 363 357
f 294 364 293
f 294 365 364
f 368 296 297
f 368 367 296
f 371 298 299
f 371 370 298
f 301 372 300
f 301 373 372
f 364 303 293
f 364 375 303
f 303 374 302
f 303 375 374
f 365 294 304
f 365 304 376
f 376 375 364
f 376 364 365
f 377 304 305
f 377 376 304
f 377 365 376
f 377 366 365
f 378 296 367
f 378 306 296
f 378 305 306
f 378 377 305
f 378 366 377
f 378 367 366
f 379 368 297
f 379 297 307
f 308 379 307
f 308 380 379
f 379 369 368
f 379 380 369
f 381 298 370
f 381 309 298
f 381 308 309
f 381 380 308
f 382 371 299
f 382 299 310
f 372 312 300
f 372 384 312
f 373 301 313
f 373 313 385
f 387 302 374
f 387 314 302
f 315 314 387
f 315 387 388
f 388 387 374
f 388 374 375
f 390 317 316
f 390 316 389
f 382 310 319
f 382 319 391
f 392 319 320
f 392 391 319
f 394 312 384
f 394 321 312
f 393 384 383
f 393 394 384
f 385 313 322
f 385 322 395
f 396 322 323
f 396 395 322
f 396 385 395
f 396 386 385
f 397 323 324
f 397 396 323
f 398 315 388
f 398 325 315
f 326 325 398
f 326 398 399
f 389 316 327
f 389 327 400
f 390 328 317
f 390 401 328
f 401 327 328
f 401 400 327
f 400 390 389
f 400 401 390
f 392 320 329
f 392 329 403
f 402 391 392
f 402 392 403
f 404 329 330
f 404 403 329
f 394 332 321
f 394 406 332
f 407 406 394
f 407 394 395
f 408 397 324
f 408 324 333
f 410 326 399
f 410 335 326
f 409 399 398
f 409 410 399
f 336 335 410
f 336 410 411
f 412 337 336
f 412 336 411
f 413 338 337
f 413 337 412
f 415 404 330
f 415 330 339
f 414 403 404
f 414 404 415
f 416 339 340
f 416 415 339
f 418 332 406
f 418 341 332
f 417 406 405
f 417 418 406
f 408 333 344
f 408 344 421
f 413 347 338
f 413 423 347
f 422 413 412
f 422 423 413
f 424 348 347
f 424 347 423
f 349 348 424
f 349 424 425
f 350 349 425
f 350 425 426
f 427 351 350
f 427 350 426
f 428 352 351
f 428 351 427
f 428 427 414
f 428 414 415
f 416 340 353
f 416 353 429
f 353 352 428
f 353 428 429
f 428 415 416
f 428 416 429
f 430 341 418
f 430 354 341
f 355 354 430
f 355 430 431
f 430 418 419
f 430 419 431
f 432 356 355
f 432 355 431
f 433 421 344
f 433 344 357
f 433 432 420
f 433 420 421
f 436 426 425
f 436 437 426
f 438 356 432
f 438 362 356
f 433 357 363
f 433 363 439
f 363 362 438
f 363 438 439
f 438 432 433
f 438 433 439
f 440 435 434
f 440 441 435
f 366 445 365
f 366 446 445
f 447 366 367
f 447 446 366
f 448 367 368
f 448 447 367
f 448 442 447
f 448 443 442
f 369 448 368
f 369 449 448
f 448 444 443
f 448 449 444
f 451 370 371
f 451 450 370
f 373 452 372
f 373 453 452
f 445 376 365
f 445 457 376
f 457 375 376
f 457 456 375
f 458 449 369
f 458 369 380
f 450 381 370
f 450 459 381
f 381 458 380
f 381 459 458
f 458 450 449
f 458 459 450
f 451 371 382
f 451 382 460
f 459 450 451
f 459 451 460
f 452 384 372
f 452 462 384
f 462 383 384
f 462 461 383
f 463 453 373
f 463 373 385
f 386 463 385
f 386 464 463
f 463 454 453
f 463 464 454
f 456 388 375
f 456 466 388
f 466 455 465
f 466 456 455
f 467 460 382
f 467 382 391
f 461 393 383
f 461 468 393
f 469 394 393
f 469 393 468
f 468 461 462
f 468 462 469
f 470 395 394
f 470 394 469
f 471 464 386
f 471 386 396
f 397 471 396
f 397 472 471
f 471 465 464
f 471 472 465
f 473 388 466
f 473 398 388
f 467 391 402
f 467 402 476
f 477 402 403
f 477 476 402
f 479 405 406
f 479 478 405
f 470 407 395
f 470 480 407
f 407 479 406
f 407 480 479
f 481 472 397
f 481 397 408
f 473 409 398
f 473 482 409
f 483 410 409
f 483 409 482
f 482 473 474
f 482 474 483
f 484 411 410
f 484 410 483
f 483 474 475
f 483 475 484
f 485 412 411
f 485 411 484
f 477 403 414
f 477 414 487
f 486 476 477
f 486 477 487
f 478 417 405
f 478 488 417
f 489 418 417
f 489 417 488
f 488 478 479
f 488 479 489
f 490 419 418
f 490 418 489
f 481 408 421
f 481 421 492
f 492 421 420
f 492 420 491
f 494 482 493
f 494 483 482
f 485 422 412
f 485 496 422
f 495 485 484
f 495 496 485
f 497 423 422
f 497 422 496
f 424 423 497
f 424 497 498
f 499 425 424
f 499 424 498
f 501 487 414
f 501 414 427
f 501 427 426
f 501 426 500
f 501 500 486
f 501 486 487
f 490 431 419
f 490 503 431
f 502 490 489
f 502 503 490
f 504 491 420
f 504 420 432
f 432 431 503
f 432 503 504
f 505 491 504
f 505 492 491
f 506 494 493
f 506 507 494
f 508 434 435
f 508 507 434
f 510 498 497
f 510 511 498
f 512 425 499
f 512 436 425
f 513 500 426
f 513 426 437
f 437 436 512
f 437 512 513
f 513 512 499
f 513 499 500
f 514 506 505
f 514 515 506
f 507 440 434
f 507 516 440
f 516 506 515
f 516 507 506
f 517 508 435
f 517 435 441
f 517 441 440
f 517 440 516
f 517 509 508
f 517 518 509
f 519 515 514
f 519 520 515
f 521 515 520
f 521 516 515
f 524 523 522
f 524 525 523
f 530 526 525
f 530 531 526
f 532 442 443
f 532 531 442
f 444 532 443
f 444 533 532
f 534 528 527
f 534 535 528
f 535 529 528
f 535 536 529
f 537 445 446
f 537 536 445
f 537 529 536
f 537 530 529
f 538 442 531
f 538 447 442
f 538 446 447
f 538 537 446
f 538 530 537
f 538 531 530
f 539 533 444
f 539 444 449
f 540 449 450
f 540 539 449
f 542 452 453
f 542 541 452
f 454 542 453
f 454 543 542
f 545 455 456
f 545 544 455
f 546 445 536
f 546 457 445
f 546 456 457
f 546 545 456
f 547 546 536
f 547 536 537
f 548 540 450
f 548 450 459
f 460 548 459
f 460 549 548
f 550 452 541
f 550 462 452
f 551 543 454
f 551 454 464
f 552 455 544
f 552 465 455
f 465 551 464
f 465 552 551
f 553 466 465
f 553 465 552
f 553 552 544
f 553 544 545
f 549 460 467
f 549 467 554
f 550 469 462
f 550 555 469
f 556 470 469
f 556 469 555
f 557 552 465
f 557 465 472
f 558 466 553
f 558 473 466
f 557 553 552
f 557 558 553
f 559 474 473
f 559 473 558
f 560 475 474
f 560 474 559
f 554 467 476
f 554 476 561
f 563 470 556
f 563 480 470
f 563 479 480
f 563 562 479
f 563 555 562
f 563 556 555
f 557 472 481
f 557 481 564
f 565 557 564
f 565 558 557
f 566 482 483
f 566 565 482
f 565 559 558
f 565 566 559
f 560 484 475
f 560 567 484
f 566 560 559
f 566 567 560
f 561 476 486
f 561 486 570
f 571 479 562
f 571 489 479
f 572 564 481
f 572 481 492
f 565 493 482
f 565 573 493
f 573 564 572
f 573 565 564
f 566 483 494
f 566 494 574
f 567 495 484
f 567 575 495
f 574 567 566
f 574 575 567
f 576 496 495
f 576 495 575
f 576 575 567
f 576 567 568
f 577 497 496
f 577 496 576
f 576 568 569
f 576 569 577
f 499 498 578
f 499 578 579
f 580 570 486
f 580 486 500
f 580 500 499
f 580 499 579
f 571 502 489
f 571 581 502
f 582 503 502
f 582 502 581
f 504 503 582
f 504 582 583
f 572 492 505
f 572 505 584
f 505 504 583
f 505 583 584
f 585 493 573
f 585 506 493
f 585 505 506
f 585 584 505
f 585 572 584
f 585 573 572
f 586 574 494
f 586 494 507
f 508 586 507
f 508 587 586
f 586 575 574
f 586 587 575
f 509 587 508
f 509 588 587
f 589 497 577
f 589 510 497
f 590 578 498
f 590 498 511
f 511 510 589
f 511 589 590
f 589 577 578
f 589 578 590
f 592 582 591
f 592 583 582
f 584 514 505
f 584 593 514
f 596 517 516
f 596 516 595
f 597 588 509
f 597 509 518
f 518 517 596
f 518 596 597
f 598 514 593
f 598 519 514
f 520 519 598
f 520 598 599
f 598 593 594
f 598 594 599
f 595 516 521
f 595 521 600
f 521 520 599
f 521 599 600
f 523 601 522
f 523 602 601
f 601 524 522
f 601 603 524
f 604 602 523
f 604 523 525
f 525 524 603
f 525 603 604
f 526 604 525
f 526 605 604
f 609 527 528
f 609 608 527
f 529 609 528
f 529 610 609
f 611 525 604
f 611 530 525
f 530 610 529
f 530 611 610
f 611 603 610
f 611 604 603
f 612 605 526
f 612 526 531
f 611 604 605
f 611 605 612
f 613 531 532
f 613 612 531
f 614 532 533
f 614 613 532
f 617 606 616
f 617 607 606
f 608 534 527
f 608 618 534
f 619 535 534
f 619 534 618
f 620 536 535
f 620 535 619
f 621 537 536
f 621 536 620
f 622 612 613
f 622 613 623
f 614 533 539
f 614 539 624
f 623 613 614
f 623 614 624
f 625 539 540
f 625 624 539
f 629 541 542
f 629 628 541
f 629 615 628
f 629 616 615
f 630 542 543
f 630 629 542
f 629 617 616
f 629 630 617
f 630 618 617
f 630 631 618
f 631 619 618
f 631 632 619
f 633 545 546
f 633 632 545
f 633 619 632
f 633 620 619
f 621 547 537
f 621 634 547
f 547 633 546
f 547 634 633
f 633 621 620
f 633 634 621
f 636 635 623
f 636 623 624
f 625 540 548
f 625 548 637
f 638 548 549
f 638 637 548
f 639 627 626
f 639 640 627
f 641 541 628
f 641 550 541
f 641 627 640
f 641 628 627
f 642 630 543
f 642 543 551
f 643 551 552
f 643 642 551
f 642 631 630
f 642 643 631
f 644 545 632
f 644 553 545
f 644 552 553
f 644 643 552
f 644 631 643
f 644 632 631
f 638 549 554
f 638 554 645
f 641 555 550
f 641 647 555
f 646 641 640
f 646 647 641
f 645 554 561
f 645 561 649
f 650 555 647
f 650 562 555
f 568 567 651
f 568 651 652
f 569 568 652
f 569 652 653
f 656 649 561
f 656 561 570
f 656 655 648
f 656 648 649
f 650 571 562
f 650 657 571
f 651 567 575
f 651 575 659
f 659 652 651
f 659 660 652
f 661 569 653
f 661 577 569
f 661 652 660
f 661 653 652
f 662 578 577
f 662 577 661
f 662 661 653
f 662 653 654
f 579 578 662
f 579 662 663
f 663 662 654
f 663 654 655
f 664 656 570
f 664 570 580
f 664 580 579
f 664 579 663
f 663 655 656
f 663 656 664
f 665 571 657
f 665 581 571
f 582 581 665
f 582 665 666
f 665 657 658
f 665 658 666
f 668 584 583
f 668 583 667
f 659 575 587
f 659 587 669
f 588 669 587
f 588 670 669
f 669 660 659
f 669 670 660
f 671 582 666
f 671 591 582
f 667 583 592
f 667 592 672
f 592 591 671
f 592 671 672
f 671 666 667
f 671 667 672
f 668 593 584
f 668 673 593
f 594 593 673
f 594 673 674
f 596 595 675
f 596 675 676
f 677 670 588
f 677 588 597
f 677 597 596
f 677 596 676
f 678 594 674
f 678 599 594
f 675 595 600
f 675 600 679
f 600 599 678
f 600 678 679
f 680 675 679
f 680 676 675
f 682 601 602
f 682 681 601
f 681 603 601
f 681 685 603
f 686 682 602
f 686 602 604
f 686 685 681
f 686 681 682
f 607 687 606
f 607 688 687
f 690 608 609
f 690 689 608
f 690 683 689
f 690 684 683
f 685 610 603
f 685 691 610
f 610 690 609
f 610 691 690
f 691 684 690
f 691 685 684
f 686 604 611
f 686 611 692
f 691 685 686
f 691 686 692
f 612 692 611
f 612 693 692
f 687 616 606
f 687 696 616
f 696 615 616
f 696 695 615
f 697 688 607
f 697 607 617
f 697 696 687
f 697 687 688
f 698 608 689
f 698 618 608
f 698 617 618
f 698 697 617
f 698 688 697
f 698 689 688
f 693 612 622
f 693 622 700
f 701 622 623
f 701 700 622
f 703 624 625
f 703 702 624
f 627 704 626
f 627 705 704
f 706 615 695
f 706 628 615
f 706 627 628
f 706 705 627
f 706 694 705
f 706 695 694
f 708 707 699
f 708 699 700
f 701 623 635
f 701 635 709
f 708 700 701
f 708 701 709
f 702 636 624
f 702 710 636
f 710 635 636
f 710 709 635
f 709 702 701
f 709 710 702
f 703 625 637
f 703 637 711
f 710 702 703
f 710 703 711
f 712 637 638
f 712 711 637
f 704 639 626
f 704 713 639
f 714 640 639
f 714 639 713
f 712 638 645
f 712 645 718
f 717 711 712
f 717 712 718
f 714 646 640
f 714 720 646
f 719 714 713
f 719 720 714
f 721 647 646
f 721 646 720
f 725 724 715
f 725 715 716
f 726 725 716
f 726 716 717
f 727 718 645
f 727 645 649
f 727 649 648
f 727 648 726
f 727 726 717
f 727 717 718
f 729 719 728
f 729 720 719
f 721 650 647
f 721 730 650
f 729 721 720
f 729 730 721
f 731 722 723
f 731 723 732
f 733 732 723
f 733 723 724
f 654 653 733
f 654 733 734
f 734 733 724
f 734 724 725
f 735 726 648
f 735 648 655
f 735 655 654
f 735 654 734
f 735 734 725
f 735 725 726
f 736 650 730
f 736 657 650
f 658 657 736
f 658 736 737
f 739 733 653
f 739 653 661
f 739 661 660
f 739 660 738
f 739 738 732
f 739 732 733
f 740 658 737
f 740 666 658
f 667 666 740
f 667 740 741
f 668 667 741
f 668 741 742
f 743 738 660
f 743 660 670
f 744 741 740
f 744 745 741
f 742 673 668
f 742 746 673
f 674 673 746
f 674 746 747
f 749 743 670
f 749 670 677
f 677 676 748
f 677 748 749
f 750 674 747
f 750 678 674
f 751 679 678
f 751 678 750
f 748 676 680
f 748 680 752
f 680 679 751
f 680 751 752
f 684 753 683
f 684 754 753
f 755 684 685
f 755 754 684
f 757 683 753
f 757 689 683
f 689 756 688
f 689 757 756
f 758 757 753
f 758 753 754
f 755 685 691
f 755 691 759
f 760 691 692
f 760 759 691
f 761 692 693
f 761 760 692
f 763 694 695
f 763 762 694
f 696 763 695
f 696 764 763
f 756 697 688
f 756 765 697
f 765 696 697
f 765 764 696
f 766 765 756
f 766 756 757
f 767 759 760
f 767 760 768
f 769 761 693
f 769 693 700
f 769 700 699
f 769 699 768
f 769 768 760
f 769 760 761
f 771 701 702
f 771 770 701
f 773 694 762
f 773 705 694
f 705 772 704
f 705 773 772
f 774 768 699
f 774 699 707
f 775 707 708
f 775 774 707
f 770 709 701
f 770 776 709
f 776 708 709
f 776 775 708
f 771 702 710
f 771 710 777
f 776 770 771
f 776 771 777
f 778 710 711
f 778 777 710
f 772 713 704
f 772 779 713
f 780 779 772
f 780 772 773
f 781 774 775
f 781 775 782
f 783 782 775
f 783 775 776
f 784 716 715
f 784 715 783
f 783 776 777
f 783 777 784
f 778 711 717
f 778 717 785
f 785 717 716
f 785 716 784
f 784 777 778
f 784 778 785
f 779 719 713
f 779 786 719
f 789 723 722
f 789 722 788
f 789 788 781
f 789 781 782
f 790 783 715
f 790 715 724
f 790 724 723
f 790 723 789
f 790 789 782
f 790 782 783
f 791 719 786
f 791 728 719
f 729 728 791
f 729 791 792
f 791 786 787
f 791 787 792
f 730 729 792
f 730 792 793
f 797 788 722
f 797 722 731
f 798 731 732
f 798 797 731
f 799 730 793
f 799 736 730
f 737 736 799
f 737 799 800
f 799 793 794
f 799 794 800
f 801 800 794
f 801 794 795
f 802 801 795
f 802 795 796
f 798 732 738
f 798 738 804
f 805 737 800
f 805 740 737
f 805 800 801
f 805 801 806
f 742 741 806
f 742 806 807
f 804 738 743
f 804 743 809
f 809 808 803
f 809 803 804
f 805 744 740
f 805 811 744
f 812 806 741
f 812 741 745
f 745 744 811
f 745 811 812
f 812 811 805
f 812 805 806
f 807 746 742
f 807 813 746
f 814 747 746
f 814 746 813
f 816 809 743
f 816 743 749
f 749 748 815
f 749 815 816
f 816 815 808
f 816 808 809
f 816 810 809
f 816 817 810
f 818 747 814
f 818 750 747
f 819 751 750
f 819 750 818
f 820 815 748
f 820 748 752
f 752 751 819
f 752 819 820
f 755 821 754
f 755 822 821
f 821 758 754
f 821 824 758
f 758 823 757
f 758 824 823
f 825 822 755
f 825 755 759
f 825 824 821
f 825 821 822
f 763 826 762
f 763 827 826
f 764 827 763
f 764 828 827
f 765 828 764
f 765 829 828
f 823 766 757
f 823 830 766
f 766 829 765
f 766 830 829
f 831 830 823
f 831 823 824
f 825 759 767
f 825 767 832
f 831 824 825
f 831 825 832
f 833 767 768
f 833 832 767
f 834 762 826
f 834 773 762
f 835 834 826
f 835 826 827
f 836 831 832
f 836 832 837
f 833 768 774
f 833 774 838
f 837 832 833
f 837 833 838
f 834 780 773
f 834 840 780
f 780 839 779
f 780 840 839
f 841 840 834
f 841 834 835
f 838 774 781
f 838 781 842
f 839 786 779
f 839 843 786
f 787 786 843
f 787 843 844
f 843 839 840
f 843 840 844
f 845 844 840
f 845 840 841
f 846 842 781
f 846 781 788
f 847 787 844
f 847 792 787
f 793 792 847
f 793 847 848
f 794 793 848
f 794 848 849
f 795 794 849
f 795 849 850
f 796 795 850
f 796 850 851
f 846 788 797
f 846 797 853
f 854 797 798
f 854 853 797
f 851 802 796
f 851 856 802
f 802 855 801
f 802 856 855
f 858 852 853
f 858 853 859
f 860 854 798
f 860 798 804
f 860 804 803
f 860 803 859
f 859 853 854
f 859 854 860
f 861 801 855
f 861 806 801
f 807 806 861
f 807 861 862
f 862 861 855
f 862 855 856
f 862 856 857
f 862 857 863
f 865 859 803
f 865 803 808
f 810 866 809
f 810 867 866
f 868 807 862
f 868 813 807
f 814 813 868
f 814 868 869
f 868 862 863
f 868 863 869
f 871 865 808
f 871 808 815
f 871 870 864
f 871 864 865
f 866 816 809
f 866 872 816
f 867 810 817
f 867 817 873
f 817 816 872
f 817 872 873
f 872 866 867
f 872 867 873
f 874 814 869
f 874 818 814
f 875 819 818
f 875 818 874
f 871 815 820
f 871 820 876
f 876 820 819
f 876 819 875
f 876 875 870
f 876 870 871
f 828 879 827
f 828 880 879
f 829 880 828
f 829 881 880
f 882 829 830
f 882 881 829
f 881 878 877
f 881 882 878
f 831 882 830
f 831 883 882
f 879 835 827
f 879 885 835
f 886 885 879
f 886 879 880
f 883 831 836
f 883 836 887
f 888 836 837
f 888 887 836
f 887 884 883
f 887 888 884
f 889 837 838
f 889 888 837
f 885 841 835
f 885 890 841
f 891 887 888
f 891 888 892
f 889 838 842
f 889 842 893
f 892 888 889
f 892 889 893
f 890 845 841
f 890 895 845
f 845 894 844
f 845 895 894
f 899 891 892
f 899 892 900
f 901 893 842
f 901 842 846
f 900 892 893
f 900 893 901
f 894 847 844
f 894 902 847
f 848 847 902
f 848 902 903
f 903 902 894
f 903 894 895
f 849 848 903
f 849 903 904
f 903 895 896
f 903 896 904
f 850 849 904
f 850 904 905
f 906 851 850
f 906 850 905
f 905 897 898
f 905 898 906
f 907 899 900
f 907 900 908
f 909 901 846
f 909 846 853
f 909 853 852
f 909 852 908
f 909 908 900
f 909 900 901
f 910 851 906
f 910 856 851
f 857 856 910
f 857 910 911
f 910 906 907
f 910 907 911
f 908 852 858
f 908 858 912
f 911 907 908
f 911 908 912
f 913 858 859
f 913 912 858
f 914 857 911
f 914 863 857
f 914 911 912
f 914 912 915
f 916 913 859
f 916 859 865
f 916 865 864
f 916 864 915
f 916 915 912
f 916 912 913
f 914 869 863
f 914 917 869
f 918 915 864
f 918 864 870
f 918 917 914
f 918 914 915
f 917 874 869
f 917 919 874
f 920 918 870
f 920 870 875
f 920 875 874
f 920 874 919
f 919 917 918
f 919 918 920
f 878 921 877
f 878 922 921
f 921 881 877
f 921 924 881
f 881 923 880
f 881 924 923
f 922 878 882
f 922 882 925
f 924 921 922
f 924 922 925
f 883 925 882
f 883 926 925
f 884 926 883
f 884 927 926
f 923 886 880
f 923 929 886
f 886 928 885
f 886 929 928
f 930 929 923
f 930 923 924
f 930 924 925
f 930 925 931
f 931 925 926
f 931 926 932
f 933 927 884
f 933 884 888
f 933 888 887
f 933 887 932
f 933 932 926
f 933 926 927
f 928 890 885
f 928 934 890
f 935 934 928
f 935 928 929
f 935 929 930
f 935 930 936
f 932 887 891
f 932 891 938
f 939 890 934
f 939 895 890
f 896 895 939
f 896 939 940
f 939 934 935
f 939 935 940
f 941 940 935
f 941 935 936
f 898 897 941
f 898 941 942
f 942 941 936
f 942 936 937
f 943 938 891
f 943 891 899
f 943 942 937
f 943 937 938
f 944 896 940
f 944 904 896
f 945 941 897
f 945 897 905
f 905 904 944
f 905 944 945
f 944 940 941
f 944 941 945
f 946 898 942
f 946 906 898
f 947 943 899
f 947 899 907
f 947 907 906
f 947 906 946
f 946 942 943
f 946 943 947
f 931 948 930
f 931 949 948
f 950 931 932
f 950 949 931
f 948 936 930
f 948 951 936
f 937 936 951
f 937 951 952
f 951 948 949
f 951 949 952
f 950 932 938
f 950 938 953
f 953 938 937
f 953 937 952
f 953 952 949
f 953 949 950
