# parsimony mesh: eg12298_monomer (source /Users/eranagmon/code/v2e-flagella/workspace/studies/ecoli-3d/viz/3d/structures/eg12298_monomer.pdb)
# atoms: 2488  voxel: 8 Å  verts: 332  tris: 672
v -15.9142 -39.7863 -65.2292
v -14.3966 -39.7863 -65.2292
v -15.9142 -38.3806 -65.2292
v -14.3966 -38.3806 -65.2292
v -15.9142 -39.7863 -63.1838
v -14.3966 -39.7863 -63.1838
v -15.9334 -35.6284 -60.4310
v -14.0476 -35.6284 -60.4310
v -15.9526 -28.6412 -57.6783
v -13.6986 -28.6412 -57.6783
v -15.9526 -32.8762 -54.7851
v -13.6986 -32.8762 -54.7851
v -16.1407 -27.0510 -53.0995
v -14.0222 -27.0510 -53.0995
v -18.0628 -19.2787 -51.8243
v -13.3437 -19.2787 -51.8243
v -17.9956 -13.2268 -50.1959
v -13.6864 -13.2268 -50.1959
v -16.3287 -25.4607 -47.9285
v -14.3457 -25.4607 -47.9285
v -18.0628 -19.2787 -46.8582
v -13.3437 -19.2787 -46.8582
v -17.4447 -10.9380 -44.7997
v -14.0611 -10.9380 -44.7997
v -16.8938 -4.7816 -42.5398
v -14.4358 -4.7816 -42.5398
v -7.9637 23.7269 -41.1972
v -6.3891 23.7269 -41.1972
v -8.0314 28.7213 -41.3197
v -3.5778 29.0839 -41.4453
v 2.5382 31.9924 -41.1598
v -7.6520 33.0743 -41.0730
v -3.3608 33.4053 -41.2916
v 5.4158 36.2254 -41.0630
v 9.4966 39.1705 -40.9662
v 8.2934 40.8681 -40.9662
v 9.4966 40.8681 -40.9662
v -23.3754 -7.2916 -32.8577
v -20.0544 -7.9705 -35.8959
v -14.4358 -8.6493 -38.9341
v -23.3754 -7.2135 -32.8577
v -19.0179 -4.4437 -35.7039
v -12.6787 -2.9726 -37.5755
v -6.5890 -0.3374 -35.2660
v -16.7054 4.7213 -34.9170
v -11.3608 4.7213 -37.7109
v -5.1827 4.7213 -35.5598
v -15.5695 9.3074 -33.0800
v -11.5351 12.2730 -34.5370
v -4.4453 12.7213 -34.7442
v -15.7281 23.5539 -33.3439
v -11.1408 20.9737 -36.4278
v -4.6520 20.9247 -36.8135
v -15.7281 25.3736 -33.3439
v -10.4745 28.9181 -36.0578
v -3.0032 29.9452 -35.3399
v 4.9786 31.9724 -37.1823
v 12.6392 32.0580 -35.1267
v 17.4251 32.1997 -33.8864
v -7.6520 33.0743 -38.7718
v -2.9159 33.2946 -36.3695
v 6.2216 35.6904 -38.3521
v 11.7901 37.4645 -37.0884
v 17.3727 36.7213 -34.2387
v 8.2934 40.8681 -40.3017
v 12.8405 40.9136 -36.9554
v 16.8313 40.9591 -33.6092
v -23.3754 -7.2916 -32.7514
v -23.2150 -7.2916 -32.7514
v -23.3754 -7.2135 -32.7514
v -20.0799 -4.2748 -31.4875
v -11.3608 -1.6158 -29.2995
v -6.5890 -0.3374 -30.6863
v -16.4374 5.4625 -28.0406
v -12.0711 5.4625 -25.2397
v -5.1827 4.7213 -29.2649
v -15.5186 9.1633 -28.7659
v -12.0979 11.6827 -27.9072
v -4.4453 12.7213 -29.4778
v -15.7281 23.5539 -32.0667
v -11.5351 20.8209 -29.8625
v -4.7036 20.7213 -29.6611
v -15.7281 25.3736 -32.0667
v -11.3608 27.0165 -30.4834
v -2.7628 29.8471 -31.5799
v 4.6392 32.3318 -32.0751
v 12.8976 31.3265 -29.0301
v 18.4684 31.2499 -28.7659
v 0.0473 32.7647 -32.7379
v 4.6392 33.4033 -32.0751
v 13.2937 36.5060 -29.2423
v 20.5038 38.0584 -27.4818
v 24.6872 40.2501 -24.8291
v 16.1843 40.9591 -31.9450
v 20.5725 40.8659 -28.3871
v 24.6872 40.7726 -24.8291
v -15.3624 8.6232 -24.7645
v -15.2113 8.6232 -24.7645
v -15.3624 8.7245 -24.7645
v -15.2113 8.7245 -24.7645
v 23.3473 23.6922 -19.1537
v 26.3025 23.6922 -19.1537
v 15.7365 31.2810 -24.2151
v 21.1264 29.8183 -21.6945
v 26.5148 28.7213 -19.8040
v 15.7365 34.0914 -24.2151
v 22.2291 35.8795 -22.4394
v 25.0819 36.7736 -21.5515
v 24.3136 40.7726 -24.6741
v 24.6872 40.7726 -24.6741
v 0.4263 -15.5795 -8.9658
v 4.6392 -15.9136 -9.1974
v 10.4770 -15.8244 -9.1413
v 0.4263 -14.1664 -8.9658
v 4.4965 -11.4113 -9.3510
v 12.9419 -11.6773 -9.4623
v 17.1283 -9.2763 -9.1514
v 6.3958 -3.2787 -9.5556
v 12.5343 -3.6106 -9.6290
v 17.1283 -6.4985 -9.1514
v 7.2191 1.9343 -9.4191
v 9.7978 1.9343 -9.4191
v 8.2716 16.0780 -9.0130
v 12.6392 15.8177 -9.4677
v 18.3274 16.1599 -9.4546
v 31.1795 16.3921 -9.2424
v 32.9225 16.3921 -9.2424
v 8.2716 17.1348 -9.0130
v 13.3633 20.1694 -9.4699
v 20.7894 21.9946 -11.5633
v 28.7410 20.4795 -11.8047
v 32.9225 17.2668 -9.2424
v 16.5127 24.7952 -9.0036
v 20.9697 27.0387 -12.2035
v 26.5148 28.7213 -14.6035
v 24.0814 33.2971 -16.2817
v 25.4767 33.2971 -16.2817
v 7.9001 -23.7394 -1.5370
v 9.6243 -23.7394 -1.5370
v -0.5455 -16.4591 -4.7659
v 4.9957 -19.7504 -4.4286
v 12.7173 -18.8493 -4.9424
v 17.6189 -16.5409 -3.0145
v -7.4321 -7.4723 -0.9355
v -2.8173 -10.8194 -4.4454
v 1.7347 -8.8331 -7.9552
v 15.8103 -14.6097 -8.3478
v 19.0339 -11.6773 -5.3151
v -7.4321 -7.0523 -0.9355
v -3.3463 -3.9428 -2.8939
v 2.3958 -3.2787 -7.2987
v 15.1311 -1.1652 -7.1034
v 19.2867 -3.6106 -4.5684
v -0.6700 3.0199 -2.2870
v 4.1607 5.1437 -4.7606
v 12.3677 4.4401 -4.5021
v 18.0403 1.6127 -1.7700
v 6.5339 13.1353 -4.6469
v 12.6042 13.4523 -4.5546
v 18.3274 16.1599 -7.2082
v 31.1795 16.3921 -8.3124
v 32.9225 16.3921 -8.3124
v 7.6602 17.5855 -4.7659
v 13.3918 19.9641 -5.2430
v 18.8710 20.7213 -7.4815
v 31.1795 17.2668 -8.3124
v 32.9225 17.2668 -8.3124
v 16.5127 24.7952 -8.6110
v 17.9267 24.7952 -8.6110
v 6.9988 -24.9898 3.2341
v 11.1951 -24.9898 3.2341
v -7.4858 -15.4475 6.9308
v -3.3808 -17.0153 3.8521
v 2.9988 -21.3228 3.2341
v 15.1951 -21.9459 3.2341
v 18.8406 -17.9459 3.2341
v -8.1418 -10.5949 3.8521
v -6.0608 -12.8056 1.5975
v 23.1138 -11.7232 2.5390
v 25.4354 -9.3529 4.7423
v -8.2433 -5.8189 3.2341
v -5.7339 -1.8189 3.2341
v 23.5818 -3.2787 0.1680
v 26.4903 -3.2787 4.1680
v -2.0070 5.3005 2.6766
v 1.1023 8.3532 -0.3617
v 15.1310 7.1953 3.2341
v 20.6798 3.2600 3.0762
v 26.3112 1.6537 5.6376
v -0.6071 9.5842 4.9716
v 4.4019 12.5177 2.7031
v 11.6116 12.7592 3.1543
v 7.7015 17.4600 0.4345
v 10.2708 17.4600 0.4345
v -0.6963 -24.9574 13.6251
v 4.5704 -26.0976 11.0687
v 13.2928 -25.5628 10.6031
v 17.9471 -24.0661 12.8491
v -7.4858 -15.4475 7.8548
v -3.5247 -18.7560 10.7400
v 1.8578 -22.0644 8.2918
v 16.3953 -22.9060 7.5157
v 19.4758 -19.8551 10.6031
v -8.8829 -11.5636 10.8065
v -6.3531 -14.4201 13.1882
v 22.9382 -11.7232 11.5346
v 25.4354 -9.3529 9.0683
v -9.4551 -3.0467 11.0616
v -6.5490 -0.2254 8.2800
v 15.3741 -0.7236 14.1056
v 20.8864 -3.3457 13.4985
v 26.4903 -3.2787 9.9110
v -8.4394 2.1261 13.6134
v -3.5780 4.8152 11.1978
v 4.6392 6.7885 13.3802
v 13.1853 5.2450 11.3265
v 20.6392 3.2261 9.6889
v 26.3112 1.6537 8.9690
v -0.6071 9.5842 8.7823
v 4.6392 10.4158 9.3802
v 10.9964 10.1179 8.5473
v -1.2629 -25.5557 19.2341
v 4.6392 -27.1990 19.2341
v 12.6392 -26.0519 19.2341
v 18.1395 -24.4085 19.2341
v -3.8938 -19.2787 19.2341
v 20.2024 -19.2787 19.2341
v -9.1110 -9.9645 19.2341
v -5.9917 -13.9645 19.2341
v 20.8575 -11.2787 19.2341
v -25.0004 0.2525 22.8459
v -19.3608 -0.4039 22.0678
v -12.6081 -3.0976 19.3340
v 15.3741 -0.7236 16.5799
v 18.7685 -3.3457 19.2416
v -40.0396 8.0594 23.1790
v -38.8367 8.0594 23.1790
v -25.0004 2.2629 22.8459
v -19.3608 2.5340 22.0678
v -11.0224 4.5280 19.2168
v -3.3608 6.8621 17.1875
v 5.2935 7.1015 19.3174
v 12.6801 3.5230 19.2416
v 17.3141 1.5401 21.9132
v -40.0396 8.7822 23.1790
v -38.8367 8.7822 23.1790
v -8.2722 9.4631 21.6997
v -3.3608 9.7514 21.1875
v 3.0631 9.3530 22.0397
v -0.5614 -24.6359 24.5108
v 4.6392 -25.0410 25.1454
v 12.6392 -24.5623 25.8148
v 17.3317 -23.9977 25.4034
v -1.6892 -19.0177 27.2001
v 4.6392 -21.0425 29.1454
v 12.6392 -21.8549 29.8148
v 18.0756 -19.6676 27.7357
v -8.3879 -9.0516 25.5945
v -5.6206 -11.5425 27.8503
v 19.5297 -11.2787 27.2341
v -56.0552 -0.0828 29.7855
v -51.3608 -1.3092 28.6908
v -43.3608 -1.4086 28.1807
v -35.3608 -0.6137 28.3906
v -27.0587 0.0653 27.5180
v -19.5674 -0.3389 27.7724
v -11.1771 -4.6858 27.8503
v -7.1138 -6.9923 30.9278
v 19.3439 -3.2787 27.2341
v -56.0144 4.7213 29.8780
v -51.3195 5.2495 28.9837
v -41.9375 5.6516 26.2730
v -36.7380 6.2052 26.4073
v -27.0654 3.6677 27.3738
v -19.5674 2.3298 27.7724
v -11.1076 6.0010 27.8288
v -6.6850 8.3815 30.8919
v 8.3964 8.5986 23.6582
v 12.2673 6.8093 26.6886
v 17.7295 2.4233 27.2341
v -55.5378 8.9025 30.8745
v -53.9585 8.9025 30.8745
v -40.0396 8.7822 23.7293
v -35.8637 8.9471 26.6940
v -29.9423 9.1120 29.6588
v -8.2722 9.4631 25.5586
v -3.7553 9.7318 27.8288
v 5.2935 9.4016 26.6886
v 9.3527 8.9127 28.9916
v -0.1919 -16.1770 32.2135
v 4.6392 -17.0425 32.8691
v 12.6392 -17.8549 32.5338
v 17.0544 -17.2602 31.7664
v -2.0483 -11.1279 35.0217
v 4.6392 -12.9195 36.8691
v 12.9291 -11.1422 36.6313
v 17.7185 -11.2787 33.0801
v -56.0552 -0.0828 32.0607
v -51.3608 -1.3092 33.1413
v -43.3608 -1.4086 33.4284
v -35.3608 -0.6137 32.7270
v -29.1171 -0.1219 32.0152
v -17.0385 0.4546 31.4736
v -11.3608 -1.2639 32.4627
v -3.8515 -3.9671 35.0734
v 4.6392 -0.6827 37.8237
v 12.9291 -2.6039 37.8781
v 17.9913 -3.2787 33.6594
v -56.0144 4.7213 32.0116
v -51.3195 5.2495 32.8859
v -43.3608 3.8458 33.4284
v -35.4787 5.0927 32.7273
v -28.6142 4.7213 32.1935
v -17.0385 0.9853 31.4736
v -11.3608 2.6644 32.4627
v -3.7553 5.3174 32.8422
v 4.6392 4.7213 34.3168
v 12.2673 4.7917 33.7142
v 17.4180 2.1719 32.5388
v -55.5378 8.9025 31.4442
v -53.9585 8.9025 31.4442
v -32.8907 9.1120 31.7322
v -29.9423 9.1120 31.7322
v -1.3517 9.0320 31.5691
v 4.6392 9.0979 31.7272
v 9.3527 8.9127 31.5566
v -0.5892 -8.3607 39.8389
v 4.6392 -8.9195 40.1181
v 10.4557 -8.3845 39.8080
v -0.5892 -6.2753 39.8389
v 4.6392 -4.6827 40.1181
v 10.4557 -4.8208 39.8080
f 3 2 1
f 3 4 2
f 2 5 1
f 2 6 5
f 5 3 1
f 5 7 3
f 6 2 4
f 6 4 8
f 4 3 7
f 4 7 8
f 7 5 6
f 7 6 8
f 9 8 7
f 9 10 8
f 8 11 7
f 8 12 11
f 11 9 7
f 11 13 9
f 12 8 10
f 12 10 14
f 14 10 9
f 14 9 13
f 14 13 11
f 14 11 12
f 16 13 15
f 16 14 13
f 18 15 17
f 18 16 15
f 20 13 14
f 20 19 13
f 19 15 13
f 19 21 15
f 20 14 16
f 20 16 22
f 22 21 19
f 22 19 20
f 21 17 15
f 21 23 17
f 22 16 18
f 22 18 24
f 18 17 23
f 18 23 24
f 24 23 21
f 24 21 22
f 25 24 23
f 25 26 24
f 29 28 27
f 29 30 28
f 32 30 29
f 32 33 30
f 33 31 30
f 33 34 31
f 36 35 34
f 36 37 35
f 40 23 24
f 40 39 23
f 39 25 23
f 39 42 25
f 41 39 38
f 41 42 39
f 40 24 26
f 40 26 43
f 43 26 25
f 43 25 42
f 42 39 40
f 42 40 43
f 45 43 42
f 45 46 43
f 46 44 43
f 46 47 44
f 48 46 45
f 48 49 46
f 49 47 46
f 49 50 47
f 53 27 28
f 53 52 27
f 52 50 49
f 52 53 50
f 55 27 52
f 55 29 27
f 54 52 51
f 54 55 52
f 56 53 28
f 56 28 30
f 31 56 30
f 31 57 56
f 60 29 55
f 60 32 29
f 33 32 60
f 33 60 61
f 60 55 56
f 60 56 61
f 57 31 34
f 57 34 62
f 34 33 61
f 34 61 62
f 35 62 34
f 35 63 62
f 62 58 57
f 62 63 58
f 64 58 63
f 64 59 58
f 65 34 62
f 65 36 34
f 66 63 35
f 66 35 37
f 37 36 65
f 37 65 66
f 65 62 63
f 65 63 66
f 66 64 63
f 66 67 64
f 69 38 39
f 69 68 38
f 68 41 38
f 68 70 41
f 71 69 39
f 71 39 42
f 71 42 41
f 71 41 70
f 70 68 69
f 70 69 71
f 43 71 42
f 43 72 71
f 44 72 43
f 44 73 72
f 71 45 42
f 71 74 45
f 74 71 72
f 74 72 75
f 73 44 47
f 73 47 76
f 76 75 72
f 76 72 73
f 74 48 45
f 74 77 48
f 78 49 48
f 78 48 77
f 76 47 50
f 76 50 79
f 78 75 76
f 78 76 79
f 81 49 78
f 81 52 49
f 81 51 52
f 81 80 51
f 82 79 50
f 82 50 53
f 81 78 79
f 81 79 82
f 80 54 51
f 80 83 54
f 84 55 54
f 84 54 83
f 84 83 80
f 84 80 81
f 85 82 53
f 85 53 56
f 85 56 55
f 85 55 84
f 84 81 82
f 84 82 85
f 86 56 57
f 86 85 56
f 58 86 57
f 58 87 86
f 59 87 58
f 59 88 87
f 89 56 85
f 89 61 56
f 90 62 61
f 90 61 89
f 89 85 86
f 89 86 90
f 63 62 90
f 63 90 91
f 90 86 87
f 90 87 91
f 88 59 64
f 88 64 92
f 94 63 91
f 94 66 63
f 92 64 67
f 92 67 95
f 67 66 94
f 67 94 95
f 94 91 92
f 94 92 95
f 95 93 92
f 95 96 93
f 75 97 74
f 75 98 97
f 97 77 74
f 97 99 77
f 100 98 75
f 100 75 78
f 100 78 77
f 100 77 99
f 99 97 98
f 99 98 100
f 88 103 87
f 88 104 103
f 105 101 104
f 105 102 101
f 106 87 103
f 106 91 87
f 107 104 88
f 107 88 92
f 92 91 106
f 92 106 107
f 106 103 104
f 106 104 107
f 93 107 92
f 93 108 107
f 108 104 107
f 108 105 104
f 109 92 107
f 109 95 92
f 110 108 93
f 110 93 96
f 96 95 109
f 96 109 110
f 109 107 108
f 109 108 110
f 114 112 111
f 114 115 112
f 115 113 112
f 115 116 113
f 118 116 115
f 118 119 116
f 120 116 119
f 120 117 116
f 122 118 121
f 122 119 118
f 128 124 123
f 128 129 124
f 129 125 124
f 129 130 125
f 102 130 101
f 102 131 130
f 132 126 131
f 132 127 126
f 134 101 130
f 134 104 101
f 133 130 129
f 133 134 130
f 135 131 102
f 135 102 105
f 135 134 130
f 135 130 131
f 136 104 134
f 136 107 104
f 137 135 105
f 137 105 108
f 108 107 136
f 108 136 137
f 136 134 135
f 136 135 137
f 112 140 111
f 112 141 140
f 113 141 112
f 113 142 141
f 141 139 138
f 141 142 139
f 140 114 111
f 140 145 114
f 146 115 114
f 146 114 145
f 147 142 113
f 147 113 116
f 117 147 116
f 117 148 147
f 147 143 142
f 147 148 143
f 150 144 149
f 150 145 144
f 146 118 115
f 146 151 118
f 150 146 145
f 150 151 146
f 148 117 120
f 148 120 153
f 120 119 152
f 120 152 153
f 151 121 118
f 151 155 121
f 154 151 150
f 154 155 151
f 152 119 122
f 152 122 156
f 156 122 121
f 156 121 155
f 157 152 156
f 157 153 152
f 159 123 124
f 159 158 123
f 158 156 155
f 158 159 156
f 160 124 125
f 160 159 124
f 127 161 126
f 127 162 161
f 163 123 158
f 163 128 123
f 164 129 128
f 164 128 163
f 165 160 125
f 165 125 130
f 164 159 160
f 164 160 165
f 166 126 161
f 166 131 126
f 162 127 132
f 162 132 167
f 132 131 166
f 132 166 167
f 166 161 162
f 166 162 167
f 168 129 164
f 168 133 129
f 169 165 130
f 169 130 134
f 169 134 133
f 169 133 168
f 168 164 165
f 168 165 169
f 139 170 138
f 139 171 170
f 174 138 170
f 174 141 138
f 174 140 141
f 174 173 140
f 175 171 139
f 175 139 142
f 143 175 142
f 143 176 175
f 178 140 173
f 178 145 140
f 178 144 145
f 178 177 144
f 178 172 177
f 178 173 172
f 179 176 143
f 179 143 148
f 181 144 177
f 181 149 144
f 182 150 149
f 182 149 181
f 183 179 148
f 183 148 153
f 183 180 179
f 183 184 180
f 182 154 150
f 182 185 154
f 186 155 154
f 186 154 185
f 183 153 157
f 183 157 188
f 157 156 187
f 157 187 188
f 189 183 188
f 189 184 183
f 186 158 155
f 186 191 158
f 190 186 185
f 190 191 186
f 187 156 159
f 187 159 192
f 193 158 191
f 193 163 158
f 194 192 159
f 194 159 164
f 194 164 163
f 194 163 193
f 193 191 192
f 193 192 194
f 197 170 171
f 197 196 170
f 173 199 172
f 173 200 199
f 201 170 196
f 201 174 170
f 201 173 174
f 201 200 173
f 201 195 200
f 201 196 195
f 202 197 171
f 202 171 175
f 176 202 175
f 176 203 202
f 202 198 197
f 202 203 198
f 204 172 199
f 204 177 172
f 205 204 199
f 205 199 200
f 206 203 176
f 206 176 179
f 207 179 180
f 207 206 179
f 204 181 177
f 204 208 181
f 209 182 181
f 209 181 208
f 207 180 184
f 207 184 212
f 211 206 207
f 211 207 212
f 209 185 182
f 209 214 185
f 213 209 208
f 213 214 209
f 217 188 187
f 217 187 216
f 217 216 210
f 217 210 211
f 212 184 189
f 212 189 218
f 189 188 217
f 189 217 218
f 218 217 211
f 218 211 212
f 219 185 214
f 219 190 185
f 220 191 190
f 220 190 219
f 219 214 215
f 219 215 220
f 221 216 187
f 221 187 192
f 221 192 191
f 221 191 220
f 221 220 215
f 221 215 216
f 223 195 196
f 223 222 195
f 224 196 197
f 224 223 196
f 198 224 197
f 198 225 224
f 226 195 222
f 226 200 195
f 227 225 198
f 227 198 203
f 226 205 200
f 226 229 205
f 205 228 204
f 205 229 228
f 227 203 206
f 227 206 230
f 228 208 204
f 228 233 208
f 230 206 211
f 230 211 235
f 235 211 210
f 235 210 234
f 239 231 238
f 239 232 231
f 233 213 208
f 233 240 213
f 239 233 232
f 239 240 233
f 241 214 213
f 241 213 240
f 215 214 241
f 215 241 242
f 243 234 210
f 243 210 216
f 243 216 215
f 243 215 242
f 244 234 243
f 244 235 234
f 245 237 236
f 245 246 237
f 247 241 240
f 247 248 241
f 249 241 248
f 249 242 241
f 223 250 222
f 223 251 250
f 224 251 223
f 224 252 251
f 253 224 225
f 253 252 224
f 250 226 222
f 250 254 226
f 255 254 250
f 255 250 251
f 255 251 252
f 255 252 256
f 253 225 227
f 253 227 257
f 256 252 253
f 256 253 257
f 254 229 226
f 254 259 229
f 229 258 228
f 229 259 258
f 260 257 227
f 260 227 230
f 266 231 232
f 266 265 231
f 258 233 228
f 258 267 233
f 267 232 233
f 267 266 232
f 268 267 258
f 268 258 259
f 260 230 235
f 260 235 269
f 271 261 270
f 271 262 261
f 271 263 262
f 271 272 263
f 273 236 237
f 273 272 236
f 272 264 263
f 272 273 264
f 265 238 231
f 265 274 238
f 274 264 273
f 274 265 264
f 275 239 238
f 275 238 274
f 275 274 265
f 275 265 266
f 276 240 239
f 276 239 275
f 243 242 278
f 243 278 279
f 269 235 244
f 269 244 280
f 244 243 279
f 244 279 280
f 282 270 281
f 282 271 270
f 283 236 272
f 283 245 236
f 273 237 246
f 273 246 284
f 246 245 283
f 246 283 284
f 283 272 273
f 283 273 284
f 285 273 284
f 285 274 273
f 276 247 240
f 276 286 247
f 248 247 286
f 248 286 287
f 286 276 277
f 286 277 287
f 278 242 249
f 278 249 288
f 249 248 287
f 249 287 288
f 289 278 288
f 289 279 278
f 255 290 254
f 255 291 290
f 292 255 256
f 292 291 255
f 293 256 257
f 293 292 256
f 290 259 254
f 290 294 259
f 295 294 290
f 295 290 291
f 295 291 292
f 295 292 296
f 293 257 260
f 293 260 297
f 297 296 292
f 297 292 293
f 299 261 262
f 299 298 261
f 300 262 263
f 300 299 262
f 301 263 264
f 301 300 263
f 302 264 265
f 302 301 264
f 267 303 266
f 267 304 303
f 294 268 259
f 294 305 268
f 268 304 267
f 268 305 304
f 297 260 269
f 297 269 308
f 308 307 296
f 308 296 297
f 298 270 261
f 298 309 270
f 310 309 298
f 310 298 299
f 311 272 271
f 311 271 310
f 311 310 299
f 311 299 300
f 312 273 272
f 312 272 311
f 311 300 301
f 311 301 312
f 302 265 274
f 302 274 313
f 312 301 302
f 312 302 313
f 314 266 303
f 314 275 266
f 276 275 314
f 276 314 315
f 315 314 303
f 315 303 304
f 277 276 315
f 277 315 316
f 316 315 304
f 316 304 305
f 316 305 306
f 316 306 317
f 318 317 306
f 318 306 307
f 319 308 269
f 319 269 280
f 280 279 318
f 280 318 319
f 319 318 307
f 319 307 308
f 309 281 270
f 309 320 281
f 310 271 282
f 310 282 321
f 282 281 320
f 282 320 321
f 321 320 309
f 321 309 310
f 312 284 273
f 312 322 284
f 313 274 285
f 313 285 323
f 285 284 322
f 285 322 323
f 322 312 313
f 322 313 323
f 324 277 316
f 324 287 277
f 288 287 324
f 288 324 325
f 324 316 317
f 324 317 325
f 326 318 279
f 326 279 289
f 289 288 325
f 289 325 326
f 326 325 317
f 326 317 318
f 295 327 294
f 295 328 327
f 329 295 296
f 329 328 295
f 330 294 327
f 330 305 294
f 306 305 330
f 306 330 331
f 330 327 328
f 330 328 331
f 329 296 307
f 329 307 332
f 332 307 306
f 332 306 331
f 331 328 329
f 331 329 332
