# parsimony mesh: eg12794_monomer (source /Users/eranagmon/code/v2e-3d/out/ecoli3d/structures/eg12794_monomer.pdb)
# atoms: 757  voxel: 8 Å  verts: 113  tris: 228
v 7.7396 -15.1676 -15.1556
v 7.8783 -15.1676 -15.1556
v -0.6428 -7.4859 -15.3871
v 4.1534 -11.2120 -15.2713
v 7.8783 -14.9381 -15.1556
v -0.7894 -3.1138 -15.4978
v 1.6990 -3.1138 -15.4978
v -0.5330 2.1389 -15.3465
v 4.0877 4.6500 -15.3484
v 8.5953 7.1611 -15.3503
v 6.6005 9.6900 -15.3503
v 8.5953 9.6900 -15.3503
v 7.6279 -15.1903 -11.1048
v 7.9263 -15.1903 -11.1048
v -2.1251 -8.4148 -11.1048
v 4.6019 -11.2105 -12.1659
v 10.5559 -11.3799 -10.7466
v 16.7858 -7.8218 -7.9125
v -8.9657 -0.7570 -7.5666
v -5.1459 -3.2997 -10.5819
v 5.6990 -3.1138 -13.7228
v 11.8151 -3.1138 -10.3370
v 16.5535 -3.1138 -7.7190
v -8.9657 2.0521 -7.5666
v -3.5938 3.6476 -10.5819
v 3.7956 5.0482 -12.6827
v 11.4832 4.6512 -12.5955
v 16.3117 4.8862 -8.2069
v 5.8558 12.5685 -10.5256
v 10.9316 12.3142 -10.6846
v 16.4635 9.6051 -8.5631
v 7.6880 16.9628 -7.4728
v 7.9346 16.9628 -7.4728
v -10.4054 -15.4049 0.4788
v -4.1849 -15.8826 -0.3996
v 4.6547 -15.5049 -3.5712
v 7.9001 -15.1620 -6.7276
v -16.8349 -9.4229 0.4750
v -12.7172 -11.6992 -0.7561
v -4.6624 -11.1313 -4.4900
v 4.6547 -14.0557 -3.5712
v 11.2422 -11.0617 -3.6094
v 16.7858 -7.8218 -5.8247
v -16.8349 -5.7399 0.4750
v -12.1799 -3.2484 -2.9394
v -7.6473 -6.0903 -6.3538
v 14.5843 -4.4648 -0.4913
v 16.4087 -2.3244 -3.1367
v -16.9125 7.2931 -0.3971
v -12.1799 4.6726 -3.3509
v -4.1849 7.3984 -6.1648
v 0.5579 8.4033 -6.6516
v 16.6354 4.8862 -3.1048
v -16.9125 9.7051 -0.3971
v -12.1849 11.2286 -1.4739
v -4.1849 11.4129 -2.1648
v 4.1229 12.5639 -4.1477
v 11.0868 13.3198 -3.8282
v 16.6213 9.7102 -3.1048
v 7.6880 16.9628 -6.9771
v 7.9346 16.9628 -6.9771
v -10.4054 -15.4049 2.8748
v -3.7912 -15.7483 5.2829
v 1.2347 -15.6886 4.8952
v -16.7663 -9.1216 4.8952
v -12.7172 -13.3205 5.2829
v -6.1954 -14.7812 8.2081
v 5.4596 -11.4265 5.3917
v 9.2510 -8.9684 3.0561
v -24.3841 0.7020 8.6684
v -19.2391 -2.5189 5.3168
v -15.3941 -0.4065 1.9653
v 7.3298 -6.5684 8.3894
v 11.8898 -2.8499 4.6512
v 15.8200 0.8686 0.9130
v -24.3841 1.8199 8.6684
v -20.1058 4.5565 5.3168
v -15.3941 1.9598 1.9653
v 5.8914 7.5497 7.7544
v 11.8432 4.8843 5.2623
v 16.1387 4.8862 1.2096
v -18.0663 10.1561 4.8952
v -12.1849 12.9079 4.8952
v -4.1849 12.7338 4.8952
v 3.4609 10.3373 5.0107
v 11.8151 9.8891 2.3406
v 16.2416 9.2660 1.2966
v -0.8621 -15.1463 8.9433
v -0.1454 -15.1463 8.9433
v -16.3101 -7.4818 9.0212
v -12.1849 -9.1403 9.6030
v -3.7912 -11.7142 9.8968
v 1.4808 -11.1138 9.5339
v -24.3841 0.7020 9.0685
v -19.4600 -2.4243 9.5309
v -12.1849 -3.1138 11.1402
v -3.4801 -2.3506 13.8416
v 3.7786 -2.8717 12.9548
v 9.1953 -1.2350 10.8775
v -24.3841 1.8199 9.0685
v -20.4535 4.6464 9.8150
v -12.1849 4.8862 11.5058
v -3.4801 4.2539 14.0375
v 3.0593 4.3577 13.1110
v 9.1953 2.2164 10.8775
v -17.9659 9.7605 9.4947
v -12.1849 10.5655 9.9686
v -4.1849 10.2071 10.3560
v 0.5581 9.2826 10.0112
v -0.3435 0.8249 16.9329
v 0.2273 0.8249 16.9329
v -0.3435 1.1657 16.9329
v 0.2273 1.1657 16.9329
f 5 1 4
f 5 2 1
f 7 3 6
f 7 4 3
f 8 7 6
f 8 9 7
f 11 10 9
f 11 12 10
f 14 1 2
f 14 13 1
f 16 1 13
f 16 4 1
f 16 3 4
f 16 15 3
f 14 2 5
f 14 5 17
f 5 4 16
f 5 16 17
f 15 6 3
f 15 20 6
f 21 16 4
f 21 4 7
f 21 17 16
f 21 22 17
f 22 18 17
f 22 23 18
f 20 8 6
f 20 25 8
f 24 20 19
f 24 25 20
f 21 7 9
f 21 9 26
f 26 9 8
f 26 8 25
f 10 26 9
f 10 27 26
f 27 21 26
f 27 22 21
f 28 22 27
f 28 23 22
f 26 11 9
f 26 29 11
f 27 10 12
f 27 12 30
f 12 11 29
f 12 29 30
f 31 27 30
f 31 28 27
f 33 29 32
f 33 30 29
f 37 13 14
f 37 36 13
f 40 34 39
f 40 35 34
f 41 13 36
f 41 16 13
f 41 15 16
f 41 40 15
f 41 35 40
f 41 36 35
f 37 14 17
f 37 17 42
f 41 36 37
f 41 37 42
f 18 42 17
f 18 43 42
f 44 39 38
f 44 45 39
f 46 15 40
f 46 20 15
f 46 19 20
f 46 45 19
f 46 39 45
f 46 40 39
f 43 18 23
f 43 23 48
f 47 42 43
f 47 43 48
f 50 19 45
f 50 24 19
f 51 25 24
f 51 24 50
f 52 26 25
f 52 25 51
f 48 23 28
f 48 28 53
f 55 49 54
f 55 50 49
f 55 51 50
f 55 56 51
f 52 29 26
f 52 57 29
f 56 52 51
f 56 57 52
f 59 53 28
f 59 28 31
f 31 30 58
f 31 58 59
f 60 29 57
f 60 32 29
f 58 30 33
f 58 33 61
f 33 32 60
f 33 60 61
f 60 57 58
f 60 58 61
f 35 62 34
f 35 63 62
f 64 35 36
f 64 63 35
f 62 39 34
f 62 66 39
f 39 65 38
f 39 66 65
f 67 66 62
f 67 62 63
f 64 36 41
f 64 41 68
f 69 41 42
f 69 68 41
f 65 44 38
f 65 71 44
f 72 45 44
f 72 44 71
f 69 42 47
f 69 47 74
f 73 68 69
f 73 69 74
f 75 47 48
f 75 74 47
f 77 70 76
f 77 71 70
f 78 45 72
f 78 50 45
f 78 49 50
f 78 77 49
f 78 71 77
f 78 72 71
f 75 48 53
f 75 53 81
f 80 74 75
f 80 75 81
f 82 49 77
f 82 54 49
f 83 55 54
f 83 54 82
f 84 56 55
f 84 55 83
f 85 57 56
f 85 56 84
f 86 58 57
f 86 57 85
f 86 85 79
f 86 79 80
f 87 81 53
f 87 53 59
f 59 58 86
f 59 86 87
f 86 80 81
f 86 81 87
f 64 88 63
f 64 89 88
f 91 65 66
f 91 90 65
f 88 67 63
f 88 92 67
f 67 91 66
f 67 92 91
f 93 89 64
f 93 64 68
f 93 92 88
f 93 88 89
f 90 71 65
f 90 95 71
f 95 70 71
f 95 94 70
f 96 95 90
f 96 90 91
f 97 96 91
f 97 91 92
f 93 68 73
f 93 73 98
f 97 92 93
f 97 93 98
f 99 73 74
f 99 98 73
f 94 76 70
f 94 100 76
f 101 77 76
f 101 76 100
f 101 100 94
f 101 94 95
f 102 101 95
f 102 95 96
f 102 96 97
f 102 97 103
f 105 99 74
f 105 74 80
f 105 80 79
f 105 79 104
f 105 104 98
f 105 98 99
f 106 77 101
f 106 82 77
f 107 83 82
f 107 82 106
f 106 101 102
f 106 102 107
f 84 83 107
f 84 107 108
f 108 107 102
f 108 102 103
f 109 104 79
f 109 79 85
f 109 85 84
f 109 84 108
f 109 108 103
f 109 103 104
f 111 97 98
f 111 110 97
f 110 103 97
f 110 112 103
f 111 98 104
f 111 104 113
f 113 104 103
f 113 103 112
f 112 110 111
f 112 111 113
