# parsimony mesh: eg12404_monomer (source /Users/eranagmon/code/v2e-cplx/workspace/studies/ecoli-3d/viz/3d/structures/eg12404_monomer.pdb)
# atoms: 889  voxel: 2.5 Å  verts: 1433  tris: 2936
v -2.7074 -5.6514 -20.7705
v -1.0906 -5.9187 -20.8869
v 0.8328 -5.6960 -20.7003
v -2.7074 -4.6205 -20.7705
v -1.0906 -4.3551 -20.8869
v 0.8328 -4.6420 -20.7003
v 2.6462 2.2859 -20.4358
v 2.6643 2.2859 -20.4358
v 2.6462 2.3216 -20.4358
v 2.6643 2.3216 -20.4358
v -0.1703 -7.9517 -18.3876
v 1.4094 -8.0571 -18.4252
v 3.0162 -7.9135 -18.1344
v -2.7863 -5.7679 -19.1825
v -1.0384 -6.9585 -19.2055
v 1.5634 -6.4910 -19.3447
v 3.8735 -6.5468 -18.4186
v 5.8341 -5.7889 -18.5107
v -2.7533 -3.8458 -19.0324
v -1.0906 -3.1051 -19.4688
v 1.4747 -4.0692 -18.8885
v 3.9119 -4.1712 -18.3729
v 5.8380 -3.9336 -18.4604
v -10.1614 -0.4528 -18.0734
v -9.4986 -0.4528 -18.0734
v -5.2564 -0.5188 -18.1600
v -3.3174 -1.4413 -18.1295
v -1.0906 -2.0298 -18.2188
v 1.1570 -1.5123 -18.3979
v 4.0779 -1.5363 -18.3531
v 5.3895 -2.1797 -18.0581
v -10.1614 0.0644 -18.0734
v -8.5660 0.9942 -18.1041
v -6.0901 1.0809 -18.4298
v -3.4566 0.8994 -18.5461
v -1.0906 1.2978 -18.4329
v 1.4218 1.1363 -19.2592
v 3.8699 1.2238 -19.1782
v 5.2513 1.8284 -18.0416
v -7.6334 2.6062 -18.1348
v -5.9384 3.4903 -18.3619
v -3.5906 3.5664 -18.9919
v -1.0906 3.5664 -19.1060
v 1.6515 3.3195 -19.4526
v 3.7214 3.3083 -18.9211
v 5.2513 2.6283 -18.0416
v -5.0036 4.9247 -18.0468
v -3.4043 5.8813 -18.3648
v -1.0906 6.0664 -18.8899
v 1.4094 6.0664 -18.7575
v 3.1346 6.0664 -18.2547
v -2.4468 7.4222 -18.0356
v -1.0906 7.6266 -18.2168
v 1.4094 7.7385 -18.3107
v 2.8406 7.5715 -18.1608
v 5.0266 -10.2557 -15.5035
v 5.3138 -10.2557 -15.5035
v -0.1703 -7.9517 -17.1591
v 1.1896 -8.2088 -16.4684
v 4.0214 -8.8206 -16.5764
v 5.6623 -8.9336 -15.8983
v -2.8770 -5.7608 -16.6825
v -1.0384 -7.0792 -16.4684
v 0.2097 -7.5733 -15.4924
v 4.6829 -7.4556 -17.6492
v 6.1259 -6.5468 -16.7625
v -3.4126 -3.9336 -16.6825
v 2.1166 -3.4963 -17.6258
v 3.0802 -3.4963 -17.6258
v 6.7560 -3.9336 -16.6825
v -10.5735 -0.8576 -16.6825
v -8.6354 -0.9766 -16.6947
v -6.0901 -0.7897 -16.6947
v -3.4438 -1.3696 -17.1808
v -1.0906 -0.7798 -17.8033
v 1.1570 -1.5123 -17.7367
v 4.0779 -1.5363 -17.6947
v 5.9452 -1.3813 -16.8312
v -10.5735 0.4926 -16.6825
v -8.5309 1.1061 -17.0484
v -6.9231 0.2573 -17.5361
v -2.5340 -0.0453 -17.8452
v -1.0906 0.0478 -17.8033
v 0.1974 -0.0134 -17.8476
v 5.1102 1.2351 -16.6088
v 5.3431 1.2351 -16.6088
v -7.8531 3.4903 -16.4791
v -6.6703 4.2729 -17.1768
v 4.8327 3.5035 -16.4454
v 5.2513 2.6283 -17.1207
v -7.8081 6.0664 -15.5427
v -5.9384 5.8813 -16.5792
v -3.2926 6.9308 -16.3750
v -2.2570 7.2703 -15.5533
v 3.7005 6.0664 -16.6825
v -7.7292 7.3968 -15.5019
v -6.0906 7.4390 -15.5577
v -3.2926 7.4108 -16.3750
v -1.2904 7.6574 -16.5050
v 1.4094 7.8853 -16.6825
v 2.8480 7.5383 -16.6825
v 2.4491 -10.4234 -13.2367
v 4.0797 -10.6866 -14.1150
v 5.7978 -10.6325 -14.1825
v 1.5918 -8.9100 -14.1150
v 3.3599 -9.7276 -14.9033
v 6.5063 -8.9336 -14.1825
v -2.8283 -5.6419 -14.6867
v -1.0906 -6.0696 -14.4992
v 0.4136 -6.6174 -14.1334
v 6.2029 -6.4336 -14.1825
v -5.4162 -3.3152 -13.4729
v -3.7280 -4.1841 -14.0798
v -0.8733 -4.1053 -13.2156
v 1.3549 -3.8674 -13.3023
v 2.7552 -2.9899 -13.1645
v 6.9099 -3.8124 -14.3729
v 7.8331 -2.8983 -13.6664
v -10.6797 -0.8816 -14.1825
v -8.5906 -1.6695 -14.1825
v -6.1859 -1.9651 -14.2568
v -4.6277 -2.1023 -15.1396
v 0.1049 -2.5597 -12.9821
v 1.4094 -2.5150 -13.1437
v 2.7552 -2.5827 -13.1645
v 7.2191 -1.4336 -14.9048
v 7.9539 -1.4336 -13.6548
v -10.6797 0.7227 -14.1825
v -9.3132 1.9727 -14.1825
v 4.6945 2.0024 -14.1825
v 6.3248 0.7343 -14.0700
v 7.8784 0.0982 -13.1616
v -8.7623 3.5664 -14.1825
v 4.4952 3.5664 -14.1825
v -8.9102 6.0664 -14.1825
v -2.4718 7.2703 -15.3734
v -2.2570 7.2703 -15.3734
v 4.1891 6.0664 -14.1825
v -8.2112 7.6958 -14.1825
v -6.0906 7.8627 -14.1825
v -3.4193 7.5795 -14.3971
v -1.2904 7.8734 -14.3971
v 1.5423 8.7682 -13.9715
v 3.1799 8.3408 -13.9715
v 2.4642 9.8824 -12.9974
v 2.8884 9.8824 -12.9974
v 7.0651 -15.3832 -10.7719
v 7.9939 -15.3832 -10.7719
v 4.8311 -13.3187 -10.8448
v 6.3028 -14.0646 -11.1987
v 8.2996 -13.9336 -11.0810
v 2.4491 -10.4234 -12.3895
v 3.8359 -11.4001 -11.6172
v 6.5775 -11.4995 -12.3729
v 8.3300 -11.4336 -11.2988
v 17.1660 -10.6169 -10.7093
v 18.0744 -10.6169 -10.7093
v -0.0171 -7.7994 -11.0835
v 1.3280 -8.9389 -11.7365
v 2.8407 -10.0784 -10.7228
v 7.2534 -8.9336 -12.4690
v 8.8845 -8.8644 -11.2270
v 10.9395 -7.9849 -10.7080
v 17.1660 -9.5546 -10.7093
v 18.0744 -9.5546 -10.7093
v -3.0374 -5.5012 -11.0624
v -0.9465 -6.3742 -11.6415
v 0.4394 -6.4336 -12.7213
v 6.7508 -6.4336 -12.0107
v 8.9094 -6.4336 -11.0441
v 11.1386 -6.4336 -10.7159
v -7.6291 -3.0703 -10.8659
v -6.1859 -3.7674 -11.6925
v -3.7587 -4.9571 -11.8105
v -0.7236 -3.8773 -11.9478
v 1.3549 -3.8912 -11.8730
v 2.7439 -2.9296 -11.6825
v 6.8527 -4.5650 -12.1179
v 8.7641 -3.9906 -11.3264
v 10.6849 -5.0830 -10.5349
v -12.8866 -0.6825 -11.0484
v -10.9083 -0.5837 -11.5808
v -8.6573 -1.4813 -11.4895
v -7.0828 -2.4778 -12.5325
v 0.0849 -2.4019 -11.6825
v 1.4094 -2.3054 -11.6825
v 3.7328 -1.5862 -11.2570
v 5.6765 -0.2516 -10.6896
v 8.2510 -1.4336 -11.6825
v -13.0742 1.0664 -11.1633
v -10.6413 0.6661 -11.5453
v -9.6649 0.9494 -11.4290
v 4.8027 0.8953 -11.7428
v 6.0953 0.8620 -11.6572
v 7.8901 0.9855 -11.5747
v -17.3420 4.8123 -10.4338
v -17.2903 4.8123 -10.4338
v -12.7727 2.7601 -10.7910
v -11.0906 2.8036 -10.9357
v -9.3438 3.4399 -11.6200
v 4.6179 3.5664 -12.7244
v 6.5202 3.5930 -11.4082
v 7.7979 2.7774 -10.6695
v -17.3420 4.8182 -10.4338
v -17.2903 4.8182 -10.4338
v -8.7018 6.0664 -11.6825
v 4.8732 6.0664 -12.4589
v 5.7136 6.0664 -11.2089
v -7.9254 7.6377 -11.6825
v -6.0906 8.0548 -11.6825
v -3.5906 8.4119 -11.6825
v -1.0906 8.8140 -11.6825
v 0.7377 9.3856 -11.6825
v 4.5074 8.5664 -12.4228
v 5.6626 8.5664 -11.1728
v 1.9877 10.1678 -11.6825
v 3.9990 10.8840 -11.6006
v 5.5862 11.0664 -10.9347
v 5.1096 12.3383 -10.4579
v 5.1952 12.3383 -10.4579
v 7.0651 -15.3832 -10.0786
v 7.9939 -15.3832 -10.0786
v 2.4768 -12.9305 -8.1101
v 3.9625 -13.4524 -9.0391
v 6.4324 -14.0342 -9.0457
v 8.2996 -13.9336 -9.6023
v 2.2552 -11.4336 -8.5420
v 3.1742 -11.4336 -9.7920
v 7.4664 -12.4329 -8.0128
v 8.3787 -11.5332 -8.9807
v 14.8409 -10.3577 -8.2748
v 16.3634 -10.8097 -9.1379
v 18.2847 -10.8357 -9.1825
v -2.8883 -7.9167 -8.2685
v -0.9465 -8.0344 -9.1341
v 1.4456 -9.3314 -9.3136
v 2.8407 -10.0784 -10.2342
v 9.4192 -9.6384 -9.1825
v 11.6275 -8.5523 -9.4140
v 13.9683 -8.9885 -8.8206
v 16.3634 -8.8062 -9.7733
v 18.5321 -8.8062 -9.3667
v -5.6560 -5.8402 -8.6955
v -3.3277 -6.0946 -8.8877
v -1.9261 -6.2218 -8.9838
v 12.3886 -6.4336 -10.3399
v 13.9094 -6.4336 -9.5421
v 16.4094 -6.4336 -9.1421
v 18.3863 -6.4336 -8.6899
v -12.4620 -2.7810 -8.0787
v -11.7606 -2.7810 -8.0787
v -8.1438 -3.5887 -9.1825
v -6.3298 -4.8805 -9.3903
v -3.5474 -5.0529 -9.1973
v -1.0269 -3.8345 -9.2210
v 1.4094 -2.7134 -10.3980
v 2.6762 -2.7054 -10.4096
v 9.6951 -3.4163 -9.8479
v 11.5703 -3.9567 -9.2606
v 13.9094 -4.3911 -8.6886
v 16.5367 -3.9615 -8.2952
v 18.0167 -3.9336 -8.1854
v -13.0644 -1.4830 -9.0203
v -10.8037 -1.6518 -9.2516
v -9.3902 -1.6461 -9.4277
v 0.1146 -2.4320 -10.4094
v 1.4094 -2.4741 -10.3980
v 3.8638 -1.4537 -10.3865
v 5.6765 -0.2516 -10.3635
v 9.0411 -1.5200 -9.0818
v 10.7890 -2.4110 -8.1813
v 17.4549 -2.6113 -7.9833
v 17.7874 -2.6113 -7.9833
v -17.7839 1.9423 -8.4114
v -16.0906 1.6076 -8.6016
v -14.2509 0.9738 -9.1805
v -9.8468 -0.1390 -10.4245
v -9.6856 -0.1390 -10.4245
v 5.0513 -0.1149 -10.3635
v 5.6765 -0.1149 -10.3635
v 8.0429 1.0664 -9.1825
v -17.7798 3.8139 -9.2199
v -16.3104 3.8139 -9.9280
v -13.5999 3.5826 -9.9177
v -11.0906 4.0536 -9.8823
v -9.3450 4.1889 -10.0706
v 7.4274 4.4441 -9.9491
v 7.9857 3.5930 -9.1425
v -17.5571 5.0462 -9.1825
v -16.3104 5.1736 -9.3927
v -13.5698 5.9897 -9.0189
v -11.0906 6.0664 -9.3841
v -8.2552 6.5161 -9.3681
v -6.0906 7.1143 -8.6522
v -4.6680 7.2474 -8.1008
v 6.9636 6.0664 -9.7022
v 8.3902 6.0664 -8.4522
v -12.9135 8.5664 -8.8994
v -11.0906 8.5664 -9.4750
v -8.2222 8.0319 -9.3149
v -6.0906 7.6311 -9.9022
v -3.7172 8.7022 -9.0616
v -1.0906 9.4839 -10.0699
v 0.2923 9.5180 -10.3591
v 6.9880 8.7523 -9.1383
v 8.3342 8.0429 -8.2755
v -12.7225 10.2266 -8.6396
v -11.0906 10.2658 -8.7233
v -9.2681 10.0053 -8.2797
v -2.7665 10.3889 -8.3558
v -0.8816 11.1599 -8.6464
v 1.0638 10.9875 -9.1491
v 4.1295 11.6530 -9.2703
v 5.9269 11.2476 -9.2703
v 0.0910 12.3208 -7.9392
v 0.1687 12.3208 -7.9392
v 5.1096 12.3383 -10.1621
v 5.1952 12.3383 -10.1621
v 2.3582 -15.4354 -5.8131
v 3.9094 -15.3832 -5.7576
v 5.1705 -15.1980 -5.4854
v 1.9227 -13.8317 -6.6609
v 4.4058 -13.9789 -6.4384
v 5.4851 -14.0714 -6.4157
v -7.7682 -10.4803 -5.7641
v -6.8456 -10.4803 -5.7641
v -0.0510 -10.6037 -5.5471
v 0.8897 -11.4357 -6.5013
v 4.9885 -11.4336 -6.0752
v 6.5436 -11.5332 -7.0368
v 8.7666 -10.5054 -6.4389
v 10.2244 -10.2446 -5.6285
v 14.8409 -10.3577 -7.7203
v 16.4094 -10.6413 -7.4714
v 18.0781 -10.6197 -7.5299
v -8.2650 -8.9336 -6.1188
v -6.0436 -9.0302 -6.3949
v -3.6692 -8.4914 -6.8459
v -0.9668 -9.2863 -6.5013
v 0.6364 -9.5861 -7.2138
v 5.0234 -9.9761 -6.0426
v 6.4094 -9.9522 -6.0027
v 8.7666 -10.0356 -6.4389
v 11.1984 -9.3870 -6.5501
v 13.9683 -9.0272 -6.8052
v 16.4094 -9.0508 -6.2214
v 18.3268 -8.7541 -6.6909
v -10.2050 -5.9059 -5.6942
v -8.8235 -6.6170 -6.3981
v -6.3298 -6.5776 -7.6545
v -3.4729 -6.3913 -7.8335
v -2.1684 -5.2757 -7.8789
v 2.4919 -5.4038 -5.6652
v 2.8719 -5.4038 -5.6652
v 7.5536 -5.3838 -5.5258
v 8.0841 -5.3838 -5.5258
v 18.7233 -6.4336 -6.6825
v -12.9446 -3.2359 -6.6825
v -10.9828 -3.8851 -6.6814
v -8.8100 -4.1757 -7.3897
v -7.3226 -5.1704 -7.8634
v -2.5080 -3.9194 -6.9046
v -2.1249 -3.9194 -6.9046
v 2.4919 -4.9384 -5.6652
v 2.8719 -4.9384 -5.6652
v 7.5536 -5.0992 -5.5258
v 8.0841 -5.0992 -5.5258
v 12.4557 -2.8304 -7.7461
v 13.9094 -3.1411 -7.3970
v 15.7883 -3.1468 -7.4049
v 18.8909 -3.9336 -6.6825
v -15.2863 -0.6844 -5.9440
v -14.1472 -1.4841 -6.7394
v -10.0913 -1.7002 -6.6779
v -9.4519 -1.7002 -6.6779
v -2.6252 -2.3741 -5.9302
v -2.0813 -2.3741 -5.9302
v 9.5661 -0.7443 -7.1679
v 11.5372 -1.5200 -7.0875
v 13.9267 -1.5629 -6.2298
v 16.6717 -1.7135 -6.4482
v 18.9512 -1.7108 -6.3290
v 20.3924 -0.8104 -5.4999
v -18.0770 1.6631 -6.6825
v -16.1080 0.4512 -6.7394
v -14.5463 0.0787 -7.6107
v -10.0886 0.2281 -5.6871
v -9.1141 0.2281 -5.6871
v -4.9778 2.1406 -5.5741
v -4.5096 2.1406 -5.5741
v 9.1687 1.0664 -7.1827
v 11.4094 1.0664 -6.6730
v 13.5819 1.0664 -6.1729
v 17.5551 -0.1383 -5.4915
v 18.9094 -0.0922 -5.5273
v 20.3924 -0.1071 -5.4999
v -18.1020 3.7245 -6.5227
v -17.2257 4.6632 -5.5828
v -9.9147 4.6825 -5.5255
v -9.7733 4.6825 -5.5255
v -4.9778 2.7765 -5.5741
v -4.5096 2.7765 -5.5741
v 0.1060 4.7081 -5.5429
v 0.2098 4.7081 -5.5429
v 9.2134 3.5664 -7.5928
v 11.4094 3.5664 -7.0933
v 14.1301 3.4268 -6.1348
v 15.3015 4.1670 -5.6024
v -17.6278 5.1210 -7.2495
v -16.2716 5.6220 -6.5227
v -14.3629 6.8449 -6.6825
v -9.9147 4.9009 -5.5255
v -8.6180 6.0084 -6.5825
v -6.0906 7.1143 -7.6495
v -4.6680 7.2474 -7.8481
v 0.1060 4.8721 -5.5429
v 0.2098 4.8721 -5.5429
v 9.7135 6.2761 -6.8019
v 11.2073 6.2761 -6.2395
v 13.9094 6.0664 -6.2771
v 15.4629 6.0664 -5.7300
v -13.1876 8.5080 -6.6114
v -11.7803 9.3024 -5.7306
v -7.6277 8.5664 -7.5545
v -6.0906 8.5664 -7.2299
v -4.4056 8.5664 -7.6080
v 7.5362 9.7096 -7.2126
v 8.5663 8.7523 -6.5006
v 11.5945 8.5664 -6.0320
v 13.9899 8.5679 -6.0482
v 15.4219 7.7356 -5.6594
v -12.7225 10.2266 -7.3973
v -11.0044 10.2374 -6.6114
v -8.4971 10.1210 -6.8059
v -6.0906 10.1022 -6.2629
v -3.5962 10.5089 -6.7235
v -0.8816 11.5011 -6.9187
v 1.1650 11.3455 -6.9187
v 3.9094 10.9610 -6.6825
v 6.5855 10.2990 -6.5006
v 7.7136 9.8244 -5.5459
v 11.9930 10.4977 -5.8920
v 13.2102 10.4977 -5.8920
v 0.0910 12.3208 -7.9094
v 0.1687 12.3208 -7.9094
v 2.3582 -15.4354 -4.7191
v 3.9094 -15.3832 -4.8640
v 5.1705 -15.1980 -5.3880
v 1.5855 -14.1376 -4.0045
v 4.0876 -14.2499 -4.2202
v 5.1705 -15.0596 -5.3880
v -7.7682 -10.4803 -4.6728
v -6.8456 -10.4803 -4.6728
v -2.7996 -10.7194 -3.5349
v -0.9668 -11.2158 -4.2940
v 0.2930 -12.3221 -4.1825
v 4.4353 -11.4336 -4.1825
v 6.9869 -10.7265 -3.7293
v 8.9617 -10.4855 -4.4313
v 10.2244 -10.2446 -5.1334
v -8.1523 -8.9734 -3.9767
v -6.0643 -9.0472 -3.8399
v -3.7851 -9.0735 -4.1042
v -1.7176 -9.8859 -5.2016
v 4.7930 -9.8939 -4.1825
v 6.2559 -9.8912 -4.4106
v 8.9617 -9.9755 -4.4313
v 11.1885 -8.7889 -4.4178
v 13.9094 -7.7320 -5.3429
v 16.4094 -7.8008 -5.3461
v 17.7322 -7.8011 -5.3732
v -10.4751 -6.0088 -4.1825
v -9.2844 -7.2588 -4.1825
v -5.2831 -7.4776 -3.0069
v -4.7707 -7.4776 -3.0069
v 2.4919 -5.4038 -4.9815
v 2.8719 -5.4038 -4.9815
v 7.5536 -5.3838 -5.3143
v 8.0841 -5.3838 -5.3143
v 12.1526 -7.1003 -3.7022
v 13.9094 -6.6924 -4.0929
v 16.2553 -6.2406 -4.0401
v 17.9965 -6.4336 -4.9839
v -13.0245 -3.3226 -4.8103
v -11.6001 -4.0670 -4.0592
v -2.6252 -2.8714 -5.1615
v -2.0813 -2.8714 -5.1615
v 2.4919 -4.9384 -4.9815
v 2.8719 -4.9384 -4.9815
v 7.5536 -5.0992 -5.3143
v 8.0841 -5.0992 -5.3143
v 16.9859 -4.8789 -3.2271
v 19.0755 -4.0723 -4.2994
v 21.4094 -3.3193 -3.8808
v 22.9269 -2.9492 -3.4243
v -19.9701 -0.3099 -3.4254
v -18.5906 -0.7010 -3.7898
v -15.9336 -0.7158 -4.1869
v -13.8386 -1.4753 -3.9673
v -11.0506 -1.5393 -3.7373
v -8.8781 -0.9942 -4.1825
v -2.6252 -2.3741 -5.1615
v -2.0813 -2.3741 -5.1615
v 14.7716 -0.8157 -4.9211
v 15.8885 -0.8157 -4.9211
v 20.1150 -2.4770 -5.3718
v 21.2992 -1.5597 -4.8989
v 23.0104 -1.4336 -3.5610
v -19.9825 1.0664 -3.4778
v -18.6637 1.0181 -4.7588
v -15.9336 0.1691 -4.1869
v -14.6527 0.1856 -3.1244
v -10.3171 1.0634 -4.0388
v -9.0381 1.0634 -4.0388
v -4.9778 2.1406 -5.1617
v -4.5096 2.1406 -5.1617
v 7.6208 2.2953 -2.9590
v 7.8213 2.2953 -2.9590
v 14.8319 1.0664 -4.9668
v 16.5025 0.8222 -4.2887
v 18.9094 0.3312 -4.1825
v 21.2992 0.1236 -4.1403
v 22.8598 -0.0131 -3.2788
v -19.9003 2.3993 -3.1667
v -18.6637 3.1475 -4.0730
v -16.8723 4.5431 -4.1825
v -9.9063 3.5280 -4.2504
v -9.7799 3.5280 -4.2504
v -4.9778 2.7765 -5.1617
v -4.5096 2.7765 -5.1617
v 0.1060 4.7081 -4.8969
v 0.2098 4.7081 -4.8969
v 7.6208 2.4847 -2.9590
v 7.8213 2.4847 -2.9590
v 15.1221 3.6380 -4.1643
v 15.3756 3.6380 -4.1643
v -15.9526 6.2659 -4.4028
v -14.6551 7.2322 -5.3829
v -9.9147 4.9009 -5.3912
v -9.7733 4.9009 -5.3912
v -2.6580 7.1045 -3.0358
v -1.0645 5.9883 -3.9663
v 0.2098 4.8721 -4.8969
v 10.1086 7.2492 -5.0886
v 10.2393 7.2492 -5.0886
v 15.1338 4.8744 -3.0056
v 15.5312 5.8512 -3.9764
v -15.6517 7.8988 -3.7163
v -13.7293 7.8780 -4.4028
v -11.0044 8.7109 -4.3344
v -8.5906 9.2416 -3.7121
v -6.5406 9.5794 -3.3023
v -2.6580 7.5182 -3.0358
v -2.2350 7.5182 -3.0358
v 7.5495 9.6298 -3.6908
v 8.8179 9.0221 -4.4281
v 10.3445 8.5664 -4.9811
v 14.7670 9.1727 -4.1825
v 15.5176 7.9227 -4.1825
v -10.1136 9.9189 -5.2689
v -8.5906 10.0554 -4.9621
v -5.8606 10.0503 -4.1544
v -3.3511 11.1707 -3.9822
v -1.0906 11.4929 -4.5466
v 1.3669 11.4990 -4.1742
v 3.9094 11.0041 -4.1825
v 6.5935 10.1799 -4.3875
v 8.6545 10.5341 -4.2989
v 11.2596 11.2252 -4.7357
v 13.6064 11.2252 -4.2778
v -2.3581 12.3300 -3.0152
v -1.0906 12.4287 -3.2966
v 0.5051 12.4526 -3.3353
v 9.7274 12.4954 -3.1205
v 11.4094 12.6118 -3.5051
v 13.0943 12.5313 -3.5080
v 1.9147 -13.4402 -2.5683
v 3.1077 -13.4402 -2.5683
v -2.7996 -10.7194 -2.2429
v -1.0627 -11.0282 -1.5188
v 1.2126 -11.7226 -1.7140
v 3.9573 -11.1712 -1.7869
v 6.2559 -10.9784 -1.7763
v 9.0764 -10.9099 -1.7109
v 10.4100 -10.3517 -0.8964
v -7.4609 -8.1665 -2.8603
v -6.9497 -8.1665 -2.8603
v -3.2574 -8.9336 -1.8142
v -1.9721 -8.9336 -0.5642
v 2.5796 -8.3413 -0.6428
v 3.8523 -9.1731 -1.6575
v 5.3203 -10.0049 -2.6722
v 10.0535 -8.8093 -1.5238
v 10.9292 -8.5185 -1.2526
v 13.1588 -7.9370 -0.7104
v -10.3222 -5.5616 -2.6379
v -8.3479 -6.3072 -1.9158
v -6.1061 -6.9117 -1.8892
v -3.7986 -7.2303 -1.4516
v -1.0790 -6.3843 -0.4492
v 1.3724 -6.2989 -0.5385
v 2.8977 -7.4128 -0.6428
v 10.0859 -7.6591 -0.4845
v 11.1888 -7.3797 -1.4307
v 13.9590 -6.6458 -1.5992
v 15.3662 -5.5738 -1.6825
v -12.5173 -2.8014 -0.7598
v -11.1247 -3.8125 -1.6989
v -9.2350 -4.8237 -0.9713
v 0.1544 -5.1801 -0.4342
v 0.1653 -5.1801 -0.4342
v 16.4929 -4.0008 -1.6055
v 18.9094 -3.5166 -2.0815
v 21.3165 -3.3792 -1.5788
v 23.0955 -3.1166 -1.6825
v -19.9701 -0.3099 -2.7647
v -18.5906 -0.7010 -2.2963
v -16.5808 -0.7473 -2.2520
v -13.2253 -1.4331 -1.6289
v -11.1282 -1.4673 -2.5126
v -9.2837 -0.6685 -2.5987
v -2.3557 -0.2047 -0.6201
v -2.2731 -0.2047 -0.6201
v 12.5913 -0.2290 -0.4732
v 12.7224 -0.2290 -0.4732
v 17.1062 -2.3081 -0.7208
v 18.9094 -2.2714 -0.8315
v 20.4213 -2.5095 -0.6763
v 24.1286 -1.3445 -1.6020
v 25.7614 -0.4518 -0.7150
v -19.9825 1.0664 -2.6907
v -18.6635 0.9362 -1.3307
v -15.8847 0.3469 -1.5242
v -14.5639 0.3298 -1.6825
v -10.2502 1.0664 -2.4833
v -9.3824 1.0664 -2.4833
v -2.3557 -0.0927 -0.6201
v -2.2731 -0.0927 -0.6201
v 2.6453 2.2818 -0.4648
v 2.6976 2.2818 -0.4648
v 7.6208 2.2953 -2.8882
v 7.8213 2.2953 -2.8882
v 12.5913 -0.1063 -0.4732
v 13.7384 0.9257 -0.6552
v 16.5332 1.8702 -1.4793
v 18.9018 1.6390 -1.4458
v 21.1975 1.5617 -1.5679
v 23.7797 0.9187 -1.9611
v 26.0997 1.0664 -0.9241
v -19.9003 2.3993 -2.7779
v -18.6130 3.5022 -1.8001
v -16.8311 4.6051 -2.4891
v -9.8980 2.3735 -2.6675
v -9.7865 2.3735 -2.6675
v 2.6453 2.3424 -0.4648
v 2.6976 2.3424 -0.4648
v 7.6208 2.4847 -2.8882
v 8.7322 3.4417 -1.9105
v 10.5554 4.3986 -0.9328
v 14.7322 3.7919 -1.6753
v 16.5332 2.7196 -1.4793
v 18.0634 2.3303 -0.4547
v 21.8896 2.5750 -0.6581
v 23.9094 2.8637 -0.8814
v 25.8112 2.7875 -0.8055
v -20.1528 6.8240 -0.7540
v -18.5446 6.0210 -1.3133
v -16.9418 6.0664 -2.5424
v -10.0010 7.2821 -0.4778
v -9.7509 7.2821 -0.4778
v -2.6580 7.1045 -2.7854
v -2.2350 7.1045 -2.7854
v 9.6431 5.1847 -0.9328
v 11.5655 6.2032 -0.7430
v 14.1726 6.0481 -1.6124
v 15.3745 6.5410 -2.6716
v -20.1528 7.7745 -0.7540
v -18.5906 7.8889 -1.2411
v -16.3272 7.9955 -1.8865
v -13.5906 8.0802 -1.6825
v -10.9368 7.6138 -1.4597
v -8.7868 7.9804 -1.4597
v -6.2362 9.1685 -1.6825
v -2.5314 8.6585 -1.6218
v -2.2794 8.6585 -1.6218
v 7.5495 9.6298 -2.2926
v 7.8591 9.6298 -2.2926
v 12.5756 7.4793 -0.5532
v 14.0010 8.4258 -1.6124
v 15.3745 7.7055 -2.6716
v -4.9862 9.9362 -1.6825
v -3.2148 10.7296 -1.6437
v -1.8540 11.0664 -0.9992
v 2.1718 12.0120 -2.5251
v 3.9994 11.7216 -1.6881
v 6.5935 10.5654 -1.5486
v 8.0890 10.9776 -1.5486
v 12.3983 11.9526 -0.7577
v 13.5302 11.0981 -1.6276
v -2.3581 12.3300 -2.8291
v -0.9614 12.4248 -1.8705
v 1.3669 12.5664 -1.6881
v 3.2260 12.5659 -0.8584
v 9.2967 12.6951 -1.6825
v 11.5027 12.7483 -1.6276
v 13.0943 12.5313 -2.4244
v -2.6265 -10.5419 1.5245
v -1.0627 -10.8058 0.7417
v 1.4094 -11.0103 0.8175
v 3.9094 -10.8337 0.8175
v 6.5669 -10.7493 1.0360
v 8.9094 -10.6844 0.3270
v 10.4100 -10.3517 -0.2008
v -2.6050 -8.9336 1.5217
v -1.9721 -8.9336 0.2717
v 2.5796 -8.3413 -0.2457
v 2.8977 -8.3413 -0.2457
v 7.5052 -10.0874 2.0151
v 9.4136 -8.9233 0.7271
v 10.9030 -8.8538 0.2892
v 13.9590 -8.6084 0.7295
v 15.3412 -8.2599 1.5041
v -9.8597 -5.2150 2.0395
v -8.4772 -5.7820 1.0507
v -6.0906 -6.7356 0.8175
v -3.3806 -7.2858 0.9567
v -1.0084 -6.2830 0.5597
v 1.3025 -6.2098 0.3618
v 2.8977 -7.4128 -0.2457
v 10.0859 -7.6591 -0.4062
v 10.2251 -7.6591 -0.4062
v 14.8360 -6.3422 0.7752
v 15.3083 -6.3422 0.7752
v -12.7725 -2.8878 0.8175
v -10.8521 -4.1310 1.0507
v -8.3681 -3.7664 1.1911
v -7.3136 -2.7091 2.0095
v -0.4429 -4.1815 0.9793
v 1.1163 -4.0023 1.1212
v 2.8970 -2.8245 1.9885
v 14.8466 -4.8167 1.7129
v 16.1908 -3.8584 0.8021
v 18.0151 -2.9001 1.5581
v 22.0879 -2.9954 -0.1566
v 22.9734 -2.9954 -0.1566
v -13.6251 -1.4336 0.8175
v -7.5012 -2.6240 2.0095
v -7.3136 -2.6240 2.0095
v -2.3557 -0.2047 -0.4207
v -1.4322 -1.4133 0.7499
v 1.4094 -2.5600 1.8980
v 2.8970 -2.5806 1.9885
v 12.5913 -0.2290 -0.2793
v 12.7224 -0.2290 -0.2793
v 17.1062 -2.3081 -0.1086
v 18.8728 -2.1641 0.7618
v 21.3165 -1.9129 0.7330
v 23.7418 -1.1706 0.8266
v 25.7614 -0.4518 0.1432
v -17.8200 1.7520 0.8175
v -16.0906 0.9967 0.8175
v -14.4432 0.3111 0.8175
v -7.6657 2.1771 1.5989
v -7.0378 2.1771 1.5989
v -2.3557 -0.0927 -0.4207
v -2.2731 -0.0927 -0.4207
v 2.6453 2.2818 -0.4027
v 2.6976 2.2818 -0.4027
v 7.5083 1.6081 1.8062
v 8.3594 1.6081 1.8062
v 12.5913 -0.1063 -0.2793
v 13.7384 0.9257 -0.1284
v 15.9500 1.9577 0.0224
v 19.5700 2.2082 0.8175
v 21.1975 1.9144 0.9695
v 23.6717 0.9502 1.8570
v 26.0695 0.9924 0.9129
v -18.3009 3.5664 0.8175
v -7.6657 2.3964 1.5989
v -7.0378 2.3964 1.5989
v -0.1527 4.6240 1.7431
v 1.4933 3.4832 0.6702
v 2.6976 2.3424 -0.4027
v 7.5083 2.4150 1.8062
v 9.0012 3.4068 0.8643
v 10.5554 4.3986 -0.0777
v 14.6446 3.5664 0.1423
v 16.5311 3.2227 0.7840
v 18.3200 2.4258 0.8175
v 21.8896 2.5750 0.2375
v 23.7637 2.9362 0.9695
v 25.8455 2.8972 0.8175
v -20.1760 6.7286 0.8175
v -19.0715 5.4786 0.8175
v -10.0010 7.2821 -0.3172
v -9.7509 7.2821 -0.3172
v -0.1118 6.0664 1.8069
v 1.2686 6.2995 1.7523
v 2.6948 7.2883 1.8897
v 9.6431 5.1847 -0.0777
v 11.5655 6.2032 -0.1225
v 13.9229 6.2886 0.6892
v 15.4456 5.3554 1.5456
v -20.2283 8.5912 0.8441
v -18.5906 9.1389 0.2198
v -15.9399 9.0431 0.8127
v -13.7737 8.9544 0.7427
v -10.9010 8.3349 0.6045
v -8.7868 7.8145 0.6367
v -6.5805 9.0294 0.8175
v -2.4048 9.7989 -0.4008
v -1.1069 8.5780 0.8218
v 1.4094 7.3734 1.9168
v 2.6948 7.3517 1.8897
v 12.5756 7.4793 -0.1672
v 13.8589 8.3146 0.6229
v 15.7607 9.1500 1.4130
v -20.0395 10.0515 1.6952
v -18.5906 10.2282 1.4698
v -16.6727 10.1304 1.6429
v -13.0625 10.2556 1.5262
v -11.8010 10.2556 1.5262
v -5.5624 10.9070 0.8066
v -3.3791 10.9070 -0.0604
v -1.8540 11.0664 -0.2663
v 4.8412 11.9499 0.8175
v 6.4094 11.3961 0.8175
v 8.7285 11.6196 0.7972
v 11.5324 11.9230 0.7491
v 13.9630 11.2253 0.6470
v 15.7607 10.4980 1.4130
v -5.3904 12.7728 1.6327
v -3.5906 13.0382 1.2588
v -0.9614 12.6749 0.6814
v 1.4094 12.7723 0.8175
v 3.5912 12.7037 0.8175
v 9.4411 12.6424 -0.0496
v 11.5324 12.5907 0.7491
v 13.1762 12.5389 1.5477
v -5.5350 -13.3581 3.9269
v -4.1803 -13.3581 3.9269
v -0.3660 -13.0163 4.0437
v 1.4094 -13.2672 3.7437
v 3.1912 -13.1290 3.9929
v -5.8615 -11.4336 3.7481
v -3.4034 -11.4469 3.1879
v -1.1558 -12.0424 3.2532
v 1.4094 -12.1601 2.4937
v 4.1212 -11.2961 3.3820
v 5.8385 -10.3447 2.7712
v -7.4889 -8.1098 3.9868
v -6.2406 -8.9393 3.5064
v -3.8550 -8.9336 2.4266
v 5.0513 -10.1424 4.4379
v 6.5669 -9.8315 3.4897
v 8.8895 -8.6095 3.3499
v 11.4094 -8.5340 2.9071
v 13.9094 -8.6495 2.7913
v 15.3412 -8.2599 2.3838
v -9.8597 -5.2150 2.1087
v -8.4986 -6.4143 3.0478
v -6.0906 -7.5460 2.3300
v -4.0739 -7.5701 2.1649
v -0.0887 -5.3475 2.2634
v 0.4006 -5.3475 2.2634
v 9.3954 -6.4336 3.9595
v 11.4094 -6.4336 3.4067
v 13.9717 -6.3187 2.8150
v 15.3412 -7.0754 2.3838
v -14.9623 -2.9239 4.1565
v -13.5801 -3.2881 3.3209
v -10.8521 -4.3810 3.0922
v -8.5048 -3.7272 2.9719
v -7.3136 -2.7091 2.1685
v -0.5898 -3.9336 2.3978
v 1.3042 -3.7682 2.3807
v 2.8970 -2.8245 2.1491
v 9.5907 -4.7334 4.1195
v 11.3481 -3.9135 3.6787
v 13.9717 -3.9635 2.5682
v 16.4094 -3.1958 2.6499
v 18.0151 -2.9001 2.6431
v -14.9623 -1.8819 4.1565
v -14.3380 -1.2026 3.3209
v -7.5012 -2.6240 2.1685
v -7.3136 -2.6240 2.1685
v -2.5753 -0.4069 4.4288
v -0.8766 -1.4820 3.4940
v 1.4094 -1.5200 3.3852
v 2.8023 -1.3957 3.3408
v 12.1406 -2.1049 4.0868
v 13.9094 -1.8620 3.7328
v 16.4094 -1.9527 3.8999
v 18.7944 -1.4633 3.4871
v 21.4094 -0.6008 2.5356
v 22.8435 -0.2228 2.0947
v -17.6869 1.8077 3.3175
v -16.0906 0.8224 3.3175
v -14.5380 0.0811 3.3175
v -7.6657 2.1771 2.2288
v -7.0378 2.1771 2.2288
v -2.5753 0.2685 4.4288
v -1.1311 1.0877 4.2738
v 1.4444 0.8766 4.3361
v 2.7076 -0.0832 4.5326
v 7.5083 1.6081 2.3274
v 8.3594 1.6081 2.3274
v 17.0826 1.7597 4.0629
v 18.8549 1.1460 3.3637
v 21.4094 0.5840 2.5356
v 23.6717 0.9502 2.1611
v 25.4224 1.7765 2.2275
v -18.2556 3.5664 3.3175
v -7.6657 2.3964 2.2288
v -7.0378 2.3964 2.2288
v -0.2387 3.6229 3.3224
v 0.4879 3.6229 3.3224
v 7.5083 2.4150 2.3274
v 8.3594 2.4150 2.3274
v 14.8585 4.2980 4.3276
v 16.2641 3.3732 3.3619
v 18.1362 2.4484 2.3963
v 24.4999 2.6197 2.2275
v 25.4224 2.6197 2.2275
v -19.9756 7.0250 2.3122
v -19.0644 6.1415 3.2143
v -0.1118 6.0664 2.2864
v 1.2686 6.2995 2.2847
v 2.6948 7.2883 2.1377
v 14.2094 6.1398 3.4235
v 15.4456 5.3554 2.6609
v -20.0910 8.5664 2.5382
v -18.6094 8.6298 3.7451
v -15.9399 9.3186 3.3685
v -13.7737 9.2885 3.4985
v -11.1093 9.3256 3.5108
v -8.5906 9.0341 2.5848
v -6.9997 9.3939 2.2557
v 0.1099 7.3570 2.1092
v 1.4094 7.3734 2.1514
v 3.8646 8.4547 3.2688
v 6.4094 9.5126 4.3859
v 7.9949 9.6700 4.4929
v 14.1595 8.4165 3.4781
v 15.7607 9.1500 2.7519
v -20.0395 10.0515 2.4504
v -18.5906 10.2282 2.7310
v -16.6727 10.1304 2.5693
v -13.0625 10.2556 2.7859
v -11.1093 10.1367 3.5108
v -8.5906 10.2618 3.8348
v -6.5309 11.0519 3.1804
v 2.2727 11.9723 4.0722
v 4.1847 11.2536 3.4027
v 6.4094 10.8500 3.1359
v 8.8607 10.5198 3.5227
v 11.4637 11.3090 3.2954
v 13.9757 11.1446 3.4329
v 15.7607 10.4980 2.7519
v -5.3341 12.7853 3.3175
v -3.5906 13.6403 3.3175
v -1.0906 13.5200 3.3175
v 1.4274 12.7553 3.2703
v 3.3351 12.5832 2.4056
v 12.3332 12.5389 2.4473
v 13.1762 12.5389 2.4473
v -5.7964 -13.6768 5.8175
v -3.7431 -13.6768 5.8175
v -0.8221 -13.2427 5.8175
v 1.5334 -13.3982 5.9708
v 3.1912 -13.1290 5.2397
v -6.7428 -11.4336 5.8175
v -2.4931 -12.4132 5.8175
v -2.0721 -12.4132 5.8175
v 2.4722 -11.4336 6.8799
v 3.6022 -11.4336 5.6299
v -7.4889 -8.1098 4.9139
v -6.7338 -8.9393 5.7753
v 2.6199 -10.1201 6.9784
v 4.0945 -9.9470 6.0140
v 6.4094 -9.3803 5.8175
v 8.4906 -8.3785 5.8175
v -7.8277 -6.4336 5.2013
v -5.9767 -6.4037 6.5189
v -4.7858 -5.5505 6.9748
v 0.1440 -5.2281 7.0396
v 1.4094 -5.3920 6.8636
v 3.0115 -5.4170 6.8235
v 9.0123 -6.4336 5.8175
v -14.9623 -2.9239 4.9736
v -13.7269 -3.6070 5.8111
v -11.0906 -4.5034 5.8175
v -8.6413 -4.6144 5.8666
v -6.0906 -4.7493 6.7469
v -4.7858 -5.0143 6.9748
v 0.1440 -5.1506 7.0396
v 1.4094 -4.9297 6.8636
v 3.0115 -4.8780 6.8235
v 9.2644 -3.9135 5.7522
v 10.4739 -3.0667 4.8753
v -17.5261 -0.5611 6.7071
v -15.6070 -1.1719 5.6904
v -14.1535 -0.9203 5.9041
v -11.0906 -0.4333 6.5157
v -9.6661 -0.2351 6.9689
v -2.5753 -0.4069 4.9520
v -1.0906 -0.6272 4.9618
v 1.4094 -0.4800 4.7515
v 2.7076 -0.2107 4.6717
v 9.5678 -1.4336 6.5682
v 11.3481 -1.3364 5.3453
v 13.9094 -0.6120 4.9160
v 16.4094 -0.7027 4.7520
v 17.9069 -0.5592 4.6441
v -17.7151 0.9808 5.8512
v -16.0906 0.0282 4.9780
v -13.7939 0.5343 5.4787
v -10.8896 1.1633 6.2395
v -9.6661 0.3946 6.9689
v -2.5753 0.2685 4.9520
v -1.1311 1.0877 5.1625
v 1.4444 0.8766 4.9943
v 2.7076 -0.0832 4.6717
v 9.8912 0.3036 6.9273
v 11.4094 0.4744 6.5589
v 13.9028 1.0505 5.9248
v 16.3133 0.9824 4.7936
v 17.9069 0.0931 4.6441
v -18.1543 3.5664 5.8175
v -12.6034 2.4541 6.4232
v -11.5890 2.4541 6.4232
v -0.3247 2.6219 5.0334
v 0.6345 2.6219 5.0334
v 14.4684 3.5054 5.6460
v 15.4159 2.6314 4.6984
v -18.3058 6.0664 5.8175
v -12.9211 7.2817 6.8919
v -12.2074 7.2817 6.8919
v 12.3156 6.9755 6.3088
v 13.2705 6.1119 5.6123
v -17.8211 7.7821 5.8175
v -16.0906 8.1585 5.8175
v -13.6889 7.9009 5.9621
v -11.6838 8.5998 5.9621
v 4.9070 9.3427 5.8175
v 6.4523 9.3496 5.7404
v 7.9949 9.6700 4.8557
v 11.9366 8.5664 6.0106
v 13.0531 8.5664 4.7606
v -10.3695 10.0286 5.8175
v -8.5906 10.8731 5.8175
v -5.9055 11.8087 5.6728
v -3.5906 11.6032 6.2011
v -1.0906 11.2574 6.4332
v 1.4274 11.3771 5.8585
v 3.6570 10.4671 5.8175
v 7.3142 9.9449 6.5224
v 8.8607 10.1092 5.7404
v 11.2875 10.2170 5.6772
v 13.1086 10.1246 4.7504
v -4.9488 12.4852 4.7430
v -3.5906 12.9185 4.9511
v -1.0906 13.0950 5.1832
v 0.6060 12.7205 5.0525
v -5.4205 -13.3333 7.6291
v -4.0375 -13.3333 7.6291
v -0.6239 -13.0965 7.4000
v 0.7827 -13.0965 7.4000
v -5.6600 -11.3158 8.4045
v -3.3407 -11.5293 8.5621
v -1.4032 -11.5539 8.4475
v 1.7013 -11.1593 8.3274
v 2.6779 -10.1989 9.2549
v -6.0244 -8.9336 8.3175
v -2.6438 -10.0098 9.4950
v -2.1825 -10.0098 9.4950
v 2.6199 -10.1201 7.5882
v 3.8940 -9.1737 8.5579
v 6.4094 -8.4983 7.9691
v 8.3843 -8.2262 7.4762
v -14.9781 -5.4019 9.3815
v -13.5906 -5.4952 9.0964
v -11.0906 -5.3515 9.0689
v -8.5906 -5.4963 9.1501
v -6.0097 -6.2813 8.7101
v -4.6585 -5.5619 8.3175
v 0.1440 -5.2281 7.1332
v 1.6264 -5.3627 8.1069
v 3.8835 -6.3120 8.8361
v 6.3463 -6.6111 8.9945
v 8.5263 -6.4336 7.6311
v -15.3449 -3.9336 9.1350
v -13.7269 -4.0952 7.9562
v -11.0906 -4.9975 7.8189
v -8.5906 -4.8008 7.9001
v -6.0016 -4.7259 8.3671
v -4.6585 -4.9188 8.3175
v 0.1440 -5.1506 7.1332
v 1.6264 -4.9705 8.1069
v 2.9634 -4.9420 8.3175
v 7.1717 -3.9336 9.0196
v 8.2171 -3.9336 7.7696
v -17.7433 -0.9761 8.3175
v -16.1615 -1.9557 8.3330
v -13.8373 -1.2728 7.4390
v -11.0906 -0.4333 7.3630
v -9.6661 -0.2351 7.1612
v 7.1927 -1.4336 9.0604
v 8.3178 -1.4336 7.8104
v -17.7095 1.1148 8.1869
v -16.7004 1.9804 8.9333
v -13.0498 1.0664 7.4332
v -10.8896 1.1633 7.4162
v -9.6661 0.3946 7.1612
v 7.1655 0.0452 9.1313
v 8.9985 0.5252 8.3058
v 11.3886 1.6219 8.3209
v 13.0651 1.8732 7.4898
v -17.5410 3.5664 7.3474
v -16.4218 3.5664 8.5974
v -12.6034 2.4541 7.2547
v -11.5890 2.4541 7.2547
v 12.2081 3.0243 9.1565
v 13.1884 3.7411 8.3209
v -17.6270 6.0664 7.2869
v -16.4617 6.0664 8.5369
v -12.9211 7.2817 7.1622
v -12.2074 7.2817 7.1622
v 4.4001 6.5909 9.0064
v 6.4094 6.7132 9.1234
v 7.7111 7.2376 9.5363
v 12.2474 6.7093 8.3175
v 13.0164 5.4593 8.3175
v -17.5332 7.4150 7.1859
v -15.9884 7.5420 8.1385
v -13.6889 7.7124 8.1243
v -11.0881 8.7398 8.2476
v -8.5906 9.4804 9.2497
v -7.1219 9.4041 9.3782
v -0.4066 9.3384 8.7798
v 1.4094 8.8885 8.6873
v 3.8407 8.4170 8.2607
v 6.4523 8.5926 7.7962
v 8.6904 8.5179 8.8086
v 10.9579 8.5179 8.2432
v -9.9689 9.8980 7.6664
v -8.5906 10.4276 7.9997
v -6.2094 10.8006 8.4539
v -3.5906 10.8211 8.3175
v -1.1802 10.1161 8.0949
v 1.4094 10.1504 7.4373
v 3.2813 10.1948 7.5149
v 7.3142 9.9449 7.2076
v 8.9094 10.1056 7.3922
v 10.3728 10.0735 7.3603
v -5.0312 -10.4040 9.8381
v -4.3105 -10.4040 9.8381
v -0.5159 -10.4531 9.8519
v 1.4094 -10.3972 9.8152
v 2.6779 -10.1989 9.6134
v -12.3432 -7.6847 12.0651
v -12.3383 -7.6847 12.0651
v -5.7149 -8.9648 10.7298
v -3.3909 -9.0810 10.8751
v -1.2457 -9.0794 10.4305
v 1.4440 -8.8912 11.0512
v 3.3306 -8.8912 10.5950
v -15.0959 -5.5858 10.8175
v -13.3422 -6.6237 11.0661
v -11.1106 -6.1289 10.9653
v -8.7744 -5.8537 10.7463
v -6.2127 -6.4241 10.4335
v -3.5620 -6.4441 10.9169
v -1.0906 -7.3088 11.6829
v 1.7503 -6.1260 11.2000
v 3.7348 -6.2459 10.8175
v 6.3463 -5.8995 10.9835
v 7.7105 -5.2925 11.9275
v -15.3658 -3.9588 10.7350
v -14.4395 -3.1422 11.5133
v -9.8829 -5.0687 11.5321
v -9.7303 -5.0687 11.5321
v -5.1090 -4.9998 9.9216
v -4.6526 -4.9998 9.9216
v 2.5877 -5.1593 10.8175
v 2.7349 -5.1593 10.8175
v 6.7969 -4.1181 10.9835
v 7.7105 -5.0744 11.9275
v -17.6921 -0.8628 9.8937
v -16.1615 -1.5911 10.3594
v -14.3703 -1.4336 11.5627
v 6.0777 -1.4336 10.8175
v -17.6921 0.3138 9.8937
v -15.8088 1.1721 10.9211
v -14.6146 0.3637 11.9486
v 5.0003 2.1229 12.0312
v 6.2294 1.0841 11.1653
v 8.9094 1.5869 10.5977
v 10.5414 1.9482 10.2092
v -15.6594 3.5664 10.8175
v -10.0335 4.1201 11.6186
v -9.4344 4.1201 11.6186
v -2.4172 4.7935 11.8287
v -2.2956 4.7935 11.8287
v 4.7716 3.5664 11.4917
v 6.4094 3.5664 11.1944
v 8.9137 3.5764 11.7146
v 11.3337 3.7204 10.8463
v 12.7252 4.6910 9.8168
v -15.4815 6.2175 10.9054
v -14.6483 7.1516 11.7974
v -10.0335 5.0842 11.6186
v -9.4344 5.0842 11.6186
v -5.2842 6.6938 11.6363
v -3.3865 5.9429 11.5890
v -1.3136 6.3015 11.8386
v 1.4094 7.2070 11.6111
v 3.7675 6.0597 10.5718
v 6.4094 5.4632 10.0477
v 8.1138 6.2691 10.8905
v 11.9020 6.0352 10.7170
v 12.7252 5.1811 9.8168
v -15.0869 7.5782 10.1308
v -13.5571 8.4719 10.9829
v -11.0399 9.4512 10.9280
v -8.5906 9.1801 10.8175
v -6.2031 8.6378 10.9022
v -3.5906 8.5664 11.1500
v -1.1802 8.5296 10.7227
v 1.4094 7.6385 10.3611
v 2.7335 7.3906 9.8075
v 9.1595 7.7397 10.8175
v 10.8628 7.7397 10.8175
v -12.4660 9.9044 11.8351
v -11.8394 9.9044 11.8351
v -5.4553 10.1953 10.1681
v -3.5906 10.2843 10.3189
v -2.0733 10.0613 9.9688
v -12.4549 -7.8699 13.3175
v -11.3392 -8.1053 13.3278
v -8.5906 -8.3234 13.7472
v -6.2610 -8.6622 13.1510
v -3.6895 -8.6079 13.3175
v 2.3004 -8.0295 12.3952
v 2.9756 -8.0295 12.3952
v -15.0162 -5.4474 13.3175
v -13.7049 -6.6974 13.3175
v -10.4956 -6.4336 12.4354
v -8.7744 -6.6036 12.4453
v -7.2079 -7.5503 12.2067
v -2.4395 -7.5940 13.3175
v -1.0906 -7.1028 13.3175
v 1.8846 -6.4171 12.8235
v 3.4207 -6.3855 12.8235
v 6.6309 -5.8054 13.3855
v 7.7105 -5.2925 12.5976
v -15.0660 -3.9588 13.4064
v -14.4395 -3.1422 12.6324
v -9.8869 -3.8979 13.3011
v -9.7292 -3.8979 13.3011
v 2.6189 -5.1677 12.0890
v 2.7068 -5.1677 12.0890
v 7.0692 -4.1181 13.3855
v 7.7105 -5.0744 12.5976
v -15.1054 -1.4336 13.9333
v -14.3703 -1.4336 12.6833
v -9.8908 -2.5964 14.4779
v -9.7281 -2.5964 14.4779
v -5.0213 -0.5542 14.4929
v -4.4419 -0.5542 14.4929
v 5.9144 -1.4336 13.3175
v -14.9847 1.1622 13.1280
v -14.3902 1.1622 13.1280
v -5.2756 1.0664 14.2007
v -4.3189 1.0664 14.2007
v 0.1012 2.2387 14.4924
v 1.4094 2.1636 14.2984
v 4.1866 2.1567 13.4804
v 5.3331 1.2003 13.4332
v -15.3046 3.6668 13.1863
v -14.1658 2.9004 13.9322
v -10.0335 4.1201 12.4121
v -8.4311 4.4240 13.4331
v -6.0801 3.7632 13.8877
v -3.4804 3.9226 13.2244
v -1.0972 3.9226 13.4416
v 1.4094 3.5664 13.7517
v 4.1722 3.0359 13.5419
v 5.1728 2.3286 14.3437
v 9.7500 4.4164 12.1516
v 10.4592 4.4164 12.1516
v -15.3631 5.3916 13.3175
v -13.7252 6.3050 13.3515
v -10.9065 5.8073 13.3098
v -8.4311 4.9744 13.4331
v -6.0202 5.7793 13.3749
v -4.0839 5.0272 12.2958
v -0.6290 5.6250 12.3908
v 1.4094 5.9570 12.7708
v 3.1348 5.5285 12.6819
v 9.4386 6.0664 12.2459
v 10.6168 6.0664 12.2459
v -12.9154 8.5664 12.5204
v -10.9761 8.6761 13.2027
v -8.5906 9.1244 13.3175
v -6.6100 8.3347 13.3175
v 9.6078 7.5449 12.2213
v 10.4694 7.5449 12.2213
v -12.4660 9.9044 12.1980
v -11.8394 9.9044 12.1980
v -5.1970 -10.4003 16.3511
v -4.2693 -10.4003 16.3511
v -12.6638 -8.0929 15.8175
v -11.0906 -8.7132 15.8175
v -8.5906 -8.7187 15.8175
v -6.0544 -9.4737 15.6376
v -3.3055 -8.9336 15.4827
v -2.2958 -7.7531 16.2810
v -14.8719 -5.2173 14.6492
v -13.6485 -6.2039 15.6165
v -2.3417 -7.6808 14.6143
v -1.3137 -7.3752 15.5956
v 1.4094 -6.6136 15.8175
v 3.7966 -5.9677 15.8852
v 5.9452 -5.7391 15.0970
v -15.1438 -3.9504 15.6165
v -14.0895 -4.7949 16.3158
v -10.3998 -3.2164 15.8175
v -9.4222 -3.2164 15.8175
v 2.5439 -3.0544 16.6770
v 3.7966 -3.9061 16.4128
v 6.2621 -3.9336 15.2920
v -15.2520 -1.4009 15.7983
v -13.5906 -0.8725 16.5590
v -11.0467 -1.6682 15.9612
v -8.7283 -1.5832 15.8275
v -5.9490 -0.6963 15.7694
v -3.6014 -0.5865 15.7127
v -2.0730 -0.3871 16.4762
v 2.5439 -2.4379 16.6770
v 3.8464 -1.5362 16.2307
v 5.7794 -1.4336 15.0644
v -15.0522 0.2941 14.9522
v -13.4357 1.1030 15.2043
v -11.0906 1.0664 16.0689
v -8.7610 1.1845 16.5645
v -6.6020 1.1845 15.7694
v -3.0689 1.0664 15.0341
v -0.9859 1.2124 15.7119
v 1.4094 1.3932 15.8175
v 4.0054 1.1383 15.5204
v 5.2761 1.0664 14.7468
v -14.9639 4.5671 14.6287
v -13.4357 3.6668 14.6684
v -11.0437 3.3514 16.1167
v -8.5014 3.5450 16.3425
v -6.9067 3.1726 15.8175
v -2.8770 3.0518 14.9475
v -1.5655 3.0518 14.9475
v 5.0397 2.3286 14.5804
v 5.1728 2.3286 14.5804
v -14.9639 4.9148 14.6287
v -13.5906 4.9257 14.6391
v -10.9793 5.9068 15.5809
v -8.4129 5.8502 16.1357
v -6.4947 6.2755 15.8175
v -10.1129 7.6581 14.8934
v -8.6372 8.2733 15.7630
v -6.4947 8.2562 15.8175
v -5.1970 -10.4003 17.4713
v -4.2693 -10.4003 17.4713
v -12.6217 -7.9820 17.4758
v -11.0906 -8.1869 17.6632
v -8.5906 -8.0789 17.4304
v -6.0544 -8.7763 17.6677
v -3.4978 -8.7253 17.6174
v -2.2958 -7.7531 17.0816
v -12.6131 -6.4336 17.4149
v -11.0906 -6.4336 17.8980
v -8.5924 -6.3310 18.5127
v -6.0906 -6.7522 18.7649
v -3.5906 -6.6707 18.7021
v -1.2954 -6.3824 18.2255
v 1.4094 -5.7804 17.7076
v 2.8881 -5.3853 17.2859
v -15.1731 -3.1282 17.3793
v -13.3899 -3.9504 17.3412
v -11.2578 -4.0838 17.3090
v -9.0443 -4.0838 18.2223
v -0.2950 -4.7812 19.3693
v 1.8957 -3.8933 18.2468
v 3.0942 -3.8795 18.1258
v -15.1731 -2.2124 17.3793
v -13.5906 -2.1225 17.3684
v -12.2026 -2.4067 17.1569
v -7.9054 -2.1601 18.3175
v -6.0906 -1.3653 18.3175
v -3.5906 -1.0913 18.3175
v -1.6143 -0.6362 18.3175
v 2.5439 -2.4379 17.2991
v 3.6218 -1.5362 18.2064
v -8.0413 2.0966 17.1724
v -7.1962 2.0966 17.1724
v -0.3643 0.1587 18.3175
v 1.4094 0.6453 18.3175
v 3.3817 0.3030 18.3175
v -10.1791 4.0414 17.3215
v -8.6512 3.3773 17.2470
v -7.1962 2.7132 17.1724
v -10.1791 5.2831 17.3215
v -8.5480 5.9983 17.3374
v -6.7971 6.7136 17.3533
v -7.8349 7.7668 17.3533
v -6.7971 7.7668 17.3533
v -7.7603 -5.4293 19.8141
v -6.0906 -5.5022 19.8294
v -3.5906 -5.4207 19.7599
v -1.9617 -5.3206 19.7215
v -7.9292 -3.9336 19.9706
v -6.0906 -3.9336 20.3748
v -3.5906 -3.9336 20.3726
v -1.1132 -3.9422 20.0481
v 1.4094 -3.2725 20.0761
v 3.3003 -3.0379 19.9791
v -7.7056 -2.4327 19.8583
v -6.0906 -2.2524 20.1129
v -3.5906 -2.1156 20.1801
v -0.9201 -1.4236 20.0851
v 1.4094 -1.4336 20.7656
v 3.6287 -1.4336 20.4040
v 0.0269 -0.0969 19.7831
v 1.4094 0.1657 20.2570
v 3.3109 0.1954 20.2712
f 5 1 4
f 5 2 1
f 6 2 5
f 6 3 2
f 9 8 7
f 9 10 8
f 2 14 1
f 2 15 14
f 3 15 2
f 3 16 15
f 16 11 15
f 16 12 11
f 16 13 12
f 16 17 13
f 14 4 1
f 14 19 4
f 5 4 19
f 5 19 20
f 16 3 6
f 16 6 21
f 6 5 20
f 6 20 21
f 22 16 21
f 22 17 16
f 22 18 17
f 22 23 18
f 28 19 27
f 28 20 19
f 29 20 28
f 29 21 20
f 31 22 30
f 31 23 22
f 32 25 24
f 32 33 25
f 35 26 34
f 35 27 26
f 38 7 8
f 38 37 7
f 37 30 29
f 37 38 30
f 40 34 33
f 40 41 34
f 42 34 41
f 42 35 34
f 42 36 35
f 42 43 36
f 44 7 37
f 44 9 7
f 43 37 36
f 43 44 37
f 38 8 10
f 38 10 45
f 10 9 44
f 10 44 45
f 46 38 45
f 46 39 38
f 47 42 41
f 47 48 42
f 48 43 42
f 48 49 43
f 50 43 49
f 50 44 43
f 51 44 50
f 51 45 44
f 52 49 48
f 52 53 49
f 53 50 49
f 53 54 50
f 55 50 54
f 55 51 50
f 12 58 11
f 12 59 58
f 13 59 12
f 13 60 59
f 61 56 60
f 61 57 56
f 63 11 58
f 63 15 11
f 15 62 14
f 15 63 62
f 64 63 58
f 64 58 59
f 65 60 13
f 65 13 17
f 18 65 17
f 18 66 65
f 65 61 60
f 65 66 61
f 62 19 14
f 62 67 19
f 22 21 68
f 22 68 69
f 70 66 18
f 70 18 23
f 25 71 24
f 25 72 71
f 67 27 19
f 67 74 27
f 74 26 27
f 74 73 26
f 75 28 27
f 75 27 74
f 68 21 29
f 68 29 76
f 76 29 28
f 76 28 75
f 69 30 22
f 69 77 30
f 30 76 29
f 30 77 76
f 76 69 68
f 76 77 69
f 70 23 31
f 70 31 78
f 31 30 77
f 31 77 78
f 71 32 24
f 71 79 32
f 80 72 25
f 80 25 33
f 80 33 32
f 80 32 79
f 81 26 73
f 81 34 26
f 81 33 34
f 81 80 33
f 81 72 80
f 81 73 72
f 82 74 27
f 82 27 35
f 36 82 35
f 36 83 82
f 82 75 74
f 82 83 75
f 84 29 76
f 84 37 29
f 84 36 37
f 84 83 36
f 84 75 83
f 84 76 75
f 77 30 38
f 77 38 85
f 39 85 38
f 39 86 85
f 85 78 77
f 85 86 78
f 80 40 33
f 80 87 40
f 88 41 40
f 88 40 87
f 90 86 39
f 90 39 46
f 46 45 89
f 46 89 90
f 90 89 85
f 90 85 86
f 88 47 41
f 88 92 47
f 91 88 87
f 91 92 88
f 48 47 92
f 48 92 93
f 95 89 45
f 95 45 51
f 97 91 96
f 97 92 91
f 93 52 48
f 93 98 52
f 97 93 92
f 97 98 93
f 99 53 52
f 99 52 98
f 98 93 94
f 98 94 99
f 100 54 53
f 100 53 99
f 101 95 51
f 101 51 55
f 55 54 100
f 55 100 101
f 104 56 57
f 104 103 56
f 106 56 103
f 106 60 56
f 106 59 60
f 106 105 59
f 106 102 105
f 106 103 102
f 107 104 57
f 107 57 61
f 109 62 63
f 109 108 62
f 105 64 59
f 105 110 64
f 64 109 63
f 64 110 109
f 111 107 61
f 111 61 66
f 108 67 62
f 108 113 67
f 114 113 108
f 114 108 109
f 114 109 110
f 114 110 115
f 111 66 70
f 111 70 117
f 72 119 71
f 72 120 119
f 121 72 73
f 121 120 72
f 122 67 113
f 122 74 67
f 122 73 74
f 122 121 73
f 122 112 121
f 122 113 112
f 123 114 115
f 123 115 124
f 124 115 116
f 124 116 125
f 126 117 70
f 126 70 78
f 126 118 117
f 126 127 118
f 119 79 71
f 119 128 79
f 129 80 79
f 129 79 128
f 131 126 78
f 131 78 86
f 86 85 130
f 86 130 131
f 132 126 131
f 132 127 126
f 129 87 80
f 129 133 87
f 130 85 89
f 130 89 134
f 133 91 87
f 133 135 91
f 94 93 136
f 94 136 137
f 138 134 89
f 138 89 95
f 139 91 135
f 139 96 91
f 140 97 96
f 140 96 139
f 136 93 98
f 136 98 141
f 141 98 97
f 141 97 140
f 137 99 94
f 137 142 99
f 141 137 136
f 141 142 137
f 100 99 142
f 100 142 143
f 138 95 101
f 138 101 144
f 101 100 143
f 101 143 144
f 145 144 143
f 145 146 144
f 151 147 150
f 151 148 147
f 153 102 103
f 153 152 102
f 154 103 104
f 154 153 103
f 154 149 153
f 154 150 149
f 154 151 150
f 154 155 151
f 159 102 152
f 159 105 102
f 160 159 152
f 160 152 153
f 161 154 104
f 161 104 107
f 161 155 154
f 161 162 155
f 164 157 156
f 164 165 157
f 168 105 159
f 168 110 105
f 168 158 167
f 168 159 158
f 161 107 111
f 161 111 169
f 170 161 169
f 170 162 161
f 170 163 162
f 170 171 163
f 174 112 113
f 174 173 112
f 114 174 113
f 114 175 174
f 175 166 174
f 175 167 166
f 168 115 110
f 168 176 115
f 175 168 167
f 175 176 168
f 116 115 176
f 116 176 177
f 178 169 111
f 178 111 117
f 118 178 117
f 118 179 178
f 178 170 169
f 178 179 170
f 180 170 179
f 180 171 170
f 183 119 120
f 183 182 119
f 184 112 173
f 184 121 112
f 184 120 121
f 184 183 120
f 184 172 183
f 184 173 172
f 175 114 123
f 175 123 185
f 186 123 124
f 186 185 123
f 177 125 116
f 177 187 125
f 125 186 124
f 125 187 186
f 189 179 118
f 189 118 127
f 182 128 119
f 182 191 128
f 191 181 190
f 191 182 181
f 192 129 128
f 192 128 191
f 192 191 182
f 192 182 183
f 131 130 193
f 131 193 194
f 193 187 188
f 193 188 194
f 189 127 132
f 189 132 195
f 132 131 194
f 132 194 195
f 199 190 198
f 199 191 190
f 200 129 192
f 200 133 129
f 199 192 191
f 199 200 192
f 201 193 130
f 201 130 134
f 202 193 201
f 202 194 193
f 203 194 202
f 203 195 194
f 204 197 196
f 204 205 197
f 206 133 200
f 206 135 133
f 201 134 138
f 201 138 207
f 208 201 207
f 208 202 201
f 206 139 135
f 206 209 139
f 140 139 209
f 140 209 210
f 211 141 140
f 211 140 210
f 142 141 211
f 142 211 212
f 143 142 212
f 143 212 213
f 214 207 138
f 214 138 144
f 215 207 214
f 215 208 207
f 213 145 143
f 213 216 145
f 214 144 146
f 214 146 217
f 146 145 216
f 146 216 217
f 217 215 214
f 217 218 215
f 219 218 217
f 219 220 218
f 148 221 147
f 148 222 221
f 221 150 147
f 221 225 150
f 225 149 150
f 225 224 149
f 222 148 151
f 222 151 226
f 226 225 221
f 226 221 222
f 228 149 224
f 228 153 149
f 228 223 227
f 228 224 223
f 226 151 155
f 226 155 230
f 229 225 226
f 229 226 230
f 233 156 157
f 233 232 156
f 236 158 159
f 236 235 158
f 228 160 153
f 228 237 160
f 160 236 159
f 160 237 236
f 237 227 236
f 237 228 227
f 238 230 155
f 238 155 162
f 163 238 162
f 163 239 238
f 232 164 156
f 232 241 164
f 241 231 240
f 241 232 231
f 233 157 165
f 233 165 242
f 242 165 164
f 242 164 241
f 235 167 158
f 235 245 167
f 245 166 167
f 245 244 166
f 245 234 244
f 245 235 234
f 246 239 163
f 246 163 171
f 247 239 246
f 247 240 239
f 247 241 240
f 247 248 241
f 248 242 241
f 248 249 242
f 253 172 173
f 253 252 172
f 254 166 244
f 254 174 166
f 174 253 173
f 174 254 253
f 254 243 253
f 254 244 243
f 254 244 245
f 254 245 255
f 256 176 175
f 256 175 255
f 177 176 256
f 177 256 257
f 246 171 180
f 246 180 259
f 180 179 258
f 180 258 259
f 260 246 259
f 260 247 246
f 260 248 247
f 260 261 248
f 261 249 248
f 261 262 249
f 264 181 182
f 264 263 181
f 263 251 250
f 263 264 251
f 265 172 252
f 265 183 172
f 266 255 175
f 266 175 185
f 186 266 185
f 186 267 266
f 266 256 255
f 266 267 256
f 257 187 177
f 257 268 187
f 187 267 186
f 187 268 267
f 267 257 256
f 267 268 257
f 188 187 268
f 188 268 269
f 258 179 189
f 258 189 270
f 271 258 270
f 271 259 258
f 272 262 261
f 272 273 262
f 276 181 263
f 276 190 181
f 277 264 182
f 277 182 191
f 278 183 265
f 278 192 183
f 192 277 191
f 192 278 277
f 277 265 264
f 277 278 265
f 279 268 187
f 279 187 193
f 280 188 269
f 280 194 188
f 280 193 194
f 280 279 193
f 279 269 268
f 279 280 269
f 281 270 189
f 281 189 195
f 283 196 197
f 283 282 196
f 283 274 282
f 283 275 274
f 276 198 190
f 276 284 198
f 284 275 283
f 284 276 275
f 285 199 198
f 285 198 284
f 286 200 199
f 286 199 285
f 281 195 203
f 281 203 288
f 203 202 287
f 203 287 288
f 289 196 282
f 289 204 196
f 290 283 197
f 290 197 205
f 205 204 289
f 205 289 290
f 290 284 283
f 290 291 284
f 291 285 284
f 291 292 285
f 286 206 200
f 286 293 206
f 292 286 285
f 292 293 286
f 287 202 208
f 287 208 296
f 297 287 296
f 297 288 287
f 298 292 291
f 298 299 292
f 293 209 206
f 293 300 209
f 300 292 299
f 300 293 292
f 301 210 209
f 301 209 300
f 300 293 294
f 300 294 301
f 211 210 301
f 211 301 302
f 301 294 295
f 301 295 302
f 303 212 211
f 303 211 302
f 304 213 212
f 304 212 303
f 296 208 215
f 296 215 305
f 306 296 305
f 306 297 296
f 307 299 298
f 307 308 299
f 309 299 308
f 309 300 299
f 310 303 302
f 310 311 303
f 304 216 213
f 304 312 216
f 311 304 303
f 311 312 304
f 313 217 216
f 313 216 312
f 305 215 218
f 305 218 314
f 316 311 315
f 316 312 311
f 313 219 217
f 313 317 219
f 318 314 218
f 318 218 220
f 220 219 317
f 220 317 318
f 318 317 313
f 318 313 314
f 323 223 224
f 323 322 223
f 323 319 322
f 323 320 319
f 324 224 225
f 324 323 224
f 323 321 320
f 323 324 321
f 328 223 322
f 328 227 223
f 324 225 229
f 324 229 330
f 329 323 324
f 329 324 330
f 230 330 229
f 230 331 330
f 334 231 232
f 334 333 231
f 335 232 233
f 335 334 232
f 336 326 325
f 336 337 326
f 339 234 235
f 339 338 234
f 340 227 328
f 340 236 227
f 340 235 236
f 340 339 235
f 340 327 339
f 340 328 327
f 342 341 329
f 342 329 330
f 331 230 238
f 331 238 343
f 342 330 331
f 342 331 343
f 344 238 239
f 344 343 238
f 343 332 331
f 343 344 332
f 333 240 231
f 333 345 240
f 345 239 240
f 345 344 239
f 346 345 333
f 346 333 334
f 335 233 242
f 335 242 347
f 346 334 335
f 346 335 347
f 350 336 349
f 350 337 336
f 351 234 338
f 351 244 234
f 351 243 244
f 351 350 243
f 350 338 337
f 350 351 338
f 352 245 244
f 352 244 351
f 347 242 249
f 347 249 357
f 251 358 250
f 251 359 358
f 360 348 359
f 360 349 348
f 361 243 350
f 361 253 243
f 361 252 253
f 361 360 252
f 361 349 360
f 361 350 349
f 351 244 254
f 351 254 362
f 352 255 245
f 352 363 255
f 255 362 254
f 255 363 362
f 362 352 351
f 362 363 352
f 364 353 354
f 364 354 365
f 366 355 356
f 366 356 367
f 260 259 368
f 260 368 369
f 370 261 260
f 370 260 369
f 357 249 262
f 357 262 371
f 373 250 358
f 373 263 250
f 374 359 251
f 374 251 264
f 360 265 252
f 360 375 265
f 265 374 264
f 265 375 374
f 375 359 374
f 375 360 359
f 377 376 362
f 377 362 363
f 368 259 271
f 368 271 379
f 271 270 378
f 271 378 379
f 380 368 379
f 380 369 368
f 370 272 261
f 370 381 272
f 380 370 369
f 380 381 370
f 371 262 273
f 371 273 382
f 273 272 381
f 273 381 382
f 275 384 274
f 275 385 384
f 386 263 373
f 386 276 263
f 386 275 276
f 386 385 275
f 386 372 385
f 386 373 372
f 387 374 375
f 387 375 388
f 378 270 281
f 378 281 391
f 392 378 391
f 392 379 378
f 393 379 392
f 393 380 379
f 394 382 381
f 394 395 382
f 395 383 382
f 395 396 383
f 397 274 384
f 397 282 274
f 401 389 390
f 401 390 402
f 405 391 281
f 405 281 288
f 406 391 405
f 406 392 391
f 406 393 392
f 406 407 393
f 409 282 397
f 409 289 282
f 290 289 409
f 290 409 410
f 409 397 398
f 409 398 410
f 291 290 410
f 291 410 411
f 412 399 400
f 412 400 413
f 414 294 293
f 414 293 413
f 295 294 414
f 295 414 415
f 416 403 404
f 416 404 417
f 405 288 297
f 405 297 418
f 418 406 405
f 418 419 406
f 420 406 419
f 420 407 406
f 420 408 407
f 420 421 408
f 411 298 291
f 411 422 298
f 424 413 293
f 424 293 300
f 424 414 413
f 424 425 414
f 426 295 415
f 426 302 295
f 425 415 414
f 425 426 415
f 418 297 306
f 418 306 428
f 306 305 427
f 306 427 428
f 429 420 419
f 429 430 420
f 431 420 430
f 431 421 420
f 432 298 422
f 432 307 298
f 308 307 432
f 308 432 433
f 432 422 423
f 432 423 433
f 424 300 309
f 424 309 434
f 309 308 433
f 309 433 434
f 435 424 434
f 435 425 424
f 426 310 302
f 426 436 310
f 435 426 425
f 435 436 426
f 437 311 310
f 437 310 436
f 439 313 312
f 439 312 438
f 427 305 314
f 427 314 440
f 314 313 439
f 314 439 440
f 441 427 440
f 441 428 427
f 443 429 442
f 443 430 429
f 437 315 311
f 437 444 315
f 438 312 316
f 438 316 445
f 316 315 444
f 316 444 445
f 445 444 437
f 445 437 438
f 447 319 320
f 447 446 319
f 448 320 321
f 448 447 320
f 449 319 446
f 449 322 319
f 450 449 446
f 450 446 447
f 451 448 321
f 451 321 324
f 451 324 323
f 451 323 450
f 451 450 447
f 451 447 448
f 326 452 325
f 326 453 452
f 456 322 449
f 456 328 322
f 456 327 328
f 456 455 327
f 457 450 323
f 457 323 329
f 332 459 331
f 332 460 459
f 452 336 325
f 452 461 336
f 453 326 337
f 453 337 462
f 461 452 453
f 461 453 462
f 463 337 338
f 463 462 337
f 464 327 455
f 464 339 327
f 464 338 339
f 464 463 338
f 464 454 463
f 464 455 454
f 457 329 341
f 457 341 465
f 466 341 342
f 466 465 341
f 459 343 331
f 459 467 343
f 467 342 343
f 467 466 342
f 467 458 466
f 467 459 458
f 460 332 344
f 460 344 468
f 467 459 460
f 467 460 468
f 469 344 345
f 469 468 344
f 346 469 345
f 346 470 469
f 471 346 347
f 471 470 346
f 473 336 461
f 473 349 336
f 473 348 349
f 473 472 348
f 475 474 462
f 475 462 463
f 354 353 476
f 354 476 477
f 356 355 478
f 356 478 479
f 480 468 469
f 480 469 481
f 481 469 470
f 481 470 482
f 471 347 357
f 471 357 483
f 483 482 470
f 483 470 471
f 485 348 472
f 485 359 348
f 359 484 358
f 359 485 484
f 487 363 362
f 487 362 486
f 476 353 364
f 476 364 488
f 477 365 354
f 477 489 365
f 365 488 364
f 365 489 488
f 488 477 476
f 488 489 477
f 478 355 366
f 478 366 490
f 479 367 356
f 479 491 367
f 367 490 366
f 367 491 490
f 490 479 478
f 490 491 479
f 483 357 371
f 483 371 493
f 492 482 483
f 492 483 493
f 484 373 358
f 484 499 373
f 499 372 373
f 499 498 372
f 500 499 484
f 500 484 485
f 501 375 374
f 501 374 500
f 486 362 376
f 486 376 502
f 487 377 363
f 487 503 377
f 377 502 376
f 377 503 502
f 502 487 486
f 502 503 487
f 505 381 380
f 505 380 504
f 506 493 371
f 506 371 382
f 383 506 382
f 383 507 506
f 506 494 493
f 506 507 494
f 508 494 507
f 508 495 494
f 509 497 496
f 509 510 497
f 511 372 498
f 511 385 372
f 385 510 384
f 385 511 510
f 511 497 510
f 511 498 497
f 512 511 498
f 512 498 499
f 500 374 387
f 500 387 513
f 501 388 375
f 501 514 388
f 514 387 388
f 514 513 387
f 390 389 515
f 390 515 516
f 504 380 393
f 504 393 519
f 505 394 381
f 505 520 394
f 519 505 504
f 519 520 505
f 521 395 394
f 521 394 520
f 507 383 396
f 507 396 522
f 396 395 521
f 396 521 522
f 522 508 507
f 522 523 508
f 525 384 510
f 525 397 384
f 524 510 509
f 524 525 510
f 398 397 525
f 398 525 526
f 400 399 527
f 400 527 528
f 528 527 513
f 528 513 514
f 515 389 401
f 515 401 529
f 516 402 390
f 516 530 402
f 402 529 401
f 402 530 529
f 529 516 515
f 529 530 516
f 404 403 531
f 404 531 532
f 533 517 518
f 533 518 534
f 519 393 407
f 519 407 535
f 408 535 407
f 408 536 535
f 536 519 535
f 536 520 519
f 537 398 526
f 537 410 398
f 538 411 410
f 538 410 537
f 539 527 399
f 539 399 412
f 540 400 528
f 540 413 400
f 540 412 413
f 540 539 412
f 540 527 539
f 540 528 527
f 531 403 416
f 531 416 542
f 532 417 404
f 532 543 417
f 543 416 417
f 543 542 416
f 543 531 542
f 543 532 531
f 419 418 544
f 419 544 545
f 547 536 408
f 547 408 421
f 546 535 536
f 546 536 547
f 538 422 411
f 538 549 422
f 548 538 537
f 548 549 538
f 423 422 549
f 423 549 550
f 554 553 541
f 554 541 542
f 544 418 428
f 544 428 556
f 545 429 419
f 545 557 429
f 557 544 556
f 557 545 544
f 559 547 421
f 559 421 431
f 431 430 558
f 431 558 559
f 560 423 550
f 560 433 423
f 434 433 560
f 434 560 561
f 560 550 551
f 560 551 561
f 435 434 561
f 435 561 562
f 561 551 552
f 561 552 562
f 436 435 562
f 436 562 563
f 564 437 436
f 564 436 563
f 438 437 564
f 438 564 565
f 439 438 565
f 439 565 566
f 440 439 566
f 440 566 567
f 556 428 441
f 556 441 568
f 441 440 567
f 441 567 568
f 568 567 555
f 568 555 556
f 557 442 429
f 557 569 442
f 568 557 556
f 568 569 557
f 558 430 443
f 558 443 570
f 443 442 569
f 443 569 570
f 571 564 563
f 571 572 564
f 573 564 572
f 573 565 564
f 574 569 568
f 574 575 569
f 576 569 575
f 576 570 569
f 578 449 450
f 578 577 449
f 580 454 455
f 580 579 454
f 577 456 449
f 577 581 456
f 456 580 455
f 456 581 580
f 578 450 457
f 578 457 582
f 581 577 578
f 581 578 582
f 584 458 459
f 584 583 458
f 587 461 462
f 587 586 461
f 588 454 579
f 588 463 454
f 589 588 579
f 589 579 580
f 582 457 465
f 582 465 591
f 592 458 583
f 592 466 458
f 592 465 466
f 592 591 465
f 592 582 591
f 592 583 582
f 584 459 467
f 584 467 593
f 468 593 467
f 468 594 593
f 593 585 584
f 593 594 585
f 586 473 461
f 586 597 473
f 473 596 472
f 473 597 596
f 587 462 474
f 587 474 598
f 598 597 586
f 598 586 587
f 588 475 463
f 588 599 475
f 475 598 474
f 475 599 598
f 599 588 589
f 599 589 600
f 602 601 590
f 602 590 591
f 594 468 480
f 594 480 604
f 603 593 594
f 603 594 604
f 605 480 481
f 605 604 480
f 604 595 594
f 604 605 595
f 606 481 482
f 606 605 481
f 596 485 472
f 596 608 485
f 609 608 596
f 609 596 597
f 610 600 601
f 610 601 611
f 606 482 492
f 606 492 612
f 613 492 493
f 613 612 492
f 494 613 493
f 494 614 613
f 495 614 494
f 495 615 614
f 497 616 496
f 497 617 616
f 618 497 498
f 618 617 497
f 608 500 485
f 608 620 500
f 500 619 499
f 500 620 619
f 620 607 619
f 620 608 607
f 621 501 500
f 621 500 620
f 626 612 613
f 626 613 627
f 628 627 613
f 628 613 614
f 615 495 508
f 615 508 629
f 616 509 496
f 616 631 509
f 631 616 617
f 631 617 632
f 618 498 511
f 618 511 633
f 632 617 618
f 632 618 633
f 619 512 499
f 619 634 512
f 512 633 511
f 512 634 633
f 635 620 500
f 635 500 513
f 621 514 501
f 621 636 514
f 635 621 620
f 635 636 621
f 637 622 623
f 637 623 638
f 518 517 641
f 518 641 642
f 643 624 625
f 643 625 644
f 646 521 520
f 646 520 645
f 647 522 521
f 647 521 646
f 629 508 523
f 629 523 648
f 523 522 647
f 523 647 648
f 648 630 629
f 648 649 630
f 631 524 509
f 631 650 524
f 525 524 650
f 525 650 651
f 650 631 632
f 650 632 651
f 652 526 525
f 652 525 651
f 653 635 513
f 653 513 527
f 654 514 636
f 654 528 514
f 528 653 527
f 528 654 653
f 654 635 653
f 654 636 635
f 655 639 640
f 655 640 656
f 641 517 533
f 641 533 657
f 642 534 518
f 642 658 534
f 534 657 533
f 534 658 657
f 657 642 641
f 657 658 642
f 661 645 520
f 661 520 536
f 536 535 660
f 536 660 661
f 660 644 645
f 660 645 661
f 662 645 661
f 662 646 645
f 663 648 647
f 663 664 648
f 664 649 648
f 664 665 649
f 668 526 652
f 668 537 526
f 667 652 651
f 667 668 652
f 672 542 541
f 672 541 671
f 673 658 659
f 673 659 674
f 660 535 546
f 660 546 675
f 676 546 547
f 676 675 546
f 678 666 677
f 678 667 666
f 668 548 537
f 668 679 548
f 678 668 667
f 678 679 668
f 680 549 548
f 680 548 679
f 550 549 680
f 550 680 681
f 551 550 681
f 551 681 682
f 681 669 670
f 681 670 682
f 683 552 551
f 683 551 682
f 671 541 553
f 671 553 684
f 672 554 542
f 672 685 554
f 554 684 553
f 554 685 684
f 684 672 671
f 684 685 672
f 687 556 555
f 687 555 686
f 688 674 675
f 688 675 689
f 676 547 559
f 676 559 690
f 690 559 558
f 690 558 689
f 690 689 675
f 690 675 676
f 691 552 683
f 691 562 552
f 563 562 691
f 563 691 692
f 692 684 685
f 692 685 693
f 566 565 694
f 566 694 695
f 686 555 567
f 686 567 696
f 696 567 566
f 696 566 695
f 687 568 556
f 687 697 568
f 697 686 696
f 697 687 686
f 699 689 558
f 699 558 570
f 700 563 692
f 700 571 563
f 572 571 700
f 572 700 701
f 700 692 693
f 700 693 701
f 694 565 573
f 694 573 702
f 573 572 701
f 573 701 702
f 703 694 702
f 703 695 694
f 697 574 568
f 697 704 574
f 705 575 574
f 705 574 704
f 706 699 570
f 706 570 576
f 706 576 575
f 706 575 705
f 706 705 698
f 706 698 699
f 709 580 581
f 709 708 580
f 582 709 581
f 582 710 709
f 583 710 582
f 583 711 710
f 712 583 584
f 712 711 583
f 585 712 584
f 585 713 712
f 708 589 580
f 708 715 589
f 715 707 714
f 715 708 707
f 717 591 590
f 717 590 716
f 718 711 712
f 718 712 719
f 720 713 585
f 720 585 594
f 720 594 593
f 720 593 719
f 719 712 713
f 719 713 720
f 595 720 594
f 595 721 720
f 725 597 598
f 725 724 597
f 599 725 598
f 599 726 725
f 715 600 589
f 715 727 600
f 600 726 599
f 600 727 726
f 726 715 714
f 726 727 715
f 716 590 601
f 716 601 728
f 728 601 600
f 728 600 727
f 717 602 591
f 717 729 602
f 729 601 602
f 729 728 601
f 729 716 728
f 729 717 716
f 730 719 593
f 730 593 603
f 731 594 720
f 731 604 594
f 731 603 604
f 731 730 603
f 730 720 719
f 730 731 720
f 732 721 595
f 732 595 605
f 606 732 605
f 606 733 732
f 732 722 721
f 732 733 722
f 735 607 608
f 735 734 607
f 724 609 597
f 724 736 609
f 609 735 608
f 609 736 735
f 736 723 735
f 736 724 723
f 727 600 610
f 727 610 738
f 728 611 601
f 728 739 611
f 611 738 610
f 611 739 738
f 742 733 606
f 742 606 612
f 741 732 733
f 741 733 742
f 615 744 614
f 615 745 744
f 746 607 734
f 746 619 607
f 747 736 737
f 747 737 748
f 623 622 749
f 623 749 750
f 751 750 738
f 751 738 739
f 751 739 740
f 751 740 752
f 625 624 753
f 625 753 754
f 755 742 612
f 755 612 626
f 627 755 626
f 627 756 755
f 755 743 742
f 755 756 743
f 744 628 614
f 744 757 628
f 628 756 627
f 628 757 756
f 745 615 629
f 745 629 758
f 757 744 745
f 757 745 758
f 759 629 630
f 759 758 629
f 633 760 632
f 633 761 760
f 746 634 619
f 746 762 634
f 762 633 634
f 762 761 633
f 749 622 637
f 749 637 765
f 766 623 750
f 766 638 623
f 638 765 637
f 638 766 765
f 766 749 765
f 766 750 749
f 640 639 767
f 640 767 768
f 753 624 643
f 753 643 771
f 772 625 754
f 772 644 625
f 772 643 644
f 772 771 643
f 771 754 753
f 771 772 754
f 773 645 644
f 773 644 772
f 647 646 774
f 647 774 775
f 759 630 649
f 759 649 777
f 776 758 759
f 776 759 777
f 760 651 632
f 760 778 651
f 779 763 764
f 779 764 780
f 767 639 655
f 767 655 782
f 768 656 640
f 768 783 656
f 783 655 656
f 783 782 655
f 783 767 782
f 783 768 767
f 784 769 770
f 784 770 785
f 659 658 785
f 659 785 786
f 787 772 644
f 787 644 660
f 773 661 645
f 773 788 661
f 787 773 772
f 787 788 773
f 774 646 662
f 774 662 789
f 662 661 788
f 662 788 789
f 775 663 647
f 775 790 663
f 664 663 790
f 664 790 791
f 791 790 775
f 791 775 776
f 777 649 665
f 777 665 792
f 792 665 664
f 792 664 791
f 778 667 651
f 778 794 667
f 794 666 667
f 794 793 666
f 670 669 795
f 670 795 796
f 798 797 781
f 798 781 782
f 785 658 673
f 785 673 800
f 786 674 659
f 786 801 674
f 674 800 673
f 674 801 800
f 800 786 785
f 800 801 786
f 787 660 675
f 787 675 802
f 802 675 674
f 802 674 801
f 803 787 802
f 803 788 787
f 793 677 666
f 793 804 677
f 805 678 677
f 805 677 804
f 679 678 805
f 679 805 806
f 680 679 806
f 680 806 807
f 795 669 681
f 795 681 808
f 808 681 680
f 808 680 807
f 809 670 796
f 809 682 670
f 809 795 808
f 809 796 795
f 810 683 682
f 810 682 809
f 685 684 811
f 685 811 812
f 813 812 797
f 813 797 798
f 813 798 799
f 813 799 814
f 801 674 688
f 801 688 815
f 816 688 689
f 816 815 688
f 815 802 801
f 815 816 802
f 818 805 804
f 818 819 805
f 820 805 819
f 820 806 805
f 822 807 821
f 822 808 807
f 810 691 683
f 810 823 691
f 811 684 692
f 811 692 824
f 824 692 691
f 824 691 823
f 825 685 812
f 825 693 685
f 825 811 824
f 825 812 811
f 696 695 826
f 696 826 827
f 697 696 827
f 697 827 828
f 816 689 699
f 816 699 830
f 830 699 698
f 830 698 829
f 830 817 816
f 830 831 817
f 833 823 832
f 833 824 823
f 825 701 693
f 825 834 701
f 833 825 824
f 833 834 825
f 702 701 834
f 702 834 835
f 826 695 703
f 826 703 836
f 703 702 835
f 703 835 836
f 837 697 828
f 837 704 697
f 838 829 698
f 838 698 705
f 705 704 837
f 705 837 838
f 837 828 829
f 837 829 838
f 839 829 838
f 839 830 829
f 845 841 840
f 845 846 841
f 847 707 708
f 847 846 707
f 848 708 709
f 848 847 708
f 848 842 847
f 848 843 842
f 710 848 709
f 710 849 848
f 848 844 843
f 848 849 844
f 850 710 711
f 850 849 710
f 853 707 846
f 853 714 707
f 853 845 852
f 853 846 845
f 850 711 718
f 850 718 855
f 854 849 850
f 854 850 855
f 856 718 719
f 856 855 718
f 857 719 720
f 857 856 719
f 721 857 720
f 721 858 857
f 722 858 721
f 722 859 858
f 724 860 723
f 724 861 860
f 862 724 725
f 862 861 724
f 862 851 861
f 862 852 851
f 863 714 853
f 863 726 714
f 863 725 726
f 863 862 725
f 862 853 852
f 862 863 853
f 865 728 727
f 865 727 864
f 866 856 857
f 866 857 867
f 868 867 857
f 868 857 858
f 869 859 722
f 869 722 733
f 869 733 732
f 869 732 868
f 869 868 858
f 869 858 859
f 872 723 860
f 872 735 723
f 872 734 735
f 872 871 734
f 873 872 860
f 873 860 861
f 874 737 736
f 874 736 873
f 864 727 738
f 864 738 875
f 865 739 728
f 865 876 739
f 875 865 864
f 875 876 865
f 740 739 876
f 740 876 877
f 878 866 867
f 878 867 879
f 868 732 741
f 868 741 880
f 880 879 867
f 880 867 868
f 881 741 742
f 881 880 741
f 743 881 742
f 743 882 881
f 871 746 734
f 871 884 746
f 884 870 883
f 884 871 870
f 885 873 736
f 885 736 747
f 874 748 737
f 874 886 748
f 748 885 747
f 748 886 885
f 885 874 873
f 885 886 874
f 875 738 750
f 875 750 888
f 751 888 750
f 751 889 888
f 889 875 888
f 889 876 875
f 877 752 740
f 877 890 752
f 752 889 751
f 752 890 889
f 889 877 876
f 889 890 877
f 891 879 880
f 891 880 892
f 892 880 881
f 892 881 893
f 882 743 756
f 882 756 894
f 893 881 882
f 893 882 894
f 895 756 757
f 895 894 756
f 896 757 758
f 896 895 757
f 761 897 760
f 761 898 897
f 884 762 746
f 884 899 762
f 762 898 761
f 762 899 898
f 764 763 900
f 764 900 901
f 903 902 887
f 903 887 888
f 904 903 888
f 904 888 889
f 905 904 889
f 905 889 890
f 770 769 906
f 770 906 907
f 910 775 774
f 910 774 909
f 909 894 895
f 909 895 910
f 896 758 776
f 896 776 911
f 776 775 910
f 776 910 911
f 910 895 896
f 910 896 911
f 912 776 777
f 912 911 776
f 897 778 760
f 897 913 778
f 900 763 779
f 900 779 914
f 901 780 764
f 901 915 780
f 780 914 779
f 780 915 914
f 914 901 900
f 914 915 901
f 917 782 781
f 917 781 916
f 917 916 903
f 917 903 904
f 906 769 784
f 906 784 918
f 919 770 907
f 919 785 770
f 919 784 785
f 919 918 784
f 918 907 906
f 918 919 907
f 922 909 774
f 922 774 789
f 922 789 788
f 922 788 921
f 922 921 908
f 922 908 909
f 923 776 911
f 923 791 776
f 912 777 792
f 912 792 924
f 792 791 923
f 792 923 924
f 923 911 912
f 923 912 924
f 913 794 778
f 913 926 794
f 794 925 793
f 794 926 925
f 927 916 781
f 927 781 797
f 917 798 782
f 917 928 798
f 927 917 916
f 927 928 917
f 929 799 798
f 929 798 928
f 921 788 803
f 921 803 931
f 803 802 930
f 803 930 931
f 931 930 920
f 931 920 921
f 925 804 793
f 925 932 804
f 933 932 925
f 933 925 926
f 807 806 934
f 807 934 935
f 937 809 808
f 937 808 936
f 810 809 937
f 810 937 938
f 939 927 797
f 939 797 812
f 813 939 812
f 813 940 939
f 939 928 927
f 939 940 928
f 929 814 799
f 929 941 814
f 814 940 813
f 814 941 940
f 940 929 928
f 940 941 929
f 944 930 802
f 944 802 816
f 817 944 816
f 817 945 944
f 932 818 804
f 932 946 818
f 819 818 946
f 819 946 947
f 947 946 932
f 947 932 933
f 934 806 820
f 934 820 948
f 820 819 947
f 820 947 948
f 948 947 933
f 948 933 934
f 935 821 807
f 935 949 821
f 936 808 822
f 936 822 950
f 822 821 949
f 822 949 950
f 949 935 936
f 949 936 950
f 951 936 950
f 951 937 936
f 938 823 810
f 938 952 823
f 951 938 937
f 951 952 938
f 955 827 826
f 955 826 954
f 954 941 942
f 954 942 955
f 828 827 955
f 828 955 956
f 955 942 943
f 955 943 956
f 957 829 828
f 957 828 956
f 945 817 831
f 945 831 959
f 831 830 958
f 831 958 959
f 959 958 944
f 959 944 945
f 952 832 823
f 952 960 832
f 961 833 832
f 961 832 960
f 962 834 833
f 962 833 961
f 963 835 834
f 963 834 962
f 964 954 826
f 964 826 836
f 964 836 835
f 964 835 963
f 964 963 953
f 964 953 954
f 965 829 957
f 965 838 829
f 966 958 830
f 966 830 839
f 839 838 965
f 839 965 966
f 966 965 957
f 966 957 958
f 841 967 840
f 841 968 967
f 970 842 843
f 970 969 842
f 971 843 844
f 971 970 843
f 972 840 967
f 972 845 840
f 973 968 841
f 973 841 846
f 974 842 969
f 974 847 842
f 847 973 846
f 847 974 973
f 976 971 844
f 976 844 849
f 975 970 971
f 975 971 976
f 978 845 972
f 978 852 845
f 852 977 851
f 852 978 977
f 976 849 854
f 976 854 980
f 979 975 976
f 979 976 980
f 981 854 855
f 981 980 854
f 982 855 856
f 982 981 855
f 983 851 977
f 983 861 851
f 984 983 977
f 984 977 978
f 982 856 866
f 982 866 989
f 991 870 871
f 991 990 870
f 992 871 872
f 992 991 871
f 993 861 983
f 993 873 861
f 993 872 873
f 993 992 872
f 994 993 983
f 994 983 984
f 994 984 985
f 994 985 995
f 996 986 987
f 996 987 997
f 997 987 988
f 997 988 998
f 989 866 878
f 989 878 999
f 1000 878 879
f 1000 999 878
f 990 883 870
f 990 1002 883
f 1003 884 883
f 1003 883 1002
f 1003 1002 990
f 1003 990 991
f 1007 888 887
f 1007 887 1006
f 1008 889 888
f 1008 888 1007
f 890 889 1008
f 890 1008 1009
f 1000 879 891
f 1000 891 1011
f 1010 999 1000
f 1010 1000 1011
f 1012 891 892
f 1012 1011 891
f 1013 892 893
f 1013 1012 892
f 1014 893 894
f 1014 1013 893
f 1016 897 898
f 1016 1015 897
f 1016 1001 1015
f 1016 1002 1001
f 1003 899 884
f 1003 1017 899
f 899 1016 898
f 899 1017 1016
f 1016 1003 1002
f 1016 1017 1003
f 1017 1003 1004
f 1017 1004 1018
f 1019 1018 1004
f 1019 1004 1005
f 1006 887 902
f 1006 902 1020
f 903 1020 902
f 903 1021 1020
f 1020 1007 1006
f 1020 1021 1007
f 1022 1007 1021
f 1022 1008 1007
f 1009 905 890
f 1009 1023 905
f 1023 904 905
f 1023 1022 904
f 1023 1008 1022
f 1023 1009 1008
f 1025 1024 1010
f 1025 1010 1011
f 1025 1011 1012
f 1025 1012 1026
f 1027 1026 1012
f 1027 1012 1013
f 1028 1014 894
f 1028 894 909
f 1028 909 908
f 1028 908 1027
f 1028 1027 1013
f 1028 1013 1014
f 1029 897 1015
f 1029 913 897
f 1030 1017 1018
f 1030 1018 1031
f 1032 1021 903
f 1032 903 916
f 1033 904 1022
f 1033 917 904
f 917 1032 916
f 917 1033 1032
f 1033 1021 1032
f 1033 1022 1021
f 1035 1027 908
f 1035 908 921
f 1035 921 920
f 1035 920 1034
f 1035 1034 1026
f 1035 1026 1027
f 1036 913 1029
f 1036 926 913
f 1040 1034 920
f 1040 920 930
f 1036 933 926
f 1036 1041 933
f 1042 934 933
f 1042 933 1041
f 935 934 1042
f 935 1042 1043
f 1044 936 935
f 1044 935 1043
f 1043 1037 1038
f 1043 1038 1044
f 942 941 1045
f 942 1045 1046
f 1047 943 942
f 1047 942 1046
f 1049 1040 930
f 1049 930 944
f 1049 1048 1039
f 1049 1039 1040
f 1050 936 1044
f 1050 950 936
f 951 950 1050
f 951 1050 1051
f 952 951 1051
f 952 1051 1052
f 1045 941 954
f 1045 954 1056
f 1056 954 953
f 1056 953 1055
f 1058 943 1047
f 1058 956 943
f 1057 1047 1046
f 1057 1058 1047
f 1059 957 956
f 1059 956 1058
f 1060 1049 944
f 1060 944 958
f 1060 958 957
f 1060 957 1059
f 1060 1059 1048
f 1060 1048 1049
f 1052 960 952
f 1052 1061 960
f 961 960 1061
f 961 1061 1062
f 1061 1052 1053
f 1061 1053 1062
f 962 961 1062
f 962 1062 1063
f 1063 1062 1053
f 1063 1053 1054
f 1064 1055 953
f 1064 953 963
f 1064 963 962
f 1064 962 1063
f 1064 1063 1054
f 1064 1054 1055
f 968 1065 967
f 968 1066 1065
f 1068 969 970
f 1068 1067 969
f 1065 972 967
f 1065 1069 972
f 1066 968 973
f 1066 973 1070
f 1069 1065 1066
f 1069 1066 1070
f 1067 974 969
f 1067 1071 974
f 1071 973 974
f 1071 1070 973
f 1068 970 975
f 1068 975 1072
f 1071 1067 1068
f 1071 1068 1072
f 1074 972 1069
f 1074 978 972
f 1076 1075 1070
f 1076 1070 1071
f 1077 1072 975
f 1077 975 979
f 980 1077 979
f 980 1078 1077
f 1077 1073 1072
f 1077 1078 1073
f 1079 980 981
f 1079 1078 980
f 1080 981 982
f 1080 1079 981
f 1074 984 978
f 1074 1085 984
f 985 984 1085
f 985 1085 1086
f 987 986 1087
f 987 1087 1088
f 988 987 1088
f 988 1088 1089
f 1089 1078 1079
f 1089 1079 1090
f 1080 982 989
f 1080 989 1091
f 1091 1090 1079
f 1091 1079 1080
f 1093 1081 1092
f 1093 1082 1081
f 992 1093 991
f 992 1094 1093
f 1094 1082 1093
f 1094 1083 1082
f 993 1094 992
f 993 1095 1094
f 1095 1083 1094
f 1095 1084 1083
f 994 1095 993
f 994 1096 1095
f 1096 1084 1095
f 1096 1085 1084
f 1086 995 985
f 1086 1097 995
f 995 1096 994
f 995 1097 1096
f 1087 986 996
f 1087 996 1098
f 997 1098 996
f 997 1099 1098
f 1098 1088 1087
f 1098 1099 1088
f 1100 988 1089
f 1100 998 988
f 998 1099 997
f 998 1100 1099
f 1091 989 999
f 1091 999 1102
f 1101 1090 1091
f 1101 1091 1102
f 1104 1001 1002
f 1104 1103 1001
f 1105 991 1093
f 1105 1003 991
f 1105 1002 1003
f 1105 1104 1002
f 1104 1093 1092
f 1104 1105 1093
f 1004 1003 1105
f 1004 1105 1106
f 1005 1004 1106
f 1005 1106 1107
f 1102 999 1010
f 1102 1010 1109
f 1108 1101 1102
f 1108 1102 1109
f 1110 1001 1103
f 1110 1015 1001
f 1105 1003 1017
f 1105 1017 1112
f 1112 1106 1105
f 1112 1113 1106
f 1107 1019 1005
f 1107 1114 1019
f 1019 1113 1018
f 1019 1114 1113
f 1114 1106 1113
f 1114 1107 1106
f 1109 1010 1024
f 1109 1024 1116
f 1115 1108 1109
f 1115 1109 1116
f 1117 1024 1025
f 1117 1116 1024
f 1118 1025 1026
f 1118 1117 1025
f 1119 1015 1110
f 1119 1029 1015
f 1119 1110 1111
f 1119 1111 1120
f 1112 1017 1030
f 1112 1030 1121
f 1113 1031 1018
f 1113 1122 1031
f 1031 1121 1030
f 1031 1122 1121
f 1122 1112 1121
f 1122 1113 1112
f 1118 1026 1034
f 1118 1034 1124
f 1123 1117 1118
f 1123 1118 1124
f 1125 1029 1119
f 1125 1036 1029
f 1126 1125 1119
f 1126 1119 1120
f 1038 1037 1127
f 1038 1127 1128
f 1124 1034 1040
f 1124 1040 1133
f 1133 1040 1039
f 1133 1039 1132
f 1134 1036 1125
f 1134 1041 1036
f 1042 1041 1134
f 1042 1134 1135
f 1134 1125 1126
f 1134 1126 1135
f 1136 1127 1037
f 1136 1037 1043
f 1043 1042 1135
f 1043 1135 1136
f 1128 1044 1038
f 1128 1137 1044
f 1136 1128 1127
f 1136 1137 1128
f 1143 1046 1045
f 1143 1045 1142
f 1143 1142 1129
f 1143 1129 1130
f 1143 1130 1131
f 1143 1131 1144
f 1145 1132 1039
f 1145 1039 1048
f 1146 1044 1137
f 1146 1050 1044
f 1051 1050 1146
f 1051 1146 1147
f 1146 1137 1138
f 1146 1138 1147
f 1148 1052 1051
f 1148 1051 1147
f 1147 1138 1139
f 1147 1139 1148
f 1053 1052 1148
f 1053 1148 1149
f 1054 1053 1149
f 1054 1149 1150
f 1151 1055 1054
f 1151 1054 1150
f 1151 1150 1140
f 1151 1140 1141
f 1152 1142 1045
f 1152 1045 1056
f 1152 1056 1055
f 1152 1055 1151
f 1152 1151 1141
f 1152 1141 1142
f 1153 1046 1143
f 1153 1057 1046
f 1154 1058 1057
f 1154 1057 1153
f 1153 1143 1144
f 1153 1144 1154
f 1155 1145 1048
f 1155 1048 1059
f 1155 1059 1058
f 1155 1058 1154
f 1155 1154 1144
f 1155 1144 1145
f 1157 1069 1070
f 1157 1156 1069
f 1072 1158 1071
f 1072 1159 1158
f 1073 1159 1072
f 1073 1160 1159
f 1156 1074 1069
f 1156 1163 1074
f 1157 1070 1075
f 1157 1075 1164
f 1163 1156 1157
f 1163 1157 1164
f 1158 1076 1071
f 1158 1165 1076
f 1165 1075 1076
f 1165 1164 1075
f 1166 1165 1158
f 1166 1158 1159
f 1160 1073 1078
f 1160 1078 1167
f 1166 1159 1160
f 1166 1160 1167
f 1082 1168 1081
f 1082 1169 1168
f 1170 1082 1083
f 1170 1169 1082
f 1169 1162 1161
f 1169 1170 1162
f 1171 1083 1084
f 1171 1170 1083
f 1172 1074 1163
f 1172 1085 1074
f 1172 1084 1085
f 1172 1171 1084
f 1086 1085 1172
f 1086 1172 1173
f 1174 1173 1164
f 1174 1164 1165
f 1174 1165 1166
f 1174 1166 1175
f 1167 1078 1089
f 1167 1089 1176
f 1089 1088 1175
f 1089 1175 1176
f 1090 1176 1089
f 1090 1177 1176
f 1179 1081 1168
f 1179 1092 1081
f 1181 1170 1171
f 1181 1171 1182
f 1183 1172 1085
f 1183 1085 1096
f 1184 1086 1173
f 1184 1097 1086
f 1097 1183 1096
f 1097 1184 1183
f 1184 1172 1183
f 1184 1173 1172
f 1185 1175 1088
f 1185 1088 1099
f 1186 1089 1176
f 1186 1100 1089
f 1100 1185 1099
f 1100 1186 1185
f 1177 1090 1101
f 1177 1101 1187
f 1187 1178 1177
f 1187 1188 1178
f 1190 1092 1179
f 1190 1104 1092
f 1104 1189 1103
f 1104 1190 1189
f 1190 1179 1180
f 1190 1180 1191
f 1192 1187 1101
f 1192 1101 1108
f 1193 1103 1189
f 1193 1110 1103
f 1111 1110 1193
f 1111 1193 1194
f 1193 1189 1190
f 1193 1190 1194
f 1195 1194 1190
f 1195 1190 1191
f 1192 1108 1115
f 1192 1115 1197
f 1198 1115 1116
f 1198 1197 1115
f 1199 1116 1117
f 1199 1198 1116
f 1200 1111 1194
f 1200 1120 1111
f 1206 1205 1196
f 1206 1196 1197
f 1206 1197 1198
f 1206 1198 1207
f 1199 1117 1123
f 1199 1123 1208
f 1207 1198 1199
f 1207 1199 1208
f 1209 1123 1124
f 1209 1208 1123
f 1200 1126 1120
f 1200 1210 1126
f 1212 1201 1202
f 1212 1202 1213
f 1215 1203 1204
f 1215 1204 1216
f 1219 1130 1129
f 1219 1129 1218
f 1219 1218 1205
f 1219 1205 1206
f 1131 1130 1219
f 1131 1219 1220
f 1220 1219 1206
f 1220 1206 1207
f 1209 1124 1133
f 1209 1133 1222
f 1222 1133 1132
f 1222 1132 1221
f 1221 1208 1209
f 1221 1209 1222
f 1223 1126 1210
f 1223 1135 1126
f 1136 1135 1223
f 1136 1223 1224
f 1223 1210 1211
f 1223 1211 1224
f 1137 1136 1224
f 1137 1224 1225
f 1138 1137 1225
f 1138 1225 1226
f 1139 1138 1226
f 1139 1226 1227
f 1228 1227 1214
f 1228 1214 1215
f 1228 1215 1216
f 1228 1216 1229
f 1230 1141 1140
f 1230 1140 1229
f 1229 1216 1217
f 1229 1217 1230
f 1231 1218 1129
f 1231 1129 1142
f 1231 1142 1141
f 1231 1141 1230
f 1231 1230 1217
f 1231 1217 1218
f 1232 1131 1220
f 1232 1144 1131
f 1233 1221 1132
f 1233 1132 1145
f 1233 1145 1144
f 1233 1144 1232
f 1234 1225 1224
f 1234 1235 1225
f 1236 1139 1227
f 1236 1148 1139
f 1149 1148 1236
f 1149 1236 1237
f 1236 1227 1228
f 1236 1228 1237
f 1238 1229 1140
f 1238 1140 1150
f 1238 1150 1149
f 1238 1149 1237
f 1238 1237 1228
f 1238 1228 1229
f 1162 1239 1161
f 1162 1240 1239
f 1243 1163 1164
f 1243 1242 1163
f 1245 1166 1167
f 1245 1244 1166
f 1247 1161 1239
f 1247 1169 1161
f 1169 1246 1168
f 1169 1247 1246
f 1248 1240 1162
f 1248 1162 1170
f 1248 1241 1240
f 1248 1249 1241
f 1250 1163 1242
f 1250 1172 1163
f 1250 1171 1172
f 1250 1249 1171
f 1250 1241 1249
f 1250 1242 1241
f 1251 1243 1164
f 1251 1164 1173
f 1174 1251 1173
f 1174 1252 1251
f 1244 1175 1166
f 1244 1253 1175
f 1253 1174 1175
f 1253 1252 1174
f 1245 1167 1176
f 1245 1176 1254
f 1254 1176 1175
f 1254 1175 1253
f 1253 1244 1245
f 1253 1245 1254
f 1177 1254 1176
f 1177 1255 1254
f 1178 1255 1177
f 1178 1256 1255
f 1246 1179 1168
f 1246 1257 1179
f 1180 1179 1257
f 1180 1257 1258
f 1248 1170 1181
f 1248 1181 1259
f 1249 1182 1171
f 1249 1260 1182
f 1260 1181 1182
f 1260 1259 1181
f 1260 1248 1259
f 1260 1249 1248
f 1261 1253 1175
f 1261 1175 1185
f 1262 1176 1254
f 1262 1186 1176
f 1186 1261 1185
f 1186 1262 1261
f 1261 1254 1253
f 1261 1262 1254
f 1256 1178 1188
f 1256 1188 1264
f 1188 1187 1263
f 1188 1263 1264
f 1264 1263 1255
f 1264 1255 1256
f 1258 1191 1180
f 1258 1266 1191
f 1265 1258 1257
f 1265 1266 1258
f 1268 1267 1259
f 1268 1259 1260
f 1271 1263 1187
f 1271 1187 1192
f 1266 1195 1191
f 1266 1273 1195
f 1195 1272 1194
f 1195 1273 1272
f 1272 1266 1265
f 1272 1273 1266
f 1275 1274 1269
f 1275 1269 1270
f 1271 1192 1197
f 1271 1197 1279
f 1279 1197 1196
f 1279 1196 1278
f 1272 1200 1194
f 1272 1280 1200
f 1281 1280 1272
f 1281 1272 1273
f 1202 1201 1282
f 1202 1282 1283
f 1284 1274 1275
f 1284 1275 1285
f 1204 1203 1285
f 1204 1285 1286
f 1287 1286 1276
f 1287 1276 1277
f 1288 1278 1196
f 1288 1196 1205
f 1288 1287 1277
f 1288 1277 1278
f 1289 1278 1288
f 1289 1279 1278
f 1291 1207 1208
f 1291 1290 1207
f 1292 1200 1280
f 1292 1210 1200
f 1211 1210 1292
f 1211 1292 1293
f 1282 1201 1212
f 1282 1212 1294
f 1283 1213 1202
f 1283 1295 1213
f 1213 1294 1212
f 1213 1295 1294
f 1295 1282 1294
f 1295 1283 1282
f 1295 1283 1284
f 1295 1284 1296
f 1297 1285 1203
f 1297 1203 1215
f 1297 1215 1214
f 1297 1214 1296
f 1297 1296 1284
f 1297 1284 1285
f 1298 1204 1286
f 1298 1216 1204
f 1217 1216 1298
f 1217 1298 1299
f 1298 1286 1287
f 1298 1287 1299
f 1300 1288 1205
f 1300 1205 1218
f 1300 1218 1217
f 1300 1217 1299
f 1300 1299 1287
f 1300 1287 1288
f 1301 1207 1290
f 1301 1220 1207
f 1291 1208 1221
f 1291 1221 1302
f 1302 1301 1290
f 1302 1290 1291
f 1303 1211 1293
f 1303 1224 1211
f 1303 1293 1294
f 1303 1294 1304
f 1226 1225 1304
f 1226 1304 1305
f 1306 1296 1214
f 1306 1214 1227
f 1306 1227 1226
f 1306 1226 1305
f 1301 1232 1220
f 1301 1307 1232
f 1302 1221 1233
f 1302 1233 1308
f 1233 1232 1307
f 1233 1307 1308
f 1307 1301 1302
f 1307 1302 1308
f 1303 1234 1224
f 1303 1309 1234
f 1310 1304 1225
f 1310 1225 1235
f 1235 1234 1309
f 1235 1309 1310
f 1310 1309 1303
f 1310 1303 1304
f 1240 1313 1239
f 1240 1314 1313
f 1241 1314 1240
f 1241 1315 1314
f 1316 1241 1242
f 1316 1315 1241
f 1243 1316 1242
f 1243 1317 1316
f 1316 1312 1311
f 1316 1317 1312
f 1313 1247 1239
f 1313 1320 1247
f 1247 1319 1246
f 1247 1320 1319
f 1321 1317 1243
f 1321 1243 1251
f 1252 1321 1251
f 1252 1322 1321
f 1321 1318 1317
f 1321 1322 1318
f 1323 1252 1253
f 1323 1322 1252
f 1254 1323 1253
f 1254 1324 1323
f 1325 1254 1255
f 1325 1324 1254
f 1319 1257 1246
f 1319 1326 1257
f 1327 1326 1319
f 1327 1319 1320
f 1329 1260 1259
f 1329 1259 1328
f 1325 1255 1263
f 1325 1263 1332
f 1331 1324 1325
f 1331 1325 1332
f 1326 1265 1257
f 1326 1333 1265
f 1328 1259 1267
f 1328 1267 1335
f 1329 1268 1260
f 1329 1336 1268
f 1336 1267 1268
f 1336 1335 1267
f 1338 1270 1269
f 1338 1269 1337
f 1340 1330 1331
f 1340 1331 1341
f 1332 1263 1271
f 1332 1271 1342
f 1342 1341 1331
f 1342 1331 1332
f 1343 1265 1333
f 1343 1272 1265
f 1273 1272 1343
f 1273 1343 1344
f 1343 1333 1334
f 1343 1334 1344
f 1345 1344 1334
f 1345 1334 1335
f 1345 1335 1336
f 1345 1336 1346
f 1337 1269 1274
f 1337 1274 1347
f 1346 1336 1337
f 1346 1337 1347
f 1348 1270 1338
f 1348 1275 1270
f 1348 1338 1339
f 1348 1339 1349
f 1350 1277 1276
f 1350 1276 1349
f 1351 1278 1277
f 1351 1277 1350
f 1352 1342 1271
f 1352 1271 1279
f 1351 1341 1342
f 1351 1342 1352
f 1344 1281 1273
f 1344 1354 1281
f 1281 1353 1280
f 1281 1354 1353
f 1355 1354 1344
f 1355 1344 1345
f 1355 1345 1346
f 1355 1346 1356
f 1357 1347 1274
f 1357 1274 1284
f 1357 1284 1283
f 1357 1283 1356
f 1358 1275 1348
f 1358 1285 1275
f 1359 1349 1276
f 1359 1276 1286
f 1286 1285 1358
f 1286 1358 1359
f 1359 1358 1348
f 1359 1348 1349
f 1360 1278 1351
f 1360 1288 1278
f 1352 1279 1289
f 1352 1289 1361
f 1289 1288 1360
f 1289 1360 1361
f 1360 1351 1352
f 1360 1352 1361
f 1353 1292 1280
f 1353 1362 1292
f 1293 1292 1362
f 1293 1362 1363
f 1363 1362 1353
f 1363 1353 1354
f 1294 1293 1363
f 1294 1363 1364
f 1363 1354 1355
f 1363 1355 1364
f 1365 1356 1283
f 1365 1283 1295
f 1366 1295 1296
f 1366 1365 1295
f 1367 1294 1364
f 1367 1304 1294
f 1305 1304 1367
f 1305 1367 1368
f 1367 1364 1365
f 1367 1365 1368
f 1366 1296 1306
f 1366 1306 1369
f 1306 1305 1368
f 1306 1368 1369
f 1312 1370 1311
f 1312 1371 1370
f 1314 1372 1313
f 1314 1373 1372
f 1374 1314 1315
f 1374 1373 1314
f 1370 1316 1311
f 1370 1375 1316
f 1375 1315 1316
f 1375 1374 1315
f 1376 1371 1312
f 1376 1312 1317
f 1376 1375 1370
f 1376 1370 1371
f 1318 1376 1317
f 1318 1377 1376
f 1378 1313 1372
f 1378 1320 1313
f 1379 1378 1372
f 1379 1372 1373
f 1379 1373 1374
f 1379 1374 1380
f 1381 1380 1374
f 1381 1374 1375
f 1382 1381 1375
f 1382 1375 1376
f 1377 1318 1322
f 1377 1322 1383
f 1382 1376 1377
f 1382 1377 1383
f 1323 1383 1322
f 1323 1384 1383
f 1385 1323 1324
f 1385 1384 1323
f 1378 1327 1320
f 1378 1387 1327
f 1327 1386 1326
f 1327 1387 1386
f 1388 1387 1378
f 1388 1378 1379
f 1329 1328 1388
f 1329 1388 1389
f 1389 1388 1379
f 1389 1379 1380
f 1390 1383 1384
f 1390 1384 1391
f 1385 1324 1331
f 1385 1331 1392
f 1392 1331 1330
f 1392 1330 1391
f 1391 1384 1385
f 1391 1385 1392
f 1386 1333 1326
f 1386 1393 1333
f 1334 1333 1393
f 1334 1393 1394
f 1394 1393 1386
f 1394 1386 1387
f 1395 1388 1328
f 1395 1328 1335
f 1395 1335 1334
f 1395 1334 1394
f 1395 1394 1387
f 1395 1387 1388
f 1396 1329 1389
f 1396 1336 1329
f 1337 1336 1396
f 1337 1396 1397
f 1398 1338 1337
f 1398 1337 1397
f 1339 1338 1398
f 1339 1398 1399
f 1400 1391 1330
f 1400 1330 1340
f 1341 1400 1340
f 1341 1401 1400
f 1400 1392 1391
f 1400 1401 1392
f 1403 1346 1347
f 1403 1402 1346
f 1404 1339 1399
f 1404 1349 1339
f 1350 1349 1404
f 1350 1404 1405
f 1406 1401 1341
f 1406 1341 1351
f 1406 1351 1350
f 1406 1350 1405
f 1402 1356 1346
f 1402 1408 1356
f 1356 1407 1355
f 1356 1408 1407
f 1403 1347 1357
f 1403 1357 1409
f 1409 1357 1356
f 1409 1356 1408
f 1409 1408 1402
f 1409 1402 1403
f 1410 1355 1407
f 1410 1364 1355
f 1411 1408 1356
f 1411 1356 1365
f 1365 1364 1410
f 1365 1410 1411
f 1410 1407 1408
f 1410 1408 1411
f 1412 1365 1366
f 1412 1411 1365
f 1413 1365 1411
f 1413 1368 1365
f 1414 1412 1366
f 1414 1366 1369
f 1369 1368 1413
f 1369 1413 1414
f 1413 1411 1412
f 1413 1412 1414
f 1381 1415 1380
f 1381 1416 1415
f 1382 1416 1381
f 1382 1417 1416
f 1418 1382 1383
f 1418 1417 1382
f 1415 1389 1380
f 1415 1419 1389
f 1420 1419 1415
f 1420 1415 1416
f 1420 1416 1417
f 1420 1417 1421
f 1418 1383 1390
f 1418 1390 1422
f 1421 1417 1418
f 1421 1418 1422
f 1423 1390 1391
f 1423 1422 1390
f 1424 1391 1392
f 1424 1423 1391
f 1419 1396 1389
f 1419 1425 1396
f 1397 1396 1425
f 1397 1425 1426
f 1425 1419 1420
f 1425 1420 1426
f 1427 1398 1397
f 1427 1397 1426
f 1426 1420 1421
f 1426 1421 1427
f 1399 1398 1427
f 1399 1427 1428
f 1427 1421 1422
f 1427 1422 1428
f 1428 1422 1423
f 1428 1423 1429
f 1424 1392 1401
f 1424 1401 1430
f 1429 1423 1424
f 1429 1424 1430
f 1431 1399 1428
f 1431 1404 1399
f 1405 1404 1431
f 1405 1431 1432
f 1431 1428 1429
f 1431 1429 1432
f 1433 1430 1401
f 1433 1401 1406
f 1433 1406 1405
f 1433 1405 1432
f 1433 1432 1429
f 1433 1429 1430
