# parsimony mesh: eg12712_monomer (source /Users/eranagmon/code/v2e-abund/workspace/studies/ecoli-3d/viz/3d/structures/eg12712_monomer.pdb)
# atoms: 1358  voxel: 4 Å  verts: 637  tris: 1300
v -3.3926 19.6891 -19.1369
v -2.0027 19.6891 -19.1369
v -3.5708 21.9534 -19.2474
v -1.8190 21.9534 -19.2474
v -2.9421 24.1225 -19.0818
v -1.9963 24.1225 -19.0818
v -2.5706 -24.1299 -14.8922
v -0.3604 -24.2647 -15.0894
v 1.8325 -24.2541 -15.1159
v -2.5706 -23.8940 -14.8922
v -0.2602 -22.3551 -15.2714
v 2.2795 -22.0466 -15.3368
v -2.9744 -16.4495 -14.9924
v -0.2874 -17.8713 -15.1072
v 3.7593 -17.8421 -15.0728
v 5.8922 -16.3911 -14.9236
v -2.9744 -15.5864 -14.9924
v -0.2194 -14.0835 -14.9717
v 3.7674 -14.0365 -14.9373
v 5.8922 -15.4924 -14.9236
v 1.2760 -11.7342 -14.9509
v 3.6230 -10.4191 -15.1769
v 6.1074 -9.1040 -15.4029
v 4.8529 -6.0466 -15.4212
v 6.3137 -6.0466 -15.4212
v 5.3004 -3.7120 -15.0476
v 6.0705 -3.7120 -15.0476
v -14.4790 11.7994 -14.9345
v -12.3604 11.1940 -15.0303
v -10.0233 11.0949 -14.9947
v -14.4504 13.9534 -14.9101
v -12.7591 13.7262 -14.9916
v -10.0233 12.2413 -14.9947
v -14.3618 15.9544 -14.8345
v -14.3582 15.9544 -14.8345
v -6.9455 19.2880 -16.0091
v -4.5798 18.7144 -17.1388
v -0.5458 18.5723 -16.5671
v 3.6396 19.1604 -15.1194
v 5.7697 19.7984 -14.9918
v -6.9455 20.7811 -16.0091
v -5.4076 22.0500 -17.1388
v 0.1810 21.9534 -17.5331
v 3.6396 21.9534 -15.6897
v 5.7608 21.9534 -14.9899
v -3.3953 24.5660 -16.8333
v -0.5419 24.7523 -16.8594
v 3.6396 24.3660 -15.4036
v 5.6711 23.9887 -14.8835
v -10.6943 -28.4831 -11.0820
v -9.5696 -28.4831 -11.0820
v -10.6704 -26.0466 -11.0773
v -8.2860 -26.2283 -11.5635
v -4.0865 -24.9257 -12.9683
v -0.1154 -24.4685 -12.6817
v 1.8325 -24.2541 -13.9140
v -10.4398 -23.8716 -10.9100
v -8.2406 -22.3416 -11.6029
v -4.0865 -22.3551 -13.6017
v -0.0727 -22.5254 -12.7443
v 2.8493 -22.3127 -12.6817
v -7.0014 -18.0466 -11.6749
v -4.3288 -17.8883 -13.5514
v -0.2874 -17.8713 -14.3545
v 3.9549 -18.0762 -13.5338
v 6.7589 -17.1635 -12.8333
v -6.7481 -15.6169 -11.6411
v -4.3288 -14.9734 -12.9180
v -0.3418 -13.9787 -13.5338
v 3.7674 -14.0365 -14.4691
v 7.7191 -14.3274 -12.7376
v 9.9348 -13.1623 -11.0047
v 0.6879 -11.1768 -12.8333
v 3.5689 -10.2885 -13.5350
v 7.5203 -10.2810 -13.3725
v 10.1947 -10.0466 -11.2795
v 1.2269 -4.6628 -11.1823
v 2.9313 -6.0163 -12.6427
v 8.3137 -6.0466 -13.4190
v 10.1622 -6.0466 -11.4190
v -2.4795 -0.3278 -10.9946
v -0.2081 -1.8153 -11.5594
v 3.8361 -2.2458 -13.3964
v 7.4981 -2.2458 -13.1935
v 10.4512 -2.0466 -11.3663
v -2.4795 0.1284 -10.9946
v -0.0583 1.6584 -11.4261
v 3.5471 2.1134 -11.6631
v 7.6867 2.1134 -11.4833
v 11.7377 1.7910 -11.3743
v 14.0462 3.0161 -11.2080
v -10.3897 7.9388 -11.0154
v -8.3604 7.8793 -11.0688
v -6.1379 7.8692 -10.9653
v 1.4764 4.1180 -10.9602
v 3.8389 5.8406 -10.9985
v 7.6867 6.1193 -11.5165
v 11.6396 5.9534 -11.8977
v 14.0209 5.9534 -11.1965
v -14.8541 11.4687 -12.8333
v -11.9780 9.4506 -12.5426
v -8.5582 9.8383 -13.0042
v -5.4416 9.9534 -11.4104
v 5.5258 8.2217 -11.0369
v 7.6396 9.0692 -11.5570
v 11.6396 8.9528 -11.4865
v 13.7414 8.0665 -10.9428
v -14.8948 13.9534 -12.8333
v -11.6915 14.9080 -13.6079
v -8.5582 13.7262 -12.9825
v -4.1589 13.8689 -11.8676
v -1.5843 15.1460 -11.7499
v -14.4011 15.9876 -12.8333
v -12.7591 16.1723 -12.4981
v -8.4913 17.7804 -12.3055
v -4.3604 16.6029 -13.6481
v -0.2948 16.5764 -12.9833
v 3.6396 18.1756 -12.8333
v 5.8673 19.5454 -12.8333
v -7.5567 21.5448 -12.8333
v -5.9284 23.5448 -12.8333
v 5.2190 23.0804 -12.0324
v 5.8407 21.8296 -13.1528
v -4.3026 25.9420 -12.8698
v -0.3604 26.8252 -13.6497
v 3.6357 25.5618 -12.9467
v 5.6711 23.9887 -14.6991
v -3.5069 28.6051 -11.5609
v -0.3604 28.7234 -11.6497
v 2.0523 28.3283 -11.1943
v -10.6940 -28.4721 -8.8333
v -9.4576 -28.4721 -8.8333
v -11.1285 -26.0466 -8.8333
v -7.4576 -27.4427 -8.8333
v -4.3604 -25.9739 -8.8333
v -1.0729 -24.5778 -8.8333
v -10.9352 -22.3416 -8.8042
v -9.4941 -21.2049 -10.1180
v 0.9271 -23.3684 -8.8333
v 3.9373 -21.3381 -9.0346
v 6.1451 -20.4367 -7.8354
v -10.7390 -19.5496 -7.4514
v -8.6950 -18.1484 -8.8042
v 5.4692 -19.8579 -10.5021
v 7.8456 -18.3212 -9.2881
v 10.9633 -16.7844 -8.0742
v -6.9284 -15.5121 -8.8333
v -4.1277 -13.4797 -8.8506
v -1.9324 -12.4811 -10.1954
v 9.5461 -15.8290 -10.7408
v 11.7824 -14.5966 -8.9949
v 14.0042 -13.3643 -7.2489
v -2.8400 -10.0466 -7.5477
v -0.5036 -9.9382 -9.4807
v 2.1746 -8.5326 -10.2931
v 12.1280 -10.1627 -8.6827
v 14.0042 -11.5734 -7.2489
v -3.0240 -6.0466 -7.4009
v -0.2081 -6.0163 -9.3632
v 2.1746 -7.3295 -10.2931
v 11.1326 -6.0466 -8.8333
v -2.9166 -1.8153 -8.7332
v -1.4398 -2.9945 -9.9997
v 12.2209 -1.8694 -8.9290
v 13.9859 -0.4180 -7.6595
v -2.6651 1.6584 -8.4822
v -1.1902 2.7951 -9.5815
v 4.8188 3.5534 -10.3414
v 6.3848 3.5534 -10.3414
v 13.1365 0.3494 -10.3262
v 14.3781 1.7910 -8.9290
v -10.4982 7.8803 -8.8333
v -8.3604 7.6509 -8.8333
v -4.3185 6.2724 -8.0111
v -0.2122 5.5608 -8.3650
v 3.8389 5.8406 -10.0783
v 6.3848 4.8966 -10.3414
v 14.9660 5.9534 -8.8333
v -14.8420 11.4872 -8.8333
v -12.4982 9.4872 -8.8333
v -3.6373 9.7570 -9.0059
v -0.4847 9.7570 -7.8404
v 3.9713 9.7144 -9.3655
v 7.6396 11.0692 -10.3487
v 11.9343 11.0523 -9.1480
v 14.3026 8.9125 -8.8333
v -14.7775 13.7397 -9.1071
v -13.9389 14.9305 -7.9563
v -2.6913 12.4793 -10.4543
v -0.2948 13.8689 -9.7936
v 3.6396 13.9534 -8.9238
v 7.6396 13.9534 -9.6032
v 10.8251 13.9534 -8.4973
v -14.4133 15.9980 -10.6229
v -12.5075 16.7335 -9.1071
v -9.1806 18.8950 -8.8333
v 1.0824 16.3626 -10.4037
v 4.4105 18.1639 -8.8008
v 6.8568 18.1917 -8.8538
v 10.0624 16.4274 -7.8609
v -7.1806 20.9499 -8.8333
v -5.7639 22.9499 -8.8333
v 5.1335 21.8296 -8.6584
v 5.8131 20.4138 -9.8751
v -4.9129 25.9534 -8.8333
v 3.9279 25.9534 -8.8333
v -3.5094 28.5910 -8.8333
v -0.3604 29.4597 -8.8333
v 2.4097 28.8221 -8.8333
v -10.4714 -28.1774 -6.7284
v -9.9475 -28.1774 -6.7284
v 5.0013 -28.3429 -3.1837
v 5.9734 -28.3429 -3.1837
v -10.8186 -26.0466 -6.1773
v -8.4468 -25.9746 -5.0626
v -4.2169 -24.9377 -4.7098
v -0.3406 -24.3604 -4.5885
v 3.6566 -25.8457 -3.6023
v 6.3707 -26.0466 -3.5074
v -10.9374 -21.8129 -4.7714
v -9.6128 -22.9904 -3.3968
v -2.7879 -23.7642 -3.2941
v -0.3406 -23.5648 -4.5885
v 3.6396 -22.8283 -5.5319
v 7.5462 -21.8114 -4.6942
v 10.0458 -20.5195 -3.3399
v -10.7067 -19.5648 -4.8333
v -8.6525 -17.5648 -4.8333
v 8.8118 -19.4511 -6.0065
v 11.8379 -18.1189 -5.0832
v 15.6396 -16.7959 -3.9968
v 17.7551 -16.3055 -3.0581
v -6.6525 -15.8205 -4.8333
v -4.6482 -13.8205 -4.8333
v 13.6300 -16.0310 -6.8265
v 15.4583 -14.4372 -5.5951
v 17.8805 -14.0466 -3.2906
v -3.6276 -10.0466 -4.8333
v 13.0469 -8.9067 -5.9697
v 15.3352 -10.2850 -4.5940
v 17.8453 -11.6633 -3.2183
v -7.2302 -5.0330 -3.5628
v -5.0585 -6.2384 -4.8710
v 12.1335 -6.0681 -4.7151
v 13.9995 -7.4157 -3.3030
v -7.2302 -2.7572 -3.5628
v -5.2021 -1.6730 -4.8710
v 12.2016 -2.7622 -4.8333
v 14.1952 -0.7622 -4.8333
v -4.3095 1.9534 -4.8333
v 14.8440 1.9534 -4.8333
v -10.5149 7.8705 -6.6485
v -8.3604 7.7250 -6.4916
v -4.2490 6.1703 -5.5744
v -1.6181 6.9993 -4.8333
v 13.3114 7.4333 -3.1873
v 14.6279 6.0413 -4.6457
v -14.4629 11.8241 -6.6947
v -11.7862 10.5382 -5.3383
v -8.3604 9.4545 -4.4916
v -4.3723 8.8947 -5.0708
v -1.6181 8.6031 -4.8333
v 12.9290 10.2528 -4.6457
v 14.4217 9.1191 -5.8539
v -14.4629 12.2638 -6.6947
v -12.1649 13.5572 -4.8434
v -9.7341 14.8505 -2.9920
v 11.8037 13.9534 -4.8333
v -11.2723 16.8896 -5.6587
v -8.0891 17.8218 -4.8991
v -4.3604 18.6691 -4.1018
v -1.9280 19.4404 -3.2184
v 5.4385 19.7577 -6.4769
v 7.6396 19.1621 -5.6121
v 10.3070 17.8378 -4.4702
v -6.4441 19.9878 -6.8062
v -4.3078 21.5741 -5.6144
v -0.5010 22.2675 -3.3235
v 4.0947 22.1058 -4.7325
v 7.6396 20.3167 -3.6121
v 9.6770 19.9899 -2.8948
v -6.4860 27.6937 -3.2403
v -4.1760 25.9875 -4.5088
v -0.4403 25.7502 -3.4970
v 2.9337 25.9534 -5.4549
v -6.4860 28.1425 -3.2403
v -4.1917 28.4040 -4.6775
v -0.4403 28.7605 -4.8378
v 2.2537 28.7368 -6.1741
v 5.0013 -28.3429 -1.9965
v 5.9734 -28.3429 -1.9965
v -6.9461 -24.3440 -2.4551
v -5.4545 -24.3440 -2.4551
v 0.8783 -24.6478 -0.8333
v 3.6566 -26.6928 -0.7312
v 7.4603 -26.1331 -0.7572
v 10.1759 -24.6109 0.4821
v -10.4435 -20.3238 -2.5399
v -8.0395 -21.5445 -1.1642
v -4.2169 -22.6434 -1.0064
v -1.1217 -23.2537 -0.8333
v 8.9473 -23.1862 -2.1846
v 10.6308 -21.9303 -0.8441
v -10.4435 -19.9011 -2.5399
v -7.7566 -18.4229 -1.2444
v -6.1590 -16.9446 0.0511
v 12.4764 -19.0199 -0.8333
v 15.5873 -16.9806 -1.0140
v 17.7551 -16.3055 -2.4677
v -6.3802 -16.0281 -2.6155
v -4.9232 -14.4355 -1.1026
v 16.8858 -15.2732 0.1989
v 17.9881 -13.9826 -1.0140
v -7.1493 -8.3259 0.5971
v -4.8113 -9.8142 -0.7750
v 16.7674 -8.9899 -0.8333
v 17.9886 -10.9899 -0.8333
v -10.9739 -5.0845 0.4414
v -8.5231 -6.3921 -0.8141
v -5.9724 -7.6997 -2.0695
v 12.5022 -4.7491 -2.4285
v 15.7248 -5.9436 -0.6652
v 17.7347 -4.4715 1.0981
v -11.0254 -2.0466 0.4699
v -8.4823 -1.6730 -1.7465
v -6.2886 -0.0906 -2.7596
v 12.5022 -3.2960 -2.4285
v 15.4763 -1.9962 -1.1633
v 17.7763 -2.0466 0.9506
v -10.6532 1.9534 0.9847
v -8.3604 1.9534 -0.4574
v -6.0179 1.9534 -2.2755
v 15.8501 1.6538 -0.5651
v 17.7267 0.1206 0.9471
v -14.9463 7.5619 0.9745
v -12.0308 6.1185 0.7070
v -8.3604 5.9534 -0.2061
v -4.5295 6.1600 -1.7358
v -1.8302 7.6311 -2.4142
v 13.1126 6.9521 -0.8333
v 14.1069 4.9521 -0.8333
v -14.9463 8.3328 0.9745
v -11.8956 10.1259 -0.5303
v -8.3604 9.4545 -1.6795
v -4.3604 8.8755 -1.9639
v -1.8302 8.4802 -2.4142
v 12.2600 9.9534 -0.8333
v -10.6632 12.3253 -0.8333
v -8.3847 13.9127 -1.1557
v -4.3604 14.5471 -0.0721
v -1.9369 15.3088 0.7189
v 9.2523 15.3332 0.9292
v 10.9487 13.9813 -0.5758
v -7.0675 16.0873 -2.7039
v -4.3604 16.6691 -2.0721
v -1.3505 18.0456 -0.7020
v 9.2523 16.9882 0.9292
v 10.0824 18.1743 -0.5758
v 0.5843 21.1143 -0.8333
v 3.6396 21.5091 -0.8333
v 7.6396 20.4085 -0.8333
v 9.7041 20.0137 -0.8333
v -6.4860 27.6937 -2.5694
v -4.3604 27.0046 -2.3109
v -1.8268 26.9481 -2.4007
v -6.4860 28.1425 -2.5694
v -4.3604 28.3678 -2.3109
v -1.8268 28.3169 -2.4007
v 1.2264 -24.5164 1.7817
v 3.6017 -25.2453 3.1357
v 7.6396 -26.0997 3.1667
v 10.5372 -24.9537 3.1667
v -6.4663 -20.0985 1.2005
v -4.3604 -20.5044 1.6951
v -0.2083 -21.9817 2.5375
v 2.5537 -22.0466 4.3771
v 11.6255 -22.0466 3.1667
v -6.4663 -19.6113 1.2005
v -4.6396 -18.1854 2.1781
v -0.3901 -17.9841 4.3571
v 2.2548 -19.2757 4.8322
v 12.8069 -17.9811 3.4455
v 14.2191 -16.6042 2.2981
v -3.9220 -14.3338 3.3553
v -1.7433 -15.8586 4.8144
v 13.4674 -15.8976 4.9648
v 15.7477 -14.2521 3.4920
v 17.8992 -12.6065 2.0193
v -10.6010 -8.3346 4.2645
v -8.4338 -8.9418 3.0253
v -5.4635 -10.9497 3.1667
v 17.3632 -9.6183 3.4501
v 17.7994 -9.6183 3.4501
v -11.5801 -6.2693 3.0253
v -9.8160 -7.7512 1.5978
v 17.4501 -7.1381 2.2141
v 18.1384 -5.9015 3.3952
v -14.5351 -0.7699 5.0089
v -13.1997 -2.0806 3.4720
v 18.5284 -2.0466 3.1667
v -15.4741 1.9534 4.5197
v -12.6532 1.9534 2.5197
v 16.2603 2.5614 3.1667
v 17.9499 0.5614 3.1667
v -23.1489 6.9118 4.7913
v -20.3604 6.1996 4.3156
v -16.6418 5.7759 3.1012
v -13.1443 4.8952 1.7951
v 13.2652 7.1385 1.5448
v 15.3867 6.0505 3.2969
v 17.7254 7.6292 5.0490
v -23.1489 8.2779 4.7913
v -20.3604 8.4521 4.3156
v -16.3119 8.9386 3.1110
v -13.0055 10.9295 3.1667
v -7.1230 11.5685 4.2020
v -5.9926 11.5685 4.2020
v 9.1070 11.0921 4.3634
v 11.8910 10.0746 2.9541
v 15.6396 8.8821 4.3620
v 17.7254 8.0880 5.0490
v -11.0055 12.2360 3.1667
v -8.4180 12.2412 2.9879
v -4.5397 13.0560 2.9879
v -1.8010 15.2545 3.1667
v 9.1796 14.0659 3.0974
v 10.1535 14.0659 3.0974
v -0.7922 17.9534 3.1667
v 5.3590 19.6818 4.3570
v 8.3307 18.1203 2.8615
v 9.7393 17.9506 2.8822
v 0.6484 20.5230 3.1667
v 3.8712 20.4562 3.0809
v 7.6396 20.0452 1.6341
v 9.6882 19.9973 1.2663
v 4.9098 -24.6325 5.6830
v 7.7793 -25.0744 7.0765
v 10.6000 -24.8919 7.1667
v 4.5537 -22.0466 5.8190
v 7.1229 -22.0466 7.8190
v 11.3053 -22.0466 7.1667
v 0.8757 -16.5519 7.1667
v 3.6087 -18.1833 6.9787
v 6.7178 -18.9339 8.1868
v 11.7761 -18.0466 7.1667
v -4.0950 -13.4681 7.1667
v -1.1243 -15.4681 7.1667
v 13.0708 -15.0845 7.1667
v 14.4326 -13.0845 7.1667
v -10.6067 -8.2788 7.1667
v -8.3604 -9.8543 7.1667
v -6.0950 -11.6221 7.1667
v 16.0127 -9.7480 6.7866
v 17.6996 -8.2157 5.1999
v -14.5447 -4.5263 8.4183
v -12.8647 -5.9344 7.1177
v 16.1940 -6.0466 7.8100
v 18.1917 -6.0466 5.8100
v -15.0201 -2.0806 7.1177
v -14.2059 -3.4366 5.7517
v 16.6076 -2.0466 8.2533
v 18.3917 -2.0466 6.2533
v -26.9040 3.3674 8.5785
v -24.3604 3.1544 7.9514
v -20.3604 3.0502 7.4124
v -17.2957 1.9184 6.7826
v 16.1268 1.9395 7.1412
v 17.9662 0.5969 5.7910
v -26.7948 5.9534 8.6015
v -24.4335 5.7284 6.4952
v -20.3604 4.1996 5.4124
v -18.3373 3.9900 5.1932
v 9.4265 7.7468 8.6670
v 11.6396 6.9440 8.3940
v 15.3209 5.8883 6.9868
v 17.7254 7.6292 5.3376
v -26.3960 7.9955 9.0013
v -24.4335 8.5387 7.4674
v -20.3604 9.5438 7.1667
v -16.3604 10.4965 7.1667
v -12.2525 11.5336 7.2807
v -8.4180 10.8051 7.2807
v -4.5397 10.5793 7.1919
v -0.3604 11.0884 8.2406
v 3.6396 11.2812 8.4139
v 7.9334 10.0114 7.3868
v 11.6396 9.1353 6.3940
v 15.6396 8.8821 5.8969
v 17.7254 8.0880 5.3376
v -10.8472 12.0647 6.0233
v -9.7896 12.0647 6.0233
v -3.3259 12.9996 5.8754
v -0.5670 14.1811 6.3832
v 3.6396 13.9534 7.4022
v 7.7200 14.0606 6.3495
v 9.7904 15.4654 5.4761
v 0.1412 18.1776 7.1241
v 3.6103 18.3377 7.1589
v 7.6396 16.9694 5.9403
v 9.7904 16.2463 5.4761
v 0.5248 20.3850 7.1667
v 2.5957 20.3850 7.1667
v 9.2058 -24.5284 9.4950
v 10.2596 -24.5284 9.4950
v 9.1229 -22.0466 9.5699
v 10.2538 -22.0466 9.5699
v 1.3372 -16.1579 9.3194
v 3.6396 -16.2956 9.6019
v 7.8350 -17.6637 10.8184
v 10.3888 -17.8548 10.8922
v -3.6243 -13.0539 11.1667
v -0.1418 -14.6259 10.8583
v 3.6396 -14.5662 11.6019
v 7.9438 -13.5896 12.7100
v 11.4978 -13.4875 11.2661
v 13.7267 -12.2462 9.3731
v -10.4482 -8.0681 9.2412
v -8.4464 -9.0750 10.8114
v -5.6243 -11.3160 11.1667
v 9.2604 -10.0466 12.8925
v 11.6396 -10.0466 11.4520
v 13.8784 -10.0466 9.7261
v -14.5447 -4.5263 10.2310
v -12.3695 -6.0760 11.0694
v -9.8370 -7.6258 11.9079
v 9.0504 -6.0466 12.6918
v 11.6396 -6.0466 11.2615
v 14.1940 -6.0466 9.7364
v -15.4617 -2.2902 11.4052
v -14.2908 -3.7860 12.8976
v 9.3221 -3.8114 12.8916
v 11.6488 -2.3055 11.9769
v 14.6076 -2.0466 9.8858
v -26.9040 3.3674 10.0034
v -24.3548 3.1214 11.2687
v -20.3604 1.9113 11.1667
v -17.5988 0.5118 11.1667
v 9.0730 3.4244 12.6991
v 11.6488 2.0360 11.8375
v 14.3049 1.9534 9.8559
v -26.7948 5.9534 9.8450
v -25.0289 5.9534 11.8450
v -6.4958 7.8610 12.2561
v -5.2386 7.8610 12.2561
v 8.5264 6.2295 11.2861
v 11.6396 4.9440 9.9512
v 13.7440 4.1474 9.3469
v -26.3960 7.9955 9.2343
v -24.1009 8.4280 10.8073
v -20.3604 9.5294 11.1667
v -16.3604 9.9928 11.1667
v -12.3604 10.0486 11.1667
v -8.0416 8.8343 11.0203
v -4.0873 8.4157 11.0203
v -0.3604 9.1213 11.1667
v 3.6396 9.4614 11.1667
v 6.6730 8.8405 11.1667
v 0.9687 19.6603 9.2777
v 1.8617 19.6603 9.2777
v 0.9687 20.1271 9.2777
v 1.8617 20.1271 9.2777
v 8.9523 -16.3936 13.4293
v 9.9424 -16.3936 13.4293
v -2.8357 -12.6397 13.6613
v -0.3604 -12.7082 13.7804
v 3.6396 -12.5662 13.5240
v 7.9438 -13.5896 13.3744
v 9.9424 -14.7288 13.4293
v -7.1069 -8.4930 15.1667
v -4.4328 -9.6775 15.1576
v -0.3604 -10.0466 14.9070
v 3.6396 -10.0466 14.2898
v 7.2604 -10.0466 13.5359
v -11.3215 -4.7573 15.1667
v -9.1069 -6.7573 15.1667
v -3.4609 -6.0466 16.5189
v -0.3604 -6.0466 15.4078
v 3.6396 -6.0466 14.6069
v 7.0504 -6.0466 13.7180
v -15.2710 -1.1193 13.3739
v -13.0903 -2.2902 14.8910
v -2.8248 -3.6170 16.8158
v -0.2098 -2.1888 16.2309
v 3.6327 -1.8272 15.8788
v 7.6322 -2.0795 14.9529
v 10.3216 -1.1447 13.6769
v -23.0177 3.6321 13.4451
v -20.3604 2.8145 13.7556
v -16.5068 1.6351 13.6617
v -12.3215 2.0017 15.3621
v -8.3604 3.1489 16.2889
v -4.3604 3.4372 16.6510
v -0.2098 2.2324 16.7425
v 3.0677 1.9534 16.7687
v 7.8859 2.0360 15.0728
v 10.3216 0.7578 13.6769
v -23.0289 5.9534 13.5061
v -20.3604 5.9534 14.1949
v -16.3604 5.9534 13.9725
v -12.3604 5.9534 14.2396
v -8.0416 6.2979 14.4246
v -4.0873 6.2979 14.3721
v -0.3604 5.9534 15.0194
v 3.9889 5.5581 15.6989
v 6.2589 5.5581 14.9289
v -22.5945 8.0933 13.3408
v -20.3604 8.4378 13.6059
v -16.3604 8.3966 13.5091
v -12.3604 8.2649 13.6507
v -9.1624 8.2839 13.7670
v -2.5719 7.9625 13.1966
v -0.3604 7.9862 13.2654
v 3.6396 8.1336 13.4458
v 5.8973 8.1589 13.4371
v -6.5459 -8.1252 17.2871
v -6.0300 -8.1252 17.2871
v -10.3781 -4.0816 17.2159
v -8.1328 -5.6100 18.5848
v -5.1605 -5.9017 18.8389
v -10.8250 -2.0466 17.7667
v -8.3760 -1.8638 19.8769
v -4.1924 -2.0128 19.2559
v -1.4426 -0.9503 17.6280
v 4.9614 -0.3476 17.3338
v 5.9422 -0.3476 17.3338
v -10.9622 0.7006 17.9175
v -8.3604 1.1489 18.5176
v -4.3604 1.4372 18.3005
v -1.4426 1.0850 17.6280
v 5.0677 1.9534 17.2948
v 5.8724 1.9534 17.2948
v 5.5552 3.9613 17.1704
v 5.6474 3.9613 17.1704
v -7.0531 -4.4717 21.6946
v -5.5599 -4.4717 21.6946
v -7.0531 -3.0752 21.6946
v -5.5599 -3.0752 21.6946
f 3 2 1
f 3 4 2
f 5 4 3
f 5 6 4
f 10 8 7
f 10 11 8
f 11 9 8
f 11 12 9
f 14 12 11
f 14 15 12
f 17 14 13
f 17 18 14
f 19 16 15
f 19 20 16
f 21 19 18
f 21 22 19
f 24 23 22
f 24 25 23
f 26 25 24
f 26 27 25
f 32 28 31
f 32 29 28
f 33 29 32
f 33 30 29
f 35 31 34
f 35 32 31
f 2 37 1
f 2 38 37
f 42 1 37
f 42 3 1
f 41 37 36
f 41 42 37
f 43 38 2
f 43 2 4
f 43 39 38
f 43 44 39
f 44 40 39
f 44 45 40
f 46 3 42
f 46 5 3
f 43 4 6
f 43 6 47
f 6 5 46
f 6 46 47
f 48 43 47
f 48 44 43
f 49 44 48
f 49 45 44
f 52 51 50
f 52 53 51
f 55 7 8
f 55 54 7
f 56 8 9
f 56 55 8
f 57 53 52
f 57 58 53
f 54 10 7
f 54 59 10
f 58 54 53
f 58 59 54
f 60 11 10
f 60 10 59
f 56 9 12
f 56 12 61
f 60 55 56
f 60 56 61
f 62 59 58
f 62 63 59
f 64 11 60
f 64 14 11
f 64 13 14
f 64 63 13
f 64 59 63
f 64 60 59
f 65 61 12
f 65 12 15
f 15 14 64
f 15 64 65
f 16 65 15
f 16 66 65
f 68 13 63
f 68 17 13
f 67 63 62
f 67 68 63
f 64 14 18
f 64 18 69
f 69 18 17
f 69 17 68
f 70 15 65
f 70 19 15
f 70 18 19
f 70 69 18
f 70 64 69
f 70 65 64
f 66 16 20
f 66 20 71
f 20 19 70
f 20 70 71
f 69 21 18
f 69 73 21
f 70 19 22
f 70 22 74
f 74 22 21
f 74 21 73
f 23 74 22
f 23 75 74
f 75 70 74
f 75 71 70
f 75 72 71
f 75 76 72
f 74 24 22
f 74 78 24
f 79 75 23
f 79 23 25
f 79 76 75
f 79 80 76
f 78 26 24
f 78 83 26
f 83 77 82
f 83 78 77
f 79 25 27
f 79 27 84
f 27 26 83
f 27 83 84
f 84 80 79
f 84 85 80
f 86 82 81
f 86 87 82
f 88 82 87
f 88 83 82
f 88 84 83
f 88 89 84
f 89 85 84
f 89 90 85
f 95 88 87
f 95 96 88
f 98 89 97
f 98 90 89
f 98 91 90
f 98 99 91
f 29 100 28
f 29 101 100
f 30 101 29
f 30 102 101
f 102 92 101
f 102 93 92
f 103 93 102
f 103 94 93
f 104 97 96
f 104 105 97
f 106 97 105
f 106 98 97
f 107 98 106
f 107 99 98
f 108 28 100
f 108 31 28
f 102 30 33
f 102 33 110
f 33 32 109
f 33 109 110
f 110 103 102
f 110 111 103
f 108 34 31
f 108 113 34
f 109 32 35
f 109 35 114
f 35 34 113
f 35 113 114
f 115 109 114
f 115 110 109
f 116 36 37
f 116 115 36
f 116 110 115
f 116 111 110
f 38 116 37
f 38 117 116
f 116 112 111
f 116 117 112
f 39 117 38
f 39 118 117
f 119 39 40
f 119 118 39
f 120 36 115
f 120 41 36
f 121 42 41
f 121 41 120
f 123 119 40
f 123 40 45
f 121 46 42
f 121 124 46
f 125 47 46
f 125 46 124
f 48 47 125
f 48 125 126
f 127 123 45
f 127 45 49
f 127 49 48
f 127 48 126
f 127 126 122
f 127 122 123
f 128 125 124
f 128 129 125
f 130 125 129
f 130 126 125
f 51 131 50
f 51 132 131
f 131 52 50
f 131 133 52
f 134 132 51
f 134 51 53
f 135 53 54
f 135 134 53
f 136 54 55
f 136 135 54
f 133 57 52
f 133 137 57
f 138 58 57
f 138 57 137
f 139 136 55
f 139 55 60
f 61 139 60
f 61 140 139
f 138 62 58
f 138 143 62
f 142 138 137
f 142 143 138
f 144 140 61
f 144 61 65
f 66 144 65
f 66 145 144
f 144 141 140
f 144 145 141
f 147 62 143
f 147 67 62
f 148 68 67
f 148 67 147
f 149 69 68
f 149 68 148
f 150 145 66
f 150 66 71
f 72 150 71
f 72 151 150
f 150 146 145
f 150 151 146
f 149 73 69
f 149 154 73
f 153 149 148
f 153 154 149
f 155 74 73
f 155 73 154
f 156 151 72
f 156 72 76
f 156 152 151
f 156 157 152
f 158 154 153
f 158 159 154
f 155 78 74
f 155 160 78
f 160 77 78
f 160 159 77
f 159 155 154
f 159 160 155
f 161 156 76
f 161 76 80
f 163 77 159
f 163 82 77
f 163 81 82
f 163 162 81
f 163 158 162
f 163 159 158
f 161 80 85
f 161 85 164
f 162 86 81
f 162 166 86
f 167 87 86
f 167 86 166
f 89 88 168
f 89 168 169
f 170 164 85
f 170 85 90
f 91 170 90
f 91 171 170
f 170 165 164
f 170 171 165
f 173 92 93
f 173 172 92
f 94 173 93
f 94 174 173
f 167 95 87
f 167 175 95
f 175 166 174
f 175 167 166
f 168 88 96
f 168 96 176
f 176 96 95
f 176 95 175
f 169 97 89
f 169 177 97
f 177 96 97
f 177 176 96
f 177 168 176
f 177 169 168
f 178 171 91
f 178 91 99
f 180 92 172
f 180 101 92
f 180 100 101
f 180 179 100
f 181 174 94
f 181 94 103
f 176 104 96
f 176 183 104
f 183 175 182
f 183 176 175
f 184 105 104
f 184 104 183
f 106 105 184
f 106 184 185
f 178 99 107
f 178 107 186
f 186 107 106
f 186 106 185
f 187 100 179
f 187 108 100
f 189 181 103
f 189 103 111
f 112 189 111
f 112 190 189
f 189 182 181
f 189 190 182
f 190 183 182
f 190 191 183
f 191 184 183
f 191 192 184
f 193 184 192
f 193 185 184
f 194 108 187
f 194 113 108
f 114 113 194
f 114 194 195
f 194 187 188
f 194 188 195
f 115 114 195
f 115 195 196
f 197 190 112
f 197 112 117
f 118 197 117
f 118 198 197
f 197 191 190
f 197 198 191
f 119 198 118
f 119 199 198
f 199 191 198
f 199 192 191
f 200 192 199
f 200 193 192
f 201 115 196
f 201 120 115
f 202 121 120
f 202 120 201
f 204 199 119
f 204 119 123
f 204 123 122
f 204 122 203
f 204 203 198
f 204 198 199
f 205 121 202
f 205 124 121
f 206 203 122
f 206 122 126
f 205 128 124
f 205 207 128
f 129 128 207
f 129 207 208
f 206 126 130
f 206 130 209
f 130 129 208
f 130 208 209
f 211 131 132
f 211 210 131
f 210 133 131
f 210 214 133
f 211 132 134
f 211 134 215
f 214 210 211
f 214 211 215
f 135 215 134
f 135 216 215
f 136 216 135
f 136 217 216
f 219 212 218
f 219 213 212
f 214 137 133
f 214 220 137
f 221 220 214
f 221 214 215
f 223 217 136
f 223 136 139
f 222 216 217
f 222 217 223
f 224 139 140
f 224 223 139
f 224 217 223
f 224 218 217
f 141 224 140
f 141 225 224
f 224 219 218
f 224 225 219
f 220 142 137
f 220 227 142
f 228 143 142
f 228 142 227
f 229 225 141
f 229 141 145
f 146 229 145
f 146 230 229
f 229 226 225
f 229 230 226
f 228 147 143
f 228 233 147
f 234 148 147
f 234 147 233
f 235 230 146
f 235 146 151
f 152 235 151
f 152 236 235
f 235 231 230
f 235 236 231
f 237 231 236
f 237 232 231
f 234 153 148
f 234 238 153
f 236 152 157
f 236 157 240
f 157 156 239
f 157 239 240
f 241 236 240
f 241 237 236
f 238 158 153
f 238 243 158
f 239 156 161
f 239 161 244
f 245 239 244
f 245 240 239
f 247 158 243
f 247 162 158
f 247 242 246
f 247 243 242
f 248 244 161
f 248 161 164
f 165 248 164
f 165 249 248
f 247 166 162
f 247 250 166
f 251 249 165
f 251 165 171
f 173 252 172
f 173 253 252
f 250 174 166
f 250 254 174
f 174 253 173
f 174 254 253
f 255 175 174
f 255 174 254
f 251 171 178
f 251 178 257
f 252 180 172
f 252 259 180
f 180 258 179
f 180 259 258
f 260 259 252
f 260 252 253
f 261 254 174
f 261 174 181
f 261 260 253
f 261 253 254
f 255 182 175
f 255 262 182
f 262 181 182
f 262 261 181
f 264 257 178
f 264 178 186
f 264 186 185
f 264 185 263
f 264 263 256
f 264 256 257
f 265 179 258
f 265 187 179
f 188 187 265
f 188 265 266
f 266 265 258
f 266 258 259
f 268 263 185
f 268 185 193
f 269 188 266
f 269 195 188
f 196 195 269
f 196 269 270
f 269 266 267
f 269 267 270
f 199 198 273
f 199 273 274
f 268 193 200
f 268 200 275
f 200 199 274
f 200 274 275
f 276 196 270
f 276 201 196
f 202 201 276
f 202 276 277
f 276 270 271
f 276 271 277
f 277 271 272
f 277 272 278
f 273 198 203
f 273 203 279
f 280 273 279
f 280 274 273
f 281 274 280
f 281 275 274
f 277 205 202
f 277 283 205
f 283 277 278
f 283 278 284
f 279 203 206
f 279 206 285
f 285 284 278
f 285 278 279
f 287 205 283
f 287 207 205
f 287 282 286
f 287 283 282
f 288 208 207
f 288 207 287
f 289 285 206
f 289 206 209
f 289 209 208
f 289 208 288
f 288 284 285
f 288 285 289
f 213 290 212
f 213 291 290
f 216 292 215
f 216 293 292
f 295 212 290
f 295 218 212
f 218 294 217
f 218 295 294
f 291 213 219
f 291 219 296
f 295 290 291
f 295 291 296
f 292 221 215
f 292 299 221
f 221 298 220
f 221 299 298
f 293 216 222
f 293 222 300
f 300 299 292
f 300 292 293
f 301 217 294
f 301 223 217
f 301 222 223
f 301 300 222
f 302 296 219
f 302 219 225
f 226 302 225
f 226 303 302
f 302 297 296
f 302 303 297
f 298 227 220
f 298 304 227
f 228 227 304
f 228 304 305
f 304 298 299
f 304 299 305
f 307 303 226
f 307 226 230
f 231 307 230
f 231 308 307
f 309 231 232
f 309 308 231
f 310 228 305
f 310 233 228
f 234 233 310
f 234 310 311
f 310 305 306
f 310 306 311
f 309 232 237
f 309 237 313
f 312 308 309
f 312 309 313
f 315 234 311
f 315 238 234
f 313 237 241
f 313 241 317
f 241 240 316
f 241 316 317
f 320 238 315
f 320 243 238
f 320 242 243
f 320 319 242
f 320 314 319
f 320 315 314
f 316 240 245
f 316 245 322
f 245 244 321
f 245 321 322
f 325 242 319
f 325 246 242
f 325 318 324
f 325 319 318
f 326 247 246
f 326 246 325
f 321 244 248
f 321 248 327
f 249 327 248
f 249 328 327
f 328 321 327
f 328 322 321
f 328 323 322
f 328 329 323
f 331 324 330
f 331 325 324
f 326 250 247
f 326 332 250
f 331 326 325
f 331 332 326
f 333 328 249
f 333 249 251
f 334 328 333
f 334 329 328
f 337 330 336
f 337 331 330
f 338 250 332
f 338 254 250
f 337 332 331
f 337 338 332
f 339 255 254
f 339 254 338
f 341 333 251
f 341 251 257
f 341 257 256
f 341 256 340
f 342 336 335
f 342 343 336
f 344 259 260
f 344 343 259
f 343 337 336
f 343 344 337
f 345 260 261
f 345 344 260
f 344 338 337
f 344 345 338
f 339 262 255
f 339 346 262
f 346 261 262
f 346 345 261
f 345 339 338
f 345 346 339
f 347 340 256
f 347 256 263
f 348 259 343
f 348 266 259
f 267 266 348
f 267 348 349
f 347 263 268
f 347 268 353
f 354 267 349
f 354 270 267
f 271 270 354
f 271 354 355
f 354 349 350
f 354 350 355
f 272 271 355
f 272 355 356
f 355 350 351
f 355 351 356
f 353 268 275
f 353 275 358
f 358 357 352
f 358 352 353
f 359 272 356
f 359 278 272
f 360 279 278
f 360 278 359
f 280 279 360
f 280 360 361
f 358 275 281
f 358 281 362
f 281 280 361
f 281 361 362
f 364 282 283
f 364 363 282
f 365 283 284
f 365 364 283
f 363 286 282
f 363 366 286
f 367 287 286
f 367 286 366
f 367 366 363
f 367 363 364
f 368 365 284
f 368 284 288
f 368 288 287
f 368 287 367
f 368 367 364
f 368 364 365
f 295 369 294
f 295 370 369
f 296 370 295
f 296 371 370
f 297 371 296
f 297 372 371
f 300 373 299
f 300 374 373
f 369 301 294
f 369 375 301
f 301 374 300
f 301 375 374
f 376 375 369
f 376 369 370
f 377 372 297
f 377 297 303
f 373 305 299
f 373 378 305
f 306 305 378
f 306 378 379
f 378 373 374
f 378 374 379
f 380 379 374
f 380 374 375
f 381 380 375
f 381 375 376
f 377 303 307
f 377 307 382
f 383 307 308
f 383 382 307
f 384 306 379
f 384 311 306
f 385 384 379
f 385 379 380
f 383 308 312
f 383 312 387
f 386 382 383
f 386 383 387
f 388 312 313
f 388 387 312
f 391 311 384
f 391 315 311
f 391 314 315
f 391 390 314
f 388 313 317
f 388 317 393
f 393 317 316
f 393 316 392
f 392 387 388
f 392 388 393
f 395 314 390
f 395 319 314
f 395 318 319
f 395 394 318
f 395 389 394
f 395 390 389
f 396 392 316
f 396 316 322
f 323 396 322
f 323 397 396
f 396 393 392
f 396 397 393
f 399 318 394
f 399 324 318
f 400 397 323
f 400 323 329
f 402 324 399
f 402 330 324
f 402 398 401
f 402 399 398
f 400 329 334
f 400 334 404
f 334 333 403
f 334 403 404
f 408 330 402
f 408 336 330
f 408 335 336
f 408 407 335
f 408 401 407
f 408 402 401
f 403 333 341
f 403 341 410
f 341 340 409
f 341 409 410
f 413 405 412
f 413 406 405
f 414 335 407
f 414 342 335
f 413 407 406
f 413 414 407
f 415 343 342
f 415 342 414
f 409 340 347
f 409 347 419
f 420 409 419
f 420 410 409
f 420 411 410
f 420 421 411
f 422 343 415
f 422 348 343
f 423 349 348
f 423 348 422
f 350 349 423
f 350 423 424
f 423 416 417
f 423 417 424
f 351 350 424
f 351 424 425
f 419 347 353
f 419 353 427
f 427 353 352
f 427 352 426
f 427 426 418
f 427 418 419
f 428 351 425
f 428 356 351
f 430 426 352
f 430 352 357
f 431 357 358
f 431 430 357
f 431 426 430
f 431 427 426
f 432 356 428
f 432 359 356
f 360 359 432
f 360 432 433
f 434 361 360
f 434 360 433
f 434 433 429
f 434 429 430
f 435 431 358
f 435 358 362
f 435 362 361
f 435 361 434
f 435 434 430
f 435 430 431
f 371 436 370
f 371 437 436
f 372 437 371
f 372 438 437
f 436 376 370
f 436 439 376
f 440 439 436
f 440 436 437
f 441 438 372
f 441 372 377
f 439 381 376
f 439 443 381
f 381 442 380
f 381 443 442
f 444 443 439
f 444 439 440
f 445 441 377
f 445 377 382
f 442 385 380
f 442 447 385
f 385 446 384
f 385 447 446
f 445 382 386
f 445 386 448
f 449 386 387
f 449 448 386
f 451 389 390
f 451 450 389
f 446 391 384
f 446 452 391
f 391 451 390
f 391 452 451
f 453 449 387
f 453 387 392
f 454 392 393
f 454 453 392
f 456 389 450
f 456 394 389
f 454 393 397
f 454 397 458
f 457 453 454
f 457 454 458
f 460 394 456
f 460 399 394
f 460 398 399
f 460 459 398
f 460 455 459
f 460 456 455
f 462 458 397
f 462 397 400
f 462 461 457
f 462 457 458
f 466 398 459
f 466 401 398
f 468 462 400
f 468 400 404
f 468 404 403
f 468 403 467
f 468 467 461
f 468 461 462
f 469 464 463
f 469 470 464
f 471 405 406
f 471 470 405
f 471 464 470
f 471 465 464
f 472 401 466
f 472 407 401
f 472 406 407
f 472 471 406
f 472 465 471
f 472 466 465
f 475 467 403
f 475 403 410
f 476 410 411
f 476 475 410
f 470 412 405
f 470 478 412
f 478 469 477
f 478 470 469
f 479 413 412
f 479 412 478
f 480 414 413
f 480 413 479
f 415 414 480
f 415 480 481
f 417 416 482
f 417 482 483
f 487 419 418
f 487 418 486
f 487 486 473
f 487 473 474
f 420 419 487
f 420 487 488
f 487 474 475
f 487 475 488
f 476 411 421
f 476 421 489
f 421 420 488
f 421 488 489
f 488 475 476
f 488 476 489
f 490 415 481
f 490 422 415
f 491 482 416
f 491 416 423
f 491 423 422
f 491 422 490
f 491 490 481
f 491 481 482
f 492 417 483
f 492 424 417
f 425 424 492
f 425 492 493
f 492 483 484
f 492 484 493
f 494 493 484
f 494 484 485
f 495 486 418
f 495 418 426
f 495 494 485
f 495 485 486
f 496 426 427
f 496 495 426
f 493 428 425
f 493 497 428
f 497 493 494
f 497 494 498
f 499 430 429
f 499 429 498
f 499 498 494
f 499 494 495
f 500 496 427
f 500 427 431
f 500 431 430
f 500 430 499
f 499 495 496
f 499 496 500
f 497 432 428
f 497 501 432
f 502 498 429
f 502 429 433
f 502 433 432
f 502 432 501
f 438 503 437
f 438 504 503
f 503 440 437
f 503 505 440
f 504 438 441
f 504 441 506
f 506 505 503
f 506 503 504
f 508 442 443
f 508 507 442
f 505 444 440
f 505 509 444
f 444 508 443
f 444 509 508
f 506 441 445
f 506 445 510
f 510 509 505
f 510 505 506
f 507 447 442
f 507 512 447
f 447 511 446
f 447 512 511
f 513 512 507
f 513 507 508
f 513 508 509
f 513 509 514
f 510 445 448
f 510 448 515
f 516 448 449
f 516 515 448
f 451 517 450
f 451 518 517
f 519 446 511
f 519 452 446
f 452 518 451
f 452 519 518
f 520 514 515
f 520 515 521
f 522 516 449
f 522 449 453
f 521 515 516
f 521 516 522
f 517 456 450
f 517 524 456
f 524 455 456
f 524 523 455
f 525 524 517
f 525 517 518
f 526 520 521
f 526 521 527
f 522 453 457
f 522 457 528
f 527 521 522
f 527 522 528
f 529 455 523
f 529 459 455
f 530 529 523
f 530 523 524
f 531 526 527
f 531 527 532
f 533 528 457
f 533 457 461
f 532 527 528
f 532 528 533
f 464 534 463
f 464 535 534
f 536 464 465
f 536 535 464
f 537 459 529
f 537 466 459
f 537 465 466
f 537 536 465
f 540 533 461
f 540 461 467
f 539 532 533
f 539 533 540
f 541 463 534
f 541 469 463
f 542 541 534
f 542 534 535
f 546 474 473
f 546 473 545
f 546 545 538
f 546 538 539
f 547 540 467
f 547 467 475
f 547 475 474
f 547 474 546
f 547 546 539
f 547 539 540
f 548 469 541
f 548 477 469
f 478 477 548
f 478 548 549
f 548 541 542
f 548 542 549
f 479 478 549
f 479 549 550
f 551 480 479
f 551 479 550
f 552 481 480
f 552 480 551
f 482 481 552
f 482 552 553
f 483 482 553
f 483 553 554
f 554 553 543
f 554 543 544
f 484 483 554
f 484 554 555
f 556 485 484
f 556 484 555
f 557 545 473
f 557 473 486
f 557 486 485
f 557 485 556
f 559 497 498
f 559 558 497
f 558 501 497
f 558 560 501
f 559 498 502
f 559 502 561
f 561 502 501
f 561 501 560
f 560 558 559
f 560 559 561
f 510 562 509
f 510 563 562
f 565 511 512
f 565 564 511
f 513 565 512
f 513 566 565
f 562 514 509
f 562 567 514
f 514 566 513
f 514 567 566
f 563 510 515
f 563 515 568
f 568 515 514
f 568 514 567
f 568 567 562
f 568 562 563
f 564 519 511
f 564 570 519
f 519 569 518
f 519 570 569
f 571 570 564
f 571 564 565
f 572 571 565
f 572 565 566
f 573 567 514
f 573 514 520
f 573 572 566
f 573 566 567
f 569 525 518
f 569 575 525
f 525 574 524
f 525 575 574
f 576 570 571
f 576 571 577
f 578 577 571
f 578 571 572
f 573 520 526
f 573 526 579
f 579 578 572
f 579 572 573
f 574 530 524
f 574 581 530
f 530 580 529
f 530 581 580
f 582 576 577
f 582 577 583
f 583 577 578
f 583 578 584
f 579 526 531
f 579 531 585
f 585 584 578
f 585 578 579
f 586 531 532
f 586 585 531
f 536 587 535
f 536 588 587
f 580 537 529
f 580 589 537
f 537 588 536
f 537 589 588
f 590 589 580
f 590 580 581
f 594 593 583
f 594 583 584
f 596 586 532
f 596 532 539
f 596 539 538
f 596 538 595
f 596 595 585
f 596 585 586
f 587 542 535
f 587 597 542
f 598 597 587
f 598 587 588
f 599 598 588
f 599 588 589
f 599 589 590
f 599 590 600
f 600 590 591
f 600 591 601
f 602 544 543
f 602 543 601
f 601 591 592
f 601 592 602
f 603 602 592
f 603 592 593
f 604 603 593
f 604 593 594
f 605 595 538
f 605 538 545
f 606 542 597
f 606 549 542
f 550 549 606
f 550 606 607
f 606 597 598
f 606 598 607
f 608 551 550
f 608 550 607
f 607 598 599
f 607 599 608
f 552 551 608
f 552 608 609
f 609 608 599
f 609 599 600
f 610 601 543
f 610 543 553
f 610 553 552
f 610 552 609
f 610 609 600
f 610 600 601
f 611 544 602
f 611 554 544
f 555 554 611
f 555 611 612
f 611 602 603
f 611 603 612
f 613 556 555
f 613 555 612
f 613 612 603
f 613 603 604
f 614 605 545
f 614 545 557
f 614 557 556
f 614 556 613
f 614 613 604
f 614 604 605
f 616 569 570
f 616 615 569
f 615 575 569
f 615 618 575
f 575 617 574
f 575 618 617
f 616 570 576
f 616 576 619
f 619 618 615
f 619 615 616
f 620 574 617
f 620 581 574
f 621 620 617
f 621 617 618
f 619 576 582
f 619 582 622
f 623 582 583
f 623 622 582
f 625 584 585
f 625 624 584
f 626 581 620
f 626 590 581
f 591 590 626
f 591 626 627
f 627 626 620
f 627 620 621
f 628 592 591
f 628 591 627
f 627 621 622
f 627 622 628
f 623 583 593
f 623 593 629
f 629 593 592
f 629 592 628
f 628 622 623
f 628 623 629
f 624 594 584
f 624 630 594
f 625 585 595
f 625 595 631
f 630 624 625
f 630 625 631
f 632 594 630
f 632 604 594
f 633 631 595
f 633 595 605
f 633 605 604
f 633 604 632
f 632 630 631
f 632 631 633
f 619 634 618
f 619 635 634
f 634 621 618
f 634 636 621
f 635 619 622
f 635 622 637
f 637 622 621
f 637 621 636
f 636 634 635
f 636 635 637
