# parsimony mesh: eg12866_monomer (source /Users/eranagmon/code/v2e-cplx/workspace/studies/ecoli-3d/viz/3d/structures/eg12866_monomer.pdb)
# atoms: 1819  voxel: 8 Å  verts: 315  tris: 640
v 10.2276 -6.4392 -30.5445
v 15.1541 -6.9981 -31.0538
v 23.1541 -7.6327 -31.1220
v 27.8453 -7.2853 -30.6355
v 2.1184 -0.0236 -32.2485
v 7.3982 -2.5134 -32.9070
v 15.1541 -2.2481 -34.5040
v 23.1541 -2.2481 -33.9977
v 28.8759 -2.2481 -31.5592
v 2.1184 3.8785 -32.2485
v 6.6609 6.2279 -33.4906
v 15.5274 6.2089 -33.7651
v 23.1541 4.6158 -33.1121
v 28.7586 3.4754 -31.6011
v 8.9988 10.5795 -31.5173
v 13.1096 10.5795 -31.5173
v 25.6156 -14.9818 -23.4189
v 28.6087 -14.9818 -23.4189
v 2.7044 -6.3532 -22.9467
v 6.8285 -6.3962 -26.3989
v 15.8654 -7.1395 -26.8052
v 23.0310 -10.8472 -26.1459
v 30.8937 -10.0341 -25.8015
v 35.4515 -7.4496 -22.8507
v 1.3179 -2.5134 -25.8626
v 6.8285 -4.7540 -26.3989
v 13.6729 -4.1511 -24.5178
v 32.8874 -2.2434 -25.8050
v 35.4515 -4.9069 -22.8507
v 1.5565 6.2279 -25.5867
v 3.6655 9.2118 -27.8202
v 18.4429 9.1802 -29.3489
v 23.8343 8.7479 -26.5039
v 29.8022 4.9257 -26.2364
v 3.1021 9.7742 -22.4869
v 6.6609 11.1495 -25.5867
v 15.5274 11.9046 -26.5039
v 21.6211 11.0326 -24.0156
v 17.5820 -14.9419 -15.9357
v 23.0310 -15.5506 -18.4560
v 31.2268 -15.1929 -17.8170
v 35.3032 -14.3457 -14.8707
v 2.7044 -6.3532 -21.2368
v 6.3726 -7.0598 -18.1351
v 15.6275 -9.9167 -18.1513
v 20.2823 -12.0670 -21.2691
v 33.9420 -12.7830 -20.2040
v 36.0386 -10.1690 -17.8170
v 1.0575 -2.7164 -18.4366
v 6.3726 -4.9232 -18.1351
v 13.6729 -4.1511 -20.3668
v 34.4138 0.4264 -20.9745
v 36.2116 -2.2434 -18.2793
v 0.1900 5.7519 -18.2364
v 26.5900 9.2797 -18.2364
v 31.5099 4.8238 -18.2793
v 35.5915 2.1681 -15.6412
v 2.4736 10.2907 -18.2364
v 7.1541 11.6406 -18.2364
v 15.1541 12.7033 -18.2364
v 22.5900 11.3534 -18.2364
v -14.2671 -31.6716 -7.5598
v -8.8459 -31.4654 -7.3229
v -4.7507 -30.4476 -6.3616
v -15.6269 -26.2481 -7.8924
v -8.4621 -26.5327 -7.6363
v -4.7507 -29.3892 -6.3616
v -14.6985 -18.2481 -6.9686
v -11.2613 -18.2481 -6.9686
v 17.5820 -14.9419 -13.2695
v 23.1541 -15.3260 -12.1824
v 31.4496 -14.8408 -9.9734
v 35.4811 -14.4315 -10.2364
v -13.0293 -14.0629 -6.3280
v -12.7062 -14.0629 -6.3280
v 9.3156 -7.7664 -13.6477
v 15.5430 -9.9399 -10.7919
v 23.1541 -12.0677 -8.1824
v 28.9799 -13.4754 -7.1314
v 39.2323 -9.6682 -9.6616
v 43.4345 -6.6150 -6.6117
v 0.4840 -0.9309 -10.2364
v 6.8354 -2.7033 -10.6915
v 14.3151 -2.2481 -8.9191
v 32.7465 0.3428 -8.1645
v 38.5533 -2.8107 -10.0547
v 43.4345 -5.9643 -6.6117
v -0.5679 5.7519 -10.2364
v 8.6902 5.7519 -8.5905
v 15.4730 5.5546 -8.9217
v 23.6226 7.0257 -10.2385
v 30.5095 3.4727 -10.5933
v 35.5915 2.1681 -13.4978
v 2.1023 10.4435 -10.2364
v 6.8623 10.4975 -10.4203
v 15.1541 10.6332 -12.4688
v 21.2683 10.6065 -12.9065
v -14.4893 -38.7583 0.5171
v -8.8459 -38.9732 0.2770
v -4.3562 -38.7047 1.0280
v -21.5814 -32.1155 0.2704
v -17.0449 -34.5602 -2.2729
v -8.8459 -35.4654 -3.7230
v -3.7631 -33.5678 -1.8778
v -22.0761 -26.2481 -1.1236
v -19.6269 -26.2481 -5.1236
v -5.8819 -24.1249 -2.2364
v -3.8596 -28.1249 -2.2364
v -21.7506 -20.6102 -0.5929
v -18.4382 -18.0653 -2.8503
v -8.7542 -18.2481 -2.2364
v 34.3132 -14.3950 -5.7095
v 38.6215 -14.7101 -2.4194
v 43.8963 -15.0251 0.8706
v -37.8190 -7.1838 0.7843
v -32.8459 -8.1605 0.7085
v -28.3252 -7.8622 1.3361
v -14.0694 -10.9369 -1.7091
v -11.5737 -10.9369 -1.7091
v 18.8372 -6.7801 -5.9444
v 23.1541 -8.0677 -4.5994
v 31.7422 -10.0587 -2.3610
v 39.9655 -10.0905 -1.1223
v 43.6654 -9.1482 -1.4954
v -37.8190 -3.6890 0.7843
v -32.8459 -3.9283 0.7085
v -28.3252 -5.7141 1.3361
v -13.1847 -5.9647 1.3091
v -8.5651 -2.1741 1.2751
v -1.3001 -0.3150 -1.7499
v 5.0036 -0.7302 -2.2364
v 18.3151 -2.2481 -5.6524
v 23.1541 -2.2481 -4.1191
v 30.9589 -2.8881 -2.5476
v 39.6538 -5.2459 -1.6115
v 43.4345 -5.9643 -3.8615
v -4.9011 2.1152 1.2412
v -0.8313 5.6420 -1.8381
v 5.1419 6.2021 -2.2451
v 18.3523 2.7564 -5.7498
v 23.1541 2.6975 -5.7561
v 27.4132 2.0082 -6.0827
v 2.6069 9.9780 -4.9175
v 4.0011 9.9780 -4.9175
v -20.9113 -38.3269 9.2488
v -17.0292 -38.5426 6.6535
v -8.1525 -38.8319 6.3403
v -4.4697 -38.5951 5.7636
v -21.5894 -34.5685 6.2547
v -17.0292 -37.7276 6.6535
v -10.3570 -38.0063 9.3915
v -1.8055 -34.2481 5.7636
v -23.0206 -26.2481 5.7636
v -5.5336 -22.9428 2.6952
v -2.1692 -25.8649 5.5226
v -29.1947 -14.5356 8.9379
v -24.3755 -17.5729 5.9437
v -16.5216 -14.9422 6.1171
v -8.5078 -17.9692 5.9900
v -3.9368 -21.3309 8.0286
v 41.8020 -15.0251 2.2948
v 43.8963 -15.0251 2.2948
v -37.8190 -7.1838 3.2364
v -31.2811 -10.4182 6.1584
v -26.3370 -10.4070 6.0355
v -16.1416 -11.2094 5.6404
v -11.3605 -10.2481 3.6586
v 34.5045 -6.6419 1.8869
v 39.5611 -9.1616 2.0908
v 43.8963 -11.6813 2.2948
v -45.3685 1.1773 8.3065
v -40.6626 -1.2559 5.7714
v -32.8459 -3.9283 4.0738
v -28.3252 -5.7141 3.3711
v -13.1847 -5.9647 2.1025
v -8.1666 -2.0059 4.1945
v -0.8459 -0.8210 5.7636
v 4.4836 -0.0322 5.7636
v 34.5045 -6.1191 1.8869
v 37.3203 -6.1191 1.8869
v -45.4474 5.7519 8.3868
v -42.5214 5.7519 8.3868
v -5.1197 3.9796 5.7636
v -0.8459 6.3205 5.7636
v 4.4836 4.0928 5.7636
v -45.1253 11.9758 9.3849
v -40.7772 14.3637 9.5179
v -36.7121 16.7516 9.6510
v -38.8395 21.7519 8.9812
v -35.5397 21.7519 8.9812
v -37.8816 27.0086 8.8330
v -35.2381 27.0086 8.8330
v -29.6722 39.4566 8.6849
v -27.3362 39.4566 8.6849
v -29.6722 42.9450 8.6849
v -27.3362 42.9450 8.6849
v -20.9113 -38.3269 9.8741
v -19.5691 -38.3269 9.8741
v -5.0236 -38.2542 9.8793
v -4.8340 -38.2542 9.8793
v -21.2237 -34.2481 10.6408
v -16.9325 -34.7576 13.0151
v -8.2227 -34.7576 13.1624
v -3.0877 -34.2481 10.8618
v -21.7905 -26.2481 11.4523
v -18.8774 -26.2481 15.4523
v -6.8650 -26.2481 15.6267
v -2.4148 -26.2481 11.6267
v -29.1947 -14.5356 10.1288
v -24.5386 -17.6206 11.4344
v -16.3923 -18.0368 13.6399
v -8.9156 -19.8442 13.6449
v -3.9368 -21.3309 10.8992
v -29.1947 -13.4284 10.1288
v -24.8459 -12.3156 10.9577
v -18.6802 -12.4911 10.9904
v -45.3685 1.1773 10.6833
v -43.5062 1.1773 10.6833
v -5.5561 0.5455 13.7636
v -0.8459 -0.4332 13.7636
v 3.8488 0.7732 13.7636
v -45.4474 5.7519 11.1000
v -40.1093 7.4599 13.8778
v -36.8334 9.7371 17.5816
v -5.5561 4.3577 13.7636
v -0.8459 5.8265 13.7636
v 3.8488 3.2207 13.7636
v -45.1253 11.9758 10.6258
v -40.0897 13.2108 13.0187
v -36.2636 13.9518 14.4544
v -38.8849 22.2121 14.2832
v -35.3065 22.2121 14.2832
v -37.5044 29.5140 14.5168
v -35.0645 29.5140 14.5168
v -37.1272 34.1558 17.0706
v -31.7935 37.4717 15.1809
v -27.6315 39.9587 13.7636
v -29.4167 45.6677 14.4480
v -27.2145 45.6677 14.4480
v -28.9646 49.8246 17.5709
v -27.7462 49.8246 17.5709
v -14.2960 -31.5088 18.6573
v -11.4218 -31.5088 18.6573
v -14.8774 -26.2481 18.8140
v -10.8650 -26.2481 18.8140
v -14.1045 -21.4660 18.2704
v -11.6288 -21.4660 18.2704
v -5.4830 1.0597 20.0019
v -0.8790 0.7402 22.3066
v 3.5410 1.0064 21.7636
v -36.8931 9.7371 17.7819
v -36.8334 9.7371 17.7819
v -5.5447 4.9951 22.3032
v -2.0124 4.9264 22.3899
v 3.8669 5.5044 21.9929
v -37.4365 13.7519 18.1931
v -36.2184 13.7519 18.1931
v -5.6064 10.5884 24.6044
v -0.8459 10.9843 24.1809
v 3.8262 10.5586 24.8125
v -37.5862 19.8521 18.3180
v -36.0218 19.8521 18.3180
v -37.1272 32.0194 18.2018
v -34.8908 32.0194 18.2018
v -37.1272 34.1558 18.2018
v -31.8716 37.9061 17.9850
v -28.7363 41.6563 17.7682
v -12.9291 41.6686 25.6115
v -12.6954 41.6686 25.6115
v -28.9397 45.7519 17.8450
v -27.9390 45.7519 17.8450
v -14.4648 45.7519 24.4858
v -11.5601 45.7519 24.4858
v -28.9646 49.8246 17.8676
v -27.7462 49.8246 17.8676
v -14.9212 50.8010 24.2119
v -11.2821 50.8010 24.2119
v 1.7656 1.5301 25.9384
v 3.2515 1.5301 25.9384
v -7.1232 7.0570 29.7636
v -0.7360 5.2886 29.1519
v 3.7312 5.7519 26.8460
v -7.6479 13.4538 30.1738
v -0.6106 13.2402 30.0730
v 3.8262 10.5586 27.0320
v -6.9493 21.7519 32.7912
v -2.7486 21.7519 32.7912
v -13.1889 32.7973 33.2709
v -8.7485 29.9792 32.8220
v -3.0235 29.7519 32.9561
v -13.3626 38.5019 30.2680
v -9.2220 38.5146 30.6357
v -3.6835 35.3606 33.3338
v -14.4021 46.3305 30.4170
v -10.7589 46.3305 30.4170
v -14.9212 50.8010 28.1861
v -11.2821 50.8010 28.1861
v -7.1218 8.5397 34.7296
v -3.2375 8.5397 34.7296
v -7.2923 14.4397 37.5432
v -2.8448 14.4397 37.5432
v -6.6293 21.3345 37.9916
v -3.0493 21.3345 37.9916
v -13.1889 32.7973 34.2942
v -8.7485 29.9792 35.6242
v -3.0235 29.7519 35.6913
v -13.4295 37.7519 34.5428
v -8.5876 37.9171 34.9011
v -3.6835 35.3606 34.6204
v -13.2810 44.0495 34.2719
v -11.0820 44.0495 34.2719
v -5.0138 17.5649 41.8552
v -4.6480 17.5649 41.8552
v -5.0138 18.3896 41.8552
v -4.6480 18.3896 41.8552
f 7 1 6
f 7 2 1
f 8 2 7
f 8 3 2
f 8 4 3
f 8 9 4
f 11 5 10
f 11 6 5
f 12 6 11
f 12 7 6
f 13 7 12
f 13 8 7
f 14 8 13
f 14 9 8
f 16 11 15
f 16 12 11
f 21 1 2
f 21 20 1
f 3 21 2
f 3 22 21
f 4 22 3
f 4 23 22
f 22 18 17
f 22 23 18
f 26 1 20
f 26 6 1
f 26 5 6
f 26 25 5
f 26 19 25
f 26 20 19
f 27 26 20
f 27 20 21
f 28 23 4
f 28 4 9
f 28 24 23
f 28 29 24
f 25 10 5
f 25 30 10
f 31 11 10
f 31 10 30
f 13 12 32
f 13 32 33
f 34 28 9
f 34 9 14
f 14 13 33
f 14 33 34
f 31 15 11
f 31 36 15
f 35 31 30
f 35 36 31
f 32 12 16
f 32 16 37
f 37 16 15
f 37 15 36
f 38 32 37
f 38 33 32
f 18 40 17
f 18 41 40
f 44 19 20
f 44 43 19
f 46 17 40
f 46 22 17
f 46 21 22
f 46 45 21
f 46 39 45
f 46 40 39
f 47 41 18
f 47 18 23
f 24 47 23
f 24 48 47
f 47 42 41
f 47 48 42
f 49 19 43
f 49 25 19
f 50 44 20
f 50 20 26
f 50 49 43
f 50 43 44
f 51 21 45
f 51 27 21
f 51 26 27
f 51 50 26
f 51 44 50
f 51 45 44
f 53 48 24
f 53 24 29
f 29 28 52
f 29 52 53
f 54 25 49
f 54 30 25
f 52 28 34
f 52 34 56
f 34 33 55
f 34 55 56
f 57 52 56
f 57 53 52
f 54 35 30
f 54 58 35
f 59 36 35
f 59 35 58
f 60 37 36
f 60 36 59
f 55 33 38
f 55 38 61
f 38 37 60
f 38 60 61
f 66 62 65
f 66 63 62
f 67 63 66
f 67 64 63
f 69 65 68
f 69 66 65
f 71 39 40
f 71 70 39
f 41 71 40
f 41 72 71
f 42 72 41
f 42 73 72
f 74 69 68
f 74 75 69
f 70 45 39
f 70 77 45
f 45 76 44
f 45 77 76
f 78 77 70
f 78 70 71
f 79 78 71
f 79 71 72
f 80 73 42
f 80 42 48
f 76 50 44
f 76 83 50
f 83 49 50
f 83 82 49
f 84 83 76
f 84 76 77
f 86 80 48
f 86 48 53
f 87 80 86
f 87 81 80
f 82 54 49
f 82 88 54
f 89 83 84
f 89 84 90
f 92 56 55
f 92 55 91
f 93 86 53
f 93 53 57
f 93 57 56
f 93 56 92
f 93 92 85
f 93 85 86
f 94 54 88
f 94 58 54
f 95 59 58
f 95 58 94
f 96 60 59
f 96 59 95
f 96 95 89
f 96 89 90
f 97 91 55
f 97 55 61
f 97 61 60
f 97 60 96
f 97 96 90
f 97 90 91
f 103 62 63
f 103 102 62
f 103 98 102
f 103 99 98
f 64 103 63
f 64 104 103
f 103 100 99
f 103 104 100
f 106 62 102
f 106 65 62
f 106 101 105
f 106 102 101
f 108 104 64
f 108 64 67
f 67 66 107
f 67 107 108
f 106 68 65
f 106 110 68
f 109 106 105
f 109 110 106
f 107 66 69
f 107 69 111
f 73 112 72
f 73 113 112
f 110 74 68
f 110 118 74
f 111 69 75
f 111 75 119
f 75 74 118
f 75 118 119
f 78 120 77
f 78 121 120
f 112 79 72
f 112 122 79
f 79 121 78
f 79 122 121
f 113 73 80
f 113 80 123
f 122 112 113
f 122 113 123
f 81 123 80
f 81 124 123
f 123 114 113
f 123 124 114
f 126 115 125
f 126 116 115
f 127 116 126
f 127 117 116
f 128 119 118
f 128 129 119
f 131 82 83
f 131 130 82
f 120 84 77
f 120 132 84
f 133 132 120
f 133 120 121
f 134 133 121
f 134 121 122
f 86 85 134
f 86 134 135
f 136 124 81
f 136 81 87
f 87 86 135
f 87 135 136
f 135 123 124
f 135 124 136
f 130 88 82
f 130 138 88
f 137 130 129
f 137 138 130
f 131 83 89
f 131 89 139
f 140 84 132
f 140 90 84
f 91 90 140
f 91 140 141
f 141 140 132
f 141 132 133
f 142 134 85
f 142 85 92
f 142 92 91
f 142 91 141
f 142 141 133
f 142 133 134
f 143 88 138
f 143 94 88
f 144 139 89
f 144 89 95
f 144 95 94
f 144 94 143
f 143 138 139
f 143 139 144
f 147 98 99
f 147 146 98
f 100 147 99
f 100 148 147
f 150 98 146
f 150 102 98
f 150 101 102
f 150 149 101
f 150 145 149
f 150 146 145
f 151 150 146
f 151 146 147
f 152 148 100
f 152 100 104
f 153 101 149
f 153 105 101
f 152 104 108
f 152 108 155
f 108 107 154
f 108 154 155
f 153 109 105
f 153 157 109
f 158 110 109
f 158 109 157
f 154 107 111
f 154 111 159
f 160 154 159
f 160 155 154
f 114 161 113
f 114 162 161
f 116 163 115
f 116 164 163
f 117 164 116
f 117 165 164
f 165 156 164
f 165 157 156
f 158 118 110
f 158 166 118
f 166 157 165
f 166 158 157
f 167 159 111
f 167 111 119
f 167 166 158
f 167 158 159
f 161 123 113
f 161 169 123
f 123 168 122
f 123 169 168
f 170 162 114
f 170 114 124
f 170 124 123
f 170 123 169
f 170 169 161
f 170 161 162
f 163 125 115
f 163 172 125
f 173 126 125
f 173 125 172
f 173 172 163
f 173 163 164
f 174 165 117
f 174 117 127
f 174 127 126
f 174 126 173
f 174 173 164
f 174 164 165
f 175 118 166
f 175 128 118
f 167 119 129
f 167 129 176
f 129 128 175
f 129 175 176
f 175 166 167
f 175 167 176
f 177 129 130
f 177 176 129
f 178 130 131
f 178 177 130
f 179 122 168
f 179 134 122
f 169 123 135
f 169 135 180
f 135 134 179
f 135 179 180
f 180 179 168
f 180 168 169
f 182 171 181
f 182 172 171
f 176 137 129
f 176 183 137
f 184 138 137
f 184 137 183
f 185 178 131
f 185 131 139
f 185 139 138
f 185 138 184
f 186 182 181
f 186 187 182
f 189 188 187
f 189 190 188
f 191 190 189
f 191 192 190
f 195 194 193
f 195 196 194
f 198 145 146
f 198 197 145
f 148 199 147
f 148 200 199
f 201 145 197
f 201 149 145
f 198 146 150
f 198 150 202
f 201 197 198
f 201 198 202
f 199 151 147
f 199 203 151
f 151 202 150
f 151 203 202
f 200 148 152
f 200 152 204
f 204 203 199
f 204 199 200
f 201 153 149
f 201 205 153
f 206 205 201
f 206 201 202
f 208 204 152
f 208 152 155
f 207 203 204
f 207 204 208
f 210 153 205
f 210 157 153
f 210 156 157
f 210 209 156
f 211 210 205
f 211 205 206
f 159 158 211
f 159 211 212
f 208 155 160
f 208 160 213
f 213 160 159
f 213 159 212
f 213 212 207
f 213 207 208
f 214 156 209
f 214 164 156
f 165 164 214
f 165 214 215
f 215 214 209
f 215 209 210
f 216 211 158
f 216 158 166
f 216 166 165
f 216 165 215
f 216 215 210
f 216 210 211
f 218 171 172
f 218 217 171
f 177 219 176
f 177 220 219
f 221 177 178
f 221 220 177
f 217 181 171
f 217 222 181
f 218 172 182
f 218 182 223
f 222 217 218
f 222 218 223
f 219 183 176
f 219 225 183
f 226 184 183
f 226 183 225
f 227 221 178
f 227 178 185
f 185 184 226
f 185 226 227
f 222 186 181
f 222 228 186
f 223 182 187
f 223 187 229
f 187 186 228
f 187 228 229
f 228 222 223
f 228 223 229
f 188 229 187
f 188 230 229
f 229 224 223
f 229 230 224
f 231 187 229
f 231 189 187
f 232 230 188
f 232 188 190
f 231 191 189
f 231 233 191
f 232 190 192
f 232 192 234
f 192 191 233
f 192 233 234
f 233 231 232
f 233 232 234
f 235 234 233
f 235 236 234
f 237 193 194
f 237 236 193
f 238 193 236
f 238 195 193
f 237 194 196
f 237 196 239
f 196 195 238
f 196 238 239
f 241 238 240
f 241 239 238
f 243 202 203
f 243 242 202
f 242 206 202
f 242 244 206
f 243 203 207
f 243 207 245
f 245 244 242
f 245 242 243
f 246 206 244
f 246 211 206
f 247 245 207
f 247 207 212
f 212 211 246
f 212 246 247
f 246 244 245
f 246 245 247
f 220 248 219
f 220 249 248
f 250 220 221
f 250 249 220
f 224 251 223
f 224 252 251
f 248 225 219
f 248 253 225
f 254 226 225
f 254 225 253
f 254 253 248
f 254 248 249
f 250 221 227
f 250 227 255
f 255 227 226
f 255 226 254
f 251 229 223
f 251 256 229
f 257 252 224
f 257 224 230
f 256 251 252
f 256 252 257
f 258 254 253
f 258 259 254
f 259 255 254
f 259 260 255
f 261 229 256
f 261 231 229
f 262 257 230
f 262 230 232
f 232 231 261
f 232 261 262
f 261 256 257
f 261 257 262
f 234 263 233
f 234 264 263
f 263 235 233
f 263 265 235
f 264 234 236
f 264 236 266
f 266 236 235
f 266 235 265
f 265 263 264
f 265 264 266
f 267 236 237
f 267 266 236
f 266 238 236
f 266 270 238
f 267 237 239
f 267 239 271
f 270 266 267
f 270 267 271
f 273 268 272
f 273 269 268
f 270 240 238
f 270 274 240
f 271 239 241
f 271 241 275
f 241 240 274
f 241 274 275
f 274 270 271
f 274 271 275
f 277 272 276
f 277 273 272
f 250 278 249
f 250 279 278
f 278 254 249
f 278 281 254
f 281 253 254
f 281 280 253
f 279 250 255
f 279 255 282
f 282 281 278
f 282 278 279
f 280 258 253
f 280 283 258
f 284 259 258
f 284 258 283
f 282 255 260
f 282 260 285
f 285 260 259
f 285 259 284
f 285 284 281
f 285 281 282
f 287 283 286
f 287 284 283
f 290 286 289
f 290 287 286
f 269 291 268
f 269 292 291
f 292 288 291
f 292 289 288
f 293 289 292
f 293 290 289
f 294 268 291
f 294 272 268
f 295 292 269
f 295 269 273
f 296 272 294
f 296 276 272
f 297 295 273
f 297 273 277
f 277 276 296
f 277 296 297
f 297 296 294
f 297 294 295
f 299 280 281
f 299 298 280
f 298 283 280
f 298 300 283
f 299 281 284
f 299 284 301
f 300 298 299
f 300 299 301
f 300 286 283
f 300 302 286
f 301 284 287
f 301 287 303
f 305 286 302
f 305 289 286
f 289 304 288
f 289 305 304
f 306 303 287
f 306 287 290
f 306 305 302
f 306 302 303
f 307 288 304
f 307 291 288
f 308 307 304
f 308 304 305
f 309 306 290
f 309 290 293
f 293 292 308
f 293 308 309
f 309 308 305
f 309 305 306
f 310 291 307
f 310 294 291
f 311 308 292
f 311 292 295
f 295 294 310
f 295 310 311
f 311 310 307
f 311 307 308
f 301 312 300
f 301 313 312
f 312 302 300
f 312 314 302
f 313 301 303
f 313 303 315
f 303 302 314
f 303 314 315
f 314 312 313
f 314 313 315
