# parsimony mesh: eg12712_monomer (source /Users/eranagmon/code/v2e-3d/out/ecoli3d/structures/eg12712_monomer.pdb)
# atoms: 1358  voxel: 16 Å  verts: 48  tris: 88
v -4.8261 -22.1044 -12.6304
v 1.1152 -22.1044 -12.6304
v -4.7079 -12.0466 -12.6730
v 6.1250 -11.4425 -12.5620
v 14.0035 -5.7064 -11.2616
v -18.7960 11.4095 -11.4085
v -9.1590 5.2271 -12.2661
v 5.6396 3.9534 -12.7273
v 14.1348 3.9534 -11.3678
v -18.7960 12.5505 -11.4085
v -9.7493 18.7116 -13.3268
v 5.2355 18.6460 -13.1522
v 13.9359 12.4410 -11.1176
v -4.0085 29.3460 -13.2569
v -0.3673 29.3460 -13.2569
v -4.8401 -22.1128 -2.8333
v 6.1250 -22.1189 -2.3789
v 14.1116 -20.7454 3.2573
v -8.6589 -12.0466 -2.8333
v 11.7819 -16.3730 -7.4093
v 15.2741 -11.4425 -2.3789
v -19.0085 9.7670 -2.8333
v -14.1793 1.7670 -2.8333
v 16.2704 3.9534 -2.8333
v -19.0085 12.6077 -2.8333
v -9.7493 20.6840 -2.5505
v 5.2355 21.2219 -2.5505
v 14.5812 13.2799 -2.8333
v -4.0085 29.3460 -7.6953
v -0.3673 29.3460 -7.6953
v -3.2010 -20.7438 5.9896
v 5.6396 -21.0936 6.3464
v 14.1116 -20.7454 5.9167
v -6.4745 -11.1061 12.0604
v 4.8539 -11.1061 13.7667
v 15.4098 -12.0466 7.2995
v -18.7890 9.5821 5.7346
v -10.7019 3.7383 12.1628
v 4.8539 3.5181 15.1952
v 15.7752 3.9534 7.6341
v -18.7890 12.2287 5.7346
v -10.3604 14.4189 7.6608
v 5.6396 15.1733 8.1320
v 14.5987 13.2345 6.3629
v -3.9491 -5.1458 21.9074
v -1.0032 -5.1458 21.9074
v -3.9491 -2.1054 21.9074
v -1.0032 -2.1054 21.9074
f 3 2 1
f 3 4 2
f 8 3 7
f 8 4 3
f 8 5 4
f 8 9 5
f 11 6 10
f 11 7 6
f 12 7 11
f 12 8 7
f 13 8 12
f 13 9 8
f 14 12 11
f 14 15 12
f 2 16 1
f 2 17 16
f 16 3 1
f 16 19 3
f 20 17 2
f 20 2 4
f 5 20 4
f 5 21 20
f 20 18 17
f 20 21 18
f 23 3 19
f 23 7 3
f 23 6 7
f 23 22 6
f 24 21 5
f 24 5 9
f 25 6 22
f 25 10 6
f 26 11 10
f 26 10 25
f 24 9 13
f 24 13 28
f 28 13 12
f 28 12 27
f 29 11 26
f 29 14 11
f 30 27 12
f 30 12 15
f 29 26 27
f 29 27 30
f 17 31 16
f 17 32 31
f 18 32 17
f 18 33 32
f 31 19 16
f 31 34 19
f 35 34 31
f 35 31 32
f 36 33 18
f 36 18 21
f 36 35 32
f 36 32 33
f 34 23 19
f 34 38 23
f 23 37 22
f 23 38 37
f 40 36 21
f 40 21 24
f 40 39 35
f 40 35 36
f 41 22 37
f 41 25 22
f 42 26 25
f 42 25 41
f 42 41 37
f 42 37 38
f 43 27 26
f 43 26 42
f 42 38 39
f 42 39 43
f 44 40 24
f 44 24 28
f 28 27 43
f 28 43 44
f 43 39 40
f 43 40 44
f 46 34 35
f 46 45 34
f 47 34 45
f 47 38 34
f 46 35 39
f 46 39 48
f 39 38 47
f 39 47 48
