# parsimony mesh: eg12035_monomer (source /Users/eranagmon/code/v2e-flagella/workspace/studies/ecoli-3d/viz/3d/structures/eg12035_monomer.pdb)
# atoms: 1512  voxel: 4 Å  verts: 766  tris: 1576
v 3.3043 4.7069 -38.1746
v 5.9903 4.5484 -38.3496
v 9.9903 5.0216 -38.1276
v 12.0820 5.3379 -37.8787
v 2.7234 7.3798 -38.2365
v 5.9271 7.5056 -38.3641
v 10.0693 7.5056 -38.1413
v 12.2883 7.3798 -37.9581
v 2.9871 9.4839 -38.0201
v 4.5515 9.4839 -38.0201
v 11.4553 9.4713 -37.9448
v 12.2959 9.4713 -37.9448
v -0.2955 1.0909 -34.0706
v 1.9903 0.7319 -34.6160
v 5.9903 0.8562 -34.5562
v 8.3655 1.2566 -33.9908
v -0.6439 3.3798 -34.5322
v 1.9787 3.3761 -36.4763
v 5.9903 2.5484 -36.5562
v 9.9306 3.8077 -35.7934
v 12.0820 5.3379 -37.5959
v -4.2048 8.8896 -34.1497
v -1.9456 7.4857 -35.1895
v 2.0911 8.1881 -35.9353
v 5.9271 8.5670 -35.6097
v 10.1422 7.4261 -36.2461
v 12.2883 7.3798 -37.4596
v -4.2048 9.6334 -34.1497
v -2.0097 10.1115 -35.0076
v 2.1176 9.7928 -35.9383
v 4.5515 9.4839 -36.8035
v 11.4553 9.4713 -37.5630
v 12.2959 9.4713 -37.5630
v -0.6296 0.8976 -31.8191
v 2.0957 0.6491 -31.7186
v 6.0104 0.7430 -31.7186
v 9.8154 0.3344 -32.0000
v 12.6496 0.1238 -30.7872
v -1.9688 3.3798 -31.8191
v 3.4993 1.8563 -30.3183
v 4.6904 1.8563 -30.3183
v 10.7563 3.6104 -32.0000
v 12.6496 2.4309 -30.7872
v -4.4035 8.1001 -31.8191
v -3.3489 6.1001 -31.8191
v 3.5310 8.9132 -31.8191
v 5.9903 7.6532 -31.8191
v 9.1664 6.1198 -31.8191
v -4.4035 9.8381 -31.8191
v -2.0097 11.0450 -31.8191
v 1.5310 10.5867 -31.8191
v 7.8835 -2.6550 -25.8903
v 8.1879 -2.6550 -25.8903
v -0.5505 1.0258 -28.5501
v 1.7744 0.8398 -27.6189
v 6.2870 -0.4981 -27.6224
v 9.7089 -1.8046 -27.4618
v 13.0991 -0.3283 -27.8191
v -4.1469 5.2040 -26.8920
v -2.2263 3.3186 -27.7210
v 1.7744 1.6447 -27.6189
v 4.6904 1.8563 -29.3544
v 11.3864 5.0975 -29.0044
v 13.1915 3.6104 -27.7303
v -4.3702 7.0501 -28.0628
v -2.2681 7.3360 -27.8138
v 1.9231 9.0233 -27.5719
v 5.9903 8.3264 -28.8337
v 10.0279 7.2420 -28.4366
v 13.0311 7.3798 -26.5183
v -4.3574 9.7216 -27.8191
v -1.9844 10.1856 -27.5690
v 1.9231 10.4015 -27.5719
v 6.3215 11.6735 -26.6334
v 9.5951 11.3081 -26.5281
v 12.8545 9.9270 -26.2327
v 7.8756 13.3836 -25.8236
v 7.9983 13.3836 -25.8236
v 3.5034 -2.8335 -22.2667
v 6.3262 -2.9971 -23.6876
v 8.7177 -2.9314 -23.8191
v 15.1267 -3.3351 -22.5204
v 16.4619 -3.3351 -22.5204
v -0.2431 0.9424 -22.9995
v 1.7765 -0.5352 -23.9664
v 5.2169 -2.0128 -24.9333
v 10.7177 -2.0441 -23.8191
v 13.9681 -0.9028 -23.8285
v 16.8296 -0.6202 -22.8331
v -4.1469 5.2040 -25.5630
v -1.7904 3.3186 -24.2812
v 0.0495 1.4331 -25.6661
v 14.9973 3.3798 -25.0662
v 16.9832 3.3798 -23.0662
v -4.2129 7.3798 -25.5389
v -1.9860 7.7047 -24.2990
v 0.6642 8.8672 -23.8191
v 15.0311 7.3798 -25.2578
v 16.9045 7.3798 -23.2578
v -4.1434 9.4780 -25.7017
v -3.3009 9.4780 -25.7017
v 2.7131 11.6735 -24.1374
v 5.2089 13.2027 -25.6829
v 10.6649 12.5936 -24.9903
v 13.9755 11.2487 -23.8578
v 16.5328 9.9038 -22.7253
v 3.6298 13.6430 -23.0162
v 6.3215 14.2021 -24.1374
v 9.5951 14.5610 -23.7218
v 12.4298 14.2413 -22.3236
v 3.6214 -2.7817 -19.8191
v 5.9903 -3.6470 -19.8191
v 10.0537 -3.6931 -19.9449
v 13.8721 -3.5146 -19.9449
v 16.4393 -3.2623 -19.8191
v -0.2431 0.9424 -20.5035
v 1.2983 -0.4826 -19.4297
v 11.4293 -2.1639 -21.3621
v 12.4600 -2.1639 -21.3621
v 17.7424 -0.6202 -19.8191
v -0.6808 3.3798 -20.0565
v 0.2842 3.3798 -18.0565
v 18.5426 3.3798 -19.8191
v -0.6711 6.2345 -20.7847
v 0.7530 7.4926 -19.5985
v 18.4646 7.3798 -19.8191
v 2.2486 11.3798 -19.8191
v 11.8215 13.1930 -18.0445
v 13.8540 12.4442 -19.5544
v 17.2155 10.3504 -19.8191
v 3.5852 13.6619 -19.8191
v 5.9903 15.1057 -19.8191
v 10.2890 15.0517 -19.5544
v 12.4298 14.2413 -20.7112
v 3.9559 -2.6472 -15.8191
v 5.9903 -3.7159 -15.8191
v 9.9903 -4.8161 -15.8191
v 14.2534 -3.6068 -15.7863
v 16.1174 -2.7615 -17.0978
v -0.0940 1.2937 -15.1019
v 1.5659 -0.2719 -16.1888
v 15.7621 -2.4308 -14.4311
v 17.2611 -0.9066 -15.7863
v -1.0669 3.3798 -15.5046
v 0.2842 3.3798 -17.5046
v 18.9995 3.3798 -15.8191
v -1.4210 7.3798 -15.1439
v 0.5716 7.3798 -17.1439
v 19.4578 7.5514 -15.7181
v 20.0457 8.9992 -14.3174
v -0.5661 10.5914 -14.6210
v 0.9906 11.7067 -15.9002
v 11.8215 13.1930 -17.4330
v 14.1003 12.7118 -15.9875
v 18.2450 10.4838 -15.7181
v 20.0457 9.4796 -14.3174
v 2.9494 13.7781 -15.8191
v 6.2302 15.7914 -15.7376
v 10.2890 15.4727 -16.5881
v 12.9220 15.3798 -14.8823
v 7.7235 17.7313 -14.3499
v 9.9903 18.0927 -14.5699
v 12.3825 17.9788 -14.2894
v -0.0326 -2.6482 -9.8491
v 2.3658 -3.3941 -11.4371
v 5.9903 -4.9446 -11.8191
v 9.9903 -5.5704 -11.8191
v 14.2534 -4.0389 -11.9814
v 16.2396 -2.8885 -10.7563
v -4.1232 1.2738 -9.9528
v -1.3966 -0.0496 -11.2343
v 1.2827 -1.3730 -12.5158
v 15.7621 -2.4308 -13.4230
v 17.0665 -0.9066 -11.9814
v -4.7192 3.3798 -10.9146
v -3.0669 3.3798 -12.9146
v 15.9639 5.3411 -9.8425
v 17.5363 3.7566 -11.4331
v -4.7039 7.3798 -10.9554
v -3.4210 7.3798 -12.9554
v 15.8167 7.3798 -10.1683
v 18.2096 7.5514 -12.4238
v 20.0457 8.9992 -13.6947
v -4.1029 9.4792 -10.0072
v -1.6365 11.3686 -11.5128
v 0.1154 13.2581 -13.0184
v 15.2409 11.5618 -11.6845
v 17.9903 10.1822 -13.0575
v 20.0457 9.4796 -13.6947
v -0.0403 13.3999 -10.3517
v 1.6654 13.9939 -11.7387
v 5.3200 16.1323 -11.8191
v 13.6779 15.3798 -11.8191
v 7.3200 18.1401 -11.8191
v 9.9903 18.8267 -11.8191
v 12.4608 18.0663 -11.8191
v 10.8998 -10.8783 -6.0121
v 12.9644 -10.8783 -6.0121
v 3.4763 -7.4699 -7.0865
v 5.9903 -8.1711 -7.6900
v 10.0559 -8.6806 -6.5292
v 12.9644 -9.5229 -6.0121
v -8.3143 -2.9909 -6.0252
v -7.5769 -2.9909 -6.0252
v -0.0326 -2.6482 -9.7285
v 2.0998 -4.5815 -8.4075
v 5.9903 -6.4307 -9.6900
v 10.3234 -6.3936 -8.1554
v 13.9791 -4.2429 -7.9366
v 16.2396 -2.8885 -9.3482
v -8.3143 -2.3272 -6.0252
v -5.6060 -0.2858 -7.0503
v -1.6234 -0.9266 -8.1648
v 0.7233 -2.2848 -7.0619
v 15.3050 -1.8754 -6.6815
v 17.7700 -0.4794 -7.9466
v 21.9903 0.6638 -6.6655
v 24.2847 0.8884 -6.2216
v -4.8902 3.3798 -7.8191
v 15.9639 5.3411 -9.7793
v 17.9545 3.7158 -8.1622
v 21.9903 2.1728 -6.6655
v 24.2847 1.7264 -6.2216
v -4.6755 7.1842 -8.0843
v -3.2238 8.3872 -6.9278
v 11.7442 8.9624 -5.9840
v 14.5412 7.4005 -7.8816
v 16.6085 5.8386 -7.1126
v -4.1029 9.4792 -9.5945
v -1.6320 11.0018 -8.3433
v 1.9903 12.5575 -7.0677
v 5.9903 12.9778 -6.3042
v 10.2427 11.6028 -6.6363
v 13.4160 11.3798 -8.6493
v -0.0403 13.3999 -9.7588
v 1.9903 13.8338 -9.0677
v 6.0141 15.3310 -8.2991
v 9.9903 15.3798 -8.2149
v 12.7462 15.3798 -9.4087
v 7.3634 18.0421 -9.3056
v 9.9903 18.1138 -9.3171
v 12.2255 17.6961 -9.6633
v -4.8277 -11.1369 -2.2528
v -3.3703 -11.1369 -2.2528
v 10.8998 -10.8783 -5.2002
v 14.0498 -10.9983 -4.0753
v 16.5120 -11.1182 -2.9503
v -20.5840 -7.3018 -2.1181
v -18.0097 -7.2493 -2.1068
v -15.7047 -6.7774 -1.9038
v -8.8657 -7.5599 -2.4777
v -6.1005 -8.7840 -2.5658
v -3.0328 -8.6202 -2.2586
v 3.2889 -7.3381 -3.8191
v 5.9903 -9.1312 -3.8191
v 10.5395 -8.8626 -4.5123
v 13.5349 -8.9660 -4.2126
v 17.2313 -8.6202 -3.2198
v -20.5840 -5.4669 -2.1181
v -18.3111 -4.3282 -2.3188
v -15.0882 -4.6202 -2.2195
v -9.2355 -4.4426 -3.8142
v -6.1013 -4.5890 -3.5579
v -3.3465 -6.1871 -1.9714
v 3.0690 -4.8729 -3.8946
v 4.4727 -3.7080 -2.6116
v 11.8788 -6.4954 -5.6198
v 13.9791 -4.9453 -4.8527
v 17.2785 -4.6202 -2.7605
v -16.8931 -0.6202 -2.1599
v -15.3122 -0.6202 -2.1599
v -8.9000 -2.1363 -3.8191
v -5.6331 -0.5115 -3.8191
v -2.0097 0.0919 -3.8191
v 2.2274 -0.6344 -3.6078
v 4.4364 -0.6202 -2.5022
v 15.3050 -1.8754 -5.0047
v 17.9411 -1.3460 -3.7305
v 22.0926 0.3123 -3.8000
v 24.2847 0.8884 -5.1206
v -16.0187 1.3852 -1.8244
v -16.0033 1.3852 -1.8244
v -4.2076 3.3129 -3.7925
v -3.3523 4.6017 -2.4414
v 3.7315 1.5269 -1.9374
v 4.1027 1.5269 -1.9374
v 19.2751 4.7571 -5.1965
v 21.9519 3.2418 -3.8252
v 24.2847 1.7264 -5.1206
v -4.1306 7.2922 -3.5699
v -3.2880 7.2922 -3.5699
v 11.7442 8.9624 -5.5287
v 14.0938 8.3527 -4.0449
v 17.9612 6.4738 -3.8456
v 20.4097 5.8308 -2.5299
v -4.0675 9.4929 -2.0317
v -1.9381 10.3428 -3.5467
v 1.9903 11.4914 -3.8191
v 5.9903 11.3885 -3.8191
v 10.2427 10.9645 -4.0449
v 12.8294 10.6663 -2.8620
v 11.4473 -15.0795 1.0639
v 13.1992 -15.0795 1.0639
v -24.2263 -10.8182 1.8380
v -22.0097 -10.7965 1.8261
v -18.0097 -10.7858 1.8821
v -14.0097 -10.8347 1.8706
v -10.0097 -10.9684 1.5501
v -6.1005 -11.4410 0.1635
v -2.0261 -11.5145 0.1694
v 0.5544 -11.1046 1.4950
v 7.6269 -10.9926 1.1151
v 10.0645 -12.4436 0.3088
v 14.1672 -12.8139 -0.1797
v 17.9033 -12.0635 0.2279
v 21.9903 -11.2348 1.6240
v 24.1220 -10.7549 2.0267
v -36.2149 -6.7895 2.0352
v -35.7551 -6.7895 2.0352
v -24.5243 -8.6202 1.6684
v -21.9543 -8.6292 0.0928
v -18.0097 -9.2493 -0.1179
v -14.2267 -8.3145 -0.0745
v -10.1233 -8.7840 -0.3310
v -7.4944 -10.2265 -1.1814
v -1.0328 -8.6202 -1.0756
v 2.2192 -7.8091 -0.0334
v 5.9476 -8.5936 -0.0977
v 9.9903 -10.0143 -1.3215
v 12.4685 -9.9730 -1.4233
v 19.2313 -8.6202 -1.0111
v 21.9903 -8.6202 0.8056
v 24.1457 -8.6202 1.9976
v -36.3577 -4.6202 1.9028
v -35.4367 -4.6202 1.9028
v -25.0647 -4.6202 1.5881
v -21.9543 -4.3282 -0.5904
v -19.8453 -2.8003 -1.6476
v -13.0882 -4.6202 -1.0140
v -11.3135 -4.6202 -1.0140
v -4.6258 -3.5204 -0.9861
v -2.1460 -4.7387 0.1027
v 2.7855 -5.1945 0.5770
v 4.3705 -4.8133 0.2698
v 19.2785 -4.6202 -1.1174
v 21.9903 -4.6202 0.6124
v 24.1768 -4.6202 1.9107
v -36.2685 -2.4116 1.9558
v -35.5002 -2.4116 1.9558
v -24.9190 -0.6202 1.6858
v -22.0097 -0.6202 0.5937
v -18.8932 -0.6202 -0.9112
v -13.3122 -0.6202 -0.8146
v -10.1392 -0.8089 -0.4920
v -5.7020 -0.5850 -0.9664
v -2.2194 -0.2764 0.1698
v 2.4310 0.0810 0.0743
v 4.4364 -0.6202 -0.8644
v 19.2416 -2.1115 -1.2158
v 22.1137 -0.8157 0.3475
v 24.1636 -2.1867 1.9107
v -24.2848 1.5141 1.9706
v -22.0097 1.6691 1.8025
v -17.4615 2.8415 0.6128
v -14.4443 3.0944 0.5536
v -10.0097 2.3120 1.5257
v -5.6708 2.2299 0.3043
v -2.0895 3.1787 -0.1378
v 2.3885 2.5857 -0.2621
v 4.1027 1.5269 -1.5488
v 21.6232 3.3798 0.1809
v -16.2376 5.5633 2.0057
v -15.5520 5.5633 2.0057
v -4.0675 8.8638 -1.7068
v -2.0153 7.4702 -1.1726
v 2.1802 7.4835 0.8259
v 4.2635 8.8861 1.6241
v 15.1668 8.5704 0.1809
v 17.9903 7.0325 0.1809
v 20.4382 5.8420 0.1809
v -4.0675 9.4929 -1.7068
v -2.0097 10.2251 -1.1744
v 1.9903 10.3138 -0.6762
v 5.9410 10.9870 0.3589
v 9.9903 12.5819 -0.9783
v 12.9788 11.7517 -0.0941
v 7.6185 13.6305 1.7603
v 9.9903 13.6091 1.0217
v 12.0692 13.4348 1.0559
v -4.4512 -14.7163 5.8983
v -3.8910 -14.7163 5.8983
v 11.4473 -15.0795 2.7574
v 13.1992 -15.0795 2.7574
v -24.2263 -10.8182 3.2640
v -22.3023 -10.9139 4.4308
v -18.0097 -11.5396 4.1809
v -14.0097 -11.9883 4.1809
v -9.6308 -11.3712 4.5567
v -6.2158 -12.3791 4.6861
v -2.3384 -12.8173 4.4113
v 0.4482 -10.9995 4.1809
v 7.4123 -11.0482 4.1809
v 10.0645 -12.9834 4.1268
v 14.3156 -13.6471 4.1268
v 17.9903 -12.4857 4.1809
v 21.8793 -11.1873 4.1495
v 24.1220 -10.7549 2.7953
v -37.0077 -7.3910 4.1809
v -34.9110 -7.3910 4.1809
v -24.9707 -8.8654 4.4308
v -23.8307 -10.3622 5.9307
v -8.0449 -10.5863 6.1406
v -7.9805 -10.5863 6.1406
v 2.5914 -8.3811 4.1823
v 5.2947 -8.3811 4.1823
v 23.1386 -10.3053 5.4620
v 24.5146 -8.8312 4.1495
v -37.6372 -4.6202 4.1809
v -33.2251 -4.9407 4.1702
v -30.0097 -4.3809 4.8853
v -27.0031 -4.9083 3.9551
v -0.9455 -3.2903 3.1662
v 2.3937 -4.6045 3.0081
v 4.2683 -5.9186 2.8499
v 24.9178 -4.6202 4.1809
v -36.6392 -2.2611 4.1809
v -33.7572 -1.0475 4.5032
v -30.0097 -0.6202 4.8206
v -26.9190 -0.6202 3.3371
v -1.3243 -0.6202 3.4022
v 1.4557 -0.6202 3.4022
v 23.3998 0.4800 2.9057
v 24.4572 -0.7601 4.2158
v -32.0142 1.3834 6.1766
v -30.0097 1.4100 6.1162
v -25.7747 1.8444 4.5317
v -22.0097 2.5446 4.1809
v -18.4297 3.9913 4.1809
v -12.8853 4.8036 2.9758
v -10.1997 3.7788 4.2578
v -6.0097 2.3939 4.1809
v -2.0999 2.3503 4.1667
v 1.5037 3.4837 4.1667
v 22.3408 3.2476 4.2158
v 24.2739 1.8262 5.5723
v -16.4297 5.6657 4.1809
v -14.1351 5.7491 4.2578
v -11.6597 5.6140 5.6425
v 3.3803 7.4835 4.5771
v 4.2635 8.8861 3.5079
v 15.3865 8.7205 2.8030
v 17.8815 7.6557 4.1542
v 20.3713 5.7191 4.1809
v 3.9895 9.3826 6.1745
v 5.9410 11.3095 4.7711
v 9.9903 12.7237 5.3839
v 13.7279 11.3523 4.0339
v 16.4756 10.0562 5.4697
v 7.6185 13.6305 3.3676
v 9.9903 13.6091 3.3839
v 12.0692 13.4348 2.5982
v -16.0278 -14.6329 10.1243
v -14.0097 -14.9317 9.5542
v -10.0097 -15.1448 9.0670
v -5.8746 -14.9441 8.1572
v -3.7378 -14.8024 8.1809
v -21.5659 -10.9943 8.1809
v -17.6205 -12.9699 8.5469
v -14.0097 -13.7738 7.5542
v -9.6308 -12.6926 6.9042
v -7.3189 -12.6202 6.6692
v -1.4833 -12.2330 7.9468
v 1.5140 -10.7936 8.1251
v 6.0700 -10.8821 8.2814
v 9.9903 -11.2949 7.2008
v 13.9903 -11.4868 7.6471
v 17.7716 -11.0539 8.4914
v 20.5335 -10.8217 8.1809
v -40.7686 -7.4040 8.9958
v -38.2850 -8.1408 7.8698
v -33.6835 -8.3108 7.8394
v -30.0097 -8.0794 8.4447
v -26.1591 -8.4611 7.9335
v -23.5659 -10.2624 8.1809
v -8.0449 -10.5863 6.2049
v -7.9805 -10.5863 6.2049
v -0.1616 -9.9853 9.1241
v 1.5140 -9.7702 8.1251
v 6.0700 -9.7655 8.2814
v 9.9903 -9.5171 9.2008
v 13.9903 -9.9231 9.6471
v 18.0675 -8.7715 10.0372
v 21.6858 -8.6654 8.7583
v 24.6569 -7.6386 7.4741
v -40.7686 -5.8670 8.9958
v -38.1960 -4.5724 7.8656
v -33.6402 -4.8827 7.8403
v -30.0097 -6.3809 6.4447
v -27.5920 -6.4337 6.4352
v 19.8426 -6.4666 10.0426
v 21.9903 -6.4495 10.0471
v 24.7346 -4.9758 8.5568
v -36.5902 -2.3500 6.7355
v -33.5810 -0.9448 7.7966
v -30.0097 0.4377 8.3254
v -27.4941 1.0431 9.0300
v 23.8406 1.2090 10.0240
v 24.5048 -0.3227 8.4867
v -32.0142 1.3834 6.1911
v -30.0097 1.4100 6.3254
v -26.1003 2.1273 7.8904
v -22.0097 2.8146 8.1809
v -17.8089 4.0793 8.3644
v -15.8054 5.1751 9.8200
v -8.9931 4.1351 7.2316
v -6.0621 3.2747 8.4113
v -2.1302 3.7254 8.0969
v 0.6580 4.8863 6.7077
v 22.6280 3.2476 8.4867
v 24.2739 1.8262 7.3573
v -16.3417 5.5775 7.1534
v -14.2871 5.8575 8.3644
v -10.1997 5.8261 8.4113
v -7.4303 5.5251 9.8983
v -0.8771 5.8434 9.3743
v 1.8408 7.2580 8.0969
v 18.3943 7.9137 8.1809
v 20.3997 5.9137 8.1809
v 3.8027 9.8519 8.1809
v 5.9903 11.3994 8.1809
v 9.9903 12.0062 8.1809
v 13.9903 10.9956 8.1809
v 16.3943 9.9166 8.1809
v -16.0278 -14.6329 10.2060
v -14.0097 -14.9317 10.8572
v -10.0097 -15.1448 11.7714
v -6.0701 -14.9001 12.5273
v -3.8027 -14.7474 12.1809
v -28.2825 -11.1256 13.7386
v -26.0097 -11.3925 13.0832
v -22.1621 -11.2479 11.9681
v -17.6205 -12.5675 11.7959
v -14.0097 -13.3453 12.8572
v -10.0097 -14.2622 13.7714
v -7.4437 -14.5666 14.0916
v -2.3985 -12.6202 12.1809
v 2.5201 -11.1510 12.1809
v 4.9023 -11.1510 12.1809
v 18.9591 -10.7632 10.3069
v 20.2330 -10.7632 10.3069
v -44.1701 -6.7138 13.9346
v -42.0651 -7.3091 12.4331
v -38.0097 -8.5886 12.1809
v -34.0097 -8.7363 12.1809
v -29.1598 -8.4499 13.0067
v -26.8602 -8.6525 12.4012
v -23.5970 -10.4011 10.4929
v -0.6055 -9.9512 12.1809
v 0.5201 -9.9512 12.1809
v 6.9023 -9.6220 12.1809
v 9.8696 -7.7256 12.0093
v 13.9903 -7.9231 10.8790
v 18.0675 -8.7715 10.5189
v 20.2330 -9.6922 10.3069
v -44.2606 -4.6202 13.7470
v -42.2732 -4.7311 12.5583
v -38.0097 -5.1248 12.1809
v -33.8925 -4.4331 11.9714
v -29.6862 -4.9625 13.2882
v -27.4997 -4.6202 13.8269
v 11.1225 -5.4391 13.2282
v 13.9903 -4.9144 12.8790
v 18.3113 -4.6634 12.3336
v 21.9903 -4.4495 11.2558
v 24.2428 -3.8796 10.5255
v -44.1838 -2.4931 13.8486
v -43.7777 -2.4931 13.8486
v -32.4811 -2.2063 10.4984
v -30.0097 -1.5623 11.0817
v -26.6622 -0.4222 12.3110
v 19.4467 -2.1962 13.9361
v 22.0310 -0.4936 12.2308
v 24.2428 -1.4576 10.5255
v -24.8237 1.9856 12.1809
v -22.0097 2.5547 12.1809
v -17.9778 4.1123 11.8834
v -15.8054 5.1751 10.3517
v -9.2282 4.3728 13.1206
v -6.0621 3.2681 11.9447
v -2.1302 3.7247 12.3763
v 0.2870 5.1339 13.8399
v 21.5287 3.3798 12.1809
v -16.6233 6.5349 13.0184
v -14.2871 6.3501 11.8834
v -10.3408 5.7442 11.9447
v -7.4303 5.5251 10.4539
v -0.8771 5.8434 11.1732
v 2.0140 7.2910 12.1966
v 5.9903 8.8556 13.4115
v 8.1059 9.3221 14.1158
v 18.7104 8.4711 10.6816
v 20.6962 7.2346 12.0813
v 3.7410 10.0065 10.5534
v 5.9903 10.5047 11.4115
v 9.6596 10.8942 12.5419
v 13.9903 11.2347 12.1809
v 17.8632 11.1244 12.3761
v 20.4554 11.3798 13.4737
v 19.6827 13.4386 14.0706
v 20.0703 13.4386 14.0706
v -4.7770 -14.6430 14.2057
v -3.9776 -14.6430 14.2057
v -28.2825 -11.1256 14.4968
v -26.0097 -11.3925 15.1830
v -22.0097 -11.2215 15.7040
v -18.1053 -10.8959 16.3872
v -14.1490 -11.2752 16.1905
v -10.0097 -12.2622 15.6807
v -6.3751 -12.6782 16.1852
v -3.1559 -12.3220 15.7958
v 3.0288 -11.0025 14.9544
v 4.6395 -11.0025 14.9544
v -44.1701 -6.7138 14.2887
v -42.0097 -6.8935 14.3920
v -38.0097 -7.3317 14.4516
v -34.0097 -7.2670 14.3619
v -29.5432 -8.0871 14.3659
v -26.5560 -8.5780 16.1823
v -22.0097 -10.3009 17.7040
v -19.5023 -10.3615 17.8580
v -12.9085 -10.2304 17.5302
v -10.0097 -10.3084 17.6807
v -7.9731 -10.5943 18.1647
v -0.9666 -10.2201 16.1809
v 1.8134 -9.9127 16.2450
v 5.9798 -9.1983 16.2450
v 8.5698 -7.3271 16.1809
v -44.2606 -4.6202 14.3455
v -42.2705 -4.8052 14.4167
v -38.0097 -6.1966 14.4516
v -34.0097 -6.3932 14.3619
v -30.8039 -6.5240 14.2350
v -26.4974 -4.6202 16.1809
v 10.2390 -4.3115 15.8867
v 13.9903 -2.9144 14.5250
v 16.7800 -2.8602 14.4634
v -44.1838 -2.4931 14.2925
v -43.7777 -2.4931 14.2925
v -25.0246 -0.6202 16.1809
v -9.0314 0.7271 17.1868
v -7.3175 0.7271 17.1868
v 7.3262 0.5832 17.3915
v 9.7755 -0.6982 16.9719
v 13.6724 -0.5393 16.8150
v 18.0539 -0.6741 15.9070
v 20.2215 0.4705 14.6839
v -24.3563 1.6372 16.1809
v -22.0097 2.5334 16.1809
v -17.9778 4.1217 16.3563
v -14.0097 4.1212 16.9799
v -10.4631 3.0165 15.7370
v -5.9944 2.1847 15.9844
v -2.0097 3.2529 16.1809
v 1.1096 4.4915 16.1809
v 7.2868 3.3798 17.5661
v 9.6295 3.0952 17.6479
v 12.1271 1.5721 18.1122
v 19.3116 3.3798 17.3132
v 20.4792 3.3798 15.3132
v -16.6233 6.5349 15.1400
v -14.0097 6.3195 14.9799
v -11.8948 5.4777 14.2871
v 3.1096 5.9463 16.1809
v 6.7812 7.1641 16.7119
v 8.0808 7.3812 16.2223
v 19.7827 7.3798 17.9176
v 20.7109 7.3798 15.9176
v 7.7066 9.9432 16.9606
v 9.6596 10.4291 15.8487
v 13.9903 11.4250 16.1809
v 18.4860 11.4839 16.2265
v 20.4554 11.3798 15.2494
v 19.6827 13.4386 14.2966
v 20.0703 13.4386 14.2966
v -16.8356 -10.7452 18.6739
v -13.8350 -10.6900 20.3919
v -11.9212 -10.6348 22.1099
v -5.3064 -10.7898 18.3565
v -3.3097 -10.7898 18.3565
v -25.1177 -7.7865 19.3267
v -22.0097 -8.3009 20.0103
v -18.3853 -8.7825 20.4074
v -13.8350 -10.0503 20.3919
v -10.3566 -9.6532 20.5383
v -6.6322 -8.6760 19.8741
v -1.9897 -8.8544 19.3080
v 1.7735 -7.8482 20.4761
v 5.8554 -7.3916 20.0255
v 8.2974 -6.9161 18.5886
v -25.0780 -4.8144 20.4684
v -22.0097 -6.3016 22.0103
v -19.9350 -6.5383 22.1410
v -9.0461 -3.8622 21.6664
v -6.3787 -4.9654 20.9285
v -2.0097 -4.6202 20.4682
v 1.1918 -4.6202 21.6478
v 6.3458 -4.6202 20.7272
v 8.4520 -4.6202 18.7272
v -24.5298 -0.7778 19.9175
v -22.9472 0.4504 21.0753
v -16.8952 0.7204 21.2888
v -14.0097 -0.0097 20.6721
v -10.3721 -0.8765 20.0305
v -5.9944 -0.6118 19.5362
v -2.0097 -0.6202 20.0306
v 2.3683 -1.0100 20.5559
v 5.6744 -1.0100 19.8073
v 8.2989 -2.0835 18.5015
v 14.7937 0.8480 18.5279
v 16.6611 0.8480 18.5279
v -24.2041 1.5211 18.4086
v -21.7722 1.9624 19.9175
v -18.1410 2.3026 20.0457
v -14.0097 2.1212 18.6721
v -11.6980 1.6601 18.3945
v -4.6508 2.2418 19.0712
v -2.0097 2.3225 19.0204
v 2.3078 3.2168 18.5049
v 5.2868 3.3798 18.4141
v 10.7224 4.2387 18.6270
v 13.6724 3.0952 19.0494
v 17.3116 3.3798 18.9319
v 3.8527 5.4430 18.2264
v 6.3782 6.7750 18.3157
v 9.6295 7.0161 18.6751
v 13.9903 7.3798 19.4809
v 17.7827 7.3798 19.0312
v 7.7066 9.9432 18.4050
v 9.9903 10.0808 18.4640
v 13.9903 10.2271 18.6555
v 17.2893 10.1383 18.6603
v -12.0949 -10.6348 22.2097
v -11.9212 -10.6348 22.2097
v -17.2683 -7.2035 22.4875
v -13.6608 -8.5702 22.8016
v -10.3566 -8.3027 22.6377
v -7.9580 -6.7577 22.2142
v 2.9623 -6.9223 22.5691
v 4.4321 -6.9223 22.5691
v -24.4600 -3.6106 22.8613
v -22.0097 -4.3016 22.8545
v -18.3649 -4.9711 22.7967
v -14.0097 -4.6202 23.5126
v -10.2315 -4.9654 22.7810
v -7.9580 -6.5288 22.2142
v 3.1918 -4.6202 22.4871
v 4.3458 -4.6202 22.4871
v -24.4600 -2.2163 22.8613
v -21.7722 -0.7778 22.8359
v -18.1410 -0.6159 22.7289
v -14.0097 -2.0097 22.7583
v -11.7128 -2.4802 22.4486
v 3.9537 -2.6031 22.2010
v 4.0225 -2.6031 22.2010
v -20.2806 1.6335 22.3743
v -19.5619 1.6335 22.3743
f 6 1 5
f 6 2 1
f 6 3 2
f 6 7 3
f 7 4 3
f 7 8 4
f 10 5 9
f 10 6 5
f 11 8 7
f 11 12 8
f 17 14 13
f 17 18 14
f 19 1 2
f 19 18 1
f 19 14 18
f 19 15 14
f 20 2 3
f 20 19 2
f 19 16 15
f 19 20 16
f 21 3 4
f 21 20 3
f 24 1 18
f 24 5 1
f 24 17 23
f 24 18 17
f 26 7 6
f 26 6 25
f 21 4 8
f 21 8 27
f 26 20 21
f 26 21 27
f 29 22 28
f 29 23 22
f 24 9 5
f 24 30 9
f 29 24 23
f 29 30 24
f 31 25 6
f 31 6 10
f 31 10 9
f 31 9 30
f 31 30 24
f 31 24 25
f 32 7 26
f 32 11 7
f 33 27 8
f 33 8 12
f 12 11 32
f 12 32 33
f 32 26 27
f 32 27 33
f 35 13 14
f 35 34 13
f 15 35 14
f 15 36 35
f 16 36 15
f 16 37 36
f 39 13 34
f 39 17 13
f 40 35 36
f 40 36 41
f 42 37 16
f 42 16 20
f 43 37 42
f 43 38 37
f 45 17 39
f 45 23 17
f 45 22 23
f 45 44 22
f 25 24 46
f 25 46 47
f 48 42 20
f 48 20 26
f 48 26 25
f 48 25 47
f 49 22 44
f 49 28 22
f 50 29 28
f 50 28 49
f 46 24 30
f 46 30 51
f 51 30 29
f 51 29 50
f 35 54 34
f 35 55 54
f 37 56 36
f 37 57 56
f 57 52 56
f 57 53 52
f 38 57 37
f 38 58 57
f 54 39 34
f 54 60 39
f 55 35 40
f 55 40 61
f 61 60 54
f 61 54 55
f 62 36 56
f 62 41 36
f 62 40 41
f 62 61 40
f 62 55 61
f 62 56 55
f 58 38 43
f 58 43 64
f 43 42 63
f 43 63 64
f 60 45 39
f 60 66 45
f 45 65 44
f 45 66 65
f 66 59 65
f 66 60 59
f 68 47 46
f 68 46 67
f 63 42 48
f 63 48 69
f 48 47 68
f 48 68 69
f 70 63 69
f 70 64 63
f 71 44 65
f 71 49 44
f 50 49 71
f 50 71 72
f 67 46 51
f 67 51 73
f 51 50 72
f 51 72 73
f 72 66 67
f 72 67 73
f 73 68 67
f 73 74 68
f 75 68 74
f 75 69 68
f 76 69 75
f 76 70 69
f 78 74 77
f 78 75 74
f 81 52 53
f 81 80 52
f 86 52 80
f 86 56 52
f 86 55 56
f 86 85 55
f 86 79 85
f 86 80 79
f 87 81 53
f 87 53 57
f 58 87 57
f 58 88 87
f 89 82 88
f 89 83 82
f 60 90 59
f 60 91 90
f 92 55 85
f 92 61 55
f 92 60 61
f 92 91 60
f 92 84 91
f 92 85 84
f 93 88 58
f 93 58 64
f 93 89 88
f 93 94 89
f 95 59 90
f 95 65 59
f 96 95 90
f 96 90 91
f 97 67 66
f 97 66 96
f 93 64 70
f 93 70 98
f 99 93 98
f 99 94 93
f 95 71 65
f 95 100 71
f 101 96 66
f 101 66 72
f 101 72 71
f 101 71 100
f 101 100 95
f 101 95 96
f 97 73 67
f 97 102 73
f 74 73 102
f 74 102 103
f 98 70 76
f 98 76 105
f 76 75 104
f 76 104 105
f 106 98 105
f 106 99 98
f 103 77 74
f 103 108 77
f 107 103 102
f 107 108 103
f 104 75 78
f 104 78 109
f 78 77 108
f 78 108 109
f 110 104 109
f 110 105 104
f 112 79 80
f 112 111 79
f 81 112 80
f 81 113 112
f 115 82 83
f 115 114 82
f 117 79 111
f 117 85 79
f 117 84 85
f 117 116 84
f 118 113 81
f 118 81 87
f 119 82 114
f 119 88 82
f 119 87 88
f 119 118 87
f 118 114 113
f 118 119 114
f 115 83 89
f 115 89 120
f 121 84 116
f 121 91 84
f 122 121 116
f 122 116 117
f 120 89 94
f 120 94 123
f 124 91 121
f 124 96 91
f 97 96 124
f 97 124 125
f 124 121 122
f 124 122 125
f 126 123 94
f 126 94 99
f 127 97 125
f 127 102 97
f 126 99 106
f 126 106 130
f 106 105 129
f 106 129 130
f 127 107 102
f 127 131 107
f 132 108 107
f 132 107 131
f 109 108 132
f 109 132 133
f 129 105 110
f 129 110 134
f 110 109 133
f 110 133 134
f 134 133 128
f 134 128 129
f 112 135 111
f 112 136 135
f 137 112 113
f 137 136 112
f 114 137 113
f 114 138 137
f 139 114 115
f 139 138 114
f 141 111 135
f 141 117 111
f 139 115 120
f 139 120 143
f 142 138 139
f 142 139 143
f 141 122 117
f 141 145 122
f 145 140 144
f 145 141 140
f 146 143 120
f 146 120 123
f 148 122 145
f 148 125 122
f 148 144 147
f 148 145 144
f 146 123 126
f 146 126 149
f 148 127 125
f 148 152 127
f 151 148 147
f 151 152 148
f 129 128 153
f 129 153 154
f 155 149 126
f 155 126 130
f 130 129 154
f 130 154 155
f 156 149 155
f 156 150 149
f 157 127 152
f 157 131 127
f 132 131 157
f 132 157 158
f 159 153 128
f 159 128 133
f 159 133 132
f 159 132 158
f 160 153 159
f 160 154 153
f 161 159 158
f 161 162 159
f 163 159 162
f 163 160 159
f 166 135 136
f 166 165 135
f 137 166 136
f 137 167 166
f 168 137 138
f 168 167 137
f 172 135 165
f 172 141 135
f 172 140 141
f 172 171 140
f 172 164 171
f 172 165 164
f 173 168 138
f 173 138 142
f 174 142 143
f 174 173 142
f 173 169 168
f 173 174 169
f 176 140 171
f 176 144 140
f 176 170 175
f 176 171 170
f 174 143 146
f 174 146 178
f 176 147 144
f 176 180 147
f 180 175 179
f 180 176 175
f 182 178 146
f 182 146 149
f 182 181 177
f 182 177 178
f 183 149 150
f 183 182 149
f 180 151 147
f 180 185 151
f 184 180 179
f 184 185 180
f 186 152 151
f 186 151 185
f 155 154 187
f 155 187 188
f 188 187 181
f 188 181 182
f 183 150 156
f 183 156 189
f 156 155 188
f 156 188 189
f 188 182 183
f 188 183 189
f 186 157 152
f 186 191 157
f 190 186 185
f 190 191 186
f 192 158 157
f 192 157 191
f 193 187 154
f 193 154 160
f 192 161 158
f 192 194 161
f 195 162 161
f 195 161 194
f 193 160 163
f 193 163 196
f 163 162 195
f 163 195 196
f 202 197 201
f 202 198 197
f 165 205 164
f 165 206 205
f 207 165 166
f 207 206 165
f 207 199 206
f 207 200 199
f 167 207 166
f 167 208 207
f 208 200 207
f 208 201 200
f 209 167 168
f 209 208 167
f 210 168 169
f 210 209 168
f 211 204 203
f 211 212 204
f 213 164 205
f 213 171 164
f 213 170 171
f 213 212 170
f 214 213 205
f 214 205 206
f 210 169 174
f 210 174 216
f 215 209 210
f 215 210 216
f 219 170 212
f 219 175 170
f 216 174 178
f 216 178 221
f 178 177 220
f 178 220 221
f 222 216 221
f 222 217 216
f 223 217 222
f 223 218 217
f 224 175 219
f 224 179 175
f 220 177 181
f 220 181 227
f 228 220 227
f 228 221 220
f 229 179 224
f 229 184 179
f 230 185 184
f 230 184 229
f 229 224 225
f 229 225 230
f 234 227 181
f 234 181 187
f 234 233 226
f 234 226 227
f 235 185 230
f 235 190 185
f 236 191 190
f 236 190 235
f 235 230 231
f 235 231 236
f 192 191 236
f 192 236 237
f 236 231 232
f 236 232 237
f 238 237 232
f 238 232 233
f 239 234 187
f 239 187 193
f 238 233 234
f 238 234 239
f 240 192 237
f 240 194 192
f 241 195 194
f 241 194 240
f 240 237 238
f 240 238 241
f 242 239 193
f 242 193 196
f 242 196 195
f 242 195 241
f 242 241 238
f 242 238 239
f 198 245 197
f 198 246 245
f 253 243 252
f 253 244 243
f 255 199 200
f 255 254 199
f 256 197 245
f 256 201 197
f 201 255 200
f 201 256 255
f 246 198 202
f 246 202 257
f 202 201 256
f 202 256 257
f 257 256 245
f 257 245 246
f 257 247 246
f 257 258 247
f 259 249 248
f 259 260 249
f 260 250 249
f 260 261 250
f 204 262 203
f 204 263 262
f 263 251 262
f 263 252 251
f 264 252 263
f 264 253 252
f 265 199 254
f 265 206 199
f 267 256 201
f 267 201 208
f 209 267 208
f 209 268 267
f 267 257 256
f 267 268 257
f 268 258 257
f 268 269 258
f 270 261 260
f 270 271 261
f 272 203 262
f 272 211 203
f 273 263 204
f 273 204 212
f 273 212 211
f 273 211 272
f 274 212 213
f 274 273 212
f 265 214 206
f 265 275 214
f 214 274 213
f 214 275 274
f 275 265 266
f 275 266 276
f 268 209 215
f 268 215 277
f 278 215 216
f 278 277 215
f 277 269 268
f 277 278 269
f 217 278 216
f 217 279 278
f 280 217 218
f 280 279 217
f 281 271 270
f 281 282 271
f 283 212 273
f 283 219 212
f 285 275 276
f 285 276 286
f 222 221 287
f 222 287 288
f 280 218 223
f 280 223 289
f 289 223 222
f 289 222 288
f 289 288 279
f 289 279 280
f 283 224 219
f 283 290 224
f 225 224 290
f 225 290 291
f 290 283 284
f 290 284 291
f 293 227 226
f 293 226 292
f 287 221 228
f 287 228 294
f 228 227 293
f 228 293 294
f 295 287 294
f 295 288 287
f 297 225 291
f 297 230 225
f 296 291 290
f 296 297 291
f 231 230 297
f 231 297 298
f 232 231 298
f 232 298 299
f 300 292 226
f 300 226 233
f 233 232 299
f 233 299 300
f 301 292 300
f 301 293 292
f 244 309 243
f 244 310 309
f 314 302 313
f 314 303 302
f 247 314 246
f 247 315 314
f 320 305 304
f 320 321 305
f 322 248 249
f 322 321 248
f 322 305 321
f 322 306 305
f 250 322 249
f 250 323 322
f 322 307 306
f 322 323 307
f 324 307 323
f 324 308 307
f 325 243 309
f 325 252 243
f 325 251 252
f 325 324 251
f 325 308 324
f 325 309 308
f 326 310 244
f 326 244 253
f 326 311 310
f 326 327 311
f 328 254 255
f 328 327 254
f 329 255 256
f 329 328 255
f 329 312 328
f 329 313 312
f 330 246 314
f 330 257 246
f 330 256 257
f 330 329 256
f 330 313 329
f 330 314 313
f 331 315 247
f 331 247 258
f 331 316 315
f 331 332 316
f 332 317 316
f 332 333 317
f 334 319 318
f 334 335 319
f 337 248 321
f 337 259 248
f 336 321 320
f 336 337 321
f 338 260 259
f 338 259 337
f 339 323 250
f 339 250 261
f 340 251 324
f 340 262 251
f 340 323 339
f 340 324 323
f 326 253 264
f 326 264 342
f 264 263 341
f 264 341 342
f 343 254 327
f 343 265 254
f 342 327 326
f 342 343 327
f 266 265 343
f 266 343 344
f 344 343 327
f 344 327 328
f 331 258 269
f 331 269 345
f 346 331 345
f 346 332 331
f 347 332 346
f 347 333 332
f 348 335 334
f 348 349 335
f 351 336 350
f 351 337 336
f 338 270 260
f 338 352 270
f 351 338 337
f 351 352 338
f 353 339 261
f 353 261 271
f 340 272 262
f 340 354 272
f 353 340 339
f 353 354 340
f 341 263 273
f 341 273 355
f 355 273 272
f 355 272 354
f 274 355 273
f 274 356 355
f 356 341 355
f 356 342 341
f 275 356 274
f 275 357 356
f 358 266 344
f 358 276 266
f 358 343 357
f 358 344 343
f 359 345 269
f 359 269 278
f 279 359 278
f 279 360 359
f 359 346 345
f 359 360 346
f 361 346 360
f 361 347 346
f 362 351 350
f 362 363 351
f 352 281 270
f 352 364 281
f 363 352 351
f 363 364 352
f 353 271 282
f 353 282 365
f 282 281 364
f 282 364 365
f 366 353 365
f 366 354 353
f 367 273 355
f 367 283 273
f 367 354 366
f 367 355 354
f 368 284 283
f 368 283 367
f 357 275 285
f 357 285 369
f 369 368 356
f 369 356 357
f 370 276 358
f 370 286 276
f 370 285 286
f 370 369 285
f 370 357 369
f 370 358 357
f 371 360 279
f 371 279 288
f 372 365 364
f 372 373 365
f 375 284 368
f 375 291 284
f 291 374 290
f 291 375 374
f 376 375 368
f 376 368 369
f 294 293 378
f 294 378 379
f 371 288 295
f 371 295 380
f 295 294 379
f 295 379 380
f 374 296 290
f 374 381 296
f 382 297 296
f 382 296 381
f 382 381 374
f 382 374 375
f 383 298 297
f 383 297 382
f 383 382 375
f 383 375 376
f 299 298 383
f 299 383 384
f 383 376 377
f 383 377 384
f 385 300 299
f 385 299 384
f 378 293 301
f 378 301 386
f 301 300 385
f 301 385 386
f 387 385 384
f 387 388 385
f 389 385 388
f 389 386 385
f 303 392 302
f 303 393 392
f 305 394 304
f 305 395 394
f 396 305 306
f 396 395 305
f 307 396 306
f 307 397 396
f 308 397 307
f 308 398 397
f 399 308 309
f 399 398 308
f 400 309 310
f 400 399 309
f 400 390 399
f 400 391 390
f 311 400 310
f 311 401 400
f 392 313 302
f 392 403 313
f 403 312 313
f 403 402 312
f 404 393 303
f 404 303 314
f 404 403 392
f 404 392 393
f 315 404 314
f 315 405 404
f 316 405 315
f 316 406 405
f 407 316 317
f 407 406 316
f 319 408 318
f 319 409 408
f 394 320 304
f 394 410 320
f 411 410 394
f 411 394 395
f 413 412 398
f 413 398 399
f 414 401 311
f 414 311 327
f 415 312 402
f 415 328 312
f 407 317 333
f 407 333 417
f 416 406 407
f 416 407 417
f 418 318 408
f 418 334 318
f 409 319 335
f 409 335 419
f 421 320 410
f 421 336 320
f 423 414 327
f 423 327 343
f 343 342 422
f 343 422 423
f 424 328 415
f 424 344 328
f 424 343 344
f 424 423 343
f 424 414 423
f 424 415 414
f 425 417 333
f 425 333 347
f 426 334 418
f 426 348 334
f 419 335 349
f 419 349 427
f 349 348 426
f 349 426 427
f 427 420 419
f 427 428 420
f 429 336 421
f 429 350 336
f 429 420 428
f 429 421 420
f 422 342 356
f 422 356 430
f 423 357 343
f 423 431 357
f 431 422 430
f 431 423 422
f 425 347 361
f 425 361 433
f 361 360 432
f 361 432 433
f 434 428 427
f 434 435 428
f 429 362 350
f 429 436 362
f 435 429 428
f 435 436 429
f 437 363 362
f 437 362 436
f 438 364 363
f 438 363 437
f 366 365 439
f 366 439 440
f 441 367 366
f 441 366 440
f 442 430 356
f 442 356 368
f 442 368 367
f 442 367 441
f 431 369 357
f 431 443 369
f 442 431 430
f 442 443 431
f 432 360 371
f 432 371 444
f 445 432 444
f 445 433 432
f 438 372 364
f 438 446 372
f 439 365 373
f 439 373 447
f 373 372 446
f 373 446 447
f 448 439 447
f 448 440 439
f 443 376 369
f 443 449 376
f 377 376 449
f 377 449 450
f 379 378 451
f 379 451 452
f 453 444 371
f 453 371 380
f 453 380 379
f 453 379 452
f 450 384 377
f 450 455 384
f 454 450 449
f 454 455 450
f 451 378 386
f 451 386 457
f 458 451 457
f 458 452 451
f 455 387 384
f 455 459 387
f 460 388 387
f 460 387 459
f 459 455 456
f 459 456 460
f 461 457 386
f 461 386 389
f 461 389 388
f 461 388 460
f 461 460 456
f 461 456 457
f 466 390 391
f 466 465 390
f 396 467 395
f 396 468 467
f 469 396 397
f 469 468 396
f 469 462 468
f 469 463 462
f 470 397 398
f 470 469 397
f 469 464 463
f 469 470 464
f 471 390 465
f 471 399 390
f 471 464 470
f 471 465 464
f 472 466 391
f 472 391 400
f 401 472 400
f 401 473 472
f 475 402 403
f 475 474 402
f 476 403 404
f 476 475 403
f 405 476 404
f 405 477 476
f 478 405 406
f 478 477 405
f 481 408 409
f 481 480 408
f 467 411 395
f 467 484 411
f 411 483 410
f 411 484 483
f 485 470 398
f 485 398 412
f 471 413 399
f 471 486 413
f 413 485 412
f 413 486 485
f 485 471 470
f 485 486 471
f 488 473 401
f 488 401 414
f 487 472 473
f 487 473 488
f 489 402 474
f 489 415 402
f 489 414 415
f 489 488 414
f 489 473 488
f 489 474 473
f 490 489 474
f 490 474 475
f 490 475 476
f 490 476 491
f 491 476 477
f 491 477 492
f 478 406 416
f 478 416 493
f 494 416 417
f 494 493 416
f 496 408 480
f 496 418 408
f 495 480 479
f 495 496 480
f 497 481 409
f 497 409 419
f 498 419 420
f 498 497 419
f 498 481 497
f 498 482 481
f 499 410 483
f 499 421 410
f 499 420 421
f 499 498 420
f 499 482 498
f 499 483 482
f 500 492 493
f 500 493 501
f 494 417 425
f 494 425 502
f 501 493 494
f 501 494 502
f 503 418 496
f 503 426 418
f 427 426 503
f 427 503 504
f 503 496 497
f 503 497 504
f 502 425 433
f 502 433 508
f 504 434 427
f 504 509 434
f 435 434 509
f 435 509 510
f 509 504 505
f 509 505 510
f 511 436 435
f 511 435 510
f 510 505 506
f 510 506 511
f 512 437 436
f 512 436 511
f 438 437 512
f 438 512 513
f 441 440 515
f 441 515 516
f 517 442 441
f 517 441 516
f 518 443 442
f 518 442 517
f 508 433 445
f 508 445 520
f 445 444 519
f 445 519 520
f 520 519 507
f 520 507 508
f 521 438 513
f 521 446 438
f 447 446 521
f 447 521 522
f 521 513 514
f 521 514 522
f 515 440 448
f 515 448 523
f 448 447 522
f 448 522 523
f 524 515 523
f 524 516 515
f 518 449 443
f 518 526 449
f 525 518 517
f 525 526 518
f 528 519 444
f 528 444 453
f 453 452 527
f 453 527 528
f 526 454 449
f 526 529 454
f 530 455 454
f 530 454 529
f 456 455 530
f 456 530 531
f 532 457 456
f 532 456 531
f 527 452 458
f 527 458 533
f 458 457 532
f 458 532 533
f 463 534 462
f 463 535 534
f 464 535 463
f 464 536 535
f 537 464 465
f 537 536 464
f 538 465 466
f 538 537 465
f 534 468 462
f 534 542 468
f 542 467 468
f 542 541 467
f 543 542 534
f 543 534 535
f 543 535 536
f 543 536 544
f 545 544 536
f 545 536 537
f 546 538 466
f 546 466 472
f 474 547 473
f 474 548 547
f 478 549 477
f 478 550 549
f 553 479 480
f 553 552 479
f 554 480 481
f 554 553 480
f 482 554 481
f 482 555 554
f 556 482 483
f 556 555 482
f 556 539 555
f 556 540 539
f 557 467 541
f 557 484 467
f 557 483 484
f 557 556 483
f 557 540 556
f 557 541 540
f 546 472 487
f 546 487 558
f 559 473 547
f 559 488 473
f 559 487 488
f 559 558 487
f 560 548 474
f 560 474 489
f 490 560 489
f 490 561 560
f 562 490 491
f 562 561 490
f 549 492 477
f 549 563 492
f 492 562 491
f 492 563 562
f 564 550 478
f 564 478 493
f 564 493 492
f 564 492 563
f 564 563 549
f 564 549 550
f 552 495 479
f 552 566 495
f 566 551 565
f 566 552 551
f 567 496 495
f 567 495 566
f 568 497 496
f 568 496 567
f 570 569 555
f 570 555 556
f 571 561 562
f 571 562 572
f 563 492 500
f 563 500 573
f 573 572 562
f 573 562 563
f 574 500 501
f 574 573 500
f 575 501 502
f 575 574 501
f 577 565 576
f 577 566 565
f 578 497 568
f 578 504 497
f 505 504 578
f 505 578 579
f 578 568 569
f 578 569 579
f 506 505 579
f 506 579 580
f 579 569 570
f 579 570 580
f 581 573 574
f 581 574 582
f 583 575 502
f 583 502 508
f 583 508 507
f 583 507 582
f 583 582 574
f 583 574 575
f 584 506 580
f 584 511 506
f 512 511 584
f 512 584 585
f 586 513 512
f 586 512 585
f 587 514 513
f 587 513 586
f 517 516 589
f 517 589 590
f 592 582 507
f 592 507 519
f 587 522 514
f 587 594 522
f 593 587 586
f 593 594 587
f 595 523 522
f 595 522 594
f 596 589 516
f 596 516 524
f 596 524 523
f 596 523 595
f 596 595 588
f 596 588 589
f 590 525 517
f 590 597 525
f 598 526 525
f 598 525 597
f 597 590 591
f 597 591 598
f 592 519 528
f 592 528 602
f 528 527 601
f 528 601 602
f 603 526 598
f 603 529 526
f 530 529 603
f 530 603 604
f 603 598 599
f 603 599 604
f 531 530 604
f 531 604 605
f 604 599 600
f 604 600 605
f 606 532 531
f 606 531 605
f 601 527 533
f 601 533 607
f 533 532 606
f 533 606 607
f 608 601 607
f 608 602 601
f 609 608 607
f 609 610 608
f 538 611 537
f 538 612 611
f 540 613 539
f 540 614 613
f 615 540 541
f 615 614 540
f 616 541 542
f 616 615 541
f 617 542 543
f 617 616 542
f 618 543 544
f 618 617 543
f 611 545 537
f 611 619 545
f 545 618 544
f 545 619 618
f 612 538 546
f 612 546 620
f 620 619 611
f 620 611 612
f 548 621 547
f 548 622 621
f 624 551 552
f 624 623 551
f 625 552 553
f 625 624 552
f 626 553 554
f 626 625 553
f 613 555 539
f 613 627 555
f 627 554 555
f 627 626 554
f 556 555 627
f 556 627 628
f 628 627 613
f 628 613 614
f 629 628 614
f 629 614 615
f 630 629 615
f 630 615 616
f 631 617 618
f 631 618 632
f 633 632 618
f 633 618 619
f 634 620 546
f 634 546 558
f 621 559 547
f 621 635 559
f 559 634 558
f 559 635 634
f 622 548 560
f 622 560 636
f 635 621 622
f 635 622 636
f 637 560 561
f 637 636 560
f 638 551 623
f 638 565 551
f 639 638 623
f 639 623 624
f 567 566 639
f 567 639 640
f 640 639 624
f 640 624 625
f 641 568 567
f 641 567 640
f 641 640 625
f 641 625 626
f 642 627 555
f 642 555 569
f 642 569 568
f 642 568 641
f 642 641 626
f 642 626 627
f 628 570 556
f 628 643 570
f 637 561 571
f 637 571 644
f 645 571 572
f 645 644 571
f 646 572 573
f 646 645 572
f 638 576 565
f 638 647 576
f 639 566 577
f 639 577 648
f 577 576 647
f 577 647 648
f 648 647 638
f 648 638 639
f 649 570 643
f 649 580 570
f 654 653 644
f 654 644 645
f 646 573 581
f 646 581 655
f 654 645 646
f 654 646 655
f 656 581 582
f 656 655 581
f 649 584 580
f 649 657 584
f 585 584 657
f 585 657 658
f 659 586 585
f 659 585 658
f 662 589 588
f 662 588 661
f 662 661 650
f 662 650 651
f 590 589 662
f 590 662 663
f 591 590 663
f 591 663 664
f 666 665 652
f 666 652 653
f 667 666 653
f 667 653 654
f 656 582 592
f 656 592 669
f 668 655 656
f 668 656 669
f 670 586 659
f 670 593 586
f 671 594 593
f 671 593 670
f 670 659 660
f 670 660 671
f 672 661 588
f 672 588 595
f 672 595 594
f 672 594 671
f 672 671 660
f 672 660 661
f 673 591 664
f 673 598 591
f 599 598 673
f 599 673 674
f 600 599 674
f 600 674 675
f 675 674 665
f 675 665 666
f 669 592 602
f 669 602 677
f 677 676 668
f 677 668 669
f 679 600 675
f 679 605 600
f 678 675 674
f 678 679 675
f 680 606 605
f 680 605 679
f 607 606 680
f 607 680 681
f 677 602 608
f 677 608 682
f 681 676 677
f 681 677 682
f 681 609 607
f 681 683 609
f 684 682 608
f 684 608 610
f 610 609 683
f 610 683 684
f 683 681 682
f 683 682 684
f 617 685 616
f 617 686 685
f 620 688 619
f 620 689 688
f 629 690 628
f 629 691 690
f 685 630 616
f 685 692 630
f 630 691 629
f 630 692 691
f 686 617 631
f 686 631 693
f 693 692 685
f 693 685 686
f 694 631 632
f 694 693 631
f 693 687 686
f 693 694 687
f 688 633 619
f 688 695 633
f 633 694 632
f 633 695 694
f 689 620 634
f 689 634 696
f 696 695 688
f 696 688 689
f 635 696 634
f 635 697 696
f 698 635 636
f 698 697 635
f 699 636 637
f 699 698 636
f 690 643 628
f 690 700 643
f 701 700 690
f 701 690 691
f 702 701 691
f 702 691 692
f 704 695 696
f 704 696 705
f 705 696 697
f 705 697 706
f 708 699 637
f 708 637 644
f 707 698 699
f 707 699 708
f 709 643 700
f 709 649 643
f 714 651 650
f 714 650 713
f 714 713 703
f 714 703 704
f 714 704 705
f 714 705 715
f 715 705 706
f 715 706 716
f 718 708 644
f 718 644 653
f 718 653 652
f 718 652 717
f 718 717 707
f 718 707 708
f 720 654 655
f 720 719 654
f 721 649 709
f 721 657 649
f 658 657 721
f 658 721 722
f 721 709 710
f 721 710 722
f 723 659 658
f 723 658 722
f 724 660 659
f 724 659 723
f 724 723 711
f 724 711 712
f 725 713 650
f 725 650 661
f 725 661 660
f 725 660 724
f 725 724 712
f 725 712 713
f 726 651 714
f 726 662 651
f 663 662 726
f 663 726 727
f 726 714 715
f 726 715 727
f 664 663 727
f 664 727 728
f 727 715 716
f 727 716 728
f 729 717 652
f 729 652 665
f 728 716 717
f 728 717 729
f 719 667 654
f 719 731 667
f 667 730 666
f 667 731 730
f 720 655 668
f 720 668 732
f 732 731 719
f 732 719 720
f 733 664 728
f 733 673 664
f 734 729 665
f 734 665 674
f 674 673 733
f 674 733 734
f 733 728 729
f 733 729 734
f 735 666 730
f 735 675 666
f 675 734 674
f 675 735 734
f 736 735 730
f 736 730 731
f 737 732 668
f 737 668 676
f 736 731 732
f 736 732 737
f 738 674 734
f 738 678 674
f 739 679 678
f 739 678 738
f 738 734 735
f 738 735 739
f 680 679 739
f 680 739 740
f 739 735 736
f 739 736 740
f 741 737 676
f 741 676 681
f 741 681 680
f 741 680 740
f 741 740 736
f 741 736 737
f 687 742 686
f 687 743 742
f 742 693 686
f 742 745 693
f 693 744 692
f 693 745 744
f 743 687 694
f 743 694 746
f 745 742 743
f 745 743 746
f 747 694 695
f 747 746 694
f 749 697 698
f 749 748 697
f 701 750 700
f 701 751 750
f 744 702 692
f 744 752 702
f 702 751 701
f 702 752 751
f 753 752 744
f 753 744 745
f 754 753 745
f 754 745 746
f 747 695 704
f 747 704 755
f 755 704 703
f 755 703 754
f 754 746 747
f 754 747 755
f 748 706 697
f 748 756 706
f 749 698 707
f 749 707 757
f 756 748 749
f 756 749 757
f 758 700 750
f 758 709 700
f 710 709 758
f 710 758 759
f 758 750 751
f 758 751 759
f 760 759 751
f 760 751 752
f 761 712 711
f 761 711 760
f 761 760 752
f 761 752 753
f 762 754 703
f 762 703 713
f 762 713 712
f 762 712 761
f 762 761 753
f 762 753 754
f 763 706 756
f 763 716 706
f 764 757 707
f 764 707 717
f 764 717 716
f 764 716 763
f 763 756 757
f 763 757 764
f 765 710 759
f 765 722 710
f 766 760 711
f 766 711 723
f 723 722 765
f 723 765 766
f 765 759 760
f 765 760 766
