# parsimony mesh: eg12794_monomer (source /Users/eranagmon/code/v2e-molecules/workspace/studies/ecoli-3d/viz/3d/structures/eg12794_monomer.pdb)
# atoms: 757  voxel: 16 Å  verts: 32  tris: 56
v -2.8385 -9.2439 -9.4095
v 7.8151 -9.8111 -9.8432
v 17.2310 -8.5800 -8.4513
v -16.2661 8.6273 -7.1923
v -8.1771 2.3309 -9.0988
v 7.8151 0.8862 -12.1882
v 17.7839 0.8862 -9.7613
v -16.2661 8.9837 -7.1923
v -8.1849 9.5551 -7.8688
v 7.8151 10.5382 -9.4498
v 17.0243 10.2944 -9.3004
v -17.1794 -8.5493 7.0465
v -8.1771 -10.4891 1.3860
v 8.5494 -10.5075 1.5371
v 17.2310 -8.5800 -3.3683
v -18.3095 2.3309 1.3860
v -13.5051 -2.0393 -3.6201
v 12.4092 0.8862 5.7086
v 17.7839 0.8862 -2.2914
v -18.0948 9.9712 0.8952
v -8.1849 11.3856 0.8952
v 7.5560 10.8627 0.9040
v 17.0243 10.2944 -4.4234
v -17.1794 -8.5493 9.6954
v -8.1849 -9.7353 10.5919
v 3.7057 -9.1736 10.3572
v -18.7798 0.8862 10.4109
v -8.1849 0.8862 12.5165
v 4.4092 0.8862 11.0007
v -18.6503 10.2355 10.1159
v -8.1849 10.7168 10.8198
v 2.0499 9.9777 10.2405
f 6 1 5
f 6 2 1
f 6 3 2
f 6 7 3
f 9 4 8
f 9 5 4
f 10 5 9
f 10 6 5
f 11 6 10
f 11 7 6
f 14 1 2
f 14 13 1
f 15 2 3
f 15 14 2
f 17 1 13
f 17 5 1
f 17 4 5
f 17 16 4
f 17 12 16
f 17 13 12
f 18 14 15
f 18 15 19
f 20 4 16
f 20 8 4
f 21 9 8
f 21 8 20
f 22 10 9
f 22 9 21
f 23 11 10
f 23 10 22
f 23 22 18
f 23 18 19
f 25 12 13
f 25 24 12
f 26 13 14
f 26 25 13
f 27 12 24
f 27 16 12
f 28 27 24
f 28 24 25
f 26 14 18
f 26 18 29
f 28 25 26
f 28 26 29
f 30 16 27
f 30 20 16
f 21 20 30
f 21 30 31
f 30 27 28
f 30 28 31
f 32 29 18
f 32 18 22
f 32 22 21
f 32 21 31
f 32 31 28
f 32 28 29
