# parsimony mesh: eg12043_monomer (source /Users/eranagmon/code/v2e-abund/workspace/studies/ecoli-3d/viz/3d/structures/eg12043_monomer.pdb)
# atoms: 580  voxel: 4 Å  verts: 458  tris: 924
v 6.8776 0.7720 -24.1206
v 8.3017 0.7720 -24.1206
v 6.8776 1.9192 -24.1206
v 8.3017 1.9192 -24.1206
v -0.4983 -6.7699 -19.8161
v -0.2688 -6.7699 -19.8161
v -0.8111 -4.7267 -20.1387
v 1.2719 -4.7846 -20.4787
v 4.5428 -3.4899 -20.3732
v -1.2563 -0.7267 -20.4603
v 1.5829 -0.7267 -21.6460
v 5.7102 -0.6729 -21.7643
v 8.3031 0.3540 -21.6405
v -1.0919 1.9411 -20.2450
v 1.6727 3.2740 -20.7199
v 5.5597 3.2608 -21.9843
v 8.1680 3.2608 -21.2676
v 3.0659 5.7939 -19.9868
v 5.5829 5.6893 -19.9341
v 7.5977 5.3074 -19.6856
v -0.4983 -6.7699 -19.3680
v 1.2101 -7.0449 -17.8361
v 5.5829 -7.2051 -16.1620
v 7.6265 -6.7714 -15.6721
v -1.2332 -4.9514 -17.8770
v 1.2101 -6.2955 -17.8361
v 5.7589 -4.7846 -18.2493
v 8.1740 -4.7267 -16.4036
v -1.5894 -0.3594 -17.2888
v -0.3185 1.2188 -15.7210
v 7.2163 -0.5478 -17.7042
v 8.0759 -0.5478 -17.7042
v -0.7935 3.2959 -17.0497
v 0.0404 3.2959 -17.0497
v 7.2230 1.8563 -16.1154
v 7.8198 3.2231 -17.5254
v -1.1563 7.2733 -16.1541
v 1.6727 7.1856 -17.9937
v 5.5829 7.6893 -18.3841
v 7.8225 6.8938 -17.4930
v -1.3248 9.9307 -16.2540
v 1.7884 11.2677 -16.4367
v 5.3522 11.1420 -16.3211
v 7.8289 9.7212 -16.0614
v 3.2586 13.4312 -15.7834
v 3.8651 13.4312 -15.7834
v -1.3086 -11.2938 -11.9133
v 0.7946 -11.2938 -11.9133
v -1.5314 -8.7267 -12.5303
v 1.7419 -8.9878 -13.5670
v 5.8121 -7.8669 -13.8969
v 7.6265 -6.7714 -15.4012
v -1.6781 -4.9514 -13.7887
v 0.0224 -6.4345 -15.2208
v 7.2982 -6.2691 -12.7345
v 8.4004 -4.8522 -13.8969
v -2.0047 -0.3594 -13.8940
v -0.3185 1.2188 -15.3963
v 6.7257 0.4135 -13.6405
v 8.5721 -1.5865 -13.6405
v -4.9821 3.9934 -12.3931
v -2.3587 2.9887 -13.8947
v -0.3185 1.9840 -15.3963
v 6.6819 3.2231 -13.6785
v 7.7215 4.5230 -15.0372
v -5.3194 7.2733 -12.6696
v -3.1563 7.2733 -14.6696
v 7.2243 5.7514 -12.3705
v 8.1328 7.1602 -13.6785
v -5.0707 11.2733 -12.4346
v -2.4767 11.4664 -13.5032
v 0.7938 12.5630 -13.6405
v 6.0385 12.0277 -13.6405
v 8.1664 10.0277 -13.6405
v -4.6505 13.4570 -12.0798
v -3.6286 13.4570 -12.0798
v 2.7938 13.5144 -13.6405
v 4.0385 13.5144 -13.6405
v -1.0447 -15.2846 -8.3923
v 0.2914 -15.2846 -8.3923
v -4.4473 -10.7918 -7.8659
v -2.5099 -12.3761 -9.4625
v 1.8763 -12.5421 -9.9276
v 3.9510 -11.1237 -8.7963
v -4.4473 -10.3474 -7.8659
v -3.5672 -8.8991 -9.3757
v 3.4613 -10.6558 -11.4629
v 5.0998 -9.0841 -9.9339
v -4.4626 -3.0830 -7.7305
v -3.4358 -4.5405 -9.2945
v 7.2030 -6.0305 -9.6405
v 8.2017 -4.0305 -9.6405
v -12.9345 1.0627 -7.8395
v -10.4171 1.0201 -7.8723
v -6.0444 -0.4029 -8.5233
v -3.7754 -0.7267 -10.6615
v 3.2364 0.4574 -7.9535
v 5.5131 -0.2983 -9.4283
v 8.2017 -2.0792 -9.6405
v -13.3474 3.2733 -8.0301
v -10.4171 3.2733 -8.5006
v -6.3561 2.9054 -10.3796
v -4.2223 1.3268 -11.5785
v 3.3124 3.2733 -7.8861
v 4.7266 3.2733 -9.8861
v -13.1401 5.7239 -7.9610
v -10.2739 7.1437 -8.6520
v -7.3194 7.2733 -10.6645
v 3.5687 5.2859 -7.6549
v 5.7677 6.1003 -9.2492
v 8.2211 8.2977 -9.6405
v -8.8450 9.7784 -8.4887
v -6.1861 11.0314 -9.9317
v -2.3440 12.0135 -9.8811
v 1.5462 12.2045 -9.8792
v 5.3780 11.7818 -9.8792
v 8.2211 9.9120 -9.6405
v -4.6505 13.4570 -11.3748
v -3.6286 13.4570 -11.3748
v 2.8550 13.4368 -11.3716
v 3.9081 13.4368 -11.3716
v -1.3275 -15.4312 -5.6405
v 1.6080 -15.3495 -5.2858
v 3.6738 -14.8254 -3.7160
v -4.7274 -11.3128 -5.6405
v -3.3275 -13.3128 -5.6405
v 2.9580 -13.7904 -6.3827
v 4.5333 -12.5649 -5.2858
v -4.7274 -9.6322 -5.6405
v -4.0091 -7.6322 -5.6405
v 5.8807 -8.7267 -5.6405
v -4.4626 -3.0830 -7.5961
v -2.8117 -4.4396 -5.7377
v 0.3098 -3.1294 -3.8792
v 6.2094 -4.8443 -5.8358
v 7.8336 -3.5894 -7.2994
v -17.0044 0.7165 -4.4004
v -14.3276 0.1964 -5.6964
v -10.4171 -0.4571 -5.6405
v -5.8159 -0.5946 -5.6596
v -2.4171 -0.7267 -5.4614
v 1.7731 -1.0633 -5.5019
v 5.2670 -2.0755 -5.8358
v 7.8336 -2.3014 -7.2994
v -17.1815 3.2733 -4.7308
v -15.3474 3.2733 -6.7308
v -4.5025 1.3293 -3.7232
v -2.2298 2.9069 -4.4211
v 1.3124 3.2733 -6.5542
v -16.8490 6.2597 -4.3343
v -14.6101 7.3251 -5.5389
v -11.5117 8.3906 -6.7434
v -4.7155 9.0930 -4.0070
v -2.2298 7.5651 -4.5010
v 1.9744 6.8809 -6.1057
v 5.5829 7.9485 -6.6401
v 7.9018 8.8277 -7.2656
v -13.4134 9.6676 -4.0767
v -10.2739 10.0515 -5.5022
v -6.1961 10.0215 -5.4604
v -2.4171 9.9019 -6.4155
v 1.5829 10.1406 -6.4214
v 5.5829 9.9903 -6.6401
v 7.9018 9.5668 -7.2656
v 2.7166 -19.1648 -0.2971
v 4.0511 -19.1648 -0.2971
v -4.8926 -15.0797 -0.3868
v -2.3689 -15.7200 -1.6883
v 1.4631 -17.1674 -1.6344
v 4.4327 -16.3859 -1.6344
v -5.0547 -12.7565 -1.6883
v -3.6700 -14.1097 -3.0535
v 6.4268 -12.7191 -1.7961
v 7.8667 -11.3808 -0.5665
v -4.8574 -9.8379 -1.6405
v -3.2084 -7.8379 -1.6405
v 6.1649 -8.9349 -1.7961
v 7.8667 -10.4071 -0.5665
v -1.2084 -6.0131 -1.6405
v 1.6191 -4.5179 -1.9426
v 3.9740 -5.0888 -1.9426
v -17.4794 0.1159 -1.6405
v -14.4171 -1.1399 -1.6405
v -10.2944 -0.2966 -1.4905
v -7.1692 0.3312 -2.7239
v 2.9765 -2.5840 -3.4774
v 3.7230 -2.5840 -3.4774
v -18.6772 3.2733 -1.6405
v -8.8793 1.7195 -0.0573
v -6.0683 1.8520 -1.4905
v -2.2298 3.7313 -1.6012
v 1.5829 4.6160 -0.5949
v 4.9052 4.8185 -0.3117
v -17.8745 7.4651 -1.7981
v -14.4771 8.9763 -1.6309
v -10.4171 8.6349 -0.3984
v -6.1961 8.2677 -1.6159
v -2.2298 6.6362 -1.6012
v 1.9205 7.2792 -0.4531
v 5.2767 7.2733 -0.2052
v -17.2490 9.5284 -0.5698
v -14.4771 9.5980 -1.6309
v -10.4171 9.8672 -2.3984
v -7.3822 9.6709 -2.9328
v 3.4789 9.2904 0.2778
v 4.5190 9.2904 0.2778
v 2.7166 -19.1648 0.6940
v 4.0511 -19.1648 0.6940
v -4.8060 -15.0058 2.3595
v -2.4171 -16.0744 2.3595
v 1.4631 -17.2763 2.1602
v 4.5633 -16.4214 2.1602
v -8.4349 -10.7674 4.2911
v -6.4504 -12.3511 2.7185
v 6.1030 -12.7191 2.2060
v 7.8667 -11.3808 0.7703
v -8.4349 -10.1595 4.2911
v -6.0747 -9.0572 2.9806
v -2.4199 -7.9664 2.3644
v 1.5829 -8.4756 2.4182
v 5.1264 -9.1072 1.9211
v 7.8667 -10.4071 0.7703
v -4.8621 -6.7164 4.3368
v -2.4199 -6.7111 2.3644
v 1.5829 -6.6637 0.4182
v 3.6355 -6.6635 0.4053
v -17.5263 0.0549 2.3595
v -14.4171 -0.7936 2.3595
v -11.1946 0.4248 2.3595
v 7.3640 1.2264 4.2836
v 7.7053 1.2264 4.2836
v 19.2878 1.1861 4.2122
v 19.6781 1.1861 4.2122
v -20.8680 4.6457 3.2457
v -19.6035 3.2968 2.0912
v -9.1946 1.9785 2.3595
v -6.4171 2.6749 2.3595
v -2.4171 3.1552 2.3595
v 1.5829 3.4800 2.3595
v 6.1346 3.2875 2.3256
v 9.2564 3.3232 3.0809
v 13.5829 4.4711 3.4814
v 17.8059 3.3816 3.9284
v 19.7396 3.2733 4.1513
v -21.0256 7.2733 2.8830
v -19.9149 7.2733 0.8830
v -12.8741 9.0263 0.7772
v -10.4171 8.6349 1.1017
v -6.4171 8.1516 1.5160
v -2.4171 8.1122 1.3626
v 0.8123 8.6165 0.7269
v 7.2767 7.2733 0.5427
v 9.5829 7.2733 1.1455
v 13.6825 7.3230 2.9773
v 17.8613 7.3230 4.0017
v 19.6931 7.2733 4.2429
v -20.7775 9.5355 3.5047
v -18.5162 9.7723 2.2466
v -13.9845 10.8914 2.5633
v -10.7420 11.5474 3.3472
v -6.4171 10.4033 3.5160
v -2.4171 10.1987 3.3626
v 2.1411 11.0406 2.5294
v 5.3996 10.6336 2.4637
v 9.5829 9.4515 2.6869
v 12.4155 9.4741 3.2266
v 19.4267 11.2733 4.3382
v 19.6113 11.2733 4.3382
v -12.4281 13.2855 4.3495
v -12.2919 13.2855 4.3495
v 3.4700 13.3021 4.3318
v 3.6135 13.3021 4.3318
v 19.5774 13.2772 4.3563
v 19.5876 13.2772 4.3563
v -4.6244 -14.8821 6.3595
v -2.3399 -15.1532 6.5629
v 1.5829 -15.2229 5.2877
v 3.8913 -14.8846 4.5914
v -8.6924 -11.0257 6.3595
v -6.6244 -13.0257 6.3595
v -0.9551 -14.4334 8.0319
v 1.6449 -12.9507 7.0637
v 4.0900 -12.7267 4.9855
v -8.6924 -9.6025 6.3595
v -6.2841 -8.0110 5.9719
v -2.8024 -8.6103 5.9719
v 1.6449 -10.2751 6.3212
v 3.9506 -10.4740 4.9624
v -4.8621 -6.7164 4.3801
v -4.3926 -6.7164 4.3801
v -16.9276 0.7888 6.3595
v -14.7442 0.5951 6.6184
v -11.6583 0.7890 5.4577
v 7.3640 1.2264 4.5165
v 7.7053 1.2264 4.5165
v 19.2878 1.1861 4.6948
v 19.6781 1.1861 4.6948
v -20.8680 4.6457 5.6578
v -19.2088 3.2968 6.7385
v -13.6289 1.5352 8.1244
v -10.3618 1.9468 6.6184
v -6.4171 2.7841 6.3595
v -2.4171 3.0305 6.3595
v 1.5829 3.0214 6.3595
v 5.8516 2.3293 6.0537
v 9.2564 2.4652 6.0537
v 13.5829 3.3352 6.3595
v 17.8059 2.4800 6.1607
v 20.0546 3.2513 6.1607
v -20.9253 7.0561 6.7385
v -20.3893 5.5779 8.3244
v 7.0047 8.9348 7.2449
v 9.5829 8.5223 6.9497
v 13.6825 8.1631 6.3004
v 17.0001 8.3828 6.3595
v 20.3557 7.2733 6.3595
v -20.7142 9.4950 6.3595
v -18.4171 10.0499 6.3595
v -14.6015 11.8282 6.3595
v -9.6253 13.0635 4.6375
v -6.3368 12.3432 6.1263
v -2.4171 11.3886 6.3595
v 1.9152 12.4225 6.2438
v 5.3091 11.1690 6.0391
v 9.5829 9.4515 4.9497
v 12.4155 9.4741 4.9277
v 19.1133 11.2762 5.9692
v 19.7894 11.2762 5.9692
v -12.6015 13.4292 6.3595
v -10.7420 13.5819 6.1263
v -7.6165 13.5797 7.3041
v 3.4700 13.3021 4.8333
v 3.6135 13.3021 4.8333
v 19.5774 13.2772 4.3757
v 19.5876 13.2772 4.3757
v -4.8153 -15.4463 10.3595
v -2.3399 -15.5171 10.1940
v 0.0608 -15.0845 11.4170
v -8.7664 -11.0847 9.3332
v -6.0159 -12.3280 10.7461
v -2.5883 -12.6690 10.4546
v 0.6207 -12.9507 10.1940
v -8.7664 -9.7949 9.3332
v -6.4171 -9.7575 9.9394
v -2.3933 -9.0041 10.8394
v 0.4380 -8.8760 10.6557
v -0.5651 -6.5663 12.1865
v -0.2439 -6.5663 12.1865
v -16.5228 1.2139 10.3595
v -16.2494 1.2139 10.3595
v 11.5132 1.2311 12.1899
v 11.6468 1.2311 12.1899
v 19.4116 1.1583 11.9508
v 21.5829 0.8861 11.1274
v 24.1384 0.8720 11.1254
v -17.2850 3.2523 10.6398
v -14.9720 3.0534 10.6220
v -10.4171 3.7447 9.4211
v -6.1929 4.1949 10.3741
v -2.6924 4.2871 10.2981
v 1.5829 4.1574 9.2239
v 5.5829 4.2311 9.3407
v 10.0010 3.2249 10.6347
v 13.1811 3.1827 10.6607
v 17.7428 3.1887 10.5411
v 21.5292 3.2513 9.5934
v 24.1670 3.2733 11.2084
v -20.4527 8.2446 8.4619
v -18.8004 7.0561 9.6068
v -14.4171 7.2733 11.1854
v -10.4171 7.2733 10.9673
v -7.3191 7.2733 11.6238
v -1.5426 6.1355 11.5904
v 1.3999 7.3906 10.8093
v 5.6360 7.4702 9.3028
v 9.7265 6.3697 10.3915
v 13.4624 6.2107 10.4227
v 17.5413 7.5208 10.5464
v 21.3580 7.2167 10.6767
v 23.8062 5.3949 12.0588
v -20.4527 9.3067 8.4619
v -18.4171 9.6175 9.0683
v -14.1580 11.1286 9.6154
v -10.4171 11.2733 10.3958
v -6.4716 11.3344 10.4252
v -2.4171 11.1639 10.3595
v 1.3999 10.5652 10.1179
v 4.3380 10.3612 8.6234
v 19.0085 9.9449 9.2946
v 19.8893 9.9449 9.2946
v -12.6520 13.4689 8.5431
v -10.4171 13.6498 8.8496
v -7.6165 13.5797 8.8294
v -4.7146 -15.4981 13.0717
v -2.3534 -15.5995 14.3868
v 1.4696 -15.4375 14.4009
v 3.8996 -15.2280 15.7618
v -4.7146 -13.5713 13.0717
v -3.2063 -12.4334 14.3868
v 2.2734 -12.5380 14.4009
v 3.8996 -13.7456 15.7618
v -1.7348 -8.7267 14.3595
v 0.8474 -8.7267 14.3595
v -0.6687 -6.4410 14.3595
v -0.1573 -6.4410 14.3595
v -16.5271 1.2020 12.4230
v -16.3151 1.2020 12.4230
v 11.5132 1.2311 12.4006
v 11.6468 1.2311 12.4006
v 19.4116 1.1583 13.6032
v 21.3710 0.9462 14.7057
v 24.0206 0.9507 14.3595
v -16.5271 1.9050 12.4230
v -16.3151 1.9050 12.4230
v -4.7102 5.0885 12.4721
v -4.2093 5.0885 12.4721
v 11.2101 3.2733 12.5340
v 11.9801 3.2733 12.5340
v 18.8227 3.2733 13.9635
v 21.3710 2.9850 15.5626
v 24.0670 2.9850 14.2794
v -5.3191 7.2733 12.9577
v -2.6924 7.3906 13.0848
v -0.0554 8.8022 12.7708
v 11.1555 5.4354 12.5512
v 12.0487 5.4354 12.5512
v 18.7407 6.3719 13.2546
v 21.5829 6.1884 13.4307
v 23.8062 5.3949 12.8927
v -5.3267 9.7857 13.0446
v -2.4171 9.9740 13.1817
v -0.0554 9.6952 12.7708
v -1.6291 -15.1228 18.3595
v 1.6421 -15.3444 18.5302
v 3.8996 -15.2280 17.3106
v -1.9502 -12.7267 18.3595
v 2.3280 -12.5380 18.5302
v 3.8996 -13.7456 17.3106
v -0.7864 -9.0834 18.0483
v 0.3727 -9.0834 18.0483
v -0.6046 -6.5063 16.5074
v -0.2439 -6.5063 16.5074
v 22.5630 1.2445 16.3931
v 23.6110 1.2445 16.3931
v 22.5630 1.4595 16.3931
v 23.6110 1.4595 16.3931
v -4.4862 -14.8170 23.5559
v -2.7669 -14.8732 22.2755
v 0.3483 -14.9293 20.9951
v -4.4862 -14.5830 23.5559
v -2.4931 -13.5223 22.0497
v 0.3710 -12.7267 20.9201
v -0.5614 -10.6546 20.4714
v -0.1317 -10.6546 20.4714
v -4.4862 -14.8170 24.4377
v -4.0614 -14.8170 24.4377
v -4.4862 -14.5830 24.4377
v -4.0614 -14.5830 24.4377
f 3 2 1
f 3 4 2
f 7 6 5
f 7 8 6
f 10 8 7
f 10 11 8
f 11 9 8
f 11 12 9
f 13 1 2
f 13 12 1
f 14 11 10
f 14 15 11
f 16 1 12
f 16 3 1
f 16 11 15
f 16 12 11
f 13 2 4
f 13 4 17
f 17 4 3
f 17 3 16
f 18 16 15
f 18 19 16
f 20 16 19
f 20 17 16
f 6 21 5
f 6 22 21
f 21 7 5
f 21 25 7
f 26 22 6
f 26 6 8
f 26 25 21
f 26 21 22
f 27 8 9
f 27 26 8
f 26 23 22
f 26 27 23
f 28 23 27
f 28 24 23
f 25 10 7
f 25 29 10
f 31 27 9
f 31 9 12
f 13 31 12
f 13 32 31
f 31 28 27
f 31 32 28
f 29 14 10
f 29 33 14
f 34 15 14
f 34 14 33
f 33 29 30
f 33 30 34
f 36 32 13
f 36 13 17
f 35 31 32
f 35 32 36
f 38 15 34
f 38 18 15
f 37 34 33
f 37 38 34
f 39 19 18
f 39 18 38
f 36 17 20
f 36 20 40
f 20 19 39
f 20 39 40
f 41 38 37
f 41 42 38
f 42 39 38
f 42 43 39
f 44 39 43
f 44 40 39
f 46 42 45
f 46 43 42
f 49 48 47
f 49 50 48
f 23 50 22
f 23 51 50
f 52 23 24
f 52 51 23
f 54 22 50
f 54 26 22
f 54 25 26
f 54 53 25
f 54 49 53
f 54 50 49
f 52 24 28
f 52 28 56
f 55 51 52
f 55 52 56
f 53 29 25
f 53 57 29
f 58 30 29
f 58 29 57
f 60 56 28
f 60 28 32
f 32 31 59
f 32 59 60
f 63 30 58
f 63 34 30
f 63 33 34
f 63 62 33
f 62 58 57
f 62 63 58
f 59 31 35
f 59 35 64
f 65 35 36
f 65 64 35
f 62 37 33
f 62 67 37
f 67 61 66
f 67 62 61
f 65 36 40
f 65 40 69
f 68 64 65
f 68 65 69
f 67 41 37
f 67 71 41
f 70 67 66
f 70 71 67
f 72 42 41
f 72 41 71
f 69 40 44
f 69 44 74
f 44 43 73
f 44 73 74
f 76 70 75
f 76 71 70
f 72 45 42
f 72 77 45
f 73 43 46
f 73 46 78
f 78 46 45
f 78 45 77
f 83 47 48
f 83 82 47
f 82 80 79
f 82 83 80
f 86 47 82
f 86 49 47
f 86 81 85
f 86 82 81
f 87 83 48
f 87 48 50
f 51 87 50
f 51 88 87
f 87 84 83
f 87 88 84
f 90 49 86
f 90 53 49
f 88 51 55
f 88 55 91
f 92 55 56
f 92 91 55
f 96 53 90
f 96 57 53
f 96 89 95
f 96 90 89
f 92 56 60
f 92 60 99
f 99 60 59
f 99 59 98
f 101 93 100
f 101 94 93
f 102 94 101
f 102 95 94
f 103 57 96
f 103 62 57
f 103 61 62
f 103 102 61
f 103 95 102
f 103 96 95
f 105 98 59
f 105 59 64
f 105 104 97
f 105 97 98
f 106 101 100
f 106 107 101
f 108 61 102
f 108 66 61
f 108 101 107
f 108 102 101
f 105 64 68
f 105 68 110
f 109 104 105
f 109 105 110
f 111 68 69
f 111 110 68
f 113 66 108
f 113 70 66
f 112 108 107
f 112 113 108
f 72 71 114
f 72 114 115
f 111 69 74
f 111 74 117
f 74 73 116
f 74 116 117
f 118 70 113
f 118 75 70
f 114 71 76
f 114 76 119
f 76 75 118
f 76 118 119
f 118 113 114
f 118 114 119
f 120 72 115
f 120 77 72
f 121 116 73
f 121 73 78
f 121 78 77
f 121 77 120
f 121 120 115
f 121 115 116
f 80 122 79
f 80 123 122
f 126 79 122
f 126 82 79
f 126 81 82
f 126 125 81
f 127 123 80
f 127 80 83
f 84 127 83
f 84 128 127
f 127 124 123
f 127 128 124
f 125 85 81
f 125 129 85
f 130 86 85
f 130 85 129
f 131 128 84
f 131 84 88
f 130 90 86
f 130 133 90
f 90 132 89
f 90 133 132
f 131 88 91
f 131 91 135
f 136 91 92
f 136 135 91
f 139 93 94
f 139 138 93
f 132 95 89
f 132 140 95
f 95 139 94
f 95 140 139
f 141 140 132
f 141 132 133
f 141 133 134
f 141 134 142
f 143 98 97
f 143 97 142
f 136 92 99
f 136 99 144
f 144 99 98
f 144 98 143
f 143 135 136
f 143 136 144
f 146 93 138
f 146 100 93
f 146 137 145
f 146 138 137
f 147 140 141
f 147 141 148
f 149 142 97
f 149 97 104
f 149 148 141
f 149 141 142
f 146 106 100
f 146 151 106
f 150 146 145
f 150 151 146
f 152 107 106
f 152 106 151
f 149 104 109
f 149 109 155
f 154 148 149
f 154 149 155
f 156 109 110
f 156 155 109
f 157 110 111
f 157 156 110
f 152 112 107
f 152 159 112
f 158 152 151
f 158 159 152
f 160 113 112
f 160 112 159
f 161 114 113
f 161 113 160
f 161 160 153
f 161 153 154
f 162 115 114
f 162 114 161
f 162 161 154
f 162 154 155
f 116 115 162
f 116 162 163
f 162 155 156
f 162 156 163
f 157 111 117
f 157 117 164
f 117 116 163
f 117 163 164
f 163 156 157
f 163 157 164
f 169 122 123
f 169 168 122
f 124 169 123
f 124 170 169
f 170 165 169
f 170 166 165
f 172 122 168
f 172 126 122
f 172 125 126
f 172 171 125
f 172 167 171
f 172 168 167
f 173 170 124
f 173 124 128
f 175 125 171
f 175 129 125
f 176 130 129
f 176 129 175
f 177 173 128
f 177 128 131
f 178 173 177
f 178 174 173
f 179 130 176
f 179 133 130
f 134 133 179
f 134 179 180
f 181 177 131
f 181 131 135
f 183 137 138
f 183 182 137
f 139 183 138
f 139 184 183
f 185 139 140
f 185 184 139
f 186 134 180
f 186 142 134
f 187 181 135
f 187 135 143
f 187 143 142
f 187 142 186
f 186 180 181
f 186 181 187
f 188 137 182
f 188 145 137
f 185 140 147
f 185 147 190
f 189 184 185
f 189 185 190
f 191 147 148
f 191 190 147
f 188 150 145
f 188 194 150
f 195 151 150
f 195 150 194
f 198 191 148
f 198 148 154
f 198 154 153
f 198 153 197
f 198 192 191
f 198 199 192
f 199 193 192
f 199 200 193
f 195 158 151
f 195 202 158
f 201 195 194
f 201 202 195
f 203 159 158
f 203 158 202
f 203 202 195
f 203 195 196
f 204 197 153
f 204 153 160
f 204 160 159
f 204 159 203
f 204 203 196
f 204 196 197
f 205 200 199
f 205 206 200
f 166 207 165
f 166 208 207
f 210 167 168
f 210 209 167
f 207 169 165
f 207 211 169
f 211 168 169
f 211 210 168
f 208 166 170
f 208 170 212
f 211 207 208
f 211 208 212
f 214 167 209
f 214 171 167
f 215 212 170
f 215 170 173
f 216 173 174
f 216 215 173
f 214 175 171
f 214 218 175
f 218 213 217
f 218 214 213
f 219 176 175
f 219 175 218
f 216 174 178
f 216 178 222
f 222 178 177
f 222 177 221
f 222 221 215
f 222 215 216
f 224 176 219
f 224 179 176
f 223 219 218
f 223 224 219
f 225 180 179
f 225 179 224
f 224 219 220
f 224 220 225
f 226 221 177
f 226 177 181
f 181 180 225
f 181 225 226
f 226 225 220
f 226 220 221
f 228 182 183
f 228 227 182
f 229 183 184
f 229 228 183
f 227 188 182
f 227 235 188
f 229 184 189
f 229 189 236
f 237 189 190
f 237 236 189
f 238 190 191
f 238 237 190
f 192 238 191
f 192 239 238
f 193 239 192
f 193 240 239
f 241 230 240
f 241 231 230
f 244 232 243
f 244 233 232
f 246 188 235
f 246 194 188
f 246 234 245
f 246 235 234
f 196 195 247
f 196 247 248
f 249 197 196
f 249 196 248
f 250 198 197
f 250 197 249
f 251 199 198
f 251 198 250
f 252 240 193
f 252 193 200
f 252 241 240
f 252 253 241
f 253 242 241
f 253 254 242
f 255 242 254
f 255 243 242
f 256 243 255
f 256 244 243
f 246 201 194
f 246 258 201
f 257 246 245
f 257 258 246
f 247 195 202
f 247 202 259
f 259 202 201
f 259 201 258
f 260 247 259
f 260 248 247
f 261 248 260
f 261 249 248
f 262 249 261
f 262 250 249
f 251 205 199
f 251 263 205
f 262 251 250
f 262 263 251
f 252 200 206
f 252 206 264
f 264 206 205
f 264 205 263
f 265 252 264
f 265 253 252
f 266 253 265
f 266 254 253
f 267 256 255
f 267 268 256
f 269 260 259
f 269 270 260
f 272 263 271
f 272 264 263
f 273 268 267
f 273 274 268
f 210 275 209
f 210 276 275
f 277 210 211
f 277 276 210
f 278 211 212
f 278 277 211
f 275 214 209
f 275 280 214
f 280 213 214
f 280 279 213
f 281 276 277
f 281 277 282
f 278 212 215
f 278 215 283
f 283 282 277
f 283 277 278
f 279 217 213
f 279 284 217
f 285 218 217
f 285 217 284
f 220 219 286
f 220 286 287
f 288 283 215
f 288 215 221
f 288 221 220
f 288 220 287
f 287 282 283
f 287 283 288
f 285 223 218
f 285 289 223
f 290 286 219
f 290 219 224
f 290 224 223
f 290 223 289
f 290 289 285
f 290 285 286
f 228 291 227
f 228 292 291
f 293 228 229
f 293 292 228
f 231 294 230
f 231 295 294
f 233 296 232
f 233 297 296
f 291 235 227
f 291 299 235
f 235 298 234
f 235 299 298
f 293 229 236
f 293 236 301
f 300 292 293
f 300 293 301
f 302 236 237
f 302 301 236
f 303 237 238
f 303 302 237
f 304 238 239
f 304 303 238
f 305 230 294
f 305 240 230
f 305 239 240
f 305 304 239
f 306 295 231
f 306 231 241
f 305 294 295
f 305 295 306
f 242 306 241
f 242 307 306
f 296 243 232
f 296 308 243
f 243 307 242
f 243 308 307
f 297 233 244
f 297 244 309
f 309 308 296
f 309 296 297
f 298 245 234
f 298 310 245
f 311 310 298
f 311 298 299
f 255 254 314
f 255 314 315
f 309 244 256
f 309 256 316
f 310 257 245
f 310 317 257
f 318 258 257
f 318 257 317
f 259 258 318
f 259 318 319
f 261 260 320
f 261 320 321
f 322 262 261
f 322 261 321
f 323 263 262
f 323 262 322
f 325 265 264
f 325 264 324
f 325 324 312
f 325 312 313
f 326 314 254
f 326 254 266
f 266 265 325
f 266 325 326
f 326 325 313
f 326 313 314
f 315 267 255
f 315 327 267
f 328 316 256
f 328 256 268
f 319 269 259
f 319 329 269
f 320 260 270
f 320 270 330
f 270 269 329
f 270 329 330
f 331 320 330
f 331 321 320
f 323 271 263
f 323 332 271
f 324 264 272
f 324 272 333
f 272 271 332
f 272 332 333
f 333 332 323
f 333 323 324
f 334 267 327
f 334 273 267
f 335 328 268
f 335 268 274
f 274 273 334
f 274 334 335
f 334 327 328
f 334 328 335
f 337 275 276
f 337 336 275
f 336 280 275
f 336 340 280
f 280 339 279
f 280 340 339
f 337 276 281
f 337 281 341
f 342 281 282
f 342 341 281
f 341 338 337
f 341 342 338
f 343 279 339
f 343 284 279
f 344 285 284
f 344 284 343
f 344 343 339
f 344 339 340
f 286 285 344
f 286 344 345
f 344 340 341
f 344 341 345
f 342 282 287
f 342 287 346
f 346 287 286
f 346 286 345
f 347 346 345
f 347 348 346
f 350 291 292
f 350 349 291
f 356 291 349
f 356 299 291
f 350 292 300
f 350 300 357
f 358 300 301
f 358 357 300
f 302 358 301
f 302 359 358
f 360 302 303
f 360 359 302
f 361 303 304
f 361 360 303
f 362 304 305
f 362 361 304
f 306 362 305
f 306 363 362
f 307 363 306
f 307 364 363
f 364 351 363
f 364 352 351
f 365 307 308
f 365 364 307
f 309 365 308
f 309 366 365
f 366 353 365
f 366 354 353
f 367 354 366
f 367 355 354
f 356 311 299
f 356 369 311
f 311 368 310
f 311 369 368
f 370 369 356
f 370 356 357
f 370 357 358
f 370 358 371
f 372 371 358
f 372 358 359
f 373 360 361
f 373 361 374
f 375 374 361
f 375 361 362
f 313 312 375
f 313 375 376
f 376 375 362
f 376 362 363
f 377 314 313
f 377 313 376
f 378 315 314
f 378 314 377
f 377 364 365
f 377 365 378
f 366 309 316
f 366 316 379
f 380 366 379
f 380 367 366
f 368 317 310
f 368 381 317
f 318 317 381
f 318 381 382
f 382 381 368
f 382 368 369
f 319 318 382
f 319 382 383
f 382 369 370
f 382 370 383
f 383 370 371
f 383 371 384
f 384 371 372
f 384 372 385
f 322 321 385
f 322 385 386
f 387 323 322
f 387 322 386
f 388 375 312
f 388 312 324
f 388 324 323
f 388 323 387
f 388 387 374
f 388 374 375
f 389 315 378
f 389 327 315
f 390 379 316
f 390 316 328
f 390 328 327
f 390 327 389
f 390 389 378
f 390 378 379
f 391 319 383
f 391 329 319
f 330 329 391
f 330 391 392
f 391 383 384
f 391 384 392
f 393 385 321
f 393 321 331
f 331 330 392
f 331 392 393
f 393 392 384
f 393 384 385
f 337 394 336
f 337 395 394
f 338 395 337
f 338 396 395
f 398 336 394
f 398 340 336
f 341 340 398
f 341 398 399
f 398 394 395
f 398 395 399
f 400 396 338
f 400 338 342
f 401 396 400
f 401 397 396
f 399 345 341
f 399 402 345
f 400 342 346
f 400 346 403
f 402 347 345
f 402 404 347
f 403 346 348
f 403 348 405
f 405 348 347
f 405 347 404
f 407 349 350
f 407 406 349
f 352 408 351
f 352 409 408
f 354 410 353
f 354 411 410
f 412 354 355
f 412 411 354
f 413 349 406
f 413 356 349
f 414 407 350
f 414 350 357
f 414 357 356
f 414 356 413
f 413 406 407
f 413 407 414
f 416 359 360
f 416 415 359
f 417 351 408
f 417 363 351
f 418 409 352
f 418 352 364
f 417 408 409
f 417 409 418
f 419 353 410
f 419 365 353
f 420 419 410
f 420 410 411
f 421 412 355
f 421 355 367
f 415 372 359
f 415 422 372
f 416 360 373
f 416 373 423
f 422 415 416
f 422 416 423
f 424 373 374
f 424 423 373
f 425 363 417
f 425 376 363
f 426 418 364
f 426 364 377
f 377 376 425
f 377 425 426
f 425 417 418
f 425 418 426
f 427 365 419
f 427 378 365
f 379 378 427
f 379 427 428
f 428 427 419
f 428 419 420
f 429 421 367
f 429 367 380
f 380 379 428
f 380 428 429
f 428 420 421
f 428 421 429
f 430 372 422
f 430 385 372
f 386 385 430
f 386 430 431
f 430 422 423
f 430 423 431
f 432 424 374
f 432 374 387
f 432 387 386
f 432 386 431
f 431 423 424
f 431 424 432
f 396 433 395
f 396 434 433
f 397 434 396
f 397 435 434
f 436 395 433
f 436 399 395
f 435 397 401
f 435 401 438
f 401 400 437
f 401 437 438
f 438 437 434
f 438 434 435
f 439 399 436
f 439 402 399
f 440 437 400
f 440 400 403
f 441 402 439
f 441 404 402
f 442 440 403
f 442 403 405
f 442 405 404
f 442 404 441
f 442 441 439
f 442 439 440
f 412 443 411
f 412 444 443
f 445 411 443
f 445 420 411
f 446 444 412
f 446 412 421
f 446 421 420
f 446 420 445
f 445 443 444
f 445 444 446
f 449 433 434
f 449 448 433
f 451 433 448
f 451 436 433
f 450 448 447
f 450 451 448
f 452 449 434
f 452 434 437
f 451 448 449
f 451 449 452
f 453 436 451
f 453 439 436
f 454 452 437
f 454 437 440
f 454 440 439
f 454 439 453
f 453 451 452
f 453 452 454
f 456 447 448
f 456 455 447
f 455 450 447
f 455 457 450
f 458 456 448
f 458 448 451
f 458 451 450
f 458 450 457
f 457 455 456
f 457 456 458
