# parsimony mesh: eg12252_monomer (source /Users/eranagmon/code/v2e-flagella/workspace/studies/ecoli-3d/viz/3d/structures/eg12252_monomer.pdb)
# atoms: 2086  voxel: 16 Å  verts: 54  tris: 104
v -18.7681 -14.3729 -14.5526
v -10.6108 -15.1304 -15.1008
v 5.3892 -16.4384 -16.3113
v 16.7160 -16.1168 -16.1666
v -20.0676 -6.2430 -15.4306
v -10.6108 -6.2430 -17.3494
v 5.3892 -6.2430 -18.4994
v 21.7853 -5.4480 -16.3178
v 29.8378 0.4154 -14.7067
v -20.3958 4.3738 -15.6392
v -10.6580 9.7271 -17.5291
v 5.2355 9.4105 -17.4807
v 21.3892 3.6360 -15.4856
v 29.8378 2.1731 -14.7067
v -5.3562 18.9137 -16.5994
v -0.2003 18.9137 -16.5994
v -19.6981 -15.0012 -6.4267
v -10.6108 -16.5212 -6.4267
v 6.3415 -16.5834 -5.1760
v 16.7160 -16.1168 -9.6755
v -22.6304 -6.2430 -6.4267
v 12.2811 -6.2430 0.7030
v 20.6871 -4.9894 -4.3402
v 31.5277 -0.3626 -6.4267
v -21.5431 5.6612 -6.4267
v -14.9460 13.6612 -6.4267
v 10.6480 9.4105 -5.1736
v 20.1506 6.2020 -5.1736
v 31.5277 5.7463 -6.4267
v -6.9460 20.4682 -6.4267
v 2.2611 20.4682 -6.4267
v -20.5722 -16.2259 9.5733
v -10.6108 -17.7925 9.5733
v 1.4861 -15.8096 9.5733
v -22.6295 -6.2430 9.5733
v 7.0528 -6.2430 9.5733
v 24.6581 0.2726 2.9302
v 31.7920 0.2726 2.9302
v -20.6681 4.6845 9.5733
v -10.8317 13.3519 10.8747
v 4.2938 11.0098 10.8747
v 24.6581 6.6599 2.9302
v 31.7920 6.6599 2.9302
v -5.6456 20.2151 6.4090
v 1.4746 20.2151 6.4090
v -19.9336 -16.0058 19.5105
v -10.6108 -16.4017 21.2116
v -1.4021 -15.3584 20.4872
v -20.0668 -6.2430 19.7797
v -10.6108 -6.2430 23.9394
v 0.1609 -6.2430 21.7330
v -19.2292 3.0716 18.5780
v -10.6108 6.3090 20.3011
v -0.1239 6.5117 20.2057
f 6 1 5
f 6 2 1
f 7 2 6
f 7 3 2
f 7 4 3
f 7 8 4
f 10 6 5
f 10 11 6
f 12 6 11
f 12 7 6
f 13 7 12
f 13 8 7
f 13 9 8
f 13 14 9
f 16 11 15
f 16 12 11
f 18 1 2
f 18 17 1
f 3 18 2
f 3 19 18
f 20 3 4
f 20 19 3
f 21 1 17
f 21 5 1
f 20 4 8
f 20 8 23
f 22 19 20
f 22 20 23
f 24 8 9
f 24 23 8
f 21 10 5
f 21 25 10
f 26 11 10
f 26 10 25
f 13 12 27
f 13 27 28
f 28 27 22
f 28 22 23
f 24 9 14
f 24 14 29
f 29 14 13
f 29 13 28
f 26 15 11
f 26 30 15
f 31 27 12
f 31 12 16
f 16 15 30
f 16 30 31
f 33 17 18
f 33 32 17
f 34 18 19
f 34 33 18
f 35 17 32
f 35 21 17
f 34 19 22
f 34 22 36
f 24 37 23
f 24 38 37
f 39 21 35
f 39 25 21
f 26 25 39
f 26 39 40
f 41 36 22
f 41 22 27
f 37 28 23
f 37 42 28
f 38 24 29
f 38 29 43
f 29 28 42
f 29 42 43
f 42 37 38
f 42 38 43
f 44 26 40
f 44 30 26
f 45 41 27
f 45 27 31
f 31 30 44
f 31 44 45
f 44 40 41
f 44 41 45
f 33 46 32
f 33 47 46
f 48 33 34
f 48 47 33
f 46 35 32
f 46 49 35
f 49 46 47
f 49 47 50
f 51 48 34
f 51 34 36
f 50 47 48
f 50 48 51
f 52 35 49
f 52 39 35
f 53 40 39
f 53 39 52
f 52 49 50
f 52 50 53
f 54 51 36
f 54 36 41
f 54 41 40
f 54 40 53
f 53 50 51
f 53 51 54
