# parsimony mesh: eg12712_monomer (source /Users/eranagmon/code/v2e-abund/workspace/studies/ecoli-3d/viz/3d/structures/eg12712_monomer.pdb)
# atoms: 1358  voxel: 8 Å  verts: 155  tris: 308
v -3.3320 19.3275 -19.4248
v -0.9408 19.3275 -19.4248
v -3.3320 21.0701 -19.4248
v -0.9408 21.0701 -19.4248
v -10.9821 -28.7227 -11.4048
v -8.8136 -28.7227 -11.4048
v -10.9821 -25.5923 -11.4048
v -6.8372 -23.6762 -11.7862
v 1.6396 -21.6067 -12.3238
v 6.0580 -20.4131 -11.4864
v -4.4921 -16.0466 -12.0401
v 1.6396 -16.0466 -13.5758
v 7.5238 -16.0466 -12.3691
v -2.7021 -10.6100 -11.1080
v 1.0357 -7.9847 -12.7212
v 8.6780 -8.0466 -12.9872
v 3.3868 -0.0466 -12.0886
v 10.0139 -0.3468 -12.2413
v 14.3146 2.1198 -11.5064
v -12.3024 10.9355 -11.9256
v -6.3604 10.6260 -11.8374
v 2.0413 8.3023 -11.1320
v 8.9834 8.1555 -11.3879
v 14.3146 5.6235 -11.5064
v -11.9855 15.9534 -11.9419
v -6.1434 16.3779 -15.0681
v 1.6914 16.3779 -15.0145
v 6.2475 15.9534 -11.8749
v -10.5853 20.2435 -11.2192
v -6.0443 23.3235 -14.4074
v 2.0081 23.9979 -14.8815
v 6.2104 21.5923 -12.1673
v -3.4233 28.8205 -12.2623
v -0.3764 28.8205 -12.2623
v -10.9821 -28.7227 -9.6458
v -8.8136 -28.7227 -9.6458
v 4.4193 -28.6135 -3.5522
v 6.3666 -28.6135 -3.5522
v -10.8653 -23.2895 -7.4220
v -7.7180 -23.6439 -8.2749
v 1.7074 -25.3308 -6.4647
v 7.7615 -23.4665 -6.4647
v -10.7485 -19.3661 -5.1983
v -7.6571 -16.4383 -7.4523
v 11.7816 -16.6888 -7.3617
v 14.8530 -14.4502 -5.0473
v -10.4353 -4.1769 -2.9068
v -5.5241 -7.3935 -6.7273
v -2.0336 -5.2767 -10.5479
v 12.6780 -8.0466 -8.9045
v 14.6663 -8.0466 -4.9045
v -10.4353 -3.8619 -2.9068
v -6.3682 -0.7358 -5.3491
v -0.6132 -0.0466 -9.9230
v 12.9302 -3.2135 -8.7143
v 14.5515 -0.3468 -6.3619
v -12.1957 10.6131 -6.8333
v -6.3682 7.2300 -7.0763
v -0.3576 5.8682 -9.9050
v 11.2696 10.6304 -6.8333
v 14.6627 6.6304 -6.8333
v -11.9635 15.6868 -7.3294
v -8.0843 18.1758 -4.9935
v 8.4770 15.9534 -6.8333
v -10.5853 20.2435 -10.3268
v -7.0375 23.3275 -7.3294
v 4.0440 25.9566 -6.8333
v 6.8470 21.9566 -6.8333
v -3.9139 29.0960 -6.8333
v 0.0440 29.0960 -6.8333
v 4.4193 -28.6135 -0.8143
v 6.3666 -28.6135 -0.8143
v -10.7485 -20.9867 -2.1088
v -6.3604 -21.7968 -0.5787
v 1.2961 -24.3858 1.9837
v 8.6470 -24.4175 1.5781
v -10.7485 -19.3661 -2.1088
v -6.3443 -16.8847 1.3364
v -1.8270 -19.7366 4.7817
v 12.8536 -19.3868 1.1667
v 15.4199 -15.3868 1.1667
v -11.4174 -5.6005 1.1667
v -8.3362 -9.6005 1.1667
v 17.2254 -8.0466 1.1667
v -20.1059 3.2810 4.6942
v -13.7318 -0.2904 1.7912
v -9.0400 1.4714 -1.1117
v 16.6189 -0.0466 1.1667
v -20.1059 5.1090 4.6942
v -13.9641 8.1466 1.7912
v -9.0400 5.8510 -1.1117
v 12.9064 11.1860 -1.4401
v 14.7573 8.2930 1.2026
v -11.7660 12.9428 1.1667
v -6.7164 16.9428 1.1667
v 10.8445 15.3693 1.2026
v 13.9374 12.3132 3.8933
v -3.2502 23.2201 0.8069
v 1.5727 23.9698 0.8069
v 6.6956 20.8906 1.1667
v -3.3688 28.6097 -2.0997
v -1.1385 28.6097 -2.0997
v 3.5063 -21.9981 6.1440
v 7.5338 -21.9981 6.1440
v -4.7465 -14.4134 9.1667
v 1.1596 -17.6484 8.9531
v 10.3652 -16.1619 9.5143
v 14.7999 -14.0966 7.5513
v -12.4620 -6.5281 9.1667
v -8.7465 -10.5281 9.1667
v 12.3072 -8.0466 12.0702
v 16.1987 -8.0466 8.0702
v -26.4771 3.8401 12.2080
v -22.6077 2.6193 9.3915
v -16.4620 -1.6292 9.1667
v 12.4711 -0.0466 12.0865
v 15.9852 -0.0466 8.0865
v -26.4771 4.1621 12.2080
v -22.6077 5.9816 9.3915
v -14.3818 9.9236 9.0408
v -6.3604 10.1443 11.0807
v 1.6396 10.0924 11.3066
v 10.3048 7.9791 10.8174
v 14.5198 7.9534 7.1615
v -11.7294 12.3835 6.2903
v -5.6109 15.4115 6.8048
v 1.6396 15.9534 7.7016
v 9.0609 15.3693 6.3827
v 13.9374 12.3132 5.4201
v -2.4446 20.0645 5.3448
v 1.6396 20.2000 5.5616
v 6.0085 20.1710 5.5151
v -3.5597 -12.8456 13.9167
v 1.6396 -13.2813 14.0839
v 7.8632 -12.8938 13.6396
v -11.8281 -5.4137 15.7999
v -6.8155 -7.4635 17.5249
v 0.9216 -7.3266 17.5398
v 8.3072 -8.0466 14.0705
v -26.4771 3.8401 13.2636
v -22.3604 2.7901 13.7997
v -14.4410 -0.1092 15.8606
v -6.9870 -0.6990 19.3883
v 0.9216 -0.6990 18.1813
v 8.4711 -0.0466 14.4651
v -26.4771 4.1621 13.2636
v -22.3604 5.6220 13.7997
v -14.3604 6.5495 14.5591
v -6.3604 6.1443 14.9688
v 1.6396 6.0924 14.8859
v 8.0817 5.3296 14.1657
v -4.7380 -4.1800 21.2647
v -2.2237 -4.1800 21.2647
v -4.7380 -3.8006 21.2647
v -2.2237 -3.8006 21.2647
f 3 2 1
f 3 4 2
f 7 6 5
f 7 8 6
f 11 9 8
f 11 12 9
f 12 10 9
f 12 13 10
f 14 12 11
f 14 15 12
f 15 13 12
f 15 16 13
f 17 16 15
f 17 18 16
f 23 17 22
f 23 18 17
f 24 18 23
f 24 19 18
f 25 21 20
f 25 26 21
f 27 1 2
f 27 26 1
f 27 21 26
f 27 22 21
f 28 22 27
f 28 23 22
f 30 1 26
f 30 3 1
f 29 26 25
f 29 30 26
f 27 2 4
f 27 4 31
f 4 3 30
f 4 30 31
f 32 27 31
f 32 28 27
f 33 31 30
f 33 34 31
f 6 35 5
f 6 36 35
f 35 7 5
f 35 39 7
f 36 6 8
f 36 8 40
f 40 8 7
f 40 7 39
f 40 39 35
f 40 35 36
f 41 8 9
f 41 40 8
f 10 41 9
f 10 42 41
f 41 38 37
f 41 42 38
f 44 8 40
f 44 11 8
f 43 40 39
f 43 44 40
f 45 42 10
f 45 10 13
f 44 14 11
f 44 48 14
f 49 15 14
f 49 14 48
f 50 45 13
f 50 13 16
f 50 46 45
f 50 51 46
f 53 47 52
f 53 48 47
f 49 17 15
f 49 54 17
f 53 49 48
f 53 54 49
f 55 50 16
f 55 16 18
f 19 55 18
f 19 56 55
f 55 51 50
f 55 56 51
f 21 57 20
f 21 58 57
f 59 17 54
f 59 22 17
f 59 21 22
f 59 58 21
f 58 54 53
f 58 59 54
f 61 56 19
f 61 19 24
f 61 24 23
f 61 23 60
f 62 20 57
f 62 25 20
f 60 23 28
f 60 28 64
f 65 25 62
f 65 29 25
f 66 30 29
f 66 29 65
f 65 62 63
f 65 63 66
f 68 64 28
f 68 28 32
f 32 31 67
f 32 67 68
f 66 33 30
f 66 69 33
f 67 31 34
f 67 34 70
f 70 34 33
f 70 33 69
f 38 71 37
f 38 72 71
f 40 73 39
f 40 74 73
f 71 41 37
f 71 75 41
f 41 74 40
f 41 75 74
f 76 72 38
f 76 38 42
f 76 75 71
f 76 71 72
f 73 43 39
f 73 77 43
f 44 43 77
f 44 77 78
f 77 73 74
f 77 74 78
f 79 78 74
f 79 74 75
f 80 76 42
f 80 42 45
f 46 80 45
f 46 81 80
f 83 44 78
f 83 48 44
f 83 47 48
f 83 82 47
f 84 81 46
f 84 46 51
f 82 52 47
f 82 86 52
f 87 53 52
f 87 52 86
f 88 84 51
f 88 51 56
f 90 85 89
f 90 86 85
f 91 53 87
f 91 58 53
f 91 57 58
f 91 90 57
f 91 86 90
f 91 87 86
f 88 56 61
f 88 61 93
f 61 60 92
f 61 92 93
f 94 57 90
f 94 62 57
f 63 62 94
f 63 94 95
f 92 60 64
f 92 64 96
f 97 92 96
f 97 93 92
f 98 63 95
f 98 66 63
f 100 96 64
f 100 64 68
f 68 67 99
f 68 99 100
f 101 66 98
f 101 69 66
f 102 99 67
f 102 67 70
f 102 70 69
f 102 69 101
f 102 101 98
f 102 98 99
f 76 103 75
f 76 104 103
f 103 79 75
f 103 106 79
f 79 105 78
f 79 106 105
f 104 76 80
f 104 80 107
f 106 103 104
f 106 104 107
f 108 80 81
f 108 107 80
f 105 83 78
f 105 110 83
f 83 109 82
f 83 110 109
f 108 81 84
f 108 84 112
f 111 107 108
f 111 108 112
f 109 86 82
f 109 115 86
f 115 85 86
f 115 114 85
f 112 84 88
f 112 88 117
f 117 116 111
f 117 111 112
f 114 89 85
f 114 119 89
f 118 114 113
f 118 119 114
f 120 90 89
f 120 89 119
f 124 117 88
f 124 88 93
f 124 123 116
f 124 116 117
f 125 90 120
f 125 94 90
f 95 94 125
f 95 125 126
f 125 120 121
f 125 121 126
f 126 121 122
f 126 122 127
f 128 127 122
f 128 122 123
f 124 93 97
f 124 97 129
f 129 97 96
f 129 96 128
f 129 128 123
f 129 123 124
f 130 95 126
f 130 98 95
f 99 98 130
f 99 130 131
f 130 126 127
f 130 127 131
f 128 96 100
f 128 100 132
f 100 99 131
f 100 131 132
f 132 131 127
f 132 127 128
f 134 105 106
f 134 133 105
f 135 106 107
f 135 134 106
f 133 110 105
f 133 137 110
f 110 136 109
f 110 137 136
f 138 137 133
f 138 133 134
f 135 107 111
f 135 111 139
f 139 138 134
f 139 134 135
f 141 113 114
f 141 140 113
f 136 115 109
f 136 142 115
f 115 141 114
f 115 142 141
f 143 142 136
f 143 136 137
f 145 139 111
f 145 111 116
f 145 144 138
f 145 138 139
f 140 118 113
f 140 146 118
f 147 119 118
f 147 118 146
f 146 140 141
f 146 141 147
f 148 120 119
f 148 119 147
f 148 147 141
f 148 141 142
f 121 120 148
f 121 148 149
f 149 148 142
f 149 142 143
f 122 121 149
f 122 149 150
f 149 143 144
f 149 144 150
f 151 145 116
f 151 116 123
f 151 123 122
f 151 122 150
f 150 144 145
f 150 145 151
f 153 137 138
f 153 152 137
f 152 143 137
f 152 154 143
f 153 138 144
f 153 144 155
f 155 144 143
f 155 143 154
f 154 152 153
f 154 153 155
