# parsimony mesh: eg50004_monomer (source /Users/eranagmon/code/v2e-abund/workspace/studies/ecoli-3d/viz/3d/structures/eg50004_monomer.pdb)
# atoms: 454  voxel: 8 Å  verts: 82  tris: 160
v 0.6408 0.1690 -16.0060
v 5.9676 0.1019 -16.0761
v 13.9676 -0.1596 -16.3956
v 18.6271 -0.1796 -16.4319
v 0.6408 2.0017 -16.0060
v 5.9676 1.9445 -16.0761
v 13.9676 1.7414 -16.3956
v 18.6271 1.7309 -16.4319
v -0.0015 -7.7427 -8.4868
v 3.6154 -7.7427 -8.4868
v 17.2349 -7.2694 -7.9187
v 18.0672 -7.2694 -7.9187
v -6.3091 -0.3514 -8.3968
v -2.3470 -2.7578 -11.1084
v 6.1563 -4.1642 -11.3675
v 14.3280 -4.3733 -11.0267
v 18.9682 -2.9754 -11.0267
v -6.8651 4.8309 -8.9707
v -2.0285 4.7334 -12.8134
v 5.9927 5.9118 -11.7877
v 13.9676 4.0435 -11.6887
v 19.1436 2.5705 -11.6887
v -6.8660 10.0000 -8.6900
v -2.0324 10.8432 -9.5635
v 3.3428 10.3449 -9.1871
v -6.8403 -7.9531 -1.7882
v -2.4138 -8.7092 -4.1484
v 4.1764 -8.5063 -3.6887
v 17.2349 -7.2694 -7.5705
v 18.0672 -7.2694 -7.5705
v -7.5625 -3.0785 -4.1484
v -5.3348 -5.6847 -7.1216
v 8.1764 -5.5415 -3.6887
v 14.0752 -3.4174 -4.4586
v 18.7236 -3.1691 -6.8435
v -14.5698 7.8252 -0.3770
v -10.7779 5.0275 -3.3017
v 8.0837 7.5293 -3.6887
v 13.7364 3.8412 -3.8835
v 18.8760 2.2503 -6.6800
v -14.5698 9.2526 -0.3770
v -9.7326 10.4885 -3.3017
v -2.0324 12.0595 -3.6887
v 4.0837 10.3038 -3.6887
v -7.5846 -8.5726 4.3113
v -2.0324 -10.7401 4.3113
v 3.6063 -9.3367 4.3113
v -9.7955 -3.1691 4.3113
v 6.9589 -3.0552 4.0730
v 10.9155 -0.3126 1.2474
v -14.5698 7.8252 1.2170
v -11.5150 5.0275 4.0547
v 0.5333 7.6918 6.7784
v 5.7577 5.2352 4.0129
v 10.9155 2.7787 1.2474
v -14.5698 9.2526 1.2170
v -9.7463 10.2345 4.0547
v -2.0930 10.2515 4.1916
v 3.4138 9.2808 1.4451
v -6.2094 -15.3350 15.9947
v -5.5670 -15.3350 15.9947
v -7.9541 -11.0215 12.9213
v -2.5532 -12.1038 12.9213
v 2.6686 -8.5220 12.3113
v -9.8275 -3.1691 12.3113
v -0.2325 -1.7847 14.4630
v 3.0087 -3.9385 12.0023
v -7.7668 4.3411 11.9008
v -2.5163 4.5199 11.7117
v 2.7681 2.3585 9.1296
v -6.8889 9.5768 8.9604
v -4.8001 9.5768 8.9604
v -6.2094 -15.3350 16.5580
v -5.5670 -15.3350 16.5580
v -7.4883 -11.1691 17.6661
v -2.5532 -10.4429 17.4193
v 2.0147 -7.2922 16.3517
v -7.7695 -3.1691 18.1990
v -2.5525 -3.9385 17.8457
v 2.0147 -7.1181 16.3517
v -6.5844 1.3479 17.2686
v -5.5658 1.3479 17.2686
f 6 1 5
f 6 2 1
f 7 2 6
f 7 3 2
f 8 3 7
f 8 4 3
f 15 1 2
f 15 14 1
f 15 9 14
f 15 10 9
f 3 15 2
f 3 16 15
f 17 3 4
f 17 16 3
f 17 11 16
f 17 12 11
f 19 1 14
f 19 5 1
f 19 13 18
f 19 14 13
f 20 6 5
f 20 5 19
f 21 7 6
f 21 6 20
f 22 17 4
f 22 4 8
f 8 7 21
f 8 21 22
f 24 18 23
f 24 19 18
f 25 19 24
f 25 20 19
f 28 9 10
f 28 27 9
f 12 29 11
f 12 30 29
f 32 9 27
f 32 14 9
f 32 13 14
f 32 31 13
f 32 26 31
f 32 27 26
f 33 28 10
f 33 10 15
f 29 16 11
f 29 34 16
f 16 33 15
f 16 34 33
f 35 30 12
f 35 12 17
f 35 34 29
f 35 29 30
f 37 13 31
f 37 18 13
f 21 20 38
f 21 38 39
f 40 35 17
f 40 17 22
f 40 22 21
f 40 21 39
f 40 39 34
f 40 34 35
f 37 23 18
f 37 42 23
f 42 36 41
f 42 37 36
f 43 24 23
f 43 23 42
f 38 20 25
f 38 25 44
f 25 24 43
f 25 43 44
f 46 26 27
f 46 45 26
f 28 46 27
f 28 47 46
f 48 26 45
f 48 31 26
f 49 47 28
f 49 28 33
f 50 33 34
f 50 49 33
f 48 37 31
f 48 52 37
f 52 36 37
f 52 51 36
f 50 34 39
f 50 39 55
f 55 39 38
f 55 38 54
f 55 54 49
f 55 49 50
f 51 41 36
f 51 56 41
f 57 42 41
f 57 41 56
f 56 51 52
f 56 52 57
f 58 43 42
f 58 42 57
f 59 54 38
f 59 38 44
f 59 44 43
f 59 43 58
f 59 58 53
f 59 53 54
f 46 62 45
f 46 63 62
f 63 60 62
f 63 61 60
f 64 46 47
f 64 63 46
f 65 45 62
f 65 48 45
f 67 64 47
f 67 47 49
f 68 48 65
f 68 52 48
f 70 67 49
f 70 49 54
f 70 54 53
f 70 53 69
f 70 69 66
f 70 66 67
f 71 52 68
f 71 57 52
f 72 69 53
f 72 53 58
f 58 57 71
f 58 71 72
f 72 71 68
f 72 68 69
f 61 73 60
f 61 74 73
f 75 60 73
f 75 62 60
f 74 61 63
f 74 63 76
f 75 73 74
f 75 74 76
f 77 63 64
f 77 76 63
f 78 62 75
f 78 65 62
f 79 78 75
f 79 75 76
f 80 77 64
f 80 64 67
f 80 67 66
f 80 66 79
f 80 79 76
f 80 76 77
f 81 65 78
f 81 68 65
f 82 79 66
f 82 66 69
f 82 69 68
f 82 68 81
f 82 81 78
f 82 78 79
