# parsimony mesh: eg50003_monomer (source /Users/eranagmon/code/v2e-3d/out/ecoli3d/structures/eg50003_monomer.pdb)
# atoms: 605  voxel: 8 Å  verts: 96  tris: 188
v -1.7202 -7.0624 -13.6932
v 0.1946 -7.0624 -13.6932
v -2.2735 -2.5306 -14.1429
v 2.9424 -1.8798 -14.0221
v 7.1813 1.2207 -13.3807
v -1.9350 2.4949 -14.0317
v 3.0641 2.6858 -13.9085
v 7.1813 2.0658 -13.3807
v -9.0320 -14.6144 -5.4204
v -7.8374 -14.6144 -5.4204
v 5.4279 -14.7257 -5.6677
v 11.0641 -14.8741 -5.7668
v 15.3129 -14.7934 -5.5558
v -9.4378 -10.5306 -6.0444
v -4.7788 -10.6101 -8.4635
v 2.8113 -10.6101 -8.8312
v 11.5095 -10.3750 -6.4897
v 15.3129 -12.9379 -5.5558
v -9.4884 -2.5306 -6.0882
v -6.2735 -2.5306 -10.0882
v 5.5279 -4.1126 -11.9947
v 10.8272 -1.9520 -8.7896
v 15.2085 0.2087 -5.5845
v -9.5217 5.4694 -5.8539
v -4.7353 5.2847 -9.5199
v 3.0641 6.6858 -11.5555
v 10.3344 5.0273 -10.2727
v 15.3541 5.4694 -5.9822
v -9.5533 10.0905 -5.8608
v -4.1456 13.0421 -6.2203
v 2.3133 13.7387 -7.1114
v 11.0641 11.0941 -7.3033
v 15.3063 9.8536 -5.9262
v -0.9521 17.4877 -5.3128
v -0.8538 17.4877 -5.3128
v -9.0947 -14.6640 -1.3016
v -7.8203 -14.6640 -1.3016
v 5.5786 -14.7468 -1.3016
v 10.3820 -14.8613 -1.7702
v 15.3129 -14.7934 -4.7493
v -10.1439 -10.5306 -1.3016
v -3.8203 -13.3740 -1.3016
v 1.5786 -13.3740 -1.3016
v 13.1340 -10.3750 -1.7702
v 15.3129 -12.9379 -4.7493
v -16.9921 1.3317 2.5827
v -13.0734 -1.8132 -0.5710
v 13.8321 -2.4870 -1.7529
v 15.2085 0.2087 -4.7204
v -16.9921 1.5856 2.5827
v -13.2119 4.7391 -0.5710
v 12.8312 5.4694 -0.3981
v 15.3541 5.4694 -4.3981
v -10.1582 10.6042 -1.3016
v -4.1456 15.1654 -1.1172
v 2.3133 15.8210 -1.1172
v 10.8618 11.2634 -1.7275
v 15.3063 9.8536 -4.6781
v -0.9521 17.4877 -3.6610
v -0.8538 17.4877 -3.6610
v -9.0515 -14.6246 2.8914
v -8.5470 -14.6246 2.8914
v 6.7197 -14.6237 2.8085
v 7.2607 -14.6237 2.8085
v -9.8415 -10.2420 6.0142
v -5.5025 -12.6200 6.0142
v 3.6167 -11.1790 6.1750
v 9.0948 -10.5306 3.9133
v -17.0545 1.2855 6.6984
v -13.9812 -2.7145 6.6984
v 5.8470 -4.9351 9.5415
v 9.7045 -2.3733 6.8043
v -17.0545 2.0896 6.6984
v -14.4742 6.0896 6.6984
v 4.6000 7.5888 8.9483
v 8.7956 5.1411 6.4483
v -10.4742 10.2760 6.6984
v -4.9359 12.3495 6.6984
v 2.3856 11.6224 6.4483
v 8.0603 10.2931 3.6150
v -9.5039 -7.3829 11.4621
v -4.9359 -9.0193 11.9534
v 0.5137 -8.9966 11.6081
v -17.0378 1.3620 10.7915
v -12.4767 -1.7951 11.7010
v -4.9359 -2.5306 14.0251
v 3.1339 -2.3733 12.7712
v 7.5938 0.3982 11.2954
v -17.0378 2.1802 10.7915
v -12.7591 5.0959 11.3435
v -4.9359 5.4694 12.9653
v 2.3856 5.1411 12.2809
v 7.5938 2.2555 11.2954
v -9.9746 9.6529 10.8662
v -4.9359 9.6954 10.8936
v -0.7333 9.5872 10.7909
f 3 2 1
f 3 4 2
f 6 4 3
f 6 7 4
f 7 5 4
f 7 8 5
f 14 10 9
f 14 15 10
f 16 1 2
f 16 15 1
f 17 11 16
f 17 12 11
f 18 12 17
f 18 13 12
f 20 1 15
f 20 3 1
f 20 14 19
f 20 15 14
f 21 16 2
f 21 2 4
f 5 21 4
f 5 22 21
f 21 17 16
f 21 22 17
f 20 6 3
f 20 25 6
f 24 20 19
f 24 25 20
f 26 7 6
f 26 6 25
f 27 22 5
f 27 5 8
f 8 7 26
f 8 26 27
f 27 23 22
f 27 28 23
f 29 25 24
f 29 30 25
f 30 26 25
f 30 31 26
f 32 26 31
f 32 27 26
f 32 28 27
f 32 33 28
f 34 31 30
f 34 35 31
f 37 9 10
f 37 36 9
f 39 11 12
f 39 38 11
f 40 12 13
f 40 39 12
f 41 9 36
f 41 14 9
f 42 37 10
f 42 10 15
f 43 11 38
f 43 16 11
f 43 15 16
f 43 42 15
f 40 13 18
f 40 18 45
f 45 18 17
f 45 17 44
f 44 39 40
f 44 40 45
f 41 19 14
f 41 47 19
f 48 44 17
f 48 17 22
f 23 48 22
f 23 49 48
f 47 24 19
f 47 51 24
f 51 46 50
f 51 47 46
f 53 49 23
f 53 23 28
f 52 48 49
f 52 49 53
f 54 24 51
f 54 29 24
f 30 29 54
f 30 54 55
f 57 32 31
f 57 31 56
f 58 53 28
f 58 28 33
f 58 33 32
f 58 32 57
f 58 57 52
f 58 52 53
f 55 34 30
f 55 59 34
f 56 31 35
f 56 35 60
f 35 34 59
f 35 59 60
f 59 55 56
f 59 56 60
f 62 36 37
f 62 61 36
f 64 38 39
f 64 63 38
f 61 41 36
f 61 65 41
f 62 37 42
f 62 42 66
f 66 65 61
f 66 61 62
f 63 43 38
f 63 67 43
f 43 66 42
f 43 67 66
f 68 64 39
f 68 39 44
f 68 67 63
f 68 63 64
f 65 47 41
f 65 70 47
f 70 46 47
f 70 69 46
f 68 44 48
f 68 48 72
f 71 67 68
f 71 68 72
f 69 50 46
f 69 73 50
f 74 51 50
f 74 50 73
f 72 48 52
f 72 52 76
f 77 51 74
f 77 54 51
f 78 55 54
f 78 54 77
f 79 56 55
f 79 55 78
f 80 76 52
f 80 52 57
f 80 57 56
f 80 56 79
f 80 79 75
f 80 75 76
f 82 65 66
f 82 81 65
f 83 66 67
f 83 82 66
f 81 70 65
f 81 85 70
f 70 84 69
f 70 85 84
f 86 85 81
f 86 81 82
f 83 67 71
f 83 71 87
f 86 82 83
f 86 83 87
f 88 71 72
f 88 87 71
f 84 73 69
f 84 89 73
f 74 73 89
f 74 89 90
f 90 89 84
f 90 84 85
f 91 90 85
f 91 85 86
f 92 91 86
f 92 86 87
f 93 88 72
f 93 72 76
f 93 76 75
f 93 75 92
f 93 92 87
f 93 87 88
f 94 74 90
f 94 77 74
f 95 78 77
f 95 77 94
f 94 90 91
f 94 91 95
f 96 92 75
f 96 75 79
f 96 79 78
f 96 78 95
f 96 95 91
f 96 91 92
