# parsimony mesh: eg50003_monomer (source /Users/eranagmon/code/v2e-molecules/workspace/studies/ecoli-3d/viz/3d/structures/eg50003_monomer.pdb)
# atoms: 605  voxel: 4 Å  verts: 319  tris: 648
v -1.1880 -6.6866 -13.4128
v -0.7711 -6.6866 -13.4128
v -1.1880 -6.1617 -13.4128
v -0.7711 -6.1617 -13.4128
v 10.1479 -2.9906 -13.7152
v 11.3846 -2.9906 -13.7152
v -4.9404 1.4586 -13.3102
v -2.9359 0.9054 -13.6570
v -0.0414 0.7281 -13.7668
v 10.1479 -2.1594 -13.7152
v 11.3846 -2.1594 -13.7152
v -4.9404 1.4790 -13.3102
v -2.9359 2.0470 -13.6570
v -0.0414 2.2299 -13.7668
v 5.8807 4.7177 -13.7957
v 7.4999 4.7177 -13.7957
v 5.8807 5.9839 -13.7957
v 7.4999 5.9839 -13.7957
v -1.1914 -10.5569 -9.3330
v -0.8665 -10.5569 -9.3330
v -5.5899 -7.0806 -9.4505
v -2.5230 -8.2169 -10.7251
v -0.0337 -8.2242 -10.9204
v -5.5899 -6.3239 -9.4505
v -2.7906 -4.9095 -11.1233
v 1.1146 -4.9664 -11.2965
v 5.0641 -4.3272 -10.4164
v 8.9144 -3.6847 -11.4962
v 11.3826 -3.1070 -11.3016
v -4.9404 1.4586 -13.2840
v -3.0469 -0.2400 -11.7067
v 1.2008 -0.5753 -12.3083
v 5.0641 -0.5306 -11.8443
v 9.0246 -0.8603 -11.5717
v 11.3826 -2.0252 -11.3016
v -4.9404 1.4790 -13.2840
v -2.8648 3.1878 -11.5965
v 1.2008 3.5257 -12.6042
v 4.7541 3.4184 -12.7692
v 8.3812 3.4184 -11.4311
v -1.3622 6.0907 -9.9090
v 1.0641 6.5221 -10.6638
v 4.7541 6.5456 -11.6269
v 9.3204 7.4910 -10.4686
v 12.0890 9.1750 -9.3580
v 10.9710 9.5584 -9.3580
v 12.0890 9.5584 -9.3580
v -9.3550 -11.2890 -6.2109
v -6.9359 -11.7631 -6.8146
v -2.6892 -11.5657 -7.5664
v -0.1286 -11.1608 -7.3016
v 6.1482 -11.5531 -6.5682
v 9.0641 -11.7459 -6.4204
v 11.4851 -11.1285 -5.5268
v -9.4256 -8.5306 -6.7261
v -6.9283 -8.4606 -8.7060
v -3.8580 -9.7472 -9.0763
v 2.0716 -8.6154 -7.6344
v 4.9146 -8.6154 -7.4640
v 9.0641 -8.5306 -7.8653
v 11.8575 -8.5306 -6.0783
v -9.4923 -4.5306 -6.3981
v -6.9283 -4.8066 -8.0786
v -4.3932 -3.6573 -8.4680
v 3.0003 -6.4376 -9.1896
v 5.0641 -6.3272 -9.0547
v 9.0641 -5.6282 -8.7465
v 11.7266 -4.3157 -7.3878
v -9.4439 -1.7178 -5.7736
v -6.7870 -0.4429 -6.0618
v -4.1025 -0.5306 -7.8979
v 10.5681 0.4388 -8.6516
v 11.8731 -0.7490 -7.3116
v -9.3474 4.8387 -5.5272
v -6.6598 3.5386 -5.5621
v -3.9263 3.5310 -7.0788
v 7.0563 5.4576 -5.3135
v 8.9651 4.3215 -7.1618
v 12.2736 3.4694 -6.5480
v -9.4576 7.4694 -5.6569
v -7.3529 7.4694 -5.6569
v -2.5811 7.4422 -7.3267
v 1.0641 8.5221 -8.2728
v 5.9179 7.1649 -6.9349
v 8.6770 6.8737 -7.5915
v 12.8306 7.6928 -7.4887
v -9.2200 9.7647 -5.5496
v -7.7959 9.7647 -5.5496
v -2.1254 10.0150 -6.0101
v 1.0641 10.1728 -6.2728
v 5.0641 10.2044 -6.1510
v 9.4083 10.2706 -7.2292
v 12.7235 10.0301 -7.3016
v 2.9174 17.3822 -5.3473
v 3.1364 17.3822 -5.3473
v 2.8114 19.4694 -5.4488
v 3.3032 19.4694 -5.4488
v 2.8738 21.5726 -5.4522
v 3.3106 21.5726 -5.4522
v -6.1234 -15.0462 -2.1217
v -4.3113 -15.0462 -2.1217
v 6.4604 -14.9211 -2.1768
v 7.8821 -14.9211 -2.1768
v -9.6702 -11.9967 -3.3016
v -7.2484 -13.8345 -3.3936
v -2.9611 -13.4569 -3.3936
v 0.4587 -11.5248 -3.3016
v 5.5200 -12.7441 -3.4267
v 9.1549 -13.6981 -3.4267
v 12.2594 -11.7231 -3.3016
v -10.1231 -8.5306 -3.3016
v 2.4587 -9.7277 -3.3016
v 3.5868 -9.7277 -3.3016
v 13.7343 -8.5306 -3.3016
v -13.1342 -2.8452 -1.5814
v -11.2030 -4.3194 -3.0695
v 13.3074 -4.5306 -3.3016
v -13.1985 -0.5306 -1.7164
v -10.8407 -0.4429 -3.7132
v -8.0210 0.9488 -4.7679
v 13.1258 -0.5306 -3.3016
v -13.0878 1.8021 -1.5748
v -10.7434 3.3204 -3.1714
v -6.6598 3.5386 -4.9434
v -4.7287 4.9053 -5.1190
v 7.0563 5.4576 -5.2913
v 7.0738 5.4576 -5.2913
v 13.8882 3.4694 -3.3016
v -10.0717 7.4694 -3.3016
v -5.3529 7.4694 -5.0459
v -4.6726 7.4694 -5.0459
v 7.0563 5.4796 -5.2913
v 8.9781 7.4133 -3.3639
v 13.0012 7.7960 -2.9825
v -9.3604 9.8640 -3.3016
v -6.3684 11.0658 -3.2258
v -3.2496 11.3968 -3.9861
v 1.0641 12.1728 -3.8670
v 4.7423 11.9641 -2.9784
v 9.3551 10.5239 -2.9825
v 12.2517 10.1281 -4.1031
v -4.9409 13.4790 -1.3083
v -2.9424 15.0751 -2.1923
v 1.3761 15.8171 -3.8651
v 3.2037 15.8171 -2.9784
v -1.6134 18.4590 -2.1535
v 1.5623 19.3316 -3.5735
v 3.2734 19.1103 -3.5167
v 2.8738 21.5726 -4.9934
v 3.3106 21.5726 -4.9934
v -6.1234 -15.0462 -0.6640
v -4.3113 -15.0462 -0.6640
v 6.4604 -14.9211 -0.5864
v 7.8821 -14.9211 -0.5864
v -9.6319 -11.9758 0.6984
v -7.2484 -13.6513 0.6810
v -2.8277 -12.4235 0.7750
v -0.0834 -11.0423 -0.4526
v 5.3428 -12.6612 0.7275
v 9.1549 -13.5504 0.7275
v 12.5740 -11.6420 0.6984
v -10.2016 -8.5306 0.6984
v -1.3442 -10.1530 2.2140
v 1.1756 -9.8972 0.8078
v 3.3652 -10.0221 0.6984
v 13.9480 -8.5306 0.6984
v -13.6237 -3.3224 0.6984
v -11.5055 -5.3224 0.6984
v 10.2298 -3.4099 1.8712
v 12.5602 -4.6582 0.6021
v -14.2255 -0.5306 0.6984
v 10.2298 -1.5164 1.8712
v 12.0735 -0.3221 0.6021
v -13.5376 2.2198 0.6984
v -11.9634 4.2198 0.6984
v 13.0559 3.4694 0.6984
v -10.5281 7.4694 0.6984
v 10.3361 8.7854 0.6984
v 12.2903 6.7854 0.6984
v -9.5006 10.0163 0.6984
v -7.0071 12.0163 0.6984
v 5.4167 12.0435 0.6984
v 8.3361 10.0435 0.6984
v -5.0071 13.5474 0.6984
v -2.9424 15.5048 0.7991
v 1.0641 16.3300 1.3681
v 3.3642 15.3849 0.3335
v -1.6134 18.4590 -0.4671
v 1.0641 18.2627 -0.6319
v 3.0941 17.5375 -1.2432
v -9.2647 -11.1177 4.6984
v -6.9359 -12.1238 4.6984
v -3.3006 -11.5367 4.6984
v 3.0135 -10.5316 6.6717
v 4.4605 -10.9733 5.0773
v 9.0641 -11.5612 3.6901
v 11.9046 -11.0203 3.2362
v -9.9963 -8.5306 4.6984
v -1.3006 -10.1454 4.6984
v 1.4338 -10.1428 5.0824
v 4.8269 -9.3308 5.3032
v 9.0641 -8.5306 4.9341
v 12.0712 -8.5306 3.3556
v -13.6547 -3.2716 3.8769
v -11.7881 -4.5752 5.0055
v 7.0512 -6.4836 6.6852
v 8.7252 -4.9468 4.8610
v 11.5664 -6.0766 3.0369
v -14.1626 -0.8294 5.0055
v -12.7141 -2.3619 6.5436
v 9.7592 -0.3221 4.8915
v 11.2415 1.1503 3.6868
v -17.2138 5.0605 6.4635
v -14.9320 3.5989 4.8673
v -12.4357 4.8040 3.2710
v 10.2568 3.4694 5.7425
v 11.4414 3.4694 3.7425
v -17.2138 5.7242 6.4635
v -14.9359 6.3259 5.9517
v -10.9214 7.8586 4.9262
v -6.9359 8.9155 5.8824
v -4.1774 8.8397 5.7274
v 6.0491 8.4344 5.6504
v 8.8799 7.2237 4.3763
v 11.3898 6.0130 3.1022
v -9.4070 9.9677 3.9148
v -6.5898 11.3684 3.7165
v -2.8808 11.4130 4.9622
v 1.0641 12.2455 5.5685
v 4.7265 11.1610 4.4416
v 7.6084 9.7237 2.9837
v -5.0258 13.5638 2.8165
v -2.9359 14.0065 3.2564
v 1.0641 14.3300 3.5685
v 3.4040 13.9952 3.2327
v -9.0062 -10.5829 6.8344
v -6.8980 -11.2232 8.3800
v -2.5826 -11.5061 8.3717
v 1.2234 -10.7930 8.0938
v 3.0680 -10.5316 6.7004
v -9.4863 -8.4297 8.3800
v -8.2061 -9.6958 9.5011
v -1.0138 -10.3946 6.8206
v 1.3374 -9.3294 8.3361
v 4.0574 -8.5306 7.4727
v -10.1110 -4.1759 9.0648
v -8.8827 -2.6061 10.6423
v 2.7165 -5.8180 10.3954
v 5.1552 -4.8175 8.6484
v 7.2207 -3.8170 6.9014
v -14.1339 0.1520 8.6984
v -11.2028 -1.9578 9.0648
v -8.8827 -2.4860 10.6423
v 5.9259 -1.3434 9.5681
v 7.9511 -0.2182 8.4202
v -17.2138 5.0605 7.5280
v -15.7398 3.6241 8.7962
v 6.4420 4.4703 9.9422
v 8.1095 3.2700 8.6447
v -17.2138 5.7242 7.5280
v -14.7776 7.3737 8.6219
v -10.7496 8.8851 8.5088
v -6.9359 7.6748 8.6984
v -2.8808 7.9838 8.7013
v 1.0641 8.4137 9.5307
v 4.9122 7.2203 8.5394
v 7.4847 5.7678 7.2756
v -13.5436 10.0962 9.7157
v -11.9588 10.0962 9.7157
v -1.5108 10.0420 7.3699
v 1.0641 10.2455 7.5307
v 3.3824 9.9316 7.1366
v -5.5394 -10.8988 11.2459
v -2.5950 -11.1115 12.6269
v -0.6272 -10.9806 12.6984
v -9.1969 -7.0291 11.0757
v -6.5995 -8.1491 12.4942
v -2.9507 -8.5192 13.9441
v -0.0975 -8.8738 12.6647
v -9.1969 -5.2728 11.0757
v -6.9378 -4.5081 12.5934
v -3.2945 -4.8583 13.9071
v 1.2556 -4.5030 12.0192
v 3.2592 -3.1514 10.9646
v -13.8581 0.8775 11.1818
v -10.9359 0.0589 11.4182
v -7.3040 -0.9038 12.0376
v -3.0078 -0.9161 14.1466
v 1.0641 -1.8846 13.8915
v 4.6572 -0.1850 12.2238
v 7.2163 1.3233 10.8165
v -13.9344 3.4694 11.1092
v -10.9359 3.4694 11.8306
v -6.9359 3.4694 12.3077
v -3.0078 3.2209 13.2330
v 1.0641 3.9429 13.2695
v 4.9152 3.1593 12.2846
v 7.2163 1.8037 10.8165
v -13.6985 7.4694 11.0878
v -10.7496 7.6180 11.3012
v -6.9359 6.2287 11.1932
v -2.9359 6.0847 11.1094
v 1.0641 6.4137 11.2695
v 3.7753 6.0063 11.0861
v -13.5436 10.0962 11.1532
v -11.9588 10.0962 11.1532
v -1.0345 -10.6068 14.7327
v -0.8933 -10.6068 14.7327
v -4.9929 -6.6024 14.7254
v -2.9507 -8.5192 14.7290
v -0.8933 -10.4359 14.7327
v -4.9929 -6.4101 14.7254
v -4.8669 -6.4101 14.7254
v -1.7224 0.1603 14.9964
v 1.0641 0.1154 15.2396
v 3.3885 0.9733 15.1220
v -1.7224 1.7218 14.9964
v 1.0641 1.9429 15.2396
v 3.3885 1.8484 15.1220
f 3 2 1
f 3 4 2
f 10 6 5
f 10 11 6
f 12 8 7
f 12 13 8
f 13 9 8
f 13 14 9
f 17 16 15
f 17 18 16
f 23 1 2
f 23 22 1
f 23 19 22
f 23 20 19
f 25 1 22
f 25 3 1
f 24 22 21
f 24 25 22
f 26 23 2
f 26 2 4
f 4 3 25
f 4 25 26
f 29 5 6
f 29 28 5
f 8 30 7
f 8 31 30
f 9 31 8
f 9 32 31
f 32 25 31
f 32 26 25
f 32 27 26
f 32 33 27
f 28 10 5
f 28 34 10
f 33 28 27
f 33 34 28
f 29 6 11
f 29 11 35
f 35 11 10
f 35 10 34
f 30 12 7
f 30 36 12
f 13 12 36
f 13 36 37
f 36 30 31
f 36 31 37
f 38 32 9
f 38 9 14
f 14 13 37
f 14 37 38
f 39 32 38
f 39 33 32
f 16 39 15
f 16 40 39
f 40 33 39
f 40 34 33
f 41 38 37
f 41 42 38
f 39 17 15
f 39 43 17
f 43 38 42
f 43 39 38
f 40 16 18
f 40 18 44
f 18 17 43
f 18 43 44
f 46 45 44
f 46 47 45
f 51 19 20
f 51 50 19
f 55 49 48
f 55 56 49
f 57 19 50
f 57 22 19
f 57 21 22
f 57 56 21
f 57 49 56
f 57 50 49
f 58 51 20
f 58 20 23
f 60 52 59
f 60 53 52
f 60 54 53
f 60 61 54
f 56 24 21
f 56 63 24
f 63 55 62
f 63 56 55
f 64 25 24
f 64 24 63
f 65 58 23
f 65 23 26
f 27 65 26
f 27 66 65
f 65 59 58
f 65 66 59
f 67 27 28
f 67 66 27
f 66 60 59
f 66 67 60
f 29 67 28
f 29 68 67
f 67 61 60
f 67 68 61
f 69 63 62
f 69 70 63
f 64 31 25
f 64 71 31
f 70 64 63
f 70 71 64
f 68 29 35
f 68 35 73
f 35 34 72
f 35 72 73
f 71 37 31
f 71 76 37
f 76 70 75
f 76 71 70
f 72 34 40
f 72 40 78
f 79 72 78
f 79 73 72
f 81 74 80
f 81 75 74
f 76 41 37
f 76 82 41
f 83 42 41
f 83 41 82
f 43 42 83
f 43 83 84
f 78 40 44
f 78 44 85
f 44 43 84
f 44 84 85
f 85 84 77
f 85 77 78
f 45 85 44
f 45 86 85
f 85 79 78
f 85 86 79
f 88 80 87
f 88 81 80
f 89 83 82
f 89 90 83
f 91 83 90
f 91 84 83
f 85 46 44
f 85 92 46
f 92 84 91
f 92 85 84
f 93 86 45
f 93 45 47
f 93 47 46
f 93 46 92
f 96 95 94
f 96 97 95
f 98 97 96
f 98 99 97
f 105 48 49
f 105 104 48
f 106 49 50
f 106 105 49
f 105 101 100
f 105 106 101
f 107 50 51
f 107 106 50
f 53 108 52
f 53 109 108
f 109 102 108
f 109 103 102
f 54 109 53
f 54 110 109
f 111 48 104
f 111 55 48
f 112 107 51
f 112 51 58
f 113 52 108
f 113 59 52
f 113 58 59
f 113 112 58
f 114 110 54
f 114 54 61
f 111 62 55
f 111 116 62
f 117 114 61
f 117 61 68
f 116 69 62
f 116 119 69
f 119 115 118
f 119 116 115
f 120 70 69
f 120 69 119
f 117 68 73
f 117 73 121
f 122 119 118
f 122 123 119
f 120 75 70
f 120 124 75
f 124 74 75
f 124 123 74
f 123 120 119
f 123 124 120
f 125 76 75
f 125 75 124
f 127 78 77
f 127 77 126
f 121 73 79
f 121 79 128
f 129 74 123
f 129 80 74
f 124 75 81
f 124 81 130
f 125 82 76
f 125 131 82
f 130 125 124
f 130 131 125
f 132 126 77
f 132 77 84
f 127 85 78
f 127 133 85
f 85 132 84
f 85 133 132
f 132 127 126
f 132 133 127
f 134 128 79
f 134 79 86
f 129 87 80
f 129 135 87
f 130 81 88
f 130 88 136
f 88 87 135
f 88 135 136
f 131 89 82
f 131 137 89
f 136 131 130
f 136 137 131
f 138 90 89
f 138 89 137
f 91 90 138
f 91 138 139
f 140 92 91
f 140 91 139
f 141 134 86
f 141 86 93
f 141 93 92
f 141 92 140
f 141 140 133
f 141 133 134
f 142 137 136
f 142 143 137
f 143 138 137
f 143 144 138
f 95 144 94
f 95 145 144
f 145 138 144
f 145 139 138
f 147 94 144
f 147 96 94
f 146 144 143
f 146 147 144
f 148 145 95
f 148 95 97
f 149 96 147
f 149 98 96
f 150 148 97
f 150 97 99
f 99 98 149
f 99 149 150
f 149 147 148
f 149 148 150
f 101 151 100
f 101 152 151
f 103 153 102
f 103 154 153
f 151 105 100
f 151 156 105
f 156 104 105
f 156 155 104
f 152 101 106
f 152 106 157
f 156 151 152
f 156 152 157
f 158 106 107
f 158 157 106
f 153 108 102
f 153 159 108
f 154 103 109
f 154 109 160
f 160 159 153
f 160 153 154
f 110 160 109
f 110 161 160
f 155 111 104
f 155 162 111
f 158 107 112
f 158 112 164
f 163 157 158
f 163 158 164
f 159 113 108
f 159 165 113
f 165 112 113
f 165 164 112
f 161 110 114
f 161 114 166
f 168 111 162
f 168 116 111
f 168 115 116
f 168 167 115
f 170 166 114
f 170 114 117
f 171 115 167
f 171 118 115
f 170 117 121
f 170 121 173
f 173 172 169
f 173 169 170
f 171 122 118
f 171 174 122
f 175 123 122
f 175 122 174
f 176 173 121
f 176 121 128
f 175 129 123
f 175 177 129
f 179 176 128
f 179 128 134
f 134 133 178
f 134 178 179
f 180 129 177
f 180 135 129
f 181 136 135
f 181 135 180
f 178 133 140
f 178 140 183
f 183 140 139
f 183 139 182
f 181 142 136
f 181 184 142
f 185 143 142
f 185 142 184
f 187 182 139
f 187 139 145
f 188 143 185
f 188 146 143
f 189 147 146
f 189 146 188
f 188 185 186
f 188 186 189
f 190 187 145
f 190 145 148
f 190 148 147
f 190 147 189
f 190 189 186
f 190 186 187
f 192 155 156
f 192 191 155
f 157 192 156
f 157 193 192
f 196 159 160
f 196 195 159
f 197 160 161
f 197 196 160
f 191 162 155
f 191 198 162
f 193 157 163
f 193 163 199
f 200 163 164
f 200 199 163
f 195 165 159
f 195 201 165
f 165 200 164
f 165 201 200
f 201 194 200
f 201 195 194
f 201 195 196
f 201 196 202
f 197 161 166
f 197 166 203
f 202 196 197
f 202 197 203
f 198 168 162
f 198 205 168
f 168 204 167
f 168 205 204
f 206 201 202
f 206 202 207
f 208 203 166
f 208 166 170
f 208 170 169
f 208 169 207
f 208 207 202
f 208 202 203
f 204 171 167
f 204 209 171
f 210 209 204
f 210 204 205
f 211 207 169
f 211 169 172
f 212 172 173
f 212 211 172
f 209 174 171
f 209 214 174
f 215 175 174
f 215 174 214
f 212 173 176
f 212 176 217
f 216 211 212
f 216 212 217
f 219 213 218
f 219 214 213
f 215 177 175
f 215 220 177
f 219 215 214
f 219 220 215
f 225 217 176
f 225 176 179
f 225 179 178
f 225 178 224
f 225 224 216
f 225 216 217
f 226 177 220
f 226 180 177
f 227 181 180
f 227 180 226
f 226 220 221
f 226 221 227
f 227 221 222
f 227 222 228
f 231 224 178
f 231 178 183
f 231 183 182
f 231 182 230
f 231 230 223
f 231 223 224
f 232 181 227
f 232 184 181
f 233 185 184
f 233 184 232
f 232 227 228
f 232 228 233
f 186 185 233
f 186 233 234
f 233 228 229
f 233 229 234
f 235 230 182
f 235 182 187
f 235 187 186
f 235 186 234
f 235 234 229
f 235 229 230
f 192 236 191
f 192 237 236
f 193 237 192
f 193 238 237
f 240 194 195
f 240 239 194
f 236 198 191
f 236 241 198
f 242 241 236
f 242 236 237
f 243 238 193
f 243 193 199
f 244 194 239
f 244 200 194
f 200 243 199
f 200 244 243
f 243 239 238
f 243 244 239
f 240 195 201
f 240 201 245
f 244 239 240
f 244 240 245
f 241 205 198
f 241 246 205
f 245 201 206
f 245 206 249
f 248 244 245
f 248 245 249
f 250 206 207
f 250 249 206
f 246 210 205
f 246 252 210
f 210 251 209
f 210 252 251
f 253 252 246
f 253 246 247
f 250 207 211
f 250 211 255
f 254 249 250
f 254 250 255
f 251 214 209
f 251 257 214
f 257 213 214
f 257 256 213
f 255 211 216
f 255 216 259
f 256 218 213
f 256 260 218
f 219 218 260
f 219 260 261
f 260 256 257
f 260 257 261
f 220 219 261
f 220 261 262
f 221 220 262
f 221 262 263
f 222 221 263
f 222 263 264
f 267 259 216
f 267 216 224
f 267 224 223
f 267 223 266
f 267 266 258
f 267 258 259
f 268 262 261
f 268 269 262
f 270 222 264
f 270 228 222
f 229 228 270
f 229 270 271
f 270 264 265
f 270 265 271
f 272 266 223
f 272 223 230
f 272 230 229
f 272 229 271
f 272 271 265
f 272 265 266
f 238 273 237
f 238 274 273
f 275 238 239
f 275 274 238
f 273 242 237
f 273 277 242
f 242 276 241
f 242 277 276
f 278 277 273
f 278 273 274
f 275 239 244
f 275 244 279
f 276 246 241
f 276 280 246
f 247 246 280
f 247 280 281
f 281 280 276
f 281 276 277
f 279 244 248
f 279 248 283
f 282 278 279
f 282 279 283
f 284 248 249
f 284 283 248
f 286 251 252
f 286 285 251
f 287 247 281
f 287 253 247
f 253 286 252
f 253 287 286
f 288 287 281
f 288 281 282
f 289 288 282
f 289 282 283
f 284 249 254
f 284 254 290
f 289 283 284
f 289 284 290
f 291 254 255
f 291 290 254
f 285 257 251
f 285 292 257
f 293 292 285
f 293 285 286
f 294 293 286
f 294 286 287
f 295 294 287
f 295 287 288
f 291 255 259
f 291 259 298
f 298 259 258
f 298 258 297
f 297 290 291
f 297 291 298
f 292 261 257
f 292 299 261
f 299 292 293
f 299 293 300
f 263 262 300
f 263 300 301
f 301 300 293
f 301 293 294
f 302 264 263
f 302 263 301
f 302 301 294
f 302 294 295
f 265 264 302
f 265 302 303
f 302 295 296
f 302 296 303
f 304 297 258
f 304 258 266
f 304 266 265
f 304 265 303
f 304 303 296
f 304 296 297
f 299 268 261
f 299 305 268
f 306 300 262
f 306 262 269
f 269 268 305
f 269 305 306
f 306 305 299
f 306 299 300
f 275 307 274
f 275 308 307
f 307 278 274
f 307 310 278
f 278 309 277
f 278 310 309
f 311 308 275
f 311 275 279
f 311 279 278
f 311 278 310
f 311 310 307
f 311 307 308
f 312 277 309
f 312 281 277
f 313 310 278
f 313 278 282
f 282 281 312
f 282 312 313
f 313 312 309
f 313 309 310
f 289 314 288
f 289 315 314
f 316 289 290
f 316 315 289
f 317 288 314
f 317 295 288
f 296 295 317
f 296 317 318
f 317 314 315
f 317 315 318
f 319 316 290
f 319 290 297
f 319 297 296
f 319 296 318
f 318 315 316
f 318 316 319
