# parsimony mesh: g6240_monomer (source /Users/eranagmon/code/v2e-abund/workspace/studies/ecoli-3d/viz/3d/structures/g6240_monomer.pdb)
# atoms: 1289  voxel: 4 Å  verts: 617  tris: 1244
v 24.4865 -8.4467 -23.9674
v 24.9848 -8.4467 -23.9674
v 20.7274 -4.4114 -23.8441
v 23.0042 -5.9914 -24.1094
v 25.3033 -6.3613 -24.1668
v 8.6742 -0.4602 -23.9395
v 10.7808 -0.5543 -24.0121
v 12.9918 -0.5197 -23.9608
v 20.7274 -4.3243 -23.8441
v 22.7808 -4.0974 -24.0743
v 25.2734 -4.0465 -24.1391
v 8.6678 1.6387 -23.9421
v 10.7808 1.6387 -24.1495
v 13.1541 1.6387 -24.0337
v 8.7368 3.8141 -23.8674
v 10.7808 4.0624 -23.9637
v 13.0675 4.0282 -23.9683
v 20.6157 -8.4256 -20.0282
v 22.9466 -8.4362 -21.5378
v 24.9848 -8.4467 -23.0475
v 12.5093 -4.6046 -20.0556
v 14.7808 -5.0750 -20.6025
v 19.3382 -6.0738 -21.6634
v 22.9466 -7.5705 -21.5378
v 26.4624 -6.5726 -21.8103
v 29.9036 -5.0824 -20.5730
v 8.6742 -0.4602 -22.5024
v 10.6458 -1.8233 -21.2790
v 14.5074 -2.0563 -22.0521
v 19.1488 -2.7391 -22.3087
v 22.7808 -2.0974 -22.8142
v 26.6763 -2.5724 -22.5368
v 29.8554 -2.3613 -20.7192
v 8.3130 1.2404 -21.4319
v 8.7823 -0.3585 -19.8357
v 15.1541 1.6387 -22.3104
v 18.7808 1.6387 -21.0177
v 22.7808 1.6387 -21.2622
v 27.0297 1.8644 -20.6754
v 29.0907 0.6815 -20.2701
v 8.0126 5.3439 -21.8939
v 10.7808 6.0624 -22.9469
v 14.5528 5.4724 -22.5526
v 18.7808 5.6387 -21.1965
v 22.7582 5.5878 -20.4116
v 25.8623 4.2206 -20.1374
v 8.1735 8.6279 -20.6057
v 10.5550 9.8322 -21.0815
v 14.7808 9.6387 -21.6692
v 19.0912 9.9208 -20.7400
v 21.4099 8.7756 -20.2045
v 11.7997 13.6387 -20.4578
v 14.7808 13.6387 -21.0807
v 18.2652 13.6387 -20.4491
v 12.5157 16.0869 -20.0704
v 14.7808 16.2421 -20.1677
v 17.5759 15.9950 -20.0373
v 16.4901 -8.4452 -16.0173
v 19.0817 -8.7308 -17.5409
v 21.7839 -8.7603 -17.8262
v 11.7241 -4.9285 -17.8262
v 15.0064 -6.8400 -17.5409
v 17.9490 -7.7362 -18.6840
v 23.7996 -6.5822 -17.6087
v 26.7808 -5.6783 -18.6394
v 29.9036 -5.0824 -19.2729
v 4.5370 -1.1814 -16.1197
v 6.7808 -1.9165 -17.0448
v 9.5363 -2.7134 -18.2250
v 24.4740 -2.3613 -16.1012
v 26.7808 -2.3613 -17.2659
v 29.8554 -2.3613 -18.9909
v 4.4919 1.6387 -16.3059
v 6.8034 1.2404 -18.6087
v 8.7823 -0.3585 -19.8242
v 24.6778 0.0243 -15.8886
v 26.7278 1.6862 -17.5772
v 29.0907 0.6815 -19.2659
v 4.6394 4.1395 -16.1723
v 5.9026 5.5392 -17.6339
v 24.0765 6.8872 -18.4955
v 25.5177 5.5878 -17.4278
v 0.6579 11.6133 -15.8380
v 2.7808 11.3851 -15.8964
v 6.6967 9.9769 -17.7028
v 9.0711 11.2946 -19.4977
v 20.6316 11.4422 -19.6403
v 22.7582 9.9208 -18.5601
v 25.1661 9.6387 -16.3830
v 0.6579 12.5216 -15.8380
v 2.7808 12.5871 -15.8964
v 7.0675 13.4677 -16.5049
v 9.7997 13.6387 -18.6133
v 20.2652 13.6387 -19.4642
v 22.7200 13.6625 -17.5804
v 25.2936 12.3451 -16.5659
v 8.5920 15.6719 -15.8708
v 11.0217 16.6342 -17.4530
v 14.7808 18.0875 -17.8262
v 18.8579 17.1334 -18.0481
v 21.3462 16.4908 -16.8627
v 11.5143 -8.8917 -12.5289
v 15.0064 -8.9830 -13.8478
v 18.7808 -9.5237 -13.8262
v 21.9201 -9.1444 -13.8262
v 7.4714 -5.6537 -13.0864
v 10.2455 -6.5973 -14.1410
v 13.8235 -7.5408 -15.1956
v 23.9086 -6.2898 -13.9983
v 24.9442 -4.9088 -12.7796
v 3.8943 -1.9538 -13.8262
v 6.3952 -3.9874 -14.1823
v 8.9767 -4.2814 -15.7531
v 20.6044 -0.4560 -11.9421
v 23.2429 -2.2824 -13.6942
v 24.9442 -4.1088 -12.7796
v 3.3949 1.6387 -13.8262
v 20.6044 -0.2232 -11.9421
v 22.9463 1.2338 -13.8124
v 24.9267 2.6909 -15.6828
v 3.6426 5.5392 -13.7153
v 5.2200 6.8062 -14.9747
v 23.6873 5.6387 -13.7149
v 24.8909 5.6387 -15.7149
v -3.5506 11.2014 -12.7060
v -0.8929 10.5807 -13.9541
v 2.4421 9.0553 -13.7153
v 5.2200 8.6592 -14.9747
v 23.5859 9.6387 -13.1399
v 25.1661 9.6387 -15.1399
v -3.5506 11.9747 -12.7060
v -0.8929 12.9921 -13.9541
v 2.7808 14.3076 -13.8262
v 5.7134 14.8679 -13.8262
v 19.6958 14.4570 -12.6473
v 22.5462 13.4010 -13.7817
v 25.2936 12.3451 -14.9162
v 7.7134 15.9680 -13.8262
v 10.7808 17.3619 -13.8262
v 15.1095 19.1234 -13.9480
v 18.2631 18.0394 -14.0049
v 21.3462 16.4908 -15.3139
v 16.6620 19.6668 -12.6959
v 16.8303 19.6668 -12.6959
v 8.0556 -13.0564 -8.4507
v 10.7808 -13.0057 -8.4579
v 12.9132 -12.5254 -8.0439
v 3.8746 -8.6918 -8.1250
v 6.7456 -10.1596 -9.1552
v 10.4209 -10.2795 -10.7066
v 14.4602 -10.6997 -9.5568
v 18.7808 -9.5212 -9.8262
v 21.7888 -8.9960 -9.8262
v 3.3052 -6.3613 -9.0297
v 6.3952 -6.7367 -11.1640
v 8.8476 -8.3203 -11.7846
v 23.7888 -7.3553 -9.8262
v 25.2286 -5.3553 -9.8262
v -12.0152 -1.1503 -8.3551
v -10.4982 -1.1503 -8.3551
v 0.5460 -0.8089 -8.1636
v 2.4477 -2.5700 -9.9812
v 4.8048 -4.3312 -11.7988
v 20.3652 -0.6646 -9.8262
v 22.7808 -1.8221 -9.8262
v 25.2286 -3.5188 -9.8262
v -12.0152 0.1139 -8.3551
v -10.4982 0.1139 -8.3551
v 0.5965 1.6387 -8.1003
v 1.6838 1.6387 -10.1003
v 20.3652 0.3245 -9.8262
v 21.1849 2.3245 -9.8262
v 0.4464 5.6387 -8.8063
v 1.4641 5.6387 -10.8063
v 19.8662 6.7336 -8.4239
v 21.5688 5.4956 -9.7848
v -3.5506 11.2014 -11.5854
v -0.5485 9.4975 -10.1674
v 1.0149 9.3593 -10.0113
v 19.4155 9.6387 -9.1744
v 21.5859 9.6387 -11.1744
v -3.5506 11.9747 -11.5854
v -1.2192 12.6682 -10.9642
v 2.6004 13.3143 -9.6811
v 6.4401 14.3476 -9.8490
v 9.6887 14.3976 -8.5308
v 15.8348 14.8739 -8.8421
v 18.4520 13.3321 -10.2675
v 21.0796 11.7903 -11.6928
v 7.5464 16.0446 -11.1975
v 10.9255 16.3996 -9.8490
v 14.9151 17.4031 -10.3122
v 17.0042 17.6387 -11.5552
v 16.6620 19.6668 -11.7823
v 16.8303 19.6668 -11.7823
v 7.3030 -13.1107 -5.8262
v 10.7415 -13.0593 -6.0579
v 12.9132 -12.5254 -7.5458
v -0.2437 -8.6855 -4.7877
v 2.6371 -9.5260 -6.0031
v 5.3030 -11.5739 -5.8262
v 12.0487 -11.4597 -4.8791
v 14.4602 -10.7267 -6.0579
v 18.7808 -9.6968 -5.8262
v 21.5747 -9.0639 -5.8262
v -15.2709 -4.8930 -3.9228
v -13.2192 -5.3494 -4.2050
v -10.9050 -5.1470 -4.2347
v -3.6839 -5.4718 -4.1667
v -1.4339 -6.6276 -5.2533
v 1.3052 -6.3613 -7.3547
v 20.6242 -4.5343 -3.9772
v 22.6434 -6.1701 -5.6092
v 25.2144 -5.1392 -7.2411
v -15.2709 -3.9530 -3.9228
v -13.4952 -2.5516 -5.4121
v -9.3683 -2.3219 -5.6201
v -5.0981 -2.2406 -4.8435
v -0.9601 -2.2299 -6.7819
v 2.8621 -2.0671 -5.8344
v 4.9459 -0.6585 -4.0995
v 19.9942 -2.1471 -5.5168
v 22.7808 -2.9405 -6.5006
v 25.2144 -3.4905 -7.2411
v -15.6396 2.6105 -4.2156
v -13.3134 1.5722 -5.1359
v -8.8920 1.7418 -5.4203
v -5.2192 1.6387 -5.0678
v -1.4035 1.6387 -6.6768
v 4.6713 -0.2227 -4.0995
v 4.9459 -0.2227 -4.0995
v 19.6160 1.7045 -6.1005
v 20.8855 3.0817 -7.6167
v -15.6396 4.0294 -4.2156
v -14.2203 4.0294 -4.2156
v -7.2859 3.6476 -3.8351
v -5.2192 4.1539 -4.0516
v -1.6026 5.6455 -5.6012
v 19.3217 5.4956 -6.1005
v 20.8855 4.0669 -7.6167
v -0.1902 8.6934 -5.8262
v 2.6004 10.5569 -5.7627
v 5.4460 11.0960 -4.3871
v 15.9485 11.2286 -4.2475
v 17.6503 9.7926 -5.6790
v 3.8136 12.1374 -7.0538
v 6.7799 12.2453 -5.7627
v 10.9255 13.6406 -6.0584
v 14.5583 13.3350 -5.8970
v 17.2083 12.2072 -6.9141
v 12.3554 15.8202 -7.5466
v 13.1681 15.8202 -7.5466
v 7.5589 -12.6648 -1.8262
v 10.7415 -12.7301 -1.7431
v 13.1639 -12.5714 -0.3543
v -15.5247 -8.6730 -0.7036
v -13.2192 -9.0887 -1.3302
v -10.1178 -9.0196 -0.9541
v -3.6789 -8.4236 -0.5582
v -1.4339 -8.7097 -1.8654
v 2.7808 -10.3769 -1.8262
v 5.5589 -11.9881 -1.8262
v 12.0487 -11.4597 -3.0210
v 14.7542 -10.1932 -1.6383
v 18.8448 -9.2051 -1.6839
v 21.2674 -8.9919 -1.8262
v -19.3431 -4.5439 0.0955
v -16.7311 -6.0518 -1.6374
v -13.2192 -7.3494 -3.3302
v -9.1781 -6.2607 -1.7770
v -5.0148 -6.4231 -1.5790
v -2.9103 -8.1385 -3.2249
v 16.3445 -8.0353 -0.2557
v 19.2060 -6.3208 -1.1531
v 21.2674 -7.0350 -1.8262
v -19.8116 -2.3613 -0.0391
v -16.8502 -2.5163 -2.1583
v -14.9752 -1.2863 -3.4292
v -8.2384 -3.4935 -2.5998
v -6.3506 -3.4935 -2.5998
v 4.6713 -0.6585 -3.6165
v 4.9459 -0.6585 -3.6165
v 16.5667 -0.4375 0.0686
v 18.4460 -2.0070 -1.4893
v -23.6878 2.8066 -0.1391
v -21.2187 1.5395 -0.1559
v -17.0715 1.4218 -2.1300
v -13.2644 1.6568 -3.4293
v -9.9525 3.3698 -3.4294
v 4.6713 -0.2227 -3.6165
v 4.9459 -0.2227 -3.6165
v 16.5667 0.3856 0.0686
v 17.4602 1.6868 -1.4893
v -23.8235 5.6387 -0.3323
v -21.2790 5.2783 -0.2497
v -17.0715 4.6229 -1.4449
v -13.2639 5.7592 -1.7871
v -8.8592 5.2440 -2.2125
v -5.4819 6.1870 -1.4594
v -2.0193 6.8174 -1.8262
v 17.9395 5.6387 -1.8262
v -23.5563 7.8629 -0.1880
v -22.6521 7.8629 -0.1880
v -12.1421 9.6387 -0.1267
v -9.3517 9.4257 -0.0998
v -6.9904 7.9503 0.1185
v -0.0193 8.9118 -1.8262
v 2.7808 9.9140 -1.8262
v 5.8654 10.6409 -1.8262
v 12.3799 11.0882 -0.6212
v 14.6814 10.4472 -1.9032
v 17.5076 8.5622 -1.8262
v -11.3615 11.7012 0.0918
v -10.7733 11.7012 0.0918
v 7.8654 12.1882 -1.8262
v 10.9402 12.1728 -1.9032
v 13.2819 11.7962 -3.2878
v -16.0167 -12.7736 3.5157
v -13.2192 -12.7097 3.5999
v -10.4220 -12.4135 4.0667
v 8.3967 -12.4618 0.3600
v 10.7808 -12.5942 0.6739
v 13.1639 -12.5714 0.6544
v -16.6699 -10.1483 2.1789
v -13.2192 -11.0887 1.5999
v -8.9366 -10.5896 2.3761
v -5.2084 -8.9583 1.8671
v -1.2192 -8.5537 0.5151
v 2.7808 -9.1690 0.9090
v 6.8766 -10.4416 1.9669
v 10.7808 -11.3247 2.6739
v 14.0968 -10.3653 2.0621
v 20.2208 -8.5351 0.2865
v 20.9074 -8.5351 0.2865
v -31.6423 -4.6626 3.7938
v -29.2192 -4.8875 3.6798
v -25.2192 -5.2411 3.5488
v -20.8936 -5.7220 2.2410
v -18.4345 -7.4826 2.1738
v -7.4511 -7.3744 0.6855
v -5.2084 -7.5568 1.8671
v -1.2192 -6.9723 2.5151
v 2.7808 -6.9102 2.9090
v 5.3564 -7.6564 3.5739
v 16.1385 -7.4922 2.1738
v 18.7714 -6.4612 1.3650
v 20.9074 -7.7533 0.2865
v -31.6423 -3.5477 3.7938
v -29.2192 -2.7994 3.6798
v -25.6007 -2.0000 3.1134
v -21.8116 -2.3613 1.0573
v 16.5667 -0.4375 0.2707
v 17.7785 -2.0070 1.8319
v -24.6396 1.5395 2.0134
v -22.5517 0.1400 0.5732
v 16.5667 0.3856 0.2707
v 17.1781 1.6868 1.8319
v -24.0604 5.5052 2.0404
v -21.2790 6.2636 2.0404
v -17.5514 6.7073 1.8457
v -14.9742 7.4891 0.2936
v -4.0604 7.2921 2.1738
v -2.1930 7.2921 2.1738
v 16.0533 6.6030 3.1241
v 17.1230 5.4173 1.9440
v -23.5563 7.8629 0.6182
v -22.6521 7.8629 0.6182
v -16.5785 9.6387 2.8276
v -14.1421 9.6387 0.8276
v -8.0899 10.6704 2.1738
v -6.0604 8.6704 2.1738
v -0.1930 8.4772 2.1738
v 2.7808 9.0241 2.1738
v 6.1005 10.1856 2.1738
v 12.2281 11.0869 2.1738
v 14.7443 8.9822 1.9440
v 17.1470 7.9469 0.4574
v -15.8114 12.6525 3.5924
v -12.9046 12.5864 2.2250
v -10.0899 12.0630 2.1738
v 8.1005 12.0275 2.1738
v 10.2281 12.0275 2.1738
v -19.9639 -12.9103 7.4166
v -17.2977 -13.5152 6.1195
v -13.2192 -13.5010 6.1738
v -10.1019 -12.4705 6.1738
v -24.1327 -9.1912 7.4040
v -21.2660 -10.4592 6.4678
v -18.8035 -10.3613 4.6186
v -8.1019 -12.1050 6.1738
v -6.0953 -10.1050 6.1738
v 8.0231 -8.9725 5.1734
v 10.7808 -9.3247 5.5120
v 13.6940 -9.0346 4.9585
v -31.6423 -4.6626 4.7897
v -29.2593 -5.3082 6.1434
v -25.3673 -7.1911 6.1119
v -21.2192 -7.9252 4.6092
v -19.2008 -8.3405 4.1908
v -4.0953 -7.6705 6.1738
v -0.8334 -5.4707 6.4303
v 2.4579 -4.9251 6.4303
v 6.7262 -6.9515 6.3736
v 10.7808 -7.5587 7.5120
v 15.0698 -6.3361 6.2016
v 16.9435 -4.8618 4.7781
v -31.6423 -3.5477 4.7897
v -29.2593 -2.5134 6.1434
v -26.8972 -0.6617 6.1738
v 0.7572 -4.3342 7.9347
v 0.9094 -4.3342 7.9347
v 11.6878 -1.0299 7.4344
v 14.9797 -2.3624 6.8845
v 17.2464 -2.3613 5.1167
v -27.3770 2.9467 7.7334
v -26.5193 1.6235 6.3096
v 11.6878 0.5705 7.4344
v 14.6074 1.7978 6.7265
v 17.2555 1.6387 4.9193
v -27.3770 4.4108 7.7334
v -25.1770 4.5794 6.3096
v -21.2192 5.6666 6.1738
v -18.5010 7.0698 6.1738
v -3.2363 7.6165 4.2846
v -1.5644 7.3547 5.6623
v 1.4744 7.0930 7.0400
v 15.0251 5.4173 5.9784
v 16.9556 3.9364 4.5147
v -17.0646 9.6387 6.1738
v -11.2908 11.6203 8.1534
v -8.9833 10.9918 6.5615
v -4.8295 8.6432 5.8403
v -1.5644 7.7148 5.6623
v 2.7969 7.8928 5.8935
v 6.9680 9.8158 6.1386
v 10.9791 11.0490 6.1386
v 13.3030 9.4341 6.1738
v -15.7828 12.5635 6.1738
v -12.8622 12.6805 6.5615
v -10.1593 12.1419 5.4867
v 8.4261 11.8445 4.7818
v 9.7780 11.8445 4.7818
v -23.3202 -16.5634 12.0327
v -21.2192 -16.9183 11.6341
v -17.2192 -17.1029 11.0473
v -14.4516 -16.8096 11.2503
v -23.6088 -14.3613 11.5493
v -21.2660 -14.2907 9.7271
v -17.2192 -15.4944 9.0473
v -12.9698 -14.2222 10.0014
v -10.5267 -12.4547 8.7525
v -27.8329 -8.6327 11.5834
v -25.2185 -10.2453 10.1995
v -22.6305 -11.8579 8.8155
v -11.4881 -12.0426 11.4192
v -9.2037 -11.8263 10.1210
v -5.0089 -9.6353 10.4737
v -3.1786 -8.3911 12.0070
v -27.8928 -6.3562 10.4302
v -26.8964 -6.3562 10.4302
v -3.5353 -8.0623 9.3404
v -1.2107 -6.3392 10.1269
v 2.2771 -4.5926 9.6011
v 6.7808 -5.1277 8.4548
v 10.7808 -5.5587 8.6716
v 13.7789 -5.1438 8.5777
v -27.9527 -3.3641 9.2771
v -26.0966 -2.1630 10.4357
v 0.7572 -4.3342 8.2468
v 2.1439 -3.2069 9.4403
v 6.7808 -2.3613 8.5878
v 10.5250 -2.3624 8.6180
v 13.7789 -3.6965 8.5777
v -27.3770 2.9467 8.3998
v -25.0633 1.3491 9.7599
v -22.1169 2.4182 11.1200
v -0.1995 2.7196 11.3147
v 2.4935 1.4872 10.3000
v 6.7808 1.6387 8.6123
v 10.5250 1.7978 8.3719
v 13.1584 3.2372 8.3222
v -27.3770 4.4108 8.3998
v -25.2192 4.4815 8.5530
v -20.9578 4.4071 9.9415
v -17.6399 6.3356 10.1738
v -1.0145 5.7113 10.0583
v 2.7969 5.7113 8.7536
v 6.7808 5.6387 8.7764
v 10.7808 5.6387 8.5692
v 13.1318 5.6387 8.3357
v -15.6513 9.2770 9.8568
v -12.8622 10.3354 9.8568
v -9.2192 9.9059 10.1738
v -5.2192 8.7572 10.1738
v -2.7281 7.8130 10.1738
v 4.1411 7.7937 8.3636
v 6.7808 8.2224 8.4708
v 10.7808 9.0405 8.3790
v 12.8711 8.8845 8.2412
v -15.3785 11.8581 8.3121
v -13.9575 11.8581 8.3121
v -23.3202 -16.5634 12.3860
v -21.2192 -16.9183 13.0764
v -17.1910 -17.0470 14.3685
v -14.5060 -16.8131 14.1738
v -23.7241 -14.2033 13.9011
v -21.2192 -15.4132 15.0764
v -18.5056 -16.0273 15.8317
v -13.4513 -14.3613 14.1738
v -28.5594 -8.7528 14.1738
v -25.7746 -10.7528 14.1738
v -12.1645 -11.5634 14.1738
v -9.2192 -10.9084 14.1738
v -5.1930 -9.4552 13.8184
v -3.1786 -8.3911 12.2481
v -28.5594 -7.4094 14.1738
v -26.0843 -5.4094 14.1738
v -3.8423 -7.6090 14.9148
v -1.6779 -6.1125 13.6668
v 0.9782 -4.6161 12.4189
v -23.9633 -2.6918 14.0221
v -22.8575 -1.5788 15.2543
v -3.4569 -0.6859 15.7351
v -1.3940 -2.1560 14.5651
v 1.0698 -2.3613 12.4919
v -23.3058 -0.2485 12.5876
v -21.8712 1.3064 14.0221
v -4.1838 1.6387 15.0408
v -1.4074 1.4872 12.9748
v 0.9687 0.0530 12.3529
v -19.8055 4.0406 14.1738
v -17.5276 6.0406 14.1738
v -7.6446 7.2193 16.0072
v -5.4483 5.7870 14.7417
v -2.7642 5.6387 12.5087
v -15.5276 7.8561 14.1738
v -13.2192 8.3182 14.1738
v -9.0745 8.4380 14.4738
v -5.2192 8.2995 13.1878
v -2.9655 7.8038 12.3590
v -16.0879 -16.9573 18.1738
v -14.4416 -16.9573 18.1738
v -23.5413 -12.7646 16.8960
v -21.0472 -13.2873 18.2071
v -18.0879 -15.2163 18.1738
v -12.7920 -14.1612 18.4160
v -11.0381 -12.6944 19.9109
v -28.3925 -8.6120 16.7081
v -25.1324 -10.2764 18.1354
v -22.2659 -11.9408 19.5627
v -12.2107 -11.6161 17.2442
v -9.5106 -11.1309 18.4160
v -6.4196 -9.3822 18.1738
v -28.3925 -7.9789 16.7081
v -24.9943 -6.4064 17.8143
v -22.5222 -4.8340 18.9205
v -4.6351 -6.3099 18.2000
v -2.8439 -4.9423 16.8841
v -23.2651 -4.2455 16.2538
v -21.3565 -2.6333 17.9927
v -17.2192 -1.3136 19.4434
v -14.8553 -0.9711 19.6423
v -4.3460 -2.1560 18.2000
v -2.8439 -3.3525 16.8841
v -20.3609 1.6387 17.2481
v -17.2192 1.6387 18.7270
v -14.2151 1.6387 19.6527
v -8.4949 2.8485 19.1661
v -6.1195 1.5646 17.9692
v -19.7699 3.9556 16.7152
v -17.0227 5.4288 17.8688
v -13.0343 5.2612 19.2790
v -9.4031 5.4478 17.7825
v -6.9344 4.5526 16.4994
v -15.5584 7.8647 17.2874
v -13.2192 7.9335 17.1778
v -10.3113 7.8057 16.3988
v -15.7578 -17.0018 20.7295
v -14.3657 -17.0018 20.7295
v -19.5992 -12.5021 20.2878
v -17.1424 -14.0458 21.0363
v -13.1804 -14.0036 22.1689
v -10.9379 -12.8247 22.1738
v -24.0568 -9.2741 21.1247
v -21.0472 -10.5090 21.4294
v -17.4548 -10.5770 22.9196
v -14.6617 -12.0541 23.6083
v -9.2945 -10.2422 22.0295
v -6.8633 -8.8295 20.5999
v -24.0568 -7.5007 21.1247
v -21.2010 -6.2449 22.1534
v -17.4548 -6.1620 23.6800
v -13.2192 -5.2013 23.3998
v -9.5196 -6.4326 22.9783
v -6.5218 -6.3613 21.0748
v -19.8555 -3.6878 21.4945
v -17.2192 -3.3136 21.7857
v -13.4008 -2.3272 21.6693
v -8.8730 -2.0518 23.2373
v -6.5879 -2.0518 22.2389
v -12.2151 1.6387 20.8344
v -9.2352 1.2529 21.9475
v -6.8605 0.0600 22.1738
v -11.5777 3.6763 20.1968
v -11.1615 3.6763 20.1968
v -11.9950 -12.6462 24.3249
v -11.0253 -12.6462 24.3249
v -16.2785 -9.3874 24.5920
v -13.2847 -10.5770 24.5825
v -10.9492 -10.3613 24.3711
v -16.2785 -7.3624 24.5920
v -13.2192 -7.2013 24.5713
v -11.0531 -7.8135 24.2857
v -7.3089 -0.5121 24.1929
v -7.1933 -0.5121 24.1929
v -7.3089 -0.3427 24.1929
v -7.1933 -0.3427 24.1929
f 5 1 4
f 5 2 1
f 10 3 9
f 10 4 3
f 11 4 10
f 11 5 4
f 13 6 12
f 13 7 6
f 13 8 7
f 13 14 8
f 15 13 12
f 15 16 13
f 17 13 16
f 17 14 13
f 20 1 2
f 20 19 1
f 24 1 19
f 24 4 1
f 4 23 3
f 4 24 23
f 24 18 23
f 24 19 18
f 20 2 5
f 20 5 25
f 24 19 20
f 24 20 25
f 7 27 6
f 7 28 27
f 8 28 7
f 8 29 28
f 29 21 28
f 29 22 21
f 30 3 23
f 30 9 3
f 30 22 29
f 30 23 22
f 31 10 9
f 31 9 30
f 25 5 11
f 25 11 32
f 11 10 31
f 11 31 32
f 32 26 25
f 32 33 26
f 27 12 6
f 27 34 12
f 35 34 27
f 35 27 28
f 36 29 8
f 36 8 14
f 37 29 36
f 37 30 29
f 37 31 30
f 37 38 31
f 38 32 31
f 38 39 32
f 40 32 39
f 40 33 32
f 34 15 12
f 34 41 15
f 42 16 15
f 42 15 41
f 36 14 17
f 36 17 43
f 17 16 42
f 17 42 43
f 44 36 43
f 44 37 36
f 45 37 44
f 45 38 37
f 46 38 45
f 46 39 38
f 47 42 41
f 47 48 42
f 49 42 48
f 49 43 42
f 49 44 43
f 49 50 44
f 51 44 50
f 51 45 44
f 52 49 48
f 52 53 49
f 54 49 53
f 54 50 49
f 55 53 52
f 55 56 53
f 57 53 56
f 57 54 53
f 60 18 19
f 60 59 18
f 22 61 21
f 22 62 61
f 63 18 59
f 63 23 18
f 63 22 23
f 63 62 22
f 63 58 62
f 63 59 58
f 60 19 24
f 60 24 64
f 25 64 24
f 25 65 64
f 26 65 25
f 26 66 65
f 69 21 61
f 69 28 21
f 70 64 65
f 70 65 71
f 66 26 33
f 66 33 72
f 72 71 65
f 72 65 66
f 74 67 73
f 74 68 67
f 75 28 69
f 75 35 28
f 75 34 35
f 75 74 34
f 75 68 74
f 75 69 68
f 76 70 71
f 76 71 77
f 72 33 40
f 72 40 78
f 78 40 39
f 78 39 77
f 78 77 71
f 78 71 72
f 74 41 34
f 74 80 41
f 80 73 79
f 80 74 73
f 77 39 46
f 77 46 82
f 46 45 81
f 46 81 82
f 80 47 41
f 80 85 47
f 86 48 47
f 86 47 85
f 81 45 51
f 81 51 88
f 51 50 87
f 51 87 88
f 89 81 88
f 89 82 81
f 91 83 90
f 91 84 83
f 92 84 91
f 92 85 84
f 86 52 48
f 86 93 52
f 92 86 85
f 92 93 86
f 87 50 54
f 87 54 94
f 95 87 94
f 95 88 87
f 96 88 95
f 96 89 88
f 93 55 52
f 93 98 55
f 97 93 92
f 97 98 93
f 99 56 55
f 99 55 98
f 94 54 57
f 94 57 100
f 57 56 99
f 57 99 100
f 101 94 100
f 101 95 94
f 104 58 59
f 104 103 58
f 105 59 60
f 105 104 59
f 108 58 103
f 108 62 58
f 108 61 62
f 108 107 61
f 108 102 107
f 108 103 102
f 105 60 64
f 105 64 109
f 112 67 68
f 112 111 67
f 113 61 107
f 113 69 61
f 113 68 69
f 113 112 68
f 113 106 112
f 113 107 106
f 109 64 70
f 109 70 115
f 116 109 115
f 116 110 109
f 117 67 111
f 117 73 67
f 115 70 76
f 115 76 119
f 119 118 114
f 119 114 115
f 120 76 77
f 120 119 76
f 117 79 73
f 117 121 79
f 122 80 79
f 122 79 121
f 120 77 82
f 120 82 124
f 123 119 120
f 123 120 124
f 127 83 84
f 127 126 83
f 128 80 122
f 128 85 80
f 128 84 85
f 128 127 84
f 128 121 127
f 128 122 121
f 124 82 89
f 124 89 130
f 130 129 123
f 130 123 124
f 132 83 126
f 132 90 83
f 131 126 125
f 131 132 126
f 133 91 90
f 133 90 132
f 134 92 91
f 134 91 133
f 130 89 96
f 130 96 137
f 137 96 95
f 137 95 136
f 137 136 129
f 137 129 130
f 134 97 92
f 134 138 97
f 139 98 97
f 139 97 138
f 99 98 139
f 99 139 140
f 141 100 99
f 141 99 140
f 142 136 95
f 142 95 101
f 142 101 100
f 142 100 141
f 142 141 135
f 142 135 136
f 144 140 143
f 144 141 140
f 150 145 149
f 150 146 145
f 151 102 103
f 151 150 102
f 150 147 146
f 150 151 147
f 152 103 104
f 152 151 103
f 153 104 105
f 153 152 104
f 155 148 154
f 155 149 148
f 156 102 150
f 156 107 102
f 156 106 107
f 156 155 106
f 156 149 155
f 156 150 149
f 157 153 105
f 157 105 109
f 110 157 109
f 110 158 157
f 163 106 155
f 163 112 106
f 163 111 112
f 163 162 111
f 163 154 162
f 163 155 154
f 165 115 114
f 165 114 164
f 158 110 116
f 158 116 166
f 116 115 165
f 116 165 166
f 167 160 159
f 167 168 160
f 170 111 162
f 170 117 111
f 170 161 169
f 170 162 161
f 164 114 118
f 164 118 171
f 172 118 119
f 172 171 118
f 174 117 170
f 174 121 117
f 173 170 169
f 173 174 170
f 172 119 123
f 172 123 176
f 126 177 125
f 126 178 177
f 174 127 121
f 174 179 127
f 179 126 127
f 179 178 126
f 179 173 178
f 179 174 173
f 181 176 123
f 181 123 129
f 181 180 175
f 181 175 176
f 177 131 125
f 177 182 131
f 183 132 131
f 183 131 182
f 183 182 177
f 183 177 178
f 133 132 183
f 133 183 184
f 183 178 179
f 183 179 184
f 185 134 133
f 185 133 184
f 189 181 129
f 189 129 136
f 189 136 135
f 189 135 188
f 189 188 180
f 189 180 181
f 190 134 185
f 190 138 134
f 139 138 190
f 139 190 191
f 190 185 186
f 190 186 191
f 192 140 139
f 192 139 191
f 193 188 135
f 193 135 141
f 193 192 187
f 193 187 188
f 194 140 192
f 194 143 140
f 193 141 144
f 193 144 195
f 144 143 194
f 144 194 195
f 194 192 193
f 194 193 195
f 197 145 146
f 197 196 145
f 198 146 147
f 198 197 146
f 201 145 196
f 201 149 145
f 201 148 149
f 201 200 148
f 203 198 147
f 203 147 151
f 202 197 198
f 202 198 203
f 204 151 152
f 204 203 151
f 205 152 153
f 205 204 152
f 211 148 200
f 211 154 148
f 211 199 210
f 211 200 199
f 205 153 157
f 205 157 213
f 214 157 158
f 214 213 157
f 215 207 206
f 215 216 207
f 217 159 160
f 217 216 159
f 216 208 207
f 216 217 208
f 219 209 218
f 219 210 209
f 211 162 154
f 211 220 162
f 220 161 162
f 220 219 161
f 219 211 210
f 219 220 211
f 223 165 164
f 223 164 222
f 223 222 212
f 223 212 213
f 214 158 166
f 214 166 224
f 224 166 165
f 224 165 223
f 223 213 214
f 223 214 224
f 216 167 159
f 216 226 167
f 217 160 168
f 217 168 227
f 168 167 226
f 168 226 227
f 227 218 217
f 227 228 218
f 229 161 219
f 229 169 161
f 229 218 228
f 229 219 218
f 230 220 221
f 230 221 231
f 232 222 164
f 232 164 171
f 233 171 172
f 233 232 171
f 235 225 234
f 235 226 225
f 236 228 227
f 236 237 228
f 229 173 169
f 229 238 173
f 237 229 228
f 237 238 229
f 240 233 172
f 240 172 176
f 240 176 175
f 240 175 239
f 240 239 232
f 240 232 233
f 241 173 238
f 241 178 173
f 179 178 241
f 179 241 242
f 245 239 175
f 245 175 180
f 242 184 179
f 242 246 184
f 185 184 246
f 185 246 247
f 246 242 243
f 246 243 247
f 186 185 247
f 186 247 248
f 250 245 180
f 250 180 188
f 250 188 187
f 250 187 249
f 250 249 244
f 250 244 245
f 251 186 248
f 251 191 186
f 252 249 187
f 252 187 192
f 252 192 191
f 252 191 251
f 252 251 248
f 252 248 249
f 197 253 196
f 197 254 253
f 261 199 200
f 261 260 199
f 262 196 253
f 262 201 196
f 201 261 200
f 201 262 261
f 254 197 202
f 254 202 263
f 203 263 202
f 203 264 263
f 263 255 254
f 263 264 255
f 204 264 203
f 204 265 264
f 266 204 205
f 266 265 204
f 269 206 207
f 269 268 206
f 269 256 268
f 269 257 256
f 208 269 207
f 208 270 269
f 269 258 257
f 269 270 258
f 272 199 260
f 272 210 199
f 272 209 210
f 272 271 209
f 272 259 271
f 272 260 259
f 273 264 265
f 273 265 274
f 275 266 205
f 275 205 213
f 275 213 212
f 275 212 274
f 277 206 268
f 277 215 206
f 277 267 276
f 277 268 267
f 278 216 215
f 278 215 277
f 279 270 208
f 279 208 217
f 280 209 271
f 280 218 209
f 218 279 217
f 218 280 279
f 280 270 279
f 280 271 270
f 221 220 281
f 221 281 282
f 284 274 212
f 284 212 222
f 287 276 286
f 287 277 276
f 278 226 216
f 278 288 226
f 288 225 226
f 288 287 225
f 287 278 277
f 287 288 278
f 289 227 226
f 289 226 288
f 281 220 230
f 281 230 290
f 282 231 221
f 282 291 231
f 231 290 230
f 231 291 290
f 290 282 281
f 290 291 282
f 284 222 232
f 284 232 293
f 293 292 283
f 293 283 284
f 295 285 294
f 295 286 285
f 287 234 225
f 287 296 234
f 296 286 295
f 296 287 286
f 288 226 235
f 288 235 297
f 297 235 234
f 297 234 296
f 289 236 227
f 289 298 236
f 297 289 288
f 297 298 289
f 299 237 236
f 299 236 298
f 300 238 237
f 300 237 299
f 301 293 232
f 301 232 239
f 303 294 302
f 303 295 294
f 305 297 304
f 305 298 297
f 306 298 305
f 306 299 298
f 300 241 238
f 300 307 241
f 242 241 307
f 242 307 308
f 243 242 308
f 243 308 309
f 312 301 239
f 312 239 245
f 312 245 244
f 312 244 311
f 314 304 313
f 314 305 304
f 315 243 309
f 315 247 243
f 248 247 315
f 248 315 316
f 317 311 244
f 317 244 249
f 317 249 248
f 317 248 316
f 317 316 310
f 317 310 311
f 254 321 253
f 254 322 321
f 255 322 254
f 255 323 322
f 325 256 257
f 325 324 256
f 325 318 324
f 325 319 318
f 258 325 257
f 258 326 325
f 325 320 319
f 325 326 320
f 328 259 260
f 328 327 259
f 261 328 260
f 261 329 328
f 321 262 253
f 321 330 262
f 262 329 261
f 262 330 329
f 331 330 321
f 331 321 322
f 332 323 255
f 332 255 264
f 331 322 323
f 331 323 332
f 266 333 265
f 266 334 333
f 339 256 324
f 339 268 256
f 339 267 268
f 339 338 267
f 340 326 258
f 340 258 270
f 341 259 327
f 341 271 259
f 271 340 270
f 271 341 340
f 340 327 326
f 340 341 327
f 341 327 328
f 341 328 342
f 342 328 329
f 342 329 343
f 344 343 329
f 344 329 330
f 332 264 273
f 332 273 345
f 333 274 265
f 333 346 274
f 346 273 274
f 346 345 273
f 347 334 266
f 347 266 275
f 347 275 274
f 347 274 346
f 347 346 333
f 347 333 334
f 348 336 335
f 348 349 336
f 350 336 349
f 350 337 336
f 351 267 338
f 351 276 267
f 351 337 350
f 351 338 337
f 346 274 284
f 346 284 353
f 353 284 283
f 353 283 352
f 355 276 351
f 355 286 276
f 355 285 286
f 355 354 285
f 355 350 354
f 355 351 350
f 352 283 292
f 352 292 356
f 357 292 293
f 357 356 292
f 357 352 356
f 357 353 352
f 358 285 354
f 358 294 285
f 360 296 295
f 360 295 359
f 361 297 296
f 361 296 360
f 300 299 362
f 300 362 363
f 365 357 293
f 365 293 301
f 366 294 358
f 366 302 294
f 367 359 295
f 367 295 303
f 303 302 366
f 303 366 367
f 367 366 358
f 367 358 359
f 361 304 297
f 361 369 304
f 368 361 360
f 368 369 361
f 362 299 306
f 362 306 371
f 306 305 370
f 306 370 371
f 372 300 363
f 372 307 300
f 373 308 307
f 373 307 372
f 374 309 308
f 374 308 373
f 376 311 310
f 376 310 375
f 377 365 301
f 377 301 312
f 377 312 311
f 377 311 376
f 377 376 364
f 377 364 365
f 369 313 304
f 369 379 313
f 378 369 368
f 378 379 369
f 370 305 314
f 370 314 380
f 380 314 313
f 380 313 379
f 381 309 374
f 381 315 309
f 382 375 310
f 382 310 316
f 382 316 315
f 382 315 381
f 385 318 319
f 385 384 318
f 320 385 319
f 320 386 385
f 389 318 384
f 389 324 318
f 389 383 388
f 389 384 383
f 390 386 320
f 390 320 326
f 391 326 327
f 391 390 326
f 331 392 330
f 331 393 392
f 394 331 332
f 394 393 331
f 336 395 335
f 336 396 395
f 337 396 336
f 337 397 396
f 398 337 338
f 398 397 337
f 398 387 397
f 398 388 387
f 399 324 389
f 399 339 324
f 399 338 339
f 399 398 338
f 398 389 388
f 398 399 389
f 400 391 327
f 400 327 341
f 342 400 341
f 342 401 400
f 343 401 342
f 343 402 401
f 392 344 330
f 392 403 344
f 344 402 343
f 344 403 402
f 404 403 392
f 404 392 393
f 394 332 345
f 394 345 405
f 404 393 394
f 404 394 405
f 406 345 346
f 406 405 345
f 395 348 335
f 395 407 348
f 349 348 407
f 349 407 408
f 407 395 396
f 407 396 408
f 409 350 349
f 409 349 408
f 410 401 402
f 410 402 411
f 406 346 353
f 406 353 414
f 413 405 406
f 413 406 414
f 416 350 409
f 416 354 350
f 418 417 412
f 418 412 413
f 419 414 353
f 419 353 357
f 419 418 413
f 419 413 414
f 421 354 416
f 421 358 354
f 421 415 420
f 421 416 415
f 422 359 358
f 422 358 421
f 423 360 359
f 423 359 422
f 363 362 424
f 363 424 425
f 428 419 357
f 428 357 365
f 428 365 364
f 428 364 427
f 428 427 418
f 428 418 419
f 423 368 360
f 423 429 368
f 424 362 371
f 424 371 432
f 432 371 370
f 432 370 431
f 433 363 425
f 433 372 363
f 433 424 432
f 433 425 424
f 434 373 372
f 434 372 433
f 433 425 426
f 433 426 434
f 374 373 434
f 374 434 435
f 437 427 364
f 437 364 376
f 437 376 375
f 437 375 436
f 429 378 368
f 429 438 378
f 439 379 378
f 439 378 438
f 440 431 370
f 440 370 380
f 440 380 379
f 440 379 439
f 440 439 430
f 440 430 431
f 441 374 435
f 441 381 374
f 442 436 375
f 442 375 382
f 442 382 381
f 442 381 441
f 441 435 436
f 441 436 442
f 447 444 443
f 447 448 444
f 449 383 384
f 449 448 383
f 449 444 448
f 449 445 444
f 385 449 384
f 385 450 449
f 449 446 445
f 449 450 446
f 451 385 386
f 451 450 385
f 454 383 448
f 454 388 383
f 454 387 388
f 454 453 387
f 454 447 453
f 454 448 447
f 451 386 390
f 451 390 456
f 455 450 451
f 455 451 456
f 391 456 390
f 391 457 456
f 460 387 453
f 460 397 387
f 460 396 397
f 460 459 396
f 460 452 459
f 460 453 452
f 461 457 391
f 461 391 400
f 401 461 400
f 401 462 461
f 461 458 457
f 461 462 458
f 464 402 403
f 464 463 402
f 404 464 403
f 404 465 464
f 466 404 405
f 466 465 404
f 467 396 459
f 467 408 396
f 409 408 467
f 409 467 468
f 467 459 460
f 467 460 468
f 469 462 401
f 469 401 410
f 463 411 402
f 463 470 411
f 411 469 410
f 411 470 469
f 469 463 462
f 469 470 463
f 470 463 464
f 470 464 471
f 472 471 464
f 472 464 465
f 466 405 413
f 466 413 473
f 473 413 412
f 473 412 472
f 473 472 465
f 473 465 466
f 475 409 468
f 475 416 409
f 416 474 415
f 416 475 474
f 478 470 471
f 478 471 479
f 480 472 412
f 480 412 417
f 479 471 472
f 479 472 480
f 481 417 418
f 481 480 417
f 474 420 415
f 474 482 420
f 483 421 420
f 483 420 482
f 483 482 474
f 483 474 475
f 422 421 483
f 422 483 484
f 483 475 476
f 483 476 484
f 423 422 484
f 423 484 485
f 426 425 486
f 426 486 487
f 487 486 477
f 487 477 478
f 487 478 479
f 487 479 488
f 488 479 480
f 488 480 489
f 481 418 427
f 481 427 490
f 489 480 481
f 489 481 490
f 491 423 485
f 491 429 423
f 493 431 430
f 493 430 492
f 494 432 431
f 494 431 493
f 495 486 425
f 495 425 433
f 495 433 432
f 495 432 494
f 496 426 487
f 496 434 426
f 435 434 496
f 435 496 497
f 496 487 488
f 496 488 497
f 498 436 435
f 498 435 497
f 497 488 489
f 497 489 498
f 490 427 437
f 490 437 499
f 437 436 498
f 437 498 499
f 499 498 489
f 499 489 490
f 500 429 491
f 500 438 429
f 501 492 430
f 501 430 439
f 501 439 438
f 501 438 500
f 500 491 492
f 500 492 501
f 444 502 443
f 444 503 502
f 445 503 444
f 445 504 503
f 505 445 446
f 505 504 445
f 502 447 443
f 502 506 447
f 507 506 502
f 507 502 503
f 508 507 503
f 508 503 504
f 509 505 446
f 509 446 450
f 511 447 506
f 511 453 447
f 511 452 453
f 511 510 452
f 509 450 455
f 509 455 512
f 513 455 456
f 513 512 455
f 457 513 456
f 457 514 513
f 515 457 458
f 515 514 457
f 516 452 510
f 516 459 452
f 460 459 516
f 460 516 517
f 519 515 458
f 519 458 462
f 518 514 515
f 518 515 519
f 520 462 463
f 520 519 462
f 517 468 460
f 517 521 468
f 520 463 470
f 520 470 525
f 524 519 520
f 524 520 525
f 526 468 521
f 526 475 468
f 476 475 526
f 476 526 527
f 526 521 522
f 526 522 527
f 529 528 523
f 529 523 524
f 530 525 470
f 530 470 478
f 530 478 477
f 530 477 529
f 530 529 524
f 530 524 525
f 531 476 527
f 531 484 476
f 485 484 531
f 485 531 532
f 535 529 477
f 535 477 486
f 535 534 528
f 535 528 529
f 536 485 532
f 536 491 485
f 537 492 491
f 537 491 536
f 493 492 537
f 493 537 538
f 539 494 493
f 539 493 538
f 539 538 533
f 539 533 534
f 535 486 495
f 535 495 540
f 540 495 494
f 540 494 539
f 539 534 535
f 539 535 540
f 505 541 504
f 505 542 541
f 507 543 506
f 507 544 543
f 541 508 504
f 541 545 508
f 545 507 508
f 545 544 507
f 542 505 509
f 542 509 546
f 543 511 506
f 543 549 511
f 511 548 510
f 511 549 548
f 550 549 543
f 550 543 544
f 551 546 509
f 551 509 512
f 513 551 512
f 513 552 551
f 551 547 546
f 551 552 547
f 553 513 514
f 553 552 513
f 554 510 548
f 554 516 510
f 517 516 554
f 517 554 555
f 555 554 548
f 555 548 549
f 553 514 518
f 553 518 557
f 558 518 519
f 558 557 518
f 559 517 555
f 559 521 517
f 522 521 559
f 522 559 560
f 559 555 556
f 559 556 560
f 558 519 524
f 558 524 564
f 564 524 523
f 564 523 563
f 563 557 558
f 563 558 564
f 565 522 560
f 565 527 522
f 565 560 561
f 565 561 566
f 566 561 562
f 566 562 567
f 569 563 523
f 569 523 528
f 565 531 527
f 565 570 531
f 532 531 570
f 532 570 571
f 570 565 566
f 570 566 571
f 571 566 567
f 571 567 572
f 574 569 528
f 574 528 534
f 574 534 533
f 574 533 573
f 574 573 568
f 574 568 569
f 575 532 571
f 575 536 532
f 576 537 536
f 576 536 575
f 575 571 572
f 575 572 576
f 577 573 533
f 577 533 538
f 577 538 537
f 577 537 576
f 576 572 573
f 576 573 577
f 542 578 541
f 542 579 578
f 578 545 541
f 578 581 545
f 545 580 544
f 545 581 580
f 579 542 546
f 579 546 582
f 581 578 579
f 581 579 582
f 547 582 546
f 547 583 582
f 580 550 544
f 580 585 550
f 550 584 549
f 550 585 584
f 586 585 580
f 586 580 581
f 587 586 581
f 587 581 582
f 588 583 547
f 588 547 552
f 589 552 553
f 589 588 552
f 590 549 584
f 590 555 549
f 556 555 590
f 556 590 591
f 590 584 585
f 590 585 591
f 591 585 586
f 591 586 592
f 589 553 557
f 589 557 595
f 594 588 589
f 594 589 595
f 596 556 591
f 596 560 556
f 561 560 596
f 561 596 597
f 596 591 592
f 596 592 597
f 562 561 597
f 562 597 598
f 597 592 593
f 597 593 598
f 599 598 593
f 599 593 594
f 595 557 563
f 595 563 600
f 600 599 594
f 600 594 595
f 601 562 598
f 601 567 562
f 602 601 598
f 602 598 599
f 603 600 563
f 603 563 569
f 603 569 568
f 603 568 602
f 604 567 601
f 604 572 567
f 605 602 568
f 605 568 573
f 605 573 572
f 605 572 604
f 605 604 601
f 605 601 602
f 583 606 582
f 583 607 606
f 606 587 582
f 606 609 587
f 587 608 586
f 587 609 608
f 610 607 583
f 610 583 588
f 610 609 606
f 610 606 607
f 608 592 586
f 608 611 592
f 593 592 611
f 593 611 612
f 612 611 608
f 612 608 609
f 613 610 588
f 613 588 594
f 613 594 593
f 613 593 612
f 613 612 609
f 613 609 610
f 615 599 600
f 615 614 599
f 616 599 614
f 616 602 599
f 615 600 603
f 615 603 617
f 603 602 616
f 603 616 617
f 616 614 615
f 616 615 617
