# parsimony mesh: g6240_monomer (source /Users/eranagmon/code/v2e-flagella/workspace/studies/ecoli-3d/viz/3d/structures/g6240_monomer.pdb)
# atoms: 1289  voxel: 8 Å  verts: 160  tris: 320
v 23.9340 -8.7261 -24.3002
v 25.5667 -8.7261 -24.3002
v 8.3608 -0.8096 -24.2447
v 10.3828 -0.8096 -24.2447
v 23.9340 -6.8025 -24.3002
v 25.5667 -6.8025 -24.3002
v 8.4048 3.6387 -24.1826
v 10.3575 3.6387 -24.1826
v 8.6995 7.7561 -23.8829
v 9.2810 7.7561 -23.8829
v 15.8107 -8.7934 -16.6384
v 21.0727 -8.8519 -19.5135
v 25.3986 -8.6504 -19.8262
v 7.3231 -1.7461 -19.8262
v 13.0968 -3.9512 -19.8312
v 21.0727 -4.2261 -21.4246
v 25.7023 -4.2261 -19.8187
v 5.8275 3.6387 -19.8262
v 14.3575 3.6387 -22.7525
v 20.7808 3.6387 -20.2517
v 25.5955 3.6387 -17.3253
v 0.2390 14.2545 -16.1449
v 5.1170 11.0053 -18.9256
v 12.2809 10.9091 -21.5613
v 21.3106 11.9333 -18.4401
v 25.1549 9.4631 -16.5043
v 0.2390 15.9847 -16.1449
v 4.7808 16.2162 -16.4752
v 12.7808 16.7112 -17.4671
v 18.9971 16.6447 -17.4673
v 0.3511 -8.7757 -8.1465
v 4.7808 -10.4130 -9.1374
v 12.9987 -10.4310 -11.8830
v 21.4465 -9.0508 -12.2305
v 24.8186 -8.3820 -15.1667
v -15.2323 -0.4051 -7.8418
v -14.8102 -0.4051 -7.8418
v -1.2371 -4.3613 -8.8615
v 4.6667 -4.4002 -12.7112
v 10.4774 -7.0928 -14.5876
v 24.5571 -7.0071 -9.8334
v 25.2593 -4.3488 -12.2305
v -15.2323 -0.3378 -7.8418
v -14.8102 -0.3378 -7.8418
v -1.5117 3.6387 -9.9261
v 2.2035 3.6387 -13.9261
v 22.9985 5.1097 -9.7639
v 25.4610 2.9213 -12.1888
v 0.1120 11.4969 -12.3123
v 3.3895 12.0252 -11.7731
v 12.7808 15.1938 -8.2125
v 20.9978 12.3283 -11.6007
v 25.1549 9.4631 -15.0972
v 0.2390 15.9847 -15.0586
v 4.7808 16.2162 -13.4284
v 12.7808 16.7112 -12.2125
v 18.9971 16.6447 -13.4375
v -16.1143 -9.1498 -0.8368
v -11.2192 -9.1844 -0.8524
v -2.6770 -9.1245 -3.2408
v 4.7808 -11.9136 -3.8262
v 12.7808 -11.9398 -3.8262
v 19.0141 -9.1098 -3.8262
v -23.7335 -0.7482 0.0212
v -18.3400 -3.2433 -3.0745
v -11.7738 -3.5876 -5.3055
v -5.2371 -4.3613 -5.9174
v 22.0258 -4.3488 -4.5788
v 24.8282 -1.6738 -7.7471
v -24.0629 3.6387 -0.4093
v -18.4271 2.8528 -3.7473
v -11.7738 2.8528 -5.0876
v -5.5117 3.6387 -6.0846
v 21.1551 2.9213 -4.5788
v 24.8282 -0.2236 -7.7471
v -23.8299 8.1591 -0.4511
v -19.2192 8.4368 -0.6131
v -11.2192 8.5292 -0.5800
v -2.8967 9.0989 -3.3746
v 4.7808 12.0331 -3.8262
v 12.7808 12.8628 -3.8262
v 17.9257 9.8109 -3.8262
v -15.7401 -16.5189 7.8641
v -14.8967 -16.5189 7.8641
v -24.7241 -9.8975 6.9216
v -18.5939 -12.1903 4.7262
v -11.8257 -12.9339 4.7879
v -2.9572 -9.5900 4.1976
v 5.1154 -9.6884 4.1976
v 12.4106 -9.5402 3.8107
v 17.3155 -8.6630 0.9019
v -25.3068 -3.7934 4.2225
v -21.4476 -6.0815 1.5883
v -0.1158 -7.4397 6.8801
v 2.6718 -7.4397 6.8801
v 15.1175 -4.3613 6.4538
v 17.5049 -4.3613 2.4538
v -24.7703 3.9624 4.4527
v -22.3084 6.8449 7.3053
v 15.5156 3.6387 6.7695
v 17.5854 3.6387 2.7695
v -23.8299 8.1591 1.9719
v -19.4727 9.3631 4.4527
v -11.2192 10.6261 4.1738
v -3.2192 9.5375 4.1738
v 4.7808 10.0789 4.1738
v 12.7290 9.4545 4.0632
v 17.4229 8.3136 1.3228
v -16.9017 -16.8371 12.1738
v -14.4721 -16.8371 12.1738
v -31.5065 -8.7329 15.2948
v -27.3222 -10.5775 12.4464
v -20.9017 -14.8529 12.1738
v -10.4721 -13.9869 12.1738
v -5.0736 -9.9869 12.1738
v 8.0052 -8.5722 8.3622
v 9.4971 -8.5722 8.3622
v -31.5065 -8.0067 15.2948
v -28.3179 -4.9486 12.4464
v -1.4931 -4.6084 12.2018
v 5.1154 -4.6084 9.3419
v 11.1175 -4.3613 8.5989
v -24.4639 1.3419 12.1738
v -21.2970 5.3419 12.1738
v -1.9058 3.6387 13.4346
v 4.7808 3.6387 10.0921
v 11.5156 3.6387 8.8312
v -17.2970 9.3798 12.1738
v -11.2192 10.3657 12.1738
v -3.7781 8.5552 11.5544
v 4.7808 8.3991 8.7732
v 10.0278 8.4397 8.6719
v -16.9417 -16.8381 17.6782
v -14.5455 -16.8381 17.6782
v -31.5065 -8.7329 16.7780
v -26.6151 -9.7708 19.7363
v -19.4527 -13.8159 20.2764
v -11.3143 -12.4066 20.5222
v -6.1284 -9.3385 18.0330
v -31.5065 -8.0067 16.7780
v -26.1489 -5.3425 19.3334
v -19.2192 -3.2873 21.1900
v -10.6570 -4.5006 22.9234
v -5.5203 -4.3779 20.4893
v -23.4187 0.0367 16.5554
v -19.0280 3.0775 17.4763
v -10.8263 3.0724 20.6294
v -5.9337 3.0724 19.5559
v -16.2338 8.1502 16.9897
v -11.2192 8.2689 17.0133
v -6.8174 7.9674 16.4773
v -23.5457 -8.5531 24.3082
v -19.2192 -9.8402 24.7861
v -13.4164 -10.1414 24.8558
v -23.5457 -8.0116 24.3082
v -19.2192 -7.2873 24.7861
v -10.6570 -4.5006 24.6799
v -6.8279 -1.7223 24.5040
v -7.8976 0.0282 24.5040
v -6.8279 0.0282 24.5040
f 5 2 1
f 5 6 2
f 7 4 3
f 7 8 4
f 10 7 9
f 10 8 7
f 13 1 2
f 13 12 1
f 4 14 3
f 4 15 14
f 12 5 1
f 12 16 5
f 16 11 15
f 16 12 11
f 13 2 6
f 13 6 17
f 17 6 5
f 17 5 16
f 18 3 14
f 18 7 3
f 19 15 4
f 19 4 8
f 19 16 15
f 19 20 16
f 20 17 16
f 20 21 17
f 18 9 7
f 18 23 9
f 19 8 10
f 19 10 24
f 24 10 9
f 24 9 23
f 24 20 19
f 24 25 20
f 26 20 25
f 26 21 20
f 28 22 27
f 28 23 22
f 29 23 28
f 29 24 23
f 30 24 29
f 30 25 24
f 34 11 12
f 34 33 11
f 35 12 13
f 35 34 12
f 39 31 38
f 39 32 31
f 40 11 33
f 40 15 11
f 40 14 15
f 40 39 14
f 40 32 39
f 40 33 32
f 35 13 17
f 35 17 42
f 41 34 35
f 41 35 42
f 43 37 36
f 43 44 37
f 46 14 39
f 46 18 14
f 46 38 45
f 46 39 38
f 42 17 21
f 42 21 48
f 46 23 18
f 46 50 23
f 50 22 23
f 50 49 22
f 49 46 45
f 49 50 46
f 53 48 21
f 53 21 26
f 53 26 25
f 53 25 52
f 53 52 47
f 53 47 48
f 54 22 49
f 54 27 22
f 28 27 54
f 28 54 55
f 54 49 50
f 54 50 55
f 29 28 55
f 29 55 56
f 55 50 51
f 55 51 56
f 57 52 25
f 57 25 30
f 57 30 29
f 57 29 56
f 57 56 51
f 57 51 52
f 61 31 32
f 61 60 31
f 62 32 33
f 62 61 32
f 63 33 34
f 63 62 33
f 66 36 37
f 66 65 36
f 66 58 65
f 66 59 58
f 67 31 60
f 67 38 31
f 67 59 66
f 67 60 59
f 63 34 41
f 63 41 68
f 69 41 42
f 69 68 41
f 71 36 65
f 71 43 36
f 71 64 70
f 71 65 64
f 66 37 44
f 66 44 72
f 72 44 43
f 72 43 71
f 73 38 67
f 73 45 38
f 73 66 72
f 73 67 66
f 75 69 42
f 75 42 48
f 75 48 47
f 75 47 74
f 75 74 68
f 75 68 69
f 77 70 76
f 77 71 70
f 78 71 77
f 78 72 71
f 79 45 73
f 79 49 45
f 78 73 72
f 78 79 73
f 80 50 49
f 80 49 79
f 51 50 80
f 51 80 81
f 82 74 47
f 82 47 52
f 82 52 51
f 82 51 81
f 87 58 59
f 87 86 58
f 87 83 86
f 87 84 83
f 88 59 60
f 88 87 59
f 89 60 61
f 89 88 60
f 90 61 62
f 90 89 61
f 91 62 63
f 91 90 62
f 93 58 86
f 93 65 58
f 93 64 65
f 93 92 64
f 93 85 92
f 93 86 85
f 94 88 89
f 94 89 95
f 97 91 63
f 97 63 68
f 96 90 91
f 96 91 97
f 98 64 92
f 98 70 64
f 97 68 74
f 97 74 101
f 101 100 96
f 101 96 97
f 102 70 98
f 102 76 70
f 77 76 102
f 77 102 103
f 102 98 99
f 102 99 103
f 104 78 77
f 104 77 103
f 105 79 78
f 105 78 104
f 106 80 79
f 106 79 105
f 107 81 80
f 107 80 106
f 108 101 74
f 108 74 82
f 108 82 81
f 108 81 107
f 108 107 100
f 108 100 101
f 110 83 84
f 110 109 83
f 113 83 109
f 113 86 83
f 113 85 86
f 113 112 85
f 114 110 84
f 114 84 87
f 115 87 88
f 115 114 87
f 117 89 90
f 117 116 89
f 119 85 112
f 119 92 85
f 118 112 111
f 118 119 112
f 115 88 94
f 115 94 120
f 116 95 89
f 116 121 95
f 121 94 95
f 121 120 94
f 122 117 90
f 122 90 96
f 122 121 116
f 122 116 117
f 123 92 119
f 123 98 92
f 99 98 123
f 99 123 124
f 126 125 120
f 126 120 121
f 127 122 96
f 127 96 100
f 126 121 122
f 126 122 127
f 128 99 124
f 128 103 99
f 104 103 128
f 104 128 129
f 130 105 104
f 130 104 129
f 131 106 105
f 131 105 130
f 131 130 125
f 131 125 126
f 132 127 100
f 132 100 107
f 132 107 106
f 132 106 131
f 132 131 126
f 132 126 127
f 134 109 110
f 134 133 109
f 112 135 111
f 112 136 135
f 133 113 109
f 133 137 113
f 113 136 112
f 113 137 136
f 134 110 114
f 134 114 138
f 137 133 134
f 137 134 138
f 139 114 115
f 139 138 114
f 135 118 111
f 135 140 118
f 119 118 140
f 119 140 141
f 140 135 136
f 140 136 141
f 139 115 120
f 139 120 144
f 143 138 139
f 143 139 144
f 145 119 141
f 145 123 119
f 124 123 145
f 124 145 146
f 145 141 142
f 145 142 146
f 147 146 142
f 147 142 143
f 144 120 125
f 144 125 148
f 149 124 146
f 149 128 124
f 129 128 149
f 129 149 150
f 149 146 147
f 149 147 150
f 151 148 125
f 151 125 130
f 151 130 129
f 151 129 150
f 151 150 147
f 151 147 148
f 137 152 136
f 137 153 152
f 154 137 138
f 154 153 137
f 155 136 152
f 155 141 136
f 142 141 155
f 142 155 156
f 156 155 152
f 156 152 153
f 154 138 143
f 154 143 157
f 143 142 156
f 143 156 157
f 156 153 154
f 156 154 157
f 158 143 144
f 158 157 143
f 159 143 157
f 159 147 143
f 160 158 144
f 160 144 148
f 148 147 159
f 148 159 160
f 159 157 158
f 159 158 160
