# parsimony mesh: g6268_monomer (source /Users/eranagmon/code/v2e-cplx/workspace/studies/ecoli-3d/viz/3d/structures/g6268_monomer.pdb)
# atoms: 2237  voxel: 8 Å  verts: 259  tris: 532
v 25.0226 -8.5543 -34.9181
v 25.6968 -8.5543 -34.9181
v 14.7308 -1.0802 -35.6935
v 21.9346 -3.9889 -35.9096
v 26.5535 -4.3520 -35.4858
v 8.8954 5.1427 -35.6681
v 12.5594 2.9448 -37.3822
v 21.3025 3.6480 -38.4184
v 26.9827 3.6480 -35.8107
v 8.8954 8.7108 -35.6681
v 13.4283 11.4857 -37.6031
v 21.3025 11.6480 -38.8926
v 27.9807 11.6480 -36.0088
v 16.1788 16.1907 -36.0616
v 21.3025 16.7210 -36.5416
v 27.9068 16.5360 -35.8191
v 25.0226 -8.5543 -34.2543
v 25.6968 -8.5543 -34.2543
v 0.9380 -1.2909 -27.4093
v 5.3025 -2.0679 -29.1870
v 12.5594 -2.8603 -31.4944
v 21.9346 -5.9869 -31.2478
v 28.8031 -3.8795 -30.9117
v 33.7204 -0.8469 -27.5691
v 0.9380 1.9139 -27.4093
v 5.1947 3.5283 -31.0373
v 9.3974 -0.1906 -34.6653
v 30.9827 3.6480 -32.3336
v 36.7532 4.2348 -28.2340
v 41.5636 7.2927 -27.1039
v 7.5155 11.4857 -30.0882
v 10.8455 14.0441 -32.3218
v 31.9807 11.6480 -33.6267
v 36.7629 11.1337 -29.2685
v 41.5636 8.1242 -27.1039
v 9.2064 15.7123 -26.9884
v 13.4283 16.3188 -30.0882
v 21.3025 17.5480 -30.7379
v 30.0651 16.7059 -31.4711
v 33.7365 15.9313 -29.2932
v 8.8202 -8.7312 -19.5977
v 13.3025 -8.8049 -20.4802
v 19.4560 -8.5766 -20.2011
v 0.9380 -1.2909 -25.4975
v 5.5395 -4.1626 -22.5476
v 13.3025 -6.9412 -24.4802
v 21.7946 -7.0392 -22.8158
v 29.2479 -2.8742 -23.0638
v 33.7204 -0.8469 -25.9477
v 1.0980 4.6427 -22.6900
v 1.8765 4.6427 -22.6900
v 31.8782 1.4722 -20.6144
v 36.4622 4.3825 -23.4500
v 41.5636 7.2927 -26.2857
v 1.2579 7.7509 -19.8825
v 4.2443 10.9097 -22.6247
v 37.6260 11.1337 -23.2666
v 41.5636 8.1242 -26.2857
v 8.8360 16.7712 -22.7379
v 13.4645 20.0531 -22.0638
v 20.6471 19.9467 -22.0638
v 29.3025 17.2204 -22.7379
v 34.2807 16.2301 -22.7379
v 16.2392 23.8660 -18.9477
v 17.5435 23.8660 -18.9477
v 7.2559 -8.7533 -14.7379
v 12.8451 -8.8078 -14.9438
v 19.4560 -8.5766 -17.7478
v 0.1315 -2.9214 -12.2106
v 3.4390 -5.0937 -14.8215
v 15.2068 -6.9540 -12.4145
v 21.7946 -6.8422 -14.9438
v 27.1188 -3.5132 -14.7379
v 0.6947 4.0250 -15.3999
v 2.5363 4.0250 -15.3999
v 31.1188 2.2233 -14.7379
v 34.3629 6.2233 -14.7379
v 1.2579 7.7509 -18.5892
v 4.9327 10.9097 -15.4487
v 24.0778 15.3272 -11.0487
v 29.3025 14.6249 -11.9898
v 34.6730 11.8220 -14.7530
v 8.7068 17.1824 -14.7379
v 13.4645 20.2891 -15.2054
v 20.8107 18.8569 -14.6162
v 29.3025 16.5640 -15.9898
v 34.1728 16.1408 -17.4296
v 16.2392 23.8660 -18.1838
v 17.5435 23.8660 -18.1838
v -7.0202 -9.3036 -3.2183
v -2.6975 -10.3719 -5.0402
v 4.7545 -9.6871 -7.4915
v 9.8358 -8.7147 -6.7379
v -7.2705 -4.3520 -3.7746
v -2.6001 -5.0937 -8.3208
v 1.7226 -8.2548 -10.6606
v 13.6833 -4.3132 -7.0268
v 21.3025 -2.6032 -8.9828
v 26.4818 -2.0849 -9.2496
v -7.1388 0.3076 -3.6397
v -2.2211 3.1597 -6.1785
v 5.2512 6.3259 -6.2486
v 13.2566 3.8431 -5.5073
v 21.3025 3.6480 -7.6000
v 29.2101 3.8137 -8.7049
v 34.1482 6.5908 -9.7739
v 0.7597 7.9196 -3.3840
v 5.7149 10.0501 -6.7675
v 13.3025 11.6480 -8.5235
v 21.3677 12.2555 -9.5510
v 29.3025 10.6249 -9.3129
v 34.1482 9.2714 -9.7739
v 9.0341 16.2606 -10.4523
v 13.3025 16.3745 -10.4228
v 18.7445 16.0040 -10.6034
v 0.9371 -24.6789 4.8118
v 2.0753 -24.6789 4.8118
v -7.1086 -16.8232 3.9500
v -2.1167 -19.8347 3.0576
v 4.9662 -19.9794 3.4523
v 9.5757 -17.0643 4.6078
v -7.6511 -12.1230 1.2749
v -2.6975 -14.3719 -1.1558
v 7.0035 -11.5759 1.7642
v 9.5091 -11.2424 2.1372
v -31.3187 -0.7254 5.0923
v -26.6975 -0.9561 4.8490
v -21.4657 -0.7841 4.8811
v -9.3943 -4.3520 1.2621
v 9.2715 -8.2869 4.9998
v 10.4957 -5.1129 1.9047
v -32.0399 3.6480 4.8850
v -26.7004 3.4679 4.7318
v -21.4657 0.6812 4.8811
v -8.5300 3.2437 1.8144
v -4.5737 5.6409 -0.4841
v 7.6885 6.6399 -1.4420
v 10.7727 3.8431 1.2396
v -31.8662 8.1021 4.9291
v -29.3690 8.1021 4.9291
v -7.3341 7.9620 4.8492
v -2.2232 8.7009 1.8144
v 5.1341 9.0378 1.2396
v 9.9042 8.5235 3.8913
v 0.9371 -24.6789 5.8755
v 2.0753 -24.6789 5.8755
v -7.6905 -17.1659 9.2621
v -2.1167 -20.7960 8.8301
v 4.9662 -21.1380 8.8301
v 10.2940 -17.5933 9.2621
v -32.1860 -9.1144 12.2577
v -26.6975 -9.3713 12.0265
v -18.6975 -9.2471 12.3753
v -11.2052 -11.9101 9.7385
v 9.2028 -8.5366 9.2621
v 10.2940 -12.5366 9.2621
v -33.4875 -3.7760 9.4594
v -26.6975 -4.9561 8.0265
v -18.7584 -3.8112 8.2731
v -12.8213 -4.3520 7.5082
v 8.3594 -5.1129 9.2449
v 9.8942 -2.9535 6.5669
v -38.7854 5.7063 12.8189
v -34.8720 4.7796 10.8575
v -27.2007 6.6442 9.3627
v -18.7584 3.4679 7.1044
v -10.3008 5.2082 9.2040
v -6.2229 7.2886 12.2264
v 7.8635 1.5070 11.9002
v 10.1493 3.9634 9.2449
v -38.7854 7.7908 12.8189
v -34.6827 7.9465 10.0560
v -27.2007 8.5365 9.3627
v -18.6975 9.8076 10.9144
v -9.9132 8.5832 9.4273
v -3.2128 8.9506 9.4406
v 5.3025 9.9008 9.2621
v 9.9172 8.5080 9.2621
v -7.5558 -16.8988 17.2621
v -2.6670 -17.3824 17.8018
v 5.3025 -17.8003 15.6296
v 10.3513 -17.2948 14.1859
v -33.6605 -10.4450 17.2621
v -26.6975 -11.5764 17.2621
v -18.6975 -10.7445 17.2621
v -11.5558 -13.6132 17.2621
v 0.0200 -16.0155 20.8282
v 5.7204 -12.2470 17.5071
v 10.3513 -13.8118 14.1859
v -39.2461 -2.7786 18.7673
v -37.7922 -5.0079 16.5652
v -0.4715 -1.6366 19.6015
v 4.1406 -4.3228 17.0657
v -39.0157 3.2391 16.1726
v -35.9375 4.5840 15.3834
v -30.3657 7.2740 13.8050
v -8.6184 5.7859 17.2621
v -3.3472 3.7399 16.7541
v 5.2391 3.9634 14.4015
v 9.5203 6.8403 13.5104
v -38.7854 7.7908 13.5780
v -34.6206 7.9517 16.3582
v -27.2984 9.2980 16.7878
v -18.6975 10.8812 17.2621
v -12.6184 9.1670 17.2621
v -0.8896 8.3358 13.9066
v 5.3025 8.3672 13.9317
v 9.5203 7.9192 13.5104
v -31.4893 -17.0967 27.2361
v -26.6975 -17.7878 26.9987
v -20.2497 -17.5216 28.2702
v -6.9290 -16.4672 21.8063
v -5.3133 -16.4672 21.8063
v -33.3363 -12.7690 24.8465
v -26.6975 -14.5571 22.9987
v -18.0288 -14.2316 25.4670
v -10.0364 -14.4952 24.7886
v -2.0584 -12.8593 25.5006
v 2.2402 -10.6822 23.8616
v -39.3739 -2.6187 25.2621
v -37.4021 -6.6187 25.2621
v -8.1170 -2.0412 27.4018
v -2.3041 -4.5056 25.6317
v 2.2402 -6.9700 23.8616
v -39.3739 0.9514 25.2621
v -35.7779 4.9514 25.2621
v -23.7704 7.0812 28.8114
v -18.6975 5.9422 27.3765
v -11.1238 3.0658 24.6336
v -5.8048 0.1913 22.0685
v -31.7779 8.1872 25.2621
v -26.5413 8.6569 25.7917
v -18.6975 8.7216 23.3765
v -14.1307 8.1169 21.8654
v -31.4893 -17.0967 30.4734
v -26.6975 -17.7878 31.6977
v -20.2497 -17.5216 31.2983
v -32.1493 -12.3520 31.2358
v -26.6975 -12.3520 34.5027
v -18.5290 -12.6428 34.1067
v -10.8185 -11.1116 33.2143
v -4.1368 -9.7032 30.5158
v -39.0508 -0.9477 29.9166
v -34.5839 -3.9094 30.9167
v -26.6975 -4.3520 33.2366
v -19.1640 -4.6474 35.1111
v -10.8414 -4.7761 33.1650
v -4.1368 -7.3745 30.5158
v -39.0508 0.2620 29.9166
v -34.1350 3.2164 30.2104
v -26.5413 4.1079 30.3436
v -18.6975 1.9422 30.8336
v -13.4503 0.6071 30.4809
v -31.0934 7.9024 29.5051
v -29.1037 7.9024 29.5051
v -16.8083 -9.1307 37.6780
v -13.5658 -9.1307 37.6780
v -16.8083 -7.5109 37.6780
v -13.5658 -7.5109 37.6780
f 5 1 4
f 5 2 1
f 8 3 7
f 8 4 3
f 9 4 8
f 9 5 4
f 10 7 6
f 10 11 7
f 11 8 7
f 11 12 8
f 12 9 8
f 12 13 9
f 14 12 11
f 14 15 12
f 15 13 12
f 15 16 13
f 2 17 1
f 2 18 17
f 22 1 17
f 22 4 1
f 22 3 4
f 22 21 3
f 18 2 5
f 18 5 23
f 22 17 18
f 22 18 23
f 25 20 19
f 25 26 20
f 27 3 21
f 27 7 3
f 27 6 7
f 27 26 6
f 27 20 26
f 27 21 20
f 23 5 9
f 23 9 28
f 28 24 23
f 28 29 24
f 26 10 6
f 26 31 10
f 32 11 10
f 32 10 31
f 28 9 13
f 28 13 33
f 34 28 33
f 34 29 28
f 35 29 34
f 35 30 29
f 32 14 11
f 32 37 14
f 36 32 31
f 36 37 32
f 38 15 14
f 38 14 37
f 33 13 16
f 33 16 39
f 16 15 38
f 16 38 39
f 40 33 39
f 40 34 33
f 20 44 19
f 20 45 44
f 46 20 21
f 46 45 20
f 46 41 45
f 46 42 41
f 22 46 21
f 22 47 46
f 46 43 42
f 46 47 43
f 23 47 22
f 23 48 47
f 24 48 23
f 24 49 48
f 44 25 19
f 44 50 25
f 51 26 25
f 51 25 50
f 51 50 44
f 51 44 45
f 49 24 29
f 49 29 53
f 52 48 49
f 52 49 53
f 54 29 30
f 54 53 29
f 56 26 51
f 56 31 26
f 55 51 50
f 55 56 51
f 54 30 35
f 54 35 58
f 35 34 57
f 35 57 58
f 57 53 54
f 57 54 58
f 56 36 31
f 56 59 36
f 60 37 36
f 60 36 59
f 61 38 37
f 61 37 60
f 62 39 38
f 62 38 61
f 57 34 40
f 57 40 63
f 40 39 62
f 40 62 63
f 65 60 64
f 65 61 60
f 67 41 42
f 67 66 41
f 68 42 43
f 68 67 42
f 70 41 66
f 70 45 41
f 68 43 47
f 68 47 72
f 71 67 68
f 71 68 72
f 73 47 48
f 73 72 47
f 75 45 70
f 75 51 45
f 51 74 50
f 51 75 74
f 75 69 74
f 75 70 69
f 73 48 52
f 73 52 76
f 77 52 53
f 77 76 52
f 78 50 74
f 78 55 50
f 56 55 78
f 56 78 79
f 78 74 75
f 78 75 79
f 77 53 57
f 77 57 82
f 79 59 56
f 79 83 59
f 60 59 83
f 60 83 84
f 86 62 61
f 86 61 85
f 86 85 80
f 86 80 81
f 87 82 57
f 87 57 63
f 87 63 62
f 87 62 86
f 86 81 82
f 86 82 87
f 84 64 60
f 84 88 64
f 89 85 61
f 89 61 65
f 65 64 88
f 65 88 89
f 89 88 84
f 89 84 85
f 93 66 67
f 93 92 66
f 94 91 90
f 94 95 91
f 96 66 92
f 96 70 66
f 96 69 70
f 96 95 69
f 96 91 95
f 96 92 91
f 93 67 71
f 93 71 97
f 98 71 72
f 98 97 71
f 73 98 72
f 73 99 98
f 101 69 95
f 101 74 69
f 100 95 94
f 100 101 95
f 75 74 101
f 75 101 102
f 103 97 98
f 103 98 104
f 99 73 76
f 99 76 105
f 104 98 99
f 104 99 105
f 106 76 77
f 106 105 76
f 102 79 75
f 102 108 79
f 107 102 101
f 107 108 102
f 108 102 103
f 108 103 109
f 109 103 104
f 109 104 110
f 111 81 80
f 111 80 110
f 111 110 104
f 111 104 105
f 112 106 77
f 112 77 82
f 112 82 81
f 112 81 111
f 111 105 106
f 111 106 112
f 113 79 108
f 113 83 79
f 114 84 83
f 114 83 113
f 113 108 109
f 113 109 114
f 115 110 80
f 115 80 85
f 115 85 84
f 115 84 114
f 115 114 109
f 115 109 110
f 120 116 119
f 120 117 116
f 123 90 91
f 123 122 90
f 123 118 122
f 123 119 118
f 92 123 91
f 92 124 123
f 123 120 119
f 123 124 120
f 93 124 92
f 93 125 124
f 124 121 120
f 124 125 121
f 129 90 122
f 129 94 90
f 131 125 93
f 131 93 97
f 130 124 125
f 130 125 131
f 133 126 132
f 133 127 126
f 134 127 133
f 134 128 127
f 129 100 94
f 129 135 100
f 136 101 100
f 136 100 135
f 131 97 103
f 131 103 138
f 103 102 137
f 103 137 138
f 140 132 139
f 140 133 132
f 136 107 101
f 136 142 107
f 141 136 135
f 141 142 136
f 137 102 108
f 137 108 143
f 143 108 107
f 143 107 142
f 144 137 143
f 144 138 137
f 117 145 116
f 117 146 145
f 148 116 145
f 148 119 116
f 148 118 119
f 148 147 118
f 146 117 120
f 146 120 149
f 149 148 145
f 149 145 146
f 121 149 120
f 121 150 149
f 154 118 147
f 154 122 118
f 156 150 121
f 156 121 125
f 125 124 155
f 125 155 156
f 158 126 127
f 158 157 126
f 158 151 157
f 158 152 151
f 128 158 127
f 128 159 158
f 158 153 152
f 158 159 153
f 160 122 154
f 160 129 122
f 160 153 159
f 160 154 153
f 155 124 130
f 155 130 161
f 162 130 131
f 162 161 130
f 164 126 157
f 164 132 126
f 166 159 128
f 166 128 134
f 166 134 133
f 166 133 165
f 160 135 129
f 160 167 135
f 166 160 159
f 166 167 160
f 162 131 138
f 162 138 170
f 169 161 162
f 169 162 170
f 172 132 164
f 172 139 132
f 171 164 163
f 171 172 164
f 165 133 140
f 165 140 173
f 173 140 139
f 173 139 172
f 172 164 165
f 172 165 173
f 174 165 173
f 174 166 165
f 167 141 135
f 167 175 141
f 174 167 166
f 174 175 167
f 176 142 141
f 176 141 175
f 175 167 168
f 175 168 176
f 177 143 142
f 177 142 176
f 170 138 144
f 170 144 178
f 144 143 177
f 144 177 178
f 180 147 148
f 180 179 147
f 181 148 149
f 181 180 148
f 150 181 149
f 150 182 181
f 184 151 152
f 184 183 151
f 185 152 153
f 185 184 152
f 186 147 179
f 186 154 147
f 186 153 154
f 186 185 153
f 187 180 181
f 187 181 188
f 189 182 150
f 189 150 156
f 189 156 155
f 189 155 188
f 189 188 181
f 189 181 182
f 191 151 183
f 191 157 151
f 193 188 155
f 193 155 161
f 195 157 191
f 195 164 157
f 195 163 164
f 195 194 163
f 194 191 190
f 194 195 191
f 196 165 164
f 196 164 195
f 168 167 197
f 168 197 198
f 193 161 169
f 193 169 199
f 199 198 192
f 199 192 193
f 200 169 170
f 200 199 169
f 201 163 194
f 201 171 163
f 202 195 164
f 202 164 172
f 172 171 201
f 172 201 202
f 201 194 195
f 201 195 202
f 196 173 165
f 196 203 173
f 202 196 195
f 202 203 196
f 174 173 203
f 174 203 204
f 197 167 175
f 197 175 205
f 205 175 174
f 205 174 204
f 206 168 198
f 206 176 168
f 177 176 206
f 177 206 207
f 206 198 199
f 206 199 207
f 200 170 178
f 200 178 208
f 208 178 177
f 208 177 207
f 207 199 200
f 207 200 208
f 213 179 180
f 213 212 179
f 215 183 184
f 215 214 183
f 215 209 214
f 215 210 209
f 185 215 184
f 185 216 215
f 215 211 210
f 215 216 211
f 212 186 179
f 212 217 186
f 186 216 185
f 186 217 216
f 213 180 187
f 213 187 218
f 217 212 213
f 217 213 218
f 219 187 188
f 219 218 187
f 221 183 214
f 221 191 183
f 221 190 191
f 221 220 190
f 224 219 188
f 224 188 193
f 224 193 192
f 224 192 223
f 224 223 218
f 224 218 219
f 225 190 220
f 225 194 190
f 226 195 194
f 226 194 225
f 230 223 192
f 230 192 198
f 230 198 197
f 230 197 229
f 230 229 222
f 230 222 223
f 226 202 195
f 226 231 202
f 203 202 231
f 203 231 232
f 233 204 203
f 233 203 232
f 233 232 227
f 233 227 228
f 234 229 197
f 234 197 205
f 234 205 204
f 234 204 233
f 234 233 228
f 234 228 229
f 210 235 209
f 210 236 235
f 211 236 210
f 211 237 236
f 238 209 235
f 238 214 209
f 238 235 236
f 238 236 239
f 237 211 216
f 237 216 240
f 239 236 237
f 239 237 240
f 241 216 217
f 241 240 216
f 242 217 218
f 242 241 217
f 238 221 214
f 238 244 221
f 221 243 220
f 221 244 243
f 245 244 238
f 245 238 239
f 246 245 239
f 246 239 240
f 242 218 223
f 242 223 248
f 248 223 222
f 248 222 247
f 248 247 241
f 248 241 242
f 243 225 220
f 243 249 225
f 226 225 249
f 226 249 250
f 249 243 244
f 249 244 250
f 250 244 245
f 250 245 251
f 252 228 227
f 252 227 251
f 252 251 245
f 252 245 246
f 253 247 222
f 253 222 229
f 253 229 228
f 253 228 252
f 253 252 246
f 253 246 247
f 254 226 250
f 254 231 226
f 255 251 227
f 255 227 232
f 255 232 231
f 255 231 254
f 254 250 251
f 254 251 255
f 257 240 241
f 257 256 240
f 256 246 240
f 256 258 246
f 259 257 241
f 259 241 247
f 259 247 246
f 259 246 258
f 258 256 257
f 258 257 259
