# parsimony mesh: g6359_monomer (source /Users/eranagmon/code/v2e-flagella/workspace/studies/ecoli-3d/viz/3d/structures/g6359_monomer.pdb)
# atoms: 2347  voxel: 16 Å  verts: 67  tris: 126
v 17.4000 -5.1349 -23.8505
v 29.4316 -5.1933 -23.6966
v 37.8404 -3.9734 -22.3960
v -10.8962 9.7773 -22.2910
v -2.5684 7.9042 -23.2840
v 12.6127 4.2363 -25.2787
v 28.9099 3.6319 -24.6730
v 37.8404 -2.4295 -22.3960
v -10.8962 13.2392 -22.2910
v -2.5684 14.4195 -23.2840
v 13.4316 15.7954 -24.6988
v 23.2288 15.0737 -24.1773
v -12.3927 -8.2098 -10.5143
v -2.5684 -9.4548 -12.4569
v 12.6127 -8.0599 -14.8382
v 29.5421 -6.4957 -14.7967
v 37.8404 -3.9734 -20.6767
v -12.0344 4.5560 -15.0992
v -2.5684 -0.0958 -20.4569
v 6.7334 -1.4222 -20.7459
v 32.0311 3.6319 -14.7967
v 37.8404 -2.4295 -20.6767
v -11.0326 13.5585 -13.9765
v -2.5684 18.6797 -13.9765
v 13.4316 20.8353 -13.9765
v 24.5429 15.7141 -13.9765
v -12.9873 -7.8527 2.0235
v -2.5684 -11.8913 2.0235
v 13.6867 -8.1927 2.2947
v 24.2824 -6.0857 -2.8578
v -14.5506 4.7241 2.0235
v 17.5586 4.7241 6.0135
v 25.3331 4.7241 -1.9865
v -12.1317 14.2607 2.0235
v -2.5684 19.4572 2.0235
v 13.2782 17.8636 1.7442
v 23.7828 14.3612 -3.7752
v -42.6794 -19.5712 25.9027
v -34.5684 -20.5327 24.3098
v -25.1703 -20.6563 23.8594
v -42.6794 -19.1625 25.9027
v -34.5684 -17.3901 24.3098
v -17.8056 -9.7862 20.5246
v -3.5315 -5.4790 18.2891
v 8.5233 -5.3561 13.1329
v -13.0152 3.7765 18.2391
v -3.5315 3.7765 21.7384
v 9.5586 4.7241 14.3976
v -12.3616 14.1754 13.0495
v -2.5684 15.1970 14.3350
v 7.8425 14.5700 12.7462
v -59.9527 -37.1210 41.1501
v -54.8674 -37.1210 41.1501
v -59.9527 -34.3381 41.1501
v -48.7734 -26.9547 33.6968
v -34.5684 -20.5327 27.0072
v -25.1703 -20.6563 27.1152
v -42.6794 -19.1625 26.2434
v -34.5684 -17.3901 27.0072
v -18.3113 -10.2870 26.6999
v -9.5070 -3.6991 26.2846
v -11.4524 -2.1885 26.2846
v -9.5070 -2.1885 26.2846
v -59.9527 -37.1210 43.6712
v -54.8674 -37.1210 43.6712
v -59.9527 -34.3381 43.6712
v -54.8674 -34.3381 43.6712
f 7 1 6
f 7 2 1
f 8 2 7
f 8 3 2
f 10 4 9
f 10 5 4
f 11 5 10
f 11 6 5
f 12 6 11
f 12 7 6
f 16 1 2
f 16 15 1
f 17 2 3
f 17 16 2
f 5 18 4
f 5 19 18
f 19 13 18
f 19 14 13
f 20 1 15
f 20 6 1
f 20 5 6
f 20 19 5
f 20 14 19
f 20 15 14
f 8 7 21
f 8 21 22
f 22 21 16
f 22 16 17
f 23 4 18
f 23 9 4
f 10 9 23
f 10 23 24
f 11 10 24
f 11 24 25
f 26 21 7
f 26 7 12
f 12 11 25
f 12 25 26
f 28 13 14
f 28 27 13
f 29 14 15
f 29 28 14
f 30 15 16
f 30 29 15
f 31 13 27
f 31 18 13
f 30 16 21
f 30 21 33
f 32 29 30
f 32 30 33
f 31 23 18
f 31 34 23
f 35 24 23
f 35 23 34
f 36 25 24
f 36 24 35
f 33 21 26
f 33 26 37
f 37 26 25
f 37 25 36
f 37 36 32
f 37 32 33
f 41 39 38
f 41 42 39
f 42 40 39
f 42 43 40
f 44 27 28
f 44 43 27
f 45 28 29
f 45 44 28
f 46 27 43
f 46 31 27
f 45 29 32
f 45 32 48
f 48 47 44
f 48 44 45
f 49 31 46
f 49 34 31
f 50 35 34
f 50 34 49
f 50 49 46
f 50 46 47
f 51 48 32
f 51 32 36
f 51 36 35
f 51 35 50
f 50 47 48
f 50 48 51
f 54 53 52
f 54 55 53
f 56 38 39
f 56 55 38
f 57 39 40
f 57 56 39
f 58 38 55
f 58 41 38
f 59 42 41
f 59 41 58
f 58 55 56
f 58 56 59
f 60 57 40
f 60 40 43
f 60 43 42
f 60 42 59
f 59 56 57
f 59 57 60
f 61 43 44
f 61 60 43
f 62 43 60
f 62 46 43
f 63 61 44
f 63 44 47
f 63 47 46
f 63 46 62
f 62 60 61
f 62 61 63
f 53 64 52
f 53 65 64
f 64 54 52
f 64 66 54
f 67 65 53
f 67 53 55
f 67 55 54
f 67 54 66
f 66 64 65
f 66 65 67
