# parsimony mesh: g6396_monomer (source /Users/eranagmon/code/v2e-flagella/workspace/studies/ecoli-3d/viz/3d/structures/g6396_monomer.pdb)
# atoms: 372  voxel: 4 Å  verts: 312  tris: 632
v 5.8689 12.1750 -38.9190
v 7.6237 12.1750 -38.9190
v 5.8689 13.9168 -38.9190
v 7.6237 13.9168 -38.9190
v 10.4552 9.1325 -34.9512
v 10.8145 9.1325 -34.9512
v 5.6282 11.7633 -36.4667
v 9.0394 10.9081 -36.3883
v 10.9809 11.1978 -35.3490
v 5.4478 15.2292 -36.5469
v 8.8774 15.1155 -36.5462
v 10.9884 13.6476 -35.1586
v 6.0703 17.6503 -35.2671
v 7.4644 17.6503 -35.2671
v 10.4552 9.1325 -33.1592
v 10.8145 9.1325 -33.1592
v 6.2307 12.3512 -32.4667
v 8.9701 10.1222 -32.0822
v 11.4117 10.7995 -32.0822
v 5.9298 15.1446 -32.1961
v 8.5496 16.3784 -32.2597
v 11.6264 15.0677 -32.4890
v 6.0703 17.6503 -33.3490
v 8.5496 17.7651 -32.2597
v 11.1723 17.8799 -31.1704
v 10.2328 4.5964 -27.1763
v 11.8693 4.5964 -27.1763
v 9.8028 7.1978 -27.9968
v 13.0186 6.9989 -27.9568
v 15.0796 8.1996 -26.9100
v 6.6722 12.9589 -30.2643
v 8.8949 11.0798 -29.0308
v 12.8209 10.7995 -29.3416
v 15.1249 11.1978 -27.0624
v 6.6722 13.7759 -30.2643
v 8.7126 15.1239 -28.5128
v 12.6894 14.9145 -28.1228
v 14.9153 13.3571 -26.8177
v 9.6348 17.8799 -29.4280
v 11.1723 17.8799 -29.4280
v 10.2328 4.5964 -25.8269
v 13.2068 4.8421 -24.4856
v 16.7424 4.4683 -23.1943
v 19.3095 4.3351 -22.7594
v 9.8028 7.1978 -25.2256
v 13.0193 6.4843 -24.3336
v 16.6204 7.0005 -24.2851
v 19.3095 5.8014 -22.7594
v 9.9711 11.1978 -25.5908
v 11.9387 11.1978 -23.5908
v 15.8474 11.1978 -24.4667
v 10.4571 13.8053 -26.3138
v 13.0690 13.7062 -24.7750
v 15.0304 13.3777 -24.4667
v 6.6732 5.1349 -18.5351
v 8.7424 4.9513 -18.8400
v 13.0235 4.5633 -20.3243
v 16.7424 3.8556 -20.4667
v 19.2606 4.4495 -20.4667
v 6.6732 5.4019 -18.5351
v 8.7424 5.8174 -18.8400
v 12.1119 7.1710 -20.3243
v 17.5594 7.7447 -20.4667
v 19.2606 5.7447 -20.4667
v 13.7574 11.2120 -20.6355
v 15.5227 11.2120 -20.6355
v 14.6201 13.2784 -22.0813
v 14.9535 13.2784 -22.0813
v 6.6732 5.1349 -18.2260
v 8.6718 4.5935 -16.7223
v 12.7424 3.1838 -16.4667
v 16.7424 3.7816 -16.4667
v 18.8396 5.0874 -16.4667
v 6.6732 5.4019 -18.2260
v 8.6718 6.0673 -16.7223
v 12.8004 7.9832 -16.5386
v 16.5447 7.3164 -16.5386
v 18.8396 5.2981 -16.4667
v 14.1724 9.8882 -17.9199
v 15.0796 9.8882 -17.9199
v 10.2610 1.0177 -10.9063
v 11.6700 1.0177 -10.9063
v 6.6592 4.9992 -10.6981
v 8.7762 3.4259 -12.1355
v 12.8990 1.8696 -12.3305
v 16.7424 3.2592 -12.4667
v 18.8719 4.9104 -12.4667
v 6.6592 5.4237 -10.6981
v 8.6718 6.1010 -12.2055
v 12.7424 7.2136 -12.4667
v 16.7424 6.4173 -12.4667
v 18.8719 5.3611 -12.4667
v 6.3173 -3.1515 -6.7446
v 7.6820 -3.1515 -6.7446
v 5.9786 -0.8022 -7.2247
v 8.9715 -0.6839 -8.3054
v 12.8990 0.2057 -8.7389
v 15.3453 0.6409 -7.5870
v 5.9292 3.4786 -8.5063
v 7.5943 2.3326 -9.8661
v 14.3366 1.3886 -10.2536
v 16.4652 3.1077 -8.8923
v 18.9093 4.8268 -10.1976
v 6.1808 6.9333 -8.2996
v 8.8750 8.0350 -8.2996
v 12.7424 7.2775 -8.4667
v 16.4480 5.8857 -8.7053
v 18.9093 5.4076 -10.1976
v 6.5684 9.3146 -6.8549
v 7.6300 9.3146 -6.8549
v 6.1109 -3.2336 -4.4667
v 7.7798 -3.2336 -4.4667
v 2.0894 0.6426 -2.9132
v 4.2812 -0.7353 -4.3346
v 9.7798 -2.1200 -4.4667
v 12.7424 -0.5394 -4.4667
v 15.1959 0.7784 -4.4667
v 2.0894 2.2235 -2.9132
v 3.6550 3.4132 -4.3346
v 13.8232 3.8670 -3.5905
v 15.2108 2.7993 -4.7410
v 5.5066 7.4859 -4.4690
v 8.8508 9.0277 -4.5826
v 12.3831 7.2506 -4.8092
v 14.9184 5.4570 -6.2571
v 6.5684 9.3146 -5.8038
v 8.8508 9.3061 -4.5826
v 10.9430 9.2976 -3.3614
v -2.1374 -3.1568 0.8775
v 0.7424 -3.2946 0.6487
v 4.8923 -3.3244 -0.3809
v 7.3981 -3.2285 -0.4667
v -5.4005 0.7078 1.3764
v -3.3855 -0.6962 0.5534
v 0.7506 -0.7353 -1.2667
v 3.6589 -2.0240 -1.6570
v 9.4465 -0.9065 -0.1932
v 12.7424 0.5657 -1.6239
v 14.7442 1.1955 -2.4654
v -5.4005 1.4116 1.3764
v -3.2576 2.1840 0.8002
v 0.5162 3.5945 -0.7895
v 2.8689 4.8901 -2.2917
v 9.6621 3.1978 0.7615
v 12.5909 2.7993 -1.4834
v 14.7442 1.2003 -2.4654
v 1.2267 7.1978 0.1929
v 4.4183 7.4859 -1.5285
v 8.3519 7.9750 -0.7345
v 11.2034 7.1978 -1.9485
v 1.8542 9.7776 0.9045
v 4.7424 9.7279 0.5749
v 8.4901 9.3111 -0.7033
v 10.9430 9.2976 -2.2908
v -5.4223 -6.9419 5.3097
v -4.6932 -6.9419 5.3097
v -6.3061 -4.8022 4.6663
v -3.4153 -4.8201 3.6219
v 0.7424 -4.7642 3.5333
v 5.0540 -3.7557 3.7719
v 7.1730 -3.1446 2.5977
v -9.6174 0.0162 5.2230
v -7.2790 -0.9713 3.5786
v -4.8041 -1.9589 1.9342
v 6.0666 -0.8022 4.6443
v 7.7899 -0.8022 2.6443
v -9.6174 1.5081 5.2230
v -6.9433 2.2063 3.7471
v -3.2576 3.7216 3.5333
v 0.4628 4.5332 3.6871
v 4.6902 3.3365 4.0295
v 7.6621 3.1978 1.9613
v 1.2267 7.1978 2.7029
v 4.7424 7.1978 2.9174
v 7.0622 7.1978 1.7478
v 1.8542 9.7776 2.1697
v 4.7424 9.7279 2.1098
v 6.9086 9.3247 1.6656
v -5.8760 -7.1642 7.5333
v -4.3737 -7.1642 7.5333
v -13.3828 -3.3782 9.2964
v -11.2576 -3.8471 8.4109
v -8.0924 -4.8925 7.1775
v -2.3737 -6.1734 7.5333
v 1.0516 -4.4661 7.8453
v 3.9284 -3.7470 6.7199
v -13.3828 -2.6314 9.2964
v -10.5546 -1.0875 7.5141
v -8.9940 -0.8872 7.2960
v 1.9396 -0.8022 8.8512
v 4.0666 -0.8022 6.8512
v -9.6174 1.5081 6.3183
v -7.4013 2.3623 7.6043
v -3.2576 3.3513 7.5333
v 0.5910 2.4810 7.4756
v 3.3220 2.0957 6.1038
v -13.5657 -7.3369 12.8838
v -11.2576 -7.5510 12.5232
v -7.2535 -7.6084 11.5150
v -4.2861 -7.4621 11.5333
v -13.6364 -4.7478 11.5436
v -11.2576 -5.8471 10.5232
v -8.5841 -6.2861 10.1694
v -2.2861 -5.8720 11.5333
v -0.0986 -3.8720 11.5333
v -13.5000 -2.4583 11.5333
v -11.1644 -0.3201 11.4370
v -7.0923 1.0150 11.7486
v -3.2576 0.5115 12.8365
v -0.0818 -0.9249 11.4212
v -9.7689 1.4425 12.7062
v -7.0923 1.5570 11.7486
v -3.2576 1.8137 10.8365
v -0.8433 1.5452 10.0131
v -17.5776 -11.0560 17.3647
v -15.2576 -11.3044 16.9958
v -11.2576 -11.5168 16.6703
v -7.2576 -11.3827 16.7724
v -5.0561 -11.0393 17.1214
v -18.1104 -8.8022 17.0125
v -15.0425 -8.7230 15.1878
v -11.2576 -9.5510 14.6703
v -7.2576 -9.5526 14.7724
v -4.5599 -8.7243 15.6862
v -17.9399 -4.8022 17.0052
v -15.6372 -4.8022 15.0052
v -2.8917 -4.7698 15.3821
v -0.8942 -3.4149 13.9480
v -17.3503 -2.6746 17.3550
v -14.9764 -2.2189 15.8263
v -11.1644 -0.3370 15.3564
v -6.9155 0.1021 15.3564
v -3.4684 -1.5791 15.3821
v -0.8942 -2.3401 13.9480
v -9.7689 1.4425 13.9052
v -8.0208 1.4425 13.9052
v -21.4445 -15.9618 21.3910
v -19.2576 -16.4327 20.9909
v -15.2576 -15.6745 20.8801
v -13.1187 -14.9509 21.2433
v -21.4445 -14.2741 21.3910
v -19.2674 -12.6651 19.8384
v -15.2576 -13.3044 18.8801
v -11.5743 -13.0280 19.7593
v -7.5176 -11.3207 19.4540
v -5.0561 -11.0393 18.0678
v -19.5982 -8.8022 19.5333
v -9.2811 -6.9522 21.5061
v -7.5176 -8.4922 20.4759
v -4.8964 -8.8022 18.2319
v -18.3740 -4.9508 19.2570
v -16.0192 -3.7165 20.4061
v -9.2811 -6.7718 21.5061
v -7.3925 -5.1840 20.3111
v -4.8111 -4.8022 18.0259
v -17.3503 -2.6746 17.7394
v -14.9146 -2.3643 19.2570
v -11.2576 -1.6204 19.5333
v -7.3925 -2.0458 19.2892
v -4.9423 -2.5152 17.7932
v -18.2864 -19.0771 24.7134
v -15.2576 -19.0621 24.8712
v -13.2193 -18.8739 25.4704
v -25.7693 -15.8623 25.0529
v -22.9697 -16.8249 23.6450
v -19.4748 -18.3975 23.4414
v -15.2576 -17.6745 22.8712
v -12.9651 -16.4914 23.8955
v -25.7693 -14.4321 25.0529
v -22.7033 -13.0197 23.8619
v -20.9571 -11.6074 22.6710
v -10.9207 -13.4421 23.5333
v -8.7809 -11.4421 23.5333
v -21.2954 -10.5563 25.3377
v -19.5828 -8.7821 23.9553
v -15.2576 -7.3524 24.9013
v -10.8717 -7.6978 23.6039
v -8.7809 -9.5258 23.5333
v -18.2084 -6.3831 22.5729
v -14.9146 -4.9508 22.6787
v -10.8717 -5.1840 22.2913
v -8.8158 -4.1052 21.9273
v -13.3526 -2.7569 21.6183
v -11.2576 -2.4861 21.8925
v -8.8158 -2.4260 21.9273
v -18.2864 -19.0771 25.9599
v -15.2576 -19.0621 26.0411
v -13.2193 -18.8739 25.7837
v -25.7693 -15.8623 26.0768
v -22.8681 -16.1389 27.4594
v -19.4748 -17.3952 27.3892
v -15.4270 -16.6945 27.6431
v -12.9962 -16.8022 25.8506
v -25.7693 -14.4321 26.0768
v -22.9418 -12.9801 27.4594
v -17.9715 -11.1722 29.2852
v -15.4270 -12.6242 28.2417
v -11.4714 -12.8600 26.4309
v -8.8552 -11.5652 26.2672
v -21.3498 -10.5263 27.5333
v -19.2859 -9.9049 27.7844
v -15.2576 -9.3524 26.7894
v -11.2576 -9.8092 26.5259
v -8.8552 -10.2837 26.2672
v -21.2751 -14.8184 29.5483
v -19.2576 -15.1797 29.9482
v -16.8733 -15.2894 30.0716
v -21.3345 -12.8022 29.6492
v -19.2859 -12.6242 29.9490
v -16.8733 -13.8388 30.0716
v -21.3427 -10.6802 29.6728
v -20.6381 -10.6802 29.6728
f 3 2 1
f 3 4 2
f 2 7 1
f 2 8 7
f 9 5 8
f 9 6 5
f 7 3 1
f 7 10 3
f 11 8 2
f 11 2 4
f 4 3 10
f 4 10 11
f 12 8 11
f 12 9 8
f 14 10 13
f 14 11 10
f 6 15 5
f 6 16 15
f 18 5 15
f 18 8 5
f 8 17 7
f 8 18 17
f 16 6 9
f 16 9 19
f 19 18 15
f 19 15 16
f 17 10 7
f 17 20 10
f 19 9 12
f 19 12 22
f 12 11 21
f 12 21 22
f 20 13 10
f 20 23 13
f 21 11 14
f 21 14 24
f 14 13 23
f 14 23 24
f 23 20 21
f 23 21 24
f 25 21 24
f 25 22 21
f 28 27 26
f 28 29 27
f 18 31 17
f 18 32 31
f 19 32 18
f 19 33 32
f 33 28 32
f 33 29 28
f 33 30 29
f 33 34 30
f 35 17 31
f 35 20 17
f 21 20 35
f 21 35 36
f 36 35 31
f 36 31 32
f 33 19 22
f 33 22 37
f 38 33 37
f 38 34 33
f 39 21 36
f 39 24 21
f 40 37 22
f 40 22 25
f 25 24 39
f 25 39 40
f 40 39 36
f 40 36 37
f 27 41 26
f 27 42 41
f 45 26 41
f 45 28 26
f 46 42 27
f 46 27 29
f 46 45 41
f 46 41 42
f 30 46 29
f 30 47 46
f 47 42 46
f 47 43 42
f 48 43 47
f 48 44 43
f 49 28 45
f 49 32 28
f 50 49 45
f 50 45 46
f 51 47 30
f 51 30 34
f 52 32 49
f 52 36 32
f 37 36 52
f 37 52 53
f 52 49 50
f 52 50 53
f 51 34 38
f 51 38 54
f 38 37 53
f 38 53 54
f 43 57 42
f 43 58 57
f 44 58 43
f 44 59 58
f 60 56 55
f 60 61 56
f 57 46 42
f 57 62 46
f 62 56 61
f 62 57 56
f 59 44 48
f 59 48 64
f 48 47 63
f 48 63 64
f 62 50 46
f 62 65 50
f 63 47 51
f 63 51 66
f 67 50 65
f 67 53 50
f 68 66 51
f 68 51 54
f 54 53 67
f 54 67 68
f 67 65 66
f 67 66 68
f 56 69 55
f 56 70 69
f 71 56 57
f 71 70 56
f 72 57 58
f 72 71 57
f 73 58 59
f 73 72 58
f 69 60 55
f 69 74 60
f 61 60 74
f 61 74 75
f 74 69 70
f 74 70 75
f 62 61 75
f 62 75 76
f 73 59 64
f 73 64 78
f 78 64 63
f 78 63 77
f 79 62 76
f 79 65 62
f 80 77 63
f 80 63 66
f 80 66 65
f 80 65 79
f 80 79 76
f 80 76 77
f 71 84 70
f 71 85 84
f 85 81 84
f 85 82 81
f 86 71 72
f 86 85 71
f 87 72 73
f 87 86 72
f 89 70 84
f 89 75 70
f 89 83 88
f 89 84 83
f 90 76 75
f 90 75 89
f 77 76 90
f 77 90 91
f 92 87 73
f 92 73 78
f 78 77 91
f 78 91 92
f 95 94 93
f 95 96 94
f 97 81 82
f 97 96 81
f 100 81 96
f 100 84 81
f 100 83 84
f 100 99 83
f 100 95 99
f 100 96 95
f 101 97 82
f 101 82 85
f 86 101 85
f 86 102 101
f 101 98 97
f 101 102 98
f 103 86 87
f 103 102 86
f 99 88 83
f 99 104 88
f 105 89 88
f 105 88 104
f 106 90 89
f 106 89 105
f 107 91 90
f 107 90 106
f 108 103 87
f 108 87 92
f 108 92 91
f 108 91 107
f 107 102 103
f 107 103 108
f 109 105 104
f 109 110 105
f 112 93 94
f 112 111 93
f 111 95 93
f 111 114 95
f 115 112 94
f 115 94 96
f 116 96 97
f 116 115 96
f 98 116 97
f 98 117 116
f 119 95 114
f 119 99 95
f 119 113 118
f 119 114 113
f 121 117 98
f 121 98 102
f 122 99 119
f 122 104 99
f 124 106 105
f 124 105 123
f 125 121 102
f 125 102 107
f 125 107 106
f 125 106 124
f 125 124 120
f 125 120 121
f 122 109 104
f 122 126 109
f 123 105 110
f 123 110 127
f 110 109 126
f 110 126 127
f 126 122 123
f 126 123 127
f 128 123 127
f 128 124 123
f 132 111 112
f 132 131 111
f 135 129 134
f 135 130 129
f 136 111 131
f 136 114 111
f 136 113 114
f 136 135 113
f 136 130 135
f 136 131 130
f 132 112 115
f 132 115 137
f 138 115 116
f 138 137 115
f 139 116 117
f 139 138 116
f 141 133 140
f 141 134 133
f 135 118 113
f 135 142 118
f 141 135 134
f 141 142 135
f 143 119 118
f 143 118 142
f 144 137 138
f 144 138 145
f 146 139 117
f 146 117 121
f 146 121 120
f 146 120 145
f 146 145 138
f 146 138 139
f 143 122 119
f 143 148 122
f 147 143 142
f 147 148 143
f 149 123 122
f 149 122 148
f 150 145 120
f 150 120 124
f 150 149 144
f 150 144 145
f 151 148 147
f 151 152 148
f 153 123 149
f 153 127 123
f 152 149 148
f 152 153 149
f 150 124 128
f 150 128 154
f 154 128 127
f 154 127 153
f 154 153 149
f 154 149 150
f 157 156 155
f 157 158 156
f 159 129 130
f 159 158 129
f 160 130 131
f 160 159 130
f 161 131 132
f 161 160 131
f 164 129 158
f 164 134 129
f 164 133 134
f 164 163 133
f 164 157 163
f 164 158 157
f 166 161 132
f 166 132 137
f 165 160 161
f 165 161 166
f 168 133 163
f 168 140 133
f 168 162 167
f 168 163 162
f 169 141 140
f 169 140 168
f 170 142 141
f 170 141 169
f 166 137 144
f 166 144 172
f 172 171 165
f 172 165 166
f 170 147 142
f 170 173 147
f 174 173 170
f 174 170 171
f 175 172 144
f 175 144 149
f 174 171 172
f 174 172 175
f 173 151 147
f 173 176 151
f 177 152 151
f 177 151 176
f 176 173 174
f 176 174 177
f 178 175 149
f 178 149 153
f 178 153 152
f 178 152 177
f 178 177 174
f 178 174 175
f 180 155 156
f 180 179 155
f 179 157 155
f 179 183 157
f 184 180 156
f 184 156 158
f 159 184 158
f 159 185 184
f 186 159 160
f 186 185 159
f 187 182 181
f 187 188 182
f 183 163 157
f 183 189 163
f 189 162 163
f 189 188 162
f 189 182 188
f 189 183 182
f 186 160 165
f 186 165 191
f 190 185 186
f 190 186 191
f 192 162 188
f 192 167 162
f 193 168 167
f 193 167 192
f 192 188 189
f 192 189 193
f 194 169 168
f 194 168 193
f 170 169 194
f 170 194 195
f 196 191 165
f 196 165 171
f 196 171 170
f 196 170 195
f 196 195 190
f 196 190 191
f 200 179 180
f 200 199 179
f 202 181 182
f 202 201 181
f 202 197 201
f 202 198 197
f 203 179 199
f 203 183 179
f 203 182 183
f 203 202 182
f 203 198 202
f 203 199 198
f 200 180 184
f 200 184 204
f 205 184 185
f 205 204 184
f 206 181 201
f 206 187 181
f 207 188 187
f 207 187 206
f 189 188 207
f 189 207 208
f 205 185 190
f 205 190 210
f 208 193 189
f 208 212 193
f 211 208 207
f 211 212 208
f 213 194 193
f 213 193 212
f 213 212 208
f 213 208 209
f 214 210 190
f 214 190 195
f 214 195 194
f 214 194 213
f 214 213 209
f 214 209 210
f 220 216 215
f 220 221 216
f 222 197 198
f 222 221 197
f 221 217 216
f 221 222 217
f 223 198 199
f 223 222 198
f 223 217 222
f 223 218 217
f 200 223 199
f 200 224 223
f 223 219 218
f 223 224 219
f 226 197 221
f 226 201 197
f 226 220 225
f 226 221 220
f 227 224 200
f 227 200 204
f 228 204 205
f 228 227 204
f 226 206 201
f 226 230 206
f 229 226 225
f 229 230 226
f 231 207 206
f 231 206 230
f 209 208 232
f 209 232 233
f 234 228 205
f 234 205 210
f 234 210 209
f 234 209 233
f 234 233 227
f 234 227 228
f 235 207 231
f 235 211 207
f 236 232 208
f 236 208 212
f 236 212 211
f 236 211 235
f 235 231 232
f 235 232 236
f 241 238 237
f 241 242 238
f 243 215 216
f 243 242 215
f 242 239 238
f 242 243 239
f 217 243 216
f 217 244 243
f 243 240 239
f 243 244 240
f 245 217 218
f 245 244 217
f 246 218 219
f 246 245 218
f 247 215 242
f 247 220 215
f 250 246 219
f 250 219 224
f 250 249 245
f 250 245 246
f 251 220 247
f 251 225 220
f 253 248 249
f 253 249 254
f 255 250 224
f 255 224 227
f 254 249 250
f 254 250 255
f 256 225 251
f 256 229 225
f 230 229 256
f 230 256 257
f 256 251 252
f 256 252 257
f 258 231 230
f 258 230 257
f 259 232 231
f 259 231 258
f 260 255 227
f 260 227 233
f 260 233 232
f 260 232 259
f 259 254 255
f 259 255 260
f 266 237 238
f 266 265 237
f 267 238 239
f 267 266 238
f 267 261 266
f 267 262 261
f 240 267 239
f 240 268 267
f 267 263 262
f 267 268 263
f 265 241 237
f 265 270 241
f 269 265 264
f 269 270 265
f 271 242 241
f 271 241 270
f 272 268 240
f 272 240 244
f 273 244 245
f 273 272 244
f 271 247 242
f 271 275 247
f 274 271 270
f 274 275 271
f 273 245 249
f 273 249 278
f 278 249 248
f 278 248 277
f 279 247 275
f 279 251 247
f 252 251 279
f 252 279 280
f 279 275 276
f 279 276 280
f 281 277 248
f 281 248 253
f 280 276 277
f 280 277 281
f 282 253 254
f 282 281 253
f 283 252 280
f 283 257 252
f 258 257 283
f 258 283 284
f 283 280 281
f 283 281 284
f 285 282 254
f 285 254 259
f 285 259 258
f 285 258 284
f 284 281 282
f 284 282 285
f 262 286 261
f 262 287 286
f 263 287 262
f 263 288 287
f 290 264 265
f 290 289 264
f 286 266 261
f 286 291 266
f 291 265 266
f 291 290 265
f 292 291 286
f 292 286 287
f 293 288 263
f 293 263 268
f 293 292 287
f 293 287 288
f 289 269 264
f 289 294 269
f 295 270 269
f 295 269 294
f 294 289 290
f 294 290 295
f 293 268 272
f 293 272 298
f 297 292 293
f 297 293 298
f 299 272 273
f 299 298 272
f 295 274 270
f 295 300 274
f 301 275 274
f 301 274 300
f 302 276 275
f 302 275 301
f 302 301 296
f 302 296 297
f 303 277 276
f 303 276 302
f 302 297 298
f 302 298 303
f 304 299 273
f 304 273 278
f 278 277 303
f 278 303 304
f 303 298 299
f 303 299 304
f 291 305 290
f 291 306 305
f 307 291 292
f 307 306 291
f 305 295 290
f 305 308 295
f 309 308 305
f 309 305 306
f 307 292 297
f 307 297 310
f 310 297 296
f 310 296 309
f 310 309 306
f 310 306 307
f 308 300 295
f 308 311 300
f 312 309 296
f 312 296 301
f 312 301 300
f 312 300 311
f 312 311 308
f 312 308 309
