# parsimony mesh: g6413_monomer (source /Users/eranagmon/code/v2e-flagella/workspace/studies/ecoli-3d/viz/3d/structures/g6413_monomer.pdb)
# atoms: 1800  voxel: 16 Å  verts: 50  tris: 88
v 10.6030 0.0795 -25.3537
v 16.4933 0.0795 -25.3537
v 10.6030 4.3159 -25.3537
v 16.4933 4.3159 -25.3537
v -5.7111 -15.7262 -8.3038
v 0.5332 -15.7262 -8.3038
v -19.0034 0.2346 -7.3419
v -10.8217 -5.5391 -9.9322
v 5.5681 -5.9701 -14.5765
v 19.1898 -1.8553 -14.9559
v -19.0034 2.5127 -7.3419
v -9.8016 8.6278 -9.8158
v 5.3668 9.7097 -17.0876
v 19.1334 9.7097 -14.4593
v -4.0109 18.8763 -8.1096
v 5.5124 19.2562 -9.2005
v 15.3108 18.6656 -8.7950
v -19.1040 -15.2905 6.9584
v -10.8217 -17.2497 1.3927
v 5.7249 -16.9636 1.3397
v 14.1237 -14.8136 6.8701
v -20.5632 -5.5391 1.3927
v -16.3778 -10.4321 -3.7082
v 11.1999 -12.0197 -3.7966
v 17.7181 -6.4916 1.3397
v -20.6198 4.6993 1.0441
v -9.8016 13.2350 2.0009
v 5.5124 15.9918 6.6044
v 18.4303 10.4380 1.3356
v -4.0109 18.8763 -2.6946
v 5.5124 19.2562 -1.3956
v 15.3108 18.6656 -3.8035
v -19.1040 -15.2905 9.9544
v -9.5891 -16.7748 15.9903
v 4.5001 -16.4887 15.9922
v 14.1237 -14.8136 9.9576
v -20.6953 -6.1996 12.6281
v -12.9380 -6.1996 20.6281
v 7.7455 -6.1996 20.3703
v 15.3278 -6.1996 12.3703
v -20.8148 4.9533 12.9124
v -10.1464 6.9435 17.7651
v 5.1111 7.2893 17.5570
v 15.3216 5.5297 12.5656
v -3.6568 -14.9348 25.6751
v -1.5080 -14.9348 25.6751
v -4.9380 -6.1996 25.8048
v -0.2545 -6.1996 25.8048
v -4.5855 2.6934 25.4273
v -0.4898 2.6934 25.4273
f 3 2 1
f 3 4 2
f 8 6 5
f 8 9 6
f 10 1 2
f 10 9 1
f 11 8 7
f 11 12 8
f 13 1 9
f 13 3 1
f 12 9 8
f 12 13 9
f 10 2 4
f 10 4 14
f 14 4 3
f 14 3 13
f 15 13 12
f 15 16 13
f 17 13 16
f 17 14 13
f 6 19 5
f 6 20 19
f 23 5 19
f 23 8 5
f 23 7 8
f 23 22 7
f 23 18 22
f 23 19 18
f 24 20 6
f 24 6 9
f 10 24 9
f 10 25 24
f 24 21 20
f 24 25 21
f 26 7 22
f 26 11 7
f 12 11 26
f 12 26 27
f 29 25 10
f 29 10 14
f 27 15 12
f 27 30 15
f 30 27 28
f 30 28 31
f 29 14 17
f 29 17 32
f 32 31 28
f 32 28 29
f 19 33 18
f 19 34 33
f 35 19 20
f 35 34 19
f 36 20 21
f 36 35 20
f 37 18 33
f 37 22 18
f 38 37 33
f 38 33 34
f 40 36 21
f 40 21 25
f 39 35 36
f 39 36 40
f 41 22 37
f 41 26 22
f 27 26 41
f 27 41 42
f 41 37 38
f 41 38 42
f 28 27 42
f 28 42 43
f 44 40 25
f 44 25 29
f 44 29 28
f 44 28 43
f 44 43 39
f 44 39 40
f 46 34 35
f 46 45 34
f 45 38 34
f 45 47 38
f 46 35 39
f 46 39 48
f 49 38 47
f 49 42 38
f 50 48 39
f 50 39 43
f 50 43 42
f 50 42 49
