# parsimony mesh: g6668_monomer (source /Users/eranagmon/code/v2e-flagella/workspace/studies/ecoli-3d/viz/3d/structures/g6668_monomer.pdb)
# atoms: 658  voxel: 2.5 Å  verts: 1331  tris: 2764
v 23.7121 5.8626 -21.7716
v 25.1673 5.7153 -21.9280
v 26.7768 5.7578 -21.8761
v 23.5626 7.2500 -21.8862
v 25.1673 7.2500 -22.2064
v 26.8616 7.2500 -21.9357
v 23.6496 8.6897 -21.8204
v 25.1673 8.7474 -21.8939
v 26.6503 8.6401 -21.7819
v 6.2391 0.8455 -19.2633
v 7.6673 0.7246 -19.3127
v 9.0814 0.7873 -19.2307
v 6.0112 2.2500 -19.4553
v 7.7174 2.1971 -19.4564
v 9.0814 1.3285 -19.2307
v 6.0540 3.7784 -19.4209
v 6.9174 3.7784 -19.4209
v 23.6773 5.8294 -20.3656
v 25.1673 5.5392 -20.3656
v 26.8371 5.7097 -20.3656
v 23.2970 7.2500 -20.3656
v 27.1916 7.2500 -20.3656
v 5.9305 10.5716 -19.3327
v 6.7156 10.5716 -19.3327
v 23.5370 8.9464 -20.3656
v 25.1673 9.3517 -20.3656
v 26.7718 8.9052 -20.3656
v 5.9305 11.3202 -19.3327
v 6.7156 11.3202 -19.3327
v 6.1083 0.6664 -17.8656
v 7.6673 -0.1034 -17.8656
v 9.5791 0.2302 -17.8656
v 5.5315 2.2500 -17.8656
v 8.5841 2.9952 -18.4969
v 10.1918 2.1826 -17.6134
v 11.6096 3.0367 -16.7300
v 18.6565 3.4070 -16.7308
v 19.0549 3.4070 -16.7308
v 5.8405 4.2269 -17.8656
v 7.7174 4.1536 -17.7444
v 10.1673 3.7548 -16.8624
v 11.6096 3.7196 -16.7300
v 18.1095 4.7500 -17.0465
v 19.4912 4.7500 -17.0465
v 23.8025 5.9099 -18.5560
v 25.0115 5.7258 -17.7798
v 26.7400 5.7248 -17.8656
v 6.2931 8.2242 -16.7423
v 6.4753 8.2242 -16.7423
v 13.4667 8.1079 -16.9272
v 15.1673 7.6335 -16.9433
v 17.4276 7.0420 -17.1928
v 19.7996 7.2500 -17.2431
v 23.3578 7.0588 -17.7798
v 24.0744 6.0981 -16.8893
v 27.2686 7.2500 -17.8656
v 3.7128 10.5855 -17.0936
v 5.2785 9.7452 -17.7513
v 6.8993 9.7430 -17.6916
v 11.2912 10.7764 -16.7078
v 12.6469 9.8658 -17.1478
v 15.1673 9.7500 -17.3826
v 17.7195 9.9259 -16.9787
v 19.4660 9.2099 -16.9929
v 23.2130 9.7433 -17.9311
v 25.1673 10.3542 -18.6760
v 27.3093 9.7400 -17.9484
v 3.7128 11.4035 -17.0936
v 5.1252 11.8245 -17.9024
v 6.9763 11.7280 -17.8656
v 11.2912 11.1025 -16.7078
v 12.6673 11.3667 -17.0471
v 15.1673 11.3932 -17.0548
v 16.9209 11.1378 -16.7181
v 23.5612 11.4957 -17.1415
v 25.1673 11.7253 -17.4260
v 27.1991 11.4713 -17.1703
v 13.7458 -1.6397 -14.1944
v 14.1656 -1.6397 -14.1944
v 6.2175 0.7530 -15.3656
v 7.6673 -0.3601 -15.3656
v 10.3483 -0.1935 -15.5340
v 12.8144 -0.3031 -14.7148
v 14.3453 -0.2500 -14.3416
v 3.8466 3.4288 -14.2303
v 5.0140 2.4572 -15.1844
v 11.3022 1.3700 -16.4796
v 12.7631 2.4340 -15.4088
v 14.9125 2.4576 -14.4893
v 17.7608 3.0802 -15.4306
v 19.1741 3.2874 -15.3656
v 3.7556 4.7500 -14.3712
v 5.1739 4.9144 -15.7660
v 7.6673 5.3581 -16.1507
v 10.1673 5.0048 -15.8551
v 12.4975 4.6318 -15.3249
v 15.1988 4.7500 -15.1211
v 16.8595 4.7500 -16.3711
v 20.4994 4.8790 -15.4135
v 22.6673 5.2483 -15.0633
v 25.0115 5.1286 -15.5758
v 26.8355 5.5113 -15.3656
v 3.7725 6.7318 -14.3416
v 5.1420 7.4780 -15.4335
v 7.4642 7.3074 -15.4724
v 10.2668 7.2343 -14.6885
v 12.8297 7.1056 -15.2745
v 15.3039 7.0542 -15.2676
v 16.5774 7.1333 -15.6516
v 21.0496 7.2500 -16.2184
v 22.5703 7.0588 -16.2581
v 24.0744 6.0981 -16.5493
v 27.2183 7.2500 -15.3656
v 3.5673 10.1049 -15.3656
v 4.5043 8.8549 -15.3656
v 7.9419 9.7622 -15.2997
v 10.3955 9.8567 -15.2534
v 11.8000 9.1097 -16.0845
v 15.9074 8.7607 -14.7053
v 17.6540 9.8187 -15.6191
v 20.3559 10.0251 -15.6445
v 22.6168 10.0849 -15.2701
v 23.9504 10.9961 -14.1173
v 27.4270 9.7500 -15.3656
v 3.5673 11.5550 -15.3656
v 5.4016 12.8343 -15.1628
v 7.6856 12.3902 -15.6641
v 10.4661 12.2621 -15.3667
v 12.6673 12.1401 -15.3656
v 15.1673 12.1064 -15.3656
v 17.7195 11.8140 -15.5659
v 19.5791 11.5441 -14.8662
v 23.5612 11.4957 -15.7840
v 24.9372 11.5977 -15.1166
v 27.0442 11.3754 -15.3656
v 6.3911 13.5664 -14.1942
v 7.5368 14.5398 -14.9485
v 9.9529 14.7500 -15.0978
v 8.2831 16.4585 -14.8964
v 9.5745 16.4585 -14.8964
v 8.8066 -4.0922 -11.6688
v 9.0373 -4.0922 -11.6688
v 8.6481 -2.7500 -12.0318
v 9.9893 -2.5953 -12.0479
v 12.8144 -2.0963 -12.7149
v 15.0663 -2.0537 -12.6994
v 16.4549 -1.5878 -11.7552
v 6.3847 0.9609 -13.9260
v 7.9006 -0.1881 -13.0217
v 10.1673 -1.1316 -13.3661
v 12.0791 -1.1718 -13.4478
v 15.5664 -0.4415 -12.6994
v 16.4549 -1.4025 -11.7552
v 3.7963 3.3587 -12.8656
v 5.3978 1.9933 -13.0019
v 7.1322 1.1771 -12.2594
v 13.9165 3.4980 -14.1130
v 14.9894 2.4294 -13.4002
v 17.6552 2.8881 -12.9362
v 19.1222 3.3094 -13.8167
v 23.4704 2.8991 -12.4102
v 25.1673 2.6725 -12.5208
v 26.6476 2.9975 -12.0278
v 3.7336 4.8331 -12.6758
v 3.9845 5.7218 -11.7159
v 13.8733 4.7500 -14.0945
v 13.9488 4.7500 -14.0945
v 18.3547 4.7500 -12.3364
v 20.0402 4.8790 -13.4074
v 22.5298 4.6655 -13.0256
v 25.6420 4.6503 -12.9492
v 26.6963 4.8256 -12.7742
v 3.5055 7.2306 -12.8839
v 3.9877 7.2306 -12.8839
v 8.4531 8.0572 -13.6999
v 10.4402 8.2675 -12.6981
v 13.1782 7.4465 -12.7752
v 14.6789 7.4259 -13.2250
v 17.7770 7.5804 -12.5127
v 20.1673 6.7532 -12.2045
v 22.7437 7.3538 -11.8165
v 25.3318 7.4917 -12.2546
v 26.6970 7.2500 -13.6320
v 1.2082 10.4689 -11.7274
v 2.6135 9.5116 -12.8897
v 3.9908 8.5543 -14.0519
v 8.4531 8.9369 -13.6999
v 10.4402 8.7419 -12.6981
v 12.6197 9.5281 -12.0199
v 15.2942 9.7898 -12.7454
v 17.1568 9.1848 -12.8656
v 20.8942 10.5861 -12.8656
v 22.9059 9.6666 -12.6414
v 24.9372 9.9976 -13.6013
v 26.4919 9.7500 -14.0654
v 1.1011 12.2500 -11.7631
v 2.7209 12.2500 -12.5472
v 4.8934 12.8750 -12.8656
v 11.3076 13.4217 -13.9767
v 12.9904 12.3852 -12.9024
v 14.9277 12.2040 -12.4811
v 17.6673 12.2338 -12.8656
v 19.6442 11.6837 -12.8656
v 25.6171 11.0291 -14.0985
v 26.4714 11.0291 -14.0985
v 1.2048 13.6468 -11.7003
v 1.7867 13.6468 -11.7003
v 6.0534 14.5398 -12.7613
v 6.6164 15.2331 -13.5251
v 11.2029 14.7500 -13.8243
v 12.6673 14.7500 -12.7822
v 14.1655 14.7500 -11.8235
v 6.0109 17.2500 -11.9114
v 7.4676 17.1964 -12.6461
v 10.3116 16.6524 -12.9659
v 12.6673 16.3209 -12.1121
v 13.9841 16.0667 -11.6938
v 6.1167 18.8251 -11.7671
v 6.6521 18.8251 -11.7671
v 5.9477 -4.1896 -9.3092
v 7.8509 -4.5215 -10.2318
v 9.9893 -4.4326 -10.1563
v 12.6673 -4.2617 -9.6446
v 14.6385 -4.3076 -9.7530
v -6.1460 -1.6209 -9.1880
v -4.8327 -1.8949 -9.4485
v -3.2364 -1.9056 -9.4870
v 3.4605 -2.0448 -9.3516
v 5.1356 -2.8269 -9.4519
v 7.3981 -2.7500 -10.6089
v 10.7040 -3.3255 -10.8501
v 12.6673 -3.3906 -10.8946
v 15.3501 -3.2322 -10.4980
v 16.4842 -1.8937 -10.3656
v -6.1460 -1.1706 -9.1880
v -4.9038 -0.3024 -9.4936
v -3.1432 -0.2500 -9.5337
v 2.9984 -0.2500 -9.6398
v 5.1673 -0.2500 -10.2644
v 7.3923 -0.2500 -10.9902
v 15.8006 -0.0862 -10.3656
v 16.4842 -1.3362 -10.3656
v -4.1333 2.2500 -9.4503
v -2.4389 2.2559 -9.6062
v 0.1673 2.6385 -9.6378
v 2.6545 2.2372 -10.3429
v 5.1673 1.6700 -11.2393
v 7.1322 1.1771 -11.4842
v 15.5706 2.2521 -10.4316
v 16.8138 3.0868 -11.3089
v 23.3208 2.7693 -10.3656
v 25.1673 2.3659 -10.3656
v 26.6078 3.0966 -10.3656
v -3.7817 4.0082 -9.3758
v -2.2971 4.8049 -9.5652
v 0.1673 4.7500 -10.1207
v 2.8630 4.8331 -11.0383
v 3.9845 5.7218 -11.4693
v 15.8835 4.7500 -9.6040
v 17.1047 4.7500 -10.8540
v 23.0432 4.9246 -10.1675
v 25.3318 5.3172 -10.1675
v 26.6078 3.9908 -10.3656
v -1.4400 6.5273 -9.2335
v -0.0265 7.3164 -9.9494
v 2.5101 7.0377 -11.2909
v 3.9845 6.0628 -11.4693
v 11.3806 8.4778 -11.5987
v 12.6673 8.4539 -11.4009
v 15.6504 7.5166 -10.3233
v 17.4934 7.4088 -10.5859
v 20.3388 7.7402 -10.2210
v 22.7437 7.3538 -10.9134
v 24.6082 6.8195 -10.8688
v -1.5326 10.2605 -9.6311
v 0.1096 9.5314 -10.5796
v 1.5719 8.8023 -11.5282
v 11.3806 8.5468 -11.5987
v 12.7181 9.5575 -10.6391
v 15.2002 9.8602 -10.4623
v 17.1002 9.1523 -11.2450
v 20.8216 9.7647 -10.2210
v 22.2316 8.9412 -10.9580
v -1.7462 12.2500 -9.8622
v -0.1489 12.2500 -11.1122
v 3.4534 13.1634 -11.2122
v 4.4117 13.1634 -11.2122
v 13.3684 11.6944 -10.3656
v 15.1151 12.2379 -10.3656
v 17.6673 12.1266 -10.3656
v 19.5208 11.5951 -10.3656
v -1.5175 14.0582 -9.5955
v 0.2898 14.2891 -10.4035
v 2.7234 14.7117 -10.3177
v 4.7321 14.7500 -10.9187
v 14.4791 14.7500 -10.3656
v 3.6601 16.2986 -9.4231
v 4.7298 17.1791 -10.3001
v 8.3188 17.9343 -10.9363
v 10.1673 17.7216 -10.4961
v 12.4257 17.2751 -10.1276
v 14.0078 16.0731 -10.3656
v 5.7390 19.2269 -10.3656
v 7.5582 19.1503 -10.2080
v 10.1673 18.5939 -9.2461
v 11.4313 18.5105 -9.1355
v -13.6207 -9.0326 -6.6272
v -13.5649 -9.0326 -6.6272
v -13.6207 -8.9811 -6.6272
v -13.5649 -8.9811 -6.6272
v 3.5105 -6.6912 -7.0328
v 4.3488 -6.6912 -7.0328
v -6.3635 -4.4567 -6.9822
v -4.8327 -4.4730 -7.0909
v -3.3637 -4.1740 -6.8827
v 1.0402 -4.5246 -6.9846
v 2.6732 -5.3148 -7.5036
v 5.1483 -5.0835 -8.0044
v 7.6673 -5.1962 -7.8656
v 10.1673 -5.0063 -7.8656
v 12.6673 -4.6475 -7.8656
v 14.6559 -4.4622 -7.8656
v -6.4863 -2.5726 -7.8355
v -4.8327 -3.1449 -8.3409
v -2.8274 -2.7434 -7.7759
v 0.6594 -2.7500 -7.2702
v 2.6432 -2.8269 -8.5555
v 4.2810 -3.7114 -8.9760
v 13.8167 -1.6829 -6.7181
v 15.2431 -2.6434 -7.8776
v 16.4689 -1.9372 -9.0372
v -6.4219 -0.3024 -7.9174
v -5.7845 0.4960 -8.7853
v -1.8150 -0.4319 -7.8914
v 0.0373 -0.4319 -7.6655
v 2.5764 0.0984 -8.0113
v 5.1673 0.6461 -6.8673
v 6.4758 0.9650 -6.6514
v 13.3423 -0.2500 -7.1121
v 15.1172 -0.4275 -8.4658
v 16.4689 -1.3791 -9.0372
v -6.2561 1.3441 -7.1186
v -5.3560 2.2064 -7.9174
v -1.6763 1.4265 -8.7420
v 0.1673 1.3885 -8.8001
v 2.5813 1.2563 -7.9920
v 5.2888 2.2526 -7.2169
v 6.5171 2.2500 -7.1423
v 12.9083 2.2500 -7.4352
v 14.3504 2.2500 -8.6852
v 23.5689 3.1266 -8.7532
v 25.1673 3.1934 -8.8182
v 26.4410 3.4646 -9.0815
v -4.1480 4.3749 -7.8656
v -3.0732 5.6249 -7.8656
v 6.2031 3.7842 -7.2821
v 6.4919 3.7842 -7.2821
v 13.2380 4.1786 -7.1488
v 14.5447 4.9071 -7.9355
v 23.5689 4.2076 -8.7532
v 25.1673 4.0859 -8.8182
v 26.4410 3.5736 -9.0815
v -1.8232 6.9554 -7.8656
v -0.9365 8.2054 -7.8656
v 13.3680 8.1024 -7.0875
v 15.1513 7.2360 -7.8148
v 17.6673 7.6993 -8.1902
v 19.6198 7.8960 -8.4553
v -1.5252 10.0412 -7.8656
v -0.1880 9.5932 -7.4094
v 1.7519 10.6625 -6.8012
v 13.5248 9.6735 -7.9795
v 14.6897 9.5506 -7.8960
v 17.8314 9.5625 -6.9595
v 20.2791 10.1433 -7.5838
v 22.6673 10.5529 -6.9039
v 24.0529 10.7361 -6.7210
v -1.9406 12.2500 -7.8656
v 0.5339 12.2500 -6.9004
v 2.6181 12.1658 -7.2394
v 5.1673 12.8637 -7.2099
v 6.5273 13.2086 -6.7482
v 13.6816 11.3915 -8.8714
v 15.0006 12.3540 -8.9107
v 17.8995 12.3713 -7.8530
v 20.1549 11.5208 -7.6586
v 22.6673 11.5809 -6.9039
v 24.0529 11.1589 -6.7210
v -1.4981 14.0042 -7.8656
v 0.0749 14.2693 -7.7321
v 2.7630 14.8660 -8.5462
v 5.1673 14.7500 -7.8916
v 6.8140 14.7500 -6.8739
v 15.4810 14.7500 -8.6962
v 17.7818 14.9045 -7.3048
v 18.9507 15.8408 -6.6568
v 3.6601 16.2986 -8.9792
v 5.0550 17.1791 -8.3534
v 7.6686 17.2125 -7.2842
v 9.2356 18.0208 -7.1974
v 13.0478 17.6641 -7.8656
v 14.9497 16.7127 -7.8794
v 17.6673 16.5378 -6.9763
v 18.9507 16.0813 -6.6568
v 5.8134 19.1441 -8.6030
v 7.6673 19.0690 -8.5425
v 10.1083 18.7803 -7.9646
v 11.7978 18.7644 -7.8656
v -16.5289 -11.9311 -4.6110
v -14.8327 -11.8976 -4.6190
v -13.4857 -11.5991 -4.2913
v -16.5655 -10.2500 -4.7366
v -14.6055 -10.0196 -5.7179
v -13.2445 -10.0196 -5.2210
v -6.3752 -9.0920 -4.2061
v -5.9759 -9.0920 -4.2061
v -16.2802 -8.8008 -4.4482
v -14.6055 -8.5482 -5.3151
v -13.2327 -8.5846 -5.3656
v -8.8662 -7.0483 -4.5798
v -7.2582 -7.8290 -4.7717
v -5.7559 -7.7500 -4.5876
v 3.5105 -6.6912 -6.2076
v 4.3488 -6.6912 -6.2076
v -8.8662 -5.8737 -4.5798
v -7.3618 -5.1652 -5.4505
v -4.7411 -5.1487 -5.3248
v -3.3637 -4.1740 -5.9951
v 0.9505 -4.5929 -5.3656
v 2.6732 -5.7403 -5.3708
v 5.1762 -5.8346 -5.3708
v 7.6673 -5.5438 -5.3656
v 10.1673 -5.3557 -5.3656
v 12.6673 -4.8464 -5.3656
v 14.1765 -4.3238 -5.3656
v -11.1438 -1.6364 -4.1816
v -9.8327 -2.0387 -4.3622
v -7.8148 -2.8492 -5.2732
v -3.7285 -3.8654 -4.3284
v -2.2931 -2.8392 -5.3692
v -0.3362 -2.6878 -5.4922
v 13.6076 -2.0694 -5.3656
v 14.1765 -3.3194 -5.3656
v -11.1438 -1.2355 -4.1816
v -9.8327 -0.6857 -4.3622
v -7.8810 -0.0073 -5.2732
v -1.2226 -1.3865 -6.4099
v -0.8828 -1.3865 -6.4099
v 3.4905 0.3538 -5.3656
v 5.0982 0.4621 -5.5570
v 6.4758 0.9650 -6.5179
v 11.2020 0.7187 -4.5696
v 12.2699 -0.1688 -5.3880
v -8.9070 2.6741 -4.6909
v -7.4169 2.0091 -5.5736
v -5.8040 3.0108 -6.4562
v 3.4905 1.4730 -5.3656
v 5.2109 2.1486 -5.6785
v 6.5171 2.2500 -6.4599
v 10.8696 2.2500 -4.9321
v 11.6583 2.2500 -6.1821
v -8.9070 4.0120 -4.6909
v -7.4576 4.8072 -5.3478
v -4.9155 4.8949 -6.1939
v -3.3793 5.8249 -6.1010
v 6.2031 3.7842 -6.5057
v 6.4919 3.7842 -6.5057
v 10.8505 4.7500 -4.8425
v 12.5097 4.9071 -6.1126
v 14.0081 5.8453 -6.4748
v -6.7075 6.6811 -4.9200
v -4.8931 7.4086 -5.0846
v -2.4607 7.4479 -6.0614
v 0.2080 8.4467 -5.3473
v 2.6673 8.4667 -4.1515
v 3.9496 8.4752 -4.1327
v 11.1764 6.3072 -4.4501
v 12.7248 7.2048 -5.4624
v 14.9600 7.3527 -5.5729
v 16.5684 8.2697 -4.6710
v -4.0154 9.7500 -4.5810
v -2.1668 9.6766 -5.9474
v -0.0097 9.4213 -5.6643
v 2.7922 9.6405 -4.9729
v 3.9496 8.6186 -4.1327
v 8.8921 10.5380 -4.3806
v 8.9337 10.5380 -4.3806
v 13.3785 8.8410 -5.3656
v 15.1140 8.8354 -5.4488
v 17.6713 9.7110 -5.4912
v 20.1040 10.3171 -5.4331
v 22.6673 9.5301 -5.3656
v 24.5700 10.2470 -5.3656
v -3.6421 11.0532 -4.2443
v -2.0456 11.8811 -5.3920
v -0.7571 12.0254 -5.5700
v 3.4797 11.3181 -5.3656
v 5.2382 12.5796 -5.4585
v 7.7379 12.6608 -5.2540
v 9.1033 12.2500 -4.4293
v 18.6405 12.2500 -6.2285
v 20.1040 12.3693 -6.2265
v 22.7448 12.8902 -5.5362
v 24.5700 11.6510 -5.3656
v -1.2017 13.6140 -6.5397
v -0.8200 13.6140 -6.5397
v 6.1188 13.6667 -4.6870
v 7.5710 14.2857 -5.3131
v 9.3552 14.7500 -4.5327
v 18.7225 15.0224 -5.5492
v 19.6459 14.9470 -5.6448
v 21.9631 13.8315 -4.8167
v 8.5029 16.3541 -6.1852
v 9.3478 17.2125 -5.3574
v 13.6399 18.2278 -5.3656
v 15.1673 17.8305 -5.3656
v 17.8190 16.7309 -5.4631
v 18.9507 16.0813 -6.3615
v 10.4413 19.3530 -5.3656
v 12.3899 19.3530 -5.3656
v -16.5289 -11.9311 -3.4647
v -14.8327 -11.8976 -3.3307
v -13.4857 -11.5991 -3.7200
v -16.4942 -10.1271 -2.7250
v -14.8327 -10.9450 -2.0807
v -12.8342 -10.4290 -2.8782
v -6.7960 -9.2322 -2.8656
v -5.8142 -9.2322 -2.8656
v -1.2271 -9.1661 -1.7438
v 0.1673 -9.4696 -2.0287
v 1.9244 -9.4601 -2.0383
v 6.3572 -9.0222 -1.6389
v 6.5094 -9.0222 -1.6389
v -16.2624 -8.7919 -2.8656
v -14.6527 -7.5126 -2.7253
v -12.1741 -7.6127 -2.5728
v -9.7528 -7.4377 -2.6545
v -8.0460 -8.7269 -2.8656
v -5.3202 -7.7500 -2.8656
v -1.2679 -7.7500 -1.7734
v 0.1673 -7.7500 -2.4757
v 2.2462 -7.7500 -2.3179
v 5.9234 -7.7500 -2.1141
v 7.4726 -7.7985 -2.3006
v 9.3920 -6.9975 -2.0927
v -13.6994 -6.4074 -1.7984
v -12.2619 -5.4445 -2.0095
v -9.7528 -5.1243 -3.3250
v -8.3602 -4.2071 -3.9910
v -4.2749 -5.2335 -3.0531
v -2.1442 -5.2335 -2.2396
v 0.2702 -5.1596 -3.1103
v 2.7762 -5.7660 -2.9238
v 5.0582 -5.9885 -3.0003
v 7.6673 -6.1803 -3.7044
v 10.2021 -5.9729 -2.9018
v 12.9047 -4.6845 -2.6685
v 13.9993 -4.1231 -3.3704
v -11.3442 -2.5818 -2.8608
v -9.8327 -3.2887 -3.7037
v -8.3602 -3.7486 -3.9910
v -3.7285 -3.8654 -4.0114
v -2.3327 -3.5088 -3.5839
v -0.4946 -3.4797 -3.5108
v 11.3477 -1.6077 -1.7433
v 12.9173 -2.6754 -2.5568
v 13.9993 -3.7430 -3.3704
v -11.1856 -1.0867 -2.8656
v -9.8327 0.1270 -2.8656
v -8.5067 0.9636 -2.8656
v 3.5852 0.5753 -3.9207
v 4.2187 0.5753 -3.9207
v 10.8499 -0.1688 -2.6922
v 11.9382 -0.9480 -3.4100
v -8.9070 2.6741 -3.6452
v -8.1384 2.0044 -2.8333
v 1.3739 3.4254 -1.6619
v 2.6503 2.3174 -2.7913
v 5.0233 2.0351 -2.8804
v 7.6673 2.5908 -2.1868
v 9.5827 2.1562 -2.9379
v -8.9070 4.0120 -3.6452
v -7.5833 4.8072 -2.8333
v -4.2844 5.7035 -2.0225
v -2.3327 5.7330 -1.9649
v 0.3913 4.9643 -1.9471
v 2.5962 4.5781 -2.1367
v 5.2820 4.7992 -1.9153
v 7.4228 4.9809 -2.3482
v 9.6005 4.7500 -3.6130
v 15.8066 5.8485 -1.9159
v 16.6121 5.8485 -1.9159
v -6.5628 6.5212 -2.8656
v -4.8944 7.1027 -2.5043
v -2.3327 6.2893 -1.9649
v 0.2459 7.3273 -2.7020
v 2.6673 7.2167 -3.4823
v 5.1762 7.2791 -2.6975
v 7.4228 7.0498 -2.4513
v 10.2728 7.1843 -3.4445
v 12.7038 7.9703 -2.7526
v 15.0259 7.2849 -2.8473
v 16.9442 7.3618 -2.7958
v -4.0337 9.6244 -3.0645
v -2.3327 10.0678 -2.7509
v -0.4561 9.6298 -3.0749
v 3.8325 10.2852 -3.9857
v 4.9367 9.5711 -3.1464
v 7.9022 9.7228 -3.2111
v 9.8185 9.5500 -2.9100
v 13.0689 9.2857 -2.4427
v 14.1543 9.6475 -2.8008
v 18.1798 9.3161 -2.8656
v 20.1673 10.0806 -2.8656
v 22.5590 10.1675 -2.6480
v 24.6520 10.2598 -3.3363
v -3.6421 11.0532 -4.0305
v -2.3327 11.0716 -4.0009
v -1.0288 11.0423 -4.0478
v 3.8325 11.1477 -3.9857
v 5.2382 12.0886 -3.4403
v 7.3957 12.2500 -3.3689
v 10.1377 12.3387 -2.8378
v 12.7558 12.1822 -1.9044
v 14.0635 11.1332 -1.8229
v 23.0626 12.4255 -2.6480
v 24.6520 11.7091 -3.3363
v 6.1188 13.6667 -3.8944
v 6.9137 13.6667 -3.8944
v 10.6052 14.7500 -3.5177
v 11.9391 14.7500 -2.2677
v 18.2451 15.6854 -2.8656
v 20.1673 15.0599 -2.8656
v 22.0469 14.1244 -2.8656
v 10.2538 17.1948 -2.9150
v 12.8869 17.3971 -2.5438
v 15.1673 17.3469 -2.8656
v 16.9951 16.3954 -2.8656
v 10.2771 19.9772 -3.0787
v 12.6360 19.9772 -3.0787
v 10.9750 21.3706 -2.3875
v 12.0868 21.3706 -2.3875
v -9.0804 -11.6536 0.7247
v -8.3145 -11.6536 0.7247
v -16.1248 -9.2117 -1.5241
v -14.7793 -9.7386 -0.5607
v -12.1617 -9.9857 -0.4885
v -9.8813 -10.3741 0.0263
v -7.5360 -9.8076 -0.3853
v -5.8315 -9.2177 -1.2695
v -1.5233 -9.4814 -0.3656
v 0.1673 -9.9960 -0.3656
v 2.0632 -9.5146 -0.3656
v 6.1251 -9.1106 -0.3656
v 6.8040 -9.1106 -0.3656
v -16.1248 -8.9217 -1.5241
v -15.0130 -7.9531 -0.5607
v -11.2144 -8.4270 -1.4037
v -9.8327 -8.5109 -1.3185
v -7.4957 -8.7706 -0.5170
v -4.9588 -7.7822 -0.3821
v -2.4967 -7.7665 -0.3430
v 2.9193 -7.7500 -0.3656
v 5.2090 -7.7500 -0.3656
v 8.0540 -8.5799 -0.3656
v 9.5557 -7.3299 -0.3656
v -13.8748 -6.1893 -0.3656
v -12.6147 -4.9393 -0.3656
v -3.8882 -5.0582 -0.1674
v -2.5552 -4.9410 -0.1249
v -0.9558 -4.0793 0.6332
v 3.5234 -6.1929 -0.3656
v 4.2512 -6.1929 -0.3656
v 8.4806 -4.2811 0.5126
v 10.1763 -5.2373 -0.3993
v 12.2296 -4.5268 -1.3111
v -11.3540 -2.8825 -0.4305
v -10.8603 -2.1375 0.3596
v -3.6904 -3.8089 0.8264
v -2.3327 -3.7038 0.6525
v -0.9558 -3.7962 0.6332
v 8.4806 -3.8064 0.5126
v 10.4341 -2.7071 -0.3993
v 12.2296 -3.2744 -1.3111
v -11.1588 -1.2134 -1.3071
v -9.9493 -0.4940 -0.4305
v -8.3779 0.7926 -0.3656
v -3.6668 0.6814 0.8069
v -3.4531 0.6814 0.8069
v 8.6010 0.8527 0.5012
v 9.8410 -0.0884 -0.3455
v -7.0354 2.3342 -0.4962
v -4.7249 2.1589 0.5285
v -3.4531 1.0941 0.8069
v 1.1693 3.0094 -0.3656
v 2.5962 2.6283 -0.5377
v 5.0636 2.2678 -0.5377
v 7.7275 1.4032 -0.3455
v 9.0899 1.2603 -1.1655
v -6.2398 4.7500 -1.4543
v -5.0336 5.0015 -0.6747
v -2.3327 5.4802 -0.3656
v -0.0807 4.4779 -0.3656
v 3.3821 3.6302 -1.4857
v 5.2820 4.7992 -1.5481
v 6.4265 5.9683 -1.6105
v 15.8066 5.8485 -1.3526
v 16.6121 5.8485 -1.3526
v -6.0980 6.0138 -1.5996
v -4.8543 6.9460 -1.5199
v -2.3327 7.5393 -1.3439
v -0.9057 7.8409 -1.4287
v 6.4028 6.0830 -1.6105
v 6.4265 6.0830 -1.6105
v 13.3260 7.9667 -1.4408
v 15.0509 7.1800 -0.9501
v 16.9626 7.2500 -0.9148
v -3.7574 8.7073 -1.4402
v -2.3327 8.8178 -1.3439
v -0.9057 8.7164 -1.4287
v 10.7032 10.2287 -1.1251
v 12.7293 9.5907 -1.2829
v 14.9981 9.6687 -0.3591
v 17.6934 9.6608 -0.2980
v 20.1673 10.6850 -1.3767
v 21.6534 10.9763 -1.5942
v 10.7032 11.5645 -1.1251
v 12.7295 12.1262 -0.6911
v 15.1674 12.1919 0.1325
v 17.6293 12.4307 0.2333
v 20.1673 12.2500 -0.8417
v 21.8146 12.2500 -1.3437
v 12.5142 14.7500 -0.3656
v 16.3393 13.7584 0.7966
v 17.3562 14.7341 -0.2234
v 20.1673 14.2832 -1.0806
v 21.7110 14.0010 -1.2744
v 10.7455 17.9914 -1.1772
v 12.7063 17.2761 -0.7134
v 15.1673 16.8635 -0.3656
v 16.5756 16.1239 -0.3656
v 10.5817 19.7500 -0.9331
v 12.3382 19.7500 -0.9331
v 10.9750 21.3706 -1.1441
v 12.0868 21.3706 -1.1441
v -16.6562 -19.3941 2.7747
v -15.5624 -19.3941 2.7747
v -16.9403 -17.7500 2.5329
v -14.7705 -17.7124 2.5301
v -13.4082 -16.8540 3.0959
v -16.6526 -15.8901 2.8587
v -14.8327 -15.7785 2.7737
v -13.4082 -16.1479 3.0959
v -16.1746 -11.7610 3.2933
v -14.8327 -11.7954 3.2448
v -12.3327 -11.8019 2.8882
v -9.8813 -11.8320 2.0444
v -8.2126 -11.7127 2.1344
v -16.1746 -10.7970 3.2933
v -14.9760 -10.0507 2.4580
v -12.3327 -10.9459 1.6382
v -10.7471 -11.2902 1.1511
v -7.7456 -10.2500 2.1344
v -1.5257 -9.4758 1.3793
v 0.1673 -9.5264 1.3905
v 1.7714 -9.2261 1.0644
v 6.0878 -9.1253 1.0741
v 6.8409 -9.1253 1.0741
v -14.6411 -7.7500 2.1344
v -6.8656 -8.4565 2.1344
v -4.8327 -7.6395 2.1344
v -2.3485 -7.9731 2.1813
v 0.1102 -7.6267 2.5924
v 2.5811 -7.4814 1.9475
v 5.1077 -7.7053 1.8769
v 7.5113 -7.6983 1.9702
v 9.2939 -7.1091 1.1995
v -13.8193 -5.3070 2.2933
v -12.8267 -4.5116 1.5658
v -3.8402 -4.2594 2.1344
v -2.5460 -4.2551 1.9300
v -0.0252 -5.1467 2.0083
v 2.5981 -6.2854 2.0346
v 5.1989 -5.4579 1.9941
v 7.4979 -5.2534 2.0874
v 9.2939 -5.9477 1.1995
v -13.6905 -2.7500 3.2156
v -12.1291 -2.8825 1.9398
v -10.8603 -2.1375 1.2017
v -3.8402 -3.7974 2.1344
v -2.5460 -3.7157 1.9300
v -0.9558 -3.7962 0.9604
v 6.2703 -3.4273 2.9753
v 7.6553 -3.1702 2.1389
v 9.5206 -2.1424 2.1344
v -13.6234 -1.4565 3.3113
v -12.3327 -1.2853 2.9425
v -9.9493 -0.8421 2.0748
v -7.4767 0.1659 2.2681
v -4.6332 0.3725 2.2681
v -3.2636 0.6486 2.1344
v 3.7381 0.8909 2.6965
v 4.0977 0.8909 2.6965
v 8.4537 0.5723 2.1344
v 9.5206 -0.6777 2.1344
v -6.7394 1.5570 1.5238
v -4.7335 2.0636 1.8727
v -3.2636 1.1936 2.1344
v 1.1300 2.9204 1.2124
v 2.9183 1.9775 1.9544
v 5.0256 1.2998 1.9717
v 7.2037 1.3488 2.1344
v -4.2835 4.5114 2.1344
v -2.3327 5.1332 2.1344
v 0.2450 4.1906 2.0812
v 2.0984 3.8220 2.8791
v 15.9328 10.3846 1.1201
v 16.7705 10.3846 1.1201
v 13.2445 12.7991 2.1344
v 15.4233 12.3357 1.6997
v 16.7705 11.7178 1.1201
v 12.6706 14.7500 2.1344
v 16.1914 14.6550 2.1495
v 16.5274 15.4250 1.3263
v 13.3434 16.6067 2.1344
v 15.2923 16.5688 2.1495
v 16.5274 16.1391 1.3263
v -16.5774 -19.3175 4.6344
v -15.6568 -19.3175 4.6344
v -17.6274 -17.7500 4.6344
v -14.4192 -17.7124 4.5963
v -13.4082 -16.8540 3.7376
v -17.2761 -15.1341 4.6218
v -14.4235 -15.2091 4.5844
v -12.7936 -15.2522 4.6954
v -10.9528 -14.3240 5.7057
v -19.0357 -11.8398 5.8184
v -17.2565 -12.6337 4.7992
v -14.8327 -13.0454 3.9694
v -12.3327 -13.0519 4.1637
v -9.9386 -12.5332 4.7320
v -8.3575 -11.6301 3.7583
v -19.2074 -10.2500 5.6542
v -17.1379 -10.0782 4.2595
v -16.0417 -9.1304 3.4832
v -8.9243 -11.2492 5.4250
v -7.7827 -10.3495 4.6088
v -4.3928 -9.3264 5.5962
v -2.3327 -9.3508 5.5082
v -0.8908 -9.1414 5.6710
v -18.9626 -8.4319 5.6435
v -17.4738 -7.6591 5.0462
v -15.4408 -7.7500 3.7673
v -6.5016 -8.5508 4.6344
v -5.0687 -8.2206 4.7115
v -2.3327 -8.0083 4.2582
v -0.3208 -7.6267 4.7564
v 2.9115 -7.1309 4.6344
v 5.1251 -7.0772 4.4885
v 6.5151 -6.6207 3.5578
v -18.9403 -4.4611 5.7462
v -17.3686 -5.1184 5.6045
v -15.1031 -5.0654 4.6315
v -3.8184 -4.2852 3.5937
v -3.5215 -4.2852 3.5937
v 0.9758 -6.2088 4.6344
v 1.6615 -6.2088 4.6344
v 5.9002 -5.3355 4.4885
v 6.5151 -6.2258 3.5578
v -18.9403 -3.7229 5.7462
v -18.0025 -3.7229 5.7462
v -14.1165 -2.5489 4.5825
v -12.3327 -1.9710 5.2413
v -10.6387 -2.0466 5.5301
v -3.8184 -3.9210 3.5937
v -3.5215 -3.9210 3.5937
v 3.5654 -1.6976 5.6820
v 5.3966 -2.5624 4.5709
v 7.6673 -1.8580 3.5265
v 9.1186 -1.7168 3.4984
v -13.6234 -1.4565 3.7146
v -12.3327 -1.2853 3.9913
v -9.8163 -1.0881 4.6718
v -7.3327 -0.7074 4.6344
v -4.7426 0.2778 4.5474
v -3.2868 0.8500 3.6561
v 3.6517 0.0662 4.8628
v 4.6184 0.2996 4.6073
v 7.7362 -0.2538 3.6353
v 9.1186 -1.0897 3.4984
v -4.1222 2.0984 4.5474
v -3.2868 1.1640 3.6561
v 3.4169 2.0476 4.7800
v 4.8520 1.1634 4.6618
v 6.9488 1.2475 3.6131
v -4.0571 4.1757 4.6344
v -2.3327 4.9649 4.6344
v 0.1673 4.6610 4.6344
v 2.1763 3.8718 4.6344
v 13.4688 13.1354 3.8724
v 14.6606 13.1354 3.8724
v 13.3455 14.7500 4.0082
v 14.9435 14.7500 4.0082
v 13.6035 16.3090 3.7281
v 14.5423 16.3090 3.7281
v -18.5921 -19.0087 8.3579
v -17.1343 -19.0243 7.3685
v -15.0542 -19.0293 7.3674
v -12.3327 -19.0511 8.2801
v -10.8653 -19.0512 8.2737
v -18.8186 -17.7500 7.7463
v -18.0198 -17.7500 6.4963
v -14.3936 -17.7500 6.7554
v -12.3327 -17.7500 7.4614
v -9.9523 -17.6252 7.8862
v -8.5342 -16.7087 8.2793
v -19.1982 -15.2500 7.2439
v -18.3969 -15.2500 5.9939
v -13.8780 -16.1166 6.2408
v -11.8215 -15.0744 7.1035
v -10.3127 -15.2034 7.2629
v -8.5342 -16.4174 8.2793
v -21.2723 -11.8597 7.7139
v -19.9002 -12.6831 6.8677
v -18.3383 -13.5065 6.0214
v -11.1706 -12.7500 8.1153
v -10.6165 -12.7500 6.8653
v -6.2154 -11.5992 8.2512
v -5.6480 -11.5992 8.2512
v -1.4258 -11.5632 8.2724
v -0.9848 -11.5632 8.2724
v -21.2723 -11.1392 7.7139
v -20.4136 -10.2836 6.9821
v -11.1426 -11.4134 8.2562
v -9.7876 -10.9435 7.3075
v -6.9901 -10.2462 7.0767
v -5.0204 -10.3114 7.0767
v -2.2886 -10.6584 7.3172
v -0.1045 -9.9445 7.4304
v 1.4679 -9.0809 8.2551
v -19.3691 -7.6591 7.1114
v -18.4012 -6.7652 6.2627
v -11.5229 -6.6448 8.0987
v -10.9636 -6.6448 8.0987
v -6.0982 -8.7460 5.9022
v -6.0594 -8.7460 5.9022
v 0.9299 -7.6956 7.3068
v 2.3630 -7.6053 7.1992
v 4.2636 -6.7180 6.1434
v -21.1737 -4.2641 8.1435
v -19.7842 -5.1959 7.2031
v -17.3686 -5.1184 6.2083
v -15.9952 -4.1090 6.1540
v -11.6935 -5.2500 7.8556
v -10.7895 -5.2500 7.8556
v 1.2891 -6.3838 7.1344
v 2.6709 -5.5892 7.1696
v 4.6312 -5.2500 6.5622
v -21.1737 -3.8618 8.1435
v -19.7973 -3.3607 7.2399
v -17.2346 -3.3358 7.0462
v -15.0302 -3.3102 7.0462
v -12.3072 -3.2459 7.1328
v -10.2812 -2.8280 7.1328
v 3.2508 -2.6186 7.2713
v 4.5230 -3.3643 6.5292
v -9.0347 -1.0315 7.1344
v -7.1850 0.0890 7.3582
v -5.5159 0.5236 6.6741
v 2.9197 -0.0551 6.9210
v 3.9397 0.9081 5.9455
v -6.2532 1.0288 8.3408
v -4.9308 2.0172 7.3582
v 2.8178 2.0476 6.9210
v 3.9397 1.0794 5.9455
v -3.8178 3.8489 7.1344
v -2.3327 5.0383 7.1344
v 0.1673 5.0300 7.1344
v 1.8322 3.8406 7.1344
v -18.5921 -19.0087 8.4023
v -17.2686 -19.1517 9.3952
v -14.6937 -19.1567 9.4894
v -12.3327 -19.0511 8.6221
v -10.8653 -19.0512 8.5264
v -23.9903 -16.9252 10.2916
v -22.3327 -17.1677 10.0906
v -19.5733 -17.6910 9.4106
v -18.0593 -18.4170 10.0690
v -13.7678 -18.9062 10.2261
v -12.3327 -18.6409 9.8721
v -9.8703 -17.6619 9.3869
v -8.5342 -16.7087 8.5809
v -23.9449 -15.2500 10.3227
v -22.3327 -15.2500 9.6746
v -20.4482 -15.2500 8.9863
v -13.6450 -14.0443 10.8480
v -12.1170 -14.1523 9.8626
v -9.7582 -15.5761 9.5023
v -8.5342 -16.4174 8.5809
v -23.6580 -13.7704 10.7282
v -22.0417 -12.8151 9.7737
v -20.7648 -13.5264 8.8193
v -13.6450 -13.9489 10.8480
v -11.9746 -13.0681 9.6649
v -10.7634 -12.1872 10.1485
v -6.2154 -11.5992 8.7463
v -5.6480 -11.5992 8.7463
v -1.4258 -11.5632 8.7337
v -0.9848 -11.5632 8.7337
v -24.1162 -9.6438 10.3036
v -22.0417 -10.3915 9.4726
v -20.8013 -9.4726 8.6415
v -11.1426 -11.4134 8.4818
v -9.8911 -10.7251 9.4428
v -7.1623 -10.6731 9.6015
v -4.6360 -10.4782 9.7804
v -2.3664 -10.3029 9.7741
v -0.1549 -10.0285 9.4374
v 1.4679 -9.0809 8.4745
v -24.1162 -8.1768 10.3036
v -22.5768 -7.5061 9.8097
v -20.5307 -7.7500 8.7266
v -11.5229 -6.6448 8.5328
v -10.9636 -6.6448 8.5328
v -3.6241 -8.8989 10.8145
v -2.4672 -8.0624 10.6097
v 0.1658 -7.8593 9.4397
v 1.4679 -8.4927 8.4745
v -22.0833 -5.1585 9.5039
v -20.6280 -5.9307 8.5835
v -11.6935 -5.2500 8.6182
v -10.7895 -5.2500 8.6182
v -1.5873 -5.2500 10.3324
v 0.2298 -5.3563 9.6831
v 2.1582 -4.7844 9.6344
v -21.7158 -3.6098 9.6344
v -19.7259 -2.2977 9.6575
v -17.3327 -2.1276 9.1063
v -14.6756 -2.3571 9.6888
v -12.3072 -3.0813 9.4824
v -10.4630 -2.6165 9.4824
v -1.2108 -3.8309 10.6279
v -0.8635 -3.8309 10.6279
v 2.5615 -2.7500 9.6344
v -18.8214 -1.3203 10.5062
v -17.3327 -0.9670 10.3563
v -15.4042 -0.9690 10.5584
v -9.5927 -0.2351 9.4597
v -7.9198 0.6081 8.5098
v -4.3160 0.7893 10.7208
v -2.3327 0.7305 10.6887
v 0.1673 0.5420 10.2365
v 1.8087 -0.2772 9.4245
v -9.3604 1.4573 10.1765
v -7.1850 1.3045 9.4597
v -4.8236 1.8584 9.6059
v -2.3327 2.2500 10.0679
v 0.1673 2.2500 9.7446
v 1.6698 2.2500 8.6432
v -3.6646 3.6132 8.4909
v -2.3327 4.2094 9.0137
v 0.1673 4.3348 9.1426
v 1.6396 3.7804 8.6628
v -16.4298 -19.2693 12.1344
v -15.4361 -19.2693 12.1344
v -24.2443 -17.1917 12.1344
v -22.3327 -17.8413 12.1344
v -19.8327 -17.6303 12.1344
v -17.6798 -18.2306 12.1344
v -14.1861 -18.5464 12.1344
v -12.3327 -17.8476 12.1344
v -10.1586 -17.0512 12.1344
v -24.3542 -15.2500 12.1344
v -13.6450 -14.0443 10.9185
v -12.3327 -14.1405 11.0009
v -10.0446 -15.0859 11.9571
v -23.7950 -12.8623 12.1297
v -22.8112 -12.1037 11.2933
v -16.3750 -11.7239 13.0060
v -14.5844 -12.8364 11.9623
v -12.0676 -13.0021 11.8446
v -10.6740 -12.8613 11.9876
v -24.3927 -10.3863 12.1297
v -22.8112 -11.3104 11.2933
v -16.3750 -10.8650 13.0060
v -15.5238 -10.8650 13.0060
v -11.7143 -11.1095 12.9695
v -9.8911 -10.4606 12.1355
v -7.4931 -9.5910 12.1753
v -5.2908 -9.6601 11.3693
v -1.6403 -9.3094 10.9362
v -0.9916 -9.3094 10.9362
v -26.1588 -6.7487 13.1585
v -24.9873 -7.4628 12.0355
v -23.5728 -6.5102 10.9126
v -13.7092 -7.1906 13.2683
v -13.4190 -7.1906 13.2683
v -8.6458 -6.7153 13.3021
v -7.4931 -7.6292 13.1157
v -4.6075 -7.9394 11.8150
v -2.4672 -8.0624 11.0352
v -0.9916 -8.8926 10.9362
v -26.2549 -5.2500 12.9213
v -24.8327 -5.2500 11.7202
v -23.5151 -5.2500 10.9333
v -13.7092 -6.0688 13.2683
v -13.4190 -6.0688 13.2683
v -8.6458 -6.4622 13.3021
v -7.3327 -6.4629 13.3099
v -4.7087 -5.4930 12.8619
v -2.8373 -5.2500 11.4941
v 0.8031 -4.2651 11.0730
v 1.7389 -4.2651 11.0730
v -26.2361 -3.7418 12.9929
v -24.8327 -3.2907 12.4935
v -22.5345 -2.9924 11.9066
v -20.4805 -2.0061 12.1344
v -13.7375 -1.6596 11.0374
v -12.3327 -1.7653 11.1060
v -10.9417 -1.6941 11.0269
v -3.7927 -3.8033 13.1142
v -2.1512 -2.9838 12.1648
v 0.0488 -2.8985 11.4138
v 1.8807 -2.7500 11.2979
v -19.2305 -0.9288 12.1344
v -17.3327 0.0322 12.1344
v -14.8003 -0.0261 12.1122
v -12.2592 -0.0536 12.4432
v -10.8548 -0.0536 11.9699
v -4.3160 0.7893 11.5983
v -2.4886 -0.0130 12.2402
v 0.1673 -0.7080 11.4047
v 1.7136 -1.1286 11.2472
v -14.1964 1.1063 13.1871
v -13.0436 1.1063 13.1871
v -9.6535 1.5372 12.1344
v -7.3327 1.5581 12.1344
v -5.0227 1.0325 12.3128
v -3.5524 1.0264 13.2650
v -16.2356 -19.1175 13.5031
v -15.8688 -19.1175 13.5031
v -24.0572 -16.9970 13.7154
v -22.3327 -17.1737 13.9138
v -19.5882 -16.9781 14.6094
v -17.3831 -17.5311 14.6404
v -15.0791 -17.7091 14.6404
v -12.3327 -17.4362 14.6344
v -10.2724 -16.8727 14.6344
v -23.9919 -15.2500 13.6982
v -22.3327 -15.2500 14.3745
v -20.1027 -15.2500 15.3107
v -16.8640 -15.7963 15.7777
v -15.9561 -15.7963 15.7777
v -11.7239 -14.1907 15.8004
v -10.1357 -15.1144 14.8340
v -24.1151 -12.6241 14.4369
v -22.2750 -12.6241 15.1497
v -20.6071 -12.7500 15.5255
v -16.3750 -11.7239 13.8149
v -14.8611 -12.0186 14.4982
v -12.5524 -12.9244 14.6576
v -10.5847 -13.5354 14.1337
v -26.4528 -9.7219 15.3140
v -25.4378 -10.4332 14.5422
v -21.4033 -11.1601 15.7124
v -20.9311 -11.1601 15.7124
v -16.3750 -10.8650 13.8149
v -14.9558 -10.5136 14.3843
v -12.4616 -10.2657 13.7489
v -9.8327 -9.4119 13.7674
v -8.4335 -9.1064 13.5234
v -26.3058 -7.6036 14.4604
v -25.8056 -7.6036 14.4604
v -13.9696 -8.0066 14.3369
v -12.7982 -7.7960 14.3601
v -9.3240 -7.4147 14.3697
v -7.8044 -7.6372 14.2158
v -5.6483 -7.0299 15.0636
v -26.2549 -5.2500 13.7288
v -25.5371 -5.2500 14.9788
v -13.7092 -6.0688 13.5173
v -13.4190 -6.0688 13.5173
v -8.6458 -6.4622 13.5060
v -7.3327 -6.4629 13.4850
v -5.3130 -5.4930 14.3919
v -26.2361 -3.7418 13.6211
v -24.8441 -3.0042 14.5265
v -22.3327 -2.3473 14.6344
v -20.4620 -2.1484 14.6344
v -6.1670 -1.6545 15.7052
v -4.8251 -2.7289 14.8537
v -3.0916 -2.1366 14.0021
v -19.2120 -0.9076 14.6344
v -17.3327 0.2122 14.6344
v -15.3230 0.8697 14.6344
v -11.3769 0.9107 13.6931
v -10.8994 0.9107 13.6931
v -6.1670 -1.2657 15.7052
v -4.9127 -0.3594 15.1942
v -3.1916 -0.2500 13.9061
v -14.0730 1.0824 14.6344
v -12.2592 1.2138 14.5696
v -9.9727 1.6065 14.5696
v -7.3327 1.7069 14.6344
v -4.9127 1.1227 14.4311
v -3.5524 1.0264 13.4623
v -18.5920 -16.5051 15.8885
v -18.5306 -16.5051 15.8885
v -14.2894 -16.9291 16.2376
v -12.3327 -16.9796 16.2761
v -10.6936 -16.7103 16.0536
v -18.8527 -15.2500 16.1766
v -17.5514 -15.0778 16.1377
v -15.0067 -15.0778 16.1252
v -12.4674 -15.1144 16.2072
v -10.6936 -15.8574 16.0536
v -24.1914 -11.7067 16.3659
v -23.0699 -11.7067 16.3659
v -19.3571 -12.7500 16.7734
v -17.3327 -12.7500 17.2145
v -14.9521 -12.9880 16.2467
v -13.3906 -13.9800 15.9001
v -26.4528 -9.7219 16.4279
v -24.7252 -10.2026 17.2302
v -22.4877 -10.0884 17.1411
v -19.9918 -10.2961 16.8296
v -17.3321 -10.3968 17.9438
v -15.0475 -10.4368 17.1018
v -13.2345 -9.5456 17.7636
v -26.4528 -8.4585 16.4279
v -24.6725 -7.8866 17.3030
v -22.6043 -7.9591 18.0472
v -19.8327 -8.3246 17.7161
v -18.1650 -8.4960 17.9615
v -14.2299 -8.8226 16.0969
v -12.2949 -7.6667 16.8353
v -9.9016 -6.8693 16.8979
v -7.3327 -7.4983 17.1344
v -5.6392 -7.0449 17.1344
v -24.2871 -5.2500 16.7391
v -22.4149 -5.2436 17.7234
v -20.7413 -4.4059 17.8099
v -11.3552 -6.2779 17.5736
v -10.7809 -6.2779 17.5736
v -5.3057 -5.2500 17.1344
v -24.0184 -3.2860 16.3971
v -22.3327 -3.3203 16.4630
v -20.0322 -2.8847 17.0397
v -8.6186 -1.5679 18.3625
v -7.1332 -1.8694 17.3713
v -5.7492 -3.1608 17.1344
v -18.7756 -1.3093 17.1344
v -17.1704 0.0982 17.0550
v -15.2893 0.9093 16.1687
v -8.6186 -1.4502 18.3625
v -7.1332 -0.9775 17.3713
v -5.8069 0.3658 17.1344
v -16.2288 1.2130 17.8354
v -14.5805 1.9416 17.1919
v -12.3841 2.3249 17.2828
v -9.8327 2.0986 17.1344
v -7.3327 1.9067 17.1344
v -5.8069 1.2115 17.1344
v -13.8717 3.6465 18.2150
v -13.2517 3.6465 18.2150
v -23.5923 -9.0166 18.3867
v -23.5722 -9.0166 18.3867
v -16.4984 -9.6613 18.8642
v -14.8327 -9.9051 19.1000
v -13.2345 -9.5456 18.8587
v -23.5923 -8.9814 18.3867
v -22.6043 -7.9591 18.5065
v -19.6086 -6.9798 19.5295
v -17.3321 -7.9987 19.6723
v -14.6409 -7.7810 20.4091
v -12.9010 -7.7500 19.3054
v -9.1142 -6.8631 18.9193
v -7.3327 -6.9198 19.0104
v -5.9257 -6.6967 18.6842
v -21.6364 -6.0726 18.6263
v -19.6836 -5.2611 19.7125
v -18.5373 -4.4496 20.7986
v -13.6797 -6.2568 20.8048
v -12.2462 -6.0176 19.8366
v -9.7759 -5.3863 19.6774
v -7.3327 -5.2500 19.5065
v -5.8003 -5.2500 18.8170
v -18.9840 -2.7500 18.9824
v -18.0579 -2.7500 20.2324
v -9.0146 -2.5408 19.6151
v -7.3327 -3.0958 18.8805
v -5.8631 -3.5599 18.6615
v -18.6258 -1.4537 18.4342
v -17.5665 -0.4723 19.4143
v -11.5430 0.4849 20.2596
v -9.6818 -0.4827 19.4192
v -7.3327 0.2274 18.5933
v -5.9983 0.7534 18.4684
v -16.5532 1.6273 19.6344
v -15.1530 2.8773 19.6344
v -12.1292 2.1748 19.5095
v -9.8327 1.5347 18.6867
v -7.3327 1.3988 18.5933
v -5.9983 1.1102 18.4684
v -13.9030 3.6326 19.6344
v -13.2956 3.6326 19.6344
v -18.6260 -6.5335 20.9441
v -17.3327 -6.8763 21.3242
v -15.3464 -6.9683 21.4111
v -18.6260 -6.1163 20.9441
v -17.5555 -5.2698 21.5889
v -14.6409 -5.3541 21.6507
v -12.3327 -4.8137 21.5844
v -10.4375 -4.4948 21.6550
v -16.8079 -2.7500 21.4126
v -14.8327 -2.7500 21.7260
v -12.1756 -2.8234 22.5975
v -10.4130 -2.8234 22.3468
v -16.5778 -0.2500 21.2705
v -14.8327 -0.2500 21.6858
v -12.2236 -0.4616 21.9946
v -10.7294 -1.1924 22.1344
v -16.5639 1.6234 21.2828
v -14.6655 2.3740 21.3207
v -13.2641 2.2500 21.1310
v -13.7207 3.5303 20.9146
v -13.5308 3.5303 20.9146
v -11.2375 -2.0390 23.4633
v -10.9494 -2.0390 23.4633
v -11.2375 -1.4082 23.4633
v -10.9494 -1.4082 23.4633
f 5 1 4
f 5 2 1
f 5 3 2
f 5 6 3
f 7 5 4
f 7 8 5
f 9 5 8
f 9 6 5
f 14 10 13
f 14 11 10
f 15 11 14
f 15 12 11
f 17 13 16
f 17 14 13
f 19 1 2
f 19 18 1
f 3 19 2
f 3 20 19
f 21 1 18
f 21 4 1
f 22 20 3
f 22 3 6
f 21 7 4
f 21 25 7
f 26 8 7
f 26 7 25
f 22 6 9
f 22 9 27
f 9 8 26
f 9 26 27
f 28 24 23
f 28 29 24
f 11 30 10
f 11 31 30
f 12 31 11
f 12 32 31
f 33 10 30
f 33 13 10
f 32 12 15
f 32 15 35
f 15 14 34
f 15 34 35
f 33 16 13
f 33 39 16
f 34 14 17
f 34 17 40
f 17 16 39
f 17 39 40
f 41 34 40
f 41 35 34
f 41 36 35
f 41 42 36
f 44 37 43
f 44 38 37
f 19 45 18
f 19 46 45
f 47 19 20
f 47 46 19
f 53 43 52
f 53 44 43
f 45 21 18
f 45 54 21
f 55 54 45
f 55 45 46
f 47 20 22
f 47 22 56
f 59 23 24
f 59 58 23
f 59 48 58
f 59 49 48
f 62 50 61
f 62 51 50
f 63 51 62
f 63 52 51
f 64 52 63
f 64 53 52
f 54 25 21
f 54 65 25
f 66 26 25
f 66 25 65
f 56 22 27
f 56 27 67
f 27 26 66
f 27 66 67
f 69 23 58
f 69 28 23
f 69 57 68
f 69 58 57
f 70 59 24
f 70 24 29
f 70 29 28
f 70 28 69
f 72 60 71
f 72 61 60
f 73 61 72
f 73 62 61
f 74 62 73
f 74 63 62
f 75 66 65
f 75 76 66
f 77 66 76
f 77 67 66
f 31 80 30
f 31 81 80
f 32 81 31
f 32 82 81
f 84 78 83
f 84 79 78
f 80 33 30
f 80 86 33
f 87 82 32
f 87 32 35
f 36 87 35
f 36 88 87
f 87 83 82
f 87 88 83
f 88 84 83
f 88 89 84
f 91 37 38
f 91 90 37
f 86 39 33
f 86 93 39
f 93 85 92
f 93 86 85
f 94 40 39
f 94 39 93
f 41 40 94
f 41 94 95
f 88 36 42
f 88 42 96
f 42 41 95
f 42 95 96
f 98 37 90
f 98 43 37
f 97 90 89
f 97 98 90
f 91 38 44
f 91 44 99
f 47 101 46
f 47 102 101
f 103 93 92
f 103 104 93
f 105 48 49
f 105 104 48
f 105 93 104
f 105 94 93
f 106 94 105
f 106 95 94
f 107 95 106
f 107 96 95
f 108 50 51
f 108 107 50
f 98 52 43
f 98 109 52
f 109 51 52
f 109 108 51
f 109 97 108
f 109 98 97
f 110 99 44
f 110 44 53
f 110 100 99
f 110 111 100
f 112 46 101
f 112 55 46
f 112 54 55
f 112 111 54
f 112 100 111
f 112 101 100
f 113 102 47
f 113 47 56
f 115 48 104
f 115 58 48
f 115 57 58
f 115 114 57
f 116 105 49
f 116 49 59
f 118 50 107
f 118 61 50
f 118 60 61
f 118 117 60
f 118 106 117
f 118 107 106
f 119 108 109
f 119 109 120
f 110 53 64
f 110 64 121
f 64 63 120
f 64 120 121
f 111 65 54
f 111 122 65
f 122 110 121
f 122 111 110
f 124 113 56
f 124 56 67
f 125 57 114
f 125 68 57
f 126 69 68
f 126 68 125
f 116 59 70
f 116 70 127
f 70 69 126
f 70 126 127
f 117 71 60
f 117 128 71
f 128 116 127
f 128 117 116
f 129 72 71
f 129 71 128
f 130 73 72
f 130 72 129
f 120 63 74
f 120 74 131
f 74 73 130
f 74 130 131
f 132 120 131
f 132 121 120
f 122 75 65
f 122 133 75
f 76 75 133
f 76 133 134
f 133 122 123
f 133 123 134
f 124 67 77
f 124 77 135
f 135 77 76
f 135 76 134
f 136 127 126
f 136 137 127
f 138 127 137
f 138 128 127
f 139 138 137
f 139 140 138
f 143 142 141
f 143 144 142
f 146 78 79
f 146 145 78
f 81 148 80
f 81 149 148
f 150 81 82
f 150 149 81
f 150 143 149
f 150 144 143
f 151 78 145
f 151 83 78
f 151 82 83
f 151 150 82
f 151 144 150
f 151 145 144
f 152 146 79
f 152 79 84
f 152 147 146
f 152 153 147
f 148 86 80
f 148 155 86
f 155 85 86
f 155 154 85
f 156 155 148
f 156 148 149
f 158 152 84
f 158 84 89
f 89 88 157
f 89 157 158
f 159 89 90
f 159 158 89
f 160 90 91
f 160 159 90
f 154 92 85
f 154 164 92
f 157 88 96
f 157 96 166
f 167 89 158
f 167 97 89
f 167 157 166
f 167 158 157
f 160 91 99
f 160 99 169
f 168 159 160
f 168 160 169
f 100 169 99
f 100 170 169
f 101 170 100
f 101 171 170
f 171 161 170
f 171 162 161
f 102 171 101
f 102 172 171
f 171 163 162
f 171 172 163
f 164 103 92
f 164 173 103
f 174 104 103
f 174 103 173
f 173 164 165
f 173 165 174
f 106 105 175
f 106 175 176
f 166 96 107
f 166 107 177
f 167 108 97
f 167 178 108
f 178 107 108
f 178 177 107
f 178 166 177
f 178 167 166
f 109 108 178
f 109 178 179
f 180 179 168
f 180 168 169
f 180 169 170
f 180 170 181
f 183 172 102
f 183 102 113
f 183 182 171
f 183 171 172
f 186 104 174
f 186 115 104
f 186 114 115
f 186 185 114
f 186 173 185
f 186 174 173
f 175 105 116
f 175 116 187
f 188 106 176
f 188 117 106
f 117 187 116
f 117 188 187
f 187 176 175
f 187 188 176
f 189 188 176
f 189 176 177
f 178 108 119
f 178 119 190
f 190 189 177
f 190 177 178
f 191 109 179
f 191 120 109
f 191 119 120
f 191 190 119
f 122 121 192
f 122 192 193
f 123 122 193
f 123 193 194
f 193 181 182
f 193 182 194
f 195 183 113
f 195 113 124
f 195 194 182
f 195 182 183
f 185 125 114
f 185 197 125
f 197 184 196
f 197 185 184
f 198 126 125
f 198 125 197
f 129 128 199
f 129 199 200
f 130 129 200
f 130 200 201
f 200 189 190
f 200 190 201
f 202 131 130
f 202 130 201
f 192 121 132
f 192 132 203
f 132 131 202
f 132 202 203
f 204 123 194
f 204 134 123
f 205 195 124
f 205 124 135
f 205 135 134
f 205 134 204
f 204 194 195
f 204 195 205
f 207 196 206
f 207 197 196
f 198 136 126
f 198 208 136
f 209 137 136
f 209 136 208
f 199 128 138
f 199 138 210
f 211 199 210
f 211 200 199
f 212 200 211
f 212 201 200
f 209 139 137
f 209 214 139
f 213 209 208
f 213 214 209
f 210 138 140
f 210 140 215
f 215 140 139
f 215 139 214
f 216 210 215
f 216 211 210
f 217 211 216
f 217 212 211
f 219 213 218
f 219 214 213
f 142 221 141
f 142 222 221
f 230 141 221
f 230 143 141
f 230 220 229
f 230 221 220
f 231 222 142
f 231 142 144
f 232 144 145
f 232 231 144
f 231 223 222
f 231 232 223
f 146 232 145
f 146 233 232
f 232 224 223
f 232 233 224
f 147 233 146
f 147 234 233
f 235 226 225
f 235 236 226
f 236 227 226
f 236 237 227
f 239 228 238
f 239 229 228
f 240 143 230
f 240 149 143
f 239 230 229
f 239 240 230
f 242 234 147
f 242 147 153
f 153 152 241
f 153 241 242
f 243 237 236
f 243 244 237
f 247 154 155
f 247 246 154
f 247 238 246
f 247 239 238
f 240 156 149
f 240 248 156
f 156 247 155
f 156 248 247
f 248 239 247
f 248 240 239
f 249 241 152
f 249 152 158
f 250 158 159
f 250 249 158
f 252 161 162
f 252 251 161
f 163 252 162
f 163 253 252
f 254 244 243
f 254 255 244
f 255 245 244
f 255 256 245
f 257 154 246
f 257 164 154
f 256 246 245
f 256 257 246
f 258 165 164
f 258 164 257
f 250 159 168
f 250 168 260
f 259 249 250
f 259 250 260
f 261 161 251
f 261 170 161
f 263 253 163
f 263 163 172
f 263 172 171
f 263 171 262
f 264 256 255
f 264 265 256
f 266 256 265
f 266 257 256
f 267 165 258
f 267 174 165
f 267 173 174
f 267 266 173
f 267 257 266
f 267 258 257
f 177 176 268
f 177 268 269
f 178 177 269
f 178 269 270
f 271 260 168
f 271 168 179
f 179 178 270
f 179 270 271
f 270 259 260
f 270 260 271
f 180 271 179
f 180 272 271
f 261 181 170
f 261 273 181
f 181 272 180
f 181 273 272
f 262 171 182
f 262 182 274
f 274 182 181
f 274 181 273
f 274 273 261
f 274 261 262
f 277 173 266
f 277 185 173
f 277 184 185
f 277 276 184
f 277 265 276
f 277 266 265
f 268 176 188
f 268 188 278
f 189 278 188
f 189 279 278
f 278 269 268
f 278 279 269
f 280 269 279
f 280 270 269
f 281 179 271
f 281 191 179
f 281 190 191
f 281 280 190
f 281 270 280
f 281 271 270
f 283 273 181
f 283 181 193
f 283 193 192
f 283 192 282
f 283 282 272
f 283 272 273
f 285 184 276
f 285 196 184
f 285 275 284
f 285 276 275
f 198 197 286
f 198 286 287
f 288 279 189
f 288 189 200
f 280 201 190
f 280 289 201
f 201 288 200
f 201 289 288
f 290 202 201
f 290 201 289
f 291 282 192
f 291 192 203
f 291 203 202
f 291 202 290
f 285 206 196
f 285 293 206
f 292 285 284
f 292 293 285
f 286 197 207
f 286 207 294
f 207 206 293
f 207 293 294
f 287 208 198
f 287 295 208
f 295 286 294
f 295 287 286
f 289 201 212
f 289 212 296
f 295 213 208
f 295 298 213
f 297 295 294
f 297 298 295
f 215 214 299
f 215 299 300
f 216 215 300
f 216 300 301
f 296 212 217
f 296 217 302
f 302 217 216
f 302 216 301
f 303 213 298
f 303 218 213
f 299 214 219
f 299 219 304
f 219 218 303
f 219 303 304
f 305 299 304
f 305 300 299
f 306 300 305
f 306 301 300
f 309 308 307
f 309 310 308
f 317 312 311
f 317 318 312
f 319 220 221
f 319 318 220
f 320 221 222
f 320 319 221
f 223 320 222
f 223 321 320
f 322 223 224
f 322 321 223
f 324 225 226
f 324 323 225
f 324 313 323
f 324 314 313
f 227 324 226
f 227 325 324
f 324 315 314
f 324 325 315
f 327 316 326
f 327 317 316
f 328 220 318
f 328 229 220
f 328 228 229
f 328 327 228
f 328 317 327
f 328 318 317
f 330 322 224
f 330 224 233
f 331 233 234
f 331 330 233
f 332 225 323
f 332 235 225
f 333 236 235
f 333 235 332
f 334 325 227
f 334 227 237
f 336 228 327
f 336 238 228
f 336 326 335
f 336 327 326
f 340 339 329
f 340 329 330
f 341 331 234
f 341 234 242
f 341 242 241
f 341 241 340
f 340 330 331
f 340 331 341
f 333 243 236
f 333 343 243
f 342 333 332
f 342 343 333
f 344 334 237
f 344 237 244
f 245 344 244
f 245 345 344
f 344 335 334
f 344 345 335
f 346 238 336
f 346 246 238
f 246 345 245
f 246 346 345
f 345 336 335
f 345 346 336
f 346 336 337
f 346 337 347
f 347 337 338
f 347 338 348
f 350 340 241
f 350 241 249
f 350 349 339
f 350 339 340
f 252 351 251
f 252 352 351
f 353 252 253
f 353 352 252
f 354 243 343
f 354 254 243
f 355 255 254
f 355 254 354
f 356 347 348
f 356 348 357
f 350 249 259
f 350 259 359
f 358 349 350
f 358 350 359
f 360 251 351
f 360 261 251
f 262 261 360
f 262 360 361
f 361 360 351
f 361 351 352
f 362 353 253
f 362 253 263
f 263 262 361
f 263 361 362
f 362 361 352
f 362 352 353
f 355 264 255
f 355 363 264
f 364 265 264
f 364 264 363
f 366 359 259
f 366 259 270
f 367 270 271
f 367 366 270
f 368 271 272
f 368 367 271
f 364 276 265
f 364 370 276
f 370 275 276
f 370 369 275
f 280 279 372
f 280 372 373
f 373 372 365
f 373 365 366
f 373 366 367
f 373 367 374
f 368 272 282
f 368 282 375
f 374 367 368
f 374 368 375
f 378 275 369
f 378 284 275
f 379 370 371
f 379 371 380
f 383 372 279
f 383 279 288
f 384 280 373
f 384 289 280
f 289 383 288
f 289 384 383
f 383 373 372
f 383 384 373
f 290 289 384
f 290 384 385
f 386 375 282
f 386 282 291
f 291 290 385
f 291 385 386
f 386 385 374
f 386 374 375
f 386 376 375
f 386 387 376
f 388 376 387
f 388 377 376
f 378 292 284
f 378 389 292
f 390 293 292
f 390 292 389
f 391 294 293
f 391 293 390
f 390 379 380
f 390 380 391
f 391 380 381
f 391 381 392
f 392 381 382
f 392 382 393
f 384 289 296
f 384 296 394
f 394 385 384
f 394 395 385
f 391 297 294
f 391 397 297
f 298 297 397
f 298 397 398
f 397 391 392
f 397 392 398
f 398 392 393
f 398 393 399
f 394 296 302
f 394 302 402
f 302 301 401
f 302 401 402
f 403 394 402
f 403 395 394
f 403 396 395
f 403 404 396
f 405 298 398
f 405 303 298
f 304 303 405
f 304 405 406
f 405 398 399
f 405 399 406
f 305 304 406
f 305 406 407
f 406 399 400
f 406 400 407
f 401 301 306
f 401 306 408
f 306 305 407
f 306 407 408
f 412 410 409
f 412 413 410
f 308 413 307
f 308 414 413
f 413 411 410
f 413 414 411
f 413 309 307
f 413 418 309
f 417 413 412
f 417 418 413
f 419 414 308
f 419 308 310
f 419 310 309
f 419 309 418
f 422 415 421
f 422 416 415
f 312 423 311
f 312 424 423
f 425 421 420
f 425 426 421
f 427 313 314
f 427 426 313
f 426 422 421
f 426 427 422
f 428 314 315
f 428 427 314
f 423 317 311
f 423 430 317
f 430 316 317
f 430 429 316
f 431 424 312
f 431 312 318
f 431 430 423
f 431 423 424
f 319 431 318
f 319 432 431
f 433 319 320
f 433 432 319
f 434 320 321
f 434 433 320
f 435 321 322
f 435 434 321
f 438 313 426
f 438 323 313
f 440 428 315
f 440 315 325
f 439 427 428
f 439 428 440
f 429 326 316
f 429 441 326
f 443 435 322
f 443 322 330
f 443 330 329
f 443 329 442
f 444 437 436
f 444 445 437
f 446 323 438
f 446 332 323
f 446 437 445
f 446 438 437
f 447 440 325
f 447 325 334
f 448 326 441
f 448 335 326
f 448 334 335
f 448 447 334
f 447 441 440
f 447 448 441
f 337 336 449
f 337 449 450
f 451 338 337
f 451 337 450
f 442 329 339
f 442 339 453
f 446 342 332
f 446 455 342
f 456 343 342
f 456 342 455
f 449 336 346
f 449 346 457
f 347 457 346
f 347 458 457
f 459 338 451
f 459 348 338
f 458 451 450
f 458 459 451
f 461 453 339
f 461 339 349
f 461 460 452
f 461 452 453
f 462 455 454
f 462 463 455
f 456 354 343
f 456 464 354
f 463 456 455
f 463 464 456
f 465 355 354
f 465 354 464
f 466 458 347
f 466 347 356
f 467 348 459
f 467 357 348
f 357 466 356
f 357 467 466
f 466 459 458
f 466 467 459
f 461 349 358
f 461 358 469
f 468 460 461
f 468 461 469
f 470 358 359
f 470 469 358
f 471 464 463
f 471 472 464
f 465 363 355
f 465 473 363
f 472 465 464
f 472 473 465
f 364 363 473
f 364 473 474
f 477 468 469
f 477 469 478
f 470 359 366
f 470 366 479
f 479 366 365
f 479 365 478
f 478 469 470
f 478 470 479
f 481 473 472
f 481 482 473
f 474 370 364
f 474 483 370
f 370 482 369
f 370 483 482
f 482 474 473
f 482 483 474
f 371 370 483
f 371 483 484
f 484 483 474
f 484 474 475
f 485 484 475
f 485 475 476
f 488 478 365
f 488 365 372
f 373 488 372
f 373 489 488
f 374 489 373
f 374 490 489
f 489 480 479
f 489 490 480
f 376 491 375
f 376 492 491
f 377 492 376
f 377 493 492
f 495 369 482
f 495 378 369
f 494 482 481
f 494 495 482
f 496 483 370
f 496 370 379
f 497 371 484
f 497 380 371
f 381 380 497
f 381 497 498
f 382 381 498
f 382 498 499
f 500 499 486
f 500 486 487
f 501 490 374
f 501 374 385
f 491 386 375
f 491 502 386
f 501 491 490
f 501 502 491
f 387 386 502
f 387 502 503
f 493 377 388
f 493 388 504
f 504 388 387
f 504 387 503
f 505 378 495
f 505 389 378
f 506 496 379
f 506 379 390
f 506 390 389
f 506 389 505
f 505 495 496
f 505 496 506
f 508 382 499
f 508 393 382
f 507 499 498
f 507 508 499
f 508 499 500
f 508 500 509
f 501 385 395
f 501 395 510
f 396 510 395
f 396 511 510
f 511 501 510
f 511 502 501
f 512 502 511
f 512 503 502
f 513 393 508
f 513 399 393
f 400 399 513
f 400 513 514
f 513 508 509
f 513 509 514
f 402 401 515
f 402 515 516
f 403 402 516
f 403 516 517
f 518 511 396
f 518 396 404
f 518 404 403
f 518 403 517
f 518 517 510
f 518 510 511
f 519 400 514
f 519 407 400
f 520 515 401
f 520 401 408
f 408 407 519
f 408 519 520
f 410 521 409
f 410 522 521
f 523 410 411
f 523 522 410
f 521 412 409
f 521 524 412
f 525 524 521
f 525 521 522
f 526 523 411
f 526 411 414
f 525 522 523
f 525 523 526
f 528 415 416
f 528 527 415
f 524 417 412
f 524 534 417
f 535 418 417
f 535 417 534
f 526 414 419
f 526 419 536
f 419 418 535
f 419 535 536
f 538 415 527
f 538 421 415
f 538 420 421
f 538 537 420
f 539 528 416
f 539 416 422
f 541 529 540
f 541 530 529
f 541 531 530
f 541 542 531
f 543 533 532
f 543 544 533
f 546 536 535
f 546 547 536
f 548 420 537
f 548 425 420
f 547 537 536
f 547 548 537
f 549 426 425
f 549 425 548
f 550 539 422
f 550 422 427
f 552 540 551
f 552 541 540
f 553 429 430
f 553 552 429
f 553 541 552
f 553 542 541
f 554 430 431
f 554 553 430
f 555 431 432
f 555 554 431
f 555 543 554
f 555 544 543
f 433 555 432
f 433 556 555
f 555 545 544
f 555 556 545
f 434 556 433
f 434 557 556
f 558 434 435
f 558 557 434
f 560 436 437
f 560 559 436
f 559 548 547
f 559 560 548
f 549 438 426
f 549 561 438
f 561 437 438
f 561 560 437
f 560 549 548
f 560 561 549
f 550 427 439
f 550 439 562
f 563 439 440
f 563 562 439
f 563 550 562
f 563 551 550
f 564 429 552
f 564 441 429
f 564 440 441
f 564 563 440
f 564 551 563
f 564 552 551
f 567 558 435
f 567 435 443
f 567 443 442
f 567 442 566
f 567 566 557
f 567 557 558
f 568 436 559
f 568 444 436
f 445 444 568
f 445 568 569
f 570 446 445
f 570 445 569
f 572 450 449
f 572 449 571
f 574 566 442
f 574 442 453
f 574 453 452
f 574 452 573
f 574 573 565
f 574 565 566
f 570 455 446
f 570 576 455
f 576 454 455
f 576 575 454
f 571 449 457
f 571 457 578
f 572 458 450
f 572 579 458
f 579 457 458
f 579 578 457
f 579 571 578
f 579 572 571
f 581 573 452
f 581 452 460
f 575 462 454
f 575 582 462
f 463 462 582
f 463 582 583
f 582 575 576
f 582 576 583
f 587 586 577
f 587 577 578
f 588 579 580
f 588 580 589
f 590 581 460
f 590 460 468
f 590 589 580
f 590 580 581
f 583 471 463
f 583 593 471
f 472 471 593
f 472 593 594
f 595 594 584
f 595 584 585
f 595 585 586
f 595 586 596
f 475 474 596
f 475 596 597
f 597 596 586
f 597 586 587
f 476 475 597
f 476 597 598
f 598 597 587
f 598 587 588
f 590 468 477
f 590 477 600
f 599 589 590
f 599 590 600
f 601 477 478
f 601 600 477
f 480 602 479
f 480 603 602
f 603 591 602
f 603 592 591
f 604 472 594
f 604 481 472
f 606 596 474
f 606 474 483
f 608 476 598
f 608 485 476
f 485 607 484
f 485 608 607
f 608 598 599
f 608 599 609
f 487 486 609
f 487 609 610
f 609 599 600
f 609 600 610
f 601 478 488
f 601 488 611
f 610 600 601
f 610 601 611
f 602 489 479
f 602 612 489
f 612 488 489
f 612 611 488
f 612 601 611
f 612 602 601
f 613 603 480
f 613 480 490
f 491 613 490
f 491 614 613
f 492 614 491
f 492 615 614
f 616 492 493
f 616 615 492
f 617 481 604
f 617 494 481
f 618 495 494
f 618 494 617
f 617 604 605
f 617 605 618
f 619 606 483
f 619 483 496
f 619 496 495
f 619 495 618
f 619 618 605
f 619 605 606
f 607 497 484
f 607 620 497
f 498 497 620
f 498 620 621
f 620 607 608
f 620 608 621
f 622 609 486
f 622 486 499
f 621 608 609
f 621 609 622
f 623 487 610
f 623 500 487
f 625 624 611
f 625 611 612
f 616 493 504
f 616 504 627
f 627 504 503
f 627 503 626
f 627 626 615
f 627 615 616
f 628 498 621
f 628 507 498
f 629 622 499
f 629 499 508
f 629 508 507
f 629 507 628
f 628 621 622
f 628 622 629
f 623 509 500
f 623 630 509
f 631 630 623
f 631 623 624
f 633 511 510
f 633 510 632
f 626 503 512
f 626 512 634
f 512 511 633
f 512 633 634
f 635 509 630
f 635 514 509
f 635 630 631
f 635 631 636
f 637 516 515
f 637 515 636
f 632 510 517
f 632 517 638
f 638 517 516
f 638 516 637
f 635 519 514
f 635 639 519
f 640 636 515
f 640 515 520
f 520 519 639
f 520 639 640
f 641 640 639
f 641 642 640
f 525 645 524
f 525 646 645
f 526 646 525
f 526 647 646
f 648 644 643
f 648 649 644
f 650 527 528
f 650 649 527
f 652 529 530
f 652 651 529
f 531 652 530
f 531 653 652
f 533 654 532
f 533 655 654
f 645 534 524
f 645 656 534
f 535 534 656
f 535 656 657
f 656 645 646
f 656 646 657
f 658 647 526
f 658 526 536
f 537 658 536
f 537 659 658
f 658 648 647
f 658 659 648
f 660 527 649
f 660 538 527
f 538 659 537
f 538 660 659
f 659 649 648
f 659 660 649
f 650 528 539
f 650 539 661
f 660 649 650
f 660 650 661
f 651 540 529
f 651 662 540
f 663 653 531
f 663 531 542
f 664 532 654
f 664 543 532
f 665 655 533
f 665 533 544
f 545 665 544
f 545 666 665
f 657 546 535
f 657 667 546
f 668 547 546
f 668 546 667
f 661 539 550
f 661 550 669
f 662 551 540
f 662 670 551
f 551 669 550
f 551 670 669
f 669 662 661
f 669 670 662
f 672 663 542
f 672 542 553
f 673 543 664
f 673 554 543
f 673 553 554
f 673 672 553
f 675 666 545
f 675 545 556
f 676 556 557
f 676 675 556
f 677 547 668
f 677 559 547
f 679 669 670
f 679 670 680
f 680 670 671
f 680 671 681
f 682 674 675
f 682 675 683
f 684 676 557
f 684 557 566
f 684 566 565
f 684 565 683
f 683 675 676
f 683 676 684
f 685 559 677
f 685 568 559
f 569 568 685
f 569 685 686
f 685 677 678
f 685 678 686
f 687 570 569
f 687 569 686
f 691 683 565
f 691 565 573
f 687 576 570
f 687 692 576
f 694 693 688
f 694 688 689
f 696 578 577
f 696 577 695
f 580 579 697
f 580 697 698
f 699 691 573
f 699 573 581
f 699 581 580
f 699 580 698
f 699 698 690
f 699 690 691
f 692 583 576
f 692 700 583
f 701 700 692
f 701 692 693
f 702 585 584
f 702 584 701
f 703 695 577
f 703 577 586
f 703 586 585
f 703 585 702
f 704 578 696
f 704 587 578
f 697 579 588
f 697 588 705
f 588 587 704
f 588 704 705
f 704 696 697
f 704 697 705
f 706 588 589
f 706 705 588
f 592 707 591
f 592 708 707
f 709 583 700
f 709 593 583
f 710 701 584
f 710 584 594
f 594 593 709
f 594 709 710
f 709 700 701
f 709 701 710
f 595 710 594
f 595 711 710
f 712 595 596
f 712 711 595
f 713 588 705
f 713 598 588
f 714 706 589
f 714 589 599
f 599 598 713
f 599 713 714
f 713 705 706
f 713 706 714
f 716 591 707
f 716 602 591
f 602 715 601
f 602 716 715
f 717 708 592
f 717 592 603
f 717 716 707
f 717 707 708
f 718 594 710
f 718 604 594
f 605 604 718
f 605 718 719
f 718 710 711
f 718 711 719
f 720 712 596
f 720 596 606
f 720 606 605
f 720 605 719
f 719 711 712
f 719 712 720
f 715 611 601
f 715 722 611
f 611 721 610
f 611 722 721
f 612 611 722
f 612 722 723
f 723 722 715
f 723 715 716
f 717 603 613
f 717 613 724
f 723 716 717
f 723 717 724
f 725 613 614
f 725 724 613
f 726 614 615
f 726 725 614
f 721 623 610
f 721 727 623
f 722 611 624
f 722 624 728
f 624 623 727
f 624 727 728
f 728 727 721
f 728 721 722
f 723 625 612
f 723 729 625
f 625 728 624
f 625 729 728
f 730 724 725
f 730 725 731
f 726 615 626
f 726 626 732
f 731 725 726
f 731 726 732
f 733 624 728
f 733 631 624
f 734 729 730
f 734 730 735
f 736 633 632
f 736 632 735
f 736 735 730
f 736 730 731
f 732 626 634
f 732 634 737
f 737 634 633
f 737 633 736
f 737 736 731
f 737 731 732
f 739 631 733
f 739 636 631
f 636 738 635
f 636 739 738
f 740 637 636
f 740 636 739
f 741 735 632
f 741 632 638
f 741 638 637
f 741 637 740
f 738 639 635
f 738 742 639
f 743 739 636
f 743 636 640
f 743 742 738
f 743 738 739
f 742 641 639
f 742 744 641
f 743 640 642
f 743 642 745
f 642 641 744
f 642 744 745
f 744 742 743
f 744 743 745
f 748 747 746
f 748 749 747
f 751 749 748
f 751 752 749
f 752 750 749
f 752 753 750
f 758 643 644
f 758 757 643
f 759 755 754
f 759 760 755
f 761 646 647
f 761 760 646
f 761 755 760
f 761 756 755
f 762 643 757
f 762 648 643
f 762 647 648
f 762 761 647
f 762 756 761
f 762 757 756
f 763 758 644
f 763 644 649
f 765 651 652
f 765 764 651
f 766 652 653
f 766 765 652
f 768 654 655
f 768 767 654
f 769 646 760
f 769 657 646
f 770 763 649
f 770 649 660
f 661 770 660
f 661 771 770
f 764 662 651
f 764 772 662
f 662 771 661
f 662 772 771
f 773 772 764
f 773 764 765
f 766 653 663
f 766 663 774
f 773 765 766
f 773 766 774
f 767 664 654
f 767 775 664
f 768 655 665
f 768 665 776
f 776 775 767
f 776 767 768
f 777 665 666
f 777 776 665
f 769 667 657
f 769 778 667
f 779 668 667
f 779 667 778
f 781 670 669
f 781 669 780
f 671 670 781
f 671 781 782
f 774 663 672
f 774 672 783
f 783 782 773
f 783 773 774
f 775 673 664
f 775 784 673
f 673 783 672
f 673 784 783
f 783 775 774
f 783 784 775
f 786 777 666
f 786 666 675
f 786 675 674
f 786 674 785
f 786 785 776
f 786 776 777
f 779 677 668
f 779 788 677
f 787 779 778
f 787 788 779
f 789 678 677
f 789 677 788
f 780 669 679
f 780 679 790
f 791 679 680
f 791 790 679
f 792 671 782
f 792 681 671
f 792 680 681
f 792 791 680
f 792 781 791
f 792 782 781
f 794 785 674
f 794 674 682
f 793 784 785
f 793 785 794
f 795 682 683
f 795 794 682
f 797 787 796
f 797 788 787
f 798 678 789
f 798 686 678
f 797 789 788
f 797 798 789
f 687 686 798
f 687 798 799
f 801 689 688
f 801 688 800
f 795 683 691
f 795 691 805
f 805 691 690
f 805 690 804
f 806 687 799
f 806 692 687
f 807 800 688
f 807 688 693
f 693 692 806
f 693 806 807
f 806 799 800
f 806 800 807
f 801 694 689
f 801 808 694
f 694 807 693
f 694 808 807
f 696 695 809
f 696 809 810
f 697 696 810
f 697 810 811
f 811 810 802
f 811 802 803
f 812 804 690
f 812 690 698
f 812 698 697
f 812 697 811
f 813 693 807
f 813 701 693
f 702 701 813
f 702 813 814
f 809 695 703
f 809 703 815
f 703 702 814
f 703 814 815
f 816 809 815
f 816 810 809
f 724 817 723
f 724 818 817
f 817 729 723
f 817 820 729
f 729 819 728
f 729 820 819
f 818 724 730
f 818 730 821
f 821 730 729
f 821 729 820
f 821 820 817
f 821 817 818
f 819 733 728
f 819 822 733
f 820 729 734
f 820 734 823
f 824 734 735
f 824 823 734
f 825 733 822
f 825 739 733
f 740 739 825
f 740 825 826
f 824 735 741
f 824 741 827
f 827 741 740
f 827 740 826
f 827 826 823
f 827 823 824
f 829 746 747
f 829 828 746
f 828 748 746
f 828 830 748
f 831 829 747
f 831 747 749
f 750 831 749
f 750 832 831
f 830 751 748
f 830 833 751
f 834 752 751
f 834 751 833
f 832 750 753
f 832 753 835
f 753 752 834
f 753 834 835
f 834 831 832
f 834 832 835
f 839 754 755
f 839 838 754
f 839 833 838
f 839 834 833
f 840 755 756
f 840 839 755
f 840 834 839
f 840 835 834
f 841 756 757
f 841 840 756
f 840 836 835
f 840 841 836
f 842 757 758
f 842 841 757
f 844 754 838
f 844 759 754
f 844 837 843
f 844 838 837
f 845 760 759
f 845 759 844
f 842 758 763
f 842 763 847
f 846 841 842
f 846 842 847
f 851 844 843
f 851 852 844
f 845 769 760
f 845 853 769
f 852 845 844
f 852 853 845
f 847 763 770
f 847 770 854
f 771 854 770
f 771 855 854
f 856 771 772
f 856 855 771
f 856 848 855
f 856 849 848
f 773 856 772
f 773 857 856
f 856 850 849
f 856 857 850
f 775 858 774
f 775 859 858
f 860 775 776
f 860 859 775
f 853 778 769
f 853 863 778
f 863 852 862
f 863 853 852
f 865 781 780
f 865 780 864
f 866 857 773
f 866 773 782
f 858 783 774
f 858 867 783
f 783 866 782
f 783 867 866
f 860 776 785
f 860 785 869
f 869 785 784
f 869 784 868
f 868 859 860
f 868 860 869
f 871 861 870
f 871 862 861
f 863 787 778
f 863 872 787
f 875 864 780
f 875 780 790
f 876 781 865
f 876 791 781
f 876 790 791
f 876 875 790
f 875 865 864
f 875 876 865
f 868 784 793
f 868 793 878
f 879 793 794
f 879 878 793
f 795 879 794
f 795 880 879
f 881 787 872
f 881 796 787
f 882 797 796
f 882 796 881
f 881 872 873
f 881 873 882
f 883 798 797
f 883 797 882
f 882 873 874
f 882 874 883
f 799 798 883
f 799 883 884
f 885 800 799
f 885 799 884
f 886 801 800
f 886 800 885
f 888 803 802
f 888 802 887
f 888 887 877
f 888 877 878
f 889 888 878
f 889 878 879
f 880 795 805
f 880 805 890
f 890 805 804
f 890 804 889
f 890 889 879
f 890 879 880
f 886 808 801
f 886 892 808
f 892 807 808
f 892 891 807
f 891 886 885
f 891 892 886
f 893 887 802
f 893 802 810
f 894 803 888
f 894 811 803
f 894 887 893
f 894 888 887
f 895 889 804
f 895 804 812
f 895 812 811
f 895 811 894
f 895 894 888
f 895 888 889
f 891 813 807
f 891 896 813
f 814 813 896
f 814 896 897
f 898 815 814
f 898 814 897
f 893 810 816
f 893 816 899
f 816 815 898
f 816 898 899
f 901 819 820
f 901 900 819
f 900 822 819
f 900 902 822
f 901 820 823
f 901 823 903
f 902 900 901
f 902 901 903
f 904 822 902
f 904 825 822
f 903 823 826
f 903 826 905
f 905 826 825
f 905 825 904
f 905 904 902
f 905 902 903
f 829 907 828
f 829 908 907
f 912 828 907
f 912 830 828
f 911 907 906
f 911 912 907
f 913 908 829
f 913 829 831
f 913 909 908
f 913 914 909
f 914 910 909
f 914 915 910
f 918 830 912
f 918 833 830
f 917 912 911
f 917 918 912
f 919 913 831
f 919 831 834
f 835 919 834
f 835 920 919
f 919 914 913
f 919 920 914
f 836 920 835
f 836 921 920
f 921 914 920
f 921 915 914
f 922 915 921
f 922 916 915
f 925 833 918
f 925 838 833
f 925 837 838
f 925 924 837
f 925 917 924
f 925 918 917
f 927 921 836
f 927 836 841
f 927 926 920
f 927 920 921
f 933 837 924
f 933 843 837
f 933 923 932
f 933 924 923
f 927 841 846
f 927 846 935
f 934 926 927
f 934 927 935
f 936 846 847
f 936 935 846
f 937 928 936
f 937 929 928
f 938 848 849
f 938 937 848
f 850 938 849
f 850 939 938
f 938 931 930
f 938 939 931
f 933 851 843
f 933 941 851
f 942 852 851
f 942 851 941
f 945 936 847
f 945 847 854
f 946 848 937
f 946 855 848
f 946 854 855
f 946 945 854
f 946 936 945
f 946 937 936
f 947 939 850
f 947 850 857
f 947 940 939
f 947 948 940
f 949 858 859
f 949 948 858
f 942 862 852
f 942 952 862
f 952 861 862
f 952 951 861
f 951 942 941
f 951 952 942
f 953 863 862
f 953 862 952
f 954 943 944
f 954 944 955
f 947 857 866
f 947 866 956
f 957 858 948
f 957 867 858
f 867 956 866
f 867 957 956
f 949 859 868
f 949 868 958
f 957 948 949
f 957 949 958
f 960 861 951
f 960 870 861
f 960 950 959
f 960 951 950
f 952 862 871
f 952 871 961
f 961 871 870
f 961 870 960
f 953 872 863
f 953 962 872
f 961 953 952
f 961 962 953
f 963 873 872
f 963 872 962
f 874 873 963
f 874 963 964
f 963 954 955
f 963 955 964
f 966 958 868
f 966 868 878
f 966 878 877
f 966 877 965
f 966 965 957
f 966 957 958
f 967 874 964
f 967 883 874
f 884 883 967
f 884 967 968
f 969 885 884
f 969 884 968
f 970 965 877
f 970 877 887
f 971 887 888
f 971 970 887
f 969 891 885
f 969 973 891
f 972 969 968
f 972 973 969
f 971 888 894
f 971 894 975
f 975 894 893
f 975 893 974
f 975 974 970
f 975 970 971
f 976 891 973
f 976 896 891
f 897 896 976
f 897 976 977
f 978 898 897
f 978 897 977
f 974 893 899
f 974 899 979
f 979 899 898
f 979 898 978
f 981 906 907
f 981 980 906
f 908 981 907
f 908 982 981
f 909 982 908
f 909 983 982
f 984 909 910
f 984 983 909
f 980 911 906
f 980 987 911
f 988 987 980
f 988 980 981
f 989 982 983
f 989 983 990
f 984 910 915
f 984 915 991
f 990 983 984
f 990 984 991
f 992 915 916
f 992 991 915
f 994 985 993
f 994 986 985
f 995 911 987
f 995 917 911
f 995 986 994
f 995 987 986
f 998 921 920
f 998 920 997
f 992 916 922
f 992 922 999
f 922 921 998
f 922 998 999
f 998 991 992
f 998 992 999
f 1000 994 993
f 1000 1001 994
f 1002 917 995
f 1002 924 917
f 1002 923 924
f 1002 1001 923
f 1002 994 1001
f 1002 995 994
f 997 920 926
f 997 926 1004
f 1003 996 997
f 1003 997 1004
f 929 1006 928
f 929 1007 1006
f 931 1008 930
f 931 1009 1008
f 1011 923 1001
f 1011 932 923
f 1012 933 932
f 1012 932 1011
f 1013 1004 926
f 1013 926 934
f 935 1013 934
f 935 1014 1013
f 1013 1005 1004
f 1013 1014 1005
f 1015 928 1006
f 1015 936 928
f 1015 935 936
f 1015 1014 935
f 1016 1007 929
f 1016 929 937
f 1015 1006 1007
f 1015 1007 1016
f 1008 938 930
f 1008 1017 938
f 938 1016 937
f 938 1017 1016
f 1018 1009 931
f 1018 931 939
f 1018 1017 1008
f 1018 1008 1009
f 1019 939 940
f 1019 1018 939
f 1021 1010 1020
f 1021 1011 1010
f 1012 941 933
f 1012 1022 941
f 1021 1012 1011
f 1021 1022 1012
f 944 943 1023
f 944 1023 1024
f 1025 1016 1017
f 1025 1017 1026
f 1028 1019 940
f 1028 940 948
f 1028 948 947
f 1028 947 1027
f 1027 1018 1019
f 1027 1019 1028
f 1030 941 1022
f 1030 951 941
f 1030 950 951
f 1030 1029 950
f 1030 1021 1029
f 1030 1022 1021
f 1031 1023 943
f 1031 943 954
f 1032 944 1024
f 1032 955 944
f 1031 1024 1023
f 1031 1032 1024
f 1027 947 956
f 1027 956 1034
f 1033 1026 1027
f 1033 1027 1034
f 1035 956 957
f 1035 1034 956
f 1036 950 1029
f 1036 959 950
f 1037 960 959
f 1037 959 1036
f 1038 961 960
f 1038 960 1037
f 962 961 1038
f 962 1038 1039
f 1031 954 963
f 1031 963 1040
f 963 962 1039
f 963 1039 1040
f 1032 964 955
f 1032 1041 964
f 1040 1032 1031
f 1040 1041 1032
f 1043 1042 1033
f 1043 1033 1034
f 1035 957 965
f 1035 965 1044
f 1045 1038 1037
f 1045 1046 1038
f 1047 1038 1046
f 1047 1039 1038
f 1041 967 964
f 1041 1048 967
f 1049 968 967
f 1049 967 1048
f 1053 1044 965
f 1053 965 970
f 1049 972 968
f 1049 1055 972
f 1054 1049 1048
f 1054 1055 1049
f 1056 973 972
f 1056 972 1055
f 1057 1056 1050
f 1057 1050 1051
f 1057 1051 1052
f 1057 1052 1058
f 1059 1053 970
f 1059 970 974
f 1059 1058 1052
f 1059 1052 1053
f 1060 973 1056
f 1060 976 973
f 977 976 1060
f 977 1060 1061
f 1060 1056 1057
f 1060 1057 1061
f 978 977 1061
f 978 1061 1062
f 1061 1057 1058
f 1061 1058 1062
f 1059 974 979
f 1059 979 1063
f 1063 979 978
f 1063 978 1062
f 1063 1062 1058
f 1063 1058 1059
f 982 1064 981
f 982 1065 1064
f 1067 985 986
f 1067 1066 985
f 1068 986 987
f 1068 1067 986
f 1064 988 981
f 1064 1069 988
f 988 1068 987
f 988 1069 1068
f 1065 982 989
f 1065 989 1070
f 1071 989 990
f 1071 1070 989
f 1072 990 991
f 1072 1071 990
f 1073 985 1066
f 1073 993 985
f 1075 997 996
f 1075 996 1074
f 1072 991 998
f 1072 998 1076
f 1076 998 997
f 1076 997 1075
f 1073 1000 993
f 1073 1077 1000
f 1078 1001 1000
f 1078 1000 1077
f 1074 996 1003
f 1074 1003 1080
f 1081 1003 1004
f 1081 1080 1003
f 1081 1074 1080
f 1081 1075 1074
f 1005 1081 1004
f 1005 1082 1081
f 1082 1075 1081
f 1082 1076 1075
f 1084 1001 1078
f 1084 1011 1001
f 1084 1010 1011
f 1084 1083 1010
f 1084 1077 1083
f 1084 1078 1077
f 1086 1085 1079
f 1086 1079 1080
f 1088 1082 1005
f 1088 1005 1014
f 1087 1081 1082
f 1087 1082 1088
f 1015 1088 1014
f 1015 1089 1088
f 1090 1015 1016
f 1090 1089 1015
f 1092 1017 1018
f 1092 1091 1017
f 1083 1020 1010
f 1083 1094 1020
f 1095 1021 1020
f 1095 1020 1094
f 1090 1016 1025
f 1090 1025 1100
f 1100 1099 1089
f 1100 1089 1090
f 1091 1026 1017
f 1091 1101 1026
f 1101 1025 1026
f 1101 1100 1025
f 1102 1092 1018
f 1102 1018 1027
f 1102 1027 1026
f 1102 1026 1101
f 1102 1101 1091
f 1102 1091 1092
f 1104 1093 1103
f 1104 1094 1093
f 1095 1029 1021
f 1095 1105 1029
f 1104 1095 1094
f 1104 1105 1095
f 1106 1096 1097
f 1106 1097 1107
f 1109 1108 1098
f 1109 1098 1099
f 1109 1099 1100
f 1109 1100 1110
f 1111 1101 1026
f 1111 1026 1033
f 1111 1110 1100
f 1111 1100 1101
f 1035 1112 1034
f 1035 1113 1112
f 1114 1104 1103
f 1114 1115 1104
f 1105 1036 1029
f 1105 1116 1036
f 1115 1105 1104
f 1115 1116 1105
f 1117 1037 1036
f 1117 1036 1116
f 1040 1039 1118
f 1040 1118 1119
f 1120 1041 1040
f 1120 1040 1119
f 1111 1033 1042
f 1111 1042 1122
f 1121 1110 1111
f 1121 1111 1122
f 1112 1043 1034
f 1112 1123 1043
f 1123 1042 1043
f 1123 1122 1042
f 1113 1035 1044
f 1113 1044 1124
f 1124 1123 1112
f 1124 1112 1113
f 1117 1045 1037
f 1117 1125 1045
f 1126 1046 1045
f 1126 1045 1125
f 1118 1039 1047
f 1118 1047 1127
f 1047 1046 1126
f 1047 1126 1127
f 1128 1118 1127
f 1128 1119 1118
f 1120 1048 1041
f 1120 1129 1048
f 1129 1119 1128
f 1129 1120 1119
f 1051 1050 1130
f 1051 1130 1131
f 1132 1052 1051
f 1132 1051 1131
f 1132 1131 1122
f 1132 1122 1123
f 1133 1124 1044
f 1133 1044 1053
f 1133 1053 1052
f 1133 1052 1132
f 1133 1132 1123
f 1133 1123 1124
f 1135 1127 1134
f 1135 1128 1127
f 1129 1054 1048
f 1129 1136 1054
f 1137 1055 1054
f 1137 1054 1136
f 1138 1130 1050
f 1138 1050 1056
f 1056 1055 1137
f 1056 1137 1138
f 1139 1130 1138
f 1139 1131 1130
f 1141 1064 1065
f 1141 1140 1064
f 1067 1142 1066
f 1067 1143 1142
f 1068 1143 1067
f 1068 1144 1143
f 1140 1069 1064
f 1140 1145 1069
f 1069 1144 1068
f 1069 1145 1144
f 1141 1065 1070
f 1141 1070 1146
f 1146 1145 1140
f 1146 1140 1141
f 1147 1070 1071
f 1147 1146 1070
f 1072 1147 1071
f 1072 1148 1147
f 1142 1073 1066
f 1142 1149 1073
f 1150 1149 1142
f 1150 1142 1143
f 1150 1143 1144
f 1150 1144 1151
f 1153 1152 1145
f 1153 1145 1146
f 1148 1072 1076
f 1148 1076 1155
f 1149 1077 1073
f 1149 1156 1077
f 1156 1149 1150
f 1156 1150 1157
f 1158 1157 1150
f 1158 1150 1151
f 1160 1080 1079
f 1160 1079 1159
f 1162 1155 1076
f 1162 1076 1082
f 1162 1082 1081
f 1162 1081 1161
f 1162 1161 1154
f 1162 1154 1155
f 1156 1083 1077
f 1156 1164 1083
f 1165 1157 1158
f 1165 1158 1166
f 1159 1079 1085
f 1159 1085 1167
f 1160 1086 1080
f 1160 1168 1086
f 1086 1167 1085
f 1086 1168 1167
f 1168 1159 1167
f 1168 1160 1159
f 1161 1081 1087
f 1161 1087 1169
f 1169 1168 1160
f 1169 1160 1161
f 1170 1087 1088
f 1170 1169 1087
f 1171 1088 1089
f 1171 1170 1088
f 1173 1083 1164
f 1173 1094 1083
f 1173 1093 1094
f 1173 1172 1093
f 1173 1163 1172
f 1173 1164 1163
f 1097 1096 1174
f 1097 1174 1175
f 1174 1168 1169
f 1174 1169 1175
f 1175 1169 1170
f 1175 1170 1176
f 1171 1089 1099
f 1171 1099 1177
f 1177 1099 1098
f 1177 1098 1176
f 1176 1170 1171
f 1176 1171 1177
f 1179 1093 1172
f 1179 1103 1093
f 1179 1172 1173
f 1179 1173 1180
f 1181 1174 1096
f 1181 1096 1106
f 1182 1097 1175
f 1182 1107 1097
f 1107 1181 1106
f 1107 1182 1181
f 1181 1175 1174
f 1181 1182 1175
f 1183 1176 1098
f 1183 1098 1108
f 1184 1108 1109
f 1184 1183 1108
f 1183 1177 1176
f 1183 1184 1177
f 1185 1109 1110
f 1185 1184 1109
f 1184 1178 1177
f 1184 1185 1178
f 1186 1103 1179
f 1186 1114 1103
f 1115 1114 1186
f 1115 1186 1187
f 1186 1179 1180
f 1186 1180 1187
f 1188 1116 1115
f 1188 1115 1187
f 1117 1116 1188
f 1117 1188 1189
f 1185 1110 1121
f 1185 1121 1191
f 1192 1121 1122
f 1192 1191 1121
f 1193 1117 1189
f 1193 1125 1117
f 1126 1125 1193
f 1126 1193 1194
f 1195 1127 1126
f 1195 1126 1194
f 1129 1128 1196
f 1129 1196 1197
f 1199 1198 1190
f 1199 1190 1191
f 1192 1122 1131
f 1192 1131 1200
f 1199 1191 1192
f 1199 1192 1200
f 1195 1134 1127
f 1195 1201 1134
f 1196 1128 1135
f 1196 1135 1202
f 1135 1134 1201
f 1135 1201 1202
f 1197 1136 1129
f 1197 1203 1136
f 1202 1197 1196
f 1202 1203 1197
f 1204 1137 1136
f 1204 1136 1203
f 1138 1137 1204
f 1138 1204 1205
f 1200 1131 1139
f 1200 1139 1206
f 1139 1138 1205
f 1139 1205 1206
f 1205 1199 1200
f 1205 1200 1206
f 1208 1144 1145
f 1208 1207 1144
f 1147 1209 1146
f 1147 1210 1209
f 1211 1147 1148
f 1211 1210 1147
f 1207 1151 1144
f 1207 1212 1151
f 1208 1145 1152
f 1208 1152 1213
f 1212 1207 1208
f 1212 1208 1213
f 1209 1153 1146
f 1209 1214 1153
f 1153 1213 1152
f 1153 1214 1213
f 1215 1214 1209
f 1215 1209 1210
f 1216 1211 1148
f 1216 1148 1155
f 1216 1155 1154
f 1216 1154 1215
f 1216 1215 1210
f 1216 1210 1211
f 1218 1156 1157
f 1218 1217 1156
f 1219 1151 1212
f 1219 1158 1151
f 1219 1212 1213
f 1219 1213 1220
f 1221 1220 1213
f 1221 1213 1214
f 1222 1215 1154
f 1222 1154 1161
f 1222 1161 1160
f 1222 1160 1221
f 1222 1221 1214
f 1222 1214 1215
f 1217 1164 1156
f 1217 1224 1164
f 1164 1223 1163
f 1164 1224 1223
f 1218 1157 1165
f 1218 1165 1225
f 1224 1217 1218
f 1224 1218 1225
f 1219 1166 1158
f 1219 1226 1166
f 1226 1165 1166
f 1226 1225 1165
f 1227 1226 1219
f 1227 1219 1220
f 1228 1221 1160
f 1228 1160 1168
f 1228 1227 1220
f 1228 1220 1221
f 1230 1163 1223
f 1230 1172 1163
f 1173 1172 1230
f 1173 1230 1231
f 1230 1223 1224
f 1230 1224 1231
f 1233 1232 1225
f 1233 1225 1226
f 1234 1233 1226
f 1234 1226 1227
f 1235 1228 1168
f 1235 1168 1174
f 1175 1235 1174
f 1175 1236 1235
f 1235 1229 1228
f 1235 1236 1229
f 1176 1236 1175
f 1176 1237 1236
f 1238 1176 1177
f 1238 1237 1176
f 1178 1238 1177
f 1178 1239 1238
f 1240 1173 1231
f 1240 1180 1173
f 1240 1231 1232
f 1240 1232 1241
f 1243 1236 1237
f 1243 1237 1244
f 1245 1239 1178
f 1245 1178 1185
f 1246 1180 1240
f 1246 1187 1180
f 1188 1187 1246
f 1188 1246 1247
f 1247 1246 1240
f 1247 1240 1241
f 1189 1188 1247
f 1189 1247 1248
f 1247 1241 1242
f 1247 1242 1248
f 1245 1185 1191
f 1245 1191 1251
f 1251 1191 1190
f 1251 1190 1250
f 1252 1189 1248
f 1252 1193 1189
f 1194 1193 1252
f 1194 1252 1253
f 1254 1195 1194
f 1254 1194 1253
f 1250 1190 1198
f 1250 1198 1256
f 1255 1249 1250
f 1255 1250 1256
f 1257 1198 1199
f 1257 1256 1198
f 1254 1201 1195
f 1254 1259 1201
f 1258 1254 1253
f 1258 1259 1254
f 1260 1202 1201
f 1260 1201 1259
f 1261 1203 1202
f 1261 1202 1260
f 1204 1203 1261
f 1204 1261 1262
f 1263 1257 1199
f 1263 1199 1205
f 1263 1205 1204
f 1263 1204 1262
f 1264 1260 1259
f 1264 1265 1260
f 1225 1266 1224
f 1225 1267 1266
f 1228 1268 1227
f 1228 1269 1268
f 1229 1269 1228
f 1229 1270 1269
f 1266 1231 1224
f 1266 1271 1231
f 1267 1225 1232
f 1267 1232 1272
f 1232 1231 1271
f 1232 1271 1272
f 1271 1266 1267
f 1271 1267 1272
f 1233 1272 1232
f 1233 1273 1272
f 1268 1234 1227
f 1268 1274 1234
f 1234 1273 1233
f 1234 1274 1273
f 1275 1274 1268
f 1275 1268 1269
f 1276 1270 1229
f 1276 1229 1236
f 1275 1269 1270
f 1275 1270 1276
f 1238 1277 1237
f 1238 1278 1277
f 1279 1238 1239
f 1279 1278 1238
f 1280 1232 1272
f 1280 1241 1232
f 1242 1241 1280
f 1242 1280 1281
f 1280 1272 1273
f 1280 1273 1281
f 1276 1236 1243
f 1276 1243 1284
f 1283 1275 1276
f 1283 1276 1284
f 1277 1244 1237
f 1277 1285 1244
f 1244 1284 1243
f 1244 1285 1284
f 1286 1285 1277
f 1286 1277 1278
f 1279 1239 1245
f 1279 1245 1287
f 1286 1278 1279
f 1286 1279 1287
f 1288 1242 1281
f 1288 1248 1242
f 1288 1281 1282
f 1288 1282 1289
f 1291 1250 1249
f 1291 1249 1290
f 1290 1285 1286
f 1290 1286 1291
f 1292 1287 1245
f 1292 1245 1251
f 1251 1250 1291
f 1251 1291 1292
f 1292 1291 1286
f 1292 1286 1287
f 1288 1252 1248
f 1288 1293 1252
f 1253 1252 1293
f 1253 1293 1294
f 1293 1288 1289
f 1293 1289 1294
f 1290 1249 1255
f 1290 1255 1296
f 1297 1255 1256
f 1297 1296 1255
f 1257 1297 1256
f 1257 1298 1297
f 1294 1258 1253
f 1294 1299 1258
f 1300 1259 1258
f 1300 1258 1299
f 1302 1261 1260
f 1302 1260 1301
f 1302 1301 1295
f 1302 1295 1296
f 1262 1261 1302
f 1262 1302 1303
f 1302 1296 1297
f 1302 1297 1303
f 1298 1257 1263
f 1298 1263 1304
f 1304 1263 1262
f 1304 1262 1303
f 1303 1297 1298
f 1303 1298 1304
f 1300 1264 1259
f 1300 1305 1264
f 1301 1260 1265
f 1301 1265 1306
f 1306 1265 1264
f 1306 1264 1305
f 1274 1307 1273
f 1274 1308 1307
f 1309 1274 1275
f 1309 1308 1274
f 1310 1273 1307
f 1310 1281 1273
f 1282 1281 1310
f 1282 1310 1311
f 1310 1307 1308
f 1310 1308 1311
f 1309 1275 1283
f 1309 1283 1312
f 1311 1308 1309
f 1311 1309 1312
f 1313 1283 1284
f 1313 1312 1283
f 1314 1284 1285
f 1314 1313 1284
f 1315 1282 1311
f 1315 1289 1282
f 1315 1311 1312
f 1315 1312 1316
f 1316 1312 1313
f 1316 1313 1317
f 1314 1285 1290
f 1314 1290 1318
f 1317 1313 1314
f 1317 1314 1318
f 1319 1289 1315
f 1319 1294 1289
f 1319 1315 1316
f 1319 1316 1320
f 1321 1320 1316
f 1321 1316 1317
f 1322 1318 1290
f 1322 1290 1296
f 1322 1296 1295
f 1322 1295 1321
f 1319 1299 1294
f 1319 1323 1299
f 1300 1299 1323
f 1300 1323 1324
f 1323 1319 1320
f 1323 1320 1324
f 1325 1321 1295
f 1325 1295 1301
f 1325 1324 1320
f 1325 1320 1321
f 1326 1300 1324
f 1326 1305 1300
f 1325 1301 1306
f 1325 1306 1327
f 1327 1306 1305
f 1327 1305 1326
f 1326 1324 1325
f 1326 1325 1327
f 1318 1328 1317
f 1318 1329 1328
f 1330 1317 1328
f 1330 1321 1317
f 1329 1318 1322
f 1329 1322 1331
f 1322 1321 1330
f 1322 1330 1331
f 1330 1328 1329
f 1330 1329 1331
