# parsimony mesh: g6668_monomer (source /Users/eranagmon/code/v2e-flagella/workspace/studies/ecoli-3d/viz/3d/structures/g6668_monomer.pdb)
# atoms: 658  voxel: 8 Å  verts: 119  tris: 236
v 22.3671 6.0558 -20.6416
v 24.2982 6.0558 -20.6416
v 22.3671 7.3002 -20.6416
v 24.2982 7.3002 -20.6416
v 6.8659 -1.8059 -13.0209
v 11.4173 -2.2772 -13.3375
v 16.5815 -2.2304 -12.8396
v 5.4700 2.5000 -14.1199
v 11.4173 2.5000 -15.7728
v 19.4743 2.9398 -15.8841
v 24.8488 5.1598 -16.1156
v 4.1589 10.5000 -14.4087
v 11.4173 10.5000 -15.7052
v 19.0558 10.2083 -15.6466
v 24.8488 8.0625 -16.1156
v 5.1177 15.8096 -13.4060
v 11.4173 15.5973 -13.2700
v 15.7445 14.6535 -12.3644
v -17.0581 -10.2558 -4.6901
v -12.5827 -10.1751 -4.6686
v -7.5167 -9.6443 -4.2784
v -17.0581 -8.8206 -4.6901
v -12.2731 -5.8924 -5.2251
v -4.7431 -5.9312 -5.7019
v 3.8865 -3.8872 -8.1371
v 11.9664 -3.0943 -7.6282
v 16.5815 -2.2304 -9.9700
v -9.2835 2.5000 -5.0718
v -4.5827 2.5000 -7.6869
v 1.4700 2.5000 -10.7306
v 14.9992 -0.1722 -4.6366
v 19.0238 2.4925 -7.4932
v 24.4452 5.1572 -10.3497
v -8.6996 6.6546 -4.2787
v -4.5827 7.8390 -5.8261
v 1.1266 10.6784 -8.5862
v 21.2720 11.0117 -7.2974
v 23.9600 11.0117 -7.2974
v 5.0876 15.9311 -8.1156
v 11.4173 17.0251 -8.1156
v 18.8137 15.4053 -7.3932
v 23.4749 14.5502 -4.2450
v -17.4479 -18.3186 2.8995
v -15.1697 -18.3186 2.8995
v -17.7282 -13.1535 0.0935
v -12.5349 -14.0055 0.0935
v -4.7431 -10.3973 0.2951
v -0.1959 -9.5755 3.2355
v -17.3657 -7.9778 -0.1156
v -14.4990 -3.9778 -0.1156
v -2.1834 -8.8852 -2.0978
v 2.8494 -7.6578 0.2951
v 9.4826 -3.6583 -0.1156
v -10.1859 2.2610 -0.7754
v -4.5827 4.9220 1.8145
v 3.4173 4.6828 2.4579
v 11.4608 2.1386 -0.7265
v 16.1328 5.1611 -3.7623
v -8.6996 6.6546 -3.8819
v -4.5827 7.8390 -2.1855
v 3.7333 10.6784 -1.8181
v 11.8664 10.8171 0.1901
v 18.7433 11.3011 -1.2330
v 23.4749 14.2404 -4.0370
v 6.6106 15.0986 -3.7177
v 11.8664 15.9991 -0.6768
v 18.9792 15.6701 -0.8684
v 23.4749 14.5502 -4.0370
v -24.8738 -17.7944 11.4635
v -20.3018 -18.6405 8.4319
v -12.5349 -18.5231 8.4931
v -8.4652 -17.5986 11.5656
v -25.2203 -13.5000 10.9749
v -21.6580 -13.5000 6.9749
v -9.8363 -16.1091 6.2322
v -5.3122 -13.5172 8.4931
v -0.2846 -9.5648 7.8844
v -25.0024 -5.5000 11.2900
v -20.1238 -5.4900 7.1097
v -15.6537 -2.8166 4.7190
v 3.2252 -5.4542 7.3989
v 7.9225 -2.7569 4.4085
v -24.5832 -1.4996 11.8837
v -20.5827 -0.8912 10.5099
v -12.8253 0.2177 7.5852
v -4.5827 2.5792 7.8844
v 2.9867 0.9020 7.3989
v 7.9225 -0.8839 4.4085
v 14.8324 13.6952 4.3076
v 16.0205 13.6952 4.3076
v 14.8324 15.0948 4.3076
v 16.0205 15.0948 4.3076
v -24.8738 -17.7944 12.2699
v -20.5827 -18.3118 13.0255
v -12.5827 -18.1649 12.8781
v -8.4652 -17.5986 12.0732
v -25.2203 -13.5000 13.5634
v -20.5764 -13.0129 17.1092
v -12.7933 -13.0129 16.7017
v -5.3122 -12.7065 12.8269
v -0.5720 -9.5109 11.8957
v -25.0024 -5.5000 13.2754
v -22.4045 -5.5000 17.2754
v -10.2670 -7.7396 18.5884
v -5.1947 -5.2438 16.2553
v -0.1130 -5.5000 12.3200
v -24.5832 -1.4996 11.8858
v -20.4463 -0.3710 15.0853
v -12.5827 1.0797 15.8844
v -5.1947 0.0908 15.4261
v 0.0329 -0.4070 12.4539
v -17.9056 -10.0215 20.1854
v -15.6004 -10.0215 20.1854
v -18.4045 -5.5000 20.5838
v -12.7933 -5.2438 20.6581
v -8.2694 -2.4063 20.2414
v -17.6888 -0.4302 20.5160
v -12.5827 -0.3663 20.6258
v -8.2694 -1.0582 20.2414
f 3 2 1
f 3 4 2
f 9 5 8
f 9 6 5
f 9 7 6
f 9 10 7
f 11 1 2
f 11 10 1
f 13 8 12
f 13 9 8
f 10 3 1
f 10 14 3
f 14 9 13
f 14 10 9
f 15 11 2
f 15 2 4
f 15 4 3
f 15 3 14
f 16 13 12
f 16 17 13
f 18 13 17
f 18 14 13
f 22 20 19
f 22 23 20
f 23 21 20
f 23 24 21
f 26 5 6
f 26 25 5
f 27 6 7
f 27 26 6
f 28 24 23
f 28 29 24
f 30 5 25
f 30 8 5
f 29 25 24
f 29 30 25
f 32 27 7
f 32 7 10
f 31 26 27
f 31 27 32
f 33 10 11
f 33 32 10
f 34 29 28
f 34 35 29
f 30 12 8
f 30 36 12
f 35 30 29
f 35 36 30
f 33 11 15
f 33 15 38
f 38 15 14
f 38 14 37
f 37 32 33
f 37 33 38
f 36 16 12
f 36 39 16
f 17 16 39
f 17 39 40
f 37 14 18
f 37 18 41
f 18 17 40
f 18 40 41
f 42 37 41
f 42 38 37
f 46 19 20
f 46 45 19
f 45 44 43
f 45 46 44
f 21 46 20
f 21 47 46
f 49 19 45
f 49 22 19
f 50 23 22
f 50 22 49
f 51 47 21
f 51 21 24
f 52 24 25
f 52 51 24
f 51 48 47
f 51 52 48
f 53 25 26
f 53 52 25
f 54 23 50
f 54 28 23
f 53 26 31
f 53 31 57
f 58 31 32
f 58 57 31
f 59 28 54
f 59 34 28
f 35 34 59
f 35 59 60
f 59 54 55
f 59 55 60
f 36 35 60
f 36 60 61
f 60 55 56
f 60 56 61
f 62 61 56
f 62 56 57
f 58 32 37
f 58 37 63
f 62 57 58
f 62 58 63
f 64 37 38
f 64 63 37
f 61 39 36
f 61 65 39
f 40 39 65
f 40 65 66
f 65 61 62
f 65 62 66
f 41 40 66
f 41 66 67
f 64 38 42
f 64 42 68
f 42 41 67
f 42 67 68
f 67 63 64
f 67 64 68
f 71 43 44
f 71 70 43
f 74 43 70
f 74 45 43
f 74 69 73
f 74 70 69
f 75 71 44
f 75 44 46
f 47 75 46
f 47 76 75
f 75 72 71
f 75 76 72
f 48 76 47
f 48 77 76
f 74 49 45
f 74 79 49
f 78 74 73
f 78 79 74
f 80 50 49
f 80 49 79
f 81 77 48
f 81 48 52
f 82 52 53
f 82 81 52
f 84 78 83
f 84 79 78
f 85 50 80
f 85 54 50
f 84 80 79
f 84 85 80
f 86 55 54
f 86 54 85
f 56 55 86
f 56 86 87
f 88 82 53
f 88 53 57
f 88 57 56
f 88 56 87
f 87 81 82
f 87 82 88
f 90 62 63
f 90 89 62
f 89 66 62
f 89 91 66
f 90 63 67
f 90 67 92
f 92 67 66
f 92 66 91
f 91 89 90
f 91 90 92
f 94 69 70
f 94 93 69
f 95 70 71
f 95 94 70
f 72 95 71
f 72 96 95
f 93 73 69
f 93 97 73
f 97 93 94
f 97 94 98
f 99 98 94
f 99 94 95
f 100 96 72
f 100 72 76
f 99 95 96
f 99 96 100
f 101 76 77
f 101 100 76
f 97 78 73
f 97 102 78
f 103 102 97
f 103 97 98
f 104 99 100
f 104 100 105
f 106 101 77
f 106 77 81
f 105 100 101
f 105 101 106
f 107 78 102
f 107 83 78
f 84 83 107
f 84 107 108
f 107 102 103
f 107 103 108
f 109 85 84
f 109 84 108
f 110 86 85
f 110 85 109
f 111 106 81
f 111 81 87
f 111 87 86
f 111 86 110
f 111 110 105
f 111 105 106
f 113 98 99
f 113 112 98
f 112 103 98
f 112 114 103
f 113 99 104
f 113 104 115
f 114 112 113
f 114 113 115
f 116 104 105
f 116 115 104
f 117 103 114
f 117 108 103
f 109 108 117
f 109 117 118
f 117 114 115
f 117 115 118
f 116 105 110
f 116 110 119
f 119 110 109
f 119 109 118
f 118 115 116
f 118 116 119
