# parsimony mesh: g6763_monomer (source /Users/eranagmon/code/v2e-cplx/workspace/studies/ecoli-3d/viz/3d/structures/g6763_monomer.pdb)
# atoms: 2719  voxel: 16 Å  verts: 79  tris: 152
v 14.2816 67.5213 -42.6626
v 15.2598 67.5213 -42.6626
v 14.2816 68.4082 -42.6626
v 15.2598 68.4082 -42.6626
v 14.7324 51.7266 -26.4039
v 15.0726 51.7266 -26.4039
v 14.3344 61.2537 -32.7584
v 15.3452 61.2537 -32.7584
v 14.3412 68.3712 -34.2901
v 15.3495 68.3712 -34.2901
v -17.2970 -28.3681 -10.5654
v -9.0550 -28.5425 -11.3197
v -0.4113 -28.4537 -11.3876
v -18.4399 -20.1477 -12.0385
v -9.0550 -20.1477 -14.9710
v 2.1518 -20.1477 -13.2226
v -18.6859 -4.1477 -12.6138
v -9.0550 -4.1477 -16.9655
v 4.5371 -4.1477 -14.6418
v -17.6249 4.4658 -11.3325
v -7.5319 10.6204 -12.7736
v 1.9366 11.8523 -12.6127
v -1.5539 27.8523 -10.8263
v 0.3202 27.8523 -10.8263
v -1.5921 36.8812 -10.8980
v 7.6732 44.3039 -18.4842
v 15.0726 51.7266 -26.0705
v 14.6792 59.8523 -26.0190
v 15.2091 59.8523 -26.0190
v 14.8032 67.9883 -26.1483
v 15.1696 67.9883 -26.1483
v -18.5814 -29.4858 -2.2901
v -9.0550 -30.8841 -2.2901
v 5.7312 -30.7823 -1.9187
v 16.3378 -30.6744 3.6622
v -21.2812 -20.1477 -2.2901
v 10.1518 -20.1477 -5.8661
v 17.4321 -20.1477 2.1339
v -20.8136 -4.1477 -2.2901
v 12.5371 -4.1477 -6.8754
v 17.4374 -4.1477 1.1246
v -18.1138 5.5081 -2.2901
v -10.6940 13.5081 -2.2901
v 8.8137 11.1237 -2.7262
v 16.3448 5.3046 2.3164
v -2.6884 27.3216 -3.3228
v 1.1205 27.3216 -3.3228
v -1.5921 36.8812 -9.3446
v 0.6139 36.8812 -9.3446
v -18.8482 -29.7115 10.1520
v -9.0591 -30.2597 14.7752
v 7.0555 -30.8375 14.7531
v 16.3378 -30.6744 10.1152
v -19.6400 -20.4602 14.7752
v -14.3951 -26.0020 20.8187
v 12.4626 -27.3223 20.7819
v 18.1036 -21.2524 14.7531
v -19.7682 -4.1477 13.7099
v 12.4519 1.2678 18.6030
v 18.1078 -4.0984 13.4458
v -17.8819 5.2648 13.7099
v -8.6893 12.7674 13.3697
v 6.5946 11.0660 13.2063
v 16.3448 5.3046 7.9363
v -3.1121 21.6345 7.8096
v 0.7373 21.6345 7.8096
v -3.7284 -28.5457 22.0165
v 1.7959 -28.5457 22.0165
v -17.5749 -15.3353 22.3548
v -9.0591 -20.4602 23.5230
v 7.0555 -21.2524 24.2580
v 16.8931 -16.6556 23.5799
v -17.6405 -4.1477 22.4737
v -9.0550 -4.1477 25.2013
v 7.0491 -4.0984 25.0140
v 16.8931 -9.3988 23.5799
v -17.3157 4.1414 22.0833
v -9.0550 5.8005 23.1649
v 1.7852 6.1608 23.2765
f 3 2 1
f 3 4 2
f 2 7 1
f 2 8 7
f 8 5 7
f 8 6 5
f 9 1 7
f 9 3 1
f 10 8 2
f 10 2 4
f 4 3 9
f 4 9 10
f 15 11 14
f 15 12 11
f 15 13 12
f 15 16 13
f 17 15 14
f 17 18 15
f 18 16 15
f 18 19 16
f 20 18 17
f 20 21 18
f 21 19 18
f 21 22 19
f 23 22 21
f 23 24 22
f 25 24 23
f 25 26 24
f 27 5 6
f 27 26 5
f 28 5 26
f 28 7 5
f 29 27 6
f 29 6 8
f 28 26 27
f 28 27 29
f 30 7 28
f 30 9 7
f 31 29 8
f 31 8 10
f 10 9 30
f 10 30 31
f 30 28 29
f 30 29 31
f 33 11 12
f 33 32 11
f 13 33 12
f 13 34 33
f 36 11 32
f 36 14 11
f 37 34 13
f 37 13 16
f 37 35 34
f 37 38 35
f 39 14 36
f 39 17 14
f 37 16 19
f 37 19 40
f 41 37 40
f 41 38 37
f 39 20 17
f 39 42 20
f 43 21 20
f 43 20 42
f 44 40 19
f 44 19 22
f 45 40 44
f 45 41 40
f 43 23 21
f 43 46 23
f 47 44 22
f 47 22 24
f 48 23 46
f 48 25 23
f 49 47 24
f 49 24 26
f 49 26 25
f 49 25 48
f 48 46 47
f 48 47 49
f 33 50 32
f 33 51 50
f 34 51 33
f 34 52 51
f 35 52 34
f 35 53 52
f 50 36 32
f 50 54 36
f 55 54 50
f 55 50 51
f 53 35 38
f 53 38 57
f 56 52 53
f 56 53 57
f 58 36 54
f 58 39 36
f 60 57 38
f 60 38 41
f 58 42 39
f 58 61 42
f 43 42 61
f 43 61 62
f 64 60 41
f 64 41 45
f 64 45 44
f 64 44 63
f 64 63 59
f 64 59 60
f 65 43 62
f 65 46 43
f 66 63 44
f 66 44 47
f 66 47 46
f 66 46 65
f 66 65 62
f 66 62 63
f 68 51 52
f 68 67 51
f 67 55 51
f 67 70 55
f 55 69 54
f 55 70 69
f 68 52 56
f 68 56 71
f 71 70 67
f 71 67 68
f 72 56 57
f 72 71 56
f 69 58 54
f 69 73 58
f 74 73 69
f 74 69 70
f 75 74 70
f 75 70 71
f 76 72 57
f 76 57 60
f 76 60 59
f 76 59 75
f 76 75 71
f 76 71 72
f 77 58 73
f 77 61 58
f 78 62 61
f 78 61 77
f 77 73 74
f 77 74 78
f 79 75 59
f 79 59 63
f 79 63 62
f 79 62 78
f 79 78 74
f 79 74 75
