# parsimony mesh: g6823_monomer (source /Users/eranagmon/code/v2e-3d/out/ecoli3d/structures/g6823_monomer.pdb)
# atoms: 458  voxel: 16 Å  verts: 24  tris: 40
v 1.8020 -3.2540 -20.0542
v 6.3376 -3.2540 -20.0542
v 1.8020 0.9698 -20.0542
v 6.3376 0.9698 -20.0542
v -13.4132 -3.7087 -3.6609
v -3.5739 -4.4135 -9.1215
v 11.9475 -4.2940 -8.9775
v 21.9957 -3.5095 -3.4209
v -13.4132 0.8428 -3.6609
v -3.5739 2.3540 -9.1215
v 11.9475 2.1800 -8.9775
v 21.9957 0.5529 -3.4209
v -14.4440 -4.6267 6.6876
v -3.0835 -4.5491 6.7075
v 12.3623 -3.6917 2.4513
v 21.9957 -3.5095 1.0060
v -14.4440 2.5606 6.6876
v -3.0835 2.7031 6.7075
v 12.3623 1.2329 2.4513
v 21.9957 0.5529 1.0060
v -13.6040 -3.4799 16.0181
v -8.0473 -3.4799 16.0181
v -13.6040 1.5516 16.0181
v -8.0473 1.5516 16.0181
f 3 2 1
f 3 4 2
f 2 6 1
f 2 7 6
f 6 3 1
f 6 10 3
f 9 6 5
f 9 10 6
f 7 2 4
f 7 4 11
f 4 3 10
f 4 10 11
f 12 7 11
f 12 8 7
f 14 5 6
f 14 13 5
f 15 6 7
f 15 14 6
f 8 15 7
f 8 16 15
f 13 9 5
f 13 17 9
f 18 10 9
f 18 9 17
f 19 11 10
f 19 10 18
f 19 18 14
f 19 14 15
f 12 11 19
f 12 19 20
f 20 19 15
f 20 15 16
f 22 13 14
f 22 21 13
f 21 17 13
f 21 23 17
f 24 22 14
f 24 14 18
f 24 18 17
f 24 17 23
