# parsimony mesh: g6833_monomer (source /Users/eranagmon/code/v2e-cplx/workspace/studies/ecoli-3d/viz/3d/structures/g6833_monomer.pdb)
# atoms: 853  voxel: 8 Å  verts: 175  tris: 368
v -14.6473 -7.9896 -22.2720
v -12.1973 -7.9896 -22.2720
v -14.6473 -6.6058 -22.2720
v -12.1973 -6.6058 -22.2720
v -5.7201 -15.6822 -14.7846
v -4.5861 -15.6822 -14.7846
v -14.9129 -7.9914 -17.6917
v -8.9587 -10.4608 -17.5001
v -4.3711 -11.3997 -15.4043
v 25.9841 -7.8499 -13.9382
v 28.2979 -7.8499 -13.9382
v -22.7789 -0.9454 -14.7914
v -17.0498 -3.9742 -16.4487
v -9.4879 -5.7848 -17.6061
v -4.8579 -6.2468 -14.8823
v 25.9841 -7.1596 -13.9382
v 28.2979 -7.1596 -13.9382
v -23.7328 4.6003 -14.9340
v -17.3089 4.9693 -14.7824
v -12.9437 7.8820 -13.8532
v -23.1474 9.7296 -14.2484
v -17.4237 9.6869 -14.2304
v -12.9437 8.9198 -13.8532
v 49.3178 15.1078 -14.3446
v 51.9188 15.1078 -14.3446
v 48.6775 20.6003 -15.2892
v 53.0501 20.6003 -15.2892
v 49.3031 26.7078 -15.1688
v 52.5322 26.7078 -15.1688
v -5.7201 -15.6822 -13.3733
v -4.5861 -15.6822 -13.3733
v 25.9230 -15.7130 -6.2566
v 27.3128 -15.7130 -6.2566
v -14.1857 -7.5987 -13.2317
v -8.8015 -10.7191 -12.5200
v -1.7064 -9.8404 -9.7538
v 6.5763 -8.3075 -6.6462
v 14.5763 -9.0342 -7.4917
v 23.2869 -10.9568 -9.3567
v 30.4720 -11.0114 -9.8157
v 38.5763 -8.7579 -8.1689
v 42.9419 -7.7706 -6.6448
v -22.7789 -0.9454 -12.5592
v -15.9791 -2.4732 -10.7231
v -9.4237 -3.1996 -9.6830
v -2.3311 -4.2663 -8.3766
v 7.0075 -3.4845 -6.5841
v 14.0397 -3.1104 -7.2605
v 23.0210 -5.7818 -9.7508
v 30.8092 -6.2019 -10.3016
v 38.8350 -3.5305 -8.7764
v 43.8982 -3.3997 -7.7853
v -23.6427 4.7829 -9.8122
v -15.7798 4.3051 -8.3592
v -11.0746 6.1541 -8.6430
v -4.1428 4.6003 -6.7431
v 9.9617 0.7482 -5.9064
v 11.0153 0.7482 -5.9064
v 41.6742 2.1584 -7.5300
v 47.0364 5.1853 -6.8491
v 50.6800 8.2122 -6.1682
v -23.1810 10.2645 -9.6917
v -16.7221 10.1234 -9.1607
v -10.2916 8.8763 -8.8211
v -5.1576 8.8327 -6.1690
v 49.7087 12.0355 -9.2909
v 51.2994 12.0355 -9.2909
v 48.6775 20.6003 -12.0852
v 53.0501 20.6003 -12.0852
v 49.3031 26.7078 -12.8278
v 52.5322 26.7078 -12.8278
v 25.9230 -15.7130 -4.8907
v 27.3128 -15.7130 -4.8907
v -14.0816 -7.8276 1.3558
v -9.4237 -8.3027 0.7394
v -1.0616 -8.5252 -1.5753
v 6.7193 -8.5688 -1.5125
v 14.5763 -9.0342 -3.4850
v 22.9843 -11.3981 -4.1835
v 30.2182 -11.4637 -3.9026
v 38.5763 -8.7579 -2.5744
v 42.9419 -7.7706 -3.3140
v -15.6298 -2.8513 -1.4632
v -9.4237 -4.4227 -3.2606
v -1.0677 -3.2760 -4.5043
v 7.5310 -2.3174 -1.3693
v 14.0397 -3.1104 -2.5626
v 22.5763 -5.5573 -4.4073
v 30.5763 -6.0825 -4.0560
v 38.8350 -3.5305 -2.5443
v 43.8982 -3.3997 -3.0915
v -22.0432 7.5712 -3.2135
v -16.9755 6.0376 -2.1554
v -10.5089 7.5504 -2.0606
v -1.9031 4.1909 -2.4462
v 7.5708 1.0789 -1.4649
v 11.0153 0.7482 -3.4188
v 41.6742 2.1584 -4.6025
v 47.0364 5.1853 -5.0684
v 50.6800 8.2122 -5.5343
v -22.0432 9.6899 -3.2135
v -16.6500 9.1590 -0.9767
v -10.5089 8.7304 -2.0606
v -5.1576 8.8327 -5.3815
v 50.0996 8.9633 -5.5343
v 50.6800 8.9633 -5.5343
v -22.6679 -8.5121 9.3747
v -17.0185 -8.9976 6.5481
v -9.4237 -9.2952 6.3083
v -1.4237 -8.8650 6.3083
v 3.9007 -8.1325 6.3083
v -29.7186 -0.1182 10.0416
v -25.3702 -3.0308 8.0330
v -19.8595 -3.3997 3.6642
v 0.2764 -1.7560 8.4487
v 5.1981 -4.0135 5.9925
v -29.7186 1.3565 10.0416
v -24.8299 4.2540 7.3838
v -20.0824 4.6003 2.8527
v -9.0002 5.6253 6.3083
v -2.0037 1.9059 5.9925
v 5.1800 1.4097 3.1154
v -21.7673 8.7452 8.2926
v -17.1968 8.9591 5.8989
v -13.0002 8.9400 6.3083
v -37.5147 -7.5187 18.2112
v -33.4237 -8.6564 17.5319
v -25.3702 -9.8693 14.5455
v -17.4237 -10.6545 14.3083
v -9.8748 -8.5883 13.6586
v -1.4237 -7.7293 10.6317
v 2.7704 -7.6387 10.4890
v -37.6779 -3.3997 18.0643
v -32.8007 -3.0308 14.3503
v -28.0012 -5.4516 12.0369
v -14.4777 -1.0227 17.1983
v -9.8748 -3.5735 14.8221
v -2.0037 -4.0135 10.7965
v 2.7704 -7.0894 10.4890
v -37.6717 1.3673 18.0801
v -32.2876 4.0286 15.4905
v -25.4883 7.3956 14.6864
v -17.2561 5.1010 15.2942
v -9.9122 3.9972 11.8254
v -5.0570 0.9284 10.6907
v -29.5233 8.6223 18.2341
v -25.4883 8.6838 14.6864
v -17.4237 9.0279 11.3732
v -12.9045 9.0255 10.8978
v -37.7564 -7.9077 22.3083
v -33.4237 -10.2368 22.3083
v -25.4237 -10.8912 22.3083
v -18.1669 -8.7242 21.8522
v -12.8421 -8.0574 18.8814
v -37.8386 -3.4635 22.0475
v -35.4023 -0.8394 24.5403
v -23.6752 -1.8705 25.1977
v -17.9033 -4.1133 22.0396
v -12.8421 -6.3561 18.8814
v -37.6717 1.3673 19.2069
v -32.4628 3.9393 21.4784
v -26.4422 4.6397 21.8071
v -19.8111 2.7681 19.8644
v -29.5233 8.6223 18.4165
v -29.2092 8.6223 18.4165
v -37.7763 -7.9581 26.6797
v -33.4237 -8.9801 27.2744
v -25.4237 -8.6386 27.0652
v -21.3289 -7.5027 26.4008
v -37.7763 -6.1727 26.6797
v -33.0109 -3.4635 27.1981
v -25.9746 -4.0822 27.0307
v -21.3289 -7.2038 26.4008
v -30.0689 1.1779 26.5032
v -29.0086 1.1779 26.5032
f 3 2 1
f 3 4 2
f 2 7 1
f 2 8 7
f 9 5 8
f 9 6 5
f 7 3 1
f 7 13 3
f 14 8 2
f 14 2 4
f 14 4 3
f 14 3 13
f 15 8 14
f 15 9 8
f 16 11 10
f 16 17 11
f 19 12 18
f 19 13 12
f 21 19 18
f 21 22 19
f 22 20 19
f 22 23 20
f 26 25 24
f 26 27 25
f 28 27 26
f 28 29 27
f 6 30 5
f 6 31 30
f 35 5 30
f 35 8 5
f 8 34 7
f 8 35 34
f 31 6 9
f 31 9 36
f 35 30 31
f 35 31 36
f 40 10 11
f 40 39 10
f 39 33 32
f 39 40 33
f 34 13 7
f 34 44 13
f 13 43 12
f 13 44 43
f 14 13 44
f 14 44 45
f 45 44 34
f 45 34 35
f 36 9 15
f 36 15 46
f 15 14 45
f 15 45 46
f 46 45 35
f 46 35 36
f 46 37 36
f 46 47 37
f 48 37 47
f 48 38 37
f 49 10 39
f 49 16 10
f 49 38 48
f 49 39 38
f 50 40 11
f 50 11 17
f 50 17 16
f 50 16 49
f 50 41 40
f 50 51 41
f 51 42 41
f 51 52 42
f 43 18 12
f 43 53 18
f 44 13 19
f 44 19 54
f 54 53 43
f 54 43 44
f 20 54 19
f 20 55 54
f 54 45 44
f 54 55 45
f 56 45 55
f 56 46 45
f 57 48 47
f 57 58 48
f 59 52 51
f 59 60 52
f 53 21 18
f 53 62 21
f 22 21 62
f 22 62 63
f 64 55 20
f 64 20 23
f 23 22 63
f 23 63 64
f 63 54 55
f 63 55 64
f 65 55 64
f 65 56 55
f 67 24 25
f 67 66 24
f 66 61 60
f 66 67 61
f 68 24 66
f 68 26 24
f 69 67 25
f 69 25 27
f 68 66 67
f 68 67 69
f 70 26 68
f 70 28 26
f 71 69 27
f 71 27 29
f 29 28 70
f 29 70 71
f 70 68 69
f 70 69 71
f 33 72 32
f 33 73 72
f 37 76 36
f 37 77 76
f 78 37 38
f 78 77 37
f 79 32 72
f 79 39 32
f 79 38 39
f 79 78 38
f 80 73 33
f 80 33 40
f 80 79 72
f 80 72 73
f 41 80 40
f 41 81 80
f 42 81 41
f 42 82 81
f 84 44 45
f 84 83 44
f 84 74 83
f 84 75 74
f 76 46 36
f 76 85 46
f 46 84 45
f 46 85 84
f 84 76 75
f 84 85 76
f 47 46 85
f 47 85 86
f 87 86 77
f 87 77 78
f 88 49 48
f 88 48 87
f 88 87 78
f 88 78 79
f 89 50 49
f 89 49 88
f 89 88 79
f 89 79 80
f 51 50 89
f 51 89 90
f 89 80 81
f 89 81 90
f 91 82 42
f 91 42 52
f 90 81 82
f 90 82 91
f 83 54 44
f 83 93 54
f 54 92 53
f 54 93 92
f 55 54 93
f 55 93 94
f 85 46 56
f 85 56 95
f 86 57 47
f 86 96 57
f 96 85 95
f 96 86 85
f 87 48 58
f 87 58 97
f 97 58 57
f 97 57 96
f 97 96 86
f 97 86 87
f 98 51 90
f 98 59 51
f 99 91 52
f 99 52 60
f 60 59 98
f 60 98 99
f 98 90 91
f 98 91 99
f 61 99 60
f 61 100 99
f 92 62 53
f 92 101 62
f 93 54 63
f 93 63 102
f 63 62 101
f 63 101 102
f 102 101 92
f 102 92 93
f 94 64 55
f 94 103 64
f 102 94 93
f 102 103 94
f 104 95 56
f 104 56 65
f 104 65 64
f 104 64 103
f 104 103 94
f 104 94 95
f 105 60 99
f 105 66 60
f 106 100 61
f 106 61 67
f 106 67 66
f 106 66 105
f 105 99 100
f 105 100 106
f 109 74 75
f 109 108 74
f 110 75 76
f 110 109 75
f 111 76 77
f 111 110 76
f 114 74 108
f 114 83 74
f 114 107 113
f 114 108 107
f 116 111 77
f 116 77 86
f 117 113 112
f 117 118 113
f 119 83 114
f 119 93 83
f 118 114 113
f 118 119 114
f 95 94 120
f 95 120 121
f 122 116 86
f 122 86 96
f 122 96 95
f 122 95 121
f 122 121 115
f 122 115 116
f 119 102 93
f 119 124 102
f 123 119 118
f 123 124 119
f 125 120 94
f 125 94 103
f 125 103 102
f 125 102 124
f 129 107 108
f 129 128 107
f 130 108 109
f 130 129 108
f 131 109 110
f 131 130 109
f 132 110 111
f 132 131 110
f 133 127 126
f 133 134 127
f 135 107 128
f 135 113 107
f 135 112 113
f 135 134 112
f 135 127 134
f 135 128 127
f 138 137 130
f 138 130 131
f 139 132 111
f 139 111 116
f 139 116 115
f 139 115 138
f 139 138 131
f 139 131 132
f 134 117 112
f 134 141 117
f 140 134 133
f 140 141 134
f 142 118 117
f 142 117 141
f 144 143 136
f 144 136 137
f 145 138 115
f 145 115 121
f 145 121 120
f 145 120 144
f 145 144 137
f 145 137 138
f 142 123 118
f 142 147 123
f 146 142 141
f 146 147 142
f 148 124 123
f 148 123 147
f 148 147 142
f 148 142 143
f 149 144 120
f 149 120 125
f 149 125 124
f 149 124 148
f 149 148 143
f 149 143 144
f 151 126 127
f 151 150 126
f 152 127 128
f 152 151 127
f 153 128 129
f 153 152 128
f 154 129 130
f 154 153 129
f 155 126 150
f 155 133 126
f 159 154 130
f 159 130 137
f 159 137 136
f 159 136 158
f 159 158 153
f 159 153 154
f 160 133 155
f 160 140 133
f 161 141 140
f 161 140 160
f 160 155 156
f 160 156 161
f 163 158 136
f 163 136 143
f 163 143 142
f 163 142 162
f 163 162 157
f 163 157 158
f 164 141 161
f 164 146 141
f 165 162 142
f 165 142 147
f 165 147 146
f 165 146 164
f 164 161 162
f 164 162 165
f 151 166 150
f 151 167 166
f 168 151 152
f 168 167 151
f 169 152 153
f 169 168 152
f 170 150 166
f 170 155 150
f 156 155 170
f 156 170 171
f 170 166 167
f 170 167 171
f 172 171 167
f 172 167 168
f 173 169 153
f 173 153 158
f 173 158 157
f 173 157 172
f 173 172 168
f 173 168 169
f 174 156 171
f 174 161 156
f 175 172 157
f 175 157 162
f 175 162 161
f 175 161 174
f 175 174 171
f 175 171 172
