# parsimony mesh: g6841_monomer (source /Users/eranagmon/code/v2e-abund/workspace/studies/ecoli-3d/viz/3d/structures/g6841_monomer.pdb)
# atoms: 904  voxel: 4 Å  verts: 685  tris: 1392
v 2.6442 -46.5994 -32.6377
v 4.6820 -46.8114 -32.8054
v 8.6820 -46.8874 -33.0474
v 10.9206 -46.7007 -32.9605
v 2.3903 -44.4069 -32.8392
v 4.6820 -44.4069 -33.2079
v 8.5217 -44.5285 -33.1150
v 10.9206 -45.9429 -32.9605
v 2.3309 -42.0555 -32.8875
v 4.8912 -40.5961 -33.0492
v 7.1837 -40.4069 -32.9505
v 6.3640 -38.1623 -32.8056
v 6.9515 -38.1623 -32.8056
v 6.4325 -58.6238 -28.7227
v 6.8200 -58.6238 -28.7227
v 6.4325 -58.0395 -28.7227
v 6.8200 -58.0395 -28.7227
v 2.2116 -51.3349 -29.5770
v 3.9293 -51.3349 -29.5770
v 1.9713 -48.1224 -30.7900
v 5.0304 -49.0805 -30.7900
v 8.6820 -47.9479 -30.6094
v 10.9539 -46.7502 -30.6094
v 1.5106 -44.4069 -30.6094
v 9.3827 -43.9075 -30.6094
v 10.9539 -45.9075 -30.6094
v 2.0308 -40.5961 -30.4034
v 3.6973 -39.3888 -31.5994
v 8.3545 -40.4069 -30.6094
v 2.4368 -36.4069 -28.9260
v 4.8912 -36.6601 -30.5235
v 7.5404 -36.6601 -30.2702
v 2.5928 -34.2485 -28.7082
v 4.6820 -34.1595 -28.7594
v 8.7366 -32.3310 -28.6642
v 10.6942 -30.4265 -28.6177
v 10.6564 -30.3867 -28.6177
v 10.6942 -30.3867 -28.6177
v 6.4325 -58.6238 -27.5823
v 6.8200 -58.6238 -27.5823
v -1.6214 -54.6217 -24.8024
v 0.6820 -55.1335 -25.4696
v 5.0955 -56.6002 -26.5728
v 6.8200 -58.0395 -27.5823
v -1.6214 -53.6850 -24.8024
v 0.6401 -52.5100 -26.5162
v 5.1772 -52.4947 -26.9170
v 8.6820 -50.8445 -25.3586
v 10.6851 -50.4094 -24.6138
v -1.8753 -47.4295 -25.3501
v -0.1741 -48.6205 -26.6538
v 6.5960 -50.3236 -28.2706
v 8.6820 -49.4674 -27.3586
v 11.0276 -48.1053 -26.2121
v -1.8753 -45.5356 -25.3501
v 0.0814 -44.2841 -26.6538
v 9.2934 -43.8818 -26.6094
v 11.1117 -45.8818 -26.6094
v 1.2810 -40.4069 -26.6094
v 9.3868 -40.3608 -26.7998
v 11.1424 -38.9967 -25.5934
v 1.0168 -36.4069 -26.6094
v 9.5528 -36.4069 -27.4813
v 11.1304 -36.4069 -25.4813
v 1.8081 -32.7119 -26.3204
v 4.6820 -32.1595 -27.2711
v 8.7366 -32.3310 -27.7139
v 11.1951 -32.0187 -26.3165
v 2.5691 -29.6717 -24.7945
v 4.5110 -28.3658 -25.2902
v 9.0667 -28.7948 -26.7995
v 11.1255 -28.7948 -26.2297
v 5.7303 -25.8623 -24.8619
v 8.7192 -24.4801 -24.9299
v 10.9376 -24.4069 -24.8207
v 10.0773 -22.1690 -24.8573
v 11.0013 -22.1690 -24.8573
v -1.6688 -54.6421 -22.6094
v 0.6820 -55.2156 -22.6094
v 3.4936 -54.9804 -22.6094
v -1.6826 -52.3738 -22.4250
v 0.8147 -51.0880 -22.1323
v 4.5564 -52.4061 -22.5371
v 8.6820 -50.8445 -24.4832
v 10.6851 -50.4094 -24.6055
v -1.6666 -48.8550 -22.4670
v 0.2815 -49.2430 -22.1623
v 4.6820 -48.4069 -22.6437
v 8.6820 -48.4069 -24.0646
v 11.0211 -48.4069 -24.3496
v -1.8753 -45.5356 -23.9653
v 1.0764 -44.1041 -22.4904
v 4.3621 -44.1663 -22.0988
v 8.4502 -44.5080 -24.0497
v 11.1310 -45.9086 -24.2669
v 1.9718 -40.2652 -22.2541
v 4.2283 -40.0614 -21.1259
v 8.2345 -40.1410 -22.7866
v 11.1424 -38.9967 -24.0053
v 1.3449 -36.7079 -22.2541
v 2.9744 -38.2419 -20.6839
v 9.3392 -36.4069 -21.9593
v 11.1304 -36.4069 -23.9593
v 1.4008 -32.4069 -22.6094
v 9.9234 -32.4069 -21.6146
v 11.3142 -32.4069 -23.6146
v 2.5930 -29.8304 -22.6094
v 3.1849 -27.8304 -22.6094
v 10.2855 -29.9935 -20.8790
v 11.3193 -28.5589 -22.3712
v 5.1083 -24.4801 -22.6291
v 7.4107 -23.1956 -23.9756
v 11.4506 -24.4069 -22.6094
v 6.0553 -21.9552 -21.3090
v 8.7192 -21.5995 -22.6291
v 11.1831 -21.7364 -22.6094
v -1.4824 -54.5058 -20.5503
v 0.6820 -54.4890 -20.5619
v 2.6877 -54.4176 -20.6051
v -1.5462 -52.4069 -20.5240
v 1.0092 -52.4573 -20.5385
v 2.6877 -53.8243 -20.6051
v -1.4579 -50.2805 -20.5546
v -0.1060 -50.2805 -20.5546
v 2.6321 -42.6726 -20.5685
v 2.8155 -42.6726 -20.5685
v 2.6321 -41.5040 -20.5685
v 4.2283 -40.0614 -20.5293
v 6.8399 -38.6187 -20.4901
v 2.3469 -35.5752 -20.4198
v 4.7972 -36.3606 -19.1216
v 7.2509 -36.0504 -18.9378
v 2.4233 -32.0951 -18.8956
v 3.9534 -33.2206 -17.7531
v 8.0082 -32.4069 -18.6094
v 2.6099 -29.8611 -18.6094
v 3.1715 -27.8611 -18.6094
v 9.5999 -28.5589 -18.2643
v 11.0171 -27.3269 -19.3676
v 3.8340 -24.4069 -18.6094
v 10.5672 -26.2694 -16.7009
v 11.2895 -24.7244 -18.2643
v 5.3445 -21.1317 -18.6094
v 8.3572 -19.3930 -18.7341
v 11.5723 -20.4133 -18.7341
v 9.4905 -16.4069 -17.5984
v 12.7659 -16.2425 -17.5596
v 14.8038 -14.7995 -16.8744
v 10.0896 -12.4069 -17.3926
v 12.6820 -12.4069 -18.0079
v 15.0138 -12.4069 -17.2247
v 10.2728 -9.7573 -17.2095
v 12.6820 -9.4449 -17.4760
v 15.0026 -9.7738 -17.1648
v 18.6503 13.5787 -16.6329
v 20.6820 13.3729 -17.0052
v 23.1643 13.3140 -17.1136
v 18.6503 13.6891 -16.6329
v 20.4776 15.2507 -17.2432
v 23.7714 15.5931 -17.3840
v 14.5295 20.3274 -16.7366
v 16.6820 19.8998 -17.2570
v 20.4776 19.3979 -17.4189
v 24.8642 19.4753 -17.1963
v 27.0482 20.7302 -16.9745
v 14.5295 21.6950 -16.7366
v 16.6820 22.0911 -17.2570
v 20.6820 22.0728 -17.2249
v 24.6820 21.9706 -16.9465
v 27.0482 22.0188 -16.9745
v 6.6200 -34.4794 -16.5751
v 6.7539 -34.4794 -16.5751
v 2.5917 -30.5539 -16.4996
v 5.0448 -32.0951 -16.5073
v 6.7668 -32.4069 -16.5642
v 2.5917 -29.7126 -16.4996
v 4.7428 -28.1763 -15.2081
v 7.6548 -28.1468 -14.9938
v 4.8258 -24.4069 -14.6094
v 9.6071 -24.7244 -14.4410
v 11.0106 -23.6028 -15.6621
v 5.7894 -20.0577 -14.8394
v 8.3921 -20.2573 -14.6607
v 11.5327 -20.5766 -14.4410
v 6.4574 -17.9147 -13.6594
v 7.7393 -16.5116 -14.8394
v 13.4990 -16.7046 -14.6094
v 14.7756 -14.7046 -14.6094
v 9.6019 -12.4069 -14.6094
v 15.5298 -12.4069 -14.6094
v 10.3741 -9.9163 -14.6094
v 12.6816 -8.0345 -14.5913
v 16.5181 -8.1994 -14.3015
v 18.9006 -6.6250 -12.6904
v 13.3921 -4.4069 -13.2805
v 16.8901 -4.4229 -13.1949
v 18.9006 -5.7669 -12.6904
v 13.6295 -1.6210 -12.8678
v 15.6955 -1.6210 -12.8678
v 22.4950 1.0673 -12.7529
v 24.6820 0.6247 -13.1962
v 27.0845 0.8276 -13.2483
v 22.4950 1.7405 -12.7529
v 24.8374 3.2815 -13.2721
v 27.6694 3.5931 -13.3301
v 26.2743 6.3723 -12.9315
v 28.7204 7.5004 -13.1084
v 30.9877 8.6285 -13.2853
v 18.6503 13.5787 -16.4276
v 20.6820 13.3729 -16.0585
v 23.1643 13.3140 -16.0566
v 29.8449 10.6272 -13.2853
v 30.9877 10.6272 -13.2853
v 14.3571 17.2985 -13.9021
v 17.5256 15.3019 -15.2297
v 19.9645 15.0889 -15.0102
v 24.7416 15.4064 -14.7882
v 27.6042 16.6780 -13.5198
v 13.8123 19.2336 -14.9850
v 16.6820 17.8998 -16.3312
v 19.0079 17.9344 -16.2791
v 26.3189 18.0635 -16.1865
v 27.8305 19.4753 -14.7557
v 9.7621 24.6448 -12.9786
v 12.7820 23.2535 -13.9105
v 16.6820 23.1698 -14.6094
v 20.6820 23.0573 -14.6094
v 24.6820 22.9246 -14.6094
v 27.4260 22.4202 -14.6094
v 9.7621 26.0389 -12.9786
v 11.3732 26.0389 -12.9786
v 6.4398 -26.6400 -12.4110
v 7.0436 -26.6400 -12.4110
v 6.4204 -24.4069 -12.3939
v 7.4244 -24.4069 -12.3939
v 6.4337 -20.4069 -12.3654
v 8.6590 -20.5766 -12.2236
v 10.9648 -19.3564 -12.2918
v 6.4574 -17.9147 -12.3729
v 8.9539 -16.2725 -10.9990
v 12.4456 -15.8541 -11.1079
v 14.6850 -14.4112 -12.5906
v 10.2075 -12.5966 -11.0067
v 12.8198 -12.4889 -9.9311
v 16.3593 -11.9982 -10.6024
v 18.6839 -10.4084 -8.6142
v 10.6808 -10.4024 -12.6049
v 12.4699 -8.8042 -11.0067
v 18.0337 -9.2916 -11.2809
v 19.2962 -8.1378 -10.2123
v 13.2471 -4.4069 -10.6094
v 18.3622 -3.1003 -12.4053
v 20.5262 -4.0977 -10.5170
v 22.6855 -2.4285 -8.6288
v 13.7857 -1.2716 -10.6094
v 16.5579 -0.3167 -10.9183
v 20.9698 -0.3224 -11.3918
v 24.5938 -0.3858 -10.0754
v 27.0845 0.8276 -11.5219
v 17.4202 2.6301 -9.4314
v 21.0181 3.5186 -10.4616
v 25.0548 3.0757 -10.1736
v 28.0512 3.2838 -10.3569
v 22.2079 5.7929 -8.8252
v 25.0273 7.4159 -10.3361
v 28.8430 7.4610 -11.1398
v 31.3451 8.2775 -10.6094
v 14.5895 13.5378 -8.7246
v 14.7889 13.5378 -8.7246
v 26.4469 10.2211 -9.1803
v 28.4233 11.7575 -10.7917
v 32.4574 12.0604 -10.5344
v 34.7153 13.4936 -8.6656
v 6.0555 17.0887 -9.5368
v 8.6820 17.0828 -9.4847
v 13.1400 16.0244 -10.1201
v 16.3461 14.8710 -10.2785
v 20.6820 15.4792 -10.6094
v 24.6820 15.5015 -10.6094
v 28.6362 15.4869 -10.8438
v 32.4256 15.2254 -9.7244
v 34.7153 13.6469 -8.6656
v 5.5185 19.5931 -9.6785
v 8.6820 19.5931 -10.6390
v 11.7092 19.5931 -11.5699
v 30.0013 19.9682 -10.6144
v 30.9214 18.8850 -9.2845
v 5.2832 23.5931 -9.7170
v 8.5301 23.4241 -11.7201
v 12.7632 23.7364 -11.3413
v 16.6820 24.2566 -10.6094
v 20.6820 23.3300 -10.6094
v 24.6820 23.4560 -10.6094
v 28.1395 22.9204 -10.6094
v 5.7418 26.0632 -9.5882
v 8.5301 26.3334 -10.7967
v 12.0532 26.1659 -10.6094
v 10.5415 -14.6302 -8.4900
v 11.2597 -14.6302 -8.4900
v 10.5415 -14.0565 -8.4900
v 12.8198 -12.4889 -8.4949
v 16.6820 -10.7939 -8.5261
v 18.6839 -10.4084 -8.6078
v 14.4174 -8.4069 -8.5039
v 16.6820 -8.4069 -8.3794
v 19.2858 -8.4069 -8.4850
v 14.5371 -4.4069 -8.5435
v 16.6820 -4.4069 -8.0406
v 20.7639 -4.0199 -8.2056
v 22.6855 -2.4285 -8.6069
v 14.5394 -1.6790 -8.5527
v 16.3249 -0.3702 -7.7259
v 20.6820 -0.4069 -6.7083
v 23.5496 -0.4069 -7.7701
v 17.4202 2.6301 -7.6998
v 20.7447 3.6107 -6.2630
v 24.9740 2.4259 -6.3395
v 27.7851 4.3854 -6.6094
v 21.7761 6.0507 -6.6094
v 24.3044 8.0507 -6.6094
v 29.7133 7.5194 -6.3567
v 31.2604 8.8035 -7.5215
v 14.5895 13.5378 -8.5073
v 14.7889 13.5378 -8.5073
v 26.3044 10.2287 -6.6094
v 28.6325 11.3502 -6.3395
v 32.6290 11.9334 -7.3090
v 34.7153 13.4936 -8.3154
v -2.3417 16.8641 -5.2944
v 0.6820 16.9281 -5.4121
v 4.7061 17.1587 -6.4406
v 8.4849 17.1477 -6.7179
v 13.0265 15.8875 -7.6869
v 16.3461 15.7362 -7.7271
v 20.6820 16.9335 -8.0815
v 24.6820 16.7816 -8.2570
v 28.4738 15.6147 -7.8823
v 32.4256 15.2254 -7.8166
v 34.7153 13.6469 -8.3154
v -2.3417 18.7706 -5.2944
v 0.4581 19.8996 -5.8256
v 3.5185 19.5931 -7.6160
v 9.6869 17.9240 -5.4569
v 12.6820 18.4254 -5.5328
v 16.4621 19.6604 -5.8171
v 20.6820 19.5931 -7.5536
v 24.6820 19.5931 -7.6618
v 29.0725 19.9682 -7.9284
v 30.9214 18.8850 -8.3675
v 1.7901 23.5931 -5.4493
v 3.2832 23.5931 -7.4493
v 14.4857 25.4885 -8.4551
v 16.5689 23.9829 -6.8895
v 20.6820 22.3456 -8.0815
v 24.6820 22.5019 -8.0142
v 27.9995 22.6858 -7.9009
v 2.5327 25.6353 -4.7725
v 4.5179 26.1878 -6.3073
v 8.6820 26.9743 -6.6094
v 12.9642 26.4565 -6.9168
v 15.4890 26.1395 -5.7884
v 21.9483 4.5913 -4.1940
v 24.6820 4.5206 -3.8538
v 27.1874 5.1650 -4.0173
v 21.9483 6.0034 -4.1940
v 24.9209 7.4393 -3.8547
v 27.7471 7.5931 -3.9776
v 26.4135 9.8126 -4.3591
v 27.5967 9.8126 -4.3591
v -2.8770 16.1389 -2.6094
v 0.6820 15.6178 -2.6094
v 4.6820 16.6619 -2.6094
v 8.4849 17.0668 -2.6912
v 10.9368 17.2627 -1.4124
v -5.7657 20.6230 -1.1359
v -3.6907 19.6968 -2.7822
v -1.0246 21.4373 -4.4284
v 9.6869 17.9240 -4.0790
v 12.3440 19.4813 -2.9151
v 14.9821 21.0386 -4.4178
v -5.7657 22.6195 -1.1359
v -3.5473 23.8090 -2.1227
v -0.2099 23.5931 -4.1062
v 10.3979 25.3396 -0.8008
v 12.5235 23.8410 -1.7874
v 15.5124 23.5931 -3.9383
v -2.3668 26.1510 -1.4527
v 0.9924 26.6814 -2.7154
v 4.6820 27.7489 -2.6094
v 8.9115 26.9090 -2.3243
v 12.6820 26.4339 -3.2255
v 15.4890 26.1395 -3.9061
v -9.6911 13.2335 2.3377
v -7.3180 13.2321 2.4322
v -3.3180 13.1604 2.3188
v -0.6115 13.1379 2.1864
v -9.6911 14.6989 2.3377
v -7.5798 15.8566 2.0226
v -3.5510 15.2671 0.3319
v 0.7059 14.7212 1.0681
v 4.6853 16.7563 1.5940
v 8.6820 16.9817 0.7712
v 10.9368 17.2627 0.2258
v -6.2864 19.4110 1.1893
v -5.0396 17.9563 -0.2782
v 5.6795 19.5931 2.6639
v 8.6820 19.5931 1.7153
v 11.1750 19.5931 0.4421
v -5.7012 22.4247 1.3906
v -3.5473 24.5874 1.6827
v -1.1866 25.4747 3.2107
v 5.8965 23.5931 2.5080
v 8.9115 23.8410 0.6246
v 11.0845 22.6729 -0.0426
v -2.3668 26.1510 0.5440
v 0.3608 27.0127 1.6827
v 4.8589 27.3618 1.4693
v 7.7312 26.7328 0.1884
v -9.8737 12.8303 5.3906
v -7.3180 12.2180 5.3906
v -3.3180 11.8894 5.3906
v -0.3148 12.5016 5.3906
v -9.7695 15.8566 5.7075
v -9.0877 17.3656 4.5855
v 1.6852 14.9417 5.3906
v 3.4562 16.9417 5.3906
v -9.3660 19.5931 7.2569
v -8.1927 19.5931 5.2569
v 1.7869 20.7706 6.5517
v 3.6961 19.4996 5.2872
v -9.3706 21.6308 7.3507
v -6.9560 21.9510 5.7667
v -2.9462 24.2573 5.6776
v 0.0787 24.3995 5.5158
v 3.8965 23.5931 4.2510
v -1.3650 25.6029 7.2023
v 0.0923 25.8952 5.6229
v 3.6435 26.1875 4.0434
v -10.2702 9.1198 10.2930
v -7.3180 9.0980 10.3055
v -3.3180 8.7296 10.3996
v -0.9714 8.6285 10.4185
v -13.6638 12.7253 10.6220
v -11.3113 11.4971 9.1242
v -7.3180 10.5789 8.3055
v -3.3180 10.3220 8.3996
v -0.6780 11.3931 9.2073
v -13.6638 14.1240 10.6220
v -11.4837 15.5117 9.3295
v 1.2560 15.6956 9.3911
v 3.0421 17.0973 8.0580
v -9.6945 19.8546 9.2241
v -7.3180 20.9240 9.9469
v -3.3180 20.9174 10.2871
v 0.6860 19.7288 9.4791
v 3.0421 18.1040 8.0580
v -9.3706 21.6308 7.7798
v -7.3180 21.9786 7.9469
v -2.9462 23.4789 8.1156
v -0.9724 23.5931 8.0325
v -1.3650 25.6029 7.4035
v -1.2954 25.6029 7.4035
v -21.5409 -2.4643 15.2752
v -21.2126 -2.4643 15.2752
v -22.4067 -0.4069 14.7506
v -20.3755 -0.4069 14.7506
v -25.4284 4.7322 15.2632
v -23.6553 3.4766 14.4181
v -19.0272 3.3960 14.2940
v -16.2090 4.5980 15.0564
v -1.6323 5.4901 14.8148
v -1.1920 5.4901 14.8148
v -25.5348 7.5931 15.1947
v -23.3180 7.5931 14.6092
v -19.6467 7.6096 14.7217
v -14.7699 7.9122 15.2144
v -11.4893 8.7623 13.7797
v -7.3180 7.9835 13.3906
v -3.1066 6.9238 13.4451
v -0.9162 7.4143 13.4451
v -25.4967 10.3929 15.2568
v -23.3180 10.2271 15.2714
v -21.1992 9.6386 15.3654
v -13.5505 11.4724 13.7797
v -12.9368 10.0586 12.7057
v -2.0116 12.6563 14.2381
v -0.9383 11.4310 13.0991
v -13.5991 14.0165 13.3906
v -11.2561 16.2382 13.6669
v -9.1065 17.4371 15.1845
v -2.4670 15.5931 14.0232
v -0.5738 15.5931 12.0232
v -9.8815 18.6957 12.5178
v -7.5911 18.8870 13.6669
v -3.4210 18.8817 13.3882
v -0.4148 18.6869 12.0533
v -21.4869 -2.4509 17.3906
v -21.2353 -2.4509 17.3906
v -25.6618 1.3727 18.3570
v -23.7903 -0.1391 17.1704
v -18.9611 -0.2668 17.2506
v -16.9736 1.1599 18.4906
v -26.1147 3.4766 17.1704
v -25.2134 2.0655 15.6903
v -17.5000 1.9313 15.8240
v -15.2580 3.6824 17.2227
v -11.3180 4.8044 18.2328
v -8.5197 4.7012 18.6160
v -1.6323 5.4901 15.5253
v -1.1920 5.4901 15.5253
v -29.8387 9.1386 19.2443
v -27.6156 7.7204 17.7028
v -18.5325 8.9540 16.2330
v -14.7699 7.9122 16.0939
v -11.3180 6.9096 16.2328
v -7.2390 7.0187 17.3259
v -3.4482 7.8754 16.9449
v -1.0756 7.5931 15.7220
v -29.8387 9.8656 19.2443
v -26.9864 11.4626 17.4969
v -23.3813 12.2273 17.2060
v -19.6467 10.3727 17.4960
v -15.0496 11.4184 17.4960
v -3.2357 11.4310 17.1749
v -1.1209 9.9896 15.6978
v -25.8094 13.8553 18.4163
v -24.7568 13.8553 18.4163
v -13.4729 13.6830 17.3906
v -11.3180 14.8569 17.3906
v -7.5911 16.2527 17.3035
v -4.5711 15.3135 17.3035
v -6.4398 17.9751 15.9121
v -4.8231 17.9751 15.9121
v -21.3202 -2.4082 19.3931
v -21.3131 -2.4082 19.3931
v -26.2041 1.2005 21.3906
v -22.9193 -0.6238 20.9921
v -19.7151 -0.6796 20.9921
v -15.5114 0.9494 21.4985
v -12.6264 1.1367 22.9038
v -33.5790 5.4155 23.2685
v -31.3180 4.9255 22.7744
v -28.1511 3.5655 21.3709
v -14.3069 2.7668 20.2371
v -11.3030 2.9553 21.4985
v -8.4291 4.4156 21.3906
v -34.0297 7.5931 22.5501
v -31.2305 7.7204 20.6985
v -28.8583 6.4720 20.0244
v -6.5123 7.9103 21.0955
v -5.2642 9.4551 19.5655
v -34.5618 11.5931 22.1135
v -31.2305 11.3566 20.4324
v -28.4761 12.5323 20.1630
v -22.0683 13.0687 21.3906
v -19.4771 12.5988 21.4834
v -16.1622 12.6352 20.2119
v -6.2481 11.5931 21.8410
v -5.1950 11.5931 19.8410
v -34.2291 15.5931 22.7987
v -31.6546 15.4260 22.5805
v -27.2129 14.4867 21.4541
v -22.9756 15.5876 22.2263
v -19.7305 15.5600 23.1096
v -15.0245 13.9599 21.4834
v -11.3180 14.2164 21.3906
v -7.3567 14.0740 21.2460
v -5.2078 13.7938 19.8163
v -33.5622 17.6464 23.3056
v -33.2124 17.6464 23.3056
v -21.5186 17.6560 23.3405
v -21.2112 17.6560 23.3405
v -30.1382 1.0811 26.5557
v -27.4206 0.9538 25.2897
v -23.4239 0.9581 25.4651
v -19.1184 1.0977 25.4651
v -15.3180 0.6083 25.3906
v -12.5178 0.8490 25.3906
v -34.2829 4.7253 25.3906
v -31.4101 2.8713 25.2897
v -28.8224 2.2138 23.8890
v -22.1611 2.3297 26.8480
v -20.3186 2.3297 26.8480
v -10.5178 2.9534 25.3906
v -8.9353 4.9534 25.3906
v -35.3645 7.5931 25.3906
v -8.2289 7.5931 25.3906
v -34.7656 11.5735 25.4082
v -31.3180 12.5789 26.3789
v -28.6738 12.9401 26.6790
v -21.5463 13.3489 23.6413
v -20.9165 13.3489 23.6413
v -9.4533 13.1211 27.1136
v -8.3916 11.7099 25.6244
v -34.2291 15.5931 23.9831
v -31.6546 15.4260 24.2377
v -27.3315 14.7072 25.3637
v -22.8812 15.7451 24.6409
v -19.6564 15.6161 24.6409
v -15.3180 15.2857 25.3906
v -10.9992 14.3743 25.6244
v -8.7158 13.8060 24.4469
v -33.5622 17.6464 23.4846
v -33.2124 17.6464 23.4846
v -21.8823 17.8643 25.3906
v -20.7113 17.8643 25.3906
v -30.1463 1.0263 29.3906
v -27.0886 0.9894 29.6336
v -24.8278 1.3426 28.4622
v -17.6519 1.4554 27.8136
v -15.3180 1.0881 28.2802
v -12.9426 1.0574 28.1538
v -37.8648 5.2035 30.4590
v -35.5333 4.4798 29.2317
v -32.1463 2.4937 29.3906
v -25.6023 1.7409 31.1289
v -23.0954 3.3686 29.8952
v -19.4696 3.4940 29.5708
v -15.3180 2.8551 30.2802
v -11.7836 4.1477 29.2495
v -9.1947 5.4182 27.6786
v -37.8648 6.2718 30.4590
v -35.5412 7.5974 29.2626
v -32.3985 8.9229 30.7328
v -21.3631 5.6378 31.3281
v -21.2872 5.6378 31.3281
v -10.9964 7.5931 29.7361
v -9.1374 7.5931 27.7361
v -34.0722 10.2271 28.0661
v -31.1663 10.5594 29.3959
v -27.3315 12.2761 29.4857
v -23.3180 12.8932 30.7185
v -19.3180 13.2398 31.0609
v -15.3180 13.3045 31.1808
v -11.1847 11.8527 29.3629
v -9.2005 10.4545 27.5633
v -26.0072 14.2228 28.2157
v -23.2491 15.5709 28.6721
v -19.2967 15.6650 28.9460
v -15.3180 14.8919 29.1808
v -12.1200 14.5382 28.4958
v -21.8698 17.8918 27.7559
v -20.6159 17.8918 27.7559
v -29.6023 1.3493 31.7404
v -28.2690 1.3493 31.7404
v -37.8648 5.2035 31.9766
v -35.3180 4.9361 32.4243
v -31.2441 3.6715 33.2950
v -27.0886 2.6875 33.2004
v -23.5302 4.4788 33.3906
v -18.6206 4.6584 32.6290
v -15.3180 4.8551 32.3509
v -13.2912 5.5438 31.4326
v -37.8648 6.2718 31.9766
v -35.3180 6.5995 32.4243
v -31.3089 7.6805 33.3574
v -28.7311 9.1048 34.5318
v -21.5302 5.6924 33.3906
v -19.6995 5.8021 33.7337
v -15.3180 6.4014 34.3509
v -12.9205 7.7101 33.0158
v -29.7318 9.8891 31.8652
v -27.3659 10.5355 33.2753
v -23.3180 11.7881 33.3906
v -19.3180 11.9877 33.3906
v -15.3180 11.6349 33.3906
v -12.8412 10.4794 33.3906
v -30.2192 4.9029 36.2670
v -27.3180 4.8503 36.4411
v -24.2225 5.2928 35.9150
v -30.2192 6.4381 36.2670
v -27.3659 7.7001 36.6973
v -22.9023 7.5932 37.3746
v -19.6593 8.1229 37.1545
v -15.3180 8.4014 35.6887
v -13.0843 9.1215 35.5149
v -26.0645 10.0390 36.1676
v -23.0765 10.3899 37.4568
v -19.6593 10.2723 37.1545
v -15.3180 9.9234 35.6887
v -13.0843 9.7836 35.5149
v -21.5821 9.5057 39.4511
v -21.2201 9.5057 39.4511
v -21.5821 9.7278 39.4511
v -21.2201 9.7278 39.4511
f 6 1 5
f 6 2 1
f 7 2 6
f 7 3 2
f 8 3 7
f 8 4 3
f 9 6 5
f 9 10 6
f 11 6 10
f 11 7 6
f 12 11 10
f 12 13 11
f 16 15 14
f 16 17 15
f 2 20 1
f 2 21 20
f 21 18 20
f 21 19 18
f 22 2 3
f 22 21 2
f 23 3 4
f 23 22 3
f 24 1 20
f 24 5 1
f 26 23 4
f 26 4 8
f 8 7 25
f 8 25 26
f 24 9 5
f 24 27 9
f 28 10 9
f 28 9 27
f 25 7 11
f 25 11 29
f 28 12 10
f 28 31 12
f 30 28 27
f 30 31 28
f 29 11 13
f 29 13 32
f 32 13 12
f 32 12 31
f 34 30 33
f 34 31 30
f 34 32 31
f 34 35 32
f 37 36 35
f 37 38 36
f 15 39 14
f 15 40 39
f 39 16 14
f 39 43 16
f 40 15 17
f 40 17 44
f 44 17 16
f 44 16 43
f 44 43 39
f 44 39 40
f 45 42 41
f 45 46 42
f 47 18 19
f 47 46 18
f 47 42 46
f 47 43 42
f 51 18 46
f 51 20 18
f 52 47 19
f 52 19 21
f 22 52 21
f 22 53 52
f 52 48 47
f 52 53 48
f 23 53 22
f 23 54 53
f 53 49 48
f 53 54 49
f 56 20 51
f 56 24 20
f 55 51 50
f 55 56 51
f 58 54 23
f 58 23 26
f 26 25 57
f 26 57 58
f 56 27 24
f 56 59 27
f 60 57 25
f 60 25 29
f 59 30 27
f 59 62 30
f 63 60 29
f 63 29 32
f 63 61 60
f 63 64 61
f 62 33 30
f 62 65 33
f 66 34 33
f 66 33 65
f 63 32 35
f 63 35 67
f 35 34 66
f 35 66 67
f 36 67 35
f 36 68 67
f 68 63 67
f 68 64 63
f 69 66 65
f 69 70 66
f 67 37 35
f 67 71 37
f 71 66 70
f 71 67 66
f 68 36 38
f 68 38 72
f 72 38 37
f 72 37 71
f 73 71 70
f 73 74 71
f 74 72 71
f 74 75 72
f 76 75 74
f 76 77 75
f 79 41 42
f 79 78 41
f 80 42 43
f 80 79 42
f 78 45 41
f 78 81 45
f 82 46 45
f 82 45 81
f 80 43 47
f 80 47 83
f 84 47 48
f 84 83 47
f 49 84 48
f 49 85 84
f 82 51 46
f 82 87 51
f 87 50 51
f 87 86 50
f 86 82 81
f 86 87 82
f 88 87 82
f 88 82 83
f 88 83 84
f 88 84 89
f 90 85 49
f 90 49 54
f 89 84 85
f 89 85 90
f 91 50 86
f 91 55 50
f 56 55 91
f 56 91 92
f 91 86 87
f 91 87 92
f 92 87 88
f 92 88 93
f 94 93 88
f 94 88 89
f 95 90 54
f 95 54 58
f 95 58 57
f 95 57 94
f 95 94 89
f 95 89 90
f 92 59 56
f 92 96 59
f 94 57 60
f 94 60 98
f 98 97 93
f 98 93 94
f 99 60 61
f 99 98 60
f 100 59 96
f 100 62 59
f 101 100 96
f 101 96 97
f 99 61 64
f 99 64 103
f 102 98 99
f 102 99 103
f 104 62 100
f 104 65 62
f 106 103 64
f 106 64 68
f 106 105 102
f 106 102 103
f 104 69 65
f 104 107 69
f 108 70 69
f 108 69 107
f 106 68 72
f 106 72 110
f 109 105 106
f 109 106 110
f 108 73 70
f 108 111 73
f 112 74 73
f 112 73 111
f 110 72 75
f 110 75 113
f 112 76 74
f 112 115 76
f 114 112 111
f 114 115 112
f 113 75 77
f 113 77 116
f 116 77 76
f 116 76 115
f 79 117 78
f 79 118 117
f 119 79 80
f 119 118 79
f 117 81 78
f 117 120 81
f 120 117 118
f 120 118 121
f 122 119 80
f 122 80 83
f 122 83 82
f 122 82 121
f 122 121 118
f 122 118 119
f 123 81 120
f 123 86 81
f 124 121 82
f 124 82 87
f 87 86 123
f 87 123 124
f 124 123 120
f 124 120 121
f 93 125 92
f 93 126 125
f 125 96 92
f 125 127 96
f 126 93 97
f 126 97 128
f 97 96 127
f 97 127 128
f 127 125 126
f 127 126 128
f 129 97 98
f 129 128 97
f 128 101 97
f 128 131 101
f 101 130 100
f 101 131 130
f 129 98 102
f 129 102 132
f 131 128 129
f 131 129 132
f 130 104 100
f 130 133 104
f 134 133 130
f 134 130 131
f 132 102 105
f 132 105 135
f 133 107 104
f 133 136 107
f 137 108 107
f 137 107 136
f 135 105 109
f 135 109 138
f 139 109 110
f 139 138 109
f 140 108 137
f 140 111 108
f 139 110 113
f 139 113 142
f 141 138 139
f 141 139 142
f 140 114 111
f 140 143 114
f 144 115 114
f 144 114 143
f 142 113 116
f 142 116 145
f 145 116 115
f 145 115 144
f 146 145 144
f 146 147 145
f 149 147 146
f 149 150 147
f 150 148 147
f 150 151 148
f 152 150 149
f 152 153 150
f 154 150 153
f 154 151 150
f 158 156 155
f 158 159 156
f 159 157 156
f 159 160 157
f 163 160 159
f 163 164 160
f 167 161 166
f 167 162 161
f 168 162 167
f 168 163 162
f 168 164 163
f 168 169 164
f 169 165 164
f 169 170 165
f 132 171 131
f 132 172 171
f 171 134 131
f 171 174 134
f 134 173 133
f 134 174 173
f 172 132 135
f 172 135 175
f 175 174 171
f 175 171 172
f 173 136 133
f 173 176 136
f 137 136 176
f 137 176 177
f 176 173 174
f 176 174 177
f 175 135 138
f 175 138 178
f 177 174 175
f 177 175 178
f 177 140 137
f 177 179 140
f 178 138 141
f 178 141 180
f 181 141 142
f 181 180 141
f 179 143 140
f 179 182 143
f 144 143 182
f 144 182 183
f 181 142 145
f 181 145 184
f 183 180 181
f 183 181 184
f 186 144 183
f 186 146 144
f 185 183 182
f 185 186 183
f 184 145 147
f 184 147 187
f 148 187 147
f 148 188 187
f 189 146 186
f 189 149 146
f 190 188 148
f 190 148 151
f 191 149 189
f 191 152 149
f 153 152 191
f 153 191 192
f 190 151 154
f 190 154 193
f 154 153 192
f 154 192 193
f 195 193 192
f 195 196 193
f 196 194 193
f 196 197 194
f 199 195 198
f 199 196 195
f 203 201 200
f 203 204 201
f 204 202 201
f 204 205 202
f 206 205 204
f 206 207 205
f 210 155 156
f 210 209 155
f 211 156 157
f 211 210 156
f 212 208 207
f 212 213 208
f 209 158 155
f 209 215 158
f 216 159 158
f 216 158 215
f 216 215 209
f 216 209 210
f 211 157 160
f 211 160 217
f 216 210 211
f 216 211 217
f 220 161 162
f 220 219 161
f 220 214 219
f 220 215 214
f 221 159 216
f 221 163 159
f 221 162 163
f 221 220 162
f 221 215 220
f 221 216 215
f 222 217 160
f 222 160 164
f 165 222 164
f 165 223 222
f 222 218 217
f 222 223 218
f 219 166 161
f 219 225 166
f 226 167 166
f 226 166 225
f 227 168 167
f 227 167 226
f 169 168 227
f 169 227 228
f 229 223 165
f 229 165 170
f 170 169 228
f 170 228 229
f 231 224 230
f 231 225 224
f 178 232 177
f 178 233 232
f 232 179 177
f 232 234 179
f 233 178 180
f 233 180 235
f 234 232 233
f 234 233 235
f 236 179 234
f 236 182 179
f 237 235 180
f 237 180 183
f 236 234 235
f 236 235 237
f 238 183 184
f 238 237 183
f 236 185 182
f 236 239 185
f 186 185 239
f 186 239 240
f 239 236 237
f 239 237 240
f 238 184 187
f 238 187 241
f 240 237 238
f 240 238 241
f 242 187 188
f 242 241 187
f 240 189 186
f 240 243 189
f 242 188 190
f 242 190 245
f 244 241 242
f 244 242 245
f 247 189 243
f 247 191 189
f 192 191 247
f 192 247 248
f 247 243 244
f 247 244 248
f 249 245 190
f 249 190 193
f 194 249 193
f 194 250 249
f 249 246 245
f 249 250 246
f 248 195 192
f 248 251 195
f 250 194 197
f 250 197 253
f 197 196 252
f 197 252 253
f 251 198 195
f 251 255 198
f 252 196 199
f 252 199 256
f 199 198 255
f 199 255 256
f 257 252 256
f 257 253 252
f 258 200 201
f 258 257 200
f 257 254 253
f 257 258 254
f 259 201 202
f 259 258 201
f 257 203 200
f 257 261 203
f 260 257 256
f 260 261 257
f 262 204 203
f 262 203 261
f 259 202 205
f 259 205 263
f 262 258 259
f 262 259 263
f 262 206 204
f 262 265 206
f 264 262 261
f 264 265 262
f 266 263 205
f 266 205 207
f 266 207 206
f 266 206 265
f 208 266 207
f 208 267 266
f 266 212 207
f 266 271 212
f 270 266 265
f 270 271 266
f 267 208 213
f 267 213 272
f 213 212 271
f 213 271 272
f 277 214 215
f 277 276 214
f 277 268 276
f 277 269 268
f 278 215 216
f 278 277 215
f 217 278 216
f 217 279 278
f 218 279 217
f 218 280 279
f 280 272 271
f 280 281 272
f 281 273 272
f 281 282 273
f 284 274 283
f 284 275 274
f 285 214 276
f 285 219 214
f 285 275 284
f 285 276 275
f 286 280 218
f 286 218 223
f 287 280 286
f 287 281 280
f 289 283 288
f 289 284 283
f 285 225 219
f 285 290 225
f 290 224 225
f 290 289 224
f 289 285 284
f 289 290 285
f 226 225 290
f 226 290 291
f 292 227 226
f 292 226 291
f 293 228 227
f 293 227 292
f 286 223 229
f 286 229 294
f 229 228 293
f 229 293 294
f 296 224 289
f 296 230 224
f 296 288 295
f 296 289 288
f 290 225 231
f 290 231 297
f 297 231 230
f 297 230 296
f 241 298 240
f 241 299 298
f 298 243 240
f 298 300 243
f 299 241 244
f 299 244 301
f 244 243 300
f 244 300 301
f 300 298 299
f 300 299 301
f 245 301 244
f 245 302 301
f 246 302 245
f 246 303 302
f 301 248 244
f 301 304 248
f 304 301 302
f 304 302 305
f 306 303 246
f 306 246 250
f 305 302 303
f 305 303 306
f 304 251 248
f 304 307 251
f 307 304 305
f 307 305 308
f 309 306 250
f 309 250 253
f 308 305 306
f 308 306 309
f 254 309 253
f 254 310 309
f 311 251 307
f 311 255 251
f 256 255 311
f 256 311 312
f 311 307 308
f 311 308 312
f 312 308 309
f 312 309 313
f 314 310 254
f 314 254 258
f 313 309 310
f 313 310 314
f 312 260 256
f 312 315 260
f 261 260 315
f 261 315 316
f 315 312 313
f 315 313 316
f 314 258 262
f 314 262 317
f 316 313 314
f 316 314 317
f 318 262 263
f 318 317 262
f 316 264 261
f 316 319 264
f 320 265 264
f 320 264 319
f 318 263 266
f 318 266 321
f 322 266 267
f 322 321 266
f 269 323 268
f 269 324 323
f 320 270 265
f 320 325 270
f 326 271 270
f 326 270 325
f 322 267 272
f 322 272 327
f 326 321 322
f 326 322 327
f 273 327 272
f 273 328 327
f 332 274 275
f 332 331 274
f 333 268 323
f 333 276 268
f 333 275 276
f 333 332 275
f 324 269 277
f 324 277 334
f 334 333 323
f 334 323 324
f 278 334 277
f 278 335 334
f 336 278 279
f 336 335 278
f 337 271 326
f 337 280 271
f 337 279 280
f 337 336 279
f 337 326 327
f 337 327 338
f 328 273 282
f 328 282 339
f 282 281 338
f 282 338 339
f 339 338 327
f 339 327 328
f 340 330 329
f 340 341 330
f 342 274 331
f 342 283 274
f 342 330 341
f 342 331 330
f 343 332 333
f 343 333 344
f 344 333 334
f 344 334 345
f 345 334 335
f 345 335 346
f 347 346 335
f 347 335 336
f 348 347 336
f 348 336 337
f 349 338 281
f 349 281 287
f 287 286 348
f 287 348 349
f 349 348 337
f 349 337 338
f 342 288 283
f 342 351 288
f 350 342 341
f 350 351 342
f 291 290 352
f 291 352 353
f 354 292 291
f 354 291 353
f 354 353 345
f 354 345 346
f 355 293 292
f 355 292 354
f 354 346 347
f 354 347 355
f 348 286 294
f 348 294 356
f 294 293 355
f 294 355 356
f 356 355 347
f 356 347 348
f 351 295 288
f 351 358 295
f 357 351 350
f 357 358 351
f 359 296 295
f 359 295 358
f 352 290 297
f 352 297 360
f 297 296 359
f 297 359 360
f 361 352 360
f 361 353 352
f 317 362 316
f 317 363 362
f 318 363 317
f 318 364 363
f 362 319 316
f 362 365 319
f 320 319 365
f 320 365 366
f 365 362 363
f 365 363 366
f 367 364 318
f 367 318 321
f 366 363 364
f 366 364 367
f 368 320 366
f 368 325 320
f 369 367 321
f 369 321 326
f 369 326 325
f 369 325 368
f 368 366 367
f 368 367 369
f 371 329 330
f 371 370 329
f 372 330 331
f 372 371 330
f 373 331 332
f 373 372 331
f 370 340 329
f 370 376 340
f 377 341 340
f 377 340 376
f 378 373 332
f 378 332 343
f 344 378 343
f 344 379 378
f 378 374 373
f 378 379 374
f 380 344 345
f 380 379 344
f 381 376 375
f 381 382 376
f 377 350 341
f 377 383 350
f 382 377 376
f 382 383 377
f 380 345 353
f 380 353 386
f 385 379 380
f 385 380 386
f 383 357 350
f 383 388 357
f 387 383 382
f 387 388 383
f 389 358 357
f 389 357 388
f 359 358 389
f 359 389 390
f 391 360 359
f 391 359 390
f 391 390 384
f 391 384 385
f 386 353 361
f 386 361 392
f 361 360 391
f 361 391 392
f 391 385 386
f 391 386 392
f 397 394 393
f 397 398 394
f 399 394 398
f 399 395 394
f 371 399 370
f 371 400 399
f 399 396 395
f 399 400 396
f 372 400 371
f 372 401 400
f 402 372 373
f 402 401 372
f 374 402 373
f 374 403 402
f 405 370 399
f 405 376 370
f 405 375 376
f 405 404 375
f 405 398 404
f 405 399 398
f 406 401 402
f 406 402 407
f 408 403 374
f 408 374 379
f 407 402 403
f 407 403 408
f 409 375 404
f 409 381 375
f 410 382 381
f 410 381 409
f 412 406 407
f 412 407 413
f 414 408 379
f 414 379 385
f 414 385 384
f 414 384 413
f 414 413 407
f 414 407 408
f 410 387 382
f 410 415 387
f 416 388 387
f 416 387 415
f 415 410 411
f 415 411 416
f 417 389 388
f 417 388 416
f 418 413 384
f 418 384 390
f 418 390 389
f 418 389 417
f 418 417 412
f 418 412 413
f 394 419 393
f 394 420 419
f 395 420 394
f 395 421 420
f 422 395 396
f 422 421 395
f 419 397 393
f 419 423 397
f 424 398 397
f 424 397 423
f 425 422 396
f 425 396 400
f 401 425 400
f 401 426 425
f 424 404 398
f 424 428 404
f 427 424 423
f 427 428 424
f 426 401 406
f 426 406 430
f 432 404 428
f 432 409 404
f 431 428 427
f 431 432 428
f 433 410 409
f 433 409 432
f 411 410 433
f 411 433 434
f 435 430 406
f 435 406 412
f 435 434 429
f 435 429 430
f 437 411 434
f 437 416 411
f 436 434 433
f 436 437 434
f 438 435 412
f 438 412 417
f 438 417 416
f 438 416 437
f 438 437 434
f 438 434 435
f 445 419 420
f 445 444 419
f 445 439 444
f 445 440 439
f 421 445 420
f 421 446 445
f 446 440 445
f 446 441 440
f 447 421 422
f 447 446 421
f 446 442 441
f 446 447 442
f 449 419 444
f 449 423 419
f 449 443 448
f 449 444 443
f 450 447 422
f 450 422 425
f 451 425 426
f 451 450 425
f 449 427 423
f 449 452 427
f 456 451 426
f 456 426 430
f 456 430 429
f 456 429 455
f 456 455 450
f 456 450 451
f 457 427 452
f 457 431 427
f 458 432 431
f 458 431 457
f 457 452 453
f 457 453 458
f 459 433 432
f 459 432 458
f 458 453 454
f 458 454 459
f 460 455 429
f 460 429 434
f 460 459 454
f 460 454 455
f 461 433 459
f 461 436 433
f 462 460 434
f 462 434 437
f 462 437 436
f 462 436 461
f 461 459 460
f 461 460 462
f 466 463 465
f 466 464 463
f 468 466 465
f 468 469 466
f 474 467 473
f 474 468 467
f 475 468 474
f 475 469 468
f 475 470 469
f 475 476 470
f 478 439 440
f 478 477 439
f 441 478 440
f 441 479 478
f 442 479 441
f 442 480 479
f 480 471 479
f 480 472 471
f 482 473 481
f 482 474 473
f 483 474 482
f 483 475 474
f 485 439 477
f 485 444 439
f 485 443 444
f 485 484 443
f 484 477 476
f 484 485 477
f 487 480 442
f 487 442 447
f 488 443 484
f 488 448 443
f 489 449 448
f 489 448 488
f 492 487 447
f 492 447 450
f 492 491 486
f 492 486 487
f 493 449 489
f 493 452 449
f 453 452 493
f 453 493 494
f 493 489 490
f 493 490 494
f 495 454 453
f 495 453 494
f 496 492 450
f 496 450 455
f 496 455 454
f 496 454 495
f 496 495 491
f 496 491 492
f 464 497 463
f 464 498 497
f 497 465 463
f 497 500 465
f 498 464 466
f 498 466 501
f 504 465 500
f 504 468 465
f 504 467 468
f 504 503 467
f 504 499 503
f 504 500 499
f 505 501 466
f 505 466 469
f 470 505 469
f 470 506 505
f 505 502 501
f 505 506 502
f 472 509 471
f 472 510 509
f 512 467 503
f 512 473 467
f 514 506 470
f 514 470 476
f 476 475 513
f 476 513 514
f 515 476 477
f 515 514 476
f 514 507 506
f 514 515 507
f 478 515 477
f 478 516 515
f 515 508 507
f 515 516 508
f 509 479 471
f 509 517 479
f 517 478 479
f 517 516 478
f 518 510 472
f 518 472 480
f 518 517 509
f 518 509 510
f 512 481 473
f 512 520 481
f 519 512 511
f 519 520 512
f 521 482 481
f 521 481 520
f 513 475 483
f 513 483 522
f 483 482 521
f 483 521 522
f 523 476 514
f 523 484 476
f 523 513 522
f 523 514 513
f 525 518 480
f 525 480 487
f 525 487 486
f 525 486 524
f 525 524 517
f 525 517 518
f 526 521 520
f 526 527 521
f 528 484 523
f 528 488 484
f 529 489 488
f 529 488 528
f 490 489 529
f 490 529 530
f 531 524 486
f 531 486 491
f 532 490 530
f 532 494 490
f 533 531 491
f 533 491 495
f 533 495 494
f 533 494 532
f 532 530 531
f 532 531 533
f 498 534 497
f 498 535 534
f 534 500 497
f 534 537 500
f 537 499 500
f 537 536 499
f 535 498 501
f 535 501 538
f 538 537 534
f 538 534 535
f 502 538 501
f 502 539 538
f 543 499 536
f 543 503 499
f 544 539 502
f 544 502 506
f 507 544 506
f 507 545 544
f 544 540 539
f 544 545 540
f 546 507 508
f 546 545 507
f 547 542 541
f 547 548 542
f 549 503 543
f 549 512 503
f 549 511 512
f 549 548 511
f 549 542 548
f 549 543 542
f 550 546 508
f 550 508 516
f 551 516 517
f 551 550 516
f 553 511 548
f 553 519 511
f 553 547 552
f 553 548 547
f 554 520 519
f 554 519 553
f 522 521 555
f 522 555 556
f 557 523 522
f 557 522 556
f 551 517 524
f 551 524 559
f 558 550 551
f 558 551 559
f 561 552 560
f 561 553 552
f 554 526 520
f 554 562 526
f 561 554 553
f 561 562 554
f 555 521 527
f 555 527 563
f 527 526 562
f 527 562 563
f 557 528 523
f 557 565 528
f 565 556 564
f 565 557 556
f 566 529 528
f 566 528 565
f 567 530 529
f 567 529 566
f 568 559 524
f 568 524 531
f 568 531 530
f 568 530 567
f 568 567 558
f 568 558 559
f 570 560 569
f 570 561 560
f 571 564 563
f 571 572 564
f 575 536 537
f 575 574 536
f 538 575 537
f 538 576 575
f 539 576 538
f 539 577 576
f 540 577 539
f 540 578 577
f 580 541 542
f 580 579 541
f 581 536 574
f 581 543 536
f 581 542 543
f 581 580 542
f 581 573 580
f 581 574 573
f 582 575 576
f 582 576 583
f 584 578 540
f 584 540 545
f 546 584 545
f 546 585 584
f 586 541 579
f 586 547 541
f 587 585 546
f 587 546 550
f 588 547 586
f 588 552 547
f 592 556 555
f 592 555 591
f 587 550 558
f 587 558 594
f 595 552 588
f 595 560 552
f 595 588 589
f 595 589 596
f 597 562 561
f 597 561 596
f 596 589 590
f 596 590 597
f 591 555 563
f 591 563 598
f 563 562 597
f 563 597 598
f 592 564 556
f 592 599 564
f 564 598 563
f 564 599 598
f 599 591 598
f 599 592 591
f 600 565 564
f 600 564 599
f 566 565 600
f 566 600 601
f 602 594 558
f 602 558 567
f 602 567 566
f 602 566 601
f 602 601 593
f 602 593 594
f 595 569 560
f 595 603 569
f 604 596 561
f 604 561 570
f 570 569 603
f 570 603 604
f 604 603 595
f 604 595 596
f 598 571 563
f 598 605 571
f 599 564 572
f 599 572 606
f 572 571 605
f 572 605 606
f 608 573 574
f 608 607 573
f 609 574 575
f 609 608 574
f 577 610 576
f 577 611 610
f 612 577 578
f 612 611 577
f 615 573 607
f 615 580 573
f 615 579 580
f 615 614 579
f 609 575 582
f 609 582 617
f 616 608 609
f 616 609 617
f 610 583 576
f 610 618 583
f 618 582 583
f 618 617 582
f 619 618 610
f 619 610 611
f 612 578 584
f 612 584 620
f 619 611 612
f 619 612 620
f 621 584 585
f 621 620 584
f 614 586 579
f 614 623 586
f 622 614 613
f 622 623 614
f 626 625 617
f 626 617 618
f 621 585 587
f 621 587 628
f 627 620 621
f 627 621 628
f 629 586 623
f 629 588 586
f 589 588 629
f 589 629 630
f 629 623 624
f 629 624 630
f 590 589 630
f 590 630 631
f 636 628 587
f 636 587 594
f 636 594 593
f 636 593 635
f 636 635 627
f 636 627 628
f 637 590 631
f 637 597 590
f 598 597 637
f 598 637 638
f 637 631 632
f 637 632 638
f 638 632 633
f 638 633 639
f 600 599 639
f 600 639 640
f 640 639 633
f 640 633 634
f 641 635 593
f 641 593 601
f 641 601 600
f 641 600 640
f 641 640 634
f 641 634 635
f 642 598 638
f 642 605 598
f 643 639 599
f 643 599 606
f 606 605 642
f 606 642 643
f 642 638 639
f 642 639 643
f 645 607 608
f 645 644 607
f 647 613 614
f 647 646 613
f 644 615 607
f 644 648 615
f 615 647 614
f 615 648 647
f 645 608 616
f 645 616 649
f 649 648 644
f 649 644 645
f 650 616 617
f 650 649 616
f 619 651 618
f 619 652 651
f 653 619 620
f 653 652 619
f 646 622 613
f 646 654 622
f 655 623 622
f 655 622 654
f 654 646 647
f 654 647 655
f 624 623 655
f 624 655 656
f 656 655 647
f 656 647 648
f 650 617 625
f 650 625 658
f 651 626 618
f 651 659 626
f 626 658 625
f 626 659 658
f 660 659 651
f 660 651 652
f 653 620 627
f 653 627 661
f 660 652 653
f 660 653 661
f 662 624 656
f 662 630 624
f 631 630 662
f 631 662 663
f 662 656 657
f 662 657 663
f 632 631 663
f 632 663 664
f 633 632 664
f 633 664 665
f 634 633 665
f 634 665 666
f 667 661 627
f 667 627 635
f 667 635 634
f 667 634 666
f 649 668 648
f 649 669 668
f 670 649 650
f 670 669 649
f 668 656 648
f 668 671 656
f 657 656 671
f 657 671 672
f 671 668 669
f 671 669 672
f 670 650 658
f 670 658 673
f 672 669 670
f 672 670 673
f 674 658 659
f 674 673 658
f 660 674 659
f 660 675 674
f 661 675 660
f 661 676 675
f 677 657 672
f 677 663 657
f 664 663 677
f 664 677 678
f 677 672 673
f 677 673 678
f 679 665 664
f 679 664 678
f 680 666 665
f 680 665 679
f 680 679 674
f 680 674 675
f 676 661 667
f 676 667 681
f 667 666 680
f 667 680 681
f 680 675 676
f 680 676 681
f 683 673 674
f 683 682 673
f 682 678 673
f 682 684 678
f 683 674 679
f 683 679 685
f 685 679 678
f 685 678 684
f 684 682 683
f 684 683 685
