# parsimony mesh: g7087_monomer (source /Users/eranagmon/code/v2e-molecules/workspace/studies/ecoli-3d/viz/3d/structures/g7087_monomer.pdb)
# atoms: 894  voxel: 8 Å  verts: 168  tris: 340
v 20.5278 7.8449 -34.6297
v 23.2106 7.8449 -34.6297
v 20.5278 10.2463 -34.6297
v 23.2106 10.2463 -34.6297
v 4.9313 -6.9390 -26.2187
v 9.6299 -6.9524 -26.2686
v 14.1503 -6.6769 -26.0615
v 4.7350 -2.5191 -26.3833
v 9.6299 -2.5191 -27.3562
v 17.1421 -2.6281 -27.7255
v 25.6299 -0.1776 -27.8586
v 30.5679 0.7845 -26.7435
v 5.1353 2.3432 -26.2144
v 9.6299 3.2540 -26.9706
v 17.9526 5.4138 -29.9959
v 25.8331 5.5617 -29.8667
v 30.5679 3.2786 -26.7435
v 20.1139 10.3799 -29.8831
v 23.9346 10.3799 -29.8831
v -3.7618 -8.6188 -18.9276
v 2.0107 -8.8404 -21.7098
v 9.6299 -8.1341 -21.8831
v 17.1421 -6.8846 -21.5114
v 22.1222 -6.7442 -18.5970
v -3.7618 -4.1252 -18.9276
v 0.9119 -1.8827 -21.7098
v 19.4836 -5.3674 -23.9303
v 25.1253 -3.2859 -21.5114
v 30.5440 0.6587 -21.8831
v 4.2564 2.2076 -21.8831
v 9.6299 3.9142 -21.8831
v 17.8784 7.0617 -22.0865
v 25.7253 6.9710 -22.0865
v 30.5440 3.0742 -21.8831
v 20.7108 9.9143 -24.8889
v 23.1222 9.9143 -24.8889
v -12.8122 -14.8341 -10.7801
v -8.5480 -14.8341 -10.7801
v -14.1579 -10.5191 -11.4321
v -6.1549 -11.3542 -13.5824
v 1.6299 -11.5297 -13.8831
v 9.3127 -8.0611 -14.2803
v 17.6299 -6.8576 -16.7921
v 22.1222 -6.7442 -17.0998
v -12.9783 -5.9210 -11.0515
v -6.4051 -4.1575 -13.7841
v 1.6279 -0.6485 -14.4079
v 9.1394 -2.6959 -11.9847
v 17.6299 -4.6677 -12.7921
v 24.9991 -2.0847 -14.6479
v 29.9107 1.0810 -17.5292
v 4.2932 1.5876 -17.4244
v 9.4491 4.5878 -13.9399
v 17.5857 7.1617 -13.4265
v 25.3775 3.6935 -14.4708
v 29.9107 1.8077 -17.5292
v 12.3872 9.8003 -10.4554
v 14.8895 9.8003 -10.4554
v -20.1012 -16.4832 -4.4697
v -15.0354 -16.4420 -6.6350
v -8.2586 -15.4496 -5.8831
v -20.1012 -12.9670 -4.4697
v -17.4598 -10.3878 -6.6350
v -4.9653 -11.0614 -6.1761
v 1.6299 -8.9429 -8.9085
v 6.4345 -7.5136 -9.4286
v -13.4006 -5.4885 -5.8831
v -6.6545 -5.1282 -6.1761
v 2.4729 -2.5960 -6.6302
v 8.2620 -2.2938 -7.3537
v 17.5223 -0.7235 -6.0553
v 22.5425 0.0828 -8.8367
v 3.1955 5.4809 -4.4632
v 9.9291 7.0821 -5.8660
v 17.5033 6.1832 -5.6199
v 22.5425 3.1494 -8.8367
v 4.4170 10.5250 -3.6138
v 10.2051 10.1627 -5.6751
v 14.8895 9.8003 -7.7364
v -26.7982 -22.8575 5.3613
v -25.0187 -22.8575 5.3613
v -27.5956 -18.5191 4.1785
v -22.5599 -18.9006 2.1580
v -14.6378 -17.1323 2.0836
v -9.3768 -15.4446 -0.6053
v -27.5760 -13.2543 4.2879
v -22.6087 -12.5350 1.8195
v -14.6427 -10.8314 1.7392
v -8.9806 -10.5191 -0.4497
v -11.8025 -5.7430 -1.2497
v -6.0800 -2.2624 1.7455
v 1.2101 0.4287 2.0912
v 9.4109 0.1009 1.9898
v 14.7838 0.6718 -0.7616
v -3.2986 5.4809 4.3607
v -0.8045 5.4809 0.3607
v 11.4674 6.1226 1.9898
v 14.7838 3.8837 -0.7616
v -3.3290 12.0043 5.1515
v 1.7022 12.0961 2.3377
v 8.2006 10.8574 2.1169
v -26.7982 -22.8575 7.6875
v -25.0187 -22.8575 7.6875
v -34.9565 -16.3153 13.1446
v -29.8538 -18.8725 10.4161
v -22.7534 -18.7072 9.8801
v -17.4829 -15.9847 6.7392
v -34.9565 -13.5332 13.1446
v -30.2937 -12.8983 10.3335
v -22.8410 -13.1959 9.6903
v -17.4829 -14.0291 6.7392
v -2.8106 1.1997 10.1169
v 0.9945 0.9033 9.9103
v 6.5982 0.8932 7.1059
v -10.3714 9.4786 14.1146
v -6.4978 6.2796 10.9155
v 3.2376 3.9548 12.4392
v 6.8772 6.1653 9.9103
v -10.3714 9.4934 14.1146
v -6.1454 12.1460 10.9155
v 1.6299 13.7329 10.1169
v 6.4628 10.4109 10.1169
v -34.9565 -16.3153 14.7874
v -30.3701 -17.0492 14.8805
v -25.8215 -16.0964 14.4645
v -34.9565 -13.5332 14.7874
v -30.3701 -13.4417 14.8805
v -25.8215 -14.0685 14.4645
v -2.6782 1.3688 14.4891
v -2.0958 1.3688 14.4891
v -10.9982 8.6004 18.1169
v -5.7550 5.0554 17.5403
v 0.6631 6.2836 17.0301
v 5.7059 9.2882 14.2377
v -11.3524 12.6884 17.9203
v -6.3701 14.9198 15.8744
v 0.7415 13.3250 17.5128
v 5.7059 9.9297 14.2377
v -11.1698 17.7919 20.4560
v -6.3701 18.1633 19.8744
v -1.9391 18.0798 20.7879
v -11.6560 8.0000 26.1169
v -6.5571 7.7751 25.7290
v -1.9113 8.6124 22.8037
v -13.5093 13.4809 26.1169
v -4.5854 13.4809 27.2337
v -1.7027 13.4809 23.2337
v -12.2234 18.8237 26.1169
v -6.3554 18.9144 25.7983
v -1.9391 18.0798 22.9191
v -11.2416 0.9588 37.4165
v -9.1291 0.9588 37.4165
v -18.4479 9.2964 37.9607
v -13.9117 6.3206 35.0219
v -8.2357 5.7993 34.4967
v -18.4479 9.5581 37.9607
v -14.3116 12.6640 34.6233
v -8.1656 13.2544 34.0183
v -12.0415 18.9603 31.2859
v -9.0123 18.9603 31.2859
v -11.2416 0.9588 39.3913
v -9.1291 0.9588 39.3913
v -18.4479 9.2964 38.1981
v -14.0930 6.1702 39.9642
v -8.4684 5.4809 40.3652
v -18.4479 9.5581 38.1981
v -14.3701 10.2556 39.4702
v -9.0756 10.4366 39.8402
f 3 2 1
f 3 4 2
f 9 5 8
f 9 6 5
f 9 7 6
f 9 10 7
f 13 9 8
f 13 14 9
f 14 10 9
f 14 15 10
f 2 15 1
f 2 16 15
f 15 11 10
f 15 16 11
f 17 11 16
f 17 12 11
f 18 1 15
f 18 3 1
f 19 16 2
f 19 2 4
f 4 3 18
f 4 18 19
f 22 5 6
f 22 21 5
f 7 22 6
f 7 23 22
f 26 5 21
f 26 8 5
f 25 21 20
f 25 26 21
f 27 23 7
f 27 7 10
f 11 27 10
f 11 28 27
f 27 24 23
f 27 28 24
f 29 11 12
f 29 28 11
f 30 8 26
f 30 13 8
f 31 14 13
f 31 13 30
f 32 15 14
f 32 14 31
f 34 29 12
f 34 12 17
f 17 16 33
f 17 33 34
f 35 15 32
f 35 18 15
f 36 33 16
f 36 16 19
f 36 19 18
f 36 18 35
f 35 32 33
f 35 33 36
f 39 38 37
f 39 40 38
f 41 20 21
f 41 40 20
f 42 21 22
f 42 41 21
f 43 22 23
f 43 42 22
f 24 43 23
f 24 44 43
f 46 20 40
f 46 25 20
f 45 40 39
f 45 46 40
f 47 26 25
f 47 25 46
f 49 48 42
f 49 42 43
f 44 24 28
f 44 28 50
f 49 43 44
f 49 44 50
f 51 28 29
f 51 50 28
f 52 26 47
f 52 30 26
f 31 30 52
f 31 52 53
f 52 47 48
f 52 48 53
f 32 31 53
f 32 53 54
f 55 33 32
f 55 32 54
f 56 51 29
f 56 29 34
f 56 34 33
f 56 33 55
f 55 50 51
f 55 51 56
f 57 54 53
f 57 58 54
f 61 37 38
f 61 60 37
f 63 37 60
f 63 39 37
f 62 60 59
f 62 63 60
f 64 61 38
f 64 38 40
f 65 40 41
f 65 64 40
f 66 41 42
f 66 65 41
f 67 39 63
f 67 45 39
f 68 46 45
f 68 45 67
f 69 47 46
f 69 46 68
f 68 64 65
f 68 65 69
f 66 42 48
f 66 48 70
f 48 47 69
f 48 69 70
f 69 65 66
f 69 66 70
f 71 48 49
f 71 70 48
f 72 49 50
f 72 71 49
f 70 53 48
f 70 74 53
f 73 70 69
f 73 74 70
f 72 50 55
f 72 55 76
f 76 55 54
f 76 54 75
f 76 75 71
f 76 71 72
f 74 57 53
f 74 78 57
f 77 74 73
f 77 78 74
f 75 54 58
f 75 58 79
f 79 58 57
f 79 57 78
f 79 78 74
f 79 74 75
f 82 81 80
f 82 83 81
f 84 59 60
f 84 83 59
f 85 60 61
f 85 84 60
f 87 59 83
f 87 62 59
f 86 83 82
f 86 87 83
f 88 63 62
f 88 62 87
f 89 85 61
f 89 61 64
f 88 84 85
f 88 85 89
f 90 63 88
f 90 67 63
f 89 64 68
f 89 68 91
f 68 67 90
f 68 90 91
f 90 88 89
f 90 89 91
f 93 69 70
f 93 92 69
f 94 70 71
f 94 93 70
f 92 73 69
f 92 96 73
f 95 92 91
f 95 96 92
f 98 94 71
f 98 71 75
f 98 75 74
f 98 74 97
f 97 93 94
f 97 94 98
f 96 77 73
f 96 100 77
f 99 96 95
f 99 100 96
f 97 74 78
f 97 78 101
f 101 78 77
f 101 77 100
f 81 102 80
f 81 103 102
f 102 82 80
f 102 105 82
f 106 103 81
f 106 81 83
f 106 105 102
f 106 102 103
f 107 83 84
f 107 106 83
f 105 86 82
f 105 109 86
f 109 104 108
f 109 105 104
f 110 87 86
f 110 86 109
f 111 107 84
f 111 84 88
f 111 88 87
f 111 87 110
f 110 106 107
f 110 107 111
f 92 112 91
f 92 113 112
f 114 92 93
f 114 113 92
f 112 95 91
f 112 116 95
f 114 93 97
f 114 97 118
f 117 113 114
f 117 114 118
f 116 99 95
f 116 120 99
f 120 115 119
f 120 116 115
f 121 100 99
f 121 99 120
f 118 97 101
f 118 101 122
f 122 101 100
f 122 100 121
f 124 104 105
f 124 123 104
f 125 105 106
f 125 124 105
f 123 108 104
f 123 126 108
f 127 109 108
f 127 108 126
f 127 126 123
f 127 123 124
f 125 106 110
f 125 110 128
f 128 110 109
f 128 109 127
f 127 124 125
f 127 125 128
f 130 112 113
f 130 129 112
f 129 116 112
f 129 132 116
f 132 115 116
f 132 131 115
f 130 113 117
f 130 117 133
f 132 129 130
f 132 130 133
f 134 117 118
f 134 133 117
f 131 119 115
f 131 135 119
f 136 120 119
f 136 119 135
f 137 121 120
f 137 120 136
f 134 118 122
f 134 122 138
f 138 122 121
f 138 121 137
f 138 137 133
f 138 133 134
f 139 136 135
f 139 140 136
f 141 136 140
f 141 137 136
f 143 131 132
f 143 142 131
f 144 132 133
f 144 143 132
f 142 135 131
f 142 145 135
f 144 133 137
f 144 137 147
f 146 143 144
f 146 144 147
f 145 139 135
f 145 148 139
f 149 140 139
f 149 139 148
f 147 137 141
f 147 141 150
f 150 141 140
f 150 140 149
f 150 149 146
f 150 146 147
f 155 142 143
f 155 154 142
f 155 151 154
f 155 152 151
f 157 142 154
f 157 145 142
f 157 153 156
f 157 154 153
f 158 155 143
f 158 143 146
f 159 145 157
f 159 148 145
f 160 158 146
f 160 146 149
f 160 149 148
f 160 148 159
f 159 157 158
f 159 158 160
f 152 161 151
f 152 162 161
f 164 151 161
f 164 154 151
f 164 153 154
f 164 163 153
f 165 162 152
f 165 152 155
f 165 164 161
f 165 161 162
f 163 156 153
f 163 166 156
f 167 157 156
f 167 156 166
f 167 166 163
f 167 163 164
f 168 165 155
f 168 155 158
f 168 158 157
f 168 157 167
f 168 167 164
f 168 164 165
