# parsimony mesh: g7312_monomer (source /Users/eranagmon/code/v2e-abund/workspace/studies/ecoli-3d/viz/3d/structures/g7312_monomer.pdb)
# atoms: 936  voxel: 16 Å  verts: 34  tris: 50
v -1.2434 -7.3090 -17.2334
v 11.1175 -6.8580 -16.8166
v 19.2558 -5.1875 -15.1716
v -1.2434 -1.4487 -17.2334
v 11.1175 -1.9741 -16.8166
v 19.2558 -4.5357 -15.1716
v -13.4914 -5.5322 -1.4948
v -5.8991 -8.1316 -6.8866
v 11.1175 -8.8792 -6.9742
v 19.4244 -5.3782 -6.9742
v -13.9569 2.9714 -2.1867
v -5.8991 3.5193 -9.7368
v 10.9087 4.3563 -7.1668
v 19.4244 -3.9824 -6.9742
v -13.7061 11.6981 -0.7370
v -4.8825 12.3134 -2.5370
v 5.4362 12.0340 -1.9618
v -13.4798 -5.5156 9.0258
v -4.6342 -6.8508 10.4492
v 11.1175 -7.0498 5.3859
v 19.3884 -5.3359 1.8003
v -14.2646 2.9714 9.0258
v 0.2665 2.9714 16.5366
v 10.9087 1.9127 7.4991
v 19.3884 -4.1265 1.8003
v -13.6673 11.6548 9.0258
v -4.2117 12.1556 10.4111
v 5.4362 12.0340 6.0013
v -13.0700 -5.1744 17.1570
v -9.8019 -5.1744 17.1570
v -13.1902 2.9714 17.2805
v -7.7335 2.9714 17.2805
v -13.1054 11.1558 17.2342
v -9.0978 11.1558 17.2342
f 5 1 4
f 5 2 1
f 6 2 5
f 6 3 2
f 9 1 2
f 9 8 1
f 3 9 2
f 3 10 9
f 8 4 1
f 8 12 4
f 12 7 11
f 12 8 7
f 13 5 4
f 13 4 12
f 14 6 5
f 14 5 13
f 16 11 15
f 16 12 11
f 17 12 16
f 17 13 12
f 19 7 8
f 19 18 7
f 20 8 9
f 20 19 8
f 21 9 10
f 21 20 9
f 22 7 18
f 22 11 7
f 24 23 19
f 24 19 20
f 25 14 13
f 25 13 24
f 25 24 20
f 25 20 21
f 22 15 11
f 22 26 15
f 24 13 17
f 24 17 28
f 28 27 23
f 28 23 24
f 30 18 19
f 30 29 18
f 29 22 18
f 29 31 22
f 32 30 19
f 32 19 23
f 33 22 31
f 33 26 22
f 32 23 27
f 32 27 34
