# parsimony mesh: g7315_monomer (source /Users/eranagmon/code/v2e-flagella/workspace/studies/ecoli-3d/viz/3d/structures/g7315_monomer.pdb)
# atoms: 526  voxel: 8 Å  verts: 127  tris: 252
v 21.4622 -21.3427 -28.4874
v 25.4953 -21.7897 -28.8734
v 30.1528 -21.9179 -28.9848
v 21.4622 -20.1703 -28.4874
v 25.4953 -18.7709 -28.8734
v 30.1528 -19.0654 -28.9848
v 21.2436 2.5156 -28.5410
v 21.5679 2.5156 -28.5410
v 21.2436 2.8543 -28.5410
v 21.5679 2.8543 -28.5410
v 21.4622 -21.3427 -28.3695
v 25.4953 -21.7897 -27.7493
v 30.1528 -21.9179 -27.6039
v 21.0519 -17.3925 -25.6854
v 24.1630 -16.9897 -25.7144
v 30.1528 -19.0654 -27.6039
v 12.9910 -6.0792 -21.2276
v 17.7830 -8.9722 -23.0830
v 25.2300 -8.5545 -22.6488
v 29.5302 -5.3831 -20.5040
v 12.9910 -3.4572 -21.2276
v 17.7555 -0.4708 -24.0429
v 25.1733 -1.2123 -23.6811
v 29.5302 -4.9402 -20.5040
v 12.3066 8.7720 -21.3593
v 17.7555 5.8132 -24.1161
v 23.5702 5.9879 -24.3084
v 12.3066 11.6260 -21.3593
v 17.4953 12.4124 -21.9435
v 22.9310 12.0494 -21.5396
v 20.6415 -14.6146 -19.8708
v 22.3865 -14.6146 -19.8708
v 12.9910 -6.0792 -19.9416
v 17.7830 -8.9722 -19.3200
v 25.2300 -8.5545 -19.5417
v 29.5302 -5.3831 -20.3111
v 12.9910 -3.4572 -19.9416
v 17.1586 -0.9990 -18.7908
v 25.8653 -1.8888 -19.0125
v 29.5302 -4.9402 -20.3111
v 4.4830 8.2548 -13.5961
v 9.5821 7.0332 -16.3422
v 17.7122 6.1925 -15.9123
v 24.0346 6.6883 -17.6377
v 4.4830 11.9619 -13.5961
v 9.5821 13.3082 -16.3422
v 18.8014 14.6769 -14.8691
v 22.3400 14.4600 -15.6716
v 19.9830 18.8887 -13.1740
v 21.7490 18.8887 -13.1740
v -3.5403 1.9123 -5.2972
v 1.4953 1.9089 -6.7543
v 5.9154 2.4251 -6.6828
v -4.9253 6.6883 -5.9038
v 1.6879 6.0282 -10.1482
v 8.9473 4.7484 -8.9943
v 15.5471 9.0886 -8.4615
v -4.6965 11.6711 -5.5488
v 1.6879 12.6971 -8.3139
v 9.4953 14.3161 -8.4615
v 17.4482 14.3972 -10.0676
v 21.7490 16.8707 -12.2091
v 19.9830 18.8887 -12.2091
v 21.7490 18.8887 -12.2091
v -11.2888 2.0432 2.9211
v -6.3261 1.2124 -0.0319
v 2.1806 1.4415 0.0676
v 5.9154 2.4251 -2.2464
v -11.5812 6.6883 1.4222
v -8.9253 6.6883 -2.5778
v 4.2482 6.6883 2.5774
v 8.9473 7.2538 -1.8739
v 13.9026 10.2974 -4.2006
v -11.1559 11.5237 1.3342
v -7.0198 11.9555 -0.9840
v 1.4123 12.1093 -0.1594
v 9.4953 11.7445 -2.8882
v 13.9026 11.0049 -4.2006
v -19.1764 -6.1492 10.3278
v -14.5047 -6.3150 10.0961
v -8.7113 -5.8119 10.8260
v -19.2998 -1.3117 10.0310
v -14.1752 -0.8987 6.7050
v -6.1423 -0.8202 7.9418
v -0.0292 1.6496 5.0575
v -18.8931 3.2103 10.7392
v -13.8891 6.5813 8.0474
v -6.3459 7.0467 9.0817
v 0.2482 6.6883 5.1047
v -11.1559 11.5237 5.3556
v -6.5047 11.5353 5.3282
v -1.3097 10.9822 4.1077
v -27.2939 -6.6215 18.7711
v -22.1077 -7.5370 15.8781
v -14.5047 -7.5949 15.5385
v -9.0573 -5.7956 15.5385
v -27.2939 -4.3571 18.7711
v -21.7014 -1.0022 16.1896
v -16.6737 2.3527 18.9413
v -7.8119 -1.3117 15.5385
v -18.8931 3.2103 13.6080
v -14.2061 4.1995 15.9802
v -9.2593 4.1859 15.5385
v -28.0240 -7.9303 23.5385
v -21.7979 -8.3435 24.2202
v -14.5047 -6.5916 21.5941
v -10.3682 -5.4567 19.8099
v -28.0240 -3.5078 23.5385
v -21.7979 -2.4700 24.2202
v -14.2061 -0.7131 21.2205
v -10.3554 -1.3117 19.7890
v -11.3404 2.7544 19.6011
v -10.4421 2.7544 19.6011
v -35.1754 -14.3255 34.3935
v -32.9683 -14.3255 34.3935
v -35.1754 -12.0163 34.3935
v -29.9200 -9.2789 32.7621
v -24.5369 -7.2259 31.5385
v -27.6338 -4.1692 31.5385
v -24.5369 -4.1692 31.5385
v -35.1754 -14.3255 37.2952
v -32.9683 -14.3255 37.2952
v -35.1754 -12.0163 37.2952
v -29.8710 -8.8493 36.4750
v -26.3923 -5.6822 35.6549
v -26.7736 -5.2389 35.6549
v -26.3923 -5.2389 35.6549
f 4 2 1
f 4 5 2
f 6 2 5
f 6 3 2
f 9 8 7
f 9 10 8
f 2 11 1
f 2 12 11
f 3 12 2
f 3 13 12
f 11 4 1
f 11 14 4
f 15 5 4
f 15 4 14
f 15 14 11
f 15 11 12
f 13 3 6
f 13 6 16
f 16 6 5
f 16 5 15
f 16 15 12
f 16 12 13
f 19 14 18
f 19 15 14
f 21 18 17
f 21 22 18
f 8 22 7
f 8 23 22
f 23 18 22
f 23 19 18
f 24 19 23
f 24 20 19
f 26 7 22
f 26 9 7
f 27 23 8
f 27 8 10
f 27 10 9
f 27 9 26
f 29 25 28
f 29 26 25
f 30 26 29
f 30 27 26
f 32 14 15
f 32 31 14
f 31 18 14
f 31 34 18
f 34 17 18
f 34 33 17
f 32 15 19
f 32 19 35
f 34 31 32
f 34 32 35
f 20 35 19
f 20 36 35
f 33 21 17
f 33 37 21
f 38 22 21
f 38 21 37
f 38 37 33
f 38 33 34
f 39 38 34
f 39 34 35
f 36 20 24
f 36 24 40
f 24 23 39
f 24 39 40
f 39 35 36
f 39 36 40
f 38 26 22
f 38 43 26
f 43 25 26
f 43 42 25
f 39 23 27
f 39 27 44
f 44 43 38
f 44 38 39
f 46 25 42
f 46 28 25
f 45 42 41
f 45 46 42
f 47 29 28
f 47 28 46
f 44 27 30
f 44 30 48
f 48 30 29
f 48 29 47
f 48 47 43
f 48 43 44
f 50 47 49
f 50 48 47
f 54 52 51
f 54 55 52
f 56 41 42
f 56 55 41
f 55 53 52
f 55 56 53
f 57 42 43
f 57 56 42
f 55 45 41
f 55 59 45
f 59 54 58
f 59 55 54
f 60 46 45
f 60 45 59
f 57 43 47
f 57 47 61
f 61 47 46
f 61 46 60
f 62 47 48
f 62 61 47
f 63 47 61
f 63 49 47
f 62 48 50
f 62 50 64
f 50 49 63
f 50 63 64
f 63 61 62
f 63 62 64
f 67 51 52
f 67 66 51
f 68 52 53
f 68 67 52
f 70 51 66
f 70 54 51
f 70 65 69
f 70 66 65
f 72 68 53
f 72 53 56
f 71 67 68
f 71 68 72
f 73 56 57
f 73 72 56
f 70 58 54
f 70 75 58
f 74 70 69
f 74 75 70
f 76 59 58
f 76 58 75
f 77 60 59
f 77 59 76
f 77 76 71
f 77 71 72
f 78 73 57
f 78 57 61
f 78 61 60
f 78 60 77
f 77 72 73
f 77 73 78
f 82 80 79
f 82 83 80
f 84 65 66
f 84 83 65
f 83 81 80
f 83 84 81
f 85 66 67
f 85 84 66
f 87 65 83
f 87 69 65
f 86 83 82
f 86 87 83
f 85 67 71
f 85 71 89
f 88 84 85
f 88 85 89
f 90 69 87
f 90 74 69
f 91 75 74
f 91 74 90
f 90 87 88
f 90 88 91
f 92 89 71
f 92 71 76
f 92 76 75
f 92 75 91
f 92 91 88
f 92 88 89
f 95 79 80
f 95 94 79
f 81 95 80
f 81 96 95
f 98 79 94
f 98 82 79
f 97 94 93
f 97 98 94
f 100 96 81
f 100 81 84
f 101 82 98
f 101 86 82
f 102 87 86
f 102 86 101
f 101 98 99
f 101 99 102
f 103 100 84
f 103 84 88
f 103 88 87
f 103 87 102
f 105 93 94
f 105 104 93
f 106 94 95
f 106 105 94
f 107 95 96
f 107 106 95
f 108 93 104
f 108 97 93
f 109 98 97
f 109 97 108
f 99 98 109
f 99 109 110
f 109 105 106
f 109 106 110
f 111 107 96
f 111 96 100
f 110 106 107
f 110 107 111
f 112 99 110
f 112 102 99
f 113 111 100
f 113 100 103
f 103 102 112
f 103 112 113
f 112 110 111
f 112 111 113
f 116 115 114
f 116 117 115
f 118 104 105
f 118 117 104
f 119 104 117
f 119 108 104
f 120 118 105
f 120 105 109
f 120 109 108
f 120 108 119
f 115 121 114
f 115 122 121
f 121 116 114
f 121 123 116
f 124 122 115
f 124 115 117
f 124 117 116
f 124 116 123
f 123 121 122
f 123 122 124
f 125 117 118
f 125 124 117
f 126 117 124
f 126 119 117
f 125 118 120
f 125 120 127
f 127 120 119
f 127 119 126
f 126 124 125
f 126 125 127
