# parsimony mesh: g7312_monomer (source /Users/eranagmon/code/v2e-cplx/workspace/studies/ecoli-3d/viz/3d/structures/g7312_monomer.pdb)
# atoms: 936  voxel: 2.5 Å  verts: 1587  tris: 3312
v 9.6916 -2.0630 -24.5114
v 10.1673 -2.0630 -24.5114
v 7.4365 -0.1882 -24.5993
v 8.8619 -0.9244 -24.6723
v 10.2884 -0.7786 -24.6279
v 7.4365 0.7088 -24.5993
v 8.8675 0.8121 -24.6939
v 10.2955 0.6883 -24.6420
v 2.5634 -4.6040 -22.0041
v 2.7060 -4.6040 -22.0041
v 2.5634 -4.4576 -22.0041
v 3.7818 -3.3960 -22.1529
v 6.3675 -2.6924 -22.8087
v 8.8619 -2.5711 -23.4453
v 10.7354 -2.2721 -23.2242
v 4.8235 -0.7786 -22.3607
v 6.5089 -0.9244 -23.7545
v 8.0249 -1.8549 -24.4260
v 11.7186 -0.9901 -23.1422
v 13.0302 -0.2978 -22.2543
v 4.8447 1.7214 -22.3389
v 6.5089 1.6139 -23.5571
v 9.0806 2.1967 -23.2653
v 11.2243 1.3475 -23.1422
v 13.0302 0.9601 -22.2543
v 4.8857 3.4597 -22.2725
v 6.2624 4.2644 -22.8182
v 9.0806 4.2629 -22.6739
v 10.1386 5.1239 -22.0319
v 7.0257 5.8372 -22.5974
v 8.8675 5.7663 -22.4849
v 10.1386 5.4988 -22.0319
v -2.6249 -7.2955 -19.6465
v -1.1325 -7.5899 -19.8473
v 1.3675 -7.6105 -19.9962
v 3.1381 -7.3230 -19.8452
v -2.6249 -6.6827 -19.6465
v -0.8986 -5.8211 -19.7817
v 1.5850 -5.5739 -20.9009
v 3.7554 -5.6678 -20.7053
v 5.7660 -5.0648 -19.8988
v 9.4949 -4.7900 -19.7236
v 10.4155 -4.7900 -19.7236
v 0.0907 -4.5012 -19.4893
v 1.5728 -3.6461 -20.4680
v 3.7818 -3.3960 -21.5061
v 6.5066 -3.9983 -20.7290
v 8.7439 -3.9891 -20.6238
v 11.0846 -3.2028 -20.6238
v 2.2489 -1.6733 -19.7801
v 3.6943 -0.8155 -20.6577
v 12.3528 -1.8505 -20.7242
v 13.8651 -0.7079 -20.7423
v 15.6139 -0.0649 -19.9210
v 4.7112 1.6877 -20.7227
v 5.4153 2.4985 -19.8884
v 10.0560 2.8927 -21.9178
v 11.3675 2.6539 -21.5202
v 13.7741 1.7812 -20.6731
v 15.6139 0.9355 -19.9210
v 4.8857 3.4597 -21.5551
v 5.8921 4.2644 -20.7227
v 9.8368 4.4150 -20.9964
v 10.8408 4.2672 -20.9008
v 12.8512 3.1075 -19.7585
v 7.1124 5.7809 -20.7242
v 8.8176 5.7354 -20.8346
v 10.1386 5.4988 -21.7416
v -0.4348 -9.7706 -17.4074
v 1.3675 -9.7383 -17.3426
v 2.6891 -9.5662 -17.0322
v -2.8403 -7.6678 -18.2242
v -1.2139 -8.8288 -18.2341
v 1.3675 -8.8605 -18.5926
v 3.7470 -8.1859 -18.1037
v 6.3675 -7.4493 -17.5939
v 7.8236 -7.2359 -17.2660
v -2.8403 -6.3842 -18.2242
v -1.3884 -5.1342 -18.2242
v 4.8048 -6.7315 -19.1752
v 6.5066 -5.8503 -18.6094
v 8.6593 -5.5876 -18.0697
v 10.5041 -4.8672 -18.2242
v -2.4161 -2.1557 -17.0333
v -0.8865 -3.3285 -18.0974
v 0.5822 -2.8346 -19.1615
v 7.4327 -4.4263 -18.8733
v 7.8282 -4.4263 -18.8733
v 11.3760 -3.2786 -18.2242
v 14.9727 -2.0771 -17.1343
v 15.2251 -2.0771 -17.1343
v -2.4161 -1.8515 -17.0333
v -1.2346 -0.9223 -17.5420
v 1.5834 -0.6240 -18.2511
v 3.0686 0.0783 -18.2242
v 9.9889 0.4292 -17.0996
v 11.3577 -0.7766 -17.7422
v 14.0306 -1.5722 -18.0702
v 15.9502 -0.8504 -18.0702
v -0.4694 1.0218 -17.3408
v 1.7460 1.8265 -17.1645
v 3.7515 1.7315 -18.0857
v 5.4153 2.4985 -19.1833
v 9.9889 0.5227 -17.0996
v 10.1823 0.5227 -17.0996
v 14.5179 2.6022 -19.1251
v 16.2170 1.7499 -18.2648
v 2.5740 2.9835 -16.9881
v 3.8675 3.3035 -17.3915
v 6.4756 4.1223 -18.4299
v 8.7712 5.1077 -18.5168
v 11.3675 4.8746 -18.7902
v 13.5857 4.0370 -18.0689
v 15.6698 3.2998 -17.4585
v 7.5358 5.5182 -19.3432
v 8.7712 5.6598 -18.5168
v 11.3675 5.7476 -17.5402
v 12.6535 5.5098 -17.0126
v -2.8914 -10.0369 -15.0754
v -1.0830 -9.9038 -15.7203
v 1.3675 -9.7383 -16.1345
v 3.6634 -9.5956 -15.5000
v 5.1904 -9.6249 -14.5364
v -2.8209 -8.2355 -15.6952
v -1.4066 -8.5469 -15.3630
v 1.3675 -9.2323 -14.8845
v 3.6634 -9.2707 -15.5000
v 6.1612 -8.4883 -15.5115
v 7.8552 -7.3380 -15.7242
v -2.7505 -6.5152 -16.3150
v -1.6168 -5.7206 -15.5787
v 7.5729 -4.7444 -14.9236
v 8.6093 -5.5648 -15.7577
v 10.3350 -4.7186 -16.5917
v -2.4161 -2.1557 -16.8644
v -1.5252 -3.1049 -15.9083
v 2.4930 -2.0858 -14.5746
v 2.6545 -2.0858 -14.5746
v 7.5729 -4.4104 -14.9236
v 8.8675 -4.0524 -15.1494
v 11.3709 -3.2446 -15.7531
v 14.0306 -2.6407 -15.7384
v 15.7058 -2.4572 -15.7242
v -2.4161 -1.8515 -16.8644
v -1.8727 -0.9223 -15.9083
v 2.5388 -0.6767 -15.7099
v 2.6767 -0.6767 -15.7099
v 9.9889 0.4292 -16.9148
v 11.2946 -0.6545 -16.7480
v 13.3060 -1.7383 -16.5811
v 16.8040 -0.7786 -15.7242
v -5.3588 2.4721 -14.8616
v -3.6325 2.0670 -15.1772
v -1.3651 1.6433 -15.9061
v 1.7460 1.8265 -16.8166
v 2.6989 0.9644 -16.8451
v 9.9889 0.5227 -16.9148
v 10.1823 0.5227 -16.9148
v 14.6823 2.7616 -14.7782
v 16.3275 1.8455 -15.6566
v -7.9512 4.8297 -15.0296
v -6.1683 4.0864 -15.4307
v -3.4279 4.3946 -15.4274
v -1.1054 4.3946 -15.2413
v 1.3982 3.9740 -15.6718
v 4.0012 4.4330 -15.5902
v 6.3202 4.6156 -15.5902
v 8.1849 4.7037 -15.7242
v 14.1094 4.1684 -15.6566
v 15.6698 3.2998 -16.4449
v -7.8656 6.7214 -14.9501
v -6.1325 6.7214 -15.5751
v -4.1621 6.7214 -15.0991
v -0.2539 5.5281 -14.5554
v 0.2224 5.5281 -14.5554
v 4.9236 5.5773 -14.6676
v 5.4554 5.5773 -14.6676
v 9.4349 5.8692 -15.7242
v 11.3675 6.2316 -15.7242
v 12.9337 5.8338 -15.7242
v -7.4580 8.0501 -14.5533
v -6.1325 8.1705 -14.6699
v -4.6796 8.1582 -14.6560
v 2.2451 -12.2977 -12.1792
v 3.8675 -12.6488 -12.5510
v 6.3675 -12.5502 -12.5447
v 8.0093 -12.1662 -12.1708
v -4.9862 -9.6809 -12.1643
v -3.6878 -10.3657 -13.0882
v -1.4297 -10.4608 -13.2242
v 2.2451 -11.6084 -12.1792
v 3.7122 -10.6167 -13.1920
v 6.1612 -10.5864 -13.5128
v 8.0575 -10.7786 -12.2245
v -5.4023 -8.2786 -12.6187
v -3.6878 -8.1256 -13.7920
v -0.9828 -8.2090 -13.6186
v 1.3675 -8.6503 -13.2242
v 3.0095 -9.2059 -13.2242
v 6.8571 -8.9005 -13.7780
v 8.1007 -8.1518 -13.0564
v -5.4719 -6.2695 -12.6434
v -3.7716 -5.5731 -12.9129
v -1.8146 -5.7786 -13.8956
v 7.5729 -4.7444 -14.3503
v 8.7561 -5.5227 -13.2062
v 10.4762 -4.6344 -12.0620
v 14.4145 -5.0048 -12.3556
v 15.4860 -5.0048 -12.3556
v -2.8766 -3.2786 -12.2838
v -1.7000 -3.2786 -13.5338
v 2.4930 -2.0858 -14.3941
v 2.6545 -2.0858 -14.3941
v 7.4720 -3.3603 -13.2980
v 8.3995 -3.3057 -13.1465
v 11.3327 -3.9020 -13.0269
v 13.6957 -4.0258 -13.2030
v 16.4735 -3.4279 -13.3654
v 18.3885 -2.6377 -12.7086
v -2.3929 -1.9883 -11.9955
v -1.9379 -1.0044 -12.9869
v 2.4930 -1.7786 -14.3941
v 2.6545 -1.7786 -14.3941
v 6.9100 -0.7786 -12.4911
v 7.8540 -0.7786 -12.4911
v 17.3854 -0.7786 -14.2036
v 18.5945 -0.7786 -12.9536
v -7.3846 2.9668 -11.9838
v -6.1683 2.3606 -12.9799
v -3.6325 1.2317 -13.2242
v -2.1878 0.7417 -13.2242
v 6.9204 0.7684 -12.3919
v 7.7747 0.7684 -12.3919
v 14.6823 2.7616 -14.1041
v 16.5258 1.8455 -13.7772
v 18.1450 1.7214 -12.6306
v -7.6679 3.9132 -12.8539
v -7.1384 3.9132 -12.8539
v -2.4582 5.3434 -14.3806
v -1.9206 5.3434 -14.3806
v 1.8920 4.9701 -13.2242
v 3.4080 4.9701 -13.2242
v 7.1220 5.0766 -13.8697
v 8.0667 5.0766 -13.8697
v 12.3637 4.8107 -12.1510
v 13.8427 4.2142 -13.1275
v 16.3675 3.8031 -12.5494
v 17.7892 3.4342 -12.2779
v -7.8656 6.7214 -13.6438
v -6.3039 6.9636 -12.3264
v -3.7371 7.2516 -13.0748
v -0.9585 6.7202 -13.2444
v 0.6420 6.0945 -13.2242
v 4.6580 5.8394 -13.2242
v 6.2664 6.5501 -13.0040
v 8.7785 6.5352 -13.0040
v 11.4652 6.0148 -13.0803
v 13.0031 5.9162 -13.8176
v -7.4580 8.0501 -14.1172
v -6.1325 8.1705 -13.6022
v -3.9250 8.1283 -12.8883
v -1.6631 8.0983 -12.1082
v 7.0774 8.2461 -12.1382
v 7.8236 8.2461 -12.1382
v -4.9541 -12.0669 -9.5403
v -4.7104 -12.0669 -9.5403
v -0.5079 -12.2980 -9.9644
v 1.4550 -12.2979 -10.7527
v 3.7568 -12.8960 -10.7143
v 6.3675 -13.3728 -10.7242
v 8.8526 -12.5675 -10.8133
v 10.3602 -12.3109 -10.0394
v -5.0896 -10.6200 -10.5138
v -3.7792 -11.4603 -10.5138
v -1.1356 -11.0622 -10.8296
v 1.7456 -10.9450 -10.6517
v 2.8182 -10.5838 -10.5220
v 9.3075 -10.7786 -11.3805
v 10.4605 -10.7786 -10.1305
v -6.0557 -8.2786 -10.7242
v -0.0967 -9.1467 -11.6948
v 1.3675 -8.9466 -11.1613
v 2.7867 -9.1344 -11.1697
v 9.5214 -8.0758 -10.6601
v 10.3321 -8.7740 -9.7841
v 14.8422 -7.0500 -9.6027
v 15.1751 -7.0500 -9.6027
v -15.0654 -4.7401 -9.8479
v -13.6325 -4.8575 -10.0541
v -11.8295 -4.7557 -9.8737
v -7.7816 -4.9707 -9.6153
v -6.3611 -5.6201 -10.7508
v -3.6095 -4.7633 -10.8159
v -1.9500 -4.9238 -9.7457
v 9.8307 -5.5921 -10.7385
v 11.1504 -4.9638 -10.9208
v 13.7950 -5.9824 -10.7648
v 15.8043 -5.8143 -10.5513
v -15.0794 -3.2786 -9.8729
v -13.6325 -3.2786 -10.6821
v -11.0507 -3.4206 -10.3702
v -8.6220 -3.4206 -9.8115
v -6.1325 -3.2786 -10.3272
v -3.4387 -3.7654 -10.7290
v -0.9337 -3.3170 -9.6644
v 0.1838 -2.2194 -9.5831
v 7.3712 -2.3102 -11.8037
v 8.8850 -3.3926 -10.8592
v 11.6178 -3.6461 -10.4879
v 12.7508 -3.2316 -10.7745
v 17.1827 -4.2461 -10.7242
v 19.0801 -2.8663 -10.8040
v 20.2292 -2.1347 -10.0238
v -14.9622 -1.9055 -9.6321
v -13.6325 -1.3986 -10.1022
v -11.1365 -0.5984 -10.2059
v -8.6325 -0.7786 -10.0465
v -6.1325 -0.7786 -10.1596
v -3.3888 -1.0044 -11.2867
v -1.0810 -1.0975 -10.6936
v 0.1838 -1.8734 -9.5831
v 6.9100 -0.7786 -11.6385
v 7.8540 -0.7786 -11.6385
v 12.5526 -1.9649 -9.6220
v 12.7538 -1.9649 -9.6220
v 19.8445 -0.7786 -11.4982
v 20.4134 -0.7786 -10.2482
v -10.3059 0.7400 -9.5998
v -8.2451 1.8534 -10.4786
v -6.1325 1.3324 -11.2214
v -3.6325 0.8861 -11.5565
v -2.2446 0.7050 -11.8041
v 6.9204 0.7684 -11.6972
v 7.7747 0.7684 -11.6972
v 19.2210 1.6335 -10.7636
v 20.4003 0.7415 -9.9566
v -7.8647 3.9866 -10.9151
v -7.2514 4.6634 -11.8757
v 2.3787 5.3099 -11.7947
v 3.0319 5.3099 -11.7947
v 12.3637 4.8107 -11.5743
v 13.8675 4.8355 -11.5837
v 16.3675 5.0531 -11.7574
v 18.1762 4.2491 -10.8732
v -8.0404 6.7214 -10.3503
v -6.3780 6.9706 -10.8916
v -4.6021 7.7203 -10.7242
v 0.0036 7.9122 -11.8127
v 1.3170 6.8907 -10.9704
v 3.8910 6.6960 -10.9377
v 5.4108 7.5229 -11.7473
v 9.4903 7.3985 -11.2042
v 11.4652 6.6277 -10.7870
v 13.8675 6.7214 -10.4905
v 16.3675 6.7214 -10.7490
v 18.0522 6.7214 -10.0763
v -7.5146 8.0554 -9.9075
v -7.1712 8.0554 -9.9075
v -3.3521 8.3901 -10.7242
v -0.9508 8.3504 -10.8773
v 0.2554 8.0448 -10.1461
v 4.7500 8.2580 -10.0806
v 6.2934 8.5406 -10.8380
v 8.7412 8.4018 -10.5122
v 11.3675 8.0313 -9.5401
v 13.8675 8.1326 -9.6310
v 16.3675 8.2023 -9.7158
v 17.7401 8.0889 -9.6120
v -7.3956 -12.0489 -7.0134
v -5.9254 -12.3770 -7.9977
v -3.7792 -12.4549 -8.1708
v -1.2577 -12.5421 -8.1708
v 1.4459 -12.5441 -8.1759
v 3.7568 -12.8010 -8.1759
v 6.3675 -13.4415 -8.2242
v 8.8675 -12.8705 -8.2242
v 10.3693 -12.3080 -8.2242
v -7.3956 -11.9434 -7.0134
v -6.4506 -10.9775 -7.9977
v -3.0437 -11.8612 -8.9685
v -2.1745 -11.8612 -8.9685
v 2.3315 -11.2259 -8.9771
v 2.8497 -11.2259 -8.9771
v 10.9694 -10.7786 -8.2242
v -10.3638 -7.7403 -7.6387
v -8.6325 -7.9454 -7.9013
v -6.8283 -8.3350 -8.3171
v 10.0961 -7.1073 -9.4092
v 11.3509 -8.2218 -8.5727
v 14.0694 -7.3598 -8.5349
v 15.1751 -7.0500 -9.3334
v -15.0654 -4.7401 -9.2124
v -13.6325 -4.8575 -9.0350
v -11.0966 -5.5445 -8.3946
v -8.7650 -5.6520 -8.4256
v -7.2504 -6.6374 -9.2124
v -2.5215 -4.9238 -9.3409
v -1.9500 -4.9238 -9.3409
v 10.0091 -5.7786 -9.3737
v 11.6521 -5.4671 -8.4856
v 13.6299 -6.1084 -8.0376
v 15.8806 -5.8706 -8.3897
v -15.0794 -3.2786 -9.1669
v -13.6325 -3.2786 -8.4013
v -11.1055 -3.4443 -8.1305
v -9.4563 -4.1521 -8.2242
v -2.5215 -4.4145 -9.3409
v -0.9337 -3.3170 -9.3244
v 0.1838 -2.2194 -9.3079
v 9.9943 -4.4750 -9.4052
v 11.7378 -3.5809 -8.5513
v 12.7524 -3.1338 -8.1243
v 17.2782 -4.1380 -8.2242
v 18.8675 -3.3064 -8.2242
v 20.5263 -2.4470 -8.2242
v -14.9622 -1.9055 -9.3262
v -13.6325 -1.3986 -8.8404
v -11.7665 -0.5984 -8.0560
v 0.0826 -1.8734 -9.3079
v 0.1838 -1.8734 -9.3079
v 12.5526 -1.9649 -9.2056
v 12.7538 -1.9649 -9.2056
v 21.1397 -0.7786 -8.2242
v -10.6546 1.6325 -8.2283
v -9.1056 2.4066 -9.0644
v -4.9957 2.8975 -7.1030
v -4.8065 2.8975 -7.1030
v 19.5077 2.3298 -8.2242
v 20.7309 1.0798 -8.2242
v -10.1868 4.2214 -7.6795
v -9.2337 4.2214 -8.9295
v -4.9957 3.2333 -7.1030
v -4.8065 3.2333 -7.1030
v 17.3658 5.3707 -7.0481
v 18.4039 4.4110 -8.0185
v -9.9758 5.5990 -7.4911
v -8.6544 6.5755 -8.3835
v -6.2557 7.1069 -8.3553
v -3.6854 7.0609 -8.2303
v -1.1325 7.1630 -7.8375
v 1.2003 7.0729 -8.4087
v 3.8970 7.0866 -8.2969
v 6.3675 7.4039 -7.5434
v 7.8810 7.7738 -7.1953
v 17.3658 5.5374 -7.0481
v 18.2552 6.5110 -8.0185
v -7.5146 8.0554 -9.2760
v -7.1712 8.0554 -9.2760
v -2.8874 8.4027 -9.0678
v -1.1325 8.3499 -9.0875
v 0.2554 8.0448 -9.3651
v 4.7500 8.2580 -9.1787
v 6.3675 8.4770 -8.7934
v 8.8302 9.0261 -8.0274
v 11.3675 9.2813 -8.4244
v 13.6569 9.1835 -8.0032
v 16.3675 8.7056 -8.2242
v 18.0718 8.4589 -8.2242
v 9.5436 11.7214 -7.2850
v 11.2893 11.5213 -7.2518
v 12.6831 10.5546 -7.0225
v 9.6904 13.2469 -7.1700
v 10.4038 13.2469 -7.1700
v -3.2117 -14.8746 -4.9365
v -1.1325 -14.8387 -4.9540
v 0.2004 -14.5960 -4.6515
v -7.3956 -12.0489 -6.9539
v -6.1325 -12.4353 -6.3465
v -4.0394 -13.1980 -5.5471
v -1.1325 -13.7184 -6.2040
v 1.3271 -13.1568 -5.6337
v 4.0859 -12.4386 -5.7592
v 6.3287 -12.5096 -5.5113
v 8.8675 -12.3001 -6.1531
v 10.2105 -12.1188 -6.6510
v -9.9255 -9.5651 -4.7128
v -8.5457 -10.7542 -5.8333
v -6.3740 -11.1399 -5.7224
v -4.8671 -12.0031 -4.4910
v 2.4538 -11.8065 -4.9493
v 3.3983 -11.8065 -4.9493
v 7.1362 -12.0001 -4.5360
v 8.8675 -11.9052 -4.9031
v 10.9983 -10.9470 -5.7803
v -10.2764 -8.4556 -5.6174
v -8.7705 -9.1004 -5.6174
v -7.1197 -9.0846 -5.7242
v 12.3987 -9.2913 -5.7242
v 13.4132 -8.0413 -5.7242
v -10.3426 -6.2162 -5.7242
v -9.5805 -4.9662 -5.7242
v 4.6225 -4.6979 -4.5681
v 5.3403 -4.6979 -4.5681
v 12.5029 -4.5999 -6.8207
v 13.8437 -5.6675 -6.1941
v 15.7324 -5.2183 -5.7242
v -12.5637 -2.2532 -4.9905
v -11.1819 -2.8311 -5.7840
v -9.5805 -4.1133 -5.7242
v 4.6225 -4.0982 -4.5681
v 5.3403 -4.0982 -4.5681
v 12.5029 -4.1900 -6.8207
v 12.7509 -4.1900 -6.8207
v 16.9490 -3.3076 -5.7053
v 18.8675 -2.7161 -6.1707
v 20.5508 -2.4803 -6.3510
v -12.5637 -1.4916 -4.9905
v -11.9485 -0.7064 -5.7840
v 10.1022 0.4340 -4.5367
v 11.3675 0.1800 -4.8060
v 13.0587 0.1202 -4.8541
v 17.3501 -1.2059 -4.8594
v 18.8675 -1.0138 -4.9207
v 20.7923 -0.7104 -5.6002
v -11.3898 1.7214 -5.7242
v -4.9957 2.8975 -6.9108
v -4.8065 2.8975 -6.9108
v 10.1022 0.5167 -4.5367
v 11.3675 0.7321 -4.8060
v 13.0587 0.7737 -4.8541
v 19.8352 2.6791 -6.5757
v 20.6535 1.7960 -5.7351
v -10.3777 4.2496 -5.8511
v -9.5088 5.1018 -5.1023
v -5.0131 4.3045 -5.8673
v -4.7756 4.3045 -5.8673
v 2.0460 5.1976 -4.6918
v 3.8675 5.2112 -4.6664
v 5.1510 5.3982 -4.5129
v 17.3658 5.3707 -6.8597
v 18.9481 4.4110 -6.4723
v 20.4347 4.2214 -5.1827
v -9.9758 5.5990 -6.7690
v -8.6583 6.1158 -5.8511
v -5.9713 6.1195 -5.6840
v -3.7998 6.0270 -5.6840
v -1.1325 6.3074 -5.7242
v 1.2746 5.8768 -5.6047
v 3.8675 5.9421 -5.9164
v 6.1376 6.2050 -5.4974
v 8.3955 7.4327 -5.7242
v 17.2957 6.5439 -5.8150
v 18.5388 6.5095 -5.8419
v 20.3385 5.7486 -4.9841
v 9.0058 9.2214 -5.7242
v 14.0676 9.5815 -5.7242
v 16.3823 8.5790 -5.6518
v 18.1007 8.5039 -6.4369
v 7.5636 12.8267 -4.6693
v 8.3495 11.8846 -5.5913
v 12.0382 12.0719 -5.7242
v 12.8176 10.8219 -5.7242
v 7.5636 13.1094 -4.6693
v 8.8612 13.6412 -5.5913
v 10.7882 13.7051 -5.7242
v -3.2117 -14.8746 -3.9609
v -1.1325 -14.8387 -4.0097
v 0.2004 -14.5960 -4.3682
v -3.6179 -13.2786 -3.6229
v -0.9811 -13.0737 -2.7296
v 1.3271 -13.0145 -3.4101
v 4.0859 -12.3097 -3.2609
v 5.9342 -12.2075 -3.2242
v -9.9255 -9.5651 -4.4325
v -9.6957 -9.5651 -4.4325
v -5.5446 -10.6196 -3.2242
v -3.8733 -11.6068 -3.1011
v -1.7135 -11.5376 -2.1858
v 2.4538 -11.8065 -4.1187
v 3.3983 -11.8065 -4.1187
v 7.1842 -11.8594 -3.2242
v 8.8675 -11.1572 -3.2242
v 10.7364 -10.0764 -3.2242
v -10.0139 -8.2786 -4.3466
v -8.7705 -8.3669 -4.2065
v -6.5789 -8.3669 -3.3086
v 2.4204 -7.2687 -2.7158
v 3.8675 -7.2152 -2.5366
v 5.1245 -7.0374 -1.9825
v 11.7401 -8.4542 -3.3593
v 12.9992 -7.7379 -4.2826
v -10.0147 -6.6406 -4.3458
v -8.7213 -5.7958 -4.0220
v -6.5967 -5.7786 -2.7552
v 2.4204 -6.6801 -2.7158
v 3.9086 -5.6890 -3.1825
v 5.3183 -5.6302 -2.9792
v 11.9967 -6.2294 -2.6160
v 13.6749 -5.5538 -3.4030
v 15.4416 -4.8781 -4.1900
v -12.5637 -2.2532 -3.9508
v -11.2739 -2.7910 -3.1602
v -8.7213 -3.8531 -3.2646
v -6.8902 -4.0232 -2.4582
v 4.5542 -4.1112 -3.2242
v 5.3633 -4.1112 -3.2242
v 14.0253 -3.2786 -2.6781
v 15.7850 -3.2786 -3.9281
v -15.0209 -0.1799 -2.1732
v -13.1744 -0.9306 -3.1922
v -12.2386 -0.8386 -3.2958
v -5.1777 0.3528 -2.1457
v -3.6325 0.2376 -2.4712
v -2.2007 0.2782 -2.4653
v 10.1022 0.4340 -4.4379
v 11.2870 -0.1969 -3.4524
v 13.7434 -0.9002 -3.3095
v 16.4570 -0.5350 -4.0747
v 18.8675 0.2362 -4.4166
v 20.2738 0.1684 -4.4004
v -15.0209 1.1447 -2.1732
v -13.4378 1.8754 -2.4986
v -11.9923 1.7214 -3.7305
v -7.4803 2.8600 -2.0037
v -6.2657 1.7129 -2.0747
v -3.6325 0.9998 -2.4712
v -1.3244 1.9525 -2.4165
v 0.1954 2.8236 -2.3677
v 10.1022 0.5167 -4.4379
v 11.2870 0.9742 -3.4524
v 13.9903 1.7011 -3.2201
v 16.3675 1.7214 -3.4314
v 19.0662 1.9529 -3.1006
v 20.3553 1.9529 -3.4299
v -14.9781 5.0849 -1.9984
v -13.6430 4.0337 -1.9906
v -10.9681 4.0421 -2.8526
v -8.4945 4.1158 -2.8631
v -6.1920 4.2527 -3.0496
v -4.7447 5.3756 -4.0955
v -0.4481 3.0291 -2.3677
v 1.1207 4.1133 -3.2220
v 3.8675 5.2112 -4.1667
v 5.1510 5.3982 -4.4620
v 9.7123 5.2607 -2.2330
v 10.2520 5.2607 -2.2330
v 14.8556 4.2214 -2.2581
v 16.3675 4.2214 -2.7515
v 18.6789 4.2214 -2.4676
v 20.5189 4.2214 -3.2242
v -14.9781 5.5201 -1.9984
v -14.8114 5.5201 -1.9984
v -10.2890 6.7214 -2.2529
v -8.5208 6.8201 -2.9933
v -5.9713 6.1597 -3.2470
v -3.7998 5.8956 -3.2470
v -1.1325 6.4463 -3.2242
v 1.2746 5.9817 -3.2355
v 3.8675 6.1967 -2.9167
v 6.1376 6.3056 -3.4669
v 9.0518 6.5870 -3.3295
v 11.1982 6.7806 -2.7991
v 14.0253 6.7806 -2.5787
v 16.3823 6.7188 -3.6024
v 19.0179 5.9209 -3.1965
v 20.3389 5.7240 -3.2242
v -10.2965 9.2214 -2.2196
v -9.3231 9.2214 -2.2196
v 9.6867 9.2214 -4.0608
v 11.3675 9.2214 -3.5386
v 13.7382 9.1764 -3.8616
v 15.5589 8.3130 -4.1495
v -9.9772 10.5079 -2.0115
v -9.8198 10.5079 -2.0115
v 7.5636 12.8267 -4.3838
v 8.8085 11.8846 -3.8193
v 11.4822 11.7019 -3.7571
v 12.8187 10.8556 -4.2802
v 7.5636 13.1094 -4.3838
v 8.8675 13.6020 -4.0327
v 10.7254 13.6742 -3.9759
v -0.0469 -12.1038 -1.7396
v 1.2863 -12.3816 -0.8335
v 3.8675 -13.0784 -0.7242
v 6.5596 -12.6802 -0.8889
v 7.7592 -12.2280 -0.1654
v -5.1543 -10.1754 -1.6256
v -3.6325 -10.2705 -1.5509
v -0.9811 -10.7340 -1.2640
v 0.4674 -10.7786 0.0017
v 7.5316 -10.7503 -0.7506
v 8.3925 -10.5899 -0.8933
v 10.1533 -9.5617 -1.8994
v -5.3733 -8.2464 -0.7650
v -3.6325 -8.7652 -0.3009
v -0.9279 -8.2001 0.0748
v 1.3615 -8.1046 -0.3746
v 3.7976 -7.3251 -0.9660
v 6.3333 -8.2385 -0.8149
v 9.0098 -8.4752 -0.1726
v 10.3037 -8.2786 -1.4510
v -5.6754 -5.7786 -0.7242
v 0.0418 -6.9006 0.4917
v 1.4992 -6.5547 -0.4946
v 3.8896 -5.8643 -1.0609
v 5.2014 -5.7786 -1.8543
v 9.9380 -6.7819 0.3153
v 11.2450 -6.2859 -0.6005
v 13.6574 -5.4223 -0.7542
v 15.6585 -5.3426 0.0591
v -15.2518 -2.3779 -0.2288
v -13.6325 -2.3719 -0.3235
v -11.2739 -2.6766 -0.7009
v -8.6325 -3.3786 -0.7242
v -6.5157 -3.9001 -0.7242
v -2.7171 -2.1957 0.3164
v -1.1325 -2.2105 0.3155
v 0.1386 -2.1040 0.4548
v 4.8615 -4.4024 -1.8279
v 6.2939 -3.4571 -0.7792
v 7.8478 -2.5118 0.2695
v 13.7849 -3.2061 -0.7542
v 15.6585 -3.9911 0.0591
v -17.4275 0.3882 0.4682
v -15.9697 -0.7292 -0.7136
v -13.6325 -1.7598 -1.5735
v -12.2015 -1.8522 -1.5186
v -5.1777 0.3528 -1.6996
v -3.2402 -0.6917 -0.8367
v -1.5903 -0.9900 -0.6277
v 0.1386 -2.0098 0.4548
v 7.3654 -1.8162 0.2695
v 7.8478 -1.8162 0.2695
v 11.8167 -0.6771 -0.7242
v 12.7769 -1.9271 -0.7242
v -17.4275 0.5899 0.4682
v -15.9836 1.7006 -0.7097
v -14.1413 2.8114 -1.8876
v -7.4803 2.8600 -1.9405
v -6.2657 1.7129 -1.8201
v -3.4082 1.7584 -1.0610
v -1.4083 2.2250 -1.1064
v 0.1954 2.8236 -1.2270
v 11.8167 1.2971 -0.7242
v 13.6828 2.5471 -0.7242
v 20.0319 2.9406 -1.9449
v 20.1555 2.9406 -1.9449
v -17.4828 5.2532 0.2469
v -15.9622 4.3357 -0.8204
v -13.6430 4.0337 -1.6505
v -10.9772 4.9269 -0.7882
v -8.5217 4.1672 -1.0517
v -7.3536 3.1298 -1.9405
v -3.1091 3.2282 -0.2070
v -1.0121 3.1286 -0.7170
v 1.3901 4.2214 -0.4146
v 2.6676 5.4137 0.3979
v 9.7123 5.2607 -1.8796
v 10.2520 5.2607 -1.8796
v 14.5204 4.2214 -0.7242
v 19.9289 4.2214 -1.9091
v 20.2016 4.2214 -1.9091
v -17.4642 6.7214 0.3057
v -15.9399 6.5006 -0.7380
v -13.8886 6.4933 -0.5170
v -11.0800 6.3054 -0.4597
v -8.5479 6.6684 -1.0338
v -5.9453 7.2407 -0.9325
v -3.6325 6.6808 -0.7242
v -1.1808 7.3517 -0.6544
v 1.8892 6.5800 -0.4272
v 3.3532 6.6604 -0.6408
v 6.3675 7.5297 -1.6786
v 8.8345 6.6913 -0.9137
v 11.1982 6.3584 -0.9174
v 13.4550 6.1893 -0.7242
v 19.9516 5.5310 -1.9168
v 20.1917 5.5310 -1.9168
v -17.3913 7.9801 0.5113
v -16.1325 8.0444 0.4052
v -14.6325 8.0601 0.3795
v -10.9828 9.2214 -0.7242
v -8.0732 9.4198 -0.9325
v -6.6539 8.7187 -0.2380
v -2.9720 9.8443 0.3163
v -1.1808 9.0951 0.2089
v 1.3136 9.3593 0.2575
v 3.8675 8.6692 -0.1699
v 6.3675 8.3653 -0.4286
v 7.9566 8.2126 0.0522
v -10.2300 10.8206 -0.7242
v -9.3833 10.8206 -0.7242
v -5.2366 12.4254 0.3167
v -3.7362 11.6438 0.1172
v -0.8988 11.8198 0.2317
v 0.4443 11.0521 0.5076
v -5.2366 13.2134 0.3167
v -3.6325 13.3798 0.1722
v -1.5764 13.2739 0.2635
v -20.6928 -12.5933 2.5415
v -19.3452 -12.5933 2.5415
v 1.8750 -12.6657 1.7758
v 3.8675 -13.6326 1.7758
v 6.3675 -13.6137 1.7758
v 7.9056 -12.6468 1.7758
v -20.8494 -10.7786 2.3904
v -18.9642 -10.7786 2.3904
v -7.4056 -9.5614 3.0040
v -6.1325 -9.5957 2.9513
v -4.7935 -9.5852 2.9482
v 0.0103 -9.6413 2.7150
v 0.6346 -10.5962 1.8393
v 7.5422 -9.6690 0.5749
v 8.6429 -10.6383 1.5706
v 10.3925 -9.9408 2.5663
v -20.3615 -9.1066 2.6629
v -19.1955 -9.1066 2.6629
v -7.4056 -8.9734 3.0040
v -6.2498 -8.1825 2.1428
v -3.8291 -8.5235 1.9793
v -0.8072 -8.0928 1.7075
v 1.2286 -8.1758 1.0666
v 2.9178 -7.2740 0.7304
v 7.5422 -9.4397 0.5749
v 9.0098 -8.4752 0.9769
v 10.5058 -8.2786 2.3029
v -6.1336 -5.7786 1.7758
v 0.0418 -6.9006 0.7000
v 1.3675 -6.6976 0.8099
v 2.9178 -6.7152 0.7304
v 9.9380 -6.7819 0.8548
v 11.2631 -6.3850 1.7232
v 13.8675 -6.0293 1.7758
v 15.6877 -5.3988 1.7758
v -15.2620 -2.3446 1.7758
v -13.6670 -2.3465 1.7829
v -11.2614 -2.8136 1.7829
v -8.6325 -3.8523 1.7758
v -5.8576 -3.2936 2.2916
v -3.7900 -2.1388 1.8422
v -1.1325 -2.2105 0.6752
v 1.3353 -2.1358 1.7405
v 2.6962 -2.1676 2.9353
v 7.3654 -2.5118 0.6343
v 8.8329 -2.4382 1.5848
v 11.3675 -2.8181 2.0552
v 13.6586 -3.0436 1.5437
v 15.6877 -4.0098 1.7758
v -17.4275 0.3882 0.9858
v -16.6511 -0.5785 1.8018
v -12.8566 -1.9172 2.6209
v -12.1806 -1.9172 2.6209
v -4.8909 -2.0085 2.9794
v -3.7900 -1.9696 1.8422
v -1.1325 -1.9411 0.6752
v 1.3353 -1.8771 1.7405
v 2.6962 -1.7443 2.9353
v 7.3654 -1.8162 0.6343
v 8.8329 -1.6271 1.5848
v 11.1779 -0.8863 1.5454
v 12.6861 -2.0012 0.5557
v -17.4275 0.5899 0.9858
v -16.6523 1.5425 1.8018
v -3.1091 2.7698 0.9794
v -1.5761 2.7698 0.9794
v 11.7420 1.8378 1.7936
v 13.4002 2.7487 0.9722
v -17.4828 5.2532 0.7199
v -15.9698 4.1700 1.7590
v -14.5763 4.7535 2.7981
v -10.3206 5.2047 0.8026
v -9.5631 5.2047 0.8026
v -3.1091 3.2282 0.9794
v -1.5761 3.2282 0.9794
v 2.5847 5.4137 0.6605
v 2.6676 5.4137 0.6605
v 9.8373 5.2645 2.8645
v 11.4695 4.3473 2.3978
v 13.5323 4.2214 1.1117
v -17.4642 6.7214 0.6844
v -16.1325 6.7214 1.4020
v -13.7077 7.0407 1.9133
v -10.8981 6.9954 1.6158
v -9.6298 6.7599 1.8538
v -5.1016 7.6988 1.7758
v -3.8310 7.6692 1.5821
v -2.0463 7.8312 0.6196
v 2.5847 5.6120 0.6605
v 2.6676 5.6120 0.6605
v 7.4415 7.7528 2.7836
v 8.8969 6.8726 1.9907
v 11.3675 6.1936 1.2810
v 13.0544 5.9132 0.8607
v -17.3913 7.9801 0.5431
v -16.1325 8.0444 0.8022
v -13.4907 8.7237 1.9955
v -11.1585 8.7442 2.1503
v -8.4925 9.3938 2.2598
v -6.0644 9.3814 2.0153
v -3.8843 8.9616 1.4771
v -2.0463 8.1776 0.6196
v 2.1110 10.2845 0.5896
v 3.9053 9.8141 1.5641
v 6.5119 8.5710 1.8805
v 7.9566 8.2126 1.1170
v -12.4033 10.4959 2.9897
v -11.0715 11.5316 1.9316
v -8.3538 11.5478 1.7302
v -6.2923 11.4769 1.6275
v -4.6387 10.7588 0.6680
v 0.0903 12.7187 0.5474
v 1.3510 11.8453 1.4018
v 3.0972 10.9718 2.2562
v -10.2252 13.3021 2.5401
v -8.6325 13.4722 2.3325
v -6.0950 13.4807 1.7626
v -3.6325 13.7726 1.7758
v -0.8988 13.6657 1.5388
v 0.5910 13.5720 2.2141
v 2.2581 -14.8109 4.9733
v 3.3155 -14.8109 4.9733
v -20.7011 -12.5877 4.2758
v -19.3223 -12.5877 4.2758
v 1.8372 -13.3683 4.1943
v 4.0363 -14.1209 4.1943
v 6.3675 -13.8622 4.2758
v 8.1275 -12.9214 4.2758
v -21.6588 -10.7786 4.2758
v -18.3029 -10.7786 4.2758
v -7.7593 -9.6989 4.2758
v -6.1325 -10.0491 4.2758
v -3.8291 -9.9465 4.3075
v -0.9468 -9.9698 4.3075
v 0.6617 -11.1579 4.2758
v 9.3682 -10.7759 4.3445
v 10.3925 -9.9408 3.5570
v -20.7710 -8.2754 4.4077
v -18.9204 -8.2754 4.4077
v -7.8821 -8.1955 4.0424
v -7.3487 -7.3067 3.0535
v -3.1268 -8.8713 3.4953
v -1.6563 -8.8713 3.4953
v 9.8554 -8.8118 5.2236
v 10.4459 -8.0985 4.3445
v -20.0864 -6.8437 5.3289
v -19.6381 -6.8437 5.3289
v -12.7782 -4.9848 5.3300
v -11.5841 -4.9848 5.3300
v -8.2438 -5.7786 4.3900
v -7.0549 -5.7786 3.1400
v 11.5296 -5.6482 4.1096
v 13.8675 -4.9377 3.2406
v 15.3367 -4.8748 3.1726
v -20.1109 -2.2851 5.3042
v -18.6325 -2.5895 5.1138
v -15.9157 -2.3104 4.2771
v -13.6507 -2.9108 4.3430
v -11.2336 -3.3914 4.7276
v -8.8734 -4.3597 4.1006
v -5.9352 -3.2541 3.0948
v -4.8629 -2.0819 3.0392
v 2.5320 -2.1676 3.1824
v 2.6962 -2.1676 3.1824
v 9.8179 -2.3645 3.4190
v 11.2701 -3.3883 4.1255
v 13.8675 -4.3255 3.2406
v 15.3367 -4.3744 3.1726
v -20.3440 -0.7786 5.0769
v -18.6325 -0.7786 4.2651
v -16.1003 -1.2383 4.1320
v -13.6670 -1.8465 4.2239
v -12.2208 -1.9339 4.2758
v -4.8909 -2.0085 3.0392
v -4.8629 -2.0085 3.0392
v 2.2635 -0.6872 4.2555
v 3.3655 -0.7175 4.3547
v 5.6037 0.0144 5.3340
v 9.8179 -1.4380 3.4190
v 10.4641 -0.6742 4.2617
v -20.2695 1.1489 5.1490
v -18.6325 1.5431 4.6771
v -16.8524 1.9223 4.0730
v -2.4765 2.7938 5.2851
v -2.2707 2.7938 5.2851
v 1.9950 0.5391 5.3286
v 3.9871 1.5120 5.1354
v 5.6801 1.7214 5.1857
v 9.7574 2.5495 5.2390
v 10.6818 1.7182 4.3537
v -15.5136 3.4713 4.2758
v -14.5321 4.7213 4.2758
v -2.4765 3.4406 5.2851
v -2.2707 3.4406 5.2851
v 4.7617 4.2214 5.0751
v 5.5625 4.2214 5.0751
v 9.4765 4.3473 4.3537
v 10.7042 3.5979 3.5723
v -14.9130 7.8225 5.3542
v -14.2911 6.8821 4.4228
v -10.2781 7.8196 3.2735
v -9.6965 7.8196 3.2735
v -5.0700 7.7741 3.1735
v -4.7966 7.7741 3.1735
v 4.8604 5.9461 5.1865
v 6.3815 6.8409 4.6661
v 8.3363 6.2621 4.2758
v -14.9130 8.0424 5.3542
v -13.7935 9.0140 4.4228
v -10.2781 8.1080 3.2735
v -8.5623 9.2572 3.1872
v -6.2090 9.2427 3.1372
v -4.7966 8.0790 3.1735
v 2.4047 10.1867 5.3101
v 3.9053 9.9067 4.3964
v 5.8326 8.7291 4.2758
v -12.6600 10.7354 4.2758
v -11.4211 11.9854 4.2758
v -7.7976 11.4912 4.0850
v -6.6535 11.6487 4.2006
v -4.6450 12.8456 5.3153
v 2.1522 11.7717 4.3964
v 3.0972 10.9718 3.6434
v -10.1711 13.2357 4.2758
v -8.8534 13.3851 4.2518
v -6.1325 13.4265 3.7754
v -3.5497 14.0666 4.4973
v -1.1325 14.8624 3.9108
v 0.8449 14.3317 4.3417
v -2.4543 15.5369 5.3459
v -1.1325 15.5714 5.1608
v 0.2259 15.5391 5.2189
v 2.2581 -14.8109 5.9279
v 3.3155 -14.8109 5.9279
v -20.1637 -12.2093 5.7469
v -19.6728 -12.2093 5.7469
v 1.9707 -13.2786 6.1578
v 4.0363 -13.4054 6.2672
v 6.4093 -12.8393 6.7616
v 8.2251 -12.5710 6.7758
v -22.6261 -9.7631 7.2801
v -21.2554 -10.7230 6.5135
v -19.0287 -10.8212 6.6585
v -12.6630 -9.8127 7.5882
v -11.1325 -10.1018 7.1984
v -8.6701 -10.2585 6.6265
v -6.1325 -10.8814 6.7758
v -3.5408 -10.3068 6.8109
v -1.1325 -9.9955 6.3712
v 1.4227 -10.5841 6.9055
v 3.8675 -11.1733 7.4010
v 5.6038 -11.6703 7.5854
v 9.4463 -10.5961 6.9570
v 10.1445 -9.6410 7.9111
v -22.7066 -8.2786 7.2650
v -21.8839 -8.2786 6.0150
v -18.0078 -8.2934 6.7769
v -16.1325 -7.5961 7.5043
v -13.5508 -8.2179 7.1900
v -11.1325 -8.2786 6.4415
v -9.2396 -8.2786 6.0260
v -2.6464 -9.1241 7.6677
v -1.1325 -9.1448 7.6212
v 0.7309 -9.4214 7.8445
v 7.1885 -7.4083 7.4472
v 9.2909 -8.2898 6.6805
v 10.1458 -8.3102 6.7456
v -22.5710 -6.7999 7.7571
v -20.8890 -5.9885 6.9807
v -18.7359 -5.9177 6.3338
v -16.1325 -5.7786 6.6185
v -13.6199 -5.8023 6.0940
v -10.9035 -5.8023 5.9417
v -9.4938 -5.7786 5.9270
v 7.1885 -6.2462 7.4472
v 8.6416 -5.5592 6.9465
v 10.4506 -5.7786 5.8606
v 14.4619 -5.1938 7.6876
v 15.8502 -5.1938 7.6876
v -20.2243 -3.1825 6.9329
v -18.6325 -3.8395 6.2219
v -16.0403 -3.3235 6.0018
v -13.4790 -2.8977 6.6309
v -11.3002 -3.1227 6.2554
v -9.8674 -4.5099 5.5616
v 9.3244 -4.0540 7.5845
v 11.2701 -3.2688 6.8998
v 13.7945 -3.1608 7.7846
v 15.8502 -3.8382 7.6876
v -20.5701 -0.7786 6.7758
v -15.3824 -0.8986 6.7979
v -13.8671 -1.0537 6.9368
v -12.2271 -1.0197 6.9747
v -5.0679 0.3545 7.9633
v -4.8117 0.3545 7.9633
v 1.9950 0.3700 5.6037
v 3.8675 0.0526 5.8169
v 5.6037 0.0144 5.8360
v 11.6974 -0.7786 6.6437
v 13.0219 -0.7786 7.8937
v -20.2496 1.1270 6.7758
v -18.5292 2.4468 6.6666
v -16.4496 1.9934 6.7613
v -13.6325 1.0064 7.7642
v -12.1838 0.5588 7.9406
v -5.0679 0.5776 7.9633
v -3.6441 1.6857 6.8789
v -2.2707 2.7938 5.7945
v 1.9950 0.5391 5.6037
v 3.9871 1.5120 5.8783
v 5.6801 1.7214 5.9080
v 9.7574 2.5495 5.8620
v 11.3117 1.5539 6.9279
v 12.6470 0.5583 7.9938
v -17.7978 4.2214 7.3387
v -16.3209 4.3021 6.1685
v -14.7215 5.1892 5.8464
v -2.4765 3.4406 5.7945
v -2.2707 3.4406 5.7945
v 4.7617 4.2214 5.9257
v 5.5625 4.2214 5.9257
v 9.3617 4.2971 6.7275
v 10.6233 3.5142 7.5287
v -17.6918 5.8068 7.7085
v -15.6099 6.7984 6.6401
v -14.6399 6.8519 6.5679
v 2.3623 7.8362 7.8516
v 3.7881 6.8911 6.8556
v 6.4022 6.7912 6.3831
v 8.1928 6.1751 6.7758
v -14.9130 8.0424 5.6227
v -13.6450 9.2085 6.7542
v -12.1657 10.3746 7.8857
v 2.3835 9.2097 6.8858
v 3.3740 9.2625 6.7321
v 6.2070 9.2930 6.5827
v -12.7317 10.7988 6.2190
v -11.0452 11.5459 6.7189
v -8.8534 12.1449 6.5416
v -6.2673 12.4765 6.6298
v -4.6450 12.8456 5.6991
v 2.0388 11.6409 6.7622
v 3.9458 11.6409 7.1900
v 5.9573 11.7214 7.3105
v -9.9246 12.9931 5.5521
v -9.8339 12.9931 5.5521
v -5.5238 13.4354 7.3658
v -3.5497 14.2420 6.5282
v -1.1325 14.7682 7.0476
v 0.7315 14.1626 6.6444
v 4.8314 13.1149 7.8106
v 5.4231 13.1149 7.8106
v -2.4543 15.5369 5.6906
v -1.1325 15.5714 5.7976
v 0.2259 15.5391 5.7234
v 7.0925 -12.2816 9.2758
v 8.0862 -12.2816 9.2758
v -22.6261 -9.7631 8.3923
v -21.1325 -10.0702 8.7834
v -18.6391 -9.9071 9.3806
v -16.6448 -9.7981 10.0919
v -12.6630 -9.8127 8.4277
v -11.2026 -10.2879 9.2669
v -8.5066 -10.4426 9.4302
v -6.1764 -10.3730 9.4302
v -4.0396 -10.1776 9.2758
v -0.2262 -9.5901 10.1059
v 1.4436 -9.5850 9.1582
v 3.6809 -10.1910 9.1367
v 5.8425 -11.5682 9.2758
v 9.3362 -10.9529 9.2758
v 10.1871 -9.7029 9.2758
v -22.7066 -8.2786 8.5158
v -21.0378 -8.2891 9.8039
v -18.6391 -9.1330 9.3806
v -15.7781 -8.2403 9.4395
v -13.5508 -8.2179 9.2032
v -11.9927 -8.2786 10.1766
v -7.5893 -9.2120 10.3664
v -7.0390 -9.2120 10.3664
v -2.7896 -9.1206 9.2758
v -1.0888 -9.1379 9.2739
v 1.4436 -9.2953 9.1582
v 2.7232 -9.1693 9.8773
v 7.0508 -7.6674 9.2758
v 8.8675 -8.7793 9.2758
v 10.1871 -9.3905 9.2758
v 14.4959 -7.3392 9.8734
v 15.4960 -7.3392 9.8734
v -22.5710 -6.7999 8.3126
v -20.9165 -5.9455 9.1001
v -19.3400 -5.0911 9.8875
v -14.9115 -6.7456 10.4539
v -13.4146 -5.8588 10.4594
v -11.2506 -5.6953 10.4137
v -9.7429 -4.8065 10.3778
v 7.0508 -6.1949 9.2758
v 7.9783 -4.9449 9.2758
v 12.2421 -5.1346 9.8981
v 13.6455 -5.9975 9.0524
v 16.1421 -5.9277 9.1344
v -20.1385 -3.2786 8.3532
v -18.5570 -3.3202 9.6165
v -16.6428 -2.5146 10.2404
v -12.4746 -3.2688 9.4714
v -11.6482 -3.4098 9.5586
v -9.7429 -4.4377 10.3778
v -0.0828 -2.2308 9.8356
v 0.2741 -2.2308 9.8356
v 9.2283 -3.8073 9.2758
v 11.3922 -3.7245 9.1492
v 13.7945 -3.1608 8.3439
v 15.9748 -3.1143 9.2842
v -20.1086 -0.7786 8.2797
v -18.6325 -0.7786 8.7133
v -16.1310 -0.9660 9.1483
v -13.2985 -0.9660 9.3211
v -12.1985 -0.7786 8.7188
v -7.7366 0.3454 10.3253
v -6.1840 0.3500 9.2132
v -4.8117 0.3545 8.1010
v -0.0828 -1.4965 9.8356
v 0.2741 -1.4965 9.8356
v 14.0795 -0.9698 9.2842
v 15.2171 -1.9306 10.1231
v -19.9850 0.6681 8.1228
v -18.5292 1.5894 8.3557
v -16.3770 1.9061 9.0855
v -13.4034 1.2455 9.3427
v -12.1838 0.5588 8.5539
v -7.7366 0.5253 10.3253
v -6.1840 0.5515 9.2132
v -4.8117 0.5776 8.1010
v 12.2900 2.2249 8.5066
v 12.8547 1.5235 9.3143
v -18.1525 4.0416 9.2793
v -17.1347 3.0883 10.1150
v -7.3979 5.4581 10.4451
v -6.1325 5.4262 10.4342
v -4.7721 5.4245 10.4843
v 9.6460 5.1809 8.5096
v 11.2767 4.1623 9.3414
v 12.7524 3.1437 10.1732
v -18.1616 6.1720 9.2758
v -15.9087 7.2778 9.4999
v -13.8595 7.5308 9.5334
v -11.8317 7.5136 10.2509
v -7.3979 5.4944 10.4451
v -6.1325 5.5823 10.4342
v -3.6844 6.6878 10.4428
v -2.2225 7.7792 10.4014
v 2.3623 7.8362 8.2738
v 2.7159 7.8362 8.2738
v 7.4898 7.6368 8.1867
v 8.8346 6.7706 8.7564
v 10.3632 6.7214 10.0684
v -14.9262 7.9838 10.4826
v -13.8595 8.3459 9.5334
v -11.6065 9.4133 9.3608
v -2.6345 9.2214 10.4132
v -2.2213 9.2214 10.4132
v 2.3623 8.2327 8.2738
v 2.7159 8.2327 8.2738
v 7.3506 9.3091 9.1223
v 8.8675 8.5714 9.8262
v 10.2991 8.2085 10.2655
v -10.5757 10.7976 9.2758
v -8.6325 11.6343 9.2758
v -6.9675 12.5581 9.2758
v -2.5043 10.4891 10.5001
v -2.3276 10.4891 10.5001
v 1.7882 12.1115 9.2758
v 3.4474 12.1115 9.2758
v 6.4988 11.7214 9.2758
v -5.7175 13.7342 9.2758
v -3.6325 14.6123 9.2758
v -1.1325 14.2770 9.2758
v 0.5382 13.3989 9.2758
v 4.6974 13.1819 9.2758
v 5.4867 13.1819 9.2758
v 7.2645 -12.2083 10.6910
v 7.8698 -12.2083 10.6910
v -17.9371 -9.7981 11.2222
v -16.6448 -9.7981 11.2222
v -10.4160 -10.0298 10.8521
v -9.2560 -10.0298 10.8521
v -5.3723 -9.7367 10.7061
v -4.3281 -9.7367 10.7061
v -0.2262 -9.5901 10.5976
v 0.4897 -9.5901 10.5976
v 4.3899 -10.1063 11.1834
v 6.4057 -10.8752 11.1597
v 8.7688 -10.6006 10.8083
v 10.1833 -9.6486 10.5977
v -20.0784 -7.3586 11.7758
v -18.7152 -8.7547 11.9436
v -16.0533 -8.4907 11.9436
v -10.7427 -8.2786 10.8762
v -8.5066 -8.3386 11.0308
v -6.1764 -8.3386 11.3554
v -3.5498 -8.4449 11.5314
v -1.0888 -8.4449 11.4586
v 1.3408 -8.3130 11.1512
v 3.6809 -8.3130 11.3099
v 6.4216 -8.3118 11.3569
v 8.8675 -9.1596 10.7551
v 10.1833 -9.3978 10.5977
v 14.4959 -7.3392 10.8965
v 15.4960 -7.3392 10.8965
v -20.0784 -6.8222 11.7758
v -18.5570 -5.4820 11.7505
v -15.8104 -5.7359 11.5742
v -14.1027 -5.0789 10.5815
v -10.2987 -5.6486 11.4948
v -9.1084 -5.6466 11.5168
v -6.1325 -6.6757 12.6776
v -3.6325 -6.8943 12.8976
v -1.1325 -6.8861 12.8879
v 1.3039 -6.0185 12.1286
v 3.8675 -5.7786 11.2764
v 6.3718 -5.7328 11.7647
v 8.1940 -5.0849 11.7758
v 12.2421 -5.1346 10.8679
v 13.7445 -5.8922 11.2053
v 15.8487 -5.7786 11.1186
v -17.6734 -4.1813 10.9002
v -15.9387 -3.3202 10.8023
v -13.4146 -3.4892 10.6061
v -10.6906 -3.4952 11.5963
v -9.7306 -3.3558 11.7510
v -0.0828 -2.2308 10.7996
v 1.1845 -2.9857 11.5131
v 3.8675 -3.6205 12.0394
v 5.4527 -4.1058 12.5098
v 9.4335 -3.2363 11.8734
v 11.3922 -3.2363 11.4443
v 13.8675 -3.2786 11.6180
v 15.6395 -3.2786 10.9044
v -14.9761 -1.9862 10.5565
v -13.4034 -1.0031 10.6576
v -11.3046 -0.9615 12.0312
v -8.5479 -0.6258 12.2344
v -6.3331 0.3615 12.0161
v -4.8535 0.4603 13.0096
v -0.0828 -1.4965 10.7996
v 0.2741 -1.4965 10.7996
v 9.8755 -1.6615 12.7718
v 11.2471 -0.8083 12.4029
v 13.7560 -0.9698 11.1064
v 15.2171 -1.9306 10.6109
v -15.4681 2.7150 10.8856
v -13.3774 1.7629 11.6098
v -12.2526 0.8108 12.3339
v -7.6703 0.5877 11.7758
v -6.3331 0.5717 12.0161
v -4.8535 0.4835 13.0096
v 11.8969 1.7214 12.1603
v 12.8918 1.7214 10.9103
v -18.1121 4.7550 11.1313
v -16.2338 4.0416 11.3923
v -13.5556 4.1011 12.1524
v -11.1325 4.8267 12.4053
v -8.3917 5.1917 11.9061
v -6.3105 5.3092 11.5620
v -4.7721 5.4245 10.5861
v 7.4580 5.4171 13.0012
v 7.6530 5.4171 13.0012
v 11.7657 4.0748 11.6695
v 12.7524 3.1437 10.7654
v -18.1121 6.0702 11.1313
v -15.9087 6.8307 11.1881
v -13.8495 6.6967 10.9482
v -11.0520 6.6967 11.4748
v -8.6145 6.4143 12.0472
v -6.3105 5.6778 11.5620
v -3.6844 6.6878 10.6023
v -2.2225 7.7792 10.6186
v 7.4580 5.5115 13.0012
v 7.6530 5.5115 13.0012
v 10.6969 6.7214 11.7758
v -14.9262 7.9838 10.5453
v -14.8274 7.9838 10.5453
v -10.3251 9.2214 11.5555
v -9.7182 9.2214 12.8055
v -2.7522 9.3473 11.5815
v -1.4417 9.2052 11.5181
v 1.3675 9.8782 12.2615
v 2.8600 10.3394 12.6149
v 7.2815 10.1820 11.7758
v 8.8675 9.1105 11.7758
v 10.2540 8.1499 11.7758
v -10.1902 10.7515 11.1563
v -8.7820 11.1914 11.9041
v -6.1657 12.2725 11.8076
v -3.4168 11.5211 12.0046
v -1.3496 11.4820 11.4280
v 1.2833 11.6140 11.1886
v 3.8517 11.5497 11.6469
v 5.9607 11.6228 11.6177
v -5.3545 13.5244 10.9954
v -3.6325 13.9565 11.4940
v -1.1325 13.7302 11.4846
v 0.3938 13.2227 10.9828
v 4.8435 13.1086 10.6790
v 5.3042 13.1086 10.6790
v -19.8848 -7.0344 13.0301
v -18.6325 -7.6106 13.4910
v -16.7094 -7.7988 13.6418
v -19.8848 -7.0241 13.0301
v -18.6325 -6.5485 13.4910
v -16.7094 -6.3929 13.6418
v -10.1287 -4.8497 14.2758
v -8.6325 -5.2892 14.2758
v -6.1805 -5.3766 14.3470
v -3.6325 -5.6443 13.7458
v -1.1325 -5.6361 13.5075
v 0.4283 -5.3451 13.2435
v 7.1194 -4.7662 13.2247
v 7.9453 -4.7662 13.2247
v -10.3109 -3.1758 14.1207
v -9.7182 -2.2739 13.1840
v -5.2988 -3.2786 15.2636
v -3.7833 -3.1617 15.0709
v -1.1325 -3.5691 14.7575
v 1.3124 -2.9673 14.0176
v 3.8675 -2.3705 13.1882
v 6.3186 -3.2749 13.3867
v 8.3068 -3.2786 13.3891
v -12.3929 0.4570 15.4690
v -11.2605 -0.7299 14.3265
v -8.5652 -0.7457 13.1204
v -5.6218 -0.5448 14.1083
v -4.7853 -0.6911 14.2732
v 1.8886 -0.7786 14.4255
v 3.8675 -0.7786 13.4573
v 6.4924 -0.5936 14.4225
v 8.8086 -0.6492 14.1024
v 10.3336 0.0052 13.2269
v -12.5319 1.5405 14.5762
v -12.2444 1.5405 14.5762
v -7.4121 0.5726 13.0568
v -6.1325 0.5564 13.0839
v -4.8535 0.4835 13.0723
v 2.0665 1.2418 14.7928
v 3.8675 1.4976 14.5449
v 5.7424 1.0693 14.9510
v 9.5180 1.7214 15.0125
v 10.6469 1.7214 13.7625
v -12.5986 4.0181 14.5143
v -11.6055 4.1218 14.3977
v -8.6325 5.1318 13.3979
v -7.2625 5.2612 13.2978
v 2.4861 4.8578 15.4410
v 3.8675 4.5410 14.9650
v 6.5218 4.8603 14.1280
v 8.8401 4.4423 14.6011
v 10.8183 4.2214 14.1388
v -12.5264 5.7919 15.3451
v -11.2385 6.6637 14.5631
v -8.8516 6.5891 13.3347
v -7.2625 5.6675 13.2978
v -0.5388 7.6049 14.9902
v 1.5387 6.7515 14.9949
v 3.8675 6.7214 14.5303
v 6.5218 6.4955 13.6365
v 8.6388 6.4955 13.6453
v 10.4513 6.7214 13.5533
v -10.4897 9.2214 14.5364
v -8.8777 9.7005 14.1606
v -7.0657 10.3394 15.3261
v -2.9340 9.8540 14.2758
v -1.2763 8.5821 14.2044
v 1.3675 8.6282 13.6757
v 3.7630 9.3922 13.8538
v 6.5275 9.4022 13.7100
v 8.8675 8.5105 13.2732
v 10.1179 7.9723 13.0264
v -10.0988 10.5826 15.0213
v -8.7359 10.7551 14.3404
v -6.1924 11.1045 14.4060
v -4.1840 10.9207 14.2758
v 4.5267 10.7238 13.3186
v 5.8008 10.7238 13.3186
v -10.0190 -4.6929 16.7758
v -8.6325 -5.0208 16.7758
v -6.1805 -4.8730 16.8595
v -4.3757 -4.6655 17.7487
v -10.4629 -3.2786 16.7758
v -5.2988 -3.2786 16.0762
v -3.7131 -3.3256 16.7261
v -1.1325 -3.0107 16.7758
v 0.4921 -2.3152 16.7758
v -12.6383 0.1301 16.7758
v -11.5764 -1.1199 16.7758
v -7.6830 0.2594 17.8703
v -6.0560 -0.7916 16.7869
v -4.7171 -1.8425 15.7035
v -0.1463 -0.1182 17.5026
v 0.5866 -0.8823 16.7119
v 7.4091 0.3631 15.6155
v 7.7418 0.3631 15.6155
v -12.6661 1.5506 16.6440
v -12.2361 2.2701 15.7227
v -7.6830 0.6896 17.8703
v -7.1710 0.6896 17.8703
v -2.5553 2.8469 17.8400
v -1.1557 1.8599 17.6713
v 1.2869 1.5116 16.7119
v 3.7363 2.6293 16.6114
v 6.4924 1.8301 15.8283
v 8.2680 1.7214 15.7970
v -12.5661 4.0977 16.6440
v -12.2361 3.1819 15.7227
v -2.5553 3.3134 17.8400
v -2.1651 3.3134 17.8400
v 2.4861 4.8578 15.6423
v 3.7695 4.0178 16.4887
v 6.3675 3.4982 15.8367
v 8.3605 3.4675 15.7978
v -12.5132 5.7394 16.7758
v -11.2385 7.1229 16.9814
v -9.5874 7.8665 17.9518
v -0.6005 7.4121 16.7758
v 1.5387 6.2380 16.5957
v 3.0570 5.8281 17.3090
v -10.4897 9.2214 16.2374
v -8.6721 9.2116 16.8335
v -6.1924 9.7987 16.7760
v -3.4886 10.0291 16.9462
v -1.9407 9.1015 16.9801
v -10.0988 10.5826 15.7152
v -9.4236 10.5826 15.7152
v -5.3990 10.6553 15.9428
v -3.4886 10.5727 16.9462
v -2.3555 10.4900 17.9496
v -9.9550 -4.6149 18.1576
v -8.6325 -4.7582 18.5124
v -6.1325 -4.7962 18.5891
v -4.3757 -4.6655 18.2599
v -10.0914 -3.2786 18.2592
v -8.6127 -3.3827 19.5227
v -5.9456 -3.3827 19.8473
v -3.5784 -3.4519 18.8929
v -1.1325 -2.7203 18.6009
v 0.2046 -2.2453 18.1997
v -12.7132 0.0308 18.3733
v -11.0062 -0.7930 18.5484
v -8.5579 -0.6992 19.1209
v -6.0793 -0.6992 19.4181
v -3.6325 -0.7786 19.7457
v -1.0408 -0.8823 18.8353
v 0.2046 -1.7848 18.1997
v -12.7293 1.7214 18.5268
v -11.1325 1.7214 19.3479
v -8.6870 1.7008 19.4066
v -6.2413 1.7008 19.3777
v -3.4862 1.8967 18.9974
v -1.1557 1.8599 18.4498
v 1.3675 2.4439 18.3616
v 2.8154 2.6997 18.2078
v -12.5041 4.2214 18.2891
v -11.1325 4.2214 19.3924
v -9.4758 4.2214 20.3791
v -5.3116 3.5626 20.2298
v -3.4875 4.2713 19.4093
v -1.2521 4.1766 18.7011
v 1.3675 4.2214 18.8893
v 3.0956 4.2214 18.4675
v -12.4129 5.5082 18.0564
v -11.1325 6.0454 18.5889
v -8.7262 7.0594 19.6141
v -7.3493 7.9191 20.4822
v -2.7530 5.5832 20.2554
v -0.9190 6.5877 19.2890
v 1.3675 6.0796 18.5536
v 3.0570 5.8281 18.4327
v -7.9207 8.0838 18.8156
v -6.3626 8.4768 19.4997
v -3.4367 9.7173 19.0634
v -1.6100 9.2793 19.0634
v -2.4728 10.4900 18.0884
v -2.3555 10.4900 18.0884
v -7.7662 -2.6188 20.8266
v -6.6543 -2.6188 20.8266
v -7.7662 -1.6578 20.8266
v -6.6543 -1.6578 20.8266
v -8.0244 2.7121 20.6838
v -6.9783 2.7121 20.6838
v -8.2258 4.2214 20.7048
v -6.1400 4.3261 20.7203
v -4.4196 5.2293 20.6114
v -7.8651 6.2524 20.6064
v -6.3626 6.9400 20.7054
v -3.6048 6.5385 20.8776
v -1.6544 7.2499 20.8935
v -5.6827 8.1362 20.6589
v -3.6325 8.4799 20.9014
v -1.6544 8.4846 20.8935
f 5 1 4
f 5 2 1
f 7 3 6
f 7 4 3
f 7 5 4
f 7 8 5
f 11 10 9
f 11 12 10
f 15 1 2
f 15 14 1
f 16 13 12
f 16 17 13
f 18 1 14
f 18 4 1
f 18 3 4
f 18 17 3
f 18 13 17
f 18 14 13
f 15 2 5
f 15 5 19
f 17 6 3
f 17 22 6
f 22 16 21
f 22 17 16
f 23 7 6
f 23 6 22
f 19 5 8
f 19 8 24
f 8 7 23
f 8 23 24
f 25 19 24
f 25 20 19
f 26 22 21
f 26 27 22
f 27 23 22
f 27 28 23
f 30 28 27
f 30 31 28
f 31 29 28
f 31 32 29
f 37 34 33
f 37 38 34
f 38 35 34
f 38 39 35
f 10 39 9
f 10 40 39
f 39 36 35
f 39 40 36
f 39 11 9
f 39 45 11
f 44 39 38
f 44 45 39
f 46 40 10
f 46 10 12
f 46 12 11
f 46 11 45
f 13 46 12
f 13 47 46
f 46 41 40
f 46 47 41
f 48 13 14
f 48 47 13
f 49 14 15
f 49 48 14
f 48 43 42
f 48 49 43
f 46 16 12
f 46 51 16
f 50 46 45
f 50 51 46
f 52 49 15
f 52 15 19
f 20 52 19
f 20 53 52
f 55 16 51
f 55 21 16
f 24 23 57
f 24 57 58
f 53 20 25
f 53 25 59
f 25 24 58
f 25 58 59
f 60 53 59
f 60 54 53
f 61 21 55
f 61 26 21
f 62 27 26
f 62 26 61
f 61 55 56
f 61 56 62
f 57 23 28
f 57 28 63
f 29 63 28
f 29 64 63
f 64 57 63
f 64 58 57
f 65 58 64
f 65 59 58
f 62 30 27
f 62 66 30
f 31 30 66
f 31 66 67
f 68 64 29
f 68 29 32
f 68 32 31
f 68 31 67
f 68 67 63
f 68 63 64
f 34 72 33
f 34 73 72
f 74 34 35
f 74 73 34
f 74 69 73
f 74 70 69
f 36 74 35
f 36 75 74
f 74 71 70
f 74 75 71
f 78 33 72
f 78 37 33
f 79 38 37
f 79 37 78
f 80 75 36
f 80 36 40
f 41 80 40
f 41 81 80
f 80 76 75
f 80 81 76
f 81 77 76
f 81 82 77
f 83 42 43
f 83 82 42
f 79 44 38
f 79 85 44
f 86 45 44
f 86 44 85
f 87 81 41
f 87 41 47
f 88 42 82
f 88 48 42
f 48 87 47
f 48 88 87
f 87 82 81
f 87 88 82
f 89 83 43
f 89 43 49
f 93 84 92
f 93 85 84
f 86 50 45
f 86 94 50
f 93 86 85
f 93 94 86
f 95 51 50
f 95 50 94
f 89 49 52
f 89 52 97
f 98 52 53
f 98 97 52
f 54 98 53
f 54 99 98
f 98 91 90
f 98 99 91
f 100 94 93
f 100 101 94
f 95 55 51
f 95 102 55
f 103 56 55
f 103 55 102
f 105 104 96
f 105 96 97
f 107 99 54
f 107 54 60
f 60 59 106
f 60 106 107
f 108 102 101
f 108 109 102
f 103 62 56
f 103 110 62
f 109 103 102
f 109 110 103
f 112 64 63
f 112 63 111
f 106 59 65
f 106 65 113
f 65 64 112
f 65 112 113
f 114 106 113
f 114 107 106
f 115 62 110
f 115 66 62
f 111 63 67
f 111 67 116
f 67 66 115
f 67 115 116
f 115 110 111
f 115 111 116
f 116 112 111
f 116 117 112
f 118 112 117
f 118 113 112
f 121 69 70
f 121 120 69
f 71 121 70
f 71 122 121
f 125 69 120
f 125 73 69
f 73 124 72
f 73 125 124
f 125 119 124
f 125 120 119
f 126 125 120
f 126 120 121
f 127 122 71
f 127 71 75
f 126 121 122
f 126 122 127
f 128 75 76
f 128 127 75
f 127 123 122
f 127 128 123
f 129 76 77
f 129 128 76
f 130 72 124
f 130 78 72
f 79 78 130
f 79 130 131
f 130 124 125
f 130 125 131
f 133 129 77
f 133 77 82
f 134 82 83
f 134 133 82
f 136 79 131
f 136 85 79
f 136 84 85
f 136 135 84
f 140 139 132
f 140 132 133
f 134 83 89
f 134 89 141
f 140 133 134
f 140 134 141
f 143 90 91
f 143 142 90
f 135 92 84
f 135 144 92
f 145 93 92
f 145 92 144
f 145 144 135
f 145 135 136
f 95 94 146
f 95 146 147
f 146 137 138
f 146 138 147
f 149 141 89
f 149 89 97
f 149 97 96
f 149 96 148
f 150 90 142
f 150 98 90
f 150 97 98
f 150 149 97
f 150 141 149
f 150 142 141
f 151 143 91
f 151 91 99
f 145 100 93
f 145 154 100
f 155 146 94
f 155 94 101
f 155 101 100
f 155 100 154
f 156 95 147
f 156 102 95
f 156 101 102
f 156 155 101
f 156 146 155
f 156 147 146
f 148 96 104
f 148 104 157
f 149 105 97
f 149 158 105
f 105 157 104
f 105 158 157
f 158 148 157
f 158 149 148
f 151 99 107
f 151 107 160
f 163 152 162
f 163 153 152
f 164 153 163
f 164 154 153
f 155 108 101
f 155 165 108
f 165 154 164
f 165 155 154
f 166 109 108
f 166 108 165
f 167 110 109
f 167 109 166
f 168 111 110
f 168 110 167
f 160 107 114
f 160 114 170
f 114 113 169
f 114 169 170
f 170 169 159
f 170 159 160
f 172 161 171
f 172 162 161
f 173 162 172
f 173 163 162
f 175 164 174
f 175 165 164
f 176 167 166
f 176 177 167
f 178 111 168
f 178 116 111
f 117 116 178
f 117 178 179
f 169 113 118
f 169 118 180
f 118 117 179
f 118 179 180
f 181 172 171
f 181 182 172
f 183 172 182
f 183 173 172
f 190 119 120
f 190 189 119
f 191 185 184
f 191 192 185
f 123 192 122
f 123 193 192
f 193 185 192
f 193 186 185
f 194 186 193
f 194 187 186
f 196 119 189
f 196 124 119
f 196 188 195
f 196 189 188
f 197 190 120
f 197 120 125
f 197 125 124
f 197 124 196
f 126 197 125
f 126 198 197
f 199 122 192
f 199 127 122
f 199 126 127
f 199 198 126
f 200 193 123
f 200 123 128
f 129 200 128
f 129 201 200
f 200 194 193
f 200 201 194
f 202 196 195
f 202 203 196
f 204 125 197
f 204 131 125
f 204 196 203
f 204 197 196
f 206 201 129
f 206 129 133
f 133 132 205
f 133 205 206
f 211 131 204
f 211 136 131
f 211 203 210
f 211 204 203
f 138 137 212
f 138 212 213
f 205 132 139
f 205 139 214
f 215 139 140
f 215 214 139
f 215 205 214
f 215 206 205
f 216 140 141
f 216 215 140
f 215 207 206
f 215 216 207
f 217 141 142
f 217 216 141
f 218 142 143
f 218 217 142
f 217 209 208
f 217 218 209
f 211 145 136
f 211 221 145
f 220 211 210
f 220 221 211
f 222 212 137
f 222 137 146
f 223 138 213
f 223 147 138
f 223 146 147
f 223 222 146
f 222 213 212
f 222 223 213
f 225 224 214
f 225 214 215
f 226 218 143
f 226 143 151
f 226 219 218
f 226 227 219
f 230 152 153
f 230 229 152
f 231 145 221
f 231 154 145
f 231 153 154
f 231 230 153
f 233 232 224
f 233 224 225
f 226 151 160
f 226 160 235
f 235 160 159
f 235 159 234
f 236 226 235
f 236 227 226
f 229 162 152
f 229 238 162
f 238 161 162
f 238 237 161
f 238 228 237
f 238 229 228
f 164 163 239
f 164 239 240
f 166 165 241
f 166 241 242
f 168 167 243
f 168 243 244
f 234 159 169
f 234 169 246
f 247 234 246
f 247 235 234
f 248 235 247
f 248 236 235
f 249 161 237
f 249 171 161
f 249 237 238
f 249 238 250
f 239 163 173
f 239 173 251
f 240 174 164
f 240 252 174
f 252 239 251
f 252 240 239
f 241 165 175
f 241 175 253
f 253 175 174
f 253 174 252
f 242 176 166
f 242 254 176
f 243 167 177
f 243 177 255
f 177 176 254
f 177 254 255
f 244 178 168
f 244 256 178
f 256 243 255
f 256 244 243
f 257 179 178
f 257 178 256
f 258 246 169
f 258 169 180
f 258 180 179
f 258 179 257
f 258 257 245
f 258 245 246
f 259 171 249
f 259 181 171
f 182 181 259
f 182 259 260
f 260 259 249
f 260 249 250
f 251 173 183
f 251 183 261
f 183 182 260
f 183 260 261
f 260 250 251
f 260 251 261
f 262 251 261
f 262 252 251
f 264 255 263
f 264 256 255
f 269 184 185
f 269 268 184
f 270 185 186
f 270 269 185
f 187 270 186
f 187 271 270
f 274 188 189
f 274 273 188
f 274 265 273
f 274 266 265
f 275 189 190
f 275 274 189
f 268 191 184
f 268 276 191
f 276 267 275
f 276 268 267
f 277 192 191
f 277 191 276
f 277 276 268
f 277 268 269
f 278 271 187
f 278 187 194
f 278 272 271
f 278 279 272
f 280 188 273
f 280 195 188
f 281 275 190
f 281 190 197
f 198 281 197
f 198 282 281
f 281 276 275
f 281 282 276
f 283 192 277
f 283 199 192
f 283 198 199
f 283 282 198
f 283 276 282
f 283 277 276
f 278 194 201
f 278 201 284
f 285 278 284
f 285 279 278
f 280 202 195
f 280 292 202
f 293 203 202
f 293 202 292
f 284 201 206
f 284 206 295
f 207 295 206
f 207 296 295
f 298 208 209
f 298 297 208
f 298 286 297
f 298 287 286
f 299 289 288
f 299 300 289
f 300 290 289
f 300 301 290
f 303 291 302
f 303 292 291
f 293 210 203
f 293 304 210
f 303 293 292
f 303 304 293
f 304 293 294
f 304 294 305
f 215 214 307
f 215 307 308
f 309 296 207
f 309 207 216
f 309 308 295
f 309 295 296
f 310 208 297
f 310 217 208
f 310 216 217
f 310 309 216
f 310 296 309
f 310 297 296
f 311 298 209
f 311 209 218
f 219 311 218
f 219 312 311
f 314 300 299
f 314 315 300
f 315 301 300
f 315 316 301
f 317 301 316
f 317 302 301
f 317 303 302
f 317 318 303
f 304 220 210
f 304 319 220
f 319 303 318
f 319 304 303
f 320 221 220
f 320 220 319
f 321 320 305
f 321 305 306
f 307 214 224
f 307 224 322
f 323 215 308
f 323 225 215
f 323 307 322
f 323 308 307
f 324 309 310
f 324 310 325
f 326 312 219
f 326 219 227
f 326 313 312
f 326 327 313
f 328 317 316
f 328 329 317
f 330 228 229
f 330 329 228
f 329 318 317
f 329 330 318
f 230 330 229
f 230 331 330
f 331 318 330
f 331 319 318
f 332 221 320
f 332 231 221
f 332 230 231
f 332 331 230
f 332 319 331
f 332 320 319
f 322 224 232
f 322 232 333
f 323 233 225
f 323 334 233
f 233 333 232
f 233 334 333
f 334 322 333
f 334 323 322
f 326 227 236
f 326 236 335
f 336 326 335
f 336 327 326
f 337 228 329
f 337 237 228
f 338 238 237
f 338 237 337
f 242 241 339
f 242 339 340
f 342 246 245
f 342 245 341
f 247 246 342
f 247 342 343
f 335 236 248
f 335 248 344
f 248 247 343
f 248 343 344
f 338 250 238
f 338 346 250
f 345 338 337
f 345 346 338
f 347 251 250
f 347 250 346
f 339 241 253
f 339 253 349
f 253 252 348
f 253 348 349
f 340 254 242
f 340 350 254
f 350 339 349
f 350 340 339
f 351 255 254
f 351 254 350
f 341 245 257
f 341 257 353
f 257 256 352
f 257 352 353
f 354 341 353
f 354 342 341
f 355 342 354
f 355 343 342
f 356 343 355
f 356 344 343
f 358 345 357
f 358 346 345
f 347 261 251
f 347 359 261
f 348 252 262
f 348 262 360
f 262 261 359
f 262 359 360
f 361 348 360
f 361 349 348
f 351 263 255
f 351 363 263
f 362 351 350
f 362 363 351
f 352 256 264
f 352 264 364
f 264 263 363
f 264 363 364
f 365 352 364
f 365 353 352
f 365 354 353
f 365 366 354
f 367 354 366
f 367 355 354
f 368 355 367
f 368 356 355
f 371 265 266
f 371 370 265
f 373 267 268
f 373 372 267
f 375 269 270
f 375 374 269
f 376 270 271
f 376 375 270
f 272 376 271
f 272 377 376
f 379 265 370
f 379 273 265
f 379 369 378
f 379 370 369
f 380 371 266
f 380 266 274
f 381 267 372
f 381 275 267
f 381 274 275
f 381 380 274
f 381 371 380
f 381 372 371
f 382 373 268
f 382 268 276
f 383 269 374
f 383 277 269
f 277 382 276
f 277 383 382
f 383 373 382
f 383 374 373
f 377 272 279
f 377 279 384
f 387 273 379
f 387 280 273
f 384 279 285
f 384 285 389
f 285 284 388
f 285 388 389
f 391 286 287
f 391 390 286
f 393 288 289
f 393 392 288
f 290 393 289
f 290 394 393
f 395 385 394
f 395 386 385
f 396 280 387
f 396 292 280
f 396 291 292
f 396 395 291
f 396 386 395
f 396 387 386
f 294 293 397
f 294 397 398
f 388 284 295
f 388 295 399
f 400 388 399
f 400 389 388
f 401 286 390
f 401 297 286
f 297 400 296
f 297 401 400
f 400 390 389
f 400 401 390
f 402 391 287
f 402 287 298
f 401 390 391
f 401 391 402
f 392 299 288
f 392 403 299
f 403 392 393
f 403 393 404
f 405 394 290
f 405 290 301
f 405 404 393
f 405 393 394
f 406 291 395
f 406 302 291
f 406 301 302
f 406 405 301
f 407 397 293
f 407 293 304
f 398 305 294
f 398 408 305
f 305 407 304
f 305 408 407
f 407 398 397
f 407 408 398
f 306 305 408
f 306 408 409
f 410 399 295
f 410 295 308
f 400 309 296
f 400 411 309
f 309 410 308
f 309 411 410
f 410 400 399
f 410 411 400
f 310 309 411
f 310 411 412
f 412 411 400
f 412 400 401
f 402 298 311
f 402 311 413
f 414 311 312
f 414 413 311
f 313 414 312
f 313 415 414
f 403 314 299
f 403 416 314
f 315 314 416
f 315 416 417
f 416 403 404
f 416 404 417
f 418 316 315
f 418 315 417
f 418 417 404
f 418 404 405
f 419 408 305
f 419 305 320
f 409 321 306
f 409 420 321
f 321 419 320
f 321 420 419
f 419 409 408
f 419 420 409
f 411 309 324
f 411 324 421
f 412 325 310
f 412 422 325
f 325 421 324
f 325 422 421
f 421 412 411
f 421 422 412
f 423 415 313
f 423 313 327
f 418 328 316
f 418 424 328
f 425 329 328
f 425 328 424
f 423 327 336
f 423 336 429
f 336 335 428
f 336 428 429
f 425 337 329
f 425 431 337
f 430 425 424
f 430 431 425
f 432 426 427
f 432 427 433
f 428 335 344
f 428 344 435
f 431 345 337
f 431 437 345
f 436 431 430
f 436 437 431
f 347 346 438
f 347 438 439
f 350 349 441
f 350 441 442
f 435 344 356
f 435 356 446
f 446 445 434
f 446 434 435
f 447 345 437
f 447 357 345
f 438 346 358
f 438 358 448
f 358 357 447
f 358 447 448
f 447 437 438
f 447 438 448
f 449 347 439
f 449 359 347
f 360 359 449
f 360 449 450
f 449 439 440
f 449 440 450
f 441 349 361
f 441 361 451
f 361 360 450
f 361 450 451
f 451 450 440
f 451 440 441
f 442 362 350
f 442 452 362
f 453 363 362
f 453 362 452
f 452 442 443
f 452 443 453
f 364 363 453
f 364 453 454
f 453 443 444
f 453 444 454
f 365 364 454
f 365 454 455
f 456 366 365
f 456 365 455
f 457 367 366
f 457 366 456
f 446 356 368
f 446 368 458
f 368 367 457
f 368 457 458
f 459 455 454
f 459 460 455
f 461 455 460
f 461 456 455
f 463 459 462
f 463 460 459
f 468 369 370
f 468 467 369
f 371 468 370
f 371 469 468
f 470 371 372
f 470 469 371
f 470 464 469
f 470 465 464
f 373 470 372
f 373 471 470
f 470 466 465
f 470 471 466
f 374 471 373
f 374 472 471
f 375 472 374
f 375 473 472
f 474 375 376
f 474 473 375
f 475 376 377
f 475 474 376
f 467 378 369
f 467 477 378
f 478 379 378
f 478 378 477
f 478 477 467
f 478 467 468
f 479 478 468
f 479 468 469
f 480 471 472
f 480 472 481
f 482 473 474
f 482 474 483
f 475 377 384
f 475 384 484
f 483 474 475
f 483 475 484
f 386 485 385
f 386 486 485
f 486 476 485
f 486 477 476
f 487 379 478
f 487 387 379
f 487 386 387
f 487 486 386
f 488 484 384
f 488 384 389
f 489 389 390
f 489 488 389
f 490 385 485
f 490 394 385
f 491 395 394
f 491 394 490
f 495 489 390
f 495 390 401
f 401 400 494
f 401 494 495
f 402 495 401
f 402 496 495
f 491 406 395
f 491 499 406
f 499 405 406
f 499 498 405
f 500 492 493
f 500 493 501
f 494 400 411
f 494 411 502
f 503 401 495
f 503 412 401
f 412 502 411
f 412 503 502
f 503 494 502
f 503 495 494
f 496 402 413
f 496 413 504
f 505 413 414
f 505 504 413
f 506 414 415
f 506 505 414
f 498 418 405
f 498 508 418
f 508 497 507
f 508 498 497
f 512 504 505
f 512 505 513
f 506 415 423
f 506 423 514
f 513 505 506
f 513 506 514
f 515 418 508
f 515 424 418
f 427 426 516
f 427 516 517
f 519 518 509
f 519 509 510
f 520 519 510
f 520 510 511
f 514 423 429
f 514 429 522
f 429 428 521
f 429 521 522
f 515 430 424
f 515 523 430
f 516 426 432
f 516 432 525
f 517 433 427
f 517 526 433
f 433 525 432
f 433 526 525
f 525 517 516
f 525 526 517
f 521 428 435
f 521 435 531
f 435 434 530
f 435 530 531
f 532 521 531
f 532 522 521
f 533 430 523
f 533 436 430
f 534 437 436
f 534 436 533
f 533 523 524
f 533 524 534
f 438 437 534
f 438 534 535
f 439 438 535
f 439 535 536
f 536 535 525
f 536 525 526
f 440 439 536
f 440 536 537
f 538 441 440
f 538 440 537
f 539 442 441
f 539 441 538
f 539 538 527
f 539 527 528
f 443 442 539
f 443 539 540
f 539 528 529
f 539 529 540
f 541 444 443
f 541 443 540
f 530 434 445
f 530 445 542
f 543 445 446
f 543 542 445
f 543 530 542
f 543 531 530
f 544 531 543
f 544 532 531
f 545 444 541
f 545 454 444
f 457 456 546
f 457 546 547
f 548 543 446
f 548 446 458
f 548 458 457
f 548 457 547
f 548 547 542
f 548 542 543
f 545 459 454
f 545 550 459
f 546 456 461
f 546 461 552
f 461 460 551
f 461 551 552
f 550 462 459
f 550 554 462
f 553 550 549
f 553 554 550
f 551 460 463
f 551 463 555
f 555 463 462
f 555 462 554
f 557 464 465
f 557 556 464
f 558 465 466
f 558 557 465
f 559 464 556
f 559 469 464
f 559 556 557
f 559 557 560
f 558 466 471
f 558 471 561
f 560 557 558
f 560 558 561
f 563 472 473
f 563 562 472
f 565 476 477
f 565 564 476
f 559 479 469
f 559 567 479
f 479 566 478
f 479 567 566
f 568 567 559
f 568 559 560
f 561 471 480
f 561 480 569
f 570 472 562
f 570 481 472
f 481 569 480
f 481 570 569
f 569 562 561
f 569 570 562
f 563 473 482
f 563 482 571
f 572 482 483
f 572 571 482
f 573 483 484
f 573 572 483
f 574 476 564
f 574 485 476
f 565 477 486
f 565 486 575
f 574 564 565
f 574 565 575
f 566 487 478
f 566 576 487
f 487 575 486
f 487 576 575
f 573 484 488
f 573 488 580
f 581 488 489
f 581 580 488
f 582 485 574
f 582 490 485
f 491 490 582
f 491 582 583
f 582 574 575
f 582 575 583
f 583 575 576
f 583 576 584
f 585 577 578
f 585 578 586
f 587 493 492
f 587 492 586
f 586 578 579
f 586 579 587
f 581 489 495
f 581 495 589
f 588 580 581
f 588 581 589
f 590 495 496
f 590 589 495
f 592 497 498
f 592 591 497
f 583 499 491
f 583 593 499
f 499 592 498
f 499 593 592
f 593 583 584
f 593 584 594
f 595 586 492
f 595 492 500
f 596 493 587
f 596 501 493
f 596 500 501
f 596 595 500
f 598 590 496
f 598 496 504
f 597 589 590
f 597 590 598
f 591 507 497
f 591 600 507
f 601 508 507
f 601 507 600
f 601 600 591
f 601 591 592
f 510 509 605
f 510 605 606
f 511 510 606
f 511 606 607
f 598 504 512
f 598 512 608
f 607 597 598
f 607 598 608
f 609 512 513
f 609 608 512
f 610 513 514
f 610 609 513
f 612 599 611
f 612 600 599
f 613 508 601
f 613 515 508
f 613 600 612
f 613 601 600
f 616 615 602
f 616 602 603
f 616 603 604
f 616 604 617
f 605 509 518
f 605 518 619
f 519 619 518
f 519 620 619
f 620 605 619
f 620 606 605
f 607 520 511
f 607 621 520
f 520 620 519
f 520 621 620
f 621 607 608
f 621 608 622
f 622 608 609
f 622 609 623
f 610 514 522
f 610 522 624
f 624 623 609
f 624 609 610
f 613 523 515
f 613 627 523
f 627 612 626
f 627 613 612
f 524 523 627
f 524 627 628
f 629 628 614
f 629 614 615
f 630 526 525
f 630 525 629
f 631 617 618
f 631 618 632
f 633 528 527
f 633 527 632
f 634 529 528
f 634 528 633
f 637 621 622
f 637 622 638
f 639 638 622
f 639 622 623
f 624 522 532
f 624 532 640
f 642 625 641
f 642 626 625
f 644 524 628
f 644 534 524
f 643 628 627
f 643 644 628
f 629 525 535
f 629 535 645
f 645 535 534
f 645 534 644
f 630 536 526
f 630 646 536
f 645 630 629
f 645 646 630
f 647 537 536
f 647 536 646
f 648 632 527
f 648 527 538
f 538 537 647
f 538 647 648
f 648 633 632
f 648 649 633
f 634 540 529
f 634 650 540
f 649 634 633
f 649 650 634
f 541 540 650
f 541 650 651
f 651 635 636
f 651 636 652
f 654 653 637
f 654 637 638
f 543 542 654
f 543 654 655
f 655 654 638
f 655 638 639
f 640 532 544
f 640 544 656
f 544 543 655
f 544 655 656
f 658 643 657
f 658 644 643
f 659 541 651
f 659 545 541
f 659 651 652
f 659 652 660
f 661 660 652
f 661 652 653
f 654 542 547
f 654 547 662
f 662 547 546
f 662 546 661
f 662 661 653
f 662 653 654
f 664 657 663
f 664 658 657
f 666 545 659
f 666 550 545
f 550 665 549
f 550 666 665
f 667 666 659
f 667 659 660
f 668 661 546
f 668 546 552
f 668 552 551
f 668 551 667
f 668 667 660
f 668 660 661
f 665 553 549
f 665 669 553
f 670 554 553
f 670 553 669
f 670 669 665
f 670 665 666
f 671 667 551
f 671 551 555
f 671 555 554
f 671 554 670
f 671 670 666
f 671 666 667
f 561 672 560
f 561 673 672
f 674 561 562
f 674 673 561
f 563 674 562
f 563 675 674
f 567 677 566
f 567 678 677
f 672 568 560
f 672 679 568
f 568 678 567
f 568 679 678
f 680 679 672
f 680 672 673
f 675 563 571
f 675 571 681
f 572 681 571
f 572 682 681
f 681 676 675
f 681 682 676
f 683 572 573
f 683 682 572
f 677 576 566
f 677 684 576
f 685 684 677
f 685 677 678
f 685 678 679
f 685 679 686
f 686 679 680
f 686 680 687
f 688 578 577
f 688 577 687
f 579 578 688
f 579 688 689
f 690 689 681
f 690 681 682
f 683 573 580
f 683 580 691
f 690 682 683
f 690 683 691
f 684 584 576
f 684 692 584
f 694 687 577
f 694 577 585
f 693 686 687
f 693 687 694
f 695 585 586
f 695 694 585
f 696 579 689
f 696 587 579
f 696 688 695
f 696 689 688
f 691 580 588
f 691 588 698
f 697 690 691
f 697 691 698
f 699 588 589
f 699 698 588
f 704 592 593
f 704 703 592
f 692 594 584
f 692 705 594
f 594 704 593
f 594 705 704
f 709 695 586
f 709 586 595
f 696 596 587
f 696 710 596
f 596 709 595
f 596 710 709
f 709 696 695
f 709 710 696
f 699 589 597
f 699 597 712
f 713 699 712
f 713 700 699
f 716 599 600
f 716 715 599
f 716 701 715
f 716 702 701
f 717 592 703
f 717 601 592
f 717 600 601
f 717 716 600
f 717 702 716
f 717 703 702
f 603 602 718
f 603 718 719
f 604 603 719
f 604 719 720
f 720 719 706
f 720 706 707
f 721 720 707
f 721 707 708
f 722 710 711
f 722 711 723
f 725 712 597
f 725 597 607
f 607 606 724
f 607 724 725
f 715 611 599
f 715 727 611
f 727 714 726
f 727 715 714
f 728 612 611
f 728 611 727
f 730 718 602
f 730 602 615
f 615 614 729
f 615 729 730
f 616 730 615
f 616 731 730
f 731 718 730
f 731 719 718
f 732 604 720
f 732 617 604
f 617 731 616
f 617 732 731
f 731 720 719
f 731 732 720
f 733 618 617
f 733 617 732
f 734 724 606
f 734 606 620
f 621 734 620
f 621 735 734
f 624 736 623
f 624 737 736
f 728 626 612
f 728 740 626
f 740 625 626
f 740 739 625
f 739 728 727
f 739 740 728
f 627 626 740
f 627 740 741
f 729 614 628
f 729 628 742
f 743 615 730
f 743 629 615
f 743 628 629
f 743 742 628
f 743 729 742
f 743 730 729
f 732 617 631
f 732 631 745
f 744 731 732
f 744 732 745
f 733 632 618
f 733 746 632
f 746 631 632
f 746 745 631
f 745 733 732
f 745 746 733
f 636 635 748
f 636 748 749
f 735 621 637
f 735 637 750
f 736 639 623
f 736 751 639
f 737 624 640
f 737 640 752
f 752 751 736
f 752 736 737
f 739 641 625
f 739 754 641
f 754 738 753
f 754 739 738
f 740 626 642
f 740 642 755
f 642 641 754
f 642 754 755
f 741 643 627
f 741 756 643
f 755 741 740
f 755 756 741
f 757 756 741
f 757 741 742
f 758 645 644
f 758 644 757
f 646 645 758
f 646 758 759
f 647 646 759
f 647 759 760
f 648 647 760
f 648 760 761
f 649 648 761
f 649 761 762
f 761 746 747
f 761 747 762
f 763 650 649
f 763 649 762
f 748 635 651
f 748 651 764
f 651 650 763
f 651 763 764
f 765 636 749
f 765 652 636
f 765 748 764
f 765 749 748
f 766 750 637
f 766 637 653
f 766 653 652
f 766 652 765
f 767 639 751
f 767 655 639
f 768 752 640
f 768 640 656
f 656 655 767
f 656 767 768
f 767 751 752
f 767 752 768
f 770 753 769
f 770 754 753
f 771 754 770
f 771 755 754
f 772 643 756
f 772 657 643
f 757 644 658
f 757 658 773
f 774 757 773
f 774 758 757
f 777 760 776
f 777 761 760
f 778 761 777
f 778 762 761
f 778 763 762
f 778 779 763
f 780 763 779
f 780 764 763
f 772 663 657
f 772 781 663
f 782 773 658
f 782 658 664
f 664 663 781
f 664 781 782
f 785 775 784
f 785 776 775
f 786 776 785
f 786 777 776
f 788 783 787
f 788 784 783
f 789 784 788
f 789 785 784
f 674 792 673
f 674 793 792
f 794 674 675
f 794 793 674
f 676 794 675
f 676 795 794
f 796 791 790
f 796 797 791
f 792 680 673
f 792 802 680
f 804 795 676
f 804 676 682
f 682 681 803
f 682 803 804
f 806 797 796
f 806 807 797
f 808 799 798
f 808 809 799
f 810 684 685
f 810 809 684
f 809 800 799
f 809 810 800
f 686 810 685
f 686 811 810
f 812 680 802
f 812 687 680
f 812 801 811
f 812 802 801
f 813 688 687
f 813 687 812
f 814 803 681
f 814 681 689
f 690 814 689
f 690 815 814
f 814 804 803
f 814 815 804
f 815 805 804
f 815 816 805
f 817 684 809
f 817 692 684
f 818 811 686
f 818 686 693
f 819 693 694
f 819 818 693
f 818 812 811
f 818 819 812
f 820 688 813
f 820 695 688
f 820 694 695
f 820 819 694
f 819 813 812
f 819 820 813
f 815 690 697
f 815 697 821
f 822 697 698
f 822 821 697
f 821 816 815
f 821 822 816
f 823 698 699
f 823 822 698
f 700 823 699
f 700 824 823
f 826 701 702
f 826 825 701
f 827 702 703
f 827 826 702
f 704 827 703
f 704 828 827
f 817 705 692
f 817 829 705
f 705 828 704
f 705 829 828
f 831 707 706
f 831 706 830
f 708 707 831
f 708 831 832
f 711 710 834
f 711 834 835
f 838 824 700
f 838 700 713
f 713 712 837
f 713 837 838
f 825 715 701
f 825 840 715
f 840 714 715
f 840 839 714
f 842 841 826
f 842 826 827
f 844 830 706
f 844 706 719
f 843 829 830
f 843 830 844
f 845 719 720
f 845 844 719
f 845 830 844
f 845 831 830
f 832 721 708
f 832 846 721
f 721 845 720
f 721 846 845
f 845 832 831
f 845 846 832
f 846 832 833
f 846 833 847
f 834 710 722
f 834 722 848
f 835 723 711
f 835 849 723
f 723 848 722
f 723 849 848
f 848 835 834
f 848 849 835
f 850 849 835
f 850 835 836
f 851 837 712
f 851 712 725
f 851 725 724
f 851 724 850
f 851 850 836
f 851 836 837
f 839 726 714
f 839 852 726
f 853 727 726
f 853 726 852
f 853 852 839
f 853 839 840
f 732 731 854
f 732 854 855
f 850 724 734
f 850 734 856
f 857 734 735
f 857 856 734
f 859 727 853
f 859 739 727
f 739 858 738
f 739 859 858
f 862 742 741
f 862 741 861
f 854 731 744
f 854 744 863
f 855 745 732
f 855 864 745
f 864 744 745
f 864 863 744
f 863 855 854
f 863 864 855
f 747 746 865
f 747 865 866
f 869 857 735
f 869 735 750
f 868 856 857
f 868 857 869
f 858 753 738
f 858 870 753
f 871 870 858
f 871 858 859
f 871 859 860
f 871 860 872
f 861 741 756
f 861 756 873
f 756 755 872
f 756 872 873
f 862 757 742
f 862 874 757
f 874 756 757
f 874 873 756
f 874 861 873
f 874 862 861
f 759 758 875
f 759 875 876
f 877 760 759
f 877 759 876
f 865 746 761
f 865 761 878
f 879 747 866
f 879 762 747
f 879 761 762
f 879 878 761
f 878 866 865
f 878 879 866
f 882 765 764
f 882 764 881
f 882 881 867
f 882 867 868
f 869 750 766
f 869 766 883
f 883 766 765
f 883 765 882
f 883 882 868
f 883 868 869
f 870 769 753
f 870 884 769
f 770 769 884
f 770 884 885
f 885 884 870
f 885 870 871
f 872 755 771
f 872 771 886
f 771 770 885
f 771 885 886
f 885 871 872
f 885 872 886
f 873 772 756
f 873 887 772
f 887 872 886
f 887 873 872
f 887 873 874
f 887 874 888
f 875 758 774
f 875 774 889
f 774 773 888
f 774 888 889
f 877 776 760
f 877 891 776
f 891 775 776
f 891 890 775
f 891 876 890
f 891 877 876
f 778 777 892
f 778 892 893
f 894 779 778
f 894 778 893
f 881 764 780
f 881 780 895
f 895 780 779
f 895 779 894
f 895 894 880
f 895 880 881
f 897 772 887
f 897 781 772
f 896 887 886
f 896 897 887
f 898 888 773
f 898 773 782
f 898 782 781
f 898 781 897
f 900 775 890
f 900 784 775
f 900 783 784
f 900 899 783
f 900 889 899
f 900 890 889
f 892 777 786
f 892 786 902
f 786 785 901
f 786 901 902
f 903 892 902
f 903 893 892
f 904 898 897
f 904 905 898
f 906 783 899
f 906 787 783
f 906 898 905
f 906 899 898
f 907 788 787
f 907 787 906
f 901 785 789
f 901 789 908
f 789 788 907
f 789 907 908
f 909 901 908
f 909 902 901
f 791 912 790
f 791 913 912
f 793 914 792
f 793 915 914
f 915 910 914
f 915 911 910
f 794 915 793
f 794 916 915
f 917 794 795
f 917 916 794
f 912 796 790
f 912 918 796
f 913 791 797
f 913 797 919
f 921 798 799
f 921 920 798
f 800 921 799
f 800 922 921
f 924 792 914
f 924 802 792
f 924 801 802
f 924 923 801
f 925 917 795
f 925 795 804
f 805 925 804
f 805 926 925
f 918 806 796
f 918 927 806
f 919 797 807
f 919 807 928
f 928 807 806
f 928 806 927
f 920 808 798
f 920 929 808
f 930 809 808
f 930 808 929
f 931 922 800
f 931 800 810
f 932 801 923
f 932 811 801
f 932 810 811
f 932 931 810
f 932 922 931
f 932 923 922
f 926 805 816
f 926 816 934
f 933 925 926
f 933 926 934
f 936 927 935
f 936 928 927
f 930 817 809
f 930 940 817
f 939 930 929
f 939 940 930
f 934 816 822
f 934 822 941
f 823 941 822
f 823 942 941
f 943 823 824
f 943 942 823
f 947 825 826
f 947 946 825
f 948 937 947
f 948 938 937
f 949 827 828
f 949 948 827
f 950 817 940
f 950 829 817
f 950 828 829
f 950 949 828
f 949 940 939
f 949 950 940
f 951 830 829
f 951 829 950
f 833 832 952
f 833 952 953
f 836 835 954
f 836 954 955
f 956 837 836
f 956 836 955
f 956 955 941
f 956 941 942
f 943 824 838
f 943 838 957
f 838 837 956
f 838 956 957
f 956 942 943
f 956 943 957
f 959 944 958
f 959 945 944
f 960 825 946
f 960 840 825
f 960 945 959
f 960 946 945
f 947 826 841
f 947 841 961
f 961 960 946
f 961 946 947
f 948 842 827
f 948 962 842
f 962 841 842
f 962 961 841
f 950 829 843
f 950 843 963
f 951 844 830
f 951 964 844
f 964 843 844
f 964 963 843
f 963 951 950
f 963 964 951
f 952 832 846
f 952 846 965
f 953 847 833
f 953 966 847
f 847 965 846
f 847 966 965
f 965 953 952
f 965 966 953
f 954 835 849
f 954 849 968
f 850 968 849
f 850 969 968
f 969 954 968
f 969 955 954
f 970 959 958
f 970 971 959
f 972 840 960
f 972 853 840
f 972 959 971
f 972 960 959
f 975 965 966
f 975 966 976
f 976 966 967
f 976 967 977
f 969 850 856
f 969 856 979
f 980 853 972
f 980 859 853
f 860 859 980
f 860 980 981
f 982 973 974
f 982 974 983
f 984 976 977
f 984 977 985
f 987 979 856
f 987 856 868
f 987 868 867
f 987 867 986
f 987 986 978
f 987 978 979
f 989 860 981
f 989 872 860
f 874 873 990
f 874 990 991
f 993 876 875
f 993 875 992
f 994 984 985
f 994 985 995
f 996 986 867
f 996 867 881
f 996 881 880
f 996 880 995
f 989 886 872
f 989 998 886
f 997 989 988
f 997 998 989
f 990 873 887
f 990 887 999
f 991 888 874
f 991 1000 888
f 888 999 887
f 888 1000 999
f 999 991 990
f 999 1000 991
f 992 875 889
f 992 889 1001
f 1001 889 888
f 1001 888 1000
f 1002 876 993
f 1002 890 876
f 1002 889 890
f 1002 1001 889
f 1002 992 1001
f 1002 993 992
f 1005 995 880
f 1005 880 894
f 1005 894 893
f 1005 893 1004
f 998 896 886
f 998 1006 896
f 1007 897 896
f 1007 896 1006
f 1000 888 898
f 1000 898 1008
f 1001 899 889
f 1001 1009 899
f 899 1008 898
f 899 1009 1008
f 1008 1001 1000
f 1008 1009 1001
f 1012 1004 893
f 1012 893 903
f 903 902 1011
f 903 1011 1012
f 1012 1011 1003
f 1012 1003 1004
f 1007 904 897
f 1007 1013 904
f 1014 905 904
f 1014 904 1013
f 1015 906 905
f 1015 905 1014
f 1015 1014 1008
f 1015 1008 1009
f 907 906 1015
f 907 1015 1016
f 1015 1009 1010
f 1015 1010 1016
f 1017 908 907
f 1017 907 1016
f 1011 902 909
f 1011 909 1018
f 909 908 1017
f 909 1017 1018
f 1019 1017 1016
f 1019 1020 1017
f 1021 1017 1020
f 1021 1018 1017
f 911 1022 910
f 911 1023 1022
f 913 1024 912
f 913 1025 1024
f 1026 910 1022
f 1026 914 910
f 1023 911 915
f 1023 915 1027
f 1026 1022 1023
f 1026 1023 1027
f 916 1027 915
f 916 1028 1027
f 917 1028 916
f 917 1029 1028
f 1024 918 912
f 1024 1031 918
f 1025 913 919
f 1025 919 1032
f 1032 1031 1024
f 1032 1024 1025
f 1036 920 921
f 1036 1035 920
f 922 1036 921
f 922 1037 1036
f 1038 922 923
f 1038 1037 922
f 1026 924 914
f 1026 1039 924
f 924 1038 923
f 924 1039 1038
f 1040 1039 1026
f 1040 1026 1027
f 1041 1040 1027
f 1041 1027 1028
f 1029 917 925
f 1029 925 1042
f 1045 918 1031
f 1045 927 918
f 1045 1030 1044
f 1045 1031 1030
f 1032 919 928
f 1032 928 1046
f 1049 1033 1048
f 1049 1034 1033
f 1050 920 1035
f 1050 929 920
f 1050 1034 1049
f 1050 1035 1034
f 1051 1037 1038
f 1051 1038 1052
f 1053 1052 1038
f 1053 1038 1039
f 1042 925 933
f 1042 933 1055
f 1056 933 934
f 1056 1055 933
f 1055 1043 1042
f 1055 1056 1043
f 1045 935 927
f 1045 1058 935
f 1057 1045 1044
f 1057 1058 1045
f 1046 928 936
f 1046 936 1059
f 1059 936 935
f 1059 935 1058
f 1060 1046 1059
f 1060 1047 1046
f 1061 1047 1060
f 1061 1048 1047
f 1062 937 938
f 1062 1061 937
f 1061 1049 1048
f 1061 1062 1049
f 1050 939 929
f 1050 1063 939
f 1062 1050 1049
f 1062 1063 1050
f 1065 1064 1054
f 1065 1054 1055
f 1066 1056 934
f 1066 934 941
f 1066 1065 1055
f 1066 1055 1056
f 1070 944 945
f 1070 1069 944
f 1069 1059 1058
f 1069 1070 1059
f 1071 945 946
f 1071 1070 945
f 1070 1060 1059
f 1070 1071 1060
f 1072 937 1061
f 1072 947 937
f 1071 1061 1060
f 1071 1072 1061
f 1073 1062 938
f 1073 938 948
f 948 947 1072
f 948 1072 1073
f 1074 939 1063
f 1074 949 939
f 1074 948 949
f 1074 1073 948
f 1074 1062 1073
f 1074 1063 1062
f 1066 941 955
f 1066 955 1076
f 1075 1065 1066
f 1075 1066 1076
f 1078 1067 1077
f 1078 1068 1067
f 1079 944 1069
f 1079 958 944
f 1071 946 960
f 1071 960 1080
f 961 1080 960
f 961 1081 1080
f 1080 1072 1071
f 1080 1081 1072
f 1073 962 948
f 1073 1082 962
f 1082 961 962
f 1082 1081 961
f 966 965 1085
f 966 1085 1086
f 967 966 1086
f 967 1086 1087
f 1088 1076 955
f 1088 955 969
f 1089 1076 1088
f 1089 1077 1076
f 1079 970 958
f 1079 1090 970
f 1091 971 970
f 1091 970 1090
f 1092 972 971
f 1092 971 1091
f 1093 1092 1080
f 1093 1080 1081
f 1094 1093 1081
f 1094 1081 1082
f 1095 1083 1084
f 1095 1084 1096
f 1097 974 973
f 1097 973 1096
f 1085 965 975
f 1085 975 1098
f 976 1098 975
f 976 1099 1098
f 1098 1086 1085
f 1098 1099 1086
f 1100 967 1087
f 1100 977 967
f 1099 1087 1086
f 1099 1100 1087
f 1088 969 979
f 1088 979 1102
f 979 978 1101
f 979 1101 1102
f 1103 1088 1102
f 1103 1089 1088
f 1092 980 972
f 1092 1105 980
f 1104 1092 1091
f 1104 1105 1092
f 1106 981 980
f 1106 980 1105
f 1107 1096 973
f 1107 973 982
f 1097 983 974
f 1097 1108 983
f 983 1107 982
f 983 1108 1107
f 1107 1097 1096
f 1107 1108 1097
f 1109 1099 976
f 1109 976 984
f 1110 977 1100
f 1110 985 977
f 1109 1100 1099
f 1109 1110 1100
f 1111 1101 978
f 1111 978 986
f 1112 1101 1111
f 1112 1102 1101
f 1113 1105 1104
f 1113 1114 1105
f 1106 989 981
f 1106 1115 989
f 1115 988 989
f 1115 1114 988
f 1114 1106 1105
f 1114 1115 1106
f 1109 984 994
f 1109 994 1117
f 1118 985 1110
f 1118 995 985
f 1118 994 995
f 1118 1117 994
f 1118 1109 1117
f 1118 1110 1109
f 1119 1111 986
f 1119 986 996
f 1119 996 995
f 1119 995 1118
f 1120 988 1114
f 1120 997 988
f 998 997 1120
f 998 1120 1121
f 1120 1114 1115
f 1120 1115 1121
f 1124 1004 1003
f 1124 1003 1123
f 1124 1123 1116
f 1124 1116 1117
f 1118 995 1005
f 1118 1005 1125
f 1125 1005 1004
f 1125 1004 1124
f 1126 998 1121
f 1126 1006 998
f 1007 1006 1126
f 1007 1126 1127
f 1126 1121 1122
f 1126 1122 1127
f 1129 1009 1008
f 1129 1008 1128
f 1010 1009 1129
f 1010 1129 1130
f 1131 1123 1003
f 1131 1003 1011
f 1131 1124 1123
f 1131 1132 1124
f 1132 1125 1124
f 1132 1133 1125
f 1134 1007 1127
f 1134 1013 1007
f 1128 1008 1014
f 1128 1014 1135
f 1135 1014 1013
f 1135 1013 1134
f 1134 1127 1128
f 1134 1128 1135
f 1130 1016 1010
f 1130 1137 1016
f 1136 1130 1129
f 1136 1137 1130
f 1139 1131 1011
f 1139 1011 1018
f 1140 1133 1132
f 1140 1141 1133
f 1137 1019 1016
f 1137 1142 1019
f 1143 1020 1019
f 1143 1019 1142
f 1142 1137 1138
f 1142 1138 1143
f 1144 1139 1018
f 1144 1018 1021
f 1144 1021 1020
f 1144 1020 1143
f 1144 1143 1138
f 1144 1138 1139
f 1029 1145 1028
f 1029 1146 1145
f 1148 1030 1031
f 1148 1147 1030
f 1032 1148 1031
f 1032 1149 1148
f 1034 1151 1033
f 1034 1152 1151
f 1153 1034 1035
f 1153 1152 1034
f 1036 1153 1035
f 1036 1154 1153
f 1155 1036 1037
f 1155 1154 1036
f 1158 1039 1040
f 1158 1157 1039
f 1145 1041 1028
f 1145 1159 1041
f 1159 1040 1041
f 1159 1158 1040
f 1146 1029 1042
f 1146 1042 1160
f 1043 1160 1042
f 1043 1161 1160
f 1147 1044 1030
f 1147 1162 1044
f 1162 1147 1148
f 1162 1148 1163
f 1149 1032 1046
f 1149 1046 1164
f 1164 1163 1148
f 1164 1148 1149
f 1165 1046 1047
f 1165 1164 1046
f 1164 1150 1149
f 1164 1165 1150
f 1151 1048 1033
f 1151 1166 1048
f 1166 1047 1048
f 1166 1165 1047
f 1167 1166 1151
f 1167 1151 1152
f 1168 1153 1154
f 1168 1154 1169
f 1155 1037 1051
f 1155 1051 1170
f 1171 1051 1052
f 1171 1170 1051
f 1157 1053 1039
f 1157 1172 1053
f 1053 1171 1052
f 1053 1172 1171
f 1172 1156 1171
f 1172 1157 1156
f 1173 1172 1157
f 1173 1157 1158
f 1175 1055 1054
f 1175 1054 1174
f 1176 1161 1043
f 1176 1043 1056
f 1056 1055 1175
f 1056 1175 1176
f 1162 1057 1044
f 1162 1179 1057
f 1058 1057 1179
f 1058 1179 1180
f 1179 1162 1163
f 1179 1163 1180
f 1182 1165 1166
f 1182 1166 1183
f 1183 1166 1167
f 1183 1167 1184
f 1186 1174 1054
f 1186 1054 1064
f 1187 1064 1065
f 1187 1186 1064
f 1190 1067 1068
f 1190 1189 1067
f 1190 1177 1189
f 1190 1178 1177
f 1191 1058 1180
f 1191 1069 1058
f 1191 1180 1181
f 1191 1181 1192
f 1073 1072 1194
f 1073 1194 1195
f 1194 1183 1184
f 1194 1184 1195
f 1196 1195 1184
f 1196 1184 1185
f 1187 1065 1075
f 1187 1075 1199
f 1200 1075 1076
f 1200 1199 1075
f 1201 1067 1189
f 1201 1077 1067
f 1077 1200 1076
f 1077 1201 1200
f 1201 1188 1200
f 1201 1189 1188
f 1190 1068 1078
f 1190 1078 1202
f 1078 1077 1201
f 1078 1201 1202
f 1203 1069 1191
f 1203 1079 1069
f 1204 1203 1191
f 1204 1191 1192
f 1204 1192 1193
f 1204 1193 1205
f 1206 1194 1072
f 1206 1072 1081
f 1081 1080 1205
f 1081 1205 1206
f 1207 1073 1195
f 1207 1082 1073
f 1207 1194 1206
f 1207 1195 1194
f 1210 1084 1083
f 1210 1083 1209
f 1211 1197 1198
f 1211 1198 1212
f 1201 1077 1089
f 1201 1089 1213
f 1214 1201 1213
f 1214 1202 1201
f 1215 1079 1203
f 1215 1090 1079
f 1216 1091 1090
f 1216 1090 1215
f 1215 1203 1204
f 1215 1204 1216
f 1217 1205 1080
f 1217 1080 1092
f 1217 1216 1204
f 1217 1204 1205
f 1093 1217 1092
f 1093 1218 1217
f 1207 1094 1082
f 1207 1219 1094
f 1219 1093 1094
f 1219 1218 1093
f 1219 1206 1218
f 1219 1207 1206
f 1221 1209 1083
f 1221 1083 1095
f 1220 1208 1209
f 1220 1209 1221
f 1222 1084 1210
f 1222 1096 1084
f 1222 1095 1096
f 1222 1221 1095
f 1221 1210 1209
f 1221 1222 1210
f 1213 1089 1103
f 1213 1103 1224
f 1103 1102 1223
f 1103 1223 1224
f 1216 1104 1091
f 1216 1225 1104
f 1226 1225 1216
f 1226 1216 1217
f 1223 1102 1112
f 1223 1112 1231
f 1112 1111 1230
f 1112 1230 1231
f 1232 1223 1231
f 1232 1224 1223
f 1225 1113 1104
f 1225 1233 1113
f 1234 1114 1113
f 1234 1113 1233
f 1115 1114 1234
f 1115 1234 1235
f 1237 1227 1228
f 1237 1228 1238
f 1238 1228 1229
f 1238 1229 1239
f 1242 1117 1116
f 1242 1116 1241
f 1230 1111 1119
f 1230 1119 1244
f 1119 1118 1243
f 1119 1243 1244
f 1245 1230 1244
f 1245 1231 1230
f 1235 1121 1115
f 1235 1247 1121
f 1246 1235 1234
f 1246 1247 1235
f 1122 1121 1247
f 1122 1247 1248
f 1247 1235 1236
f 1247 1236 1248
f 1249 1239 1240
f 1249 1240 1250
f 1251 1241 1116
f 1251 1116 1123
f 1242 1124 1117
f 1242 1252 1124
f 1252 1123 1124
f 1252 1251 1123
f 1251 1242 1241
f 1251 1252 1242
f 1243 1118 1125
f 1243 1125 1253
f 1254 1243 1253
f 1254 1244 1243
f 1254 1245 1244
f 1254 1255 1245
f 1256 1122 1248
f 1256 1127 1122
f 1128 1127 1256
f 1128 1256 1257
f 1258 1129 1128
f 1258 1128 1257
f 1259 1249 1250
f 1259 1250 1260
f 1262 1132 1131
f 1262 1131 1261
f 1253 1125 1133
f 1253 1133 1263
f 1258 1136 1129
f 1258 1264 1136
f 1265 1137 1136
f 1265 1136 1264
f 1138 1137 1265
f 1138 1265 1266
f 1267 1261 1131
f 1267 1131 1139
f 1267 1139 1138
f 1267 1138 1266
f 1262 1140 1132
f 1262 1268 1140
f 1263 1133 1141
f 1263 1141 1269
f 1269 1141 1140
f 1269 1140 1268
f 1271 1145 1146
f 1271 1270 1145
f 1150 1272 1149
f 1150 1273 1272
f 1153 1274 1152
f 1153 1275 1274
f 1155 1276 1154
f 1155 1277 1276
f 1279 1156 1157
f 1279 1278 1156
f 1270 1159 1145
f 1270 1281 1159
f 1159 1280 1158
f 1159 1281 1280
f 1282 1271 1146
f 1282 1146 1160
f 1281 1270 1271
f 1281 1271 1282
f 1283 1160 1161
f 1283 1282 1160
f 1272 1164 1149
f 1272 1285 1164
f 1285 1163 1164
f 1285 1284 1163
f 1286 1273 1150
f 1286 1150 1165
f 1286 1285 1272
f 1286 1272 1273
f 1274 1167 1152
f 1274 1287 1167
f 1275 1153 1168
f 1275 1168 1288
f 1287 1274 1275
f 1287 1275 1288
f 1276 1169 1154
f 1276 1289 1169
f 1169 1288 1168
f 1169 1289 1288
f 1277 1155 1170
f 1277 1170 1290
f 1290 1289 1276
f 1290 1276 1277
f 1278 1171 1156
f 1278 1291 1171
f 1291 1170 1171
f 1291 1290 1170
f 1279 1157 1172
f 1279 1172 1292
f 1292 1291 1278
f 1292 1278 1279
f 1280 1173 1158
f 1280 1293 1173
f 1173 1292 1172
f 1173 1293 1292
f 1294 1293 1280
f 1294 1280 1281
f 1295 1175 1174
f 1295 1174 1294
f 1295 1294 1281
f 1295 1281 1282
f 1283 1161 1176
f 1283 1176 1296
f 1296 1176 1175
f 1296 1175 1295
f 1295 1282 1283
f 1295 1283 1296
f 1178 1297 1177
f 1178 1298 1297
f 1299 1163 1284
f 1299 1180 1163
f 1181 1180 1299
f 1181 1299 1300
f 1286 1165 1182
f 1286 1182 1301
f 1302 1182 1183
f 1302 1301 1182
f 1287 1184 1167
f 1287 1303 1184
f 1185 1184 1303
f 1185 1303 1304
f 1304 1303 1287
f 1304 1287 1288
f 1305 1304 1288
f 1305 1288 1289
f 1306 1305 1289
f 1306 1289 1290
f 1307 1306 1290
f 1307 1290 1291
f 1307 1291 1292
f 1307 1292 1308
f 1308 1292 1293
f 1308 1293 1309
f 1294 1174 1186
f 1294 1186 1310
f 1309 1293 1294
f 1309 1294 1310
f 1311 1186 1187
f 1311 1310 1186
f 1313 1177 1297
f 1313 1189 1177
f 1313 1188 1189
f 1313 1312 1188
f 1314 1298 1178
f 1314 1178 1190
f 1314 1313 1297
f 1314 1297 1298
f 1315 1181 1300
f 1315 1192 1181
f 1193 1192 1315
f 1193 1315 1316
f 1315 1300 1301
f 1315 1301 1316
f 1317 1302 1183
f 1317 1183 1194
f 1316 1301 1302
f 1316 1302 1317
f 1195 1317 1194
f 1195 1318 1317
f 1304 1196 1185
f 1304 1319 1196
f 1196 1318 1195
f 1196 1319 1318
f 1319 1303 1318
f 1319 1304 1303
f 1198 1197 1320
f 1198 1320 1321
f 1322 1321 1308
f 1322 1308 1309
f 1323 1322 1309
f 1323 1309 1310
f 1311 1187 1199
f 1311 1199 1324
f 1312 1200 1188
f 1312 1325 1200
f 1325 1199 1200
f 1325 1324 1199
f 1326 1325 1312
f 1326 1312 1313
f 1327 1314 1190
f 1327 1190 1202
f 1326 1313 1314
f 1326 1314 1327
f 1328 1193 1316
f 1328 1205 1193
f 1206 1205 1328
f 1206 1328 1329
f 1328 1316 1317
f 1328 1317 1329
f 1330 1329 1317
f 1330 1317 1318
f 1330 1318 1319
f 1330 1319 1331
f 1332 1209 1208
f 1332 1208 1331
f 1320 1197 1211
f 1320 1211 1334
f 1335 1198 1321
f 1335 1212 1198
f 1212 1334 1211
f 1212 1335 1334
f 1335 1320 1334
f 1335 1321 1320
f 1336 1324 1325
f 1336 1325 1337
f 1338 1337 1325
f 1338 1325 1326
f 1327 1202 1214
f 1327 1214 1339
f 1339 1214 1213
f 1339 1213 1338
f 1339 1338 1326
f 1339 1326 1327
f 1329 1218 1206
f 1329 1341 1218
f 1218 1340 1217
f 1218 1341 1340
f 1342 1341 1329
f 1342 1329 1330
f 1343 1331 1208
f 1343 1208 1220
f 1332 1221 1209
f 1332 1344 1221
f 1344 1220 1221
f 1344 1343 1220
f 1344 1332 1333
f 1344 1333 1345
f 1338 1213 1224
f 1338 1224 1347
f 1347 1346 1337
f 1347 1337 1338
f 1340 1226 1217
f 1340 1349 1226
f 1226 1348 1225
f 1226 1349 1348
f 1350 1349 1340
f 1350 1340 1341
f 1353 1228 1227
f 1353 1227 1352
f 1354 1229 1228
f 1354 1228 1353
f 1347 1224 1232
f 1347 1232 1358
f 1232 1231 1357
f 1232 1357 1358
f 1358 1357 1346
f 1358 1346 1347
f 1348 1233 1225
f 1348 1359 1233
f 1234 1233 1359
f 1234 1359 1360
f 1359 1348 1349
f 1359 1349 1360
f 1361 1360 1349
f 1361 1349 1350
f 1236 1235 1361
f 1236 1361 1362
f 1361 1350 1351
f 1361 1351 1362
f 1352 1227 1237
f 1352 1237 1363
f 1363 1362 1351
f 1363 1351 1352
f 1364 1237 1238
f 1364 1363 1237
f 1365 1229 1354
f 1365 1239 1229
f 1365 1238 1239
f 1365 1364 1238
f 1364 1354 1353
f 1364 1365 1354
f 1366 1240 1239
f 1366 1239 1365
f 1367 1355 1356
f 1367 1356 1368
f 1357 1231 1245
f 1357 1245 1369
f 1370 1234 1360
f 1370 1246 1234
f 1371 1361 1235
f 1371 1235 1247
f 1371 1247 1246
f 1371 1246 1370
f 1371 1370 1360
f 1371 1360 1361
f 1372 1236 1362
f 1372 1248 1236
f 1373 1372 1362
f 1373 1362 1363
f 1365 1239 1249
f 1365 1249 1374
f 1366 1250 1240
f 1366 1375 1250
f 1374 1366 1365
f 1374 1375 1366
f 1254 1253 1378
f 1254 1378 1379
f 1369 1245 1255
f 1369 1255 1380
f 1255 1254 1379
f 1255 1379 1380
f 1381 1248 1372
f 1381 1256 1248
f 1257 1256 1381
f 1257 1381 1382
f 1381 1372 1373
f 1381 1373 1382
f 1258 1257 1382
f 1258 1382 1383
f 1374 1249 1259
f 1374 1259 1384
f 1375 1260 1250
f 1375 1385 1260
f 1385 1259 1260
f 1385 1384 1259
f 1385 1375 1376
f 1385 1376 1386
f 1262 1261 1386
f 1262 1386 1387
f 1386 1376 1377
f 1386 1377 1387
f 1378 1253 1263
f 1378 1263 1388
f 1389 1258 1383
f 1389 1264 1258
f 1265 1264 1389
f 1265 1389 1390
f 1389 1383 1384
f 1389 1384 1390
f 1266 1265 1390
f 1266 1390 1391
f 1391 1390 1384
f 1391 1384 1385
f 1392 1386 1261
f 1392 1261 1267
f 1392 1267 1266
f 1392 1266 1391
f 1392 1391 1385
f 1392 1385 1386
f 1393 1262 1387
f 1393 1268 1262
f 1394 1388 1263
f 1394 1263 1269
f 1394 1269 1268
f 1394 1268 1393
f 1393 1387 1388
f 1393 1388 1394
f 1396 1284 1285
f 1396 1395 1284
f 1397 1285 1286
f 1397 1396 1285
f 1395 1299 1284
f 1395 1398 1299
f 1399 1300 1299
f 1399 1299 1398
f 1399 1398 1395
f 1399 1395 1396
f 1400 1397 1286
f 1400 1286 1301
f 1400 1301 1300
f 1400 1300 1399
f 1400 1399 1396
f 1400 1396 1397
f 1304 1401 1303
f 1304 1402 1401
f 1305 1402 1304
f 1305 1403 1402
f 1404 1305 1306
f 1404 1403 1305
f 1405 1306 1307
f 1405 1404 1306
f 1406 1307 1308
f 1406 1405 1307
f 1311 1407 1310
f 1311 1408 1407
f 1401 1318 1303
f 1401 1409 1318
f 1410 1319 1318
f 1410 1318 1409
f 1411 1403 1404
f 1411 1404 1412
f 1413 1412 1404
f 1413 1404 1405
f 1406 1308 1321
f 1406 1321 1414
f 1413 1405 1406
f 1413 1406 1414
f 1415 1321 1322
f 1415 1414 1321
f 1407 1323 1310
f 1407 1416 1323
f 1323 1415 1322
f 1323 1416 1415
f 1417 1408 1311
f 1417 1311 1324
f 1417 1416 1407
f 1417 1407 1408
f 1410 1331 1319
f 1410 1420 1331
f 1420 1330 1331
f 1420 1419 1330
f 1419 1410 1409
f 1419 1420 1410
f 1332 1331 1420
f 1332 1420 1421
f 1333 1332 1421
f 1333 1421 1422
f 1422 1421 1411
f 1422 1411 1412
f 1423 1414 1415
f 1423 1415 1424
f 1425 1424 1415
f 1425 1415 1416
f 1417 1324 1336
f 1417 1336 1426
f 1425 1416 1417
f 1425 1417 1426
f 1427 1336 1337
f 1427 1426 1336
f 1419 1342 1330
f 1419 1429 1342
f 1342 1428 1341
f 1342 1429 1428
f 1429 1418 1428
f 1429 1419 1418
f 1430 1420 1331
f 1430 1331 1343
f 1344 1430 1343
f 1344 1431 1430
f 1430 1421 1420
f 1430 1431 1421
f 1432 1333 1422
f 1432 1345 1333
f 1345 1431 1344
f 1345 1432 1431
f 1432 1421 1431
f 1432 1422 1421
f 1433 1423 1424
f 1433 1424 1434
f 1435 1434 1424
f 1435 1424 1425
f 1427 1337 1346
f 1427 1346 1437
f 1436 1426 1427
f 1436 1427 1437
f 1428 1350 1341
f 1428 1438 1350
f 1351 1350 1438
f 1351 1438 1439
f 1438 1428 1429
f 1438 1429 1439
f 1440 1352 1351
f 1440 1351 1439
f 1441 1353 1352
f 1441 1352 1440
f 1356 1355 1444
f 1356 1444 1445
f 1437 1346 1357
f 1437 1357 1446
f 1446 1445 1436
f 1446 1436 1437
f 1447 1439 1438
f 1447 1448 1439
f 1448 1440 1439
f 1448 1449 1440
f 1450 1353 1441
f 1450 1364 1353
f 1450 1363 1364
f 1450 1449 1363
f 1450 1440 1449
f 1450 1441 1440
f 1453 1452 1442
f 1453 1442 1443
f 1454 1444 1355
f 1454 1355 1367
f 1453 1443 1444
f 1453 1444 1454
f 1455 1356 1445
f 1455 1368 1356
f 1368 1454 1367
f 1368 1455 1454
f 1446 1357 1369
f 1446 1369 1456
f 1456 1455 1445
f 1456 1445 1446
f 1449 1373 1363
f 1449 1458 1373
f 1457 1449 1448
f 1457 1458 1449
f 1461 1375 1374
f 1461 1374 1460
f 1376 1375 1461
f 1376 1461 1462
f 1462 1461 1451
f 1462 1451 1452
f 1377 1376 1462
f 1377 1462 1463
f 1462 1452 1453
f 1462 1453 1463
f 1464 1463 1453
f 1464 1453 1454
f 1465 1379 1378
f 1465 1378 1464
f 1465 1464 1454
f 1465 1454 1455
f 1466 1456 1369
f 1466 1369 1380
f 1380 1379 1465
f 1380 1465 1466
f 1466 1465 1455
f 1466 1455 1456
f 1468 1373 1458
f 1468 1382 1373
f 1467 1458 1457
f 1467 1468 1458
f 1469 1383 1382
f 1469 1382 1468
f 1468 1458 1459
f 1468 1459 1469
f 1460 1374 1384
f 1460 1384 1470
f 1470 1384 1383
f 1470 1383 1469
f 1471 1377 1463
f 1471 1387 1377
f 1472 1464 1378
f 1472 1378 1388
f 1388 1387 1471
f 1388 1471 1472
f 1471 1463 1464
f 1471 1464 1472
f 1474 1401 1402
f 1474 1473 1401
f 1403 1474 1402
f 1403 1475 1474
f 1477 1401 1473
f 1477 1409 1401
f 1475 1403 1411
f 1475 1411 1478
f 1478 1476 1475
f 1478 1479 1476
f 1480 1412 1413
f 1480 1479 1412
f 1481 1413 1414
f 1481 1480 1413
f 1483 1409 1477
f 1483 1419 1409
f 1483 1418 1419
f 1483 1482 1418
f 1485 1478 1411
f 1485 1411 1421
f 1486 1412 1479
f 1486 1422 1412
f 1486 1421 1422
f 1486 1485 1421
f 1486 1478 1485
f 1486 1479 1478
f 1481 1414 1423
f 1481 1423 1488
f 1490 1425 1426
f 1490 1489 1425
f 1491 1418 1482
f 1491 1428 1418
f 1492 1429 1428
f 1492 1428 1491
f 1494 1493 1484
f 1494 1484 1485
f 1488 1423 1433
f 1488 1433 1497
f 1497 1496 1487
f 1497 1487 1488
f 1498 1433 1434
f 1498 1497 1433
f 1489 1435 1425
f 1489 1499 1435
f 1499 1434 1435
f 1499 1498 1434
f 1490 1426 1436
f 1490 1436 1500
f 1500 1499 1489
f 1500 1489 1490
f 1502 1429 1492
f 1502 1439 1429
f 1502 1438 1439
f 1502 1501 1438
f 1502 1491 1501
f 1502 1492 1491
f 1504 1503 1495
f 1504 1495 1496
f 1443 1442 1505
f 1443 1505 1506
f 1507 1444 1443
f 1507 1443 1506
f 1507 1506 1498
f 1507 1498 1499
f 1508 1500 1436
f 1508 1436 1445
f 1508 1445 1444
f 1508 1444 1507
f 1508 1507 1499
f 1508 1499 1500
f 1501 1447 1438
f 1501 1509 1447
f 1510 1448 1447
f 1510 1447 1509
f 1513 1505 1442
f 1513 1442 1452
f 1452 1451 1512
f 1452 1512 1513
f 1514 1505 1513
f 1514 1506 1505
f 1515 1448 1510
f 1515 1457 1448
f 1515 1510 1511
f 1515 1511 1516
f 1459 1458 1516
f 1459 1516 1517
f 1519 1512 1451
f 1519 1451 1461
f 1519 1461 1460
f 1519 1460 1518
f 1520 1457 1515
f 1520 1467 1457
f 1521 1516 1458
f 1521 1458 1468
f 1521 1468 1467
f 1521 1467 1520
f 1521 1520 1515
f 1521 1515 1516
f 1522 1459 1517
f 1522 1469 1459
f 1523 1518 1460
f 1523 1460 1470
f 1470 1469 1522
f 1470 1522 1523
f 1522 1517 1518
f 1522 1518 1523
f 1524 1518 1523
f 1524 1519 1518
f 1474 1525 1473
f 1474 1526 1525
f 1475 1526 1474
f 1475 1527 1526
f 1476 1527 1475
f 1476 1528 1527
f 1525 1477 1473
f 1525 1529 1477
f 1529 1525 1526
f 1529 1526 1530
f 1530 1526 1527
f 1530 1527 1531
f 1532 1528 1476
f 1532 1476 1479
f 1531 1527 1528
f 1531 1528 1532
f 1533 1479 1480
f 1533 1532 1479
f 1534 1480 1481
f 1534 1533 1480
f 1529 1483 1477
f 1529 1536 1483
f 1483 1535 1482
f 1483 1536 1535
f 1537 1536 1529
f 1537 1529 1530
f 1538 1485 1484
f 1538 1484 1537
f 1539 1538 1531
f 1539 1531 1532
f 1539 1532 1533
f 1539 1533 1540
f 1541 1534 1481
f 1541 1481 1488
f 1541 1488 1487
f 1541 1487 1540
f 1541 1540 1533
f 1541 1533 1534
f 1535 1491 1482
f 1535 1542 1491
f 1543 1542 1535
f 1543 1535 1536
f 1537 1484 1493
f 1537 1493 1544
f 1544 1543 1536
f 1544 1536 1537
f 1538 1494 1485
f 1538 1545 1494
f 1545 1493 1494
f 1545 1544 1493
f 1545 1538 1539
f 1545 1539 1546
f 1547 1540 1487
f 1547 1487 1496
f 1547 1496 1495
f 1547 1495 1546
f 1546 1539 1540
f 1546 1540 1547
f 1548 1496 1497
f 1548 1547 1496
f 1549 1497 1498
f 1549 1548 1497
f 1542 1501 1491
f 1542 1550 1501
f 1550 1542 1543
f 1550 1543 1551
f 1552 1551 1543
f 1552 1543 1544
f 1546 1495 1503
f 1546 1503 1554
f 1553 1545 1546
f 1553 1546 1554
f 1547 1504 1496
f 1547 1555 1504
f 1555 1503 1504
f 1555 1554 1503
f 1555 1547 1548
f 1555 1548 1556
f 1549 1498 1506
f 1549 1506 1557
f 1556 1548 1549
f 1556 1549 1557
f 1558 1501 1550
f 1558 1509 1501
f 1510 1509 1558
f 1510 1558 1559
f 1558 1550 1551
f 1558 1551 1559
f 1511 1510 1559
f 1511 1559 1560
f 1559 1551 1552
f 1559 1552 1560
f 1562 1554 1555
f 1562 1555 1563
f 1564 1513 1512
f 1564 1512 1563
f 1564 1563 1555
f 1564 1555 1556
f 1557 1506 1514
f 1557 1514 1565
f 1514 1513 1564
f 1514 1564 1565
f 1565 1564 1556
f 1565 1556 1557
f 1566 1511 1560
f 1566 1516 1511
f 1517 1516 1566
f 1517 1566 1567
f 1566 1560 1561
f 1566 1561 1567
f 1568 1518 1517
f 1568 1517 1567
f 1569 1563 1512
f 1569 1512 1519
f 1570 1518 1568
f 1570 1523 1518
f 1569 1519 1524
f 1569 1524 1571
f 1524 1523 1570
f 1524 1570 1571
f 1571 1570 1568
f 1571 1568 1569
f 1531 1572 1530
f 1531 1573 1572
f 1574 1530 1572
f 1574 1537 1530
f 1575 1573 1531
f 1575 1531 1538
f 1538 1537 1574
f 1538 1574 1575
f 1574 1572 1573
f 1574 1573 1575
f 1577 1544 1545
f 1577 1576 1544
f 1576 1552 1544
f 1576 1578 1552
f 1577 1545 1553
f 1577 1553 1579
f 1578 1576 1577
f 1578 1577 1579
f 1580 1553 1554
f 1580 1579 1553
f 1581 1552 1578
f 1581 1560 1552
f 1561 1560 1581
f 1561 1581 1582
f 1581 1578 1579
f 1581 1579 1582
f 1580 1554 1562
f 1580 1562 1583
f 1582 1579 1580
f 1582 1580 1583
f 1584 1562 1563
f 1584 1583 1562
f 1585 1561 1582
f 1585 1567 1561
f 1586 1568 1567
f 1586 1567 1585
f 1585 1582 1583
f 1585 1583 1586
f 1587 1584 1563
f 1587 1563 1569
f 1587 1569 1568
f 1587 1568 1586
f 1586 1583 1584
f 1586 1584 1587
