# parsimony mesh: g7326_monomer (source /Users/eranagmon/code/v2e-flagella/workspace/studies/ecoli-3d/viz/3d/structures/g7326_monomer.pdb)
# atoms: 1215  voxel: 16 Å  verts: 46  tris: 82
v -6.3359 -13.5621 -11.5586
v 2.5242 -14.4375 -12.5018
v 12.1805 -14.3309 -12.3200
v -9.7462 -4.9645 -12.7594
v 2.5242 -4.9645 -15.4975
v 14.8190 -4.9645 -13.5524
v -10.0714 11.0355 -12.7547
v 2.5242 11.0355 -15.2352
v 19.3663 11.9801 -12.8636
v 26.8135 17.9431 -10.9225
v -6.7696 19.6960 -11.5524
v 2.5242 20.3350 -12.2395
v 18.5242 19.9182 -11.7671
v 26.8135 19.1403 -10.9225
v -21.8884 -13.2953 4.8269
v -12.3919 -14.3578 -1.4296
v 2.8889 -14.9791 -2.3330
v 12.1805 -14.3309 -7.3455
v -22.4003 -4.9645 1.9869
v -17.7462 -4.9645 -6.0131
v 8.4653 -10.8342 3.3211
v 15.1328 -5.2863 -2.3330
v -22.2959 3.6247 1.2795
v -13.8729 10.1198 -3.7698
v 2.5242 15.3878 0.9579
v 18.8699 11.9344 -3.8192
v 26.8135 17.9431 -10.5252
v -6.7696 19.6960 -8.8192
v 2.5242 20.3350 -7.0421
v 18.5242 19.9182 -8.3216
v 26.8135 19.1403 -10.5252
v -23.5113 -15.2410 13.1857
v -12.3255 -15.6219 14.2748
v -2.2014 -14.3582 9.6675
v -23.5963 -4.2255 12.9518
v -12.3255 -4.2255 16.8417
v 2.8889 -5.2863 9.7128
v 12.4788 -0.1675 6.2476
v -22.2959 3.6247 7.4625
v -13.4758 5.6620 8.3944
v 2.5242 7.3878 7.4832
v 12.4788 5.9258 6.2476
v -23.7772 -15.6689 23.2565
v -16.8920 -15.6689 23.2565
v -23.7772 -9.0662 23.2565
v -16.8920 -9.0662 23.2565
f 5 1 4
f 5 2 1
f 5 3 2
f 5 6 3
f 8 4 7
f 8 5 4
f 8 6 5
f 8 9 6
f 11 8 7
f 11 12 8
f 13 8 12
f 13 9 8
f 13 10 9
f 13 14 10
f 17 1 2
f 17 16 1
f 18 2 3
f 18 17 2
f 16 4 1
f 16 20 4
f 19 16 15
f 19 20 16
f 18 3 6
f 18 6 22
f 21 17 18
f 21 18 22
f 24 4 20
f 24 7 4
f 23 20 19
f 23 24 20
f 26 22 6
f 26 6 9
f 27 9 10
f 27 26 9
f 28 7 24
f 28 11 7
f 28 24 25
f 28 25 29
f 29 25 26
f 29 26 30
f 27 10 14
f 27 14 31
f 30 26 27
f 30 27 31
f 33 15 16
f 33 32 15
f 34 16 17
f 34 33 16
f 35 15 32
f 35 19 15
f 34 17 21
f 34 21 37
f 36 33 34
f 36 34 37
f 38 21 22
f 38 37 21
f 39 19 35
f 39 23 19
f 40 24 23
f 40 23 39
f 40 39 35
f 40 35 36
f 41 25 24
f 41 24 40
f 40 36 37
f 40 37 41
f 42 38 22
f 42 22 26
f 42 26 25
f 42 25 41
f 41 37 38
f 41 38 42
f 44 32 33
f 44 43 32
f 45 32 43
f 45 35 32
f 46 44 33
f 46 33 36
f 46 36 35
f 46 35 45
f 45 43 44
f 45 44 46
