# parsimony mesh: g7401_monomer (source /Users/eranagmon/code/v2e-cplx/workspace/studies/ecoli-3d/viz/3d/structures/g7401_monomer.pdb)
# atoms: 640  voxel: 8 Å  verts: 88  tris: 172
v -3.9782 -8.0842 -11.7018
v 1.6997 -8.2922 -13.1189
v 7.1026 -6.7373 -12.9411
v -3.8618 -1.6478 -12.6369
v 1.6997 -1.6478 -15.6755
v 8.0169 -1.6478 -13.7651
v -3.2380 6.3522 -12.8096
v 1.6997 6.3522 -14.8021
v 9.9118 6.6770 -12.3968
v 13.8259 9.5603 -10.8537
v -3.1465 11.6348 -11.9320
v 2.0515 14.3218 -12.0863
v 9.2076 13.7393 -11.4393
v 13.8259 10.6640 -10.8537
v 4.9527 18.5243 -10.9676
v 6.2128 18.5243 -10.9676
v 4.3442 -14.0331 -3.4972
v 6.1950 -14.0331 -3.4972
v -10.5410 -7.0443 -3.6804
v -6.5070 -8.9228 -6.4988
v 1.6864 -11.9386 -6.3889
v 7.6823 -9.5015 -6.3889
v -10.6333 -1.6478 -3.7121
v -7.8618 -1.6478 -7.7121
v 11.5972 -1.3929 -6.7937
v 14.1849 1.4438 -4.1719
v -10.5035 2.7805 -3.0868
v -7.0030 5.8091 -6.1427
v 12.7198 4.2270 -9.5052
v 14.9700 6.6770 -6.7937
v -3.8757 12.3601 -6.7265
v 2.0515 16.7374 -5.9848
v 9.2076 16.0965 -5.9848
v 14.9237 11.5591 -6.7265
v 4.9527 18.5243 -8.1569
v 6.2128 18.5243 -8.1569
v -2.7917 -13.8803 4.3747
v 1.6864 -14.0971 1.5342
v 6.2526 -14.0351 1.2735
v -10.7559 -7.1627 1.2735
v -5.7951 -11.0350 1.5342
v -0.9892 -12.6066 -0.9586
v 8.2624 -9.6478 1.2735
v -10.7867 -1.5577 1.1453
v -9.5809 1.1691 3.7265
v 11.2905 -1.3929 0.8897
v 14.1849 1.4438 -2.0328
v -10.5035 2.7805 -1.6069
v -6.5677 6.1216 1.4501
v 1.6997 9.5351 4.4811
v 9.6826 7.0322 3.6250
v 15.1929 6.3522 -0.5695
v -3.5546 11.7468 -0.8263
v 1.6997 13.3717 0.4811
v 9.6997 13.2987 0.6926
v 15.2055 11.6496 -0.5443
v -2.7917 -13.8803 7.7635
v 1.6997 -13.9205 7.3299
v 5.9416 -13.7789 5.5253
v -11.1925 -6.6121 9.2735
v -5.5022 -8.9574 10.3033
v 1.6997 -9.6478 10.0378
v 6.8363 -9.6478 6.4932
v -11.1925 -3.4045 9.2735
v -6.2301 -1.4856 9.9551
v 1.7103 -1.3880 11.7160
v 7.4222 -1.3880 9.2981
v -4.2476 4.1293 7.0671
v 1.7103 5.1483 9.5497
v 6.8976 4.5144 9.2735
v -11.3862 -6.1969 17.2735
v -8.6609 -6.1969 17.2735
v -11.3862 -4.1672 17.2735
v -8.6609 -4.1672 17.2735
v 4.3841 1.4518 13.6138
v 5.9921 1.4518 13.6138
v 4.3841 2.7684 13.6138
v 5.9921 2.7684 13.6138
v -18.3044 -5.6520 29.2168
v -14.6093 -5.6848 25.2917
v -10.2021 -5.7176 21.3667
v -18.3044 -5.6406 29.2168
v -14.6093 -5.4109 25.2917
v -10.2021 -5.1812 21.3667
v -18.3044 -5.6520 29.2771
v -18.2934 -5.6520 29.2771
v -18.3044 -5.6406 29.2771
v -18.2934 -5.6406 29.2771
f 4 2 1
f 4 5 2
f 5 3 2
f 5 6 3
f 7 5 4
f 7 8 5
f 8 6 5
f 8 9 6
f 11 8 7
f 11 12 8
f 12 9 8
f 12 13 9
f 14 9 13
f 14 10 9
f 16 12 15
f 16 13 12
f 21 1 2
f 21 20 1
f 22 2 3
f 22 21 2
f 21 18 17
f 21 22 18
f 24 1 20
f 24 4 1
f 24 19 23
f 24 20 19
f 25 22 3
f 25 3 6
f 28 4 24
f 28 7 4
f 27 24 23
f 27 28 24
f 29 25 6
f 29 6 9
f 10 29 9
f 10 30 29
f 29 26 25
f 29 30 26
f 31 7 28
f 31 11 7
f 12 11 31
f 12 31 32
f 34 30 10
f 34 10 14
f 34 14 13
f 34 13 33
f 32 15 12
f 32 35 15
f 33 13 16
f 33 16 36
f 16 15 35
f 16 35 36
f 36 35 32
f 36 32 33
f 39 17 18
f 39 38 17
f 41 19 20
f 41 40 19
f 42 17 38
f 42 21 17
f 42 20 21
f 42 41 20
f 42 37 41
f 42 38 37
f 43 39 18
f 43 18 22
f 44 19 40
f 44 23 19
f 46 43 22
f 46 22 25
f 47 25 26
f 47 46 25
f 48 23 44
f 48 27 23
f 28 27 48
f 28 48 49
f 48 44 45
f 48 45 49
f 52 47 26
f 52 26 30
f 52 51 46
f 52 46 47
f 53 28 49
f 53 31 28
f 32 31 53
f 32 53 54
f 53 49 50
f 53 50 54
f 33 32 54
f 33 54 55
f 55 54 50
f 55 50 51
f 56 52 30
f 56 30 34
f 56 34 33
f 56 33 55
f 56 55 51
f 56 51 52
f 58 37 38
f 58 57 37
f 59 38 39
f 59 58 38
f 57 41 37
f 57 61 41
f 41 60 40
f 41 61 60
f 62 61 57
f 62 57 58
f 59 39 43
f 59 43 63
f 63 62 58
f 63 58 59
f 64 40 60
f 64 44 40
f 45 44 64
f 45 64 65
f 66 65 61
f 66 61 62
f 63 43 46
f 63 46 67
f 67 66 62
f 67 62 63
f 68 45 65
f 68 49 45
f 50 49 68
f 50 68 69
f 68 65 66
f 68 66 69
f 67 46 51
f 67 51 70
f 70 51 50
f 70 50 69
f 72 60 61
f 72 71 60
f 73 60 71
f 73 64 60
f 74 72 61
f 74 61 65
f 74 65 64
f 74 64 73
f 76 66 67
f 76 75 66
f 77 66 75
f 77 69 66
f 76 67 70
f 76 70 78
f 70 69 77
f 70 77 78
f 77 75 76
f 77 76 78
f 81 71 72
f 81 80 71
f 83 71 80
f 83 73 71
f 82 80 79
f 82 83 80
f 84 81 72
f 84 72 74
f 84 74 73
f 84 73 83
f 83 80 81
f 83 81 84
f 86 79 80
f 86 85 79
f 85 82 79
f 85 87 82
f 88 86 80
f 88 80 83
f 88 83 82
f 88 82 87
f 87 85 86
f 87 86 88
