# parsimony mesh: g7511_monomer (source /Users/eranagmon/code/v2e-abund/workspace/studies/ecoli-3d/viz/3d/structures/g7511_monomer.pdb)
# atoms: 2539  voxel: 16 Å  verts: 63  tris: 124
v -1.9957 -9.2993 -16.0940
v 8.5358 -10.0677 -16.7637
v 17.4527 -7.8771 -16.4227
v -16.0835 8.4612 -15.9393
v -7.3831 2.8251 -17.3069
v 8.5358 2.3710 -19.3645
v 18.5203 2.3710 -17.3092
v -16.0835 11.4004 -15.9393
v -6.5517 17.3887 -17.3236
v 8.5358 18.3710 -19.5644
v 18.3829 18.3710 -17.4882
v -0.6099 27.1527 -16.1219
v 8.5358 27.5986 -16.9637
v 17.2694 27.2260 -16.6614
v -15.6682 -21.8645 0.2115
v -7.4642 -23.3569 -2.8310
v 8.5358 -24.7514 -4.7680
v 18.0074 -23.7238 -2.3712
v -17.3456 -13.6290 -1.8355
v -7.3831 -14.2312 -10.2600
v 8.5358 -18.0677 -12.7680
v 18.9739 -13.3779 -7.5218
v -18.4767 2.8251 -7.3934
v -12.6624 -2.2055 -12.8239
v 20.6705 2.3710 -7.2477
v -17.7449 17.3887 -6.3715
v -6.8507 23.2187 -6.7079
v 8.5358 23.6494 -3.1839
v 18.7286 18.9942 -6.9682
v -16.5492 26.9800 -0.4541
v -6.8507 27.0663 -6.7079
v 8.5358 27.5986 -11.1839
v 17.2694 27.2260 -12.1152
v -15.6682 -21.8645 1.3776
v -6.0611 -23.0765 7.5275
v 8.5358 -25.2205 8.7523
v 18.0722 -23.5877 8.7523
v -18.1885 -13.6580 7.5275
v -10.4589 -19.0106 12.0442
v 14.4208 -9.1682 14.5618
v 18.7699 -14.1525 9.0380
v -20.9539 2.3710 8.7523
v 11.5506 2.3710 12.0892
v 18.6859 2.3710 4.0892
v -17.9050 17.3825 7.8052
v -7.6406 19.9539 7.8052
v 7.4166 15.1656 7.9362
v 17.7277 14.0763 2.0588
v -16.5492 26.9800 1.8404
v -13.0915 26.9800 1.8404
v 0.2077 -21.7377 16.8703
v 8.5358 -22.0982 17.2741
v 17.1127 -22.1459 17.3300
v -17.4962 -8.3439 19.7535
v -6.0611 -13.6580 19.6926
v 8.8668 -14.1525 18.2385
v 17.1127 -19.8349 17.3300
v -17.6528 2.3710 20.8033
v -7.4642 2.3710 22.7141
v 3.5506 2.3710 18.6632
v -16.3503 11.3902 19.1524
v -7.4642 11.8503 19.1272
v 1.3371 11.3242 17.5188
f 6 1 5
f 6 2 1
f 6 3 2
f 6 7 3
f 8 5 4
f 8 9 5
f 9 6 5
f 9 10 6
f 11 6 10
f 11 7 6
f 12 10 9
f 12 13 10
f 14 10 13
f 14 11 10
f 19 16 15
f 19 20 16
f 21 1 2
f 21 20 1
f 21 16 20
f 21 17 16
f 3 21 2
f 3 22 21
f 21 18 17
f 21 22 18
f 24 1 20
f 24 5 1
f 24 4 5
f 24 23 4
f 24 19 23
f 24 20 19
f 25 22 3
f 25 3 7
f 23 8 4
f 23 26 8
f 9 8 26
f 9 26 27
f 25 7 11
f 25 11 29
f 27 12 9
f 27 31 12
f 30 27 26
f 30 31 27
f 32 13 12
f 32 12 31
f 31 27 28
f 31 28 32
f 33 29 11
f 33 11 14
f 33 14 13
f 33 13 32
f 33 32 28
f 33 28 29
f 16 34 15
f 16 35 34
f 17 35 16
f 17 36 35
f 18 36 17
f 18 37 36
f 34 19 15
f 34 38 19
f 39 38 34
f 39 34 35
f 41 37 18
f 41 18 22
f 42 19 38
f 42 23 19
f 44 41 22
f 44 22 25
f 44 43 40
f 44 40 41
f 45 23 42
f 45 26 23
f 28 27 46
f 28 46 47
f 48 44 25
f 48 25 29
f 48 29 28
f 48 28 47
f 48 47 43
f 48 43 44
f 49 26 45
f 49 30 26
f 50 46 27
f 50 27 31
f 50 31 30
f 50 30 49
f 50 49 45
f 50 45 46
f 36 51 35
f 36 52 51
f 53 36 37
f 53 52 36
f 51 39 35
f 51 55 39
f 39 54 38
f 39 55 54
f 56 55 51
f 56 51 52
f 57 53 37
f 57 37 41
f 57 41 40
f 57 40 56
f 57 56 52
f 57 52 53
f 54 42 38
f 54 58 42
f 59 58 54
f 59 54 55
f 60 56 40
f 60 40 43
f 60 59 55
f 60 55 56
f 61 42 58
f 61 45 42
f 62 46 45
f 62 45 61
f 61 58 59
f 61 59 62
f 63 60 43
f 63 43 47
f 63 47 46
f 63 46 62
f 63 62 59
f 63 59 60
