# parsimony mesh: g7532_monomer (source /Users/eranagmon/code/v2e-flagella/workspace/studies/ecoli-3d/viz/3d/structures/g7532_monomer.pdb)
# atoms: 769  voxel: 16 Å  verts: 30  tris: 52
v -7.7966 -18.7723 -10.9646
v -4.1798 -18.7723 -10.9646
v -8.4815 -9.5156 -11.8559
v 1.1479 -9.9824 -12.6241
v 11.8553 -4.9603 -11.9549
v -8.0858 0.4224 -11.5660
v 1.1394 3.3893 -12.5987
v 11.8553 3.0863 -11.9549
v -8.3351 -19.4247 -2.0841
v -3.4466 -19.4247 -2.0841
v -11.1516 -9.5156 -2.0841
v 4.5534 -13.4970 -2.0841
v 11.8757 -5.4970 -2.0841
v -9.3480 6.0472 -1.0019
v 1.1394 11.3893 -5.9357
v 11.8678 7.6456 -3.0476
v -7.2509 14.9381 5.0529
v 1.1394 15.4685 2.0643
v 10.0383 15.3429 1.6435
v -7.8906 -18.8044 6.8619
v -4.9894 -18.8044 6.8619
v -9.5307 -9.5156 10.2403
v 0.6621 -9.0339 10.3790
v 10.0719 -3.3794 7.5884
v -9.0510 6.4844 11.6403
v 1.1394 6.4844 14.0228
v 10.5129 6.4844 8.2984
v -7.2509 14.9381 8.7286
v 1.1394 15.4685 9.1535
v 10.0383 15.3429 7.4201
f 3 2 1
f 3 4 2
f 6 4 3
f 6 7 4
f 7 5 4
f 7 8 5
f 2 9 1
f 2 10 9
f 11 1 9
f 11 3 1
f 12 10 2
f 12 2 4
f 5 12 4
f 5 13 12
f 11 6 3
f 11 14 6
f 15 7 6
f 15 6 14
f 13 5 8
f 13 8 16
f 8 7 15
f 8 15 16
f 17 15 14
f 17 18 15
f 19 15 18
f 19 16 15
f 21 9 10
f 21 20 9
f 20 11 9
f 20 22 11
f 21 10 12
f 21 12 23
f 22 20 21
f 22 21 23
f 24 12 13
f 24 23 12
f 22 14 11
f 22 25 14
f 25 22 23
f 25 23 26
f 24 13 16
f 24 16 27
f 26 23 24
f 26 24 27
f 25 17 14
f 25 28 17
f 28 25 26
f 28 26 29
f 27 16 19
f 27 19 30
f 29 26 27
f 29 27 30
