# parsimony mesh: g7834_monomer (source /Users/eranagmon/code/v2e-cplx/workspace/studies/ecoli-3d/viz/3d/structures/g7834_monomer.pdb)
# atoms: 833  voxel: 16 Å  verts: 42  tris: 80
v 5.0661 -7.9816 -10.8562
v 5.5232 -7.9816 -10.8562
v 3.5269 0.1444 -11.7586
v 6.6750 0.1444 -11.7586
v -13.6979 21.9955 -12.0031
v -2.3175 16.4551 -12.3636
v 6.7008 16.1444 -11.8510
v -29.1424 37.0776 -13.5319
v -19.0995 31.6759 -12.7675
v -2.6242 25.8793 -11.8381
v 5.5576 24.3278 -10.9795
v -29.1424 42.1759 -13.5319
v -24.5011 42.1759 -13.5319
v 5.2283 -23.9306 5.1148
v 8.4485 -23.9306 5.1148
v -12.9012 -10.6666 1.8691
v -0.1861 -14.6574 -1.8414
v 12.3192 -15.8733 -1.3884
v 23.7063 -13.0984 2.7750
v -12.9012 -5.3882 1.8691
v -1.1901 0.6169 -2.5880
v 11.5753 1.3341 -2.1351
v 23.7063 -3.9539 2.7750
v -13.6979 21.9955 -9.1894
v -2.3175 16.4551 -7.4343
v 6.7008 16.1444 -7.7997
v -29.1424 37.0776 -9.2242
v -19.0995 31.6759 -9.2068
v -2.6242 25.8793 -9.4079
v 5.5576 24.3278 -10.5529
v -29.1424 42.1759 -9.2242
v -24.5011 42.1759 -9.2242
v 5.2283 -23.9306 5.3014
v 8.4485 -23.9306 5.3014
v -12.9012 -10.6666 8.3276
v -1.1127 -15.9422 8.7317
v 13.6194 -17.4013 8.0032
v 23.7063 -13.0984 7.1133
v -12.9012 -5.3882 8.3276
v -2.6242 -3.1468 9.5398
v 13.3758 -2.0711 8.6290
v 23.7063 -3.9539 7.1133
f 4 1 3
f 4 2 1
f 7 3 6
f 7 4 3
f 10 5 9
f 10 6 5
f 11 6 10
f 11 7 6
f 13 8 12
f 13 9 8
f 2 17 1
f 2 18 17
f 18 14 17
f 18 15 14
f 21 1 17
f 21 3 1
f 20 17 16
f 20 21 17
f 22 18 2
f 22 2 4
f 23 18 22
f 23 19 18
f 25 3 21
f 25 6 3
f 6 24 5
f 6 25 24
f 26 22 4
f 26 4 7
f 26 25 21
f 26 21 22
f 28 5 24
f 28 9 5
f 9 27 8
f 9 28 27
f 10 9 28
f 10 28 29
f 29 28 24
f 29 24 25
f 30 26 7
f 30 7 11
f 30 11 10
f 30 10 29
f 30 29 25
f 30 25 26
f 27 12 8
f 27 31 12
f 32 28 9
f 32 9 13
f 13 12 31
f 13 31 32
f 32 31 27
f 32 27 28
f 15 33 14
f 15 34 33
f 36 14 33
f 36 17 14
f 36 16 17
f 36 35 16
f 37 34 15
f 37 15 18
f 37 36 33
f 37 33 34
f 19 37 18
f 19 38 37
f 35 20 16
f 35 39 20
f 40 21 20
f 40 20 39
f 40 39 35
f 40 35 36
f 41 22 21
f 41 21 40
f 41 40 36
f 41 36 37
f 38 19 23
f 38 23 42
f 23 22 41
f 23 41 42
f 41 37 38
f 41 38 42
