# parsimony mesh: cplx_CPLX0-8124 (source /Users/eranagmon/code/v2e-cplx/workspace/studies/ecoli-3d/viz/3d/structures/cplx_CPLX0-8124.pdb)
# atoms: 4982  voxel: 8 Å  verts: 576  tris: 1208
v 58.4552 -44.2134 -42.5824
v 62.9438 -45.3961 -43.0488
v 67.6882 -45.2611 -43.0175
v 58.4552 -43.1811 -42.5824
v 62.9438 -42.6008 -43.0488
v 67.6882 -42.5663 -43.0175
v -31.1124 50.1227 -43.0316
v -28.1587 50.1227 -43.0316
v -31.1124 53.3291 -43.0316
v -28.1587 53.3291 -43.0316
v 64.9720 -52.2460 -36.0041
v 67.6076 -52.2460 -36.0041
v 50.7607 -44.0623 -34.7491
v 55.2896 -44.1378 -37.8998
v 63.8130 -47.5366 -38.5604
v 67.6479 -47.8259 -38.5626
v 50.7607 -42.7046 -34.7491
v 55.2896 -42.9428 -37.8998
v 62.9438 -42.6008 -40.4776
v 67.6882 -42.5663 -41.1212
v -31.5094 43.4921 -36.7066
v -28.3439 43.4921 -36.7066
v -37.4003 51.3768 -34.7238
v -33.1862 49.0448 -37.5051
v -28.2513 47.8788 -38.8958
v -37.4003 52.9916 -34.7238
v -34.0247 53.1604 -37.9044
v -28.1587 53.3291 -41.0849
v 57.4842 -53.3043 -28.5024
v 62.5607 -53.7177 -30.8223
v 67.9862 -52.8786 -30.3023
v 50.7134 -44.1452 -30.3023
v 54.8041 -46.5700 -30.9436
v 62.4851 -47.6808 -30.9436
v 67.9862 -49.8114 -30.3023
v 50.5037 -39.7906 -29.8935
v 54.8519 -39.7906 -32.3923
v 60.6794 -39.4195 -29.4258
v 42.8318 -27.6774 -26.3965
v 47.4880 -30.7742 -27.1667
v 54.9438 -31.4195 -29.3248
v 60.1973 -31.4195 -28.3149
v 42.8318 -27.3029 -26.3965
v 46.9438 -26.1669 -26.8939
v 54.9438 -26.0726 -27.0241
v 59.3554 -27.1771 -26.5702
v -38.3093 42.9248 -28.7842
v -33.7281 42.0525 -30.9914
v -27.9495 42.6623 -30.3023
v -39.1243 48.6583 -30.9914
v -34.0873 48.4205 -31.9374
v -27.9495 46.2033 -30.3023
v -39.9151 56.0272 -30.7960
v -34.9983 56.0272 -30.7960
v -46.5316 66.2043 -26.6467
v -41.1931 64.6636 -27.5526
v -35.0071 63.1229 -28.4585
v -46.5316 69.3238 -26.6467
v -42.7589 69.3238 -26.6467
v 56.3095 -53.7522 -22.3023
v 63.0024 -53.9571 -22.2821
v 67.6698 -52.5385 -24.9352
v 49.2879 -45.2109 -22.3023
v 52.3095 -49.2109 -22.3023
v 64.5168 -47.5503 -22.2821
v 67.6698 -50.3042 -24.9352
v 42.7116 -36.8525 -18.7617
v 46.1633 -39.4793 -21.7779
v 56.3705 -37.4335 -19.9819
v 61.2141 -39.8279 -22.5100
v 42.7108 -30.7742 -21.7779
v 46.8115 -31.4187 -21.8066
v 54.1998 -32.0638 -21.5012
v 60.1973 -31.4195 -25.3890
v 42.8268 -27.2990 -22.3023
v 47.6749 -24.4310 -21.4470
v 54.0029 -23.9690 -22.9403
v 59.3554 -27.1771 -26.0717
v 50.0651 -17.3641 -20.1390
v 54.9720 -15.1150 -19.6392
v 59.5172 -12.8660 -19.1394
v 57.1954 -10.9213 -19.1394
v 59.5172 -10.9213 -19.1394
v -45.1484 44.5299 -18.4355
v -41.0081 42.6985 -21.5822
v -32.6920 41.8473 -21.8727
v -28.2929 43.1113 -24.2529
v -45.8640 48.5805 -19.4776
v -40.7805 50.2056 -21.3183
v -32.7887 49.0310 -21.3460
v -28.2929 45.6897 -24.2529
v -53.3182 59.8055 -19.0589
v -48.8471 56.9155 -20.9837
v -41.6516 56.5805 -22.2841
v -34.5733 56.5805 -23.4816
v -53.2996 64.5805 -19.2159
v -48.5411 64.9270 -22.3109
v -42.3407 63.5137 -23.7158
v -35.0071 63.1229 -25.0713
v -53.1188 68.6464 -18.7639
v -48.3367 71.1360 -21.2095
v -42.7121 72.3809 -22.4324
v -45.6044 77.8599 -19.3696
v -40.2081 80.1961 -19.0450
v -36.7529 82.5323 -18.7203
v -37.7509 84.7916 -18.7203
v -36.7529 84.7916 -18.7203
v 34.7301 -67.4816 -10.3562
v 36.5067 -67.4816 -10.3562
v 48.9061 -67.6416 -10.3956
v 51.1456 -67.6416 -10.3956
v 26.4668 -60.5488 -10.6345
v 31.7775 -63.6893 -10.4953
v 38.6996 -64.3823 -10.6710
v 47.0053 -64.0715 -10.6907
v 51.1456 -66.2082 -10.3956
v 26.4668 -58.9168 -10.6345
v 31.6854 -56.0266 -10.6992
v 38.5130 -55.6497 -11.6690
v 46.3571 -55.4195 -11.6645
v 55.5932 -53.6345 -14.3023
v 63.0024 -54.0478 -14.3191
v 67.4597 -52.8466 -11.6636
v 34.4635 -47.4195 -10.7606
v 38.9438 -47.4195 -13.0523
v 47.0970 -48.2912 -14.4967
v 51.5932 -50.7271 -14.3023
v 64.9479 -47.2261 -14.3191
v 67.4597 -49.7639 -11.6636
v 34.7012 -42.5606 -10.4518
v 39.1824 -39.7065 -14.0051
v 43.5267 -42.1858 -17.5584
v 55.8998 -38.0157 -14.3023
v 61.3756 -42.0157 -14.3023
v 40.6608 -31.4195 -14.3023
v 48.8691 -29.2975 -14.3023
v 51.8998 -33.2975 -14.3023
v 42.3029 -26.8130 -14.3023
v 46.9809 -24.7417 -14.3023
v 53.2036 -22.6705 -14.3023
v 48.6981 -14.9862 -14.5343
v 54.8779 -14.1911 -15.4758
v 59.5172 -12.8660 -17.0450
v 49.6689 -10.9934 -12.0223
v 54.6827 -10.9573 -14.5337
v 59.5172 -10.9213 -17.0450
v -55.0599 28.4278 -10.4636
v -49.0562 28.2623 -10.4876
v -44.8675 28.3089 -10.3881
v -69.1911 36.1382 -10.4115
v -68.0674 36.1382 -10.4115
v -56.0849 32.5805 -11.0872
v -49.0562 32.5805 -11.2081
v -44.6195 32.5805 -10.4232
v -69.1911 36.7386 -10.4115
v -64.7080 39.9462 -10.5211
v -57.4769 40.5244 -11.6725
v -48.3116 41.3501 -14.7207
v -41.6201 39.4197 -13.5475
v -32.6920 41.1690 -14.8303
v -28.2254 42.1120 -12.5156
v -61.3934 48.5805 -10.6215
v -57.0562 48.5805 -12.4522
v -49.8640 48.5805 -16.1329
v -37.3102 52.3723 -18.0183
v -32.8009 49.3963 -15.2669
v -28.2254 46.4203 -12.5156
v -61.2135 53.0147 -10.3996
v -56.6389 56.4101 -13.7030
v -51.3744 54.4722 -17.0064
v -39.4281 56.3128 -14.9319
v -35.8192 53.4676 -12.6849
v -54.7359 64.5805 -14.3023
v -48.3379 66.2423 -14.3023
v -43.8306 62.2423 -14.3023
v -53.3619 69.0179 -14.3023
v -49.4134 71.7307 -14.3023
v -42.1038 74.4435 -14.3023
v -46.4888 79.5231 -14.3023
v -40.2383 80.8127 -15.7949
v -36.7529 82.5323 -17.7850
v -37.7509 84.7916 -17.7850
v -36.7529 84.7916 -17.7850
v 49.7738 -76.0369 -3.1820
v 51.8992 -76.0369 -3.1820
v 26.1153 -68.1592 -3.8510
v 31.6156 -68.5847 -6.4315
v 39.0815 -68.8948 -7.0261
v 46.6733 -70.8255 -6.6787
v 54.1890 -70.5559 -5.7105
v 59.3487 -68.1369 -2.9057
v 25.5728 -63.2971 -6.4315
v 31.7775 -63.6893 -9.4559
v 38.6996 -64.3823 -9.9514
v 47.0053 -64.0715 -9.9892
v 54.5709 -63.4086 -6.3544
v 59.3487 -65.9423 -2.9057
v 25.6123 -55.9179 -5.9507
v 31.6854 -56.0266 -9.0552
v 35.5592 -58.4698 -9.7275
v 50.3571 -55.4195 -9.6583
v 54.5960 -55.7466 -7.2063
v 63.5950 -54.2682 -5.6322
v 67.4597 -52.8466 -7.8521
v 25.7503 -47.4195 -3.5587
v 30.4635 -47.4195 -7.5587
v 50.6674 -51.0992 -9.9428
v 51.1959 -51.0992 -9.9428
v 66.3728 -47.8348 -5.9652
v 67.5527 -47.8348 -5.9652
v 26.1153 -40.9561 -3.2302
v 30.9675 -39.0917 -6.2748
v 35.6532 -37.2273 -9.3194
v 57.4583 -36.8670 -8.8590
v 62.9574 -39.6830 -6.4687
v 67.6458 -42.4989 -4.0783
v 32.4439 -31.4195 -4.6652
v 36.8680 -31.4195 -8.6652
v 50.6824 -27.5162 -10.1996
v 55.3193 -30.3278 -6.8626
v 59.8649 -33.1393 -3.5257
v 33.9871 -26.0187 -3.7690
v 39.0229 -23.6701 -6.5565
v 47.3518 -24.3321 -9.7718
v 53.4432 -24.1735 -7.0407
v 41.2459 -18.2416 -4.0106
v 46.8450 -15.5267 -6.6242
v 52.8369 -15.4549 -6.4636
v 49.6689 -10.9934 -9.2378
v 52.1700 -10.9934 -9.2378
v -46.6208 19.8515 -3.4153
v -43.5494 19.8515 -3.4153
v -69.7306 27.7966 -3.7132
v -65.0562 26.9222 -5.2505
v -57.4584 26.5824 -7.0143
v -49.1950 24.0757 -6.1701
v -41.5418 25.0496 -5.9368
v -36.3987 27.1236 -3.1250
v -70.0417 33.1151 -6.3489
v -65.2629 33.1151 -8.8377
v -60.0849 32.5805 -9.4133
v -40.5207 32.7351 -5.9959
v -36.3987 30.1715 -3.1250
v -69.9602 39.8754 -5.8547
v -64.7080 39.9462 -8.7433
v -60.4241 37.8203 -9.2636
v -39.5284 37.9972 -6.3023
v -33.0562 39.7805 -6.3023
v -28.1550 42.3638 -6.3023
v -69.9469 48.5805 -3.3352
v -65.3934 48.5805 -7.3352
v -30.4859 51.7537 -9.2555
v -27.9041 48.8844 -6.4742
v -69.7053 54.9581 -3.0921
v -64.8789 56.6531 -5.8980
v -59.9596 58.3480 -8.7039
v -38.5091 58.8010 -8.8865
v -33.3729 56.0915 -6.4044
v -28.3377 53.3819 -3.9222
v -63.2609 64.5805 -3.9053
v -58.4926 64.5805 -7.9053
v -46.9474 67.4961 -8.9447
v -40.5310 65.3194 -6.2490
v -36.2599 63.1427 -3.5532
v -61.8410 69.8912 -3.3713
v -56.5942 72.1612 -6.2401
v -49.3495 71.9858 -9.0268
v -42.1429 72.3564 -6.2878
v -54.4538 77.4263 -3.7756
v -49.0734 79.2125 -6.3863
v -43.2921 79.2361 -6.3023
v 41.7812 -76.0112 4.5010
v 47.0418 -76.2376 1.7797
v 51.8094 -75.9983 1.6977
v 26.1153 -68.1592 -1.2515
v 31.2827 -69.1430 1.5282
v 39.0463 -72.6532 1.7797
v 44.4404 -74.0095 -0.8323
v 56.3305 -71.0499 2.2935
v 59.3487 -68.1369 0.0240
v 25.5892 -62.9711 1.5282
v 28.8420 -65.3388 4.0818
v 58.3818 -63.8474 2.1147
v 60.1593 -63.8474 2.1147
v 25.1845 -55.4195 1.6977
v 57.9962 -58.3457 -1.1280
v 62.4973 -55.5752 1.6023
v 24.9613 -47.4195 1.6977
v 65.8661 -50.1806 1.6977
v 67.7424 -46.1806 1.6977
v 25.2015 -38.7415 1.0104
v 27.2339 -35.6228 -2.1144
v 64.2633 -38.2113 1.6977
v 67.7424 -42.2113 1.6977
v 25.7667 -33.5873 3.2189
v 28.9948 -31.1202 1.0104
v 57.3912 -29.1902 1.6977
v 60.2633 -33.1902 1.6977
v 33.2899 -25.3999 1.6977
v 38.7251 -22.5935 2.2607
v 46.9438 -22.6576 4.0920
v 53.3342 -23.6203 1.4502
v 41.2459 -18.2416 -0.0306
v 46.9438 -17.5803 0.0920
v 51.6645 -18.1452 -1.3815
v -54.5212 19.7887 4.0260
v -49.1950 19.3641 1.4947
v -43.4361 19.6538 1.6977
v -69.7306 27.7966 -1.3533
v -64.6836 26.5628 1.4671
v -57.1352 22.7830 1.4947
v -51.9542 21.4969 -1.3073
v -39.4361 23.1126 1.6977
v -35.7291 27.1126 1.6977
v -70.3159 32.9017 1.4671
v -67.1019 30.4492 3.9801
v -38.0794 35.5048 -0.8553
v -33.5048 33.1024 2.2796
v -28.9255 36.0334 5.4146
v -70.2343 41.0980 2.2212
v -68.6673 44.1097 5.2368
v -38.0794 37.5900 -0.8553
v -33.0562 38.9722 0.5706
v -28.7158 41.0882 2.3279
v -70.3185 47.9845 2.2212
v -68.6673 44.9205 5.2368
v -27.7268 48.5805 1.6977
v -70.5848 57.2071 1.0672
v -68.5443 60.2915 -2.0197
v -45.1998 60.3971 5.5759
v -44.4838 60.3971 5.5759
v -32.2150 57.8125 1.6977
v -28.0542 53.8125 1.6977
v -70.0384 61.7639 3.3136
v -66.1146 64.4905 1.0672
v -53.7543 68.5112 5.4638
v -49.0754 64.6533 5.5198
v -41.1392 64.1798 3.3598
v -36.2150 62.7181 1.6977
v -61.7632 69.6964 1.6977
v -56.7707 71.9911 2.4151
v -49.7930 72.3103 3.9884
v -42.6319 72.3103 1.5276
v -54.4538 77.4263 -0.6336
v -49.0562 77.8874 -0.2635
v -44.2496 77.4772 -1.2525
v 41.7812 -76.0112 7.5820
v 46.9438 -75.9791 7.7537
v 51.1426 -75.5739 6.5548
v 33.6336 -68.7019 9.6977
v 39.0463 -72.8580 10.0283
v 46.9438 -74.2590 11.7537
v 54.9550 -71.1242 9.1188
v 62.9438 -68.3629 11.2238
v 67.8059 -68.3663 12.4140
v 26.4460 -60.2954 9.6977
v 29.6336 -64.2954 9.6977
v 58.7674 -67.0859 6.3494
v 63.3595 -64.0194 7.0871
v 69.3312 -63.4195 10.9457
v 26.4533 -55.8889 9.0609
v 28.7308 -53.5353 11.3031
v 65.5717 -55.4195 6.6733
v 71.5365 -55.8183 10.9200
v 75.3848 -53.4175 13.1007
v 26.1709 -46.8456 9.0609
v 28.7308 -49.1296 11.3031
v 49.0455 -45.4932 11.6508
v 53.3955 -45.4932 11.6508
v 65.4684 -47.0185 9.6743
v 69.3850 -47.4280 9.9932
v 75.3848 -50.9079 13.1007
v 18.2377 -36.0808 12.7605
v 22.3569 -39.0163 9.9354
v 33.9930 -36.2329 11.7530
v 38.9438 -37.3191 10.9008
v 46.6048 -39.6511 10.2219
v 55.6148 -40.0398 10.2152
v 62.4820 -40.2579 9.6000
v 67.3066 -42.7292 7.2978
v 18.2377 -34.6443 12.7605
v 23.0375 -33.0946 9.9354
v 31.1775 -31.2030 8.9531
v 38.9438 -31.4195 7.2433
v 46.9438 -31.4195 7.4557
v 54.7598 -31.8042 7.0968
v 59.7820 -34.7273 6.5688
v 33.6953 -26.1276 6.1533
v 38.9438 -26.4376 6.0402
v 46.9438 -26.6576 6.2654
v 51.9704 -26.4209 6.4535
v -54.5212 19.7887 7.8838
v -49.0562 19.6067 8.9631
v -44.4028 20.0739 7.8655
v -62.4033 27.0252 9.6977
v -57.1352 22.7985 10.2093
v -49.0562 21.1674 12.9631
v -41.4642 23.1340 10.1984
v -33.1890 27.0368 9.4514
v -27.9866 27.4305 11.9539
v -69.6480 35.7825 7.3911
v -66.4113 32.9017 9.9137
v -30.6108 30.7001 6.6206
v -25.7893 33.5384 10.0997
v -20.9485 36.3766 13.5788
v -69.6480 38.7764 7.3911
v -67.0738 41.0980 9.9137
v -24.9088 40.5805 9.2335
v -20.6760 40.5805 13.2335
v -70.1207 50.3249 9.6977
v -67.2315 46.3249 9.6977
v -46.4734 50.1116 12.0200
v -41.0562 49.4340 11.8811
v -33.0562 50.4494 12.2861
v -26.0479 48.2354 10.2122
v -20.6570 45.0054 13.1976
v -77.8024 59.8185 12.6811
v -73.6971 56.9233 9.8877
v -55.5361 58.9953 12.0226
v -48.5033 57.0295 9.3546
v -41.5128 57.2704 7.6080
v -33.6610 56.2853 7.9320
v -28.4388 53.4218 7.2267
v -77.8024 61.3524 12.6811
v -72.8456 62.4285 9.8877
v -64.3509 65.2511 8.9496
v -57.3119 64.6173 8.9034
v -49.0754 64.6533 6.4432
v -41.7380 63.4987 6.0837
v -36.7309 60.8685 5.9703
v -61.2141 68.7576 5.7842
v -59.0876 68.7576 5.7842
v -47.6175 69.4635 6.1971
v -44.3256 69.4635 6.1971
v 34.2090 -67.9579 17.6977
v 38.1585 -69.0629 18.3412
v 46.3651 -70.1186 18.3412
v 54.9438 -69.9998 17.6977
v 62.9438 -69.2315 17.6977
v 67.9869 -68.5093 17.6977
v 26.7299 -60.0015 14.4725
v 30.2379 -62.9687 17.3626
v 40.3017 -67.0303 21.4370
v 43.3127 -67.0303 21.4370
v 70.1387 -63.4195 17.6977
v 26.7299 -58.8686 14.4725
v 31.0722 -55.4789 17.5939
v 36.4786 -52.0892 20.7154
v 72.1102 -55.8183 17.4553
v 75.3848 -53.4175 14.6271
v 26.7592 -43.7422 17.6977
v 30.5425 -46.3013 18.3122
v 39.0647 -47.9977 19.6786
v 46.6048 -47.0328 17.3412
v 55.6148 -46.8396 17.0235
v 62.6866 -46.4064 17.0235
v 70.3887 -49.7144 17.4553
v 75.3848 -50.9079 14.6271
v 18.4119 -35.9203 17.6977
v 22.7592 -39.9203 17.6977
v 33.1736 -39.4400 18.0900
v 37.4043 -39.6025 17.7793
v 43.7121 -42.4722 14.4368
v 58.7288 -43.1200 13.9073
v 59.8485 -43.1200 13.9073
v 18.4119 -34.8348 17.6977
v 22.9438 -33.4269 17.6977
v 31.1733 -33.9649 17.6417
v 35.3517 -34.8724 20.2710
v -62.1133 27.7066 17.6977
v -56.6739 26.5436 18.3361
v -49.6664 25.2444 18.3361
v -41.0562 24.7162 17.6977
v -33.0562 25.9284 17.6977
v -27.7787 27.2948 17.6977
v -64.3164 32.5805 17.6977
v -53.7523 28.9028 21.4283
v -52.7398 28.9028 21.4283
v -24.2834 33.2582 17.1159
v -20.9485 36.3766 14.0613
v -63.1922 40.6626 17.5708
v -59.2330 43.3840 20.1528
v -29.7904 43.7858 21.0801
v -25.3054 40.9037 18.8522
v -20.6760 40.5805 14.6039
v -69.5426 51.8809 17.6977
v -65.1325 49.4474 17.8822
v -56.7623 47.9987 19.2858
v -49.1065 48.6503 17.4644
v -41.0562 46.5584 17.6977
v -32.6967 46.4422 18.1272
v -25.0562 46.0629 15.8681
v -20.6570 45.0054 14.5424
v -77.8024 59.8185 15.2686
v -73.1587 56.9233 17.8402
v -63.2529 53.4112 20.9449
v -57.9245 56.2032 17.7935
v -51.8067 53.6619 14.6421
v -77.8024 61.3524 15.2686
v -72.7696 61.8771 17.8402
v -65.0562 62.3175 17.6977
v -60.3587 61.2757 17.6977
v 34.9426 -67.4202 21.6987
v 34.9684 -67.4202 21.6987
v 48.6460 -68.1320 22.4892
v 54.9438 -68.4428 22.8730
v 62.9438 -68.2881 22.5459
v 67.4725 -67.9258 22.0531
v 33.7953 -63.4195 22.9683
v 38.1585 -63.9860 23.8368
v 46.3651 -63.9860 24.1680
v 54.9438 -63.4195 25.3746
v 62.9438 -63.4195 24.1716
v 67.7513 -63.4195 22.1794
v 33.4136 -57.4225 23.3908
v 39.0647 -55.0213 24.1064
v 46.9438 -55.4195 25.1948
v 54.9438 -55.4195 25.2735
v 62.9438 -55.4195 23.9655
v 67.6609 -55.4195 22.1457
v 26.9339 -43.4730 21.7420
v 30.3491 -43.6562 24.9004
v 38.5560 -47.4447 25.1035
v 46.9438 -50.3808 22.7005
v 54.9438 -50.1394 22.7719
v 62.9438 -50.6510 22.3397
v 67.3520 -51.0863 22.0081
v 18.9407 -35.4259 21.7027
v 24.2425 -38.2462 24.3890
v 31.0634 -40.2682 26.0356
v 35.3259 -39.8690 25.5157
v 18.9407 -35.4151 21.7027
v 23.7082 -35.0089 24.9007
v 30.2728 -34.6833 25.6626
v 35.3517 -34.8724 22.9725
v -61.3819 28.3373 22.0216
v -59.0856 28.3373 22.0216
v -47.4064 27.5712 22.7893
v -41.0562 27.1491 23.1861
v -33.0562 27.4829 22.6265
v -28.4225 28.0162 22.0432
v -62.1568 32.5805 22.8203
v -56.6739 31.9739 24.0639
v -49.6664 31.9739 24.8233
v -41.0562 32.5805 25.8958
v -33.0562 32.5805 24.3944
v -27.8924 32.5805 22.2681
v -62.1979 38.0507 22.8707
v -56.7623 40.6626 24.1044
v -49.0562 40.5805 25.7166
v -41.0562 40.5805 25.3857
v -32.6967 40.9037 23.3849
v -28.1382 38.4524 22.1128
v -69.2018 52.3285 22.2481
v -65.6892 52.0636 25.1656
v -57.1115 48.3713 25.0860
v -49.0562 45.5194 22.6283
v -41.0562 45.7049 22.6760
v -35.1237 45.1915 22.1525
v -69.8071 56.5805 22.9005
v -64.5310 55.6900 25.5441
v -60.3181 56.7265 26.0244
v -69.9118 60.8450 22.7510
v -65.0562 61.3668 24.1887
v -60.3130 61.3645 23.9657
v 33.6773 -43.8394 30.2308
v 35.3000 -43.8394 30.2308
v 26.8845 -35.7331 29.8300
v 30.4181 -39.0787 30.0304
v 35.3000 -42.4243 30.2308
v 26.8845 -35.3493 29.8300
v 27.1589 -35.3493 29.8300
v -62.7923 51.7986 30.8319
v -60.3233 51.7986 30.8319
v -62.7923 54.7085 30.8319
v -60.3233 54.7085 30.8319
f 5 1 4
f 5 2 1
f 5 3 2
f 5 6 3
f 9 8 7
f 9 10 8
f 15 1 2
f 15 14 1
f 3 15 2
f 3 16 15
f 16 11 15
f 16 12 11
f 14 4 1
f 14 18 4
f 18 13 17
f 18 14 13
f 19 5 4
f 19 4 18
f 19 18 14
f 19 14 15
f 20 16 3
f 20 3 6
f 20 6 5
f 20 5 19
f 20 19 15
f 20 15 16
f 25 7 8
f 25 24 7
f 25 21 24
f 25 22 21
f 27 7 24
f 27 9 7
f 27 23 26
f 27 24 23
f 28 25 8
f 28 8 10
f 28 10 9
f 28 9 27
f 28 27 24
f 28 24 25
f 31 11 12
f 31 30 11
f 33 13 14
f 33 32 13
f 34 11 30
f 34 15 11
f 34 29 33
f 34 30 29
f 35 31 12
f 35 12 16
f 16 15 34
f 16 34 35
f 32 17 13
f 32 36 17
f 37 33 14
f 37 14 18
f 37 18 17
f 37 17 36
f 38 33 37
f 38 34 33
f 41 36 40
f 41 37 36
f 41 38 37
f 41 42 38
f 44 39 43
f 44 40 39
f 45 40 44
f 45 41 40
f 46 41 45
f 46 42 41
f 49 21 22
f 49 48 21
f 51 21 48
f 51 24 21
f 51 23 24
f 51 50 23
f 51 47 50
f 51 48 47
f 52 49 22
f 52 22 25
f 25 24 51
f 25 51 52
f 50 26 23
f 50 53 26
f 51 24 27
f 51 27 54
f 54 27 26
f 54 26 53
f 57 53 56
f 57 54 53
f 59 55 58
f 59 56 55
f 61 29 30
f 61 60 29
f 62 30 31
f 62 61 30
f 64 29 60
f 64 33 29
f 64 32 33
f 64 63 32
f 66 62 31
f 66 31 35
f 66 35 34
f 66 34 65
f 65 61 62
f 65 62 66
f 63 36 32
f 63 68 36
f 65 34 38
f 65 38 70
f 68 40 36
f 68 72 40
f 72 39 40
f 72 71 39
f 72 67 71
f 72 68 67
f 74 70 38
f 74 38 42
f 74 73 69
f 74 69 70
f 75 39 71
f 75 43 39
f 44 43 75
f 44 75 76
f 77 45 44
f 77 44 76
f 76 72 73
f 76 73 77
f 74 42 46
f 74 46 78
f 78 46 45
f 78 45 77
f 78 77 73
f 78 73 74
f 79 77 76
f 79 80 77
f 82 81 80
f 82 83 81
f 86 47 48
f 86 85 47
f 87 48 49
f 87 86 48
f 89 47 85
f 89 50 47
f 89 84 88
f 89 85 84
f 91 87 49
f 91 49 52
f 91 52 51
f 91 51 90
f 91 90 86
f 91 86 87
f 89 53 50
f 89 94 53
f 94 88 93
f 94 89 88
f 95 90 51
f 95 51 54
f 95 94 89
f 95 89 90
f 97 92 96
f 97 93 92
f 94 56 53
f 94 98 56
f 98 55 56
f 98 97 55
f 98 93 97
f 98 94 93
f 95 54 57
f 95 57 99
f 99 57 56
f 99 56 98
f 99 98 94
f 99 94 95
f 97 58 55
f 97 101 58
f 100 97 96
f 100 101 97
f 98 56 59
f 98 59 102
f 102 59 58
f 102 58 101
f 102 101 97
f 102 97 98
f 103 102 101
f 103 104 102
f 106 105 104
f 106 107 105
f 114 108 113
f 114 109 108
f 116 110 115
f 116 111 110
f 118 112 117
f 118 113 112
f 120 114 119
f 120 115 114
f 122 60 61
f 122 121 60
f 124 119 118
f 124 125 119
f 125 120 119
f 125 126 120
f 121 64 60
f 121 127 64
f 64 126 63
f 64 127 126
f 122 61 65
f 122 65 128
f 128 123 122
f 128 129 123
f 130 125 124
f 130 131 125
f 132 63 126
f 132 68 63
f 132 67 68
f 132 131 67
f 132 125 131
f 132 126 125
f 134 128 65
f 134 65 70
f 134 70 69
f 134 69 133
f 135 67 131
f 135 71 67
f 137 133 69
f 137 69 73
f 137 73 72
f 137 72 136
f 138 71 135
f 138 75 71
f 136 72 76
f 136 76 139
f 76 75 138
f 76 138 139
f 140 76 77
f 140 139 76
f 139 79 76
f 139 141 79
f 140 77 80
f 140 80 142
f 142 80 79
f 142 79 141
f 143 80 81
f 143 142 80
f 142 82 80
f 142 145 82
f 144 142 141
f 144 145 142
f 143 81 83
f 143 83 146
f 146 83 82
f 146 82 145
f 145 142 143
f 145 143 146
f 153 147 152
f 153 148 147
f 153 149 148
f 153 154 149
f 155 151 150
f 155 156 151
f 157 153 152
f 157 158 153
f 159 84 85
f 159 158 84
f 159 153 158
f 159 154 153
f 160 85 86
f 160 159 85
f 162 157 156
f 162 163 157
f 164 84 158
f 164 88 84
f 163 158 157
f 163 164 158
f 166 160 86
f 166 86 90
f 90 89 165
f 90 165 166
f 167 160 166
f 167 161 160
f 168 163 162
f 168 169 163
f 170 88 164
f 170 93 88
f 170 92 93
f 170 169 92
f 170 163 169
f 170 164 163
f 165 89 94
f 165 94 171
f 172 165 171
f 172 166 165
f 173 92 169
f 173 96 92
f 175 171 94
f 175 94 98
f 175 98 97
f 175 97 174
f 173 100 96
f 173 176 100
f 174 97 101
f 174 101 177
f 177 101 100
f 177 100 176
f 178 101 102
f 178 177 101
f 177 103 101
f 177 179 103
f 178 102 104
f 178 104 180
f 180 104 103
f 180 103 179
f 181 104 105
f 181 180 104
f 182 104 180
f 182 106 104
f 181 105 107
f 181 107 183
f 107 106 182
f 107 182 183
f 182 180 181
f 182 181 183
f 188 108 109
f 188 187 108
f 111 189 110
f 111 190 189
f 190 184 189
f 190 185 184
f 193 108 187
f 193 113 108
f 193 112 113
f 193 192 112
f 192 187 186
f 192 193 187
f 194 188 109
f 194 109 114
f 194 114 113
f 194 113 193
f 195 110 189
f 195 115 110
f 195 114 115
f 195 194 114
f 195 188 194
f 195 189 188
f 196 190 111
f 196 111 116
f 116 115 195
f 116 195 196
f 197 190 196
f 197 191 190
f 192 117 112
f 192 198 117
f 193 113 118
f 193 118 199
f 199 118 117
f 199 117 198
f 200 114 194
f 200 119 114
f 200 118 119
f 200 199 118
f 200 193 199
f 200 194 193
f 195 115 120
f 195 120 201
f 201 196 195
f 201 202 196
f 122 202 121
f 122 203 202
f 123 203 122
f 123 204 203
f 199 124 118
f 199 206 124
f 206 198 205
f 206 199 198
f 207 201 120
f 207 120 126
f 208 121 202
f 208 127 121
f 127 207 126
f 127 208 207
f 208 201 207
f 208 202 201
f 204 123 129
f 204 129 210
f 129 128 209
f 129 209 210
f 209 203 204
f 209 204 210
f 206 130 124
f 206 212 130
f 211 206 205
f 211 212 206
f 213 131 130
f 213 130 212
f 215 209 128
f 215 128 134
f 134 133 214
f 134 214 215
f 216 209 215
f 216 210 209
f 213 135 131
f 213 218 135
f 217 213 212
f 217 218 213
f 214 133 137
f 214 137 220
f 137 136 219
f 137 219 220
f 221 214 220
f 221 215 214
f 218 138 135
f 218 223 138
f 222 218 217
f 222 223 218
f 219 136 139
f 219 139 224
f 224 139 138
f 224 138 223
f 140 224 139
f 140 225 224
f 225 219 224
f 225 220 219
f 224 141 139
f 224 227 141
f 226 224 223
f 226 227 224
f 228 225 140
f 228 140 142
f 229 141 227
f 229 144 141
f 230 228 142
f 230 142 145
f 230 145 144
f 230 144 229
f 229 227 228
f 229 228 230
f 236 147 148
f 236 235 147
f 149 236 148
f 149 237 236
f 236 232 231
f 236 237 232
f 240 150 151
f 240 239 150
f 239 234 233
f 239 240 234
f 241 147 235
f 241 152 147
f 241 234 240
f 241 235 234
f 242 237 149
f 242 149 154
f 242 238 237
f 242 243 238
f 239 155 150
f 239 244 155
f 245 240 151
f 245 151 156
f 245 156 155
f 245 155 244
f 246 152 241
f 246 157 152
f 246 156 157
f 246 245 156
f 246 240 245
f 246 241 240
f 247 242 154
f 247 154 159
f 248 159 160
f 248 247 159
f 161 248 160
f 161 249 248
f 251 156 245
f 251 162 156
f 251 244 250
f 251 245 244
f 249 161 167
f 249 167 253
f 167 166 252
f 167 252 253
f 251 168 162
f 251 255 168
f 254 251 250
f 254 255 251
f 256 169 168
f 256 168 255
f 252 166 172
f 252 172 258
f 172 171 257
f 172 257 258
f 259 252 258
f 259 253 252
f 256 173 169
f 256 261 173
f 260 256 255
f 260 261 256
f 257 171 175
f 257 175 263
f 175 174 262
f 175 262 263
f 264 257 263
f 264 258 257
f 261 176 173
f 261 266 176
f 265 261 260
f 265 266 261
f 262 174 177
f 262 177 267
f 267 177 176
f 267 176 266
f 178 267 177
f 178 268 267
f 268 262 267
f 268 263 262
f 267 179 177
f 267 270 179
f 269 267 266
f 269 270 267
f 271 268 178
f 271 178 180
f 271 180 179
f 271 179 270
f 274 184 185
f 274 273 184
f 276 186 187
f 276 275 186
f 188 276 187
f 188 277 276
f 278 184 273
f 278 189 184
f 278 188 189
f 278 277 188
f 278 272 277
f 278 273 272
f 279 274 185
f 279 185 190
f 191 279 190
f 191 280 279
f 275 192 186
f 275 281 192
f 282 281 275
f 282 275 276
f 280 191 197
f 280 197 284
f 197 196 283
f 197 283 284
f 283 279 280
f 283 280 284
f 281 198 192
f 281 285 198
f 286 283 196
f 286 196 202
f 203 286 202
f 203 287 286
f 286 284 283
f 286 287 284
f 285 205 198
f 285 288 205
f 289 287 203
f 289 203 209
f 290 209 210
f 290 289 209
f 288 211 205
f 288 291 211
f 292 212 211
f 292 211 291
f 290 210 216
f 290 216 294
f 216 215 293
f 216 293 294
f 292 217 212
f 292 296 217
f 295 292 291
f 295 296 292
f 293 215 221
f 293 221 298
f 221 220 297
f 221 297 298
f 296 222 217
f 296 299 222
f 300 223 222
f 300 222 299
f 297 220 225
f 297 225 302
f 300 226 223
f 300 303 226
f 304 227 226
f 304 226 303
f 303 300 301
f 303 301 304
f 305 302 225
f 305 225 228
f 305 228 227
f 305 227 304
f 305 304 301
f 305 301 302
f 308 231 232
f 308 307 231
f 234 309 233
f 234 310 309
f 235 310 234
f 235 311 310
f 312 231 307
f 312 236 231
f 312 235 236
f 312 311 235
f 312 306 311
f 312 307 306
f 313 308 232
f 313 232 237
f 238 313 237
f 238 314 313
f 315 233 309
f 315 239 233
f 316 315 309
f 316 309 310
f 314 238 243
f 314 243 318
f 243 242 317
f 243 317 318
f 315 244 239
f 315 320 244
f 317 242 247
f 317 247 322
f 248 322 247
f 248 323 322
f 323 317 322
f 323 318 317
f 249 323 248
f 249 324 323
f 323 319 318
f 323 324 319
f 320 250 244
f 320 325 250
f 326 325 320
f 326 320 321
f 327 324 249
f 327 249 253
f 325 254 250
f 325 328 254
f 329 255 254
f 329 254 328
f 327 253 259
f 327 259 333
f 259 258 332
f 259 332 333
f 329 260 255
f 329 335 260
f 334 329 328
f 334 335 329
f 338 337 330
f 338 330 331
f 332 258 264
f 332 264 339
f 264 263 338
f 264 338 339
f 340 260 335
f 340 265 260
f 341 266 265
f 341 265 340
f 342 341 336
f 342 336 337
f 343 338 263
f 343 263 268
f 344 266 341
f 344 269 266
f 345 270 269
f 345 269 344
f 344 341 342
f 344 342 345
f 346 343 268
f 346 268 271
f 346 271 270
f 346 270 345
f 345 342 343
f 345 343 346
f 348 272 273
f 348 347 272
f 349 273 274
f 349 348 273
f 351 272 347
f 351 277 272
f 277 350 276
f 277 351 350
f 352 351 347
f 352 347 348
f 349 274 279
f 349 279 353
f 352 348 349
f 352 349 353
f 350 282 276
f 350 357 282
f 282 356 281
f 282 357 356
f 358 353 279
f 358 279 283
f 284 358 283
f 284 359 358
f 358 354 353
f 358 359 354
f 360 354 359
f 360 355 354
f 356 285 281
f 356 361 285
f 359 284 287
f 359 287 363
f 363 360 359
f 363 364 360
f 361 288 285
f 361 366 288
f 367 366 361
f 367 361 362
f 363 287 289
f 363 289 370
f 290 370 289
f 290 371 370
f 371 363 370
f 371 364 363
f 372 364 371
f 372 365 364
f 366 291 288
f 366 374 291
f 378 377 368
f 378 368 369
f 380 371 290
f 380 290 294
f 380 294 293
f 380 293 379
f 380 379 370
f 380 370 371
f 374 295 291
f 374 382 295
f 382 373 381
f 382 374 373
f 383 296 295
f 383 295 382
f 384 383 375
f 384 375 376
f 385 384 376
f 385 376 377
f 386 385 377
f 386 377 378
f 387 379 293
f 387 293 298
f 387 298 297
f 387 297 386
f 387 386 378
f 387 378 379
f 388 296 383
f 388 299 296
f 389 300 299
f 389 299 388
f 388 383 384
f 388 384 389
f 301 300 389
f 301 389 390
f 390 389 384
f 390 384 385
f 391 386 297
f 391 297 302
f 391 302 301
f 391 301 390
f 391 390 385
f 391 385 386
f 393 306 307
f 393 392 306
f 394 307 308
f 394 393 307
f 396 306 392
f 396 311 306
f 311 395 310
f 311 396 395
f 397 396 392
f 397 392 393
f 394 308 313
f 394 313 398
f 397 393 394
f 397 394 398
f 399 313 314
f 399 398 313
f 395 316 310
f 395 402 316
f 316 401 315
f 316 402 401
f 403 399 314
f 403 314 318
f 319 403 318
f 319 404 403
f 403 400 399
f 403 404 400
f 401 320 315
f 401 406 320
f 321 320 406
f 321 406 407
f 407 406 401
f 407 401 402
f 408 404 319
f 408 319 324
f 408 405 404
f 408 409 405
f 411 321 407
f 411 326 321
f 326 410 325
f 326 411 410
f 415 408 324
f 415 324 327
f 416 408 415
f 416 409 408
f 410 328 325
f 410 418 328
f 421 331 330
f 421 330 420
f 421 420 412
f 421 412 413
f 422 421 413
f 422 413 414
f 423 415 327
f 423 327 333
f 423 333 332
f 423 332 422
f 423 422 414
f 423 414 415
f 418 334 328
f 418 425 334
f 425 417 424
f 425 418 417
f 426 335 334
f 426 334 425
f 428 420 330
f 428 330 337
f 428 337 336
f 428 336 427
f 428 427 419
f 428 419 420
f 429 331 421
f 429 338 331
f 429 337 338
f 429 428 337
f 430 422 332
f 430 332 339
f 430 339 338
f 430 338 429
f 430 429 421
f 430 421 422
f 431 335 426
f 431 340 335
f 432 427 336
f 432 336 341
f 432 341 340
f 432 340 431
f 431 426 427
f 431 427 432
f 433 337 428
f 433 342 337
f 434 429 338
f 434 338 343
f 434 343 342
f 434 342 433
f 434 433 428
f 434 428 429
f 436 350 351
f 436 435 350
f 437 351 352
f 437 436 351
f 438 352 353
f 438 437 352
f 354 438 353
f 354 439 438
f 355 439 354
f 355 440 439
f 435 357 350
f 435 442 357
f 357 441 356
f 357 442 441
f 444 443 436
f 444 436 437
f 445 440 355
f 445 355 360
f 446 356 441
f 446 361 356
f 362 361 446
f 362 446 447
f 446 441 442
f 446 442 447
f 445 360 364
f 445 364 449
f 450 364 365
f 450 449 364
f 447 367 362
f 447 452 367
f 367 451 366
f 367 452 451
f 452 447 448
f 452 448 453
f 455 369 368
f 455 368 454
f 457 371 370
f 457 370 456
f 450 365 372
f 450 372 458
f 372 371 457
f 372 457 458
f 458 457 449
f 458 449 450
f 451 374 366
f 451 460 374
f 460 373 374
f 460 459 373
f 462 376 375
f 462 375 461
f 462 461 452
f 462 452 453
f 463 454 368
f 463 368 377
f 463 377 376
f 463 376 462
f 463 462 453
f 463 453 454
f 464 369 455
f 464 378 369
f 465 456 370
f 465 370 379
f 379 378 464
f 379 464 465
f 464 455 456
f 464 456 465
f 466 373 459
f 466 381 373
f 467 382 381
f 467 381 466
f 468 461 375
f 468 375 383
f 468 383 382
f 468 382 467
f 469 461 468
f 469 462 461
f 396 470 395
f 396 471 470
f 397 471 396
f 397 472 471
f 473 397 398
f 473 472 397
f 474 398 399
f 474 473 398
f 400 474 399
f 400 475 474
f 476 395 470
f 476 402 395
f 478 477 471
f 478 471 472
f 479 475 400
f 479 400 404
f 405 479 404
f 405 480 479
f 481 402 476
f 481 407 402
f 480 405 409
f 480 409 485
f 484 479 480
f 484 480 485
f 481 411 407
f 481 487 411
f 487 410 411
f 487 486 410
f 487 481 482
f 487 482 488
f 490 413 412
f 490 412 489
f 414 413 490
f 414 490 491
f 492 415 414
f 492 414 491
f 492 491 483
f 492 483 484
f 493 485 409
f 493 409 416
f 416 415 492
f 416 492 493
f 492 484 485
f 492 485 493
f 486 418 410
f 486 495 418
f 418 494 417
f 418 495 494
f 496 487 488
f 496 488 497
f 498 489 412
f 498 412 420
f 498 420 419
f 498 419 497
f 498 497 488
f 498 488 489
f 494 424 417
f 494 499 424
f 500 425 424
f 500 424 499
f 500 499 494
f 500 494 495
f 501 426 425
f 501 425 500
f 502 497 419
f 502 419 427
f 502 427 426
f 502 426 501
f 504 435 436
f 504 503 435
f 438 505 437
f 438 506 505
f 507 438 439
f 507 506 438
f 508 439 440
f 508 507 439
f 509 435 503
f 509 442 435
f 504 436 443
f 504 443 510
f 509 503 504
f 509 504 510
f 505 444 437
f 505 511 444
f 444 510 443
f 444 511 510
f 512 511 505
f 512 505 506
f 513 512 506
f 513 506 507
f 514 508 440
f 514 440 445
f 513 507 508
f 513 508 514
f 515 442 509
f 515 447 442
f 448 447 515
f 448 515 516
f 515 509 510
f 515 510 516
f 516 510 511
f 516 511 517
f 517 511 512
f 517 512 518
f 518 512 513
f 518 513 519
f 520 514 445
f 520 445 449
f 519 513 514
f 519 514 520
f 452 521 451
f 452 522 521
f 523 448 516
f 523 453 448
f 524 454 453
f 524 453 523
f 524 523 516
f 524 516 517
f 525 455 454
f 525 454 524
f 524 517 518
f 524 518 525
f 526 456 455
f 526 455 525
f 525 518 519
f 525 519 526
f 520 449 457
f 520 457 527
f 527 457 456
f 527 456 526
f 527 526 519
f 527 519 520
f 521 460 451
f 521 529 460
f 460 528 459
f 460 529 528
f 522 452 461
f 522 461 530
f 530 529 521
f 530 521 522
f 531 461 462
f 531 530 461
f 531 522 530
f 531 523 522
f 532 459 528
f 532 466 459
f 467 466 532
f 467 532 533
f 533 532 528
f 533 528 529
f 468 467 533
f 468 533 534
f 531 462 469
f 531 469 535
f 535 469 468
f 535 468 534
f 534 530 531
f 534 531 535
f 537 470 471
f 537 536 470
f 473 538 472
f 473 539 538
f 474 539 473
f 474 540 539
f 541 474 475
f 541 540 474
f 536 476 470
f 536 542 476
f 537 471 477
f 537 477 543
f 542 536 537
f 542 537 543
f 538 478 472
f 538 544 478
f 478 543 477
f 478 544 543
f 545 544 538
f 545 538 539
f 546 545 539
f 546 539 540
f 547 541 475
f 547 475 479
f 546 540 541
f 546 541 547
f 548 476 542
f 548 481 476
f 482 481 548
f 482 548 549
f 548 542 543
f 548 543 549
f 549 543 544
f 549 544 550
f 550 544 545
f 550 545 551
f 551 545 546
f 551 546 552
f 553 547 479
f 553 479 484
f 553 484 483
f 553 483 552
f 553 552 546
f 553 546 547
f 487 554 486
f 487 555 554
f 556 482 549
f 556 488 482
f 557 489 488
f 557 488 556
f 557 556 549
f 557 549 550
f 490 489 557
f 490 557 558
f 557 550 551
f 557 551 558
f 559 552 483
f 559 483 491
f 559 491 490
f 559 490 558
f 559 558 551
f 559 551 552
f 560 486 554
f 560 495 486
f 555 487 496
f 555 496 561
f 560 554 555
f 560 555 561
f 562 496 497
f 562 561 496
f 562 555 561
f 562 556 555
f 563 495 560
f 563 500 495
f 501 500 563
f 501 563 564
f 564 563 560
f 564 560 561
f 565 562 497
f 565 497 502
f 565 502 501
f 565 501 564
f 564 561 562
f 564 562 565
f 567 522 523
f 567 566 522
f 566 530 522
f 566 569 530
f 530 568 529
f 530 569 568
f 567 523 531
f 567 531 570
f 570 531 530
f 570 530 569
f 570 569 566
f 570 566 567
f 568 533 529
f 568 571 533
f 569 530 534
f 569 534 572
f 534 533 571
f 534 571 572
f 572 571 568
f 572 568 569
f 574 555 556
f 574 573 555
f 573 561 555
f 573 575 561
f 574 556 562
f 574 562 576
f 562 561 575
f 562 575 576
f 575 573 574
f 575 574 576
