# parsimony mesh: cplx_CPLX0-3930 (source /Users/eranagmon/code/v2e-cplx/workspace/studies/ecoli-3d/viz/3d/structures/cplx_CPLX0-3930.pdb)
# atoms: 3728  voxel: 8 Å  verts: 594  tris: 1216
v 10.9700 0.6185 -95.3594
v 12.1943 0.6185 -95.3594
v 10.9700 1.5154 -95.3594
v 12.1943 1.5154 -95.3594
v 10.0753 -0.1538 -90.9778
v 15.1267 -0.5752 -90.8881
v 20.5720 0.0248 -88.1616
v 10.2582 4.5762 -90.2070
v 15.1267 4.5762 -91.1960
v 20.8338 5.1675 -88.2140
v 11.3469 9.2929 -87.0266
v 15.5254 10.0944 -87.3627
v 20.2233 10.2779 -87.4422
v 10.1472 -0.0452 -84.7556
v 15.2413 -0.4854 -82.4445
v 20.8325 0.0109 -82.9778
v 2.3794 7.3680 -80.5483
v 8.0804 4.4877 -82.6520
v 12.3853 1.6074 -79.4223
v 22.2808 5.1675 -82.9778
v 2.1309 13.1675 -80.5508
v 8.2183 12.4428 -83.7774
v 15.5254 14.0944 -84.7752
v 21.6300 13.0338 -83.2745
v 2.8121 17.5482 -79.5046
v 8.1528 20.5959 -79.9085
v 15.5254 21.1675 -82.0370
v 21.4422 21.1675 -81.2688
v 10.7238 29.1675 -79.4800
v 15.5254 29.1675 -80.8275
v 20.6099 29.1675 -80.3252
v 10.3939 37.1675 -79.4695
v 15.5254 37.1675 -80.2555
v 20.1717 37.1675 -79.7637
v 10.7979 41.9899 -79.4194
v 15.5254 42.3019 -79.6676
v 19.9202 41.8577 -79.4558
v 17.7186 0.7681 -78.5887
v 20.2215 0.7681 -78.5887
v 2.6065 7.7596 -74.9778
v 7.5254 5.8647 -74.9778
v 14.8241 5.2375 -75.6119
v 20.9724 5.1675 -77.9290
v 34.2370 8.9769 -71.1712
v 35.7056 8.9769 -71.1712
v 1.9283 13.1675 -74.9778
v 17.2630 10.9259 -72.6351
v 23.5969 12.9677 -75.2895
v 31.5524 12.6726 -72.4824
v 35.9922 13.1675 -71.6340
v 2.8472 17.6104 -74.9778
v 7.0103 21.6104 -74.9778
v 18.8861 24.8282 -71.2425
v 23.0113 22.7364 -74.5196
v 31.5683 20.9675 -72.9864
v 35.9676 18.1676 -71.6592
v 9.8262 29.1675 -74.9778
v 18.8861 26.7936 -71.2425
v 22.2178 28.2669 -73.4646
v 28.9302 26.4730 -72.0113
v 3.3681 40.7339 -71.4117
v 6.9416 37.7074 -74.4381
v 20.6525 37.1675 -74.9778
v 3.3861 45.1675 -71.3334
v 7.2228 44.9453 -73.8816
v 15.5254 44.0037 -74.9778
v 20.1855 42.3370 -74.9778
v 3.4969 49.1929 -71.0181
v 3.6477 49.1929 -71.0181
v 3.4462 9.0898 -70.8731
v 7.5254 8.8843 -69.5513
v 11.9296 8.8676 -69.1806
v 25.2564 8.6325 -64.7488
v 31.7605 8.8047 -67.2260
v 35.7056 8.9769 -69.7031
v 3.3228 13.1675 -70.7397
v 7.8874 12.6018 -66.5090
v 14.9679 10.6411 -66.6994
v 22.9640 10.7119 -67.2404
v 31.7605 9.7165 -67.2260
v 36.3404 12.7211 -67.0130
v 3.3344 17.3773 -70.7651
v 8.2941 20.5677 -67.8085
v 15.8770 24.2932 -67.7560
v 19.7701 24.8282 -70.6601
v 33.7670 23.0883 -66.9778
v 36.4090 19.0883 -66.9778
v 10.6278 29.1675 -69.8194
v 16.7891 28.1882 -68.2226
v 22.1584 30.0656 -68.3254
v 29.4853 29.1508 -66.4852
v 3.3681 40.7339 -70.6931
v 7.8468 37.7074 -69.0929
v 15.5254 37.1675 -68.2938
v 23.0139 35.5529 -67.4595
v 27.8030 33.4000 -63.4902
v 3.3861 45.1675 -70.7382
v 6.7987 45.2074 -69.5231
v 15.5254 42.8693 -68.9716
v 20.0108 42.0367 -70.4079
v 3.4969 49.1929 -70.9430
v 3.6477 49.1929 -70.9430
v 3.4745 1.1083 -55.0257
v 7.5254 0.8024 -55.3430
v 12.3508 0.7399 -55.4168
v 3.4745 1.6546 -55.0257
v 7.0743 4.6598 -56.6984
v 15.2206 5.2600 -58.1232
v 22.9640 7.9297 -59.6314
v 29.1561 8.5046 -58.9778
v 8.5844 12.6018 -59.6061
v 15.5254 9.6907 -62.5803
v 19.9231 9.4745 -62.7338
v 32.7469 12.7211 -59.0639
v 36.2613 15.0902 -61.7879
v 9.4130 18.6968 -58.9778
v 15.5309 22.6212 -58.7929
v 21.4930 24.2179 -56.0030
v 32.6698 21.3041 -59.0639
v 36.2613 18.7285 -61.7879
v 18.2013 26.2634 -61.3363
v 24.2585 28.4702 -59.3628
v 28.9195 28.4733 -59.6246
v 27.0241 33.4000 -62.7225
v 27.8030 33.4000 -62.7225
v 2.8907 0.4492 -50.9778
v 8.0584 0.3363 -50.6206
v 12.3508 0.7399 -53.0491
v 2.6014 4.6598 -51.3762
v 7.5937 4.4943 -51.0121
v 15.2206 3.4596 -50.6206
v 23.2362 7.5503 -51.0644
v 27.9410 8.8186 -53.7888
v 2.8316 10.3971 -48.9752
v 6.7729 13.6598 -50.7103
v 11.6528 16.9225 -47.1120
v 25.7100 9.9913 -48.4554
v 29.1881 12.8618 -51.0644
v 9.4388 17.9492 -52.4454
v 15.2806 21.0835 -50.5368
v 24.1664 24.4689 -51.2866
v 29.2158 21.6990 -51.1580
v 18.9085 25.6830 -48.6283
v 24.1664 25.5134 -51.2866
v 27.9872 25.3438 -53.9449
v 2.7300 0.2690 -45.9112
v 5.7471 0.2690 -45.9112
v 2.4085 5.1675 -45.7147
v 8.0584 4.8674 -45.6889
v 15.5254 6.9170 -46.4552
v 20.3767 8.0002 -46.7450
v 2.8316 10.3971 -46.3602
v 7.5254 11.9060 -46.1666
v 14.8018 13.8205 -46.0574
v 23.2362 12.8618 -45.7664
v 28.6860 15.3247 -46.0288
v 17.1583 21.1675 -45.8632
v 23.9141 21.6990 -45.5168
v 28.6860 19.3866 -46.0288
v 18.9085 25.6830 -46.3289
v 21.5065 25.6830 -46.3289
v 11.3325 -70.9430 -23.5062
v 12.1277 -70.9430 -23.5062
v 11.3325 -70.2701 -23.5062
v 15.1352 -67.2718 -23.4648
v 20.1534 -64.2735 -23.4234
v 18.1427 -62.0473 -23.4234
v 20.1534 -62.0473 -23.4234
v -60.6883 0.8472 -23.7450
v -56.4746 0.2280 -24.2089
v -50.9201 0.2351 -23.8521
v -60.6883 1.4761 -23.7450
v -56.4746 2.4168 -24.2089
v -50.9201 2.5247 -23.8521
v 10.6492 -71.0568 -18.9778
v 13.2566 -71.0568 -18.9778
v 2.8369 -64.7056 -15.7833
v 8.2746 -67.4878 -18.7964
v 15.3507 -67.6468 -20.1914
v 20.8834 -65.6793 -18.9778
v 2.5923 -58.8325 -15.8053
v 7.5254 -58.8325 -17.6021
v 15.4957 -59.1614 -20.2485
v 21.1285 -59.1614 -18.8111
v 2.9698 -54.4081 -15.2756
v 8.2160 -51.3779 -15.7545
v 15.5254 -50.8325 -16.8291
v 20.6444 -50.8325 -16.0815
v 11.3430 -46.5394 -15.0772
v 15.7387 -43.4567 -15.5474
v 20.4317 -42.8325 -15.6152
v 18.5476 -37.2377 -15.4115
v 20.1030 -37.2377 -15.4115
v -61.3756 -0.2029 -18.9778
v -56.4746 -1.9727 -18.9778
v -49.8170 -0.6023 -18.9778
v -61.9467 4.5526 -18.5671
v -56.4746 6.4168 -20.6036
v -48.0362 4.9243 -18.8371
v -44.0866 7.3240 -15.8440
v -61.7269 10.7352 -15.6266
v -56.6761 13.3081 -16.7041
v -48.4838 12.9477 -16.8345
v -44.0866 10.1345 -15.8440
v -54.3808 21.1675 -15.8654
v -50.5147 21.1675 -15.8654
v -53.3470 27.5946 -15.4520
v -51.1795 27.5946 -15.4520
v 10.5500 -71.0210 -14.7325
v 13.2314 -71.0210 -14.7325
v 2.8369 -64.7056 -12.3604
v 7.7401 -67.1564 -11.7347
v 15.7490 -67.4454 -12.4311
v 20.7080 -65.1872 -13.5210
v 1.5545 -59.6111 -10.2073
v 7.5254 -62.7337 -7.1079
v 16.1569 -59.5749 -7.9455
v 22.8341 -57.5134 -10.2144
v 28.9751 -55.7546 -7.7078
v 1.5782 -53.1291 -10.9778
v 6.1515 -49.1291 -10.9778
v 19.2446 -54.4926 -7.2566
v 22.5977 -52.4011 -9.8453
v 29.3700 -50.8325 -7.7868
v 10.0664 -43.4567 -10.6581
v 13.2143 -41.2061 -13.1116
v 23.9737 -43.3398 -10.3869
v 28.5351 -46.3446 -7.3264
v 3.2360 -31.3961 -7.3710
v 7.9655 -34.3707 -8.3530
v 15.7387 -34.6756 -12.3036
v 20.7228 -34.6756 -11.1643
v 3.2360 -28.6761 -7.3710
v 7.4158 -26.3387 -8.3981
v 15.1497 -26.5983 -9.1487
v 20.0714 -29.1087 -8.6220
v 10.0094 -22.7059 -7.8533
v 12.2325 -22.7059 -7.8533
v -61.2244 0.0300 -10.9778
v -57.2657 -0.5989 -11.3675
v -50.4857 -0.2598 -14.2939
v -68.5924 9.0239 -7.3474
v -65.0258 5.8813 -10.3995
v -55.1264 3.0727 -8.9606
v -47.7986 5.1983 -11.0661
v -44.0866 7.3240 -13.1717
v -68.5924 11.1760 -7.3474
v -65.0402 13.6222 -10.6839
v -59.4771 16.0685 -14.0204
v -45.4673 12.6162 -10.7207
v -42.0226 12.7531 -10.4095
v -35.7618 15.9699 -7.4992
v -63.0202 19.1676 -8.6871
v -58.3892 21.5675 -11.2033
v -46.5147 21.1675 -12.0918
v -41.0967 21.3477 -8.1819
v -35.7618 18.8011 -7.4992
v -55.2171 29.8237 -11.5792
v -48.7159 29.1225 -10.9090
v -44.1780 25.3171 -7.1712
v -61.3944 39.0886 -7.9766
v -56.7040 36.7201 -9.8598
v -51.0820 37.1675 -9.8311
v -61.3944 42.9455 -7.9766
v -56.4746 43.0681 -8.8285
v -51.5067 41.9237 -8.4465
v 1.4847 -57.4634 -5.3621
v 7.3939 -58.6092 -2.8084
v 16.1569 -57.1013 -2.8510
v 22.9313 -56.3795 -2.8510
v 31.5952 -57.2621 -3.1439
v 36.2462 -56.4212 -0.5880
v 1.4847 -52.9857 -5.3621
v 7.2578 -50.1059 -2.4086
v 15.7339 -50.8594 -2.4441
v 19.8686 -54.4926 -5.4332
v 33.3699 -50.8325 -4.3081
v 36.0859 -50.8325 -0.3081
v 9.8384 -42.8325 -4.9224
v 13.9784 -42.8325 -0.9224
v 25.7308 -41.0113 -5.3263
v 31.5505 -43.8352 -2.2338
v 35.5519 -46.6591 0.8587
v 3.2360 -31.3961 -6.3116
v 8.3597 -33.9311 -3.7024
v 15.8343 -34.8561 -0.6732
v 22.9011 -35.3560 -2.7897
v 29.2327 -37.4658 0.0071
v 3.2360 -28.6761 -6.3116
v 7.9016 -26.7785 -3.7760
v 14.9015 -26.9948 -3.4135
v 20.0714 -29.1087 -5.5864
v 10.0094 -22.7059 -6.5738
v 12.2325 -22.7059 -6.5738
v -60.4868 1.1578 -6.9687
v -60.4597 1.1578 -6.9687
v -68.5924 9.0239 -6.8335
v -63.1903 6.3969 -4.2345
v -57.7376 6.0879 -3.8708
v -47.6153 8.7037 -3.1612
v -40.4746 8.7728 -0.3989
v -36.0471 8.8072 0.3657
v -68.5924 11.1760 -6.8335
v -64.4570 13.1522 -3.1930
v -57.2626 13.1864 -0.1627
v -47.6153 10.5045 -3.1612
v -40.4746 10.7170 -4.3989
v -34.7852 13.2489 -2.5717
v -63.0202 19.1676 -4.8858
v -56.9836 21.2512 -2.6308
v -51.1652 23.3348 -0.3759
v -38.8447 24.1345 -6.2199
v -34.4901 21.3477 -3.3231
v -55.2484 29.1675 -5.4402
v -48.1427 29.8030 -2.7170
v -41.5941 28.7001 -2.6531
v -35.5553 26.7498 -0.8866
v -61.6991 38.7975 -2.9778
v -56.5702 36.9209 -3.1834
v -48.2890 35.4902 -2.6291
v -44.3436 33.2539 0.9138
v -61.6991 43.4138 -2.9778
v -56.3599 43.4183 -2.8935
v -51.5067 41.9237 -5.5040
v 9.6299 -57.5812 5.0222
v 15.5254 -59.5756 5.0222
v 23.5254 -59.0013 5.0222
v 31.7807 -57.5253 5.2542
v 36.2462 -56.4212 2.7422
v 9.6299 -51.2773 5.0222
v 15.1442 -47.3566 5.5127
v 19.7739 -47.1130 8.5064
v 34.3216 -50.8325 6.4459
v 36.0859 -50.8325 2.4459
v 17.9784 -42.8325 2.7611
v 21.2407 -42.8325 6.7611
v 33.2657 -43.5285 4.3292
v 35.5519 -46.6591 1.2005
v 11.1272 -31.1327 1.3449
v 15.8343 -34.8561 1.2674
v 23.9485 -37.6704 4.3229
v 29.2236 -37.5696 5.0222
v 11.1272 -30.2142 1.3449
v 12.2372 -30.2142 1.3449
v -60.5606 9.1032 1.3704
v -57.3623 8.5226 4.5959
v -47.8613 7.8581 5.1017
v -39.9789 8.3773 5.1538
v -36.0471 8.8072 2.5748
v -60.5606 9.7951 1.3704
v -57.6858 12.1817 3.7025
v -50.1190 11.2444 2.4880
v -36.9817 9.6670 7.9081
v -34.5305 12.6672 5.1538
v -55.5655 18.8251 5.0222
v -50.1460 22.8251 5.0222
v -33.2524 21.1675 5.0222
v -45.8660 28.9532 4.2842
v -41.1960 30.3975 4.2842
v -35.3619 26.9730 5.0222
v -61.1876 40.0865 1.7819
v -58.9501 40.0865 1.7819
v -44.5652 33.2539 1.1256
v -44.3436 33.2539 1.1256
v -61.1876 42.3846 1.7819
v -58.9501 42.3846 1.7819
v 2.9704 -65.4178 16.1177
v 7.5254 -66.2641 14.4101
v 15.5254 -64.7779 13.2710
v 20.1859 -63.4361 14.5990
v 2.9704 -61.6499 16.1177
v 7.8315 -59.5273 12.6141
v 15.5254 -62.6676 9.2710
v 23.1217 -61.0437 12.3683
v 29.6532 -56.6905 13.0222
v 9.9846 -51.4213 13.0222
v 15.0263 -47.4718 12.4686
v 19.7739 -47.1130 9.4329
v 32.3009 -50.8325 13.0222
v 17.3603 -46.1644 14.7662
v 23.3356 -43.2909 12.1558
v 29.9777 -42.9835 12.5361
v 26.8972 -38.5154 9.5454
v 28.0824 -38.5154 9.5454
v -62.5080 0.2763 15.7909
v -56.4746 0.3737 15.8475
v -52.2436 1.0002 16.6873
v -62.9497 5.1675 14.8883
v -56.8153 5.2321 11.9141
v -49.1360 4.4280 13.6213
v -41.9216 8.1623 13.0222
v -62.0381 13.1675 14.0461
v -59.7149 13.1675 10.0461
v -37.9216 10.8431 13.0222
v -35.4132 14.8431 13.0222
v -61.2926 17.9890 14.6680
v -57.1262 19.1976 12.4097
v -48.1974 23.0001 13.1029
v -40.4746 23.5016 15.4561
v -35.2869 21.1393 13.2887
v -45.3459 26.1436 10.4899
v -40.4746 26.5183 11.4561
v -35.9104 25.9924 10.7997
v 2.9704 -65.4178 18.6964
v 7.9208 -65.6710 21.2267
v 14.8366 -64.4820 20.5853
v 20.1859 -63.4361 17.6273
v 2.9704 -61.6499 18.6964
v 7.9819 -59.4450 20.9448
v 15.4462 -58.8271 23.0769
v 22.7122 -58.1816 20.6706
v 28.6036 -55.9490 18.3806
v 10.4460 -52.7514 17.8598
v 15.6043 -50.7545 20.8963
v 22.9533 -51.1876 22.7663
v 29.5046 -50.8325 19.0194
v 17.3603 -46.1644 18.5995
v 23.5254 -45.5201 19.1836
v 29.0861 -45.7508 18.3268
v -62.5080 0.2763 19.0115
v -56.4746 0.3737 18.8566
v -52.2436 1.0002 17.4788
v -62.9497 5.1675 20.1104
v -56.4746 5.1675 21.2975
v -49.1360 5.6378 18.3986
v -43.2302 8.6180 17.7334
v -62.0381 13.1675 19.3194
v -56.4746 13.1675 21.4696
v -48.4746 13.1675 20.8773
v -40.5280 13.4082 18.8785
v -36.1967 16.2354 17.8429
v -61.2926 17.9890 17.9567
v -56.4746 18.6730 19.0288
v -48.4746 19.4262 19.4994
v -40.4746 19.5016 18.8091
v -36.1967 18.4539 17.8429
v 10.8511 -62.9879 25.1214
v 11.7108 -62.9879 25.1214
v 10.8511 -62.5733 25.1214
v 15.4462 -58.8271 25.1362
v 19.9052 -55.0809 25.1511
v 19.1816 -54.0909 25.1511
v 19.9052 -54.0909 25.1511
v 10.8041 0.4504 40.5646
v 12.2765 0.4504 40.5646
v 10.8041 1.6066 40.5646
v 12.2765 1.6066 40.5646
v 10.0666 -0.1550 45.0222
v 15.1760 -0.4928 45.2265
v 20.4740 0.1636 48.0294
v 10.0666 3.2915 45.0222
v 14.9202 5.2502 45.6640
v 20.6879 5.1675 47.9849
v 17.5639 10.0602 48.6319
v 20.1268 10.0602 48.6319
v 10.3016 0.1212 51.2755
v 15.2700 -0.2527 53.5742
v 20.6265 0.1770 53.0222
v 2.5560 7.4560 55.7196
v 8.7152 5.0811 52.9868
v 12.3319 5.2558 52.9655
v 21.9227 5.1675 53.0222
v 2.1487 13.1675 55.6179
v 7.5254 13.1675 53.4766
v 15.1485 12.9031 51.1886
v 21.3393 12.9031 52.9017
v 2.6591 17.5891 56.4525
v 8.1654 20.6204 56.1480
v 15.5254 21.1675 54.5010
v 21.0844 21.1675 55.1664
v 11.1849 29.1675 56.6840
v 15.5254 29.1675 55.5382
v 20.4938 29.1675 55.8765
v 10.9898 37.1675 56.7419
v 15.5254 37.1675 56.0405
v 20.1295 37.1675 56.3209
v 10.9985 41.7956 56.7007
v 15.5254 42.0295 56.5204
v 19.8235 41.6888 56.6747
v 17.7665 0.8507 57.3332
v 20.0449 0.8507 57.3332
v 2.6428 7.7300 61.0222
v 7.5254 5.8627 61.0222
v 14.8162 5.2560 60.3256
v 20.7601 5.1675 57.9772
v 34.3004 9.0539 64.9075
v 35.6341 9.0539 64.9075
v 1.7497 13.1675 61.0222
v 17.1992 10.9389 63.3179
v 23.4029 12.8864 60.7240
v 31.5904 12.5673 63.6045
v 35.9727 13.1675 64.4191
v 2.6323 17.7384 61.0222
v 6.9544 21.7384 61.0222
v 25.0844 21.1675 59.0872
v 31.6166 21.0546 63.0606
v 36.0131 18.3127 64.3328
v 10.1894 29.1675 61.0222
v 23.6161 29.1278 61.2095
v 29.0108 26.4347 64.0010
v 3.4033 40.7777 64.7161
v 7.3973 37.7336 61.6385
v 20.6071 37.1675 61.0222
v 3.4033 43.7230 64.7161
v 8.0092 43.9072 61.6385
v 15.5254 43.6635 61.0222
v 20.0816 42.1555 61.0222
v 3.3179 8.9622 65.2928
v 7.5254 8.8085 66.0864
v 11.8659 8.8941 66.1706
v 25.8502 8.6744 71.0694
v 31.9022 8.8641 68.6748
v 35.6341 9.0539 66.2803
v 3.1264 13.1675 65.4667
v 7.8775 12.7885 69.2669
v 14.9297 11.0691 68.9113
v 23.3203 10.8479 68.6505
v 31.9022 9.5361 68.6748
v 36.3216 12.6100 68.9771
v 3.2009 17.5072 65.3443
v 8.2382 20.6755 68.3283
v 12.8198 23.8438 71.3123
v 33.7920 23.1926 69.0222
v 36.4391 19.1926 69.0222
v 10.5298 29.1675 66.2970
v 15.5020 29.0733 69.3760
v 23.2542 31.7226 68.8065
v 29.5856 29.1278 69.4293
v 3.4033 40.7777 65.2590
v 7.8257 37.7336 67.0589
v 15.5254 37.1675 67.9855
v 22.9116 35.6004 68.5102
v 27.9369 33.5110 72.3674
v 3.4033 43.7230 65.2590
v 7.5254 44.1210 67.0108
v 15.5254 42.8014 67.2608
v 19.9689 41.9636 65.5923
v 9.1296 0.8031 80.6531
v 12.2261 0.8031 80.6531
v 8.2218 5.1675 79.1681
v 15.1458 5.3099 78.3325
v 23.3203 7.9192 76.6157
v 29.4359 8.4292 77.0222
v 8.6199 12.7885 76.5604
v 15.5254 10.2160 73.9369
v 20.5169 9.8638 73.6781
v 33.0685 12.6100 76.9580
v 36.2559 14.9051 74.2484
v 9.4004 18.8912 77.0222
v 15.5020 22.7626 77.2099
v 21.9542 24.1944 80.0017
v 32.5733 21.3004 76.9580
v 36.2559 18.7224 74.2484
v 18.1531 26.3439 74.6684
v 24.3720 28.4506 76.7077
v 28.8055 28.4014 76.4571
v 26.7898 33.5110 73.4137
v 27.9369 33.5110 73.4137
v 2.8942 0.4651 86.5230
v 7.5558 0.6341 84.9379
v 12.2261 0.8031 83.3527
v 2.4487 5.1675 85.6434
v 7.2619 3.5655 84.6617
v 15.1458 2.8585 85.6205
v 23.5688 7.2064 85.1939
v 28.0941 8.6761 82.6416
v 2.7211 10.6394 87.0163
v 5.6788 13.2507 84.6187
v 26.2644 9.9420 87.9749
v 29.3418 12.8322 85.1939
v 9.7239 17.9682 85.0222
v 16.0121 22.0242 84.9397
v 24.6499 24.6304 84.9855
v 29.1117 21.9068 85.0607
v 19.0032 25.5846 87.5513
v 24.6499 25.4043 84.9855
v 27.7106 25.2240 82.4197
v 2.8942 0.4651 90.0052
v 5.9821 0.4651 90.0052
v 2.4487 5.1675 90.3290
v 8.1994 4.5248 90.4435
v 15.5254 6.1033 89.8001
v 20.9310 7.4864 89.4330
v 2.7211 10.6394 89.7817
v 8.1364 13.2507 89.9043
v 15.5254 13.1675 90.6137
v 23.5688 12.8322 90.4078
v 28.6260 15.2753 89.9202
v 11.2104 17.2798 89.1064
v 16.0121 20.4349 90.0191
v 24.2175 21.9068 90.5073
v 28.6260 19.7330 89.9202
v 19.0032 25.5846 89.5989
v 22.0122 25.5846 89.5989
f 3 2 1
f 3 4 2
f 2 5 1
f 2 6 5
f 5 3 1
f 5 8 3
f 6 2 4
f 6 4 9
f 4 3 8
f 4 8 9
f 9 7 6
f 9 10 7
f 11 9 8
f 11 12 9
f 12 10 9
f 12 13 10
f 6 14 5
f 6 15 14
f 7 15 6
f 7 16 15
f 14 8 5
f 14 18 8
f 19 18 14
f 19 14 15
f 16 7 10
f 16 10 20
f 18 11 8
f 18 22 11
f 22 17 21
f 22 18 17
f 23 12 11
f 23 11 22
f 20 10 13
f 20 13 24
f 13 12 23
f 13 23 24
f 25 22 21
f 25 26 22
f 26 23 22
f 26 27 23
f 28 23 27
f 28 24 23
f 29 27 26
f 29 30 27
f 31 27 30
f 31 28 27
f 33 29 32
f 33 30 29
f 34 30 33
f 34 31 30
f 35 33 32
f 35 36 33
f 37 33 36
f 37 34 33
f 16 38 15
f 16 39 38
f 41 17 18
f 41 40 17
f 38 19 15
f 38 42 19
f 19 41 18
f 19 42 41
f 39 16 20
f 39 20 43
f 43 42 38
f 43 38 39
f 40 21 17
f 40 46 21
f 43 20 24
f 43 24 48
f 47 42 43
f 47 43 48
f 50 44 49
f 50 45 44
f 46 25 21
f 46 51 25
f 52 26 25
f 52 25 51
f 48 24 28
f 48 28 54
f 55 48 54
f 55 49 48
f 56 49 55
f 56 50 49
f 52 29 26
f 52 57 29
f 54 28 31
f 54 31 59
f 59 58 53
f 59 53 54
f 60 54 59
f 60 55 54
f 57 32 29
f 57 62 32
f 63 59 31
f 63 31 34
f 62 35 32
f 62 65 35
f 65 61 64
f 65 62 61
f 66 36 35
f 66 35 65
f 63 34 37
f 63 37 67
f 67 37 36
f 67 36 66
f 69 64 68
f 69 65 64
f 41 70 40
f 41 71 70
f 72 41 42
f 72 71 41
f 75 44 45
f 75 74 44
f 70 46 40
f 70 76 46
f 76 70 71
f 76 71 77
f 72 42 47
f 72 47 78
f 77 71 72
f 77 72 78
f 79 47 48
f 79 78 47
f 80 44 74
f 80 49 44
f 49 79 48
f 49 80 79
f 80 73 79
f 80 74 73
f 75 45 50
f 75 50 81
f 80 74 75
f 80 75 81
f 82 46 76
f 82 51 46
f 52 51 82
f 52 82 83
f 82 76 77
f 82 77 83
f 85 54 53
f 85 53 84
f 81 50 56
f 81 56 87
f 56 55 86
f 56 86 87
f 88 52 83
f 88 57 52
f 89 84 53
f 89 53 58
f 88 83 84
f 88 84 89
f 85 59 54
f 85 90 59
f 90 58 59
f 90 89 58
f 89 85 84
f 89 90 85
f 86 55 60
f 86 60 91
f 60 59 90
f 60 90 91
f 88 62 57
f 88 93 62
f 93 61 62
f 93 92 61
f 94 93 88
f 94 88 89
f 95 90 59
f 95 59 63
f 95 94 89
f 95 89 90
f 96 90 95
f 96 91 90
f 92 64 61
f 92 97 64
f 98 97 92
f 98 92 93
f 99 66 65
f 99 65 98
f 99 98 93
f 99 93 94
f 100 95 63
f 100 63 67
f 100 67 66
f 100 66 99
f 100 99 94
f 100 94 95
f 97 68 64
f 97 101 68
f 98 65 69
f 98 69 102
f 69 68 101
f 69 101 102
f 102 101 97
f 102 97 98
f 106 104 103
f 106 107 104
f 107 105 104
f 107 108 105
f 110 73 74
f 110 109 73
f 112 77 78
f 112 111 77
f 111 108 107
f 111 112 108
f 113 73 109
f 113 79 73
f 113 78 79
f 113 112 78
f 113 108 112
f 113 109 108
f 110 74 80
f 110 80 114
f 81 114 80
f 81 115 114
f 116 77 111
f 116 83 77
f 117 84 83
f 117 83 116
f 115 81 87
f 115 87 120
f 120 87 86
f 120 86 119
f 120 119 114
f 120 114 115
f 121 84 117
f 121 89 84
f 90 89 121
f 90 121 122
f 121 117 118
f 121 118 122
f 123 119 86
f 123 86 91
f 124 90 122
f 124 95 90
f 125 123 91
f 125 91 96
f 96 95 124
f 96 124 125
f 124 122 123
f 124 123 125
f 104 126 103
f 104 127 126
f 128 104 105
f 128 127 104
f 126 106 103
f 126 129 106
f 130 107 106
f 130 106 129
f 131 128 105
f 131 105 108
f 130 127 128
f 130 128 131
f 132 108 109
f 132 131 108
f 133 109 110
f 133 132 109
f 135 107 130
f 135 111 107
f 134 130 129
f 134 135 130
f 133 110 114
f 133 114 138
f 137 132 133
f 137 133 138
f 139 111 135
f 139 116 111
f 117 116 139
f 117 139 140
f 139 135 136
f 139 136 140
f 118 117 140
f 118 140 141
f 138 114 119
f 138 119 142
f 144 118 141
f 144 122 118
f 143 141 140
f 143 144 141
f 145 142 119
f 145 119 123
f 145 123 122
f 145 122 144
f 145 144 141
f 145 141 142
f 147 126 127
f 147 146 126
f 146 129 126
f 146 148 129
f 149 147 127
f 149 127 130
f 148 146 147
f 148 147 149
f 131 149 130
f 131 150 149
f 151 131 132
f 151 150 131
f 148 134 129
f 148 152 134
f 153 135 134
f 153 134 152
f 152 148 149
f 152 149 153
f 136 135 153
f 136 153 154
f 153 149 150
f 153 150 154
f 151 132 137
f 151 137 155
f 154 150 151
f 154 151 155
f 156 137 138
f 156 155 137
f 157 136 154
f 157 140 136
f 157 154 155
f 157 155 158
f 156 138 142
f 156 142 159
f 142 141 158
f 142 158 159
f 158 155 156
f 158 156 159
f 157 143 140
f 157 160 143
f 161 158 141
f 161 141 144
f 161 144 143
f 161 143 160
f 161 160 157
f 161 157 158
f 164 163 162
f 164 165 163
f 167 166 165
f 167 168 166
f 172 170 169
f 172 173 170
f 173 171 170
f 173 174 171
f 163 175 162
f 163 176 175
f 175 164 162
f 175 178 164
f 179 176 163
f 179 163 165
f 179 165 164
f 179 164 178
f 166 179 165
f 166 180 179
f 182 177 181
f 182 178 177
f 179 167 165
f 179 183 167
f 183 178 182
f 183 179 178
f 180 166 168
f 180 168 184
f 184 168 167
f 184 167 183
f 185 182 181
f 185 186 182
f 187 182 186
f 187 183 182
f 187 184 183
f 187 188 184
f 189 187 186
f 189 190 187
f 190 188 187
f 190 191 188
f 192 191 190
f 192 193 191
f 195 169 170
f 195 194 169
f 171 195 170
f 171 196 195
f 194 172 169
f 194 197 172
f 198 173 172
f 198 172 197
f 196 171 174
f 196 174 199
f 174 173 198
f 174 198 199
f 201 198 197
f 201 202 198
f 203 198 202
f 203 199 198
f 204 199 203
f 204 200 199
f 206 202 205
f 206 203 202
f 207 206 205
f 207 208 206
f 210 175 176
f 210 209 175
f 209 178 175
f 209 212 178
f 212 177 178
f 212 211 177
f 210 176 179
f 210 179 213
f 213 212 209
f 213 209 210
f 180 213 179
f 180 214 213
f 211 181 177
f 211 215 181
f 216 215 211
f 216 211 212
f 216 212 213
f 216 213 217
f 214 180 184
f 214 184 218
f 217 213 214
f 217 214 218
f 215 185 181
f 215 220 185
f 221 186 185
f 221 185 220
f 218 184 188
f 218 188 223
f 222 217 218
f 222 218 223
f 223 219 218
f 223 224 219
f 221 189 186
f 221 225 189
f 226 190 189
f 226 189 225
f 227 223 188
f 227 188 191
f 228 223 227
f 228 224 223
f 226 192 190
f 226 231 192
f 230 226 225
f 230 231 226
f 227 191 193
f 227 193 232
f 232 193 192
f 232 192 231
f 234 229 233
f 234 230 229
f 235 230 234
f 235 231 230
f 236 231 235
f 236 232 231
f 238 234 237
f 238 235 234
f 240 194 195
f 240 239 194
f 241 195 196
f 241 240 195
f 239 197 194
f 239 243 197
f 241 196 199
f 241 199 245
f 244 240 241
f 244 241 245
f 200 245 199
f 200 246 245
f 243 201 197
f 243 248 201
f 248 242 247
f 248 243 242
f 249 202 201
f 249 201 248
f 246 200 204
f 246 204 251
f 204 203 250
f 204 250 251
f 250 245 246
f 250 246 251
f 249 205 202
f 249 254 205
f 253 249 248
f 253 254 249
f 255 250 203
f 255 203 206
f 255 251 250
f 255 256 251
f 256 252 251
f 256 257 252
f 254 207 205
f 254 258 207
f 255 206 208
f 255 208 259
f 208 207 258
f 208 258 259
f 260 255 259
f 260 256 255
f 263 258 262
f 263 259 258
f 265 261 264
f 265 262 261
f 266 262 265
f 266 263 262
f 216 267 215
f 216 268 267
f 217 268 216
f 217 269 268
f 219 270 218
f 219 271 270
f 267 220 215
f 267 273 220
f 221 220 273
f 221 273 274
f 273 267 268
f 273 268 274
f 269 217 222
f 269 222 275
f 276 218 270
f 276 223 218
f 276 222 223
f 276 275 222
f 276 269 275
f 276 270 269
f 277 271 219
f 277 219 224
f 277 272 271
f 277 278 272
f 279 221 274
f 279 225 221
f 280 279 274
f 280 274 275
f 277 224 228
f 277 228 282
f 228 227 281
f 228 281 282
f 283 277 282
f 283 278 277
f 279 230 225
f 279 285 230
f 230 284 229
f 230 285 284
f 286 285 279
f 286 279 280
f 281 227 232
f 281 232 287
f 288 281 287
f 288 282 281
f 284 233 229
f 284 289 233
f 234 233 289
f 234 289 290
f 290 289 284
f 290 284 285
f 292 287 232
f 292 232 236
f 292 236 235
f 292 235 291
f 292 291 286
f 292 286 287
f 293 234 290
f 293 237 234
f 294 291 235
f 294 235 238
f 238 237 293
f 238 293 294
f 294 293 290
f 294 290 291
f 296 239 240
f 296 295 239
f 295 243 239
f 295 298 243
f 243 297 242
f 243 298 297
f 296 240 244
f 296 244 299
f 299 298 295
f 299 295 296
f 300 244 245
f 300 299 244
f 297 247 242
f 297 303 247
f 248 247 303
f 248 303 304
f 304 303 297
f 304 297 298
f 300 245 250
f 300 250 306
f 305 299 300
f 305 300 306
f 307 250 251
f 307 306 250
f 307 300 306
f 307 301 300
f 252 307 251
f 252 308 307
f 307 302 301
f 307 308 302
f 304 253 248
f 304 309 253
f 254 253 309
f 254 309 310
f 309 304 305
f 309 305 310
f 313 308 252
f 313 252 257
f 257 256 312
f 257 312 313
f 314 254 310
f 314 258 254
f 314 310 311
f 314 311 315
f 312 256 260
f 312 260 316
f 260 259 315
f 260 315 316
f 317 312 316
f 317 313 312
f 314 262 258
f 314 319 262
f 319 261 262
f 319 318 261
f 320 315 259
f 320 259 263
f 320 319 314
f 320 314 315
f 321 315 320
f 321 316 315
f 318 264 261
f 318 322 264
f 323 265 264
f 323 264 322
f 324 320 263
f 324 263 266
f 324 266 265
f 324 265 323
f 324 323 319
f 324 319 320
f 269 325 268
f 269 326 325
f 327 269 270
f 327 326 269
f 271 327 270
f 271 328 327
f 272 328 271
f 272 329 328
f 325 274 268
f 325 330 274
f 275 274 330
f 275 330 331
f 334 329 272
f 334 272 278
f 333 328 329
f 333 329 334
f 331 280 275
f 331 335 280
f 335 331 332
f 335 332 336
f 338 334 278
f 338 278 283
f 283 282 337
f 283 337 338
f 338 337 333
f 338 333 334
f 340 280 335
f 340 286 280
f 286 339 285
f 286 340 339
f 287 286 340
f 287 340 341
f 341 340 335
f 341 335 336
f 337 282 288
f 337 288 342
f 288 287 341
f 288 341 342
f 343 285 339
f 343 290 285
f 344 340 286
f 344 286 291
f 291 290 343
f 291 343 344
f 344 343 339
f 344 339 340
f 299 345 298
f 299 346 345
f 301 347 300
f 301 348 347
f 349 301 302
f 349 348 301
f 350 298 345
f 350 304 298
f 346 299 305
f 346 305 351
f 305 304 350
f 305 350 351
f 350 345 346
f 350 346 351
f 352 300 347
f 352 306 300
f 352 305 306
f 352 351 305
f 352 346 351
f 352 347 346
f 354 349 302
f 354 302 308
f 353 348 349
f 353 349 354
f 355 305 351
f 355 310 305
f 311 310 355
f 311 355 356
f 357 354 308
f 357 308 313
f 358 311 356
f 358 315 311
f 357 313 317
f 357 317 360
f 317 316 359
f 317 359 360
f 362 318 319
f 362 361 318
f 363 315 358
f 363 320 315
f 359 316 321
f 359 321 364
f 321 320 363
f 321 363 364
f 363 358 359
f 363 359 364
f 361 322 318
f 361 365 322
f 362 319 323
f 362 323 366
f 366 323 322
f 366 322 365
f 365 361 362
f 365 362 366
f 371 368 367
f 371 372 368
f 373 325 326
f 373 372 325
f 372 369 368
f 372 373 369
f 327 373 326
f 327 374 373
f 373 370 369
f 373 374 370
f 375 327 328
f 375 374 327
f 376 325 372
f 376 330 325
f 377 331 330
f 377 330 376
f 378 332 331
f 378 331 377
f 375 328 333
f 375 333 379
f 378 336 332
f 378 381 336
f 380 378 377
f 380 381 378
f 382 379 333
f 382 333 337
f 383 336 381
f 383 341 336
f 384 382 337
f 384 337 342
f 342 341 383
f 342 383 384
f 383 381 382
f 383 382 384
f 388 386 385
f 388 389 386
f 347 389 346
f 347 390 389
f 389 387 386
f 389 390 387
f 391 347 348
f 391 390 347
f 393 346 389
f 393 351 346
f 392 389 388
f 392 393 389
f 391 348 353
f 391 353 394
f 395 353 354
f 395 394 353
f 393 355 351
f 393 397 355
f 396 393 392
f 396 397 393
f 356 355 397
f 356 397 398
f 395 354 357
f 395 357 400
f 401 356 398
f 401 358 356
f 359 358 401
f 359 401 402
f 401 398 399
f 401 399 402
f 403 400 357
f 403 357 360
f 360 359 402
f 360 402 403
f 403 402 399
f 403 399 400
f 368 404 367
f 368 405 404
f 406 368 369
f 406 405 368
f 407 369 370
f 407 406 369
f 404 371 367
f 404 408 371
f 409 372 371
f 409 371 408
f 408 404 405
f 408 405 409
f 407 370 374
f 407 374 411
f 410 406 407
f 410 407 411
f 412 374 375
f 412 411 374
f 413 372 409
f 413 376 372
f 377 376 413
f 377 413 414
f 413 409 410
f 413 410 414
f 412 375 379
f 412 379 416
f 415 411 412
f 415 412 416
f 417 377 414
f 417 380 377
f 418 381 380
f 418 380 417
f 417 414 415
f 417 415 418
f 419 416 379
f 419 379 382
f 419 382 381
f 419 381 418
f 418 415 416
f 418 416 419
f 421 385 386
f 421 420 385
f 422 386 387
f 422 421 386
f 420 388 385
f 420 423 388
f 424 423 420
f 424 420 421
f 425 422 387
f 425 387 390
f 424 421 422
f 424 422 425
f 426 390 391
f 426 425 390
f 427 388 423
f 427 392 388
f 427 423 424
f 427 424 428
f 428 424 425
f 428 425 429
f 426 391 394
f 426 394 430
f 429 425 426
f 429 426 430
f 431 394 395
f 431 430 394
f 432 392 427
f 432 396 392
f 433 397 396
f 433 396 432
f 432 427 428
f 432 428 433
f 398 397 433
f 398 433 434
f 433 428 429
f 433 429 434
f 399 398 434
f 399 434 435
f 434 429 430
f 434 430 435
f 436 431 395
f 436 395 400
f 436 400 399
f 436 399 435
f 435 430 431
f 435 431 436
f 438 405 406
f 438 437 405
f 439 405 437
f 439 409 405
f 438 406 410
f 438 410 440
f 410 409 439
f 410 439 440
f 439 437 438
f 439 438 440
f 441 410 411
f 441 440 410
f 442 410 440
f 442 414 410
f 441 411 415
f 441 415 443
f 415 414 442
f 415 442 443
f 442 440 441
f 442 441 443
f 446 445 444
f 446 447 445
f 445 448 444
f 445 449 448
f 448 446 444
f 448 451 446
f 449 445 447
f 449 447 452
f 447 446 451
f 447 451 452
f 452 450 449
f 452 453 450
f 454 453 452
f 454 455 453
f 449 456 448
f 449 457 456
f 450 457 449
f 450 458 457
f 456 451 448
f 456 460 451
f 461 452 451
f 461 451 460
f 461 460 456
f 461 456 457
f 458 450 453
f 458 453 462
f 464 459 463
f 464 460 459
f 461 454 452
f 461 465 454
f 464 461 460
f 464 465 461
f 462 453 455
f 462 455 466
f 455 454 465
f 455 465 466
f 467 464 463
f 467 468 464
f 469 464 468
f 469 465 464
f 469 466 465
f 469 470 466
f 471 469 468
f 471 472 469
f 473 469 472
f 473 470 469
f 475 471 474
f 475 472 471
f 476 472 475
f 476 473 472
f 477 475 474
f 477 478 475
f 479 475 478
f 479 476 475
f 458 480 457
f 458 481 480
f 483 459 460
f 483 482 459
f 480 461 457
f 480 484 461
f 461 483 460
f 461 484 483
f 481 458 462
f 481 462 485
f 485 484 480
f 485 480 481
f 482 463 459
f 482 488 463
f 485 462 466
f 485 466 490
f 489 484 485
f 489 485 490
f 492 486 491
f 492 487 486
f 488 467 463
f 488 493 467
f 494 468 467
f 494 467 493
f 490 466 470
f 490 470 495
f 495 491 490
f 495 496 491
f 497 491 496
f 497 492 491
f 494 471 468
f 494 498 471
f 495 470 473
f 495 473 499
f 500 495 499
f 500 496 495
f 498 474 471
f 498 502 474
f 503 499 473
f 503 473 476
f 502 477 474
f 502 505 477
f 505 501 504
f 505 502 501
f 506 478 477
f 506 477 505
f 503 476 479
f 503 479 507
f 507 479 478
f 507 478 506
f 483 508 482
f 483 509 508
f 510 483 484
f 510 509 483
f 513 486 487
f 513 512 486
f 508 488 482
f 508 514 488
f 514 508 509
f 514 509 515
f 510 484 489
f 510 489 516
f 515 509 510
f 515 510 516
f 517 489 490
f 517 516 489
f 518 486 512
f 518 491 486
f 491 517 490
f 491 518 517
f 518 511 517
f 518 512 511
f 513 487 492
f 513 492 519
f 518 512 513
f 518 513 519
f 520 488 514
f 520 493 488
f 494 493 520
f 494 520 521
f 520 514 515
f 520 515 521
f 519 492 497
f 519 497 524
f 497 496 523
f 497 523 524
f 525 494 521
f 525 498 494
f 525 521 522
f 525 522 526
f 523 496 500
f 523 500 528
f 500 499 527
f 500 527 528
f 525 502 498
f 525 530 502
f 530 501 502
f 530 529 501
f 531 530 525
f 531 525 526
f 532 527 499
f 532 499 503
f 531 526 527
f 531 527 532
f 533 527 532
f 533 528 527
f 529 504 501
f 529 534 504
f 535 505 504
f 535 504 534
f 535 534 529
f 535 529 530
f 536 506 505
f 536 505 535
f 536 535 530
f 536 530 531
f 537 532 503
f 537 503 507
f 537 507 506
f 537 506 536
f 537 536 531
f 537 531 532
f 540 539 538
f 540 541 539
f 543 511 512
f 543 542 511
f 545 515 516
f 545 544 515
f 544 541 540
f 544 545 541
f 546 511 542
f 546 517 511
f 546 516 517
f 546 545 516
f 546 541 545
f 546 542 541
f 543 512 518
f 543 518 547
f 519 547 518
f 519 548 547
f 549 515 544
f 549 521 515
f 522 521 549
f 522 549 550
f 548 519 524
f 548 524 553
f 553 524 523
f 553 523 552
f 553 552 547
f 553 547 548
f 554 522 550
f 554 526 522
f 527 526 554
f 527 554 555
f 554 550 551
f 554 551 555
f 556 552 523
f 556 523 528
f 557 527 555
f 557 532 527
f 558 556 528
f 558 528 533
f 533 532 557
f 533 557 558
f 557 555 556
f 557 556 558
f 561 538 539
f 561 560 538
f 563 538 560
f 563 540 538
f 563 559 562
f 563 560 559
f 564 561 539
f 564 539 541
f 563 560 561
f 563 561 564
f 565 541 542
f 565 564 541
f 566 542 543
f 566 565 542
f 568 540 563
f 568 544 540
f 567 563 562
f 567 568 563
f 566 543 547
f 566 547 570
f 569 565 566
f 569 566 570
f 571 544 568
f 571 549 544
f 572 550 549
f 572 549 571
f 551 550 572
f 551 572 573
f 570 547 552
f 570 552 574
f 576 551 573
f 576 555 551
f 575 573 572
f 575 576 573
f 577 574 552
f 577 552 556
f 577 556 555
f 577 555 576
f 577 576 573
f 577 573 574
f 579 559 560
f 579 578 559
f 580 559 578
f 580 562 559
f 579 560 563
f 579 563 581
f 580 578 579
f 580 579 581
f 564 581 563
f 564 582 581
f 583 564 565
f 583 582 564
f 580 567 562
f 580 584 567
f 568 567 584
f 568 584 585
f 584 580 581
f 584 581 585
f 585 581 582
f 585 582 586
f 583 565 569
f 583 569 587
f 586 582 583
f 586 583 587
f 588 569 570
f 588 587 569
f 585 571 568
f 585 589 571
f 572 571 589
f 572 589 590
f 589 585 586
f 589 586 590
f 590 586 587
f 590 587 591
f 588 570 574
f 588 574 592
f 574 573 591
f 574 591 592
f 591 587 588
f 591 588 592
f 590 575 572
f 590 593 575
f 594 591 573
f 594 573 576
f 594 576 575
f 594 575 593
f 593 590 591
f 593 591 594
