# parsimony mesh: cplx_CPLX0-3501 (source /Users/eranagmon/code/v2e-cplx/workspace/studies/ecoli-3d/viz/3d/structures/cplx_CPLX0-3501.pdb)
# atoms: 4600  voxel: 8 Å  verts: 394  tris: 792
v 51.7546 -34.1231 -30.9190
v 54.0011 -34.1231 -30.9190
v 51.7546 -32.3601 -30.9190
v 54.0011 -32.3601 -30.9190
v -28.0090 45.5264 -30.9294
v -25.8093 45.5264 -30.9294
v -28.0090 47.5957 -30.9294
v -25.8093 47.5957 -30.9294
v 44.2480 -49.5383 -22.8716
v 46.4171 -49.5383 -22.8716
v 43.5634 -44.9573 -23.5037
v 49.0828 -45.1525 -24.1070
v 55.0073 -42.6160 -23.8694
v 36.8959 -33.5681 -22.7973
v 41.1671 -36.5238 -24.2649
v 49.0853 -36.8568 -28.1082
v 55.9691 -36.8568 -26.5392
v 36.8959 -32.1425 -22.7973
v 41.0282 -29.2684 -24.2080
v 48.8974 -29.3411 -26.4707
v 55.2466 -31.5331 -26.5440
v 43.6594 -24.5158 -23.4012
v 46.0402 -24.5158 -23.4012
v -36.0287 30.2700 -23.0100
v -32.9894 30.2700 -23.0100
v -36.7338 35.0427 -23.7755
v -30.5611 34.5952 -24.5916
v -24.6122 36.9635 -24.3147
v -37.8151 43.0427 -24.5273
v -30.7729 42.9329 -28.3931
v -23.4378 42.9329 -26.8064
v -37.4461 51.0427 -24.0780
v -31.1181 50.6462 -26.2333
v -24.2974 48.4480 -26.5440
v -35.7368 55.3184 -23.1209
v -34.2272 55.3184 -23.1209
v 59.2900 -57.3979 -16.4359
v 61.7679 -57.3979 -16.4359
v 34.6870 -49.8884 -15.7570
v 41.3813 -51.1029 -18.4718
v 49.0828 -51.7714 -18.8928
v 56.8066 -53.3844 -18.0215
v 62.3738 -52.9573 -17.4549
v 33.9846 -44.9573 -16.5002
v 39.5634 -44.9573 -20.5002
v 51.7504 -47.9493 -21.7920
v 57.4369 -45.1525 -21.2051
v 62.3328 -44.9573 -17.4344
v 28.7759 -34.2420 -14.8671
v 33.4547 -36.5717 -18.0699
v 38.5575 -38.9015 -21.2726
v 60.0013 -36.9573 -20.8076
v 61.9904 -36.9573 -16.8076
v 28.7759 -32.2732 -14.8671
v 34.1136 -29.5411 -17.7768
v 38.3261 -26.8091 -20.6866
v 51.2763 -26.1951 -18.5440
v 57.4617 -30.3905 -18.4362
v 61.6616 -32.3622 -15.6977
v 36.6647 -24.7921 -15.3532
v 41.0282 -24.4771 -18.2295
v 47.2763 -24.4809 -18.5440
v -20.9707 22.5372 -16.8969
v -18.0854 22.5372 -16.8969
v -45.4382 29.8351 -16.0237
v -38.7847 28.6752 -18.6318
v -30.5611 28.0327 -19.0873
v -23.3499 26.4757 -18.6154
v -17.4650 27.0427 -17.9541
v -45.6615 35.0427 -16.4263
v -40.7338 35.0427 -20.4263
v -27.6561 31.6301 -22.1162
v -22.3348 34.5952 -21.8154
v -17.3167 35.0427 -17.9541
v -51.0541 46.5032 -14.6980
v -46.8012 43.5190 -16.7847
v -41.8151 43.0427 -21.2294
v -19.3996 43.0427 -20.7744
v -18.0696 43.0427 -16.7744
v -51.0541 47.3326 -14.6980
v -46.2042 50.4166 -16.3167
v -41.4461 51.0427 -20.6445
v -30.0393 53.3706 -18.5440
v -22.2873 48.9814 -18.1166
v -18.8176 47.1699 -15.1650
v -43.0613 55.1053 -14.7942
v -38.6095 55.2873 -17.8941
v -34.0393 55.3015 -18.5440
v 34.6622 -57.1943 -7.0530
v 38.3482 -57.1943 -7.0530
v 59.2900 -57.3979 -12.0895
v 61.7679 -57.3979 -12.0895
v 19.3513 -50.6020 -7.9981
v 25.0814 -52.1130 -9.4489
v 32.0079 -53.3710 -10.6747
v 41.0415 -55.1098 -10.0494
v 49.0814 -54.5708 -10.5440
v 56.8066 -55.7701 -9.8713
v 62.8865 -53.6732 -9.8713
v 19.3513 -46.9279 -7.9981
v 24.5833 -44.5397 -10.0066
v 29.9846 -44.9573 -13.7816
v 64.4590 -44.9573 -10.5440
v 27.8469 -36.4043 -10.4725
v 29.6895 -36.4043 -10.4725
v 63.5020 -36.9573 -10.5440
v 28.7759 -32.2732 -12.5031
v 31.6992 -29.3468 -10.1195
v 52.0182 -25.7871 -10.5440
v 57.0814 -28.7108 -10.5440
v 61.8659 -31.8811 -10.5440
v 36.1404 -24.4702 -10.5440
v 41.0814 -22.5350 -10.5440
v 48.0182 -23.0220 -10.5440
v -51.9309 22.9551 -6.8322
v -46.9186 22.6688 -7.3628
v -40.2946 22.6317 -7.3476
v -21.0608 22.5406 -10.5440
v -17.9392 22.5406 -10.5440
v -60.2158 28.9939 -7.6079
v -54.7260 26.6134 -8.8183
v -47.6304 27.1182 -11.8622
v -38.1442 24.3549 -10.2262
v -30.9186 24.6569 -10.5440
v -25.0608 24.1109 -10.5440
v -16.0582 27.0427 -10.5440
v -60.2158 32.8940 -7.6079
v -55.3505 35.3535 -9.5464
v -49.6615 35.0427 -13.4991
v -14.8011 35.0427 -10.5440
v -52.0130 43.7681 -10.8058
v -49.8416 43.7681 -10.8058
v -16.1793 43.0427 -10.5440
v -51.0541 47.3326 -13.5660
v -47.6912 50.4166 -10.7572
v -29.2286 53.7097 -10.5440
v -22.9186 50.3778 -10.5440
v -18.4159 47.7109 -10.5440
v -43.3531 55.2484 -10.5440
v -38.9186 56.6630 -10.5440
v -33.2286 56.4573 -10.5440
v 34.6622 -57.1943 -6.0091
v 38.3482 -57.1943 -6.0091
v 12.7789 -49.4178 0.3090
v 16.8433 -50.8479 -2.4322
v 25.0814 -54.2012 -2.5440
v 32.4299 -55.4128 -3.0231
v 41.0415 -55.1326 -3.0231
v 49.0814 -53.8801 -2.5440
v 57.0814 -53.4708 -2.5440
v 62.5235 -51.4238 -2.5440
v 12.5633 -44.9573 0.1483
v 16.8433 -44.5397 -4.0675
v 21.5845 -41.5946 -6.0062
v 60.5287 -41.7681 0.8920
v 63.1648 -44.6438 -2.0824
v 12.6931 -40.3944 0.8593
v 17.8054 -37.4195 -0.2309
v 24.5833 -36.3229 -4.4820
v 29.3657 -33.2333 -6.2259
v 59.2629 -36.9573 -0.5849
v 62.5929 -36.9573 -4.5849
v 20.9547 -32.8490 1.3700
v 25.3870 -29.6923 -0.6441
v 30.6662 -28.9573 -5.1046
v 52.3628 -25.7781 -5.6997
v 56.5725 -28.9477 -3.2004
v 61.5472 -32.1174 -6.0345
v 28.2574 -24.4101 0.3904
v 33.3786 -23.8382 -2.3834
v 41.4609 -19.5345 -3.1072
v 49.3437 -20.4209 -3.2579
v 53.9357 -23.6044 -0.3664
v 44.3806 -16.3683 -0.8160
v 46.3247 -16.3683 -0.8160
v -51.9309 22.9551 -6.0931
v -46.9186 22.6688 -5.4805
v -40.2946 22.6317 -5.5768
v -19.7227 22.8787 -6.1138
v -18.4460 22.8787 -6.1138
v -67.2213 30.5688 0.5358
v -62.8970 28.6631 -2.2961
v -54.7260 24.7512 -3.0735
v -46.9186 24.8282 -1.4805
v -38.1442 24.2538 -2.7637
v -30.9186 25.2288 -2.5440
v -22.6011 25.4733 -3.0859
v -17.3663 27.3110 -3.0859
v -67.2484 35.0427 0.6031
v -62.8970 35.3535 -3.6706
v -58.3051 38.2274 -5.9511
v -19.6000 38.0724 0.7907
v -16.4792 35.2605 -2.1432
v -67.0558 39.2583 1.2390
v -62.9186 41.0959 -0.2621
v -55.8757 43.9655 -3.2641
v -50.2937 46.3664 -5.9104
v -20.5740 43.0427 -0.4809
v -17.0284 43.0427 -4.4809
v -53.2049 51.0427 -0.6615
v -48.7774 51.0427 -4.6615
v -27.8129 54.1488 -5.5492
v -23.2521 50.9776 -3.0053
v -18.3494 47.8063 -5.7947
v -51.4393 55.3972 0.6657
v -46.3806 55.7657 -2.2182
v -38.3903 59.8430 -2.5763
v -30.9134 59.2336 -2.7402
v -26.0598 56.2745 -0.2159
v -35.3713 63.4275 0.0688
v -34.0138 63.4275 0.0688
v 12.4211 -49.6768 5.4560
v 17.0814 -51.1149 5.4560
v 25.0814 -52.5637 5.4560
v 33.0814 -52.4299 5.4560
v 41.0814 -52.5274 5.4560
v 49.0814 -52.7619 5.4560
v 56.7532 -50.6456 5.0301
v 61.7189 -49.7195 2.0796
v 11.6731 -44.9573 5.4560
v 59.8649 -44.3466 4.8336
v 61.9170 -44.3466 4.8336
v 12.2701 -37.4195 5.9533
v 15.6213 -35.0610 3.6181
v 59.0258 -36.7405 5.1349
v 62.1152 -39.2626 7.5875
v 12.7266 -32.5271 8.9514
v 17.8054 -31.9840 5.9533
v 25.3870 -27.7467 5.9388
v 29.5385 -25.4650 8.9274
v 52.9675 -25.0103 9.4180
v 55.0700 -28.1891 6.2332
v 28.2574 -24.4101 3.5941
v 32.5556 -23.6620 5.9388
v 41.4609 -20.6280 5.0210
v 49.6461 -21.4790 5.7411
v 53.9357 -23.6044 4.0847
v 44.3806 -16.3683 2.0643
v 46.3247 -16.3683 2.0643
v -67.5990 30.2328 5.4560
v -62.9186 28.2645 5.4560
v -54.9186 26.9260 5.4560
v -46.9186 27.4064 5.4560
v -38.9186 27.2094 5.4560
v -30.9186 26.8552 5.4560
v -23.1118 29.0373 5.0596
v -18.2071 30.1565 2.1287
v -68.1176 35.0427 5.4560
v -20.0869 35.5058 4.8885
v -17.9120 35.5058 4.8885
v -67.3630 42.3721 6.2095
v -62.9186 45.0959 3.5077
v -58.7796 46.8980 1.6024
v -20.6580 43.4276 5.1714
v -17.6169 41.0176 7.6483
v -66.9679 47.1012 9.3786
v -62.9186 47.8837 7.5077
v -55.1095 51.0725 4.8423
v -49.8799 54.0395 8.0822
v -23.9051 51.0427 5.4560
v -51.4393 55.3972 2.7489
v -47.0954 56.0318 5.4317
v -38.3903 59.0866 4.9126
v -31.1758 59.0795 4.9126
v -26.2418 56.0043 5.4560
v -35.3713 63.4275 1.8837
v -34.0138 63.4275 1.8837
v 10.7681 -50.1991 13.4560
v 17.0814 -51.5439 13.4560
v 25.0814 -51.6279 13.4560
v 33.0814 -50.9756 13.4560
v 41.0814 -50.7535 13.4560
v 48.6203 -50.3035 13.2865
v 53.8677 -49.7293 10.5068
v 9.2773 -44.9573 13.4560
v 51.1328 -44.9573 15.8375
v 56.7532 -44.5379 12.2052
v 62.1152 -41.5917 10.8627
v 11.3089 -36.9573 13.4560
v 52.5852 -40.5269 16.9138
v 57.3405 -37.2281 13.8882
v 62.1152 -39.2626 10.8627
v 12.7997 -32.6243 13.4560
v 17.0814 -31.7236 13.4560
v 25.0814 -29.1639 13.4560
v 32.5556 -26.7008 13.7271
v 41.0814 -27.7858 15.0670
v 49.8130 -27.2626 12.8737
v 55.4701 -30.0823 13.4560
v 34.8718 -24.1794 11.2411
v 41.0814 -24.1710 11.0670
v 47.6342 -24.6868 9.8188
v -75.0058 30.9698 17.3181
v -70.4814 29.9059 14.1732
v -62.9186 28.0054 13.4560
v -54.9186 27.9936 13.4560
v -46.9186 28.8197 13.4560
v -38.9186 28.9869 13.4560
v -31.1886 29.4595 13.4530
v -25.9072 30.0187 10.7843
v -75.0058 31.2858 17.3181
v -71.4124 34.3886 14.1732
v -28.5741 35.0427 16.1382
v -23.1118 35.3806 12.8507
v -17.6169 38.2725 11.5375
v -67.8793 43.3406 12.9270
v -64.2546 46.2058 15.2410
v -34.9474 47.0350 17.4481
v -31.1271 43.2344 17.2427
v -22.5326 42.8924 14.2874
v -17.6169 41.0176 11.5375
v -66.9679 47.1012 9.9076
v -62.1202 47.7157 12.9270
v -54.9186 50.0128 13.4560
v -47.0954 52.4393 13.5996
v -38.1359 50.7011 15.2883
v -31.7144 50.9501 14.4056
v -24.8293 50.9501 12.7170
v -44.5466 55.6978 11.0288
v -38.9186 55.6185 10.7523
v -30.9186 55.1649 9.6489
v -26.8751 55.0931 9.5577
v 10.5749 -50.1141 19.3981
v 17.0814 -50.5161 20.1932
v 25.3302 -50.0465 21.6805
v 33.0814 -50.2185 21.4560
v 41.5623 -49.6455 21.8069
v 45.6462 -49.3164 19.3743
v 10.1676 -44.9573 19.7329
v 17.3258 -44.8943 23.5020
v 22.8294 -47.5190 24.4968
v 35.5416 -42.0623 24.4139
v 41.5623 -44.8203 23.7912
v 47.1328 -44.9573 20.1565
v 12.0319 -36.9573 18.2879
v 17.3258 -37.4566 21.3667
v 25.0814 -36.0563 22.6098
v 32.9575 -37.3372 22.8866
v 41.0814 -36.9573 20.6735
v 49.5836 -37.4991 19.4512
v 54.6009 -35.1936 18.7459
v 13.0606 -32.9436 17.4714
v 17.0814 -32.8590 17.5240
v 25.0814 -31.5960 18.6098
v 33.0814 -30.7559 19.0257
v 41.0814 -31.7858 18.1932
v 49.0814 -31.7991 18.6882
v 54.6009 -31.7377 18.7459
v -75.0058 30.9698 17.5423
v -70.9186 30.0761 19.0625
v -62.9186 29.3456 20.3072
v -54.5434 29.9075 21.7035
v -46.9186 29.5877 21.4560
v -38.1188 30.0636 22.2558
v -34.0352 30.5059 20.1223
v -75.0058 31.2858 17.5423
v -70.7171 34.3886 19.2711
v -62.2696 35.5556 23.4669
v -54.2302 35.9440 24.9569
v -46.9186 38.4651 25.0615
v -38.1188 35.6119 24.5677
v -32.5741 35.0427 20.6821
v -67.9162 40.8725 18.3392
v -61.7124 42.6890 20.5644
v -54.4678 42.3204 22.8602
v -46.9186 43.0427 22.2057
v -38.1359 43.8381 20.0329
v -31.1271 43.2344 19.0101
v -25.4547 44.7671 18.9291
v -58.9213 47.0431 17.4563
v -54.9186 47.9681 18.2692
v -46.9186 48.5409 18.6003
v -40.2807 47.8068 17.8976
v -29.5783 48.2217 18.9291
v -25.4547 48.2217 18.9291
v 28.1628 -49.2359 25.6708
v 33.0814 -49.5257 26.1199
v 39.2163 -49.4365 26.1263
v 20.1555 -42.1857 25.7796
v 25.3302 -44.8943 25.9400
v 32.9575 -44.8203 26.1480
v 39.2163 -47.3956 26.1263
v 20.1555 -40.4562 25.7796
v 25.0814 -40.0563 25.8998
v 30.2083 -40.2571 25.7241
v -51.6265 30.8309 25.6002
v -46.9186 30.3889 26.2401
v -40.2522 30.3827 26.3573
v -59.1702 38.5641 25.5419
v -54.2302 35.9440 25.5711
v -46.9186 34.4651 26.2401
v -40.2522 33.3247 26.3573
v -59.1702 39.1722 25.5419
v -56.8340 39.1722 25.5419
f 3 2 1
f 3 4 2
f 7 6 5
f 7 8 6
f 11 10 9
f 11 12 10
f 16 11 15
f 16 12 11
f 2 16 1
f 2 17 16
f 16 13 12
f 16 17 13
f 19 14 18
f 19 15 14
f 16 3 1
f 16 20 3
f 20 15 19
f 20 16 15
f 21 17 2
f 21 2 4
f 21 4 3
f 21 3 20
f 23 19 22
f 23 20 19
f 26 25 24
f 26 27 25
f 30 26 29
f 30 27 26
f 6 30 5
f 6 31 30
f 30 28 27
f 30 31 28
f 30 7 5
f 30 33 7
f 33 29 32
f 33 30 29
f 34 31 6
f 34 6 8
f 34 8 7
f 34 7 33
f 36 32 35
f 36 33 32
f 41 9 10
f 41 40 9
f 43 37 42
f 43 38 37
f 45 9 40
f 45 11 9
f 45 39 44
f 45 40 39
f 46 41 10
f 46 10 12
f 13 46 12
f 13 47 46
f 46 42 41
f 46 47 42
f 47 43 42
f 47 48 43
f 51 11 45
f 51 15 11
f 51 14 15
f 51 50 14
f 51 44 50
f 51 45 44
f 52 47 13
f 52 13 17
f 52 48 47
f 52 53 48
f 55 14 50
f 55 18 14
f 54 50 49
f 54 55 50
f 56 19 18
f 56 18 55
f 52 17 21
f 52 21 58
f 21 20 57
f 21 57 58
f 59 52 58
f 59 53 52
f 56 22 19
f 56 61 22
f 60 56 55
f 60 61 56
f 57 20 23
f 57 23 62
f 62 23 22
f 62 22 61
f 67 24 25
f 67 66 24
f 69 63 68
f 69 64 63
f 71 24 66
f 71 26 24
f 71 65 70
f 71 66 65
f 72 67 25
f 72 25 27
f 28 72 27
f 28 73 72
f 72 68 67
f 72 73 68
f 73 69 68
f 73 74 69
f 71 29 26
f 71 77 29
f 77 70 76
f 77 71 70
f 78 73 28
f 78 28 31
f 78 74 73
f 78 79 74
f 80 76 75
f 80 81 76
f 77 32 29
f 77 82 32
f 81 77 76
f 81 82 77
f 78 31 34
f 78 34 84
f 34 33 83
f 34 83 84
f 85 78 84
f 85 79 78
f 82 35 32
f 82 87 35
f 86 82 81
f 86 87 82
f 83 33 36
f 83 36 88
f 88 36 35
f 88 35 87
f 38 91 37
f 38 92 91
f 96 39 40
f 96 95 39
f 96 89 95
f 96 90 89
f 97 40 41
f 97 96 40
f 98 37 91
f 98 42 37
f 42 97 41
f 42 98 97
f 92 38 43
f 92 43 99
f 99 98 91
f 99 91 92
f 100 94 93
f 100 101 94
f 102 39 95
f 102 44 39
f 102 94 101
f 102 95 94
f 103 99 43
f 103 43 48
f 102 50 44
f 102 105 50
f 105 49 50
f 105 104 49
f 104 102 101
f 104 105 102
f 103 48 53
f 103 53 106
f 107 49 104
f 107 54 49
f 108 55 54
f 108 54 107
f 107 104 105
f 107 105 108
f 110 58 57
f 110 57 109
f 106 53 59
f 106 59 111
f 59 58 110
f 59 110 111
f 108 60 55
f 108 112 60
f 113 61 60
f 113 60 112
f 114 109 57
f 114 57 62
f 62 61 113
f 62 113 114
f 64 118 63
f 64 119 118
f 122 115 121
f 122 116 115
f 123 65 66
f 123 122 65
f 123 116 122
f 123 117 116
f 124 66 67
f 124 123 66
f 125 63 118
f 125 68 63
f 125 67 68
f 125 124 67
f 126 119 64
f 126 64 69
f 128 120 127
f 128 121 120
f 129 65 122
f 129 70 65
f 129 121 128
f 129 122 121
f 126 69 74
f 126 74 130
f 129 76 70
f 129 132 76
f 132 75 76
f 132 131 75
f 131 129 128
f 131 132 129
f 130 74 79
f 130 79 133
f 134 75 131
f 134 80 75
f 135 81 80
f 135 80 134
f 134 131 132
f 134 132 135
f 137 84 83
f 137 83 136
f 133 79 85
f 133 85 138
f 85 84 137
f 85 137 138
f 135 86 81
f 135 139 86
f 140 87 86
f 140 86 139
f 141 136 83
f 141 83 88
f 141 88 87
f 141 87 140
f 90 142 89
f 90 143 142
f 146 93 94
f 146 145 93
f 147 89 142
f 147 95 89
f 147 94 95
f 147 146 94
f 148 143 90
f 148 90 96
f 147 142 143
f 147 143 148
f 97 148 96
f 97 149 148
f 98 149 97
f 98 150 149
f 99 150 98
f 99 151 150
f 145 100 93
f 145 153 100
f 153 144 152
f 153 145 144
f 154 101 100
f 154 100 153
f 151 99 103
f 151 103 156
f 157 153 152
f 157 158 153
f 154 104 101
f 154 159 104
f 158 154 153
f 158 159 154
f 160 105 104
f 160 104 159
f 162 156 103
f 162 103 106
f 162 161 155
f 162 155 156
f 163 159 158
f 163 164 159
f 160 108 105
f 160 165 108
f 164 160 159
f 164 165 160
f 110 109 166
f 110 166 167
f 168 162 106
f 168 106 111
f 168 111 110
f 168 110 167
f 168 167 161
f 168 161 162
f 165 112 108
f 165 170 112
f 169 165 164
f 169 170 165
f 171 113 112
f 171 112 170
f 166 109 114
f 166 114 172
f 114 113 171
f 114 171 172
f 173 166 172
f 173 167 166
f 175 171 174
f 175 172 171
f 116 176 115
f 116 177 176
f 178 116 117
f 178 177 116
f 119 179 118
f 119 180 179
f 183 115 176
f 183 121 115
f 183 120 121
f 183 182 120
f 184 183 176
f 184 176 177
f 185 178 117
f 185 117 123
f 184 177 178
f 184 178 185
f 186 123 124
f 186 185 123
f 179 125 118
f 179 187 125
f 125 186 124
f 125 187 186
f 180 119 126
f 180 126 188
f 187 179 180
f 187 180 188
f 182 127 120
f 182 190 127
f 190 181 189
f 190 182 181
f 191 128 127
f 191 127 190
f 188 126 130
f 188 130 193
f 195 189 194
f 195 190 189
f 191 131 128
f 191 196 131
f 195 191 190
f 195 196 191
f 197 132 131
f 197 131 196
f 199 193 130
f 199 130 133
f 199 198 192
f 199 192 193
f 197 135 132
f 197 201 135
f 200 197 196
f 200 201 197
f 137 136 202
f 137 202 203
f 204 199 133
f 204 133 138
f 204 138 137
f 204 137 203
f 204 203 198
f 204 198 199
f 201 139 135
f 201 206 139
f 205 201 200
f 205 206 201
f 207 140 139
f 207 139 206
f 202 136 141
f 202 141 208
f 141 140 207
f 141 207 208
f 209 202 208
f 209 203 202
f 211 207 210
f 211 208 207
f 213 144 145
f 213 212 144
f 214 145 146
f 214 213 145
f 215 146 147
f 215 214 146
f 148 215 147
f 148 216 215
f 149 216 148
f 149 217 216
f 218 149 150
f 218 217 149
f 219 150 151
f 219 218 150
f 220 144 212
f 220 152 144
f 219 151 156
f 219 156 222
f 222 156 155
f 222 155 221
f 221 218 219
f 221 219 222
f 220 157 152
f 220 223 157
f 224 158 157
f 224 157 223
f 225 221 155
f 225 155 161
f 226 221 225
f 226 222 221
f 224 163 158
f 224 228 163
f 227 224 223
f 227 228 224
f 229 164 163
f 229 163 228
f 225 161 167
f 225 167 232
f 229 169 164
f 229 233 169
f 234 170 169
f 234 169 233
f 233 229 230
f 233 230 234
f 235 171 170
f 235 170 234
f 232 167 173
f 232 173 237
f 173 172 236
f 173 236 237
f 237 236 231
f 237 231 232
f 238 171 235
f 238 174 171
f 239 236 172
f 239 172 175
f 175 174 238
f 175 238 239
f 239 238 235
f 239 235 236
f 241 181 182
f 241 240 181
f 242 182 183
f 242 241 182
f 184 242 183
f 184 243 242
f 244 184 185
f 244 243 184
f 245 185 186
f 245 244 185
f 246 186 187
f 246 245 186
f 247 187 188
f 247 246 187
f 248 181 240
f 248 189 181
f 247 188 193
f 247 193 250
f 250 193 192
f 250 192 249
f 249 246 247
f 249 247 250
f 248 194 189
f 248 251 194
f 252 195 194
f 252 194 251
f 253 196 195
f 253 195 252
f 254 249 192
f 254 192 198
f 255 249 254
f 255 250 249
f 257 251 256
f 257 252 251
f 253 200 196
f 253 258 200
f 257 253 252
f 257 258 253
f 260 254 198
f 260 198 203
f 261 200 258
f 261 205 200
f 262 206 205
f 262 205 261
f 261 258 259
f 261 259 262
f 263 207 206
f 263 206 262
f 260 203 209
f 260 209 265
f 209 208 264
f 209 264 265
f 266 207 263
f 266 210 207
f 267 264 208
f 267 208 211
f 211 210 266
f 211 266 267
f 266 263 264
f 266 264 267
f 269 212 213
f 269 268 212
f 270 213 214
f 270 269 213
f 215 270 214
f 215 271 270
f 216 271 215
f 216 272 271
f 273 216 217
f 273 272 216
f 274 217 218
f 274 273 217
f 268 220 212
f 268 275 220
f 277 274 218
f 277 218 221
f 276 273 274
f 276 274 277
f 278 221 222
f 278 277 221
f 275 223 220
f 275 279 223
f 280 276 277
f 280 277 281
f 278 222 226
f 278 226 282
f 282 226 225
f 282 225 281
f 281 277 278
f 281 278 282
f 279 227 223
f 279 283 227
f 284 228 227
f 284 227 283
f 285 229 228
f 285 228 284
f 230 229 285
f 230 285 286
f 289 281 225
f 289 225 232
f 289 232 231
f 289 231 288
f 290 230 286
f 290 234 230
f 235 234 290
f 235 290 291
f 290 286 287
f 290 287 291
f 292 288 231
f 292 231 236
f 292 236 235
f 292 235 291
f 292 291 287
f 292 287 288
f 295 240 241
f 295 294 240
f 296 241 242
f 296 295 241
f 243 296 242
f 243 297 296
f 298 243 244
f 298 297 243
f 299 244 245
f 299 298 244
f 300 245 246
f 300 299 245
f 302 240 294
f 302 248 240
f 301 294 293
f 301 302 294
f 300 246 249
f 300 249 304
f 303 299 300
f 303 300 304
f 305 249 250
f 305 304 249
f 306 248 302
f 306 251 248
f 310 309 303
f 310 303 304
f 305 250 255
f 305 255 311
f 311 255 254
f 311 254 310
f 310 304 305
f 310 305 311
f 306 256 251
f 306 312 256
f 257 256 312
f 257 312 313
f 312 306 307
f 312 307 313
f 314 258 257
f 314 257 313
f 259 258 314
f 259 314 315
f 317 316 308
f 317 308 309
f 318 310 254
f 318 254 260
f 319 259 315
f 319 262 259
f 263 262 319
f 263 319 320
f 319 315 316
f 319 316 320
f 321 264 263
f 321 263 320
f 320 316 317
f 320 317 321
f 322 318 260
f 322 260 265
f 265 264 321
f 265 321 322
f 322 321 317
f 322 317 318
f 269 323 268
f 269 324 323
f 270 324 269
f 270 325 324
f 271 325 270
f 271 326 325
f 272 326 271
f 272 327 326
f 328 272 273
f 328 327 272
f 323 275 268
f 323 329 275
f 329 323 324
f 329 324 330
f 331 330 324
f 331 324 325
f 328 273 276
f 328 276 334
f 334 333 327
f 334 327 328
f 335 275 329
f 335 279 275
f 336 335 329
f 336 329 330
f 339 338 332
f 339 332 333
f 334 276 280
f 334 280 340
f 339 333 334
f 339 334 340
f 341 280 281
f 341 340 280
f 342 279 335
f 342 283 279
f 284 283 342
f 284 342 343
f 343 342 335
f 343 335 336
f 344 285 284
f 344 284 343
f 343 336 337
f 343 337 344
f 345 286 285
f 345 285 344
f 345 344 337
f 345 337 338
f 287 286 345
f 287 345 346
f 345 338 339
f 345 339 346
f 347 288 287
f 347 287 346
f 347 346 339
f 347 339 340
f 341 281 289
f 341 289 348
f 289 288 347
f 289 347 348
f 347 340 341
f 347 341 348
f 350 293 294
f 350 349 293
f 351 294 295
f 351 350 294
f 296 351 295
f 296 352 351
f 297 352 296
f 297 353 352
f 298 353 297
f 298 354 353
f 355 298 299
f 355 354 298
f 349 301 293
f 349 356 301
f 357 302 301
f 357 301 356
f 356 349 350
f 356 350 357
f 357 350 351
f 357 351 358
f 358 351 352
f 358 352 359
f 355 299 303
f 355 303 362
f 362 361 354
f 362 354 355
f 363 302 357
f 363 306 302
f 307 306 363
f 307 363 364
f 363 357 358
f 363 358 364
f 365 359 360
f 365 360 366
f 367 366 360
f 367 360 361
f 362 303 309
f 362 309 368
f 368 309 308
f 368 308 367
f 367 361 362
f 367 362 368
f 369 309 310
f 369 368 309
f 370 307 364
f 370 313 307
f 314 313 370
f 314 370 371
f 370 364 365
f 370 365 371
f 372 315 314
f 372 314 371
f 371 365 366
f 371 366 372
f 373 367 308
f 373 308 316
f 373 316 315
f 373 315 372
f 373 372 366
f 373 366 367
f 374 309 368
f 374 317 309
f 375 369 310
f 375 310 318
f 375 318 317
f 375 317 374
f 374 368 369
f 374 369 375
f 326 376 325
f 326 377 376
f 378 326 327
f 378 377 326
f 376 331 325
f 376 380 331
f 331 379 330
f 331 380 379
f 381 380 376
f 381 376 377
f 382 378 327
f 382 327 333
f 382 333 332
f 382 332 381
f 382 381 377
f 382 377 378
f 383 330 379
f 383 336 330
f 337 336 383
f 337 383 384
f 384 383 379
f 384 379 380
f 385 381 332
f 385 332 338
f 385 338 337
f 385 337 384
f 385 384 380
f 385 380 381
f 353 386 352
f 353 387 386
f 388 353 354
f 388 387 353
f 386 359 352
f 386 390 359
f 359 389 358
f 359 390 389
f 391 360 359
f 391 359 390
f 391 390 386
f 391 386 387
f 392 388 354
f 392 354 361
f 392 361 360
f 392 360 391
f 392 391 387
f 392 387 388
f 393 358 389
f 393 364 358
f 394 390 359
f 394 359 365
f 365 364 393
f 365 393 394
f 394 393 389
f 394 389 390
