# parsimony mesh: cplx_CPLX0-7667 (source /Users/eranagmon/code/v2e-cplx/workspace/studies/ecoli-3d/viz/3d/structures/cplx_CPLX0-7667.pdb)
# atoms: 5936  voxel: 8 Å  verts: 491  tris: 984
v 56.0053 -50.3363 -25.1283
v 57.4004 -50.3363 -25.1283
v 24.7106 -41.9632 -24.7501
v 28.7327 -43.1457 -25.3288
v 36.7327 -43.1722 -25.3583
v 40.8469 -41.9984 -24.7894
v 56.0053 -49.2568 -25.1283
v 57.4004 -49.2568 -25.1283
v 24.7106 -41.9051 -24.7501
v 28.7327 -41.1045 -25.3288
v 36.7327 -40.9548 -25.3583
v 40.8469 -41.7055 -24.7894
v -16.5915 21.5229 -25.3554
v -14.5369 21.5229 -25.3554
v -47.5644 29.6661 -24.8712
v -43.2673 28.9237 -25.3022
v -37.6893 28.9486 -25.3581
v -16.5915 23.1664 -25.3554
v -14.5369 23.1664 -25.3554
v -47.5644 30.3380 -24.8712
v -43.2673 31.1046 -25.3022
v -37.6893 31.1846 -25.3581
v 23.2995 -51.5808 -17.9594
v 28.7327 -51.7093 -18.6252
v 36.7327 -50.8027 -17.9895
v 44.7327 -50.6995 -17.6781
v 53.0962 -51.0509 -20.4670
v 58.1641 -50.8930 -20.7395
v 16.3905 -42.9903 -17.3237
v 21.3384 -45.1434 -20.3082
v 28.7327 -47.1457 -22.6252
v 36.7327 -47.1721 -21.9895
v 44.0012 -45.1692 -21.2340
v 53.0962 -46.3243 -21.7949
v 60.3536 -46.2513 -21.3733
v 65.4337 -43.2457 -19.3668
v 16.3905 -41.2959 -17.3237
v 21.6503 -38.9338 -20.0541
v 28.7327 -37.1045 -21.7377
v 36.7327 -36.9548 -22.3986
v 44.0012 -38.5935 -22.4652
v 52.7327 -37.9254 -19.9183
v 60.3896 -37.8912 -19.2888
v 65.4337 -40.5351 -19.3668
v 23.9233 -33.1701 -17.4512
v 28.7327 -32.2220 -17.7377
v 36.4236 -29.8159 -18.5953
v 44.7327 -29.9254 -20.5030
v 52.6216 -30.4157 -18.4549
v 57.4943 -33.4092 -17.0541
v 38.7919 -21.9254 -17.8708
v 44.7327 -21.9254 -18.5117
v 49.6259 -21.9254 -17.3805
v 39.9934 -17.0788 -17.3669
v 44.7327 -17.2473 -17.2258
v 48.7755 -17.8679 -16.7605
v -48.5006 20.9247 -17.8207
v -43.2673 20.8071 -18.2543
v -35.2673 21.6208 -17.4897
v -27.2673 21.6612 -17.5970
v -19.2618 21.0670 -20.5885
v -14.1320 21.1798 -20.7395
v -55.7897 28.8494 -17.5882
v -50.6992 26.5911 -20.3711
v -43.2673 24.9237 -22.2543
v -35.1205 26.1990 -21.4182
v -27.2673 26.0746 -19.3642
v -19.2618 25.9296 -21.9640
v -11.8438 26.2141 -20.8192
v -6.7638 29.2619 -18.1650
v -55.7897 31.0885 -17.5882
v -50.6630 33.3799 -20.2826
v -43.2673 35.1046 -22.2245
v -35.1205 33.9406 -22.3537
v -27.2673 34.0746 -20.9491
v -19.2673 34.0746 -20.4039
v -11.0049 34.2101 -18.9273
v -6.7638 31.6338 -18.1650
v -48.4284 39.2409 -17.6437
v -43.2673 40.4492 -18.2245
v -35.7372 42.4745 -18.8696
v -27.2673 42.0746 -20.4586
v -19.4365 41.9811 -18.7225
v -13.4966 39.2522 -17.5600
v -33.5859 50.0746 -18.0257
v -27.2673 50.0746 -18.5875
v -22.4360 50.0746 -17.3013
v -32.2423 55.2049 -17.4637
v -27.2673 55.0030 -17.3107
v -23.2103 54.1821 -16.7770
v 48.7147 -57.9340 -8.7557
v 48.7693 -57.9340 -8.7557
v 15.9906 -50.8150 -10.1872
v 20.6728 -52.1517 -12.8081
v 28.7327 -53.2239 -12.7395
v 36.7327 -52.1385 -12.7395
v 45.5219 -54.3010 -11.9492
v 51.9547 -54.5852 -11.9492
v 58.1406 -51.3109 -12.7395
v 15.9513 -45.7644 -12.8081
v 17.9662 -48.3237 -15.5205
v 62.1406 -47.8172 -12.7395
v 65.9262 -43.8172 -12.7395
v 15.3320 -38.3477 -12.5085
v 18.5900 -35.9626 -15.0211
v 62.8276 -35.2018 -15.2909
v 65.9861 -37.8912 -12.6704
v 14.9907 -29.9254 -9.7667
v 20.7066 -30.3905 -12.0910
v 28.8214 -28.7740 -13.0557
v 33.5509 -27.0762 -15.9331
v 55.2141 -28.0759 -14.7929
v 60.1051 -30.5934 -12.3752
v 65.2304 -33.1108 -9.9576
v 16.1842 -25.6189 -9.1609
v 17.4899 -25.6189 -9.1609
v 31.5473 -24.0349 -10.5997
v 34.8978 -21.5911 -13.0557
v 53.6259 -21.9254 -13.9956
v 57.6999 -21.9254 -9.9956
v 38.8254 -16.5339 -12.7395
v 45.2676 -13.5777 -12.2544
v 51.5434 -14.9131 -12.1460
v 57.3724 -17.2916 -9.6943
v 48.2909 -9.7547 -9.2644
v 48.9781 -9.7547 -9.2644
v -56.2799 21.1492 -10.2818
v -51.2073 20.4095 -12.8649
v -43.2673 19.9569 -12.7395
v -35.2673 20.6494 -12.7395
v -27.2673 19.4908 -12.7395
v -18.5518 20.1787 -12.0482
v -14.4840 21.4332 -14.2539
v -56.7397 26.1395 -12.8649
v -53.8340 23.5161 -15.6151
v -15.4081 22.2258 -8.9206
v -11.5974 24.5473 -12.0482
v -6.5863 29.0520 -12.7395
v -63.3465 37.8129 -8.8274
v -58.6547 34.4507 -12.0741
v -53.7617 36.4218 -15.3209
v -8.1633 36.9671 -15.5517
v -6.4782 34.2101 -12.8268
v -63.3465 38.2848 -8.8274
v -58.8898 41.4007 -9.7479
v -51.3942 42.1249 -12.2025
v -43.4523 44.1348 -13.2297
v -38.7172 45.4078 -16.2232
v -16.8826 44.5855 -14.8387
v -11.4513 41.6419 -12.5285
v -6.8602 38.6983 -10.2184
v -55.9714 46.3602 -9.0842
v -54.3601 46.3602 -9.0842
v -40.6107 50.0746 -10.5509
v -37.5859 50.0746 -14.5509
v -18.4360 50.0746 -13.8532
v -14.4295 50.0746 -9.8532
v -39.4170 54.2211 -9.0044
v -35.0523 55.7921 -12.0985
v -26.8829 58.9687 -12.2055
v -20.4586 57.1269 -11.9874
v -14.6782 54.7384 -9.4586
v -23.9599 62.2275 -9.1829
v -23.0403 62.2275 -9.1829
v 40.4513 -58.0394 -0.9565
v 45.5219 -58.3256 -4.0697
v 51.9547 -58.7135 -4.7686
v 57.4347 -58.6858 -2.1213
v 14.9088 -51.3110 -4.7395
v 20.7327 -52.9538 -4.7395
v 28.7327 -52.9942 -4.7395
v 37.3638 -54.8225 -4.0697
v 43.3814 -56.1858 -6.2899
v 54.1027 -56.2267 -7.4546
v 57.9685 -53.7062 -4.7686
v 7.4338 -43.4210 -1.8312
v 11.9426 -46.0228 -4.5945
v 61.4665 -45.8466 -4.7315
v 65.6230 -43.1275 -7.3928
v 7.6318 -37.9254 -2.1699
v 11.2385 -37.9254 -6.1699
v 62.9516 -37.9254 -2.4361
v 65.7737 -37.9254 -6.4361
v 8.5637 -33.5417 -1.5550
v 12.0299 -30.4952 -4.4288
v 22.8232 -27.6109 -7.3370
v 26.2140 -27.6109 -7.3370
v 62.3266 -30.2367 -4.5049
v 65.2304 -33.1108 -7.0151
v 16.1847 -25.6383 -4.7395
v 20.3870 -24.5517 -4.6980
v 28.8214 -22.5461 -4.6980
v 34.0913 -19.1313 -4.7395
v 59.8128 -21.9254 -4.7395
v 38.0913 -16.4777 -4.7395
v 45.2676 -12.3731 -4.8809
v 52.0799 -12.6045 -4.8809
v 58.1403 -16.7671 -4.7395
v 48.2909 -9.7547 -7.6418
v 48.9781 -9.7547 -7.6418
v -24.8113 13.8943 -1.9798
v -19.2673 13.5817 -2.2318
v -14.8305 13.5977 -1.4889
v -57.4835 20.7901 -4.7395
v -51.2673 19.6501 -4.7395
v -43.2673 19.9523 -4.7395
v -35.2673 18.7884 -4.7395
v -27.3937 15.8121 -4.6837
v -18.5518 17.6552 -6.5772
v -14.6304 18.0746 -3.1064
v -65.0770 28.2042 -2.1988
v -60.7917 25.7523 -4.8151
v -15.4081 22.2258 -8.4793
v -11.9265 25.8748 -5.6168
v -6.8628 29.5238 -8.0876
v -64.6685 34.7176 -4.8151
v -61.5197 32.4795 -7.5321
v -9.6920 34.0746 -3.2891
v -6.6586 34.0746 -7.2891
v -63.6616 39.2168 -4.7395
v -60.9772 43.2168 -4.7395
v -49.0268 45.0088 -7.6520
v -46.2422 45.0088 -7.6520
v -10.3131 41.6488 -4.7704
v -6.8602 38.6983 -7.4576
v -56.9772 46.7487 -4.7395
v -51.5230 48.2013 -4.8870
v -44.3536 50.8620 -4.8870
v -12.7224 50.0746 -4.7395
v -40.3940 54.1922 -4.7395
v -35.2673 56.4175 -4.7395
v -28.2660 60.2999 -4.7395
v -18.8566 59.2520 -4.7395
v -14.0417 55.2520 -4.7395
v -24.2660 62.3168 -4.7395
v -22.8566 62.3168 -4.7395
v 40.4513 -58.0394 -0.4980
v 44.7327 -58.4192 0.3361
v 52.7327 -58.9040 1.0324
v 57.4347 -58.6858 0.4304
v 13.6176 -52.1809 3.2605
v 20.7327 -54.3201 3.2605
v 28.7327 -53.2079 3.2605
v 37.3638 -54.5776 2.6054
v 44.7327 -55.7625 4.3361
v 52.7327 -55.5410 5.0324
v 57.7552 -53.4858 3.1624
v 6.0895 -44.8646 3.2605
v 9.6176 -48.8646 3.2605
v 39.9374 -42.8763 6.3350
v 42.3126 -42.8763 6.3350
v 58.7409 -45.9254 3.2605
v 5.8515 -37.9254 3.2605
v 39.9374 -40.7114 6.3350
v 44.9718 -38.0524 6.3721
v 49.3739 -35.3934 6.4093
v 60.1501 -37.9254 3.2605
v 8.4947 -33.4373 3.2605
v 12.0494 -29.4373 3.2605
v 47.6310 -33.1545 6.4093
v 49.3739 -33.1545 6.4093
v 60.7321 -29.9254 3.2605
v 16.0494 -25.1789 3.2605
v 21.2201 -20.9842 3.3892
v 28.7327 -19.1192 1.0079
v 33.6813 -18.7571 0.0425
v 56.4544 -18.2607 7.0011
v 58.9458 -21.3266 3.9048
v 24.2117 -17.6246 6.1417
v 28.7327 -16.4359 5.0079
v 36.5018 -15.7314 2.9297
v 45.4797 -12.3483 3.8860
v 52.6164 -13.8083 4.3188
v 57.9697 -17.0148 1.6678
v 48.6444 -9.8926 6.9697
v 48.7784 -9.8926 6.9697
v -24.8113 13.8943 -0.3225
v -19.2673 13.5817 0.1636
v -14.8305 13.5977 0.0476
v -58.6382 20.5075 3.2605
v -51.2673 18.9495 3.2605
v -43.2673 19.4830 3.2605
v -35.2673 18.8234 3.2605
v -27.3937 16.4144 2.7107
v -19.2673 17.0767 4.1636
v -14.7072 18.7623 2.9327
v -71.5351 29.7227 6.1418
v -67.5531 27.2044 3.3893
v -62.6382 22.7507 3.2605
v -31.5729 29.6320 6.9137
v -30.5367 29.6320 6.9137
v -13.9682 26.0746 3.2605
v -71.5351 30.3691 6.1418
v -68.0400 33.4513 3.3893
v -31.5729 30.8482 6.9137
v -27.4216 33.9667 6.7896
v -22.8058 37.0853 6.6656
v -12.8045 34.0746 3.2605
v -63.8760 39.6760 3.2605
v -61.4951 43.6760 3.2605
v -24.3066 38.7307 6.6656
v -22.8058 38.7307 6.6656
v -12.3125 42.0746 3.2605
v -57.4951 47.8492 3.2605
v -51.3910 52.2817 2.4779
v -45.9532 54.0536 -0.7105
v -16.2266 52.8550 6.2454
v -13.5054 50.1428 3.4514
v -48.8068 54.9114 4.6228
v -43.2789 56.0834 2.4779
v -35.2673 58.1081 3.2605
v -26.8507 60.4471 3.5886
v -19.5867 58.4047 3.6931
v -14.2223 54.9807 0.9121
v -23.9062 62.2446 1.1407
v -22.9467 62.2446 1.1407
v 8.3521 -50.4036 12.9810
v 12.0545 -51.4578 10.6928
v 19.9836 -52.2674 11.3706
v 28.7281 -51.7121 11.3706
v 36.7327 -52.0006 11.2605
v 44.7327 -52.7225 11.2605
v 52.6348 -51.5535 11.0449
v 57.0138 -50.5260 8.2345
v 6.9873 -46.5794 10.6928
v 8.9357 -49.6820 7.6477
v 22.1508 -48.7062 14.1107
v 26.0583 -48.7062 14.1107
v 39.0716 -43.8889 11.2605
v 44.8806 -44.8303 10.6440
v 52.6348 -46.4595 11.4580
v 57.3010 -45.9254 8.2779
v 6.3929 -37.9254 11.2605
v 39.0716 -39.7698 11.2605
v 45.0260 -37.8942 9.6773
v 52.3174 -38.0062 8.3708
v 57.9311 -37.9254 8.4190
v 8.2892 -32.1229 11.2605
v 10.4328 -28.1229 11.2605
v 46.6164 -30.2629 11.2164
v 52.3174 -30.2629 9.3170
v 58.2272 -29.9254 8.8862
v 14.7465 -22.1740 11.7829
v 20.7639 -19.3893 11.3555
v 26.1328 -19.1056 13.2464
v 39.8313 -18.6589 14.3739
v 44.7538 -21.5655 12.9333
v 53.3657 -21.3266 9.2686
v 57.6040 -23.5941 8.2660
v 16.4889 -17.7477 14.7979
v 20.7639 -17.6862 11.3555
v 28.7727 -16.3381 10.8520
v 36.9918 -15.8886 11.5285
v 45.4797 -14.0954 8.9985
v 50.5583 -13.9254 8.0979
v 48.6444 -9.8926 7.2957
v 48.7784 -9.8926 7.2957
v -63.7955 21.5047 12.7387
v -59.6472 21.1386 10.9653
v -51.2673 20.1550 9.7317
v -43.1476 20.6789 11.2787
v -35.2673 20.1989 11.2605
v -27.2673 19.7441 11.2605
v -19.4958 20.9571 10.6310
v -15.1830 21.8875 7.5446
v -71.5351 29.7227 7.9045
v -66.6121 25.9513 10.3216
v -59.6472 22.5815 10.9653
v -51.2673 24.0508 13.7317
v -45.7345 23.8010 13.9574
v -32.7013 28.5168 11.2605
v -27.6289 27.5926 10.7442
v -19.4958 25.6388 11.1030
v -14.9794 26.0746 7.7089
v -71.5351 30.3691 7.9045
v -67.6346 33.4513 10.8469
v -32.7013 32.2659 11.2605
v -27.6796 34.3313 9.7489
v -19.7904 34.2810 8.3677
v -14.3799 34.0746 8.2898
v -64.1336 41.7680 11.5404
v -61.9952 44.2303 9.0603
v -25.9948 41.6682 11.0352
v -19.7904 41.6682 9.1114
v -14.1092 42.0746 8.8557
v -63.5938 46.5914 14.3937
v -58.9138 49.8762 11.5135
v -51.1658 53.3325 11.5897
v -46.6080 53.5041 14.5461
v -32.0580 53.3796 14.4994
v -27.3792 50.4576 12.8577
v -19.0429 50.1428 9.1553
v -14.6069 47.5216 8.3287
v -55.8323 54.4499 13.9667
v -51.1658 54.6806 11.5897
v -43.6718 56.5289 11.6318
v -34.9418 56.9179 11.6038
v -27.2673 57.0041 9.5385
v -21.5600 56.4955 8.3923
v 8.3521 -50.4036 15.8030
v 12.7327 -50.3039 15.6942
v 16.8175 -49.9519 15.2962
v 31.3917 -50.5988 15.8464
v 36.7327 -50.9710 16.3013
v 44.7327 -50.8855 16.1494
v 49.9029 -50.4847 15.6439
v 8.2200 -45.9254 15.9745
v 12.7327 -45.9254 16.9649
v 19.9836 -45.9939 16.7177
v 29.2132 -45.4072 18.7742
v 36.1249 -45.5171 18.6210
v 44.7327 -48.8434 16.1494
v 49.9029 -49.4822 15.6439
v 8.1732 -37.9254 16.5656
v 13.4819 -37.1617 20.2754
v 20.7327 -38.6806 21.0552
v 27.0348 -40.2052 21.7020
v 37.8211 -39.0483 19.2605
v 42.3168 -35.0483 19.2605
v 8.2897 -31.7892 16.5911
v 12.8550 -30.0991 19.6566
v 17.4115 -28.4089 22.7221
v 40.5767 -26.1591 23.1376
v 42.8210 -29.2656 19.9868
v 14.7967 -21.9254 17.0975
v 20.0305 -21.9198 19.1518
v 28.7727 -19.9016 19.6642
v 37.5373 -21.2779 20.2022
v 42.1012 -23.9922 17.8043
v 16.4889 -17.7477 15.5815
v 17.3162 -17.7477 15.5815
v 31.4661 -17.2659 17.2667
v 34.4979 -17.2659 17.2667
v -63.7955 21.5047 15.9329
v -61.4748 21.5047 15.9329
v -40.4011 21.5078 15.8188
v -35.2673 21.1354 16.3669
v -27.2673 21.1615 16.2694
v -22.3148 21.5426 15.6888
v -64.2845 26.0746 16.6654
v -58.9918 25.8197 17.0055
v -51.2673 28.0508 16.5728
v -43.1476 26.3104 17.2039
v -35.4312 25.8939 17.3252
v -27.2673 23.3040 16.2694
v -22.3148 22.6816 15.6888
v -64.4527 34.0746 17.5068
v -59.2673 34.0746 19.6524
v -51.4133 34.3569 20.6056
v -43.2673 31.8559 21.2709
v -34.7953 34.1010 20.0568
v -30.5874 37.5560 17.5538
v -64.0764 42.0746 17.3059
v -59.2673 42.0746 20.5756
v -54.3290 42.0746 22.5301
v -32.1603 42.0746 22.3951
v -29.8972 42.0746 18.3951
v -63.5938 46.5914 16.1934
v -58.8063 49.5847 17.7059
v -51.6489 50.8534 19.4985
v -43.6718 52.9760 19.7180
v -34.8665 50.6993 19.9182
v -30.1204 48.0462 17.1467
v -55.8323 54.4499 15.8693
v -53.5247 54.4499 15.8693
v -41.2747 54.8273 17.3564
v -37.3914 54.8273 17.3564
v 32.3681 -42.1082 23.4224
v 32.9366 -42.1082 23.4224
v 16.6481 -33.9859 23.2807
v 20.7327 -34.6806 23.6401
v 29.3139 -37.6933 24.1170
v 36.0550 -37.4198 24.1313
v 41.3053 -34.4160 23.7704
v 16.6481 -33.7423 23.2807
v 20.3400 -30.6155 24.1017
v 28.7327 -29.9254 25.8676
v 37.4391 -29.2656 24.8230
v 41.3053 -31.4924 23.7704
v 22.7448 -24.7340 24.1563
v 28.7327 -23.5104 24.9184
v 35.2434 -23.8969 24.5752
v -48.8439 37.2117 23.7601
v -43.2673 35.8559 24.4513
v -36.7169 35.9792 24.3486
v -50.3290 42.0746 24.3072
v -43.2673 42.0746 25.7032
v -36.1603 42.0746 24.6565
v -49.7730 48.2028 24.1565
v -43.2673 49.1292 24.5124
v -37.6750 48.0191 24.0337
f 7 2 1
f 7 8 2
f 10 3 9
f 10 4 3
f 10 5 4
f 10 11 5
f 11 6 5
f 11 12 6
f 18 14 13
f 18 19 14
f 20 16 15
f 20 21 16
f 21 17 16
f 21 22 17
f 28 1 2
f 28 27 1
f 31 3 4
f 31 30 3
f 31 23 30
f 31 24 23
f 5 31 4
f 5 32 31
f 32 24 31
f 32 25 24
f 6 32 5
f 6 33 32
f 32 26 25
f 32 33 26
f 27 7 1
f 27 34 7
f 34 26 33
f 34 27 26
f 28 2 8
f 28 8 35
f 8 7 34
f 8 34 35
f 38 3 30
f 38 9 3
f 37 30 29
f 37 38 30
f 39 10 9
f 39 9 38
f 40 11 10
f 40 10 39
f 41 33 6
f 41 6 12
f 12 11 40
f 12 40 41
f 42 33 41
f 42 34 33
f 42 35 34
f 42 43 35
f 43 36 35
f 43 44 36
f 45 39 38
f 45 46 39
f 46 40 39
f 46 47 40
f 48 40 47
f 48 41 40
f 48 42 41
f 48 49 42
f 50 42 49
f 50 43 42
f 51 48 47
f 51 52 48
f 53 48 52
f 53 49 48
f 54 52 51
f 54 55 52
f 56 52 55
f 56 53 52
f 62 13 14
f 62 61 13
f 65 15 16
f 65 64 15
f 65 57 64
f 65 58 57
f 17 65 16
f 17 66 65
f 65 59 58
f 65 66 59
f 67 59 66
f 67 60 59
f 61 18 13
f 61 68 18
f 67 61 60
f 67 68 61
f 62 14 19
f 62 19 69
f 19 18 68
f 19 68 69
f 64 20 15
f 64 72 20
f 71 64 63
f 71 72 64
f 73 21 20
f 73 20 72
f 74 66 17
f 74 17 22
f 22 21 73
f 22 73 74
f 75 66 74
f 75 67 66
f 76 67 75
f 76 68 67
f 76 69 68
f 76 77 69
f 77 70 69
f 77 78 70
f 79 73 72
f 79 80 73
f 81 73 80
f 81 74 73
f 82 74 81
f 82 75 74
f 82 76 75
f 82 83 76
f 84 76 83
f 84 77 76
f 85 82 81
f 85 86 82
f 87 82 86
f 87 83 82
f 88 86 85
f 88 89 86
f 90 86 89
f 90 87 86
f 95 23 24
f 95 94 23
f 25 95 24
f 25 96 95
f 26 96 25
f 26 97 96
f 98 26 27
f 98 97 26
f 98 91 97
f 98 92 91
f 99 27 28
f 99 98 27
f 101 23 94
f 101 30 23
f 101 29 30
f 101 100 29
f 101 93 100
f 101 94 93
f 102 99 28
f 102 28 35
f 36 102 35
f 36 103 102
f 100 37 29
f 100 104 37
f 105 38 37
f 105 37 104
f 103 36 44
f 103 44 107
f 44 43 106
f 44 106 107
f 105 45 38
f 105 109 45
f 108 105 104
f 108 109 105
f 110 46 45
f 110 45 109
f 111 47 46
f 111 46 110
f 106 43 50
f 106 50 113
f 50 49 112
f 50 112 113
f 114 106 113
f 114 107 106
f 116 108 115
f 116 109 108
f 111 51 47
f 111 118 51
f 117 111 110
f 117 118 111
f 112 49 53
f 112 53 119
f 120 112 119
f 120 113 112
f 121 51 118
f 121 54 51
f 55 54 121
f 55 121 122
f 119 53 56
f 119 56 123
f 56 55 122
f 56 122 123
f 124 119 123
f 124 120 119
f 126 122 125
f 126 123 122
f 129 57 58
f 129 128 57
f 59 129 58
f 59 130 129
f 60 130 59
f 60 131 130
f 132 60 61
f 132 131 60
f 133 61 62
f 133 132 61
f 135 57 128
f 135 64 57
f 135 63 64
f 135 134 63
f 135 127 134
f 135 128 127
f 133 62 69
f 133 69 137
f 136 132 133
f 136 133 137
f 70 137 69
f 70 138 137
f 134 71 63
f 134 140 71
f 141 72 71
f 141 71 140
f 138 70 78
f 138 78 143
f 78 77 142
f 78 142 143
f 145 139 144
f 145 140 139
f 141 79 72
f 141 146 79
f 145 141 140
f 145 146 141
f 147 80 79
f 147 79 146
f 148 81 80
f 148 80 147
f 142 77 84
f 142 84 150
f 84 83 149
f 84 149 150
f 151 142 150
f 151 143 142
f 153 145 152
f 153 146 145
f 148 85 81
f 148 155 85
f 154 148 147
f 154 155 148
f 149 83 87
f 149 87 156
f 157 149 156
f 157 150 149
f 155 88 85
f 155 159 88
f 158 155 154
f 158 159 155
f 160 89 88
f 160 88 159
f 156 87 90
f 156 90 161
f 90 89 160
f 90 160 161
f 162 156 161
f 162 157 156
f 164 160 163
f 164 161 160
f 167 91 92
f 167 166 91
f 170 93 94
f 170 169 93
f 95 170 94
f 95 171 170
f 96 171 95
f 96 172 171
f 173 91 166
f 173 97 91
f 173 96 97
f 173 172 96
f 173 165 172
f 173 166 165
f 174 167 92
f 174 92 98
f 99 174 98
f 99 175 174
f 174 168 167
f 174 175 168
f 177 93 169
f 177 100 93
f 178 175 99
f 178 99 102
f 179 102 103
f 179 178 102
f 181 100 177
f 181 104 100
f 181 176 180
f 181 177 176
f 179 103 107
f 179 107 183
f 182 178 179
f 182 179 183
f 181 108 104
f 181 185 108
f 184 181 180
f 184 185 181
f 187 110 109
f 187 109 186
f 183 107 114
f 183 114 189
f 114 113 188
f 114 188 189
f 189 188 182
f 189 182 183
f 190 108 185
f 190 115 108
f 186 109 116
f 186 116 191
f 116 115 190
f 116 190 191
f 187 117 110
f 187 192 117
f 191 187 186
f 191 192 187
f 193 118 117
f 193 117 192
f 188 113 120
f 188 120 194
f 193 121 118
f 193 195 121
f 122 121 195
f 122 195 196
f 194 120 124
f 194 124 198
f 124 123 197
f 124 197 198
f 196 125 122
f 196 199 125
f 197 123 126
f 197 126 200
f 126 125 199
f 126 199 200
f 200 199 196
f 200 196 197
f 205 127 128
f 205 204 127
f 129 205 128
f 129 206 205
f 130 206 129
f 130 207 206
f 131 207 130
f 131 208 207
f 209 131 132
f 209 208 131
f 209 201 208
f 209 202 201
f 210 202 209
f 210 203 202
f 212 127 204
f 212 134 127
f 213 209 132
f 213 132 136
f 137 213 136
f 137 214 213
f 213 210 209
f 213 214 210
f 215 137 138
f 215 214 137
f 217 134 212
f 217 140 134
f 217 139 140
f 217 216 139
f 217 211 216
f 217 212 211
f 215 138 143
f 215 143 219
f 218 214 215
f 218 215 219
f 220 139 216
f 220 144 139
f 221 145 144
f 221 144 220
f 223 147 146
f 223 146 222
f 219 143 151
f 219 151 225
f 151 150 224
f 151 224 225
f 225 224 218
f 225 218 219
f 221 152 145
f 221 226 152
f 222 146 153
f 222 153 227
f 153 152 226
f 153 226 227
f 223 154 147
f 223 228 154
f 227 223 222
f 227 228 223
f 224 150 157
f 224 157 229
f 230 154 228
f 230 158 154
f 231 159 158
f 231 158 230
f 232 160 159
f 232 159 231
f 229 157 162
f 229 162 234
f 162 161 233
f 162 233 234
f 232 163 160
f 232 235 163
f 233 161 164
f 233 164 236
f 236 164 163
f 236 163 235
f 238 165 166
f 238 237 165
f 167 238 166
f 167 239 238
f 168 239 167
f 168 240 239
f 242 169 170
f 242 241 169
f 243 170 171
f 243 242 170
f 237 172 165
f 237 244 172
f 172 243 171
f 172 244 243
f 245 244 237
f 245 237 238
f 245 238 239
f 245 239 246
f 240 168 175
f 240 175 247
f 246 239 240
f 246 240 247
f 249 169 241
f 249 177 169
f 249 176 177
f 249 248 176
f 252 247 175
f 252 175 178
f 253 176 248
f 253 180 176
f 254 250 251
f 254 251 255
f 252 178 182
f 252 182 257
f 253 184 180
f 253 258 184
f 259 185 184
f 259 184 258
f 260 255 256
f 260 256 261
f 262 257 182
f 262 182 188
f 259 190 185
f 259 263 190
f 191 190 263
f 191 263 264
f 192 191 264
f 192 264 265
f 266 193 192
f 266 192 265
f 262 188 194
f 262 194 268
f 269 265 264
f 269 270 265
f 266 195 193
f 266 271 195
f 270 266 265
f 270 271 266
f 272 196 195
f 272 195 271
f 197 196 272
f 197 272 273
f 274 268 194
f 274 194 198
f 274 198 197
f 274 197 273
f 274 273 267
f 274 267 268
f 276 272 275
f 276 273 272
f 202 277 201
f 202 278 277
f 203 278 202
f 203 279 278
f 281 204 205
f 281 280 204
f 282 205 206
f 282 281 205
f 207 282 206
f 207 283 282
f 277 208 201
f 277 284 208
f 284 207 208
f 284 283 207
f 285 284 277
f 285 277 278
f 279 203 210
f 279 210 286
f 285 278 279
f 285 279 286
f 289 204 280
f 289 212 204
f 289 211 212
f 289 288 211
f 292 286 210
f 292 210 214
f 294 211 288
f 294 216 211
f 293 288 287
f 293 294 288
f 295 290 291
f 295 291 296
f 292 214 218
f 292 218 298
f 299 216 294
f 299 220 216
f 221 220 299
f 221 299 300
f 301 296 297
f 301 297 302
f 303 298 218
f 303 218 224
f 300 226 221
f 300 304 226
f 227 226 304
f 227 304 305
f 306 228 227
f 306 227 305
f 303 224 229
f 303 229 308
f 306 230 228
f 306 310 230
f 309 306 305
f 309 310 306
f 311 231 230
f 311 230 310
f 232 231 311
f 232 311 312
f 314 308 229
f 314 229 234
f 314 234 233
f 314 233 313
f 314 313 307
f 314 307 308
f 315 232 312
f 315 235 232
f 316 313 233
f 316 233 236
f 236 235 315
f 236 315 316
f 316 315 312
f 316 312 313
f 319 241 242
f 319 318 241
f 320 242 243
f 320 319 242
f 321 243 244
f 321 320 243
f 245 321 244
f 245 322 321
f 246 322 245
f 246 323 322
f 324 246 247
f 324 323 246
f 326 241 318
f 326 249 241
f 326 248 249
f 326 325 248
f 326 317 325
f 326 318 317
f 328 327 319
f 328 319 320
f 251 250 329
f 251 329 330
f 324 247 252
f 324 252 332
f 331 323 324
f 331 324 332
f 333 248 325
f 333 253 248
f 334 329 250
f 334 250 254
f 335 251 330
f 335 255 251
f 335 254 255
f 335 334 254
f 256 255 335
f 256 335 336
f 336 335 330
f 336 330 331
f 337 332 252
f 337 252 257
f 336 331 332
f 336 332 337
f 333 258 253
f 333 338 258
f 259 258 338
f 259 338 339
f 335 255 260
f 335 260 340
f 336 261 256
f 336 341 261
f 341 260 261
f 341 340 260
f 337 257 262
f 337 262 342
f 341 336 337
f 341 337 342
f 339 263 259
f 339 343 263
f 264 263 343
f 264 343 344
f 348 347 340
f 348 340 341
f 349 342 262
f 349 262 268
f 349 268 267
f 349 267 348
f 349 348 341
f 349 341 342
f 344 269 264
f 344 351 269
f 350 344 343
f 350 351 344
f 352 270 269
f 352 269 351
f 351 344 345
f 351 345 352
f 353 271 270
f 353 270 352
f 354 272 271
f 354 271 353
f 354 353 346
f 354 346 347
f 355 348 267
f 355 267 273
f 354 347 348
f 354 348 355
f 356 272 354
f 356 275 272
f 355 273 276
f 355 276 357
f 276 275 356
f 276 356 357
f 356 354 355
f 356 355 357
f 360 280 281
f 360 359 280
f 282 360 281
f 282 361 360
f 362 282 283
f 362 361 282
f 363 283 284
f 363 362 283
f 285 363 284
f 285 364 363
f 365 285 286
f 365 364 285
f 288 366 287
f 288 367 366
f 368 280 359
f 368 289 280
f 289 367 288
f 289 368 367
f 368 358 367
f 368 359 358
f 368 359 360
f 368 360 369
f 370 369 360
f 370 360 361
f 291 290 371
f 291 371 372
f 365 286 292
f 365 292 374
f 373 364 365
f 373 365 374
f 366 293 287
f 366 375 293
f 294 293 375
f 294 375 376
f 376 375 366
f 376 366 367
f 371 290 295
f 371 295 377
f 378 291 372
f 378 296 291
f 378 295 296
f 378 377 295
f 297 296 378
f 297 378 379
f 379 378 372
f 379 372 373
f 374 292 298
f 374 298 380
f 379 373 374
f 379 374 380
f 376 299 294
f 376 381 299
f 382 300 299
f 382 299 381
f 378 296 301
f 378 301 383
f 379 302 297
f 379 384 302
f 384 301 302
f 384 383 301
f 380 298 303
f 380 303 385
f 384 379 380
f 384 380 385
f 382 304 300
f 382 387 304
f 386 382 381
f 386 387 382
f 388 305 304
f 388 304 387
f 392 391 383
f 392 383 384
f 393 385 303
f 393 303 308
f 393 308 307
f 393 307 392
f 393 392 384
f 393 384 385
f 388 309 305
f 388 395 309
f 394 388 387
f 394 395 388
f 396 310 309
f 396 309 395
f 395 388 389
f 395 389 396
f 311 310 396
f 311 396 397
f 398 312 311
f 398 311 397
f 398 397 390
f 398 390 391
f 399 392 307
f 399 307 313
f 399 313 312
f 399 312 398
f 399 398 391
f 399 391 392
f 401 317 318
f 401 400 317
f 402 318 319
f 402 401 318
f 321 403 320
f 321 404 403
f 405 321 322
f 405 404 321
f 406 322 323
f 406 405 322
f 407 317 400
f 407 325 317
f 407 400 401
f 407 401 408
f 402 319 327
f 402 327 409
f 408 401 402
f 408 402 409
f 403 328 320
f 403 410 328
f 328 409 327
f 328 410 409
f 411 410 403
f 411 403 404
f 412 330 329
f 412 329 411
f 412 411 404
f 412 404 405
f 413 406 323
f 413 323 331
f 413 331 330
f 413 330 412
f 413 412 405
f 413 405 406
f 407 333 325
f 407 414 333
f 414 407 408
f 414 408 415
f 415 408 409
f 415 409 416
f 417 416 409
f 417 409 410
f 418 411 329
f 418 329 334
f 419 334 335
f 419 418 334
f 414 338 333
f 414 420 338
f 339 338 420
f 339 420 421
f 420 414 415
f 420 415 421
f 419 335 340
f 419 340 424
f 425 339 421
f 425 343 339
f 425 421 422
f 425 422 426
f 345 344 426
f 345 426 427
f 429 424 340
f 429 340 347
f 429 347 346
f 429 346 428
f 429 428 423
f 429 423 424
f 425 350 343
f 425 430 350
f 431 426 344
f 431 344 351
f 431 351 350
f 431 350 430
f 431 430 425
f 431 425 426
f 432 345 427
f 432 352 345
f 433 428 346
f 433 346 353
f 353 352 432
f 353 432 433
f 433 432 427
f 433 427 428
f 435 358 359
f 435 434 358
f 362 436 361
f 362 437 436
f 438 362 363
f 438 437 362
f 439 363 364
f 439 438 363
f 440 358 434
f 440 367 358
f 435 359 368
f 435 368 441
f 440 434 435
f 440 435 441
f 369 441 368
f 369 442 441
f 436 370 361
f 436 443 370
f 370 442 369
f 370 443 442
f 444 443 436
f 444 436 437
f 445 372 371
f 445 371 444
f 445 444 437
f 445 437 438
f 446 439 364
f 446 364 373
f 446 373 372
f 446 372 445
f 446 445 438
f 446 438 439
f 440 376 367
f 440 447 376
f 448 447 440
f 448 440 441
f 448 441 442
f 448 442 449
f 450 449 442
f 450 442 443
f 444 371 377
f 444 377 451
f 450 443 444
f 450 444 451
f 452 377 378
f 452 451 377
f 447 381 376
f 447 453 381
f 453 447 448
f 453 448 454
f 455 454 448
f 455 448 449
f 452 378 383
f 452 383 457
f 456 451 452
f 456 452 457
f 453 386 381
f 453 458 386
f 459 387 386
f 459 386 458
f 458 453 454
f 458 454 459
f 459 454 455
f 459 455 460
f 389 388 460
f 389 460 461
f 463 457 383
f 463 383 391
f 463 391 390
f 463 390 462
f 463 462 456
f 463 456 457
f 459 394 387
f 459 464 394
f 465 460 388
f 465 388 395
f 465 395 394
f 465 394 464
f 464 459 460
f 464 460 465
f 466 389 461
f 466 396 389
f 467 462 390
f 467 390 397
f 467 397 396
f 467 396 466
f 467 466 461
f 467 461 462
f 469 410 411
f 469 468 410
f 416 470 415
f 416 471 470
f 468 417 410
f 468 472 417
f 417 471 416
f 417 472 471
f 469 411 418
f 469 418 473
f 472 468 469
f 472 469 473
f 474 418 419
f 474 473 418
f 475 415 470
f 475 421 415
f 422 421 475
f 422 475 476
f 475 470 471
f 475 471 476
f 477 476 471
f 477 471 472
f 477 472 473
f 477 473 478
f 479 474 419
f 479 419 424
f 479 424 423
f 479 423 478
f 478 473 474
f 478 474 479
f 480 422 476
f 480 426 422
f 427 426 480
f 427 480 481
f 480 476 477
f 480 477 481
f 482 478 423
f 482 423 428
f 482 428 427
f 482 427 481
f 482 481 477
f 482 477 478
f 450 483 449
f 450 484 483
f 485 450 451
f 485 484 450
f 483 455 449
f 483 486 455
f 487 486 483
f 487 483 484
f 485 451 456
f 485 456 488
f 487 484 485
f 487 485 488
f 489 455 486
f 489 460 455
f 461 460 489
f 461 489 490
f 489 486 487
f 489 487 490
f 491 488 456
f 491 456 462
f 491 462 461
f 491 461 490
f 491 490 487
f 491 487 488
