# parsimony mesh: cplx_CPLX0-12620 (source /Users/eranagmon/code/v2e-cplx/workspace/studies/ecoli-3d/viz/3d/structures/cplx_CPLX0-12620.pdb)
# atoms: 6030  voxel: 16 Å  verts: 173  tris: 336
v -0.8859 -23.2854 -42.9418
v -0.4677 -23.2854 -42.9418
v -0.8859 -23.1355 -42.9418
v -0.4677 -23.1355 -42.9418
v 30.4699 -55.4391 -26.9157
v 32.1032 -55.4391 -26.9157
v 13.8762 -41.0382 -28.8237
v 24.3489 -46.7093 -30.1445
v 38.1289 -47.4006 -29.6648
v 52.4406 -42.1905 -28.0242
v -0.9156 -23.3825 -34.7286
v 6.7042 -28.6603 -33.3034
v 23.1674 -31.2159 -33.4854
v 39.1674 -31.2159 -34.3074
v 52.6573 -31.2159 -29.4128
v -0.9156 -23.1126 -34.7286
v 5.7863 -23.0981 -33.3613
v 23.1674 -21.7394 -29.3558
v 39.1674 -19.9994 -30.7774
v 49.2141 -20.8373 -29.0120
v -98.1196 87.7434 -28.0187
v -94.6741 87.7434 -28.0187
v -98.5138 96.7841 -28.3870
v -91.5916 96.7841 -28.3870
v -97.7871 106.4374 -27.6496
v -92.0031 106.4374 -27.6496
v 29.2344 -56.6442 -18.7286
v 38.1289 -57.7739 -19.1217
v 55.1674 -57.1804 -13.4821
v 63.5812 -55.4764 -11.0780
v 13.8762 -41.0382 -24.7109
v 21.4000 -46.7093 -19.1180
v 42.7699 -52.8571 -24.7171
v 56.7313 -47.4006 -22.5050
v 66.6777 -47.2159 -14.9577
v -0.8899 -23.3685 -26.6648
v 7.9927 -29.7074 -25.4070
v 19.3516 -31.2159 -17.1245
v 60.6573 -31.2159 -24.4711
v 72.1273 -31.7507 -16.0273
v 79.8197 -26.7739 -11.9032
v -0.8899 -23.1585 -26.6648
v 7.1674 -23.1290 -26.5899
v 23.5358 -20.2317 -20.2559
v 38.9480 -12.4396 -18.6974
v 55.9441 -14.2580 -18.5529
v 71.1674 -18.8533 -13.3850
v 79.8197 -22.2696 -11.9032
v 44.1351 -4.9813 -13.3433
v 52.0075 -4.9813 -13.3433
v -98.1196 87.7434 -23.7894
v -94.6741 87.7434 -23.7894
v -99.3574 96.4252 -18.5651
v -88.0053 96.6713 -19.6136
v -80.1841 102.4900 -15.4377
v -100.9018 112.1761 -18.1909
v -87.5863 112.2162 -19.3017
v -80.1841 107.3285 -15.4377
v -100.6937 121.9133 -12.4991
v -93.8363 121.9133 -12.4991
v 29.2876 -56.8971 -7.7198
v 40.0155 -57.9197 -2.5233
v 54.1100 -57.0673 -3.9256
v 63.5812 -55.4764 -10.0569
v 13.2338 -40.9120 2.2742
v 23.3767 -46.8959 -2.7228
v 35.2475 -52.8799 2.9468
v 58.7061 -47.2159 0.8628
v 66.6777 -47.2159 -7.1372
v 13.1615 -31.2159 2.4901
v 19.3516 -31.2159 -5.5099
v 61.6481 -37.3560 4.0550
v 71.6905 -32.0650 -2.3412
v 79.8197 -26.7739 -8.7374
v 14.4264 -22.8037 4.5603
v 24.3178 -16.1739 -1.6450
v 33.4685 -9.5441 -7.8503
v 59.4892 -10.2356 -2.7286
v 70.8351 -18.6640 -3.1339
v 79.8197 -22.2696 -8.7374
v 30.1875 -6.3286 2.8163
v 38.9480 -5.1376 -2.6016
v 51.4892 -5.2835 -2.7286
v -130.4989 87.5088 4.1990
v -120.8326 86.6642 3.5351
v -104.8326 87.4709 3.7656
v -96.6100 88.5844 4.5063
v -131.2796 96.7841 3.8534
v -120.8326 96.7841 1.6195
v -104.4124 96.4252 -3.3747
v -88.8578 96.6713 -0.7508
v -80.1841 102.4900 -6.0079
v -130.4289 105.5519 4.4530
v -120.8326 108.4836 3.3558
v -108.8621 113.6831 -2.1700
v -84.9185 112.7107 -1.4962
v -80.1841 107.3285 -6.0079
v -102.3946 122.4694 -2.7286
v -93.7351 122.4694 -2.7286
v 45.8125 -55.6091 13.2714
v 47.8888 -55.6091 13.2714
v 11.7830 -41.5504 13.2714
v 23.1674 -46.7991 13.2714
v 37.8125 -52.4646 13.2714
v 50.8277 -47.2159 13.2714
v 9.8590 -31.2159 13.2714
v 29.9643 -24.0847 20.2121
v 39.1674 -27.7442 17.8046
v 54.4600 -32.8704 11.8463
v 65.2803 -26.6893 5.9843
v 13.2434 -22.0660 13.2714
v 24.7425 -17.1160 13.2133
v 39.1674 -15.2159 10.7625
v 54.1208 -15.7540 6.9618
v 65.2803 -21.4461 5.9843
v 30.1875 -6.3286 6.2145
v 39.1674 -6.2940 6.2294
v 48.0897 -6.8740 5.6056
v -130.4989 87.5088 7.7065
v -119.3319 87.0459 13.1325
v -106.3294 87.6912 12.0414
v -96.6100 88.5844 5.8880
v -131.2796 96.7841 7.9761
v -121.4237 96.7841 15.9761
v -101.9940 91.6338 16.5546
v -92.7760 96.8939 12.0414
v -130.4289 105.5519 6.4426
v -119.6061 108.1006 12.3741
v -105.3655 115.4436 12.7545
v -92.2294 112.5877 12.7545
v -100.3875 121.9020 7.0765
v -95.6990 121.9020 7.0765
v 29.4544 -55.5077 35.2408
v 39.0986 -55.3908 28.2979
v 47.2249 -55.2739 21.3550
v -17.9493 -44.3765 35.7631
v -8.8326 -45.1445 34.0814
v 7.2201 -43.8204 29.2244
v 23.7396 -50.9744 29.6530
v 39.1389 -50.0734 27.4266
v 47.2890 -47.2159 21.5659
v -17.9493 -38.1405 35.7631
v -8.8326 -36.9930 34.0814
v 7.6325 -31.7111 28.9799
v 24.0456 -27.2746 28.9686
v 39.2101 -35.0486 27.8569
v 47.2720 -39.0516 21.5805
v 13.3431 -22.0949 23.4334
v 19.2976 -22.0949 23.4334
v -112.9982 88.7136 21.3161
v -112.6606 88.7136 21.3161
v -113.4237 96.7841 21.5987
v -106.3294 96.8939 22.1295
v -95.3545 102.3005 22.2651
v -113.4551 105.3790 21.6631
v -104.8326 106.9847 22.3105
v -95.3545 107.1234 22.2651
v 29.4544 -55.5077 37.6792
v 31.5830 -55.5077 37.6792
v -17.9493 -44.3765 38.6045
v -8.8326 -45.1445 40.5960
v 6.8133 -44.5500 45.5312
v 23.7459 -47.6222 44.2114
v 33.5325 -47.2159 39.6814
v -17.9493 -38.1405 38.6045
v -8.8326 -36.9930 40.5960
v 6.8133 -35.3743 45.5312
v 23.2894 -35.1175 45.3547
v 33.9053 -36.8993 40.0769
v 11.9105 -41.8485 54.9676
v 18.0374 -41.8485 54.9676
v 11.9105 -37.1562 54.9676
v 18.0374 -37.1562 54.9676
f 3 2 1
f 3 4 2
f 9 5 8
f 9 6 5
f 2 11 1
f 2 12 11
f 13 7 12
f 13 8 7
f 14 8 13
f 14 9 8
f 14 10 9
f 14 15 10
f 16 1 11
f 16 3 1
f 17 12 2
f 17 2 4
f 4 3 16
f 4 16 17
f 18 12 17
f 18 13 12
f 18 14 13
f 18 19 14
f 20 14 19
f 20 15 14
f 23 22 21
f 23 24 22
f 25 24 23
f 25 26 24
f 6 27 5
f 6 28 27
f 32 5 27
f 32 8 5
f 8 31 7
f 8 32 31
f 33 28 6
f 33 6 9
f 10 33 9
f 10 34 33
f 33 29 28
f 33 34 29
f 35 29 34
f 35 30 29
f 37 7 31
f 37 12 7
f 12 36 11
f 12 37 36
f 38 37 31
f 38 31 32
f 39 34 10
f 39 10 15
f 39 35 34
f 39 40 35
f 42 11 36
f 42 16 11
f 17 16 42
f 17 42 43
f 43 42 36
f 43 36 37
f 18 17 43
f 18 43 44
f 43 37 38
f 43 38 44
f 19 18 44
f 19 44 45
f 39 15 20
f 39 20 46
f 20 19 45
f 20 45 46
f 47 39 46
f 47 40 39
f 47 41 40
f 47 48 41
f 49 46 45
f 49 50 46
f 22 51 21
f 22 52 51
f 51 23 21
f 51 53 23
f 52 22 24
f 52 24 54
f 53 51 52
f 53 52 54
f 53 25 23
f 53 56 25
f 54 24 26
f 54 26 57
f 26 25 56
f 26 56 57
f 57 55 54
f 57 58 55
f 60 56 59
f 60 57 56
f 28 61 27
f 28 62 61
f 29 62 28
f 29 63 62
f 64 29 30
f 64 63 29
f 61 32 27
f 61 66 32
f 67 66 61
f 67 61 62
f 69 64 30
f 69 30 35
f 68 63 64
f 68 64 69
f 71 32 66
f 71 38 32
f 71 65 70
f 71 66 65
f 69 35 40
f 69 40 73
f 72 68 69
f 72 69 73
f 74 40 41
f 74 73 40
f 71 44 38
f 71 76 44
f 75 71 70
f 75 76 71
f 77 45 44
f 77 44 76
f 47 46 78
f 47 78 79
f 80 48 47
f 80 47 79
f 79 73 74
f 79 74 80
f 77 49 45
f 77 82 49
f 81 77 76
f 81 82 77
f 78 46 50
f 78 50 83
f 83 50 49
f 83 49 82
f 89 84 88
f 89 85 84
f 89 86 85
f 89 90 86
f 91 53 54
f 91 90 53
f 90 87 86
f 90 91 87
f 92 54 55
f 92 91 54
f 93 89 88
f 93 94 89
f 90 56 53
f 90 95 56
f 95 89 94
f 95 90 89
f 92 55 58
f 92 58 97
f 58 57 96
f 58 96 97
f 96 91 92
f 96 92 97
f 95 59 56
f 95 98 59
f 96 57 60
f 96 60 99
f 99 60 59
f 99 59 98
f 101 62 63
f 101 100 62
f 103 65 66
f 103 102 65
f 100 67 62
f 100 104 67
f 67 103 66
f 67 104 103
f 101 63 68
f 101 68 105
f 102 70 65
f 102 106 70
f 105 68 72
f 105 72 109
f 110 72 73
f 110 109 72
f 106 75 70
f 106 111 75
f 112 76 75
f 112 75 111
f 113 112 107
f 113 107 108
f 114 113 108
f 114 108 109
f 110 73 79
f 110 79 115
f 115 79 78
f 115 78 114
f 114 109 110
f 114 110 115
f 116 76 112
f 116 81 76
f 117 82 81
f 117 81 116
f 116 112 113
f 116 113 117
f 114 78 83
f 114 83 118
f 118 83 82
f 118 82 117
f 118 117 113
f 118 113 114
f 85 119 84
f 85 120 119
f 121 85 86
f 121 120 85
f 122 86 87
f 122 121 86
f 123 84 119
f 123 88 84
f 124 123 119
f 124 119 120
f 126 122 87
f 126 87 91
f 125 121 122
f 125 122 126
f 127 88 123
f 127 93 88
f 94 93 127
f 94 127 128
f 127 123 124
f 127 124 128
f 95 94 128
f 95 128 129
f 130 126 91
f 130 91 96
f 131 95 129
f 131 98 95
f 132 130 96
f 132 96 99
f 99 98 131
f 99 131 132
f 132 131 129
f 132 129 130
f 135 100 101
f 135 134 100
f 139 102 103
f 139 138 102
f 134 104 100
f 134 140 104
f 140 103 104
f 140 139 103
f 140 133 139
f 140 134 133
f 141 135 101
f 141 101 105
f 140 134 135
f 140 135 141
f 142 137 136
f 142 143 137
f 144 102 138
f 144 106 102
f 143 138 137
f 143 144 138
f 146 108 107
f 146 107 145
f 147 141 105
f 147 105 109
f 147 109 108
f 147 108 146
f 147 146 140
f 147 140 141
f 148 106 144
f 148 111 106
f 149 145 107
f 149 107 112
f 149 112 111
f 149 111 148
f 148 144 145
f 148 145 149
f 151 120 121
f 151 150 120
f 150 124 120
f 150 152 124
f 151 121 125
f 151 125 153
f 152 150 151
f 152 151 153
f 154 125 126
f 154 153 125
f 155 124 152
f 155 128 124
f 129 128 155
f 129 155 156
f 155 152 153
f 155 153 156
f 154 126 130
f 154 130 157
f 157 130 129
f 157 129 156
f 156 153 154
f 156 154 157
f 159 133 134
f 159 158 133
f 137 160 136
f 137 161 160
f 162 137 138
f 162 161 137
f 158 139 133
f 158 163 139
f 163 138 139
f 163 162 138
f 159 134 140
f 159 140 164
f 164 163 158
f 164 158 159
f 160 142 136
f 160 165 142
f 143 142 165
f 143 165 166
f 165 160 161
f 165 161 166
f 167 144 143
f 167 143 166
f 166 161 162
f 166 162 167
f 168 145 144
f 168 144 167
f 164 140 146
f 164 146 169
f 169 146 145
f 169 145 168
f 169 168 163
f 169 163 164
f 171 162 163
f 171 170 162
f 170 167 162
f 170 172 167
f 171 163 168
f 171 168 173
f 173 168 167
f 173 167 172
