# parsimony mesh: cplx_CPLX0-10157 (source /Users/eranagmon/code/v2e-cplx/workspace/studies/ecoli-3d/viz/3d/structures/cplx_CPLX0-10157.pdb)
# atoms: 4066  voxel: 8 Å  verts: 660  tris: 1360
v 127.6415 -124.1715 -57.6991
v 128.4906 -124.1715 -57.6991
v 127.6415 -123.6777 -57.6991
v 128.4906 -123.6777 -57.6991
v -40.4236 43.7840 -57.7092
v -39.2591 43.7840 -57.7092
v -40.4236 44.0777 -57.7092
v -39.2591 44.0777 -57.7092
v 120.1866 -124.2089 -50.5915
v 124.7303 -124.3659 -53.3933
v 128.6618 -124.3336 -53.5961
v 119.6639 -120.0659 -50.8981
v 124.7636 -120.7760 -53.1308
v 128.6618 -123.1310 -53.5961
v 119.6076 -115.2011 -50.3367
v 121.8857 -115.2011 -50.3367
v -41.1589 43.3896 -53.5961
v -38.8582 43.3896 -53.5961
v -47.9578 50.7889 -50.0106
v -43.3445 47.5660 -52.0595
v -38.8582 45.1488 -53.5961
v -47.9578 52.3089 -50.0106
v -46.2586 52.3089 -50.0106
v 120.1866 -124.2089 -49.3067
v 124.3635 -124.3617 -49.1374
v 128.6342 -124.3173 -49.2739
v 118.9367 -119.8715 -46.2225
v 124.3986 -120.1414 -46.6237
v 128.6342 -123.2076 -49.2739
v 117.5616 -112.3470 -45.4119
v 122.6567 -112.3470 -45.4119
v 117.8948 -107.1364 -42.6224
v 121.4486 -107.1364 -42.6224
v -40.8793 43.3581 -48.8066
v -38.9761 43.3581 -48.8066
v -48.7226 49.9624 -45.5961
v -43.6642 48.0114 -46.9720
v -38.9761 45.4101 -48.8066
v -48.7226 53.4684 -45.5961
v -45.7530 53.4684 -45.5961
v 112.2475 -116.1187 -33.8118
v 115.7438 -116.5969 -36.9987
v 121.5782 -117.0751 -40.1855
v 103.3897 -109.0703 -34.4977
v 109.0939 -111.8686 -35.7552
v 115.4220 -112.0659 -37.6467
v 122.0884 -112.0659 -39.6746
v 103.3897 -105.8256 -34.4977
v 108.3635 -105.1501 -36.1333
v 115.7279 -106.7775 -38.2611
v 121.4486 -107.1364 -40.4447
v 103.9475 -84.6955 -33.7504
v 104.6476 -84.6955 -33.7504
v 80.2578 -76.2415 -33.7004
v 80.7971 -76.2415 -33.7004
v 103.9475 -83.3113 -33.7504
v 104.6476 -83.3113 -33.7504
v 80.2578 -75.8744 -33.7004
v 80.7971 -75.8744 -33.7004
v -56.2782 51.7425 -34.1015
v -51.5126 50.5787 -37.0994
v -46.3779 50.3835 -37.5961
v -57.7659 55.9341 -34.5191
v -51.6816 56.0097 -36.8781
v -46.3779 54.0476 -37.5961
v -57.8340 60.9712 -34.3214
v -54.6000 60.9712 -34.3214
v -63.7123 75.8192 -33.6268
v -63.5664 75.8192 -33.6268
v -63.7123 76.1250 -33.6268
v -63.5664 76.1250 -33.6268
v 112.2475 -116.1187 -33.5226
v 112.5691 -116.1187 -33.5226
v 103.3897 -109.0703 -32.4174
v 109.0939 -111.8686 -31.8077
v 113.4159 -112.0659 -32.2446
v 102.8931 -103.5319 -30.1252
v 107.0788 -103.4736 -29.8802
v 113.5611 -106.4185 -31.8676
v 94.6937 -94.0465 -26.6381
v 99.9834 -96.4543 -28.2859
v 105.5478 -96.0659 -28.1769
v 86.8922 -85.3172 -26.2060
v 92.1617 -88.0167 -27.2301
v 100.9139 -87.6437 -30.7867
v 105.2991 -87.6437 -29.5187
v 79.4550 -77.5189 -29.5961
v 83.8447 -79.7012 -29.2629
v 92.3635 -80.0659 -28.7503
v 100.9139 -80.4132 -31.1187
v 107.5216 -79.7022 -29.1055
v 112.3769 -76.0932 -25.6158
v 71.7155 -69.1810 -26.2130
v 77.0912 -72.5277 -28.8092
v 83.8237 -72.7510 -30.9375
v 92.3635 -72.0659 -30.2764
v 100.7017 -71.6878 -28.4840
v 108.3635 -74.5586 -26.8602
v 112.3769 -76.0197 -25.6158
v 71.7155 -67.0720 -26.2130
v 76.5216 -64.2696 -26.8083
v 84.3635 -64.0659 -28.6219
v 92.9302 -63.5371 -28.3829
v 98.2604 -65.8512 -27.6097
v 79.2936 -59.3966 -26.5235
v 84.3635 -59.0101 -26.9880
v 90.6414 -59.3275 -26.5246
v -56.2782 51.7425 -33.1904
v -51.6365 51.3527 -32.9434
v -47.0918 51.3504 -33.1316
v -57.7659 55.9341 -32.3153
v -51.8146 55.8223 -32.2927
v -47.0918 53.0812 -33.1316
v -64.9948 66.0776 -26.8643
v -60.1497 63.5244 -29.5792
v -54.6000 60.9712 -32.2942
v -72.9349 74.4819 -26.6754
v -67.0202 72.4839 -29.4365
v -62.3748 72.6652 -29.5571
v -81.4560 83.0209 -26.9986
v -75.6155 80.1862 -27.7330
v -66.8820 79.2486 -31.0024
v -61.9023 79.2486 -29.7070
v -87.7743 91.4613 -25.7215
v -83.9282 88.4504 -27.9585
v -75.6365 87.9341 -30.5840
v -67.6365 87.9341 -29.9164
v -59.2612 87.5376 -27.8399
v -54.8007 89.9400 -26.4141
v -88.9752 95.9341 -26.2120
v -83.6365 95.9341 -28.8593
v -75.6365 95.9341 -30.7483
v -67.0844 96.5338 -28.4422
v -59.6365 94.2500 -27.2624
v -54.8007 92.6891 -26.4141
v -89.2836 102.2466 -26.2919
v -83.5124 104.5216 -26.7575
v -75.6365 103.9341 -28.1998
v -69.6462 103.9341 -27.2700
v -80.7629 107.9986 -25.7156
v -75.6365 108.1772 -26.1739
v -71.2361 108.1937 -26.2470
v 102.3966 -101.2383 -24.1350
v 105.3659 -101.2383 -24.1350
v 88.1733 -92.2928 -18.3298
v 92.1617 -94.1004 -21.2363
v 99.9834 -97.3900 -21.5194
v 105.3854 -95.4917 -21.5194
v 78.9300 -84.4635 -19.0534
v 84.8661 -87.5570 -21.3582
v 89.3604 -90.6505 -23.6631
v 106.5344 -88.0659 -21.5961
v 71.0137 -77.8538 -18.7538
v 76.4273 -80.5074 -21.5703
v 81.5589 -83.1610 -24.3867
v 109.2240 -79.2823 -22.3829
v 112.3769 -76.0932 -25.5741
v 70.4271 -71.9350 -21.4908
v 73.9245 -74.5143 -24.0872
v 103.5937 -68.7691 -24.9313
v 107.6876 -72.3944 -22.5860
v 112.3769 -76.0197 -25.5741
v 70.9554 -65.4053 -21.5961
v 73.7449 -61.4053 -21.5961
v 87.6388 -60.5874 -18.0036
v 92.9302 -62.0832 -21.0406
v 100.7017 -66.1316 -21.9972
v 105.1048 -67.3347 -19.5979
v 77.7449 -59.1150 -21.5961
v 84.7287 -58.8622 -21.0406
v 90.6414 -59.3275 -23.3370
v -64.9948 66.0776 -23.3133
v -62.4653 66.0776 -23.3133
v -74.4546 72.8481 -21.5961
v -67.6514 69.0290 -21.0264
v -61.8486 71.4977 -21.0264
v -96.1364 83.7093 -17.8946
v -91.6365 83.2494 -19.3116
v -83.9282 81.4955 -21.9894
v -78.4546 77.4020 -21.5961
v -58.1760 80.5403 -21.3042
v -55.5349 83.6111 -18.4429
v -96.6556 87.9341 -18.5556
v -90.9192 88.4504 -22.7570
v -86.7893 86.1279 -24.9183
v -56.8711 87.0476 -21.5320
v -55.1678 87.0476 -21.5320
v -96.5068 95.9341 -19.1132
v -92.9752 95.9341 -23.1132
v -65.5617 99.2985 -21.5961
v -59.8932 95.0787 -21.8112
v -54.8007 92.6891 -24.6212
v -95.9381 100.3945 -18.6380
v -91.8247 103.1143 -21.4213
v -83.5124 107.0939 -22.0843
v -75.6365 105.2914 -20.9567
v -69.7364 103.1641 -22.1964
v -80.7629 107.9986 -25.0764
v -75.6365 108.1772 -24.9567
v -71.2361 108.1937 -25.2633
v 88.1733 -92.2928 -17.3428
v 92.3635 -93.1236 -16.4455
v 100.3635 -93.2356 -16.4953
v 104.4877 -92.4422 -17.4092
v 63.6435 -84.5225 -10.6455
v 68.3635 -84.7033 -11.4274
v 76.3034 -84.9537 -13.6316
v 85.1499 -87.2757 -13.9305
v 92.0345 -88.1100 -12.4288
v 100.3635 -89.3786 -12.4953
v 105.4514 -87.4720 -14.2840
v 63.0439 -80.0659 -11.4454
v 68.3536 -80.3386 -15.1110
v 73.5967 -83.1871 -16.3219
v 87.4599 -83.0748 -10.5181
v 89.1484 -83.0748 -10.5181
v 106.2012 -80.0659 -13.5961
v 63.2508 -72.0659 -11.2620
v 66.4290 -72.0659 -15.2620
v 96.2094 -68.1745 -10.0038
v 100.3635 -69.8574 -11.0914
v 105.2651 -72.6340 -13.7478
v 63.9193 -67.6230 -10.4010
v 68.4259 -65.8851 -13.2791
v 75.7106 -62.3816 -13.9562
v 84.7287 -62.5928 -13.9562
v 93.0711 -66.1953 -13.0407
v 100.3635 -67.3090 -15.0914
v 105.1048 -67.3347 -16.5155
v 77.9420 -59.4674 -16.8629
v 82.3055 -59.4674 -16.8629
v -74.0955 73.2716 -15.9949
v -67.6365 72.3918 -15.3953
v -62.6893 73.8735 -16.2629
v -104.2589 83.3789 -10.4835
v -99.1364 82.9782 -13.3285
v -91.6365 81.8025 -13.5961
v -83.6365 80.5239 -13.5961
v -76.3119 78.2304 -13.4354
v -67.6365 77.5127 -11.3953
v -60.0127 80.2068 -14.1771
v -55.5349 83.6111 -17.4247
v -104.1125 87.9341 -10.2810
v -100.6556 87.9341 -14.2810
v -58.9220 87.2668 -14.2933
v -55.5349 84.1552 -17.4247
v -103.6487 91.9809 -9.6220
v -99.9345 95.1621 -12.8117
v -67.0294 98.1169 -13.5961
v -62.4686 94.1169 -13.5961
v -96.3648 100.4355 -13.5961
v -91.6365 102.5110 -13.5961
v -83.6365 103.7242 -13.5961
v -75.6365 101.8225 -13.5961
v -71.0294 100.1078 -13.5961
v 56.1135 -84.4401 -1.9645
v 60.7315 -85.3236 -5.0172
v 68.0715 -85.3352 -6.0096
v 76.6965 -85.0002 -6.0096
v 82.1413 -84.9388 -5.5961
v 94.4817 -85.4727 -6.9329
v 100.3635 -85.3786 -6.7750
v 104.5573 -84.4094 -8.4978
v 56.1135 -83.0793 -1.9645
v 59.2309 -80.2740 -5.0172
v 70.0408 -80.0659 -3.8895
v 75.4795 -80.0659 -3.8895
v 85.3285 -80.2713 -5.2944
v 91.7037 -80.9023 -4.6798
v 100.9502 -80.8642 -3.2275
v 104.6496 -80.0659 -7.6328
v 62.5964 -72.2486 -5.7801
v 68.3973 -72.2486 -4.4205
v 76.9234 -72.5601 -4.0018
v 83.9063 -72.5601 -3.4055
v 92.5676 -71.4259 -5.2995
v 100.9502 -73.4659 -5.4845
v 104.5513 -75.6793 -8.0767
v 63.9193 -67.6230 -8.5695
v 68.3635 -67.2550 -8.3500
v 76.3635 -66.8756 -7.8267
v 84.3635 -66.8334 -7.2350
v 90.8761 -67.3714 -8.1725
v -104.1582 75.7192 -1.8747
v -103.3612 75.7192 -1.8747
v -105.2702 80.4009 -4.9633
v -100.0258 80.5832 -4.9596
v -91.2376 82.5942 -5.4652
v -84.1432 82.9144 -6.1010
v -75.2411 82.7256 -6.1010
v -67.6365 80.6508 -5.5961
v -62.4991 81.9517 -5.5961
v -105.9965 87.9341 -5.5961
v -96.6904 85.0084 -2.7112
v -93.6384 85.0084 -2.7112
v -81.8144 86.1357 -3.7710
v -77.6442 86.1357 -3.7710
v -63.7497 91.7566 -1.7125
v -62.3356 88.6276 -4.8660
v -104.3457 92.6111 -5.5961
v -99.2382 96.1609 -6.2351
v -91.6365 96.5728 -5.0806
v -83.6365 96.2732 -4.5610
v -75.6365 96.8579 -4.6346
v -67.5449 95.3906 -5.4939
v -62.9848 92.6914 -7.0458
v -96.3060 100.1422 -9.3278
v -91.6365 100.2701 -9.0806
v -83.6365 100.5088 -8.5610
v -75.6365 100.4651 -8.6346
v -71.3400 100.1157 -9.2753
v 54.3013 -92.8285 5.5201
v 57.7323 -92.8285 5.5201
v 53.9560 -87.4904 2.6736
v 60.9002 -87.5524 3.0595
v 65.2102 -85.3315 0.5990
v 79.5851 -84.5411 -1.1814
v 80.9709 -84.5411 -1.1814
v 54.7932 -80.2740 2.2362
v 60.8184 -80.7476 2.6950
v 68.1484 -80.3538 2.6833
v 76.7350 -78.7342 1.3534
v 81.2474 -80.0659 -1.2072
v 94.2591 -78.7297 -0.5908
v 98.6746 -78.7297 -0.5908
v 55.6967 -74.6324 4.7911
v 60.1856 -72.1681 2.2769
v 68.2994 -72.3263 2.2651
v 76.5195 -75.2526 1.6377
v 80.9347 -75.5562 -1.4923
v 94.2591 -74.6774 -0.5908
v 98.6746 -74.6774 -0.5908
v 62.8026 -67.1535 5.0960
v 65.5122 -67.1535 5.0960
v -119.7998 75.6746 6.2291
v -115.6365 74.8724 5.3828
v -107.1495 74.7391 2.4918
v -102.9627 75.3073 2.4039
v -119.7998 76.2003 6.2291
v -114.9944 79.2938 5.1807
v -109.2118 79.9341 1.0060
v -100.4711 79.9341 2.4039
v -88.3051 83.6303 -1.3781
v -87.1478 83.6303 -1.3781
v -72.3108 83.6297 -1.3558
v -67.6365 83.0721 -1.0770
v -63.0870 83.0891 -1.1444
v -111.8997 85.4132 5.7267
v -109.7298 88.0215 2.7976
v -97.1448 85.3176 2.4039
v -91.3166 87.5231 1.2064
v -84.1432 88.4551 -1.3462
v -75.2411 88.4551 -0.9757
v -66.9044 88.6276 -0.7915
v -63.0870 86.4233 -1.1444
v -106.0383 95.6476 2.6509
v -99.7221 96.9269 2.6509
v -91.6515 93.2391 1.6361
v -83.6365 92.2732 -1.4472
v -75.6365 92.8579 -1.0008
v -69.0831 92.7565 -0.9472
v -104.3958 100.5747 5.4822
v -102.4458 100.5747 5.4822
v 47.4194 -93.1250 12.2447
v 51.9262 -93.3967 9.9083
v 57.6077 -92.9351 10.4039
v 47.0098 -88.0659 11.7491
v 49.5416 -88.0659 7.7491
v 60.2524 -88.0659 10.4039
v 71.0530 -84.5077 13.8478
v 72.7057 -84.5077 13.8478
v 47.5027 -82.9116 13.0233
v 51.4495 -80.1733 10.3755
v 63.0083 -83.0901 10.4039
v 68.3772 -82.2208 10.8702
v 73.5373 -79.8014 10.8702
v 55.4879 -72.0058 10.8313
v 57.4693 -69.2991 8.4496
v 71.1244 -69.2959 10.4039
v 73.5741 -73.2959 10.4039
v 56.0606 -67.8962 13.7830
v 60.2270 -67.1682 10.8313
v 67.1244 -67.0710 10.4039
v -120.0216 74.8251 10.4039
v -115.6365 72.6633 10.4039
v -107.6074 73.8322 10.3091
v -103.0134 75.3133 7.5792
v -120.0216 77.5303 10.4039
v -114.9944 81.9921 11.1166
v -107.6074 80.7151 12.9849
v -100.0573 81.1860 10.4130
v -94.7241 82.8552 12.6447
v -112.1970 87.3613 10.5747
v -109.1980 87.2152 10.8097
v -99.7723 84.7199 10.4935
v -93.4785 87.5963 10.1483
v -112.4943 93.4554 12.2243
v -107.8379 96.0254 10.0626
v -99.7221 97.5293 10.5022
v -93.6233 93.9322 10.4039
v -104.3958 100.5747 7.9010
v -102.4458 100.5747 7.9010
v 56.2671 -100.2636 22.2638
v 60.3635 -100.5561 21.9305
v 68.3635 -100.6260 21.7945
v 74.2605 -100.3568 22.0825
v 47.4194 -93.1250 16.0696
v 54.0365 -95.7995 19.1138
v 58.7736 -95.7199 19.3323
v 67.8933 -95.7900 21.5163
v 76.7017 -96.6082 21.3261
v 84.3635 -94.5690 20.8536
v 92.3635 -93.5341 20.9229
v 100.3635 -93.1022 21.6238
v 104.9006 -92.5904 22.0795
v 46.8795 -88.1584 18.6033
v 52.3635 -90.7670 20.7513
v 58.3055 -88.5344 18.4824
v 69.6012 -87.5310 18.8038
v 75.4022 -87.8673 18.9997
v 84.3635 -90.8950 20.8536
v 92.3635 -91.0434 20.9229
v 100.3635 -91.2120 21.6238
v 108.5832 -87.8707 22.2194
v 112.4253 -84.1730 22.3593
v 47.1213 -80.1733 18.5431
v 50.5407 -77.5782 15.9693
v 62.5734 -82.0714 18.4039
v 66.4984 -82.0714 18.4039
v 74.5483 -80.0659 18.4039
v 112.2658 -83.2803 22.3593
v 112.4253 -83.2803 22.3593
v 47.8225 -75.4684 21.3027
v 53.3006 -71.9163 18.6415
v 60.3635 -70.0524 20.1013
v 69.0830 -70.5685 18.0159
v 73.9904 -73.4313 18.4039
v 56.0606 -67.8962 15.9803
v 60.3635 -67.6281 16.1013
v 66.8960 -67.6518 15.0906
v -105.1274 66.2156 21.2591
v -99.6365 66.1757 21.2026
v -91.6365 66.9593 21.4305
v -85.5575 67.2605 21.5630
v -119.9866 74.7150 15.3951
v -115.2476 73.8128 18.1986
v -108.1115 71.9585 19.6275
v -99.6365 70.3573 21.2026
v -90.9219 72.4487 21.6205
v -83.1891 72.5409 21.8688
v -78.7974 75.6122 22.3608
v -64.9327 75.5239 22.3410
v -63.2869 75.5239 22.3410
v -119.8713 80.6068 18.2535
v -116.5015 81.0686 17.7250
v -108.1119 80.9402 17.5816
v -100.0251 81.4939 18.1871
v -91.1027 79.0464 20.1148
v -83.6365 75.9814 22.3657
v -78.7974 75.9574 22.3608
v -64.9327 75.9916 22.3410
v -63.2869 75.9916 22.3410
v -119.7560 84.5096 21.1120
v -115.4156 86.9095 17.7829
v -107.6365 84.5667 15.1704
v -99.3439 88.2898 18.8481
v -93.1782 88.6802 19.1537
v -113.3052 93.8190 18.4039
v -107.6365 95.5712 18.4039
v -98.8967 94.1402 19.1537
v -94.2605 93.2747 16.9869
v 53.7849 -109.0858 29.0233
v 57.9576 -109.0858 29.0233
v 55.0260 -103.3249 25.8637
v 59.7631 -102.8587 26.9988
v 67.7650 -100.7981 26.0144
v 74.2605 -100.3568 23.0881
v 56.2671 -99.3222 22.7041
v 60.8464 -98.4069 25.7840
v 67.4729 -96.3886 25.8524
v 76.7017 -96.6082 24.0955
v 84.3635 -94.5690 24.4888
v 92.3635 -93.5341 25.1191
v 99.8970 -93.4356 26.8616
v 106.5185 -93.1351 26.4039
v 47.6461 -85.5458 26.4039
v 52.3635 -88.2713 26.4039
v 60.6385 -86.5443 26.4093
v 68.0502 -87.3116 26.1814
v 75.6499 -87.9772 26.1381
v 84.3635 -90.8950 24.4888
v 92.3635 -91.0434 25.1191
v 99.8970 -90.7168 26.8616
v 109.0281 -88.3601 26.4039
v 113.0151 -85.8598 26.4039
v 47.4649 -80.4153 26.2200
v 52.3635 -78.3535 28.4809
v 61.7028 -80.1688 26.1667
v 65.8868 -80.2854 25.9226
v 76.0065 -80.0659 26.4039
v 110.8242 -80.3946 25.8526
v 113.2872 -80.3946 25.8526
v 47.8225 -75.4684 23.4308
v 52.3635 -73.8414 24.4809
v 60.3635 -74.0524 23.9819
v 68.4972 -74.2757 25.8209
v 77.2354 -71.8299 28.0937
v 84.3635 -69.3970 29.9048
v 92.3635 -69.4702 29.6386
v 100.3635 -69.7860 29.4301
v 108.4477 -71.9310 28.8345
v 113.0342 -74.3837 28.1518
v 80.1134 -67.7823 30.3469
v 84.3635 -67.3104 29.9048
v 92.3635 -66.2725 29.6386
v 100.3635 -66.2750 29.4301
v 105.9963 -67.3455 29.5173
v -113.3393 58.4544 28.8712
v -107.6365 58.5015 28.3726
v -101.7187 59.5036 29.2281
v -113.3393 60.9369 28.8712
v -106.5611 63.6216 26.6059
v -100.5288 64.0663 26.5555
v -91.6365 66.9593 23.7860
v -85.5575 67.2605 23.2304
v -112.7264 74.9141 26.4039
v -108.2923 72.3683 25.4810
v -99.6365 70.3573 24.5510
v -90.9219 72.4487 23.5183
v -83.1891 72.5409 22.9885
v -78.7974 75.6122 22.5371
v -64.9327 75.5239 23.0486
v -60.5394 75.3178 25.8382
v -54.8319 75.1116 28.6277
v -119.7560 83.4176 23.3984
v -116.9472 80.4242 26.2006
v -106.6660 78.6591 26.4039
v -99.6365 80.0733 26.4039
v -90.4299 79.0449 24.6958
v -83.6365 75.9814 22.5147
v -78.7974 75.9574 22.5371
v -64.9327 75.9916 23.0486
v -60.0632 78.2444 25.5519
v -53.7855 79.9341 27.4294
v -119.7560 84.5096 23.3984
v -116.0190 87.4782 26.0273
v -107.6365 89.7263 28.0128
v -98.9888 91.1609 25.7307
v -91.7793 88.6802 25.6604
v -72.3716 91.7420 30.1245
v -67.6365 91.3850 29.7100
v -59.1504 88.4101 28.0109
v -53.4071 87.9341 27.8970
v -113.0036 92.9259 23.3228
v -107.6365 93.4342 24.0128
v -98.9888 92.9087 25.7307
v -90.5705 96.3837 29.1161
v -83.6365 99.5946 30.3106
v -75.5118 96.4619 30.2035
v -67.6365 94.9091 29.7100
v -59.6365 95.0820 29.0549
v -54.3273 93.6314 29.2511
v -87.6421 99.9662 30.4008
v -83.6365 100.0386 30.3106
v -78.6520 100.0413 30.2825
v 53.7849 -109.0858 31.5526
v 57.9576 -109.0858 31.5526
v 53.7849 -106.3863 31.5526
v 60.8963 -103.4629 31.0410
v 64.6993 -100.5394 30.5295
v 63.8350 -99.8379 30.5295
v 64.6993 -99.8379 30.5295
v 102.2526 -92.9670 31.2767
v 106.6999 -92.9670 31.2767
v 48.0753 -84.5517 30.8268
v 52.3635 -85.5702 31.1321
v 60.3635 -85.5783 31.1050
v 68.6240 -85.3485 33.8359
v 74.8568 -85.2967 34.4039
v 102.2526 -90.9560 31.2767
v 109.0300 -88.6534 31.2056
v 113.1705 -86.3507 31.1345
v 48.0753 -83.3149 30.8268
v 52.3635 -82.3535 31.1321
v 60.3635 -82.5022 31.1050
v 67.2422 -80.5343 33.8359
v 77.9567 -80.0659 34.4039
v 110.5126 -80.0659 31.5805
v 113.4718 -80.0659 31.5805
v 70.7835 -71.8273 34.4934
v 77.4563 -71.1004 33.3249
v 83.5765 -69.1476 34.4612
v 92.3635 -69.4702 32.4440
v 100.3635 -69.7860 32.1892
v 108.4477 -71.9310 31.3675
v 113.0342 -74.3837 31.2420
v 72.0333 -67.6085 37.2197
v 77.0135 -67.6149 34.4934
v 83.5765 -67.4551 34.4612
v 92.3635 -66.2725 32.4440
v 100.3635 -66.2750 32.1892
v 105.9963 -67.3455 31.4931
v -113.3393 58.4544 31.3671
v -107.6365 58.5015 31.3874
v -101.7187 59.5036 30.7520
v -113.3393 60.9369 31.3671
v -107.6365 61.6760 31.3874
v -101.7187 61.2538 30.7520
v -112.4045 75.1641 30.9702
v -110.6765 75.1641 30.9702
v -57.7919 75.1116 31.1090
v -54.8319 75.1116 31.1090
v -113.7609 79.9341 31.3922
v -107.8605 80.0878 31.6193
v -99.0276 82.3072 34.0286
v -90.9472 82.4164 33.7099
v -86.9324 83.0389 35.9139
v -57.6455 79.9341 31.3720
v -53.7855 79.9341 31.3720
v -113.7011 85.1136 31.1552
v -107.6365 85.7263 31.4984
v -99.9162 87.8601 34.0286
v -88.1716 87.9341 31.8609
v -86.8427 87.9341 35.8609
v -72.3716 91.7420 31.1182
v -67.6365 91.3850 31.4831
v -59.1504 88.4101 32.0455
v -53.4071 87.9341 31.9124
v -96.7473 93.0024 34.4039
v -89.8370 95.7364 33.0782
v -84.9831 96.7854 35.0782
v -75.8213 96.6577 32.9957
v -67.6365 94.9091 31.4831
v -59.6365 95.0820 32.0166
v -54.3273 93.6314 31.8296
v -87.6421 99.9662 30.4362
v -83.6036 100.1920 33.6233
v -78.4086 100.2324 34.4039
v 71.4643 -85.0456 39.5875
v 74.8502 -85.0456 39.5875
v 70.7948 -80.0659 40.6442
v 75.5655 -80.0659 40.6442
v 71.2215 -72.0659 40.6001
v 76.6331 -71.2827 40.1639
v 80.3851 -68.0939 38.4090
v 72.0333 -67.6085 39.5287
v 76.3635 -67.7148 39.2514
v 80.3851 -68.0552 38.4090
v -95.9550 83.3821 38.9814
v -91.6365 82.8487 39.5214
v -86.9324 83.0389 39.3164
v -96.0330 87.9341 39.4914
v -91.6365 87.9341 40.3222
v -86.8427 87.9341 39.2347
v -95.8467 92.4177 39.2763
v -91.6365 92.8643 39.2046
v -84.0986 95.9621 38.6010
v -78.9837 99.2335 38.6030
v -80.9151 100.2247 38.6030
v -78.9837 100.2247 38.6030
f 3 2 1
f 3 4 2
f 7 6 5
f 7 8 6
f 11 1 2
f 11 10 1
f 10 3 1
f 10 13 3
f 13 9 12
f 13 10 9
f 11 2 4
f 11 4 14
f 14 4 3
f 14 3 13
f 16 12 15
f 16 13 12
f 18 5 6
f 18 17 5
f 17 7 5
f 17 20 7
f 18 6 8
f 18 8 21
f 21 8 7
f 21 7 20
f 23 19 22
f 23 20 19
f 25 9 10
f 25 24 9
f 26 10 11
f 26 25 10
f 24 12 9
f 24 27 12
f 28 27 24
f 28 24 25
f 29 26 11
f 29 11 14
f 29 14 13
f 29 13 28
f 29 28 25
f 29 25 26
f 27 15 12
f 27 30 15
f 28 13 16
f 28 16 31
f 31 16 15
f 31 15 30
f 33 30 32
f 33 31 30
f 18 34 17
f 18 35 34
f 34 20 17
f 34 37 20
f 37 19 20
f 37 36 19
f 35 18 21
f 35 21 38
f 38 21 20
f 38 20 37
f 38 37 34
f 38 34 35
f 36 22 19
f 36 39 22
f 37 20 23
f 37 23 40
f 40 23 22
f 40 22 39
f 43 27 28
f 43 42 27
f 42 30 27
f 42 46 30
f 46 41 45
f 46 42 41
f 43 28 31
f 43 31 47
f 47 46 42
f 47 42 43
f 49 44 48
f 49 45 44
f 46 32 30
f 46 50 32
f 50 45 49
f 50 46 45
f 47 31 33
f 47 33 51
f 51 33 32
f 51 32 50
f 51 50 46
f 51 46 47
f 56 53 52
f 56 57 53
f 58 55 54
f 58 59 55
f 62 36 37
f 62 61 36
f 61 39 36
f 61 64 39
f 64 60 63
f 64 61 60
f 62 37 40
f 62 40 65
f 65 40 39
f 65 39 64
f 67 63 66
f 67 64 63
f 70 69 68
f 70 71 69
f 73 41 42
f 73 72 41
f 75 41 72
f 75 45 41
f 75 44 45
f 75 74 44
f 73 42 46
f 73 46 76
f 76 75 72
f 76 72 73
f 74 48 44
f 74 77 48
f 78 49 48
f 78 48 77
f 78 77 74
f 78 74 75
f 79 76 46
f 79 46 50
f 79 50 49
f 79 49 78
f 79 78 75
f 79 75 76
f 82 77 81
f 82 78 77
f 85 80 84
f 85 81 80
f 86 52 53
f 86 85 52
f 85 82 81
f 85 86 82
f 55 87 54
f 55 88 87
f 89 83 88
f 89 84 83
f 90 52 85
f 90 56 52
f 89 85 84
f 89 90 85
f 86 53 57
f 86 57 91
f 57 56 90
f 57 90 91
f 87 58 54
f 87 94 58
f 95 88 55
f 95 55 59
f 95 59 58
f 95 58 94
f 95 89 88
f 95 96 89
f 97 89 96
f 97 90 89
f 98 90 97
f 98 91 90
f 98 92 91
f 98 99 92
f 101 93 100
f 101 94 93
f 102 94 101
f 102 95 94
f 102 96 95
f 102 103 96
f 104 96 103
f 104 97 96
f 105 102 101
f 105 106 102
f 107 102 106
f 107 103 102
f 109 60 61
f 109 108 60
f 110 61 62
f 110 109 61
f 108 63 60
f 108 111 63
f 112 111 108
f 112 108 109
f 110 62 65
f 110 65 113
f 113 65 64
f 113 64 112
f 113 112 109
f 113 109 110
f 111 66 63
f 111 115 66
f 112 64 67
f 112 67 116
f 116 67 66
f 116 66 115
f 116 115 111
f 116 111 112
f 119 68 69
f 119 118 68
f 119 114 118
f 119 115 114
f 122 68 118
f 122 70 68
f 122 117 121
f 122 118 117
f 123 119 69
f 123 69 71
f 71 70 122
f 71 122 123
f 126 120 125
f 126 121 120
f 127 121 126
f 127 122 121
f 127 123 122
f 127 128 123
f 131 124 130
f 131 125 124
f 131 126 125
f 131 132 126
f 132 127 126
f 132 133 127
f 134 127 133
f 134 128 127
f 134 129 128
f 134 135 129
f 136 131 130
f 136 137 131
f 138 131 137
f 138 132 131
f 139 132 138
f 139 133 132
f 140 138 137
f 140 141 138
f 142 138 141
f 142 139 138
f 144 77 78
f 144 143 77
f 143 81 77
f 143 147 81
f 147 80 81
f 147 146 80
f 144 78 82
f 144 82 148
f 148 147 143
f 148 143 144
f 151 80 146
f 151 84 80
f 151 83 84
f 151 150 83
f 151 145 150
f 151 146 145
f 152 148 82
f 152 82 86
f 155 83 150
f 155 88 83
f 155 87 88
f 155 154 87
f 155 149 154
f 155 150 149
f 152 86 91
f 152 91 156
f 92 156 91
f 92 157 156
f 159 87 154
f 159 94 87
f 159 93 94
f 159 158 93
f 159 153 158
f 159 154 153
f 98 97 160
f 98 160 161
f 157 92 99
f 157 99 162
f 162 99 98
f 162 98 161
f 162 161 156
f 162 156 157
f 163 93 158
f 163 100 93
f 164 101 100
f 164 100 163
f 160 97 104
f 160 104 167
f 104 103 166
f 104 166 167
f 168 160 167
f 168 161 160
f 169 101 164
f 169 105 101
f 170 106 105
f 170 105 169
f 166 103 107
f 166 107 171
f 171 107 106
f 171 106 170
f 171 170 165
f 171 165 166
f 173 114 115
f 173 172 114
f 175 114 172
f 175 118 114
f 175 117 118
f 175 174 117
f 173 115 119
f 173 119 176
f 175 172 173
f 175 173 176
f 180 117 174
f 180 121 117
f 180 120 121
f 180 179 120
f 176 119 123
f 176 123 181
f 183 178 177
f 183 184 178
f 185 120 179
f 185 125 120
f 185 124 125
f 185 184 124
f 185 178 184
f 185 179 178
f 181 123 128
f 181 128 186
f 129 186 128
f 129 187 186
f 186 182 181
f 186 187 182
f 189 124 184
f 189 130 124
f 189 183 188
f 189 184 183
f 134 133 190
f 134 190 191
f 192 187 129
f 192 129 135
f 192 135 134
f 192 134 191
f 192 191 186
f 192 186 187
f 189 136 130
f 189 194 136
f 193 189 188
f 193 194 189
f 195 137 136
f 195 136 194
f 190 133 139
f 190 139 197
f 195 140 137
f 195 198 140
f 199 141 140
f 199 140 198
f 198 195 196
f 198 196 199
f 200 197 139
f 200 139 142
f 200 142 141
f 200 141 199
f 200 199 196
f 200 196 197
f 202 145 146
f 202 201 145
f 203 146 147
f 203 202 146
f 148 203 147
f 148 204 203
f 201 150 145
f 201 208 150
f 208 149 150
f 208 207 149
f 209 208 201
f 209 201 202
f 210 209 202
f 210 202 203
f 204 148 152
f 204 152 211
f 210 203 204
f 210 204 211
f 212 206 205
f 212 213 206
f 214 149 207
f 214 154 149
f 214 153 154
f 214 213 153
f 214 206 213
f 214 207 206
f 216 215 208
f 216 208 209
f 217 211 152
f 217 152 156
f 219 153 213
f 219 158 153
f 219 212 218
f 219 213 212
f 222 217 156
f 222 156 161
f 219 163 158
f 219 224 163
f 223 219 218
f 223 224 219
f 225 164 163
f 225 163 224
f 227 166 165
f 227 165 226
f 228 167 166
f 228 166 227
f 228 227 220
f 228 220 221
f 222 161 168
f 222 168 229
f 168 167 228
f 168 228 229
f 228 221 222
f 228 222 229
f 230 164 225
f 230 169 164
f 231 226 165
f 231 165 170
f 231 170 169
f 231 169 230
f 231 230 225
f 231 225 226
f 175 232 174
f 175 233 232
f 176 233 175
f 176 234 233
f 237 177 178
f 237 236 177
f 238 178 179
f 238 237 178
f 232 180 174
f 232 239 180
f 180 238 179
f 180 239 238
f 240 239 232
f 240 232 233
f 234 176 181
f 234 181 241
f 240 233 234
f 240 234 241
f 242 181 182
f 242 241 181
f 244 177 236
f 244 183 177
f 244 235 243
f 244 236 235
f 246 242 182
f 246 182 187
f 246 187 186
f 246 186 245
f 245 241 242
f 245 242 246
f 248 183 244
f 248 188 183
f 247 244 243
f 247 248 244
f 245 186 191
f 245 191 250
f 250 191 190
f 250 190 249
f 251 188 248
f 251 193 188
f 252 194 193
f 252 193 251
f 253 195 194
f 253 194 252
f 196 195 253
f 196 253 254
f 255 249 190
f 255 190 197
f 255 197 196
f 255 196 254
f 258 205 206
f 258 257 205
f 259 206 207
f 259 258 206
f 260 207 208
f 260 259 207
f 210 261 209
f 210 262 261
f 263 210 211
f 263 262 210
f 265 205 257
f 265 212 205
f 264 257 256
f 264 265 257
f 266 258 259
f 266 259 267
f 260 208 215
f 260 215 268
f 261 216 209
f 261 269 216
f 216 268 215
f 216 269 268
f 270 269 261
f 270 261 262
f 263 211 217
f 263 217 271
f 271 270 262
f 271 262 263
f 272 212 265
f 272 218 212
f 274 273 266
f 274 266 267
f 276 275 268
f 276 268 269
f 277 221 220
f 277 220 276
f 278 271 217
f 278 217 222
f 278 222 221
f 278 221 277
f 277 270 271
f 277 271 278
f 279 218 272
f 279 223 218
f 280 224 223
f 280 223 279
f 279 272 273
f 279 273 280
f 281 225 224
f 281 224 280
f 281 280 273
f 281 273 274
f 226 225 281
f 226 281 282
f 282 281 274
f 282 274 275
f 283 276 220
f 283 220 227
f 283 227 226
f 283 226 282
f 282 275 276
f 282 276 283
f 287 235 236
f 287 286 235
f 286 285 284
f 286 287 285
f 288 236 237
f 288 287 236
f 289 237 238
f 289 288 237
f 290 238 239
f 290 289 238
f 240 290 239
f 240 291 290
f 292 240 241
f 292 291 240
f 293 235 286
f 293 243 235
f 294 287 288
f 294 288 295
f 297 296 289
f 297 289 290
f 292 241 245
f 292 245 299
f 293 247 243
f 293 300 247
f 301 248 247
f 301 247 300
f 306 299 245
f 306 245 250
f 306 250 249
f 306 249 305
f 306 305 298
f 306 298 299
f 307 248 301
f 307 251 248
f 308 252 251
f 308 251 307
f 307 301 302
f 307 302 308
f 309 253 252
f 309 252 308
f 309 308 302
f 309 302 303
f 254 253 309
f 254 309 310
f 309 303 304
f 309 304 310
f 311 305 249
f 311 249 255
f 311 255 254
f 311 254 310
f 311 310 304
f 311 304 305
f 315 256 257
f 315 314 256
f 314 313 312
f 314 315 313
f 316 257 258
f 316 315 257
f 260 317 259
f 260 318 317
f 319 256 314
f 319 264 256
f 320 265 264
f 320 264 319
f 316 258 266
f 316 266 321
f 320 315 316
f 320 316 321
f 317 267 259
f 317 322 267
f 323 318 260
f 323 260 268
f 323 322 317
f 323 317 318
f 270 324 269
f 270 325 324
f 327 265 320
f 327 272 265
f 326 320 319
f 326 327 320
f 328 321 266
f 328 266 273
f 328 273 272
f 328 272 327
f 329 267 322
f 329 274 267
f 329 321 328
f 329 322 321
f 330 323 268
f 330 268 275
f 330 275 274
f 330 274 329
f 330 329 322
f 330 322 323
f 331 269 324
f 331 276 269
f 332 325 270
f 332 270 277
f 332 277 276
f 332 276 331
f 331 324 325
f 331 325 332
f 334 327 333
f 334 328 327
f 338 284 285
f 338 337 284
f 339 336 335
f 339 340 336
f 341 284 337
f 341 286 284
f 341 336 340
f 341 337 336
f 342 338 285
f 342 285 287
f 344 288 289
f 344 343 288
f 291 345 290
f 291 346 345
f 347 291 292
f 347 346 291
f 341 293 286
f 341 349 293
f 348 341 340
f 348 349 341
f 342 287 294
f 342 294 350
f 343 295 288
f 343 351 295
f 295 350 294
f 295 351 350
f 344 289 296
f 344 296 352
f 351 343 344
f 351 344 352
f 345 297 290
f 345 353 297
f 297 352 296
f 297 353 352
f 354 353 345
f 354 345 346
f 355 347 292
f 355 292 299
f 355 299 298
f 355 298 354
f 355 354 346
f 355 346 347
f 349 300 293
f 349 356 300
f 357 301 300
f 357 300 356
f 302 301 357
f 302 357 358
f 359 303 302
f 359 302 358
f 358 351 352
f 358 352 359
f 360 304 303
f 360 303 359
f 359 352 353
f 359 353 360
f 361 354 298
f 361 298 305
f 361 305 304
f 361 304 360
f 361 360 353
f 361 353 354
f 362 357 356
f 362 363 357
f 366 312 313
f 366 365 312
f 368 312 365
f 368 314 312
f 368 364 367
f 368 365 364
f 369 366 313
f 369 313 315
f 368 319 314
f 368 373 319
f 372 368 367
f 372 373 368
f 374 369 315
f 374 315 320
f 321 374 320
f 321 375 374
f 376 321 322
f 376 375 321
f 375 371 370
f 375 376 371
f 373 326 319
f 373 377 326
f 378 327 326
f 378 326 377
f 376 322 329
f 376 329 380
f 380 329 328
f 380 328 379
f 378 333 327
f 378 382 333
f 381 378 377
f 381 382 378
f 379 328 334
f 379 334 383
f 383 334 333
f 383 333 382
f 385 335 336
f 385 384 335
f 386 336 337
f 386 385 336
f 387 337 338
f 387 386 337
f 384 339 335
f 384 388 339
f 340 339 388
f 340 388 389
f 387 338 342
f 387 342 391
f 390 386 387
f 390 387 391
f 389 348 340
f 389 393 348
f 394 349 348
f 394 348 393
f 394 393 389
f 394 389 390
f 395 391 342
f 395 342 350
f 395 394 390
f 395 390 391
f 396 350 351
f 396 395 350
f 395 392 391
f 395 396 392
f 398 349 394
f 398 356 349
f 397 394 393
f 397 398 394
f 396 351 358
f 396 358 400
f 400 358 357
f 400 357 399
f 398 362 356
f 398 401 362
f 399 357 363
f 399 363 402
f 363 362 401
f 363 401 402
f 401 398 399
f 401 399 402
f 365 407 364
f 365 408 407
f 366 408 365
f 366 409 408
f 409 403 408
f 409 404 403
f 410 404 409
f 410 405 404
f 410 406 405
f 410 411 406
f 407 367 364
f 407 416 367
f 417 416 407
f 417 407 408
f 418 409 366
f 418 366 369
f 417 408 409
f 417 409 418
f 371 419 370
f 371 420 419
f 420 410 419
f 420 411 410
f 421 411 420
f 421 412 411
f 421 413 412
f 421 422 413
f 422 414 413
f 422 423 414
f 423 415 414
f 423 424 415
f 416 372 367
f 416 426 372
f 427 373 372
f 427 372 426
f 428 418 369
f 428 369 374
f 429 370 419
f 429 375 370
f 429 374 375
f 429 428 374
f 430 420 371
f 430 371 376
f 431 425 424
f 431 432 425
f 427 377 373
f 427 434 377
f 433 427 426
f 433 434 427
f 437 430 376
f 437 376 380
f 380 379 436
f 380 436 437
f 438 377 434
f 438 381 377
f 439 382 381
f 439 381 438
f 438 434 435
f 438 435 439
f 440 436 379
f 440 379 383
f 440 383 382
f 440 382 439
f 440 439 435
f 440 435 436
f 385 445 384
f 385 446 445
f 386 446 385
f 386 447 446
f 448 441 447
f 448 442 441
f 448 443 442
f 448 449 443
f 449 444 443
f 449 450 444
f 445 388 384
f 445 454 388
f 389 388 454
f 389 454 455
f 455 454 445
f 455 445 446
f 456 447 386
f 456 386 390
f 456 390 389
f 456 389 455
f 392 457 391
f 392 458 457
f 459 449 458
f 459 450 449
f 459 451 450
f 459 460 451
f 461 453 452
f 461 462 453
f 463 455 454
f 463 464 455
f 465 393 394
f 465 464 393
f 464 456 455
f 464 465 456
f 457 395 391
f 457 466 395
f 395 465 394
f 395 466 465
f 465 457 456
f 465 466 457
f 467 458 392
f 467 392 396
f 464 397 393
f 464 468 397
f 469 398 397
f 469 397 468
f 399 398 469
f 399 469 470
f 471 467 396
f 471 396 400
f 471 400 399
f 471 399 470
f 471 470 466
f 471 466 467
f 475 403 404
f 475 474 403
f 474 473 472
f 474 475 473
f 476 404 405
f 476 475 404
f 477 405 406
f 477 476 405
f 478 403 474
f 478 408 403
f 409 408 478
f 409 478 479
f 478 474 475
f 478 475 479
f 410 409 479
f 410 479 480
f 477 406 411
f 477 411 481
f 480 476 477
f 480 477 481
f 482 411 412
f 482 481 411
f 413 482 412
f 413 483 482
f 414 483 413
f 414 484 483
f 415 484 414
f 415 485 484
f 417 486 416
f 417 487 486
f 418 487 417
f 418 488 487
f 489 410 480
f 489 419 410
f 490 489 480
f 490 480 481
f 421 420 490
f 421 490 491
f 491 490 481
f 491 481 482
f 422 421 491
f 422 491 492
f 491 482 483
f 491 483 492
f 423 422 492
f 423 492 493
f 492 483 484
f 492 484 493
f 485 415 424
f 485 424 494
f 424 423 493
f 424 493 494
f 495 424 425
f 495 494 424
f 486 426 416
f 486 496 426
f 488 418 428
f 488 428 498
f 489 429 419
f 489 499 429
f 499 428 429
f 499 498 428
f 499 488 498
f 499 489 488
f 500 490 420
f 500 420 430
f 494 431 424
f 494 501 431
f 495 425 432
f 495 432 502
f 502 432 431
f 502 431 501
f 503 426 496
f 503 433 426
f 504 434 433
f 504 433 503
f 503 496 497
f 503 497 504
f 505 435 434
f 505 434 504
f 505 504 497
f 505 497 498
f 506 436 435
f 506 435 505
f 505 498 499
f 505 499 506
f 500 430 437
f 500 437 507
f 437 436 506
f 437 506 507
f 512 501 511
f 512 502 501
f 513 508 507
f 513 514 508
f 514 509 508
f 514 515 509
f 516 509 515
f 516 510 509
f 517 510 516
f 517 511 510
f 521 519 518
f 521 522 519
f 523 441 442
f 523 522 441
f 522 520 519
f 522 523 520
f 524 442 443
f 524 523 442
f 525 443 444
f 525 524 443
f 527 441 522
f 527 447 441
f 447 526 446
f 447 527 526
f 448 447 527
f 448 527 528
f 528 527 522
f 528 522 523
f 529 449 448
f 529 448 528
f 528 523 524
f 528 524 529
f 525 444 450
f 525 450 530
f 529 524 525
f 529 525 530
f 451 530 450
f 451 531 530
f 453 532 452
f 453 533 532
f 536 446 526
f 536 455 446
f 455 535 454
f 455 536 535
f 537 527 447
f 537 447 456
f 457 537 456
f 457 538 537
f 539 449 529
f 539 458 449
f 458 538 457
f 458 539 538
f 459 458 539
f 459 539 540
f 540 539 529
f 540 529 530
f 531 451 460
f 531 460 541
f 460 459 540
f 460 540 541
f 540 530 531
f 540 531 541
f 532 461 452
f 532 542 461
f 533 453 462
f 533 462 543
f 462 461 542
f 462 542 543
f 542 532 533
f 542 533 543
f 543 534 533
f 543 544 534
f 535 463 454
f 535 545 463
f 546 464 463
f 546 463 545
f 545 535 536
f 545 536 546
f 549 539 458
f 549 458 467
f 467 466 548
f 467 548 549
f 552 544 543
f 552 553 544
f 554 464 546
f 554 468 464
f 469 468 554
f 469 554 555
f 554 546 547
f 554 547 555
f 548 466 470
f 548 470 556
f 470 469 555
f 470 555 556
f 555 547 548
f 555 548 556
f 556 549 548
f 556 557 549
f 560 550 559
f 560 551 550
f 561 551 560
f 561 552 551
f 562 552 561
f 562 553 552
f 563 558 557
f 563 564 558
f 565 558 564
f 565 559 558
f 473 566 472
f 473 567 566
f 568 472 566
f 568 474 472
f 569 567 473
f 569 473 475
f 569 475 474
f 569 474 568
f 568 566 567
f 568 567 569
f 570 475 476
f 570 569 475
f 571 475 569
f 571 479 475
f 572 570 476
f 572 476 480
f 572 480 479
f 572 479 571
f 571 569 570
f 571 570 572
f 485 573 484
f 485 574 573
f 576 486 487
f 576 575 486
f 488 576 487
f 488 577 576
f 489 577 488
f 489 578 577
f 490 578 489
f 490 579 578
f 573 493 484
f 573 580 493
f 581 574 485
f 581 485 494
f 494 493 580
f 494 580 581
f 580 573 574
f 580 574 581
f 582 494 495
f 582 581 494
f 583 486 575
f 583 496 486
f 497 496 583
f 497 583 584
f 584 583 575
f 584 575 576
f 585 498 497
f 585 497 584
f 585 584 576
f 585 576 577
f 499 498 585
f 499 585 586
f 586 585 577
f 586 577 578
f 579 490 500
f 579 500 587
f 588 494 581
f 588 501 494
f 589 582 495
f 589 495 502
f 588 581 582
f 588 582 589
f 586 506 499
f 586 590 506
f 587 500 507
f 587 507 591
f 507 506 590
f 507 590 591
f 508 591 507
f 508 592 591
f 593 508 509
f 593 592 508
f 594 509 510
f 594 593 509
f 588 511 501
f 588 595 511
f 595 510 511
f 595 594 510
f 589 502 512
f 589 512 596
f 596 512 511
f 596 511 595
f 596 595 588
f 596 588 589
f 591 513 507
f 591 598 513
f 598 590 597
f 598 591 590
f 599 514 513
f 599 513 598
f 600 515 514
f 600 514 599
f 599 592 593
f 599 593 600
f 601 516 515
f 601 515 600
f 601 600 593
f 601 593 594
f 595 511 517
f 595 517 602
f 602 517 516
f 602 516 601
f 602 601 594
f 602 594 595
f 604 518 519
f 604 603 518
f 520 604 519
f 520 605 604
f 603 521 518
f 603 606 521
f 607 522 521
f 607 521 606
f 606 603 604
f 606 604 607
f 608 605 520
f 608 520 523
f 608 523 522
f 608 522 607
f 607 604 605
f 607 605 608
f 610 526 527
f 610 609 526
f 534 611 533
f 534 612 611
f 613 526 609
f 613 536 526
f 610 527 537
f 610 537 614
f 613 609 610
f 613 610 614
f 538 614 537
f 538 615 614
f 616 538 539
f 616 615 538
f 611 543 533
f 611 618 543
f 619 612 534
f 619 534 544
f 618 611 612
f 618 612 619
f 620 536 613
f 620 546 536
f 547 546 620
f 547 620 621
f 620 613 614
f 620 614 621
f 622 548 547
f 622 547 621
f 621 614 615
f 621 615 622
f 616 539 549
f 616 549 623
f 623 617 616
f 623 624 617
f 626 550 551
f 626 625 550
f 618 552 543
f 618 627 552
f 627 551 552
f 627 626 551
f 619 544 553
f 619 553 628
f 628 627 618
f 628 618 619
f 629 548 622
f 629 556 548
f 623 549 557
f 623 557 630
f 557 556 629
f 557 629 630
f 558 630 557
f 558 631 630
f 630 624 623
f 630 631 624
f 625 559 550
f 625 632 559
f 632 558 559
f 632 631 558
f 633 560 559
f 633 559 632
f 633 632 625
f 633 625 626
f 634 561 560
f 634 560 633
f 634 633 626
f 634 626 627
f 628 553 562
f 628 562 635
f 562 561 634
f 562 634 635
f 635 634 627
f 635 627 628
f 636 557 630
f 636 563 557
f 564 563 636
f 564 636 637
f 636 630 631
f 636 631 637
f 632 559 565
f 632 565 638
f 565 564 637
f 565 637 638
f 579 639 578
f 579 640 639
f 639 586 578
f 639 641 586
f 640 579 587
f 640 587 642
f 641 639 640
f 641 640 642
f 641 590 586
f 641 643 590
f 644 642 587
f 644 587 591
f 643 641 642
f 643 642 644
f 645 591 592
f 645 644 591
f 643 597 590
f 643 646 597
f 647 598 597
f 647 597 646
f 646 643 644
f 646 644 647
f 645 592 599
f 645 599 648
f 648 599 598
f 648 598 647
f 647 644 645
f 647 645 648
f 616 649 615
f 616 650 649
f 617 650 616
f 617 651 650
f 649 622 615
f 649 652 622
f 653 652 649
f 653 649 650
f 654 651 617
f 654 617 624
f 653 650 651
f 653 651 654
f 652 629 622
f 652 655 629
f 656 630 629
f 656 629 655
f 655 652 653
f 655 653 656
f 657 654 624
f 657 624 631
f 657 631 630
f 657 630 656
f 656 653 654
f 656 654 657
f 658 631 632
f 658 657 631
f 659 631 657
f 659 637 631
f 658 632 638
f 658 638 660
f 638 637 659
f 638 659 660
f 659 657 658
f 659 658 660
