# parsimony mesh: cplx_CPLX0-7533 (source /Users/eranagmon/code/v2e-cplx/workspace/studies/ecoli-3d/viz/3d/structures/cplx_CPLX0-7533.pdb)
# atoms: 8574  voxel: 16 Å  verts: 205  tris: 408
v 38.2325 1.0174 -83.6102
v 38.2858 1.0174 -83.6102
v 36.9883 9.0358 -84.7022
v 44.6755 10.0298 -84.9365
v 55.0521 16.0257 -84.3388
v 20.1284 30.9582 -85.7932
v 31.3123 25.6847 -85.4167
v 45.6773 25.4611 -85.5771
v 55.9694 25.0358 -84.9768
v 20.1284 36.9446 -85.7932
v 30.2589 41.1744 -85.2909
v 46.1221 40.9045 -84.7331
v 55.7472 36.4048 -84.6778
v 34.4851 50.3095 -84.7885
v 41.6222 50.3095 -84.7885
v 38.2325 1.0174 -83.5076
v 38.2858 1.0174 -83.5076
v 22.0657 16.8648 -67.8050
v 32.0789 10.2613 -75.6563
v 44.6755 7.6593 -77.1330
v 55.5351 15.3486 -75.5712
v 6.1448 32.8198 -67.8414
v 15.7637 26.5557 -73.1565
v 31.3123 25.6847 -80.2304
v 39.9553 31.0779 -81.9890
v 58.5091 25.0358 -75.5712
v 6.1448 33.3763 -67.8414
v 14.4908 40.4938 -75.1014
v 30.2589 41.1744 -82.1752
v 46.8486 41.5431 -78.3217
v 57.2341 38.6472 -75.5712
v 19.5200 50.9000 -71.6947
v 29.5951 52.1323 -76.4453
v 44.0185 51.5083 -75.5712
v 4.8160 16.1056 -52.7930
v 15.7435 15.2649 -58.7043
v 30.2602 12.6678 -59.5712
v 46.0637 14.0105 -59.9391
v 55.1682 15.7963 -65.5177
v 4.5408 26.5062 -58.7043
v 11.3990 22.1531 -63.4597
v 50.8937 25.0358 -55.1470
v 56.7999 25.0358 -63.1470
v 5.1941 34.6889 -59.5712
v 11.3293 42.6889 -59.5712
v 50.5082 41.9035 -58.8640
v 56.7384 37.1487 -63.7258
v 19.3293 51.6808 -59.5712
v 30.2602 54.5180 -59.5712
v 42.6910 51.8731 -59.5712
v 4.8160 16.1056 -47.0725
v 14.1901 15.2491 -42.4720
v 30.2921 15.1524 -42.3975
v 40.5993 15.9444 -46.9484
v 4.1975 25.0358 -45.6056
v 14.1901 24.0118 -38.4031
v 30.2933 23.3173 -36.9301
v 42.4384 23.9977 -42.3975
v 4.9541 34.8995 -48.1157
v 15.1596 40.5540 -46.8448
v 30.2680 40.5481 -40.9242
v 41.9901 40.5481 -43.5773
v 21.0925 50.6982 -50.4754
v 30.2602 51.6027 -48.7570
v 39.8522 50.7959 -48.9147
v 19.4768 16.8384 -35.4044
v 24.9801 16.8384 -35.4044
v 19.4768 17.9958 -35.4044
v 30.2933 23.3173 -35.1103
v 39.0457 28.6389 -34.8162
v 35.6065 34.8896 -34.8162
v 39.0457 34.8896 -34.8162
v 35.0625 -81.6945 8.4700
v 46.2602 -81.0910 9.3822
v 54.3520 -79.0697 12.3255
v 20.5147 -66.3898 9.3087
v 30.9109 -70.4954 8.8894
v 45.3893 -69.9463 9.3173
v 55.4720 -70.9642 11.5085
v 19.8610 -54.9642 8.9083
v 31.3596 -56.0633 8.3897
v 45.3893 -56.0633 9.9282
v 56.0107 -54.9642 10.8315
v 20.8068 -45.5136 10.8550
v 30.2602 -44.2476 9.7201
v 46.2602 -44.7064 10.1459
v 55.0703 -46.1253 11.4227
v -59.6819 13.5323 10.0966
v -49.7398 12.7811 9.6037
v -40.1356 14.8664 10.9941
v -74.8667 31.4283 8.9078
v -65.1884 25.9346 9.5022
v -50.1835 25.4789 9.2168
v -38.3642 25.0358 10.1630
v -74.8667 35.9728 8.9078
v -66.0126 40.6616 9.6224
v -50.1835 40.4246 10.1531
v -39.4781 41.0358 11.1531
v -61.3302 50.7369 10.3369
v -49.7398 50.3895 10.7740
v -41.6208 49.1396 12.3143
v 21.2005 -79.6617 26.0239
v 29.9415 -82.2491 20.5858
v 46.2602 -82.7610 20.4288
v 54.4408 -79.1779 20.4288
v 5.5257 -63.8557 27.6148
v 15.5243 -70.4561 21.4860
v 30.9109 -70.4954 14.3687
v 39.4755 -63.9344 13.3802
v 57.0625 -70.9642 20.4288
v 5.5257 -60.0106 27.6148
v 11.5771 -54.7921 21.5404
v 37.4259 -62.1294 13.3802
v 39.4755 -62.1294 13.3802
v 57.8087 -54.9642 20.4288
v 18.2154 -43.8392 20.4288
v 30.2602 -40.2847 20.4288
v 46.2602 -42.4402 20.4288
v 55.1869 -45.9947 20.4288
v -74.5320 16.5844 27.7156
v -65.3050 13.1372 21.6009
v -49.7398 9.7845 20.4288
v -39.6755 14.3191 20.4288
v -77.7251 25.6713 21.6009
v -65.1884 25.9346 15.7179
v -55.8126 31.1076 14.3869
v -35.2327 25.0358 20.4288
v -78.4065 41.1980 19.9995
v -66.0126 40.6616 14.3835
v -55.8126 34.6838 14.3869
v -36.8761 41.0358 20.4288
v -75.6678 51.0376 25.0466
v -66.2941 52.2238 19.9995
v -49.7398 51.9137 20.4288
v -41.3189 49.4301 20.4288
v 5.3736 -79.5831 43.4701
v 15.2244 -80.5423 37.4536
v 30.2602 -82.0617 36.4288
v 44.7324 -80.3431 34.9727
v 54.4091 -79.1436 28.6686
v 4.4842 -69.8991 37.4536
v 10.5338 -74.5224 32.8035
v 48.1009 -70.9642 38.3900
v 55.8508 -70.9642 30.3900
v 4.7051 -59.4772 36.4288
v 13.4964 -51.7196 36.9208
v 23.9107 -48.8726 42.5821
v 49.3720 -54.9642 38.6874
v 56.0581 -54.9642 30.6874
v 18.3206 -44.2481 31.9154
v 29.6505 -42.4402 36.9208
v 45.7493 -43.7976 35.2106
v 54.6857 -46.5104 29.0652
v -89.9159 16.8828 44.1338
v -80.6151 15.5268 37.8518
v -65.7398 12.5031 36.4288
v -49.9421 13.9551 35.9712
v -40.5916 15.5830 30.3328
v -89.9159 18.3305 44.1338
v -85.7596 24.2126 37.8518
v -45.7769 25.0358 40.2401
v -38.6083 25.0358 32.2401
v -80.0411 41.3141 36.9847
v -72.1466 46.8329 42.6887
v -46.0836 41.0358 39.2924
v -39.1378 41.0358 31.2924
v -75.6678 51.0376 32.0220
v -66.3839 52.6178 36.9847
v -50.1875 51.6698 35.2130
v -41.2976 49.4578 29.0692
v 5.3736 -79.5831 45.8443
v 14.2602 -80.4137 47.4285
v 30.2602 -80.0032 46.5134
v 38.3806 -79.0357 44.6241
v 3.6476 -70.2898 51.6781
v 13.8059 -70.2898 54.8139
v 30.2602 -70.9642 51.6111
v 40.1009 -70.9642 47.6913
v 3.6594 -61.2094 52.4288
v 13.8059 -59.5054 52.4142
v 29.6505 -54.5092 50.4966
v 41.3720 -54.9642 50.0319
v 34.5774 -44.7080 47.7449
v 40.0754 -44.7080 47.7449
v -89.9159 16.8828 44.7822
v -81.7398 15.4881 47.1188
v -65.7398 14.7487 50.3701
v -55.4103 15.8969 49.1172
v -89.9159 18.3305 44.7822
v -82.4505 24.2126 47.4762
v -64.6535 24.2289 56.4772
v -54.2324 24.2289 53.6419
v -77.5910 36.1662 45.9211
v -65.3713 40.5176 51.8001
v -54.4777 40.1357 52.3790
v -61.4799 51.3936 47.0124
v -55.8193 51.3936 47.0124
v 4.1315 -64.5069 61.0816
v 8.1697 -64.5069 61.0816
v 4.1315 -62.3203 61.0816
v 8.1697 -62.3203 61.0816
v -58.5959 29.0243 60.8998
v -57.1781 29.0243 60.8998
v -58.5959 34.2023 60.8998
v -57.1781 34.2023 60.8998
f 3 2 1
f 3 4 2
f 8 3 7
f 8 4 3
f 8 5 4
f 8 9 5
f 11 6 10
f 11 7 6
f 13 8 12
f 13 9 8
f 15 11 14
f 15 12 11
f 2 16 1
f 2 17 16
f 16 3 1
f 16 19 3
f 17 2 4
f 17 4 20
f 20 19 16
f 20 16 17
f 5 20 4
f 5 21 20
f 24 3 19
f 24 7 3
f 24 6 7
f 24 23 6
f 24 18 23
f 24 19 18
f 25 8 7
f 25 7 24
f 26 21 5
f 26 5 9
f 28 6 23
f 28 10 6
f 27 23 22
f 27 28 23
f 29 24 7
f 29 7 11
f 29 11 10
f 29 10 28
f 25 12 8
f 25 30 12
f 12 29 11
f 12 30 29
f 29 25 24
f 29 30 25
f 26 9 13
f 26 13 31
f 13 12 30
f 13 30 31
f 29 14 11
f 29 33 14
f 32 29 28
f 32 33 29
f 30 12 15
f 30 15 34
f 34 15 14
f 34 14 33
f 37 18 19
f 37 36 18
f 38 19 20
f 38 37 19
f 39 20 21
f 39 38 20
f 41 18 36
f 41 23 18
f 41 22 23
f 41 40 22
f 41 35 40
f 41 36 35
f 39 21 26
f 39 26 43
f 42 38 39
f 42 39 43
f 44 22 40
f 44 27 22
f 45 28 27
f 45 27 44
f 47 43 26
f 47 26 31
f 47 31 30
f 47 30 46
f 47 46 42
f 47 42 43
f 45 32 28
f 45 48 32
f 49 33 32
f 49 32 48
f 46 30 34
f 46 34 50
f 34 33 49
f 34 49 50
f 52 35 36
f 52 51 35
f 53 36 37
f 53 52 36
f 54 37 38
f 54 53 37
f 55 35 51
f 55 40 35
f 55 51 52
f 55 52 56
f 54 38 42
f 54 42 58
f 58 57 53
f 58 53 54
f 59 40 55
f 59 44 40
f 45 44 59
f 45 59 60
f 59 55 56
f 59 56 60
f 61 60 56
f 61 56 57
f 62 58 42
f 62 42 46
f 63 45 60
f 63 48 45
f 49 48 63
f 49 63 64
f 63 60 61
f 63 61 64
f 65 62 46
f 65 46 50
f 65 50 49
f 65 49 64
f 65 64 61
f 65 61 62
f 53 66 52
f 53 67 66
f 68 52 66
f 68 56 52
f 67 53 57
f 67 57 69
f 57 56 68
f 57 68 69
f 68 66 67
f 68 67 69
f 70 57 58
f 70 69 57
f 71 57 69
f 71 61 57
f 72 70 58
f 72 58 62
f 72 62 61
f 72 61 71
f 71 69 70
f 71 70 72
f 78 73 77
f 78 74 73
f 78 75 74
f 78 79 75
f 81 76 80
f 81 77 76
f 82 79 78
f 82 83 79
f 85 80 84
f 85 81 80
f 86 81 85
f 86 82 81
f 87 82 86
f 87 83 82
f 93 88 92
f 93 89 88
f 93 90 89
f 93 94 90
f 96 91 95
f 96 92 91
f 98 93 97
f 98 94 93
f 99 97 96
f 99 100 97
f 101 97 100
f 101 98 97
f 104 73 74
f 104 103 73
f 75 104 74
f 75 105 104
f 108 73 103
f 108 77 73
f 108 76 77
f 108 107 76
f 108 102 107
f 108 103 102
f 109 78 77
f 109 77 108
f 110 105 75
f 110 75 79
f 112 76 107
f 112 80 76
f 112 106 111
f 112 107 106
f 113 108 77
f 113 77 81
f 109 82 78
f 109 114 82
f 82 113 81
f 82 114 113
f 113 109 108
f 113 114 109
f 115 110 79
f 115 79 83
f 116 80 112
f 116 84 80
f 117 85 84
f 117 84 116
f 118 86 85
f 118 85 117
f 115 83 87
f 115 87 119
f 87 86 118
f 87 118 119
f 122 88 89
f 122 121 88
f 90 122 89
f 90 123 122
f 125 88 121
f 125 92 88
f 125 91 92
f 125 124 91
f 124 121 120
f 124 125 121
f 126 93 92
f 126 92 125
f 127 123 90
f 127 90 94
f 128 91 124
f 128 95 91
f 129 125 92
f 129 92 96
f 129 96 95
f 129 95 128
f 126 97 93
f 126 130 97
f 130 96 97
f 130 129 96
f 130 125 129
f 130 126 125
f 127 94 98
f 127 98 131
f 129 99 96
f 129 133 99
f 133 128 132
f 133 129 128
f 134 100 99
f 134 99 133
f 131 98 101
f 131 101 135
f 101 100 134
f 101 134 135
f 138 102 103
f 138 137 102
f 139 103 104
f 139 138 103
f 140 104 105
f 140 139 104
f 142 102 137
f 142 107 102
f 142 106 107
f 142 141 106
f 142 136 141
f 142 137 136
f 140 105 110
f 140 110 144
f 143 139 140
f 143 140 144
f 145 106 141
f 145 111 106
f 146 112 111
f 146 111 145
f 144 110 115
f 144 115 149
f 148 143 144
f 148 144 149
f 150 112 146
f 150 116 112
f 117 116 150
f 117 150 151
f 150 146 147
f 150 147 151
f 152 118 117
f 152 117 151
f 153 149 115
f 153 115 119
f 153 119 118
f 153 118 152
f 153 152 148
f 153 148 149
f 156 120 121
f 156 155 120
f 157 121 122
f 157 156 121
f 158 122 123
f 158 157 122
f 160 120 155
f 160 124 120
f 160 154 159
f 160 155 154
f 158 123 127
f 158 127 162
f 161 157 158
f 161 158 162
f 163 124 160
f 163 128 124
f 166 162 127
f 166 127 131
f 165 161 162
f 165 162 166
f 167 128 163
f 167 132 128
f 168 133 132
f 168 132 167
f 167 163 164
f 167 164 168
f 169 134 133
f 169 133 168
f 170 166 131
f 170 131 135
f 170 135 134
f 170 134 169
f 170 169 165
f 170 165 166
f 172 136 137
f 172 171 136
f 173 137 138
f 173 172 137
f 174 138 139
f 174 173 138
f 175 136 171
f 175 141 136
f 175 171 172
f 175 172 176
f 177 176 172
f 177 172 173
f 174 139 143
f 174 143 178
f 177 173 174
f 177 174 178
f 179 141 175
f 179 145 141
f 180 146 145
f 180 145 179
f 147 146 180
f 147 180 181
f 180 176 177
f 180 177 181
f 178 143 148
f 178 148 182
f 182 181 177
f 182 177 178
f 183 147 181
f 183 151 147
f 184 182 148
f 184 148 152
f 184 152 151
f 184 151 183
f 183 181 182
f 183 182 184
f 186 154 155
f 186 185 154
f 187 155 156
f 187 186 155
f 188 156 157
f 188 187 156
f 185 159 154
f 185 189 159
f 160 159 189
f 160 189 190
f 189 185 186
f 189 186 190
f 190 186 187
f 190 187 191
f 188 157 161
f 188 161 192
f 191 187 188
f 191 188 192
f 193 160 190
f 193 163 160
f 164 163 193
f 164 193 194
f 193 190 191
f 193 191 194
f 195 192 161
f 195 161 165
f 196 164 194
f 196 168 164
f 197 195 165
f 197 165 169
f 197 169 168
f 197 168 196
f 196 194 195
f 196 195 197
f 199 175 176
f 199 198 175
f 198 179 175
f 198 200 179
f 199 176 180
f 199 180 201
f 201 180 179
f 201 179 200
f 192 202 191
f 192 203 202
f 204 191 202
f 204 194 191
f 205 203 192
f 205 192 195
f 195 194 204
f 195 204 205
