# parsimony mesh: cplx_CPLX0-8185 (source /Users/eranagmon/code/v2e-cplx/workspace/studies/ecoli-3d/viz/3d/structures/cplx_CPLX0-8185.pdb)
# atoms: 1000  voxel: 16 Å  verts: 72  tris: 130
v -70.8532 58.8956 -45.8343
v -70.0511 58.8956 -45.8343
v -72.1129 67.2390 -46.8077
v -69.5522 67.2390 -46.8077
v -72.2280 76.3733 -46.8963
v -69.6159 76.3733 -46.8963
v -71.7428 58.0644 -37.4804
v -69.5085 58.0644 -37.4804
v -72.5726 66.3903 -38.3182
v -69.2179 66.3903 -38.3182
v -72.2280 76.3733 -44.2101
v -69.6159 76.3733 -44.2101
v 55.2370 -70.6400 -17.8142
v 58.9101 -70.6400 -17.8142
v 55.2370 -67.3356 -17.8142
v 58.9101 -67.3356 -17.8142
v -71.7627 56.3543 -21.4804
v -69.2647 56.3543 -21.4804
v -71.7627 60.4662 -21.4804
v -69.2647 60.4662 -21.4804
v 54.6115 -71.4511 -5.4804
v 60.6637 -71.4511 -5.4804
v 54.6115 -66.6756 -5.4804
v 60.6637 -66.6756 -5.4804
v -70.9601 56.5845 -5.4804
v -69.1272 56.5845 -5.4804
v -70.9601 59.7240 -5.4804
v -69.1272 59.7240 -5.4804
v 55.3849 -70.9798 10.5196
v 65.6680 -71.2017 10.7282
v 75.9600 -69.8705 16.2007
v 55.3849 -65.0181 10.5196
v 65.1918 -60.9324 11.1332
v 76.8274 -60.7610 15.4401
v 70.0062 -51.7346 16.7325
v 75.5459 -51.7346 16.7325
v -70.9286 58.0404 10.5196
v -63.3830 56.8244 10.5111
v -46.3961 56.6410 13.8352
v -37.4406 58.2011 14.9546
v -70.9286 60.1464 10.5196
v -63.3830 62.5133 10.5111
v -46.3961 64.1178 13.8352
v -37.4406 61.4967 14.9546
v 56.2682 -70.0117 20.4601
v 66.4633 -70.5949 26.0839
v 75.9661 -70.1154 26.5196
v 56.2682 -65.1256 20.4601
v 63.1947 -60.1797 26.0839
v 77.9924 -60.7610 26.5196
v 69.5181 -51.4266 26.5196
v 75.6302 -51.4266 26.5196
v -70.8378 58.5567 19.1715
v -62.3961 56.9077 22.8834
v -46.3961 56.6410 23.8880
v -37.4406 58.2011 20.5110
v -70.8378 60.1862 19.1715
v -59.2822 66.1817 26.3826
v -49.5614 66.7434 26.9567
v -37.4406 61.4967 20.5110
v -55.1304 75.7471 31.0482
v -53.7818 75.7471 31.0482
v 72.3696 -69.4575 35.1055
v 74.3975 -69.4575 35.1055
v 71.2906 -60.7610 35.4617
v 74.7689 -60.7610 35.4617
v 71.7539 -52.0082 35.1898
v 74.3637 -52.0082 35.1898
v -55.1304 70.2440 35.0280
v -53.7818 70.2440 35.0280
v -55.1304 75.7471 35.0280
v -53.7818 75.7471 35.0280
f 4 1 3
f 4 2 1
f 6 3 5
f 6 4 3
f 8 1 2
f 8 7 1
f 9 1 7
f 9 3 1
f 10 8 2
f 10 2 4
f 11 3 9
f 11 5 3
f 12 10 4
f 12 4 6
f 6 5 11
f 6 11 12
f 12 11 9
f 12 9 10
f 15 14 13
f 15 16 14
f 8 17 7
f 8 18 17
f 19 7 17
f 19 9 7
f 20 18 8
f 20 8 10
f 10 9 19
f 10 19 20
f 14 21 13
f 14 22 21
f 23 13 21
f 23 15 13
f 24 22 14
f 24 14 16
f 16 15 23
f 16 23 24
f 18 25 17
f 18 26 25
f 27 17 25
f 27 19 17
f 28 26 18
f 28 18 20
f 20 19 27
f 20 27 28
f 22 29 21
f 22 30 29
f 29 23 21
f 29 32 23
f 30 22 24
f 30 24 33
f 24 23 32
f 24 32 33
f 33 31 30
f 33 34 31
f 35 34 33
f 35 36 34
f 26 37 25
f 26 38 37
f 37 27 25
f 37 41 27
f 38 26 28
f 38 28 42
f 28 27 41
f 28 41 42
f 42 39 38
f 42 43 39
f 44 39 43
f 44 40 39
f 30 45 29
f 30 46 45
f 31 46 30
f 31 47 46
f 45 32 29
f 45 48 32
f 33 32 48
f 33 48 49
f 48 45 46
f 48 46 49
f 50 47 31
f 50 31 34
f 49 35 33
f 49 51 35
f 50 34 36
f 50 36 52
f 52 36 35
f 52 35 51
f 38 53 37
f 38 54 53
f 39 54 38
f 39 55 54
f 56 39 40
f 56 55 39
f 53 41 37
f 53 57 41
f 42 41 57
f 42 57 58
f 57 53 54
f 57 54 58
f 43 42 58
f 43 58 59
f 58 54 55
f 58 55 59
f 56 40 44
f 56 44 60
f 60 44 43
f 60 43 59
f 60 59 55
f 60 55 56
f 61 59 58
f 61 62 59
f 47 63 46
f 47 64 63
f 65 46 63
f 65 49 46
f 64 47 50
f 64 50 66
f 65 51 49
f 65 67 51
f 68 66 50
f 68 50 52
f 52 51 67
f 52 67 68
f 59 69 58
f 59 70 69
f 69 61 58
f 69 71 61
f 70 59 62
f 70 62 72
f 62 61 71
f 62 71 72
