# parsimony mesh: cplx_CPLX0-7686 (source /Users/eranagmon/code/v2e-cplx/workspace/studies/ecoli-3d/viz/3d/structures/cplx_CPLX0-7686.pdb)
# atoms: 1346  voxel: 16 Å  verts: 84  tris: 156
v 89.8838 -58.2424 -40.6459
v 92.7368 -58.2424 -40.6459
v 89.8838 -56.4580 -40.6459
v 92.7368 -56.4580 -40.6459
v -37.9890 69.8598 -40.4770
v -35.5090 69.8598 -40.4770
v -37.9890 71.3326 -40.4770
v -35.5090 71.3326 -40.4770
v 86.7727 -59.0243 -31.7948
v 93.2261 -59.0243 -31.7948
v 86.7727 -55.2370 -31.7948
v 93.2261 -55.2370 -31.7948
v -41.1562 69.0605 -31.7948
v -34.9728 69.0605 -31.7948
v -41.1562 72.6078 -31.7948
v -34.9728 72.6078 -31.7948
v 71.6616 -60.5326 -12.4113
v 81.8518 -59.7579 -16.8352
v 91.9152 -58.9833 -21.2591
v 71.6616 -55.8111 -12.4113
v 81.8518 -55.7646 -16.8352
v 91.9152 -55.7180 -21.2591
v -56.3138 67.5401 -12.4205
v -46.2003 68.2839 -16.8583
v -36.1042 69.0276 -21.2962
v -56.3138 72.1771 -12.4205
v -46.2003 72.2308 -16.8583
v -36.1042 72.2845 -21.2962
v 54.5470 -74.7349 6.7636
v 61.1434 -74.7349 6.7636
v 55.2368 -65.7899 6.4857
v 65.7058 -63.5368 1.7026
v 77.5399 -60.5326 -4.6748
v 58.1192 -57.5194 7.3541
v 65.5937 -56.6653 1.3397
v 77.5399 -55.8111 -4.6748
v -73.6888 53.2029 6.6815
v -66.7744 53.2029 6.6815
v -72.9549 62.2101 6.3934
v -62.2307 64.4944 1.6363
v -50.5317 67.5401 -4.7066
v -69.9006 70.4925 7.3132
v -62.3734 71.3348 1.3033
v -50.5317 72.1771 -4.7066
v 25.8322 -74.4959 23.6155
v 34.5257 -75.7676 20.5417
v 50.0757 -75.2278 15.3705
v 61.1434 -74.7349 10.8308
v 25.8322 -73.1436 23.6155
v 34.5257 -71.7393 20.5417
v 51.1087 -68.3237 14.5535
v 61.2390 -65.7899 10.5360
v 58.1192 -57.5194 8.6873
v 59.5257 -57.5194 8.6873
v -102.1427 53.5359 23.6423
v -93.4743 52.3340 20.5022
v -78.0440 52.7929 15.4294
v -66.7744 53.2029 11.0280
v -102.1427 54.8283 23.6423
v -93.4743 56.1890 20.5022
v -77.0025 59.6474 14.6160
v -66.6683 62.2101 10.7050
v -69.9006 70.4925 8.7154
v -68.4329 70.4925 8.7154
v 25.4821 -74.7205 32.2052
v 33.3358 -75.6929 32.2495
v 45.6045 -75.7208 26.9458
v 25.4821 -73.0874 32.2052
v 33.3358 -71.9752 32.2495
v 45.6045 -71.7021 26.9458
v -102.5275 53.3114 32.2052
v -94.6487 52.3948 32.2151
v -82.3993 52.3829 26.8884
v -102.5275 54.8948 32.2052
v -94.6487 55.9700 32.2151
v -82.3993 56.2304 26.8884
v 25.8277 -74.3247 40.4106
v 27.2091 -74.3247 40.4106
v 25.8277 -73.4995 40.4106
v 27.2091 -73.4995 40.4106
v -102.2102 53.6860 40.4146
v -100.7650 53.6860 40.4146
v -102.2102 54.5048 40.4146
v -100.7650 54.5048 40.4146
f 3 2 1
f 3 4 2
f 7 6 5
f 7 8 6
f 10 1 2
f 10 9 1
f 9 3 1
f 9 11 3
f 10 2 4
f 10 4 12
f 12 4 3
f 12 3 11
f 14 5 6
f 14 13 5
f 13 7 5
f 13 15 7
f 14 6 8
f 14 8 16
f 16 8 7
f 16 7 15
f 19 9 10
f 19 18 9
f 21 9 18
f 21 11 9
f 20 18 17
f 20 21 18
f 22 19 10
f 22 10 12
f 22 12 11
f 22 11 21
f 21 18 19
f 21 19 22
f 25 13 14
f 25 24 13
f 27 13 24
f 27 15 13
f 26 24 23
f 26 27 24
f 28 25 14
f 28 14 16
f 28 16 15
f 28 15 27
f 27 24 25
f 27 25 28
f 31 30 29
f 31 32 30
f 33 17 18
f 33 32 17
f 35 17 32
f 35 20 17
f 34 32 31
f 34 35 32
f 36 33 18
f 36 18 21
f 36 21 20
f 36 20 35
f 35 32 33
f 35 33 36
f 39 38 37
f 39 40 38
f 41 23 24
f 41 40 23
f 43 23 40
f 43 26 23
f 42 40 39
f 42 43 40
f 44 41 24
f 44 24 27
f 44 27 26
f 44 26 43
f 43 40 41
f 43 41 44
f 48 29 30
f 48 47 29
f 49 46 45
f 49 50 46
f 51 29 47
f 51 31 29
f 50 47 46
f 50 51 47
f 52 48 30
f 52 30 32
f 51 47 48
f 51 48 52
f 53 31 51
f 53 34 31
f 54 52 32
f 54 32 35
f 54 35 34
f 54 34 53
f 53 51 52
f 53 52 54
f 58 37 38
f 58 57 37
f 59 56 55
f 59 60 56
f 61 37 57
f 61 39 37
f 60 57 56
f 60 61 57
f 62 58 38
f 62 38 40
f 61 57 58
f 61 58 62
f 63 39 61
f 63 42 39
f 64 62 40
f 64 40 43
f 64 43 42
f 64 42 63
f 63 61 62
f 63 62 64
f 66 45 46
f 66 65 45
f 67 46 47
f 67 66 46
f 68 45 65
f 68 49 45
f 69 50 49
f 69 49 68
f 70 67 47
f 70 47 51
f 70 51 50
f 70 50 69
f 69 66 67
f 69 67 70
f 72 55 56
f 72 71 55
f 73 56 57
f 73 72 56
f 74 55 71
f 74 59 55
f 75 60 59
f 75 59 74
f 76 73 57
f 76 57 61
f 76 61 60
f 76 60 75
f 75 72 73
f 75 73 76
f 78 65 66
f 78 77 65
f 79 65 77
f 79 68 65
f 80 78 66
f 80 66 69
f 80 69 68
f 80 68 79
f 82 71 72
f 82 81 71
f 83 71 81
f 83 74 71
f 84 82 72
f 84 72 75
f 84 75 74
f 84 74 83
