# parsimony mesh: cplx_CPLX0-242 (source /Users/eranagmon/code/v2e-cplx/workspace/studies/ecoli-3d/viz/3d/structures/cplx_CPLX0-242.pdb)
# atoms: 1698  voxel: 16 Å  verts: 52  tris: 96
v 15.5371 -35.9094 -10.3479
v 23.9430 -36.6211 -11.3216
v 33.1197 -36.6297 -11.3231
v 14.0559 -27.5665 -11.8216
v 23.9430 -27.5665 -14.5075
v 36.4016 -27.5665 -12.5492
v 13.8328 -17.8499 -11.9897
v 23.9430 -16.4575 -13.0491
v 36.7111 -17.1378 -11.9847
v -21.2883 11.9111 -10.5848
v -15.5069 11.9111 -10.5848
v -34.5223 23.1330 -12.2178
v -25.5958 18.8532 -12.8987
v -12.6696 20.4335 -11.8917
v -34.5223 30.4583 -12.2178
v -24.0570 32.0149 -13.1165
v -12.0905 31.1839 -11.8464
v 14.8105 -36.9902 -1.8633
v 23.9430 -38.2952 -1.8633
v 33.4911 -36.8715 -1.8633
v 12.3301 -27.5665 -1.8633
v 39.3339 -27.5665 -1.8633
v 13.4627 -17.2677 -1.8633
v 23.9430 -14.0465 -1.8633
v 37.7857 -16.3454 -1.8633
v -33.2932 10.9572 0.8521
v -25.5958 11.1009 -3.4341
v -15.4399 11.8749 -1.8633
v -35.4025 18.8532 -3.4341
v -31.9550 12.4663 -9.8146
v -10.6061 20.4335 -1.8633
v -35.3117 31.4000 -1.8633
v -24.0570 34.8644 -1.8633
v -11.2232 31.8979 -1.8633
v 14.8389 -37.1218 8.5158
v 23.9430 -37.2406 8.9252
v 32.8305 -36.2434 7.4756
v 14.2172 -27.5665 9.3035
v 23.9430 -27.5665 12.6136
v 34.8753 -27.5665 9.4468
v 14.7461 -18.2181 7.9801
v 23.9430 -17.1555 9.8251
v 34.9652 -17.7004 9.2113
v -33.2932 10.9572 8.5760
v -24.0570 11.1596 8.2976
v -15.7844 12.2111 6.5787
v -34.3899 20.4335 10.0361
v -24.0570 20.4335 12.3264
v -13.9936 20.4335 8.4270
v -33.9313 30.3640 8.8967
v -24.0570 31.2830 10.1655
v -13.5784 30.3023 8.7484
f 5 1 4
f 5 2 1
f 5 3 2
f 5 6 3
f 7 5 4
f 7 8 5
f 9 5 8
f 9 6 5
f 14 10 13
f 14 11 10
f 16 12 15
f 16 13 12
f 16 14 13
f 16 17 14
f 19 1 2
f 19 18 1
f 3 19 2
f 3 20 19
f 21 1 18
f 21 4 1
f 20 3 6
f 20 6 22
f 21 7 4
f 21 23 7
f 24 8 7
f 24 7 23
f 22 6 9
f 22 9 25
f 9 8 24
f 9 24 25
f 28 10 11
f 28 27 10
f 30 10 27
f 30 13 10
f 30 12 13
f 30 29 12
f 30 26 29
f 30 27 26
f 31 28 11
f 31 11 14
f 32 12 29
f 32 15 12
f 33 16 15
f 33 15 32
f 31 14 17
f 31 17 34
f 17 16 33
f 17 33 34
f 19 35 18
f 19 36 35
f 37 19 20
f 37 36 19
f 35 21 18
f 35 38 21
f 38 35 36
f 38 36 39
f 37 20 22
f 37 22 40
f 39 36 37
f 39 37 40
f 41 21 38
f 41 23 21
f 24 23 41
f 24 41 42
f 41 38 39
f 41 39 42
f 43 40 22
f 43 22 25
f 43 25 24
f 43 24 42
f 42 39 40
f 42 40 43
f 45 26 27
f 45 44 26
f 28 45 27
f 28 46 45
f 47 26 44
f 47 29 26
f 48 47 44
f 48 44 45
f 46 28 31
f 46 31 49
f 48 45 46
f 48 46 49
f 47 32 29
f 47 50 32
f 33 32 50
f 33 50 51
f 50 47 48
f 50 48 51
f 52 49 31
f 52 31 34
f 52 34 33
f 52 33 51
f 52 51 48
f 52 48 49
