# parsimony mesh: cplx_CPLX0-2681 (source /Users/eranagmon/code/v2e-cplx/workspace/studies/ecoli-3d/viz/3d/structures/cplx_CPLX0-2681.pdb)
# atoms: 2570  voxel: 8 Å  verts: 467  tris: 936
v 60.4257 -64.7522 -31.5475
v 62.9611 -64.7522 -31.5475
v 60.4257 -62.3240 -31.5475
v 65.0645 -60.2248 -31.6276
v 69.9429 -58.1257 -31.7077
v 67.1678 -54.4081 -31.7077
v 69.9429 -54.4081 -31.7077
v 60.1742 -42.4495 -31.6624
v 63.1899 -42.4495 -31.6624
v 60.1742 -39.6331 -31.6624
v 63.1899 -39.6331 -31.6624
v -67.4319 63.1034 -31.5404
v -65.2769 63.1034 -31.5404
v -67.4319 65.2589 -31.5404
v -62.9423 67.5989 -31.7010
v -57.5868 69.9389 -31.8616
v -60.6077 73.3297 -31.8616
v -57.5868 73.3297 -31.8616
v -66.9593 86.9376 -31.2073
v -65.9690 86.9376 -31.2073
v -66.9593 87.8776 -31.2073
v -65.9690 87.8776 -31.2073
v 61.0109 -72.3099 -23.2994
v 62.0347 -72.3099 -23.2994
v 75.8539 -72.4146 -23.5797
v 77.4558 -72.4146 -23.5797
v 52.7445 -64.6967 -23.8503
v 58.0517 -67.3911 -26.2416
v 65.1646 -68.1022 -26.8736
v 73.1806 -68.5522 -26.0329
v 78.0637 -68.2021 -25.2676
v 52.5169 -60.2021 -23.9662
v 57.5237 -59.8752 -28.2406
v 65.0645 -60.2248 -30.4885
v 72.7298 -60.6358 -27.9874
v 78.0761 -63.1459 -25.5269
v 52.4791 -52.2021 -24.1019
v 57.1706 -52.2021 -27.4250
v 64.7690 -51.9257 -30.1618
v 72.7298 -51.8240 -27.3915
v 77.9140 -49.2399 -24.3604
v 52.6941 -47.4529 -24.0313
v 57.4440 -44.9512 -27.4244
v 65.5822 -44.7505 -30.0995
v 73.0938 -44.0788 -26.2252
v 77.9140 -46.6633 -24.3604
v 59.5807 -39.1763 -27.1247
v 65.5822 -39.0341 -27.5051
v 70.3758 -39.6232 -25.0920
v -67.1729 55.5526 -23.5635
v -62.8294 55.6085 -23.4718
v -54.8294 55.4080 -24.0589
v -50.1075 55.2852 -24.3463
v -74.9783 63.5822 -23.3610
v -69.9691 60.6761 -26.1289
v -62.6979 60.1812 -27.6270
v -54.8294 59.7979 -27.2632
v -49.5106 59.7979 -25.9644
v -75.3029 67.7979 -23.6146
v -70.3909 67.8745 -27.6966
v -62.9423 67.5989 -30.1286
v -54.8533 67.4738 -27.9276
v -49.7928 65.0087 -25.6894
v -75.3120 74.4170 -23.5417
v -71.6171 76.5694 -25.6952
v -63.0964 75.9170 -29.5468
v -54.8533 75.9944 -27.1165
v -50.0334 78.6590 -24.2718
v -69.0782 84.0818 -27.6650
v -63.1132 84.0818 -29.7418
v -54.8640 83.9326 -25.8898
v -50.0334 81.3558 -24.2718
v -67.6557 88.4438 -27.1247
v -63.1132 88.5831 -27.4997
v -57.5537 88.2454 -25.0830
v 60.7674 -72.4685 -19.1247
v 62.3645 -72.4685 -19.1247
v 75.8539 -72.4146 -22.4768
v 77.4558 -72.4146 -22.4768
v 52.2488 -65.1069 -19.1247
v 56.7674 -69.1069 -19.1247
v 66.3645 -70.7051 -19.1247
v 73.1806 -70.1320 -19.5360
v 78.3351 -68.1296 -19.5360
v 44.7780 -56.6626 -15.6025
v 48.9659 -59.6784 -18.6114
v 75.3158 -58.1077 -19.1247
v 78.4123 -62.1077 -19.1247
v 44.7780 -55.2815 -15.6025
v 48.5232 -52.4497 -18.6114
v 74.7404 -52.0248 -19.3206
v 77.9140 -49.2399 -22.1179
v 51.6955 -46.6215 -19.1247
v 55.8173 -42.6215 -19.1247
v 74.1202 -44.0788 -19.3206
v 77.9140 -46.6633 -22.1179
v 59.8173 -39.4080 -19.1247
v 65.1706 -38.6239 -19.1247
v 70.5406 -39.4180 -19.1247
v -67.5349 55.2891 -19.1247
v -62.8508 55.3865 -19.9023
v -54.8294 55.4080 -21.6753
v -50.1075 55.2852 -21.2295
v -75.6821 62.8818 -19.1247
v -71.5349 58.8818 -19.1247
v -60.1984 56.7908 -17.7540
v -54.8294 56.9973 -17.6753
v -49.0982 59.3617 -18.7876
v -83.1047 71.4928 -15.4524
v -79.0011 68.4149 -18.5213
v -52.4988 70.0168 -19.1247
v -49.2069 66.0168 -19.1247
v -83.1047 72.1973 -15.4524
v -78.1826 75.9738 -19.2753
v -74.8089 79.7504 -23.0982
v -53.0386 75.9146 -19.2779
v -50.0334 78.6590 -22.0466
v -75.7199 80.6379 -17.7648
v -71.3051 83.8303 -19.3986
v -65.0344 87.0226 -15.6989
v -54.0064 83.9326 -19.2779
v -50.0334 81.3558 -22.0466
v -67.8013 88.5793 -21.0323
v -62.5524 88.5979 -18.6693
v -57.7086 88.2119 -19.1247
v 60.7926 -72.4495 -14.4753
v 61.8982 -72.4495 -14.4753
v 52.3574 -65.0741 -11.1247
v 57.7438 -68.8465 -11.5351
v 64.8072 -69.5339 -11.5351
v 73.2584 -66.3145 -11.0814
v 77.9206 -65.4146 -13.7191
v 44.3252 -56.6929 -11.1247
v 48.3574 -60.6929 -11.1247
v 76.1676 -60.0109 -11.2664
v 77.9742 -60.0109 -11.2664
v 36.5325 -49.7504 -7.7382
v 41.9403 -52.5160 -10.4274
v 46.3470 -49.9482 -13.1166
v 68.8625 -48.4978 -7.3803
v 73.3057 -52.0099 -10.7637
v 78.0278 -55.5220 -8.8137
v 36.5325 -47.6491 -7.7382
v 41.1706 -47.5012 -8.0787
v 49.0764 -46.4274 -10.7199
v 57.5620 -42.8379 -11.6339
v 65.7857 -44.3837 -9.8814
v 70.4536 -44.2021 -12.9342
v 60.4896 -39.9419 -14.6400
v 65.1706 -39.6570 -14.3789
v 69.7920 -39.7355 -14.6151
v -67.4266 55.3648 -13.7311
v -65.5317 55.3648 -13.7311
v -75.9053 62.5681 -11.1247
v -70.3878 58.7058 -11.0886
v -62.8508 58.0118 -11.0886
v -54.3414 60.8838 -10.6713
v -49.7026 61.7375 -13.0357
v -84.8051 71.0971 -11.1247
v -79.9053 67.0971 -11.1247
v -51.5572 67.7806 -10.7664
v -49.8661 67.7806 -10.7664
v -91.1427 77.6835 -7.4759
v -86.8132 74.9404 -10.2793
v -81.0532 77.5306 -13.0827
v -53.6164 75.2753 -11.1481
v -50.0296 72.2603 -8.4970
v -91.1427 80.0706 -7.4759
v -86.8294 80.3777 -7.8565
v -78.5637 80.9956 -10.6995
v -70.8294 83.0288 -11.1247
v -62.5524 84.9375 -11.8451
v -57.7240 83.2502 -11.8451
v -59.7011 87.9025 -14.9921
v -58.6108 87.9025 -14.9921
v 52.2950 -72.9879 -0.2192
v 57.1706 -73.3011 -0.6616
v 61.8137 -72.8817 -0.0795
v 51.6280 -67.6726 -2.9814
v 57.1706 -69.4738 -4.6616
v 64.1734 -67.9350 -3.0070
v 70.6503 -65.0898 -5.9346
v 44.4360 -56.3960 -5.1235
v 47.4766 -59.5184 -2.7240
v 59.5874 -58.8366 -0.7277
v 64.3880 -60.9828 -1.9894
v 73.2584 -60.2145 -5.0494
v 78.0278 -57.5562 -5.8276
v 36.5325 -49.7504 -4.6389
v 41.5298 -52.3311 -3.7622
v 48.4939 -52.2847 -1.4930
v 57.0207 -52.2847 -1.9166
v 65.7857 -51.5795 -5.0943
v 73.1706 -53.9138 -5.4231
v 78.0278 -55.5220 -5.8276
v 36.5325 -47.6491 -4.6389
v 41.1706 -47.5012 -4.4225
v 49.1706 -47.0024 -5.5860
v 57.1706 -46.5156 -5.4123
v 63.5291 -47.1714 -5.7762
v 77.0004 -40.7214 0.8165
v 77.2339 -40.7214 0.8165
v 68.8842 -32.8392 0.5887
v 73.5549 -36.3799 0.7026
v 77.2339 -39.9206 0.8165
v 68.8842 -31.9340 0.5887
v 70.1095 -31.9340 0.5887
v -75.4926 54.9744 -0.0649
v -70.8294 54.6431 -0.8156
v -66.1228 55.0816 -0.4390
v -76.2833 60.2175 -2.8888
v -70.8294 58.1871 -4.8156
v -63.3996 59.8130 -3.0273
v -56.6828 62.6752 -5.6155
v -85.6925 71.1997 -3.1247
v -80.1494 67.1997 -3.1247
v -68.5294 69.9857 -0.6244
v -63.1376 67.5106 -1.7445
v -54.3414 67.5285 -4.9736
v -50.0296 70.0156 -6.0064
v -91.1427 77.6835 -6.0648
v -87.4048 75.1098 -2.9829
v -78.8294 76.8689 -1.2150
v -71.0494 75.4118 -1.9932
v -62.8294 75.7979 -3.9612
v -55.3815 75.2753 -5.4609
v -50.0296 72.2603 -6.0064
v -91.1427 80.0706 -6.0648
v -86.8294 80.3777 -4.9120
v -78.8294 80.6650 -5.2150
v -70.8294 80.9803 -5.5855
v -62.8294 80.8038 -5.5546
v -54.9096 83.1234 -2.9026
v -50.5270 86.0285 0.6225
v -51.4030 88.4947 0.6225
v -50.5270 88.4947 0.6225
v 58.6282 -80.8452 8.1516
v 61.8436 -80.8452 8.1516
v 52.2597 -74.6507 4.8753
v 56.4451 -77.7688 5.2411
v 62.1669 -75.8098 5.2411
v 51.0884 -68.2021 4.8753
v 58.9859 -65.9136 6.2562
v 61.7806 -68.4290 4.1038
v 50.7568 -60.9044 4.4454
v 56.6200 -61.4380 3.8742
v 61.1997 -64.1700 0.9229
v 76.0535 -57.3077 7.5558
v 77.9684 -57.3077 7.5558
v 50.7094 -55.0064 1.4922
v 54.2541 -55.0064 1.4922
v 75.6159 -52.2021 6.7958
v 78.0170 -52.2021 6.7958
v 75.8921 -43.7137 4.8034
v 77.6488 -43.7137 4.8034
v 68.8842 -32.8392 1.4044
v 73.6408 -36.6829 3.3877
v 77.5202 -39.5658 4.8753
v 68.8842 -31.9340 1.4044
v 70.1095 -31.9340 1.4044
v -69.2038 46.8837 7.8567
v -65.7926 46.8837 7.8567
v -75.3370 54.8898 4.8753
v -71.4541 51.4416 5.0641
v -65.3907 52.1682 5.0641
v -76.0236 59.0828 5.2986
v -70.8294 60.9799 7.1625
v -65.5210 59.8586 4.6817
v -84.2879 71.6296 0.9359
v -78.8175 68.4969 2.3658
v -71.0494 67.5106 2.9359
v -66.0098 64.6524 1.8860
v -51.6473 69.9771 7.5492
v -49.8253 69.9771 7.5492
v -84.2879 72.5361 0.9359
v -78.8294 72.8689 1.2093
v -73.8627 72.4878 1.2600
v -52.0776 75.7979 6.3896
v -49.7255 75.7979 6.3896
v -51.8143 83.5363 4.4823
v -50.2773 83.5363 4.4823
v -51.4257 88.4334 4.8753
v -50.4901 88.4334 4.8753
v 52.1380 -88.9432 15.9993
v 54.6154 -88.9432 15.9993
v 52.2436 -84.2021 14.5440
v 56.7099 -82.7634 13.0341
v 61.8436 -80.8452 11.0209
v 52.8995 -77.3211 12.0302
v 55.7256 -78.0413 12.2738
v 61.9336 -76.2021 10.9399
v 52.8057 -68.2021 9.3750
v 56.6598 -68.4290 9.6393
v 61.5150 -71.2469 9.4824
v 76.2969 -66.2883 15.8640
v 78.1093 -66.2883 15.8640
v 53.0230 -64.0394 8.9992
v 53.6526 -64.0394 8.9992
v 76.1752 -59.5858 13.5588
v 78.0389 -59.5858 13.5588
v 75.6159 -52.2021 10.9858
v 78.0170 -52.2021 10.9858
v 75.7001 -44.2021 9.6099
v 77.7209 -44.2021 9.6099
v 76.1657 -39.6351 9.4192
v 77.5735 -39.6351 9.4192
v -75.8999 38.8234 15.5400
v -70.8294 38.9465 15.7968
v -66.7780 39.6372 16.7725
v -75.8999 41.9255 15.5400
v -71.4934 44.4046 13.4896
v -65.9626 44.0494 13.6136
v -74.8431 55.4106 8.8946
v -71.4934 51.8885 11.9953
v -65.6008 51.3390 12.6078
v -74.8431 55.9394 8.8946
v -70.8294 56.9799 9.5554
v -66.1750 57.2323 9.7628
v -51.3977 62.5870 15.3264
v -49.8966 62.5870 15.3264
v -51.5225 67.5648 12.9220
v -49.8610 67.5648 12.9220
v -52.0776 75.7979 10.6056
v -49.7255 75.7979 10.6056
v -51.6303 83.7979 9.5019
v -50.3661 83.7979 9.5019
v -51.0508 87.9485 9.0461
v -50.6794 87.9485 9.0461
v 51.6243 -90.2222 20.8753
v 54.7569 -90.2222 20.8753
v 85.0967 -88.2185 24.8599
v 85.1876 -88.2185 24.8599
v 51.8116 -84.5729 20.2261
v 55.2532 -84.5729 20.2261
v 76.4173 -81.5477 24.1430
v 81.9262 -84.2095 24.1917
v 85.3399 -84.2021 24.5701
v 52.9672 -79.9611 17.1267
v 54.5265 -79.9611 17.1267
v 76.4099 -76.2021 23.4197
v 81.3811 -75.7608 23.4758
v 85.3794 -78.1332 24.4836
v 69.1486 -64.2561 24.8194
v 74.1640 -67.4121 22.2373
v 78.4821 -68.9901 20.9462
v 69.1486 -64.1744 24.8194
v 72.7912 -63.0192 21.5225
v 78.1093 -61.8640 18.2257
v -75.1432 31.5556 24.4912
v -74.4666 31.5556 24.4912
v -76.0911 36.0132 21.4448
v -71.6211 36.5637 20.7336
v -66.7780 39.6372 16.9761
v -43.7606 39.5546 24.6529
v -42.5696 39.5546 24.6529
v -76.1712 41.8686 20.8753
v -71.2792 43.8450 19.7458
v -66.5235 43.7979 17.1810
v -51.0469 47.0177 24.5915
v -46.5881 44.1298 24.0287
v -42.1986 43.7979 24.0299
v -68.4496 48.3664 17.1821
v -66.4729 48.3664 17.1821
v -51.0469 49.3667 24.5915
v -46.8294 50.4915 23.9838
v -42.2481 49.8205 23.9704
v -51.3977 62.5870 17.9792
v -49.8966 62.5870 17.9792
v -51.3977 65.1524 17.9792
v -49.8966 65.1524 17.9792
v 52.0988 -89.9443 28.8753
v 53.7125 -89.9443 28.8753
v 83.6582 -88.4895 28.8753
v 85.4401 -88.4895 28.8753
v 52.0988 -87.6100 28.8753
v 53.7125 -87.6100 28.8753
v 76.4173 -81.5477 25.7051
v 81.4957 -84.4677 28.2854
v 85.5115 -84.5135 28.4696
v 76.4099 -76.2021 25.5986
v 81.3811 -75.7608 25.8482
v 85.3794 -78.1332 25.5324
v 69.1486 -64.2561 24.8973
v 73.0976 -67.9740 24.9536
v 78.8548 -71.6919 25.0099
v 69.1486 -64.1744 24.8973
v 69.2856 -64.1744 24.8973
v -75.3983 31.4562 28.8753
v -74.3582 31.4562 28.8753
v -76.3656 35.7979 28.8753
v -73.6641 35.7979 28.8753
v -44.6081 38.9533 28.8753
v -42.0299 38.9533 28.8753
v -75.7967 40.4439 28.8753
v -74.1353 40.4439 28.8753
v -51.0469 47.0177 25.1223
v -46.6819 43.9458 28.1765
v -41.8410 43.6435 28.6885
v -51.0469 49.3667 25.1223
v -46.8294 50.4915 25.8272
v -42.2481 49.8205 25.8974
v 52.3692 -96.6996 39.1673
v 57.1706 -96.5839 39.5870
v 65.1706 -96.3279 40.7686
v 73.1706 -96.5116 40.4215
v 77.5595 -96.4587 40.4027
v 52.5699 -91.5175 36.2151
v 55.4787 -92.1770 36.8767
v 65.1706 -95.9775 40.7686
v 73.1706 -94.4433 40.4215
v 80.2026 -91.0594 38.3870
v 85.5880 -88.7535 36.8753
v 52.7706 -88.1279 33.2629
v 53.2228 -88.1279 33.2629
v 82.1849 -87.3675 36.8753
v 85.5880 -87.3675 36.8753
v -75.7396 31.1700 36.8753
v -71.4701 31.0862 37.4928
v -62.8294 31.4421 40.5883
v -54.8294 31.2002 40.0704
v -49.7144 31.1264 39.8806
v -75.9003 35.8418 36.4866
v -71.9276 35.3947 37.0659
v -62.8294 32.2494 40.5883
v -54.8294 32.8858 40.0704
v -46.8297 36.1901 38.1632
v -41.9241 38.5075 36.8753
v -75.4005 40.0259 33.5608
v -74.6245 40.0259 33.5608
v -44.6662 40.9162 36.8753
v -41.9241 40.9162 36.8753
v 52.3692 -96.6996 42.3625
v 57.1706 -96.5839 42.8922
v 64.4833 -96.3943 44.7965
v 72.7533 -96.5412 44.6559
v 77.5595 -96.4587 41.8431
v 52.3692 -94.4622 42.3625
v 57.1706 -94.8802 42.8922
v 64.4833 -95.7480 44.7965
v 72.7533 -94.5206 44.6559
v 80.3459 -91.3522 41.4805
v 85.3848 -88.5704 41.1179
v 83.1323 -87.9036 41.1179
v 85.3848 -87.9036 41.1179
v -75.5983 31.1740 43.1766
v -71.0352 31.0935 45.4560
v -62.8294 30.8148 44.8753
v -54.3371 30.9386 45.3890
v -49.7144 31.1264 43.0649
v -75.5983 33.2043 43.1766
v -71.0352 33.1073 45.4560
v -62.8294 33.2086 44.8753
v -54.3371 33.2423 45.3890
v -46.7762 36.0303 42.1692
v -42.4287 38.9603 41.2735
v -43.8381 40.2130 41.2735
v -42.4287 40.2130 41.2735
v 66.6917 -96.3547 49.0409
v 69.8084 -96.3547 49.0409
v 66.6917 -95.7446 49.0409
v 69.8084 -95.7446 49.0409
v -68.5057 31.5969 49.0391
v -62.8294 31.1706 49.4651
v -56.6756 31.1626 49.4979
v -68.5057 32.1201 49.0391
v -62.8294 32.7572 49.4651
v -56.6756 32.7548 49.4979
f 3 2 1
f 3 4 2
f 6 5 4
f 6 7 5
f 10 9 8
f 10 11 9
f 14 13 12
f 14 15 13
f 17 16 15
f 17 18 16
f 21 20 19
f 21 22 20
f 29 1 2
f 29 28 1
f 29 23 28
f 29 24 23
f 31 25 30
f 31 26 25
f 33 1 28
f 33 3 1
f 33 27 32
f 33 28 27
f 34 29 2
f 34 2 4
f 34 4 3
f 34 3 33
f 5 34 4
f 5 35 34
f 35 29 34
f 35 30 29
f 36 30 35
f 36 31 30
f 38 32 37
f 38 33 32
f 34 6 4
f 34 39 6
f 39 33 38
f 39 34 33
f 35 5 7
f 35 7 40
f 7 6 39
f 7 39 40
f 42 38 37
f 42 43 38
f 44 8 9
f 44 43 8
f 43 39 38
f 43 44 39
f 44 40 39
f 44 45 40
f 45 41 40
f 45 46 41
f 47 8 43
f 47 10 8
f 44 9 11
f 44 11 48
f 11 10 47
f 11 47 48
f 49 44 48
f 49 45 44
f 56 12 13
f 56 55 12
f 56 50 55
f 56 51 50
f 57 51 56
f 57 52 51
f 57 53 52
f 57 58 53
f 60 12 55
f 60 14 12
f 60 54 59
f 60 55 54
f 61 56 13
f 61 13 15
f 61 15 14
f 61 14 60
f 16 61 15
f 16 62 61
f 62 56 61
f 62 57 56
f 63 57 62
f 63 58 57
f 64 60 59
f 64 65 60
f 61 17 15
f 61 66 17
f 66 60 65
f 66 61 60
f 62 16 18
f 62 18 67
f 18 17 66
f 18 66 67
f 70 19 20
f 70 69 19
f 69 66 65
f 69 70 66
f 70 67 66
f 70 71 67
f 71 68 67
f 71 72 68
f 73 19 69
f 73 21 19
f 74 70 20
f 74 20 22
f 22 21 73
f 22 73 74
f 75 70 74
f 75 71 70
f 24 76 23
f 24 77 76
f 26 78 25
f 26 79 78
f 81 23 76
f 81 28 23
f 81 27 28
f 81 80 27
f 82 77 24
f 82 24 29
f 83 25 78
f 83 30 25
f 30 82 29
f 30 83 82
f 79 26 31
f 79 31 84
f 83 78 79
f 83 79 84
f 80 32 27
f 80 86 32
f 84 31 36
f 84 36 88
f 36 35 87
f 36 87 88
f 86 37 32
f 86 90 37
f 90 85 89
f 90 86 85
f 87 35 40
f 87 40 91
f 41 91 40
f 41 92 91
f 93 37 90
f 93 42 37
f 94 43 42
f 94 42 93
f 92 41 46
f 92 46 96
f 46 45 95
f 46 95 96
f 96 95 91
f 96 91 92
f 94 47 43
f 94 97 47
f 98 48 47
f 98 47 97
f 95 45 49
f 95 49 99
f 49 48 98
f 49 98 99
f 101 50 51
f 101 100 50
f 102 51 52
f 102 101 51
f 53 102 52
f 53 103 102
f 105 50 100
f 105 55 50
f 105 54 55
f 105 104 54
f 106 101 102
f 106 102 107
f 103 53 58
f 103 58 108
f 107 102 103
f 107 103 108
f 104 59 54
f 104 110 59
f 108 58 63
f 108 63 112
f 63 62 111
f 63 111 112
f 110 64 59
f 110 114 64
f 113 110 109
f 113 114 110
f 115 65 64
f 115 64 114
f 111 62 67
f 111 67 116
f 68 116 67
f 68 117 116
f 115 69 65
f 115 119 69
f 118 115 114
f 118 119 115
f 117 68 72
f 117 72 122
f 122 72 71
f 122 71 121
f 122 121 116
f 122 116 117
f 123 69 119
f 123 73 69
f 74 73 123
f 74 123 124
f 123 119 120
f 123 120 124
f 121 71 75
f 121 75 125
f 75 74 124
f 75 124 125
f 127 76 77
f 127 126 76
f 126 81 76
f 126 129 81
f 81 128 80
f 81 129 128
f 127 77 82
f 127 82 130
f 130 129 126
f 130 126 127
f 131 82 83
f 131 130 82
f 132 83 84
f 132 131 83
f 128 86 80
f 128 134 86
f 134 85 86
f 134 133 85
f 132 84 88
f 132 88 136
f 88 87 135
f 88 135 136
f 135 131 132
f 135 132 136
f 133 89 85
f 133 138 89
f 139 90 89
f 139 89 138
f 141 135 87
f 141 87 91
f 142 135 141
f 142 136 135
f 144 137 143
f 144 138 137
f 139 93 90
f 139 145 93
f 144 139 138
f 144 145 139
f 146 94 93
f 146 93 145
f 148 141 91
f 148 91 95
f 148 147 140
f 148 140 141
f 149 94 146
f 149 97 94
f 98 97 149
f 98 149 150
f 149 146 147
f 149 147 150
f 151 148 95
f 151 95 99
f 151 99 98
f 151 98 150
f 150 147 148
f 150 148 151
f 153 100 101
f 153 152 100
f 152 105 100
f 152 155 105
f 105 154 104
f 105 155 154
f 153 101 106
f 153 106 156
f 156 155 152
f 156 152 153
f 157 106 107
f 157 156 106
f 158 107 108
f 158 157 107
f 154 110 104
f 154 160 110
f 160 109 110
f 160 159 109
f 158 108 112
f 158 112 162
f 112 111 161
f 112 161 162
f 161 157 158
f 161 158 162
f 159 113 109
f 159 164 113
f 165 114 113
f 165 113 164
f 166 161 111
f 166 111 116
f 167 161 166
f 167 162 161
f 169 163 168
f 169 164 163
f 165 118 114
f 165 170 118
f 169 165 164
f 169 170 165
f 171 119 118
f 171 118 170
f 120 119 171
f 120 171 172
f 173 166 116
f 173 116 121
f 174 120 172
f 174 124 120
f 175 173 121
f 175 121 125
f 125 124 174
f 125 174 175
f 175 174 172
f 175 172 173
f 180 128 129
f 180 179 128
f 180 176 179
f 180 177 176
f 130 180 129
f 130 181 180
f 180 178 177
f 180 181 178
f 182 130 131
f 182 181 130
f 184 128 179
f 184 134 128
f 134 183 133
f 134 184 183
f 187 182 131
f 187 131 135
f 186 181 182
f 186 182 187
f 188 135 136
f 188 187 135
f 183 138 133
f 183 190 138
f 190 137 138
f 190 189 137
f 191 190 183
f 191 183 184
f 193 192 185
f 193 185 186
f 194 141 140
f 194 140 193
f 193 186 187
f 193 187 194
f 188 136 142
f 188 142 195
f 142 141 194
f 142 194 195
f 194 187 188
f 194 188 195
f 189 143 137
f 189 196 143
f 197 144 143
f 197 143 196
f 197 196 189
f 197 189 190
f 198 145 144
f 198 144 197
f 197 190 191
f 197 191 198
f 199 146 145
f 199 145 198
f 198 191 192
f 198 192 199
f 200 193 140
f 200 140 147
f 200 147 146
f 200 146 199
f 200 199 192
f 200 192 193
f 205 201 204
f 205 202 201
f 207 203 206
f 207 204 203
f 212 154 155
f 212 211 154
f 212 208 211
f 212 209 208
f 156 212 155
f 156 213 212
f 212 210 209
f 212 213 210
f 214 156 157
f 214 213 156
f 216 154 211
f 216 160 154
f 216 159 160
f 216 215 159
f 219 214 157
f 219 157 161
f 218 213 214
f 218 214 219
f 220 161 162
f 220 219 161
f 215 164 159
f 215 222 164
f 222 163 164
f 222 221 163
f 225 224 217
f 225 217 218
f 226 225 218
f 226 218 219
f 220 162 167
f 220 167 227
f 167 166 226
f 167 226 227
f 227 226 219
f 227 219 220
f 221 168 163
f 221 228 168
f 169 168 228
f 169 228 229
f 229 228 221
f 229 221 222
f 230 170 169
f 230 169 229
f 229 222 223
f 229 223 230
f 231 171 170
f 231 170 230
f 230 223 224
f 230 224 231
f 232 172 171
f 232 171 231
f 231 224 225
f 231 225 232
f 226 166 173
f 226 173 233
f 173 172 232
f 173 232 233
f 232 225 226
f 232 226 233
f 235 234 233
f 235 236 234
f 177 239 176
f 177 240 239
f 241 177 178
f 241 240 177
f 241 237 240
f 241 238 237
f 242 176 239
f 242 179 176
f 244 241 178
f 244 178 181
f 245 179 242
f 245 184 179
f 247 244 181
f 247 181 186
f 247 186 185
f 247 185 246
f 247 246 243
f 247 243 244
f 250 184 245
f 250 191 184
f 251 246 185
f 251 185 192
f 251 192 191
f 251 191 250
f 251 250 245
f 251 245 246
f 253 248 252
f 253 249 248
f 255 201 202
f 255 254 201
f 255 252 254
f 255 253 252
f 257 201 254
f 257 204 201
f 204 256 203
f 204 257 256
f 258 255 202
f 258 202 205
f 205 204 257
f 205 257 258
f 256 206 203
f 256 259 206
f 260 257 204
f 260 204 207
f 207 206 259
f 207 259 260
f 260 259 256
f 260 256 257
f 209 263 208
f 209 264 263
f 265 209 210
f 265 264 209
f 265 261 264
f 265 262 261
f 266 208 263
f 266 211 208
f 268 265 210
f 268 210 213
f 270 211 266
f 270 216 211
f 216 269 215
f 216 270 269
f 271 270 266
f 271 266 267
f 272 268 213
f 272 213 218
f 272 218 217
f 272 217 271
f 272 271 267
f 272 267 268
f 275 215 269
f 275 222 215
f 223 222 275
f 223 275 276
f 276 275 269
f 276 269 270
f 277 271 217
f 277 217 224
f 277 224 223
f 277 223 276
f 277 276 270
f 277 270 271
f 279 273 278
f 279 274 273
f 234 280 233
f 234 281 280
f 281 278 280
f 281 279 278
f 280 235 233
f 280 282 235
f 283 281 234
f 283 234 236
f 236 235 282
f 236 282 283
f 286 285 284
f 286 287 285
f 288 237 238
f 288 287 237
f 290 237 287
f 290 240 237
f 240 289 239
f 240 290 289
f 289 287 286
f 289 290 287
f 291 288 238
f 291 238 241
f 290 287 288
f 290 288 291
f 292 239 289
f 292 242 239
f 293 292 289
f 293 289 290
f 294 291 241
f 294 241 244
f 294 244 243
f 294 243 293
f 294 293 290
f 294 290 291
f 297 242 292
f 297 245 242
f 298 293 243
f 298 243 246
f 298 246 245
f 298 245 297
f 298 297 292
f 298 292 293
f 249 299 248
f 249 300 299
f 300 295 299
f 300 296 295
f 301 248 299
f 301 252 248
f 302 300 249
f 302 249 253
f 302 301 299
f 302 299 300
f 303 252 301
f 303 254 252
f 304 302 253
f 304 253 255
f 304 303 301
f 304 301 302
f 305 254 303
f 305 257 254
f 306 304 255
f 306 255 258
f 258 257 305
f 258 305 306
f 305 303 304
f 305 304 306
f 310 308 307
f 310 311 308
f 312 261 262
f 312 311 261
f 312 308 311
f 312 309 308
f 314 261 311
f 314 264 261
f 264 313 263
f 264 314 313
f 315 312 262
f 315 262 265
f 316 263 313
f 316 266 263
f 267 266 316
f 267 316 317
f 317 316 313
f 317 313 314
f 318 315 265
f 318 265 268
f 318 268 267
f 318 267 317
f 318 317 314
f 318 314 315
f 274 321 273
f 274 322 321
f 322 319 321
f 322 320 319
f 323 273 321
f 323 278 273
f 324 322 274
f 324 274 279
f 324 323 321
f 324 321 322
f 325 278 323
f 325 280 278
f 326 324 279
f 326 279 281
f 326 325 323
f 326 323 324
f 327 280 325
f 327 282 280
f 328 326 281
f 328 281 283
f 283 282 327
f 283 327 328
f 327 325 326
f 327 326 328
f 330 284 285
f 330 329 284
f 333 284 329
f 333 286 284
f 334 330 285
f 334 285 287
f 337 331 336
f 337 332 331
f 338 286 333
f 338 289 286
f 339 334 287
f 339 287 290
f 290 289 338
f 290 338 339
f 338 333 334
f 338 334 339
f 341 335 340
f 341 336 335
f 342 336 341
f 342 337 336
f 345 295 296
f 345 344 295
f 345 340 344
f 345 341 340
f 347 295 344
f 347 299 295
f 347 343 346
f 347 344 343
f 348 345 296
f 348 296 300
f 348 300 299
f 348 299 347
f 348 347 344
f 348 344 345
f 352 307 308
f 352 351 307
f 351 350 349
f 351 352 350
f 353 308 309
f 353 352 308
f 356 307 351
f 356 310 307
f 357 311 310
f 357 310 356
f 358 353 309
f 358 309 312
f 357 352 353
f 357 353 358
f 361 354 360
f 361 355 354
f 362 311 357
f 362 314 311
f 363 358 312
f 363 312 315
f 315 314 362
f 315 362 363
f 362 357 358
f 362 358 363
f 365 359 364
f 365 360 359
f 366 360 365
f 366 361 360
f 320 367 319
f 320 368 367
f 369 319 367
f 369 321 319
f 370 368 320
f 370 320 322
f 322 321 369
f 322 369 370
f 369 367 368
f 369 368 370
f 372 329 330
f 372 371 329
f 374 331 332
f 374 373 331
f 375 329 371
f 375 333 329
f 376 372 330
f 376 330 334
f 376 334 333
f 376 333 375
f 378 331 373
f 378 336 331
f 336 377 335
f 336 378 377
f 379 374 332
f 379 332 337
f 380 335 377
f 380 340 335
f 381 380 377
f 381 377 378
f 382 379 337
f 382 337 342
f 342 341 381
f 342 381 382
f 382 381 378
f 382 378 379
f 384 340 380
f 384 344 340
f 384 343 344
f 384 383 343
f 385 381 341
f 385 341 345
f 345 344 384
f 345 384 385
f 385 384 380
f 385 380 381
f 383 346 343
f 383 386 346
f 384 344 347
f 384 347 387
f 387 347 346
f 387 346 386
f 387 386 383
f 387 383 384
f 389 349 350
f 389 388 349
f 390 349 388
f 390 351 349
f 391 389 350
f 391 350 352
f 393 354 355
f 393 392 354
f 394 351 390
f 394 356 351
f 395 391 352
f 395 352 357
f 395 357 356
f 395 356 394
f 397 354 392
f 397 360 354
f 360 396 359
f 360 397 396
f 398 393 355
f 398 355 361
f 396 364 359
f 396 399 364
f 365 364 399
f 365 399 400
f 400 399 396
f 400 396 397
f 401 398 361
f 401 361 366
f 366 365 400
f 366 400 401
f 401 400 397
f 401 397 398
f 372 407 371
f 372 408 407
f 408 402 407
f 408 403 402
f 409 403 408
f 409 404 403
f 409 405 404
f 409 410 405
f 410 406 405
f 410 411 406
f 412 373 374
f 412 411 373
f 413 371 407
f 413 375 371
f 414 408 372
f 414 372 376
f 376 375 413
f 376 413 414
f 414 413 407
f 414 407 408
f 415 373 411
f 415 378 373
f 416 412 374
f 416 374 379
f 379 378 415
f 379 415 416
f 389 417 388
f 389 418 417
f 422 388 417
f 422 390 388
f 423 418 389
f 423 389 391
f 424 418 423
f 424 419 418
f 424 420 419
f 424 425 420
f 425 421 420
f 425 426 421
f 427 392 393
f 427 426 392
f 428 390 422
f 428 394 390
f 429 423 391
f 429 391 395
f 429 395 394
f 429 394 428
f 429 428 422
f 429 422 423
f 430 392 426
f 430 397 392
f 431 427 393
f 431 393 398
f 398 397 430
f 398 430 431
f 403 432 402
f 403 433 432
f 404 433 403
f 404 434 433
f 435 404 405
f 435 434 404
f 436 405 406
f 436 435 405
f 437 402 432
f 437 407 402
f 408 407 437
f 408 437 438
f 438 437 432
f 438 432 433
f 409 408 438
f 409 438 439
f 439 438 433
f 439 433 434
f 440 410 409
f 440 409 439
f 441 436 406
f 441 406 411
f 441 411 410
f 441 410 440
f 440 435 436
f 440 436 441
f 442 411 412
f 442 441 411
f 443 411 441
f 443 415 411
f 444 442 412
f 444 412 416
f 416 415 443
f 416 443 444
f 443 441 442
f 443 442 444
f 418 445 417
f 418 446 445
f 419 446 418
f 419 447 446
f 420 447 419
f 420 448 447
f 449 420 421
f 449 448 420
f 450 417 445
f 450 422 417
f 423 422 450
f 423 450 451
f 451 450 445
f 451 445 446
f 424 423 451
f 424 451 452
f 425 424 452
f 425 452 453
f 454 449 421
f 454 421 426
f 454 426 425
f 454 425 453
f 453 448 449
f 453 449 454
f 455 426 427
f 455 454 426
f 456 426 454
f 456 430 426
f 457 455 427
f 457 427 431
f 431 430 456
f 431 456 457
f 456 454 455
f 456 455 457
f 459 434 435
f 459 458 434
f 458 439 434
f 458 460 439
f 461 459 435
f 461 435 440
f 461 440 439
f 461 439 460
f 460 458 459
f 460 459 461
f 447 462 446
f 447 463 462
f 464 447 448
f 464 463 447
f 465 446 462
f 465 451 446
f 452 451 465
f 452 465 466
f 465 462 463
f 465 463 466
f 467 464 448
f 467 448 453
f 467 453 452
f 467 452 466
f 467 466 463
f 467 463 464
