# parsimony mesh: cplx_CPLX0-7962 (source /Users/eranagmon/code/v2e-cplx/workspace/studies/ecoli-3d/viz/3d/structures/cplx_CPLX0-7962.pdb)
# atoms: 2716  voxel: 16 Å  verts: 80  tris: 146
v 43.9711 -45.0607 -13.9705
v 46.2078 -45.0607 -13.9705
v 26.2488 -31.1022 -15.9889
v 38.2023 -36.4273 -16.0636
v 46.9037 -36.4150 -14.6886
v 26.2488 -23.2354 -15.9889
v 36.1158 -18.9072 -16.0549
v 46.9890 -20.4150 -14.6777
v 40.4935 -11.6135 -13.9559
v 46.3215 -11.6135 -13.9559
v -20.8215 18.7241 -14.2965
v -17.5180 18.7241 -14.2965
v -36.4686 32.5047 -15.2482
v -26.2733 27.3368 -15.9380
v -16.6269 27.5850 -15.0870
v -36.4686 38.4027 -15.2482
v -25.4943 43.6756 -15.4515
v -17.0791 43.5850 -14.4789
v -19.5232 51.8665 -13.4856
v -18.1210 51.8665 -13.4856
v 12.7634 -44.9828 1.7403
v 18.0493 -44.9828 1.7403
v 40.5700 -46.6740 -5.2014
v 47.3813 -46.6740 -5.2014
v 10.7647 -36.4150 -0.3864
v 22.1490 -37.6300 -4.6581
v 32.5700 -42.2375 -5.2014
v 49.3317 -36.4150 -5.2014
v 10.6224 -26.1874 -0.3898
v 21.1689 -21.6531 -5.5145
v 36.1158 -13.3924 -3.6057
v 47.5729 -18.8178 -3.6057
v 40.4935 -11.6135 -7.8751
v 46.3215 -11.6135 -7.8751
v -51.4651 18.6757 1.2572
v -42.4508 18.3915 0.1798
v -26.2733 16.7545 -4.7716
v -16.2377 16.5583 -5.2014
v -52.5005 27.5850 0.2219
v -42.0615 27.3368 -6.8330
v -31.4882 21.8381 -9.8184
v -13.7638 27.5850 -5.2014
v -52.1696 37.0091 0.9043
v -42.0615 39.7932 -4.7380
v -25.4943 47.5458 -5.7113
v -16.2738 44.1920 -5.7113
v -19.5232 51.8665 -11.3846
v -18.1210 51.8665 -11.3846
v 12.7634 -44.9828 3.3607
v 18.0493 -44.9828 3.3607
v 40.4883 -46.7812 6.4753
v 47.3333 -46.7812 6.4753
v 10.7647 -36.4150 6.2624
v 22.1152 -38.8001 10.4411
v 36.4693 -38.8001 11.7499
v 47.9771 -36.4150 8.2256
v 10.6224 -26.1874 6.8549
v 21.1284 -23.9249 11.6324
v 37.6899 -22.0642 11.3341
v 47.0023 -23.0863 6.3579
v -51.4651 18.6757 3.6871
v -42.4508 18.3915 7.2062
v -26.4508 16.6925 9.7936
v -16.4328 16.4103 7.1369
v -52.5005 27.5850 6.6107
v -42.4234 26.3349 15.2413
v -27.0640 26.3349 16.8577
v -15.5877 27.5850 8.6313
v -52.1696 37.0091 6.9929
v -42.4234 38.3926 11.7151
v -27.0640 39.7452 11.2617
v -16.6514 39.2634 6.2372
v 26.1812 -33.4423 19.4914
v 32.4504 -33.4423 19.4914
v 26.1812 -27.0217 19.4914
v 32.4504 -27.0217 19.4914
v -37.0718 30.8349 19.0905
v -32.8062 30.8349 19.0905
v -37.0718 36.0683 19.0905
v -32.8062 36.0683 19.0905
f 5 1 4
f 5 2 1
f 7 3 6
f 7 4 3
f 8 4 7
f 8 5 4
f 9 8 7
f 9 10 8
f 15 11 14
f 15 12 11
f 16 14 13
f 16 17 14
f 17 15 14
f 17 18 15
f 19 18 17
f 19 20 18
f 24 1 2
f 24 23 1
f 25 22 21
f 25 26 22
f 27 1 23
f 27 4 1
f 27 3 4
f 27 26 3
f 28 24 2
f 28 2 5
f 30 3 26
f 30 6 3
f 29 26 25
f 29 30 26
f 7 6 30
f 7 30 31
f 28 5 8
f 28 8 32
f 31 9 7
f 31 33 9
f 34 32 8
f 34 8 10
f 10 9 33
f 10 33 34
f 33 31 32
f 33 32 34
f 38 11 12
f 38 37 11
f 39 36 35
f 39 40 36
f 41 11 37
f 41 14 11
f 41 13 14
f 41 40 13
f 41 36 40
f 41 37 36
f 42 38 12
f 42 12 15
f 44 13 40
f 44 16 13
f 43 40 39
f 43 44 40
f 45 17 16
f 45 16 44
f 42 15 18
f 42 18 46
f 45 19 17
f 45 47 19
f 48 46 18
f 48 18 20
f 47 45 46
f 47 46 48
f 22 49 21
f 22 50 49
f 52 23 24
f 52 51 23
f 49 25 21
f 49 53 25
f 54 50 22
f 54 22 26
f 53 49 50
f 53 50 54
f 51 27 23
f 51 55 27
f 27 54 26
f 27 55 54
f 52 24 28
f 52 28 56
f 56 55 51
f 56 51 52
f 53 29 25
f 53 57 29
f 58 30 29
f 58 29 57
f 58 57 53
f 58 53 54
f 59 31 30
f 59 30 58
f 60 56 28
f 60 28 32
f 60 32 31
f 60 31 59
f 59 55 56
f 59 56 60
f 36 61 35
f 36 62 61
f 63 36 37
f 63 62 36
f 64 37 38
f 64 63 37
f 61 39 35
f 61 65 39
f 65 61 62
f 65 62 66
f 66 62 63
f 66 63 67
f 64 38 42
f 64 42 68
f 68 67 63
f 68 63 64
f 65 43 39
f 65 69 43
f 70 44 43
f 70 43 69
f 70 69 65
f 70 65 66
f 71 45 44
f 71 44 70
f 72 68 42
f 72 42 46
f 72 46 45
f 72 45 71
f 71 67 68
f 71 68 72
f 55 73 54
f 55 74 73
f 73 58 54
f 73 75 58
f 76 74 55
f 76 55 59
f 76 59 58
f 76 58 75
f 67 77 66
f 67 78 77
f 79 66 77
f 79 70 66
f 80 78 67
f 80 67 71
f 80 71 70
f 80 70 79
