# parsimony mesh: cplx_CPLX0-3939 (source /Users/eranagmon/code/v2e-cplx/workspace/studies/ecoli-3d/viz/3d/structures/cplx_CPLX0-3939.pdb)
# atoms: 2244  voxel: 8 Å  verts: 270  tris: 536
v 62.3620 -36.5873 -24.8902
v 63.4797 -36.5873 -24.8902
v 62.3620 -36.0546 -24.8902
v 63.4797 -36.0546 -24.8902
v -9.2989 35.5959 -24.7899
v -8.5996 35.5959 -24.7899
v -9.2989 35.8695 -24.7899
v -8.5996 35.8695 -24.7899
v 53.5487 -45.8678 -18.2602
v 56.6860 -45.8678 -18.2602
v 45.5216 -37.9913 -18.1478
v 51.0564 -40.4836 -19.6000
v 59.8367 -38.6643 -20.9829
v 63.4797 -36.5873 -23.3212
v 45.5216 -34.9031 -18.1478
v 51.3180 -34.6088 -19.1448
v 59.9059 -35.7223 -20.9098
v 63.4797 -36.0546 -23.3212
v -18.5168 26.3479 -18.1128
v -15.4423 26.3479 -18.1128
v -26.4579 33.9802 -18.1942
v -20.9829 31.4993 -19.5630
v -12.1143 33.4142 -21.1796
v -8.5996 35.5959 -23.8883
v -26.4579 37.1339 -18.1942
v -20.6820 37.4600 -19.2091
v -11.9729 36.2671 -21.2130
v -8.5996 35.8695 -23.8883
v 22.3106 -45.4389 -10.5749
v 27.3180 -45.8211 -10.8534
v 33.6618 -45.1373 -9.6828
v 45.0252 -46.1297 -10.3189
v 51.0564 -47.6915 -12.8633
v 57.1019 -47.1282 -12.6798
v 21.9279 -40.2221 -10.6128
v 27.3180 -40.2221 -12.5893
v 35.9243 -40.8180 -11.3020
v 42.6067 -40.9366 -13.0335
v 50.9417 -40.2878 -12.6268
v 58.0242 -40.0393 -12.4327
v 22.2782 -32.2221 -9.6750
v 27.3180 -32.2221 -12.0779
v 35.2431 -32.2551 -11.6431
v 43.0401 -34.4281 -12.9208
v 51.1279 -34.6958 -12.4327
v 57.4498 -35.3900 -14.9347
v 22.7776 -27.0422 -9.3245
v 27.9364 -24.3142 -10.0642
v 32.3217 -24.2221 -9.9268
v 31.0153 -20.1225 -8.7708
v 31.4478 -20.1225 -8.7708
v -49.7070 26.6024 -10.4805
v -44.6820 26.2288 -10.7723
v -38.0642 26.8880 -9.6691
v -27.2840 25.9648 -10.3641
v -20.9829 24.4327 -12.8904
v -15.0098 24.9562 -12.6798
v -49.9787 31.7779 -10.4798
v -44.6820 31.7779 -12.4987
v -35.9113 31.0063 -11.4056
v -29.5376 30.9027 -13.1142
v -21.2605 31.6766 -12.6717
v -14.1232 31.9350 -12.4595
v -49.6184 39.7779 -9.6074
v -44.6820 39.7779 -12.1638
v -36.7846 39.7317 -11.8356
v -28.9475 37.5012 -12.9905
v -21.0753 37.2795 -12.4595
v -14.6469 36.6647 -14.9792
v -49.2266 45.0697 -9.3173
v -44.0559 47.7530 -10.1289
v -39.7346 47.7779 -10.0131
v -40.9719 51.8576 -8.7516
v -40.5812 51.8576 -8.7516
v 21.1522 -45.8303 -4.6798
v 27.3180 -47.5011 -4.6798
v 35.9243 -46.2210 -5.2813
v 42.7423 -47.0864 -5.2813
v 51.3180 -48.9403 -4.6798
v 56.2854 -46.1877 -4.6798
v 19.0201 -40.2221 -4.6798
v 38.9951 -43.8819 -8.3490
v 39.6919 -43.8819 -8.3490
v 52.7753 -38.4442 -4.6798
v 56.2854 -42.4442 -4.6798
v 20.1195 -32.2221 -4.6798
v 37.8598 -29.6105 -6.8025
v 42.8556 -31.5814 -4.3534
v 48.7753 -35.3800 -4.6798
v 22.2517 -26.5565 -4.6798
v 26.5269 -22.5565 -4.6798
v 36.8243 -23.5243 -4.3534
v 39.8806 -25.7257 -1.4692
v 30.5269 -19.6624 -4.6798
v 33.2944 -19.6624 -4.6798
v -50.8352 26.2480 -4.6798
v -44.6820 24.6041 -4.6798
v -35.9113 25.9057 -5.4431
v -29.4432 25.1389 -5.4431
v -20.6820 23.2554 -4.6798
v -15.8161 25.8578 -4.6798
v -53.0414 31.7779 -4.6798
v -32.7309 27.8253 -8.6187
v -32.6173 27.8253 -8.6187
v -19.5533 33.3293 -4.6798
v -15.8161 29.3293 -4.6798
v -52.0855 39.7779 -4.6798
v -34.1863 42.3676 -6.5590
v -29.2415 40.2581 -4.2073
v -23.5533 36.4359 -4.6798
v -49.8793 45.6836 -4.6798
v -45.6833 49.6836 -4.6798
v -35.5026 47.9531 -4.2073
v -32.2811 45.4033 -1.2256
v -41.6833 52.4852 -4.6798
v -39.0796 52.4852 -4.6798
v 30.0827 -52.6196 6.4735
v 32.9208 -52.6196 6.4735
v 15.1322 -44.7937 6.3215
v 18.9898 -46.0880 3.5210
v 27.3768 -49.7326 3.6122
v 35.4797 -50.1293 3.6122
v 43.3180 -48.6320 3.3202
v 50.9136 -46.0653 2.8177
v 55.5973 -44.6137 -0.1840
v 14.6586 -40.2221 5.0289
v 16.4101 -40.2221 1.0289
v 51.9373 -40.5826 2.8177
v 55.5973 -43.4895 -0.1840
v 14.6246 -35.4136 5.2638
v 17.9998 -32.5370 2.8864
v 44.7627 -30.6335 3.3202
v 48.5976 -34.6335 3.3202
v 22.1678 -26.2889 3.3202
v 25.9716 -22.2889 3.3202
v 39.1568 -20.3924 -0.4869
v 40.6984 -23.5243 2.6360
v 29.8762 -16.6341 3.5641
v 36.0213 -16.6341 0.6209
v 40.1663 -16.2221 3.6412
v 30.7103 -11.6870 6.3933
v 35.3180 -11.0970 4.8013
v 40.0747 -11.2571 4.8886
v -41.7338 19.4457 6.5966
v -39.5106 19.4457 6.5966
v -57.0626 26.8568 5.8394
v -52.9896 25.7302 3.2317
v -44.5131 22.3016 3.6860
v -36.7792 22.1564 3.6860
v -28.6820 23.8449 3.3202
v -21.1145 26.1352 2.6981
v -16.5174 27.5501 -0.3833
v -57.5137 31.7779 4.4794
v -55.7447 31.7779 0.4794
v -20.2443 31.2619 2.6981
v -16.5174 28.2513 -0.3833
v -57.4104 36.6329 5.0133
v -54.3147 39.4909 2.7360
v -27.3541 41.1351 3.3202
v -23.5943 37.1351 3.3202
v -50.0447 46.1714 3.3202
v -46.3104 50.1714 3.3202
v -33.3128 50.7366 0.3861
v -31.4505 47.9531 3.1597
v -42.4363 55.4959 3.4481
v -36.2605 55.4959 1.1878
v -31.9902 55.7779 4.4948
v -41.4346 60.4385 6.2000
v -36.6820 60.9358 4.8553
v -32.0416 60.6611 5.1538
v 30.1697 -52.5809 11.3202
v 32.6222 -52.5809 11.3202
v 15.1620 -44.6861 11.3202
v 19.3180 -46.5152 11.3202
v 26.1697 -50.0512 11.3202
v 36.6222 -50.4328 11.3202
v 43.1066 -46.5413 10.9725
v 47.9774 -45.1398 8.0740
v 14.7771 -40.8339 11.7934
v 16.0501 -38.5751 14.7756
v 44.6043 -40.2221 12.5649
v 48.3973 -40.2221 8.5649
v 14.6246 -35.4136 9.4422
v 19.3579 -32.2726 11.9538
v 24.0263 -29.1315 14.4654
v 38.6947 -29.0444 14.6413
v 43.0335 -31.9392 11.4337
v 48.0978 -34.8340 8.2260
v 22.6658 -26.6854 9.1320
v 27.1506 -24.1056 11.2590
v 35.7440 -24.2043 12.5963
v 40.6215 -24.2221 9.3660
v 30.0798 -16.2221 8.3412
v 35.8390 -15.9765 11.7809
v 40.2577 -15.9765 10.9642
v 30.7103 -11.6870 7.9491
v 35.8390 -11.0503 10.8975
v 40.2119 -11.1586 11.3202
v -41.5119 19.5185 11.3202
v -39.7861 19.5185 11.3202
v -57.0696 26.8941 11.3202
v -52.6820 25.1766 11.3202
v -45.5119 22.0604 11.3202
v -35.7861 21.9224 11.3202
v -29.0304 25.7816 10.9254
v -24.0695 26.9247 7.9956
v -57.4291 32.1415 12.0060
v -56.3284 35.0506 15.1299
v -27.6725 31.7779 12.3787
v -23.7552 31.7779 8.3787
v -57.4104 36.6329 9.7965
v -52.8878 39.9012 12.3605
v -48.3464 43.1696 14.9245
v -33.0588 43.1170 14.8955
v -29.0339 40.0435 11.4758
v -24.0588 36.9700 8.0560
v -49.4472 45.7200 9.5911
v -45.0772 48.1755 11.4288
v -36.1081 47.8897 12.5902
v -31.4433 47.7779 9.4480
v -42.0910 55.7779 8.3409
v -36.1381 56.0763 11.6938
v -31.8999 56.0763 10.8772
v -41.4346 60.4385 8.0681
v -36.1381 60.9580 10.9689
v -31.9158 60.7576 11.3202
v 31.0222 -52.3030 15.3986
v 31.4542 -52.3030 15.3986
v 15.2958 -44.2692 15.3504
v 19.3180 -44.8785 15.6057
v 27.9405 -47.9189 16.2576
v 34.5997 -47.9332 16.4537
v 40.2991 -45.0739 15.9975
v 15.2958 -43.9085 15.3504
v 18.9572 -40.8339 15.8486
v 27.3180 -40.2221 17.2490
v 35.3180 -40.2221 17.4282
v 40.6043 -40.2221 16.1373
v 21.3834 -34.4649 15.8203
v 26.9430 -31.9678 16.4402
v 35.7440 -31.9155 16.3874
v 40.0519 -34.3778 15.7323
v 29.3596 -26.8592 16.0990
v 33.3613 -26.8592 16.0990
v 38.8530 -13.1461 15.6515
v 39.7532 -13.1461 15.6515
v 38.8530 -11.7691 15.6515
v 39.7532 -11.7691 15.6515
v -40.7368 19.7643 15.3336
v -40.6588 19.7643 15.3336
v -56.8183 27.5205 15.4979
v -52.6820 27.0880 15.6575
v -43.9149 24.1804 16.1195
v -37.4681 24.1768 16.2723
v -31.9293 27.1094 15.8469
v -56.8183 29.7173 15.4979
v -53.2698 32.1415 15.8294
v -44.6820 31.7779 17.0870
v -36.6820 31.7779 17.2390
v -31.6725 31.7779 15.9754
v -50.9951 37.8362 15.7192
v -45.2806 40.2129 16.4545
v -36.1081 40.1814 16.4233
v -32.0887 37.7837 15.6672
v -43.0130 45.2975 16.1738
v -38.3921 45.2975 16.1738
v -33.1089 58.9419 15.6194
v -32.3008 58.9419 15.6194
v -33.1089 60.2010 15.6194
v -32.3008 60.2010 15.6194
f 3 2 1
f 3 4 2
f 7 6 5
f 7 8 6
f 12 10 9
f 12 13 10
f 14 1 2
f 14 13 1
f 16 11 15
f 16 12 11
f 17 1 13
f 17 3 1
f 16 13 12
f 16 17 13
f 14 2 4
f 14 4 18
f 18 4 3
f 18 3 17
f 17 13 14
f 17 14 18
f 22 20 19
f 22 23 20
f 24 5 6
f 24 23 5
f 26 21 25
f 26 22 21
f 27 5 23
f 27 7 5
f 26 23 22
f 26 27 23
f 24 6 8
f 24 8 28
f 28 8 7
f 28 7 27
f 27 23 24
f 27 24 28
f 34 9 10
f 34 33 9
f 36 29 35
f 36 30 29
f 36 31 30
f 36 37 31
f 39 9 33
f 39 12 9
f 39 11 12
f 39 38 11
f 39 32 38
f 39 33 32
f 40 34 10
f 40 10 13
f 42 35 41
f 42 36 35
f 43 36 42
f 43 37 36
f 44 11 38
f 44 15 11
f 44 37 43
f 44 38 37
f 45 16 15
f 45 15 44
f 46 40 13
f 46 13 17
f 46 17 16
f 46 16 45
f 46 45 39
f 46 39 40
f 47 42 41
f 47 48 42
f 49 42 48
f 49 43 42
f 50 49 48
f 50 51 49
f 57 19 20
f 57 56 19
f 59 52 58
f 59 53 52
f 59 54 53
f 59 60 54
f 62 19 56
f 62 22 19
f 62 21 22
f 62 61 21
f 62 55 61
f 62 56 55
f 63 57 20
f 63 20 23
f 65 58 64
f 65 59 58
f 66 59 65
f 66 60 59
f 67 21 61
f 67 25 21
f 67 60 66
f 67 61 60
f 68 26 25
f 68 25 67
f 69 63 23
f 69 23 27
f 69 27 26
f 69 26 68
f 69 68 62
f 69 62 63
f 70 65 64
f 70 71 65
f 72 65 71
f 72 66 65
f 73 72 71
f 73 74 72
f 76 29 30
f 76 75 29
f 31 76 30
f 31 77 76
f 79 32 33
f 79 78 32
f 80 33 34
f 80 79 33
f 75 35 29
f 75 81 35
f 82 77 31
f 82 31 37
f 83 32 78
f 83 38 32
f 83 37 38
f 83 82 37
f 83 77 82
f 83 78 77
f 85 80 34
f 85 34 40
f 40 39 84
f 40 84 85
f 81 41 35
f 81 86 41
f 44 43 87
f 44 87 88
f 84 39 45
f 84 45 89
f 89 45 44
f 89 44 88
f 86 47 41
f 86 90 47
f 91 48 47
f 91 47 90
f 87 43 49
f 87 49 92
f 93 87 92
f 93 88 87
f 91 50 48
f 91 94 50
f 95 92 49
f 95 49 51
f 51 50 94
f 51 94 95
f 97 52 53
f 97 96 52
f 54 97 53
f 54 98 97
f 100 55 56
f 100 99 55
f 101 56 57
f 101 100 56
f 96 58 52
f 96 102 58
f 103 98 54
f 103 54 60
f 104 55 99
f 104 61 55
f 104 60 61
f 104 103 60
f 104 98 103
f 104 99 98
f 106 101 57
f 106 57 63
f 63 62 105
f 63 105 106
f 102 64 58
f 102 107 64
f 67 66 108
f 67 108 109
f 105 62 68
f 105 68 110
f 110 68 67
f 110 67 109
f 107 70 64
f 107 111 70
f 112 71 70
f 112 70 111
f 108 66 72
f 108 72 113
f 114 108 113
f 114 109 108
f 112 73 71
f 112 115 73
f 116 113 72
f 116 72 74
f 74 73 115
f 74 115 116
f 121 75 76
f 121 120 75
f 122 76 77
f 122 121 76
f 122 117 121
f 122 118 117
f 123 77 78
f 123 122 77
f 79 123 78
f 79 124 123
f 125 79 80
f 125 124 79
f 127 75 120
f 127 81 75
f 127 119 126
f 127 120 119
f 125 80 85
f 125 85 129
f 129 85 84
f 129 84 128
f 129 128 124
f 129 124 125
f 127 86 81
f 127 131 86
f 130 127 126
f 130 131 127
f 128 84 89
f 128 89 133
f 133 89 88
f 133 88 132
f 134 86 131
f 134 90 86
f 135 91 90
f 135 90 134
f 132 88 93
f 132 93 137
f 93 92 136
f 93 136 137
f 135 94 91
f 135 138 94
f 136 92 95
f 136 95 139
f 139 95 94
f 139 94 138
f 140 136 139
f 140 137 136
f 142 138 141
f 142 139 138
f 142 140 139
f 142 143 140
f 148 96 97
f 148 147 96
f 149 97 98
f 149 148 97
f 149 144 148
f 149 145 144
f 150 98 99
f 150 149 98
f 100 150 99
f 100 151 150
f 152 100 101
f 152 151 100
f 154 96 147
f 154 102 96
f 154 146 153
f 154 147 146
f 152 101 106
f 152 106 156
f 156 106 105
f 156 105 155
f 156 155 151
f 156 151 152
f 154 107 102
f 154 158 107
f 157 154 153
f 157 158 154
f 155 105 110
f 155 110 160
f 160 110 109
f 160 109 159
f 161 107 158
f 161 111 107
f 112 111 161
f 112 161 162
f 159 109 114
f 159 114 164
f 114 113 163
f 114 163 164
f 162 115 112
f 162 165 115
f 163 113 116
f 163 116 166
f 166 116 115
f 166 115 165
f 167 163 166
f 167 164 163
f 169 165 168
f 169 166 165
f 169 167 166
f 169 170 167
f 172 117 118
f 172 171 117
f 174 119 120
f 174 173 119
f 175 117 171
f 175 121 117
f 175 120 121
f 175 174 120
f 176 172 118
f 176 118 122
f 123 176 122
f 123 177 176
f 178 123 124
f 178 177 123
f 179 119 173
f 179 126 119
f 178 124 128
f 178 128 182
f 181 177 178
f 181 178 182
f 183 126 179
f 183 130 126
f 131 130 183
f 131 183 184
f 183 179 180
f 183 180 184
f 182 128 133
f 182 133 188
f 188 133 132
f 188 132 187
f 188 187 181
f 188 181 182
f 189 131 184
f 189 134 131
f 135 134 189
f 135 189 190
f 189 184 185
f 189 185 190
f 192 187 132
f 192 132 137
f 192 191 186
f 192 186 187
f 193 135 190
f 193 138 135
f 193 190 191
f 193 191 194
f 192 137 140
f 192 140 195
f 195 194 191
f 195 191 192
f 193 141 138
f 193 196 141
f 142 141 196
f 142 196 197
f 196 193 194
f 196 194 197
f 195 140 143
f 195 143 198
f 143 142 197
f 143 197 198
f 200 144 145
f 200 199 144
f 202 146 147
f 202 201 146
f 203 144 199
f 203 148 144
f 148 202 147
f 148 203 202
f 204 200 145
f 204 145 149
f 150 204 149
f 150 205 204
f 206 150 151
f 206 205 150
f 207 146 201
f 207 153 146
f 206 151 155
f 206 155 210
f 209 205 206
f 209 206 210
f 211 153 207
f 211 157 153
f 158 157 211
f 158 211 212
f 211 207 208
f 211 208 212
f 210 155 160
f 210 160 216
f 216 160 159
f 216 159 215
f 216 215 209
f 216 209 210
f 217 158 212
f 217 161 158
f 162 161 217
f 162 217 218
f 217 212 213
f 217 213 218
f 220 215 159
f 220 159 164
f 220 219 214
f 220 214 215
f 221 162 218
f 221 165 162
f 221 218 219
f 221 219 222
f 220 164 167
f 220 167 223
f 223 222 219
f 223 219 220
f 221 168 165
f 221 224 168
f 169 168 224
f 169 224 225
f 224 221 222
f 224 222 225
f 223 167 170
f 223 170 226
f 170 169 225
f 170 225 226
f 228 171 172
f 228 227 171
f 230 173 174
f 230 229 173
f 227 175 171
f 227 231 175
f 175 230 174
f 175 231 230
f 228 172 176
f 228 176 232
f 231 227 228
f 231 228 232
f 233 176 177
f 233 232 176
f 234 173 229
f 234 179 173
f 180 179 234
f 180 234 235
f 234 229 230
f 234 230 235
f 236 235 230
f 236 230 231
f 236 231 232
f 236 232 237
f 233 177 181
f 233 181 238
f 237 232 233
f 237 233 238
f 239 180 235
f 239 184 180
f 185 184 239
f 185 239 240
f 239 235 236
f 239 236 240
f 240 236 237
f 240 237 241
f 242 238 181
f 242 181 187
f 242 187 186
f 242 186 241
f 242 241 237
f 242 237 238
f 243 185 240
f 243 190 185
f 244 241 186
f 244 186 191
f 191 190 243
f 191 243 244
f 243 240 241
f 243 241 244
f 195 245 194
f 195 246 245
f 245 197 194
f 245 247 197
f 246 195 198
f 246 198 248
f 198 197 247
f 198 247 248
f 247 245 246
f 247 246 248
f 250 199 200
f 250 249 199
f 252 201 202
f 252 251 201
f 249 203 199
f 249 253 203
f 203 252 202
f 203 253 252
f 250 200 204
f 250 204 254
f 253 249 250
f 253 250 254
f 255 204 205
f 255 254 204
f 256 201 251
f 256 207 201
f 208 207 256
f 208 256 257
f 256 251 252
f 256 252 257
f 258 257 252
f 258 252 253
f 258 253 254
f 258 254 259
f 255 205 209
f 255 209 260
f 259 254 255
f 259 255 260
f 261 208 257
f 261 212 208
f 213 212 261
f 213 261 262
f 261 257 258
f 261 258 262
f 263 262 258
f 263 258 259
f 264 260 209
f 264 209 215
f 264 215 214
f 264 214 263
f 264 263 259
f 264 259 260
f 265 213 262
f 265 218 213
f 266 263 214
f 266 214 219
f 219 218 265
f 219 265 266
f 266 265 262
f 266 262 263
f 223 267 222
f 223 268 267
f 267 225 222
f 267 269 225
f 268 223 226
f 268 226 270
f 226 225 269
f 226 269 270
f 269 267 268
f 269 268 270
