# parsimony mesh: cplx_CPLX0-1863 (source /Users/eranagmon/code/v2e-cplx/workspace/studies/ecoli-3d/viz/3d/structures/cplx_CPLX0-1863.pdb)
# atoms: 11382  voxel: 16 Å  verts: 331  tris: 654
v 9.3635 -14.8867 -87.5964
v 12.4972 -14.8867 -87.5964
v 5.9073 -6.2368 -88.8811
v 18.0532 -5.8046 -88.8359
v 27.2859 -0.1832 -87.2190
v 5.4379 5.9460 -88.5791
v 18.3873 5.6856 -88.5980
v 27.2859 2.8102 -87.2190
v -23.1536 -15.8398 -73.0106
v -16.7179 -15.8398 -73.0106
v 6.8009 -14.9873 -78.5010
v 13.2771 -14.9873 -78.5010
v -23.1536 -9.0628 -73.0106
v -13.7431 -6.0735 -74.2140
v -1.8514 -7.5453 -79.8509
v 21.2771 -10.2805 -78.5010
v 27.9923 -2.2805 -78.5010
v -11.0970 9.7632 -75.8071
v 2.5097 11.7905 -79.3718
v 18.3873 11.4615 -78.5010
v 27.9923 4.4205 -78.5010
v -7.7694 18.9869 -72.6594
v -0.4186 18.9869 -72.6594
v -22.9746 -15.6639 -62.5010
v -12.2758 -15.8901 -63.6749
v 1.3012 -14.8385 -64.4546
v 12.1306 -14.5876 -69.7851
v -23.5536 -4.7324 -63.9926
v -13.7431 -6.0735 -70.0556
v 2.0119 -9.4571 -63.6017
v 17.8333 -6.7039 -66.5994
v 27.6287 -1.6820 -68.7198
v -22.7002 9.7632 -58.4143
v -19.0970 9.7632 -66.4143
v 6.7486 11.2863 -61.6977
v 18.3873 7.5391 -66.1609
v 27.6287 4.2592 -68.7198
v -21.6439 17.7906 -54.5662
v -13.3067 18.7167 -60.9401
v -1.1333 18.9345 -62.5010
v -21.8877 -14.5366 -54.2198
v -13.6127 -15.1012 -53.1858
v -4.0269 -15.0895 -53.0286
v -22.8831 -6.2368 -53.0527
v -13.6127 -6.2368 -50.1300
v -1.4512 -6.2368 -51.5783
v -22.7002 9.7632 -53.2399
v -13.6127 9.7632 -50.8428
v -2.0566 9.7632 -52.1040
v -21.6439 17.7906 -54.4693
v -13.6127 18.0373 -53.8987
v -4.8342 18.1012 -53.7295
v 8.4173 -80.0526 -23.8187
v 14.3388 -80.0526 -23.8187
v 7.3428 -70.2368 -24.4889
v 15.0650 -70.2368 -24.4889
v 8.2980 -60.5928 -23.8338
v 12.6728 -60.5928 -23.8338
v -55.1828 -14.6642 -22.9747
v -52.9390 -14.6642 -22.9747
v 73.5596 -14.9590 -23.1768
v 77.2024 -14.9590 -23.1768
v -56.7708 -6.2368 -23.6733
v -51.5998 -6.2368 -23.6733
v 72.6508 -6.2368 -23.4876
v 82.4764 -5.6896 -23.4988
v 91.0073 0.0086 -22.8486
v -56.2534 3.7582 -23.5904
v -51.6025 3.7582 -23.5904
v 72.8997 3.0133 -23.1407
v 82.3873 3.1605 -23.2414
v 91.0073 2.3761 -22.8486
v 8.6859 61.3348 -23.6830
v 14.6059 61.3348 -23.6830
v 8.6859 69.9021 -23.6830
v 14.6059 69.9021 -23.6830
v -23.2414 -81.2931 -8.3374
v -17.5498 -81.2931 -8.3374
v 6.0033 -80.7599 -14.5010
v 19.1582 -81.0803 -15.3031
v 27.6095 -79.6120 -10.5044
v -23.2414 -75.3108 -8.3374
v -13.0130 -70.7821 -8.5054
v -0.7735 -71.0468 -14.2045
v 23.0650 -70.2368 -19.1281
v 28.3220 -70.2368 -11.1281
v -8.4762 -58.9469 -8.6734
v 2.7337 -57.3460 -14.2045
v 18.1586 -58.2135 -14.2006
v 27.7447 -60.3927 -8.6670
v -86.2029 -14.5204 -6.7839
v -83.1348 -14.5204 -6.7839
v -57.4143 -14.8874 -14.5010
v -52.0560 -14.8874 -14.5010
v 41.8442 -14.9210 -7.1250
v 45.6174 -14.9210 -7.1250
v 73.5596 -14.9590 -17.3855
v 81.4987 -14.6988 -12.5508
v 90.6866 -14.4387 -7.7160
v -86.8392 -6.2368 -7.9330
v -77.7259 -7.1533 -9.0388
v -64.6384 -7.1533 -14.2932
v -44.7612 -5.5441 -13.5874
v -37.1306 0.2510 -7.6450
v 41.8442 -12.9036 -7.1250
v 50.7604 -7.7053 -8.0627
v 67.8963 -8.3217 -13.1930
v 81.4987 -12.3972 -12.5508
v 92.4250 -5.6896 -13.6300
v -86.6578 4.7326 -8.1274
v -77.6127 6.6846 -9.4611
v -62.2506 9.8902 -14.0560
v -46.3542 8.5658 -13.4678
v -37.1306 2.7067 -7.6450
v 56.0423 9.7632 -8.8907
v 67.9141 10.2189 -13.4275
v 81.5209 12.2777 -13.3174
v 92.5046 8.5309 -13.3174
v -57.5811 18.8239 -8.6239
v -51.7726 18.8239 -8.6239
v 57.7446 18.3617 -7.1878
v 62.9286 18.3617 -7.1878
v 86.2765 18.1349 -7.1950
v 90.8194 18.1349 -7.1950
v -22.4585 49.0057 -7.4062
v -19.8881 49.0057 -7.4062
v -22.7814 57.7632 -7.8876
v -14.1779 58.4865 -8.3459
v 2.9665 60.6085 -13.6367
v 19.3185 60.1979 -15.5803
v 27.9364 63.6178 -10.9664
v -22.3251 66.9059 -7.4446
v -13.1794 72.8488 -8.8511
v 2.9665 74.6465 -17.2969
v 19.3185 74.6465 -18.8608
v 28.0433 73.7632 -10.6858
v -7.5573 83.3913 -8.2482
v 2.3873 84.1466 -11.0763
v 18.3873 83.4892 -10.6017
v 27.0463 82.5147 -7.6154
v -23.8090 -82.2767 1.4990
v -12.7749 -82.4829 0.8186
v 1.6622 -80.2634 0.8186
v 16.9547 -80.0743 1.1562
v 27.6095 -79.6120 -4.4056
v -24.1435 -70.0812 1.6149
v -13.0130 -70.7821 -4.3047
v -4.1546 -76.9201 -4.9683
v 19.0584 -70.2368 5.4229
v 28.3220 -70.2368 -2.5771
v -22.9023 -59.9115 7.0256
v -13.7308 -56.9656 1.6149
v 2.3873 -54.8000 1.4990
v 17.1568 -59.0570 1.7809
v 27.7447 -60.3927 -3.3645
v -87.4313 -15.2588 1.4990
v -77.7259 -15.4530 0.6840
v -62.3457 -14.7890 0.2232
v -52.2107 -14.6769 -5.0275
v 41.9144 -14.8314 1.4990
v 50.7254 -15.4633 0.5960
v 66.3873 -15.5437 2.5999
v 80.6783 -14.5833 -0.7576
v 90.6866 -14.4387 -5.9872
v -90.1098 -6.2368 1.4990
v -72.4681 -13.0975 -5.1927
v -62.3457 -11.8996 0.2232
v -46.8970 -5.2253 0.1618
v -37.1306 0.2510 -5.3155
v 41.7104 -7.0369 2.3556
v 50.7604 -7.7053 -3.8730
v 66.3873 -13.3641 -5.4001
v 80.6783 -12.0771 -0.7576
v 92.4696 -5.3055 0.2073
v -88.5931 9.9449 1.0408
v -77.6127 14.6846 -3.2478
v -63.1794 14.7106 0.8813
v -46.6779 8.0528 0.2568
v -37.1306 2.7067 -5.3155
v 41.8896 2.9702 8.2600
v 48.9909 8.8874 2.3556
v 73.5952 17.4244 -4.8265
v 80.5674 15.3583 0.0154
v 92.5492 8.6805 0.3140
v -87.0087 18.7873 6.0688
v -77.6127 18.8890 4.7522
v -63.1794 18.5320 0.8813
v -51.7726 18.8239 -4.8376
v 56.5048 18.9014 1.4990
v 67.5121 18.8193 0.9037
v 80.5674 18.0703 0.0154
v 90.8194 18.1349 -5.8094
v -22.6767 48.8522 1.4990
v -18.6308 48.8522 1.4990
v -24.1777 57.7632 1.4990
v -10.6308 53.9092 1.4990
v 2.3873 59.3367 1.4990
v 17.3701 62.4179 1.3725
v 27.9364 63.6178 -4.0452
v -23.3645 72.8488 2.2219
v -18.2240 77.5726 -2.6294
v 8.8780 78.5527 7.9255
v 17.3701 73.4369 4.6047
v 28.0433 73.7632 -3.4388
v -22.5313 82.9134 8.0372
v -13.1794 84.4867 2.2219
v 3.0817 84.7264 2.1549
v 18.3873 83.4892 -2.4608
v 27.0463 82.5147 -4.8739
v -22.9124 -80.5671 11.5677
v -13.6127 -81.2522 14.5575
v 2.3873 -79.6088 13.0961
v 10.6663 -78.3758 9.6192
v -23.5547 -70.2368 13.6042
v -13.6127 -70.2368 20.9052
v 2.3873 -70.2368 17.0513
v 11.0584 -70.2368 9.7503
v -22.9023 -59.9115 12.9039
v -13.6127 -58.1152 15.8466
v 2.3873 -59.6805 13.4541
v 11.0031 -61.9986 9.7139
v -87.4473 -15.3159 11.3971
v -77.6127 -15.5443 12.2205
v -67.5800 -14.9011 11.2294
v 42.2999 -14.3454 9.6272
v 50.3873 -15.2568 12.1394
v 66.3873 -15.5437 12.5708
v 75.5616 -14.7278 10.2024
v -88.8833 -6.2368 14.0000
v -77.6127 -6.2368 17.8523
v -61.9930 -5.7158 12.9286
v -52.2500 -0.0350 10.0787
v 41.9485 -6.2368 10.3166
v 51.7016 -5.3797 18.5884
v 65.0447 -5.3797 19.4755
v 81.4919 -5.3055 11.3174
v 91.0817 0.6487 9.9611
v -88.5544 9.7632 14.0828
v -77.6127 9.7632 17.6084
v -62.7117 8.7446 12.6673
v -52.2500 2.7322 10.0787
v 41.8896 2.9702 10.4609
v 51.8822 8.5796 17.1011
v 65.0447 9.2186 19.4379
v 81.0699 8.6805 11.1698
v 91.0817 2.6254 9.9611
v -87.0087 18.7873 11.5075
v -77.6127 18.8890 11.9766
v -68.7777 18.2402 10.7939
v 56.5200 18.6823 13.0747
v 66.3873 18.6344 12.5238
v 74.8582 18.0057 9.9563
v -22.1855 49.3060 10.0798
v -19.3614 49.3060 10.0798
v -23.0089 57.7632 11.7549
v -12.5272 58.5602 16.3363
v 0.8046 63.0826 16.1457
v 11.3587 65.0347 9.9102
v -23.2682 73.7632 12.7876
v -14.9021 73.7632 20.7876
v 3.7108 73.4369 16.1457
v 11.3587 67.8860 9.9102
v -22.5313 82.9134 11.4567
v -12.9959 83.9231 17.0736
v -1.9799 83.6004 17.4990
v 57.9111 0.5250 25.7328
v 58.8163 0.5250 25.7328
v 57.9111 3.5223 25.7328
v 58.8163 3.5223 25.7328
v -5.6930 65.7013 25.5240
v -5.5840 65.7013 25.5240
v -6.9021 73.7632 26.0042
v -4.8263 73.7632 26.0042
v -7.2515 82.4520 26.1476
v -4.5929 82.4520 26.1476
v -21.9321 -14.5960 57.2381
v -21.0690 -14.5960 57.2381
v 9.2209 -14.8370 54.5388
v 12.5026 -14.8370 54.5388
v -21.9321 -13.2385 57.2381
v -14.8453 -6.7765 56.6450
v 3.2875 -5.8834 52.4474
v 18.0565 -6.5536 52.1215
v 28.2950 -1.4314 55.5087
v -8.6217 5.5100 56.0518
v 2.9819 10.4113 53.9553
v 17.3125 9.7703 53.6294
v 28.2950 4.4416 55.5087
v 8.7117 18.0478 57.0519
v 11.2626 18.0478 57.0519
v -22.9459 -15.6083 65.4990
v -14.8864 -15.5604 66.6436
v 3.2875 -14.9548 66.6436
v 12.3869 -14.8512 65.4990
v -23.2471 -7.2378 65.7465
v -14.8453 -6.7765 61.3258
v -1.4458 -10.9811 62.0734
v 20.3869 -9.2687 65.4990
v 28.1136 -1.2687 65.4990
v -22.5590 4.4105 71.2449
v -13.9266 10.2936 65.3670
v 2.8720 15.8041 64.3915
v 17.3125 12.1564 64.5760
v 28.1136 4.5033 65.4990
v -8.5648 18.7121 70.1558
v 2.8720 18.3799 64.3915
v 11.2626 18.0478 58.6273
v -23.0709 -15.7062 76.6679
v -13.5017 -15.7990 81.8003
v 1.3366 -15.0487 80.0613
v 10.9381 -14.4558 73.7694
v -23.3483 -5.6072 81.8003
v -18.7610 -10.5208 87.3346
v 4.6966 -6.2368 83.3328
v 17.1178 -5.1455 75.1989
v 26.7813 0.9154 73.8871
v -22.6885 5.2118 81.4990
v -13.7840 13.9031 82.8206
v 2.1249 11.0816 82.3543
v 18.3873 4.7458 75.4210
v 26.7813 2.7383 73.8871
v -8.5648 18.7121 78.3684
v -2.9676 18.7121 78.3684
v -8.0944 -14.9936 90.3072
v -4.6972 -14.9936 90.3072
v -22.1008 0.1459 89.9191
v -13.5017 -5.6072 91.0299
v -3.3034 -6.2368 91.0975
v -22.1008 3.7140 89.9191
v -13.6127 6.9526 90.8065
v -3.4492 6.7316 90.8222
f 3 2 1
f 3 4 2
f 6 4 3
f 6 7 4
f 7 5 4
f 7 8 5
f 12 1 2
f 12 11 1
f 13 10 9
f 13 14 10
f 11 3 1
f 11 15 3
f 16 12 2
f 16 2 4
f 5 16 4
f 5 17 16
f 15 6 3
f 15 19 6
f 18 15 14
f 18 19 15
f 20 7 6
f 20 6 19
f 21 17 5
f 21 5 8
f 21 8 7
f 21 7 20
f 22 19 18
f 22 23 19
f 10 24 9
f 10 25 24
f 27 11 12
f 27 26 11
f 24 13 9
f 24 28 13
f 29 25 10
f 29 10 14
f 29 14 13
f 29 13 28
f 30 11 26
f 30 15 11
f 15 29 14
f 15 30 29
f 30 25 29
f 30 26 25
f 27 12 16
f 27 16 31
f 30 26 27
f 30 27 31
f 32 16 17
f 32 31 16
f 29 18 14
f 29 34 18
f 34 28 33
f 34 29 28
f 20 19 35
f 20 35 36
f 35 30 31
f 35 31 36
f 32 17 21
f 32 21 37
f 37 21 20
f 37 20 36
f 36 31 32
f 36 32 37
f 34 22 18
f 34 39 22
f 39 33 38
f 39 34 33
f 35 19 23
f 35 23 40
f 40 23 22
f 40 22 39
f 42 24 25
f 42 41 24
f 43 25 26
f 43 42 25
f 44 24 41
f 44 28 24
f 45 44 41
f 45 41 42
f 43 26 30
f 43 30 46
f 45 42 43
f 45 43 46
f 44 33 28
f 44 47 33
f 48 47 44
f 48 44 45
f 46 30 35
f 46 35 49
f 49 48 45
f 49 45 46
f 47 38 33
f 47 50 38
f 51 39 38
f 51 38 50
f 50 47 48
f 50 48 51
f 49 35 40
f 49 40 52
f 52 40 39
f 52 39 51
f 52 51 48
f 52 48 49
f 56 53 55
f 56 54 53
f 58 55 57
f 58 56 55
f 64 59 63
f 64 60 59
f 65 62 61
f 65 66 62
f 68 64 63
f 68 69 64
f 70 66 65
f 70 71 66
f 71 67 66
f 71 72 67
f 75 74 73
f 75 76 74
f 54 79 53
f 54 80 79
f 82 78 77
f 82 83 78
f 79 55 53
f 79 84 55
f 85 80 54
f 85 54 56
f 85 81 80
f 85 86 81
f 84 57 55
f 84 88 57
f 87 84 83
f 87 88 84
f 85 56 58
f 85 58 89
f 89 58 57
f 89 57 88
f 90 85 89
f 90 86 85
f 94 59 60
f 94 93 59
f 62 97 61
f 62 98 97
f 100 92 91
f 100 101 92
f 93 63 59
f 93 102 63
f 94 60 64
f 94 64 103
f 105 96 95
f 105 106 96
f 97 65 61
f 97 107 65
f 108 98 62
f 108 62 66
f 108 107 97
f 108 97 98
f 109 66 67
f 109 108 66
f 108 99 98
f 108 109 99
f 110 101 100
f 110 111 101
f 102 68 63
f 102 112 68
f 111 102 101
f 111 112 102
f 103 64 69
f 103 69 113
f 113 69 68
f 113 68 112
f 114 103 113
f 114 104 103
f 107 70 65
f 107 116 70
f 115 107 106
f 115 116 107
f 117 71 70
f 117 70 116
f 109 67 72
f 109 72 118
f 118 72 71
f 118 71 117
f 120 112 119
f 120 113 112
f 122 115 121
f 122 116 115
f 124 117 123
f 124 118 117
f 127 126 125
f 127 128 126
f 130 73 74
f 130 129 73
f 132 128 127
f 132 133 128
f 129 75 73
f 129 134 75
f 133 129 128
f 133 134 129
f 130 74 76
f 130 76 135
f 135 76 75
f 135 75 134
f 135 131 130
f 135 136 131
f 137 134 133
f 137 138 134
f 139 134 138
f 139 135 134
f 139 136 135
f 139 140 136
f 78 141 77
f 78 142 141
f 144 79 80
f 144 143 79
f 145 80 81
f 145 144 80
f 141 82 77
f 141 146 82
f 147 142 78
f 147 78 83
f 147 83 82
f 147 82 146
f 148 79 143
f 148 84 79
f 148 83 84
f 148 147 83
f 148 142 147
f 148 143 142
f 145 81 86
f 145 86 150
f 150 149 144
f 150 144 145
f 147 87 83
f 147 152 87
f 152 146 151
f 152 147 146
f 153 88 87
f 153 87 152
f 154 89 88
f 154 88 153
f 150 86 90
f 150 90 155
f 155 90 89
f 155 89 154
f 155 154 149
f 155 149 150
f 92 156 91
f 92 157 156
f 159 93 94
f 159 158 93
f 96 160 95
f 96 161 160
f 164 98 99
f 164 163 98
f 165 91 156
f 165 100 91
f 166 157 92
f 166 92 101
f 167 93 158
f 167 102 93
f 102 166 101
f 102 167 166
f 166 158 157
f 166 167 158
f 159 94 103
f 159 103 168
f 167 158 159
f 167 159 168
f 169 103 104
f 169 168 103
f 160 105 95
f 160 170 105
f 171 161 96
f 171 96 106
f 171 106 105
f 171 105 170
f 172 106 107
f 172 171 106
f 172 161 171
f 172 162 161
f 163 108 98
f 163 173 108
f 108 172 107
f 108 173 172
f 172 163 162
f 172 173 163
f 164 99 109
f 164 109 174
f 173 163 164
f 173 164 174
f 165 110 100
f 165 175 110
f 176 111 110
f 176 110 175
f 112 111 176
f 112 176 177
f 169 104 114
f 169 114 179
f 114 113 178
f 114 178 179
f 178 168 169
f 178 169 179
f 171 115 106
f 171 181 115
f 181 170 180
f 181 171 170
f 117 116 182
f 117 182 183
f 174 109 118
f 174 118 184
f 185 176 175
f 185 186 176
f 177 119 112
f 177 187 119
f 187 176 186
f 187 177 176
f 188 178 113
f 188 113 120
f 188 120 119
f 188 119 187
f 188 187 177
f 188 177 178
f 189 115 181
f 189 121 115
f 182 116 122
f 182 122 190
f 122 121 189
f 122 189 190
f 183 123 117
f 183 191 123
f 191 182 190
f 191 183 182
f 184 118 124
f 184 124 192
f 192 124 123
f 192 123 191
f 192 191 183
f 192 183 184
f 126 193 125
f 126 194 193
f 195 125 193
f 195 127 125
f 196 194 126
f 196 126 128
f 197 128 129
f 197 196 128
f 198 129 130
f 198 197 129
f 199 130 131
f 199 198 130
f 195 132 127
f 195 200 132
f 201 133 132
f 201 132 200
f 199 131 136
f 199 136 204
f 204 203 198
f 204 198 199
f 201 137 133
f 201 206 137
f 205 201 200
f 205 206 201
f 207 138 137
f 207 137 206
f 208 139 138
f 208 138 207
f 208 207 202
f 208 202 203
f 204 136 140
f 204 140 209
f 140 139 208
f 140 208 209
f 208 203 204
f 208 204 209
f 142 210 141
f 142 211 210
f 212 142 143
f 212 211 142
f 213 143 144
f 213 212 143
f 210 146 141
f 210 214 146
f 214 210 211
f 214 211 215
f 216 215 211
f 216 211 212
f 213 144 149
f 213 149 217
f 217 216 212
f 217 212 213
f 214 151 146
f 214 218 151
f 219 152 151
f 219 151 218
f 219 218 214
f 219 214 215
f 220 153 152
f 220 152 219
f 219 215 216
f 219 216 220
f 221 217 149
f 221 149 154
f 221 154 153
f 221 153 220
f 221 220 216
f 221 216 217
f 157 222 156
f 157 223 222
f 224 157 158
f 224 223 157
f 161 225 160
f 161 226 225
f 162 226 161
f 162 227 226
f 228 162 163
f 228 227 162
f 222 165 156
f 222 229 165
f 229 222 223
f 229 223 230
f 224 158 167
f 224 167 231
f 230 223 224
f 230 224 231
f 232 167 168
f 232 231 167
f 225 170 160
f 225 233 170
f 233 225 226
f 233 226 234
f 234 226 227
f 234 227 235
f 228 163 173
f 228 173 236
f 235 227 228
f 235 228 236
f 174 236 173
f 174 237 236
f 238 165 229
f 238 175 165
f 238 229 230
f 238 230 239
f 240 239 230
f 240 230 231
f 241 232 168
f 241 168 178
f 241 178 177
f 241 177 240
f 241 240 231
f 241 231 232
f 233 180 170
f 233 242 180
f 181 180 242
f 181 242 243
f 242 233 234
f 242 234 243
f 245 244 235
f 245 235 236
f 237 174 184
f 237 184 246
f 184 183 245
f 184 245 246
f 246 245 236
f 246 236 237
f 238 185 175
f 238 247 185
f 248 186 185
f 248 185 247
f 247 238 239
f 247 239 248
f 249 240 177
f 249 177 187
f 249 187 186
f 249 186 248
f 249 248 239
f 249 239 240
f 250 181 243
f 250 189 181
f 251 190 189
f 251 189 250
f 250 243 244
f 250 244 251
f 252 245 183
f 252 183 191
f 252 191 190
f 252 190 251
f 252 251 244
f 252 244 245
f 254 193 194
f 254 253 193
f 253 195 193
f 253 255 195
f 254 194 196
f 254 196 256
f 255 253 254
f 255 254 256
f 257 196 197
f 257 256 196
f 258 197 198
f 258 257 197
f 255 200 195
f 255 259 200
f 259 255 256
f 259 256 260
f 258 198 203
f 258 203 262
f 262 203 202
f 262 202 261
f 261 257 258
f 261 258 262
f 259 205 200
f 259 263 205
f 264 206 205
f 264 205 263
f 264 263 259
f 264 259 260
f 265 261 202
f 265 202 207
f 265 207 206
f 265 206 264
f 235 266 234
f 235 267 266
f 268 234 266
f 268 243 234
f 267 235 244
f 267 244 269
f 244 243 268
f 244 268 269
f 268 266 267
f 268 267 269
f 257 270 256
f 257 271 270
f 270 260 256
f 270 272 260
f 271 257 261
f 271 261 273
f 273 272 270
f 273 270 271
f 274 260 272
f 274 264 260
f 273 261 265
f 273 265 275
f 265 264 274
f 265 274 275
f 275 274 272
f 275 272 273
f 280 277 276
f 280 281 277
f 283 278 282
f 283 279 278
f 285 282 281
f 285 286 282
f 287 282 286
f 287 283 282
f 288 283 287
f 288 284 283
f 290 286 289
f 290 287 286
f 277 291 276
f 277 292 291
f 294 278 279
f 294 293 278
f 291 280 276
f 291 295 280
f 296 292 277
f 296 277 281
f 296 281 280
f 296 280 295
f 297 278 293
f 297 282 278
f 297 281 282
f 297 296 281
f 297 292 296
f 297 293 292
f 298 294 279
f 298 279 283
f 284 298 283
f 284 299 298
f 296 285 281
f 296 301 285
f 300 296 295
f 300 301 296
f 302 286 285
f 302 285 301
f 299 284 288
f 299 288 304
f 288 287 303
f 288 303 304
f 302 289 286
f 302 306 289
f 305 302 301
f 305 306 302
f 303 287 290
f 303 290 307
f 307 290 289
f 307 289 306
f 307 306 302
f 307 302 303
f 292 308 291
f 292 309 308
f 310 292 293
f 310 309 292
f 311 293 294
f 311 310 293
f 308 295 291
f 308 312 295
f 313 312 308
f 313 308 309
f 311 294 298
f 311 298 315
f 314 310 311
f 314 311 315
f 316 298 299
f 316 315 298
f 312 300 295
f 312 317 300
f 318 301 300
f 318 300 317
f 320 303 302
f 320 302 319
f 320 319 314
f 320 314 315
f 316 299 304
f 316 304 321
f 304 303 320
f 304 320 321
f 320 315 316
f 320 316 321
f 318 305 301
f 318 322 305
f 323 319 302
f 323 302 306
f 323 306 305
f 323 305 322
f 323 322 318
f 323 318 319
f 325 309 310
f 325 324 309
f 324 313 309
f 324 327 313
f 313 326 312
f 313 327 326
f 325 310 314
f 325 314 328
f 326 317 312
f 326 329 317
f 330 318 317
f 330 317 329
f 331 328 314
f 331 314 319
f 331 319 318
f 331 318 330
