# parsimony mesh: eg10367_monomer (source /Users/eranagmon/code/v2e-cplx/workspace/studies/ecoli-3d/viz/3d/structures/eg10367_monomer.pdb)
# atoms: 2496  voxel: 8 Å  verts: 229  tris: 456
v 1.2477 -5.7170 -29.3794
v 5.7215 -6.9632 -29.7362
v 13.7215 -7.6779 -29.8259
v 18.3704 -6.6700 -29.4991
v 0.4982 -1.2236 -29.7272
v 5.6852 -1.3266 -29.9430
v 13.7215 -3.2090 -29.8259
v 18.3704 -3.6992 -29.4991
v 0.5643 3.4996 -29.7073
v 2.9943 3.4996 -29.7073
v 0.2354 -14.0796 -22.1823
v 5.7215 -14.5447 -23.4416
v 13.7215 -14.7330 -24.0052
v 19.8363 -14.3306 -22.9339
v -0.3073 -8.7197 -24.9797
v 5.7215 -10.9632 -27.4416
v 13.7215 -11.6779 -28.0052
v 20.7629 -9.2915 -25.4307
v -6.5588 1.9076 -21.8338
v -3.3100 -0.9449 -24.7706
v 8.3276 1.2714 -27.8347
v 13.7215 0.7910 -26.9711
v 19.8760 -1.1090 -25.0167
v -6.5588 4.1030 -21.8338
v -2.1728 4.8203 -24.7706
v 5.6852 4.4930 -25.1711
v 13.7215 3.5526 -22.9711
v 18.3582 3.0301 -22.2440
v -6.9090 -14.0577 -14.6159
v -2.3701 -15.2587 -17.2398
v 5.7215 -16.7221 -17.1758
v 13.7215 -16.4473 -17.1758
v 22.1904 -14.8793 -17.6168
v 26.1672 -13.7917 -15.2442
v -7.0574 -9.2236 -15.0761
v -4.4591 -9.2236 -19.0761
v 25.0366 -9.2236 -20.5775
v 26.6714 -9.2236 -16.5775
v -7.4617 -0.9449 -17.0320
v -5.0332 -3.4258 -19.6028
v 23.4042 -1.0295 -17.8561
v 26.5423 -3.5667 -15.6430
v -7.6934 6.7724 -17.5480
v -2.2785 8.7889 -18.9193
v 5.7215 8.3797 -17.7795
v 13.3612 7.0793 -16.6361
v 19.0959 3.5692 -17.1758
v -7.0727 11.6305 -15.1295
v -2.2785 11.7190 -14.9193
v 5.9314 14.2180 -13.8437
v 10.5819 14.7764 -13.7323
v 8.7381 19.1661 -13.4840
v 10.1360 19.1661 -13.4840
v -6.9090 -14.0577 -10.8436
v -2.8634 -15.2352 -8.5765
v 5.7215 -17.0658 -9.1758
v 13.7215 -16.6933 -9.1758
v 21.6828 -14.7776 -9.4373
v 26.1672 -13.7917 -12.2783
v -15.6465 -6.4273 -5.8264
v -9.4644 -9.6897 -8.3350
v -5.9200 -12.9521 -5.5103
v 24.4406 -9.2236 -6.6609
v 26.6714 -9.2236 -10.6609
v -22.6042 1.9975 -5.4187
v -18.2993 -0.8910 -5.7327
v -11.5472 -1.2236 -9.6898
v 23.7851 -1.0295 -8.5024
v 26.5423 -3.5667 -10.7201
v -23.1090 6.7764 -5.6561
v -18.2785 6.7764 -6.1995
v -11.8368 6.7764 -9.7192
v 16.2393 9.3486 -9.1758
v 19.5335 5.3486 -9.1758
v -23.0601 11.4687 -5.5733
v -18.2785 11.9650 -5.9912
v -9.9550 12.5509 -8.7896
v -2.2062 15.4569 -9.2313
v 3.4047 16.5124 -11.9350
v 15.1844 14.2440 -8.4321
v 17.7938 16.5557 -5.2696
v 0.1450 22.7764 -6.8895
v 6.5141 22.9102 -8.9850
v 13.1702 20.5881 -8.4321
v 17.7938 18.8616 -5.2696
v 0.8324 27.5781 -6.0349
v 4.2901 27.5781 -6.0349
v -7.1755 -21.6251 2.2566
v -4.3215 -21.6251 2.2566
v 8.8808 -21.2928 2.5463
v 9.8232 -21.2928 2.5463
v -15.6045 -14.4119 1.5578
v -10.0167 -17.1366 0.2988
v -2.4540 -17.3776 -1.3138
v 6.0171 -19.0502 -0.5425
v 13.7335 -17.0605 -0.0042
v 18.9903 -14.1610 -2.5548
v -22.7225 -5.9086 2.0560
v -18.2922 -8.8346 -0.8597
v -10.2785 -11.9227 -3.9068
v -5.9200 -12.9521 -4.8841
v 17.6438 -13.0269 2.7785
v 20.1287 -9.9056 -0.4032
v -30.2949 2.7375 2.7975
v -25.3300 -0.2992 -0.2399
v -20.9799 -3.3359 -3.2773
v 16.5776 1.7676 2.4951
v 20.0995 -1.0289 -0.5733
v -30.2949 2.8079 2.7975
v -26.6283 5.9953 -0.3918
v 16.1450 7.5522 -0.5733
v 18.9417 5.4027 -2.8383
v -23.4714 12.1201 -1.1758
v -18.2785 13.9356 -1.1758
v -10.2785 14.4592 -1.1758
v -4.4202 16.6437 -1.1758
v 16.4616 14.2440 -1.6483
v 17.7938 16.5557 -4.6300
v -2.0085 22.7764 -1.1758
v 9.4098 26.4440 -1.1758
v 14.1518 21.7616 -1.6483
v 17.7938 18.8616 -4.6300
v 0.1332 27.9600 -1.1758
v 5.4098 27.9600 -1.1758
v -15.0711 -21.9862 9.5663
v -10.0167 -22.0799 6.8695
v -3.7583 -21.7220 6.8242
v 8.8808 -21.2928 3.8643
v 9.8232 -21.2928 3.8643
v -16.3409 -17.1366 6.8695
v -12.5088 -19.7453 4.2330
v 0.2417 -20.3211 6.8242
v 6.0171 -20.0902 6.6483
v 11.6245 -17.6122 6.6483
v -23.9230 -6.8280 6.8242
v -20.2620 -10.8280 6.8242
v 16.0240 -11.4828 6.8242
v 18.2766 -7.4828 6.8242
v -30.5297 1.8364 6.8242
v -27.9230 -2.1636 6.8242
v 15.7178 0.6018 6.8242
v 18.2766 -3.3982 6.8242
v -30.5297 3.1788 6.8242
v -27.2782 7.1788 6.8242
v -6.9162 10.3379 10.1450
v -2.2785 9.9376 9.8766
v 3.8269 10.0965 10.2400
v 12.7086 6.7764 6.8242
v -23.2782 12.0382 6.8242
v -18.2785 14.2264 6.8242
v -9.8611 13.2944 7.2167
v -2.4641 14.7437 6.2592
v 4.1346 14.7764 9.6273
v 13.5884 14.7764 6.8242
v -0.4320 22.7764 5.1396
v 6.1187 23.3988 7.0345
v 12.5976 21.7101 6.8242
v 0.4928 27.5528 4.2564
v 4.0706 27.5528 4.2564
v -15.0711 -21.9862 11.9458
v -10.2785 -21.9928 12.0244
v -4.8752 -21.4866 11.3029
v -15.8606 -16.7923 14.6972
v -10.2785 -18.3356 16.0244
v -2.2365 -18.4639 14.3114
v 5.5432 -15.9315 14.5414
v 10.2025 -15.2046 11.6861
v -23.7355 -6.4432 14.8242
v -19.6616 -10.4432 14.8242
v 8.0909 -11.5457 17.0195
v 12.9742 -8.6558 14.2518
v 18.0752 -5.7659 11.4842
v -30.8293 1.3652 14.8242
v -27.7355 -2.6348 14.8242
v 9.4646 2.4003 18.5904
v 13.3032 -1.0236 15.0373
v 18.0752 -4.4476 11.4842
v -30.8293 3.5148 14.8242
v -25.7929 7.5499 14.6861
v -20.7528 9.7477 17.2606
v -6.9162 10.3379 11.3098
v -2.0077 9.5285 14.3155
v 6.6458 7.2891 14.7714
v 10.6474 6.7764 12.7450
v -22.8025 11.3594 11.9273
v -18.1631 12.4225 14.6861
v -9.8611 12.6098 14.3155
v -4.4938 11.6715 16.6431
v 8.1346 14.7764 11.6374
v 11.1315 14.7764 11.6374
v 8.1669 20.3424 11.7802
v 11.5059 20.3424 11.7802
v -14.8041 -13.8380 19.4559
v -10.2785 -14.3356 20.0021
v -2.2785 -14.2948 19.9976
v 2.7576 -13.7837 19.4499
v -22.4726 -5.3956 18.9477
v -17.6759 -8.6329 21.8685
v -9.5854 -9.2116 24.4562
v -2.8280 -8.7615 24.4526
v 5.2441 -8.6662 22.1570
v 10.4126 -6.2123 19.5308
v -30.6943 2.1093 19.3483
v -25.5949 -0.8239 19.7913
v -18.0400 -1.1140 23.4846
v -9.7085 -1.6863 26.0721
v -5.8610 -4.9984 26.6404
v 7.3006 -0.6492 22.4481
v 10.4126 -2.9330 19.5308
v -30.6943 3.2560 19.3483
v -26.2785 4.3645 19.9404
v -18.1631 6.9592 20.4892
v -10.2876 6.6516 23.7566
v -2.0077 7.9564 22.6701
v 4.1885 4.4074 22.8242
v -15.4195 11.5474 19.2887
v -10.2785 12.0260 19.9799
v -4.4938 11.6715 19.9006
v -15.2143 -6.5369 27.8488
v -11.7900 -6.5369 27.8488
v -0.5277 -5.7868 27.2127
v 2.3973 -5.7868 27.2127
v -15.2143 -3.7075 27.8488
v -9.7085 -1.6863 27.7369
v -2.8280 -1.8885 27.6984
v 2.8881 -1.2236 27.3163
v -7.6270 3.9017 27.6250
v -2.2785 3.9725 27.6255
v 2.6011 3.2458 27.0919
f 6 1 5
f 6 2 1
f 7 2 6
f 7 3 2
f 7 4 3
f 7 8 4
f 10 5 9
f 10 6 5
f 16 1 2
f 16 15 1
f 16 11 15
f 16 12 11
f 3 16 2
f 3 17 16
f 16 13 12
f 16 17 13
f 4 17 3
f 4 18 17
f 17 14 13
f 17 18 14
f 20 1 15
f 20 5 1
f 7 6 21
f 7 21 22
f 23 18 4
f 23 4 8
f 8 7 22
f 8 22 23
f 20 9 5
f 20 25 9
f 25 19 24
f 25 20 19
f 21 6 10
f 21 10 26
f 26 10 9
f 26 9 25
f 27 21 26
f 27 22 21
f 28 22 27
f 28 23 22
f 31 11 12
f 31 30 11
f 32 12 13
f 32 31 12
f 14 32 13
f 14 33 32
f 36 11 30
f 36 15 11
f 36 29 35
f 36 30 29
f 37 33 14
f 37 14 18
f 37 34 33
f 37 38 34
f 40 15 36
f 40 20 15
f 40 19 20
f 40 39 19
f 40 35 39
f 40 36 35
f 37 18 23
f 37 23 41
f 42 37 41
f 42 38 37
f 43 19 39
f 43 24 19
f 44 25 24
f 44 24 43
f 26 25 44
f 26 44 45
f 27 26 45
f 27 45 46
f 41 23 28
f 41 28 47
f 47 28 27
f 47 27 46
f 48 44 43
f 48 49 44
f 49 45 44
f 49 50 45
f 51 45 50
f 51 46 45
f 52 51 50
f 52 53 51
f 55 29 30
f 55 54 29
f 56 30 31
f 56 55 30
f 57 31 32
f 57 56 31
f 58 32 33
f 58 57 32
f 59 33 34
f 59 58 33
f 54 35 29
f 54 61 35
f 62 61 54
f 62 54 55
f 59 34 38
f 59 38 64
f 63 58 59
f 63 59 64
f 67 35 61
f 67 39 35
f 67 60 66
f 67 61 60
f 64 38 42
f 64 42 69
f 42 41 68
f 42 68 69
f 69 68 63
f 69 63 64
f 71 65 70
f 71 66 65
f 72 39 67
f 72 43 39
f 72 66 71
f 72 67 66
f 68 41 47
f 68 47 74
f 74 47 46
f 74 46 73
f 75 71 70
f 75 76 71
f 72 48 43
f 72 77 48
f 76 72 71
f 76 77 72
f 78 49 48
f 78 48 77
f 79 50 49
f 79 49 78
f 73 46 51
f 73 51 80
f 79 52 50
f 79 83 52
f 82 79 78
f 82 83 79
f 84 80 51
f 84 51 53
f 84 53 52
f 84 52 83
f 85 80 84
f 85 81 80
f 87 82 86
f 87 83 82
f 94 88 93
f 94 89 88
f 56 94 55
f 56 95 94
f 57 95 56
f 57 96 95
f 95 91 90
f 95 96 91
f 97 57 58
f 97 96 57
f 100 60 61
f 100 99 60
f 100 92 99
f 100 93 92
f 101 55 94
f 101 62 55
f 62 100 61
f 62 101 100
f 101 93 100
f 101 94 93
f 97 58 63
f 97 63 103
f 102 96 97
f 102 97 103
f 106 60 99
f 106 66 60
f 106 65 66
f 106 105 65
f 106 98 105
f 106 99 98
f 108 103 63
f 108 63 68
f 110 65 105
f 110 70 65
f 110 104 109
f 110 105 104
f 112 108 68
f 112 68 74
f 112 74 73
f 112 73 111
f 112 111 107
f 112 107 108
f 113 70 110
f 113 75 70
f 114 76 75
f 114 75 113
f 115 77 76
f 115 76 114
f 116 78 77
f 116 77 115
f 117 111 73
f 117 73 80
f 81 117 80
f 81 118 117
f 116 82 78
f 116 119 82
f 84 83 120
f 84 120 121
f 118 81 85
f 118 85 122
f 85 84 121
f 85 121 122
f 122 121 117
f 122 117 118
f 119 86 82
f 119 123 86
f 120 83 87
f 120 87 124
f 87 86 123
f 87 123 124
f 127 88 89
f 127 126 88
f 91 128 90
f 91 129 128
f 131 88 126
f 131 93 88
f 131 92 93
f 131 130 92
f 131 125 130
f 131 126 125
f 132 127 89
f 132 89 94
f 133 90 128
f 133 95 90
f 95 132 94
f 95 133 132
f 134 129 91
f 134 91 96
f 133 128 129
f 133 129 134
f 136 92 130
f 136 99 92
f 136 98 99
f 136 135 98
f 134 96 102
f 134 102 137
f 138 102 103
f 138 137 102
f 140 98 135
f 140 105 98
f 140 104 105
f 140 139 104
f 142 138 103
f 142 103 108
f 142 108 107
f 142 107 141
f 143 104 139
f 143 109 104
f 144 110 109
f 144 109 143
f 148 141 107
f 148 107 111
f 149 110 144
f 149 113 110
f 114 113 149
f 114 149 150
f 115 114 150
f 115 150 151
f 116 115 151
f 116 151 152
f 152 151 145
f 152 145 146
f 153 152 146
f 153 146 147
f 154 148 111
f 154 111 117
f 155 116 152
f 155 119 116
f 155 152 153
f 155 153 156
f 154 117 121
f 154 121 157
f 157 121 120
f 157 120 156
f 158 119 155
f 158 123 119
f 159 156 120
f 159 120 124
f 159 124 123
f 159 123 158
f 159 158 155
f 159 155 156
f 161 125 126
f 161 160 125
f 162 126 127
f 162 161 126
f 160 130 125
f 160 163 130
f 164 163 160
f 164 160 161
f 162 127 132
f 162 132 165
f 164 161 162
f 164 162 165
f 166 132 133
f 166 165 132
f 167 133 134
f 167 166 133
f 163 136 130
f 163 169 136
f 169 135 136
f 169 168 135
f 167 134 137
f 167 137 171
f 170 166 167
f 170 167 171
f 172 137 138
f 172 171 137
f 174 135 168
f 174 140 135
f 140 173 139
f 140 174 173
f 172 138 142
f 172 142 177
f 177 142 141
f 177 141 176
f 177 176 171
f 177 171 172
f 178 139 173
f 178 143 139
f 144 143 178
f 144 178 179
f 146 145 181
f 146 181 182
f 147 146 182
f 147 182 183
f 184 176 141
f 184 141 148
f 184 183 175
f 184 175 176
f 185 144 179
f 185 149 144
f 150 149 185
f 150 185 186
f 185 179 180
f 185 180 186
f 187 181 145
f 187 145 151
f 151 150 186
f 151 186 187
f 188 181 187
f 188 182 181
f 189 147 183
f 189 153 147
f 190 184 148
f 190 148 154
f 189 183 184
f 189 184 190
f 191 153 189
f 191 156 153
f 192 190 154
f 192 154 157
f 157 156 191
f 157 191 192
f 191 189 190
f 191 190 192
f 164 193 163
f 164 194 193
f 195 164 165
f 195 194 164
f 196 165 166
f 196 195 165
f 193 169 163
f 193 198 169
f 169 197 168
f 169 198 197
f 199 198 193
f 199 193 194
f 199 194 195
f 199 195 200
f 196 166 170
f 196 170 201
f 200 195 196
f 200 196 201
f 202 170 171
f 202 201 170
f 197 174 168
f 197 204 174
f 174 203 173
f 174 204 203
f 205 204 197
f 205 197 198
f 207 206 199
f 207 199 200
f 202 171 176
f 202 176 209
f 209 176 175
f 209 175 208
f 208 201 202
f 208 202 209
f 203 178 173
f 203 210 178
f 211 179 178
f 211 178 210
f 211 210 203
f 211 203 204
f 180 179 211
f 180 211 212
f 211 204 205
f 211 205 212
f 213 212 205
f 213 205 206
f 215 208 175
f 215 175 183
f 215 183 182
f 215 182 214
f 216 180 212
f 216 186 180
f 187 186 216
f 187 216 217
f 216 212 213
f 216 213 217
f 218 214 182
f 218 182 188
f 188 187 217
f 188 217 218
f 218 217 213
f 218 213 214
f 199 219 198
f 199 220 219
f 222 200 201
f 222 221 200
f 219 205 198
f 219 223 205
f 220 199 206
f 220 206 224
f 206 205 223
f 206 223 224
f 223 219 220
f 223 220 224
f 221 207 200
f 221 225 207
f 207 224 206
f 207 225 224
f 222 201 208
f 222 208 226
f 226 225 221
f 226 221 222
f 227 206 224
f 227 213 206
f 214 213 227
f 214 227 228
f 227 224 225
f 227 225 228
f 226 208 215
f 226 215 229
f 229 215 214
f 229 214 228
f 228 225 226
f 228 226 229
