# parsimony mesh: eg50004_monomer (source /Users/eranagmon/code/v2e-cplx/workspace/studies/ecoli-3d/viz/3d/structures/eg50004_monomer.pdb)
# atoms: 454  voxel: 16 Å  verts: 28  tris: 50
v -6.5796 -7.6941 -8.4961
v 1.9676 -7.8526 -8.7654
v 10.7750 -7.5554 -8.3168
v -7.9554 0.8309 -9.5162
v 1.9676 0.8309 -10.1328
v 10.7414 0.8309 -8.3052
v -8.0492 10.3740 -9.3180
v 1.9676 10.0991 -9.0561
v 10.1920 8.9788 -7.8825
v -7.8039 -8.9648 0.3113
v 2.1170 -8.8374 -0.4758
v 10.7750 -7.5554 -6.3338
v -10.5211 0.8309 0.3113
v 5.7301 0.8309 1.5811
v 10.7414 0.8309 -6.4189
v -8.7497 10.9264 0.3113
v 1.6281 10.5960 -1.0857
v 10.1920 8.9788 -7.3504
v -7.5456 -8.8168 16.3113
v -3.6462 -8.8168 16.3113
v -8.2067 -0.5829 15.6376
v -2.8629 -0.5829 15.6376
v -7.6386 10.0818 9.8551
v -3.9315 10.0818 9.8551
v -6.2352 -7.4968 24.4878
v -5.7666 -7.4968 24.4878
v -6.2352 -6.8587 24.4878
v -5.7666 -6.8587 24.4878
f 5 1 4
f 5 2 1
f 5 3 2
f 5 6 3
f 8 4 7
f 8 5 4
f 9 5 8
f 9 6 5
f 11 1 2
f 11 10 1
f 12 2 3
f 12 11 2
f 13 1 10
f 13 4 1
f 15 12 3
f 15 3 6
f 14 11 12
f 14 12 15
f 13 7 4
f 13 16 7
f 17 8 7
f 17 7 16
f 18 15 6
f 18 6 9
f 18 9 8
f 18 8 17
f 18 17 14
f 18 14 15
f 20 10 11
f 20 19 10
f 21 10 19
f 21 13 10
f 22 20 11
f 22 11 14
f 23 13 21
f 23 16 13
f 24 22 14
f 24 14 17
f 24 17 16
f 24 16 23
f 24 23 21
f 24 21 22
f 26 19 20
f 26 25 19
f 27 19 25
f 27 21 19
f 28 26 20
f 28 20 22
f 28 22 21
f 28 21 27
