# parsimony mesh: g6268_monomer (source /Users/eranagmon/code/v2e-cplx/workspace/studies/ecoli-3d/viz/3d/structures/g6268_monomer.pdb)
# atoms: 2237  voxel: 4 Å  verts: 1031  tris: 2112
v 16.2918 10.8959 -43.4038
v 17.9757 10.8959 -43.4038
v 16.2918 12.1693 -43.4038
v 17.9757 12.1693 -43.4038
v 13.0285 3.3538 -39.0180
v 15.3025 3.1588 -39.3013
v 17.8394 3.2899 -39.2090
v 9.1926 7.4715 -38.8726
v 11.5381 5.9421 -39.1834
v 15.3025 5.6480 -39.9933
v 18.1953 5.6480 -39.5374
v 9.1926 7.9267 -38.8726
v 11.3025 8.3546 -39.0848
v 14.9618 9.6036 -40.5326
v 19.2991 9.5535 -40.6852
v 23.3025 11.0002 -39.2800
v 25.6379 11.5546 -38.8277
v 15.7915 12.6984 -40.7379
v 19.3064 13.2088 -40.7177
v 23.0714 13.9685 -39.2865
v 27.1037 13.5919 -39.1083
v 29.6353 14.8879 -39.0737
v 24.2506 15.8520 -38.9296
v 27.3025 16.1084 -39.1335
v 29.6353 16.0578 -39.0737
v 25.2388 -4.4745 -34.7521
v 25.4186 -4.4745 -34.7521
v 12.9414 -0.5770 -34.9494
v 15.3025 -0.8874 -35.1756
v 19.3025 -1.0508 -35.1527
v 23.6643 -2.2178 -35.2222
v 26.9721 -2.0226 -35.1250
v 29.3172 -0.4697 -34.7568
v 12.5003 1.8715 -36.4648
v 15.3025 1.1588 -37.1756
v 19.2246 1.8331 -37.0440
v 23.3025 1.6480 -35.9510
v 27.0741 1.2650 -35.2368
v 29.3172 -0.3237 -34.7568
v 9.1801 7.4023 -36.7379
v 10.5705 5.4023 -36.7379
v 20.1953 5.6480 -37.7263
v 23.3025 5.6480 -36.0055
v 25.7129 5.6480 -35.0171
v 9.1801 8.1605 -36.7379
v 11.0328 10.0561 -36.9798
v 13.6319 10.9781 -38.4744
v 20.6226 8.2111 -38.0986
v 23.3025 9.0002 -37.3872
v 26.3329 9.9919 -36.4409
v 12.1863 12.9771 -35.8077
v 14.8144 14.0854 -36.7919
v 19.3025 15.2080 -37.9334
v 21.5839 15.5156 -38.6271
v 28.4632 13.5919 -36.4037
v 29.6353 14.8879 -37.5143
v 15.9969 15.7649 -35.1094
v 19.6262 17.3181 -35.7576
v 22.9316 17.3104 -36.7353
v 27.5895 16.2888 -36.4037
v 29.6353 16.0578 -37.5143
v 21.1753 19.7509 -34.8434
v 21.6127 19.7509 -34.8434
v 28.7148 -8.4762 -31.0550
v 29.4218 -8.4762 -31.0550
v 21.2661 -4.3565 -30.7591
v 23.6643 -4.7036 -32.3506
v 27.0667 -5.9761 -32.3080
v 29.4097 -6.3520 -31.0930
v 4.7784 -0.7037 -31.1073
v 7.3025 -1.2888 -31.5400
v 11.4858 -1.6688 -32.7579
v 15.3025 -2.4599 -32.7379
v 19.6807 -3.1257 -32.3506
v 22.5722 -3.4616 -33.4258
v 28.0852 -3.1363 -33.5609
v 29.7694 -2.0226 -32.4317
v 4.7784 0.7738 -31.1073
v 6.9913 1.9235 -31.7517
v 10.5051 1.6480 -33.7281
v 28.2552 2.3430 -33.5909
v 30.1180 1.2650 -32.4497
v 8.2139 5.9573 -32.7101
v 9.9337 4.8302 -34.0248
v 27.7129 5.6480 -33.0261
v 30.3672 5.6480 -31.0261
v 8.7786 9.4908 -32.8604
v 9.5197 10.7193 -34.2754
v 28.3390 9.6480 -33.7263
v 31.3915 9.3303 -32.2630
v 34.1651 10.4519 -31.9619
v 9.0583 12.2387 -31.6087
v 11.0328 13.2642 -32.8604
v 14.9192 14.8041 -33.0121
v 18.0798 14.8052 -31.8616
v 29.0018 13.6480 -34.5088
v 31.5247 13.9287 -32.8890
v 34.1651 12.7826 -31.9619
v 15.9969 15.7649 -34.5282
v 19.2195 17.3181 -33.0121
v 23.7321 18.3341 -32.7379
v 27.5895 16.4353 -33.0827
v 30.3395 16.0454 -31.9792
v 21.1158 19.8155 -32.7379
v 21.7321 19.8155 -32.7379
v 28.7148 -8.4762 -30.6117
v 29.4218 -8.4762 -30.6117
v 1.0261 -4.5985 -27.1879
v 2.1498 -4.5985 -27.1879
v 16.5614 -5.0362 -27.7959
v 19.6807 -4.8234 -28.9727
v 23.3025 -4.8704 -28.7379
v 27.1319 -5.9802 -29.3228
v 29.4097 -6.3520 -30.6152
v 1.0564 -2.3520 -27.1991
v 3.4641 -2.4180 -28.3787
v 7.3025 -2.9328 -28.7379
v 11.3025 -3.0841 -28.7379
v 15.2578 -3.5670 -28.9727
v 18.5995 -4.0431 -30.4626
v 28.2157 -3.6307 -28.0339
v 31.0176 -2.0137 -28.7776
v 33.3527 -0.3968 -26.8545
v 1.2507 -0.2353 -26.9029
v 3.3327 1.6026 -28.7807
v 5.4506 3.4405 -30.6586
v 32.3109 1.6480 -29.5861
v 33.8460 1.6480 -27.5861
v 4.2457 5.6480 -28.1859
v 5.9817 5.6480 -30.1859
v 32.3672 5.6480 -30.3724
v 35.3071 5.6316 -28.3805
v 38.5451 6.9540 -27.2963
v 4.6423 8.3321 -27.4146
v 6.6763 9.6585 -28.7440
v 32.7842 7.7852 -30.5697
v 35.4200 9.3303 -29.5623
v 38.4756 9.6480 -27.3946
v 8.4516 12.8239 -28.7379
v 11.4579 14.6531 -28.5538
v 15.3025 14.5963 -29.2634
v 18.0798 14.8052 -29.7453
v 32.9246 15.3769 -28.7379
v 35.4200 13.0929 -28.5283
v 37.6240 11.7509 -27.0552
v 12.8949 15.8032 -27.0978
v 15.3025 15.8905 -27.2634
v 19.6303 17.1532 -28.8382
v 23.0601 17.7670 -29.0539
v 27.3025 16.8237 -28.7379
v 30.9246 16.3065 -28.7379
v 21.1807 19.7683 -30.5978
v 21.5651 19.7683 -30.5978
v 12.2782 -8.6779 -23.1236
v 15.3025 -8.6594 -23.1821
v 17.4997 -8.4360 -22.9445
v 1.0261 -4.5985 -26.4549
v 2.1498 -4.5985 -26.4549
v 8.0678 -5.4240 -23.7561
v 11.0879 -6.5952 -23.9428
v 15.2578 -6.3625 -25.0559
v 19.0208 -6.6156 -24.4619
v 23.5738 -4.6836 -24.4974
v 25.5491 -4.4828 -25.6704
v 1.0564 -2.3520 -26.4426
v 3.4599 -2.8529 -25.2077
v 6.9617 -4.0001 -24.9488
v 11.3025 -3.6069 -25.9548
v 13.8947 -3.6135 -26.0089
v 25.0880 -4.1712 -23.0038
v 27.1999 -2.5676 -24.3233
v 31.3025 -0.8446 -25.5907
v 33.3527 -0.3968 -26.3034
v 1.2507 -0.2353 -26.6273
v 2.3458 1.3180 -25.0715
v 28.8508 -0.1253 -22.9761
v 31.3025 0.0105 -23.5907
v 34.3359 1.4019 -24.8772
v 2.7922 5.6480 -24.7379
v 36.5566 4.5744 -24.7379
v 38.3615 6.5744 -24.7379
v 3.9686 9.6585 -24.7653
v 5.7455 10.9988 -26.1169
v 38.7709 9.6480 -24.7379
v 4.6975 12.1256 -23.4502
v 7.1683 13.0204 -24.7653
v 10.7729 15.0054 -24.7379
v 32.8960 15.2616 -24.7379
v 35.3025 13.9227 -24.7379
v 37.7119 12.3091 -24.7379
v 12.7729 15.8852 -24.7379
v 15.3025 16.0913 -24.7379
v 19.3025 16.6135 -24.7379
v 23.3025 16.6216 -24.7379
v 27.3025 16.4950 -24.7379
v 30.8960 16.2808 -24.7379
v 9.2258 -8.4253 -19.3078
v 11.0879 -8.6564 -20.6798
v 15.3377 -8.6628 -20.7337
v 19.2062 -8.4121 -20.4448
v 21.4243 -8.3882 -18.8254
v 7.7726 -6.5952 -20.6798
v 9.6115 -8.0907 -21.9745
v 16.6946 -7.8144 -19.3975
v 19.2062 -7.5790 -20.4448
v 23.2562 -6.1829 -20.7280
v 25.9967 -5.0222 -19.9640
v 4.5728 -2.2156 -20.7379
v 5.4476 -4.2156 -20.7379
v 25.0880 -4.1712 -22.6307
v 26.6690 -2.6435 -21.0736
v 3.3602 1.6480 -20.7379
v 28.4899 0.6148 -20.7379
v 31.1099 2.1754 -20.7213
v 34.3002 2.5712 -22.0436
v 2.8991 5.6480 -20.7379
v 32.3149 4.7136 -19.3769
v 35.1973 5.8121 -20.9526
v 37.4719 6.9106 -22.5283
v 3.2049 9.6480 -20.7379
v 35.9488 9.6480 -20.1967
v 37.5978 9.6480 -22.1967
v 4.3957 12.4154 -20.7379
v 7.3025 13.9975 -20.7379
v 10.1375 15.2301 -20.7379
v 32.9679 15.2954 -22.1510
v 35.2633 13.8610 -20.8551
v 37.5269 12.4266 -22.2259
v 12.2111 17.3446 -20.4590
v 15.1438 17.7112 -20.4590
v 19.3025 16.9827 -20.7379
v 23.3025 16.8602 -20.7379
v 27.3025 16.8335 -20.7379
v 31.5018 16.4195 -20.7858
v 33.8209 15.8008 -19.4844
v 13.0368 20.2230 -18.9397
v 13.7046 20.2230 -18.9397
v 9.2258 -8.4253 -18.4175
v 11.3025 -8.4881 -18.0174
v 14.0279 -8.4601 -18.0977
v 20.9127 -8.3882 -18.6308
v 21.4243 -8.3882 -18.6308
v 8.2314 -6.3211 -16.9457
v 11.3025 -7.6306 -16.0174
v 15.3377 -7.2595 -16.7538
v 19.4686 -6.9648 -17.0736
v 22.9756 -7.1836 -17.0736
v 27.3190 -5.5539 -16.6948
v 29.6089 -4.9010 -15.3327
v 4.8620 -1.6154 -17.9698
v 6.1708 -2.7100 -16.6770
v 28.3848 -2.1238 -16.6948
v 29.6089 -3.3049 -15.3327
v 4.4945 1.6480 -17.2767
v 5.8485 1.6480 -15.2767
v 28.6347 0.6432 -16.7379
v 29.9008 2.6432 -16.7379
v 4.3169 5.3591 -16.4298
v 5.5415 3.8332 -14.8910
v 32.1467 5.8873 -16.5198
v 33.4277 7.3802 -17.7077
v 4.0072 9.6480 -16.7379
v 33.2321 9.6480 -14.9967
v 33.9488 9.6480 -16.9967
v 4.7615 12.1573 -16.7379
v 7.3025 13.5427 -16.7379
v 9.7951 15.0334 -16.7379
v 20.2901 14.9591 -15.2994
v 23.3025 14.7195 -15.5750
v 25.9792 15.0990 -15.2925
v 33.2660 11.7157 -14.7799
v 34.1973 13.2886 -16.3631
v 11.3261 17.6480 -16.7379
v 16.3713 18.8189 -18.3036
v 19.1232 17.3992 -16.8015
v 23.3025 16.1898 -17.5750
v 27.3085 16.5585 -16.6707
v 31.3025 16.8673 -16.7379
v 33.8686 16.0223 -16.7379
v 12.3376 21.5930 -16.8733
v 15.1438 21.5930 -17.4339
v 17.7961 21.6480 -15.4387
v 12.3196 24.6072 -15.6303
v 15.3025 24.3722 -15.4337
v 17.3067 23.6544 -14.7733
v 4.6115 -8.9118 -11.2504
v 6.1427 -8.9118 -11.2504
v 4.1982 -6.3520 -11.5909
v 7.4876 -6.3050 -12.6399
v 11.4444 -5.7494 -12.4545
v 15.0558 -5.4611 -12.4545
v 19.3025 -5.7477 -12.7379
v 23.3025 -5.9471 -12.7379
v 27.1716 -5.2962 -12.7786
v 29.6089 -4.9010 -14.1391
v -2.7692 -0.7316 -10.8142
v -0.6975 -1.1076 -10.9798
v 3.2336 -2.3288 -11.5835
v 6.3168 -2.3520 -13.6103
v 12.8724 -3.8680 -10.9322
v 13.5580 -3.8680 -10.9322
v 28.4224 -2.1238 -12.7786
v 29.6089 -3.3049 -14.1391
v -2.7692 -0.1403 -10.8142
v -0.6975 0.1092 -10.9798
v 3.4226 1.4899 -11.8816
v 5.8485 1.6480 -13.9829
v 28.8660 0.4384 -12.7379
v 29.9543 2.4384 -12.7379
v 4.8812 5.5045 -12.8447
v 5.6251 5.5045 -12.8447
v 32.1895 5.5673 -13.1003
v 33.9891 6.8468 -12.0085
v 4.8928 9.5712 -12.5931
v 5.7087 8.1867 -11.1633
v 16.3190 10.7581 -11.7399
v 18.5198 10.7581 -11.7399
v 32.5565 9.5633 -13.1003
v 33.9891 8.1736 -12.0085
v 5.0725 11.9734 -12.7379
v 7.3025 13.0029 -12.7379
v 10.0463 14.6775 -12.7379
v 16.1716 13.6480 -12.3201
v 19.4049 13.3303 -13.1260
v 23.3025 13.0349 -12.7379
v 27.3085 14.1045 -12.8409
v 31.3762 13.1532 -13.0082
v 33.5388 14.3823 -14.4401
v 12.0817 17.8706 -12.5418
v 15.3878 17.8706 -11.8486
v 18.0336 17.6480 -13.8715
v 28.6458 16.0047 -14.2430
v 31.3025 16.1752 -14.1433
v 33.5388 15.9943 -14.4401
v 12.2956 21.6480 -13.6609
v 15.3025 21.6480 -12.9596
v 17.7961 21.6480 -14.0366
v 12.3196 24.6072 -14.2954
v 15.3025 24.3722 -14.4019
v 17.3067 23.6544 -14.7324
v -2.9306 -16.4683 -6.9011
v -2.5306 -16.4683 -6.9011
v -3.7373 -14.3520 -7.3009
v -1.8736 -14.3520 -7.3009
v -4.5364 -10.3520 -7.5837
v -0.5385 -10.2872 -7.7008
v 3.3307 -8.9112 -8.5023
v 6.1427 -8.9118 -9.7896
v -7.5506 -5.4618 -6.8058
v -5.0767 -6.6179 -7.7904
v -0.6975 -6.3520 -8.9975
v 3.2775 -6.9846 -8.6143
v 7.4066 -7.3090 -8.5689
v 10.2622 -5.4412 -8.7379
v 16.2247 -4.8171 -10.3241
v 19.3025 -5.0785 -9.5919
v 23.3025 -4.9102 -9.5806
v 25.7510 -4.5927 -10.3091
v -7.5506 -3.9635 -6.8058
v -4.6261 -2.3475 -8.6782
v -0.6975 -3.1076 -10.2345
v 1.8544 -3.6466 -10.2540
v 12.0931 -2.4616 -8.8246
v 15.0558 -2.4616 -9.9728
v 19.0524 -2.6342 -8.0176
v 23.3025 -3.6545 -7.5806
v 26.5385 -2.3118 -8.8806
v -3.6569 1.3750 -8.7327
v -0.6126 2.1991 -8.7327
v 2.3259 2.6781 -8.7379
v 11.9494 1.6480 -8.0357
v 15.4723 1.4779 -8.3726
v 17.5523 0.0312 -7.7321
v 28.4187 1.7216 -8.6670
v 29.7196 3.1040 -9.9531
v -3.1060 3.9312 -7.3958
v -1.8893 3.9312 -7.3958
v 4.3259 4.7796 -8.7379
v 7.1462 6.2366 -8.8798
v 10.9972 5.3313 -8.3924
v 15.4723 5.6650 -8.2710
v 19.3025 6.7687 -7.6416
v 23.3025 6.6154 -7.6314
v 27.4990 5.4213 -7.3558
v 31.1066 5.4420 -8.6398
v 33.9891 6.8468 -9.9933
v 5.1130 10.8534 -10.2622
v 7.1462 9.5712 -9.9787
v 11.3025 9.6480 -9.7412
v 15.1124 9.5141 -10.0348
v 19.6329 9.5141 -9.7968
v 23.3025 9.6480 -9.0501
v 27.3890 9.4396 -8.2443
v 30.9900 9.4038 -8.9447
v 33.9891 8.1736 -9.9933
v 5.1130 11.9484 -10.2622
v 7.3025 12.4751 -10.1115
v 11.1506 13.7294 -10.0210
v 14.1716 13.6480 -10.1114
v 21.1864 11.7015 -10.6312
v 23.3025 11.9634 -10.1566
v 27.3025 12.1304 -10.1054
v 29.4864 11.9241 -10.5629
v 12.3828 16.6857 -10.0438
v 14.1114 16.6857 -10.0438
v -2.9306 -16.4683 -6.4386
v -2.5306 -16.4683 -6.4386
v -6.7703 -12.4367 -3.1821
v -4.7240 -14.0791 -4.8103
v -0.8149 -14.2048 -4.8968
v 3.3025 -12.6060 -3.2022
v 5.3045 -12.3545 -2.7398
v -6.7703 -11.9470 -3.1821
v -6.4103 -10.5090 -4.6044
v 0.9008 -11.5773 -6.0217
v 3.5125 -10.6252 -4.3807
v 5.3045 -12.3398 -2.7398
v -7.9301 -5.8838 -4.7379
v -6.4735 -7.8838 -4.7379
v 4.6175 -7.5188 -4.7379
v 7.1226 -5.7823 -4.7696
v 9.6789 -5.1801 -6.1240
v -7.6996 -2.5189 -4.4798
v -6.4830 -1.2968 -5.6411
v 8.3360 -3.6631 -3.4574
v 10.3605 -2.3386 -4.7696
v 20.2190 -1.4889 -6.2048
v 23.3025 -1.6545 -6.1092
v 25.9041 -0.9517 -6.4328
v -6.7242 -0.2980 -2.9744
v -5.4406 1.2804 -4.4798
v 0.7774 3.2849 -6.1292
v 1.8001 3.2849 -6.1292
v 10.5361 1.6480 -4.7379
v 16.9188 2.6979 -6.3795
v 19.0524 1.4779 -5.5965
v 23.3025 1.6480 -5.1892
v 26.4403 1.6480 -6.3471
v -3.2872 4.1211 -4.7379
v -0.6126 4.6679 -4.7727
v 3.0513 5.8396 -4.6548
v 7.0513 5.7728 -4.6034
v 9.4959 3.8182 -4.7379
v 16.9188 4.3430 -6.3795
v 19.3025 4.7687 -5.7110
v 23.3025 4.6154 -5.8179
v 27.4990 5.4213 -6.5293
v 29.8269 6.7039 -6.5366
v 4.3024 7.8112 -3.1804
v 5.5504 7.8112 -3.1804
v 28.7800 7.9673 -6.5366
v 29.8269 7.9673 -6.5366
v 1.2155 -20.4206 1.1827
v 3.3025 -20.8162 0.5423
v 6.0891 -20.9024 0.3818
v -2.7261 -16.3643 1.2409
v -0.3497 -17.9594 1.0140
v 3.3025 -18.3520 -0.1554
v 6.4980 -18.3520 0.1388
v -7.0355 -12.8593 -0.7379
v -4.3147 -14.7795 -0.3506
v -0.6975 -15.1312 -0.9885
v 3.3025 -14.6060 -1.4356
v 7.0405 -13.8408 -0.4628
v 9.4400 -12.6604 1.0964
v -7.1983 -10.5090 -0.9483
v -6.4337 -9.2803 -2.4219
v 4.9751 -9.6731 -2.4173
v 6.9037 -10.7447 -1.4720
v 9.6297 -10.3520 0.6041
v -7.5082 -6.5116 -0.9483
v -6.4337 -7.9513 -2.4219
v 4.9751 -7.7651 -2.4173
v 7.1099 -6.3978 -0.9334
v 9.6013 -7.6973 0.5504
v -7.7550 -2.3520 -0.7379
v 8.0136 -3.3930 -0.7379
v 10.0807 -1.3930 -0.7379
v -7.1488 1.2804 -0.6320
v -5.7419 2.3687 -1.8948
v 9.1841 3.4572 0.5807
v 9.9850 1.9335 -0.7467
v -7.0069 4.1215 0.7719
v -4.5242 4.5606 -0.6320
v -0.6975 6.1958 -0.7379
v 3.1025 7.4368 -0.4036
v 7.6041 5.9959 0.0262
v 9.4463 5.1873 -0.5369
v 4.3024 7.8112 -1.5141
v 6.8141 8.0753 -0.2510
v 9.4901 8.3394 1.0121
v 4.7597 -24.4063 5.1819
v 5.3449 -24.4063 5.1819
v 0.8371 -21.2784 3.2621
v 3.3768 -23.0234 3.6140
v 6.4991 -22.2822 3.6140
v -6.7526 -16.4377 5.1004
v -4.3147 -16.7790 3.5651
v -1.1629 -18.8215 3.2621
v 8.2276 -18.3520 3.2621
v -7.1171 -14.3071 3.5651
v -5.3928 -15.6105 2.4338
v 8.5078 -14.1371 3.2174
v 9.4400 -12.6604 1.8542
v -7.7143 -10.3520 3.2621
v 8.3197 -10.3520 4.1324
v 9.6297 -10.3520 2.1324
v -7.7052 -6.3520 3.2621
v 8.2848 -6.3592 3.2030
v 9.6013 -7.6973 1.8303
v -10.8249 -0.5748 5.1425
v -8.9263 -2.0857 3.5903
v 8.5586 -3.4943 3.2621
v 9.7167 -1.4943 3.2621
v -27.1852 3.4227 5.1303
v -24.6975 2.6902 4.5066
v -21.7491 2.5963 4.3866
v -10.8249 -0.2544 5.1425
v -8.8024 1.3065 3.5903
v 9.1841 3.4572 1.6047
v 9.9416 1.9335 3.0676
v -31.4524 7.4516 5.2312
v -28.9139 5.6333 5.1808
v -24.6975 4.1236 4.5066
v -21.7491 4.1152 4.3866
v -7.0166 4.3651 3.2621
v -4.9711 6.2416 3.0950
v -0.6975 7.1334 1.5838
v 3.3025 7.5822 1.3296
v 7.2975 5.7924 1.4580
v 9.8516 5.4422 3.0676
v -31.4524 7.7001 5.2312
v -30.6427 7.7001 5.2312
v -3.9502 9.6480 4.2812
v -0.4757 9.9106 3.7018
v 3.1527 9.9106 3.5414
v 6.9676 9.6629 2.3929
v 9.6093 9.6629 3.3380
v -3.2452 11.9728 4.8994
v -1.6612 11.9728 4.8994
v 4.3862 11.8801 4.9708
v 7.3025 11.9032 4.6386
v 9.4115 11.7562 4.7220
v 4.7597 -24.4063 5.6362
v 5.3449 -24.4063 5.6362
v 0.6230 -21.7783 7.2621
v 3.3768 -23.5094 7.0865
v 6.1395 -22.3683 7.0865
v -7.2189 -16.8343 7.2621
v -4.6975 -17.5859 7.2621
v -1.3770 -19.1036 7.2621
v 8.3985 -18.3014 6.9831
v 9.8989 -16.9343 8.1305
v -8.2911 -14.3520 7.2621
v 8.7036 -14.3520 5.6415
v 10.1972 -14.3520 7.6415
v -8.8734 -10.3520 7.2621
v 8.3197 -10.3520 6.1927
v 9.8535 -10.3520 8.1927
v -26.9463 -4.5367 9.1041
v -24.6975 -4.5046 9.1288
v -20.6975 -4.5610 9.1225
v -18.3942 -4.6119 9.0956
v -11.2028 -5.3742 8.6460
v -9.4535 -6.5653 7.2925
v 8.4141 -6.3910 7.4241
v 9.4408 -7.7504 8.8654
v -35.2328 -0.8626 8.6099
v -32.6975 -1.0715 8.1385
v -28.4468 -2.2213 8.2903
v -24.6975 -2.3520 7.9133
v -20.6975 -2.3520 7.9896
v -16.9155 -2.0336 8.7969
v -12.3472 -1.8647 7.5690
v -9.8192 -3.2415 5.9794
v 8.2798 -2.4197 7.0018
v 9.4994 -1.1315 5.4949
v -38.9483 3.2250 8.3701
v -36.6187 1.7942 7.8438
v -32.6975 1.6480 6.7893
v -28.5901 1.9128 6.1975
v -24.6975 0.6902 6.0465
v -20.5285 1.4170 6.1511
v -16.6975 1.6480 7.5879
v -12.4284 1.3419 7.5692
v -8.3672 2.4138 7.4429
v -6.6291 3.5364 8.8967
v 8.3743 0.4658 8.1616
v 10.2015 1.7387 7.0018
v -38.9483 4.9681 8.3701
v -37.0924 6.0401 7.4816
v -32.7505 5.9302 5.8292
v -28.8720 5.7104 6.5567
v -24.6975 5.4705 7.2621
v -20.4797 5.6921 7.2993
v -16.6975 5.6480 7.6102
v -13.7425 5.6480 8.5543
v -6.9889 5.3064 7.3472
v -6.5579 5.3064 7.3472
v 10.6757 5.6480 7.2621
v -36.0222 8.3114 8.0062
v -32.7505 8.3716 6.9086
v -30.1371 8.0549 7.2621
v -19.0996 9.6480 9.0608
v -17.0285 9.7516 8.9043
v -14.0898 8.4873 8.9341
v -7.1642 7.9327 8.4643
v -4.8660 9.4739 7.2536
v -0.4757 11.0110 7.3306
v 2.0135 11.3264 7.2621
v 8.3697 10.8479 8.2724
v 9.6856 9.5680 7.0683
v -18.7208 11.6764 9.2449
v -18.5825 11.6764 9.2449
v -3.2452 11.9728 6.0429
v -1.6612 11.9728 6.0429
v 4.0135 11.9204 7.2621
v 7.1428 11.9309 7.0683
v 9.4115 11.7562 5.6057
v 0.9299 -21.0871 9.6931
v 3.3025 -21.4237 9.8103
v 5.4898 -21.0459 9.5620
v -10.7980 -16.4935 13.0119
v -8.6816 -16.9805 11.5120
v -4.7941 -17.1287 11.1631
v -0.4476 -18.0844 11.0618
v 3.3025 -19.0898 11.8103
v 7.0149 -19.2481 11.0420
v 11.2603 -17.3131 11.6411
v 13.3178 -16.3679 13.2271
v -10.7980 -15.8742 13.0119
v -9.9178 -14.4653 11.5120
v -3.5251 -15.2006 12.4305
v -1.8250 -15.2006 12.4305
v 12.1972 -14.3520 11.1806
v 13.3354 -14.3520 13.1806
v -31.5734 -8.8950 12.0039
v -29.9317 -8.8950 12.0039
v -22.8982 -8.7379 13.1894
v -22.2791 -8.7379 13.1894
v -12.0210 -9.2771 12.1226
v -10.2202 -10.5070 10.9784
v 8.4967 -8.9635 12.3108
v 11.0032 -10.6416 11.4163
v 13.3311 -12.3196 13.1884
v -35.0671 -5.1672 12.8072
v -32.8231 -6.4411 11.8508
v -28.4390 -6.1463 10.9802
v -24.4179 -6.5164 11.6184
v -20.8465 -6.7812 11.6184
v -16.9155 -5.9555 11.4179
v -12.2126 -6.0248 11.8457
v -10.5937 -6.2066 11.3410
v 7.8306 -6.3910 11.0913
v 9.4408 -7.7504 9.6442
v -35.6560 -2.2584 11.3891
v -32.6975 -3.0715 10.4416
v -29.6130 -3.4675 9.9564
v -15.7275 -3.1546 10.1885
v -12.3083 -3.7138 11.7072
v -10.6791 -4.2730 13.2260
v 6.4858 -2.3520 11.2621
v -38.9183 3.2234 11.2621
v -37.6185 1.2234 11.2621
v -11.4503 2.4860 11.2621
v -8.5738 2.6515 11.0314
v -6.6291 3.5364 9.5443
v 7.3661 1.7387 11.1966
v 10.0911 3.1324 9.8196
v -38.9183 4.7937 11.2621
v -38.2221 6.7937 11.2621
v -31.5267 6.9054 12.5017
v -28.6821 6.4911 11.2059
v -24.7416 6.7092 11.0922
v -21.8771 7.2689 9.6457
v -12.7473 5.6480 11.2621
v -7.1611 5.1923 10.9404
v -5.5253 5.1620 10.9340
v -1.8552 6.7588 12.4732
v 8.2112 5.6480 12.3234
v 10.1300 5.6480 10.3234
v -35.9225 9.6461 11.6530
v -33.1094 9.5583 11.5410
v -30.0051 8.1384 9.8351
v -23.4376 8.2248 12.3123
v -20.8828 9.5941 11.0922
v -15.6761 11.2045 11.2621
v -13.9946 9.2045 11.2621
v -7.1642 7.9327 9.6698
v -4.6975 8.3869 9.9763
v -0.5921 8.9631 11.1888
v 3.2210 10.6160 11.1513
v 7.3348 9.6423 11.2653
v 9.6173 8.1813 10.1197
v -34.7064 11.6517 13.2470
v -34.6921 11.6517 13.2470
v -19.0445 12.0340 11.2621
v -17.6761 12.0340 11.2621
v 4.5001 11.7792 9.7442
v 5.7031 11.7792 9.7442
v -10.7980 -16.4935 13.4662
v -8.3411 -16.6678 14.9845
v -6.0909 -16.6406 15.2621
v 0.7807 -16.6819 15.2621
v 3.2989 -16.9604 15.5791
v 7.3025 -17.5354 14.7606
v 11.3025 -17.1168 13.8808
v 13.3178 -16.3679 13.2841
v -10.7980 -15.8742 13.4662
v -9.4307 -14.4653 14.9845
v -4.0909 -15.0257 15.2621
v -1.2193 -15.0257 15.2621
v 4.6299 -16.2692 17.1238
v 7.3429 -14.7023 16.5018
v 11.3025 -14.3520 14.4851
v 13.3354 -14.3520 13.3318
v -35.5617 -9.2539 16.3735
v -32.8231 -9.5288 15.1289
v -28.6381 -9.1531 15.2744
v -24.4179 -9.1455 15.2744
v -20.8465 -9.1264 15.1948
v -16.6975 -8.8442 15.6898
v -13.0916 -9.6045 14.8715
v -10.0594 -11.6082 15.2621
v 5.0849 -8.5805 16.9006
v 7.2666 -10.1054 15.4487
v 11.3025 -11.7864 13.8664
v 13.3311 -12.3196 13.3330
v -35.9981 -6.4411 15.1289
v -34.2401 -7.8339 13.7068
v -27.2651 -7.7558 13.9492
v -25.5648 -7.7558 13.9492
v -19.6124 -8.1220 13.8167
v -16.6975 -8.1614 13.6898
v -12.7762 -6.3053 14.4116
v -10.2807 -4.7883 15.2621
v 4.5817 -6.3520 16.2445
v 5.8649 -6.3520 14.2445
v -38.7202 -0.5060 17.1802
v -37.4953 -2.0444 15.6130
v -11.4649 -2.7046 15.2160
v -10.1817 -2.7046 15.2160
v 0.6388 -0.9361 16.2563
v 3.2564 -2.3025 15.3520
v 5.5844 -2.3520 13.6288
v -38.7306 1.6162 15.2909
v -38.0483 1.6162 15.2909
v -11.6870 1.5442 15.2160
v -8.7759 1.7595 15.1916
v -4.6975 3.1949 16.4067
v -0.6957 1.8479 16.0860
v 3.3025 1.6480 14.3557
v 5.5782 1.6480 13.5184
v -38.7411 3.8555 13.4016
v -37.2237 5.3725 14.9458
v -31.5267 6.9054 14.1521
v -28.6975 6.5706 14.8135
v -26.1043 6.9541 14.4407
v -13.0919 5.6480 15.2621
v -7.1580 3.9024 13.8647
v -4.6975 4.1719 14.4067
v -0.5921 5.5145 14.4829
v 3.3025 5.6480 14.7020
v 6.2112 5.6480 13.8686
v -35.2237 9.3371 14.8660
v -33.1094 9.1824 15.0437
v -28.6975 7.8827 16.8135
v -24.7416 8.2732 15.5692
v -20.5612 10.6134 15.6228
v -16.3494 11.1665 15.6228
v -14.1694 9.0764 15.2621
v 0.8115 8.0060 13.5844
v 3.3025 8.5080 13.9673
v 6.2999 8.4367 13.8801
v -34.7064 11.6517 13.2686
v -34.6921 11.6517 13.2686
v -19.1369 12.1342 14.5299
v -17.4507 12.1342 14.5299
v -6.7702 -16.3882 17.4634
v -4.8998 -16.4788 18.9282
v -0.5777 -16.4758 18.8672
v 1.9632 -16.3823 17.3412
v -34.9792 -12.9560 20.4846
v -33.6325 -12.9560 20.4846
v -7.7378 -14.4862 18.9828
v -4.8998 -15.8220 18.9282
v -0.5777 -15.6627 18.8672
v 3.4709 -14.5964 19.1690
v 6.0364 -13.6025 18.3301
v -35.6461 -10.4931 19.1956
v -32.4585 -11.4476 19.1956
v -28.6975 -10.1127 19.2621
v -24.6975 -9.7344 19.2621
v -20.6975 -9.8204 19.2621
v -16.6975 -10.0943 19.2621
v -12.6170 -9.6729 19.2093
v -9.4973 -10.4019 19.2093
v 4.4912 -10.0891 19.5029
v 6.0364 -11.2472 18.3301
v -38.9684 -4.8819 20.4913
v -37.6375 -6.2699 19.1996
v -11.3689 -6.0222 19.4570
v -9.2506 -5.7740 19.8439
v -6.2253 -5.2776 20.6177
v 1.0222 -4.6634 20.9106
v 2.6395 -6.1389 19.4512
v -39.0169 -2.0444 19.1996
v -38.2982 -3.1726 17.8246
v -11.6196 -2.3520 18.8288
v -9.1333 -2.6759 19.5955
v -5.0888 -1.9867 20.5950
v -0.5028 -2.2342 19.4082
v 1.8924 -3.6027 18.2439
v -38.8935 0.0467 19.2621
v -37.5698 2.0467 19.2621
v -14.7234 3.6246 21.2295
v -12.6874 1.6795 19.7181
v -8.9152 0.3709 19.4288
v -5.0504 0.9190 19.2483
v -2.0279 0.6479 17.9057
v -35.4914 5.5350 19.0595
v -33.6933 6.7930 20.2578
v -14.7234 3.8759 21.2295
v -14.1838 5.3847 19.6425
v -34.8576 7.7965 17.5912
v -32.4950 7.9798 19.0595
v -28.6975 8.2393 19.2621
v -24.6975 8.9826 19.2621
v -20.6975 10.3097 19.2621
v -16.6975 9.8151 19.2621
v -14.3849 8.2000 19.2621
v -31.8735 -16.8691 24.6605
v -28.6975 -16.9006 24.7167
v -26.1358 -16.5664 25.1364
v -3.4853 -16.6576 23.2621
v -2.1270 -16.6576 23.2621
v -35.1975 -13.6769 23.2621
v -32.7530 -14.5686 23.0342
v -28.6975 -14.3520 23.6334
v -25.7591 -14.3520 24.9752
v -19.0234 -12.4267 25.1502
v -16.6975 -12.5889 24.6248
v -13.4145 -12.5931 24.5242
v -8.2255 -13.2899 23.2621
v -5.4853 -15.2899 23.2621
v -0.1040 -14.2950 23.3498
v 2.3119 -12.9236 22.0749
v -35.3586 -10.2124 23.2588
v -32.5894 -10.4395 22.9989
v -28.6975 -11.5186 22.1788
v -24.6838 -11.0776 23.5080
v -20.4931 -11.1656 23.5949
v -16.6975 -11.6021 22.6248
v -12.3223 -10.8578 23.2297
v -9.7230 -10.7355 23.2660
v 0.8643 -12.0100 24.7415
v 2.6620 -10.5468 23.3498
v -38.9684 -4.8819 22.3469
v -36.7891 -6.3290 23.4685
v -34.2131 -7.7761 24.5900
v -11.2300 -7.1310 21.9353
v -8.5690 -6.0216 22.6934
v -4.8142 -5.1615 23.4714
v -0.4657 -5.0640 23.4714
v 2.2448 -7.0676 23.2621
v -39.2501 -2.6172 23.5130
v -38.4454 -4.1273 25.0136
v -8.1067 -2.0055 22.8804
v -5.0888 -1.9867 21.7851
v -1.6444 -3.5323 22.2777
v -39.1850 0.3917 23.2621
v -37.4314 2.3917 23.2621
v -14.7234 3.6246 21.3835
v -13.0132 2.3235 22.9350
v -8.8898 -0.0289 22.8804
v -6.6189 -0.2961 21.2926
v -35.4314 4.2009 23.2621
v -32.4950 6.3973 23.4012
v -30.5444 7.4929 24.8273
v -19.5051 6.7773 24.6432
v -15.8515 5.1460 22.7936
v -14.6061 5.1644 22.6916
v -31.0267 7.7987 22.1607
v -29.0056 8.2443 23.4012
v -24.6975 9.2732 23.2621
v -20.7821 8.9585 23.2908
v -16.6975 8.3440 21.8512
v -14.6553 7.7156 21.3331
v -31.8462 -17.1180 27.2621
v -28.6975 -18.1418 27.2621
v -24.7605 -17.8124 27.0437
v -20.6975 -17.2767 28.4299
v -18.5562 -16.5159 29.1832
v -3.0402 -16.5421 25.6630
v -2.4113 -16.5421 25.6630
v -35.0826 -13.5145 26.0417
v -33.7143 -14.6495 27.3299
v -23.7591 -14.3520 25.8038
v -20.4931 -13.9969 26.4481
v -17.0127 -14.5895 27.6147
v -12.3277 -13.5399 26.8709
v -8.7531 -13.0282 27.1022
v -4.5032 -14.1681 26.8719
v -1.8115 -14.3520 26.5252
v -35.0826 -11.4527 26.0417
v -33.8438 -10.2124 27.3299
v -23.3413 -11.9880 25.6817
v -21.6901 -11.9880 25.6817
v -10.7478 -12.3245 25.2768
v -8.7531 -12.0928 27.1022
v -4.8747 -10.4574 28.7653
v -0.5604 -10.5468 27.0747
v 2.0362 -9.3433 26.1098
v -35.7788 -5.1095 26.1569
v -33.9636 -6.4065 27.3990
v -7.0607 -4.9292 27.2621
v -4.8747 -6.5534 27.3961
v -0.6975 -7.0085 26.5654
v 2.0362 -7.6614 26.1098
v -39.0259 -1.2087 27.2621
v -36.9463 -3.2787 27.3990
v -34.3937 -4.0876 28.8236
v -10.9565 -0.6351 28.9354
v -9.1803 -2.1218 27.4661
v -39.0259 0.1025 27.2621
v -37.4496 2.1025 27.2621
v -23.3043 2.9598 28.0570
v -20.6975 2.9300 27.9635
v -16.6975 2.9974 28.0699
v -12.7568 1.5469 27.2338
v -10.3513 0.0443 26.2687
v -35.4496 4.0716 27.2621
v -32.6975 5.6252 27.2621
v -30.1945 7.2016 27.2621
v -23.8584 5.6480 27.6995
v -20.7821 5.5256 26.0962
v -16.6975 4.0986 26.0699
v -14.5570 3.7862 25.5322
v -28.1945 8.3054 27.2621
v -24.8621 8.3744 27.1350
v -22.1718 7.9821 25.7170
v -26.7158 -20.3627 33.0767
v -24.6975 -20.5373 32.4633
v -22.0248 -20.5884 32.3824
v -31.2762 -17.0375 31.2621
v -28.3085 -19.1908 31.5508
v -24.6975 -20.0167 30.4633
v -20.6939 -19.0250 31.1343
v -18.2569 -16.8915 31.2621
v -32.0444 -14.3520 31.2621
v -16.2569 -15.4706 31.2621
v -12.6975 -14.7936 31.2621
v -9.6215 -13.6750 31.2621
v -32.3316 -10.3520 31.2621
v -7.9236 -10.4574 31.0059
v -6.3261 -9.1944 29.5018
v -32.4378 -6.3520 31.2621
v -11.1864 -4.7209 32.8476
v -8.5937 -6.1591 31.1747
v -6.3261 -7.5973 29.5018
v -38.7239 -0.3857 29.4809
v -36.6975 -1.1789 30.3647
v -32.6137 -2.8269 31.2992
v -28.6975 -1.8154 31.6208
v -24.6975 -1.6245 31.8710
v -21.8555 -1.3117 32.4186
v -11.8335 -2.1218 31.4134
v -9.6783 -3.3017 30.1810
v -38.7239 -0.2856 29.4809
v -36.6047 1.2879 30.3874
v -32.6975 1.6480 30.9128
v -28.6975 1.6480 30.1461
v -24.6616 1.6351 29.9366
v -20.5923 0.8960 31.1560
v -16.6975 1.4627 31.2621
v -13.7509 0.3866 31.2621
v -35.2094 3.9539 29.6673
v -32.6975 4.5473 29.8571
v -28.7870 5.7839 29.8305
v -25.8584 5.6480 29.6815
v -27.5133 8.0061 29.5090
v -26.3052 8.0061 29.5090
v -26.7158 -20.3627 33.2806
v -24.6975 -20.5373 33.5302
v -22.0248 -20.5884 33.6011
v -31.1136 -16.7618 33.5907
v -28.3085 -18.1979 33.7491
v -24.6975 -18.3520 34.1844
v -20.6939 -18.2853 33.8508
v -18.2514 -16.9075 33.4966
v -31.1554 -14.3520 33.6206
v -28.6975 -14.3520 34.3966
v -24.5630 -14.1967 35.7274
v -20.6975 -14.9960 35.7437
v -16.7460 -14.2832 35.1158
v -12.6975 -13.4895 34.3920
v -10.4466 -13.1239 33.9625
v -31.0355 -10.3520 33.4961
v -28.6975 -10.3520 34.3595
v -24.5630 -10.4566 36.0696
v -20.6975 -9.2381 36.7526
v -16.5089 -9.9776 36.8949
v -12.6975 -10.6132 36.3920
v -10.2194 -10.0146 35.2823
v -30.9919 -6.3520 33.4452
v -28.6975 -6.3520 34.3543
v -24.6975 -6.3520 34.9791
v -20.6975 -6.3520 35.2067
v -16.5454 -6.2628 36.4747
v -12.5909 -5.6558 35.5654
v -10.2881 -7.5932 35.2621
v -30.8338 -4.2329 33.3436
v -28.6975 -3.8154 33.7964
v -24.6975 -3.6245 33.8973
v -20.5923 -2.5279 33.7466
v -16.6975 -2.3520 34.6909
v -13.9233 -2.3520 34.2473
v -19.1888 0.0186 33.4642
v -16.6975 0.1133 33.5197
v -14.5097 -0.1022 33.4035
v -23.1401 -12.7598 37.6084
v -20.6975 -12.9960 37.9822
v -17.9073 -12.8029 37.8760
v -23.1401 -11.8596 37.6084
v -20.6975 -11.2381 37.9822
v -16.5089 -9.9776 37.6045
v -12.6975 -8.6132 37.3290
v -10.6733 -8.4563 37.2804
v -15.1106 -7.5367 37.3330
v -12.6975 -7.7050 37.3290
v -10.6733 -8.3047 37.2804
f 3 2 1
f 3 4 2
f 10 5 9
f 10 6 5
f 10 7 6
f 10 11 7
f 13 8 12
f 13 9 8
f 13 10 9
f 13 14 10
f 15 1 2
f 15 14 1
f 14 11 10
f 14 15 11
f 18 1 14
f 18 3 1
f 19 15 2
f 19 2 4
f 4 3 18
f 4 18 19
f 19 16 15
f 19 20 16
f 20 17 16
f 20 21 17
f 23 21 20
f 23 24 21
f 24 22 21
f 24 25 22
f 31 27 26
f 31 32 27
f 35 5 6
f 35 34 5
f 35 28 34
f 35 29 28
f 7 35 6
f 7 36 35
f 35 30 29
f 35 36 30
f 37 30 36
f 37 31 30
f 38 31 37
f 38 32 31
f 38 33 32
f 38 39 33
f 41 5 34
f 41 9 5
f 41 8 9
f 41 40 8
f 42 36 7
f 42 7 11
f 42 37 36
f 42 43 37
f 44 37 43
f 44 38 37
f 40 12 8
f 40 45 12
f 13 12 45
f 13 45 46
f 47 14 13
f 47 13 46
f 48 42 11
f 48 11 15
f 16 48 15
f 16 49 48
f 48 43 42
f 48 49 43
f 17 49 16
f 17 50 49
f 49 44 43
f 49 50 44
f 47 18 14
f 47 52 18
f 51 47 46
f 51 52 47
f 53 19 18
f 53 18 52
f 54 20 19
f 54 19 53
f 55 50 17
f 55 17 21
f 22 55 21
f 22 56 55
f 57 53 52
f 57 58 53
f 54 23 20
f 54 59 23
f 58 54 53
f 58 59 54
f 60 24 23
f 60 23 59
f 56 22 25
f 56 25 61
f 61 25 24
f 61 24 60
f 60 55 56
f 60 56 61
f 63 58 62
f 63 59 58
f 27 67 26
f 27 68 67
f 69 64 68
f 69 65 64
f 73 28 29
f 73 72 28
f 30 73 29
f 30 74 73
f 75 26 67
f 75 31 26
f 75 30 31
f 75 74 30
f 75 66 74
f 75 67 66
f 76 68 27
f 76 27 32
f 33 76 32
f 33 77 76
f 76 69 68
f 76 77 69
f 78 71 70
f 78 79 71
f 80 28 72
f 80 34 28
f 80 71 79
f 80 72 71
f 77 33 39
f 77 39 82
f 39 38 81
f 39 81 82
f 84 34 80
f 84 41 34
f 84 40 41
f 84 83 40
f 84 79 83
f 84 80 79
f 81 38 44
f 81 44 85
f 86 81 85
f 86 82 81
f 87 40 83
f 87 45 40
f 88 46 45
f 88 45 87
f 89 85 44
f 89 44 50
f 89 86 85
f 89 90 86
f 88 51 46
f 88 93 51
f 92 88 87
f 92 93 88
f 94 52 51
f 94 51 93
f 89 50 55
f 89 55 96
f 97 89 96
f 97 90 89
f 98 90 97
f 98 91 90
f 94 57 52
f 94 99 57
f 58 57 99
f 58 99 100
f 99 94 95
f 99 95 100
f 96 55 60
f 96 60 102
f 60 59 101
f 60 101 102
f 103 96 102
f 103 97 96
f 100 62 58
f 100 104 62
f 101 59 63
f 101 63 105
f 63 62 104
f 63 104 105
f 65 106 64
f 65 107 106
f 112 66 67
f 112 111 66
f 113 64 106
f 113 68 64
f 113 67 68
f 113 112 67
f 114 107 65
f 114 65 69
f 114 113 106
f 114 106 107
f 115 109 108
f 115 116 109
f 117 70 71
f 117 116 70
f 118 71 72
f 118 117 71
f 119 72 73
f 119 118 72
f 120 66 111
f 120 74 66
f 120 73 74
f 120 119 73
f 120 110 119
f 120 111 110
f 114 69 77
f 114 77 122
f 121 113 114
f 121 114 122
f 125 70 116
f 125 78 70
f 124 116 115
f 124 125 116
f 126 79 78
f 126 78 125
f 122 77 82
f 122 82 127
f 127 123 122
f 127 128 123
f 130 79 126
f 130 83 79
f 129 126 125
f 129 130 126
f 127 82 86
f 127 86 131
f 131 128 127
f 131 132 128
f 130 87 83
f 130 135 87
f 134 130 129
f 134 135 130
f 136 131 86
f 136 86 90
f 91 136 90
f 91 137 136
f 136 132 131
f 136 137 132
f 137 133 132
f 137 138 133
f 135 92 87
f 135 139 92
f 140 93 92
f 140 92 139
f 94 93 140
f 94 140 141
f 95 94 141
f 95 141 142
f 137 91 98
f 137 98 144
f 98 97 143
f 98 143 144
f 145 137 144
f 145 138 137
f 146 141 140
f 146 147 141
f 148 95 142
f 148 100 95
f 147 142 141
f 147 148 142
f 150 102 101
f 150 101 149
f 143 97 103
f 143 103 151
f 103 102 150
f 103 150 151
f 152 100 148
f 152 104 100
f 153 149 101
f 153 101 105
f 153 105 104
f 153 104 152
f 152 148 149
f 152 149 153
f 109 157 108
f 109 158 157
f 161 154 160
f 161 155 154
f 162 110 111
f 162 161 110
f 161 156 155
f 161 162 156
f 163 111 112
f 163 162 111
f 164 112 113
f 164 163 112
f 157 115 108
f 157 165 115
f 166 158 109
f 166 109 116
f 165 157 158
f 165 158 166
f 167 116 117
f 167 166 116
f 168 117 118
f 168 167 117
f 168 159 167
f 168 160 159
f 169 110 161
f 169 119 110
f 169 118 119
f 169 168 118
f 169 160 168
f 169 161 160
f 164 113 121
f 164 121 171
f 170 163 164
f 170 164 171
f 172 121 122
f 172 171 121
f 123 172 122
f 123 173 172
f 165 124 115
f 165 174 124
f 175 125 124
f 175 124 174
f 174 165 166
f 174 166 175
f 176 171 172
f 176 172 177
f 173 123 128
f 173 128 178
f 177 172 173
f 177 173 178
f 175 129 125
f 175 179 129
f 180 178 128
f 180 128 132
f 133 180 132
f 133 181 180
f 179 134 129
f 179 182 134
f 183 135 134
f 183 134 182
f 184 181 133
f 184 133 138
f 183 139 135
f 183 186 139
f 185 183 182
f 185 186 183
f 187 140 139
f 187 139 186
f 189 144 143
f 189 143 188
f 184 138 145
f 184 145 190
f 145 144 189
f 145 189 190
f 187 146 140
f 187 191 146
f 192 147 146
f 192 146 191
f 193 148 147
f 193 147 192
f 194 149 148
f 194 148 193
f 150 149 194
f 150 194 195
f 196 188 143
f 196 143 151
f 151 150 195
f 151 195 196
f 199 154 155
f 199 198 154
f 156 199 155
f 156 200 199
f 203 154 198
f 203 160 154
f 203 159 160
f 203 202 159
f 203 197 202
f 203 198 197
f 205 200 156
f 205 156 162
f 204 199 200
f 204 200 205
f 206 162 163
f 206 205 162
f 205 201 200
f 205 206 201
f 209 159 202
f 209 167 159
f 209 166 167
f 209 208 166
f 210 206 163
f 210 163 170
f 211 170 171
f 211 210 170
f 210 207 206
f 210 211 207
f 208 175 166
f 208 212 175
f 211 171 176
f 211 176 213
f 214 176 177
f 214 213 176
f 215 177 178
f 215 214 177
f 212 179 175
f 212 216 179
f 215 178 180
f 215 180 218
f 217 214 215
f 217 215 218
f 219 180 181
f 219 218 180
f 220 179 216
f 220 182 179
f 219 181 184
f 219 184 222
f 221 218 219
f 221 219 222
f 220 185 182
f 220 223 185
f 224 186 185
f 224 185 223
f 187 186 224
f 187 224 225
f 189 188 226
f 189 226 227
f 222 184 190
f 222 190 228
f 228 190 189
f 228 189 227
f 228 227 221
f 228 221 222
f 225 191 187
f 225 229 191
f 230 192 191
f 230 191 229
f 231 193 192
f 231 192 230
f 232 194 193
f 232 193 231
f 233 195 194
f 233 194 232
f 226 188 196
f 226 196 234
f 196 195 233
f 196 233 234
f 235 226 234
f 235 227 226
f 237 229 236
f 237 230 229
f 239 197 198
f 239 238 197
f 240 198 199
f 240 239 198
f 201 241 200
f 201 242 241
f 238 202 197
f 238 243 202
f 244 243 238
f 244 238 239
f 240 199 204
f 240 204 245
f 244 239 240
f 244 240 245
f 241 205 200
f 241 246 205
f 246 204 205
f 246 245 204
f 247 242 201
f 247 201 206
f 247 246 241
f 247 241 242
f 207 247 206
f 207 248 247
f 243 209 202
f 243 251 209
f 209 250 208
f 209 251 250
f 252 248 207
f 252 207 211
f 252 249 248
f 252 253 249
f 250 212 208
f 250 254 212
f 255 254 250
f 255 250 251
f 252 211 213
f 252 213 256
f 257 213 214
f 257 256 213
f 254 216 212
f 254 258 216
f 259 258 254
f 259 254 255
f 257 214 217
f 257 217 260
f 261 217 218
f 261 260 217
f 262 216 258
f 262 220 216
f 261 218 221
f 261 221 264
f 263 260 261
f 263 261 264
f 262 223 220
f 262 265 223
f 266 224 223
f 266 223 265
f 267 225 224
f 267 224 266
f 272 264 221
f 272 221 227
f 271 263 264
f 271 264 272
f 273 225 267
f 273 229 225
f 231 230 274
f 231 274 275
f 276 232 231
f 276 231 275
f 276 275 268
f 276 268 269
f 233 232 276
f 233 276 277
f 276 269 270
f 276 270 277
f 278 234 233
f 278 233 277
f 272 227 235
f 272 235 279
f 235 234 278
f 235 278 279
f 273 236 229
f 273 280 236
f 274 230 237
f 274 237 281
f 237 236 280
f 237 280 281
f 282 274 281
f 282 275 274
f 284 280 283
f 284 281 280
f 284 282 281
f 284 285 282
f 288 287 286
f 288 289 287
f 244 289 243
f 244 290 289
f 291 244 245
f 291 290 244
f 292 245 246
f 292 291 245
f 247 292 246
f 247 293 292
f 248 293 247
f 248 294 293
f 295 248 249
f 295 294 248
f 299 243 289
f 299 251 243
f 299 288 298
f 299 289 288
f 300 290 291
f 300 291 301
f 295 249 253
f 295 253 303
f 253 252 302
f 253 302 303
f 302 294 295
f 302 295 303
f 305 296 304
f 305 297 296
f 305 298 297
f 305 306 298
f 299 255 251
f 299 307 255
f 306 299 298
f 306 307 299
f 308 302 252
f 308 252 256
f 309 256 257
f 309 308 256
f 307 259 255
f 307 311 259
f 259 310 258
f 259 311 310
f 310 307 306
f 310 311 307
f 312 309 257
f 312 257 260
f 314 258 310
f 314 262 258
f 315 314 310
f 315 310 311
f 312 260 263
f 312 263 318
f 318 313 312
f 318 319 313
f 320 262 314
f 320 265 262
f 321 266 265
f 321 265 320
f 322 267 266
f 322 266 321
f 323 316 317
f 323 317 324
f 325 269 268
f 325 268 324
f 270 269 325
f 270 325 326
f 318 263 271
f 318 271 327
f 328 271 272
f 328 327 271
f 322 273 267
f 322 329 273
f 331 324 268
f 331 268 275
f 331 330 323
f 331 323 324
f 332 270 326
f 332 277 270
f 278 277 332
f 278 332 333
f 332 326 327
f 332 327 333
f 328 272 279
f 328 279 334
f 334 279 278
f 334 278 333
f 333 327 328
f 333 328 334
f 335 273 329
f 335 280 273
f 336 335 329
f 336 329 330
f 331 275 282
f 331 282 337
f 336 330 331
f 336 331 337
f 335 283 280
f 335 338 283
f 284 283 338
f 284 338 339
f 339 338 335
f 339 335 336
f 340 337 282
f 340 282 285
f 285 284 339
f 285 339 340
f 340 339 336
f 340 336 337
f 344 341 343
f 344 342 341
f 345 344 343
f 345 346 344
f 348 286 287
f 348 347 286
f 351 345 350
f 351 346 345
f 352 286 347
f 352 288 286
f 351 347 346
f 351 352 347
f 353 348 287
f 353 287 289
f 352 347 348
f 352 348 353
f 354 289 290
f 354 353 289
f 292 355 291
f 292 356 355
f 293 356 292
f 293 357 356
f 358 293 294
f 358 357 293
f 359 350 349
f 359 360 350
f 361 296 297
f 361 360 296
f 360 351 350
f 360 361 351
f 362 288 352
f 362 298 288
f 362 297 298
f 362 361 297
f 362 351 361
f 362 352 351
f 354 290 300
f 354 300 363
f 355 301 291
f 355 364 301
f 364 300 301
f 364 363 300
f 365 364 355
f 365 355 356
f 366 365 356
f 366 356 357
f 358 294 302
f 358 302 367
f 366 357 358
f 366 358 367
f 368 296 360
f 368 304 296
f 369 305 304
f 369 304 368
f 370 306 305
f 370 305 369
f 372 371 363
f 372 363 364
f 373 372 364
f 373 364 365
f 367 302 308
f 367 308 374
f 375 308 309
f 375 374 308
f 376 369 368
f 376 377 369
f 378 306 370
f 378 310 306
f 311 310 378
f 311 378 379
f 381 380 371
f 381 371 372
f 375 309 312
f 375 312 385
f 384 374 375
f 384 375 385
f 386 312 313
f 386 385 312
f 379 315 311
f 379 388 315
f 315 387 314
f 315 388 387
f 389 388 379
f 389 379 380
f 389 380 381
f 389 381 390
f 317 316 390
f 317 390 391
f 390 381 382
f 390 382 391
f 392 391 382
f 392 382 383
f 393 392 383
f 393 383 384
f 386 313 319
f 386 319 395
f 395 319 318
f 395 318 394
f 394 385 386
f 394 386 395
f 387 320 314
f 387 396 320
f 321 320 396
f 321 396 397
f 397 396 387
f 397 387 388
f 322 321 397
f 322 397 398
f 397 388 389
f 397 389 398
f 399 390 316
f 399 316 323
f 399 398 389
f 399 389 390
f 400 317 391
f 400 324 317
f 325 324 400
f 325 400 401
f 400 391 392
f 400 392 401
f 402 326 325
f 402 325 401
f 402 401 392
f 402 392 393
f 403 394 318
f 403 318 327
f 403 327 326
f 403 326 402
f 403 402 393
f 403 393 394
f 404 322 398
f 404 329 322
f 405 399 323
f 405 323 330
f 405 330 329
f 405 329 404
f 404 398 399
f 404 399 405
f 342 406 341
f 342 407 406
f 406 343 341
f 406 409 343
f 407 342 344
f 407 344 410
f 410 409 406
f 410 406 407
f 409 345 343
f 409 414 345
f 414 408 413
f 414 409 408
f 415 410 344
f 415 344 346
f 347 415 346
f 347 416 415
f 415 411 410
f 415 416 411
f 417 411 416
f 417 412 411
f 419 345 414
f 419 350 345
f 419 349 350
f 419 418 349
f 420 416 347
f 420 347 352
f 353 420 352
f 353 421 420
f 422 353 354
f 422 421 353
f 418 359 349
f 418 423 359
f 424 360 359
f 424 359 423
f 422 354 363
f 422 363 426
f 425 421 422
f 425 422 426
f 366 427 365
f 366 428 427
f 429 366 367
f 429 428 366
f 424 368 360
f 424 431 368
f 430 424 423
f 430 431 424
f 370 369 432
f 370 432 433
f 426 363 371
f 426 371 434
f 427 373 365
f 427 436 373
f 373 435 372
f 373 436 435
f 437 436 427
f 437 427 428
f 429 367 374
f 429 374 438
f 437 428 429
f 437 429 438
f 431 376 368
f 431 439 376
f 432 369 377
f 432 377 440
f 377 376 439
f 377 439 440
f 433 378 370
f 433 441 378
f 440 433 432
f 440 441 433
f 442 379 378
f 442 378 441
f 443 434 371
f 443 371 380
f 443 380 379
f 443 379 442
f 444 372 435
f 444 381 372
f 382 381 444
f 382 444 445
f 445 444 435
f 445 435 436
f 383 382 445
f 383 445 446
f 445 436 437
f 445 437 446
f 438 374 384
f 438 384 447
f 447 384 383
f 447 383 446
f 446 437 438
f 446 438 447
f 448 384 385
f 448 447 384
f 450 441 449
f 450 442 441
f 451 384 447
f 451 393 384
f 452 448 385
f 452 385 394
f 452 394 393
f 452 393 451
f 451 447 448
f 451 448 452
f 458 453 457
f 458 454 453
f 458 455 454
f 458 459 455
f 461 408 409
f 461 460 408
f 462 409 410
f 462 461 409
f 462 456 461
f 462 457 456
f 411 462 410
f 411 463 462
f 462 458 457
f 462 463 458
f 412 463 411
f 412 464 463
f 463 459 458
f 463 464 459
f 460 413 408
f 460 466 413
f 467 414 413
f 467 413 466
f 469 464 412
f 469 412 417
f 417 416 468
f 417 468 469
f 469 465 464
f 469 470 465
f 467 419 414
f 467 472 419
f 472 418 419
f 472 471 418
f 472 466 471
f 472 467 466
f 468 416 420
f 468 420 473
f 421 473 420
f 421 474 473
f 473 469 468
f 473 474 469
f 475 469 474
f 475 470 469
f 471 423 418
f 471 476 423
f 474 421 425
f 474 425 477
f 478 425 426
f 478 477 425
f 476 430 423
f 476 479 430
f 480 431 430
f 480 430 479
f 478 426 434
f 478 434 482
f 480 439 431
f 480 484 439
f 483 480 479
f 483 484 480
f 485 440 439
f 485 439 484
f 441 440 485
f 441 485 486
f 482 434 443
f 482 443 488
f 488 443 442
f 488 442 487
f 488 487 481
f 488 481 482
f 486 449 441
f 486 489 449
f 487 442 450
f 487 450 490
f 450 449 489
f 450 489 490
f 490 489 486
f 490 486 487
f 491 487 490
f 491 488 487
f 454 494 453
f 454 495 494
f 496 454 455
f 496 495 454
f 495 493 492
f 495 496 493
f 499 453 494
f 499 457 453
f 499 456 457
f 499 498 456
f 500 496 455
f 500 455 459
f 502 456 498
f 502 461 456
f 502 460 461
f 502 501 460
f 502 497 501
f 502 498 497
f 503 500 459
f 503 459 464
f 465 503 464
f 465 504 503
f 505 460 501
f 505 466 460
f 507 504 465
f 507 465 470
f 506 503 504
f 506 504 507
f 505 471 466
f 505 508 471
f 510 507 470
f 510 470 475
f 475 474 509
f 475 509 510
f 510 509 506
f 510 506 507
f 508 476 471
f 508 512 476
f 509 474 477
f 509 477 513
f 514 477 478
f 514 513 477
f 512 479 476
f 512 519 479
f 518 512 511
f 518 519 512
f 521 514 478
f 521 478 482
f 482 481 520
f 482 520 521
f 524 515 523
f 524 516 515
f 525 516 524
f 525 517 516
f 519 483 479
f 519 526 483
f 527 484 483
f 527 483 526
f 528 485 484
f 528 484 527
f 486 485 528
f 486 528 529
f 530 520 481
f 530 481 487
f 487 486 529
f 487 529 530
f 488 530 487
f 488 531 530
f 531 520 530
f 531 521 520
f 533 522 532
f 533 523 522
f 534 528 527
f 534 535 528
f 535 529 528
f 535 536 529
f 530 490 487
f 530 537 490
f 537 529 536
f 537 530 529
f 531 488 491
f 531 491 538
f 491 490 537
f 491 537 538
f 540 534 539
f 540 535 534
f 541 537 536
f 541 542 537
f 542 538 537
f 542 543 538
f 493 544 492
f 493 545 544
f 547 492 544
f 547 495 492
f 495 546 494
f 495 547 546
f 548 545 493
f 548 493 496
f 547 544 545
f 547 545 548
f 550 497 498
f 550 549 497
f 551 494 546
f 551 499 494
f 551 498 499
f 551 550 498
f 552 548 496
f 552 496 500
f 554 497 549
f 554 501 497
f 555 552 500
f 555 500 503
f 555 553 552
f 555 556 553
f 554 505 501
f 554 557 505
f 555 503 506
f 555 506 558
f 558 556 555
f 558 559 556
f 557 508 505
f 557 565 508
f 558 506 509
f 558 509 566
f 567 558 566
f 567 559 558
f 571 560 570
f 571 561 560
f 572 561 571
f 572 562 561
f 572 563 562
f 572 573 563
f 575 508 565
f 575 512 508
f 575 511 512
f 575 574 511
f 575 564 574
f 575 565 564
f 566 509 513
f 566 513 576
f 577 513 514
f 577 576 513
f 580 568 579
f 580 569 568
f 581 569 580
f 581 570 569
f 582 515 516
f 582 581 515
f 582 570 581
f 582 571 570
f 517 582 516
f 517 583 582
f 582 572 571
f 582 583 572
f 583 573 572
f 583 584 573
f 574 518 511
f 574 585 518
f 584 574 573
f 584 585 574
f 586 519 518
f 586 518 585
f 577 514 521
f 577 521 589
f 588 576 577
f 588 577 589
f 591 578 590
f 591 579 578
f 592 579 591
f 592 580 579
f 593 515 581
f 593 523 515
f 593 522 523
f 593 592 522
f 593 580 592
f 593 581 580
f 594 524 523
f 594 523 593
f 583 517 525
f 583 525 595
f 525 524 594
f 525 594 595
f 595 584 583
f 595 596 584
f 597 584 596
f 597 585 584
f 586 526 519
f 586 598 526
f 599 527 526
f 599 526 598
f 598 586 587
f 598 587 599
f 589 521 531
f 589 531 600
f 592 532 522
f 592 602 532
f 601 592 591
f 601 602 592
f 593 523 533
f 593 533 603
f 603 533 532
f 603 532 602
f 604 596 595
f 604 605 596
f 606 596 605
f 606 597 596
f 608 527 599
f 608 534 527
f 607 599 598
f 607 608 599
f 610 536 535
f 610 535 609
f 600 531 538
f 600 538 612
f 614 604 613
f 614 605 604
f 615 534 608
f 615 539 534
f 609 535 540
f 609 540 616
f 540 539 615
f 540 615 616
f 615 608 609
f 615 609 616
f 610 541 536
f 610 617 541
f 618 542 541
f 618 541 617
f 619 612 538
f 619 538 543
f 619 543 542
f 619 542 618
f 619 618 611
f 619 611 612
f 621 546 547
f 621 620 546
f 548 621 547
f 548 622 621
f 625 549 550
f 625 624 549
f 620 551 546
f 620 626 551
f 551 625 550
f 551 626 625
f 627 626 620
f 627 620 621
f 622 548 552
f 622 552 628
f 627 621 622
f 627 622 628
f 553 628 552
f 553 629 628
f 624 554 549
f 624 632 554
f 632 623 631
f 632 624 623
f 634 633 625
f 634 625 626
f 635 629 553
f 635 553 556
f 635 630 629
f 635 636 630
f 642 554 632
f 642 557 554
f 644 635 556
f 644 556 559
f 645 635 644
f 645 636 635
f 647 638 637
f 647 648 638
f 649 560 561
f 649 648 560
f 562 649 561
f 562 650 649
f 650 639 649
f 650 640 639
f 563 650 562
f 563 651 650
f 642 565 557
f 642 653 565
f 653 564 565
f 653 652 564
f 653 641 652
f 653 642 641
f 655 644 559
f 655 559 567
f 655 567 566
f 655 566 654
f 655 654 643
f 655 643 644
f 657 568 569
f 657 656 568
f 657 646 656
f 657 647 646
f 658 560 648
f 658 570 560
f 658 569 570
f 658 657 569
f 658 647 657
f 658 648 647
f 659 651 563
f 659 563 573
f 660 564 652
f 660 574 564
f 574 659 573
f 574 660 659
f 659 652 651
f 659 660 652
f 661 660 652
f 661 652 653
f 654 566 576
f 654 576 662
f 664 568 656
f 664 579 568
f 664 578 579
f 664 663 578
f 586 585 665
f 586 665 666
f 667 587 586
f 667 586 666
f 662 576 588
f 662 588 668
f 669 588 589
f 669 668 588
f 670 578 663
f 670 590 578
f 671 591 590
f 671 590 670
f 594 593 673
f 594 673 674
f 675 595 594
f 675 594 674
f 665 585 597
f 665 597 676
f 667 599 587
f 667 678 599
f 599 677 598
f 599 678 677
f 677 667 666
f 677 678 667
f 669 589 600
f 669 600 681
f 680 668 669
f 680 669 681
f 671 601 591
f 671 682 601
f 683 602 601
f 683 601 682
f 684 673 593
f 684 593 603
f 684 603 602
f 684 602 683
f 684 683 672
f 684 672 673
f 675 604 595
f 675 686 604
f 685 675 674
f 685 686 675
f 676 597 606
f 676 606 688
f 688 606 605
f 688 605 687
f 689 598 677
f 689 607 598
f 690 608 607
f 690 607 689
f 689 677 678
f 689 678 690
f 609 608 690
f 609 690 691
f 690 678 679
f 690 679 691
f 610 609 691
f 610 691 692
f 694 681 600
f 694 600 612
f 694 612 611
f 694 611 693
f 694 693 680
f 694 680 681
f 696 682 695
f 696 683 682
f 697 604 686
f 697 613 604
f 698 687 605
f 698 605 614
f 614 613 697
f 614 697 698
f 699 610 692
f 699 617 610
f 700 693 611
f 700 611 618
f 700 618 617
f 700 617 699
f 700 699 692
f 700 692 693
f 624 701 623
f 624 702 701
f 703 624 625
f 703 702 624
f 627 704 626
f 627 705 704
f 706 627 628
f 706 705 627
f 629 706 628
f 629 707 706
f 630 707 629
f 630 708 707
f 701 631 623
f 701 709 631
f 632 631 709
f 632 709 710
f 710 709 701
f 710 701 702
f 703 625 633
f 703 633 711
f 704 634 626
f 704 712 634
f 634 711 633
f 634 712 711
f 713 705 706
f 713 706 714
f 715 714 706
f 715 706 707
f 708 630 636
f 708 636 716
f 715 707 708
f 715 708 716
f 638 718 637
f 638 719 718
f 721 639 640
f 721 720 639
f 724 632 710
f 724 642 632
f 724 641 642
f 724 723 641
f 727 644 643
f 727 643 726
f 727 726 714
f 727 714 715
f 716 636 645
f 716 645 728
f 645 644 727
f 645 727 728
f 728 727 715
f 728 715 716
f 730 637 718
f 730 647 637
f 730 646 647
f 730 729 646
f 730 717 729
f 730 718 717
f 731 719 638
f 731 638 648
f 732 639 720
f 732 649 639
f 649 731 648
f 649 732 731
f 731 720 719
f 731 732 720
f 733 721 640
f 733 640 650
f 651 733 650
f 651 734 733
f 733 722 721
f 733 734 722
f 735 641 723
f 735 652 641
f 735 651 652
f 735 734 651
f 734 723 722
f 734 735 723
f 653 652 735
f 653 735 736
f 738 726 643
f 738 643 654
f 738 737 725
f 738 725 726
f 740 646 729
f 740 656 646
f 735 652 660
f 735 660 741
f 736 661 653
f 736 742 661
f 661 741 660
f 661 742 741
f 738 654 662
f 738 662 745
f 745 744 737
f 745 737 738
f 740 664 656
f 740 747 664
f 664 746 663
f 664 747 746
f 747 739 746
f 747 740 739
f 749 666 665
f 749 665 748
f 748 741 742
f 748 742 749
f 752 751 743
f 752 743 744
f 753 745 662
f 753 662 668
f 752 744 745
f 752 745 753
f 754 663 746
f 754 670 663
f 671 670 754
f 671 754 755
f 754 746 747
f 754 747 755
f 757 673 672
f 757 672 756
f 758 674 673
f 758 673 757
f 759 748 665
f 759 665 676
f 760 666 749
f 760 677 666
f 678 677 760
f 678 760 761
f 760 749 750
f 760 750 761
f 679 678 761
f 679 761 762
f 761 750 751
f 761 751 762
f 762 751 752
f 762 752 763
f 764 753 668
f 764 668 680
f 763 752 753
f 763 753 764
f 765 671 755
f 765 682 671
f 766 756 672
f 766 672 683
f 767 756 766
f 767 757 756
f 758 685 674
f 758 768 685
f 767 758 757
f 767 768 758
f 769 686 685
f 769 685 768
f 759 676 688
f 759 688 771
f 771 688 687
f 771 687 770
f 772 679 762
f 772 691 679
f 692 691 772
f 692 772 773
f 772 762 763
f 772 763 773
f 774 764 680
f 774 680 693
f 774 693 692
f 774 692 773
f 773 763 764
f 773 764 774
f 775 682 765
f 775 695 682
f 776 766 683
f 776 683 696
f 696 695 775
f 696 775 776
f 776 775 765
f 776 765 766
f 777 686 769
f 777 697 686
f 778 770 687
f 778 687 698
f 698 697 777
f 698 777 778
f 777 769 770
f 777 770 778
f 703 779 702
f 703 780 779
f 782 704 705
f 782 781 704
f 779 710 702
f 779 785 710
f 786 780 703
f 786 703 711
f 786 785 779
f 786 779 780
f 781 712 704
f 781 787 712
f 787 711 712
f 787 786 711
f 786 781 780
f 786 787 781
f 782 705 713
f 782 713 788
f 787 781 782
f 787 782 788
f 789 713 714
f 789 788 713
f 791 717 718
f 791 790 717
f 791 783 790
f 791 784 783
f 792 718 719
f 792 791 718
f 793 719 720
f 793 792 719
f 794 720 721
f 794 793 720
f 722 794 721
f 722 795 794
f 796 722 723
f 796 795 722
f 785 724 710
f 785 797 724
f 724 796 723
f 724 797 796
f 799 789 714
f 799 714 726
f 799 726 725
f 799 725 798
f 798 788 789
f 798 789 799
f 801 717 790
f 801 729 717
f 736 735 802
f 736 802 803
f 802 796 797
f 802 797 803
f 806 798 725
f 806 725 737
f 808 729 801
f 808 740 729
f 808 739 740
f 808 807 739
f 808 800 807
f 808 801 800
f 802 735 741
f 802 741 809
f 810 736 803
f 810 742 736
f 810 802 809
f 810 803 802
f 810 803 804
f 810 804 811
f 813 806 737
f 813 737 744
f 813 744 743
f 813 743 812
f 813 812 805
f 813 805 806
f 814 739 807
f 814 746 739
f 815 747 746
f 815 746 814
f 809 741 748
f 809 748 817
f 818 742 810
f 818 749 742
f 818 809 817
f 818 810 809
f 819 750 749
f 819 749 818
f 820 812 743
f 820 743 751
f 820 751 750
f 820 750 819
f 820 819 811
f 820 811 812
f 815 755 747
f 815 821 755
f 817 748 759
f 817 759 824
f 824 823 816
f 824 816 817
f 825 755 821
f 825 765 755
f 766 765 825
f 766 825 826
f 825 821 822
f 825 822 826
f 767 766 826
f 767 826 827
f 828 768 767
f 828 767 827
f 769 768 828
f 769 828 829
f 830 770 769
f 830 769 829
f 831 824 759
f 831 759 771
f 771 770 830
f 771 830 831
f 836 780 781
f 836 835 780
f 784 837 783
f 784 838 837
f 839 832 838
f 839 833 832
f 839 834 833
f 839 840 834
f 845 780 835
f 845 786 780
f 845 785 786
f 845 844 785
f 836 781 787
f 836 787 846
f 847 787 788
f 847 846 787
f 848 783 837
f 848 790 783
f 849 838 784
f 849 784 791
f 850 791 792
f 850 849 791
f 850 838 849
f 850 839 838
f 793 850 792
f 793 851 850
f 850 840 839
f 850 851 840
f 794 851 793
f 794 852 851
f 853 794 795
f 853 852 794
f 853 841 852
f 853 842 841
f 796 853 795
f 796 854 853
f 853 843 842
f 853 854 843
f 844 797 785
f 844 855 797
f 847 788 798
f 847 798 857
f 856 846 847
f 856 847 857
f 859 790 848
f 859 801 790
f 801 858 800
f 801 859 858
f 860 859 848
f 860 848 849
f 861 854 796
f 861 796 802
f 862 797 855
f 862 803 797
f 803 861 802
f 803 862 861
f 861 855 854
f 861 862 855
f 804 803 862
f 804 862 863
f 865 857 798
f 865 798 806
f 865 806 805
f 865 805 864
f 866 800 858
f 866 807 800
f 867 866 858
f 867 858 859
f 862 803 810
f 862 810 868
f 869 804 863
f 869 811 804
f 811 868 810
f 811 869 868
f 870 864 805
f 870 805 812
f 870 812 811
f 870 811 869
f 870 869 863
f 870 863 864
f 871 807 866
f 871 814 807
f 815 814 871
f 815 871 872
f 874 817 816
f 874 816 873
f 875 818 817
f 875 817 874
f 876 869 811
f 876 811 819
f 876 819 818
f 876 818 875
f 876 875 868
f 876 868 869
f 877 815 872
f 877 821 815
f 822 821 877
f 822 877 878
f 873 816 823
f 873 823 881
f 882 823 824
f 882 881 823
f 882 873 881
f 882 874 873
f 883 822 878
f 883 826 822
f 827 826 883
f 827 883 884
f 883 878 879
f 883 879 884
f 885 828 827
f 885 827 884
f 886 829 828
f 886 828 885
f 887 830 829
f 887 829 886
f 887 886 880
f 887 880 881
f 888 882 824
f 888 824 831
f 831 830 887
f 831 887 888
f 888 887 881
f 888 881 882
f 833 889 832
f 833 890 889
f 834 890 833
f 834 891 890
f 836 894 835
f 836 895 894
f 897 832 889
f 897 838 832
f 838 896 837
f 838 897 896
f 898 891 834
f 898 834 840
f 898 892 891
f 898 899 892
f 900 841 842
f 900 899 841
f 899 893 892
f 899 900 893
f 901 842 843
f 901 900 842
f 894 845 835
f 894 903 845
f 903 844 845
f 903 902 844
f 895 836 846
f 895 846 904
f 904 903 894
f 904 894 895
f 905 837 896
f 905 848 837
f 849 848 905
f 849 905 906
f 905 896 897
f 905 897 906
f 907 898 840
f 907 840 851
f 908 841 899
f 908 852 841
f 852 907 851
f 852 908 907
f 908 898 907
f 908 899 898
f 909 901 843
f 909 843 854
f 910 844 902
f 910 855 844
f 855 909 854
f 855 910 909
f 909 902 901
f 909 910 902
f 910 902 903
f 910 903 911
f 904 846 856
f 904 856 912
f 912 911 903
f 912 903 904
f 913 856 857
f 913 912 856
f 906 860 849
f 906 915 860
f 860 914 859
f 860 915 914
f 863 862 916
f 863 916 917
f 918 864 863
f 918 863 917
f 918 917 911
f 918 911 912
f 913 857 865
f 913 865 919
f 865 864 918
f 865 918 919
f 918 912 913
f 918 913 919
f 914 867 859
f 914 921 867
f 867 920 866
f 867 921 920
f 922 921 914
f 922 914 915
f 916 862 868
f 916 868 924
f 920 871 866
f 920 925 871
f 926 872 871
f 926 871 925
f 931 924 868
f 931 868 875
f 931 875 874
f 931 874 930
f 931 930 923
f 931 923 924
f 932 872 926
f 932 877 872
f 933 878 877
f 933 877 932
f 879 878 933
f 879 933 934
f 936 935 927
f 936 927 928
f 937 881 880
f 937 880 936
f 937 936 928
f 937 928 929
f 938 930 874
f 938 874 882
f 938 882 881
f 938 881 937
f 938 937 929
f 938 929 930
f 939 879 934
f 939 884 879
f 885 884 939
f 885 939 940
f 941 936 880
f 941 880 886
f 941 886 885
f 941 885 940
f 941 940 935
f 941 935 936
f 890 945 889
f 890 946 945
f 947 890 891
f 947 946 890
f 947 942 946
f 947 943 942
f 892 947 891
f 892 948 947
f 947 944 943
f 947 948 944
f 949 892 893
f 949 948 892
f 950 889 945
f 950 897 889
f 951 949 893
f 951 893 900
f 952 900 901
f 952 951 900
f 953 901 902
f 953 952 901
f 950 906 897
f 950 954 906
f 953 902 910
f 953 910 955
f 911 955 910
f 911 956 955
f 957 906 954
f 957 915 906
f 960 956 911
f 960 911 917
f 960 917 916
f 960 916 959
f 960 959 955
f 960 955 956
f 962 920 921
f 962 961 920
f 957 922 915
f 957 963 922
f 922 962 921
f 922 963 962
f 968 959 916
f 968 916 924
f 968 924 923
f 968 923 967
f 968 967 958
f 968 958 959
f 961 925 920
f 961 969 925
f 926 925 969
f 926 969 970
f 969 961 962
f 969 962 970
f 971 970 962
f 971 962 963
f 971 963 964
f 971 964 972
f 972 964 965
f 972 965 973
f 974 928 927
f 974 927 973
f 973 965 966
f 973 966 974
f 975 929 928
f 975 928 974
f 976 967 923
f 976 923 930
f 976 930 929
f 976 929 975
f 977 926 970
f 977 932 926
f 978 933 932
f 978 932 977
f 977 970 971
f 977 971 978
f 934 933 978
f 934 978 979
f 978 971 972
f 978 972 979
f 980 973 927
f 980 927 935
f 980 979 972
f 980 972 973
f 981 934 979
f 981 939 934
f 982 980 935
f 982 935 940
f 982 940 939
f 982 939 981
f 981 979 980
f 981 980 982
f 984 942 943
f 984 983 942
f 985 943 944
f 985 984 943
f 983 946 942
f 983 987 946
f 987 945 946
f 987 986 945
f 988 987 983
f 988 983 984
f 989 985 944
f 989 944 948
f 988 984 985
f 988 985 989
f 949 989 948
f 949 990 989
f 986 950 945
f 986 991 950
f 992 991 986
f 992 986 987
f 992 987 988
f 992 988 993
f 994 993 988
f 994 988 989
f 990 949 951
f 990 951 995
f 994 989 990
f 994 990 995
f 996 951 952
f 996 995 951
f 997 952 953
f 997 996 952
f 998 950 991
f 998 954 950
f 998 991 992
f 998 992 999
f 999 992 993
f 999 993 1000
f 1003 1002 995
f 1003 995 996
f 997 953 955
f 997 955 1004
f 1003 996 997
f 1003 997 1004
f 1005 954 998
f 1005 957 954
f 1005 998 999
f 1005 999 1006
f 1007 1006 999
f 1007 999 1000
f 1007 1000 1001
f 1007 1001 1008
f 1009 1008 1001
f 1009 1001 1002
f 1011 1004 955
f 1011 955 959
f 1011 959 958
f 1011 958 1010
f 1012 957 1005
f 1012 963 957
f 964 963 1012
f 964 1012 1013
f 1012 1005 1006
f 1012 1006 1013
f 1014 965 964
f 1014 964 1013
f 1014 1013 1006
f 1014 1006 1007
f 966 965 1014
f 966 1014 1015
f 1014 1007 1008
f 1014 1008 1015
f 1016 1015 1008
f 1016 1008 1009
f 1017 1010 958
f 1017 958 967
f 1017 1016 1009
f 1017 1009 1010
f 1018 966 1015
f 1018 974 966
f 975 974 1018
f 975 1018 1019
f 1018 1015 1016
f 1018 1016 1019
f 1020 1017 967
f 1020 967 976
f 1020 976 975
f 1020 975 1019
f 1020 1019 1016
f 1020 1016 1017
f 994 1021 993
f 994 1022 1021
f 1023 994 995
f 1023 1022 994
f 1021 1000 993
f 1021 1024 1000
f 1001 1000 1024
f 1001 1024 1025
f 1024 1021 1022
f 1024 1022 1025
f 1023 995 1002
f 1023 1002 1026
f 1026 1002 1001
f 1026 1001 1025
f 1025 1022 1023
f 1025 1023 1026
f 1003 1026 1002
f 1003 1027 1026
f 1028 1003 1004
f 1028 1027 1003
f 1029 1002 1026
f 1029 1009 1002
f 1010 1009 1029
f 1010 1029 1030
f 1029 1026 1027
f 1029 1027 1030
f 1028 1004 1011
f 1028 1011 1031
f 1011 1010 1030
f 1011 1030 1031
f 1031 1030 1027
f 1031 1027 1028
