# parsimony mesh: g6562_monomer (source /Users/eranagmon/code/v2e-cplx/workspace/studies/ecoli-3d/viz/3d/structures/g6562_monomer.pdb)
# atoms: 1111  voxel: 4 Å  verts: 691  tris: 1404
v 16.6661 7.2811 -33.1670
v 19.4042 6.7241 -33.6051
v 22.2032 6.9753 -33.4896
v 16.6661 8.7478 -33.1670
v 19.4042 9.1004 -33.6051
v 22.2032 8.6770 -33.4896
v 17.1949 3.6539 -29.1561
v 19.4042 3.3229 -29.6275
v 22.7291 3.4010 -29.5304
v 16.4658 5.9433 -30.6035
v 19.4042 4.7241 -31.6275
v 23.7995 5.4626 -30.7005
v 25.6917 6.6166 -29.2039
v 16.3046 10.0233 -30.5638
v 19.2757 11.0347 -30.5638
v 23.4307 10.1127 -30.4691
v 26.0465 9.9365 -29.3164
v 16.7947 13.9365 -29.1332
v 18.3537 13.9365 -29.1332
v 24.6582 13.0956 -29.0677
v 25.9731 13.0956 -29.0677
v 17.0696 16.2197 -28.9375
v 18.2177 16.2197 -28.9375
v 16.9032 -0.1713 -24.9467
v 17.6939 -0.1713 -24.9467
v 24.6336 -0.8332 -25.4675
v 26.2897 -0.8332 -25.4675
v 12.9195 3.2040 -25.0039
v 15.7157 2.0956 -26.3086
v 19.1781 1.4537 -26.4778
v 23.6813 2.0088 -27.1178
v 27.5355 2.1222 -26.0635
v 29.5610 3.5793 -24.9030
v 12.6759 5.9365 -25.5993
v 14.7848 5.9365 -27.5993
v 25.3958 3.9499 -28.7682
v 27.1767 5.5446 -27.3793
v 30.2681 5.9365 -25.0353
v 12.9673 9.9365 -25.7650
v 14.5832 9.9365 -27.7650
v 20.5234 11.5484 -28.3860
v 21.9915 11.5484 -28.3860
v 28.0465 9.9365 -27.5162
v 31.6012 9.6861 -25.5655
v 33.6260 10.8525 -25.1040
v 13.3081 12.3655 -25.2249
v 14.7753 13.7939 -26.6448
v 20.3537 13.9365 -28.2905
v 23.3566 14.2320 -28.3307
v 27.3455 14.2320 -27.9103
v 31.3107 13.7583 -25.7646
v 33.6260 12.3061 -25.1040
v 13.0862 19.1166 -25.0367
v 15.4525 17.6682 -26.4149
v 19.4923 17.7064 -27.7188
v 23.4042 17.9365 -27.4854
v 27.6293 18.2027 -26.1408
v 29.9150 17.0468 -25.3256
v 13.0862 20.2635 -25.0367
v 15.4042 20.5293 -25.2351
v 19.5958 21.8145 -25.6390
v 23.2116 21.8248 -25.7200
v 26.4461 20.4170 -25.2616
v 21.0568 24.0770 -25.0514
v 21.7498 24.0770 -25.0514
v 20.4035 -4.5617 -21.1367
v 22.0469 -4.5617 -21.1367
v 16.0530 -0.8774 -22.7746
v 19.0487 -1.9395 -22.6215
v 23.3402 -1.8574 -22.6215
v 26.3398 -0.7544 -22.7746
v 5.2563 3.6117 -20.8558
v 7.4042 3.2134 -21.4335
v 11.5134 2.3245 -22.8530
v 14.0530 0.4010 -22.7746
v 20.3606 0.6167 -24.1062
v 21.9669 0.6167 -24.1062
v 28.3398 0.8795 -22.7746
v 29.9578 2.8795 -22.7746
v 5.1058 5.9365 -21.0021
v 7.4042 5.9365 -21.9390
v 10.6759 5.9365 -23.7115
v 31.5129 5.9365 -22.7746
v 5.1542 8.3969 -20.9967
v 7.7686 9.8128 -21.1940
v 10.9673 9.9365 -23.1323
v 32.6641 9.6861 -22.9397
v 33.6260 10.8525 -24.3831
v 9.3448 12.0580 -20.7996
v 11.5615 13.5451 -22.6024
v 13.8354 15.0322 -24.4053
v 25.3190 15.8032 -20.8537
v 25.5214 15.8032 -20.8537
v 31.9472 13.7583 -22.9397
v 33.6260 12.3061 -24.3831
v 12.5981 17.8446 -22.9530
v 13.8354 16.4500 -24.4053
v 24.8232 17.9365 -21.2989
v 27.3171 18.2183 -22.4575
v 30.0632 17.3592 -22.7746
v 13.0886 20.2292 -22.7746
v 15.4042 20.7348 -22.7746
v 19.5958 22.0879 -23.0572
v 23.2323 21.6325 -22.9867
v 26.4461 20.4170 -24.0612
v 21.0568 24.0770 -24.5789
v 21.7498 24.0770 -24.5789
v 13.0066 -4.1774 -16.9349
v 15.4042 -4.3320 -17.5639
v 19.2038 -4.8806 -18.9099
v 22.8153 -4.9019 -18.7746
v 28.8055 -4.0903 -16.8131
v 29.4266 -4.0903 -16.8131
v 5.1008 -0.3308 -17.3345
v 7.4042 -0.3843 -17.2545
v 11.5656 -1.7598 -17.6960
v 15.0239 -2.2499 -19.7833
v 17.7368 -3.7076 -20.3334
v 24.8153 -3.1128 -18.7746
v 27.2859 -2.0964 -18.6722
v 29.7318 -2.0635 -17.6209
v 0.0815 3.5600 -17.1380
v 3.8452 2.2525 -18.5696
v 7.4042 1.2134 -19.2545
v 11.4042 0.4709 -19.8061
v 13.4370 -0.0450 -20.7367
v 28.4329 0.2177 -20.5312
v 30.2356 1.7052 -19.0286
v 0.0815 4.6756 -17.1380
v 2.9821 5.9800 -18.5927
v 25.3039 7.7598 -17.0288
v 27.4042 7.3517 -17.3888
v 30.6341 5.9747 -18.7135
v 4.4875 8.9686 -18.7746
v 6.6433 10.9686 -18.7746
v 24.8654 9.9365 -17.4955
v 27.4042 9.9365 -18.3660
v 30.7329 9.9365 -19.6451
v 8.6433 12.6776 -18.7746
v 10.0902 14.6776 -18.7746
v 24.3425 14.2565 -18.7989
v 27.0745 14.2565 -19.6745
v 30.1999 13.9365 -19.8692
v 12.2913 18.1463 -18.9512
v 13.7934 19.6195 -17.7356
v 20.5661 18.8457 -17.7790
v 22.6997 17.6820 -18.9773
v 28.1881 16.7231 -20.3049
v 29.7721 16.7231 -20.3049
v 13.3014 19.9997 -20.4023
v 15.2377 20.3148 -18.9512
v 19.3014 20.4238 -18.9773
v 22.0481 20.1813 -20.4457
v -2.7857 -8.2964 -13.0746
v -1.7838 -8.2964 -13.0746
v -3.2185 -6.0635 -13.5752
v -0.5086 -6.3183 -13.9859
v 3.4042 -5.3180 -13.8113
v 7.4042 -5.3656 -13.8129
v 11.5656 -5.1353 -14.9467
v 15.4042 -4.7560 -14.7746
v 19.4042 -4.8750 -14.7746
v 23.0221 -4.6563 -14.7746
v 28.8055 -4.0903 -16.7387
v 29.4266 -4.0903 -16.7387
v -3.5988 -2.0635 -13.8943
v -0.5958 -2.0635 -15.0345
v 3.6222 -1.8239 -15.5453
v 7.4042 -2.3843 -15.8129
v 10.3399 -2.8906 -16.3948
v 25.0221 -3.1422 -14.7746
v 27.1147 -2.1159 -15.1747
v 29.7318 -2.0635 -16.3748
v -3.7018 1.9365 -14.3132
v -0.9894 2.1106 -15.9469
v 2.4342 0.8933 -16.0102
v 27.8631 1.9365 -13.9324
v 30.0075 1.9365 -15.9324
v -3.6916 5.9365 -13.9490
v -0.9894 5.9800 -15.8300
v 1.7653 7.3423 -16.3011
v 16.6726 7.0426 -13.6159
v 18.1742 7.0426 -13.6159
v 25.1986 7.7278 -14.7746
v 27.3596 5.8078 -14.7992
v 29.7942 4.6668 -16.1489
v -3.2793 8.3142 -13.0144
v -0.5007 9.7631 -13.7040
v 3.4650 10.3195 -14.7626
v 5.7982 11.5110 -14.7746
v 16.6726 8.9467 -13.6159
v 18.1742 8.9467 -13.6159
v 23.9407 9.9365 -14.7746
v 0.8960 12.2699 -13.2240
v 3.8519 13.6328 -13.0925
v 7.0002 13.8994 -14.5261
v 9.9083 15.4698 -16.0912
v 20.9085 15.2220 -13.5811
v 22.1582 13.9078 -14.8585
v 5.2057 16.2374 -12.9610
v 7.4042 16.8216 -13.4019
v 11.4078 18.2176 -14.6747
v 13.7934 19.6195 -15.9247
v 19.9643 17.6820 -14.8585
v 21.6714 16.1790 -16.2478
v 12.9073 20.0304 -13.2581
v 15.2377 20.3496 -14.6647
v 17.9761 20.3825 -14.7746
v 1.2814 -12.1354 -8.9019
v 1.6290 -12.1354 -8.9019
v -3.2534 -8.5114 -10.7746
v -0.2512 -9.6954 -10.6983
v 3.1391 -9.9836 -9.8057
v 5.8841 -8.5970 -9.3124
v -7.4641 -4.8222 -9.3459
v -5.1061 -6.1187 -10.7174
v 0.8828 -7.8214 -12.4947
v 3.4042 -7.3180 -11.9680
v 7.2921 -7.1786 -10.6973
v 11.4042 -6.0000 -10.7746
v 15.1208 -4.4750 -11.1097
v 19.4042 -4.2272 -12.3570
v 22.3226 -4.2343 -12.3261
v -7.7183 -2.0635 -9.6028
v -5.5988 -2.0635 -11.6028
v 16.2651 -2.9739 -9.9997
v 19.7526 -1.8097 -10.0552
v 23.5553 -1.7779 -11.7094
v 25.4238 -0.2541 -12.7566
v -10.6202 3.8634 -8.7991
v -8.5728 2.2927 -9.5294
v -5.7018 1.9365 -11.6997
v 12.6543 3.3681 -9.2104
v 15.4042 2.6298 -9.9419
v 19.7526 1.6321 -9.8162
v 23.7088 2.2965 -9.9330
v 25.8184 2.2965 -11.1638
v -10.6202 3.9712 -8.7991
v -8.3232 5.5573 -9.5382
v -5.6916 5.9365 -11.7107
v 12.6543 4.8394 -9.2104
v 15.1179 5.9410 -10.8862
v 19.4662 5.8002 -11.9206
v 23.9044 6.0623 -10.8360
v 25.9073 5.1252 -10.7746
v -6.8082 8.0773 -9.3222
v -4.6059 8.5258 -10.7032
v -0.5007 10.6113 -10.6911
v 3.5980 11.6699 -10.8856
v 5.5513 11.7869 -12.4693
v 15.8339 10.1426 -11.0360
v 19.4662 10.1426 -12.2371
v 22.4795 9.9365 -12.2760
v 0.8960 12.2699 -11.9687
v 3.9520 13.2087 -11.3579
v 5.5513 12.3291 -12.4693
v 16.5397 13.9365 -9.8229
v 19.5068 13.9078 -11.8953
v 21.6784 12.5554 -12.5781
v 5.2092 16.2372 -10.7746
v 7.4042 17.0343 -10.7746
v 11.5061 18.4527 -11.0284
v 15.5394 17.8150 -10.2590
v 18.2329 17.9365 -11.8129
v 12.9073 20.0304 -12.5309
v 15.4042 20.1855 -12.4085
v 17.6715 20.1746 -12.5302
v -6.6854 -12.1173 -4.8803
v -6.2064 -12.1173 -4.8803
v 0.5248 -12.5123 -6.7746
v 2.0517 -12.5123 -6.7746
v -10.7567 -8.2801 -5.0665
v -8.2496 -9.7935 -5.5242
v -4.7445 -10.0538 -6.5866
v -1.4752 -11.0490 -6.7746
v 4.0591 -9.9836 -6.7229
v 5.8841 -8.5970 -8.0217
v -10.8132 -6.0635 -5.3331
v -8.7168 -6.1187 -7.3324
v -5.9493 -7.4889 -8.2929
v 4.9657 -7.6223 -5.3550
v 7.2921 -6.7804 -6.7229
v 11.0703 -4.7174 -7.1227
v 13.5985 -4.1840 -8.6882
v -10.7248 -2.7992 -5.2273
v -9.8843 -1.7049 -6.6462
v 9.2270 -0.5585 -4.9353
v 11.0703 -1.9605 -6.2125
v 15.1208 -1.8097 -8.4585
v 18.6515 -0.3072 -8.6787
v -11.1330 2.8930 -6.7746
v -10.0552 0.8930 -6.7746
v 8.7432 1.9365 -5.5789
v 11.3542 1.9955 -7.6114
v 15.4042 0.6298 -8.4444
v 18.6515 0.0959 -8.6787
v 25.2451 3.8698 -8.7236
v 25.4826 3.8698 -8.7236
v -11.1330 4.4460 -6.7746
v -8.8587 6.4460 -6.7746
v 8.7001 4.8719 -5.6864
v 11.2064 6.1890 -7.1009
v 13.5633 7.5061 -8.5155
v 25.2451 4.2896 -8.7236
v 25.4826 4.2896 -8.7236
v -6.8587 8.1130 -6.7746
v -4.3215 9.9560 -6.5778
v -0.4582 11.0276 -6.5778
v 2.0013 11.4525 -6.7746
v 12.4253 8.7146 -5.8489
v 14.1206 10.0034 -7.0192
v -2.8053 12.0703 -5.1133
v -1.6998 12.0703 -5.1133
v 3.8407 13.9365 -6.7746
v 14.9817 13.9365 -6.7746
v 5.2437 16.1879 -6.7746
v 7.4042 16.6996 -6.7746
v 11.4042 17.1352 -6.7746
v 14.2055 16.6235 -6.7746
v -6.6854 -12.1173 -4.6833
v -6.2064 -12.1173 -4.6833
v 0.3545 -12.5900 -4.0110
v 2.0428 -12.5900 -4.0110
v -10.7567 -8.2801 -4.3778
v -8.2169 -9.6459 -3.1972
v -4.4569 -10.0125 -2.7640
v -0.8256 -10.2333 -3.2385
v 2.5542 -10.0635 -3.8019
v -11.2238 -5.9855 -2.9365
v -9.7483 -7.2668 -1.7111
v -2.7075 -7.9854 -0.8447
v -0.4705 -6.4166 -1.4890
v 3.5411 -6.1988 -3.4459
v 7.4042 -4.8678 -4.2016
v 9.5144 -4.2438 -4.6789
v -15.0150 -0.6910 -1.0838
v -12.3720 -1.7451 -2.9190
v -10.5799 -0.1325 -4.7541
v 0.9464 -3.3895 -1.0951
v 3.2271 -2.0591 -1.7902
v 7.6979 -1.9605 -3.9405
v 9.5144 -3.2252 -4.6789
v -15.0150 0.5334 -1.0838
v -12.7637 1.5758 -2.9190
v -10.5799 -0.0484 -4.7541
v 4.6711 1.9365 -1.3191
v 6.7432 1.9365 -3.3191
v -11.6280 5.9233 -2.4371
v -9.4005 7.2478 -3.5454
v 5.3885 3.9463 -0.7935
v 7.5752 5.7424 -2.4692
v 9.7586 7.5386 -4.1449
v -10.6470 7.9788 -0.8787
v -8.2786 8.3340 -2.4371
v -5.0422 10.4017 -2.7746
v 0.9669 11.6747 -4.5195
v 1.5732 11.6747 -4.5195
v 9.1170 8.4055 -1.4782
v 11.2169 9.3712 -2.7968
v 13.8518 11.3782 -2.7746
v -3.0422 12.2762 -2.7746
v -0.4582 12.3911 -3.0215
v 3.4125 13.6603 -3.1660
v 7.4042 14.7937 -2.0930
v 11.4042 14.7343 -1.9559
v 13.8682 13.7747 -2.8877
v 5.2517 16.1717 -4.4792
v 7.4042 16.4869 -4.0930
v 11.4042 16.6494 -3.9559
v 13.5807 16.3883 -4.2965
v -7.0816 -8.3450 -0.5060
v -5.3742 -8.3450 -0.5060
v -11.3526 -4.6002 -0.2484
v -8.4873 -5.9855 0.1831
v -4.2628 -6.4166 0.1449
v -1.7203 -5.3187 -0.3121
v -15.0150 -0.6910 0.3064
v -12.9322 -2.1144 1.3623
v -8.5958 -3.0620 2.2210
v -4.5958 -2.5346 2.1733
v -0.4705 -2.4956 1.1029
v 2.1931 -1.0252 1.2254
v -15.0150 0.5334 0.3064
v -13.7033 1.8946 1.4740
v 3.8294 1.9365 1.2254
v -11.3843 5.7133 0.8763
v -8.5958 6.8380 2.0081
v -6.1010 7.5105 2.8508
v 5.0917 5.5424 1.6012
v 6.4503 6.6130 0.5185
v -10.6470 7.9788 -0.6897
v -8.5958 8.3625 0.0081
v -5.2052 9.8519 1.4006
v 0.7780 11.5450 2.6421
v 3.7827 10.1016 2.3703
v 7.6319 9.8179 0.8663
v 11.4042 11.1463 0.0118
v 13.5883 11.7473 -0.6360
v -3.2287 12.3680 1.2254
v -0.5715 12.4646 1.2754
v 3.4042 12.5222 0.1867
v 7.4042 12.7937 0.3067
v 11.4042 12.7343 0.0118
v 13.5883 12.3335 -0.6360
v -7.1133 -4.3072 6.6546
v -6.1185 -4.3072 6.6546
v -11.8453 -0.8711 4.2736
v -8.6757 -2.0625 5.4641
v -4.7094 -2.4606 5.2829
v -0.5958 -1.3820 5.2254
v 2.0382 -0.7784 5.2254
v -11.5855 2.0052 5.4543
v -10.2380 0.7176 6.9403
v 3.5988 1.9365 5.2254
v -10.8958 4.4061 5.2254
v -8.2401 6.4566 5.5397
v -4.9193 7.5775 5.6229
v -2.1175 7.6444 6.8298
v 4.3571 5.9365 5.2254
v -6.6697 7.9901 7.0826
v -4.6605 9.1405 6.0235
v -0.5757 10.0676 5.9130
v 2.7964 9.2980 5.2254
v -3.2399 12.2993 5.2254
v -1.4193 12.2993 5.2254
v -7.1550 -8.2966 11.0151
v -6.3341 -8.2966 11.0151
v -10.9678 -4.7022 10.6876
v -8.4675 -5.8381 9.5180
v -5.7568 -5.8097 9.4992
v -10.9393 -2.0635 10.5416
v -9.7156 -2.0635 8.5416
v -3.7432 -3.2275 9.2254
v -0.5322 -1.1929 9.0593
v 1.5692 -0.3937 7.6153
v -10.6959 2.0031 9.4767
v -10.2684 2.0031 9.4767
v 0.3659 1.9365 9.9294
v 2.4406 1.9365 7.9294
v -10.7101 4.2679 8.1019
v -8.4843 5.6194 9.0209
v -4.8809 6.8199 8.8540
v -0.7685 6.1555 9.0068
v 2.7360 5.9365 7.8976
v -6.6697 7.9901 7.2731
v -4.7003 9.5419 7.3697
v -0.5926 9.9518 7.5195
v 1.9631 8.8100 7.5728
v -2.9964 12.1641 7.4663
v -1.7343 12.1641 7.4663
v -10.7570 -16.1050 15.1801
v -10.5548 -16.1050 15.1801
v -10.7570 -15.8464 15.1801
v -10.5548 -15.8464 15.1801
v -15.1110 -9.1388 14.4984
v -12.5958 -9.3189 14.2658
v -8.5313 -8.6680 13.2939
v -6.2412 -8.3702 13.2254
v -15.1110 -6.9158 14.4984
v -12.7086 -5.8090 13.2523
v -9.8217 -7.3689 12.0063
v -4.3165 -5.8378 13.3084
v -2.3409 -4.3539 14.6971
v -14.6832 -0.7512 15.1346
v -13.1827 -2.0761 13.5709
v -3.2697 -3.5819 12.0304
v -1.8968 -2.1745 13.3084
v -14.6832 0.0474 15.1346
v -12.2474 1.1262 13.5709
v -10.2826 3.3405 13.2254
v -1.5139 1.9365 13.2254
v -8.2826 4.6005 13.2254
v -4.5958 5.2134 13.2254
v -2.1965 4.5495 13.2254
v -11.3581 -16.3028 17.2254
v -10.4707 -16.3028 17.2254
v -15.3767 -13.2154 18.1761
v -12.4373 -14.5309 17.1084
v -10.2700 -14.3332 17.3146
v -18.6811 -8.3841 19.0773
v -16.5771 -10.0948 17.2934
v -12.5958 -11.3189 16.0499
v -8.7700 -10.5286 17.3146
v -5.6644 -8.6959 17.2254
v -18.6811 -7.9133 19.0773
v -16.3313 -6.0812 17.3326
v -14.4493 -4.2491 15.5879
v -3.6933 -5.8378 17.2224
v -2.3409 -4.3539 15.8871
v -14.7841 -1.7427 17.4016
v -13.3902 -1.7577 17.3157
v -9.2637 -0.6584 18.4171
v -3.8983 -2.0635 17.8581
v -2.3015 -2.0635 15.8581
v -14.6832 0.0474 16.5487
v -12.5958 0.9096 16.6117
v -8.5361 1.8635 17.0252
v -4.9951 1.5369 17.1942
v -2.4755 1.9365 15.3805
v -7.8085 4.4541 15.6332
v -4.5958 4.3901 15.5499
v -2.5729 4.0237 15.2502
v -14.8886 -20.6862 22.9622
v -12.5958 -20.8550 22.5425
v -10.2125 -20.4961 22.5780
v -26.7852 -16.3183 23.0667
v -25.3361 -16.3183 23.0667
v -14.9193 -18.0635 22.4043
v -12.7089 -17.8300 20.5801
v -9.0080 -17.5777 21.5292
v -6.5330 -16.1476 23.1471
v -26.7852 -15.8214 23.0667
v -25.3361 -15.8214 23.0667
v -15.4181 -14.3546 21.1264
v -14.1176 -15.8821 19.7271
v -8.2985 -14.1828 21.5784
v -6.5330 -15.5956 23.1471
v -18.6846 -8.3531 21.2254
v -17.5198 -10.3531 21.2254
v -8.1120 -10.0639 21.1256
v -5.5650 -8.7308 19.7257
v -46.7056 -4.9955 23.1322
v -44.5958 -4.9614 23.1061
v -40.5958 -5.0535 22.6533
v -37.6959 -5.1182 22.5285
v -18.6846 -7.9192 21.2254
v -16.3693 -6.0430 21.0199
v -12.5958 -5.2381 22.0528
v -8.7339 -6.1082 21.8536
v -5.1260 -6.0635 19.9264
v -46.7056 -4.0004 23.1322
v -44.5958 -3.9768 23.1061
v -40.5958 -3.5885 22.6533
v -37.6959 -3.4827 22.5285
v -14.8850 -2.7342 19.5496
v -12.5958 -2.5127 20.0528
v -8.1965 -2.0204 19.9537
v -5.8983 -2.0635 19.5516
v -6.5970 -0.0628 19.2259
v -6.5947 -0.0628 19.2259
v -15.4590 -28.2297 26.4360
v -14.2774 -28.2297 26.4360
v -19.0810 -25.0641 26.7020
v -16.7137 -26.2638 25.9864
v -13.8435 -26.0635 26.0692
v -22.9797 -20.5032 26.6579
v -20.4869 -21.9273 26.3767
v -16.3715 -22.0371 24.6659
v -12.5850 -22.6779 25.1740
v -9.7900 -20.8645 25.2254
v -26.9012 -16.4741 25.2254
v -24.1579 -17.6706 24.9551
v -20.5958 -18.0635 25.4448
v -16.9193 -18.0635 24.8502
v -11.0973 -16.4632 26.9810
v -8.7253 -17.6387 25.1999
v -6.5330 -16.1476 23.4189
v -38.7750 -12.9524 27.0396
v -36.5958 -12.9741 26.9708
v -34.2800 -12.3888 27.0718
v -27.1329 -14.3182 25.4565
v -24.2400 -14.3182 24.3918
v -20.5958 -14.0635 25.7262
v -16.5437 -13.6352 25.5990
v -12.4967 -14.2639 25.8720
v -8.5997 -14.1828 24.1304
v -6.5330 -15.5956 23.4189
v -46.7940 -8.2208 26.0930
v -44.5958 -8.3750 25.8364
v -40.3033 -9.8183 26.0544
v -36.5958 -10.0635 25.5697
v -32.8063 -10.0230 26.1375
v -28.4886 -10.0230 26.2907
v -24.4902 -9.9680 26.5125
v -19.7528 -10.0097 25.3088
v -17.2482 -10.5761 25.0409
v -12.5958 -10.0635 24.2672
v -9.7733 -10.0635 23.6332
v -46.9916 -6.2227 24.9460
v -44.5958 -6.9614 23.8364
v -39.7964 -5.8009 25.2979
v -37.1499 -5.4843 25.3616
v -32.5958 -6.0635 25.5507
v -28.8266 -6.1508 26.3377
v -25.7532 -7.5423 26.7867
v -18.6289 -8.0213 23.2693
v -16.5958 -7.6506 23.5701
v -12.5958 -7.2381 23.7756
v -10.1593 -7.4713 23.5433
v -46.9419 -3.8457 25.2254
v -44.5958 -3.6160 25.2254
v -40.2767 -3.5313 25.5864
v -36.6680 -3.6453 25.6745
v -32.2561 -2.3101 26.8606
v -30.3580 -2.0635 27.0471
v -30.6963 -0.0232 27.1908
v -30.5607 -0.0232 27.1908
v -19.7124 -28.5881 30.1324
v -16.7137 -28.5593 28.9696
v -14.2362 -28.2897 29.2254
v -22.8346 -24.9074 30.9259
v -20.7300 -26.3191 29.1958
v -18.1256 -27.7307 27.4657
v -12.7595 -26.0635 29.2254
v -22.9072 -22.0659 29.3765
v -21.9055 -22.0659 29.3765
v -11.1190 -23.4726 29.2254
v -9.6223 -21.4726 29.2254
v -26.8136 -16.3562 27.5236
v -24.4261 -17.8391 28.5012
v -22.0155 -18.0635 30.5966
v -15.2835 -16.8282 30.5165
v -12.4967 -17.4076 29.2001
v -9.6223 -19.1701 29.2254
v -38.7750 -12.9524 27.5326
v -36.5958 -12.9741 27.5871
v -34.2800 -12.3888 27.4005
v -27.0511 -13.7158 29.0043
v -24.5958 -14.7692 30.3689
v -22.3545 -15.5839 31.1186
v -16.4700 -14.2639 29.2001
v -13.7640 -15.7308 27.8499
v -46.7940 -8.2208 27.5463
v -44.2676 -8.3539 29.0179
v -40.5599 -9.5602 29.1871
v -36.5958 -10.0635 28.7306
v -32.8063 -10.0230 27.9095
v -28.1997 -10.1046 29.3163
v -24.6745 -8.7255 29.4628
v -20.7612 -9.7558 29.2351
v -18.4228 -11.7982 29.2254
v -47.0082 -6.0635 27.8223
v -44.2676 -6.3847 29.5872
v -40.5377 -6.0315 29.2704
v -36.8224 -5.7039 28.2556
v -32.5958 -6.0635 28.4244
v -28.8266 -6.1508 28.3992
v -24.6745 -7.6986 29.4628
v -22.2048 -7.8549 30.5750
v -46.9474 -3.8361 27.7003
v -44.5958 -3.7027 27.9370
v -41.3973 -3.8099 27.6992
v -35.6401 -3.8078 27.4178
v -32.2561 -2.3101 27.7216
v -30.3580 -2.0635 27.7013
v -30.6963 -0.0232 27.4188
v -30.5607 -0.0232 27.4188
v -20.0178 -28.8678 33.2254
v -16.5958 -29.3969 33.2254
v -14.0564 -28.5926 33.2254
v -22.8876 -24.9506 33.2254
v -22.0178 -26.9506 33.2254
v -12.7159 -26.0635 33.2254
v -22.8876 -23.6288 33.2254
v -20.6763 -21.6352 33.4177
v -16.5958 -21.1090 34.1722
v -12.3688 -22.4493 32.7904
v -9.9888 -21.3069 31.4136
v -20.0155 -18.0635 32.1898
v -16.6084 -18.1223 32.1620
v -12.5958 -19.4439 31.5729
v -9.9888 -19.8059 31.4136
v -26.6489 -12.1507 31.2820
v -24.5958 -12.7692 31.6107
v -20.8510 -14.1757 31.8534
v -17.9720 -14.0635 31.6675
v -42.7155 -8.1322 31.2740
v -42.3449 -8.1322 31.2740
v -26.6489 -11.5467 31.2820
v -24.5243 -10.1646 32.8156
v -20.7847 -10.2621 32.9327
v -18.4097 -11.7417 31.5163
v -42.7155 -7.9322 31.2740
v -42.3449 -7.9322 31.2740
v -23.4886 -7.7701 33.2254
v -21.8792 -7.7701 33.2254
v -19.3752 -28.6112 35.8996
v -16.5958 -28.9018 36.4859
v -14.0376 -28.6335 36.2318
v -22.7461 -24.4023 35.3653
v -20.6634 -25.8668 35.9145
v -16.5958 -26.0635 37.2251
v -13.7999 -26.0635 36.4686
v -22.7461 -23.9188 35.3653
v -20.5958 -23.3543 35.5811
v -16.5958 -23.1090 35.9646
v -14.0928 -23.5918 35.8766
v -22.7862 -8.7825 35.4576
v -22.0312 -8.7825 35.4576
v -22.7862 -7.8809 35.4576
v -22.0312 -7.8809 35.4576
f 5 1 4
f 5 2 1
f 6 2 5
f 6 3 2
f 11 1 2
f 11 10 1
f 11 7 10
f 11 8 7
f 3 11 2
f 3 12 11
f 11 9 8
f 11 12 9
f 14 1 10
f 14 4 1
f 15 5 4
f 15 4 14
f 16 12 3
f 16 3 6
f 6 5 15
f 6 15 16
f 16 13 12
f 16 17 13
f 18 15 14
f 18 19 15
f 20 17 16
f 20 21 17
f 22 19 18
f 22 23 19
f 30 7 8
f 30 29 7
f 30 24 29
f 30 25 24
f 9 30 8
f 9 31 30
f 32 26 31
f 32 27 26
f 35 7 29
f 35 10 7
f 35 28 34
f 35 29 28
f 36 31 9
f 36 9 12
f 13 36 12
f 13 37 36
f 36 32 31
f 36 37 32
f 37 33 32
f 37 38 33
f 40 10 35
f 40 14 10
f 39 35 34
f 39 40 35
f 42 16 15
f 42 15 41
f 43 37 13
f 43 13 17
f 43 38 37
f 43 44 38
f 40 18 14
f 40 47 18
f 46 40 39
f 46 47 40
f 41 15 19
f 41 19 48
f 42 20 16
f 42 49 20
f 48 42 41
f 48 49 42
f 43 17 21
f 43 21 50
f 21 20 49
f 21 49 50
f 51 43 50
f 51 44 43
f 52 44 51
f 52 45 44
f 47 22 18
f 47 54 22
f 48 19 23
f 48 23 55
f 55 23 22
f 55 22 54
f 56 48 55
f 56 49 48
f 56 50 49
f 56 57 50
f 58 50 57
f 58 51 50
f 60 53 59
f 60 54 53
f 60 55 54
f 60 61 55
f 61 56 55
f 61 62 56
f 63 56 62
f 63 57 56
f 65 61 64
f 65 62 61
f 25 68 24
f 25 69 68
f 69 67 66
f 69 70 67
f 71 26 27
f 71 70 26
f 75 24 68
f 75 29 24
f 75 28 29
f 75 74 28
f 76 69 25
f 76 25 30
f 77 26 70
f 77 31 26
f 77 30 31
f 77 76 30
f 76 70 69
f 76 77 70
f 78 71 27
f 78 27 32
f 33 78 32
f 33 79 78
f 81 72 80
f 81 73 72
f 82 28 74
f 82 34 28
f 82 73 81
f 82 74 73
f 83 79 33
f 83 33 38
f 84 81 80
f 84 85 81
f 86 34 82
f 86 39 34
f 85 82 81
f 85 86 82
f 83 38 44
f 83 44 87
f 88 44 45
f 88 87 44
f 86 46 39
f 86 90 46
f 89 86 85
f 89 90 86
f 91 47 46
f 91 46 90
f 88 45 52
f 88 52 95
f 95 52 51
f 95 51 94
f 95 94 87
f 95 87 88
f 97 47 91
f 97 54 47
f 97 53 54
f 97 96 53
f 96 91 90
f 96 97 91
f 98 92 93
f 98 93 99
f 94 51 58
f 94 58 100
f 58 57 99
f 58 99 100
f 101 53 96
f 101 59 53
f 102 60 59
f 102 59 101
f 103 61 60
f 103 60 102
f 105 99 57
f 105 57 63
f 105 63 62
f 105 62 104
f 105 104 98
f 105 98 99
f 106 61 103
f 106 64 61
f 107 104 62
f 107 62 65
f 65 64 106
f 65 106 107
f 107 106 103
f 107 103 104
f 111 66 67
f 111 110 66
f 117 108 116
f 117 109 108
f 118 66 110
f 118 69 66
f 118 68 69
f 118 117 68
f 118 109 117
f 118 110 109
f 119 111 67
f 119 67 70
f 71 119 70
f 71 120 119
f 121 112 120
f 121 113 112
f 124 72 73
f 124 123 72
f 124 114 123
f 124 115 114
f 125 73 74
f 125 124 73
f 125 115 124
f 125 116 115
f 126 68 117
f 126 75 68
f 126 74 75
f 126 125 74
f 126 116 125
f 126 117 116
f 127 120 71
f 127 71 78
f 79 127 78
f 79 128 127
f 127 121 120
f 127 128 121
f 130 72 123
f 130 80 72
f 130 122 129
f 130 123 122
f 133 128 79
f 133 79 83
f 134 80 130
f 134 84 80
f 135 85 84
f 135 84 134
f 137 136 131
f 137 131 132
f 138 133 83
f 138 83 87
f 138 137 132
f 138 132 133
f 135 89 85
f 135 139 89
f 140 90 89
f 140 89 139
f 142 93 92
f 142 92 141
f 141 136 137
f 141 137 142
f 138 87 94
f 138 94 143
f 143 142 137
f 143 137 138
f 140 96 90
f 140 144 96
f 147 141 92
f 147 92 98
f 148 93 142
f 148 99 93
f 143 94 100
f 143 100 149
f 100 99 148
f 100 148 149
f 148 142 143
f 148 143 149
f 150 96 144
f 150 101 96
f 102 101 150
f 102 150 151
f 150 144 145
f 150 145 151
f 152 103 102
f 152 102 151
f 153 147 98
f 153 98 104
f 153 104 103
f 153 103 152
f 153 152 146
f 153 146 147
f 156 155 154
f 156 157 155
f 161 108 109
f 161 160 108
f 162 109 110
f 162 161 109
f 111 162 110
f 111 163 162
f 113 164 112
f 113 165 164
f 167 156 166
f 167 157 156
f 167 158 157
f 167 168 158
f 169 114 115
f 169 168 114
f 169 158 168
f 169 159 158
f 170 108 160
f 170 116 108
f 170 115 116
f 170 169 115
f 170 159 169
f 170 160 159
f 163 111 119
f 163 119 171
f 172 112 164
f 172 120 112
f 172 119 120
f 172 171 119
f 173 165 113
f 173 113 121
f 173 172 164
f 173 164 165
f 174 167 166
f 174 175 167
f 176 114 168
f 176 123 114
f 176 122 123
f 176 175 122
f 176 167 175
f 176 168 167
f 178 173 121
f 178 121 128
f 178 177 172
f 178 172 173
f 180 122 175
f 180 129 122
f 179 175 174
f 179 180 175
f 181 130 129
f 181 129 180
f 132 131 184
f 132 184 185
f 186 178 128
f 186 128 133
f 186 133 132
f 186 132 185
f 186 185 177
f 186 177 178
f 187 180 179
f 187 188 180
f 181 134 130
f 181 189 134
f 188 181 180
f 188 189 181
f 190 135 134
f 190 134 189
f 191 182 183
f 191 183 192
f 193 184 131
f 193 131 136
f 194 189 188
f 194 195 189
f 190 139 135
f 190 196 139
f 197 140 139
f 197 139 196
f 199 193 136
f 199 136 141
f 200 196 195
f 200 201 196
f 197 144 140
f 197 202 144
f 201 197 196
f 201 202 197
f 203 145 144
f 203 144 202
f 205 199 141
f 205 141 147
f 205 147 146
f 205 146 204
f 205 204 198
f 205 198 199
f 203 151 145
f 203 207 151
f 206 203 202
f 206 207 203
f 208 204 146
f 208 146 152
f 208 152 151
f 208 151 207
f 155 211 154
f 155 212 211
f 213 209 212
f 213 210 209
f 211 156 154
f 211 216 156
f 217 212 155
f 217 155 157
f 158 217 157
f 158 218 217
f 217 213 212
f 217 218 213
f 159 218 158
f 159 219 218
f 218 214 213
f 218 219 214
f 220 159 160
f 220 219 159
f 221 160 161
f 221 220 160
f 222 161 162
f 222 221 161
f 223 162 163
f 223 222 162
f 225 156 216
f 225 166 156
f 225 215 224
f 225 216 215
f 226 221 222
f 226 222 227
f 223 163 171
f 223 171 228
f 227 222 223
f 227 223 228
f 229 171 172
f 229 228 171
f 232 166 225
f 232 174 166
f 232 224 231
f 232 225 224
f 235 227 228
f 235 228 236
f 229 172 177
f 229 177 237
f 236 228 229
f 236 229 237
f 238 231 230
f 238 239 231
f 232 179 174
f 232 240 179
f 239 232 231
f 239 240 232
f 241 233 234
f 241 234 242
f 243 183 182
f 243 182 242
f 243 242 234
f 243 234 235
f 243 235 236
f 243 236 244
f 245 237 177
f 245 177 185
f 245 185 184
f 245 184 244
f 240 187 179
f 240 247 187
f 246 240 239
f 246 247 240
f 248 188 187
f 248 187 247
f 250 190 189
f 250 189 249
f 251 242 182
f 251 182 191
f 252 183 243
f 252 192 183
f 252 191 192
f 252 251 191
f 253 244 184
f 253 184 193
f 253 252 243
f 253 243 244
f 248 194 188
f 248 254 194
f 249 189 195
f 249 195 255
f 195 194 254
f 195 254 255
f 254 248 249
f 254 249 255
f 256 190 250
f 256 196 190
f 256 195 196
f 256 255 195
f 255 250 249
f 255 256 250
f 258 257 251
f 258 251 252
f 259 253 193
f 259 193 199
f 259 199 198
f 259 198 258
f 259 258 252
f 259 252 253
f 255 200 195
f 255 260 200
f 261 201 200
f 261 200 260
f 262 202 201
f 262 201 261
f 264 258 198
f 264 198 204
f 264 263 257
f 264 257 258
f 262 206 202
f 262 265 206
f 266 207 206
f 266 206 265
f 265 262 263
f 265 263 266
f 264 204 208
f 264 208 267
f 267 208 207
f 267 207 266
f 266 263 264
f 266 264 267
f 271 209 210
f 271 270 209
f 273 269 268
f 273 274 269
f 275 209 270
f 275 212 209
f 275 211 212
f 275 274 211
f 276 271 210
f 276 210 213
f 214 276 213
f 214 277 276
f 279 272 278
f 279 273 272
f 280 211 274
f 280 216 211
f 280 215 216
f 280 279 215
f 280 273 279
f 280 274 273
f 277 214 219
f 277 219 282
f 281 276 277
f 281 277 282
f 283 219 220
f 283 282 219
f 284 220 221
f 284 283 220
f 279 224 215
f 279 286 224
f 285 279 278
f 285 286 279
f 284 221 226
f 284 226 289
f 288 283 284
f 288 284 289
f 290 226 227
f 290 289 226
f 292 224 286
f 292 231 224
f 292 230 231
f 292 291 230
f 294 293 287
f 294 287 288
f 295 234 233
f 295 233 294
f 294 288 289
f 294 289 295
f 290 227 235
f 290 235 296
f 296 235 234
f 296 234 295
f 295 289 290
f 295 290 296
f 298 236 237
f 298 297 236
f 299 230 291
f 299 238 230
f 300 239 238
f 300 238 299
f 294 233 241
f 294 241 302
f 301 293 294
f 301 294 302
f 303 241 242
f 303 302 241
f 304 236 297
f 304 244 236
f 298 237 245
f 298 245 305
f 245 244 304
f 245 304 305
f 304 297 298
f 304 298 305
f 300 246 239
f 300 306 246
f 307 247 246
f 307 246 306
f 248 247 307
f 248 307 308
f 309 249 248
f 309 248 308
f 303 242 251
f 303 251 311
f 310 302 303
f 310 303 311
f 312 308 307
f 312 313 308
f 314 249 309
f 314 255 249
f 311 251 257
f 311 257 315
f 314 260 255
f 314 316 260
f 317 261 260
f 317 260 316
f 318 262 261
f 318 261 317
f 319 315 257
f 319 257 263
f 319 263 262
f 319 262 318
f 269 320 268
f 269 321 320
f 323 270 271
f 323 322 270
f 320 273 268
f 320 325 273
f 273 324 272
f 273 325 324
f 321 269 274
f 321 274 326
f 325 320 321
f 325 321 326
f 322 275 270
f 322 327 275
f 275 326 274
f 275 327 326
f 328 323 271
f 328 271 276
f 328 327 322
f 328 322 323
f 324 278 272
f 324 329 278
f 330 329 324
f 330 324 325
f 331 326 327
f 331 327 332
f 328 276 281
f 328 281 333
f 332 327 328
f 332 328 333
f 334 281 282
f 334 333 281
f 335 282 283
f 335 334 282
f 329 285 278
f 329 337 285
f 338 286 285
f 338 285 337
f 339 332 333
f 339 333 340
f 340 333 334
f 340 334 341
f 335 283 288
f 335 288 342
f 342 288 287
f 342 287 341
f 342 341 334
f 342 334 335
f 344 336 343
f 344 337 336
f 338 292 286
f 338 345 292
f 345 291 292
f 345 344 291
f 345 337 344
f 345 338 337
f 347 341 287
f 347 287 293
f 347 346 340
f 347 340 341
f 344 299 291
f 344 348 299
f 349 300 299
f 349 299 348
f 347 293 301
f 347 301 351
f 350 346 347
f 350 347 351
f 352 301 302
f 352 351 301
f 349 306 300
f 349 354 306
f 353 349 348
f 353 354 349
f 355 307 306
f 355 306 354
f 309 308 356
f 309 356 357
f 352 302 310
f 352 310 359
f 358 351 352
f 358 352 359
f 360 310 311
f 360 359 310
f 355 312 307
f 355 361 312
f 356 308 313
f 356 313 362
f 313 312 361
f 313 361 362
f 357 314 309
f 357 363 314
f 362 357 356
f 362 363 357
f 360 311 315
f 360 315 366
f 367 314 363
f 367 316 314
f 317 316 367
f 317 367 368
f 367 363 364
f 367 364 368
f 318 317 368
f 318 368 369
f 369 368 364
f 369 364 365
f 370 366 315
f 370 315 319
f 370 319 318
f 370 318 369
f 370 369 365
f 370 365 366
f 326 371 325
f 326 372 371
f 371 330 325
f 371 374 330
f 330 373 329
f 330 374 373
f 372 326 331
f 372 331 375
f 375 374 371
f 375 371 372
f 376 331 332
f 376 375 331
f 373 337 329
f 373 378 337
f 378 336 337
f 378 377 336
f 379 378 373
f 379 373 374
f 380 379 374
f 380 374 375
f 376 332 339
f 376 339 381
f 380 375 376
f 380 376 381
f 382 339 340
f 382 381 339
f 377 343 336
f 377 383 343
f 384 344 343
f 384 343 383
f 384 383 377
f 384 377 378
f 382 340 346
f 382 346 385
f 386 344 384
f 386 348 344
f 385 346 350
f 385 350 389
f 390 350 351
f 390 389 350
f 391 348 386
f 391 353 348
f 392 354 353
f 392 353 391
f 391 386 387
f 391 387 392
f 355 354 392
f 355 392 393
f 392 387 388
f 392 388 393
f 390 351 358
f 390 358 396
f 395 389 390
f 395 390 396
f 397 358 359
f 397 396 358
f 360 397 359
f 360 398 397
f 399 355 393
f 399 361 355
f 400 362 361
f 400 361 399
f 401 363 362
f 401 362 400
f 401 400 394
f 401 394 395
f 364 363 401
f 364 401 402
f 402 401 395
f 402 395 396
f 403 365 364
f 403 364 402
f 402 396 397
f 402 397 403
f 404 398 360
f 404 360 366
f 404 366 365
f 404 365 403
f 403 397 398
f 403 398 404
f 379 407 378
f 379 408 407
f 409 379 380
f 409 408 379
f 409 405 408
f 409 406 405
f 410 380 381
f 410 409 380
f 382 410 381
f 382 411 410
f 407 384 378
f 407 412 384
f 413 412 407
f 413 407 408
f 411 382 385
f 411 385 414
f 415 384 412
f 415 386 384
f 387 386 415
f 387 415 416
f 388 387 416
f 388 416 417
f 414 385 389
f 414 389 419
f 421 388 417
f 421 393 388
f 420 417 416
f 420 421 417
f 421 417 418
f 421 418 422
f 419 389 395
f 419 395 423
f 423 395 394
f 423 394 422
f 424 393 421
f 424 399 393
f 425 422 394
f 425 394 400
f 425 400 399
f 425 399 424
f 430 405 406
f 430 429 405
f 430 426 429
f 430 427 426
f 432 405 429
f 432 408 405
f 432 428 431
f 432 429 428
f 433 430 406
f 433 406 409
f 410 433 409
f 410 434 433
f 435 410 411
f 435 434 410
f 432 413 408
f 432 437 413
f 413 436 412
f 413 437 436
f 437 431 436
f 437 432 431
f 439 435 411
f 439 411 414
f 438 434 435
f 438 435 439
f 440 412 436
f 440 415 412
f 416 415 440
f 416 440 441
f 440 436 437
f 440 437 441
f 418 417 442
f 418 442 443
f 444 439 414
f 444 414 419
f 444 443 438
f 444 438 439
f 445 416 441
f 445 420 416
f 446 442 417
f 446 417 421
f 446 421 420
f 446 420 445
f 445 441 442
f 445 442 446
f 447 418 443
f 447 422 418
f 422 446 421
f 422 447 446
f 444 419 423
f 444 423 448
f 448 423 422
f 448 422 447
f 448 447 443
f 448 443 444
f 449 421 446
f 449 424 421
f 450 447 422
f 450 422 425
f 450 425 424
f 450 424 449
f 449 446 447
f 449 447 450
f 453 452 451
f 453 454 452
f 458 426 427
f 458 457 426
f 459 456 455
f 459 460 456
f 461 426 457
f 461 429 426
f 461 428 429
f 461 460 428
f 461 456 460
f 461 457 456
f 462 458 427
f 462 427 430
f 465 428 460
f 465 431 428
f 466 462 430
f 466 430 433
f 467 433 434
f 467 466 433
f 466 463 462
f 466 467 463
f 469 431 465
f 469 436 431
f 468 465 464
f 468 469 465
f 470 437 436
f 470 436 469
f 471 467 434
f 471 434 438
f 472 437 470
f 472 441 437
f 473 442 441
f 473 441 472
f 474 471 438
f 474 438 443
f 474 443 442
f 474 442 473
f 476 451 452
f 476 475 451
f 475 453 451
f 475 478 453
f 476 452 454
f 476 454 479
f 479 454 453
f 479 453 478
f 482 455 456
f 482 481 455
f 482 477 481
f 482 478 477
f 483 456 457
f 483 482 456
f 482 479 478
f 482 483 479
f 484 457 458
f 484 483 457
f 486 455 481
f 486 459 455
f 485 481 480
f 485 486 481
f 487 460 459
f 487 459 486
f 484 458 462
f 484 462 488
f 463 488 462
f 463 489 488
f 487 465 460
f 487 491 465
f 491 464 465
f 491 490 464
f 490 487 486
f 490 491 487
f 494 489 463
f 494 463 467
f 493 488 489
f 493 489 494
f 495 464 490
f 495 468 464
f 496 469 468
f 496 468 495
f 495 490 491
f 495 491 496
f 470 469 496
f 470 496 497
f 496 491 492
f 496 492 497
f 499 494 467
f 499 467 471
f 498 493 494
f 498 494 499
f 500 470 497
f 500 472 470
f 473 472 500
f 473 500 501
f 500 497 498
f 500 498 501
f 502 499 471
f 502 471 474
f 502 474 473
f 502 473 501
f 501 498 499
f 501 499 502
f 508 504 503
f 508 509 504
f 476 509 475
f 476 510 509
f 509 505 504
f 509 510 505
f 512 507 506
f 512 513 507
f 515 475 509
f 515 478 475
f 515 477 478
f 515 514 477
f 515 508 514
f 515 509 508
f 516 510 476
f 516 476 479
f 516 511 510
f 516 517 511
f 519 477 514
f 519 481 477
f 519 480 481
f 519 518 480
f 516 479 483
f 516 483 520
f 521 483 484
f 521 520 483
f 518 485 480
f 518 526 485
f 527 486 485
f 527 485 526
f 530 521 484
f 530 484 488
f 529 520 521
f 529 521 530
f 531 523 522
f 531 532 523
f 532 524 523
f 532 533 524
f 533 525 524
f 533 534 525
f 535 486 527
f 535 490 486
f 491 490 535
f 491 535 536
f 535 527 528
f 535 528 536
f 492 491 536
f 492 536 537
f 536 528 529
f 536 529 537
f 530 488 493
f 530 493 538
f 537 529 530
f 537 530 538
f 539 492 537
f 539 497 492
f 540 538 493
f 540 493 498
f 498 497 539
f 498 539 540
f 539 537 538
f 539 538 540
f 545 541 544
f 545 542 541
f 548 543 547
f 548 544 543
f 549 503 504
f 549 548 503
f 548 545 544
f 548 549 545
f 550 504 505
f 550 549 504
f 507 551 506
f 507 552 551
f 553 546 552
f 553 547 546
f 554 503 548
f 554 508 503
f 554 547 553
f 554 548 547
f 556 550 505
f 556 505 510
f 511 556 510
f 511 557 556
f 551 512 506
f 551 561 512
f 562 552 507
f 562 507 513
f 562 513 512
f 562 512 561
f 563 552 562
f 563 553 552
f 554 514 508
f 554 564 514
f 563 554 553
f 563 564 554
f 566 565 555
f 566 555 556
f 557 511 517
f 557 517 567
f 517 516 566
f 517 566 567
f 566 556 557
f 566 557 567
f 571 558 570
f 571 559 558
f 571 560 559
f 571 572 560
f 574 561 573
f 574 562 561
f 574 563 562
f 574 575 563
f 564 519 514
f 564 576 519
f 576 518 519
f 576 575 518
f 575 564 563
f 575 576 564
f 577 576 564
f 577 564 565
f 578 566 516
f 578 516 520
f 578 577 565
f 578 565 566
f 580 522 523
f 580 579 522
f 579 569 568
f 579 580 569
f 524 580 523
f 524 581 580
f 581 569 580
f 581 570 569
f 525 581 524
f 525 582 581
f 581 571 570
f 581 582 571
f 583 571 582
f 583 572 571
f 584 572 583
f 584 573 572
f 585 573 584
f 585 574 573
f 586 518 575
f 586 526 518
f 587 527 526
f 587 526 586
f 586 575 576
f 586 576 587
f 588 528 527
f 588 527 587
f 587 576 577
f 587 577 588
f 589 578 520
f 589 520 529
f 589 529 528
f 589 528 588
f 589 588 577
f 589 577 578
f 590 522 579
f 590 531 522
f 591 532 531
f 591 531 590
f 533 532 591
f 533 591 592
f 582 525 534
f 582 534 593
f 534 533 592
f 534 592 593
f 592 581 582
f 592 582 593
f 593 583 582
f 593 594 583
f 595 583 594
f 595 584 583
f 596 595 594
f 596 597 595
f 600 541 542
f 600 599 541
f 603 541 599
f 603 544 541
f 603 543 544
f 603 602 543
f 603 598 602
f 603 599 598
f 604 600 542
f 604 542 545
f 606 543 602
f 606 547 543
f 606 546 547
f 606 605 546
f 606 601 605
f 606 602 601
f 607 604 545
f 607 545 549
f 550 607 549
f 550 608 607
f 610 546 605
f 610 552 546
f 552 609 551
f 552 610 609
f 611 610 605
f 611 605 606
f 614 608 550
f 614 550 556
f 614 556 555
f 614 555 613
f 616 558 559
f 616 615 558
f 617 559 560
f 617 616 559
f 609 561 551
f 609 618 561
f 619 618 609
f 619 609 610
f 620 619 610
f 620 610 611
f 622 613 555
f 622 555 565
f 622 565 564
f 622 564 621
f 622 621 612
f 622 612 613
f 569 623 568
f 569 624 623
f 615 570 558
f 615 625 570
f 570 624 569
f 570 625 624
f 626 625 615
f 626 615 616
f 627 617 560
f 627 560 572
f 626 616 617
f 626 617 627
f 618 573 561
f 618 628 573
f 573 627 572
f 573 628 627
f 630 575 574
f 630 574 629
f 631 621 564
f 631 564 576
f 631 576 575
f 631 575 630
f 632 568 623
f 632 579 568
f 633 632 623
f 633 623 624
f 635 582 581
f 635 581 634
f 635 634 625
f 635 625 626
f 636 635 626
f 636 626 627
f 637 636 627
f 637 627 628
f 629 574 585
f 629 585 638
f 585 584 637
f 585 637 638
f 638 637 628
f 638 628 629
f 639 629 638
f 639 630 629
f 632 590 579
f 632 640 590
f 591 590 640
f 591 640 641
f 641 640 632
f 641 632 633
f 642 634 581
f 642 581 592
f 642 592 591
f 642 591 641
f 642 641 633
f 642 633 634
f 643 582 635
f 643 593 582
f 594 593 643
f 594 643 644
f 643 635 636
f 643 636 644
f 637 584 595
f 637 595 645
f 645 644 636
f 645 636 637
f 644 596 594
f 644 646 596
f 647 645 595
f 647 595 597
f 597 596 646
f 597 646 647
f 646 644 645
f 646 645 647
f 649 598 599
f 649 648 598
f 600 649 599
f 600 650 649
f 652 598 648
f 652 602 598
f 652 601 602
f 652 651 601
f 653 650 600
f 653 600 604
f 654 601 651
f 654 605 601
f 606 605 654
f 606 654 655
f 653 604 607
f 653 607 657
f 658 607 608
f 658 657 607
f 655 611 606
f 655 659 611
f 659 655 656
f 659 656 660
f 661 613 612
f 661 612 660
f 661 660 656
f 661 656 657
f 662 658 608
f 662 608 614
f 614 613 661
f 614 661 662
f 661 657 658
f 661 658 662
f 619 663 618
f 619 664 663
f 659 620 611
f 659 665 620
f 620 664 619
f 620 665 664
f 666 660 612
f 666 612 621
f 666 665 659
f 666 659 660
f 668 624 625
f 668 667 624
f 669 618 663
f 669 628 618
f 629 628 669
f 629 669 670
f 669 663 664
f 669 664 670
f 671 670 664
f 671 664 665
f 666 621 631
f 666 631 672
f 672 631 630
f 672 630 671
f 672 671 665
f 672 665 666
f 673 624 667
f 673 633 624
f 674 668 625
f 674 625 634
f 674 634 633
f 674 633 673
f 673 667 668
f 673 668 674
f 675 629 670
f 675 638 629
f 671 630 639
f 671 639 676
f 639 638 675
f 639 675 676
f 649 677 648
f 649 678 677
f 679 649 650
f 679 678 649
f 681 648 677
f 681 652 648
f 652 680 651
f 652 681 680
f 682 681 677
f 682 677 678
f 683 679 650
f 683 650 653
f 682 678 679
f 682 679 683
f 680 654 651
f 680 684 654
f 685 655 654
f 685 654 684
f 685 684 680
f 685 680 681
f 656 655 685
f 656 685 686
f 686 685 681
f 686 681 682
f 687 683 653
f 687 653 657
f 687 657 656
f 687 656 686
f 687 686 682
f 687 682 683
f 671 688 670
f 671 689 688
f 688 675 670
f 688 690 675
f 689 671 676
f 689 676 691
f 676 675 690
f 676 690 691
f 690 688 689
f 690 689 691
