<svg xmlns="http://www.w3.org/2000/svg" width="760" height="420" viewBox="0 0 760 420" font-family="-apple-system,sans-serif" font-size="13">
<rect width="760" height="420" fill="white"/>
<rect x="0" y="0" width="760" height="42" fill="#0f172a"/>
<text x="380.0" y="27" text-anchor="middle" fill="white" font-weight="600" font-size="15">dnaa-02 — Nucleotide cycle: scoreboard</text>
<rect x="30" y="60" width="700" height="44" fill="#f8fafc" rx="3"/>
<text x="42" y="80" fill="#0f172a" font-weight="600">DnaA-ATP/ADP/apo species in bulk</text>
<text x="42" y="96" fill="#64748b" font-size="11">PD03831, MONOMER0-160, MONOMER0-4565</text>
<text x="570" y="86" text-anchor="end" fill="#0f172a" font-weight="600" font-size="14" font-family="ui-monospace,monospace">ALREADY EXIST</text>
<rect x="620" y="70" width="100" height="24" rx="12" fill="#16a34a"/>
<text x="670" y="86" text-anchor="middle" fill="white" font-weight="700" font-size="11">✓ PASS</text>
<rect x="30" y="110" width="700" height="44" fill="#f8fafc" rx="3"/>
<text x="42" y="130" fill="#0f172a" font-weight="600">ecoli-equilibrium process wired</text>
<text x="42" y="146" fill="#64748b" font-size="11">Active every timestep in baseline composite</text>
<text x="570" y="136" text-anchor="end" fill="#0f172a" font-weight="600" font-size="14" font-family="ui-monospace,monospace">WORKING</text>
<rect x="620" y="120" width="100" height="24" rx="12" fill="#16a34a"/>
<text x="670" y="136" text-anchor="middle" fill="white" font-weight="700" font-size="11">✓ PASS</text>
<rect x="30" y="160" width="700" height="44" fill="#f8fafc" rx="3"/>
<text x="42" y="180" fill="#0f172a" font-weight="600">DnaA-ATP fraction (baseline)</text>
<text x="42" y="196" fill="#64748b" font-size="11">Boesen 2024 physiological target [0.20, 0.50]</text>
<text x="570" y="186" text-anchor="end" fill="#0f172a" font-weight="600" font-size="14" font-family="ui-monospace,monospace">0.99</text>
<rect x="620" y="170" width="100" height="24" rx="12" fill="#dc2626"/>
<text x="670" y="186" text-anchor="middle" fill="white" font-weight="700" font-size="11">✗ FAIL</text>
<rect x="30" y="210" width="700" height="44" fill="#f8fafc" rx="3"/>
<text x="42" y="230" fill="#0f172a" font-weight="600">DnaA-ADP pool (baseline)</text>
<text x="42" y="246" fill="#64748b" font-size="11">RXN0-7444 has no kinetic constraint</text>
<text x="570" y="236" text-anchor="end" fill="#0f172a" font-weight="600" font-size="14" font-family="ui-monospace,monospace">0</text>
<rect x="620" y="220" width="100" height="24" rx="12" fill="#dc2626"/>
<text x="670" y="236" text-anchor="middle" fill="white" font-weight="700" font-size="11">✗ FAIL</text>
<rect x="30" y="260" width="700" height="44" fill="#f8fafc" rx="3"/>
<text x="42" y="280" fill="#0f172a" font-weight="600">Intrinsic hydrolysis @ Boesen rate (0.046/min)</text>
<text x="42" y="296" fill="#64748b" font-size="11">Drafted Step + external probe</text>
<text x="570" y="286" text-anchor="end" fill="#0f172a" font-weight="600" font-size="14" font-family="ui-monospace,monospace">0.987 ATP frac (INSUFFICIENT)</text>
<rect x="620" y="270" width="100" height="24" rx="12" fill="#dc2626"/>
<text x="670" y="286" text-anchor="middle" fill="white" font-weight="700" font-size="11">✗ FAIL</text>
<rect x="30" y="310" width="700" height="44" fill="#f8fafc" rx="3"/>
<text x="42" y="330" fill="#0f172a" font-weight="600">Mechanism PASSES at 100× rate (k=4.6/min)</text>
<text x="42" y="346" fill="#64748b" font-size="11">Quantitative target for dnaa-05</text>
<text x="570" y="336" text-anchor="end" fill="#0f172a" font-weight="600" font-size="14" font-family="ui-monospace,monospace">0.231 ATP frac</text>
<rect x="620" y="320" width="100" height="24" rx="12" fill="#16a34a"/>
<text x="670" y="336" text-anchor="middle" fill="white" font-weight="700" font-size="11">✓ PASS</text>
</svg>