<svg xmlns="http://www.w3.org/2000/svg" width="900" height="480" viewBox="0 0 900 480" font-family="-apple-system,sans-serif" font-size="13"><rect width="900" height="480" fill="white"/><text x="450.0" y="22" text-anchor="middle" font-weight="600" font-size="15">DnaA equilibration: apo / DnaA-ATP / DnaA-ADP over time (baseline, 1× TE)</text>
<line x1="70" y1="420.0" x2="870" y2="420.0" stroke="#e5e7eb"/>
<text x="62" y="424.0" text-anchor="end" fill="#64748b">0</text>
<line x1="70" y1="290.2664796633941" x2="870" y2="290.2664796633941" stroke="#e5e7eb"/>
<text x="62" y="294.2664796633941" text-anchor="end" fill="#64748b">50</text>
<line x1="70" y1="160.53295932678822" x2="870" y2="160.53295932678822" stroke="#e5e7eb"/>
<text x="62" y="164.53295932678822" text-anchor="end" fill="#64748b">100</text>
<text x="70.0" y="438" text-anchor="middle" fill="#64748b">0s</text>
<text x="150.0" y="438" text-anchor="middle" fill="#64748b">60s</text>
<text x="230.0" y="438" text-anchor="middle" fill="#64748b">120s</text>
<text x="310.0" y="438" text-anchor="middle" fill="#64748b">180s</text>
<text x="390.0" y="438" text-anchor="middle" fill="#64748b">240s</text>
<text x="470.0" y="438" text-anchor="middle" fill="#64748b">300s</text>
<text x="550.0" y="438" text-anchor="middle" fill="#64748b">360s</text>
<text x="630.0" y="438" text-anchor="middle" fill="#64748b">420s</text>
<text x="710.0" y="438" text-anchor="middle" fill="#64748b">480s</text>
<text x="790.0" y="438" text-anchor="middle" fill="#64748b">540s</text>
<text x="870.0" y="438" text-anchor="middle" fill="#64748b">600s</text>
<path d="M 70.0,98.3 L 83.3,420.0 L 96.7,420.0 L 110.0,417.4 L 123.3,420.0 L 136.7,420.0 L 150.0,420.0 L 163.3,420.0 L 176.7,420.0 L 190.0,417.4 L 203.3,420.0 L 216.7,420.0 L 230.0,420.0 L 243.3,417.4 L 256.7,420.0 L 270.0,420.0 L 283.3,420.0 L 296.7,420.0 L 310.0,420.0 L 323.3,420.0 L 336.7,420.0 L 350.0,420.0 L 363.3,420.0 L 376.7,420.0 L 390.0,420.0 L 403.3,420.0 L 416.7,420.0 L 430.0,420.0 L 443.3,420.0 L 456.7,420.0 L 470.0,417.4 L 483.3,420.0 L 496.7,420.0 L 510.0,420.0 L 523.3,420.0 L 536.7,420.0 L 550.0,420.0 L 563.3,420.0 L 576.7,420.0 L 590.0,417.4 L 603.3,420.0 L 616.7,417.4 L 630.0,420.0 L 643.3,420.0 L 656.7,420.0 L 670.0,417.4 L 683.3,420.0 L 696.7,420.0 L 710.0,420.0 L 723.3,420.0 L 736.7,420.0 L 750.0,420.0 L 763.3,420.0 L 776.7,420.0 L 790.0,420.0 L 803.3,417.4 L 816.7,417.4 L 830.0,417.4 L 843.3,420.0 L 856.7,420.0 L 870.0,420.0" fill="none" stroke="#3b82f6" stroke-width="2"/>
<path d="M 70.0,420.0 L 83.3,137.2 L 96.7,134.6 L 110.0,137.2 L 123.3,129.4 L 136.7,129.4 L 150.0,126.8 L 163.3,126.8 L 176.7,126.8 L 190.0,124.2 L 203.3,119.0 L 216.7,116.4 L 230.0,116.4 L 243.3,119.0 L 256.7,121.6 L 270.0,119.0 L 283.3,119.0 L 296.7,119.0 L 310.0,119.0 L 323.3,119.0 L 336.7,119.0 L 350.0,119.0 L 363.3,119.0 L 376.7,119.0 L 390.0,119.0 L 403.3,119.0 L 416.7,116.4 L 430.0,121.6 L 443.3,121.6 L 456.7,121.6 L 470.0,124.2 L 483.3,121.6 L 496.7,121.6 L 510.0,121.6 L 523.3,121.6 L 536.7,121.6 L 550.0,121.6 L 563.3,121.6 L 576.7,121.6 L 590.0,124.2 L 603.3,121.6 L 616.7,124.2 L 630.0,121.6 L 643.3,121.6 L 656.7,121.6 L 670.0,124.2 L 683.3,121.6 L 696.7,121.6 L 710.0,121.6 L 723.3,121.6 L 736.7,121.6 L 750.0,121.6 L 763.3,121.6 L 776.7,121.6 L 790.0,121.6 L 803.3,124.2 L 816.7,129.4 L 830.0,126.8 L 843.3,126.8 L 856.7,126.8 L 870.0,126.8" fill="none" stroke="#10b981" stroke-width="2"/>
<path d="M 70.0,420.0 L 83.3,420.0 L 96.7,420.0 L 110.0,417.4 L 123.3,420.0 L 136.7,417.4 L 150.0,420.0 L 163.3,420.0 L 176.7,420.0 L 190.0,420.0 L 203.3,420.0 L 216.7,420.0 L 230.0,420.0 L 243.3,420.0 L 256.7,417.4 L 270.0,420.0 L 283.3,420.0 L 296.7,420.0 L 310.0,420.0 L 323.3,420.0 L 336.7,420.0 L 350.0,420.0 L 363.3,420.0 L 376.7,420.0 L 390.0,420.0 L 403.3,420.0 L 416.7,420.0 L 430.0,420.0 L 443.3,420.0 L 456.7,420.0 L 470.0,420.0 L 483.3,420.0 L 496.7,420.0 L 510.0,420.0 L 523.3,420.0 L 536.7,420.0 L 550.0,420.0 L 563.3,420.0 L 576.7,420.0 L 590.0,420.0 L 603.3,420.0 L 616.7,420.0 L 630.0,420.0 L 643.3,420.0 L 656.7,420.0 L 670.0,420.0 L 683.3,420.0 L 696.7,420.0 L 710.0,420.0 L 723.3,420.0 L 736.7,420.0 L 750.0,420.0 L 763.3,420.0 L 776.7,420.0 L 790.0,420.0 L 803.3,420.0 L 816.7,420.0 L 830.0,420.0 L 843.3,420.0 L 856.7,420.0 L 870.0,420.0" fill="none" stroke="#f59e0b" stroke-width="2"/>
<path d="M 70.0,98.3 L 83.3,137.2 L 96.7,134.6 L 110.0,132.0 L 123.3,129.4 L 136.7,126.8 L 150.0,126.8 L 163.3,126.8 L 176.7,126.8 L 190.0,121.6 L 203.3,119.0 L 216.7,116.4 L 230.0,116.4 L 243.3,116.4 L 256.7,119.0 L 270.0,119.0 L 283.3,119.0 L 296.7,119.0 L 310.0,119.0 L 323.3,119.0 L 336.7,119.0 L 350.0,119.0 L 363.3,119.0 L 376.7,119.0 L 390.0,119.0 L 403.3,119.0 L 416.7,116.4 L 430.0,121.6 L 443.3,121.6 L 456.7,121.6 L 470.0,121.6 L 483.3,121.6 L 496.7,121.6 L 510.0,121.6 L 523.3,121.6 L 536.7,121.6 L 550.0,121.6 L 563.3,121.6 L 576.7,121.6 L 590.0,121.6 L 603.3,121.6 L 616.7,121.6 L 630.0,121.6 L 643.3,121.6 L 656.7,121.6 L 670.0,121.6 L 683.3,121.6 L 696.7,121.6 L 710.0,121.6 L 723.3,121.6 L 736.7,121.6 L 750.0,121.6 L 763.3,121.6 L 776.7,121.6 L 790.0,121.6 L 803.3,121.6 L 816.7,126.8 L 830.0,124.2 L 843.3,126.8 L 856.7,126.8 L 870.0,126.8" fill="none" stroke="#1e293b" stroke-width="2.5" stroke-dasharray="4,3"/>
<rect x="70" y="41" width="14" height="14" fill="#3b82f6"/>
<text x="92" y="53" fill="#334155">apo (PD03831)</text>
<rect x="70" y="59" width="14" height="14" fill="#10b981"/>
<text x="92" y="71" fill="#334155">DnaA-ATP (MONOMER0-160)</text>
<rect x="70" y="77" width="14" height="14" fill="#f59e0b"/>
<text x="92" y="89" fill="#334155">DnaA-ADP (MONOMER0-4565)</text>
<rect x="70" y="95" width="14" height="14" fill="#1e293b"/>
<text x="92" y="107" fill="#334155">total</text>
<text x="860" y="80" text-anchor="end" fill="#dc2626" font-size="12">final ATP fraction = 1.000</text>
<text x="860" y="96" text-anchor="end" fill="#dc2626" font-size="11">Boesen 2024 target [0.20, 0.50] — v2ecoli is 2.9× over</text>
</svg>