<svg xmlns="http://www.w3.org/2000/svg" width="900" height="480" viewBox="0 0 900 480" font-family="-apple-system,sans-serif" font-size="13"><rect width="900" height="480" fill="white"/><text x="450.0" y="22" text-anchor="middle" font-weight="600" font-size="15">DnaA states with (TE=20×, fc=0.7) + intrinsic hydrolysis (Boesen 0.046/min)</text>
<line x1="70" y1="420.0" x2="870" y2="420.0" stroke="#e5e7eb"/>
<text x="62" y="424.0" text-anchor="end" fill="#64748b">0</text>
<line x1="70" y1="381.56043841878346" x2="870" y2="381.56043841878346" stroke="#e5e7eb"/>
<text x="62" y="385.56043841878346" text-anchor="end" fill="#64748b">100</text>
<line x1="70" y1="343.12087683756687" x2="870" y2="343.12087683756687" stroke="#e5e7eb"/>
<text x="62" y="347.12087683756687" text-anchor="end" fill="#64748b">200</text>
<line x1="70" y1="304.68131525635033" x2="870" y2="304.68131525635033" stroke="#e5e7eb"/>
<text x="62" y="308.68131525635033" text-anchor="end" fill="#64748b">300</text>
<line x1="70" y1="266.24175367513374" x2="870" y2="266.24175367513374" stroke="#e5e7eb"/>
<text x="62" y="270.24175367513374" text-anchor="end" fill="#64748b">400</text>
<line x1="70" y1="227.8021920939172" x2="870" y2="227.8021920939172" stroke="#e5e7eb"/>
<text x="62" y="231.8021920939172" text-anchor="end" fill="#64748b">500</text>
<line x1="70" y1="189.36263051270063" x2="870" y2="189.36263051270063" stroke="#e5e7eb"/>
<text x="62" y="193.36263051270063" text-anchor="end" fill="#64748b">600</text>
<line x1="70" y1="150.92306893148407" x2="870" y2="150.92306893148407" stroke="#e5e7eb"/>
<text x="62" y="154.92306893148407" text-anchor="end" fill="#64748b">700</text>
<line x1="70" y1="112.48350735026753" x2="870" y2="112.48350735026753" stroke="#e5e7eb"/>
<text x="62" y="116.48350735026753" text-anchor="end" fill="#64748b">800</text>
<text x="70.0" y="438" text-anchor="middle" fill="#64748b">0s</text>
<text x="150.0" y="438" text-anchor="middle" fill="#64748b">60s</text>
<text x="230.0" y="438" text-anchor="middle" fill="#64748b">120s</text>
<text x="310.0" y="438" text-anchor="middle" fill="#64748b">180s</text>
<text x="390.0" y="438" text-anchor="middle" fill="#64748b">240s</text>
<text x="470.0" y="438" text-anchor="middle" fill="#64748b">300s</text>
<text x="550.0" y="438" text-anchor="middle" fill="#64748b">360s</text>
<text x="630.0" y="438" text-anchor="middle" fill="#64748b">420s</text>
<text x="710.0" y="438" text-anchor="middle" fill="#64748b">480s</text>
<text x="790.0" y="438" text-anchor="middle" fill="#64748b">540s</text>
<text x="870.0" y="438" text-anchor="middle" fill="#64748b">600s</text>
<path d="M 70.0,372.3 L 83.3,420.0 L 96.7,419.6 L 110.0,420.0 L 123.3,419.6 L 136.7,419.6 L 150.0,418.8 L 163.3,419.2 L 176.7,420.0 L 190.0,418.8 L 203.3,418.1 L 216.7,419.6 L 230.0,418.5 L 243.3,417.7 L 256.7,419.6 L 270.0,419.6 L 283.3,420.0 L 296.7,419.6 L 310.0,420.0 L 323.3,419.2 L 336.7,420.0 L 350.0,418.5 L 363.3,419.2 L 376.7,418.1 L 390.0,418.5 L 403.3,419.2 L 416.7,418.1 L 430.0,419.2 L 443.3,420.0 L 456.7,420.0 L 470.0,419.2 L 483.3,420.0 L 496.7,420.0 L 510.0,420.0 L 523.3,420.0 L 536.7,420.0 L 550.0,420.0 L 563.3,420.0 L 576.7,419.2 L 590.0,418.8 L 603.3,419.2 L 616.7,419.6 L 630.0,419.2 L 643.3,419.6 L 656.7,419.6 L 670.0,419.6 L 683.3,418.5 L 696.7,418.5 L 710.0,419.2 L 723.3,420.0 L 736.7,419.2 L 750.0,419.2 L 763.3,419.2 L 776.7,420.0 L 790.0,419.2 L 803.3,420.0 L 816.7,420.0 L 830.0,419.6 L 843.3,419.6 L 856.7,420.0 L 870.0,419.6" fill="none" stroke="#3b82f6" stroke-width="2"/>
<path d="M 70.0,420.0 L 83.3,378.5 L 96.7,378.5 L 110.0,374.6 L 123.3,368.5 L 136.7,365.4 L 150.0,362.0 L 163.3,355.8 L 176.7,352.0 L 190.0,347.3 L 203.3,338.1 L 216.7,328.1 L 230.0,317.0 L 243.3,304.3 L 256.7,297.0 L 270.0,290.1 L 283.3,283.9 L 296.7,275.5 L 310.0,271.6 L 323.3,268.2 L 336.7,262.0 L 350.0,255.5 L 363.3,247.8 L 376.7,242.8 L 390.0,234.3 L 403.3,228.2 L 416.7,220.1 L 430.0,215.1 L 443.3,209.4 L 456.7,204.0 L 470.0,197.1 L 483.3,196.3 L 496.7,195.9 L 510.0,196.3 L 523.3,195.9 L 536.7,196.3 L 550.0,195.9 L 563.3,195.9 L 576.7,194.7 L 590.0,188.2 L 603.3,179.8 L 616.7,170.5 L 630.0,166.3 L 643.3,161.7 L 656.7,157.8 L 670.0,150.9 L 683.3,145.5 L 696.7,137.5 L 710.0,133.6 L 723.3,126.7 L 736.7,121.3 L 750.0,114.4 L 763.3,110.6 L 776.7,105.2 L 790.0,102.1 L 803.3,101.3 L 816.7,102.1 L 830.0,102.1 L 843.3,102.5 L 856.7,101.7 L 870.0,102.5" fill="none" stroke="#10b981" stroke-width="2"/>
<path d="M 70.0,420.0 L 83.3,419.6 L 96.7,419.6 L 110.0,419.2 L 123.3,419.6 L 136.7,419.2 L 150.0,419.6 L 163.3,419.6 L 176.7,419.2 L 190.0,419.6 L 203.3,419.2 L 216.7,419.2 L 230.0,419.2 L 243.3,419.2 L 256.7,418.8 L 270.0,418.5 L 283.3,418.5 L 296.7,418.5 L 310.0,418.8 L 323.3,418.5 L 336.7,418.5 L 350.0,418.8 L 363.3,418.5 L 376.7,418.5 L 390.0,418.5 L 403.3,418.1 L 416.7,418.1 L 430.0,418.1 L 443.3,418.1 L 456.7,418.1 L 470.0,417.7 L 483.3,417.7 L 496.7,418.1 L 510.0,417.7 L 523.3,418.1 L 536.7,417.7 L 550.0,418.1 L 563.3,418.1 L 576.7,418.1 L 590.0,418.1 L 603.3,417.7 L 616.7,417.7 L 630.0,417.7 L 643.3,417.7 L 656.7,417.3 L 670.0,417.7 L 683.3,417.7 L 696.7,417.3 L 710.0,417.3 L 723.3,417.3 L 736.7,417.3 L 750.0,417.3 L 763.3,416.9 L 776.7,417.3 L 790.0,416.9 L 803.3,416.9 L 816.7,416.9 L 830.0,417.3 L 843.3,416.9 L 856.7,417.3 L 870.0,416.9" fill="none" stroke="#f59e0b" stroke-width="2"/>
<path d="M 70.0,372.3 L 83.3,378.1 L 96.7,377.7 L 110.0,373.9 L 123.3,367.7 L 136.7,364.3 L 150.0,360.4 L 163.3,354.7 L 176.7,351.2 L 190.0,345.8 L 203.3,335.4 L 216.7,327.0 L 230.0,314.7 L 243.3,301.2 L 256.7,295.5 L 270.0,288.2 L 283.3,282.4 L 296.7,273.5 L 310.0,270.5 L 323.3,265.9 L 336.7,260.5 L 350.0,252.8 L 363.3,245.5 L 376.7,239.3 L 390.0,231.3 L 403.3,225.5 L 416.7,216.3 L 430.0,212.4 L 443.3,207.4 L 456.7,202.0 L 470.0,194.0 L 483.3,194.0 L 496.7,194.0 L 510.0,194.0 L 523.3,194.0 L 536.7,194.0 L 550.0,194.0 L 563.3,194.0 L 576.7,192.1 L 590.0,185.1 L 603.3,176.7 L 616.7,167.8 L 630.0,163.2 L 643.3,159.0 L 656.7,154.8 L 670.0,148.2 L 683.3,141.7 L 696.7,133.2 L 710.0,130.2 L 723.3,124.0 L 736.7,117.9 L 750.0,110.9 L 763.3,106.7 L 776.7,102.5 L 790.0,98.3 L 803.3,98.3 L 816.7,99.0 L 830.0,99.0 L 843.3,99.0 L 856.7,99.0 L 870.0,99.0" fill="none" stroke="#1e293b" stroke-width="2.5" stroke-dasharray="4,3"/>
<rect x="70" y="41" width="14" height="14" fill="#3b82f6"/>
<text x="92" y="53" fill="#334155">apo (PD03831)</text>
<rect x="70" y="59" width="14" height="14" fill="#10b981"/>
<text x="92" y="71" fill="#334155">DnaA-ATP (MONOMER0-160)</text>
<rect x="70" y="77" width="14" height="14" fill="#f59e0b"/>
<text x="92" y="89" fill="#334155">DnaA-ADP (MONOMER0-4565)</text>
<rect x="70" y="95" width="14" height="14" fill="#1e293b"/>
<text x="92" y="107" fill="#334155">total</text>
<text x="860" y="80" text-anchor="end" fill="#dc2626" font-size="12" font-weight="600">median ATP fraction = 0.989</text>
<text x="860" y="98" text-anchor="end" fill="#dc2626" font-size="11">Boesen [0.20, 0.50]: FAIL</text>
<text x="860" y="114" text-anchor="end" fill="#475569" font-size="11">median total DnaA = 707</text>
</svg>