<svg xmlns="http://www.w3.org/2000/svg" width="760" height="420" viewBox="0 0 760 420" font-family="-apple-system,sans-serif" font-size="13">
<rect width="760" height="420" fill="white"/>
<text x="380.0" y="22" text-anchor="middle" font-weight="600" font-size="15">DnaA-ATP fraction vs hydrolysis rate (sensitivity probe, dnaa-02)</text>
<text x="380.0" y="40" text-anchor="middle" fill="#64748b" font-size="11">Calibration: TE=20×, fc=0.7. Rate-multipliers relative to Boesen 0.046/min intrinsic.</text>
<rect x="70" y="200.0" width="660" height="84.0" fill="#86efac" fill-opacity="0.3"/>
<text x="80" y="214.0" fill="#16a34a" font-size="11">Boesen 2024 physiological band [0.20, 0.50]</text>
<line x1="70" y1="340" x2="730" y2="340" stroke="#e5e7eb"/>
<text x="62" y="344" text-anchor="end" fill="#64748b">0.00</text>
<line x1="70" y1="270.0" x2="730" y2="270.0" stroke="#e5e7eb"/>
<text x="62" y="274.0" text-anchor="end" fill="#64748b">0.25</text>
<line x1="70" y1="200.0" x2="730" y2="200.0" stroke="#e5e7eb"/>
<text x="62" y="204.0" text-anchor="end" fill="#64748b">0.50</text>
<line x1="70" y1="130.0" x2="730" y2="130.0" stroke="#e5e7eb"/>
<text x="62" y="134.0" text-anchor="end" fill="#64748b">0.75</text>
<line x1="70" y1="60.0" x2="730" y2="60.0" stroke="#e5e7eb"/>
<text x="62" y="64.0" text-anchor="end" fill="#64748b">1.00</text>
<text x="20" y="200.0" text-anchor="middle" transform="rotate(-90 20 200.0)" fill="#334155">DnaA-ATP / total</text>
<rect x="107.125" y="63.674540682414715" width="90.75000000000001" height="276.3254593175853" fill="#94a3b8"/>
<text x="152.5" y="59.674540682414715" text-anchor="middle" fill="#0f172a" font-weight="600">0.987</text>
<text x="152.5" y="358" text-anchor="middle" fill="#334155">×1</text>
<text x="152.5" y="374" text-anchor="middle" fill="#64748b" font-size="11">k=0.05/min</text>
<text x="152.5" y="390" text-anchor="middle" fill="#64748b" font-size="11">total=470</text>
<rect x="272.125" y="82.15189873417722" width="90.75000000000001" height="257.8481012658228" fill="#94a3b8"/>
<text x="317.5" y="78.15189873417722" text-anchor="middle" fill="#0f172a" font-weight="600">0.921</text>
<text x="317.5" y="358" text-anchor="middle" fill="#334155">×10</text>
<text x="317.5" y="374" text-anchor="middle" fill="#64748b" font-size="11">k=0.46/min</text>
<text x="317.5" y="390" text-anchor="middle" fill="#64748b" font-size="11">total=316</text>
<rect x="437.125" y="275.2830188679245" width="90.75000000000001" height="64.71698113207549" fill="#22c55e"/>
<text x="482.5" y="271.2830188679245" text-anchor="middle" fill="#0f172a" font-weight="600">0.231</text>
<text x="482.5" y="358" text-anchor="middle" fill="#334155">×100</text>
<text x="482.5" y="374" text-anchor="middle" fill="#64748b" font-size="11">k=4.60/min</text>
<text x="482.5" y="390" text-anchor="middle" fill="#64748b" font-size="11">total=502</text>
<text x="482.5" y="406" text-anchor="middle" fill="#16a34a" font-weight="600" font-size="12"> ★ PASS</text>
<rect x="602.125" y="340.0" width="90.75000000000001" height="0.0" fill="#94a3b8"/>
<text x="647.5" y="336.0" text-anchor="middle" fill="#0f172a" font-weight="600">0.000</text>
<text x="647.5" y="358" text-anchor="middle" fill="#334155">×1000</text>
<text x="647.5" y="374" text-anchor="middle" fill="#64748b" font-size="11">k=46.00/min</text>
<text x="647.5" y="390" text-anchor="middle" fill="#64748b" font-size="11">total=512</text>
<text x="380.0" y="410" text-anchor="middle" fill="#475569" font-size="11">Intrinsic-only (×1) fails; 100× rate (≈ RIDA+DDAH+DARS combined) passes; 1000× over-corrects to 0%.</text>
</svg>