<svg xmlns="http://www.w3.org/2000/svg" width="900" height="720" viewBox="0 0 900 720" font-family="-apple-system,sans-serif" font-size="13">
<rect width="900" height="720" fill="white"/>
<text x="450.0" y="26" text-anchor="middle" font-weight="600" font-size="16">Cascading baseline recipes — dnaA investigation chain</text>
<text x="450.0" y="46" text-anchor="middle" fill="#64748b" font-size="11">Each downstream study inherits its parent's validated calibration + mechanisms via v2ecoli/composites/baseline_recipes.py</text>
<defs><marker id="arrow" markerWidth="10" markerHeight="10" refX="9" refY="3" orient="auto"><path d="M0,0 L0,6 L9,3 z" fill="#475569"/></marker></defs>
<path d="M450,115 C450,125.0 450,125.0 450,135" fill="none" stroke="#475569" stroke-width="1.5" marker-end="url(#arrow)"/>
<path d="M450,225 C450,235.0 230,235.0 230,245" fill="none" stroke="#475569" stroke-width="1.5" marker-end="url(#arrow)"/>
<path d="M450,225 C450,235.0 670,235.0 670,245" fill="none" stroke="#475569" stroke-width="1.5" marker-end="url(#arrow)"/>
<path d="M670,335 C670,345.0 670,345.0 670,355" fill="none" stroke="#475569" stroke-width="1.5" marker-end="url(#arrow)"/>
<path d="M670,445 C670,455.0 670,455.0 670,465" fill="none" stroke="#475569" stroke-width="1.5" marker-end="url(#arrow)"/>
<path d="M670,555 C670,565.0 330,565.0 330,575" fill="none" stroke="#475569" stroke-width="1.5" marker-end="url(#arrow)"/>
<path d="M670,555 C670,565.0 730,565.0 730,575" fill="none" stroke="#475569" stroke-width="1.5" marker-end="url(#arrow)"/>
<rect x="290" y="25" width="320" height="90" fill="white" stroke="#dc2626" stroke-width="3" rx="6"/>
<rect x="495" y="33" width="105" height="20" rx="3" fill="#dc2626"/>
<text x="548" y="47" text-anchor="middle" fill="white" font-weight="700" font-size="11">FAILS (count 1</text>
<text x="300" y="47" font-weight="600" fill="#0f172a" font-family="ui-monospace,monospace" font-size="12">v2ecoli_baseline</text>
<text x="300" y="69" fill="#475569" font-size="11">0 bundle-patches · 0 loop-patches (cumulative)</text>
<text x="300" y="89" fill="#64748b" font-size="10">Raw v2ecoli baseline (no patches). Equivalent to v2ecoli.compo…</text>
<text x="300" y="105" fill="#64748b" font-size="10" font-style="italic">study.yaml baseline.composite: v2ecoli.composites.baseline_recipes.v2ecoli_baseline…</text>
<rect x="290" y="135" width="320" height="90" fill="white" stroke="#16a34a" stroke-width="3" rx="6"/>
<rect x="495" y="143" width="105" height="20" rx="3" fill="#16a34a"/>
<text x="548" y="157" text-anchor="middle" fill="white" font-weight="700" font-size="11">PASS (5-seed)</text>
<text x="300" y="157" font-weight="600" fill="#0f172a" font-family="ui-monospace,monospace" font-size="12">dnaa_01g_calibrated</text>
<text x="300" y="179" fill="#475569" font-size="11">3 bundle-patches · 0 loop-patches (cumulative)</text>
<text x="300" y="199" fill="#64748b" font-size="10">(TE=20×, fc=0.7) — the validated dnaA calibration.…</text>
<text x="300" y="215" fill="#64748b" font-size="10" font-style="italic">study.yaml baseline.composite: v2ecoli.composites.baseline_recipes.dnaa_01g_calibrated…</text>
<rect x="70" y="245" width="320" height="90" fill="white" stroke="#f59e0b" stroke-width="3" rx="6"/>
<rect x="275" y="253" width="105" height="20" rx="3" fill="#f59e0b"/>
<text x="328" y="267" text-anchor="middle" fill="white" font-weight="700" font-size="11">PARTIAL (ATP=0</text>
<text x="80" y="267" font-weight="600" fill="#0f172a" font-family="ui-monospace,monospace" font-size="12">dnaa_02_with_intrinsic_hydroly</text>
<text x="80" y="289" fill="#475569" font-size="11">3 bundle-patches · 1 loop-patches (cumulative)</text>
<text x="80" y="309" fill="#64748b" font-size="10">dnaa-01g + intrinsic DnaA-ATP → DnaA-ADP hydrolysis at Boesen …</text>
<text x="80" y="325" fill="#64748b" font-size="10" font-style="italic">study.yaml baseline.composite: v2ecoli.composites.baseline_recipes.dnaa_02_with_intrinsic_h…</text>
<rect x="510" y="245" width="320" height="90" fill="white" stroke="#16a34a" stroke-width="3" rx="6"/>
<rect x="715" y="253" width="105" height="20" rx="3" fill="#16a34a"/>
<text x="768" y="267" text-anchor="middle" fill="white" font-weight="700" font-size="11">PASS (this run</text>
<text x="520" y="267" font-weight="600" fill="#0f172a" font-family="ui-monospace,monospace" font-size="12">dnaa_02_with_extrinsic_target_</text>
<text x="520" y="289" fill="#475569" font-size="11">3 bundle-patches · 1 loop-patches (cumulative)</text>
<text x="520" y="309" fill="#64748b" font-size="10">dnaa-01g + hydrolysis at 100× intrinsic (4.6/min) — anticipate…</text>
<text x="520" y="325" fill="#64748b" font-size="10" font-style="italic">study.yaml baseline.composite: v2ecoli.composites.baseline_recipes.dnaa_02_with_extrinsic_t…</text>
<rect x="510" y="355" width="320" height="90" fill="white" stroke="#94a3b8" stroke-width="3" rx="6"/>
<rect x="715" y="363" width="105" height="20" rx="3" fill="#94a3b8"/>
<text x="768" y="377" text-anchor="middle" fill="white" font-weight="700" font-size="11">TODO (binding </text>
<text x="520" y="377" font-weight="600" fill="#0f172a" font-family="ui-monospace,monospace" font-size="12">dnaa_03_with_box_binding</text>
<text x="520" y="399" fill="#475569" font-size="11">3 bundle-patches · 1 loop-patches (cumulative)</text>
<text x="520" y="419" fill="#64748b" font-size="10">dnaa-02 (with extrinsic target rate) + DnaA-box cooperative bi…</text>
<text x="520" y="435" fill="#64748b" font-size="10" font-style="italic">study.yaml baseline.composite: v2ecoli.composites.baseline_recipes.dnaa_03_with_box_binding…</text>
<rect x="510" y="465" width="320" height="90" fill="white" stroke="#94a3b8" stroke-width="3" rx="6"/>
<rect x="715" y="473" width="105" height="20" rx="3" fill="#94a3b8"/>
<text x="768" y="487" text-anchor="middle" fill="white" font-weight="700" font-size="11">TODO (swap chr</text>
<text x="520" y="487" font-weight="600" fill="#0f172a" font-family="ui-monospace,monospace" font-size="12">dnaa_04_with_dnaa_initiation_t</text>
<text x="520" y="509" fill="#475569" font-size="11">3 bundle-patches · 1 loop-patches (cumulative)</text>
<text x="520" y="529" fill="#64748b" font-size="10">dnaa-03 + DnaA-occupancy-based replication initiation trigger …</text>
<text x="520" y="545" fill="#64748b" font-size="10" font-style="italic">study.yaml baseline.composite: v2ecoli.composites.baseline_recipes.dnaa_04_with_dnaa_initia…</text>
<rect x="170" y="575" width="320" height="90" fill="white" stroke="#94a3b8" stroke-width="3" rx="6"/>
<rect x="375" y="583" width="105" height="20" rx="3" fill="#94a3b8"/>
<text x="428" y="597" text-anchor="middle" fill="white" font-weight="700" font-size="11">TODO (RIDA/DDA</text>
<text x="180" y="597" font-weight="600" fill="#0f172a" font-family="ui-monospace,monospace" font-size="12">dnaa_05_full_nucleotide_cycle</text>
<text x="180" y="619" fill="#475569" font-size="11">3 bundle-patches · 1 loop-patches (cumulative)</text>
<text x="180" y="639" fill="#64748b" font-size="10">dnaa-04 + RIDA + DDAH + DARS extrinsic pathways. Replaces the …</text>
<text x="180" y="655" fill="#64748b" font-size="10" font-style="italic">study.yaml baseline.composite: v2ecoli.composites.baseline_recipes.dnaa_05_full_nucleotide_…</text>
<rect x="570" y="575" width="320" height="90" fill="white" stroke="#94a3b8" stroke-width="3" rx="6"/>
<rect x="775" y="583" width="105" height="20" rx="3" fill="#94a3b8"/>
<text x="828" y="597" text-anchor="middle" fill="white" font-weight="700" font-size="11">TODO (SeqA ste</text>
<text x="580" y="597" font-weight="600" fill="#0f172a" font-family="ui-monospace,monospace" font-size="12">dnaa_06_with_seqa_sequestratio</text>
<text x="580" y="619" fill="#475569" font-size="11">3 bundle-patches · 1 loop-patches (cumulative)</text>
<text x="580" y="639" fill="#64748b" font-size="10">dnaa-04 + SeqA sequestration of newly-replicated oriCs. TODO.…</text>
<text x="580" y="655" fill="#64748b" font-size="10" font-style="italic">study.yaml baseline.composite: v2ecoli.composites.baseline_recipes.dnaa_06_with_seqa_seques…</text>
<text x="30" y="690" fill="#475569" font-weight="600">Validation:</text>
<rect x="130" y="678" width="14" height="14" fill="#16a34a" rx="2"/>
<text x="148" y="690" fill="#475569">PASS</text>
<rect x="230" y="678" width="14" height="14" fill="#f59e0b" rx="2"/>
<text x="248" y="690" fill="#475569">PARTIAL</text>
<rect x="330" y="678" width="14" height="14" fill="#dc2626" rx="2"/>
<text x="348" y="690" fill="#475569">FAILS</text>
<rect x="430" y="678" width="14" height="14" fill="#94a3b8" rx="2"/>
<text x="448" y="690" fill="#475569">TODO</text>
</svg>