<svg xmlns="http://www.w3.org/2000/svg" width="1400" height="484" viewBox="0 0 1400 484" font-family="-apple-system,sans-serif" font-size="13"><title>Chromosome state over a calibrated 10-min run</title><rect width="1400" height="484" fill="white"/>
<rect x="0" y="0" width="1400" height="44" fill="#0f172a"/><text x="700.0" y="28" text-anchor="middle" fill="white" font-weight="600" font-size="15">Chromosome state over a calibrated 10-min run</text><text x="700.0" y="60" text-anchor="middle" fill="#64748b" font-size="11">Recipe: dnaa_02_with_extrinsic_target_rate (TE=20×, fc=0.7, k_hyd=4.6/min). OriC, Ter, replisome forks, and RNAP density along the 4.6 Mb circular chromosome.</text>
<text x="197.5" y="70" text-anchor="middle" fill="#0f172a" font-weight="600" font-size="13">t=0s (2 chromosome domains)</text>
<circle cx="197.5" cy="217" r="127" fill="none" stroke="#cbd5e1" stroke-width="2"/>
<circle cx="70.63915847303106" cy="222.9436425758347" r="1.5" fill="#3b82f6"/>
<circle cx="70.64520875622256" cy="223.07140333840934" r="1.5" fill="#3b82f6"/>
<circle cx="70.66907867733805" cy="223.55113703449518" r="1.5" fill="#3b82f6"/>
<circle cx="70.67981439288712" cy="223.7557769780713" r="1.5" fill="#3b82f6"/>
<circle cx="70.67730831135071" cy="223.7085671231498" r="1.5" fill="#3b82f6"/>
<circle cx="70.66579587481282" cy="223.48726937396233" r="1.5" fill="#3b82f6"/>
<circle cx="70.67741730093199" cy="223.7106272089916" r="1.5" fill="#3b82f6"/>
<circle cx="70.6413068340257" cy="222.98932118200267" r="1.5" fill="#3b82f6"/>
<circle cx="70.64265587535701" cy="223.01782698670448" r="1.5" fill="#3b82f6"/>
<circle cx="311.54653493069316" cy="272.87833095487184" r="1.5" fill="#3b82f6"/>
<circle cx="310.65352785199326" cy="274.6652333269205" r="1.5" fill="#3b82f6"/>
<circle cx="216.0133914209781" cy="342.64336169529076" r="1.5" fill="#3b82f6"/>
<circle cx="118.89566204112029" cy="316.75148146291474" r="1.5" fill="#3b82f6"/>
<circle cx="70.53880703189934" cy="220.13934389908218" r="1.5" fill="#3b82f6"/>
<circle cx="72.35108826303912" cy="238.60439517909202" r="1.5" fill="#3b82f6"/>
<circle cx="170.46811547189805" cy="341.0897949827437" r="1.5" fill="#3b82f6"/>
<circle cx="124.40628327287709" cy="320.8571546645445" r="1.5" fill="#3b82f6"/>
<circle cx="153.95935076767017" cy="336.30302537834996" r="1.5" fill="#3b82f6"/>
<circle cx="291.7941137013781" cy="302.0742036182037" r="1.5" fill="#3b82f6"/>
<circle cx="177.84328066822872" cy="342.46957155068304" r="1.5" fill="#3b82f6"/>
<circle cx="90.24340134378089" cy="285.0075146193326" r="1.5" fill="#3b82f6"/>
<circle cx="313.5757580555959" cy="268.5307519042636" r="1.5" fill="#3b82f6"/>
<circle cx="71.25278330204624" cy="230.80725447074494" r="1.5" fill="#3b82f6"/>
<circle cx="117.1948923018579" cy="315.38744674799625" r="1.5" fill="#3b82f6"/>
<circle cx="311.57088013114304" cy="272.8286154772478" r="1.5" fill="#3b82f6"/>
<circle cx="77.37041465393257" cy="258.2053725208485" r="1.5" fill="#3b82f6"/>
<circle cx="126.30135205299997" cy="322.1653580344742" r="1.5" fill="#3b82f6"/>
<circle cx="317.1634922091286" cy="259.53996511888346" r="1.5" fill="#3b82f6"/>
<circle cx="317.1894404467789" cy="259.46690294260895" r="1.5" fill="#3b82f6"/>
<circle cx="278.0588187729529" cy="315.1798182821018" r="1.5" fill="#3b82f6"/>
<circle cx="70.82234338805192" cy="207.9572506777326" r="1.5" fill="#3b82f6"/>
<circle cx="70.8289377695054" cy="207.86534109021244" r="1.5" fill="#3b82f6"/>
<circle cx="271.2980478945299" cy="320.35786436917454" r="1.5" fill="#3b82f6"/>
<circle cx="132.3132277836937" cy="325.9939664753026" r="1.5" fill="#3b82f6"/>
<circle cx="250.41180608431853" cy="332.45276426701736" r="1.5" fill="#3b82f6"/>
<circle cx="217.09659292460952" cy="91.52102349099613" r="1.5" fill="#3b82f6"/>
<circle cx="217.07434161553485" cy="91.51755042908056" r="1.5" fill="#3b82f6"/>
<circle cx="216.465846539975" cy="91.42413979979226" r="1.5" fill="#3b82f6"/>
<circle cx="216.35041797163512" cy="91.4067607619954" r="1.5" fill="#3b82f6"/>
<circle cx="217.0656787256548" cy="91.51619938811042" r="1.5" fill="#3b82f6"/>
<circle cx="216.55321480629772" cy="91.43736620496894" r="1.5" fill="#3b82f6"/>
<circle cx="216.42453888824733" cy="91.41790801285713" r="1.5" fill="#3b82f6"/>
<circle cx="238.38487729863334" cy="96.76095971658917" r="1.5" fill="#3b82f6"/>
<circle cx="238.22484618729993" cy="96.70666309798884" r="1.5" fill="#3b82f6"/>
<circle cx="238.64292327628527" cy="96.84901222094884" r="1.5" fill="#3b82f6"/>
<circle cx="238.99275535368974" cy="96.96937368671756" r="1.5" fill="#3b82f6"/>
<circle cx="238.41352223520894" cy="96.77070366042615" r="1.5" fill="#3b82f6"/>
<circle cx="238.27792656534615" cy="96.72464631092852" r="1.5" fill="#3b82f6"/>
<circle cx="239.0163141246147" cy="96.97752018264946" r="1.5" fill="#3b82f6"/>
<circle cx="200.88475592681715" cy="90.04511262926552" r="1.5" fill="#3b82f6"/>
<circle cx="201.0146748795403" cy="90.04864293560652" r="1.5" fill="#3b82f6"/>
<circle cx="200.65498326049166" cy="90.03919470708286" r="1.5" fill="#3b82f6"/>
<circle cx="200.3200158688716" cy="90.03131287400302" r="1.5" fill="#3b82f6"/>
<circle cx="200.58847268097747" cy="90.03755934726658" r="1.5" fill="#3b82f6"/>
<circle cx="200.57386429999877" cy="90.03720482651151" r="1.5" fill="#3b82f6"/>
<circle cx="200.6371097007009" cy="90.0387518069952" r="1.5" fill="#3b82f6"/>
<circle cx="201.06777562174153" cy="90.05012415479523" r="1.5" fill="#3b82f6"/>
<circle cx="200.6788718629002" cy="90.0397905890225" r="1.5" fill="#3b82f6"/>
<circle cx="200.67663768182095" cy="90.03973466852538" r="1.5" fill="#3b82f6"/>
<circle cx="200.50047805672125" cy="90.03544931189992" r="1.5" fill="#3b82f6"/>
<circle cx="200.97343115986885" cy="90.04750779926512" r="1.5" fill="#3b82f6"/>
<circle cx="244.89845134691984" cy="99.1764590164017" r="1.5" fill="#3b82f6"/>
<circle cx="245.43974321603707" cy="99.39565900707395" r="1.5" fill="#3b82f6"/>
<circle cx="244.99731978668882" cy="99.21628035640487" r="1.5" fill="#3b82f6"/>
<circle cx="245.52251296545452" cy="99.42943289886388" r="1.5" fill="#3b82f6"/>
<circle cx="245.38226793783355" cy="99.37224639937428" r="1.5" fill="#3b82f6"/>
<circle cx="245.1694622928001" cy="99.28584467144442" r="1.5" fill="#3b82f6"/>
<circle cx="245.39182140829803" cy="99.37613574535274" r="1.5" fill="#3b82f6"/>
<circle cx="245.5840973184313" cy="99.45460627880126" r="1.5" fill="#3b82f6"/>
<circle cx="319.08247894475454" cy="180.3025775612467" r="1.5" fill="#3b82f6"/>
<circle cx="318.99044843238494" cy="179.99904136785085" r="1.5" fill="#3b82f6"/>
<circle cx="318.9053331069899" cy="179.72071495882955" r="1.5" fill="#3b82f6"/>
<circle cx="319.02061008690583" cy="180.09822058347055" r="1.5" fill="#3b82f6"/>
<circle cx="319.0486480545729" cy="180.19067840742545" r="1.5" fill="#3b82f6"/>
<circle cx="319.0974708068251" cy="180.35228392678044" r="1.5" fill="#3b82f6"/>
<circle cx="318.922729674377" cy="179.77741655361405" r="1.5" fill="#3b82f6"/>
<circle cx="318.978722108051" cy="179.9605605469667" r="1.5" fill="#3b82f6"/>
<circle cx="319.03179379263224" cy="180.13506954373702" r="1.5" fill="#3b82f6"/>
<circle cx="118.281969239731" cy="117.73518446868965" r="1.5" fill="#3b82f6"/>
<circle cx="117.9148767949803" cy="118.02925601753903" r="1.5" fill="#3b82f6"/>
<circle cx="118.27444474190082" cy="117.74118984167767" r="1.5" fill="#3b82f6"/>
<circle cx="118.04114311175647" cy="117.92785425754809" r="1.5" fill="#3b82f6"/>
<circle cx="118.29433190294792" cy="117.72531973710706" r="1.5" fill="#3b82f6"/>
<circle cx="117.72933174453402" cy="118.17874476573172" r="1.5" fill="#3b82f6"/>
<circle cx="118.130626383089" cy="117.8561523257283" r="1.5" fill="#3b82f6"/>
<circle cx="118.0498605231207" cy="117.92086326019779" r="1.5" fill="#3b82f6"/>
<circle cx="88.54911854821665" cy="151.74124249666218" r="1.5" fill="#3b82f6"/>
<circle cx="166.00249255858625" cy="93.96786182066863" r="1.5" fill="#3b82f6"/>
<circle cx="119.91894515008198" cy="116.45060950769512" r="1.5" fill="#3b82f6"/>
<circle cx="228.54596553125393" cy="93.85314448094019" r="1.5" fill="#3b82f6"/>
<circle cx="317.57588128166583" cy="175.63839057252125" r="1.5" fill="#3b82f6"/>
<circle cx="317.19426845021786" cy="174.5467068395492" r="1.5" fill="#3b82f6"/>
<circle cx="316.74906390481397" cy="173.3117778134016" r="1.5" fill="#3b82f6"/>
<circle cx="104.43707593571642" cy="130.58071879143296" r="1.5" fill="#3b82f6"/>
<circle cx="203.05517215876992" cy="90.12155398852637" r="1.5" fill="#3b82f6"/>
<circle cx="196.04942198796496" cy="90.00828442992433" r="1.5" fill="#3b82f6"/>
<circle cx="320.65815220302494" cy="185.9988783116394" r="1.5" fill="#3b82f6"/>
<circle cx="111.74895550176268" cy="123.3209822454285" r="1.5" fill="#3b82f6"/>
<circle cx="120.55817150008119" cy="115.9606263524507" r="1.5" fill="#3b82f6"/>
<circle cx="121.70317907856011" cy="115.09886193862614" r="1.5" fill="#3b82f6"/>
<circle cx="124.46618528435476" cy="113.10071266808035" r="1.5" fill="#3b82f6"/>
<circle cx="92.90135619206106" cy="144.97136879309784" r="1.5" fill="#3b82f6"/>
<circle cx="74.34298092763659" cy="185.9943770710938" r="1.5" fill="#3b82f6"/>
<circle cx="74.33958202919824" cy="186.00788091695875" r="1.5" fill="#3b82f6"/>
<circle cx="74.34025329919376" cy="186.00521346107953" r="1.5" fill="#3b82f6"/>
<circle cx="207.22989494999953" cy="90.37326844515819" r="1.5" fill="#3b82f6"/>
<circle cx="286.134362324874" cy="126.04424253922704" r="1.5" fill="#3b82f6"/>
<circle cx="268.27769888374087" cy="111.55087795186483" r="1.5" fill="#3b82f6"/>
<circle cx="172.21868209060457" cy="92.54175413109792" r="1.5" fill="#3b82f6"/>
<circle cx="240.33011289600398" cy="97.44005089782134" r="1.5" fill="#3b82f6"/>
<circle cx="240.29094467443576" cy="97.42602685421305" r="1.5" fill="#3b82f6"/>
<circle cx="303.48763449319983" cy="147.03128317214993" r="1.5" fill="#3b82f6"/>
<circle cx="310.19548156504254" cy="158.4446549423269" r="1.5" fill="#3b82f6"/>
<circle cx="239.60362588009602" cy="97.18228558452256" r="1.5" fill="#3b82f6"/>
<circle cx="216.50851195978728" cy="91.43059101407452" r="1.5" fill="#3b82f6"/>
<circle cx="216.445787936312" cy="91.42111196752738" r="1.5" fill="#3b82f6"/>
<circle cx="216.54573617113485" cy="91.43623160441733" r="1.5" fill="#3b82f6"/>
<circle cx="216.4673764136201" cy="91.42437086765582" r="1.5" fill="#3b82f6"/>
<circle cx="216.97326877297667" cy="91.50182549815551" r="1.5" fill="#3b82f6"/>
<circle cx="216.64040389859335" cy="91.45062748624063" r="1.5" fill="#3b82f6"/>
<circle cx="216.2676191858762" cy="91.39436131250343" r="1.5" fill="#3b82f6"/>
<circle cx="238.13983594123295" cy="96.67791667914958" r="1.5" fill="#3b82f6"/>
<circle cx="238.6126704260204" cy="96.83865708789108" r="1.5" fill="#3b82f6"/>
<circle cx="238.73838155630273" cy="96.88174207633217" r="1.5" fill="#3b82f6"/>
<circle cx="238.49407366378023" cy="96.79814508732173" r="1.5" fill="#3b82f6"/>
<circle cx="238.17143215899512" cy="96.68859320024448" r="1.5" fill="#3b82f6"/>
<circle cx="238.16214902507545" cy="96.68545542345034" r="1.5" fill="#3b82f6"/>
<circle cx="238.355904491103" cy="96.75111198762015" r="1.5" fill="#3b82f6"/>
<circle cx="238.2245205163219" cy="96.70655284382411" r="1.5" fill="#3b82f6"/>
<circle cx="238.9654576753439" cy="96.9599407706983" r="1.5" fill="#3b82f6"/>
<circle cx="238.4525797695897" cy="96.7840018540985" r="1.5" fill="#3b82f6"/>
<circle cx="200.9581365204106" cy="90.0470902586073" r="1.5" fill="#3b82f6"/>
<circle cx="200.2993912492316" cy="90.03085647042535" r="1.5" fill="#3b82f6"/>
<circle cx="201.05179391020144" cy="90.0496760145156" r="1.5" fill="#3b82f6"/>
<circle cx="200.602909158482" cy="90.03791134848872" r="1.5" fill="#3b82f6"/>
<circle cx="200.8785692205256" cy="90.04494783577096" r="1.5" fill="#3b82f6"/>
<circle cx="200.87564771754253" cy="90.04487012142026" r="1.5" fill="#3b82f6"/>
<circle cx="200.72183669134398" cy="90.0408736311788" r="1.5" fill="#3b82f6"/>
<circle cx="200.9067530395435" cy="90.04570100336278" r="1.5" fill="#3b82f6"/>
<circle cx="201.0368432258609" cy="90.04925860793217" r="1.5" fill="#3b82f6"/>
<circle cx="200.71925881199346" cy="90.04080823862574" r="1.5" fill="#3b82f6"/>
<circle cx="200.69468296236371" cy="90.04018745772352" r="1.5" fill="#3b82f6"/>
<circle cx="245.3193663758193" cy="99.34666090834835" r="1.5" fill="#3b82f6"/>
<circle cx="245.26266363399418" cy="99.32363039851232" r="1.5" fill="#3b82f6"/>
<circle cx="245.43815125716972" cy="99.39501008016406" r="1.5" fill="#3b82f6"/>
<circle cx="245.19543422018518" cy="99.29636558479604" r="1.5" fill="#3b82f6"/>
<circle cx="245.6163959802373" cy="99.4678238188665" r="1.5" fill="#3b82f6"/>
<circle cx="245.10428325418255" cy="99.25947080187062" r="1.5" fill="#3b82f6"/>
<circle cx="244.87213395711441" cy="99.16587538259893" r="1.5" fill="#3b82f6"/>
<circle cx="244.88680818724305" cy="99.17177583522088" r="1.5" fill="#3b82f6"/>
<circle cx="318.9336079581964" cy="179.8129208157582" r="1.5" fill="#3b82f6"/>
<circle cx="318.97596415159273" cy="179.95151644883475" r="1.5" fill="#3b82f6"/>
<circle cx="319.0286495047345" cy="180.12470543093391" r="1.5" fill="#3b82f6"/>
<circle cx="318.9669835953224" cy="179.92208344238196" r="1.5" fill="#3b82f6"/>
<circle cx="319.05885791806406" cy="180.22440943158193" r="1.5" fill="#3b82f6"/>
<circle cx="318.93028513953203" cy="179.80207195377747" r="1.5" fill="#3b82f6"/>
<circle cx="118.31220618542832" cy="117.71106148829628" r="1.5" fill="#3b82f6"/>
<circle cx="118.31247499122124" cy="117.71084710309972" r="1.5" fill="#3b82f6"/>
<circle cx="118.35011352992738" cy="117.68084035909982" r="1.5" fill="#3b82f6"/>
<circle cx="117.83010172883613" cy="118.09748582840577" r="1.5" fill="#3b82f6"/>
<circle cx="118.00051468189137" cy="117.96045318078323" r="1.5" fill="#3b82f6"/>
<circle cx="117.75127193601895" cy="118.1610381874779" r="1.5" fill="#3b82f6"/>
<circle cx="117.93993211341777" cy="118.00911356148777" r="1.5" fill="#3b82f6"/>
<circle cx="117.62717439381488" cy="118.26129568561304" r="1.5" fill="#3b82f6"/>
<circle cx="319.89125681972195" cy="183.0974889707434" r="1.5" fill="#3b82f6"/>
<circle cx="103.3056804353917" cy="131.8153173289913" r="1.5" fill="#3b82f6"/>
<circle cx="211.86440640980894" cy="90.814961946775" r="1.5" fill="#3b82f6"/>
<circle cx="72.87935439764898" cy="192.5317616152444" r="1.5" fill="#3b82f6"/>
<circle cx="109.19754768572709" cy="125.72198010865071" r="1.5" fill="#3b82f6"/>
<circle cx="307.18395250285994" cy="152.98101403997126" r="1.5" fill="#3b82f6"/>
<circle cx="306.79676793536754" cy="152.32221000310528" r="1.5" fill="#3b82f6"/>
<circle cx="177.0910678078083" cy="91.65058641232294" r="1.5" fill="#3b82f6"/>
<circle cx="104.43836274477154" cy="130.57933307723044" r="1.5" fill="#3b82f6"/>
<circle cx="116.00197572273238" cy="119.59839817075955" r="1.5" fill="#3b82f6"/>
<circle cx="143.58142013445456" cy="102.01397152139397" r="1.5" fill="#3b82f6"/>
<circle cx="120.66380165739167" cy="115.88027579025271" r="1.5" fill="#3b82f6"/>
<circle cx="319.5173311535691" cy="181.77542195908856" r="1.5" fill="#3b82f6"/>
<circle cx="93.3641883673634" cy="144.30383273093398" r="1.5" fill="#3b82f6"/>
<circle cx="160.66155682768087" cy="95.46017482059713" r="1.5" fill="#3b82f6"/>
<circle cx="298.6224283950644" cy="140.16736061096776" r="1.5" fill="#3b82f6"/>
<circle cx="240.32412466379415" cy="97.43790589497098" r="1.5" fill="#3b82f6"/>
<circle cx="220.06226362189187" cy="92.02022459511198" r="1.5" fill="#3b82f6"/>
<circle cx="239.60476121931268" cy="97.18268454574412" r="1.5" fill="#3b82f6"/>
<rect x="190.50000000000003" y="337.0" width="14" height="14" fill="#dc2626"/>
<polygon points="322.8229532894279,188.42921054466137 314.8229532894279,202.02921054466137 330.8229532894279,202.02921054466137" fill="#f59e0b"/>
<polygon points="72.17704671057209,188.42921054466137 64.17704671057209,202.02921054466137 80.17704671057209,202.02921054466137" fill="#f59e0b"/>
<circle cx="197.5" cy="90.0" r="9" fill="#16a34a"/>
<text x="532.5" y="70" text-anchor="middle" fill="#0f172a" font-weight="600" font-size="13">t=60s (2 chromosome domains)</text>
<circle cx="532.5" cy="217" r="127" fill="none" stroke="#cbd5e1" stroke-width="2"/>
<circle cx="409.60094507492215" cy="249.01284583604985" r="1.5" fill="#3b82f6"/>
<circle cx="405.6770541324644" cy="223.7037602493026" r="1.5" fill="#3b82f6"/>
<circle cx="659.4842461482414" cy="219.00030751706723" r="1.5" fill="#3b82f6"/>
<circle cx="405.6604910333883" cy="223.38270828949888" r="1.5" fill="#3b82f6"/>
<circle cx="613.0378185113491" cy="315.1970457266052" r="1.5" fill="#3b82f6"/>
<circle cx="488.3459265953759" cy="336.0773605761358" r="1.5" fill="#3b82f6"/>
<circle cx="654.2635314879221" cy="253.09213764228707" r="1.5" fill="#3b82f6"/>
<circle cx="646.4977037574648" cy="272.97788436539287" r="1.5" fill="#3b82f6"/>
<circle cx="416.44029116183697" cy="268.566888449865" r="1.5" fill="#3b82f6"/>
<circle cx="418.7958050543726" cy="273.5716894901218" r="1.5" fill="#3b82f6"/>
<circle cx="505.6139359643744" cy="341.12147098980194" r="1.5" fill="#3b82f6"/>
<circle cx="627.4163136271754" cy="301.3794608149854" r="1.5" fill="#3b82f6"/>
<circle cx="499.41169737612665" cy="339.6138826947054" r="1.5" fill="#3b82f6"/>
<circle cx="578.2730983295107" cy="335.4644396826193" r="1.5" fill="#3b82f6"/>
<circle cx="580.5021410793358" cy="99.42111392005987" r="1.5" fill="#3b82f6"/>
<circle cx="509.18192288592587" cy="341.8409679540418" r="1.5" fill="#3b82f6"/>
<circle cx="646.9412081548112" cy="272.0655053192757" r="1.5" fill="#3b82f6"/>
<circle cx="461.33723025532095" cy="322.1896392344122" r="1.5" fill="#3b82f6"/>
<circle cx="657.8244287893755" cy="237.56179828265925" r="1.5" fill="#3b82f6"/>
<circle cx="453.4944550166334" cy="316.4340176291858" r="1.5" fill="#3b82f6"/>
<circle cx="412.36896450635055" cy="258.2011445377861" r="1.5" fill="#3b82f6"/>
<circle cx="646.356706429564" cy="273.26411290522645" r="1.5" fill="#3b82f6"/>
<circle cx="646.5784363422795" cy="272.81317372897263" r="1.5" fill="#3b82f6"/>
<circle cx="655.6809476358329" cy="247.91042121256518" r="1.5" fill="#3b82f6"/>
<circle cx="629.5887930329254" cy="298.87042364254484" r="1.5" fill="#3b82f6"/>
<circle cx="405.6597574754588" cy="223.36811403129408" r="1.5" fill="#3b82f6"/>
<circle cx="651.6375566970058" cy="260.99139216105476" r="1.5" fill="#3b82f6"/>
<circle cx="489.1161998587892" cy="336.3601519993481" r="1.5" fill="#3b82f6"/>
<circle cx="622.9054697866919" cy="306.1955774276255" r="1.5" fill="#3b82f6"/>
<circle cx="604.405539474594" cy="321.6833004488663" r="1.5" fill="#3b82f6"/>
<circle cx="580.1230894631051" cy="99.26707618516775" r="1.5" fill="#3b82f6"/>
<circle cx="630.0551043781268" cy="298.314215299496" r="1.5" fill="#3b82f6"/>
<circle cx="646.5711824197214" cy="272.82799782695633" r="1.5" fill="#3b82f6"/>
<circle cx="454.85471755785494" cy="317.4998015643788" r="1.5" fill="#3b82f6"/>
<circle cx="652.1824255906374" cy="259.48666855310677" r="1.5" fill="#3b82f6"/>
<circle cx="435.91282996544385" cy="299.46161885820425" r="1.5" fill="#3b82f6"/>
<circle cx="613.09575965374" cy="315.1494958002158" r="1.5" fill="#3b82f6"/>
<circle cx="585.4114935182054" cy="332.452907515025" r="1.5" fill="#3b82f6"/>
<circle cx="633.5365614619467" cy="140.05447870118576" r="1.5" fill="#3b82f6"/>
<circle cx="640.4921017621591" cy="150.16658053794143" r="1.5" fill="#3b82f6"/>
<circle cx="583.9854956217158" cy="333.0958386015032" r="1.5" fill="#3b82f6"/>
<circle cx="406.2767633920354" cy="231.02478307175465" r="1.5" fill="#3b82f6"/>
<circle cx="467.29316344983727" cy="325.9819639533091" r="1.5" fill="#3b82f6"/>
<circle cx="584.5912456076665" cy="332.8253086809691" r="1.5" fill="#3b82f6"/>
<circle cx="654.0277509744245" cy="180.1217443051021" r="1.5" fill="#3b82f6"/>
<circle cx="453.1224400664066" cy="117.86270641686455" r="1.5" fill="#3b82f6"/>
<circle cx="594.8492329274834" cy="327.6416429440309" r="1.5" fill="#3b82f6"/>
<circle cx="411.794496337026" cy="177.51352908314348" r="1.5" fill="#3b82f6"/>
<circle cx="654.0658748786909" cy="180.24761143845922" r="1.5" fill="#3b82f6"/>
<circle cx="517.1320334044134" cy="90.93324941636303" r="1.5" fill="#3b82f6"/>
<circle cx="613.0697161904377" cy="315.1708756861847" r="1.5" fill="#3b82f6"/>
<circle cx="653.9724530513636" cy="179.94000607549611" r="1.5" fill="#3b82f6"/>
<circle cx="409.3442821323844" cy="185.9892090311731" r="1.5" fill="#3b82f6"/>
<circle cx="410.2699922167687" cy="182.5206554976576" r="1.5" fill="#3b82f6"/>
<circle cx="607.5087377253761" cy="114.51737091172116" r="1.5" fill="#3b82f6"/>
<circle cx="607.4275595641715" cy="319.54199538607355" r="1.5" fill="#3b82f6"/>
<circle cx="640.5936641563056" cy="150.33096843913364" r="1.5" fill="#3b82f6"/>
<circle cx="573.5765587738234" cy="96.82630770713321" r="1.5" fill="#3b82f6"/>
<circle cx="640.6246973083904" cy="150.3813101902405" r="1.5" fill="#3b82f6"/>
<circle cx="453.2593971120525" cy="117.75320229874113" r="1.5" fill="#3b82f6"/>
<circle cx="640.5228498673137" cy="150.21629011095735" r="1.5" fill="#3b82f6"/>
<circle cx="409.33605880956907" cy="186.02188529881028" r="1.5" fill="#3b82f6"/>
<circle cx="579.8927095725867" cy="99.17414935860445" r="1.5" fill="#3b82f6"/>
<circle cx="428.3671406143789" cy="144.2996038788339" r="1.5" fill="#3b82f6"/>
<circle cx="551.2495961915096" cy="91.39166969243111" r="1.5" fill="#3b82f6"/>
<circle cx="417.64708338241303" cy="162.79845440918115" r="1.5" fill="#3b82f6"/>
<circle cx="551.6108320223829" cy="91.44612272250504" r="1.5" fill="#3b82f6"/>
<circle cx="573.4244262315497" cy="96.77441479610735" r="1.5" fill="#3b82f6"/>
<circle cx="542.2214959056378" cy="90.37262334962212" r="1.5" fill="#3b82f6"/>
<circle cx="535.6733723384742" cy="90.03965300929032" r="1.5" fill="#3b82f6"/>
<circle cx="551.5097018006237" cy="91.4307711361921" r="1.5" fill="#3b82f6"/>
<circle cx="575.6711023932212" cy="97.56275322097378" r="1.5" fill="#3b82f6"/>
<circle cx="551.5097018006237" cy="91.4307711361921" r="1.5" fill="#3b82f6"/>
<circle cx="653.9937536533479" cy="180.00989560409937" r="1.5" fill="#3b82f6"/>
<circle cx="456.3710129851627" cy="115.34677901760945" r="1.5" fill="#3b82f6"/>
<circle cx="644.6256570544946" cy="157.36077607733418" r="1.5" fill="#3b82f6"/>
<circle cx="535.8486666939418" cy="90.04415558402644" r="1.5" fill="#3b82f6"/>
<circle cx="573.1614975679904" cy="96.68523525548368" r="1.5" fill="#3b82f6"/>
<circle cx="651.7994296973611" cy="173.44949972865527" r="1.5" fill="#3b82f6"/>
<circle cx="644.6450265298483" cy="157.39720623477783" r="1.5" fill="#3b82f6"/>
<circle cx="538.1176882510824" cy="90.124306588245" r="1.5" fill="#3b82f6"/>
<circle cx="580.3803572058357" cy="99.3714686232903" r="1.5" fill="#3b82f6"/>
<circle cx="653.9340106582321" cy="179.81423584950298" r="1.5" fill="#3b82f6"/>
<circle cx="535.834059070207" cy="90.04377112517727" r="1.5" fill="#3b82f6"/>
<circle cx="580.3262145510872" cy="99.34944453291615" r="1.5" fill="#3b82f6"/>
<circle cx="573.4797547539616" cy="96.79326266674916" r="1.5" fill="#3b82f6"/>
<circle cx="580.5427242713506" cy="99.43769037405323" r="1.5" fill="#3b82f6"/>
<circle cx="538.925632087862" cy="90.16265828916377" r="1.5" fill="#3b82f6"/>
<circle cx="575.8051050556434" cy="97.61127408285283" r="1.5" fill="#3b82f6"/>
<circle cx="455.5563934729681" cy="115.96198035089316" r="1.5" fill="#3b82f6"/>
<circle cx="654.847143056983" cy="182.93863499807836" r="1.5" fill="#3b82f6"/>
<circle cx="456.0027382620045" cy="115.62362727642791" r="1.5" fill="#3b82f6"/>
<circle cx="452.88312952081947" cy="118.05479326869145" r="1.5" fill="#3b82f6"/>
<circle cx="654.1038684215337" cy="180.37351798331807" r="1.5" fill="#3b82f6"/>
<circle cx="551.2929527415425" cy="91.39814918858022" r="1.5" fill="#3b82f6"/>
<circle cx="580.5156694457426" cy="99.42663784820482" r="1.5" fill="#3b82f6"/>
<circle cx="588.8305301023265" cy="103.17613880037767" r="1.5" fill="#3b82f6"/>
<circle cx="551.451907561575" cy="91.42203537332867" r="1.5" fill="#3b82f6"/>
<circle cx="551.6541697547186" cy="91.45272690732219" r="1.5" fill="#3b82f6"/>
<circle cx="507.7222856017881" cy="92.44051674320158" r="1.5" fill="#3b82f6"/>
<circle cx="654.0277509744245" cy="180.1217443051021" r="1.5" fill="#3b82f6"/>
<circle cx="654.006514713642" cy="180.05183519924844" r="1.5" fill="#3b82f6"/>
<circle cx="551.9285888480437" cy="91.49490075947642" r="1.5" fill="#3b82f6"/>
<circle cx="411.0630198688044" cy="179.82393435803604" r="1.5" fill="#3b82f6"/>
<circle cx="654.0743291554502" cy="180.2755872694708" r="1.5" fill="#3b82f6"/>
<circle cx="455.11440776032737" cy="116.3000987402911" r="1.5" fill="#3b82f6"/>
<circle cx="644.6137066454999" cy="157.3383139510222" r="1.5" fill="#3b82f6"/>
<circle cx="535.8924892983764" cy="90.04531904510019" r="1.5" fill="#3b82f6"/>
<circle cx="579.8791521588545" cy="99.16869711019862" r="1.5" fill="#3b82f6"/>
<circle cx="633.490714233854" cy="139.99431424540109" r="1.5" fill="#3b82f6"/>
<circle cx="452.9628481236349" cy="117.99070007622501" r="1.5" fill="#3b82f6"/>
<circle cx="459.56368339399063" cy="113.03224673030604" r="1.5" fill="#3b82f6"/>
<circle cx="573.9839813338892" cy="96.96634100099453" r="1.5" fill="#3b82f6"/>
<circle cx="512.878948332152" cy="91.52484576041502" r="1.5" fill="#3b82f6"/>
<circle cx="453.0996285973031" cy="117.88097548344317" r="1.5" fill="#3b82f6"/>
<circle cx="633.622324390253" cy="140.16722372637804" r="1.5" fill="#3b82f6"/>
<circle cx="535.2935475935475" cy="90.03072776516916" r="1.5" fill="#3b82f6"/>
<circle cx="538.193255331715" cy="90.1276750282872" r="1.5" fill="#3b82f6"/>
<circle cx="455.90602708026597" cy="115.69667669631443" r="1.5" fill="#3b82f6"/>
<circle cx="579.9062663588908" cy="99.17960316689685" r="1.5" fill="#3b82f6"/>
<circle cx="455.0217479180234" cy="116.37137358424452" r="1.5" fill="#3b82f6"/>
<circle cx="455.90890683132153" cy="115.6944994226532" r="1.5" fill="#3b82f6"/>
<circle cx="580.0688987898258" cy="99.24517051125538" r="1.5" fill="#3b82f6"/>
<circle cx="653.9639215530295" cy="179.9120536971986" r="1.5" fill="#3b82f6"/>
<circle cx="653.9340106582321" cy="179.81423584950298" r="1.5" fill="#3b82f6"/>
<circle cx="415.28155106651263" cy="168.12428793738738" r="1.5" fill="#3b82f6"/>
<circle cx="644.4780624445325" cy="157.0841128650473" r="1.5" fill="#3b82f6"/>
<circle cx="653.9852382374964" cy="179.98193832223598" r="1.5" fill="#3b82f6"/>
<circle cx="409.3422674558158" cy="185.9972111806826" r="1.5" fill="#3b82f6"/>
<circle cx="453.29365998750893" cy="117.72585582425978" r="1.5" fill="#3b82f6"/>
<circle cx="455.01520970284093" cy="116.37640797206011" r="1.5" fill="#3b82f6"/>
<circle cx="551.5241497316945" cy="91.43295923298156" r="1.5" fill="#3b82f6"/>
<circle cx="485.33833050641255" cy="99.08148181656274" r="1.5" fill="#3b82f6"/>
<circle cx="580.0417996739046" cy="99.2342270276872" r="1.5" fill="#3b82f6"/>
<circle cx="580.6461457197439" cy="99.48000743561468" r="1.5" fill="#3b82f6"/>
<circle cx="535.3958107026789" cy="90.03301893651937" r="1.5" fill="#3b82f6"/>
<circle cx="453.15666515123075" cy="117.8353126608263" r="1.5" fill="#3b82f6"/>
<circle cx="571.3012213456169" cy="96.07247946770576" r="1.5" fill="#3b82f6"/>
<circle cx="580.1095427400539" cy="99.26159742852388" r="1.5" fill="#3b82f6"/>
<circle cx="453.2251436781333" cy="117.78056059850273" r="1.5" fill="#3b82f6"/>
<circle cx="438.24908379630097" cy="131.87794178496796" r="1.5" fill="#3b82f6"/>
<circle cx="612.0623458534858" cy="118.01094443176903" r="1.5" fill="#3b82f6"/>
<circle cx="452.6549784079017" cy="118.23881062402423" r="1.5" fill="#3b82f6"/>
<circle cx="453.2251436781333" cy="117.78056059850273" r="1.5" fill="#3b82f6"/>
<circle cx="653.9553836224928" cy="179.88410328291786" r="1.5" fill="#3b82f6"/>
<circle cx="452.9514565916407" cy="117.99985231521937" r="1.5" fill="#3b82f6"/>
<circle cx="637.303265904096" cy="145.26942453991217" r="1.5" fill="#3b82f6"/>
<circle cx="452.84898021292827" cy="118.08228143108282" r="1.5" fill="#3b82f6"/>
<circle cx="459.4038933212206" cy="113.1445274027194" r="1.5" fill="#3b82f6"/>
<circle cx="453.1110338063429" cy="117.87184029397918" r="1.5" fill="#3b82f6"/>
<circle cx="453.2708170216798" cy="117.7440854931664" r="1.5" fill="#3b82f6"/>
<circle cx="654.0827769941601" cy="180.3035650452481" r="1.5" fill="#3b82f6"/>
<circle cx="642.1415519903508" cy="152.90842428877863" r="1.5" fill="#3b82f6"/>
<circle cx="588.7257332194863" cy="103.12433568171312" r="1.5" fill="#3b82f6"/>
<circle cx="645.2201225598768" cy="158.4921033527409" r="1.5" fill="#3b82f6"/>
<circle cx="513.4928478604013" cy="91.43038517403127" r="1.5" fill="#3b82f6"/>
<circle cx="542.2626336731262" cy="90.3757883192778" r="1.5" fill="#3b82f6"/>
<circle cx="455.45344535081676" cy="116.04046148733433" r="1.5" fill="#3b82f6"/>
<circle cx="536.0677756217416" cy="90.05012415479523" r="1.5" fill="#3b82f6"/>
<circle cx="637.3129747734279" cy="145.28361192067212" r="1.5" fill="#3b82f6"/>
<circle cx="535.7756281358083" cy="90.04225009745997" r="1.5" fill="#3b82f6"/>
<circle cx="538.1259320299309" cy="90.12467186724363" r="1.5" fill="#3b82f6"/>
<circle cx="654.0192612964051" cy="180.09377919678045" r="1.5" fill="#3b82f6"/>
<circle cx="551.495253617885" cy="91.42858470180316" r="1.5" fill="#3b82f6"/>
<circle cx="551.2929527415425" cy="91.39814918858022" r="1.5" fill="#3b82f6"/>
<circle cx="551.6830603086922" cy="91.45713800779801" r="1.5" fill="#3b82f6"/>
<circle cx="535.454245925872" cy="90.03436515730145" r="1.5" fill="#3b82f6"/>
<circle cx="552.116295859466" cy="91.52410216797055" r="1.5" fill="#3b82f6"/>
<circle cx="580.0553495466559" cy="99.2396979899619" r="1.5" fill="#3b82f6"/>
<circle cx="532.5720319235102" cy="90.00002042755285" r="1.5" fill="#3b82f6"/>
<circle cx="575.4149076692735" cy="97.47046097412684" r="1.5" fill="#3b82f6"/>
<circle cx="573.9635077591009" cy="96.95926722853206" r="1.5" fill="#3b82f6"/>
<circle cx="637.2842309497037" cy="145.24162108659954" r="1.5" fill="#3b82f6"/>
<circle cx="453.0768213328991" cy="117.8992497989356" r="1.5" fill="#3b82f6"/>
<circle cx="633.6019358701649" cy="140.1403970651352" r="1.5" fill="#3b82f6"/>
<circle cx="651.7837996738456" cy="173.40670767916396" r="1.5" fill="#3b82f6"/>
<circle cx="580.0417996739046" cy="99.2342270276872" r="1.5" fill="#3b82f6"/>
<circle cx="453.21372796565174" cy="117.78968265903328" r="1.5" fill="#3b82f6"/>
<circle cx="495.66879589299674" cy="95.45798091183336" r="1.5" fill="#3b82f6"/>
<circle cx="554.9593950232211" cy="92.00169771076526" r="1.5" fill="#3b82f6"/>
<circle cx="456.60789656573286" cy="115.16980488910718" r="1.5" fill="#3b82f6"/>
<circle cx="639.1735761649812" cy="148.08158338895225" r="1.5" fill="#3b82f6"/>
<rect x="525.5" y="337.0" width="14" height="14" fill="#dc2626"/>
<polygon points="659.0644452481667,198.49089922858215 651.0644452481667,212.09089922858215 667.0644452481667,212.09089922858215" fill="#f59e0b"/>
<polygon points="405.9355547518333,198.49089922858215 397.9355547518333,212.09089922858215 413.9355547518333,212.09089922858215" fill="#f59e0b"/>
<circle cx="532.5" cy="90.0" r="9" fill="#16a34a"/>
<text x="867.5" y="70" text-anchor="middle" fill="#0f172a" font-weight="600" font-size="13">t=300s (2 chromosome domains)</text>
<circle cx="867.5" cy="217" r="127" fill="none" stroke="#cbd5e1" stroke-width="2"/>
<circle cx="740.6686709968247" cy="223.54323951023673" r="1.5" fill="#3b82f6"/>
<circle cx="740.6656729564422" cy="223.48486572010896" r="1.5" fill="#3b82f6"/>
<circle cx="740.6755148146034" cy="223.67457545160184" r="1.5" fill="#3b82f6"/>
<circle cx="740.6419643009667" cy="223.003230678793" r="1.5" fill="#3b82f6"/>
<circle cx="740.6612262705355" cy="223.39730246320357" r="1.5" fill="#3b82f6"/>
<circle cx="740.6604910333883" cy="223.38270828949888" r="1.5" fill="#3b82f6"/>
<circle cx="740.6582953972913" cy="223.33892526215683" r="1.5" fill="#3b82f6"/>
<circle cx="740.642655875357" cy="223.01782698670448" r="1.5" fill="#3b82f6"/>
<circle cx="740.6604910333883" cy="223.38270828949888" r="1.5" fill="#3b82f6"/>
<circle cx="740.6503740355677" cy="223.17838107303172" r="1.5" fill="#3b82f6"/>
<circle cx="935.5118702091632" cy="324.2538368108663" r="1.5" fill="#3b82f6"/>
<circle cx="826.16781174466" cy="337.0860117333619" r="1.5" fill="#3b82f6"/>
<circle cx="740.6503740355677" cy="223.17838107303172" r="1.5" fill="#3b82f6"/>
<circle cx="740.820168213064" cy="207.98777394682048" r="1.5" fill="#3b82f6"/>
<circle cx="788.9625189745153" cy="316.8041285427193" r="1.5" fill="#3b82f6"/>
<circle cx="961.9594214662538" cy="301.8906219570845" r="1.5" fill="#3b82f6"/>
<circle cx="747.3796767962917" cy="258.23236536310594" r="1.5" fill="#3b82f6"/>
<circle cx="740.6762836340297" cy="223.6891678947309" r="1.5" fill="#3b82f6"/>
<circle cx="740.6503740355677" cy="223.17838107303172" r="1.5" fill="#3b82f6"/>
<circle cx="740.8496689676883" cy="207.582269413182" r="1.5" fill="#3b82f6"/>
<circle cx="747.387939724349" cy="258.2564295151482" r="1.5" fill="#3b82f6"/>
<circle cx="915.0688987898258" cy="99.24517051125538" r="1.5" fill="#3b82f6"/>
<circle cx="754.2015640925657" cy="274.380000182372" r="1.5" fill="#3b82f6"/>
<circle cx="919.5761935913513" cy="332.83207699526116" r="1.5" fill="#3b82f6"/>
<circle cx="938.4444750133944" cy="322.33699001335606" r="1.5" fill="#3b82f6"/>
<circle cx="981.0623223941008" cy="273.85594896278064" r="1.5" fill="#3b82f6"/>
<circle cx="968.5517664868249" cy="293.9255516060314" r="1.5" fill="#3b82f6"/>
<circle cx="992.2144389428961" cy="240.9855939921993" r="1.5" fill="#3b82f6"/>
<circle cx="886.6397240972655" cy="91.45052385023443" r="1.5" fill="#3b82f6"/>
<circle cx="908.8529946451241" cy="96.92115159662659" r="1.5" fill="#3b82f6"/>
<circle cx="987.1676952819662" cy="259.52814016510115" r="1.5" fill="#3b82f6"/>
<circle cx="794.1440419287889" cy="320.6720956451383" r="1.5" fill="#3b82f6"/>
<circle cx="993.1408043058093" cy="235.5307391484887" r="1.5" fill="#3b82f6"/>
<circle cx="915.5562507301938" cy="99.44321897161038" r="1.5" fill="#3b82f6"/>
<circle cx="787.6442838071222" cy="118.24745779817839" r="1.5" fill="#3b82f6"/>
<circle cx="794.1507782128" cy="320.676861754261" r="1.5" fill="#3b82f6"/>
<circle cx="843.3169167119495" cy="341.6762947904822" r="1.5" fill="#3b82f6"/>
<circle cx="787.7579618006322" cy="118.15564080934831" r="1.5" fill="#3b82f6"/>
<circle cx="972.5044278781475" cy="145.5642237671983" r="1.5" fill="#3b82f6"/>
<circle cx="915.272061765663" cy="99.32744536359516" r="1.5" fill="#3b82f6"/>
<circle cx="871.023954665499" cy="90.04890018784592" r="1.5" fill="#3b82f6"/>
<circle cx="870.5418975834632" cy="90.03643491500516" r="1.5" fill="#3b82f6"/>
<circle cx="987.1704583095222" cy="259.52036462671634" r="1.5" fill="#3b82f6"/>
<circle cx="747.5548317140435" cy="258.73914954636206" r="1.5" fill="#3b82f6"/>
<circle cx="915.6238734776383" cy="99.47088530279714" r="1.5" fill="#3b82f6"/>
<circle cx="915.6373961165195" cy="99.47642323720194" r="1.5" fill="#3b82f6"/>
<circle cx="870.7318044789919" cy="90.04112697487597" r="1.5" fill="#3b82f6"/>
<circle cx="778.8486483143132" cy="307.93919861259326" r="1.5" fill="#3b82f6"/>
<circle cx="886.9574696896633" cy="91.49937500842542" r="1.5" fill="#3b82f6"/>
<circle cx="975.6427290610986" cy="150.41058529152093" r="1.5" fill="#3b82f6"/>
<circle cx="915.3532871455128" cy="99.36045346326304" r="1.5" fill="#3b82f6"/>
<circle cx="794.1937293017278" cy="113.29276459035447" r="1.5" fill="#3b82f6"/>
<circle cx="948.1154213667426" cy="315.1333472264273" r="1.5" fill="#3b82f6"/>
<circle cx="788.0540182744023" cy="117.91752936237415" r="1.5" fill="#3b82f6"/>
<circle cx="870.4834633035761" cy="90.03504835303478" r="1.5" fill="#3b82f6"/>
<circle cx="908.9911305519335" cy="96.96881202986278" r="1.5" fill="#3b82f6"/>
<circle cx="910.289326054059" cy="97.42544762434011" r="1.5" fill="#3b82f6"/>
<circle cx="984.2987290297694" cy="167.1295989886736" r="1.5" fill="#3b82f6"/>
<circle cx="915.1637258486724" cy="99.28352180674702" r="1.5" fill="#3b82f6"/>
<circle cx="881.4668592300178" cy="90.77034087327628" r="1.5" fill="#3b82f6"/>
<circle cx="987.1870258647452" cy="259.4737076277996" r="1.5" fill="#3b82f6"/>
<circle cx="870.7902359349401" cy="90.04262783322731" r="1.5" fill="#3b82f6"/>
<circle cx="886.6686151585913" cy="91.45493162651977" r="1.5" fill="#3b82f6"/>
<circle cx="987.1842658687084" cy="259.48148424276536" r="1.5" fill="#3b82f6"/>
<circle cx="908.1476538231409" cy="96.68055752009944" r="1.5" fill="#3b82f6"/>
<circle cx="787.9172883150803" cy="118.02731689564568" r="1.5" fill="#3b82f6"/>
<circle cx="870.2497199881556" cy="90.02977104853777" r="1.5" fill="#3b82f6"/>
<circle cx="870.9947404610816" cy="90.04809261334559" r="1.5" fill="#3b82f6"/>
<circle cx="789.9389547038543" cy="116.43517387988364" r="1.5" fill="#3b82f6"/>
<circle cx="988.9852382374964" cy="179.98193832223598" r="1.5" fill="#3b82f6"/>
<circle cx="915.0417996739046" cy="99.2342270276872" r="1.5" fill="#3b82f6"/>
<circle cx="788.3165071477624" cy="117.70763141248148" r="1.5" fill="#3b82f6"/>
<circle cx="802.3433284266765" cy="326.0119633319484" r="1.5" fill="#3b82f6"/>
<circle cx="914.9469329514396" cy="99.19597395037131" r="1.5" fill="#3b82f6"/>
<circle cx="915.312677304034" cy="99.34394240405504" r="1.5" fill="#3b82f6"/>
<circle cx="914.9062663588908" cy="99.17960316689685" r="1.5" fill="#3b82f6"/>
<circle cx="979.5577707091807" cy="157.233320121587" r="1.5" fill="#3b82f6"/>
<circle cx="886.2495961915096" cy="91.39166969243111" r="1.5" fill="#3b82f6"/>
<circle cx="791.1862004171979" cy="115.48544935214497" r="1.5" fill="#3b82f6"/>
<circle cx="908.1476538231409" cy="96.68055752009944" r="1.5" fill="#3b82f6"/>
<circle cx="790.8699668687987" cy="115.72395138873662" r="1.5" fill="#3b82f6"/>
<circle cx="989.0107651832527" cy="180.06581604285228" r="1.5" fill="#3b82f6"/>
<circle cx="870.8486666939418" cy="90.04415558402644" r="1.5" fill="#3b82f6"/>
<circle cx="870.220501402222" cy="90.02914164218426" r="1.5" fill="#3b82f6"/>
<circle cx="908.6456881916844" cy="96.84995903774029" r="1.5" fill="#3b82f6"/>
<circle cx="988.8653471215614" cy="179.59074288277156" r="1.5" fill="#3b82f6"/>
<circle cx="886.394109308083" cy="91.41332621072324" r="1.5" fill="#3b82f6"/>
<circle cx="870.8924892983764" cy="90.04531904510019" r="1.5" fill="#3b82f6"/>
<circle cx="791.5990749157921" cy="115.17638009105418" r="1.5" fill="#3b82f6"/>
<circle cx="914.9604872262365" cy="99.20143399748775" r="1.5" fill="#3b82f6"/>
<circle cx="972.4665069948808" cy="145.50851512736887" r="1.5" fill="#3b82f6"/>
<circle cx="773.6592217497919" cy="131.4260066527495" r="1.5" fill="#3b82f6"/>
<circle cx="915.583301739063" cy="99.45428083562457" r="1.5" fill="#3b82f6"/>
<circle cx="915.4480212605368" cy="99.39903377438132" r="1.5" fill="#3b82f6"/>
<circle cx="790.5647367296675" cy="115.95562724463755" r="1.5" fill="#3b82f6"/>
<circle cx="989.0954366799037" cy="180.3455353521087" r="1.5" fill="#3b82f6"/>
<circle cx="788.076821332899" cy="117.8992497989356" r="1.5" fill="#3b82f6"/>
<circle cx="989.0150140441925" cy="180.07979737542462" r="1.5" fill="#3b82f6"/>
<circle cx="915.4074247306224" cy="99.38249001241462" r="1.5" fill="#3b82f6"/>
<circle cx="788.0540182744023" cy="117.91752936237415" r="1.5" fill="#3b82f6"/>
<circle cx="979.3356511662835" cy="156.81871446858784" r="1.5" fill="#3b82f6"/>
<circle cx="923.8539487643195" cy="103.18773151075297" r="1.5" fill="#3b82f6"/>
<circle cx="886.9863495008996" cy="91.50385590334344" r="1.5" fill="#3b82f6"/>
<circle cx="915.136635555678" cy="99.27255650046794" r="1.5" fill="#3b82f6"/>
<circle cx="744.3382396625268" cy="186.01321587233005" r="1.5" fill="#3b82f6"/>
<circle cx="788.2365604401281" cy="117.77143985153002" r="1.5" fill="#3b82f6"/>
<circle cx="989.0404734245951" cy="180.16369562883278" r="1.5" fill="#3b82f6"/>
<circle cx="887.0152282802234" cy="91.50834344399318" r="1.5" fill="#3b82f6"/>
<circle cx="942.4937545266981" cy="114.50640614170393" r="1.5" fill="#3b82f6"/>
<circle cx="886.451907561575" cy="91.42203537332867" r="1.5" fill="#3b82f6"/>
<circle cx="976.6551115645437" cy="152.08342569626768" r="1.5" fill="#3b82f6"/>
<circle cx="789.9857917830885" cy="116.39906797397305" r="1.5" fill="#3b82f6"/>
<circle cx="908.2445487260763" cy="96.7133351151991" r="1.5" fill="#3b82f6"/>
<circle cx="787.7011095982423" cy="118.20153295395593" r="1.5" fill="#3b82f6"/>
<circle cx="989.0192612964051" cy="180.09377919678045" r="1.5" fill="#3b82f6"/>
<circle cx="988.8653471215614" cy="179.59074288277156" r="1.5" fill="#3b82f6"/>
<circle cx="765.4152981006202" cy="141.45058810212504" r="1.5" fill="#3b82f6"/>
<circle cx="788.3279323004202" cy="117.69852117831702" r="1.5" fill="#3b82f6"/>
<circle cx="773.6592217497919" cy="131.4260066527495" r="1.5" fill="#3b82f6"/>
<circle cx="740.5521533671044" cy="220.6392630120422" r="1.5" fill="#3b82f6"/>
<circle cx="989.0827769941601" cy="180.3035650452481" r="1.5" fill="#3b82f6"/>
<circle cx="830.3068388414181" cy="95.56825471470917" r="1.5" fill="#3b82f6"/>
<circle cx="787.8148403954756" cy="118.10978137954459" r="1.5" fill="#3b82f6"/>
<circle cx="979.4598897077951" cy="157.05016182992358" r="1.5" fill="#3b82f6"/>
<circle cx="788.0084247799603" cy="117.95410422921721" r="1.5" fill="#3b82f6"/>
<circle cx="882.4342533356265" cy="90.8811351252029" r="1.5" fill="#3b82f6"/>
<circle cx="750.316778975105" cy="168.03988653780925" r="1.5" fill="#3b82f6"/>
<circle cx="968.5207273800589" cy="140.03369152932038" r="1.5" fill="#3b82f6"/>
<circle cx="785.9336985238963" cy="119.65556788645098" r="1.5" fill="#3b82f6"/>
<circle cx="968.6227404083869" cy="140.16777126558156" r="1.5" fill="#3b82f6"/>
<circle cx="908.4105927460013" cy="96.76970680743213" r="1.5" fill="#3b82f6"/>
<circle cx="914.9740408727081" cy="99.20689560412953" r="1.5" fill="#3b82f6"/>
<circle cx="870.3373748660875" cy="90.03169961022044" r="1.5" fill="#3b82f6"/>
<circle cx="791.0192066806752" cy="115.61120252588688" r="1.5" fill="#3b82f6"/>
<circle cx="908.2168671624145" cy="96.70396212477198" r="1.5" fill="#3b82f6"/>
<circle cx="979.3965293236118" cy="156.93198250874192" r="1.5" fill="#3b82f6"/>
<circle cx="887.0441060261052" cy="91.51283763013701" r="1.5" fill="#3b82f6"/>
<circle cx="788.2365604401281" cy="117.77143985153002" r="1.5" fill="#3b82f6"/>
<circle cx="871.0093475865203" cy="90.04849556024558" r="1.5" fill="#3b82f6"/>
<circle cx="988.8825515767282" cy="179.64660426784596" r="1.5" fill="#3b82f6"/>
<circle cx="989.0912183943732" cy="180.33154476430948" r="1.5" fill="#3b82f6"/>
<circle cx="994.4979941342875" cy="217.71378278732098" r="1.5" fill="#3b82f6"/>
<circle cx="870.7464124076408" cy="90.04149966827934" r="1.5" fill="#3b82f6"/>
<circle cx="773.6365209073749" cy="131.45090711978094" r="1.5" fill="#3b82f6"/>
<circle cx="973.4492596605215" cy="146.97318815348382" r="1.5" fill="#3b82f6"/>
<circle cx="774.4032753455334" cy="130.6171321464121" r="1.5" fill="#3b82f6"/>
<circle cx="740.500286075234" cy="216.73043919495558" r="1.5" fill="#3b82f6"/>
<circle cx="968.6127551549384" cy="140.1546309464424" r="1.5" fill="#3b82f6"/>
<circle cx="830.6687958929967" cy="95.45798091183336" r="1.5" fill="#3b82f6"/>
<circle cx="956.1299298090087" cy="126.0399233616737" r="1.5" fill="#3b82f6"/>
<circle cx="992.8232038914914" cy="237.56926265989284" r="1.5" fill="#3b82f6"/>
<circle cx="908.1338095401604" cy="96.6758813776142" r="1.5" fill="#3b82f6"/>
<circle cx="740.8292098591246" cy="207.86156878417765" r="1.5" fill="#3b82f6"/>
<rect x="860.5" y="337.0" width="14" height="14" fill="#dc2626"/>
<polygon points="991.1175335907869,238.1153806248632 983.1175335907869,251.7153806248632 999.1175335907869,251.7153806248632" fill="#f59e0b"/>
<polygon points="743.8824664092131,238.1153806248632 735.8824664092131,251.7153806248632 751.8824664092131,251.7153806248632" fill="#f59e0b"/>
<circle cx="867.5" cy="90.0" r="9" fill="#16a34a"/>
<text x="1202.5" y="70" text-anchor="middle" fill="#0f172a" font-weight="600" font-size="13">t=600s (2 chromosome domains)</text>
<circle cx="1202.5" cy="217" r="127" fill="none" stroke="#cbd5e1" stroke-width="2"/>
<circle cx="1075.6682815017084" cy="210.4643146671417" r="1.5" fill="#3b82f6"/>
<circle cx="1296.6959338944932" cy="302.18289756602707" r="1.5" fill="#3b82f6"/>
<circle cx="1075.6582953972913" cy="223.33892526215683" r="1.5" fill="#3b82f6"/>
<circle cx="1291.5850038301448" cy="307.5144303002735" r="1.5" fill="#3b82f6"/>
<circle cx="1158.584414055032" cy="336.1655206471659" r="1.5" fill="#3b82f6"/>
<circle cx="1075.6475439202786" cy="223.1199989005176" r="1.5" fill="#3b82f6"/>
<circle cx="1075.6671686183752" cy="223.51405278765083" r="1.5" fill="#3b82f6"/>
<circle cx="1075.6686709968249" cy="223.54323951023673" r="1.5" fill="#3b82f6"/>
<circle cx="1075.6454389673638" cy="223.0762114197231" r="1.5" fill="#3b82f6"/>
<circle cx="1169.9027540241834" cy="339.7453443304149" r="1.5" fill="#3b82f6"/>
<circle cx="1075.6461389389308" cy="223.09080732735467" r="1.5" fill="#3b82f6"/>
<circle cx="1075.651799169359" cy="223.2075716692913" r="1.5" fill="#3b82f6"/>
<circle cx="1276.9005000822199" cy="319.9250483969554" r="1.5" fill="#3b82f6"/>
<circle cx="1129.4096573881702" cy="320.85952925411004" r="1.5" fill="#3b82f6"/>
<circle cx="1075.6590255967565" cy="223.35351968878234" r="1.5" fill="#3b82f6"/>
<circle cx="1303.4785170085831" cy="294.02167943343795" r="1.5" fill="#3b82f6"/>
<circle cx="1075.8250173856698" cy="207.91986896244796" r="1.5" fill="#3b82f6"/>
<circle cx="1105.7538336123623" cy="299.2750222685811" r="1.5" fill="#3b82f6"/>
<circle cx="1293.39970855854" cy="305.69184282656727" r="1.5" fill="#3b82f6"/>
<circle cx="1075.6786001663188" cy="223.73294469200135" r="1.5" fill="#3b82f6"/>
<circle cx="1328.0384442435204" cy="236.2119498468142" r="1.5" fill="#3b82f6"/>
<circle cx="1085.7671922057127" cy="267.02450983729847" r="1.5" fill="#3b82f6"/>
<circle cx="1075.8508427968638" cy="207.5664969531304" r="1.5" fill="#3b82f6"/>
<circle cx="1167.3735437831856" cy="339.0456147251847" r="1.5" fill="#3b82f6"/>
<circle cx="1092.4353211865205" cy="280.36218491881107" r="1.5" fill="#3b82f6"/>
<circle cx="1169.2406077522237" cy="339.56758473311186" r="1.5" fill="#3b82f6"/>
<circle cx="1075.6568400361107" cy="223.30973615733765" r="1.5" fill="#3b82f6"/>
<circle cx="1272.525234235101" cy="322.95030236067873" r="1.5" fill="#3b82f6"/>
<circle cx="1249.989188322048" cy="334.7869984018315" r="1.5" fill="#3b82f6"/>
<circle cx="1075.8213893162044" cy="207.97062597832118" r="1.5" fill="#3b82f6"/>
<circle cx="1101.288923010427" cy="293.7158255812367" r="1.5" fill="#3b82f6"/>
<circle cx="1321.1061909461712" cy="262.40453137342536" r="1.5" fill="#3b82f6"/>
<circle cx="1317.9519763878493" cy="269.9135251910086" r="1.5" fill="#3b82f6"/>
<circle cx="1299.445237738826" cy="299.0403612849341" r="1.5" fill="#3b82f6"/>
<circle cx="1269.3534454950354" cy="324.97970561842783" r="1.5" fill="#3b82f6"/>
<circle cx="1101.2939078605546" cy="293.72240164294976" r="1.5" fill="#3b82f6"/>
<circle cx="1296.2241587735875" cy="302.70170396312636" r="1.5" fill="#3b82f6"/>
<circle cx="1123.0654192778368" cy="117.9083889247221" r="1.5" fill="#3b82f6"/>
<circle cx="1221.6686151585914" cy="91.45493162651977" r="1.5" fill="#3b82f6"/>
<circle cx="1137.2630710929507" cy="325.9639532449911" r="1.5" fill="#3b82f6"/>
<circle cx="1250.2178988610337" cy="99.30547111998723" r="1.5" fill="#3b82f6"/>
<circle cx="1314.6211358073479" cy="157.3522766128475" r="1.5" fill="#3b82f6"/>
<circle cx="1314.2664955477107" cy="156.69037827192454" r="1.5" fill="#3b82f6"/>
<circle cx="1255.4574365739845" cy="332.4318409777493" r="1.5" fill="#3b82f6"/>
<circle cx="1310.49318737887" cy="150.16833475251246" r="1.5" fill="#3b82f6"/>
<circle cx="1207.7855133119665" cy="90.11003448251307" r="1.5" fill="#3b82f6"/>
<circle cx="1243.6180380574317" cy="96.84049373308993" r="1.5" fill="#3b82f6"/>
<circle cx="1243.6180380574317" cy="96.84049373308993" r="1.5" fill="#3b82f6"/>
<circle cx="1122.871745363947" cy="118.06395467972298" r="1.5" fill="#3b82f6"/>
<circle cx="1205.264329226614" cy="90.03008827313894" r="1.5" fill="#3b82f6"/>
<circle cx="1137.4088587628894" cy="326.0511042238937" r="1.5" fill="#3b82f6"/>
<circle cx="1212.2626336731262" cy="90.3757883192778" r="1.5" fill="#3b82f6"/>
<circle cx="1249.9062663588907" cy="99.17960316689685" r="1.5" fill="#3b82f6"/>
<circle cx="1314.476440297307" cy="157.08108129861102" r="1.5" fill="#3b82f6"/>
<circle cx="1123.3165071477624" cy="117.70763141248148" r="1.5" fill="#3b82f6"/>
<circle cx="1316.585386210335" cy="272.79896641729783" r="1.5" fill="#3b82f6"/>
<circle cx="1234.0494659844999" cy="93.98117544012673" r="1.5" fill="#3b82f6"/>
<circle cx="1079.3340462561691" cy="186.02988798256396" r="1.5" fill="#3b82f6"/>
<circle cx="1245.1364930267357" cy="97.37086699979344" r="1.5" fill="#3b82f6"/>
<circle cx="1111.6024525117757" cy="128.305942360122" r="1.5" fill="#3b82f6"/>
<circle cx="1138.2576936890189" cy="107.44669754021069" r="1.5" fill="#3b82f6"/>
<circle cx="1323.9937536533478" cy="180.00989560409937" r="1.5" fill="#3b82f6"/>
<circle cx="1089.096817930606" cy="159.82729412966478" r="1.5" fill="#3b82f6"/>
<circle cx="1122.7011095982423" cy="118.20153295395593" r="1.5" fill="#3b82f6"/>
<circle cx="1081.566598238657" cy="255.78288718532437" r="1.5" fill="#3b82f6"/>
<circle cx="1125.1934929718095" cy="116.23937291233086" r="1.5" fill="#3b82f6"/>
<circle cx="1079.3426031991366" cy="185.99587748000738" r="1.5" fill="#3b82f6"/>
<circle cx="1243.6871593071735" cy="96.86416892448148" r="1.5" fill="#3b82f6"/>
<circle cx="1205.6879804371051" cy="90.04001897947276" r="1.5" fill="#3b82f6"/>
<circle cx="1323.934010658232" cy="179.81423584950298" r="1.5" fill="#3b82f6"/>
<circle cx="1122.6442838071223" cy="118.24745779817839" r="1.5" fill="#3b82f6"/>
<circle cx="1249.9469329514395" cy="99.19597395037131" r="1.5" fill="#3b82f6"/>
<circle cx="1123.2822379802158" cy="117.73497000163236" r="1.5" fill="#3b82f6"/>
<circle cx="1079.3340462561691" cy="186.02988798256396" r="1.5" fill="#3b82f6"/>
<circle cx="1303.5573892632913" cy="140.08183520593067" r="1.5" fill="#3b82f6"/>
<circle cx="1243.327580465271" cy="96.74149230365516" r="1.5" fill="#3b82f6"/>
<circle cx="1325.6786878398912" cy="186.0805746812351" r="1.5" fill="#3b82f6"/>
<circle cx="1079.3362265458236" cy="186.0212184144004" r="1.5" fill="#3b82f6"/>
<circle cx="1323.9980089486332" cy="180.02387497968692" r="1.5" fill="#3b82f6"/>
<circle cx="1323.8954380450818" cy="179.68850549974286" r="1.5" fill="#3b82f6"/>
<circle cx="1120.9084013305908" cy="119.67677036508674" r="1.5" fill="#3b82f6"/>
<circle cx="1123.0540182744023" cy="117.91752936237415" r="1.5" fill="#3b82f6"/>
<circle cx="1303.6127551549384" cy="140.1546309464424" r="1.5" fill="#3b82f6"/>
<circle cx="1244.5940564422124" cy="97.1789233388389" r="1.5" fill="#3b82f6"/>
<circle cx="1324.1165039595635" cy="180.41549556638097" r="1.5" fill="#3b82f6"/>
<circle cx="1085.2876387640517" cy="168.10969039274167" r="1.5" fill="#3b82f6"/>
<circle cx="1086.1891343973648" cy="166.00213197823112" r="1.5" fill="#3b82f6"/>
<circle cx="1243.839178040347" cy="96.9163942956887" r="1.5" fill="#3b82f6"/>
<circle cx="1307.2881162333701" cy="145.2472948505652" r="1.5" fill="#3b82f6"/>
<circle cx="1243.1891834425637" cy="96.6945955047015" r="1.5" fill="#3b82f6"/>
<circle cx="1243.7009819220336" cy="96.86890873441524" r="1.5" fill="#3b82f6"/>
<circle cx="1243.7009819220336" cy="96.86890873441524" r="1.5" fill="#3b82f6"/>
<circle cx="1250.3803572058357" cy="99.3714686232903" r="1.5" fill="#3b82f6"/>
<circle cx="1206.0385616978244" cy="90.04930649614123" r="1.5" fill="#3b82f6"/>
<circle cx="1075.5481493980778" cy="213.5031973536942" r="1.5" fill="#3b82f6"/>
<circle cx="1282.1073605519764" cy="118.04714180000842" r="1.5" fill="#3b82f6"/>
<circle cx="1307.5875180532398" cy="145.6865121494537" r="1.5" fill="#3b82f6"/>
<circle cx="1314.5267696734456" cy="276.82476808590883" r="1.5" fill="#3b82f6"/>
<circle cx="1221.8708240797725" cy="91.48597220043288" r="1.5" fill="#3b82f6"/>
<circle cx="1221.7697258693836" cy="91.47041119752359" r="1.5" fill="#3b82f6"/>
<circle cx="1314.3701737203799" cy="156.8829123146169" r="1.5" fill="#3b82f6"/>
<circle cx="1249.8520354498237" cy="99.15779729333536" r="1.5" fill="#3b82f6"/>
<circle cx="1216.0720792722534" cy="90.72728456143953" r="1.5" fill="#3b82f6"/>
<circle cx="1110.7944195171915" cy="129.14166796307177" r="1.5" fill="#3b82f6"/>
<circle cx="1122.6897423265148" cy="118.21071530731749" r="1.5" fill="#3b82f6"/>
<circle cx="1282.1073605519764" cy="118.04714180000842" r="1.5" fill="#3b82f6"/>
<circle cx="1123.1566651512308" cy="117.8353126608263" r="1.5" fill="#3b82f6"/>
<circle cx="1095.0501453980144" cy="149.29823675847044" r="1.5" fill="#3b82f6"/>
<circle cx="1324.0192612964051" cy="180.09377919678045" r="1.5" fill="#3b82f6"/>
<circle cx="1245.3974326490245" cy="97.46418832783874" r="1.5" fill="#3b82f6"/>
<circle cx="1205.8778818082199" cy="90.044929543993" r="1.5" fill="#3b82f6"/>
<circle cx="1208.1609678246382" cy="90.1262302787199" r="1.5" fill="#3b82f6"/>
<circle cx="1250.1908136176023" cy="99.29449334678046" r="1.5" fill="#3b82f6"/>
<circle cx="1082.3799000552826" cy="258.2330157673572" r="1.5" fill="#3b82f6"/>
<circle cx="1323.9083100491391" cy="179.73041117731344" r="1.5" fill="#3b82f6"/>
<circle cx="1122.9970290369283" cy="117.96325122438144" r="1.5" fill="#3b82f6"/>
<circle cx="1322.165162062891" cy="259.53526758422936" r="1.5" fill="#3b82f6"/>
<circle cx="1243.6180380574317" cy="96.84049373308993" r="1.5" fill="#3b82f6"/>
<circle cx="1079.3405889558562" cy="186.00387973859208" r="1.5" fill="#3b82f6"/>
<circle cx="1165.669453996323" cy="95.4577814869622" r="1.5" fill="#3b82f6"/>
<circle cx="1205.7171965075574" cy="90.04075596227047" r="1.5" fill="#3b82f6"/>
<circle cx="1205.6587641978313" cy="90.03928871992525" r="1.5" fill="#3b82f6"/>
<circle cx="1205.3519838820646" cy="90.032026920422" r="1.5" fill="#3b82f6"/>
<circle cx="1314.5007638873408" cy="157.12655940525767" r="1.5" fill="#3b82f6"/>
<circle cx="1123.2593971120525" cy="117.75320229874113" r="1.5" fill="#3b82f6"/>
<circle cx="1205.3227658125468" cy="90.03137398094158" r="1.5" fill="#3b82f6"/>
<circle cx="1288.92457201425" cy="123.94198931766431" r="1.5" fill="#3b82f6"/>
<circle cx="1131.3030603509917" cy="111.83348544039572" r="1.5" fill="#3b82f6"/>
<circle cx="1323.934010658232" cy="179.81423584950298" r="1.5" fill="#3b82f6"/>
<circle cx="1122.894514731733" cy="118.0456331675872" r="1.5" fill="#3b82f6"/>
<circle cx="1318.5273669495305" cy="268.6396177247567" r="1.5" fill="#3b82f6"/>
<circle cx="1243.7286255152023" cy="96.87839312543639" r="1.5" fill="#3b82f6"/>
<circle cx="1250.1501810175935" cy="99.27803837435188" r="1.5" fill="#3b82f6"/>
<circle cx="1324.0869984991066" cy="180.31755466196088" r="1.5" fill="#3b82f6"/>
<circle cx="1122.9172883150802" cy="118.02731689564568" r="1.5" fill="#3b82f6"/>
<circle cx="1108.6587584012589" cy="131.4265147653394" r="1.5" fill="#3b82f6"/>
<circle cx="1319.0029810480785" cy="166.4425533980299" r="1.5" fill="#3b82f6"/>
<circle cx="1165.669453996323" cy="95.4577814869622" r="1.5" fill="#3b82f6"/>
<circle cx="1111.1692832650629" cy="128.75205282454056" r="1.5" fill="#3b82f6"/>
<circle cx="1324.5178556403848" cy="181.7772388231384" r="1.5" fill="#3b82f6"/>
<circle cx="1221.5674920129868" cy="91.43953349746313" r="1.5" fill="#3b82f6"/>
<circle cx="1185.2169655235634" cy="91.18149293809633" r="1.5" fill="#3b82f6"/>
<circle cx="1123.1680756138796" cy="117.82618403431836" r="1.5" fill="#3b82f6"/>
<circle cx="1075.8208028970064" cy="207.97885698257178" r="1.5" fill="#3b82f6"/>
<circle cx="1323.9553836224927" cy="179.88410328291786" r="1.5" fill="#3b82f6"/>
<circle cx="1222.0874207038792" cy="91.51959136913347" r="1.5" fill="#3b82f6"/>
<circle cx="1322.1623980670217" cy="259.54304277845733" r="1.5" fill="#3b82f6"/>
<circle cx="1318.485107296376" cy="268.73446516054946" r="1.5" fill="#3b82f6"/>
<circle cx="1322.1930041227038" cy="259.4568576802667" r="1.5" fill="#3b82f6"/>
<circle cx="1125.8617415650424" cy="115.73017555038093" r="1.5" fill="#3b82f6"/>
<circle cx="1111.1812298100199" cy="128.73969062489306" r="1.5" fill="#3b82f6"/>
<circle cx="1212.2790884918538" cy="90.37705804922834" r="1.5" fill="#3b82f6"/>
<circle cx="1114.3361586542717" cy="125.58809115238182" r="1.5" fill="#3b82f6"/>
<circle cx="1320.2437509120532" cy="169.4036858448011" r="1.5" fill="#3b82f6"/>
<circle cx="1307.3021007107225" cy="145.2677221425418" r="1.5" fill="#3b82f6"/>
<circle cx="1322.1596335659622" cy="259.5508177930773" r="1.5" fill="#3b82f6"/>
<circle cx="1082.388163113638" cy="258.25707987465864" r="1.5" fill="#3b82f6"/>
<circle cx="1206.126202901227" cy="90.05177964020476" r="1.5" fill="#3b82f6"/>
<circle cx="1245.405199437903" cy="97.46697585523167" r="1.5" fill="#3b82f6"/>
<circle cx="1329.338418485332" cy="223.40434197554737" r="1.5" fill="#3b82f6"/>
<circle cx="1324.0701028217986" cy="180.2615991107767" r="1.5" fill="#3b82f6"/>
<circle cx="1095.4788817563644" cy="285.3774835006509" r="1.5" fill="#3b82f6"/>
<circle cx="1307.38708713418" cy="145.39204686274775" r="1.5" fill="#3b82f6"/>
<circle cx="1316.741215159256" cy="161.52077182461366" r="1.5" fill="#3b82f6"/>
<circle cx="1325.5900425456934" cy="248.2704561223428" r="1.5" fill="#3b82f6"/>
<circle cx="1322.173451019243" cy="259.51194092422594" r="1.5" fill="#3b82f6"/>
<circle cx="1311.780392345887" cy="281.70545455159834" r="1.5" fill="#3b82f6"/>
<circle cx="1322.5218616186137" cy="258.5181012764597" r="1.5" fill="#3b82f6"/>
<rect x="1195.5" y="337.0" width="14" height="14" fill="#dc2626"/>
<polygon points="1305.5660618084316,283.20503287042294 1297.5660618084316,296.80503287042296 1313.5660618084316,296.80503287042296" fill="#f59e0b"/>
<polygon points="1099.4339381915684,283.20503287042294 1091.4339381915684,296.80503287042296 1107.4339381915684,296.80503287042296" fill="#f59e0b"/>
<circle cx="1202.5" cy="90.0" r="9" fill="#16a34a"/>
<text x="60" y="454" fill="#334155" font-weight="600">Legend:</text>
<circle cx="146" cy="450" r="1.5" fill="#3b82f6"/>
<text x="158" y="454" fill="#334155">RNAP (730)</text>
<rect x="264" y="444" width="12" height="12" fill="#dc2626"/>
<text x="282" y="454" fill="#334155">Ter</text>
<polygon points="331,444 325,454.2 337,454.2" fill="#f59e0b"/>
<text x="343" y="454" fill="#334155">Replisome (2)</text>
<circle cx="482" cy="450" r="6" fill="#16a34a"/>
<text x="494" y="454" fill="#334155">OriC</text>
<circle cx="552" cy="450" r="1.5" fill="#3b82f6"/>
<text x="564" y="454" fill="#334155">RNAP (727)</text>
<circle cx="676" cy="450" r="1.5" fill="#3b82f6"/>
<text x="688" y="454" fill="#334155">RNAP (1068)</text>
<circle cx="809" cy="450" r="1.5" fill="#3b82f6"/>
<text x="821" y="454" fill="#334155">RNAP (836)</text>
</svg>