<svg xmlns="http://www.w3.org/2000/svg" width="760" height="420" viewBox="0 0 760 420" font-family="-apple-system,sans-serif" font-size="13">
<rect width="760" height="420" fill="white"/>
<rect x="0" y="0" width="760" height="42" fill="#0f172a"/>
<text x="380.0" y="27" text-anchor="middle" fill="white" font-weight="600" font-size="15">dnaa-01 — Expression Dynamics: gate-test scoreboard</text>
<rect x="30" y="60" width="700" height="44" fill="#f8fafc" rx="3"/>
<text x="42" y="80" fill="#0f172a" font-weight="600">Total DnaA per cell</text>
<text x="42" y="96" fill="#64748b" font-size="11">Schmidt 2016 mass-spec target: [300, 800]</text>
<text x="570" y="86" text-anchor="end" fill="#0f172a" font-weight="600" font-size="14" font-family="ui-monospace,monospace">115 (1× TE baseline)</text>
<rect x="620" y="70" width="100" height="24" rx="12" fill="#dc2626"/>
<text x="670" y="86" text-anchor="middle" fill="white" font-weight="700" font-size="11">✗ FAIL</text>
<rect x="30" y="110" width="700" height="44" fill="#f8fafc" rx="3"/>
<text x="42" y="130" fill="#0f172a" font-weight="600">Autorepression signature</text>
<text x="42" y="146" fill="#64748b" font-size="11">Pearson r ≤ −0.3 (5-seed pool)</text>
<text x="570" y="136" text-anchor="end" fill="#0f172a" font-weight="600" font-size="14" font-family="ui-monospace,monospace">−0.594</text>
<rect x="620" y="120" width="100" height="24" rx="12" fill="#16a34a"/>
<text x="670" y="136" text-anchor="middle" fill="white" font-weight="700" font-size="11">✓ PASS</text>
<rect x="30" y="160" width="700" height="44" fill="#f8fafc" rx="3"/>
<text x="42" y="180" fill="#0f172a" font-weight="600">DnaA pool stability</text>
<text x="42" y="196" fill="#64748b" font-size="11">Rolling CV ≤ 0.10 (homeostasis)</text>
<text x="570" y="186" text-anchor="end" fill="#0f172a" font-weight="600" font-size="14" font-family="ui-monospace,monospace">0.008</text>
<rect x="620" y="170" width="100" height="24" rx="12" fill="#16a34a"/>
<text x="670" y="186" text-anchor="middle" fill="white" font-weight="700" font-size="11">✓ PASS</text>
<rect x="30" y="210" width="700" height="44" fill="#f8fafc" rx="3"/>
<text x="42" y="230" fill="#0f172a" font-weight="600">Joint-sweep fix found</text>
<text x="42" y="246" fill="#64748b" font-size="11">(TE=20×, fc=0.7) — see dnaa-01g</text>
<text x="570" y="236" text-anchor="end" fill="#0f172a" font-weight="600" font-size="14" font-family="ui-monospace,monospace">DnaA=707, r=−0.521</text>
<rect x="620" y="220" width="100" height="24" rx="12" fill="#16a34a"/>
<text x="670" y="236" text-anchor="middle" fill="white" font-weight="700" font-size="11">✓ PASS</text>
<rect x="30" y="260" width="700" height="44" fill="#f8fafc" rx="3"/>
<text x="42" y="280" fill="#0f172a" font-weight="600">TE root cause</text>
<text x="42" y="296" fill="#64748b" font-size="11">dnaA at 8.6th percentile of proteome (PD03831)</text>
<text x="570" y="286" text-anchor="end" fill="#0f172a" font-weight="600" font-size="14" font-family="ui-monospace,monospace">7.23e-5</text>
<rect x="620" y="270" width="100" height="24" rx="12" fill="#3b82f6"/>
<text x="670" y="286" text-anchor="middle" fill="white" font-weight="700" font-size="11">◆ INFO</text>
</svg>