<svg xmlns="http://www.w3.org/2000/svg" width="720" height="400" viewBox="0 0 720 400" font-family="-apple-system,sans-serif" font-size="13"><title>Autorepression Pearson r (binding ↔ mRNA) vs TE multiplier</title><rect width="720" height="400" fill="white"/><text x="360.0" y="22" text-anchor="middle" font-weight="600" font-size="15">Autorepression Pearson r (binding ↔ mRNA) vs TE multiplier</text>
<rect x="60" y="245.0" width="630" height="105.0" fill="#86efac" fill-opacity="0.3"/>
<text x="685" y="259.0" text-anchor="end" fill="#16a34a" font-size="11">pass band r ≤ -0.3 (autorepression signature)</text>
<line x1="60" y1="200.0" x2="690" y2="200.0" stroke="#64748b" stroke-dasharray="4,3"/>
<line x1="60" y1="350.0" x2="690" y2="350.0" stroke="#e5e7eb"/>
<text x="52" y="354.0" text-anchor="end" fill="#64748b">-1.0</text>
<line x1="60" y1="275.0" x2="690" y2="275.0" stroke="#e5e7eb"/>
<text x="52" y="279.0" text-anchor="end" fill="#64748b">-0.5</text>
<line x1="60" y1="245.0" x2="690" y2="245.0" stroke="#e5e7eb"/>
<text x="52" y="249.0" text-anchor="end" fill="#64748b">-0.3</text>
<line x1="60" y1="200.0" x2="690" y2="200.0" stroke="#e5e7eb"/>
<text x="52" y="204.0" text-anchor="end" fill="#64748b">0.0</text>
<line x1="60" y1="125.0" x2="690" y2="125.0" stroke="#e5e7eb"/>
<text x="52" y="129.0" text-anchor="end" fill="#64748b">0.5</text>
<line x1="60" y1="50.0" x2="690" y2="50.0" stroke="#e5e7eb"/>
<text x="52" y="54.0" text-anchor="end" fill="#64748b">1.0</text>
<text x="20" y="200.0" text-anchor="middle" transform="rotate(-90 20 200.0)" fill="#334155">Pearson r (pooled across seeds)</text>
<rect x="210.5" y="245.12204208921963" width="49.0" height="-45.12204208921963" fill="#22c55e"/>
<text x="235.0" y="257.12204208921963" text-anchor="middle" fill="#334155" font-size="11">-0.301</text>
<text x="235.0" y="366" text-anchor="middle" fill="#334155">10×</text>
<text x="235.0" y="380" text-anchor="middle" fill="#94a3b8" font-size="10">n=5 (1505 samples)</text>
<rect x="280.5" y="279.91295546476533" width="49.0" height="-79.91295546476533" fill="#22c55e"/>
<text x="305.0" y="291.91295546476533" text-anchor="middle" fill="#334155" font-size="11">-0.533</text>
<text x="305.0" y="366" text-anchor="middle" fill="#334155">15×</text>
<text x="305.0" y="380" text-anchor="middle" fill="#94a3b8" font-size="10">n=5 (1505 samples)</text>
<rect x="350.5" y="237.94130996976142" width="49.0" height="-37.94130996976142" fill="#ef4444"/>
<text x="375.0" y="249.94130996976142" text-anchor="middle" fill="#334155" font-size="11">-0.253</text>
<text x="375.0" y="366" text-anchor="middle" fill="#334155">20×</text>
<text x="375.0" y="380" text-anchor="middle" fill="#94a3b8" font-size="10">n=5 (1505 samples)</text>
<rect x="420.5" y="200.0" width="49.0" height="-116.95083003237312" fill="#ef4444"/>
<text x="445.0" y="79.04916996762688" text-anchor="middle" fill="#334155" font-size="11">+0.780</text>
<text x="445.0" y="366" text-anchor="middle" fill="#334155">25×</text>
<text x="445.0" y="380" text-anchor="middle" fill="#94a3b8" font-size="10">n=5 (1505 samples)</text>
<rect x="490.5" y="200.0" width="49.0" height="-27.936731371438015" fill="#ef4444"/>
<text x="515.0" y="168.06326862856199" text-anchor="middle" fill="#334155" font-size="11">+0.186</text>
<text x="515.0" y="366" text-anchor="middle" fill="#334155">30×</text>
<text x="515.0" y="380" text-anchor="middle" fill="#94a3b8" font-size="10">n=5 (1505 samples)</text>
<rect x="560.5" y="200.0" width="49.0" height="-91.98714515009499" fill="#ef4444"/>
<text x="585.0" y="104.01285484990501" text-anchor="middle" fill="#334155" font-size="11">+0.613</text>
<text x="585.0" y="366" text-anchor="middle" fill="#334155">50×</text>
<text x="585.0" y="380" text-anchor="middle" fill="#94a3b8" font-size="10">n=5 (1505 samples)</text>
<rect x="630.5" y="213.93537737659744" width="49.0" height="-13.935377376597444" fill="#ef4444"/>
<text x="655.0" y="225.93537737659744" text-anchor="middle" fill="#334155" font-size="11">-0.093</text>
<text x="655.0" y="366" text-anchor="middle" fill="#334155">100×</text>
<text x="655.0" y="380" text-anchor="middle" fill="#94a3b8" font-size="10">n=3 (903 samples)</text>
</svg>