<svg xmlns="http://www.w3.org/2000/svg" width="800" height="380" viewBox="0 0 800 380" font-family="-apple-system,sans-serif" font-size="13">
<rect width="800" height="380" fill="white"/>
<text x="400.0" y="22" text-anchor="middle" font-weight="600" font-size="15">Proteome translation_efficiency distribution — dnaA at 8.6th percentile</text>
<rect x="60.0" y="319.29331704763564" width="10.886666666666668" height="0.7066829523643605" fill="#94a3b8" fill-opacity="0.8"/>
<rect x="131.0" y="318.4688536032106" width="10.886666666666668" height="1.5311463967893815" fill="#94a3b8" fill-opacity="0.8"/>
<rect x="166.5" y="319.52887803175713" width="10.886666666666668" height="0.4711219682428691" fill="#94a3b8" fill-opacity="0.8"/>
<rect x="202.0" y="319.1755365555749" width="10.886666666666668" height="0.8244634444250778" fill="#94a3b8" fill-opacity="0.8"/>
<rect x="213.83333333333334" y="319.1755365555749" width="10.886666666666668" height="0.8244634444250778" fill="#94a3b8" fill-opacity="0.8"/>
<rect x="237.5" y="319.4110975396964" width="10.886666666666668" height="0.5889024603035864" fill="#94a3b8" fill-opacity="0.8"/>
<rect x="249.33333333333334" y="319.0577560635142" width="10.886666666666668" height="0.9422439364857951" fill="#94a3b8" fill-opacity="0.8"/>
<rect x="273.0" y="319.4110975396964" width="10.886666666666668" height="0.5889024603035864" fill="#94a3b8" fill-opacity="0.8"/>
<rect x="284.83333333333337" y="319.0577560635142" width="10.886666666666668" height="0.9422439364857951" fill="#94a3b8" fill-opacity="0.8"/>
<rect x="296.6666666666667" y="318.70441458733205" width="10.886666666666668" height="1.295585412667947" fill="#94a3b8" fill-opacity="0.8"/>
<rect x="308.5" y="319.1755365555749" width="10.886666666666668" height="0.8244634444250778" fill="#94a3b8" fill-opacity="0.8"/>
<rect x="320.33333333333337" y="317.879951142907" width="10.886666666666668" height="2.1200488570930247" fill="#94a3b8" fill-opacity="0.8"/>
<rect x="332.1666666666667" y="319.1755365555749" width="10.886666666666668" height="0.8244634444250778" fill="#94a3b8" fill-opacity="0.8"/>
<rect x="344.0" y="317.4088291746641" width="10.886666666666668" height="2.591170825335894" fill="#94a3b8" fill-opacity="0.8"/>
<rect x="355.83333333333337" y="316.70214622229975" width="10.886666666666668" height="3.2978537777002543" fill="#94a3b8" fill-opacity="0.8"/>
<rect x="367.6666666666667" y="317.05548769848195" width="10.886666666666668" height="2.9445123015180457" fill="#94a3b8" fill-opacity="0.8"/>
<rect x="379.5" y="314.34653638108534" width="10.886666666666668" height="5.653463618914657" fill="#94a3b8" fill-opacity="0.8"/>
<rect x="391.33333333333337" y="314.93543884138893" width="10.886666666666668" height="5.06456115861107" fill="#94a3b8" fill-opacity="0.8"/>
<rect x="403.1666666666667" y="314.2287558890246" width="10.886666666666668" height="5.771244110975374" fill="#94a3b8" fill-opacity="0.8"/>
<rect x="415.0" y="312.34426801605304" width="10.886666666666668" height="7.655731983946964" fill="#94a3b8" fill-opacity="0.8"/>
<rect x="426.83333333333337" y="311.63758506368873" width="10.886666666666668" height="8.362414936311268" fill="#94a3b8" fill-opacity="0.8"/>
<rect x="438.6666666666667" y="311.2842435875065" width="10.886666666666668" height="8.715756412493477" fill="#94a3b8" fill-opacity="0.8"/>
<rect x="450.5" y="311.1664630954458" width="10.886666666666668" height="8.833536904554194" fill="#94a3b8" fill-opacity="0.8"/>
<rect x="462.33333333333337" y="308.69307276217063" width="10.886666666666668" height="11.30692723782937" fill="#94a3b8" fill-opacity="0.8"/>
<rect x="474.1666666666667" y="309.16419473041356" width="10.886666666666668" height="10.835805269586444" fill="#94a3b8" fill-opacity="0.8"/>
<rect x="486.0" y="307.6330483336242" width="10.886666666666668" height="12.366951666375826" fill="#94a3b8" fill-opacity="0.8"/>
<rect x="497.83333333333337" y="306.45524341301694" width="10.886666666666668" height="13.544756586983056" fill="#94a3b8" fill-opacity="0.8"/>
<rect x="509.6666666666667" y="305.39521898447043" width="10.886666666666668" height="14.604781015529568" fill="#94a3b8" fill-opacity="0.8"/>
<rect x="521.5" y="306.21968242889545" width="10.886666666666668" height="13.780317571104547" fill="#94a3b8" fill-opacity="0.8"/>
<rect x="533.3333333333334" y="74.54545454545456" width="10.886666666666668" height="245.45454545454544" fill="#94a3b8" fill-opacity="0.8"/>
<rect x="545.1666666666667" y="304.9240970162275" width="10.886666666666668" height="15.075902983772494" fill="#94a3b8" fill-opacity="0.8"/>
<rect x="557.0" y="306.57302390507766" width="10.886666666666668" height="13.426976094922338" fill="#94a3b8" fill-opacity="0.8"/>
<rect x="568.8333333333334" y="303.98185307974177" width="10.886666666666668" height="16.018146920258232" fill="#94a3b8" fill-opacity="0.8"/>
<rect x="580.6666666666667" y="304.2174140638632" width="10.886666666666668" height="15.782585936136797" fill="#94a3b8" fill-opacity="0.8"/>
<rect x="592.5" y="307.04414587332053" width="10.886666666666668" height="12.95585412667947" fill="#94a3b8" fill-opacity="0.8"/>
<rect x="604.3333333333334" y="307.5152678415634" width="10.886666666666668" height="12.4847321584366" fill="#94a3b8" fill-opacity="0.8"/>
<rect x="616.1666666666667" y="307.9863898098063" width="10.886666666666668" height="12.013610190193674" fill="#94a3b8" fill-opacity="0.8"/>
<rect x="628.0" y="313.40429244459955" width="10.886666666666668" height="6.595707555400452" fill="#94a3b8" fill-opacity="0.8"/>
<rect x="639.8333333333334" y="315.8776827778747" width="10.886666666666668" height="4.122317222125275" fill="#94a3b8" fill-opacity="0.8"/>
<rect x="651.6666666666667" y="317.05548769848195" width="10.886666666666668" height="2.9445123015180457" fill="#94a3b8" fill-opacity="0.8"/>
<rect x="663.5" y="318.9399755714535" width="10.886666666666668" height="1.0600244285465124" fill="#94a3b8" fill-opacity="0.8"/>
<rect x="675.3333333333334" y="319.0577560635142" width="10.886666666666668" height="0.9422439364857951" fill="#94a3b8" fill-opacity="0.8"/>
<rect x="687.1666666666667" y="319.76443901587857" width="10.886666666666668" height="0.23556098412143456" fill="#94a3b8" fill-opacity="0.8"/>
<rect x="699.0" y="319.52887803175713" width="10.886666666666668" height="0.4711219682428691" fill="#94a3b8" fill-opacity="0.8"/>
<rect x="758.1666666666667" y="319.8822195079393" width="10.886666666666668" height="0.11778049206071728" fill="#94a3b8" fill-opacity="0.8"/>
<line x1="424.6435037292249" y1="50" x2="424.6435037292249" y2="320" stroke="#dc2626" stroke-width="2.5"/>
<text x="430.6435037292249" y="68" fill="#dc2626" font-weight="600" font-size="12">dnaA (PD03831)</text>
<text x="430.6435037292249" y="84" fill="#dc2626" font-size="11">TE = 7.23e-05</text>
<text x="430.6435037292249" y="98" fill="#dc2626" font-size="11">8.6th percentile</text>
<line x1="543.2482662705806" y1="50" x2="543.2482662705806" y2="320" stroke="#22c55e" stroke-dasharray="3,3"/>
<text x="549.2482662705806" y="310" fill="#16a34a" font-size="11">median TE</text>
<line x1="221.76392435873646" y1="320" x2="221.76392435873646" y2="324" stroke="#64748b"/>
<text x="221.76392435873646" y="338" text-anchor="middle" fill="#64748b">10^-5</text>
<line x1="457.9215892125948" y1="320" x2="457.9215892125948" y2="324" stroke="#64748b"/>
<text x="457.9215892125948" y="338" text-anchor="middle" fill="#64748b">10^-4</text>
<line x1="694.0792540664531" y1="320" x2="694.0792540664531" y2="324" stroke="#64748b"/>
<text x="694.0792540664531" y="338" text-anchor="middle" fill="#64748b">10^-3</text>
<line x1="930.2369189203115" y1="320" x2="930.2369189203115" y2="324" stroke="#64748b"/>
<text x="930.2369189203115" y="338" text-anchor="middle" fill="#64748b">10^-2</text>
<text x="400.0" y="364" text-anchor="middle" fill="#334155">translation_efficiency (log scale)</text>
<text x="20" y="185.0" text-anchor="middle" transform="rotate(-90 20 185.0)" fill="#334155">count of monomers</text>
</svg>