<svg xmlns="http://www.w3.org/2000/svg" width="900" height="500" viewBox="0 0 900 500" font-family="-apple-system,sans-serif" font-size="13"><title>Gate-test landscape: dnaA count (left, bars) and autorepression r (right, points)</title><rect width="900" height="500" fill="white"/><text x="450.0" y="22" text-anchor="middle" font-weight="600" font-size="15">Gate-test landscape: dnaA count (left, bars) and autorepression r (right, points)</text>
<rect x="70" y="102.22222222222223" width="760" height="211.11111111111114" fill="#86efac" fill-opacity="0.25"/>
<rect x="70" y="307.0" width="760" height="133.0" fill="#bfdbfe" fill-opacity="0.2"/>
<line x1="70" y1="440.0" x2="830" y2="440.0" stroke="#e5e7eb"/>
<text x="62" y="444.0" text-anchor="end" fill="#16a34a">0</text>
<line x1="70" y1="355.55555555555554" x2="830" y2="355.55555555555554" stroke="#e5e7eb"/>
<text x="62" y="359.55555555555554" text-anchor="end" fill="#16a34a">200</text>
<line x1="70" y1="271.1111111111111" x2="830" y2="271.1111111111111" stroke="#e5e7eb"/>
<text x="62" y="275.1111111111111" text-anchor="end" fill="#16a34a">400</text>
<line x1="70" y1="186.66666666666669" x2="830" y2="186.66666666666669" stroke="#e5e7eb"/>
<text x="62" y="190.66666666666669" text-anchor="end" fill="#16a34a">600</text>
<line x1="70" y1="102.22222222222223" x2="830" y2="102.22222222222223" stroke="#e5e7eb"/>
<text x="62" y="106.22222222222223" text-anchor="end" fill="#16a34a">800</text>
<text x="838" y="444.0" text-anchor="start" fill="#2563eb">-1.0</text>
<text x="838" y="349.0" text-anchor="start" fill="#2563eb">-0.5</text>
<text x="838" y="311.0" text-anchor="start" fill="#2563eb">-0.3</text>
<text x="838" y="254.0" text-anchor="start" fill="#2563eb">0.0</text>
<text x="838" y="159.0" text-anchor="start" fill="#2563eb">0.5</text>
<text x="838" y="64.0" text-anchor="start" fill="#2563eb">1.0</text>
<text x="20" y="250.0" text-anchor="middle" transform="rotate(-90 20 250.0)" fill="#16a34a">DnaA/cell (median)</text>
<text x="880" y="250.0" text-anchor="middle" transform="rotate(90 880 250.0)" fill="#2563eb">Pearson r</text>
<rect x="74.22222222222223" y="391.44444444444446" width="38.0" height="48.55555555555554" fill="#16a34a" fill-opacity="0.6"/>
<text x="112.22222222222223" y="458" text-anchor="middle" fill="#334155">1×</text>
<text x="112.22222222222223" y="476" text-anchor="middle" font-size="11"><tspan fill="#ef4444">✗ count</tspan> <tspan fill="#ef4444">✗ r</tspan></text>
<rect x="158.66666666666669" y="385.5333333333333" width="38.0" height="54.4666666666667" fill="#16a34a" fill-opacity="0.6"/>
<text x="196.66666666666669" y="458" text-anchor="middle" fill="#334155">5×</text>
<text x="196.66666666666669" y="476" text-anchor="middle" font-size="11"><tspan fill="#ef4444">✗ count</tspan> <tspan fill="#ef4444">✗ r</tspan></text>
<rect x="243.1111111111111" y="360.6222222222222" width="38.0" height="79.3777777777778" fill="#16a34a" fill-opacity="0.6"/>
<circle cx="300.1111111111111" cy="307.1545866463449" r="6" fill="#22c55e" stroke="#1e293b" stroke-width="1.5"/>
<text x="281.1111111111111" y="458" text-anchor="middle" fill="#334155">10×</text>
<text x="281.1111111111111" y="476" text-anchor="middle" font-size="11"><tspan fill="#ef4444">✗ count</tspan> <tspan fill="#22c55e">✓ r</tspan></text>
<rect x="327.55555555555554" y="335.7111111111111" width="38.0" height="104.28888888888889" fill="#16a34a" fill-opacity="0.6"/>
<circle cx="384.55555555555554" cy="351.22307692203606" r="6" fill="#22c55e" stroke="#1e293b" stroke-width="1.5"/>
<text x="365.55555555555554" y="458" text-anchor="middle" fill="#334155">15×</text>
<text x="365.55555555555554" y="476" text-anchor="middle" font-size="11"><tspan fill="#ef4444">✗ count</tspan> <tspan fill="#22c55e">✓ r</tspan></text>
<rect x="412.0" y="315.02222222222224" width="38.0" height="124.97777777777776" fill="#16a34a" fill-opacity="0.6"/>
<circle cx="469.0" cy="298.0589926283644" r="6" fill="#ef4444" stroke="#1e293b" stroke-width="1.5"/>
<text x="450.0" y="458" text-anchor="middle" fill="#334155">20×</text>
<text x="450.0" y="476" text-anchor="middle" font-size="11"><tspan fill="#ef4444">✗ count</tspan> <tspan fill="#ef4444">✗ r</tspan></text>
<rect x="496.44444444444446" y="328.9555555555556" width="38.0" height="111.04444444444442" fill="#16a34a" fill-opacity="0.6"/>
<circle cx="553.4444444444445" cy="101.862281958994" r="6" fill="#ef4444" stroke="#1e293b" stroke-width="1.5"/>
<text x="534.4444444444445" y="458" text-anchor="middle" fill="#334155">25×</text>
<text x="534.4444444444445" y="476" text-anchor="middle" font-size="11"><tspan fill="#ef4444">✗ count</tspan> <tspan fill="#ef4444">✗ r</tspan></text>
<rect x="580.8888888888889" y="372.8666666666667" width="38.0" height="67.13333333333333" fill="#16a34a" fill-opacity="0.6"/>
<circle cx="637.8888888888889" cy="214.61347359617852" r="6" fill="#ef4444" stroke="#1e293b" stroke-width="1.5"/>
<text x="618.8888888888889" y="458" text-anchor="middle" fill="#334155">30×</text>
<text x="618.8888888888889" y="476" text-anchor="middle" font-size="11"><tspan fill="#ef4444">✗ count</tspan> <tspan fill="#ef4444">✗ r</tspan></text>
<rect x="665.3333333333334" y="230.15555555555557" width="38.0" height="209.84444444444443" fill="#16a34a" fill-opacity="0.6"/>
<circle cx="722.3333333333334" cy="133.48294947654637" r="6" fill="#ef4444" stroke="#1e293b" stroke-width="1.5"/>
<text x="703.3333333333334" y="458" text-anchor="middle" fill="#334155">50×</text>
<text x="703.3333333333334" y="476" text-anchor="middle" font-size="11"><tspan fill="#22c55e">✓ count</tspan> <tspan fill="#ef4444">✗ r</tspan></text>
<rect x="749.7777777777778" y="394.4" width="38.0" height="45.60000000000002" fill="#16a34a" fill-opacity="0.6"/>
<circle cx="806.7777777777778" cy="267.65147801035675" r="6" fill="#ef4444" stroke="#1e293b" stroke-width="1.5"/>
<text x="787.7777777777778" y="458" text-anchor="middle" fill="#334155">100×</text>
<text x="787.7777777777778" y="476" text-anchor="middle" font-size="11"><tspan fill="#ef4444">✗ count</tspan> <tspan fill="#ef4444">✗ r</tspan></text>
<text x="70" y="488" fill="#64748b" font-size="11">Green bar: dnaA count (left axis). Circles: autorepression r (right axis). Shaded: pass bands. </text>
</svg>