<svg xmlns="http://www.w3.org/2000/svg" width="760" height="650" viewBox="0 0 760 650" font-family="-apple-system,sans-serif" font-size="13">
<rect width="760" height="650" fill="white"/>
<text x="380.0" y="22" text-anchor="middle" font-weight="600" font-size="15">Joint (TE × fold_change) sweep — autorepression Pearson r</text>
<text x="130.0" y="48" text-anchor="middle" fill="#334155" font-weight="600">fc=0.3</text>
<text x="230.0" y="48" text-anchor="middle" fill="#334155" font-weight="600">fc=0.5</text>
<text x="330.0" y="48" text-anchor="middle" fill="#334155" font-weight="600">fc=0.6</text>
<text x="430.0" y="48" text-anchor="middle" fill="#334155" font-weight="600">fc=0.7</text>
<text x="530.0" y="48" text-anchor="middle" fill="#334155" font-weight="600">fc=0.8</text>
<text x="630.0" y="48" text-anchor="middle" fill="#334155" font-weight="600">fc=1.0</text>
<text x="730.0" y="48" text-anchor="middle" fill="#334155" font-weight="600">fc=2.0</text>
<text x="70" y="91.5" text-anchor="end" fill="#334155" font-weight="600">1×</text>
<text x="70" y="146.5" text-anchor="end" fill="#334155" font-weight="600">5×</text>
<text x="70" y="201.5" text-anchor="end" fill="#334155" font-weight="600">10×</text>
<text x="70" y="256.5" text-anchor="end" fill="#334155" font-weight="600">15×</text>
<text x="70" y="311.5" text-anchor="end" fill="#334155" font-weight="600">20×</text>
<text x="70" y="366.5" text-anchor="end" fill="#334155" font-weight="600">25×</text>
<text x="70" y="421.5" text-anchor="end" fill="#334155" font-weight="600">30×</text>
<text x="70" y="476.5" text-anchor="end" fill="#334155" font-weight="600">50×</text>
<text x="70" y="531.5" text-anchor="end" fill="#334155" font-weight="600">100×</text>
<rect x="80" y="60" width="97" height="52" fill="#f1f5f9" stroke="#e5e7eb"/>
<text x="130.0" y="91.5" text-anchor="middle" fill="#cbd5e1">—</text>
<rect x="180" y="60" width="97" height="52" fill="#f1f5f9" stroke="#e5e7eb"/>
<text x="230.0" y="91.5" text-anchor="middle" fill="#cbd5e1">—</text>
<rect x="280" y="60" width="97" height="52" fill="#f1f5f9" stroke="#e5e7eb"/>
<text x="330.0" y="91.5" text-anchor="middle" fill="#cbd5e1">—</text>
<rect x="380" y="60" width="97" height="52" fill="#f1f5f9" stroke="#e5e7eb"/>
<text x="430.0" y="91.5" text-anchor="middle" fill="#cbd5e1">—</text>
<rect x="480" y="60" width="97" height="52" fill="#f1f5f9" stroke="#e5e7eb"/>
<text x="530.0" y="91.5" text-anchor="middle" fill="#cbd5e1">—</text>
<rect x="580" y="60" width="97" height="52" fill="#f1f5f9" stroke="#94a3b8"/>
<text x="630.0" y="85.5" text-anchor="middle" fill="#0f172a" font-weight="600">N/A</text>
<text x="630.0" y="101.5" text-anchor="middle" fill="#0f172a" font-size="10">n=5</text>
<rect x="680" y="60" width="97" height="52" fill="#f1f5f9" stroke="#e5e7eb"/>
<text x="730.0" y="91.5" text-anchor="middle" fill="#cbd5e1">—</text>
<rect x="80" y="115" width="97" height="52" fill="#f1f5f9" stroke="#e5e7eb"/>
<text x="130.0" y="146.5" text-anchor="middle" fill="#cbd5e1">—</text>
<rect x="180" y="115" width="97" height="52" fill="#f1f5f9" stroke="#e5e7eb"/>
<text x="230.0" y="146.5" text-anchor="middle" fill="#cbd5e1">—</text>
<rect x="280" y="115" width="97" height="52" fill="#f1f5f9" stroke="#e5e7eb"/>
<text x="330.0" y="146.5" text-anchor="middle" fill="#cbd5e1">—</text>
<rect x="380" y="115" width="97" height="52" fill="#f1f5f9" stroke="#e5e7eb"/>
<text x="430.0" y="146.5" text-anchor="middle" fill="#cbd5e1">—</text>
<rect x="480" y="115" width="97" height="52" fill="#f1f5f9" stroke="#e5e7eb"/>
<text x="530.0" y="146.5" text-anchor="middle" fill="#cbd5e1">—</text>
<rect x="580" y="115" width="97" height="52" fill="#f1f5f9" stroke="#94a3b8"/>
<text x="630.0" y="140.5" text-anchor="middle" fill="#0f172a" font-weight="600">N/A</text>
<text x="630.0" y="156.5" text-anchor="middle" fill="#0f172a" font-size="10">n=3</text>
<rect x="680" y="115" width="97" height="52" fill="#f1f5f9" stroke="#e5e7eb"/>
<text x="730.0" y="146.5" text-anchor="middle" fill="#cbd5e1">—</text>
<rect x="80" y="170" width="97" height="52" fill="#f1f5f9" stroke="#e5e7eb"/>
<text x="130.0" y="201.5" text-anchor="middle" fill="#cbd5e1">—</text>
<rect x="180" y="170" width="97" height="52" fill="#f1f5f9" stroke="#e5e7eb"/>
<text x="230.0" y="201.5" text-anchor="middle" fill="#cbd5e1">—</text>
<rect x="280" y="170" width="97" height="52" fill="#f1f5f9" stroke="#e5e7eb"/>
<text x="330.0" y="201.5" text-anchor="middle" fill="#cbd5e1">—</text>
<rect x="380" y="170" width="97" height="52" fill="#f1f5f9" stroke="#e5e7eb"/>
<text x="430.0" y="201.5" text-anchor="middle" fill="#cbd5e1">—</text>
<rect x="480" y="170" width="97" height="52" fill="#f1f5f9" stroke="#e5e7eb"/>
<text x="530.0" y="201.5" text-anchor="middle" fill="#cbd5e1">—</text>
<rect x="580" y="170" width="97" height="52" fill="#5b773d" stroke="#94a3b8"/>
<text x="630.0" y="195.5" text-anchor="middle" fill="#0f172a" font-weight="600">-0.30</text>
<text x="630.0" y="211.5" text-anchor="middle" fill="#0f172a" font-size="10">n=5</text>
<rect x="680" y="170" width="97" height="52" fill="#f1f5f9" stroke="#e5e7eb"/>
<text x="730.0" y="201.5" text-anchor="middle" fill="#cbd5e1">—</text>
<rect x="80" y="225" width="97" height="52" fill="#f1f5f9" stroke="#e5e7eb"/>
<text x="130.0" y="256.5" text-anchor="middle" fill="#cbd5e1">—</text>
<rect x="180" y="225" width="97" height="52" fill="#f1f5f9" stroke="#e5e7eb"/>
<text x="230.0" y="256.5" text-anchor="middle" fill="#cbd5e1">—</text>
<rect x="280" y="225" width="97" height="52" fill="#f1f5f9" stroke="#e5e7eb"/>
<text x="330.0" y="256.5" text-anchor="middle" fill="#cbd5e1">—</text>
<rect x="380" y="225" width="97" height="52" fill="#f1f5f9" stroke="#e5e7eb"/>
<text x="430.0" y="256.5" text-anchor="middle" fill="#cbd5e1">—</text>
<rect x="480" y="225" width="97" height="52" fill="#f1f5f9" stroke="#e5e7eb"/>
<text x="530.0" y="256.5" text-anchor="middle" fill="#cbd5e1">—</text>
<rect x="580" y="225" width="97" height="52" fill="#448541" stroke="#94a3b8"/>
<text x="630.0" y="250.5" text-anchor="middle" fill="#0f172a" font-weight="600">-0.53</text>
<text x="630.0" y="266.5" text-anchor="middle" fill="#0f172a" font-size="10">n=5</text>
<rect x="680" y="225" width="97" height="52" fill="#f1f5f9" stroke="#e5e7eb"/>
<text x="730.0" y="256.5" text-anchor="middle" fill="#cbd5e1">—</text>
<rect x="80" y="280" width="97" height="52" fill="#895934" stroke="#94a3b8"/>
<text x="130.0" y="305.5" text-anchor="middle" fill="#0f172a" font-weight="600">+0.17</text>
<text x="130.0" y="321.5" text-anchor="middle" fill="#0f172a" font-size="10">n=2</text>
<rect x="180" y="280" width="97" height="52" fill="#517d3f" stroke="#94a3b8"/>
<text x="230.0" y="305.5" text-anchor="middle" fill="#0f172a" font-weight="600">-0.39</text>
<text x="230.0" y="321.5" text-anchor="middle" fill="#0f172a" font-size="10">n=2</text>
<rect x="280" y="280" width="97" height="52" fill="#8e5634" stroke="#94a3b8"/>
<text x="330.0" y="305.5" text-anchor="middle" fill="#0f172a" font-weight="600">+0.22</text>
<text x="330.0" y="321.5" text-anchor="middle" fill="#0f172a" font-size="10">n=3</text>
<rect x="380" y="280" width="97" height="52" fill="#458541" stroke="#94a3b8"/>
<text x="430.0" y="305.5" text-anchor="middle" fill="#0f172a" font-weight="600">-0.52</text>
<text x="430.0" y="321.5" text-anchor="middle" fill="#0f172a" font-size="10">n=5</text>
<rect x="480" y="280" width="97" height="52" fill="#527d3f" stroke="#94a3b8"/>
<text x="530.0" y="305.5" text-anchor="middle" fill="#0f172a" font-weight="600">-0.39</text>
<text x="530.0" y="321.5" text-anchor="middle" fill="#0f172a" font-size="10">n=3</text>
<rect x="580" y="280" width="97" height="52" fill="#5f743c" stroke="#94a3b8"/>
<text x="630.0" y="305.5" text-anchor="middle" fill="#0f172a" font-weight="600">-0.25</text>
<text x="630.0" y="321.5" text-anchor="middle" fill="#0f172a" font-size="10">n=5</text>
<rect x="680" y="280" width="97" height="52" fill="#f1f5f9" stroke="#94a3b8"/>
<text x="730.0" y="305.5" text-anchor="middle" fill="#0f172a" font-weight="600">N/A</text>
<text x="730.0" y="321.5" text-anchor="middle" fill="#0f172a" font-size="10">n=2</text>
<rect x="80" y="335" width="97" height="52" fill="#f1f5f9" stroke="#e5e7eb"/>
<text x="130.0" y="366.5" text-anchor="middle" fill="#cbd5e1">—</text>
<rect x="180" y="335" width="97" height="52" fill="#f1f5f9" stroke="#e5e7eb"/>
<text x="230.0" y="366.5" text-anchor="middle" fill="#cbd5e1">—</text>
<rect x="280" y="335" width="97" height="52" fill="#f1f5f9" stroke="#e5e7eb"/>
<text x="330.0" y="366.5" text-anchor="middle" fill="#cbd5e1">—</text>
<rect x="380" y="335" width="97" height="52" fill="#f1f5f9" stroke="#e5e7eb"/>
<text x="430.0" y="366.5" text-anchor="middle" fill="#cbd5e1">—</text>
<rect x="480" y="335" width="97" height="52" fill="#f1f5f9" stroke="#e5e7eb"/>
<text x="530.0" y="366.5" text-anchor="middle" fill="#cbd5e1">—</text>
<rect x="580" y="335" width="97" height="52" fill="#c63329" stroke="#94a3b8"/>
<text x="630.0" y="360.5" text-anchor="middle" fill="#fff" font-weight="600">+0.78</text>
<text x="630.0" y="376.5" text-anchor="middle" fill="#fff" font-size="10">n=5</text>
<rect x="680" y="335" width="97" height="52" fill="#f1f5f9" stroke="#e5e7eb"/>
<text x="730.0" y="366.5" text-anchor="middle" fill="#cbd5e1">—</text>
<rect x="80" y="390" width="97" height="52" fill="#65713b" stroke="#94a3b8"/>
<text x="130.0" y="415.5" text-anchor="middle" fill="#0f172a" font-weight="600">-0.20</text>
<text x="130.0" y="431.5" text-anchor="middle" fill="#0f172a" font-size="10">n=2</text>
<rect x="180" y="390" width="97" height="52" fill="#f1f5f9" stroke="#e5e7eb"/>
<text x="230.0" y="421.5" text-anchor="middle" fill="#cbd5e1">—</text>
<rect x="280" y="390" width="97" height="52" fill="#f1f5f9" stroke="#e5e7eb"/>
<text x="330.0" y="421.5" text-anchor="middle" fill="#cbd5e1">—</text>
<rect x="380" y="390" width="97" height="52" fill="#f1f5f9" stroke="#e5e7eb"/>
<text x="430.0" y="421.5" text-anchor="middle" fill="#cbd5e1">—</text>
<rect x="480" y="390" width="97" height="52" fill="#f1f5f9" stroke="#e5e7eb"/>
<text x="530.0" y="421.5" text-anchor="middle" fill="#cbd5e1">—</text>
<rect x="580" y="390" width="97" height="52" fill="#8b5834" stroke="#94a3b8"/>
<text x="630.0" y="415.5" text-anchor="middle" fill="#0f172a" font-weight="600">+0.19</text>
<text x="630.0" y="431.5" text-anchor="middle" fill="#0f172a" font-size="10">n=5</text>
<rect x="680" y="390" width="97" height="52" fill="#f1f5f9" stroke="#e5e7eb"/>
<text x="730.0" y="421.5" text-anchor="middle" fill="#cbd5e1">—</text>
<rect x="80" y="445" width="97" height="52" fill="#f1f5f9" stroke="#e5e7eb"/>
<text x="130.0" y="476.5" text-anchor="middle" fill="#cbd5e1">—</text>
<rect x="180" y="445" width="97" height="52" fill="#f1f5f9" stroke="#e5e7eb"/>
<text x="230.0" y="476.5" text-anchor="middle" fill="#cbd5e1">—</text>
<rect x="280" y="445" width="97" height="52" fill="#f1f5f9" stroke="#e5e7eb"/>
<text x="330.0" y="476.5" text-anchor="middle" fill="#cbd5e1">—</text>
<rect x="380" y="445" width="97" height="52" fill="#f1f5f9" stroke="#e5e7eb"/>
<text x="430.0" y="476.5" text-anchor="middle" fill="#cbd5e1">—</text>
<rect x="480" y="445" width="97" height="52" fill="#f1f5f9" stroke="#e5e7eb"/>
<text x="530.0" y="476.5" text-anchor="middle" fill="#cbd5e1">—</text>
<rect x="580" y="445" width="97" height="52" fill="#b53e2c" stroke="#94a3b8"/>
<text x="630.0" y="470.5" text-anchor="middle" fill="#0f172a" font-weight="600">+0.61</text>
<text x="630.0" y="486.5" text-anchor="middle" fill="#0f172a" font-size="10">n=5</text>
<rect x="680" y="445" width="97" height="52" fill="#f1f5f9" stroke="#e5e7eb"/>
<text x="730.0" y="476.5" text-anchor="middle" fill="#cbd5e1">—</text>
<rect x="80" y="500" width="97" height="52" fill="#f1f5f9" stroke="#e5e7eb"/>
<text x="130.0" y="531.5" text-anchor="middle" fill="#cbd5e1">—</text>
<rect x="180" y="500" width="97" height="52" fill="#f1f5f9" stroke="#e5e7eb"/>
<text x="230.0" y="531.5" text-anchor="middle" fill="#cbd5e1">—</text>
<rect x="280" y="500" width="97" height="52" fill="#f1f5f9" stroke="#e5e7eb"/>
<text x="330.0" y="531.5" text-anchor="middle" fill="#cbd5e1">—</text>
<rect x="380" y="500" width="97" height="52" fill="#f1f5f9" stroke="#e5e7eb"/>
<text x="430.0" y="531.5" text-anchor="middle" fill="#cbd5e1">—</text>
<rect x="480" y="500" width="97" height="52" fill="#f1f5f9" stroke="#e5e7eb"/>
<text x="530.0" y="531.5" text-anchor="middle" fill="#cbd5e1">—</text>
<rect x="580" y="500" width="97" height="52" fill="#6f6a39" stroke="#94a3b8"/>
<text x="630.0" y="525.5" text-anchor="middle" fill="#0f172a" font-weight="600">-0.09</text>
<text x="630.0" y="541.5" text-anchor="middle" fill="#0f172a" font-size="10">n=3</text>
<rect x="680" y="500" width="97" height="52" fill="#f1f5f9" stroke="#e5e7eb"/>
<text x="730.0" y="531.5" text-anchor="middle" fill="#cbd5e1">—</text>
</svg>