<?xml version="1.0" encoding="utf-8" standalone="no"?>
<!DOCTYPE svg PUBLIC "-//W3C//DTD SVG 1.1//EN"
  "http://www.w3.org/Graphics/SVG/1.1/DTD/svg11.dtd">
<svg xmlns:xlink="http://www.w3.org/1999/xlink" width="425.449148pt" height="294.85926pt" viewBox="0 0 425.449148 294.85926" xmlns="http://www.w3.org/2000/svg" version="1.1">
 <metadata>
  <rdf:RDF xmlns:dc="http://purl.org/dc/elements/1.1/" xmlns:cc="http://creativecommons.org/ns#" xmlns:rdf="http://www.w3.org/1999/02/22-rdf-syntax-ns#">
   <cc:Work>
    <dc:type rdf:resource="http://purl.org/dc/dcmitype/StillImage"/>
    <dc:date>2026-09-18T12:04:58.723331</dc:date>
    <dc:format>image/svg+xml</dc:format>
    <dc:creator>
     <cc:Agent>
      <dc:title>Matplotlib v3.11.1, https://matplotlib.org/</dc:title>
     </cc:Agent>
    </dc:creator>
   </cc:Work>
  </rdf:RDF>
 </metadata>
 <defs>
  <style type="text/css">*{stroke-linejoin: round; stroke-linecap: butt}</style>
 </defs>
 <g id="figure_1">
  <g id="patch_1">
   <path d="M 0 294.85926 
L 425.449148 294.85926 
L 425.449148 0 
L 0 0 
z
" style="fill: #ffffff"/>
  </g>
  <g id="axes_1">
   <g id="patch_2">
    <path d="M 38.706641 257.889533 
L 418.249148 257.889533 
L 418.249148 19.752246 
L 38.706641 19.752246 
z
" style="fill: #ffffff"/>
   </g>
   <g id="line2d_1">
    <path d="M 182.472742 257.889533 
L 182.472742 19.752246 
" clip-path="url(#p8e0c1796af)" style="fill: none; stroke-dasharray: 1,1.65; stroke-dashoffset: 0; stroke: #555555; stroke-opacity: 0.6"/>
   </g>
   <g id="line2d_2">
    <path d="M 314.737555 257.889533 
L 314.737555 19.752246 
" clip-path="url(#p8e0c1796af)" style="fill: none; stroke-dasharray: 1,1.65; stroke-dashoffset: 0; stroke: #555555; stroke-opacity: 0.6"/>
   </g>
   <g id="matplotlib.axis_1">
    <g id="xtick_1">
     <g id="line2d_3">
      <path d="M 55.958573 257.889533 
L 55.958573 19.752246 
" clip-path="url(#p8e0c1796af)" style="fill: none; stroke: #b0b0b0; stroke-opacity: 0.3; stroke-width: 0.8; stroke-linecap: square"/>
     </g>
     <g id="line2d_4">
      <defs>
       <path id="m1f01849447" d="M 0 0 
L 0 3.5 
" style="stroke: #000000; stroke-width: 0.8"/>
      </defs>
      <g>
       <use xlink:href="#m1f01849447" x="55.958573" y="257.889533" style="stroke: #000000; stroke-width: 0.8"/>
      </g>
     </g>
     <g id="text_1">
      <text style="font-size: 10px; font-family: 'Arial'; text-anchor: middle" x="55.958573" y="272.169806" transform="rotate(-0 55.958573 272.169806)">0</text>
     </g>
    </g>
    <g id="xtick_2">
     <g id="line2d_5">
      <path d="M 113.465013 257.889533 
L 113.465013 19.752246 
" clip-path="url(#p8e0c1796af)" style="fill: none; stroke: #b0b0b0; stroke-opacity: 0.3; stroke-width: 0.8; stroke-linecap: square"/>
     </g>
     <g id="line2d_6">
      <g>
       <use xlink:href="#m1f01849447" x="113.465013" y="257.889533" style="stroke: #000000; stroke-width: 0.8"/>
      </g>
     </g>
     <g id="text_2">
      <text style="font-size: 10px; font-family: 'Arial'; text-anchor: middle" x="113.465013" y="272.169806" transform="rotate(-0 113.465013 272.169806)">20</text>
     </g>
    </g>
    <g id="xtick_3">
     <g id="line2d_7">
      <path d="M 170.971454 257.889533 
L 170.971454 19.752246 
" clip-path="url(#p8e0c1796af)" style="fill: none; stroke: #b0b0b0; stroke-opacity: 0.3; stroke-width: 0.8; stroke-linecap: square"/>
     </g>
     <g id="line2d_8">
      <g>
       <use xlink:href="#m1f01849447" x="170.971454" y="257.889533" style="stroke: #000000; stroke-width: 0.8"/>
      </g>
     </g>
     <g id="text_3">
      <text style="font-size: 10px; font-family: 'Arial'; text-anchor: middle" x="170.971454" y="272.169806" transform="rotate(-0 170.971454 272.169806)">40</text>
     </g>
    </g>
    <g id="xtick_4">
     <g id="line2d_9">
      <path d="M 228.477894 257.889533 
L 228.477894 19.752246 
" clip-path="url(#p8e0c1796af)" style="fill: none; stroke: #b0b0b0; stroke-opacity: 0.3; stroke-width: 0.8; stroke-linecap: square"/>
     </g>
     <g id="line2d_10">
      <g>
       <use xlink:href="#m1f01849447" x="228.477894" y="257.889533" style="stroke: #000000; stroke-width: 0.8"/>
      </g>
     </g>
     <g id="text_4">
      <text style="font-size: 10px; font-family: 'Arial'; text-anchor: middle" x="228.477894" y="272.169806" transform="rotate(-0 228.477894 272.169806)">60</text>
     </g>
    </g>
    <g id="xtick_5">
     <g id="line2d_11">
      <path d="M 285.984335 257.889533 
L 285.984335 19.752246 
" clip-path="url(#p8e0c1796af)" style="fill: none; stroke: #b0b0b0; stroke-opacity: 0.3; stroke-width: 0.8; stroke-linecap: square"/>
     </g>
     <g id="line2d_12">
      <g>
       <use xlink:href="#m1f01849447" x="285.984335" y="257.889533" style="stroke: #000000; stroke-width: 0.8"/>
      </g>
     </g>
     <g id="text_5">
      <text style="font-size: 10px; font-family: 'Arial'; text-anchor: middle" x="285.984335" y="272.169806" transform="rotate(-0 285.984335 272.169806)">80</text>
     </g>
    </g>
    <g id="xtick_6">
     <g id="line2d_13">
      <path d="M 343.490775 257.889533 
L 343.490775 19.752246 
" clip-path="url(#p8e0c1796af)" style="fill: none; stroke: #b0b0b0; stroke-opacity: 0.3; stroke-width: 0.8; stroke-linecap: square"/>
     </g>
     <g id="line2d_14">
      <g>
       <use xlink:href="#m1f01849447" x="343.490775" y="257.889533" style="stroke: #000000; stroke-width: 0.8"/>
      </g>
     </g>
     <g id="text_6">
      <text style="font-size: 10px; font-family: 'Arial'; text-anchor: middle" x="343.490775" y="272.169806" transform="rotate(-0 343.490775 272.169806)">100</text>
     </g>
    </g>
    <g id="xtick_7">
     <g id="line2d_15">
      <path d="M 400.997216 257.889533 
L 400.997216 19.752246 
" clip-path="url(#p8e0c1796af)" style="fill: none; stroke: #b0b0b0; stroke-opacity: 0.3; stroke-width: 0.8; stroke-linecap: square"/>
     </g>
     <g id="line2d_16">
      <g>
       <use xlink:href="#m1f01849447" x="400.997216" y="257.889533" style="stroke: #000000; stroke-width: 0.8"/>
      </g>
     </g>
     <g id="text_7">
      <text style="font-size: 10px; font-family: 'Arial'; text-anchor: middle" x="400.997216" y="272.169806" transform="rotate(-0 400.997216 272.169806)">120</text>
     </g>
    </g>
    <g id="text_8">
     <text style="font-size: 10px; font-family: 'Arial'; text-anchor: middle" x="228.477894" y="285.554572" transform="rotate(-0 228.477894 285.554572)">time (min)</text>
    </g>
   </g>
   <g id="matplotlib.axis_2">
    <g id="ytick_1">
     <g id="line2d_17">
      <path d="M 38.706641 247.065111 
L 418.249148 247.065111 
" clip-path="url(#p8e0c1796af)" style="fill: none; stroke: #b0b0b0; stroke-opacity: 0.3; stroke-width: 0.8; stroke-linecap: square"/>
     </g>
     <g id="line2d_18">
      <defs>
       <path id="m50ff4d183a" d="M 0 0 
L -3.5 0 
" style="stroke: #000000; stroke-width: 0.8"/>
      </defs>
      <g>
       <use xlink:href="#m50ff4d183a" x="38.706641" y="247.065111" style="stroke: #000000; stroke-width: 0.8"/>
      </g>
     </g>
     <g id="text_9">
      <text style="font-size: 10px; font-family: 'Arial'; text-anchor: end" x="31.706641" y="250.705248" transform="rotate(-0 31.706641 250.705248)">4</text>
     </g>
    </g>
    <g id="ytick_2">
     <g id="line2d_19">
      <path d="M 38.706641 198.956568 
L 418.249148 198.956568 
" clip-path="url(#p8e0c1796af)" style="fill: none; stroke: #b0b0b0; stroke-opacity: 0.3; stroke-width: 0.8; stroke-linecap: square"/>
     </g>
     <g id="line2d_20">
      <g>
       <use xlink:href="#m50ff4d183a" x="38.706641" y="198.956568" style="stroke: #000000; stroke-width: 0.8"/>
      </g>
     </g>
     <g id="text_10">
      <text style="font-size: 10px; font-family: 'Arial'; text-anchor: end" x="31.706641" y="202.596705" transform="rotate(-0 31.706641 202.596705)">6</text>
     </g>
    </g>
    <g id="ytick_3">
     <g id="line2d_21">
      <path d="M 38.706641 150.848025 
L 418.249148 150.848025 
" clip-path="url(#p8e0c1796af)" style="fill: none; stroke: #b0b0b0; stroke-opacity: 0.3; stroke-width: 0.8; stroke-linecap: square"/>
     </g>
     <g id="line2d_22">
      <g>
       <use xlink:href="#m50ff4d183a" x="38.706641" y="150.848025" style="stroke: #000000; stroke-width: 0.8"/>
      </g>
     </g>
     <g id="text_11">
      <text style="font-size: 10px; font-family: 'Arial'; text-anchor: end" x="31.706641" y="154.488162" transform="rotate(-0 31.706641 154.488162)">8</text>
     </g>
    </g>
    <g id="ytick_4">
     <g id="line2d_23">
      <path d="M 38.706641 102.739482 
L 418.249148 102.739482 
" clip-path="url(#p8e0c1796af)" style="fill: none; stroke: #b0b0b0; stroke-opacity: 0.3; stroke-width: 0.8; stroke-linecap: square"/>
     </g>
     <g id="line2d_24">
      <g>
       <use xlink:href="#m50ff4d183a" x="38.706641" y="102.739482" style="stroke: #000000; stroke-width: 0.8"/>
      </g>
     </g>
     <g id="text_12">
      <text style="font-size: 10px; font-family: 'Arial'; text-anchor: end" x="31.706641" y="106.379619" transform="rotate(-0 31.706641 106.379619)">10</text>
     </g>
    </g>
    <g id="ytick_5">
     <g id="line2d_25">
      <path d="M 38.706641 54.63094 
L 418.249148 54.63094 
" clip-path="url(#p8e0c1796af)" style="fill: none; stroke: #b0b0b0; stroke-opacity: 0.3; stroke-width: 0.8; stroke-linecap: square"/>
     </g>
     <g id="line2d_26">
      <g>
       <use xlink:href="#m50ff4d183a" x="38.706641" y="54.63094" style="stroke: #000000; stroke-width: 0.8"/>
      </g>
     </g>
     <g id="text_13">
      <text style="font-size: 10px; font-family: 'Arial'; text-anchor: end" x="31.706641" y="58.271076" transform="rotate(-0 31.706641 58.271076)">12</text>
     </g>
    </g>
    <g id="text_14">
     <text style="font-size: 10px; font-family: 'Arial'; text-anchor: middle" x="14.480273" y="138.82089" transform="rotate(-90 14.480273 138.82089)">count</text>
    </g>
   </g>
   <g id="line2d_27">
    <path d="M 55.958573 247.065111 
L 61.709217 247.065111 
L 67.459861 247.065111 
L 73.210505 247.065111 
L 78.961149 247.065111 
L 84.711793 247.065111 
L 90.462437 247.065111 
L 96.213081 247.065111 
L 101.963725 247.065111 
L 107.714369 247.065111 
L 113.465013 247.065111 
L 119.215657 247.065111 
L 124.966301 247.065111 
L 130.716945 247.065111 
L 136.467589 247.065111 
L 142.218233 247.065111 
L 147.968878 247.065111 
L 153.719522 247.065111 
L 159.470166 247.065111 
L 165.22081 223.010839 
L 170.971454 223.010839 
L 176.722098 223.010839 
L 182.472742 223.010839 
L 188.223386 223.010839 
L 193.97403 223.010839 
L 199.724674 223.010839 
L 205.475318 223.010839 
L 211.225962 223.010839 
L 216.976606 223.010839 
L 222.72725 223.010839 
L 228.477894 174.902297 
L 234.228538 174.902297 
L 239.979182 174.902297 
L 245.729826 174.902297 
L 251.48047 174.902297 
L 257.231114 174.902297 
L 262.981758 174.902297 
L 268.732403 174.902297 
L 274.483047 174.902297 
L 280.233691 126.793754 
L 285.984335 102.739482 
L 291.734979 54.63094 
L 297.485623 54.63094 
L 303.236267 54.63094 
L 308.986911 54.63094 
L 314.737555 54.63094 
L 320.488199 30.576668 
L 326.238843 30.576668 
L 331.989487 30.576668 
L 337.740131 30.576668 
L 343.490775 30.576668 
L 349.241419 30.576668 
L 354.992063 30.576668 
L 360.742707 30.576668 
L 366.493351 30.576668 
L 372.243995 30.576668 
L 377.994639 30.576668 
L 383.745283 30.576668 
L 389.495927 30.576668 
L 395.246572 30.576668 
L 400.997216 30.576668 
" clip-path="url(#p8e0c1796af)" style="fill: none; stroke: #d62728; stroke-width: 1.5; stroke-linecap: square"/>
    <defs>
     <path id="m08f220555e" d="M 0 1 
C 0.265203 1 0.51958 0.894634 0.707107 0.707107 
C 0.894634 0.51958 1 0.265203 1 0 
C 1 -0.265203 0.894634 -0.51958 0.707107 -0.707107 
C 0.51958 -0.894634 0.265203 -1 0 -1 
C -0.265203 -1 -0.51958 -0.894634 -0.707107 -0.707107 
C -0.894634 -0.51958 -1 -0.265203 -1 0 
C -1 0.265203 -0.894634 0.51958 -0.707107 0.707107 
C -0.51958 0.894634 -0.265203 1 0 1 
z
" style="stroke: #d62728"/>
    </defs>
    <g clip-path="url(#p8e0c1796af)">
     <use xlink:href="#m08f220555e" x="55.958573" y="247.065111" style="fill: #d62728; stroke: #d62728"/>
     <use xlink:href="#m08f220555e" x="61.709217" y="247.065111" style="fill: #d62728; stroke: #d62728"/>
     <use xlink:href="#m08f220555e" x="67.459861" y="247.065111" style="fill: #d62728; stroke: #d62728"/>
     <use xlink:href="#m08f220555e" x="73.210505" y="247.065111" style="fill: #d62728; stroke: #d62728"/>
     <use xlink:href="#m08f220555e" x="78.961149" y="247.065111" style="fill: #d62728; stroke: #d62728"/>
     <use xlink:href="#m08f220555e" x="84.711793" y="247.065111" style="fill: #d62728; stroke: #d62728"/>
     <use xlink:href="#m08f220555e" x="90.462437" y="247.065111" style="fill: #d62728; stroke: #d62728"/>
     <use xlink:href="#m08f220555e" x="96.213081" y="247.065111" style="fill: #d62728; stroke: #d62728"/>
     <use xlink:href="#m08f220555e" x="101.963725" y="247.065111" style="fill: #d62728; stroke: #d62728"/>
     <use xlink:href="#m08f220555e" x="107.714369" y="247.065111" style="fill: #d62728; stroke: #d62728"/>
     <use xlink:href="#m08f220555e" x="113.465013" y="247.065111" style="fill: #d62728; stroke: #d62728"/>
     <use xlink:href="#m08f220555e" x="119.215657" y="247.065111" style="fill: #d62728; stroke: #d62728"/>
     <use xlink:href="#m08f220555e" x="124.966301" y="247.065111" style="fill: #d62728; stroke: #d62728"/>
     <use xlink:href="#m08f220555e" x="130.716945" y="247.065111" style="fill: #d62728; stroke: #d62728"/>
     <use xlink:href="#m08f220555e" x="136.467589" y="247.065111" style="fill: #d62728; stroke: #d62728"/>
     <use xlink:href="#m08f220555e" x="142.218233" y="247.065111" style="fill: #d62728; stroke: #d62728"/>
     <use xlink:href="#m08f220555e" x="147.968878" y="247.065111" style="fill: #d62728; stroke: #d62728"/>
     <use xlink:href="#m08f220555e" x="153.719522" y="247.065111" style="fill: #d62728; stroke: #d62728"/>
     <use xlink:href="#m08f220555e" x="159.470166" y="247.065111" style="fill: #d62728; stroke: #d62728"/>
     <use xlink:href="#m08f220555e" x="165.22081" y="223.010839" style="fill: #d62728; stroke: #d62728"/>
     <use xlink:href="#m08f220555e" x="170.971454" y="223.010839" style="fill: #d62728; stroke: #d62728"/>
     <use xlink:href="#m08f220555e" x="176.722098" y="223.010839" style="fill: #d62728; stroke: #d62728"/>
     <use xlink:href="#m08f220555e" x="182.472742" y="223.010839" style="fill: #d62728; stroke: #d62728"/>
     <use xlink:href="#m08f220555e" x="188.223386" y="223.010839" style="fill: #d62728; stroke: #d62728"/>
     <use xlink:href="#m08f220555e" x="193.97403" y="223.010839" style="fill: #d62728; stroke: #d62728"/>
     <use xlink:href="#m08f220555e" x="199.724674" y="223.010839" style="fill: #d62728; stroke: #d62728"/>
     <use xlink:href="#m08f220555e" x="205.475318" y="223.010839" style="fill: #d62728; stroke: #d62728"/>
     <use xlink:href="#m08f220555e" x="211.225962" y="223.010839" style="fill: #d62728; stroke: #d62728"/>
     <use xlink:href="#m08f220555e" x="216.976606" y="223.010839" style="fill: #d62728; stroke: #d62728"/>
     <use xlink:href="#m08f220555e" x="222.72725" y="223.010839" style="fill: #d62728; stroke: #d62728"/>
     <use xlink:href="#m08f220555e" x="228.477894" y="174.902297" style="fill: #d62728; stroke: #d62728"/>
     <use xlink:href="#m08f220555e" x="234.228538" y="174.902297" style="fill: #d62728; stroke: #d62728"/>
     <use xlink:href="#m08f220555e" x="239.979182" y="174.902297" style="fill: #d62728; stroke: #d62728"/>
     <use xlink:href="#m08f220555e" x="245.729826" y="174.902297" style="fill: #d62728; stroke: #d62728"/>
     <use xlink:href="#m08f220555e" x="251.48047" y="174.902297" style="fill: #d62728; stroke: #d62728"/>
     <use xlink:href="#m08f220555e" x="257.231114" y="174.902297" style="fill: #d62728; stroke: #d62728"/>
     <use xlink:href="#m08f220555e" x="262.981758" y="174.902297" style="fill: #d62728; stroke: #d62728"/>
     <use xlink:href="#m08f220555e" x="268.732403" y="174.902297" style="fill: #d62728; stroke: #d62728"/>
     <use xlink:href="#m08f220555e" x="274.483047" y="174.902297" style="fill: #d62728; stroke: #d62728"/>
     <use xlink:href="#m08f220555e" x="280.233691" y="126.793754" style="fill: #d62728; stroke: #d62728"/>
     <use xlink:href="#m08f220555e" x="285.984335" y="102.739482" style="fill: #d62728; stroke: #d62728"/>
     <use xlink:href="#m08f220555e" x="291.734979" y="54.63094" style="fill: #d62728; stroke: #d62728"/>
     <use xlink:href="#m08f220555e" x="297.485623" y="54.63094" style="fill: #d62728; stroke: #d62728"/>
     <use xlink:href="#m08f220555e" x="303.236267" y="54.63094" style="fill: #d62728; stroke: #d62728"/>
     <use xlink:href="#m08f220555e" x="308.986911" y="54.63094" style="fill: #d62728; stroke: #d62728"/>
     <use xlink:href="#m08f220555e" x="314.737555" y="54.63094" style="fill: #d62728; stroke: #d62728"/>
     <use xlink:href="#m08f220555e" x="320.488199" y="30.576668" style="fill: #d62728; stroke: #d62728"/>
     <use xlink:href="#m08f220555e" x="326.238843" y="30.576668" style="fill: #d62728; stroke: #d62728"/>
     <use xlink:href="#m08f220555e" x="331.989487" y="30.576668" style="fill: #d62728; stroke: #d62728"/>
     <use xlink:href="#m08f220555e" x="337.740131" y="30.576668" style="fill: #d62728; stroke: #d62728"/>
     <use xlink:href="#m08f220555e" x="343.490775" y="30.576668" style="fill: #d62728; stroke: #d62728"/>
     <use xlink:href="#m08f220555e" x="349.241419" y="30.576668" style="fill: #d62728; stroke: #d62728"/>
     <use xlink:href="#m08f220555e" x="354.992063" y="30.576668" style="fill: #d62728; stroke: #d62728"/>
     <use xlink:href="#m08f220555e" x="360.742707" y="30.576668" style="fill: #d62728; stroke: #d62728"/>
     <use xlink:href="#m08f220555e" x="366.493351" y="30.576668" style="fill: #d62728; stroke: #d62728"/>
     <use xlink:href="#m08f220555e" x="372.243995" y="30.576668" style="fill: #d62728; stroke: #d62728"/>
     <use xlink:href="#m08f220555e" x="377.994639" y="30.576668" style="fill: #d62728; stroke: #d62728"/>
     <use xlink:href="#m08f220555e" x="383.745283" y="30.576668" style="fill: #d62728; stroke: #d62728"/>
     <use xlink:href="#m08f220555e" x="389.495927" y="30.576668" style="fill: #d62728; stroke: #d62728"/>
     <use xlink:href="#m08f220555e" x="395.246572" y="30.576668" style="fill: #d62728; stroke: #d62728"/>
     <use xlink:href="#m08f220555e" x="400.997216" y="30.576668" style="fill: #d62728; stroke: #d62728"/>
    </g>
   </g>
   <g id="patch_3">
    <path d="M 38.706641 257.889533 
L 38.706641 19.752246 
" style="fill: none; stroke: #000000; stroke-width: 0.8; stroke-linejoin: miter; stroke-linecap: square"/>
   </g>
   <g id="patch_4">
    <path d="M 418.249148 257.889533 
L 418.249148 19.752246 
" style="fill: none; stroke: #000000; stroke-width: 0.8; stroke-linejoin: miter; stroke-linecap: square"/>
   </g>
   <g id="patch_5">
    <path d="M 38.706641 257.889533 
L 418.249148 257.889533 
" style="fill: none; stroke: #000000; stroke-width: 0.8; stroke-linejoin: miter; stroke-linecap: square"/>
   </g>
   <g id="patch_6">
    <path d="M 38.706641 19.752246 
L 418.249148 19.752246 
" style="fill: none; stroke: #000000; stroke-width: 0.8; stroke-linejoin: miter; stroke-linecap: square"/>
   </g>
   <g id="text_15">
    <text style="font-size: 9px; font-family: 'Arial'; text-anchor: middle" x="228.477894" y="13.752246" transform="rotate(-0 228.477894 13.752246)">Complete flagella — population aggregate</text>
   </g>
  </g>
 </g>
 <defs>
  <clipPath id="p8e0c1796af">
   <rect x="38.706641" y="19.752246" width="379.542507" height="238.137287"/>
  </clipPath>
 </defs>
</svg>
