<svg xmlns="http://www.w3.org/2000/svg" width="760" height="420" viewBox="0 0 760 420" font-family="-apple-system,sans-serif" font-size="13">
<rect width="760" height="420" fill="white"/>
<rect x="0" y="0" width="760" height="42" fill="#0f172a"/>
<text x="380.0" y="27" text-anchor="middle" fill="white" font-weight="600" font-size="15">dnaa-04 — Initiation mechanism: scoreboard</text>
<rect x="30" y="60" width="700" height="44" fill="#f8fafc" rx="3"/>
<text x="42" y="80" fill="#0f172a" font-weight="600">Current trigger: mass-threshold heuristic</text>
<text x="42" y="96" fill="#64748b" font-size="11">criticalMassPerOriC >= 1.0</text>
<text x="570" y="86" text-anchor="end" fill="#0f172a" font-weight="600" font-size="14" font-family="ui-monospace,monospace">chromosome_replication.py:244</text>
<rect x="620" y="70" width="100" height="24" rx="12" fill="#3b82f6"/>
<text x="670" y="86" text-anchor="middle" fill="white" font-weight="700" font-size="11">◆ INFO</text>
<rect x="30" y="110" width="700" height="44" fill="#f8fafc" rx="3"/>
<text x="42" y="130" fill="#0f172a" font-weight="600">Swap target: DnaA-occupancy-based</text>
<text x="42" y="146" fill="#64748b" font-size="11">n_DnaA_bound_at_oriC >= filament_threshold</text>
<text x="570" y="136" text-anchor="end" fill="#0f172a" font-weight="600" font-size="14" font-family="ui-monospace,monospace">~11 (from dnaa-03)</text>
<rect x="620" y="120" width="100" height="24" rx="12" fill="#3b82f6"/>
<text x="670" y="136" text-anchor="middle" fill="white" font-weight="700" font-size="11">◆ INFO</text>
<rect x="30" y="160" width="700" height="44" fill="#f8fafc" rx="3"/>
<text x="42" y="180" fill="#0f172a" font-weight="600">Stub processes ready to fill in</text>
<text x="42" y="196" fill="#64748b" font-size="11">chromosome_initiation.DnaABinder + ChromosomePartition</text>
<text x="570" y="186" text-anchor="end" fill="#0f172a" font-weight="600" font-size="14" font-family="ui-monospace,monospace">EMPTY UPDATE()</text>
<rect x="620" y="170" width="100" height="24" rx="12" fill="#3b82f6"/>
<text x="670" y="186" text-anchor="middle" fill="white" font-weight="700" font-size="11">◆ INFO</text>
<rect x="30" y="210" width="700" height="44" fill="#f8fafc" rx="3"/>
<text x="42" y="230" fill="#0f172a" font-weight="600">Sim state at 10 min (validated baseline)</text>
<text x="42" y="246" fill="#64748b" font-size="11">2 oriCs + 2 forks at ±1.33Mb (mid-replication)</text>
<text x="570" y="236" text-anchor="end" fill="#0f172a" font-weight="600" font-size="14" font-family="ui-monospace,monospace">No NEW init in window</text>
<rect x="620" y="220" width="100" height="24" rx="12" fill="#f59e0b"/>
<text x="670" y="236" text-anchor="middle" fill="white" font-weight="700" font-size="11">⚠ PARTIAL</text>
<rect x="30" y="260" width="700" height="44" fill="#f8fafc" rx="3"/>
<text x="42" y="280" fill="#0f172a" font-weight="600">Validation requires longer sims</text>
<text x="42" y="296" fill="#64748b" font-size="11">≥60 min to capture termination + new initiation</text>
<text x="570" y="286" text-anchor="end" fill="#0f172a" font-weight="600" font-size="14" font-family="ui-monospace,monospace">NEXT WORK</text>
<rect x="620" y="270" width="100" height="24" rx="12" fill="#3b82f6"/>
<text x="670" y="286" text-anchor="middle" fill="white" font-weight="700" font-size="11">◆ INFO</text>
<rect x="30" y="310" width="700" height="44" fill="#f8fafc" rx="3"/>
<text x="42" y="330" fill="#0f172a" font-weight="600">Box machinery is replication-aware</text>
<text x="42" y="346" fill="#64748b" font-size="11">Boxes grew 456 → 491 behind moving forks</text>
<text x="570" y="336" text-anchor="end" fill="#0f172a" font-weight="600" font-size="14" font-family="ui-monospace,monospace">CORRECT</text>
<rect x="620" y="320" width="100" height="24" rx="12" fill="#16a34a"/>
<text x="670" y="336" text-anchor="middle" fill="white" font-weight="700" font-size="11">✓ PASS</text>
</svg>