<?xml version="1.0" encoding="utf-8" standalone="no"?>
<!DOCTYPE svg PUBLIC "-//W3C//DTD SVG 1.1//EN"
  "http://www.w3.org/Graphics/SVG/1.1/DTD/svg11.dtd">
<svg xmlns:xlink="http://www.w3.org/1999/xlink" width="621.25625pt" height="392.514375pt" viewBox="0 0 621.25625 392.514375" xmlns="http://www.w3.org/2000/svg" version="1.1">
 <metadata>
  <rdf:RDF xmlns:dc="http://purl.org/dc/elements/1.1/" xmlns:cc="http://creativecommons.org/ns#" xmlns:rdf="http://www.w3.org/1999/02/22-rdf-syntax-ns#">
   <cc:Work>
    <dc:type rdf:resource="http://purl.org/dc/dcmitype/StillImage"/>
    <dc:date>2026-05-29T06:05:58.022890</dc:date>
    <dc:format>image/svg+xml</dc:format>
    <dc:creator>
     <cc:Agent>
      <dc:title>Matplotlib v3.10.9, https://matplotlib.org/</dc:title>
     </cc:Agent>
    </dc:creator>
   </cc:Work>
  </rdf:RDF>
 </metadata>
 <defs>
  <style type="text/css">*{stroke-linejoin: round; stroke-linecap: butt}</style>
 </defs>
 <g id="figure_1">
  <g id="patch_1">
   <path d="M 0 392.514375 
L 621.25625 392.514375 
L 621.25625 0 
L 0 0 
z
" style="fill: #ffffff"/>
  </g>
  <g id="axes_1">
   <g id="patch_2">
    <path d="M 56.05625 354.958125 
L 614.05625 354.958125 
L 614.05625 22.318125 
L 56.05625 22.318125 
z
" style="fill: #ffffff"/>
   </g>
   <g id="FillBetweenPolyCollection_1">
    <defs>
     <path id="m959d8685aa" d="M 81.419886 -53.450729 
L 81.419886 -53.448155 
L 82.125412 -53.44665 
L 82.830937 -53.441776 
L 83.536462 -53.436869 
L 84.241988 -53.432007 
L 84.947513 -53.427142 
L 85.653038 -53.422327 
L 86.358564 -53.417604 
L 87.064089 -53.413823 
L 87.769615 -53.410725 
L 88.47514 -53.408113 
L 89.180665 -53.405861 
L 89.886191 -53.403856 
L 90.591716 -53.402097 
L 91.297241 -53.400532 
L 92.002767 -53.399026 
L 92.708292 -53.39757 
L 93.413817 -53.396208 
L 94.119343 -53.394868 
L 94.824868 -53.393446 
L 95.530393 -53.391937 
L 96.235919 -53.390476 
L 96.941444 -53.389019 
L 97.646969 -53.387518 
L 98.352495 -53.386009 
L 99.05802 -53.384451 
L 99.763545 -53.382991 
L 100.469071 -53.381612 
L 101.174596 -53.380225 
L 101.880122 -53.378975 
L 102.585647 -53.377757 
L 103.291172 -53.376468 
L 103.996698 -53.375228 
L 104.702223 -53.374031 
L 105.407748 -53.372855 
L 106.113274 -53.371683 
L 106.818799 -53.370501 
L 107.524324 -53.369403 
L 108.22985 -53.368244 
L 108.935375 -53.367023 
L 109.6409 -53.365817 
L 110.346426 -53.364668 
L 111.051951 -53.363556 
L 111.757476 -53.362507 
L 112.463002 -53.361555 
L 113.168527 -53.360598 
L 113.874053 -53.359596 
L 114.579578 -53.357603 
L 115.285103 -53.355058 
L 115.990629 -53.352258 
L 116.696154 -53.349416 
L 117.401679 -53.346613 
L 118.107205 -53.343933 
L 118.81273 -53.341146 
L 119.518255 -53.338375 
L 120.223781 -53.335389 
L 120.929306 -53.33257 
L 121.634831 -53.329664 
L 122.340357 -53.327021 
L 123.045882 -53.324022 
L 123.751407 -53.321293 
L 124.456933 -53.318566 
L 125.162458 -53.31616 
L 125.867983 -53.313489 
L 126.573509 -53.310766 
L 127.279034 -53.30799 
L 127.98456 -53.305085 
L 128.690085 -53.302217 
L 129.39561 -53.299543 
L 130.101136 -53.296947 
L 130.806661 -53.294514 
L 131.512186 -53.291921 
L 132.217712 -53.28938 
L 132.923237 -53.286698 
L 133.628762 -53.283969 
L 134.334288 -53.281172 
L 135.039813 -53.27858 
L 135.745338 -53.27584 
L 136.450864 -53.273129 
L 137.156389 -53.270597 
L 137.861914 -53.267721 
L 138.56744 -53.264805 
L 139.272965 -53.262 
L 139.97849 -53.25922 
L 140.684016 -53.256563 
L 141.389541 -53.253735 
L 142.095067 -53.250862 
L 142.800592 -53.247887 
L 143.506117 -53.244873 
L 144.211643 -53.24227 
L 144.917168 -53.239693 
L 145.622693 -53.237077 
L 146.328219 -53.234513 
L 147.033744 -53.231973 
L 147.739269 -53.229247 
L 148.444795 -53.226503 
L 149.15032 -53.223826 
L 149.855845 -53.221119 
L 150.561371 -53.218639 
L 151.266896 -53.216001 
L 151.972421 -53.213213 
L 152.677947 -53.210488 
L 153.383472 -53.207893 
L 154.088998 -53.205002 
L 154.794523 -53.202166 
L 155.500048 -53.199551 
L 156.205574 -53.197118 
L 156.911099 -53.194714 
L 157.616624 -53.192243 
L 158.32215 -53.189574 
L 159.027675 -53.186848 
L 159.7332 -53.184121 
L 160.438726 -53.181204 
L 161.144251 -53.17819 
L 161.849776 -53.175081 
L 162.555302 -53.172012 
L 163.260827 -53.169182 
L 163.966352 -53.166333 
L 164.671878 -53.163628 
L 165.377403 -53.160805 
L 166.082928 -53.158085 
L 166.788454 -53.155178 
L 167.493979 -53.152334 
L 168.199505 -53.149298 
L 168.90503 -53.146252 
L 169.610555 -53.143492 
L 170.316081 -53.14038 
L 171.021606 -53.137261 
L 171.727131 -53.134237 
L 172.432657 -53.131387 
L 173.138182 -53.128725 
L 173.843707 -53.125718 
L 174.549233 -53.122663 
L 175.254758 -53.119707 
L 175.960283 -53.117109 
L 176.665809 -53.11455 
L 177.371334 -53.111949 
L 178.076859 -53.109429 
L 178.782385 -53.106874 
L 179.48791 -53.104165 
L 180.193435 -53.100991 
L 180.898961 -53.098132 
L 181.604486 -53.095222 
L 182.310012 -53.092031 
L 183.015537 -53.088819 
L 183.721062 -53.085753 
L 184.426588 -53.082996 
L 185.132113 -53.080093 
L 185.837638 -53.076796 
L 186.543164 -53.073629 
L 187.248689 -53.070703 
L 187.954214 -53.067711 
L 188.65974 -53.064687 
L 189.365265 -53.061655 
L 190.07079 -53.05836 
L 190.776316 -53.055036 
L 191.481841 -53.051591 
L 192.187366 -53.048559 
L 192.892892 -53.045667 
L 193.598417 -53.042504 
L 194.303943 -53.039542 
L 195.009468 -53.036597 
L 195.714993 -53.033533 
L 196.420519 -53.030505 
L 197.126044 -53.027415 
L 197.831569 -53.024408 
L 198.537095 -53.021228 
L 199.24262 -53.018017 
L 199.948145 -53.014733 
L 200.653671 -53.011264 
L 201.359196 -53.00762 
L 202.064721 -53.003955 
L 202.770247 -53.000374 
L 203.475772 -52.996797 
L 204.181297 -52.993027 
L 204.886823 -52.989354 
L 205.592348 -52.985805 
L 206.297873 -52.982083 
L 207.003399 -52.978464 
L 207.708924 -52.975097 
L 208.41445 -52.971704 
L 209.119975 -52.968031 
L 209.8255 -52.964026 
L 210.531026 -52.960118 
L 211.236551 -52.955924 
L 211.942076 -52.951813 
L 212.647602 -52.947737 
L 213.353127 -52.943657 
L 214.058652 -52.939977 
L 214.764178 -52.936193 
L 215.469703 -52.932565 
L 216.175228 -52.928825 
L 216.880754 -52.924868 
L 217.586279 -52.92134 
L 218.291804 -52.917696 
L 218.99733 -52.9142 
L 219.702855 -52.91057 
L 220.40838 -52.906806 
L 221.113906 -52.903216 
L 221.819431 -52.900008 
L 222.524957 -52.896704 
L 223.230482 -52.893324 
L 223.936007 -52.890619 
L 224.641533 -52.887587 
L 225.347058 -52.884486 
L 226.052583 -52.881016 
L 226.758109 -52.877715 
L 227.463634 -52.874578 
L 228.169159 -52.871123 
L 228.874685 -52.867526 
L 229.58021 -52.863561 
L 230.285735 -52.859656 
L 230.991261 -52.855872 
L 231.696786 -52.852058 
L 232.402311 -52.848141 
L 233.107837 -52.844145 
L 233.813362 -52.840303 
L 234.518888 -52.836559 
L 235.224413 -52.832877 
L 235.929938 -52.829078 
L 236.635464 -52.825193 
L 237.340989 -52.821303 
L 238.046514 -52.81733 
L 238.75204 -52.813472 
L 239.457565 -52.809429 
L 240.16309 -52.805297 
L 240.868616 -52.801365 
L 241.574141 -52.797449 
L 242.279666 -52.79381 
L 242.985192 -52.789874 
L 243.690717 -52.785905 
L 244.396242 -52.78201 
L 245.101768 -52.777818 
L 245.807293 -52.773701 
L 246.512818 -52.769366 
L 247.218344 -52.764987 
L 247.923869 -52.760509 
L 248.629395 -52.75572 
L 249.33492 -52.751009 
L 250.040445 -52.746379 
L 250.745971 -52.741695 
L 251.451496 -52.736885 
L 252.157021 -52.73214 
L 252.862547 -52.727339 
L 253.568072 -52.722649 
L 254.273597 -52.71771 
L 254.979123 -52.712732 
L 255.684648 -52.707742 
L 256.390173 -52.702948 
L 257.095699 -52.698277 
L 257.801224 -52.693527 
L 258.506749 -52.688962 
L 259.212275 -52.68417 
L 259.9178 -52.67625 
L 260.623325 -52.833296 
L 261.328851 -52.861696 
L 262.034376 -52.88839 
L 262.739902 -52.913676 
L 263.445427 -52.938709 
L 264.150952 -52.964222 
L 264.856478 -52.989972 
L 265.562003 -53.015568 
L 266.267528 -53.040562 
L 266.973054 -53.065745 
L 267.678579 -53.09109 
L 268.384104 -53.116712 
L 269.08963 -53.141941 
L 269.795155 -53.167403 
L 270.50068 -53.193201 
L 271.206206 -53.219272 
L 271.911731 -53.245176 
L 272.617256 -53.271274 
L 273.322782 -53.296557 
L 274.028307 -53.322127 
L 274.733833 -53.346443 
L 275.439358 -53.371504 
L 276.144883 -53.396704 
L 276.850409 -53.422001 
L 277.555934 -53.447626 
L 278.261459 -53.473766 
L 278.966985 -53.50027 
L 279.67251 -53.527481 
L 280.378035 -53.55498 
L 281.083561 -53.582042 
L 281.789086 -53.608958 
L 282.494611 -53.636193 
L 283.200137 -53.663251 
L 283.905662 -53.690549 
L 284.611187 -53.718553 
L 285.316713 -53.74648 
L 286.022238 -53.773729 
L 286.727763 -53.8008 
L 287.433289 -53.827375 
L 288.138814 -53.854697 
L 288.84434 -53.881278 
L 289.549865 -53.907742 
L 290.25539 -53.934072 
L 290.960916 -53.960114 
L 291.666441 -53.987017 
L 292.371966 -54.013923 
L 293.077492 -54.040496 
L 293.783017 -54.066852 
L 294.488542 -54.094427 
L 295.194068 -54.122702 
L 295.899593 -54.150014 
L 296.605118 -54.176537 
L 297.310644 -54.203239 
L 298.016169 -54.230875 
L 298.721694 -54.257866 
L 299.42722 -54.284787 
L 300.132745 -54.311534 
L 300.83827 -54.337096 
L 301.543796 -54.359947 
L 302.249321 -54.376011 
L 302.954847 -54.384175 
L 303.660372 -54.387623 
L 304.365897 -54.388852 
L 305.071423 -54.389151 
L 305.776948 -54.388954 
L 306.482473 -54.388479 
L 307.187999 -54.387915 
L 307.893524 -54.387301 
L 308.599049 -54.38666 
L 309.304575 -54.386065 
L 310.0101 -54.385223 
L 310.715625 -54.384412 
L 311.421151 -54.383677 
L 312.126676 -54.382891 
L 312.832201 -54.382226 
L 313.537727 -54.381359 
L 314.243252 -54.380408 
L 314.948778 -54.379553 
L 315.654303 -54.3785 
L 316.359828 -54.377725 
L 317.065354 -54.376971 
L 317.770879 -54.376064 
L 318.476404 -54.375236 
L 319.18193 -54.374347 
L 319.887455 -54.373415 
L 320.59298 -54.372432 
L 321.298506 -54.371455 
L 322.004031 -54.370464 
L 322.709556 -54.369423 
L 323.415082 -54.36853 
L 324.120607 -54.367693 
L 324.826132 -54.36676 
L 325.531658 -54.365978 
L 326.237183 -54.365209 
L 326.942708 -54.364235 
L 327.648234 -54.363203 
L 328.353759 -54.362171 
L 329.059285 -54.361067 
L 329.76481 -54.360049 
L 330.470335 -54.359094 
L 331.175861 -54.35803 
L 331.881386 -54.357093 
L 332.586911 -54.356076 
L 333.292437 -54.354937 
L 333.997962 -54.353917 
L 334.703487 -54.352785 
L 335.409013 -54.351719 
L 336.114538 -54.350588 
L 336.820063 -54.349426 
L 337.525589 -54.348264 
L 338.231114 -54.347222 
L 338.936639 -54.346143 
L 339.642165 -54.345097 
L 340.34769 -54.344088 
L 341.053215 -54.343051 
L 341.758741 -54.3419 
L 342.464266 -54.340694 
L 343.169792 -54.339378 
L 343.875317 -54.338162 
L 344.580842 -54.337196 
L 345.286368 -54.336141 
L 345.991893 -54.335205 
L 346.697418 -54.334213 
L 347.402944 -54.333128 
L 348.108469 -54.331885 
L 348.813994 -54.330826 
L 349.51952 -54.329548 
L 350.225045 -54.328047 
L 350.93057 -54.326691 
L 351.636096 -54.325277 
L 352.341621 -54.323773 
L 353.047146 -54.32223 
L 353.752672 -54.320801 
L 354.458197 -54.319413 
L 355.163722 -54.317821 
L 355.869248 -54.31622 
L 356.574773 -54.314734 
L 357.280299 -54.313201 
L 357.985824 -54.311646 
L 358.691349 -54.310169 
L 359.396875 -54.308532 
L 360.1024 -54.307017 
L 360.807925 -54.30562 
L 361.513451 -54.304154 
L 362.218976 -54.30275 
L 362.924501 -54.301384 
L 363.630027 -54.299789 
L 364.335552 -54.298306 
L 365.041077 -54.296847 
L 365.746603 -54.295235 
L 366.452128 -54.293864 
L 367.157653 -54.292275 
L 367.863179 -54.290613 
L 368.568704 -54.288866 
L 369.27423 -54.287037 
L 369.979755 -54.285056 
L 370.68528 -54.283139 
L 371.390806 -54.281236 
L 372.096331 -54.279293 
L 372.801856 -54.27743 
L 373.507382 -54.275688 
L 374.212907 -54.273746 
L 374.918432 -54.271814 
L 375.623958 -54.26996 
L 376.329483 -54.268146 
L 377.035008 -54.266452 
L 377.740534 -54.264718 
L 378.446059 -54.262879 
L 379.151584 -54.261156 
L 379.85711 -54.25949 
L 380.562635 -54.257592 
L 381.26816 -54.255711 
L 381.973686 -54.254268 
L 382.679211 -54.252732 
L 383.384737 -54.251031 
L 384.090262 -54.249514 
L 384.795787 -54.248183 
L 385.501313 -54.246821 
L 386.206838 -54.245452 
L 386.912363 -54.244266 
L 387.617889 -54.243222 
L 388.323414 -54.242164 
L 389.028939 -54.241037 
L 389.734465 -54.23977 
L 390.43999 -54.238451 
L 391.145515 -54.237121 
L 391.851041 -54.235841 
L 392.556566 -54.234709 
L 393.262091 -54.233229 
L 393.967617 -54.231636 
L 394.673142 -54.230344 
L 395.378667 -54.229026 
L 396.084193 -54.227608 
L 396.789718 -54.226359 
L 397.495244 -54.225077 
L 398.200769 -54.223754 
L 398.906294 -54.22239 
L 399.61182 -54.221215 
L 400.317345 -54.220125 
L 401.02287 -54.21904 
L 401.728396 -54.217684 
L 402.433921 -54.216431 
L 403.139446 -54.215178 
L 403.844972 -54.214065 
L 404.550497 -54.21282 
L 405.256022 -54.211707 
L 405.961548 -54.210469 
L 406.667073 -54.209184 
L 407.372598 -54.207693 
L 408.078124 -54.206128 
L 408.783649 -54.20479 
L 409.489175 -54.203568 
L 410.1947 -54.202414 
L 410.900225 -54.201569 
L 411.605751 -54.200535 
L 412.311276 -54.19925 
L 413.016801 -54.197986 
L 413.722327 -54.19671 
L 414.427852 -54.195285 
L 415.133377 -54.193822 
L 415.838903 -54.19222 
L 416.544428 -54.190672 
L 417.249953 -54.189012 
L 417.955479 -54.187537 
L 418.661004 -54.185905 
L 419.366529 -54.184209 
L 420.072055 -54.182373 
L 420.77758 -54.180706 
L 421.483105 -54.178872 
L 422.188631 -54.176921 
L 422.894156 -54.175293 
L 423.599682 -54.173612 
L 424.305207 -54.17194 
L 425.010732 -54.170238 
L 425.716258 -54.168637 
L 426.421783 -54.166969 
L 427.127308 -54.165013 
L 427.832834 -54.163305 
L 428.538359 -54.161588 
L 429.243884 -54.15988 
L 429.94941 -54.15841 
L 430.654935 -54.156646 
L 431.36046 -54.154729 
L 432.065986 -54.152853 
L 432.771511 -54.150793 
L 433.477036 -54.148247 
L 434.182562 -54.145816 
L 434.888087 -54.143562 
L 435.593612 -54.141389 
L 436.299138 -54.139423 
L 437.004663 -54.137483 
L 437.710189 -54.135484 
L 438.415714 -54.133607 
L 439.121239 -54.131785 
L 439.826765 -54.13025 
L 440.53229 -54.128848 
L 441.237815 -54.127359 
L 441.943341 -54.12571 
L 442.648866 -54.124248 
L 443.354391 -54.122692 
L 444.059917 -54.121142 
L 444.765442 -54.119406 
L 445.470967 -54.117551 
L 446.176493 -54.115771 
L 446.882018 -54.114057 
L 447.587543 -54.11229 
L 448.293069 -54.110324 
L 448.998594 -54.10831 
L 449.70412 -54.106548 
L 450.409645 -54.104741 
L 451.11517 -54.10326 
L 451.820696 -54.10168 
L 452.526221 -54.099922 
L 453.231746 -54.097961 
L 453.937272 -54.09621 
L 454.642797 -54.094908 
L 455.348322 -54.093482 
L 456.053848 -54.091857 
L 456.759373 -54.090094 
L 457.464898 -54.088267 
L 458.170424 -54.086852 
L 458.875949 -54.085321 
L 459.581474 -54.083809 
L 460.287 -54.082126 
L 460.992525 -54.080254 
L 461.69805 -54.078358 
L 462.403576 -54.076213 
L 463.109101 -54.07385 
L 463.814627 -54.071613 
L 464.520152 -54.069414 
L 465.225677 -54.067148 
L 465.931203 -54.064813 
L 466.636728 -54.062591 
L 467.342253 -54.060457 
L 468.047779 -54.058245 
L 468.753304 -54.055637 
L 469.458829 -54.053678 
L 470.164355 -54.052116 
L 470.86988 -54.050514 
L 471.575405 -54.048501 
L 472.280931 -54.046545 
L 472.986456 -54.04448 
L 473.691981 -54.042477 
L 474.397507 -54.04042 
L 475.103032 -54.038124 
L 475.808557 -54.035825 
L 476.514083 -54.033815 
L 477.219608 -54.031548 
L 477.925134 -54.02941 
L 478.630659 -54.027199 
L 479.336184 -54.025018 
L 480.04171 -54.02284 
L 480.747235 -54.020891 
L 481.45276 -54.01881 
L 482.158286 -54.016368 
L 482.863811 -54.013973 
L 483.569336 -54.011888 
L 484.274862 -54.009617 
L 484.980387 -54.007149 
L 485.685912 -54.004764 
L 486.391438 -54.002674 
L 487.096963 -54.000479 
L 487.802488 -53.998238 
L 488.508014 -53.9959 
L 489.213539 -53.993533 
L 489.919065 -53.990993 
L 490.62459 -53.988834 
L 491.330115 -53.98675 
L 492.035641 -53.984327 
L 492.741166 -53.981674 
L 493.446691 -53.978761 
L 494.152217 -53.975714 
L 494.857742 -53.972759 
L 495.563267 -53.969945 
L 496.268793 -53.967169 
L 496.974318 -53.96401 
L 497.679843 -53.961026 
L 498.385369 -53.95796 
L 499.090894 -53.954967 
L 499.796419 -53.951944 
L 500.501945 -53.949083 
L 501.20747 -53.946108 
L 501.912995 -53.943045 
L 502.618521 -53.939769 
L 503.324046 -53.936507 
L 504.029572 -53.933237 
L 504.735097 -53.929878 
L 505.440622 -53.926638 
L 506.146148 -53.923174 
L 506.851673 -53.919972 
L 507.557198 -53.916927 
L 508.262724 -53.913445 
L 508.968249 -53.910043 
L 509.673774 -53.906546 
L 510.3793 -53.902806 
L 511.084825 -53.899212 
L 511.79035 -53.895431 
L 512.495876 -53.891753 
L 513.201401 -53.888137 
L 513.906926 -53.88448 
L 514.612452 -53.880884 
L 515.317977 -53.877213 
L 516.023502 -53.873643 
L 516.729028 -53.869983 
L 517.434553 -53.866355 
L 518.140079 -53.862838 
L 518.845604 -53.859604 
L 519.551129 -53.856331 
L 520.256655 -53.852844 
L 520.96218 -53.849192 
L 521.667705 -53.845324 
L 522.373231 -53.841462 
L 523.078756 -53.837842 
L 523.784281 -53.834303 
L 524.489807 -53.830547 
L 525.195332 -53.826796 
L 525.900857 -53.822991 
L 526.606383 -53.819189 
L 527.311908 -53.815173 
L 528.017433 -53.810973 
L 528.722959 -53.806836 
L 529.428484 -53.802771 
L 530.13401 -53.798779 
L 530.839535 -53.794883 
L 531.54506 -53.790906 
L 532.250586 -53.787058 
L 532.956111 -53.783405 
L 533.661636 -53.779508 
L 534.367162 -53.775308 
L 535.072687 -53.770864 
L 535.778212 -53.766555 
L 536.483738 -53.762374 
L 537.189263 -53.758086 
L 537.894788 -53.753692 
L 538.600314 -53.749436 
L 539.305839 -53.745378 
L 540.011364 -53.741289 
L 540.71689 -53.73743 
L 541.422415 -53.733728 
L 542.12794 -53.729904 
L 542.833466 -53.725765 
L 543.538991 -53.721633 
L 544.244517 -53.717468 
L 544.950042 -53.713059 
L 545.655567 -53.708768 
L 546.361093 -53.704607 
L 547.066618 -53.700679 
L 547.772143 -53.696669 
L 548.477669 -53.692494 
L 549.183194 -53.688414 
L 549.888719 -53.684441 
L 550.594245 -53.680453 
L 551.29977 -53.676535 
L 552.005295 -53.672419 
L 552.710821 -53.668356 
L 553.416346 -53.664353 
L 554.121871 -53.660177 
L 554.827397 -53.655997 
L 555.532922 -53.651719 
L 556.238447 -53.647419 
L 556.943973 -53.643525 
L 557.649498 -53.639704 
L 558.355024 -53.635588 
L 559.060549 -53.631548 
L 559.766074 -53.62741 
L 560.4716 -53.623303 
L 561.177125 -53.619128 
L 561.88265 -53.614648 
L 562.588176 -53.610439 
L 563.293701 -53.606142 
L 563.999226 -53.601638 
L 564.704752 -53.596991 
L 565.410277 -53.592383 
L 566.115802 -53.587808 
L 566.821328 -53.583513 
L 567.526853 -53.578903 
L 568.232378 -53.574178 
L 568.937904 -53.56932 
L 569.643429 -53.56446 
L 570.348955 -53.559398 
L 571.05448 -53.554548 
L 571.760005 -53.549759 
L 572.465531 -53.545099 
L 573.171056 -53.540347 
L 573.876581 -53.535483 
L 574.582107 -53.530898 
L 575.287632 -53.52616 
L 575.993157 -53.521306 
L 576.698683 -53.516528 
L 577.404208 -53.511809 
L 578.109733 -53.507146 
L 578.815259 -53.50235 
L 579.520784 -53.497635 
L 580.226309 -53.492656 
L 580.931835 -53.487755 
L 581.63736 -53.482992 
L 582.342885 -53.478089 
L 583.048411 -53.472981 
L 583.753936 -53.468069 
L 584.459462 -53.463039 
L 585.164987 -53.458031 
L 585.870512 -53.452833 
L 586.576038 -53.447841 
L 587.281563 -53.442997 
L 587.987088 -53.438042 
L 588.692614 -53.432694 
L 588.692614 -65.083581 
L 588.692614 -65.083581 
L 587.987088 -65.056071 
L 587.281563 -65.029319 
L 586.576038 -65.002786 
L 585.870512 -64.975665 
L 585.164987 -64.947976 
L 584.459462 -64.92045 
L 583.753936 -64.892849 
L 583.048411 -64.865548 
L 582.342885 -64.837599 
L 581.63736 -64.810017 
L 580.931835 -64.78281 
L 580.226309 -64.75519 
L 579.520784 -64.727575 
L 578.815259 -64.70065 
L 578.109733 -64.673484 
L 577.404208 -64.646316 
L 576.698683 -64.618951 
L 575.993157 -64.591394 
L 575.287632 -64.56374 
L 574.582107 -64.536461 
L 573.876581 -64.509437 
L 573.171056 -64.481816 
L 572.465531 -64.454516 
L 571.760005 -64.427455 
L 571.05448 -64.399875 
L 570.348955 -64.372089 
L 569.643429 -64.34381 
L 568.937904 -64.316099 
L 568.232378 -64.288275 
L 567.526853 -64.260641 
L 566.821328 -64.232852 
L 566.115802 -64.205928 
L 565.410277 -64.178375 
L 564.704752 -64.150776 
L 563.999226 -64.12292 
L 563.293701 -64.09525 
L 562.588176 -64.067925 
L 561.88265 -64.040888 
L 561.177125 -64.013246 
L 560.4716 -63.986329 
L 559.766074 -63.959518 
L 559.060549 -63.93271 
L 558.355024 -63.9061 
L 557.649498 -63.879267 
L 556.943973 -63.85312 
L 556.238447 -63.82682 
L 555.532922 -63.799326 
L 554.827397 -63.771908 
L 554.121871 -63.744712 
L 553.416346 -63.717517 
L 552.710821 -63.690655 
L 552.005295 -63.663427 
L 551.29977 -63.636035 
L 550.594245 -63.609002 
L 549.888719 -63.581886 
L 549.183194 -63.554711 
L 548.477669 -63.527203 
L 547.772143 -63.499464 
L 547.066618 -63.472211 
L 546.361093 -63.44515 
L 545.655567 -63.41743 
L 544.950042 -63.389188 
L 544.244517 -63.360371 
L 543.538991 -63.332226 
L 542.833466 -63.304265 
L 542.12794 -63.276171 
L 541.422415 -63.249142 
L 540.71689 -63.222416 
L 540.011364 -63.195323 
L 539.305839 -63.167429 
L 538.600314 -63.139562 
L 537.894788 -63.111263 
L 537.189263 -63.082438 
L 536.483738 -63.054036 
L 535.778212 -63.025893 
L 535.072687 -62.997349 
L 534.367162 -62.968466 
L 533.661636 -62.940516 
L 532.956111 -62.913379 
L 532.250586 -62.886723 
L 531.54506 -62.859621 
L 530.839535 -62.832042 
L 530.13401 -62.804343 
L 529.428484 -62.776338 
L 528.722959 -62.748042 
L 528.017433 -62.719565 
L 527.311908 -62.69098 
L 526.606383 -62.662747 
L 525.900857 -62.63485 
L 525.195332 -62.60675 
L 524.489807 -62.578584 
L 523.784281 -62.550325 
L 523.078756 -62.522608 
L 522.373231 -62.494645 
L 521.667705 -62.46584 
L 520.96218 -62.436921 
L 520.256655 -62.408361 
L 519.551129 -62.380098 
L 518.845604 -62.352425 
L 518.140079 -62.324889 
L 517.434553 -62.296483 
L 516.729028 -62.267656 
L 516.023502 -62.23889 
L 515.317977 -62.21042 
L 514.612452 -62.181697 
L 513.906926 -62.153193 
L 513.201401 -62.124541 
L 512.495876 -62.096112 
L 511.79035 -62.067593 
L 511.084825 -62.038882 
L 510.3793 -62.010678 
L 509.673774 -61.982006 
L 508.968249 -61.953828 
L 508.262724 -61.925862 
L 507.557198 -61.897508 
L 506.851673 -61.870066 
L 506.146148 -61.842224 
L 505.440622 -61.813436 
L 504.735097 -61.785199 
L 504.029572 -61.756632 
L 503.324046 -61.728408 
L 502.618521 -61.700017 
L 501.912995 -61.671493 
L 501.20747 -61.643767 
L 500.501945 -61.616488 
L 499.796419 -61.58945 
L 499.090894 -61.561889 
L 498.385369 -61.534446 
L 497.679843 -61.506804 
L 496.974318 -61.479107 
L 496.268793 -61.450862 
L 495.563267 -61.423886 
L 494.857742 -61.396669 
L 494.152217 -61.369015 
L 493.446691 -61.341088 
L 492.741166 -61.313477 
L 492.035641 -61.286713 
L 491.330115 -61.260349 
L 490.62459 -61.234995 
L 489.919065 -61.209571 
L 489.213539 -61.182781 
L 488.508014 -61.156239 
L 487.802488 -61.129911 
L 487.096963 -61.103941 
L 486.391438 -61.077833 
L 485.685912 -61.052218 
L 484.980387 -61.025734 
L 484.274862 -60.998948 
L 483.569336 -60.972894 
L 482.863811 -60.947315 
L 482.158286 -60.920653 
L 481.45276 -60.893762 
L 480.747235 -60.868245 
L 480.04171 -60.843248 
L 479.336184 -60.81719 
L 478.630659 -60.791199 
L 477.925134 -60.765205 
L 477.219608 -60.739477 
L 476.514083 -60.713377 
L 475.808557 -60.68789 
L 475.103032 -60.661542 
L 474.397507 -60.635013 
L 473.691981 -60.609211 
L 472.986456 -60.583491 
L 472.280931 -60.557493 
L 471.575405 -60.53194 
L 470.86988 -60.50626 
L 470.164355 -60.481647 
L 469.458829 -60.457022 
L 468.753304 -60.430892 
L 468.047779 -60.402452 
L 467.342253 -60.375259 
L 466.636728 -60.348139 
L 465.931203 -60.320617 
L 465.225677 -60.292669 
L 464.520152 -60.26512 
L 463.814627 -60.237925 
L 463.109101 -60.210478 
L 462.403576 -60.182434 
L 461.69805 -60.15513 
L 460.992525 -60.128798 
L 460.287 -60.102533 
L 459.581474 -60.076899 
L 458.875949 -60.051896 
L 458.170424 -60.026825 
L 457.464898 -60.002174 
L 456.759373 -59.976059 
L 456.053848 -59.950485 
L 455.348322 -59.925492 
L 454.642797 -59.901107 
L 453.937272 -59.876978 
L 453.231746 -59.851306 
L 452.526221 -59.825057 
L 451.820696 -59.799311 
L 451.11517 -59.774145 
L 450.409645 -59.749345 
L 449.70412 -59.723422 
L 448.998594 -59.697693 
L 448.293069 -59.671049 
L 447.587543 -59.644676 
L 446.882018 -59.618881 
L 446.176493 -59.593095 
L 445.470967 -59.567245 
L 444.765442 -59.541274 
L 444.059917 -59.515698 
L 443.354391 -59.490701 
L 442.648866 -59.465742 
L 441.943341 -59.441284 
L 441.237815 -59.415939 
L 440.53229 -59.391546 
L 439.826765 -59.367749 
L 439.121239 -59.343625 
L 438.415714 -59.31812 
L 437.710189 -59.292556 
L 437.004663 -59.266909 
L 436.299138 -59.242025 
L 435.593612 -59.216991 
L 434.888087 -59.191019 
L 434.182562 -59.164709 
L 433.477036 -59.137791 
L 432.771511 -59.110437 
L 432.065986 -59.084894 
L 431.36046 -59.06001 
L 430.654935 -59.034777 
L 429.94941 -59.010098 
L 429.243884 -58.986668 
L 428.538359 -58.962272 
L 427.832834 -58.937859 
L 427.127308 -58.913489 
L 426.421783 -58.887969 
L 425.716258 -58.863365 
L 425.010732 -58.838979 
L 424.305207 -58.814292 
L 423.599682 -58.789843 
L 422.894156 -58.765148 
L 422.188631 -58.74074 
L 421.483105 -58.714702 
L 420.77758 -58.689193 
L 420.072055 -58.664149 
L 419.366529 -58.638548 
L 418.661004 -58.613584 
L 417.955479 -58.588971 
L 417.249953 -58.565151 
L 416.544428 -58.540604 
L 415.838903 -58.516688 
L 415.133377 -58.492429 
L 414.427852 -58.468535 
L 413.722327 -58.444898 
L 413.016801 -58.421376 
L 412.311276 -58.397605 
L 411.605751 -58.373672 
L 410.900225 -58.350671 
L 410.1947 -58.328355 
L 409.489175 -58.304698 
L 408.783649 -58.280665 
L 408.078124 -58.256231 
L 407.372598 -58.230959 
L 406.667073 -58.20609 
L 405.961548 -58.181863 
L 405.256022 -58.157799 
L 404.550497 -58.133964 
L 403.844972 -58.109119 
L 403.139446 -58.084774 
L 402.433921 -58.059866 
L 401.728396 -58.035055 
L 401.02287 -58.009674 
L 400.317345 -57.9855 
L 399.61182 -57.961355 
L 398.906294 -57.936788 
L 398.200769 -57.91116 
L 397.495244 -57.885583 
L 396.789718 -57.860338 
L 396.084193 -57.834917 
L 395.378667 -57.808695 
L 394.673142 -57.782988 
L 393.967617 -57.757578 
L 393.262091 -57.730896 
L 392.556566 -57.704609 
L 391.851041 -57.679643 
L 391.145515 -57.654077 
L 390.43999 -57.628328 
L 389.734465 -57.602801 
L 389.028939 -57.577692 
L 388.323414 -57.553061 
L 387.617889 -57.528761 
L 386.912363 -57.504509 
L 386.206838 -57.479872 
L 385.501313 -57.454469 
L 384.795787 -57.428955 
L 384.090262 -57.40378 
L 383.384737 -57.378114 
L 382.679211 -57.351841 
L 381.973686 -57.326329 
L 381.26816 -57.301474 
L 380.562635 -57.274986 
L 379.85711 -57.248964 
L 379.151584 -57.224072 
L 378.446059 -57.198779 
L 377.740534 -57.172861 
L 377.035008 -57.147416 
L 376.329483 -57.122164 
L 375.623958 -57.096319 
L 374.918432 -57.07017 
L 374.212907 -57.043548 
L 373.507382 -57.016986 
L 372.801856 -56.991429 
L 372.096331 -56.965307 
L 371.390806 -56.938657 
L 370.68528 -56.91227 
L 369.979755 -56.88566 
L 369.27423 -56.85872 
L 368.568704 -56.832429 
L 367.863179 -56.80649 
L 367.157653 -56.780833 
L 366.452128 -56.755463 
L 365.746603 -56.731068 
L 365.041077 -56.705439 
L 364.335552 -56.680411 
L 363.630027 -56.655167 
L 362.924501 -56.629269 
L 362.218976 -56.604507 
L 361.513451 -56.579633 
L 360.807925 -56.554397 
L 360.1024 -56.529428 
L 359.396875 -56.503867 
L 358.691349 -56.47768 
L 357.985824 -56.452183 
L 357.280299 -56.426236 
L 356.574773 -56.400328 
L 355.869248 -56.374588 
L 355.163722 -56.348133 
L 354.458197 -56.321671 
L 353.752672 -56.296188 
L 353.047146 -56.270537 
L 352.341621 -56.24429 
L 351.636096 -56.218109 
L 350.93057 -56.192099 
L 350.225045 -56.166207 
L 349.51952 -56.139609 
L 348.813994 -56.114071 
L 348.108469 -56.089578 
L 347.402944 -56.0641 
L 346.697418 -56.039334 
L 345.991893 -56.014967 
L 345.286368 -55.990975 
L 344.580842 -55.9664 
L 343.875317 -55.942259 
L 343.169792 -55.916854 
L 342.464266 -55.89076 
L 341.758741 -55.865225 
L 341.053215 -55.839985 
L 340.34769 -55.815241 
L 339.642165 -55.790451 
L 338.936639 -55.765501 
L 338.231114 -55.740443 
L 337.525589 -55.715518 
L 336.820063 -55.689874 
L 336.114538 -55.664189 
L 335.409013 -55.638718 
L 334.703487 -55.613567 
L 333.997962 -55.588023 
L 333.292437 -55.563012 
L 332.586911 -55.537169 
L 331.881386 -55.512027 
L 331.175861 -55.487349 
L 330.470335 -55.461824 
L 329.76481 -55.436721 
L 329.059285 -55.411248 
L 328.353759 -55.385263 
L 327.648234 -55.359513 
L 326.942708 -55.333618 
L 326.237183 -55.307926 
L 325.531658 -55.283163 
L 324.826132 -55.258268 
L 324.120607 -55.232617 
L 323.415082 -55.207381 
L 322.709556 -55.181774 
L 322.004031 -55.155352 
L 321.298506 -55.129006 
L 320.59298 -55.10258 
L 319.887455 -55.076079 
L 319.18193 -55.049902 
L 318.476404 -55.023791 
L 317.770879 -54.997907 
L 317.065354 -54.971643 
L 316.359828 -54.946145 
L 315.654303 -54.920497 
L 314.948778 -54.893141 
L 314.243252 -54.866729 
L 313.537727 -54.839597 
L 312.832201 -54.812686 
L 312.126676 -54.78695 
L 311.421151 -54.760488 
L 310.715625 -54.734206 
L 310.0101 -54.707289 
L 309.304575 -54.680013 
L 308.599049 -54.653904 
L 307.893524 -54.627315 
L 307.187999 -54.600558 
L 306.482473 -54.573447 
L 305.776948 -54.546116 
L 305.071423 -54.519086 
L 304.365897 -54.492534 
L 303.660372 -54.466609 
L 302.954847 -54.443301 
L 302.249321 -54.425174 
L 301.543796 -54.414343 
L 300.83827 -54.409731 
L 300.132745 -54.408049 
L 299.42722 -54.407596 
L 298.721694 -54.407648 
L 298.016169 -54.407978 
L 297.310644 -54.40853 
L 296.605118 -54.409007 
L 295.899593 -54.409521 
L 295.194068 -54.410215 
L 294.488542 -54.41108 
L 293.783017 -54.411886 
L 293.077492 -54.412496 
L 292.371966 -54.413134 
L 291.666441 -54.413804 
L 290.960916 -54.414492 
L 290.25539 -54.415024 
L 289.549865 -54.415622 
L 288.84434 -54.416263 
L 288.138814 -54.416917 
L 287.433289 -54.41768 
L 286.727763 -54.418318 
L 286.022238 -54.419035 
L 285.316713 -54.419774 
L 284.611187 -54.420618 
L 283.905662 -54.421422 
L 283.200137 -54.422094 
L 282.494611 -54.422726 
L 281.789086 -54.423402 
L 281.083561 -54.424026 
L 280.378035 -54.424652 
L 279.67251 -54.425365 
L 278.966985 -54.426024 
L 278.261459 -54.426572 
L 277.555934 -54.427065 
L 276.850409 -54.427451 
L 276.144883 -54.427799 
L 275.439358 -54.428119 
L 274.733833 -54.428418 
L 274.028307 -54.428586 
L 273.322782 -54.428936 
L 272.617256 -54.429215 
L 271.911731 -54.429615 
L 271.206206 -54.429987 
L 270.50068 -54.430372 
L 269.795155 -54.430723 
L 269.08963 -54.43104 
L 268.384104 -54.43129 
L 267.678579 -54.431604 
L 266.973054 -54.431851 
L 266.267528 -54.432072 
L 265.562003 -54.432229 
L 264.856478 -54.432476 
L 264.150952 -54.432757 
L 263.445427 -54.433002 
L 262.739902 -54.433197 
L 262.034376 -54.433436 
L 261.328851 -54.433882 
L 260.623325 -54.434577 
L 259.9178 -60.814145 
L 259.212275 -60.774838 
L 258.506749 -60.745629 
L 257.801224 -60.717164 
L 257.095699 -60.688036 
L 256.390173 -60.659147 
L 255.684648 -60.629835 
L 254.979123 -60.599816 
L 254.273597 -60.56971 
L 253.568072 -60.539672 
L 252.862547 -60.510394 
L 252.157021 -60.480578 
L 251.451496 -60.450769 
L 250.745971 -60.420803 
L 250.040445 -60.391192 
L 249.33492 -60.361658 
L 248.629395 -60.331658 
L 247.923869 -60.301298 
L 247.218344 -60.272022 
L 246.512818 -60.24304 
L 245.807293 -60.214116 
L 245.101768 -60.185796 
L 244.396242 -60.157219 
L 243.690717 -60.129656 
L 242.985192 -60.101761 
L 242.279666 -60.073906 
L 241.574141 -60.047 
L 240.868616 -60.019072 
L 240.16309 -59.99094 
L 239.457565 -59.962138 
L 238.75204 -59.93347 
L 238.046514 -59.905311 
L 237.340989 -59.87669 
L 236.635464 -59.848243 
L 235.929938 -59.819816 
L 235.224413 -59.791697 
L 234.518888 -59.763911 
L 233.813362 -59.735798 
L 233.107837 -59.707294 
L 232.402311 -59.678281 
L 231.696786 -59.649369 
L 230.991261 -59.620692 
L 230.285735 -59.592003 
L 229.58021 -59.562824 
L 228.874685 -59.53338 
L 228.169159 -59.505247 
L 227.463634 -59.477566 
L 226.758109 -59.450911 
L 226.052583 -59.423661 
L 225.347058 -59.395848 
L 224.641533 -59.369256 
L 223.936007 -59.342874 
L 223.230482 -59.317648 
L 222.524957 -59.289833 
L 221.819431 -59.262254 
L 221.113906 -59.234961 
L 220.40838 -59.206141 
L 219.702855 -59.17658 
L 218.99733 -59.147398 
L 218.291804 -59.118674 
L 217.586279 -59.08922 
L 216.880754 -59.060143 
L 216.175228 -59.029513 
L 215.469703 -58.99963 
L 214.764178 -58.970041 
L 214.058652 -58.939772 
L 213.353127 -58.909821 
L 212.647602 -58.878182 
L 211.942076 -58.846497 
L 211.236551 -58.814478 
L 210.531026 -58.782106 
L 209.8255 -58.750711 
L 209.119975 -58.718886 
L 208.41445 -58.688331 
L 207.708924 -58.65882 
L 207.003399 -58.629446 
L 206.297873 -58.59906 
L 205.592348 -58.568213 
L 204.886823 -58.537987 
L 204.181297 -58.507193 
L 203.475772 -58.475988 
L 202.770247 -58.445543 
L 202.064721 -58.414991 
L 201.359196 -58.384119 
L 200.653671 -58.353419 
L 199.948145 -58.323357 
L 199.24262 -58.293933 
L 198.537095 -58.264746 
L 197.831569 -58.235737 
L 197.126044 -58.207414 
L 196.420519 -58.178739 
L 195.714993 -58.150044 
L 195.009468 -58.121082 
L 194.303943 -58.092539 
L 193.598417 -58.063746 
L 192.892892 -58.034069 
L 192.187366 -58.005509 
L 191.481841 -57.976485 
L 190.776316 -57.9458 
L 190.07079 -57.915536 
L 189.365265 -57.885304 
L 188.65974 -57.856083 
L 187.954214 -57.826861 
L 187.248689 -57.797791 
L 186.543164 -57.768953 
L 185.837638 -57.739141 
L 185.132113 -57.708659 
L 184.426588 -57.679804 
L 183.721062 -57.651551 
L 183.015537 -57.622017 
L 182.310012 -57.59173 
L 181.604486 -57.561445 
L 180.898961 -57.532328 
L 180.193435 -57.503337 
L 179.48791 -57.472956 
L 178.782385 -57.444469 
L 178.076859 -57.416618 
L 177.371334 -57.388859 
L 176.665809 -57.360722 
L 175.960283 -57.332793 
L 175.254758 -57.304601 
L 174.549233 -57.274945 
L 173.843707 -57.244867 
L 173.138182 -57.214761 
L 172.432657 -57.1862 
L 171.727131 -57.156742 
L 171.021606 -57.126452 
L 170.316081 -57.095813 
L 169.610555 -57.065147 
L 168.90503 -57.035921 
L 168.199505 -57.005466 
L 167.493979 -56.975024 
L 166.788454 -56.945335 
L 166.082928 -56.915281 
L 165.377403 -56.88591 
L 164.671878 -56.856029 
L 163.966352 -56.826645 
L 163.260827 -56.796539 
L 162.555302 -56.766549 
L 161.849776 -56.735498 
L 161.144251 -56.704298 
L 160.438726 -56.673434 
L 159.7332 -56.642818 
L 159.027675 -56.612906 
L 158.32215 -56.582944 
L 157.616624 -56.5532 
L 156.911099 -56.524176 
L 156.205574 -56.495358 
L 155.500048 -56.466486 
L 154.794523 -56.436869 
L 154.088998 -56.406208 
L 153.383472 -56.375226 
L 152.677947 -56.34556 
L 151.972421 -56.315266 
L 151.266896 -56.284614 
L 150.561371 -56.254682 
L 149.855845 -56.225485 
L 149.15032 -56.195256 
L 148.444795 -56.165059 
L 147.739269 -56.134502 
L 147.033744 -56.103957 
L 146.328219 -56.074196 
L 145.622693 -56.044404 
L 144.917168 -56.014211 
L 144.211643 -55.983952 
L 143.506117 -55.953609 
L 142.800592 -55.921204 
L 142.095067 -55.889006 
L 141.389541 -55.857167 
L 140.684016 -55.825476 
L 139.97849 -55.794554 
L 139.272965 -55.763058 
L 138.56744 -55.731444 
L 137.861914 -55.699235 
L 137.156389 -55.667188 
L 136.450864 -55.636804 
L 135.745338 -55.605573 
L 135.039813 -55.574243 
L 134.334288 -55.543701 
L 133.628762 -55.512258 
L 132.923237 -55.480971 
L 132.217712 -55.449921 
L 131.512186 -55.419573 
L 130.806661 -55.388931 
L 130.101136 -55.359075 
L 129.39561 -55.328338 
L 128.690085 -55.297101 
L 127.98456 -55.264924 
L 127.279034 -55.23247 
L 126.573509 -55.200583 
L 125.867983 -55.169005 
L 125.162458 -55.137617 
L 124.456933 -55.107627 
L 123.751407 -55.075891 
L 123.045882 -55.044066 
L 122.340357 -55.01065 
L 121.634831 -54.979004 
L 120.929306 -54.945998 
L 120.223781 -54.913214 
L 119.518255 -54.879499 
L 118.81273 -54.846761 
L 118.107205 -54.813882 
L 117.401679 -54.781435 
L 116.696154 -54.748269 
L 115.990629 -54.71483 
L 115.285103 -54.681648 
L 114.579578 -54.649878 
L 113.874053 -54.620868 
L 113.168527 -54.597161 
L 112.463002 -54.573542 
L 111.757476 -54.550054 
L 111.051951 -54.525837 
L 110.346426 -54.501309 
L 109.6409 -54.476548 
L 108.935375 -54.451221 
L 108.22985 -54.4258 
L 107.524324 -54.400563 
L 106.818799 -54.375677 
L 106.113274 -54.35034 
L 105.407748 -54.325147 
L 104.702223 -54.29993 
L 103.996698 -54.274463 
L 103.291172 -54.248539 
L 102.585647 -54.222361 
L 101.880122 -54.196581 
L 101.174596 -54.170575 
L 100.469071 -54.14374 
L 99.763545 -54.116866 
L 99.05802 -54.089431 
L 98.352495 -54.061475 
L 97.646969 -54.033766 
L 96.941444 -54.006088 
L 96.235919 -53.978691 
L 95.530393 -53.951265 
L 94.824868 -53.923599 
L 94.119343 -53.896671 
L 93.413817 -53.870199 
L 92.708292 -53.843909 
L 92.002767 -53.817357 
L 91.297241 -53.790837 
L 90.591716 -53.764677 
L 89.886191 -53.738423 
L 89.180665 -53.712179 
L 88.47514 -53.68634 
L 87.769615 -53.66086 
L 87.064089 -53.635707 
L 86.358564 -53.611146 
L 85.653038 -53.587389 
L 84.947513 -53.563921 
L 84.241988 -53.540144 
L 83.536462 -53.516308 
L 82.830937 -53.492137 
L 82.125412 -53.468085 
L 81.419886 -53.450729 
z
" style="stroke: #1f77b4; stroke-opacity: 0.2"/>
    </defs>
    <g clip-path="url(#pc469941a9b)">
     <use xlink:href="#m959d8685aa" x="0" y="392.514375" style="fill: #1f77b4; fill-opacity: 0.2; stroke: #1f77b4; stroke-opacity: 0.2"/>
    </g>
   </g>
   <g id="matplotlib.axis_1">
    <g id="xtick_1">
     <g id="line2d_1">
      <path d="M 80.714361 354.958125 
L 80.714361 22.318125 
" clip-path="url(#pc469941a9b)" style="fill: none; stroke: #b0b0b0; stroke-opacity: 0.3; stroke-width: 0.8; stroke-linecap: square"/>
     </g>
     <g id="line2d_2">
      <defs>
       <path id="m49d446730d" d="M 0 0 
L 0 3.5 
" style="stroke: #000000; stroke-width: 0.8"/>
      </defs>
      <g>
       <use xlink:href="#m49d446730d" x="80.714361" y="354.958125" style="stroke: #000000; stroke-width: 0.8"/>
      </g>
     </g>
     <g id="text_1">
      <!-- 0 -->
      <g transform="translate(77.533111 369.556562) scale(0.1 -0.1)">
       <defs>
        <path id="DejaVuSans-30" d="M 2034 4250 
Q 1547 4250 1301 3770 
Q 1056 3291 1056 2328 
Q 1056 1369 1301 889 
Q 1547 409 2034 409 
Q 2525 409 2770 889 
Q 3016 1369 3016 2328 
Q 3016 3291 2770 3770 
Q 2525 4250 2034 4250 
z
M 2034 4750 
Q 2819 4750 3233 4129 
Q 3647 3509 3647 2328 
Q 3647 1150 3233 529 
Q 2819 -91 2034 -91 
Q 1250 -91 836 529 
Q 422 1150 422 2328 
Q 422 3509 836 4129 
Q 1250 4750 2034 4750 
z
" transform="scale(0.015625)"/>
       </defs>
       <use xlink:href="#DejaVuSans-30"/>
      </g>
     </g>
    </g>
    <g id="xtick_2">
     <g id="line2d_3">
      <path d="M 165.377403 354.958125 
L 165.377403 22.318125 
" clip-path="url(#pc469941a9b)" style="fill: none; stroke: #b0b0b0; stroke-opacity: 0.3; stroke-width: 0.8; stroke-linecap: square"/>
     </g>
     <g id="line2d_4">
      <g>
       <use xlink:href="#m49d446730d" x="165.377403" y="354.958125" style="stroke: #000000; stroke-width: 0.8"/>
      </g>
     </g>
     <g id="text_2">
      <!-- 20 -->
      <g transform="translate(159.014903 369.556562) scale(0.1 -0.1)">
       <defs>
        <path id="DejaVuSans-32" d="M 1228 531 
L 3431 531 
L 3431 0 
L 469 0 
L 469 531 
Q 828 903 1448 1529 
Q 2069 2156 2228 2338 
Q 2531 2678 2651 2914 
Q 2772 3150 2772 3378 
Q 2772 3750 2511 3984 
Q 2250 4219 1831 4219 
Q 1534 4219 1204 4116 
Q 875 4013 500 3803 
L 500 4441 
Q 881 4594 1212 4672 
Q 1544 4750 1819 4750 
Q 2544 4750 2975 4387 
Q 3406 4025 3406 3419 
Q 3406 3131 3298 2873 
Q 3191 2616 2906 2266 
Q 2828 2175 2409 1742 
Q 1991 1309 1228 531 
z
" transform="scale(0.015625)"/>
       </defs>
       <use xlink:href="#DejaVuSans-32"/>
       <use xlink:href="#DejaVuSans-30" transform="translate(63.623047 0)"/>
      </g>
     </g>
    </g>
    <g id="xtick_3">
     <g id="line2d_5">
      <path d="M 250.040445 354.958125 
L 250.040445 22.318125 
" clip-path="url(#pc469941a9b)" style="fill: none; stroke: #b0b0b0; stroke-opacity: 0.3; stroke-width: 0.8; stroke-linecap: square"/>
     </g>
     <g id="line2d_6">
      <g>
       <use xlink:href="#m49d446730d" x="250.040445" y="354.958125" style="stroke: #000000; stroke-width: 0.8"/>
      </g>
     </g>
     <g id="text_3">
      <!-- 40 -->
      <g transform="translate(243.677945 369.556562) scale(0.1 -0.1)">
       <defs>
        <path id="DejaVuSans-34" d="M 2419 4116 
L 825 1625 
L 2419 1625 
L 2419 4116 
z
M 2253 4666 
L 3047 4666 
L 3047 1625 
L 3713 1625 
L 3713 1100 
L 3047 1100 
L 3047 0 
L 2419 0 
L 2419 1100 
L 313 1100 
L 313 1709 
L 2253 4666 
z
" transform="scale(0.015625)"/>
       </defs>
       <use xlink:href="#DejaVuSans-34"/>
       <use xlink:href="#DejaVuSans-30" transform="translate(63.623047 0)"/>
      </g>
     </g>
    </g>
    <g id="xtick_4">
     <g id="line2d_7">
      <path d="M 334.703487 354.958125 
L 334.703487 22.318125 
" clip-path="url(#pc469941a9b)" style="fill: none; stroke: #b0b0b0; stroke-opacity: 0.3; stroke-width: 0.8; stroke-linecap: square"/>
     </g>
     <g id="line2d_8">
      <g>
       <use xlink:href="#m49d446730d" x="334.703487" y="354.958125" style="stroke: #000000; stroke-width: 0.8"/>
      </g>
     </g>
     <g id="text_4">
      <!-- 60 -->
      <g transform="translate(328.340987 369.556562) scale(0.1 -0.1)">
       <defs>
        <path id="DejaVuSans-36" d="M 2113 2584 
Q 1688 2584 1439 2293 
Q 1191 2003 1191 1497 
Q 1191 994 1439 701 
Q 1688 409 2113 409 
Q 2538 409 2786 701 
Q 3034 994 3034 1497 
Q 3034 2003 2786 2293 
Q 2538 2584 2113 2584 
z
M 3366 4563 
L 3366 3988 
Q 3128 4100 2886 4159 
Q 2644 4219 2406 4219 
Q 1781 4219 1451 3797 
Q 1122 3375 1075 2522 
Q 1259 2794 1537 2939 
Q 1816 3084 2150 3084 
Q 2853 3084 3261 2657 
Q 3669 2231 3669 1497 
Q 3669 778 3244 343 
Q 2819 -91 2113 -91 
Q 1303 -91 875 529 
Q 447 1150 447 2328 
Q 447 3434 972 4092 
Q 1497 4750 2381 4750 
Q 2619 4750 2861 4703 
Q 3103 4656 3366 4563 
z
" transform="scale(0.015625)"/>
       </defs>
       <use xlink:href="#DejaVuSans-36"/>
       <use xlink:href="#DejaVuSans-30" transform="translate(63.623047 0)"/>
      </g>
     </g>
    </g>
    <g id="xtick_5">
     <g id="line2d_9">
      <path d="M 419.366529 354.958125 
L 419.366529 22.318125 
" clip-path="url(#pc469941a9b)" style="fill: none; stroke: #b0b0b0; stroke-opacity: 0.3; stroke-width: 0.8; stroke-linecap: square"/>
     </g>
     <g id="line2d_10">
      <g>
       <use xlink:href="#m49d446730d" x="419.366529" y="354.958125" style="stroke: #000000; stroke-width: 0.8"/>
      </g>
     </g>
     <g id="text_5">
      <!-- 80 -->
      <g transform="translate(413.004029 369.556562) scale(0.1 -0.1)">
       <defs>
        <path id="DejaVuSans-38" d="M 2034 2216 
Q 1584 2216 1326 1975 
Q 1069 1734 1069 1313 
Q 1069 891 1326 650 
Q 1584 409 2034 409 
Q 2484 409 2743 651 
Q 3003 894 3003 1313 
Q 3003 1734 2745 1975 
Q 2488 2216 2034 2216 
z
M 1403 2484 
Q 997 2584 770 2862 
Q 544 3141 544 3541 
Q 544 4100 942 4425 
Q 1341 4750 2034 4750 
Q 2731 4750 3128 4425 
Q 3525 4100 3525 3541 
Q 3525 3141 3298 2862 
Q 3072 2584 2669 2484 
Q 3125 2378 3379 2068 
Q 3634 1759 3634 1313 
Q 3634 634 3220 271 
Q 2806 -91 2034 -91 
Q 1263 -91 848 271 
Q 434 634 434 1313 
Q 434 1759 690 2068 
Q 947 2378 1403 2484 
z
M 1172 3481 
Q 1172 3119 1398 2916 
Q 1625 2713 2034 2713 
Q 2441 2713 2670 2916 
Q 2900 3119 2900 3481 
Q 2900 3844 2670 4047 
Q 2441 4250 2034 4250 
Q 1625 4250 1398 4047 
Q 1172 3844 1172 3481 
z
" transform="scale(0.015625)"/>
       </defs>
       <use xlink:href="#DejaVuSans-38"/>
       <use xlink:href="#DejaVuSans-30" transform="translate(63.623047 0)"/>
      </g>
     </g>
    </g>
    <g id="xtick_6">
     <g id="line2d_11">
      <path d="M 504.029572 354.958125 
L 504.029572 22.318125 
" clip-path="url(#pc469941a9b)" style="fill: none; stroke: #b0b0b0; stroke-opacity: 0.3; stroke-width: 0.8; stroke-linecap: square"/>
     </g>
     <g id="line2d_12">
      <g>
       <use xlink:href="#m49d446730d" x="504.029572" y="354.958125" style="stroke: #000000; stroke-width: 0.8"/>
      </g>
     </g>
     <g id="text_6">
      <!-- 100 -->
      <g transform="translate(494.485822 369.556562) scale(0.1 -0.1)">
       <defs>
        <path id="DejaVuSans-31" d="M 794 531 
L 1825 531 
L 1825 4091 
L 703 3866 
L 703 4441 
L 1819 4666 
L 2450 4666 
L 2450 531 
L 3481 531 
L 3481 0 
L 794 0 
L 794 531 
z
" transform="scale(0.015625)"/>
       </defs>
       <use xlink:href="#DejaVuSans-31"/>
       <use xlink:href="#DejaVuSans-30" transform="translate(63.623047 0)"/>
       <use xlink:href="#DejaVuSans-30" transform="translate(127.246094 0)"/>
      </g>
     </g>
    </g>
    <g id="xtick_7">
     <g id="line2d_13">
      <path d="M 588.692614 354.958125 
L 588.692614 22.318125 
" clip-path="url(#pc469941a9b)" style="fill: none; stroke: #b0b0b0; stroke-opacity: 0.3; stroke-width: 0.8; stroke-linecap: square"/>
     </g>
     <g id="line2d_14">
      <g>
       <use xlink:href="#m49d446730d" x="588.692614" y="354.958125" style="stroke: #000000; stroke-width: 0.8"/>
      </g>
     </g>
     <g id="text_7">
      <!-- 120 -->
      <g transform="translate(579.148864 369.556562) scale(0.1 -0.1)">
       <use xlink:href="#DejaVuSans-31"/>
       <use xlink:href="#DejaVuSans-32" transform="translate(63.623047 0)"/>
       <use xlink:href="#DejaVuSans-30" transform="translate(127.246094 0)"/>
      </g>
     </g>
    </g>
    <g id="text_8">
     <!-- Sim time (min) -->
     <g transform="translate(297.81875 383.234687) scale(0.1 -0.1)">
      <defs>
       <path id="DejaVuSans-53" d="M 3425 4513 
L 3425 3897 
Q 3066 4069 2747 4153 
Q 2428 4238 2131 4238 
Q 1616 4238 1336 4038 
Q 1056 3838 1056 3469 
Q 1056 3159 1242 3001 
Q 1428 2844 1947 2747 
L 2328 2669 
Q 3034 2534 3370 2195 
Q 3706 1856 3706 1288 
Q 3706 609 3251 259 
Q 2797 -91 1919 -91 
Q 1588 -91 1214 -16 
Q 841 59 441 206 
L 441 856 
Q 825 641 1194 531 
Q 1563 422 1919 422 
Q 2459 422 2753 634 
Q 3047 847 3047 1241 
Q 3047 1584 2836 1778 
Q 2625 1972 2144 2069 
L 1759 2144 
Q 1053 2284 737 2584 
Q 422 2884 422 3419 
Q 422 4038 858 4394 
Q 1294 4750 2059 4750 
Q 2388 4750 2728 4690 
Q 3069 4631 3425 4513 
z
" transform="scale(0.015625)"/>
       <path id="DejaVuSans-69" d="M 603 3500 
L 1178 3500 
L 1178 0 
L 603 0 
L 603 3500 
z
M 603 4863 
L 1178 4863 
L 1178 4134 
L 603 4134 
L 603 4863 
z
" transform="scale(0.015625)"/>
       <path id="DejaVuSans-6d" d="M 3328 2828 
Q 3544 3216 3844 3400 
Q 4144 3584 4550 3584 
Q 5097 3584 5394 3201 
Q 5691 2819 5691 2113 
L 5691 0 
L 5113 0 
L 5113 2094 
Q 5113 2597 4934 2840 
Q 4756 3084 4391 3084 
Q 3944 3084 3684 2787 
Q 3425 2491 3425 1978 
L 3425 0 
L 2847 0 
L 2847 2094 
Q 2847 2600 2669 2842 
Q 2491 3084 2119 3084 
Q 1678 3084 1418 2786 
Q 1159 2488 1159 1978 
L 1159 0 
L 581 0 
L 581 3500 
L 1159 3500 
L 1159 2956 
Q 1356 3278 1631 3431 
Q 1906 3584 2284 3584 
Q 2666 3584 2933 3390 
Q 3200 3197 3328 2828 
z
" transform="scale(0.015625)"/>
       <path id="DejaVuSans-20" transform="scale(0.015625)"/>
       <path id="DejaVuSans-74" d="M 1172 4494 
L 1172 3500 
L 2356 3500 
L 2356 3053 
L 1172 3053 
L 1172 1153 
Q 1172 725 1289 603 
Q 1406 481 1766 481 
L 2356 481 
L 2356 0 
L 1766 0 
Q 1100 0 847 248 
Q 594 497 594 1153 
L 594 3053 
L 172 3053 
L 172 3500 
L 594 3500 
L 594 4494 
L 1172 4494 
z
" transform="scale(0.015625)"/>
       <path id="DejaVuSans-65" d="M 3597 1894 
L 3597 1613 
L 953 1613 
Q 991 1019 1311 708 
Q 1631 397 2203 397 
Q 2534 397 2845 478 
Q 3156 559 3463 722 
L 3463 178 
Q 3153 47 2828 -22 
Q 2503 -91 2169 -91 
Q 1331 -91 842 396 
Q 353 884 353 1716 
Q 353 2575 817 3079 
Q 1281 3584 2069 3584 
Q 2775 3584 3186 3129 
Q 3597 2675 3597 1894 
z
M 3022 2063 
Q 3016 2534 2758 2815 
Q 2500 3097 2075 3097 
Q 1594 3097 1305 2825 
Q 1016 2553 972 2059 
L 3022 2063 
z
" transform="scale(0.015625)"/>
       <path id="DejaVuSans-28" d="M 1984 4856 
Q 1566 4138 1362 3434 
Q 1159 2731 1159 2009 
Q 1159 1288 1364 580 
Q 1569 -128 1984 -844 
L 1484 -844 
Q 1016 -109 783 600 
Q 550 1309 550 2009 
Q 550 2706 781 3412 
Q 1013 4119 1484 4856 
L 1984 4856 
z
" transform="scale(0.015625)"/>
       <path id="DejaVuSans-6e" d="M 3513 2113 
L 3513 0 
L 2938 0 
L 2938 2094 
Q 2938 2591 2744 2837 
Q 2550 3084 2163 3084 
Q 1697 3084 1428 2787 
Q 1159 2491 1159 1978 
L 1159 0 
L 581 0 
L 581 3500 
L 1159 3500 
L 1159 2956 
Q 1366 3272 1645 3428 
Q 1925 3584 2291 3584 
Q 2894 3584 3203 3211 
Q 3513 2838 3513 2113 
z
" transform="scale(0.015625)"/>
       <path id="DejaVuSans-29" d="M 513 4856 
L 1013 4856 
Q 1481 4119 1714 3412 
Q 1947 2706 1947 2009 
Q 1947 1309 1714 600 
Q 1481 -109 1013 -844 
L 513 -844 
Q 928 -128 1133 580 
Q 1338 1288 1338 2009 
Q 1338 2731 1133 3434 
Q 928 4138 513 4856 
z
" transform="scale(0.015625)"/>
      </defs>
      <use xlink:href="#DejaVuSans-53"/>
      <use xlink:href="#DejaVuSans-69" transform="translate(63.476562 0)"/>
      <use xlink:href="#DejaVuSans-6d" transform="translate(91.259766 0)"/>
      <use xlink:href="#DejaVuSans-20" transform="translate(188.671875 0)"/>
      <use xlink:href="#DejaVuSans-74" transform="translate(220.458984 0)"/>
      <use xlink:href="#DejaVuSans-69" transform="translate(259.667969 0)"/>
      <use xlink:href="#DejaVuSans-6d" transform="translate(287.451172 0)"/>
      <use xlink:href="#DejaVuSans-65" transform="translate(384.863281 0)"/>
      <use xlink:href="#DejaVuSans-20" transform="translate(446.386719 0)"/>
      <use xlink:href="#DejaVuSans-28" transform="translate(478.173828 0)"/>
      <use xlink:href="#DejaVuSans-6d" transform="translate(517.1875 0)"/>
      <use xlink:href="#DejaVuSans-69" transform="translate(614.599609 0)"/>
      <use xlink:href="#DejaVuSans-6e" transform="translate(642.382812 0)"/>
      <use xlink:href="#DejaVuSans-29" transform="translate(705.761719 0)"/>
     </g>
    </g>
   </g>
   <g id="matplotlib.axis_2">
    <g id="ytick_1">
     <g id="line2d_15">
      <path d="M 56.05625 310.285589 
L 614.05625 310.285589 
" clip-path="url(#pc469941a9b)" style="fill: none; stroke: #b0b0b0; stroke-opacity: 0.3; stroke-width: 0.8; stroke-linecap: square"/>
     </g>
     <g id="line2d_16">
      <defs>
       <path id="mfea5f3dd0c" d="M 0 0 
L -3.5 0 
" style="stroke: #000000; stroke-width: 0.8"/>
      </defs>
      <g>
       <use xlink:href="#mfea5f3dd0c" x="56.05625" y="310.285589" style="stroke: #000000; stroke-width: 0.8"/>
      </g>
     </g>
     <g id="text_9">
      <!-- $\mathdefault{10^{-11}}$ -->
      <g transform="translate(21.15625 314.084808) scale(0.1 -0.1)">
       <defs>
        <path id="DejaVuSans-2212" d="M 678 2272 
L 4684 2272 
L 4684 1741 
L 678 1741 
L 678 2272 
z
" transform="scale(0.015625)"/>
       </defs>
       <use xlink:href="#DejaVuSans-31" transform="translate(0 0.684375)"/>
       <use xlink:href="#DejaVuSans-30" transform="translate(63.623047 0.684375)"/>
       <use xlink:href="#DejaVuSans-2212" transform="translate(128.203125 38.965625) scale(0.7)"/>
       <use xlink:href="#DejaVuSans-31" transform="translate(186.855469 38.965625) scale(0.7)"/>
       <use xlink:href="#DejaVuSans-31" transform="translate(231.391602 38.965625) scale(0.7)"/>
      </g>
     </g>
    </g>
    <g id="ytick_2">
     <g id="line2d_17">
      <path d="M 56.05625 246.18618 
L 614.05625 246.18618 
" clip-path="url(#pc469941a9b)" style="fill: none; stroke: #b0b0b0; stroke-opacity: 0.3; stroke-width: 0.8; stroke-linecap: square"/>
     </g>
     <g id="line2d_18">
      <g>
       <use xlink:href="#mfea5f3dd0c" x="56.05625" y="246.18618" style="stroke: #000000; stroke-width: 0.8"/>
      </g>
     </g>
     <g id="text_10">
      <!-- $\mathdefault{10^{-9}}$ -->
      <g transform="translate(25.55625 249.985399) scale(0.1 -0.1)">
       <defs>
        <path id="DejaVuSans-39" d="M 703 97 
L 703 672 
Q 941 559 1184 500 
Q 1428 441 1663 441 
Q 2288 441 2617 861 
Q 2947 1281 2994 2138 
Q 2813 1869 2534 1725 
Q 2256 1581 1919 1581 
Q 1219 1581 811 2004 
Q 403 2428 403 3163 
Q 403 3881 828 4315 
Q 1253 4750 1959 4750 
Q 2769 4750 3195 4129 
Q 3622 3509 3622 2328 
Q 3622 1225 3098 567 
Q 2575 -91 1691 -91 
Q 1453 -91 1209 -44 
Q 966 3 703 97 
z
M 1959 2075 
Q 2384 2075 2632 2365 
Q 2881 2656 2881 3163 
Q 2881 3666 2632 3958 
Q 2384 4250 1959 4250 
Q 1534 4250 1286 3958 
Q 1038 3666 1038 3163 
Q 1038 2656 1286 2365 
Q 1534 2075 1959 2075 
z
" transform="scale(0.015625)"/>
       </defs>
       <use xlink:href="#DejaVuSans-31" transform="translate(0 0.765625)"/>
       <use xlink:href="#DejaVuSans-30" transform="translate(63.623047 0.765625)"/>
       <use xlink:href="#DejaVuSans-2212" transform="translate(128.203125 39.046875) scale(0.7)"/>
       <use xlink:href="#DejaVuSans-39" transform="translate(186.855469 39.046875) scale(0.7)"/>
      </g>
     </g>
    </g>
    <g id="ytick_3">
     <g id="line2d_19">
      <path d="M 56.05625 182.086771 
L 614.05625 182.086771 
" clip-path="url(#pc469941a9b)" style="fill: none; stroke: #b0b0b0; stroke-opacity: 0.3; stroke-width: 0.8; stroke-linecap: square"/>
     </g>
     <g id="line2d_20">
      <g>
       <use xlink:href="#mfea5f3dd0c" x="56.05625" y="182.086771" style="stroke: #000000; stroke-width: 0.8"/>
      </g>
     </g>
     <g id="text_11">
      <!-- $\mathdefault{10^{-7}}$ -->
      <g transform="translate(25.55625 185.88599) scale(0.1 -0.1)">
       <defs>
        <path id="DejaVuSans-37" d="M 525 4666 
L 3525 4666 
L 3525 4397 
L 1831 0 
L 1172 0 
L 2766 4134 
L 525 4134 
L 525 4666 
z
" transform="scale(0.015625)"/>
       </defs>
       <use xlink:href="#DejaVuSans-31" transform="translate(0 0.684375)"/>
       <use xlink:href="#DejaVuSans-30" transform="translate(63.623047 0.684375)"/>
       <use xlink:href="#DejaVuSans-2212" transform="translate(128.203125 38.965625) scale(0.7)"/>
       <use xlink:href="#DejaVuSans-37" transform="translate(186.855469 38.965625) scale(0.7)"/>
      </g>
     </g>
    </g>
    <g id="ytick_4">
     <g id="line2d_21">
      <path d="M 56.05625 117.987362 
L 614.05625 117.987362 
" clip-path="url(#pc469941a9b)" style="fill: none; stroke: #b0b0b0; stroke-opacity: 0.3; stroke-width: 0.8; stroke-linecap: square"/>
     </g>
     <g id="line2d_22">
      <g>
       <use xlink:href="#mfea5f3dd0c" x="56.05625" y="117.987362" style="stroke: #000000; stroke-width: 0.8"/>
      </g>
     </g>
     <g id="text_12">
      <!-- $\mathdefault{10^{-5}}$ -->
      <g transform="translate(25.55625 121.786581) scale(0.1 -0.1)">
       <defs>
        <path id="DejaVuSans-35" d="M 691 4666 
L 3169 4666 
L 3169 4134 
L 1269 4134 
L 1269 2991 
Q 1406 3038 1543 3061 
Q 1681 3084 1819 3084 
Q 2600 3084 3056 2656 
Q 3513 2228 3513 1497 
Q 3513 744 3044 326 
Q 2575 -91 1722 -91 
Q 1428 -91 1123 -41 
Q 819 9 494 109 
L 494 744 
Q 775 591 1075 516 
Q 1375 441 1709 441 
Q 2250 441 2565 725 
Q 2881 1009 2881 1497 
Q 2881 1984 2565 2268 
Q 2250 2553 1709 2553 
Q 1456 2553 1204 2497 
Q 953 2441 691 2322 
L 691 4666 
z
" transform="scale(0.015625)"/>
       </defs>
       <use xlink:href="#DejaVuSans-31" transform="translate(0 0.684375)"/>
       <use xlink:href="#DejaVuSans-30" transform="translate(63.623047 0.684375)"/>
       <use xlink:href="#DejaVuSans-2212" transform="translate(128.203125 38.965625) scale(0.7)"/>
       <use xlink:href="#DejaVuSans-35" transform="translate(186.855469 38.965625) scale(0.7)"/>
      </g>
     </g>
    </g>
    <g id="ytick_5">
     <g id="line2d_23">
      <path d="M 56.05625 53.887953 
L 614.05625 53.887953 
" clip-path="url(#pc469941a9b)" style="fill: none; stroke: #b0b0b0; stroke-opacity: 0.3; stroke-width: 0.8; stroke-linecap: square"/>
     </g>
     <g id="line2d_24">
      <g>
       <use xlink:href="#mfea5f3dd0c" x="56.05625" y="53.887953" style="stroke: #000000; stroke-width: 0.8"/>
      </g>
     </g>
     <g id="text_13">
      <!-- $\mathdefault{10^{-3}}$ -->
      <g transform="translate(25.55625 57.687172) scale(0.1 -0.1)">
       <defs>
        <path id="DejaVuSans-33" d="M 2597 2516 
Q 3050 2419 3304 2112 
Q 3559 1806 3559 1356 
Q 3559 666 3084 287 
Q 2609 -91 1734 -91 
Q 1441 -91 1130 -33 
Q 819 25 488 141 
L 488 750 
Q 750 597 1062 519 
Q 1375 441 1716 441 
Q 2309 441 2620 675 
Q 2931 909 2931 1356 
Q 2931 1769 2642 2001 
Q 2353 2234 1838 2234 
L 1294 2234 
L 1294 2753 
L 1863 2753 
Q 2328 2753 2575 2939 
Q 2822 3125 2822 3475 
Q 2822 3834 2567 4026 
Q 2313 4219 1838 4219 
Q 1578 4219 1281 4162 
Q 984 4106 628 3988 
L 628 4550 
Q 988 4650 1302 4700 
Q 1616 4750 1894 4750 
Q 2613 4750 3031 4423 
Q 3450 4097 3450 3541 
Q 3450 3153 3228 2886 
Q 3006 2619 2597 2516 
z
" transform="scale(0.015625)"/>
       </defs>
       <use xlink:href="#DejaVuSans-31" transform="translate(0 0.765625)"/>
       <use xlink:href="#DejaVuSans-30" transform="translate(63.623047 0.765625)"/>
       <use xlink:href="#DejaVuSans-2212" transform="translate(128.203125 39.046875) scale(0.7)"/>
       <use xlink:href="#DejaVuSans-33" transform="translate(186.855469 39.046875) scale(0.7)"/>
      </g>
     </g>
    </g>
    <g id="text_14">
     <!-- population.total_biomass_gDW (g, log) -->
     <g transform="translate(14.798438 285.467031) rotate(-90) scale(0.1 -0.1)">
      <defs>
       <path id="DejaVuSans-70" d="M 1159 525 
L 1159 -1331 
L 581 -1331 
L 581 3500 
L 1159 3500 
L 1159 2969 
Q 1341 3281 1617 3432 
Q 1894 3584 2278 3584 
Q 2916 3584 3314 3078 
Q 3713 2572 3713 1747 
Q 3713 922 3314 415 
Q 2916 -91 2278 -91 
Q 1894 -91 1617 61 
Q 1341 213 1159 525 
z
M 3116 1747 
Q 3116 2381 2855 2742 
Q 2594 3103 2138 3103 
Q 1681 3103 1420 2742 
Q 1159 2381 1159 1747 
Q 1159 1113 1420 752 
Q 1681 391 2138 391 
Q 2594 391 2855 752 
Q 3116 1113 3116 1747 
z
" transform="scale(0.015625)"/>
       <path id="DejaVuSans-6f" d="M 1959 3097 
Q 1497 3097 1228 2736 
Q 959 2375 959 1747 
Q 959 1119 1226 758 
Q 1494 397 1959 397 
Q 2419 397 2687 759 
Q 2956 1122 2956 1747 
Q 2956 2369 2687 2733 
Q 2419 3097 1959 3097 
z
M 1959 3584 
Q 2709 3584 3137 3096 
Q 3566 2609 3566 1747 
Q 3566 888 3137 398 
Q 2709 -91 1959 -91 
Q 1206 -91 779 398 
Q 353 888 353 1747 
Q 353 2609 779 3096 
Q 1206 3584 1959 3584 
z
" transform="scale(0.015625)"/>
       <path id="DejaVuSans-75" d="M 544 1381 
L 544 3500 
L 1119 3500 
L 1119 1403 
Q 1119 906 1312 657 
Q 1506 409 1894 409 
Q 2359 409 2629 706 
Q 2900 1003 2900 1516 
L 2900 3500 
L 3475 3500 
L 3475 0 
L 2900 0 
L 2900 538 
Q 2691 219 2414 64 
Q 2138 -91 1772 -91 
Q 1169 -91 856 284 
Q 544 659 544 1381 
z
M 1991 3584 
L 1991 3584 
z
" transform="scale(0.015625)"/>
       <path id="DejaVuSans-6c" d="M 603 4863 
L 1178 4863 
L 1178 0 
L 603 0 
L 603 4863 
z
" transform="scale(0.015625)"/>
       <path id="DejaVuSans-61" d="M 2194 1759 
Q 1497 1759 1228 1600 
Q 959 1441 959 1056 
Q 959 750 1161 570 
Q 1363 391 1709 391 
Q 2188 391 2477 730 
Q 2766 1069 2766 1631 
L 2766 1759 
L 2194 1759 
z
M 3341 1997 
L 3341 0 
L 2766 0 
L 2766 531 
Q 2569 213 2275 61 
Q 1981 -91 1556 -91 
Q 1019 -91 701 211 
Q 384 513 384 1019 
Q 384 1609 779 1909 
Q 1175 2209 1959 2209 
L 2766 2209 
L 2766 2266 
Q 2766 2663 2505 2880 
Q 2244 3097 1772 3097 
Q 1472 3097 1187 3025 
Q 903 2953 641 2809 
L 641 3341 
Q 956 3463 1253 3523 
Q 1550 3584 1831 3584 
Q 2591 3584 2966 3190 
Q 3341 2797 3341 1997 
z
" transform="scale(0.015625)"/>
       <path id="DejaVuSans-2e" d="M 684 794 
L 1344 794 
L 1344 0 
L 684 0 
L 684 794 
z
" transform="scale(0.015625)"/>
       <path id="DejaVuSans-5f" d="M 3263 -1063 
L 3263 -1509 
L -63 -1509 
L -63 -1063 
L 3263 -1063 
z
" transform="scale(0.015625)"/>
       <path id="DejaVuSans-62" d="M 3116 1747 
Q 3116 2381 2855 2742 
Q 2594 3103 2138 3103 
Q 1681 3103 1420 2742 
Q 1159 2381 1159 1747 
Q 1159 1113 1420 752 
Q 1681 391 2138 391 
Q 2594 391 2855 752 
Q 3116 1113 3116 1747 
z
M 1159 2969 
Q 1341 3281 1617 3432 
Q 1894 3584 2278 3584 
Q 2916 3584 3314 3078 
Q 3713 2572 3713 1747 
Q 3713 922 3314 415 
Q 2916 -91 2278 -91 
Q 1894 -91 1617 61 
Q 1341 213 1159 525 
L 1159 0 
L 581 0 
L 581 4863 
L 1159 4863 
L 1159 2969 
z
" transform="scale(0.015625)"/>
       <path id="DejaVuSans-73" d="M 2834 3397 
L 2834 2853 
Q 2591 2978 2328 3040 
Q 2066 3103 1784 3103 
Q 1356 3103 1142 2972 
Q 928 2841 928 2578 
Q 928 2378 1081 2264 
Q 1234 2150 1697 2047 
L 1894 2003 
Q 2506 1872 2764 1633 
Q 3022 1394 3022 966 
Q 3022 478 2636 193 
Q 2250 -91 1575 -91 
Q 1294 -91 989 -36 
Q 684 19 347 128 
L 347 722 
Q 666 556 975 473 
Q 1284 391 1588 391 
Q 1994 391 2212 530 
Q 2431 669 2431 922 
Q 2431 1156 2273 1281 
Q 2116 1406 1581 1522 
L 1381 1569 
Q 847 1681 609 1914 
Q 372 2147 372 2553 
Q 372 3047 722 3315 
Q 1072 3584 1716 3584 
Q 2034 3584 2315 3537 
Q 2597 3491 2834 3397 
z
" transform="scale(0.015625)"/>
       <path id="DejaVuSans-67" d="M 2906 1791 
Q 2906 2416 2648 2759 
Q 2391 3103 1925 3103 
Q 1463 3103 1205 2759 
Q 947 2416 947 1791 
Q 947 1169 1205 825 
Q 1463 481 1925 481 
Q 2391 481 2648 825 
Q 2906 1169 2906 1791 
z
M 3481 434 
Q 3481 -459 3084 -895 
Q 2688 -1331 1869 -1331 
Q 1566 -1331 1297 -1286 
Q 1028 -1241 775 -1147 
L 775 -588 
Q 1028 -725 1275 -790 
Q 1522 -856 1778 -856 
Q 2344 -856 2625 -561 
Q 2906 -266 2906 331 
L 2906 616 
Q 2728 306 2450 153 
Q 2172 0 1784 0 
Q 1141 0 747 490 
Q 353 981 353 1791 
Q 353 2603 747 3093 
Q 1141 3584 1784 3584 
Q 2172 3584 2450 3431 
Q 2728 3278 2906 2969 
L 2906 3500 
L 3481 3500 
L 3481 434 
z
" transform="scale(0.015625)"/>
       <path id="DejaVuSans-44" d="M 1259 4147 
L 1259 519 
L 2022 519 
Q 2988 519 3436 956 
Q 3884 1394 3884 2338 
Q 3884 3275 3436 3711 
Q 2988 4147 2022 4147 
L 1259 4147 
z
M 628 4666 
L 1925 4666 
Q 3281 4666 3915 4102 
Q 4550 3538 4550 2338 
Q 4550 1131 3912 565 
Q 3275 0 1925 0 
L 628 0 
L 628 4666 
z
" transform="scale(0.015625)"/>
       <path id="DejaVuSans-57" d="M 213 4666 
L 850 4666 
L 1831 722 
L 2809 4666 
L 3519 4666 
L 4500 722 
L 5478 4666 
L 6119 4666 
L 4947 0 
L 4153 0 
L 3169 4050 
L 2175 0 
L 1381 0 
L 213 4666 
z
" transform="scale(0.015625)"/>
       <path id="DejaVuSans-2c" d="M 750 794 
L 1409 794 
L 1409 256 
L 897 -744 
L 494 -744 
L 750 256 
L 750 794 
z
" transform="scale(0.015625)"/>
      </defs>
      <use xlink:href="#DejaVuSans-70"/>
      <use xlink:href="#DejaVuSans-6f" transform="translate(63.476562 0)"/>
      <use xlink:href="#DejaVuSans-70" transform="translate(124.658203 0)"/>
      <use xlink:href="#DejaVuSans-75" transform="translate(188.134766 0)"/>
      <use xlink:href="#DejaVuSans-6c" transform="translate(251.513672 0)"/>
      <use xlink:href="#DejaVuSans-61" transform="translate(279.296875 0)"/>
      <use xlink:href="#DejaVuSans-74" transform="translate(340.576172 0)"/>
      <use xlink:href="#DejaVuSans-69" transform="translate(379.785156 0)"/>
      <use xlink:href="#DejaVuSans-6f" transform="translate(407.568359 0)"/>
      <use xlink:href="#DejaVuSans-6e" transform="translate(468.75 0)"/>
      <use xlink:href="#DejaVuSans-2e" transform="translate(532.128906 0)"/>
      <use xlink:href="#DejaVuSans-74" transform="translate(563.916016 0)"/>
      <use xlink:href="#DejaVuSans-6f" transform="translate(603.125 0)"/>
      <use xlink:href="#DejaVuSans-74" transform="translate(664.306641 0)"/>
      <use xlink:href="#DejaVuSans-61" transform="translate(703.515625 0)"/>
      <use xlink:href="#DejaVuSans-6c" transform="translate(764.794922 0)"/>
      <use xlink:href="#DejaVuSans-5f" transform="translate(792.578125 0)"/>
      <use xlink:href="#DejaVuSans-62" transform="translate(842.578125 0)"/>
      <use xlink:href="#DejaVuSans-69" transform="translate(906.054688 0)"/>
      <use xlink:href="#DejaVuSans-6f" transform="translate(933.837891 0)"/>
      <use xlink:href="#DejaVuSans-6d" transform="translate(995.019531 0)"/>
      <use xlink:href="#DejaVuSans-61" transform="translate(1092.431641 0)"/>
      <use xlink:href="#DejaVuSans-73" transform="translate(1153.710938 0)"/>
      <use xlink:href="#DejaVuSans-73" transform="translate(1205.810547 0)"/>
      <use xlink:href="#DejaVuSans-5f" transform="translate(1257.910156 0)"/>
      <use xlink:href="#DejaVuSans-67" transform="translate(1307.910156 0)"/>
      <use xlink:href="#DejaVuSans-44" transform="translate(1371.386719 0)"/>
      <use xlink:href="#DejaVuSans-57" transform="translate(1448.388672 0)"/>
      <use xlink:href="#DejaVuSans-20" transform="translate(1547.265625 0)"/>
      <use xlink:href="#DejaVuSans-28" transform="translate(1579.052734 0)"/>
      <use xlink:href="#DejaVuSans-67" transform="translate(1618.066406 0)"/>
      <use xlink:href="#DejaVuSans-2c" transform="translate(1681.542969 0)"/>
      <use xlink:href="#DejaVuSans-20" transform="translate(1713.330078 0)"/>
      <use xlink:href="#DejaVuSans-6c" transform="translate(1745.117188 0)"/>
      <use xlink:href="#DejaVuSans-6f" transform="translate(1772.900391 0)"/>
      <use xlink:href="#DejaVuSans-67" transform="translate(1834.082031 0)"/>
      <use xlink:href="#DejaVuSans-29" transform="translate(1897.558594 0)"/>
     </g>
    </g>
   </g>
   <g id="line2d_25">
    <path d="M 81.419886 339.064933 
L 101.174596 338.733366 
L 142.095067 337.882031 
L 259.9178 335.182722 
L 260.623325 338.857424 
L 470.164355 334.879503 
L 518.845604 333.770419 
L 588.692614 332.071203 
L 588.692614 332.071203 
" clip-path="url(#pc469941a9b)" style="fill: none; stroke: #1f77b4; stroke-width: 2; stroke-linecap: square"/>
   </g>
   <g id="line2d_26">
    <path d="M 81.419886 146.768526 
L 94.824868 146.185229 
L 142.095067 143.838113 
L 171.021606 142.389278 
L 226.052583 139.751313 
L 259.9178 138.180974 
L 260.623325 147.738712 
L 285.316713 146.61249 
L 339.642165 144.145281 
L 552.005295 135.149741 
L 588.692614 133.587239 
L 588.692614 133.587239 
" clip-path="url(#pc469941a9b)" style="fill: none; stroke: #2ca02c; stroke-width: 2; stroke-linecap: square"/>
   </g>
   <g id="line2d_27">
    <path d="M 81.419886 50.619412 
L 94.824868 50.036116 
L 142.095067 47.689 
L 171.021606 46.240165 
L 226.052583 43.6022 
L 259.9178 42.031861 
L 260.623325 51.589598 
L 285.316713 50.463376 
L 339.642165 47.996167 
L 552.005295 39.000627 
L 588.692614 37.438125 
L 588.692614 37.438125 
" clip-path="url(#pc469941a9b)" style="fill: none; stroke: #d62728; stroke-width: 2; stroke-linecap: square"/>
   </g>
   <g id="patch_3">
    <path d="M 56.05625 354.958125 
L 56.05625 22.318125 
" style="fill: none; stroke: #000000; stroke-width: 0.8; stroke-linejoin: miter; stroke-linecap: square"/>
   </g>
   <g id="patch_4">
    <path d="M 614.05625 354.958125 
L 614.05625 22.318125 
" style="fill: none; stroke: #000000; stroke-width: 0.8; stroke-linejoin: miter; stroke-linecap: square"/>
   </g>
   <g id="patch_5">
    <path d="M 56.05625 354.958125 
L 614.05625 354.958125 
" style="fill: none; stroke: #000000; stroke-width: 0.8; stroke-linejoin: miter; stroke-linecap: square"/>
   </g>
   <g id="patch_6">
    <path d="M 56.05625 22.318125 
L 614.05625 22.318125 
" style="fill: none; stroke: #000000; stroke-width: 0.8; stroke-linejoin: miter; stroke-linecap: square"/>
   </g>
   <g id="text_15">
    <!-- cells_per_agent scaling — mean ± std across seeds -->
    <g transform="translate(179.906563 16.318125) scale(0.12 -0.12)">
     <defs>
      <path id="DejaVuSans-63" d="M 3122 3366 
L 3122 2828 
Q 2878 2963 2633 3030 
Q 2388 3097 2138 3097 
Q 1578 3097 1268 2742 
Q 959 2388 959 1747 
Q 959 1106 1268 751 
Q 1578 397 2138 397 
Q 2388 397 2633 464 
Q 2878 531 3122 666 
L 3122 134 
Q 2881 22 2623 -34 
Q 2366 -91 2075 -91 
Q 1284 -91 818 406 
Q 353 903 353 1747 
Q 353 2603 823 3093 
Q 1294 3584 2113 3584 
Q 2378 3584 2631 3529 
Q 2884 3475 3122 3366 
z
" transform="scale(0.015625)"/>
      <path id="DejaVuSans-72" d="M 2631 2963 
Q 2534 3019 2420 3045 
Q 2306 3072 2169 3072 
Q 1681 3072 1420 2755 
Q 1159 2438 1159 1844 
L 1159 0 
L 581 0 
L 581 3500 
L 1159 3500 
L 1159 2956 
Q 1341 3275 1631 3429 
Q 1922 3584 2338 3584 
Q 2397 3584 2469 3576 
Q 2541 3569 2628 3553 
L 2631 2963 
z
" transform="scale(0.015625)"/>
      <path id="DejaVuSans-2014" d="M 313 1978 
L 6088 1978 
L 6088 1528 
L 313 1528 
L 313 1978 
z
" transform="scale(0.015625)"/>
      <path id="DejaVuSans-b1" d="M 2944 4013 
L 2944 2803 
L 4684 2803 
L 4684 2272 
L 2944 2272 
L 2944 1063 
L 2419 1063 
L 2419 2272 
L 678 2272 
L 678 2803 
L 2419 2803 
L 2419 4013 
L 2944 4013 
z
M 678 531 
L 4684 531 
L 4684 0 
L 678 0 
L 678 531 
z
" transform="scale(0.015625)"/>
      <path id="DejaVuSans-64" d="M 2906 2969 
L 2906 4863 
L 3481 4863 
L 3481 0 
L 2906 0 
L 2906 525 
Q 2725 213 2448 61 
Q 2172 -91 1784 -91 
Q 1150 -91 751 415 
Q 353 922 353 1747 
Q 353 2572 751 3078 
Q 1150 3584 1784 3584 
Q 2172 3584 2448 3432 
Q 2725 3281 2906 2969 
z
M 947 1747 
Q 947 1113 1208 752 
Q 1469 391 1925 391 
Q 2381 391 2643 752 
Q 2906 1113 2906 1747 
Q 2906 2381 2643 2742 
Q 2381 3103 1925 3103 
Q 1469 3103 1208 2742 
Q 947 2381 947 1747 
z
" transform="scale(0.015625)"/>
     </defs>
     <use xlink:href="#DejaVuSans-63"/>
     <use xlink:href="#DejaVuSans-65" transform="translate(54.980469 0)"/>
     <use xlink:href="#DejaVuSans-6c" transform="translate(116.503906 0)"/>
     <use xlink:href="#DejaVuSans-6c" transform="translate(144.287109 0)"/>
     <use xlink:href="#DejaVuSans-73" transform="translate(172.070312 0)"/>
     <use xlink:href="#DejaVuSans-5f" transform="translate(224.169922 0)"/>
     <use xlink:href="#DejaVuSans-70" transform="translate(274.169922 0)"/>
     <use xlink:href="#DejaVuSans-65" transform="translate(337.646484 0)"/>
     <use xlink:href="#DejaVuSans-72" transform="translate(399.169922 0)"/>
     <use xlink:href="#DejaVuSans-5f" transform="translate(440.283203 0)"/>
     <use xlink:href="#DejaVuSans-61" transform="translate(490.283203 0)"/>
     <use xlink:href="#DejaVuSans-67" transform="translate(551.5625 0)"/>
     <use xlink:href="#DejaVuSans-65" transform="translate(615.039062 0)"/>
     <use xlink:href="#DejaVuSans-6e" transform="translate(676.5625 0)"/>
     <use xlink:href="#DejaVuSans-74" transform="translate(739.941406 0)"/>
     <use xlink:href="#DejaVuSans-20" transform="translate(779.150391 0)"/>
     <use xlink:href="#DejaVuSans-73" transform="translate(810.9375 0)"/>
     <use xlink:href="#DejaVuSans-63" transform="translate(863.037109 0)"/>
     <use xlink:href="#DejaVuSans-61" transform="translate(918.017578 0)"/>
     <use xlink:href="#DejaVuSans-6c" transform="translate(979.296875 0)"/>
     <use xlink:href="#DejaVuSans-69" transform="translate(1007.080078 0)"/>
     <use xlink:href="#DejaVuSans-6e" transform="translate(1034.863281 0)"/>
     <use xlink:href="#DejaVuSans-67" transform="translate(1098.242188 0)"/>
     <use xlink:href="#DejaVuSans-20" transform="translate(1161.71875 0)"/>
     <use xlink:href="#DejaVuSans-2014" transform="translate(1193.505859 0)"/>
     <use xlink:href="#DejaVuSans-20" transform="translate(1293.505859 0)"/>
     <use xlink:href="#DejaVuSans-6d" transform="translate(1325.292969 0)"/>
     <use xlink:href="#DejaVuSans-65" transform="translate(1422.705078 0)"/>
     <use xlink:href="#DejaVuSans-61" transform="translate(1484.228516 0)"/>
     <use xlink:href="#DejaVuSans-6e" transform="translate(1545.507812 0)"/>
     <use xlink:href="#DejaVuSans-20" transform="translate(1608.886719 0)"/>
     <use xlink:href="#DejaVuSans-b1" transform="translate(1640.673828 0)"/>
     <use xlink:href="#DejaVuSans-20" transform="translate(1724.462891 0)"/>
     <use xlink:href="#DejaVuSans-73" transform="translate(1756.25 0)"/>
     <use xlink:href="#DejaVuSans-74" transform="translate(1808.349609 0)"/>
     <use xlink:href="#DejaVuSans-64" transform="translate(1847.558594 0)"/>
     <use xlink:href="#DejaVuSans-20" transform="translate(1911.035156 0)"/>
     <use xlink:href="#DejaVuSans-61" transform="translate(1942.822266 0)"/>
     <use xlink:href="#DejaVuSans-63" transform="translate(2004.101562 0)"/>
     <use xlink:href="#DejaVuSans-72" transform="translate(2059.082031 0)"/>
     <use xlink:href="#DejaVuSans-6f" transform="translate(2097.945312 0)"/>
     <use xlink:href="#DejaVuSans-73" transform="translate(2159.126953 0)"/>
     <use xlink:href="#DejaVuSans-73" transform="translate(2211.226562 0)"/>
     <use xlink:href="#DejaVuSans-20" transform="translate(2263.326172 0)"/>
     <use xlink:href="#DejaVuSans-73" transform="translate(2295.113281 0)"/>
     <use xlink:href="#DejaVuSans-65" transform="translate(2347.212891 0)"/>
     <use xlink:href="#DejaVuSans-65" transform="translate(2408.736328 0)"/>
     <use xlink:href="#DejaVuSans-64" transform="translate(2470.259766 0)"/>
     <use xlink:href="#DejaVuSans-73" transform="translate(2533.736328 0)"/>
    </g>
   </g>
   <g id="legend_1">
    <g id="patch_7">
     <path d="M 444.4125 212.155312 
L 607.05625 212.155312 
Q 609.05625 212.155312 609.05625 210.155312 
L 609.05625 167.120937 
Q 609.05625 165.120937 607.05625 165.120937 
L 444.4125 165.120937 
Q 442.4125 165.120937 442.4125 167.120937 
L 442.4125 210.155312 
Q 442.4125 212.155312 444.4125 212.155312 
z
" style="fill: #ffffff; opacity: 0.8; stroke: #cccccc; stroke-linejoin: miter"/>
    </g>
    <g id="line2d_28">
     <path d="M 446.4125 173.219375 
L 456.4125 173.219375 
L 466.4125 173.219375 
" style="fill: none; stroke: #1f77b4; stroke-width: 2; stroke-linecap: square"/>
    </g>
    <g id="text_16">
     <!-- cpa = 1 (n=3 seeds) -->
     <g transform="translate(474.4125 176.719375) scale(0.1 -0.1)">
      <defs>
       <path id="DejaVuSans-3d" d="M 678 2906 
L 4684 2906 
L 4684 2381 
L 678 2381 
L 678 2906 
z
M 678 1631 
L 4684 1631 
L 4684 1100 
L 678 1100 
L 678 1631 
z
" transform="scale(0.015625)"/>
      </defs>
      <use xlink:href="#DejaVuSans-63"/>
      <use xlink:href="#DejaVuSans-70" transform="translate(54.980469 0)"/>
      <use xlink:href="#DejaVuSans-61" transform="translate(118.457031 0)"/>
      <use xlink:href="#DejaVuSans-20" transform="translate(179.736328 0)"/>
      <use xlink:href="#DejaVuSans-3d" transform="translate(211.523438 0)"/>
      <use xlink:href="#DejaVuSans-20" transform="translate(295.3125 0)"/>
      <use xlink:href="#DejaVuSans-31" transform="translate(327.099609 0)"/>
      <use xlink:href="#DejaVuSans-20" transform="translate(390.722656 0)"/>
      <use xlink:href="#DejaVuSans-28" transform="translate(422.509766 0)"/>
      <use xlink:href="#DejaVuSans-6e" transform="translate(461.523438 0)"/>
      <use xlink:href="#DejaVuSans-3d" transform="translate(524.902344 0)"/>
      <use xlink:href="#DejaVuSans-33" transform="translate(608.691406 0)"/>
      <use xlink:href="#DejaVuSans-20" transform="translate(672.314453 0)"/>
      <use xlink:href="#DejaVuSans-73" transform="translate(704.101562 0)"/>
      <use xlink:href="#DejaVuSans-65" transform="translate(756.201172 0)"/>
      <use xlink:href="#DejaVuSans-65" transform="translate(817.724609 0)"/>
      <use xlink:href="#DejaVuSans-64" transform="translate(879.248047 0)"/>
      <use xlink:href="#DejaVuSans-73" transform="translate(942.724609 0)"/>
      <use xlink:href="#DejaVuSans-29" transform="translate(994.824219 0)"/>
     </g>
    </g>
    <g id="line2d_29">
     <path d="M 446.4125 187.8975 
L 456.4125 187.8975 
L 466.4125 187.8975 
" style="fill: none; stroke: #2ca02c; stroke-width: 2; stroke-linecap: square"/>
    </g>
    <g id="text_17">
     <!-- cpa = 1e+06 (n=1 seeds) -->
     <g transform="translate(474.4125 191.3975) scale(0.1 -0.1)">
      <defs>
       <path id="DejaVuSans-2b" d="M 2944 4013 
L 2944 2272 
L 4684 2272 
L 4684 1741 
L 2944 1741 
L 2944 0 
L 2419 0 
L 2419 1741 
L 678 1741 
L 678 2272 
L 2419 2272 
L 2419 4013 
L 2944 4013 
z
" transform="scale(0.015625)"/>
      </defs>
      <use xlink:href="#DejaVuSans-63"/>
      <use xlink:href="#DejaVuSans-70" transform="translate(54.980469 0)"/>
      <use xlink:href="#DejaVuSans-61" transform="translate(118.457031 0)"/>
      <use xlink:href="#DejaVuSans-20" transform="translate(179.736328 0)"/>
      <use xlink:href="#DejaVuSans-3d" transform="translate(211.523438 0)"/>
      <use xlink:href="#DejaVuSans-20" transform="translate(295.3125 0)"/>
      <use xlink:href="#DejaVuSans-31" transform="translate(327.099609 0)"/>
      <use xlink:href="#DejaVuSans-65" transform="translate(390.722656 0)"/>
      <use xlink:href="#DejaVuSans-2b" transform="translate(452.246094 0)"/>
      <use xlink:href="#DejaVuSans-30" transform="translate(536.035156 0)"/>
      <use xlink:href="#DejaVuSans-36" transform="translate(599.658203 0)"/>
      <use xlink:href="#DejaVuSans-20" transform="translate(663.28125 0)"/>
      <use xlink:href="#DejaVuSans-28" transform="translate(695.068359 0)"/>
      <use xlink:href="#DejaVuSans-6e" transform="translate(734.082031 0)"/>
      <use xlink:href="#DejaVuSans-3d" transform="translate(797.460938 0)"/>
      <use xlink:href="#DejaVuSans-31" transform="translate(881.25 0)"/>
      <use xlink:href="#DejaVuSans-20" transform="translate(944.873047 0)"/>
      <use xlink:href="#DejaVuSans-73" transform="translate(976.660156 0)"/>
      <use xlink:href="#DejaVuSans-65" transform="translate(1028.759766 0)"/>
      <use xlink:href="#DejaVuSans-65" transform="translate(1090.283203 0)"/>
      <use xlink:href="#DejaVuSans-64" transform="translate(1151.806641 0)"/>
      <use xlink:href="#DejaVuSans-73" transform="translate(1215.283203 0)"/>
      <use xlink:href="#DejaVuSans-29" transform="translate(1267.382812 0)"/>
     </g>
    </g>
    <g id="line2d_30">
     <path d="M 446.4125 202.575625 
L 456.4125 202.575625 
L 466.4125 202.575625 
" style="fill: none; stroke: #d62728; stroke-width: 2; stroke-linecap: square"/>
    </g>
    <g id="text_18">
     <!-- cpa = 1e+09 (n=1 seeds) -->
     <g transform="translate(474.4125 206.075625) scale(0.1 -0.1)">
      <use xlink:href="#DejaVuSans-63"/>
      <use xlink:href="#DejaVuSans-70" transform="translate(54.980469 0)"/>
      <use xlink:href="#DejaVuSans-61" transform="translate(118.457031 0)"/>
      <use xlink:href="#DejaVuSans-20" transform="translate(179.736328 0)"/>
      <use xlink:href="#DejaVuSans-3d" transform="translate(211.523438 0)"/>
      <use xlink:href="#DejaVuSans-20" transform="translate(295.3125 0)"/>
      <use xlink:href="#DejaVuSans-31" transform="translate(327.099609 0)"/>
      <use xlink:href="#DejaVuSans-65" transform="translate(390.722656 0)"/>
      <use xlink:href="#DejaVuSans-2b" transform="translate(452.246094 0)"/>
      <use xlink:href="#DejaVuSans-30" transform="translate(536.035156 0)"/>
      <use xlink:href="#DejaVuSans-39" transform="translate(599.658203 0)"/>
      <use xlink:href="#DejaVuSans-20" transform="translate(663.28125 0)"/>
      <use xlink:href="#DejaVuSans-28" transform="translate(695.068359 0)"/>
      <use xlink:href="#DejaVuSans-6e" transform="translate(734.082031 0)"/>
      <use xlink:href="#DejaVuSans-3d" transform="translate(797.460938 0)"/>
      <use xlink:href="#DejaVuSans-31" transform="translate(881.25 0)"/>
      <use xlink:href="#DejaVuSans-20" transform="translate(944.873047 0)"/>
      <use xlink:href="#DejaVuSans-73" transform="translate(976.660156 0)"/>
      <use xlink:href="#DejaVuSans-65" transform="translate(1028.759766 0)"/>
      <use xlink:href="#DejaVuSans-65" transform="translate(1090.283203 0)"/>
      <use xlink:href="#DejaVuSans-64" transform="translate(1151.806641 0)"/>
      <use xlink:href="#DejaVuSans-73" transform="translate(1215.283203 0)"/>
      <use xlink:href="#DejaVuSans-29" transform="translate(1267.382812 0)"/>
     </g>
    </g>
   </g>
  </g>
 </g>
 <defs>
  <clipPath id="pc469941a9b">
   <rect x="56.05625" y="22.318125" width="558" height="332.64"/>
  </clipPath>
 </defs>
</svg>
