<svg xmlns="http://www.w3.org/2000/svg" width="760" height="420" viewBox="0 0 760 420" font-family="-apple-system,sans-serif" font-size="13">
<rect width="760" height="420" fill="white"/>
<rect x="0" y="0" width="760" height="42" fill="#0f172a"/>
<text x="380.0" y="27" text-anchor="middle" fill="white" font-weight="600" font-size="15">dnaa-01f-recalibrate — Joint-sweep result scoreboard</text>
<rect x="30" y="60" width="700" height="44" fill="#f8fafc" rx="3"/>
<text x="42" y="80" fill="#0f172a" font-weight="600">Single-knob TE sweep</text>
<text x="42" y="96" fill="#64748b" font-size="11">19 sims · 5 seeds × 7 multipliers</text>
<text x="570" y="86" text-anchor="end" fill="#0f172a" font-weight="600" font-size="14" font-family="ui-monospace,monospace">No TE passes both</text>
<rect x="620" y="70" width="100" height="24" rx="12" fill="#dc2626"/>
<text x="670" y="86" text-anchor="middle" fill="white" font-weight="700" font-size="11">✗ FAIL</text>
<rect x="30" y="110" width="700" height="44" fill="#f8fafc" rx="3"/>
<text x="42" y="130" fill="#0f172a" font-weight="600">15× single-knob compromise</text>
<text x="42" y="146" fill="#64748b" font-size="11">Autorep PASS r=−0.533 · count short 18%</text>
<text x="570" y="136" text-anchor="end" fill="#0f172a" font-weight="600" font-size="14" font-family="ui-monospace,monospace">247 DnaA/cell</text>
<rect x="620" y="120" width="100" height="24" rx="12" fill="#f59e0b"/>
<text x="670" y="136" text-anchor="middle" fill="white" font-weight="700" font-size="11">⚠ PARTIAL</text>
<rect x="30" y="160" width="700" height="44" fill="#f8fafc" rx="3"/>
<text x="42" y="180" fill="#0f172a" font-weight="600">Phase transition discovered</text>
<text x="42" y="196" fill="#64748b" font-size="11">Pearson r flips +0.78 at TE=25×</text>
<text x="570" y="186" text-anchor="end" fill="#0f172a" font-weight="600" font-size="14" font-family="ui-monospace,monospace">20×→25× boundary</text>
<rect x="620" y="170" width="100" height="24" rx="12" fill="#3b82f6"/>
<text x="670" y="186" text-anchor="middle" fill="white" font-weight="700" font-size="11">◆ INFO</text>
<rect x="30" y="210" width="700" height="44" fill="#f8fafc" rx="3"/>
<text x="42" y="230" fill="#0f172a" font-weight="600">Joint sweep WIN (TE=20×, fc=0.7)</text>
<text x="42" y="246" fill="#64748b" font-size="11">5 seeds; both primary tests PASS</text>
<text x="570" y="236" text-anchor="end" fill="#0f172a" font-weight="600" font-size="14" font-family="ui-monospace,monospace">DnaA=707, r=−0.521</text>
<rect x="620" y="220" width="100" height="24" rx="12" fill="#16a34a"/>
<text x="670" y="236" text-anchor="middle" fill="white" font-weight="700" font-size="11">✓ PASS</text>
</svg>